# https://github.com/mikedh/trimesh
v 0.03449990 -0.02109978 -0.09185039
v 0.03449990 -0.02110283 -0.09181102
v 0.03449990 -0.02111303 -0.09167467
v 0.03449990 -0.02113809 -0.09132378
v 0.03449990 -0.02115213 -0.09106898
v 0.03449990 -0.02115488 -0.09101869
v 0.03449990 -0.02104486 -0.09220466
v 0.03449990 -0.02101814 -0.09232640
v 0.03449990 -0.02095699 -0.09258487
v 0.03449990 -0.02097628 -0.09250798
v 0.03449990 -0.02076948 -0.09305352
v 0.03449990 -0.02084741 -0.09287973
v 0.03449990 -0.02107725 -0.09202151
v 0.03496790 -0.02098587 -0.09184641
v 0.03522444 -0.02090132 -0.09213906
v 0.03449990 -0.02139841 -0.08650430
v 0.03449990 -0.02141057 -0.08627789
v 0.03449990 -0.02147066 -0.08502478
v 0.03449990 -0.02145917 -0.08527393
v 0.03449990 -0.02152093 -0.08381012
v 0.03449990 -0.02153302 -0.08350822
v 0.03496790 -0.02139691 -0.08409121
v 0.03488581 -0.02136285 -0.08539057
v 0.03496790 -0.02133819 -0.08545495
v 0.03449990 -0.02071474 -0.09315388
v 0.03449990 -0.02045325 -0.09355502
v 0.03449990 -0.02029082 -0.09379295
v 0.03449990 -0.02001212 -0.09417058
v 0.03449990 -0.01993135 -0.09427759
v 0.03449990 -0.01967856 -0.09458144
v 0.03581448 -0.02070285 -0.09265412
v 0.03631217 -0.02053491 -0.09299945
v 0.03449990 -0.02175743 -0.07776462
v 0.03449990 -0.02178943 -0.07681080
v 0.03449990 -0.02179648 -0.07652587
v 0.03449990 -0.02177424 -0.07728765
v 0.03449990 -0.02178040 -0.07709776
v 0.03496790 -0.02166701 -0.07712031
v 0.03535271 -0.02156602 -0.07737784
v 0.03449990 -0.02194297 -0.07038935
v 0.03449990 -0.02194871 -0.07011586
v 0.03449990 -0.02195338 -0.06984666
v 0.03449990 -0.02195662 -0.06959528
v 0.03449990 -0.02196187 -0.06915047
v 0.03496790 -0.02183495 -0.07008503
v 0.03549124 -0.02170577 -0.07004991
v 0.03449990 -0.01893561 -0.09544239
v 0.03449990 -0.01850090 -0.09590496
v 0.03449990 -0.01786949 -0.09651659
v 0.03449990 -0.01785987 -0.09652452
v 0.03449990 -0.01718842 -0.09707270
v 0.03636348 -0.01850090 -0.09589667
v 0.03726137 -0.02021196 -0.09365498
v 0.03780524 -0.01997943 -0.09404713
v 0.03816439 -0.01988548 -0.09299945
v 0.03804125 -0.02028830 -0.08813562
v 0.03449990 -0.02201398 -0.06399991
v 0.03449990 -0.02201624 -0.06366355
v 0.03449990 -0.02201830 -0.06332579
v 0.03449990 -0.02201861 -0.06294789
v 0.03449990 -0.02201727 -0.06274029
v 0.03449990 -0.02201520 -0.06244619
v 0.03496790 -0.02190071 -0.06367017
v 0.03496790 -0.02190306 -0.06328387
v 0.03496790 -0.02190071 -0.06295025
v 0.03536297 -0.02180206 -0.06338337
v 0.03449990 -0.02197068 -0.05815337
v 0.03496790 -0.02185021 -0.05808057
v 0.03449990 -0.02190377 -0.05191881
v 0.03449990 -0.02189897 -0.05159138
v 0.03449990 -0.02189814 -0.05156775
v 0.03449990 -0.02189001 -0.05135093
v 0.03496790 -0.02175392 -0.05151353
v 0.03449990 -0.02170814 -0.04653352
v 0.03496790 -0.02157424 -0.04669067
v 0.03449990 -0.02163335 -0.04479697
v 0.03449990 -0.02153440 -0.04285915
v 0.03449990 -0.02143572 -0.04094219
v 0.03449990 -0.02140366 -0.04036876
v 0.03449990 -0.02132769 -0.03901156
v 0.03449990 -0.02120971 -0.03899581
v 0.03449990 -0.02086380 -0.03895010
v 0.03496790 -0.02129943 -0.04087866
v 0.03496790 -0.02119491 -0.03901156
v 0.03449990 -0.02045289 -0.03891573
v 0.03449990 -0.02038428 -0.03891175
v 0.03449990 -0.01972356 -0.03888492
v 0.03639940 -0.02078506 -0.03901156
v 0.03449990 -0.01929935 -0.03887342
v 0.03449990 -0.01833180 -0.03885631
v 0.03449990 -0.01704748 -0.03884334
v 0.03678421 -0.02076744 -0.04063284
v 0.03740503 -0.02052552 -0.04063284
v 0.03792838 -0.02072046 -0.04769738
v 0.03820544 -0.02070285 -0.04998005
v 0.03832858 -0.02069463 -0.05103358
v 0.03755383 -0.02029064 -0.03901156
v 0.03769236 -0.02020844 -0.03901156
v 0.03791298 -0.02025424 -0.04062698
v 0.03841580 -0.01980093 -0.03987780
v 0.03449990 -0.01674330 -0.09740903
v 0.03449990 -0.01646578 -0.09760034
v 0.03449990 -0.01646347 -0.09760079
v 0.03449990 -0.01635758 -0.09760081
v 0.03449990 -0.01631435 -0.09759930
v 0.03449990 -0.01626018 -0.09743750
v 0.03768723 -0.01700239 -0.09722529
v 0.03763079 -0.01649859 -0.09760574
v 0.03449990 -0.01637063 -0.03884334
v 0.03449990 -0.01203012 -0.05735902
v 0.03449990 -0.01200190 -0.05689827
v 0.03497303 -0.01200190 -0.05689827
v 0.03449990 -0.01199629 -0.04930598
v 0.03449990 -0.01199630 -0.04933871
v 0.03449990 -0.01199599 -0.04868054
v 0.03449990 -0.01199597 -0.04861462
v 0.03497303 -0.01199603 -0.04896748
v 0.03449990 -0.01206898 -0.03898987
v 0.03449990 -0.01199597 -0.03900571
v 0.03497303 -0.01199603 -0.03900571
v 0.03896993 -0.01967175 -0.09062314
v 0.03977034 -0.01977040 -0.08348250
v 0.03910333 -0.02044449 -0.07573901
v 0.03926239 -0.02052082 -0.06906661
v 0.04026290 -0.01986082 -0.07633016
v 0.04040656 -0.01994538 -0.06916611
v 0.03859538 -0.01943922 -0.09481972
v 0.03870826 -0.01932648 -0.09496605
v 0.03869800 -0.01902467 -0.09532893
v 0.03942144 -0.01846214 -0.09583229
v 0.03866721 -0.01774108 -0.09662244
v 0.04002688 -0.01872403 -0.09075190
v 0.03992426 -0.01731243 -0.09682144
v 0.04046813 -0.01743691 -0.09299945
v 0.04080163 -0.01884734 -0.08359956
v 0.04077085 -0.01750855 -0.09085140
v 0.04154047 -0.01766709 -0.08368150
v 0.04126853 -0.01896243 -0.07642381
v 0.04138654 -0.01907047 -0.06923635
v 0.04198685 -0.01781976 -0.07648234
v 0.04209972 -0.01796655 -0.06928317
v 0.03915464 -0.02058893 -0.06264589
v 0.04024750 -0.02002523 -0.06201963
v 0.03979599 -0.02010157 -0.05485558
v 0.03904176 -0.02017673 -0.04772665
v 0.03865182 -0.01941691 -0.03901156
v 0.03904176 -0.01933705 -0.04061528
v 0.03907768 -0.01890605 -0.03901156
v 0.03923160 -0.01878627 -0.03932762
v 0.04000123 -0.01938050 -0.04774421
v 0.03966259 -0.01850090 -0.04060357
v 0.03972929 -0.01773873 -0.03901156
v 0.03984217 -0.01745923 -0.03901742
v 0.04015515 -0.01738524 -0.04059187
v 0.04037064 -0.01736175 -0.04184440
v 0.04121209 -0.01917499 -0.06207816
v 0.04075032 -0.01927833 -0.05489655
v 0.04146350 -0.01824488 -0.05491411
v 0.04196119 -0.01751794 -0.05983061
v 0.04197145 -0.01707403 -0.05614909
v 0.04073493 -0.01837406 -0.04774421
v 0.04120183 -0.01724549 -0.04793736
v 0.03866721 -0.01649859 -0.09760574
v 0.04005766 -0.01649859 -0.09742430
v 0.04044247 -0.01649859 -0.09496019
v 0.04070927 -0.01649859 -0.09322186
v 0.04149429 -0.01650094 -0.08722841
v 0.04160203 -0.01650094 -0.08624511
v 0.04215103 -0.01650094 -0.08008192
v 0.04221260 -0.01652090 -0.07925665
v 0.04222286 -0.01650094 -0.07919227
v 0.04247427 -0.01670880 -0.07178825
v 0.04248453 -0.01677104 -0.06929488
v 0.04249993 -0.01650094 -0.07178240
v 0.04252558 -0.01650094 -0.06952315
v 0.04026290 -0.01618738 -0.03916959
v 0.04023724 -0.01618738 -0.03901156
v 0.04238705 -0.01689553 -0.06403890
v 0.04243836 -0.01650094 -0.06395111
v 0.04217156 -0.01699065 -0.05983061
v 0.04229982 -0.01618738 -0.05983061
v 0.04209972 -0.01618738 -0.05580961
v 0.04136089 -0.01618738 -0.04751009
v 0.04066310 -0.01618738 -0.04214876
v 0.04117618 -0.01618738 -0.04600002
f 14 4 3
f 14 5 4
f 14 3 2
f 15 1 13
f 15 2 1
f 31 13 7
f 31 7 8
f 14 2 15
f 32 8 10
f 15 13 31
f 23 19 17
f 23 18 19
f 22 20 18
f 22 21 20
f 22 18 23
f 24 6 5
f 23 16 6
f 24 5 14
f 23 6 24
f 23 17 16
f 22 23 24
f 24 14 15
f 24 15 31
f 53 9 12
f 53 12 11
f 53 10 9
f 22 24 56
f 24 31 56
f 22 56 39
f 31 8 32
f 54 11 25
f 54 25 26
f 127 26 27
f 127 27 28
f 127 28 29
f 128 29 30
f 32 10 53
f 22 39 21
f 39 33 21
f 38 34 37
f 38 37 36
f 38 35 34
f 39 36 33
f 38 36 39
f 45 40 35
f 38 45 35
f 45 41 40
f 45 42 41
f 45 43 42
f 45 44 43
f 45 46 44
f 38 39 45
f 39 46 45
f 52 47 48
f 52 48 49
f 129 30 47
f 131 49 50
f 107 50 51
f 31 32 56
f 54 53 11
f 54 26 127
f 32 53 56
f 128 127 29
f 54 56 53
f 54 55 56
f 54 127 55
f 55 121 56
f 39 56 123
f 39 123 46
f 46 123 124
f 52 129 47
f 128 30 129
f 52 49 131
f 107 131 50
f 52 131 129
f 107 163 131
f 63 57 44
f 46 63 44
f 63 58 57
f 64 60 59
f 63 59 58
f 64 61 60
f 65 62 61
f 63 64 59
f 64 65 61
f 65 68 62
f 46 66 63
f 63 66 64
f 64 66 65
f 65 66 68
f 68 67 62
f 68 69 67
f 68 73 69
f 66 96 68
f 68 96 73
f 73 70 69
f 73 71 70
f 75 72 71
f 75 74 72
f 75 76 74
f 83 78 77
f 83 79 78
f 84 80 79
f 84 81 80
f 84 82 81
f 83 84 79
f 92 77 76
f 75 92 76
f 83 77 92
f 84 88 82
f 88 85 82
f 73 94 71
f 75 71 94
f 83 92 84
f 84 92 88
f 97 86 85
f 98 87 86
f 88 97 85
f 146 89 87
f 148 90 89
f 152 91 90
f 46 124 66
f 124 142 66
f 66 142 96
f 73 96 95
f 73 95 94
f 75 94 92
f 97 98 86
f 88 92 93
f 98 146 87
f 94 93 92
f 88 93 97
f 94 95 145
f 93 99 97
f 99 98 97
f 99 100 98
f 94 145 93
f 145 99 93
f 145 100 99
f 98 100 146
f 146 148 89
f 148 152 90
f 107 51 101
f 108 101 102
f 108 102 103
f 108 103 104
f 108 104 105
f 163 105 106
f 164 106 110
f 107 101 108
f 108 105 163
f 163 106 164
f 107 108 163
f 164 112 165
f 164 110 112
f 177 109 91
f 112 110 111
f 112 111 114
f 120 118 109
f 112 114 117
f 117 114 113
f 117 113 115
f 117 115 116
f 117 116 119
f 120 119 118
f 117 119 120
f 120 109 177
f 152 177 91
f 120 177 176
f 112 117 181
f 117 120 181
f 55 127 121
f 121 122 56
f 56 122 123
f 122 125 123
f 122 138 125
f 123 125 124
f 124 125 126
f 128 129 130
f 121 127 128
f 129 131 130
f 121 128 132
f 128 130 132
f 130 131 133
f 131 163 133
f 121 132 135
f 121 135 122
f 130 133 134
f 130 136 132
f 130 134 136
f 133 166 134
f 125 138 126
f 132 137 135
f 134 166 136
f 132 136 137
f 136 167 137
f 122 135 138
f 135 140 138
f 126 138 139
f 135 137 140
f 138 141 139
f 137 170 140
f 140 171 172
f 138 140 141
f 140 172 141
f 141 172 173
f 142 144 96
f 124 126 142
f 126 143 142
f 142 143 144
f 143 157 144
f 96 145 95
f 144 145 96
f 100 147 146
f 145 150 100
f 144 150 145
f 144 157 150
f 146 147 148
f 100 150 147
f 147 149 148
f 147 151 149
f 148 149 152
f 157 161 150
f 147 150 151
f 149 151 152
f 150 161 151
f 151 154 152
f 152 154 153
f 152 153 177
f 161 155 151
f 151 155 154
f 154 177 153
f 126 156 143
f 126 139 156
f 143 156 157
f 156 158 157
f 139 141 156
f 156 141 158
f 158 141 159
f 141 173 178
f 141 178 159
f 178 180 159
f 158 159 180
f 158 180 160
f 157 158 161
f 158 162 161
f 161 162 155
f 158 160 162
f 163 164 133
f 133 164 165
f 133 165 166
f 165 112 166
f 166 112 167
f 167 112 168
f 168 112 169
f 169 112 171
f 171 112 174
f 136 166 167
f 137 167 168
f 137 168 169
f 137 169 170
f 169 171 170
f 140 170 171
f 171 174 172
f 172 174 175
f 172 175 173
f 174 112 181
f 120 183 182
f 120 176 184
f 120 184 185
f 120 185 183
f 154 155 177
f 155 184 176
f 155 176 177
f 120 182 181
f 173 175 178
f 174 181 175
f 175 179 178
f 175 181 179
f 178 181 180
f 178 179 181
f 180 182 160
f 180 181 182
f 160 183 162
f 162 183 185
f 155 185 184
f 162 185 155
f 160 182 183
f 110 16 17
f 110 17 19
f 110 19 18
f 110 18 20
f 110 20 21
f 21 33 110
f 33 36 110
f 37 110 36
f 34 35 110
f 37 34 110
f 110 4 5
f 110 5 6
f 110 8 7
f 110 13 1
f 110 1 2
f 110 2 3
f 110 7 13
f 110 10 8
f 110 9 10
f 110 3 4
f 110 11 12
f 25 11 110
f 25 110 26
f 110 12 9
f 110 6 16
f 27 26 110
f 28 27 110
f 29 28 110
f 30 29 110
f 81 79 80
f 82 79 81
f 85 79 82
f 86 79 85
f 40 110 35
f 40 41 110
f 41 42 110
f 42 43 110
f 43 44 110
f 44 57 110
f 57 58 110
f 59 110 58
f 59 60 110
f 60 61 110
f 61 62 110
f 67 110 62
f 111 67 69
f 111 69 70
f 111 70 71
f 111 71 72
f 119 72 74
f 119 74 76
f 119 76 77
f 119 77 78
f 119 78 79
f 119 79 86
f 87 119 86
f 102 101 106
f 102 106 103
f 103 106 104
f 104 106 105
f 48 110 49
f 50 49 110
f 50 110 51
f 51 110 101
f 110 106 101
f 47 30 110
f 47 110 48
f 111 110 67
f 89 119 87
f 90 119 89
f 91 119 90
f 111 72 114
f 113 114 72
f 113 72 115
f 115 72 116
f 116 72 119
f 91 109 119
f 109 118 119

