# https://github.com/mikedh/trimesh
v 0.03338965 0.00349990 -0.08753036
v 0.03296898 0.00349990 -0.03637603
v 0.03296898 0.00349990 -0.03181296
v 0.03262624 0.01297994 -0.10227897
v 0.03262624 0.01488580 -0.10230248
v 0.03265300 0.01487599 -0.10230248
v 0.03262624 0.01659552 -0.09183951
v 0.03262624 0.01689954 -0.08959016
v 0.03307787 0.01638630 -0.09180032
v 0.03326967 0.01658898 -0.08959016
v 0.03228278 0.01023393 -0.02935162
v 0.03371182 0.00349990 -0.09896946
v 0.03373621 0.00349990 -0.09909549
v 0.03435107 0.00349990 -0.10130779
v 0.03446053 0.00349990 -0.10155665
v 0.03449990 0.00349990 -0.10160987
v 0.03449990 0.00403582 -0.10179088
v 0.03449990 0.00559181 -0.10207864
v 0.03449990 0.00670297 -0.10209329
v 0.03449990 0.00868243 -0.10210381
v 0.03390059 0.00349990 -0.02520366
v 0.03398969 0.00349990 -0.02492553
v 0.03423611 0.00349990 -0.02418991
v 0.03449990 0.00349990 -0.02418991
v 0.03449990 0.00967738 -0.02892502
v 0.03358191 0.01432679 -0.10220060
v 0.03449990 0.01218874 -0.10210271
v 0.03449990 0.01266508 -0.10210188
v 0.03422088 0.01572921 -0.09149466
v 0.03449990 0.01362674 -0.10209939
v 0.03449990 0.01495739 -0.09466199
v 0.03442049 0.01589267 -0.08959016
v 0.03449990 0.01541058 -0.09210223
v 0.03449990 0.01570225 -0.09044733
v 0.03449990 0.01573671 -0.09024673
v 0.03449990 0.01588484 -0.08929875
v 0.03449990 0.01595792 -0.08882655
v 0.03449990 0.01646233 -0.08544656
v 0.03449990 0.01653397 -0.08495163
v 0.03449990 0.01658665 -0.08458082
v 0.03449990 0.01665163 -0.08403049
v 0.03449990 0.01668262 -0.08342995
v 0.03449990 0.01517787 -0.06897828
v 0.03449990 0.01183879 -0.03835931
v 0.03449990 0.01170917 -0.03757834
v 0.03446955 0.01023393 -0.02935162
v 0.03449990 0.01023393 -0.02940599
v 0.03449990 0.01020037 -0.02935162
v 0.03449990 0.01027553 -0.02958360
v 0.03449990 0.01025841 -0.02950796
f 4 1 11
f 4 12 1
f 4 13 12
f 11 2 3
f 11 1 2
f 11 3 21
f 11 21 22
f 4 11 5
f 4 5 6
f 5 7 6
f 6 7 9
f 7 8 9
f 5 11 7
f 7 11 8
f 4 6 19
f 6 9 26
f 8 10 9
f 8 11 43
f 4 14 13
f 4 15 14
f 4 17 15
f 4 18 17
f 4 19 18
f 6 20 19
f 17 16 15
f 11 22 23
f 11 23 25
f 11 25 46
f 25 23 24
f 25 48 46
f 6 27 20
f 6 26 27
f 9 29 26
f 8 40 10
f 9 10 39
f 9 32 29
f 8 41 40
f 8 42 41
f 8 43 42
f 26 28 27
f 26 30 28
f 26 31 30
f 26 29 33
f 26 33 31
f 9 37 32
f 9 38 37
f 9 39 38
f 10 40 39
f 29 34 33
f 29 32 35
f 29 35 34
f 32 36 35
f 32 37 36
f 11 44 43
f 11 45 44
f 11 46 49
f 11 49 45
f 46 47 50
f 46 48 47
f 46 50 49
f 17 31 16
f 17 18 31
f 18 19 31
f 19 20 31
f 43 44 16
f 25 24 16
f 47 16 50
f 50 16 49
f 45 49 16
f 25 16 48
f 48 16 47
f 44 45 16
f 31 33 16
f 33 34 16
f 34 35 16
f 35 36 16
f 36 37 16
f 42 43 16
f 20 27 31
f 27 28 31
f 37 38 16
f 38 39 16
f 39 40 16
f 40 41 16
f 41 42 16
f 28 30 31
f 1 12 16
f 1 16 2
f 13 16 12
f 13 14 16
f 14 15 16
f 2 16 3
f 3 16 21
f 21 16 22
f 22 16 23
f 23 16 24

