# https://github.com/mikedh/trimesh
v 0.03371182 0.00349990 -0.09896946
v 0.03373621 0.00349990 -0.09909549
v 0.03345639 0.00349990 -0.08990000
v 0.03449990 -0.00338211 -0.09656693
v 0.03449990 -0.00302261 -0.09690517
v 0.03449990 -0.00489218 -0.08990000
v 0.03435107 0.00349990 -0.10130779
v 0.03449990 0.00268189 -0.10122398
v 0.03446053 0.00349990 -0.10155665
v 0.03449990 0.00329641 -0.10154115
v 0.03449990 0.00349990 -0.10160987
v 0.03449990 0.00349990 -0.08990000
f 1 4 3
f 1 5 4
f 4 6 3
f 1 2 5
f 2 7 8
f 2 8 5
f 7 10 8
f 7 9 10
f 9 11 10
f 5 8 6
f 4 5 6
f 8 10 6
f 10 11 12
f 10 12 6
f 1 3 12
f 1 12 2
f 2 12 7
f 7 12 9
f 9 12 11
f 3 6 12

