# https://github.com/mikedh/trimesh
v -0.04754689 -0.01805067 -0.08160541
v -0.04743902 -0.01714589 -0.09114461
v -0.04751019 -0.01689740 -0.09139774
v -0.04805733 -0.01704182 -0.08115909
v -0.04761473 -0.01820359 -0.07132679
v -0.04811961 -0.01720748 -0.07090712
v -0.04804065 -0.01725846 -0.06812929
v -0.04932177 -0.01052570 -0.08358386
v -0.04819746 -0.01304252 -0.09402235
v -0.04788385 -0.01517279 -0.09277000
v -0.04876573 -0.01402164 -0.08354389
v -0.04843655 -0.01074871 -0.09496828
v -0.04899704 -0.01412783 -0.07087381
v -0.04955753 -0.01058942 -0.07724216
v -0.04962091 -0.01051933 -0.07090046
v -0.04930397 -0.01256889 -0.07088047
v -0.04696083 -0.01819510 -0.08994555
v -0.04646262 -0.01886200 -0.08903293
v -0.04624020 -0.01909351 -0.08867987
v -0.04681181 -0.01895120 -0.08158543
v -0.04548955 -0.01964997 -0.08771396
v -0.04548955 -0.01967970 -0.08689460
v -0.04533497 -0.01976466 -0.08751412
v -0.04463436 -0.02008537 -0.08681466
v -0.04550067 -0.01599686 -0.09448866
v -0.04548955 -0.01599686 -0.09449531
v -0.04686852 -0.01908713 -0.07134677
v -0.04548955 -0.01988784 -0.07224607
v -0.04492239 -0.02016395 -0.07814146
v -0.04492239 -0.02021705 -0.07261245
v -0.04548955 -0.01977315 -0.06322647
v -0.04485455 -0.02024891 -0.06948823
v -0.04467662 -0.02029139 -0.06530484
v -0.04773261 -0.01737102 -0.06251369
v -0.04760806 -0.01740501 -0.06094825
v -0.04924948 -0.01063402 -0.06170099
v -0.04865674 -0.01427013 -0.06234049
v -0.04778710 -0.01449527 -0.05426015
v -0.04761028 -0.01509208 -0.05426681
v -0.04770036 -0.01480536 -0.05426681
v -0.04807513 -0.01265385 -0.05359401
v -0.04776264 -0.01444429 -0.05387379
v -0.04738897 -0.01449527 -0.05174879
v -0.04817188 -0.01248818 -0.05426015
v -0.04839652 -0.01075508 -0.05426015
v -0.04826085 -0.01077420 -0.05308108
v -0.04708315 -0.01837775 -0.06100154
v -0.04633584 -0.01923368 -0.06106816
v -0.04722328 -0.01749209 -0.05718453
v -0.04703645 -0.01752607 -0.05573899
v -0.04678289 -0.01756430 -0.05427348
v -0.04680736 -0.01749209 -0.05426681
v -0.04603224 -0.01749209 -0.04957715
v -0.04596885 -0.01749209 -0.04930403
v -0.04548955 -0.01944820 -0.05570569
v -0.04548955 -0.01943121 -0.05548586
v -0.04576423 -0.01931227 -0.05591219
v -0.04581539 -0.01889174 -0.05427348
v -0.04548732 -0.01933775 -0.05427348
v -0.04548955 -0.01933775 -0.05428680
v -0.04548955 -0.01933563 -0.05427348
v -0.04471777 -0.01976041 -0.05427348
v -0.04515926 -0.01749209 -0.04588005
v -0.04499356 -0.01749209 -0.04527386
v -0.04486567 -0.01749209 -0.04484086
v -0.04702644 -0.01454624 -0.04969040
v -0.04700754 -0.01449527 -0.04955717
v -0.04604781 -0.01465031 -0.04554031
v -0.04632472 -0.01284287 -0.04524721
v -0.04643593 -0.01093774 -0.04474760
v -0.04500246 -0.01449527 -0.04198310
v -0.04479228 -0.01475863 -0.04147017
v -0.04513925 -0.01102694 -0.04069744
v -0.04861560 -0.00838269 -0.09562777
v -0.04874682 -0.00598056 -0.09602079
v -0.04984555 -0.00863756 -0.07092710
v -0.05001681 -0.00674941 -0.07095375
v -0.04983888 -0.00678764 -0.06501840
v -0.05011579 -0.00529454 -0.07097373
v -0.04990227 -0.00493985 -0.06404582
v -0.04887137 -0.00350410 -0.09616734
v -0.04941852 -0.00350410 -0.09005213
v -0.04984110 -0.00350410 -0.08393026
v -0.05004128 -0.00350410 -0.07982680
v -0.04887137 -0.00150338 -0.09616734
v -0.04889473 0.00094547 -0.09616068
v -0.04981664 0.00094547 -0.08446317
v -0.05016138 -0.00350410 -0.07573001
v -0.05016472 -0.00350410 -0.07557013
v -0.05020031 -0.00350410 -0.07098706
v -0.05008242 -0.00350410 -0.06618415
v -0.05011023 -0.00150338 -0.07782837
v -0.05019252 -0.00150338 -0.07165986
v -0.05008799 0.00094547 -0.07844122
v -0.05018029 0.00094547 -0.07241927
v -0.05005907 -0.00150338 -0.06610421
v -0.04990894 -0.00150338 -0.06340633
v -0.04993786 0.00094547 -0.06414575
v -0.04993229 0.00094547 -0.06404582
v -0.04706981 -0.00836995 -0.09601413
v -0.04719770 -0.00595720 -0.09641382
v -0.04550067 -0.00924499 -0.09580096
v -0.04550067 -0.00493985 -0.09650708
v -0.04732559 -0.00350410 -0.09656703
v -0.04732559 0.00094547 -0.09656703
v -0.04550067 -0.00350410 -0.09656703
v -0.04550067 -0.00148852 -0.09656703
v -0.04569973 0.00094547 -0.09656703
v -0.04940962 -0.00873526 -0.06101486
v -0.04947523 -0.00683012 -0.05998234
v -0.04943965 -0.00496959 -0.05854347
v -0.04887471 -0.00499720 -0.05426015
v -0.04880020 -0.00500144 -0.05370725
v -0.04861337 -0.00832534 -0.05426015
v -0.04830978 -0.00885207 -0.05225506
v -0.04821303 -0.00692145 -0.05101603
v -0.04795614 -0.00503543 -0.04926406
v -0.04966095 -0.00350410 -0.06002231
v -0.04917164 -0.00350410 -0.05571901
v -0.04895367 -0.00350410 -0.05427348
v -0.04879464 -0.00419012 -0.05340083
v -0.04915940 0.00094547 -0.05572567
v -0.04895256 0.00094547 -0.05427348
v -0.04867787 -0.00419012 -0.05270804
v -0.04816187 -0.00419012 -0.04998350
v -0.04801396 -0.00419012 -0.04927073
v -0.04778821 -0.00419012 -0.04829815
v -0.04726554 -0.00697455 -0.04681931
v -0.04636142 -0.00899012 -0.04394823
v -0.04608118 -0.00702977 -0.04274917
v -0.04501136 -0.00906234 -0.03993137
v -0.04465215 -0.00708711 -0.03879226
v -0.04706091 -0.00419012 -0.04546038
v -0.04631916 -0.00419012 -0.04308890
v -0.04574088 -0.00350197 -0.04118372
v -0.04524823 -0.00350197 -0.03985143
v -0.04457098 -0.00350197 -0.03817275
v -0.04400048 -0.02030413 -0.08625510
v -0.04304076 -0.02058448 -0.08610855
v -0.04304076 -0.02066307 -0.08101254
v -0.04304076 -0.01599686 -0.09450198
v -0.04450314 -0.02031900 -0.06261361
v -0.04304076 -0.02069068 -0.07896081
v -0.04304076 -0.02073528 -0.07444435
v -0.04304076 -0.02075015 -0.06955484
v -0.04304076 -0.02074590 -0.06723000
v -0.04304076 -0.02074378 -0.06633070
v -0.04304076 -0.02073528 -0.06503172
v -0.04304076 -0.01447190 -0.09450198
v -0.04393042 -0.02037634 -0.05679150
v -0.04354119 -0.02039970 -0.05427348
v -0.04304076 -0.02071192 -0.06253368
v -0.04304076 -0.02068643 -0.06096823
v -0.04304076 -0.02063121 -0.05771745
v -0.04304076 -0.02062484 -0.05735107
v -0.04304076 -0.02060784 -0.05661831
v -0.04304076 -0.02058448 -0.05585224
v -0.04304076 -0.02053351 -0.05427348
v -0.04408055 -0.01749209 -0.04228953
v -0.04335881 -0.01749209 -0.04028443
v -0.04313084 -0.01749209 -0.03968490
v -0.04240798 -0.01749209 -0.03791961
v -0.04324204 -0.01486483 -0.03749328
v -0.04327429 -0.01449527 -0.03742000
v -0.04356455 -0.01111190 -0.03674720
v -0.04171071 -0.01119261 -0.03293685
v -0.03896945 -0.01749209 -0.05426681
v -0.04111242 -0.01749209 -0.03514179
v -0.03883933 -0.01749209 -0.03799955
v -0.03883933 -0.01749209 -0.03109829
v -0.03883933 -0.01636642 -0.03022564
v -0.03883933 -0.01618377 -0.03009907
v -0.03883933 -0.01574624 -0.02979931
v -0.03896945 -0.01449952 -0.05426681
v -0.04139043 -0.01496465 -0.03364962
v -0.03883933 -0.01449527 -0.03799955
v -0.03925858 -0.01505173 -0.02995918
v -0.03883933 -0.01506447 -0.02933967
v -0.03883933 -0.01453137 -0.02917979
v -0.03883933 -0.01449527 -0.02917313
v -0.03959888 -0.01126482 -0.02929303
v -0.03948878 -0.01126482 -0.02913316
v -0.03948878 -0.01000322 -0.02893997
v -0.04304076 0.00094547 -0.09449531
v -0.04339996 -0.00913243 -0.03604108
v -0.04298182 -0.00714658 -0.03498191
v -0.04304076 0.00094547 -0.05427348
v -0.04272604 -0.00350197 -0.03416255
v -0.04182970 -0.00350197 -0.03245056
v -0.04153056 -0.00920251 -0.03229735
v -0.04108239 -0.00719968 -0.03133810
v -0.03948878 -0.00926198 -0.02884672
v -0.03950213 -0.00419012 -0.04939729
v -0.04087888 -0.00350197 -0.03076521
v -0.03950213 -0.00350197 -0.04118372
v -0.03948878 -0.00350197 -0.03885222
v -0.03979794 -0.00350197 -0.02898661
v -0.03948878 -0.00350197 -0.02851365
f 3 11 10
f 3 4 11
f 1 4 2
f 2 4 3
f 4 6 13
f 1 6 4
f 1 5 6
f 6 7 13
f 7 34 37
f 5 7 6
f 5 47 7
f 7 47 34
f 8 11 14
f 9 10 11
f 9 12 25
f 8 12 9
f 12 74 26
f 8 9 11
f 11 13 16
f 13 37 16
f 14 16 15
f 14 15 76
f 11 16 14
f 16 37 36
f 15 16 36
f 4 13 11
f 7 37 13
f 1 17 20
f 17 18 20
f 18 19 20
f 19 22 20
f 20 22 27
f 3 10 25
f 2 3 25
f 17 25 26
f 17 26 18
f 2 25 17
f 18 26 19
f 1 2 17
f 19 26 21
f 21 26 23
f 23 26 139
f 19 21 23
f 19 23 22
f 22 23 27
f 23 24 29
f 1 20 5
f 5 20 27
f 5 27 47
f 27 48 47
f 27 31 48
f 23 29 27
f 27 29 28
f 28 29 30
f 28 30 32
f 27 28 32
f 27 32 33
f 27 33 31
f 31 33 142
f 9 25 10
f 12 26 25
f 26 74 100
f 26 100 141
f 100 102 141
f 102 103 141
f 34 47 35
f 34 35 37
f 35 49 37
f 37 49 40
f 39 40 50
f 39 52 42
f 36 45 109
f 37 42 41
f 37 41 44
f 37 40 38
f 37 38 42
f 38 40 42
f 39 42 40
f 41 42 43
f 41 66 46
f 41 43 66
f 46 66 67
f 36 37 44
f 36 44 45
f 45 46 109
f 41 46 44
f 44 46 45
f 46 69 115
f 47 48 57
f 47 57 50
f 50 57 51
f 51 57 58
f 35 47 49
f 47 50 49
f 39 50 52
f 50 51 52
f 40 49 50
f 42 53 43
f 42 52 53
f 43 53 66
f 51 53 52
f 51 58 53
f 53 68 66
f 53 54 68
f 31 142 48
f 48 150 57
f 55 56 57
f 55 62 56
f 56 62 60
f 59 60 62
f 57 61 58
f 56 60 57
f 57 60 61
f 59 61 60
f 48 142 150
f 55 57 150
f 55 151 62
f 53 58 61
f 53 61 54
f 59 63 61
f 54 61 63
f 59 64 63
f 59 65 64
f 59 159 65
f 54 63 68
f 63 64 68
f 64 65 68
f 65 72 68
f 65 159 72
f 66 68 67
f 46 67 69
f 67 68 69
f 69 70 115
f 69 73 70
f 70 73 129
f 68 71 69
f 68 72 71
f 69 71 73
f 71 72 73
f 73 165 131
f 8 74 12
f 8 82 74
f 8 14 84
f 74 82 75
f 8 83 82
f 8 84 83
f 74 101 100
f 74 75 101
f 75 104 101
f 14 76 77
f 15 78 76
f 15 36 78
f 36 109 78
f 76 78 77
f 14 88 84
f 14 77 88
f 77 79 89
f 77 89 88
f 77 78 79
f 78 110 80
f 78 91 79
f 78 80 91
f 75 82 81
f 81 82 86
f 82 83 87
f 83 84 87
f 81 86 85
f 82 87 86
f 84 94 87
f 75 81 104
f 81 85 104
f 85 86 105
f 85 105 104
f 87 94 184
f 94 95 184
f 79 90 89
f 84 88 92
f 88 89 92
f 89 90 93
f 79 91 90
f 80 118 91
f 90 91 96
f 90 96 93
f 91 118 97
f 84 92 94
f 89 94 92
f 89 95 94
f 89 93 95
f 93 96 95
f 91 98 96
f 91 97 99
f 91 99 98
f 95 96 98
f 95 98 184
f 98 99 184
f 99 122 184
f 100 103 102
f 101 104 103
f 100 101 103
f 103 106 141
f 106 107 141
f 104 105 106
f 103 104 106
f 86 87 184
f 105 108 106
f 86 184 105
f 106 108 107
f 105 184 108
f 107 108 184
f 122 123 184
f 123 187 184
f 78 109 110
f 46 110 109
f 46 114 110
f 111 114 115
f 80 110 118
f 110 111 118
f 110 114 111
f 111 115 112
f 111 112 119
f 112 113 119
f 46 115 114
f 70 116 115
f 112 115 113
f 113 115 124
f 115 116 124
f 116 125 124
f 116 126 125
f 116 128 117
f 116 117 126
f 117 128 126
f 126 128 127
f 127 128 133
f 111 119 118
f 113 121 119
f 119 121 120
f 118 119 122
f 119 120 123
f 120 121 124
f 120 124 123
f 97 118 99
f 99 118 122
f 119 123 122
f 113 124 121
f 123 124 125
f 123 125 126
f 123 126 127
f 123 127 133
f 70 128 116
f 70 129 128
f 128 129 133
f 129 130 133
f 130 134 133
f 130 135 134
f 73 131 129
f 129 131 130
f 130 131 135
f 131 136 135
f 131 132 136
f 132 137 136
f 123 133 135
f 133 134 135
f 123 135 136
f 123 136 137
f 123 137 188
f 23 139 24
f 24 139 138
f 24 138 29
f 29 138 139
f 29 139 140
f 26 141 139
f 141 149 167
f 29 144 30
f 30 144 32
f 29 140 143
f 29 143 144
f 32 144 145
f 32 145 33
f 33 148 142
f 33 145 146
f 33 146 147
f 33 147 148
f 142 148 152
f 139 167 140
f 140 167 143
f 143 167 144
f 139 141 167
f 107 149 141
f 149 174 167
f 142 153 150
f 55 150 151
f 142 152 153
f 150 153 154
f 150 157 151
f 150 154 155
f 150 155 156
f 150 156 157
f 151 157 158
f 59 62 161
f 59 160 159
f 62 151 161
f 151 158 170
f 59 161 160
f 72 159 160
f 72 160 163
f 160 161 163
f 151 162 161
f 151 168 162
f 161 162 163
f 162 168 163
f 163 168 175
f 72 163 73
f 73 163 164
f 73 164 165
f 163 175 164
f 164 175 165
f 165 166 185
f 165 175 166
f 144 169 145
f 145 170 146
f 146 170 147
f 147 170 148
f 144 167 169
f 148 170 152
f 152 170 153
f 153 170 154
f 154 170 155
f 155 170 156
f 156 170 157
f 157 170 158
f 145 169 170
f 167 174 169
f 151 170 168
f 168 170 175
f 169 174 176
f 170 171 175
f 171 177 175
f 169 171 170
f 169 172 171
f 169 176 180
f 169 173 172
f 169 178 173
f 169 179 178
f 169 180 179
f 171 172 177
f 172 173 177
f 174 193 176
f 166 175 177
f 166 181 190
f 173 178 177
f 177 178 181
f 178 179 182
f 179 180 182
f 166 177 181
f 181 183 190
f 178 182 181
f 180 183 182
f 181 182 183
f 180 192 183
f 176 198 180
f 107 184 149
f 149 184 174
f 174 184 193
f 131 165 185
f 131 185 132
f 132 185 137
f 137 185 186
f 137 186 188
f 185 190 186
f 166 190 185
f 186 190 188
f 188 190 189
f 123 198 187
f 184 187 196
f 123 188 189
f 123 189 194
f 123 194 197
f 123 197 198
f 190 192 191
f 189 190 191
f 189 191 194
f 191 192 194
f 176 193 196
f 183 192 190
f 180 198 192
f 192 197 194
f 192 198 197
f 176 196 198
f 184 195 193
f 184 196 195
f 187 198 196
f 193 195 196

