# https://github.com/mikedh/trimesh
v 0.01850010 -0.01904713 -0.03465496
v 0.01850010 -0.01899831 -0.03479945
v 0.01850010 -0.01877754 -0.03502028
v 0.01850010 -0.01905148 -0.03452973
v 0.01850010 -0.01905516 -0.03420465
v 0.01850010 -0.01905662 -0.03376681
v 0.01850010 -0.01850100 -0.03529662
v 0.01850010 -0.01849757 -0.03529982
v 0.01850010 -0.01791719 -0.03552026
v 0.02279839 -0.01899831 -0.03479945
v 0.02279839 -0.01849757 -0.03529982
v 0.01850010 -0.01905662 -0.02672115
v 0.01850010 -0.01905516 -0.02626605
v 0.01850010 -0.01905148 -0.02589758
v 0.01850010 -0.01904713 -0.02572230
v 0.01850010 -0.01899831 -0.02500100
v 0.01850010 -0.01899574 -0.02499832
v 0.01850010 -0.01871919 -0.02472198
v 0.01850010 -0.01849757 -0.02450062
v 0.02279839 -0.01899831 -0.02500100
v 0.02279839 -0.01849757 -0.02450062
v 0.01850010 -0.01666861 -0.03599271
v 0.01850010 -0.01665652 -0.03599572
v 0.01850010 -0.01649990 -0.03602622
v 0.01895636 -0.01649990 -0.03605561
v 0.01898711 -0.01649990 -0.03605702
v 0.02061101 -0.01649990 -0.03605857
v 0.02250984 -0.01649990 -0.03605857
v 0.01850010 -0.01656389 -0.02438982
v 0.01850010 -0.01649990 -0.02438771
v 0.01867555 -0.01649990 -0.02438616
v 0.02279839 -0.01649990 -0.02438616
v 0.02617517 -0.01839397 -0.03479945
v 0.02621872 -0.01837670 -0.03479945
v 0.02604259 -0.01790665 -0.03529982
v 0.02617517 -0.01839397 -0.02500100
v 0.02621872 -0.01837670 -0.02500100
v 0.02604259 -0.01790665 -0.02450062
v 0.02407289 -0.01649990 -0.03596348
v 0.02560527 -0.01649990 -0.03585856
v 0.02840275 -0.01649990 -0.03529982
v 0.02840599 -0.01649990 -0.03529883
v 0.02913718 -0.01665384 -0.03479945
v 0.02920536 -0.01659820 -0.03479945
v 0.02904439 -0.01649990 -0.03497667
v 0.02911966 -0.01649990 -0.03492928
v 0.02928498 -0.01649990 -0.03479945
v 0.02447452 -0.01649990 -0.02440365
v 0.02585131 -0.01649990 -0.02442328
v 0.02840599 -0.01649990 -0.02450062
v 0.02913718 -0.01665384 -0.02500100
v 0.02920536 -0.01659820 -0.02500100
v 0.02904439 -0.01649990 -0.02482335
v 0.02928498 -0.01649990 -0.02500100
v 0.02911966 -0.01649990 -0.02487086
f 1 10 4
f 2 10 1
f 3 10 2
f 4 10 5
f 5 10 6
f 3 7 11
f 8 11 7
f 8 9 11
f 3 11 10
f 6 10 20
f 6 20 12
f 12 20 13
f 13 20 14
f 14 20 15
f 15 20 16
f 16 20 17
f 17 20 18
f 18 21 19
f 19 21 29
f 18 20 21
f 9 27 11
f 9 22 26
f 9 26 27
f 23 25 22
f 23 24 25
f 22 25 26
f 11 27 28
f 11 28 39
f 29 31 30
f 29 32 31
f 29 21 32
f 21 48 32
f 11 33 10
f 10 33 36
f 11 35 33
f 35 34 33
f 33 34 37
f 10 36 20
f 20 36 21
f 33 37 36
f 21 36 38
f 36 37 38
f 34 51 37
f 11 39 35
f 35 39 40
f 35 43 34
f 34 43 51
f 35 40 41
f 35 42 43
f 35 41 42
f 43 42 45
f 43 46 44
f 43 45 46
f 44 46 47
f 43 44 52
f 44 47 54
f 21 38 48
f 38 49 48
f 37 51 38
f 43 52 51
f 44 54 52
f 38 50 49
f 38 51 50
f 51 53 50
f 51 52 55
f 51 55 53
f 52 54 55
f 2 1 24
f 1 4 24
f 4 5 24
f 5 6 24
f 3 2 24
f 3 24 7
f 8 7 24
f 6 12 24
f 16 17 18
f 12 13 29
f 13 14 29
f 14 15 29
f 15 16 29
f 16 18 29
f 18 19 29
f 8 24 9
f 9 24 22
f 23 22 24
f 12 29 24
f 29 30 24
f 26 25 24
f 26 24 27
f 27 24 54
f 24 30 31
f 24 31 32
f 24 32 54
f 27 54 28
f 28 54 39
f 39 54 40
f 40 54 41
f 41 54 42
f 42 54 45
f 45 54 46
f 46 54 47
f 48 54 32
f 48 49 54
f 49 50 54
f 50 53 54
f 53 55 54

