# https://github.com/mikedh/trimesh
v 0.01850010 0.00349990 -0.01283302
v 0.01850010 0.00350350 0.00000000
v 0.01850010 0.00349990 -0.00000000
v 0.01850167 0.00349990 0.00000000
v 0.01850010 0.01023790 -0.01289837
v 0.01850010 0.01439641 -0.01289837
v 0.01850010 0.01483180 -0.01289776
v 0.01850010 0.01483703 -0.01289711
v 0.01850010 0.01483861 -0.01289663
v 0.01928308 0.01388542 -0.01289711
v 0.01941605 0.01371369 -0.01289837
v 0.01957300 0.01350936 -0.01289837
v 0.01850010 0.01612013 -0.00855749
v 0.01850269 0.01638521 -0.00759686
v 0.01850010 0.01638526 -0.00760747
v 0.01850010 0.01638766 -0.00759833
v 0.01850010 0.01643938 -0.00730485
v 0.01850010 0.01647584 -0.00705329
v 0.01897136 0.01597003 -0.00711961
v 0.01890815 0.01602872 -0.00718526
v 0.01935502 0.01567875 -0.00649843
v 0.02060189 0.01183994 -0.01289837
v 0.02087873 0.01138128 -0.01289837
v 0.02140626 0.01023790 -0.01289837
v 0.01850010 0.01659112 -0.00617489
v 0.01850010 0.01660871 -0.00592276
v 0.01850010 0.01661519 -0.00582766
v 0.01850010 0.01674935 -0.00364547
v 0.01959698 0.01551789 -0.00582800
v 0.01949889 0.01559180 -0.00617521
v 0.01966674 0.01543094 -0.00504900
v 0.01960570 0.01550485 -0.00422581
v 0.01941605 0.01574178 -0.00350236
v 0.01850010 0.01371369 0.00000000
v 0.01850010 0.01498979 -0.00000015
v 0.01850010 0.01678939 -0.00287292
v 0.01850010 0.01680904 -0.00227867
v 0.01850010 0.01676661 -0.00187454
v 0.01870542 0.01658519 -0.00240393
v 0.01911087 0.01611349 -0.00287991
v 0.01918281 0.01602872 -0.00302132
v 0.01917627 0.01602872 -0.00276249
v 0.01850010 0.01519901 -0.00000018
v 0.01850010 0.01528605 -0.00000020
v 0.01850010 0.01562326 -0.00000058
v 0.01850010 0.01669886 -0.00137050
v 0.01850010 0.01618430 -0.00000129
v 0.01850010 0.01624104 -0.00000138
v 0.01850010 0.01624061 -0.00000137
v 0.01868798 0.01602872 -0.00000126
v 0.01850010 0.01654541 -0.00023314
v 0.01850010 0.01654102 -0.00020226
v 0.01850010 0.01648083 -0.00016169
v 0.01909561 0.01602872 -0.00139387
v 0.01895392 0.01602872 -0.00020201
v 0.02054740 0.01418105 -0.00617521
v 0.02057137 0.01419844 -0.00582800
v 0.02086783 0.01371369 -0.00582800
v 0.02040789 0.01408540 -0.00000126
v 0.02060189 0.01371369 0.00000000
v 0.02060407 0.01371369 -0.00000126
v 0.02057137 0.01419844 -0.00020201
v 0.02082642 0.01371369 -0.00020201
v 0.02080026 0.01371369 -0.00017550
v 0.02086783 0.01371369 -0.00126383
v 0.02305641 0.00587739 -0.01282640
v 0.02288856 0.00641430 -0.01282640
v 0.02224550 0.00843805 -0.01282640
v 0.02201444 0.00894887 -0.01282640
v 0.02342108 0.00349990 -0.01283302
v 0.02342996 0.00349990 -0.01283254
v 0.02349263 0.00349990 -0.01282721
v 0.02350199 0.00349990 -0.01282640
v 0.02353806 0.00349990 -0.01262697
v 0.02374448 0.00349990 -0.01148099
v 0.02469401 0.00349990 -0.00617521
v 0.02471988 0.00349990 -0.00588567
v 0.02472470 0.00349990 -0.00582926
v 0.02424007 0.00597956 -0.00617521
v 0.02426840 0.00598608 -0.00582926
v 0.02413761 0.00641430 -0.00499345
v 0.02472470 0.00349990 -0.00111762
v 0.02471728 0.00349990 -0.00088337
v 0.02448953 0.00349990 0.00000000
v 0.02469432 0.00349990 -0.00020201
v 0.02467721 0.00349990 -0.00018512
v 0.02334197 0.00885540 -0.00617521
v 0.02337030 0.00886410 -0.00582926
v 0.02337249 0.00886410 -0.00499345
v 0.02318502 0.00879454 0.00000000
v 0.02337249 0.00886410 -0.00020201
v 0.02210599 0.01160300 -0.00617521
v 0.02213215 0.01161822 -0.00582926
v 0.02272071 0.01023790 -0.00617521
v 0.02275341 0.01023790 -0.00582926
f 5 24 1
f 24 70 1
f 2 3 4
f 2 4 84
f 2 90 60
f 5 6 24
f 6 12 22
f 6 22 23
f 8 10 7
f 8 9 10
f 6 7 11
f 9 13 10
f 7 10 11
f 6 11 12
f 11 30 12
f 10 30 11
f 10 13 20
f 10 20 19
f 10 19 21
f 13 15 20
f 14 15 16
f 14 20 15
f 14 16 17
f 14 17 30
f 17 18 30
f 18 25 30
f 20 21 19
f 20 30 21
f 14 30 20
f 10 21 30
f 12 30 56
f 6 23 24
f 12 56 22
f 23 22 92
f 23 92 24
f 22 56 92
f 2 60 34
f 25 26 30
f 26 27 29
f 27 28 29
f 26 29 30
f 28 36 29
f 29 36 39
f 29 39 40
f 30 29 56
f 29 31 57
f 29 41 33
f 31 33 32
f 29 33 31
f 29 40 41
f 34 60 35
f 35 60 43
f 43 60 44
f 44 60 45
f 45 60 50
f 36 37 39
f 37 38 39
f 38 54 39
f 39 42 40
f 40 42 41
f 45 50 47
f 46 55 54
f 38 46 54
f 47 50 49
f 48 49 50
f 48 50 53
f 51 52 55
f 52 53 55
f 46 51 55
f 50 55 53
f 31 32 62
f 50 60 59
f 55 59 62
f 41 42 62
f 39 62 42
f 32 33 62
f 33 41 62
f 39 54 62
f 50 59 55
f 54 55 62
f 58 92 56
f 58 65 93
f 60 90 61
f 61 90 64
f 29 57 56
f 58 56 57
f 31 62 57
f 58 57 62
f 58 62 65
f 59 60 61
f 59 61 64
f 59 64 62
f 65 62 63
f 63 62 64
f 24 71 70
f 24 72 71
f 24 66 72
f 24 68 67
f 24 69 68
f 69 92 68
f 24 67 66
f 66 67 87
f 68 87 67
f 68 92 94
f 68 94 87
f 66 73 72
f 66 74 73
f 79 75 74
f 66 79 74
f 79 76 75
f 66 87 79
f 2 84 90
f 87 95 88
f 88 95 89
f 87 94 95
f 89 93 91
f 79 77 76
f 80 78 77
f 79 80 77
f 80 82 78
f 80 81 82
f 81 83 82
f 81 91 83
f 90 84 86
f 91 85 83
f 90 86 85
f 80 88 81
f 79 87 88
f 88 89 81
f 89 91 81
f 79 88 80
f 90 85 91
f 24 92 69
f 92 93 94
f 58 93 92
f 93 95 94
f 89 95 93
f 65 91 93
f 65 63 91
f 63 64 91
f 64 90 91
f 5 1 3
f 5 3 13
f 2 34 3
f 5 13 6
f 6 13 7
f 8 13 9
f 8 7 13
f 13 3 15
f 15 3 16
f 16 3 17
f 17 3 18
f 18 3 25
f 25 3 26
f 26 3 27
f 34 35 3
f 35 43 3
f 43 46 3
f 27 3 28
f 28 3 36
f 36 3 37
f 37 3 38
f 38 3 46
f 43 44 46
f 44 45 46
f 45 47 46
f 46 47 49
f 46 48 53
f 46 49 48
f 46 53 51
f 51 53 52
f 3 1 74
f 3 86 4
f 1 70 74
f 3 74 75
f 70 71 74
f 72 74 71
f 72 73 74
f 3 75 76
f 3 76 77
f 3 77 78
f 3 78 82
f 86 84 4
f 3 82 83
f 3 83 85
f 3 85 86

