# https://github.com/mikedh/trimesh
v -0.04818498 0.00587850 -0.09634102
v -0.04653711 0.00587850 -0.09674534
v -0.04830390 0.00587850 -0.09510574
v -0.04780274 0.00691528 -0.09643776
v -0.04780274 0.00691693 -0.09643528
v -0.04758190 0.00746679 -0.09648985
v -0.04614638 0.00691528 -0.09684456
v -0.04863517 0.00587850 -0.09094597
v -0.04841432 0.00666353 -0.09094597
v -0.04827841 0.00697821 -0.09094597
v -0.04433712 0.00949894 -0.09727368
v -0.04450701 0.01024423 -0.09723648
v -0.04279119 0.01093320 -0.09763087
v -0.04198424 0.01150293 -0.09781443
v -0.03354954 0.01150293 -0.09952348
v -0.04663055 0.00913126 -0.09672550
v -0.04648615 0.00932835 -0.09676023
v -0.04749695 0.00840088 -0.09285842
v -0.04758190 0.00857478 -0.09094597
v -0.04723363 0.00921573 -0.09094597
v -0.04520353 0.01086364 -0.09707277
v -0.04631626 0.00993617 -0.09477832
v -0.04611240 0.01024423 -0.09449058
v -0.04486376 0.01133566 -0.09635591
v -0.04453249 0.01189214 -0.09504869
v -0.04622283 0.01024423 -0.09375388
v -0.04661356 0.01024257 -0.09094597
v -0.04646916 0.01024257 -0.09204235
v -0.04526299 0.01141184 -0.09375388
v -0.02519978 0.00400369 -0.09882647
v -0.02451176 0.00400369 -0.09899266
v -0.02446929 0.00400369 -0.09899266
v -0.02573492 0.00400369 -0.09836510
v -0.01794577 0.00351180 -0.09750685
v -0.02711097 0.00399541 -0.09620212
v -0.02711097 0.00399541 -0.09399697
v -0.01794577 0.00351180 -0.09201506
v -0.02181911 0.01074108 -0.10123750
v -0.02184459 0.01150293 -0.10138881
v -0.04364910 0.01221178 -0.09743492
v -0.04182285 0.01338437 -0.09784916
v -0.04118579 0.01371230 -0.09798806
v -0.03852712 0.01481201 -0.09855113
v -0.03926611 0.01474245 -0.09721167
v -0.03724450 0.01523103 -0.09881158
v -0.03500204 0.01577095 -0.09925311
v -0.03474722 0.01580241 -0.09930024
v -0.03281055 0.01600778 -0.09966239
v -0.04333481 0.01250990 -0.09708269
v -0.04403983 0.01227472 -0.09529426
v -0.04379350 0.01245856 -0.09541580
v -0.04299505 0.01306307 -0.09545797
v -0.04236648 0.01352515 -0.09529426
v -0.04182285 0.01394251 -0.09483289
v -0.04133869 0.01442280 -0.09375388
v -0.04107537 0.01455199 -0.09375388
v -0.03954642 0.01511344 -0.09456500
v -0.03949545 0.01528568 -0.09375388
v -0.03815338 0.01578254 -0.09375388
v -0.03750782 0.01600447 -0.09375388
v -0.03286151 0.01695181 -0.09460965
v -0.03668389 0.01653445 -0.09206715
v -0.03571555 0.01680772 -0.09204482
v -0.03315031 0.01739402 -0.09183150
v -0.02905613 0.01580241 -0.10030979
v -0.02821521 0.01573120 -0.10045118
v -0.02581986 0.01567157 -0.10082326
v -0.02356041 0.01596141 -0.10115316
v -0.02483454 0.01580241 -0.10096961
v -0.03129010 0.01580241 -0.09993276
v -0.03118817 0.01597797 -0.09994765
v -0.02235424 0.01621977 -0.10132183
v -0.01882067 0.01706609 -0.10177080
v -0.01782685 0.01726318 -0.10188986
v -0.01719829 0.01733605 -0.10195932
v -0.01555042 0.01752154 -0.10214039
v -0.03022833 0.01791737 -0.09147679
v -0.02831714 0.01812440 -0.09127340
v -0.03668389 0.01684416 -0.09008524
v -0.03668389 0.01697500 -0.08906824
v -0.03433101 0.01750498 -0.08906824
v -0.03335417 0.01772194 -0.08906824
v -0.02988007 0.01817408 -0.08906824
v -0.02361138 0.01879019 -0.08906824
v -0.02241370 0.01876203 -0.09064087
v -0.02167471 0.01878853 -0.09063095
v -0.02265154 0.01886472 -0.08906824
v -0.00900142 0.00351180 -0.09752918
v -0.00455048 0.00587850 -0.10199156
v 0.00165025 0.00587850 -0.10199405
v -0.00900142 0.00351180 -0.09201506
v -0.01002921 0.01074108 -0.10250751
v -0.01004620 0.01150293 -0.10265882
v -0.00679294 0.01150293 -0.10288950
v -0.00447403 0.01150293 -0.10305321
v -0.00214663 0.01150293 -0.10315987
v 0.00895523 0.00587850 -0.10199405
v 0.00897222 0.00587684 -0.10199156
v 0.01253977 0.00587684 -0.10199156
v 0.01450192 0.00595468 -0.10199156
v 0.01524940 0.00595468 -0.10179312
v 0.01579303 0.00595468 -0.10124494
v 0.01599689 0.00595468 -0.10049583
v 0.01850010 0.00654508 -0.10162183
v 0.01850010 0.00652470 -0.10153539
v 0.01850010 0.00660251 -0.10180174
v 0.01850010 0.00644060 -0.10108955
v 0.01850010 0.00644241 -0.10109939
v 0.01850010 0.00672473 -0.10196618
v 0.01850010 0.00675942 -0.10198598
v 0.01850010 0.00769173 -0.10226432
v 0.01850010 0.00620802 -0.09979226
v 0.01850010 0.00619186 -0.09925063
v 0.01850010 0.00618250 -0.09893192
v 0.01850010 0.00612460 -0.09251788
v 0.00181164 0.01074108 -0.10318468
v 0.00180315 0.01150293 -0.10333351
v 0.01366949 0.01074108 -0.10326157
v 0.01223398 0.01150293 -0.10344017
v 0.01366949 0.01150293 -0.10341288
v 0.01850010 0.01074108 -0.10305023
v 0.01850010 0.01105166 -0.10311292
v 0.01850010 0.01150293 -0.10320255
v 0.01850010 0.00612460 -0.08644173
v 0.01850010 0.00615021 -0.08539469
v 0.01850010 0.00622161 -0.08446920
v 0.01850010 0.00632549 -0.08389655
v 0.01850010 0.00672481 -0.08274438
v 0.01850010 0.00731327 -0.08171468
v 0.00673826 0.01024091 -0.07812435
v 0.00896373 0.01024091 -0.07812435
v 0.01850010 0.00867478 -0.07948434
v 0.01850010 0.00899881 -0.07920297
v 0.01850010 0.01146860 -0.07861890
v -0.01145623 0.01604256 -0.10253975
v -0.00914582 0.01604256 -0.10273323
v -0.00823695 0.01620156 -0.10280268
v -0.01329097 0.01748842 -0.10237108
v -0.01184696 0.01730293 -0.10250255
v -0.00901841 0.01664045 -0.10274067
v -0.00847478 0.01649801 -0.10278532
v -0.00823695 0.01649801 -0.10280268
v -0.00447403 0.01649305 -0.10305321
v -0.00145861 0.01649305 -0.10320948
v 0.00114061 0.01724165 -0.10331366
v 0.01850010 0.01252427 -0.10321870
v 0.01850010 0.01540647 -0.10326153
v 0.00345951 0.01765569 -0.10338559
v 0.00588035 0.01775838 -0.10343273
v 0.00658536 0.01773519 -0.10344265
v 0.00942241 0.01741389 -0.10346249
v 0.01203012 0.01687232 -0.10344265
v 0.01358455 0.01649305 -0.10341784
v 0.01850010 0.01649305 -0.10326202
v 0.01850010 0.01655831 -0.10325781
v 0.01850010 0.01661185 -0.10325076
v 0.01850010 0.01680866 -0.10317393
v 0.01850010 0.01691333 -0.10313213
v 0.01850010 0.01697765 -0.10308412
v 0.01850010 0.01702694 -0.10303862
v 0.01850010 0.01823942 -0.09526524
v 0.01850010 0.01837846 -0.09436719
v 0.01850010 0.01844734 -0.09391188
v 0.01850010 0.01864770 -0.09239240
v 0.01850010 0.01881794 -0.09099896
v 0.01850010 0.01882113 -0.09097171
v -0.00827092 0.01399716 -0.08116294
v -0.01419985 0.01905352 -0.09049204
v -0.01405545 0.01919099 -0.08906577
v -0.00599449 0.01924067 -0.08906577
v -0.00823695 0.01723668 -0.08116294
v 0.01543628 0.01894090 -0.09047964
v 0.01850010 0.01887214 -0.09049681
v 0.01850010 0.01891668 -0.09007258
v 0.01850010 0.01892170 -0.09001964
v 0.01850010 0.01896217 -0.08956995
v 0.01850010 0.01913756 -0.08759885
v 0.01850010 0.01934819 -0.08503885
v 0.00606722 0.02008533 -0.08150773
v 0.00881933 0.02003564 -0.08143083
v 0.00606722 0.01891937 -0.07812435
v 0.00902319 0.01881006 -0.07812435
v 0.00606722 0.02043148 -0.07812435
v 0.00664482 0.02041657 -0.07812435
v 0.00902319 0.02031057 -0.07812435
v 0.01850010 0.01724363 -0.07861681
v 0.01850010 0.01825577 -0.07861681
v 0.01423860 0.01986009 -0.08128697
v 0.01321081 0.02003564 -0.07962008
v 0.01850010 0.01842161 -0.07862559
v 0.01850010 0.01846828 -0.07862873
v 0.01850010 0.01870564 -0.07864523
v 0.01850010 0.01894912 -0.07866822
v 0.01850010 0.01914873 -0.07869564
v 0.01850010 0.01928682 -0.07873248
v 0.01850010 0.01965835 -0.08118133
v 0.01850010 0.01967396 -0.08097323
v 0.01850010 0.01973778 -0.07982932
v 0.01850010 0.01961952 -0.07893832
v 0.01850010 0.01974589 -0.07966183
v 0.01838375 0.01975575 -0.07962008
v 0.01850010 0.01974667 -0.07963605
v 0.01850010 0.01974710 -0.07962008
v 0.01850010 0.01970216 -0.07914377
v 0.01850010 0.01969427 -0.07912183
v 0.01850010 0.01943147 -0.07877422
v 0.01850010 0.01959272 -0.07888963
f 1 2 30
f 2 31 30
f 1 30 33
f 1 35 3
f 3 35 8
f 1 5 4
f 1 7 2
f 1 4 7
f 1 3 5
f 3 9 5
f 4 5 6
f 4 16 7
f 5 9 6
f 3 8 9
f 6 9 18
f 9 10 18
f 1 33 35
f 8 35 36
f 7 11 13
f 2 13 14
f 2 14 15
f 12 21 40
f 11 12 13
f 12 40 13
f 13 40 14
f 2 15 39
f 4 6 16
f 2 7 13
f 6 18 16
f 7 16 21
f 7 12 11
f 16 17 21
f 7 21 12
f 16 28 17
f 17 28 22
f 10 19 18
f 18 19 20
f 16 18 20
f 16 20 27
f 17 22 21
f 21 22 23
f 22 26 23
f 21 23 29
f 23 26 29
f 21 29 24
f 21 24 40
f 24 29 25
f 25 29 50
f 24 25 40
f 16 27 28
f 22 28 26
f 26 28 29
f 28 27 29
f 35 33 34
f 2 38 31
f 30 31 34
f 30 34 33
f 31 32 88
f 31 88 34
f 31 38 89
f 35 34 36
f 8 36 37
f 36 34 37
f 2 39 38
f 38 39 92
f 19 80 20
f 8 171 9
f 9 171 10
f 10 171 19
f 8 37 129
f 8 130 167
f 14 40 41
f 40 49 41
f 14 41 42
f 14 42 43
f 14 43 15
f 15 43 45
f 42 44 43
f 15 45 46
f 15 48 70
f 15 46 48
f 48 46 47
f 46 61 47
f 25 50 40
f 40 50 51
f 40 52 49
f 40 51 52
f 29 51 50
f 29 55 51
f 41 49 53
f 49 52 53
f 41 55 42
f 41 53 54
f 51 55 52
f 52 55 53
f 41 54 55
f 53 55 54
f 27 55 29
f 27 80 55
f 42 55 56
f 42 56 57
f 42 57 44
f 43 44 57
f 43 57 58
f 57 56 58
f 43 59 45
f 43 58 59
f 45 59 60
f 45 60 62
f 45 62 63
f 45 63 46
f 58 79 59
f 55 80 56
f 56 80 58
f 48 47 77
f 46 63 64
f 46 64 61
f 47 61 77
f 59 79 60
f 60 79 62
f 58 80 79
f 62 79 63
f 61 64 77
f 63 82 64
f 15 66 39
f 39 66 67
f 39 67 69
f 65 71 72
f 66 69 67
f 65 72 66
f 69 72 68
f 66 72 69
f 15 70 65
f 15 65 66
f 48 71 70
f 65 70 71
f 39 76 93
f 39 69 68
f 39 68 72
f 39 72 73
f 39 73 74
f 39 74 75
f 39 75 76
f 48 74 71
f 71 73 72
f 48 77 76
f 71 74 73
f 48 75 74
f 48 76 75
f 77 78 76
f 78 85 76
f 76 85 86
f 76 86 168
f 20 80 27
f 63 79 81
f 79 80 81
f 63 81 82
f 64 82 77
f 19 171 80
f 8 167 171
f 77 82 83
f 77 83 78
f 78 83 84
f 78 84 85
f 80 183 81
f 85 84 87
f 85 169 86
f 85 87 169
f 86 169 168
f 81 183 82
f 82 183 83
f 83 183 84
f 31 89 90
f 31 99 32
f 32 99 88
f 31 90 98
f 31 98 99
f 34 88 37
f 88 91 37
f 88 124 91
f 38 92 89
f 92 93 89
f 93 94 89
f 39 93 92
f 94 95 89
f 89 95 96
f 89 96 117
f 89 117 116
f 88 99 100
f 88 100 101
f 88 101 102
f 88 102 103
f 89 118 90
f 90 97 99
f 90 99 98
f 90 118 97
f 97 118 99
f 99 118 100
f 100 109 101
f 100 110 109
f 101 105 102
f 102 112 103
f 101 106 104
f 101 104 105
f 101 109 106
f 102 108 107
f 102 105 108
f 102 107 112
f 100 111 110
f 103 112 113
f 103 113 114
f 103 114 115
f 88 103 115
f 88 115 124
f 89 116 119
f 89 119 118
f 116 117 119
f 100 118 111
f 118 121 111
f 118 119 120
f 118 122 121
f 118 120 122
f 120 123 122
f 120 146 123
f 37 91 128
f 8 129 130
f 91 124 125
f 91 125 126
f 91 126 127
f 91 127 128
f 37 128 129
f 130 132 131
f 130 129 132
f 131 132 133
f 131 133 134
f 93 137 94
f 93 138 135
f 93 76 138
f 93 135 136
f 93 136 141
f 93 141 137
f 137 142 95
f 94 137 95
f 95 144 96
f 96 144 117
f 142 143 95
f 95 143 144
f 117 144 145
f 135 138 139
f 136 140 141
f 135 139 136
f 136 139 140
f 137 141 142
f 140 142 141
f 140 143 142
f 139 143 140
f 138 148 139
f 76 149 138
f 76 168 149
f 139 145 143
f 143 145 144
f 139 148 145
f 138 149 148
f 168 170 149
f 117 150 119
f 117 145 148
f 117 148 149
f 117 149 150
f 119 150 151
f 119 153 120
f 120 147 146
f 119 152 153
f 119 151 152
f 120 153 147
f 153 154 147
f 151 156 152
f 150 159 151
f 153 152 155
f 152 156 155
f 150 160 159
f 151 157 156
f 151 158 157
f 151 159 158
f 153 155 154
f 150 161 160
f 149 166 150
f 150 162 161
f 150 163 162
f 170 179 149
f 149 179 172
f 150 164 163
f 149 172 166
f 150 165 164
f 150 166 165
f 167 130 181
f 84 183 87
f 87 183 169
f 168 169 183
f 168 179 170
f 80 171 183
f 167 183 171
f 167 181 183
f 168 183 179
f 130 131 184
f 131 134 186
f 131 186 182
f 172 179 180
f 172 173 166
f 172 174 173
f 172 180 174
f 180 175 174
f 188 176 175
f 188 177 176
f 188 178 177
f 130 184 181
f 131 182 184
f 179 183 180
f 180 183 184
f 181 184 183
f 182 185 184
f 184 185 189
f 182 186 187
f 180 184 175
f 184 188 175
f 188 196 178
f 182 187 185
f 184 189 188
f 185 201 189
f 185 187 190
f 185 190 191
f 185 191 192
f 185 192 193
f 188 189 197
f 188 197 196
f 189 201 197
f 201 198 197
f 185 193 194
f 185 194 195
f 185 195 206
f 185 205 204
f 185 199 205
f 185 206 207
f 185 207 199
f 185 204 201
f 201 200 198
f 201 202 200
f 201 203 202
f 201 204 203
f 107 108 161
f 112 107 161
f 106 161 104
f 109 110 161
f 109 161 106
f 111 161 110
f 105 104 161
f 105 161 108
f 112 161 113
f 114 113 161
f 114 161 115
f 124 115 164
f 124 178 125
f 126 125 178
f 127 126 178
f 128 127 178
f 128 178 129
f 129 178 132
f 121 122 161
f 123 161 122
f 121 161 111
f 123 146 161
f 146 147 161
f 115 161 162
f 115 162 163
f 115 163 164
f 154 161 147
f 154 155 161
f 155 156 161
f 156 157 161
f 157 158 161
f 159 161 158
f 159 160 161
f 124 164 165
f 124 165 166
f 124 166 173
f 124 173 174
f 124 174 175
f 124 175 176
f 124 176 177
f 124 177 178
f 132 178 133
f 133 178 134
f 134 196 186
f 134 178 196
f 197 186 196
f 197 198 187
f 197 187 186
f 198 190 187
f 198 191 190
f 192 191 198
f 192 203 193
f 193 203 194
f 192 198 200
f 192 200 202
f 192 202 203
f 203 204 194
f 204 205 194
f 205 199 195
f 205 195 194
f 199 206 195
f 199 207 206

