# https://github.com/mikedh/trimesh
v -0.02564193 0.00095100 -0.09047867
v -0.02713244 0.00399269 -0.09396773
v -0.02713244 0.00458920 -0.09399742
v -0.02713244 0.00587478 -0.09399742
v -0.01067773 0.00095229 -0.09783539
v -0.02564193 0.00095100 -0.05600377
v -0.02713666 0.00399269 -0.04261171
v -0.02713666 0.00399269 -0.04106761
v -0.02403320 0.00399269 -0.02616115
v -0.02248780 0.00399269 -0.02616115
v -0.02403320 0.00450049 -0.02616115
v -0.02248780 0.00450049 -0.02616115
v -0.02713666 0.00587478 -0.04261171
v -0.02713666 0.00587478 -0.04106761
v -0.02309160 0.01399837 -0.05903999
v -0.02309160 0.01408193 -0.05315313
v -0.02309160 0.01408193 -0.04166150
v -0.02402897 0.01399965 -0.03913007
v -0.02403320 0.01399965 -0.03101614
v -0.02403320 0.01399965 -0.02618342
v -0.00523082 0.00150252 -0.10180698
v -0.00457635 0.00150252 -0.10198515
v -0.00275649 0.00095229 -0.10047817
v -0.00453835 0.00351059 -0.10199999
v -0.00453835 0.00447735 -0.10199999
v -0.00450457 0.00447735 -0.10199999
v -0.00522660 0.00587349 -0.10180698
v -0.00472836 0.00587349 -0.10194803
v -0.00453835 0.00587349 -0.10199257
v 0.00879601 0.00095229 -0.10082707
v 0.00998673 0.00095229 -0.10082707
v 0.01254129 0.00094972 -0.10047817
v 0.01323798 0.00094972 -0.10047817
v 0.01254129 0.00150123 -0.10199257
v 0.01449626 0.00150123 -0.10199257
v 0.01524785 0.00150123 -0.10179213
v 0.01579676 0.00150123 -0.10124279
v 0.01599944 0.00150123 -0.10047817
v 0.01576720 0.00094972 -0.09491794
v 0.01599944 0.00094972 -0.09397515
v 0.01599944 0.00094972 -0.08499267
v 0.01249062 0.00350931 -0.10199999
v 0.01253706 0.00350931 -0.10199999
v 0.01253706 0.00410710 -0.10199999
v 0.01599944 0.00150123 -0.08294378
v 0.01254129 0.00595320 -0.10199257
v 0.01449626 0.00595320 -0.10199257
v 0.01524785 0.00595320 -0.10179213
v 0.01579676 0.00595320 -0.10124279
v 0.01599944 0.00595320 -0.10047817
v 0.01599944 0.00595320 -0.09187429
v 0.01599944 0.00450178 -0.08294378
v 0.01254129 0.00094972 -0.05956706
v 0.01349555 0.00094972 -0.05956706
v 0.00895646 0.00400169 -0.02619085
v 0.01254129 0.00150123 -0.04387371
v 0.01349555 0.00150123 -0.04387371
v 0.01253706 0.00399397 -0.03555193
v 0.00896069 0.00587478 -0.02618342
v 0.01349555 0.00450178 -0.04387371
v 0.01253706 0.00450049 -0.03555193
v 0.00673970 0.01408193 -0.05903999
v 0.00824288 0.01408193 -0.05903999
v 0.00896069 0.01399837 -0.05903999
v 0.00902824 0.01408193 -0.05315313
v 0.00902824 0.01408193 -0.04166150
v 0.00896069 0.01399965 -0.02618342
f 1 2 21
f 2 3 21
f 3 4 21
f 1 7 2
f 2 7 3
f 3 7 4
f 1 21 5
f 1 5 23
f 5 21 23
f 1 32 6
f 4 27 21
f 1 6 7
f 6 8 7
f 6 9 8
f 8 9 11
f 9 10 12
f 4 7 13
f 7 8 14
f 8 11 14
f 7 14 13
f 9 12 11
f 6 56 9
f 9 57 10
f 10 67 12
f 4 15 27
f 15 28 27
f 15 29 28
f 4 13 19
f 13 14 20
f 11 20 14
f 4 18 15
f 4 19 18
f 15 18 16
f 13 20 19
f 16 18 19
f 16 20 17
f 16 19 20
f 11 12 67
f 15 16 62
f 16 17 66
f 11 67 20
f 17 20 67
f 21 22 23
f 1 23 32
f 21 24 22
f 21 28 24
f 24 25 26
f 22 30 23
f 22 24 34
f 24 26 44
f 6 32 53
f 21 27 28
f 24 28 25
f 25 28 29
f 25 47 26
f 25 29 46
f 22 34 30
f 23 30 32
f 30 31 32
f 24 42 34
f 24 44 42
f 30 35 31
f 31 33 32
f 30 34 35
f 31 35 33
f 34 42 35
f 33 35 36
f 33 36 37
f 33 37 39
f 37 38 39
f 32 33 41
f 38 40 39
f 33 39 41
f 39 40 41
f 38 52 40
f 40 52 41
f 41 52 45
f 35 42 43
f 42 44 43
f 35 48 36
f 36 49 37
f 37 50 38
f 35 43 47
f 38 50 52
f 32 41 53
f 41 45 57
f 41 54 53
f 45 52 57
f 26 47 44
f 25 46 47
f 43 44 47
f 35 47 48
f 36 48 49
f 37 49 50
f 50 51 52
f 6 53 54
f 6 54 57
f 6 57 56
f 9 56 57
f 10 57 55
f 10 55 59
f 41 57 54
f 52 60 57
f 57 60 58
f 55 57 58
f 55 58 59
f 58 60 61
f 58 61 67
f 15 46 29
f 15 62 46
f 46 63 47
f 47 63 48
f 48 64 49
f 49 64 50
f 50 65 51
f 51 67 52
f 46 62 63
f 48 63 64
f 50 64 65
f 10 59 67
f 16 66 62
f 17 67 66
f 52 67 60
f 58 67 59
f 60 67 61
f 63 65 64
f 62 66 63
f 63 66 65
f 51 65 66
f 51 66 67

