# https://github.com/mikedh/trimesh
v 0.01850010 0.01496014 -0.04105577
v 0.01850010 0.01330203 -0.03553201
v 0.01850010 0.01080960 -0.02312770
v 0.01850010 0.01024124 -0.01915942
v 0.01850010 0.01024124 -0.01810981
v 0.01996136 0.01024124 -0.02099404
v 0.01961545 0.01146598 -0.01810981
v 0.02007791 0.01089735 -0.01810981
v 0.01851006 0.01274821 -0.01810981
v 0.01850010 0.01275821 -0.01810981
v 0.01891612 0.01229456 -0.01810981
v 0.02056669 0.01024124 -0.01810981
v 0.01850010 0.01364392 -0.01861613
v 0.01850010 0.01373744 -0.01867508
v 0.01850010 0.01393932 -0.01880242
v 0.01850010 0.01423931 -0.01899198
v 0.01850010 0.01446346 -0.01913519
v 0.02109683 0.01541391 -0.02123440
v 0.02174728 0.01485402 -0.02125042
v 0.02174728 0.01518395 -0.02148677
v 0.02335274 0.01345057 -0.02129048
v 0.02272484 0.01399920 -0.02127446
v 0.01850010 0.01613365 -0.04495894
v 0.01850010 0.01871132 -0.04546524
v 0.01850010 0.02021418 -0.04546524
v 0.01850010 0.02022524 -0.04536363
v 0.01850010 0.02026040 -0.04501817
v 0.01850010 0.02049433 -0.04163633
v 0.01850010 0.02054985 -0.03923106
v 0.02117203 0.01824456 -0.04163633
v 0.02078477 0.01993171 -0.04163633
v 0.02072837 0.01997545 -0.03976158
v 0.02108179 0.01984423 -0.04163633
v 0.02117203 0.01981674 -0.04163633
v 0.02117203 0.01983548 -0.04021425
v 0.01850010 0.02056709 -0.03813247
v 0.01850010 0.02059515 -0.03563810
v 0.01850010 0.02058762 -0.03323045
v 0.01992000 0.02021915 -0.03223053
v 0.02039374 0.02010792 -0.03563953
v 0.02117203 0.01984798 -0.03627647
v 0.02117203 0.01979049 -0.03307177
v 0.02117203 0.01975425 -0.03224656
v 0.01850010 0.01548241 -0.01986776
v 0.01850010 0.01635884 -0.02056915
v 0.01933723 0.01655742 -0.02118632
v 0.01850010 0.01709565 -0.02116679
v 0.01850010 0.01716820 -0.02123579
v 0.01850010 0.01727821 -0.02134382
v 0.02174728 0.01552263 -0.02174314
v 0.02032230 0.01782965 -0.02305707
v 0.01850010 0.02056320 -0.03151957
v 0.01850010 0.02052862 -0.03066666
v 0.01850010 0.02047546 -0.02941375
v 0.01850010 0.02044076 -0.02906263
v 0.01932219 0.02025914 -0.02941440
v 0.01966057 0.02023790 -0.03101275
v 0.01850010 0.01961739 -0.02495460
v 0.01850010 0.01972022 -0.02526784
v 0.01850010 0.01980752 -0.02557031
v 0.01850010 0.02015898 -0.02679251
v 0.01850010 0.02020649 -0.02699536
v 0.01850010 0.02021459 -0.02703491
v 0.01860406 0.02018666 -0.02703491
v 0.02117203 0.01967551 -0.03101275
v 0.01850010 0.01815536 -0.02240268
v 0.01850010 0.01862742 -0.02303590
v 0.01850010 0.01902208 -0.02375190
v 0.02262709 0.01791338 -0.02536045
v 0.02461605 0.01655742 -0.02508404
v 0.02353697 0.01582257 -0.02315321
v 0.02221726 0.01928310 -0.03100874
v 0.02183000 0.01823082 -0.02499992
v 0.02295044 0.01844577 -0.02709099
v 0.02339410 0.01818958 -0.02710701
v 0.02422126 0.01851076 -0.03100874
v 0.02383400 0.01851826 -0.02947048
v 0.02483787 0.01818958 -0.03100874
v 0.02443181 0.01818958 -0.02949051
v 0.02457469 0.01818958 -0.02994318
v 0.02354073 0.01818958 -0.02740345
v 0.02514242 0.01141349 -0.02124240
v 0.02595079 0.01024124 -0.02111422
v 0.02748105 0.01024124 -0.02206361
v 0.02825933 0.01128977 -0.02316523
v 0.02826685 0.01373426 -0.02518820
v 0.02838717 0.01374550 -0.02536045
v 0.02808638 0.01399920 -0.02536045
v 0.02569136 0.01399920 -0.02320929
v 0.02616886 0.01359054 -0.02322131
v 0.02914290 0.01024124 -0.02536045
v 0.03057915 0.01128602 -0.02512811
v 0.03076339 0.01129727 -0.02536045
v 0.03135368 0.01024124 -0.02498390
v 0.03168455 0.01024124 -0.02536045
v 0.03104537 0.01098358 -0.02536045
v 0.02900378 0.01024124 -0.02303303
v 0.03007158 0.01024124 -0.02390231
v 0.02860148 0.01353305 -0.02536045
v 0.02586807 0.01585256 -0.02536045
v 0.02535673 0.01611126 -0.02510808
v 0.02551841 0.01613376 -0.02536045
f 1 23 95
f 1 91 2
f 23 30 95
f 3 6 4
f 4 12 5
f 5 7 11
f 5 12 8
f 5 8 7
f 5 11 9
f 5 9 10
f 7 83 11
f 9 11 82
f 9 13 10
f 9 21 13
f 13 22 14
f 14 19 15
f 15 19 16
f 16 18 17
f 17 18 44
f 13 21 22
f 16 19 18
f 14 22 19
f 18 19 20
f 18 20 50
f 2 91 3
f 3 91 6
f 4 6 95
f 8 12 83
f 7 8 83
f 11 83 82
f 9 82 21
f 4 95 12
f 19 90 20
f 21 90 22
f 19 22 90
f 20 89 71
f 20 90 89
f 23 24 30
f 27 28 31
f 24 25 34
f 25 26 34
f 26 27 33
f 27 31 33
f 28 29 31
f 29 36 32
f 29 32 31
f 24 34 30
f 26 33 34
f 31 32 33
f 33 35 34
f 32 35 33
f 36 37 40
f 32 36 40
f 37 38 40
f 38 52 39
f 38 39 40
f 35 40 41
f 32 40 35
f 39 43 42
f 39 65 43
f 39 41 40
f 39 42 41
f 30 34 95
f 34 76 78
f 34 35 76
f 35 41 76
f 41 42 76
f 42 43 76
f 44 46 45
f 45 46 47
f 18 46 44
f 48 51 49
f 49 51 66
f 46 48 47
f 46 71 48
f 46 50 71
f 18 50 46
f 48 71 51
f 58 73 59
f 52 53 57
f 53 56 57
f 53 54 56
f 54 55 56
f 55 64 56
f 39 52 57
f 56 65 57
f 61 64 62
f 62 64 63
f 55 63 64
f 60 64 61
f 59 74 60
f 60 74 64
f 64 74 77
f 59 73 74
f 56 72 65
f 56 64 77
f 39 57 65
f 43 65 72
f 51 68 67
f 51 67 66
f 58 68 73
f 51 73 68
f 69 73 70
f 69 70 102
f 69 102 75
f 75 102 81
f 79 81 102
f 20 71 50
f 51 71 101
f 51 70 73
f 51 101 70
f 43 72 76
f 56 77 76
f 69 74 73
f 74 75 81
f 69 75 74
f 56 76 72
f 74 79 77
f 77 80 78
f 76 77 78
f 77 79 80
f 74 81 79
f 1 95 91
f 12 95 83
f 82 83 84
f 21 82 85
f 21 85 90
f 6 91 95
f 82 84 97
f 82 97 85
f 83 95 84
f 85 92 90
f 86 100 101
f 86 87 88
f 86 88 100
f 79 88 87
f 78 87 99
f 78 99 93
f 86 89 90
f 71 89 86
f 71 86 101
f 86 90 92
f 86 92 93
f 92 96 93
f 92 94 96
f 94 95 96
f 85 97 98
f 84 95 97
f 85 98 94
f 95 98 97
f 85 94 92
f 94 98 95
f 78 96 95
f 86 93 99
f 78 93 96
f 86 99 87
f 34 78 95
f 78 80 87
f 100 102 101
f 79 87 80
f 70 101 102
f 79 100 88
f 79 102 100
f 3 4 5
f 3 5 10
f 3 10 13
f 3 13 14
f 3 14 15
f 2 3 53
f 3 15 16
f 3 16 17
f 3 17 44
f 3 45 47
f 3 47 48
f 3 48 49
f 3 49 66
f 3 44 45
f 1 28 23
f 1 2 29
f 23 28 24
f 1 29 28
f 24 27 25
f 24 28 27
f 25 27 26
f 2 36 29
f 2 37 36
f 2 38 37
f 2 52 38
f 2 53 52
f 3 54 53
f 3 55 54
f 3 60 61
f 3 63 55
f 3 61 62
f 3 62 63
f 3 66 67
f 3 67 68
f 3 68 58
f 3 59 60
f 3 58 59

