# https://github.com/mikedh/trimesh
v -0.03883636 -0.01749232 -0.03798668
v -0.03948635 -0.01449726 -0.03884143
v -0.03707759 -0.01749232 -0.03872211
v -0.03626051 -0.01749232 -0.03889783
v -0.03626051 -0.01449726 -0.03889783
v -0.03883636 -0.01749232 -0.03108794
v -0.03883636 -0.01636660 -0.03022017
v -0.03883636 -0.01618583 -0.03009434
v -0.03847668 -0.01749232 -0.03045013
v -0.03835490 -0.01749232 -0.03025271
v -0.03883636 -0.01506560 -0.02933722
v -0.03948635 -0.01449726 -0.03016810
v -0.03930651 -0.01449726 -0.02985570
v -0.03699546 -0.01749232 -0.02819827
v -0.03948635 -0.01249645 -0.02950643
v -0.03948635 -0.01126529 -0.02912678
v -0.03612032 -0.01749232 -0.02695303
v -0.03686801 -0.01512449 -0.02643020
v -0.03692749 -0.01449726 -0.02633040
v -0.03858997 -0.01128994 -0.02781646
v -0.03723336 -0.01132144 -0.02583578
v -0.03541370 -0.01749232 -0.02602235
v -0.03418878 -0.01749232 -0.02444518
v -0.03412931 -0.01518063 -0.02311099
v -0.03420578 -0.01449726 -0.02301771
v -0.03411373 -0.01449726 -0.02293527
v -0.03364359 -0.01749232 -0.02379870
v -0.03369740 -0.01688564 -0.02343857
v -0.03313097 -0.01688564 -0.02293527
v -0.03393672 -0.01518200 -0.02293527
v -0.03453997 -0.01137074 -0.02259684
v -0.03948635 -0.01000400 -0.02893587
v -0.03948635 -0.00926174 -0.02884042
v -0.03941979 -0.00926174 -0.02872978
v -0.03896664 -0.00724860 -0.02790323
v -0.03948635 -0.00350307 -0.03884143
v -0.03625909 -0.00350581 -0.03889783
v -0.03948635 -0.00350307 -0.02851067
v -0.03858997 -0.00928091 -0.02754311
v -0.03707901 -0.00931104 -0.02538671
v -0.03664285 -0.00729243 -0.02472287
v -0.03864519 -0.00350307 -0.02724156
v -0.03858997 -0.00350307 -0.02716129
v -0.03834215 -0.00350444 -0.02681635
v -0.03621378 -0.00350444 -0.02405252
v -0.03537263 -0.00933843 -0.02338217
v -0.03442810 -0.00935623 -0.02227577
v -0.03404718 -0.00732529 -0.02181585
v -0.03562894 -0.00350170 -0.02338217
v -0.03538112 -0.00350170 -0.02310014
v -0.03493789 -0.00350170 -0.02262287
v -0.03451023 -0.00350170 -0.02218248
v -0.03281660 -0.00350170 -0.02063352
v -0.02800334 -0.01749232 -0.03889783
v -0.02723724 -0.01749232 -0.03874380
v -0.02659009 -0.01749232 -0.03830992
v -0.02615677 -0.01749232 -0.03766343
v -0.02600100 -0.01749232 -0.03688895
v -0.02615677 -0.01449726 -0.03766343
v -0.02600100 -0.01449726 -0.03689763
v -0.03051830 -0.01749232 -0.02097195
v -0.03048573 -0.01688153 -0.02060098
v -0.03089923 -0.01517379 -0.02024519
v -0.03098561 -0.01449726 -0.02016492
v -0.03030022 -0.01749232 -0.02080924
v -0.02907673 -0.01512449 -0.01907371
v -0.02916311 -0.01449726 -0.01900429
v -0.02885157 -0.01449726 -0.01885460
v -0.03137928 -0.01136389 -0.01980046
v -0.02959926 -0.01132555 -0.01865284
v -0.02501966 -0.01749232 -0.02250138
v -0.02501966 -0.01449726 -0.02250138
v -0.02727406 -0.01749232 -0.01908239
v -0.02683082 -0.01749232 -0.01886544
v -0.02712112 -0.01504095 -0.01812350
v -0.02720467 -0.01449726 -0.01806493
v -0.02657168 -0.01749232 -0.01875263
v -0.02674728 -0.01675143 -0.01849447
v -0.02576451 -0.01749232 -0.01846193
v -0.02501966 -0.01749232 -0.01826018
v -0.02501966 -0.01666104 -0.01799985
v -0.02501966 -0.01573664 -0.01774386
v -0.02501966 -0.01493413 -0.01753559
v -0.02768614 -0.01125981 -0.01772216
v -0.02501966 -0.01114751 -0.01697805
v -0.02655186 -0.00756221 -0.03825568
v -0.02800192 -0.00620506 -0.03889783
v -0.02731088 -0.00620506 -0.03876116
v -0.02800192 -0.00350581 -0.03889783
v -0.02723582 -0.00350581 -0.03874380
v -0.02677985 -0.00620506 -0.03844008
v -0.02664957 -0.00620506 -0.03835331
v -0.02615535 -0.00620506 -0.03765910
v -0.02659009 -0.00350581 -0.03830992
v -0.02615535 -0.00350581 -0.03765910
v -0.02600242 -0.00350581 -0.03689763
v -0.03134529 -0.00935349 -0.01960088
v -0.03106208 -0.00732666 -0.01934271
v -0.03047865 -0.00533133 -0.01896958
v -0.03075620 -0.00350170 -0.01913445
v -0.02960493 -0.00350170 -0.01845759
v -0.02776685 -0.00927269 -0.01760935
v -0.02763516 -0.00727051 -0.01750088
v -0.02501966 -0.00978625 -0.01688043
v -0.02501966 -0.00917546 -0.01683921
v -0.02501966 -0.00720067 -0.01677196
v -0.02699509 -0.00350170 -0.02338217
v -0.02501966 -0.00350170 -0.02249922
v -0.02723724 -0.00529983 -0.01735770
v -0.02854853 -0.00350170 -0.01793259
v -0.02629979 -0.00350170 -0.01706483
v -0.02501966 -0.00350170 -0.01673725
f 1 2 3
f 1 6 2
f 2 6 12
f 2 4 3
f 6 9 7
f 7 10 8
f 6 7 12
f 7 9 10
f 8 10 14
f 8 14 11
f 7 8 12
f 8 11 12
f 11 13 12
f 11 18 13
f 11 14 18
f 2 36 4
f 2 12 36
f 4 36 5
f 12 13 15
f 13 16 15
f 13 18 16
f 16 20 32
f 3 4 71
f 1 71 6
f 6 71 9
f 1 3 71
f 4 5 89
f 14 17 18
f 17 22 18
f 18 24 19
f 16 18 20
f 20 21 32
f 18 19 20
f 19 21 20
f 19 24 21
f 21 31 40
f 18 22 23
f 18 23 28
f 18 28 24
f 24 30 25
f 25 30 26
f 9 71 10
f 10 71 14
f 14 71 17
f 23 27 28
f 24 28 30
f 28 29 30
f 27 61 28
f 28 61 29
f 29 63 30
f 21 24 25
f 21 25 31
f 26 30 31
f 25 26 31
f 30 64 31
f 31 64 69
f 31 69 47
f 5 36 37
f 12 15 36
f 15 16 36
f 21 34 32
f 32 34 33
f 16 32 36
f 32 33 36
f 34 39 35
f 33 34 38
f 33 38 36
f 34 35 38
f 35 42 38
f 36 38 49
f 5 37 89
f 36 89 37
f 36 49 107
f 21 39 34
f 35 39 40
f 21 40 39
f 40 46 41
f 35 40 43
f 40 44 43
f 35 43 42
f 38 42 49
f 43 44 45
f 40 41 44
f 41 45 44
f 42 43 49
f 43 45 49
f 31 46 40
f 31 47 46
f 41 46 47
f 47 69 97
f 47 97 48
f 41 47 45
f 45 47 49
f 47 50 49
f 47 51 50
f 47 48 51
f 48 52 51
f 48 97 53
f 48 53 52
f 4 54 71
f 4 89 54
f 57 60 58
f 54 55 71
f 56 86 57
f 55 56 71
f 56 57 71
f 57 58 71
f 58 60 71
f 54 88 55
f 55 92 56
f 57 86 59
f 57 93 60
f 57 59 95
f 17 71 22
f 22 71 23
f 23 71 27
f 27 71 61
f 29 61 62
f 29 62 63
f 30 63 64
f 61 65 62
f 62 65 73
f 62 73 66
f 62 66 63
f 63 66 64
f 64 66 67
f 64 70 69
f 69 70 97
f 64 67 70
f 66 70 67
f 66 68 70
f 68 84 70
f 60 72 71
f 61 71 65
f 65 71 73
f 73 74 78
f 66 73 78
f 66 75 76
f 66 76 68
f 66 78 75
f 71 74 73
f 71 77 74
f 71 79 77
f 71 80 79
f 74 77 78
f 77 79 78
f 75 78 82
f 78 79 80
f 78 80 81
f 78 81 82
f 75 83 76
f 75 82 83
f 60 108 72
f 68 76 84
f 70 84 102
f 76 85 84
f 76 83 85
f 71 112 80
f 80 112 81
f 71 72 112
f 81 112 82
f 82 112 83
f 84 85 104
f 36 90 89
f 36 94 90
f 36 107 108
f 36 108 94
f 54 87 88
f 54 89 87
f 55 91 92
f 55 88 90
f 55 90 91
f 56 94 86
f 56 92 94
f 57 95 93
f 59 86 95
f 60 93 95
f 60 95 96
f 60 96 108
f 87 89 88
f 90 92 91
f 88 89 90
f 86 94 95
f 90 94 92
f 94 108 95
f 95 108 96
f 70 98 97
f 70 99 98
f 70 102 99
f 53 97 98
f 98 99 100
f 53 98 100
f 49 50 112
f 50 51 112
f 51 52 112
f 52 53 112
f 99 102 101
f 49 112 107
f 99 101 100
f 53 100 112
f 84 104 102
f 102 104 105
f 83 112 85
f 72 108 112
f 102 105 103
f 103 105 106
f 85 112 104
f 104 112 105
f 101 102 103
f 103 109 110
f 103 111 109
f 101 103 110
f 100 101 112
f 109 111 110
f 101 110 112
f 103 106 111
f 105 112 106
f 107 112 108
f 110 111 112
f 106 112 111

