# https://github.com/mikedh/trimesh
v -0.00199842 -0.01525671 -0.11192352
v -0.00199842 -0.01599943 -0.10819235
v -0.00199842 -0.01448895 -0.11307642
v -0.00398290 -0.01610124 -0.09599267
v -0.00675360 -0.01448895 -0.09049549
v 0.00075224 -0.01609957 -0.10048895
v 0.00150282 -0.01609957 -0.10069332
v -0.00675360 -0.01448895 -0.05955086
v -0.00398290 -0.01610124 -0.06136928
v -0.00398290 -0.01609957 -0.06045745
v -0.00398290 -0.01599943 -0.05955086
v -0.00374236 -0.01610124 -0.06135880
v -0.00275346 0.00094972 -0.10049419
v -0.00199396 0.00094972 -0.10147414
v -0.00675360 0.00094972 -0.09049549
v -0.00675360 0.00094972 -0.05955086
v 0.00649632 -0.01609957 -0.10069332
v 0.00724690 -0.01609957 -0.10048895
v 0.00879707 -0.01525671 -0.11192352
v 0.00879707 -0.01599943 -0.10819235
v 0.00879707 -0.01448895 -0.11307642
v 0.01323821 -0.01599943 -0.10049419
v 0.01399770 -0.01610124 -0.09599267
v 0.01422265 -0.01610124 -0.09597695
v 0.01425829 -0.01610124 -0.09596647
v 0.01512469 -0.01610124 -0.09564157
v 0.01576614 -0.01610124 -0.09492887
v 0.01592873 -0.01610124 -0.09450440
v 0.01599777 -0.01610124 -0.09399608
v 0.01591314 -0.01448728 -0.09454632
v 0.01600000 -0.01448895 -0.09050072
v 0.00880598 -0.01599943 -0.05955086
v 0.00999756 -0.01610124 -0.06240688
v 0.01599777 -0.01610124 -0.08500353
v 0.01600000 -0.01448895 -0.08499829
v 0.01141186 -0.01610124 -0.06298857
v 0.01076596 -0.01610124 -0.06255885
v 0.01187736 -0.01610124 -0.06379559
v 0.01199763 -0.01610124 -0.06440348
v 0.01184395 -0.01610124 -0.06364362
v 0.01349880 -0.01599943 -0.05955610
v 0.01349880 -0.01448895 -0.05955610
v 0.01349434 -0.01448895 -0.05955086
v 0.00879707 0.00094972 -0.10147414
v 0.01323821 0.00094972 -0.10049419
v 0.01580623 -0.00268546 -0.09482930
v 0.01599777 -0.00268713 -0.09399608
v 0.01577059 0.00094805 -0.09491315
v 0.01599109 0.00094805 -0.09401704
v 0.01599332 0.00094805 -0.09399608
v 0.01600000 0.00094972 -0.09050072
v 0.01600000 0.00094972 -0.08499829
v 0.01349434 0.00094972 -0.05955086
f 1 2 5
f 1 5 3
f 2 6 4
f 2 4 5
f 3 5 15
f 1 19 2
f 1 3 21
f 2 7 6
f 2 20 7
f 4 6 7
f 4 7 17
f 3 14 21
f 4 8 5
f 4 9 8
f 8 9 10
f 8 10 11
f 9 12 10
f 5 8 16
f 4 34 9
f 10 32 11
f 10 12 33
f 9 34 12
f 8 11 53
f 3 15 13
f 3 13 14
f 13 52 14
f 13 15 52
f 5 16 15
f 8 53 16
f 15 16 52
f 2 19 20
f 1 21 19
f 7 20 17
f 19 22 20
f 17 20 18
f 4 17 23
f 17 18 24
f 4 23 34
f 19 21 27
f 18 20 26
f 19 27 22
f 20 22 27
f 17 24 23
f 18 25 24
f 18 26 25
f 20 27 26
f 27 30 28
f 23 24 34
f 24 25 34
f 25 26 34
f 26 27 34
f 27 28 34
f 28 29 34
f 29 35 34
f 29 31 35
f 21 46 27
f 28 47 29
f 27 46 30
f 28 30 46
f 29 51 31
f 31 52 35
f 12 34 33
f 10 41 32
f 10 33 41
f 11 32 53
f 34 35 41
f 33 34 37
f 34 36 37
f 34 40 36
f 33 37 41
f 36 41 37
f 36 40 41
f 38 41 40
f 32 41 43
f 38 39 41
f 34 39 38
f 34 38 40
f 34 41 39
f 35 52 41
f 32 43 53
f 41 52 42
f 41 53 43
f 41 42 53
f 14 44 21
f 21 44 45
f 14 52 44
f 21 45 48
f 21 48 46
f 28 46 49
f 28 49 47
f 29 47 51
f 31 51 52
f 44 52 45
f 46 48 49
f 47 49 50
f 45 51 48
f 48 51 49
f 47 50 51
f 45 52 51
f 49 51 50
f 16 53 52
f 42 52 53

