# https://github.com/mikedh/trimesh
v 0.01850010 -0.01676037 -0.00606449
v 0.01850010 -0.01681152 -0.00227539
v 0.01850010 -0.01676790 -0.00188151
v 0.01850010 -0.01662044 -0.01432179
v 0.01850010 -0.01652141 -0.01653463
v 0.01850010 -0.01649990 -0.01674210
v 0.01851929 -0.01649990 -0.01643563
v 0.01861983 -0.01649990 -0.01339751
v 0.01850010 -0.01657816 -0.00047961
v 0.01850010 -0.01654042 -0.00020242
v 0.01850010 -0.01654059 -0.00020254
v 0.01850010 -0.01653373 -0.00019790
v 0.01850010 -0.01649990 -0.00017525
v 0.01853436 -0.01649990 -0.00020117
v 0.01853604 -0.01649990 -0.00020245
v 0.01853601 -0.01649990 -0.00020242
v 0.01854075 -0.01649990 -0.00024177
v 0.01871208 -0.01658126 -0.00240372
v 0.01871569 -0.01649990 -0.00170675
v 0.01877542 -0.01649990 -0.00232873
v 0.01877971 -0.01649990 -0.00266502
v 0.01878148 -0.01649990 -0.00248534
f 1 18 2
f 2 18 3
f 4 8 1
f 5 7 4
f 5 6 7
f 4 7 8
f 3 17 9
f 9 17 11
f 10 11 15
f 10 16 12
f 12 14 13
f 10 15 16
f 12 16 14
f 11 17 15
f 1 8 21
f 3 19 17
f 1 21 18
f 3 18 20
f 3 20 19
f 18 21 22
f 18 22 20
f 1 2 6
f 2 3 6
f 4 1 6
f 5 4 6
f 3 9 6
f 9 11 6
f 10 6 11
f 10 12 6
f 12 13 6
f 7 6 8
f 8 6 21
f 14 6 13
f 17 6 14
f 17 14 16
f 17 16 15
f 17 19 6
f 20 6 19
f 22 6 20
f 21 6 22

