# https://github.com/mikedh/trimesh
v 0.01763665 -0.01649110 -0.02099852
v 0.01763665 -0.01645184 -0.02099982
v 0.01763665 -0.00980767 -0.02099852
v 0.01763665 -0.01649110 -0.01707109
v 0.01763665 -0.01503875 -0.01634442
v 0.01763665 -0.00980767 -0.01598370
v 0.01763877 -0.00188909 -0.02099982
v 0.01763877 -0.00150442 -0.02099721
v 0.01746244 0.00094757 -0.01800165
v 0.01746032 0.00094757 -0.01751023
v 0.01746032 0.00094757 -0.01673128
v 0.01763665 0.00094757 -0.01598370
v 0.01746244 0.01023999 -0.01800165
v 0.01746032 0.01023999 -0.01751023
v 0.01746032 0.01023999 -0.01673128
v 0.01850010 -0.01573611 -0.02135941
v 0.01850010 -0.01491476 -0.02149016
v 0.01850010 -0.01487781 -0.02149139
v 0.01850010 -0.01649137 -0.02099866
v 0.01848220 -0.01649110 -0.01712859
v 0.01850010 -0.01649137 -0.01716766
v 0.01850010 -0.01649110 -0.01712984
v 0.01850010 -0.01649111 -0.01713068
v 0.01850010 -0.01540999 -0.01658997
v 0.01850010 -0.01534731 -0.01656100
v 0.01850010 -0.01531076 -0.01654710
v 0.01850010 -0.01525200 -0.01652519
v 0.01850010 -0.01521511 -0.01651201
v 0.01850010 -0.01500443 -0.01645676
v 0.01850010 -0.01452000 -0.01634442
v 0.01850010 -0.01383146 -0.01626117
v 0.01850010 -0.00980767 -0.01598370
v 0.01850010 -0.00117548 -0.02149025
v 0.01850010 -0.00081345 -0.02148779
v 0.01850010 0.00284396 -0.02099479
v 0.01850010 0.01023999 -0.01924096
v 0.01850010 0.00094757 -0.01598370
v 0.01850010 0.01023999 -0.01673128
f 1 9 2
f 2 3 7
f 2 13 3
f 1 10 9
f 1 2 17
f 2 7 18
f 1 4 10
f 4 5 11
f 5 6 11
f 4 11 10
f 1 21 4
f 4 20 5
f 5 31 6
f 3 13 7
f 2 9 13
f 7 13 8
f 7 8 33
f 8 13 35
f 6 12 11
f 9 10 13
f 10 14 13
f 10 11 15
f 11 12 15
f 10 15 14
f 6 37 12
f 13 14 36
f 14 15 36
f 12 38 15
f 1 17 16
f 2 18 17
f 1 16 19
f 1 19 21
f 7 33 18
f 4 21 20
f 20 24 5
f 5 24 25
f 5 25 26
f 5 26 27
f 5 27 28
f 5 28 29
f 5 29 30
f 5 30 31
f 6 31 32
f 6 32 37
f 20 21 23
f 20 23 22
f 20 22 24
f 8 34 33
f 8 35 34
f 13 36 35
f 15 38 36
f 12 37 38
f 16 21 19
f 16 17 24
f 18 30 17
f 18 33 37
f 16 24 21
f 24 17 25
f 25 17 26
f 26 17 27
f 27 17 28
f 29 28 17
f 30 29 17
f 18 31 30
f 18 32 31
f 23 21 24
f 22 23 24
f 18 37 32
f 33 34 37
f 34 35 37
f 35 36 38
f 35 38 37

