# https://github.com/mikedh/trimesh
v -0.00199826 -0.01314380 -0.11509037
v -0.00199826 -0.01448909 -0.11307582
v -0.00199826 -0.00997955 -0.11720223
v -0.00199826 -0.00625007 -0.11794829
v -0.00370000 -0.00800036 -0.10952134
v -0.00370000 -0.00722206 -0.11006425
v -0.00370000 -0.00628353 -0.11018717
v -0.00199826 -0.01448909 -0.10148365
v -0.00370000 -0.00844057 -0.10868309
v -0.00370000 -0.00844409 -0.10773557
v -0.00370000 -0.00801092 -0.10689219
v -0.00370000 -0.00723967 -0.10634246
v -0.00370000 -0.00630114 -0.10621100
v -0.00149806 -0.00359471 -0.11757441
v -0.00370000 -0.00539430 -0.10986450
v -0.00199826 0.00031790 -0.11599521
v -0.00199826 0.00094828 -0.11524744
v -0.00199826 0.00156634 -0.11451161
v -0.00149806 0.00055209 -0.11649543
v -0.00149806 0.00094828 -0.11602594
v -0.00149806 0.00202064 -0.11474721
v -0.00149806 0.00349975 -0.10923111
v -0.00370000 -0.00475159 -0.10916965
v -0.00199826 0.00299967 -0.10917136
v -0.00199826 0.00094828 -0.10084685
v -0.00199826 0.00299967 -0.10084685
v -0.00079939 0.00094828 -0.10050711
v -0.00149806 0.00349975 -0.10084685
v -0.00079939 0.00299967 -0.10050711
v -0.00029651 0.00349975 -0.10050711
v 0.00766775 -0.01314380 -0.11509037
v 0.00879688 -0.01345195 -0.11462770
v 0.00879688 -0.01314204 -0.11508866
v 0.00766775 -0.01448909 -0.11307582
v 0.00879688 -0.01448909 -0.11307412
v 0.00999843 -0.01019966 -0.11274291
v 0.00999843 -0.01188655 -0.11050643
v 0.00766775 -0.00997955 -0.11720223
v 0.00766775 -0.00625007 -0.11794829
v 0.00879688 -0.00997427 -0.11720052
v 0.00879688 -0.00625536 -0.11794488
v 0.00999843 -0.00766052 -0.11393969
v 0.00879957 -0.01448909 -0.10798483
v 0.00999843 -0.01234438 -0.10774411
v 0.00999977 -0.01181436 -0.10615296
v 0.00999977 -0.01146043 -0.10507910
v 0.00766775 -0.01448909 -0.10148194
v 0.00879957 -0.01448909 -0.10148194
v 0.00999977 -0.00943897 -0.10313114
v 0.00999977 -0.00750556 -0.10242776
v 0.00999977 -0.00674840 -0.10234581
v 0.00766775 -0.00359471 -0.11757441
v 0.00829803 -0.00359471 -0.11757270
v 0.00999843 -0.00486252 -0.11382189
v 0.00999843 -0.00243431 -0.11241512
v 0.00766775 0.00055209 -0.11649543
v 0.00829803 0.00055209 -0.11649372
v 0.00829803 0.00094828 -0.11602594
v 0.00879688 0.00031790 -0.11599350
v 0.00879957 0.00094828 -0.11524744
v 0.00829803 0.00202064 -0.11474721
v 0.00879957 0.00156634 -0.11451161
v 0.00999843 -0.00094463 -0.11005230
v 0.00999843 -0.00093935 -0.11004376
v 0.00829803 0.00349975 -0.10923111
v 0.00999977 -0.00118587 -0.10615296
v 0.00999977 -0.00399971 -0.10290066
v 0.00999977 -0.00182154 -0.10467107
v 0.00999843 -0.00065762 -0.10866431
v 0.00999843 -0.00071925 -0.10725242
v 0.00879957 0.00299967 -0.10917136
v 0.00880493 0.00094828 -0.10050711
v 0.00880493 0.00308067 -0.10050711
v 0.00880493 0.00349975 -0.10084685
v 0.00880493 0.00349975 -0.10070173
v 0.00879957 0.00349975 -0.10050711
f 1 6 3
f 1 2 5
f 2 9 5
f 2 10 9
f 3 6 4
f 1 5 6
f 4 6 7
f 5 23 6
f 6 23 7
f 1 31 2
f 1 3 38
f 3 4 38
f 2 8 10
f 8 11 10
f 8 12 11
f 9 10 23
f 5 9 23
f 10 11 23
f 11 12 23
f 12 13 23
f 8 13 12
f 8 25 13
f 2 48 8
f 8 47 27
f 4 7 16
f 4 19 14
f 4 16 19
f 7 15 16
f 15 23 16
f 7 23 15
f 16 23 17
f 16 20 19
f 16 17 20
f 17 18 20
f 18 21 20
f 17 23 18
f 18 23 24
f 18 24 21
f 21 24 22
f 4 14 39
f 14 19 56
f 19 20 58
f 20 21 58
f 21 22 61
f 13 26 23
f 8 27 25
f 23 26 24
f 22 24 28
f 13 25 26
f 24 26 28
f 25 29 26
f 25 27 29
f 26 29 28
f 28 29 30
f 22 28 76
f 27 76 29
f 28 30 76
f 29 76 30
f 2 31 34
f 1 38 31
f 4 39 38
f 31 32 34
f 31 38 33
f 32 35 34
f 31 33 32
f 33 38 40
f 33 40 36
f 32 33 37
f 32 37 35
f 35 44 43
f 35 37 44
f 33 36 37
f 36 45 37
f 38 39 41
f 38 41 40
f 40 41 42
f 36 40 42
f 41 54 42
f 36 42 45
f 2 34 48
f 8 48 47
f 34 35 48
f 35 43 48
f 43 44 48
f 37 45 44
f 44 45 46
f 44 46 48
f 46 49 48
f 45 51 46
f 48 49 50
f 42 66 45
f 45 66 51
f 46 51 49
f 47 48 72
f 48 50 51
f 49 51 50
f 48 51 72
f 14 52 39
f 14 56 52
f 19 58 56
f 21 61 58
f 22 65 61
f 39 53 41
f 39 52 53
f 52 57 53
f 41 59 54
f 41 53 57
f 41 57 59
f 54 59 55
f 42 54 66
f 54 55 66
f 55 63 66
f 52 56 57
f 56 58 57
f 57 60 59
f 57 58 60
f 58 62 60
f 55 59 60
f 55 60 62
f 58 61 62
f 55 62 63
f 62 64 63
f 62 71 64
f 64 71 69
f 61 71 62
f 61 65 71
f 27 47 72
f 22 76 65
f 27 72 76
f 63 64 66
f 51 66 68
f 51 68 67
f 51 67 76
f 64 69 66
f 66 69 70
f 69 75 70
f 65 74 71
f 69 71 74
f 67 68 76
f 66 70 76
f 66 76 68
f 51 73 72
f 51 76 73
f 65 76 74
f 69 74 75
f 70 75 76
f 72 73 76
f 74 76 75

