# https://github.com/mikedh/trimesh
v 0.01850010 -0.02119764 -0.02163688
v 0.01850010 -0.02116910 -0.02182095
v 0.01850010 -0.02115732 -0.02183577
v 0.01850010 -0.02105427 -0.02190347
v 0.01850010 -0.02098518 -0.02192551
v 0.01850010 -0.02081280 -0.02195804
v 0.01850010 -0.02073664 -0.02196702
v 0.01850010 -0.02172218 -0.01762431
v 0.01850010 -0.02192184 -0.01604128
v 0.01850010 -0.02193468 -0.01589899
v 0.01850010 -0.02193799 -0.01574831
v 0.01850010 -0.02194175 -0.01533914
v 0.01850010 -0.02194270 -0.01496764
v 0.01850010 -0.02051626 -0.02198425
v 0.01850010 -0.02036840 -0.02199129
v 0.01850010 -0.02019518 -0.02199734
v 0.02313966 -0.02081065 -0.02099941
v 0.01850010 -0.02194270 -0.01273013
v 0.01850010 -0.02188055 -0.01167640
v 0.01850010 -0.02124793 -0.00859884
v 0.01850010 -0.02117351 -0.00824935
v 0.01850010 -0.02098082 -0.00772876
v 0.01850010 -0.02015970 -0.00601587
v 0.01850010 -0.02008590 -0.00589000
v 0.01850010 -0.01987823 -0.00564910
v 0.01850010 -0.01970139 -0.00549701
v 0.01850010 -0.01956390 -0.00539782
v 0.01850010 -0.01940465 -0.00531278
v 0.01850010 -0.01836557 -0.02199734
v 0.01850010 -0.01649990 -0.02100209
v 0.01850010 -0.01649990 -0.00531278
v 0.02640948 -0.02046825 -0.02099941
v 0.02676686 -0.02040706 -0.02099941
v 0.02867648 -0.01993968 -0.02099941
v 0.02941792 -0.01965197 -0.02099941
v 0.03065010 -0.01894764 -0.02099941
v 0.03102349 -0.01864040 -0.02099941
v 0.03178627 -0.01775902 -0.02099941
v 0.03211699 -0.01717577 -0.02099941
v 0.03237304 -0.01649990 -0.02100209
v 0.03239149 -0.01649990 -0.02100076
v 0.03240820 -0.01649990 -0.02099941
v 0.03238636 -0.01649990 -0.02097235
f 8 17 9
f 1 2 17
f 1 17 8
f 2 3 32
f 3 4 33
f 4 5 34
f 9 32 10
f 10 32 11
f 11 33 12
f 12 33 13
f 13 33 18
f 18 33 19
f 19 34 20
f 2 32 17
f 9 17 32
f 3 33 32
f 11 32 33
f 19 33 34
f 5 6 35
f 6 7 36
f 7 14 37
f 14 15 38
f 15 16 39
f 4 34 33
f 20 34 21
f 21 35 22
f 22 36 23
f 23 36 24
f 24 37 25
f 16 29 41
f 29 30 40
f 25 38 26
f 26 38 27
f 27 39 28
f 28 43 31
f 5 35 34
f 6 36 35
f 7 37 36
f 21 34 35
f 22 35 36
f 24 36 37
f 14 38 37
f 15 39 38
f 16 41 39
f 25 37 38
f 27 38 39
f 29 40 41
f 28 39 43
f 39 41 42
f 39 42 43
f 8 9 30
f 7 29 14
f 14 29 15
f 15 29 16
f 2 30 3
f 1 30 2
f 3 30 4
f 1 8 30
f 4 30 5
f 5 30 6
f 6 30 7
f 9 10 30
f 10 11 30
f 11 12 30
f 12 13 30
f 13 18 30
f 18 19 30
f 19 20 30
f 20 21 30
f 21 22 30
f 7 30 29
f 22 23 30
f 23 24 30
f 24 25 30
f 25 26 30
f 26 27 30
f 27 28 30
f 28 31 30
f 30 31 43
f 43 40 30
f 40 43 41
f 43 42 41

