# https://github.com/mikedh/trimesh
v -0.00989076 -0.02210623 -0.08831706
v -0.00365170 -0.02192772 -0.09130794
v -0.00304626 -0.02192537 -0.09141329
v -0.00989076 -0.02268637 -0.05346257
v -0.00989076 -0.02269929 -0.05257292
v -0.00989076 -0.02270986 -0.05165985
v -0.00989076 -0.02271573 -0.05073508
v -0.00989076 -0.02274391 -0.04400416
v -0.00989076 -0.02274274 -0.04317888
v -0.00989076 -0.02273452 -0.04233606
v -0.00989076 -0.02272982 -0.04193805
v -0.00989076 -0.02272277 -0.04146396
v -0.00989076 -0.02270398 -0.04058601
v -0.00989076 -0.02268050 -0.03967295
v -0.00989076 -0.02264879 -0.03873647
v -0.00989076 -0.02261591 -0.03781170
v -0.00068609 -0.02232231 -0.03781170
v -0.00989076 -0.01600065 -0.09752380
v -0.00675584 -0.01600065 -0.09753550
v -0.00989076 -0.01449041 -0.09752380
v -0.00695594 -0.01449041 -0.09753550
v -0.00675584 -0.01449041 -0.09753550
v -0.00989076 -0.01749563 -0.03781170
v -0.00945977 -0.01749446 -0.03781170
v -0.00989076 -0.01449041 -0.05956137
v -0.00989076 -0.01450215 -0.05500776
v -0.00068609 -0.01749446 -0.03781170
v 0.01307474 -0.02287544 -0.09092749
v 0.01348520 -0.02295178 -0.09083970
v 0.01504497 -0.02307391 -0.09032463
v 0.01850010 -0.02320826 -0.09027795
v 0.01850010 -0.02320951 -0.09026785
v 0.01850010 -0.02314252 -0.09042564
v 0.01599417 -0.02319252 -0.08856289
v 0.01694850 -0.02330057 -0.08682455
v 0.01778995 -0.02326651 -0.08852192
v 0.01763090 -0.02327473 -0.08821171
v 0.01850010 -0.02333155 -0.08718678
v 0.01763090 -0.02336868 -0.08563054
v 0.01840052 -0.02344267 -0.08428436
v 0.01850010 -0.02345019 -0.08411236
v 0.01850010 -0.02322050 -0.09004023
v 0.01850010 -0.02225027 -0.09163457
v 0.01850010 -0.02223099 -0.09166011
v 0.01850010 -0.02217067 -0.09173262
v 0.01850010 -0.02355926 -0.08064053
v 0.01850010 -0.02359024 -0.07963621
v 0.01850010 -0.02359708 -0.07941357
v 0.01850010 -0.02359912 -0.07934466
v 0.01717939 -0.02360708 -0.07707934
v 0.01763090 -0.02364349 -0.07637698
v 0.01850010 -0.02370796 -0.07518483
v 0.01763090 -0.02360590 -0.07784608
v 0.01850010 -0.02371255 -0.07500526
v 0.01850010 -0.02371531 -0.07487156
v 0.01722043 -0.02378441 -0.06837596
v 0.01850010 -0.02380235 -0.07056625
v 0.01850010 -0.02380880 -0.07024678
v 0.01763090 -0.02379381 -0.06896126
v 0.01763090 -0.02381142 -0.06782578
v 0.01201266 -0.01850090 -0.09599617
v 0.01400855 -0.01850090 -0.09599617
v 0.01850010 -0.01859619 -0.09587479
v 0.01850010 -0.01850090 -0.09597618
v 0.01850010 -0.01836250 -0.09611024
v 0.01850010 -0.01831597 -0.09614860
v 0.01850010 -0.02386457 -0.06674306
v 0.01850010 -0.02386680 -0.06659912
v 0.01850010 -0.02391422 -0.06289007
v 0.01850010 -0.02391898 -0.06251091
v 0.01763090 -0.02389245 -0.06138165
v 0.01850010 -0.02393116 -0.06109140
v 0.01670735 -0.02390067 -0.05369084
v 0.01763090 -0.02390420 -0.05997108
v 0.01842104 -0.02394647 -0.05892340
v 0.01850010 -0.02394909 -0.05881947
v 0.01850010 -0.02396494 -0.05575986
v 0.01822607 -0.02395939 -0.05544088
v 0.01850010 -0.02396875 -0.05365806
v 0.01795414 -0.02395939 -0.05209297
v 0.01850010 -0.02397152 -0.05138345
v 0.01850010 -0.02397004 -0.04979673
v 0.01739488 -0.02394060 -0.04724671
v 0.01763090 -0.02394882 -0.04886798
v 0.01850010 -0.02396864 -0.04888697
v 0.01850010 -0.02396780 -0.04840482
v 0.01850010 -0.02396552 -0.04728969
v 0.01850010 -0.02395988 -0.04658838
v 0.01850010 -0.02395182 -0.04571389
v 0.01609165 -0.02384900 -0.03973733
v 0.01763090 -0.02392064 -0.04410951
v 0.01850010 -0.02390957 -0.04229694
v 0.01744619 -0.02387014 -0.03901156
v 0.01850010 -0.02384533 -0.03901156
v 0.01850010 -0.02370950 -0.03892568
v 0.01850010 -0.02364313 -0.03888869
v 0.01850010 -0.02312912 -0.03871556
v 0.01850010 -0.02269522 -0.03861549
v 0.01850010 -0.02195984 -0.03848997
v 0.01850010 -0.02171563 -0.03845737
v 0.01850010 -0.02152701 -0.03843245
v 0.01850010 -0.02130296 -0.03841371
v 0.01850010 -0.02126554 -0.03841153
v 0.01850010 -0.02090527 -0.03839690
v 0.01850010 -0.02067395 -0.03839064
v 0.01850010 -0.02014637 -0.03838130
v 0.01850010 -0.01944605 -0.03837423
v 0.01850010 -0.01812226 -0.09630674
v 0.01850010 -0.01799384 -0.09640377
v 0.01850010 -0.01629814 -0.09757275
v 0.01850010 -0.01628398 -0.09757547
v 0.01850010 -0.01563695 -0.09757561
v 0.01850010 -0.01560699 -0.09757455
v 0.01850010 -0.01557383 -0.09747551
v 0.01850010 -0.01298427 -0.07294026
v 0.01850010 -0.01688166 -0.03837423
v 0.01850010 -0.01249968 -0.06502697
v 0.01850010 -0.01245765 -0.06433844
v 0.01850010 -0.01241193 -0.06346498
v 0.01850010 -0.01237163 -0.06243589
v 0.01850010 -0.01234355 -0.06141041
v 0.01850010 -0.01233346 -0.06058119
v 0.01850010 -0.01453606 -0.03845413
v 0.01850010 -0.01228557 -0.04780316
v 0.01850010 -0.01351435 -0.03867582
v 0.01850010 -0.01228557 -0.04140028
v 0.01850010 -0.01228694 -0.04086982
v 0.01850010 -0.01264423 -0.03886473
v 0.01850010 -0.01263566 -0.03886662
f 2 1 18
f 2 18 3
f 1 4 20
f 4 5 20
f 2 29 1
f 2 3 29
f 1 56 4
f 3 18 61
f 5 6 20
f 6 7 20
f 7 8 20
f 8 9 20
f 9 10 20
f 10 11 20
f 11 12 20
f 12 13 20
f 13 14 20
f 14 15 20
f 15 16 20
f 16 23 20
f 16 27 23
f 16 17 27
f 4 56 5
f 5 71 6
f 6 74 7
f 7 73 8
f 9 90 10
f 10 90 11
f 11 90 12
f 12 90 13
f 13 90 14
f 14 90 15
f 15 90 16
f 8 83 9
f 16 95 17
f 1 20 18
f 18 21 19
f 18 20 21
f 20 26 25
f 18 19 110
f 19 21 112
f 20 118 21
f 21 22 112
f 21 115 22
f 20 25 124
f 20 23 26
f 23 27 24
f 23 24 129
f 24 27 128
f 25 26 126
f 23 127 26
f 3 28 29
f 1 29 30
f 1 30 34
f 1 34 35
f 3 61 28
f 1 35 39
f 1 39 48
f 1 53 50
f 1 50 51
f 1 48 53
f 1 51 55
f 1 59 56
f 1 55 57
f 1 57 59
f 28 61 29
f 29 31 30
f 29 33 31
f 30 31 32
f 29 43 33
f 30 37 34
f 34 37 35
f 35 37 39
f 36 42 38
f 36 40 37
f 36 38 40
f 37 40 39
f 40 38 41
f 39 40 47
f 40 41 46
f 30 32 36
f 30 36 37
f 36 32 42
f 29 62 45
f 29 44 43
f 29 45 44
f 39 47 48
f 40 46 47
f 51 50 53
f 53 49 52
f 51 53 52
f 51 52 54
f 51 54 55
f 53 48 49
f 60 56 59
f 59 57 58
f 60 59 67
f 59 58 67
f 29 61 62
f 61 66 62
f 62 63 45
f 61 108 66
f 61 109 108
f 62 64 63
f 62 65 64
f 62 66 65
f 5 56 60
f 5 60 71
f 6 71 74
f 7 74 78
f 7 78 73
f 8 73 80
f 8 80 83
f 9 83 90
f 16 90 93
f 16 93 95
f 17 107 27
f 60 67 68
f 60 69 71
f 60 68 69
f 71 69 70
f 71 70 72
f 71 72 75
f 71 75 74
f 75 72 76
f 74 75 78
f 75 76 77
f 75 77 78
f 78 77 79
f 73 78 80
f 78 79 80
f 17 95 96
f 17 96 97
f 17 97 98
f 17 98 99
f 17 99 100
f 17 100 101
f 17 101 102
f 17 102 103
f 17 103 104
f 17 104 105
f 80 79 81
f 80 81 82
f 80 82 84
f 80 84 83
f 84 82 85
f 84 86 83
f 84 85 86
f 83 86 87
f 83 88 91
f 83 87 88
f 91 88 89
f 90 83 91
f 91 89 93
f 93 89 92
f 90 91 93
f 93 92 94
f 93 94 95
f 17 105 106
f 17 106 107
f 61 18 110
f 19 111 110
f 19 112 111
f 22 113 112
f 22 114 113
f 22 115 114
f 21 117 115
f 21 118 117
f 20 119 118
f 20 120 119
f 20 121 120
f 20 122 121
f 20 124 122
f 61 110 109
f 23 129 127
f 24 128 129
f 25 126 124
f 26 127 126
f 27 107 116
f 27 116 123
f 27 123 125
f 27 125 128
f 31 33 115
f 31 115 32
f 42 32 115
f 38 42 115
f 33 43 115
f 44 45 115
f 43 44 115
f 46 41 115
f 38 115 41
f 47 115 48
f 48 115 49
f 47 46 115
f 49 115 52
f 54 115 55
f 54 52 115
f 55 115 57
f 57 117 58
f 95 94 92
f 95 92 96
f 96 92 97
f 92 98 97
f 92 99 98
f 92 100 99
f 107 92 89
f 92 101 100
f 92 102 101
f 92 103 102
f 92 104 103
f 92 105 104
f 92 106 105
f 107 106 92
f 58 117 67
f 67 117 68
f 68 117 69
f 120 70 69
f 120 72 70
f 122 76 72
f 122 77 76
f 124 79 77
f 124 81 79
f 124 82 81
f 124 85 82
f 124 86 85
f 124 87 86
f 124 88 87
f 124 89 88
f 107 89 116
f 89 123 116
f 63 115 45
f 63 64 115
f 111 112 114
f 112 113 114
f 64 65 115
f 66 115 65
f 66 108 115
f 109 115 108
f 110 115 109
f 57 115 117
f 111 115 110
f 111 114 115
f 118 69 117
f 118 119 69
f 120 69 119
f 121 72 120
f 121 122 72
f 122 124 77
f 127 123 89
f 124 126 89
f 127 89 126
f 127 125 123
f 127 128 125
f 128 127 129

