# https://github.com/mikedh/trimesh
v -0.07048263 0.00143273 0.00049753
v -0.06611740 0.00498747 0.00252632
v -0.06305414 0.01562852 0.00284288
v -0.06638176 0.01966989 -0.00179656
v -0.06809679 0.01011334 -0.00609892
v -0.06877751 -0.00023109 -0.00641804
v -0.06780930 -0.00696053 -0.00097889
v -0.06477578 -0.00157049 0.00265961
v -0.04853091 0.00624808 0.00479861
v -0.06000079 0.02050875 0.00303384
v -0.05934650 0.02483747 -0.00829432
v -0.06441889 0.01696792 -0.00829432
v -0.05818663 0.03088099 -0.00134030
v -0.06472621 -0.00763718 -0.00829176
v -0.05899953 -0.00877730 0.00302871
v -0.04882170 -0.00544502 0.00412705
v -0.03872319 -0.00049990 0.00479861
v -0.03750714 0.02796119 0.00350291
v -0.04458535 0.02880005 0.00356442
v -0.05374540 0.02522678 0.00339653
v -0.04720581 0.03472771 0.00173044
v -0.05398332 0.02990772 -0.00829432
v -0.04787662 -0.00710884 -0.00829432
v -0.04388811 0.03856052 -0.00305125
v -0.04878205 0.03525605 -0.00666924
v -0.04229534 -0.00877730 -0.00750741
v -0.03951296 -0.00877730 -0.00088918
v -0.03672397 0.00991869 0.00210210
v -0.03672397 0.01966526 0.00341832
v -0.03804907 0.03704038 0.00175607
v -0.03756331 0.03843076 -0.00655390
v -0.03672397 0.01878468 -0.00778681
f 1 2 3
f 1 3 4
f 1 4 5
f 1 5 6
f 1 6 7
f 1 7 8
f 1 8 2
f 2 9 3
f 2 8 9
f 3 9 10
f 3 10 4
f 4 11 12
f 4 12 5
f 4 10 13
f 4 13 11
f 5 12 6
f 6 12 14
f 6 14 7
f 7 14 15
f 7 15 8
f 8 15 9
f 9 15 16
f 9 16 17
f 9 17 18
f 9 18 19
f 9 19 20
f 9 20 10
f 10 20 21
f 10 21 13
f 11 13 22
f 11 22 23
f 11 23 12
f 12 23 14
f 13 21 24
f 13 24 25
f 13 25 22
f 14 23 26
f 14 26 15
f 15 26 27
f 15 27 16
f 16 27 17
f 17 28 29
f 17 29 18
f 17 27 28
f 18 29 30
f 18 30 19
f 19 30 21
f 19 21 20
f 21 30 24
f 22 25 31
f 22 31 32
f 22 32 23
f 23 32 26
f 24 31 25
f 24 30 31
f 26 32 27
f 27 32 28
f 28 32 29
f 29 32 31
f 29 31 30

