# https://github.com/mikedh/trimesh
v -0.04571363 -0.00166066 0.00479862
v -0.04471866 -0.00166066 0.00630512
v -0.04918421 -0.00166066 0.00510906
v -0.04648283 0.00950708 0.00523285
v -0.04005227 0.01111136 0.00884961
v -0.03826447 0.01029444 0.01107603
v -0.04101967 -0.00166066 0.02425557
v -0.04920522 0.00589705 0.00716217
v -0.04831394 0.00800083 0.00553949
v -0.04783221 0.00589705 0.01300726
v -0.04701313 0.01030378 0.00778877
v -0.04496806 0.01138989 0.00710122
v -0.03993413 0.01328205 0.01035611
v -0.03828678 0.01227684 0.01113508
v -0.03579804 0.01061810 0.02425557
v -0.03674707 0.01284946 0.02425557
v -0.04566375 0.00817666 0.01672305
v -0.04673354 0.00652414 0.01557269
v -0.04832576 0.00787790 0.00855821
v -0.04670466 0.00847853 0.01343388
v -0.04683855 0.01007815 0.00967999
v -0.04413848 0.01299262 0.01203403
v -0.04208422 0.01423123 0.01245493
v -0.04177312 0.01340030 0.01002472
v -0.03950490 0.01381577 0.01228543
v -0.04050381 0.01423590 0.01568125
v -0.04328658 0.01338474 0.01451566
v -0.04287573 0.01250091 0.01694778
v -0.04551148 0.00971715 0.01503370
v -0.04654452 0.00956777 0.01203403
v -0.04536184 0.01112070 0.01319771
f 1 2 7
f 1 7 3
f 1 3 4
f 1 4 5
f 1 5 6
f 1 6 2
f 2 6 7
f 3 8 9
f 3 9 4
f 3 7 10
f 3 10 8
f 4 9 11
f 4 11 12
f 4 12 13
f 4 13 5
f 5 13 14
f 5 14 6
f 6 14 15
f 6 15 7
f 7 15 16
f 7 16 17
f 7 17 18
f 7 18 10
f 8 10 19
f 8 19 9
f 9 19 11
f 10 18 20
f 10 20 19
f 11 19 21
f 11 21 22
f 11 22 12
f 12 22 23
f 12 23 24
f 12 24 13
f 13 24 23
f 13 23 25
f 13 25 14
f 14 25 16
f 14 16 15
f 16 25 26
f 16 26 27
f 16 27 28
f 16 28 17
f 17 29 20
f 17 20 18
f 17 28 29
f 19 20 30
f 19 30 21
f 20 31 30
f 20 29 31
f 21 30 31
f 21 31 22
f 22 31 27
f 22 27 23
f 23 27 26
f 23 26 25
f 27 31 28
f 28 31 29

