# https://github.com/mikedh/trimesh
v -0.03949509 -0.00879116 -0.00088938
v -0.04227390 -0.00879116 -0.00750680
v -0.04667278 -0.00879116 0.00271332
v 0.04273190 -0.01155274 -0.00491753
v -0.06328126 -0.00879116 -0.00936749
v 0.01283020 -0.01501048 -0.01385580
v -0.05431183 -0.00879116 0.00322643
v 0.04273190 -0.01245017 0.00479861
v 0.04273190 -0.01862989 -0.01385580
v 0.02844088 -0.01654139 -0.01385580
v -0.06157535 -0.01635002 -0.00936749
v -0.06687547 -0.01214002 -0.00322666
v -0.06236930 -0.00933226 0.00259463
v 0.00189736 -0.01668326 -0.01385580
v 0.00199392 -0.03595820 -0.01385580
v -0.04075038 -0.01342678 0.00479861
v 0.04273190 -0.01865629 0.00479861
v 0.04273190 -0.03947864 -0.01385580
v -0.05526670 -0.02698061 -0.00574471
v -0.05181197 -0.02565756 -0.00936749
v -0.06212253 -0.01601349 0.00115757
v -0.04767058 -0.03432831 0.00014597
v -0.05564222 -0.02366474 0.00161042
v -0.04742381 -0.02760419 0.00216552
v -0.03857240 -0.03413035 -0.00936749
v 0.02758256 -0.04035957 -0.01385580
v 0.02389179 -0.04249756 -0.00275190
v 0.03347278 -0.04128009 -0.00554933
v -0.04014956 -0.03834365 -0.00055157
v 0.02368794 -0.04236559 -0.00535212
v -0.03272510 -0.04002963 -0.00275920
f 1 2 5
f 1 5 7
f 1 7 3
f 1 3 4
f 1 4 2
f 2 4 6
f 2 6 5
f 3 7 8
f 3 8 4
f 4 9 10
f 4 10 6
f 4 8 17
f 4 17 18
f 4 18 9
f 5 11 12
f 5 12 13
f 5 13 7
f 5 6 14
f 5 14 15
f 5 15 11
f 6 10 9
f 6 9 18
f 6 18 26
f 6 26 15
f 6 15 14
f 7 13 16
f 7 16 8
f 8 16 17
f 11 19 12
f 11 15 20
f 11 20 19
f 12 21 13
f 12 19 22
f 12 22 21
f 13 21 23
f 13 23 24
f 13 24 16
f 15 25 20
f 15 26 25
f 16 24 17
f 17 27 28
f 17 28 18
f 17 24 29
f 17 29 27
f 18 28 30
f 18 30 26
f 19 20 25
f 19 25 29
f 19 29 22
f 21 22 23
f 22 29 24
f 22 24 23
f 25 26 31
f 25 31 29
f 26 30 31
f 27 29 31
f 27 31 30
f 27 30 28

