# https://github.com/mikedh/trimesh
v 0.02290820 -0.00333240 0.03176533
v 0.02275503 -0.01281496 0.02120935
v 0.02398557 -0.01439934 0.02753397
v 0.02639733 -0.00783449 0.03037160
v 0.02960608 0.00103739 0.03127964
v 0.02351568 0.00561412 0.03143010
v 0.02275503 0.01010265 0.02686085
v 0.03293166 -0.01556982 0.00479862
v 0.03622609 -0.01807702 0.00854957
v 0.03229562 -0.01107790 0.02676582
v 0.03159468 -0.01591927 0.02234704
v 0.03253965 -0.00586673 0.02917847
v 0.03634550 0.00525450 0.02906233
v 0.03519544 -0.00162248 0.02891187
v 0.03098460 0.01165311 0.02855815
v 0.04211399 0.01649786 0.01433305
v 0.04475161 0.01658268 0.00781838
v 0.03584706 0.00211626 0.00479862
v 0.04873140 0.01266413 0.00543741
v 0.04557716 -0.00837393 0.00593367
v 0.03621570 -0.01588195 0.01750064
v 0.04465296 -0.00836375 0.01111795
v 0.04190631 -0.00903550 0.01767485
v 0.03847170 -0.00595834 0.02460131
v 0.04055894 0.00497630 0.02629597
v 0.03794988 0.01260306 0.02523219
v 0.04667790 0.01342070 0.01266479
v 0.04296291 0.01147669 0.02167921
v 0.04855747 0.00772437 0.01197320
v 0.04927658 0.00154629 0.00685227
v 0.04455950 -0.00412628 0.01673514
v 0.04607821 0.00540717 0.01904484
f 1 2 3
f 1 3 4
f 1 4 5
f 1 5 6
f 1 6 7
f 1 7 2
f 2 8 9
f 2 9 3
f 2 7 8
f 3 10 4
f 3 9 11
f 3 11 10
f 4 12 5
f 4 10 12
f 5 13 6
f 5 12 14
f 5 14 13
f 6 13 15
f 6 15 7
f 7 15 16
f 7 16 17
f 7 17 18
f 7 18 8
f 8 18 19
f 8 19 20
f 8 20 9
f 9 21 11
f 9 20 22
f 9 22 21
f 10 11 21
f 10 21 23
f 10 23 24
f 10 24 12
f 12 24 14
f 13 14 25
f 13 25 26
f 13 26 15
f 14 24 25
f 15 26 16
f 16 27 17
f 16 26 28
f 16 28 27
f 17 27 19
f 17 19 18
f 19 27 29
f 19 29 30
f 19 30 20
f 20 30 22
f 21 22 23
f 22 30 31
f 22 31 23
f 23 31 24
f 24 31 32
f 24 32 25
f 25 32 28
f 25 28 26
f 27 28 32
f 27 32 29
f 29 32 30
f 30 32 31

