# https://github.com/mikedh/trimesh
v 0.00483508 -0.00749129 -0.00134202
v 0.00501951 -0.00780730 -0.00134202
v 0.00509223 -0.00776043 -0.00165065
v 0.00538435 -0.00787277 -0.00134202
v 0.00495000 -0.00535276 -0.01018555
v 0.00485276 -0.00517576 -0.01018555
v 0.00472257 -0.00547399 -0.00639006
v 0.00472257 -0.00547399 -0.00588471
v 0.00474548 -0.00496966 -0.01018555
v 0.00473302 -0.00472881 -0.01018555
v 0.00472257 -0.00446534 -0.01018555
v 0.00538395 -0.00547965 -0.01018555
v 0.00562382 -0.00547560 -0.01018555
v 0.00565838 -0.00547480 -0.01018555
v 0.00472981 -0.00597670 -0.00537937
v 0.00493352 -0.00792369 -0.00033856
v 0.00495281 -0.00787438 -0.00084390
v 0.00492830 -0.00796086 0.00016498
v 0.00492830 -0.00796571 0.00067033
v 0.00492846 -0.00795912 0.00087498
v 0.00478726 -0.00749129 -0.00084390
v 0.00477320 -0.00749129 -0.00033856
v 0.00498237 -0.00799254 0.00067033
v 0.00509435 -0.00804502 0.00034898
v 0.00516436 -0.00807507 0.00016498
v 0.00490971 -0.00790205 0.00122444
v 0.00489510 -0.00781472 0.00167741
v 0.00490391 -0.00785119 0.00153583
v 0.00489028 -0.00778754 0.00178295
v 0.00488769 -0.00777176 0.00184422
v 0.00489778 -0.00768455 0.00218275
v 0.00474548 -0.00749129 0.00167741
v 0.00477200 -0.00749129 0.00203837
v 0.00478325 -0.00749129 0.00218275
v 0.00490965 -0.00761612 0.00244840
v 0.00489460 -0.00743862 0.00290525
v 0.00489877 -0.00732734 0.00319164
v 0.00490710 -0.00727127 0.00333595
v 0.00490865 -0.00724183 0.00339940
v 0.00500000 -0.00724183 0.00339940
v 0.00474789 -0.00698616 0.00319164
v 0.00524324 -0.00810081 0.00000738
v 0.00528702 -0.00811223 -0.00006257
v 0.00538435 -0.00800693 -0.00084390
v 0.00538435 -0.00810877 -0.00033856
v 0.00538435 -0.00813155 -0.00018086
v 0.00565878 -0.00800936 -0.00084390
v 0.00565878 -0.00806674 -0.00056957
v 0.00490867 -0.00715166 0.00357316
v 0.00489535 -0.00703384 0.00374210
v 0.00491091 -0.00707389 0.00372304
v 0.00491437 -0.00699464 0.00387575
v 0.00491741 -0.00694879 0.00396412
v 0.00491057 -0.00679428 0.00420141
v 0.00476195 -0.00648506 0.00419871
v 0.00476155 -0.00648183 0.00420232
v 0.00490068 -0.00650084 0.00465204
v 0.00490067 -0.00650048 0.00465259
v 0.00490571 -0.00643600 0.00475162
v 0.00490671 -0.00624913 0.00499228
v 0.00490802 -0.00619781 0.00505837
v 0.00490802 -0.00619748 0.00505879
v 0.00500000 -0.00619748 0.00505879
v 0.00475994 -0.00597670 0.00470586
v 0.00489615 -0.00601711 0.00525091
v 0.00490259 -0.00603686 0.00524241
v 0.00490388 -0.00600694 0.00527661
v 0.00491711 -0.00583864 0.00546902
v 0.00489656 -0.00550955 0.00575084
v 0.00491481 -0.00557245 0.00572609
v 0.00491474 -0.00548522 0.00581033
v 0.00489966 -0.00507099 0.00618008
v 0.00491485 -0.00526231 0.00602561
v 0.00489632 -0.00498451 0.00624990
v 0.00489642 -0.00496354 0.00626683
v 0.00490574 -0.00478087 0.00641432
v 0.00475592 -0.00446534 0.00621829
v 0.00489942 -0.00430533 0.00673007
v 0.00490817 -0.00451456 0.00660446
v 0.00500000 -0.00478087 0.00641432
v 0.00613639 -0.00813634 -0.00021020
v 0.00621532 -0.00813669 -0.00021235
v 0.00622851 -0.00813671 -0.00021249
v 0.00639368 -0.00801340 -0.00084390
v 0.00639368 -0.00812089 -0.00033856
v 0.00635348 -0.00813623 -0.00021914
v 0.00639377 -0.00813511 -0.00022880
v 0.00646114 -0.00813232 -0.00023859
v 0.00648220 -0.00813096 -0.00024539
v 0.00658750 -0.00812328 -0.00028642
v 0.00472257 -0.00014382 -0.01018555
v 0.00472257 -0.00014382 -0.00790248
v 0.00565838 -0.00014382 -0.01018555
v 0.00478968 -0.00396182 0.00672363
v 0.00489926 -0.00354070 0.00716725
v 0.00490855 -0.00370668 0.00708946
v 0.00489310 -0.00337164 0.00724648
v 0.00489043 -0.00307709 0.00738453
v 0.00488805 -0.00301861 0.00740864
v 0.00500000 -0.00307709 0.00738453
v 0.00476878 -0.00295398 0.00722717
v 0.00488275 -0.00295398 0.00743053
v 0.00474708 -0.00244884 0.00722717
v 0.00489925 -0.00230182 0.00765133
v 0.00490799 -0.00210301 0.00771865
v 0.00480293 -0.00143938 0.00773252
v 0.00488307 -0.00143938 0.00785839
v 0.00488238 -0.00118734 0.00791140
v 0.00488243 -0.00118849 0.00791123
v 0.00488224 -0.00116293 0.00791501
v 0.00500000 -0.00118849 0.00791123
v 0.00475753 -0.00093587 0.00773252
v 0.00487521 -0.00093587 0.00793854
v 0.00488926 -0.00060319 0.00797301
v 0.00489460 -0.00048440 0.00798532
v 0.00474949 0.00005258 0.00773252
v 0.00475713 0.00005258 0.00771266
v 0.00489152 -0.00026043 0.00798534
v 0.00492790 0.00005258 0.00727229
v 0.00488899 0.00005258 0.00798537
v 0.00572307 0.00005177 -0.00033856
v 0.00568128 0.00005258 0.00650345
v 0.00568128 0.00005258 0.00798537
v 0.00579732 0.00005255 0.00798537
v 0.00638692 0.00005238 0.00798537
v 0.00640145 0.00005238 0.00798537
v 0.00719408 -0.00776043 -0.00165065
v 0.00722101 -0.00783381 -0.00127209
v 0.00732789 -0.00770140 -0.00170323
v 0.00725414 -0.00779867 -0.00139828
v 0.00725817 -0.00779422 -0.00141447
v 0.00727335 -0.00777740 -0.00146308
v 0.00728553 -0.00776156 -0.00151194
v 0.00731486 -0.00772099 -0.00163983
v 0.00731869 -0.00771560 -0.00165690
v 0.00736209 -0.00764793 -0.00187835
v 0.00736977 -0.00763570 -0.00191858
v 0.00745497 -0.00749608 -0.00238177
v 0.00748915 -0.00743651 -0.00258259
v 0.00750084 -0.00741613 -0.00264936
v 0.00757065 -0.00728342 -0.00309169
v 0.00740992 -0.00757091 -0.00213263
v 0.00739712 -0.00759177 -0.00206352
v 0.00740021 -0.00545621 -0.01018375
v 0.00790656 -0.00650452 -0.00564373
v 0.00793834 -0.00640410 -0.00598471
v 0.00799108 -0.00623323 -0.00657098
v 0.00782666 -0.00673140 -0.00489978
v 0.00781782 -0.00675498 -0.00482378
v 0.00770508 -0.00701891 -0.00397622
v 0.00768890 -0.00705165 -0.00386854
v 0.00769934 -0.00703119 -0.00393537
v 0.00771340 -0.00699951 -0.00404184
v 0.00776953 -0.00686833 -0.00448044
v 0.00774997 -0.00691425 -0.00432680
v 0.00786187 -0.00663625 -0.00520808
v 0.00787121 -0.00661045 -0.00529242
v 0.00788341 -0.00657678 -0.00539968
v 0.00788572 -0.00657016 -0.00542117
v 0.00788538 -0.00657113 -0.00541800
v 0.00788551 -0.00657079 -0.00345809
v 0.00781943 -0.00675083 -0.00292445
v 0.00764008 -0.00542550 -0.01018375
v 0.00790487 -0.00539074 -0.01018375
v 0.00804912 -0.00533982 -0.01018375
v 0.00812934 -0.00570942 -0.00847562
v 0.00818441 -0.00542130 -0.00961935
v 0.00819008 -0.00537932 -0.00979675
v 0.00819224 -0.00536341 -0.00986238
v 0.00820382 -0.00527462 -0.01018376
v 0.00820322 -0.00527916 -0.01018375
v 0.00819832 -0.00531885 -0.01003196
v 0.00821142 -0.00521762 -0.01018378
v 0.00808962 -0.00588578 -0.00780308
v 0.00807316 -0.00594573 -0.00758794
v 0.00823569 -0.00499834 -0.01018386
v 0.00828478 -0.00455485 -0.01018391
v 0.00833652 -0.00408744 -0.01018390
v 0.00663887 -0.00811907 -0.00030999
v 0.00667475 -0.00811455 -0.00033856
v 0.00671415 -0.00810882 -0.00036241
v 0.00681143 -0.00809406 -0.00042432
v 0.00681211 -0.00809391 -0.00042495
v 0.00685750 -0.00808165 -0.00048027
v 0.00689594 -0.00806717 -0.00054732
v 0.00689698 -0.00806669 -0.00054832
v 0.00689594 -0.00800693 -0.00084390
v 0.00687883 -0.00807419 -0.00051466
v 0.00701324 -0.00800971 -0.00067716
v 0.00703524 -0.00799785 -0.00070684
v 0.00705101 -0.00798928 -0.00072630
v 0.00710839 -0.00794893 -0.00084701
v 0.00706523 -0.00791007 0.00083970
v 0.00695225 -0.00785119 0.00153583
v 0.00707768 -0.00783817 0.00151789
v 0.00708275 -0.00761612 0.00244840
v 0.00712518 -0.00793451 -0.00089661
v 0.00711615 -0.00794243 -0.00086905
v 0.00716243 -0.00789584 -0.00104312
v 0.00716510 -0.00789306 -0.00105331
v 0.00720998 -0.00783201 0.00083032
v 0.00733108 -0.00769626 0.00015058
v 0.00732139 -0.00771114 0.00081980
v 0.00745449 -0.00749689 -0.00075478
v 0.00740310 -0.00758226 -0.00047208
v 0.00719499 -0.00779414 0.00149485
v 0.00729652 -0.00772196 0.00146826
v 0.00721525 -0.00760552 0.00242125
v 0.00733799 -0.00756065 0.00238484
v 0.00724768 -0.00727127 0.00333595
v 0.00737572 -0.00762632 0.00143983
v 0.00751946 -0.00738360 0.00229540
v 0.00744194 -0.00748482 0.00234183
v 0.00739015 -0.00726322 0.00330188
v 0.00752035 -0.00721673 0.00325283
v 0.00737425 -0.00694879 0.00396412
v 0.00752692 -0.00694127 0.00392743
v 0.00752759 -0.00643600 0.00475162
v 0.00758279 -0.00619781 0.00505837
v 0.00762707 -0.00713582 0.00319295
v 0.00770115 -0.00702744 0.00312745
v 0.00766451 -0.00689157 0.00386986
v 0.00777340 -0.00680459 0.00379711
v 0.00769240 -0.00642850 0.00471350
v 0.00784283 -0.00668892 0.00371637
v 0.00788224 -0.00658012 0.00388631
v 0.00794860 -0.00628373 0.00455599
v 0.00801059 -0.00616306 0.00445464
v 0.00783831 -0.00637572 0.00464570
v 0.00819999 -0.00550000 -0.00000001
v 0.00765059 -0.00583864 0.00546902
v 0.00782583 -0.00582964 0.00543153
v 0.00797849 -0.00577481 0.00535487
v 0.00772901 -0.00526231 0.00602561
v 0.00791076 -0.00525173 0.00598910
v 0.00806743 -0.00519725 0.00590565
v 0.00777342 -0.00478107 0.00641414
v 0.00779091 -0.00451456 0.00660446
v 0.00797804 -0.00450176 0.00656905
v 0.00808894 -0.00568121 0.00524887
v 0.00814294 -0.00556090 0.00512721
v 0.00820014 -0.00519326 0.00547489
v 0.00817745 -0.00510640 0.00578683
v 0.00822561 -0.00499168 0.00564902
v 0.00813792 -0.00444969 0.00647866
v 0.00824720 -0.00436596 0.00634646
v 0.00828998 -0.00426276 0.00619166
v 0.00834358 -0.00402361 -0.01018389
v 0.00837993 -0.00360584 -0.01018388
v 0.00839139 -0.00347410 -0.01018388
v 0.00839538 -0.00335093 -0.01018387
v 0.00839818 -0.00326458 -0.01018387
v 0.00840229 -0.00312341 -0.01018387
v 0.00840759 -0.00294096 -0.01018387
v 0.00841453 -0.00264077 -0.01018386
v 0.00841475 -0.00263149 -0.01018386
v 0.00843607 -0.00122436 -0.01018385
v 0.00843963 -0.00093390 -0.01018385
v 0.00844176 -0.00076094 -0.01018385
v 0.00844726 -0.00014382 -0.01018384
v 0.00845854 -0.00012770 -0.00937257
v 0.00847695 -0.00010113 -0.00803492
v 0.00854999 -0.00193401 -0.00133494
v 0.00854999 -0.00109210 -0.00208083
v 0.00854887 0.00001002 -0.00244026
v 0.00854999 0.00000000 -0.00235001
v 0.00854999 0.00001187 -0.00234708
v 0.00705462 0.00005218 0.00798537
v 0.00854999 -0.00233287 -0.00028325
v 0.00854999 -0.00219729 0.00083333
v 0.00781970 -0.00370668 0.00708946
v 0.00782529 -0.00301861 0.00740864
v 0.00801000 -0.00369208 0.00705462
v 0.00782459 -0.00210301 0.00771865
v 0.00801658 -0.00300444 0.00737333
v 0.00801595 -0.00209290 0.00768193
v 0.00828031 -0.00357194 0.00681504
v 0.00817165 -0.00364479 0.00695833
v 0.00831961 -0.00348450 0.00664636
v 0.00817878 -0.00296371 0.00727295
v 0.00828717 -0.00290263 0.00712275
v 0.00817816 -0.00206431 0.00757735
v 0.00828654 -0.00202160 0.00742086
v 0.00832528 -0.00283049 0.00694560
v 0.00854999 -0.00155834 0.00175899
v 0.00854999 0.00003769 -0.00104765
v 0.00854999 0.00005177 -0.00033856
v 0.00854999 0.00005183 0.00015779
v 0.00854999 -0.00056239 0.00228172
v 0.00854999 0.00005184 0.00118202
v 0.00854999 0.00005184 0.00210128
v 0.00854999 0.00005184 0.00225266
v 0.00854999 0.00005184 0.00228172
v 0.00782447 -0.00116293 0.00791501
v 0.00801580 -0.00115744 0.00787737
v 0.00782472 -0.00048440 0.00798532
v 0.00782499 0.00005193 0.00798537
v 0.00801605 -0.00048220 0.00794732
v 0.00793136 0.00005190 0.00796426
v 0.00801633 0.00005188 0.00794739
v 0.00817802 -0.00114172 0.00777011
v 0.00828641 -0.00111817 0.00760963
v 0.00832458 -0.00197128 0.00723624
v 0.00832446 -0.00109036 0.00742032
v 0.00841393 0.00005184 0.00543215
v 0.00817827 -0.00047572 0.00783914
v 0.00828666 -0.00046596 0.00767722
v 0.00810695 0.00005186 0.00788695
v 0.00817854 0.00005185 0.00783920
v 0.00821771 0.00005185 0.00778070
v 0.00823940 0.00005184 0.00774829
v 0.00828693 0.00005183 0.00767729
v 0.00830840 0.00005184 0.00756959
v 0.00832472 -0.00045439 0.00748625
v 0.00833223 0.00005184 0.00731915
v 0.00833142 0.00005184 0.00733774
v 0.00832499 0.00005184 0.00748630
f 6 5 17
f 3 5 12
f 3 44 2
f 1 21 9
f 1 9 17
f 9 21 15
f 7 32 8
f 2 17 5
f 3 2 5
f 15 21 22
f 15 22 32
f 7 15 32
f 4 12 47
f 3 4 44
f 3 12 4
f 6 9 5
f 9 15 10
f 5 9 12
f 6 17 9
f 7 8 11
f 7 11 15
f 9 10 11
f 10 15 11
f 9 13 12
f 9 14 13
f 12 144 84
f 12 84 47
f 12 13 144
f 13 14 144
f 18 22 21
f 17 16 21
f 18 21 16
f 18 32 22
f 19 23 20
f 19 20 26
f 18 19 32
f 1 17 21
f 17 43 16
f 18 16 42
f 2 45 17
f 16 43 42
f 18 24 19
f 19 24 23
f 18 25 24
f 18 42 25
f 19 26 32
f 32 26 28
f 32 28 27
f 32 27 29
f 33 29 30
f 34 30 31
f 32 29 33
f 33 30 34
f 32 33 41
f 34 31 35
f 33 34 41
f 34 36 41
f 34 35 36
f 41 36 37
f 41 37 38
f 41 38 39
f 41 39 49
f 8 32 41
f 2 44 45
f 17 45 43
f 45 46 43
f 44 48 45
f 4 47 44
f 44 47 48
f 45 81 46
f 41 55 56
f 41 50 55
f 41 49 50
f 50 49 51
f 50 51 52
f 50 52 55
f 55 52 53
f 55 53 54
f 41 56 64
f 55 57 56
f 55 54 57
f 56 57 58
f 56 58 59
f 56 59 60
f 56 60 65
f 65 60 61
f 66 61 62
f 8 41 103
f 41 64 77
f 56 77 64
f 56 65 77
f 65 66 67
f 65 67 69
f 65 61 66
f 69 67 68
f 69 68 70
f 65 69 77
f 69 70 71
f 69 71 73
f 69 73 72
f 41 77 103
f 69 72 77
f 77 72 74
f 77 74 75
f 75 79 78
f 75 76 79
f 77 75 94
f 94 75 78
f 47 85 48
f 45 48 85
f 45 85 81
f 47 84 85
f 85 82 81
f 82 86 83
f 85 86 82
f 85 87 86
f 85 88 87
f 85 89 88
f 85 90 89
f 84 187 85
f 85 179 90
f 85 180 179
f 9 11 91
f 8 91 11
f 9 93 14
f 8 92 91
f 9 91 93
f 8 116 92
f 91 92 116
f 14 93 259
f 91 286 93
f 91 121 286
f 8 103 116
f 77 94 101
f 94 78 96
f 94 96 95
f 77 101 103
f 94 95 101
f 101 95 97
f 101 97 98
f 101 98 99
f 101 99 102
f 101 102 104
f 101 112 103
f 101 104 106
f 91 116 121
f 101 106 112
f 106 104 105
f 106 105 107
f 103 112 116
f 106 108 112
f 112 108 110
f 112 110 113
f 106 107 108
f 107 109 108
f 121 116 117
f 121 117 119
f 112 113 114
f 112 114 118
f 112 118 116
f 116 119 117
f 118 114 115
f 116 118 120
f 116 122 119
f 116 120 123
f 121 119 122
f 116 123 122
f 122 123 124
f 127 144 163
f 127 163 164
f 84 144 187
f 127 131 187
f 187 131 128
f 127 129 135
f 127 136 129
f 127 137 136
f 127 133 132
f 127 132 131
f 131 130 128
f 127 134 133
f 127 135 134
f 127 139 137
f 139 138 143
f 139 143 137
f 142 143 138
f 127 187 144
f 127 164 139
f 14 163 144
f 14 164 163
f 14 165 164
f 14 170 165
f 14 176 170
f 14 177 176
f 14 178 177
f 14 249 178
f 14 251 249
f 164 150 152
f 164 152 151
f 164 151 141
f 164 153 150
f 157 156 169
f 174 147 146
f 169 154 155
f 165 155 153
f 169 148 149
f 169 149 154
f 169 156 148
f 159 166 145
f 160 158 166
f 159 160 166
f 157 166 158
f 145 166 146
f 164 140 139
f 164 141 140
f 164 165 153
f 165 172 155
f 169 155 172
f 174 146 166
f 157 167 166
f 174 175 147
f 168 167 157
f 168 157 169
f 165 171 172
f 165 170 171
f 170 176 173
f 85 187 180
f 187 182 181
f 187 183 182
f 187 184 183
f 187 181 180
f 187 188 184
f 187 185 188
f 187 189 185
f 185 189 186
f 187 190 189
f 187 199 190
f 187 200 199
f 190 197 198
f 187 128 200
f 190 199 197
f 190 198 191
f 191 198 192
f 14 253 251
f 14 255 253
f 14 258 255
f 14 259 258
f 93 260 259
f 93 261 260
f 93 262 261
f 93 265 262
f 93 286 265
f 178 249 248
f 249 251 250
f 251 253 252
f 253 255 254
f 255 257 256
f 255 258 257
f 286 267 265
f 121 122 288
f 122 124 292
f 124 125 305
f 125 126 315
f 124 305 292
f 126 268 316
f 121 287 286
f 121 288 287
f 122 290 288
f 122 291 290
f 292 305 293
f 122 292 291
f 125 315 305
f 268 297 299
f 315 126 316
f 268 299 300
f 268 300 308
f 268 308 309
f 268 309 310
f 268 310 311
f 268 311 312
f 268 312 313
f 316 268 317
f 268 313 317
f 194 23 24
f 194 20 23
f 194 26 20
f 194 28 26
f 194 27 28
f 194 29 27
f 194 30 29
f 194 31 30
f 196 35 31
f 196 36 35
f 40 49 39
f 63 66 62
f 80 76 75
f 80 79 76
f 194 25 42
f 194 24 25
f 194 42 43
f 194 43 46
f 194 46 81
f 210 37 36
f 210 38 37
f 210 39 38
f 40 39 210
f 87 88 86
f 194 81 82
f 194 82 83
f 194 83 86
f 194 86 88
f 194 88 89
f 194 196 31
f 196 210 36
f 40 216 49
f 216 51 49
f 216 52 51
f 216 53 52
f 216 54 53
f 216 57 54
f 218 58 57
f 218 59 58
f 218 60 59
f 218 61 60
f 219 62 61
f 63 62 219
f 40 210 216
f 216 218 57
f 63 231 66
f 231 67 66
f 231 68 67
f 231 70 68
f 231 71 70
f 231 73 71
f 234 72 73
f 234 74 72
f 234 75 74
f 234 80 75
f 80 238 79
f 238 78 79
f 100 98 97
f 100 99 98
f 102 99 104
f 111 109 107
f 111 108 109
f 111 110 108
f 118 115 123
f 118 123 120
f 123 115 124
f 271 96 78
f 271 95 96
f 271 97 95
f 100 97 271
f 100 272 99
f 272 104 99
f 274 105 104
f 274 107 105
f 111 107 274
f 111 294 110
f 294 113 110
f 294 114 113
f 296 115 114
f 296 124 115
f 131 132 130
f 202 129 136
f 204 142 138
f 204 138 139
f 205 143 142
f 205 137 143
f 205 142 204
f 204 139 140
f 212 140 141
f 212 141 151
f 153 155 150
f 162 154 149
f 162 149 148
f 162 155 154
f 161 160 159
f 161 158 160
f 161 159 145
f 161 145 146
f 221 151 152
f 221 152 150
f 221 150 155
f 162 221 155
f 162 148 225
f 225 156 157
f 225 148 156
f 226 157 158
f 228 146 147
f 161 146 226
f 161 226 158
f 170 172 171
f 230 170 173
f 230 173 176
f 230 166 167
f 230 169 172
f 230 168 169
f 230 172 170
f 230 167 168
f 230 176 177
f 230 177 178
f 230 178 248
f 230 147 175
f 230 175 174
f 230 174 166
f 180 181 179
f 193 181 182
f 194 89 90
f 195 90 179
f 195 179 181
f 194 90 195
f 185 186 188
f 193 182 183
f 193 183 184
f 193 184 188
f 193 188 186
f 190 191 189
f 201 186 189
f 201 189 191
f 193 195 181
f 193 186 201
f 193 206 195
f 194 195 208
f 194 208 196
f 199 200 197
f 201 192 198
f 201 198 197
f 201 197 200
f 201 191 192
f 203 130 132
f 203 128 130
f 203 132 133
f 203 134 135
f 202 135 129
f 203 133 134
f 203 200 128
f 202 203 135
f 201 200 203
f 193 201 206
f 201 203 207
f 202 211 203
f 211 136 137
f 202 136 211
f 205 211 137
f 204 140 212
f 205 204 211
f 204 212 211
f 201 207 206
f 195 206 208
f 203 211 207
f 206 207 209
f 206 209 208
f 196 208 214
f 208 209 214
f 196 214 210
f 207 211 213
f 207 213 209
f 211 212 213
f 209 213 215
f 209 215 214
f 213 212 220
f 213 220 215
f 218 219 61
f 210 214 217
f 214 215 217
f 210 217 216
f 215 222 217
f 216 217 224
f 216 224 218
f 63 219 231
f 231 234 73
f 234 237 80
f 80 237 238
f 238 271 78
f 212 151 221
f 212 221 220
f 225 157 226
f 226 146 228
f 162 225 221
f 215 220 222
f 220 221 223
f 220 223 222
f 217 222 224
f 221 225 223
f 222 223 229
f 222 229 224
f 218 224 219
f 224 232 219
f 224 229 232
f 223 225 226
f 223 226 227
f 223 227 229
f 226 228 227
f 229 227 233
f 230 228 147
f 230 241 228
f 230 269 244
f 219 232 231
f 231 232 235
f 229 233 232
f 232 233 235
f 227 240 233
f 227 228 240
f 233 240 236
f 231 235 234
f 234 235 237
f 233 236 235
f 235 239 237
f 237 239 238
f 235 236 239
f 236 245 239
f 238 239 273
f 239 245 273
f 228 241 240
f 230 242 241
f 230 244 242
f 240 243 236
f 240 241 242
f 240 242 243
f 242 244 243
f 236 243 245
f 243 246 245
f 243 244 246
f 246 278 245
f 244 247 246
f 246 247 277
f 249 269 248
f 269 249 250
f 263 250 251
f 263 251 252
f 253 263 252
f 263 253 254
f 255 263 254
f 263 255 256
f 230 248 269
f 269 250 263
f 263 256 257
f 264 257 258
f 260 261 259
f 264 258 259
f 264 259 261
f 264 261 262
f 264 263 257
f 264 266 270
f 264 262 265
f 270 266 267
f 264 265 266
f 266 265 267
f 100 271 272
f 272 274 104
f 111 274 294
f 294 296 114
f 296 125 124
f 296 126 125
f 296 268 126
f 296 297 268
f 269 263 270
f 247 269 270
f 279 270 285
f 238 273 271
f 271 273 272
f 273 275 272
f 273 278 275
f 272 275 274
f 275 280 276
f 275 276 274
f 244 269 247
f 247 270 279
f 245 278 273
f 246 277 278
f 247 279 277
f 275 278 280
f 278 277 280
f 277 279 281
f 277 281 280
f 279 284 281
f 279 285 284
f 280 281 282
f 284 283 281
f 280 282 276
f 281 283 282
f 284 303 283
f 264 270 263
f 270 289 285
f 270 267 286
f 270 286 287
f 270 287 288
f 270 288 290
f 270 290 289
f 289 290 291
f 289 291 292
f 289 292 293
f 289 293 305
f 274 276 295
f 274 295 294
f 276 301 295
f 294 295 296
f 295 298 296
f 295 306 298
f 296 298 299
f 296 299 297
f 298 300 299
f 298 308 300
f 284 285 289
f 284 289 303
f 303 289 304
f 276 282 301
f 282 283 302
f 282 302 301
f 283 304 302
f 283 303 304
f 289 305 314
f 295 301 306
f 301 302 307
f 301 307 306
f 302 314 307
f 298 306 308
f 306 309 308
f 306 307 311
f 314 313 307
f 306 311 309
f 310 309 311
f 307 312 311
f 307 313 312
f 304 289 314
f 304 314 302
f 314 305 315
f 314 315 316
f 314 317 313
f 314 316 317

