# https://github.com/mikedh/trimesh
v -0.00743757 -0.00470871 -0.03160433
v -0.00776290 -0.00485148 -0.02830592
v -0.00736763 -0.00652745 -0.02823464
v -0.00743598 -0.00660180 -0.02722982
v -0.00756480 -0.00581244 -0.02826670
v -0.00746504 -0.00025339 -0.03472606
v -0.00798105 -0.00267134 -0.02833531
v -0.00809733 -0.00030210 -0.02829967
v -0.00770132 -0.00261789 -0.03164861
v -0.00750713 -0.00257361 -0.03324381
v -0.00785994 -0.00028979 -0.03161005
v -0.00666212 -0.00588343 -0.03425721
v -0.00675664 -0.00531799 -0.03456233
v -0.00661479 -0.00584378 -0.03450743
v -0.00636559 -0.00636135 -0.03448097
v -0.00635221 -0.00562675 -0.03569935
v -0.00721033 -0.00637002 -0.03011033
v -0.00722225 -0.00461102 -0.03318188
v -0.00706256 -0.00623213 -0.03151248
v -0.00706947 -0.00623843 -0.03145281
v -0.00694591 -0.00612755 -0.03244684
v -0.00706873 -0.00707546 -0.02822331
v -0.00639668 -0.00729843 -0.03151945
v -0.00666394 -0.00761627 -0.02824900
v -0.00678221 -0.00677517 -0.03148631
v -0.00727039 -0.00251649 -0.03473548
v -0.00696735 -0.00449410 -0.03464410
v -0.00698819 -0.00244638 -0.03608338
v -0.00686889 -0.00019213 -0.03734610
v -0.00667245 -0.00435773 -0.03594748
v -0.00666352 -0.00236556 -0.03726736
v -0.00652087 -0.00333769 -0.03718451
v -0.00648947 -0.00015652 -0.03841893
v -0.00790919 -0.00601793 -0.02199123
v -0.00797161 -0.00493251 -0.02509109
v -0.00809845 -0.00496109 -0.02200112
v -0.00777964 -0.00594576 -0.02506313
v -0.00758974 -0.00679643 -0.02402661
v -0.00766855 -0.00693613 -0.02058366
v -0.00815930 -0.00545671 -0.01621983
v -0.00835000 -0.00460000 -0.01355002
v -0.00807392 -0.00589829 -0.01624230
v -0.00788473 -0.00657300 -0.01592437
v -0.00796807 -0.00631044 -0.01626334
v -0.00788670 -0.00656735 -0.01342086
v -0.00831754 -0.00472850 -0.00942935
v -0.00832331 -0.00468407 -0.00942935
v -0.00830432 -0.00481200 -0.00942935
v -0.00812276 -0.00530700 -0.00942935
v -0.00822327 -0.00519623 -0.00942935
v -0.00822444 -0.00519068 -0.00942935
v -0.00807233 -0.00591249 -0.01286743
v -0.00788927 -0.00655957 -0.01179575
v -0.00788663 -0.00656754 -0.01180780
v -0.00788629 -0.00656854 -0.01180926
v -0.00788421 -0.00657448 -0.01181795
v -0.00787604 -0.00659705 -0.01185019
v -0.00794053 -0.00640452 -0.01330248
v -0.00796513 -0.00632055 -0.01142623
v -0.00794133 -0.00640195 -0.01156219
v -0.00795898 -0.00634185 -0.01146217
v -0.00793118 -0.00643277 -0.01160804
v -0.00806492 -0.00594256 -0.01078898
v -0.00797815 -0.00627552 -0.01135325
v -0.00809054 -0.00582472 -0.01057590
v -0.00808101 -0.00586930 -0.01065694
v -0.00754713 -0.00733600 -0.01631585
v -0.00745836 -0.00749031 -0.01392636
v -0.00757193 -0.00728746 -0.01271642
v -0.00752624 -0.00737227 -0.01280808
v -0.00754187 -0.00734504 -0.01278079
v -0.00745807 -0.00749081 -0.01292659
v -0.00745537 -0.00749530 -0.01293084
v -0.00769616 -0.00703777 -0.01630042
v -0.00773243 -0.00695882 -0.01366446
v -0.00769716 -0.00703571 -0.01242444
v -0.00768044 -0.00707040 -0.01246312
v -0.00768317 -0.00706493 -0.01245728
v -0.00772996 -0.00696423 -0.01234046
v -0.00774106 -0.00693774 -0.01230653
v -0.00773981 -0.00542920 -0.00942935
v -0.00773048 -0.00543131 -0.00942935
v -0.00814765 -0.00268356 -0.02510951
v -0.00823920 -0.00266077 -0.02199498
v -0.00835000 -0.00439904 -0.01430003
v -0.00835000 -0.00439904 -0.01280001
v -0.00834380 -0.00437240 -0.00942935
v -0.00834503 -0.00424424 -0.00942935
v -0.00833747 -0.00452961 -0.00942935
v -0.00834578 -0.00413128 -0.00942935
v -0.00733903 -0.00744022 -0.02200351
v -0.00692097 -0.00800739 -0.02202330
v -0.00682947 -0.00784695 -0.02506516
v -0.00643137 -0.00852079 -0.02204022
v -0.00734483 -0.00767497 -0.01598117
v -0.00728134 -0.00777154 -0.01598618
v -0.00728193 -0.00777066 -0.01404516
v -0.00707295 -0.00806227 -0.01635346
v -0.00698838 -0.00816907 -0.01635895
v -0.00700520 -0.00814722 -0.01420507
v -0.00702159 -0.00812466 -0.01342994
v -0.00701570 -0.00813105 -0.01343238
v -0.00733994 -0.00768251 -0.01310075
v -0.00735741 -0.00765485 -0.01307659
v -0.00734996 -0.00766689 -0.01308745
v -0.00734718 -0.00767129 -0.01309130
v -0.00734457 -0.00767537 -0.01309479
v -0.00728402 -0.00776751 -0.01317013
v -0.00728739 -0.00776243 -0.01316603
v -0.00711639 -0.00800097 -0.01334532
v -0.00723447 -0.00783652 -0.01321721
v -0.00723855 -0.00547134 -0.00942935
v -0.00676322 -0.00840486 -0.01353626
v -0.00647214 -0.00872729 -0.01638780
v -0.00645635 -0.00874219 -0.01603625
v -0.00636376 -0.00882788 -0.01604066
v -0.00649479 -0.00869657 -0.01374425
v -0.00645928 -0.00873943 -0.01445762
v -0.00636382 -0.00882782 -0.01449541
v -0.00640346 -0.00878124 -0.01378754
v -0.00673474 -0.00547976 -0.00942935
v -0.00672201 -0.00547976 -0.00942935
v -0.00634840 -0.00535335 -0.00942935
v -0.00773185 0.00240000 -0.03416351
v -0.00738108 0.00209720 -0.03587482
v -0.00770149 0.00545777 -0.03437141
v -0.00773187 0.00547380 -0.03416339
v -0.00740426 0.00533530 -0.03602371
v -0.00811223 0.00240000 -0.03034822
v -0.00816689 0.00585580 -0.02945439
v -0.00795110 0.00561968 -0.03232238
v -0.00811224 0.00578141 -0.03034810
v -0.00749539 0.00667948 -0.03444753
v -0.00796664 0.00708350 -0.02955059
v -0.00829976 0.00613506 -0.02614585
v -0.00810176 0.00736467 -0.02624819
v -0.00774791 0.00684462 -0.03240953
v -0.00739733 0.00819175 -0.02961580
v -0.00753283 0.00847427 -0.02633009
v -0.00712630 0.00240000 -0.03714690
v -0.00701135 0.00511306 -0.03753231
v -0.00722821 0.00525255 -0.03677002
v -0.00712607 0.00518968 -0.03714774
v -0.00647199 0.00240000 -0.03892718
v -0.00673303 0.00492441 -0.03832469
v -0.00637082 0.00471594 -0.03913138
v -0.00719535 0.00655294 -0.03608517
v -0.00699090 0.00644214 -0.03693936
v -0.00692815 0.00778353 -0.03445951
v -0.00673970 0.00625592 -0.03779338
v -0.00642122 0.00600213 -0.03865121
v -0.00663249 0.00765414 -0.03606019
v -0.00672416 0.00780567 -0.03527496
v -0.00641270 0.00752020 -0.03699914
v -0.00717893 0.00795093 -0.03245024
v -0.00723946 0.00820681 -0.03075579
v -0.00725849 0.00822162 -0.03053234
v -0.00701446 0.00803166 -0.03305314
v -0.00709775 0.00841518 -0.03053269
v -0.00660547 0.00888373 -0.03053317
v -0.00651434 0.00907275 -0.02964357
v -0.00664848 0.00935556 -0.02638367
v -0.00832920 0.00240000 -0.02481405
v -0.00834620 0.00240000 -0.02367119
v -0.00837546 0.00240000 -0.01545582
v -0.00836196 0.00099288 -0.00942935
v -0.00836226 0.00188839 -0.00942935
v -0.00837545 0.00470000 -0.01585183
v -0.00836226 0.00532504 -0.00942935
v -0.00836224 0.00555254 -0.00942935
v -0.00836152 0.00572994 -0.00942935
v -0.00835995 0.00592679 -0.00942935
v -0.00836430 0.00653607 -0.02147785
v -0.00816805 0.00776707 -0.02158443
v -0.00759970 0.00887765 -0.02167848
v -0.00837522 0.00693187 -0.01693348
v -0.00837545 0.00702640 -0.01585183
v -0.00837545 0.00706101 -0.01545582
v -0.00831549 0.00800000 -0.01545582
v -0.00814995 0.00834538 -0.01596723
v -0.00835681 0.00614738 -0.00942935
v -0.00817662 0.00713188 -0.00942935
v -0.00833703 0.00784010 -0.01031020
v -0.00833791 0.00778340 -0.01027616
v -0.00833763 0.00780874 -0.01029167
v -0.00833578 0.00786788 -0.01032470
v -0.00833292 0.00790080 -0.01033822
v -0.00833427 0.00788788 -0.01033350
v -0.00833176 0.00790987 -0.01034095
v -0.00833839 0.00800000 -0.01095579
v -0.00832850 0.00792933 -0.01034477
v -0.00829690 0.00806880 -0.01035028
v -0.00826975 0.00819271 -0.01037676
v -0.00805660 0.00762909 -0.00942935
v -0.00797985 0.00787981 -0.00942935
v -0.00786987 0.00896550 -0.01602147
v -0.00817967 0.00869550 -0.01095579
v -0.00817753 0.00863566 -0.01058486
v -0.00817563 0.00864463 -0.01058899
v -0.00817329 0.00865254 -0.01059115
v -0.00817151 0.00865687 -0.01059121
v -0.00816884 0.00866222 -0.01059021
v -0.00801278 0.00895872 -0.01051684
v -0.00772709 0.00806732 -0.00942935
v -0.00761124 0.00927402 -0.01713810
v -0.00749891 0.00951566 -0.01606957
v -0.00766609 0.00967651 -0.01074957
v -0.00761152 0.00981483 -0.01095579
v -0.00761305 0.00978817 -0.01080043
v -0.00761363 0.00978745 -0.01080031
v -0.00671485 0.00975915 -0.02175078
v -0.00722582 0.00825694 -0.00942935
v -0.00721353 0.00825694 -0.00942935
v -0.00702857 0.01000846 -0.01611266
v -0.00723863 0.01016195 -0.01078755
v -0.00672201 0.00825062 -0.00942935
v -0.00670971 0.00824851 -0.00942935
v -0.00672631 0.01015557 -0.01721487
v -0.00672658 0.01025013 -0.01613382
v -0.00649572 0.01040529 -0.01614735
v -0.00677093 0.01064303 -0.01085928
v -0.00676524 0.01064895 -0.01086058
v -0.00673251 0.01068285 -0.01086870
v -0.00673375 0.01068186 -0.01086861
v -0.00672660 0.01070314 -0.01095579
v -0.00671013 0.01069389 -0.01086512
v -0.00614373 -0.00494239 -0.03692947
v -0.00600715 -0.00684251 -0.03453610
v -0.00598962 -0.00532750 -0.03695694
v -0.00557719 -0.00726989 -0.03458849
v -0.00582006 -0.00473727 -0.03780446
v -0.00555314 -0.00551653 -0.03771243
v -0.00542918 -0.00537348 -0.03805432
v -0.00533542 -0.00527729 -0.03828011
v -0.00576482 -0.00654822 -0.03583024
v -0.00582891 -0.00581775 -0.03683922
v -0.00550694 -0.00621490 -0.03694323
v -0.00593964 -0.00776791 -0.03154973
v -0.00618761 -0.00810331 -0.02827195
v -0.00542266 -0.00817781 -0.03157691
v -0.00565137 -0.00853076 -0.02829168
v -0.00630439 -0.00228019 -0.03826759
v -0.00600604 -0.00404608 -0.03798870
v -0.00588033 -0.00339119 -0.03867678
v -0.00601451 -0.00225662 -0.03891919
v -0.00634650 -0.00420532 -0.03706995
v -0.00610758 -0.00075801 -0.03913120
v -0.00589637 -0.00143367 -0.03932384
v -0.00601542 -0.00033502 -0.03935377
v -0.00588728 0.00048177 -0.03966454
v -0.00563321 -0.00403043 -0.03866784
v -0.00581941 -0.00308515 -0.03890429
v -0.00574558 -0.00245027 -0.03925005
v -0.00556241 -0.00336327 -0.03911880
v -0.00546355 -0.00377562 -0.03902707
v -0.00539889 -0.00395443 -0.03899983
v -0.00543873 -0.00387401 -0.03900073
v -0.00553882 -0.00103300 -0.03988866
v -0.00533911 -0.00174910 -0.03995601
v -0.00508731 -0.00763769 -0.03463767
v -0.00487795 -0.00726996 -0.03597359
v -0.00525536 -0.00585576 -0.03785143
v -0.00506189 -0.00553887 -0.03847114
v -0.00432043 -0.00719180 -0.03673309
v -0.00432043 -0.00750744 -0.03604047
v -0.00432043 -0.00800527 -0.03469811
v -0.00432043 -0.00834487 -0.03350350
v -0.00432043 -0.00782594 -0.03520360
v -0.00445681 -0.00636709 -0.03812055
v -0.00432043 -0.00592282 -0.03880162
v -0.00432043 -0.00589219 -0.03884067
v -0.00432043 -0.00650404 -0.03799137
v -0.00432290 -0.00508627 -0.03931484
v -0.00432296 -0.00508314 -0.03931665
v -0.00432291 -0.00508564 -0.03931521
v -0.00432355 -0.00505225 -0.03933451
v -0.00432437 -0.00500987 -0.03935901
v -0.00432661 -0.00489798 -0.03942366
v -0.00432584 -0.00493530 -0.03940211
v -0.00432634 -0.00491053 -0.03941642
v -0.00432622 -0.00491636 -0.03941305
v -0.00432620 -0.00491721 -0.03941257
v -0.00432854 -0.00481711 -0.03947019
v -0.00432693 -0.00488318 -0.03943219
v -0.00432685 -0.00488700 -0.03942999
v -0.00432771 -0.00484954 -0.03945157
v -0.00432753 -0.00485701 -0.03944727
v -0.00432746 -0.00485980 -0.03944566
v -0.00432913 -0.00479496 -0.03948289
v -0.00432973 -0.00477266 -0.03949482
v -0.00432957 -0.00477843 -0.03949173
v -0.00432941 -0.00478457 -0.03948845
v -0.00432882 -0.00480635 -0.03947636
v -0.00451200 -0.00583191 -0.03875647
v -0.00432043 -0.00523748 -0.03922713
v -0.00466000 -0.00684207 -0.03714237
v -0.00432043 -0.00696139 -0.03720289
v -0.00526972 -0.00793773 -0.03315846
v -0.00432043 -0.00876110 -0.03161811
v -0.00432043 -0.00874051 -0.03171920
v -0.00432043 -0.00892833 -0.03049128
v -0.00432043 -0.00842386 -0.03320846
v -0.00432043 -0.00918518 -0.02857943
v -0.00444552 -0.00918359 -0.02832053
v -0.00432043 -0.00921637 -0.02834000
v -0.00432043 -0.00946452 -0.02585988
v -0.00518040 -0.00397654 -0.03922436
v -0.00523148 -0.00209460 -0.03997562
v -0.00508675 -0.00317571 -0.03972790
v -0.00520384 -0.00217976 -0.03997872
v -0.00516389 -0.00224927 -0.03999797
v -0.00497502 -0.00225520 -0.04017923
v -0.00526141 0.00052732 -0.04044382
v -0.00500089 0.00013631 -0.04064987
v -0.00486614 -0.00005781 -0.04074381
v -0.00483207 -0.00010630 -0.04076622
v -0.00433887 -0.00444371 -0.03967049
v -0.00433980 -0.00442286 -0.03968134
v -0.00434453 -0.00433663 -0.03972549
v -0.00434191 -0.00438312 -0.03970175
v -0.00434584 -0.00431301 -0.03973729
v -0.00434753 -0.00428277 -0.03975237
v -0.00435573 -0.00415269 -0.03981647
v -0.00436017 -0.00408716 -0.03984851
v -0.00437008 -0.00393572 -0.03992072
v -0.00435128 -0.00422086 -0.03978300
v -0.00438427 -0.00371157 -0.04002487
v -0.00440549 -0.00340049 -0.04016816
v -0.00445390 -0.00235474 -0.04054889
v -0.00445712 -0.00227569 -0.04057569
v -0.00443093 -0.00293973 -0.04034992
v -0.00441831 -0.00322577 -0.04024789
v -0.00479085 -0.00014581 -0.04079536
v -0.00464526 -0.00014614 -0.04091296
v -0.00446281 -0.00183430 -0.04067139
v -0.00448007 -0.00089195 -0.04087175
v -0.00449143 -0.00014702 -0.04101730
v -0.00449157 0.00002121 -0.04103659
v -0.00449281 0.00044344 -0.04108438
v -0.00588186 -0.00897459 -0.02205405
v -0.00579650 -0.00878897 -0.02509878
v -0.00627981 -0.00890255 -0.01452736
v -0.00632330 -0.00885257 -0.01381992
v -0.00615367 -0.00898105 -0.01384608
v -0.00611674 -0.00900946 -0.01387020
v -0.00595823 -0.00916619 -0.01641039
v -0.00589008 -0.00921762 -0.01641301
v -0.00634500 -0.00534282 -0.00942935
v -0.00622456 -0.00496569 -0.00942935
v -0.00578940 -0.00926149 -0.01408951
v -0.00578919 -0.00926165 -0.01408967
v -0.00577892 -0.00926962 -0.01409872
v -0.00577065 -0.00927604 -0.01410649
v -0.00577046 -0.00927618 -0.01410667
v -0.00576533 -0.00928021 -0.01411321
v -0.00576527 -0.00928026 -0.01411340
v -0.00576349 -0.00928175 -0.01411916
v -0.00575934 -0.00928533 -0.01413814
v -0.00575934 -0.00900032 -0.01395040
v -0.00575934 -0.00866954 -0.01374576
v -0.00565674 -0.00937600 -0.01468666
v -0.00564854 -0.00938331 -0.01473365
v -0.00563408 -0.00939514 -0.01481470
v -0.00563253 -0.00939639 -0.01482333
v -0.00621184 -0.00041067 -0.00942935
v -0.00621142 0.00007812 -0.00942935
v -0.00588911 -0.00042542 -0.01008106
v -0.00588021 0.00007812 -0.01006847
v -0.00579285 -0.00042542 -0.01042738
v -0.00578394 0.00007812 -0.01042738
v -0.00498800 -0.00969785 -0.01808457
v -0.00464946 -0.00968014 -0.02207104
v -0.00457025 -0.00946934 -0.02511857
v -0.00432043 -0.00958230 -0.02467277
v -0.00432043 -0.00976192 -0.02235025
v -0.00432043 -0.00978272 -0.02207151
v -0.00432043 -0.00981237 -0.02159677
v -0.00432043 -0.00981581 -0.02152851
v -0.00468740 -0.00977861 -0.01957145
v -0.00463122 -0.00978946 -0.01984752
v -0.00476710 -0.00975725 -0.01917610
v -0.00455378 -0.00980424 -0.02023189
v -0.00442549 -0.00981482 -0.02086095
v -0.00436071 -0.00981792 -0.02122299
v -0.00436306 -0.00981795 -0.02120711
v -0.00434654 -0.00981754 -0.02132334
v -0.00434573 -0.00981749 -0.02132959
v -0.00432043 -0.00707887 -0.02152851
v -0.00432043 -0.00523748 -0.02319084
v -0.00532407 -0.00957965 -0.01643155
v -0.00520536 -0.00963005 -0.01701541
v -0.00515884 -0.00964500 -0.01723586
v -0.00622012 0.00240000 -0.03940973
v -0.00588845 0.00209998 -0.03983829
v -0.00622012 0.00464903 -0.03940973
v -0.00621692 0.00467728 -0.03941516
v -0.00605241 0.00457361 -0.03968702
v -0.00601658 0.00529022 -0.03963897
v -0.00601800 0.00571651 -0.03947750
v -0.00574563 0.00131915 -0.03995911
v -0.00538720 0.00240000 -0.04054800
v -0.00572996 0.00587010 -0.03979460
v -0.00538667 0.00440548 -0.04054854
v -0.00554734 0.00574663 -0.04007200
v -0.00614722 0.00729534 -0.03792248
v -0.00608647 0.00845434 -0.03527371
v -0.00619881 0.00859378 -0.03408317
v -0.00581837 0.00698788 -0.03882495
v -0.00535049 0.00643016 -0.03988556
v -0.00541570 0.00663919 -0.03965447
v -0.00576950 0.00853359 -0.03595106
v -0.00554781 0.00838564 -0.03694389
v -0.00538413 0.00908366 -0.03407184
v -0.00626029 0.00913110 -0.03053305
v -0.00565937 0.00944625 -0.03053281
v -0.00540357 0.00964078 -0.02963129
v -0.00553504 0.00992253 -0.02640364
v -0.00488641 0.00431582 -0.04102132
v -0.00488085 0.00548171 -0.04081783
v -0.00473213 0.00210053 -0.04108397
v -0.00459052 0.00210094 -0.04119221
v -0.00449484 0.00074347 -0.04111756
v -0.00449599 0.00094757 -0.04113845
v -0.00449866 0.00124800 -0.04116848
v -0.00450736 0.00216712 -0.04126000
v -0.00450754 0.00220446 -0.04126225
v -0.00450773 0.00223042 -0.04126377
v -0.00451244 0.00302709 -0.04128115
v -0.00451722 0.00326276 -0.04128362
v -0.00450948 0.00271160 -0.04127512
v -0.00453719 0.00426194 -0.04127169
v -0.00455043 0.00500174 -0.04115534
v -0.00455120 0.00504302 -0.04114856
v -0.00455106 0.00503514 -0.04115007
v -0.00455231 0.00510346 -0.04113694
v -0.00455453 0.00522063 -0.04111436
v -0.00455499 0.00524362 -0.04110991
v -0.00455818 0.00538522 -0.04108223
v -0.00456479 0.00590414 -0.04081371
v -0.00528752 0.00813726 -0.03790788
v -0.00490787 0.00692648 -0.03990481
v -0.00497593 0.00779755 -0.03883103
v -0.00531566 0.00894147 -0.03527156
v -0.00472195 0.00678921 -0.04017732
v -0.00457509 0.00693222 -0.04013605
v -0.00457584 0.00704653 -0.04003369
v -0.00457638 0.00714930 -0.03993261
v -0.00457671 0.00721143 -0.03987149
v -0.00461078 0.00741217 -0.03964839
v -0.00457737 0.00733492 -0.03974940
v -0.00457779 0.00740588 -0.03967921
v -0.00457781 0.00742570 -0.03965206
v -0.00457770 0.00761758 -0.03937367
v -0.00457773 0.00767885 -0.03928472
v -0.00457785 0.00774650 -0.03918647
v -0.00457790 0.00777281 -0.03914825
v -0.00457809 0.00800305 -0.03879316
v -0.00457814 0.00801984 -0.03876724
v -0.00457806 0.00812287 -0.03857218
v -0.00457829 0.00825788 -0.03831630
v -0.00457857 0.00851991 -0.03780437
v -0.00457858 0.00852123 -0.03780178
v -0.00456794 0.00620509 -0.04063584
v -0.00456974 0.00636442 -0.04054158
v -0.00457369 0.00670327 -0.04034101
v -0.00457849 0.00859765 -0.03760505
v -0.00457851 0.00862240 -0.03754129
v -0.00457851 0.00862738 -0.03752804
v -0.00457971 0.00889284 -0.03682052
v -0.00457978 0.00890262 -0.03679443
v -0.00457984 0.00892868 -0.03669556
v -0.00457991 0.00895540 -0.03659418
v -0.00458000 0.00902244 -0.03631953
v -0.00468893 0.00910719 -0.03576831
v -0.00458002 0.00903007 -0.03628829
v -0.00457971 0.00910972 -0.03585966
v -0.00457965 0.00915203 -0.03563188
v -0.00457965 0.00915835 -0.03559787
v -0.00457974 0.00917043 -0.03553275
v -0.00479069 0.00915048 -0.03526971
v -0.00457986 0.00920795 -0.03526893
v -0.00457988 0.00925993 -0.03483387
v -0.00457995 0.00929207 -0.03456470
v -0.00528293 0.00958246 -0.03053323
v -0.00458014 0.00960852 -0.03167527
v -0.00461910 0.00972489 -0.03053639
v -0.00458015 0.00971100 -0.03070853
v -0.00458011 0.00972732 -0.03053683
v -0.00458009 0.00973501 -0.03045274
v -0.00458003 0.00975277 -0.03025577
v -0.00458003 0.00977343 -0.03002661
v -0.00458001 0.00984704 -0.02919641
v -0.00457987 0.01014468 -0.02580967
v -0.00575892 0.00535158 -0.01022589
v -0.00575892 0.00585301 -0.01021644
v -0.00560005 0.01032535 -0.02179418
v -0.00634034 0.00805889 -0.00942935
v -0.00621142 0.00763541 -0.00942935
v -0.00588991 0.01071450 -0.01617441
v -0.00631475 0.01089721 -0.01084386
v -0.00628031 0.01091598 -0.01084740
v -0.00621820 0.01066507 -0.01068555
v -0.00621820 0.01095037 -0.01085650
v -0.00575892 0.00763541 -0.01021644
v -0.00561126 0.01072158 -0.01726398
v -0.00561170 0.01081607 -0.01618329
v -0.00542320 0.01111057 -0.01345032
v -0.00568409 0.01119961 -0.01151960
v -0.00565734 0.01119158 -0.01171693
v -0.00565617 0.01119123 -0.01172554
v -0.00559060 0.01117021 -0.01220685
v -0.00561155 0.01117739 -0.01205391
v -0.00581080 0.01117858 -0.01092938
v -0.00575934 0.01066507 -0.01068240
v -0.00575934 0.01118968 -0.01092797
v -0.00575805 0.01121147 -0.01095579
v -0.00575896 0.01120855 -0.01094343
v -0.00575934 0.01120766 -0.01093991
v -0.00572765 0.01120846 -0.01119078
v -0.00570641 0.01120591 -0.01135426
v -0.00547603 0.01112972 -0.01305706
v -0.00544925 0.01112020 -0.01325649
v -0.00544103 0.01111726 -0.01331775
v -0.00457974 0.01058812 -0.02076383
v -0.00457974 0.01063315 -0.02025143
v -0.00457979 0.01064493 -0.02011738
v -0.00458023 0.01067161 -0.01981319
v -0.00458072 0.01067428 -0.01978222
v -0.00466217 0.01072279 -0.01912607
v -0.00528444 0.01105426 -0.01448053
v -0.00526703 0.01104634 -0.01460939
v -0.00517584 0.01100281 -0.01528334
v -0.00491519 0.01086340 -0.01720271
f 49 51 50
f 49 50 65
f 59 60 62
f 59 61 60
f 53 59 62
f 59 66 63
f 59 63 64
f 59 65 66
f 49 65 57
f 53 65 59
f 56 57 65
f 56 65 55
f 54 55 65
f 53 54 65
f 49 57 80
f 49 77 69
f 49 69 71
f 49 76 78
f 49 78 77
f 49 71 70
f 49 70 72
f 49 72 73
f 49 73 104
f 49 80 79
f 49 79 76
f 349 46 48
f 349 89 47
f 349 47 46
f 349 87 89
f 49 109 108
f 49 104 105
f 49 106 107
f 49 105 106
f 49 107 103
f 49 103 109
f 49 108 111
f 49 111 110
f 49 110 101
f 49 101 102
f 349 48 51
f 49 349 51
f 49 81 349
f 349 88 87
f 349 90 88
f 349 166 90
f 349 167 166
f 49 102 113
f 49 113 117
f 49 117 120
f 49 120 343
f 49 343 344
f 49 344 81
f 81 82 349
f 81 350 82
f 82 351 112
f 82 112 349
f 81 344 345
f 81 345 350
f 82 350 351
f 112 121 349
f 112 352 121
f 121 353 122
f 121 122 349
f 122 123 349
f 349 169 167
f 349 170 169
f 349 171 170
f 349 172 171
f 182 172 349
f 182 349 194
f 194 349 195
f 182 181 172
f 182 184 181
f 182 194 184
f 194 185 184
f 194 183 185
f 194 186 183
f 194 188 186
f 194 187 188
f 194 191 189
f 194 189 187
f 194 192 191
f 195 193 192
f 195 198 193
f 194 195 192
f 195 203 198
f 203 199 198
f 203 200 199
f 203 201 200
f 203 202 201
f 195 207 203
f 195 209 207
f 207 209 210
f 195 204 221
f 195 215 209
f 195 349 204
f 204 349 212
f 212 349 213
f 213 349 216
f 216 349 217
f 217 349 497
f 195 221 215
f 204 212 500
f 204 222 221
f 204 224 222
f 204 223 224
f 204 226 223
f 204 500 226
f 212 213 515
f 212 501 500
f 213 216 515
f 216 217 515
f 212 502 501
f 212 515 502
f 374 272 270
f 374 270 271
f 295 374 271
f 389 295 273
f 266 306 267
f 305 299 300
f 302 305 300
f 267 306 302
f 299 305 301
f 374 264 297
f 264 374 265
f 268 306 266
f 265 374 268
f 374 297 272
f 301 305 303
f 305 302 306
f 268 374 306
f 389 374 295
f 335 323 324
f 335 324 325
f 328 331 329
f 328 329 330
f 327 330 335
f 328 332 331
f 328 330 327
f 327 335 325
f 323 338 326
f 326 339 322
f 335 336 323
f 322 423 321
f 321 424 319
f 424 320 319
f 320 427 318
f 318 430 317
f 317 429 290
f 323 336 337
f 323 337 338
f 338 339 326
f 339 422 322
f 322 422 423
f 423 424 321
f 290 453 291
f 291 454 292
f 455 293 289
f 424 425 320
f 320 425 426
f 320 426 427
f 318 427 430
f 430 428 317
f 317 428 429
f 292 455 289
f 293 457 283
f 283 459 286
f 286 462 287
f 287 466 288
f 288 468 284
f 284 469 285
f 285 471 278
f 278 473 280
f 280 476 281
f 282 478 279
f 281 477 282
f 279 482 277
f 277 490 276
f 276 493 274
f 274 524 275
f 273 275 525
f 389 273 526
f 112 351 352
f 121 352 353
f 122 354 355
f 122 353 354
f 123 355 356
f 348 356 357
f 349 357 359
f 349 359 360
f 122 355 123
f 123 356 348
f 348 357 349
f 123 348 349
f 359 357 358
f 361 390 391
f 392 361 391
f 359 381 360
f 361 362 390
f 362 363 390
f 363 364 390
f 358 361 392
f 359 358 371
f 349 360 383
f 349 385 369
f 349 369 367
f 349 365 366
f 349 367 368
f 349 495 365
f 367 369 368
f 349 368 494
f 368 369 370
f 360 381 379
f 360 379 380
f 360 380 382
f 360 382 383
f 369 385 384
f 370 384 386
f 388 377 376
f 388 378 377
f 389 375 374
f 389 376 375
f 388 376 389
f 494 386 387
f 495 387 378
f 358 392 371
f 359 371 381
f 349 383 385
f 388 504 378
f 388 389 528
f 369 384 370
f 370 386 494
f 494 387 495
f 290 429 431
f 432 290 431
f 432 450 290
f 450 451 290
f 290 451 452
f 290 452 453
f 453 454 291
f 454 455 292
f 455 456 293
f 293 456 457
f 457 458 283
f 283 458 459
f 459 460 286
f 286 460 461
f 286 461 462
f 287 462 466
f 466 467 288
f 288 467 468
f 468 469 284
f 469 470 285
f 285 470 471
f 471 472 278
f 278 472 473
f 473 475 280
f 437 438 439
f 437 463 436
f 436 464 435
f 435 445 433
f 437 439 463
f 432 434 447
f 433 447 434
f 463 464 436
f 280 475 476
f 476 477 281
f 477 478 282
f 478 479 279
f 279 479 481
f 279 481 482
f 482 483 277
f 277 483 485
f 277 485 487
f 277 487 488
f 277 488 489
f 277 489 490
f 490 491 276
f 276 491 492
f 276 492 493
f 493 524 274
f 524 525 275
f 273 525 526
f 464 465 435
f 435 465 445
f 445 446 433
f 433 446 447
f 432 447 448
f 432 448 450
f 349 366 498
f 365 495 366
f 349 494 495
f 349 498 497
f 366 495 498
f 368 370 494
f 495 504 498
f 217 497 514
f 497 498 514
f 502 503 501
f 498 504 514
f 217 514 515
f 502 515 503
f 515 513 503
f 519 509 520
f 514 521 515
f 517 511 512
f 519 510 509
f 520 509 508
f 519 512 510
f 515 521 511
f 515 518 513
f 517 519 516
f 515 511 518
f 517 518 511
f 517 512 519
f 504 533 514
f 514 507 523
f 514 523 522
f 514 530 507
f 514 522 521
f 389 526 527
f 389 527 528
f 495 378 504
f 388 528 504
f 504 529 533
f 533 532 530
f 530 532 531
f 514 533 530
f 504 528 529
f 5 2 1
f 17 5 1
f 37 35 2
f 5 37 2
f 17 3 5
f 3 4 5
f 4 37 5
f 4 38 37
f 4 22 38
f 10 6 26
f 10 124 6
f 35 83 7
f 2 35 7
f 11 7 129
f 7 83 8
f 7 8 129
f 83 129 8
f 9 2 7
f 1 2 9
f 1 9 10
f 1 10 18
f 10 9 124
f 9 7 11
f 9 11 124
f 12 18 27
f 12 15 21
f 12 27 13
f 13 27 30
f 12 13 14
f 14 13 30
f 12 14 15
f 25 15 228
f 14 16 15
f 14 30 16
f 16 30 246
f 38 22 93
f 19 1 18
f 19 20 1
f 20 17 1
f 25 20 19
f 25 19 21
f 25 22 17
f 25 17 20
f 19 18 21
f 12 21 18
f 3 22 4
f 17 22 3
f 23 24 22
f 22 24 93
f 24 239 93
f 25 21 15
f 23 22 25
f 23 25 228
f 27 18 26
f 10 26 18
f 27 28 30
f 27 26 28
f 26 6 28
f 28 6 140
f 28 140 29
f 32 31 242
f 32 30 28
f 32 28 31
f 246 30 32
f 31 29 33
f 29 140 33
f 242 31 33
f 33 144 247
f 28 29 31
f 37 34 35
f 34 36 35
f 34 44 42
f 34 40 36
f 34 42 40
f 91 67 39
f 91 95 67
f 38 34 37
f 38 39 34
f 38 91 39
f 39 44 34
f 39 43 44
f 39 74 43
f 39 67 74
f 36 41 85
f 36 40 41
f 42 41 40
f 42 52 41
f 44 52 42
f 44 64 52
f 43 56 45
f 43 58 44
f 44 58 61
f 43 45 58
f 52 65 41
f 41 46 47
f 41 47 89
f 41 48 46
f 41 51 48
f 50 51 65
f 41 65 51
f 52 63 66
f 52 64 63
f 43 57 56
f 45 56 55
f 45 55 54
f 44 61 64
f 45 54 58
f 58 60 61
f 58 62 60
f 58 53 62
f 58 54 53
f 59 64 61
f 52 66 65
f 95 68 67
f 67 69 74
f 67 71 69
f 67 70 71
f 67 68 70
f 95 104 68
f 68 72 70
f 68 73 72
f 68 104 73
f 43 74 75
f 43 75 57
f 74 76 75
f 74 78 76
f 74 69 78
f 75 80 57
f 75 79 80
f 75 76 79
f 77 78 69
f 83 36 84
f 35 36 83
f 36 85 84
f 83 84 163
f 84 85 163
f 85 164 163
f 85 165 164
f 85 41 165
f 41 86 165
f 41 88 86
f 41 87 88
f 86 88 90
f 41 89 87
f 86 90 165
f 165 90 166
f 38 93 91
f 92 91 93
f 92 98 91
f 91 96 95
f 91 98 96
f 92 99 98
f 92 93 94
f 94 93 341
f 92 94 114
f 92 114 99
f 98 97 96
f 95 96 109
f 95 105 104
f 95 106 105
f 95 107 106
f 95 103 107
f 95 109 103
f 96 97 109
f 97 108 109
f 97 111 108
f 98 110 97
f 97 110 111
f 98 99 100
f 98 100 110
f 100 101 110
f 100 102 101
f 100 113 102
f 99 114 118
f 100 118 117
f 99 118 100
f 100 117 113
f 114 116 115
f 114 115 118
f 115 116 119
f 115 119 118
f 118 120 117
f 118 119 120
f 119 343 120
f 6 124 125
f 125 124 128
f 124 131 127
f 124 127 126
f 127 133 126
f 124 126 128
f 128 126 133
f 11 129 124
f 83 163 129
f 129 130 132
f 124 129 131
f 129 132 131
f 129 163 135
f 129 135 130
f 127 137 133
f 128 133 147
f 131 132 137
f 132 130 134
f 132 134 137
f 130 135 136
f 130 136 134
f 127 131 137
f 137 134 138
f 133 137 155
f 137 138 155
f 134 136 139
f 134 139 138
f 6 125 140
f 140 125 128
f 140 141 145
f 143 150 141
f 140 128 142
f 140 142 143
f 142 128 147
f 143 142 148
f 140 143 141
f 33 140 144
f 140 145 144
f 144 146 393
f 141 150 145
f 145 150 151
f 144 145 146
f 145 151 146
f 142 147 148
f 133 149 147
f 133 155 149
f 143 148 150
f 148 147 152
f 147 149 152
f 149 155 158
f 149 158 153
f 150 405 151
f 150 154 405
f 148 154 150
f 148 152 154
f 149 153 152
f 158 406 153
f 152 153 406
f 158 407 406
f 158 155 156
f 158 156 159
f 155 138 156
f 156 138 157
f 157 138 159
f 156 157 159
f 158 159 160
f 159 138 139
f 159 139 162
f 158 160 407
f 160 414 407
f 160 161 414
f 159 162 160
f 160 162 161
f 414 161 162
f 163 164 135
f 164 173 135
f 164 165 173
f 173 165 176
f 165 166 167
f 165 167 169
f 165 168 176
f 165 177 168
f 165 178 177
f 165 169 178
f 135 179 136
f 136 174 175
f 135 173 179
f 173 176 179
f 136 179 174
f 174 179 180
f 174 196 175
f 174 180 196
f 136 175 139
f 175 196 205
f 175 205 206
f 175 206 214
f 168 177 176
f 176 177 179
f 177 178 179
f 178 190 179
f 180 179 197
f 178 169 170
f 178 170 171
f 178 171 172
f 178 172 181
f 178 181 184
f 178 184 190
f 179 190 197
f 190 185 183
f 190 184 185
f 190 183 186
f 190 186 188
f 190 188 187
f 190 187 189
f 190 189 191
f 190 191 192
f 190 192 193
f 190 193 198
f 190 198 197
f 180 197 196
f 197 198 199
f 197 199 200
f 197 200 201
f 197 201 202
f 196 197 208
f 197 202 203
f 197 203 207
f 196 208 205
f 205 208 206
f 206 208 214
f 197 207 210
f 197 210 208
f 208 210 209
f 208 209 215
f 139 175 211
f 139 211 162
f 175 214 211
f 162 211 220
f 211 214 218
f 211 218 220
f 208 225 214
f 208 215 225
f 222 215 221
f 222 224 215
f 225 215 224
f 214 219 218
f 218 219 220
f 214 225 219
f 219 225 220
f 225 224 223
f 225 223 226
f 225 226 500
f 228 230 238
f 229 243 231
f 15 16 236
f 16 246 227
f 16 227 229
f 15 236 235
f 15 235 228
f 16 229 236
f 229 227 243
f 229 231 232
f 232 231 243
f 233 232 243
f 236 232 262
f 233 251 234
f 262 232 233
f 234 251 263
f 236 237 235
f 235 230 228
f 236 229 232
f 236 262 237
f 235 261 230
f 237 261 235
f 23 228 238
f 23 238 24
f 238 239 24
f 238 241 239
f 93 239 341
f 239 241 341
f 298 238 230
f 240 241 238
f 298 240 238
f 241 373 341
f 246 32 243
f 246 243 227
f 32 244 243
f 32 242 244
f 242 245 244
f 244 245 252
f 252 245 253
f 253 245 248
f 242 33 247
f 242 247 245
f 249 247 393
f 248 245 247
f 248 247 249
f 243 244 251
f 244 252 254
f 233 243 251
f 251 244 254
f 252 253 254
f 251 254 255
f 251 255 257
f 263 251 257
f 256 257 307
f 257 255 307
f 255 254 309
f 253 310 254
f 253 259 308
f 253 308 310
f 253 248 258
f 248 249 258
f 249 250 258
f 258 250 400
f 253 258 259
f 258 401 313
f 298 230 260
f 230 261 260
f 298 260 267
f 262 296 237
f 233 234 263
f 262 233 263
f 262 263 294
f 263 307 319
f 237 296 261
f 260 261 268
f 260 266 267
f 260 268 266
f 261 265 268
f 261 264 265
f 262 269 296
f 262 294 269
f 263 319 320
f 263 289 294
f 263 320 289
f 296 269 272
f 296 272 297
f 294 271 270
f 269 294 270
f 269 270 272
f 290 291 292
f 318 292 289
f 317 290 292
f 294 295 271
f 294 273 295
f 294 276 274
f 294 274 275
f 294 275 273
f 294 279 277
f 294 280 281
f 294 281 282
f 294 282 279
f 294 277 276
f 294 284 285
f 294 285 278
f 294 278 280
f 294 286 287
f 294 287 288
f 294 288 284
f 294 289 293
f 294 293 283
f 294 283 286
f 296 264 261
f 296 297 264
f 240 304 241
f 298 300 240
f 241 304 373
f 240 300 299
f 240 301 304
f 240 299 301
f 298 267 302
f 298 302 300
f 304 303 305
f 304 301 303
f 373 304 305
f 373 305 306
f 255 309 307
f 263 257 256
f 263 256 307
f 254 311 309
f 254 310 311
f 308 259 312
f 310 308 312
f 310 312 311
f 307 309 325
f 309 311 312
f 309 312 331
f 259 258 314
f 258 313 314
f 259 333 312
f 259 315 316
f 259 316 333
f 259 314 315
f 307 321 319
f 307 326 322
f 307 322 321
f 307 324 323
f 307 323 326
f 307 325 324
f 309 327 325
f 309 328 327
f 309 332 328
f 309 331 332
f 312 329 331
f 312 330 329
f 312 335 330
f 320 318 289
f 318 317 292
f 312 333 334
f 312 336 335
f 312 334 336
f 316 315 420
f 316 420 333
f 333 420 334
f 334 337 336
f 334 338 337
f 334 339 338
f 334 422 339
f 334 423 422
f 334 424 423
f 94 341 340
f 94 346 114
f 94 340 346
f 340 347 346
f 341 372 340
f 340 391 347
f 340 392 391
f 340 371 392
f 114 346 116
f 116 346 342
f 116 342 119
f 342 343 119
f 342 344 343
f 342 345 344
f 342 350 345
f 342 361 358
f 342 363 362
f 342 362 361
f 342 346 363
f 342 351 350
f 342 352 351
f 342 353 352
f 342 354 353
f 342 356 355
f 342 357 356
f 342 355 354
f 342 358 357
f 346 347 363
f 347 390 364
f 347 364 363
f 347 391 390
f 341 373 372
f 340 372 371
f 373 374 372
f 373 306 374
f 372 385 383
f 372 384 385
f 372 387 386
f 372 386 384
f 372 374 375
f 372 375 376
f 372 376 377
f 372 378 387
f 372 377 378
f 372 379 371
f 372 382 379
f 380 379 382
f 381 371 379
f 372 383 382
f 247 144 393
f 249 393 250
f 250 393 400
f 400 393 394
f 393 397 401
f 146 395 393
f 393 395 396
f 393 396 397
f 146 396 395
f 146 398 396
f 396 398 397
f 146 151 398
f 398 151 399
f 398 399 402
f 400 394 401
f 394 393 401
f 258 400 401
f 401 397 403
f 403 397 398
f 398 402 404
f 403 398 404
f 151 405 408
f 399 408 402
f 399 151 408
f 154 440 405
f 154 152 412
f 152 406 411
f 152 411 412
f 406 407 443
f 402 408 410
f 408 405 440
f 404 402 409
f 402 410 409
f 410 408 441
f 408 440 442
f 154 412 440
f 406 443 411
f 412 411 443
f 414 443 407
f 414 162 415
f 415 162 417
f 414 415 413
f 414 413 443
f 415 416 484
f 415 417 416
f 484 416 417
f 314 313 401
f 314 401 420
f 314 420 315
f 401 418 420
f 401 403 418
f 403 404 419
f 404 409 419
f 403 419 418
f 334 420 421
f 334 421 424
f 420 418 430
f 420 426 421
f 420 427 426
f 420 430 427
f 421 425 424
f 421 426 425
f 418 429 428
f 418 431 429
f 418 428 430
f 418 432 431
f 418 419 436
f 418 433 434
f 418 434 432
f 418 435 433
f 418 436 435
f 419 437 436
f 419 438 437
f 419 439 438
f 419 463 439
f 409 410 441
f 408 442 441
f 440 412 466
f 419 409 444
f 409 441 444
f 441 442 449
f 440 459 442
f 412 467 466
f 412 468 467
f 412 443 472
f 443 413 480
f 412 469 468
f 412 470 469
f 412 471 470
f 412 472 471
f 443 480 474
f 443 474 475
f 484 482 480
f 419 444 463
f 444 441 446
f 444 464 463
f 444 465 464
f 441 447 446
f 441 448 447
f 441 450 448
f 441 449 450
f 444 445 465
f 444 446 445
f 449 451 450
f 449 452 451
f 449 453 452
f 449 442 453
f 442 454 453
f 442 455 454
f 442 456 455
f 442 457 456
f 442 458 457
f 442 459 458
f 440 460 459
f 440 462 460
f 440 466 462
f 461 460 462
f 443 473 472
f 473 443 475
f 474 480 479
f 480 481 479
f 474 476 475
f 474 477 476
f 474 478 477
f 474 479 478
f 480 482 481
f 413 415 480
f 415 484 480
f 484 486 485
f 484 417 486
f 484 483 482
f 484 485 483
f 486 487 485
f 486 488 487
f 486 489 488
f 486 490 489
f 486 491 490
f 486 492 491
f 486 533 492
f 162 499 417
f 162 220 499
f 417 499 496
f 496 499 505
f 417 496 531
f 496 505 507
f 220 520 499
f 220 225 519
f 225 500 516
f 501 516 500
f 220 519 520
f 225 516 519
f 501 503 516
f 503 513 516
f 505 499 508
f 505 509 506
f 505 508 509
f 505 506 523
f 496 507 530
f 496 530 531
f 505 523 507
f 506 512 522
f 506 522 523
f 499 520 508
f 506 509 510
f 506 510 512
f 513 518 517
f 513 517 516
f 511 521 512
f 521 522 512
f 486 417 532
f 417 531 532
f 486 532 533
f 493 492 529
f 529 492 533
f 493 525 524
f 526 525 493
f 526 493 527
f 493 529 528
f 527 493 528

