# https://github.com/mikedh/trimesh
v -0.00442315 -0.00585987 -0.03879552
v -0.00437654 -0.00610560 -0.03852141
v -0.00431852 -0.00641153 -0.03812120
v -0.00447174 -0.00560364 -0.03891638
v -0.00454105 -0.00523821 -0.03906330
v -0.00431185 -0.00589488 -0.03884444
v -0.00403947 -0.00641153 -0.03824751
v -0.00455846 -0.00469515 -0.03935143
v -0.00457211 -0.00426927 -0.03957232
v -0.00457335 -0.00405841 -0.03968629
v -0.00457576 -0.00371760 -0.03986539
v -0.00420793 -0.00410769 -0.03996436
v -0.00343836 -0.00444415 -0.04020283
v -0.00343836 -0.00362820 -0.04067091
v -0.00458263 -0.00307063 -0.04017610
v -0.00458740 -0.00274287 -0.04030083
v -0.00457996 -0.00321367 -0.04012214
v -0.00458134 -0.00313982 -0.04015000
v -0.00459533 -0.00227022 -0.04046989
v -0.00418998 -0.00324287 -0.04042552
v -0.00417109 -0.00228700 -0.04079465
v -0.00461235 -0.00173346 -0.04057844
v -0.00463739 -0.00092867 -0.04074158
v -0.00464073 -0.00081601 -0.04076454
v -0.00343836 -0.00294741 -0.04096834
v -0.00343836 -0.00172276 -0.04134712
v -0.00343836 -0.00131088 -0.04143891
v -0.00269435 -0.00545135 -0.03973518
v -0.00207702 -0.00641153 -0.03887945
v -0.00185042 -0.00629461 -0.03910736
v -0.00185047 -0.00641153 -0.03895036
v -0.00185076 -0.00556055 -0.03988151
v -0.00269515 -0.00463117 -0.04038749
v -0.00269512 -0.00372708 -0.04091690
v -0.00185132 -0.00472198 -0.04055295
v -0.00185068 -0.00379558 -0.04109595
v -0.00101927 -0.00641153 -0.03910561
v -0.00094404 -0.00636502 -0.03918210
v -0.00094405 -0.00641153 -0.03911896
v -0.00094421 -0.00562400 -0.03996853
v -0.00094442 -0.00477412 -0.04065058
v -0.00094378 -0.00383414 -0.04120062
v -0.00269369 -0.00276295 -0.04132030
v -0.00184822 -0.00280866 -0.04150639
v -0.00269161 -0.00176442 -0.04161207
v -0.00250000 -0.00130749 -0.04176483
v -0.00268948 -0.00075165 -0.04181168
v -0.00216095 -0.00134556 -0.04183707
v -0.00184502 -0.00179041 -0.04180083
v -0.00094194 -0.00283360 -0.04161421
v -0.00125367 -0.00140232 -0.04196755
v -0.00093963 -0.00180374 -0.04190949
v -0.00431852 -0.00641153 -0.02282355
v -0.00431852 -0.00640913 -0.02282355
v -0.00454105 -0.00523821 -0.02313050
v -0.00465661 -0.00021872 -0.04088771
v -0.00465715 -0.00019913 -0.04089161
v -0.00465854 -0.00014611 -0.04090224
v -0.00464526 -0.00014614 -0.04091296
v -0.00466589 0.00000846 -0.04091289
v -0.00472124 0.00118494 -0.04099447
v -0.00403855 -0.00014961 -0.04132447
v -0.00472714 0.00131453 -0.04100361
v -0.00474326 0.00167478 -0.04102927
v -0.00474731 0.00176532 -0.04103570
v -0.00474967 0.00181804 -0.04103945
v -0.00475381 0.00190964 -0.04104555
v -0.00475490 0.00193409 -0.04104718
v -0.00473213 0.00210053 -0.04108397
v -0.00476303 0.00211466 -0.04105868
v -0.00459052 0.00210094 -0.04119221
v -0.00477997 0.00243721 -0.04105416
v -0.00478106 0.00245931 -0.04105391
v -0.00421474 0.00240000 -0.04149852
v -0.00343836 -0.00015321 -0.04162935
v -0.00343836 0.00027405 -0.04168127
v -0.00343836 0.00120624 -0.04177359
v -0.00348880 0.00240000 -0.04186634
v -0.00480041 0.00285235 -0.04104947
v -0.00481399 0.00327600 -0.04105073
v -0.00484339 0.00419311 -0.04105189
v -0.00425612 0.00421857 -0.04147319
v -0.00484713 0.00430976 -0.04104948
v -0.00484775 0.00432897 -0.04104627
v -0.00484775 0.00439875 -0.04103617
v -0.00484775 0.00547181 -0.04084495
v -0.00484775 0.00552594 -0.04081740
v -0.00484775 0.00575406 -0.04068442
v -0.00484775 0.00580149 -0.04065657
v -0.00484745 0.00580728 -0.04065341
v -0.00484128 0.00580728 -0.04065834
v -0.00463726 0.00580728 -0.04081465
v -0.00484775 0.00580728 -0.04060499
v -0.00440869 0.00534051 -0.04120473
v -0.00383361 0.00519264 -0.04156724
v -0.00379242 0.00580728 -0.04131516
v -0.00430081 0.00580728 -0.04103913
v -0.00408714 0.00580728 -0.04116309
v -0.00484775 0.00580728 -0.03813377
v -0.00364562 0.00414859 -0.04179601
v -0.00348880 0.00409890 -0.04186634
v -0.00348296 0.00413830 -0.04186872
v -0.00341824 0.00411917 -0.04189513
v -0.00319934 0.00409319 -0.04197977
v -0.00325793 0.00478210 -0.04189793
v -0.00329360 0.00508707 -0.04181800
v -0.00346562 0.00580728 -0.04146238
v -0.00300096 0.00539125 -0.04182241
v -0.00317231 0.00580728 -0.04158117
v -0.00296716 0.00534420 -0.04184810
v -0.00278549 0.00530437 -0.04191122
v -0.00289880 0.00580728 -0.04166876
v -0.00284184 0.00580728 -0.04168241
v -0.00272650 0.00580728 -0.04170948
v -0.00312004 0.00580728 -0.03668115
v -0.00268751 0.00026598 -0.04194693
v -0.00250000 0.00017067 -0.04198692
v -0.00250000 0.00144759 -0.04210696
v -0.00265365 0.00209994 -0.04211590
v -0.00194124 0.00240000 -0.04230491
v -0.00170613 0.00210002 -0.04231373
v -0.00160947 0.00148403 -0.04228172
v -0.00061941 0.00210006 -0.04241983
v -0.00245603 0.00401088 -0.04220024
v -0.00194147 0.00395868 -0.04230485
v -0.00258909 0.00580728 -0.04173548
v -0.00216379 0.00518226 -0.04208056
v -0.00195790 0.00580728 -0.04180630
v -0.00163347 0.00393158 -0.04235242
v -0.00082552 0.00388044 -0.04243193
v -0.00145609 0.00506984 -0.04220668
v -0.00154808 0.00580728 -0.04185116
v -0.00130868 0.00580728 -0.04187599
v -0.00074321 0.00499904 -0.04227648
v -0.00083379 0.00580728 -0.04190410
v -0.00066805 0.00580728 -0.04191284
v -0.00268915 0.00580728 -0.03655407
v -0.00264581 0.00580728 -0.03654429
v -0.00218242 0.00580728 -0.03651106
v -0.00214492 0.00580728 -0.03650910
v -0.00167903 0.00580728 -0.03650519
v -0.00484775 0.00432897 -0.02297605
v -0.00484775 0.00461363 -0.02297409
v -0.00484775 0.00491025 -0.02297605
v -0.00484775 0.00567811 -0.02404939
v -0.00484775 0.00511716 -0.02297801
v -0.00484775 0.00533604 -0.02305034
v -0.00484775 0.00561113 -0.02339444
v -0.00484775 0.00567571 -0.02390667
v -0.00484775 0.00565060 -0.02354498
v -0.00484775 0.00550229 -0.02313246
v -0.00000000 -0.00564481 -0.03999744
v -0.00021718 -0.00641153 -0.03916220
v -0.00003173 -0.00640862 -0.03917719
v -0.00000000 -0.00638812 -0.03920690
v -0.00000000 -0.00640812 -0.03917965
v 0.00003021 -0.00640764 -0.03917860
v -0.00000000 -0.00479112 -0.04068289
v -0.00000000 -0.00384657 -0.04123507
v 0.00094405 -0.00636502 -0.03918210
v 0.00094405 -0.00639329 -0.03914372
v 0.00098864 -0.00639259 -0.03913676
v 0.00094421 -0.00562400 -0.03996853
v 0.00094442 -0.00477412 -0.04065058
v 0.00094378 -0.00383414 -0.04120062
v -0.00000000 -0.00284150 -0.04164956
v -0.00027770 -0.00142296 -0.04202548
v -0.00000000 -0.00180781 -0.04194496
v 0.00094194 -0.00283360 -0.04161421
v 0.00049933 -0.00142077 -0.04201899
v 0.00093963 -0.00180374 -0.04190949
v 0.00185042 -0.00629460 -0.03910736
v 0.00185046 -0.00637906 -0.03899396
v 0.00200925 -0.00637656 -0.03894761
v 0.00185077 -0.00556055 -0.03988151
v 0.00185132 -0.00472198 -0.04055295
v 0.00185068 -0.00379558 -0.04109595
v 0.00269393 -0.00617360 -0.03898183
v 0.00286365 -0.00636314 -0.03867863
v 0.00269435 -0.00545135 -0.03973518
v 0.00366664 -0.00595653 -0.03884445
v 0.00366664 -0.00628037 -0.03850660
v 0.00366664 -0.00635053 -0.03841618
v 0.00343836 -0.00530010 -0.03953878
v 0.00366664 -0.00532949 -0.03940116
v 0.00366664 -0.00553926 -0.03922090
v 0.00343836 -0.00502973 -0.03977112
v 0.00366664 -0.00498574 -0.03966638
v 0.00269514 -0.00463117 -0.04038749
v 0.00269512 -0.00372708 -0.04091690
v 0.00343836 -0.00450340 -0.04016314
v 0.00366664 -0.00438558 -0.04010457
v 0.00343836 -0.00389733 -0.04053161
v 0.00366664 -0.00396020 -0.04036319
v 0.00343836 -0.00362820 -0.04067091
v 0.00366664 -0.00369771 -0.04049991
v 0.00366664 -0.00351070 -0.04059670
v 0.00366664 -0.00460644 -0.03994889
v 0.00184823 -0.00280866 -0.04150639
v 0.00161513 -0.00138562 -0.04192547
v 0.00184501 -0.00179041 -0.04180083
v 0.00250000 -0.00130749 -0.04176483
v 0.00269369 -0.00276295 -0.04132030
v 0.00366664 -0.00264436 -0.04094026
v 0.00343836 -0.00238143 -0.04116533
v 0.00366664 -0.00235192 -0.04104997
v 0.00366664 -0.00189932 -0.04117489
v 0.00269162 -0.00176442 -0.04161207
v 0.00268949 -0.00075165 -0.04181168
v 0.00343836 -0.00172276 -0.04134712
v 0.00366664 -0.00112214 -0.04133900
v 0.00343836 -0.00063653 -0.04156009
v 0.00366664 -0.00045062 -0.04147066
v -0.00021718 -0.00641153 -0.02292131
v 0.00366664 -0.00635053 -0.02274926
v -0.00049001 0.00149522 -0.04238031
v 0.00030332 0.00149568 -0.04238621
v 0.00004525 0.00240000 -0.04245541
v 0.00068227 0.00210007 -0.04241655
v 0.00128226 0.00148948 -0.04232261
v 0.00134446 0.00240000 -0.04237656
v -0.00002215 0.00386362 -0.04245577
v 0.00042767 0.00387004 -0.04244677
v -0.00021718 0.00580728 -0.04192097
v -0.00016763 0.00580571 -0.04192258
v -0.00002512 0.00497599 -0.04229800
v 0.00037743 0.00498478 -0.04228983
v -0.00002789 0.00580128 -0.04192674
v 0.00005212 0.00579874 -0.04192705
v 0.00033170 0.00578987 -0.04192764
v 0.00037090 0.00578863 -0.04192726
v 0.00062760 0.00387653 -0.04243753
v 0.00145249 0.00392512 -0.04236320
v 0.00055590 0.00499367 -0.04228155
v 0.00049180 0.00578479 -0.04192562
v 0.00067796 0.00577889 -0.04191933
v 0.00115302 0.00576382 -0.04190044
v 0.00128541 0.00506083 -0.04221592
v 0.00140665 0.00575577 -0.04187981
v -0.00021718 0.00580728 -0.03650519
v 0.00250000 0.00017067 -0.04198692
v 0.00183675 0.00147844 -0.04224662
v 0.00174674 0.00210002 -0.04230753
v 0.00219235 0.00146529 -0.04217920
v 0.00250000 0.00144759 -0.04210696
v 0.00268751 0.00026598 -0.04194693
v 0.00366664 0.00101159 -0.04162596
v 0.00277811 0.00209993 -0.04208044
v 0.00285355 0.00240000 -0.04206321
v 0.00338794 0.00240000 -0.04186634
v 0.00343837 0.00209999 -0.04184554
v 0.00366664 0.00210004 -0.04173950
v 0.00222438 0.00399680 -0.04222993
v 0.00177248 0.00574417 -0.04184782
v 0.00195150 0.00516203 -0.04210464
v 0.00251728 0.00526826 -0.04196391
v 0.00239777 0.00572434 -0.04178487
v 0.00247640 0.00572184 -0.04177584
v 0.00289798 0.00406914 -0.04204897
v 0.00366664 0.00321349 -0.04173942
v 0.00325327 0.00411161 -0.04191992
v 0.00338794 0.00409891 -0.04186634
v 0.00338065 0.00414834 -0.04186926
v 0.00342913 0.00411403 -0.04184798
v 0.00354018 0.00414743 -0.04179809
v 0.00366664 0.00416263 -0.04172973
v 0.00308174 0.00504200 -0.04186855
v 0.00281271 0.00533256 -0.04186652
v 0.00261368 0.00571749 -0.04175464
v 0.00275203 0.00571310 -0.04172398
v 0.00282127 0.00571090 -0.04170484
v 0.00290186 0.00540240 -0.04181788
v 0.00304938 0.00570367 -0.04163339
v 0.00315704 0.00479276 -0.04189596
v 0.00366664 0.00464653 -0.04166960
v 0.00318843 0.00508553 -0.04181997
v 0.00366664 0.00511997 -0.04160565
v 0.00366664 0.00518282 -0.04159225
v 0.00366664 0.00524201 -0.04157040
v 0.00351839 0.00568879 -0.04144724
v 0.00366664 0.00544631 -0.04148629
v 0.00366664 0.00568409 -0.04138027
v 0.00366664 0.00568409 -0.03872225
v -0.00021718 0.00567691 -0.02404939
v 0.00366664 0.00567571 -0.02404743
v 0.00366664 0.00511716 -0.02302688
v 0.00366664 0.00563744 -0.02354302
v 0.00366664 0.00546880 -0.02313050
f 53 1 2
f 53 2 3
f 53 4 1
f 55 5 4
f 53 3 7
f 53 7 29
f 53 29 31
f 9 79 10
f 79 11 10
f 79 17 11
f 18 17 73
f 18 73 15
f 15 72 16
f 72 19 16
f 22 19 70
f 142 8 5
f 142 9 8
f 53 31 37
f 53 37 39
f 53 39 153
f 53 55 4
f 55 142 5
f 53 54 143
f 53 142 55
f 53 153 214
f 53 215 54
f 54 215 146
f 22 67 23
f 23 61 24
f 57 56 60
f 57 60 58
f 24 61 56
f 60 56 61
f 79 73 17
f 23 63 61
f 73 72 15
f 23 64 63
f 23 65 64
f 22 68 67
f 22 70 68
f 72 70 19
f 23 66 65
f 67 66 23
f 142 79 9
f 93 90 89
f 240 91 90
f 93 240 90
f 93 99 240
f 240 97 92
f 240 92 91
f 240 98 97
f 142 80 79
f 142 81 80
f 142 83 81
f 142 84 83
f 146 85 84
f 146 86 85
f 146 87 86
f 146 88 87
f 146 89 88
f 93 89 146
f 93 146 99
f 99 145 115
f 99 115 240
f 240 96 98
f 240 107 96
f 240 109 107
f 240 112 109
f 240 113 112
f 240 114 113
f 240 126 114
f 240 128 126
f 240 132 128
f 240 133 132
f 240 135 133
f 115 137 240
f 137 138 240
f 138 139 240
f 139 140 240
f 140 141 240
f 53 143 142
f 54 144 143
f 54 146 144
f 142 146 84
f 99 146 145
f 115 145 137
f 137 145 138
f 138 145 139
f 139 145 140
f 140 145 141
f 142 143 146
f 143 144 146
f 146 151 148
f 146 147 151
f 145 146 149
f 146 150 149
f 146 148 150
f 145 149 284
f 141 145 240
f 145 284 240
f 146 288 147
f 149 150 285
f 148 287 150
f 147 288 151
f 148 151 288
f 214 153 154
f 215 154 156
f 215 156 157
f 198 194 188
f 198 192 194
f 188 204 185
f 188 194 196
f 188 196 197
f 188 197 204
f 186 204 206
f 185 204 186
f 215 157 161
f 215 161 162
f 215 162 173
f 215 173 174
f 215 174 179
f 215 179 183
f 186 206 207
f 186 207 211
f 186 211 213
f 283 181 186
f 186 213 247
f 186 247 252
f 286 183 182
f 286 182 181
f 214 154 215
f 53 214 215
f 215 183 286
f 240 136 135
f 240 224 136
f 240 225 224
f 240 228 225
f 240 229 228
f 283 230 229
f 283 231 230
f 283 235 231
f 240 283 229
f 186 252 260
f 186 260 266
f 186 266 275
f 186 275 277
f 186 277 278
f 186 278 279
f 186 279 281
f 186 281 282
f 283 186 282
f 283 285 181
f 283 236 235
f 283 237 236
f 283 239 237
f 283 254 239
f 283 257 254
f 283 258 257
f 283 269 258
f 283 270 269
f 283 271 270
f 283 273 271
f 283 280 273
f 283 282 280
f 240 285 283
f 146 215 286
f 240 284 285
f 149 285 284
f 146 286 288
f 150 287 285
f 148 288 287
f 286 181 288
f 285 287 181
f 287 288 181
f 6 1 4
f 6 2 1
f 6 4 12
f 12 4 5
f 3 2 7
f 6 7 2
f 12 11 20
f 20 11 17
f 12 20 14
f 12 5 8
f 12 9 10
f 12 8 9
f 12 10 11
f 6 12 13
f 6 29 7
f 6 13 33
f 6 30 29
f 6 33 28
f 6 28 32
f 12 14 13
f 13 34 33
f 13 14 34
f 14 25 34
f 20 17 18
f 20 15 16
f 20 18 15
f 20 16 21
f 21 16 19
f 21 19 22
f 20 21 25
f 21 22 23
f 21 23 59
f 59 23 24
f 59 24 56
f 21 62 27
f 21 59 62
f 20 25 14
f 21 26 25
f 25 43 34
f 43 26 45
f 25 26 43
f 21 27 26
f 27 62 75
f 26 27 45
f 27 47 45
f 27 75 47
f 28 33 35
f 28 35 32
f 6 32 30
f 30 31 29
f 33 34 36
f 34 43 36
f 33 36 35
f 32 35 41
f 32 41 40
f 40 41 158
f 30 37 31
f 32 40 30
f 30 40 38
f 30 38 37
f 38 39 37
f 38 153 39
f 40 152 38
f 35 36 41
f 36 42 41
f 36 44 42
f 41 42 158
f 42 50 159
f 43 45 44
f 43 44 36
f 45 49 44
f 45 47 46
f 45 46 48
f 45 48 49
f 46 47 48
f 48 47 117
f 48 51 49
f 48 117 51
f 44 50 42
f 44 49 50
f 50 49 52
f 50 52 166
f 49 51 52
f 51 167 52
f 51 216 167
f 59 56 57
f 59 57 58
f 59 58 60
f 59 60 63
f 63 60 61
f 59 63 64
f 59 64 69
f 59 74 62
f 62 74 76
f 59 69 71
f 67 68 66
f 69 64 65
f 69 65 66
f 69 66 68
f 59 71 74
f 69 74 71
f 69 68 70
f 69 70 72
f 69 72 73
f 69 73 79
f 69 79 80
f 69 80 74
f 62 76 75
f 75 76 116
f 75 116 47
f 76 77 116
f 76 74 78
f 76 78 77
f 116 77 78
f 116 78 119
f 74 80 81
f 74 81 82
f 82 81 83
f 74 82 100
f 82 85 94
f 82 83 84
f 82 84 85
f 94 85 86
f 91 87 88
f 89 91 88
f 89 90 91
f 91 92 87
f 94 86 87
f 94 87 92
f 94 92 97
f 82 94 95
f 82 95 100
f 94 98 95
f 95 98 96
f 94 97 98
f 74 100 78
f 78 100 101
f 100 102 101
f 78 101 102
f 78 102 103
f 78 103 104
f 78 104 119
f 119 104 124
f 100 95 105
f 100 105 102
f 102 105 103
f 103 105 104
f 95 106 105
f 95 96 107
f 95 108 106
f 95 107 108
f 104 105 124
f 105 106 111
f 106 110 111
f 106 108 110
f 108 107 109
f 108 109 112
f 110 108 111
f 105 111 127
f 108 113 111
f 108 112 113
f 111 113 114
f 47 116 117
f 116 118 117
f 117 122 51
f 116 119 118
f 117 118 120
f 118 119 120
f 117 120 122
f 122 120 121
f 51 122 216
f 122 121 123
f 121 120 123
f 122 123 216
f 119 124 120
f 124 125 120
f 120 125 129
f 105 127 124
f 124 127 125
f 111 126 127
f 111 114 126
f 127 126 128
f 125 131 129
f 127 131 125
f 127 132 131
f 127 128 132
f 120 129 130
f 120 130 123
f 129 131 130
f 131 132 133
f 131 133 135
f 131 134 130
f 131 135 134
f 134 135 136
f 40 158 152
f 152 158 163
f 38 154 153
f 38 155 154
f 152 155 38
f 155 156 154
f 155 157 156
f 152 160 155
f 155 160 157
f 42 159 158
f 158 159 165
f 158 164 163
f 163 164 175
f 160 161 157
f 152 163 160
f 160 162 161
f 163 172 160
f 160 172 162
f 158 165 164
f 159 169 165
f 164 165 177
f 159 50 166
f 166 52 168
f 159 166 169
f 166 168 171
f 52 167 168
f 168 167 170
f 167 217 170
f 166 171 169
f 165 169 199
f 169 171 201
f 168 170 171
f 170 200 171
f 171 200 201
f 170 220 200
f 175 164 176
f 175 176 180
f 180 176 189
f 172 173 162
f 163 175 172
f 172 174 173
f 172 178 174
f 175 178 172
f 178 179 174
f 175 180 178
f 164 177 176
f 165 199 177
f 176 177 189
f 177 190 189
f 177 203 190
f 180 181 178
f 178 182 179
f 180 189 187
f 178 181 182
f 180 186 181
f 183 179 182
f 180 184 186
f 180 187 184
f 184 185 186
f 184 187 185
f 187 188 185
f 189 190 193
f 190 203 195
f 189 191 187
f 189 193 191
f 191 193 192
f 191 192 198
f 190 195 193
f 193 195 196
f 193 194 192
f 193 196 194
f 195 197 196
f 187 191 198
f 187 198 188
f 169 201 199
f 177 199 203
f 199 201 208
f 199 208 203
f 200 202 201
f 200 209 202
f 201 202 208
f 200 241 209
f 203 208 205
f 203 205 195
f 195 204 197
f 195 205 204
f 208 210 205
f 205 210 207
f 205 206 204
f 205 207 206
f 208 202 209
f 208 209 210
f 209 246 212
f 210 211 207
f 210 212 211
f 209 212 210
f 212 213 211
f 167 216 217
f 216 123 218
f 216 218 217
f 218 219 217
f 170 217 220
f 217 219 220
f 219 221 220
f 220 221 243
f 123 130 218
f 218 130 222
f 130 134 222
f 218 222 223
f 218 232 219
f 218 223 232
f 222 227 223
f 222 134 226
f 134 136 224
f 134 224 225
f 134 225 226
f 226 225 228
f 222 226 227
f 223 227 234
f 226 229 227
f 226 228 229
f 227 231 234
f 227 229 230
f 227 230 231
f 234 231 235
f 219 232 221
f 223 234 232
f 221 232 233
f 221 233 243
f 232 234 238
f 234 235 236
f 234 236 238
f 232 238 233
f 238 236 237
f 238 237 239
f 200 242 241
f 200 220 242
f 241 242 244
f 241 245 246
f 241 244 245
f 220 243 242
f 242 243 244
f 244 243 248
f 244 248 245
f 243 253 248
f 209 241 246
f 212 247 213
f 246 251 212
f 212 251 247
f 246 245 248
f 246 248 251
f 248 249 251
f 251 252 247
f 249 250 251
f 251 260 252
f 243 233 253
f 233 238 255
f 233 255 253
f 238 239 255
f 255 239 254
f 255 254 257
f 255 256 253
f 255 258 256
f 255 257 258
f 256 258 269
f 248 253 249
f 249 253 259
f 249 259 261
f 249 261 250
f 251 250 262
f 251 262 264
f 251 264 265
f 251 265 260
f 250 261 263
f 250 263 262
f 262 263 264
f 265 266 260
f 263 265 264
f 253 274 259
f 253 256 274
f 259 274 261
f 256 267 274
f 256 268 267
f 256 272 268
f 256 269 272
f 272 269 270
f 272 270 271
f 267 268 272
f 267 272 276
f 272 271 273
f 261 274 263
f 274 265 263
f 267 276 274
f 274 276 277
f 274 275 265
f 265 275 266
f 274 277 275
f 276 272 279
f 272 273 280
f 272 280 281
f 276 278 277
f 276 279 278
f 272 281 279
f 282 281 280

