# https://github.com/mikedh/trimesh
v -0.00833746 -0.00452954 -0.00942564
v -0.00830428 -0.00481219 -0.00942564
v -0.00832328 -0.00468414 -0.00942564
v -0.00831751 -0.00472861 -0.00942564
v -0.00834380 -0.00437220 -0.00942564
v -0.00834578 -0.00413099 -0.00942564
v -0.00834503 -0.00424392 -0.00942564
v -0.00822433 -0.00519121 -0.00942564
v -0.00822285 -0.00519822 -0.00942564
v -0.00812292 -0.00530917 -0.00942564
v -0.00811228 -0.00571988 -0.00783900
v -0.00812545 -0.00565636 -0.00618068
v -0.00802601 -0.00609518 -0.00672720
v -0.00798860 -0.00623926 -0.00625692
v -0.00795490 -0.00635590 -0.00588043
v -0.00794826 -0.00637886 -0.00580274
v -0.00794401 -0.00639335 -0.00575385
v -0.00789626 -0.00653837 -0.00527511
v -0.00788457 -0.00657344 -0.00515960
v -0.00788338 -0.00657687 -0.00514842
v -0.00788635 -0.00656835 -0.00517622
v -0.00809312 -0.00580897 -0.00756923
v -0.00805143 -0.00599731 -0.00700424
v -0.00794483 -0.00639074 -0.00398705
v -0.00786132 -0.00663776 -0.00495151
v -0.00788628 -0.00656855 -0.00346462
v -0.00773029 -0.00543306 -0.00942564
v -0.00779134 -0.00681482 -0.00439095
v -0.00771408 -0.00699906 -0.00381669
v -0.00769939 -0.00703108 -0.00371950
v -0.00766164 -0.00710998 -0.00348314
v -0.00765266 -0.00712875 -0.00342687
v -0.00763661 -0.00716090 -0.00333187
v -0.00764716 -0.00714025 -0.00180054
v -0.00752027 -0.00725774 -0.00318527
v -0.00752692 -0.00737077 -0.00272174
v -0.00747185 -0.00746670 -0.00245299
v -0.00746434 -0.00747978 -0.00241030
v -0.00745496 -0.00749609 -0.00235707
v -0.00742312 -0.00754923 -0.00218457
v -0.00745449 -0.00749689 -0.00075478
v -0.00736979 -0.00763567 -0.00190509
v -0.00735633 -0.00765698 -0.00183639
v -0.00740500 -0.00757876 -0.00208904
v -0.00734356 -0.00767694 -0.00177217
v -0.00732050 -0.00771245 -0.00165815
v -0.00731217 -0.00772513 -0.00161752
v -0.00731165 -0.00772591 -0.00161501
v -0.00730295 -0.00773801 -0.00157677
v -0.00728737 -0.00775969 -0.00150453
v -0.00820014 -0.00519326 0.00547489
v -0.00817744 -0.00510640 0.00578683
v -0.00814294 -0.00556090 0.00512721
v -0.00822562 -0.00499168 0.00564902
v -0.00828998 -0.00426276 0.00619166
v -0.00824720 -0.00436596 0.00634646
v -0.00813791 -0.00444969 0.00647866
v -0.00801058 -0.00616306 0.00445464
v -0.00794859 -0.00628373 0.00455599
v -0.00788224 -0.00658012 0.00388631
v -0.00784283 -0.00668892 0.00371637
v -0.00783832 -0.00637572 0.00464570
v -0.00808893 -0.00568121 0.00524887
v -0.00797849 -0.00577481 0.00535487
v -0.00782582 -0.00582964 0.00543153
v -0.00806743 -0.00519725 0.00590565
v -0.00797805 -0.00450176 0.00656905
v -0.00791076 -0.00525173 0.00598910
v -0.00831961 -0.00348450 0.00664636
v -0.00828030 -0.00357194 0.00681504
v -0.00832529 -0.00283049 0.00694560
v -0.00832459 -0.00197128 0.00723624
v -0.00828716 -0.00290263 0.00712275
v -0.00828655 -0.00202160 0.00742086
v -0.00817165 -0.00364479 0.00695833
v -0.00817877 -0.00296371 0.00727295
v -0.00817816 -0.00206431 0.00757735
v -0.00832447 -0.00109036 0.00742032
v -0.00828640 -0.00111817 0.00760963
v -0.00832472 -0.00045439 0.00748625
v -0.00828666 -0.00046596 0.00767722
v -0.00817801 -0.00114172 0.00777011
v -0.00817827 -0.00047572 0.00783914
v -0.00801000 -0.00369208 0.00705462
v -0.00801658 -0.00300444 0.00737333
v -0.00801594 -0.00209290 0.00768193
v -0.00782529 -0.00301861 0.00740864
v -0.00782459 -0.00210301 0.00771865
v -0.00801581 -0.00115744 0.00787737
v -0.00801606 -0.00048220 0.00794732
v -0.00782447 -0.00116293 0.00791501
v -0.00782472 -0.00048440 0.00798532
v -0.00770115 -0.00702744 0.00312745
v -0.00762708 -0.00713582 0.00319295
v -0.00735770 -0.00765483 -0.00014303
v -0.00741554 -0.00756191 0.00034251
v -0.00737572 -0.00762632 0.00143983
v -0.00731678 -0.00771818 0.00053223
v -0.00734330 -0.00767734 0.00115442
v -0.00751946 -0.00738360 0.00229540
v -0.00744195 -0.00748482 0.00234183
v -0.00752035 -0.00721673 0.00325283
v -0.00729653 -0.00772196 0.00146826
v -0.00733800 -0.00756065 0.00238484
v -0.00739014 -0.00726322 0.00330188
v -0.00777340 -0.00680459 0.00379711
v -0.00769241 -0.00642850 0.00471350
v -0.00766451 -0.00689157 0.00386986
v -0.00758279 -0.00619781 0.00505837
v -0.00765059 -0.00583864 0.00546902
v -0.00772902 -0.00526231 0.00602561
v -0.00777342 -0.00478107 0.00641414
v -0.00779090 -0.00451456 0.00660446
v -0.00752693 -0.00694127 0.00392743
v -0.00752759 -0.00643600 0.00475162
v -0.00737424 -0.00694879 0.00396412
v -0.00781970 -0.00370668 0.00708946
v -0.00836196 0.00099202 -0.00942564
v -0.00836225 0.00188807 -0.00942564
v -0.00836225 0.00532397 -0.00942564
v -0.00836224 0.00555162 -0.00942564
v -0.00836151 0.00572912 -0.00942564
v -0.00835995 0.00592609 -0.00942564
v -0.00835674 0.00615094 -0.00942564
v -0.00835622 0.00615534 -0.00933968
v -0.00834623 0.00624057 -0.00767120
v -0.00817724 0.00713534 -0.00942564
v -0.00818403 0.00713534 -0.00739683
v -0.00833941 0.00629776 -0.00652883
v -0.00833186 0.00636030 -0.00526231
v -0.00818567 0.00713534 -0.00689179
v -0.00818778 0.00713534 -0.00588344
v -0.00805690 0.00763254 -0.00942564
v -0.00798010 0.00788356 -0.00942564
v -0.00806064 0.00763254 -0.00739683
v -0.00806111 0.00763254 -0.00689179
v -0.00806205 0.00763254 -0.00537840
v -0.00832484 0.00641209 -0.00454447
v -0.00832146 0.00643431 -0.00439962
v -0.00830897 0.00651433 -0.00385901
v -0.00830770 0.00652203 -0.00383122
v -0.00828820 0.00663703 -0.00339120
v -0.00827437 0.00671611 -0.00321475
v -0.00827302 0.00672375 -0.00319744
v -0.00826912 0.00674536 -0.00314478
v -0.00826128 0.00678817 -0.00308156
v -0.00825565 0.00681761 -0.00303045
v -0.00825249 0.00683393 -0.00300086
v -0.00824530 0.00687066 -0.00297946
v -0.00819152 0.00713534 -0.00387019
v -0.00822050 0.00699729 -0.00290566
v -0.00819308 0.00713534 -0.00291138
v -0.00820730 0.00706410 -0.00286363
v -0.00817033 0.00722603 -0.00286318
v -0.00813187 0.00737876 -0.00277885
v -0.00813245 0.00737645 -0.00277991
v -0.00812822 0.00739263 -0.00276895
v -0.00811415 0.00744502 -0.00272490
v -0.00798010 0.00788356 -0.00291359
v -0.00808777 0.00753997 -0.00262463
v -0.00806205 0.00763254 -0.00267961
v -0.00803440 0.00771723 -0.00265371
v -0.00799710 0.00783149 -0.00280160
v -0.00792794 0.00792217 -0.00246067
v -0.00772795 0.00807021 -0.00942564
v -0.00774706 0.00805607 -0.00097179
v -0.00772795 0.00807021 -0.00091236
v -0.00771183 0.00807642 -0.00082634
v -0.00770300 0.00807983 -0.00079255
v -0.00832521 0.00045235 0.00748634
v -0.00828715 0.00046391 0.00767734
v -0.00832540 0.00134546 0.00737833
v -0.00832302 0.00205378 0.00721457
v -0.00828734 0.00137978 0.00756656
v -0.00828462 0.00210565 0.00739836
v -0.00817877 0.00047375 0.00783926
v -0.00817895 0.00140887 0.00772616
v -0.00832000 0.00240022 0.00710704
v -0.00831785 0.00284574 0.00694116
v -0.00829135 0.00245300 0.00726380
v -0.00825301 0.00247944 0.00734266
v -0.00825025 0.00293957 0.00717204
v -0.00830139 0.00366351 0.00655308
v -0.00823193 0.00378189 0.00676962
v -0.00820956 0.00249955 0.00740283
v -0.00817617 0.00214899 0.00755426
v -0.00801655 0.00048036 0.00794744
v -0.00801674 0.00142830 0.00783279
v -0.00782521 0.00048275 0.00798541
v -0.00782532 0.00077151 0.00796270
v -0.00782540 0.00143510 0.00787022
v -0.00808385 0.00253464 0.00750845
v -0.00807000 0.00253723 0.00751632
v -0.00806733 0.00300706 0.00734135
v -0.00801410 0.00217721 0.00765859
v -0.00801102 0.00254629 0.00754394
v -0.00804934 0.00386503 0.00692924
v -0.00787077 0.00255704 0.00757762
v -0.00801932 0.00667922 0.00358113
v -0.00793961 0.00707888 0.00276356
v -0.00788667 0.00730893 0.00213014
v -0.00784586 0.00726772 0.00284650
v -0.00822845 0.00501476 0.00561258
v -0.00815320 0.00516968 0.00579416
v -0.00819459 0.00539539 0.00525972
v -0.00816632 0.00566410 0.00497975
v -0.00826780 0.00443618 0.00606798
v -0.00819552 0.00457627 0.00626647
v -0.00808668 0.00583361 0.00513821
v -0.00790661 0.00594886 0.00525852
v -0.00801353 0.00467308 0.00641393
v -0.00797192 0.00527579 0.00593027
v -0.00809174 0.00623904 0.00427013
v -0.00800716 0.00641892 0.00440341
v -0.00793023 0.00686489 0.00369083
v -0.00782867 0.00654080 0.00450613
v -0.00782305 0.00218604 0.00769552
v -0.00782000 0.00255767 0.00758012
v -0.00781787 0.00303022 0.00740390
v -0.00780163 0.00389109 0.00698995
v -0.00773288 0.00771168 0.00129893
v -0.00759521 0.00812095 -0.00037764
v -0.00757845 0.00812734 -0.00034010
v -0.00756107 0.00784105 0.00132885
v -0.00779002 0.00749852 0.00219324
v -0.00761666 0.00762753 0.00224390
v -0.00767106 0.00739590 0.00291243
v -0.00747119 0.00816693 -0.00009228
v -0.00746551 0.00816878 -0.00007783
v -0.00744255 0.00817696 -0.00005817
v -0.00736974 0.00820258 0.00000561
v -0.00736092 0.00820558 0.00001387
v -0.00729732 0.00822776 0.00005468
v -0.00745110 0.00743711 0.00294777
v -0.00740075 0.00767055 0.00227215
v -0.00738007 0.00775971 0.00194603
v -0.00766944 0.00598210 0.00531172
v -0.00778152 0.00443758 0.00665643
v -0.00776860 0.00470175 0.00647252
v -0.00773004 0.00530649 0.00598674
v -0.00775342 0.00699065 0.00377663
v -0.00759714 0.00657675 0.00455480
v -0.00752738 0.00702912 0.00381988
v -0.00723978 -0.00547168 -0.00942564
v -0.00727485 -0.00777592 -0.00145106
v -0.00725258 -0.00779957 -0.00137607
v -0.00723744 -0.00780643 -0.00136056
v -0.00723656 -0.00781655 -0.00131663
v -0.00718314 -0.00787307 -0.00110250
v -0.00713386 -0.00792516 -0.00090520
v -0.00712628 -0.00793179 -0.00088093
v -0.00711978 -0.00793721 -0.00086129
v -0.00711237 -0.00794236 -0.00084341
v -0.00707636 -0.00775977 -0.00165632
v -0.00707416 -0.00796847 -0.00073288
v -0.00673570 -0.00548134 -0.00942564
v -0.00672306 -0.00548134 -0.00942564
v -0.00634821 -0.00535261 -0.00942564
v -0.00622459 -0.00496804 -0.00942564
v -0.00622366 -0.00496804 -0.00890849
v -0.00672306 -0.00787080 -0.00134845
v -0.00672306 -0.00799952 -0.00084341
v -0.00644819 -0.00775977 -0.00165286
v -0.00640066 -0.00780643 -0.00134845
v -0.00635524 -0.00786436 -0.00084341
v -0.00627657 -0.00749106 -0.00134845
v -0.00623162 -0.00749106 -0.00084341
v -0.00622693 -0.00698581 -0.00235680
v -0.00621172 -0.00043048 -0.00942564
v -0.00621078 0.00007316 -0.00942564
v -0.00723210 -0.00779890 0.00117945
v -0.00720532 -0.00783890 0.00053036
v -0.00704519 -0.00798511 -0.00066608
v -0.00704074 -0.00798739 -0.00065729
v -0.00708653 -0.00787691 0.00120171
v -0.00719498 -0.00779414 0.00149485
v -0.00721525 -0.00760552 0.00242125
v -0.00724767 -0.00727127 0.00333595
v -0.00707768 -0.00783817 0.00151789
v -0.00708275 -0.00761612 0.00244840
v -0.00700480 -0.00800564 -0.00058186
v -0.00689615 -0.00805546 -0.00038736
v -0.00692278 -0.00790271 0.00121870
v -0.00687518 -0.00806440 -0.00035404
v -0.00686400 -0.00806856 -0.00034010
v -0.00685025 -0.00807355 -0.00032105
v -0.00679574 -0.00808959 -0.00027283
v -0.00679517 -0.00808973 -0.00027254
v -0.00695224 -0.00785119 0.00153583
v -0.00672306 -0.00809285 -0.00034010
v -0.00672933 -0.00810248 -0.00026236
v -0.00672306 -0.00810355 -0.00026244
v -0.00667837 -0.00809901 -0.00015511
v -0.00664118 -0.00809452 -0.00005952
v -0.00663198 -0.00809224 -0.00002542
v -0.00661792 -0.00808849 0.00002381
v -0.00661794 -0.00808849 0.00002376
v -0.00660268 -0.00808354 0.00007677
v -0.00659823 -0.00808196 0.00009035
v -0.00657519 -0.00807316 0.00016494
v -0.00657427 -0.00807272 0.00016854
v -0.00653524 -0.00805336 0.00029630
v -0.00650807 -0.00803976 0.00038066
v -0.00649420 -0.00803190 0.00042934
v -0.00650000 -0.00724183 0.00339940
v -0.00634681 -0.00790298 -0.00034010
v -0.00634681 -0.00792390 -0.00005990
v -0.00634681 -0.00793838 0.00016494
v -0.00642541 -0.00799288 0.00066825
v -0.00634681 -0.00794481 0.00066825
v -0.00634681 -0.00793013 0.00105250
v -0.00629155 -0.00774046 -0.00005990
v -0.00622366 -0.00749106 -0.00034010
v -0.00622319 -0.00749106 -0.00005990
v -0.00634156 -0.00790686 0.00119498
v -0.00633449 -0.00786796 0.00143315
v -0.00622319 -0.00749106 0.00117330
v -0.00622366 -0.00749106 0.00140333
v -0.00622342 -0.00748945 0.00140506
v -0.00633156 -0.00785119 0.00153583
v -0.00632329 -0.00781404 0.00168007
v -0.00632039 -0.00777636 0.00182632
v -0.00632382 -0.00768394 0.00218511
v -0.00633174 -0.00761612 0.00244840
v -0.00622413 -0.00748945 0.00168007
v -0.00625386 -0.00748945 0.00218511
v -0.00632345 -0.00742727 0.00293445
v -0.00633033 -0.00727127 0.00333595
v -0.00632435 -0.00732664 0.00319346
v -0.00633159 -0.00724183 0.00339940
v -0.00633211 -0.00717217 0.00353364
v -0.00622272 -0.00698420 0.00268842
v -0.00622413 -0.00698420 0.00319346
v -0.00650000 -0.00619748 0.00505879
v -0.00650000 -0.00478087 0.00641432
v -0.00633297 -0.00707529 0.00372035
v -0.00633714 -0.00698368 0.00389688
v -0.00632269 -0.00702926 0.00374174
v -0.00633876 -0.00694879 0.00396412
v -0.00633202 -0.00668269 0.00437277
v -0.00632760 -0.00649652 0.00465868
v -0.00624169 -0.00648057 0.00420181
v -0.00633035 -0.00643600 0.00475162
v -0.00633049 -0.00628867 0.00494135
v -0.00633180 -0.00619781 0.00505837
v -0.00633181 -0.00619748 0.00505879
v -0.00622272 -0.00597693 0.00470685
v -0.00632837 -0.00604563 0.00523239
v -0.00632199 -0.00601394 0.00524648
v -0.00632977 -0.00599683 0.00528818
v -0.00633768 -0.00583864 0.00546902
v -0.00633631 -0.00558461 0.00571434
v -0.00632199 -0.00550547 0.00574634
v -0.00622272 -0.00496804 0.00571347
v -0.00633516 -0.00526231 0.00602561
v -0.00632243 -0.00502485 0.00621733
v -0.00632136 -0.00498949 0.00624588
v -0.00632160 -0.00498074 0.00625294
v -0.00632894 -0.00478087 0.00641432
v -0.00633187 -0.00451456 0.00660446
v -0.00632765 -0.00430786 0.00672855
v -0.00622389 -0.00446441 0.00621851
v -0.00650000 -0.00307709 0.00738453
v -0.00650000 -0.00118849 0.00791123
v -0.00626135 -0.00395916 0.00672355
v -0.00622272 -0.00345552 0.00672355
v -0.00633437 -0.00370668 0.00708946
v -0.00632860 -0.00352616 0.00717407
v -0.00632477 -0.00337915 0.00724296
v -0.00632165 -0.00307709 0.00738453
v -0.00631990 -0.00301861 0.00740864
v -0.00631610 -0.00295028 0.00743178
v -0.00632701 -0.00231986 0.00764522
v -0.00633274 -0.00210301 0.00771865
v -0.00624473 -0.00295028 0.00722687
v -0.00622272 -0.00244664 0.00722687
v -0.00631748 -0.00143936 0.00785840
v -0.00631528 -0.00118849 0.00791123
v -0.00631505 -0.00118155 0.00791226
v -0.00631483 -0.00116293 0.00791501
v -0.00626861 -0.00143936 0.00773191
v -0.00631636 -0.00059548 0.00797381
v -0.00631910 -0.00048440 0.00798532
v -0.00630846 -0.00093251 0.00793889
v -0.00631635 -0.00024069 0.00798534
v -0.00631511 -0.00008349 0.00798535
v -0.00631416 0.00005609 0.00798537
v -0.00623630 -0.00093251 0.00773191
v -0.00622272 0.00001845 0.00722687
v -0.00623232 -0.00042887 0.00773191
v -0.00622928 0.00001845 0.00773191
v -0.00622904 0.00007316 0.00773191
v -0.00722691 0.00826330 -0.00942564
v -0.00672259 0.00825043 -0.00942564
v -0.00671018 0.00824882 -0.00942564
v -0.00633979 0.00806056 -0.00942564
v -0.00621078 0.00763576 -0.00942564
v -0.00722691 0.00826169 -0.00034010
v -0.00722691 0.00825686 -0.00005817
v -0.00722691 0.00825464 0.00001878
v -0.00714315 0.00824886 0.00013609
v -0.00690076 0.00824106 0.00016494
v -0.00650000 0.00268516 0.00753590
v -0.00631243 0.00039906 0.00798540
v -0.00631236 0.00041648 0.00798540
v -0.00631217 0.00048275 0.00798541
v -0.00630945 0.00057679 0.00797801
v -0.00631172 0.00076810 0.00796296
v -0.00631182 0.00077151 0.00796270
v -0.00631431 0.00108204 0.00791942
v -0.00622764 0.00057679 0.00773191
v -0.00624684 0.00108204 0.00773191
v -0.00632788 0.00143510 0.00787022
v -0.00622295 0.00209092 0.00722687
v -0.00633154 0.00218604 0.00769552
v -0.00632872 0.00230785 0.00765770
v -0.00632601 0.00259617 0.00756677
v -0.00632673 0.00255767 0.00758012
v -0.00633199 0.00303022 0.00740390
v -0.00633110 0.00309981 0.00737044
v -0.00632604 0.00268516 0.00753590
v -0.00632531 0.00275659 0.00750857
v -0.00622436 0.00259617 0.00722687
v -0.00627680 0.00309981 0.00722687
v -0.00632840 0.00410708 0.00685813
v -0.00622436 0.00360345 0.00672355
v -0.00622295 0.00410708 0.00621851
v -0.00627751 0.00410708 0.00672355
v -0.00633219 0.00339162 0.00723012
v -0.00633495 0.00375134 0.00705715
v -0.00633653 0.00389109 0.00698995
v -0.00672259 0.00825043 -0.00034010
v -0.00672259 0.00824238 -0.00005817
v -0.00674502 0.00823501 0.00018732
v -0.00672259 0.00823594 0.00016494
v -0.00672259 0.00823367 0.00019229
v -0.00671078 0.00822727 0.00021596
v -0.00670059 0.00822149 0.00023734
v -0.00668012 0.00820966 0.00028113
v -0.00634681 0.00806056 -0.00034010
v -0.00634681 0.00805090 0.00016494
v -0.00634681 0.00803159 0.00066825
v -0.00635108 0.00801588 0.00099813
v -0.00634016 0.00796807 0.00117503
v -0.00633559 0.00794528 0.00125937
v -0.00633138 0.00791853 0.00135836
v -0.00631473 0.00787230 0.00135836
v -0.00632748 0.00789332 0.00145161
v -0.00622319 0.00763898 0.00066825
v -0.00622974 0.00763898 0.00117503
v -0.00623653 0.00763898 0.00135836
v -0.00632659 0.00714945 0.00356781
v -0.00622342 0.00713373 0.00268842
v -0.00625761 0.00713373 0.00319346
v -0.00633261 0.00767055 0.00227215
v -0.00633185 0.00758016 0.00253376
v -0.00631852 0.00783158 0.00168007
v -0.00632502 0.00775971 0.00194603
v -0.00624801 0.00763737 0.00168007
v -0.00633403 0.00743711 0.00294777
v -0.00633231 0.00749798 0.00277159
v -0.00632592 0.00732312 0.00319346
v -0.00650000 0.00592335 0.00537717
v -0.00650000 0.00705338 0.00377490
v -0.00623302 0.00511597 0.00571347
v -0.00624145 0.00612646 0.00470512
v -0.00632089 0.00557210 0.00572427
v -0.00632190 0.00551601 0.00577970
v -0.00632021 0.00562679 0.00567022
v -0.00632233 0.00606325 0.00520843
v -0.00632083 0.00613566 0.00511626
v -0.00632584 0.00592335 0.00537717
v -0.00632546 0.00598210 0.00531172
v -0.00622530 0.00561960 0.00520843
v -0.00632950 0.00434044 0.00671571
v -0.00633291 0.00443758 0.00665643
v -0.00633006 0.00487248 0.00633537
v -0.00632815 0.00501973 0.00621709
v -0.00633479 0.00470175 0.00647252
v -0.00624332 0.00461072 0.00621851
v -0.00633015 0.00530649 0.00598674
v -0.00634077 0.00657675 0.00455480
v -0.00633334 0.00702912 0.00381988
v -0.00633294 0.00703615 0.00380685
v -0.00633273 0.00705338 0.00377490
v -0.00633488 0.00679403 0.00420181
v -0.00622295 0.00663010 0.00369850
v -0.00627657 0.00663010 0.00420181
v -0.00632314 0.00626059 0.00495724
f 9 8 2
f 10 11 9
f 10 35 13
f 21 25 19
f 20 19 25
f 35 14 13
f 10 13 11
f 11 23 22
f 13 23 11
f 21 18 28
f 17 29 18
f 15 31 16
f 31 17 16
f 21 28 25
f 35 15 14
f 10 27 35
f 27 244 254
f 28 18 29
f 31 30 17
f 17 30 29
f 35 31 15
f 35 32 31
f 35 33 32
f 35 36 33
f 27 254 35
f 35 37 36
f 35 44 37
f 37 44 38
f 39 38 40
f 44 40 38
f 35 254 44
f 269 3 1
f 269 5 7
f 269 1 5
f 269 4 3
f 269 2 4
f 269 9 2
f 269 7 6
f 269 6 118
f 10 9 269
f 10 269 27
f 127 124 125
f 127 125 128
f 128 125 126
f 127 128 133
f 128 131 133
f 133 131 132
f 128 126 141
f 126 129 141
f 139 129 130
f 128 143 131
f 131 146 132
f 133 150 135
f 133 132 150
f 133 135 134
f 135 136 134
f 136 137 134
f 135 155 136
f 137 159 134
f 141 129 139
f 139 130 138
f 141 139 140
f 128 141 142
f 128 142 143
f 131 143 144
f 131 144 146
f 132 146 147
f 132 147 149
f 146 144 145
f 149 147 148
f 132 149 150
f 150 149 151
f 150 151 152
f 150 152 154
f 135 150 154
f 135 154 155
f 136 155 157
f 137 157 158
f 152 151 153
f 155 154 156
f 136 157 137
f 134 159 164
f 137 158 161
f 137 161 163
f 137 163 159
f 134 164 166
f 161 158 160
f 163 161 162
f 269 118 119
f 269 119 120
f 269 120 121
f 269 121 122
f 269 122 123
f 269 123 124
f 127 269 124
f 134 167 165
f 165 167 393
f 127 133 269
f 133 134 269
f 134 165 269
f 134 166 167
f 393 167 168
f 393 168 169
f 393 169 222
f 393 222 223
f 393 223 398
f 398 223 228
f 398 228 229
f 398 229 230
f 399 230 231
f 399 231 232
f 398 230 399
f 399 232 233
f 244 256 261
f 254 42 44
f 254 43 42
f 254 45 43
f 254 47 46
f 254 46 45
f 254 48 47
f 254 49 48
f 254 50 49
f 247 248 246
f 254 245 50
f 254 246 245
f 247 246 254
f 247 249 248
f 247 262 249
f 244 261 254
f 247 254 262
f 262 250 249
f 262 251 250
f 262 252 251
f 262 253 252
f 262 255 253
f 262 273 255
f 262 274 273
f 254 261 262
f 27 269 244
f 256 257 261
f 257 258 263
f 258 259 266
f 259 260 313
f 260 269 314
f 257 263 261
f 261 263 262
f 262 264 290
f 262 263 264
f 264 265 290
f 258 264 263
f 258 265 264
f 259 268 267
f 259 313 268
f 258 266 265
f 259 267 266
f 260 314 313
f 265 266 267
f 267 268 313
f 314 270 317
f 317 270 332
f 244 269 256
f 256 269 257
f 257 269 258
f 258 269 259
f 259 269 260
f 269 270 314
f 290 281 274
f 290 282 281
f 262 290 274
f 290 284 282
f 290 285 284
f 290 286 285
f 290 287 286
f 290 288 287
f 290 291 288
f 290 292 291
f 290 293 292
f 265 293 290
f 265 294 293
f 306 295 294
f 306 297 295
f 306 296 297
f 307 298 296
f 307 299 298
f 308 300 299
f 308 301 300
f 308 302 301
f 265 306 294
f 308 303 302
f 308 304 303
f 307 308 299
f 307 296 306
f 310 309 304
f 308 310 304
f 310 311 309
f 265 267 306
f 267 307 306
f 267 308 307
f 267 312 308
f 312 310 308
f 312 314 310
f 267 313 312
f 312 313 314
f 310 315 311
f 310 325 315
f 325 316 315
f 314 317 310
f 310 317 318
f 310 318 325
f 317 319 318
f 316 321 320
f 325 321 316
f 325 322 321
f 326 323 322
f 327 324 323
f 326 327 323
f 325 326 322
f 318 319 325
f 317 332 319
f 319 332 325
f 325 333 326
f 325 332 333
f 333 330 328
f 333 329 327
f 333 328 329
f 333 331 330
f 326 333 327
f 338 331 333
f 332 347 333
f 332 270 347
f 338 336 331
f 338 337 336
f 338 340 337
f 337 340 339
f 338 342 340
f 342 341 340
f 342 343 341
f 342 344 343
f 338 333 342
f 333 347 342
f 342 347 349
f 348 346 345
f 349 345 344
f 349 348 345
f 342 349 344
f 349 350 348
f 349 351 350
f 349 353 351
f 353 352 351
f 349 362 353
f 347 354 349
f 349 354 362
f 353 355 352
f 353 356 355
f 353 362 356
f 362 357 356
f 362 358 357
f 360 359 358
f 365 360 358
f 365 361 360
f 354 366 362
f 362 365 358
f 347 270 354
f 354 270 366
f 366 270 376
f 376 270 389
f 365 367 361
f 362 375 365
f 362 366 375
f 365 368 367
f 365 375 368
f 375 369 368
f 375 370 369
f 375 371 370
f 375 373 372
f 375 372 371
f 375 381 373
f 366 376 375
f 375 376 388
f 381 374 373
f 381 377 374
f 379 378 377
f 381 379 377
f 388 380 379
f 388 384 380
f 375 388 381
f 381 388 379
f 376 390 388
f 376 391 390
f 388 382 384
f 388 383 382
f 388 385 383
f 390 386 385
f 391 387 386
f 376 389 411
f 388 390 385
f 376 392 391
f 376 411 392
f 390 391 386
f 165 393 269
f 393 432 394
f 393 398 432
f 269 397 270
f 389 270 397
f 269 393 394
f 269 394 395
f 394 432 395
f 269 395 396
f 269 396 397
f 395 440 396
f 396 440 397
f 395 432 440
f 397 440 449
f 397 453 487
f 397 449 453
f 399 233 400
f 399 400 402
f 400 401 402
f 398 399 432
f 399 402 435
f 399 433 432
f 399 435 433
f 435 402 434
f 389 397 414
f 391 404 387
f 392 405 404
f 411 406 405
f 411 407 406
f 408 410 409
f 411 408 407
f 412 410 408
f 391 392 404
f 392 411 405
f 389 414 411
f 411 412 408
f 416 413 410
f 412 416 410
f 416 415 413
f 411 423 412
f 411 414 423
f 412 423 416
f 423 418 416
f 423 417 418
f 423 421 417
f 424 420 419
f 423 422 421
f 424 419 422
f 423 424 422
f 414 426 423
f 423 426 424
f 428 425 431
f 424 426 428
f 414 427 426
f 426 480 428
f 424 429 420
f 424 430 429
f 424 428 430
f 428 431 430
f 435 434 436
f 435 436 437
f 435 437 438
f 435 438 439
f 432 433 441
f 433 435 441
f 435 439 442
f 397 427 414
f 397 487 427
f 432 441 440
f 435 442 441
f 442 439 443
f 440 441 449
f 441 442 449
f 447 444 445
f 447 445 446
f 447 446 448
f 450 443 444
f 442 443 450
f 447 450 444
f 447 451 450
f 450 451 459
f 442 450 449
f 454 462 452
f 453 454 487
f 459 457 458
f 459 458 455
f 454 459 456
f 459 455 456
f 447 448 459
f 459 448 457
f 447 459 451
f 449 450 453
f 450 459 453
f 453 459 454
f 454 461 460
f 454 456 461
f 454 460 462
f 487 466 474
f 465 467 468
f 465 469 467
f 474 470 473
f 466 489 471
f 466 471 470
f 474 472 469
f 474 473 472
f 427 487 474
f 465 474 469
f 466 470 474
f 428 479 476
f 428 476 475
f 428 475 425
f 428 477 479
f 428 480 477
f 480 478 477
f 480 468 478
f 426 427 474
f 426 465 480
f 465 468 480
f 426 474 465
f 468 481 478
f 488 486 482
f 488 482 489
f 466 488 489
f 488 452 485
f 488 483 486
f 488 485 484
f 488 484 483
f 454 452 488
f 454 488 466
f 487 454 466
f 9 11 8
f 12 2 8
f 12 8 11
f 12 11 22
f 13 14 23
f 24 15 16
f 24 16 17
f 54 1 3
f 69 7 5
f 55 5 1
f 53 4 2
f 51 3 4
f 12 53 2
f 12 22 53
f 58 23 14
f 24 17 18
f 26 24 18
f 26 21 19
f 26 18 21
f 58 14 15
f 24 58 15
f 60 19 20
f 60 20 25
f 61 25 28
f 26 60 24
f 26 19 60
f 58 22 23
f 71 6 7
f 71 118 6
f 34 30 31
f 34 31 32
f 93 28 29
f 93 29 30
f 34 32 33
f 34 33 36
f 34 36 100
f 34 93 30
f 41 36 37
f 41 37 38
f 41 38 39
f 41 39 40
f 41 40 96
f 95 42 43
f 96 44 42
f 96 40 44
f 49 50 48
f 95 43 45
f 98 45 46
f 98 47 48
f 98 48 50
f 98 46 47
f 98 50 245
f 55 69 5
f 54 55 1
f 51 54 3
f 53 51 4
f 24 60 58
f 60 25 61
f 58 53 22
f 51 52 54
f 53 63 51
f 51 63 52
f 63 66 52
f 54 56 55
f 56 70 55
f 52 56 54
f 52 57 56
f 56 57 75
f 66 57 52
f 60 59 58
f 60 61 106
f 60 106 59
f 106 62 59
f 59 62 64
f 58 63 53
f 63 64 66
f 58 59 63
f 59 64 63
f 64 68 66
f 64 65 68
f 62 65 64
f 66 67 57
f 67 84 57
f 66 68 67
f 67 113 84
f 68 112 67
f 67 112 113
f 69 71 7
f 71 170 118
f 55 70 69
f 69 70 73
f 56 75 70
f 69 73 71
f 70 76 73
f 71 73 74
f 71 74 72
f 73 77 74
f 57 84 75
f 70 75 76
f 75 85 76
f 73 76 77
f 76 86 77
f 71 72 78
f 72 74 78
f 71 78 80
f 71 80 170
f 74 79 78
f 77 79 74
f 78 79 80
f 79 81 80
f 80 81 171
f 79 82 81
f 81 83 171
f 77 82 79
f 77 89 82
f 82 83 81
f 82 89 83
f 83 90 176
f 75 84 85
f 76 85 86
f 84 87 85
f 113 117 84
f 84 117 87
f 85 88 86
f 85 87 88
f 77 86 89
f 89 90 83
f 86 88 89
f 89 88 91
f 89 92 90
f 90 92 187
f 89 91 92
f 93 61 28
f 34 100 93
f 93 106 61
f 93 94 106
f 100 94 93
f 102 108 94
f 94 108 106
f 41 100 36
f 41 96 100
f 96 97 100
f 95 97 42
f 96 42 97
f 95 45 99
f 99 45 98
f 95 99 97
f 99 103 97
f 99 98 271
f 99 271 103
f 97 101 100
f 100 101 94
f 101 102 94
f 104 102 101
f 102 105 114
f 97 103 101
f 103 104 101
f 104 105 102
f 105 278 114
f 104 277 105
f 108 62 106
f 108 107 62
f 62 107 65
f 107 109 65
f 108 114 107
f 102 114 108
f 107 115 109
f 68 65 110
f 109 110 65
f 68 111 112
f 68 110 111
f 114 116 107
f 116 115 107
f 114 278 116
f 112 335 113
f 111 335 112
f 113 361 117
f 117 363 87
f 87 373 88
f 88 364 91
f 91 384 92
f 92 387 189
f 170 119 118
f 170 120 119
f 172 121 120
f 125 124 123
f 125 123 126
f 173 122 121
f 179 123 122
f 179 126 123
f 179 129 126
f 179 130 129
f 179 138 130
f 183 139 138
f 207 140 139
f 159 163 164
f 200 161 160
f 200 162 161
f 201 163 162
f 201 164 163
f 170 172 120
f 172 173 121
f 173 179 122
f 80 171 170
f 170 171 172
f 171 174 172
f 171 176 174
f 172 174 173
f 174 175 173
f 174 177 175
f 83 176 171
f 176 177 174
f 176 187 177
f 177 186 175
f 177 188 186
f 173 175 180
f 173 180 178
f 173 178 179
f 178 180 179
f 175 181 180
f 180 181 182
f 175 186 181
f 180 182 179
f 181 185 182
f 179 182 183
f 182 184 183
f 183 184 207
f 186 185 181
f 185 194 182
f 186 192 185
f 185 192 194
f 184 197 208
f 182 194 184
f 194 197 184
f 90 187 176
f 187 188 177
f 188 195 186
f 187 190 188
f 92 189 187
f 187 189 190
f 188 217 195
f 188 190 191
f 188 191 217
f 186 195 192
f 195 193 192
f 195 196 193
f 192 193 194
f 193 196 194
f 195 198 196
f 196 219 194
f 194 220 197
f 195 217 198
f 196 198 219
f 198 217 218
f 198 218 219
f 197 220 238
f 194 219 220
f 203 141 140
f 203 142 141
f 179 183 138
f 183 207 139
f 203 205 142
f 207 203 140
f 205 206 145
f 205 143 142
f 205 144 143
f 205 145 144
f 206 146 145
f 206 147 146
f 206 148 147
f 213 149 148
f 213 151 149
f 213 153 151
f 213 152 153
f 213 154 152
f 213 156 154
f 199 155 156
f 206 213 148
f 199 157 155
f 199 158 157
f 199 160 158
f 200 160 199
f 200 201 162
f 201 225 164
f 213 199 156
f 200 199 215
f 200 215 202
f 200 202 201
f 215 241 202
f 201 202 225
f 203 204 205
f 205 209 206
f 205 204 209
f 206 209 213
f 207 208 203
f 184 208 207
f 208 204 203
f 208 211 204
f 213 209 214
f 204 212 209
f 212 210 209
f 214 209 210
f 212 237 210
f 197 211 208
f 211 212 204
f 197 238 211
f 211 240 212
f 211 238 239
f 211 239 240
f 213 214 199
f 214 215 199
f 214 216 215
f 215 216 241
f 214 210 216
f 190 410 191
f 189 407 190
f 191 413 217
f 218 403 219
f 217 416 218
f 220 425 238
f 219 429 220
f 225 166 164
f 221 167 166
f 221 168 167
f 221 166 225
f 169 168 222
f 221 222 168
f 221 229 222
f 221 224 229
f 241 227 202
f 221 225 226
f 227 226 225
f 202 227 225
f 241 243 234
f 221 226 224
f 227 235 226
f 241 234 227
f 223 222 229
f 228 223 229
f 224 230 229
f 224 226 233
f 224 231 230
f 224 232 231
f 226 236 233
f 224 233 232
f 226 235 236
f 227 234 235
f 212 240 237
f 242 210 237
f 216 243 241
f 216 210 242
f 216 242 243
f 240 463 237
f 238 476 239
f 98 245 246
f 98 246 248
f 253 255 252
f 98 248 249
f 98 249 272
f 272 249 250
f 272 250 251
f 272 273 271
f 98 272 271
f 271 276 103
f 275 276 271
f 272 251 252
f 272 252 255
f 272 255 273
f 271 273 281
f 274 281 273
f 271 281 282
f 275 279 276
f 275 271 282
f 275 283 279
f 103 276 104
f 276 277 104
f 276 279 277
f 105 277 280
f 105 280 278
f 279 289 277
f 289 280 277
f 116 278 305
f 275 282 284
f 275 284 286
f 275 286 287
f 275 287 288
f 283 289 279
f 285 286 284
f 275 288 291
f 275 291 293
f 275 293 294
f 275 295 283
f 275 294 295
f 283 304 289
f 280 327 278
f 289 322 280
f 109 334 110
f 116 340 115
f 115 344 109
f 110 352 111
f 109 345 334
f 110 334 348
f 110 348 350
f 110 350 351
f 110 351 352
f 111 352 355
f 111 355 356
f 111 356 357
f 111 357 335
f 113 335 360
f 113 360 361
f 117 361 367
f 117 367 368
f 117 368 369
f 117 369 363
f 87 363 370
f 87 370 371
f 87 371 372
f 87 372 373
f 88 373 374
f 88 377 364
f 88 374 377
f 91 364 379
f 91 379 380
f 91 380 384
f 92 384 382
f 92 382 383
f 92 383 385
f 92 385 386
f 92 386 387
f 292 293 291
f 283 295 297
f 296 283 297
f 283 296 298
f 283 298 299
f 283 299 300
f 283 300 301
f 283 301 302
f 283 302 303
f 283 303 304
f 289 304 309
f 289 309 311
f 289 311 315
f 289 315 316
f 116 305 331
f 278 328 305
f 278 327 329
f 278 329 328
f 280 322 323
f 280 323 324
f 289 316 320
f 289 320 321
f 289 321 322
f 280 324 327
f 305 328 330
f 305 330 331
f 116 336 337
f 116 337 339
f 116 339 340
f 115 340 341
f 115 341 343
f 116 331 336
f 115 343 344
f 109 344 345
f 334 345 346
f 334 346 348
f 335 357 358
f 335 358 359
f 335 359 360
f 363 369 370
f 364 377 378
f 364 378 379
f 189 387 404
f 189 404 405
f 189 405 406
f 190 409 410
f 189 406 407
f 190 407 409
f 191 410 413
f 217 413 415
f 219 403 419
f 218 418 403
f 217 415 416
f 218 416 418
f 219 419 420
f 219 420 429
f 220 429 430
f 220 430 431
f 220 431 425
f 400 233 401
f 236 401 233
f 236 402 401
f 243 464 234
f 236 235 455
f 234 456 235
f 236 434 402
f 236 436 434
f 236 437 436
f 236 438 437
f 236 439 438
f 236 443 439
f 234 464 452
f 239 478 240
f 242 486 243
f 242 237 489
f 240 469 463
f 237 463 473
f 240 467 469
f 237 470 471
f 237 471 489
f 237 473 470
f 238 425 475
f 238 475 476
f 239 476 479
f 239 477 478
f 239 479 477
f 240 478 481
f 240 481 468
f 240 468 467
f 242 489 482
f 242 482 486
f 243 483 464
f 408 409 407
f 403 418 417
f 403 417 421
f 403 421 422
f 403 422 419
f 236 444 443
f 235 456 455
f 236 446 445
f 236 445 444
f 236 455 458
f 236 448 446
f 236 457 448
f 236 458 457
f 234 460 461
f 234 462 460
f 234 461 456
f 234 452 462
f 243 486 483
f 463 469 472
f 463 472 473
f 464 485 452
f 464 484 485
f 464 483 484

