# https://github.com/mikedh/trimesh
v 0.00472303 -0.00014261 -0.01018555
v 0.00472303 -0.00014261 -0.00790245
v 0.00474983 0.00005385 0.00773095
v 0.00474942 0.00007540 0.00773095
v 0.00488930 0.00005385 0.00798537
v 0.00488917 0.00006065 0.00798537
v 0.00474698 0.00057941 0.00773095
v 0.00488741 0.00041867 0.00798540
v 0.00488711 0.00048275 0.00798541
v 0.00488247 0.00057941 0.00797780
v 0.00488344 0.00077104 0.00796273
v 0.00488346 0.00077151 0.00796270
v 0.00496436 0.00005112 0.00798537
v 0.00477135 0.00108424 0.00773095
v 0.00488211 0.00108424 0.00791912
v 0.00490260 0.00143510 0.00787022
v 0.00539342 0.00004842 0.00798537
v 0.00490521 0.00218604 0.00769552
v 0.00490177 0.00226728 0.00767029
v 0.00473968 0.00259791 0.00722741
v 0.00489869 0.00255767 0.00758012
v 0.00489759 0.00259791 0.00756617
v 0.00489690 0.00268516 0.00753590
v 0.00490625 0.00303022 0.00740390
v 0.00489459 0.00277965 0.00749975
v 0.00500000 0.00268516 0.00753590
v 0.00481723 0.00310191 0.00722741
v 0.00490522 0.00310191 0.00736943
v 0.00490735 0.00339261 0.00722965
v 0.00491248 0.00375576 0.00705503
v 0.00491534 0.00389109 0.00698995
v 0.00572347 -0.00014261 -0.00033662
v 0.00568123 0.00004761 0.00798537
v 0.00467958 0.00562028 -0.01018555
v 0.00467877 0.00612594 -0.01018555
v 0.00467877 0.00713478 -0.01018555
v 0.00468161 0.00763961 -0.01018555
v 0.00487366 0.00814445 -0.01018555
v 0.00538404 0.00832599 -0.01018555
v 0.00472506 0.00763961 -0.00134552
v 0.00476201 0.00461227 0.00621851
v 0.00481844 0.00410827 0.00672205
v 0.00490052 0.00434039 0.00671575
v 0.00490613 0.00443758 0.00665643
v 0.00490247 0.00410827 0.00685741
v 0.00490986 0.00470175 0.00647252
v 0.00490327 0.00486558 0.00634092
v 0.00489968 0.00501797 0.00621851
v 0.00474698 0.00562028 0.00520961
v 0.00489380 0.00562836 0.00566867
v 0.00476079 0.00612594 0.00470426
v 0.00490137 0.00592335 0.00537717
v 0.00489125 0.00613603 0.00511578
v 0.00490056 0.00598210 0.00531172
v 0.00489553 0.00606111 0.00521115
v 0.00500000 0.00592335 0.00537717
v 0.00490575 0.00530649 0.00598674
v 0.00489508 0.00551082 0.00578482
v 0.00474617 0.00713312 0.00268466
v 0.00478718 0.00713312 0.00319001
v 0.00472871 0.00763961 -0.00084378
v 0.00492969 0.00808393 -0.00033842
v 0.00494025 0.00804580 0.00067047
v 0.00494731 0.00802814 0.00095277
v 0.00493254 0.00807233 0.00016512
v 0.00474942 0.00763961 0.00117402
v 0.00477135 0.00763961 0.00167937
v 0.00477784 0.00764210 0.00170464
v 0.00489597 0.00775971 0.00194603
v 0.00490827 0.00767055 0.00227215
v 0.00490843 0.00749472 0.00278104
v 0.00489953 0.00732472 0.00319001
v 0.00491166 0.00743711 0.00294777
v 0.00490711 0.00759161 0.00250062
v 0.00490711 0.00759070 0.00250324
v 0.00488586 0.00782867 0.00169084
v 0.00488543 0.00783177 0.00167937
v 0.00491781 0.00794199 0.00127155
v 0.00538363 0.00827708 -0.00033842
v 0.00529169 0.00821269 0.00026991
v 0.00534603 0.00824101 0.00016512
v 0.00538363 0.00825911 0.00009816
v 0.00563449 0.00826160 0.00008894
v 0.00481438 0.00662912 0.00419891
v 0.00491832 0.00657675 0.00455480
v 0.00491590 0.00662103 0.00448287
v 0.00489431 0.00626316 0.00495396
v 0.00490907 0.00679581 0.00419891
v 0.00490526 0.00703151 0.00381545
v 0.00490549 0.00702912 0.00381988
v 0.00490494 0.00705338 0.00377490
v 0.00489540 0.00715382 0.00355840
v 0.00500000 0.00705338 0.00377490
v 0.00566947 0.00827708 -0.00033842
v 0.00580497 0.00826326 0.00008279
v 0.00619715 0.00826707 0.00006871
v 0.00657048 0.00826992 0.00005814
v 0.00844725 -0.00014261 -0.01018555
v 0.00844834 -0.00002018 -0.01018555
v 0.00845995 -0.00014261 -0.00925986
v 0.00845057 0.00025681 -0.01018555
v 0.00845250 0.00086976 -0.01018555
v 0.00848001 -0.00014261 -0.00778568
v 0.00845057 0.00151719 -0.01018555
v 0.00854999 -0.00014261 -0.00231486
v 0.00854999 0.00000000 -0.00235001
v 0.00854999 0.00109210 -0.00208083
v 0.00854999 0.00193401 -0.00133494
v 0.00843571 0.00305114 -0.01018555
v 0.00842409 0.00395606 -0.01018555
v 0.00842934 0.00367026 -0.01018555
v 0.00746410 -0.00014261 -0.00033481
v 0.00732694 0.00004693 0.00798537
v 0.00738109 0.00004693 0.00798537
v 0.00740194 0.00004693 0.00798537
v 0.00744267 0.00004693 0.00798537
v 0.00854999 -0.00014261 -0.00033631
v 0.00854999 -0.00011077 0.00106112
v 0.00854999 -0.00009350 0.00181007
v 0.00854999 -0.00009228 0.00186185
v 0.00854999 -0.00008230 0.00228172
v 0.00854999 0.00056239 0.00228172
v 0.00854999 0.00155834 0.00175899
v 0.00782499 0.00004763 0.00798537
v 0.00790871 0.00004739 0.00796875
v 0.00792950 0.00004742 0.00796463
v 0.00793047 0.00004742 0.00796444
v 0.00801633 0.00004777 0.00794738
v 0.00782520 0.00048275 0.00798541
v 0.00782532 0.00077151 0.00796270
v 0.00801655 0.00048036 0.00794744
v 0.00782539 0.00143510 0.00787022
v 0.00801674 0.00142830 0.00783279
v 0.00842914 -0.00001682 0.00507999
v 0.00810615 0.00004712 0.00788748
v 0.00817854 0.00004661 0.00783920
v 0.00823861 0.00004500 0.00774947
v 0.00828693 0.00004370 0.00767729
v 0.00830797 0.00004164 0.00757171
v 0.00829579 0.00004272 0.00763284
v 0.00817876 0.00047375 0.00783926
v 0.00828715 0.00046391 0.00767734
v 0.00837801 0.00001082 0.00626112
v 0.00832499 0.00004013 0.00748630
v 0.00832521 0.00045235 0.00748634
v 0.00817895 0.00140887 0.00772616
v 0.00828733 0.00137978 0.00756656
v 0.00832540 0.00134546 0.00737833
v 0.00854999 0.00233287 -0.00028325
v 0.00854999 0.00219729 0.00083333
v 0.00782304 0.00218604 0.00769552
v 0.00782000 0.00255767 0.00758012
v 0.00781787 0.00303022 0.00740390
v 0.00801410 0.00217721 0.00765859
v 0.00787077 0.00255704 0.00757762
v 0.00780163 0.00389109 0.00698995
v 0.00804934 0.00386503 0.00692924
v 0.00817617 0.00214899 0.00755426
v 0.00828462 0.00210565 0.00739836
v 0.00820956 0.00249955 0.00740283
v 0.00825301 0.00247944 0.00734266
v 0.00829135 0.00245300 0.00726380
v 0.00807000 0.00253723 0.00751632
v 0.00808385 0.00253464 0.00750845
v 0.00806733 0.00300706 0.00734135
v 0.00825026 0.00293957 0.00717204
v 0.00832302 0.00205378 0.00721457
v 0.00831999 0.00240022 0.00710704
v 0.00831785 0.00284574 0.00694116
v 0.00823193 0.00378189 0.00676962
v 0.00830138 0.00366351 0.00655308
v 0.00689607 0.00832599 -0.01018555
v 0.00727489 0.00830526 -0.01018555
v 0.00739994 0.00829366 -0.01018555
v 0.00841612 0.00429658 -0.01018555
v 0.00838609 0.00506792 -0.01018555
v 0.00837485 0.00531816 -0.01018555
v 0.00837028 0.00541867 -0.01018555
v 0.00768254 0.00820993 -0.01018555
v 0.00788311 0.00811626 -0.01018555
v 0.00800167 0.00792063 -0.01018555
v 0.00832722 0.00626788 -0.01018555
v 0.00833331 0.00626334 -0.00768525
v 0.00832979 0.00628716 -0.00747589
v 0.00812754 0.00746719 -0.01018555
v 0.00804922 0.00769190 -0.00372006
v 0.00802840 0.00774047 -0.00356825
v 0.00771880 0.00808913 -0.00115946
v 0.00799997 0.00777964 -0.00318334
v 0.00785667 0.00800382 -0.00254662
v 0.00782492 0.00805438 -0.00245740
v 0.00789656 0.00794004 -0.00265688
v 0.00796017 0.00783919 -0.00287423
v 0.00823420 0.00689536 -0.00482492
v 0.00822733 0.00693808 -0.00471035
v 0.00822073 0.00697914 -0.00460020
v 0.00817413 0.00723390 -0.00433181
v 0.00820868 0.00705283 -0.00449415
v 0.00819910 0.00711042 -0.00449153
v 0.00813939 0.00740584 -0.00441631
v 0.00813839 0.00741078 -0.00441993
v 0.00807756 0.00762899 -0.00411124
v 0.00663201 0.00826992 0.00005814
v 0.00689607 0.00827625 -0.00033662
v 0.00689607 0.00826974 0.00005882
v 0.00726438 0.00823747 0.00003146
v 0.00727570 0.00823651 0.00002275
v 0.00733473 0.00823218 -0.00008206
v 0.00712963 0.00824765 0.00014057
v 0.00739954 0.00822900 -0.00033481
v 0.00739962 0.00822786 -0.00023613
v 0.00744088 0.00820883 -0.00024972
v 0.00741106 0.00822268 -0.00024039
v 0.00741907 0.00821897 -0.00024294
v 0.00757024 0.00815113 -0.00050128
v 0.00738007 0.00775971 0.00194603
v 0.00740076 0.00767055 0.00227215
v 0.00745111 0.00743711 0.00294777
v 0.00756106 0.00784105 0.00132885
v 0.00752737 0.00702912 0.00381988
v 0.00778151 0.00443758 0.00665643
v 0.00776861 0.00470175 0.00647252
v 0.00801354 0.00467308 0.00641393
v 0.00766945 0.00598210 0.00531172
v 0.00790662 0.00594886 0.00525852
v 0.00773004 0.00530649 0.00598674
v 0.00797192 0.00527579 0.00593027
v 0.00822844 0.00501476 0.00561258
v 0.00819552 0.00457627 0.00626647
v 0.00826781 0.00443618 0.00606798
v 0.00816632 0.00566410 0.00497975
v 0.00819459 0.00539539 0.00525972
v 0.00808669 0.00583361 0.00513821
v 0.00815319 0.00516968 0.00579416
v 0.00793961 0.00707888 0.00276356
v 0.00769191 0.00809942 -0.00096037
v 0.00761666 0.00762753 0.00224390
v 0.00779002 0.00749852 0.00219324
v 0.00773287 0.00771168 0.00129893
v 0.00767106 0.00739590 0.00291243
v 0.00788667 0.00730893 0.00213014
v 0.00784587 0.00726772 0.00284650
v 0.00759714 0.00657675 0.00455480
v 0.00775342 0.00699065 0.00377663
v 0.00782867 0.00654080 0.00450613
v 0.00800717 0.00641892 0.00440341
v 0.00801932 0.00667922 0.00358113
v 0.00793024 0.00686489 0.00369083
v 0.00809174 0.00623904 0.00427013
f 1 32 2
f 1 2 34
f 2 4 34
f 1 34 35
f 1 112 32
f 2 32 3
f 2 3 4
f 3 32 13
f 3 6 4
f 4 8 7
f 3 5 6
f 3 13 5
f 4 6 8
f 7 8 9
f 7 9 10
f 7 10 11
f 7 11 14
f 11 12 15
f 7 14 20
f 14 11 15
f 14 15 16
f 14 16 19
f 14 19 21
f 19 16 18
f 32 17 13
f 32 33 17
f 4 7 34
f 7 20 34
f 14 21 20
f 20 22 23
f 20 21 22
f 20 23 25
f 20 25 27
f 27 25 24
f 20 27 42
f 27 24 28
f 27 28 29
f 27 29 30
f 20 42 41
f 27 30 42
f 42 30 31
f 42 31 45
f 32 113 33
f 1 35 36
f 1 36 37
f 1 37 38
f 1 38 39
f 20 35 34
f 20 36 35
f 20 40 36
f 36 40 37
f 37 40 38
f 38 79 39
f 38 40 61
f 38 61 62
f 38 62 79
f 39 79 94
f 1 39 172
f 1 172 173
f 1 173 174
f 1 174 179
f 39 94 172
f 94 204 172
f 20 41 49
f 42 45 43
f 42 43 44
f 41 42 47
f 42 44 46
f 42 46 47
f 41 47 48
f 41 48 57
f 41 57 58
f 20 49 40
f 49 58 50
f 49 55 51
f 49 50 52
f 49 52 54
f 49 54 55
f 51 55 53
f 51 53 87
f 41 58 49
f 40 49 59
f 60 92 72
f 61 66 62
f 40 59 61
f 59 66 61
f 66 65 62
f 66 63 65
f 62 65 79
f 63 78 64
f 65 63 80
f 63 64 80
f 59 67 66
f 66 67 63
f 67 68 77
f 68 76 77
f 67 75 68
f 68 69 76
f 68 74 70
f 68 75 74
f 68 70 69
f 59 60 67
f 60 75 67
f 60 71 75
f 60 72 73
f 60 73 71
f 67 77 78
f 63 67 78
f 65 82 79
f 65 80 81
f 65 81 82
f 79 82 83
f 79 83 95
f 49 51 59
f 51 84 60
f 84 87 85
f 84 86 88
f 84 85 86
f 51 87 84
f 51 60 59
f 60 84 92
f 84 89 91
f 84 91 92
f 89 88 90
f 84 88 89
f 79 95 96
f 79 97 94
f 79 96 97
f 94 97 203
f 94 203 204
f 1 99 98
f 1 98 100
f 1 101 99
f 1 102 101
f 1 100 103
f 1 104 102
f 1 103 105
f 1 109 104
f 1 117 112
f 1 105 117
f 1 111 109
f 1 110 111
f 1 175 110
f 1 176 175
f 1 178 177
f 1 177 176
f 32 112 113
f 112 114 113
f 112 115 114
f 112 118 115
f 112 117 118
f 120 121 134
f 115 118 116
f 119 124 116
f 116 118 119
f 120 143 126
f 119 120 125
f 120 134 143
f 119 125 124
f 125 120 126
f 126 143 127
f 143 128 127
f 143 135 128
f 143 136 135
f 143 137 136
f 143 140 137
f 140 138 137
f 143 144 139
f 143 139 140
f 1 185 178
f 1 181 185
f 1 179 180
f 1 180 181
f 172 204 173
f 173 204 174
f 174 210 179
f 174 204 210
f 179 210 213
f 179 213 214
f 180 214 212
f 179 214 180
f 181 187 202
f 180 190 181
f 181 189 187
f 185 182 178
f 185 183 182
f 195 184 183
f 195 194 184
f 185 195 183
f 185 198 196
f 185 199 198
f 185 196 195
f 181 201 185
f 185 200 199
f 185 201 200
f 181 202 201
f 180 236 191
f 180 212 215
f 180 215 236
f 202 187 186
f 181 190 192
f 180 191 190
f 181 193 189
f 181 192 193
f 191 236 188
f 199 200 197
f 204 203 205
f 204 205 206
f 205 209 206
f 204 206 207
f 204 207 208
f 204 208 211
f 204 211 210
f 210 211 213
f 5 13 6
f 6 13 8
f 13 17 8
f 26 23 22
f 26 25 23
f 28 24 29
f 129 9 8
f 129 10 9
f 130 11 10
f 130 12 11
f 130 15 12
f 129 8 17
f 130 16 15
f 132 18 16
f 17 33 116
f 152 19 18
f 152 21 19
f 152 22 21
f 153 24 25
f 26 22 152
f 26 153 25
f 153 29 24
f 156 30 29
f 156 31 30
f 156 45 31
f 56 54 52
f 56 52 50
f 86 85 88
f 93 92 91
f 93 91 89
f 93 89 90
f 221 43 45
f 221 44 43
f 221 46 44
f 222 48 47
f 222 47 46
f 222 57 48
f 226 56 50
f 224 87 53
f 224 55 54
f 224 53 55
f 56 224 54
f 226 58 57
f 226 50 58
f 93 218 92
f 216 80 64
f 216 81 80
f 216 82 81
f 216 76 69
f 217 69 70
f 218 73 72
f 218 72 92
f 218 71 73
f 217 75 71
f 217 74 75
f 217 70 74
f 216 64 78
f 216 78 77
f 216 77 76
f 216 83 82
f 216 95 83
f 216 96 95
f 216 69 217
f 218 217 71
f 243 88 85
f 224 85 87
f 220 90 88
f 93 90 220
f 98 99 100
f 99 101 100
f 100 101 103
f 101 102 103
f 106 103 102
f 106 102 104
f 107 104 109
f 106 105 103
f 106 104 107
f 106 117 105
f 106 107 117
f 107 108 117
f 107 109 111
f 108 111 110
f 108 110 175
f 149 175 176
f 107 111 108
f 108 175 149
f 149 184 150
f 113 114 33
f 33 114 115
f 33 115 116
f 129 130 10
f 129 17 116
f 130 132 16
f 132 151 18
f 151 152 18
f 26 152 153
f 153 156 29
f 108 118 117
f 122 121 120
f 122 134 121
f 123 119 118
f 123 120 119
f 122 120 123
f 108 149 118
f 149 150 118
f 150 123 118
f 129 116 124
f 129 124 125
f 129 125 126
f 129 126 127
f 129 127 131
f 131 127 128
f 131 128 135
f 129 131 130
f 131 133 130
f 130 133 132
f 132 133 151
f 133 154 151
f 122 145 134
f 131 135 141
f 141 135 136
f 141 136 137
f 141 137 142
f 142 137 138
f 142 138 140
f 142 140 139
f 145 142 139
f 131 141 146
f 141 142 146
f 145 143 134
f 145 144 143
f 145 139 144
f 122 148 145
f 145 148 142
f 122 167 148
f 122 123 169
f 122 169 167
f 131 146 133
f 142 147 146
f 142 148 147
f 133 146 158
f 133 158 154
f 146 147 159
f 147 167 159
f 146 159 158
f 148 167 147
f 150 171 123
f 151 155 152
f 151 154 155
f 154 163 155
f 154 164 163
f 152 155 153
f 155 165 153
f 155 163 165
f 153 165 156
f 156 157 221
f 165 157 156
f 123 171 169
f 154 158 164
f 158 160 164
f 159 167 162
f 159 162 161
f 158 159 161
f 158 161 160
f 164 160 165
f 163 164 165
f 160 166 165
f 160 161 166
f 161 162 166
f 166 162 169
f 167 168 162
f 167 169 168
f 168 169 162
f 150 230 171
f 150 228 230
f 166 171 170
f 166 170 165
f 165 170 157
f 166 169 171
f 157 170 229
f 171 230 170
f 149 176 177
f 149 177 178
f 149 178 183
f 178 182 183
f 149 183 184
f 150 184 194
f 190 188 192
f 191 188 190
f 241 193 192
f 247 202 186
f 235 186 187
f 241 189 193
f 235 187 189
f 232 194 195
f 232 195 196
f 231 196 198
f 249 199 197
f 249 198 199
f 247 197 200
f 247 200 202
f 202 200 201
f 156 221 45
f 221 222 46
f 222 226 57
f 226 224 56
f 216 97 96
f 216 203 97
f 216 205 203
f 216 209 205
f 216 206 209
f 216 207 206
f 213 211 208
f 213 208 214
f 219 208 207
f 219 214 208
f 239 215 212
f 239 212 219
f 219 212 214
f 216 217 237
f 218 240 217
f 217 240 237
f 216 237 207
f 219 207 237
f 243 85 224
f 243 220 88
f 93 220 218
f 218 220 244
f 150 194 228
f 228 194 232
f 232 196 231
f 221 223 222
f 157 223 221
f 223 227 226
f 222 223 226
f 223 234 227
f 243 224 225
f 227 225 224
f 227 233 225
f 246 225 233
f 246 233 249
f 226 227 224
f 157 229 223
f 170 230 229
f 223 229 234
f 229 230 228
f 229 228 234
f 232 231 233
f 227 234 233
f 232 233 234
f 228 232 234
f 231 249 233
f 235 247 186
f 244 242 240
f 235 241 242
f 244 248 242
f 235 242 248
f 235 248 247
f 239 238 188
f 239 236 215
f 238 192 188
f 239 188 236
f 235 189 241
f 241 192 238
f 239 219 237
f 239 237 238
f 240 238 237
f 218 244 240
f 240 242 238
f 241 238 242
f 231 198 249
f 247 249 197
f 243 245 220
f 243 225 245
f 220 245 244
f 246 248 245
f 246 249 247
f 246 247 248
f 246 245 225
f 244 245 248

