# https://github.com/mikedh/trimesh
v 0.00474681 0.00578022 -0.04066805
v 0.00474681 0.00595255 -0.04057502
v 0.00487900 0.00578022 -0.04057031
v 0.00474681 0.00578022 -0.03827817
v 0.00506058 0.00578022 -0.04042431
v 0.00511364 0.00578022 -0.04037782
v 0.00474681 0.00655457 -0.04022014
v 0.00474681 0.00673838 -0.04010620
v 0.00474681 0.00681503 -0.04005030
v 0.00474681 0.00691555 -0.03996387
v 0.00478176 0.00695121 -0.03990392
v 0.00474681 0.00698191 -0.03990075
v 0.00489383 0.00683899 -0.03990648
v 0.00516850 0.00653139 -0.03989474
v 0.00533431 0.00631863 -0.03987268
v 0.00545001 0.00578022 -0.04004924
v 0.00562537 0.00690330 -0.03903864
v 0.00474681 0.00765764 -0.03913679
v 0.00474681 0.00770241 -0.03907807
v 0.00474681 0.00772842 -0.03903826
v 0.00478985 0.00770408 -0.03904543
v 0.00474681 0.00785819 -0.03882866
v 0.00474681 0.00787520 -0.03880057
v 0.00487860 0.00780159 -0.03882167
v 0.00474681 0.00821583 -0.03815360
v 0.00518941 0.00814015 -0.03789870
v 0.00567880 0.00578022 -0.03977348
v 0.00568780 0.00578022 -0.03976074
v 0.00573832 0.00578022 -0.03968699
v 0.00599660 0.00578022 -0.03929600
v 0.00572134 0.00699153 -0.03881565
v 0.00617693 0.00578022 -0.03900629
v 0.00622952 0.00593256 -0.03885958
v 0.00627586 0.00578022 -0.03881119
v 0.00636935 0.00578022 -0.03861853
v 0.00638907 0.00578022 -0.03857422
v 0.00632413 0.00600513 -0.03864221
v 0.00604921 0.00729796 -0.03791366
v 0.00631267 0.00752081 -0.03699598
v 0.00505130 0.00626939 -0.01755078
v 0.00498020 0.00658788 -0.01755078
v 0.00497090 0.00663159 -0.01755078
v 0.00562231 0.00578022 -0.02210069
v 0.00553707 0.00579843 -0.01755078
v 0.00474681 0.00800337 -0.02505814
v 0.00474867 0.00800233 -0.02102296
v 0.00474681 0.00837982 -0.03783248
v 0.00474681 0.00855896 -0.03736996
v 0.00474681 0.00876068 -0.03683227
v 0.00474681 0.00895106 -0.03611053
v 0.00474681 0.00906530 -0.03564226
v 0.00474681 0.00912748 -0.03526993
v 0.00474681 0.00914496 -0.03514606
v 0.00474681 0.00917284 -0.03493463
v 0.00521327 0.00894225 -0.03527156
v 0.00544779 0.00838632 -0.03694049
v 0.00474681 0.00920573 -0.03467914
v 0.00474681 0.00940523 -0.03300748
v 0.00528166 0.00908443 -0.03407184
v 0.00555557 0.00944749 -0.03053281
v 0.00474681 0.00967572 -0.03053528
v 0.00474681 0.00977522 -0.02949173
v 0.00517902 0.00958340 -0.03053323
v 0.00530272 0.00964076 -0.02963147
v 0.00566863 0.00853358 -0.03595117
v 0.00579557 0.00859824 -0.03527323
v 0.00598221 0.00845687 -0.03527371
v 0.00609436 0.00859636 -0.03408311
v 0.00650463 0.00888373 -0.03053317
v 0.00615675 0.00913283 -0.03053305
v 0.00641348 0.00907273 -0.02964381
v 0.00474681 0.00861901 -0.02210069
v 0.00474867 0.00887504 -0.01755078
v 0.00543420 0.00992251 -0.02640394
v 0.00474681 0.01044099 -0.02217272
v 0.00474681 0.01044734 -0.02210069
v 0.00474867 0.01084885 -0.01755078
v 0.00487533 0.01083644 -0.01755078
v 0.00512834 0.01078726 -0.01755078
v 0.00549922 0.01032531 -0.02179465
v 0.00523795 0.01076409 -0.01755078
v 0.00532984 0.01074423 -0.01755078
v 0.00543003 0.01071887 -0.01755078
v 0.00550973 0.01069650 -0.01755078
v 0.00574131 0.01060795 -0.01755078
v 0.00571808 0.01061920 -0.01755078
v 0.00589133 0.01053130 -0.01755078
v 0.00641584 0.01026137 -0.01755078
v 0.00644977 0.01024346 -0.01755078
v 0.00663939 0.00578022 -0.03797573
v 0.00664156 0.00625808 -0.03778515
v 0.00672229 0.00578022 -0.03776777
v 0.00675493 0.00578022 -0.03767636
v 0.00690180 0.00578022 -0.03722996
v 0.00689082 0.00644265 -0.03693644
v 0.00702289 0.00578022 -0.03684239
v 0.00711442 0.00578022 -0.03649081
v 0.00722705 0.00578022 -0.03604625
v 0.00728282 0.00578022 -0.03579002
v 0.00738759 0.00578022 -0.03525619
v 0.00709448 0.00655294 -0.03608529
v 0.00739453 0.00667947 -0.03444771
v 0.00653162 0.00765413 -0.03606031
v 0.00662071 0.00780904 -0.03527496
v 0.00682727 0.00778352 -0.03445963
v 0.00678111 0.00793419 -0.03413466
v 0.00691773 0.00804078 -0.03299002
v 0.00707807 0.00795092 -0.03245042
v 0.00713554 0.00821072 -0.03075579
v 0.00715457 0.00822556 -0.03053234
v 0.00729648 0.00819173 -0.02961603
v 0.00754623 0.00578022 -0.03439168
v 0.00761142 0.00578022 -0.03391542
v 0.00782360 0.00578022 -0.03233393
v 0.00783431 0.00578022 -0.03223686
v 0.00786149 0.00578022 -0.03193486
v 0.00764704 0.00684460 -0.03240971
v 0.00799784 0.00578022 -0.03037175
v 0.00806658 0.00578022 -0.02946210
v 0.00806823 0.00578022 -0.02943028
v 0.00806603 0.00585578 -0.02945456
v 0.00786578 0.00708348 -0.02955083
v 0.00819683 0.00578022 -0.02633057
v 0.00820319 0.00578022 -0.02614936
v 0.00824451 0.00578022 -0.02409549
v 0.00825334 0.00578022 -0.02344678
v 0.00819891 0.00613504 -0.02614615
v 0.00824403 0.00633713 -0.02378002
v 0.00826917 0.00578022 -0.02210069
v 0.00827637 0.00578268 -0.02148619
v 0.00828241 0.00578477 -0.02096432
v 0.00830956 0.00579568 -0.01823770
v 0.00831380 0.00579761 -0.01775470
v 0.00831495 0.00579843 -0.01755078
v 0.00826346 0.00653603 -0.02147827
v 0.00827291 0.00687810 -0.01755078
v 0.00800091 0.00736465 -0.02624843
v 0.00823025 0.00735994 -0.01755078
v 0.00822215 0.00741911 -0.01755078
v 0.00806723 0.00776703 -0.02158490
v 0.00807732 0.00811877 -0.01755078
v 0.00805424 0.00818235 -0.01755078
v 0.00817328 0.00772216 -0.01755078
v 0.00813074 0.00792037 -0.01755078
v 0.00699689 0.00841520 -0.03053269
v 0.00654765 0.00935554 -0.02638397
v 0.00661402 0.00975912 -0.02175120
v 0.00662464 0.01012622 -0.01755078
v 0.00684773 0.00994487 -0.01755078
v 0.00707530 0.00971630 -0.01755078
v 0.00743199 0.00847425 -0.02633039
v 0.00749887 0.00887761 -0.02167896
v 0.00769601 0.00894175 -0.01755078
v 0.00785102 0.00863605 -0.01755078
v 0.00750936 0.00923799 -0.01755078
v 0.00742470 0.00934718 -0.01755078
f 4 1 3
f 7 12 8
f 12 9 8
f 20 7 2
f 9 12 10
f 58 2 1
f 4 3 43
f 4 45 1
f 12 7 18
f 20 2 22
f 22 2 23
f 7 19 18
f 7 20 19
f 23 2 25
f 25 2 47
f 2 48 47
f 2 49 48
f 49 2 50
f 50 2 51
f 51 2 52
f 2 53 52
f 2 54 53
f 2 57 54
f 2 58 57
f 45 72 1
f 58 1 61
f 72 62 1
f 29 27 28
f 27 32 16
f 30 27 29
f 6 97 5
f 16 94 6
f 27 30 32
f 32 34 16
f 35 16 34
f 16 35 36
f 119 3 5
f 90 16 36
f 92 16 90
f 16 92 93
f 96 6 94
f 16 93 94
f 6 96 97
f 98 5 97
f 5 98 99
f 4 40 41
f 4 41 42
f 4 44 40
f 4 42 46
f 4 43 44
f 40 44 41
f 41 44 42
f 4 46 45
f 42 44 73
f 45 46 72
f 42 73 46
f 43 3 126
f 43 133 44
f 1 62 61
f 46 73 72
f 44 77 73
f 72 73 76
f 44 78 77
f 44 79 78
f 44 81 79
f 44 82 81
f 44 83 82
f 44 84 83
f 44 86 84
f 72 75 62
f 72 76 75
f 73 77 76
f 44 88 87
f 44 85 86
f 44 87 85
f 44 89 88
f 44 148 89
f 44 149 148
f 44 150 149
f 5 99 100
f 5 100 112
f 5 112 113
f 5 113 114
f 5 114 115
f 5 115 116
f 5 116 118
f 3 119 120
f 119 5 118
f 123 3 120
f 3 123 124
f 125 3 124
f 126 3 125
f 43 126 129
f 43 129 130
f 43 130 131
f 43 131 133
f 44 133 134
f 44 134 136
f 44 136 138
f 44 139 143
f 44 138 139
f 44 156 150
f 44 153 155
f 44 155 156
f 44 142 154
f 44 143 144
f 44 144 141
f 44 141 142
f 44 154 153
f 133 131 132
f 1 2 3
f 14 3 2
f 14 2 7
f 14 5 3
f 15 6 5
f 15 5 14
f 14 7 8
f 13 14 8
f 13 8 9
f 13 9 10
f 11 10 12
f 11 13 10
f 11 17 13
f 15 16 6
f 15 27 16
f 15 28 27
f 15 17 28
f 15 14 17
f 13 17 14
f 11 12 21
f 21 12 18
f 11 21 17
f 21 24 17
f 21 18 19
f 21 19 20
f 24 20 22
f 21 20 24
f 24 22 23
f 24 23 26
f 26 23 25
f 26 25 47
f 26 47 56
f 24 31 17
f 24 26 31
f 17 33 28
f 33 29 28
f 33 30 29
f 17 31 33
f 31 38 37
f 33 32 30
f 33 34 32
f 33 35 34
f 33 37 35
f 31 37 33
f 37 36 35
f 37 90 36
f 37 38 91
f 38 39 91
f 26 38 31
f 26 39 38
f 26 56 39
f 56 65 103
f 67 103 65
f 56 103 39
f 67 104 103
f 67 106 104
f 55 49 50
f 56 47 48
f 56 48 49
f 56 49 55
f 55 50 51
f 55 51 52
f 55 52 53
f 56 55 65
f 55 66 65
f 59 53 54
f 63 57 58
f 55 53 59
f 60 54 57
f 63 58 61
f 63 60 57
f 59 54 60
f 55 59 70
f 63 64 60
f 63 61 62
f 67 65 66
f 55 70 66
f 67 66 68
f 66 70 68
f 59 60 70
f 67 68 106
f 68 69 107
f 68 70 69
f 60 146 70
f 70 71 69
f 63 62 74
f 74 62 79
f 63 74 64
f 60 64 74
f 62 75 79
f 76 78 75
f 77 78 76
f 78 79 75
f 74 79 80
f 74 80 85
f 80 79 81
f 80 81 82
f 80 82 83
f 80 83 84
f 80 84 86
f 60 74 146
f 70 146 71
f 69 71 146
f 74 87 146
f 74 85 87
f 80 86 85
f 146 87 88
f 146 88 147
f 147 88 89
f 37 91 90
f 91 92 90
f 91 93 92
f 91 94 93
f 95 96 94
f 91 95 94
f 39 95 91
f 95 103 101
f 95 97 96
f 101 98 97
f 95 101 97
f 101 99 98
f 101 100 99
f 101 102 100
f 101 105 102
f 39 103 95
f 101 103 105
f 103 104 105
f 104 106 105
f 68 107 106
f 105 106 107
f 105 107 108
f 102 105 108
f 102 108 117
f 108 111 117
f 107 109 108
f 107 145 109
f 108 109 111
f 109 145 110
f 109 110 111
f 145 111 110
f 102 112 100
f 102 113 112
f 117 114 113
f 117 115 114
f 117 116 115
f 102 117 113
f 117 122 116
f 121 119 118
f 121 120 119
f 122 118 116
f 122 121 118
f 117 111 122
f 121 123 120
f 121 127 123
f 127 124 123
f 127 125 124
f 127 128 125
f 128 126 125
f 121 137 127
f 122 137 121
f 127 137 128
f 128 129 126
f 128 130 129
f 128 131 130
f 128 135 131
f 135 132 131
f 135 133 132
f 134 133 136
f 135 136 133
f 128 139 135
f 135 138 136
f 151 137 122
f 111 151 122
f 151 152 137
f 128 137 140
f 137 152 140
f 128 140 139
f 135 139 138
f 140 143 139
f 140 141 144
f 140 142 141
f 140 154 142
f 140 144 143
f 145 69 146
f 107 69 145
f 151 146 147
f 145 146 151
f 145 151 111
f 151 147 152
f 147 150 152
f 152 150 156
f 147 89 148
f 147 148 149
f 147 149 150
f 140 152 154
f 152 153 154
f 152 156 155
f 152 155 153

