# https://github.com/mikedh/trimesh
v -0.01574111 -0.00399831 -0.02620281
v -0.01696930 0.00720368 -0.01299909
v -0.01742007 0.00720368 -0.00021174
v -0.01574111 -0.00590981 -0.02620281
v -0.01574111 -0.00361575 -0.03752186
v -0.01696930 0.00720368 -0.02249919
v -0.01762912 0.00720368 -0.00001450
v -0.01820402 -0.00590981 -0.00001450
v -0.01799823 -0.00590981 -0.00021174
v -0.01696930 -0.00591109 -0.01299909
v -0.01574111 -0.00591109 -0.04920251
v -0.01574111 -0.00361575 -0.04091867
v -0.02079106 0.00720368 -0.02249919
v -0.01574111 -0.00399189 -0.09230912
v -0.02830393 0.00676079 -0.10411030
v -0.03000576 0.00676079 -0.11182435
v -0.02079106 0.00720368 -0.00001450
v -0.02079433 -0.00591109 -0.00001450
v -0.01574111 -0.00591109 -0.08715912
v -0.04079163 0.00676079 -0.11182435
v -0.04199368 0.00675951 -0.10789062
v -0.04230400 0.00676079 -0.09448966
v -0.01574111 -0.00399702 -0.09230912
v -0.03000576 0.00624729 -0.11193392
v -0.02392360 0.00663883 -0.00022269
v -0.02371781 0.00663883 -0.00001450
v -0.04230400 0.00676079 -0.05955730
v -0.02390073 -0.00591109 -0.00001450
v -0.02502767 -0.00591109 -0.08715912
v -0.03050553 -0.00349764 -0.10321179
v -0.03050553 -0.00201877 -0.10872339
v -0.04079163 0.00624729 -0.11193392
v -0.04199368 0.00485314 -0.10780296
v -0.04911131 -0.00148986 -0.05586464
v -0.04594937 0.00234726 -0.04168569
v -0.03050553 -0.00148986 -0.10936988
v -0.03050553 -0.00055144 -0.11047658
v -0.03000576 -0.00031780 -0.10997254
v -0.03050553 0.00358993 -0.11156136
v -0.02481535 0.00301096 -0.00022269
v -0.02461936 0.00298914 -0.00001450
v -0.04591344 0.00234726 -0.04157612
v -0.04537774 0.00234726 -0.04003112
v -0.04472445 0.00234726 -0.03846420
v -0.04358772 0.00234726 -0.03580154
v -0.04283316 0.00234726 -0.03428941
v -0.04206881 0.00234726 -0.03278824
v -0.02461936 -0.00298928 -0.00001450
v -0.02481861 -0.00301239 -0.00021174
v -0.02410326 -0.00591109 -0.00021174
v -0.02502767 -0.00591109 -0.05475793
v -0.04242486 -0.00590981 -0.03393878
v -0.04102028 -0.00590981 -0.08715912
v -0.04029512 -0.00349764 -0.10321179
v -0.03578413 -0.00281854 -0.10574296
v -0.04029512 -0.00201877 -0.10872339
v -0.04029512 0.00358993 -0.11156136
v -0.04029512 -0.00055144 -0.11047658
v -0.04079163 -0.00031780 -0.10997254
v -0.04199368 0.00242814 -0.10640041
v -0.04902311 -0.00203545 -0.05586464
v -0.04854948 -0.00449768 -0.05522911
v -0.04834696 -0.00449768 -0.05390325
v -0.04824243 -0.00152067 -0.05028729
v -0.04825876 -0.00148986 -0.05036400
v -0.04611596 -0.00123054 -0.04168569
v -0.04820976 -0.00148986 -0.05012293
v -0.04716450 -0.00148986 -0.04534548
v -0.04029512 -0.00148986 -0.10936988
v -0.02481861 -0.00084414 -0.00021174
v -0.04184343 -0.00104312 -0.03186782
v -0.04185322 -0.00324731 -0.03174729
v -0.04535488 -0.00104312 -0.03946133
v -0.04436840 -0.00118433 -0.03703974
v -0.04373471 -0.00104312 -0.03560431
v -0.04314021 -0.00156432 -0.03434420
v -0.04060870 -0.00497781 -0.02992835
v -0.02502113 -0.00591109 -0.01866409
v -0.04228766 -0.00541300 -0.03321558
v -0.04171603 -0.00590981 -0.03252526
v -0.04222560 -0.00590981 -0.03350048
v -0.04257185 -0.00552212 -0.03393878
v -0.04477671 -0.00449768 -0.03890250
v -0.04508376 -0.00449768 -0.03982293
v -0.04629235 -0.00449768 -0.04367995
v -0.04641321 -0.00449768 -0.04410729
v -0.04244119 -0.00590724 -0.03399356
v -0.04244119 -0.00590724 -0.03941750
v -0.04861807 -0.00449768 -0.05586464
v -0.04229746 -0.00399702 -0.09447870
v -0.03578740 -0.00281854 -0.10574296
v -0.04079163 -0.00156560 -0.10849328
v -0.04761854 -0.00449768 -0.04938878
v -0.04507396 -0.00405094 -0.03946133
v -0.04583505 -0.00148986 -0.04090772
v -0.04589058 -0.00130500 -0.04101729
v -0.04746175 -0.00449768 -0.04867655
v -0.04287890 -0.00346812 -0.03393878
v -0.04271230 -0.00480707 -0.03393878
v -0.04354199 -0.00361190 -0.03537420
v -0.04426714 -0.00148986 -0.03683154
v -0.04363998 -0.00449768 -0.03600973
f 1 2 3
f 1 3 4
f 1 4 11
f 1 11 19
f 1 19 23
f 1 23 14
f 1 14 12
f 1 12 5
f 1 5 2
f 2 5 12
f 2 12 6
f 2 6 13
f 2 13 17
f 2 17 7
f 2 7 3
f 3 7 8
f 3 8 9
f 3 9 4
f 4 9 10
f 4 10 11
f 6 12 14
f 6 14 15
f 6 15 16
f 6 16 20
f 6 20 13
f 7 17 26
f 7 26 41
f 7 41 48
f 7 48 28
f 7 28 18
f 7 18 8
f 8 18 9
f 9 18 10
f 10 18 28
f 10 28 50
f 10 50 78
f 10 78 51
f 10 51 29
f 10 29 19
f 10 19 11
f 13 20 21
f 13 21 22
f 13 22 27
f 13 27 17
f 14 23 24
f 14 24 16
f 14 16 15
f 16 24 32
f 16 32 20
f 17 25 26
f 17 27 25
f 19 29 54
f 19 54 30
f 19 30 31
f 19 31 23
f 20 32 21
f 21 32 33
f 21 33 34
f 21 34 22
f 22 34 35
f 22 35 27
f 23 31 36
f 23 36 37
f 23 37 38
f 23 38 24
f 24 38 37
f 24 37 39
f 24 39 57
f 24 57 32
f 25 40 41
f 25 41 26
f 25 27 35
f 25 35 42
f 25 42 43
f 25 43 44
f 25 44 45
f 25 45 46
f 25 46 47
f 25 47 40
f 28 48 49
f 28 49 50
f 29 51 52
f 29 52 53
f 29 53 54
f 30 54 91
f 30 91 55
f 30 55 31
f 31 55 91
f 31 91 56
f 31 56 69
f 31 69 36
f 32 57 58
f 32 58 59
f 32 59 33
f 33 60 34
f 33 59 60
f 34 60 61
f 34 61 62
f 34 62 63
f 34 63 64
f 34 64 65
f 34 65 35
f 35 66 42
f 35 65 67
f 35 67 68
f 35 68 66
f 36 69 58
f 36 58 37
f 37 58 57
f 37 57 39
f 40 70 41
f 40 47 71
f 40 71 72
f 40 72 70
f 41 70 49
f 41 49 48
f 42 66 73
f 42 73 43
f 43 73 74
f 43 74 44
f 44 74 45
f 45 74 75
f 45 75 46
f 46 75 76
f 46 76 71
f 46 71 47
f 49 70 72
f 49 72 77
f 49 77 50
f 50 77 79
f 50 79 80
f 50 80 81
f 50 81 52
f 50 52 78
f 51 78 52
f 52 81 79
f 52 79 82
f 52 82 83
f 52 83 84
f 52 84 85
f 52 85 86
f 52 86 87
f 52 87 88
f 52 88 53
f 53 89 90
f 53 90 54
f 53 88 89
f 54 56 91
f 54 90 56
f 56 90 92
f 56 92 69
f 58 69 59
f 59 69 92
f 59 92 60
f 60 92 89
f 60 89 61
f 61 89 62
f 62 89 87
f 62 87 63
f 63 93 64
f 63 87 93
f 64 93 68
f 64 68 67
f 64 67 65
f 66 85 94
f 66 94 95
f 66 95 96
f 66 96 73
f 66 68 85
f 68 93 97
f 68 97 86
f 68 86 85
f 71 76 72
f 72 76 98
f 72 98 99
f 72 99 79
f 72 79 77
f 73 94 100
f 73 100 101
f 73 101 74
f 73 96 95
f 73 95 94
f 74 101 75
f 75 101 100
f 75 100 76
f 76 100 98
f 79 99 82
f 79 81 80
f 82 99 102
f 82 102 83
f 83 102 94
f 83 94 84
f 84 94 85
f 86 97 87
f 87 97 93
f 87 89 88
f 89 92 90
f 94 102 100
f 98 100 99
f 99 100 102

