# https://github.com/mikedh/trimesh
v 0.01599944 -0.00319245 -0.03700641
v 0.01599944 -0.00449987 -0.03700641
v 0.01599944 -0.00319245 -0.03954610
v 0.01599887 -0.00149941 -0.08499885
v 0.01599887 -0.00150058 -0.02845347
v 0.01599887 -0.00150097 -0.02352244
v 0.01579803 -0.00449987 -0.03625584
v 0.01599887 -0.00450415 -0.09189357
v 0.01599944 -0.00449987 -0.03954610
v 0.01599887 -0.00319206 -0.02352244
v 0.01366543 -0.00319206 -0.01300582
v 0.01599887 -0.00150097 -0.10049887
v 0.01599887 -0.00149941 -0.09399689
v 0.01366543 -0.00052896 -0.01300582
v 0.01366543 -0.00100524 -0.01284000
v 0.01524942 -0.00449987 -0.03570601
v 0.01300562 -0.00450415 -0.09189357
v 0.01599887 -0.00450415 -0.10049014
v 0.01449941 -0.00449987 -0.03550528
v 0.01599887 -0.00319128 -0.10049887
v 0.01366543 -0.00199553 -0.01284000
v 0.01342318 -0.00289944 -0.01284000
v 0.01313044 -0.00319206 -0.01284000
v 0.01324050 -0.00130524 -0.10049014
v 0.01310094 -0.00052896 -0.04373530
v 0.01366543 -0.00052896 -0.02351371
v 0.01579803 -0.00150097 -0.10124943
v 0.01353835 -0.00052896 -0.01284000
v 0.01200258 -0.00450415 -0.09216412
v 0.01266239 -0.00449987 -0.03550528
v 0.01211208 -0.00449987 -0.03561001
v 0.01579746 -0.00450415 -0.10124070
v 0.01579803 -0.00319128 -0.10124943
v 0.01020527 -0.00319206 -0.01284000
v 0.01524885 -0.00150097 -0.10179053
v 0.01449941 -0.00150097 -0.10199127
v 0.01350828 -0.00150058 -0.10199999
v 0.01020471 -0.00130524 -0.10049014
v 0.01020527 -0.00052896 -0.04373530
v 0.01020527 -0.00052896 -0.01284000
v 0.01127016 -0.00450415 -0.09289722
v 0.01163779 -0.00449987 -0.03590674
v 0.01524885 -0.00450415 -0.10179053
v 0.01020414 -0.00449987 -0.04292364
v 0.01020471 -0.00449987 -0.03736423
v 0.01449941 -0.00319128 -0.10199127
v 0.01350828 -0.00319206 -0.10199999
v 0.01250127 -0.00150058 -0.10199999
v 0.01144036 -0.00150058 -0.10155489
v 0.01020584 -0.00449909 -0.10199127
v 0.01020471 -0.00269321 -0.10049014
v 0.01020414 -0.00319206 -0.07996309
v 0.01020471 -0.00130524 -0.05954077
v 0.01192713 -0.00150058 -0.10187781
v 0.01020414 -0.00319206 -0.04292364
v 0.01020584 -0.00450415 -0.09654531
v 0.01449884 -0.00450415 -0.10199127
v 0.01020414 -0.00449987 -0.06344196
v 0.01250127 -0.00319206 -0.10199999
v 0.01020584 -0.00450415 -0.10199127
v 0.01020471 -0.00319206 -0.10027195
v 0.01020414 -0.00399947 -0.07996309
f 1 2 9
f 1 9 3
f 1 3 13
f 1 13 4
f 1 4 5
f 1 5 6
f 1 6 10
f 1 10 2
f 2 7 8
f 2 8 18
f 2 18 9
f 2 10 11
f 2 11 7
f 3 9 20
f 3 20 12
f 3 12 13
f 4 13 26
f 4 26 14
f 4 14 5
f 5 14 6
f 6 14 15
f 6 15 21
f 6 21 10
f 7 16 8
f 7 11 16
f 8 17 29
f 8 29 41
f 8 41 56
f 8 56 60
f 8 60 57
f 8 57 43
f 8 43 32
f 8 32 18
f 8 16 19
f 8 19 30
f 8 30 17
f 9 18 20
f 10 21 11
f 11 21 22
f 11 22 23
f 11 23 16
f 12 24 25
f 12 25 26
f 12 26 13
f 12 20 33
f 12 33 27
f 12 27 24
f 14 26 25
f 14 25 39
f 14 39 40
f 14 40 28
f 14 28 15
f 15 28 40
f 15 40 34
f 15 34 23
f 15 23 22
f 15 22 21
f 16 23 19
f 17 30 31
f 17 31 29
f 18 32 33
f 18 33 20
f 19 23 34
f 19 34 30
f 24 27 35
f 24 35 36
f 24 36 37
f 24 37 48
f 24 48 38
f 24 38 39
f 24 39 25
f 27 33 43
f 27 43 35
f 29 31 42
f 29 42 41
f 30 34 31
f 31 34 42
f 32 43 33
f 34 40 55
f 34 55 44
f 34 44 45
f 34 45 42
f 35 43 46
f 35 46 36
f 36 46 47
f 36 47 37
f 37 47 59
f 37 59 48
f 38 49 50
f 38 50 60
f 38 60 51
f 38 51 62
f 38 62 52
f 38 52 55
f 38 55 53
f 38 53 40
f 38 40 39
f 38 48 54
f 38 54 49
f 40 53 55
f 41 42 45
f 41 45 56
f 43 57 46
f 44 55 52
f 44 52 62
f 44 62 58
f 44 58 60
f 44 60 56
f 44 56 45
f 46 57 47
f 47 57 60
f 47 60 59
f 48 50 54
f 48 59 60
f 48 60 50
f 49 54 50
f 51 60 61
f 51 61 62
f 58 62 60
f 60 62 61

