# https://github.com/mikedh/trimesh
v 0.01020414 0.01910667 -0.03287764
v 0.01020414 0.01910667 -0.02146589
v 0.01020414 0.02326129 -0.03287764
v 0.01020632 0.00917891 -0.03849019
v 0.01020632 -0.00052762 -0.03532230
v 0.01020414 0.02136097 -0.02146589
v 0.01020632 -0.00052762 -0.02448714
v 0.01020632 0.00917891 -0.02146589
v 0.01309275 0.01909736 -0.03849019
v 0.01020632 0.01909736 -0.03849019
v 0.01020414 0.02326129 -0.03280931
v 0.01022375 0.02326362 -0.03281098
v 0.02617861 0.01839172 -0.03479904
v 0.01310146 0.00917891 -0.03849019
v 0.01310146 -0.00052762 -0.03532230
v 0.01222355 0.02135864 -0.02146589
v 0.01146981 0.02194085 -0.02319565
v 0.01020414 0.02147974 -0.02182084
v 0.01310146 -0.00052762 -0.02448714
v 0.01350011 0.00917891 -0.02146589
v 0.01310146 0.01909270 -0.03849019
v 0.02604354 0.01790733 -0.03529897
v 0.01020414 0.02302608 -0.02927314
v 0.01052873 0.02305635 -0.02928647
v 0.01111255 0.02311690 -0.02948977
v 0.02617861 0.01839172 -0.02500207
v 0.02622000 0.01837542 -0.03479904
v 0.02854439 0.01066237 -0.03649880
v 0.02842675 0.00786079 -0.03649880
v 0.02701730 0.00543416 -0.03649880
v 0.02465588 0.00394139 -0.03649880
v 0.02326168 0.00365727 -0.03649880
v 0.02377143 0.00000335 -0.03529897
v 0.02383679 -0.00049968 -0.03479904
v 0.01333455 0.02135166 -0.02146589
v 0.01317335 0.02147043 -0.02180418
v 0.01020414 0.02192688 -0.02321565
v 0.01244357 0.02231113 -0.02453213
v 0.01241961 0.02233442 -0.02462045
v 0.02383679 -0.00049968 -0.02500207
v 0.02377143 0.00000335 -0.02450214
v 0.02567539 0.00051569 -0.02450214
v 0.02911296 0.00143557 -0.02450547
v 0.03059429 0.00268382 -0.02450547
v 0.03181858 0.00721571 -0.02450547
v 0.03195800 0.01050401 -0.02450547
v 0.01350011 0.01909270 -0.02146589
v 0.02887333 0.01621893 -0.03529897
v 0.02734625 0.01319612 -0.03649880
v 0.02913474 0.01665209 -0.03479904
v 0.01020414 0.02301676 -0.02914482
v 0.01020414 0.02290964 -0.02830661
v 0.01170073 0.02287471 -0.02730008
v 0.02622000 0.01837542 -0.02500207
v 0.01201878 0.02267210 -0.02611358
v 0.01240000 0.02235305 -0.02469378
v 0.03195800 0.01050401 -0.03529730
v 0.03093413 0.01364559 -0.03529897
v 0.03178808 0.01103498 -0.03529897
v 0.03181858 0.00721571 -0.03529730
v 0.03059429 0.00268149 -0.03529730
v 0.02911296 0.00143557 -0.03529730
v 0.02935041 0.00098145 -0.03479904
v 0.03178808 0.01103498 -0.02450214
v 0.03093413 0.01364559 -0.02450214
v 0.02887333 0.01621893 -0.02450214
v 0.02604354 0.01790733 -0.02450214
v 0.01020414 0.02210852 -0.02389889
v 0.02935041 0.00098145 -0.02500373
v 0.03109316 0.00245094 -0.02500373
v 0.03230654 0.00710625 -0.02500373
v 0.03235447 0.00732982 -0.02500373
v 0.03245904 0.01057154 -0.02500373
v 0.03242854 0.01075785 -0.02500373
v 0.02920227 0.01659620 -0.03479904
v 0.03130882 0.01399491 -0.03479904
v 0.02913474 0.01665209 -0.02500207
v 0.01020414 0.02267676 -0.02651852
v 0.01020414 0.02260689 -0.02613524
v 0.01020414 0.02230182 -0.02468211
v 0.03242854 0.01075785 -0.03479904
v 0.03245904 0.01057387 -0.03479904
v 0.03235447 0.00732982 -0.03479904
v 0.03137636 0.01387614 -0.03479904
v 0.03230654 0.00710858 -0.03479904
v 0.03109316 0.00244861 -0.03479904
v 0.03233487 0.01103498 -0.02500207
v 0.03137636 0.01387614 -0.02500207
v 0.03130882 0.01399491 -0.02500207
v 0.02920227 0.01659620 -0.02500207
v 0.03109316 0.00244861 -0.02906650
v 0.03230654 0.00710625 -0.02906650
v 0.03245904 0.01057154 -0.02906650
v 0.03245904 0.01057387 -0.02906650
f 1 2 6
f 1 6 18
f 1 18 37
f 1 37 68
f 1 68 80
f 1 80 79
f 1 79 78
f 1 78 52
f 1 52 51
f 1 51 23
f 1 23 11
f 1 11 3
f 1 3 10
f 1 10 4
f 1 4 5
f 1 5 7
f 1 7 2
f 2 7 8
f 2 8 20
f 2 20 47
f 2 47 35
f 2 35 16
f 2 16 6
f 3 9 10
f 3 11 12
f 3 12 13
f 3 13 9
f 4 14 15
f 4 15 5
f 4 10 9
f 4 9 21
f 4 21 14
f 5 15 19
f 5 19 7
f 6 16 17
f 6 17 18
f 7 19 20
f 7 20 8
f 9 13 22
f 9 22 21
f 11 23 12
f 12 23 24
f 12 24 25
f 12 25 13
f 13 26 54
f 13 54 27
f 13 27 22
f 13 25 26
f 14 28 29
f 14 29 30
f 14 30 31
f 14 31 32
f 14 32 33
f 14 33 15
f 14 21 28
f 15 33 34
f 15 34 40
f 15 40 19
f 16 35 36
f 16 36 17
f 17 37 18
f 17 36 38
f 17 38 39
f 17 39 37
f 19 40 41
f 19 41 20
f 20 41 42
f 20 42 43
f 20 43 44
f 20 44 45
f 20 45 46
f 20 46 47
f 21 22 48
f 21 48 49
f 21 49 28
f 22 27 50
f 22 50 48
f 23 51 24
f 24 51 52
f 24 52 53
f 24 53 25
f 25 53 26
f 26 53 55
f 26 55 56
f 26 56 39
f 26 39 38
f 26 38 35
f 26 35 54
f 27 54 77
f 27 77 50
f 28 57 29
f 28 49 58
f 28 58 59
f 28 59 57
f 29 60 61
f 29 61 30
f 29 57 60
f 30 61 62
f 30 62 31
f 31 62 33
f 31 33 32
f 33 62 34
f 34 62 63
f 34 63 69
f 34 69 40
f 35 38 36
f 35 47 46
f 35 46 64
f 35 64 65
f 35 65 66
f 35 66 67
f 35 67 54
f 37 39 68
f 39 56 68
f 40 69 43
f 40 43 41
f 41 43 42
f 43 69 44
f 44 69 70
f 44 70 45
f 45 71 72
f 45 72 46
f 45 70 71
f 46 73 74
f 46 74 64
f 46 72 73
f 48 50 75
f 48 75 76
f 48 76 58
f 48 58 49
f 50 77 90
f 50 90 75
f 52 78 53
f 53 78 55
f 54 67 77
f 55 78 79
f 55 79 80
f 55 80 56
f 56 80 68
f 57 81 82
f 57 82 83
f 57 83 60
f 57 59 81
f 58 76 84
f 58 84 81
f 58 81 59
f 60 83 85
f 60 85 86
f 60 86 61
f 61 86 63
f 61 63 62
f 63 86 91
f 63 91 69
f 64 74 65
f 65 74 87
f 65 87 88
f 65 88 89
f 65 89 66
f 66 89 90
f 66 90 77
f 66 77 67
f 69 91 70
f 70 91 71
f 71 92 83
f 71 83 72
f 71 91 86
f 71 86 92
f 72 83 93
f 72 93 73
f 73 93 82
f 73 82 94
f 73 94 74
f 74 94 82
f 74 82 81
f 74 81 84
f 74 84 88
f 74 88 87
f 75 90 89
f 75 89 76
f 76 89 88
f 76 88 84
f 82 93 83
f 83 92 85
f 85 92 86

