# https://github.com/mikedh/trimesh
v 0.03630189 -0.01399065 -0.06265194
v 0.03618850 -0.01364997 -0.09343746
v 0.03850712 -0.01399065 -0.06265194
v 0.03603195 -0.01399065 -0.06085891
v 0.03618850 -0.01210113 -0.10191927
v 0.03651937 -0.01364997 -0.09174578
v 0.03601249 -0.01399065 -0.06071858
v 0.03502919 -0.00706126 -0.02941074
v 0.03801632 -0.01364997 -0.08299891
v 0.03841658 -0.01364997 -0.07986501
v 0.03844789 -0.01364997 -0.07949861
v 0.03908678 -0.01364997 -0.07152353
v 0.03903262 -0.01364997 -0.06723585
v 0.03895731 -0.01364997 -0.06414093
v 0.03880584 -0.01318989 -0.05684408
v 0.03835058 -0.01399065 -0.06080434
v 0.03618850 -0.01051015 -0.10192706
v 0.03729619 -0.01086839 -0.10179453
v 0.03682485 -0.01144788 -0.10184131
v 0.03503003 0.01649795 -0.09297751
v 0.03503003 0.01882999 -0.09420924
v 0.03503003 0.01899857 -0.09424822
v 0.03600910 -0.01399065 -0.05301635
v 0.03600910 -0.01398714 -0.05605671
v 0.03502919 -0.00706126 -0.02615990
v 0.03502919 0.00149774 -0.04909508
v 0.03803917 -0.01362188 -0.08299891
v 0.03863998 -0.01340413 -0.07959996
v 0.03864590 -0.01341115 -0.07949861
v 0.03921794 -0.01349193 -0.07137541
v 0.03959197 -0.01294404 -0.06357184
v 0.03806371 -0.01388880 -0.05676612
v 0.03800701 -0.01399065 -0.05714032
v 0.03806032 -0.01399065 -0.05757688
v 0.03898608 -0.01299321 -0.05682069
v 0.03873983 -0.01264902 -0.05293840
v 0.03861121 -0.01278248 -0.05293060
v 0.03618850 -0.00981827 -0.10192706
v 0.03779969 -0.00706126 -0.10173217
v 0.03944050 -0.00706126 -0.10152948
v 0.03848512 -0.00909126 -0.10164642
v 0.03889131 -0.01229079 -0.08338870
v 0.03835988 -0.01316179 -0.08308467
v 0.03823972 -0.01333740 -0.08304569
v 0.03503003 0.01981338 -0.09424822
v 0.03600910 -0.01399065 -0.04783216
v 0.03600910 -0.01368861 -0.04603134
v 0.03600910 -0.01272629 -0.04131489
v 0.03600910 -0.01177802 -0.03754953
v 0.03600910 -0.01122662 -0.03575650
v 0.03600910 -0.01072439 -0.03439224
v 0.03518827 -0.00706126 -0.02633141
v 0.03502919 -0.00681893 -0.02593382
v 0.03502919 0.00510116 -0.04909508
v 0.03963936 -0.01207304 -0.07802521
v 0.04012340 -0.01215382 -0.06992540
v 0.04015809 -0.01191499 -0.06254279
v 0.04030279 -0.01114935 -0.05595536
v 0.03982807 -0.01191499 -0.05646209
v 0.03980860 -0.01194309 -0.05646988
v 0.03967659 -0.01213274 -0.05657123
v 0.03788770 -0.01348490 -0.05307872
v 0.03792831 -0.01399065 -0.05668037
v 0.03954712 -0.01176046 -0.05315668
v 0.03940919 -0.01191148 -0.05310990
v 0.03968929 -0.01089648 -0.04967976
v 0.03782169 -0.01192202 -0.04485418
v 0.03797570 -0.01301428 -0.05084133
v 0.03680624 0.00349964 -0.10184131
v 0.03904532 0.00349964 -0.10157625
v 0.03939396 -0.00719121 -0.10152948
v 0.04041195 -0.00200734 -0.10139695
v 0.04021479 -0.00419890 -0.10140475
v 0.03971467 -0.00629913 -0.10147491
v 0.03944389 -0.00706126 -0.10151389
v 0.03994146 -0.00994119 -0.08532206
v 0.03982130 -0.01022567 -0.08511937
v 0.03961905 -0.01069980 -0.08476856
v 0.03956574 -0.01087541 -0.08444113
v 0.03939650 -0.01128281 -0.08400457
v 0.03917394 -0.01175695 -0.08366935
v 0.03503003 0.02012947 -0.09374929
v 0.03781408 0.01997845 -0.09403774
v 0.03860190 0.01943758 -0.09480952
v 0.03591940 0.01899857 -0.09534743
v 0.03733089 0.01288048 -0.09962731
v 0.03720396 0.01068190 -0.10047705
v 0.03710833 0.00842010 -0.10111630
v 0.03723357 -0.01399065 -0.05301635
v 0.03731227 -0.01398714 -0.05331259
v 0.03748151 -0.01096673 -0.03979472
v 0.03696955 -0.01019757 -0.03559279
v 0.03673008 -0.00999738 -0.03439224
v 0.03666323 -0.00706126 -0.02864675
v 0.03532452 -0.00682244 -0.02626125
v 0.03667423 -0.00704019 -0.02863896
v 0.03593464 -0.00482756 -0.02531016
v 0.03502919 -0.00482054 -0.02436687
v 0.03502919 0.00510116 -0.03900734
v 0.03503003 0.02188903 -0.06330678
v 0.03503003 0.02182581 -0.06974609
v 0.03503003 0.02182230 -0.06997217
v 0.03503003 0.02165372 -0.07708192
v 0.03503003 0.02163967 -0.07744832
v 0.03503003 0.02141841 -0.08312365
v 0.03503003 0.02132007 -0.08544679
v 0.03503003 0.02118310 -0.08797262
v 0.03503003 0.02096535 -0.09190949
v 0.03503003 0.02087403 -0.09219793
v 0.03503003 0.02070896 -0.09263450
v 0.03503003 0.02051931 -0.09300090
v 0.04028079 -0.01033103 -0.08051986
v 0.04034595 -0.01039425 -0.07949861
v 0.04054819 -0.01059444 -0.07615422
v 0.04092222 -0.01066468 -0.06821032
v 0.04105762 -0.01031347 -0.06265194
v 0.04110077 -0.01019757 -0.06087450
v 0.04053889 -0.01068576 -0.05544864
v 0.04055666 -0.01049259 -0.05438841
v 0.04040942 -0.01066820 -0.05401421
v 0.04015809 -0.01100185 -0.05363222
v 0.03734020 -0.01398714 -0.05343733
v 0.03955389 -0.01172534 -0.05301635
v 0.04091207 -0.00842396 -0.04792571
v 0.03943796 -0.00980422 -0.04392648
v 0.03705164 0.00598270 -0.10148270
v 0.03873645 0.00772822 -0.10124883
v 0.03878215 0.00555071 -0.10152168
v 0.03878384 0.00510467 -0.10154507
v 0.04023340 0.00557178 -0.10134238
v 0.04012932 0.00510467 -0.10137356
v 0.04036880 0.00349964 -0.10139695
v 0.04040688 -0.00104502 -0.10139695
v 0.04030618 -0.00745111 -0.09228369
v 0.04150442 0.00349964 -0.09405333
v 0.04146380 -0.00104502 -0.09438854
v 0.04130979 -0.00314878 -0.09421704
v 0.04060066 -0.00527009 -0.09643884
v 0.04129032 -0.00543164 -0.08979684
v 0.04049488 -0.00706126 -0.09181594
v 0.04069290 -0.00870142 -0.08366935
v 0.03726658 0.02021024 -0.09364795
v 0.03757545 0.02008030 -0.09386623
v 0.03736051 0.02022078 -0.09300090
v 0.03805102 0.02028751 -0.08814413
v 0.03897424 0.01966938 -0.09061539
v 0.03872376 0.01932519 -0.09495764
v 0.03757545 0.01902315 -0.09532404
v 0.03605480 0.01887213 -0.09549555
v 0.03637298 0.01849985 -0.09589313
v 0.03746882 0.01473136 -0.09870741
v 0.03870176 0.01151778 -0.10017301
v 0.03868906 0.01474892 -0.09869961
v 0.03869583 0.01288048 -0.09962731
v 0.03872714 0.00842010 -0.10111630
v 0.03844112 -0.00804465 -0.03489117
v 0.03832857 -0.00795685 -0.03439224
v 0.03783016 -0.00706126 -0.03128952
v 0.03672331 -0.00706126 -0.02877149
v 0.03739266 -0.00501370 -0.02766448
v 0.03850205 -0.00537194 -0.03047876
v 0.03590248 -0.00300478 -0.02406284
v 0.03749675 -0.00313824 -0.02638598
v 0.03502919 -0.00300829 -0.02322869
v 0.03502919 0.00094283 -0.02249588
v 0.03503003 0.02117607 -0.03900734
v 0.03503003 0.02128144 -0.04086274
v 0.03503003 0.02142894 -0.04367701
v 0.03503003 0.02155187 -0.04656145
v 0.03503003 0.02172747 -0.05116875
v 0.03503003 0.02184337 -0.05880082
v 0.03503003 0.02188903 -0.06299495
v 0.03537275 0.02180474 -0.06322103
v 0.03549714 0.02170640 -0.06992540
v 0.03536344 0.02156592 -0.07729241
v 0.03757545 0.02051580 -0.08621078
v 0.03582040 0.02070194 -0.09264229
v 0.03523059 0.02089862 -0.09213556
v 0.03632389 0.02053336 -0.09300090
v 0.04136310 -0.00897536 -0.07402598
v 0.04160427 -0.00903507 -0.06625358
v 0.04126748 -0.00981475 -0.06265194
v 0.04216192 -0.00726145 -0.06403958
v 0.04215177 -0.00719121 -0.06265194
v 0.04206461 -0.00706126 -0.05742876
v 0.04109570 -0.00938628 -0.05406878
v 0.04064551 -0.01047854 -0.05544864
v 0.04061420 -0.01049610 -0.05506664
v 0.04061758 -0.01048205 -0.05501207
v 0.04106439 -0.00922121 -0.05301635
v 0.04061420 -0.01044342 -0.05473143
v 0.04173035 -0.00706126 -0.05182360
v 0.04157381 -0.00706126 -0.05000718
v 0.04125901 -0.00706126 -0.04677973
v 0.04079275 -0.00706126 -0.04318588
v 0.04055666 -0.00746515 -0.04250765
v 0.04004385 -0.00660820 -0.03782238
v 0.04018601 0.00772119 -0.10106953
v 0.04014793 0.01146861 -0.10002489
v 0.04121332 0.00998299 -0.09400655
v 0.04175659 -0.00563535 -0.08432420
v 0.04152049 -0.00706126 -0.08140078
v 0.04134702 0.01000055 -0.09299310
v 0.04218308 0.01010591 -0.08656938
v 0.04246402 0.00349964 -0.08669411
v 0.04246402 0.00149423 -0.08669411
v 0.04239463 -0.00104502 -0.08716186
v 0.04310799 -0.00104502 -0.07989620
v 0.03911471 0.02044556 -0.07574884
v 0.03977983 0.01976772 -0.08349005
v 0.04003031 0.01872111 -0.09075571
v 0.03944219 0.01843663 -0.09584636
v 0.03870768 0.01902315 -0.09532404
v 0.03867045 0.01773772 -0.09661814
v 0.03769138 0.01700018 -0.09721842
v 0.03763553 0.01648741 -0.09760041
v 0.03762368 0.01636449 -0.09767836
v 0.03867383 0.01628371 -0.09774853
v 0.04011747 0.01602381 -0.09776412
v 0.04013355 0.01468219 -0.09856708
v 0.03936773 -0.00590227 -0.03383874
v 0.03896070 -0.00565642 -0.03225620
v 0.03875930 -0.00340165 -0.02916907
v 0.03976291 -0.00379149 -0.03244330
v 0.03970621 -0.00377042 -0.03225620
v 0.03698140 -0.00140677 -0.02481123
v 0.03565623 -0.00104151 -0.02293245
v 0.03520774 -0.00134707 -0.02252707
v 0.03844789 -0.00152969 -0.02754755
v 0.03790631 -0.00104151 -0.02632361
v 0.03502919 -0.00129438 -0.02233997
v 0.03502919 -0.00104151 -0.02228540
v 0.03535159 0.00073913 -0.02282331
v 0.03973498 0.01773421 -0.03900734
v 0.03908255 0.01890374 -0.03900734
v 0.03865606 0.01941651 -0.03900734
v 0.03769561 0.02020673 -0.03900734
v 0.03756021 0.02029102 -0.03900734
v 0.03640936 0.02078623 -0.03900734
v 0.03678677 0.02076516 -0.04062886
v 0.03793255 0.02071950 -0.04768404
v 0.03821434 0.02070194 -0.04997600
v 0.03830996 0.02069491 -0.05082574
v 0.03926872 0.02051931 -0.06907566
v 0.03757545 0.02105315 -0.06945765
v 0.03896239 0.02061414 -0.05990782
v 0.03915956 0.02058604 -0.06262075
v 0.03757545 0.02098291 -0.07326199
v 0.03757545 0.02090564 -0.07638030
v 0.04167112 -0.00676273 -0.08097201
v 0.04180990 -0.00691024 -0.07827467
v 0.04192583 -0.00702965 -0.07599051
v 0.04194868 -0.00706126 -0.07528889
v 0.04206969 -0.00721579 -0.07163267
v 0.04213992 -0.00729306 -0.06769580
v 0.04220931 -0.00706126 -0.06393824
v 0.04315030 -0.00322253 -0.07044771
v 0.04312999 -0.00329980 -0.06606649
v 0.04210523 -0.00692078 -0.05728064
v 0.04192922 -0.00633074 -0.05113757
v 0.04198591 -0.00652040 -0.05310990
v 0.04162119 -0.00563184 -0.04557918
v 0.04117016 -0.00493644 -0.04062886
v 0.04035272 -0.00615163 -0.03858637
v 0.04055750 -0.00430777 -0.03624764
v 0.04068528 0.01611864 -0.09410010
v 0.04248941 -0.00473274 -0.07807978
v 0.04162035 0.01632234 -0.08663175
v 0.04287359 0.01022884 -0.07909323
v 0.04308599 0.00349964 -0.08062900
v 0.04319092 0.00149423 -0.07935829
v 0.04326370 0.00149423 -0.07827467
v 0.04350571 0.00149423 -0.07455609
v 0.04352940 -0.00104502 -0.07262273
v 0.04026471 0.01985903 -0.07633352
v 0.04127086 0.01895993 -0.07641928
v 0.04081221 0.01884403 -0.08359139
v 0.04077413 0.01750241 -0.09084147
v 0.04154165 0.01766397 -0.08367715
v 0.03994230 0.01727061 -0.09684422
v 0.03867045 0.01648741 -0.09760041
v 0.03963259 -0.00171232 -0.03071263
v 0.04056427 -0.00195115 -0.03430649
v 0.03687732 -0.00104151 -0.02456176
v 0.03556230 0.00065132 -0.02306498
v 0.03629258 0.00050030 -0.02399267
v 0.03876522 -0.00104151 -0.02817121
v 0.03857651 0.00050030 -0.02813223
v 0.03770830 0.00050030 -0.02630022
v 0.03984668 0.01745324 -0.03900734
v 0.04015809 0.01737949 -0.04058988
v 0.03967067 0.01849634 -0.04059768
v 0.03923487 0.01878433 -0.03931917
v 0.03904786 0.01933573 -0.04060548
v 0.03842420 0.01979933 -0.03986488
v 0.03792578 0.02025239 -0.04062107
v 0.03741720 0.02052282 -0.04062886
v 0.03904955 0.02017512 -0.04771523
v 0.03980607 0.02010137 -0.05485616
v 0.04041534 0.01994332 -0.06916141
v 0.03938465 0.02041746 -0.05990782
v 0.04025710 0.02002410 -0.06201268
v 0.04354633 -0.00104502 -0.06446835
v 0.04302675 -0.00333492 -0.06227774
v 0.04288544 -0.00332087 -0.05888657
v 0.04257657 -0.00316985 -0.05310990
v 0.04256218 -0.00316282 -0.05286044
v 0.04221524 -0.00288537 -0.04752813
v 0.04180651 -0.00256577 -0.04271034
v 0.04130894 -0.00226372 -0.03858637
v 0.04126155 -0.00257630 -0.03859417
v 0.04088499 -0.00464142 -0.03858637
v 0.04127255 -0.00224265 -0.03829793
v 0.04070221 0.01636449 -0.09352322
v 0.04161950 0.01636449 -0.08654599
v 0.04174474 0.01636449 -0.08512716
v 0.04223808 0.01636449 -0.07925694
v 0.04288882 0.01378660 -0.07173402
v 0.04322900 0.01039391 -0.07159369
v 0.04337370 0.00851844 -0.07150794
v 0.04348709 0.00671322 -0.07142998
v 0.04350571 0.00349613 -0.07455609
v 0.04332293 0.00349613 -0.07758865
v 0.04326962 0.00349964 -0.07827467
v 0.04327469 0.00273049 -0.07827467
v 0.04361149 0.00149423 -0.07190552
v 0.04139525 0.01906881 -0.06923937
v 0.04199099 0.01781499 -0.07648944
v 0.04210777 0.01796249 -0.06929394
v 0.04222116 0.01651902 -0.07925694
v 0.04003285 -0.00181418 -0.03225620
v 0.04012001 -0.00112931 -0.03225620
v 0.04007093 -0.00104151 -0.03203792
v 0.04096284 -0.00104502 -0.03602156
v 0.03667930 0.00050030 -0.02456176
v 0.03991269 0.00050030 -0.03195216
v 0.04071320 0.01367421 -0.03900734
v 0.04060404 0.01444337 -0.03900734
v 0.04028163 0.01605191 -0.03900734
v 0.04024102 0.01649092 -0.03952966
v 0.04037218 0.01735841 -0.04182941
v 0.04073774 0.01836990 -0.04773861
v 0.04000577 0.01937787 -0.04773861
v 0.04075636 0.01927602 -0.05488734
v 0.04121670 0.01917417 -0.06205946
v 0.04367411 0.00349613 -0.06821812
v 0.04365972 0.00350667 -0.06667456
v 0.04358018 0.00149423 -0.06386808
v 0.04343632 0.00149423 -0.06096025
v 0.04329670 0.00049679 -0.05912824
v 0.04307753 -0.00104151 -0.05632956
v 0.04280589 -0.00104502 -0.05310990
v 0.04238532 -0.00104502 -0.04819077
v 0.04157042 -0.00104502 -0.04005977
v 0.04135041 -0.00104502 -0.03858637
v 0.04225924 0.01636449 -0.07882817
v 0.04247841 0.01670516 -0.07178079
v 0.04254272 0.01636449 -0.06962916
v 0.04283720 0.01395869 -0.06333796
v 0.04339740 0.00857112 -0.06638611
v 0.04367411 0.00350667 -0.06824151
v 0.04356833 0.00510467 -0.07135202
v 0.04357425 0.00495365 -0.07135982
v 0.04361149 0.00349613 -0.07190552
v 0.04363095 0.00350667 -0.07125847
v 0.04248772 0.01676487 -0.06930953
v 0.04169227 0.01814513 -0.05990782
v 0.04239125 0.01689130 -0.06402399
v 0.04012001 -0.00104151 -0.03225620
v 0.04085029 0.00050030 -0.03588903
v 0.04095438 0.01080131 -0.03900734
v 0.04134110 0.00349964 -0.03900734
v 0.04134194 0.01076619 -0.04151758
v 0.04129455 0.01155641 -0.04176705
v 0.04112362 0.01434151 -0.04261679
v 0.04121078 0.01723900 -0.04793351
v 0.04146887 0.01823995 -0.05490293
v 0.04129286 0.01889320 -0.05990782
v 0.04349217 0.00675888 -0.06561433
v 0.04363095 0.00350667 -0.06516218
v 0.04356495 0.00350667 -0.06337694
v 0.04347694 0.00350667 -0.06155273
v 0.04332293 0.00349964 -0.05912824
v 0.04324677 0.00349964 -0.05795108
v 0.04284143 0.00349964 -0.05290721
v 0.04236332 0.00149774 -0.04780098
v 0.04203330 0.00147316 -0.04448777
v 0.04203669 0.00349964 -0.04451896
v 0.04253764 0.01636449 -0.06845199
v 0.04247248 0.01636449 -0.06389926
v 0.04198168 0.01707042 -0.05614246
v 0.04206545 0.01649092 -0.05592418
v 0.04265950 0.01402542 -0.05990782
v 0.04316638 0.01045712 -0.06253500
v 0.04326285 0.00862732 -0.06175542
v 0.04197576 0.01749890 -0.05990782
v 0.04217800 0.01698262 -0.05990782
v 0.04175405 0.00697663 -0.04320927
v 0.04186067 0.00884156 -0.04462810
v 0.04187590 0.01070648 -0.04564934
v 0.04182175 0.01155641 -0.04590660
v 0.04164658 0.01426776 -0.04673296
v 0.04132163 0.01649092 -0.04762168
v 0.04355225 0.00498877 -0.06456970
v 0.04330177 0.00680453 -0.06063283
v 0.04329246 0.00594056 -0.05990782
v 0.04328316 0.00510467 -0.05920620
v 0.04328231 0.00500282 -0.05912824
v 0.04325693 0.00510467 -0.05883200
v 0.04269335 0.00873619 -0.05303195
v 0.04264934 0.00689234 -0.05165989
v 0.04253341 0.00510467 -0.04982788
v 0.04226855 0.00349964 -0.04679532
v 0.04240479 0.01412025 -0.05501207
v 0.04290067 0.01173553 -0.05990782
v 0.04291759 0.01155641 -0.05990782
v 0.04283551 0.01155641 -0.05847340
v 0.04301237 0.01049576 -0.05990782
v 0.04312068 0.00909092 -0.05990782
v 0.04266457 0.01058707 -0.05399862
v 0.04324508 0.00699068 -0.05990782
v 0.04327808 0.00509765 -0.05912824
f 1 2 3
f 1 3 16
f 1 16 34
f 1 34 33
f 1 33 63
f 1 63 89
f 1 89 46
f 1 46 23
f 1 23 7
f 1 7 4
f 1 4 2
f 2 5 6
f 2 6 3
f 2 4 7
f 2 7 8
f 2 8 5
f 3 6 9
f 3 9 10
f 3 10 11
f 3 11 12
f 3 12 13
f 3 13 14
f 3 14 15
f 3 15 16
f 5 17 18
f 5 18 19
f 5 19 6
f 5 8 20
f 5 20 21
f 5 21 22
f 5 22 17
f 6 19 9
f 7 23 24
f 7 24 8
f 8 25 53
f 8 53 98
f 8 98 164
f 8 164 231
f 8 231 232
f 8 232 165
f 8 165 99
f 8 99 54
f 8 54 26
f 8 26 20
f 8 24 23
f 8 23 46
f 8 46 25
f 9 27 10
f 9 19 27
f 10 28 29
f 10 29 11
f 10 27 28
f 11 29 12
f 12 30 31
f 12 31 13
f 12 29 30
f 13 31 14
f 14 31 15
f 15 32 33
f 15 33 34
f 15 34 16
f 15 31 35
f 15 35 36
f 15 36 37
f 15 37 32
f 17 38 18
f 17 22 45
f 17 45 38
f 18 38 39
f 18 39 40
f 18 40 41
f 18 41 42
f 18 42 43
f 18 43 44
f 18 44 27
f 18 27 19
f 20 26 21
f 21 26 22
f 22 26 54
f 22 54 45
f 25 46 47
f 25 47 48
f 25 48 49
f 25 49 50
f 25 50 51
f 25 51 52
f 25 52 53
f 27 44 28
f 28 44 43
f 28 43 42
f 28 42 55
f 28 55 29
f 29 55 30
f 30 56 31
f 30 55 56
f 31 56 57
f 31 57 58
f 31 58 59
f 31 59 60
f 31 60 61
f 31 61 35
f 32 37 62
f 32 62 63
f 32 63 33
f 35 61 64
f 35 64 65
f 35 65 36
f 36 65 66
f 36 66 67
f 36 67 68
f 36 68 37
f 37 68 62
f 38 69 70
f 38 70 39
f 38 45 69
f 39 70 40
f 40 71 41
f 40 70 72
f 40 72 73
f 40 73 74
f 40 74 75
f 40 75 71
f 41 71 76
f 41 76 77
f 41 77 78
f 41 78 79
f 41 79 80
f 41 80 81
f 41 81 42
f 42 81 55
f 45 54 82
f 45 82 83
f 45 83 84
f 45 84 85
f 45 85 86
f 45 86 87
f 45 87 88
f 45 88 69
f 46 89 90
f 46 90 47
f 47 90 68
f 47 68 48
f 48 68 67
f 48 67 91
f 48 91 49
f 49 92 50
f 49 91 92
f 50 92 93
f 50 93 51
f 51 93 94
f 51 94 52
f 52 95 53
f 52 94 96
f 52 96 95
f 53 97 98
f 53 95 97
f 54 99 172
f 54 172 100
f 54 100 101
f 54 101 102
f 54 102 103
f 54 103 104
f 54 104 105
f 54 105 106
f 54 106 107
f 54 107 108
f 54 108 109
f 54 109 110
f 54 110 111
f 54 111 82
f 55 81 80
f 55 80 79
f 55 79 112
f 55 112 113
f 55 113 114
f 55 114 56
f 56 115 116
f 56 116 117
f 56 117 57
f 56 114 115
f 57 117 58
f 58 117 118
f 58 118 119
f 58 119 120
f 58 120 121
f 58 121 59
f 59 121 60
f 60 121 64
f 60 64 61
f 62 68 122
f 62 122 63
f 63 122 89
f 64 121 123
f 64 123 65
f 65 123 66
f 66 123 121
f 66 121 120
f 66 120 124
f 66 124 125
f 66 125 67
f 67 125 91
f 68 90 122
f 69 88 126
f 69 126 127
f 69 127 128
f 69 128 129
f 69 129 70
f 70 129 130
f 70 130 131
f 70 131 132
f 70 132 133
f 70 133 72
f 71 75 134
f 71 134 76
f 72 133 135
f 72 135 136
f 72 136 137
f 72 137 73
f 73 137 138
f 73 138 74
f 74 138 139
f 74 139 75
f 75 139 140
f 75 140 134
f 76 134 141
f 76 141 112
f 76 112 77
f 77 112 78
f 78 112 79
f 82 142 83
f 82 111 142
f 83 142 143
f 83 143 144
f 83 144 145
f 83 145 146
f 83 146 84
f 84 147 85
f 84 146 147
f 85 148 149
f 85 149 150
f 85 150 151
f 85 151 86
f 85 147 148
f 86 152 87
f 86 151 153
f 86 153 154
f 86 154 152
f 87 152 155
f 87 155 88
f 88 155 127
f 88 127 126
f 89 122 90
f 91 125 156
f 91 156 92
f 92 156 93
f 93 157 158
f 93 158 159
f 93 159 94
f 93 156 157
f 94 159 96
f 95 96 160
f 95 160 97
f 96 159 161
f 96 161 160
f 97 162 98
f 97 160 163
f 97 163 162
f 98 162 164
f 99 165 166
f 99 166 167
f 99 167 168
f 99 168 169
f 99 169 170
f 99 170 171
f 99 171 172
f 100 172 173
f 100 173 101
f 101 174 102
f 101 173 174
f 102 174 175
f 102 175 103
f 103 175 104
f 104 175 105
f 105 175 106
f 106 176 145
f 106 145 177
f 106 177 107
f 106 175 176
f 107 177 178
f 107 178 108
f 108 178 109
f 109 178 110
f 110 177 179
f 110 179 142
f 110 142 111
f 110 178 177
f 112 141 113
f 113 141 114
f 114 141 180
f 114 180 115
f 115 181 116
f 115 180 181
f 116 181 182
f 116 182 117
f 117 182 183
f 117 183 184
f 117 184 185
f 117 185 186
f 117 186 187
f 117 187 118
f 118 187 188
f 118 188 189
f 118 189 119
f 119 186 190
f 119 190 124
f 119 124 120
f 119 189 191
f 119 191 186
f 124 190 192
f 124 192 193
f 124 193 194
f 124 194 195
f 124 195 196
f 124 196 125
f 125 196 197
f 125 197 156
f 127 155 198
f 127 198 130
f 127 130 128
f 128 130 129
f 130 132 131
f 130 198 132
f 132 198 199
f 132 199 200
f 132 200 135
f 132 135 133
f 134 140 139
f 134 139 201
f 134 201 202
f 134 202 141
f 135 200 203
f 135 203 204
f 135 204 205
f 135 205 136
f 136 205 206
f 136 206 207
f 136 207 137
f 137 207 208
f 137 208 139
f 137 139 138
f 139 208 201
f 141 202 180
f 142 179 144
f 142 144 143
f 144 179 145
f 145 179 177
f 145 176 209
f 145 209 210
f 145 210 146
f 146 210 211
f 146 211 147
f 147 211 212
f 147 212 213
f 147 213 148
f 148 213 149
f 149 213 150
f 150 213 214
f 150 214 215
f 150 215 216
f 150 216 217
f 150 217 151
f 151 217 218
f 151 218 153
f 152 199 155
f 152 154 199
f 153 218 219
f 153 219 220
f 153 220 154
f 154 220 199
f 155 199 198
f 156 197 221
f 156 221 157
f 157 221 158
f 158 221 222
f 158 222 161
f 158 161 159
f 160 161 223
f 160 223 163
f 161 222 224
f 161 224 225
f 161 225 223
f 162 163 226
f 162 226 227
f 162 227 228
f 162 228 164
f 163 223 229
f 163 229 230
f 163 230 226
f 164 228 231
f 165 232 227
f 165 227 233
f 165 233 234
f 165 234 235
f 165 235 236
f 165 236 237
f 165 237 238
f 165 238 239
f 165 239 166
f 166 239 167
f 167 240 168
f 167 239 240
f 168 240 241
f 168 241 169
f 169 241 170
f 170 241 242
f 170 242 243
f 170 243 173
f 170 173 171
f 171 173 172
f 173 244 245
f 173 245 174
f 173 243 246
f 173 246 247
f 173 247 244
f 174 245 248
f 174 248 175
f 175 248 249
f 175 249 176
f 176 249 209
f 180 202 250
f 180 250 251
f 180 251 252
f 180 252 253
f 180 253 254
f 180 254 181
f 181 254 255
f 181 255 183
f 181 183 182
f 183 256 184
f 183 255 257
f 183 257 258
f 183 258 256
f 184 259 185
f 184 256 259
f 185 259 186
f 186 192 190
f 186 191 189
f 186 189 188
f 186 188 187
f 186 259 192
f 192 260 193
f 192 259 261
f 192 261 260
f 193 260 194
f 194 260 262
f 194 262 195
f 195 262 263
f 195 263 196
f 196 263 264
f 196 264 197
f 197 264 265
f 197 265 221
f 199 220 200
f 200 266 203
f 200 220 266
f 201 208 267
f 201 267 250
f 201 250 202
f 203 266 204
f 204 266 268
f 204 268 269
f 204 269 270
f 204 270 205
f 205 270 206
f 206 270 207
f 207 270 271
f 207 271 208
f 208 271 272
f 208 272 273
f 208 273 274
f 208 274 267
f 209 249 248
f 209 248 245
f 209 245 244
f 209 244 275
f 209 275 210
f 210 275 276
f 210 276 277
f 210 277 211
f 211 278 212
f 211 277 279
f 211 279 278
f 212 280 214
f 212 214 213
f 212 278 280
f 214 280 281
f 214 281 215
f 215 281 216
f 216 218 217
f 216 281 218
f 218 281 219
f 219 281 280
f 219 280 266
f 219 266 220
f 221 224 222
f 221 265 224
f 223 225 282
f 223 282 229
f 224 265 283
f 224 283 282
f 224 282 225
f 226 284 227
f 226 230 284
f 227 285 233
f 227 232 228
f 227 284 286
f 227 286 285
f 228 232 231
f 229 282 287
f 229 287 230
f 230 287 288
f 230 288 289
f 230 289 284
f 233 285 286
f 233 286 234
f 234 290 291
f 234 291 292
f 234 292 293
f 234 293 235
f 234 286 290
f 235 293 294
f 235 294 236
f 236 294 295
f 236 295 237
f 237 295 296
f 237 296 238
f 238 296 297
f 238 297 239
f 239 297 240
f 240 297 241
f 241 298 242
f 241 297 298
f 242 298 243
f 243 298 299
f 243 299 246
f 244 300 275
f 244 247 300
f 246 299 301
f 246 301 247
f 247 301 302
f 247 302 300
f 250 267 251
f 251 267 252
f 252 267 253
f 253 267 254
f 254 257 255
f 254 267 257
f 256 258 259
f 257 267 274
f 257 274 303
f 257 303 258
f 258 303 304
f 258 304 259
f 259 304 305
f 259 305 261
f 260 261 305
f 260 305 306
f 260 306 307
f 260 307 308
f 260 308 262
f 262 309 263
f 262 308 309
f 263 309 310
f 263 310 311
f 263 311 312
f 263 312 265
f 263 265 264
f 265 312 311
f 265 311 313
f 265 313 283
f 266 314 268
f 266 280 314
f 268 315 316
f 268 316 269
f 268 314 278
f 268 278 315
f 269 317 318
f 269 318 319
f 269 319 320
f 269 320 321
f 269 321 322
f 269 322 323
f 269 323 324
f 269 324 270
f 269 316 317
f 270 324 325
f 270 325 271
f 271 325 272
f 272 325 273
f 273 325 323
f 273 323 322
f 273 322 364
f 273 364 326
f 273 326 274
f 274 326 303
f 275 300 327
f 275 327 276
f 276 328 277
f 276 327 329
f 276 329 328
f 277 328 279
f 278 314 280
f 278 279 315
f 279 328 330
f 279 330 316
f 279 316 315
f 282 283 331
f 282 331 332
f 282 332 333
f 282 333 287
f 283 332 331
f 283 313 334
f 283 334 332
f 284 289 335
f 284 335 286
f 286 335 290
f 287 333 336
f 287 336 288
f 288 336 337
f 288 337 338
f 288 338 339
f 288 339 289
f 289 339 290
f 289 290 335
f 290 339 340
f 290 340 291
f 291 340 341
f 291 341 292
f 292 341 342
f 292 342 343
f 292 343 294
f 292 294 293
f 294 343 295
f 295 343 298
f 295 298 296
f 296 298 297
f 298 343 299
f 299 343 344
f 299 344 302
f 299 302 301
f 300 302 345
f 300 345 327
f 302 344 345
f 303 326 346
f 303 346 347
f 303 347 348
f 303 348 349
f 303 349 350
f 303 350 351
f 303 351 306
f 303 306 305
f 303 305 304
f 306 351 307
f 307 351 308
f 308 351 352
f 308 352 353
f 308 353 309
f 309 354 310
f 309 353 354
f 310 313 311
f 310 354 313
f 313 354 355
f 313 355 334
f 316 330 317
f 317 330 356
f 317 356 318
f 318 357 358
f 318 358 359
f 318 359 360
f 318 360 319
f 318 356 357
f 319 360 320
f 320 360 321
f 321 360 361
f 321 361 362
f 321 362 322
f 322 362 363
f 322 363 364
f 323 325 324
f 326 364 365
f 326 365 361
f 326 361 346
f 327 345 329
f 328 329 357
f 328 357 330
f 329 366 357
f 329 345 367
f 329 367 368
f 329 368 366
f 330 357 356
f 332 334 369
f 332 369 333
f 333 369 370
f 333 370 371
f 333 371 337
f 333 337 336
f 334 355 372
f 334 372 371
f 334 371 370
f 334 370 369
f 337 371 373
f 337 373 374
f 337 374 375
f 337 375 338
f 338 375 339
f 339 375 376
f 339 376 341
f 339 341 340
f 341 376 342
f 342 376 377
f 342 377 344
f 342 344 343
f 344 377 378
f 344 378 345
f 345 378 367
f 346 361 347
f 347 361 379
f 347 379 380
f 347 380 348
f 348 380 381
f 348 381 382
f 348 382 349
f 349 382 383
f 349 383 384
f 349 384 350
f 350 384 351
f 351 384 385
f 351 385 352
f 352 385 353
f 353 385 386
f 353 386 387
f 353 387 354
f 354 387 388
f 354 388 372
f 354 372 355
f 357 366 358
f 358 366 389
f 358 389 359
f 359 389 390
f 359 390 391
f 359 391 392
f 359 392 393
f 359 393 394
f 359 394 360
f 360 394 395
f 360 395 379
f 360 379 361
f 361 365 363
f 361 363 362
f 363 365 364
f 366 368 390
f 366 390 389
f 367 396 368
f 367 378 377
f 367 377 396
f 368 396 391
f 368 391 397
f 368 397 390
f 371 372 373
f 372 388 398
f 372 398 373
f 373 398 399
f 373 399 400
f 373 400 374
f 374 400 375
f 375 400 401
f 375 401 402
f 375 402 403
f 375 403 376
f 376 403 391
f 376 391 377
f 377 391 396
f 379 404 380
f 379 395 404
f 380 404 381
f 381 404 405
f 381 405 382
f 382 405 406
f 382 406 407
f 382 407 408
f 382 408 383
f 383 408 384
f 384 408 409
f 384 409 410
f 384 410 411
f 384 411 385
f 385 411 412
f 385 412 413
f 385 413 386
f 386 413 387
f 387 413 388
f 388 399 398
f 388 413 412
f 388 412 399
f 390 397 391
f 391 403 402
f 391 402 392
f 392 402 414
f 392 414 393
f 393 414 415
f 393 415 394
f 394 415 416
f 394 416 417
f 394 417 418
f 394 418 395
f 395 418 419
f 395 419 405
f 395 405 404
f 399 412 411
f 399 411 400
f 400 411 410
f 400 410 420
f 400 420 401
f 401 420 402
f 402 420 414
f 405 419 420
f 405 420 421
f 405 421 406
f 406 421 407
f 407 422 408
f 407 421 410
f 407 410 422
f 408 422 410
f 408 410 409
f 410 421 420
f 414 420 417
f 414 417 416
f 414 416 415
f 417 420 418
f 418 420 419

