# https://github.com/mikedh/trimesh
v 0.03618635 -0.01365287 -0.08210244
v 0.03530015 -0.01365287 -0.08371941
v 0.03618635 -0.01365287 -0.08701932
v 0.03668500 -0.00706343 -0.08254774
v 0.03668500 -0.00213925 -0.08254774
v 0.03668500 0.00013924 -0.08256184
v 0.03668500 0.00149788 -0.08257040
v 0.03571042 0.00149788 -0.08315473
v 0.03508275 0.00149788 -0.08426343
v 0.03520552 -0.00706343 -0.08395565
v 0.03528912 -0.01365287 -0.08374661
v 0.03668500 -0.00706343 -0.08724147
v 0.03533306 -0.01365287 -0.08701932
v 0.03668500 0.00510381 -0.08305600
v 0.03661720 0.00510381 -0.08307665
v 0.03653919 0.00510381 -0.08312854
v 0.03629267 0.00510381 -0.08329325
v 0.03607593 0.00510381 -0.08361765
v 0.03599990 0.00510381 -0.08400049
v 0.03508275 0.00149788 -0.08553635
v 0.03500376 -0.01365287 -0.08487042
v 0.03508111 -0.00706343 -0.08426897
v 0.03508012 -0.01365287 -0.08427300
v 0.03668500 0.00149788 -0.08724852
v 0.03599990 0.00149788 -0.08724852
v 0.03507222 -0.01365287 -0.08549504
v 0.03507683 -0.00706343 -0.08551318
v 0.03599990 0.00510381 -0.08724852
v 0.03668500 0.00510381 -0.08724852
v 0.03500376 -0.01365287 -0.08492835
f 1 2 11
f 1 11 23
f 1 23 21
f 1 21 30
f 1 30 26
f 1 26 13
f 1 13 3
f 1 3 12
f 1 12 4
f 1 4 5
f 1 5 6
f 1 6 7
f 1 7 8
f 1 8 9
f 1 9 10
f 1 10 2
f 2 10 11
f 3 13 12
f 4 12 24
f 4 24 29
f 4 29 14
f 4 14 7
f 4 7 6
f 4 6 5
f 7 14 15
f 7 15 8
f 8 15 16
f 8 16 17
f 8 17 18
f 8 18 9
f 9 18 19
f 9 19 28
f 9 28 20
f 9 20 30
f 9 30 21
f 9 21 22
f 9 22 10
f 10 22 11
f 11 22 23
f 12 13 25
f 12 25 24
f 13 26 27
f 13 27 20
f 13 20 28
f 13 28 25
f 14 29 28
f 14 28 19
f 14 19 18
f 14 18 17
f 14 17 16
f 14 16 15
f 20 27 26
f 20 26 30
f 21 23 22
f 24 25 28
f 24 28 29

