# https://github.com/mikedh/trimesh
v -0.03293339 -0.01844623 -0.07964737
v -0.03293339 -0.01703259 -0.07964737
v -0.02913100 -0.01892991 -0.07964737
v -0.03402522 -0.01832531 -0.07962133
v -0.03841797 -0.01743798 -0.07962133
v -0.04036677 -0.01683511 -0.07962133
v -0.04183314 -0.01621398 -0.07962133
v -0.04183314 -0.01462200 -0.07962133
v 0.02173469 -0.01802431 -0.07961389
v -0.01814279 -0.01829660 -0.07964737
v -0.00856381 -0.02230090 -0.04316074
v -0.02774716 -0.01905692 -0.07964737
v -0.00260314 -0.02282373 -0.04483867
v -0.00482490 -0.02261581 -0.04482007
v -0.03436166 -0.01840099 -0.07422665
v -0.03865919 -0.01758673 -0.07455777
v -0.00853842 -0.02233744 -0.04163907
v -0.04057625 -0.01702650 -0.07446104
v -0.04183314 -0.01652281 -0.07421177
v -0.04183314 -0.01430187 -0.06412558
v -0.03293973 -0.01400522 -0.05315392
v 0.02174739 -0.01400174 -0.05321344
v 0.02301697 -0.01400174 -0.05321344
v 0.02301697 -0.01731967 -0.06334056
v 0.02173469 -0.01946405 -0.07961389
v -0.01814279 -0.01979984 -0.07964737
v -0.02285293 -0.01948754 -0.07964737
v -0.00849399 -0.02174936 -0.05737665
v -0.00651979 -0.02211125 -0.05316136
v -0.00258410 -0.02250185 -0.05163596
v -0.00257140 -0.02242965 -0.05316508
v 0.00023437 -0.02249142 -0.05163596
v 0.00351623 -0.02279937 -0.04483495
v -0.00183504 -0.02284635 -0.04368532
v -0.00259044 -0.02284722 -0.04368532
v -0.00258410 -0.02288810 -0.04164278
v -0.01428962 -0.02135528 -0.04163907
v -0.03886867 -0.01716743 -0.06627601
v -0.00482490 -0.02267671 -0.04163907
v -0.04066512 -0.01675073 -0.06884313
v -0.04183314 -0.01641755 -0.07178230
v -0.04183314 -0.01430187 -0.05486905
v -0.03293973 -0.01400522 -0.05165457
v 0.01020057 -0.01400174 -0.05315020
v 0.02301697 -0.01400174 -0.04165023
v 0.02301697 -0.01937532 -0.06334056
v 0.01939232 -0.01966152 -0.07961389
v 0.02173469 -0.01964413 -0.07287984
v 0.00959117 -0.02219999 -0.04477914
v 0.00945786 -0.02167803 -0.05735805
v 0.00345910 -0.02219477 -0.05745850
v 0.01430131 -0.01995556 -0.07961389
v 0.01020057 -0.02009475 -0.07961389
v -0.00240001 -0.02037748 -0.07940554
v -0.01081732 -0.02019218 -0.07940554
v -0.01213133 -0.02013912 -0.07940554
v -0.01753974 -0.01986161 -0.07940554
v -0.00256505 -0.02222347 -0.05746594
v -0.00495821 -0.02223739 -0.05316136
v 0.00348449 -0.02247402 -0.05163596
v 0.00818828 -0.02236875 -0.04368532
v 0.00424624 -0.02275761 -0.04368532
v 0.00350354 -0.02282460 -0.04368532
v -0.00049564 -0.02288636 -0.04164278
v -0.01797774 -0.02051928 -0.04163907
v -0.03883058 -0.01637405 -0.05850395
v -0.04070321 -0.01662024 -0.06619416
v -0.01979324 -0.02008257 -0.04163907
v -0.02669975 -0.01818438 -0.04163907
v 0.00347180 -0.02286810 -0.04164278
v 0.00553486 -0.02268193 -0.04164278
v 0.00950864 -0.02228959 -0.04164278
v 0.01020057 -0.02217215 -0.04164278
v -0.00482490 -0.02124393 -0.04163907
v -0.04183314 -0.01628618 -0.06884313
v -0.04183314 -0.01465071 -0.05486905
v -0.03403792 -0.01567723 -0.04163907
v -0.03014666 -0.01401044 -0.04165395
v 0.01020057 -0.01400174 -0.04165395
v 0.02301697 -0.01731879 -0.04165023
v 0.02174739 -0.01400174 -0.04165023
v -0.02823594 -0.01401044 -0.04164651
v -0.02673149 -0.01401131 -0.04164651
v -0.02673149 -0.01567723 -0.04163907
v 0.01020057 -0.02066282 -0.04164278
v 0.02078251 -0.01993120 -0.04165395
v 0.01891623 -0.02040619 -0.04165395
v 0.01532332 -0.02127351 -0.04165395
v 0.02301697 -0.01922482 -0.04477542
v 0.00590939 -0.02156146 -0.06424835
v 0.00903890 -0.02075329 -0.07290216
v 0.01147015 -0.02195206 -0.04165395
v 0.00338927 -0.02167629 -0.06424463
v 0.00477312 -0.02093858 -0.07301006
v 0.00330040 -0.02100122 -0.07304726
v 0.00886751 -0.02021219 -0.07932369
v 0.00323692 -0.02035573 -0.07940554
v -0.00245079 -0.02102297 -0.07306214
v -0.00812581 -0.02080896 -0.07292821
v -0.00500264 -0.02160408 -0.06424463
v -0.00251427 -0.02170239 -0.06424463
v -0.04058260 -0.01579032 -0.05842954
v -0.03109884 -0.01678205 -0.04163907
v -0.04183314 -0.01589994 -0.06371261
v -0.04183314 -0.01615744 -0.06599325
v 0.02301697 -0.01919698 -0.04165395
v -0.04183314 -0.01523444 -0.05822863
v -0.03954789 -0.01562765 -0.05486905
f 1 2 10
f 1 10 26
f 1 26 27
f 1 27 12
f 1 12 3
f 1 3 4
f 1 4 5
f 1 5 6
f 1 6 7
f 1 7 8
f 1 8 2
f 2 8 9
f 2 9 10
f 3 11 4
f 3 12 13
f 3 13 14
f 3 14 11
f 4 15 16
f 4 16 5
f 4 11 17
f 4 17 15
f 5 16 18
f 5 18 6
f 6 18 19
f 6 19 7
f 7 19 41
f 7 41 75
f 7 75 105
f 7 105 104
f 7 104 107
f 7 107 76
f 7 76 42
f 7 42 20
f 7 20 8
f 8 20 21
f 8 21 22
f 8 22 23
f 8 23 9
f 9 23 24
f 9 24 46
f 9 46 25
f 9 25 26
f 9 26 10
f 11 14 17
f 12 27 28
f 12 28 29
f 12 29 13
f 13 30 31
f 13 31 32
f 13 32 33
f 13 33 34
f 13 34 35
f 13 35 36
f 13 36 17
f 13 17 14
f 13 29 30
f 15 17 37
f 15 37 16
f 16 38 18
f 16 37 38
f 17 36 39
f 17 39 74
f 17 74 84
f 17 84 77
f 17 77 103
f 17 103 69
f 17 69 68
f 17 68 65
f 17 65 37
f 18 38 40
f 18 40 19
f 19 40 41
f 20 42 43
f 20 43 21
f 21 43 79
f 21 79 44
f 21 44 22
f 22 44 79
f 22 79 81
f 22 81 45
f 22 45 23
f 23 45 80
f 23 80 106
f 23 106 89
f 23 89 46
f 23 46 24
f 25 47 26
f 25 46 48
f 25 48 49
f 25 49 50
f 25 50 51
f 25 51 47
f 26 47 52
f 26 52 53
f 26 53 54
f 26 54 55
f 26 55 56
f 26 56 57
f 26 57 27
f 27 57 58
f 27 58 28
f 28 59 29
f 28 58 59
f 29 59 30
f 30 59 31
f 31 58 32
f 31 59 58
f 32 58 51
f 32 51 60
f 32 60 33
f 33 61 62
f 33 62 63
f 33 63 64
f 33 64 34
f 33 60 50
f 33 50 49
f 33 49 61
f 34 64 35
f 35 64 36
f 36 64 39
f 37 65 38
f 38 66 67
f 38 67 40
f 38 65 68
f 38 68 69
f 38 69 66
f 39 64 70
f 39 70 71
f 39 71 72
f 39 72 73
f 39 73 85
f 39 85 74
f 40 67 41
f 41 67 75
f 42 76 77
f 42 77 78
f 42 78 43
f 43 78 79
f 45 81 82
f 45 82 83
f 45 83 84
f 45 84 74
f 45 74 85
f 45 85 73
f 45 73 80
f 46 86 87
f 46 87 88
f 46 88 48
f 46 89 86
f 47 51 90
f 47 90 91
f 47 91 52
f 48 88 92
f 48 92 73
f 48 73 72
f 48 72 49
f 49 72 61
f 50 60 51
f 51 93 90
f 51 58 93
f 52 91 94
f 52 94 95
f 52 95 96
f 52 96 53
f 53 96 97
f 53 97 54
f 54 97 98
f 54 98 55
f 55 99 56
f 55 98 99
f 56 99 100
f 56 100 58
f 56 58 57
f 58 101 95
f 58 95 93
f 58 100 101
f 61 71 62
f 61 72 71
f 62 70 63
f 62 71 70
f 63 70 64
f 66 102 67
f 66 69 103
f 66 103 102
f 67 102 104
f 67 104 105
f 67 105 75
f 73 92 88
f 73 88 87
f 73 87 86
f 73 86 106
f 73 106 80
f 76 107 108
f 76 108 77
f 77 108 102
f 77 102 103
f 77 84 82
f 77 82 78
f 78 82 79
f 79 82 81
f 82 84 83
f 86 89 106
f 90 93 91
f 91 93 94
f 93 95 94
f 95 101 98
f 95 98 97
f 95 97 96
f 98 101 100
f 98 100 99
f 102 108 107
f 102 107 104

