# https://github.com/mikedh/trimesh
v 0.00449267 -0.00299465 -0.04395556
v 0.00449267 -0.00149718 -0.04395556
v 0.00749051 -0.00398618 -0.04395556
v -0.01689562 -0.00289579 -0.04393728
v 0.01019793 -0.00149718 -0.04395556
v -0.01689562 0.01748437 -0.04202734
v -0.01573068 0.01749018 -0.04202734
v 0.01019793 -0.00398618 -0.04395556
v -0.01573068 -0.00591109 -0.01799916
v -0.01696661 -0.00590818 -0.01800525
v -0.01573068 -0.00398618 -0.04088807
v -0.01696338 -0.00361109 -0.04088807
v -0.01696661 -0.00361109 -0.04085151
v -0.01696661 -0.00290742 -0.04088807
v -0.01696661 0.00150649 -0.04088807
v 0.01019793 0.01749018 -0.04202734
v 0.01579348 -0.00318947 -0.02475251
v -0.01573068 0.01894986 -0.01803267
v -0.00979953 0.02166275 -0.01283895
v -0.00622084 0.02293633 -0.01283895
v -0.00568839 0.02309626 -0.01283895
v -0.00440406 0.02311079 -0.01500173
v -0.00155788 0.02347135 -0.01500173
v -0.00154175 0.02324746 -0.01614709
v -0.01696661 0.00720270 -0.02250444
v -0.01690530 0.01748437 -0.02250749
v 0.01020116 -0.00591109 -0.01799916
v 0.01579348 -0.00449794 -0.02475251
v -0.01573068 -0.00591109 -0.01300344
v -0.01696661 -0.00590818 -0.01300953
v 0.00147223 0.02348008 -0.01500173
v 0.00240483 0.02340157 -0.01500173
v 0.00629976 0.02266591 -0.01500173
v 0.00726785 0.02237514 -0.01500173
v 0.01001722 0.02128475 -0.01500173
v 0.01020116 0.02118589 -0.01500173
v 0.01600000 -0.00318947 -0.02400316
v -0.01690530 0.01748437 -0.01730768
v -0.01573068 0.01784493 -0.01283895
v -0.01519501 0.01830434 -0.01283895
v -0.01143883 0.02083696 -0.01283895
v -0.01105482 0.02106667 -0.01283895
v -0.01030617 0.02143886 -0.01283895
v -0.00375221 0.02345390 -0.01283895
v -0.00018320 0.02378829 -0.01283895
v -0.00000249 0.02379411 -0.01283895
v -0.01696661 0.00720270 -0.01300649
v 0.01600000 -0.00449794 -0.02400316
v 0.01020116 -0.00591109 -0.01300344
v -0.01099673 -0.00429731 -0.01284199
v -0.01696661 -0.00361109 -0.01300649
v -0.01239401 -0.00392221 -0.01284199
v -0.01342018 -0.00289870 -0.01284199
v -0.01379774 -0.00149718 -0.01284199
v -0.01573068 0.01034593 -0.01283895
v 0.00131089 0.02375340 -0.01283895
v 0.00489604 0.02323292 -0.01283895
v 0.00568987 0.02309626 -0.01283895
v 0.00702906 0.02271825 -0.01283895
v 0.00755828 0.02255251 -0.01283895
v 0.01020116 0.02144177 -0.01283895
v 0.01600000 -0.00318947 -0.01882467
v -0.01690530 0.01656553 -0.01299126
v 0.01600000 -0.00449794 -0.01882467
v 0.01020116 -0.00408505 -0.01284199
v -0.00000249 -0.00429731 -0.01284199
v -0.01690530 0.00862747 -0.01299126
v 0.01020116 0.01596654 -0.01283895
f 1 2 5
f 1 5 8
f 1 8 3
f 1 3 4
f 1 4 2
f 2 4 6
f 2 6 7
f 2 7 16
f 2 16 5
f 3 8 27
f 3 27 9
f 3 9 10
f 3 10 11
f 3 11 4
f 4 11 12
f 4 12 13
f 4 13 14
f 4 14 15
f 4 15 6
f 5 16 17
f 5 17 28
f 5 28 8
f 6 18 19
f 6 19 20
f 6 20 21
f 6 21 22
f 6 22 23
f 6 23 24
f 6 24 7
f 6 15 25
f 6 25 26
f 6 26 18
f 7 24 16
f 8 28 27
f 9 29 30
f 9 30 10
f 9 27 49
f 9 49 29
f 10 30 51
f 10 51 47
f 10 47 25
f 10 25 15
f 10 15 14
f 10 14 13
f 10 13 12
f 10 12 11
f 16 31 32
f 16 32 33
f 16 33 34
f 16 34 35
f 16 35 36
f 16 36 37
f 16 37 17
f 16 24 31
f 17 37 48
f 17 48 28
f 18 26 38
f 18 38 39
f 18 39 40
f 18 40 41
f 18 41 42
f 18 42 43
f 18 43 19
f 19 43 42
f 19 42 41
f 19 41 40
f 19 40 39
f 19 39 55
f 19 55 68
f 19 68 61
f 19 61 60
f 19 60 59
f 19 59 58
f 19 58 57
f 19 57 56
f 19 56 46
f 19 46 45
f 19 45 44
f 19 44 21
f 19 21 20
f 21 44 22
f 22 44 23
f 23 44 45
f 23 45 46
f 23 46 31
f 23 31 24
f 25 47 38
f 25 38 26
f 27 28 48
f 27 48 64
f 27 64 49
f 29 49 66
f 29 66 50
f 29 50 30
f 30 50 52
f 30 52 53
f 30 53 54
f 30 54 55
f 30 55 51
f 31 46 56
f 31 56 32
f 32 56 57
f 32 57 58
f 32 58 33
f 33 58 59
f 33 59 34
f 34 59 60
f 34 60 35
f 35 60 61
f 35 61 36
f 36 61 37
f 37 61 62
f 37 62 64
f 37 64 48
f 38 47 63
f 38 63 39
f 39 63 67
f 39 67 55
f 47 51 67
f 47 67 63
f 49 64 65
f 49 65 66
f 50 55 52
f 50 66 55
f 51 55 67
f 52 55 53
f 53 55 54
f 55 66 65
f 55 65 68
f 61 68 64
f 61 64 62
f 64 68 65

