# https://github.com/mikedh/trimesh
v -0.00453805 -0.00750000 -0.10199887
v -0.00453805 -0.00591106 -0.10199887
v -0.00250410 -0.00750000 -0.10199887
v -0.02453098 -0.00750000 -0.09899854
v -0.02453600 -0.00591072 -0.09899966
v 0.00899146 -0.00591106 -0.10199887
v -0.02453600 -0.00400071 -0.09899966
v 0.00899146 -0.00600016 -0.10199887
v -0.00175581 -0.00750000 -0.10179780
v -0.02522402 -0.00750000 -0.09883229
v -0.04230414 -0.00591106 -0.09599934
v 0.00899146 -0.00591106 -0.09700019
v -0.02450587 -0.00400071 -0.09899966
v -0.02392833 -0.00400071 -0.09888284
v -0.02344118 -0.00400071 -0.09855596
v -0.02311475 -0.00400071 -0.09807182
v -0.02300426 -0.00400071 -0.09749557
v -0.02522402 -0.00400071 -0.09883117
v -0.02675576 -0.00399934 -0.09642843
v -0.04230414 -0.00450065 -0.09599934
v 0.00899146 -0.00600016 -0.09700019
v -0.00100752 -0.00750000 -0.10049927
v -0.00120338 -0.00750000 -0.10124851
v -0.03007034 -0.00750000 -0.09588364
v -0.03055246 -0.00750000 -0.09556013
v -0.03087889 -0.00750000 -0.09507261
v -0.03099440 -0.00750000 -0.09450198
v -0.04230414 -0.00591106 -0.09100066
v -0.00400571 -0.00591106 -0.09400099
v -0.02300426 -0.00400071 -0.09058504
v -0.02575637 -0.00400071 -0.09836837
v -0.02836785 -0.00399934 -0.09575670
v -0.02675576 -0.00399934 -0.09052551
v -0.04230414 -0.00450065 -0.09100066
v -0.02907597 -0.00399934 -0.09453568
v -0.02882988 -0.00399934 -0.09521977
v -0.00141431 -0.00750000 -0.09713611
v -0.00111298 -0.00750000 -0.09761127
v -0.00100752 -0.00750000 -0.09816056
v -0.00400571 -0.00750000 -0.09400099
v -0.00350852 -0.00750000 -0.09413578
v -0.00314191 -0.00750000 -0.09450198
v -0.03099440 -0.00750000 -0.09250138
v -0.03079352 -0.00750000 -0.09175215
v -0.03024611 -0.00750000 -0.09120173
v -0.02949782 -0.00750000 -0.09100066
v -0.02899561 -0.00450168 -0.09052551
v -0.02907597 -0.00400071 -0.09052551
v -0.02502816 -0.00400071 -0.09052551
v -0.02502314 -0.00402435 -0.09052551
v -0.02300426 -0.00450168 -0.09058504
v -0.02907597 -0.00399934 -0.09052551
v -0.02400366 -0.00750000 -0.09100066
v -0.02502314 -0.00450168 -0.09052551
f 1 2 6
f 1 6 8
f 1 8 3
f 1 3 9
f 1 9 23
f 1 23 22
f 1 22 39
f 1 39 38
f 1 38 37
f 1 37 42
f 1 42 41
f 1 41 40
f 1 40 53
f 1 53 46
f 1 46 45
f 1 45 44
f 1 44 43
f 1 43 27
f 1 27 26
f 1 26 25
f 1 25 24
f 1 24 10
f 1 10 4
f 1 4 5
f 1 5 7
f 1 7 2
f 2 7 13
f 2 13 6
f 3 8 9
f 4 10 11
f 4 11 5
f 5 11 20
f 5 20 7
f 6 12 21
f 6 21 8
f 6 13 14
f 6 14 15
f 6 15 16
f 6 16 17
f 6 17 30
f 6 30 12
f 7 18 19
f 7 19 13
f 7 20 18
f 8 21 39
f 8 39 22
f 8 22 23
f 8 23 9
f 10 24 11
f 11 24 25
f 11 25 26
f 11 26 27
f 11 27 43
f 11 43 28
f 11 28 34
f 11 34 20
f 12 29 40
f 12 40 21
f 12 30 29
f 13 19 14
f 14 19 15
f 15 19 16
f 16 19 17
f 17 19 33
f 17 33 30
f 18 20 31
f 18 31 32
f 18 32 19
f 19 32 36
f 19 36 35
f 19 35 52
f 19 52 33
f 20 34 52
f 20 52 35
f 20 35 36
f 20 36 32
f 20 32 31
f 21 37 38
f 21 38 39
f 21 40 41
f 21 41 42
f 21 42 37
f 28 43 44
f 28 44 45
f 28 45 46
f 28 46 47
f 28 47 48
f 28 48 52
f 28 52 34
f 29 30 51
f 29 51 40
f 30 33 49
f 30 49 50
f 30 50 54
f 30 54 51
f 33 52 48
f 33 48 47
f 33 47 54
f 33 54 50
f 33 50 49
f 40 51 53
f 46 53 54
f 46 54 47
f 51 54 53

