# https://github.com/mikedh/trimesh
v -0.00000312 0.02499857 -0.00020329
v -0.00000312 0.02479909 -0.00000160
v 0.00084775 0.02489434 -0.00020329
v 0.00084775 0.02497161 -0.00145182
v 0.00084775 0.02498419 -0.00213531
v -0.00000312 0.02499857 -0.00200245
v -0.00077999 0.02498419 -0.00210650
v -0.00089344 0.02498059 -0.00215291
v -0.00150260 0.02495184 -0.00240422
v -0.00212164 0.02490691 -0.00287962
v -0.00513294 0.02437498 -0.00020329
v -0.00598381 0.02427075 -0.00020169
v -0.00513294 0.02434622 -0.00017287
v -0.00513294 0.02417550 0.00000000
v 0.00084775 0.02469486 -0.00000160
v 0.00112397 0.02466071 -0.00775209
v -0.00276286 0.02481347 -0.00617542
v -0.00288618 0.02483144 -0.00582647
v -0.00260009 0.02486379 -0.00350069
v -0.00598381 0.02427075 -0.00582647
v -0.00886687 0.02337220 -0.00582647
v -0.00987804 0.02291754 -0.00375840
v -0.00987804 0.02279355 -0.00020169
v -0.00593941 0.02407666 0.00000000
v -0.00513294 0.02441991 -0.00103244
v -0.00513294 0.02442530 -0.00131416
v -0.00299963 0.02481886 -0.00501973
v -0.00513294 0.02442709 -0.00559277
v -0.00513294 0.01849312 0.00000000
v 0.00084775 0.01908257 -0.00000160
v 0.00112397 0.02299841 -0.00619783
v 0.00112397 0.02406588 -0.01111352
v 0.00077622 0.02464993 -0.00789775
v -0.00000312 0.02464454 -0.00800020
v -0.00077999 0.02464993 -0.00789775
v -0.00150260 0.02466970 -0.00759843
v -0.00212164 0.02470924 -0.00712143
v -0.00244472 0.02475236 -0.00670365
v -0.00375924 0.02345847 -0.01283425
v -0.00513294 0.02439295 -0.00617542
v -0.00597887 0.02424020 -0.00617382
v -0.00513294 0.02442530 -0.00582647
v -0.00290098 0.02482784 -0.00422419
v -0.00885700 0.02334525 -0.00617382
v -0.00987804 0.02291754 -0.00582647
v -0.01161675 0.02213222 -0.00020169
v -0.01152303 0.02195610 0.00000000
v -0.01762704 0.00720564 0.00000000
v 0.00084775 0.01891544 -0.00016967
v 0.00112397 0.01896216 -0.00619783
v 0.00112397 0.02375678 -0.01283425
v -0.00000312 0.02379272 -0.01283425
v -0.00018562 0.02378913 -0.01283425
v -0.00569772 0.02309905 -0.01283745
v -0.01690935 0.01579750 -0.01635254
v -0.00622797 0.02293372 -0.01283745
v -0.00980405 0.02166677 -0.01283745
v -0.01160195 0.02210526 -0.00617382
v -0.01161675 0.02213222 -0.00582647
v -0.01371061 0.02089762 -0.00582647
v -0.01573295 0.01942761 -0.00353430
v -0.01657887 0.01871057 -0.00020329
v -0.01644570 0.01856141 0.00000000
v -0.02078879 0.00663956 0.00000000
v -0.01741740 0.00720564 -0.00020329
v 0.00084775 0.01888309 -0.00020329
v 0.00112397 0.01893521 -0.00689413
v 0.00112397 0.01884715 -0.01283425
v -0.01690935 0.00720564 -0.01635254
v -0.01814742 0.01494029 -0.01635254
v -0.01690935 0.01590532 -0.01617967
v -0.01573295 0.01748855 -0.01478868
v -0.01031210 0.02143675 -0.01283745
v -0.01105938 0.02106655 -0.01283745
v -0.01369335 0.02087246 -0.00617382
v -0.01441103 0.02039624 -0.00582647
v -0.01441103 0.02039624 -0.00549033
v -0.01550605 0.01960372 -0.00422419
v -0.01611028 0.01911312 -0.00288282
v -0.01551838 0.01959474 -0.00582647
v -0.01658381 0.01870159 -0.00240422
v -0.01711899 0.01821637 -0.00210329
v -0.01767636 0.01767545 -0.00200085
v -0.01821894 0.01711656 -0.00210489
v -0.02057176 0.01419989 -0.00020329
v -0.02040652 0.01408668 0.00000000
v -0.01690935 0.00720564 -0.01299912
v -0.02371871 0.00663956 0.00000000
v -0.02078879 0.00663956 -0.01624530
v -0.02078632 0.00720564 -0.01635254
v -0.01736808 0.01748855 -0.00799059
v -0.01688469 0.01797556 -0.00790256
v -0.01639144 0.01849851 -0.00760643
v -0.01825347 0.01483426 -0.01635254
v -0.01597464 0.01896935 -0.00712302
v -0.01573295 0.01928743 -0.00661081
v -0.01559237 0.01949590 -0.00617382
v -0.01144658 0.02083652 -0.01283745
v -0.01440856 0.02037287 -0.00603936
v -0.01542466 0.01966662 -0.00500212
v -0.01949893 0.01559443 -0.00617542
v -0.01959758 0.01551895 -0.00582647
v -0.01870479 0.01658103 -0.00240422
v -0.01911173 0.01611199 -0.00287802
v -0.01941755 0.01574179 -0.00350229
v -0.01960498 0.01550817 -0.00422419
v -0.01966910 0.01542730 -0.00499892
v -0.02057176 0.01419989 -0.00582647
v -0.02078879 0.01384587 -0.00097802
v -0.02078879 0.01379195 -0.00020329
v -0.02078879 0.01336425 0.00000000
v -0.02318600 0.00879606 0.00000000
v -0.02337343 0.00886795 -0.00020329
v -0.02392341 0.00663956 -0.00020329
v -0.02253983 0.00663956 -0.01624530
v -0.02078632 0.01144856 -0.01635254
v -0.01798218 0.01687755 -0.00790256
v -0.01872452 0.01423224 -0.01635254
v -0.01850503 0.01638155 -0.00760163
v -0.01909940 0.01373445 -0.01635254
v -0.02054709 0.01418192 -0.00617542
v -0.02055203 0.01418552 -0.00611460
v -0.02078879 0.01384587 -0.00582647
v -0.02213537 0.01161928 -0.00582647
v -0.02337343 0.00886795 -0.00582647
v -0.02406645 0.00663956 -0.00454753
v -0.02403686 0.00663956 -0.00617542
v -0.02334384 0.00885537 -0.00617542
v -0.02195533 0.00847438 -0.01624530
v -0.02210824 0.01160490 -0.00617542
v -0.02078879 0.01378656 -0.00617542
v -0.02406645 0.00663956 -0.00582647
f 1 2 15
f 1 15 3
f 1 3 4
f 1 4 5
f 1 5 6
f 1 6 7
f 1 7 8
f 1 8 9
f 1 9 10
f 1 10 11
f 1 11 12
f 1 12 13
f 1 13 14
f 1 14 2
f 2 14 15
f 3 15 16
f 3 16 4
f 4 16 5
f 5 16 17
f 5 17 6
f 6 17 18
f 6 18 7
f 7 18 8
f 8 18 9
f 9 18 10
f 10 18 19
f 10 19 12
f 10 12 11
f 12 20 21
f 12 21 22
f 12 22 23
f 12 23 24
f 12 24 14
f 12 14 13
f 12 19 25
f 12 25 26
f 12 26 27
f 12 27 28
f 12 28 20
f 14 24 47
f 14 47 63
f 14 63 86
f 14 86 111
f 14 111 112
f 14 112 88
f 14 88 64
f 14 64 48
f 14 48 29
f 14 29 30
f 14 30 15
f 15 30 50
f 15 50 31
f 15 31 16
f 16 31 50
f 16 50 67
f 16 67 68
f 16 68 51
f 16 51 32
f 16 32 33
f 16 33 17
f 17 33 34
f 17 34 35
f 17 35 36
f 17 36 37
f 17 37 38
f 17 38 39
f 17 39 40
f 17 40 18
f 18 27 19
f 18 40 41
f 18 41 42
f 18 42 27
f 19 27 43
f 19 43 26
f 19 26 25
f 20 41 44
f 20 44 21
f 20 28 42
f 20 42 41
f 21 44 45
f 21 45 22
f 22 45 59
f 22 59 46
f 22 46 23
f 23 46 47
f 23 47 24
f 26 43 27
f 27 42 28
f 29 48 30
f 30 49 50
f 30 48 49
f 32 51 52
f 32 52 33
f 33 52 34
f 34 52 35
f 35 52 53
f 35 53 36
f 36 53 37
f 37 39 38
f 37 53 39
f 39 54 41
f 39 41 40
f 39 53 55
f 39 55 54
f 41 54 44
f 44 54 56
f 44 56 57
f 44 57 58
f 44 58 59
f 44 59 45
f 46 59 60
f 46 60 61
f 46 61 62
f 46 62 63
f 46 63 47
f 48 64 65
f 48 65 66
f 48 66 49
f 49 66 50
f 50 66 67
f 51 68 69
f 51 69 55
f 51 55 52
f 52 55 53
f 54 55 56
f 55 69 90
f 55 90 116
f 55 116 120
f 55 120 118
f 55 118 94
f 55 94 70
f 55 70 71
f 55 71 72
f 55 72 73
f 55 73 57
f 55 57 56
f 57 73 58
f 58 73 74
f 58 74 75
f 58 75 59
f 59 75 60
f 60 75 76
f 60 76 77
f 60 77 78
f 60 78 61
f 61 79 62
f 61 78 80
f 61 80 79
f 62 79 81
f 62 81 82
f 62 82 83
f 62 83 84
f 62 84 85
f 62 85 63
f 63 85 86
f 64 87 65
f 64 88 114
f 64 114 126
f 64 126 132
f 64 132 127
f 64 127 115
f 64 115 89
f 64 89 69
f 64 69 87
f 65 87 66
f 66 87 67
f 67 87 68
f 68 87 69
f 69 89 115
f 69 115 90
f 70 91 92
f 70 92 93
f 70 93 72
f 70 72 71
f 70 94 91
f 72 93 95
f 72 95 96
f 72 96 97
f 72 97 75
f 72 75 98
f 72 98 74
f 72 74 73
f 74 98 75
f 75 99 76
f 75 97 99
f 76 99 80
f 76 80 100
f 76 100 77
f 77 100 78
f 78 100 80
f 79 80 81
f 80 99 97
f 80 97 101
f 80 101 102
f 80 102 83
f 80 83 82
f 80 82 81
f 83 102 84
f 84 102 103
f 84 103 85
f 85 103 104
f 85 104 105
f 85 105 106
f 85 106 107
f 85 107 108
f 85 108 123
f 85 123 109
f 85 109 110
f 85 110 86
f 86 110 111
f 88 112 113
f 88 113 114
f 90 115 116
f 91 94 117
f 91 117 101
f 91 101 97
f 91 97 92
f 92 97 93
f 93 97 96
f 93 96 95
f 94 118 101
f 94 101 119
f 94 119 117
f 101 118 120
f 101 120 121
f 101 121 122
f 101 122 102
f 101 117 119
f 102 122 108
f 102 108 107
f 102 107 106
f 102 106 105
f 102 105 104
f 102 104 103
f 108 122 123
f 109 123 124
f 109 124 110
f 110 124 113
f 110 113 111
f 111 113 112
f 113 124 125
f 113 125 132
f 113 132 126
f 113 126 114
f 115 127 128
f 115 128 129
f 115 129 116
f 116 121 120
f 116 129 128
f 116 128 130
f 116 130 131
f 116 131 121
f 121 131 122
f 122 131 123
f 123 131 130
f 123 130 124
f 124 130 125
f 125 128 127
f 125 127 132
f 125 130 128

