# https://github.com/mikedh/trimesh
v -0.02078541 -0.00591109 -0.09898838
v -0.02029554 -0.00202069 -0.11174122
v -0.01573402 -0.00591109 -0.09898838
v -0.02078541 -0.00591109 -0.09399303
v -0.02276349 -0.00590880 -0.09898838
v -0.02078727 -0.00157620 -0.11150615
v -0.02078727 -0.00149830 -0.11160018
v -0.02078913 -0.00031606 -0.11299888
v -0.02029740 -0.00054746 -0.11348078
v -0.02029554 -0.00149830 -0.11235829
v -0.01573215 -0.00149372 -0.11237005
v -0.01573402 -0.00202069 -0.11174122
v -0.00979230 -0.00590880 -0.09899426
v -0.00979230 -0.00591109 -0.08716409
v -0.01573215 -0.00591109 -0.05780906
v -0.02276349 -0.00590880 -0.09287642
v -0.02276349 -0.00449515 -0.09898838
v -0.02199796 0.00765721 -0.11093021
v -0.02199796 0.00486428 -0.11081267
v -0.02199796 0.00243793 -0.10940810
v -0.02079845 -0.00031147 -0.11298712
v -0.02079845 -0.00155787 -0.11150615
v -0.02079845 0.00625044 -0.11494412
v -0.02029740 0.00359497 -0.11456213
v -0.01573402 0.00354915 -0.11455625
v -0.01573402 -0.00054746 -0.11348666
v -0.01050382 -0.00149372 -0.11237005
v -0.01050382 -0.00202069 -0.11173534
v -0.01000278 -0.00156474 -0.11150615
v -0.00400332 0.01599707 -0.09597942
v -0.00400332 0.01449636 -0.09048453
v -0.00979230 -0.00591109 -0.05780906
v -0.02078727 -0.00398651 -0.05490588
v -0.02276349 -0.00030918 -0.05956037
v -0.02276349 0.01448032 -0.09047866
v -0.02276163 0.01649884 -0.09298221
v -0.02275418 0.01599707 -0.09748978
v -0.02079845 0.00997588 -0.11419188
v -0.02199796 0.01019354 -0.10974308
v -0.02078913 0.00625044 -0.11494412
v -0.02078913 0.00624815 -0.11494412
v -0.02078913 0.00990256 -0.11420951
v -0.01573402 0.00997588 -0.11419776
v -0.01573402 0.00359726 -0.11456800
v -0.01050195 0.00359726 -0.11456800
v -0.01050195 -0.00054746 -0.11348666
v -0.01000278 -0.00031376 -0.11298712
v -0.00400332 0.01649884 -0.09597942
v -0.00373697 0.01705101 -0.09396953
v -0.00373697 0.01684481 -0.09394602
v -0.00373697 0.01666380 -0.09384611
v -0.00373697 0.01654237 -0.09366393
v -0.01000278 0.00624815 -0.11494412
v -0.00400332 0.01449636 -0.06241066
v -0.00373697 0.01649884 -0.09344060
v -0.00400332 0.01449865 -0.05701568
v -0.00427154 0.01449865 -0.05601661
v -0.00500354 0.01449865 -0.05528200
v -0.01573402 -0.00398651 -0.05490588
v -0.02078727 -0.00149830 -0.05490588
v -0.02276163 0.01449865 -0.05501166
v -0.02276349 0.01215707 -0.05956037
v -0.02276349 0.01448032 -0.06174070
v -0.02276163 0.01650113 -0.09056681
v -0.00830967 0.01749550 -0.09091355
v -0.02078727 0.01599936 -0.10519437
v -0.02079845 0.01599707 -0.10519437
v -0.02079845 0.01525015 -0.10892032
v -0.02079845 0.01313998 -0.11208208
v -0.02199796 0.01188442 -0.10749224
v -0.01000278 0.00997588 -0.11419776
v -0.01573588 0.01165531 -0.11307528
v -0.00373697 0.01749550 -0.09375796
v -0.00373697 0.01730075 -0.09387550
v -0.00373697 0.01724805 -0.09390488
v -0.01000278 0.01313769 -0.11207620
v -0.01000278 0.01449636 -0.11006631
v -0.01000278 0.01525702 -0.10891444
v -0.00373697 0.01649884 -0.06140571
v -0.00400332 0.01749550 -0.05701568
v -0.00418213 0.01649884 -0.05634572
v -0.00427154 0.01749550 -0.05601661
v -0.00500354 0.01749550 -0.05528200
v -0.00600376 0.01649884 -0.05501754
v -0.00600376 0.01449865 -0.05502342
v -0.01573402 -0.00149830 -0.05490588
v -0.02078727 0.01652404 -0.05500579
v -0.02276163 0.01650113 -0.05501166
v -0.00421566 0.01749550 -0.09353464
v -0.00830967 0.01749550 -0.05501754
v -0.01573215 0.01599936 -0.10519437
v -0.02078727 0.01525702 -0.10892619
v -0.00374255 0.01749550 -0.09375796
v -0.02078913 0.01313998 -0.11208208
v -0.02078727 0.01447115 -0.11010157
v -0.00373697 0.01749550 -0.06140571
v -0.01000278 0.01599707 -0.10518262
v -0.01573215 0.01525702 -0.10892619
v -0.00600376 0.01749550 -0.05501754
v -0.00979416 0.01649884 -0.05500579
f 1 2 12
f 1 12 3
f 1 3 14
f 1 14 32
f 1 32 15
f 1 15 4
f 1 4 16
f 1 16 5
f 1 5 2
f 2 6 7
f 2 7 8
f 2 8 9
f 2 9 10
f 2 10 11
f 2 11 27
f 2 27 12
f 2 5 6
f 3 12 13
f 3 13 14
f 4 15 16
f 5 16 34
f 5 34 62
f 5 62 63
f 5 63 35
f 5 35 17
f 5 17 18
f 5 18 19
f 5 19 20
f 5 20 21
f 5 21 22
f 5 22 6
f 6 22 7
f 7 22 21
f 7 21 8
f 8 21 23
f 8 23 9
f 9 23 24
f 9 24 25
f 9 25 26
f 9 26 11
f 9 11 10
f 11 26 46
f 11 46 27
f 12 28 13
f 12 27 28
f 13 28 29
f 13 29 30
f 13 30 31
f 13 31 14
f 14 31 54
f 14 54 32
f 15 32 59
f 15 59 33
f 15 33 16
f 16 33 34
f 17 35 36
f 17 36 37
f 17 37 18
f 18 38 23
f 18 23 19
f 18 37 39
f 18 39 38
f 19 23 21
f 19 21 20
f 23 40 53
f 23 53 41
f 23 41 24
f 23 38 42
f 23 42 43
f 23 43 71
f 23 71 40
f 24 41 44
f 24 44 25
f 25 44 45
f 25 45 46
f 25 46 26
f 27 47 29
f 27 29 28
f 27 46 47
f 29 47 30
f 30 48 49
f 30 49 50
f 30 50 51
f 30 51 52
f 30 52 31
f 30 47 53
f 30 53 48
f 31 52 55
f 31 55 79
f 31 79 54
f 32 56 57
f 32 57 58
f 32 58 59
f 32 54 56
f 33 59 86
f 33 86 60
f 33 60 88
f 33 88 61
f 33 61 34
f 34 61 88
f 34 88 62
f 35 63 88
f 35 88 64
f 35 64 36
f 36 64 65
f 36 65 66
f 36 66 67
f 36 67 37
f 37 67 68
f 37 68 69
f 37 69 70
f 37 70 39
f 38 43 42
f 38 39 69
f 38 69 43
f 39 70 69
f 40 71 53
f 41 53 45
f 41 45 44
f 43 69 72
f 43 72 71
f 45 53 46
f 46 53 47
f 48 73 74
f 48 74 75
f 48 75 49
f 48 53 71
f 48 71 76
f 48 76 77
f 48 77 78
f 48 78 73
f 49 75 74
f 49 74 73
f 49 73 96
f 49 96 79
f 49 79 55
f 49 55 52
f 49 52 51
f 49 51 50
f 54 79 56
f 56 80 81
f 56 81 57
f 56 79 96
f 56 96 80
f 57 81 82
f 57 82 83
f 57 83 58
f 58 83 99
f 58 99 84
f 58 84 85
f 58 85 59
f 59 85 84
f 59 84 99
f 59 99 86
f 60 87 88
f 60 86 87
f 62 88 63
f 64 88 90
f 64 90 65
f 65 89 66
f 65 90 99
f 65 99 83
f 65 83 82
f 65 82 80
f 65 80 96
f 65 96 73
f 65 73 93
f 65 93 89
f 66 91 98
f 66 98 92
f 66 92 67
f 66 89 93
f 66 93 73
f 66 73 91
f 67 92 68
f 68 92 69
f 69 94 72
f 69 92 95
f 69 95 77
f 69 77 94
f 71 72 76
f 72 94 76
f 73 78 97
f 73 97 91
f 76 94 77
f 77 95 92
f 77 92 98
f 77 98 78
f 78 98 91
f 78 91 97
f 80 82 81
f 86 99 100
f 86 100 87
f 87 90 88
f 87 100 99
f 87 99 90

