# https://github.com/mikedh/trimesh
v 0.01600429 0.02385312 -0.04091543
v 0.01102058 0.02346889 -0.04091543
v 0.01350150 0.02369084 -0.03900092
v 0.01600429 0.02384596 -0.03969025
v 0.03502793 0.01104225 -0.03900092
v 0.03502793 0.01104225 -0.04907834
v 0.01075816 0.02344742 -0.04091543
v 0.01600429 0.02380301 -0.03900092
v 0.01117367 0.02348560 -0.03900092
v 0.01020657 0.02338775 -0.03874646
v 0.03502793 0.00148661 -0.03900092
v 0.01310300 0.00917599 -0.03532405
v 0.03502793 0.00150331 -0.04907834
v 0.01020414 -0.00052762 -0.04371853
v 0.01020657 0.01798466 -0.04199116
v 0.01020657 0.02339014 -0.04091543
v 0.01043255 0.02341400 -0.03939271
v 0.01020657 0.02339014 -0.03957177
v 0.01020414 0.00917599 -0.03532405
v 0.03502793 0.00148661 -0.04559533
v 0.01310300 -0.00052762 -0.03532405
v 0.01310300 -0.00052762 -0.04371853
v 0.01020414 -0.00052762 -0.03532405
v 0.01020414 0.00917599 -0.04281243
f 1 2 3
f 1 3 4
f 1 4 5
f 1 5 6
f 1 6 2
f 2 7 3
f 2 6 7
f 3 8 4
f 3 7 9
f 3 9 10
f 3 10 8
f 4 8 5
f 5 11 20
f 5 20 13
f 5 13 6
f 5 8 12
f 5 12 21
f 5 21 11
f 6 13 14
f 6 14 15
f 6 15 16
f 6 16 7
f 7 16 17
f 7 17 9
f 8 10 12
f 9 17 10
f 10 17 18
f 10 18 19
f 10 19 12
f 11 21 22
f 11 22 20
f 12 19 23
f 12 23 21
f 13 20 22
f 13 22 14
f 14 23 19
f 14 19 24
f 14 24 15
f 14 22 21
f 14 21 23
f 15 24 16
f 16 24 19
f 16 19 18
f 16 18 17

