# https://github.com/mikedh/trimesh
v 0.00672830 -0.02216080 -0.05163435
v 0.00952363 -0.02191270 -0.05163435
v 0.00824994 -0.02032869 -0.04368526
v 0.00675056 -0.02032869 -0.04368526
v 0.00670535 -0.01672807 -0.05165205
v 0.00670535 -0.01672807 -0.05315335
v 0.00672830 -0.02209242 -0.05316397
v 0.00745881 -0.02203039 -0.05316397
v 0.00950719 -0.02185227 -0.05316397
v 0.00997433 -0.02183478 -0.05163435
v 0.00825028 -0.01567365 -0.04315768
v 0.01020345 -0.02179502 -0.05163435
v 0.00675056 -0.01567365 -0.04315768
v 0.00674473 -0.01401170 -0.04315768
v 0.00670466 -0.01400057 -0.05316043
v 0.00670535 -0.01400057 -0.05163435
v 0.00670466 -0.01400057 -0.06638885
v 0.00675056 -0.01866674 -0.07933047
v 0.00824994 -0.01866674 -0.07933047
v 0.01020345 -0.02172822 -0.05316397
v 0.00825028 -0.01401170 -0.04315768
v 0.01020345 -0.02033028 -0.05163435
v 0.00670535 -0.00591668 -0.05163435
v 0.00670466 -0.00591350 -0.05316043
v 0.00670466 -0.00591350 -0.06638885
v 0.00675056 -0.01673125 -0.07933047
v 0.00824994 -0.01673125 -0.07933047
v 0.01020345 -0.02022690 -0.05316397
v 0.01020277 -0.01400057 -0.05165205
v 0.00896573 -0.00591668 -0.05163435
v 0.01020345 -0.01672807 -0.05165205
v 0.00896607 -0.00591350 -0.05316043
v 0.00896607 -0.00591350 -0.06638885
v 0.00675021 -0.01401011 -0.07880997
v 0.00824994 -0.01401011 -0.07880997
v 0.01020277 -0.01400057 -0.05315335
v 0.01020345 -0.01672807 -0.05315335
f 1 2 3
f 1 3 4
f 1 4 5
f 1 5 6
f 1 6 7
f 1 7 8
f 1 8 9
f 1 9 2
f 2 10 3
f 2 9 10
f 3 11 13
f 3 13 4
f 3 10 12
f 3 12 11
f 4 13 14
f 4 14 5
f 5 15 17
f 5 17 6
f 5 14 16
f 5 16 15
f 6 17 7
f 7 17 18
f 7 18 19
f 7 19 8
f 8 19 9
f 9 19 20
f 9 20 12
f 9 12 10
f 11 21 14
f 11 14 13
f 11 12 22
f 11 22 21
f 12 20 28
f 12 28 37
f 12 37 31
f 12 31 22
f 14 23 16
f 14 21 30
f 14 30 23
f 15 16 23
f 15 23 24
f 15 24 25
f 15 25 17
f 17 25 26
f 17 26 18
f 18 26 27
f 18 27 19
f 19 27 28
f 19 28 20
f 21 22 29
f 21 29 30
f 22 31 29
f 23 30 32
f 23 32 24
f 24 32 33
f 24 33 25
f 25 33 35
f 25 35 34
f 25 34 26
f 26 34 35
f 26 35 27
f 27 35 36
f 27 36 37
f 27 37 28
f 29 31 37
f 29 37 36
f 29 36 33
f 29 33 32
f 29 32 30
f 33 36 35

