# https://github.com/mikedh/trimesh
v -0.04501294 0.00676337 -0.03973166
v -0.04491115 0.00235182 -0.03888107
v -0.04491115 0.00350176 -0.03888107
v -0.04494416 0.00872390 -0.03973166
v -0.03949461 0.00676337 -0.03973166
v -0.03310425 0.00235182 -0.03889946
v -0.04473234 0.00235182 -0.03845578
v -0.04384930 0.00350176 -0.03634081
v -0.04492491 0.00906621 -0.03973166
v -0.04339265 0.00913734 -0.03603046
v -0.03949461 0.01748624 -0.03973166
v -0.02800132 0.00235182 -0.03889946
v -0.04359622 0.00235182 -0.03579367
v -0.04207497 0.00350176 -0.03276374
v -0.04297451 0.00714570 -0.03497067
v -0.04491665 0.00918921 -0.03973166
v -0.04355771 0.01111268 -0.03673621
v -0.04152478 0.00920551 -0.03228787
v -0.04170634 0.01119419 -0.03292696
v -0.04312306 0.01748624 -0.03973166
v -0.01690965 0.01749069 -0.02250152
v -0.02800957 0.01748624 -0.03889946
v -0.02800132 0.00350917 -0.03889946
v -0.02724206 0.00676337 -0.03874544
v -0.02724206 0.00235182 -0.03874314
v -0.04283972 0.00235182 -0.03427181
v -0.04207497 0.00235182 -0.03276374
v -0.04026487 0.00350176 -0.02961887
v -0.04107639 0.00720052 -0.03133383
v -0.04475160 0.01104748 -0.03973166
v -0.04138449 0.01496409 -0.03364191
v -0.04323585 0.01486332 -0.03748565
v -0.04456729 0.01217519 -0.03973166
v -0.03941759 0.00926478 -0.02872920
v -0.03959089 0.01126383 -0.02929013
v -0.03925253 0.01505003 -0.02995450
v -0.04411064 0.01480404 -0.03973166
v -0.04189341 0.01748624 -0.03677759
v -0.02079118 0.01749069 -0.01748305
v -0.02079118 0.01749069 -0.02250152
v -0.01690965 0.01749069 -0.01730144
v -0.01690965 0.00720497 -0.02250152
v -0.02616096 0.01748624 -0.03766266
v -0.02659285 0.01748624 -0.03831095
v -0.02724206 0.01748624 -0.03874544
v -0.02659285 0.00235182 -0.03831095
v -0.02720905 0.00235182 -0.03872245
v -0.04130746 0.00235182 -0.03143039
v -0.03974220 0.00235182 -0.02880046
v -0.03825395 0.00350176 -0.02659813
v -0.03896369 0.00724794 -0.02790849
v -0.04058122 0.01748624 -0.03410169
v -0.04093334 0.01748624 -0.03478446
v -0.03857031 0.00768214 -0.02737975
v -0.03707656 0.00931665 -0.02538432
v -0.03857031 0.01006203 -0.02760734
v -0.03723061 0.01132607 -0.02583720
v -0.03857031 0.01271163 -0.02821655
v -0.03857031 0.01506930 -0.02894299
v -0.03857031 0.01732472 -0.03048095
v -0.02502483 0.01748772 -0.01827157
v -0.02287912 0.01748772 -0.01769685
v -0.02246098 0.01748772 -0.01761869
v -0.02145415 0.01748772 -0.01752443
v -0.01861797 0.01749069 -0.01733822
v -0.03857031 0.01748624 -0.03060509
v -0.03851804 0.01748624 -0.03051773
v -0.03611925 0.01748624 -0.02695216
v -0.03400930 0.01748624 -0.02421649
v -0.03348938 0.01748624 -0.02362567
v -0.03339860 0.01748624 -0.02353142
v -0.03318403 0.01748624 -0.02332912
v -0.01690965 0.01579690 -0.01635430
v -0.01690965 0.00720497 -0.01635430
v -0.02502483 0.00235182 -0.02338429
v -0.02503033 0.00235182 -0.02528777
v -0.02600691 0.00235182 -0.03689254
v -0.02616096 0.00235182 -0.03766266
v -0.02650757 0.00459094 -0.03818681
v -0.03888941 0.00235182 -0.02751998
v -0.03862808 0.00282454 -0.02714067
v -0.03825395 0.00235182 -0.02659813
v -0.03677121 0.00235182 -0.02466706
v -0.03656489 0.00350176 -0.02441189
v -0.03664467 0.00728944 -0.02472224
v -0.03538476 0.00846605 -0.02332912
v -0.03532699 0.00934332 -0.02332912
v -0.03520595 0.01083113 -0.02332912
v -0.03514818 0.01136164 -0.02332912
v -0.03438618 0.01486925 -0.02332912
v -0.03686474 0.01512116 -0.02643031
v -0.03030383 0.01748476 -0.02080724
v -0.02917045 0.01748476 -0.02013137
v -0.02701924 0.01748476 -0.01895204
v -0.02657359 0.01748476 -0.01875204
v -0.02577308 0.01748476 -0.01846238
v -0.02260953 0.01653488 -0.01730604
v -0.03370120 0.01688460 -0.02343946
v -0.03351689 0.01698685 -0.02332912
v -0.03262559 0.01748476 -0.02281417
v -0.03068070 0.01748476 -0.02109920
v -0.03053765 0.01748476 -0.02098655
v -0.01815031 0.01494186 -0.01635430
v -0.02079118 0.01100006 -0.01624855
v -0.02293139 0.01482775 -0.01695201
v -0.02079118 0.00664037 -0.01624855
v -0.02502483 0.00350176 -0.01674051
v -0.02502483 0.00235182 -0.01707155
v -0.03862808 0.00235182 -0.02714067
v -0.03638333 0.00235182 -0.02422338
v -0.03567360 0.00350176 -0.02338429
v -0.03442744 0.00935666 -0.02227623
v -0.03454023 0.01137053 -0.02259807
v -0.03413034 0.01518192 -0.02310842
v -0.03431465 0.01517599 -0.02332912
v -0.03384149 0.01632889 -0.02332912
v -0.03048264 0.01688164 -0.02060034
v -0.02907692 0.01512265 -0.01907388
v -0.02674690 0.01674975 -0.01849456
v -0.02502483 0.01493297 -0.01753592
v -0.02712103 0.01503966 -0.01812444
v -0.03358016 0.01688460 -0.02332912
v -0.01825485 0.01483516 -0.01635430
v -0.02360536 0.01109046 -0.01658419
v -0.02087096 0.01086669 -0.01624855
v -0.02254351 0.00664037 -0.01624855
v -0.02342931 0.00664037 -0.01638189
v -0.02391897 0.00664037 -0.01646005
v -0.02502483 0.00440570 -0.01673821
v -0.02629850 0.00350176 -0.01706695
v -0.02749790 0.00235182 -0.01774972
v -0.03563509 0.00235182 -0.02338429
v -0.03510691 0.00235182 -0.02279577
v -0.03469978 0.00235182 -0.02237048
v -0.03469978 0.00350176 -0.02237048
v -0.03404782 0.00732352 -0.02181645
v -0.03134367 0.00935666 -0.01960262
v -0.03137668 0.01136460 -0.01980263
v -0.03089802 0.01517303 -0.02024401
v -0.02959959 0.01132459 -0.01865318
v -0.02768771 0.01126087 -0.01772213
v -0.02502483 0.01114825 -0.01697960
v -0.02187779 0.00866462 -0.01624855
v -0.02090672 0.01079408 -0.01624855
v -0.02087921 0.01085187 -0.01624855
v -0.02502483 0.00918031 -0.01683936
v -0.02384194 0.00913586 -0.01651062
v -0.02195757 0.00847642 -0.01624855
v -0.02394372 0.00717237 -0.01647154
v -0.02763269 0.00727314 -0.01750144
v -0.02723656 0.00529779 -0.01735891
v -0.02855150 0.00350176 -0.01793133
v -0.02502483 0.00676485 -0.01676350
v -0.02941803 0.00235182 -0.01866008
v -0.03461725 0.00235182 -0.02229002
v -0.03449071 0.00350176 -0.02216818
v -0.03335183 0.00532447 -0.02115207
v -0.03281266 0.00350176 -0.02063482
v -0.03105758 0.00732648 -0.01934285
v -0.03047988 0.00533039 -0.01897043
v -0.02776749 0.00927515 -0.01760949
v -0.02502483 0.00720052 -0.01677269
v -0.02960234 0.00350176 -0.01845778
v -0.03101356 0.00235182 -0.01944400
v -0.03428714 0.00235182 -0.02197277
v -0.03290344 0.00235182 -0.02087161
v -0.03125564 0.00235182 -0.01959343
v -0.03075773 0.00350176 -0.01913365
f 1 2 3
f 1 3 4
f 1 4 9
f 1 9 16
f 1 16 30
f 1 30 33
f 1 33 37
f 1 37 20
f 1 20 11
f 1 11 5
f 1 5 12
f 1 12 6
f 1 6 2
f 2 7 8
f 2 8 3
f 2 6 12
f 2 12 25
f 2 25 47
f 2 47 46
f 2 46 78
f 2 78 77
f 2 77 76
f 2 76 75
f 2 75 108
f 2 108 131
f 2 131 154
f 2 154 164
f 2 164 167
f 2 167 166
f 2 166 165
f 2 165 155
f 2 155 134
f 2 134 133
f 2 133 132
f 2 132 110
f 2 110 83
f 2 83 82
f 2 82 109
f 2 109 80
f 2 80 49
f 2 49 48
f 2 48 27
f 2 27 26
f 2 26 13
f 2 13 7
f 3 9 4
f 3 8 10
f 3 10 9
f 5 11 23
f 5 23 12
f 7 13 8
f 8 13 14
f 8 14 15
f 8 15 10
f 9 10 17
f 9 17 16
f 10 15 18
f 10 18 19
f 10 19 17
f 11 20 40
f 11 40 21
f 11 21 22
f 11 22 23
f 12 23 45
f 12 45 24
f 12 24 25
f 13 26 14
f 14 18 15
f 14 26 27
f 14 27 28
f 14 28 29
f 14 29 18
f 16 17 30
f 17 19 31
f 17 31 32
f 17 32 33
f 17 33 30
f 18 29 34
f 18 34 35
f 18 35 19
f 19 35 36
f 19 36 31
f 20 37 32
f 20 32 38
f 20 38 39
f 20 39 40
f 21 40 39
f 21 39 65
f 21 65 41
f 21 41 73
f 21 73 74
f 21 74 42
f 21 42 78
f 21 78 43
f 21 43 44
f 21 44 45
f 21 45 22
f 22 45 23
f 24 45 44
f 24 44 46
f 24 46 47
f 24 47 25
f 27 48 28
f 28 48 49
f 28 49 50
f 28 50 51
f 28 51 34
f 28 34 29
f 31 38 32
f 31 36 52
f 31 52 53
f 31 53 38
f 32 37 33
f 34 51 54
f 34 54 55
f 34 55 56
f 34 56 35
f 35 56 57
f 35 57 58
f 35 58 59
f 35 59 36
f 36 59 60
f 36 60 52
f 38 53 39
f 39 61 62
f 39 62 63
f 39 63 64
f 39 64 65
f 39 53 52
f 39 52 66
f 39 66 67
f 39 67 68
f 39 68 69
f 39 69 70
f 39 70 71
f 39 71 72
f 39 72 61
f 41 65 73
f 42 74 108
f 42 108 75
f 42 75 76
f 42 76 77
f 42 77 78
f 43 78 79
f 43 79 44
f 44 79 46
f 46 79 78
f 49 80 81
f 49 81 50
f 50 54 51
f 50 81 109
f 50 109 82
f 50 82 83
f 50 83 84
f 50 84 55
f 50 55 54
f 52 60 66
f 55 84 85
f 55 85 86
f 55 86 87
f 55 87 88
f 55 88 89
f 55 89 57
f 55 57 56
f 57 89 90
f 57 90 91
f 57 91 58
f 58 91 59
f 59 91 60
f 60 91 68
f 60 68 67
f 60 67 66
f 61 92 93
f 61 93 94
f 61 94 95
f 61 95 96
f 61 96 62
f 61 72 92
f 62 97 63
f 62 96 97
f 63 97 73
f 63 73 64
f 64 73 65
f 68 91 69
f 69 98 70
f 69 91 98
f 70 98 71
f 71 98 99
f 71 99 72
f 72 99 100
f 72 100 101
f 72 101 102
f 72 102 92
f 73 103 104
f 73 104 106
f 73 106 74
f 73 97 105
f 73 105 103
f 74 106 107
f 74 107 108
f 80 109 81
f 83 110 111
f 83 111 84
f 84 111 86
f 84 86 85
f 86 111 112
f 86 112 87
f 87 112 113
f 87 113 88
f 88 113 89
f 89 113 90
f 90 113 114
f 90 114 115
f 90 115 91
f 91 115 116
f 91 116 98
f 92 102 117
f 92 117 93
f 93 117 118
f 93 118 94
f 94 118 119
f 94 119 95
f 95 119 96
f 96 119 97
f 97 120 105
f 97 119 121
f 97 121 120
f 98 116 122
f 98 122 99
f 99 122 100
f 100 122 101
f 101 122 117
f 101 117 102
f 103 123 104
f 103 105 123
f 104 123 124
f 104 124 125
f 104 125 145
f 104 145 144
f 104 144 143
f 104 143 148
f 104 148 126
f 104 126 106
f 105 124 123
f 105 120 124
f 106 126 107
f 107 126 127
f 107 127 128
f 107 128 129
f 107 129 130
f 107 130 108
f 108 130 131
f 110 132 111
f 111 132 133
f 111 133 134
f 111 134 135
f 111 135 112
f 112 135 136
f 112 136 137
f 112 137 138
f 112 138 113
f 113 138 139
f 113 139 114
f 114 116 115
f 114 139 116
f 116 139 122
f 117 139 118
f 117 122 139
f 118 139 140
f 118 140 141
f 118 141 121
f 118 121 119
f 120 142 124
f 120 121 141
f 120 141 142
f 124 143 144
f 124 144 145
f 124 145 125
f 124 142 146
f 124 146 147
f 124 147 143
f 126 148 147
f 126 147 149
f 126 149 127
f 127 149 128
f 128 149 130
f 128 130 129
f 130 150 151
f 130 151 152
f 130 152 131
f 130 149 153
f 130 153 150
f 131 152 154
f 134 155 135
f 135 155 156
f 135 156 136
f 136 156 157
f 136 157 137
f 137 157 158
f 137 158 159
f 137 159 140
f 137 140 138
f 138 140 139
f 140 159 160
f 140 160 161
f 140 161 141
f 141 161 146
f 141 146 142
f 143 147 148
f 146 162 149
f 146 149 147
f 146 161 150
f 146 150 162
f 149 162 153
f 150 152 151
f 150 153 162
f 150 161 163
f 150 163 152
f 152 163 164
f 152 164 154
f 155 165 156
f 156 165 158
f 156 158 157
f 158 165 166
f 158 166 167
f 158 167 168
f 158 168 159
f 159 168 160
f 160 168 163
f 160 163 161
f 163 168 164
f 164 168 167

