# https://github.com/mikedh/trimesh
v -0.06053043 0.00009077 -0.01251091
v -0.06053043 -0.04742753 -0.01248928
v -0.06053043 0.00009077 -0.01561772
v -0.11901639 0.00009077 -0.01193705
v -0.10257059 -0.03707360 -0.01199371
v -0.06053043 -0.04742753 -0.01569138
v -0.10136723 -0.04078539 -0.01201020
v -0.10314141 -0.04346922 -0.01202771
v -0.10743028 -0.04742753 -0.01208335
v -0.06053043 -0.03262690 -0.01702920
v -0.07142230 0.00009077 -0.01556981
v -0.13148959 0.00009077 -0.01183350
v -0.13932680 0.00009077 -0.01178766
v -0.10605722 -0.04175287 -0.01198702
v -0.07152258 -0.03833412 -0.01695553
v -0.06309141 -0.03355252 -0.01705032
v -0.08846206 -0.04742753 -0.01678554
v -0.08819979 -0.04727404 -0.01679636
v -0.12140766 -0.04742753 -0.01197671
v -0.08364866 0.00009077 -0.01547914
v -0.13932680 0.00009077 -0.01495628
v -0.13932680 -0.00116509 -0.01179023
v -0.13932680 -0.04522278 -0.01188656
v -0.13227639 -0.04742753 -0.01191850
v -0.13189071 -0.04742753 -0.01192056
v -0.09071449 0.00009077 -0.01542609
v -0.13932680 -0.04742753 -0.01502634
v -0.13932680 -0.04446461 -0.01503046
v -0.13932680 -0.02661734 -0.01501037
v -0.13932680 -0.00586297 -0.01496864
v -0.13932680 -0.04742753 -0.01189635
f 1 2 6
f 1 6 10
f 1 10 3
f 1 3 11
f 1 11 20
f 1 20 26
f 1 26 21
f 1 21 13
f 1 13 12
f 1 12 4
f 1 4 5
f 1 5 2
f 2 5 7
f 2 7 8
f 2 8 9
f 2 9 19
f 2 19 25
f 2 25 24
f 2 24 31
f 2 31 27
f 2 27 17
f 2 17 6
f 3 10 11
f 4 12 5
f 5 12 13
f 5 13 14
f 5 14 7
f 6 15 16
f 6 16 10
f 6 17 18
f 6 18 15
f 7 14 8
f 8 14 19
f 8 19 9
f 10 16 11
f 11 16 20
f 13 21 30
f 13 30 29
f 13 29 28
f 13 28 27
f 13 27 31
f 13 31 23
f 13 23 22
f 13 22 14
f 14 22 23
f 14 23 24
f 14 24 25
f 14 25 19
f 15 18 16
f 16 18 21
f 16 21 26
f 16 26 20
f 17 27 18
f 18 27 28
f 18 28 29
f 18 29 30
f 18 30 21
f 23 31 24

