# https://github.com/mikedh/trimesh
v 0.00045186 0.08420117 -0.01212214
v 0.00045186 0.07682830 -0.01220760
v 0.00045186 0.08420117 -0.01512493
v -0.11532328 0.08420117 -0.01154542
v -0.12602621 0.07688170 -0.01153379
v 0.00045186 0.07682830 -0.01522085
v -0.12605632 0.07682830 -0.01153437
v 0.00045186 0.08137861 -0.01518539
v -0.14440633 0.08420117 -0.01742193
v -0.11831890 0.08420117 -0.01153379
v -0.12665845 0.07682830 -0.01153379
v 0.00045186 0.07692933 -0.01522027
v -0.15166202 0.07682830 -0.01745797
v -0.14872663 0.08058474 -0.01747251
v -0.14747720 0.08243518 -0.01745449
v -0.14628799 0.08373063 -0.01733182
v -0.14564070 0.08420117 -0.01729926
v -0.14690517 0.08420117 -0.01153379
v -0.15318241 0.07682830 -0.01153379
v -0.15188783 0.07682830 -0.01744286
v -0.14941907 0.08027513 -0.01746204
v -0.14860620 0.08154171 -0.01741612
v -0.14847072 0.08200577 -0.01731612
v -0.14621272 0.08420117 -0.01700683
v -0.14735677 0.08314677 -0.01722543
v -0.14696539 0.08420117 -0.01287908
v -0.14722129 0.08397240 -0.01153379
v -0.15306198 0.07707079 -0.01153379
v -0.15333294 0.07682830 -0.01584757
v -0.15187277 0.07705491 -0.01742949
v -0.15200825 0.07682830 -0.01742658
v -0.15116527 0.07883173 -0.01723938
v -0.14907285 0.08196102 -0.01692718
v -0.14722129 0.08382445 -0.01658940
v -0.14643852 0.08420117 -0.01682021
v -0.14862125 0.08262859 -0.01672138
v -0.14705570 0.08420117 -0.01516911
v -0.14740194 0.08383382 -0.01153379
v -0.15312220 0.07725554 -0.01592955
v -0.15233942 0.07831499 -0.01153379
v -0.15330284 0.07682830 -0.01614640
v -0.15209857 0.07682830 -0.01740100
v -0.15242974 0.07682830 -0.01727601
v -0.15274586 0.07716317 -0.01691497
v -0.15221899 0.07834603 -0.01664754
v -0.15116527 0.07981541 -0.01663301
v -0.14996100 0.08126097 -0.01666266
v -0.14807933 0.08332503 -0.01625279
v -0.14682990 0.08420117 -0.01633593
v -0.14675464 0.08420117 -0.01646557
v -0.14982551 0.08167740 -0.01612140
v -0.14702559 0.08420117 -0.01593536
v -0.14835029 0.08320018 -0.01529294
v -0.14836535 0.08304862 -0.01153379
v -0.15227922 0.07857697 -0.01571909
v -0.15265554 0.07784806 -0.01644639
v -0.15202330 0.07880070 -0.01153379
v -0.15318241 0.07682830 -0.01653243
v -0.15280608 0.07682830 -0.01701904
v -0.15291145 0.07682830 -0.01692660
v -0.15298672 0.07682830 -0.01683300
v -0.15139106 0.07970860 -0.01618826
v -0.14979542 0.08177266 -0.01575106
v -0.14893737 0.08250013 -0.01153379
v -0.15078893 0.08048298 -0.01153379
v -0.14950940 0.08192927 -0.01153379
v -0.15053302 0.08080413 -0.01153379
f 1 2 6
f 1 6 12
f 1 12 8
f 1 8 3
f 1 3 9
f 1 9 17
f 1 17 24
f 1 24 35
f 1 35 50
f 1 50 49
f 1 49 52
f 1 52 37
f 1 37 26
f 1 26 18
f 1 18 10
f 1 10 4
f 1 4 5
f 1 5 2
f 2 5 7
f 2 7 11
f 2 11 19
f 2 19 29
f 2 29 41
f 2 41 58
f 2 58 61
f 2 61 60
f 2 60 59
f 2 59 43
f 2 43 42
f 2 42 31
f 2 31 20
f 2 20 13
f 2 13 6
f 3 8 9
f 4 10 5
f 5 10 18
f 5 18 27
f 5 27 38
f 5 38 54
f 5 54 64
f 5 64 66
f 5 66 67
f 5 67 65
f 5 65 57
f 5 57 40
f 5 40 28
f 5 28 19
f 5 19 11
f 5 11 7
f 6 13 14
f 6 14 9
f 6 9 12
f 8 12 9
f 9 14 15
f 9 15 16
f 9 16 17
f 13 20 21
f 13 21 14
f 14 21 15
f 15 21 22
f 15 22 23
f 15 23 16
f 16 24 17
f 16 23 25
f 16 25 24
f 18 26 27
f 19 28 29
f 20 30 21
f 20 31 30
f 21 30 32
f 21 32 22
f 22 32 23
f 23 32 33
f 23 33 25
f 24 25 34
f 24 34 35
f 25 33 36
f 25 36 34
f 26 37 27
f 27 37 38
f 28 39 29
f 28 40 39
f 29 39 41
f 30 31 42
f 30 42 43
f 30 43 32
f 32 43 44
f 32 44 45
f 32 45 46
f 32 46 33
f 33 46 47
f 33 47 36
f 34 36 48
f 34 48 49
f 34 49 50
f 34 50 35
f 36 47 51
f 36 51 48
f 37 52 53
f 37 53 38
f 38 53 54
f 39 40 55
f 39 55 56
f 39 56 41
f 40 57 55
f 41 56 58
f 43 59 44
f 44 56 45
f 44 59 60
f 44 60 61
f 44 61 58
f 44 58 56
f 45 56 46
f 46 56 62
f 46 62 51
f 46 51 47
f 48 52 49
f 48 51 63
f 48 63 53
f 48 53 52
f 51 62 63
f 53 63 64
f 53 64 54
f 55 57 65
f 55 65 63
f 55 63 62
f 55 62 56
f 63 66 64
f 63 65 67
f 63 67 66

