# https://github.com/mikedh/trimesh
v 0.00002560 -0.08783359 0.00599810
v 0.00002560 -0.09009713 0.01267797
v 0.00002560 -0.08599471 0.00599810
v 0.00598009 -0.08788071 0.00599810
v 0.00638735 -0.09038335 0.01294637
v 0.00002560 -0.09020417 0.01301770
v 0.00002560 -0.08552874 0.01256674
v 0.01065661 -0.08577482 0.00599810
v 0.13353807 -0.08863173 0.00599810
v 0.00616266 -0.09046131 0.01323654
v 0.10788043 -0.09107911 0.01352670
v 0.00005369 -0.09020650 0.01302375
v 0.00002560 -0.09020767 0.01303705
v 0.00002560 -0.08544730 0.01420739
v 0.01182223 -0.08576202 0.00599810
v 0.13453517 -0.08862418 0.00599810
v 0.12160102 -0.09103142 0.01333447
v 0.00638735 -0.09047701 0.01353396
v 0.00002560 -0.09024024 0.01352429
v 0.00002560 -0.09023269 0.01331150
v 0.09100003 -0.09115882 0.01418441
v 0.09146346 -0.09121757 0.01466923
v 0.10795064 -0.09116754 0.01388216
v 0.10698164 -0.09111577 0.01368750
v 0.00002560 -0.08543915 0.01472606
v 0.00142996 -0.08542111 0.01453140
v 0.01291763 -0.08575445 0.00599810
v 0.13579910 -0.08854273 0.00599810
v 0.13762477 -0.09120186 0.01469100
v 0.12283685 -0.09118325 0.01396437
v 0.00718784 -0.09046363 0.01374554
v 0.00387355 -0.09020826 0.01492917
v 0.00002560 -0.09017858 0.01444315
v 0.00002560 -0.09018207 0.01441776
v 0.00002560 -0.09024083 0.01367058
v 0.00002560 -0.09024141 0.01359804
v 0.09085959 -0.09119198 0.01508151
v 0.09147750 -0.09115998 0.01547203
v 0.12235938 -0.09129029 0.01471034
v 0.13505479 -0.09134438 0.01590486
v 0.13411387 -0.09133740 0.01654322
v 0.00002560 -0.08543857 0.01504887
v 0.00169679 -0.08541588 0.01516493
v 0.01284741 -0.08573351 0.00646962
v 0.14084074 -0.08540192 0.00599810
v 0.13710515 -0.08841533 0.00599810
v 0.13898699 -0.09095055 0.01450118
v 0.13849546 -0.09129319 0.01546477
v 0.00381737 -0.09013205 0.01533541
v 0.00002560 -0.09006340 0.01519274
v 0.13356617 -0.09126178 0.01704981
v 0.09123876 -0.09100233 0.01617447
v 0.13881848 -0.09128272 0.01598707
v 0.13442282 -0.09121989 0.01715983
v 0.00002560 -0.08545078 0.01536563
v 0.00197766 -0.08544089 0.01560502
v 0.00394377 -0.08542344 0.01542004
v 0.14349499 -0.08540192 0.01804846
v 0.02256558 -0.08540890 0.01530639
v 0.14075649 -0.08540192 0.00835449
v 0.14117779 -0.08540192 0.00599810
v 0.13907126 -0.08806570 0.00599810
v 0.14058796 -0.08767536 0.00599810
v 0.13921170 -0.09069866 0.01393052
v 0.14068626 -0.09058057 0.01480827
v 0.14050370 -0.09086329 0.01563645
v 0.14033518 -0.09099825 0.01616359
v 0.00387355 -0.08998487 0.01590123
v 0.00002560 -0.08992436 0.01585408
v 0.00002560 -0.08998661 0.01557479
v 0.00002560 -0.08976206 0.01638847
v 0.00270793 -0.08982255 0.01632076
v 0.13953469 -0.09113846 0.01661818
v 0.13564462 -0.09100349 0.01746088
v 0.13286399 -0.09107097 0.01741131
v 0.00002560 -0.08547522 0.01564129
v 0.00207597 -0.08547871 0.01587463
v 0.00415442 -0.08546823 0.01591453
v 0.14349499 -0.08557644 0.01813793
v 0.14349499 -0.08540192 0.00638136
v 0.14339668 -0.08540192 0.01802428
v 0.00303094 -0.08552641 0.01613336
v 0.00310115 -0.08562472 0.01641990
v 0.00206193 -0.08566371 0.01648036
v 0.00216023 -0.08580216 0.01674634
v 0.00232875 -0.08596329 0.01695187
v 0.00140188 -0.08609302 0.01704376
v 0.00296072 -0.08611687 0.01707761
v 0.00211810 -0.08622275 0.01713323
v 0.14287706 -0.08540192 0.01786348
v 0.14224511 -0.08540192 0.01756364
v 0.14221702 -0.08540192 0.01754672
v 0.14173954 -0.08540192 0.01717917
v 0.14169741 -0.08540192 0.01710663
v 0.14137441 -0.08540192 0.01645980
v 0.14130419 -0.08540192 0.01625548
v 0.14349499 -0.08540773 0.00599810
v 0.14089693 -0.08758635 0.00599810
v 0.14217489 -0.08987143 0.01419046
v 0.14237150 -0.09017800 0.01546356
v 0.14159910 -0.09063699 0.01629779
v 0.14086883 -0.09086445 0.01653960
v 0.00002560 -0.08984350 0.01613216
v 0.00326967 -0.08973180 0.01653597
v 0.00002560 -0.08967887 0.01654322
v 0.14063009 -0.09088074 0.01680196
v 0.14058796 -0.09071902 0.01719005
v 0.13473178 -0.09067306 0.01780787
v 0.13984365 -0.09064514 0.01742460
v 0.13095405 -0.09090227 0.01757090
v 0.00182319 -0.08957241 0.01674876
v 0.00002560 -0.08958463 0.01669314
v 0.00002560 -0.08960731 0.01665808
v 0.00002560 -0.08547813 0.01566063
v 0.00002560 -0.08552292 0.01590486
v 0.00002560 -0.08553339 0.01594838
v 0.14349499 -0.08580739 0.01821531
v 0.00164062 -0.08638273 0.01720819
v 0.00002560 -0.08564217 0.01630867
v 0.00002560 -0.08573875 0.01652025
v 0.00002560 -0.08580739 0.01664116
v 0.00002560 -0.08591036 0.01680679
v 0.00092440 -0.08599878 0.01694704
v 0.00002560 -0.08605871 0.01696276
v 0.00002560 -0.08620646 0.01706794
v 0.00061544 -0.08625998 0.01712477
v 0.14349499 -0.08657005 0.00599810
v 0.14227319 -0.08709769 0.00599810
v 0.14349499 -0.08937287 0.01419409
v 0.14349499 -0.08946653 0.01450964
v 0.14349499 -0.08968411 0.01532453
v 0.14349499 -0.08980743 0.01588793
v 0.14296133 -0.09014310 0.01642111
v 0.14230128 -0.09040372 0.01668710
v 0.14186593 -0.09044618 0.01698210
v 0.14259620 -0.09000813 0.01729403
v 0.14204850 -0.08993425 0.01759024
v 0.13658554 -0.09009191 0.01808473
v 0.12877730 -0.09039615 0.01795416
v 0.12870708 -0.09060965 0.01780666
v 0.14088288 -0.08990633 0.01777885
v 0.00002560 -0.08949736 0.01680075
v 0.14349499 -0.08619541 0.01829994
v 0.00114909 -0.08670095 0.01730854
v 0.00210406 -0.08700286 0.01738471
v 0.00002560 -0.08652875 0.01722995
v 0.00002560 -0.08668873 0.01728919
v 0.00002560 -0.08629896 0.01712597
v 0.14329838 -0.08667127 0.00599810
v 0.14322816 -0.08670443 0.00599810
v 0.14349499 -0.08988771 0.01634736
v 0.14349499 -0.08991797 0.01652751
v 0.14349499 -0.08990981 0.01669314
v 0.14349499 -0.08987143 0.01690956
v 0.14349499 -0.08984815 0.01696759
v 0.14349499 -0.08980569 0.01704618
v 0.14349499 -0.08959219 0.01736173
v 0.14349499 -0.08948864 0.01747055
v 0.14349499 -0.08934379 0.01757331
v 0.14349499 -0.08896508 0.01777522
v 0.14249790 -0.08874693 0.01808715
v 0.13633275 -0.08899184 0.01834951
v 0.13355212 -0.08949097 0.01825037
v 0.12933904 -0.09002035 0.01811254
v 0.13968917 -0.08855961 0.01831203
v 0.01170988 -0.08901220 0.01729524
v 0.01200479 -0.08916869 0.01719973
v 0.00002560 -0.08938334 0.01688538
v 0.14349499 -0.08644847 0.01831808
v 0.00002560 -0.08711398 0.01738713
v 0.00002560 -0.08760904 0.01743065
v 0.00002560 -0.08675388 0.01730975
v 0.14349499 -0.08840427 0.01805209
v 0.14342477 -0.08800927 0.01821168
v 0.12279473 -0.08892609 0.01826971
v 0.12792064 -0.08940777 0.01826488
v 0.14349499 -0.08715935 0.01831324
v 0.14349499 -0.08676842 0.01832412
v 0.13480201 -0.08825361 0.01833621
v 0.12404461 -0.08967421 0.01817420
v 0.01161157 -0.08878764 0.01737745
v 0.00002560 -0.08875565 0.01721182
v 0.00002560 -0.08900522 0.01709938
v 0.00002560 -0.08910643 0.01704981
v 0.00002560 -0.08925652 0.01696638
v 0.00002560 -0.08772771 0.01743065
v 0.14349499 -0.08800172 0.01820201
v 0.14349499 -0.08797379 0.01821047
v 0.14349499 -0.08794936 0.01821531
v 0.00002560 -0.08796855 0.01741614
v 0.01346533 -0.08835367 0.01748626
v 0.01405516 -0.08858461 0.01744516
v 0.00002560 -0.08821114 0.01738108
v 0.00002560 -0.08840079 0.01733272
v 0.00002560 -0.08856775 0.01728073
v 0.00002560 -0.08808955 0.01739922
f 1 2 6
f 1 6 13
f 1 13 20
f 1 20 19
f 1 19 36
f 1 36 35
f 1 35 34
f 1 34 33
f 1 33 50
f 1 50 70
f 1 70 69
f 1 69 103
f 1 103 71
f 1 71 105
f 1 105 113
f 1 113 112
f 1 112 142
f 1 142 168
f 1 168 185
f 1 185 184
f 1 184 183
f 1 183 182
f 1 182 195
f 1 195 194
f 1 194 193
f 1 193 196
f 1 196 190
f 1 190 186
f 1 186 171
f 1 171 170
f 1 170 172
f 1 172 147
f 1 147 146
f 1 146 148
f 1 148 125
f 1 125 124
f 1 124 122
f 1 122 121
f 1 121 120
f 1 120 119
f 1 119 116
f 1 116 115
f 1 115 114
f 1 114 76
f 1 76 55
f 1 55 42
f 1 42 25
f 1 25 14
f 1 14 7
f 1 7 3
f 1 3 8
f 1 8 15
f 1 15 27
f 1 27 45
f 1 45 61
f 1 61 97
f 1 97 127
f 1 127 149
f 1 149 150
f 1 150 128
f 1 128 98
f 1 98 63
f 1 63 62
f 1 62 46
f 1 46 28
f 1 28 16
f 1 16 9
f 1 9 4
f 1 4 5
f 1 5 2
f 2 5 6
f 3 7 8
f 4 9 5
f 5 10 6
f 5 9 11
f 5 11 10
f 6 10 12
f 6 12 13
f 7 14 15
f 7 15 8
f 9 16 17
f 9 17 11
f 10 18 19
f 10 19 20
f 10 20 13
f 10 13 12
f 10 11 21
f 10 21 22
f 10 22 18
f 11 17 23
f 11 23 24
f 11 24 21
f 14 25 26
f 14 26 15
f 15 26 27
f 16 28 29
f 16 29 17
f 17 30 23
f 17 29 30
f 18 31 32
f 18 32 33
f 18 33 34
f 18 34 35
f 18 35 36
f 18 36 19
f 18 22 37
f 18 37 38
f 18 38 31
f 21 24 23
f 21 23 22
f 22 23 39
f 22 39 40
f 22 40 41
f 22 41 37
f 23 30 39
f 25 42 43
f 25 43 26
f 26 44 27
f 26 43 45
f 26 45 44
f 27 44 45
f 28 46 29
f 29 46 47
f 29 47 48
f 29 48 39
f 29 39 30
f 31 38 32
f 32 38 49
f 32 49 50
f 32 50 33
f 37 41 38
f 38 41 51
f 38 51 52
f 38 52 49
f 39 48 40
f 40 48 53
f 40 53 41
f 41 53 54
f 41 54 51
f 42 55 43
f 43 55 56
f 43 56 57
f 43 57 58
f 43 58 59
f 43 59 45
f 45 60 96
f 45 96 95
f 45 95 94
f 45 94 93
f 45 93 92
f 45 92 91
f 45 91 90
f 45 90 81
f 45 81 58
f 45 58 80
f 45 80 61
f 45 59 60
f 46 62 47
f 47 62 63
f 47 63 64
f 47 64 65
f 47 65 66
f 47 66 48
f 48 66 67
f 48 67 53
f 49 68 69
f 49 69 70
f 49 70 50
f 49 52 68
f 51 54 71
f 51 71 72
f 51 72 68
f 51 68 52
f 53 67 73
f 53 73 54
f 54 73 74
f 54 74 75
f 54 75 71
f 55 76 56
f 56 76 77
f 56 77 78
f 56 78 58
f 56 58 57
f 58 79 117
f 58 117 143
f 58 143 169
f 58 169 178
f 58 178 177
f 58 177 189
f 58 189 188
f 58 188 187
f 58 187 173
f 58 173 160
f 58 160 159
f 58 159 158
f 58 158 157
f 58 157 156
f 58 156 155
f 58 155 154
f 58 154 153
f 58 153 152
f 58 152 151
f 58 151 132
f 58 132 131
f 58 131 130
f 58 130 129
f 58 129 127
f 58 127 97
f 58 97 80
f 58 81 59
f 58 78 82
f 58 82 83
f 58 83 84
f 58 84 85
f 58 85 86
f 58 86 87
f 58 87 88
f 58 88 89
f 58 89 79
f 59 81 90
f 59 90 91
f 59 91 92
f 59 92 93
f 59 93 94
f 59 94 95
f 59 95 96
f 59 96 60
f 61 80 97
f 63 98 65
f 63 65 64
f 65 98 99
f 65 99 100
f 65 100 66
f 66 100 101
f 66 101 67
f 67 101 102
f 67 102 73
f 68 72 71
f 68 71 103
f 68 103 69
f 71 75 104
f 71 104 105
f 73 102 106
f 73 106 107
f 73 107 74
f 74 108 75
f 74 107 109
f 74 109 108
f 75 108 110
f 75 110 111
f 75 111 112
f 75 112 113
f 75 113 104
f 76 114 77
f 77 82 78
f 77 114 115
f 77 115 116
f 77 116 82
f 79 89 118
f 79 118 117
f 82 116 119
f 82 119 84
f 82 84 83
f 84 119 120
f 84 120 85
f 85 120 121
f 85 121 122
f 85 122 86
f 86 122 123
f 86 123 87
f 87 123 124
f 87 124 125
f 87 125 126
f 87 126 89
f 87 89 88
f 89 126 118
f 98 128 99
f 99 128 129
f 99 129 100
f 100 129 130
f 100 130 131
f 100 131 132
f 100 132 133
f 100 133 101
f 101 133 134
f 101 134 102
f 102 134 106
f 104 113 105
f 106 134 135
f 106 135 107
f 107 135 136
f 107 136 137
f 107 137 109
f 108 109 138
f 108 138 139
f 108 139 140
f 108 140 110
f 109 137 141
f 109 141 138
f 110 140 142
f 110 142 111
f 111 142 112
f 117 118 144
f 117 144 145
f 117 145 143
f 118 126 146
f 118 146 147
f 118 147 144
f 122 124 123
f 125 148 126
f 126 148 146
f 127 129 149
f 128 150 129
f 129 150 149
f 132 151 133
f 133 151 152
f 133 152 134
f 134 152 153
f 134 153 154
f 134 154 155
f 134 155 135
f 135 155 136
f 136 155 156
f 136 156 157
f 136 157 158
f 136 158 137
f 137 158 159
f 137 159 160
f 137 160 161
f 137 161 141
f 138 162 163
f 138 163 164
f 138 164 139
f 138 141 161
f 138 161 165
f 138 165 162
f 139 164 166
f 139 166 167
f 139 167 140
f 140 167 168
f 140 168 142
f 143 145 170
f 143 170 171
f 143 171 169
f 144 147 172
f 144 172 145
f 145 172 170
f 160 173 161
f 161 173 174
f 161 174 165
f 162 175 176
f 162 176 163
f 162 165 177
f 162 177 178
f 162 178 179
f 162 179 175
f 163 176 164
f 164 176 180
f 164 180 181
f 164 181 166
f 165 174 177
f 166 181 182
f 166 182 183
f 166 183 184
f 166 184 185
f 166 185 167
f 167 185 168
f 169 179 178
f 169 171 179
f 171 186 175
f 171 175 179
f 173 187 174
f 174 187 188
f 174 188 189
f 174 189 177
f 175 186 190
f 175 190 191
f 175 191 176
f 176 191 192
f 176 192 180
f 180 192 181
f 181 192 193
f 181 193 194
f 181 194 195
f 181 195 182
f 190 196 191
f 191 196 193
f 191 193 192

