# https://github.com/mikedh/trimesh
v -0.15560709 -0.06768119 -0.01581128
v -0.15560577 -0.06725547 -0.01581128
v -0.15560177 -0.06725547 -0.01601456
v -0.15560177 -0.06765936 -0.01604332
v -0.15552069 -0.06934510 -0.01586192
v -0.15552335 -0.06932015 -0.01581128
v -0.15292587 -0.06725547 -0.01581128
v -0.15553132 -0.06725547 -0.01653346
v -0.15553531 -0.06814123 -0.01647545
v -0.15550074 -0.06725547 -0.01674632
v -0.15537712 -0.06985504 -0.01663374
v -0.15527610 -0.07102461 -0.01610526
v -0.15529470 -0.07095132 -0.01581128
v -0.15551936 -0.06935914 -0.01581128
v -0.14202685 -0.08318659 -0.01581128
v -0.15358521 -0.06725547 -0.01741172
v -0.15538377 -0.06896149 -0.01691863
v -0.15547815 -0.06725547 -0.01683014
v -0.15516177 -0.07059732 -0.01701499
v -0.15501289 -0.07180277 -0.01680556
v -0.15516310 -0.07164838 -0.01581128
v -0.15513785 -0.07176066 -0.01603791
v -0.14849793 -0.08318659 -0.01581128
v -0.14233658 -0.08318659 -0.01647840
v -0.15378993 -0.06725547 -0.01776813
v -0.14254794 -0.08318659 -0.01693141
v -0.14278057 -0.08318659 -0.01735125
v -0.15524286 -0.06889287 -0.01730799
v -0.15535452 -0.06762817 -0.01722171
v -0.15543827 -0.06725547 -0.01697394
v -0.15490123 -0.06988778 -0.01771234
v -0.15494909 -0.07134741 -0.01721728
v -0.15470050 -0.07240470 -0.01723547
v -0.15452105 -0.07349007 -0.01681195
v -0.15466727 -0.07333412 -0.01636828
v -0.15514051 -0.07175910 -0.01581128
v -0.15500492 -0.07234389 -0.01581128
v -0.14849262 -0.08318659 -0.01590493
v -0.14870930 -0.08299790 -0.01581128
v -0.14871062 -0.08299167 -0.01591108
v -0.15386304 -0.06725547 -0.01786916
v -0.14297997 -0.08318659 -0.01760885
v -0.15508600 -0.06812563 -0.01772094
v -0.15535187 -0.06725547 -0.01723351
v -0.15530534 -0.06725547 -0.01734682
v -0.15488661 -0.06885544 -0.01789890
v -0.15458751 -0.06932639 -0.01807809
v -0.15441071 -0.07101370 -0.01791168
v -0.15453966 -0.07195871 -0.01760664
v -0.15427512 -0.07331697 -0.01745768
v -0.15431501 -0.07375361 -0.01712462
v -0.15396273 -0.07526002 -0.01647840
v -0.15469385 -0.07338247 -0.01581128
v -0.15491585 -0.07266513 -0.01581128
v -0.15407839 -0.07517113 -0.01581128
v -0.14841419 -0.08318659 -0.01626455
v -0.14872126 -0.08285911 -0.01655754
v -0.14959462 -0.08212150 -0.01581128
v -0.14950954 -0.08218855 -0.01606618
v -0.15398268 -0.06725547 -0.01796035
v -0.14307302 -0.08318659 -0.01770791
v -0.14325646 -0.08318659 -0.01788391
v -0.14355290 -0.08318659 -0.01811767
v -0.14358347 -0.08318659 -0.01814126
v -0.15520565 -0.06725547 -0.01754298
v -0.15510993 -0.06725547 -0.01766268
v -0.15506473 -0.06725547 -0.01771897
v -0.15493447 -0.06814278 -0.01790726
v -0.15466860 -0.06817086 -0.01808965
v -0.15348950 -0.07336531 -0.01795126
v -0.15432829 -0.06847494 -0.01816855
v -0.15142242 -0.07701438 -0.01815921
v -0.15401724 -0.07241406 -0.01787285
v -0.15410098 -0.07301444 -0.01772561
v -0.15359319 -0.07463469 -0.01763638
v -0.15357324 -0.07541128 -0.01725784
v -0.15304684 -0.07682880 -0.01700540
v -0.15364769 -0.07606780 -0.01631248
v -0.15406642 -0.07520388 -0.01581128
v -0.15406642 -0.07520232 -0.01581595
v -0.14830918 -0.08318659 -0.01662760
v -0.14946302 -0.08209967 -0.01664800
v -0.14872392 -0.08268602 -0.01698402
v -0.14999075 -0.08168330 -0.01581128
v -0.15015692 -0.08145874 -0.01622595
v -0.15415948 -0.06725547 -0.01803139
v -0.14396897 -0.08318659 -0.01828383
v -0.15497035 -0.06725547 -0.01782147
v -0.15482546 -0.06763285 -0.01800116
v -0.15469120 -0.06725547 -0.01805474
v -0.15458751 -0.06725547 -0.01807957
v -0.15448515 -0.06725547 -0.01810071
v -0.15344032 -0.07442884 -0.01779935
v -0.15158725 -0.07758357 -0.01804048
v -0.15432431 -0.06725547 -0.01808940
v -0.14424015 -0.08318659 -0.01832218
v -0.14459375 -0.08318659 -0.01831554
v -0.15049057 -0.07822917 -0.01821402
v -0.15057299 -0.07875002 -0.01816683
v -0.15224393 -0.07692860 -0.01784482
v -0.15191959 -0.07805919 -0.01768579
v -0.15296708 -0.07652471 -0.01740090
v -0.15234496 -0.07782996 -0.01731290
v -0.15213493 -0.07841630 -0.01705899
v -0.15280490 -0.07756797 -0.01656566
v -0.15307077 -0.07725765 -0.01611338
v -0.15343765 -0.07658865 -0.01581128
v -0.14822942 -0.08318659 -0.01679671
v -0.14925033 -0.08212930 -0.01706611
v -0.15013697 -0.08125290 -0.01688619
v -0.14813770 -0.08304156 -0.01722023
v -0.14807388 -0.08318659 -0.01704301
v -0.14875051 -0.08236321 -0.01738345
v -0.15081360 -0.08071957 -0.01581128
v -0.15094254 -0.08056207 -0.01581128
v -0.15084949 -0.08061197 -0.01619818
v -0.15084683 -0.08048410 -0.01661703
v -0.15470981 -0.06725547 -0.01804565
v -0.15093191 -0.07858004 -0.01808399
v -0.15070858 -0.07939406 -0.01795249
v -0.14506166 -0.08318659 -0.01828506
v -0.14518796 -0.08287315 -0.01830350
v -0.14960126 -0.07990868 -0.01814618
v -0.14974749 -0.08029229 -0.01804982
v -0.15159922 -0.07880772 -0.01755625
v -0.15088272 -0.07949543 -0.01779738
v -0.15090532 -0.08002251 -0.01732716
v -0.15124031 -0.07975897 -0.01700343
v -0.15196346 -0.07887165 -0.01668708
v -0.15224261 -0.07869232 -0.01599195
v -0.15232502 -0.07858472 -0.01581128
v -0.15289264 -0.07761320 -0.01581128
v -0.15319174 -0.07707831 -0.01581128
v -0.14968236 -0.08149773 -0.01731118
v -0.14851389 -0.08230239 -0.01760123
v -0.14789177 -0.08318659 -0.01726276
v -0.14797419 -0.08318659 -0.01718975
v -0.14933142 -0.08153516 -0.01761721
v -0.15140780 -0.07990711 -0.01581128
v -0.14961456 -0.08083654 -0.01788022
v -0.14519859 -0.08318659 -0.01826687
v -0.14919981 -0.08082562 -0.01803041
v -0.15054242 -0.08028450 -0.01753413
v -0.15009444 -0.08071022 -0.01762630
v -0.15212164 -0.07889972 -0.01581128
v -0.14804996 -0.08231175 -0.01779517
v -0.14723110 -0.08318659 -0.01764081
v -0.14765249 -0.08318659 -0.01742376
v -0.14530759 -0.08318659 -0.01824254
v -0.14544185 -0.08318659 -0.01820714
v -0.14673926 -0.08318659 -0.01784777
v -0.14707691 -0.08318659 -0.01770693
f 1 2 3
f 1 3 4
f 1 4 5
f 1 5 6
f 1 6 14
f 1 14 13
f 1 13 21
f 1 21 36
f 1 36 37
f 1 37 54
f 1 54 53
f 1 53 55
f 1 55 79
f 1 79 107
f 1 107 133
f 1 133 132
f 1 132 131
f 1 131 145
f 1 145 139
f 1 139 115
f 1 115 114
f 1 114 84
f 1 84 58
f 1 58 39
f 1 39 23
f 1 23 15
f 1 15 7
f 1 7 2
f 2 7 16
f 2 16 25
f 2 25 41
f 2 41 60
f 2 60 86
f 2 86 95
f 2 95 92
f 2 92 91
f 2 91 90
f 2 90 118
f 2 118 88
f 2 88 67
f 2 67 66
f 2 66 65
f 2 65 45
f 2 45 44
f 2 44 30
f 2 30 18
f 2 18 10
f 2 10 8
f 2 8 3
f 3 8 4
f 4 9 5
f 4 8 10
f 4 10 9
f 5 11 12
f 5 12 13
f 5 13 14
f 5 14 6
f 5 9 11
f 7 15 16
f 9 10 17
f 9 17 11
f 10 18 17
f 11 17 19
f 11 19 20
f 11 20 12
f 12 21 13
f 12 20 22
f 12 22 21
f 15 23 38
f 15 38 56
f 15 56 81
f 15 81 108
f 15 108 112
f 15 112 137
f 15 137 136
f 15 136 148
f 15 148 147
f 15 147 152
f 15 152 151
f 15 151 150
f 15 150 149
f 15 149 141
f 15 141 121
f 15 121 97
f 15 97 96
f 15 96 87
f 15 87 64
f 15 64 63
f 15 63 62
f 15 62 61
f 15 61 42
f 15 42 27
f 15 27 26
f 15 26 24
f 15 24 16
f 16 24 26
f 16 26 27
f 16 27 25
f 17 28 19
f 17 18 29
f 17 29 28
f 18 30 29
f 19 28 31
f 19 31 32
f 19 32 20
f 20 33 34
f 20 34 35
f 20 35 22
f 20 32 33
f 21 22 36
f 22 35 37
f 22 37 36
f 23 39 40
f 23 40 38
f 25 27 41
f 27 42 41
f 28 29 43
f 28 43 31
f 29 30 44
f 29 44 45
f 29 45 43
f 31 43 46
f 31 46 47
f 31 47 48
f 31 48 49
f 31 49 32
f 32 49 33
f 33 49 50
f 33 50 51
f 33 51 34
f 34 51 52
f 34 52 35
f 35 53 54
f 35 54 37
f 35 52 55
f 35 55 53
f 38 40 57
f 38 57 56
f 39 58 40
f 40 58 59
f 40 59 57
f 41 42 61
f 41 61 62
f 41 62 63
f 41 63 64
f 41 64 60
f 43 45 65
f 43 65 66
f 43 66 67
f 43 67 68
f 43 68 46
f 46 68 69
f 46 69 47
f 47 70 48
f 47 69 71
f 47 71 72
f 47 72 70
f 48 70 73
f 48 73 74
f 48 74 49
f 49 74 50
f 50 74 75
f 50 75 76
f 50 76 51
f 51 76 52
f 52 76 77
f 52 77 78
f 52 78 79
f 52 79 80
f 52 80 55
f 55 80 79
f 56 57 81
f 57 59 82
f 57 82 83
f 57 83 81
f 58 84 85
f 58 85 59
f 59 85 82
f 60 64 86
f 64 87 86
f 67 88 89
f 67 89 68
f 68 89 69
f 69 89 90
f 69 90 91
f 69 91 92
f 69 92 71
f 70 93 73
f 70 72 94
f 70 94 93
f 71 92 95
f 71 95 96
f 71 96 97
f 71 97 98
f 71 98 72
f 72 98 99
f 72 99 94
f 73 93 74
f 74 93 75
f 75 93 100
f 75 100 101
f 75 101 102
f 75 102 76
f 76 102 77
f 77 102 103
f 77 103 104
f 77 104 105
f 77 105 78
f 78 105 106
f 78 106 107
f 78 107 79
f 81 83 108
f 82 109 83
f 82 85 110
f 82 110 109
f 83 111 112
f 83 112 108
f 83 109 113
f 83 113 111
f 84 114 85
f 85 114 115
f 85 115 116
f 85 116 117
f 85 117 110
f 86 87 95
f 87 96 95
f 88 118 89
f 89 118 90
f 93 94 100
f 94 99 119
f 94 119 120
f 94 120 101
f 94 101 100
f 97 121 122
f 97 122 98
f 98 122 99
f 99 122 121
f 99 121 123
f 99 123 124
f 99 124 120
f 99 120 119
f 101 125 103
f 101 103 102
f 101 120 126
f 101 126 125
f 103 125 104
f 104 125 127
f 104 127 128
f 104 128 129
f 104 129 105
f 105 129 130
f 105 130 106
f 106 130 131
f 106 131 132
f 106 132 133
f 106 133 107
f 109 110 134
f 109 134 113
f 110 117 127
f 110 127 134
f 111 113 135
f 111 135 136
f 111 136 137
f 111 137 112
f 113 134 138
f 113 138 135
f 115 139 116
f 116 139 130
f 116 130 129
f 116 129 117
f 117 129 128
f 117 128 127
f 120 124 140
f 120 140 126
f 121 141 123
f 123 141 124
f 124 141 142
f 124 142 140
f 125 126 143
f 125 143 127
f 126 144 143
f 126 140 144
f 127 143 134
f 130 139 145
f 130 145 131
f 134 143 144
f 134 144 138
f 135 146 147
f 135 147 148
f 135 148 136
f 135 138 140
f 135 140 146
f 138 144 140
f 140 142 146
f 141 149 142
f 142 149 150
f 142 150 151
f 142 151 146
f 146 151 152
f 146 152 147

