# https://github.com/mikedh/trimesh
v 0.09404040 -0.06162226 -0.01143113
v 0.09169370 -0.08107590 -0.01108155
v 0.09404040 -0.07409240 -0.01119599
v 0.09404040 -0.06162226 -0.01478610
v 0.00003480 -0.06162226 -0.01241951
v 0.00003480 -0.08107590 -0.01177981
v 0.09356186 -0.08107590 -0.01109719
v 0.09404040 -0.08107590 -0.01110166
v 0.09404040 -0.06554155 -0.01473782
v 0.08574877 -0.06162226 -0.01489472
v 0.00003480 -0.06162226 -0.01564797
v 0.00003480 -0.08107590 -0.01513567
v 0.09404040 -0.08107590 -0.01451788
v 0.09404040 -0.07369628 -0.01463410
v 0.07229442 -0.06162226 -0.01506147
v 0.00003480 -0.06936944 -0.01549151
v 0.00330177 -0.06162226 -0.01564663
v 0.00003480 -0.06948941 -0.01548883
v 0.00471898 -0.08107590 -0.01511958
v 0.09404040 -0.08027224 -0.01453710
v 0.07300302 -0.08107590 -0.01469579
v 0.05858239 -0.08049506 -0.01483706
v 0.07419937 -0.08045696 -0.01470563
v 0.09404040 -0.08015417 -0.01453978
v 0.06002722 -0.06354382 -0.01517546
v 0.06069901 -0.06162226 -0.01519513
v 0.00003480 -0.06945514 -0.01548972
v 0.00651351 -0.06162226 -0.01564082
v 0.01071914 -0.06488643 -0.01556527
v 0.01205353 -0.07420857 -0.01530107
v 0.01294620 -0.08000752 -0.01512003
v 0.03010003 -0.08032366 -0.01502660
v 0.02967671 -0.08107590 -0.01499799
v 0.06001801 -0.07585398 -0.01493853
v 0.05930940 -0.08107590 -0.01481023
v 0.04657287 -0.08101877 -0.01490232
v 0.04115248 -0.07648435 -0.01506594
v 0.03805116 -0.07135194 -0.01521525
v 0.05403626 -0.06515496 -0.01521480
v 0.05326323 -0.06162226 -0.01527157
v 0.01026821 -0.06162226 -0.01562428
v 0.04453907 -0.06785733 -0.01524207
v 0.02249860 -0.07370580 -0.01525637
v 0.04802689 -0.06162226 -0.01532432
v 0.03845608 -0.08107590 -0.01494747
v 0.04660968 -0.08107590 -0.01489964
v 0.04653606 -0.08107590 -0.01490009
v 0.04448385 -0.08107590 -0.01491216
f 1 2 3
f 1 3 8
f 1 8 13
f 1 13 20
f 1 20 24
f 1 24 14
f 1 14 9
f 1 9 4
f 1 4 10
f 1 10 15
f 1 15 26
f 1 26 40
f 1 40 44
f 1 44 41
f 1 41 28
f 1 28 17
f 1 17 11
f 1 11 5
f 1 5 6
f 1 6 2
f 2 7 3
f 2 6 12
f 2 12 19
f 2 19 33
f 2 33 45
f 2 45 48
f 2 48 47
f 2 47 46
f 2 46 35
f 2 35 21
f 2 21 13
f 2 13 8
f 2 8 7
f 3 7 8
f 4 9 10
f 5 11 16
f 5 16 27
f 5 27 18
f 5 18 12
f 5 12 6
f 9 14 10
f 10 14 15
f 11 17 16
f 12 18 19
f 13 21 22
f 13 22 23
f 13 23 20
f 14 24 25
f 14 25 15
f 15 25 26
f 16 17 28
f 16 28 29
f 16 29 27
f 18 27 29
f 18 29 30
f 18 30 19
f 19 30 31
f 19 31 32
f 19 32 33
f 20 23 34
f 20 34 24
f 21 35 22
f 22 34 23
f 22 35 36
f 22 36 37
f 22 37 38
f 22 38 34
f 24 34 39
f 24 39 25
f 25 39 26
f 26 39 40
f 28 41 29
f 29 42 38
f 29 38 37
f 29 37 43
f 29 43 30
f 29 41 44
f 29 44 39
f 29 39 42
f 30 43 32
f 30 32 31
f 32 45 33
f 32 43 37
f 32 37 36
f 32 36 45
f 34 38 42
f 34 42 39
f 35 46 36
f 36 46 47
f 36 47 48
f 36 48 45
f 39 44 40

