# https://github.com/mikedh/trimesh
v -0.15386941 0.07749977 0.01749584
v -0.15353145 0.07785296 0.01749233
v -0.15353145 0.07798407 0.01749233
v -0.15353145 0.07813390 0.01748601
v -0.15353145 0.07849780 0.01744667
v -0.15467490 0.07752652 0.01733780
v -0.15612026 0.07281734 0.01744808
v -0.15581364 0.07173637 0.01747828
v -0.15633652 0.05508299 0.01742139
v -0.15353145 0.07597999 0.01739329
v -0.15578021 0.05508299 0.01735958
v -0.15558432 0.05508299 0.01733570
v -0.15515912 0.05508299 0.01723104
v -0.15353145 0.07938077 0.01734553
v -0.15353145 0.07989182 0.01724579
v -0.15438603 0.07916404 0.01710953
v -0.15541090 0.07721883 0.01714394
v -0.15624772 0.07442810 0.01723315
v -0.15714200 0.07174172 0.01721699
v -0.15679724 0.07055640 0.01740874
v -0.15659770 0.06747938 0.01745229
v -0.15635637 0.05539069 0.01742209
v -0.15638823 0.05508299 0.01741787
v -0.15353145 0.07470101 0.01718328
v -0.15489741 0.05508299 0.01706176
v -0.15476003 0.05508299 0.01694095
v -0.15451400 0.05508299 0.01670916
v -0.15441424 0.05508299 0.01655113
v -0.15433692 0.05508299 0.01635446
v -0.15353145 0.08021825 0.01713060
v -0.15509069 0.07864763 0.01678853
v -0.15353145 0.08125641 0.01658906
v -0.15353145 0.08139019 0.01651741
v -0.15353145 0.08142765 0.01649704
v -0.15419850 0.08067044 0.01641135
v -0.15609310 0.07644020 0.01690724
v -0.15748362 0.07266751 0.01683630
v -0.15768159 0.07080524 0.01697607
v -0.15784770 0.06884129 0.01699925
v -0.15729192 0.06831151 0.01731884
v -0.15706991 0.06527462 0.01741577
v -0.15691791 0.05508299 0.01735887
v -0.15353145 0.07432642 0.01709337
v -0.15428834 0.05508299 0.01615287
v -0.15608892 0.07706364 0.01650547
v -0.15494495 0.07981690 0.01620344
v -0.15353145 0.08153736 0.01639309
v -0.15461012 0.08066242 0.01575743
v -0.15697432 0.07504885 0.01659116
v -0.15783830 0.07261667 0.01640784
v -0.15795114 0.07119321 0.01667685
v -0.15816113 0.06823124 0.01672251
v -0.15819507 0.06459500 0.01680118
v -0.15775734 0.06595692 0.01714535
v -0.15727363 0.05508299 0.01731533
v -0.15724804 0.05508299 0.01732165
v -0.15353145 0.07307153 0.01673866
v -0.15419850 0.05508299 0.01568719
v -0.15541246 0.07948512 0.01567735
v -0.15353145 0.08189055 0.01591195
v -0.15497316 0.08052328 0.01494687
v -0.15353145 0.08220895 0.01515337
v -0.15724229 0.07504618 0.01588315
v -0.15659509 0.07656061 0.01598079
v -0.15736453 0.07520404 0.01505925
v -0.15822851 0.07166145 0.01559869
v -0.15821284 0.07111829 0.01617746
v -0.15822433 0.07009083 0.01644085
v -0.15845887 0.06436757 0.01641697
v -0.15824000 0.05508299 0.01659748
v -0.15802792 0.05508299 0.01685807
v -0.15353145 0.07269694 0.01649915
v -0.15416715 0.05508299 0.01544908
v -0.15568514 0.07925233 0.01497707
v -0.15646815 0.07737134 0.01535145
v -0.15353145 0.08225444 0.01502905
v -0.15355913 0.08238287 0.01394456
v -0.15474697 0.08086041 0.01404360
v -0.15539471 0.07988647 0.01443413
v -0.15752906 0.07478931 0.01403938
v -0.15663479 0.07723220 0.01461324
v -0.15837112 0.07111562 0.01453597
v -0.15852417 0.06956640 0.01536479
v -0.15856334 0.06597297 0.01599343
v -0.15870699 0.05683288 0.01558745
v -0.15854715 0.05546561 0.01606226
v -0.15844373 0.05508299 0.01624348
v -0.15353145 0.07235178 0.01624348
v -0.15410552 0.05508299 0.01434492
v -0.15353145 0.08239625 0.01407731
v -0.15353145 0.08241498 0.01394386
v -0.15353145 0.08230795 0.01363200
v -0.15367979 0.08208587 0.01349644
v -0.15491204 0.08042161 0.01367274
v -0.15569872 0.07890717 0.01357510
v -0.15686045 0.07656864 0.01380689
v -0.15741624 0.07496858 0.01356106
v -0.15795009 0.07280129 0.01340442
v -0.15850379 0.06990086 0.01389961
v -0.15886736 0.06475822 0.01402885
v -0.15881669 0.06406522 0.01498761
v -0.15885534 0.05749377 0.01460130
v -0.15872579 0.05569037 0.01541115
v -0.15850902 0.05508299 0.01610932
v -0.15353145 0.07213237 0.01581292
v -0.15393366 0.05508299 0.01032094
v -0.15353145 0.08227852 0.01354912
v -0.15353145 0.08224106 0.01346623
v -0.15353145 0.08221698 0.01342198
v -0.15353145 0.08220093 0.01339529
v -0.15403970 0.08130725 0.01311223
v -0.15504629 0.07958680 0.01301881
v -0.15698268 0.07590507 0.01331382
v -0.15752541 0.07408829 0.01313330
v -0.15799502 0.07208153 0.01304269
v -0.15853357 0.06852824 0.01321970
v -0.15872841 0.06504719 0.01338546
v -0.15882870 0.06373611 0.01375211
v -0.15877803 0.05776936 0.01371629
v -0.15883183 0.05648504 0.01445028
v -0.15865424 0.05508299 0.01549263
v -0.15353145 0.07188621 0.01504099
v -0.15353145 0.07104070 0.01032094
v -0.15602311 0.05508299 0.01032094
v -0.15353145 0.08195477 0.01308694
v -0.15353145 0.08167382 0.01281301
v -0.15353145 0.08165777 0.01280178
v -0.15353145 0.08154004 0.01273083
v -0.15359465 0.08115206 0.01256015
v -0.15353145 0.07688971 0.01032094
v -0.15549761 0.07779945 0.01255664
v -0.15664001 0.07590774 0.01284111
v -0.15490108 0.07367891 0.01032094
v -0.15780540 0.07175243 0.01267043
v -0.15826873 0.06970821 0.01295700
v -0.15831261 0.06821251 0.01280037
v -0.15845104 0.06705395 0.01295911
v -0.15864118 0.06335884 0.01311715
v -0.15858580 0.05741617 0.01317826
v -0.15858319 0.05635126 0.01353858
v -0.15860774 0.05856404 0.01316421
v -0.15849752 0.05508299 0.01413561
v -0.15861819 0.05508299 0.01462939
v -0.15866155 0.05508299 0.01496864
v -0.15801748 0.05508299 0.01313962
v -0.15833977 0.05687569 0.01286499
v -0.15810941 0.05749644 0.01253908
v -0.15844215 0.05859079 0.01284673
v -0.15844477 0.06322506 0.01278211
v -0.15604452 0.06673286 0.01032094
v -0.15353145 0.08123768 0.01256366
v -0.15413686 0.07562947 0.01032094
v -0.15427111 0.07529501 0.01032094
v -0.15492510 0.07360131 0.01032094
v -0.15550127 0.07151429 0.01032094
v -0.15562507 0.07076510 0.01032094
v -0.15575618 0.06994367 0.01032094
v -0.15788532 0.07007478 0.01248851
v -0.15530224 0.07237050 0.01032094
v -0.15818881 0.05508299 0.01344025
v -0.15838000 0.05508299 0.01379495
v -0.15588311 0.06897240 0.01032094
f 1 2 3
f 1 3 4
f 1 4 5
f 1 5 6
f 1 6 7
f 1 7 8
f 1 8 9
f 1 9 2
f 2 10 24
f 2 24 43
f 2 43 57
f 2 57 72
f 2 72 88
f 2 88 105
f 2 105 122
f 2 122 123
f 2 123 130
f 2 130 151
f 2 151 128
f 2 128 127
f 2 127 126
f 2 126 125
f 2 125 110
f 2 110 109
f 2 109 108
f 2 108 107
f 2 107 92
f 2 92 91
f 2 91 90
f 2 90 76
f 2 76 62
f 2 62 60
f 2 60 47
f 2 47 34
f 2 34 33
f 2 33 32
f 2 32 30
f 2 30 15
f 2 15 14
f 2 14 5
f 2 5 4
f 2 4 3
f 2 9 11
f 2 11 12
f 2 12 13
f 2 13 10
f 5 14 6
f 6 14 15
f 6 15 16
f 6 16 17
f 6 17 18
f 6 18 7
f 7 18 19
f 7 19 20
f 7 20 21
f 7 21 8
f 8 21 22
f 8 22 9
f 9 22 23
f 9 23 42
f 9 42 56
f 9 56 55
f 9 55 71
f 9 71 70
f 9 70 87
f 9 87 104
f 9 104 121
f 9 121 144
f 9 144 143
f 9 143 142
f 9 142 161
f 9 161 160
f 9 160 145
f 9 145 124
f 9 124 106
f 9 106 89
f 9 89 73
f 9 73 58
f 9 58 44
f 9 44 29
f 9 29 28
f 9 28 27
f 9 27 26
f 9 26 25
f 9 25 13
f 9 13 12
f 9 12 11
f 10 13 25
f 10 25 26
f 10 26 27
f 10 27 28
f 10 28 29
f 10 29 24
f 15 30 16
f 16 31 17
f 16 30 32
f 16 32 33
f 16 33 34
f 16 34 35
f 16 35 31
f 17 36 18
f 17 31 36
f 18 37 19
f 18 36 37
f 19 38 39
f 19 39 40
f 19 40 20
f 19 37 38
f 20 40 41
f 20 41 21
f 21 41 22
f 22 41 23
f 23 41 42
f 24 29 44
f 24 44 43
f 31 45 36
f 31 35 46
f 31 46 45
f 34 47 35
f 35 47 48
f 35 48 46
f 36 45 49
f 36 49 37
f 37 49 50
f 37 50 51
f 37 51 38
f 38 51 39
f 39 52 53
f 39 53 54
f 39 54 40
f 39 51 52
f 40 54 41
f 41 54 55
f 41 55 56
f 41 56 42
f 43 44 58
f 43 58 57
f 45 46 59
f 45 59 49
f 46 48 59
f 47 60 48
f 48 61 59
f 48 60 62
f 48 62 61
f 49 63 50
f 49 59 64
f 49 64 63
f 50 63 65
f 50 65 66
f 50 66 67
f 50 67 51
f 51 67 68
f 51 68 52
f 52 69 53
f 52 68 69
f 53 69 70
f 53 70 71
f 53 71 54
f 54 71 55
f 57 58 73
f 57 73 72
f 59 74 75
f 59 75 64
f 59 61 74
f 61 62 76
f 61 76 77
f 61 77 78
f 61 78 79
f 61 79 74
f 63 64 75
f 63 75 65
f 65 80 66
f 65 75 81
f 65 81 80
f 66 82 83
f 66 83 67
f 66 80 82
f 67 83 68
f 68 83 84
f 68 84 69
f 69 84 85
f 69 85 86
f 69 86 87
f 69 87 70
f 72 73 89
f 72 89 88
f 74 81 75
f 74 79 81
f 76 90 77
f 77 90 91
f 77 91 92
f 77 92 93
f 77 93 78
f 78 94 79
f 78 93 94
f 79 94 95
f 79 95 96
f 79 96 81
f 80 97 98
f 80 98 82
f 80 81 96
f 80 96 97
f 82 99 83
f 82 98 99
f 83 99 100
f 83 100 101
f 83 101 84
f 84 101 85
f 85 102 103
f 85 103 86
f 85 101 102
f 86 103 104
f 86 104 87
f 88 89 106
f 88 106 105
f 92 107 93
f 93 107 108
f 93 108 109
f 93 109 110
f 93 110 111
f 93 111 94
f 94 111 112
f 94 112 95
f 95 112 113
f 95 113 96
f 96 113 97
f 97 114 98
f 97 113 114
f 98 114 115
f 98 115 99
f 99 115 116
f 99 116 100
f 100 116 117
f 100 117 118
f 100 118 119
f 100 119 102
f 100 102 101
f 102 119 120
f 102 120 103
f 103 120 121
f 103 121 104
f 105 106 122
f 106 123 122
f 106 124 150
f 106 150 162
f 106 162 157
f 106 157 156
f 106 156 155
f 106 155 159
f 106 159 154
f 106 154 133
f 106 133 153
f 106 153 152
f 106 152 130
f 106 130 123
f 110 125 111
f 111 125 126
f 111 126 127
f 111 127 112
f 112 127 128
f 112 128 129
f 112 129 130
f 112 130 131
f 112 131 132
f 112 132 113
f 113 132 114
f 114 132 133
f 114 133 134
f 114 134 115
f 115 134 135
f 115 135 116
f 116 136 137
f 116 137 117
f 116 135 136
f 117 137 138
f 117 138 118
f 118 138 119
f 119 139 140
f 119 140 120
f 119 138 141
f 119 141 139
f 120 140 142
f 120 142 143
f 120 143 144
f 120 144 121
f 124 145 146
f 124 146 147
f 124 147 148
f 124 148 149
f 124 149 150
f 128 151 129
f 129 151 130
f 130 152 131
f 131 152 132
f 132 152 153
f 132 153 133
f 133 154 134
f 134 155 156
f 134 156 157
f 134 157 158
f 134 158 135
f 134 154 159
f 134 159 155
f 135 158 136
f 136 150 149
f 136 149 137
f 136 158 150
f 137 149 138
f 138 149 148
f 138 148 141
f 139 146 140
f 139 141 148
f 139 148 146
f 140 146 160
f 140 160 161
f 140 161 142
f 145 160 146
f 146 148 147
f 150 158 162
f 157 162 158

