# https://github.com/mikedh/trimesh
v 0.13933888 -0.08540134 -0.00912874
v 0.14087326 -0.08053443 -0.00912874
v 0.14349499 -0.08540134 -0.00912874
v 0.13931268 -0.08540134 -0.00681068
v 0.14061330 -0.08108144 -0.00461773
v 0.14114346 -0.07975628 -0.00912874
v 0.14101778 -0.07992756 -0.00579257
v 0.14349499 -0.07609941 -0.00912874
v 0.14349499 -0.08540134 0.00556190
v 0.13932496 -0.08540134 -0.00467381
v 0.14032510 -0.08191300 0.00153261
v 0.14057318 -0.08102526 0.00143914
v 0.14133178 -0.07936674 -0.00912874
v 0.14128552 -0.07939252 -0.00724783
v 0.14101450 -0.07989164 -0.00333647
v 0.14143986 -0.07898733 -0.00457027
v 0.14291693 -0.07684902 -0.00912874
v 0.14285266 -0.07682692 -0.00626424
v 0.14329889 -0.07621176 -0.00499448
v 0.14349499 -0.07599535 -0.00491539
v 0.14349499 -0.08402645 0.00556190
v 0.14082414 -0.08540134 0.00556190
v 0.13946169 -0.08540134 0.00245725
v 0.14067471 -0.08090647 0.00233214
v 0.14082537 -0.08033091 0.00180296
v 0.14162040 -0.07881236 -0.00912874
v 0.14133055 -0.07918071 0.00150098
v 0.14179684 -0.07833994 -0.00525476
v 0.14193113 -0.07807657 0.00177132
v 0.14219477 -0.07788686 -0.00912874
v 0.14245883 -0.07730026 -0.00501030
v 0.14283300 -0.07679469 0.00153549
v 0.14349499 -0.07601377 0.00138306
v 0.14349499 -0.07600180 -0.00103135
v 0.14349499 -0.07599443 -0.00380382
v 0.14349499 -0.07828469 0.00418285
v 0.14349499 -0.07774873 0.00403330
v 0.14349499 -0.07725237 0.00387512
v 0.14321906 -0.07754061 0.00385067
v 0.14249117 -0.07873501 0.00385211
v 0.14237081 -0.07833166 0.00358033
v 0.14140424 -0.08031065 0.00362491
v 0.14104275 -0.08118273 0.00354725
v 0.14098175 -0.08062007 0.00311729
v 0.13970077 -0.08540134 0.00350699
v 0.13953211 -0.08540134 0.00289871
v 0.14045323 -0.08186603 0.00266576
v 0.14115165 -0.07988520 0.00278799
v 0.14140179 -0.07914940 0.00241267
v 0.14192990 -0.07829482 -0.00912874
v 0.14183369 -0.07851491 0.00287139
v 0.14230490 -0.07761888 0.00248313
v 0.14302542 -0.07663261 0.00244862
v 0.14349499 -0.07604877 0.00189930
v 0.14349499 -0.07680850 0.00365367
v 0.14343113 -0.07684441 0.00363210
v 0.14316871 -0.07688677 0.00338476
v 0.14221606 -0.07826627 0.00333299
v 0.14151028 -0.07960617 0.00332868
v 0.14259065 -0.07744115 0.00306121
v 0.14349499 -0.07626794 0.00303964
v 0.14349499 -0.07609389 0.00247882
v 0.14349499 -0.07677351 0.00363497
v 0.14349499 -0.07674864 0.00361484
v 0.14349499 -0.07651934 0.00340921
v 0.14349499 -0.07631306 0.00313311
v 0.14349499 -0.07629096 0.00309572
f 1 2 6
f 1 6 13
f 1 13 26
f 1 26 50
f 1 50 30
f 1 30 17
f 1 17 8
f 1 8 3
f 1 3 9
f 1 9 22
f 1 22 45
f 1 45 46
f 1 46 23
f 1 23 10
f 1 10 4
f 1 4 5
f 1 5 2
f 2 5 7
f 2 7 6
f 3 8 20
f 3 20 35
f 3 35 34
f 3 34 33
f 3 33 54
f 3 54 62
f 3 62 61
f 3 61 67
f 3 67 66
f 3 66 65
f 3 65 64
f 3 64 63
f 3 63 55
f 3 55 38
f 3 38 37
f 3 37 36
f 3 36 21
f 3 21 9
f 4 10 11
f 4 11 12
f 4 12 5
f 5 12 7
f 6 7 14
f 6 14 13
f 7 12 15
f 7 15 16
f 7 16 14
f 8 17 18
f 8 18 19
f 8 19 20
f 9 21 22
f 10 23 11
f 11 23 24
f 11 24 12
f 12 24 25
f 12 25 15
f 13 14 16
f 13 16 26
f 15 25 27
f 15 27 16
f 16 28 26
f 16 27 29
f 16 29 28
f 17 30 31
f 17 31 18
f 18 31 19
f 19 31 32
f 19 32 33
f 19 33 34
f 19 34 35
f 19 35 20
f 21 36 22
f 22 36 37
f 22 37 38
f 22 38 39
f 22 39 40
f 22 40 41
f 22 41 42
f 22 42 43
f 22 43 44
f 22 44 45
f 23 46 47
f 23 47 24
f 24 47 44
f 24 44 48
f 24 48 25
f 25 48 49
f 25 49 27
f 26 28 50
f 27 49 29
f 28 31 50
f 28 29 31
f 29 49 51
f 29 51 52
f 29 52 32
f 29 32 31
f 30 50 31
f 32 52 53
f 32 53 54
f 32 54 33
f 38 55 39
f 39 55 56
f 39 56 41
f 39 41 40
f 41 57 58
f 41 58 59
f 41 59 42
f 41 56 57
f 42 59 44
f 42 44 43
f 44 47 45
f 44 59 48
f 45 47 46
f 48 59 51
f 48 51 49
f 51 60 52
f 51 59 58
f 51 58 60
f 52 60 53
f 53 60 61
f 53 61 62
f 53 62 54
f 55 63 56
f 56 63 64
f 56 64 65
f 56 65 57
f 57 65 66
f 57 66 60
f 57 60 58
f 60 66 67
f 60 67 61

