# https://github.com/mikedh/trimesh
v -0.15369035 -0.03902307 0.00508249
v -0.15291449 -0.03902307 0.00168528
v -0.15577968 -0.03902307 0.00508249
v -0.15366355 -0.04101282 0.00508249
v -0.15290786 -0.03928837 0.00162496
v -0.15290786 -0.03902307 0.00103811
v -0.15365405 -0.05038954 0.00508249
v -0.15365664 -0.05169393 0.00508249
v -0.15373529 -0.05924671 0.00508249
v -0.15578861 -0.03902307 0.00119297
v -0.15580100 -0.04147986 0.00508249
v -0.15290786 -0.03991016 0.00139674
v -0.15378428 -0.06128068 0.00508249
v -0.15290786 -0.03902307 -0.00172661
v -0.15576786 -0.03902307 0.00037627
v -0.15566530 -0.04700419 -0.00869872
v -0.15574799 -0.06707584 -0.00925297
v -0.15584565 -0.06063125 0.00508249
v -0.15290786 -0.04073370 0.00103648
v -0.15397326 -0.06725271 0.00508249
v -0.15302915 -0.06725271 -0.01157103
v -0.15290786 -0.04126154 0.00074631
v -0.15466414 -0.03902307 -0.00100120
v -0.15290786 -0.04586838 -0.01157103
v -0.15575605 -0.03902307 0.00025238
v -0.15556216 -0.04808474 -0.01157103
v -0.15561719 -0.04863745 -0.01157103
v -0.15573271 -0.06725271 -0.00999958
v -0.15574107 -0.06725271 -0.00923830
v -0.15585113 -0.06640707 0.00508249
v -0.15581655 -0.06725271 0.00508249
v -0.15569555 -0.06725271 -0.01157103
v -0.15293840 -0.06342796 -0.01157103
v -0.15290786 -0.04204086 0.00025727
v -0.15292428 -0.06252980 -0.01157103
v -0.15491796 -0.03902307 -0.00088546
v -0.15458606 -0.04639897 -0.01157103
v -0.15290786 -0.04966825 -0.01157103
v -0.15567740 -0.03902307 -0.00006876
v -0.15535414 -0.04712855 -0.01157103
v -0.15547227 -0.04751268 -0.01157103
v -0.15290786 -0.04215140 0.00017087
v -0.15292112 -0.06138017 -0.01157103
v -0.15290786 -0.04300810 -0.00050400
v -0.15522709 -0.03902307 -0.00064746
v -0.15464368 -0.04642385 -0.01157103
v -0.15479523 -0.04649017 -0.01157103
v -0.15290786 -0.04508353 -0.00310734
v -0.15565810 -0.03902307 -0.00010625
v -0.15512453 -0.04678311 -0.01157103
v -0.15290786 -0.04448660 -0.00214556
v -0.15290786 -0.04396705 -0.00148372
v -0.15290786 -0.04317944 -0.00066539
v -0.15543885 -0.03902307 -0.00042576
v -0.15502975 -0.04669191 -0.01157103
f 1 2 6
f 1 6 14
f 1 14 23
f 1 23 36
f 1 36 45
f 1 45 54
f 1 54 49
f 1 49 39
f 1 39 25
f 1 25 15
f 1 15 10
f 1 10 3
f 1 3 11
f 1 11 18
f 1 18 30
f 1 30 31
f 1 31 20
f 1 20 13
f 1 13 9
f 1 9 8
f 1 8 7
f 1 7 4
f 1 4 2
f 2 5 6
f 2 4 7
f 2 7 8
f 2 8 9
f 2 9 5
f 3 10 11
f 5 12 19
f 5 19 22
f 5 22 34
f 5 34 42
f 5 42 44
f 5 44 53
f 5 53 52
f 5 52 51
f 5 51 48
f 5 48 38
f 5 38 24
f 5 24 14
f 5 14 6
f 5 9 13
f 5 13 12
f 10 15 16
f 10 16 17
f 10 17 18
f 10 18 11
f 12 13 19
f 13 20 21
f 13 21 22
f 13 22 19
f 14 24 23
f 15 25 26
f 15 26 27
f 15 27 16
f 16 27 17
f 17 27 28
f 17 28 29
f 17 29 30
f 17 30 18
f 20 31 29
f 20 29 28
f 20 28 32
f 20 32 21
f 21 32 27
f 21 27 26
f 21 26 41
f 21 41 40
f 21 40 50
f 21 50 55
f 21 55 47
f 21 47 46
f 21 46 37
f 21 37 24
f 21 24 38
f 21 38 43
f 21 43 35
f 21 35 33
f 21 33 22
f 22 33 35
f 22 35 34
f 23 24 37
f 23 37 36
f 25 39 40
f 25 40 41
f 25 41 26
f 27 32 28
f 29 31 30
f 34 35 42
f 35 43 44
f 35 44 42
f 36 37 46
f 36 46 47
f 36 47 45
f 38 48 43
f 39 49 50
f 39 50 40
f 43 48 51
f 43 51 52
f 43 52 53
f 43 53 44
f 45 47 54
f 47 55 54
f 49 54 50
f 50 54 55

