# https://github.com/mikedh/trimesh
v 0.15565417 0.06973134 -0.00166096
v 0.15380112 0.06973134 -0.00166096
v 0.15568455 0.06954408 -0.00166096
v 0.15565792 0.06973134 -0.00448876
v 0.15305516 0.06973134 -0.01121005
v 0.15208194 0.04324692 -0.00166096
v 0.15570106 0.06928256 -0.00905251
v 0.15565643 0.06973134 -0.00750166
v 0.15582257 0.06793299 -0.00166096
v 0.15582032 0.06810088 -0.00626677
v 0.15558780 0.06973134 -0.01121005
v 0.15208194 0.04828681 -0.01121005
v 0.15208194 0.04465460 -0.00399425
v 0.15208194 0.04433174 -0.00335858
v 0.15208194 0.04377319 -0.00239479
v 0.15208194 0.04373122 -0.00233589
v 0.15208194 0.03675093 -0.00166096
v 0.15569206 0.06850769 -0.01121005
v 0.15562942 0.06944077 -0.01121005
v 0.15564030 0.06973134 -0.00907495
v 0.15584845 0.06695472 -0.00860193
v 0.15589195 0.06617339 -0.00166096
v 0.15591333 0.06633482 -0.00539833
v 0.15559642 0.06973134 -0.01094176
v 0.15561480 0.06954731 -0.01121005
v 0.15208194 0.04496132 -0.01121005
v 0.15503949 0.04668541 -0.01121005
v 0.15529677 0.04688558 -0.01121005
v 0.15540515 0.04702119 -0.01121005
v 0.15537740 0.04204587 -0.00166096
v 0.15574081 0.06767148 -0.01121005
v 0.15590508 0.06447837 -0.00724178
v 0.15575056 0.06643491 -0.01112966
v 0.15589533 0.06539530 -0.00166096
v 0.15591220 0.06329992 -0.00288743
v 0.15552179 0.04725365 -0.01121005
v 0.15551991 0.04234613 -0.00166096
v 0.15574681 0.06652532 -0.01121005
v 0.15584020 0.05200941 -0.00166096
v 0.15579932 0.05265837 -0.00778584
v 0.15568493 0.04928445 -0.01121005
v 0.15574681 0.06642200 -0.01121005
v 0.15588333 0.06143377 -0.00166096
v 0.15557767 0.04742477 -0.01121005
v 0.15556979 0.04249142 -0.00166096
v 0.15580531 0.04877110 -0.00166096
v 0.15574981 0.04545207 -0.00166096
v 0.15570555 0.04340513 -0.00166096
v 0.15564105 0.04792197 -0.01121005
v 0.15564030 0.04790583 -0.01121005
v 0.15564256 0.04282397 -0.00166096
f 1 2 6
f 1 6 17
f 1 17 30
f 1 30 37
f 1 37 45
f 1 45 51
f 1 51 48
f 1 48 47
f 1 47 46
f 1 46 39
f 1 39 43
f 1 43 34
f 1 34 22
f 1 22 9
f 1 9 3
f 1 3 4
f 1 4 8
f 1 8 20
f 1 20 24
f 1 24 11
f 1 11 5
f 1 5 2
f 2 5 6
f 3 7 8
f 3 8 4
f 3 9 10
f 3 10 7
f 5 11 25
f 5 25 19
f 5 19 18
f 5 18 31
f 5 31 38
f 5 38 42
f 5 42 41
f 5 41 49
f 5 49 50
f 5 50 44
f 5 44 36
f 5 36 29
f 5 29 28
f 5 28 27
f 5 27 26
f 5 26 12
f 5 12 13
f 5 13 14
f 5 14 15
f 5 15 16
f 5 16 6
f 6 16 15
f 6 15 14
f 6 14 13
f 6 13 12
f 6 12 26
f 6 26 17
f 7 18 19
f 7 19 20
f 7 20 8
f 7 10 21
f 7 21 18
f 9 22 23
f 9 23 10
f 10 23 21
f 11 24 25
f 17 26 27
f 17 27 28
f 17 28 29
f 17 29 30
f 18 21 31
f 19 25 24
f 19 24 20
f 21 23 32
f 21 32 33
f 21 33 31
f 22 34 35
f 22 35 23
f 23 35 32
f 29 36 30
f 30 36 37
f 31 33 38
f 32 35 39
f 32 39 40
f 32 40 41
f 32 41 33
f 33 42 38
f 33 41 42
f 34 43 35
f 35 43 39
f 36 44 45
f 36 45 37
f 39 46 40
f 40 46 47
f 40 47 41
f 41 47 48
f 41 48 49
f 44 50 51
f 44 51 45
f 48 51 50
f 48 50 49

