# https://github.com/mikedh/trimesh
v 0.15208194 0.04324241 -0.00166096
v 0.15208194 0.04377077 -0.00239479
v 0.15141003 0.04266686 -0.00173201
v 0.15165238 0.04284141 -0.00166096
v 0.15208194 0.03674631 -0.00166096
v 0.15111616 0.04366699 -0.00367454
v 0.15179642 0.04359622 -0.00253033
v 0.15208194 0.04432745 -0.00335858
v 0.15142091 0.04261025 -0.00166096
v 0.15147787 0.04267158 -0.00166096
v 0.15086219 0.04283198 -0.00279115
v 0.15085820 0.04241683 -0.00225176
v 0.15090790 0.04192620 -0.00166096
v 0.15133420 0.04249703 -0.00166096
v 0.15208194 0.04495489 -0.01121005
v 0.15203660 0.01324808 -0.00166096
v 0.15111579 0.04445482 -0.00523007
v 0.15084114 0.04412459 -0.00514033
v 0.15072396 0.04336506 -0.00395125
v 0.15208194 0.04464825 -0.00399425
v 0.15053893 0.04248288 -0.00305850
v 0.15056796 0.04146860 -0.00188532
v 0.15070909 0.04152521 -0.00166096
v 0.15208194 0.04828549 -0.01121005
v 0.15201447 0.00543106 -0.00166096
v 0.15173982 0.00009077 -0.01121005
v 0.15123915 0.04755427 -0.01121005
v 0.15121882 0.04753540 -0.01121005
v 0.15064197 0.04691268 -0.01121005
v 0.15047109 0.04321410 -0.00452896
v 0.15017976 0.04627581 -0.01121005
v 0.14983473 0.04569083 -0.01121005
v 0.15031508 0.04236965 -0.00379513
v 0.15037023 0.04159126 -0.00257614
v 0.15061875 0.04131764 -0.00166096
v 0.15038836 0.04069020 -0.00169835
v 0.15196222 0.00009077 -0.00166096
v 0.14837552 0.00009077 -0.01121005
v 0.14968235 0.04532285 -0.01121005
v 0.14946539 0.04470485 -0.01121005
v 0.14938412 0.04441708 -0.01121005
v 0.15017867 0.04135066 -0.00309029
v 0.15040795 0.04069492 -0.00166096
v 0.15038329 0.04060528 -0.00166096
v 0.15039925 0.04066661 -0.00166096
v 0.15017431 0.03997313 -0.00188812
v 0.15021241 0.03978914 -0.00166096
v 0.14988225 0.00009077 -0.00166096
v 0.14987354 0.00262411 -0.00166096
v 0.14986810 0.02978789 -0.00166096
v 0.14987500 0.03201930 -0.00166096
v 0.14986702 0.03471775 -0.00190775
v 0.14919800 0.04320467 -0.01121005
v 0.14927854 0.04386985 -0.01121005
v 0.15003935 0.04030336 -0.00280517
v 0.15003862 0.03890224 -0.00189560
v 0.15011735 0.03902962 -0.00166096
v 0.14990111 0.03440639 -0.00166096
v 0.14992579 0.03533104 -0.00166096
v 0.15000343 0.03730298 -0.00166096
v 0.14992760 0.03890224 -0.00265560
v 0.15003935 0.03812856 -0.00166096
f 1 2 3
f 1 3 4
f 1 4 10
f 1 10 9
f 1 9 14
f 1 14 13
f 1 13 23
f 1 23 35
f 1 35 43
f 1 43 45
f 1 45 44
f 1 44 47
f 1 47 57
f 1 57 62
f 1 62 60
f 1 60 59
f 1 59 58
f 1 58 51
f 1 51 50
f 1 50 49
f 1 49 48
f 1 48 37
f 1 37 25
f 1 25 16
f 1 16 5
f 1 5 15
f 1 15 24
f 1 24 20
f 1 20 8
f 1 8 2
f 2 6 7
f 2 7 3
f 2 8 6
f 3 9 10
f 3 10 4
f 3 7 11
f 3 11 12
f 3 12 13
f 3 13 14
f 3 14 9
f 5 16 15
f 6 8 17
f 6 17 18
f 6 18 19
f 6 19 11
f 6 11 7
f 8 20 17
f 11 21 12
f 11 19 21
f 12 21 22
f 12 22 13
f 13 22 23
f 15 16 25
f 15 25 26
f 15 26 38
f 15 38 53
f 15 53 54
f 15 54 41
f 15 41 40
f 15 40 39
f 15 39 32
f 15 32 31
f 15 31 29
f 15 29 28
f 15 28 27
f 15 27 24
f 17 20 24
f 17 24 27
f 17 27 28
f 17 28 18
f 18 28 29
f 18 29 19
f 19 30 21
f 19 29 31
f 19 31 32
f 19 32 30
f 21 30 33
f 21 33 34
f 21 34 22
f 22 35 23
f 22 34 36
f 22 36 35
f 25 37 26
f 26 37 48
f 26 48 38
f 30 32 39
f 30 39 33
f 33 39 40
f 33 40 41
f 33 41 42
f 33 42 34
f 34 42 36
f 35 36 43
f 36 44 45
f 36 45 43
f 36 42 46
f 36 46 47
f 36 47 44
f 38 48 49
f 38 49 50
f 38 50 51
f 38 51 52
f 38 52 53
f 41 54 42
f 42 55 46
f 42 54 55
f 46 56 57
f 46 57 47
f 46 55 56
f 51 58 52
f 52 58 59
f 52 59 60
f 52 60 61
f 52 61 53
f 53 61 55
f 53 55 54
f 55 61 56
f 56 61 60
f 56 60 62
f 56 62 57

