# https://github.com/mikedh/trimesh
v 0.14349499 -0.06162226 -0.01078547
v 0.14349499 -0.06162226 -0.01415205
v 0.14336871 -0.06162226 -0.01078448
v 0.14349499 -0.06588245 -0.01073808
v 0.14349499 -0.07260314 -0.01410120
v 0.13863314 -0.07349250 -0.01526124
v 0.13779337 -0.07313067 -0.01541081
v 0.13720301 -0.07273645 -0.01545919
v 0.12505155 -0.06622524 -0.01572921
v 0.11828917 -0.06250020 -0.01578104
v 0.11685272 -0.06162226 -0.01568824
v 0.14088411 -0.06162226 -0.01077263
v 0.14349499 -0.07997134 -0.01073808
v 0.14059683 -0.06648234 -0.01073808
v 0.14349499 -0.07293070 -0.01409528
v 0.14049265 -0.08107590 -0.01405233
v 0.14349499 -0.07337253 -0.01408541
v 0.14349499 -0.07612631 -0.01401136
v 0.14136399 -0.08107590 -0.01388598
v 0.13779021 -0.07338586 -0.01537527
v 0.11540363 -0.08107590 -0.01430804
v 0.11985191 -0.06374759 -0.01577265
v 0.11851648 -0.06301439 -0.01577363
v 0.11560252 -0.06162226 -0.01574007
v 0.11592139 -0.06162226 -0.01572822
v 0.13944451 -0.06162226 -0.01079090
v 0.11124265 -0.07600824 -0.01073808
v 0.14259208 -0.08107590 -0.01073808
v 0.14270573 -0.08107590 -0.01247665
v 0.14269941 -0.08107590 -0.01284984
v 0.14349499 -0.07970472 -0.01250529
v 0.13996857 -0.08107590 -0.01407455
v 0.14349499 -0.07697378 -0.01391165
v 0.14142713 -0.08107590 -0.01386920
v 0.11634443 -0.08107590 -0.01430310
v 0.11433970 -0.08107590 -0.01427299
v 0.11549519 -0.06162226 -0.01573513
v 0.13554556 -0.06162226 -0.01084717
v 0.11124265 -0.06162226 -0.01123517
v 0.11124265 -0.08107590 -0.01073808
v 0.13002073 -0.06162226 -0.01093059
v 0.14267416 -0.08107590 -0.01299201
v 0.14349499 -0.07954856 -0.01287354
v 0.14349499 -0.07756415 -0.01379219
v 0.14178703 -0.08107590 -0.01373888
v 0.11420080 -0.08107590 -0.01426114
v 0.11124265 -0.07602538 -0.01441614
v 0.11522684 -0.06162226 -0.01569367
v 0.11124265 -0.06162226 -0.01464371
v 0.11124265 -0.08107590 -0.01348071
v 0.14262365 -0.08107590 -0.01313023
v 0.14349499 -0.07932955 -0.01309123
v 0.14349499 -0.07806311 -0.01363669
v 0.14221323 -0.08107590 -0.01352464
v 0.14184701 -0.08107590 -0.01371419
v 0.11332314 -0.08107590 -0.01408788
v 0.11124265 -0.07699473 -0.01433321
v 0.11124265 -0.07505603 -0.01445613
v 0.11490166 -0.06162226 -0.01561518
v 0.11124265 -0.07783458 -0.01416439
v 0.14250367 -0.08107590 -0.01329263
v 0.14349499 -0.07863063 -0.01340469
f 1 2 11
f 1 11 25
f 1 25 24
f 1 24 37
f 1 37 48
f 1 48 59
f 1 59 49
f 1 49 39
f 1 39 41
f 1 41 38
f 1 38 26
f 1 26 12
f 1 12 3
f 1 3 4
f 1 4 13
f 1 13 31
f 1 31 43
f 1 43 52
f 1 52 62
f 1 62 53
f 1 53 44
f 1 44 33
f 1 33 18
f 1 18 17
f 1 17 15
f 1 15 5
f 1 5 2
f 2 5 6
f 2 6 7
f 2 7 8
f 2 8 9
f 2 9 10
f 2 10 11
f 3 12 4
f 4 12 14
f 4 14 27
f 4 27 40
f 4 40 28
f 4 28 13
f 5 15 6
f 6 16 7
f 6 15 17
f 6 17 18
f 6 18 19
f 6 19 16
f 7 16 20
f 7 20 21
f 7 21 8
f 8 21 9
f 9 21 22
f 9 22 10
f 10 22 23
f 10 23 24
f 10 24 25
f 10 25 11
f 12 26 27
f 12 27 14
f 13 28 29
f 13 29 30
f 13 30 31
f 16 32 20
f 16 19 34
f 16 34 45
f 16 45 55
f 16 55 54
f 16 54 61
f 16 61 51
f 16 51 42
f 16 42 30
f 16 30 29
f 16 29 28
f 16 28 40
f 16 40 50
f 16 50 56
f 16 56 46
f 16 46 36
f 16 36 21
f 16 21 35
f 16 35 32
f 18 33 19
f 19 33 34
f 20 32 35
f 20 35 21
f 21 36 22
f 22 36 23
f 23 36 37
f 23 37 24
f 26 38 27
f 27 39 49
f 27 49 58
f 27 58 47
f 27 47 57
f 27 57 60
f 27 60 50
f 27 50 40
f 27 38 41
f 27 41 39
f 30 42 31
f 31 42 43
f 33 44 45
f 33 45 34
f 36 46 47
f 36 47 37
f 37 47 48
f 42 51 43
f 43 51 52
f 44 53 54
f 44 54 55
f 44 55 45
f 46 56 57
f 46 57 47
f 47 58 48
f 48 58 59
f 49 59 58
f 50 60 56
f 51 61 52
f 52 61 62
f 53 62 61
f 53 61 54
f 56 60 57

