# https://github.com/mikedh/trimesh
v -0.05868252 0.01219890 -0.05601695
v -0.05761589 -0.01277018 -0.05596708
v -0.04333043 -0.00121929 -0.05772146
v -0.04333043 0.00334387 -0.05858731
v -0.05484664 0.01161965 -0.05712534
v -0.05614713 0.01160498 -0.06364984
v -0.06113806 0.01207670 -0.06435023
v -0.06198794 0.01171008 -0.05566335
v -0.06411836 -0.01169233 -0.05523156
v -0.05373723 -0.01111796 -0.06227739
v -0.04522128 -0.00464350 -0.06073269
v -0.06432940 -0.01213960 -0.06380964
v -0.06028247 -0.01267242 -0.06415077
v -0.05078260 0.00568534 -0.06580087
v -0.05247666 0.00957148 -0.06463923
v -0.06541600 0.01020939 -0.06627347
v -0.06427806 0.01153899 -0.06264005
v -0.06720417 0.00987455 -0.06184560
v -0.06885831 0.00692450 -0.05492330
v -0.07084612 -0.00295217 -0.05469664
v -0.06819380 -0.00875939 -0.05549902
v -0.06933744 -0.00879116 -0.06208586
v -0.05188630 -0.00765954 -0.06412697
v -0.05681734 -0.01012809 -0.06454629
v -0.07106287 -0.00502967 -0.06541441
v -0.07117410 0.00385714 -0.06595274
v -0.06966827 0.00731801 -0.06332571
v -0.07171312 0.00404289 -0.06231252
v -0.07074916 0.00206071 -0.05501510
v -0.07246604 -0.00013410 -0.06177760
v -0.07175590 -0.00485125 -0.06197140
v -0.07212665 -0.00075735 -0.06568074
f 1 2 3
f 1 3 4
f 1 4 5
f 1 5 6
f 1 6 7
f 1 7 8
f 1 8 9
f 1 9 2
f 2 10 11
f 2 11 3
f 2 9 12
f 2 12 13
f 2 13 10
f 3 11 4
f 4 11 14
f 4 14 15
f 4 15 5
f 5 15 6
f 6 15 7
f 7 15 16
f 7 16 17
f 7 17 8
f 8 17 18
f 8 18 19
f 8 19 9
f 9 19 20
f 9 20 21
f 9 21 22
f 9 22 12
f 10 23 11
f 10 13 24
f 10 24 23
f 11 23 14
f 12 22 25
f 12 25 13
f 13 25 24
f 14 23 24
f 14 24 25
f 14 25 16
f 14 16 15
f 16 25 26
f 16 26 27
f 16 27 18
f 16 18 17
f 18 27 19
f 19 27 28
f 19 28 29
f 19 29 20
f 20 29 30
f 20 30 31
f 20 31 21
f 21 31 22
f 22 31 25
f 25 31 32
f 25 32 26
f 26 32 28
f 26 28 27
f 28 32 30
f 28 30 29
f 30 32 31

