# https://github.com/mikedh/trimesh
v -0.06717707 0.00665086 0.04394875
v -0.07208799 0.00720101 0.05550779
v -0.06956062 -0.00003391 0.06589472
v -0.06717707 -0.01084699 0.04113761
v -0.06717707 -0.00189176 0.03326641
v -0.07616001 -0.00021947 -0.02803556
v -0.08293251 0.00886020 0.00880471
v -0.08127068 0.00326481 0.05228689
v -0.08229867 0.00862005 0.02107844
v -0.08130530 0.00745207 0.03964151
v -0.07800028 -0.00711382 0.05873822
v -0.06975770 -0.01002613 0.06211159
v -0.07073243 -0.01344274 0.05219160
v -0.07893772 -0.01139496 -0.02583429
v -0.08510834 -0.00784736 -0.03145657
v -0.09066909 0.00038089 -0.02855013
v -0.08925760 0.00693685 -0.00531771
v -0.08614965 -0.00142675 0.04592131
v -0.08704981 0.00469477 0.03058868
v -0.08131063 -0.01011782 0.05021903
v -0.07940112 -0.01304104 0.04112808
v -0.08273011 -0.01342964 0.01687602
v -0.09109787 -0.01002831 -0.01920190
v -0.09438425 0.00196366 -0.02005953
v -0.08950261 0.00416208 0.01708567
v -0.09138017 -0.00278903 0.02571921
v -0.08817368 -0.00621874 0.03821212
v -0.08589399 -0.01157397 0.02864470
v -0.09429636 -0.00074124 -0.00856720
v -0.09024031 -0.00888871 0.01511310
v -0.09237353 -0.00633444 -0.00038154
v -0.09116178 0.00314474 0.00658438
f 1 2 3
f 1 3 4
f 1 4 5
f 1 5 6
f 1 6 7
f 1 7 2
f 2 8 3
f 2 7 9
f 2 9 10
f 2 10 8
f 3 8 11
f 3 11 12
f 3 12 4
f 4 12 13
f 4 13 14
f 4 14 6
f 4 6 5
f 6 14 15
f 6 15 16
f 6 16 17
f 6 17 7
f 7 17 9
f 8 18 11
f 8 10 19
f 8 19 18
f 9 17 10
f 10 17 19
f 11 18 20
f 11 20 12
f 12 20 13
f 13 20 21
f 13 21 22
f 13 22 14
f 14 23 15
f 14 22 23
f 15 23 16
f 16 24 17
f 16 23 24
f 17 24 25
f 17 25 19
f 18 19 26
f 18 26 27
f 18 27 20
f 19 25 26
f 20 27 28
f 20 28 21
f 21 28 22
f 22 28 23
f 23 29 24
f 23 28 30
f 23 30 31
f 23 31 29
f 24 29 32
f 24 32 25
f 25 32 26
f 26 32 29
f 26 29 31
f 26 31 30
f 26 30 27
f 27 30 28

