# https://github.com/mikedh/trimesh
v 0.09405928 0.00547676 0.07728693
v 0.07440246 0.04077453 0.06047461
v 0.06954077 0.03374644 0.08508050
v 0.07648818 0.01112063 0.08633972
v 0.05869951 0.00004053 0.08839872
v 0.05860198 0.00004053 -0.07732513
v 0.08748700 0.00973640 -0.06800008
v 0.07754605 0.03590457 -0.06718329
v 0.08384074 0.02875064 0.04500660
v 0.06066519 0.05383660 0.04997542
v 0.05376279 0.04764533 0.08550591
v 0.07349465 0.04348006 0.04493853
v 0.05004901 0.03366464 0.08921551
v 0.06286346 0.01222801 0.08858590
v 0.04429451 0.00650235 0.08996424
v 0.01742019 0.00004053 0.08422967
v 0.01742019 0.00004053 -0.07222018
v 0.01742019 0.05599473 -0.08006479
v 0.08390826 0.01124647 -0.08113683
v 0.07963928 0.02561096 -0.08079650
v 0.05483567 0.05766209 -0.06454573
v 0.07048610 0.03724475 -0.08285550
v 0.06203067 0.04833744 -0.07975850
v 0.04242637 0.06166376 0.05325961
v 0.02437510 0.06272081 0.06312919
v 0.02886916 0.05087309 0.08761595
v 0.02372237 0.03608704 0.09040666
v 0.02685096 0.01747549 0.09098522
v 0.02806638 0.06431896 -0.07506194
v 0.04638023 0.05987056 -0.07790369
v 0.02460768 0.06426234 0.04728681
v 0.03993550 0.06376527 -0.06587302
f 1 2 3
f 1 3 4
f 1 4 5
f 1 5 6
f 1 6 7
f 1 7 8
f 1 8 9
f 1 9 2
f 2 10 11
f 2 11 3
f 2 9 12
f 2 12 10
f 3 11 13
f 3 13 4
f 4 13 14
f 4 14 5
f 5 14 15
f 5 15 16
f 5 16 17
f 5 17 6
f 6 17 18
f 6 18 19
f 6 19 7
f 7 19 20
f 7 20 8
f 8 21 12
f 8 12 9
f 8 20 22
f 8 22 23
f 8 23 21
f 10 24 11
f 10 12 21
f 10 21 24
f 11 24 25
f 11 25 26
f 11 26 13
f 13 15 14
f 13 26 27
f 13 27 28
f 13 28 15
f 15 28 16
f 16 28 27
f 16 27 25
f 16 25 18
f 16 18 17
f 18 29 30
f 18 30 22
f 18 22 19
f 18 25 31
f 18 31 29
f 19 22 20
f 21 23 30
f 21 30 32
f 21 32 24
f 22 30 23
f 24 32 31
f 24 31 25
f 25 27 26
f 29 31 32
f 29 32 30

