# https://github.com/mikedh/trimesh
v -0.03383988 0.00327823 -0.08696755
v -0.00073756 -0.00980241 -0.09100520
v -0.02333066 -0.00437260 -0.08786655
v -0.03383988 0.00328965 -0.08328436
v -0.03383988 0.02665323 -0.08496374
v -0.02112417 0.03419558 -0.08633153
v 0.00237226 -0.01234317 -0.08984178
v -0.01111844 -0.01081300 -0.08806808
v 0.01629241 0.00329536 -0.08756498
v -0.02419450 -0.00318501 -0.08580986
v -0.01144423 -0.01024204 -0.08607284
v -0.00916370 -0.00963112 -0.08502520
v 0.00560549 -0.00041016 -0.07760164
v -0.03383988 0.01192253 -0.08143490
v -0.03383988 0.03656505 -0.08072171
v -0.01871035 0.04598585 -0.08366597
v 0.01656390 -0.00003903 -0.08586989
v 0.01355280 -0.00123804 -0.08216954
v 0.01570006 0.00565912 -0.08711619
v 0.01657871 0.00464853 -0.08520099
v 0.01010238 0.00891929 -0.07640393
v -0.03383988 0.03012465 -0.08004138
v -0.01731834 0.04598585 -0.08069312
v -0.00383258 0.03233997 -0.08220384
v -0.00525421 0.03192317 -0.08417050
v 0.01600611 0.00327252 -0.08325149
v 0.01574449 0.00068608 -0.08309713
v 0.01258531 0.01239071 -0.08207807
v 0.01304931 0.00895355 -0.08015143
f 1 2 3
f 1 3 4
f 1 4 14
f 1 14 22
f 1 22 15
f 1 15 5
f 1 5 6
f 1 6 2
f 2 7 8
f 2 8 3
f 2 6 9
f 2 9 7
f 3 10 4
f 3 8 11
f 3 11 10
f 4 10 11
f 4 11 12
f 4 12 13
f 4 13 14
f 5 15 16
f 5 16 6
f 6 16 9
f 7 9 17
f 7 17 18
f 7 18 13
f 7 13 12
f 7 12 11
f 7 11 8
f 9 16 19
f 9 19 20
f 9 20 17
f 13 18 21
f 13 21 22
f 13 22 14
f 15 22 23
f 15 23 16
f 16 23 24
f 16 24 25
f 16 25 19
f 17 26 27
f 17 27 18
f 17 20 26
f 18 27 21
f 19 28 20
f 19 25 24
f 19 24 28
f 20 28 29
f 20 29 26
f 21 29 28
f 21 28 24
f 21 24 23
f 21 23 22
f 21 27 26
f 21 26 29

