# https://github.com/mikedh/trimesh
v -0.04333183 -0.01434782 0.05513335
v -0.06713877 -0.01394662 0.05696167
v -0.06713877 -0.01274303 0.05211029
v -0.04333183 -0.01214480 0.05010738
v -0.04333183 -0.01422200 0.06118946
v -0.06713877 -0.01349083 0.06069560
v -0.06713877 -0.00889250 0.04699701
v -0.04333183 -0.00920586 0.04746095
v -0.04333183 -0.01136140 0.06634515
v -0.05646701 -0.01212344 0.06427738
v -0.06713877 0.00888593 0.05942102
v -0.05461186 -0.00897559 0.06767709
v -0.05670473 -0.00158077 0.06964508
v -0.06713877 -0.00454819 0.04485942
v -0.04333183 -0.00336597 0.04535578
v -0.04333183 0.00542473 0.06756734
v -0.04411956 0.00010236 0.07014393
v -0.04425241 -0.00400219 0.07034098
v -0.04436428 -0.00736606 0.06934077
v -0.05434151 0.00243119 0.06868228
v -0.05688185 0.00703426 0.06436718
v -0.04333183 0.00858444 0.06399553
v -0.04333183 0.00990435 0.06001716
v -0.04333183 0.00970732 0.05466194
v -0.06713877 0.00863904 0.05463201
v -0.05205754 -0.00394046 0.07005164
v -0.06713877 0.00060088 0.04538321
v -0.04333183 0.00166916 0.04580475
v -0.04333183 0.00777018 0.05028447
v -0.06713877 0.00732863 0.05125475
v -0.06713877 0.00511137 0.04817182
v -0.04333183 0.00503303 0.04753328
f 1 2 3
f 1 3 4
f 1 4 8
f 1 8 15
f 1 15 28
f 1 28 32
f 1 32 29
f 1 29 24
f 1 24 23
f 1 23 22
f 1 22 16
f 1 16 9
f 1 9 5
f 1 5 2
f 2 5 6
f 2 6 11
f 2 11 25
f 2 25 30
f 2 30 31
f 2 31 27
f 2 27 14
f 2 14 7
f 2 7 3
f 3 7 4
f 4 7 8
f 5 9 10
f 5 10 6
f 6 10 12
f 6 12 13
f 6 13 11
f 7 14 8
f 8 14 15
f 9 16 17
f 9 17 18
f 9 18 19
f 9 19 12
f 9 12 10
f 11 13 20
f 11 20 21
f 11 21 22
f 11 22 23
f 11 23 24
f 11 24 25
f 12 19 26
f 12 26 13
f 13 26 17
f 13 17 20
f 14 27 28
f 14 28 15
f 16 22 21
f 16 21 20
f 16 20 17
f 17 26 18
f 18 26 19
f 24 29 30
f 24 30 25
f 27 31 32
f 27 32 28
f 29 32 31
f 29 31 30

