# https://github.com/mikedh/trimesh
v 0.01537700 -0.06510236 0.04684731
v 0.00565411 -0.06262570 0.04830655
v 0.00786932 -0.06353092 -0.06671546
v 0.01552206 -0.06438021 -0.07088716
v 0.01668665 -0.05780967 -0.08520482
v 0.01633022 -0.03710124 0.08969731
v 0.01547025 -0.05549065 0.08547410
v 0.01506202 -0.06406999 0.06042677
v 0.00696169 -0.06261552 0.05723362
v 0.00063726 -0.06027108 0.05675294
v -0.00143083 -0.05995069 0.04523357
v -0.00063302 -0.06088134 -0.06647511
v -0.00128370 -0.05942688 -0.07608889
v 0.01201792 -0.06267146 -0.07775414
v 0.00857803 -0.05787069 -0.08427778
v 0.00035129 -0.05541945 -0.08377992
v -0.00377037 -0.01314823 -0.07487001
v 0.00995191 -0.01314823 -0.07468117
v 0.01739742 -0.01446031 -0.07426915
v 0.01495427 -0.01428231 0.08986898
v -0.00365225 -0.01653522 0.09017799
v 0.00070149 -0.02725050 0.09000632
v 0.00542203 -0.03484325 0.08969731
v 0.00960378 -0.04013224 0.08933679
v 0.01468280 -0.04711981 0.08846124
v 0.00539094 -0.05445827 0.08430672
v -0.00003000 -0.04218172 0.08852991
v 0.00736163 -0.06155773 0.06411778
v -0.00241721 -0.05743333 0.06495899
v 0.00382434 -0.06002697 -0.08019192
v -0.00296220 -0.03574848 0.08925095
v -0.00034705 -0.04972870 0.08519942
f 1 2 3
f 1 3 4
f 1 4 5
f 1 5 6
f 1 6 7
f 1 7 8
f 1 8 9
f 1 9 2
f 2 10 11
f 2 11 12
f 2 12 3
f 2 9 10
f 3 12 13
f 3 13 14
f 3 14 4
f 4 14 5
f 5 15 16
f 5 16 17
f 5 17 18
f 5 18 19
f 5 19 6
f 5 14 15
f 6 20 21
f 6 21 22
f 6 22 23
f 6 23 24
f 6 24 25
f 6 25 7
f 6 19 20
f 7 26 8
f 7 25 27
f 7 27 26
f 8 26 28
f 8 28 9
f 9 28 10
f 10 28 29
f 10 29 11
f 11 13 12
f 11 29 13
f 13 17 16
f 13 16 30
f 13 30 14
f 13 29 17
f 14 30 15
f 15 30 16
f 17 29 21
f 17 21 20
f 17 20 18
f 18 20 19
f 21 29 31
f 21 31 22
f 22 31 23
f 23 31 24
f 24 31 27
f 24 27 25
f 26 27 32
f 26 32 29
f 26 29 28
f 27 31 32
f 29 32 31

