# https://github.com/mikedh/trimesh
v 0.01593639 0.06357206 -0.07936130
v 0.01540394 0.06118363 -0.08265385
v 0.01134559 0.06198215 -0.08110677
v 0.00697700 0.06166845 -0.07979936
v 0.00260841 0.06095548 -0.07870328
v 0.01739538 0.05540503 -0.07791896
v 0.01662396 0.05726588 -0.08421018
v 0.00946316 0.05814639 -0.08379306
v 0.00549286 0.05880945 -0.08281343
v 0.00211370 0.05919801 -0.08139080
v -0.00227166 0.05898769 -0.07878707
v -0.00377258 0.04928422 -0.07791649
v -0.02010238 0.02715374 -0.07939087
v -0.02149430 0.02715374 -0.08235873
v -0.00381870 0.05296669 -0.08394093
v -0.02070611 0.03878578 -0.08413069
v -0.00692954 0.05104168 -0.08395325
v 0.00343434 0.05659925 -0.08371666
v -0.00075398 0.05533374 -0.08342524
v -0.00401994 0.05617148 -0.08164772
v -0.00832564 0.05516263 -0.08031320
v -0.01256426 0.05256030 -0.08020785
v -0.01891591 0.04743763 -0.08043705
v -0.02183808 0.04435405 -0.08070506
v -0.02543525 0.02780610 -0.08135260
v -0.00951212 0.05221451 -0.08253370
v -0.01967056 0.04172677 -0.08366183
v -0.01198989 0.04775490 -0.08385775
v -0.02330965 0.04184085 -0.08150232
v -0.01500011 0.04659990 -0.08346528
v -0.01531454 0.04976547 -0.08102914
v -0.01757850 0.04476044 -0.08312457
f 1 2 3
f 1 3 4
f 1 4 5
f 1 5 6
f 1 6 7
f 1 7 2
f 2 7 8
f 2 8 9
f 2 9 3
f 3 9 10
f 3 10 4
f 4 10 5
f 5 10 11
f 5 11 12
f 5 12 6
f 6 12 13
f 6 13 14
f 6 14 7
f 7 15 8
f 7 14 16
f 7 16 17
f 7 17 15
f 8 15 18
f 8 18 9
f 9 18 19
f 9 19 10
f 10 19 20
f 10 20 21
f 10 21 11
f 11 21 22
f 11 22 23
f 11 23 12
f 12 23 24
f 12 24 13
f 13 24 25
f 13 25 14
f 14 25 16
f 15 19 18
f 15 17 26
f 15 26 19
f 16 27 28
f 16 28 17
f 16 25 29
f 16 29 27
f 17 28 30
f 17 30 26
f 19 26 20
f 20 26 21
f 21 26 22
f 22 26 31
f 22 31 23
f 23 31 30
f 23 30 32
f 23 32 29
f 23 29 24
f 24 29 25
f 26 30 31
f 27 29 32
f 27 32 30
f 27 30 28

