# https://github.com/mikedh/trimesh
v -0.00377037 -0.01314823 -0.07485544
v -0.00251887 0.06098966 -0.06509710
v -0.00235518 0.03967061 -0.07789872
v 0.00991949 -0.01314823 -0.07467350
v -0.00377037 -0.01314823 0.09017626
v -0.00369785 0.03839131 0.08939890
v -0.00288354 0.05701388 0.05529433
v -0.00010703 0.05879110 0.04611488
v 0.00391476 0.06330311 -0.06532866
v -0.00026451 0.06046108 -0.07626131
v 0.01739328 0.05539752 -0.07789872
v 0.01739742 -0.01314823 -0.07384653
v 0.01531089 -0.01312525 0.08855538
v 0.01545179 0.01406171 0.09106939
v -0.00315498 0.01508821 0.09060628
v -0.00327723 0.02179877 0.09057321
v -0.00013811 0.02903790 0.09045743
v 0.00565734 0.03864411 0.09004394
v 0.01183197 0.04846481 0.08872078
v 0.00463997 0.04864100 0.08751339
v -0.00208996 0.04697868 0.08647139
v 0.00404737 0.05998614 0.05536049
v 0.00027629 0.05686067 0.06510229
v 0.01261726 0.06303500 0.04588332
v 0.01278510 0.06511098 -0.06678414
v 0.01265870 0.06400788 -0.07611245
v 0.01545801 0.06319587 0.05418618
v 0.01649402 0.04320208 0.08987854
v 0.01615835 0.03394825 0.09062283
v 0.00914248 0.02805736 0.09075514
v 0.01351859 0.05477703 0.08542940
v 0.01124973 0.06095135 0.06376258
f 1 2 3
f 1 3 4
f 1 4 12
f 1 12 5
f 1 5 6
f 1 6 2
f 2 7 8
f 2 8 9
f 2 9 10
f 2 10 3
f 2 6 7
f 3 10 11
f 3 11 4
f 4 11 12
f 5 13 14
f 5 14 15
f 5 15 16
f 5 16 6
f 5 12 13
f 6 16 17
f 6 17 18
f 6 18 19
f 6 19 20
f 6 20 21
f 6 21 7
f 7 22 8
f 7 21 23
f 7 23 22
f 8 22 9
f 9 22 24
f 9 24 25
f 9 25 26
f 9 26 10
f 10 26 11
f 11 26 25
f 11 25 27
f 11 27 28
f 11 28 12
f 12 28 13
f 13 28 29
f 13 29 14
f 14 30 16
f 14 16 15
f 14 29 30
f 16 30 17
f 17 30 29
f 17 29 18
f 18 29 28
f 18 28 19
f 19 31 20
f 19 28 31
f 20 31 21
f 21 31 23
f 22 32 27
f 22 27 24
f 22 23 32
f 23 31 32
f 24 27 25
f 27 32 31
f 27 31 28

