# https://github.com/mikedh/trimesh
v -0.03795771 -0.01858933 -0.07960130
v -0.03112579 -0.01484979 -0.07851527
v -0.03601051 -0.01596712 -0.08271921
v -0.03634508 -0.02279478 -0.07989669
v -0.03218637 -0.03241369 -0.07856870
v -0.00377802 -0.04782541 -0.07851527
v -0.03205255 -0.01484979 -0.08369337
v -0.02584962 -0.04117503 -0.07851527
v -0.03321685 -0.02123216 -0.08336153
v -0.03367521 -0.02425019 -0.08235407
v -0.03357819 -0.02824536 -0.08026749
v -0.03066408 -0.03170454 -0.08168473
v -0.02990461 -0.03548119 -0.07932602
v -0.00834156 -0.05500352 -0.07970814
v -0.00430664 -0.05697017 -0.08007706
v -0.00377802 -0.04975496 -0.08484726
v -0.01965337 -0.03974848 -0.08477059
v -0.02905480 -0.02914005 -0.08384483
v -0.02362138 -0.04188831 -0.08100910
v -0.02021880 -0.04668333 -0.07910542
v -0.02668938 -0.03866001 -0.08068732
v -0.02661913 -0.03461124 -0.08325657
v -0.01649838 -0.04955705 -0.07966980
v -0.01241662 -0.05199374 -0.08048998
v -0.01000437 -0.05122687 -0.08321257
v -0.00515310 -0.05371715 -0.08349916
v -0.00734453 -0.04993637 -0.08493525
v -0.02292547 -0.03802920 -0.08404029
v -0.01126904 -0.04741723 -0.08484915
v -0.01576232 -0.04406524 -0.08472597
v -0.01985412 -0.04429201 -0.08248102
v -0.01579578 -0.04740074 -0.08289582
f 1 2 3
f 1 3 4
f 1 4 5
f 1 5 2
f 2 6 7
f 2 7 3
f 2 5 8
f 2 8 6
f 3 7 9
f 3 9 10
f 3 10 4
f 4 10 11
f 4 11 5
f 5 12 13
f 5 13 8
f 5 11 12
f 6 8 14
f 6 14 15
f 6 15 16
f 6 16 7
f 7 16 17
f 7 17 18
f 7 18 9
f 8 19 20
f 8 20 14
f 8 13 21
f 8 21 19
f 9 18 10
f 10 18 12
f 10 12 11
f 12 18 22
f 12 22 21
f 12 21 13
f 14 20 23
f 14 23 24
f 14 24 25
f 14 25 15
f 15 25 26
f 15 26 16
f 16 26 27
f 16 27 17
f 17 28 18
f 17 27 29
f 17 29 30
f 17 30 28
f 18 28 22
f 19 31 20
f 19 21 31
f 20 31 23
f 21 22 28
f 21 28 31
f 23 31 32
f 23 32 24
f 24 32 25
f 25 27 26
f 25 32 29
f 25 29 27
f 28 30 31
f 29 32 30
f 30 32 31

