# https://github.com/mikedh/trimesh
v 0.00502163 -0.00640596 -0.01729595
v 0.00599977 -0.00584421 -0.01733956
v 0.00599977 -0.00578653 -0.01710482
v 0.00480328 -0.00600972 -0.01519222
v 0.00480328 -0.00615894 -0.01579383
v 0.00480328 -0.00618151 -0.01979734
v 0.00502163 -0.00625173 -0.01904821
v 0.00599977 -0.00582039 -0.01762049
v 0.00600000 -0.00545801 -0.01579640
v 0.00600000 -0.00543920 -0.01979734
v 0.00600000 -0.00537651 -0.01546545
v 0.00599977 -0.00546052 -0.01579640
v 0.00600000 -0.00432825 -0.01384660
v 0.00480328 -0.00488372 -0.01345664
v 0.00480328 -0.00546804 -0.02140592
v 0.00502163 -0.00604734 -0.01979734
v 0.00502163 -0.00622038 -0.01940353
v 0.00599977 -0.00567493 -0.01926243
v 0.00600000 -0.00489375 -0.02102623
v 0.00600000 -0.00280977 -0.01265491
v 0.00480328 -0.00313955 -0.01205201
v 0.00480328 -0.00483607 -0.01338352
v 0.00480328 -0.00400098 -0.02298629
v 0.00600000 -0.00358092 -0.02244112
v 0.00600000 -0.00098911 -0.01202122
v 0.00480328 -0.00110447 -0.01134264
v 0.00480328 -0.00210258 -0.02400480
v 0.00600000 -0.00188063 -0.02335316
v 0.00600000 -0.00096153 -0.01201738
v 0.00480328 -0.00000104 -0.01124900
v 0.00480328 0.00002529 -0.02435115
v 0.00600000 -0.00088128 -0.02351607
v 0.00600000 0.00082026 -0.01201353
v 0.00480328 0.00104973 -0.01133366
v 0.00600000 0.00093813 -0.01201353
v 0.00480328 0.00215316 -0.02398556
v 0.00600000 0.00192746 -0.02333648
v 0.00600000 0.00019708 -0.02363280
v 0.00600000 0.00002153 -0.02366231
v 0.00480328 0.00309107 -0.01202636
v 0.00600000 0.00276882 -0.01263310
v 0.00480328 0.00404404 -0.02295166
v 0.00600000 0.00361771 -0.02241033
v 0.00480328 0.00309609 -0.01202892
v 0.00600000 0.00429607 -0.01381068
v 0.00480328 0.00511361 -0.02178177
v 0.00600000 0.00419451 -0.02178177
v 0.00480328 0.00480014 -0.01334375
v 0.00600000 0.00535812 -0.01542183
v 0.00480328 0.00598758 -0.01514219
v 0.00480328 0.00549731 -0.02135846
v 0.00600000 0.00492051 -0.02098518
v 0.00600000 0.00545467 -0.01579640
v 0.00599977 0.00584087 -0.01729210
v 0.00480328 0.00615686 -0.01579640
v 0.00480328 0.00617692 -0.01979862
v 0.00599977 0.00555499 -0.01967419
v 0.00600000 0.00549354 -0.01979862
v 0.00502163 0.00640137 -0.01724464
v 0.00599977 0.00584464 -0.01796940
v 0.00502163 0.00626469 -0.01917648
v 0.00502163 0.00623585 -0.01935222
v 0.00502163 0.00621078 -0.01943688
v 0.00599977 0.00568915 -0.01921625
v 0.00599977 0.00584589 -0.01826059
f 1 2 3
f 1 3 4
f 1 4 5
f 1 5 6
f 1 6 7
f 1 7 8
f 1 8 2
f 2 9 3
f 2 8 10
f 2 10 9
f 3 9 11
f 3 11 12
f 3 12 4
f 4 13 14
f 4 14 22
f 4 22 21
f 4 21 26
f 4 26 30
f 4 30 34
f 4 34 40
f 4 40 44
f 4 44 48
f 4 48 50
f 4 50 55
f 4 55 56
f 4 56 51
f 4 51 46
f 4 46 42
f 4 42 36
f 4 36 31
f 4 31 27
f 4 27 23
f 4 23 15
f 4 15 6
f 4 6 5
f 4 12 11
f 4 11 13
f 6 15 16
f 6 16 17
f 6 17 7
f 7 17 8
f 8 17 18
f 8 18 10
f 9 10 19
f 9 19 24
f 9 24 28
f 9 28 32
f 9 32 39
f 9 39 38
f 9 38 37
f 9 37 43
f 9 43 47
f 9 47 52
f 9 52 58
f 9 58 53
f 9 53 49
f 9 49 45
f 9 45 41
f 9 41 35
f 9 35 33
f 9 33 29
f 9 29 25
f 9 25 20
f 9 20 13
f 9 13 11
f 10 18 16
f 10 16 19
f 13 20 21
f 13 21 22
f 13 22 14
f 15 23 24
f 15 24 19
f 15 19 16
f 16 18 17
f 20 25 26
f 20 26 21
f 23 27 24
f 24 27 28
f 25 29 26
f 26 29 30
f 27 31 32
f 27 32 28
f 29 33 30
f 30 33 35
f 30 35 34
f 31 36 37
f 31 37 38
f 31 38 39
f 31 39 32
f 34 35 41
f 34 41 40
f 36 42 37
f 37 42 43
f 40 41 44
f 41 45 44
f 42 46 47
f 42 47 43
f 44 45 48
f 45 49 50
f 45 50 48
f 46 51 52
f 46 52 47
f 49 53 54
f 49 54 55
f 49 55 50
f 51 56 57
f 51 57 52
f 52 57 58
f 53 58 54
f 54 59 55
f 54 58 60
f 54 60 59
f 55 59 56
f 56 61 62
f 56 62 63
f 56 63 57
f 56 59 61
f 57 63 62
f 57 62 64
f 57 64 58
f 58 64 65
f 58 65 60
f 59 60 65
f 59 65 61
f 61 65 64
f 61 64 62

