# https://github.com/mikedh/trimesh
v 0.00502148 -0.00540267 -0.01579455
v 0.00480180 -0.00503679 -0.01538294
v 0.00479850 -0.00503621 -0.00811669
v 0.00502148 -0.00603450 -0.01579455
v 0.00502148 -0.00540267 -0.01979756
v 0.00480180 -0.00503679 -0.01579455
v -0.00549920 -0.00503621 -0.00811669
v 0.00479850 -0.00576335 -0.00811669
v 0.00479850 -0.00503621 -0.01343688
v 0.00479850 -0.00799574 -0.00811784
v 0.00502148 -0.00640763 -0.01729583
v 0.00502148 -0.00604928 -0.01979756
v -0.00549811 -0.00540267 -0.01979756
v -0.00549920 -0.00503679 -0.01579455
v -0.00549920 -0.00576335 -0.00811669
v -0.00549920 -0.00503621 -0.01343688
v -0.00620000 -0.00540267 -0.01680531
v -0.00549811 -0.00799574 -0.00811784
v 0.00479850 -0.00799574 -0.01343688
v 0.00479960 -0.00770866 -0.01979756
v 0.00502148 -0.00622454 -0.01940195
v 0.00479850 -0.00799517 -0.01579455
v -0.00549920 -0.00658666 -0.01979756
v -0.00620000 -0.00540267 -0.01879252
v -0.00620000 -0.00541658 -0.01684419
v -0.00549920 -0.00799517 -0.01343803
v -0.00549811 -0.00799574 -0.01343688
v -0.00549920 -0.00770866 -0.01979756
v -0.00549920 -0.00799517 -0.01579455
v -0.00620000 -0.00541658 -0.01875479
f 1 2 3
f 1 3 8
f 1 8 4
f 1 4 11
f 1 11 21
f 1 21 12
f 1 12 5
f 1 5 6
f 1 6 2
f 2 6 9
f 2 9 3
f 3 7 15
f 3 15 8
f 3 9 16
f 3 16 7
f 4 8 10
f 4 10 11
f 5 12 20
f 5 20 28
f 5 28 23
f 5 23 13
f 5 13 14
f 5 14 6
f 6 14 16
f 6 16 9
f 7 16 24
f 7 24 17
f 7 17 15
f 8 15 18
f 8 18 10
f 10 18 27
f 10 27 19
f 10 19 11
f 11 20 21
f 11 19 22
f 11 22 20
f 12 21 20
f 13 23 24
f 13 24 14
f 14 24 16
f 15 17 18
f 17 24 30
f 17 30 25
f 17 25 18
f 18 26 29
f 18 29 27
f 18 25 26
f 19 27 29
f 19 29 22
f 20 22 29
f 20 29 28
f 23 28 24
f 24 28 30
f 25 30 29
f 25 29 26
f 28 29 30

