# https://github.com/mikedh/trimesh
v -0.00549988 0.00479307 -0.01229416
v -0.00599871 0.00344090 -0.00811492
v -0.00632544 0.00344090 -0.00809986
v -0.00549988 0.00751818 -0.01229416
v 0.00480000 0.00479307 -0.01229416
v 0.00005576 0.00336030 -0.00811707
v -0.00632544 0.00344090 -0.00735071
v -0.00632653 0.00653437 -0.00755023
v -0.00632653 0.00719988 -0.00805038
v -0.00632544 0.00459688 -0.00809986
v -0.00549988 0.00751818 -0.00811707
v -0.00128278 0.00751859 -0.00811707
v 0.00480000 0.00751818 -0.01229416
v -0.00632653 0.00751777 -0.00805038
v 0.00480000 0.00479307 -0.00811707
v 0.00130390 0.00336030 -0.00811707
v 0.00005576 0.00336030 -0.00735071
v -0.00632653 0.00653437 -0.00735071
v -0.00538008 0.00344090 -0.00687690
v -0.00543889 0.00628323 -0.00690487
v -0.00632653 0.00751777 -0.00735071
v -0.00546068 0.00751777 -0.00691563
v -0.00128278 0.00751859 -0.00735071
v 0.00130390 0.00751859 -0.00811707
v 0.00480000 0.00751818 -0.00811707
v 0.00130390 0.00336030 -0.00735071
v -0.00499780 0.00344090 -0.00680000
v -0.00499780 0.00751777 -0.00680000
v -0.00543889 0.00628405 -0.00690487
v 0.00130390 0.00751859 -0.00735071
v -0.00220092 0.00344090 -0.00680000
v -0.00220092 0.00751777 -0.00680000
f 1 2 3
f 1 3 10
f 1 10 4
f 1 4 13
f 1 13 5
f 1 5 16
f 1 16 6
f 1 6 2
f 2 6 3
f 3 7 18
f 3 18 8
f 3 8 9
f 3 9 14
f 3 14 10
f 3 6 17
f 3 17 7
f 4 11 23
f 4 23 12
f 4 12 24
f 4 24 13
f 4 10 14
f 4 14 21
f 4 21 11
f 5 13 25
f 5 25 15
f 5 15 26
f 5 26 16
f 6 16 26
f 6 26 17
f 7 17 19
f 7 19 20
f 7 20 18
f 8 18 21
f 8 21 14
f 8 14 9
f 11 21 22
f 11 22 23
f 12 23 30
f 12 30 24
f 13 24 30
f 13 30 25
f 15 25 30
f 15 30 26
f 17 26 31
f 17 31 27
f 17 27 19
f 18 20 22
f 18 22 21
f 19 27 28
f 19 28 22
f 19 22 29
f 19 29 20
f 20 29 22
f 22 28 23
f 23 28 32
f 23 32 30
f 26 30 32
f 26 32 31
f 27 31 32
f 27 32 28

