# https://github.com/mikedh/trimesh
v 0.00624077 -0.00950000 -0.00734324
v 0.00799935 -0.00950000 -0.00734324
v 0.00624077 -0.00950000 0.00658270
v 0.00480352 -0.00799887 -0.00809754
v 0.00799935 -0.00950000 0.03099617
v 0.00547269 -0.00799887 -0.00809754
v 0.00749926 -0.00786441 -0.00808223
v 0.00770647 -0.00770386 -0.00809754
v 0.00786520 -0.00749716 -0.00808223
v 0.00795377 -0.00729447 -0.00804394
v 0.00797802 -0.00713793 -0.00799799
v 0.00799935 -0.00699745 -0.00795587
v 0.00799968 -0.00448286 -0.00809754
v 0.00649971 -0.00950000 0.03099617
v 0.00480482 -0.00799887 -0.00735090
v 0.00469814 0.00335392 -0.00811669
v 0.00469814 0.00335392 -0.00734707
v 0.00800000 0.00512396 0.02648948
v 0.00800000 0.01079534 0.02799043
v 0.00799935 0.00512396 0.03100000
v 0.00799968 -0.00448286 -0.00735473
v 0.00480158 0.00335392 -0.00811669
v 0.00799935 -0.00546622 -0.00809754
v 0.00799968 0.00525039 -0.00809754
v 0.00800000 0.00512396 0.02599172
v 0.00537959 0.00512396 0.03100000
v 0.00469782 0.00490120 -0.00811286
v 0.00469782 0.00597487 -0.00811669
v 0.00469782 0.00490120 -0.00734707
v 0.00779957 0.01099803 0.02799043
v 0.00758654 0.01099803 0.02906637
v 0.00777113 0.01079534 0.02913912
v 0.00799935 0.00949690 0.03100000
v 0.00800000 0.01040200 0.02649331
v 0.00799968 0.01100205 -0.00545556
v 0.00799968 0.01100205 0.00250103
v 0.00480158 0.00490120 -0.00811669
v 0.00480061 0.00751614 -0.00811669
v 0.00799935 0.00546714 -0.00809754
v 0.00799903 0.00699837 -0.00795587
v 0.00799968 0.00751814 -0.00734324
v 0.00800000 0.01026954 0.02599172
v 0.00537959 0.00949690 0.03100000
v 0.00469782 0.00751614 -0.00811669
v 0.00469782 0.00751614 -0.00734707
v 0.00796767 0.01100205 0.00274608
v 0.00697912 0.01099803 0.02997001
v 0.00712103 0.01079534 0.03011551
v 0.00795991 0.01100205 0.00277671
v 0.00786552 0.01100205 0.00300262
v 0.00780830 0.01100205 0.00309069
v 0.00614832 0.01079534 0.03076643
v 0.00537926 0.01079534 0.03091576
v 0.00650036 0.01100205 -0.00545556
v 0.00792306 0.00737967 -0.00805926
v 0.00783255 0.00751614 -0.00807457
v 0.00772490 0.00767668 -0.00809372
v 0.00770647 0.00770478 -0.00809372
v 0.00735379 0.00803390 -0.00809372
v 0.00547237 0.00799778 -0.00809754
v 0.00499878 0.00799778 -0.00809754
v 0.00537926 0.01099803 0.02719401
v 0.00537926 0.01099803 0.03071666
v 0.00607170 0.01099803 0.03057881
v 0.00779957 0.01100205 0.00310217
v 0.00749926 0.01100205 0.00336637
v 0.00666490 0.00803390 -0.00809372
v 0.00650036 0.01100205 0.00350421
v 0.00700013 0.01100205 0.00350421
f 1 2 5
f 1 5 14
f 1 14 3
f 1 3 4
f 1 4 6
f 1 6 2
f 2 6 7
f 2 7 8
f 2 8 9
f 2 9 10
f 2 10 11
f 2 11 12
f 2 12 13
f 2 13 21
f 2 21 5
f 3 14 15
f 3 15 4
f 4 16 22
f 4 22 6
f 4 15 17
f 4 17 16
f 5 18 19
f 5 19 20
f 5 20 26
f 5 26 14
f 5 21 18
f 6 22 8
f 6 8 7
f 8 22 23
f 8 23 9
f 9 23 10
f 10 23 11
f 11 23 12
f 12 23 13
f 13 23 22
f 13 22 37
f 13 37 24
f 13 24 42
f 13 42 25
f 13 25 18
f 13 18 21
f 14 26 15
f 15 26 17
f 16 17 29
f 16 29 27
f 16 27 28
f 16 28 44
f 16 44 38
f 16 38 37
f 16 37 22
f 17 26 29
f 18 25 42
f 18 42 34
f 18 34 19
f 19 30 31
f 19 31 32
f 19 32 33
f 19 33 20
f 19 34 35
f 19 35 36
f 19 36 30
f 20 33 43
f 20 43 26
f 24 37 38
f 24 38 39
f 24 39 40
f 24 40 41
f 24 41 42
f 26 43 45
f 26 45 29
f 27 29 45
f 27 45 44
f 27 44 28
f 30 36 46
f 30 46 31
f 31 47 48
f 31 48 32
f 31 46 49
f 31 49 50
f 31 50 51
f 31 51 47
f 32 48 33
f 33 48 52
f 33 52 53
f 33 53 43
f 34 42 35
f 35 54 68
f 35 68 69
f 35 69 66
f 35 66 65
f 35 65 51
f 35 51 50
f 35 50 49
f 35 49 46
f 35 46 36
f 35 42 41
f 35 41 40
f 35 40 55
f 35 55 56
f 35 56 57
f 35 57 58
f 35 58 59
f 35 59 67
f 35 67 54
f 38 44 61
f 38 61 60
f 38 60 59
f 38 59 58
f 38 58 57
f 38 57 39
f 39 57 55
f 39 55 40
f 43 53 45
f 44 45 63
f 44 63 62
f 44 62 54
f 44 54 61
f 45 53 63
f 47 64 48
f 47 51 65
f 47 65 66
f 47 66 64
f 48 64 52
f 52 64 63
f 52 63 53
f 54 67 61
f 54 62 63
f 54 63 68
f 55 57 56
f 59 60 61
f 59 61 67
f 63 64 69
f 63 69 68
f 64 66 69

