# https://github.com/mikedh/trimesh
v 0.00099980 0.00751856 -0.00859845
v 0.00130425 0.00336030 -0.00811644
v 0.00099980 0.00751856 -0.00735066
v 0.00099980 0.00944236 -0.00859845
v 0.00134807 0.00751856 -0.00859845
v 0.00130425 0.00336030 -0.00735048
v 0.00469700 0.00336030 -0.00811644
v 0.00133438 0.00336030 -0.00730031
v 0.00169987 0.00336030 -0.00693485
v 0.00170026 0.00751856 -0.00693414
v 0.00099980 0.00944236 -0.00735066
v 0.00170026 0.00999935 -0.00838720
v 0.00162474 0.00992331 -0.00859792
v 0.00134807 0.00964774 -0.00859845
v 0.00479952 0.00751856 -0.00859792
v 0.00327768 0.00800406 -0.00859845
v 0.00469700 0.00336030 -0.00737847
v 0.00499675 0.00752571 -0.00809954
v 0.00499675 0.00751856 -0.00809426
v 0.00499753 0.00751856 -0.00773866
v 0.00219959 0.00336030 -0.00680035
v 0.00181883 0.00902900 -0.00690228
v 0.00170026 0.00949955 -0.00693432
v 0.00195032 0.00999935 -0.00736721
v 0.00176757 0.00999935 -0.00755047
v 0.00170026 0.00999935 -0.00779921
v 0.00334577 0.00999935 -0.00859792
v 0.00429941 0.00999935 -0.00859792
v 0.00327768 0.00944236 -0.00859845
v 0.00479952 0.00949955 -0.00859792
v 0.00469700 0.00336095 -0.00735048
v 0.00469660 0.00336030 -0.00735048
v 0.00499753 0.00751856 -0.00735066
v 0.00499675 0.00800016 -0.00809954
v 0.00499753 0.00800016 -0.00773866
v 0.00379970 0.00336030 -0.00680000
v 0.00220037 0.00751856 -0.00680000
v 0.00220037 0.00902900 -0.00680000
v 0.00220037 0.00949955 -0.00680053
v 0.00220037 0.00999935 -0.00730031
v 0.00429941 0.00999935 -0.00779992
v 0.00479952 0.00949955 -0.00779992
v 0.00466569 0.00336030 -0.00730014
v 0.00499753 0.00800016 -0.00735066
v 0.00429980 0.00336030 -0.00693414
v 0.00379970 0.00751856 -0.00680000
v 0.00327768 0.00949955 -0.00680000
v 0.00327768 0.00999935 -0.00730014
v 0.00423211 0.00999935 -0.00755064
v 0.00479952 0.00944236 -0.00735066
v 0.00429941 0.00949955 -0.00693414
v 0.00429980 0.00751856 -0.00693414
v 0.00379931 0.00949955 -0.00680000
v 0.00379931 0.00999935 -0.00730014
v 0.00404975 0.00999935 -0.00736721
f 1 2 6
f 1 6 3
f 1 3 11
f 1 11 4
f 1 4 14
f 1 14 29
f 1 29 16
f 1 16 5
f 1 5 7
f 1 7 2
f 2 7 17
f 2 17 32
f 2 32 43
f 2 43 45
f 2 45 36
f 2 36 21
f 2 21 9
f 2 9 8
f 2 8 6
f 3 6 8
f 3 8 9
f 3 9 10
f 3 10 11
f 4 11 26
f 4 26 12
f 4 12 13
f 4 13 14
f 5 15 7
f 5 16 15
f 7 15 18
f 7 18 19
f 7 19 20
f 7 20 33
f 7 33 17
f 9 21 10
f 10 21 22
f 10 22 23
f 10 23 11
f 11 23 24
f 11 24 25
f 11 25 26
f 12 26 25
f 12 25 24
f 12 24 40
f 12 40 48
f 12 48 54
f 12 54 55
f 12 55 49
f 12 49 41
f 12 41 28
f 12 28 27
f 12 27 13
f 13 27 14
f 14 27 28
f 14 28 29
f 15 16 29
f 15 29 30
f 15 30 34
f 15 34 18
f 17 31 32
f 17 33 31
f 18 34 35
f 18 35 20
f 18 20 19
f 20 35 44
f 20 44 33
f 21 36 37
f 21 37 22
f 22 38 23
f 22 37 38
f 23 38 39
f 23 39 40
f 23 40 24
f 28 41 42
f 28 42 30
f 28 30 29
f 30 42 44
f 30 44 35
f 30 35 34
f 31 43 32
f 31 33 43
f 33 44 52
f 33 52 45
f 33 45 43
f 36 45 52
f 36 52 46
f 36 46 53
f 36 53 47
f 36 47 38
f 36 38 37
f 38 47 39
f 39 47 40
f 40 47 48
f 41 49 50
f 41 50 42
f 42 50 44
f 44 50 51
f 44 51 52
f 46 52 51
f 46 51 53
f 47 53 54
f 47 54 48
f 49 55 50
f 50 55 51
f 51 55 53
f 53 55 54

