# https://github.com/mikedh/trimesh
v 0.00502148 0.00123267 -0.01579622
v 0.00502148 -0.00185336 -0.01579622
v 0.00502148 0.00123267 -0.01626897
v -0.00619947 0.00123267 -0.01579622
v 0.00502038 -0.00540178 -0.01579622
v 0.00502148 -0.00540113 -0.01650163
v 0.00502148 -0.00144293 -0.01979756
v 0.00479838 0.00123267 -0.01650163
v -0.00619947 0.00123267 -0.01626937
v -0.00620606 0.00056052 -0.01650163
v -0.00620606 0.00019685 -0.01580993
v -0.00619947 -0.00185336 -0.01579622
v -0.00549830 -0.00540178 -0.01579622
v 0.00502038 -0.00540178 -0.01650163
v 0.00502148 -0.00540113 -0.01979756
v -0.00619947 -0.00144293 -0.01979756
v -0.00549939 0.00123267 -0.01650163
v -0.00620606 -0.00144293 -0.01911801
v -0.00620606 -0.00074351 -0.01594428
v -0.00619837 -0.00503356 -0.01579622
v -0.00549830 -0.00540178 -0.01650163
v -0.00619837 -0.00540113 -0.01680674
v -0.00619947 -0.00540113 -0.01740483
v -0.00549720 -0.00540113 -0.01979756
v -0.00619947 -0.00380941 -0.01979756
v -0.00620606 -0.00149813 -0.01912388
v -0.00620606 -0.00151437 -0.01649497
v -0.00619947 -0.00540113 -0.01806206
v -0.00619837 -0.00540113 -0.01879292
v -0.00620606 -0.00194558 -0.01733550
v -0.00619837 -0.00503616 -0.01979756
v -0.00620606 -0.00193974 -0.01828531
v -0.00620606 -0.00194558 -0.01733903
f 1 2 6
f 1 6 15
f 1 15 7
f 1 7 3
f 1 3 8
f 1 8 17
f 1 17 9
f 1 9 4
f 1 4 12
f 1 12 20
f 1 20 13
f 1 13 5
f 1 5 2
f 2 5 6
f 3 7 8
f 4 9 10
f 4 10 11
f 4 11 12
f 5 13 21
f 5 21 14
f 5 14 15
f 5 15 6
f 7 15 24
f 7 24 31
f 7 31 25
f 7 25 16
f 7 16 17
f 7 17 8
f 9 16 10
f 9 17 16
f 10 16 18
f 10 18 26
f 10 26 32
f 10 32 33
f 10 33 30
f 10 30 27
f 10 27 19
f 10 19 11
f 11 19 20
f 11 20 12
f 13 20 22
f 13 22 23
f 13 23 28
f 13 28 21
f 14 21 24
f 14 24 15
f 16 25 26
f 16 26 18
f 19 27 20
f 20 27 23
f 20 23 22
f 21 28 29
f 21 29 24
f 23 27 30
f 23 30 33
f 23 33 28
f 24 29 31
f 25 31 26
f 26 28 32
f 26 31 28
f 28 33 32
f 28 31 29

