# https://github.com/mikedh/trimesh
v 0.00650010 0.01100205 -0.00546159
v 0.00649627 0.01250014 -0.00233170
v 0.00649627 0.01269999 -0.00297996
v 0.00650010 0.01379986 -0.00546159
v 0.00800000 0.01100205 -0.00546159
v 0.00650010 0.01100205 0.00350000
v 0.00649627 0.01250014 0.00329999
v 0.00649627 0.01379986 -0.00297996
v 0.00670001 0.01399971 -0.00546159
v 0.00649627 0.01399971 -0.00237205
v 0.00800000 0.01379986 -0.00546159
v 0.00800000 0.01100205 0.00249998
v 0.00700002 0.01100205 0.00350000
v 0.00649627 0.01375878 0.00350000
v 0.00649627 0.01269969 0.00349912
v 0.00779994 0.01399971 -0.00546159
v 0.00649627 0.01399971 0.00329999
v 0.00785647 0.01394336 -0.00546159
v 0.00800000 0.01379986 0.00249998
v 0.00796776 0.01100205 0.00274384
v 0.00700002 0.01379986 0.00350000
v 0.00749949 0.01100205 0.00336578
v 0.00749993 0.01379986 0.00336578
v 0.00649627 0.01379986 0.00350000
v 0.00779994 0.01399971 0.00249998
v 0.00700002 0.01399971 0.00329999
v 0.00769278 0.01399971 0.00289999
v 0.00786589 0.01379986 0.00299999
v 0.00796025 0.01100205 0.00277191
v 0.00779994 0.01100205 0.00309911
v 0.00739998 0.01399971 0.00319210
v 0.00786589 0.01100205 0.00299999
f 1 2 3
f 1 3 8
f 1 8 4
f 1 4 9
f 1 9 16
f 1 16 18
f 1 18 11
f 1 11 5
f 1 5 12
f 1 12 20
f 1 20 29
f 1 29 32
f 1 32 30
f 1 30 22
f 1 22 13
f 1 13 6
f 1 6 7
f 1 7 2
f 2 7 15
f 2 15 14
f 2 14 24
f 2 24 17
f 2 17 10
f 2 10 8
f 2 8 3
f 4 8 10
f 4 10 9
f 5 11 19
f 5 19 12
f 6 13 21
f 6 21 24
f 6 24 14
f 6 14 15
f 6 15 7
f 9 10 17
f 9 17 26
f 9 26 31
f 9 31 27
f 9 27 25
f 9 25 16
f 11 18 19
f 12 19 20
f 13 22 23
f 13 23 21
f 16 25 18
f 17 24 21
f 17 21 26
f 18 25 19
f 19 25 27
f 19 27 28
f 19 28 29
f 19 29 20
f 21 23 26
f 22 30 23
f 23 30 28
f 23 28 27
f 23 27 31
f 23 31 26
f 28 30 32
f 28 32 29

