# https://github.com/mikedh/trimesh
v 0.00207317 0.01100000 0.03079979
v 0.00499936 0.01079875 0.03099974
v 0.00499936 0.01099885 0.03079979
v 0.00537896 0.01099885 0.03072426
v 0.00537896 0.01099885 0.02924100
v 0.00178793 0.01100000 0.03068610
v 0.00178793 0.01100000 0.03078411
v -0.00499827 0.01099885 0.03079927
v -0.00499827 0.01079875 0.03100000
v -0.00261979 0.01079875 0.03100000
v 0.00537896 0.00949871 0.03099974
v 0.00537896 0.01079875 0.03092420
v -0.00135192 0.01079818 0.03100000
v 0.00537896 0.00512708 0.02924100
v 0.00245928 0.00949871 0.02832988
v 0.00193977 0.01004955 0.02832988
v 0.00082808 0.01099885 0.02832988
v -0.00430631 0.01099942 0.02884346
v -0.00570107 0.01099942 0.02884346
v -0.00570107 0.01099942 0.02962547
v -0.00569999 0.01099885 0.03065970
v -0.00569999 0.01079875 0.03085991
v -0.00569999 0.00949813 0.03100000
v 0.00537896 0.00512708 0.03099974
v -0.00135192 0.00512650 0.03100000
v 0.00245928 0.00512650 0.02832988
v -0.00082807 0.01099885 0.02832988
v -0.00570107 0.00512650 0.02884346
v -0.00261979 0.00949813 0.02835863
v -0.00570107 0.00512650 0.02962547
v -0.00569999 0.00512650 0.03100000
v 0.00245928 0.00512650 0.02900499
v 0.00178684 0.00512650 0.03099948
v -0.00135192 0.00512650 0.02832988
v -0.00135192 0.01048021 0.02832988
v -0.00261979 0.00512708 0.02835863
f 1 2 3
f 1 3 4
f 1 4 5
f 1 5 6
f 1 6 7
f 1 7 8
f 1 8 9
f 1 9 10
f 1 10 2
f 2 11 12
f 2 12 4
f 2 4 3
f 2 10 13
f 2 13 11
f 4 12 11
f 4 11 24
f 4 24 14
f 4 14 5
f 5 14 26
f 5 26 15
f 5 15 16
f 5 16 17
f 5 17 6
f 6 17 18
f 6 18 19
f 6 19 20
f 6 20 7
f 7 20 21
f 7 21 8
f 8 21 9
f 9 21 22
f 9 22 23
f 9 23 31
f 9 31 25
f 9 25 13
f 9 13 10
f 11 13 25
f 11 25 24
f 14 24 32
f 14 32 26
f 15 26 34
f 15 34 35
f 15 35 27
f 15 27 17
f 15 17 16
f 17 27 19
f 17 19 18
f 19 28 30
f 19 30 20
f 19 27 29
f 19 29 36
f 19 36 28
f 20 30 31
f 20 31 23
f 20 23 22
f 20 22 21
f 24 25 33
f 24 33 32
f 25 31 30
f 25 30 28
f 25 28 34
f 25 34 26
f 25 26 32
f 25 32 33
f 27 35 29
f 28 36 34
f 29 35 34
f 29 34 36

