# https://github.com/mikedh/trimesh
v 0.00485295 -0.00517512 -0.01018555
v 0.00473318 -0.00472854 -0.01018555
v 0.00474577 -0.00496963 -0.01018555
v 0.00472262 -0.00446479 -0.01018555
v 0.00494999 -0.00535311 -0.01018555
v 0.00472262 -0.00547285 -0.00638857
v 0.00472262 -0.00547285 -0.00588507
v 0.00538361 -0.00547932 -0.01018555
v 0.00483509 -0.00749057 -0.00134097
v 0.00501942 -0.00780771 -0.00134097
v 0.00509250 -0.00776079 -0.00164776
v 0.00472952 -0.00597768 -0.00537797
v 0.00472262 -0.00014133 -0.01018555
v 0.00565808 -0.00547446 -0.01018555
v 0.00565808 -0.00014133 -0.01018555
v 0.00478718 -0.00749057 -0.00084649
v 0.00477337 -0.00749057 -0.00034119
v 0.00495243 -0.00787405 -0.00084649
v 0.00493334 -0.00792421 -0.00034119
v 0.00492847 -0.00795981 0.00016231
v 0.00492807 -0.00796466 0.00066941
v 0.00492842 -0.00795776 0.00088328
v 0.00498414 -0.00799269 0.00066941
v 0.00509550 -0.00804517 0.00034808
v 0.00474577 -0.00749057 0.00167821
v 0.00478312 -0.00749057 0.00218171
v 0.00491047 -0.00790243 0.00122210
v 0.00490461 -0.00785119 0.00153583
v 0.00489574 -0.00781452 0.00167821
v 0.00488836 -0.00777237 0.00184183
v 0.00489604 -0.00770742 0.00209396
v 0.00489876 -0.00768482 0.00218171
v 0.00491043 -0.00761612 0.00244840
v 0.00489478 -0.00743829 0.00290610
v 0.00489911 -0.00732778 0.00319051
v 0.00490782 -0.00727127 0.00333595
v 0.00490952 -0.00724183 0.00339940
v 0.00474820 -0.00698412 0.00319051
v 0.00500000 -0.00724183 0.00339940
v 0.00524361 -0.00810117 0.00000514
v 0.00538361 -0.00800673 -0.00084649
v 0.00528746 -0.00811248 -0.00006410
v 0.00538361 -0.00810867 -0.00034119
v 0.00538387 -0.00813171 -0.00018186
v 0.00516644 -0.00807550 0.00016231
v 0.00490995 -0.00715876 0.00355947
v 0.00476119 -0.00648252 0.00419930
v 0.00491273 -0.00707595 0.00371907
v 0.00489599 -0.00703266 0.00373912
v 0.00491631 -0.00699040 0.00388393
v 0.00491883 -0.00694879 0.00396412
v 0.00491131 -0.00679565 0.00419930
v 0.00490155 -0.00649990 0.00465348
v 0.00490650 -0.00643600 0.00475162
v 0.00490725 -0.00626673 0.00496961
v 0.00490893 -0.00619781 0.00505837
v 0.00490893 -0.00619748 0.00505879
v 0.00500000 -0.00619748 0.00505879
v 0.00475957 -0.00597768 0.00470461
v 0.00489599 -0.00601813 0.00524781
v 0.00490338 -0.00604054 0.00523821
v 0.00490470 -0.00600652 0.00527710
v 0.00491757 -0.00583864 0.00546902
v 0.00491491 -0.00557236 0.00572618
v 0.00489640 -0.00550844 0.00575130
v 0.00491497 -0.00548367 0.00581182
v 0.00491579 -0.00526231 0.00602561
v 0.00490000 -0.00505523 0.00619280
v 0.00475551 -0.00446479 0.00621690
v 0.00489742 -0.00498598 0.00624871
v 0.00489751 -0.00496958 0.00626195
v 0.00490653 -0.00478087 0.00641432
v 0.00490830 -0.00451456 0.00660446
v 0.00489924 -0.00430555 0.00672994
v 0.00500000 -0.00478087 0.00641432
v 0.00478961 -0.00395996 0.00672220
v 0.00490949 -0.00370668 0.00708946
v 0.00490031 -0.00353529 0.00716979
v 0.00489431 -0.00337377 0.00724549
v 0.00488852 -0.00301861 0.00740864
v 0.00489102 -0.00307709 0.00738453
v 0.00476891 -0.00295190 0.00722751
v 0.00474658 -0.00244707 0.00722751
v 0.00488292 -0.00295190 0.00743123
v 0.00489955 -0.00230456 0.00765040
v 0.00490855 -0.00210301 0.00771865
v 0.00500000 -0.00307709 0.00738453
v 0.00480261 -0.00143740 0.00773100
v 0.00488403 -0.00143740 0.00785881
v 0.00488329 -0.00118229 0.00791215
v 0.00488355 -0.00118849 0.00791123
v 0.00488318 -0.00116293 0.00791501
v 0.00475713 -0.00093418 0.00773100
v 0.00474901 0.00007225 0.00773100
v 0.00487608 -0.00093418 0.00793871
v 0.00488995 -0.00059959 0.00797338
v 0.00489499 -0.00048440 0.00798532
v 0.00489157 -0.00025781 0.00798534
v 0.00488802 0.00008611 0.00798537
v 0.00500000 -0.00118849 0.00791123
v 0.00565889 -0.00806660 -0.00057219
v 0.00613689 -0.00813683 -0.00021320
v 0.00622765 -0.00813705 -0.00021456
v 0.00635257 -0.00813667 -0.00022182
v 0.00639337 -0.00801482 -0.00084649
v 0.00639337 -0.00812161 -0.00034119
v 0.00639377 -0.00812161 -0.00034119
v 0.00639346 -0.00813556 -0.00023189
v 0.00639377 -0.00813555 -0.00023196
v 0.00646050 -0.00813269 -0.00024092
v 0.00648163 -0.00813130 -0.00024753
v 0.00658717 -0.00812347 -0.00028762
v 0.00467958 0.00561897 -0.01018375
v 0.00467918 0.00612219 -0.01018375
v 0.00467918 0.00713348 -0.01018375
v 0.00468202 0.00763831 -0.01018375
v 0.00487528 0.00814315 -0.01018375
v 0.00538483 0.00832599 -0.01018375
v 0.00472506 0.00763993 -0.00134458
v 0.00474658 0.00057871 0.00773100
v 0.00477134 0.00108354 0.00773100
v 0.00488539 0.00041385 0.00798540
v 0.00488506 0.00048275 0.00798541
v 0.00488051 0.00057871 0.00797786
v 0.00488168 0.00077387 0.00796237
v 0.00488174 0.00077151 0.00796270
v 0.00488170 0.00108354 0.00791921
v 0.00490204 0.00143510 0.00787022
v 0.00473967 0.00259481 0.00722751
v 0.00490440 0.00218604 0.00769552
v 0.00490116 0.00226212 0.00767189
v 0.00489807 0.00255767 0.00758012
v 0.00489706 0.00259481 0.00756724
v 0.00481722 0.00309965 0.00722751
v 0.00490612 0.00303022 0.00740390
v 0.00490518 0.00309965 0.00737052
v 0.00489642 0.00268516 0.00753590
v 0.00489424 0.00277720 0.00750069
v 0.00481844 0.00410770 0.00672220
v 0.00490629 0.00338781 0.00723195
v 0.00491124 0.00375777 0.00705406
v 0.00491429 0.00389109 0.00698995
v 0.00490197 0.00410770 0.00685776
v 0.00500000 0.00268516 0.00753590
v 0.00472871 0.00763993 -0.00084288
v 0.00492969 0.00808328 -0.00033758
v 0.00493253 0.00807195 0.00016591
v 0.00494025 0.00804445 0.00067122
v 0.00494739 0.00802700 0.00095701
v 0.00474577 0.00713509 0.00268701
v 0.00478637 0.00713509 0.00319231
v 0.00474942 0.00763993 0.00117471
v 0.00477134 0.00763993 0.00167821
v 0.00489598 0.00775971 0.00194603
v 0.00490785 0.00767055 0.00227215
v 0.00491806 0.00794209 0.00127118
v 0.00488574 0.00783208 0.00167821
v 0.00490722 0.00749307 0.00278579
v 0.00490633 0.00759102 0.00250231
v 0.00491005 0.00743711 0.00294777
v 0.00489729 0.00732366 0.00319231
v 0.00538321 0.00827583 -0.00033758
v 0.00529180 0.00821252 0.00027055
v 0.00534543 0.00824080 0.00016591
v 0.00538356 0.00825901 0.00009852
v 0.00474698 0.00561897 0.00520991
v 0.00475998 0.00612542 0.00470641
v 0.00489265 0.00562896 0.00566808
v 0.00489054 0.00613722 0.00511427
v 0.00489367 0.00626576 0.00495066
v 0.00490069 0.00592335 0.00537717
v 0.00490001 0.00598210 0.00531172
v 0.00489512 0.00606209 0.00520991
v 0.00500000 0.00592335 0.00537717
v 0.00476119 0.00461254 0.00621871
v 0.00490591 0.00443758 0.00665643
v 0.00490040 0.00434169 0.00671495
v 0.00490964 0.00470175 0.00647252
v 0.00489929 0.00501772 0.00621871
v 0.00490312 0.00486460 0.00634171
v 0.00490482 0.00530649 0.00598674
v 0.00489384 0.00550641 0.00578918
v 0.00481398 0.00663026 0.00419930
v 0.00491713 0.00657675 0.00455480
v 0.00491465 0.00662141 0.00448225
v 0.00490507 0.00703252 0.00381357
v 0.00490540 0.00702912 0.00381988
v 0.00489482 0.00715409 0.00355782
v 0.00490473 0.00705338 0.00377490
v 0.00490844 0.00679557 0.00419930
v 0.00500000 0.00705338 0.00377490
v 0.00567919 0.00827583 -0.00033758
v 0.00580387 0.00826372 0.00008108
v 0.00739988 -0.00545505 -0.01018375
v 0.00719362 -0.00775755 -0.00164776
v 0.00732790 -0.00770138 -0.00169325
v 0.00725443 -0.00779830 -0.00138871
v 0.00725917 -0.00779306 -0.00140732
v 0.00727355 -0.00777712 -0.00145360
v 0.00722256 -0.00783211 -0.00127003
v 0.00728568 -0.00776135 -0.00150235
v 0.00731489 -0.00772095 -0.00162987
v 0.00731871 -0.00771559 -0.00164689
v 0.00745496 -0.00749609 -0.00237126
v 0.00757056 -0.00728360 -0.00308208
v 0.00749368 -0.00742860 -0.00259844
v 0.00750087 -0.00741606 -0.00263960
v 0.00736978 -0.00763567 -0.00190853
v 0.00736213 -0.00764786 -0.00186844
v 0.00739715 -0.00759171 -0.00205350
v 0.00740987 -0.00757098 -0.00212212
v 0.00793830 -0.00640422 -0.00597789
v 0.00799109 -0.00623319 -0.00656442
v 0.00763983 -0.00542592 -0.01018375
v 0.00790496 -0.00538871 -0.01018375
v 0.00804990 -0.00533855 -0.01018375
v 0.00818442 -0.00542135 -0.00961288
v 0.00819832 -0.00531895 -0.01002633
v 0.00819036 -0.00537742 -0.00979873
v 0.00819256 -0.00536114 -0.00986569
v 0.00820339 -0.00527783 -0.01018375
v 0.00820400 -0.00527328 -0.01018376
v 0.00821142 -0.00521762 -0.01018378
v 0.00812939 -0.00570926 -0.00846931
v 0.00823561 -0.00499906 -0.01018386
v 0.00828465 -0.00455605 -0.01018391
v 0.00833691 -0.00408391 -0.01018390
v 0.00834358 -0.00402361 -0.01018389
v 0.00808970 -0.00588548 -0.00779710
v 0.00807326 -0.00594539 -0.00758216
v 0.00781783 -0.00675497 -0.00481620
v 0.00768761 -0.00705417 -0.00385263
v 0.00769934 -0.00703119 -0.00392799
v 0.00774991 -0.00691436 -0.00431908
v 0.00771158 -0.00700377 -0.00402030
v 0.00770508 -0.00701892 -0.00396891
v 0.00776624 -0.00687605 -0.00444728
v 0.00787121 -0.00661046 -0.00528647
v 0.00786185 -0.00663629 -0.00520175
v 0.00782668 -0.00673136 -0.00489256
v 0.00788341 -0.00657678 -0.00539363
v 0.00790649 -0.00650473 -0.00563682
v 0.00788572 -0.00657016 -0.00541510
v 0.00788538 -0.00657113 -0.00541194
v 0.00788551 -0.00657079 -0.00345809
v 0.00781943 -0.00675083 -0.00292445
v 0.00838004 -0.00360453 -0.01018388
v 0.00839139 -0.00347410 -0.01018388
v 0.00839551 -0.00334714 -0.01018387
v 0.00839818 -0.00326458 -0.01018387
v 0.00840242 -0.00311867 -0.01018387
v 0.00840759 -0.00294096 -0.01018387
v 0.00841457 -0.00263911 -0.01018386
v 0.00841475 -0.00263149 -0.01018386
v 0.00843607 -0.00122436 -0.01018385
v 0.00844176 -0.00076094 -0.01018385
v 0.00844729 -0.00014133 -0.01018384
v 0.00844837 -0.00002041 -0.01018384
v 0.00854999 -0.00193401 -0.00133494
v 0.00854999 -0.00109210 -0.00208083
v 0.00854999 0.00000000 -0.00235001
v 0.00663869 -0.00811918 -0.00031076
v 0.00667726 -0.00811431 -0.00034119
v 0.00671401 -0.00810893 -0.00036314
v 0.00681210 -0.00809392 -0.00042501
v 0.00681142 -0.00809406 -0.00042439
v 0.00689601 -0.00800673 -0.00084649
v 0.00689601 -0.00806712 -0.00054713
v 0.00689701 -0.00806666 -0.00054806
v 0.00685753 -0.00808163 -0.00048012
v 0.00687886 -0.00807416 -0.00051444
v 0.00701362 -0.00800936 -0.00067423
v 0.00703258 -0.00799912 -0.00069933
v 0.00705139 -0.00798890 -0.00072259
v 0.00706523 -0.00791007 0.00083970
v 0.00695225 -0.00785119 0.00153583
v 0.00707768 -0.00783817 0.00151789
v 0.00708275 -0.00761612 0.00244840
v 0.00710866 -0.00794861 -0.00084247
v 0.00712543 -0.00793421 -0.00089155
v 0.00711641 -0.00794212 -0.00086428
v 0.00716583 -0.00789224 -0.00104876
v 0.00716526 -0.00789284 -0.00104649
v 0.00720998 -0.00783201 0.00083032
v 0.00733108 -0.00769626 0.00015058
v 0.00732139 -0.00771114 0.00081980
v 0.00745449 -0.00749689 -0.00075478
v 0.00740310 -0.00758226 -0.00047208
v 0.00719499 -0.00779414 0.00149485
v 0.00729652 -0.00772196 0.00146826
v 0.00721525 -0.00760552 0.00242125
v 0.00733799 -0.00756065 0.00238484
v 0.00724768 -0.00727127 0.00333595
v 0.00737572 -0.00762632 0.00143983
v 0.00751946 -0.00738360 0.00229540
v 0.00744194 -0.00748482 0.00234183
v 0.00739015 -0.00726322 0.00330188
v 0.00752035 -0.00721673 0.00325283
v 0.00737425 -0.00694879 0.00396412
v 0.00752692 -0.00694127 0.00392743
v 0.00752759 -0.00643600 0.00475162
v 0.00762707 -0.00713582 0.00319295
v 0.00770115 -0.00702744 0.00312745
v 0.00819999 -0.00550000 -0.00000001
v 0.00766451 -0.00689157 0.00386986
v 0.00777340 -0.00680459 0.00379711
v 0.00758279 -0.00619781 0.00505837
v 0.00769240 -0.00642850 0.00471350
v 0.00784283 -0.00668892 0.00371637
v 0.00788224 -0.00658012 0.00388631
v 0.00794860 -0.00628373 0.00455599
v 0.00801059 -0.00616306 0.00445464
v 0.00783831 -0.00637572 0.00464570
v 0.00765059 -0.00583864 0.00546902
v 0.00782583 -0.00582964 0.00543153
v 0.00797849 -0.00577481 0.00535487
v 0.00772901 -0.00526231 0.00602561
v 0.00777342 -0.00478107 0.00641414
v 0.00779091 -0.00451456 0.00660446
v 0.00791076 -0.00525173 0.00598910
v 0.00797804 -0.00450176 0.00656905
v 0.00808894 -0.00568121 0.00524887
v 0.00814294 -0.00556090 0.00512721
v 0.00820014 -0.00519326 0.00547489
v 0.00822561 -0.00499168 0.00564902
v 0.00806743 -0.00519725 0.00590565
v 0.00817745 -0.00510640 0.00578683
v 0.00813792 -0.00444969 0.00647866
v 0.00828998 -0.00426276 0.00619166
v 0.00824720 -0.00436596 0.00634646
v 0.00854999 -0.00233287 -0.00028325
v 0.00854999 -0.00219729 0.00083333
v 0.00854999 -0.00155834 0.00175899
v 0.00854999 -0.00056239 0.00228172
v 0.00781970 -0.00370668 0.00708946
v 0.00782529 -0.00301861 0.00740864
v 0.00801000 -0.00369208 0.00705462
v 0.00801658 -0.00300444 0.00737333
v 0.00782459 -0.00210301 0.00771865
v 0.00801595 -0.00209290 0.00768193
v 0.00782447 -0.00116293 0.00791501
v 0.00801580 -0.00115744 0.00787737
v 0.00782472 -0.00048440 0.00798532
v 0.00801605 -0.00048220 0.00794732
v 0.00828031 -0.00357194 0.00681504
v 0.00817165 -0.00364479 0.00695833
v 0.00817878 -0.00296371 0.00727295
v 0.00817816 -0.00206431 0.00757735
v 0.00828717 -0.00290263 0.00712275
v 0.00828654 -0.00202160 0.00742086
v 0.00831961 -0.00348450 0.00664636
v 0.00832528 -0.00283049 0.00694560
v 0.00832458 -0.00197128 0.00723624
v 0.00817802 -0.00114172 0.00777011
v 0.00828641 -0.00111817 0.00760963
v 0.00817827 -0.00047572 0.00783914
v 0.00828666 -0.00046596 0.00767722
v 0.00832446 -0.00109036 0.00742032
v 0.00832472 -0.00045439 0.00748625
v 0.00689601 0.00832599 -0.01018375
v 0.00727442 0.00830495 -0.01018375
v 0.00739947 0.00829201 -0.01018375
v 0.00845059 0.00025653 -0.01018384
v 0.00845252 0.00086957 -0.01018384
v 0.00845065 0.00149814 -0.01018384
v 0.00845059 0.00151710 -0.01018384
v 0.00844154 0.00245168 -0.01018384
v 0.00843690 0.00293026 -0.01018384
v 0.00843574 0.00305072 -0.01018384
v 0.00842898 0.00369115 -0.01018383
v 0.00842412 0.00395566 -0.01018382
v 0.00843431 0.00318939 -0.01018384
v 0.00843189 0.00342477 -0.01018384
v 0.00842937 0.00366993 -0.01018383
v 0.00854999 0.00109210 -0.00208083
v 0.00854999 0.00193401 -0.00133494
v 0.00768165 0.00820787 -0.01018375
v 0.00788222 0.00811402 -0.01018375
v 0.00800037 0.00791985 -0.01018375
v 0.00841615 0.00429624 -0.01018382
v 0.00841068 0.00443669 -0.01018382
v 0.00839119 0.00493737 -0.01018381
v 0.00838612 0.00506743 -0.01018381
v 0.00836701 0.00548326 -0.01018379
v 0.00837488 0.00531763 -0.01018380
v 0.00837031 0.00541812 -0.01018379
v 0.00833627 0.00608944 -0.01018376
v 0.00832772 0.00625804 -0.01018375
v 0.00833379 0.00625474 -0.00766905
v 0.00812664 0.00746518 -0.01018375
v 0.00833025 0.00627877 -0.00745884
v 0.00804918 0.00769027 -0.00370830
v 0.00802821 0.00773836 -0.00355017
v 0.00771879 0.00808917 -0.00115970
v 0.00785686 0.00800343 -0.00254657
v 0.00782523 0.00805362 -0.00245622
v 0.00789646 0.00793961 -0.00265216
v 0.00799982 0.00777789 -0.00316855
v 0.00796001 0.00783802 -0.00286317
v 0.00823418 0.00689053 -0.00479810
v 0.00822736 0.00693299 -0.00468437
v 0.00822065 0.00697459 -0.00457192
v 0.00817392 0.00723143 -0.00431044
v 0.00819908 0.00710519 -0.00446079
v 0.00820855 0.00704845 -0.00446428
v 0.00807736 0.00762876 -0.00410414
v 0.00813928 0.00740514 -0.00440858
v 0.00813829 0.00741007 -0.00441254
v 0.00662468 0.00826520 0.00007560
v 0.00667776 0.00826520 0.00007560
v 0.00689601 0.00827583 -0.00034119
v 0.00689601 0.00826518 0.00007567
v 0.00726425 0.00823799 0.00002941
v 0.00727537 0.00823710 0.00002061
v 0.00733417 0.00823315 -0.00008559
v 0.00713089 0.00824519 0.00014964
v 0.00739947 0.00823052 -0.00034119
v 0.00739955 0.00822927 -0.00024325
v 0.00744043 0.00821020 -0.00025560
v 0.00745123 0.00820538 -0.00027660
v 0.00756993 0.00815198 -0.00050477
v 0.00738007 0.00775971 0.00194603
v 0.00740076 0.00767055 0.00227215
v 0.00756106 0.00784105 0.00132885
v 0.00745111 0.00743711 0.00294777
v 0.00752737 0.00702912 0.00381988
v 0.00854999 0.00056239 0.00228172
v 0.00854999 0.00155834 0.00175899
v 0.00854999 0.00233287 -0.00028325
v 0.00854999 0.00219729 0.00083333
v 0.00782520 0.00048275 0.00798541
v 0.00782532 0.00077151 0.00796270
v 0.00801655 0.00048036 0.00794744
v 0.00782539 0.00143510 0.00787022
v 0.00801674 0.00142830 0.00783279
v 0.00782304 0.00218604 0.00769552
v 0.00782000 0.00255767 0.00758012
v 0.00781787 0.00303022 0.00740390
v 0.00780163 0.00389109 0.00698995
v 0.00787077 0.00255704 0.00757762
v 0.00801410 0.00217721 0.00765859
v 0.00804934 0.00386503 0.00692924
v 0.00817876 0.00047375 0.00783926
v 0.00828715 0.00046391 0.00767734
v 0.00817895 0.00140887 0.00772616
v 0.00817617 0.00214899 0.00755426
v 0.00828733 0.00137978 0.00756656
v 0.00828462 0.00210565 0.00739836
v 0.00832521 0.00045235 0.00748634
v 0.00832540 0.00134546 0.00737833
v 0.00832302 0.00205378 0.00721457
v 0.00807000 0.00253723 0.00751632
v 0.00808385 0.00253464 0.00750845
v 0.00806733 0.00300706 0.00734135
v 0.00820956 0.00249955 0.00740283
v 0.00825301 0.00247944 0.00734266
v 0.00829135 0.00245300 0.00726380
v 0.00825026 0.00293957 0.00717204
v 0.00830138 0.00366351 0.00655308
v 0.00823193 0.00378189 0.00676962
v 0.00831999 0.00240022 0.00710704
v 0.00831785 0.00284574 0.00694116
v 0.00769189 0.00809962 -0.00096149
v 0.00761666 0.00762753 0.00224390
v 0.00773287 0.00771168 0.00129893
v 0.00779002 0.00749852 0.00219324
v 0.00767106 0.00739590 0.00291243
v 0.00784587 0.00726772 0.00284650
v 0.00793961 0.00707888 0.00276356
v 0.00788667 0.00730893 0.00213014
v 0.00766945 0.00598210 0.00531172
v 0.00790662 0.00594886 0.00525852
v 0.00778151 0.00443758 0.00665643
v 0.00776861 0.00470175 0.00647252
v 0.00773004 0.00530649 0.00598674
v 0.00801354 0.00467308 0.00641393
v 0.00797192 0.00527579 0.00593027
v 0.00759714 0.00657675 0.00455480
v 0.00775342 0.00699065 0.00377663
v 0.00782867 0.00654080 0.00450613
v 0.00793024 0.00686489 0.00369083
v 0.00801932 0.00667922 0.00358113
v 0.00800717 0.00641892 0.00440341
v 0.00822844 0.00501476 0.00561258
v 0.00809174 0.00623904 0.00427013
v 0.00816632 0.00566410 0.00497975
v 0.00808669 0.00583361 0.00513821
v 0.00819459 0.00539539 0.00525972
v 0.00815319 0.00516968 0.00579416
v 0.00819552 0.00457627 0.00626647
v 0.00826781 0.00443618 0.00606798
f 1 5 18
f 5 8 11
f 1 3 5
f 2 3 12
f 2 12 4
f 2 4 3
f 3 8 5
f 4 12 6
f 1 18 3
f 3 14 8
f 3 16 12
f 3 9 16
f 6 25 7
f 3 18 9
f 5 10 18
f 5 11 10
f 6 12 25
f 12 16 17
f 12 17 25
f 8 41 11
f 10 11 41
f 3 4 13
f 4 6 113
f 3 13 15
f 6 7 113
f 3 15 14
f 7 25 113
f 25 38 113
f 8 194 105
f 8 14 194
f 8 105 41
f 14 15 256
f 16 18 19
f 16 20 17
f 16 19 20
f 9 18 16
f 17 20 25
f 20 21 25
f 20 19 40
f 10 43 18
f 19 18 42
f 19 42 40
f 20 24 21
f 21 24 23
f 21 23 22
f 21 22 27
f 20 45 24
f 20 40 45
f 25 27 28
f 25 29 30
f 25 28 29
f 21 27 25
f 26 30 31
f 26 31 32
f 25 30 26
f 26 32 33
f 25 26 38
f 26 34 38
f 26 33 34
f 38 34 35
f 38 35 36
f 38 36 37
f 38 37 46
f 10 41 43
f 18 43 42
f 43 44 42
f 41 101 43
f 43 102 44
f 38 47 59
f 38 46 49
f 38 49 47
f 47 49 50
f 49 46 48
f 49 48 50
f 47 50 51
f 47 51 52
f 47 52 53
f 47 53 54
f 47 54 55
f 47 60 59
f 47 55 60
f 60 55 56
f 61 56 57
f 60 56 61
f 38 59 69
f 60 61 62
f 60 62 65
f 65 62 63
f 65 63 64
f 59 60 69
f 38 69 83
f 60 65 69
f 65 64 66
f 65 66 67
f 65 67 68
f 65 68 69
f 69 68 70
f 69 70 71
f 71 72 73
f 71 73 74
f 69 71 76
f 76 71 74
f 38 83 113
f 69 76 82
f 76 74 77
f 69 82 83
f 76 77 78
f 76 78 82
f 82 78 79
f 82 79 81
f 82 81 80
f 82 93 83
f 82 80 84
f 82 84 85
f 82 85 88
f 82 88 93
f 83 93 94
f 88 85 86
f 88 86 89
f 88 89 91
f 88 91 90
f 88 90 93
f 93 90 92
f 93 92 95
f 83 94 120
f 93 99 94
f 93 95 96
f 93 96 98
f 96 97 98
f 93 98 99
f 41 106 101
f 43 101 106
f 43 106 102
f 41 105 106
f 106 103 102
f 106 104 103
f 105 107 106
f 106 108 104
f 106 107 109
f 106 109 108
f 107 110 109
f 107 111 110
f 107 112 111
f 105 267 107
f 107 262 112
f 107 263 262
f 4 114 13
f 4 113 114
f 13 114 115
f 13 115 116
f 13 116 117
f 13 117 118
f 115 119 116
f 116 119 117
f 117 162 118
f 113 129 114
f 114 129 115
f 115 129 119
f 117 119 145
f 117 145 146
f 117 146 162
f 118 162 192
f 13 360 15
f 13 118 360
f 118 192 360
f 15 360 361
f 192 411 360
f 83 129 113
f 83 120 129
f 94 122 120
f 120 125 121
f 94 99 122
f 120 122 123
f 120 123 124
f 120 124 126
f 120 126 125
f 121 125 127
f 120 121 129
f 121 127 128
f 121 128 131
f 121 132 129
f 121 131 132
f 131 128 130
f 129 132 133
f 129 133 137
f 129 138 134
f 134 138 135
f 134 135 136
f 129 137 138
f 129 139 175
f 139 143 177
f 129 134 139
f 134 141 139
f 134 136 140
f 134 140 141
f 139 141 142
f 139 142 143
f 145 152 146
f 119 150 145
f 145 150 152
f 147 152 153
f 146 152 147
f 147 153 148
f 146 147 162
f 148 156 149
f 147 148 163
f 148 149 163
f 119 166 150
f 151 188 161
f 152 150 153
f 153 157 156
f 153 154 157
f 153 155 154
f 153 159 155
f 148 153 156
f 150 151 153
f 151 159 153
f 151 158 159
f 151 160 158
f 151 161 160
f 147 165 162
f 147 163 164
f 147 164 165
f 162 165 193
f 119 129 166
f 166 168 171
f 166 182 168
f 167 166 173
f 167 173 169
f 167 169 170
f 166 171 172
f 166 172 173
f 129 175 166
f 139 180 175
f 139 177 176
f 139 176 178
f 139 178 180
f 175 180 179
f 175 179 181
f 175 181 182
f 166 175 182
f 150 166 167
f 151 167 183
f 150 167 151
f 183 170 184
f 183 185 190
f 183 184 185
f 151 183 188
f 183 186 189
f 183 189 188
f 186 190 187
f 183 190 186
f 167 170 183
f 162 409 192
f 162 193 409
f 192 409 410
f 192 410 411
f 14 214 194
f 14 215 214
f 194 214 195
f 214 215 195
f 14 216 215
f 14 222 216
f 14 225 222
f 14 226 225
f 14 227 226
f 14 247 227
f 14 249 247
f 105 194 267
f 194 195 267
f 195 215 206
f 195 198 267
f 267 198 200
f 195 209 196
f 195 208 209
f 195 199 198
f 195 201 199
f 195 202 201
f 195 203 202
f 198 197 200
f 195 196 203
f 206 204 210
f 195 206 208
f 206 210 208
f 211 210 204
f 14 251 249
f 14 253 251
f 14 254 253
f 14 255 254
f 14 256 255
f 15 257 256
f 15 258 257
f 15 363 258
f 215 232 205
f 215 236 233
f 215 235 236
f 215 233 232
f 238 239 220
f 229 213 212
f 220 237 234
f 220 231 237
f 216 234 235
f 220 239 240
f 220 240 231
f 243 224 242
f 242 224 212
f 244 241 224
f 243 244 224
f 238 224 241
f 215 216 235
f 216 218 234
f 220 234 218
f 238 217 224
f 229 212 224
f 229 230 213
f 216 221 218
f 216 222 221
f 222 225 223
f 219 238 220
f 219 217 238
f 215 207 206
f 215 205 207
f 227 247 228
f 247 249 248
f 249 251 250
f 251 253 252
f 107 267 263
f 267 266 264
f 267 265 266
f 267 270 265
f 267 264 263
f 267 271 270
f 267 268 271
f 267 272 268
f 268 272 269
f 267 282 273
f 267 273 272
f 267 200 282
f 273 279 274
f 273 282 279
f 282 283 280
f 282 280 281
f 282 281 279
f 15 364 363
f 15 365 364
f 15 367 365
f 15 368 367
f 15 372 368
f 15 373 372
f 15 370 373
f 15 371 370
f 15 380 371
f 15 381 380
f 15 382 381
f 15 387 384
f 15 383 382
f 15 385 383
f 15 386 385
f 15 384 386
f 15 361 362
f 15 362 377
f 15 377 378
f 360 411 361
f 15 379 390
f 15 378 379
f 15 390 387
f 361 417 362
f 362 417 377
f 361 411 417
f 365 367 366
f 368 372 369
f 370 374 373
f 377 417 378
f 378 395 379
f 379 393 406
f 390 388 387
f 390 389 388
f 379 408 390
f 390 401 389
f 390 405 402
f 390 404 405
f 401 391 389
f 401 400 391
f 390 402 401
f 379 406 408
f 390 407 404
f 390 408 407
f 378 463 396
f 378 417 421
f 378 421 463
f 379 395 397
f 378 396 395
f 379 399 398
f 379 397 399
f 379 398 393
f 406 393 392
f 396 463 394
f 404 407 403
f 411 410 412
f 411 412 413
f 412 416 413
f 411 413 414
f 411 414 415
f 411 415 418
f 411 418 417
f 417 418 420
f 420 418 419
f 417 420 421
f 276 22 23
f 276 29 28
f 276 30 29
f 276 27 22
f 276 28 27
f 276 31 30
f 276 32 31
f 278 33 32
f 278 34 33
f 39 46 37
f 58 61 57
f 75 72 71
f 75 73 72
f 84 80 85
f 87 81 79
f 87 80 81
f 100 91 89
f 100 90 91
f 100 92 90
f 276 23 24
f 276 24 45
f 276 45 40
f 276 40 42
f 276 42 44
f 293 35 34
f 293 36 35
f 293 37 36
f 39 37 293
f 276 44 102
f 108 109 110
f 276 102 103
f 276 103 104
f 276 104 108
f 276 108 110
f 276 278 32
f 278 293 34
f 39 299 46
f 299 48 46
f 299 50 48
f 299 51 50
f 299 52 51
f 299 53 52
f 301 54 53
f 301 55 54
f 301 56 55
f 307 57 56
f 58 57 307
f 314 62 61
f 314 63 62
f 314 64 63
f 314 66 64
f 58 314 61
f 314 67 66
f 317 68 67
f 317 70 68
f 317 71 70
f 317 75 71
f 319 74 73
f 75 319 73
f 39 293 299
f 299 301 53
f 335 77 74
f 335 78 77
f 335 79 78
f 336 85 80
f 339 86 85
f 87 79 335
f 87 336 80
f 339 89 86
f 341 95 92
f 341 96 95
f 343 97 96
f 343 98 97
f 343 99 98
f 100 89 339
f 100 341 92
f 125 126 127
f 136 135 140
f 144 137 133
f 144 138 137
f 164 193 165
f 174 172 171
f 174 171 168
f 185 184 190
f 191 186 187
f 191 188 189
f 191 189 186
f 431 122 99
f 431 123 122
f 431 124 123
f 432 126 124
f 432 127 126
f 432 128 127
f 434 130 128
f 437 131 130
f 437 132 131
f 437 133 132
f 438 140 135
f 438 135 138
f 439 141 140
f 439 142 141
f 439 143 142
f 144 133 437
f 144 438 138
f 422 163 149
f 422 164 163
f 191 425 188
f 422 157 154
f 423 154 155
f 422 149 156
f 422 156 157
f 425 159 158
f 425 155 159
f 425 160 161
f 425 158 160
f 425 161 188
f 422 193 164
f 422 409 193
f 422 154 423
f 425 423 155
f 475 174 168
f 471 170 169
f 471 173 172
f 471 169 173
f 174 471 172
f 473 177 143
f 473 176 177
f 473 178 176
f 474 181 179
f 474 179 180
f 474 180 178
f 475 168 182
f 475 182 181
f 478 190 184
f 426 187 190
f 191 187 426
f 471 184 170
f 198 199 197
f 285 196 209
f 287 211 204
f 288 208 210
f 288 210 211
f 288 211 287
f 287 206 207
f 287 204 206
f 295 207 205
f 222 218 221
f 304 222 223
f 304 223 225
f 304 224 217
f 304 218 222
f 304 220 218
f 304 219 220
f 304 217 219
f 304 225 226
f 304 226 227
f 304 227 228
f 235 234 236
f 246 231 240
f 246 237 231
f 246 234 237
f 245 242 212
f 245 243 242
f 245 244 243
f 245 241 244
f 295 205 232
f 303 233 236
f 303 232 233
f 303 236 234
f 246 303 234
f 309 239 238
f 310 238 241
f 312 212 213
f 309 240 239
f 246 240 309
f 245 212 310
f 245 310 241
f 304 230 229
f 304 229 224
f 304 213 230
f 247 331 228
f 331 247 248
f 259 248 249
f 259 249 250
f 251 259 250
f 259 251 252
f 253 259 252
f 259 253 254
f 259 254 255
f 260 255 256
f 260 256 257
f 260 257 258
f 260 258 363
f 304 228 331
f 331 248 259
f 260 259 255
f 260 363 261
f 260 261 332
f 332 261 375
f 263 264 262
f 276 110 111
f 276 111 112
f 277 112 262
f 277 262 264
f 268 269 271
f 275 264 266
f 275 266 265
f 275 265 270
f 275 270 271
f 275 271 269
f 273 274 272
f 284 269 272
f 284 272 274
f 276 112 277
f 275 277 264
f 275 269 284
f 276 277 291
f 276 291 278
f 284 279 281
f 284 281 280
f 284 274 279
f 284 280 283
f 286 283 282
f 286 200 197
f 285 203 196
f 286 202 203
f 286 197 199
f 286 199 201
f 286 201 202
f 286 282 200
f 285 286 203
f 275 284 289
f 284 283 286
f 284 286 290
f 294 209 208
f 285 209 294
f 288 294 208
f 287 207 295
f 285 294 286
f 288 287 294
f 287 295 294
f 275 289 277
f 277 289 291
f 284 290 289
f 286 294 290
f 289 290 292
f 289 292 291
f 278 291 297
f 291 292 297
f 278 297 293
f 290 294 296
f 290 296 292
f 294 295 296
f 292 296 298
f 292 298 297
f 296 295 302
f 296 302 298
f 301 307 56
f 58 307 314
f 314 317 67
f 317 318 75
f 75 318 319
f 319 335 74
f 293 297 300
f 297 298 300
f 293 300 299
f 298 305 300
f 299 300 308
f 299 308 301
f 336 339 85
f 87 335 336
f 341 343 96
f 343 431 99
f 100 339 341
f 295 232 303
f 309 238 310
f 310 212 312
f 295 303 302
f 246 309 303
f 298 302 305
f 302 303 306
f 304 312 213
f 304 323 312
f 304 331 325
f 302 306 305
f 300 305 308
f 303 309 306
f 305 306 313
f 305 313 308
f 301 308 307
f 308 315 307
f 308 313 315
f 306 309 310
f 306 310 311
f 306 311 313
f 310 312 311
f 313 311 316
f 307 315 314
f 314 315 320
f 313 316 315
f 315 316 320
f 311 322 316
f 311 312 322
f 316 322 326
f 314 320 317
f 317 320 318
f 316 326 320
f 318 321 319
f 320 321 318
f 319 321 337
f 320 326 321
f 326 328 321
f 321 328 337
f 304 324 323
f 304 325 324
f 312 323 322
f 322 327 326
f 322 323 324
f 322 324 327
f 324 325 327
f 326 327 328
f 330 346 328
f 327 325 330
f 327 330 328
f 325 329 330
f 330 329 345
f 331 259 332
f 329 331 332
f 351 332 333
f 260 332 259
f 332 334 333
f 332 427 334
f 332 428 427
f 319 337 335
f 335 337 336
f 337 338 336
f 337 346 338
f 336 338 339
f 338 340 339
f 339 342 341
f 341 342 343
f 339 340 342
f 342 344 343
f 343 344 433
f 325 331 329
f 329 332 351
f 351 333 352
f 328 346 337
f 330 345 346
f 329 351 345
f 338 346 347
f 346 345 347
f 345 351 349
f 345 349 347
f 338 347 340
f 347 348 340
f 347 349 348
f 352 350 349
f 349 350 348
f 351 352 349
f 352 353 350
f 352 333 334
f 352 334 353
f 353 334 358
f 340 348 354
f 340 354 342
f 348 350 355
f 348 355 354
f 350 358 355
f 342 356 344
f 342 354 356
f 344 356 443
f 354 357 356
f 354 355 357
f 355 359 357
f 356 357 444
f 350 353 358
f 358 334 359
f 334 449 359
f 358 359 355
f 359 449 357
f 261 363 364
f 261 364 365
f 375 365 366
f 375 366 367
f 375 367 368
f 375 368 369
f 375 369 372
f 375 372 373
f 375 373 374
f 370 376 374
f 376 370 371
f 376 371 380
f 429 380 381
f 429 381 382
f 429 382 383
f 261 365 375
f 375 374 376
f 376 380 429
f 429 391 430
f 384 389 386
f 384 387 389
f 387 388 389
f 429 383 385
f 429 385 386
f 429 386 389
f 395 394 397
f 396 394 395
f 470 399 397
f 469 393 398
f 470 398 399
f 469 392 393
f 482 406 392
f 429 389 391
f 430 391 400
f 406 407 408
f 482 403 407
f 482 407 406
f 485 404 403
f 485 405 404
f 488 400 401
f 488 401 402
f 486 402 405
f 431 432 124
f 432 434 128
f 434 436 130
f 436 437 130
f 439 473 143
f 438 439 140
f 144 437 438
f 422 410 409
f 422 412 410
f 422 416 412
f 422 413 416
f 422 414 413
f 418 415 419
f 424 415 414
f 424 419 415
f 465 420 419
f 465 419 424
f 422 464 414
f 422 423 464
f 424 414 464
f 425 467 423
f 423 467 464
f 475 471 174
f 473 474 178
f 474 475 181
f 191 426 425
f 478 426 190
f 478 184 471
f 425 426 479
f 332 375 376
f 332 376 429
f 332 430 428
f 332 429 430
f 430 459 428
f 343 433 431
f 431 433 432
f 433 435 432
f 432 435 434
f 434 435 436
f 435 441 436
f 436 440 437
f 436 441 440
f 437 440 438
f 440 454 438
f 441 452 440
f 441 453 452
f 440 452 454
f 438 454 439
f 439 442 473
f 454 442 439
f 334 427 449
f 427 428 462
f 427 451 450
f 427 462 451
f 344 443 433
f 433 443 445
f 433 445 435
f 356 444 443
f 357 449 444
f 443 444 445
f 444 447 445
f 444 450 447
f 435 445 446
f 435 446 441
f 445 447 448
f 447 451 448
f 445 448 446
f 427 450 449
f 449 450 444
f 450 451 447
f 428 459 462
f 430 491 459
f 430 484 491
f 441 446 453
f 446 455 453
f 453 455 454
f 455 458 454
f 452 453 454
f 455 456 458
f 448 457 456
f 448 451 457
f 456 457 458
f 446 456 455
f 446 448 456
f 458 457 462
f 458 462 459
f 442 460 490
f 458 459 460
f 459 491 460
f 454 460 442
f 458 460 454
f 451 461 457
f 451 462 461
f 461 462 457
f 465 463 421
f 466 397 394
f 465 394 463
f 465 421 420
f 465 466 394
f 469 482 392
f 470 397 466
f 469 398 470
f 425 479 467
f 479 468 467
f 465 424 464
f 465 464 466
f 467 466 464
f 467 468 466
f 469 470 468
f 479 481 468
f 469 468 481
f 469 481 482
f 470 466 468
f 430 400 484
f 484 400 488
f 488 402 486
f 482 485 403
f 486 405 485
f 478 471 472
f 477 472 471
f 477 487 472
f 483 472 487
f 483 487 485
f 475 477 471
f 473 476 474
f 476 477 475
f 474 476 475
f 442 476 473
f 476 489 477
f 478 480 426
f 426 480 479
f 478 472 480
f 483 481 480
f 479 480 481
f 483 482 481
f 483 485 482
f 483 480 472
f 484 488 489
f 488 486 487
f 477 489 487
f 488 487 489
f 486 485 487
f 442 490 476
f 476 490 489
f 490 491 484
f 460 491 490
f 490 484 489

