# https://github.com/mikedh/trimesh
v -0.00431937 -0.00641153 -0.03812081
v -0.00437706 -0.00610729 -0.03851882
v -0.00403947 -0.00641153 -0.03824751
v -0.00442403 -0.00585959 -0.03879514
v -0.00431185 -0.00589488 -0.03884444
v -0.00447214 -0.00560588 -0.03891481
v -0.00454194 -0.00523778 -0.03906281
v -0.00454194 -0.00466747 -0.03938031
v -0.00269435 -0.00545135 -0.03973518
v -0.00420793 -0.00410769 -0.03996436
v -0.00454194 -0.00406264 -0.03971019
v -0.00454194 -0.00375347 -0.03987449
v -0.00454194 -0.00321651 -0.04015172
v -0.00418998 -0.00324287 -0.04042552
v -0.00343836 -0.00444415 -0.04020283
v -0.00269515 -0.00463117 -0.04038749
v -0.00343836 -0.00362820 -0.04067091
v -0.00343836 -0.00294741 -0.04096834
v -0.00269512 -0.00372708 -0.04091690
v -0.00185076 -0.00556055 -0.03988151
v -0.00207702 -0.00641153 -0.03887945
v -0.00185047 -0.00641153 -0.03895036
v -0.00185042 -0.00629461 -0.03910736
v -0.00185132 -0.00472198 -0.04055295
v -0.00094421 -0.00562400 -0.03996853
v -0.00101927 -0.00641153 -0.03910561
v -0.00094404 -0.00636502 -0.03918210
v -0.00094405 -0.00641153 -0.03911896
v -0.00094442 -0.00477412 -0.04065058
v -0.00185068 -0.00379558 -0.04109595
v -0.00094378 -0.00383414 -0.04120062
v -0.00431937 -0.00641153 -0.02283682
v -0.00431937 -0.00641015 -0.02282350
v -0.00431856 -0.00641153 -0.02282350
v -0.00454194 -0.00523778 -0.02312996
v -0.00454194 -0.00280007 -0.04031510
v -0.00454194 -0.00227233 -0.04051076
v -0.00417109 -0.00228700 -0.04079465
v -0.00269369 -0.00276295 -0.04132030
v -0.00343836 -0.00172276 -0.04134712
v -0.00343836 -0.00131088 -0.04143891
v -0.00269161 -0.00176442 -0.04161207
v -0.00250000 -0.00130749 -0.04176483
v -0.00454194 -0.00061263 -0.04088718
v -0.00454194 -0.00014673 -0.04098304
v -0.00454194 0.00003511 -0.04100399
v -0.00403855 -0.00014961 -0.04132447
v -0.00405456 0.00008201 -0.04134028
v -0.00403183 0.00008420 -0.04135235
v -0.00386840 0.00008844 -0.04143792
v -0.00378502 0.00009004 -0.04148152
v -0.00369725 0.00009131 -0.04152737
v -0.00268948 -0.00075165 -0.04181168
v -0.00343836 -0.00015321 -0.04162935
v -0.00350822 0.00009444 -0.04162390
v -0.00343836 0.00009481 -0.04165949
v -0.00318004 0.00010400 -0.04175234
v -0.00296413 0.00011155 -0.04182993
v -0.00275625 0.00011868 -0.04190345
v -0.00283859 0.00011608 -0.04187436
v -0.00268779 0.00012048 -0.04192759
v -0.00253459 0.00012694 -0.04197143
v -0.00250888 0.00012747 -0.04197871
v -0.00249051 0.00012823 -0.04198273
v -0.00184822 -0.00280866 -0.04150639
v -0.00216095 -0.00134556 -0.04183707
v -0.00184502 -0.00179041 -0.04180083
v -0.00094194 -0.00283360 -0.04161421
v -0.00125367 -0.00140232 -0.04196755
v -0.00093963 -0.00180374 -0.04190949
v -0.00246748 0.00012963 -0.04198641
v -0.00211442 0.00015190 -0.04204018
v -0.00144924 0.00018420 -0.04214024
v -0.00136501 0.00019031 -0.04214829
v -0.00115670 0.00020204 -0.04216779
v -0.00087794 0.00002330 -0.04217063
v -0.00454194 0.00003511 -0.02312805
v -0.00000000 -0.00564481 -0.03999744
v -0.00021749 -0.00641153 -0.03916219
v -0.00003174 -0.00640863 -0.03917718
v -0.00000000 -0.00640813 -0.03917963
v -0.00000000 -0.00638812 -0.03920690
v 0.00003024 -0.00640766 -0.03917858
v -0.00000000 -0.00479112 -0.04068289
v 0.00094421 -0.00562400 -0.03996853
v 0.00094405 -0.00636502 -0.03918210
v 0.00094405 -0.00639338 -0.03914360
v 0.00098878 -0.00639268 -0.03913661
v 0.00094442 -0.00477412 -0.04065058
v -0.00000000 -0.00384657 -0.04123507
v 0.00094378 -0.00383414 -0.04120062
v 0.00185077 -0.00556055 -0.03988151
v 0.00185046 -0.00637922 -0.03899374
v 0.00185042 -0.00629460 -0.03910736
v 0.00200958 -0.00637673 -0.03894728
v 0.00185132 -0.00472198 -0.04055295
v 0.00286387 -0.00636338 -0.03867824
v 0.00269393 -0.00617360 -0.03898183
v 0.00366664 -0.00635084 -0.03841578
v 0.00366664 -0.00628037 -0.03850660
v 0.00366664 -0.00595653 -0.03884445
v 0.00366664 -0.00553926 -0.03922090
v 0.00343836 -0.00502973 -0.03977112
v 0.00269435 -0.00545135 -0.03973518
v 0.00366664 -0.00532949 -0.03940116
v 0.00343836 -0.00530010 -0.03953878
v 0.00366664 -0.00498574 -0.03966638
v 0.00185068 -0.00379558 -0.04109595
v 0.00269514 -0.00463117 -0.04038749
v 0.00343836 -0.00450340 -0.04016314
v 0.00366664 -0.00460644 -0.03994889
v 0.00366664 -0.00438558 -0.04010457
v 0.00343836 -0.00389733 -0.04053161
v 0.00366664 -0.00396020 -0.04036319
v 0.00269512 -0.00372708 -0.04091690
v 0.00343836 -0.00362820 -0.04067091
v 0.00366664 -0.00369771 -0.04049991
v 0.00366664 -0.00351070 -0.04059670
v -0.00021749 -0.00641153 -0.02292057
v 0.00366664 -0.00635084 -0.02274926
v -0.00000000 -0.00284150 -0.04164956
v -0.00000000 -0.00180781 -0.04194496
v -0.00027770 -0.00142296 -0.04202548
v 0.00049933 -0.00142077 -0.04201899
v 0.00094194 -0.00283360 -0.04161421
v 0.00093963 -0.00180374 -0.04190949
v -0.00036737 -0.00019042 -0.04217535
v -0.00003231 -0.00019029 -0.04217784
v 0.00041291 -0.00013492 -0.04218090
v 0.00092332 0.00015525 -0.04218341
v 0.00137150 0.00047789 -0.04218533
v 0.00139888 0.00048213 -0.04218347
v 0.00184823 -0.00280866 -0.04150639
v 0.00184501 -0.00179041 -0.04180083
v 0.00161513 -0.00138562 -0.04192547
v 0.00250000 -0.00130749 -0.04176483
v 0.00269369 -0.00276295 -0.04132030
v 0.00366664 -0.00264436 -0.04094026
v 0.00343836 -0.00238143 -0.04116533
v 0.00366664 -0.00235192 -0.04104997
v 0.00269162 -0.00176442 -0.04161207
v 0.00366664 -0.00189932 -0.04117489
v 0.00343836 -0.00172276 -0.04134712
v 0.00167878 0.00063371 -0.04165465
v 0.00176480 0.00054865 -0.04214236
v 0.00189305 0.00057291 -0.04212639
v 0.00198223 0.00058808 -0.04211508
v 0.00201541 0.00059320 -0.04211080
v 0.00204247 0.00059700 -0.04210727
v 0.00205255 0.00059839 -0.04210595
v 0.00208689 0.00060302 -0.04210144
v 0.00211397 0.00060667 -0.04209789
v 0.00250000 0.00017067 -0.04198692
v 0.00213819 0.00060979 -0.04209469
v 0.00226892 0.00062631 -0.04207740
v 0.00232465 0.00063371 -0.04206782
v 0.00238997 0.00063371 -0.04205569
v 0.00250000 0.00063371 -0.04203045
v 0.00262916 0.00063371 -0.04199673
v 0.00268949 -0.00075165 -0.04181168
v 0.00366664 -0.00112214 -0.04133900
v 0.00366664 -0.00072348 -0.04141716
v 0.00343836 -0.00063653 -0.04156009
v 0.00355283 -0.00054331 -0.04151525
v 0.00343836 -0.00036210 -0.04158872
v 0.00346953 -0.00041145 -0.04156909
v 0.00268751 0.00026598 -0.04194693
v 0.00270568 0.00063371 -0.04197370
v 0.00282675 0.00060610 -0.04192812
v 0.00280931 0.00063371 -0.04193683
v 0.00167878 0.00063371 -0.02327843
v 0.00366664 -0.00072348 -0.02305191
v 0.00280931 0.00063371 -0.02326701
f 32 1 3
f 35 2 1
f 35 4 2
f 35 6 4
f 35 7 6
f 34 3 21
f 34 21 22
f 77 8 7
f 77 11 8
f 34 26 28
f 34 22 26
f 34 28 79
f 32 35 1
f 32 3 34
f 32 34 33
f 32 33 35
f 35 77 7
f 33 77 35
f 34 79 119
f 33 34 120
f 33 120 77
f 77 12 11
f 77 13 12
f 77 36 13
f 77 37 36
f 44 46 45
f 77 44 37
f 77 46 44
f 77 48 46
f 77 49 48
f 144 50 49
f 144 51 50
f 51 154 52
f 154 55 52
f 55 152 56
f 152 57 56
f 57 151 58
f 60 58 151
f 60 150 59
f 59 149 61
f 149 62 61
f 62 148 63
f 148 64 63
f 148 71 64
f 148 72 71
f 72 147 73
f 77 144 49
f 119 79 80
f 120 80 81
f 120 81 83
f 120 83 87
f 99 100 101
f 120 87 88
f 120 88 93
f 120 93 95
f 120 95 97
f 120 97 99
f 120 99 101
f 120 102 105
f 120 105 107
f 120 101 102
f 120 107 111
f 120 111 112
f 120 112 114
f 120 114 117
f 120 138 140
f 120 117 118
f 120 118 138
f 120 140 142
f 120 142 161
f 119 80 120
f 34 119 120
f 76 128 127
f 76 129 128
f 75 74 132
f 75 131 76
f 74 73 146
f 144 154 51
f 76 130 129
f 154 152 55
f 131 130 76
f 75 132 131
f 152 151 57
f 150 149 59
f 60 151 150
f 149 148 62
f 74 145 132
f 148 147 72
f 74 146 145
f 147 146 73
f 120 161 162
f 144 155 154
f 144 156 155
f 144 173 156
f 173 157 156
f 173 158 157
f 172 166 165
f 172 162 164
f 172 164 166
f 172 169 170
f 173 159 158
f 173 168 159
f 173 170 168
f 172 165 169
f 77 120 172
f 77 171 144
f 77 173 171
f 77 172 173
f 120 162 172
f 144 171 173
f 172 170 173
f 3 1 2
f 5 3 2
f 5 2 4
f 5 4 6
f 5 6 10
f 10 6 7
f 10 7 8
f 5 10 15
f 5 21 3
f 5 23 21
f 5 9 20
f 5 20 23
f 5 15 16
f 5 16 9
f 10 11 12
f 10 17 15
f 10 8 11
f 10 12 14
f 14 12 13
f 14 13 36
f 10 14 17
f 14 18 17
f 15 17 19
f 15 19 16
f 17 18 19
f 18 39 19
f 23 22 21
f 23 26 22
f 20 25 23
f 9 24 20
f 9 16 24
f 20 24 29
f 23 27 26
f 23 25 27
f 27 28 26
f 27 79 28
f 25 78 27
f 20 29 25
f 25 29 84
f 16 30 24
f 16 19 30
f 24 30 29
f 19 39 30
f 39 65 30
f 30 65 31
f 30 31 29
f 29 31 84
f 65 68 31
f 31 68 90
f 14 36 38
f 38 36 37
f 14 38 18
f 38 40 18
f 38 37 44
f 38 41 40
f 38 47 41
f 18 40 39
f 39 40 42
f 40 41 42
f 41 53 42
f 42 53 43
f 38 44 47
f 47 44 45
f 41 47 54
f 47 45 46
f 47 46 48
f 47 48 49
f 47 49 50
f 47 51 52
f 47 50 51
f 47 52 54
f 54 52 55
f 41 54 53
f 54 58 53
f 54 55 56
f 54 56 57
f 54 57 58
f 53 58 60
f 53 60 59
f 53 61 63
f 53 59 61
f 53 63 64
f 62 63 61
f 39 42 65
f 42 67 65
f 65 67 68
f 42 66 67
f 42 43 66
f 43 53 66
f 66 69 67
f 68 67 70
f 68 70 121
f 67 69 70
f 69 123 70
f 66 53 64
f 66 64 71
f 66 71 69
f 69 71 73
f 72 73 71
f 69 73 74
f 69 74 75
f 69 75 76
f 69 127 123
f 69 76 127
f 27 80 79
f 27 82 80
f 78 82 27
f 82 81 80
f 82 83 81
f 82 86 83
f 78 86 82
f 25 84 78
f 78 84 85
f 86 87 83
f 86 88 87
f 78 85 86
f 86 94 88
f 85 94 86
f 94 93 88
f 85 92 94
f 84 89 85
f 85 89 92
f 92 89 96
f 31 90 84
f 84 90 91
f 90 68 121
f 90 121 125
f 84 91 89
f 89 108 96
f 89 91 108
f 90 125 91
f 91 133 108
f 91 125 133
f 94 95 93
f 94 98 95
f 92 98 94
f 98 97 95
f 92 104 98
f 92 96 104
f 104 96 109
f 98 100 97
f 104 101 98
f 98 101 100
f 99 97 100
f 104 102 101
f 104 109 103
f 109 110 103
f 103 111 107
f 103 110 111
f 104 106 102
f 104 103 106
f 106 105 102
f 106 103 105
f 103 107 105
f 96 108 109
f 108 115 109
f 108 137 115
f 108 133 137
f 109 115 113
f 109 113 110
f 110 112 111
f 110 114 112
f 110 113 114
f 113 117 114
f 115 137 116
f 115 116 113
f 113 116 117
f 116 118 117
f 137 139 116
f 116 138 118
f 121 70 122
f 121 122 126
f 70 123 122
f 122 123 124
f 122 124 126
f 121 126 125
f 125 134 133
f 125 126 134
f 124 135 126
f 126 135 134
f 123 128 124
f 123 127 128
f 124 128 129
f 124 130 135
f 124 129 130
f 135 130 132
f 135 132 145
f 131 132 130
f 133 134 141
f 133 141 137
f 135 136 134
f 134 136 141
f 135 160 136
f 141 136 160
f 137 141 139
f 139 140 138
f 116 139 138
f 139 142 140
f 141 160 143
f 141 143 139
f 139 143 142
f 143 161 142
f 143 163 161
f 135 153 160
f 135 145 146
f 135 146 147
f 135 147 148
f 135 148 149
f 135 149 150
f 135 150 153
f 160 153 167
f 153 150 151
f 153 151 152
f 153 152 154
f 153 154 155
f 156 157 155
f 153 158 167
f 153 155 157
f 153 157 158
f 167 158 159
f 160 167 163
f 160 163 143
f 163 162 161
f 163 165 166
f 163 166 164
f 163 164 162
f 167 169 165
f 167 159 168
f 167 168 170
f 167 170 169
f 167 165 163

