# https://github.com/mikedh/trimesh
v -0.00319093 0.00523916 -0.01546914
v -0.00319093 0.00536311 -0.01572599
v -0.00319093 0.00512272 -0.01496513
v -0.00319093 0.00631174 -0.01678024
v -0.00268615 0.00631200 -0.01678081
v -0.00319093 0.00512272 -0.01244452
v -0.00319093 0.00523244 -0.01193938
v -0.00319093 0.00535638 -0.01167624
v -0.00319093 0.00541616 -0.01167681
v -0.00319093 0.00566794 -0.01173332
v -0.00319093 0.00612750 -0.01184691
v -0.00319093 0.00663080 -0.01683218
v -0.00319093 0.00713513 -0.01683218
v -0.00319093 0.00746169 -0.01678138
v -0.00319093 0.00760686 -0.01647829
v -0.00319093 0.00767673 -0.01597429
v -0.00319093 0.00663106 -0.01198104
v -0.00319093 0.00709942 -0.01211975
v -0.00319093 0.00767673 -0.01345368
v -0.00319093 0.00753001 -0.01246279
v -0.00319093 0.00767440 -0.01294910
v -0.00319093 0.00735120 -0.01221107
v 0.00366657 0.00523865 -0.01546971
v 0.00366657 0.00528885 -0.01557359
v 0.00366657 0.00536311 -0.01572713
v 0.00366657 0.00516878 -0.01516890
v 0.00366657 0.00512168 -0.01496513
v 0.00293961 0.00631200 -0.01678138
v 0.00366657 0.00631200 -0.01678138
v 0.00366657 0.00512168 -0.01244395
v 0.00366657 0.00513721 -0.01214258
v 0.00366657 0.00519466 -0.01163914
v 0.00366657 0.00532947 -0.01108433
v 0.00366657 0.00541590 -0.01103753
v 0.00366657 0.00562265 -0.01100328
v 0.00366657 0.00576678 -0.01100271
v 0.00366657 0.00612750 -0.01100214
v 0.00366657 0.00626930 -0.01100214
v 0.00293961 0.00658163 -0.01682476
v 0.00366657 0.00663106 -0.01683275
v 0.00366657 0.00713565 -0.01683332
v 0.00366657 0.00754760 -0.01677682
v 0.00366657 0.00770571 -0.01647829
v 0.00366657 0.00772874 -0.01631790
v 0.00366657 0.00776496 -0.01597372
v 0.00366657 0.00776522 -0.01546971
v 0.00366657 0.00776522 -0.01345254
v 0.00366657 0.00776186 -0.01294853
v 0.00366657 0.00713565 -0.01100442
v 0.00366657 0.00770752 -0.01243425
v 0.00366657 0.00746350 -0.01107691
v 0.00366657 0.00751888 -0.01123160
f 1 3 12
f 1 12 2
f 3 6 12
f 2 4 5
f 2 12 4
f 4 12 5
f 1 2 23
f 2 5 25
f 1 27 3
f 5 12 28
f 6 7 12
f 7 8 12
f 8 9 12
f 9 10 12
f 10 11 12
f 3 30 6
f 6 32 7
f 7 33 8
f 8 49 9
f 9 51 10
f 10 51 11
f 12 14 13
f 12 15 14
f 12 16 15
f 12 19 16
f 12 21 19
f 12 20 21
f 12 13 41
f 13 14 42
f 14 15 43
f 15 16 44
f 16 19 47
f 11 17 12
f 12 17 18
f 12 18 22
f 12 22 20
f 11 51 17
f 17 51 18
f 19 21 47
f 18 51 22
f 20 52 21
f 20 22 51
f 2 24 23
f 2 25 24
f 1 26 27
f 1 23 26
f 3 27 30
f 5 28 25
f 25 28 29
f 23 41 26
f 23 24 41
f 24 25 41
f 26 41 27
f 25 29 41
f 28 40 29
f 27 41 30
f 6 30 31
f 6 31 32
f 7 32 33
f 8 33 34
f 8 34 35
f 8 35 36
f 8 36 37
f 8 37 38
f 8 38 49
f 30 41 31
f 31 41 32
f 32 41 33
f 33 41 34
f 34 41 35
f 35 41 36
f 36 41 37
f 12 39 28
f 12 40 39
f 12 41 40
f 13 42 41
f 14 43 42
f 15 44 43
f 16 45 44
f 16 46 45
f 16 47 46
f 28 39 40
f 29 40 41
f 41 42 43
f 41 43 44
f 41 44 45
f 41 45 46
f 41 46 47
f 41 47 48
f 41 48 50
f 9 49 51
f 21 48 47
f 21 50 48
f 21 52 50
f 20 51 52
f 37 41 38
f 38 41 49
f 41 51 49
f 41 52 51
f 41 50 52

