# https://github.com/mikedh/trimesh
v 0.00366681 -0.00719657 -0.03730820
v 0.00366681 -0.00719110 -0.03731937
v 0.00366681 -0.00716041 -0.03737227
v 0.00366681 -0.00734557 -0.03700438
v 0.00366681 -0.00738883 -0.03690876
v 0.00366682 -0.00854379 -0.03353327
v 0.00366682 -0.00841802 -0.03402745
v 0.00366682 -0.00852466 -0.03361053
v 0.00366682 -0.00867094 -0.03301979
v 0.00366682 -0.00868341 -0.03296945
v 0.00366682 -0.00875619 -0.03259852
v 0.00366682 -0.00880234 -0.03235807
v 0.00366682 -0.00881789 -0.03227704
v 0.00366682 -0.00886480 -0.03203194
v 0.00366682 -0.00884089 -0.03215723
v 0.00366682 -0.00894187 -0.03162822
v 0.00366682 -0.00874212 -0.03267185
v 0.00366682 -0.00796477 -0.03550112
v 0.00366682 -0.00774341 -0.03612502
v 0.00366682 -0.00782003 -0.03591841
v 0.00366682 -0.00782532 -0.03590415
v 0.00366682 -0.00813430 -0.03501114
v 0.00366682 -0.00820760 -0.03479929
v 0.00366682 -0.00825749 -0.03465508
v 0.00366682 -0.00830902 -0.03445363
v 0.00379783 -0.00773007 -0.03610317
v 0.00366675 -0.00555058 -0.03921064
v 0.00366675 -0.00553938 -0.03922074
v 0.00366675 -0.00553313 -0.03922611
v 0.00366675 -0.00550502 -0.03925027
v 0.00366675 -0.00547344 -0.03927741
v 0.00366675 -0.00544432 -0.03930243
v 0.00366675 -0.00541969 -0.03932360
v 0.00366675 -0.00534626 -0.03938670
v 0.00366674 -0.00531681 -0.03941088
v 0.00366674 -0.00532676 -0.03940320
v 0.00366674 -0.00532963 -0.03940099
v 0.00366675 -0.00539027 -0.03934888
v 0.00366675 -0.00540030 -0.03934026
v 0.00366675 -0.00537802 -0.03935940
v 0.00366675 -0.00538709 -0.03935161
v 0.00366674 -0.00510141 -0.03957707
v 0.00366674 -0.00529710 -0.03942608
v 0.00366674 -0.00530503 -0.03941996
v 0.00366674 -0.00530114 -0.03942297
v 0.00366674 -0.00525478 -0.03945874
v 0.00366674 -0.00523782 -0.03947182
v 0.00366674 -0.00523954 -0.03947050
v 0.00366674 -0.00523276 -0.03947573
v 0.00366674 -0.00498572 -0.03966634
v 0.00366678 -0.00628039 -0.03850654
v 0.00366677 -0.00605907 -0.03873743
v 0.00366677 -0.00595660 -0.03884434
v 0.00366676 -0.00586878 -0.03892357
v 0.00366676 -0.00566403 -0.03910828
v 0.00366675 -0.00560246 -0.03916383
v 0.00366674 -0.00460648 -0.03994880
v 0.00366674 -0.00438552 -0.04010454
v 0.00366674 -0.00369762 -0.04049990
v 0.00366674 -0.00351065 -0.04059667
v 0.00366674 -0.00396022 -0.04036311
v 0.00397420 -0.00817124 -0.03472541
v 0.00412780 -0.00852253 -0.03321860
v 0.00366682 -0.00921670 -0.02981833
v 0.00366682 -0.00929567 -0.02927516
v 0.00366682 -0.00930887 -0.02918079
v 0.00366682 -0.00902914 -0.03110834
v 0.00366682 -0.00904099 -0.03102680
v 0.00366682 -0.00914842 -0.03028792
v 0.00366682 -0.00939227 -0.02858454
v 0.00366682 -0.00934097 -0.02895129
v 0.00366682 -0.00937625 -0.02869907
v 0.00366682 -0.00942272 -0.02834037
v 0.00366682 -0.00950367 -0.02758675
v 0.00366682 -0.00957235 -0.02687610
v 0.00379908 -0.00939747 -0.02832905
v 0.00366682 -0.00970141 -0.02548555
v 0.00366682 -0.00986474 -0.02372583
v 0.00366682 -0.00988621 -0.02349448
v 0.00366682 -0.00989347 -0.02341627
v 0.00366682 -0.00994238 -0.02280416
v 0.00366682 -0.01000080 -0.02207315
v 0.00366683 -0.01003035 -0.02156636
v 0.00366683 -0.01003352 -0.02151196
v 0.00366683 -0.01003538 -0.02147994
v 0.00366683 -0.00693911 -0.02147994
v 0.00386862 -0.00998514 -0.02147994
v 0.00366674 -0.00510141 -0.02305505
v 0.00397270 -0.00995350 -0.02147994
v 0.00398975 -0.00992037 -0.02207360
v 0.00366674 -0.00264448 -0.04094016
v 0.00366674 -0.00235190 -0.04104992
v 0.00366674 -0.00189940 -0.04117481
v 0.00366674 -0.00112188 -0.04133900
v 0.00366674 -0.00045054 -0.04147062
v 0.00366674 0.00101231 -0.04162599
v 0.00366674 0.00210004 -0.04173945
v 0.00366674 0.00321275 -0.04173937
v 0.00366674 0.00371489 -0.04173425
v 0.00381741 0.00210007 -0.04166947
v 0.00403628 -0.00014960 -0.04132584
v 0.00414724 0.00210003 -0.04148713
v 0.00413809 0.00371489 -0.04148004
v 0.00366674 0.00108195 -0.02303896
v 0.00366674 0.00340586 -0.02303292
v 0.00366674 0.00371489 -0.02303292
v 0.00425537 -0.00879555 -0.03162054
v 0.00420406 -0.00410819 -0.03996668
v 0.00418649 -0.00324313 -0.04042772
v 0.00425555 -0.00487225 -0.03939620
v 0.00464358 -0.00685901 -0.03712256
v 0.00464358 -0.00684786 -0.03714530
v 0.00464358 -0.00680366 -0.03722150
v 0.00464358 -0.00846725 -0.03220910
v 0.00464358 -0.00750372 -0.03564987
v 0.00464358 -0.00785040 -0.03467264
v 0.00464358 -0.00736981 -0.03600170
v 0.00464358 -0.00804690 -0.03398139
v 0.00464358 -0.00825839 -0.03319141
v 0.00445684 -0.00636711 -0.03812055
v 0.00464358 -0.00624753 -0.03805760
v 0.00464358 -0.00525395 -0.03879665
v 0.00464358 -0.00503797 -0.03895255
v 0.00464358 -0.00456212 -0.03928062
v 0.00464358 -0.00404891 -0.03963276
v 0.00464358 -0.00364258 -0.03984868
v 0.00464358 -0.00320889 -0.04007263
v 0.00444553 -0.00918360 -0.02832053
v 0.00464358 -0.00859011 -0.03160601
v 0.00464358 -0.00884207 -0.03003575
v 0.00464358 -0.00909090 -0.02831652
v 0.00456292 -0.00973847 -0.02147994
v 0.00464358 -0.00966581 -0.02225138
v 0.00464358 -0.00968228 -0.02207106
v 0.00464358 -0.00968411 -0.02203085
v 0.00464358 -0.00970885 -0.02147994
v 0.00464358 -0.00574968 -0.02147994
v 0.00416801 -0.00228710 -0.04079662
v 0.00421397 0.00210001 -0.04144660
v 0.00421805 0.00371489 -0.04143584
v 0.00423423 0.00371489 -0.04142601
v 0.00428069 0.00371489 -0.04139600
v 0.00464358 -0.00266877 -0.04028453
v 0.00464358 -0.00226830 -0.04043302
v 0.00464344 -0.00014614 -0.04091439
v 0.00464358 -0.00014700 -0.04091409
v 0.00464358 -0.00014614 -0.04091429
v 0.00464358 -0.00014467 -0.04091444
v 0.00440562 0.00210032 -0.04132280
v 0.00453472 0.00371489 -0.04121978
v 0.00458999 0.00210091 -0.04119263
v 0.00464358 0.00210075 -0.04115047
v 0.00458279 0.00371489 -0.04118584
v 0.00464358 0.00371489 -0.04113801
v 0.00464358 0.00371489 -0.02182997
f 20 55 19
f 20 21 55
f 18 56 21
f 1 51 2
f 51 3 2
f 5 19 55
f 5 54 4
f 54 1 4
f 32 7 8
f 6 32 8
f 9 10 39
f 6 9 33
f 39 10 17
f 11 39 17
f 40 13 15
f 14 40 15
f 14 16 34
f 11 12 38
f 12 13 41
f 25 30 24
f 23 24 30
f 23 29 22
f 18 22 27
f 25 7 31
f 64 44 35
f 66 45 44
f 71 43 45
f 72 46 43
f 46 77 48
f 47 48 78
f 47 79 49
f 64 35 69
f 68 34 67
f 34 16 67
f 68 69 36
f 64 65 44
f 66 44 65
f 71 72 43
f 72 70 46
f 66 71 45
f 46 70 73
f 46 73 74
f 1 53 52
f 1 52 51
f 54 53 1
f 5 55 54
f 55 21 56
f 18 27 56
f 29 28 22
f 22 28 27
f 23 30 29
f 25 31 30
f 32 31 7
f 6 33 32
f 9 39 33
f 11 38 39
f 12 41 38
f 40 41 13
f 14 34 40
f 68 37 34
f 68 36 37
f 35 36 69
f 88 42 49
f 47 78 79
f 79 80 49
f 49 80 81
f 46 74 75
f 46 75 77
f 77 78 48
f 88 49 81
f 88 81 82
f 88 82 83
f 88 83 84
f 86 85 87
f 105 84 85
f 88 84 104
f 86 106 85
f 86 87 137
f 105 57 50
f 105 58 57
f 105 61 58
f 105 50 42
f 105 59 61
f 105 60 59
f 105 91 60
f 105 92 91
f 105 93 92
f 105 94 93
f 105 95 94
f 105 96 95
f 105 97 96
f 105 98 97
f 106 99 98
f 155 103 99
f 88 105 42
f 104 84 105
f 105 85 106
f 88 104 105
f 105 106 98
f 86 155 106
f 106 155 99
f 137 113 121
f 137 112 113
f 137 111 112
f 137 121 122
f 137 122 123
f 137 123 124
f 137 125 126
f 137 124 125
f 137 126 127
f 137 127 143
f 137 143 144
f 137 87 89
f 137 89 132
f 137 116 115
f 137 115 117
f 137 117 111
f 137 118 116
f 137 119 118
f 137 114 119
f 137 129 114
f 137 131 130
f 137 130 129
f 137 132 136
f 137 135 134
f 137 134 133
f 137 136 135
f 137 133 131
f 155 140 103
f 155 141 140
f 155 142 141
f 146 147 148
f 137 144 146
f 137 146 148
f 137 148 152
f 137 152 154
f 155 150 142
f 155 153 150
f 155 154 153
f 86 137 155
f 137 154 155
f 26 20 19
f 26 19 5
f 26 5 4
f 20 26 21
f 26 18 21
f 62 23 22
f 62 22 18
f 62 24 23
f 62 25 24
f 62 7 25
f 63 8 7
f 63 9 6
f 63 17 10
f 63 10 9
f 63 6 8
f 63 12 11
f 63 11 17
f 63 13 12
f 63 15 13
f 107 14 15
f 107 16 14
f 62 18 26
f 110 42 50
f 110 49 42
f 108 58 61
f 109 59 60
f 108 61 59
f 110 50 57
f 110 57 58
f 120 3 51
f 1 112 4
f 1 2 112
f 2 3 113
f 26 4 111
f 62 63 7
f 63 107 15
f 62 26 115
f 52 120 51
f 120 53 54
f 120 54 55
f 120 31 32
f 120 32 33
f 120 55 56
f 120 56 27
f 120 27 28
f 120 28 29
f 120 29 30
f 120 30 31
f 120 52 53
f 120 38 41
f 120 39 38
f 120 33 39
f 120 41 40
f 120 40 34
f 120 37 36
f 120 35 44
f 120 36 35
f 120 45 43
f 120 44 45
f 120 43 46
f 120 34 37
f 120 46 48
f 120 47 49
f 120 48 47
f 108 59 109
f 110 120 49
f 110 58 108
f 76 65 64
f 76 66 65
f 66 76 71
f 76 72 71
f 76 70 72
f 76 73 70
f 76 74 73
f 76 75 74
f 107 69 68
f 107 67 16
f 107 68 67
f 107 64 69
f 107 76 64
f 90 77 75
f 77 90 78
f 79 78 90
f 79 90 80
f 90 81 80
f 90 82 81
f 90 83 82
f 90 85 84
f 90 84 83
f 76 90 75
f 90 87 85
f 90 89 87
f 76 128 90
f 109 60 91
f 138 91 92
f 138 92 93
f 101 93 94
f 101 94 95
f 100 95 96
f 100 96 97
f 100 97 98
f 101 95 100
f 99 103 98
f 100 98 103
f 138 93 101
f 109 91 138
f 101 100 102
f 101 102 139
f 100 103 102
f 120 113 3
f 2 113 112
f 4 112 111
f 62 116 63
f 63 114 107
f 26 117 115
f 26 111 117
f 110 108 124
f 108 109 126
f 63 119 114
f 107 114 129
f 62 115 116
f 63 116 118
f 63 118 119
f 110 122 120
f 110 123 122
f 110 124 123
f 108 125 124
f 108 126 125
f 109 127 126
f 120 122 121
f 120 121 113
f 107 128 76
f 90 132 89
f 90 128 133
f 90 135 132
f 107 130 128
f 107 129 130
f 128 130 131
f 90 133 134
f 90 134 135
f 128 131 133
f 136 132 135
f 109 138 143
f 138 101 145
f 101 139 149
f 102 140 139
f 102 103 140
f 139 140 141
f 139 141 142
f 101 149 145
f 139 142 149
f 138 144 143
f 109 143 127
f 138 146 144
f 138 145 146
f 145 147 146
f 145 148 147
f 149 142 150
f 149 150 151
f 145 149 151
f 145 152 148
f 145 151 152
f 151 150 153
f 151 154 152
f 151 153 154

