# https://github.com/mikedh/trimesh
v -0.00573559 0.00594132 -0.03973282
v -0.00570287 0.00593641 -0.03978252
v -0.00568668 0.00593398 -0.03980498
v -0.00575815 0.00594471 -0.03969645
v -0.00550140 0.00590615 -0.04002849
v -0.00575815 0.00622650 -0.03948543
v -0.00505805 0.00583957 -0.04046607
v -0.00498115 0.00582803 -0.04053434
v -0.00484688 0.00580788 -0.04065352
v -0.00484123 0.00580773 -0.04065812
v -0.00484700 0.00580788 -0.04060653
v -0.00464088 0.00580243 -0.04081470
v -0.00575815 0.00594471 -0.03666091
v -0.00484700 0.00580788 -0.03813765
v -0.00535049 0.00643016 -0.03988556
v -0.00541570 0.00663919 -0.03965447
v -0.00575815 0.00693573 -0.03894901
v -0.00575815 0.00696105 -0.03892129
v -0.00575157 0.00698337 -0.03890418
v -0.00572560 0.00706996 -0.03883374
v -0.00572631 0.00706853 -0.03883459
v -0.00572654 0.00706805 -0.03883489
v -0.00572677 0.00706743 -0.03883533
v -0.00472195 0.00678921 -0.04017732
v -0.00490787 0.00692648 -0.03990481
v -0.00575815 0.00696105 -0.03666091
v -0.00430399 0.00579352 -0.04104401
v -0.00426309 0.00579244 -0.04106827
v -0.00410033 0.00578813 -0.04116479
v -0.00391681 0.00578328 -0.04126165
v -0.00379412 0.00578195 -0.04132555
v -0.00363947 0.00577964 -0.04139624
v -0.00348346 0.00577748 -0.04146747
v -0.00315915 0.00577200 -0.04160107
v -0.00315777 0.00577198 -0.04160164
v -0.00376067 0.00628119 -0.04112080
v -0.00329185 0.00609754 -0.04141287
v -0.00415044 0.00645794 -0.04080830
v -0.00571887 0.00708351 -0.03882567
v -0.00571195 0.00709766 -0.03881491
v -0.00568364 0.00715511 -0.03877154
v -0.00556797 0.00737692 -0.03861297
v -0.00554122 0.00742743 -0.03857743
v -0.00550405 0.00749692 -0.03852906
v -0.00549970 0.00750483 -0.03852371
v -0.00547529 0.00754485 -0.03850004
v -0.00540837 0.00765219 -0.03843853
v -0.00461078 0.00741217 -0.03964839
v -0.00532785 0.00778008 -0.03836635
v -0.00497593 0.00779755 -0.03883103
v -0.00529653 0.00782763 -0.03834143
v -0.00516979 0.00800890 -0.03825668
v -0.00509563 0.00816990 -0.03801838
v -0.00505390 0.00826380 -0.03787291
v -0.00504189 0.00830568 -0.03777999
v -0.00502317 0.00836000 -0.03766336
v -0.00439194 0.00737041 -0.03985289
v -0.00384312 0.00772713 -0.03973386
v -0.00326331 0.00724347 -0.04052094
v -0.00366801 0.00758539 -0.03999118
v -0.00396578 0.00836205 -0.03866903
v -0.00366590 0.00797528 -0.03945986
v -0.00324907 0.00800468 -0.03954516
v -0.00299430 0.00576848 -0.04165556
v -0.00290875 0.00576676 -0.04168372
v -0.00283708 0.00576481 -0.04170173
v -0.00285968 0.00596659 -0.04160992
v -0.00273182 0.00576190 -0.04172768
v -0.00255438 0.00575627 -0.04176364
v -0.00270629 0.00597953 -0.04164038
v -0.00244007 0.00575189 -0.04177855
v -0.00230211 0.00574675 -0.04179648
v -0.00198166 0.00573516 -0.04183795
v -0.00184530 0.00573020 -0.04185523
v -0.00299548 0.00706072 -0.04077629
v -0.00266932 0.00686901 -0.04102115
v -0.00235837 0.00646190 -0.04140065
v -0.00239700 0.00650093 -0.04136620
v -0.00227429 0.00639118 -0.04146353
v -0.00237114 0.00673191 -0.04118470
v -0.00206659 0.00696670 -0.04099414
v -0.00165406 0.00572337 -0.04187941
v -0.00163134 0.00572276 -0.04188218
v -0.00132719 0.00571471 -0.04191750
v -0.00181341 0.00624587 -0.04161385
v -0.00124774 0.00611217 -0.04173926
v -0.00092099 0.00570395 -0.04194650
v -0.00067826 0.00569752 -0.04196222
v -0.00064753 0.00602801 -0.04181353
v -0.00054615 0.00688487 -0.04108021
v -0.00183051 0.00724622 -0.04068206
v -0.00217586 0.00761520 -0.04019956
v -0.00201023 0.00745228 -0.04041985
v -0.00230189 0.00776531 -0.03998248
v -0.00250276 0.00804664 -0.03953425
v -0.00269743 0.00817229 -0.03932027
v -0.00265462 0.00828468 -0.03910349
v -0.00143712 0.00710389 -0.04084311
v -0.00458374 0.00808469 -0.02102177
v -0.00458374 0.00821699 -0.02050276
v -0.00495825 0.00852964 -0.03730724
v -0.00494226 0.00857318 -0.03721170
v -0.00487874 0.00874296 -0.03684058
v -0.00486946 0.00879522 -0.03665992
v -0.00447732 0.00895735 -0.03677861
v -0.00485607 0.00885905 -0.03644304
v -0.00485105 0.00887400 -0.03639580
v -0.00482319 0.00895080 -0.03615685
v -0.00479803 0.00902528 -0.03589907
v -0.00477767 0.00908372 -0.03569797
v -0.00468893 0.00910719 -0.03576831
v -0.00476894 0.00912417 -0.03547782
v -0.00476516 0.00913962 -0.03539480
v -0.00476208 0.00915828 -0.03526961
v -0.00445723 0.00924138 -0.03526846
v -0.00423843 0.00870546 -0.03775088
v -0.00349409 0.00932008 -0.03552935
v -0.00354909 0.00934325 -0.03526453
v -0.00330159 0.00918170 -0.03651897
v -0.00474651 0.00936087 -0.03360951
v -0.00474048 0.00961148 -0.03133341
v -0.00473142 0.00970079 -0.03053585
v -0.00461910 0.00972489 -0.03053639
v -0.00472994 0.00974881 -0.03003629
v -0.00417310 0.00984058 -0.02958009
v -0.00411357 0.00975641 -0.03054211
v -0.00354909 0.00975624 -0.03054408
v -0.00472939 0.00997804 -0.02751482
v -0.00287412 0.00863321 -0.03835271
v -0.00309488 0.00894853 -0.03746573
v -0.00194168 0.00933222 -0.03539059
v -0.00458374 0.00922424 -0.01975149
v -0.00472979 0.01000177 -0.02724426
v -0.00473290 0.01039111 -0.02281002
v -0.00473307 0.01042075 -0.02247243
v -0.00473296 0.01043105 -0.02235544
v -0.00473078 0.01044439 -0.02220635
v -0.00471603 0.01049440 -0.02165618
v -0.00430117 0.01011984 -0.02638808
v -0.00436436 0.01052085 -0.02180455
v -0.00458374 0.01067664 -0.01975149
v -0.00458220 0.01067797 -0.01973832
v -0.00380010 0.00986924 -0.01389613
v -0.00380010 0.01004355 -0.01345454
v -0.00380010 0.01027748 -0.01309898
v -0.00437360 0.01085749 -0.01795678
v -0.00436406 0.01086461 -0.01787535
v -0.00432462 0.01089335 -0.01754689
v -0.00424892 0.01094850 -0.01691650
v -0.00422117 0.01096829 -0.01669030
v -0.00380010 0.01066357 -0.01305883
v -0.00418992 0.01099057 -0.01643561
v -0.00380010 0.01095598 -0.01311618
v -0.00380010 0.01103774 -0.01315346
v -0.00388760 0.01120368 -0.01399976
v -0.00382599 0.01124653 -0.01350997
v -0.00380010 0.01123646 -0.01327676
v -0.00380010 0.01124653 -0.01328660
v -0.00268708 0.01124653 -0.01328403
v -0.00025287 0.00568625 -0.04197499
v -0.00021489 0.00568524 -0.04197603
v -0.00021617 0.00568524 -0.04148684
v -0.00002750 0.00568524 -0.04197894
v 0.00009748 0.00568524 -0.04197763
v -0.00002856 0.00600060 -0.04183707
v 0.00033764 0.00568524 -0.04197471
v 0.00039496 0.00568524 -0.04197334
v 0.00031914 0.00601105 -0.04182813
v 0.00047261 0.00602162 -0.04181907
v 0.00049987 0.00568524 -0.04197041
v 0.00075718 0.00568524 -0.04195802
v -0.00021617 0.00568524 -0.03615623
v -0.00003220 0.00685663 -0.04110942
v 0.00025741 0.00686740 -0.04109833
v 0.00038438 0.00687830 -0.04108707
v 0.00116781 0.00568524 -0.04193570
v 0.00108943 0.00610146 -0.04174892
v 0.00147138 0.00568524 -0.04190652
v 0.00179060 0.00568524 -0.04187382
v 0.00162559 0.00622182 -0.04163710
v 0.00205130 0.00634821 -0.04150937
v 0.00185088 0.00568524 -0.03615623
v 0.00088096 0.00695991 -0.04100124
v 0.00197470 0.00697822 -0.04098187
v 0.00127617 0.00708024 -0.04086963
v 0.00173844 0.00725981 -0.04066519
v 0.00193344 0.00747414 -0.04039107
v 0.00209199 0.00763430 -0.04017267
v 0.00236674 0.00568524 -0.04180710
v 0.00244208 0.00568524 -0.04179734
v 0.00260676 0.00568524 -0.04176966
v 0.00276547 0.00568524 -0.04173240
v 0.00260939 0.00599099 -0.04163323
v 0.00265564 0.00591300 -0.04166356
v 0.00275495 0.00596476 -0.04161183
v 0.00282797 0.00568524 -0.04171425
v 0.00304036 0.00568524 -0.04164467
v 0.00325392 0.00612139 -0.04137758
v 0.00235582 0.00568524 -0.03616484
v 0.00332251 0.00568524 -0.03665517
v 0.00285870 0.00568524 -0.03619064
v 0.00226415 0.00642473 -0.04142616
v 0.00230250 0.00651251 -0.04135642
v 0.00226696 0.00672992 -0.04118679
v 0.00261298 0.00689408 -0.04099057
v 0.00352057 0.00568524 -0.04144782
v 0.00366393 0.00568524 -0.04138102
v 0.00376852 0.00569441 -0.04132820
v 0.00366393 0.00568524 -0.03872548
v 0.00371623 0.00630400 -0.04108075
v 0.00382136 0.00634775 -0.04100243
v 0.00412092 0.00572529 -0.04112556
v 0.00416887 0.00572950 -0.04109714
v 0.00425930 0.00573742 -0.04103594
v 0.00443308 0.00575265 -0.04091490
v 0.00474579 0.00578006 -0.04066889
v 0.00474582 0.00583024 -0.04064178
v 0.00474583 0.00583959 -0.04063673
v 0.00474583 0.00587803 -0.04061598
v 0.00474583 0.00595383 -0.04057505
v 0.00474583 0.00602743 -0.04053166
v 0.00474583 0.00611331 -0.04048104
v 0.00474583 0.00631687 -0.04036105
v 0.00474579 0.00578006 -0.03828102
v 0.00426469 0.00658108 -0.04059217
v 0.00474583 0.00655463 -0.04022089
v 0.00462957 0.00679592 -0.04016498
v 0.00474583 0.00673886 -0.04010668
v 0.00474583 0.00674655 -0.04010107
v 0.00474583 0.00681487 -0.04005126
v 0.00474584 0.00687979 -0.03999543
v 0.00474581 0.00691453 -0.03996558
v 0.00474577 0.00698283 -0.03990065
v 0.00212374 0.00767075 -0.04012082
v 0.00293264 0.00708426 -0.04074428
v 0.00300370 0.00712934 -0.04068188
v 0.00331682 0.00737156 -0.04033414
v 0.00228253 0.00787375 -0.03981654
v 0.00240532 0.00805264 -0.03952406
v 0.00259614 0.00817243 -0.03932003
v 0.00320481 0.00798273 -0.03956554
v 0.00357340 0.00759239 -0.03997991
v 0.00369876 0.00775111 -0.03972206
v 0.00384654 0.00766731 -0.03976087
v 0.00440164 0.00728518 -0.03986946
v 0.00474539 0.00763477 -0.03916393
v 0.00474538 0.00765610 -0.03913983
v 0.00474535 0.00770235 -0.03907918
v 0.00474534 0.00772925 -0.03903801
v 0.00347335 0.00786581 -0.03965560
v 0.00379289 0.00826788 -0.03887925
v 0.00386789 0.00836612 -0.03865979
v 0.00474528 0.00785885 -0.03882875
v 0.00474528 0.00787606 -0.03880032
v 0.00474527 0.00788610 -0.03878125
v 0.00474515 0.00821611 -0.03815455
v 0.00474510 0.00838075 -0.03783222
v 0.00474682 0.00800236 -0.02102177
v 0.00271796 0.00854750 -0.03855405
v 0.00277552 0.00863690 -0.03834376
v 0.00299610 0.00895124 -0.03745679
v 0.00239595 0.00932916 -0.03542564
v 0.00320145 0.00918235 -0.03651563
v 0.00339321 0.00932007 -0.03552947
v 0.00414004 0.00870839 -0.03774170
v 0.00474506 0.00855939 -0.03737102
v 0.00474503 0.00876163 -0.03683199
v 0.00437726 0.00895804 -0.03677521
v 0.00474506 0.00895109 -0.03611367
v 0.00474509 0.00906575 -0.03564363
v 0.00458806 0.00910718 -0.03576843
v 0.00468524 0.00915193 -0.03526971
v 0.00474514 0.00912815 -0.03526992
v 0.00474516 0.00914515 -0.03514938
v 0.00344824 0.00934325 -0.03526453
v 0.00435185 0.00924242 -0.03526846
v 0.00474519 0.00917229 -0.03494344
v 0.00474523 0.00920435 -0.03469429
v 0.00474552 0.00940470 -0.03301488
v 0.00401273 0.00975641 -0.03054211
v 0.00407225 0.00984056 -0.02958027
v 0.00474596 0.00967590 -0.03053529
v 0.00451425 0.00972540 -0.03053639
v 0.00474616 0.00977509 -0.02949464
v 0.00474785 0.00906128 -0.01976869
v 0.00474785 0.00887505 -0.01755215
v 0.00366599 0.00976193 -0.01401083
v 0.00420033 0.01011982 -0.02638838
v 0.00474760 0.01044343 -0.02214421
v 0.00426352 0.01052081 -0.02180496
v 0.00474762 0.01045281 -0.02203787
v 0.00474764 0.01046232 -0.02193010
v 0.00474767 0.01048826 -0.02163627
v 0.00474768 0.01049810 -0.02152481
v 0.00474768 0.01050188 -0.02148202
v 0.00474769 0.01050803 -0.02141232
v 0.00366599 0.00999302 -0.01345454
v 0.00366599 0.01013496 -0.01314486
v 0.00366599 0.01022013 -0.01303016
v 0.00366599 0.01049891 -0.01299862
v 0.00474785 0.01065312 -0.01976869
v 0.00474785 0.01084881 -0.01755215
v 0.00466484 0.01088788 -0.01720167
v 0.00427440 0.01091661 -0.01728097
v 0.00366599 0.01065562 -0.01298428
v 0.00366599 0.01105137 -0.01313052
v 0.00372241 0.01124653 -0.01350997
v 0.00366599 0.01124653 -0.01328114
v 0.00392358 0.01117966 -0.01427429
v 0.00427463 0.01101116 -0.01620022
v 0.00435082 0.01102958 -0.01591117
v 0.00427183 0.01106350 -0.01560207
v 0.00427463 0.01106253 -0.01561312
v 0.00426277 0.01106662 -0.01556632
v 0.00420174 0.01108721 -0.01533109
v 0.00423978 0.01107456 -0.01547565
v 0.00445541 0.01098432 -0.01632035
v 0.00446495 0.01098017 -0.01635770
f 13 3 5
f 13 4 1
f 13 1 2
f 13 2 3
f 13 5 7
f 11 14 13
f 11 13 8
f 13 7 8
f 13 6 4
f 13 17 6
f 11 8 9
f 13 18 17
f 13 26 18
f 26 19 18
f 26 23 19
f 30 83 29
f 28 29 84
f 162 9 10
f 11 9 162
f 162 10 12
f 13 14 172
f 11 172 14
f 13 172 99
f 47 46 102
f 42 41 114
f 44 43 107
f 43 42 109
f 49 47 56
f 45 44 106
f 46 45 104
f 51 49 55
f 51 53 52
f 51 54 53
f 41 40 121
f 133 39 20
f 40 39 133
f 51 55 54
f 55 49 56
f 56 47 101
f 47 102 101
f 102 46 103
f 46 104 103
f 104 45 106
f 106 44 107
f 107 43 108
f 13 138 26
f 20 21 134
f 21 22 135
f 22 23 136
f 26 137 23
f 32 33 74
f 30 31 82
f 32 74 31
f 162 12 27
f 34 35 72
f 34 73 33
f 72 35 64
f 162 27 28
f 64 65 71
f 71 65 66
f 66 68 69
f 71 66 69
f 72 64 71
f 34 72 73
f 74 33 73
f 74 82 31
f 30 82 83
f 29 83 84
f 28 84 87
f 162 28 87
f 11 162 172
f 162 87 88
f 13 99 100
f 13 100 132
f 43 109 108
f 109 42 110
f 42 112 110
f 42 113 112
f 42 114 113
f 41 120 114
f 41 121 120
f 121 40 133
f 133 20 134
f 134 21 135
f 135 22 136
f 136 23 137
f 121 133 122
f 133 124 122
f 133 128 124
f 13 132 138
f 26 138 137
f 99 143 100
f 100 145 132
f 100 143 144
f 100 144 145
f 132 141 138
f 132 142 141
f 132 146 142
f 132 151 146
f 132 145 151
f 151 147 146
f 151 148 147
f 151 149 148
f 151 153 149
f 153 150 149
f 153 152 150
f 153 154 152
f 154 155 152
f 154 157 155
f 157 156 155
f 157 158 156
f 157 159 158
f 99 287 143
f 143 287 144
f 144 298 145
f 145 300 151
f 151 305 153
f 153 306 154
f 154 306 157
f 157 306 159
f 162 88 160
f 162 160 161
f 162 161 163
f 162 163 172
f 172 163 164
f 172 164 166
f 172 166 167
f 172 167 170
f 172 170 171
f 172 171 176
f 172 176 178
f 172 178 179
f 172 179 189
f 172 189 190
f 172 190 191
f 172 191 192
f 172 192 196
f 172 196 197
f 172 197 206
f 172 199 182
f 172 201 199
f 172 200 201
f 172 206 209
f 172 209 200
f 209 206 207
f 209 207 208
f 209 208 212
f 224 212 213
f 209 212 224
f 224 213 214
f 224 214 215
f 224 215 216
f 224 216 217
f 200 209 224
f 172 182 258
f 182 199 258
f 199 201 258
f 201 200 258
f 200 224 258
f 285 217 218
f 224 217 286
f 246 257 233
f 246 247 255
f 255 247 248
f 249 254 248
f 231 232 279
f 232 233 279
f 255 248 254
f 249 253 254
f 246 255 257
f 233 257 266
f 233 266 267
f 255 256 257
f 233 267 269
f 233 269 270
f 233 270 273
f 233 273 274
f 233 274 277
f 233 277 278
f 218 219 296
f 219 220 296
f 221 295 220
f 221 222 295
f 222 223 294
f 223 226 293
f 292 226 228
f 229 292 228
f 229 230 292
f 231 291 230
f 99 172 258
f 224 286 258
f 286 217 285
f 233 278 279
f 231 279 282
f 231 282 284
f 231 284 289
f 295 296 220
f 295 222 294
f 294 223 293
f 292 230 291
f 293 226 292
f 231 289 291
f 99 258 287
f 144 287 297
f 144 297 298
f 145 298 299
f 145 299 300
f 151 300 305
f 153 305 306
f 306 308 159
f 285 218 296
f 258 286 287
f 286 285 302
f 286 297 287
f 286 298 297
f 286 299 298
f 285 296 301
f 285 301 302
f 286 302 303
f 286 303 318
f 286 300 299
f 286 305 300
f 286 318 305
f 306 307 308
f 305 312 314
f 305 313 312
f 305 314 316
f 316 315 306
f 305 316 306
f 306 315 309
f 306 309 307
f 305 317 311
f 305 318 317
f 305 311 313
f 4 6 1
f 16 2 1
f 15 3 2
f 15 5 3
f 16 1 6
f 15 2 16
f 15 7 5
f 38 12 10
f 24 8 7
f 24 9 8
f 24 10 9
f 15 24 7
f 24 38 10
f 16 6 17
f 15 16 25
f 16 17 18
f 16 18 19
f 20 19 21
f 21 19 22
f 22 19 23
f 25 19 20
f 25 20 39
f 16 19 25
f 15 25 24
f 24 25 57
f 38 27 12
f 38 28 27
f 38 29 28
f 30 29 31
f 36 31 29
f 38 36 29
f 36 32 31
f 36 33 32
f 34 33 35
f 37 35 33
f 37 64 35
f 36 37 33
f 24 57 38
f 38 57 59
f 38 59 36
f 36 75 37
f 36 59 75
f 50 39 40
f 50 40 41
f 25 39 50
f 50 41 42
f 50 42 43
f 50 43 44
f 50 44 45
f 50 45 46
f 50 46 47
f 50 47 49
f 25 50 48
f 25 48 57
f 48 50 58
f 50 49 51
f 50 51 52
f 50 52 53
f 50 53 61
f 116 53 54
f 116 54 55
f 116 55 56
f 48 58 57
f 57 58 60
f 57 60 59
f 58 62 60
f 60 63 59
f 50 61 58
f 58 61 62
f 60 62 63
f 62 61 63
f 63 61 129
f 116 61 53
f 67 65 64
f 67 66 65
f 37 67 64
f 37 70 67
f 70 68 66
f 70 69 68
f 70 71 69
f 67 70 66
f 37 78 70
f 70 78 77
f 70 85 71
f 85 72 71
f 85 73 72
f 85 74 73
f 70 79 85
f 70 77 79
f 37 75 76
f 37 76 78
f 76 80 78
f 76 75 81
f 77 80 79
f 79 80 85
f 77 78 80
f 80 81 85
f 76 81 80
f 85 82 74
f 85 83 82
f 85 86 83
f 86 84 83
f 86 87 84
f 86 89 87
f 89 88 87
f 89 160 88
f 86 173 89
f 81 86 85
f 81 90 86
f 86 90 173
f 81 98 185
f 81 183 90
f 59 93 75
f 59 92 93
f 59 63 92
f 75 93 81
f 81 93 91
f 63 96 95
f 63 95 94
f 63 94 92
f 63 97 96
f 63 129 97
f 81 91 98
f 98 91 185
f 93 186 91
f 92 187 93
f 94 234 92
f 94 95 238
f 96 239 95
f 96 97 240
f 116 56 101
f 116 101 102
f 105 102 103
f 116 102 105
f 105 103 104
f 105 104 106
f 105 106 107
f 105 107 108
f 105 108 109
f 105 109 111
f 111 109 110
f 111 110 112
f 105 111 115
f 111 112 113
f 111 113 115
f 115 113 114
f 116 105 130
f 105 115 119
f 116 129 61
f 116 130 129
f 105 119 130
f 115 118 117
f 115 117 119
f 115 114 120
f 115 120 123
f 123 120 121
f 123 121 122
f 123 122 124
f 123 124 128
f 115 123 118
f 123 126 118
f 125 118 126
f 125 127 118
f 123 125 126
f 123 139 125
f 117 118 131
f 97 129 259
f 130 260 129
f 130 119 261
f 119 117 263
f 117 131 264
f 118 127 131
f 127 262 131
f 123 128 140
f 140 128 133
f 140 133 134
f 140 134 135
f 140 135 136
f 140 136 137
f 140 137 138
f 138 141 142
f 140 138 142
f 123 140 139
f 125 139 140
f 125 150 127
f 125 140 148
f 125 148 149
f 125 149 150
f 140 142 146
f 140 146 147
f 140 147 148
f 158 159 156
f 127 150 309
f 152 309 150
f 152 155 309
f 155 156 307
f 159 307 156
f 89 165 160
f 165 161 160
f 165 163 161
f 165 164 163
f 165 168 164
f 89 173 165
f 165 173 168
f 168 166 164
f 168 167 166
f 169 170 167
f 168 169 167
f 169 171 170
f 169 177 171
f 173 169 168
f 173 177 169
f 90 174 173
f 90 175 174
f 173 174 177
f 90 183 175
f 81 184 183
f 81 185 184
f 177 176 171
f 177 178 176
f 177 180 178
f 180 179 178
f 180 189 179
f 180 181 193
f 174 184 177
f 174 175 184
f 175 183 184
f 177 184 180
f 180 204 181
f 180 184 204
f 91 186 185
f 93 187 186
f 92 188 187
f 92 234 188
f 94 238 234
f 95 239 238
f 96 240 239
f 185 186 184
f 184 186 187
f 97 259 240
f 180 193 189
f 194 191 190
f 193 190 189
f 194 192 191
f 194 196 192
f 194 195 196
f 194 190 193
f 194 193 195
f 181 202 193
f 202 203 193
f 193 203 198
f 195 197 196
f 193 198 195
f 195 198 197
f 198 206 197
f 181 203 202
f 181 204 203
f 203 204 205
f 203 205 198
f 184 205 204
f 184 235 205
f 205 235 198
f 198 235 210
f 235 236 210
f 236 237 211
f 210 207 206
f 210 208 207
f 210 212 208
f 211 213 212
f 211 214 213
f 198 210 206
f 210 211 212
f 211 215 214
f 216 215 217
f 217 215 218
f 218 215 219
f 211 225 215
f 225 219 215
f 225 220 219
f 225 221 220
f 225 222 221
f 225 223 222
f 236 211 210
f 211 237 225
f 225 226 223
f 225 227 226
f 227 228 226
f 225 245 227
f 227 229 228
f 229 227 230
f 227 232 230
f 231 230 232
f 227 233 232
f 227 245 233
f 184 187 235
f 187 188 236
f 187 236 235
f 188 234 241
f 188 237 236
f 188 241 237
f 241 250 237
f 238 239 240
f 234 238 241
f 238 240 241
f 240 259 251
f 240 251 241
f 225 237 245
f 237 242 245
f 237 250 242
f 242 250 243
f 242 243 244
f 242 244 245
f 245 246 233
f 244 248 245
f 245 247 246
f 245 248 247
f 241 251 250
f 243 250 251
f 243 251 244
f 251 259 252
f 244 251 248
f 251 249 248
f 251 253 249
f 252 254 253
f 252 255 254
f 251 252 253
f 255 252 256
f 252 265 256
f 265 257 256
f 129 260 259
f 130 261 260
f 119 263 261
f 117 264 263
f 131 262 264
f 127 264 262
f 252 259 260
f 260 261 265
f 252 260 265
f 261 263 268
f 261 268 265
f 263 276 268
f 265 266 257
f 265 268 266
f 268 267 266
f 268 269 267
f 268 271 269
f 268 276 271
f 271 270 269
f 271 272 270
f 272 273 270
f 272 274 273
f 272 277 274
f 263 264 276
f 264 275 276
f 271 276 272
f 272 276 278
f 272 278 277
f 264 280 275
f 275 280 283
f 275 283 276
f 276 279 278
f 276 283 279
f 283 282 279
f 264 288 280
f 280 281 283
f 283 284 282
f 280 288 281
f 281 288 283
f 127 315 264
f 127 309 315
f 155 307 309
f 159 308 307
f 264 315 288
f 288 290 283
f 283 289 284
f 290 289 283
f 290 291 289
f 290 292 291
f 290 293 292
f 290 294 293
f 290 295 294
f 290 296 295
f 288 314 290
f 290 301 296
f 288 316 314
f 288 315 316
f 290 304 303
f 290 310 304
f 290 303 301
f 290 312 310
f 290 314 312
f 302 301 303
f 304 317 318
f 304 318 303
f 304 310 317
f 310 312 313
f 310 313 311
f 310 311 317

