# https://github.com/mikedh/trimesh
v 0.00494906 0.00406141 -0.00595646
v 0.00478392 0.00454325 -0.00595646
v 0.00472508 0.00504787 -0.00595646
v 0.00472267 0.00555249 -0.00595646
v 0.00498232 0.00398843 -0.00595646
v 0.00472267 0.00713570 -0.00595646
v 0.00472498 0.00763980 -0.00595646
v 0.00492941 0.00808490 -0.00595646
v 0.00499289 0.00811181 -0.00595646
v 0.00472267 0.00612698 -0.00487710
v 0.00472267 0.00663108 -0.00437268
v 0.00473620 0.00661917 -0.00388025
v 0.00473508 0.00663108 -0.00388025
v 0.00493302 0.00612750 -0.00388025
v 0.00493479 0.00612439 -0.00388025
v 0.00472267 0.00712379 -0.00388025
v 0.00472267 0.00713570 -0.00388025
v 0.00472489 0.00762789 -0.00388025
v 0.00472498 0.00763980 -0.00388025
v 0.00492941 0.00808490 -0.00388025
v 0.00559292 0.00306097 -0.00595646
v 0.00566919 0.00299007 -0.00595646
v 0.00566919 0.00306097 -0.00586481
v 0.00566919 0.00544121 -0.00388025
v 0.00538358 0.00827691 -0.00595646
v 0.00566919 0.00827691 -0.00595646
v 0.00538358 0.00827691 -0.00388025
v 0.00566919 0.00827691 -0.00388025
f 3 10 4
f 2 12 3
f 1 12 2
f 1 5 14
f 1 2 26
f 5 21 15
f 1 14 12
f 5 15 14
f 4 10 6
f 6 10 11
f 6 18 7
f 7 20 8
f 8 20 9
f 2 3 26
f 3 4 26
f 4 6 26
f 6 7 26
f 7 8 26
f 3 13 10
f 3 12 13
f 10 13 11
f 11 13 16
f 6 11 16
f 6 16 17
f 6 17 18
f 7 18 19
f 7 19 20
f 14 15 28
f 9 20 27
f 12 28 13
f 13 28 16
f 16 28 17
f 17 28 18
f 18 28 19
f 12 14 28
f 19 28 20
f 15 21 23
f 1 26 5
f 5 26 21
f 21 22 23
f 21 26 22
f 22 28 23
f 15 23 24
f 23 28 24
f 8 9 26
f 9 25 26
f 9 27 25
f 22 26 28
f 25 28 26
f 15 24 28
f 20 28 27
f 25 27 28

