# https://github.com/mikedh/trimesh
v -0.00080123 0.02846520 -0.03143004
v -0.00058962 0.02846324 -0.03214296
v -0.00156096 0.02845342 -0.03179065
v -0.00238661 0.02836893 -0.03129500
v -0.00436399 0.02790720 -0.02711555
v -0.00122793 0.02838661 -0.03080085
v -0.00320532 0.02793275 -0.02711555
v -0.00132160 0.02792685 -0.02711555
v -0.00016986 0.02845145 -0.03136818
v 0.00107208 0.02845735 -0.03221236
v -0.00016986 0.02845145 -0.03228026
v -0.00032250 0.02839840 -0.03277968
v -0.00220968 0.02840430 -0.03210750
v -0.00387138 0.02823336 -0.03147983
v -0.00329204 0.02826873 -0.03099097
v -0.00468315 0.02788363 -0.02711555
v -0.00017333 0.02791113 -0.02711555
v 0.00045458 0.02843770 -0.03130858
v 0.00162366 0.02842984 -0.03189702
v 0.00247012 0.02837089 -0.03226744
v 0.00139124 0.02838661 -0.03284532
v -0.00016986 0.02840626 -0.03271254
v 0.00038520 0.02843180 -0.03246358
v 0.00016665 0.02823532 -0.03341415
v -0.00195644 0.02833749 -0.03275554
v -0.00280984 0.02833946 -0.03238286
v -0.00382975 0.02824318 -0.03211505
v -0.00523127 0.02803885 -0.03205922
v -0.00473865 0.02810761 -0.03156583
v -0.00715315 0.02734528 -0.02711555
v -0.00016986 0.02790131 -0.02711555
v 0.00792007 0.02671065 -0.02862362
v 0.00708749 0.02689141 -0.02862362
v 0.00760438 0.02724507 -0.03002909
v 0.00648387 0.02756730 -0.03039951
v 0.00543273 0.02769108 -0.03014603
v 0.00477013 0.02795829 -0.03081368
v 0.00339637 0.02820782 -0.03107999
v 0.00189425 0.02828444 -0.03075408
v 0.00240074 0.02835518 -0.03152962
v 0.00372594 0.02824122 -0.03165561
v 0.00422549 0.02819013 -0.03217012
v 0.00341372 0.02824122 -0.03255789
v 0.00275112 0.02827658 -0.03286870
v 0.00142940 0.02822550 -0.03339076
v 0.00217872 0.02827069 -0.03315161
v 0.00074945 0.02794847 -0.03375137
v -0.00016986 0.02788166 -0.03381625
v -0.00128344 0.02779914 -0.03389395
v -0.00236926 0.02792292 -0.03366763
v -0.00016986 0.02821961 -0.03340735
v -0.00297982 0.02814887 -0.03322630
v -0.00347937 0.02823532 -0.03270877
v -0.00501618 0.02803885 -0.03270424
v -0.00587652 0.02790524 -0.03232402
v -0.00813490 0.02704270 -0.02711555
v -0.00680970 0.02766554 -0.03195134
v -0.00768045 0.02741994 -0.03151151
v -0.00873852 0.02708985 -0.03127915
v -0.00016986 0.02250993 -0.02711555
v 0.00792007 0.02713701 -0.02993479
v 0.00792007 0.02069054 -0.02862362
v 0.00679262 0.02764392 -0.03102190
v 0.00792007 0.02717827 -0.03007360
v 0.00792007 0.02727651 -0.03050437
v 0.00792007 0.02733938 -0.03079030
v 0.00602595 0.02784826 -0.03137044
v 0.00521071 0.02804277 -0.03173557
v 0.00584208 0.02788559 -0.03231798
v 0.00672670 0.02764196 -0.03270952
v 0.00704586 0.02745727 -0.03324440
v 0.00327842 0.02803492 -0.03342546
v 0.00281703 0.02782665 -0.03374609
v 0.00152653 0.02760463 -0.03405841
v -0.00114814 0.02715469 -0.03434886
v -0.00286187 0.02715076 -0.03431341
v -0.00457908 0.02751425 -0.03386906
v -0.00370833 0.02782665 -0.03362614
v -0.00171014 0.02814494 -0.03337491
v -0.00487395 0.02791899 -0.03322177
v -0.00411422 0.02810958 -0.03299243
v -0.00606038 0.02764589 -0.03330475
v -0.00645933 0.02772055 -0.03264766
v -0.00844712 0.02720774 -0.03194379
v -0.00980353 0.02673423 -0.03112601
v -0.01156583 0.02574397 -0.02711555
v -0.00016986 0.01885150 -0.02785638
v -0.01699150 0.02250993 -0.02711555
v -0.01721005 0.00913169 -0.02785638
v 0.00792007 0.02181047 -0.03361180
v -0.02159499 0.00839293 -0.03350166
v -0.02161580 0.00839293 -0.03354390
v 0.00701811 0.02764982 -0.03176726
v 0.00792007 0.02734921 -0.03091326
v 0.00733726 0.02756337 -0.03238814
v 0.00766683 0.02740029 -0.03290944
v 0.00792007 0.02728044 -0.03306862
v 0.00792007 0.02720577 -0.03329268
v 0.00792007 0.02709378 -0.03354994
v 0.00782988 0.02709378 -0.03360426
v 0.00639714 0.02744548 -0.03353108
v 0.00729217 0.02705056 -0.03386453
v 0.00317088 0.02727061 -0.03417535
v 0.00659488 0.02701126 -0.03399202
v 0.00214750 0.02711539 -0.03434962
v 0.00084312 0.02710754 -0.03437527
v -0.00081858 0.02660848 -0.03461819
v -0.00253578 0.02658490 -0.03461743
v -0.00413850 0.02656722 -0.03455784
v -0.00419748 0.02701126 -0.03431491
v -0.00518270 0.02710164 -0.03415045
v -0.00590427 0.02725490 -0.03392715
v -0.00551573 0.02762231 -0.03357710
v -0.00720171 0.02708003 -0.03380191
v -0.00859282 0.02684425 -0.03350241
v -0.00776024 0.02718220 -0.03323384
v -0.00922766 0.02680496 -0.03308371
v -0.00815224 0.02723721 -0.03261296
v -0.00903686 0.02700930 -0.03223047
v -0.00999086 0.02668314 -0.03185779
v -0.01080610 0.02637467 -0.03142928
v -0.01188846 0.02589723 -0.03124898
v -0.01298122 0.02510542 -0.02711555
v -0.01714414 0.02251190 -0.02711555
v -0.02727736 0.00839293 -0.02916302
v -0.02080056 0.00839293 -0.02916302
v -0.02125155 0.00839293 -0.03247867
v -0.02134868 0.00839293 -0.03289360
v -0.02135562 0.00839293 -0.03291548
v 0.00792007 0.02186941 -0.03367366
v -0.02181354 0.00839293 -0.03377174
v -0.02208066 0.00839293 -0.03402296
v -0.02212576 0.00839293 -0.03405162
v -0.02230962 0.00839293 -0.03415951
v -0.02270857 0.00839293 -0.03436395
v 0.00792007 0.02741797 -0.03177933
v 0.00792007 0.02742976 -0.03204187
v 0.00785416 0.02744744 -0.03207280
v 0.00792007 0.02742583 -0.03211655
v 0.00792007 0.02739243 -0.03245000
v 0.00792007 0.02734724 -0.03279025
v 0.00792007 0.02731777 -0.03293283
v 0.00792007 0.02706235 -0.03360501
v 0.00792007 0.02703877 -0.03363519
v 0.00692791 0.02651024 -0.03431944
v 0.00792007 0.02683443 -0.03387962
v 0.00792007 0.02655740 -0.03413235
v 0.00789232 0.02655740 -0.03413914
v 0.00479442 0.02669689 -0.03443486
v 0.00202608 0.02646898 -0.03465214
v 0.00398265 0.02667921 -0.03448466
v 0.00056212 0.02650238 -0.03465289
v -0.00016986 0.02655936 -0.03463479
v -0.00202235 0.02595224 -0.03477360
v -0.00364936 0.02591491 -0.03474644
v -0.00550879 0.02594242 -0.03469061
v -0.00653218 0.02582453 -0.03467175
v -0.00575510 0.02651024 -0.03447485
v -0.00692072 0.02658490 -0.03425682
v -0.00891545 0.02629608 -0.03394223
v -0.01048001 0.02567521 -0.03399504
v -0.01063265 0.02589330 -0.03375061
v -0.00996658 0.02638646 -0.03341037
v -0.01235332 0.02553571 -0.03299167
v -0.01130218 0.02611728 -0.03248018
v -0.00967171 0.02674995 -0.03253827
v -0.01161093 0.02604852 -0.03183591
v -0.01311305 0.02533137 -0.03175821
v -0.01292225 0.02539817 -0.03104981
v -0.01387625 0.02492466 -0.03146399
v -0.01513206 0.02393637 -0.02711555
v -0.01608260 0.02327423 -0.02711555
v -0.01701925 0.02295201 -0.03136440
v -0.01784489 0.02233310 -0.03171747
v -0.01822303 0.02197551 -0.03106188
v -0.01912152 0.02116602 -0.03066657
v -0.01950659 0.02061195 -0.02916302
v -0.02059589 0.01955489 -0.02916302
v -0.02175803 0.01827974 -0.02916302
v -0.02227493 0.01764512 -0.02916302
v -0.02264265 0.01717553 -0.02916302
v -0.02310751 0.01656055 -0.02916302
v -0.02345789 0.01606543 -0.02916302
v -0.02378052 0.01560370 -0.02916302
v -0.02392622 0.01537579 -0.02916302
v -0.02475880 0.01403973 -0.02916302
v -0.02513693 0.01337367 -0.02916302
v -0.02522019 0.01322631 -0.02916302
v -0.02558791 0.01251309 -0.02916302
v -0.02573709 0.01220855 -0.02916302
v -0.02599727 0.01166823 -0.02916302
v -0.02627480 0.01105325 -0.02916302
v -0.02682638 0.00972113 -0.02916302
v -0.02716288 0.00877803 -0.02916302
v -0.02721492 0.00873087 -0.02943839
v -0.02732246 0.00839293 -0.02949346
v 0.00792007 0.02211894 -0.03393167
v -0.02275713 0.00839293 -0.03437376
v 0.00792007 0.02285966 -0.03445675
v 0.00792007 0.02244313 -0.03422665
v 0.00792007 0.02647095 -0.03417610
v 0.00792007 0.02603673 -0.03438130
v 0.00792007 0.02540996 -0.03461065
v 0.00539457 0.02595224 -0.03466647
v 0.00792007 0.02654168 -0.03414065
v 0.00412488 0.02593849 -0.03472909
v 0.00269562 0.02579506 -0.03478416
v 0.00111024 0.02586579 -0.03479095
v -0.00394423 0.02520366 -0.03480755
v -0.00541166 0.02525474 -0.03478718
v -0.00016986 0.02583239 -0.03479246
v -0.00070410 0.02581863 -0.03479246
v -0.00715315 0.02520759 -0.03474795
v -0.00928317 0.02455528 -0.03472909
v -0.01017820 0.02454938 -0.03465666
v -0.00721906 0.02597385 -0.03452313
v -0.01031349 0.02509756 -0.03441148
v -0.01157277 0.02509166 -0.03412933
v -0.01264472 0.02494038 -0.03380720
v -0.01193356 0.02535691 -0.03367895
v -0.01313733 0.02497574 -0.03336964
v -0.01346343 0.02506416 -0.03281212
v -0.01286328 0.02544336 -0.03244699
v -0.01220762 0.02577344 -0.03212862
v -0.01429254 0.02466334 -0.03244321
v -0.01468108 0.02446686 -0.03177858
v -0.01504187 0.02422323 -0.03114789
v -0.01539225 0.02404836 -0.03189551
v -0.01591955 0.02365737 -0.03090647
v -0.01628380 0.02346678 -0.03167522
v -0.01734535 0.02270641 -0.03222519
v -0.01760900 0.02250993 -0.03195813
v -0.01848668 0.02181833 -0.03187590
v -0.01934701 0.02102455 -0.03143532
v -0.02031836 0.02009521 -0.03122710
v -0.02012062 0.02020917 -0.03048325
v -0.02092545 0.01932894 -0.02998156
v -0.02178579 0.01837012 -0.02985331
v -0.02244492 0.01746436 -0.02929882
v -0.02317689 0.01663718 -0.03015055
v -0.02378745 0.01564496 -0.02942858
v -0.02421069 0.01519110 -0.03037310
v -0.02482124 0.01407313 -0.02972733
v -0.02562954 0.01269385 -0.03010302
v -0.02603890 0.01205529 -0.03084009
v -0.02643437 0.01100217 -0.03018978
v -0.02697555 0.00970344 -0.03035123
v -0.02743000 0.00839293 -0.03036480
v -0.02739531 0.00839293 -0.03005550
v -0.02343361 0.00839293 -0.03449673
v 0.00792007 0.02344124 -0.03464308
v -0.02367644 0.00839293 -0.03453746
v 0.00792007 0.02527635 -0.03464459
v 0.00792007 0.02489911 -0.03471928
v 0.00792007 0.02447079 -0.03475096
v 0.00766683 0.02446686 -0.03475549
v -0.00555389 0.02447865 -0.03482188
v -0.00697275 0.02448454 -0.03480830
v -0.00872464 0.02440202 -0.03476983
v -0.01190580 0.02307579 -0.03475625
v -0.01184336 0.02362397 -0.03467854
v -0.01121545 0.02442756 -0.03454803
v -0.01178092 0.02457099 -0.03439865
v -0.01248861 0.02449240 -0.03425682
v -0.01314080 0.02443739 -0.03407426
v -0.01383462 0.02443346 -0.03367215
v -0.01426479 0.02456510 -0.03299016
v -0.01549285 0.02385385 -0.03291246
v -0.01598199 0.02363969 -0.03235797
v -0.01735228 0.02256691 -0.03288832
v -0.01744248 0.02250797 -0.03286040
v -0.01818140 0.02202266 -0.03261899
v -0.01913193 0.02122496 -0.03233081
v -0.02006858 0.02036635 -0.03202527
v -0.02114747 0.01925231 -0.03162015
v -0.02131746 0.01901850 -0.03083782
v -0.02205985 0.01819133 -0.03102794
v -0.02248308 0.01766476 -0.03079709
v -0.02316649 0.01681205 -0.03116750
v -0.02367991 0.01608507 -0.03112827
v -0.02415865 0.01542491 -0.03161487
v -0.02508837 0.01381574 -0.03079859
v -0.02639968 0.01131653 -0.03118938
v -0.02579953 0.01259168 -0.03154320
v -0.02672231 0.01051883 -0.03102115
v -0.02698249 0.00991367 -0.03145720
v -0.02726696 0.00910811 -0.03130179
v -0.02744735 0.00839293 -0.03054662
v 0.00792007 0.02374775 -0.03471023
v -0.02420028 0.00839293 -0.03458122
v 0.00792007 0.02438237 -0.03475323
v -0.01868788 0.01679240 -0.03472984
v -0.01498983 0.02024453 -0.03476530
v -0.01493086 0.02086344 -0.03476530
v -0.01095180 0.02308168 -0.03478114
v -0.01303326 0.02250993 -0.03473965
v -0.01385544 0.02250993 -0.03467628
v -0.01348424 0.02312491 -0.03458500
v -0.01254412 0.02383813 -0.03451936
v -0.01361260 0.02371631 -0.03433302
v -0.01432376 0.02379883 -0.03403729
v -0.01501411 0.02379490 -0.03356805
v -0.01477475 0.02414267 -0.03325572
v -0.01631502 0.02317010 -0.03326628
v -0.01741473 0.02250797 -0.03291925
v -0.01798713 0.02194997 -0.03322780
v -0.01889603 0.02135660 -0.03290039
v -0.01979106 0.02056676 -0.03267105
v -0.02076240 0.01964724 -0.03234061
v -0.02156030 0.01880434 -0.03195511
v -0.02220208 0.01805969 -0.03205620
v -0.02307282 0.01696530 -0.03187967
v -0.02411008 0.01543866 -0.03230063
v -0.02460269 0.01471365 -0.03176650
v -0.02503633 0.01399847 -0.03200792
v -0.02643784 0.01123401 -0.03188118
v -0.02576831 0.01259758 -0.03234514
v -0.02541446 0.01331276 -0.03214145
v -0.02706228 0.00967986 -0.03212335
v -0.02748204 0.00850296 -0.03169031
v -0.02752020 0.00839293 -0.03166768
v 0.00792007 0.02396387 -0.03472833
v -0.02422803 0.00839293 -0.03458349
v 0.00792007 0.02424680 -0.03474644
v -0.01874339 0.01816775 -0.03470570
v -0.01802876 0.01806951 -0.03473060
v -0.01712679 0.01890258 -0.03474493
v -0.02177191 0.01340314 -0.03464007
v -0.02197659 0.01394935 -0.03462271
v -0.01642257 0.02026614 -0.03472984
v -0.01550672 0.02101669 -0.03471853
v -0.01393869 0.02246278 -0.03467552
v -0.01390747 0.02250993 -0.03466949
v -0.01657521 0.02092828 -0.03461215
v -0.01463945 0.02250993 -0.03453370
v -0.01514594 0.02223879 -0.03451106
v -0.01496208 0.02250993 -0.03445071
v -0.01452497 0.02314259 -0.03430511
v -0.01816058 0.02087523 -0.03410368
v -0.01654745 0.02250993 -0.03381851
v -0.01585710 0.02307579 -0.03378004
v -0.01704007 0.02250600 -0.03356955
v -0.01863932 0.02109921 -0.03360275
v -0.01932620 0.02076127 -0.03324289
v -0.01721352 0.02240383 -0.03350769
v -0.01721352 0.02235471 -0.03357333
v -0.02050569 0.01972386 -0.03297055
v -0.02157070 0.01872771 -0.03257222
v -0.02254552 0.01761761 -0.03238663
v -0.02314220 0.01677864 -0.03260466
v -0.02355156 0.01610669 -0.03279100
v -0.02496001 0.01394542 -0.03272310
v -0.02644825 0.01101592 -0.03261899
v -0.02614644 0.01173896 -0.03247490
v -0.02558791 0.01265848 -0.03296300
v -0.02683332 0.00995101 -0.03280081
v -0.02747510 0.00839293 -0.03234514
v -0.02748204 0.00839293 -0.03229761
v -0.02426966 0.00839293 -0.03458198
v -0.01784143 0.01981424 -0.03460989
v -0.02115441 0.01528148 -0.03462649
v -0.02118563 0.01593182 -0.03457594
v -0.02194537 0.01549367 -0.03447410
v -0.02471023 0.00839293 -0.03455935
v -0.02502592 0.00839293 -0.03453596
v -0.02506755 0.00839293 -0.03453068
v -0.02492532 0.00925154 -0.03449748
v -0.01501064 0.02170437 -0.03467401
v -0.01721352 0.02101473 -0.03438130
v -0.01713026 0.02108742 -0.03438055
v -0.01721352 0.02107367 -0.03435942
v -0.01825078 0.02005198 -0.03439488
v -0.02101912 0.01832493 -0.03391734
v -0.01933661 0.02013843 -0.03386377
v -0.01721352 0.02199516 -0.03382907
v -0.02012756 0.01961580 -0.03367970
v -0.02166437 0.01815989 -0.03342169
v -0.02212229 0.01801253 -0.03289737
v -0.02287161 0.01681598 -0.03324968
v -0.02396785 0.01537579 -0.03298941
v -0.02432170 0.01470776 -0.03316217
v -0.02617072 0.01122615 -0.03321875
v -0.02466167 0.01397489 -0.03332135
v -0.02494613 0.01329900 -0.03343829
v -0.02730512 0.00839293 -0.03300827
v -0.02710738 0.00907667 -0.03289134
v -0.02118217 0.01677275 -0.03442506
v -0.02031489 0.01806558 -0.03431567
v -0.02275020 0.01456236 -0.03440394
v -0.02254552 0.01559388 -0.03428096
v -0.02581687 0.00839293 -0.03429907
v -0.02457841 0.01275083 -0.03406520
v -0.02126195 0.01734450 -0.03419723
v -0.02321852 0.01538168 -0.03395657
v -0.02212576 0.01735433 -0.03362161
v -0.02377705 0.01525397 -0.03352278
v -0.02529651 0.01253470 -0.03350618
v -0.02647253 0.00992743 -0.03348581
v -0.02729818 0.00839293 -0.03302034
v -0.02431129 0.01397489 -0.03379437
v -0.02354462 0.01457415 -0.03409236
v -0.02631643 0.00839293 -0.03404936
v -0.02675700 0.00839293 -0.03371591
v -0.02679169 0.00851671 -0.03365254
v -0.02687842 0.00839293 -0.03359219
v -0.02723227 0.00839293 -0.03311313
v -0.02682291 0.00839293 -0.03365480
f 1 2 3
f 1 3 4
f 1 4 5
f 1 5 6
f 1 6 7
f 1 7 8
f 1 8 9
f 1 9 10
f 1 10 2
f 2 10 11
f 2 11 12
f 2 12 13
f 2 13 3
f 3 13 4
f 4 13 14
f 4 14 15
f 4 15 16
f 4 16 5
f 5 16 30
f 5 30 56
f 5 56 86
f 5 86 123
f 5 123 171
f 5 171 172
f 5 172 124
f 5 124 88
f 5 88 60
f 5 60 31
f 5 31 17
f 5 17 8
f 5 8 7
f 5 7 6
f 8 17 18
f 8 18 9
f 9 18 10
f 10 19 20
f 10 20 21
f 10 21 22
f 10 22 23
f 10 23 11
f 10 18 19
f 11 23 22
f 11 22 12
f 12 22 21
f 12 21 24
f 12 24 25
f 12 25 13
f 13 25 26
f 13 26 27
f 13 27 14
f 14 16 15
f 14 27 28
f 14 28 29
f 14 29 16
f 16 29 28
f 16 28 30
f 17 31 32
f 17 32 33
f 17 33 34
f 17 34 35
f 17 35 36
f 17 36 37
f 17 37 38
f 17 38 39
f 17 39 18
f 18 39 40
f 18 40 19
f 19 40 20
f 20 40 41
f 20 41 42
f 20 42 43
f 20 43 44
f 20 44 21
f 21 45 24
f 21 44 46
f 21 46 45
f 24 47 48
f 24 48 49
f 24 49 50
f 24 50 51
f 24 51 52
f 24 52 25
f 24 45 47
f 25 52 53
f 25 53 26
f 26 53 27
f 27 53 54
f 27 54 28
f 28 54 55
f 28 55 30
f 30 55 57
f 30 57 58
f 30 58 59
f 30 59 56
f 31 60 62
f 31 62 32
f 32 61 34
f 32 34 33
f 32 62 90
f 32 90 130
f 32 130 197
f 32 197 200
f 32 200 199
f 32 199 251
f 32 251 289
f 32 289 322
f 32 322 324
f 32 324 291
f 32 291 255
f 32 255 254
f 32 254 253
f 32 253 203
f 32 203 202
f 32 202 201
f 32 201 205
f 32 205 147
f 32 147 146
f 32 146 144
f 32 144 143
f 32 143 99
f 32 99 98
f 32 98 97
f 32 97 142
f 32 142 141
f 32 141 140
f 32 140 139
f 32 139 137
f 32 137 136
f 32 136 94
f 32 94 66
f 32 66 65
f 32 65 64
f 32 64 61
f 34 63 35
f 34 61 64
f 34 64 65
f 34 65 66
f 34 66 63
f 35 63 37
f 35 37 36
f 37 63 67
f 37 67 68
f 37 68 38
f 38 68 41
f 38 41 40
f 38 40 39
f 41 68 42
f 42 68 69
f 42 69 43
f 43 69 70
f 43 70 71
f 43 71 44
f 44 71 72
f 44 72 46
f 45 46 72
f 45 72 73
f 45 73 47
f 47 73 74
f 47 74 48
f 48 74 49
f 49 74 75
f 49 75 76
f 49 76 77
f 49 77 50
f 50 77 78
f 50 78 52
f 50 52 79
f 50 79 51
f 51 79 52
f 52 78 80
f 52 80 81
f 52 81 53
f 53 81 54
f 54 80 82
f 54 82 83
f 54 83 55
f 54 81 80
f 55 83 84
f 55 84 57
f 56 59 85
f 56 85 86
f 57 84 58
f 58 84 59
f 59 84 85
f 60 87 62
f 60 88 89
f 60 89 87
f 62 87 89
f 62 89 91
f 62 91 92
f 62 92 90
f 63 93 67
f 63 66 93
f 66 94 93
f 67 93 68
f 68 93 95
f 68 95 69
f 69 95 70
f 70 95 96
f 70 96 71
f 71 96 97
f 71 97 98
f 71 98 99
f 71 99 100
f 71 100 101
f 71 101 72
f 72 101 102
f 72 102 73
f 73 103 74
f 73 102 104
f 73 104 103
f 74 103 105
f 74 105 106
f 74 106 75
f 75 106 107
f 75 107 108
f 75 108 76
f 76 108 109
f 76 109 110
f 76 110 77
f 77 110 111
f 77 111 112
f 77 112 113
f 77 113 78
f 78 113 80
f 80 113 82
f 82 113 114
f 82 114 115
f 82 115 116
f 82 116 83
f 83 116 117
f 83 117 118
f 83 118 84
f 84 118 119
f 84 119 120
f 84 120 85
f 85 120 121
f 85 121 86
f 86 121 122
f 86 122 123
f 88 124 89
f 89 124 125
f 89 125 126
f 89 126 127
f 89 127 128
f 89 128 129
f 89 129 91
f 90 92 131
f 90 131 132
f 90 132 133
f 90 133 134
f 90 134 135
f 90 135 130
f 91 129 128
f 91 128 127
f 91 127 126
f 91 126 125
f 91 125 196
f 91 196 249
f 91 249 248
f 91 248 288
f 91 288 321
f 91 321 358
f 91 358 357
f 91 357 385
f 91 385 399
f 91 399 406
f 91 406 405
f 91 405 407
f 91 407 403
f 91 403 402
f 91 402 391
f 91 391 366
f 91 366 365
f 91 365 364
f 91 364 359
f 91 359 323
f 91 323 290
f 91 290 252
f 91 252 250
f 91 250 198
f 91 198 135
f 91 135 134
f 91 134 133
f 91 133 132
f 91 132 131
f 91 131 92
f 93 94 136
f 93 136 137
f 93 137 138
f 93 138 95
f 95 138 139
f 95 139 140
f 95 140 141
f 95 141 96
f 96 141 142
f 96 142 97
f 99 143 100
f 100 102 101
f 100 143 144
f 100 144 102
f 102 145 104
f 102 144 146
f 102 146 147
f 102 147 148
f 102 148 145
f 103 104 149
f 103 149 105
f 104 145 149
f 105 150 106
f 105 149 151
f 105 151 150
f 106 152 153
f 106 153 107
f 106 150 152
f 107 153 108
f 108 154 155
f 108 155 156
f 108 156 109
f 108 153 152
f 108 152 154
f 109 156 157
f 109 157 158
f 109 158 110
f 110 158 111
f 111 158 159
f 111 159 112
f 112 159 114
f 112 114 113
f 114 159 160
f 114 160 161
f 114 161 162
f 114 162 115
f 115 162 163
f 115 163 117
f 115 117 116
f 117 163 164
f 117 164 165
f 117 165 166
f 117 166 118
f 118 166 119
f 119 166 120
f 120 166 165
f 120 165 167
f 120 167 121
f 121 167 122
f 122 167 168
f 122 168 169
f 122 169 123
f 123 169 170
f 123 170 171
f 124 172 173
f 124 173 174
f 124 174 175
f 124 175 176
f 124 176 177
f 124 177 178
f 124 178 179
f 124 179 180
f 124 180 181
f 124 181 182
f 124 182 183
f 124 183 184
f 124 184 185
f 124 185 186
f 124 186 187
f 124 187 188
f 124 188 189
f 124 189 190
f 124 190 191
f 124 191 192
f 124 192 193
f 124 193 194
f 124 194 125
f 125 194 195
f 125 195 196
f 130 135 197
f 135 198 199
f 135 199 200
f 135 200 197
f 137 139 138
f 145 148 201
f 145 201 202
f 145 202 203
f 145 203 204
f 145 204 149
f 147 205 148
f 148 205 201
f 149 204 151
f 150 151 204
f 150 204 206
f 150 206 207
f 150 207 208
f 150 208 152
f 152 208 154
f 154 209 210
f 154 210 155
f 154 208 211
f 154 211 212
f 154 212 209
f 155 210 213
f 155 213 156
f 156 213 157
f 157 213 214
f 157 214 215
f 157 215 216
f 157 216 158
f 158 216 159
f 159 216 217
f 159 217 218
f 159 218 161
f 159 161 160
f 161 218 162
f 162 218 219
f 162 219 220
f 162 220 163
f 163 220 164
f 164 220 221
f 164 221 222
f 164 222 223
f 164 223 165
f 165 223 224
f 165 224 167
f 167 224 168
f 168 170 169
f 168 224 223
f 168 223 225
f 168 225 170
f 170 225 226
f 170 226 227
f 170 227 171
f 171 227 228
f 171 228 229
f 171 229 230
f 171 230 173
f 171 173 172
f 173 230 231
f 173 231 232
f 173 232 174
f 174 232 233
f 174 233 175
f 175 233 176
f 176 233 234
f 176 234 235
f 176 235 236
f 176 236 177
f 177 236 178
f 178 236 237
f 178 237 238
f 178 238 179
f 179 238 239
f 179 239 180
f 180 239 181
f 181 239 182
f 182 240 183
f 182 239 240
f 183 240 241
f 183 241 184
f 184 241 242
f 184 242 185
f 185 242 243
f 185 243 186
f 186 243 187
f 187 243 188
f 188 243 244
f 188 244 189
f 189 244 190
f 190 244 245
f 190 245 191
f 191 245 246
f 191 246 192
f 192 246 193
f 193 247 195
f 193 195 194
f 193 246 247
f 195 248 249
f 195 249 196
f 195 247 248
f 198 250 199
f 199 250 252
f 199 252 251
f 203 253 204
f 204 253 254
f 204 254 206
f 206 254 207
f 207 254 255
f 207 255 256
f 207 256 257
f 207 257 208
f 208 257 209
f 208 209 211
f 209 212 211
f 209 257 258
f 209 258 210
f 210 258 213
f 213 258 259
f 213 259 214
f 214 259 260
f 214 260 261
f 214 261 215
f 215 262 217
f 215 217 216
f 215 261 262
f 217 262 263
f 217 263 218
f 218 263 264
f 218 264 265
f 218 265 219
f 219 265 266
f 219 266 221
f 219 221 220
f 221 266 267
f 221 267 222
f 222 267 225
f 222 225 223
f 225 267 268
f 225 268 269
f 225 269 228
f 225 228 226
f 226 228 227
f 228 269 230
f 228 230 229
f 230 269 231
f 231 269 270
f 231 270 271
f 231 271 272
f 231 272 233
f 231 233 232
f 233 272 273
f 233 273 274
f 233 274 234
f 234 274 235
f 235 274 275
f 235 275 276
f 235 276 237
f 235 237 236
f 237 276 238
f 238 277 278
f 238 278 239
f 238 276 277
f 239 278 240
f 240 278 279
f 240 279 280
f 240 280 241
f 241 280 242
f 242 280 281
f 242 281 282
f 242 282 243
f 243 282 244
f 244 282 245
f 245 283 246
f 245 282 284
f 245 284 283
f 246 283 285
f 246 285 247
f 247 285 286
f 247 286 287
f 247 287 288
f 247 288 248
f 251 252 289
f 252 290 289
f 255 291 256
f 256 291 257
f 257 291 292
f 257 292 293
f 257 293 294
f 257 294 258
f 258 295 259
f 258 294 295
f 259 295 260
f 260 296 297
f 260 297 261
f 260 295 294
f 260 294 296
f 261 297 298
f 261 298 262
f 262 298 299
f 262 299 263
f 263 299 300
f 263 300 264
f 264 300 265
f 265 300 301
f 265 301 266
f 266 301 302
f 266 302 303
f 266 303 267
f 267 303 268
f 268 303 304
f 268 304 270
f 268 270 269
f 270 305 271
f 270 304 305
f 271 305 272
f 272 305 306
f 272 306 307
f 272 307 273
f 273 307 308
f 273 308 274
f 274 308 309
f 274 309 275
f 275 309 310
f 275 310 277
f 275 277 276
f 277 311 278
f 277 310 311
f 278 311 312
f 278 312 279
f 279 281 280
f 279 312 281
f 281 313 314
f 281 314 282
f 281 312 313
f 282 314 315
f 282 315 284
f 283 284 316
f 283 316 286
f 283 286 285
f 284 317 316
f 284 315 318
f 284 318 317
f 286 319 320
f 286 320 287
f 286 316 319
f 287 320 321
f 287 321 288
f 289 290 323
f 289 323 322
f 291 324 323
f 291 323 292
f 292 325 326
f 292 326 327
f 292 327 293
f 292 323 328
f 292 328 329
f 292 329 325
f 293 327 294
f 294 327 330
f 294 330 296
f 296 330 331
f 296 331 332
f 296 332 297
f 297 333 298
f 297 332 333
f 298 333 334
f 298 334 335
f 298 335 300
f 298 300 299
f 300 335 336
f 300 336 337
f 300 337 338
f 300 338 301
f 301 338 339
f 301 339 340
f 301 340 341
f 301 341 302
f 302 341 342
f 302 342 304
f 302 304 303
f 304 342 305
f 305 342 306
f 306 343 344
f 306 344 307
f 306 342 345
f 306 345 346
f 306 346 343
f 307 344 347
f 307 347 308
f 308 347 348
f 308 348 309
f 309 348 310
f 310 348 311
f 311 349 312
f 311 348 349
f 312 349 350
f 312 350 313
f 313 350 351
f 313 351 352
f 313 352 315
f 313 315 314
f 315 352 318
f 316 353 319
f 316 317 354
f 316 354 353
f 317 318 352
f 317 352 355
f 317 355 354
f 319 353 356
f 319 356 357
f 319 357 358
f 319 358 320
f 320 358 321
f 322 323 324
f 323 359 328
f 325 360 330
f 325 330 327
f 325 327 326
f 325 329 361
f 325 361 362
f 325 362 360
f 328 359 329
f 329 363 362
f 329 362 361
f 329 359 364
f 329 364 365
f 329 365 366
f 329 366 367
f 329 367 363
f 330 334 368
f 330 368 331
f 330 360 334
f 331 368 332
f 332 368 334
f 332 334 333
f 334 369 370
f 334 370 336
f 334 336 335
f 334 360 369
f 336 370 337
f 337 370 371
f 337 371 338
f 338 371 339
f 339 372 373
f 339 373 374
f 339 374 343
f 339 343 346
f 339 346 342
f 339 342 375
f 339 375 340
f 339 371 372
f 340 375 342
f 340 342 341
f 342 346 345
f 343 374 376
f 343 376 344
f 344 376 347
f 347 376 377
f 347 377 378
f 347 378 348
f 348 378 349
f 349 378 350
f 350 378 379
f 350 379 351
f 351 380 352
f 351 379 380
f 352 380 381
f 352 381 355
f 353 354 355
f 353 355 382
f 353 382 356
f 355 381 383
f 355 383 384
f 355 384 382
f 356 385 386
f 356 386 357
f 356 382 385
f 357 386 385
f 360 362 387
f 360 387 388
f 360 388 372
f 360 372 369
f 362 363 387
f 363 367 389
f 363 389 390
f 363 390 387
f 366 391 367
f 367 391 392
f 367 392 389
f 369 371 370
f 369 372 371
f 372 388 373
f 373 376 374
f 373 388 393
f 373 393 390
f 373 390 394
f 373 394 395
f 373 395 377
f 373 377 376
f 377 395 379
f 377 379 378
f 379 395 396
f 379 396 380
f 380 396 381
f 381 396 383
f 382 384 397
f 382 397 398
f 382 398 399
f 382 399 385
f 383 396 400
f 383 400 384
f 384 400 397
f 387 390 393
f 387 393 388
f 389 392 390
f 390 392 401
f 390 401 394
f 391 402 392
f 392 400 401
f 392 402 398
f 392 398 397
f 392 397 400
f 394 401 400
f 394 400 396
f 394 396 395
f 398 403 404
f 398 404 405
f 398 405 406
f 398 406 399
f 398 402 403
f 403 407 404
f 404 407 405

