# https://github.com/mikedh/trimesh
v -0.02538619 0.01270507 -0.02785573
v -0.02464112 0.01402977 -0.02785573
v -0.02066521 0.01270507 -0.02785573
v -0.03296549 0.01270507 -0.02413865
v -0.03847111 0.01320448 -0.02199783
v -0.03758757 0.01320448 -0.02239980
v -0.03691173 0.01320448 -0.02270240
v -0.03667107 0.01398428 -0.02268208
v -0.03616666 0.01572162 -0.02261659
v -0.03594907 0.01702622 -0.02247658
v -0.03597874 0.01788749 -0.02228914
v -0.03371386 0.01958145 -0.02284693
v -0.02374770 0.01548567 -0.02785573
v -0.03331495 0.02107333 -0.02265272
v -0.02066521 0.01931694 -0.02785573
v -0.02066191 0.01270507 -0.02639238
v -0.03296549 0.01270507 -0.00881417
v -0.05434180 0.01320448 -0.00478545
v -0.05416707 0.01320448 -0.00527775
v -0.05390333 0.01320448 -0.00601168
v -0.05366266 0.01320448 -0.00658527
v -0.05335936 0.01320448 -0.00730340
v -0.05302309 0.01320448 -0.00800571
v -0.05274945 0.01320448 -0.00856350
v -0.05207691 0.01320448 -0.00979651
v -0.05136151 0.01320448 -0.01100693
v -0.05059336 0.01320448 -0.01219251
v -0.05021753 0.01320448 -0.01270965
v -0.04977906 0.01320448 -0.01331034
v -0.04881640 0.01320448 -0.01445302
v -0.04836803 0.01320448 -0.01492725
v -0.04780099 0.01320448 -0.01552569
v -0.04732296 0.01320448 -0.01597959
v -0.04670976 0.01320448 -0.01654867
v -0.04553280 0.01320448 -0.01755359
v -0.04428992 0.01320448 -0.01851561
v -0.04296462 0.01320448 -0.01943923
v -0.04217998 0.01320448 -0.01994056
v -0.04156019 0.01320448 -0.02033576
v -0.04073600 0.01320448 -0.02080547
v -0.04005686 0.01320448 -0.02119163
v -0.03932497 0.01320448 -0.02156876
v -0.03830956 0.01400226 -0.02194815
v -0.03809528 0.01538622 -0.02181039
v -0.03780845 0.01678498 -0.02167264
v -0.03728427 0.01844720 -0.02155747
v -0.03546444 0.01958040 -0.02211526
v -0.03489081 0.02126378 -0.02195041
v -0.03296549 0.02222133 -0.02249239
v -0.03287318 0.02251019 -0.02245174
v -0.02346417 0.01589515 -0.02785573
v -0.03463366 0.02206051 -0.02184653
v -0.02749283 0.02251019 -0.02414091
v -0.02733129 0.02251019 -0.02417930
v -0.02577851 0.02251019 -0.02452707
v -0.02562027 0.02251019 -0.02455869
v -0.02407078 0.02251019 -0.02486355
v -0.02212568 0.02251019 -0.02521583
v -0.02083005 0.02251019 -0.02543037
v -0.02066191 0.02250913 -0.02545521
v -0.02066191 0.01996236 -0.02639238
v -0.02070477 0.01927462 -0.02785573
v -0.03296549 0.02351429 -0.02213558
v -0.02066191 0.01270507 -0.01208411
v -0.03990521 0.01320448 -0.00478545
v -0.05419674 0.01378007 -0.00478545
v -0.05373849 0.01398639 -0.00593490
v -0.05320111 0.01398639 -0.00722887
v -0.05258791 0.01398428 -0.00848898
v -0.05191537 0.01398745 -0.00971972
v -0.05119997 0.01398533 -0.01093015
v -0.05043182 0.01398428 -0.01211573
v -0.04967026 0.01388164 -0.01321098
v -0.04866145 0.01398533 -0.01438075
v -0.04765263 0.01398639 -0.01545568
v -0.04656799 0.01398745 -0.01647867
v -0.04539434 0.01398533 -0.01748810
v -0.04414816 0.01398533 -0.01844786
v -0.04282286 0.01398533 -0.01937826
v -0.04142172 0.01398533 -0.02027027
v -0.03993488 0.01398533 -0.02111711
v -0.03966454 0.01538516 -0.02099516
v -0.03933486 0.01679133 -0.02086645
v -0.03903156 0.01818163 -0.02069030
v -0.03845792 0.01959521 -0.02063610
v -0.03719525 0.01925874 -0.02139713
v -0.03672382 0.02098234 -0.02116453
v -0.03292263 0.02251019 -0.02243141
v -0.02271910 0.01693946 -0.02785573
v -0.03427101 0.02351429 -0.02157328
v -0.03628204 0.02238322 -0.02096129
v -0.02066191 0.02251019 -0.02480258
v -0.02092236 0.01904078 -0.02785573
v -0.03296549 0.02351429 -0.00598458
v -0.02202678 0.01778591 -0.02785573
v -0.02066191 0.02251019 -0.01069755
v -0.03482487 0.02351429 -0.00478545
v -0.03619303 0.02072311 -0.00478545
v -0.05414399 0.01398639 -0.00478545
v -0.05384399 0.01507197 -0.00478545
v -0.05339233 0.01538198 -0.00577456
v -0.05286814 0.01538410 -0.00707306
v -0.05226153 0.01538198 -0.00833542
v -0.05158899 0.01538622 -0.00956842
v -0.05087359 0.01538833 -0.01078110
v -0.05011533 0.01538516 -0.01196894
v -0.04927795 0.01538516 -0.01312291
v -0.04835485 0.01538410 -0.01423622
v -0.04735263 0.01538622 -0.01531567
v -0.04626799 0.01538516 -0.01634769
v -0.04509763 0.01538727 -0.01735487
v -0.04385474 0.01538516 -0.01831462
v -0.04254263 0.01538516 -0.01924728
v -0.04114809 0.01538516 -0.02013929
v -0.04083820 0.01678710 -0.01999928
v -0.04049203 0.01818586 -0.01983894
v -0.04011950 0.01958251 -0.01965828
v -0.03826341 0.02098128 -0.02033576
v -0.03782164 0.02238428 -0.02013477
v -0.03581061 0.02351429 -0.02083709
v -0.03714580 0.02351429 -0.02012122
v -0.05065600 0.02351429 -0.00478545
v -0.05375167 0.01538410 -0.00478545
v -0.05362640 0.01579146 -0.00478545
v -0.05301649 0.01678921 -0.00559842
v -0.05248901 0.01678392 -0.00689691
v -0.05190548 0.01678604 -0.00816831
v -0.05123623 0.01678816 -0.00940357
v -0.05052083 0.01678710 -0.01061399
v -0.04976257 0.01678286 -0.01180409
v -0.04893508 0.01678604 -0.01296257
v -0.04801858 0.01678604 -0.01408266
v -0.04702295 0.01678710 -0.01516211
v -0.04594490 0.01678604 -0.01620090
v -0.04477784 0.01678498 -0.01719679
v -0.04353496 0.01678604 -0.01816558
v -0.04222614 0.01678498 -0.01909824
v -0.04187997 0.01818375 -0.01893564
v -0.04150414 0.01958145 -0.01875950
v -0.03971399 0.02098339 -0.01947311
v -0.03744251 0.02351429 -0.01996089
v -0.03927552 0.02238216 -0.01926535
v -0.05034610 0.02351429 -0.00560294
v -0.05117689 0.02238428 -0.00478545
v -0.05331320 0.01678604 -0.00478545
v -0.05283847 0.01818586 -0.00478545
v -0.05260440 0.01818692 -0.00540647
v -0.05208350 0.01818798 -0.00670722
v -0.05305935 0.01754044 -0.00478545
v -0.05150987 0.01818375 -0.00798539
v -0.05085710 0.01818163 -0.00922517
v -0.05014500 0.01818586 -0.01044011
v -0.04938674 0.01818269 -0.01162795
v -0.04855925 0.01818269 -0.01278643
v -0.04764934 0.01818586 -0.01390878
v -0.04666030 0.01818163 -0.01498596
v -0.04558555 0.01818481 -0.01603605
v -0.04442838 0.01818375 -0.01703645
v -0.04318880 0.01818586 -0.01800524
v -0.04281296 0.01958463 -0.01782910
v -0.04109205 0.02098234 -0.01856980
v -0.04065357 0.02238322 -0.01836430
v -0.03889309 0.02351429 -0.01908694
v -0.05025049 0.02351429 -0.00585134
v -0.05068237 0.02238533 -0.00605459
v -0.05169778 0.02098339 -0.00498417
v -0.05177031 0.02098339 -0.00478545
v -0.05262747 0.01875616 -0.00478545
v -0.05216263 0.01958357 -0.00520097
v -0.05164174 0.01958145 -0.00650172
v -0.05107799 0.01957934 -0.00778440
v -0.05044830 0.01958145 -0.00903548
v -0.04973290 0.01958463 -0.01024816
v -0.04896805 0.01958569 -0.01143599
v -0.04814715 0.01958357 -0.01259673
v -0.04724054 0.01958040 -0.01371683
v -0.04635370 0.01950104 -0.01474207
v -0.04519324 0.01958463 -0.01585313
v -0.04403937 0.01958251 -0.01685579
v -0.04362397 0.02098339 -0.01666158
v -0.04239757 0.02098339 -0.01763489
v -0.04195251 0.02238322 -0.01742487
v -0.04026126 0.02351429 -0.01818365
v -0.04968345 0.02351429 -0.00713629
v -0.05012192 0.02238216 -0.00733953
v -0.05117689 0.02098657 -0.00628493
v -0.05231758 0.01958251 -0.00478545
v -0.05186921 0.02073052 -0.00478545
v -0.05061314 0.02098128 -0.00756761
v -0.04999005 0.02098234 -0.00882094
v -0.04927135 0.02098339 -0.01003136
v -0.04850650 0.02098551 -0.01122146
v -0.04769549 0.02098339 -0.01238672
v -0.04680866 0.02098339 -0.01351810
v -0.04573391 0.02110084 -0.01465626
v -0.04477125 0.02098128 -0.01565440
v -0.04317231 0.02238639 -0.01645383
v -0.04156019 0.02351429 -0.01723970
v -0.04131293 0.02351429 -0.01742036
v -0.04918234 0.02351429 -0.00815024
v -0.04949223 0.02238110 -0.00858834
v -0.04877024 0.02238322 -0.00979876
v -0.04800869 0.02238639 -0.01098886
v -0.04721087 0.02237793 -0.01215863
v -0.04629106 0.02230915 -0.01339616
v -0.04536797 0.02238110 -0.01438979
v -0.04431300 0.02238110 -0.01543761
v -0.04277340 0.02351429 -0.01626865
v -0.04906036 0.02351429 -0.00838736
v -0.04848672 0.02351429 -0.00936744
v -0.04834826 0.02351429 -0.00960230
v -0.04759000 0.02351429 -0.01079465
v -0.04679218 0.02351429 -0.01196443
v -0.04608666 0.02351429 -0.01288353
v -0.04590534 0.02351429 -0.01311839
v -0.04512400 0.02351429 -0.01401492
v -0.04495917 0.02351429 -0.01420009
v -0.04410860 0.02351429 -0.01504919
v -0.04391079 0.02351429 -0.01524340
f 1 2 13
f 1 13 51
f 1 51 89
f 1 89 95
f 1 95 93
f 1 93 62
f 1 62 15
f 1 15 3
f 1 3 16
f 1 16 64
f 1 64 17
f 1 17 4
f 1 4 5
f 1 5 6
f 1 6 7
f 1 7 8
f 1 8 9
f 1 9 10
f 1 10 11
f 1 11 12
f 1 12 2
f 2 12 14
f 2 14 13
f 3 15 61
f 3 61 16
f 4 17 18
f 4 18 19
f 4 19 20
f 4 20 21
f 4 21 22
f 4 22 23
f 4 23 24
f 4 24 25
f 4 25 26
f 4 26 27
f 4 27 28
f 4 28 29
f 4 29 30
f 4 30 31
f 4 31 32
f 4 32 33
f 4 33 34
f 4 34 35
f 4 35 36
f 4 36 37
f 4 37 38
f 4 38 39
f 4 39 40
f 4 40 41
f 4 41 42
f 4 42 5
f 5 42 43
f 5 43 6
f 6 43 7
f 7 43 8
f 8 43 9
f 9 43 44
f 9 44 10
f 10 44 45
f 10 45 11
f 11 45 46
f 11 46 47
f 11 47 12
f 12 47 48
f 12 48 14
f 13 49 50
f 13 50 51
f 13 14 49
f 14 48 52
f 14 52 49
f 15 53 54
f 15 54 55
f 15 55 56
f 15 56 57
f 15 57 58
f 15 58 59
f 15 59 60
f 15 60 61
f 15 62 63
f 15 63 53
f 16 61 60
f 16 60 92
f 16 92 96
f 16 96 64
f 17 64 65
f 17 65 18
f 18 66 67
f 18 67 19
f 18 65 98
f 18 98 97
f 18 97 122
f 18 122 144
f 18 144 167
f 18 167 188
f 18 188 187
f 18 187 168
f 18 168 146
f 18 146 149
f 18 149 145
f 18 145 124
f 18 124 123
f 18 123 100
f 18 100 99
f 18 99 66
f 19 67 20
f 20 67 68
f 20 68 21
f 21 68 22
f 22 68 23
f 23 68 69
f 23 69 24
f 24 69 25
f 25 69 70
f 25 70 26
f 26 71 27
f 26 70 71
f 27 71 72
f 27 72 73
f 27 73 28
f 28 73 29
f 29 73 74
f 29 74 30
f 30 74 75
f 30 75 31
f 31 75 32
f 32 75 33
f 33 75 76
f 33 76 34
f 34 76 77
f 34 77 35
f 35 77 36
f 36 78 79
f 36 79 37
f 36 77 78
f 37 79 38
f 38 79 39
f 39 79 80
f 39 80 40
f 40 80 81
f 40 81 41
f 41 81 42
f 42 81 43
f 43 81 44
f 44 81 82
f 44 82 45
f 45 82 83
f 45 83 46
f 46 83 84
f 46 84 85
f 46 85 86
f 46 86 47
f 47 86 48
f 48 86 87
f 48 87 52
f 49 88 50
f 49 52 88
f 50 89 51
f 50 88 63
f 50 63 89
f 52 90 63
f 52 63 88
f 52 87 91
f 52 91 90
f 53 63 54
f 54 63 55
f 55 63 56
f 56 63 57
f 57 63 58
f 58 63 59
f 59 63 60
f 60 63 92
f 62 93 63
f 63 94 96
f 63 96 92
f 63 93 95
f 63 95 89
f 63 90 120
f 63 120 121
f 63 121 141
f 63 141 163
f 63 163 183
f 63 183 199
f 63 199 198
f 63 198 208
f 63 208 219
f 63 219 218
f 63 218 217
f 63 217 216
f 63 216 215
f 63 215 214
f 63 214 213
f 63 213 212
f 63 212 211
f 63 211 210
f 63 210 209
f 63 209 200
f 63 200 184
f 63 184 164
f 63 164 143
f 63 143 122
f 63 122 97
f 63 97 94
f 64 96 97
f 64 97 98
f 64 98 65
f 66 99 67
f 67 99 100
f 67 100 101
f 67 101 102
f 67 102 68
f 68 102 103
f 68 103 69
f 69 103 104
f 69 104 70
f 70 104 105
f 70 105 71
f 71 105 106
f 71 106 72
f 72 106 73
f 73 106 107
f 73 107 108
f 73 108 74
f 74 108 109
f 74 109 75
f 75 109 110
f 75 110 76
f 76 110 111
f 76 111 77
f 77 111 112
f 77 112 78
f 78 112 113
f 78 113 79
f 79 113 114
f 79 114 80
f 80 114 82
f 80 82 81
f 82 114 83
f 83 114 115
f 83 115 84
f 84 115 116
f 84 116 85
f 85 116 117
f 85 117 118
f 85 118 87
f 85 87 86
f 87 118 119
f 87 119 91
f 90 91 120
f 91 119 121
f 91 121 120
f 94 97 96
f 100 123 101
f 101 123 124
f 101 124 125
f 101 125 102
f 102 125 126
f 102 126 127
f 102 127 103
f 103 127 128
f 103 128 104
f 104 128 105
f 105 128 129
f 105 129 130
f 105 130 106
f 106 130 131
f 106 131 107
f 107 131 132
f 107 132 108
f 108 132 133
f 108 133 109
f 109 133 134
f 109 134 110
f 110 134 111
f 111 134 135
f 111 135 136
f 111 136 112
f 112 136 137
f 112 137 113
f 113 137 115
f 113 115 114
f 115 137 116
f 116 137 138
f 116 138 139
f 116 139 117
f 117 140 118
f 117 139 140
f 118 140 119
f 119 141 121
f 119 140 142
f 119 142 141
f 122 143 144
f 124 145 125
f 125 146 147
f 125 147 148
f 125 148 126
f 125 145 149
f 125 149 146
f 126 148 150
f 126 150 127
f 127 150 151
f 127 151 128
f 128 151 152
f 128 152 129
f 129 152 130
f 130 152 153
f 130 153 131
f 131 153 154
f 131 154 155
f 131 155 132
f 132 155 156
f 132 156 133
f 133 156 157
f 133 157 134
f 134 157 158
f 134 158 135
f 135 158 159
f 135 159 136
f 136 159 137
f 137 159 138
f 138 159 160
f 138 160 139
f 139 161 140
f 139 160 161
f 140 161 162
f 140 162 142
f 141 142 163
f 142 162 163
f 143 164 144
f 144 164 165
f 144 165 166
f 144 166 167
f 146 168 147
f 147 168 169
f 147 169 148
f 148 169 170
f 148 170 171
f 148 171 150
f 150 171 172
f 150 172 151
f 151 172 152
f 152 172 173
f 152 173 153
f 153 174 175
f 153 175 154
f 153 173 174
f 154 175 155
f 155 175 176
f 155 176 177
f 155 177 156
f 156 177 178
f 156 178 157
f 157 178 179
f 157 179 158
f 158 179 160
f 158 160 159
f 160 179 180
f 160 180 181
f 160 181 161
f 161 181 162
f 162 181 182
f 162 182 183
f 162 183 163
f 164 184 185
f 164 185 165
f 165 186 166
f 165 185 186
f 166 186 169
f 166 169 187
f 166 187 188
f 166 188 167
f 168 187 169
f 169 186 170
f 170 186 171
f 171 186 189
f 171 189 190
f 171 190 172
f 172 190 173
f 173 190 191
f 173 191 192
f 173 192 174
f 174 192 193
f 174 193 175
f 175 193 194
f 175 194 176
f 176 194 177
f 177 195 178
f 177 194 195
f 178 195 196
f 178 196 180
f 178 180 179
f 180 197 182
f 180 182 181
f 180 196 197
f 182 198 199
f 182 199 183
f 182 197 198
f 184 200 185
f 185 200 201
f 185 201 190
f 185 190 189
f 185 189 186
f 190 201 191
f 191 202 203
f 191 203 192
f 191 201 202
f 192 203 204
f 192 204 193
f 193 204 205
f 193 205 194
f 194 205 206
f 194 206 195
f 195 206 207
f 195 207 196
f 196 207 197
f 197 207 208
f 197 208 198
f 200 209 201
f 201 209 210
f 201 210 211
f 201 211 202
f 202 211 212
f 202 212 203
f 203 212 213
f 203 213 204
f 204 213 214
f 204 214 205
f 205 214 215
f 205 215 216
f 205 216 217
f 205 217 206
f 206 217 218
f 206 218 207
f 207 218 219
f 207 219 208

