# https://github.com/mikedh/trimesh
v -0.02885355 0.00011386 -0.03143965
v -0.02879032 0.00084938 -0.03070599
v -0.02880197 0.00144724 -0.03145924
v -0.02880197 0.00106964 -0.03228613
v -0.02883858 -0.00032667 -0.03202806
v -0.02884856 -0.00131392 -0.03143627
v -0.02883525 -0.00032667 -0.03094176
v -0.02852244 0.00023972 -0.02785646
v -0.02847418 0.00124664 -0.02785646
v -0.02845422 0.00158097 -0.02785646
v -0.02870047 0.00223389 -0.03074517
v -0.02882859 -0.00048006 -0.03076611
v -0.02852743 -0.00032667 -0.02768352
v -0.02868217 0.00282781 -0.03140046
v -0.02868716 0.00267442 -0.03215439
v -0.02859232 0.00273341 -0.03282996
v -0.02869881 0.00004306 -0.03289684
v -0.02879698 -0.00032667 -0.03241043
v -0.02883359 -0.00047220 -0.03221992
v -0.02880696 -0.00179377 -0.03220303
v -0.02876537 -0.00264336 -0.03214156
v -0.02877369 -0.00277709 -0.03139911
v -0.02879032 -0.00190391 -0.03075463
v -0.02835771 0.00269802 -0.02785646
v -0.02832443 0.00305201 -0.02785646
v -0.02855405 0.00351613 -0.03064113
v -0.02851578 -0.00132178 -0.02768352
v -0.02713142 -0.00904278 -0.02768284
v -0.01929445 -0.00032667 -0.02768352
v -0.01721457 0.02236434 -0.02785646
v -0.01793837 0.02180975 -0.02785646
v -0.01798330 0.02177435 -0.02785646
v -0.01910310 0.02086577 -0.02785646
v -0.01974204 0.02026791 -0.02785646
v -0.02070377 0.01927280 -0.02785646
v -0.02092174 0.01903680 -0.02785646
v -0.02202491 0.01778209 -0.02785646
v -0.02271543 0.01693644 -0.02785646
v -0.02346085 0.01589019 -0.02785646
v -0.02374205 0.01548113 -0.02785646
v -0.02464389 0.01401795 -0.02785646
v -0.02541427 0.01264524 -0.02785646
v -0.02610146 0.01117814 -0.02785646
v -0.02644256 0.01038362 -0.02785646
v -0.02666885 0.00981723 -0.02785646
v -0.02702659 0.00876705 -0.02785646
v -0.02719797 0.00819279 -0.02785646
v -0.02752243 0.00691841 -0.02785646
v -0.02786353 0.00555750 -0.02785646
v -0.02811977 0.00443652 -0.02785646
v -0.02814307 0.00431459 -0.02785646
v -0.02849748 0.00417692 -0.03124981
v -0.02858234 0.00363020 -0.03202671
v -0.02844257 0.00412579 -0.03272322
v -0.02861062 0.00145117 -0.03297993
v -0.02810813 0.00409039 -0.03339473
v -0.02822626 0.00303628 -0.03339540
v -0.02838766 0.00044819 -0.03336095
v -0.02840430 -0.00032667 -0.03335217
v -0.02841595 -0.00090879 -0.03334406
v -0.02868217 -0.00145945 -0.03289886
v -0.02863225 -0.00296982 -0.03287184
v -0.02869881 -0.00354408 -0.03215439
v -0.02862726 -0.00421273 -0.03133764
v -0.02869881 -0.00318222 -0.03072288
v -0.02849748 -0.00176624 -0.02768352
v -0.02842759 -0.00283609 -0.02768352
v -0.02832610 0.00492818 -0.03050129
v -0.01810809 -0.00904278 -0.02768284
v -0.02839099 -0.00315075 -0.02768352
v -0.02829781 -0.00388234 -0.02768352
v -0.02823957 -0.00426386 -0.02768352
v -0.02800330 -0.00558544 -0.02768352
v -0.02769215 -0.00697782 -0.02768352
v -0.02734273 -0.00831906 -0.02768352
v -0.02728616 -0.00853539 -0.02768352
v -0.02688183 -0.00990417 -0.02768284
v -0.01185515 -0.01767237 -0.02768284
v -0.01721457 0.02250988 -0.02916165
v -0.01736100 0.02240368 -0.02916165
v -0.01848746 0.02150689 -0.02916165
v -0.01951242 0.02061011 -0.02916165
v -0.02060061 0.01955599 -0.02916165
v -0.02029778 0.01976446 -0.02830909
v -0.02176035 0.01827768 -0.02916165
v -0.02227949 0.01764049 -0.02916165
v -0.02264721 0.01717243 -0.02916165
v -0.02310977 0.01655884 -0.02916165
v -0.02378531 0.01559913 -0.02916165
v -0.02476036 0.01403762 -0.02916165
v -0.02464222 0.01402189 -0.02785714
v -0.02513973 0.01336897 -0.02916165
v -0.02522126 0.01321950 -0.02916165
v -0.02559064 0.01250758 -0.02916165
v -0.02599996 0.01166586 -0.02916165
v -0.02627617 0.01104834 -0.02916165
v -0.02683025 0.00971889 -0.02916165
v -0.02743258 0.00838945 -0.03036415
v -0.02749248 0.00822032 -0.03036618
v -0.02769714 0.00724094 -0.02968048
v -0.02796170 0.00652902 -0.03020607
v -0.02841262 0.00474331 -0.03203549
v -0.02823957 0.00559683 -0.03113159
v -0.02815804 0.00563617 -0.03267795
v -0.02793342 0.00546703 -0.03329947
v -0.02826453 0.00171863 -0.03344607
v -0.02742426 0.00533724 -0.03385884
v -0.02791511 0.00278455 -0.03375683
v -0.02800330 0.00100671 -0.03379398
v -0.02801994 -0.00025193 -0.03379398
v -0.02806486 -0.00032667 -0.03374332
v -0.02801828 -0.00032667 -0.03379331
v -0.02798500 -0.00163251 -0.03377710
v -0.02836936 -0.00242703 -0.03332920
v -0.02814972 -0.00402394 -0.03344877
v -0.02850746 -0.00432680 -0.03282658
v -0.02862393 -0.00422847 -0.03208954
v -0.02858566 -0.00405933 -0.03056412
v -0.02853408 -0.00490499 -0.03207940
v -0.02841262 -0.00557758 -0.03124509
v -0.02848250 -0.00492465 -0.03061681
v -0.02834773 -0.00562478 -0.03047494
v -0.02818134 -0.00642716 -0.03045941
v -0.02786852 -0.00756781 -0.03023579
v -0.02744257 -0.00897985 -0.03006217
v -0.02720629 -0.00988450 -0.03061816
v -0.02677867 -0.01021883 -0.02768284
v -0.02253739 -0.01767237 -0.02768284
v -0.01601490 -0.01767237 -0.03337851
v -0.01632106 -0.01767237 -0.03361901
v -0.01658229 -0.01767237 -0.03379061
v -0.02212641 0.00838945 -0.03405137
v -0.02231276 0.00838945 -0.03416014
v -0.02271543 0.00838945 -0.03436348
v -0.02272874 0.00838945 -0.03436821
v -0.02276035 0.00838945 -0.03437429
v -0.02343756 0.00838945 -0.03449724
v -0.02368215 0.00838945 -0.03453710
v -0.02423124 0.00838945 -0.03458372
v -0.02427117 0.00838945 -0.03458237
v -0.02471544 0.00838945 -0.03455940
v -0.02503158 0.00838945 -0.03453508
v -0.02507317 0.00838945 -0.03453035
v -0.02582026 0.00838945 -0.03429863
v -0.02631943 0.00838945 -0.03404935
v -0.02676037 0.00838945 -0.03371697
v -0.02682859 0.00838945 -0.03365482
v -0.02688183 0.00838945 -0.03359132
v -0.02723624 0.00838945 -0.03311234
v -0.02730446 0.00838945 -0.03301979
v -0.02730945 0.00838945 -0.03300966
v -0.02747751 0.00838945 -0.03234423
v -0.02748749 0.00838945 -0.03229829
v -0.02750413 0.00838945 -0.03200239
v -0.02752077 0.00838945 -0.03166799
v -0.02744922 0.00838945 -0.03054655
v -0.02772377 0.00772080 -0.03152679
v -0.02792343 0.00691841 -0.03099783
v -0.02822626 0.00571090 -0.03201253
v -0.02809814 0.00632055 -0.03168758
v -0.02778866 0.00646608 -0.03314477
v -0.02786852 0.00695774 -0.03249420
v -0.02747751 0.00756346 -0.03317179
v -0.02725288 0.00692628 -0.03368049
v -0.02658898 0.00780733 -0.03402638
v -0.02672709 0.00663915 -0.03413447
v -0.02744423 0.00441685 -0.03394531
v -0.02768716 0.00138430 -0.03403719
v -0.02766386 -0.00001594 -0.03405813
v -0.02766719 -0.00135325 -0.03402908
v -0.02790180 -0.00312322 -0.03374534
v -0.02746420 -0.00546351 -0.03382912
v -0.02805155 -0.00527865 -0.03334406
v -0.02829947 -0.00565231 -0.03271714
v -0.02841262 -0.00560904 -0.03199496
v -0.02823957 -0.00642323 -0.03193686
v -0.02811145 -0.00691489 -0.03109511
v -0.02769548 -0.00838986 -0.03088771
v -0.02748250 -0.00904278 -0.03076949
v -0.02700330 -0.01055316 -0.03114443
v -0.02687850 -0.01056889 -0.02974736
v -0.02750912 -0.00904278 -0.03120523
v -0.02732276 -0.00968784 -0.03152207
v -0.02644256 -0.01113135 -0.02768284
v -0.02293340 -0.01767237 -0.02980073
v -0.02325952 -0.01677558 -0.02768284
v -0.01698163 -0.01767237 -0.03399463
v -0.01726948 -0.01767237 -0.03410677
v -0.01764719 -0.01767237 -0.03418919
v -0.01795501 -0.01767237 -0.03425472
v -0.01813471 -0.01767237 -0.03427363
v -0.01848413 -0.01767237 -0.03430606
v -0.01869711 -0.01767237 -0.03432430
v -0.02496835 0.00645035 -0.03457493
v -0.02502658 0.00753200 -0.03456683
v -0.01950410 -0.01692898 -0.03436754
v -0.02508981 0.00828719 -0.03453440
v -0.02582359 0.00838158 -0.03429930
v -0.02731611 0.00836978 -0.03301303
v -0.02752243 0.00827932 -0.03231315
v -0.02789515 0.00710327 -0.03187268
v -0.02599165 0.00680041 -0.03437092
v -0.02672875 0.00571090 -0.03419189
v -0.02748416 0.00289075 -0.03403651
v -0.02720962 0.00151017 -0.03415811
v -0.02677867 0.00457025 -0.03421013
v -0.02602992 0.00528217 -0.03439996
v -0.02667384 0.00316214 -0.03427296
v -0.02629115 0.00155344 -0.03438848
v -0.02724456 0.00026726 -0.03415946
v -0.02638266 0.00007059 -0.03436551
v -0.02661228 -0.00032667 -0.03430674
v -0.02750912 -0.00032667 -0.03409191
v -0.02721627 -0.00090879 -0.03415474
v -0.02671378 -0.00450379 -0.03419865
v -0.02670879 -0.00617543 -0.03414933
v -0.02747751 -0.00294229 -0.03401895
v -0.02744589 -0.00440940 -0.03394396
v -0.02670213 -0.00717055 -0.03407975
v -0.02737767 -0.00669856 -0.03368927
v -0.02778866 -0.00677722 -0.03319679
v -0.02800164 -0.00695422 -0.03257459
v -0.02795837 -0.00756387 -0.03177675
v -0.02765887 -0.00862979 -0.03172946
v -0.02752909 -0.00904278 -0.03164840
v -0.02669880 -0.01134374 -0.03132007
v -0.02668882 -0.01122181 -0.03039185
v -0.02720296 -0.00982550 -0.03223208
v -0.02673707 -0.01118248 -0.03194429
v -0.02622792 -0.01166627 -0.02768284
v -0.02297666 -0.01767237 -0.03005272
v -0.02412641 -0.01552087 -0.02768284
v -0.02377200 -0.01662219 -0.03016283
v -0.02347084 -0.01685031 -0.02933324
v -0.01912640 -0.01767237 -0.03433578
v -0.02580529 0.00122697 -0.03449252
v -0.02501993 -0.00613217 -0.03443104
v -0.02578532 0.00283961 -0.03448508
v -0.02588848 0.00379540 -0.03445536
v -0.01949079 -0.01767237 -0.03432565
v -0.01971542 -0.01747177 -0.03433038
v -0.02127948 -0.01528094 -0.03436010
v -0.02507151 -0.00738688 -0.03441347
v -0.02596669 0.00003126 -0.03446009
v -0.02631611 -0.00138865 -0.03436146
v -0.02667717 -0.00210844 -0.03425945
v -0.02590679 -0.00381941 -0.03438780
v -0.02598665 -0.00680082 -0.03428917
v -0.02603657 -0.00844493 -0.03417230
v -0.02662393 -0.00829940 -0.03395071
v -0.02705987 -0.00845673 -0.03352173
v -0.02753408 -0.00789034 -0.03304478
v -0.02677201 -0.00973504 -0.03335284
v -0.02763059 -0.00838986 -0.03236719
v -0.02613807 -0.01257092 -0.03168015
v -0.02606319 -0.01274005 -0.03104106
v -0.02643092 -0.01192980 -0.03086812
v -0.02637933 -0.01173707 -0.02942782
v -0.02696836 -0.00984124 -0.03285563
v -0.02658067 -0.01115101 -0.03265836
v -0.02631777 -0.01192587 -0.03253541
v -0.02604988 -0.01259452 -0.03241719
v -0.02603491 -0.01264565 -0.03010406
v -0.02583857 -0.01249619 -0.02768284
v -0.02304821 -0.01767237 -0.03056682
v -0.02416468 -0.01546187 -0.02768284
v -0.02437933 -0.01554840 -0.02949403
v -0.02445587 -0.01568214 -0.03079854
v -0.02374704 -0.01683458 -0.03141262
v -0.02310644 -0.01767237 -0.03102485
v -0.02591511 -0.00032667 -0.03446211
v -0.02579364 -0.00118412 -0.03446482
v -0.02024620 -0.01767237 -0.03425202
v -0.02043089 -0.01749537 -0.03426147
v -0.02126783 -0.01595746 -0.03430606
v -0.02256734 -0.01401836 -0.03433714
v -0.02505154 -0.00829940 -0.03439186
v -0.02583191 -0.00278102 -0.03442901
v -0.02514139 -0.00905065 -0.03434524
v -0.02510978 -0.00975864 -0.03429863
v -0.02581860 -0.00975470 -0.03405137
v -0.02631111 -0.00920405 -0.03394666
v -0.02615804 -0.01039976 -0.03369062
v -0.02716802 -0.00904278 -0.03301168
v -0.02718300 -0.00904278 -0.03297520
v -0.02611810 -0.01142241 -0.03333055
v -0.02572709 -0.01281478 -0.03305627
v -0.02533274 -0.01412063 -0.03215574
v -0.02540429 -0.01404983 -0.03140046
v -0.02577035 -0.01330644 -0.03075463
v -0.02513474 -0.01417176 -0.03282388
v -0.02561893 -0.01330644 -0.02931770
v -0.02576868 -0.01264172 -0.02768284
v -0.02483191 -0.01436449 -0.02768284
v -0.02489846 -0.01486008 -0.03030267
v -0.02537267 -0.01406556 -0.03065735
v -0.02460894 -0.01548547 -0.03183215
v -0.02421793 -0.01613839 -0.03157949
v -0.02375536 -0.01680705 -0.03204022
v -0.02312974 -0.01767237 -0.03163894
v -0.02311809 -0.01767237 -0.03131669
v -0.02041093 -0.01767237 -0.03422634
v -0.02357899 -0.01459262 -0.03404259
v -0.02284688 -0.01460835 -0.03421891
v -0.02367550 -0.01394363 -0.03413042
v -0.02359896 -0.01316878 -0.03422905
v -0.02430778 -0.01395150 -0.03386897
v -0.02515970 -0.01318058 -0.03349944
v -0.02482026 -0.01412063 -0.03340756
v -0.02453906 -0.01544614 -0.03248610
v -0.02499996 -0.01477355 -0.03197199
v -0.02454405 -0.01476568 -0.03327650
v -0.02425121 -0.01536747 -0.03315693
v -0.02524455 -0.01411276 -0.02973790
v -0.02501161 -0.01403803 -0.02768284
v -0.02356568 -0.01670872 -0.03279010
v -0.02281859 -0.01767237 -0.03289548
v -0.02305154 -0.01767237 -0.03221722
v -0.02312475 -0.01767237 -0.03178824
v -0.02117299 -0.01767237 -0.03400949
v -0.02340595 -0.01530454 -0.03388856
v -0.02396501 -0.01526128 -0.03360145
v -0.02308648 -0.01690931 -0.03338730
v -0.02266218 -0.01767237 -0.03317517
v -0.02246584 -0.01767237 -0.03336635
f 1 2 3
f 1 3 4
f 1 4 5
f 1 5 6
f 1 6 7
f 1 7 2
f 2 8 9
f 2 9 10
f 2 10 11
f 2 11 3
f 2 7 12
f 2 12 13
f 2 13 8
f 3 11 14
f 3 14 15
f 3 15 4
f 4 15 16
f 4 16 17
f 4 17 18
f 4 18 19
f 4 19 5
f 5 19 6
f 6 20 21
f 6 21 22
f 6 22 23
f 6 23 12
f 6 12 7
f 6 19 20
f 8 13 9
f 9 13 10
f 10 24 11
f 10 13 24
f 11 24 25
f 11 25 26
f 11 26 14
f 12 23 27
f 12 27 13
f 13 27 28
f 13 28 69
f 13 69 29
f 13 29 30
f 13 30 31
f 13 31 32
f 13 32 33
f 13 33 34
f 13 34 35
f 13 35 36
f 13 36 37
f 13 37 38
f 13 38 39
f 13 39 40
f 13 40 41
f 13 41 42
f 13 42 43
f 13 43 44
f 13 44 45
f 13 45 46
f 13 46 47
f 13 47 48
f 13 48 49
f 13 49 50
f 13 50 51
f 13 51 25
f 13 25 24
f 14 26 52
f 14 52 53
f 14 53 15
f 15 53 54
f 15 54 16
f 16 55 17
f 16 54 56
f 16 56 57
f 16 57 55
f 17 55 58
f 17 58 59
f 17 59 60
f 17 60 61
f 17 61 18
f 18 61 19
f 19 61 20
f 20 61 62
f 20 62 21
f 21 62 63
f 21 63 22
f 22 63 64
f 22 64 65
f 22 65 23
f 23 66 27
f 23 65 67
f 23 67 66
f 25 51 26
f 26 51 68
f 26 68 52
f 27 66 28
f 28 66 67
f 28 67 70
f 28 70 71
f 28 71 72
f 28 72 73
f 28 73 74
f 28 74 75
f 28 75 76
f 28 76 77
f 28 77 127
f 28 127 184
f 28 184 230
f 28 230 264
f 28 264 293
f 28 293 315
f 28 315 294
f 28 294 266
f 28 266 232
f 28 232 186
f 28 186 128
f 28 128 78
f 28 78 69
f 29 69 78
f 29 78 30
f 30 79 80
f 30 80 31
f 30 78 79
f 31 80 32
f 32 80 81
f 32 81 33
f 33 81 82
f 33 82 34
f 34 82 83
f 34 83 84
f 34 84 35
f 35 84 83
f 35 83 36
f 36 83 85
f 36 85 37
f 37 85 38
f 38 85 86
f 38 86 87
f 38 87 88
f 38 88 39
f 39 88 89
f 39 89 40
f 40 89 90
f 40 90 91
f 40 91 41
f 41 91 42
f 42 91 92
f 42 92 93
f 42 93 94
f 42 94 95
f 42 95 43
f 43 95 96
f 43 96 44
f 44 96 97
f 44 97 45
f 45 97 98
f 45 98 99
f 45 99 46
f 46 99 47
f 47 99 100
f 47 100 101
f 47 101 48
f 48 101 49
f 49 101 50
f 50 101 68
f 50 68 51
f 52 102 53
f 52 68 103
f 52 103 102
f 53 102 54
f 54 102 104
f 54 104 105
f 54 105 56
f 55 57 106
f 55 106 58
f 56 105 107
f 56 107 108
f 56 108 57
f 57 108 109
f 57 109 106
f 58 110 111
f 58 111 59
f 58 106 109
f 58 109 110
f 59 111 60
f 60 111 112
f 60 112 113
f 60 113 114
f 60 114 61
f 61 114 62
f 62 115 116
f 62 116 63
f 62 114 115
f 63 116 117
f 63 117 64
f 64 118 65
f 64 117 119
f 64 119 120
f 64 120 121
f 64 121 118
f 65 118 67
f 67 118 70
f 68 101 103
f 70 118 121
f 70 121 71
f 71 121 72
f 72 121 122
f 72 122 73
f 73 122 123
f 73 123 74
f 74 124 75
f 74 123 124
f 75 124 76
f 76 125 77
f 76 124 125
f 77 126 127
f 77 125 126
f 78 128 185
f 78 185 231
f 78 231 265
f 78 265 270
f 78 270 301
f 78 301 300
f 78 300 319
f 78 319 318
f 78 318 317
f 78 317 324
f 78 324 325
f 78 325 320
f 78 320 302
f 78 302 273
f 78 273 240
f 78 240 235
f 78 235 193
f 78 193 192
f 78 192 191
f 78 191 190
f 78 190 189
f 78 189 188
f 78 188 187
f 78 187 131
f 78 131 130
f 78 130 129
f 78 129 79
f 79 129 130
f 79 130 131
f 79 131 132
f 79 132 133
f 79 133 134
f 79 134 135
f 79 135 136
f 79 136 137
f 79 137 138
f 79 138 139
f 79 139 140
f 79 140 141
f 79 141 142
f 79 142 143
f 79 143 144
f 79 144 80
f 80 144 145
f 80 145 81
f 81 145 82
f 82 145 146
f 82 146 83
f 83 146 147
f 83 147 85
f 85 147 148
f 85 148 149
f 85 149 150
f 85 150 86
f 86 150 87
f 87 150 88
f 88 150 151
f 88 151 89
f 89 151 90
f 90 92 91
f 90 151 152
f 90 152 153
f 90 153 92
f 92 153 93
f 93 153 94
f 94 153 154
f 94 154 155
f 94 155 95
f 95 155 96
f 96 155 97
f 97 155 156
f 97 156 98
f 98 156 99
f 99 156 155
f 99 155 157
f 99 157 158
f 99 158 101
f 99 101 100
f 101 158 103
f 102 103 159
f 102 159 104
f 103 158 160
f 103 160 159
f 104 161 105
f 104 159 162
f 104 162 161
f 105 161 163
f 105 163 164
f 105 164 107
f 107 164 165
f 107 165 166
f 107 166 167
f 107 167 108
f 108 168 109
f 108 167 168
f 109 168 110
f 110 112 111
f 110 168 169
f 110 169 170
f 110 170 112
f 112 170 113
f 113 170 171
f 113 171 115
f 113 115 114
f 115 172 173
f 115 173 116
f 115 171 172
f 116 173 174
f 116 174 119
f 116 119 117
f 119 174 175
f 119 175 120
f 120 175 176
f 120 176 177
f 120 177 123
f 120 123 122
f 120 122 121
f 123 177 124
f 124 177 178
f 124 178 125
f 125 178 179
f 125 179 126
f 126 180 181
f 126 181 127
f 126 179 182
f 126 182 183
f 126 183 180
f 127 181 184
f 128 186 185
f 131 187 133
f 131 133 132
f 133 187 134
f 134 187 188
f 134 188 135
f 135 188 189
f 135 189 190
f 135 190 136
f 136 190 137
f 137 190 138
f 138 190 191
f 138 191 192
f 138 192 193
f 138 193 139
f 139 194 195
f 139 195 140
f 139 193 196
f 139 196 194
f 140 195 141
f 141 195 197
f 141 197 142
f 142 197 143
f 143 197 198
f 143 198 144
f 144 198 145
f 145 198 165
f 145 165 146
f 146 165 164
f 146 164 147
f 147 164 148
f 148 164 163
f 148 163 149
f 149 163 150
f 150 163 199
f 150 199 151
f 151 199 152
f 152 199 200
f 152 200 153
f 153 200 154
f 154 200 155
f 155 200 201
f 155 201 157
f 157 201 160
f 157 160 158
f 159 160 201
f 159 201 162
f 161 162 199
f 161 199 163
f 162 201 200
f 162 200 199
f 165 198 166
f 166 202 203
f 166 203 204
f 166 204 167
f 166 198 202
f 167 204 168
f 168 205 169
f 168 204 203
f 168 203 206
f 168 206 207
f 168 207 208
f 168 208 205
f 169 205 209
f 169 209 210
f 169 210 211
f 169 211 212
f 169 212 213
f 169 213 170
f 170 214 215
f 170 215 216
f 170 216 217
f 170 217 218
f 170 218 171
f 170 213 214
f 171 218 172
f 172 218 219
f 172 219 220
f 172 220 173
f 173 220 221
f 173 221 174
f 174 221 222
f 174 222 176
f 174 176 175
f 176 222 223
f 176 223 177
f 177 223 178
f 178 224 225
f 178 225 182
f 178 182 179
f 178 223 224
f 180 226 227
f 180 227 181
f 180 183 226
f 181 227 184
f 182 225 183
f 183 225 228
f 183 228 229
f 183 229 226
f 184 227 230
f 185 186 231
f 186 232 233
f 186 233 234
f 186 234 231
f 193 235 196
f 194 236 195
f 194 196 237
f 194 237 236
f 195 236 238
f 195 238 239
f 195 239 207
f 195 207 197
f 196 235 240
f 196 240 241
f 196 241 242
f 196 242 243
f 196 243 237
f 197 207 202
f 197 202 198
f 202 207 206
f 202 206 203
f 205 208 209
f 207 239 208
f 208 239 209
f 209 239 238
f 209 238 236
f 209 236 244
f 209 244 211
f 209 211 210
f 211 244 245
f 211 245 212
f 212 245 214
f 212 214 213
f 214 245 246
f 214 246 215
f 215 246 245
f 215 245 247
f 215 247 248
f 215 248 216
f 216 248 249
f 216 249 219
f 216 219 218
f 216 218 217
f 219 250 220
f 219 249 250
f 220 250 251
f 220 251 221
f 221 252 222
f 221 251 253
f 221 253 252
f 222 252 254
f 222 254 223
f 223 254 224
f 224 228 225
f 224 254 228
f 226 229 255
f 226 255 256
f 226 256 257
f 226 257 227
f 227 257 258
f 227 258 230
f 228 254 259
f 228 259 260
f 228 260 261
f 228 261 229
f 229 261 262
f 229 262 255
f 230 258 263
f 230 263 264
f 231 234 233
f 231 233 265
f 232 266 267
f 232 267 233
f 233 267 268
f 233 268 269
f 233 269 270
f 233 270 265
f 236 271 244
f 236 237 272
f 236 272 271
f 237 243 272
f 240 273 274
f 240 274 241
f 241 274 242
f 242 274 275
f 242 275 276
f 242 276 277
f 242 277 243
f 243 277 278
f 243 278 272
f 244 271 278
f 244 278 245
f 245 278 247
f 247 278 277
f 247 277 248
f 248 277 279
f 248 279 249
f 249 279 280
f 249 280 281
f 249 281 282
f 249 282 250
f 250 282 251
f 251 282 283
f 251 283 253
f 252 253 284
f 252 284 285
f 252 285 259
f 252 259 254
f 253 283 286
f 253 286 287
f 253 287 260
f 253 260 259
f 253 259 284
f 255 262 288
f 255 288 289
f 255 289 256
f 256 263 257
f 256 289 290
f 256 290 263
f 257 263 258
f 259 285 284
f 260 287 261
f 261 287 262
f 262 287 291
f 262 291 288
f 263 290 292
f 263 292 293
f 263 293 264
f 266 294 267
f 267 294 295
f 267 295 268
f 268 295 296
f 268 296 297
f 268 297 298
f 268 298 269
f 269 298 299
f 269 299 300
f 269 300 301
f 269 301 270
f 271 272 278
f 273 302 274
f 274 302 303
f 274 303 304
f 274 304 276
f 274 276 275
f 276 304 305
f 276 305 306
f 276 306 280
f 276 280 279
f 276 279 277
f 280 306 305
f 280 305 281
f 281 305 307
f 281 307 282
f 282 307 283
f 283 307 308
f 283 308 286
f 286 308 309
f 286 309 287
f 287 309 291
f 288 291 310
f 288 310 311
f 288 311 289
f 289 296 290
f 289 311 297
f 289 297 296
f 290 296 292
f 291 309 312
f 291 312 313
f 291 313 310
f 292 296 314
f 292 314 293
f 293 314 315
f 294 315 314
f 294 314 295
f 295 314 296
f 297 310 299
f 297 299 298
f 297 311 310
f 299 310 316
f 299 316 317
f 299 317 318
f 299 318 319
f 299 319 300
f 302 320 303
f 303 320 321
f 303 321 322
f 303 322 307
f 303 307 305
f 303 305 304
f 307 322 309
f 307 309 308
f 309 322 312
f 310 313 316
f 312 322 323
f 312 323 313
f 313 323 316
f 316 323 324
f 316 324 317
f 320 325 323
f 320 323 321
f 321 323 322
f 323 325 324

