# https://github.com/mikedh/trimesh
v -0.03296489 0.02351759 -0.02213810
v -0.03335864 0.02351759 -0.02196807
v -0.03296489 0.02396610 -0.02200483
v -0.03296489 0.02351759 -0.00598335
v -0.03426849 0.02351759 -0.02157517
v -0.03420350 0.02378074 -0.02152462
v -0.03339305 0.02517204 -0.02144880
v -0.03296489 0.02472124 -0.02177277
v -0.03296489 0.03296835 0.00133465
v -0.04048257 0.02351759 0.00132775
v -0.03580911 0.02351759 -0.02083763
v -0.03564664 0.02390660 -0.02079397
v -0.03532169 0.02518349 -0.02050907
v -0.03316559 0.02658394 -0.02104901
v -0.03296489 0.02545580 -0.02153611
v -0.03296489 0.02512628 -0.02164640
v -0.03296489 0.04689278 0.00133465
v -0.04032584 0.02378303 0.00133465
v -0.04286422 0.02351759 0.00133465
v -0.03744148 0.02351759 -0.01996223
v -0.03735164 0.02378761 -0.01991857
v -0.03685658 0.02518349 -0.01967962
v -0.03476929 0.02658623 -0.02025862
v -0.03296489 0.02706448 -0.02095711
v -0.03296489 0.02655190 -0.02114781
v -0.03296489 0.02798668 -0.02059178
v -0.03319426 0.04673717 0.00133465
v -0.03296489 0.04677149 0.00083606
v -0.05249214 0.02351759 0.00133465
v -0.03889226 0.02351759 -0.01908682
v -0.03880242 0.02378532 -0.01904547
v -0.03629844 0.02658851 -0.01942917
v -0.03829971 0.02518349 -0.01880881
v -0.03775495 0.02658394 -0.01855607
v -0.03419012 0.02798439 -0.01998520
v -0.03296489 0.02873038 -0.02026781
v -0.03371991 0.04636189 0.00133465
v -0.03417483 0.04572116 0.00010081
v -0.03296489 0.04672573 0.00066373
v -0.05237172 0.02378761 0.00133465
v -0.05227997 0.02378761 0.00092567
v -0.05238892 0.02351759 0.00087512
v -0.04026276 0.02351759 -0.01818615
v -0.04016910 0.02378761 -0.01814249
v -0.03570780 0.02798897 -0.01915346
v -0.03964919 0.02518806 -0.01790354
v -0.03715858 0.02798439 -0.01828035
v -0.03910825 0.02658394 -0.01764620
v -0.03852144 0.02798439 -0.01737048
v -0.03508467 0.02938484 -0.01885706
v -0.03356508 0.02938026 -0.01968651
v -0.03296489 0.02942832 -0.01996223
v -0.03474826 0.04562734 0.00133465
v -0.03357081 0.04578981 -0.00116289
v -0.03484383 0.04465938 -0.00175798
v -0.03543447 0.04460217 -0.00048739
v -0.03296489 0.04668454 0.00051439
v -0.05221498 0.02412857 0.00133465
v -0.05171992 0.02518120 0.00133465
v -0.05168742 0.02518120 0.00119909
v -0.05192253 0.02378761 -0.00045292
v -0.05203148 0.02351759 -0.00050347
v -0.04156254 0.02351759 -0.01724182
v -0.04146888 0.02378303 -0.01719816
v -0.04093941 0.02518577 -0.01695461
v -0.03652590 0.02938484 -0.01798395
v -0.04038700 0.02658394 -0.01669497
v -0.03787920 0.02938484 -0.01707179
v -0.03979445 0.02798668 -0.01642156
v -0.03584543 0.03078529 -0.01766918
v -0.03439656 0.03078758 -0.01854228
v -0.03296489 0.03078987 -0.01932808
v -0.03296489 0.03060223 -0.01941998
v -0.03601554 0.04450377 0.00078551
v -0.03582249 0.04479439 0.00133465
v -0.03296489 0.04629095 -0.00088028
v -0.03296489 0.04582184 -0.00243349
v -0.03425893 0.04466167 -0.00302858
v -0.03632902 0.04324519 -0.00243579
v -0.03665970 0.04332300 -0.00139496
v -0.03729621 0.04327266 0.00019042
v -0.05140262 0.02579904 0.00133465
v -0.05132425 0.02519035 -0.00017261
v -0.05152686 0.02378303 -0.00181313
v -0.05163390 0.02351759 -0.00186368
v -0.04277439 0.02351759 -0.01626761
v -0.04268073 0.02378532 -0.01622166
v -0.04227359 0.02510568 -0.01591607
v -0.04158930 0.02658394 -0.01571158
v -0.03719681 0.03078300 -0.01675242
v -0.03929366 0.02928187 -0.01606772
v -0.04098146 0.02802100 -0.01541978
v -0.03511908 0.03218117 -0.01732453
v -0.03353067 0.03231160 -0.01821602
v -0.03296489 0.03225668 -0.01855607
v -0.03687760 0.04394313 0.00133465
v -0.03627550 0.04444199 0.00133465
v -0.03296489 0.04542597 -0.00348811
v -0.03365874 0.04458386 -0.00429229
v -0.03575368 0.04330240 -0.00344905
v -0.03701714 0.04203010 -0.00401197
v -0.03731915 0.04211248 -0.00319401
v -0.03804549 0.04198891 -0.00170514
v -0.03857496 0.04194543 -0.00040467
v -0.03916559 0.04180584 0.00086363
v -0.03815635 0.04285160 0.00133465
v -0.03793080 0.04305298 0.00133465
v -0.03782567 0.04314680 0.00133465
v -0.05099357 0.02658394 0.00133465
v -0.05067436 0.02657936 0.00012838
v -0.05027105 0.02658165 -0.00122953
v -0.05092093 0.02518577 -0.00153052
v -0.05050042 0.02518577 -0.00287923
v -0.05110252 0.02378990 -0.00315955
v -0.05121147 0.02351759 -0.00321010
v -0.04391360 0.02351759 -0.01524286
v -0.04382185 0.02377617 -0.01519921
v -0.04327901 0.02518577 -0.01495566
v -0.04258707 0.02670522 -0.01473508
v -0.03844880 0.03078529 -0.01579200
v -0.03646664 0.03218117 -0.01640777
v -0.04034304 0.02937798 -0.01512339
v -0.04209965 0.02798210 -0.01440192
v -0.03439082 0.03387910 -0.01674552
v -0.03296489 0.03359535 -0.01780014
v -0.03296489 0.03264799 -0.01834009
v -0.03296489 0.03346720 -0.01787596
v -0.03296489 0.04522688 -0.00396832
v -0.03296489 0.04497974 -0.00454503
v -0.03296489 0.04454954 -0.00551463
v -0.03306429 0.04445571 -0.00556059
v -0.03435451 0.04317655 -0.00616487
v -0.03495279 0.04329325 -0.00489886
v -0.03620095 0.04200950 -0.00547787
v -0.03758292 0.04067084 -0.00578346
v -0.03796139 0.04077610 -0.00488048
v -0.03879860 0.04056328 -0.00360069
v -0.03932424 0.04058159 -0.00230023
v -0.03982122 0.04056557 -0.00098827
v -0.04027232 0.04059303 0.00034666
v -0.04058770 0.04058159 0.00133465
v -0.03937776 0.04173948 0.00133465
v -0.05017548 0.02798668 0.00133465
v -0.04995375 0.02798210 0.00046384
v -0.04956381 0.02799583 -0.00089407
v -0.04917579 0.02798210 -0.00226117
v -0.04986200 0.02659080 -0.00258054
v -0.04942237 0.02659080 -0.00392007
v -0.05004932 0.02518806 -0.00421187
v -0.05064569 0.02378074 -0.00449218
v -0.05074890 0.02351759 -0.00454043
v -0.04411048 0.02351759 -0.01504756
v -0.04496107 0.02351759 -0.01419744
v -0.04486359 0.02378532 -0.01415148
v -0.04431692 0.02519035 -0.01389874
v -0.04382185 0.02651986 -0.01357248
v -0.03983651 0.03077156 -0.01462020
v -0.03770908 0.03218803 -0.01544965
v -0.03669219 0.03385164 -0.01508433
v -0.03547270 0.03386766 -0.01600798
v -0.04127773 0.02968003 -0.01404579
v -0.04311653 0.02798439 -0.01333582
v -0.03296489 0.03499122 -0.01690176
v -0.03495279 0.03480130 -0.01572307
v -0.03382312 0.03499580 -0.01636411
v -0.03296489 0.04443283 -0.00576737
v -0.03296489 0.04401178 -0.00665197
v -0.03374284 0.04304611 -0.00742168
v -0.03560650 0.04187678 -0.00674617
v -0.03678203 0.04057930 -0.00729301
v -0.03865333 0.03919716 -0.00662210
v -0.03931660 0.03919258 -0.00538597
v -0.04048640 0.03919029 -0.00284247
v -0.03993017 0.03917199 -0.00412915
v -0.04100822 0.03918343 -0.00154201
v -0.04148034 0.03918572 -0.00021626
v -0.04159885 0.03954956 0.00133465
v -0.04197350 0.03912164 0.00118530
v -0.04976451 0.02868004 0.00133465
v -0.04921211 0.02938255 0.00081078
v -0.04882409 0.02939399 -0.00054942
v -0.04843798 0.02939399 -0.00191652
v -0.04804613 0.02939628 -0.00327902
v -0.04876101 0.02797524 -0.00361448
v -0.04827550 0.02798668 -0.00493103
v -0.04893113 0.02658623 -0.00523662
v -0.04955808 0.02518577 -0.00552842
v -0.05014871 0.02378303 -0.00580414
v -0.05034750 0.02351759 -0.00560194
v -0.04512545 0.02351759 -0.01401133
v -0.04590915 0.02351759 -0.01311524
v -0.04582313 0.02378532 -0.01305321
v -0.04526881 0.02518349 -0.01279357
v -0.04467245 0.02658165 -0.01251556
v -0.04066798 0.03103930 -0.01362532
v -0.03887697 0.03218346 -0.01444558
v -0.03605377 0.03486308 -0.01482469
v -0.03797668 0.03386995 -0.01395388
v -0.04244371 0.02938942 -0.01302334
v -0.04400344 0.02799354 -0.01226052
v -0.03296489 0.03616742 -0.01609299
v -0.03391105 0.03631159 -0.01533477
v -0.03296489 0.03658161 -0.01578970
v -0.03296489 0.04381727 -0.00705865
v -0.03296489 0.04347631 -0.00770199
v -0.03315412 0.04278524 -0.00869228
v -0.03501204 0.04169600 -0.00801217
v -0.03619140 0.04033903 -0.00857969
v -0.03782185 0.03912393 -0.00812935
v -0.03883491 0.03795460 -0.00838669
v -0.03975623 0.03778298 -0.00713677
v -0.04040803 0.03778298 -0.00589604
v -0.04101395 0.03778984 -0.00463464
v -0.04159121 0.03779213 -0.00335714
v -0.04212832 0.03778298 -0.00206357
v -0.04260618 0.03777611 -0.00074242
v -0.04302861 0.03777611 0.00060400
v -0.04200599 0.03912851 0.00133465
v -0.04223918 0.03887450 0.00133465
v -0.04909360 0.02980360 0.00133465
v -0.04845518 0.03079445 0.00116692
v -0.04726627 0.03076927 -0.00291829
v -0.04680370 0.03076927 -0.00424633
v -0.04757209 0.02938026 -0.00460477
v -0.04767149 0.03079216 -0.00155809
v -0.04769825 0.02804160 -0.00620163
v -0.04837490 0.02658623 -0.00652100
v -0.04900376 0.02518349 -0.00681510
v -0.05014298 0.02351759 -0.00609824
v -0.05025002 0.02351759 -0.00585239
v -0.04958293 0.02378074 -0.00708622
v -0.04968615 0.02351759 -0.00713447
v -0.04608882 0.02351759 -0.01288088
v -0.04669474 0.02378303 -0.01191358
v -0.04613278 0.02517891 -0.01164935
v -0.04553068 0.02658394 -0.01137363
v -0.04147652 0.03093861 -0.01283263
v -0.04021879 0.03210337 -0.01323242
v -0.03900312 0.03346949 -0.01330595
v -0.03749882 0.03478070 -0.01361613
v -0.03489926 0.03656788 -0.01434219
v -0.04336693 0.02938026 -0.01190668
v -0.04263294 0.03078300 -0.01156433
v -0.04488270 0.02798897 -0.01107264
v -0.03311589 0.03769831 -0.01476955
v -0.03296489 0.03769144 -0.01488443
v -0.03296489 0.03697291 -0.01547263
v -0.03296489 0.04297517 -0.00860267
v -0.03296489 0.04286991 -0.00877729
v -0.03296489 0.04208502 -0.00995598
v -0.03389385 0.04198433 -0.00903692
v -0.03511335 0.04057701 -0.00960444
v -0.03644562 0.03920173 -0.00987097
v -0.03707257 0.03940311 -0.00878878
v -0.03820796 0.03777840 -0.00950335
v -0.04004868 0.03637566 -0.00881635
v -0.04078649 0.03630243 -0.00775024
v -0.04146314 0.03638939 -0.00638774
v -0.04208436 0.03638481 -0.00513322
v -0.04266735 0.03637795 -0.00386033
v -0.04317197 0.03639625 -0.00255067
v -0.04364600 0.03639168 -0.00122493
v -0.04408563 0.03637795 0.00011230
v -0.04424237 0.03660220 0.00133465
v -0.04322166 0.03778526 0.00133465
v -0.04849914 0.03079216 0.00133465
v -0.04809774 0.03141916 0.00133465
v -0.04643670 0.03218803 -0.00252769
v -0.04686104 0.03218803 -0.00118127
v -0.04595884 0.03218803 -0.00385114
v -0.04625511 0.03078758 -0.00553301
v -0.04701969 0.02938255 -0.00589145
v -0.04759503 0.03219261 0.00133465
v -0.04726435 0.03218117 0.00017434
v -0.04649404 0.02930475 -0.00709771
v -0.04711717 0.02798897 -0.00748142
v -0.04776897 0.02658623 -0.00778471
v -0.04838446 0.02518577 -0.00807191
v -0.04896171 0.02378303 -0.00834074
v -0.04918344 0.02351759 -0.00814774
v -0.04679223 0.02351759 -0.01195953
v -0.04758930 0.02351759 -0.01079003
v -0.04748608 0.02379219 -0.01074407
v -0.04692985 0.02518806 -0.01048214
v -0.04632775 0.02658623 -0.01020183
v -0.04568742 0.02798897 -0.00990543
v -0.04075017 0.03216515 -0.01258678
v -0.04013660 0.03357933 -0.01194344
v -0.03802446 0.03516743 -0.01272235
v -0.03631182 0.03637795 -0.01324851
v -0.03526817 0.03768458 -0.01293833
v -0.03401618 0.03772348 -0.01402971
v -0.04420605 0.02938942 -0.01075556
v -0.04347780 0.03079216 -0.01041781
v -0.04185881 0.03218575 -0.01120590
v -0.03296489 0.03788595 -0.01471670
v -0.03296489 0.04198433 -0.01010533
v -0.03296489 0.04194772 -0.01015817
v -0.03393781 0.04057930 -0.01095546
v -0.03504836 0.03942141 -0.01120590
v -0.03731150 0.03778298 -0.01062689
v -0.03921147 0.03638481 -0.00997207
v -0.04097381 0.03501868 -0.00924371
v -0.04175177 0.03498207 -0.00806502
v -0.04243988 0.03499122 -0.00684497
v -0.04303052 0.03502326 -0.00559275
v -0.04364600 0.03496834 -0.00431756
v -0.04415827 0.03498665 -0.00301020
v -0.04463422 0.03497978 -0.00168905
v -0.04507385 0.03498894 -0.00034723
v -0.04547907 0.03498894 0.00100838
v -0.04477757 0.03595919 0.00133465
v -0.04443543 0.03637566 0.00133465
v -0.04599707 0.03358620 -0.00077919
v -0.04556126 0.03358162 -0.00212101
v -0.04640803 0.03357933 0.00057183
v -0.04453482 0.03360679 -0.00473114
v -0.04540835 0.03218803 -0.00513782
v -0.04507385 0.03359077 -0.00343756
v -0.04482536 0.03218575 -0.00641072
v -0.04564728 0.03078300 -0.00679442
v -0.04738860 0.03249009 0.00133465
v -0.04499548 0.03078758 -0.00803515
v -0.04574476 0.02938026 -0.00838439
v -0.04644053 0.02798210 -0.00870836
v -0.04708277 0.02658165 -0.00900705
v -0.04768105 0.02518349 -0.00928737
v -0.04824683 0.02378761 -0.00955160
v -0.04848767 0.02351759 -0.00936549
v -0.04906302 0.02351759 -0.00838669
v -0.04773839 0.02351759 -0.01055796
v -0.04834814 0.02351759 -0.00959985
v -0.04500312 0.02938713 -0.00958376
v -0.04112290 0.03351755 -0.01078084
v -0.04015572 0.03498436 -0.01041091
v -0.03925543 0.03497978 -0.01153217
v -0.03755043 0.03611479 -0.01226511
v -0.03426849 0.03917199 -0.01229269
v -0.03296489 0.03916970 -0.01349895
v -0.03296489 0.03908503 -0.01358626
v -0.03635960 0.03777611 -0.01172517
v -0.03296489 0.03842142 -0.01422041
v -0.04426722 0.03078300 -0.00924141
v -0.04270175 0.03218803 -0.01005708
v -0.03296489 0.04099349 -0.01143796
v -0.03332997 0.04065710 -0.01150000
v -0.03805887 0.03646719 -0.01129781
v -0.04265014 0.03358162 -0.00848549
v -0.04187601 0.03358848 -0.00967107
v -0.04340898 0.03351297 -0.00724936
v -0.04396139 0.03358848 -0.00600863
v -0.04661829 0.03358391 0.00133465
v -0.04556700 0.03498665 0.00133465
v -0.04419267 0.03218803 -0.00766063
v -0.04347206 0.03221092 -0.00886000
v -0.03296489 0.04063422 -0.01186992
v -0.03296489 0.04079441 -0.01168381
f 1 2 3
f 1 3 8
f 1 8 16
f 1 16 15
f 1 15 25
f 1 25 24
f 1 24 26
f 1 26 36
f 1 36 52
f 1 52 73
f 1 73 72
f 1 72 95
f 1 95 126
f 1 126 127
f 1 127 125
f 1 125 163
f 1 163 201
f 1 201 203
f 1 203 247
f 1 247 246
f 1 246 296
f 1 296 342
f 1 342 340
f 1 340 339
f 1 339 356
f 1 356 357
f 1 357 345
f 1 345 298
f 1 298 297
f 1 297 250
f 1 250 249
f 1 249 248
f 1 248 205
f 1 205 204
f 1 204 167
f 1 167 166
f 1 166 130
f 1 130 129
f 1 129 128
f 1 128 98
f 1 98 77
f 1 77 76
f 1 76 57
f 1 57 39
f 1 39 28
f 1 28 17
f 1 17 9
f 1 9 4
f 1 4 10
f 1 10 19
f 1 19 29
f 1 29 42
f 1 42 62
f 1 62 85
f 1 85 115
f 1 115 151
f 1 151 189
f 1 189 230
f 1 230 229
f 1 229 232
f 1 232 280
f 1 280 330
f 1 330 329
f 1 329 332
f 1 332 331
f 1 331 282
f 1 282 281
f 1 281 233
f 1 233 191
f 1 191 190
f 1 190 153
f 1 153 152
f 1 152 116
f 1 116 86
f 1 86 63
f 1 63 43
f 1 43 30
f 1 30 20
f 1 20 11
f 1 11 5
f 1 5 2
f 2 5 3
f 3 5 6
f 3 6 7
f 3 7 8
f 4 9 10
f 5 11 6
f 6 11 12
f 6 12 7
f 7 12 13
f 7 13 14
f 7 14 15
f 7 15 16
f 7 16 8
f 9 17 27
f 9 27 37
f 9 37 53
f 9 53 75
f 9 75 97
f 9 97 96
f 9 96 108
f 9 108 107
f 9 107 106
f 9 106 142
f 9 142 141
f 9 141 177
f 9 177 218
f 9 218 219
f 9 219 265
f 9 265 264
f 9 264 313
f 9 313 312
f 9 312 353
f 9 353 352
f 9 352 322
f 9 322 273
f 9 273 267
f 9 267 266
f 9 266 220
f 9 220 179
f 9 179 143
f 9 143 109
f 9 109 82
f 9 82 59
f 9 59 58
f 9 58 40
f 9 40 29
f 9 29 19
f 9 19 18
f 9 18 10
f 10 18 19
f 11 20 12
f 12 20 21
f 12 21 13
f 13 21 22
f 13 22 23
f 13 23 14
f 14 24 25
f 14 25 15
f 14 23 26
f 14 26 24
f 17 28 27
f 20 30 31
f 20 31 21
f 21 31 22
f 22 32 23
f 22 31 33
f 22 33 34
f 22 34 32
f 23 35 26
f 23 32 35
f 26 35 36
f 27 28 38
f 27 38 37
f 28 39 38
f 29 40 41
f 29 41 42
f 30 43 31
f 31 43 44
f 31 44 33
f 32 34 45
f 32 45 35
f 33 44 46
f 33 46 34
f 34 47 45
f 34 46 48
f 34 48 49
f 34 49 47
f 35 45 50
f 35 50 51
f 35 51 36
f 36 51 52
f 37 38 53
f 38 54 55
f 38 55 56
f 38 56 53
f 38 39 57
f 38 57 54
f 40 58 41
f 41 58 59
f 41 59 60
f 41 60 61
f 41 61 62
f 41 62 42
f 43 63 44
f 44 63 64
f 44 64 46
f 45 47 50
f 46 64 65
f 46 65 48
f 47 66 50
f 47 49 66
f 48 65 67
f 48 67 49
f 49 68 66
f 49 67 69
f 49 69 68
f 50 66 70
f 50 70 71
f 50 71 72
f 50 72 73
f 50 73 51
f 51 73 52
f 53 74 75
f 53 56 74
f 54 57 76
f 54 76 77
f 54 77 55
f 55 77 78
f 55 78 79
f 55 79 80
f 55 80 56
f 56 80 81
f 56 81 74
f 59 82 60
f 60 82 83
f 60 83 61
f 61 83 84
f 61 84 85
f 61 85 62
f 63 86 64
f 64 86 87
f 64 87 65
f 65 87 88
f 65 88 67
f 66 68 70
f 67 88 89
f 67 89 69
f 68 90 70
f 68 69 91
f 68 91 90
f 69 89 92
f 69 92 91
f 70 90 93
f 70 93 94
f 70 94 71
f 71 94 95
f 71 95 72
f 74 81 96
f 74 96 97
f 74 97 75
f 77 98 78
f 78 98 99
f 78 99 100
f 78 100 79
f 79 100 101
f 79 101 102
f 79 102 80
f 80 102 103
f 80 103 104
f 80 104 81
f 81 105 106
f 81 106 107
f 81 107 108
f 81 108 96
f 81 104 105
f 82 109 83
f 83 110 111
f 83 111 112
f 83 112 84
f 83 109 110
f 84 112 113
f 84 113 114
f 84 114 85
f 85 114 115
f 86 116 87
f 87 116 117
f 87 117 88
f 88 117 118
f 88 118 119
f 88 119 89
f 89 119 92
f 90 91 120
f 90 120 121
f 90 121 93
f 91 92 122
f 91 122 120
f 92 119 123
f 92 123 122
f 93 121 124
f 93 124 125
f 93 125 94
f 94 126 95
f 94 125 127
f 94 127 126
f 98 128 99
f 99 128 129
f 99 129 130
f 99 130 131
f 99 131 132
f 99 132 133
f 99 133 100
f 100 133 101
f 101 133 134
f 101 134 135
f 101 135 136
f 101 136 102
f 102 136 137
f 102 137 138
f 102 138 103
f 103 138 104
f 104 138 139
f 104 139 140
f 104 140 105
f 105 140 141
f 105 141 142
f 105 142 106
f 109 143 144
f 109 144 110
f 110 145 146
f 110 146 111
f 110 144 145
f 111 146 147
f 111 147 112
f 112 147 113
f 113 147 148
f 113 148 149
f 113 149 114
f 114 149 150
f 114 150 115
f 115 150 151
f 116 152 117
f 117 152 153
f 117 153 154
f 117 154 118
f 118 154 155
f 118 155 119
f 119 155 156
f 119 156 123
f 120 122 157
f 120 157 158
f 120 158 121
f 121 158 159
f 121 159 160
f 121 160 124
f 122 123 161
f 122 161 157
f 123 156 162
f 123 162 161
f 124 163 125
f 124 160 164
f 124 164 165
f 124 165 163
f 130 166 131
f 131 166 167
f 131 167 132
f 132 167 168
f 132 168 169
f 132 169 134
f 132 134 133
f 134 169 135
f 135 169 170
f 135 170 171
f 135 171 136
f 136 171 172
f 136 172 137
f 137 173 138
f 137 172 174
f 137 174 173
f 138 175 139
f 138 173 175
f 139 175 140
f 140 175 176
f 140 176 141
f 141 176 178
f 141 178 177
f 143 179 144
f 144 179 180
f 144 180 181
f 144 181 145
f 145 181 182
f 145 182 183
f 145 183 146
f 146 183 184
f 146 184 147
f 147 184 148
f 148 185 186
f 148 186 187
f 148 187 149
f 148 184 185
f 149 187 150
f 150 187 188
f 150 188 151
f 151 188 189
f 153 190 154
f 154 190 191
f 154 191 192
f 154 192 155
f 155 192 193
f 155 193 156
f 156 193 194
f 156 194 162
f 157 161 195
f 157 195 196
f 157 196 158
f 158 196 159
f 159 197 164
f 159 164 160
f 159 196 198
f 159 198 197
f 161 162 199
f 161 199 195
f 162 194 200
f 162 200 199
f 163 165 201
f 164 197 202
f 164 202 165
f 165 202 203
f 165 203 201
f 167 204 168
f 168 205 206
f 168 206 207
f 168 207 169
f 168 204 205
f 169 207 170
f 170 207 208
f 170 208 209
f 170 209 171
f 171 209 210
f 171 210 211
f 171 211 172
f 172 211 212
f 172 212 213
f 172 213 174
f 173 174 214
f 173 214 215
f 173 215 175
f 174 213 214
f 175 215 176
f 176 215 216
f 176 216 217
f 176 217 178
f 177 178 218
f 178 217 219
f 178 219 218
f 179 220 180
f 180 220 221
f 180 221 181
f 181 221 182
f 182 221 183
f 183 222 223
f 183 223 224
f 183 224 185
f 183 185 184
f 183 221 225
f 183 225 222
f 185 224 226
f 185 226 186
f 186 226 227
f 186 227 228
f 186 228 187
f 187 228 188
f 188 229 230
f 188 230 189
f 188 228 231
f 188 231 232
f 188 232 229
f 191 233 192
f 192 233 234
f 192 234 193
f 193 234 235
f 193 235 194
f 194 235 236
f 194 236 200
f 195 199 237
f 195 237 238
f 195 238 196
f 196 238 239
f 196 239 198
f 197 198 240
f 197 240 241
f 197 241 202
f 198 239 240
f 199 200 242
f 199 242 243
f 199 243 237
f 200 236 244
f 200 244 242
f 202 241 245
f 202 245 246
f 202 246 247
f 202 247 203
f 205 248 206
f 206 248 249
f 206 249 250
f 206 250 251
f 206 251 207
f 207 251 208
f 208 251 252
f 208 252 253
f 208 253 254
f 208 254 209
f 209 254 210
f 210 254 255
f 210 255 256
f 210 256 257
f 210 257 211
f 211 257 258
f 211 258 212
f 212 258 259
f 212 259 213
f 213 259 214
f 214 259 260
f 214 260 215
f 215 260 261
f 215 261 216
f 216 262 263
f 216 263 217
f 216 261 262
f 217 264 265
f 217 265 219
f 217 263 264
f 220 266 221
f 221 266 267
f 221 267 225
f 222 268 223
f 222 225 269
f 222 269 268
f 223 268 270
f 223 270 271
f 223 271 224
f 224 271 272
f 224 272 226
f 225 267 273
f 225 273 274
f 225 274 269
f 226 275 276
f 226 276 227
f 226 272 275
f 227 276 277
f 227 277 228
f 228 277 278
f 228 278 231
f 231 278 279
f 231 279 232
f 232 279 280
f 233 281 234
f 234 281 282
f 234 282 283
f 234 283 284
f 234 284 235
f 235 284 236
f 236 284 285
f 236 285 286
f 236 286 244
f 237 287 238
f 237 243 287
f 238 287 239
f 239 287 288
f 239 288 289
f 239 289 240
f 240 289 290
f 240 290 241
f 241 290 291
f 241 291 292
f 241 292 245
f 242 244 293
f 242 293 294
f 242 294 243
f 243 294 295
f 243 295 287
f 244 286 293
f 245 296 246
f 245 292 296
f 250 297 251
f 251 297 298
f 251 298 299
f 251 299 252
f 252 299 300
f 252 300 253
f 253 255 254
f 253 300 301
f 253 301 255
f 255 301 302
f 255 302 256
f 256 302 303
f 256 303 304
f 256 304 257
f 257 304 305
f 257 305 258
f 258 305 306
f 258 306 259
f 259 306 260
f 260 306 307
f 260 307 308
f 260 308 261
f 261 308 309
f 261 309 262
f 262 309 310
f 262 310 263
f 263 310 311
f 263 311 312
f 263 312 313
f 263 313 264
f 268 269 314
f 268 314 315
f 268 315 270
f 269 274 316
f 269 316 314
f 270 317 318
f 270 318 271
f 270 315 319
f 270 319 317
f 271 318 320
f 271 320 321
f 271 321 275
f 271 275 272
f 273 322 274
f 274 322 316
f 275 321 323
f 275 323 324
f 275 324 276
f 276 324 325
f 276 325 277
f 277 325 326
f 277 326 278
f 278 326 327
f 278 327 279
f 279 327 328
f 279 328 329
f 279 329 330
f 279 330 280
f 282 331 283
f 283 331 332
f 283 332 328
f 283 328 284
f 284 328 327
f 284 327 326
f 284 326 285
f 285 326 286
f 286 326 325
f 286 325 333
f 286 333 293
f 287 295 288
f 288 295 334
f 288 334 335
f 288 335 336
f 288 336 289
f 289 336 337
f 289 337 290
f 290 337 291
f 291 338 339
f 291 339 340
f 291 340 292
f 291 337 341
f 291 341 338
f 292 340 342
f 292 342 296
f 293 333 294
f 294 333 343
f 294 343 344
f 294 344 295
f 295 344 334
f 298 345 346
f 298 346 299
f 299 346 300
f 300 341 301
f 300 346 338
f 300 338 341
f 301 341 347
f 301 347 302
f 302 347 336
f 302 336 335
f 302 335 303
f 303 348 304
f 303 335 349
f 303 349 348
f 304 348 305
f 305 348 350
f 305 350 351
f 305 351 306
f 306 351 317
f 306 317 307
f 307 317 319
f 307 319 308
f 308 319 315
f 308 315 309
f 309 315 310
f 310 315 314
f 310 314 316
f 310 316 311
f 311 316 352
f 311 352 353
f 311 353 312
f 316 322 352
f 317 351 320
f 317 320 318
f 320 350 354
f 320 354 321
f 320 351 350
f 321 354 323
f 323 354 355
f 323 355 343
f 323 343 324
f 324 343 333
f 324 333 325
f 328 332 329
f 334 344 349
f 334 349 335
f 336 347 337
f 337 347 341
f 338 346 356
f 338 356 339
f 343 355 344
f 344 355 349
f 345 357 346
f 346 357 356
f 348 349 355
f 348 355 354
f 348 354 350

