# https://github.com/mikedh/trimesh
v -0.00016746 0.00001576 -0.02640843
v -0.00016746 0.00001576 -0.01388608
v -0.00016746 0.00120576 -0.02684309
v -0.00016460 -0.03640948 -0.02338337
v -0.00016460 -0.03714883 -0.02311202
v -0.00016460 -0.03781776 -0.02286579
v -0.00016460 -0.03794451 -0.02281303
v -0.00016460 -0.03921197 -0.02227535
v -0.00016460 -0.04060616 -0.02160954
v -0.00016460 -0.04129622 -0.02123768
v -0.00016460 -0.04195811 -0.02087588
v -0.00016460 -0.04330303 -0.02005681
v -0.00016460 -0.04340865 -0.01998645
v -0.00016460 -0.04368326 -0.01980304
v -0.00016460 -0.04480989 -0.01902668
v -0.00016460 -0.04529575 -0.01865985
v -0.00016460 -0.04620409 -0.01795886
v -0.00016460 -0.04757012 -0.01682572
v -0.00016460 -0.04837989 -0.01608201
v -0.00016460 -0.04907699 -0.01539107
v -0.00016460 -0.04957693 -0.01488606
v -0.00016460 -0.05004166 -0.01438607
v -0.00016460 -0.05089367 -0.01340117
v -0.00016460 -0.05105563 -0.01318509
v -0.00016460 -0.05174568 -0.01225798
v -0.00016460 -0.05202734 -0.01185095
v -0.00016460 -0.05244982 -0.01118262
v -0.00016460 -0.05296385 -0.01034093
v -0.00016460 -0.05306243 -0.01017259
v -0.00016460 -0.05361870 -0.00915000
v -0.00016460 -0.05382290 -0.00876559
v -0.00016460 -0.05417497 -0.00806208
v -0.00016460 -0.05457633 -0.00721537
v -0.00016460 -0.05475941 -0.00675809
v -0.00016746 0.01678137 -0.01322529
v -0.00016746 0.01716161 -0.02765212
v -0.00016460 -0.02136902 -0.02759433
v -0.00016460 -0.02890333 -0.02596874
v -0.00002986 -0.03640948 -0.02338588
v 0.00126873 -0.03781072 -0.02286328
v 0.00151240 -0.03640948 -0.02338086
v 0.00099353 -0.03921197 -0.02227535
v 0.00068680 -0.04060616 -0.02160954
v 0.00047467 -0.04192995 -0.02090101
v 0.00146940 -0.04340161 -0.01997389
v -0.00007286 -0.04340865 -0.01998897
v 0.00101933 -0.04480285 -0.01901914
v 0.00052627 -0.04621113 -0.01795886
v 0.00152100 -0.04759829 -0.01677547
v 0.00110247 -0.04857705 -0.01588353
v 0.00051194 -0.04981634 -0.01463230
v 0.00178187 -0.05030923 -0.01403934
v -0.00007860 -0.05092184 -0.01336348
v 0.00119993 -0.05137953 -0.01274038
v 0.00129453 -0.05202030 -0.01183587
v 0.00081580 -0.05231604 -0.01140875
v 0.00000740 -0.05302722 -0.01023289
v 0.00142353 -0.05321734 -0.00984345
v 0.00068393 -0.05401302 -0.00837112
v 0.00009340 -0.05462562 -0.00709728
v -0.00006713 -0.05477349 -0.00675809
v 0.01882417 -0.05291456 -0.00251446
v -0.00016460 -0.03939504 -0.00675809
v -0.00016460 0.01716161 -0.01318258
v -0.00016746 0.01716161 -0.01432326
v 0.01343198 0.01716161 -0.02817724
v 0.01278985 0.01715456 -0.02817724
v 0.00781332 -0.02136198 -0.02818226
v 0.00257020 -0.02900895 -0.02596874
v 0.00279667 -0.03781072 -0.02283062
v 0.00303746 -0.03640948 -0.02334568
v 0.00252433 -0.03920493 -0.02224520
v 0.00222047 -0.04060616 -0.02158190
v 0.00186500 -0.04200741 -0.02082815
v 0.00298300 -0.04340161 -0.01991359
v 0.00253580 -0.04480989 -0.01896386
v 0.00205420 -0.04620409 -0.01792369
v 0.00303173 -0.04759125 -0.01670763
v 0.00363946 -0.04868971 -0.01564233
v 0.00259026 -0.04910515 -0.01530314
v 0.00350186 -0.04953468 -0.01479059
v 0.00304893 -0.05073876 -0.01344890
v 0.00245553 -0.05173160 -0.01217004
v 0.00372833 -0.05205551 -0.01157709
v 0.00159840 -0.05259769 -0.01091378
v 0.00254153 -0.05357645 -0.00905201
v 0.00313493 -0.05286527 -0.01031329
v 0.00195100 -0.05425243 -0.00777315
v 0.00147800 -0.05472420 -0.00675809
v 0.00205707 -0.05469604 -0.00675809
v 0.00412966 -0.05457633 -0.00675809
v 0.00456539 -0.05454817 -0.00675809
v 0.00611053 -0.05440734 -0.00675809
v 0.00744066 -0.05425243 -0.00675809
v 0.00784486 -0.05418201 -0.00675809
v 0.00920079 -0.05393556 -0.00675809
v 0.01072872 -0.05362574 -0.00675809
v 0.01227958 -0.05325959 -0.00675809
v 0.01412285 -0.05280189 -0.00675809
v 0.01444964 -0.05271740 -0.00675809
v 0.01882417 -0.05254136 -0.00368027
v 0.01925704 -0.05249207 -0.00337625
v 0.02029190 -0.05237237 -0.00251446
v 0.01882417 -0.03961333 -0.00251446
v 0.02911835 0.01716161 -0.00987612
v 0.02185423 0.01716161 -0.02817724
v 0.01881844 -0.01278553 -0.02818226
v 0.01354951 -0.02136902 -0.02818226
v 0.01881844 -0.02136902 -0.02818226
v 0.00455680 -0.03640948 -0.02329040
v 0.00431026 -0.03781776 -0.02276780
v 0.00404080 -0.03920493 -0.02217736
v 0.00372546 -0.04061321 -0.02151155
v 0.00337573 -0.04200741 -0.02075780
v 0.00448226 -0.04340161 -0.01981560
v 0.00404080 -0.04480285 -0.01887341
v 0.00355346 -0.04621113 -0.01783323
v 0.00465713 -0.04766870 -0.01651166
v 0.00493806 -0.04633788 -0.01763223
v 0.00529926 -0.04880237 -0.01537600
v 0.00494666 -0.04998533 -0.01415492
v 0.00526486 -0.05073876 -0.01320770
v 0.00431886 -0.05110492 -0.01285344
v 0.00560026 -0.05140770 -0.01227556
v 0.00592706 -0.05199213 -0.01135850
v 0.00499539 -0.05231604 -0.01098413
v 0.00440486 -0.05309059 -0.00973290
v 0.00381433 -0.05380882 -0.00845655
v 0.00321806 -0.05444959 -0.00717768
v 0.00508139 -0.05400598 -0.00786108
v 0.00634846 -0.05416089 -0.00726813
v 0.00821179 -0.05357645 -0.00794902
v 0.00947312 -0.05363982 -0.00735607
v 0.01259491 -0.05289343 -0.00743898
v 0.01415438 -0.05273852 -0.00689879
v 0.01595751 -0.05196397 -0.00748169
v 0.01652797 -0.05210480 -0.00675809
v 0.01882417 -0.05190764 -0.00536114
v 0.01999090 -0.05197805 -0.00404458
v 0.02106877 -0.05179497 -0.00333354
v 0.02077637 -0.05218225 -0.00251446
v 0.02906675 -0.03254374 -0.00251446
v 0.02911835 0.00001576 -0.01139367
v 0.02911835 0.01716161 -0.02473510
v 0.02906675 -0.04810527 -0.00251446
v 0.02206923 0.01690107 -0.02817724
v 0.02263970 0.01614764 -0.02817724
v 0.02324743 0.01533084 -0.02817724
v 0.02418483 0.01393664 -0.02817724
v 0.02509356 0.01258469 -0.02817724
v 0.02529709 0.01222557 -0.02817724
v 0.02572709 0.01130315 -0.02817724
v 0.02644662 0.00971883 -0.02817724
v 0.02693109 0.00831055 -0.02817724
v 0.02737829 0.00695155 -0.02817724
v 0.02765062 0.00591646 -0.02817724
v 0.02834722 0.00323368 -0.02817724
v 0.02843895 0.00281120 -0.02817724
v 0.02852208 0.00235351 -0.02817724
v 0.02859949 0.00183949 -0.02817724
v 0.02865682 0.00139588 -0.02817724
v 0.02867689 0.00091002 -0.02817724
v 0.02867975 0.00052978 -0.02817724
v 0.02619149 -0.01185607 -0.02792850
v 0.02570989 -0.01272920 -0.02792850
v 0.02402429 -0.01553873 -0.02792599
v 0.02364303 -0.01615133 -0.02792599
v 0.02312990 -0.01693997 -0.02792599
v 0.02254223 -0.01781310 -0.02792599
v 0.02174243 -0.01882003 -0.02792599
v 0.02906675 -0.02800907 -0.02184069
v 0.02845042 -0.02941031 -0.02154672
v 0.02690242 -0.03081156 -0.02153919
v 0.02533436 -0.03221280 -0.02149145
v 0.02375196 -0.03361404 -0.02139849
v 0.02239030 -0.03361404 -0.02178541
v 0.02075630 -0.03500824 -0.02159949
v 0.01937170 -0.03500824 -0.02193867
v 0.01881844 -0.03640948 -0.02144371
v 0.01770904 -0.03640244 -0.02169999
v 0.01629864 -0.03640948 -0.02198390
v 0.01486531 -0.03640948 -0.02223264
v 0.01316825 -0.03781072 -0.02189094
v 0.01172345 -0.03781776 -0.02210701
v 0.01026719 -0.03781072 -0.02229294
v 0.00879945 -0.03781072 -0.02245374
v 0.00731739 -0.03781776 -0.02258941
v 0.00606753 -0.03640948 -0.02321503
v 0.02867402 0.00001576 -0.02817724
v 0.00582099 -0.03781072 -0.02268992
v 0.00554866 -0.03920493 -0.02209445
v 0.00522186 -0.04061321 -0.02140854
v 0.00486926 -0.04200741 -0.02064725
v 0.00635992 -0.04200741 -0.02052916
v 0.00596146 -0.04340161 -0.01968244
v 0.00553433 -0.04480285 -0.01875533
v 0.00611913 -0.04738705 -0.01662220
v 0.00644879 -0.04833764 -0.01569509
v 0.00652906 -0.04620409 -0.01757947
v 0.00694472 -0.04920373 -0.01474787
v 0.00737186 -0.04990787 -0.01388859
v 0.00617933 -0.05037965 -0.01352428
v 0.00730879 -0.05064018 -0.01299414
v 0.00775312 -0.05128799 -0.01200170
v 0.00685586 -0.05166119 -0.01166251
v 0.00805699 -0.05182314 -0.01110725
v 0.00643159 -0.05252728 -0.01035601
v 0.00567193 -0.05330184 -0.00913493
v 0.00694472 -0.05346379 -0.00854197
v 0.00880232 -0.05280894 -0.00922286
v 0.01006365 -0.05288639 -0.00862489
v 0.01133072 -0.05290752 -0.00802942
v 0.01319405 -0.05212592 -0.00871534
v 0.01423464 -0.05218225 -0.00807967
v 0.01693504 -0.05197101 -0.00675809
v 0.01533258 -0.05160485 -0.00858720
v 0.01680604 -0.05139361 -0.00809977
v 0.01761444 -0.05150628 -0.00728069
v 0.01882417 -0.05143586 -0.00646915
v 0.01963257 -0.05159781 -0.00539631
v 0.02143570 -0.05118237 -0.00458477
v 0.02324456 -0.05101338 -0.00284360
v 0.02196890 -0.05168231 -0.00251446
v 0.02911835 0.00001576 -0.02614462
v 0.02911835 0.01695036 -0.02476776
v 0.02884029 -0.04823906 -0.00251446
v 0.02906675 -0.04797148 -0.00290139
v 0.02911835 0.01678137 -0.02479037
v 0.02911835 0.01538013 -0.02495369
v 0.02911835 0.01483794 -0.02501399
v 0.02911835 0.01397888 -0.02510444
v 0.02911835 0.01155664 -0.02534564
v 0.02911835 0.00293090 -0.02612200
v 0.02911835 0.00264925 -0.02612954
v 0.02911835 0.00138883 -0.02615467
v 0.02911835 0.00007913 -0.02615467
v 0.02646669 -0.01123642 -0.02792850
v 0.02906675 -0.02522771 -0.02272760
v 0.02906675 -0.02662191 -0.02230801
v 0.02906675 -0.02941031 -0.02131306
v 0.02822395 -0.03081156 -0.02106181
v 0.02666449 -0.03221280 -0.02102915
v 0.02508783 -0.03360700 -0.02095880
v 0.02348250 -0.03500120 -0.02081810
v 0.02212656 -0.03500120 -0.02122512
v 0.02047823 -0.03640948 -0.02100905
v 0.01881844 -0.03779664 -0.02074272
v 0.01741377 -0.03781776 -0.02107688
v 0.01601484 -0.03781072 -0.02138341
v 0.01459584 -0.03781072 -0.02165225
v 0.01286725 -0.03921197 -0.02124522
v 0.01142818 -0.03921197 -0.02147386
v 0.00998052 -0.03920493 -0.02167737
v 0.00851852 -0.03920493 -0.02184571
v 0.00703932 -0.03921197 -0.02198139
v 0.02906675 -0.00275152 -0.02609939
v 0.02906675 -0.01402482 -0.02481299
v 0.02906675 -0.01463038 -0.02473761
v 0.02906675 -0.01543310 -0.02463711
v 0.02906675 -0.01682731 -0.02444616
v 0.02906675 -0.01746103 -0.02435068
v 0.02906675 -0.01822855 -0.02422757
v 0.02906675 -0.01877074 -0.02413963
v 0.02850202 -0.00307542 -0.02792850
v 0.02837302 -0.00408939 -0.02792850
v 0.02835582 -0.00422317 -0.02792850
v 0.02833862 -0.00432175 -0.02792850
v 0.02808922 -0.00554696 -0.02792850
v 0.02806915 -0.00563850 -0.02792850
v 0.02714609 -0.00915920 -0.02792850
v 0.02693396 -0.00993376 -0.02792850
v 0.02669602 -0.01063086 -0.02792850
v 0.00671826 -0.04061321 -0.02129547
v 0.00819459 -0.04061321 -0.02115477
v 0.00783912 -0.04200037 -0.02038594
v 0.00744066 -0.04341569 -0.01952415
v 0.00700492 -0.04480285 -0.01860206
v 0.00762986 -0.04761942 -0.01620513
v 0.00798246 -0.04621113 -0.01739103
v 0.00844972 -0.04859113 -0.01512977
v 0.00846119 -0.04480989 -0.01841614
v 0.00798532 -0.04935864 -0.01439612
v 0.00930399 -0.04979521 -0.01360468
v 0.00871919 -0.05087255 -0.01235094
v 0.00998052 -0.05104858 -0.01175799
v 0.00938999 -0.05197805 -0.01048414
v 0.00753526 -0.05268923 -0.00981330
v 0.01065705 -0.05207663 -0.00989622
v 0.01192698 -0.05213296 -0.00931080
v 0.01377885 -0.05131616 -0.00994647
v 0.01492551 -0.05109787 -0.00975552
v 0.01838844 -0.05146403 -0.00675809
v 0.01700957 -0.05042894 -0.00975300
v 0.01846297 -0.05035148 -0.00894900
v 0.01882417 -0.05044302 -0.00853946
v 0.01928857 -0.05054864 -0.00800430
v 0.01896464 -0.05116829 -0.00693899
v 0.02067603 -0.05059089 -0.00676312
v 0.02185136 -0.05028811 -0.00633599
v 0.02290056 -0.05035852 -0.00503200
v 0.02344809 -0.05101338 -0.00251446
v 0.02394403 -0.04982338 -0.00520536
v 0.02427369 -0.05023882 -0.00366771
v 0.02564682 -0.04996420 -0.00251446
v 0.02906675 -0.03640244 -0.01771766
v 0.02906675 -0.03579688 -0.01809454
v 0.02906675 -0.03500824 -0.01856940
v 0.02906675 -0.03467025 -0.01876286
v 0.02906675 -0.03361404 -0.01935833
v 0.02906675 -0.03221280 -0.02008193
v 0.02906675 -0.03081156 -0.02072765
v 0.02906675 -0.02472777 -0.02285825
v 0.02906675 -0.02382647 -0.02309192
v 0.02906675 -0.02264351 -0.02336578
v 0.02906675 -0.02237594 -0.02342608
v 0.02906675 -0.02102399 -0.02371251
v 0.02906675 -0.01961571 -0.02398386
v 0.02906675 -0.04740113 -0.00439633
v 0.02906675 -0.04675332 -0.00595660
v 0.02906675 -0.04661953 -0.00622544
v 0.02906675 -0.04593652 -0.00757717
v 0.02906675 -0.04515492 -0.00893141
v 0.02906675 -0.04501409 -0.00914498
v 0.02906675 -0.04405646 -0.01054696
v 0.02906675 -0.04317628 -0.01172532
v 0.02906675 -0.04287350 -0.01209969
v 0.02906675 -0.04214119 -0.01297907
v 0.02906675 -0.04118356 -0.01395392
v 0.02906675 -0.04052871 -0.01457702
v 0.02906675 -0.04007102 -0.01498907
v 0.02906675 -0.03922604 -0.01568253
v 0.02906675 -0.03831066 -0.01639357
v 0.02906675 -0.03780368 -0.01677296
v 0.02906675 -0.03689534 -0.01739354
v 0.02728656 -0.04910515 -0.00251446
v 0.02773089 -0.04853480 -0.00346922
v 0.02833002 -0.04771799 -0.00474055
v 0.02797742 -0.03221280 -0.02053418
v 0.02640649 -0.03361404 -0.02047891
v 0.02481263 -0.03499416 -0.02036836
v 0.02318436 -0.03640244 -0.02018243
v 0.02183990 -0.03639540 -0.02061207
v 0.02018010 -0.03780368 -0.02036584
v 0.01847157 -0.03921901 -0.02003419
v 0.01708984 -0.03921197 -0.02038092
v 0.01569664 -0.03921197 -0.02070755
v 0.01429484 -0.03921197 -0.02099900
v 0.01252898 -0.04061321 -0.02052413
v 0.01109278 -0.04061321 -0.02075780
v 0.00964799 -0.04061321 -0.02097638
v 0.00929539 -0.04200741 -0.02020253
v 0.00889405 -0.04340161 -0.01934828
v 0.00883672 -0.04785178 -0.01577800
v 0.00936992 -0.04629563 -0.01708702
v 0.00990025 -0.04479581 -0.01819001
v 0.01061978 -0.04756308 -0.01569760
v 0.00958779 -0.04859113 -0.01489360
v 0.01033598 -0.04340865 -0.01912718
v 0.01023278 -0.04930935 -0.01395894
v 0.01094945 -0.05002054 -0.01289364
v 0.01183238 -0.05003462 -0.01262731
v 0.01136798 -0.05105563 -0.01133086
v 0.01241718 -0.05129503 -0.01056203
v 0.01321125 -0.05085847 -0.01094645
v 0.01437798 -0.05034444 -0.01125548
v 0.01563358 -0.05034444 -0.01066002
v 0.01768324 -0.04936568 -0.01108463
v 0.01848304 -0.04941498 -0.01054193
v 0.01980743 -0.04944314 -0.00965250
v 0.01881844 -0.05011207 -0.00913493
v 0.02013997 -0.04976705 -0.00885101
v 0.02113756 -0.05000645 -0.00758471
v 0.02303243 -0.04940793 -0.00709477
v 0.02414469 -0.04896432 -0.00693899
v 0.02551496 -0.04930231 -0.00455713
v 0.02464349 -0.04872492 -0.00693899
v 0.02578443 -0.04861225 -0.00591891
v 0.02645809 -0.04901362 -0.00405714
v 0.02577296 -0.04990083 -0.00251446
v 0.02837302 -0.03640244 -0.01806438
v 0.02802042 -0.03781072 -0.01731817
v 0.02869122 -0.03500824 -0.01875030
v 0.02770795 -0.03361404 -0.01995379
v 0.02742129 -0.03500824 -0.01933320
v 0.02892055 -0.04681670 -0.00600936
v 0.02765062 -0.04729551 -0.00659980
v 0.02823829 -0.04630267 -0.00786862
v 0.02898935 -0.04517604 -0.00897915
v 0.02787135 -0.04450007 -0.01104443
v 0.02833575 -0.04337344 -0.01210723
v 0.02728082 -0.04350019 -0.01276048
v 0.02797169 -0.04198628 -0.01391623
v 0.02844469 -0.04059208 -0.01492877
v 0.02867975 -0.03926830 -0.01587599
v 0.02764489 -0.03919788 -0.01650412
v 0.02701996 -0.04925302 -0.00251446
v 0.02706296 -0.04818977 -0.00533099
v 0.02613129 -0.03499416 -0.01987842
v 0.02451163 -0.03640948 -0.01972264
v 0.02286903 -0.03780368 -0.01949903
v 0.02153030 -0.03780368 -0.01995128
v 0.01984757 -0.03919084 -0.01964475
v 0.01881844 -0.03921197 -0.01993620
v 0.01881844 -0.04061321 -0.01905934
v 0.01811324 -0.04061321 -0.01926285
v 0.01674011 -0.04060616 -0.01962968
v 0.01535551 -0.04060616 -0.01997138
v 0.01395658 -0.04061321 -0.02026786
v 0.01216492 -0.04200037 -0.01973520
v 0.01073158 -0.04200741 -0.01998394
v 0.01118165 -0.04493664 -0.01785836
v 0.01083192 -0.04620409 -0.01688602
v 0.01176072 -0.04340865 -0.01887341
v 0.01237131 -0.04702089 -0.01579810
v 0.01151705 -0.04777433 -0.01528555
v 0.01140812 -0.04875308 -0.01429562
v 0.01273251 -0.04890799 -0.01374538
v 0.01309945 -0.05014728 -0.01204190
v 0.01220218 -0.05075988 -0.01148412
v 0.01339185 -0.04918965 -0.01319263
v 0.01465891 -0.04929527 -0.01261224
v 0.01626711 -0.04924598 -0.01198411
v 0.01868944 -0.04859113 -0.01167507
v 0.02010557 -0.04883758 -0.01046153
v 0.02143570 -0.04891503 -0.00938366
v 0.02213230 -0.04923190 -0.00825806
v 0.02383796 -0.04840101 -0.00836861
v 0.02510502 -0.04807711 -0.00777566
v 0.02637209 -0.04771799 -0.00718773
v 0.02626029 -0.04789403 -0.00693899
v 0.02710595 -0.03639540 -0.01866488
v 0.02676195 -0.03780368 -0.01792369
v 0.02638929 -0.03919788 -0.01712471
v 0.02582169 -0.03640244 -0.01921763
v 0.02710882 -0.04659841 -0.00852187
v 0.02756462 -0.04557036 -0.00972788
v 0.02609976 -0.04588723 -0.01057711
v 0.02717762 -0.04462681 -0.01144392
v 0.02672756 -0.04283829 -0.01384588
v 0.02565542 -0.04471131 -0.01244139
v 0.02624596 -0.04377480 -0.01314238
v 0.02681929 -0.04192291 -0.01469762
v 0.02723209 -0.04059208 -0.01562725
v 0.02599082 -0.04059912 -0.01627297
v 0.02418196 -0.03780368 -0.01901663
v 0.02252216 -0.03919084 -0.01876286
v 0.02119776 -0.03919084 -0.01922768
v 0.01948350 -0.04060616 -0.01886085
v 0.01772624 -0.04200741 -0.01842619
v 0.01636171 -0.04200741 -0.01881563
v 0.01497711 -0.04200741 -0.01916235
v 0.01358105 -0.04200741 -0.01946637
v 0.01317398 -0.04340161 -0.01859452
v 0.01272678 -0.04480285 -0.01763223
v 0.01221651 -0.04614072 -0.01663225
v 0.01325138 -0.04776024 -0.01484083
v 0.01361831 -0.04619705 -0.01623528
v 0.01484524 -0.04644350 -0.01567248
v 0.01455571 -0.04771799 -0.01448657
v 0.01569091 -0.04798557 -0.01379312
v 0.01692644 -0.04799261 -0.01329815
v 0.01829957 -0.04798557 -0.01269013
v 0.01882417 -0.04810527 -0.01227556
v 0.01881844 -0.04845030 -0.01180321
v 0.02087383 -0.04790107 -0.01139367
v 0.02194883 -0.04779545 -0.01086605
v 0.02282030 -0.04833060 -0.00934849
v 0.02445429 -0.04719693 -0.00992134
v 0.02570129 -0.04707018 -0.00904950
v 0.02548056 -0.03779664 -0.01849151
v 0.02511649 -0.03919788 -0.01771012
v 0.02472663 -0.04059208 -0.01687346
v 0.02511363 -0.04630971 -0.01072786
v 0.02464636 -0.04366214 -0.01424788
v 0.02566116 -0.04285238 -0.01447401
v 0.02517383 -0.04437332 -0.01315997
v 0.02387523 -0.04547178 -0.01269013
v 0.02547483 -0.04214823 -0.01523781
v 0.02408163 -0.04198628 -0.01606945
v 0.02327323 -0.04198628 -0.01645387
v 0.02383223 -0.03919084 -0.01825785
v 0.02214663 -0.04060616 -0.01795635
v 0.02082510 -0.04060616 -0.01843121
v 0.01881844 -0.04200741 -0.01809202
v 0.01881844 -0.04223273 -0.01792871
v 0.01728477 -0.04355652 -0.01741867
v 0.01594604 -0.04340161 -0.01792369
v 0.01456718 -0.04340161 -0.01827544
v 0.01412858 -0.04482397 -0.01728299
v 0.01582278 -0.04701385 -0.01480817
v 0.01548738 -0.04479581 -0.01693878
v 0.01714144 -0.04467610 -0.01655688
v 0.01651937 -0.04633084 -0.01525038
v 0.01717011 -0.04716876 -0.01414487
v 0.01815624 -0.04726734 -0.01362478
v 0.01881844 -0.04711947 -0.01348911
v 0.01881844 -0.04757012 -0.01294389
v 0.01908790 -0.04815456 -0.01206451
v 0.02038077 -0.04738705 -0.01236350
v 0.02170803 -0.04722509 -0.01180824
v 0.02309836 -0.04694344 -0.01128563
v 0.02338216 -0.04747858 -0.01031078
v 0.02331623 -0.04085966 -0.01730561
v 0.02324743 -0.04483805 -0.01380317
v 0.02324169 -0.04395083 -0.01472526
v 0.02436256 -0.04295096 -0.01508455
v 0.02296650 -0.04635900 -0.01214491
v 0.02264256 -0.04554220 -0.01335846
v 0.02333056 -0.04274675 -0.01578554
v 0.02173383 -0.04199332 -0.01707446
v 0.02132963 -0.04363397 -0.01590865
v 0.02042090 -0.04199332 -0.01756691
v 0.01881844 -0.04284533 -0.01746138
v 0.01864644 -0.04340161 -0.01709204
v 0.01761157 -0.04626746 -0.01491872
v 0.01809890 -0.04477468 -0.01615237
v 0.01881844 -0.04342977 -0.01701164
v 0.01881844 -0.04628859 -0.01440617
v 0.01881844 -0.04662657 -0.01404437
v 0.02020017 -0.04581681 -0.01430316
v 0.01961250 -0.04692935 -0.01332579
v 0.02124363 -0.04649279 -0.01298912
v 0.02207210 -0.04501409 -0.01423281
v 0.02086810 -0.04476764 -0.01507450
v 0.02233010 -0.04345090 -0.01562474
v 0.02132390 -0.04597876 -0.01355694
v 0.02007117 -0.04362693 -0.01641115
v 0.01979024 -0.04464090 -0.01563730
v 0.01881844 -0.04472539 -0.01593629
v 0.01881844 -0.04537321 -0.01532324
v 0.01916530 -0.04628859 -0.01426045
f 1 2 35
f 1 35 65
f 1 65 36
f 1 36 3
f 1 3 4
f 1 4 5
f 1 5 6
f 1 6 7
f 1 7 8
f 1 8 9
f 1 9 10
f 1 10 11
f 1 11 12
f 1 12 13
f 1 13 14
f 1 14 15
f 1 15 16
f 1 16 17
f 1 17 18
f 1 18 19
f 1 19 20
f 1 20 21
f 1 21 22
f 1 22 23
f 1 23 24
f 1 24 25
f 1 25 26
f 1 26 27
f 1 27 28
f 1 28 29
f 1 29 30
f 1 30 31
f 1 31 32
f 1 32 33
f 1 33 34
f 1 34 2
f 2 34 35
f 3 36 37
f 3 37 38
f 3 38 4
f 4 39 5
f 4 38 39
f 5 39 6
f 6 40 7
f 6 39 41
f 6 41 40
f 7 40 42
f 7 42 8
f 8 42 43
f 8 43 9
f 9 43 44
f 9 44 10
f 10 44 11
f 11 44 12
f 12 45 46
f 12 46 13
f 12 44 45
f 13 46 14
f 14 47 15
f 14 46 45
f 14 45 47
f 15 47 16
f 16 47 48
f 16 48 17
f 17 48 18
f 18 49 50
f 18 50 19
f 18 48 49
f 19 50 20
f 20 50 21
f 21 51 22
f 21 50 51
f 22 51 52
f 22 52 23
f 23 53 24
f 23 52 53
f 24 53 54
f 24 54 25
f 25 54 55
f 25 55 26
f 26 55 56
f 26 56 27
f 27 56 28
f 28 56 57
f 28 57 29
f 29 57 30
f 30 57 58
f 30 58 31
f 31 58 59
f 31 59 32
f 32 59 33
f 33 60 61
f 33 61 34
f 33 59 60
f 34 61 62
f 34 62 104
f 34 104 63
f 34 63 35
f 35 64 65
f 35 63 64
f 36 65 64
f 36 64 105
f 36 105 144
f 36 144 106
f 36 106 66
f 36 66 67
f 36 67 68
f 36 68 37
f 37 68 38
f 38 68 69
f 38 69 39
f 39 69 41
f 40 70 42
f 40 41 70
f 41 69 71
f 41 71 70
f 42 70 72
f 42 72 73
f 42 73 43
f 43 73 44
f 44 73 74
f 44 74 45
f 45 75 76
f 45 76 47
f 45 74 75
f 47 76 77
f 47 77 48
f 48 77 49
f 49 78 50
f 49 77 78
f 50 79 80
f 50 80 51
f 50 78 79
f 51 80 52
f 52 80 81
f 52 81 82
f 52 82 54
f 52 54 53
f 54 83 55
f 54 82 83
f 55 84 85
f 55 85 56
f 55 83 84
f 56 85 57
f 57 85 58
f 58 86 59
f 58 85 87
f 58 87 86
f 59 88 60
f 59 86 88
f 60 89 61
f 60 88 89
f 61 89 62
f 62 89 90
f 62 90 91
f 62 91 92
f 62 92 93
f 62 93 94
f 62 94 95
f 62 95 96
f 62 96 97
f 62 97 98
f 62 98 99
f 62 99 100
f 62 100 101
f 62 101 102
f 62 102 103
f 62 103 141
f 62 141 223
f 62 223 301
f 62 301 304
f 62 304 379
f 62 379 396
f 62 396 335
f 62 335 226
f 62 226 145
f 62 145 142
f 62 142 104
f 63 104 64
f 64 104 105
f 66 106 107
f 66 107 67
f 67 107 68
f 68 108 69
f 68 107 109
f 68 109 108
f 69 108 109
f 69 109 71
f 70 71 110
f 70 110 111
f 70 111 72
f 71 109 110
f 72 111 112
f 72 112 113
f 72 113 73
f 73 113 74
f 74 114 75
f 74 113 114
f 75 114 115
f 75 115 116
f 75 116 76
f 76 116 117
f 76 117 77
f 77 117 78
f 78 118 79
f 78 117 119
f 78 119 118
f 79 120 81
f 79 81 80
f 79 118 120
f 81 121 82
f 81 120 121
f 82 122 123
f 82 123 83
f 82 121 122
f 83 123 84
f 84 123 124
f 84 124 125
f 84 125 126
f 84 126 87
f 84 87 85
f 86 87 127
f 86 127 128
f 86 128 88
f 87 126 127
f 88 129 90
f 88 90 89
f 88 128 130
f 88 130 129
f 90 129 91
f 91 129 92
f 92 129 130
f 92 130 131
f 92 131 93
f 93 131 94
f 94 131 132
f 94 132 133
f 94 133 95
f 95 133 96
f 96 133 97
f 97 133 134
f 97 134 98
f 98 134 135
f 98 135 99
f 99 135 100
f 100 135 136
f 100 136 137
f 100 137 101
f 101 137 138
f 101 138 139
f 101 139 102
f 102 139 140
f 102 140 141
f 102 141 103
f 104 142 105
f 105 143 224
f 105 224 236
f 105 236 235
f 105 235 234
f 105 234 233
f 105 233 232
f 105 232 231
f 105 231 230
f 105 230 229
f 105 229 228
f 105 228 225
f 105 225 144
f 105 142 145
f 105 145 143
f 106 144 146
f 106 146 107
f 107 146 147
f 107 147 148
f 107 148 149
f 107 149 150
f 107 150 151
f 107 151 152
f 107 152 153
f 107 153 154
f 107 154 155
f 107 155 156
f 107 156 157
f 107 157 158
f 107 158 159
f 107 159 160
f 107 160 161
f 107 161 162
f 107 162 163
f 107 163 109
f 109 164 165
f 109 165 166
f 109 166 167
f 109 167 168
f 109 168 169
f 109 169 170
f 109 170 171
f 109 171 172
f 109 172 173
f 109 173 174
f 109 174 175
f 109 175 176
f 109 176 177
f 109 177 178
f 109 178 179
f 109 179 180
f 109 180 181
f 109 181 182
f 109 182 183
f 109 183 184
f 109 184 185
f 109 185 186
f 109 186 187
f 109 187 188
f 109 188 110
f 109 163 189
f 109 189 164
f 110 188 111
f 111 188 190
f 111 190 112
f 112 190 191
f 112 191 113
f 113 191 192
f 113 192 114
f 114 192 193
f 114 193 115
f 115 193 194
f 115 194 195
f 115 195 196
f 115 196 116
f 116 196 119
f 116 119 117
f 118 119 197
f 118 197 198
f 118 198 120
f 119 196 199
f 119 199 197
f 120 198 200
f 120 200 121
f 121 201 202
f 121 202 122
f 121 200 201
f 122 202 203
f 122 203 124
f 122 124 123
f 124 203 204
f 124 204 205
f 124 205 125
f 125 206 207
f 125 207 126
f 125 205 206
f 126 207 127
f 127 208 128
f 127 207 208
f 128 208 130
f 130 208 209
f 130 209 131
f 131 209 132
f 132 209 210
f 132 210 211
f 132 211 133
f 133 211 212
f 133 212 134
f 134 212 213
f 134 213 214
f 134 214 135
f 135 214 136
f 136 215 137
f 136 214 216
f 136 216 217
f 136 217 218
f 136 218 215
f 137 215 138
f 138 215 219
f 138 219 220
f 138 220 139
f 139 220 221
f 139 221 140
f 140 221 222
f 140 222 223
f 140 223 141
f 143 145 224
f 144 225 161
f 144 161 160
f 144 160 159
f 144 159 158
f 144 158 157
f 144 157 156
f 144 156 155
f 144 155 154
f 144 154 153
f 144 153 152
f 144 152 151
f 144 151 150
f 144 150 149
f 144 149 148
f 144 148 147
f 144 147 146
f 145 226 227
f 145 227 224
f 161 225 228
f 161 228 162
f 162 228 229
f 162 229 230
f 162 230 231
f 162 231 232
f 162 232 233
f 162 233 163
f 163 233 234
f 163 234 235
f 163 235 236
f 163 236 189
f 164 237 238
f 164 238 165
f 164 189 237
f 165 238 166
f 166 238 167
f 167 238 168
f 168 238 239
f 168 239 169
f 169 239 170
f 170 239 171
f 171 240 172
f 171 239 224
f 171 224 240
f 172 240 241
f 172 241 173
f 173 242 174
f 173 241 242
f 174 242 243
f 174 243 175
f 175 244 245
f 175 245 176
f 175 243 244
f 176 245 177
f 177 245 246
f 177 246 179
f 177 179 178
f 179 246 247
f 179 247 248
f 179 248 180
f 180 248 249
f 180 249 181
f 181 249 250
f 181 250 182
f 182 250 183
f 183 250 251
f 183 251 252
f 183 252 184
f 184 252 253
f 184 253 185
f 185 253 254
f 185 254 186
f 186 254 255
f 186 255 187
f 187 190 188
f 187 255 191
f 187 191 190
f 189 236 256
f 189 256 257
f 189 257 258
f 189 258 259
f 189 259 260
f 189 260 261
f 189 261 262
f 189 262 263
f 189 263 264
f 189 264 265
f 189 265 266
f 189 266 267
f 189 267 268
f 189 268 269
f 189 269 270
f 189 270 271
f 189 271 272
f 189 272 237
f 191 255 192
f 192 273 193
f 192 255 273
f 193 273 194
f 194 273 274
f 194 274 275
f 194 275 195
f 195 276 196
f 195 275 276
f 196 277 199
f 196 276 277
f 197 278 198
f 197 199 279
f 197 279 278
f 198 280 200
f 198 278 280
f 199 277 281
f 199 281 279
f 200 280 282
f 200 282 201
f 201 282 283
f 201 283 203
f 201 203 202
f 203 284 204
f 203 283 284
f 204 284 285
f 204 285 206
f 204 206 205
f 206 286 287
f 206 287 207
f 206 285 286
f 207 287 208
f 208 287 209
f 209 287 210
f 210 287 286
f 210 286 288
f 210 288 211
f 211 288 289
f 211 289 212
f 212 289 213
f 213 289 290
f 213 290 214
f 214 290 291
f 214 291 216
f 215 218 292
f 215 292 219
f 216 291 293
f 216 293 217
f 217 293 294
f 217 294 295
f 217 295 296
f 217 296 218
f 218 296 297
f 218 297 292
f 219 292 297
f 219 297 298
f 219 298 220
f 220 298 299
f 220 299 221
f 221 299 300
f 221 300 222
f 222 301 223
f 222 300 302
f 222 302 303
f 222 303 304
f 222 304 301
f 224 305 306
f 224 306 307
f 224 307 308
f 224 308 309
f 224 309 310
f 224 310 311
f 224 311 240
f 224 239 238
f 224 238 312
f 224 312 313
f 224 313 314
f 224 314 315
f 224 315 316
f 224 316 317
f 224 317 263
f 224 263 262
f 224 262 261
f 224 261 236
f 224 227 318
f 224 318 319
f 224 319 320
f 224 320 321
f 224 321 322
f 224 322 323
f 224 323 324
f 224 324 325
f 224 325 326
f 224 326 327
f 224 327 328
f 224 328 329
f 224 329 330
f 224 330 331
f 224 331 332
f 224 332 333
f 224 333 334
f 224 334 305
f 226 335 336
f 226 336 227
f 227 336 337
f 227 337 318
f 236 261 260
f 236 260 259
f 236 259 258
f 236 258 257
f 236 257 256
f 237 313 312
f 237 312 238
f 237 272 313
f 240 311 241
f 241 311 338
f 241 338 242
f 242 338 339
f 242 339 243
f 243 339 340
f 243 340 244
f 244 340 341
f 244 341 342
f 244 342 245
f 245 342 246
f 246 342 343
f 246 343 247
f 247 343 344
f 247 344 345
f 247 345 248
f 248 345 346
f 248 346 249
f 249 346 347
f 249 347 250
f 250 347 251
f 251 347 348
f 251 348 349
f 251 349 252
f 252 349 350
f 252 350 253
f 253 350 274
f 253 274 254
f 254 274 273
f 254 273 255
f 263 317 264
f 264 317 265
f 265 317 266
f 266 317 316
f 266 316 267
f 267 316 268
f 268 316 269
f 269 316 315
f 269 315 270
f 270 315 271
f 271 315 314
f 271 314 313
f 271 313 272
f 274 350 275
f 275 350 351
f 275 351 276
f 276 351 352
f 276 352 281
f 276 281 277
f 278 353 280
f 278 279 354
f 278 354 353
f 279 281 355
f 279 355 354
f 280 353 356
f 280 356 357
f 280 357 282
f 281 352 358
f 281 358 355
f 282 359 283
f 282 357 359
f 283 359 360
f 283 360 284
f 284 360 285
f 285 360 361
f 285 361 362
f 285 362 286
f 286 362 288
f 288 362 363
f 288 363 289
f 289 363 290
f 290 363 364
f 290 364 365
f 290 365 366
f 290 366 291
f 291 366 293
f 293 366 367
f 293 367 368
f 293 368 369
f 293 369 370
f 293 370 294
f 294 370 295
f 295 370 371
f 295 371 296
f 296 371 372
f 296 372 298
f 296 298 297
f 298 372 299
f 299 372 373
f 299 373 374
f 299 374 302
f 299 302 300
f 302 375 303
f 302 374 376
f 302 376 377
f 302 377 375
f 303 375 378
f 303 378 304
f 304 378 379
f 305 380 306
f 305 334 381
f 305 381 380
f 306 380 307
f 307 380 382
f 307 382 308
f 308 382 309
f 309 383 310
f 309 382 384
f 309 384 383
f 310 383 338
f 310 338 311
f 318 337 319
f 319 337 385
f 319 385 320
f 320 385 386
f 320 386 387
f 320 387 321
f 321 387 322
f 322 387 388
f 322 388 323
f 323 388 389
f 323 389 324
f 324 389 325
f 325 390 326
f 325 389 390
f 326 390 327
f 327 390 391
f 327 391 392
f 327 392 328
f 328 392 329
f 329 392 393
f 329 393 330
f 330 393 331
f 331 393 394
f 331 394 332
f 332 394 395
f 332 395 333
f 333 395 381
f 333 381 334
f 335 396 336
f 336 396 378
f 336 378 337
f 337 386 385
f 337 378 397
f 337 397 386
f 338 383 339
f 339 383 398
f 339 398 340
f 340 398 399
f 340 399 341
f 341 399 400
f 341 400 401
f 341 401 342
f 342 401 343
f 343 401 402
f 343 402 403
f 343 403 344
f 344 403 404
f 344 404 405
f 344 405 406
f 344 406 345
f 345 406 407
f 345 407 346
f 346 407 408
f 346 408 347
f 347 408 348
f 348 408 409
f 348 409 410
f 348 410 349
f 349 410 351
f 349 351 350
f 351 358 352
f 351 410 358
f 353 354 356
f 354 355 411
f 354 411 412
f 354 412 356
f 355 358 413
f 355 413 411
f 356 414 415
f 356 415 357
f 356 412 414
f 357 415 416
f 357 416 359
f 358 410 409
f 358 409 413
f 359 416 417
f 359 417 360
f 360 417 361
f 361 418 419
f 361 419 362
f 361 417 420
f 361 420 418
f 362 419 363
f 363 419 364
f 364 419 365
f 365 419 418
f 365 418 421
f 365 421 422
f 365 422 366
f 366 422 367
f 367 422 423
f 367 423 368
f 368 423 424
f 368 424 369
f 369 371 370
f 369 424 425
f 369 425 371
f 371 425 426
f 371 426 372
f 372 426 373
f 373 426 427
f 373 427 374
f 374 427 376
f 375 377 397
f 375 397 378
f 376 427 428
f 376 428 429
f 376 429 430
f 376 430 377
f 377 430 397
f 378 396 379
f 380 431 382
f 380 381 432
f 380 432 431
f 381 395 433
f 381 433 432
f 382 431 384
f 383 384 398
f 384 431 434
f 384 434 398
f 386 397 430
f 386 430 429
f 386 429 387
f 387 435 388
f 387 429 435
f 388 435 436
f 388 436 389
f 389 436 437
f 389 437 438
f 389 438 390
f 390 438 391
f 391 439 392
f 391 438 440
f 391 440 441
f 391 441 439
f 392 442 393
f 392 439 442
f 393 443 394
f 393 442 443
f 394 443 395
f 395 443 444
f 395 444 433
f 398 434 399
f 399 434 445
f 399 445 400
f 400 445 446
f 400 446 447
f 400 447 401
f 401 447 402
f 402 447 448
f 402 448 404
f 402 404 403
f 404 449 405
f 404 448 449
f 405 449 450
f 405 450 406
f 406 450 451
f 406 451 407
f 407 451 452
f 407 452 408
f 408 452 409
f 409 452 413
f 411 413 453
f 411 453 454
f 411 454 412
f 412 454 455
f 412 455 414
f 413 452 453
f 414 456 415
f 414 455 457
f 414 457 458
f 414 458 456
f 415 456 416
f 416 456 417
f 417 456 459
f 417 459 460
f 417 460 420
f 418 420 421
f 420 460 421
f 421 460 461
f 421 461 422
f 422 461 462
f 422 462 463
f 422 463 423
f 423 463 464
f 423 464 465
f 423 465 424
f 424 465 466
f 424 466 425
f 425 466 467
f 425 467 426
f 426 467 427
f 427 467 468
f 427 468 469
f 427 469 428
f 428 469 429
f 429 469 435
f 431 432 470
f 431 470 434
f 432 433 471
f 432 471 470
f 433 444 472
f 433 472 471
f 434 470 445
f 435 437 436
f 435 469 437
f 437 469 468
f 437 468 473
f 437 473 440
f 437 440 438
f 439 441 474
f 439 474 475
f 439 475 442
f 440 476 441
f 440 473 477
f 440 477 476
f 441 476 474
f 442 475 478
f 442 478 443
f 443 478 444
f 444 478 479
f 444 479 480
f 444 480 472
f 445 470 481
f 445 481 446
f 446 482 483
f 446 483 447
f 446 481 482
f 447 483 448
f 448 483 484
f 448 484 449
f 449 484 485
f 449 485 486
f 449 486 487
f 449 487 450
f 450 487 488
f 450 488 451
f 451 488 453
f 451 453 452
f 453 488 454
f 454 489 455
f 454 488 489
f 455 489 457
f 456 458 490
f 456 490 459
f 457 489 491
f 457 491 458
f 458 491 492
f 458 492 493
f 458 493 490
f 459 490 460
f 460 490 494
f 460 494 461
f 461 494 495
f 461 495 462
f 462 495 496
f 462 496 497
f 462 497 463
f 463 498 464
f 463 497 499
f 463 499 498
f 464 498 465
f 465 499 500
f 465 500 466
f 465 498 499
f 466 500 501
f 466 501 502
f 466 502 467
f 467 502 468
f 468 502 473
f 470 471 481
f 471 472 503
f 471 503 481
f 472 480 503
f 473 502 501
f 473 501 477
f 474 476 504
f 474 504 505
f 474 505 506
f 474 506 475
f 475 506 478
f 476 477 504
f 477 501 507
f 477 507 508
f 477 508 504
f 478 506 509
f 478 509 479
f 479 509 480
f 480 510 503
f 480 509 511
f 480 511 510
f 481 503 482
f 482 503 510
f 482 510 512
f 482 512 483
f 483 512 484
f 484 512 485
f 485 512 513
f 485 513 486
f 486 492 491
f 486 491 487
f 486 513 514
f 486 514 492
f 487 491 489
f 487 489 488
f 490 493 515
f 490 515 494
f 492 516 493
f 492 514 517
f 492 517 516
f 493 516 515
f 494 515 518
f 494 518 519
f 494 519 495
f 495 519 496
f 496 519 520
f 496 520 521
f 496 521 497
f 497 521 499
f 499 521 522
f 499 522 500
f 500 522 508
f 500 508 507
f 500 507 501
f 504 523 505
f 504 508 523
f 505 523 524
f 505 524 525
f 505 525 509
f 505 509 506
f 508 522 526
f 508 526 523
f 509 525 511
f 510 511 527
f 510 527 512
f 511 524 528
f 511 528 527
f 511 525 524
f 512 527 517
f 512 517 513
f 513 517 514
f 515 516 529
f 515 529 530
f 515 530 518
f 516 527 529
f 516 517 527
f 518 530 520
f 518 520 531
f 518 531 519
f 519 531 520
f 520 526 521
f 520 530 524
f 520 524 523
f 520 523 526
f 521 526 522
f 524 530 528
f 527 528 529
f 528 530 529

