# https://github.com/mikedh/trimesh
v 0.01882438 -0.02233540 -0.03153629
v 0.01882438 -0.02232953 -0.03136625
v 0.01882438 -0.02230900 -0.03190040
v 0.01920679 -0.02196577 -0.03216131
v 0.01907129 -0.02213298 -0.03137923
v 0.01882438 -0.02228553 -0.03071267
v 0.01882438 -0.02227380 -0.03212366
v 0.01882438 -0.02223566 -0.03233395
v 0.01960425 -0.02149933 -0.03259616
v 0.02025364 -0.02094781 -0.03232811
v 0.02054672 -0.02073072 -0.03160509
v 0.01888360 -0.02223859 -0.03072241
v 0.01969759 -0.02155506 -0.03102356
v 0.01882438 -0.02209191 -0.02971836
v 0.01882438 -0.02215645 -0.03258578
v 0.01882438 -0.02201857 -0.03283760
v 0.01892776 -0.02190416 -0.03288692
v 0.01987324 -0.02092141 -0.03305307
v 0.02052966 -0.02047843 -0.03271947
v 0.02097329 -0.02019094 -0.03223140
v 0.02144603 -0.01977437 -0.03177059
v 0.02034598 -0.02091261 -0.03092231
v 0.02165279 -0.01954555 -0.03113260
v 0.01924192 -0.02179269 -0.02995591
v 0.01997361 -0.02116196 -0.03017593
v 0.01882438 -0.02168708 -0.02793288
v 0.01882438 -0.02198630 -0.03289082
v 0.01882438 -0.02191883 -0.03296156
v 0.01915961 -0.02107689 -0.03350545
v 0.02008402 -0.02032295 -0.03341329
v 0.02076352 -0.01972157 -0.03332956
v 0.02112284 -0.01975384 -0.03279476
v 0.02197498 -0.01894123 -0.03241508
v 0.02293953 -0.01788220 -0.03199905
v 0.02210446 -0.01901164 -0.03160185
v 0.02108872 -0.02010293 -0.03046215
v 0.02272173 -0.01825183 -0.03131238
v 0.02198502 -0.01904097 -0.03013050
v 0.01905523 -0.02148173 -0.02793288
v 0.01998967 -0.02062805 -0.02793288
v 0.02060493 -0.02037283 -0.02934777
v 0.01882438 -0.01192113 -0.02793288
v 0.01882438 -0.02154920 -0.03332307
v 0.01882438 -0.02101822 -0.03378648
v 0.01882438 -0.02097421 -0.03382023
v 0.01882438 -0.02134385 -0.03352102
v 0.02029680 -0.01966289 -0.03373975
v 0.02157451 -0.01846599 -0.03358658
v 0.02165179 -0.01877108 -0.03322312
v 0.02218275 -0.01831344 -0.03299142
v 0.02288031 -0.01762991 -0.03271298
v 0.02355480 -0.01689945 -0.03234239
v 0.02416605 -0.01605457 -0.03231708
v 0.02380974 -0.01672637 -0.03176216
v 0.02122622 -0.01974210 -0.02946330
v 0.02327376 -0.01751550 -0.03103654
v 0.02287630 -0.01794381 -0.03023824
v 0.02174614 -0.01881215 -0.02793288
v 0.02169997 -0.01886496 -0.02793288
v 0.02263039 -0.01803182 -0.02922900
v 0.02088697 -0.01975970 -0.02793288
v 0.01882438 -0.01447923 -0.03261563
v 0.02195892 0.00001861 -0.02793288
v 0.02068122 0.00763422 -0.02818081
v 0.01882438 -0.02094488 -0.03383061
v 0.01957916 -0.01975090 -0.03398184
v 0.02107466 -0.01832224 -0.03394159
v 0.02338517 -0.01598123 -0.03367160
v 0.02295057 -0.01704613 -0.03336007
v 0.02377963 -0.01620125 -0.03305762
v 0.02438184 -0.01553532 -0.03281878
v 0.02491581 -0.01484593 -0.03256176
v 0.02462273 -0.01549132 -0.03186600
v 0.02472611 -0.01536518 -0.03136365
v 0.02375052 -0.01684664 -0.03083469
v 0.02348052 -0.01707253 -0.02989100
v 0.02254307 -0.01780006 -0.02793288
v 0.01882438 -0.01473445 -0.03302776
v 0.02866060 0.00001861 -0.02793288
v 0.02714903 0.00763422 -0.02818081
v 0.02233029 0.00763422 -0.03287265
v 0.01882438 -0.01569961 -0.03372417
v 0.01882438 -0.01555586 -0.03365278
v 0.01882438 -0.01508062 -0.03334384
v 0.01882438 -0.02028775 -0.03402727
v 0.01891772 -0.01961889 -0.03414994
v 0.02055274 -0.01808755 -0.03412657
v 0.02180134 -0.01690238 -0.03407854
v 0.02342733 -0.01525370 -0.03392472
v 0.02415099 -0.01470218 -0.03375143
v 0.02405263 -0.01534757 -0.03347819
v 0.02465886 -0.01470512 -0.03325103
v 0.02521893 -0.01408319 -0.03297519
v 0.02569769 -0.01340847 -0.03266560
v 0.02553208 -0.01392771 -0.03216975
v 0.02505834 -0.01479606 -0.03178098
v 0.02553610 -0.01399225 -0.03160379
v 0.02512960 -0.01456430 -0.03026939
v 0.02455849 -0.01554413 -0.03030898
v 0.02422125 -0.01612498 -0.03060818
v 0.02444006 -0.01550305 -0.02956130
v 0.02407672 -0.01591669 -0.02910178
v 0.02333800 -0.01692585 -0.02879415
v 0.02313525 -0.01692878 -0.02793288
v 0.02866060 -0.00001073 -0.02793288
v 0.02891052 0.00080774 -0.02997278
v 0.02867766 0.00091335 -0.02818081
v 0.02865759 0.00139740 -0.02818081
v 0.02860038 0.00184330 -0.02818081
v 0.02852610 0.00235668 -0.02818081
v 0.02844280 0.00281139 -0.02818081
v 0.02834745 0.00323383 -0.02818081
v 0.02765189 0.00592100 -0.02818081
v 0.02737788 0.00695656 -0.02818081
v 0.02792288 0.00763422 -0.03053679
v 0.02249188 0.00763422 -0.03332502
v 0.01882438 -0.01629513 -0.03395977
v 0.01882438 -0.01969810 -0.03414864
v 0.01882438 -0.01908791 -0.03422976
v 0.02122121 -0.01689358 -0.03420056
v 0.01882438 -0.01962182 -0.03416097
v 0.02281909 -0.01468165 -0.03422003
v 0.02285221 -0.01528890 -0.03410904
v 0.02352971 -0.01396878 -0.03416811
v 0.02407271 -0.01412720 -0.03395068
v 0.02492183 -0.01331459 -0.03377934
v 0.02480741 -0.01401279 -0.03354764
v 0.02540260 -0.01339380 -0.03327439
v 0.02593858 -0.01270440 -0.03294663
v 0.02619753 -0.01257533 -0.03233006
v 0.02625574 -0.01257826 -0.03191727
v 0.02547888 -0.01401279 -0.03080159
v 0.02587936 -0.01331459 -0.03120594
v 0.02570572 -0.01340260 -0.02998706
v 0.02619552 -0.01184193 -0.02793288
v 0.02617143 -0.01188593 -0.02793288
v 0.02571274 -0.01272201 -0.02793288
v 0.02402754 -0.01552652 -0.02793288
v 0.02364513 -0.01613671 -0.02793288
v 0.02865960 -0.00008700 -0.02793288
v 0.02894063 0.00001861 -0.03028562
v 0.02905606 0.00121258 -0.03138831
v 0.02897375 0.00142967 -0.03069645
v 0.02904201 0.00216306 -0.03154408
v 0.02899182 0.00282312 -0.03150644
v 0.02892156 0.00353599 -0.03160314
v 0.02870777 0.00416964 -0.03091517
v 0.02847793 0.00546336 -0.03095476
v 0.02814169 0.00644905 -0.03036350
v 0.02793091 0.00763422 -0.03058482
v 0.02258723 0.00763422 -0.03354569
v 0.01882438 -0.01682904 -0.03414409
v 0.01882438 -0.01888549 -0.03425443
v 0.02201111 -0.01542971 -0.03426351
v 0.02271671 -0.01409786 -0.03431024
v 0.02442601 -0.01177739 -0.03428623
v 0.02434270 -0.01259879 -0.03418823
v 0.02498507 -0.01243745 -0.03398249
v 0.02560435 -0.01205901 -0.03376701
v 0.02557323 -0.01263693 -0.03353920
v 0.02618047 -0.01189180 -0.03322507
v 0.02672748 -0.01062155 -0.03323350
v 0.02668432 -0.01140189 -0.03248647
v 0.02622563 -0.01261933 -0.03125072
v 0.02693123 -0.01099998 -0.03179656
v 0.02654481 -0.01192407 -0.03117933
v 0.02620957 -0.01248732 -0.03033234
v 0.02661808 -0.01148989 -0.02993125
v 0.02646853 -0.01122587 -0.02793288
v 0.02895368 -0.00037156 -0.03044008
v 0.02864454 -0.00043023 -0.02793288
v 0.02886937 -0.00186770 -0.02996305
v 0.02897877 0.00001861 -0.03067179
v 0.02907814 0.00145313 -0.03219311
v 0.02901390 0.00001861 -0.03115401
v 0.02905104 0.00025916 -0.03159601
v 0.02897877 0.00288180 -0.03230929
v 0.02883725 0.00399363 -0.03227099
v 0.02881316 0.00416671 -0.03158173
v 0.02815173 0.00702110 -0.03114558
v 0.02864153 0.00499692 -0.03153370
v 0.02800519 0.00763422 -0.03123320
v 0.02287028 0.00763422 -0.03388513
v 0.01882438 -0.01687598 -0.03414994
v 0.02293953 0.00763422 -0.03396302
v 0.02317540 0.00763422 -0.03414020
v 0.01882438 -0.01831638 -0.03425118
v 0.02451032 0.00763422 -0.03453935
v 0.02491882 0.00763422 -0.03456272
v 0.02123927 -0.01542091 -0.03431089
v 0.02354275 -0.01134322 -0.03434205
v 0.02355179 -0.01269854 -0.03431414
v 0.02507339 -0.01130801 -0.03417135
v 0.02522294 -0.00822480 -0.03435243
v 0.02510852 -0.00986762 -0.03429791
v 0.02574787 -0.01121414 -0.03389292
v 0.02642336 -0.00982068 -0.03381958
v 0.02624370 -0.01110559 -0.03359242
v 0.02688305 -0.00975907 -0.03345742
v 0.02708881 -0.00928090 -0.03340290
v 0.02745918 -0.00841842 -0.03330490
v 0.02769605 -0.00833628 -0.03294793
v 0.02737487 -0.00928090 -0.03292262
v 0.02719320 -0.00981481 -0.03290769
v 0.02712294 -0.01033699 -0.03235861
v 0.02741501 -0.00967400 -0.03154992
v 0.02711290 -0.01050127 -0.03090349
v 0.02682484 -0.01122294 -0.03097878
v 0.02733974 -0.00965053 -0.03000848
v 0.02693725 -0.01043967 -0.02922900
v 0.02669938 -0.01062448 -0.02793288
v 0.02894465 -0.00152447 -0.03082626
v 0.02853112 -0.00266270 -0.02793288
v 0.02850302 -0.00306754 -0.02793288
v 0.02876800 -0.00356918 -0.03012595
v 0.02887539 -0.00294433 -0.03078147
v 0.02883123 0.00045278 -0.03265522
v 0.02881718 0.00191371 -0.03271298
v 0.02904502 0.00010075 -0.03216326
v 0.02894565 -0.00133672 -0.03229501
v 0.02885933 0.00001861 -0.03256825
v 0.02900688 -0.00080280 -0.03161872
v 0.02862748 0.00272632 -0.03297325
v 0.02865558 0.00363280 -0.03277075
v 0.02814570 0.00546043 -0.03310889
v 0.02768902 0.00717365 -0.03333086
v 0.02804333 0.00641678 -0.03288238
v 0.02778939 0.00763422 -0.03281813
v 0.02784761 0.00763422 -0.03254423
v 0.02791887 0.00763422 -0.03216066
v 0.02796705 0.00763422 -0.03183160
v 0.02798612 0.00763422 -0.03161677
v 0.01882438 -0.01704319 -0.03416356
v 0.02367022 0.00763422 -0.03437709
v 0.01882438 -0.01827824 -0.03424924
v 0.02408375 0.00763422 -0.03446212
v 0.02443303 0.00763422 -0.03453156
v 0.02524000 0.00763422 -0.03452896
v 0.02530123 0.00679228 -0.03453156
v 0.02596568 0.00430459 -0.03446926
v 0.02652674 -0.00130445 -0.03438813
v 0.02597772 -0.00583392 -0.03435762
v 0.02665622 -0.00685775 -0.03417849
v 0.02659198 -0.00832748 -0.03402986
v 0.02624470 -0.00928090 -0.03401818
v 0.02583921 -0.01038980 -0.03400260
v 0.02668934 -0.00560510 -0.03425183
v 0.02648459 -0.00928090 -0.03389616
v 0.02734375 -0.00694575 -0.03386890
v 0.02663715 -0.00928090 -0.03380335
v 0.02678068 -0.00928090 -0.03369107
v 0.02697138 -0.00898460 -0.03362162
v 0.02693826 -0.00928090 -0.03355932
v 0.02772214 -0.00707777 -0.03350155
v 0.02811058 -0.00700443 -0.03295247
v 0.02821496 -0.00716284 -0.03247349
v 0.02734375 -0.00971800 -0.03230215
v 0.02741301 -0.00964173 -0.03070878
v 0.02807344 -0.00773196 -0.03175372
v 0.02754951 -0.00928090 -0.03154992
v 0.02754951 -0.00928090 -0.03131433
v 0.02693725 -0.00992335 -0.02793288
v 0.02749732 -0.00928090 -0.03033624
v 0.02744914 -0.00928090 -0.02997278
v 0.02837655 -0.00408256 -0.02793288
v 0.02835849 -0.00421457 -0.02793288
v 0.02859235 -0.00489810 -0.03023824
v 0.02875394 -0.00424978 -0.03083729
v 0.02878807 -0.00423218 -0.03157978
v 0.02887539 -0.00334330 -0.03164987
v 0.02894264 -0.00212585 -0.03167648
v 0.02812162 0.00010075 -0.03385073
v 0.02853915 0.00112164 -0.03317509
v 0.02880012 0.00001861 -0.03268637
v 0.02847191 -0.00342250 -0.03308293
v 0.02812965 -0.00151567 -0.03376182
v 0.02812262 0.00001861 -0.03384619
v 0.02851607 0.00182277 -0.03321922
v 0.02881417 -0.00284752 -0.03241703
v 0.02817280 0.00158515 -0.03379232
v 0.02833039 0.00255030 -0.03346002
v 0.02833440 0.00357706 -0.03329906
v 0.02798511 0.00413738 -0.03374429
v 0.02790080 0.00553670 -0.03355023
v 0.02756055 0.00763422 -0.03335877
v 0.02768601 0.00763422 -0.03307644
v 0.01882438 -0.01755071 -0.03420251
v 0.02541465 0.00763422 -0.03450885
v 0.02603694 0.00576845 -0.03446212
v 0.02668432 0.00247696 -0.03439072
v 0.02661406 0.00162622 -0.03439786
v 0.02673652 -0.00269791 -0.03435568
v 0.02667629 -0.00415884 -0.03432582
v 0.02741702 -0.00386841 -0.03413501
v 0.02739394 -0.00530001 -0.03404544
v 0.02720725 -0.00636197 -0.03401753
v 0.02784660 -0.00572831 -0.03365083
v 0.02719019 -0.00787277 -0.03376246
v 0.02815674 -0.00626516 -0.03314913
v 0.02839362 -0.00539681 -0.03291808
v 0.02851205 -0.00583099 -0.03242417
v 0.02846488 -0.00632090 -0.03177449
v 0.02829525 -0.00700736 -0.03180240
v 0.02777534 -0.00861790 -0.03092166
v 0.02777534 -0.00861497 -0.03154992
v 0.02766393 -0.00854163 -0.02990009
v 0.02711190 -0.00928090 -0.02793288
v 0.02801824 -0.00765275 -0.03053549
v 0.02834042 -0.00431725 -0.02793288
v 0.02809251 -0.00554056 -0.02793288
v 0.02833139 -0.00629156 -0.03040958
v 0.02854718 -0.00563150 -0.03095606
v 0.02870677 -0.00495091 -0.03165831
v 0.02868569 -0.00433779 -0.03242871
v 0.02779140 0.00091629 -0.03407594
v 0.02808749 0.00001861 -0.03387020
v 0.02835949 -0.00458421 -0.03314005
v 0.02798712 -0.00423218 -0.03370016
v 0.02805035 0.00269111 -0.03385592
v 0.02729457 0.00531375 -0.03407659
v 0.02689610 0.00763422 -0.03403246
v 0.02718015 0.00763422 -0.03377025
v 0.02719119 0.00763422 -0.03375987
v 0.02749430 0.00763422 -0.03343600
v 0.02555818 0.00763422 -0.03448094
v 0.02597371 0.00687149 -0.03443031
v 0.02670139 0.00560417 -0.03430505
v 0.02670339 0.00414031 -0.03435762
v 0.02745918 0.00232735 -0.03419342
v 0.02699145 0.00021809 -0.03433426
v 0.02696235 -0.00117537 -0.03433556
v 0.02776731 -0.00074413 -0.03404934
v 0.02735981 0.00001861 -0.03421484
v 0.02777835 0.00001861 -0.03406167
v 0.02810154 -0.00548482 -0.03337694
v 0.02859536 -0.00563737 -0.03167454
v 0.02825210 -0.00702496 -0.03108327
v 0.02714703 -0.00914888 -0.02793288
v 0.02807243 -0.00562857 -0.02793288
v 0.02735580 0.00092802 -0.03422847
v 0.02745115 0.00373841 -0.03412267
v 0.02669838 0.00699763 -0.03423236
v 0.02664919 0.00763422 -0.03419407
v 0.02598776 0.00763422 -0.03439007
v 0.02635210 0.00763422 -0.03429142
f 1 2 6
f 1 6 14
f 1 14 26
f 1 26 42
f 1 42 62
f 1 62 78
f 1 78 84
f 1 84 83
f 1 83 82
f 1 82 117
f 1 117 152
f 1 152 184
f 1 184 233
f 1 233 287
f 1 287 235
f 1 235 187
f 1 187 153
f 1 153 119
f 1 119 121
f 1 121 118
f 1 118 85
f 1 85 65
f 1 65 45
f 1 45 44
f 1 44 46
f 1 46 43
f 1 43 28
f 1 28 27
f 1 27 16
f 1 16 15
f 1 15 8
f 1 8 7
f 1 7 3
f 1 3 4
f 1 4 5
f 1 5 2
f 2 5 6
f 3 7 4
f 4 7 8
f 4 8 9
f 4 9 10
f 4 10 11
f 4 11 5
f 5 12 6
f 5 11 13
f 5 13 12
f 6 12 14
f 8 15 9
f 9 15 16
f 9 16 17
f 9 17 18
f 9 18 19
f 9 19 10
f 10 19 20
f 10 20 21
f 10 21 11
f 11 22 13
f 11 21 23
f 11 23 22
f 12 13 24
f 12 24 14
f 13 25 24
f 13 22 25
f 14 24 26
f 16 27 17
f 17 27 28
f 17 28 18
f 18 29 30
f 18 30 31
f 18 31 19
f 18 28 29
f 19 31 32
f 19 32 33
f 19 33 20
f 20 33 21
f 21 33 34
f 21 34 35
f 21 35 23
f 22 23 36
f 22 36 25
f 23 35 37
f 23 37 38
f 23 38 36
f 24 39 26
f 24 25 40
f 24 40 39
f 25 36 41
f 25 41 40
f 26 39 40
f 26 40 61
f 26 61 59
f 26 59 58
f 26 58 77
f 26 77 104
f 26 104 139
f 26 139 138
f 26 138 137
f 26 137 136
f 26 136 135
f 26 135 169
f 26 169 211
f 26 211 262
f 26 262 307
f 26 307 338
f 26 338 339
f 26 339 310
f 26 310 309
f 26 309 266
f 26 266 265
f 26 265 214
f 26 214 213
f 26 213 171
f 26 171 140
f 26 140 105
f 26 105 79
f 26 79 63
f 26 63 42
f 28 43 29
f 29 44 45
f 29 45 30
f 29 43 46
f 29 46 44
f 30 45 47
f 30 47 31
f 31 47 48
f 31 48 49
f 31 49 32
f 32 49 50
f 32 50 51
f 32 51 33
f 33 51 34
f 34 37 35
f 34 51 52
f 34 52 53
f 34 53 54
f 34 54 37
f 36 55 41
f 36 38 55
f 37 54 56
f 37 56 57
f 37 57 38
f 38 58 59
f 38 59 55
f 38 57 60
f 38 60 58
f 40 41 61
f 41 55 61
f 42 63 64
f 42 64 62
f 45 65 66
f 45 66 67
f 45 67 47
f 47 67 48
f 48 67 68
f 48 68 69
f 48 69 49
f 49 69 50
f 50 69 51
f 51 69 70
f 51 70 71
f 51 71 52
f 52 71 53
f 53 71 72
f 53 72 73
f 53 73 54
f 54 73 74
f 54 74 75
f 54 75 56
f 55 59 61
f 56 75 57
f 57 75 76
f 57 76 60
f 58 60 77
f 60 76 77
f 62 64 78
f 63 79 80
f 63 80 64
f 64 80 115
f 64 115 150
f 64 150 182
f 64 182 232
f 64 232 231
f 64 231 230
f 64 230 229
f 64 229 228
f 64 228 286
f 64 286 285
f 64 285 324
f 64 324 323
f 64 323 322
f 64 322 321
f 64 321 343
f 64 343 345
f 64 345 344
f 64 344 325
f 64 325 288
f 64 288 238
f 64 238 189
f 64 189 188
f 64 188 237
f 64 237 236
f 64 236 234
f 64 234 186
f 64 186 185
f 64 185 183
f 64 183 151
f 64 151 116
f 64 116 81
f 64 81 82
f 64 82 83
f 64 83 84
f 64 84 78
f 65 85 66
f 66 85 86
f 66 86 87
f 66 87 67
f 67 87 88
f 67 88 89
f 67 89 68
f 68 89 90
f 68 90 91
f 68 91 69
f 69 91 70
f 70 91 92
f 70 92 71
f 71 92 93
f 71 93 72
f 72 93 94
f 72 94 95
f 72 95 73
f 73 95 96
f 73 96 74
f 74 96 97
f 74 97 98
f 74 98 99
f 74 99 100
f 74 100 75
f 75 100 76
f 76 100 99
f 76 99 101
f 76 101 102
f 76 102 103
f 76 103 77
f 77 103 104
f 79 105 106
f 79 106 107
f 79 107 108
f 79 108 109
f 79 109 110
f 79 110 111
f 79 111 112
f 79 112 113
f 79 113 114
f 79 114 80
f 80 114 115
f 81 116 82
f 82 116 117
f 85 118 86
f 86 119 120
f 86 120 87
f 86 118 121
f 86 121 119
f 87 120 88
f 88 120 122
f 88 122 123
f 88 123 89
f 89 123 124
f 89 124 125
f 89 125 90
f 90 125 126
f 90 126 127
f 90 127 91
f 91 127 92
f 92 127 128
f 92 128 93
f 93 128 129
f 93 129 94
f 94 129 130
f 94 130 95
f 95 130 131
f 95 131 97
f 95 97 96
f 97 132 98
f 97 131 133
f 97 133 132
f 98 132 134
f 98 134 135
f 98 135 136
f 98 136 137
f 98 137 101
f 98 101 99
f 101 138 102
f 101 137 138
f 102 138 139
f 102 139 104
f 102 104 103
f 105 140 141
f 105 141 106
f 106 142 143
f 106 143 108
f 106 108 107
f 106 141 142
f 108 143 144
f 108 144 145
f 108 145 146
f 108 146 109
f 109 146 110
f 110 146 147
f 110 147 111
f 111 147 148
f 111 148 149
f 111 149 115
f 111 115 112
f 112 115 113
f 113 115 114
f 115 149 148
f 115 148 150
f 116 151 117
f 117 151 152
f 119 153 120
f 120 153 154
f 120 154 122
f 122 155 156
f 122 156 157
f 122 157 124
f 122 124 123
f 122 154 155
f 124 157 125
f 125 157 158
f 125 158 126
f 126 158 159
f 126 159 160
f 126 160 127
f 127 160 128
f 128 160 161
f 128 161 129
f 129 161 162
f 129 162 163
f 129 163 130
f 130 163 131
f 131 164 133
f 131 163 165
f 131 165 166
f 131 166 164
f 132 133 134
f 133 164 167
f 133 167 134
f 134 167 135
f 135 167 168
f 135 168 169
f 140 170 141
f 140 171 172
f 140 172 170
f 141 170 173
f 141 173 142
f 142 174 144
f 142 144 143
f 142 173 175
f 142 175 176
f 142 176 174
f 144 174 177
f 144 177 145
f 145 177 146
f 146 177 178
f 146 178 179
f 146 179 147
f 147 179 148
f 148 180 150
f 148 179 181
f 148 181 180
f 150 180 182
f 151 183 152
f 152 183 185
f 152 185 186
f 152 186 184
f 153 187 188
f 153 188 189
f 153 189 190
f 153 190 155
f 153 155 154
f 155 190 191
f 155 191 192
f 155 192 156
f 156 193 157
f 156 192 194
f 156 194 195
f 156 195 193
f 157 193 158
f 158 193 196
f 158 196 159
f 159 196 197
f 159 197 198
f 159 198 160
f 160 198 161
f 161 198 162
f 162 198 199
f 162 199 200
f 162 200 201
f 162 201 202
f 162 202 203
f 162 203 204
f 162 204 163
f 163 204 205
f 163 205 165
f 164 166 167
f 165 205 206
f 165 206 207
f 165 207 208
f 165 208 166
f 166 168 167
f 166 208 168
f 168 208 207
f 168 207 209
f 168 209 210
f 168 210 169
f 169 210 211
f 170 175 173
f 170 172 212
f 170 212 175
f 171 213 172
f 172 213 214
f 172 214 215
f 172 215 216
f 172 216 212
f 174 217 218
f 174 218 177
f 174 176 219
f 174 219 220
f 174 220 221
f 174 221 217
f 175 212 176
f 176 212 222
f 176 222 219
f 177 218 223
f 177 223 224
f 177 224 178
f 178 181 179
f 178 224 225
f 178 225 226
f 178 226 227
f 178 227 228
f 178 228 229
f 178 229 230
f 178 230 231
f 178 231 232
f 178 232 181
f 180 181 182
f 181 232 182
f 184 186 234
f 184 234 233
f 187 235 234
f 187 234 236
f 187 236 237
f 187 237 188
f 189 238 239
f 189 239 240
f 189 240 241
f 189 241 242
f 189 242 194
f 189 194 191
f 189 191 190
f 191 194 192
f 193 195 243
f 193 243 244
f 193 244 245
f 193 245 246
f 193 246 196
f 194 242 195
f 195 242 247
f 195 247 243
f 196 246 245
f 196 245 244
f 196 244 248
f 196 248 197
f 197 248 249
f 197 249 250
f 197 250 251
f 197 251 198
f 198 251 252
f 198 252 253
f 198 253 199
f 199 253 254
f 199 254 200
f 200 254 201
f 201 254 255
f 201 255 202
f 202 255 256
f 202 256 203
f 203 256 204
f 204 256 205
f 205 256 257
f 205 257 206
f 206 258 207
f 206 257 259
f 206 259 260
f 206 260 261
f 206 261 258
f 207 258 209
f 209 262 211
f 209 211 210
f 209 258 263
f 209 263 264
f 209 264 262
f 212 216 222
f 214 265 215
f 215 265 266
f 215 266 267
f 215 267 268
f 215 268 216
f 216 268 269
f 216 269 270
f 216 270 271
f 216 271 222
f 217 272 273
f 217 273 218
f 217 221 274
f 217 274 275
f 217 275 276
f 217 276 277
f 217 277 272
f 218 273 278
f 218 278 223
f 219 222 271
f 219 271 270
f 219 270 220
f 220 270 279
f 220 279 275
f 220 275 274
f 220 274 221
f 223 278 280
f 223 280 281
f 223 281 282
f 223 282 224
f 224 282 283
f 224 283 284
f 224 284 225
f 225 284 226
f 226 284 285
f 226 285 286
f 226 286 227
f 227 286 228
f 233 234 287
f 234 235 287
f 238 288 289
f 238 289 239
f 239 289 240
f 240 289 290
f 240 290 291
f 240 291 241
f 241 292 242
f 241 291 292
f 242 292 293
f 242 293 247
f 243 247 294
f 243 294 295
f 243 295 296
f 243 296 244
f 244 296 249
f 244 249 248
f 247 293 294
f 249 296 295
f 249 295 297
f 249 297 254
f 249 254 298
f 249 298 250
f 250 298 251
f 251 298 252
f 252 298 254
f 252 254 253
f 254 297 299
f 254 299 255
f 255 299 300
f 255 300 301
f 255 301 256
f 256 301 302
f 256 302 303
f 256 303 259
f 256 259 257
f 258 261 304
f 258 304 263
f 259 304 305
f 259 305 260
f 259 303 304
f 260 305 304
f 260 304 261
f 262 264 306
f 262 306 307
f 263 304 308
f 263 308 264
f 264 308 306
f 266 309 267
f 267 309 310
f 267 310 311
f 267 311 312
f 267 312 268
f 268 312 313
f 268 313 269
f 269 313 270
f 270 313 314
f 270 314 279
f 272 315 280
f 272 280 273
f 272 277 316
f 272 316 315
f 273 280 278
f 275 279 317
f 275 317 276
f 276 317 318
f 276 318 294
f 276 294 277
f 277 294 316
f 279 314 300
f 279 300 317
f 280 315 319
f 280 319 281
f 281 319 283
f 281 283 282
f 283 319 320
f 283 320 321
f 283 321 284
f 284 321 322
f 284 322 323
f 284 323 324
f 284 324 285
f 288 325 289
f 289 325 326
f 289 326 327
f 289 327 328
f 289 328 290
f 290 328 329
f 290 329 330
f 290 330 331
f 290 331 291
f 291 331 292
f 292 331 294
f 292 294 293
f 294 332 316
f 294 318 295
f 294 331 333
f 294 333 315
f 294 315 334
f 294 334 332
f 295 318 297
f 297 335 299
f 297 318 335
f 299 335 317
f 299 317 300
f 300 314 301
f 301 314 313
f 301 313 336
f 301 336 302
f 302 336 312
f 302 312 337
f 302 337 303
f 303 337 304
f 304 337 308
f 306 308 307
f 307 308 338
f 308 337 311
f 308 311 339
f 308 339 338
f 310 339 311
f 311 337 312
f 312 336 313
f 315 340 329
f 315 329 319
f 315 316 334
f 315 333 340
f 316 332 334
f 317 335 318
f 319 329 341
f 319 341 320
f 320 341 342
f 320 342 343
f 320 343 321
f 325 344 326
f 326 344 327
f 327 344 342
f 327 342 341
f 327 341 329
f 327 329 328
f 329 340 330
f 330 340 331
f 331 340 333
f 342 344 345
f 342 345 343

