# https://github.com/mikedh/trimesh
v 0.05445091 -0.01251956 0.03402105
v 0.05235605 -0.01762118 0.03391377
v 0.05432779 -0.01336256 0.03399602
v 0.05512059 -0.01257406 0.03394953
v 0.05518215 -0.01114241 0.03400675
v 0.05224040 0.01938742 0.03348822
v 0.05225532 -0.01762118 0.03389232
v 0.05281868 -0.01762118 0.03386371
v 0.05215645 0.01950006 0.03347750
v 0.05562239 -0.01198541 0.03352399
v 0.05683304 -0.00691285 0.03330585
v 0.05375884 -0.01762118 0.03361696
v 0.05400881 -0.01762118 0.03351326
v 0.05424012 -0.01762118 0.03337022
v 0.05437070 -0.01762118 0.03328082
v 0.05476803 -0.01697440 0.03306626
v 0.05545637 -0.01553184 0.03274799
v 0.05690952 0.00134277 0.03327724
v 0.05530154 0.00847561 0.03359551
v 0.05376071 0.01668763 0.03344531
v 0.05365251 0.01825009 0.03332373
v 0.05311714 0.01950006 0.03330227
v 0.05220869 0.01950006 0.03347035
v 0.05207997 -0.01762118 0.03384940
v 0.05179456 0.01950006 0.03339883
v 0.05617641 -0.01125868 0.03300904
v 0.05667261 -0.01071364 0.03241900
v 0.05686102 -0.00927835 0.03251913
v 0.05707181 -0.00727985 0.03274084
v 0.05721172 -0.00633147 0.03270151
v 0.05733297 -0.00555751 0.03261568
v 0.05740199 -0.00136065 0.03273727
v 0.05731618 0.00002013 0.03287315
v 0.05709420 -0.00121531 0.03309129
v 0.05458335 -0.01762118 0.03299116
v 0.05512805 -0.01684722 0.03253344
v 0.05572872 -0.01525205 0.03203280
v 0.05640959 -0.01209079 0.03234033
v 0.05731618 0.00002376 0.03287315
v 0.05740945 0.00113202 0.03273727
v 0.05682185 0.00403167 0.03323791
v 0.05671365 0.00267632 0.03330585
v 0.05604770 0.00807227 0.03337022
v 0.05523065 0.00993270 0.03350611
v 0.05406290 0.01821012 0.03309487
v 0.05359282 0.01950006 0.03315924
v 0.05358536 0.01950006 0.03316281
v 0.05614284 0.00937311 0.03317711
v 0.05665023 0.00826849 0.03305195
v 0.05175912 -0.01762118 0.03373497
v 0.05089544 0.01950006 0.03303407
v 0.05090290 0.01948190 0.03303765
v 0.05700839 -0.00989607 0.03182539
v 0.05672671 -0.01136769 0.03181466
v 0.05718001 -0.00855162 0.03192909
v 0.05735349 -0.00705093 0.03201134
v 0.05751578 -0.00565561 0.03207928
v 0.05762584 -0.00417672 0.03219372
v 0.05769113 -0.00269420 0.03222232
v 0.05772844 -0.00141879 0.03222948
v 0.05772844 -0.00014338 0.03226881
v 0.05472699 -0.01762118 0.03274799
v 0.05534631 -0.01663284 0.03190763
v 0.05491353 -0.01762118 0.03238324
v 0.05496390 -0.01762118 0.03217226
v 0.05578281 -0.01549551 0.03124250
v 0.05621745 -0.01382767 0.03135693
v 0.05649727 -0.01250139 0.03163586
v 0.05773403 0.00002376 0.03225808
v 0.05776761 0.00128827 0.03216153
v 0.05768367 0.00266178 0.03224735
v 0.05736655 0.00261091 0.03268362
v 0.05712404 0.00687317 0.03267647
v 0.05662785 0.00704759 0.03316281
v 0.05454605 0.01809748 0.03272296
v 0.05563358 0.01395150 0.03277660
v 0.05362453 0.01950006 0.03313063
v 0.05720985 0.00774888 0.03250125
v 0.05700839 0.00855918 0.03258350
v 0.05147931 -0.01761028 0.03358835
v 0.05147931 -0.01762118 0.03358835
v 0.05054661 0.01950006 0.03271223
v 0.05108757 -0.01762118 0.03333088
v 0.05705502 -0.01030304 0.03117813
v 0.05723037 -0.00927472 0.03119601
v 0.05686662 -0.01129865 0.03101006
v 0.05737961 -0.00808288 0.03128541
v 0.05751578 -0.00682565 0.03139269
v 0.05766501 -0.00565198 0.03136766
v 0.05777694 -0.00471450 0.03136766
v 0.05783290 -0.00387513 0.03148924
v 0.05790565 -0.00257429 0.03151070
v 0.05792990 -0.00104453 0.03164659
v 0.05503851 -0.01762118 0.03174314
v 0.05540786 -0.01674548 0.03111734
v 0.05594510 -0.01541920 0.02975846
v 0.05628647 -0.01407112 0.03007315
v 0.05661852 -0.01245778 0.03089920
v 0.05796721 0.00045253 0.03153931
v 0.05794482 0.00184058 0.03152858
v 0.05769113 0.00408617 0.03202206
v 0.05748593 0.00716023 0.03203280
v 0.05508515 0.01696379 0.03246907
v 0.05482399 0.01834457 0.03231530
v 0.05415058 0.01916940 0.03274084
v 0.05605330 0.01375892 0.03220802
v 0.05402187 0.01950006 0.03272654
v 0.05733110 0.00831573 0.03203280
v 0.05033395 0.01950006 0.03237967
v 0.05071822 -0.01762118 0.03289103
v 0.05089730 -0.01762118 0.03312705
v 0.05102228 -0.01762118 0.03327009
v 0.05697108 -0.01118238 0.03014824
v 0.05723037 -0.00977616 0.03041287
v 0.05742438 -0.00858069 0.03036280
v 0.05758480 -0.00721081 0.03058809
v 0.05777507 -0.00570648 0.03055948
v 0.05795042 -0.00414402 0.03050227
v 0.05800265 -0.00290495 0.03080623
v 0.05808100 -0.00147330 0.03065246
v 0.05808846 -0.00006344 0.03083484
v 0.05806794 0.00002376 0.03095642
v 0.05506650 -0.01762118 0.03151785
v 0.05551979 -0.01681815 0.02956178
v 0.05603838 -0.01681815 0.02362562
v 0.05511873 -0.01762118 0.03094211
v 0.05578281 -0.01762118 0.02350761
v 0.05644130 -0.01541920 0.02381157
v 0.05678641 -0.01401298 0.02397607
v 0.05664836 -0.01256679 0.03030201
v 0.05810525 0.00133551 0.03063100
v 0.05803436 0.00270902 0.03080980
v 0.05788886 0.00333037 0.03147494
v 0.05779000 0.00484560 0.03144275
v 0.05767434 0.00644440 0.03139984
v 0.05757361 0.00759990 0.03140342
v 0.05493592 0.01876970 0.03165731
v 0.05445650 0.01950006 0.03222948
v 0.05443225 0.01950006 0.03228669
v 0.05621932 0.01422039 0.03151785
v 0.05521946 0.01773048 0.03170023
v 0.05435951 0.01950006 0.03236894
v 0.05747474 0.00838113 0.03130687
v 0.05733484 0.00906789 0.03130687
v 0.04993848 0.01950006 0.03173599
v 0.05047758 -0.01762118 0.03241900
v 0.05742438 -0.01121145 0.02427287
v 0.05779932 -0.00981250 0.02290684
v 0.05802504 -0.00841354 0.02301055
v 0.05756615 -0.00842081 0.02897174
v 0.05777321 -0.00701823 0.02906471
v 0.05793550 -0.00561928 0.02914339
v 0.05844102 -0.00421306 0.02474848
v 0.05854549 -0.00281411 0.02480212
v 0.05813510 -0.00273053 0.02955820
v 0.05820971 -0.00141516 0.02927570
v 0.05821344 0.00000560 0.02957608
v 0.05821344 0.00002376 0.02957608
v 0.05613538 -0.01679635 0.02215231
v 0.05654203 -0.01540830 0.02232753
v 0.05582385 -0.01762118 0.02288896
v 0.05689273 -0.01401298 0.02247772
v 0.05711658 -0.01261403 0.02412984
v 0.05823023 0.00138274 0.02928643
v 0.05816681 0.00265815 0.02955820
v 0.05796908 0.00413704 0.03062743
v 0.05782917 0.00571404 0.03073471
v 0.05769299 0.00839203 0.02901465
v 0.05771911 0.00709482 0.03050942
v 0.05519894 0.01824283 0.03103509
v 0.05491540 0.01921301 0.03080980
v 0.05469341 0.01950006 0.03157507
v 0.05637788 0.01408231 0.03079908
v 0.05613911 0.01504159 0.03079550
v 0.05748034 0.00978008 0.02892883
v 0.05722851 0.01117177 0.02882512
v 0.05732924 0.00991816 0.03002308
v 0.05677708 0.01269426 0.02995514
v 0.04992915 0.01950006 0.03171095
v 0.05023321 -0.01762118 0.03177175
v 0.05753070 -0.01121508 0.02277811
v 0.05761465 -0.01120781 0.02128334
v 0.05787580 -0.00981250 0.02140135
v 0.05810525 -0.00841718 0.02149790
v 0.05830485 -0.00701459 0.02160160
v 0.05822464 -0.00701459 0.02310352
v 0.05811458 -0.00701823 0.02459472
v 0.05829179 -0.00561928 0.02467696
v 0.05839252 -0.00561564 0.02318577
v 0.05853243 -0.00421306 0.02324656
v 0.05862383 -0.00281411 0.02328590
v 0.05876001 -0.00141516 0.02181259
v 0.05867980 -0.00141516 0.02330735
v 0.05858839 -0.00141516 0.02482358
v 0.05858839 0.00002376 0.02485219
v 0.05618947 -0.01681452 0.02061105
v 0.05660919 -0.01541920 0.02080058
v 0.05587049 -0.01762118 0.02202357
v 0.05697481 -0.01400935 0.02097938
v 0.05731245 -0.01261403 0.02113315
v 0.05722291 -0.01261403 0.02263149
v 0.05869472 0.00138274 0.02331451
v 0.05855855 0.00278533 0.02480570
v 0.05849512 0.00418428 0.02476994
v 0.05809965 0.00418428 0.02922206
v 0.05799892 0.00558323 0.02917557
v 0.05785901 0.00698581 0.02911120
v 0.05812577 0.00698581 0.02614670
v 0.05795602 0.00838477 0.02606445
v 0.05761651 0.00977645 0.02745194
v 0.05525863 0.01835184 0.03029128
v 0.05556083 0.01724358 0.03052730
v 0.05492286 0.01950006 0.02965833
v 0.05481653 0.01950006 0.03075259
v 0.05479414 0.01950006 0.03091708
v 0.05475124 0.01950006 0.03121031
v 0.05646369 0.01405687 0.03008387
v 0.05619134 0.01527778 0.02981568
v 0.05737588 0.01118267 0.02733393
v 0.05709606 0.01258888 0.02719804
v 0.05694310 0.01257435 0.02869996
v 0.04972769 0.01950006 0.03109946
v 0.04023461 -0.01761755 -0.00251136
v 0.05013808 -0.01762118 0.03142845
v 0.03982049 0.01949643 -0.00242196
v 0.05767807 -0.01121508 0.01975281
v 0.05792990 -0.00981250 0.01987440
v 0.05835522 -0.00701459 0.02008180
v 0.05815189 -0.00842081 0.01998168
v 0.05853430 -0.00561928 0.02015690
v 0.05847460 -0.00561201 0.02168743
v 0.05860518 -0.00421306 0.02173749
v 0.05869099 -0.00281411 0.02178040
v 0.05881970 -0.00141516 0.02028921
v 0.05885328 -0.00001621 0.02032497
v 0.05878986 -0.00001621 0.02183047
v 0.05878799 0.00002376 0.02186623
v 0.05623051 -0.01681088 0.01908768
v 0.05665023 -0.01541920 0.01927363
v 0.05592645 -0.01762118 0.02048232
v 0.05702704 -0.01400935 0.01946316
v 0.05737588 -0.01261403 0.01962050
v 0.05878053 0.00138274 0.02182689
v 0.05866301 0.00278533 0.02330735
v 0.05859026 0.00418428 0.02327517
v 0.05838506 0.00557960 0.02472345
v 0.05826381 0.00557960 0.02621107
v 0.05824329 0.00698581 0.02465551
v 0.05806607 0.00838477 0.02457326
v 0.05774709 0.00977645 0.02596790
v 0.05771165 0.00991816 0.02610736
v 0.05605890 0.01678574 0.02671886
v 0.05564477 0.01817742 0.02653648
v 0.05495457 0.01950006 0.02930431
v 0.05644690 0.01538679 0.02690123
v 0.05664650 0.01398057 0.02854262
v 0.05750272 0.01118267 0.02585704
v 0.05690952 0.01397693 0.02558527
v 0.05678081 0.01398057 0.02706215
v 0.05721545 0.01258162 0.02572115
v 0.04949078 0.01950006 0.02996944
v 0.04429375 0.00002013 -0.00251136
v 0.05370101 -0.01761755 -0.00251136
v 0.04686242 -0.01762118 0.01076275
v 0.04988625 -0.01762118 0.03014109
v 0.04995340 -0.01762118 0.03056664
v 0.05000750 -0.01762118 0.03087417
v 0.04919418 0.01950006 0.02815284
v 0.04643151 0.01950006 0.01107744
v 0.05332233 0.01949643 -0.00242196
v 0.05771538 -0.01120781 0.01824374
v 0.05797094 -0.00981250 0.01835102
v 0.05741691 -0.01261403 0.01809355
v 0.05839439 -0.00701459 0.01855128
v 0.05819106 -0.00841718 0.01845115
v 0.05856787 -0.00561201 0.01864068
v 0.05869845 -0.00421306 0.01869074
v 0.05866114 -0.00421669 0.02021769
v 0.05874695 -0.00281411 0.02026418
v 0.05884582 -0.00141516 0.01876584
v 0.05878799 -0.00281411 0.01874080
v 0.05887753 -0.00001621 0.01877656
v 0.05885328 0.00002376 0.02032497
v 0.05626036 -0.01680725 0.01756788
v 0.05594324 -0.01762118 0.01983148
v 0.05598987 -0.01762118 0.01743914
v 0.05667448 -0.01541557 0.01774310
v 0.05706249 -0.01401298 0.01792905
v 0.05884395 0.00138274 0.02030709
v 0.05873203 0.00278533 0.02180186
v 0.05865368 0.00418428 0.02176610
v 0.05847646 0.00557960 0.02321796
v 0.05832723 0.00698581 0.02314644
v 0.05814256 0.00838477 0.02306419
v 0.05793550 0.00978372 0.02296048
v 0.05785155 0.00977645 0.02447671
v 0.05772284 0.00991816 0.02596075
v 0.05618387 0.01677484 0.02524912
v 0.05576416 0.01816652 0.02505960
v 0.05531646 0.01950006 0.02492371
v 0.05520267 0.01950006 0.02633265
v 0.05656815 0.01537225 0.02542792
v 0.05760346 0.01117540 0.02436228
v 0.05700093 0.01398420 0.02407262
v 0.05731058 0.01258162 0.02421923
v 0.05666515 0.00002013 -0.00251136
v 0.05397710 -0.01681088 -0.00251136
v 0.05375138 -0.01761755 -0.00235044
v 0.05589474 -0.01762118 0.01076275
v 0.05554591 0.01950006 0.01107744
v 0.05335032 0.01949643 -0.00233614
v 0.05379242 0.01821376 -0.00242196
v 0.05773963 -0.01120781 0.01670964
v 0.05799146 -0.00981250 0.01682049
v 0.05821344 -0.00841718 0.01692062
v 0.05742997 -0.01261040 0.01655944
v 0.05840931 -0.00701459 0.01702075
v 0.05857533 -0.00561201 0.01710300
v 0.05870591 -0.00421669 0.01714233
v 0.05885328 -0.00141516 0.01720670
v 0.05879359 -0.00281774 0.01717809
v 0.05887380 0.00002376 0.01695996
v 0.05885701 0.00138274 0.01721385
v 0.05885515 0.00138274 0.01876226
v 0.05625663 -0.01681815 0.01600159
v 0.05598987 -0.01762118 0.01677043
v 0.05667261 -0.01541557 0.01619827
v 0.05706808 -0.01400935 0.01639137
v 0.05880851 0.00278533 0.01719955
v 0.05877680 0.00278533 0.02027133
v 0.05869285 0.00418428 0.02022842
v 0.05858280 0.00557960 0.02018551
v 0.05853803 0.00558323 0.02170888
v 0.05839252 0.00698581 0.02163379
v 0.05820971 0.00838477 0.02155154
v 0.05801011 0.00978372 0.02145499
v 0.05769299 0.01118630 0.02284605
v 0.05625663 0.01678574 0.02372575
v 0.05583878 0.01818469 0.02352907
v 0.05664650 0.01538315 0.02390812
v 0.05532206 0.01950006 0.02484504
v 0.05739639 0.01258525 0.02270659
v 0.05748034 0.01257435 0.02122612
v 0.05714270 0.01398420 0.02105090
v 0.05426437 0.01671670 -0.00242196
v 0.05465051 0.01546673 -0.00242196
v 0.05483705 0.01477997 -0.00242196
v 0.05504784 0.01398057 -0.00242196
v 0.05526796 0.01308669 -0.00242196
v 0.05538734 0.01257798 -0.00242196
v 0.05561119 0.01154240 -0.00242196
v 0.05568395 0.01118267 -0.00242196
v 0.05594137 0.00978008 -0.00242196
v 0.05614470 0.00852284 -0.00242196
v 0.05616522 0.00838477 -0.00242196
v 0.05634803 0.00704395 -0.00242196
v 0.05635549 0.00698581 -0.00242196
v 0.05650473 0.00558323 -0.00242196
v 0.05659240 0.00442047 -0.00242196
v 0.05659986 0.00431146 -0.00242196
v 0.05666888 0.00277806 -0.00242196
v 0.05669127 0.00137184 -0.00242196
v 0.05666515 -0.00004891 -0.00251136
v 0.05417110 -0.01619680 -0.00251136
v 0.05414125 -0.01681088 -0.00196423
v 0.05382040 -0.01761755 -0.00211442
v 0.05429235 -0.01761755 -0.00035146
v 0.05453859 -0.01761755 0.00064625
v 0.05471953 -0.01761755 0.00139363
v 0.05492846 -0.01761755 0.00238418
v 0.05507769 -0.01761755 0.00311011
v 0.05523625 -0.01761755 0.00407205
v 0.05534817 -0.01761755 0.00477653
v 0.05546196 -0.01761755 0.00571701
v 0.05554218 -0.01761755 0.00640718
v 0.05569327 -0.01761755 0.00801996
v 0.05577162 -0.01761755 0.00894972
v 0.05582199 -0.01761755 0.00963273
v 0.05608128 -0.01681088 0.00975074
v 0.05614097 -0.01681815 0.01076275
v 0.05592272 -0.01762118 0.01122048
v 0.05557762 0.01950006 0.01270809
v 0.05602345 0.01818469 0.01281180
v 0.05598801 0.01817379 0.01126697
v 0.05554591 0.01949643 0.01104883
v 0.05546383 0.01949643 0.00955764
v 0.05545823 0.01949643 0.00946466
v 0.05545077 0.01949643 0.00937526
v 0.05530527 0.01949643 0.00784831
v 0.05529408 0.01949643 0.00774818
v 0.05509634 0.01949643 0.00611753
v 0.05489115 0.01949643 0.00455839
v 0.05487436 0.01949643 0.00445469
v 0.05461507 0.01949643 0.00289913
v 0.05459641 0.01949643 0.00280257
v 0.05426623 0.01949643 0.00117549
v 0.05385584 0.01949643 -0.00056244
v 0.05382040 0.01949643 -0.00069833
v 0.05378869 0.01826463 -0.00237547
v 0.05443599 0.01677120 -0.00179974
v 0.05773403 -0.01121508 0.01515765
v 0.05798960 -0.00980886 0.01528996
v 0.05820785 -0.00842081 0.01537936
v 0.05741691 -0.01261403 0.01501461
v 0.05839625 -0.00701823 0.01546161
v 0.05855855 -0.00561564 0.01554386
v 0.05868726 -0.00426756 0.01573696
v 0.05875628 -0.00297762 0.01452828
v 0.05881970 -0.00154233 0.01445676
v 0.05886634 0.00002376 0.01600874
v 0.05886634 0.00017638 0.01588000
v 0.05884582 0.00148449 0.01484297
v 0.05881411 0.00281440 0.01536864
v 0.05624730 -0.01681452 0.01446748
v 0.05598614 -0.01762118 0.01434590
v 0.05598241 -0.01762118 0.01345905
v 0.05665396 -0.01541920 0.01464986
v 0.05704197 -0.01400935 0.01484297
v 0.05875255 0.00418428 0.01562611
v 0.05873949 0.00418428 0.01716736
v 0.05864808 0.00557960 0.01712803
v 0.05861824 0.00558323 0.01865498
v 0.05849512 0.00698581 0.01859776
v 0.05844662 0.00698581 0.02012472
v 0.05826940 0.00838113 0.02004247
v 0.05806981 0.00978008 0.01993876
v 0.05782730 0.01117903 0.01983506
v 0.05776761 0.01117177 0.02136201
v 0.05639653 0.01678210 0.02070760
v 0.05598241 0.01817742 0.02051808
v 0.05556083 0.01950006 0.02032140
v 0.05684983 0.01537952 0.01937733
v 0.05754376 0.01258162 0.01970275
v 0.05720612 0.01397693 0.01954540
v 0.05484824 0.01534318 -0.00189271
v 0.05535563 0.01398057 -0.00139922
v 0.05574924 0.01257798 -0.00120254
v 0.05607195 0.01117903 -0.00105593
v 0.05625476 0.01024519 -0.00098083
v 0.05634430 0.00978008 -0.00094507
v 0.05658307 0.00838477 -0.00082706
v 0.05679946 0.00698218 -0.00070906
v 0.05697668 0.00557960 -0.00062681
v 0.05664090 0.00432236 -0.00228607
v 0.05669500 0.00278533 -0.00232541
v 0.05672111 0.00138274 -0.00231111
v 0.05671925 0.00002013 -0.00232183
v 0.05671925 -0.00001621 -0.00232183
v 0.05669313 -0.00141516 -0.00232541
v 0.05663904 -0.00141516 -0.00251136
v 0.05445464 -0.01528839 -0.00251136
v 0.05464864 -0.01541193 -0.00173179
v 0.05460387 -0.01681815 -0.00021557
v 0.05502172 -0.01681088 0.00153667
v 0.05537242 -0.01680725 0.00324957
v 0.05563731 -0.01680725 0.00491957
v 0.05583131 -0.01681452 0.00653949
v 0.05596749 -0.01681452 0.00814512
v 0.05641892 -0.01540830 0.00837041
v 0.05617455 -0.01681815 0.01133133
v 0.05595070 -0.01762118 0.01213236
v 0.05560373 0.01950006 0.01425650
v 0.05606449 0.01818105 0.01591934
v 0.05650286 0.01677847 0.01458907
v 0.05645809 0.01678210 0.01301920
v 0.05640586 0.01678574 0.01144219
v 0.05638907 0.01678574 0.01107744
v 0.05591153 0.01818105 0.00967207
v 0.05577908 0.01817742 0.00807360
v 0.05559627 0.01818105 0.00643221
v 0.05538734 0.01818105 0.00479083
v 0.05512619 0.01817379 0.00314229
v 0.05477363 0.01818469 0.00141151
v 0.05437256 0.01818105 -0.00031212
v 0.05489115 0.01677847 -0.00006538
v 0.05768740 -0.01121145 0.01359494
v 0.05795975 -0.00980886 0.01372725
v 0.05817987 -0.00842081 0.01382023
v 0.05699906 -0.01401661 0.01326237
v 0.05736468 -0.01261403 0.01344117
v 0.05836454 -0.00701459 0.01390605
v 0.05855108 -0.00546303 0.01429941
v 0.05858093 -0.00489618 0.01313721
v 0.05868353 -0.00375522 0.01345905
v 0.05868353 -0.00336642 0.01234334
v 0.05875628 -0.00235627 0.01293696
v 0.05881597 -0.00084831 0.01322661
v 0.05884395 0.00002376 0.01417068
v 0.05884582 0.00026722 0.01412777
v 0.05882157 0.00147359 0.01326595
v 0.05876747 0.00320320 0.01306212
v 0.05873576 0.00432599 0.01424577
v 0.05622492 -0.01680725 0.01292623
v 0.05596935 -0.01762118 0.01280822
v 0.05661852 -0.01541557 0.01309430
v 0.05866114 0.00557960 0.01559750
v 0.05852124 0.00698581 0.01706366
v 0.05835149 0.00838477 0.01698499
v 0.05831977 0.00838477 0.01851909
v 0.05810898 0.00977645 0.01841896
v 0.05808473 0.00991816 0.01840824
v 0.05786275 0.01118267 0.01830096
v 0.05645996 0.01677847 0.01919853
v 0.05603838 0.01818469 0.01899470
v 0.05556456 0.01950006 0.02022842
v 0.05689646 0.01538315 0.01784680
v 0.05725462 0.01398420 0.01801845
v 0.05757734 0.01258525 0.01816507
v 0.05536683 0.01538315 0.00014918
v 0.05580520 0.01397693 0.00036017
v 0.05618014 0.01257798 0.00054612
v 0.05648980 0.01118267 0.00067128
v 0.05676215 0.00978008 0.00080717
v 0.05699720 0.00838477 0.00090372
v 0.05667261 0.01024882 0.00076425
v 0.05720053 0.00698581 0.00100027
v 0.05736655 0.00558323 0.00108967
v 0.05709420 0.00418428 -0.00057674
v 0.05716135 0.00278533 -0.00055171
v 0.05718187 0.00138274 -0.00054456
v 0.05718187 0.00002013 -0.00055529
v 0.05718187 -0.00001621 -0.00055529
v 0.05715949 -0.00141516 -0.00056602
v 0.05663531 -0.00281774 -0.00235402
v 0.05659427 -0.00268693 -0.00251136
v 0.05469714 -0.01444902 -0.00251136
v 0.05503105 -0.01397301 -0.00184980
v 0.05510194 -0.01540830 0.00003475
v 0.05549741 -0.01541193 0.00175123
v 0.05583131 -0.01541193 0.00349274
v 0.05609061 -0.01540467 0.00513413
v 0.05629021 -0.01541193 0.00675763
v 0.05650846 -0.01541193 0.00995100
v 0.05680320 -0.01400935 0.00854563
v 0.05689460 -0.01400935 0.01013337
v 0.05654203 -0.01541557 0.01076275
v 0.05657188 -0.01541557 0.01152801
v 0.05561866 0.01950006 0.01571551
v 0.05606076 0.01817742 0.01746417
v 0.05651032 0.01678210 0.01612675
v 0.05562425 0.01950006 0.01716021
v 0.05562425 0.01950006 0.01725676
v 0.05691325 0.01537588 0.01478575
v 0.05687035 0.01538315 0.01321231
v 0.05681439 0.01538315 0.01163529
v 0.05633311 0.01678210 0.00986517
v 0.05621559 0.01677847 0.00827743
v 0.05604770 0.01678210 0.00664677
v 0.05585557 0.01678210 0.00500897
v 0.05562425 0.01677484 0.00337116
v 0.05529221 0.01678210 0.00166183
v 0.05762211 -0.01121508 0.01201435
v 0.05790565 -0.00981250 0.01215024
v 0.05813696 -0.00842081 0.01226467
v 0.05834029 -0.00696736 0.01260796
v 0.05694869 -0.01400935 0.01170324
v 0.05674909 -0.01464887 0.01076275
v 0.05691698 -0.01400935 0.01076275
v 0.05724903 -0.01261403 0.01076275
v 0.05848206 -0.00546666 0.01165675
v 0.05858093 -0.00394417 0.01076275
v 0.05856414 -0.00324288 0.00942175
v 0.05869659 -0.00195294 0.01076275
v 0.05873763 -0.00061939 0.01076275
v 0.05878612 0.00002376 0.01179621
v 0.05879732 0.00002376 0.01216096
v 0.05884022 0.00002376 0.01393108
v 0.05879359 0.00015094 0.01200362
v 0.05877120 0.00214217 0.01202150
v 0.05871897 0.00272719 0.01108101
v 0.05871524 0.00282166 0.01107744
v 0.05866487 0.00387179 0.01107744
v 0.05863689 0.00450041 0.01114896
v 0.05860518 0.00568861 0.01254002
v 0.05864808 0.00558323 0.01404194
v 0.05852124 0.00698218 0.01399188
v 0.05853057 0.00698218 0.01554028
v 0.05836081 0.00838477 0.01545446
v 0.05815375 0.00978008 0.01535433
v 0.05814256 0.00978008 0.01688844
v 0.05760532 0.01258162 0.01663812
v 0.05788886 0.01117903 0.01677758
v 0.05649727 0.01678210 0.01766800
v 0.05560560 0.01950006 0.01880160
v 0.05728447 0.01397693 0.01649508
v 0.05692071 0.01537952 0.01632343
v 0.05576229 0.01537952 0.00188354
v 0.05616709 0.01398057 0.00207307
v 0.05652152 0.01258162 0.00223399
v 0.05702145 0.01024882 0.00247358
v 0.05711472 0.00977645 0.00252007
v 0.05683304 0.01118267 0.00238061
v 0.05734416 0.00838113 0.00262735
v 0.05753630 0.00698581 0.00270602
v 0.05768926 0.00558323 0.00278112
v 0.05749153 0.00418065 0.00117192
v 0.05756242 0.00278169 0.00120410
v 0.05759413 0.00138274 0.00121483
v 0.05759040 0.00002013 0.00115761
v 0.05757361 -0.00141516 0.00118980
v 0.05710166 -0.00281774 -0.00058390
v 0.05658867 -0.00281774 -0.00251136
v 0.05699347 -0.00421669 -0.00063039
v 0.05651405 -0.00421669 -0.00241123
v 0.05482772 -0.01398391 -0.00251136
v 0.05500494 -0.01329352 -0.00251136
v 0.05551606 -0.01261040 -0.00132413
v 0.05554964 -0.01400935 0.00024216
v 0.05590966 -0.01401298 0.00194076
v 0.05618387 -0.01400935 0.00349274
v 0.05647488 -0.01400935 0.00530577
v 0.05667448 -0.01400571 0.00694716
v 0.05713710 -0.01261403 0.00869225
v 0.05722478 -0.01261040 0.01027999
v 0.05728447 0.01398057 0.01495024
v 0.05724903 0.01398057 0.01338753
v 0.05720239 0.01397693 0.01183197
v 0.05700279 0.01457285 0.01107744
v 0.05678454 0.01538315 0.01107744
v 0.05673044 0.01537952 0.01005470
v 0.05660546 0.01537952 0.00845623
v 0.05644877 0.01538315 0.00683273
v 0.05627342 0.01537952 0.00521280
v 0.05606076 0.01537952 0.00357499
v 0.05755682 -0.01121508 0.01076275
v 0.05783850 -0.00981250 0.01076275
v 0.05808100 -0.00842081 0.01076275
v 0.05826381 -0.00709817 0.01076275
v 0.05828246 -0.00695282 0.01076275
v 0.05835149 -0.00552117 0.00893899
v 0.05847460 -0.00457642 0.00961128
v 0.05827687 -0.00695282 0.01059468
v 0.05831044 -0.00500519 0.00776964
v 0.05831044 -0.00381336 0.00675405
v 0.05847646 -0.00235990 0.00758369
v 0.05859212 -0.00192750 0.00883886
v 0.05869099 -0.00192750 0.01062328
v 0.05873389 -0.00065209 0.01071269
v 0.05867980 -0.00017609 0.00951473
v 0.05868166 0.00002376 0.00955764
v 0.05869099 0.00173884 0.00991881
v 0.05874882 0.00085950 0.01108101
v 0.05873576 0.00196049 0.01108101
v 0.05871151 0.00279986 0.01096301
v 0.05857906 0.00429692 0.00972571
v 0.05862756 0.00458761 0.01107744
v 0.05854735 0.00563047 0.01108101
v 0.05848766 0.00698581 0.01242916
v 0.05835149 0.00838477 0.01390248
v 0.05814629 0.00978008 0.01380592
v 0.05812950 0.00991816 0.01534360
v 0.05790192 0.01118267 0.01524348
v 0.05761092 0.01258162 0.01510044
v 0.05643757 0.01398057 0.00374664
v 0.05678827 0.01258162 0.00390041
v 0.05711098 0.01117903 0.00406490
v 0.05739453 0.00978008 0.00418649
v 0.05729939 0.01024882 0.00414357
v 0.05762584 0.00838113 0.00430807
v 0.05781238 0.00698218 0.00439389
v 0.05795975 0.00557960 0.00446541
v 0.05780865 0.00418428 0.00284549
v 0.05787953 0.00278533 0.00287409
v 0.05799333 0.00138274 0.00331752
v 0.05783103 0.00002013 0.00233054
v 0.05759972 -0.00001621 0.00120410
v 0.05782544 -0.00001621 0.00230551
v 0.05782917 -0.00157504 0.00245213
v 0.05751205 -0.00281411 0.00116119
v 0.05740945 -0.00421669 0.00110040
v 0.05648234 -0.00422033 -0.00251136
v 0.05726581 -0.00561564 0.00103603
v 0.05684423 -0.00561564 -0.00069833
v 0.05635549 -0.00561928 -0.00248633
v 0.05634803 -0.00561928 -0.00251136
v 0.05518215 -0.01255953 -0.00251136
v 0.05594510 -0.01260676 0.00042811
v 0.05534258 -0.01183643 -0.00251136
v 0.05585557 -0.01121145 -0.00115963
v 0.05627342 -0.01261040 0.00211956
v 0.05651032 -0.01261403 0.00349274
v 0.05655882 -0.01261403 0.00378955
v 0.05681439 -0.01261403 0.00545597
v 0.05700652 -0.01260676 0.00710093
v 0.05731618 -0.01121145 0.00724397
v 0.05744489 -0.01121508 0.00883528
v 0.05753816 -0.01121508 0.01042661
v 0.05759226 0.01258525 0.01353773
v 0.05754190 0.01258162 0.01198217
v 0.05749339 0.01258162 0.01107744
v 0.05733484 0.01324294 0.01107744
v 0.05710912 0.01397330 0.01024065
v 0.05696922 0.01398057 0.00862073
v 0.05681066 0.01398420 0.00699365
v 0.05663904 0.01398057 0.00538445
v 0.05782917 -0.00980886 0.01057322
v 0.05807913 -0.00841354 0.01070196
v 0.05821344 -0.00697099 0.00944320
v 0.05811458 -0.00649862 0.00731191
v 0.05812763 -0.00496886 0.00588866
v 0.05808286 -0.00406771 0.00491957
v 0.05827500 -0.00259972 0.00572059
v 0.05834962 -0.00126618 0.00587078
v 0.05845035 -0.00038320 0.00663605
v 0.05857906 -0.00038320 0.00809505
v 0.05867047 0.00002013 0.00933950
v 0.05855481 0.00260001 0.00819518
v 0.05861637 0.00092127 0.00853848
v 0.05852497 0.00384998 0.00852775
v 0.05844848 0.00531434 0.00888177
v 0.05851564 0.00560140 0.01029072
v 0.05842610 0.00698218 0.01107744
v 0.05830858 0.00838113 0.01234692
v 0.05809779 0.00977645 0.01224321
v 0.05807354 0.00991816 0.01222891
v 0.05811644 0.00991816 0.01364143
v 0.05788327 0.01117540 0.01369507
v 0.05698787 0.01258162 0.00553821
v 0.05730312 0.01117903 0.00569198
v 0.05749712 0.01024882 0.00578138
v 0.05759226 0.00977645 0.00583145
v 0.05783477 0.00837750 0.00594945
v 0.05801758 0.00698218 0.00602813
v 0.05821717 0.00559050 0.00656810
v 0.05812577 0.00423878 0.00494102
v 0.05804929 0.00325407 0.00403629
v 0.05821717 0.00138274 0.00478010
v 0.05800079 0.00002013 0.00331037
v 0.05800079 -0.00048495 0.00331037
v 0.05810525 -0.00251252 0.00436529
v 0.05785342 -0.00281411 0.00285979
v 0.05803063 -0.00047768 0.00349274
v 0.05801944 -0.00083378 0.00349274
v 0.05774150 -0.00422033 0.00277754
v 0.05761278 -0.00561564 0.00273821
v 0.05708300 -0.00701459 0.00095736
v 0.05665023 -0.00701459 -0.00078773
v 0.05618014 -0.00701823 -0.00251136
v 0.05627528 -0.01120781 0.00058545
v 0.05660733 -0.01121145 0.00227690
v 0.05544891 -0.01132772 -0.00251136
v 0.05568954 -0.01006685 -0.00251136
v 0.05613911 -0.00981250 -0.00104162
v 0.05656815 -0.00981250 0.00071061
v 0.05688341 -0.01121508 0.00393974
v 0.05712777 -0.01121145 0.00560616
v 0.05742811 -0.00980886 0.00575635
v 0.05761092 -0.00981250 0.00736913
v 0.05773590 -0.00981250 0.00897475
v 0.05783850 0.01117903 0.01212520
v 0.05778067 0.01118267 0.01107744
v 0.05774896 0.01118267 0.01052673
v 0.05745236 0.01258162 0.01039442
v 0.05730872 0.01258525 0.00877092
v 0.05715016 0.01258525 0.00715457
v 0.05798400 -0.00841354 0.00909633
v 0.05805861 -0.00746880 0.00817730
v 0.05786461 -0.00841354 0.00748713
v 0.05791684 -0.00701096 0.00599952
v 0.05787767 -0.00561564 0.00442608
v 0.05785715 -0.00416946 0.00349274
v 0.05826194 -0.00041954 0.00503757
v 0.05841864 0.00002013 0.00632136
v 0.05856228 0.00002013 0.00789122
v 0.05841864 0.00002376 0.00632136
v 0.05850072 0.00138638 0.00719748
v 0.05859212 0.00002013 0.00823094
v 0.05836454 0.00221848 0.00610322
v 0.05831791 0.00387905 0.00633566
v 0.05839998 0.00465665 0.00766593
v 0.05817054 0.00698581 0.00761229
v 0.05830672 0.00698218 0.00925010
v 0.05841491 0.00698218 0.01085572
v 0.05823023 0.00838113 0.01076633
v 0.05820412 0.00867182 0.01108101
v 0.05801198 0.00978008 0.01064832
v 0.05795042 0.01024882 0.01107744
v 0.05746541 0.01118267 0.00730833
v 0.05774522 0.00978008 0.00742634
v 0.05798027 0.00838477 0.00753362
v 0.05837947 0.00050704 0.00594588
v 0.05780119 -0.00482351 0.00349274
v 0.05770046 -0.00701459 0.00434025
v 0.05756428 -0.00701459 0.00349274
v 0.05742997 -0.00701459 0.00266669
v 0.05684983 -0.00841354 0.00084293
v 0.05641332 -0.00841718 -0.00091289
v 0.05597681 -0.00841718 -0.00251136
v 0.05690766 -0.00981250 0.00241637
v 0.05719307 -0.00981613 0.00407921
v 0.05719307 -0.00841354 0.00255583
v 0.05747101 -0.00841718 0.00422225
v 0.05769299 -0.00841354 0.00587436
v 0.05784036 0.01024882 0.00953976
v 0.05761838 0.01117903 0.00893541
v 0.05811644 0.00838113 0.00915713
v 0.05788327 0.00978008 0.00904627
v 0.05735163 -0.00841354 0.00349274
f 1 2 3
f 1 3 4
f 1 4 5
f 1 5 6
f 1 6 2
f 2 7 24
f 2 24 50
f 2 50 81
f 2 81 83
f 2 83 112
f 2 112 111
f 2 111 110
f 2 110 146
f 2 146 180
f 2 180 224
f 2 224 267
f 2 267 266
f 2 266 265
f 2 265 264
f 2 264 309
f 2 309 381
f 2 381 461
f 2 461 494
f 2 494 416
f 2 416 415
f 2 415 326
f 2 326 286
f 2 286 285
f 2 285 240
f 2 240 198
f 2 198 161
f 2 161 127
f 2 127 126
f 2 126 123
f 2 123 94
f 2 94 65
f 2 65 64
f 2 64 62
f 2 62 35
f 2 35 15
f 2 15 14
f 2 14 13
f 2 13 12
f 2 12 8
f 2 8 3
f 2 6 9
f 2 9 7
f 3 8 4
f 4 10 11
f 4 11 5
f 4 8 12
f 4 12 13
f 4 13 14
f 4 14 15
f 4 15 16
f 4 16 17
f 4 17 10
f 5 11 18
f 5 18 19
f 5 19 6
f 6 19 20
f 6 20 21
f 6 21 22
f 6 22 23
f 6 23 9
f 7 9 25
f 7 25 24
f 9 23 22
f 9 22 47
f 9 47 46
f 9 46 77
f 9 77 107
f 9 107 142
f 9 142 139
f 9 139 138
f 9 138 172
f 9 172 216
f 9 216 215
f 9 215 214
f 9 214 213
f 9 213 254
f 9 254 301
f 9 301 300
f 9 300 341
f 9 341 431
f 9 431 505
f 9 505 584
f 9 584 542
f 9 542 541
f 9 541 538
f 9 538 462
f 9 462 382
f 9 382 310
f 9 310 269
f 9 269 268
f 9 268 261
f 9 261 222
f 9 222 179
f 9 179 145
f 9 145 109
f 9 109 82
f 9 82 51
f 9 51 25
f 10 17 26
f 10 26 11
f 11 26 27
f 11 27 28
f 11 28 29
f 11 29 30
f 11 30 31
f 11 31 32
f 11 32 33
f 11 33 34
f 11 34 18
f 15 35 16
f 16 36 17
f 16 35 36
f 17 36 37
f 17 37 38
f 17 38 27
f 17 27 26
f 18 39 40
f 18 40 41
f 18 41 42
f 18 42 19
f 18 34 33
f 18 33 39
f 19 42 41
f 19 41 43
f 19 43 44
f 19 44 20
f 20 44 43
f 20 43 21
f 21 45 46
f 21 46 47
f 21 47 22
f 21 43 48
f 21 48 49
f 21 49 45
f 24 25 50
f 25 51 52
f 25 52 50
f 27 53 28
f 27 38 54
f 27 54 53
f 28 53 55
f 28 55 29
f 29 56 30
f 29 55 56
f 30 57 31
f 30 56 57
f 31 58 59
f 31 59 32
f 31 57 58
f 32 60 61
f 32 61 33
f 32 59 60
f 33 61 40
f 33 40 39
f 35 62 36
f 36 63 37
f 36 62 64
f 36 64 65
f 36 65 63
f 37 63 66
f 37 66 67
f 37 67 68
f 37 68 54
f 37 54 38
f 40 69 70
f 40 70 71
f 40 71 72
f 40 72 73
f 40 73 41
f 40 61 69
f 41 73 49
f 41 49 74
f 41 74 43
f 43 49 48
f 43 74 49
f 45 75 46
f 45 49 76
f 45 76 75
f 46 75 77
f 49 73 78
f 49 78 79
f 49 79 76
f 50 80 81
f 50 52 51
f 50 51 80
f 51 82 83
f 51 83 80
f 53 54 84
f 53 84 85
f 53 85 55
f 54 68 86
f 54 86 84
f 55 85 87
f 55 87 56
f 56 87 57
f 57 87 88
f 57 88 89
f 57 89 90
f 57 90 91
f 57 91 58
f 58 91 92
f 58 92 59
f 59 92 93
f 59 93 60
f 60 93 69
f 60 69 61
f 63 65 94
f 63 94 95
f 63 95 66
f 66 96 97
f 66 97 67
f 66 95 96
f 67 98 68
f 67 97 98
f 68 98 86
f 69 93 70
f 70 93 99
f 70 99 100
f 70 100 71
f 71 100 101
f 71 101 102
f 71 102 78
f 71 78 72
f 72 78 73
f 75 103 104
f 75 104 105
f 75 105 77
f 75 76 103
f 76 106 103
f 76 79 106
f 77 105 107
f 78 102 108
f 78 108 79
f 79 108 106
f 80 83 81
f 82 109 110
f 82 110 111
f 82 111 112
f 82 112 83
f 84 113 114
f 84 114 85
f 84 86 113
f 85 114 115
f 85 115 116
f 85 116 87
f 86 98 113
f 87 116 117
f 87 117 89
f 87 89 88
f 89 117 90
f 90 118 91
f 90 117 118
f 91 118 119
f 91 119 92
f 92 120 93
f 92 119 120
f 93 120 121
f 93 121 122
f 93 122 99
f 94 123 95
f 95 124 125
f 95 125 96
f 95 123 126
f 95 126 127
f 95 127 124
f 96 125 128
f 96 128 97
f 97 128 129
f 97 129 130
f 97 130 98
f 98 130 113
f 99 122 131
f 99 131 100
f 100 132 133
f 100 133 101
f 100 131 132
f 101 133 102
f 102 134 135
f 102 135 136
f 102 136 108
f 102 133 134
f 103 106 104
f 104 137 138
f 104 138 139
f 104 139 105
f 104 106 140
f 104 140 141
f 104 141 137
f 105 139 142
f 105 142 107
f 106 108 140
f 108 136 143
f 108 143 144
f 108 144 140
f 109 145 110
f 110 145 146
f 113 147 114
f 113 130 147
f 114 148 149
f 114 149 150
f 114 150 115
f 114 147 148
f 115 150 151
f 115 151 116
f 116 151 117
f 117 152 118
f 117 151 152
f 118 153 154
f 118 154 155
f 118 155 119
f 118 152 153
f 119 155 120
f 120 155 156
f 120 156 157
f 120 157 121
f 121 157 158
f 121 158 131
f 121 131 122
f 124 127 125
f 125 159 160
f 125 160 128
f 125 127 161
f 125 161 159
f 128 160 162
f 128 162 129
f 129 162 201
f 129 201 163
f 129 163 130
f 130 163 147
f 131 164 165
f 131 165 132
f 131 158 164
f 132 165 166
f 132 166 133
f 133 166 134
f 134 166 135
f 135 166 167
f 135 167 136
f 136 168 143
f 136 167 169
f 136 169 168
f 137 141 170
f 137 170 171
f 137 171 172
f 137 172 138
f 140 173 174
f 140 174 141
f 140 144 173
f 141 174 170
f 143 168 175
f 143 175 176
f 143 176 177
f 143 177 178
f 143 178 144
f 144 178 173
f 145 179 180
f 145 180 146
f 147 181 148
f 147 163 181
f 148 181 182
f 148 182 183
f 148 183 184
f 148 184 149
f 149 184 185
f 149 185 186
f 149 186 187
f 149 187 151
f 149 151 150
f 151 187 188
f 151 188 152
f 152 188 153
f 153 189 190
f 153 190 154
f 153 188 189
f 154 191 192
f 154 192 193
f 154 193 194
f 154 194 156
f 154 156 155
f 154 190 191
f 156 194 157
f 157 194 195
f 157 195 158
f 158 195 164
f 159 196 197
f 159 197 160
f 159 161 198
f 159 198 196
f 160 197 199
f 160 199 162
f 162 199 200
f 162 200 201
f 163 201 181
f 164 202 203
f 164 203 165
f 164 195 202
f 165 203 204
f 165 204 205
f 165 205 166
f 166 205 206
f 166 206 167
f 167 206 169
f 168 169 207
f 168 207 208
f 168 208 209
f 168 209 210
f 168 210 175
f 169 206 207
f 170 211 171
f 170 174 212
f 170 212 211
f 171 211 213
f 171 213 214
f 171 214 215
f 171 215 216
f 171 216 172
f 173 178 217
f 173 217 218
f 173 218 174
f 174 218 212
f 175 210 219
f 175 219 176
f 176 219 220
f 176 220 221
f 176 221 178
f 176 178 177
f 178 221 217
f 179 222 180
f 180 223 224
f 180 222 225
f 180 225 223
f 181 201 200
f 181 200 182
f 182 200 226
f 182 226 183
f 183 226 227
f 183 227 184
f 184 228 185
f 184 227 229
f 184 229 228
f 185 228 230
f 185 230 231
f 185 231 186
f 186 188 187
f 186 231 189
f 186 189 188
f 189 231 190
f 190 232 191
f 190 231 232
f 191 232 233
f 191 233 192
f 192 234 235
f 192 235 236
f 192 236 193
f 192 233 234
f 193 236 194
f 194 236 237
f 194 237 202
f 194 202 195
f 196 238 239
f 196 239 197
f 196 198 240
f 196 240 238
f 197 239 241
f 197 241 199
f 199 241 242
f 199 242 200
f 200 242 226
f 202 243 244
f 202 244 203
f 202 237 243
f 203 244 204
f 204 244 245
f 204 245 246
f 204 246 247
f 204 247 205
f 205 247 206
f 206 247 208
f 206 208 207
f 208 247 246
f 208 246 248
f 208 248 209
f 209 249 250
f 209 250 210
f 209 248 249
f 210 250 251
f 210 251 219
f 211 212 252
f 211 252 253
f 211 253 254
f 211 254 213
f 212 218 255
f 212 255 252
f 217 221 256
f 217 256 218
f 218 256 255
f 219 251 257
f 219 257 220
f 220 258 259
f 220 259 256
f 220 256 221
f 220 257 260
f 220 260 258
f 222 261 225
f 223 262 306
f 223 306 363
f 223 363 450
f 223 450 525
f 223 525 602
f 223 602 671
f 223 671 675
f 223 675 738
f 223 738 788
f 223 788 742
f 223 742 741
f 223 741 678
f 223 678 676
f 223 676 606
f 223 606 605
f 223 605 526
f 223 526 451
f 223 451 364
f 223 364 307
f 223 307 263
f 223 263 309
f 223 309 264
f 223 264 265
f 223 265 266
f 223 266 267
f 223 267 224
f 223 225 262
f 225 261 268
f 225 268 269
f 225 269 310
f 225 310 270
f 225 270 306
f 225 306 262
f 226 271 272
f 226 272 227
f 226 242 273
f 226 273 271
f 227 272 229
f 228 274 230
f 228 229 274
f 229 272 275
f 229 275 274
f 230 274 276
f 230 276 277
f 230 277 278
f 230 278 232
f 230 232 231
f 232 278 233
f 233 278 279
f 233 279 234
f 234 280 235
f 234 279 281
f 234 281 280
f 235 280 282
f 235 282 283
f 235 283 236
f 236 283 243
f 236 243 237
f 238 284 239
f 238 240 285
f 238 285 286
f 238 286 284
f 239 284 287
f 239 287 288
f 239 288 241
f 241 288 273
f 241 273 242
f 243 289 290
f 243 290 244
f 243 283 289
f 244 290 245
f 245 290 291
f 245 291 292
f 245 292 246
f 246 292 248
f 248 292 293
f 248 293 249
f 249 294 295
f 249 295 296
f 249 296 250
f 249 293 294
f 250 296 297
f 250 297 251
f 251 297 257
f 252 298 253
f 252 255 298
f 253 298 299
f 253 299 300
f 253 300 301
f 253 301 254
f 255 256 259
f 255 259 258
f 255 258 302
f 255 302 298
f 257 297 296
f 257 296 303
f 257 303 260
f 258 304 302
f 258 260 305
f 258 305 304
f 260 303 305
f 263 307 308
f 263 308 309
f 270 310 311
f 270 311 312
f 270 312 306
f 271 273 313
f 271 313 272
f 272 313 314
f 272 314 315
f 272 315 275
f 273 288 316
f 273 316 313
f 274 275 315
f 274 315 317
f 274 317 276
f 276 318 319
f 276 319 277
f 276 317 318
f 277 319 281
f 277 281 278
f 278 281 279
f 280 320 282
f 280 281 320
f 281 319 321
f 281 321 320
f 282 320 322
f 282 322 323
f 282 323 324
f 282 324 289
f 282 289 283
f 284 325 287
f 284 286 326
f 284 326 325
f 287 325 327
f 287 327 328
f 287 328 288
f 288 328 316
f 289 324 329
f 289 329 330
f 289 330 290
f 290 330 291
f 291 330 331
f 291 331 332
f 291 332 333
f 291 333 292
f 292 333 334
f 292 334 293
f 293 334 335
f 293 335 294
f 294 335 336
f 294 336 295
f 295 336 337
f 295 337 296
f 296 337 303
f 298 338 339
f 298 339 299
f 298 302 340
f 298 340 338
f 299 339 341
f 299 341 300
f 302 304 340
f 303 337 305
f 304 305 342
f 304 342 343
f 304 343 344
f 304 344 340
f 305 337 342
f 306 312 345
f 306 345 346
f 306 346 347
f 306 347 348
f 306 348 349
f 306 349 350
f 306 350 351
f 306 351 352
f 306 352 353
f 306 353 354
f 306 354 355
f 306 355 356
f 306 356 357
f 306 357 358
f 306 358 359
f 306 359 360
f 306 360 361
f 306 361 362
f 306 362 363
f 307 364 365
f 307 365 308
f 308 365 366
f 308 366 309
f 309 366 367
f 309 367 368
f 309 368 369
f 309 369 370
f 309 370 371
f 309 371 372
f 309 372 373
f 309 373 374
f 309 374 375
f 309 375 376
f 309 376 377
f 309 377 378
f 309 378 379
f 309 379 380
f 309 380 381
f 310 382 383
f 310 383 384
f 310 384 385
f 310 385 386
f 310 386 387
f 310 387 388
f 310 388 389
f 310 389 390
f 310 390 391
f 310 391 392
f 310 392 393
f 310 393 394
f 310 394 395
f 310 395 396
f 310 396 397
f 310 397 398
f 310 398 311
f 311 398 399
f 311 399 312
f 312 399 400
f 312 400 345
f 313 401 402
f 313 402 314
f 313 316 401
f 314 402 315
f 315 402 403
f 315 403 317
f 316 328 404
f 316 404 401
f 317 403 405
f 317 405 318
f 318 405 406
f 318 406 407
f 318 407 319
f 319 407 408
f 319 408 321
f 320 409 410
f 320 410 322
f 320 321 409
f 321 408 409
f 322 410 411
f 322 411 412
f 322 412 323
f 323 412 413
f 323 413 324
f 324 413 329
f 325 414 327
f 325 326 415
f 325 415 416
f 325 416 414
f 327 414 417
f 327 417 328
f 328 418 404
f 328 417 418
f 329 413 419
f 329 419 420
f 329 420 330
f 330 420 331
f 331 420 421
f 331 421 422
f 331 422 332
f 332 422 423
f 332 423 333
f 333 423 424
f 333 424 334
f 334 424 425
f 334 425 335
f 335 425 336
f 336 425 426
f 336 426 427
f 336 427 428
f 336 428 337
f 337 428 343
f 337 343 342
f 338 340 429
f 338 429 430
f 338 430 339
f 339 430 431
f 339 431 341
f 340 344 432
f 340 432 429
f 343 428 433
f 343 433 344
f 344 434 432
f 344 433 434
f 345 400 346
f 346 400 435
f 346 435 347
f 347 435 348
f 348 435 436
f 348 436 349
f 349 436 437
f 349 437 350
f 350 437 351
f 351 437 352
f 352 437 438
f 352 438 353
f 353 438 439
f 353 439 440
f 353 440 354
f 354 440 441
f 354 441 355
f 355 441 356
f 356 441 442
f 356 442 357
f 357 442 443
f 357 443 358
f 358 443 444
f 358 444 359
f 359 444 360
f 360 444 361
f 361 444 445
f 361 445 362
f 362 445 446
f 362 446 447
f 362 447 448
f 362 448 363
f 363 448 449
f 363 449 450
f 364 451 452
f 364 452 365
f 365 452 453
f 365 453 367
f 365 367 366
f 367 453 368
f 368 453 369
f 369 453 454
f 369 454 370
f 370 454 371
f 371 454 455
f 371 455 372
f 372 455 373
f 373 455 456
f 373 456 457
f 373 457 374
f 374 457 375
f 375 457 376
f 376 457 458
f 376 458 377
f 377 458 378
f 378 458 379
f 379 458 459
f 379 459 380
f 380 459 460
f 380 460 381
f 381 460 461
f 382 462 383
f 383 463 464
f 383 464 384
f 383 462 463
f 384 464 465
f 384 465 466
f 384 466 467
f 384 467 468
f 384 468 385
f 385 468 386
f 386 468 387
f 387 468 388
f 388 468 469
f 388 469 389
f 389 469 470
f 389 470 390
f 390 470 391
f 391 470 471
f 391 471 392
f 392 471 472
f 392 472 393
f 393 472 394
f 394 472 395
f 395 472 473
f 395 473 396
f 396 473 474
f 396 474 397
f 397 474 398
f 398 474 399
f 399 474 400
f 400 475 435
f 400 474 475
f 401 476 477
f 401 477 402
f 401 404 476
f 402 477 478
f 402 478 403
f 403 478 405
f 404 418 479
f 404 479 480
f 404 480 476
f 405 481 482
f 405 482 406
f 405 478 481
f 406 482 407
f 407 482 483
f 407 483 484
f 407 484 408
f 408 484 485
f 408 485 486
f 408 486 409
f 409 486 487
f 409 487 488
f 409 488 410
f 410 488 411
f 411 489 412
f 411 488 489
f 412 490 491
f 412 491 413
f 412 489 490
f 413 491 492
f 413 492 419
f 414 493 417
f 414 416 493
f 416 494 493
f 417 493 495
f 417 495 418
f 418 495 479
f 419 492 496
f 419 496 420
f 420 496 421
f 421 496 497
f 421 497 423
f 421 423 422
f 423 497 498
f 423 498 499
f 423 499 424
f 424 499 425
f 425 499 426
f 426 499 500
f 426 500 501
f 426 501 427
f 427 501 502
f 427 502 433
f 427 433 428
f 429 503 430
f 429 432 503
f 430 503 504
f 430 504 505
f 430 505 431
f 432 506 503
f 432 434 507
f 432 507 506
f 433 502 508
f 433 508 507
f 433 507 434
f 435 475 509
f 435 509 436
f 436 510 437
f 436 509 510
f 437 511 438
f 437 510 511
f 438 511 512
f 438 512 439
f 439 512 440
f 440 513 514
f 440 514 441
f 440 512 515
f 440 515 513
f 441 514 442
f 442 514 516
f 442 516 443
f 443 516 517
f 443 517 518
f 443 518 444
f 444 518 519
f 444 519 445
f 445 519 446
f 446 520 521
f 446 521 447
f 446 519 520
f 447 521 522
f 447 522 448
f 448 522 523
f 448 523 449
f 449 523 524
f 449 524 525
f 449 525 450
f 451 526 527
f 451 527 452
f 452 528 453
f 452 527 528
f 453 528 454
f 454 528 529
f 454 529 455
f 455 529 530
f 455 530 456
f 456 530 531
f 456 531 532
f 456 532 457
f 457 532 458
f 458 532 459
f 459 533 460
f 459 532 534
f 459 534 535
f 459 535 533
f 460 533 536
f 460 536 537
f 460 537 495
f 460 495 493
f 460 493 461
f 461 493 494
f 462 538 463
f 463 539 540
f 463 540 464
f 463 538 541
f 463 541 542
f 463 542 539
f 464 540 586
f 464 586 543
f 464 543 544
f 464 544 465
f 465 544 466
f 466 544 545
f 466 545 467
f 467 545 546
f 467 546 468
f 468 546 547
f 468 547 469
f 469 547 548
f 469 548 470
f 470 548 549
f 470 549 471
f 471 549 550
f 471 550 472
f 472 550 551
f 472 551 473
f 473 551 475
f 473 475 474
f 475 551 509
f 476 480 552
f 476 552 553
f 476 553 477
f 477 553 554
f 477 554 478
f 478 554 555
f 478 555 481
f 479 556 480
f 479 495 537
f 479 537 557
f 479 557 556
f 480 556 558
f 480 558 535
f 480 535 559
f 480 559 552
f 481 555 482
f 482 560 483
f 482 555 560
f 483 560 561
f 483 561 485
f 483 485 484
f 485 561 562
f 485 562 563
f 485 563 486
f 486 563 487
f 487 563 564
f 487 564 565
f 487 565 566
f 487 566 567
f 487 567 488
f 488 567 489
f 489 567 566
f 489 566 568
f 489 568 490
f 490 569 491
f 490 568 569
f 491 569 570
f 491 570 571
f 491 571 572
f 491 572 573
f 491 573 492
f 492 573 574
f 492 574 575
f 492 575 496
f 496 575 576
f 496 576 577
f 496 577 497
f 497 577 578
f 497 578 498
f 498 578 579
f 498 579 580
f 498 580 499
f 499 580 500
f 500 580 501
f 501 580 502
f 502 581 508
f 502 580 582
f 502 582 581
f 503 583 504
f 503 506 583
f 504 583 539
f 504 539 584
f 504 584 505
f 506 507 585
f 506 585 586
f 506 586 583
f 507 508 585
f 508 581 585
f 509 587 510
f 509 551 587
f 510 587 588
f 510 588 511
f 511 588 589
f 511 589 512
f 512 590 591
f 512 591 515
f 512 589 592
f 512 592 590
f 513 591 514
f 513 515 591
f 514 591 593
f 514 593 516
f 516 594 517
f 516 593 594
f 517 594 595
f 517 595 596
f 517 596 518
f 518 596 597
f 518 597 519
f 519 597 598
f 519 598 520
f 520 598 599
f 520 599 521
f 521 599 522
f 522 599 523
f 523 599 600
f 523 600 601
f 523 601 524
f 524 602 525
f 524 601 603
f 524 603 604
f 524 604 602
f 526 605 527
f 527 605 606
f 527 606 607
f 527 607 608
f 527 608 528
f 528 608 529
f 529 608 609
f 529 609 530
f 530 609 610
f 530 610 611
f 530 611 531
f 531 611 532
f 532 611 612
f 532 612 534
f 533 535 557
f 533 557 536
f 534 612 613
f 534 613 535
f 535 613 614
f 535 614 559
f 535 558 557
f 536 557 537
f 539 583 540
f 539 542 584
f 540 583 586
f 543 586 615
f 543 615 616
f 543 616 544
f 544 616 617
f 544 617 545
f 545 617 618
f 545 618 619
f 545 619 546
f 546 619 620
f 546 620 547
f 547 620 621
f 547 621 622
f 547 622 548
f 548 622 623
f 548 623 549
f 549 623 624
f 549 624 550
f 550 624 587
f 550 587 551
f 552 625 626
f 552 626 553
f 552 559 614
f 552 614 625
f 553 626 627
f 553 627 554
f 554 627 628
f 554 628 555
f 555 628 629
f 555 629 560
f 556 557 558
f 560 630 631
f 560 631 561
f 560 629 632
f 560 632 630
f 561 631 562
f 562 631 633
f 562 633 634
f 562 634 635
f 562 635 636
f 562 636 637
f 562 637 563
f 563 637 564
f 564 638 639
f 564 639 565
f 564 637 638
f 565 640 641
f 565 641 642
f 565 642 568
f 565 568 566
f 565 639 640
f 568 642 569
f 569 642 643
f 569 643 570
f 570 643 641
f 570 641 644
f 570 644 571
f 571 644 572
f 572 644 645
f 572 645 573
f 573 646 574
f 573 645 646
f 574 646 647
f 574 647 648
f 574 648 575
f 575 648 576
f 576 648 649
f 576 649 577
f 577 649 578
f 578 649 650
f 578 650 579
f 579 650 651
f 579 651 580
f 580 651 652
f 580 652 582
f 581 582 652
f 581 652 653
f 581 653 585
f 585 615 586
f 585 653 615
f 587 624 588
f 588 624 654
f 588 654 589
f 589 655 656
f 589 656 592
f 589 654 655
f 590 592 657
f 590 657 591
f 591 657 593
f 592 656 658
f 592 658 657
f 593 657 659
f 593 659 594
f 594 660 595
f 594 659 660
f 595 660 661
f 595 661 662
f 595 662 596
f 596 662 663
f 596 663 597
f 597 663 598
f 598 663 664
f 598 664 665
f 598 665 599
f 599 665 666
f 599 666 600
f 600 666 667
f 600 667 668
f 600 668 669
f 600 669 601
f 601 669 670
f 601 670 603
f 602 604 671
f 603 670 672
f 603 672 673
f 603 673 604
f 604 673 674
f 604 674 675
f 604 675 671
f 606 676 607
f 607 677 608
f 607 676 678
f 607 678 679
f 607 679 677
f 608 677 609
f 609 677 680
f 609 680 610
f 610 680 681
f 610 681 682
f 610 682 611
f 611 682 683
f 611 683 612
f 612 683 684
f 612 684 613
f 613 684 685
f 613 685 686
f 613 686 687
f 613 687 625
f 613 625 614
f 615 653 688
f 615 688 616
f 616 688 617
f 617 688 689
f 617 689 690
f 617 690 691
f 617 691 692
f 617 692 618
f 618 620 619
f 618 692 620
f 620 692 621
f 621 692 693
f 621 693 622
f 622 693 694
f 622 694 695
f 622 695 623
f 623 695 654
f 623 654 624
f 625 687 696
f 625 696 626
f 626 696 697
f 626 697 627
f 627 697 632
f 627 632 628
f 628 632 629
f 630 633 631
f 630 632 698
f 630 698 699
f 630 699 633
f 632 697 698
f 633 699 700
f 633 700 634
f 634 700 701
f 634 701 702
f 634 702 635
f 635 702 703
f 635 703 704
f 635 704 705
f 635 705 636
f 636 705 639
f 636 639 638
f 636 638 637
f 639 705 706
f 639 706 640
f 640 706 641
f 641 707 644
f 641 643 642
f 641 706 708
f 641 708 707
f 644 707 645
f 645 707 709
f 645 709 710
f 645 710 711
f 645 711 646
f 646 711 647
f 647 711 648
f 648 711 712
f 648 712 713
f 648 713 649
f 649 713 650
f 650 714 715
f 650 715 716
f 650 716 717
f 650 717 652
f 650 652 651
f 650 713 714
f 652 717 688
f 652 688 653
f 654 695 655
f 655 718 656
f 655 695 718
f 656 719 720
f 656 720 658
f 656 718 719
f 657 721 722
f 657 722 659
f 657 658 720
f 657 720 721
f 659 722 660
f 660 723 661
f 660 722 723
f 661 723 724
f 661 724 725
f 661 725 662
f 662 725 726
f 662 726 663
f 663 726 664
f 664 726 727
f 664 727 728
f 664 728 665
f 665 728 729
f 665 729 668
f 665 668 667
f 665 667 666
f 668 730 731
f 668 731 669
f 668 729 732
f 668 732 733
f 668 733 730
f 669 731 670
f 670 731 734
f 670 734 735
f 670 735 672
f 672 735 736
f 672 736 673
f 673 736 737
f 673 737 738
f 673 738 674
f 674 738 675
f 677 679 739
f 677 739 740
f 677 740 680
f 678 741 679
f 679 742 743
f 679 743 744
f 679 744 739
f 679 741 742
f 680 740 681
f 681 740 745
f 681 745 682
f 682 745 683
f 683 745 746
f 683 746 684
f 684 746 685
f 685 746 747
f 685 747 748
f 685 748 686
f 686 748 749
f 686 749 687
f 687 749 696
f 688 717 750
f 688 750 689
f 689 750 690
f 690 750 751
f 690 751 752
f 690 752 753
f 690 753 691
f 691 753 692
f 692 753 693
f 693 753 754
f 693 754 694
f 694 754 755
f 694 755 718
f 694 718 695
f 696 749 697
f 697 756 698
f 697 749 756
f 698 756 757
f 698 757 699
f 699 757 758
f 699 758 759
f 699 759 700
f 700 759 760
f 700 760 701
f 701 760 761
f 701 761 730
f 701 730 702
f 702 730 703
f 703 730 762
f 703 762 763
f 703 763 704
f 704 764 705
f 704 763 765
f 704 765 766
f 704 766 764
f 705 764 767
f 705 767 706
f 706 767 708
f 707 708 766
f 707 766 768
f 707 768 769
f 707 769 709
f 708 767 766
f 709 769 770
f 709 770 710
f 710 770 724
f 710 724 771
f 710 771 772
f 710 772 711
f 711 772 773
f 711 773 712
f 712 773 774
f 712 774 713
f 713 774 775
f 713 775 714
f 714 775 776
f 714 776 715
f 715 776 777
f 715 777 751
f 715 751 750
f 715 750 716
f 716 750 717
f 718 755 778
f 718 778 719
f 719 778 720
f 720 778 779
f 720 779 721
f 721 779 722
f 722 779 780
f 722 780 771
f 722 771 723
f 723 771 724
f 724 770 769
f 724 769 725
f 725 769 768
f 725 768 726
f 726 768 727
f 727 781 762
f 727 762 732
f 727 732 728
f 727 768 781
f 728 732 729
f 730 733 732
f 730 732 762
f 730 761 731
f 731 761 734
f 734 782 735
f 734 761 782
f 735 782 760
f 735 760 783
f 735 783 784
f 735 784 785
f 735 785 736
f 736 785 786
f 736 786 737
f 737 786 787
f 737 787 738
f 738 787 788
f 739 744 789
f 739 789 740
f 740 789 790
f 740 790 745
f 742 788 743
f 743 788 787
f 743 787 786
f 743 786 744
f 744 786 791
f 744 791 789
f 745 790 746
f 746 790 747
f 747 792 793
f 747 793 748
f 747 790 792
f 748 793 758
f 748 758 749
f 749 758 756
f 751 777 776
f 751 776 752
f 752 794 795
f 752 795 753
f 752 776 794
f 753 795 754
f 754 795 778
f 754 778 755
f 756 758 757
f 758 793 759
f 759 793 783
f 759 783 760
f 760 782 761
f 762 781 763
f 763 781 765
f 764 766 767
f 765 781 766
f 766 781 768
f 771 780 796
f 771 796 772
f 772 796 774
f 772 774 773
f 774 796 776
f 774 776 775
f 776 797 794
f 776 796 797
f 778 795 779
f 779 797 780
f 779 795 794
f 779 794 797
f 780 797 796
f 783 793 792
f 783 792 784
f 784 792 785
f 785 792 798
f 785 798 791
f 785 791 786
f 789 791 790
f 790 791 798
f 790 798 792

