# https://github.com/mikedh/trimesh
v -0.02066191 -0.00032260 -0.02785573
v -0.02066191 -0.00032260 -0.01256311
v -0.02066191 0.01931462 -0.02785573
v -0.02038309 -0.00032260 -0.02785573
v -0.00017134 -0.00032260 -0.01388392
v -0.01926378 0.03085389 -0.00850024
v -0.01926378 0.03086916 -0.00849834
v -0.02066191 0.02250861 -0.01069464
v -0.01973718 0.02026732 -0.02785573
v -0.02066191 0.02250861 -0.02545666
v -0.01926378 0.03086916 -0.02390087
v -0.00017134 -0.00032260 -0.02682295
v -0.00017134 0.01885048 -0.02785573
v -0.00016933 0.02250861 -0.01260859
v -0.00016933 0.03086916 -0.01076476
v -0.01909929 0.02086887 -0.02785573
v -0.01825480 0.03086916 -0.02407900
v -0.01702516 0.02250861 -0.02785573
v -0.01797798 0.02177271 -0.02785573
v -0.00016933 0.02250861 -0.02711478
v -0.00017134 0.02250861 -0.02785573
v -0.00016933 0.03086916 -0.02542445
v -0.01658386 0.03086916 -0.02434998
v -0.00813488 0.02704004 -0.02711478
v -0.00715198 0.02734539 -0.02711478
v -0.00467866 0.02788281 -0.02711478
v -0.00436373 0.02790724 -0.02711478
v -0.00320431 0.02793167 -0.02711478
v -0.01482466 0.03086916 -0.02460012
v -0.00016933 0.02790113 -0.02711478
v -0.00151531 0.02792862 -0.02711478
v -0.00017134 0.02791030 -0.02711478
v -0.00016933 0.02791030 -0.02711099
v -0.00186635 0.03086916 -0.02540550
v -0.01329213 0.03086916 -0.02478204
v -0.01319183 0.03086916 -0.02479152
v -0.01157505 0.03086916 -0.02493743
v -0.01006860 0.03086916 -0.02505871
v -0.00997031 0.03086916 -0.02506629
v -0.00698749 0.03086916 -0.02525200
v -0.00689120 0.03086916 -0.02525769
v -0.00532056 0.03086916 -0.02532591
v -0.00508988 0.03086916 -0.02533349
v -0.00365765 0.03086916 -0.02537139
v -0.00252630 0.03086916 -0.02539602
v -0.00231769 0.03086916 -0.02539981
f 1 2 8
f 1 8 10
f 1 10 3
f 1 3 9
f 1 9 16
f 1 16 19
f 1 19 18
f 1 18 21
f 1 21 13
f 1 13 4
f 1 4 12
f 1 12 5
f 1 5 2
f 2 5 6
f 2 6 7
f 2 7 8
f 3 10 11
f 3 11 9
f 4 13 12
f 5 12 20
f 5 20 14
f 5 14 15
f 5 15 7
f 5 7 6
f 7 11 10
f 7 10 8
f 7 15 22
f 7 22 34
f 7 34 46
f 7 46 45
f 7 45 44
f 7 44 43
f 7 43 42
f 7 42 41
f 7 41 40
f 7 40 39
f 7 39 38
f 7 38 37
f 7 37 36
f 7 36 35
f 7 35 29
f 7 29 23
f 7 23 17
f 7 17 11
f 9 11 16
f 11 17 18
f 11 18 19
f 11 19 16
f 12 13 20
f 13 21 30
f 13 30 20
f 14 20 30
f 14 30 33
f 14 33 22
f 14 22 15
f 17 23 18
f 18 24 25
f 18 25 26
f 18 26 27
f 18 27 28
f 18 28 21
f 18 23 29
f 18 29 24
f 21 28 31
f 21 31 32
f 21 32 30
f 22 33 32
f 22 32 31
f 22 31 28
f 22 28 34
f 24 29 25
f 25 29 35
f 25 35 26
f 26 35 36
f 26 36 37
f 26 37 38
f 26 38 39
f 26 39 40
f 26 40 41
f 26 41 27
f 27 41 42
f 27 42 43
f 27 43 44
f 27 44 45
f 27 45 46
f 27 46 34
f 27 34 28
f 30 32 33

