# https://github.com/mikedh/trimesh
v 0.00792204 0.02743122 -0.03204211
v 0.00792204 0.02742541 -0.03211742
v 0.00792204 0.02741766 -0.03178015
v 0.00845684 0.02727813 -0.03178659
v 0.00850403 0.02722000 -0.03251326
v 0.00792204 0.02739246 -0.03245083
v 0.00792204 0.02734983 -0.03091316
v 0.00909191 0.02707272 -0.03146927
v 0.01115247 0.02641385 -0.03057589
v 0.01144936 0.02631115 -0.03120730
v 0.01007303 0.02674910 -0.03181040
v 0.00808720 0.02729364 -0.03075611
v 0.00895035 0.02697777 -0.03302754
v 0.00792204 0.02734596 -0.03279067
v 0.01031291 0.02659601 -0.03244182
v 0.00965620 0.02679367 -0.03272567
v 0.00792204 0.02733820 -0.03079022
v 0.00919612 0.02689831 -0.03025728
v 0.01162435 0.02617938 -0.03012534
v 0.01241672 0.02595265 -0.03071298
v 0.01169906 0.02615225 -0.03183550
v 0.01220044 0.02601272 -0.03139332
v 0.00792204 0.02727813 -0.03050380
v 0.00830937 0.02709210 -0.03331525
v 0.00792204 0.02728007 -0.03306937
v 0.00792204 0.02731689 -0.03293356
v 0.01083591 0.02625301 -0.03305393
v 0.00940257 0.02656113 -0.03362098
v 0.01214342 0.02584025 -0.03248752
v 0.00916466 0.02670841 -0.02955700
v 0.01057048 0.02642354 -0.02988976
v 0.00792204 0.02717736 -0.03007384
v 0.00792204 0.02713861 -0.02993482
v 0.00928460 0.02639254 -0.02862242
v 0.01184259 0.02577630 -0.02941668
v 0.01242261 0.02580731 -0.03001913
v 0.01317959 0.02549144 -0.03031199
v 0.01355120 0.02538098 -0.03111012
v 0.01291023 0.02569492 -0.03123627
v 0.01332509 0.02531897 -0.03247593
v 0.00792204 0.02706303 -0.03360553
v 0.00792204 0.02709210 -0.03355018
v 0.00792204 0.02720449 -0.03329336
v 0.01143363 0.02582863 -0.03339828
v 0.01285517 0.02545656 -0.03280934
v 0.01371636 0.02494303 -0.03315627
v 0.01309505 0.02508643 -0.03343432
v 0.01234593 0.02514069 -0.03379927
v 0.00868688 0.02657082 -0.03389903
v 0.00792204 0.02671034 -0.02862242
v 0.00848240 0.02658826 -0.02862242
v 0.01171872 0.02543912 -0.02862242
v 0.02185240 0.01716259 -0.02817959
v 0.01173838 0.02543137 -0.02862242
v 0.01293775 0.02537905 -0.02967736
v 0.01397393 0.02486746 -0.02999467
v 0.01431801 0.02484614 -0.03061193
v 0.01616228 0.02375901 -0.03127489
v 0.01537581 0.02428223 -0.03163469
v 0.01474074 0.02465042 -0.03193527
v 0.01414105 0.02494303 -0.03228219
v 0.01444384 0.02463492 -0.03290524
v 0.00792204 0.02683437 -0.03388037
v 0.01470928 0.02425316 -0.03342853
v 0.01404471 0.02438106 -0.03370143
v 0.01112887 0.02521045 -0.03414105
v 0.01354137 0.02439850 -0.03396469
v 0.00792204 0.02655725 -0.03413268
v 0.00792204 0.02069141 -0.02862242
v 0.01279226 0.01716066 -0.02817959
v 0.01343520 0.01716259 -0.02817959
v 0.02207064 0.01690292 -0.02817959
v 0.02149259 0.01888921 -0.03016782
v 0.02119373 0.01947832 -0.03055272
v 0.02045248 0.01888340 -0.02862242
v 0.01954214 0.01980194 -0.02862242
v 0.01883432 0.02045305 -0.02862242
v 0.01788662 0.02126113 -0.02862242
v 0.01639429 0.02249554 -0.02862242
v 0.01483315 0.02362142 -0.02862242
v 0.01395623 0.02419890 -0.02862242
v 0.01339587 0.02453415 -0.02862242
v 0.01305572 0.02472599 -0.02862242
v 0.01246980 0.02505349 -0.02862242
v 0.01264283 0.02516976 -0.02898801
v 0.01349221 0.02486939 -0.02934845
v 0.01426099 0.02433067 -0.02924547
v 0.01537974 0.02395086 -0.03010796
v 0.01571989 0.02393148 -0.03067694
v 0.01723188 0.02288892 -0.03085394
v 0.01753861 0.02277459 -0.03131673
v 0.01773719 0.02260212 -0.03207429
v 0.01644148 0.02350903 -0.03208395
v 0.01517723 0.02428998 -0.03252678
v 0.01546626 0.02384621 -0.03323543
v 0.01547412 0.02354003 -0.03378833
v 0.01131959 0.02449927 -0.03448024
v 0.00965620 0.02523952 -0.03445643
v 0.00792204 0.02654175 -0.03414169
v 0.01455592 0.02361755 -0.03417194
v 0.01348435 0.02384427 -0.03432641
v 0.00792204 0.02181148 -0.03361261
v 0.02067859 0.00763616 -0.02818024
v 0.02068252 0.00763616 -0.02817959
v 0.02188582 0.01891634 -0.03098460
v 0.02263690 0.01615491 -0.02817959
v 0.02138052 0.01956358 -0.03124206
v 0.02067466 0.02004029 -0.03072521
v 0.01856888 0.02142778 -0.03006226
v 0.01515757 0.02376870 -0.02938965
v 0.02002385 0.02065071 -0.03096722
v 0.02059011 0.02036197 -0.03155616
v 0.01852956 0.02203433 -0.03171321
v 0.01953428 0.02122044 -0.03214767
v 0.01833491 0.02205565 -0.03258149
v 0.01836440 0.02194713 -0.03291683
v 0.01639036 0.02333269 -0.03288272
v 0.01665973 0.02289473 -0.03343690
v 0.01719649 0.02238314 -0.03368534
v 0.01650243 0.02241802 -0.03408440
v 0.01563731 0.02308852 -0.03404900
v 0.01059997 0.02449345 -0.03460705
v 0.00829954 0.02526859 -0.03462507
v 0.00804984 0.02597396 -0.03439013
v 0.00792204 0.02647005 -0.03417644
v 0.01434947 0.02307883 -0.03443133
v 0.01577495 0.02253042 -0.03430002
v 0.01282961 0.02364080 -0.03450663
v 0.00792204 0.02186961 -0.03367440
v 0.02293576 0.00763616 -0.03396340
v 0.02286695 0.00763616 -0.03388487
v 0.02258382 0.00763616 -0.03354567
v 0.02248747 0.00763616 -0.03332490
v 0.02232821 0.00763616 -0.03287242
v 0.02714731 0.00763616 -0.02817959
v 0.02324838 0.01534102 -0.02817959
v 0.02242456 0.01799005 -0.03068209
v 0.02293183 0.01754241 -0.03119121
v 0.02257595 0.01816252 -0.03153042
v 0.02200379 0.01895316 -0.03166365
v 0.02143950 0.01957327 -0.03178273
v 0.02083982 0.02014881 -0.03208974
v 0.01961882 0.02101502 -0.03266774
v 0.01911351 0.02133089 -0.03298441
v 0.01982920 0.02048212 -0.03337897
v 0.01871635 0.02106735 -0.03375807
v 0.01737345 0.02167002 -0.03413010
v 0.00977614 0.02456128 -0.03468106
v 0.01310488 0.02305751 -0.03462957
v 0.00792204 0.02527634 -0.03464566
v 0.00792204 0.02541005 -0.03461155
v 0.00792204 0.02603597 -0.03438177
v 0.01518116 0.02240058 -0.03447124
v 0.01610723 0.02167583 -0.03449891
v 0.01746193 0.02103828 -0.03439271
v 0.00792204 0.02211766 -0.03393250
v 0.02317367 0.00763616 -0.03414040
v 0.00792204 0.02244128 -0.03422794
v 0.02792199 0.00763616 -0.03053727
v 0.02791412 0.00768267 -0.03054371
v 0.02772144 0.00843261 -0.03055915
v 0.02756218 0.00912830 -0.03070977
v 0.02693103 0.00831247 -0.02817959
v 0.02330933 0.01690874 -0.03104511
v 0.02315990 0.01716259 -0.03110368
v 0.02310289 0.01716259 -0.03096015
v 0.02418625 0.01394384 -0.02817959
v 0.02431405 0.01544760 -0.03136049
v 0.02326215 0.01716259 -0.03165271
v 0.02328771 0.01716259 -0.03180976
v 0.02277650 0.01786409 -0.03209618
v 0.02202739 0.01880782 -0.03243474
v 0.02145130 0.01935817 -0.03273017
v 0.02044658 0.02036972 -0.03245212
v 0.02076314 0.01985619 -0.03303912
v 0.02029322 0.01962172 -0.03383467
v 0.02096959 0.01932716 -0.03352958
v 0.01884022 0.02035810 -0.03414941
v 0.01224959 0.02303813 -0.03469844
v 0.00910371 0.02450896 -0.03472805
v 0.00792204 0.02489846 -0.03471968
v 0.01429835 0.02243934 -0.03459353
v 0.01525194 0.02161963 -0.03463086
v 0.01677180 0.02098596 -0.03455105
v 0.01823070 0.01974380 -0.03454976
v 0.01737541 0.02032321 -0.03459739
v 0.02125665 0.01818577 -0.03411337
v 0.02067269 0.01805400 -0.03436181
v 0.02366718 0.00763616 -0.03437662
v 0.00792204 0.02285985 -0.03445772
v 0.02792788 0.00763616 -0.03058490
v 0.02800653 0.00763616 -0.03123369
v 0.02741471 0.00977748 -0.03159285
v 0.02708636 0.01046153 -0.03092603
v 0.02730657 0.00980460 -0.03074645
v 0.02707850 0.00981429 -0.03007191
v 0.02644735 0.00972515 -0.02817959
v 0.02675604 0.00882599 -0.02817959
v 0.02776666 0.00863221 -0.03137723
v 0.02509462 0.01258929 -0.02817959
v 0.02366914 0.01622661 -0.03081983
v 0.02517917 0.01390896 -0.03094856
v 0.02502581 0.01443024 -0.03168875
v 0.02340371 0.01699400 -0.03185610
v 0.02328378 0.01716259 -0.03190180
v 0.02289840 0.01757342 -0.03278038
v 0.02326411 0.01716259 -0.03216183
v 0.02224957 0.01831561 -0.03309962
v 0.02163808 0.01885433 -0.03331331
v 0.02157910 0.01836212 -0.03380957
v 0.01125274 0.02303426 -0.03473835
v 0.01617211 0.02086775 -0.03464116
v 0.01621144 0.02023214 -0.03469973
v 0.00995900 0.02368731 -0.03474092
v 0.00835066 0.02447407 -0.03474414
v 0.00792204 0.02468917 -0.03473577
v 0.02059208 0.01750753 -0.03453110
v 0.01987639 0.01804237 -0.03456456
v 0.02037383 0.01716259 -0.03461284
v 0.02052130 0.01689323 -0.03462764
v 0.02023227 0.01716259 -0.03463021
v 0.01924721 0.01805982 -0.03463858
v 0.01834277 0.01885821 -0.03464759
v 0.02194677 0.01749978 -0.03406381
v 0.02189959 0.01716259 -0.03422600
v 0.02171673 0.01716259 -0.03429037
v 0.02123895 0.01716259 -0.03443326
v 0.02408008 0.00763616 -0.03446094
v 0.00792204 0.02343927 -0.03464373
v 0.00792204 0.02374545 -0.03471132
v 0.02798490 0.00763616 -0.03161667
v 0.02763099 0.00896358 -0.03217985
v 0.02732427 0.00993444 -0.03211871
v 0.02694283 0.01088204 -0.03174539
v 0.02674031 0.01119404 -0.03100391
v 0.02639820 0.01185678 -0.03096079
v 0.02656336 0.01115141 -0.03031199
v 0.02573167 0.01130837 -0.02817959
v 0.02529517 0.01223078 -0.02817959
v 0.02589486 0.01253890 -0.03058104
v 0.02467583 0.01447481 -0.03049865
v 0.02560386 0.01344387 -0.03155294
v 0.02454999 0.01525769 -0.03205885
v 0.02389526 0.01624987 -0.03224615
v 0.02314811 0.01716259 -0.03287564
v 0.02304587 0.01716259 -0.03318974
v 0.02449887 0.01520731 -0.03270185
v 0.02240883 0.01768387 -0.03358043
v 0.02299278 0.01716259 -0.03333584
v 0.02292986 0.01716259 -0.03342724
v 0.02253270 0.01716259 -0.03381343
v 0.02234984 0.01716259 -0.03395825
v 0.00792204 0.02438300 -0.03475444
v 0.01908206 0.01753078 -0.03469587
v 0.01951068 0.01716259 -0.03469265
v 0.00792204 0.02447020 -0.03475187
v 0.02099908 0.01716259 -0.03450342
v 0.02138445 0.01612391 -0.03457937
v 0.02005924 0.01669170 -0.03468814
v 0.02140608 0.01543016 -0.03463215
v 0.01978005 0.01716259 -0.03467141
v 0.02224367 0.01716259 -0.03404192
v 0.02202935 0.01716259 -0.03416293
v 0.02211193 0.01681960 -0.03426269
v 0.02151618 0.01672270 -0.03446737
v 0.02443006 0.00763616 -0.03453174
v 0.00792204 0.02396248 -0.03472934
v 0.02450870 0.00763616 -0.03453946
v 0.02796524 0.00763616 -0.03183164
v 0.02768015 0.00815163 -0.03279003
v 0.02723579 0.00965927 -0.03285053
v 0.02791805 0.00763616 -0.03216054
v 0.02784531 0.00763616 -0.03254416
v 0.02778829 0.00763616 -0.03281771
v 0.02694086 0.01075996 -0.03227447
v 0.02617602 0.01231411 -0.03221075
v 0.02612687 0.01247108 -0.03139654
v 0.02516934 0.01417056 -0.03238196
v 0.02370454 0.01624406 -0.03308932
v 0.02311075 0.01697656 -0.03337253
v 0.02504154 0.01405429 -0.03306229
v 0.02452836 0.01482749 -0.03329851
v 0.02271752 0.01716259 -0.03364994
v 0.02405058 0.01539334 -0.03356884
v 0.02331720 0.01614329 -0.03378640
v 0.02263690 0.01671301 -0.03401296
v 0.00792204 0.02424735 -0.03474671
v 0.02453033 0.00848687 -0.03459224
v 0.02491767 0.00763616 -0.03456199
v 0.02292790 0.01462789 -0.03445579
v 0.02290430 0.01398647 -0.03455040
v 0.02298688 0.01324621 -0.03460125
v 0.02439860 0.01063400 -0.03458452
v 0.02450870 0.00961276 -0.03460190
v 0.02336046 0.01551543 -0.03406703
v 0.02362589 0.01459495 -0.03423630
v 0.02429046 0.01342450 -0.03428007
v 0.02363965 0.01381788 -0.03440880
v 0.02756021 0.00763616 -0.03335901
v 0.02719253 0.00895195 -0.03343947
v 0.02768408 0.00763616 -0.03307645
v 0.02683076 0.00992088 -0.03354696
v 0.02673638 0.01064563 -0.03315112
v 0.02666167 0.01109521 -0.03269220
v 0.02490980 0.01387601 -0.03359909
v 0.02415282 0.01470928 -0.03387458
v 0.02524012 0.00763616 -0.03452788
v 0.02369864 0.01257766 -0.03453689
v 0.02454213 0.01110490 -0.03451307
v 0.02520276 0.00983367 -0.03446287
v 0.02519097 0.00830665 -0.03452530
v 0.02541314 0.00763616 -0.03450856
v 0.02426883 0.01400391 -0.03409406
v 0.02443595 0.01254859 -0.03437726
v 0.02508086 0.01241488 -0.03416743
v 0.02519687 0.01118629 -0.03435280
v 0.02749139 0.00763616 -0.03343561
v 0.02713158 0.00848493 -0.03363128
v 0.02651027 0.00987243 -0.03394538
v 0.02622911 0.01122311 -0.03364994
v 0.02501991 0.01315514 -0.03386170
v 0.02555667 0.00763616 -0.03448153
v 0.02591845 0.00843067 -0.03436503
v 0.02598727 0.00767298 -0.03438756
v 0.02585750 0.01110684 -0.03404965
v 0.02592042 0.01035108 -0.03416872
v 0.02657319 0.00860702 -0.03413461
v 0.02718860 0.00763616 -0.03376065
v 0.02689368 0.00763616 -0.03403227
v 0.02598530 0.00763616 -0.03438949
v 0.02635101 0.00763616 -0.03429102
v 0.02599906 0.00763616 -0.03438627
v 0.02664790 0.00763616 -0.03419318
f 1 2 6
f 1 6 14
f 1 14 26
f 1 26 25
f 1 25 43
f 1 43 42
f 1 42 41
f 1 41 63
f 1 63 68
f 1 68 99
f 1 99 125
f 1 125 152
f 1 152 151
f 1 151 150
f 1 150 181
f 1 181 216
f 1 216 256
f 1 256 253
f 1 253 287
f 1 287 267
f 1 267 230
f 1 230 229
f 1 229 190
f 1 190 158
f 1 158 156
f 1 156 129
f 1 129 102
f 1 102 69
f 1 69 50
f 1 50 33
f 1 33 32
f 1 32 23
f 1 23 17
f 1 17 7
f 1 7 3
f 1 3 4
f 1 4 5
f 1 5 2
f 2 5 6
f 3 7 4
f 4 8 9
f 4 9 10
f 4 10 11
f 4 11 5
f 4 7 12
f 4 12 8
f 5 13 14
f 5 14 6
f 5 11 15
f 5 15 16
f 5 16 13
f 7 17 12
f 8 12 9
f 9 18 19
f 9 19 20
f 9 20 10
f 9 12 18
f 10 21 15
f 10 15 11
f 10 20 22
f 10 22 21
f 12 17 23
f 12 23 18
f 13 24 25
f 13 25 26
f 13 26 14
f 13 16 27
f 13 27 28
f 13 28 24
f 15 21 29
f 15 29 27
f 15 27 16
f 18 30 31
f 18 31 19
f 18 23 32
f 18 32 33
f 18 33 30
f 19 31 34
f 19 34 35
f 19 35 36
f 19 36 20
f 20 36 37
f 20 37 38
f 20 38 39
f 20 39 22
f 21 22 29
f 22 39 40
f 22 40 29
f 24 41 42
f 24 42 43
f 24 43 25
f 24 28 41
f 27 44 28
f 27 29 45
f 27 45 46
f 27 46 47
f 27 47 44
f 28 44 47
f 28 47 48
f 28 48 49
f 28 49 41
f 29 40 45
f 30 34 31
f 30 33 34
f 33 50 51
f 33 51 34
f 34 52 35
f 34 51 53
f 34 53 52
f 35 52 54
f 35 54 36
f 36 55 37
f 36 54 55
f 37 55 56
f 37 56 57
f 37 57 38
f 38 57 58
f 38 58 59
f 38 59 60
f 38 60 61
f 38 61 39
f 39 61 40
f 40 61 62
f 40 62 46
f 40 46 45
f 41 49 63
f 46 62 64
f 46 64 47
f 47 64 65
f 47 65 48
f 48 66 49
f 48 65 67
f 48 67 66
f 49 68 63
f 49 66 68
f 50 69 70
f 50 70 71
f 50 71 53
f 50 53 51
f 52 53 54
f 53 72 73
f 53 73 74
f 53 74 75
f 53 75 76
f 53 76 77
f 53 77 78
f 53 78 79
f 53 79 80
f 53 80 81
f 53 81 82
f 53 82 83
f 53 83 84
f 53 84 54
f 53 71 70
f 53 70 104
f 53 104 135
f 53 135 163
f 53 163 198
f 53 198 197
f 53 197 238
f 53 238 239
f 53 239 200
f 53 200 167
f 53 167 136
f 53 136 106
f 53 106 72
f 54 84 85
f 54 85 55
f 55 82 86
f 55 86 87
f 55 87 56
f 55 85 82
f 56 87 88
f 56 88 89
f 56 89 57
f 57 89 58
f 58 89 90
f 58 90 91
f 58 91 92
f 58 92 93
f 58 93 59
f 59 94 60
f 59 93 94
f 60 94 61
f 61 94 62
f 62 94 95
f 62 95 64
f 64 95 96
f 64 96 65
f 65 96 67
f 66 97 98
f 66 98 99
f 66 99 68
f 66 67 100
f 66 100 101
f 66 101 97
f 67 96 100
f 69 102 103
f 69 103 70
f 70 103 104
f 72 105 73
f 72 106 105
f 73 105 74
f 74 105 107
f 74 107 108
f 74 108 77
f 74 77 76
f 74 76 75
f 77 108 78
f 78 108 79
f 79 108 109
f 79 109 90
f 79 90 88
f 79 88 110
f 79 110 80
f 80 110 87
f 80 87 81
f 81 87 86
f 81 86 82
f 82 85 83
f 83 85 84
f 87 110 88
f 88 90 89
f 90 109 108
f 90 108 111
f 90 111 91
f 91 111 112
f 91 112 113
f 91 113 92
f 92 113 114
f 92 114 115
f 92 115 94
f 92 94 93
f 94 115 116
f 94 116 117
f 94 117 95
f 95 117 116
f 95 116 118
f 95 118 119
f 95 119 96
f 96 119 120
f 96 120 121
f 96 121 100
f 97 122 98
f 97 101 122
f 98 122 123
f 98 123 124
f 98 124 125
f 98 125 99
f 100 126 101
f 100 121 127
f 100 127 126
f 101 126 128
f 101 128 122
f 102 129 130
f 102 130 131
f 102 131 132
f 102 132 133
f 102 133 134
f 102 134 103
f 103 134 133
f 103 133 132
f 103 132 131
f 103 131 130
f 103 130 157
f 103 157 189
f 103 189 228
f 103 228 266
f 103 266 268
f 103 268 289
f 103 289 307
f 103 307 312
f 103 312 322
f 103 322 330
f 103 330 332
f 103 332 331
f 103 331 333
f 103 333 329
f 103 329 328
f 103 328 317
f 103 317 299
f 103 299 301
f 103 301 274
f 103 274 273
f 103 273 272
f 103 272 269
f 103 269 231
f 103 231 192
f 103 192 191
f 103 191 159
f 103 159 135
f 103 135 104
f 105 106 136
f 105 136 137
f 105 137 138
f 105 138 139
f 105 139 140
f 105 140 107
f 107 141 112
f 107 112 108
f 107 140 141
f 108 112 111
f 112 141 142
f 112 142 114
f 112 114 113
f 114 143 116
f 114 116 115
f 114 142 143
f 116 143 144
f 116 144 119
f 116 119 118
f 119 144 145
f 119 145 146
f 119 146 147
f 119 147 120
f 120 127 121
f 120 147 127
f 122 148 123
f 122 128 149
f 122 149 148
f 123 150 151
f 123 151 152
f 123 152 124
f 123 148 150
f 124 152 125
f 126 127 153
f 126 153 149
f 126 149 128
f 127 154 153
f 127 147 155
f 127 155 154
f 129 156 130
f 130 156 158
f 130 158 157
f 135 159 160
f 135 160 161
f 135 161 162
f 135 162 163
f 136 164 165
f 136 165 166
f 136 166 137
f 136 167 164
f 137 166 165
f 137 165 138
f 138 165 168
f 138 168 169
f 138 169 139
f 139 169 170
f 139 170 171
f 139 171 140
f 140 172 141
f 140 171 172
f 141 172 142
f 142 172 173
f 142 173 174
f 142 174 143
f 143 174 175
f 143 175 144
f 144 175 145
f 145 176 146
f 145 175 177
f 145 177 176
f 146 176 147
f 147 176 178
f 147 178 155
f 148 149 179
f 148 179 180
f 148 180 181
f 148 181 150
f 149 153 182
f 149 182 183
f 149 183 179
f 153 154 182
f 154 155 184
f 154 184 182
f 155 185 186
f 155 186 184
f 155 178 187
f 155 187 188
f 155 188 185
f 157 158 190
f 157 190 189
f 159 191 160
f 160 191 192
f 160 192 162
f 160 162 161
f 162 193 194
f 162 194 195
f 162 195 196
f 162 196 197
f 162 197 198
f 162 198 163
f 162 192 199
f 162 199 193
f 164 167 200
f 164 200 201
f 164 201 202
f 164 202 168
f 164 168 165
f 168 202 203
f 168 203 169
f 169 204 170
f 169 203 204
f 170 204 205
f 170 205 171
f 171 206 172
f 171 205 207
f 171 207 206
f 172 206 208
f 172 208 173
f 173 209 175
f 173 175 174
f 173 208 209
f 175 209 177
f 176 177 210
f 176 210 187
f 176 187 178
f 177 209 210
f 179 211 180
f 179 183 212
f 179 212 213
f 179 213 211
f 180 211 214
f 180 214 215
f 180 215 216
f 180 216 181
f 182 184 183
f 183 184 186
f 183 186 212
f 185 188 217
f 185 217 218
f 185 218 186
f 186 218 219
f 186 219 220
f 186 220 221
f 186 221 222
f 186 222 223
f 186 223 213
f 186 213 212
f 187 210 224
f 187 224 225
f 187 225 226
f 187 226 188
f 188 226 227
f 188 227 217
f 189 190 229
f 189 229 230
f 189 230 228
f 192 231 199
f 193 199 232
f 193 232 233
f 193 233 234
f 193 234 194
f 194 234 235
f 194 235 236
f 194 236 237
f 194 237 196
f 194 196 195
f 196 237 197
f 197 237 238
f 199 231 232
f 200 239 240
f 200 240 202
f 200 202 241
f 200 241 201
f 201 241 202
f 202 240 236
f 202 236 242
f 202 242 203
f 203 242 243
f 203 243 204
f 204 243 244
f 204 244 205
f 205 244 207
f 206 245 246
f 206 246 208
f 206 207 244
f 206 244 247
f 206 247 245
f 208 248 209
f 208 246 249
f 208 249 250
f 208 250 248
f 209 248 210
f 210 248 251
f 210 251 252
f 210 252 224
f 211 253 214
f 211 213 254
f 211 254 253
f 213 223 255
f 213 255 254
f 214 253 256
f 214 256 215
f 215 256 216
f 217 227 257
f 217 257 258
f 217 258 220
f 217 220 219
f 217 219 218
f 220 259 221
f 220 258 260
f 220 260 259
f 221 259 261
f 221 261 222
f 222 261 223
f 223 261 259
f 223 259 255
f 224 252 262
f 224 262 263
f 224 263 225
f 225 263 264
f 225 264 226
f 226 264 265
f 226 265 227
f 227 265 257
f 228 230 266
f 230 267 268
f 230 268 266
f 231 269 232
f 232 270 271
f 232 271 233
f 232 269 272
f 232 272 273
f 232 273 274
f 232 274 270
f 233 271 275
f 233 275 234
f 234 275 276
f 234 276 277
f 234 277 235
f 235 277 236
f 236 277 242
f 236 240 239
f 236 239 237
f 237 239 238
f 242 278 243
f 242 277 276
f 242 276 278
f 243 278 247
f 243 247 244
f 245 247 279
f 245 279 246
f 246 279 280
f 246 280 249
f 247 278 281
f 247 281 282
f 247 282 279
f 248 250 283
f 248 283 251
f 249 280 250
f 250 280 284
f 250 284 285
f 250 285 283
f 251 283 285
f 251 285 286
f 251 286 252
f 252 286 262
f 253 254 255
f 253 255 259
f 253 259 288
f 253 288 289
f 253 289 287
f 257 265 258
f 258 265 290
f 258 290 291
f 258 291 292
f 258 292 260
f 259 260 292
f 259 292 293
f 259 293 294
f 259 294 288
f 262 286 263
f 263 286 264
f 264 286 295
f 264 295 296
f 264 296 297
f 264 297 298
f 264 298 265
f 265 298 290
f 267 287 289
f 267 289 268
f 270 299 300
f 270 300 271
f 270 274 301
f 270 301 299
f 271 300 302
f 271 302 303
f 271 303 275
f 275 303 304
f 275 304 276
f 276 304 281
f 276 281 278
f 279 282 284
f 279 284 280
f 281 305 282
f 281 304 303
f 281 303 305
f 282 305 284
f 284 305 306
f 284 306 285
f 285 306 286
f 286 306 295
f 288 294 289
f 289 294 307
f 290 298 291
f 291 298 308
f 291 308 292
f 292 308 293
f 293 309 310
f 293 310 311
f 293 311 294
f 293 308 309
f 294 311 312
f 294 312 307
f 295 306 313
f 295 313 297
f 295 297 296
f 297 314 298
f 297 313 315
f 297 315 316
f 297 316 314
f 298 314 308
f 299 317 318
f 299 318 300
f 300 318 319
f 300 319 302
f 302 319 320
f 302 320 303
f 303 320 305
f 305 321 306
f 305 320 321
f 306 321 315
f 306 315 313
f 308 314 309
f 309 314 316
f 309 316 310
f 310 322 311
f 310 316 323
f 310 323 324
f 310 324 322
f 311 322 312
f 315 321 320
f 315 320 325
f 315 325 326
f 315 326 316
f 316 326 327
f 316 327 323
f 317 328 318
f 318 328 319
f 319 328 329
f 319 329 327
f 319 327 326
f 319 326 325
f 319 325 320
f 322 324 330
f 323 327 331
f 323 331 324
f 324 331 332
f 324 332 330
f 327 329 333
f 327 333 331

