# https://github.com/mikedh/trimesh
v 0.00016204 0.05646201 -0.00242830
v 0.00100176 0.05645432 -0.00242830
v 0.00144287 0.05617349 -0.00337696
v -0.00016746 0.05621966 -0.00324107
v -0.00016746 0.05641585 -0.00258213
v -0.00016746 0.05645817 -0.00242830
v 0.00255363 0.05640046 -0.00242830
v 0.00271307 0.05629660 -0.00278469
v 0.00330300 0.05589267 -0.00405129
v 0.00203280 0.05575802 -0.00464356
v 0.00018330 0.05599653 -0.00396411
v -0.00016746 0.05593883 -0.00412051
v -0.00016746 0.04420949 -0.00242830
v 0.00348370 0.05635430 -0.00242830
v 0.00409488 0.05631968 -0.00242830
v 0.00457852 0.05599268 -0.00346414
v 0.00389824 0.05545027 -0.00532045
v 0.00262804 0.05529639 -0.00591272
v 0.00076791 0.05557337 -0.00523584
v -0.00016746 0.05540795 -0.00567171
v -0.00016746 0.03660408 -0.00847669
v -0.00016215 0.01716161 -0.01318156
v 0.04092008 0.01716930 -0.00242830
v 0.00563613 0.05618888 -0.00242830
v 0.00584872 0.05604655 -0.00286673
v 0.00644396 0.05561184 -0.00413846
v 0.00516844 0.05555029 -0.00473074
v 0.00575837 0.05506557 -0.00599990
v 0.00448817 0.05494247 -0.00658705
v 0.00321797 0.05477320 -0.00717932
v 0.00135784 0.05510019 -0.00650244
v -0.00016746 0.05507711 -0.00655371
v -0.00016746 0.01716161 -0.02706030
v 0.02779821 0.01716161 -0.01033043
v 0.05412697 0.01716930 -0.00242830
v 0.00678941 0.05605808 -0.00242830
v 0.00718801 0.05601192 -0.00242830
v 0.00770884 0.05562722 -0.00354875
v 0.00829877 0.05516559 -0.00481535
v 0.00703388 0.05513097 -0.00540506
v 0.00760255 0.05453469 -0.00682037
v 0.00634829 0.05450392 -0.00725880
v 0.00498774 0.05439236 -0.00781775
v 0.00194777 0.05456162 -0.00777160
v 0.00381321 0.05416923 -0.00844848
v 0.00009295 0.05486938 -0.00709728
v -0.00016746 0.05490015 -0.00700497
v -0.00016746 0.01716161 -0.02765258
v 0.05076280 0.01716161 -0.01033043
v 0.05382935 0.01716930 -0.00341029
v 0.05347859 0.01827337 -0.00337953
v 0.05376558 0.01827337 -0.00242830
v 0.00873457 0.05580418 -0.00242830
v 0.00897904 0.05563107 -0.00295647
v 0.00956366 0.05515790 -0.00422563
v 0.01015358 0.05463471 -0.00549480
v 0.00889401 0.05463471 -0.00608451
v 0.00948394 0.05401536 -0.00734854
v 0.00789486 0.05400382 -0.00794338
v 0.00725178 0.05379223 -0.00858437
v 0.00566802 0.05369606 -0.00912024
v 0.00254832 0.05393842 -0.00904076
v 0.00068819 0.05431157 -0.00836387
v 0.00454663 0.05345370 -0.00975098
v -0.00016746 0.05444622 -0.00805363
v -0.00016746 0.05481552 -0.00721265
v -0.00016746 0.02181256 -0.02862176
v 0.01400670 0.01716161 -0.02862176
v 0.05067245 0.01716161 -0.01047658
v 0.05076812 0.01716930 -0.01033043
v 0.05166098 0.01716930 -0.00877411
v 0.05173538 0.01716930 -0.00864078
v 0.05225090 0.01716930 -0.00754597
v 0.05252195 0.01716930 -0.00694344
v 0.05309593 0.01716930 -0.00549223
v 0.05325006 0.01716930 -0.00508713
v 0.05354768 0.01716930 -0.00424871
v 0.05323943 0.01972367 -0.00242830
v 0.05314908 0.01790791 -0.00468202
v 0.05273985 0.01959288 -0.00408462
v 0.05253258 0.02093931 -0.00318723
v 0.05313845 0.02000065 -0.00242830
v 0.00917037 0.05574263 -0.00242830
v 0.01027050 0.05556183 -0.00242830
v 0.01083386 0.05510019 -0.00363336
v 0.01142378 0.05458086 -0.00489996
v 0.01201371 0.05401151 -0.00617168
v 0.01075414 0.05404613 -0.00676140
v 0.01134406 0.05336907 -0.00802030
v 0.01007918 0.05332291 -0.00861771
v 0.00880366 0.05323827 -0.00920742
v 0.00722521 0.05318826 -0.00974585
v 0.00668843 0.05293436 -0.01033043
v 0.00650242 0.05295360 -0.01033043
v 0.00314888 0.05321904 -0.01033043
v 0.00127812 0.05366528 -0.00963047
v -0.00016746 0.05411922 -0.00875360
v 0.00475922 0.05310748 -0.01033043
v -0.00016746 0.02796768 -0.02862176
v 0.02195210 0.01716161 -0.02862176
v 0.05001875 0.01716161 -0.01151499
v 0.05042266 0.01748860 -0.01070734
v 0.05058211 0.01768864 -0.01033043
v 0.05090630 0.01809257 -0.00954586
v 0.05161315 0.01789253 -0.00840746
v 0.05233594 0.01818874 -0.00654602
v 0.05194797 0.01991217 -0.00588965
v 0.05196923 0.02097393 -0.00474099
v 0.05270797 0.02111627 -0.00242830
v 0.05143245 0.02238961 -0.00459741
v 0.05199580 0.02238961 -0.00296416
v 0.01181707 0.05525407 -0.00242830
v 0.01210406 0.05502325 -0.00304108
v 0.01269930 0.05450007 -0.00431281
v 0.01328922 0.05393457 -0.00558197
v 0.01387383 0.05331521 -0.00684601
v 0.01260895 0.05336907 -0.00743828
v 0.01319887 0.05263430 -0.00869975
v 0.01192336 0.05261507 -0.00929459
v 0.01066910 0.05254967 -0.00989200
v 0.00934575 0.05253428 -0.01033043
v 0.00866017 0.05264584 -0.01033043
v 0.00762381 0.05279972 -0.01033043
v 0.00812870 0.05229962 -0.01107142
v 0.00660871 0.05218421 -0.01160985
v 0.00658214 0.05287666 -0.01045094
v 0.00499837 0.05271124 -0.01098681
v 0.00188930 0.05293052 -0.01092527
v 0.00160763 0.05326905 -0.01033043
v 0.00372817 0.05244965 -0.01158421
v 0.00006107 0.05328828 -0.01033043
v -0.00016746 0.05338061 -0.01016121
v -0.00016746 0.05353833 -0.00986123
v -0.00016746 0.05328444 -0.01033043
v -0.00016215 0.04477884 -0.01966839
v -0.00016215 0.04337855 -0.02060680
v -0.00016215 0.04292076 -0.02088628
v -0.00016215 0.04197826 -0.02146060
v -0.00016215 0.04106269 -0.02196571
v -0.00016215 0.04057412 -0.02222979
v 0.00096987 0.04058182 -0.02222723
v 0.00250580 0.04057412 -0.02220415
v 0.00077854 0.02790613 -0.02862176
v 0.02128245 0.01802717 -0.02862176
v 0.03186392 0.02518634 -0.02225030
v 0.03333607 0.02378989 -0.02209134
v 0.03348488 0.02238576 -0.02241953
v 0.03477634 0.02238961 -0.02187597
v 0.03491453 0.02098932 -0.02217851
v 0.03504207 0.01958903 -0.02245542
v 0.03645046 0.01818874 -0.02215544
v 0.03653018 0.01716161 -0.02232722
v 0.04975834 0.01716161 -0.01189445
v 0.04895051 0.01817720 -0.01254314
v 0.04930659 0.01888504 -0.01164575
v 0.04986463 0.01818489 -0.01119449
v 0.05005064 0.01912355 -0.01033043
v 0.05051301 0.01958903 -0.00925870
v 0.05131552 0.01958518 -0.00768955
v 0.05026854 0.02103933 -0.00863309
v 0.05104979 0.02113550 -0.00689472
v 0.05146965 0.02125091 -0.00575376
v 0.05221370 0.02228574 -0.00242830
v 0.05125175 0.02379759 -0.00332056
v 0.05062994 0.02259350 -0.00642552
v 0.05048644 0.02375912 -0.00549993
v 0.05186825 0.02308975 -0.00242830
v 0.01340083 0.05490785 -0.00242830
v 0.01395887 0.05439620 -0.00371797
v 0.01454879 0.05382685 -0.00498200
v 0.01514403 0.05320365 -0.00625373
v 0.01573396 0.05250350 -0.00752289
v 0.01449565 0.05264200 -0.00800235
v 0.01252923 0.05177643 -0.01057914
v 0.01506432 0.05177643 -0.00938433
v 0.01378880 0.05179952 -0.00997917
v 0.01087106 0.05226115 -0.01033043
v 0.00951582 0.05231501 -0.01067913
v 0.00972841 0.05164564 -0.01174062
v 0.00876646 0.05153407 -0.01217392
v 0.00768227 0.05117246 -0.01294568
v 0.00649710 0.05151484 -0.01265339
v 0.00579557 0.05192646 -0.01213034
v 0.00246329 0.05214574 -0.01217905
v 0.00060316 0.05259198 -0.01149960
v 0.00423838 0.05163025 -0.01277646
v -0.00016215 0.05275741 -0.01122269
v 0.00005044 0.05328828 -0.01033043
v -0.00016215 0.05237271 -0.01185343
v -0.00016215 0.05209957 -0.01227648
v -0.00016215 0.05137250 -0.01335591
v -0.00016215 0.05121478 -0.01356359
v -0.00016215 0.05060696 -0.01434560
v -0.00016215 0.05016841 -0.01486865
v -0.00016215 0.04962984 -0.01545836
v -0.00016215 0.04864502 -0.01647369
v -0.00016215 0.04741784 -0.01759671
v -0.00016215 0.04687927 -0.01805566
v -0.00016215 0.04622913 -0.01858896
v 0.00083701 0.04617528 -0.01862486
v 0.00132064 0.04477499 -0.01965557
v 0.00022050 0.04337855 -0.02060937
v 0.00061379 0.04197826 -0.02146060
v 0.00215504 0.04197441 -0.02143753
v 0.00366440 0.04198211 -0.02137856
v 0.00402579 0.04057028 -0.02213749
v 0.00552452 0.04058182 -0.02204775
v 0.00241545 0.02768685 -0.02862176
v 0.02045868 0.01888504 -0.02862176
v 0.02886645 0.02799076 -0.02245799
v 0.03019512 0.02799076 -0.02197852
v 0.03037581 0.02658662 -0.02238107
v 0.03168322 0.02659047 -0.02187084
v 0.03316600 0.02518634 -0.02172726
v 0.03461690 0.02378989 -0.02153496
v 0.03604123 0.02238576 -0.02128369
v 0.03619004 0.02098932 -0.02159393
v 0.03632290 0.01958903 -0.02188878
v 0.03771003 0.01818489 -0.02155034
v 0.03746024 0.01716161 -0.02190160
v 0.04908869 0.01716161 -0.01284056
v 0.04873792 0.01958903 -0.01208162
v 0.04883890 0.01716161 -0.01317643
v 0.04857317 0.01748860 -0.01336873
v 0.04779192 0.01958903 -0.01335591
v 0.04964672 0.01960057 -0.01069708
v 0.04986994 0.01960057 -0.01033043
v 0.04948197 0.02059693 -0.01033043
v 0.04932254 0.02099316 -0.01033043
v 0.04940757 0.02099701 -0.01018172
v 0.05061399 0.02145864 -0.00756904
v 0.04997092 0.02239345 -0.00807671
v 0.04913652 0.02238961 -0.00961765
v 0.05155469 0.02379759 -0.00242830
v 0.05044392 0.02519788 -0.00369746
v 0.04971050 0.02398609 -0.00711522
v 0.04935442 0.02489782 -0.00689472
v 0.05000812 0.02518249 -0.00489227
v 0.01443187 0.05465010 -0.00242830
v 0.01491019 0.05452700 -0.00242830
v 0.01522376 0.05424233 -0.00312313
v 0.01581368 0.05366143 -0.00438973
v 0.01641423 0.05302669 -0.00566402
v 0.01701479 0.05235348 -0.00693831
v 0.01632389 0.05171488 -0.00878949
v 0.01759940 0.05160332 -0.00819465
v 0.01330517 0.05073391 -0.01195086
v 0.01125903 0.05171104 -0.01116372
v 0.01395887 0.05154562 -0.01033043
v 0.01438936 0.05088394 -0.01124833
v 0.01692444 0.05081854 -0.01006378
v 0.01565424 0.05086471 -0.01065606
v 0.01187553 0.05082624 -0.01234058
v 0.00942016 0.05103012 -0.01277902
v 0.00909065 0.05054926 -0.01350975
v 0.00738465 0.05065312 -0.01371487
v 0.00524816 0.05125325 -0.01319438
v 0.00305321 0.05123786 -0.01343283
v 0.00119309 0.05178413 -0.01276364
v 0.00423306 0.05094549 -0.01373025
v -0.00009306 0.05135327 -0.01338412
v 0.00185210 0.05092626 -0.01391229
v 0.00051813 0.05038384 -0.01461995
v 0.00144819 0.05007224 -0.01497377
v 0.00113994 0.04917205 -0.01594295
v 0.00078917 0.04832572 -0.01678906
v 0.00038526 0.04735244 -0.01766850
v 0.00224539 0.04629838 -0.01850435
v 0.00284594 0.04477499 -0.01961455
v 0.00175644 0.04337855 -0.02059142
v 0.00327643 0.04337855 -0.02053758
v 0.00478047 0.04338624 -0.02045809
v 0.00516844 0.04197826 -0.02128882
v 0.00701794 0.04058566 -0.02194263
v 0.00733682 0.03917384 -0.02261439
v 0.00554578 0.02719444 -0.02862176
v 0.01954456 0.01980446 -0.02862176
v 0.02867513 0.02939105 -0.02204262
v 0.02998253 0.02939105 -0.02153496
v 0.03149189 0.02799076 -0.02145548
v 0.03297468 0.02659047 -0.02132471
v 0.03444152 0.02518634 -0.02115549
v 0.03587647 0.02378989 -0.02092730
v 0.03729017 0.02238576 -0.02064014
v 0.03744430 0.02098932 -0.02097089
v 0.03758248 0.01958903 -0.02127087
v 0.03780038 0.01716161 -0.02173751
v 0.03895897 0.01818874 -0.02090422
v 0.03904932 0.01716161 -0.02109908
v 0.03871450 0.01716161 -0.02127087
v 0.04850408 0.02098932 -0.01158678
v 0.04756870 0.02098932 -0.01288414
v 0.04837653 0.01716161 -0.01374563
v 0.04798856 0.01818874 -0.01378153
v 0.04675556 0.01949670 -0.01460456
v 0.04658018 0.02098932 -0.01407895
v 0.04825429 0.02238576 -0.01104065
v 0.04921624 0.02123552 -0.01033043
v 0.04884421 0.02378605 -0.00899974
v 0.04870072 0.02238961 -0.01033043
v 0.04814268 0.02360524 -0.01033043
v 0.05087972 0.02518634 -0.00242830
v 0.04961484 0.02660201 -0.00398462
v 0.05025260 0.02642120 -0.00242830
v 0.04863163 0.02530559 -0.00799210
v 0.04828086 0.02668665 -0.00720753
v 0.04871135 0.02687899 -0.00598964
v 0.01670654 0.05399612 -0.00242830
v 0.01710514 0.05343832 -0.00381540
v 0.01768975 0.05281511 -0.00507431
v 0.01826905 0.05216113 -0.00634091
v 0.01885897 0.05144175 -0.00760494
v 0.01819464 0.05067621 -0.00956124
v 0.01945421 0.05060696 -0.00887154
v 0.01302881 0.05024919 -0.01277389
v 0.01472949 0.04993759 -0.01254826
v 0.01647801 0.04979141 -0.01195855
v 0.01701479 0.05063004 -0.01033043
v 0.01686067 0.05068005 -0.01033043
v 0.01857730 0.05009147 -0.01033043
v 0.01744528 0.04973370 -0.01156114
v 0.01124840 0.05022611 -0.01338412
v 0.01078602 0.05071468 -0.01284312
v 0.00794269 0.05004915 -0.01436611
v 0.01050966 0.04994528 -0.01394050
v 0.00674158 0.04980679 -0.01483788
v 0.00507278 0.05046462 -0.01424561
v 0.00612508 0.05079162 -0.01370461
v 0.00393013 0.05027612 -0.01458405
v 0.00237825 0.04974909 -0.01529171
v 0.00329769 0.04937978 -0.01564553
v 0.00290440 0.04854500 -0.01650959
v 0.00183616 0.04758326 -0.01744800
v 0.00335615 0.04757557 -0.01738903
v 0.00387698 0.04618297 -0.01852230
v 0.00434999 0.04477884 -0.01953763
v 0.00585935 0.04477499 -0.01943764
v 0.00627920 0.04338239 -0.02035041
v 0.00666717 0.04197826 -0.02118113
v 0.00814465 0.04197826 -0.02105037
v 0.00850073 0.04057412 -0.02180674
v 0.00881960 0.03917384 -0.02247593
v 0.00709766 0.02689438 -0.02862176
v 0.01884303 0.02045459 -0.02862176
v 0.02734647 0.02939105 -0.02250670
v 0.02846254 0.03078749 -0.02158367
v 0.02713919 0.03078749 -0.02206057
v 0.02975931 0.03078749 -0.02105806
v 0.03127399 0.02939105 -0.02099140
v 0.03277272 0.02799076 -0.02089140
v 0.03424488 0.02658662 -0.02073500
v 0.03569046 0.02518634 -0.02052732
v 0.03711479 0.02378989 -0.02026323
v 0.03851254 0.02238961 -0.01994786
v 0.03867729 0.02098932 -0.02030426
v 0.03882079 0.01958903 -0.02061706
v 0.03994749 0.01716161 -0.02060168
v 0.04018666 0.01818874 -0.02021965
v 0.04732423 0.02238576 -0.01236109
v 0.04627193 0.02264350 -0.01352770
v 0.04807359 0.01716161 -0.01411228
v 0.04697346 0.01818489 -0.01492762
v 0.04574577 0.01958903 -0.01558143
v 0.04554382 0.02098932 -0.01516864
v 0.04533655 0.02238576 -0.01471225
v 0.04798324 0.02378989 -0.01044581
v 0.04713290 0.02373989 -0.01170985
v 0.04805233 0.02379374 -0.01033043
v 0.04767499 0.02519018 -0.00978944
v 0.05016225 0.02659432 -0.00242830
v 0.04845093 0.02821773 -0.00475894
v 0.04931722 0.02799076 -0.00267187
v 0.04732954 0.02658662 -0.00907409
v 0.04712227 0.02804846 -0.00795364
v 0.04782912 0.02816387 -0.00638193
v 0.01910345 0.05322288 -0.00242830
v 0.01962960 0.05299207 -0.00262316
v 0.01895464 0.05259583 -0.00448716
v 0.01953925 0.05194954 -0.00574350
v 0.02012917 0.05123401 -0.00701010
v 0.02102204 0.05035306 -0.00816645
v 0.02005477 0.04964522 -0.01014839
v 0.01966680 0.04968754 -0.01033043
v 0.02121868 0.04960675 -0.00940741
v 0.01260895 0.04966446 -0.01367897
v 0.01382600 0.04993759 -0.01290978
v 0.01457537 0.04932208 -0.01343796
v 0.01612725 0.04937594 -0.01273031
v 0.01784919 0.04888737 -0.01258159
v 0.01878457 0.04977217 -0.01074323
v 0.01937449 0.04872580 -0.01200470
v 0.01002603 0.04933362 -0.01477122
v 0.00830940 0.04905664 -0.01541990
v 0.01120057 0.04933362 -0.01447636
v 0.00721990 0.04879505 -0.01585578
v 0.00581152 0.04944903 -0.01533016
v 0.00423838 0.04898740 -0.01597116
v 0.00523222 0.04844497 -0.01641472
v 0.00462635 0.04757942 -0.01729160
v 0.00571054 0.04622529 -0.01835308
v 0.00741654 0.04470190 -0.01932995
v 0.00775668 0.04337470 -0.02021195
v 0.00961149 0.04197826 -0.02087858
v 0.00996225 0.04057412 -0.02162726
v 0.01027050 0.03918922 -0.02230415
v 0.00831471 0.02663279 -0.02862176
v 0.01788639 0.02126630 -0.02862176
v 0.02580522 0.03078749 -0.02249645
v 0.02822338 0.03219163 -0.02107088
v 0.02691066 0.03219163 -0.02156316
v 0.02557669 0.03219547 -0.02201442
v 0.03104015 0.03079134 -0.02049143
v 0.02950953 0.03218393 -0.02052219
v 0.03254419 0.02939105 -0.02040938
v 0.03403229 0.02799076 -0.02027605
v 0.03548851 0.02659047 -0.02008375
v 0.03691283 0.02518634 -0.01984018
v 0.03832653 0.02378989 -0.01955045
v 0.03971365 0.02238576 -0.01921714
v 0.03988904 0.02098932 -0.01959404
v 0.04004316 0.01958903 -0.01992479
v 0.04027169 0.01716161 -0.02041707
v 0.04138776 0.01818874 -0.01948379
v 0.04115923 0.01716161 -0.01988889
v 0.04661206 0.02329364 -0.01270466
v 0.04513991 0.02399378 -0.01403023
v 0.04601682 0.02365140 -0.01320720
v 0.04776534 0.01716161 -0.01445842
v 0.04710101 0.01716161 -0.01518915
v 0.04596368 0.01818874 -0.01591475
v 0.04465628 0.01958903 -0.01656343
v 0.04447026 0.02098932 -0.01616858
v 0.04427362 0.02238961 -0.01573783
v 0.04405040 0.02378989 -0.01527119
v 0.04663332 0.02517095 -0.01135858
v 0.04645263 0.02439771 -0.01216623
v 0.04668647 0.02633273 -0.01033043
v 0.04639948 0.02684437 -0.01033043
v 0.04983806 0.02718290 -0.00242830
v 0.04833932 0.02920255 -0.00347952
v 0.04761122 0.02905637 -0.00563325
v 0.04863694 0.02929103 -0.00242830
v 0.04925344 0.02823697 -0.00242830
v 0.04610186 0.02799461 -0.00972534
v 0.04673962 0.02941028 -0.00707933
v 0.04572451 0.02939490 -0.00892795
v 0.01953925 0.05308055 -0.00242830
v 0.02002820 0.05290744 -0.00242830
v 0.02074036 0.05264969 -0.00242830
v 0.02022484 0.05236502 -0.00389232
v 0.02080945 0.05169949 -0.00515635
v 0.02139937 0.05098011 -0.00642552
v 0.02176077 0.05017610 -0.00788698
v 0.02258454 0.04924514 -0.00896128
v 0.02015043 0.04949904 -0.01033043
v 0.02295657 0.04827956 -0.01033043
v 0.02191490 0.04845267 -0.01083041
v 0.01340083 0.04919129 -0.01401998
v 0.01439467 0.04856423 -0.01443534
v 0.01540977 0.04864502 -0.01395844
v 0.01683409 0.04873734 -0.01324566
v 0.01757814 0.04820647 -0.01358154
v 0.02020358 0.04735244 -0.01339950
v 0.02068721 0.04864502 -0.01133551
v 0.02123462 0.04747554 -0.01267903
v 0.01160979 0.04850653 -0.01531478
v 0.01020673 0.04833726 -0.01580450
v 0.00922883 0.04776407 -0.01655830
v 0.01261426 0.04842959 -0.01513274
v 0.00749094 0.04749478 -0.01706340
v 0.00611976 0.04848344 -0.01628396
v 0.00657151 0.04746401 -0.01719673
v 0.00657682 0.04634454 -0.01816847
v 0.00877709 0.04478653 -0.01910176
v 0.00922352 0.04338239 -0.02003248
v 0.01105707 0.04197826 -0.02066321
v 0.01141315 0.04057412 -0.02141958
v 0.01172672 0.03918922 -0.02210416
v 0.00928729 0.02639812 -0.02862176
v 0.01639829 0.02250501 -0.02862176
v 0.02423740 0.03219163 -0.02242978
v 0.02666088 0.03358807 -0.02102217
v 0.02795765 0.03358807 -0.02051194
v 0.02533221 0.03359961 -0.02148881
v 0.02400355 0.03359192 -0.02192212
v 0.03078504 0.03219547 -0.01994274
v 0.03230503 0.03078749 -0.01989146
v 0.02923848 0.03359192 -0.01994786
v 0.03379845 0.02939105 -0.01978121
v 0.03526529 0.02799076 -0.01960942
v 0.03670556 0.02659047 -0.01938636
v 0.03811926 0.02519018 -0.01911714
v 0.03952764 0.02378989 -0.01880690
v 0.04089882 0.02238576 -0.01844795
v 0.04107951 0.02098932 -0.01883254
v 0.04123896 0.01958903 -0.01917611
v 0.04147812 0.01716161 -0.01969147
v 0.04255699 0.01818874 -0.01869152
v 0.04234440 0.01716161 -0.01911970
v 0.04545347 0.02457852 -0.01329181
v 0.04397600 0.02514017 -0.01460200
v 0.04475725 0.02504785 -0.01380717
v 0.04682465 0.01716161 -0.01545580
v 0.04604340 0.01716161 -0.01619679
v 0.04482103 0.01818874 -0.01691982
v 0.04354020 0.01958903 -0.01748902
v 0.04336481 0.02098932 -0.01711212
v 0.04317349 0.02238576 -0.01669419
v 0.04296090 0.02378989 -0.01624806
v 0.04273769 0.02518634 -0.01576091
v 0.04645263 0.02659817 -0.01045863
v 0.04588927 0.02529790 -0.01225597
v 0.04563417 0.02633657 -0.01180984
v 0.04518774 0.02799461 -0.01107655
v 0.04569263 0.02799845 -0.01033043
v 0.04686717 0.03079134 -0.00473330
v 0.04728171 0.03079518 -0.00362567
v 0.04770157 0.03079518 -0.00242830
v 0.04808422 0.03018737 -0.00242830
v 0.04628255 0.03045281 -0.00661525
v 0.04483166 0.02939874 -0.01033043
v 0.04555976 0.03063361 -0.00779724
v 0.04443837 0.03079134 -0.00948176
v 0.02108050 0.05252274 -0.00242830
v 0.02148441 0.05209188 -0.00329235
v 0.02207965 0.05139943 -0.00456664
v 0.02266958 0.05067621 -0.00583324
v 0.02319573 0.04997222 -0.00695113
v 0.02327013 0.04987219 -0.00710240
v 0.02320104 0.04935286 -0.00821773
v 0.02319573 0.04911435 -0.00867668
v 0.02462537 0.04797949 -0.00948433
v 0.02319573 0.04823724 -0.01020993
v 0.02372719 0.04697929 -0.01176882
v 0.02487516 0.04732936 -0.01033043
v 0.02504522 0.04687927 -0.01090733
v 0.02279713 0.04718703 -0.01210983
v 0.01587746 0.04766405 -0.01491480
v 0.01463914 0.04774099 -0.01526863
v 0.01655773 0.04814107 -0.01409690
v 0.01869422 0.04754864 -0.01386614
v 0.01965617 0.04687542 -0.01421484
v 0.02167042 0.04619451 -0.01402254
v 0.02308943 0.04608295 -0.01335078
v 0.01320950 0.04747554 -0.01596603
v 0.01178518 0.04791410 -0.01587885
v 0.01061064 0.04763712 -0.01640447
v 0.01173203 0.04692928 -0.01683778
v 0.01005792 0.04625991 -0.01774798
v 0.00829877 0.04618297 -0.01807361
v 0.01022799 0.04477499 -0.01889151
v 0.01066379 0.04337470 -0.01981967
v 0.01248140 0.04197826 -0.02040938
v 0.01284279 0.04057412 -0.02118113
v 0.01317230 0.03917768 -0.02188622
v 0.01346992 0.03777355 -0.02251696
v 0.01174266 0.02543639 -0.02862176
v 0.01489956 0.03778124 -0.02227851
v 0.01483578 0.02362448 -0.02862176
v 0.02264832 0.03358807 -0.02232722
v 0.02507180 0.03499220 -0.02091448
v 0.02637920 0.03499220 -0.02042220
v 0.02767597 0.03499220 -0.01989402
v 0.02374313 0.03498836 -0.02136317
v 0.02239322 0.03499220 -0.02179135
v 0.03050868 0.03359192 -0.01935046
v 0.03204462 0.03219547 -0.01932995
v 0.03355397 0.03078749 -0.01925303
v 0.02895149 0.03498836 -0.01932226
v 0.03503144 0.02939105 -0.01910432
v 0.03647703 0.02799076 -0.01889664
v 0.03790667 0.02659047 -0.01865306
v 0.03931505 0.02519018 -0.01836846
v 0.04070218 0.02378989 -0.01802489
v 0.04204678 0.02238576 -0.01760440
v 0.04223811 0.02098932 -0.01800694
v 0.04240818 0.01958903 -0.01836590
v 0.04265797 0.01716161 -0.01890689
v 0.04370495 0.01818874 -0.01783516
v 0.04381125 0.01716161 -0.01806335
v 0.04349768 0.01716161 -0.01829411
v 0.04519305 0.02578646 -0.01278928
v 0.04432145 0.02571337 -0.01387640
v 0.04248258 0.02659047 -0.01522248
v 0.04353488 0.02658278 -0.01417382
v 0.04524620 0.01716161 -0.01689418
v 0.04493795 0.01716161 -0.01716340
v 0.04185014 0.02378989 -0.01717365
v 0.04162692 0.02518634 -0.01669932
v 0.04138776 0.02659047 -0.01617884
v 0.04456061 0.02666356 -0.01293542
v 0.04422579 0.02799076 -0.01235084
v 0.04385908 0.02943721 -0.01163806
v 0.04634101 0.03219163 -0.00362567
v 0.04561291 0.03220702 -0.00542301
v 0.04684591 0.03208006 -0.00242830
v 0.04484760 0.03218393 -0.00705625
v 0.04352425 0.03079134 -0.01083297
v 0.04386971 0.03079134 -0.01033043
v 0.04403446 0.03219163 -0.00849976
v 0.04330104 0.03157611 -0.01033043
v 0.04310971 0.03219932 -0.00993046
v 0.02180329 0.05222653 -0.00242830
v 0.02263237 0.05187645 -0.00242830
v 0.02275993 0.05173411 -0.00270520
v 0.02320104 0.05114553 -0.00392052
v 0.02319573 0.05110322 -0.00405385
v 0.02319573 0.05053772 -0.00558966
v 0.02320104 0.05035691 -0.00602554
v 0.02454033 0.04954136 -0.00650756
v 0.02386006 0.04896816 -0.00836644
v 0.02510368 0.04860270 -0.00790236
v 0.02572018 0.04765251 -0.00904845
v 0.02537473 0.04582905 -0.01215341
v 0.02440747 0.04609834 -0.01249955
v 0.02625165 0.04657921 -0.01033043
v 0.01571270 0.04687927 -0.01578655
v 0.01736024 0.04735244 -0.01466610
v 0.01731773 0.04688312 -0.01520197
v 0.01434684 0.04691774 -0.01618653
v 0.02082539 0.04610219 -0.01453277
v 0.02044274 0.04554053 -0.01530453
v 0.01884834 0.04620221 -0.01529171
v 0.02241979 0.04495964 -0.01497121
v 0.02349866 0.04462496 -0.01476609
v 0.02482732 0.04456341 -0.01406100
v 0.01238042 0.04638686 -0.01717878
v 0.01396950 0.04611757 -0.01701982
v 0.01129623 0.04598293 -0.01775568
v 0.01151413 0.04503658 -0.01846589
v 0.01208280 0.04337855 -0.01956071
v 0.01390041 0.04197826 -0.02012991
v 0.01426180 0.04057412 -0.02091448
v 0.01459663 0.03917768 -0.02163495
v 0.01247608 0.02505554 -0.02862176
v 0.01631857 0.03777355 -0.02199904
v 0.01658962 0.03638095 -0.02258618
v 0.01799269 0.03638095 -0.02229133
v 0.01965086 0.03499220 -0.02252978
v 0.01395887 0.02420152 -0.02862176
v 0.02127714 0.03358807 -0.02270669
v 0.02102735 0.03499220 -0.02218108
v 0.02478481 0.03638095 -0.02028887
v 0.02345614 0.03638480 -0.02075551
v 0.02608158 0.03638095 -0.01978121
v 0.02736773 0.03638480 -0.01923252
v 0.02211685 0.03638095 -0.02119395
v 0.02076693 0.03638095 -0.02160419
v 0.03021106 0.03499220 -0.01871460
v 0.03175762 0.03359192 -0.01871973
v 0.03328293 0.03219163 -0.01867614
v 0.03477634 0.03079134 -0.01856332
v 0.02863793 0.03638095 -0.01865306
v 0.03624319 0.02939105 -0.01839154
v 0.03767814 0.02799076 -0.01815565
v 0.03909184 0.02659047 -0.01788644
v 0.04048959 0.02518634 -0.01756594
v 0.04463502 0.01716161 -0.01740954
v 0.04322132 0.02801769 -0.01354308
v 0.04112735 0.02799461 -0.01561476
v 0.04220622 0.02799076 -0.01463020
v 0.04025574 0.02658662 -0.01706597
v 0.04000064 0.02799076 -0.01652754
v 0.04357208 0.02870629 -0.01260723
v 0.04292370 0.02939105 -0.01285338
v 0.04256761 0.03078364 -0.01210470
v 0.04654829 0.03251862 -0.00242830
v 0.04509739 0.03359192 -0.00423589
v 0.04592116 0.03326108 -0.00271033
v 0.04433208 0.03359192 -0.00594349
v 0.04419921 0.03289177 -0.00728444
v 0.04217433 0.03219163 -0.01124321
v 0.04352957 0.03357653 -0.00753059
v 0.04266328 0.03359192 -0.00895359
v 0.04282803 0.03219547 -0.01033043
v 0.04175448 0.03355345 -0.01033043
v 0.02320104 0.05162255 -0.00242830
v 0.02319573 0.05148791 -0.00286417
v 0.02320104 0.05123786 -0.00363592
v 0.02462537 0.05066851 -0.00338465
v 0.02336048 0.05105320 -0.00397949
v 0.02394509 0.05033767 -0.00524097
v 0.02575207 0.04915282 -0.00598195
v 0.02640046 0.04826032 -0.00718701
v 0.02671402 0.04731397 -0.00863822
v 0.02687878 0.04514814 -0.01187138
v 0.02601780 0.04477499 -0.01302260
v 0.02758031 0.04615220 -0.00973303
v 0.02785136 0.04560208 -0.01033043
v 0.02814898 0.04497888 -0.01099194
v 0.01815744 0.04602525 -0.01575065
v 0.01665340 0.04620221 -0.01611474
v 0.01545228 0.04598678 -0.01671727
v 0.01965086 0.04494041 -0.01620960
v 0.02106987 0.04482500 -0.01572245
v 0.02223377 0.04411716 -0.01587372
v 0.02391852 0.04357090 -0.01557118
v 0.02520998 0.04361321 -0.01483788
v 0.02628354 0.04348626 -0.01430202
v 0.01474012 0.04485578 -0.01788131
v 0.01305538 0.04477884 -0.01833513
v 0.01562767 0.04499427 -0.01752492
v 0.01349649 0.04338239 -0.01927354
v 0.01529816 0.04197826 -0.01981967
v 0.01566487 0.04057028 -0.02060680
v 0.01600501 0.03918922 -0.02133753
v 0.01305538 0.02473240 -0.02862176
v 0.01771632 0.03777355 -0.02168367
v 0.01939044 0.03638095 -0.02196571
v 0.01339552 0.02454005 -0.02862176
v 0.02447124 0.03777355 -0.01961199
v 0.02314789 0.03778509 -0.02009145
v 0.02181392 0.03778124 -0.02054014
v 0.02576270 0.03778124 -0.01909150
v 0.02703822 0.03778124 -0.01852743
v 0.02046400 0.03778124 -0.02096063
v 0.01908750 0.03778509 -0.02133753
v 0.02988687 0.03638095 -0.01802489
v 0.03145469 0.03498836 -0.01806591
v 0.03299062 0.03358807 -0.01804797
v 0.03449998 0.03219163 -0.01797105
v 0.03598277 0.03079134 -0.01783516
v 0.02829779 0.03776970 -0.01792746
v 0.03742835 0.02939105 -0.01763261
v 0.03885268 0.02799076 -0.01737108
v 0.04189797 0.02939105 -0.01397126
v 0.04090945 0.02917562 -0.01506864
v 0.03972959 0.02939105 -0.01593526
v 0.03859226 0.02939490 -0.01681470
v 0.04156315 0.03079518 -0.01324823
v 0.04118581 0.03218393 -0.01245340
v 0.04596899 0.03331494 -0.00242830
v 0.04465628 0.03464982 -0.00330517
v 0.04377936 0.03498836 -0.00473843
v 0.04486886 0.03477293 -0.00242830
v 0.04572451 0.03364577 -0.00242830
v 0.04281209 0.03541537 -0.00600246
v 0.04075000 0.03361884 -0.01158934
v 0.04215307 0.03498451 -0.00788698
v 0.04127616 0.03498451 -0.00929716
v 0.04034078 0.03499605 -0.01061760
v 0.04054805 0.03499220 -0.01033043
v 0.02417894 0.05116861 -0.00242830
v 0.02572018 0.05044154 -0.00242830
v 0.02588494 0.05024919 -0.00278725
v 0.02520466 0.04994528 -0.00464613
v 0.02648018 0.04950674 -0.00406154
v 0.02706479 0.04868733 -0.00533070
v 0.02765471 0.04779869 -0.00659474
v 0.02952016 0.04636378 -0.00727162
v 0.02885051 0.04573288 -0.00914332
v 0.02916939 0.04407100 -0.01137140
v 0.02789919 0.04430566 -0.01214316
v 0.02902589 0.04325160 -0.01257134
v 0.02802674 0.04330161 -0.01328412
v 0.02947764 0.04458264 -0.01033043
v 0.02956267 0.04452879 -0.01033043
v 0.01761003 0.04548283 -0.01647369
v 0.01723269 0.04476729 -0.01723263
v 0.02070847 0.04408638 -0.01656343
v 0.01949673 0.04409793 -0.01703007
v 0.01835940 0.04464804 -0.01696085
v 0.02283964 0.04320928 -0.01641985
v 0.02585836 0.04197826 -0.01599167
v 0.02444467 0.04210521 -0.01660958
v 0.02707010 0.04197441 -0.01529940
v 0.02826590 0.04197826 -0.01454303
v 0.01627074 0.04338239 -0.01860178
v 0.01489956 0.04337085 -0.01895817
v 0.01792360 0.04344394 -0.01807361
v 0.01667465 0.04197826 -0.01946840
v 0.01705731 0.04057028 -0.02027092
v 0.01739745 0.03918153 -0.02100678
v 0.02412579 0.03917384 -0.01887869
v 0.02280776 0.03917768 -0.01937097
v 0.02148441 0.03917768 -0.01983761
v 0.02013980 0.03917384 -0.02026323
v 0.02541193 0.03917768 -0.01834539
v 0.02668214 0.03917768 -0.01775824
v 0.01876862 0.03917768 -0.02064783
v 0.02954141 0.03777355 -0.01727365
v 0.03111986 0.03638480 -0.01734801
v 0.03267174 0.03498836 -0.01736083
v 0.03419705 0.03358807 -0.01732236
v 0.03569578 0.03219547 -0.01722237
v 0.03715730 0.03078749 -0.01705571
v 0.02792576 0.03918153 -0.01712494
v 0.04050553 0.03067593 -0.01439945
v 0.03942135 0.03078749 -0.01528401
v 0.03830527 0.03078749 -0.01620191
v 0.04018134 0.03219547 -0.01353283
v 0.04048427 0.03291101 -0.01258929
v 0.04317880 0.03602703 -0.00407949
v 0.04394411 0.03591162 -0.00242830
v 0.04443306 0.03532689 -0.00242830
v 0.04186608 0.03622707 -0.00643577
v 0.04223279 0.03683489 -0.00456408
v 0.03978274 0.03357653 -0.01275594
v 0.03936288 0.03497297 -0.01186625
v 0.04075532 0.03638865 -0.00818440
v 0.03985715 0.03637710 -0.00958176
v 0.04021323 0.03537305 -0.01033043
v 0.03889520 0.03633479 -0.01090220
v 0.02601249 0.05029536 -0.00242830
v 0.02665556 0.04997222 -0.00242830
v 0.02725080 0.04964907 -0.00242830
v 0.02773975 0.04901048 -0.00347183
v 0.02833499 0.04819108 -0.00474099
v 0.03017917 0.04684080 -0.00540762
v 0.02891960 0.04732552 -0.00600503
v 0.03058309 0.04627530 -0.00609477
v 0.03058309 0.04590984 -0.00686652
v 0.03058309 0.04552130 -0.00758699
v 0.03058309 0.04512506 -0.00832029
v 0.03018980 0.04527124 -0.00850489
v 0.03058309 0.04439029 -0.00950484
v 0.03000910 0.04330161 -0.01166370
v 0.03128994 0.04284767 -0.01108680
v 0.03027484 0.04210521 -0.01293286
v 0.02940323 0.04221292 -0.01349180
v 0.03070001 0.04412101 -0.00980739
v 0.03094448 0.04360167 -0.01033043
v 0.01900779 0.04340548 -0.01775568
v 0.02182455 0.04321698 -0.01685316
v 0.02006540 0.04337470 -0.01741210
v 0.02334985 0.04197441 -0.01720955
v 0.02752185 0.04058182 -0.01625319
v 0.02628885 0.04057412 -0.01691726
v 0.02503991 0.04057412 -0.01752492
v 0.02873359 0.04058182 -0.01554297
v 0.02991876 0.04057028 -0.01477891
v 0.01947016 0.04212444 -0.01857102
v 0.01804583 0.04197826 -0.01909150
v 0.01842849 0.04058182 -0.01990171
v 0.02245167 0.04057028 -0.01859665
v 0.02376439 0.04061259 -0.01805053
v 0.02112833 0.04057412 -0.01908125
v 0.01978904 0.04057412 -0.01950686
v 0.02915345 0.03917768 -0.01644549
v 0.03075847 0.03777355 -0.01656856
v 0.03232629 0.03638095 -0.01662240
v 0.03386754 0.03499220 -0.01661984
v 0.03538221 0.03358807 -0.01655318
v 0.03685968 0.03218393 -0.01641472
v 0.03909184 0.03219547 -0.01457380
v 0.03799171 0.03219163 -0.01552759
v 0.03874107 0.03359192 -0.01380717
v 0.04236034 0.03709264 -0.00376669
v 0.04279083 0.03716188 -0.00262572
v 0.04312034 0.03687336 -0.00242830
v 0.04017603 0.03780432 -0.00694087
v 0.04084567 0.03808130 -0.00508200
v 0.03834779 0.03500759 -0.01295593
v 0.03863478 0.03563464 -0.01200727
v 0.03925659 0.03780817 -0.00845874
v 0.03900680 0.03668101 -0.01033043
v 0.03912904 0.03708494 -0.00965611
v 0.03790135 0.03637710 -0.01203034
v 0.03741241 0.03778509 -0.01096373
v 0.03839562 0.03778124 -0.00973816
v 0.02811709 0.04916051 -0.00242830
v 0.02900995 0.04850268 -0.00287699
v 0.02959988 0.04769097 -0.00414615
v 0.03058309 0.04726396 -0.00368977
v 0.03146000 0.04625607 -0.00482047
v 0.03094448 0.04575211 -0.00672550
v 0.03204993 0.04529817 -0.00608707
v 0.03136965 0.04481731 -0.00794338
v 0.03226783 0.04345549 -0.00914588
v 0.03165664 0.04197057 -0.01188676
v 0.03284181 0.04223985 -0.01033043
v 0.03107735 0.04057028 -0.01394562
v 0.03248573 0.04047025 -0.01292260
v 0.02074036 0.04197826 -0.01824539
v 0.02191490 0.04222831 -0.01760953
v 0.03035987 0.03917768 -0.01571476
v 0.03153441 0.03917768 -0.01492762
v 0.03194895 0.03778509 -0.01581219
v 0.03350614 0.03638095 -0.01584808
v 0.03504739 0.03498066 -0.01580450
v 0.03651423 0.03359961 -0.01570963
v 0.03764625 0.03359961 -0.01478404
v 0.03728486 0.03502298 -0.01395588
v 0.04161629 0.03817748 -0.00319236
v 0.04269517 0.03734269 -0.00242830
v 0.04185545 0.03824672 -0.00242830
v 0.03868792 0.03905843 -0.00744597
v 0.03958079 0.03913152 -0.00567171
v 0.04025043 0.03932771 -0.00380771
v 0.03687031 0.03638095 -0.01312259
v 0.03799702 0.03935080 -0.00806902
v 0.03640263 0.03777355 -0.01212777
v 0.03664710 0.03848523 -0.01100476
v 0.03681186 0.03884684 -0.01033043
v 0.03693409 0.03914690 -0.00977149
v 0.02879737 0.04877197 -0.00242830
v 0.02995596 0.04808336 -0.00242830
v 0.03034393 0.04784870 -0.00242830
v 0.03058309 0.04752940 -0.00293340
v 0.03087008 0.04713317 -0.00355388
v 0.03214559 0.04646380 -0.00296160
v 0.03274083 0.04557131 -0.00423589
v 0.03331482 0.04463650 -0.00549993
v 0.03286839 0.04402868 -0.00747161
v 0.03362307 0.04375170 -0.00691780
v 0.03294279 0.04327083 -0.00864847
v 0.03308629 0.04061644 -0.01219444
v 0.03363901 0.04200903 -0.00975611
v 0.03393132 0.04135890 -0.01033043
v 0.03428739 0.04057412 -0.01100732
v 0.03268237 0.03917768 -0.01407382
v 0.03408012 0.03988167 -0.01210983
v 0.03364432 0.03932387 -0.01313028
v 0.03310754 0.03779663 -0.01498659
v 0.03465411 0.03638095 -0.01499941
v 0.03541942 0.03568850 -0.01496865
v 0.03616878 0.03499220 -0.01493275
v 0.03690220 0.03430360 -0.01486352
v 0.03579675 0.03640018 -0.01406100
v 0.04075532 0.03940080 -0.00242830
v 0.04119644 0.03894302 -0.00242830
v 0.03814051 0.04012018 -0.00653064
v 0.03898554 0.04033561 -0.00439998
v 0.03967645 0.04043948 -0.00254367
v 0.03535564 0.03778509 -0.01317643
v 0.03636011 0.04041255 -0.00870745
v 0.03740709 0.04052796 -0.00702548
v 0.03487201 0.03916614 -0.01215341
v 0.03589242 0.03917768 -0.01101758
v 0.03647172 0.03916229 -0.01033043
v 0.03537690 0.04050103 -0.00984328
v 0.03058309 0.04769867 -0.00242830
v 0.03127931 0.04723703 -0.00242830
v 0.03233161 0.04649842 -0.00242830
v 0.03327761 0.04580982 -0.00242830
v 0.03401103 0.04484808 -0.00364105
v 0.03189580 0.04681387 -0.00242830
v 0.03458502 0.04392097 -0.00490509
v 0.03444684 0.04252068 -0.00794595
v 0.03544599 0.04264763 -0.00621527
v 0.03489327 0.04159356 -0.00883821
v 0.03558948 0.03995477 -0.01033043
v 0.03345831 0.03847369 -0.01411741
v 0.03424488 0.03778124 -0.01411997
v 0.03991561 0.04024329 -0.00242830
v 0.03721577 0.04121656 -0.00605631
v 0.03769940 0.04127427 -0.00498457
v 0.03839562 0.04140891 -0.00313339
v 0.03962330 0.04053181 -0.00242830
v 0.03592962 0.04171667 -0.00719214
v 0.03561074 0.04112039 -0.00861771
v 0.03444684 0.04492887 -0.00242830
v 0.03527592 0.04408254 -0.00304878
v 0.03585522 0.04313619 -0.00431537
v 0.03643451 0.04198595 -0.00587939
v 0.03712542 0.04231294 -0.00372310
v 0.03807143 0.04196287 -0.00242830
v 0.03498361 0.04451724 -0.00242830
v 0.03655675 0.04327468 -0.00242830
v 0.03759842 0.04237834 -0.00242830
f 1 2 3
f 1 3 4
f 1 4 5
f 1 5 6
f 1 6 13
f 1 13 23
f 1 23 35
f 1 35 52
f 1 52 78
f 1 78 82
f 1 82 109
f 1 109 163
f 1 163 167
f 1 167 234
f 1 234 302
f 1 302 304
f 1 304 370
f 1 370 439
f 1 439 443
f 1 443 442
f 1 442 519
f 1 519 518
f 1 518 596
f 1 596 667
f 1 667 732
f 1 732 736
f 1 736 735
f 1 735 795
f 1 795 794
f 1 794 850
f 1 850 885
f 1 885 886
f 1 886 921
f 1 921 920
f 1 920 945
f 1 945 949
f 1 949 957
f 1 957 960
f 1 960 959
f 1 959 958
f 1 958 952
f 1 952 935
f 1 935 934
f 1 934 937
f 1 937 933
f 1 933 932
f 1 932 898
f 1 898 897
f 1 897 896
f 1 896 861
f 1 861 806
f 1 806 805
f 1 805 804
f 1 804 744
f 1 744 743
f 1 743 677
f 1 677 604
f 1 604 603
f 1 603 524
f 1 524 449
f 1 449 448
f 1 448 447
f 1 447 376
f 1 376 308
f 1 308 240
f 1 240 239
f 1 239 168
f 1 168 112
f 1 112 84
f 1 84 83
f 1 83 53
f 1 53 37
f 1 37 36
f 1 36 24
f 1 24 15
f 1 15 14
f 1 14 7
f 1 7 2
f 2 7 8
f 2 8 3
f 3 8 9
f 3 9 10
f 3 10 11
f 3 11 4
f 4 11 12
f 4 12 20
f 4 20 32
f 4 32 47
f 4 47 66
f 4 66 65
f 4 65 97
f 4 97 133
f 4 133 132
f 4 132 134
f 4 134 99
f 4 99 67
f 4 67 48
f 4 48 33
f 4 33 21
f 4 21 13
f 4 13 6
f 4 6 5
f 7 14 8
f 8 14 15
f 8 15 16
f 8 16 9
f 9 16 17
f 9 17 10
f 10 17 18
f 10 18 19
f 10 19 11
f 11 19 12
f 12 19 20
f 13 21 22
f 13 22 23
f 15 24 16
f 16 24 25
f 16 25 26
f 16 26 27
f 16 27 17
f 17 27 28
f 17 28 29
f 17 29 18
f 18 29 30
f 18 30 31
f 18 31 19
f 19 31 20
f 20 31 32
f 21 33 22
f 22 34 23
f 22 33 48
f 22 48 68
f 22 68 100
f 22 100 152
f 22 152 220
f 22 220 287
f 22 287 290
f 22 290 289
f 22 289 357
f 22 357 422
f 22 422 424
f 22 424 497
f 22 497 499
f 22 499 578
f 22 578 581
f 22 581 580
f 22 580 658
f 22 658 587
f 22 587 586
f 22 586 504
f 22 504 503
f 22 503 429
f 22 429 428
f 22 428 361
f 22 361 293
f 22 293 223
f 22 223 221
f 22 221 153
f 22 153 101
f 22 101 69
f 22 69 49
f 22 49 34
f 23 34 49
f 23 49 35
f 24 36 25
f 25 36 37
f 25 37 26
f 26 37 38
f 26 38 39
f 26 39 40
f 26 40 27
f 27 40 28
f 28 40 41
f 28 41 42
f 28 42 29
f 29 42 43
f 29 43 30
f 30 44 31
f 30 43 45
f 30 45 44
f 31 46 32
f 31 44 46
f 32 46 47
f 35 49 50
f 35 50 51
f 35 51 52
f 37 53 54
f 37 54 38
f 38 54 39
f 39 54 55
f 39 55 56
f 39 56 57
f 39 57 40
f 40 57 41
f 41 57 58
f 41 58 59
f 41 59 42
f 42 59 60
f 42 60 43
f 43 61 45
f 43 60 61
f 44 45 62
f 44 62 63
f 44 63 46
f 45 61 64
f 45 64 62
f 46 63 65
f 46 65 66
f 46 66 47
f 48 67 68
f 49 69 70
f 49 70 71
f 49 71 72
f 49 72 73
f 49 73 74
f 49 74 75
f 49 75 76
f 49 76 77
f 49 77 50
f 50 77 51
f 51 78 52
f 51 77 79
f 51 79 80
f 51 80 81
f 51 81 82
f 51 82 78
f 53 83 54
f 54 83 84
f 54 84 55
f 55 84 85
f 55 85 86
f 55 86 56
f 56 86 87
f 56 87 88
f 56 88 57
f 57 88 58
f 58 88 89
f 58 89 90
f 58 90 59
f 59 90 91
f 59 91 60
f 60 91 92
f 60 92 61
f 61 92 93
f 61 93 94
f 61 94 64
f 62 64 95
f 62 95 96
f 62 96 63
f 63 96 97
f 63 97 65
f 64 94 98
f 64 98 95
f 67 99 143
f 67 143 208
f 67 208 276
f 67 276 343
f 67 343 406
f 67 406 479
f 67 479 557
f 67 557 635
f 67 635 707
f 67 707 710
f 67 710 640
f 67 640 559
f 67 559 480
f 67 480 407
f 67 407 344
f 67 344 277
f 67 277 209
f 67 209 144
f 67 144 100
f 67 100 68
f 69 101 70
f 70 102 103
f 70 103 104
f 70 104 71
f 70 101 102
f 71 105 72
f 71 104 105
f 72 105 73
f 73 105 74
f 74 106 75
f 74 105 106
f 75 106 79
f 75 79 76
f 76 79 77
f 79 106 107
f 79 107 80
f 80 107 108
f 80 108 81
f 81 109 82
f 81 108 110
f 81 110 111
f 81 111 109
f 84 112 113
f 84 113 85
f 85 113 86
f 86 113 114
f 86 114 115
f 86 115 87
f 87 115 116
f 87 116 117
f 87 117 88
f 88 117 89
f 89 117 118
f 89 118 119
f 89 119 90
f 90 119 120
f 90 120 91
f 91 121 122
f 91 122 92
f 91 120 121
f 92 122 123
f 92 123 93
f 93 123 124
f 93 124 125
f 93 125 126
f 93 126 94
f 94 126 127
f 94 127 98
f 95 128 129
f 95 129 96
f 95 98 127
f 95 127 130
f 95 130 128
f 96 131 132
f 96 132 133
f 96 133 97
f 96 129 131
f 99 134 135
f 99 135 136
f 99 136 137
f 99 137 138
f 99 138 139
f 99 139 140
f 99 140 141
f 99 141 142
f 99 142 143
f 100 144 145
f 100 145 146
f 100 146 147
f 100 147 148
f 100 148 149
f 100 149 150
f 100 150 151
f 100 151 152
f 101 153 154
f 101 154 155
f 101 155 156
f 101 156 102
f 102 156 103
f 103 156 157
f 103 157 104
f 104 157 158
f 104 158 105
f 105 159 106
f 105 158 160
f 105 160 159
f 106 159 107
f 107 159 161
f 107 161 162
f 107 162 108
f 108 162 110
f 109 111 163
f 110 164 111
f 110 162 165
f 110 165 166
f 110 166 164
f 111 164 167
f 111 167 163
f 112 168 113
f 113 168 169
f 113 169 114
f 114 169 115
f 115 169 170
f 115 170 171
f 115 171 116
f 116 171 172
f 116 172 173
f 116 173 117
f 117 173 118
f 118 174 119
f 118 173 175
f 118 175 176
f 118 176 174
f 119 174 120
f 120 174 177
f 120 177 178
f 120 178 121
f 121 178 122
f 122 124 123
f 122 178 124
f 124 178 179
f 124 179 180
f 124 180 125
f 125 180 181
f 125 181 182
f 125 182 183
f 125 183 130
f 125 130 127
f 125 127 126
f 128 130 184
f 128 184 185
f 128 185 131
f 128 131 129
f 130 183 186
f 130 186 184
f 131 187 188
f 131 188 132
f 131 185 187
f 132 188 134
f 134 188 187
f 134 187 189
f 134 189 190
f 134 190 191
f 134 191 192
f 134 192 193
f 134 193 194
f 134 194 195
f 134 195 196
f 134 196 197
f 134 197 198
f 134 198 199
f 134 199 135
f 135 199 200
f 135 200 201
f 135 201 202
f 135 202 136
f 136 202 137
f 137 202 138
f 138 202 203
f 138 203 139
f 139 203 141
f 139 141 140
f 141 203 204
f 141 204 142
f 142 204 205
f 142 205 206
f 142 206 143
f 143 206 207
f 143 207 208
f 144 209 210
f 144 210 211
f 144 211 212
f 144 212 145
f 145 212 213
f 145 213 214
f 145 214 146
f 146 214 215
f 146 215 148
f 146 148 147
f 148 215 216
f 148 216 217
f 148 217 149
f 149 217 218
f 149 218 150
f 150 218 151
f 151 218 219
f 151 219 220
f 151 220 152
f 153 221 154
f 154 222 155
f 154 221 223
f 154 223 224
f 154 224 225
f 154 225 222
f 155 222 226
f 155 226 156
f 156 226 157
f 157 226 227
f 157 227 158
f 158 227 228
f 158 228 229
f 158 229 230
f 158 230 160
f 159 160 231
f 159 231 161
f 160 232 231
f 160 230 233
f 160 233 232
f 161 231 165
f 161 165 162
f 164 234 167
f 164 166 235
f 164 235 234
f 165 231 236
f 165 236 166
f 166 236 237
f 166 237 238
f 166 238 235
f 168 239 169
f 169 239 240
f 169 240 241
f 169 241 170
f 170 241 242
f 170 242 171
f 171 242 243
f 171 243 244
f 171 244 172
f 172 245 173
f 172 244 246
f 172 246 245
f 173 245 175
f 174 247 248
f 174 248 177
f 174 176 249
f 174 249 250
f 174 250 247
f 175 245 251
f 175 251 252
f 175 252 176
f 176 252 249
f 177 248 178
f 178 248 179
f 179 248 253
f 179 253 254
f 179 254 180
f 180 254 181
f 181 254 255
f 181 255 256
f 181 256 182
f 182 256 257
f 182 257 186
f 182 186 183
f 184 186 258
f 184 258 259
f 184 259 185
f 185 259 189
f 185 189 187
f 186 260 258
f 186 257 260
f 189 259 190
f 190 259 191
f 191 259 261
f 191 261 192
f 192 261 262
f 192 262 193
f 193 262 263
f 193 263 194
f 194 263 264
f 194 264 195
f 195 264 265
f 195 265 196
f 196 265 266
f 196 266 197
f 197 266 267
f 197 267 198
f 198 267 199
f 199 267 200
f 200 267 268
f 200 268 201
f 201 268 269
f 201 269 270
f 201 270 202
f 202 270 203
f 203 270 204
f 204 270 271
f 204 271 205
f 205 271 272
f 205 272 273
f 205 273 207
f 205 207 206
f 207 273 274
f 207 274 208
f 208 274 275
f 208 275 276
f 209 277 278
f 209 278 210
f 210 278 211
f 211 278 279
f 211 279 280
f 211 280 213
f 211 213 212
f 213 280 281
f 213 281 214
f 214 281 282
f 214 282 215
f 215 283 216
f 215 282 283
f 216 284 285
f 216 285 217
f 216 283 284
f 217 285 286
f 217 286 218
f 218 286 219
f 219 287 220
f 219 286 288
f 219 288 289
f 219 289 290
f 219 290 287
f 222 291 226
f 222 225 292
f 222 292 291
f 223 293 224
f 224 293 294
f 224 294 225
f 225 295 296
f 225 296 292
f 225 294 295
f 226 228 227
f 226 291 229
f 226 229 228
f 229 291 297
f 229 297 298
f 229 298 233
f 229 233 230
f 231 232 236
f 232 233 299
f 232 299 236
f 233 298 300
f 233 300 301
f 233 301 299
f 234 235 302
f 235 238 303
f 235 303 304
f 235 304 302
f 236 299 305
f 236 305 237
f 237 305 306
f 237 306 307
f 237 307 238
f 238 307 303
f 240 308 241
f 241 308 309
f 241 309 242
f 242 309 310
f 242 310 243
f 243 310 311
f 243 311 244
f 244 311 312
f 244 312 246
f 245 246 313
f 245 313 251
f 246 312 314
f 246 314 313
f 247 315 253
f 247 253 248
f 247 250 316
f 247 316 315
f 249 252 250
f 250 252 317
f 250 317 316
f 251 318 319
f 251 319 252
f 251 313 320
f 251 320 318
f 252 319 321
f 252 321 317
f 253 315 322
f 253 322 323
f 253 323 254
f 254 323 322
f 254 322 255
f 255 324 256
f 255 322 325
f 255 325 324
f 256 326 327
f 256 327 328
f 256 328 257
f 256 324 326
f 257 328 260
f 258 262 259
f 258 260 262
f 259 262 261
f 260 328 327
f 260 327 329
f 260 329 262
f 262 329 264
f 262 264 263
f 264 329 330
f 264 330 265
f 265 330 331
f 265 331 332
f 265 332 266
f 266 332 333
f 266 333 267
f 267 333 268
f 268 333 334
f 268 334 335
f 268 335 269
f 269 271 270
f 269 335 336
f 269 336 272
f 269 272 271
f 272 336 337
f 272 337 338
f 272 338 339
f 272 339 273
f 273 339 274
f 274 339 340
f 274 340 341
f 274 341 342
f 274 342 275
f 275 342 276
f 276 342 343
f 277 344 345
f 277 345 278
f 278 346 279
f 278 345 347
f 278 347 346
f 279 346 348
f 279 348 349
f 279 349 280
f 280 349 350
f 280 350 281
f 281 351 282
f 281 350 351
f 282 351 352
f 282 352 283
f 283 352 353
f 283 353 284
f 284 353 354
f 284 354 355
f 284 355 285
f 285 355 356
f 285 356 286
f 286 356 288
f 288 357 289
f 288 356 358
f 288 358 357
f 291 292 359
f 291 359 297
f 292 296 360
f 292 360 359
f 293 361 294
f 294 361 362
f 294 362 295
f 295 362 363
f 295 363 364
f 295 364 296
f 296 364 365
f 296 365 360
f 297 366 301
f 297 301 300
f 297 300 298
f 297 359 367
f 297 367 366
f 299 301 368
f 299 368 369
f 299 369 305
f 301 366 368
f 303 370 304
f 303 307 371
f 303 371 372
f 303 372 370
f 305 369 373
f 305 373 374
f 305 374 306
f 306 374 375
f 306 375 307
f 307 375 371
f 308 376 309
f 309 376 377
f 309 377 378
f 309 378 310
f 310 378 379
f 310 379 311
f 311 379 380
f 311 380 312
f 312 380 381
f 312 381 314
f 313 314 320
f 314 382 383
f 314 383 320
f 314 381 384
f 314 384 382
f 315 385 322
f 315 316 386
f 315 386 385
f 316 387 386
f 316 317 388
f 316 388 387
f 317 321 389
f 317 389 388
f 318 320 390
f 318 390 321
f 318 321 319
f 320 383 390
f 321 390 391
f 321 391 389
f 322 385 325
f 324 325 392
f 324 392 393
f 324 393 326
f 325 385 394
f 325 394 392
f 326 393 395
f 326 395 396
f 326 396 329
f 326 329 327
f 329 396 331
f 329 331 330
f 331 396 397
f 331 397 332
f 332 397 398
f 332 398 399
f 332 399 334
f 332 334 333
f 334 399 400
f 334 400 335
f 335 400 337
f 335 337 336
f 337 401 402
f 337 402 338
f 337 400 401
f 338 402 340
f 338 340 339
f 340 402 403
f 340 403 341
f 341 403 404
f 341 404 405
f 341 405 342
f 342 406 343
f 342 405 406
f 344 407 408
f 344 408 347
f 344 347 345
f 346 409 348
f 346 347 410
f 346 410 409
f 347 408 411
f 347 411 410
f 348 412 349
f 348 409 413
f 348 413 412
f 349 414 350
f 349 412 414
f 350 414 415
f 350 415 351
f 351 415 416
f 351 416 352
f 352 416 417
f 352 417 353
f 353 417 418
f 353 418 354
f 354 418 419
f 354 419 420
f 354 420 355
f 355 420 421
f 355 421 356
f 356 421 358
f 357 358 422
f 358 423 424
f 358 424 422
f 358 421 423
f 359 360 425
f 359 425 367
f 360 365 426
f 360 426 427
f 360 427 425
f 361 428 362
f 362 428 429
f 362 429 430
f 362 430 363
f 363 430 431
f 363 431 432
f 363 432 364
f 364 432 433
f 364 433 365
f 365 433 434
f 365 434 426
f 366 367 435
f 366 435 369
f 366 369 368
f 367 425 436
f 367 436 435
f 369 435 437
f 369 437 438
f 369 438 373
f 370 372 439
f 371 440 372
f 371 375 441
f 371 441 440
f 372 440 442
f 372 442 443
f 372 443 439
f 373 438 444
f 373 444 374
f 374 445 375
f 374 444 446
f 374 446 445
f 375 445 441
f 376 447 377
f 377 447 448
f 377 448 449
f 377 449 450
f 377 450 378
f 378 450 379
f 379 450 451
f 379 451 380
f 380 451 452
f 380 452 381
f 381 452 453
f 381 453 454
f 381 454 384
f 382 455 383
f 382 384 455
f 383 455 390
f 384 454 456
f 384 456 457
f 384 457 455
f 385 386 458
f 385 458 394
f 386 387 458
f 387 459 458
f 387 388 460
f 387 460 459
f 388 389 461
f 388 461 460
f 389 462 461
f 389 391 463
f 389 463 462
f 390 455 464
f 390 464 391
f 391 464 465
f 391 465 463
f 392 394 466
f 392 466 467
f 392 467 393
f 393 468 395
f 393 467 468
f 394 458 469
f 394 469 466
f 395 470 471
f 395 471 397
f 395 397 396
f 395 468 470
f 397 471 398
f 398 471 472
f 398 472 399
f 399 472 473
f 399 473 400
f 400 473 401
f 401 473 474
f 401 474 475
f 401 475 402
f 402 475 403
f 403 476 477
f 403 477 404
f 403 475 476
f 404 477 478
f 404 478 405
f 405 478 479
f 405 479 406
f 407 480 408
f 408 481 411
f 408 480 481
f 409 410 482
f 409 482 483
f 409 483 413
f 410 411 484
f 410 484 482
f 411 481 485
f 411 485 484
f 412 413 486
f 412 486 487
f 412 487 414
f 413 483 488
f 413 488 486
f 414 487 489
f 414 489 415
f 415 489 490
f 415 490 416
f 416 490 491
f 416 491 417
f 417 491 492
f 417 492 418
f 418 492 493
f 418 493 419
f 419 493 494
f 419 494 495
f 419 495 420
f 420 495 496
f 420 496 421
f 421 496 423
f 423 497 424
f 423 496 498
f 423 498 499
f 423 499 497
f 425 427 500
f 425 500 436
f 426 500 427
f 426 434 501
f 426 501 502
f 426 502 500
f 429 503 430
f 430 504 505
f 430 505 431
f 430 503 504
f 431 506 507
f 431 507 432
f 431 505 506
f 432 507 508
f 432 508 433
f 433 508 509
f 433 509 434
f 434 509 510
f 434 510 501
f 435 511 437
f 435 436 512
f 435 512 513
f 435 513 511
f 436 500 512
f 437 511 438
f 438 511 514
f 438 514 515
f 438 515 444
f 440 441 516
f 440 516 517
f 440 517 518
f 440 518 519
f 440 519 442
f 441 445 520
f 441 520 516
f 444 515 521
f 444 521 446
f 445 446 522
f 445 522 520
f 446 521 523
f 446 523 522
f 449 524 525
f 449 525 450
f 450 525 451
f 451 525 526
f 451 526 452
f 452 526 527
f 452 527 528
f 452 528 453
f 453 528 529
f 453 529 530
f 453 530 454
f 454 530 531
f 454 531 532
f 454 532 533
f 454 533 456
f 455 457 464
f 456 534 457
f 456 533 535
f 456 535 536
f 456 536 534
f 457 534 537
f 457 537 464
f 458 459 469
f 459 460 538
f 459 538 539
f 459 539 469
f 460 461 540
f 460 540 538
f 461 462 540
f 462 463 541
f 462 541 540
f 463 542 541
f 463 465 543
f 463 543 542
f 464 537 465
f 465 537 544
f 465 544 543
f 466 469 545
f 466 545 546
f 466 546 467
f 467 546 547
f 467 547 468
f 468 547 548
f 468 548 549
f 468 549 470
f 469 539 545
f 470 473 472
f 470 472 471
f 470 549 550
f 470 550 473
f 473 550 474
f 474 550 549
f 474 549 551
f 474 551 475
f 475 551 552
f 475 552 476
f 476 552 553
f 476 553 554
f 476 554 477
f 477 554 555
f 477 555 478
f 478 555 556
f 478 556 479
f 479 556 558
f 479 558 557
f 480 559 560
f 480 560 481
f 481 560 485
f 482 484 561
f 482 561 562
f 482 562 483
f 483 562 563
f 483 563 488
f 484 485 564
f 484 564 561
f 485 560 565
f 485 565 564
f 486 488 566
f 486 566 567
f 486 567 487
f 487 567 568
f 487 568 489
f 488 563 569
f 488 569 566
f 489 568 570
f 489 570 490
f 490 570 654
f 490 654 571
f 490 571 491
f 491 571 572
f 491 572 492
f 492 572 573
f 492 573 493
f 493 573 574
f 493 574 494
f 494 574 575
f 494 575 576
f 494 576 495
f 495 576 577
f 495 577 496
f 496 577 498
f 498 578 499
f 498 577 579
f 498 579 580
f 498 580 581
f 498 581 578
f 500 502 582
f 500 582 512
f 501 583 502
f 501 510 584
f 501 584 585
f 501 585 583
f 502 583 582
f 504 586 505
f 505 586 587
f 505 587 579
f 505 579 506
f 506 579 577
f 506 577 576
f 506 576 507
f 507 576 575
f 507 575 508
f 508 575 588
f 508 588 509
f 509 588 589
f 509 589 510
f 510 589 590
f 510 590 584
f 511 513 514
f 512 582 513
f 513 582 591
f 513 591 592
f 513 592 514
f 514 521 515
f 514 592 593
f 514 593 521
f 516 594 517
f 516 520 595
f 516 595 594
f 517 594 596
f 517 596 518
f 520 522 597
f 520 597 595
f 521 593 598
f 521 598 599
f 521 599 523
f 522 523 600
f 522 600 597
f 523 599 601
f 523 601 602
f 523 602 600
f 524 603 525
f 525 603 604
f 525 604 605
f 525 605 606
f 525 606 607
f 525 607 526
f 526 607 608
f 526 608 527
f 527 608 609
f 527 609 528
f 528 609 610
f 528 610 529
f 529 611 530
f 529 610 612
f 529 612 611
f 530 611 531
f 531 611 532
f 532 612 613
f 532 613 535
f 532 535 533
f 532 611 612
f 534 536 614
f 534 614 615
f 534 615 537
f 535 613 616
f 535 616 536
f 536 616 614
f 537 615 544
f 538 617 539
f 538 540 618
f 538 618 619
f 538 619 617
f 539 617 620
f 539 620 545
f 540 541 618
f 541 542 618
f 542 543 621
f 542 621 622
f 542 622 623
f 542 623 619
f 542 619 618
f 543 624 621
f 543 544 625
f 543 625 624
f 544 615 626
f 544 626 625
f 545 627 548
f 545 548 546
f 545 620 628
f 545 628 627
f 546 548 547
f 548 627 629
f 548 629 549
f 549 629 630
f 549 630 551
f 551 630 631
f 551 631 552
f 552 631 553
f 553 631 632
f 553 632 633
f 553 633 554
f 554 633 634
f 554 634 555
f 555 634 558
f 555 558 556
f 557 558 636
f 557 636 637
f 557 637 638
f 557 638 639
f 557 639 635
f 558 634 636
f 559 640 641
f 559 641 560
f 560 641 642
f 560 642 565
f 561 643 562
f 561 564 644
f 561 644 643
f 562 645 563
f 562 643 645
f 563 645 646
f 563 646 569
f 564 565 647
f 564 647 644
f 565 642 648
f 565 648 647
f 566 569 649
f 566 649 650
f 566 650 567
f 567 650 651
f 567 651 568
f 568 651 652
f 568 652 570
f 569 653 649
f 569 646 653
f 570 652 654
f 571 654 655
f 571 655 572
f 572 655 656
f 572 656 573
f 573 656 657
f 573 657 574
f 574 657 588
f 574 588 575
f 579 587 658
f 579 658 580
f 582 583 591
f 583 585 659
f 583 659 591
f 584 590 660
f 584 660 661
f 584 661 585
f 585 661 659
f 588 657 589
f 589 657 662
f 589 662 590
f 590 662 663
f 590 663 660
f 591 659 664
f 591 664 592
f 592 664 593
f 593 664 665
f 593 665 666
f 593 666 598
f 594 667 596
f 594 595 668
f 594 668 669
f 594 669 667
f 595 597 670
f 595 670 668
f 597 600 671
f 597 671 670
f 598 601 599
f 598 666 672
f 598 672 601
f 600 673 671
f 600 602 674
f 600 674 673
f 601 672 675
f 601 675 602
f 602 675 676
f 602 676 674
f 604 677 605
f 605 677 678
f 605 678 679
f 605 679 606
f 606 679 680
f 606 680 681
f 606 681 607
f 607 681 682
f 607 682 608
f 608 682 609
f 609 682 610
f 610 682 683
f 610 683 684
f 610 684 612
f 612 684 613
f 613 684 685
f 613 685 616
f 614 616 686
f 614 686 687
f 614 687 615
f 615 687 626
f 616 685 688
f 616 688 689
f 616 689 690
f 616 690 686
f 617 619 691
f 617 691 692
f 617 692 693
f 617 693 620
f 619 623 691
f 620 693 628
f 621 624 622
f 622 694 691
f 622 691 623
f 622 624 695
f 622 695 694
f 624 696 695
f 624 625 696
f 625 697 696
f 625 626 698
f 625 698 697
f 626 687 699
f 626 699 698
f 627 628 700
f 627 700 701
f 627 701 629
f 628 693 702
f 628 702 700
f 629 701 630
f 630 701 703
f 630 703 631
f 631 703 632
f 632 703 704
f 632 704 705
f 632 705 633
f 633 705 706
f 633 706 634
f 634 706 636
f 635 639 707
f 636 706 708
f 636 708 638
f 636 638 637
f 638 708 709
f 638 709 639
f 639 710 707
f 639 709 642
f 639 642 710
f 640 710 642
f 640 642 641
f 642 709 648
f 643 711 645
f 643 644 712
f 643 712 711
f 644 647 713
f 644 713 712
f 645 711 714
f 645 714 646
f 646 714 715
f 646 715 653
f 647 648 716
f 647 716 713
f 648 709 717
f 648 717 716
f 649 653 718
f 649 718 719
f 649 719 650
f 650 719 720
f 650 720 651
f 651 720 721
f 651 721 652
f 652 722 654
f 652 721 722
f 653 723 718
f 653 715 723
f 654 722 724
f 654 724 655
f 655 724 725
f 655 725 656
f 656 725 662
f 656 662 657
f 659 661 726
f 659 726 665
f 659 665 664
f 660 727 661
f 660 663 728
f 660 728 727
f 661 727 726
f 662 725 663
f 663 725 729
f 663 729 728
f 665 726 730
f 665 730 666
f 666 730 731
f 666 731 672
f 667 669 732
f 668 733 669
f 668 670 734
f 668 734 733
f 669 733 735
f 669 735 736
f 669 736 732
f 670 671 673
f 670 673 737
f 670 737 734
f 672 676 675
f 672 731 738
f 672 738 676
f 673 674 739
f 673 739 737
f 674 676 740
f 674 740 739
f 676 738 741
f 676 741 742
f 676 742 740
f 677 743 680
f 677 680 678
f 678 680 679
f 680 682 681
f 680 743 744
f 680 744 745
f 680 745 746
f 680 746 682
f 682 746 683
f 683 746 747
f 683 747 748
f 683 748 684
f 684 748 749
f 684 749 750
f 684 750 685
f 685 750 751
f 685 751 688
f 686 690 752
f 686 752 753
f 686 753 687
f 687 753 754
f 687 754 755
f 687 755 699
f 688 751 689
f 689 751 756
f 689 756 690
f 690 756 757
f 690 757 752
f 691 758 692
f 691 694 758
f 692 758 693
f 693 758 759
f 693 759 702
f 694 695 760
f 694 760 761
f 694 761 762
f 694 762 758
f 695 696 760
f 696 697 763
f 696 763 760
f 697 698 764
f 697 764 765
f 697 765 763
f 698 699 766
f 698 766 764
f 699 755 767
f 699 767 766
f 700 702 768
f 700 768 769
f 700 769 701
f 701 769 703
f 702 759 770
f 702 770 768
f 703 769 704
f 704 768 771
f 704 771 772
f 704 772 705
f 704 769 768
f 705 772 773
f 705 773 706
f 706 773 708
f 708 773 717
f 708 717 709
f 711 774 714
f 711 712 775
f 711 775 774
f 712 713 776
f 712 776 775
f 713 716 777
f 713 777 776
f 714 774 778
f 714 778 715
f 715 778 779
f 715 779 723
f 716 717 780
f 716 780 777
f 717 773 780
f 718 723 781
f 718 781 782
f 718 782 719
f 719 782 783
f 719 783 720
f 720 784 721
f 720 783 784
f 721 784 785
f 721 785 722
f 722 786 724
f 722 785 786
f 723 787 781
f 723 779 787
f 724 729 725
f 724 786 729
f 726 727 788
f 726 788 730
f 727 728 789
f 727 789 788
f 728 729 790
f 728 790 789
f 729 786 790
f 730 788 791
f 730 791 792
f 730 792 731
f 731 792 738
f 733 734 793
f 733 793 794
f 733 794 795
f 733 795 735
f 734 737 793
f 737 739 796
f 737 796 797
f 737 797 793
f 738 792 798
f 738 798 799
f 738 799 741
f 739 740 800
f 739 800 796
f 740 742 801
f 740 801 800
f 741 802 742
f 741 799 803
f 741 803 802
f 742 802 801
f 744 804 745
f 745 804 805
f 745 805 747
f 745 747 746
f 747 805 806
f 747 806 807
f 747 807 808
f 747 808 748
f 748 808 809
f 748 809 810
f 748 810 749
f 749 810 750
f 750 810 811
f 750 811 812
f 750 812 813
f 750 813 814
f 750 814 815
f 750 815 751
f 751 815 816
f 751 816 757
f 751 757 756
f 752 817 754
f 752 754 753
f 752 757 818
f 752 818 817
f 754 817 819
f 754 819 820
f 754 820 755
f 755 820 767
f 757 816 821
f 757 821 822
f 757 822 818
f 758 762 759
f 759 762 823
f 759 823 770
f 760 763 824
f 760 824 761
f 761 824 825
f 761 825 823
f 761 823 762
f 763 765 826
f 763 826 824
f 764 766 827
f 764 827 828
f 764 828 765
f 765 828 829
f 765 829 826
f 766 767 830
f 766 830 827
f 767 820 831
f 767 831 830
f 768 770 832
f 768 832 833
f 768 833 771
f 770 823 832
f 771 833 834
f 771 834 772
f 772 834 780
f 772 780 773
f 774 775 835
f 774 835 836
f 774 836 778
f 775 776 837
f 775 837 835
f 776 777 838
f 776 838 837
f 777 780 834
f 777 834 838
f 778 836 829
f 778 829 779
f 779 829 828
f 779 828 787
f 781 787 839
f 781 839 840
f 781 840 782
f 782 841 783
f 782 840 841
f 783 841 842
f 783 842 784
f 784 842 843
f 784 843 785
f 785 843 844
f 785 844 786
f 786 844 790
f 787 828 827
f 787 827 839
f 788 789 845
f 788 845 791
f 789 790 846
f 789 846 845
f 790 844 846
f 791 845 847
f 791 847 798
f 791 798 792
f 793 797 848
f 793 848 849
f 793 849 850
f 793 850 794
f 796 800 851
f 796 851 852
f 796 852 797
f 797 852 848
f 798 847 853
f 798 853 799
f 799 853 854
f 799 854 803
f 800 801 855
f 800 855 851
f 801 803 856
f 801 856 857
f 801 857 855
f 801 802 803
f 803 854 858
f 803 858 859
f 803 859 860
f 803 860 856
f 806 861 862
f 806 862 807
f 807 862 863
f 807 863 808
f 808 863 809
f 809 811 810
f 809 863 864
f 809 864 865
f 809 865 811
f 811 866 812
f 811 865 867
f 811 867 866
f 812 866 813
f 813 866 814
f 814 816 815
f 814 866 868
f 814 868 869
f 814 869 816
f 816 869 821
f 817 818 870
f 817 870 819
f 818 869 871
f 818 871 870
f 818 822 869
f 819 872 820
f 819 870 873
f 819 873 872
f 820 872 831
f 821 869 822
f 823 825 874
f 823 874 832
f 824 826 875
f 824 875 825
f 825 875 874
f 826 836 875
f 826 829 836
f 827 830 839
f 830 831 876
f 830 876 839
f 831 872 877
f 831 877 876
f 832 874 837
f 832 837 838
f 832 838 833
f 833 838 834
f 835 837 874
f 835 874 875
f 835 875 836
f 839 876 840
f 840 876 878
f 840 878 841
f 841 878 879
f 841 879 842
f 842 879 880
f 842 880 843
f 843 880 881
f 843 881 844
f 844 881 846
f 845 846 882
f 845 882 847
f 846 881 882
f 847 882 883
f 847 883 853
f 848 852 884
f 848 884 849
f 849 885 850
f 849 884 886
f 849 886 885
f 851 855 887
f 851 887 888
f 851 888 852
f 852 889 884
f 852 888 889
f 853 858 854
f 853 883 890
f 853 890 858
f 855 857 860
f 855 860 891
f 855 891 887
f 856 860 857
f 858 890 892
f 858 892 859
f 859 892 893
f 859 893 894
f 859 894 860
f 860 894 895
f 860 895 891
f 861 896 862
f 862 896 897
f 862 897 898
f 862 898 899
f 862 899 864
f 862 864 863
f 864 899 900
f 864 900 865
f 865 901 902
f 865 902 903
f 865 903 867
f 865 900 901
f 866 867 904
f 866 904 868
f 867 903 905
f 867 905 904
f 868 904 869
f 869 904 906
f 869 906 871
f 870 871 907
f 870 907 873
f 871 906 908
f 871 908 909
f 871 909 910
f 871 910 907
f 872 873 911
f 872 911 877
f 873 907 912
f 873 912 913
f 873 913 911
f 876 877 878
f 877 911 914
f 877 914 878
f 878 914 879
f 879 914 915
f 879 915 880
f 880 915 916
f 880 916 917
f 880 917 881
f 881 917 918
f 881 918 882
f 882 918 883
f 883 918 917
f 883 917 919
f 883 919 890
f 884 889 920
f 884 920 921
f 884 921 886
f 887 891 922
f 887 922 888
f 888 922 923
f 888 923 889
f 889 923 924
f 889 924 920
f 890 919 925
f 890 925 892
f 891 895 926
f 891 926 927
f 891 927 922
f 892 925 928
f 892 928 929
f 892 929 893
f 893 929 894
f 894 929 930
f 894 930 895
f 895 930 931
f 895 931 926
f 898 932 899
f 899 932 900
f 900 932 933
f 900 933 901
f 901 934 935
f 901 935 936
f 901 936 902
f 901 933 937
f 901 937 934
f 902 936 938
f 902 938 903
f 903 938 905
f 904 905 939
f 904 939 906
f 905 938 940
f 905 940 939
f 906 939 908
f 907 910 912
f 908 939 941
f 908 941 931
f 908 931 909
f 909 931 910
f 910 931 942
f 910 942 929
f 910 929 928
f 910 928 912
f 911 913 943
f 911 943 914
f 912 928 913
f 913 928 925
f 913 925 943
f 914 943 944
f 914 944 915
f 915 919 916
f 915 944 919
f 916 919 917
f 919 944 925
f 920 924 945
f 922 927 946
f 922 946 947
f 922 947 923
f 923 947 948
f 923 948 924
f 924 949 945
f 924 948 949
f 925 944 943
f 926 950 927
f 926 931 941
f 926 941 951
f 926 951 950
f 927 950 946
f 929 942 930
f 930 942 931
f 935 952 936
f 936 952 953
f 936 953 938
f 938 953 954
f 938 954 955
f 938 955 940
f 939 940 950
f 939 950 951
f 939 951 941
f 940 955 950
f 946 950 955
f 946 955 947
f 947 955 956
f 947 956 948
f 948 957 949
f 948 956 957
f 952 958 953
f 953 958 959
f 953 959 954
f 954 959 956
f 954 956 955
f 956 959 960
f 956 960 957

