# https://github.com/mikedh/trimesh
v 0.00366664 0.00511763 -0.02302672
v -0.00484776 0.00511763 -0.02297645
v 0.00366581 0.00508056 -0.02302478
v 0.00366664 0.00508120 -0.02302672
v 0.00366664 0.00546853 -0.02312919
v -0.00484776 0.00491055 -0.02297452
v -0.00484776 0.00533622 -0.02304799
v -0.00484776 0.00461270 -0.02297258
v 0.00366581 0.00085257 -0.02304025
v 0.00366581 -0.00072231 -0.02304992
v 0.00366664 0.00508120 -0.04188907
v 0.00366664 0.00563726 -0.02354294
v -0.00484776 0.00561298 -0.02339213
v -0.00484776 0.00550432 -0.02312919
v -0.00484776 0.00433084 -0.02297452
v -0.00454188 0.00003637 -0.02312339
v 0.00280904 -0.00072231 -0.02326259
v 0.00366581 -0.00072231 -0.04170926
v 0.00366581 0.00080974 -0.04190840
v 0.00366581 0.00119643 -0.04195093
v 0.00366581 0.00158823 -0.04198960
v 0.00366581 0.00161763 -0.04199154
v 0.00366581 0.00209252 -0.04201280
v 0.00366581 0.00215196 -0.04201474
v 0.00366581 0.00316950 -0.04202634
v 0.00366581 0.00360412 -0.04203020
v 0.00366581 0.00410841 -0.04202054
v 0.00366581 0.00461334 -0.04197607
v 0.00366581 0.00463188 -0.04197413
v 0.00366581 0.00485238 -0.04194127
v 0.00366581 0.00492525 -0.04192773
v 0.00357330 0.00508056 -0.04193353
v 0.00366664 0.00515918 -0.04186973
v 0.00366581 -0.00043021 -0.04176339
v 0.00366581 0.00007472 -0.04182720
v 0.00366664 0.00567689 -0.02404756
v -0.00484776 0.00565069 -0.02354294
v -0.00484776 0.00433084 -0.04135544
v -0.00454188 0.00003637 -0.04132258
v 0.00280904 -0.00072231 -0.04203020
v 0.00357163 -0.00072231 -0.04175566
v 0.00360580 0.00087813 -0.04194513
v 0.00336577 0.00158823 -0.04211141
v 0.00336577 0.00209252 -0.04214621
v 0.00336577 0.00259554 -0.04215781
v 0.00336577 0.00360412 -0.04216167
v 0.00336577 0.00410841 -0.04214621
v 0.00336577 0.00461334 -0.04209787
v 0.00362831 0.00488818 -0.04195287
v 0.00353079 0.00522437 -0.04191613
v 0.00336411 0.00508120 -0.04201474
v 0.00366664 0.00563535 -0.04170732
v 0.00336327 -0.00072231 -0.04185426
v 0.00342828 -0.00043021 -0.04187360
v 0.00350246 0.00007472 -0.04190260
v 0.00356746 0.00057901 -0.04192967
v -0.00484776 0.00567625 -0.02390449
v 0.00366664 0.00568392 -0.03872214
v -0.00021801 0.00580728 -0.03650645
v -0.00484776 0.00567817 -0.02404756
v -0.00484776 0.00433659 -0.04135544
v -0.00454188 0.00352806 -0.04158939
v -0.00454188 0.00259681 -0.04157585
v -0.00454188 0.00209252 -0.04154492
v -0.00454188 0.00167516 -0.04150625
v -0.00454188 0.00007472 -0.04133031
v -0.00443687 0.00003637 -0.04139991
v -0.00359510 0.00003637 -0.04186586
v -0.00343008 0.00003637 -0.04193740
v -0.00321088 0.00003637 -0.04201667
v -0.00268665 0.00003637 -0.04215394
v 0.00286488 -0.00072231 -0.04203407
v -0.00439270 0.00003637 -0.04142891
v -0.00415850 0.00003637 -0.04157005
v -0.00365927 0.00003637 -0.04183493
v 0.00331577 0.00057901 -0.04203020
v 0.00340911 0.00106093 -0.04204180
v 0.00286154 0.00057901 -0.04219648
v 0.00286154 0.00108330 -0.04224481
v 0.00286154 0.00158823 -0.04228928
v 0.00286154 0.00209252 -0.04232021
v 0.00286154 0.00259554 -0.04233182
v 0.00286154 0.00310047 -0.04233568
v 0.00286154 0.00360412 -0.04233762
v 0.00286154 0.00410841 -0.04231248
v 0.00286154 0.00461334 -0.04225641
v 0.00286154 0.00508056 -0.04217908
v 0.00289821 0.00508056 -0.04216748
v 0.00319408 0.00544552 -0.04197994
v 0.00336411 0.00561745 -0.04184653
v 0.00285988 0.00511763 -0.04217134
v 0.00366664 0.00568392 -0.04168606
v 0.00314074 -0.00072231 -0.04194707
v 0.00317575 -0.00043021 -0.04197220
v 0.00325076 0.00007472 -0.04200314
v -0.00214492 0.00580728 -0.03650645
v -0.00021801 0.00580728 -0.04220808
v -0.00218159 0.00580728 -0.03650838
v -0.00264498 0.00580728 -0.03654512
v -0.00268832 0.00580728 -0.03655479
v -0.00312004 0.00580728 -0.03668046
v -0.00484776 0.00580728 -0.03813438
v -0.00484776 0.00461270 -0.04132644
v -0.00482109 0.00461270 -0.04134771
v -0.00458856 0.00433084 -0.04153718
v -0.00454188 0.00402980 -0.04158745
v -0.00454188 0.00360348 -0.04158939
v -0.00419934 0.00309855 -0.04180013
v -0.00419934 0.00259681 -0.04179626
v -0.00419934 0.00209252 -0.04176146
v -0.00346258 0.00024921 -0.04195480
v -0.00365594 0.00007855 -0.04184266
v -0.00322172 0.00007855 -0.04201860
v -0.00319005 0.00057965 -0.04208821
v -0.00268665 0.00158887 -0.04232988
v -0.00228327 0.00158887 -0.04242462
v -0.00203157 0.00158887 -0.04247102
v -0.00194489 0.00133321 -0.04245362
v -0.00117313 0.00158887 -0.04257736
v -0.00066973 0.00158887 -0.04261023
v -0.00016634 0.00158887 -0.04262763
v 0.00033789 0.00158887 -0.04261989
v 0.00084212 0.00158887 -0.04260249
v 0.00134719 0.00158887 -0.04256576
v 0.00207144 0.00137220 -0.04244782
v 0.00286154 -0.00043021 -0.04207854
v -0.00416350 0.00007472 -0.04157392
v 0.00234398 0.00156011 -0.04241495
v 0.00280904 0.00113188 -0.04226221
v 0.00286154 0.00007472 -0.04214234
v 0.00280904 0.00158504 -0.04230281
v 0.00280904 0.00209252 -0.04233375
v 0.00280904 0.00266904 -0.04234728
v 0.00280904 0.00317653 -0.04235115
v 0.00280904 0.00360412 -0.04235308
v 0.00246399 0.00410841 -0.04241882
v 0.00280904 0.00461142 -0.04226995
v 0.00280904 0.00466128 -0.04226221
v 0.00257317 0.00510165 -0.04224481
v 0.00281904 0.00561745 -0.04201667
v 0.00302823 0.00568392 -0.04193160
v 0.00336744 0.00568392 -0.04181366
v 0.00134719 0.00568392 -0.04221774
v 0.00084296 0.00568392 -0.04225061
v 0.00033789 0.00568392 -0.04226608
v 0.00026955 0.00568392 -0.04226801
v 0.00033789 0.00562192 -0.04230088
v -0.00016550 0.00562192 -0.04230475
v -0.00040387 0.00580728 -0.04220614
v 0.00287571 0.00568392 -0.04197413
v 0.00276903 0.00568392 -0.04200120
v 0.00235565 0.00568392 -0.04209207
v 0.00185142 0.00568392 -0.04216554
v -0.00484776 0.00580728 -0.04060335
v -0.00484776 0.00466192 -0.04131871
v -0.00476525 0.00511763 -0.04130324
v -0.00451271 0.00511763 -0.04148498
v -0.00456855 0.00461270 -0.04152172
v -0.00419934 0.00410841 -0.04179239
v -0.00419934 0.00360348 -0.04180013
v -0.00394514 0.00360348 -0.04194513
v -0.00394348 0.00309855 -0.04194320
v -0.00393764 0.00259681 -0.04193740
v -0.00390514 0.00209252 -0.04192580
v -0.00375178 0.00057965 -0.04185233
v -0.00349925 0.00057965 -0.04197220
v -0.00319005 0.00158887 -0.04217714
v -0.00268665 0.00209252 -0.04236275
v -0.00239078 0.00209252 -0.04244009
v -0.00213825 0.00209252 -0.04250002
v -0.00167736 0.00209252 -0.04257349
v -0.00167736 0.00158887 -0.04252322
v -0.00117313 0.00209252 -0.04262763
v -0.00066973 0.00209252 -0.04266630
v -0.00021801 0.00209252 -0.04268950
v -0.00016634 0.00209252 -0.04269143
v 0.00033789 0.00209252 -0.04269143
v 0.00084212 0.00209252 -0.04266630
v 0.00134719 0.00209252 -0.04261989
v 0.00188142 0.00156011 -0.04249809
v 0.00216979 0.00170839 -0.04246522
v 0.00245483 0.00209252 -0.04242075
v 0.00250233 0.00309919 -0.04242849
v 0.00251650 0.00360348 -0.04242849
v 0.00221229 0.00410841 -0.04247875
v 0.00213979 0.00441520 -0.04245749
v 0.00232731 0.00459481 -0.04238789
v 0.00235398 0.00508120 -0.04229895
v 0.00235565 0.00511763 -0.04229121
v 0.00257317 0.00561937 -0.04207274
v 0.00185142 0.00562192 -0.04219648
v 0.00134719 0.00562192 -0.04224675
v 0.00084296 0.00562192 -0.04228348
v 0.00033789 0.00531641 -0.04243235
v -0.00066973 0.00562192 -0.04229121
v -0.00066973 0.00580728 -0.04220034
v -0.00021801 0.00535156 -0.04242075
v 0.00235565 0.00562192 -0.04212107
v -0.00484525 0.00580728 -0.04100550
v -0.00484776 0.00575998 -0.04103063
v -0.00484776 0.00511763 -0.04123944
v -0.00447604 0.00540781 -0.04146178
v -0.00419934 0.00461270 -0.04174019
v -0.00405016 0.00433084 -0.04185233
v -0.00390930 0.00433084 -0.04192967
v -0.00393181 0.00410841 -0.04193547
v -0.00367928 0.00410841 -0.04205534
v -0.00369344 0.00360348 -0.04206307
v -0.00369094 0.00309855 -0.04206114
v -0.00368594 0.00259681 -0.04205340
v -0.00365261 0.00209252 -0.04203987
v -0.00319005 0.00209252 -0.04221001
v -0.00242412 0.00243639 -0.04244782
v -0.00319005 0.00259681 -0.04223321
v -0.00222659 0.00259937 -0.04250196
v -0.00207741 0.00259873 -0.04252902
v -0.00167736 0.00259681 -0.04259283
v -0.00167736 0.00309855 -0.04260636
v -0.00117313 0.00360348 -0.04266243
v -0.00066973 0.00360348 -0.04270303
v -0.00016634 0.00259681 -0.04271077
v 0.00033789 0.00259681 -0.04271077
v 0.00084212 0.00309855 -0.04268950
v 0.00134719 0.00259681 -0.04263536
v 0.00167723 0.00226701 -0.04257736
v 0.00167723 0.00209252 -0.04256769
v 0.00185142 0.00209252 -0.04253869
v 0.00220146 0.00209252 -0.04247489
v 0.00224980 0.00309919 -0.04248262
v 0.00226397 0.00360348 -0.04248455
v 0.00185142 0.00360348 -0.04256576
v 0.00185142 0.00410841 -0.04254062
v 0.00183725 0.00459481 -0.04248262
v 0.00199477 0.00475140 -0.04243622
v 0.00184058 0.00508120 -0.04238982
v 0.00183725 0.00508887 -0.04238789
v 0.00182891 0.00508120 -0.04239175
v 0.00134719 0.00521798 -0.04240528
v 0.00084296 0.00528637 -0.04242462
v -0.00016550 0.00532088 -0.04243235
v 0.00033789 0.00508120 -0.04251162
v -0.00021801 0.00509271 -0.04251162
v -0.00117313 0.00562192 -0.04226415
v -0.00117313 0.00580728 -0.04217908
v -0.00087893 0.00580728 -0.04219261
v -0.00066973 0.00530363 -0.04242849
v -0.00021801 0.00531897 -0.04243235
v -0.00466357 0.00580728 -0.04113117
v -0.00484776 0.00557782 -0.04110603
v -0.00484776 0.00524035 -0.04120850
v -0.00419934 0.00511763 -0.04166092
v -0.00437603 0.00580728 -0.04132258
v -0.00406932 0.00580728 -0.04149465
v -0.00418017 0.00559444 -0.04153332
v -0.00345008 0.00537777 -0.04195093
v -0.00377512 0.00511763 -0.04187553
v -0.00387930 0.00461270 -0.04191613
v -0.00362760 0.00461270 -0.04203600
v -0.00338257 0.00433084 -0.04215008
v -0.00319005 0.00410841 -0.04223708
v -0.00319005 0.00360348 -0.04225255
v -0.00319005 0.00309855 -0.04224481
v -0.00245746 0.00309855 -0.04245555
v -0.00218242 0.00309855 -0.04252322
v -0.00207741 0.00299501 -0.04253869
v -0.00207741 0.00360348 -0.04254836
v -0.00167736 0.00360348 -0.04261023
v -0.00117313 0.00410841 -0.04263923
v -0.00066973 0.00410841 -0.04267403
v -0.00021801 0.00365525 -0.04272043
v -0.00021801 0.00360348 -0.04272236
v -0.00021801 0.00315160 -0.04272043
v -0.00016634 0.00309855 -0.04272236
v 0.00033789 0.00309855 -0.04271850
v 0.00084212 0.00360348 -0.04269336
v 0.00134719 0.00309855 -0.04264309
v 0.00185142 0.00309919 -0.04256382
v 0.00134719 0.00360348 -0.04264503
v 0.00134719 0.00410841 -0.04261409
v 0.00134719 0.00461270 -0.04254256
v 0.00167723 0.00489265 -0.04245749
v 0.00167723 0.00508056 -0.04241109
v 0.00134719 0.00508056 -0.04244975
v 0.00084212 0.00503327 -0.04250582
v 0.00033789 0.00461270 -0.04261796
v -0.00016634 0.00506778 -0.04251936
v -0.00021801 0.00506650 -0.04251936
v -0.00066973 0.00505052 -0.04250969
v -0.00167819 0.00562192 -0.04222741
v -0.00139732 0.00580728 -0.04216361
v -0.00117313 0.00526208 -0.04241882
v -0.00366011 0.00580728 -0.04167639
v -0.00364927 0.00557591 -0.04178466
v -0.00319005 0.00574272 -0.04189293
v -0.00319005 0.00549026 -0.04199927
v -0.00319005 0.00511763 -0.04209981
v -0.00352176 0.00511763 -0.04198574
v -0.00319005 0.00461270 -0.04219068
v -0.00265831 0.00412247 -0.04239369
v -0.00247162 0.00396332 -0.04245749
v -0.00247996 0.00360348 -0.04245942
v -0.00218242 0.00360348 -0.04253096
v -0.00221243 0.00412247 -0.04249809
v -0.00207741 0.00399017 -0.04252709
v -0.00167736 0.00410841 -0.04258316
v -0.00169486 0.00433084 -0.04255223
v -0.00117313 0.00461270 -0.04257349
v -0.00066973 0.00433084 -0.04264503
v -0.00016634 0.00410841 -0.04269143
v -0.00016634 0.00360348 -0.04272430
v 0.00033789 0.00360348 -0.04272043
v 0.00033789 0.00410841 -0.04268950
v 0.00084212 0.00410841 -0.04266050
v 0.00084212 0.00461270 -0.04259283
v 0.00134719 0.00496488 -0.04248069
v -0.00016634 0.00461270 -0.04261989
v -0.00066973 0.00461270 -0.04260636
v -0.00117313 0.00500962 -0.04249422
v -0.00171986 0.00511380 -0.04240915
v -0.00218159 0.00562192 -0.04216361
v -0.00167819 0.00580728 -0.04214041
v -0.00319005 0.00580728 -0.04186200
v -0.00302669 0.00580728 -0.04192000
v -0.00284334 0.00580728 -0.04197220
v -0.00270915 0.00566347 -0.04205727
v -0.00268665 0.00511763 -0.04223708
v -0.00268665 0.00461270 -0.04232021
v -0.00238328 0.00433084 -0.04244395
v -0.00239912 0.00429952 -0.04244395
v -0.00206407 0.00451555 -0.04247682
v -0.00188905 0.00433084 -0.04252516
v -0.00171986 0.00465553 -0.04250582
v -0.00157901 0.00494251 -0.04247296
v -0.00218159 0.00511763 -0.04233955
v -0.00191405 0.00485238 -0.04244975
v -0.00218159 0.00580728 -0.04207274
v -0.00221243 0.00465553 -0.04242655
f 1 2 3
f 1 3 4
f 1 4 11
f 1 11 33
f 1 33 52
f 1 52 92
f 1 92 58
f 1 58 36
f 1 36 12
f 1 12 5
f 1 5 2
f 2 6 3
f 2 5 7
f 2 7 14
f 2 14 13
f 2 13 37
f 2 37 57
f 2 57 60
f 2 60 102
f 2 102 154
f 2 154 200
f 2 200 249
f 2 249 250
f 2 250 201
f 2 201 155
f 2 155 103
f 2 103 61
f 2 61 38
f 2 38 15
f 2 15 8
f 2 8 6
f 3 6 8
f 3 8 9
f 3 9 4
f 4 9 10
f 4 10 18
f 4 18 11
f 5 12 13
f 5 13 14
f 5 14 7
f 8 15 10
f 8 10 9
f 10 15 16
f 10 16 17
f 10 17 40
f 10 40 72
f 10 72 93
f 10 93 53
f 10 53 41
f 10 41 18
f 11 19 20
f 11 20 21
f 11 21 22
f 11 22 23
f 11 23 24
f 11 24 25
f 11 25 26
f 11 26 27
f 11 27 28
f 11 28 29
f 11 29 30
f 11 30 31
f 11 31 32
f 11 32 33
f 11 18 34
f 11 34 35
f 11 35 19
f 12 36 37
f 12 37 13
f 15 38 39
f 15 39 16
f 16 39 40
f 16 40 17
f 18 41 34
f 19 42 20
f 19 35 42
f 20 42 21
f 21 42 43
f 21 43 44
f 21 44 22
f 22 44 23
f 23 44 24
f 24 44 45
f 24 45 25
f 25 45 26
f 26 45 46
f 26 46 27
f 27 46 47
f 27 47 28
f 28 47 48
f 28 48 29
f 29 49 30
f 29 48 49
f 30 49 31
f 31 49 32
f 32 50 33
f 32 49 51
f 32 51 50
f 33 50 52
f 34 41 53
f 34 53 54
f 34 54 35
f 35 54 55
f 35 55 56
f 35 56 42
f 36 57 37
f 36 58 59
f 36 59 60
f 36 60 57
f 38 61 107
f 38 107 62
f 38 62 63
f 38 63 64
f 38 64 65
f 38 65 66
f 38 66 39
f 39 66 67
f 39 67 40
f 40 68 69
f 40 69 70
f 40 70 71
f 40 71 72
f 40 67 73
f 40 73 74
f 40 74 75
f 40 75 68
f 42 56 76
f 42 76 77
f 42 77 43
f 43 77 76
f 43 76 78
f 43 78 79
f 43 79 80
f 43 80 44
f 44 80 81
f 44 81 82
f 44 82 45
f 45 82 83
f 45 83 84
f 45 84 46
f 46 84 47
f 47 84 85
f 47 85 48
f 48 51 49
f 48 85 86
f 48 86 87
f 48 87 88
f 48 88 51
f 50 51 89
f 50 89 90
f 50 90 52
f 51 88 91
f 51 91 89
f 52 90 92
f 53 93 54
f 54 93 94
f 54 94 95
f 54 95 55
f 55 95 76
f 55 76 56
f 58 92 97
f 58 97 59
f 59 96 60
f 59 97 149
f 59 149 196
f 59 196 245
f 59 245 244
f 59 244 290
f 59 290 321
f 59 321 336
f 59 336 324
f 59 324 323
f 59 323 322
f 59 322 292
f 59 292 253
f 59 253 252
f 59 252 248
f 59 248 199
f 59 199 154
f 59 154 102
f 59 102 101
f 59 101 100
f 59 100 99
f 59 99 98
f 59 98 96
f 60 96 98
f 60 98 99
f 60 99 100
f 60 100 101
f 60 101 102
f 61 103 104
f 61 104 105
f 61 105 106
f 61 106 107
f 62 107 160
f 62 160 108
f 62 108 109
f 62 109 63
f 63 109 64
f 64 109 110
f 64 110 65
f 65 73 67
f 65 67 66
f 65 110 73
f 68 111 69
f 68 75 112
f 68 112 111
f 69 111 113
f 69 113 70
f 70 113 114
f 70 114 71
f 71 114 115
f 71 115 116
f 71 116 117
f 71 117 118
f 71 118 119
f 71 119 120
f 71 120 121
f 71 121 72
f 72 121 122
f 72 122 123
f 72 123 124
f 72 124 125
f 72 125 126
f 72 126 93
f 73 110 127
f 73 127 74
f 74 127 75
f 75 127 112
f 76 95 78
f 78 128 129
f 78 129 79
f 78 95 130
f 78 130 128
f 79 129 131
f 79 131 80
f 80 131 81
f 81 131 132
f 81 132 133
f 81 133 82
f 82 133 83
f 83 133 134
f 83 134 135
f 83 135 84
f 84 135 85
f 85 135 136
f 85 136 86
f 86 136 137
f 86 137 138
f 86 138 87
f 87 139 91
f 87 91 88
f 87 138 139
f 89 140 141
f 89 141 90
f 89 91 140
f 90 142 92
f 90 141 142
f 91 139 140
f 92 142 97
f 93 126 94
f 94 126 130
f 94 130 95
f 97 143 144
f 97 144 145
f 97 145 146
f 97 146 147
f 97 147 148
f 97 148 149
f 97 142 141
f 97 141 150
f 97 150 151
f 97 151 152
f 97 152 153
f 97 153 143
f 103 155 104
f 104 155 156
f 104 156 157
f 104 157 158
f 104 158 105
f 105 158 159
f 105 159 106
f 106 159 160
f 106 160 107
f 108 160 161
f 108 161 162
f 108 162 109
f 109 162 163
f 109 163 164
f 109 164 110
f 110 164 127
f 111 112 165
f 111 165 166
f 111 166 114
f 111 114 113
f 112 127 165
f 114 166 167
f 114 167 115
f 115 167 212
f 115 212 168
f 115 168 169
f 115 169 170
f 115 170 116
f 116 170 117
f 117 170 171
f 117 171 172
f 117 172 118
f 118 172 119
f 119 172 171
f 119 171 173
f 119 173 174
f 119 174 120
f 120 174 175
f 120 175 176
f 120 176 121
f 121 176 177
f 121 177 122
f 122 177 123
f 123 177 178
f 123 178 124
f 124 178 179
f 124 179 180
f 124 180 125
f 125 180 181
f 125 181 128
f 125 128 130
f 125 130 126
f 127 164 165
f 128 181 182
f 128 182 131
f 128 131 129
f 131 182 132
f 132 182 133
f 133 182 183
f 133 183 134
f 134 183 184
f 134 184 135
f 135 184 136
f 136 184 185
f 136 185 186
f 136 186 137
f 137 186 187
f 137 187 138
f 138 187 139
f 139 187 188
f 139 188 189
f 139 189 140
f 140 190 151
f 140 151 150
f 140 150 141
f 140 189 190
f 143 153 191
f 143 191 192
f 143 192 193
f 143 193 144
f 144 193 147
f 144 147 145
f 145 147 146
f 147 193 194
f 147 194 148
f 148 195 196
f 148 196 149
f 148 194 197
f 148 197 195
f 151 190 198
f 151 198 152
f 152 198 191
f 152 191 153
f 154 199 200
f 155 201 156
f 156 201 202
f 156 202 157
f 157 202 203
f 157 203 158
f 158 203 159
f 159 203 204
f 159 204 205
f 159 205 206
f 159 206 161
f 159 161 160
f 161 206 207
f 161 207 208
f 161 208 162
f 162 208 209
f 162 209 163
f 163 209 210
f 163 210 164
f 164 210 211
f 164 211 166
f 164 166 165
f 166 211 167
f 167 211 212
f 168 213 169
f 168 212 214
f 168 214 213
f 169 213 170
f 170 215 216
f 170 216 217
f 170 217 171
f 170 213 215
f 171 217 173
f 173 217 218
f 173 218 219
f 173 219 220
f 173 220 174
f 174 220 221
f 174 221 175
f 175 221 176
f 176 221 222
f 176 222 177
f 177 222 178
f 178 222 223
f 178 223 224
f 178 224 179
f 179 224 225
f 179 225 226
f 179 226 181
f 179 181 180
f 181 226 225
f 181 225 227
f 181 227 228
f 181 228 182
f 182 228 229
f 182 229 183
f 183 229 230
f 183 230 184
f 184 230 185
f 185 230 231
f 185 231 232
f 185 232 186
f 186 232 233
f 186 233 234
f 186 234 187
f 187 234 188
f 188 234 189
f 189 234 235
f 189 235 236
f 189 236 198
f 189 198 190
f 191 236 237
f 191 237 238
f 191 238 192
f 191 198 236
f 192 238 239
f 192 239 193
f 193 239 194
f 194 240 197
f 194 239 241
f 194 241 242
f 194 242 240
f 195 243 244
f 195 244 245
f 195 245 196
f 195 197 246
f 195 246 243
f 197 240 247
f 197 247 246
f 199 248 200
f 200 248 202
f 200 202 249
f 201 250 202
f 202 251 203
f 202 250 249
f 202 248 252
f 202 252 253
f 202 253 254
f 202 254 255
f 202 255 256
f 202 256 251
f 203 251 257
f 203 257 204
f 204 257 205
f 205 257 258
f 205 258 207
f 205 207 206
f 207 258 259
f 207 259 260
f 207 260 261
f 207 261 208
f 208 261 209
f 209 261 262
f 209 262 210
f 210 262 214
f 210 214 212
f 210 212 211
f 213 214 263
f 213 263 215
f 214 262 263
f 215 263 264
f 215 264 216
f 216 264 265
f 216 265 218
f 216 218 217
f 218 265 264
f 218 264 266
f 218 266 267
f 218 267 219
f 219 267 268
f 219 268 220
f 220 268 269
f 220 269 270
f 220 270 271
f 220 271 272
f 220 272 221
f 221 272 273
f 221 273 222
f 222 273 274
f 222 274 223
f 223 274 275
f 223 275 276
f 223 276 224
f 224 276 277
f 224 277 225
f 225 277 228
f 225 228 227
f 228 277 229
f 229 277 230
f 230 277 231
f 231 277 276
f 231 276 278
f 231 278 232
f 232 278 279
f 232 279 233
f 233 280 281
f 233 281 234
f 233 279 280
f 234 237 235
f 234 281 237
f 235 237 236
f 237 282 238
f 237 281 282
f 238 282 283
f 238 283 239
f 239 283 284
f 239 284 241
f 240 242 247
f 241 284 285
f 241 285 286
f 241 286 242
f 242 286 287
f 242 287 288
f 242 288 246
f 242 246 247
f 243 289 290
f 243 290 244
f 243 246 291
f 243 291 289
f 246 288 291
f 251 256 257
f 253 292 293
f 253 293 254
f 254 293 255
f 255 294 295
f 255 295 296
f 255 296 297
f 255 297 256
f 255 293 294
f 256 297 258
f 256 258 257
f 258 297 298
f 258 298 259
f 259 298 260
f 260 298 299
f 260 299 300
f 260 300 261
f 261 300 301
f 261 301 262
f 262 301 263
f 263 301 264
f 264 302 266
f 264 301 302
f 266 302 303
f 266 303 304
f 266 304 305
f 266 305 267
f 267 305 268
f 268 305 306
f 268 306 307
f 268 307 269
f 269 308 309
f 269 309 270
f 269 307 308
f 270 310 271
f 270 309 310
f 271 310 273
f 271 273 272
f 273 310 311
f 273 311 274
f 274 311 275
f 275 311 312
f 275 312 313
f 275 313 279
f 275 279 278
f 275 278 276
f 279 313 314
f 279 314 280
f 280 315 281
f 280 314 315
f 281 315 282
f 282 315 283
f 283 315 284
f 284 315 314
f 284 314 285
f 285 316 286
f 285 314 312
f 285 312 309
f 285 309 316
f 286 316 287
f 287 316 317
f 287 317 288
f 288 318 291
f 288 317 318
f 289 291 319
f 289 319 320
f 289 320 321
f 289 321 290
f 291 318 319
f 292 322 294
f 292 294 293
f 294 322 323
f 294 323 295
f 295 323 324
f 295 324 325
f 295 325 326
f 295 326 296
f 296 326 298
f 296 298 297
f 298 326 327
f 298 327 328
f 298 328 329
f 298 329 299
f 299 329 300
f 300 303 302
f 300 302 301
f 300 329 303
f 303 329 328
f 303 328 330
f 303 330 331
f 303 331 305
f 303 305 304
f 305 331 306
f 306 331 330
f 306 330 332
f 306 332 307
f 307 317 308
f 307 332 333
f 307 333 318
f 307 318 317
f 308 317 309
f 309 317 316
f 309 312 310
f 310 312 311
f 312 314 313
f 318 333 319
f 319 334 320
f 319 333 335
f 319 335 334
f 320 325 324
f 320 324 336
f 320 336 321
f 320 334 325
f 325 334 326
f 326 334 335
f 326 335 337
f 326 337 328
f 326 328 327
f 328 337 330
f 330 337 335
f 330 335 332
f 332 335 333

