# https://github.com/mikedh/trimesh
v 0.00474681 0.00578022 -0.04102650
v 0.00474681 0.00590563 -0.04096675
v 0.00487598 0.00578022 -0.04092079
v 0.00474681 0.00578022 -0.03827817
v 0.00474681 0.00601388 -0.04091160
v 0.00522588 0.00601492 -0.04052095
v 0.00499732 0.00578022 -0.04081968
v 0.00562231 0.00578022 -0.02210069
v 0.00553707 0.00579843 -0.01755078
v 0.00505130 0.00626939 -0.01755078
v 0.00498020 0.00658788 -0.01755078
v 0.00497090 0.00663159 -0.01755078
v 0.00474867 0.00800233 -0.02102296
v 0.00474681 0.00800337 -0.02505814
v 0.00474681 0.00622048 -0.04079440
v 0.00490092 0.00615595 -0.04070938
v 0.00542837 0.00578022 -0.04042674
v 0.00527725 0.00578022 -0.04057610
v 0.00511160 0.00635110 -0.04041984
v 0.00563273 0.00637347 -0.03992808
v 0.00571537 0.00603729 -0.04002689
v 0.00853506 0.00578022 -0.02210069
v 0.00854920 0.00579843 -0.01755078
v 0.00474867 0.00887504 -0.01755078
v 0.00474681 0.00861901 -0.02210069
v 0.00474681 0.00665813 -0.04053474
v 0.00475723 0.00663159 -0.04054393
v 0.00552702 0.00578022 -0.04032563
v 0.00500961 0.00663159 -0.04033252
v 0.00529102 0.00663159 -0.04007975
v 0.00517935 0.00693447 -0.03997864
v 0.00554302 0.00663159 -0.03982927
v 0.00566251 0.00691781 -0.03946160
v 0.00574105 0.00663159 -0.03957650
v 0.00600720 0.00665137 -0.03917895
v 0.00608574 0.00626939 -0.03934900
v 0.00590074 0.00615334 -0.03969829
v 0.00591675 0.00578022 -0.03987983
v 0.00576004 0.00578022 -0.04007975
v 0.00616652 0.00593321 -0.03946850
v 0.00852278 0.00578022 -0.02354380
v 0.00853543 0.00612732 -0.02210069
v 0.00853841 0.00612784 -0.02152391
v 0.00853804 0.00579843 -0.02152391
v 0.00854771 0.00579843 -0.01816892
v 0.00854958 0.00612784 -0.01755078
v 0.00474867 0.01109612 -0.01755078
v 0.00474681 0.01069593 -0.02210069
v 0.00474681 0.00683351 -0.04042444
v 0.00474681 0.00724931 -0.04005217
v 0.00474681 0.00738097 -0.03992349
v 0.00500067 0.00727065 -0.03980399
v 0.00516744 0.00742312 -0.03946620
v 0.00534127 0.00709423 -0.03963165
v 0.00474681 0.00700524 -0.04028426
v 0.00482647 0.00708851 -0.04013720
v 0.00550357 0.00725399 -0.03927777
v 0.00565060 0.00740231 -0.03893997
v 0.00610659 0.00734038 -0.03837008
v 0.00611441 0.00683299 -0.03887563
v 0.00619928 0.00649681 -0.03901351
v 0.00618736 0.00578022 -0.03950297
v 0.00626665 0.00611171 -0.03917895
v 0.00654285 0.00614502 -0.03866422
v 0.00628936 0.00578022 -0.03932373
v 0.00851496 0.00578022 -0.02404705
v 0.00852129 0.00612732 -0.02354380
v 0.00852724 0.00612732 -0.02304055
v 0.00853543 0.00612784 -0.02210069
v 0.00854920 0.00663159 -0.01755078
v 0.00854027 0.00612784 -0.02102066
v 0.00854474 0.00612784 -0.01950862
v 0.00474867 0.01093583 -0.01941211
v 0.00488007 0.01107842 -0.01755078
v 0.00474867 0.01091137 -0.01969246
v 0.00474681 0.01043469 -0.02505124
v 0.00474681 0.00746423 -0.03982468
v 0.00513989 0.00789981 -0.03893308
v 0.00532191 0.00758080 -0.03910542
v 0.00548682 0.00774837 -0.03867111
v 0.00574775 0.00749598 -0.03867111
v 0.00620523 0.00700420 -0.03854013
v 0.00590893 0.00765991 -0.03820004
v 0.00620374 0.00746580 -0.03803458
v 0.00630834 0.00715772 -0.03818855
v 0.00630536 0.00665137 -0.03869409
v 0.00662735 0.00632508 -0.03838617
v 0.00667611 0.00598890 -0.03849187
v 0.00658193 0.00578022 -0.03877682
v 0.00851198 0.00612732 -0.02404705
v 0.00848220 0.00578022 -0.02555909
v 0.00849002 0.00663159 -0.02304055
v 0.00851347 0.00663159 -0.02152391
v 0.00853320 0.00663159 -0.01950862
v 0.00854660 0.00663159 -0.01799428
v 0.00851049 0.00713638 -0.01755078
v 0.00538631 0.01098995 -0.01755078
v 0.00523369 0.01093687 -0.01849983
v 0.00515925 0.01092334 -0.01880545
v 0.00496829 0.01089264 -0.01950862
v 0.00487933 0.01067823 -0.02210069
v 0.00474681 0.01041335 -0.02529023
v 0.00474681 0.00783892 -0.03936279
v 0.00487933 0.00797527 -0.03905257
v 0.00501407 0.00833695 -0.03831263
v 0.00517972 0.00842698 -0.03797713
v 0.00523481 0.00797891 -0.03867111
v 0.00571090 0.00796538 -0.03802769
v 0.00559700 0.00785454 -0.03836319
v 0.00656258 0.00666282 -0.03819774
v 0.00606825 0.00782279 -0.03766232
v 0.00613711 0.00788940 -0.03740495
v 0.00628824 0.00757040 -0.03766232
v 0.00667388 0.00743769 -0.03698673
v 0.00661060 0.00732269 -0.03732222
v 0.00655141 0.00714731 -0.03768989
v 0.00662809 0.00685172 -0.03787603
v 0.00671073 0.00651554 -0.03805067
v 0.00676396 0.00614502 -0.03819774
v 0.00698730 0.00612732 -0.03766232
v 0.00679485 0.00578022 -0.03830804
v 0.00669696 0.00578022 -0.03853783
v 0.00848034 0.00663159 -0.02354380
v 0.00847103 0.00578022 -0.02606463
v 0.00847401 0.00612732 -0.02555909
v 0.00844758 0.00713638 -0.02152391
v 0.00845689 0.00713638 -0.02102066
v 0.00849784 0.00713638 -0.01849983
v 0.00850528 0.00713638 -0.01799428
v 0.00843344 0.00764117 -0.01755078
v 0.00544140 0.01097902 -0.01755078
v 0.00564204 0.01092126 -0.01777598
v 0.00557615 0.01090669 -0.01811148
v 0.00517637 0.01042324 -0.02440093
v 0.00509336 0.01040762 -0.02473643
v 0.00487933 0.01032280 -0.02606463
v 0.00474681 0.00997569 -0.03009292
v 0.00474681 0.00802158 -0.03908704
v 0.00474681 0.00809548 -0.03896754
v 0.00474681 0.00825733 -0.03869409
v 0.00485922 0.00822506 -0.03864813
v 0.00474681 0.00840304 -0.03843442
v 0.00485922 0.00849463 -0.03815408
v 0.00538817 0.00815116 -0.03817016
v 0.00474681 0.00860131 -0.03803458
v 0.00474681 0.00876628 -0.03766232
v 0.00483801 0.00873870 -0.03762325
v 0.00499956 0.00883705 -0.03715907
v 0.00528581 0.00848995 -0.03766232
v 0.00562529 0.00838847 -0.03739346
v 0.00553781 0.00831925 -0.03766232
v 0.00581624 0.00806686 -0.03766232
v 0.00592419 0.00817875 -0.03723031
v 0.00621900 0.00796954 -0.03706945
v 0.00655848 0.00777856 -0.03665353
v 0.00659161 0.00782227 -0.03647888
v 0.00661916 0.00785974 -0.03632722
v 0.00666829 0.00770726 -0.03647888
v 0.00672748 0.00752616 -0.03665353
v 0.00698246 0.00708590 -0.03660527
v 0.00676359 0.00714731 -0.03715447
v 0.00669696 0.00698651 -0.03753823
v 0.00679411 0.00666282 -0.03768989
v 0.00716523 0.00642447 -0.03695915
v 0.00712652 0.00578022 -0.03743942
v 0.00705244 0.00578022 -0.03764853
v 0.00684771 0.00578022 -0.03817706
v 0.00711349 0.00612732 -0.03730384
v 0.00713992 0.00581925 -0.03738197
v 0.00846768 0.00663159 -0.02404705
v 0.00842488 0.00713638 -0.02253500
v 0.00843530 0.00713638 -0.02210069
v 0.00845875 0.00612732 -0.02606463
v 0.00845391 0.00578022 -0.02657018
v 0.00838356 0.00764117 -0.02051742
v 0.00839361 0.00764117 -0.02001187
v 0.00831916 0.00814596 -0.01755078
v 0.00566251 0.01093011 -0.01755078
v 0.00585905 0.01083071 -0.01755078
v 0.00606229 0.01037380 -0.02152391
v 0.00601055 0.01034778 -0.02210069
v 0.00575818 0.01047372 -0.02210069
v 0.00564427 0.01041751 -0.02333469
v 0.00558471 0.01040190 -0.02367248
v 0.00540381 0.01045446 -0.02352082
v 0.00509559 0.00990231 -0.03026296
v 0.00490836 0.00995019 -0.03009292
v 0.00474681 0.00993926 -0.03044450
v 0.00474681 0.00854823 -0.03814948
v 0.00474681 0.00881728 -0.03753363
v 0.00474718 0.00895935 -0.03715907
v 0.00510900 0.00888961 -0.03686264
v 0.00542763 0.00858570 -0.03719814
v 0.00571090 0.00846028 -0.03705796
v 0.00604778 0.00830624 -0.03665353
v 0.00630611 0.00805437 -0.03665353
v 0.00647622 0.00794873 -0.03647888
v 0.00639582 0.00814752 -0.03615487
v 0.00667313 0.00792635 -0.03599172
v 0.00678592 0.00767135 -0.03615487
v 0.00674832 0.00757768 -0.03647888
v 0.00684064 0.00741376 -0.03647888
v 0.00709711 0.00676065 -0.03673855
v 0.00700182 0.00711869 -0.03647888
v 0.00708632 0.00696049 -0.03647888
v 0.00702601 0.00660817 -0.03714069
v 0.00719389 0.00612732 -0.03705107
v 0.00714848 0.00688451 -0.03640075
v 0.00716635 0.00678043 -0.03647888
v 0.00719501 0.00660817 -0.03660527
v 0.00722479 0.00661442 -0.03647888
v 0.00730184 0.00663159 -0.03614798
v 0.00742914 0.00612732 -0.03614798
v 0.00734837 0.00612732 -0.03647888
v 0.00730482 0.00612732 -0.03665353
v 0.00714290 0.00578022 -0.03739116
v 0.00721809 0.00578022 -0.03715218
v 0.00845242 0.00663159 -0.02455259
v 0.00835452 0.00713638 -0.02505354
v 0.00836941 0.00713638 -0.02455259
v 0.00841148 0.00713638 -0.02304055
v 0.00837202 0.00764117 -0.02102066
v 0.00840217 0.00663159 -0.02606463
v 0.00843642 0.00663159 -0.02505354
v 0.00843939 0.00612732 -0.02657018
v 0.00836792 0.00578022 -0.02858317
v 0.00820154 0.00848474 -0.01755078
v 0.00835825 0.00764117 -0.02152391
v 0.00824993 0.00809704 -0.02051742
v 0.00646170 0.01052263 -0.01755078
v 0.00639284 0.01020467 -0.02152391
v 0.00639284 0.01015887 -0.02202946
v 0.00642560 0.01000431 -0.02349554
v 0.00592419 0.01030354 -0.02304055
v 0.00612334 0.00990075 -0.02621860
v 0.00592903 0.01001472 -0.02605544
v 0.00583634 0.01001056 -0.02657018
v 0.00573063 0.00995748 -0.02757668
v 0.00564539 0.00991428 -0.02837406
v 0.00534797 0.00983935 -0.03009292
v 0.00474681 0.00943031 -0.03509093
v 0.00474681 0.00944748 -0.03493926
v 0.00474681 0.00888701 -0.03734980
v 0.00474681 0.00895883 -0.03715907
v 0.00474681 0.00909517 -0.03667191
v 0.00491618 0.00903064 -0.03667880
v 0.00520913 0.00893905 -0.03647888
v 0.00524226 0.00892240 -0.03647888
v 0.00554637 0.00885371 -0.03614798
v 0.00537254 0.00879958 -0.03667880
v 0.00570867 0.00864294 -0.03647888
v 0.00579577 0.00853002 -0.03665353
v 0.00608090 0.00833903 -0.03647888
v 0.00633812 0.00808716 -0.03647888
v 0.00617247 0.00842802 -0.03598253
v 0.00648218 0.00823547 -0.03564473
v 0.00672003 0.00798360 -0.03564473
v 0.00709153 0.00779209 -0.03463364
v 0.00693816 0.00764117 -0.03564473
v 0.00705244 0.00720247 -0.03614798
v 0.00732566 0.00578022 -0.03677761
v 0.00718272 0.00695008 -0.03614798
v 0.00741798 0.00663159 -0.03564473
v 0.00748535 0.00578022 -0.03614798
v 0.00753858 0.00612732 -0.03564473
v 0.00737666 0.00595195 -0.03647888
v 0.00736028 0.00578022 -0.03665353
v 0.00740420 0.00578022 -0.03647888
v 0.00833926 0.00713638 -0.02555909
v 0.00832214 0.00713638 -0.02606463
v 0.00837872 0.00663159 -0.02657018
v 0.00834596 0.00578022 -0.02908872
v 0.00841594 0.00612732 -0.02706883
v 0.00807423 0.00873714 -0.01755078
v 0.00824248 0.00807415 -0.02102066
v 0.00823280 0.00804969 -0.02152391
v 0.00819186 0.00846497 -0.01799428
v 0.00834112 0.00764117 -0.02202946
v 0.00831581 0.00777960 -0.02152391
v 0.00683766 0.01026243 -0.01755078
v 0.00664373 0.01041283 -0.01773461
v 0.00664521 0.00990960 -0.02329332
v 0.00639284 0.00972226 -0.02657018
v 0.00608798 0.00988254 -0.02657018
v 0.00588883 0.00961714 -0.03009292
v 0.00510639 0.00939701 -0.03430963
v 0.00474681 0.00939544 -0.03537128
v 0.00474681 0.00925910 -0.03601929
v 0.00488007 0.00918052 -0.03614798
v 0.00490240 0.00908789 -0.03647888
v 0.00529400 0.00898016 -0.03614798
v 0.00561933 0.00889222 -0.03585844
v 0.00586836 0.00876264 -0.03567231
v 0.00583932 0.00854719 -0.03647888
v 0.00623054 0.00848214 -0.03564473
v 0.00655476 0.00830624 -0.03514148
v 0.00678145 0.00805437 -0.03514148
v 0.00712949 0.00785974 -0.03428205
v 0.00722628 0.00754021 -0.03463364
v 0.00718272 0.00745539 -0.03504037
v 0.00705505 0.00762972 -0.03518055
v 0.00711461 0.00732269 -0.03564473
v 0.00724414 0.00707133 -0.03564473
v 0.00764020 0.00683507 -0.03430733
v 0.00752406 0.00663159 -0.03514148
v 0.00764988 0.00636202 -0.03487262
v 0.00759367 0.00578022 -0.03564703
v 0.00762569 0.00616739 -0.03516676
v 0.00764541 0.00582653 -0.03535059
v 0.00763760 0.00578022 -0.03542872
v 0.00822015 0.00753449 -0.02606463
v 0.00829869 0.00713638 -0.02657018
v 0.00820786 0.00750170 -0.02657018
v 0.00832065 0.00612732 -0.02908872
v 0.00829832 0.00663159 -0.02807992
v 0.00831618 0.00578022 -0.02958967
v 0.00816059 0.00840512 -0.01932938
v 0.00798043 0.00864763 -0.02051742
v 0.00785498 0.00915294 -0.01755078
v 0.00821866 0.00801950 -0.02210069
v 0.00810885 0.00830312 -0.02152391
v 0.00812113 0.00832602 -0.02102066
v 0.00685962 0.01024422 -0.01755078
v 0.00680453 0.01003658 -0.02051742
v 0.00677922 0.01001472 -0.02102066
v 0.00675316 0.00999286 -0.02152391
v 0.00672003 0.00996580 -0.02210069
v 0.00669361 0.00994551 -0.02253500
v 0.00675465 0.00949640 -0.02657018
v 0.00669137 0.00944332 -0.02757668
v 0.00664261 0.00940325 -0.02831891
v 0.00621565 0.00944644 -0.03009292
v 0.00617657 0.00942615 -0.03042382
v 0.00538408 0.00922944 -0.03463364
v 0.00496643 0.00934132 -0.03514148
v 0.00474681 0.00936578 -0.03554592
v 0.00484843 0.00930802 -0.03563784
v 0.00542428 0.00903324 -0.03567231
v 0.00568596 0.00893125 -0.03552294
v 0.00599864 0.00880011 -0.03514148
v 0.00630276 0.00854823 -0.03514148
v 0.00661357 0.00836609 -0.03463364
v 0.00683915 0.00811422 -0.03463364
v 0.00716039 0.00790918 -0.03394656
v 0.00725531 0.00767135 -0.03412120
v 0.00754342 0.00710412 -0.03413728
v 0.00743287 0.00713638 -0.03463364
v 0.00729067 0.00718322 -0.03518055
v 0.00714513 0.00738201 -0.03537587
v 0.00766700 0.00691417 -0.03397183
v 0.00785945 0.00663159 -0.03312160
v 0.00778649 0.00663159 -0.03362714
v 0.00770758 0.00665241 -0.03413728
v 0.00768003 0.00649785 -0.03453712
v 0.00761489 0.00665241 -0.03467500
v 0.00771577 0.00616739 -0.03467500
v 0.00767668 0.00602585 -0.03501739
v 0.00764876 0.00578022 -0.03537128
v 0.00820786 0.00799504 -0.02253500
v 0.00824360 0.00663159 -0.02908872
v 0.00816841 0.00692458 -0.02948626
v 0.00826891 0.00713638 -0.02706883
v 0.00816059 0.00739502 -0.02786622
v 0.00817176 0.00741948 -0.02757668
v 0.00819074 0.00746111 -0.02706883
v 0.00808689 0.00775358 -0.02657018
v 0.00810587 0.00778636 -0.02606463
v 0.00815761 0.00789305 -0.02429982
v 0.00816506 0.00790762 -0.02404705
v 0.00828938 0.00612732 -0.02958967
v 0.00827822 0.00578022 -0.03009292
v 0.00793204 0.00864763 -0.02152391
v 0.00768562 0.00944592 -0.01755078
v 0.00787657 0.00869238 -0.02210069
v 0.00771242 0.00898016 -0.02210069
v 0.00790523 0.00864763 -0.02202946
v 0.00811071 0.00823651 -0.02210069
v 0.00809321 0.00827138 -0.02210069
v 0.00687042 0.01023485 -0.01755078
v 0.00707924 0.00984091 -0.02001187
v 0.00705579 0.00981749 -0.02051742
v 0.00703197 0.00979459 -0.02102066
v 0.00700554 0.00977169 -0.02152391
v 0.00697688 0.00974828 -0.02202946
v 0.00703532 0.00929188 -0.02606463
v 0.00700703 0.00926326 -0.02657018
v 0.00704165 0.00879438 -0.03009292
v 0.00678927 0.00903637 -0.03009292
v 0.00646803 0.00928824 -0.03009292
v 0.00611217 0.00888129 -0.03424069
v 0.00581364 0.00900722 -0.03463364
v 0.00538408 0.00915710 -0.03514148
v 0.00574626 0.00896715 -0.03514148
v 0.00606527 0.00884954 -0.03463364
v 0.00636157 0.00859715 -0.03463364
v 0.00664186 0.00839471 -0.03436708
v 0.00696497 0.00820112 -0.03362714
v 0.00701224 0.00826097 -0.03312160
v 0.00718719 0.00794873 -0.03362714
v 0.00753970 0.00760370 -0.03261146
v 0.00743808 0.00764117 -0.03312160
v 0.00735470 0.00764117 -0.03362714
v 0.00756836 0.00722225 -0.03362714
v 0.00763834 0.00736015 -0.03277691
v 0.00769380 0.00697037 -0.03362714
v 0.00793017 0.00663159 -0.03261605
v 0.00780920 0.00612732 -0.03413039
v 0.00777756 0.00578022 -0.03464742
v 0.00769529 0.00578022 -0.03511161
v 0.00820116 0.00667687 -0.02962873
v 0.00815612 0.00687410 -0.02982176
v 0.00806679 0.00771299 -0.02706883
v 0.00809917 0.00710984 -0.02962873
v 0.00810885 0.00722537 -0.02908872
v 0.00788625 0.00764117 -0.02958967
v 0.00793352 0.00764117 -0.02908872
v 0.00804445 0.00759486 -0.02805465
v 0.00788960 0.00814492 -0.02657018
v 0.00792571 0.00814492 -0.02606463
v 0.00803701 0.00816053 -0.02404705
v 0.00816394 0.00591968 -0.03143491
v 0.00824844 0.00612732 -0.03009292
v 0.00816915 0.00578022 -0.03149236
v 0.00766998 0.00942615 -0.01799428
v 0.00744255 0.00969832 -0.01755078
v 0.00769976 0.00896143 -0.02253500
v 0.00768264 0.00893853 -0.02304055
v 0.00787546 0.00864763 -0.02253500
v 0.00719017 0.00995123 -0.01755078
v 0.00712466 0.00988618 -0.01900308
v 0.00728621 0.00954376 -0.02102066
v 0.00723893 0.00949640 -0.02202946
v 0.00723595 0.00949224 -0.02210069
v 0.00718868 0.00944488 -0.02304055
v 0.00711200 0.00936890 -0.02455259
v 0.00733757 0.00909101 -0.02505354
v 0.00728621 0.00903897 -0.02606463
v 0.00725903 0.00901139 -0.02657018
v 0.00728137 0.00854251 -0.03009292
v 0.00713433 0.00838795 -0.03180718
v 0.00705616 0.00831561 -0.03261605
v 0.00667462 0.00842490 -0.03403158
v 0.00722925 0.00800910 -0.03312160
v 0.00755682 0.00770414 -0.03211280
v 0.00766440 0.00741115 -0.03243911
v 0.00775336 0.00716917 -0.03261146
v 0.00773289 0.00705156 -0.03312160
v 0.00783190 0.00713638 -0.03211280
v 0.00798824 0.00663159 -0.03211280
v 0.00801356 0.00612732 -0.03261605
v 0.00787806 0.00612732 -0.03362714
v 0.00785684 0.00578022 -0.03413039
v 0.00793948 0.00713638 -0.03110401
v 0.00804482 0.00713638 -0.03009292
v 0.00815277 0.00635006 -0.03079838
v 0.00812448 0.00614033 -0.03149236
v 0.00812597 0.00661962 -0.03061685
v 0.00803515 0.00663159 -0.03160955
v 0.00788625 0.00713638 -0.03160955
v 0.00783116 0.00764117 -0.03009292
v 0.00770572 0.00799661 -0.02958967
v 0.00772917 0.00804240 -0.02908872
v 0.00774852 0.00818083 -0.02803626
v 0.00765398 0.00839783 -0.02783634
v 0.00766551 0.00841501 -0.02757668
v 0.00770758 0.00847902 -0.02657018
v 0.00772582 0.00850920 -0.02606463
v 0.00784419 0.00864763 -0.02304055
v 0.00814682 0.00578022 -0.03175892
v 0.00814309 0.00578022 -0.03180258
v 0.00807014 0.00612732 -0.03211280
v 0.00812002 0.00610339 -0.03160726
v 0.00765770 0.00941158 -0.01831829
v 0.00766365 0.00891407 -0.02354380
v 0.00748833 0.00923308 -0.02210069
v 0.00765286 0.00890106 -0.02380117
v 0.00753933 0.00876160 -0.02606463
v 0.00751029 0.00873089 -0.02657018
v 0.00763722 0.00837077 -0.02817414
v 0.00761675 0.00833643 -0.02858317
v 0.00759032 0.00829427 -0.02908872
v 0.00756352 0.00824848 -0.02958967
v 0.00753374 0.00819488 -0.03009292
v 0.00727020 0.00806374 -0.03261605
v 0.00768562 0.00745227 -0.03211280
v 0.00759442 0.00777752 -0.03149236
v 0.00769343 0.00758497 -0.03149236
v 0.00805413 0.00578022 -0.03261605
v 0.00792310 0.00578022 -0.03362714
v 0.00763983 0.00786703 -0.03073864
v 0.00767780 0.00794300 -0.03009292
v 0.00771577 0.00751211 -0.03160955
f 1 2 3
f 1 3 7
f 1 7 18
f 1 18 17
f 1 17 28
f 1 28 39
f 1 39 38
f 1 38 62
f 1 62 65
f 1 65 89
f 1 89 122
f 1 122 121
f 1 121 167
f 1 167 166
f 1 166 165
f 1 165 216
f 1 216 217
f 1 217 261
f 1 261 267
f 1 267 268
f 1 268 264
f 1 264 307
f 1 307 310
f 1 310 358
f 1 358 409
f 1 409 408
f 1 408 452
f 1 452 489
f 1 489 488
f 1 488 470
f 1 470 469
f 1 469 423
f 1 423 371
f 1 371 316
f 1 316 272
f 1 272 226
f 1 226 174
f 1 174 124
f 1 124 91
f 1 91 66
f 1 66 41
f 1 41 22
f 1 22 8
f 1 8 4
f 1 4 14
f 1 14 25
f 1 25 48
f 1 48 76
f 1 76 102
f 1 102 137
f 1 137 188
f 1 188 242
f 1 242 241
f 1 241 287
f 1 287 336
f 1 336 288
f 1 288 245
f 1 245 244
f 1 244 243
f 1 243 190
f 1 190 146
f 1 146 145
f 1 145 189
f 1 189 142
f 1 142 140
f 1 140 139
f 1 139 138
f 1 138 103
f 1 103 77
f 1 77 51
f 1 51 50
f 1 50 55
f 1 55 49
f 1 49 26
f 1 26 15
f 1 15 5
f 1 5 2
f 2 5 6
f 2 6 3
f 3 6 7
f 4 8 9
f 4 9 10
f 4 10 11
f 4 11 12
f 4 12 13
f 4 13 14
f 5 15 16
f 5 16 6
f 6 17 18
f 6 18 7
f 6 16 19
f 6 19 20
f 6 20 21
f 6 21 17
f 8 22 23
f 8 23 9
f 9 23 46
f 9 46 70
f 9 70 96
f 9 96 130
f 9 130 177
f 9 177 227
f 9 227 274
f 9 274 319
f 9 319 373
f 9 373 425
f 9 425 429
f 9 429 379
f 9 379 323
f 9 323 280
f 9 280 230
f 9 230 179
f 9 179 178
f 9 178 131
f 9 131 97
f 9 97 74
f 9 74 47
f 9 47 24
f 9 24 12
f 9 12 11
f 9 11 10
f 12 24 13
f 13 24 25
f 13 25 14
f 15 26 27
f 15 27 16
f 16 27 19
f 17 21 28
f 19 27 29
f 19 29 30
f 19 30 20
f 20 30 31
f 20 31 32
f 20 32 33
f 20 33 34
f 20 34 35
f 20 35 36
f 20 36 37
f 20 37 21
f 21 38 39
f 21 39 28
f 21 37 40
f 21 40 38
f 22 41 42
f 22 42 43
f 22 43 44
f 22 44 45
f 22 45 23
f 23 45 46
f 24 47 48
f 24 48 25
f 26 49 27
f 27 49 29
f 29 49 31
f 29 31 30
f 31 50 51
f 31 51 52
f 31 52 53
f 31 53 54
f 31 54 33
f 31 33 32
f 31 49 55
f 31 55 56
f 31 56 50
f 33 57 58
f 33 58 59
f 33 59 60
f 33 60 35
f 33 35 34
f 33 54 57
f 35 60 61
f 35 61 36
f 36 61 40
f 36 40 37
f 38 40 62
f 40 61 63
f 40 63 64
f 40 64 65
f 40 65 62
f 41 66 67
f 41 67 68
f 41 68 42
f 42 69 43
f 42 68 69
f 43 69 70
f 43 70 71
f 43 71 44
f 44 71 72
f 44 72 45
f 45 72 46
f 46 72 70
f 47 73 48
f 47 74 73
f 48 73 75
f 48 75 76
f 50 56 55
f 51 77 78
f 51 78 53
f 51 53 52
f 53 78 79
f 53 79 58
f 53 58 57
f 53 57 54
f 58 79 78
f 58 78 80
f 58 80 81
f 58 81 59
f 59 82 60
f 59 81 83
f 59 83 84
f 59 84 85
f 59 85 82
f 60 82 86
f 60 86 61
f 61 86 87
f 61 87 63
f 63 87 64
f 64 87 88
f 64 88 89
f 64 89 65
f 66 90 67
f 66 91 90
f 67 90 92
f 67 92 93
f 67 93 68
f 68 93 94
f 68 94 95
f 68 95 69
f 69 95 70
f 70 72 71
f 70 95 96
f 73 74 75
f 74 97 98
f 74 98 99
f 74 99 100
f 74 100 75
f 75 100 101
f 75 101 76
f 76 101 102
f 77 103 78
f 78 103 104
f 78 104 105
f 78 105 106
f 78 106 107
f 78 107 108
f 78 108 109
f 78 109 80
f 80 109 81
f 81 109 83
f 82 85 110
f 82 110 86
f 83 108 84
f 83 109 108
f 84 108 111
f 84 111 112
f 84 112 113
f 84 113 114
f 84 114 115
f 84 115 116
f 84 116 85
f 85 116 117
f 85 117 110
f 86 110 87
f 87 110 118
f 87 118 119
f 87 119 88
f 88 119 120
f 88 120 121
f 88 121 122
f 88 122 89
f 90 123 92
f 90 91 124
f 90 124 125
f 90 125 123
f 92 123 126
f 92 126 127
f 92 127 128
f 92 128 93
f 93 128 129
f 93 129 96
f 93 96 94
f 94 96 95
f 96 129 130
f 97 131 132
f 97 132 133
f 97 133 98
f 98 133 134
f 98 134 99
f 99 134 135
f 99 135 101
f 99 101 100
f 101 135 136
f 101 136 102
f 102 136 137
f 103 138 104
f 104 138 139
f 104 139 140
f 104 140 141
f 104 141 105
f 105 141 140
f 105 140 142
f 105 142 143
f 105 143 106
f 106 144 107
f 106 143 145
f 106 145 146
f 106 146 147
f 106 147 148
f 106 148 149
f 106 149 150
f 106 150 151
f 106 151 144
f 107 144 108
f 108 144 151
f 108 151 150
f 108 150 152
f 108 152 111
f 110 117 118
f 111 152 112
f 112 152 150
f 112 150 153
f 112 153 154
f 112 154 113
f 113 154 155
f 113 155 114
f 114 155 156
f 114 156 157
f 114 157 158
f 114 158 159
f 114 159 160
f 114 160 161
f 114 161 115
f 115 161 162
f 115 162 116
f 116 162 117
f 117 162 163
f 117 163 118
f 118 163 164
f 118 164 120
f 118 120 119
f 120 165 166
f 120 166 167
f 120 167 121
f 120 164 168
f 120 168 169
f 120 169 165
f 123 125 170
f 123 170 171
f 123 171 172
f 123 172 126
f 124 173 125
f 124 174 173
f 125 173 218
f 125 218 170
f 126 172 175
f 126 175 176
f 126 176 127
f 127 176 128
f 128 176 130
f 128 130 129
f 130 176 177
f 131 178 132
f 132 178 179
f 132 179 180
f 132 180 181
f 132 181 182
f 132 182 183
f 132 183 184
f 132 184 133
f 133 184 185
f 133 185 134
f 134 185 184
f 134 184 186
f 134 186 135
f 135 186 187
f 135 187 136
f 136 187 137
f 137 187 188
f 142 189 143
f 143 189 145
f 146 190 147
f 147 190 148
f 148 191 192
f 148 192 149
f 148 190 191
f 149 192 193
f 149 193 150
f 150 193 194
f 150 194 153
f 153 194 154
f 154 194 195
f 154 195 196
f 154 196 197
f 154 197 157
f 154 157 156
f 154 156 155
f 157 198 199
f 157 199 200
f 157 200 201
f 157 201 158
f 157 197 198
f 158 201 159
f 159 201 202
f 159 202 160
f 160 203 161
f 160 202 204
f 160 204 205
f 160 205 203
f 161 203 206
f 161 206 162
f 162 206 163
f 163 206 164
f 164 207 168
f 164 206 203
f 164 203 208
f 164 208 209
f 164 209 210
f 164 210 211
f 164 211 212
f 164 212 213
f 164 213 214
f 164 214 215
f 164 215 207
f 165 169 216
f 168 207 169
f 169 207 217
f 169 217 216
f 170 218 269
f 170 269 219
f 170 219 220
f 170 220 221
f 170 221 171
f 171 221 222
f 171 222 172
f 172 222 175
f 173 223 224
f 173 224 218
f 173 174 225
f 173 225 223
f 174 226 225
f 175 222 177
f 175 177 176
f 177 222 228
f 177 228 229
f 177 229 227
f 179 230 180
f 180 230 231
f 180 231 232
f 180 232 181
f 181 232 233
f 181 233 234
f 181 234 183
f 181 183 182
f 183 234 235
f 183 235 236
f 183 236 237
f 183 237 238
f 183 238 239
f 183 239 240
f 183 240 186
f 183 186 184
f 186 188 187
f 186 240 241
f 186 241 242
f 186 242 188
f 190 243 191
f 191 243 244
f 191 244 245
f 191 245 246
f 191 246 192
f 192 246 247
f 192 247 248
f 192 248 249
f 192 249 250
f 192 250 193
f 193 250 194
f 194 250 249
f 194 249 251
f 194 251 252
f 194 252 195
f 195 252 253
f 195 253 196
f 196 253 254
f 196 254 197
f 197 254 198
f 198 255 256
f 198 256 199
f 198 254 253
f 198 253 255
f 199 256 257
f 199 257 258
f 199 258 259
f 199 259 200
f 200 259 260
f 200 260 201
f 201 260 202
f 202 260 204
f 203 205 208
f 204 260 205
f 205 260 208
f 207 215 261
f 207 261 217
f 208 260 262
f 208 262 212
f 208 212 209
f 209 212 211
f 209 211 210
f 212 262 263
f 212 263 213
f 213 264 214
f 213 263 265
f 213 265 264
f 214 264 266
f 214 266 215
f 215 267 261
f 215 266 268
f 215 268 267
f 218 224 269
f 219 269 228
f 219 228 220
f 220 228 221
f 221 228 222
f 223 270 269
f 223 269 224
f 223 225 271
f 223 271 312
f 223 312 270
f 225 226 272
f 225 272 273
f 225 273 271
f 227 229 275
f 227 275 276
f 227 276 277
f 227 277 274
f 228 269 270
f 228 270 278
f 228 278 279
f 228 279 275
f 228 275 229
f 230 280 281
f 230 281 231
f 231 281 282
f 231 282 232
f 232 282 233
f 233 282 235
f 233 235 234
f 235 283 284
f 235 284 237
f 235 237 236
f 235 282 283
f 237 284 285
f 237 285 238
f 238 285 239
f 239 285 240
f 240 285 286
f 240 286 287
f 240 287 241
f 245 288 289
f 245 289 290
f 245 290 246
f 246 290 247
f 247 290 291
f 247 291 292
f 247 292 248
f 248 292 249
f 249 292 251
f 251 292 252
f 252 292 293
f 252 293 294
f 252 294 255
f 252 255 253
f 255 294 295
f 255 295 256
f 256 295 296
f 256 296 257
f 257 296 297
f 257 297 298
f 257 298 258
f 258 298 299
f 258 299 300
f 258 300 301
f 258 301 259
f 259 301 302
f 259 302 260
f 260 302 262
f 262 302 303
f 262 303 304
f 262 304 263
f 263 304 305
f 263 305 306
f 263 306 265
f 264 268 266
f 264 265 307
f 265 306 308
f 265 308 309
f 265 309 310
f 265 310 307
f 270 311 278
f 270 312 313
f 270 313 311
f 271 273 314
f 271 314 315
f 271 315 312
f 272 314 273
f 272 316 314
f 274 277 317
f 274 317 318
f 274 318 319
f 275 279 278
f 275 278 276
f 276 278 311
f 276 311 320
f 276 320 321
f 276 321 322
f 276 322 317
f 276 317 277
f 280 323 281
f 281 323 324
f 281 324 325
f 281 325 326
f 281 326 327
f 281 327 328
f 281 328 282
f 282 328 329
f 282 329 330
f 282 330 331
f 282 331 283
f 283 331 332
f 283 332 284
f 284 332 285
f 285 332 333
f 285 333 334
f 285 334 286
f 286 334 335
f 286 335 287
f 287 335 337
f 287 337 336
f 288 336 337
f 288 337 289
f 289 337 338
f 289 338 291
f 289 291 290
f 291 338 292
f 292 338 339
f 292 339 293
f 293 339 340
f 293 340 295
f 293 295 294
f 295 340 341
f 295 341 296
f 296 341 342
f 296 342 297
f 297 342 343
f 297 343 344
f 297 344 298
f 298 344 345
f 298 345 346
f 298 346 347
f 298 347 299
f 299 347 300
f 300 348 303
f 300 303 349
f 300 349 301
f 300 347 348
f 301 349 302
f 302 349 303
f 303 348 347
f 303 347 304
f 304 350 351
f 304 351 352
f 304 352 353
f 304 353 354
f 304 354 306
f 304 306 355
f 304 355 305
f 304 347 350
f 305 355 306
f 306 354 356
f 306 356 357
f 306 357 308
f 308 357 309
f 309 358 310
f 309 357 358
f 311 313 359
f 311 359 320
f 312 315 360
f 312 360 361
f 312 361 362
f 312 362 363
f 312 363 364
f 312 364 365
f 312 365 313
f 313 365 366
f 313 366 367
f 313 367 368
f 313 368 369
f 313 369 359
f 314 360 315
f 314 316 370
f 314 370 360
f 316 371 370
f 317 322 318
f 318 322 321
f 318 321 372
f 318 372 319
f 319 372 374
f 319 374 375
f 319 375 373
f 320 359 321
f 321 376 372
f 321 359 377
f 321 377 378
f 321 378 376
f 323 379 324
f 324 380 381
f 324 381 382
f 324 382 325
f 324 379 380
f 325 382 326
f 326 382 383
f 326 383 384
f 326 384 327
f 327 384 329
f 327 329 328
f 329 385 386
f 329 386 330
f 329 384 385
f 330 386 331
f 331 386 387
f 331 387 388
f 331 388 389
f 331 389 332
f 332 389 333
f 333 389 390
f 333 390 391
f 333 391 392
f 333 392 334
f 334 392 335
f 335 392 337
f 337 392 338
f 338 392 339
f 339 392 393
f 339 393 340
f 340 393 394
f 340 394 341
f 341 394 395
f 341 395 396
f 341 396 342
f 342 396 397
f 342 397 343
f 343 397 344
f 344 397 398
f 344 398 399
f 344 399 400
f 344 400 401
f 344 401 402
f 344 402 345
f 345 402 346
f 346 402 403
f 346 403 350
f 346 350 347
f 350 403 404
f 350 404 405
f 350 405 406
f 350 406 351
f 351 406 407
f 351 407 352
f 352 407 354
f 352 354 353
f 354 407 356
f 356 408 357
f 356 407 408
f 357 408 409
f 357 409 358
f 359 369 378
f 359 378 377
f 360 370 410
f 360 410 411
f 360 411 361
f 361 363 362
f 361 411 363
f 363 412 366
f 363 366 364
f 363 411 413
f 363 413 414
f 363 414 415
f 363 415 416
f 363 416 417
f 363 417 412
f 364 366 365
f 366 418 419
f 366 419 367
f 366 412 418
f 367 419 368
f 368 420 369
f 368 419 420
f 369 420 378
f 370 371 421
f 370 421 422
f 370 422 411
f 370 411 410
f 371 423 421
f 372 376 374
f 373 424 425
f 373 375 426
f 373 426 427
f 373 427 424
f 374 376 428
f 374 428 427
f 374 427 426
f 374 426 375
f 376 378 420
f 376 420 428
f 379 429 430
f 379 430 380
f 380 430 429
f 380 429 431
f 380 431 381
f 381 431 382
f 382 431 432
f 382 432 383
f 383 432 433
f 383 433 434
f 383 434 435
f 383 435 385
f 383 385 384
f 385 436 437
f 385 437 438
f 385 438 386
f 385 435 436
f 386 438 387
f 387 439 440
f 387 440 441
f 387 441 442
f 387 442 388
f 387 438 439
f 388 442 396
f 388 396 395
f 388 395 390
f 388 390 389
f 390 395 394
f 390 394 391
f 391 394 393
f 391 393 392
f 396 442 441
f 396 441 398
f 396 398 397
f 398 441 443
f 398 443 399
f 399 443 400
f 400 444 445
f 400 445 404
f 400 404 401
f 400 443 444
f 401 404 402
f 402 404 403
f 404 445 446
f 404 446 447
f 404 447 405
f 405 447 406
f 406 447 448
f 406 448 449
f 406 449 450
f 406 450 451
f 406 451 407
f 407 451 452
f 407 452 408
f 411 453 454
f 411 454 413
f 411 422 455
f 411 455 456
f 411 456 457
f 411 457 458
f 411 458 449
f 411 449 459
f 411 459 453
f 412 417 418
f 413 454 414
f 414 454 415
f 415 454 453
f 415 453 459
f 415 459 448
f 415 448 460
f 415 460 461
f 415 461 416
f 416 462 463
f 416 463 417
f 416 461 462
f 417 463 418
f 418 463 464
f 418 464 465
f 418 465 466
f 418 466 419
f 419 466 467
f 419 467 468
f 419 468 428
f 419 428 420
f 421 455 422
f 421 423 469
f 421 469 470
f 421 470 471
f 421 471 472
f 421 472 456
f 421 456 455
f 424 473 425
f 424 427 473
f 425 473 431
f 425 431 429
f 427 428 468
f 427 468 467
f 427 467 474
f 427 474 473
f 431 473 475
f 431 475 432
f 432 475 476
f 432 476 433
f 433 476 434
f 434 476 435
f 435 476 436
f 436 476 437
f 437 476 438
f 438 476 477
f 438 477 478
f 438 478 439
f 439 478 464
f 439 464 479
f 439 479 480
f 439 480 481
f 439 481 482
f 439 482 483
f 439 483 484
f 439 484 440
f 440 484 441
f 441 484 443
f 443 484 444
f 444 485 445
f 444 484 483
f 444 483 486
f 444 486 487
f 444 487 485
f 445 485 448
f 445 448 446
f 446 448 447
f 448 459 449
f 448 485 460
f 449 458 471
f 449 471 450
f 450 471 488
f 450 488 489
f 450 489 452
f 450 452 451
f 456 472 458
f 456 458 457
f 458 472 471
f 460 487 490
f 460 490 491
f 460 491 461
f 460 485 492
f 460 492 487
f 461 482 481
f 461 481 480
f 461 480 462
f 461 491 482
f 462 480 479
f 462 479 464
f 462 464 463
f 464 478 477
f 464 477 476
f 464 476 465
f 465 476 466
f 466 476 474
f 466 474 467
f 470 488 471
f 473 474 475
f 474 476 475
f 482 491 483
f 483 491 490
f 483 490 486
f 485 487 492
f 486 490 487

