# https://github.com/mikedh/trimesh
v 0.00464367 -0.01022137 -0.01547266
v 0.00464367 -0.01019818 -0.01698559
v 0.00487962 -0.01011770 -0.01547266
v 0.00487962 -0.01009996 -0.01496733
v 0.00464367 -0.01021728 -0.01536853
v 0.00487962 -0.01009314 -0.01698559
v 0.00464367 -0.00998537 -0.02155192
v 0.00487962 -0.00991171 -0.02102209
v 0.00534415 -0.00988306 -0.01547266
v 0.00534260 -0.00987488 -0.01496733
v 0.00533137 -0.00986806 -0.01698559
v 0.00464367 -0.01019546 -0.01496733
v 0.00526822 -0.00983123 -0.01460288
v 0.00492999 -0.00986396 -0.02157949
v 0.00513184 -0.00976029 -0.02177856
v 0.00464367 -0.00996082 -0.02203275
v 0.00486335 -0.00987079 -0.02203275
v 0.00559599 -0.00973573 -0.01547266
v 0.00559521 -0.00973710 -0.01496733
v 0.00558359 -0.00973028 -0.01698559
v 0.00464367 -0.01014089 -0.01482951
v 0.00487962 -0.00991853 -0.01451713
v 0.00592298 -0.00940697 -0.01444056
v 0.00611398 -0.00924463 -0.01425375
v 0.00577808 -0.00932239 -0.01415574
v 0.00534183 -0.00965116 -0.02157949
v 0.00511557 -0.00975347 -0.02203275
v 0.00538406 -0.00960341 -0.02203275
v 0.00464367 -0.00992262 -0.02253502
v 0.00482228 -0.00985032 -0.02253502
v 0.00588850 -0.00952292 -0.01698559
v 0.00588850 -0.00953384 -0.01496733
v 0.00618372 -0.00928965 -0.01459063
v 0.00541389 -0.00963615 -0.02102209
v 0.00579125 -0.00935923 -0.02203275
v 0.00581062 -0.00937150 -0.02152742
v 0.00464367 -0.00997855 -0.01451713
v 0.00790470 -0.00538952 -0.01018661
v 0.00487962 -0.00970027 -0.01426293
v 0.00668894 -0.00879310 -0.01415268
v 0.00821775 -0.00527356 -0.01018661
v 0.00804999 -0.00533904 -0.01018661
v 0.00507450 -0.00973300 -0.02253502
v 0.00538406 -0.00956658 -0.02253502
v 0.00576607 -0.00934149 -0.02253502
v 0.00464367 -0.00976438 -0.02437258
v 0.00614614 -0.00926101 -0.01885377
v 0.00619535 -0.00930057 -0.01698559
v 0.00611089 -0.00923372 -0.02001450
v 0.00620387 -0.00930466 -0.01496733
v 0.00645609 -0.00909594 -0.01496733
v 0.00672226 -0.00882857 -0.01446506
v 0.00604386 -0.00918325 -0.02203275
v 0.00606284 -0.00919825 -0.02152742
v 0.00464367 -0.00985987 -0.01437931
v 0.00764009 -0.00542635 -0.01018661
v 0.00719066 -0.00829654 -0.01410980
v 0.00709187 -0.00821469 -0.01377292
v 0.00840411 -0.00496799 -0.01018661
v 0.00761916 -0.00770041 -0.01396280
v 0.00773229 -0.00736482 -0.01354016
v 0.00538406 -0.00947654 -0.02354568
v 0.00480872 -0.00934149 -0.02807833
v 0.00510123 -0.00924191 -0.02766794
v 0.00513339 -0.00925691 -0.02732799
v 0.00573585 -0.00932103 -0.02304035
v 0.00564519 -0.00926237 -0.02435727
v 0.00566882 -0.00927601 -0.02404795
v 0.00570408 -0.00929920 -0.02354568
v 0.00601790 -0.00916415 -0.02253502
v 0.00464367 -0.00940697 -0.02807833
v 0.00644679 -0.00907548 -0.01698559
v 0.00613646 -0.00925282 -0.01918760
v 0.00634761 -0.00894452 -0.02152742
v 0.00645183 -0.00909594 -0.01547266
v 0.00673349 -0.00884357 -0.01496733
v 0.00673155 -0.00884357 -0.01547266
v 0.00697486 -0.00857210 -0.01446506
v 0.00631274 -0.00891314 -0.02253502
v 0.00633250 -0.00893088 -0.02203275
v 0.00740065 -0.00545636 -0.01018661
v 0.00538406 -0.00547819 -0.01018661
v 0.00495052 -0.00535132 -0.01018661
v 0.00464367 -0.00970981 -0.01425068
v 0.00720926 -0.00831973 -0.01446506
v 0.00819915 -0.00632397 -0.01295214
v 0.00831655 -0.00597747 -0.01295214
v 0.00854552 -0.00446325 -0.01018661
v 0.00812283 -0.00665273 -0.01345441
v 0.00744831 -0.00799643 -0.01446506
v 0.00763931 -0.00771950 -0.01446506
v 0.00768348 -0.00762947 -0.01429662
v 0.00777220 -0.00744804 -0.01395974
v 0.00474557 -0.00931148 -0.02858059
v 0.00506094 -0.00922144 -0.02807833
v 0.00538406 -0.00903865 -0.02807833
v 0.00545302 -0.00915460 -0.02656234
v 0.00549719 -0.00918052 -0.02606007
v 0.00561729 -0.00924600 -0.02469109
v 0.00598807 -0.00914232 -0.02304035
v 0.00595669 -0.00912050 -0.02354568
v 0.00573081 -0.00882175 -0.02807833
v 0.00576801 -0.00884903 -0.02757300
v 0.00584162 -0.00890360 -0.02656234
v 0.00588850 -0.00897453 -0.02555781
v 0.00588850 -0.00902501 -0.02505554
v 0.00592104 -0.00909867 -0.02404795
v 0.00619457 -0.00880128 -0.02505554
v 0.00622014 -0.00882447 -0.02455021
v 0.00626741 -0.00886813 -0.02354568
v 0.00464367 -0.00935104 -0.02858059
v 0.00659905 -0.00870988 -0.02152742
v 0.00671722 -0.00882311 -0.01698559
v 0.00698532 -0.00856801 -0.01496733
v 0.00696983 -0.00856392 -0.01698559
v 0.00720074 -0.00831155 -0.01698559
v 0.00654287 -0.00865805 -0.02304035
v 0.00656457 -0.00867851 -0.02253502
v 0.00647197 -0.00859530 -0.02455021
v 0.00676914 -0.00836475 -0.02404795
v 0.00685398 -0.00844387 -0.02203275
v 0.00485328 -0.00517398 -0.01018661
v 0.00464367 -0.00957476 -0.01416799
v 0.00474596 -0.00496799 -0.01018661
v 0.00821465 -0.00640036 -0.01345441
v 0.00841844 -0.00553003 -0.01294908
v 0.00841728 -0.00547273 -0.01244681
v 0.00833049 -0.00597747 -0.01345441
v 0.00857574 -0.00395851 -0.01018661
v 0.00843084 -0.00547273 -0.01294908
v 0.00849050 -0.00496799 -0.01194148
v 0.00849593 -0.00496799 -0.01597493
v 0.00854552 -0.00446325 -0.01042856
v 0.00856140 -0.00420133 -0.01069194
v 0.00800544 -0.00698695 -0.01395974
v 0.00810074 -0.00676186 -0.01395974
v 0.00813833 -0.00667183 -0.01395974
v 0.00742893 -0.00799643 -0.01698559
v 0.00763815 -0.00771541 -0.01547266
v 0.00763970 -0.00771814 -0.01496733
v 0.00776988 -0.00746713 -0.01446506
v 0.00499779 -0.00919143 -0.02858059
v 0.00466847 -0.00927601 -0.02908286
v 0.00538406 -0.00897590 -0.02858059
v 0.00568665 -0.00878901 -0.02858059
v 0.00598303 -0.00861985 -0.02807833
v 0.00605703 -0.00868260 -0.02706461
v 0.00609384 -0.00871261 -0.02656234
v 0.00612135 -0.00873580 -0.02617952
v 0.00616435 -0.00877400 -0.02555781
v 0.00672148 -0.00831973 -0.02505554
v 0.00464367 -0.00926373 -0.02924212
v 0.00686793 -0.00845751 -0.02152742
v 0.00712015 -0.00821606 -0.02152742
v 0.00714030 -0.00823925 -0.02051677
v 0.00714611 -0.00824607 -0.02020744
v 0.00715231 -0.00825289 -0.01987056
v 0.00732820 -0.00798688 -0.02051677
v 0.00735261 -0.00799643 -0.01950917
v 0.00738361 -0.00799643 -0.01850157
v 0.00741421 -0.00799643 -0.01749091
v 0.00679122 -0.00838521 -0.02354568
v 0.00683461 -0.00842614 -0.02253502
v 0.00674628 -0.00834293 -0.02455021
v 0.00708683 -0.00817513 -0.02253502
v 0.00710659 -0.00819969 -0.02203275
v 0.00473317 -0.00472790 -0.01018661
v 0.00472310 -0.00446325 -0.01018661
v 0.00464367 -0.00671548 -0.01267957
v 0.00821194 -0.00641946 -0.01395974
v 0.00841922 -0.00553003 -0.01345441
v 0.00821039 -0.00639218 -0.01648332
v 0.00831810 -0.00597747 -0.01648332
v 0.00842309 -0.00547273 -0.01597493
v 0.00859472 -0.00345514 -0.01018661
v 0.00857574 -0.00395851 -0.01042856
v 0.00859550 -0.00345514 -0.01143921
v 0.00843006 -0.00547273 -0.01345441
v 0.00842077 -0.00547273 -0.01648026
v 0.00849321 -0.00496799 -0.01648026
v 0.00854009 -0.00446325 -0.01648026
v 0.00855598 -0.00420133 -0.01648026
v 0.00857535 -0.00395851 -0.01143921
v 0.00777065 -0.00745076 -0.01698559
v 0.00800311 -0.00698695 -0.01446506
v 0.00809842 -0.00676186 -0.01482033
v 0.00809997 -0.00676186 -0.01431500
v 0.00813833 -0.00666910 -0.01446506
v 0.00758817 -0.00764038 -0.02001450
v 0.00760909 -0.00767312 -0.01850157
v 0.00762265 -0.00769222 -0.01749091
v 0.00762846 -0.00770177 -0.01698559
v 0.00766953 -0.00762947 -0.01698559
v 0.00464367 -0.00924736 -0.02935543
v 0.00492069 -0.00915324 -0.02908286
v 0.00487962 -0.00901818 -0.03009352
v 0.00487962 -0.00894043 -0.03059579
v 0.00514075 -0.00875763 -0.03088061
v 0.00525117 -0.00882038 -0.03009352
v 0.00531781 -0.00886131 -0.02959125
v 0.00542125 -0.00887904 -0.02907980
v 0.00561381 -0.00873853 -0.02924518
v 0.00565216 -0.00876445 -0.02891136
v 0.00593848 -0.00858438 -0.02858059
v 0.00575677 -0.00834020 -0.03110112
v 0.00580597 -0.00837976 -0.03059579
v 0.00605858 -0.00817786 -0.03059579
v 0.00623370 -0.00833338 -0.02858059
v 0.00627245 -0.00836884 -0.02807833
v 0.00614537 -0.00875627 -0.02583957
v 0.00659208 -0.00820105 -0.02706461
v 0.00669126 -0.00829109 -0.02555781
v 0.00652428 -0.00813967 -0.02807833
v 0.00697331 -0.00805100 -0.02505554
v 0.00699888 -0.00807691 -0.02455021
v 0.00731193 -0.00796369 -0.02152742
v 0.00758042 -0.00762947 -0.02051677
v 0.00718679 -0.00779863 -0.02505554
v 0.00720577 -0.00782454 -0.02455021
v 0.00729798 -0.00794732 -0.02203275
v 0.00472310 -0.00420133 -0.01018661
v 0.00464367 -0.00607433 -0.01255400
v 0.00464367 -0.00631442 -0.01257238
v 0.00464367 -0.00647675 -0.01260607
v 0.00813833 -0.00666637 -0.01496733
v 0.00813755 -0.00666364 -0.01547266
v 0.00812632 -0.00664455 -0.01648332
v 0.00820535 -0.00637717 -0.01698559
v 0.00813213 -0.00665546 -0.01597799
v 0.00817784 -0.00629123 -0.01950917
v 0.00830802 -0.00597747 -0.01698559
v 0.00860092 -0.00295040 -0.01018661
v 0.00859550 -0.00345514 -0.01244681
v 0.00860131 -0.00295040 -0.01093388
v 0.00860170 -0.00295040 -0.01244681
v 0.00829756 -0.00597747 -0.01749091
v 0.00838861 -0.00553003 -0.01743273
v 0.00838745 -0.00547273 -0.01799318
v 0.00842464 -0.00496799 -0.01950611
v 0.00842929 -0.00446325 -0.02152436
v 0.00843936 -0.00447962 -0.02100372
v 0.00844052 -0.00446325 -0.02102209
v 0.00852925 -0.00446325 -0.01698559
v 0.00846881 -0.00395851 -0.02152436
v 0.00856993 -0.00395851 -0.01648026
v 0.00859317 -0.00345514 -0.01496733
v 0.00776213 -0.00743030 -0.01799624
v 0.00798684 -0.00698695 -0.01698559
v 0.00799149 -0.00698695 -0.01648026
v 0.00774004 -0.00738801 -0.02001144
v 0.00774663 -0.00739893 -0.01950611
v 0.00775283 -0.00740984 -0.01900384
v 0.00464367 -0.00888995 -0.03160644
v 0.00477540 -0.00883129 -0.03160644
v 0.00490519 -0.00885176 -0.03107049
v 0.00509039 -0.00873035 -0.03121443
v 0.00533912 -0.00861166 -0.03107049
v 0.00550339 -0.00867169 -0.03009352
v 0.00557003 -0.00871125 -0.02959125
v 0.00610430 -0.00821742 -0.03009352
v 0.00613142 -0.00824061 -0.02979032
v 0.00616048 -0.00826653 -0.02945344
v 0.00600938 -0.00813694 -0.03110112
v 0.00569827 -0.00829518 -0.03160644
v 0.00628446 -0.00788457 -0.03110112
v 0.00648592 -0.00810420 -0.02858059
v 0.00677843 -0.00788730 -0.02807833
v 0.00674589 -0.00785183 -0.02858059
v 0.00715114 -0.00774815 -0.02583344
v 0.00716471 -0.00776725 -0.02555781
v 0.00756415 -0.00759946 -0.02152742
v 0.00772338 -0.00736346 -0.02102209
v 0.00773191 -0.00737710 -0.02051677
v 0.00738554 -0.00749169 -0.02505860
v 0.00742467 -0.00749169 -0.02455021
v 0.00767805 -0.00727752 -0.02303729
v 0.00769510 -0.00730753 -0.02253502
v 0.00755020 -0.00758172 -0.02202969
v 0.00472349 0.00371216 -0.01018661
v 0.00464367 0.00371489 -0.02183368
v 0.00792524 -0.00698695 -0.02001144
v 0.00812128 -0.00662954 -0.01698559
v 0.00809067 -0.00652586 -0.02001144
v 0.00808563 -0.00650540 -0.02051677
v 0.00817126 -0.00627349 -0.02001144
v 0.00860170 -0.00244839 -0.01018661
v 0.00860092 -0.00295040 -0.01496733
v 0.00860170 -0.00244839 -0.01496733
v 0.00827509 -0.00597747 -0.01849851
v 0.00825184 -0.00597747 -0.01950917
v 0.00837582 -0.00547273 -0.01849545
v 0.00838706 -0.00498436 -0.02100372
v 0.00838938 -0.00496799 -0.02100372
v 0.00837660 -0.00496799 -0.02152436
v 0.00841573 -0.00446325 -0.02202969
v 0.00849476 -0.00345514 -0.02152436
v 0.00845486 -0.00395851 -0.02202969
v 0.00848198 -0.00345514 -0.02202969
v 0.00858465 -0.00345514 -0.01648026
v 0.00858891 -0.00345514 -0.01597493
v 0.00851336 -0.00295176 -0.02152436
v 0.00859705 -0.00295040 -0.01597493
v 0.00791284 -0.00698695 -0.02051677
v 0.00464367 -0.00879992 -0.03211177
v 0.00468397 -0.00878219 -0.03211177
v 0.00502762 -0.00869624 -0.03160644
v 0.00493619 -0.00864850 -0.03211177
v 0.00538406 -0.00849162 -0.03160644
v 0.00543326 -0.00863213 -0.03059579
v 0.00644330 -0.00806327 -0.02908286
v 0.00595010 -0.00808646 -0.03160644
v 0.00623293 -0.00783409 -0.03160644
v 0.00565526 -0.00826244 -0.03192496
v 0.00653629 -0.00762128 -0.03110418
v 0.00664554 -0.00774542 -0.02984851
v 0.00666685 -0.00776861 -0.02959125
v 0.00670753 -0.00781090 -0.02908286
v 0.00705932 -0.00761583 -0.02757300
v 0.00706940 -0.00762947 -0.02739231
v 0.00708644 -0.00765539 -0.02706461
v 0.00711318 -0.00769358 -0.02656234
v 0.00703065 -0.00757490 -0.02807833
v 0.00725691 -0.00740302 -0.02706767
v 0.00728249 -0.00744122 -0.02655928
v 0.00753470 -0.00705789 -0.02655928
v 0.00755872 -0.00709063 -0.02606007
v 0.00734331 -0.00749169 -0.02555781
v 0.00771370 -0.00734709 -0.02152742
v 0.00770401 -0.00732935 -0.02202969
v 0.00789734 -0.00698695 -0.02102209
v 0.00784581 -0.00698695 -0.02253502
v 0.00763931 -0.00721613 -0.02404795
v 0.00771060 -0.00683826 -0.02606007
v 0.00777143 -0.00696376 -0.02404795
v 0.00782063 -0.00698695 -0.02303729
v 0.00472310 0.00371353 -0.01549716
v 0.00856528 0.00371216 -0.01018661
v 0.00464367 0.00371489 -0.04147109
v 0.00472310 0.00371489 -0.02100372
v 0.00799381 -0.00676186 -0.02051677
v 0.00806588 -0.00648221 -0.02152436
v 0.00815963 -0.00623666 -0.02085671
v 0.00860170 0.00057596 -0.01018661
v 0.00859743 -0.00244839 -0.01648026
v 0.00859898 -0.00194365 -0.01648026
v 0.00860170 0.00007122 -0.01496733
v 0.00834173 -0.00553003 -0.01945098
v 0.00815111 -0.00620392 -0.02152436
v 0.00820535 -0.00595155 -0.02152436
v 0.00831500 -0.00553003 -0.02051677
v 0.00835141 -0.00547273 -0.01950611
v 0.00831306 -0.00547137 -0.02102209
v 0.00829950 -0.00547137 -0.02152436
v 0.00836226 -0.00496799 -0.02202969
v 0.00834328 -0.00496799 -0.02253502
v 0.00839636 -0.00446325 -0.02253502
v 0.00850135 -0.00295176 -0.02202969
v 0.00843549 -0.00395851 -0.02253502
v 0.00846145 -0.00345514 -0.02253502
v 0.00837350 -0.00043216 -0.02807833
v 0.00839326 0.00007258 -0.02807833
v 0.00859317 -0.00295040 -0.01648026
v 0.00852692 -0.00244702 -0.02152436
v 0.00855482 -0.00093553 -0.02152436
v 0.00851607 -0.00244702 -0.02202969
v 0.00805154 -0.00648221 -0.02203275
v 0.00464367 -0.00876172 -0.03231697
v 0.00483235 -0.00860757 -0.03257116
v 0.00520042 -0.00828972 -0.03311937
v 0.00528875 -0.00834429 -0.03261710
v 0.00541312 -0.00837567 -0.03209952
v 0.00589547 -0.00800461 -0.03213628
v 0.00618256 -0.00778498 -0.03201377
v 0.00648515 -0.00756263 -0.03160644
v 0.00560025 -0.00822288 -0.03225878
v 0.00569556 -0.00779863 -0.03362470
v 0.00576956 -0.00786547 -0.03311937
v 0.00674589 -0.00736891 -0.03110418
v 0.00670056 -0.00731162 -0.03160644
v 0.00699772 -0.00752579 -0.02858059
v 0.00723018 -0.00736346 -0.02757300
v 0.00720229 -0.00732253 -0.02807833
v 0.00717090 -0.00727342 -0.02858059
v 0.00750913 -0.00701832 -0.02706767
v 0.00769278 -0.00680552 -0.02655928
v 0.00767147 -0.00676596 -0.02706767
v 0.00757965 -0.00712064 -0.02555781
v 0.00789618 -0.00676186 -0.02326698
v 0.00798955 -0.00648221 -0.02354568
v 0.00801280 -0.00648221 -0.02303729
v 0.00792950 -0.00676186 -0.02253502
v 0.00790742 -0.00648221 -0.02505860
v 0.00793609 -0.00648221 -0.02455021
v 0.00796398 -0.00648221 -0.02405101
v 0.00854901 0.00371353 -0.01549716
v 0.00857031 0.00360303 -0.01018661
v 0.00857109 0.00360303 -0.01042856
v 0.00856567 0.00371216 -0.01042856
v 0.00855056 0.00371353 -0.01558291
v 0.00465413 0.00371489 -0.04146496
v 0.00464367 0.00360303 -0.04147415
v 0.00853351 0.00371489 -0.02100372
v 0.00859976 0.00158407 -0.01018661
v 0.00860170 0.00057596 -0.01363510
v 0.00858271 0.00158544 -0.02152436
v 0.00858620 0.00158544 -0.02100372
v 0.00859898 -0.00143891 -0.01648026
v 0.00860131 0.00057596 -0.01496733
v 0.00859821 0.00158407 -0.01648026
v 0.00814491 -0.00617118 -0.02203275
v 0.00828904 -0.00553003 -0.02152436
v 0.00819760 -0.00591881 -0.02203275
v 0.00828478 -0.00547137 -0.02202969
v 0.00837505 -0.00446325 -0.02304035
v 0.00826540 -0.00547137 -0.02253502
v 0.00830027 -0.00496799 -0.02354262
v 0.00842735 0.00057732 -0.02757606
v 0.00844362 0.00108206 -0.02757606
v 0.00846067 0.00108206 -0.02707073
v 0.00835296 -0.00446325 -0.02354262
v 0.00833011 -0.00446325 -0.02405101
v 0.00841224 -0.00395851 -0.02304035
v 0.00824758 -0.00295176 -0.02807833
v 0.00827741 -0.00244702 -0.02807833
v 0.00835025 -0.00093553 -0.02807833
v 0.00834793 -0.00043216 -0.02858366
v 0.00836885 0.00007258 -0.02858366
v 0.00838706 0.00057732 -0.02858366
v 0.00840992 0.00057732 -0.02807833
v 0.00856179 -0.00093553 -0.02102209
v 0.00856257 0.00007258 -0.02202969
v 0.00856838 0.00057732 -0.02202969
v 0.00853351 0.00108206 -0.02455327
v 0.00854319 0.00108206 -0.02405101
v 0.00855327 0.00057732 -0.02304035
v 0.00847617 0.00108206 -0.02656234
v 0.00849128 0.00108206 -0.02606314
v 0.00852034 0.00108206 -0.02505860
v 0.00803294 -0.00648221 -0.02253502
v 0.00464367 -0.00874672 -0.03238741
v 0.00487962 -0.00846434 -0.03311937
v 0.00554097 -0.00817923 -0.03261710
v 0.00514656 -0.00825698 -0.03340419
v 0.00613646 -0.00773997 -0.03235066
v 0.00640301 -0.00750260 -0.03214853
v 0.00666414 -0.00726524 -0.03194639
v 0.00565178 -0.00775770 -0.03392484
v 0.00692217 -0.00698695 -0.03160644
v 0.00702445 -0.00695012 -0.03111949
v 0.00703453 -0.00704970 -0.03059579
v 0.00715192 -0.00724478 -0.02885623
v 0.00735571 -0.00698695 -0.02858059
v 0.00741847 -0.00698695 -0.02807833
v 0.00750797 -0.00694057 -0.02754544
v 0.00764164 -0.00676186 -0.02737699
v 0.00787526 -0.00648221 -0.02555781
v 0.00765713 -0.00674004 -0.02735555
v 0.00780320 -0.00648221 -0.02656234
v 0.00784039 -0.00648221 -0.02605701
v 0.00813406 -0.00612480 -0.02253502
v 0.00804224 -0.00597747 -0.02505860
v 0.00806936 -0.00597747 -0.02455021
v 0.00857961 0.00336294 -0.01018661
v 0.00857148 0.00360303 -0.01244681
v 0.00856605 0.00371216 -0.01244681
v 0.00856605 0.00371216 -0.01255706
v 0.00465568 0.00360303 -0.04146496
v 0.00490674 0.00371489 -0.04125364
v 0.00464367 0.00309829 -0.04147109
v 0.00465491 0.00309829 -0.04146496
v 0.00853196 0.00371489 -0.02152436
v 0.00859743 0.00235210 -0.01018661
v 0.00859976 0.00158407 -0.01345441
v 0.00857690 0.00158544 -0.02202969
v 0.00852266 0.00371489 -0.02354262
v 0.00852615 0.00371489 -0.02304035
v 0.00859162 0.00259355 -0.01496733
v 0.00859743 0.00208881 -0.01496733
v 0.00852886 0.00371489 -0.02253502
v 0.00818830 -0.00587243 -0.02253502
v 0.00827586 -0.00553003 -0.02197150
v 0.00827393 -0.00553003 -0.02203275
v 0.00827819 -0.00496799 -0.02405101
v 0.00825456 -0.00552866 -0.02253502
v 0.00823596 -0.00553003 -0.02296685
v 0.00824371 -0.00547137 -0.02304035
v 0.00825688 -0.00553003 -0.02247071
v 0.00819063 -0.00539361 -0.02455327
v 0.00842580 0.00108206 -0.02807833
v 0.00843975 0.00158544 -0.02807833
v 0.00847152 0.00158544 -0.02707073
v 0.00825611 -0.00496799 -0.02455327
v 0.00830647 -0.00446325 -0.02455327
v 0.00820768 -0.00345514 -0.02807833
v 0.00816467 -0.00376753 -0.02840603
v 0.00821504 -0.00295176 -0.02858366
v 0.00824952 -0.00244702 -0.02858366
v 0.00825804 -0.00446325 -0.02556087
v 0.00827586 -0.00194365 -0.02858366
v 0.00832468 -0.00093553 -0.02858366
v 0.00823906 -0.00043216 -0.03009658
v 0.00836226 0.00158544 -0.02959432
v 0.00837505 0.00108206 -0.02908899
v 0.00839326 0.00158544 -0.02908899
v 0.00841922 0.00158544 -0.02858366
v 0.00856140 0.00057732 -0.02253502
v 0.00855908 0.00108206 -0.02304035
v 0.00857031 0.00158544 -0.02253502
v 0.00850135 0.00158544 -0.02606314
v 0.00851414 0.00158544 -0.02556087
v 0.00853855 0.00158544 -0.02455327
v 0.00854901 0.00158544 -0.02405101
v 0.00855172 0.00108206 -0.02354262
v 0.00464367 -0.00868397 -0.03266917
v 0.00464367 -0.00858165 -0.03311937
v 0.00488853 -0.00834293 -0.03359407
v 0.00545302 -0.00811647 -0.03311937
v 0.00506249 -0.00821197 -0.03374108
v 0.00526551 -0.00783546 -0.03463230
v 0.00540886 -0.00788320 -0.03410553
v 0.00534222 -0.00806873 -0.03359407
v 0.00588230 -0.00748487 -0.03410246
v 0.00615854 -0.00725842 -0.03394627
v 0.00662307 -0.00721204 -0.03228022
v 0.00666569 -0.00676186 -0.03346544
v 0.00670327 -0.00682052 -0.03312243
v 0.00679393 -0.00702105 -0.03211484
v 0.00559405 -0.00770995 -0.03426172
v 0.00700508 -0.00676186 -0.03189433
v 0.00706397 -0.00676186 -0.03160951
v 0.00714262 -0.00672230 -0.03129712
v 0.00712209 -0.00676186 -0.03126956
v 0.00763892 -0.00669502 -0.02769244
v 0.00801009 -0.00597747 -0.02555781
v 0.00767883 -0.00630760 -0.02857753
v 0.00770208 -0.00638535 -0.02807833
v 0.00771137 -0.00650949 -0.02754850
v 0.00776213 -0.00648221 -0.02706767
v 0.00797289 -0.00597747 -0.02605701
v 0.00781482 -0.00597747 -0.02807833
v 0.00785550 -0.00597747 -0.02756994
v 0.00789541 -0.00597747 -0.02706767
v 0.00812205 -0.00607023 -0.02303729
v 0.00810578 -0.00593109 -0.02402038
v 0.00817746 -0.00581786 -0.02303729
v 0.00812903 -0.00557914 -0.02505860
v 0.00814220 -0.00564598 -0.02455021
v 0.00858891 0.00309829 -0.01018661
v 0.00858891 0.00309829 -0.01042856
v 0.00858852 0.00309829 -0.01244681
v 0.00490752 0.00360303 -0.04125364
v 0.00519383 0.00371489 -0.04100251
v 0.00464367 0.00209018 -0.04145884
v 0.00518957 0.00158544 -0.04099332
v 0.00859627 0.00259355 -0.01018661
v 0.00859627 0.00259355 -0.01244681
v 0.00851607 0.00371489 -0.02405101
v 0.00821039 -0.00553003 -0.02354568
v 0.00818482 -0.00553003 -0.02411532
v 0.00816467 -0.00552866 -0.02455327
v 0.00813910 -0.00553003 -0.02505860
v 0.00817784 -0.00532677 -0.02505860
v 0.00842464 0.00371489 -0.02757606
v 0.00844479 0.00371489 -0.02707073
v 0.00846145 0.00371489 -0.02656234
v 0.00823170 -0.00496799 -0.02505860
v 0.00806278 -0.00446325 -0.02858366
v 0.00812709 -0.00394487 -0.02857753
v 0.00794151 -0.00345514 -0.03110418
v 0.00799226 -0.00295176 -0.03110418
v 0.00803643 -0.00244702 -0.03110418
v 0.00816196 -0.00274987 -0.02939218
v 0.00817629 -0.00344013 -0.02857753
v 0.00817319 -0.00387393 -0.02807833
v 0.00816855 -0.00429682 -0.02748418
v 0.00815692 -0.00420406 -0.02782107
v 0.00814762 -0.00412630 -0.02807833
v 0.00810617 -0.00446325 -0.02807833
v 0.00820961 -0.00244702 -0.02908899
v 0.00816700 -0.00133114 -0.03046103
v 0.00816273 -0.00077320 -0.03092042
v 0.00822744 -0.00143891 -0.02959432
v 0.00823092 -0.00446325 -0.02606314
v 0.00825184 -0.00093553 -0.02959432
v 0.00821543 -0.00093553 -0.03009658
v 0.00816855 -0.00038850 -0.03109499
v 0.00815770 -0.00019070 -0.03135837
v 0.00832468 0.00158544 -0.03009658
v 0.00816118 0.00371489 -0.03190352
v 0.00817823 0.00371489 -0.03167382
v 0.00821814 0.00371489 -0.03110418
v 0.00825029 0.00371489 -0.03060191
v 0.00836614 0.00371489 -0.02869391
v 0.00839519 0.00371489 -0.02818858
v 0.00841999 0.00371489 -0.02768632
v 0.00856334 0.00158544 -0.02304035
v 0.00849283 0.00371489 -0.02516579
v 0.00850561 0.00371489 -0.02455327
v 0.00847307 0.00371489 -0.02606314
v 0.00464367 -0.00846434 -0.03359407
v 0.00470760 -0.00828972 -0.03413003
v 0.00495943 -0.00816013 -0.03413003
v 0.00518414 -0.00777953 -0.03498450
v 0.00551811 -0.00764857 -0.03463230
v 0.00580210 -0.00739756 -0.03463230
v 0.00611282 -0.00720794 -0.03427703
v 0.00630654 -0.00701969 -0.03412084
v 0.00659247 -0.00676186 -0.03375945
v 0.00662501 -0.00670457 -0.03379927
v 0.00677843 -0.00651495 -0.03362776
v 0.00691016 -0.00648221 -0.03312243
v 0.00706862 -0.00658861 -0.03211177
v 0.00676022 -0.00690374 -0.03261710
v 0.00695859 -0.00676186 -0.03211484
v 0.00711744 -0.00667729 -0.03160951
v 0.00724025 -0.00642492 -0.03160951
v 0.00761723 -0.00663772 -0.02807833
v 0.00796243 -0.00553003 -0.02751787
v 0.00800854 -0.00547137 -0.02707073
v 0.00807014 -0.00552866 -0.02606314
v 0.00812050 -0.00544954 -0.02558843
v 0.00766139 -0.00625440 -0.02890217
v 0.00792408 -0.00552866 -0.02802320
v 0.00776561 -0.00597747 -0.02857753
v 0.00791943 -0.00553003 -0.02807833
v 0.00815847 -0.00573192 -0.02383050
v 0.00544644 0.00371489 -0.04074831
v 0.00544140 0.00158544 -0.04074219
v 0.00464367 0.00175732 -0.04144965
v 0.00516361 0.00108206 -0.04096882
v 0.00816622 -0.00526674 -0.02543837
v 0.00819567 -0.00500755 -0.02558843
v 0.00818404 -0.00488751 -0.02606314
v 0.00803023 -0.00496799 -0.02807833
v 0.00798296 -0.00496799 -0.02858366
v 0.00780475 -0.00446325 -0.03110418
v 0.00788029 -0.00395851 -0.03110418
v 0.00789037 -0.00345514 -0.03160951
v 0.00794383 -0.00295176 -0.03160951
v 0.00798878 -0.00244702 -0.03160951
v 0.00807091 -0.00194365 -0.03110418
v 0.00817126 -0.00241019 -0.02957594
v 0.00814762 -0.00255479 -0.02972907
v 0.00802365 -0.00194365 -0.03160951
v 0.00816777 -0.00477837 -0.02656234
v 0.00815847 -0.00472108 -0.02683185
v 0.00813755 -0.00446462 -0.02762200
v 0.00816855 -0.00194365 -0.02997102
v 0.00814685 -0.00194365 -0.03022521
v 0.00813833 -0.00093690 -0.03109499
v 0.00815266 -0.00110742 -0.03079792
v 0.00814917 -0.00052765 -0.03125425
v 0.00812903 -0.00038850 -0.03156051
v 0.00814259 0.00007258 -0.03167995
v 0.00815266 0.00057732 -0.03179633
v 0.00815189 0.00158544 -0.03228634
v 0.00816971 0.00200287 -0.03201990
v 0.00813988 0.00371489 -0.03215465
v 0.00464367 -0.00832110 -0.03413003
v 0.00464367 -0.00825698 -0.03436279
v 0.00483390 -0.00809192 -0.03459248
v 0.00490248 -0.00787502 -0.03514988
v 0.00508535 -0.00771814 -0.03532444
v 0.00536508 -0.00757354 -0.03514988
v 0.00569943 -0.00729798 -0.03513762
v 0.00605509 -0.00714246 -0.03463230
v 0.00626276 -0.00689009 -0.03463230
v 0.00658627 -0.00664182 -0.03413003
v 0.00673775 -0.00638945 -0.03413003
v 0.00703220 -0.00645493 -0.03262935
v 0.00716819 -0.00626940 -0.03247010
v 0.00720035 -0.00633761 -0.03211177
v 0.00739484 -0.00597747 -0.03160951
v 0.00756454 -0.00644674 -0.02907674
v 0.00758585 -0.00655860 -0.02857753
v 0.00793260 -0.00547137 -0.02807833
v 0.00797095 -0.00547137 -0.02757606
v 0.00815499 -0.00520263 -0.02577525
v 0.00764086 -0.00617800 -0.02923905
v 0.00786828 -0.00552866 -0.02858366
v 0.00764280 -0.00517534 -0.03126037
v 0.00563589 0.00371489 -0.04054924
v 0.00568587 0.00209018 -0.04049105
v 0.00568432 0.00158544 -0.04048799
v 0.00565991 0.00108206 -0.04046349
v 0.00541699 0.00108206 -0.04071462
v 0.00464367 0.00007258 -0.04126283
v 0.00514463 0.00072192 -0.04095044
v 0.00512370 0.00038634 -0.04093207
v 0.00484824 0.00007258 -0.04110970
v 0.00806665 -0.00496799 -0.02757606
v 0.00788107 -0.00547137 -0.02858366
v 0.00768077 -0.00483430 -0.03160951
v 0.00774857 -0.00446325 -0.03160951
v 0.00782605 -0.00395851 -0.03160951
v 0.00782412 -0.00345514 -0.03211177
v 0.00787836 -0.00295176 -0.03211177
v 0.00792834 -0.00244702 -0.03211177
v 0.00796592 -0.00194365 -0.03211177
v 0.00809067 -0.00093553 -0.03160951
v 0.00806626 -0.00043216 -0.03211177
v 0.00809571 0.00007258 -0.03211177
v 0.00812089 0.00057732 -0.03211177
v 0.00811624 0.00158544 -0.03261710
v 0.00809145 0.00371489 -0.03261710
v 0.00464367 -0.00816149 -0.03468130
v 0.00464367 -0.00800461 -0.03514988
v 0.00474867 -0.00780545 -0.03555414
v 0.00464367 -0.00773724 -0.03587878
v 0.00490248 -0.00767039 -0.03569196
v 0.00492456 -0.00744122 -0.03618810
v 0.00512254 -0.00723250 -0.03638410
v 0.00521863 -0.00731298 -0.03604722
v 0.00538522 -0.00737028 -0.03559702
v 0.00563938 -0.00724205 -0.03539795
v 0.00598613 -0.00697876 -0.03517438
v 0.00579435 -0.00699377 -0.03559702
v 0.00616203 -0.00676186 -0.03521725
v 0.00619380 -0.00680415 -0.03503656
v 0.00611282 -0.00676186 -0.03534588
v 0.00653706 -0.00647675 -0.03467517
v 0.00668622 -0.00630350 -0.03453123
v 0.00713603 -0.00618619 -0.03280392
v 0.00731658 -0.00597747 -0.03211177
v 0.00743126 -0.00553003 -0.03211177
v 0.00743978 -0.00553003 -0.03205665
v 0.00750836 -0.00553003 -0.03160951
v 0.00745915 -0.00597747 -0.03110112
v 0.00762033 -0.00508531 -0.03160951
v 0.00568703 0.00371489 -0.04049412
v 0.00592569 0.00209018 -0.04018479
v 0.00592414 0.00158544 -0.04018479
v 0.00588114 0.00108206 -0.04018479
v 0.00580094 0.00058551 -0.04022767
v 0.00564441 0.00075876 -0.04044511
v 0.00538522 0.00057323 -0.04069012
v 0.00479477 -0.00043216 -0.04106682
v 0.00464367 -0.00043216 -0.04117708
v 0.00535113 0.00007258 -0.04065950
v 0.00510123 0.00007258 -0.04091063
v 0.00504777 -0.00043216 -0.04087082
v 0.00766062 -0.00474836 -0.03190658
v 0.00775632 -0.00395851 -0.03211177
v 0.00766217 -0.00375798 -0.03292643
v 0.00758081 -0.00295176 -0.03413003
v 0.00765210 -0.00269257 -0.03387277
v 0.00785744 -0.00244702 -0.03261710
v 0.00782915 -0.00194365 -0.03312243
v 0.00789889 -0.00194365 -0.03261710
v 0.00803294 -0.00093553 -0.03211177
v 0.00786906 -0.00143891 -0.03312243
v 0.00793531 -0.00143891 -0.03261710
v 0.00790393 -0.00093553 -0.03312243
v 0.00800156 -0.00043216 -0.03261710
v 0.00803217 0.00007258 -0.03261710
v 0.00808990 0.00108206 -0.03261710
v 0.00805425 0.00158544 -0.03312243
v 0.00802791 0.00371489 -0.03312243
v 0.00464367 -0.00775224 -0.03583896
v 0.00477075 -0.00732526 -0.03665361
v 0.00464367 -0.00726115 -0.03695375
v 0.00465995 -0.00725842 -0.03694456
v 0.00502297 -0.00716293 -0.03665361
v 0.00521591 -0.00680824 -0.03702725
v 0.00538406 -0.00688327 -0.03661380
v 0.00561923 -0.00676186 -0.03644536
v 0.00538522 -0.00709881 -0.03618810
v 0.00555492 -0.00716702 -0.03573177
v 0.00571958 -0.00681507 -0.03614828
v 0.00613491 -0.00672503 -0.03537038
v 0.00608338 -0.00665137 -0.03564295
v 0.00663780 -0.00621756 -0.03486812
v 0.00677533 -0.00602112 -0.03467517
v 0.00692876 -0.00597747 -0.03413003
v 0.00705545 -0.00593927 -0.03359407
v 0.00712557 -0.00563370 -0.03374108
v 0.00715386 -0.00574556 -0.03340726
v 0.00758313 -0.00493662 -0.03209034
v 0.00739910 -0.00496799 -0.03312243
v 0.00748550 -0.00496799 -0.03261710
v 0.00592143 0.00371489 -0.04018479
v 0.00612832 0.00209018 -0.03991222
v 0.00612793 0.00158544 -0.03991222
v 0.00610934 0.00108206 -0.03988466
v 0.00608919 0.00057732 -0.03985709
v 0.00580907 0.00007258 -0.04014498
v 0.00562504 0.00042454 -0.04042368
v 0.00512758 -0.00217692 -0.04043286
v 0.00464367 -0.00195047 -0.04084631
v 0.00531432 -0.00043216 -0.04061662
v 0.00560373 0.00007258 -0.04039917
v 0.00556577 -0.00043216 -0.04035936
v 0.00526667 -0.00093553 -0.04056149
v 0.00731232 -0.00496799 -0.03362470
v 0.00733711 -0.00446325 -0.03413003
v 0.00734796 -0.00395851 -0.03463536
v 0.00743358 -0.00395851 -0.03413003
v 0.00751456 -0.00345514 -0.03413003
v 0.00750177 -0.00295176 -0.03463536
v 0.00756299 -0.00244702 -0.03463536
v 0.00763234 -0.00249340 -0.03414534
v 0.00766876 -0.00235699 -0.03398609
v 0.00764435 -0.00209643 -0.03432297
v 0.00772842 -0.00143891 -0.03413003
v 0.00777065 -0.00093553 -0.03413003
v 0.00783845 -0.00093553 -0.03362470
v 0.00787255 -0.00043216 -0.03362470
v 0.00780707 -0.00043216 -0.03413003
v 0.00783845 0.00007258 -0.03413003
v 0.00801396 0.00371489 -0.03323269
v 0.00792446 0.00158544 -0.03413003
v 0.00464367 -0.00725160 -0.03697519
v 0.00464367 -0.00674549 -0.03790315
v 0.00466498 -0.00676186 -0.03784803
v 0.00473821 -0.00681643 -0.03766121
v 0.00506210 -0.00676186 -0.03732738
v 0.00510356 -0.00670866 -0.03736720
v 0.00516361 -0.00676186 -0.03718650
v 0.00524807 -0.00676186 -0.03706094
v 0.00555182 -0.00665819 -0.03676080
v 0.00564868 -0.00674549 -0.03642392
v 0.00566495 -0.00676186 -0.03636267
v 0.00572926 -0.00676186 -0.03622485
v 0.00599156 -0.00647130 -0.03616053
v 0.00617830 -0.00629532 -0.03599822
v 0.00571493 -0.00632124 -0.03705481
v 0.00671063 -0.00587243 -0.03513762
v 0.00611708 -0.00617937 -0.03633510
v 0.00666492 -0.00576466 -0.03544695
v 0.00696014 -0.00553003 -0.03463842
v 0.00697564 -0.00553003 -0.03457717
v 0.00707288 -0.00553003 -0.03413922
v 0.00710465 -0.00553003 -0.03399527
v 0.00713681 -0.00517398 -0.03431991
v 0.00721585 -0.00499118 -0.03414228
v 0.00612251 0.00371489 -0.03990303
v 0.00624378 0.00371489 -0.03970703
v 0.00627748 0.00371489 -0.03965190
v 0.00628329 0.00158544 -0.03965803
v 0.00626818 0.00108206 -0.03963352
v 0.00625230 0.00057732 -0.03960596
v 0.00623370 0.00007258 -0.03956921
v 0.00621046 -0.00043216 -0.03952940
v 0.00606091 0.00007258 -0.03982034
v 0.00577924 -0.00043216 -0.04010823
v 0.00546310 -0.00143891 -0.04026442
v 0.00566650 -0.00180996 -0.03996429
v 0.00562388 -0.00214554 -0.03991835
v 0.00532788 -0.00244702 -0.04013273
v 0.00524148 -0.00295176 -0.04004085
v 0.00507024 -0.00244702 -0.04038386
v 0.00481841 -0.00244702 -0.04058293
v 0.00464367 -0.00244702 -0.04071462
v 0.00464367 -0.00208416 -0.04081263
v 0.00551889 -0.00093553 -0.04031648
v 0.00574786 -0.00093553 -0.04006535
v 0.00718020 -0.00483976 -0.03453736
v 0.00722747 -0.00450418 -0.03467824
v 0.00718253 -0.00436503 -0.03502737
v 0.00722243 -0.00398307 -0.03517131
v 0.00731929 -0.00345514 -0.03514069
v 0.00743203 -0.00345514 -0.03463536
v 0.00739833 -0.00295176 -0.03514069
v 0.00746690 -0.00244702 -0.03514069
v 0.00761452 -0.00193410 -0.03460780
v 0.00751611 -0.00194365 -0.03514069
v 0.00764745 -0.00111833 -0.03484974
v 0.00765868 -0.00175812 -0.03442098
v 0.00769084 -0.00094372 -0.03466292
v 0.00773694 -0.00043216 -0.03463536
v 0.00776988 0.00007258 -0.03463536
v 0.00794538 0.00371489 -0.03373189
v 0.00782605 0.00108206 -0.03463536
v 0.00785395 0.00158544 -0.03463536
v 0.00781986 0.00371489 -0.03463536
v 0.00464367 -0.00672367 -0.03793378
v 0.00516942 -0.00626258 -0.03794603
v 0.00499043 -0.00661453 -0.03766121
v 0.00562504 -0.00621620 -0.03739170
v 0.00542087 -0.00651495 -0.03721101
v 0.00527790 -0.00636216 -0.03766121
v 0.00583813 -0.00601976 -0.03719263
v 0.00607175 -0.00599793 -0.03669955
v 0.00684817 -0.00547137 -0.03514069
v 0.00613839 -0.00571964 -0.03689862
v 0.00653396 -0.00495026 -0.03663830
v 0.00660835 -0.00459830 -0.03679449
v 0.00666337 -0.00476882 -0.03645761
v 0.00685437 -0.00446325 -0.03614828
v 0.00698067 -0.00547137 -0.03463536
v 0.00709187 -0.00546727 -0.03414228
v 0.00710853 -0.00499118 -0.03467824
v 0.00714533 -0.00470198 -0.03487118
v 0.00647004 0.00371489 -0.03928133
v 0.00653629 0.00158544 -0.03920476
v 0.00648786 0.00057732 -0.03917413
v 0.00645144 0.00007258 -0.03917413
v 0.00640650 -0.00043216 -0.03917413
v 0.00618140 -0.00093553 -0.03948652
v 0.00603224 -0.00043216 -0.03978053
v 0.00600047 -0.00093553 -0.03974072
v 0.00570640 -0.00143891 -0.04001022
v 0.00582457 -0.00196411 -0.03972234
v 0.00579125 -0.00244702 -0.03961209
v 0.00557894 -0.00244702 -0.03986628
v 0.00549332 -0.00295176 -0.03977440
v 0.00517291 -0.00328189 -0.03997041
v 0.00495440 -0.00295176 -0.04029198
v 0.00470218 -0.00295176 -0.04049412
v 0.00464367 -0.00281944 -0.04058599
v 0.00711395 -0.00450418 -0.03517131
v 0.00714107 -0.00416586 -0.03536120
v 0.00714688 -0.00268711 -0.03639329
v 0.00718679 -0.00295176 -0.03604722
v 0.00722243 -0.00248931 -0.03619422
v 0.00735648 -0.00244702 -0.03564295
v 0.00740685 -0.00194365 -0.03564295
v 0.00755950 -0.00143891 -0.03514069
v 0.00766178 -0.00078411 -0.03492324
v 0.00767573 -0.00043216 -0.03498450
v 0.00769278 0.00007258 -0.03507331
v 0.00774082 0.00108206 -0.03514069
v 0.00776755 0.00158544 -0.03514069
v 0.00767922 0.00371489 -0.03553270
v 0.00774547 0.00371489 -0.03514069
v 0.00480407 -0.00641946 -0.03810529
v 0.00464367 -0.00624757 -0.03840848
v 0.00564558 -0.00574011 -0.03792766
v 0.00552973 -0.00610434 -0.03766121
v 0.00469249 -0.00477974 -0.03948346
v 0.00502917 -0.00458875 -0.03933645
v 0.00571260 -0.00585197 -0.03766121
v 0.00699578 -0.00496799 -0.03514069
v 0.00628174 -0.00447962 -0.03768265
v 0.00653203 -0.00444279 -0.03713138
v 0.00670715 -0.00444279 -0.03663830
v 0.00665988 -0.00426136 -0.03694762
v 0.00697215 -0.00395851 -0.03614828
v 0.00699927 -0.00446325 -0.03564295
v 0.00682338 -0.00395851 -0.03665361
v 0.00652970 0.00371489 -0.03916495
v 0.00665910 0.00197422 -0.03895363
v 0.00665988 0.00158544 -0.03895363
v 0.00654210 0.00108206 -0.03913126
v 0.00663857 0.00091154 -0.03891075
v 0.00662772 0.00057732 -0.03888625
v 0.00661029 0.00007258 -0.03884644
v 0.00658975 -0.00043216 -0.03879743
v 0.00635303 -0.00093553 -0.03917413
v 0.00615738 -0.00129840 -0.03944977
v 0.00613181 -0.00163398 -0.03941302
v 0.00598923 -0.00145664 -0.03964271
v 0.00610159 -0.00194365 -0.03936708
v 0.00604308 -0.00244702 -0.03929358
v 0.00571725 -0.00295176 -0.03952021
v 0.00566301 -0.00326825 -0.03945589
v 0.00507760 -0.00362020 -0.03988466
v 0.00485676 -0.00341830 -0.04016642
v 0.00464367 -0.00322596 -0.04043286
v 0.00559134 -0.00360383 -0.03937627
v 0.00524807 -0.00395851 -0.03954165
v 0.00464367 -0.00318776 -0.04044818
v 0.00712247 -0.00295176 -0.03629835
v 0.00702213 -0.00295176 -0.03665361
v 0.00695782 -0.00244702 -0.03715588
v 0.00710194 -0.00248931 -0.03665055
v 0.00716974 -0.00235017 -0.03647598
v 0.00729295 -0.00194365 -0.03614828
v 0.00744831 -0.00143891 -0.03564295
v 0.00761878 -0.00043216 -0.03523869
v 0.00763815 0.00007258 -0.03532751
v 0.00766217 0.00070692 -0.03543164
v 0.00767302 0.00108206 -0.03548982
v 0.00763737 0.00158544 -0.03581752
v 0.00768658 0.00158544 -0.03556333
v 0.00763156 0.00371489 -0.03578690
v 0.00464367 -0.00472790 -0.03955696
v 0.00619225 -0.00432138 -0.03800728
v 0.00516322 -0.00425181 -0.03945589
v 0.00535849 -0.00441960 -0.03914351
v 0.00565991 -0.00425317 -0.03895056
v 0.00598807 -0.00394214 -0.03864737
v 0.00609926 -0.00409902 -0.03834111
v 0.00464367 -0.00422725 -0.03991528
v 0.00483042 -0.00440186 -0.03963659
v 0.00645919 -0.00395851 -0.03766121
v 0.00660409 -0.00395851 -0.03729982
v 0.00669397 -0.00395851 -0.03704563
v 0.00692450 -0.00345514 -0.03665361
v 0.00686599 -0.00295176 -0.03715588
v 0.00675131 0.00371489 -0.03867187
v 0.00692140 0.00371489 -0.03828292
v 0.00697138 0.00371489 -0.03816654
v 0.00678463 0.00158544 -0.03867187
v 0.00664981 0.00124985 -0.03893219
v 0.00672071 0.00007258 -0.03859530
v 0.00669785 -0.00043216 -0.03854630
v 0.00656418 -0.00093553 -0.03873312
v 0.00626392 -0.00145664 -0.03921701
v 0.00646926 -0.00194365 -0.03867187
v 0.00624997 -0.00194365 -0.03911594
v 0.00621123 -0.00244702 -0.03903938
v 0.00617287 -0.00282762 -0.03897506
v 0.00599698 -0.00297904 -0.03915576
v 0.00580597 -0.00344286 -0.03919557
v 0.00572926 -0.00395851 -0.03903325
v 0.00464367 -0.00417814 -0.03994591
v 0.00471574 -0.00395851 -0.04000410
v 0.00496796 -0.00395851 -0.03979278
v 0.00464367 -0.00350561 -0.04029198
v 0.00549990 -0.00395851 -0.03928439
v 0.00678696 -0.00244702 -0.03766121
v 0.00686018 -0.00194365 -0.03766121
v 0.00702484 -0.00194365 -0.03715588
v 0.00719105 -0.00194365 -0.03656174
v 0.00712325 -0.00194365 -0.03681287
v 0.00733285 -0.00143891 -0.03614828
v 0.00715812 -0.00127794 -0.03693844
v 0.00714533 -0.00012386 -0.03739476
v 0.00725459 -0.00093553 -0.03665361
v 0.00752734 0.00108206 -0.03614828
v 0.00756182 0.00158544 -0.03614828
v 0.00754943 0.00371489 -0.03614828
v 0.00616203 -0.00376344 -0.03846361
v 0.00623913 -0.00394214 -0.03816960
v 0.00608105 -0.00345514 -0.03881275
v 0.00620774 -0.00345514 -0.03856161
v 0.00637512 -0.00345514 -0.03816654
v 0.00652466 -0.00290402 -0.03811754
v 0.00663586 -0.00366795 -0.03738558
v 0.00674318 -0.00348106 -0.03719263
v 0.00670056 -0.00290402 -0.03765508
v 0.00698416 0.00158544 -0.03816654
v 0.00708179 0.00371489 -0.03787253
v 0.00695239 0.00108206 -0.03816654
v 0.00688730 0.00007258 -0.03816654
v 0.00666995 -0.00093553 -0.03848199
v 0.00684391 -0.00043216 -0.03816654
v 0.00665213 -0.00125611 -0.03843605
v 0.00654907 -0.00142936 -0.03863205
v 0.00639294 -0.00244702 -0.03867187
v 0.00661339 -0.00194365 -0.03833192
v 0.00612987 -0.00316594 -0.03890156
v 0.00626392 -0.00297904 -0.03870862
v 0.00464367 -0.00380436 -0.04013885
v 0.00664554 -0.00270485 -0.03791847
v 0.00666840 -0.00244702 -0.03797972
v 0.00697021 -0.00093553 -0.03766121
v 0.00678889 -0.00093553 -0.03816654
v 0.00712984 -0.00043216 -0.03733964
v 0.00702290 -0.00043216 -0.03766121
v 0.00707753 0.00005621 -0.03762446
v 0.00715541 0.00021309 -0.03742845
v 0.00731232 0.00158544 -0.03715588
v 0.00744056 0.00158544 -0.03665361
v 0.00740840 0.00108206 -0.03665361
v 0.00742351 0.00371489 -0.03665361
v 0.00657387 -0.00244702 -0.03823085
v 0.00711124 0.00371489 -0.03779290
v 0.00711124 0.00158544 -0.03780821
v 0.00709535 0.00108206 -0.03776228
v 0.00707908 0.00057732 -0.03771634
v 0.00663276 -0.00159169 -0.03838704
v 0.00719725 0.00158544 -0.03755402
v 0.00718756 0.00371489 -0.03754177
v 0.00729295 0.00371489 -0.03715588
f 1 2 3
f 1 3 4
f 1 4 5
f 1 5 12
f 1 12 21
f 1 21 37
f 1 37 55
f 1 55 84
f 1 84 123
f 1 123 169
f 1 169 224
f 1 224 223
f 1 223 222
f 1 222 280
f 1 280 338
f 1 338 401
f 1 401 469
f 1 469 553
f 1 553 629
f 1 629 687
f 1 687 738
f 1 738 789
f 1 789 854
f 1 854 853
f 1 853 910
f 1 910 962
f 1 962 959
f 1 959 1010
f 1 1010 1045
f 1 1045 1007
f 1 1007 984
f 1 984 977
f 1 977 927
f 1 927 876
f 1 876 813
f 1 813 812
f 1 812 761
f 1 761 709
f 1 709 759
f 1 759 707
f 1 707 706
f 1 706 660
f 1 660 659
f 1 659 600
f 1 600 515
f 1 515 514
f 1 514 440
f 1 440 367
f 1 367 304
f 1 304 253
f 1 253 194
f 1 194 152
f 1 152 111
f 1 111 71
f 1 71 46
f 1 46 29
f 1 29 16
f 1 16 7
f 1 7 2
f 2 6 3
f 2 7 8
f 2 8 6
f 3 9 10
f 3 10 4
f 3 6 11
f 3 11 9
f 4 12 5
f 4 10 13
f 4 13 12
f 6 8 14
f 6 14 15
f 6 15 11
f 7 16 17
f 7 17 8
f 8 17 14
f 9 18 19
f 9 19 10
f 9 11 20
f 9 20 18
f 10 19 13
f 11 15 20
f 12 13 21
f 13 22 21
f 13 19 23
f 13 23 24
f 13 24 25
f 13 25 22
f 14 17 15
f 15 26 20
f 15 17 27
f 15 27 28
f 15 28 26
f 16 29 30
f 16 30 17
f 17 30 43
f 17 43 27
f 18 20 31
f 18 31 32
f 18 32 19
f 19 32 33
f 19 33 23
f 20 26 34
f 20 34 35
f 20 35 36
f 20 36 31
f 21 22 37
f 22 25 38
f 22 38 39
f 22 39 37
f 23 33 24
f 24 33 40
f 24 40 41
f 24 41 25
f 25 41 42
f 25 42 38
f 26 28 34
f 27 43 44
f 27 44 28
f 28 44 45
f 28 45 35
f 28 35 34
f 29 46 30
f 30 46 43
f 31 47 48
f 31 48 32
f 31 36 49
f 31 49 47
f 32 50 33
f 32 48 50
f 33 50 51
f 33 51 52
f 33 52 40
f 35 45 53
f 35 53 54
f 35 54 36
f 36 54 49
f 37 39 55
f 38 42 41
f 38 41 59
f 38 59 88
f 38 88 129
f 38 129 175
f 38 175 232
f 38 232 286
f 38 286 343
f 38 343 403
f 38 403 472
f 38 472 555
f 38 555 548
f 38 548 463
f 38 463 396
f 38 396 337
f 38 337 279
f 38 279 221
f 38 221 168
f 38 168 167
f 38 167 124
f 38 124 122
f 38 122 83
f 38 83 82
f 38 82 81
f 38 81 56
f 38 56 55
f 38 55 39
f 40 57 58
f 40 58 41
f 40 52 57
f 41 58 57
f 41 57 60
f 41 60 61
f 41 61 59
f 43 62 44
f 43 46 63
f 43 63 64
f 43 64 65
f 43 65 62
f 44 66 45
f 44 62 67
f 44 67 68
f 44 68 69
f 44 69 66
f 45 70 53
f 45 66 70
f 46 71 63
f 47 72 48
f 47 49 73
f 47 73 74
f 47 74 72
f 48 72 75
f 48 75 51
f 48 51 50
f 49 54 74
f 49 74 73
f 51 76 52
f 51 75 77
f 51 77 76
f 52 76 78
f 52 78 57
f 53 70 79
f 53 79 80
f 53 80 54
f 54 80 74
f 55 56 81
f 55 81 82
f 55 82 83
f 55 83 84
f 57 78 85
f 57 85 60
f 59 86 87
f 59 87 88
f 59 61 89
f 59 89 86
f 60 85 90
f 60 90 91
f 60 91 92
f 60 92 93
f 60 93 61
f 61 93 89
f 62 65 67
f 63 71 94
f 63 94 142
f 63 142 95
f 63 95 64
f 64 95 96
f 64 96 97
f 64 97 98
f 64 98 65
f 65 98 99
f 65 99 67
f 66 100 70
f 66 69 101
f 66 101 100
f 67 99 102
f 67 102 103
f 67 103 104
f 67 104 105
f 67 105 106
f 67 106 68
f 68 106 107
f 68 107 69
f 69 107 101
f 70 100 108
f 70 108 109
f 70 109 110
f 70 110 79
f 71 111 94
f 72 74 112
f 72 112 113
f 72 113 77
f 72 77 75
f 74 80 112
f 76 114 85
f 76 85 78
f 76 77 114
f 77 113 115
f 77 115 116
f 77 116 114
f 79 117 118
f 79 118 80
f 79 110 119
f 79 119 120
f 79 120 117
f 80 118 121
f 80 121 112
f 83 122 84
f 84 122 124
f 84 124 123
f 85 114 116
f 85 116 90
f 86 89 125
f 86 125 87
f 87 126 127
f 87 127 88
f 87 125 128
f 87 128 126
f 88 127 130
f 88 130 131
f 88 131 132
f 88 132 133
f 88 133 134
f 88 134 129
f 89 93 135
f 89 135 136
f 89 136 137
f 89 137 125
f 90 116 138
f 90 138 139
f 90 139 140
f 90 140 91
f 91 140 141
f 91 141 92
f 92 141 93
f 93 141 135
f 94 111 143
f 94 143 142
f 95 142 144
f 95 144 96
f 96 144 145
f 96 145 102
f 96 102 98
f 96 98 97
f 98 102 99
f 100 101 108
f 101 107 108
f 102 145 146
f 102 146 147
f 102 147 148
f 102 148 149
f 102 149 150
f 102 150 103
f 103 150 104
f 104 150 105
f 105 150 106
f 106 108 107
f 106 150 108
f 108 151 119
f 108 119 109
f 108 150 151
f 109 119 110
f 111 152 143
f 112 153 113
f 112 121 153
f 113 153 154
f 113 154 155
f 113 155 115
f 115 155 156
f 115 156 157
f 115 157 116
f 116 157 158
f 116 158 159
f 116 159 160
f 116 160 161
f 116 161 138
f 117 120 162
f 117 162 163
f 117 163 118
f 118 163 121
f 119 151 164
f 119 164 120
f 120 164 165
f 120 165 166
f 120 166 162
f 121 163 166
f 121 166 154
f 121 154 153
f 123 124 167
f 123 167 168
f 123 168 169
f 125 137 170
f 125 170 128
f 126 130 127
f 126 128 130
f 128 171 130
f 128 170 172
f 128 172 173
f 128 173 174
f 128 174 171
f 129 134 176
f 129 176 233
f 129 233 177
f 129 177 175
f 130 171 178
f 130 178 132
f 130 132 131
f 132 174 179
f 132 179 180
f 132 180 181
f 132 181 133
f 132 178 174
f 133 181 134
f 134 181 182
f 134 182 183
f 134 183 176
f 135 141 184
f 135 184 185
f 135 185 186
f 135 186 187
f 135 187 136
f 136 187 137
f 137 187 188
f 137 188 170
f 138 161 189
f 138 189 190
f 138 190 191
f 138 191 192
f 138 192 139
f 139 192 193
f 139 193 184
f 139 184 140
f 140 184 141
f 142 143 194
f 142 194 195
f 142 195 196
f 142 196 197
f 142 197 198
f 142 198 199
f 142 199 200
f 142 200 144
f 143 152 194
f 144 200 201
f 144 201 202
f 144 202 203
f 144 203 145
f 145 204 146
f 145 203 205
f 145 205 206
f 145 206 207
f 145 207 204
f 146 204 208
f 146 208 209
f 146 209 147
f 147 209 148
f 148 209 149
f 149 210 150
f 149 209 210
f 150 211 212
f 150 212 151
f 150 210 209
f 150 209 213
f 150 213 211
f 151 214 215
f 151 215 164
f 151 212 214
f 154 216 155
f 154 166 216
f 155 216 156
f 156 216 157
f 157 216 158
f 158 216 217
f 158 217 159
f 159 217 160
f 160 217 189
f 160 189 161
f 162 166 163
f 164 215 165
f 165 215 218
f 165 218 219
f 165 219 166
f 166 219 220
f 166 220 216
f 168 221 222
f 168 222 223
f 168 223 224
f 168 224 169
f 170 188 225
f 170 225 226
f 170 226 172
f 171 174 178
f 172 227 282
f 172 282 228
f 172 228 173
f 172 226 229
f 172 229 227
f 173 228 230
f 173 230 231
f 173 231 179
f 173 179 174
f 175 177 232
f 176 183 233
f 177 234 232
f 177 233 235
f 177 235 234
f 179 231 236
f 179 236 237
f 179 237 238
f 179 238 180
f 180 238 239
f 180 239 240
f 180 240 241
f 180 241 242
f 180 242 243
f 180 243 181
f 181 243 244
f 181 244 182
f 182 244 245
f 182 245 183
f 183 246 233
f 183 245 246
f 184 193 247
f 184 247 248
f 184 248 249
f 184 249 185
f 185 226 186
f 185 249 226
f 186 226 225
f 186 225 187
f 187 225 188
f 189 217 250
f 189 250 190
f 190 251 252
f 190 252 191
f 190 250 251
f 191 252 192
f 192 252 247
f 192 247 193
f 194 197 196
f 194 196 195
f 194 253 254
f 194 254 197
f 197 254 255
f 197 255 198
f 198 255 256
f 198 256 257
f 198 257 199
f 199 257 258
f 199 258 200
f 200 258 259
f 200 259 201
f 201 259 202
f 202 259 205
f 202 205 203
f 204 207 260
f 204 260 261
f 204 261 262
f 204 262 208
f 205 263 207
f 205 207 206
f 205 259 264
f 205 264 263
f 207 263 265
f 207 265 260
f 208 266 209
f 208 262 266
f 209 266 213
f 211 213 267
f 211 267 212
f 212 267 214
f 213 266 268
f 213 268 267
f 214 218 215
f 214 267 269
f 214 269 270
f 214 270 218
f 216 271 217
f 216 220 271
f 217 272 273
f 217 273 250
f 217 271 272
f 218 274 275
f 218 275 276
f 218 276 277
f 218 277 278
f 218 278 219
f 218 270 274
f 219 278 220
f 220 278 271
f 221 279 222
f 222 279 280
f 226 249 248
f 226 248 229
f 227 248 281
f 227 281 282
f 227 229 248
f 228 282 283
f 228 283 230
f 230 236 231
f 230 283 284
f 230 284 285
f 230 285 236
f 232 234 286
f 233 246 287
f 233 287 235
f 234 235 286
f 235 287 288
f 235 288 346
f 235 346 404
f 235 404 343
f 235 343 286
f 236 285 289
f 236 289 237
f 237 289 238
f 238 289 290
f 238 290 291
f 238 291 239
f 239 291 292
f 239 292 293
f 239 293 240
f 240 244 242
f 240 242 241
f 240 293 294
f 240 294 295
f 240 295 244
f 242 244 243
f 244 296 245
f 244 295 297
f 244 297 298
f 244 298 296
f 245 299 300
f 245 300 246
f 245 296 301
f 245 301 299
f 246 300 302
f 246 302 287
f 247 252 248
f 248 252 281
f 250 273 303
f 250 303 281
f 250 281 251
f 251 281 252
f 253 304 305
f 253 305 254
f 254 306 256
f 254 256 255
f 254 305 307
f 254 307 306
f 256 306 308
f 256 308 257
f 257 309 258
f 257 308 264
f 257 264 309
f 258 309 264
f 258 264 259
f 260 265 310
f 260 310 266
f 260 266 261
f 261 266 262
f 263 264 311
f 263 311 312
f 263 312 265
f 264 308 313
f 264 313 311
f 265 314 315
f 265 315 316
f 265 316 310
f 265 312 314
f 266 310 316
f 266 316 317
f 266 317 268
f 267 268 318
f 267 318 319
f 267 319 320
f 267 320 321
f 267 321 269
f 268 322 318
f 268 317 322
f 269 321 323
f 269 323 324
f 269 324 325
f 269 325 270
f 270 325 326
f 270 326 327
f 270 327 274
f 271 328 272
f 271 278 277
f 271 277 329
f 271 329 328
f 272 330 303
f 272 303 273
f 272 328 331
f 272 331 330
f 274 332 276
f 274 276 275
f 274 327 326
f 274 326 332
f 276 332 333
f 276 333 277
f 277 333 334
f 277 334 335
f 277 335 331
f 277 331 329
f 279 336 280
f 279 337 395
f 279 395 336
f 280 336 339
f 280 339 402
f 280 402 471
f 280 471 479
f 280 479 476
f 280 476 475
f 280 475 557
f 280 557 598
f 280 598 597
f 280 597 599
f 280 599 565
f 280 565 564
f 280 564 563
f 280 563 595
f 280 595 594
f 280 594 593
f 280 593 592
f 280 592 591
f 280 591 590
f 280 590 589
f 280 589 658
f 280 658 705
f 280 705 758
f 280 758 810
f 280 810 872
f 280 872 875
f 280 875 925
f 280 925 924
f 280 924 976
f 280 976 1023
f 280 1023 1057
f 280 1057 1066
f 280 1066 1065
f 280 1065 1059
f 280 1059 1034
f 280 1034 993
f 280 993 992
f 280 992 991
f 280 991 941
f 280 941 894
f 280 894 838
f 280 838 837
f 280 837 836
f 280 836 781
f 280 781 730
f 280 730 682
f 280 682 627
f 280 627 552
f 280 552 468
f 280 468 400
f 280 400 338
f 281 303 340
f 281 340 283
f 281 283 282
f 283 340 284
f 284 340 341
f 284 341 285
f 285 341 342
f 285 342 290
f 285 290 289
f 287 302 344
f 287 344 345
f 287 345 288
f 288 345 407
f 288 407 346
f 290 347 291
f 290 342 348
f 290 348 349
f 290 349 350
f 290 350 347
f 291 347 351
f 291 351 292
f 292 294 293
f 292 351 294
f 294 351 352
f 294 352 353
f 294 353 354
f 294 354 295
f 295 354 355
f 295 355 356
f 295 356 358
f 295 358 297
f 296 298 357
f 296 357 301
f 297 358 298
f 298 358 359
f 298 359 360
f 298 360 361
f 298 361 357
f 299 362 300
f 299 301 363
f 299 363 364
f 299 364 362
f 300 362 302
f 301 357 365
f 301 365 363
f 302 362 344
f 303 330 366
f 303 366 340
f 304 367 305
f 305 367 307
f 306 307 308
f 307 367 368
f 307 368 369
f 307 369 370
f 307 370 308
f 308 370 371
f 308 371 313
f 311 313 372
f 311 372 373
f 311 373 312
f 312 374 314
f 312 373 374
f 313 371 370
f 313 370 369
f 313 369 375
f 313 375 376
f 313 376 377
f 313 377 372
f 314 378 315
f 314 374 379
f 314 379 378
f 315 378 316
f 316 378 380
f 316 380 317
f 317 380 322
f 318 381 319
f 318 322 382
f 318 382 381
f 319 381 323
f 319 323 320
f 320 323 321
f 322 380 383
f 322 383 382
f 323 384 325
f 323 325 324
f 323 381 384
f 325 385 326
f 325 384 386
f 325 386 385
f 326 385 387
f 326 387 332
f 328 329 331
f 330 331 366
f 331 335 388
f 331 388 389
f 331 389 390
f 331 390 391
f 331 391 366
f 332 387 385
f 332 385 333
f 333 385 392
f 333 392 393
f 333 393 335
f 333 335 334
f 335 393 394
f 335 394 388
f 336 395 402
f 336 402 339
f 337 396 397
f 337 397 398
f 337 398 399
f 337 399 395
f 338 400 401
f 340 366 341
f 341 348 342
f 341 366 348
f 343 404 473
f 343 473 403
f 344 362 405
f 344 405 406
f 344 406 345
f 345 406 407
f 346 408 404
f 346 407 409
f 346 409 408
f 347 350 351
f 348 366 410
f 348 410 349
f 349 411 350
f 349 410 412
f 349 412 411
f 350 411 352
f 350 352 351
f 352 411 353
f 353 411 413
f 353 413 354
f 354 413 355
f 355 414 356
f 355 413 415
f 355 415 416
f 355 416 414
f 356 414 358
f 357 361 417
f 357 417 418
f 357 418 419
f 357 419 365
f 358 414 420
f 358 420 421
f 358 421 422
f 358 422 423
f 358 423 424
f 358 424 359
f 359 424 425
f 359 425 360
f 360 425 500
f 360 500 426
f 360 426 427
f 360 427 361
f 361 427 428
f 361 428 429
f 361 429 417
f 362 364 430
f 362 430 431
f 362 431 432
f 362 432 405
f 363 365 433
f 363 433 364
f 364 433 434
f 364 434 435
f 364 435 431
f 364 431 430
f 365 419 436
f 365 436 437
f 365 437 438
f 365 438 433
f 366 391 439
f 366 439 410
f 367 440 368
f 368 440 441
f 368 441 369
f 369 442 375
f 369 441 443
f 369 443 442
f 372 444 373
f 372 377 444
f 373 444 445
f 373 445 374
f 374 445 446
f 374 446 379
f 375 442 447
f 375 447 376
f 376 447 444
f 376 444 377
f 378 379 448
f 378 448 449
f 378 449 450
f 378 450 451
f 378 451 380
f 379 446 448
f 380 451 383
f 381 382 384
f 382 383 452
f 382 452 453
f 382 453 454
f 382 454 384
f 383 451 452
f 384 454 455
f 384 455 386
f 385 386 456
f 385 456 392
f 386 455 457
f 386 457 458
f 386 458 459
f 386 459 456
f 388 394 389
f 389 394 460
f 389 460 410
f 389 410 390
f 390 410 439
f 390 439 391
f 392 456 534
f 392 534 461
f 392 461 393
f 393 461 394
f 394 461 462
f 394 462 460
f 395 399 402
f 396 463 397
f 397 463 464
f 397 464 465
f 397 465 398
f 398 465 399
f 399 465 466
f 399 466 402
f 400 467 401
f 400 468 467
f 401 467 470
f 401 470 469
f 402 466 471
f 403 473 472
f 404 408 473
f 405 432 474
f 405 474 475
f 405 475 476
f 405 476 406
f 406 477 478
f 406 478 409
f 406 409 407
f 406 476 479
f 406 479 477
f 408 409 473
f 409 478 473
f 410 460 480
f 410 480 412
f 411 412 481
f 411 481 413
f 412 480 482
f 412 482 481
f 413 482 415
f 413 481 482
f 414 416 483
f 414 483 492
f 414 492 420
f 415 484 485
f 415 485 486
f 415 486 416
f 415 482 487
f 415 487 484
f 416 488 483
f 416 486 488
f 417 429 418
f 418 429 489
f 418 489 490
f 418 490 419
f 419 490 491
f 419 491 436
f 420 492 421
f 421 492 493
f 421 493 423
f 421 423 422
f 423 494 495
f 423 495 496
f 423 496 497
f 423 497 424
f 423 493 498
f 423 498 494
f 424 497 499
f 424 499 500
f 424 500 425
f 426 500 501
f 426 501 502
f 426 502 427
f 427 502 503
f 427 503 504
f 427 504 428
f 428 504 505
f 428 505 429
f 429 505 489
f 431 435 506
f 431 506 432
f 432 506 507
f 432 507 508
f 432 508 474
f 433 438 509
f 433 509 510
f 433 510 511
f 433 511 512
f 433 512 434
f 434 512 513
f 434 513 435
f 435 513 506
f 436 491 437
f 437 491 509
f 437 509 438
f 440 514 441
f 441 514 515
f 441 515 516
f 441 516 443
f 442 443 517
f 442 517 447
f 443 516 518
f 443 518 519
f 443 519 520
f 443 520 521
f 443 521 517
f 444 447 522
f 444 522 523
f 444 523 445
f 445 523 446
f 446 523 524
f 446 524 525
f 446 525 526
f 446 526 527
f 446 527 448
f 447 517 528
f 447 528 522
f 448 527 529
f 448 529 530
f 448 530 531
f 448 531 532
f 448 532 449
f 449 532 452
f 449 452 450
f 450 452 451
f 452 533 457
f 452 457 455
f 452 455 453
f 452 532 531
f 452 531 533
f 453 455 454
f 456 459 534
f 457 533 535
f 457 535 536
f 457 536 537
f 457 537 538
f 457 538 458
f 458 539 534
f 458 534 459
f 458 538 540
f 458 540 541
f 458 541 542
f 458 542 539
f 460 543 544
f 460 544 545
f 460 545 480
f 460 462 543
f 461 534 546
f 461 546 547
f 461 547 462
f 462 547 544
f 462 544 543
f 463 548 464
f 464 466 465
f 464 548 549
f 464 549 550
f 464 550 479
f 464 479 466
f 466 479 471
f 467 468 551
f 467 551 470
f 468 552 551
f 469 470 553
f 470 551 554
f 470 554 553
f 472 473 556
f 472 556 555
f 473 478 556
f 474 508 557
f 474 557 475
f 477 550 556
f 477 556 478
f 477 479 550
f 480 545 485
f 480 485 484
f 480 484 487
f 480 487 482
f 483 488 492
f 485 545 558
f 485 558 486
f 486 558 488
f 488 558 559
f 488 559 560
f 488 560 561
f 488 561 562
f 488 562 492
f 489 505 490
f 490 563 564
f 490 564 565
f 490 565 491
f 490 505 563
f 491 565 509
f 492 562 566
f 492 566 498
f 492 498 493
f 494 498 495
f 495 567 568
f 495 568 569
f 495 569 570
f 495 570 571
f 495 571 572
f 495 572 573
f 495 573 496
f 495 498 574
f 495 574 575
f 495 575 576
f 495 576 577
f 495 577 578
f 495 578 567
f 496 573 572
f 496 572 579
f 496 579 497
f 497 579 580
f 497 580 581
f 497 581 582
f 497 582 499
f 498 583 574
f 498 566 583
f 499 582 584
f 499 584 500
f 500 584 501
f 501 584 585
f 501 585 586
f 501 586 502
f 502 586 587
f 502 587 588
f 502 588 589
f 502 589 590
f 502 590 591
f 502 591 592
f 502 592 504
f 502 504 503
f 504 593 594
f 504 594 505
f 504 592 593
f 505 594 595
f 505 595 563
f 506 513 507
f 507 596 508
f 507 513 512
f 507 512 596
f 508 596 557
f 509 565 510
f 510 565 511
f 511 597 598
f 511 598 557
f 511 557 512
f 511 565 599
f 511 599 597
f 512 557 596
f 515 600 516
f 516 600 601
f 516 601 602
f 516 602 518
f 517 521 528
f 518 602 519
f 519 603 604
f 519 604 528
f 519 528 520
f 519 602 603
f 520 528 521
f 522 528 605
f 522 605 606
f 522 606 523
f 523 606 607
f 523 607 524
f 524 607 608
f 524 608 525
f 525 608 609
f 525 609 610
f 525 610 611
f 525 611 612
f 525 612 526
f 526 613 527
f 526 612 613
f 527 614 529
f 527 613 614
f 528 604 605
f 529 615 530
f 529 614 612
f 529 612 615
f 530 615 531
f 531 615 616
f 531 616 617
f 531 617 533
f 533 617 535
f 534 539 618
f 534 618 619
f 534 619 620
f 534 620 621
f 534 621 546
f 535 540 536
f 535 617 622
f 535 622 540
f 536 540 538
f 536 538 537
f 539 542 623
f 539 623 618
f 540 622 624
f 540 624 625
f 540 625 541
f 541 625 542
f 542 625 623
f 544 547 626
f 544 626 545
f 545 626 559
f 545 559 558
f 546 561 547
f 546 621 561
f 547 559 626
f 547 561 560
f 547 560 559
f 548 555 556
f 548 556 549
f 549 556 550
f 551 552 554
f 552 627 628
f 552 628 554
f 553 554 629
f 554 630 629
f 554 628 630
f 561 621 631
f 561 631 562
f 562 631 566
f 566 631 632
f 566 632 633
f 566 633 583
f 567 578 634
f 567 634 635
f 567 635 636
f 567 636 637
f 567 637 568
f 568 637 569
f 569 637 638
f 569 638 639
f 569 639 570
f 570 639 640
f 570 640 571
f 571 641 642
f 571 642 643
f 571 643 572
f 571 640 644
f 571 644 641
f 572 643 642
f 572 642 579
f 574 583 575
f 575 583 645
f 575 645 646
f 575 646 647
f 575 647 578
f 575 578 576
f 576 578 577
f 578 647 646
f 578 646 634
f 579 642 648
f 579 648 580
f 580 648 649
f 580 649 650
f 580 650 651
f 580 651 581
f 581 650 652
f 581 652 586
f 581 586 585
f 581 585 582
f 581 651 650
f 582 585 584
f 583 633 645
f 586 652 587
f 587 652 653
f 587 653 654
f 587 654 588
f 588 654 655
f 588 655 656
f 588 656 657
f 588 657 589
f 589 657 656
f 589 656 658
f 600 659 601
f 601 659 660
f 601 660 602
f 602 660 661
f 602 661 603
f 603 662 663
f 603 663 664
f 603 664 604
f 603 661 662
f 604 664 665
f 604 665 605
f 605 665 666
f 605 666 606
f 606 666 667
f 606 667 607
f 607 667 668
f 607 668 609
f 607 609 608
f 609 668 669
f 609 669 610
f 610 669 611
f 611 670 612
f 611 669 671
f 611 671 670
f 612 614 613
f 612 670 671
f 612 671 615
f 615 671 672
f 615 672 616
f 616 672 673
f 616 673 622
f 616 622 674
f 616 674 675
f 616 675 617
f 617 675 622
f 618 623 676
f 618 676 677
f 618 677 619
f 619 677 634
f 619 634 678
f 619 678 621
f 619 621 620
f 621 678 631
f 622 673 679
f 622 679 624
f 622 675 674
f 623 625 676
f 624 680 625
f 624 679 681
f 624 681 680
f 625 680 676
f 627 682 683
f 627 683 628
f 628 683 684
f 628 684 685
f 628 685 686
f 628 686 630
f 629 630 688
f 629 688 689
f 629 689 690
f 629 690 687
f 630 686 688
f 631 678 632
f 632 678 633
f 633 678 645
f 634 676 635
f 634 646 691
f 634 691 678
f 634 677 676
f 635 692 693
f 635 693 636
f 635 676 692
f 636 693 694
f 636 694 695
f 636 695 637
f 637 695 638
f 638 695 696
f 638 696 697
f 638 697 639
f 639 697 698
f 639 698 640
f 640 698 699
f 640 699 644
f 641 650 649
f 641 649 642
f 641 644 700
f 641 700 650
f 642 649 648
f 644 699 750
f 644 750 700
f 645 678 646
f 646 678 691
f 650 700 652
f 652 700 653
f 653 700 701
f 653 701 702
f 653 702 654
f 654 702 703
f 654 703 704
f 654 704 656
f 654 656 655
f 656 704 705
f 656 705 658
f 660 706 661
f 661 706 662
f 662 707 708
f 662 708 663
f 662 706 707
f 663 708 709
f 663 709 710
f 663 710 711
f 663 711 712
f 663 712 713
f 663 713 664
f 664 713 714
f 664 714 715
f 664 715 665
f 665 716 666
f 665 715 717
f 665 717 716
f 666 718 719
f 666 719 667
f 666 716 720
f 666 720 718
f 667 719 721
f 667 721 668
f 668 721 722
f 668 722 669
f 669 723 671
f 669 722 723
f 671 724 673
f 671 673 672
f 671 723 724
f 673 724 725
f 673 725 726
f 673 726 727
f 673 727 681
f 673 681 728
f 673 728 679
f 676 680 692
f 679 728 681
f 680 681 693
f 680 693 692
f 681 727 729
f 681 729 693
f 682 730 683
f 683 730 731
f 683 731 732
f 683 732 684
f 684 732 733
f 684 733 685
f 685 733 734
f 685 734 735
f 685 735 686
f 686 736 688
f 686 735 736
f 687 690 737
f 687 737 738
f 688 736 689
f 689 736 739
f 689 739 740
f 689 740 690
f 690 740 741
f 690 741 737
f 693 729 742
f 693 742 694
f 694 742 743
f 694 743 695
f 695 743 696
f 696 743 744
f 696 744 745
f 696 745 746
f 696 746 697
f 697 746 747
f 697 747 698
f 698 747 748
f 698 748 749
f 698 749 699
f 699 749 751
f 699 751 752
f 699 752 750
f 700 750 701
f 701 750 752
f 701 752 753
f 701 753 754
f 701 754 755
f 701 755 702
f 702 755 756
f 702 756 704
f 702 704 703
f 704 756 757
f 704 757 705
f 705 757 758
f 707 759 708
f 708 759 709
f 709 760 711
f 709 711 710
f 709 761 762
f 709 762 760
f 711 760 712
f 712 760 762
f 712 762 763
f 712 763 764
f 712 764 765
f 712 765 766
f 712 766 767
f 712 767 713
f 713 767 768
f 713 768 714
f 714 768 715
f 715 768 769
f 715 769 717
f 716 717 720
f 717 769 720
f 718 721 719
f 718 720 770
f 718 770 721
f 720 769 771
f 720 771 770
f 721 770 772
f 721 772 722
f 722 772 773
f 722 773 774
f 722 774 723
f 723 774 775
f 723 775 776
f 723 776 777
f 723 777 724
f 724 777 776
f 724 776 725
f 725 778 742
f 725 742 726
f 725 776 779
f 725 779 780
f 725 780 778
f 726 742 727
f 727 742 729
f 730 781 731
f 731 781 782
f 731 782 783
f 731 783 732
f 732 783 784
f 732 784 785
f 732 785 733
f 733 785 734
f 734 786 787
f 734 787 735
f 734 785 786
f 735 787 736
f 736 787 739
f 737 741 788
f 737 788 789
f 737 789 738
f 739 790 740
f 739 787 791
f 739 791 792
f 739 792 790
f 740 790 741
f 741 790 793
f 741 793 788
f 742 778 780
f 742 780 779
f 742 779 794
f 742 794 795
f 742 795 796
f 742 796 797
f 742 797 744
f 742 744 743
f 744 797 798
f 744 798 745
f 745 798 799
f 745 799 800
f 745 800 746
f 746 800 801
f 746 801 802
f 746 802 747
f 747 802 803
f 747 803 748
f 748 804 805
f 748 805 749
f 748 803 804
f 749 805 751
f 751 806 752
f 751 805 806
f 752 806 808
f 752 808 753
f 753 807 754
f 753 808 807
f 754 807 809
f 754 809 755
f 755 809 757
f 755 757 756
f 757 810 758
f 757 809 811
f 757 811 810
f 761 812 762
f 762 812 813
f 762 813 814
f 762 814 815
f 762 815 763
f 763 815 816
f 763 816 817
f 763 817 818
f 763 818 764
f 764 818 819
f 764 819 820
f 764 820 765
f 765 820 766
f 766 821 822
f 766 822 767
f 766 820 821
f 767 822 768
f 768 822 769
f 769 822 823
f 769 823 771
f 770 771 772
f 771 824 825
f 771 825 772
f 771 823 826
f 771 826 824
f 772 827 773
f 772 825 828
f 772 828 829
f 772 829 827
f 773 827 830
f 773 830 831
f 773 831 774
f 774 832 833
f 774 833 776
f 774 776 775
f 774 831 832
f 776 833 834
f 776 834 835
f 776 835 794
f 776 794 779
f 781 836 782
f 782 836 837
f 782 837 838
f 782 838 839
f 782 839 783
f 783 839 840
f 783 840 841
f 783 841 784
f 784 841 785
f 785 841 842
f 785 842 843
f 785 843 844
f 785 844 786
f 786 845 791
f 786 791 787
f 786 844 845
f 788 846 847
f 788 847 848
f 788 848 849
f 788 849 850
f 788 850 851
f 788 851 852
f 788 852 853
f 788 853 854
f 788 854 789
f 788 793 846
f 790 792 855
f 790 855 793
f 791 845 856
f 791 856 792
f 792 856 855
f 793 855 846
f 794 835 795
f 795 835 857
f 795 857 858
f 795 858 796
f 796 858 859
f 796 859 860
f 796 860 861
f 796 861 862
f 796 862 797
f 797 862 798
f 798 862 799
f 799 862 863
f 799 863 864
f 799 864 800
f 800 865 803
f 800 803 801
f 800 864 866
f 800 866 867
f 800 867 865
f 801 803 802
f 803 865 868
f 803 868 804
f 804 868 805
f 805 808 806
f 805 868 869
f 805 869 870
f 805 870 808
f 807 808 809
f 808 870 871
f 808 871 809
f 809 871 811
f 810 811 872
f 811 871 873
f 811 873 874
f 811 874 875
f 811 875 872
f 813 876 877
f 813 877 878
f 813 878 817
f 813 817 814
f 814 817 815
f 815 817 816
f 817 879 880
f 817 880 819
f 817 819 818
f 817 878 881
f 817 881 879
f 819 880 820
f 820 880 879
f 820 879 826
f 820 826 821
f 821 826 822
f 822 826 823
f 824 828 825
f 824 826 828
f 826 879 882
f 826 882 883
f 826 883 828
f 827 884 830
f 827 829 884
f 828 883 829
f 829 883 885
f 829 885 886
f 829 886 887
f 829 887 888
f 829 888 889
f 829 889 884
f 830 890 831
f 830 884 890
f 831 891 832
f 831 890 891
f 832 891 833
f 833 891 834
f 834 891 890
f 834 890 892
f 834 892 893
f 834 893 857
f 834 857 835
f 838 894 895
f 838 895 839
f 839 895 840
f 840 895 841
f 841 895 896
f 841 896 897
f 841 897 842
f 842 897 898
f 842 898 843
f 843 899 900
f 843 900 844
f 843 898 899
f 844 900 845
f 845 900 901
f 845 901 856
f 846 855 902
f 846 902 847
f 847 902 903
f 847 903 848
f 848 903 904
f 848 904 905
f 848 905 849
f 849 905 906
f 849 906 850
f 850 907 908
f 850 908 851
f 850 906 907
f 851 908 909
f 851 909 852
f 852 909 910
f 852 910 853
f 855 856 902
f 856 901 902
f 857 893 858
f 858 893 859
f 859 893 911
f 859 911 912
f 859 912 860
f 860 912 913
f 860 913 914
f 860 914 861
f 861 914 863
f 861 863 862
f 863 914 913
f 863 913 915
f 863 915 916
f 863 916 864
f 864 916 917
f 864 917 866
f 865 867 868
f 866 918 919
f 866 919 867
f 866 917 918
f 867 919 870
f 867 870 869
f 867 869 868
f 870 919 920
f 870 920 871
f 871 920 921
f 871 921 922
f 871 922 873
f 873 922 874
f 874 922 923
f 874 923 924
f 874 924 925
f 874 925 875
f 876 926 877
f 876 927 926
f 877 928 929
f 877 929 879
f 877 879 881
f 877 881 878
f 877 926 927
f 877 927 930
f 877 930 931
f 877 931 928
f 879 929 928
f 879 928 932
f 879 932 882
f 882 932 885
f 882 885 883
f 884 933 893
f 884 893 890
f 884 889 933
f 885 887 886
f 885 932 928
f 885 928 934
f 885 934 935
f 885 935 887
f 887 936 888
f 887 935 937
f 887 937 936
f 888 936 889
f 889 938 939
f 889 939 933
f 889 936 937
f 889 937 940
f 889 940 938
f 890 893 892
f 893 933 939
f 893 939 911
f 894 941 895
f 895 941 942
f 895 942 943
f 895 943 944
f 895 944 896
f 896 944 945
f 896 945 946
f 896 946 897
f 897 946 947
f 897 947 948
f 897 948 898
f 898 948 949
f 898 949 899
f 899 949 950
f 899 950 901
f 899 901 900
f 901 950 951
f 901 951 952
f 901 952 902
f 902 952 903
f 903 952 951
f 903 951 953
f 903 953 954
f 903 954 904
f 904 954 955
f 904 955 905
f 905 955 906
f 906 955 956
f 906 956 907
f 907 957 958
f 907 958 959
f 907 959 908
f 907 956 960
f 907 960 961
f 907 961 957
f 908 959 962
f 908 962 909
f 909 962 910
f 911 939 912
f 912 939 938
f 912 938 963
f 912 963 913
f 913 963 938
f 913 938 964
f 913 964 965
f 913 965 966
f 913 966 967
f 913 967 915
f 915 967 968
f 915 968 916
f 916 968 917
f 917 968 969
f 917 969 919
f 917 919 918
f 919 969 970
f 919 970 920
f 920 970 971
f 920 971 972
f 920 972 921
f 921 972 922
f 922 972 973
f 922 973 974
f 922 974 975
f 922 975 923
f 923 975 976
f 923 976 924
f 927 977 930
f 928 978 934
f 928 931 979
f 928 979 980
f 928 980 981
f 928 981 982
f 928 982 983
f 928 983 978
f 930 977 984
f 930 984 985
f 930 985 931
f 931 985 979
f 934 978 986
f 934 986 935
f 935 986 937
f 937 986 987
f 937 987 988
f 937 988 940
f 938 940 989
f 938 989 964
f 940 988 990
f 940 990 989
f 941 991 942
f 942 991 992
f 942 992 993
f 942 993 994
f 942 994 943
f 943 994 995
f 943 995 944
f 944 995 945
f 945 995 994
f 945 994 946
f 946 994 996
f 946 996 947
f 947 996 948
f 948 996 997
f 948 997 998
f 948 998 949
f 949 999 950
f 949 998 1000
f 949 1000 999
f 950 999 951
f 951 999 1001
f 951 1001 1002
f 951 1002 953
f 953 1002 1003
f 953 1003 954
f 954 1003 1004
f 954 1004 955
f 955 1004 956
f 956 1004 1005
f 956 1005 1006
f 956 1006 960
f 957 1007 1008
f 957 1008 958
f 957 961 979
f 957 979 1009
f 957 1009 1007
f 958 1008 1010
f 958 1010 959
f 960 1006 981
f 960 981 1011
f 960 1011 961
f 961 1011 981
f 961 981 979
f 964 989 990
f 964 990 965
f 965 990 1012
f 965 1012 1013
f 965 1013 1014
f 965 1014 966
f 966 1014 967
f 967 1015 968
f 967 1014 1016
f 967 1016 1015
f 968 1017 969
f 968 1015 1018
f 968 1018 1019
f 968 1019 1020
f 968 1020 1017
f 969 1017 971
f 969 971 970
f 971 1017 1021
f 971 1021 972
f 972 1021 974
f 972 974 973
f 974 1021 1022
f 974 1022 1023
f 974 1023 976
f 974 976 975
f 978 983 1024
f 978 1024 1025
f 978 1025 986
f 979 985 984
f 979 984 1007
f 979 1007 1009
f 979 981 980
f 981 1006 982
f 982 1026 1024
f 982 1024 983
f 982 1006 1026
f 986 1025 1024
f 986 1024 1027
f 986 1027 1028
f 986 1028 1029
f 986 1029 987
f 987 1030 988
f 987 1029 1030
f 988 1030 1031
f 988 1031 990
f 990 1031 1032
f 990 1032 1012
f 993 1033 994
f 993 1034 1033
f 994 1033 996
f 996 1033 1035
f 996 1035 1036
f 996 1036 997
f 997 1037 998
f 997 1036 1038
f 997 1038 1037
f 998 1037 1039
f 998 1039 1040
f 998 1040 1000
f 999 1000 1001
f 1000 1041 1001
f 1000 1040 1042
f 1000 1042 1041
f 1001 1041 1002
f 1002 1041 1003
f 1003 1043 1004
f 1003 1041 1044
f 1003 1044 1043
f 1004 1043 1005
f 1005 1043 1006
f 1006 1043 1026
f 1007 1045 1008
f 1008 1045 1010
f 1012 1046 1047
f 1012 1047 1042
f 1012 1042 1013
f 1012 1032 1046
f 1013 1048 1014
f 1013 1042 1049
f 1013 1049 1038
f 1013 1038 1048
f 1014 1018 1016
f 1014 1048 1050
f 1014 1050 1018
f 1015 1016 1018
f 1017 1020 1021
f 1018 1050 1019
f 1019 1050 1048
f 1019 1048 1051
f 1019 1051 1038
f 1019 1038 1036
f 1019 1036 1052
f 1019 1052 1053
f 1019 1053 1054
f 1019 1054 1055
f 1019 1055 1056
f 1019 1056 1021
f 1019 1021 1020
f 1021 1056 1022
f 1022 1056 1055
f 1022 1055 1023
f 1023 1055 1057
f 1024 1026 1043
f 1024 1043 1027
f 1027 1043 1044
f 1027 1044 1028
f 1028 1044 1029
f 1029 1044 1041
f 1029 1041 1058
f 1029 1058 1046
f 1029 1046 1030
f 1030 1046 1032
f 1030 1032 1031
f 1033 1034 1059
f 1033 1059 1060
f 1033 1060 1035
f 1035 1060 1061
f 1035 1061 1062
f 1035 1062 1036
f 1036 1062 1052
f 1037 1038 1049
f 1037 1049 1039
f 1038 1051 1048
f 1039 1063 1040
f 1039 1049 1063
f 1040 1063 1042
f 1041 1042 1058
f 1042 1047 1058
f 1042 1063 1049
f 1046 1058 1047
f 1052 1062 1053
f 1053 1062 1061
f 1053 1061 1060
f 1053 1060 1064
f 1053 1064 1054
f 1054 1064 1065
f 1054 1065 1066
f 1054 1066 1057
f 1054 1057 1055
f 1059 1065 1064
f 1059 1064 1060

