# https://github.com/mikedh/trimesh
v 0.00366683 -0.01031647 -0.02147994
v 0.00374162 -0.01029862 -0.02147994
v 0.00366683 -0.00693911 -0.02147994
v 0.00366674 0.00340586 -0.02303292
v 0.00366674 0.00108195 -0.02303896
v 0.00366674 -0.00510141 -0.02305505
v 0.00366674 -0.00510141 -0.03994070
v 0.00366683 -0.01027801 -0.02214781
v 0.00368223 -0.01028213 -0.02202912
v 0.00397150 -0.01023543 -0.02147994
v 0.00393440 -0.01021483 -0.02202912
v 0.00398977 -0.01022857 -0.02152420
v 0.00464358 -0.00574968 -0.02147994
v 0.00464358 0.00371489 -0.02182997
v 0.00366674 0.00371489 -0.02303292
v 0.00366674 -0.00472782 -0.04022434
v 0.00366683 -0.00517695 -0.03989242
v 0.00366683 -0.00525112 -0.03982604
v 0.00366683 -0.00570299 -0.03940360
v 0.00366683 -0.00626748 -0.03884637
v 0.00366683 -0.00659299 -0.03848428
v 0.00366683 -0.00688692 -0.03812822
v 0.00366683 -0.00703800 -0.03792907
v 0.00366683 -0.00714788 -0.03778222
v 0.00366683 -0.00732231 -0.03753076
v 0.00366683 -0.00752146 -0.03715459
v 0.00366683 -0.00769314 -0.03679451
v 0.00366683 -0.00780714 -0.03654104
v 0.00366683 -0.00796372 -0.03614676
v 0.00366683 -0.00834279 -0.03514497
v 0.00366683 -0.00852272 -0.03463602
v 0.00366683 -0.00866831 -0.03414317
v 0.00366683 -0.00872187 -0.03394805
v 0.00366683 -0.00881389 -0.03358997
v 0.00366683 -0.00892515 -0.03312328
v 0.00366683 -0.00903640 -0.03261635
v 0.00366683 -0.00913529 -0.03211947
v 0.00366683 -0.00921495 -0.03167691
v 0.00366683 -0.00925753 -0.03142546
v 0.00366683 -0.00926989 -0.03134499
v 0.00366683 -0.00930560 -0.03110561
v 0.00366683 -0.00944981 -0.03010180
v 0.00366683 -0.00956381 -0.02929715
v 0.00366683 -0.00963386 -0.02879223
v 0.00366683 -0.00972039 -0.02812839
v 0.00366683 -0.00974923 -0.02789303
v 0.00366683 -0.00977532 -0.02764962
v 0.00366683 -0.01009397 -0.02425197
v 0.00366683 -0.01026153 -0.02237512
v 0.00399379 -0.01022857 -0.02147994
v 0.00383313 -0.01020385 -0.02252599
v 0.00387062 -0.01014891 -0.02303896
v 0.00437467 -0.01003216 -0.02253203
v 0.00437467 -0.01007199 -0.02202912
v 0.00437467 -0.01009946 -0.02152420
v 0.00437467 -0.01010084 -0.02147994
v 0.00464358 -0.00998821 -0.02147994
v 0.00464358 0.00371489 -0.04146954
v 0.00366674 0.00371489 -0.04202677
v 0.00366674 -0.00456163 -0.04033900
v 0.00387616 -0.00446686 -0.04028469
v 0.00387052 -0.00484319 -0.04002720
v 0.00463555 -0.00624001 -0.03842393
v 0.00437467 -0.00631418 -0.03849031
v 0.00437467 -0.00656690 -0.03824087
v 0.00437467 -0.00679764 -0.03799143
v 0.00387062 -0.00666304 -0.03833542
v 0.00387062 -0.00687868 -0.03808195
v 0.00387062 -0.00713002 -0.03775406
v 0.00387062 -0.00730445 -0.03750059
v 0.00387062 -0.00748575 -0.03715459
v 0.00387062 -0.00767254 -0.03675427
v 0.00387062 -0.00778654 -0.03650081
v 0.00387062 -0.00792526 -0.03614676
v 0.00396366 -0.00822193 -0.03532400
v 0.00387062 -0.00848014 -0.03463602
v 0.00387062 -0.00862710 -0.03413110
v 0.00387062 -0.00872325 -0.03377102
v 0.00414010 -0.00876033 -0.03340289
v 0.00387062 -0.00898695 -0.03261635
v 0.00387062 -0.00908721 -0.03211344
v 0.00383849 -0.00918748 -0.03158840
v 0.00373234 -0.00928912 -0.03110561
v 0.00387062 -0.00961188 -0.02858906
v 0.00382625 -0.00968879 -0.02804793
v 0.00368013 -0.00977944 -0.02757720
v 0.00376581 -0.00980554 -0.02707430
v 0.00387062 -0.01005963 -0.02404679
v 0.00387062 -0.01010496 -0.02354388
v 0.00464358 -0.00976571 -0.02436865
v 0.00464358 -0.00992228 -0.02253203
v 0.00412853 -0.00976296 -0.02633804
v 0.00430190 -0.00982339 -0.02505663
v 0.00460035 -0.00975197 -0.02470258
v 0.00464358 -0.00996074 -0.02202912
v 0.00464358 -0.00998546 -0.02155035
v 0.00464358 0.00362424 -0.04147155
v 0.00459376 0.00371489 -0.04150173
v 0.00371933 0.00371489 -0.04200464
v 0.00366674 0.00360364 -0.04203079
v 0.00366674 -0.00431990 -0.04049792
v 0.00371178 -0.00429930 -0.04048988
v 0.00404801 -0.00413311 -0.04039332
v 0.00413943 -0.00473194 -0.03994271
v 0.00464358 -0.00473057 -0.03955849
v 0.00464358 -0.00621941 -0.03842997
v 0.00464358 -0.00624825 -0.03840784
v 0.00464358 -0.00672485 -0.03793108
v 0.00463507 -0.00673996 -0.03792303
v 0.00414832 -0.00725089 -0.03742817
v 0.00414058 -0.00775220 -0.03641632
v 0.00419814 -0.00828511 -0.03498605
v 0.00420924 -0.00878917 -0.03312328
v 0.00436951 -0.00832357 -0.03459177
v 0.00437467 -0.00845130 -0.03413110
v 0.00433470 -0.00861749 -0.03359199
v 0.00446141 -0.00867380 -0.03312328
v 0.00455684 -0.00871913 -0.03271290
v 0.00437467 -0.00901030 -0.03161053
v 0.00398470 -0.00922044 -0.03110561
v 0.00407593 -0.00924242 -0.03075558
v 0.00437467 -0.00945530 -0.02858906
v 0.00437467 -0.00951436 -0.02808414
v 0.00393230 -0.00970528 -0.02757720
v 0.00401798 -0.00972862 -0.02707430
v 0.00389462 -0.00981790 -0.02653115
v 0.00407889 -0.00974785 -0.02667398
v 0.00464358 -0.00940723 -0.02808414
v 0.00464358 0.00360364 -0.04147155
v 0.00437467 0.00360364 -0.04163450
v 0.00437467 0.00371489 -0.04163248
v 0.00372067 0.00360364 -0.04200464
v 0.00397150 0.00371489 -0.04186584
v 0.00371474 0.00309958 -0.04200263
v 0.00370700 0.00209008 -0.04199659
v 0.00366674 0.00209008 -0.04201469
v 0.00366674 -0.00425260 -0.04053614
v 0.00366674 -0.00375403 -0.04080771
v 0.00387616 -0.00396280 -0.04058241
v 0.00433422 -0.00441742 -0.04001513
v 0.00419001 -0.00379661 -0.04048183
v 0.00436473 -0.00396280 -0.04026659
v 0.00463124 -0.00421827 -0.03993668
v 0.00447546 -0.00455339 -0.03982000
v 0.00464358 -0.00422925 -0.03991656
v 0.00464358 -0.00674682 -0.03790292
v 0.00448436 -0.00717397 -0.03727931
v 0.00433958 -0.00731544 -0.03713045
v 0.00451257 -0.00768902 -0.03614676
v 0.00462464 -0.00774259 -0.03589329
v 0.00426040 -0.00780852 -0.03614676
v 0.00464358 -0.00726187 -0.03695544
v 0.00453428 -0.00820133 -0.03473258
v 0.00442373 -0.00791290 -0.03569213
v 0.00464358 -0.00773847 -0.03587921
v 0.00464358 -0.00800355 -0.03514899
v 0.00463172 -0.00875484 -0.03237696
v 0.00438318 -0.00882351 -0.03257410
v 0.00437467 -0.00891828 -0.03211344
v 0.00464358 -0.00824528 -0.03440469
v 0.00464358 -0.00832082 -0.03413110
v 0.00464358 -0.00846366 -0.03359199
v 0.00464358 -0.00858178 -0.03312328
v 0.00464358 -0.00868342 -0.03266865
v 0.00464358 -0.00880016 -0.03211344
v 0.00464358 -0.00889081 -0.03161053
v 0.00462837 -0.00925753 -0.02934945
v 0.00437467 -0.00908996 -0.03110561
v 0.00464358 -0.00935092 -0.02858906
v 0.00464358 0.00309958 -0.04146954
v 0.00437467 0.00209008 -0.04162042
v 0.00395917 0.00209008 -0.04185980
v 0.00397284 0.00360364 -0.04186584
v 0.00366674 0.00161623 -0.04199055
v 0.00393756 0.00158601 -0.04185578
v 0.00368539 0.00158601 -0.04198050
v 0.00366674 -0.00359334 -0.04088617
v 0.00387062 -0.00347247 -0.04082783
v 0.00403883 -0.00308790 -0.04089623
v 0.00436473 -0.00341479 -0.04054218
v 0.00452624 -0.00355488 -0.04036113
v 0.00464358 -0.00380623 -0.04013985
v 0.00464358 -0.00417981 -0.03994472
v 0.00464358 -0.00816012 -0.03468028
v 0.00464358 -0.00874522 -0.03238903
v 0.00464358 -0.00876033 -0.03231460
v 0.00464358 -0.00924791 -0.02936353
v 0.00464358 -0.00926439 -0.02924887
v 0.00464358 0.00209008 -0.04145747
v 0.00464042 0.00176045 -0.04145345
v 0.00366674 0.00158601 -0.04198854
v 0.00441493 0.00159014 -0.04157817
v 0.00429492 0.00057789 -0.04155604
v 0.00425523 0.00007245 -0.04152788
v 0.00387052 0.00057789 -0.04178738
v 0.00383610 0.00105998 -0.04185376
v 0.00366674 0.00141296 -0.04197245
v 0.00366674 -0.00333375 -0.04099278
v 0.00370260 -0.00331590 -0.04098474
v 0.00434235 -0.00293270 -0.04075944
v 0.00463602 -0.00322113 -0.04044361
v 0.00387062 -0.00293270 -0.04104509
v 0.00415291 -0.00275140 -0.04096060
v 0.00464358 -0.00322800 -0.04043355
v 0.00464358 0.00175907 -0.04145144
v 0.00450740 0.00007245 -0.04136293
v 0.00387052 -0.00043161 -0.04166869
v 0.00387052 0.00007245 -0.04173307
v 0.00419499 -0.00043161 -0.04148966
v 0.00366674 0.00080726 -0.04191009
v 0.00366674 -0.00327881 -0.04101491
v 0.00366674 -0.00265251 -0.04125028
v 0.00464358 -0.00294918 -0.04053816
v 0.00464358 -0.00318954 -0.04044964
v 0.00366674 -0.00244786 -0.04132672
v 0.00387052 -0.00244786 -0.04122010
v 0.00422836 -0.00244786 -0.04101089
v 0.00448053 -0.00244786 -0.04083588
v 0.00464358 0.00007245 -0.04126234
v 0.00464358 -0.00043161 -0.04117786
v 0.00444716 -0.00043161 -0.04132068
v 0.00366674 -0.00043161 -0.04176324
v 0.00389921 -0.00092469 -0.04156409
v 0.00377145 -0.00143974 -0.04153190
v 0.00366674 -0.00131338 -0.04160432
v 0.00366674 0.00007245 -0.04182761
v 0.00414402 -0.00075026 -0.04145747
v 0.00464358 -0.00282007 -0.04058442
v 0.00366674 -0.00224322 -0.04139913
v 0.00366674 -0.00215119 -0.04142529
v 0.00386335 -0.00199187 -0.04135488
v 0.00432361 -0.00194380 -0.04108130
v 0.00464358 -0.00208527 -0.04081375
v 0.00464358 -0.00244786 -0.04071317
v 0.00457578 -0.00194380 -0.04090226
v 0.00464358 -0.00195067 -0.04084996
v 0.00408645 -0.00108676 -0.04142327
v 0.00366674 -0.00143974 -0.04158018
v 0.00402362 -0.00143974 -0.04138505
v 0.00369055 -0.00185590 -0.04148564
v 0.00366674 -0.00182568 -0.04150374
f 1 2 10
f 1 10 50
f 1 50 56
f 1 56 57
f 1 57 13
f 1 13 3
f 1 3 15
f 1 15 4
f 1 4 5
f 1 5 6
f 1 6 7
f 1 7 8
f 1 8 9
f 1 9 2
f 2 9 11
f 2 11 12
f 2 12 10
f 3 13 14
f 3 14 15
f 4 15 59
f 4 59 100
f 4 100 136
f 4 136 174
f 4 174 191
f 4 191 197
f 4 197 210
f 4 210 226
f 4 226 222
f 4 222 225
f 4 225 238
f 4 238 241
f 4 241 230
f 4 230 229
f 4 229 215
f 4 215 212
f 4 212 211
f 4 211 198
f 4 198 177
f 4 177 138
f 4 138 137
f 4 137 101
f 4 101 60
f 4 60 16
f 4 16 7
f 4 7 6
f 4 6 5
f 7 16 17
f 7 17 18
f 7 18 19
f 7 19 20
f 7 20 21
f 7 21 22
f 7 22 23
f 7 23 24
f 7 24 25
f 7 25 26
f 7 26 27
f 7 27 28
f 7 28 29
f 7 29 30
f 7 30 31
f 7 31 32
f 7 32 33
f 7 33 34
f 7 34 35
f 7 35 36
f 7 36 37
f 7 37 38
f 7 38 39
f 7 39 40
f 7 40 41
f 7 41 42
f 7 42 43
f 7 43 44
f 7 44 45
f 7 45 46
f 7 46 47
f 7 47 48
f 7 48 49
f 7 49 8
f 8 49 11
f 8 11 9
f 10 12 50
f 11 49 51
f 11 51 52
f 11 52 53
f 11 53 54
f 11 54 12
f 12 54 55
f 12 55 56
f 12 56 50
f 13 57 96
f 13 96 95
f 13 95 91
f 13 91 90
f 13 90 128
f 13 128 169
f 13 169 188
f 13 188 187
f 13 187 166
f 13 166 165
f 13 165 186
f 13 186 185
f 13 185 164
f 13 164 163
f 13 163 162
f 13 162 161
f 13 161 160
f 13 160 184
f 13 184 156
f 13 156 155
f 13 155 152
f 13 152 146
f 13 146 108
f 13 108 107
f 13 107 106
f 13 106 105
f 13 105 145
f 13 145 183
f 13 183 182
f 13 182 204
f 13 204 214
f 13 214 213
f 13 213 228
f 13 228 234
f 13 234 233
f 13 233 236
f 13 236 220
f 13 220 219
f 13 219 205
f 13 205 189
f 13 189 170
f 13 170 129
f 13 129 97
f 13 97 58
f 13 58 14
f 14 58 98
f 14 98 131
f 14 131 133
f 14 133 99
f 14 99 59
f 14 59 15
f 16 60 61
f 16 61 62
f 16 62 17
f 17 63 18
f 17 62 63
f 18 63 64
f 18 64 19
f 19 64 65
f 19 65 20
f 20 65 66
f 20 66 67
f 20 67 21
f 21 67 68
f 21 68 22
f 22 68 69
f 22 69 23
f 23 69 24
f 24 69 25
f 25 69 70
f 25 70 26
f 26 70 71
f 26 71 27
f 27 71 72
f 27 72 73
f 27 73 28
f 28 73 29
f 29 73 74
f 29 74 75
f 29 75 30
f 30 75 31
f 31 75 76
f 31 76 32
f 32 76 77
f 32 77 33
f 33 77 78
f 33 78 79
f 33 79 34
f 34 79 35
f 35 79 36
f 36 79 80
f 36 80 81
f 36 81 37
f 37 81 38
f 38 81 82
f 38 82 39
f 39 82 40
f 40 82 83
f 40 83 41
f 41 83 42
f 42 83 84
f 42 84 43
f 43 84 44
f 44 84 45
f 45 84 46
f 46 84 85
f 46 85 86
f 46 86 47
f 47 86 48
f 48 86 87
f 48 87 88
f 48 88 89
f 48 89 49
f 49 89 51
f 51 89 52
f 52 89 53
f 53 90 91
f 53 91 54
f 53 89 88
f 53 88 92
f 53 92 93
f 53 93 94
f 53 94 90
f 54 91 95
f 54 95 55
f 55 57 56
f 55 95 96
f 55 96 57
f 58 97 98
f 59 99 100
f 60 101 102
f 60 102 61
f 61 102 103
f 61 103 104
f 61 104 62
f 62 104 63
f 63 105 106
f 63 106 107
f 63 107 108
f 63 108 109
f 63 109 65
f 63 65 64
f 63 104 105
f 65 109 66
f 66 68 67
f 66 109 110
f 66 110 70
f 66 70 69
f 66 69 68
f 70 110 71
f 71 110 111
f 71 111 72
f 72 111 73
f 73 111 74
f 74 111 75
f 75 112 76
f 75 111 112
f 76 112 77
f 77 79 78
f 77 112 79
f 79 113 81
f 79 81 80
f 79 112 114
f 79 114 115
f 79 115 116
f 79 116 117
f 79 117 118
f 79 118 113
f 81 119 82
f 81 113 119
f 82 119 120
f 82 120 83
f 83 120 84
f 84 120 121
f 84 121 122
f 84 122 123
f 84 123 85
f 85 123 124
f 85 124 87
f 85 87 86
f 87 124 125
f 87 125 126
f 87 126 88
f 88 126 127
f 88 127 92
f 90 94 128
f 92 127 123
f 92 123 93
f 93 123 94
f 94 123 128
f 97 129 130
f 97 130 98
f 98 130 131
f 99 132 100
f 99 133 173
f 99 173 132
f 100 132 134
f 100 134 135
f 100 135 136
f 101 137 102
f 102 137 138
f 102 138 139
f 102 139 103
f 103 140 104
f 103 139 141
f 103 141 142
f 103 142 143
f 103 143 140
f 104 140 143
f 104 143 144
f 104 144 105
f 105 144 143
f 105 143 145
f 108 146 109
f 109 146 147
f 109 147 110
f 110 147 148
f 110 148 111
f 111 149 150
f 111 150 151
f 111 151 112
f 111 148 152
f 111 152 149
f 112 153 114
f 112 151 154
f 112 154 150
f 112 150 155
f 112 155 156
f 112 156 153
f 113 118 157
f 113 157 158
f 113 158 159
f 113 159 119
f 114 160 115
f 114 153 160
f 115 160 161
f 115 161 116
f 116 162 117
f 116 161 162
f 117 163 118
f 117 162 163
f 118 163 164
f 118 164 157
f 119 159 165
f 119 165 166
f 119 166 167
f 119 167 168
f 119 168 120
f 120 168 121
f 121 168 122
f 122 167 169
f 122 169 123
f 122 168 167
f 123 127 125
f 123 125 124
f 123 169 128
f 125 127 126
f 129 170 130
f 130 171 172
f 130 172 173
f 130 173 133
f 130 133 131
f 130 170 171
f 132 173 172
f 132 172 135
f 132 135 134
f 135 174 136
f 135 172 175
f 135 175 176
f 135 176 174
f 138 177 178
f 138 178 141
f 138 141 139
f 141 178 179
f 141 179 180
f 141 180 181
f 141 181 142
f 142 181 143
f 143 181 182
f 143 182 183
f 143 183 145
f 146 152 147
f 147 152 148
f 149 152 150
f 150 152 155
f 150 154 151
f 153 156 184
f 153 184 160
f 157 164 185
f 157 185 186
f 157 186 165
f 157 165 159
f 157 159 158
f 166 187 167
f 167 187 188
f 167 188 169
f 170 189 171
f 171 175 172
f 171 189 190
f 171 190 175
f 174 176 191
f 175 190 192
f 175 192 193
f 175 193 194
f 175 194 195
f 175 195 196
f 175 196 176
f 176 196 197
f 176 197 191
f 177 198 199
f 177 199 178
f 178 199 179
f 179 200 201
f 179 201 180
f 179 199 202
f 179 202 203
f 179 203 200
f 180 201 181
f 181 201 182
f 182 201 204
f 189 205 190
f 190 205 192
f 192 205 193
f 193 205 206
f 193 206 194
f 194 207 208
f 194 208 195
f 194 206 209
f 194 209 207
f 195 208 210
f 195 210 196
f 196 210 197
f 198 211 199
f 199 211 212
f 199 212 202
f 200 213 201
f 200 203 213
f 201 214 204
f 201 213 214
f 202 212 215
f 202 215 216
f 202 216 203
f 203 216 217
f 203 217 218
f 203 218 213
f 205 219 206
f 206 219 220
f 206 220 221
f 206 221 209
f 207 222 226
f 207 226 208
f 207 209 223
f 207 223 224
f 207 224 225
f 207 225 222
f 208 226 210
f 209 221 227
f 209 227 223
f 213 218 228
f 215 229 216
f 216 229 217
f 217 229 230
f 217 230 231
f 217 231 232
f 217 232 218
f 218 233 234
f 218 234 228
f 218 232 235
f 218 235 233
f 220 235 221
f 220 236 235
f 221 235 232
f 221 232 227
f 223 227 237
f 223 237 224
f 224 238 225
f 224 237 239
f 224 239 231
f 224 231 240
f 224 240 241
f 224 241 238
f 227 232 237
f 230 241 240
f 230 240 231
f 231 239 232
f 232 239 237
f 233 235 236

