# https://github.com/mikedh/trimesh
v 0.00474785 0.01109509 -0.01755215
v 0.00474785 0.00887505 -0.01755215
v 0.00474785 0.01093554 -0.01941026
v 0.00464398 0.01092078 -0.01976869
v 0.00437352 0.01114448 -0.01755215
v 0.00366599 0.01148515 -0.01396208
v 0.00366599 0.01146415 -0.01357784
v 0.00366599 0.01130403 -0.01332551
v 0.00366599 0.01105137 -0.01313052
v 0.00366599 0.01065562 -0.01298428
v 0.00366599 0.01049891 -0.01299862
v 0.00366599 0.01022013 -0.01303016
v 0.00366599 0.01013496 -0.01314486
v 0.00366599 0.00999302 -0.01345454
v 0.00366599 0.00976193 -0.01401083
v 0.00474682 0.00800236 -0.02102177
v 0.00474579 0.00578006 -0.03828102
v 0.00474579 0.00578006 -0.04102231
v 0.00474785 0.00906128 -0.01976869
v 0.00474785 0.01090431 -0.01976869
v 0.00474477 0.01039785 -0.02545200
v 0.00465941 0.01041829 -0.02537171
v 0.00454937 0.01040353 -0.02571007
v 0.00437763 0.01039047 -0.02609431
v 0.00421309 0.01042396 -0.02594520
v 0.00462444 0.01092305 -0.01976869
v 0.00437352 0.01097358 -0.01950775
v 0.00416887 0.01092305 -0.02032498
v -0.00369418 0.01148515 -0.01396208
v -0.00021617 0.01146471 -0.01357784
v 0.00386858 0.01117060 -0.01755215
v 0.00386858 0.01097699 -0.01976869
v 0.00366393 0.01097755 -0.01976869
v -0.00380010 0.01143462 -0.01352623
v -0.00380010 0.01128927 -0.01332837
v -0.00380010 0.01123646 -0.01327676
v -0.00380010 0.01095598 -0.01311618
v -0.00380010 0.01103774 -0.01315346
v -0.00380010 0.01066357 -0.01305883
v -0.00380010 0.01027748 -0.01309898
v -0.00380010 0.01004355 -0.01345454
v -0.00380010 0.00986924 -0.01389613
v -0.00458374 0.00808469 -0.02102177
v -0.00021617 0.00568524 -0.03615623
v 0.00185088 0.00568524 -0.03615623
v 0.00235582 0.00568524 -0.03616484
v 0.00285870 0.00568524 -0.03619064
v 0.00332251 0.00568524 -0.03665517
v 0.00366393 0.00568524 -0.03872548
v 0.00366393 0.00568524 -0.04168757
v 0.00473860 0.00578006 -0.04102805
v 0.00474579 0.00592768 -0.04095636
v 0.00474477 0.00895851 -0.03714838
v 0.00474477 0.00909478 -0.03666664
v 0.00474477 0.00925774 -0.03601286
v 0.00474477 0.00936448 -0.03554546
v 0.00474477 0.00939400 -0.03536481
v 0.00474477 0.00942977 -0.03508667
v 0.00474477 0.00993737 -0.03044999
v 0.00474477 0.00997428 -0.03009729
v 0.00474579 0.00601398 -0.04091048
v 0.00474579 0.00622066 -0.04079292
v 0.00474579 0.00665785 -0.04053485
v 0.00474579 0.00678901 -0.04045169
v 0.00437146 0.01003276 -0.03009729
v 0.00386755 0.01007024 -0.03009729
v 0.00386755 0.01024909 -0.02807860
v 0.00386858 0.01077258 -0.02210281
v -0.00380010 0.01148459 -0.01396208
v -0.00380010 0.01148061 -0.01388180
v -0.00369418 0.01146471 -0.01357784
v -0.00021720 0.01097755 -0.01976869
v -0.00369418 0.01097869 -0.01975149
v 0.00366393 0.01037230 -0.02668214
v -0.00380010 0.01146415 -0.01357784
v -0.00458374 0.01094292 -0.01975149
v -0.00458374 0.00922424 -0.01975149
v -0.00458374 0.00821699 -0.02050276
v -0.00575815 0.00594471 -0.03666091
v -0.00484700 0.00580788 -0.03813765
v -0.00021617 0.00568524 -0.04148684
v 0.00336673 0.00568524 -0.04181373
v 0.00375032 0.00602307 -0.04150978
v 0.00384698 0.00578006 -0.04157000
v 0.00403004 0.00578006 -0.04148111
v 0.00410922 0.00578006 -0.04144096
v 0.00417813 0.00578006 -0.04139795
v 0.00438277 0.00578006 -0.04126892
v 0.00468821 0.00596118 -0.04098504
v 0.00474477 0.00881770 -0.03752688
v 0.00463987 0.00890798 -0.03742079
v 0.00434164 0.00895227 -0.03761577
v 0.00437146 0.00909308 -0.03714838
v 0.00437146 0.00923502 -0.03664657
v 0.00452469 0.00938833 -0.03579780
v 0.00465633 0.00941558 -0.03545944
v 0.00471186 0.00943602 -0.03513542
v 0.00437146 0.00951267 -0.03513542
v 0.00437146 0.00956604 -0.03463074
v 0.00456171 0.00629731 -0.04089328
v 0.00469540 0.00678901 -0.04049470
v 0.00465015 0.00690711 -0.04045456
v 0.00474477 0.00683386 -0.04042015
v 0.00474477 0.00700534 -0.04027964
v 0.00474477 0.00725005 -0.04005025
v 0.00474477 0.00738121 -0.03992121
v 0.00474477 0.00746467 -0.03982085
v 0.00474477 0.00783941 -0.03936206
v 0.00474477 0.00802394 -0.03908104
v 0.00474477 0.00809718 -0.03896348
v 0.00474477 0.00825900 -0.03868820
v 0.00474477 0.00840492 -0.03842440
v 0.00474477 0.00854971 -0.03814338
v 0.00474477 0.00860194 -0.03802869
v 0.00474477 0.00876717 -0.03765305
v 0.00386755 0.00958478 -0.03513542
v 0.00336467 0.00961771 -0.03513542
v 0.00285973 0.00962396 -0.03513542
v 0.00336467 0.01007251 -0.03009729
v -0.00369418 0.01007307 -0.03009729
v -0.00419809 0.01092362 -0.02032498
v -0.00419809 0.01097358 -0.01975149
v -0.00446239 0.01091964 -0.02028484
v -0.00458374 0.01093611 -0.01988052
v -0.00021617 0.01007307 -0.03009729
v -0.00575815 0.00696105 -0.03935919
v -0.00575815 0.00696105 -0.03666091
v -0.00575815 0.00594471 -0.04011620
v -0.00484700 0.00580788 -0.04060653
v -0.00484597 0.00580788 -0.04100798
v -0.00021412 0.00568524 -0.04227253
v 0.00319807 0.00568524 -0.04187395
v 0.00347368 0.00624450 -0.04152412
v 0.00358577 0.00635920 -0.04143236
v 0.00366496 0.00619795 -0.04146964
v 0.00366496 0.00630980 -0.04141802
v 0.00389840 0.00616558 -0.04136928
v 0.00408763 0.00583797 -0.04142663
v 0.00438483 0.00612868 -0.04109974
v 0.00448973 0.00884325 -0.03775914
v 0.00415344 0.00891366 -0.03793979
v 0.00386755 0.00920153 -0.03714838
v 0.00383979 0.00934006 -0.03661216
v 0.00436323 0.00935028 -0.03612469
v 0.00436323 0.00944227 -0.03563436
v 0.00398787 0.00938378 -0.03627953
v 0.00418841 0.00941388 -0.03594691
v 0.00386755 0.00951494 -0.03564009
v 0.00422440 0.00647786 -0.04100798
v 0.00405986 0.00678901 -0.04087321
v 0.00400433 0.00681569 -0.04088468
v 0.00437249 0.00699057 -0.04053485
v 0.00466250 0.00741641 -0.03996136
v 0.00461622 0.00788881 -0.03941654
v 0.00448458 0.00833395 -0.03879430
v 0.00467381 0.00842196 -0.03845880
v 0.00433855 0.00848101 -0.03864232
v 0.00434164 0.00874048 -0.03812618
v 0.00336467 0.00956264 -0.03564009
v 0.00285973 0.00957569 -0.03564009
v -0.00319027 0.00962396 -0.03513542
v -0.00419912 0.01005945 -0.03009729
v -0.00419809 0.01086229 -0.02102177
v -0.00448295 0.01041829 -0.02587065
v -0.00458374 0.01043362 -0.02552369
v -0.00458374 0.01089012 -0.02040240
v -0.00458374 0.01092475 -0.02001243
v -0.00458374 0.01001970 -0.03009729
v -0.00458374 0.00952914 -0.03475118
v -0.00458374 0.00948599 -0.03512682
v -0.00458374 0.00943772 -0.03552252
v -0.00458374 0.00943205 -0.03556267
v -0.00458374 0.00938492 -0.03579207
v -0.00458374 0.00928158 -0.03626806
v -0.00458374 0.00919642 -0.03664944
v -0.00458374 0.00916575 -0.03676987
v -0.00458374 0.00895795 -0.03748387
v -0.00458374 0.00892956 -0.03756129
v -0.00458374 0.00884666 -0.03776488
v -0.00458374 0.00845943 -0.03856203
v -0.00458374 0.00834360 -0.03877709
v -0.00458374 0.00809548 -0.03917854
v -0.00553191 0.00696105 -0.03966314
v -0.00575815 0.00667148 -0.03963446
v -0.00575815 0.00601058 -0.04009039
v -0.00553602 0.00594471 -0.04035420
v -0.00540028 0.00594471 -0.04047750
v -0.00504240 0.00594471 -0.04078432
v -0.00490459 0.00594471 -0.04089901
v -0.00458476 0.00612754 -0.04103378
v -0.00466395 0.00580788 -0.04113415
v -0.00366127 0.00580788 -0.04167896
v -0.00334864 0.00580788 -0.04180513
v -0.00327254 0.00580788 -0.04183381
v -0.00302676 0.00580788 -0.04191983
v -0.00284165 0.00580788 -0.04197431
v -0.00218039 0.00580788 -0.04207467
v -0.00167648 0.00580788 -0.04214063
v -0.00139573 0.00580788 -0.04216357
v -0.00117155 0.00580788 -0.04218077
v -0.00066661 0.00580788 -0.04220084
v -0.00066661 0.00607474 -0.04206320
v -0.00021617 0.00607701 -0.04206894
v -0.00016476 0.00568524 -0.04227253
v -0.00437703 0.00580788 -0.04132340
v -0.00431018 0.00580788 -0.04136354
v -0.00406954 0.00580788 -0.04149545
v -0.00387209 0.00580788 -0.04158721
v 0.00302736 0.00568524 -0.04193130
v 0.00295846 0.00578290 -0.04191123
v 0.00335336 0.00624450 -0.04156140
v 0.00339655 0.00661754 -0.04130046
v 0.00336570 0.00698660 -0.04101945
v 0.00366496 0.00691506 -0.04095923
v 0.00375032 0.00678901 -0.04102231
v 0.00398170 0.00678901 -0.04091622
v 0.00325052 0.00643925 -0.04148684
v 0.00386755 0.00862750 -0.03866813
v 0.00386755 0.00882565 -0.03824375
v 0.00386755 0.00893353 -0.03798854
v 0.00366393 0.00900621 -0.03785664
v 0.00386755 0.00904879 -0.03765592
v 0.00414830 0.00841117 -0.03894054
v 0.00386755 0.00845262 -0.03901796
v 0.00336467 0.00926909 -0.03714838
v 0.00336467 0.00937072 -0.03675267
v 0.00365159 0.00941047 -0.03641717
v 0.00336467 0.00948655 -0.03614190
v 0.00369684 0.00743288 -0.04047750
v 0.00403312 0.00733976 -0.04038574
v 0.00437249 0.00750101 -0.04004164
v 0.00401975 0.00784622 -0.03986960
v 0.00441774 0.00777809 -0.03969181
v 0.00427994 0.00796659 -0.03953410
v 0.00451029 0.00800691 -0.03931044
v 0.00285973 0.00950075 -0.03614190
v -0.00319027 0.00957229 -0.03564009
v -0.00369418 0.00960749 -0.03513542
v -0.00419912 0.00956037 -0.03513542
v -0.00457140 0.00943659 -0.03555407
v -0.00444593 0.00940422 -0.03588669
v -0.00419912 0.00929805 -0.03664944
v -0.00419912 0.00916803 -0.03715124
v -0.00456008 0.00894886 -0.03754122
v -0.00439451 0.00888470 -0.03787384
v -0.00440068 0.00837540 -0.03887745
v -0.00458374 0.00802905 -0.03927890
v -0.00394819 0.00789505 -0.03992981
v -0.00537251 0.00696105 -0.03984092
v -0.00543318 0.00684976 -0.03990114
v -0.00458374 0.00796603 -0.03937066
v -0.00554733 0.00651363 -0.04001870
v -0.00575815 0.00656644 -0.03971475
v -0.00575815 0.00612129 -0.04001584
v -0.00567794 0.00605770 -0.04014774
v -0.00535708 0.00623031 -0.04035420
v -0.00502080 0.00647616 -0.04048897
v -0.00489328 0.00681286 -0.04039434
v -0.00484700 0.00610029 -0.04085313
v -0.00447781 0.00641030 -0.04095923
v -0.00383096 0.00627630 -0.04139795
v -0.00367567 0.00611562 -0.04153559
v -0.00289204 0.00586068 -0.04194277
v -0.00349467 0.00640632 -0.04146390
v -0.00218039 0.00597197 -0.04199439
v -0.00183177 0.00601796 -0.04202019
v -0.00167648 0.00603840 -0.04202879
v -0.00117155 0.00606735 -0.04205173
v -0.00117155 0.00631945 -0.04190836
v -0.00066661 0.00632683 -0.04191123
v -0.00021617 0.00632910 -0.04191410
v -0.00016476 0.00607701 -0.04206894
v 0.00034018 0.00568524 -0.04226966
v 0.00034018 0.00607587 -0.04206894
v -0.00418061 0.00611562 -0.04128899
v -0.00399961 0.00594017 -0.04147251
v 0.00287516 0.00568524 -0.04197431
v 0.00281757 0.00608212 -0.04180227
v 0.00306027 0.00611675 -0.04171337
v 0.00262217 0.00588339 -0.04195424
v 0.00287516 0.00676289 -0.04135494
v 0.00287516 0.00706893 -0.04110260
v 0.00336570 0.00723869 -0.04080439
v 0.00287413 0.00651193 -0.04154133
v 0.00287516 0.00675551 -0.04136068
v 0.00366393 0.00866327 -0.03866813
v 0.00336467 0.00850088 -0.03911259
v 0.00336467 0.00871493 -0.03866813
v 0.00336467 0.00886426 -0.03831543
v 0.00336467 0.00896306 -0.03806883
v 0.00336467 0.00911295 -0.03765592
v 0.00386755 0.00830329 -0.03927030
v 0.00403312 0.00800691 -0.03962873
v 0.00381613 0.00800691 -0.03975777
v 0.00336467 0.00836859 -0.03936779
v 0.00285973 0.00929805 -0.03714838
v 0.00285973 0.00915213 -0.03765592
v 0.00285973 0.00938151 -0.03678421
v 0.00336467 0.00942637 -0.03649746
v 0.00336570 0.00749022 -0.04054918
v 0.00368347 0.00791890 -0.03996422
v 0.00385830 0.00764012 -0.04017355
v 0.00285973 0.00943205 -0.03653474
v -0.00319027 0.00949053 -0.03614476
v -0.00319027 0.00952005 -0.03596698
v -0.00369418 0.00954844 -0.03564009
v -0.00357489 0.00942410 -0.03648026
v -0.00424642 0.00946895 -0.03568884
v -0.00391117 0.00939911 -0.03636556
v -0.00424642 0.00938208 -0.03617917
v -0.00369521 0.00937527 -0.03661789
v -0.00369521 0.00924070 -0.03715411
v -0.00369521 0.00908626 -0.03765878
v -0.00405823 0.00892388 -0.03797420
v -0.00421557 0.00899088 -0.03768746
v -0.00421557 0.00880578 -0.03814625
v -0.00406440 0.00844524 -0.03899789
v -0.00421866 0.00854119 -0.03869107
v -0.00452306 0.00792742 -0.03947102
v -0.00369418 0.00792571 -0.03996709
v -0.00319027 0.00752372 -0.04059220
v -0.00360780 0.00746638 -0.04051764
v -0.00414976 0.00764182 -0.04007892
v -0.00457037 0.00747319 -0.04001010
v -0.00428345 0.00780989 -0.03980938
v -0.00369521 0.00833849 -0.03932765
v -0.00369418 0.00811876 -0.03967748
v -0.00458374 0.00770371 -0.03971762
v -0.00458374 0.00748852 -0.03998143
v -0.00504548 0.00696105 -0.04014487
v -0.00522751 0.00666296 -0.04020509
v -0.00484700 0.00696105 -0.04029398
v -0.00482335 0.00696105 -0.04031119
v -0.00455700 0.00695651 -0.04050617
v -0.00420015 0.00652101 -0.04104812
v -0.00392557 0.00687304 -0.04093056
v -0.00371063 0.00663968 -0.04119723
v -0.00270693 0.00609858 -0.04184528
v -0.00218039 0.00622406 -0.04186822
v -0.00334864 0.00643698 -0.04148684
v -0.00318924 0.00646991 -0.04150978
v -0.00318924 0.00672201 -0.04132053
v -0.00358929 0.00695537 -0.04099937
v -0.00183177 0.00627062 -0.04188829
v -0.00167648 0.00629049 -0.04189689
v -0.00218039 0.00685998 -0.04142376
v -0.00117155 0.00662322 -0.04165889
v -0.00062856 0.00667999 -0.04161875
v -0.00016476 0.00663173 -0.04166176
v -0.00016476 0.00632910 -0.04191410
v 0.00034018 0.00624450 -0.04196571
v 0.00084306 0.00568524 -0.04225246
v 0.00084306 0.00607076 -0.04206034
v 0.00084306 0.00632286 -0.04191123
v 0.00276923 0.00568524 -0.04200012
v 0.00235479 0.00618091 -0.04184528
v 0.00235479 0.00568524 -0.04209188
v 0.00235479 0.00592882 -0.04197431
v 0.00235582 0.00683670 -0.04140942
v 0.00287413 0.00732046 -0.04087321
v 0.00235582 0.00658461 -0.04159294
v 0.00303970 0.00839073 -0.03940793
v 0.00286693 0.00850712 -0.03920721
v 0.00285973 0.00876320 -0.03866813
v 0.00285973 0.00888811 -0.03837852
v 0.00285973 0.00898293 -0.03812331
v 0.00366393 0.00793423 -0.03994702
v 0.00342329 0.00812217 -0.03973483
v 0.00336467 0.00817270 -0.03967461
v -0.00268533 0.00928272 -0.03715411
v -0.00268533 0.00914986 -0.03765878
v -0.00268533 0.00898236 -0.03812905
v -0.00319027 0.00937186 -0.03674693
v -0.00319027 0.00942523 -0.03649173
v 0.00336570 0.00774289 -0.04025384
v 0.00336570 0.00794842 -0.03999863
v -0.00372400 0.00945816 -0.03617917
v -0.00319027 0.00927988 -0.03715411
v -0.00319027 0.00913907 -0.03765878
v -0.00319027 0.00897782 -0.03811758
v -0.00369521 0.00895113 -0.03804016
v -0.00369521 0.00885063 -0.03829249
v -0.00369418 0.00868541 -0.03866526
v -0.00369521 0.00848441 -0.03907818
v -0.00314091 0.00824254 -0.03962586
v -0.00319027 0.00796830 -0.04002444
v -0.00319027 0.00777582 -0.04027678
v -0.00268533 0.00755665 -0.04063521
v -0.00268533 0.00734657 -0.04088754
v -0.00319027 0.00728923 -0.04084453
v -0.00387929 0.00696105 -0.04087034
v -0.00394408 0.00738802 -0.04042875
v -0.00419912 0.00731705 -0.04037140
v -0.00458374 0.00744877 -0.04002444
v -0.00327666 0.00837710 -0.03938500
v -0.00405309 0.00696105 -0.04078145
v -0.00420015 0.00677311 -0.04085887
v -0.00268533 0.00656417 -0.04157000
v -0.00218039 0.00660789 -0.04161588
v -0.00268533 0.00681569 -0.04139222
v -0.00334864 0.00696105 -0.04107680
v -0.00318924 0.00696105 -0.04112841
v -0.00301956 0.00696275 -0.04117716
v -0.00319027 0.00703713 -0.04106533
v -0.00268533 0.00696105 -0.04126031
v -0.00239841 0.00696105 -0.04130046
v -0.00218039 0.00696105 -0.04132627
v -0.00117155 0.00687531 -0.04143810
v -0.00077048 0.00688099 -0.04144096
v -0.00043625 0.00688383 -0.04144383
v -0.00016476 0.00688496 -0.04144670
v 0.00014479 0.00688496 -0.04144670
v 0.00032270 0.00668113 -0.04161875
v 0.00134697 0.00568524 -0.04221805
v 0.00134697 0.00605600 -0.04204026
v 0.00134697 0.00630810 -0.04190549
v 0.00084306 0.00662435 -0.04165889
v 0.00134697 0.00661413 -0.04165316
v 0.00134697 0.00649944 -0.04174778
v 0.00185088 0.00624450 -0.04189116
v 0.00185088 0.00625927 -0.04188255
v 0.00184986 0.00568524 -0.04216643
v 0.00184986 0.00600717 -0.04201159
v 0.00185088 0.00660845 -0.04163022
v 0.00185088 0.00686055 -0.04142376
v 0.00235582 0.00710299 -0.04115709
v 0.00285973 0.00732273 -0.04087321
v 0.00285973 0.00753735 -0.04062087
v 0.00287516 0.00753735 -0.04061800
v 0.00270445 0.00840890 -0.03943661
v 0.00286693 0.00825900 -0.03963446
v -0.00268533 0.00876206 -0.03866526
v -0.00268533 0.00888584 -0.03838425
v 0.00235479 0.00840947 -0.03943661
v -0.00268533 0.00853040 -0.03916994
v 0.00336570 0.00812217 -0.03974916
v -0.00319027 0.00888186 -0.03837278
v 0.00287413 0.00755381 -0.04059793
v 0.00308701 0.00812217 -0.03979791
v 0.00285973 0.00779115 -0.04029398
v 0.00285973 0.00797795 -0.04004164
v -0.00319027 0.00874616 -0.03866526
v -0.00314091 0.00849066 -0.03919861
v -0.00294037 0.00839868 -0.03942227
v -0.00268533 0.00799328 -0.04006745
v -0.00268533 0.00780932 -0.04031692
v -0.00218142 0.00737269 -0.04091909
v -0.00268533 0.00709391 -0.04113701
v -0.00167751 0.00738405 -0.04092769
v 0.00048107 0.00688156 -0.04144383
v 0.00134697 0.00737667 -0.04092482
v 0.00185088 0.00737326 -0.04092482
v 0.00167709 0.00602364 -0.04202306
v 0.00185088 0.00712116 -0.04117142
v 0.00235582 0.00735509 -0.04090188
v 0.00282785 0.00755552 -0.04060367
v 0.00235582 0.00799555 -0.04007892
v 0.00185191 0.00799839 -0.04008752
v -0.00218142 0.00800123 -0.04008466
v -0.00218142 0.00825219 -0.03968608
v -0.00218142 0.00840549 -0.03943374
v -0.00268533 0.00840436 -0.03943374
v 0.00235582 0.00781954 -0.04032839
v -0.00268533 0.00824594 -0.03968321
v -0.00218142 0.00782522 -0.04033699
v -0.00218142 0.00757198 -0.04066675
v 0.00185191 0.00782976 -0.04033986
v 0.00185088 0.00755552 -0.04069829
v 0.00235582 0.00755552 -0.04066388
f 1 2 19
f 1 19 20
f 1 20 3
f 1 3 4
f 1 4 5
f 1 5 6
f 1 6 7
f 1 7 8
f 1 8 9
f 1 9 10
f 1 10 2
f 2 10 11
f 2 11 12
f 2 12 13
f 2 13 14
f 2 14 15
f 2 15 16
f 2 16 17
f 2 17 18
f 2 18 19
f 3 20 4
f 4 20 21
f 4 21 22
f 4 22 23
f 4 23 24
f 4 24 25
f 4 25 26
f 4 26 5
f 5 27 28
f 5 28 6
f 5 26 27
f 6 29 71
f 6 71 30
f 6 30 7
f 6 28 31
f 6 31 32
f 6 32 33
f 6 33 72
f 6 72 29
f 7 30 34
f 7 34 8
f 8 34 35
f 8 35 36
f 8 36 9
f 9 37 10
f 9 36 38
f 9 38 37
f 10 39 11
f 10 37 39
f 11 39 40
f 11 40 12
f 12 40 13
f 13 40 41
f 13 41 14
f 14 41 15
f 15 42 43
f 15 43 16
f 15 41 42
f 16 43 44
f 16 44 45
f 16 45 46
f 16 46 47
f 16 47 48
f 16 48 17
f 17 48 49
f 17 49 50
f 17 50 18
f 18 50 51
f 18 51 52
f 18 52 20
f 18 20 19
f 20 53 54
f 20 54 55
f 20 55 56
f 20 56 57
f 20 57 58
f 20 58 59
f 20 59 60
f 20 60 21
f 20 52 61
f 20 61 62
f 20 62 63
f 20 63 64
f 20 64 53
f 21 60 65
f 21 65 22
f 22 65 23
f 23 65 24
f 24 65 25
f 25 65 66
f 25 66 67
f 25 67 28
f 25 28 27
f 25 27 26
f 28 67 68
f 28 68 32
f 28 32 31
f 29 69 70
f 29 70 71
f 29 72 73
f 29 73 69
f 30 71 34
f 32 68 74
f 32 74 33
f 33 74 72
f 34 71 75
f 34 75 76
f 34 76 35
f 35 76 36
f 36 76 38
f 37 38 76
f 37 76 39
f 39 76 77
f 39 77 40
f 40 77 78
f 40 78 41
f 41 78 42
f 42 78 43
f 43 78 79
f 43 79 44
f 44 79 80
f 44 80 129
f 44 129 81
f 44 81 131
f 44 131 204
f 44 204 273
f 44 273 352
f 44 352 414
f 44 414 422
f 44 422 357
f 44 357 355
f 44 355 277
f 44 277 209
f 44 209 132
f 44 132 82
f 44 82 50
f 44 50 49
f 44 49 48
f 44 48 47
f 44 47 46
f 44 46 45
f 50 82 83
f 50 83 84
f 50 84 85
f 50 85 86
f 50 86 87
f 50 87 88
f 50 88 51
f 51 89 52
f 51 88 89
f 52 89 61
f 53 90 91
f 53 91 92
f 53 92 93
f 53 93 94
f 53 94 54
f 53 64 90
f 54 94 55
f 55 94 95
f 55 95 56
f 56 95 96
f 56 96 57
f 57 96 58
f 58 97 59
f 58 96 97
f 59 97 96
f 59 96 98
f 59 98 99
f 59 99 60
f 60 99 65
f 61 100 62
f 61 89 100
f 62 100 63
f 63 101 64
f 63 100 101
f 64 101 102
f 64 102 103
f 64 103 104
f 64 104 105
f 64 105 106
f 64 106 107
f 64 107 108
f 64 108 109
f 64 109 110
f 64 110 111
f 64 111 112
f 64 112 113
f 64 113 114
f 64 114 115
f 64 115 90
f 65 99 116
f 65 116 66
f 66 116 117
f 66 117 118
f 66 118 119
f 66 119 67
f 67 74 68
f 67 119 74
f 69 73 120
f 69 120 121
f 69 121 122
f 69 122 123
f 69 123 124
f 69 124 76
f 69 76 70
f 70 75 71
f 70 76 75
f 72 74 120
f 72 120 73
f 74 119 125
f 74 125 120
f 76 124 126
f 76 126 127
f 76 127 79
f 76 79 77
f 77 79 78
f 79 127 126
f 79 126 184
f 79 184 253
f 79 253 254
f 79 254 185
f 79 185 128
f 79 128 129
f 79 129 80
f 81 129 130
f 81 130 131
f 82 132 133
f 82 133 134
f 82 134 135
f 82 135 83
f 83 135 136
f 83 136 137
f 83 137 138
f 83 138 85
f 83 85 84
f 85 138 86
f 86 138 87
f 87 138 139
f 87 139 88
f 88 139 89
f 89 139 100
f 90 115 140
f 90 140 91
f 91 140 141
f 91 141 92
f 92 141 93
f 93 141 142
f 93 142 94
f 94 143 144
f 94 144 95
f 94 142 143
f 95 145 96
f 95 144 146
f 95 146 147
f 95 147 145
f 96 145 98
f 98 116 99
f 98 145 148
f 98 148 116
f 100 139 149
f 100 149 102
f 100 102 101
f 102 105 104
f 102 104 103
f 102 149 150
f 102 150 151
f 102 151 152
f 102 152 153
f 102 153 105
f 105 153 106
f 106 153 107
f 107 153 108
f 108 153 154
f 108 154 109
f 109 154 110
f 110 154 155
f 110 155 111
f 111 155 112
f 112 155 156
f 112 156 113
f 113 156 157
f 113 157 158
f 113 158 141
f 113 141 140
f 113 140 114
f 114 140 115
f 116 148 159
f 116 159 117
f 117 159 160
f 117 160 118
f 118 160 161
f 118 161 120
f 118 120 125
f 118 125 119
f 120 162 163
f 120 163 121
f 120 161 162
f 121 163 123
f 121 123 122
f 123 164 165
f 123 165 166
f 123 166 167
f 123 167 124
f 123 163 162
f 123 162 164
f 124 167 126
f 126 167 166
f 126 166 165
f 126 165 168
f 126 168 169
f 126 169 170
f 126 170 171
f 126 171 172
f 126 172 173
f 126 173 174
f 126 174 175
f 126 175 176
f 126 176 177
f 126 177 178
f 126 178 179
f 126 179 180
f 126 180 181
f 126 181 182
f 126 182 183
f 126 183 184
f 128 185 186
f 128 186 130
f 128 130 129
f 130 186 187
f 130 187 188
f 130 188 189
f 130 189 190
f 130 190 191
f 130 191 131
f 131 192 193
f 131 193 194
f 131 194 195
f 131 195 196
f 131 196 197
f 131 197 198
f 131 198 199
f 131 199 200
f 131 200 201
f 131 201 202
f 131 202 203
f 131 203 272
f 131 272 204
f 131 191 205
f 131 205 206
f 131 206 207
f 131 207 208
f 131 208 192
f 132 209 210
f 132 210 133
f 133 211 134
f 133 210 211
f 134 212 213
f 134 213 214
f 134 214 215
f 134 215 216
f 134 216 149
f 134 149 136
f 134 136 135
f 134 211 217
f 134 217 212
f 136 149 137
f 137 149 139
f 137 139 138
f 141 218 219
f 141 219 220
f 141 220 221
f 141 221 222
f 141 222 142
f 141 158 223
f 141 223 224
f 141 224 218
f 142 225 226
f 142 226 143
f 142 222 225
f 143 227 146
f 143 146 144
f 143 226 227
f 145 147 148
f 146 227 147
f 147 227 148
f 148 227 228
f 148 228 159
f 149 216 151
f 149 151 150
f 151 216 215
f 151 215 214
f 151 214 229
f 151 229 152
f 152 229 230
f 152 230 231
f 152 231 153
f 153 232 233
f 153 233 154
f 153 231 232
f 154 234 235
f 154 235 155
f 154 233 232
f 154 232 234
f 155 235 223
f 155 223 157
f 155 157 156
f 157 223 158
f 159 228 236
f 159 236 160
f 160 237 161
f 160 236 237
f 161 237 238
f 161 238 162
f 162 168 164
f 162 238 239
f 162 239 168
f 164 168 165
f 168 239 169
f 169 239 170
f 170 239 240
f 170 240 171
f 171 240 172
f 172 240 241
f 172 241 173
f 173 241 174
f 174 241 175
f 175 241 242
f 175 242 176
f 176 243 244
f 176 244 177
f 176 242 243
f 177 244 178
f 178 244 179
f 179 244 245
f 179 245 180
f 180 245 246
f 180 246 181
f 181 246 182
f 182 247 183
f 182 246 248
f 182 248 247
f 183 249 250
f 183 250 184
f 183 247 251
f 183 251 249
f 184 250 252
f 184 252 253
f 185 254 252
f 185 252 255
f 185 255 186
f 186 255 252
f 186 252 256
f 186 256 187
f 187 256 188
f 188 256 189
f 189 256 257
f 189 257 258
f 189 258 259
f 189 259 260
f 189 260 190
f 190 260 205
f 190 205 191
f 192 208 261
f 192 261 262
f 192 262 193
f 193 262 194
f 194 263 195
f 194 262 264
f 194 264 263
f 195 263 196
f 196 263 197
f 197 263 265
f 197 265 266
f 197 266 198
f 198 266 267
f 198 267 199
f 199 267 200
f 200 267 268
f 200 268 201
f 201 268 202
f 202 268 269
f 202 269 203
f 203 269 270
f 203 270 271
f 203 271 350
f 203 350 272
f 204 272 274
f 204 274 273
f 205 260 275
f 205 275 206
f 206 275 276
f 206 276 207
f 207 276 208
f 208 276 261
f 209 277 210
f 210 278 279
f 210 279 211
f 210 277 280
f 210 280 278
f 211 279 278
f 211 278 217
f 212 217 281
f 212 281 213
f 213 282 283
f 213 283 214
f 213 281 282
f 214 283 229
f 217 278 284
f 217 284 285
f 217 285 281
f 218 286 219
f 218 224 287
f 218 287 286
f 219 286 288
f 219 288 289
f 219 289 220
f 220 290 221
f 220 289 290
f 221 290 291
f 221 291 222
f 222 291 225
f 223 292 224
f 223 235 234
f 223 234 293
f 223 293 294
f 223 294 292
f 224 292 295
f 224 295 287
f 225 296 226
f 225 291 297
f 225 297 296
f 226 296 298
f 226 298 299
f 226 299 227
f 227 299 228
f 228 299 236
f 229 283 300
f 229 300 301
f 229 301 302
f 229 302 231
f 229 231 230
f 231 302 232
f 232 302 301
f 232 301 294
f 232 294 293
f 232 293 234
f 236 299 303
f 236 303 304
f 236 304 305
f 236 305 237
f 237 306 238
f 237 305 307
f 237 307 306
f 238 306 239
f 239 306 308
f 239 308 240
f 240 308 241
f 241 308 309
f 241 309 310
f 241 310 242
f 242 310 309
f 242 309 307
f 242 307 311
f 242 311 312
f 242 312 243
f 243 312 313
f 243 313 314
f 243 314 315
f 243 315 245
f 243 245 244
f 245 314 316
f 245 316 317
f 245 317 318
f 245 318 246
f 245 315 314
f 246 318 317
f 246 317 248
f 247 319 251
f 247 248 319
f 248 320 321
f 248 321 322
f 248 322 323
f 248 323 324
f 248 324 325
f 248 325 319
f 248 317 326
f 248 326 327
f 248 327 320
f 249 251 328
f 249 328 329
f 249 329 330
f 249 330 250
f 250 330 258
f 250 258 331
f 250 331 252
f 251 319 328
f 252 254 253
f 252 331 256
f 256 331 257
f 257 331 258
f 258 330 332
f 258 332 333
f 258 333 334
f 258 334 260
f 258 260 259
f 260 335 261
f 260 261 275
f 260 334 335
f 261 335 336
f 261 336 337
f 261 337 264
f 261 264 262
f 261 276 275
f 263 338 339
f 263 339 265
f 263 264 340
f 263 340 341
f 263 341 338
f 264 342 340
f 264 337 343
f 264 343 342
f 265 339 266
f 266 339 344
f 266 344 267
f 267 344 345
f 267 345 268
f 268 345 269
f 269 345 346
f 269 346 347
f 269 347 270
f 270 347 348
f 270 348 271
f 271 349 350
f 271 348 349
f 272 351 274
f 272 350 351
f 273 274 353
f 273 353 352
f 274 351 354
f 274 354 353
f 277 355 280
f 278 280 356
f 278 356 284
f 280 355 357
f 280 357 358
f 280 358 356
f 281 285 359
f 281 359 282
f 282 360 283
f 282 359 360
f 283 360 300
f 284 361 359
f 284 359 285
f 284 356 361
f 286 287 288
f 287 295 362
f 287 362 363
f 287 363 288
f 288 364 365
f 288 365 289
f 288 363 364
f 289 365 290
f 290 366 291
f 290 365 366
f 291 366 297
f 292 294 301
f 292 301 295
f 295 301 367
f 295 367 368
f 295 368 369
f 295 369 362
f 296 370 298
f 296 297 371
f 296 371 370
f 297 366 372
f 297 372 371
f 298 373 374
f 298 374 303
f 298 303 299
f 298 370 373
f 300 360 375
f 300 375 301
f 301 376 367
f 301 375 376
f 303 374 304
f 304 374 307
f 304 307 305
f 306 307 377
f 306 377 308
f 307 374 373
f 307 373 378
f 307 378 312
f 307 312 311
f 307 309 377
f 308 377 309
f 312 378 379
f 312 379 313
f 313 379 380
f 313 380 381
f 313 381 314
f 314 381 382
f 314 382 383
f 314 383 317
f 314 317 316
f 317 384 326
f 317 383 384
f 319 325 328
f 320 327 385
f 320 385 386
f 320 386 387
f 320 387 321
f 321 387 388
f 321 388 389
f 321 389 390
f 321 390 322
f 322 390 343
f 322 343 391
f 322 391 392
f 322 392 323
f 323 392 393
f 323 393 324
f 324 329 328
f 324 328 325
f 324 393 334
f 324 334 394
f 324 394 330
f 324 330 329
f 326 384 395
f 326 395 327
f 327 395 385
f 330 394 332
f 332 394 333
f 333 394 334
f 334 393 396
f 334 396 336
f 334 336 397
f 334 397 335
f 335 397 336
f 336 343 337
f 336 396 393
f 336 393 391
f 336 391 343
f 338 341 398
f 338 398 339
f 339 398 399
f 339 399 344
f 340 342 341
f 341 342 400
f 341 400 398
f 342 343 401
f 342 401 402
f 342 402 403
f 342 403 400
f 343 390 404
f 343 404 401
f 344 399 345
f 345 399 346
f 346 399 400
f 346 400 405
f 346 405 406
f 346 406 407
f 346 407 408
f 346 408 347
f 347 408 409
f 347 409 348
f 348 409 410
f 348 410 411
f 348 411 349
f 349 411 412
f 349 412 413
f 349 413 350
f 350 354 351
f 350 413 354
f 352 353 415
f 352 415 414
f 353 354 416
f 353 416 415
f 354 417 418
f 354 418 419
f 354 419 416
f 354 413 417
f 356 358 420
f 356 420 421
f 356 421 361
f 357 422 423
f 357 423 358
f 358 423 420
f 359 361 416
f 359 416 424
f 359 424 425
f 359 425 426
f 359 426 360
f 360 426 427
f 360 427 428
f 360 428 429
f 360 429 375
f 361 421 416
f 362 430 363
f 362 369 431
f 362 431 430
f 363 430 364
f 364 432 433
f 364 433 365
f 364 430 434
f 364 434 435
f 364 435 432
f 365 433 372
f 365 372 366
f 367 376 436
f 367 436 368
f 368 436 369
f 369 436 431
f 370 378 373
f 370 371 378
f 371 379 378
f 371 372 380
f 371 380 379
f 372 433 437
f 372 437 380
f 375 429 438
f 375 438 376
f 376 439 436
f 376 438 440
f 376 440 441
f 376 441 439
f 380 437 381
f 381 437 382
f 382 437 383
f 383 437 442
f 383 442 384
f 384 443 395
f 384 442 443
f 385 395 444
f 385 444 445
f 385 445 386
f 386 445 446
f 386 446 387
f 387 446 388
f 388 446 447
f 388 447 389
f 389 447 407
f 389 407 448
f 389 448 390
f 390 448 405
f 390 405 400
f 390 400 403
f 390 403 404
f 391 393 392
f 395 443 444
f 398 400 399
f 401 404 402
f 402 404 403
f 405 448 406
f 406 448 407
f 407 447 449
f 407 449 408
f 408 449 409
f 409 449 410
f 410 449 411
f 411 449 412
f 412 450 417
f 412 417 413
f 412 449 451
f 412 451 452
f 412 452 450
f 414 415 453
f 414 453 422
f 415 416 420
f 415 420 453
f 416 419 425
f 416 425 424
f 416 421 420
f 417 450 425
f 417 425 418
f 418 425 419
f 420 423 453
f 422 453 423
f 425 450 454
f 425 454 426
f 426 454 452
f 426 452 455
f 426 455 427
f 427 455 428
f 428 456 438
f 428 438 429
f 428 455 456
f 430 431 457
f 430 457 458
f 430 458 434
f 431 436 439
f 431 439 441
f 431 441 457
f 432 437 433
f 432 435 437
f 434 458 459
f 434 459 460
f 434 460 461
f 434 461 435
f 435 461 462
f 435 462 444
f 435 444 442
f 435 442 437
f 438 456 440
f 440 456 463
f 440 463 441
f 441 463 457
f 442 444 443
f 444 462 464
f 444 464 445
f 445 459 465
f 445 465 446
f 445 464 459
f 446 465 466
f 446 466 447
f 447 466 449
f 449 466 465
f 449 465 467
f 449 467 468
f 449 468 451
f 450 452 454
f 451 468 452
f 452 468 469
f 452 469 455
f 455 469 456
f 456 469 463
f 457 463 467
f 457 467 458
f 458 467 459
f 459 467 465
f 459 464 462
f 459 462 460
f 460 462 461
f 463 469 468
f 463 468 467

