# https://github.com/mikedh/trimesh
v 0.00566919 0.00827691 -0.00388025
v 0.00566919 0.00827691 -0.00595646
v 0.00538358 0.00827691 -0.00388025
v 0.00566919 0.00544121 -0.00388025
v 0.00538358 0.00827691 -0.00595646
v 0.00566919 0.00299007 -0.00595646
v 0.00499289 0.00811181 -0.00595646
v 0.00492941 0.00808490 -0.00388025
v 0.00566919 0.00306097 -0.00586481
v 0.00493479 0.00612439 -0.00388025
v 0.00559292 0.00306097 -0.00595646
v 0.00492941 0.00808490 -0.00595646
v 0.00472498 0.00763980 -0.00388025
v 0.00493302 0.00612750 -0.00388025
v 0.00498232 0.00398843 -0.00595646
v 0.00472498 0.00763980 -0.00595646
v 0.00472489 0.00762789 -0.00388025
v 0.00473620 0.00661917 -0.00388025
v 0.00494906 0.00406141 -0.00595646
v 0.00472267 0.00713570 -0.00595646
v 0.00472267 0.00713570 -0.00388025
v 0.00473508 0.00663108 -0.00388025
v 0.00472508 0.00504787 -0.00595646
v 0.00478392 0.00454325 -0.00595646
v 0.00472267 0.00555249 -0.00595646
v 0.00472267 0.00712379 -0.00388025
v 0.00472267 0.00663108 -0.00437268
v 0.00472267 0.00612698 -0.00487710
f 1 2 5
f 1 5 3
f 1 3 8
f 1 8 13
f 1 13 17
f 1 17 21
f 1 21 26
f 1 26 22
f 1 22 18
f 1 18 14
f 1 14 10
f 1 10 4
f 1 4 9
f 1 9 6
f 1 6 2
f 2 6 11
f 2 11 15
f 2 15 19
f 2 19 24
f 2 24 23
f 2 23 25
f 2 25 20
f 2 20 16
f 2 16 12
f 2 12 7
f 2 7 5
f 3 5 7
f 3 7 8
f 4 10 9
f 6 9 11
f 7 12 8
f 8 12 16
f 8 16 13
f 9 10 11
f 10 14 15
f 10 15 11
f 13 16 17
f 14 18 19
f 14 19 15
f 16 20 17
f 17 20 21
f 18 22 23
f 18 23 24
f 18 24 19
f 20 25 28
f 20 28 27
f 20 27 26
f 20 26 21
f 22 27 28
f 22 28 23
f 22 26 27
f 23 28 25

