# https://github.com/mikedh/trimesh
v -0.03258834 0.01216092 -0.00129780
v -0.03899916 0.00977339 0.00546158
v -0.00256646 0.01178624 0.00115676
v 0.09621455 0.01108479 -0.00047257
v -0.05661842 0.00853170 -0.00533459
v -0.07976859 0.00980824 -0.00254214
v -0.09246451 0.00948802 -0.00146187
v -0.09738785 0.00912205 0.00263664
v -0.07958003 0.00901095 0.00445604
v -0.03342636 0.00101401 0.00821992
v -0.01892870 0.00994984 0.00524715
v -0.08159127 0.00701117 0.00622670
v -0.05630417 0.00730308 0.00621371
v -0.06988001 0.00242998 0.00774720
v 0.10654308 0.00325995 -0.00094854
v -0.02766501 0.00461710 -0.00689569
v -0.06979620 0.00332312 -0.00724170
v -0.10260449 0.00835960 -0.00319517
v -0.03922961 0.00391565 -0.00714261
v -0.10748593 0.00029949 0.00091472
v -0.09692694 -0.00766476 0.00442030
v -0.08001999 -0.00220132 0.00757663
v -0.04819637 -0.00001637 0.00820530
v -0.05898582 -0.00966672 0.00303301
v 0.02927811 -0.01009369 -0.00087869
v 0.08927997 -0.00304000 -0.00112723
v -0.04880393 -0.00124718 -0.00837558
v -0.06049425 -0.00649496 -0.00727257
v -0.09120749 -0.00712234 -0.00443951
v -0.07212169 -0.00933996 0.00128834
v -0.00158179 -0.01004794 -0.00054405
v 0.06571080 -0.00637515 -0.00137577
f 1 2 3
f 1 3 4
f 1 4 5
f 1 5 6
f 1 6 7
f 1 7 8
f 1 8 9
f 1 9 2
f 2 10 11
f 2 11 3
f 2 9 12
f 2 12 13
f 2 13 14
f 2 14 10
f 3 11 4
f 4 11 10
f 4 10 15
f 4 15 16
f 4 16 5
f 5 17 18
f 5 18 6
f 5 16 19
f 5 19 17
f 6 18 7
f 7 18 8
f 8 18 20
f 8 20 21
f 8 21 22
f 8 22 12
f 8 12 9
f 10 23 24
f 10 24 25
f 10 25 26
f 10 26 15
f 10 14 23
f 12 22 14
f 12 14 13
f 14 22 23
f 15 26 27
f 15 27 16
f 16 27 19
f 17 19 27
f 17 27 28
f 17 28 29
f 17 29 18
f 18 29 20
f 20 29 21
f 21 29 30
f 21 30 24
f 21 24 22
f 22 24 23
f 24 31 25
f 24 30 31
f 25 32 26
f 25 31 28
f 25 28 32
f 26 32 27
f 27 32 28
f 28 31 29
f 29 31 30

