# https://github.com/mikedh/trimesh
v 0.11019487 -0.07590499 -0.01073808
v 0.10948277 -0.07590499 -0.01073808
v 0.11124265 -0.07600833 -0.01073808
v 0.11124265 -0.06504070 -0.01116227
v 0.10923901 -0.07597014 -0.01073808
v 0.10697705 -0.06504070 -0.01119276
v 0.11124265 -0.07651487 -0.01073808
v 0.11124265 -0.06504070 -0.01453139
v 0.10900397 -0.07607234 -0.01073808
v 0.10542081 -0.06504070 -0.01122325
v 0.10847223 -0.07651487 -0.01073808
v 0.11124265 -0.07651487 -0.01437350
v 0.11124265 -0.06709495 -0.01454358
v 0.10708992 -0.07248386 -0.01712057
v 0.10711203 -0.07209974 -0.01710431
v 0.10722664 -0.07007805 -0.01701893
v 0.10672166 -0.06906048 -0.01721950
v 0.10697124 -0.06821137 -0.01698775
v 0.10634408 -0.06794406 -0.01717817
v 0.10619806 -0.06758352 -0.01709821
v 0.10562501 -0.06740944 -0.01711854
v 0.10578616 -0.06714100 -0.01685223
v 0.10862175 -0.06504070 -0.01463777
v 0.10542081 -0.06504070 -0.01468182
v 0.10529921 -0.07209974 -0.01391137
v 0.10529921 -0.07651487 -0.01367894
v 0.10542081 -0.06617958 -0.01121309
v 0.10542081 -0.06629863 -0.01121241
v 0.10542081 -0.06694108 -0.01122325
v 0.10542081 -0.06728476 -0.01126865
v 0.10542081 -0.06769696 -0.01134048
v 0.11124265 -0.07602517 -0.01441551
v 0.10733659 -0.07651487 -0.01670044
v 0.11124265 -0.06849665 -0.01452868
v 0.11124265 -0.07505589 -0.01445549
v 0.10671176 -0.07288820 -0.01728184
v 0.10695727 -0.07209974 -0.01718901
v 0.10660064 -0.07107093 -0.01737061
v 0.10617362 -0.07000056 -0.01747564
v 0.10590251 -0.06908855 -0.01747293
v 0.10573962 -0.06833716 -0.01740043
v 0.10550399 -0.06770595 -0.01727777
v 0.10542081 -0.06746784 -0.01715513
v 0.10542081 -0.06736563 -0.01707991
v 0.10542081 -0.06718144 -0.01689899
v 0.10822090 -0.06504070 -0.01464455
v 0.10529921 -0.07209974 -0.01765250
v 0.10529921 -0.07651487 -0.01724525
v 0.10704163 -0.07651487 -0.01683868
v 0.10612533 -0.07246926 -0.01753595
v 0.10666348 -0.07209974 -0.01732047
v 0.10672398 -0.07651487 -0.01696471
v 0.10613231 -0.07209974 -0.01752714
v 0.10556217 -0.06993766 -0.01758203
v 0.10555636 -0.07182232 -0.01766063
v 0.10542081 -0.06944122 -0.01755289
v 0.10542081 -0.06877407 -0.01749394
v 0.10542081 -0.06821474 -0.01740246
v 0.10542081 -0.06775537 -0.01729743
v 0.10542081 -0.06850114 -0.01746006
v 0.10542081 -0.06769247 -0.01727303
v 0.10542081 -0.07186837 -0.01765995
v 0.10529921 -0.07250857 -0.01763624
v 0.10542081 -0.07012747 -0.01759897
v 0.10542081 -0.07149660 -0.01765521
v 0.10529921 -0.07311957 -0.01758745
v 0.10559417 -0.07651487 -0.01723576
v 0.10635223 -0.07651487 -0.01708601
v 0.10605668 -0.07651487 -0.01715038
v 0.10581292 -0.07334645 -0.01750817
f 1 2 5
f 1 5 9
f 1 9 11
f 1 11 7
f 1 7 3
f 1 3 4
f 1 4 2
f 2 4 6
f 2 6 5
f 3 7 12
f 3 12 32
f 3 32 35
f 3 35 34
f 3 34 13
f 3 13 8
f 3 8 4
f 4 8 23
f 4 23 46
f 4 46 24
f 4 24 10
f 4 10 6
f 5 6 9
f 6 10 9
f 7 11 26
f 7 26 48
f 7 48 67
f 7 67 69
f 7 69 68
f 7 68 52
f 7 52 49
f 7 49 33
f 7 33 12
f 8 13 14
f 8 14 15
f 8 15 16
f 8 16 17
f 8 17 18
f 8 18 19
f 8 19 20
f 8 20 21
f 8 21 22
f 8 22 23
f 9 10 11
f 10 24 47
f 10 47 25
f 10 25 26
f 10 26 27
f 10 27 11
f 11 27 28
f 11 28 29
f 11 29 30
f 11 30 31
f 11 31 26
f 12 33 32
f 13 34 14
f 14 35 32
f 14 32 33
f 14 33 36
f 14 36 37
f 14 37 15
f 14 34 35
f 15 37 16
f 16 38 17
f 16 37 38
f 17 38 39
f 17 39 40
f 17 40 19
f 17 19 18
f 19 40 41
f 19 41 42
f 19 42 20
f 20 42 21
f 21 42 43
f 21 43 44
f 21 44 22
f 22 45 46
f 22 46 23
f 22 44 45
f 24 46 45
f 24 45 47
f 25 47 63
f 25 63 66
f 25 66 48
f 25 48 26
f 26 31 30
f 26 30 29
f 26 29 28
f 26 28 27
f 33 49 36
f 36 50 51
f 36 51 37
f 36 49 52
f 36 52 50
f 37 51 38
f 38 51 50
f 38 50 53
f 38 53 39
f 39 54 40
f 39 53 55
f 39 55 54
f 40 54 56
f 40 56 57
f 40 57 41
f 41 58 59
f 41 59 42
f 41 57 60
f 41 60 58
f 42 59 61
f 42 61 43
f 43 61 47
f 43 47 44
f 44 47 45
f 47 62 55
f 47 55 63
f 47 61 59
f 47 59 58
f 47 58 60
f 47 60 57
f 47 57 56
f 47 56 64
f 47 64 65
f 47 65 62
f 48 66 67
f 50 52 68
f 50 68 69
f 50 69 70
f 50 70 55
f 50 55 53
f 54 55 64
f 54 64 56
f 55 62 65
f 55 65 64
f 55 70 66
f 55 66 63
f 66 70 67
f 67 70 69

