# https://github.com/mikedh/trimesh
v 0.00045186 0.08420117 -0.01212215
v 0.00045186 0.07682830 -0.01220744
v 0.00045186 0.08420117 -0.01512543
v -0.11532389 0.08420117 -0.01154535
v -0.12605862 0.07682830 -0.01153415
v 0.00045186 0.07682830 -0.01522120
v 0.00045186 0.08137861 -0.01518578
v -0.00297263 0.08420117 -0.01514097
v -0.11831508 0.08420117 -0.01153415
v -0.14234242 0.07682830 -0.01153415
v -0.00135124 0.07682830 -0.01522590
v -0.00189636 0.08119169 -0.01518650
v -0.00941626 0.08420117 -0.01513916
v -0.14234242 0.08420117 -0.01153415
v -0.14234242 0.07682830 -0.01461729
v -0.01244938 0.07682830 -0.01521831
v -0.01380520 0.07994820 -0.01519229
v -0.02556029 0.08063237 -0.01517349
v -0.02944604 0.08420117 -0.01511350
v -0.14234242 0.08420117 -0.01449658
v -0.14076296 0.07682830 -0.01468343
v -0.01504920 0.07682830 -0.01521433
v -0.02908263 0.07682830 -0.01519120
v -0.04166239 0.07884617 -0.01515578
v -0.04728135 0.08420117 -0.01508025
v -0.13877816 0.08420117 -0.01462886
v -0.13979852 0.07682830 -0.01469644
v -0.04389879 0.07682830 -0.01515831
v -0.05842142 0.07682830 -0.01511205
v -0.06174807 0.08059845 -0.01507411
v -0.05916224 0.08420117 -0.01504303
v -0.12981858 0.08420117 -0.01472354
v -0.07597718 0.07682830 -0.01503146
v -0.06226524 0.07682830 -0.01509543
v -0.06911422 0.08420117 -0.01500580
v -0.09147825 0.08094775 -0.01493352
f 1 2 6
f 1 6 7
f 1 7 3
f 1 3 8
f 1 8 13
f 1 13 19
f 1 19 25
f 1 25 31
f 1 31 35
f 1 35 32
f 1 32 26
f 1 26 20
f 1 20 14
f 1 14 9
f 1 9 4
f 1 4 5
f 1 5 2
f 2 5 10
f 2 10 15
f 2 15 21
f 2 21 27
f 2 27 33
f 2 33 34
f 2 34 29
f 2 29 28
f 2 28 23
f 2 23 22
f 2 22 16
f 2 16 11
f 2 11 6
f 3 7 8
f 4 9 5
f 5 9 14
f 5 14 10
f 6 11 7
f 7 11 12
f 7 12 13
f 7 13 8
f 10 14 20
f 10 20 15
f 11 16 17
f 11 17 12
f 12 17 18
f 12 18 13
f 13 18 19
f 15 20 21
f 16 22 18
f 16 18 17
f 18 22 23
f 18 23 24
f 18 24 25
f 18 25 19
f 20 26 21
f 21 26 27
f 23 28 24
f 24 28 29
f 24 29 30
f 24 30 25
f 25 30 31
f 26 32 27
f 27 32 33
f 29 34 30
f 30 35 31
f 30 34 36
f 30 36 35
f 32 36 33
f 32 35 36
f 33 36 34

