# https://github.com/mikedh/trimesh
v 0.15050300 0.07685660 -0.01472193
v 0.15344637 0.07685660 -0.01472193
v 0.15057723 0.07685660 -0.01575106
v 0.15280319 0.06939937 -0.01472193
v 0.15346568 0.07685660 -0.01501316
v 0.15354296 0.07667190 -0.01472193
v 0.15062349 0.07685660 -0.01617940
v 0.15367313 0.06939937 -0.01671456
v 0.15290182 0.06939937 -0.01472193
v 0.15068197 0.07685660 -0.01652510
v 0.15075569 0.07685660 -0.01672705
v 0.15078874 0.07685660 -0.01680544
v 0.15353534 0.07685660 -0.01633246
v 0.15396039 0.07602072 -0.01642572
v 0.15371787 0.07632295 -0.01472193
v 0.15387142 0.06939937 -0.01709055
v 0.15563266 0.06939937 -0.01473336
v 0.15558181 0.06994104 -0.01472193
v 0.15096161 0.07685660 -0.01701456
v 0.15350839 0.07685660 -0.01666407
v 0.15358873 0.07668723 -0.01675495
v 0.15438596 0.07500306 -0.01664282
v 0.15386735 0.07598494 -0.01472193
v 0.15442613 0.07488333 -0.01586399
v 0.15406260 0.06939937 -0.01725477
v 0.15569520 0.06939937 -0.01565301
v 0.15554368 0.07021553 -0.01472193
v 0.15102517 0.07685660 -0.01706292
v 0.15349924 0.07685660 -0.01672067
v 0.15346822 0.07685660 -0.01678179
v 0.15444138 0.07474755 -0.01691598
v 0.15384651 0.07543304 -0.01723829
v 0.15482475 0.07383428 -0.01623361
v 0.15430207 0.07497605 -0.01472193
v 0.15463408 0.07404161 -0.01472193
v 0.15476730 0.07366419 -0.01472193
v 0.15434071 0.06939937 -0.01737594
v 0.15126617 0.07685660 -0.01722846
v 0.15569723 0.06939937 -0.01637789
v 0.15557775 0.07007683 -0.01513938
v 0.15531692 0.07147337 -0.01472193
v 0.15328315 0.07685660 -0.01698028
v 0.15423800 0.07435771 -0.01730074
v 0.15486440 0.07355614 -0.01667603
v 0.15509167 0.07192964 -0.01686575
v 0.15382261 0.07441831 -0.01740330
v 0.15259371 0.07679309 -0.01732917
v 0.15256676 0.07685660 -0.01732385
v 0.15309046 0.07685660 -0.01713599
v 0.15503422 0.07272318 -0.01472193
v 0.15517302 0.07244942 -0.01622139
v 0.15440173 0.06939937 -0.01739294
v 0.15134905 0.07685660 -0.01725955
v 0.15567588 0.06939937 -0.01662634
v 0.15516744 0.07219245 -0.01472193
v 0.15398683 0.07351234 -0.01742058
v 0.15542979 0.06939937 -0.01706584
v 0.15465492 0.07250052 -0.01724680
v 0.15504897 0.06939937 -0.01735202
v 0.15535962 0.07118282 -0.01657001
v 0.15562859 0.06939937 -0.01676744
v 0.15559758 0.06939937 -0.01682430
v 0.15549640 0.06939937 -0.01698108
v 0.15205832 0.07685660 -0.01734750
v 0.15249762 0.07685660 -0.01732997
v 0.15462747 0.06939937 -0.01743120
v 0.15180410 0.07685660 -0.01734511
v 0.15334213 0.07389925 -0.01740198
v 0.15476780 0.06939937 -0.01742589
v 0.15469052 0.06939937 -0.01743625
v 0.15526404 0.06939937 -0.01719843
f 1 2 5
f 1 5 13
f 1 13 20
f 1 20 29
f 1 29 30
f 1 30 42
f 1 42 49
f 1 49 48
f 1 48 65
f 1 65 64
f 1 64 67
f 1 67 53
f 1 53 38
f 1 38 28
f 1 28 19
f 1 19 12
f 1 12 11
f 1 11 10
f 1 10 7
f 1 7 3
f 1 3 4
f 1 4 9
f 1 9 18
f 1 18 27
f 1 27 41
f 1 41 55
f 1 55 50
f 1 50 36
f 1 36 35
f 1 35 34
f 1 34 23
f 1 23 15
f 1 15 6
f 1 6 2
f 2 6 5
f 3 7 4
f 4 8 16
f 4 16 25
f 4 25 37
f 4 37 52
f 4 52 66
f 4 66 70
f 4 70 69
f 4 69 59
f 4 59 71
f 4 71 57
f 4 57 63
f 4 63 62
f 4 62 61
f 4 61 54
f 4 54 39
f 4 39 26
f 4 26 17
f 4 17 9
f 4 7 10
f 4 10 11
f 4 11 12
f 4 12 8
f 5 6 14
f 5 14 13
f 6 15 14
f 8 12 16
f 9 17 18
f 12 19 16
f 13 14 21
f 13 21 20
f 14 22 21
f 14 15 23
f 14 23 24
f 14 24 22
f 16 19 25
f 17 26 18
f 18 26 27
f 19 28 25
f 20 21 29
f 21 30 29
f 21 22 31
f 21 31 32
f 21 32 30
f 22 24 33
f 22 33 31
f 23 34 24
f 24 34 35
f 24 35 36
f 24 36 33
f 25 28 38
f 25 38 37
f 26 39 40
f 26 40 27
f 27 40 41
f 30 32 42
f 31 43 32
f 31 33 44
f 31 44 45
f 31 45 43
f 32 43 46
f 32 46 47
f 32 47 48
f 32 48 49
f 32 49 42
f 33 36 50
f 33 50 51
f 33 51 44
f 37 38 53
f 37 53 52
f 39 54 51
f 39 51 40
f 40 51 41
f 41 51 55
f 43 56 46
f 43 45 57
f 43 57 58
f 43 58 59
f 43 59 56
f 44 51 60
f 44 60 61
f 44 61 45
f 45 61 62
f 45 62 63
f 45 63 57
f 46 56 64
f 46 64 65
f 46 65 47
f 47 65 48
f 50 55 51
f 51 54 60
f 52 53 67
f 52 67 66
f 54 61 60
f 56 68 67
f 56 67 64
f 56 59 69
f 56 69 70
f 56 70 68
f 57 71 58
f 58 71 59
f 66 67 70
f 67 68 70

