# https://github.com/mikedh/trimesh
v -0.08386034 -0.04742753 -0.01233797
v -0.08386034 -0.04963045 -0.01231834
v -0.08386034 -0.04742753 -0.01554365
v -0.10168497 -0.04742753 -0.01213450
v -0.08386034 -0.06715155 -0.01216610
v -0.08386034 -0.06288085 -0.01540433
v -0.08730799 -0.04742753 -0.01653800
v -0.10744010 -0.04742753 -0.01208328
v -0.08535884 -0.06715155 -0.01215461
v -0.08386034 -0.06715155 -0.01536556
v -0.08796495 -0.04742753 -0.01669743
v -0.12141530 -0.04742753 -0.01197747
v -0.12385852 -0.05205541 -0.01195689
v -0.13378885 -0.05163838 -0.01190135
v -0.10845539 -0.06715155 -0.01202487
v -0.08846445 -0.04742753 -0.01678552
v -0.08840472 -0.04742753 -0.01677546
v -0.12499869 -0.06715155 -0.01634890
v -0.12326672 -0.06615145 -0.01641928
v -0.12133386 -0.06503744 -0.01646140
v -0.13227404 -0.04742753 -0.01191859
v -0.13932680 -0.04742753 -0.01189657
v -0.13932680 -0.05138739 -0.01189561
v -0.13932680 -0.05379690 -0.01189561
v -0.13159538 -0.05914880 -0.01191524
v -0.13213831 -0.06715155 -0.01194444
v -0.11145784 -0.05937469 -0.01656912
v -0.13932680 -0.04742753 -0.01502613
v -0.12549277 -0.06715155 -0.01633693
v -0.12383137 -0.06616497 -0.01639917
v -0.12222428 -0.06523437 -0.01644178
v -0.13932680 -0.06715155 -0.01192146
v -0.12553077 -0.06715155 -0.01633549
v -0.12616057 -0.06715155 -0.01629911
v -0.13932680 -0.06715155 -0.01500075
f 1 2 5
f 1 5 10
f 1 10 6
f 1 6 3
f 1 3 7
f 1 7 11
f 1 11 17
f 1 17 16
f 1 16 28
f 1 28 22
f 1 22 21
f 1 21 12
f 1 12 8
f 1 8 4
f 1 4 2
f 2 4 5
f 3 6 7
f 4 8 5
f 5 8 9
f 5 9 15
f 5 15 26
f 5 26 32
f 5 32 35
f 5 35 34
f 5 34 33
f 5 33 29
f 5 29 18
f 5 18 10
f 6 10 7
f 7 10 11
f 8 12 9
f 9 12 13
f 9 13 14
f 9 14 15
f 10 16 17
f 10 17 11
f 10 18 19
f 10 19 20
f 10 20 16
f 12 21 14
f 12 14 13
f 14 21 22
f 14 22 23
f 14 23 24
f 14 24 25
f 14 25 15
f 15 25 26
f 16 20 27
f 16 27 28
f 18 29 19
f 19 29 30
f 19 30 31
f 19 31 20
f 20 31 27
f 22 28 35
f 22 35 32
f 22 32 24
f 22 24 23
f 24 32 25
f 25 32 26
f 27 31 28
f 28 31 30
f 28 30 33
f 28 33 34
f 28 34 35
f 29 33 30

