# https://github.com/mikedh/trimesh
v 0.14348698 0.00009077 -0.01131829
v 0.14348698 0.00009077 -0.01444903
v 0.14188431 0.00009077 -0.01133320
v 0.14348698 -0.02952905 -0.01106788
v 0.14348698 -0.00379147 -0.01443675
v 0.10592856 0.00009077 -0.01505685
v 0.14066629 -0.02952905 -0.01110165
v 0.06163897 0.00009077 -0.01243525
v 0.14348698 -0.02952905 -0.01433501
v 0.14348698 -0.01866516 -0.01438939
v 0.10103243 -0.02765896 -0.01500861
v 0.09700974 -0.00439453 -0.01516867
v 0.09789121 0.00009077 -0.01517350
v 0.13946430 -0.02952905 -0.01111831
v 0.06163897 0.00009077 -0.01552915
v 0.06163897 -0.02952905 -0.01228483
v 0.13264496 -0.02952905 -0.01122005
v 0.10254695 -0.02952905 -0.01497089
v 0.09769889 -0.02952905 -0.01504150
v 0.08462115 -0.02750530 -0.01524849
v 0.09186519 -0.01095867 -0.01521560
v 0.07725692 -0.00766790 -0.01541075
v 0.07033342 0.00009077 -0.01546732
v 0.06622259 0.00009077 -0.01550065
v 0.06163897 -0.00257374 -0.01553880
v 0.06163897 -0.02952905 -0.01551907
v 0.08459712 -0.02952905 -0.01523182
v 0.07417179 -0.02193853 -0.01540285
v 0.06199956 -0.01061365 -0.01554582
v 0.06887499 -0.00048040 -0.01548398
v 0.06902724 0.00009077 -0.01548048
v 0.06873075 0.00009077 -0.01548311
v 0.06163897 -0.01002508 -0.01554757
v 0.06163897 -0.01078761 -0.01554757
f 1 2 6
f 1 6 13
f 1 13 23
f 1 23 31
f 1 31 32
f 1 32 24
f 1 24 15
f 1 15 8
f 1 8 3
f 1 3 4
f 1 4 9
f 1 9 10
f 1 10 5
f 1 5 2
f 2 5 6
f 3 7 4
f 3 8 7
f 4 7 14
f 4 14 17
f 4 17 16
f 4 16 26
f 4 26 27
f 4 27 19
f 4 19 18
f 4 18 9
f 5 10 6
f 6 11 12
f 6 12 13
f 6 10 11
f 7 8 14
f 8 15 25
f 8 25 33
f 8 33 34
f 8 34 26
f 8 26 16
f 8 16 17
f 8 17 14
f 9 18 11
f 9 11 10
f 11 18 19
f 11 19 20
f 11 20 21
f 11 21 12
f 12 21 13
f 13 21 22
f 13 22 23
f 15 24 25
f 19 27 20
f 20 27 26
f 20 26 28
f 20 28 21
f 21 28 22
f 22 28 26
f 22 26 29
f 22 29 30
f 22 30 23
f 23 30 31
f 24 32 30
f 24 30 25
f 25 30 29
f 25 29 33
f 26 34 29
f 29 34 33
f 30 32 31

