# https://github.com/mikedh/trimesh
v -0.14884514 0.00009077 -0.01157165
v -0.14712498 0.00009077 -0.01176409
v -0.15165613 0.00009077 -0.01157165
v -0.14860857 -0.02037458 -0.01157165
v -0.14712498 0.00009077 -0.01492623
v -0.14712498 -0.01285176 -0.01177464
v -0.15164940 0.00009077 -0.01193480
v -0.15171045 -0.04402699 -0.01157165
v -0.14712498 -0.02149307 -0.01179078
v -0.14889542 -0.04203184 -0.01157165
v -0.14945205 -0.00080747 -0.01739622
v -0.14963655 0.00009077 -0.01753713
v -0.14712498 -0.01368091 -0.01497961
v -0.14960064 -0.02614841 -0.01771157
v -0.15159060 0.00009077 -0.01453515
v -0.15154885 -0.04282213 -0.01563389
v -0.15155109 -0.04402699 -0.01554761
v -0.15069594 -0.04402699 -0.01157165
v -0.15157848 0.00009077 -0.01486043
v -0.14712498 -0.04172523 -0.01185596
v -0.14896141 -0.04309419 -0.01157165
v -0.14991442 -0.00796754 -0.01774695
v -0.14968951 0.00009077 -0.01756321
v -0.14712498 -0.02843722 -0.01501562
v -0.14713979 -0.04402699 -0.01500941
v -0.14985202 -0.04402699 -0.01780033
v -0.14993642 -0.04402699 -0.01783137
v -0.15015817 -0.02767716 -0.01789531
v -0.15152192 -0.04402699 -0.01597096
v -0.15155468 -0.00472435 -0.01543525
v -0.15152416 -0.00216348 -0.01610939
v -0.14909518 -0.04387152 -0.01157165
v -0.14911179 -0.04402699 -0.01157662
v -0.15150890 0.00009077 -0.01595296
v -0.14712498 -0.04402699 -0.01189445
v -0.15000374 -0.00674541 -0.01776868
v -0.14994718 0.00009077 -0.01764080
v -0.14712498 -0.03748447 -0.01499513
v -0.14712498 -0.04402699 -0.01487533
v -0.15019004 -0.04402699 -0.01790524
v -0.15022685 -0.04402699 -0.01791269
v -0.15022146 -0.02247769 -0.01789035
v -0.15150082 -0.04402699 -0.01618202
v -0.15145637 -0.00262556 -0.01670284
v -0.15142719 0.00009077 -0.01645702
v -0.15032516 -0.00499642 -0.01779351
v -0.15024750 0.00009077 -0.01770474
v -0.15044950 -0.04402699 -0.01790648
v -0.15049888 -0.02262020 -0.01784379
v -0.15049708 -0.00583852 -0.01777550
v -0.15148375 -0.04402699 -0.01631859
v -0.15137871 -0.00092839 -0.01681209
v -0.15131003 -0.00290195 -0.01708336
v -0.15128579 -0.04159136 -0.01715785
v -0.15141912 -0.04161295 -0.01672146
v -0.15139757 0.00009077 -0.01658737
v -0.15039518 -0.00342448 -0.01775378
v -0.15057026 0.00009077 -0.01760355
v -0.15064477 -0.04402699 -0.01783758
v -0.15076911 -0.02179969 -0.01774074
v -0.15077674 -0.00694406 -0.01768736
v -0.15070402 -0.02963344 -0.01778358
v -0.15083151 -0.00561828 -0.01764080
v -0.15139263 -0.04402699 -0.01677174
v -0.15135268 0.00009077 -0.01671898
v -0.15122654 0.00009077 -0.01701880
v -0.15103172 -0.00364041 -0.01749989
v -0.15128265 -0.00496187 -0.01714481
v -0.15118748 -0.02922750 -0.01731366
v -0.15110668 -0.04402699 -0.01745023
v -0.15121667 -0.04402699 -0.01726773
v -0.15138006 -0.04402699 -0.01681209
v -0.15073096 0.00009077 -0.01749430
v -0.15091320 -0.00221099 -0.01751479
v -0.15073859 -0.04402699 -0.01779227
v -0.15099402 -0.00485823 -0.01754955
v -0.15089435 -0.04402699 -0.01770288
v -0.15102723 0.00009077 -0.01726090
v -0.15117043 -0.00652948 -0.01731676
v -0.15101017 -0.04402699 -0.01757314
v -0.15091905 0.00009077 -0.01735898
v -0.15093431 -0.04373765 -0.01766315
f 1 2 5
f 1 5 12
f 1 12 23
f 1 23 37
f 1 37 47
f 1 47 58
f 1 58 73
f 1 73 81
f 1 81 78
f 1 78 66
f 1 66 65
f 1 65 56
f 1 56 45
f 1 45 34
f 1 34 19
f 1 19 15
f 1 15 7
f 1 7 3
f 1 3 8
f 1 8 18
f 1 18 32
f 1 32 21
f 1 21 10
f 1 10 4
f 1 4 2
f 2 4 6
f 2 6 9
f 2 9 20
f 2 20 35
f 2 35 39
f 2 39 38
f 2 38 24
f 2 24 13
f 2 13 5
f 3 7 8
f 4 9 6
f 4 10 9
f 5 11 12
f 5 13 14
f 5 14 11
f 7 15 8
f 8 16 17
f 8 17 29
f 8 29 43
f 8 43 51
f 8 51 64
f 8 64 72
f 8 72 71
f 8 71 70
f 8 70 80
f 8 80 77
f 8 77 75
f 8 75 59
f 8 59 48
f 8 48 41
f 8 41 40
f 8 40 27
f 8 27 26
f 8 26 25
f 8 25 39
f 8 39 35
f 8 35 33
f 8 33 18
f 8 15 19
f 8 19 16
f 9 10 20
f 10 21 20
f 11 14 12
f 12 22 23
f 12 14 22
f 13 24 14
f 14 24 25
f 14 25 26
f 14 26 27
f 14 27 28
f 14 28 22
f 16 29 17
f 16 19 30
f 16 30 31
f 16 31 29
f 18 33 32
f 19 34 31
f 19 31 30
f 20 21 35
f 21 32 35
f 22 36 23
f 22 28 36
f 23 36 37
f 24 38 25
f 25 38 39
f 27 40 28
f 28 40 41
f 28 41 42
f 28 42 36
f 29 31 43
f 31 34 44
f 31 44 43
f 32 33 35
f 34 45 44
f 36 46 47
f 36 47 37
f 36 42 46
f 41 48 42
f 42 49 50
f 42 50 46
f 42 48 49
f 43 44 51
f 44 45 52
f 44 52 53
f 44 53 54
f 44 54 55
f 44 55 51
f 45 56 52
f 46 50 57
f 46 57 47
f 47 57 58
f 48 59 49
f 49 60 61
f 49 61 50
f 49 59 62
f 49 62 60
f 50 61 63
f 50 63 58
f 50 58 57
f 51 55 64
f 52 56 65
f 52 65 66
f 52 66 53
f 53 66 67
f 53 67 68
f 53 68 54
f 54 69 70
f 54 70 71
f 54 71 72
f 54 72 64
f 54 64 55
f 54 68 69
f 58 63 74
f 58 74 73
f 59 75 60
f 59 60 62
f 60 76 61
f 60 75 77
f 60 77 76
f 61 76 63
f 63 76 74
f 66 78 67
f 67 78 74
f 67 74 76
f 67 76 70
f 67 70 79
f 67 79 68
f 68 79 69
f 69 79 70
f 70 76 80
f 73 74 81
f 74 78 81
f 76 77 82
f 76 82 80
f 77 80 82

