# https://github.com/mikedh/trimesh
v 0.05955301 0.07685660 -0.01218766
v 0.04581472 0.04321744 -0.01223390
v 0.04858474 0.04321744 -0.01224736
v 0.05955301 0.04321744 -0.01234156
v 0.05955301 0.07685660 -0.01511210
v 0.00045104 0.07685660 -0.01220699
v -0.06734605 0.07682644 -0.01196130
v -0.05492445 0.04530523 -0.01204584
v -0.05430337 0.04262093 -0.01208000
v 0.00045104 0.04262093 -0.01244922
v 0.05955301 0.04321744 -0.01531638
v 0.05955301 0.05040238 -0.01527739
v 0.05848475 0.07685660 -0.01512004
v 0.00045104 0.07685660 -0.01522080
v -0.06734605 0.07682644 -0.01506552
v -0.06734605 0.04510751 -0.01216075
v -0.05784353 0.04371006 -0.01207034
v -0.05791805 0.04262093 -0.01208449
v 0.00045104 0.04262093 -0.01548650
v 0.05114359 0.04321744 -0.01537228
v 0.05171498 0.04532533 -0.01535606
v 0.05258449 0.07685660 -0.01513833
v 0.05093242 0.05905177 -0.01527394
v 0.00863688 0.06314021 -0.01540023
v 0.01170501 0.07685660 -0.01522080
v -0.00135009 0.07682644 -0.01522563
v -0.01244258 0.07682644 -0.01521769
v -0.01503869 0.07682644 -0.01521424
v -0.02907510 0.07682644 -0.01519078
v -0.04388165 0.07682644 -0.01515799
v -0.05840250 0.07682644 -0.01511210
v -0.06225319 0.07682644 -0.01509519
v -0.06734605 0.06907181 -0.01512245
v -0.06734605 0.04262093 -0.01218283
v 0.00002871 0.04262093 -0.01548615
v 0.00662458 0.05935338 -0.01542404
v 0.01849963 0.04321744 -0.01546924
v 0.02254907 0.04321744 -0.01546545
v 0.03151746 0.04321744 -0.01545165
v 0.03293352 0.04321744 -0.01544923
v 0.03338070 0.04321744 -0.01544820
v 0.04408812 0.07685660 -0.01516421
v 0.03309501 0.04363969 -0.01544647
v 0.01599046 0.07685660 -0.01521528
v 0.03031257 0.07685660 -0.01519630
v 0.04034922 0.07685660 -0.01517421
v 0.00251303 0.06367640 -0.01538712
v -0.02973345 0.07055638 -0.01524702
v -0.03300033 0.06199076 -0.01530154
v -0.05463875 0.05457795 -0.01527842
v -0.06624053 0.05885405 -0.01519906
v -0.03795655 0.05413224 -0.01534157
v -0.06734605 0.05856920 -0.01519216
v -0.06734605 0.04262093 -0.01526013
v -0.02774599 0.04262093 -0.01543198
v -0.02600697 0.04622345 -0.01541887
v -0.04314877 0.04406529 -0.01538815
v -0.06571882 0.04509746 -0.01527152
v -0.06734605 0.04570402 -0.01525772
v -0.06734605 0.04394465 -0.01525944
v -0.06717215 0.04262093 -0.01526151
v -0.04139733 0.04262093 -0.01539920
v -0.04378228 0.04262093 -0.01539195
v -0.06283701 0.04262093 -0.01529568
f 1 2 3
f 1 3 4
f 1 4 11
f 1 11 12
f 1 12 5
f 1 5 13
f 1 13 22
f 1 22 42
f 1 42 46
f 1 46 45
f 1 45 44
f 1 44 25
f 1 25 14
f 1 14 6
f 1 6 7
f 1 7 8
f 1 8 2
f 2 8 9
f 2 9 3
f 3 9 10
f 3 10 4
f 4 10 19
f 4 19 11
f 5 12 13
f 6 14 15
f 6 15 7
f 7 15 33
f 7 33 53
f 7 53 59
f 7 59 60
f 7 60 54
f 7 54 34
f 7 34 16
f 7 16 17
f 7 17 8
f 8 17 18
f 8 18 9
f 9 18 34
f 9 34 54
f 9 54 61
f 9 61 64
f 9 64 63
f 9 63 62
f 9 62 55
f 9 55 35
f 9 35 19
f 9 19 10
f 11 20 12
f 11 19 20
f 12 20 21
f 12 21 13
f 13 21 23
f 13 23 24
f 13 24 22
f 14 25 26
f 14 26 27
f 14 27 28
f 14 28 29
f 14 29 30
f 14 30 31
f 14 31 32
f 14 32 15
f 15 32 33
f 16 34 17
f 17 34 18
f 19 35 36
f 19 36 37
f 19 37 38
f 19 38 39
f 19 39 40
f 19 40 41
f 19 41 20
f 20 41 23
f 20 23 21
f 22 24 42
f 23 41 43
f 23 43 24
f 24 25 44
f 24 44 45
f 24 45 46
f 24 46 42
f 24 43 41
f 24 41 40
f 24 40 36
f 24 36 47
f 24 47 27
f 24 27 26
f 24 26 25
f 27 47 28
f 28 47 29
f 29 47 30
f 30 47 48
f 30 48 49
f 30 49 31
f 31 50 51
f 31 51 32
f 31 49 52
f 31 52 50
f 32 51 33
f 33 51 53
f 35 55 36
f 36 40 39
f 36 39 38
f 36 38 37
f 36 55 56
f 36 56 57
f 36 57 52
f 36 52 47
f 47 52 49
f 47 49 48
f 50 58 51
f 50 52 57
f 50 57 58
f 51 58 59
f 51 59 53
f 54 60 61
f 55 62 57
f 55 57 56
f 57 62 63
f 57 63 58
f 58 63 64
f 58 64 60
f 58 60 59
f 60 64 61

