# https://github.com/mikedh/trimesh
v 0.09995204 -0.07583472 -0.01073808
v 0.09975021 -0.07584117 -0.01073808
v 0.10048951 -0.07587986 -0.01073808
v 0.10542028 -0.06504070 -0.01122256
v 0.10238540 -0.06504070 -0.01122188
v 0.09962831 -0.07584977 -0.01073808
v 0.10069078 -0.07590996 -0.01073808
v 0.10542028 -0.06617996 -0.01121307
v 0.10542028 -0.06504070 -0.01468167
v 0.10096632 -0.07602066 -0.01073808
v 0.09962888 -0.06504070 -0.01127609
v 0.09962831 -0.07602066 -0.01073808
v 0.09962831 -0.07209986 -0.01115209
v 0.10542028 -0.06629819 -0.01121239
v 0.10542028 -0.06718166 -0.01689875
v 0.10539024 -0.06504070 -0.01468235
v 0.10107404 -0.07602066 -0.01075366
v 0.10542028 -0.06694199 -0.01122323
v 0.09962888 -0.06504070 -0.01465321
v 0.09962831 -0.07602066 -0.01462679
v 0.09962831 -0.07209986 -0.01462407
v 0.10542028 -0.06736545 -0.01707967
v 0.10485276 -0.06724400 -0.01697126
v 0.10281287 -0.06504070 -0.01470132
v 0.10125716 -0.07602066 -0.01082278
v 0.10542028 -0.06728376 -0.01126931
v 0.10060347 -0.06504070 -0.01467693
v 0.10491059 -0.06761265 -0.01724568
v 0.10428978 -0.06757611 -0.01713252
v 0.10439978 -0.06783943 -0.01728363
v 0.10376876 -0.06797377 -0.01714811
v 0.10333845 -0.06816079 -0.01701733
v 0.10347904 -0.06871430 -0.01719147
v 0.10271650 -0.06870570 -0.01678763
v 0.10295916 -0.07022007 -0.01702411
v 0.09962888 -0.06774914 -0.01470877
v 0.10258610 -0.07209986 -0.01678153
v 0.10302378 -0.07264263 -0.01706951
v 0.10235932 -0.07602066 -0.01644273
v 0.09962888 -0.06804149 -0.01470674
v 0.10246080 -0.07194294 -0.01669886
v 0.10542028 -0.06746755 -0.01715489
v 0.10146920 -0.07602066 -0.01091628
v 0.10542028 -0.06769648 -0.01134046
v 0.10542028 -0.06769218 -0.01727346
v 0.10494574 -0.06803289 -0.01740627
v 0.10427788 -0.06848860 -0.01741644
v 0.10377159 -0.06931617 -0.01734258
v 0.10340364 -0.07138083 -0.01728973
v 0.10300904 -0.07209986 -0.01705934
v 0.10347791 -0.07209986 -0.01731141
v 0.10354368 -0.07272968 -0.01733038
v 0.10279190 -0.07602066 -0.01670361
v 0.10256795 -0.07602066 -0.01657690
v 0.10179747 -0.07602066 -0.01110465
v 0.10542028 -0.06799849 -0.01144684
v 0.10183262 -0.07602066 -0.01112498
v 0.10197209 -0.07602066 -0.01122933
v 0.10529839 -0.07602066 -0.01375066
v 0.10542028 -0.06775452 -0.01729718
v 0.10542028 -0.06821452 -0.01740221
v 0.10542028 -0.06850149 -0.01746048
v 0.10518557 -0.06862187 -0.01750452
v 0.10468721 -0.06875084 -0.01750994
v 0.10434705 -0.07053820 -0.01756009
v 0.10384246 -0.07199023 -0.01746793
v 0.10379824 -0.07209986 -0.01744828
v 0.10430169 -0.07298333 -0.01754924
v 0.10336735 -0.07602066 -0.01696177
v 0.10316495 -0.07602066 -0.01688452
v 0.10542028 -0.06842841 -0.01164808
v 0.10529839 -0.07602066 -0.01726194
v 0.10542028 -0.07209986 -0.01390244
v 0.10542028 -0.06868206 -0.01179919
v 0.10542028 -0.06877449 -0.01749436
v 0.10542028 -0.06944193 -0.01755263
v 0.10542028 -0.07012764 -0.01759871
v 0.10505460 -0.07061773 -0.01764208
v 0.10464583 -0.07209986 -0.01765834
v 0.10462769 -0.07209986 -0.01765630
v 0.10442812 -0.07209986 -0.01760887
v 0.10389348 -0.07209986 -0.01747742
v 0.10510222 -0.07303277 -0.01761836
v 0.10463846 -0.07602066 -0.01724771
v 0.10429602 -0.07602066 -0.01718944
v 0.10395698 -0.07602066 -0.01712846
v 0.10463506 -0.07213855 -0.01765834
v 0.10509202 -0.07602066 -0.01726872
v 0.10529839 -0.07311983 -0.01758787
v 0.10542028 -0.07209986 -0.01765021
v 0.10542028 -0.07149691 -0.01765495
v 0.10542028 -0.07186878 -0.01766037
v 0.10474675 -0.07209986 -0.01765901
v 0.10529839 -0.07250828 -0.01763665
v 0.10489132 -0.07602066 -0.01726872
f 1 2 6
f 1 6 12
f 1 12 10
f 1 10 7
f 1 7 3
f 1 3 4
f 1 4 5
f 1 5 2
f 2 5 6
f 3 7 4
f 4 8 14
f 4 14 18
f 4 18 26
f 4 26 44
f 4 44 56
f 4 56 71
f 4 71 74
f 4 74 73
f 4 73 90
f 4 90 92
f 4 92 91
f 4 91 77
f 4 77 76
f 4 76 75
f 4 75 62
f 4 62 61
f 4 61 60
f 4 60 45
f 4 45 42
f 4 42 22
f 4 22 15
f 4 15 9
f 4 9 16
f 4 16 24
f 4 24 27
f 4 27 19
f 4 19 11
f 4 11 5
f 4 7 10
f 4 10 8
f 5 11 6
f 6 11 13
f 6 13 21
f 6 21 20
f 6 20 12
f 8 10 14
f 9 15 16
f 10 12 20
f 10 20 39
f 10 39 54
f 10 54 53
f 10 53 70
f 10 70 69
f 10 69 86
f 10 86 85
f 10 85 84
f 10 84 95
f 10 95 88
f 10 88 72
f 10 72 59
f 10 59 58
f 10 58 57
f 10 57 55
f 10 55 43
f 10 43 25
f 10 25 17
f 10 17 18
f 10 18 14
f 11 19 21
f 11 21 13
f 15 22 23
f 15 23 16
f 16 23 24
f 17 25 18
f 18 25 26
f 19 27 23
f 19 23 28
f 19 28 29
f 19 29 30
f 19 30 31
f 19 31 32
f 19 32 33
f 19 33 34
f 19 34 35
f 19 35 36
f 19 36 21
f 20 37 38
f 20 38 39
f 20 21 36
f 20 36 40
f 20 40 41
f 20 41 37
f 22 42 28
f 22 28 23
f 23 27 24
f 25 43 26
f 26 43 44
f 28 42 45
f 28 45 46
f 28 46 30
f 28 30 29
f 30 46 47
f 30 47 31
f 31 47 33
f 31 33 32
f 33 48 49
f 33 49 35
f 33 35 34
f 33 47 48
f 35 49 50
f 35 50 37
f 35 37 41
f 35 41 36
f 36 41 40
f 37 50 38
f 38 51 52
f 38 52 53
f 38 53 54
f 38 54 39
f 38 50 49
f 38 49 51
f 43 55 44
f 44 55 57
f 44 57 58
f 44 58 59
f 44 59 56
f 45 60 46
f 46 60 61
f 46 61 62
f 46 62 63
f 46 63 64
f 46 64 47
f 47 64 65
f 47 65 48
f 48 65 66
f 48 66 49
f 49 66 67
f 49 67 51
f 51 67 52
f 52 68 69
f 52 69 70
f 52 70 53
f 52 67 68
f 56 59 71
f 59 72 90
f 59 90 73
f 59 73 74
f 59 74 71
f 62 75 63
f 63 75 76
f 63 76 77
f 63 77 78
f 63 78 64
f 64 78 65
f 65 78 79
f 65 79 80
f 65 80 66
f 66 80 81
f 66 81 82
f 66 82 67
f 67 82 68
f 68 83 84
f 68 84 85
f 68 85 86
f 68 86 69
f 68 82 81
f 68 81 87
f 68 87 83
f 72 88 83
f 72 83 89
f 72 89 90
f 77 91 78
f 78 91 92
f 78 92 93
f 78 93 79
f 79 93 87
f 79 87 80
f 80 87 81
f 83 94 89
f 83 88 95
f 83 95 84
f 83 87 93
f 83 93 92
f 83 92 94
f 89 94 90
f 90 94 92

