# https://github.com/mikedh/trimesh
v 0.12529973 0.07685660 -0.01469862
v 0.12529973 0.07685286 -0.01190942
v 0.12531260 0.05567953 -0.01184137
v 0.12531260 0.05567953 -0.01468266
v 0.12529973 0.06659119 -0.01598738
v 0.11926868 0.07685660 -0.01474696
v 0.11804574 0.07685660 -0.01196668
v 0.12531260 0.04511528 -0.01177801
v 0.10714221 0.07685660 -0.01199531
v 0.05956320 0.07685660 -0.01218726
v 0.10307430 0.03906362 -0.01178270
v 0.12531260 0.05390512 -0.01468923
v 0.12528042 0.06658372 -0.01598785
v 0.05956320 0.07685660 -0.01511209
v 0.07806829 0.07685660 -0.01501682
v 0.08404141 0.07685660 -0.01498443
v 0.08886883 0.07685660 -0.01495299
v 0.12531260 0.04211186 -0.01469768
v 0.12531260 0.03869379 -0.01469768
v 0.12174676 0.06484294 -0.01605731
v 0.12531260 0.03869379 -0.01175548
v 0.05956320 0.03905988 -0.01235387
v 0.09977879 0.03869379 -0.01182541
v 0.10275892 0.03869379 -0.01178740
v 0.10303569 0.03869379 -0.01178646
v 0.09201630 0.04919454 -0.01637692
v 0.07661363 0.04086044 -0.01655010
v 0.07439945 0.03962396 -0.01653884
v 0.07281606 0.03869379 -0.01650974
v 0.07249423 0.03869379 -0.01649050
v 0.05956320 0.05040114 -0.01527729
v 0.05956320 0.03869379 -0.01235575
v 0.05956320 0.03869379 -0.01533220
v 0.05956320 0.03917195 -0.01533502
v 0.05956320 0.04034119 -0.01533220
f 1 2 3
f 1 3 4
f 1 4 5
f 1 5 6
f 1 6 17
f 1 17 16
f 1 16 15
f 1 15 14
f 1 14 10
f 1 10 9
f 1 9 7
f 1 7 2
f 2 8 3
f 2 7 9
f 2 9 10
f 2 10 11
f 2 11 8
f 3 8 21
f 3 21 19
f 3 19 18
f 3 18 12
f 3 12 4
f 4 12 5
f 5 13 14
f 5 14 15
f 5 15 16
f 5 16 17
f 5 17 6
f 5 12 18
f 5 18 19
f 5 19 20
f 5 20 13
f 8 11 21
f 10 14 31
f 10 31 35
f 10 35 34
f 10 34 33
f 10 33 32
f 10 32 22
f 10 22 23
f 10 23 24
f 10 24 11
f 11 24 25
f 11 25 21
f 13 20 14
f 14 26 27
f 14 27 28
f 14 28 29
f 14 29 30
f 14 30 31
f 14 20 26
f 19 21 25
f 19 25 24
f 19 24 23
f 19 23 32
f 19 32 33
f 19 33 30
f 19 30 29
f 19 29 28
f 19 28 27
f 19 27 20
f 20 27 26
f 22 32 23
f 30 33 34
f 30 34 35
f 30 35 31

