# https://github.com/mikedh/trimesh
v -0.14554497 0.08280851 0.00439067
v -0.14913861 0.07978494 0.00723862
v -0.14900116 0.07978494 0.00440221
v -0.14860810 0.08022035 0.00439067
v -0.14891615 0.08280851 0.00439067
v -0.14606524 0.08280851 0.01059626
v -0.14934840 0.07978494 0.01059626
v -0.14998502 0.07978494 0.00439067
v -0.14940387 0.08235772 0.00439067
v -0.14896318 0.08280851 0.00521018
v -0.14909762 0.08280851 0.01059626
v -0.15170317 0.07978494 0.01059626
v -0.15154884 0.07978494 0.00439067
v -0.14966551 0.08210554 0.00439067
v -0.14901865 0.08280851 0.00691482
v -0.14919106 0.08271173 0.01059626
v -0.14952203 0.08233227 0.00722768
v -0.15034373 0.08148750 0.01059626
v -0.15072052 0.08092007 0.00439067
v -0.15062224 0.08103492 0.00439067
v -0.14989881 0.08197767 0.01059626
f 1 2 3
f 1 3 4
f 1 4 8
f 1 8 13
f 1 13 19
f 1 19 20
f 1 20 14
f 1 14 9
f 1 9 5
f 1 5 10
f 1 10 15
f 1 15 11
f 1 11 6
f 1 6 7
f 1 7 2
f 2 7 12
f 2 12 13
f 2 13 8
f 2 8 3
f 3 8 4
f 5 9 10
f 6 11 16
f 6 16 21
f 6 21 18
f 6 18 12
f 6 12 7
f 9 14 10
f 10 14 15
f 11 15 17
f 11 17 16
f 12 18 19
f 12 19 13
f 14 20 17
f 14 17 15
f 16 17 21
f 17 20 18
f 17 18 21
f 18 20 19

