# https://github.com/mikedh/trimesh
v -0.13614047 -0.08698282 0.00905631
v -0.13614047 -0.08894076 0.00905631
v -0.13614047 -0.08693090 0.00808915
v -0.13992086 -0.08318716 0.00044815
v -0.13993215 -0.08318716 0.00059360
v -0.13994847 -0.08318716 0.00068427
v -0.14002378 -0.08318716 0.00105074
v -0.14009532 -0.08318716 0.00138698
v -0.14010410 -0.08318716 0.00141154
v -0.14026099 -0.08318716 0.00183656
v -0.14036893 -0.08318716 0.00203869
v -0.14045930 -0.08318716 0.00219170
v -0.14598679 -0.08319111 0.00905631
v -0.13622331 -0.08893568 0.00905631
v -0.13614047 -0.08894414 0.00863318
v -0.13614047 -0.08690324 0.00705020
v -0.13988572 -0.08318716 -0.00047746
v -0.14595416 -0.08318716 0.00860484
v -0.14712015 -0.08318716 0.00905631
v -0.13741064 -0.08880530 0.00905631
v -0.13635258 -0.08893681 0.00598858
v -0.13614047 -0.08895261 0.00663651
v -0.13614047 -0.08681857 0.00105074
v -0.13980413 -0.08318716 -0.00657892
v -0.14895261 -0.08318716 0.00905631
v -0.13803568 -0.08872064 0.00905631
v -0.13660109 -0.08889504 0.00444338
v -0.13668770 -0.08886344 0.00105074
v -0.13632497 -0.08893060 0.00444338
v -0.13615051 -0.08894810 0.00444338
v -0.13614047 -0.08895261 0.00602258
v -0.13614047 -0.08892157 0.00105074
v -0.13738679 -0.08664192 -0.01024169
v -0.13975769 -0.08318716 -0.01024169
v -0.14868401 -0.08341970 0.00905631
v -0.14896265 -0.08318716 0.00661384
v -0.14854595 -0.08357153 0.00641927
v -0.13927322 -0.08844690 0.00905631
v -0.13875737 -0.08854906 0.00630593
v -0.13762903 -0.08866985 -0.00922730
v -0.13738679 -0.08870878 -0.00924241
v -0.13738679 -0.08871894 -0.00756876
v -0.13691989 -0.08884086 0.00246371
v -0.13628983 -0.08892326 0.00262239
v -0.13614047 -0.08893455 0.00211613
v -0.13614047 -0.08894753 0.00438293
v -0.13738679 -0.08867435 -0.01024169
v -0.14857482 -0.08318716 -0.01024169
v -0.14849073 -0.08358676 0.00905631
v -0.14895010 -0.08318716 0.00605847
v -0.14785816 -0.08415061 0.00656473
v -0.14836396 -0.08338414 -0.01024169
v -0.14753811 -0.08408344 -0.01024169
v -0.13933723 -0.08843166 0.00905631
v -0.13888289 -0.08840006 -0.00916685
v -0.13857538 -0.08843900 -0.01024169
v -0.13779596 -0.08860719 -0.01024169
v -0.14768369 -0.08422568 0.00905631
v -0.14692185 -0.08486741 0.00640227
v -0.14695322 -0.08454626 -0.01024169
v -0.14053334 -0.08809470 0.00905631
v -0.14039528 -0.08813647 0.00657417
v -0.13962214 -0.08820421 -0.00914796
v -0.13896697 -0.08834926 -0.01024169
v -0.14763977 -0.08425897 0.00905631
v -0.14595667 -0.08553567 0.00637771
v -0.14607841 -0.08539739 0.00905631
v -0.14656414 -0.08482790 -0.01024169
v -0.14613113 -0.08518631 -0.00700773
v -0.14057225 -0.08808173 0.00905631
v -0.14151484 -0.08776227 0.00600180
v -0.14049820 -0.08792538 -0.00946909
v -0.14041286 -0.08793329 -0.01024169
v -0.13981919 -0.08811615 -0.01024169
v -0.13947906 -0.08821267 -0.01024169
v -0.14480699 -0.08625530 0.00671962
v -0.14477059 -0.08627562 0.00905631
v -0.14602068 -0.08543634 0.00905631
v -0.14589140 -0.08529298 -0.01024169
v -0.14509692 -0.08579248 -0.01024169
v -0.14170311 -0.08770075 0.00905631
v -0.14181857 -0.08765955 0.00905631
v -0.14236329 -0.08743717 0.00590735
v -0.14154245 -0.08754948 -0.00898173
v -0.14167800 -0.08746596 -0.01024169
v -0.14343892 -0.08696871 0.00638905
v -0.14385060 -0.08679092 0.00905631
v -0.14427608 -0.08655895 0.00872385
v -0.14469654 -0.08632189 0.00905631
v -0.14401125 -0.08640035 -0.01024169
v -0.14353055 -0.08695008 0.00905631
v -0.14254528 -0.08713465 -0.00808823
v -0.14298206 -0.08689647 -0.01024169
v -0.14390456 -0.08646977 -0.00935386
v -0.14372634 -0.08654202 -0.01024169
f 1 2 15
f 1 15 22
f 1 22 31
f 1 31 46
f 1 46 45
f 1 45 32
f 1 32 23
f 1 23 16
f 1 16 3
f 1 3 4
f 1 4 5
f 1 5 6
f 1 6 7
f 1 7 8
f 1 8 9
f 1 9 10
f 1 10 11
f 1 11 12
f 1 12 13
f 1 13 19
f 1 19 25
f 1 25 35
f 1 35 49
f 1 49 58
f 1 58 65
f 1 65 67
f 1 67 78
f 1 78 77
f 1 77 89
f 1 89 87
f 1 87 91
f 1 91 82
f 1 82 81
f 1 81 70
f 1 70 61
f 1 61 54
f 1 54 38
f 1 38 26
f 1 26 20
f 1 20 14
f 1 14 2
f 2 14 15
f 3 16 17
f 3 17 4
f 4 17 24
f 4 24 34
f 4 34 48
f 4 48 50
f 4 50 36
f 4 36 25
f 4 25 19
f 4 19 18
f 4 18 12
f 4 12 11
f 4 11 10
f 4 10 9
f 4 9 8
f 4 8 7
f 4 7 6
f 4 6 5
f 12 18 13
f 13 18 19
f 14 20 21
f 14 21 22
f 14 22 15
f 16 23 17
f 17 23 24
f 20 26 21
f 21 27 28
f 21 28 29
f 21 29 30
f 21 30 31
f 21 31 22
f 21 26 27
f 23 32 47
f 23 47 33
f 23 33 34
f 23 34 24
f 25 36 37
f 25 37 35
f 26 38 39
f 26 39 40
f 26 40 41
f 26 41 42
f 26 42 43
f 26 43 27
f 27 43 28
f 28 43 42
f 28 42 41
f 28 41 44
f 28 44 29
f 29 44 30
f 30 44 45
f 30 45 46
f 30 46 31
f 32 45 41
f 32 41 47
f 33 47 57
f 33 57 56
f 33 56 64
f 33 64 75
f 33 75 74
f 33 74 73
f 33 73 85
f 33 85 93
f 33 93 95
f 33 95 90
f 33 90 80
f 33 80 79
f 33 79 68
f 33 68 60
f 33 60 53
f 33 53 52
f 33 52 48
f 33 48 34
f 35 37 49
f 36 50 37
f 37 51 49
f 37 50 52
f 37 52 53
f 37 53 51
f 38 54 39
f 39 54 55
f 39 55 40
f 40 55 56
f 40 56 57
f 40 57 47
f 40 47 41
f 41 45 44
f 48 52 50
f 49 51 58
f 51 59 58
f 51 53 60
f 51 60 59
f 54 61 62
f 54 62 55
f 55 63 64
f 55 64 56
f 55 62 63
f 58 59 65
f 59 66 67
f 59 67 65
f 59 60 68
f 59 68 69
f 59 69 66
f 61 70 71
f 61 71 62
f 62 71 72
f 62 72 63
f 63 72 73
f 63 73 74
f 63 74 75
f 63 75 64
f 66 76 77
f 66 77 78
f 66 78 67
f 66 69 79
f 66 79 80
f 66 80 76
f 68 79 69
f 70 81 71
f 71 81 82
f 71 82 83
f 71 83 84
f 71 84 72
f 72 84 85
f 72 85 73
f 76 86 87
f 76 87 88
f 76 88 89
f 76 89 77
f 76 80 90
f 76 90 86
f 82 91 83
f 83 91 86
f 83 86 92
f 83 92 84
f 84 92 85
f 85 92 93
f 86 91 87
f 86 90 94
f 86 94 95
f 86 95 93
f 86 93 92
f 87 89 88
f 90 95 94

