# https://github.com/mikedh/trimesh
v 0.00045186 0.08674562 -0.00959973
v 0.00045186 0.08671516 -0.00886375
v 0.00045186 0.08878852 -0.00959973
v 0.01537245 0.08666551 -0.00959973
v 0.00045186 0.08665112 -0.00709896
v 0.00045186 0.08879333 -0.00885797
v 0.03190510 0.08897751 0.00529889
v 0.00054883 0.08878876 -0.00959973
v 0.02119039 0.08664872 -0.00595454
v 0.00045186 0.08663841 -0.00549601
v 0.09385404 0.08676169 -0.00959973
v 0.09553882 0.08672691 -0.00486793
v 0.00045186 0.08876886 0.00124334
v 0.03097180 0.08897175 0.00567266
v 0.02075405 0.08883722 -0.00839944
v 0.11489560 0.08905163 0.01007886
v 0.12427703 0.08906218 0.01007886
v 0.12427703 0.08905714 0.00603101
v 0.12427703 0.08894634 -0.00798714
v 0.02116615 0.08882498 -0.00959973
v 0.00263359 0.08661203 0.00791140
v 0.00045186 0.08667678 0.00758580
v 0.12363462 0.08687417 -0.00959973
v 0.11693188 0.08681397 -0.00847072
v 0.11125938 0.08678807 -0.00369268
v 0.09631455 0.08673027 -0.00403177
v 0.08849669 0.08671948 0.00738351
v 0.00045186 0.08874872 0.00691148
v 0.05197700 0.08891395 0.01007886
v 0.00045186 0.08869547 0.01007886
v 0.01453612 0.08877965 0.01007886
v 0.01852384 0.08879907 0.01007886
v 0.12427703 0.08717780 0.01007886
v 0.12427703 0.08892187 -0.00892155
v 0.11108969 0.08889717 -0.00959973
v 0.00360324 0.08663433 0.00859536
v 0.00251238 0.08664009 0.00865701
v 0.08871486 0.08673483 0.00825049
v 0.00045186 0.08671180 0.00838921
v 0.12427703 0.08689263 -0.00959973
v 0.12427703 0.08687201 -0.00818558
v 0.12427703 0.08685619 -0.00661345
v 0.12364675 0.08684946 -0.00648629
v 0.11791365 0.08681853 -0.00722997
v 0.11540466 0.08683771 0.00001608
v 0.12054384 0.08690343 0.00285400
v 0.00045186 0.08686913 0.01007886
v 0.12293162 0.08714494 0.01007886
v 0.12101655 0.08705597 0.00915408
v 0.12427703 0.08716221 0.00973399
v 0.12427703 0.08890292 -0.00959973
v 0.03114150 0.08677560 0.01007886
v 0.00528802 0.08675306 0.01007886
v 0.08922393 0.08676337 0.00873022
v 0.00433049 0.08677080 0.01007886
v 0.12091958 0.08700177 0.00792682
v 0.12427703 0.08688208 -0.00322451
v 0.12427703 0.08691542 0.00083104
v 0.12427703 0.08694228 0.00241473
v 0.12213166 0.08712984 0.01007886
v 0.11994993 0.08710825 0.01007886
v 0.12427703 0.08702743 0.00646065
v 0.06835207 0.08683699 0.01007886
v 0.10856859 0.08701951 0.01007886
v 0.09179353 0.08691302 0.01007886
v 0.08023036 0.08686337 0.01007886
v 0.06877630 0.08683771 0.01007886
v 0.12427703 0.08700848 0.00566303
f 1 2 5
f 1 5 10
f 1 10 22
f 1 22 39
f 1 39 47
f 1 47 30
f 1 30 28
f 1 28 13
f 1 13 6
f 1 6 3
f 1 3 8
f 1 8 20
f 1 20 35
f 1 35 51
f 1 51 40
f 1 40 23
f 1 23 11
f 1 11 4
f 1 4 2
f 2 4 5
f 3 6 7
f 3 7 8
f 4 9 10
f 4 10 5
f 4 11 12
f 4 12 9
f 6 13 14
f 6 14 7
f 7 15 8
f 7 14 16
f 7 16 17
f 7 17 18
f 7 18 19
f 7 19 15
f 8 15 20
f 9 21 10
f 9 12 21
f 10 21 22
f 11 23 24
f 11 24 12
f 12 24 25
f 12 25 26
f 12 26 27
f 12 27 21
f 13 28 14
f 14 29 16
f 14 28 30
f 14 30 31
f 14 31 32
f 14 32 29
f 15 19 20
f 16 29 32
f 16 32 31
f 16 31 30
f 16 30 47
f 16 47 55
f 16 55 53
f 16 53 52
f 16 52 63
f 16 63 67
f 16 67 66
f 16 66 65
f 16 65 64
f 16 64 61
f 16 61 60
f 16 60 48
f 16 48 33
f 16 33 17
f 17 33 50
f 17 50 62
f 17 62 68
f 17 68 59
f 17 59 58
f 17 58 57
f 17 57 42
f 17 42 41
f 17 41 40
f 17 40 51
f 17 51 34
f 17 34 19
f 17 19 18
f 19 34 35
f 19 35 20
f 21 36 37
f 21 37 22
f 21 27 38
f 21 38 36
f 22 37 39
f 23 40 41
f 23 41 42
f 23 42 43
f 23 43 24
f 24 43 44
f 24 44 25
f 25 44 43
f 25 43 45
f 25 45 27
f 25 27 26
f 27 45 46
f 27 46 38
f 33 48 49
f 33 49 50
f 34 51 35
f 36 52 53
f 36 53 37
f 36 38 54
f 36 54 52
f 37 47 39
f 37 53 55
f 37 55 47
f 38 46 56
f 38 56 49
f 38 49 54
f 42 57 43
f 43 57 58
f 43 58 45
f 45 58 46
f 46 58 59
f 46 59 56
f 48 60 49
f 49 56 50
f 49 60 61
f 49 61 54
f 50 56 62
f 52 54 63
f 54 61 64
f 54 64 65
f 54 65 66
f 54 66 67
f 54 67 63
f 56 59 68
f 56 68 62

