# https://github.com/mikedh/trimesh
v 0.12427703 0.08890267 -0.00960181
v 0.12427703 0.08689312 -0.00960181
v 0.12427703 0.08885787 -0.01121097
v 0.11213035 0.08887462 -0.01121097
v 0.11095039 0.08888809 -0.01056534
v -0.09452521 0.08885422 -0.01135035
v -0.09438639 0.08884002 -0.00992463
v 0.11108921 0.08889684 -0.00960181
v 0.12362922 0.08687454 -0.00960181
v 0.12427703 0.08655728 -0.01121097
v 0.00047342 0.08877591 -0.01153360
v -0.09443266 0.08884985 -0.01153360
v -0.09454836 0.08884912 -0.01153360
v -0.11208585 0.08857302 -0.00992463
v 0.00047342 0.08878830 -0.00960181
v 0.02115748 0.08882472 -0.00960181
v 0.09385248 0.08676199 -0.00960181
v -0.11208585 0.08518187 -0.01153360
v -0.10907810 0.08519353 -0.01153360
v 0.09285762 0.08628956 -0.01121097
v -0.01701781 0.08606591 -0.01153360
v -0.00209474 0.08633254 -0.01153360
v 0.00047342 0.08638899 -0.01153360
v -0.11097530 0.08853478 -0.01153360
v -0.11208585 0.08851037 -0.01153360
v -0.11208585 0.08675652 -0.00992463
v 0.00047342 0.08674595 -0.00960181
v 0.01535021 0.08666583 -0.00960181
v -0.08251735 0.08649864 -0.00992463
v -0.10572330 0.08658204 -0.00992463
f 1 2 10
f 1 10 3
f 1 3 4
f 1 4 5
f 1 5 6
f 1 6 7
f 1 7 8
f 1 8 16
f 1 16 15
f 1 15 27
f 1 27 28
f 1 28 17
f 1 17 9
f 1 9 2
f 2 9 10
f 3 10 23
f 3 23 11
f 3 11 4
f 4 11 12
f 4 12 6
f 4 6 5
f 6 12 13
f 6 13 14
f 6 14 7
f 7 14 15
f 7 15 16
f 7 16 8
f 9 17 18
f 9 18 19
f 9 19 20
f 9 20 10
f 10 20 19
f 10 19 21
f 10 21 22
f 10 22 23
f 11 23 22
f 11 22 21
f 11 21 19
f 11 19 18
f 11 18 25
f 11 25 24
f 11 24 13
f 11 13 12
f 13 24 14
f 14 24 25
f 14 25 18
f 14 18 26
f 14 26 27
f 14 27 15
f 17 28 18
f 18 29 30
f 18 30 26
f 18 28 29
f 26 30 27
f 27 30 28
f 28 30 29

