# https://github.com/mikedh/trimesh
v 0.00002560 -0.06460020 -0.01234999
v 0.00002560 -0.07357501 -0.01203117
v 0.00002560 -0.06460020 -0.01558756
v -0.00263475 -0.06460020 -0.01229877
v 0.00002560 -0.08156556 -0.01176242
v 0.00002560 -0.06936870 -0.01549161
v -0.01533714 -0.06573729 -0.01558451
v -0.01963969 -0.06460020 -0.01560897
v 0.00002560 -0.08318659 -0.01171005
v -0.08385775 -0.06460020 -0.01219784
v 0.00002560 -0.06945421 -0.01548970
v -0.02415573 -0.07226873 -0.01545300
v -0.03671853 -0.06670518 -0.01557533
v -0.03306464 -0.06460020 -0.01561509
v -0.00000724 -0.08318659 -0.01171005
v 0.00002560 -0.08318659 -0.01500152
v -0.08385775 -0.06460020 -0.01538916
v -0.08385775 -0.08318659 -0.01191113
v -0.01146155 -0.08318659 -0.01173719
v 0.00002560 -0.06957974 -0.01548588
v -0.00656781 -0.07959885 -0.01520451
v -0.00002366 -0.06947240 -0.01548932
v -0.02953392 -0.08081053 -0.01521445
v -0.03868095 -0.07493588 -0.01538763
v -0.01196242 -0.07430821 -0.01537998
v -0.05779610 -0.08023744 -0.01523816
v -0.06430741 -0.08075959 -0.01521560
v -0.05175283 -0.06862095 -0.01550308
v -0.03967448 -0.06460020 -0.01560133
v 0.00002560 -0.08267172 -0.01503746
v -0.00371860 -0.08318659 -0.01504243
v -0.08385775 -0.06802057 -0.01535781
v -0.07973584 -0.06460020 -0.01542509
v -0.08385775 -0.08318659 -0.01432296
v 0.00002560 -0.08111073 -0.01513456
v -0.00234737 -0.08111618 -0.01514258
v -0.02024730 -0.08046122 -0.01521140
v -0.01963148 -0.08318659 -0.01509403
v -0.03599596 -0.08318659 -0.01511277
v -0.03930498 -0.08318659 -0.01511430
v -0.06688566 -0.08318659 -0.01512691
v -0.04762270 -0.08085056 -0.01521942
v -0.07883263 -0.08318659 -0.01511850
v -0.08366069 -0.08318659 -0.01510818
v -0.08385775 -0.08234060 -0.01512959
v -0.08385775 -0.08114165 -0.01516055
v -0.06370801 -0.07137179 -0.01541439
v -0.06107229 -0.06460020 -0.01553213
v -0.05593221 -0.06460020 -0.01555125
v -0.05034875 -0.06460020 -0.01557189
v -0.01028738 -0.08318659 -0.01507148
v -0.08385775 -0.07262532 -0.01529856
v -0.08385775 -0.08317931 -0.01510780
v -0.08385775 -0.08307925 -0.01511047
v -0.08385775 -0.07696626 -0.01523280
f 1 2 5
f 1 5 9
f 1 9 16
f 1 16 30
f 1 30 35
f 1 35 20
f 1 20 11
f 1 11 6
f 1 6 3
f 1 3 8
f 1 8 14
f 1 14 29
f 1 29 50
f 1 50 49
f 1 49 48
f 1 48 33
f 1 33 17
f 1 17 10
f 1 10 4
f 1 4 2
f 2 4 5
f 3 6 7
f 3 7 8
f 4 9 5
f 4 10 9
f 6 11 12
f 6 12 7
f 7 12 13
f 7 13 8
f 8 13 14
f 9 10 15
f 9 15 19
f 9 19 18
f 9 18 34
f 9 34 44
f 9 44 43
f 9 43 41
f 9 41 40
f 9 40 39
f 9 39 38
f 9 38 51
f 9 51 31
f 9 31 16
f 10 17 32
f 10 32 52
f 10 52 55
f 10 55 46
f 10 46 45
f 10 45 54
f 10 54 53
f 10 53 34
f 10 34 18
f 10 18 19
f 10 19 15
f 11 20 21
f 11 21 22
f 11 22 12
f 12 23 24
f 12 24 13
f 12 22 25
f 12 25 23
f 13 24 26
f 13 26 27
f 13 27 28
f 13 28 29
f 13 29 14
f 16 31 30
f 17 33 32
f 20 35 21
f 21 35 36
f 21 36 37
f 21 37 25
f 21 25 22
f 23 25 37
f 23 37 38
f 23 38 39
f 23 39 40
f 23 40 41
f 23 41 42
f 23 42 24
f 24 42 26
f 26 42 41
f 26 41 27
f 27 41 43
f 27 43 44
f 27 44 45
f 27 45 46
f 27 46 28
f 28 46 47
f 28 47 48
f 28 48 49
f 28 49 50
f 28 50 29
f 30 31 35
f 31 51 35
f 32 33 48
f 32 48 52
f 34 53 44
f 35 51 36
f 36 51 38
f 36 38 37
f 44 53 54
f 44 54 45
f 46 55 47
f 47 55 48
f 48 55 52

