# https://github.com/mikedh/trimesh
v 0.13663299 0.08559998 -0.01175084
v 0.13944888 0.08559913 -0.01121137
v 0.14555994 0.08559913 -0.01121137
v 0.14566480 0.08559913 -0.01511671
v 0.13663299 0.08559998 -0.01486284
v 0.01268899 0.08559998 -0.01188529
v 0.13929910 0.08539800 -0.01121137
v 0.14596436 0.08534065 -0.01121137
v 0.14642868 0.08511984 -0.01511671
v 0.01722737 0.08559998 -0.01547663
v 0.11126004 0.08559998 -0.01500438
v 0.00100605 0.08559998 -0.01195795
v 0.14296874 0.07685831 -0.01121137
v 0.14254935 0.07736840 -0.01121137
v 0.14230970 0.07769619 -0.01121137
v 0.14180044 0.07845619 -0.01121137
v 0.14132114 0.07926497 -0.01121137
v 0.14112643 0.07964497 -0.01121137
v 0.14081188 0.08031338 -0.01121137
v 0.14055725 0.08089108 -0.01121137
v 0.14021276 0.08174351 -0.01121137
v 0.13995814 0.08254802 -0.01121137
v 0.14663838 0.08486309 -0.01121137
v 0.14677318 0.08488020 -0.01511671
v 0.01173039 0.07685660 -0.01522068
v 0.00106597 0.07685660 -0.01522068
v 0.00045186 0.07685660 -0.01522026
v 0.01634365 0.08559998 -0.01546494
v 0.14744720 0.08436841 -0.01511671
v 0.14768685 0.08418440 -0.01511671
v 0.14834589 0.08359215 -0.01511671
v 0.14870536 0.08324896 -0.01511671
v 0.14952915 0.08238882 -0.01511671
v 0.15065252 0.08121460 -0.01511671
v 0.15140142 0.08028514 -0.01511671
v 0.15152124 0.08012338 -0.01511671
v 0.15200054 0.07942843 -0.01511671
v 0.15219526 0.07912718 -0.01511671
v 0.15240495 0.07879254 -0.01511671
v 0.15295915 0.07783398 -0.01511671
v 0.15346840 0.07685831 -0.01511671
v 0.00045186 0.08559998 -0.01196379
v 0.00045186 0.07685660 -0.01220722
v 0.14536524 0.07685831 -0.01121137
v 0.12963821 0.07685660 -0.01186609
v 0.14695292 0.08462773 -0.01121137
v 0.01599916 0.07685660 -0.01521525
v 0.00045186 0.08559998 -0.01524782
v 0.14815116 0.08363409 -0.01121137
v 0.14854059 0.08327806 -0.01121137
v 0.14928950 0.08255571 -0.01121137
v 0.14945426 0.08238882 -0.01121137
v 0.14988863 0.08193608 -0.01121179
v 0.15036793 0.08141401 -0.01121179
v 0.15066750 0.08104514 -0.01121179
v 0.15120670 0.08037843 -0.01121179
v 0.15147631 0.08000785 -0.01121179
v 0.15243491 0.07860082 -0.01121179
v 0.15265958 0.07823794 -0.01121179
v 0.15289922 0.07782029 -0.01121179
v 0.15331862 0.07704403 -0.01121179
v 0.15340849 0.07685831 -0.01121179
v 0.13663299 0.07685660 -0.01190868
v 0.13663299 0.07685660 -0.01462525
v 0.11925836 0.07685660 -0.01474717
v 0.08885276 0.07685660 -0.01495344
v 0.08401483 0.07685660 -0.01498476
v 0.07805353 0.07685660 -0.01501733
v 0.05852206 0.07685660 -0.01512005
v 0.05260570 0.07685660 -0.01513842
v 0.04411310 0.07685660 -0.01516431
v 0.04036857 0.07685660 -0.01517391
v 0.03033322 0.07685660 -0.01519646
f 1 2 3
f 1 3 4
f 1 4 5
f 1 5 11
f 1 11 10
f 1 10 28
f 1 28 48
f 1 48 42
f 1 42 12
f 1 12 6
f 1 6 2
f 2 6 7
f 2 7 22
f 2 22 21
f 2 21 20
f 2 20 19
f 2 19 18
f 2 18 17
f 2 17 16
f 2 16 15
f 2 15 14
f 2 14 13
f 2 13 44
f 2 44 52
f 2 52 51
f 2 51 50
f 2 50 49
f 2 49 46
f 2 46 23
f 2 23 8
f 2 8 3
f 3 8 9
f 3 9 4
f 4 9 10
f 4 10 11
f 4 11 5
f 6 12 13
f 6 13 14
f 6 14 15
f 6 15 16
f 6 16 17
f 6 17 18
f 6 18 19
f 6 19 20
f 6 20 21
f 6 21 22
f 6 22 7
f 8 23 24
f 8 24 9
f 9 24 10
f 10 25 26
f 10 26 27
f 10 27 28
f 10 24 29
f 10 29 30
f 10 30 31
f 10 31 32
f 10 32 33
f 10 33 34
f 10 34 35
f 10 35 36
f 10 36 37
f 10 37 38
f 10 38 39
f 10 39 40
f 10 40 41
f 10 41 25
f 12 42 43
f 12 43 13
f 13 43 45
f 13 45 44
f 23 46 24
f 24 46 29
f 25 41 47
f 25 47 73
f 25 73 72
f 25 72 71
f 25 71 70
f 25 70 69
f 25 69 68
f 25 68 67
f 25 67 66
f 25 66 65
f 25 65 64
f 25 64 63
f 25 63 45
f 25 45 43
f 25 43 27
f 25 27 26
f 27 43 42
f 27 42 48
f 27 48 28
f 29 46 30
f 30 49 31
f 30 46 49
f 31 49 50
f 31 50 32
f 32 50 51
f 32 51 52
f 32 52 53
f 32 53 33
f 33 53 34
f 34 53 54
f 34 54 55
f 34 55 56
f 34 56 35
f 35 56 36
f 36 56 57
f 36 57 37
f 37 57 58
f 37 58 38
f 38 58 39
f 39 58 59
f 39 59 40
f 40 60 61
f 40 61 41
f 40 59 60
f 41 61 62
f 41 62 63
f 41 63 64
f 41 64 65
f 41 65 66
f 41 66 67
f 41 67 68
f 41 68 69
f 41 69 70
f 41 70 71
f 41 71 72
f 41 72 73
f 41 73 47
f 44 62 52
f 44 45 62
f 45 63 62
f 52 62 61
f 52 61 60
f 52 60 59
f 52 59 58
f 52 58 57
f 52 57 56
f 52 56 55
f 52 55 54
f 52 54 53

