# https://github.com/mikedh/trimesh
v -0.08386318 -0.06715312 -0.01216597
v -0.08386318 -0.08318659 -0.01191155
v -0.08386318 -0.06715312 -0.01536529
v -0.08536098 -0.06715312 -0.01215482
v -0.15315596 -0.06725670 -0.01147347
v -0.08386318 -0.08318659 -0.01432243
v -0.14492156 -0.07423603 -0.01147347
v -0.14413398 -0.07494542 -0.01147347
v -0.14406366 -0.07501919 -0.01147347
v -0.14315654 -0.07601108 -0.01147347
v -0.14231974 -0.07711754 -0.01147347
v -0.14159544 -0.07818319 -0.01147347
v -0.14108915 -0.07896164 -0.01147347
v -0.14066020 -0.07976049 -0.01147347
v -0.14023828 -0.08059387 -0.01147347
v -0.13994294 -0.08133465 -0.01147347
v -0.13959837 -0.08242698 -0.01147347
v -0.13938038 -0.08318659 -0.01147347
v -0.08386318 -0.06802259 -0.01535754
v -0.12500006 -0.06715312 -0.01634903
v -0.10846092 -0.06715312 -0.01202495
v -0.15569449 -0.06725670 -0.01147347
v -0.13213748 -0.06715312 -0.01194402
v -0.13932413 -0.06715312 -0.01192173
v -0.08667596 -0.08318659 -0.01510070
v -0.08386318 -0.08317718 -0.01510797
v -0.14855707 -0.08318659 -0.01147347
v -0.08386318 -0.07262578 -0.01529793
v -0.12549229 -0.06715312 -0.01633643
v -0.12938096 -0.06905999 -0.01642365
v -0.12777065 -0.06816227 -0.01639797
v -0.15560308 -0.06725670 -0.01581064
v -0.15570153 -0.06760983 -0.01147347
v -0.13932413 -0.06715312 -0.01500087
v -0.14202440 -0.08318659 -0.01581064
v -0.13600505 -0.07286748 -0.01639215
v -0.13109675 -0.07003619 -0.01641881
v -0.08386318 -0.08114004 -0.01516030
v -0.14855004 -0.08318659 -0.01356937
v -0.14898603 -0.08278011 -0.01147347
v -0.14869068 -0.08305319 -0.01493012
v -0.08386318 -0.07696530 -0.01523251
v -0.12552745 -0.06715312 -0.01633546
v -0.15560308 -0.06768359 -0.01581064
v -0.12615330 -0.06715312 -0.01629960
v -0.13696140 -0.07312643 -0.01636696
v -0.15566637 -0.06794883 -0.01289965
v -0.15564527 -0.06881516 -0.01147347
v -0.14849379 -0.08318659 -0.01581064
v -0.14854301 -0.08318659 -0.01494660
v -0.14973844 -0.08200951 -0.01147347
v -0.14977360 -0.08197498 -0.01527031
v -0.14887351 -0.08283189 -0.01581064
v -0.14870474 -0.08299669 -0.01581064
v -0.15551870 -0.06936133 -0.01581064
v -0.14959077 -0.08211937 -0.01581064
v -0.14998456 -0.08168306 -0.01581064
v -0.15080730 -0.08071942 -0.01581064
v -0.15094090 -0.08056091 -0.01581064
v -0.15140501 -0.07990645 -0.01581064
v -0.15211524 -0.07890043 -0.01581064
v -0.15231916 -0.07858340 -0.01581064
v -0.15288875 -0.07761349 -0.01581064
v -0.15319112 -0.07707830 -0.01581064
v -0.15343021 -0.07658863 -0.01581064
v -0.15406309 -0.07520125 -0.01581064
v -0.15468893 -0.07338225 -0.01581064
v -0.15491396 -0.07266502 -0.01581064
v -0.15499834 -0.07234485 -0.01581064
v -0.15513897 -0.07176102 -0.01581064
v -0.15516007 -0.07165115 -0.01581064
v -0.15529367 -0.07095432 -0.01581064
v -0.15561011 -0.06925775 -0.01147347
v -0.14988611 -0.08185413 -0.01147347
v -0.15033615 -0.08134720 -0.01147347
v -0.15063149 -0.08099721 -0.01485985
v -0.15096200 -0.08054835 -0.01571420
v -0.15546948 -0.07022296 -0.01291128
v -0.15178473 -0.07947485 -0.01530908
v -0.15256528 -0.07825696 -0.01526449
v -0.15331066 -0.07690095 -0.01550921
v -0.15338802 -0.07670948 -0.01569288
v -0.15376072 -0.07592162 -0.01147347
v -0.15397167 -0.07541783 -0.01147347
v -0.15431624 -0.07455463 -0.01147347
v -0.15470299 -0.07340579 -0.01553926
v -0.15494911 -0.07256300 -0.01572438
v -0.15519523 -0.07170609 -0.01147347
v -0.15543432 -0.07056510 -0.01147347
v -0.15094090 -0.08061584 -0.01147347
v -0.15127141 -0.08018111 -0.01507598
v -0.15173551 -0.07954077 -0.01147347
v -0.15195350 -0.07923315 -0.01147347
v -0.15270592 -0.07800428 -0.01147347
v -0.15295204 -0.07756954 -0.01147347
v -0.15212227 -0.07896792 -0.01147347
v -0.15324034 -0.07701553 -0.01147347
v -0.15348647 -0.07650859 -0.01147347
v -0.15459751 -0.07374323 -0.01147347
v -0.15497020 -0.07255986 -0.01147347
v -0.15110967 -0.08039611 -0.01147347
f 1 2 6
f 1 6 26
f 1 26 38
f 1 38 42
f 1 42 28
f 1 28 19
f 1 19 3
f 1 3 20
f 1 20 29
f 1 29 43
f 1 43 45
f 1 45 34
f 1 34 24
f 1 24 23
f 1 23 21
f 1 21 4
f 1 4 5
f 1 5 2
f 2 5 7
f 2 7 8
f 2 8 9
f 2 9 10
f 2 10 11
f 2 11 12
f 2 12 13
f 2 13 14
f 2 14 15
f 2 15 16
f 2 16 17
f 2 17 18
f 2 18 27
f 2 27 39
f 2 39 50
f 2 50 49
f 2 49 35
f 2 35 25
f 2 25 6
f 3 19 20
f 4 21 5
f 5 22 33
f 5 33 48
f 5 48 73
f 5 73 89
f 5 89 88
f 5 88 100
f 5 100 99
f 5 99 85
f 5 85 84
f 5 84 83
f 5 83 98
f 5 98 97
f 5 97 95
f 5 95 94
f 5 94 96
f 5 96 93
f 5 93 92
f 5 92 101
f 5 101 90
f 5 90 75
f 5 75 74
f 5 74 51
f 5 51 40
f 5 40 27
f 5 27 18
f 5 18 17
f 5 17 16
f 5 16 15
f 5 15 14
f 5 14 13
f 5 13 12
f 5 12 11
f 5 11 10
f 5 10 9
f 5 9 8
f 5 8 7
f 5 21 23
f 5 23 24
f 5 24 22
f 6 25 26
f 19 28 20
f 20 28 30
f 20 30 31
f 20 31 32
f 20 32 29
f 22 32 33
f 22 24 34
f 22 34 32
f 25 35 26
f 26 36 37
f 26 37 30
f 26 30 38
f 26 35 36
f 27 40 41
f 27 41 39
f 28 42 30
f 29 32 43
f 30 42 38
f 30 37 32
f 30 32 31
f 32 44 33
f 32 34 45
f 32 45 43
f 32 37 36
f 32 36 46
f 32 46 44
f 33 47 48
f 33 44 47
f 35 49 36
f 36 49 46
f 39 41 50
f 40 51 52
f 40 52 41
f 41 52 53
f 41 53 54
f 41 54 50
f 44 46 55
f 44 55 47
f 46 49 54
f 46 54 53
f 46 53 56
f 46 56 57
f 46 57 58
f 46 58 59
f 46 59 60
f 46 60 61
f 46 61 62
f 46 62 63
f 46 63 64
f 46 64 65
f 46 65 66
f 46 66 67
f 46 67 68
f 46 68 69
f 46 69 70
f 46 70 71
f 46 71 72
f 46 72 55
f 47 55 48
f 48 55 73
f 49 50 54
f 51 74 52
f 52 74 75
f 52 75 76
f 52 76 77
f 52 77 57
f 52 57 56
f 52 56 53
f 55 72 78
f 55 78 73
f 57 77 58
f 58 77 59
f 59 77 79
f 59 79 60
f 60 79 61
f 61 79 62
f 62 80 63
f 62 79 80
f 63 80 64
f 64 80 81
f 64 81 82
f 64 82 65
f 65 82 66
f 66 82 81
f 66 81 83
f 66 83 84
f 66 84 85
f 66 85 86
f 66 86 67
f 67 86 68
f 68 87 69
f 68 86 87
f 69 87 70
f 70 88 89
f 70 89 71
f 70 87 88
f 71 89 72
f 72 89 78
f 73 78 89
f 75 90 76
f 76 90 91
f 76 91 77
f 77 91 79
f 79 92 93
f 79 93 80
f 79 91 92
f 80 94 95
f 80 95 81
f 80 93 96
f 80 96 94
f 81 95 97
f 81 97 98
f 81 98 83
f 85 99 86
f 86 99 100
f 86 100 87
f 87 100 88
f 90 101 91
f 91 101 92

