# https://github.com/mikedh/trimesh
v -0.11208584 0.08675638 -0.00992445
v -0.11208584 0.08646018 -0.00167741
v -0.11208584 0.08857309 -0.00992445
v -0.10571869 0.08658188 -0.00992445
v -0.11208584 0.08645876 -0.00162413
v -0.10387904 0.08646468 -0.00735657
v -0.11208584 0.08866377 -0.00857925
v -0.09440544 0.08884016 -0.00992445
v -0.08250834 0.08649854 -0.00992445
v -0.11208584 0.08645805 -0.00145099
v -0.11194263 0.08645758 -0.00166675
v -0.10591697 0.08643248 0.00564264
v -0.11208584 0.08870426 -0.00705024
v -0.11208584 0.08880891 0.01090093
v -0.11208584 0.08880891 0.01728333
v -0.00822861 0.08885106 0.00487015
v -0.00841588 0.08885034 0.00413494
v 0.00045186 0.08879352 -0.00885628
v 0.00045186 0.08878665 -0.00992445
v -0.01915631 0.08665788 -0.00992445
v 0.00045186 0.08665125 -0.00709819
v -0.00311727 0.08662000 -0.00436516
v -0.04989047 0.08652529 -0.00239396
v -0.11208584 0.08645995 -0.00047605
v -0.03650624 0.08652482 0.00823716
v -0.03595545 0.08652955 0.00886847
v -0.09173960 0.08650612 0.00975817
v -0.10199534 0.08667777 0.01526153
v -0.11208584 0.08648267 0.00621269
v -0.11208584 0.08836663 0.01721940
v -0.10777865 0.08848880 0.01724604
v -0.10663301 0.08880891 0.01728866
v -0.00597037 0.08880891 0.01679320
v -0.00448323 0.08880891 0.01678520
v 0.00045186 0.08880891 0.01675324
v 0.00045186 0.08880891 0.01057328
v 0.00045186 0.08675922 -0.00992445
v -0.01460677 0.08667516 -0.00992445
v 0.00045186 0.08671542 -0.00886427
v 0.00045186 0.08663871 -0.00549460
v -0.00373415 0.08672299 -0.00992445
v -0.00688468 0.08661953 0.00783759
v -0.00658725 0.08664368 0.00980079
v -0.01309761 0.08668298 0.01170539
v -0.00411971 0.08680800 0.01450235
v -0.08542753 0.08668748 0.01492056
v -0.08193552 0.08653145 0.01027494
v -0.00420783 0.08685818 0.01501379
v -0.10158775 0.08673554 0.01572769
v -0.11208584 0.08683333 0.01538140
v -0.11208584 0.08683096 0.01533611
v -0.11208584 0.08794187 0.01712350
v -0.00608053 0.08852834 0.01674791
v 0.00045186 0.08880228 0.01675324
v 0.00045186 0.08667682 0.00758719
v 0.00045186 0.08682883 0.01372719
v -0.00193857 0.08691596 0.01533078
v 0.00045186 0.08686221 0.01446506
v 0.00045186 0.08692235 0.01510436
v -0.00370111 0.08691311 0.01536275
v -0.10138947 0.08683285 0.01607131
v -0.11208584 0.08697893 0.01609795
v -0.11208584 0.08690412 0.01579694
v -0.00286390 0.08696473 0.01557052
v -0.11208584 0.08790564 0.01711018
v -0.00008791 0.08793832 0.01651084
v -0.00689569 0.08806617 0.01659341
v 0.00045186 0.08803752 0.01654014
v 0.00045186 0.08841066 0.01666001
v 0.00045186 0.08858280 0.01670795
v 0.00045186 0.08696947 0.01543201
v 0.00045186 0.08701327 0.01561581
v -0.10010062 0.08705921 0.01645756
v -0.11003690 0.08698746 0.01620716
v -0.00384431 0.08703197 0.01573834
v -0.00250038 0.08708525 0.01584756
v -0.11208584 0.08712645 0.01640428
v 0.00045186 0.08705518 0.01574900
v -0.11208584 0.08769634 0.01699831
v -0.09813980 0.08763644 0.01691306
v -0.02890532 0.08784029 0.01662804
v -0.00103528 0.08764922 0.01638297
v 0.00045186 0.08792506 0.01649485
v 0.00045186 0.08798140 0.01651883
v -0.10036500 0.08721263 0.01662005
v -0.11016909 0.08723085 0.01656411
v -0.11208584 0.08715509 0.01644690
v -0.00278679 0.08716622 0.01598341
v -0.02431172 0.08730142 0.01625511
v 0.00045186 0.08711769 0.01587686
v -0.11208584 0.08730592 0.01662005
v -0.09809574 0.08742998 0.01678787
v -0.00291898 0.08743259 0.01623913
v -0.00085902 0.08738570 0.01617786
v 0.00045186 0.08756967 0.01629507
v 0.00045186 0.08762697 0.01633769
v 0.00045186 0.08716409 0.01593280
v 0.00045186 0.08739494 0.01615655
f 1 2 5
f 1 5 10
f 1 10 24
f 1 24 29
f 1 29 51
f 1 51 50
f 1 50 63
f 1 63 62
f 1 62 77
f 1 77 87
f 1 87 91
f 1 91 79
f 1 79 65
f 1 65 52
f 1 52 30
f 1 30 15
f 1 15 14
f 1 14 13
f 1 13 7
f 1 7 3
f 1 3 8
f 1 8 19
f 1 19 37
f 1 37 41
f 1 41 38
f 1 38 20
f 1 20 9
f 1 9 4
f 1 4 2
f 2 4 6
f 2 6 5
f 3 7 8
f 4 9 6
f 5 6 11
f 5 11 10
f 6 12 11
f 6 9 12
f 7 13 8
f 8 13 14
f 8 14 15
f 8 15 16
f 8 16 17
f 8 17 18
f 8 18 19
f 9 20 21
f 9 21 22
f 9 22 23
f 9 23 12
f 10 11 12
f 10 12 24
f 12 23 25
f 12 25 26
f 12 26 27
f 12 27 28
f 12 28 29
f 12 29 24
f 15 30 31
f 15 31 32
f 15 32 16
f 16 33 34
f 16 34 35
f 16 35 36
f 16 36 18
f 16 18 17
f 16 32 33
f 18 36 35
f 18 35 54
f 18 54 70
f 18 70 69
f 18 69 68
f 18 68 84
f 18 84 83
f 18 83 96
f 18 96 95
f 18 95 98
f 18 98 97
f 18 97 90
f 18 90 78
f 18 78 72
f 18 72 71
f 18 71 59
f 18 59 58
f 18 58 56
f 18 56 55
f 18 55 40
f 18 40 21
f 18 21 39
f 18 39 37
f 18 37 19
f 20 38 21
f 21 40 22
f 21 38 41
f 21 41 39
f 22 40 42
f 22 42 25
f 22 25 23
f 25 42 26
f 26 42 43
f 26 43 44
f 26 44 45
f 26 45 46
f 26 46 28
f 26 28 47
f 26 47 27
f 27 47 28
f 28 46 45
f 28 45 48
f 28 48 49
f 28 49 50
f 28 50 51
f 28 51 29
f 30 52 31
f 31 52 53
f 31 53 33
f 31 33 32
f 33 53 34
f 34 53 54
f 34 54 35
f 37 39 41
f 40 55 42
f 42 55 43
f 43 55 56
f 43 56 45
f 43 45 44
f 45 57 48
f 45 56 58
f 45 58 59
f 45 59 57
f 48 57 60
f 48 60 49
f 49 61 62
f 49 62 63
f 49 63 50
f 49 60 64
f 49 64 61
f 52 65 66
f 52 66 67
f 52 67 53
f 53 67 66
f 53 66 68
f 53 68 69
f 53 69 70
f 53 70 54
f 57 64 60
f 57 59 71
f 57 71 72
f 57 72 64
f 61 73 74
f 61 74 62
f 61 64 75
f 61 75 76
f 61 76 73
f 62 74 77
f 64 72 78
f 64 78 75
f 65 79 80
f 65 80 81
f 65 81 66
f 66 81 82
f 66 82 83
f 66 83 84
f 66 84 68
f 73 85 86
f 73 86 87
f 73 87 77
f 73 77 74
f 73 76 88
f 73 88 89
f 73 89 85
f 75 78 76
f 76 78 90
f 76 90 88
f 79 91 86
f 79 86 85
f 79 85 92
f 79 92 80
f 80 92 82
f 80 82 81
f 82 93 94
f 82 94 95
f 82 95 96
f 82 96 83
f 82 92 93
f 85 89 92
f 86 91 87
f 88 90 97
f 88 97 94
f 88 94 93
f 88 93 89
f 89 93 92
f 94 97 98
f 94 98 95

