# https://github.com/mikedh/trimesh
v -0.13654670 0.09131898 0.01507541
v -0.13654670 0.09130769 0.01481507
v -0.13729490 0.09125349 0.01496384
v -0.13654670 0.09127946 0.01561543
v -0.13654670 0.09126591 0.01408018
v -0.13716688 0.09120719 0.01397158
v -0.13832909 0.09108751 0.01437176
v -0.13810795 0.09112251 0.01557006
v -0.13654670 0.09126817 0.01575675
v -0.13654670 0.09121736 0.01381538
v -0.13709040 0.09104347 0.01325528
v -0.13843051 0.09093959 0.01355578
v -0.13654670 0.09111010 0.01335867
v -0.13952123 0.09081313 0.01451680
v -0.13747780 0.09103218 0.01622536
v -0.13654670 0.09124333 0.01585420
v -0.13903905 0.09090346 0.01570692
v -0.13895260 0.09077248 0.01630867
v -0.13678447 0.09090910 0.01292502
v -0.13885615 0.09065618 0.01298824
v -0.13654670 0.09092492 0.01293915
v -0.14005993 0.09049472 0.01335123
v -0.14425153 0.08918719 0.01406009
v -0.14239100 0.08989628 0.01543096
v -0.13711035 0.09076007 0.01680555
v -0.13654670 0.09110332 0.01629379
v -0.14049888 0.09039874 0.01622983
v -0.14106419 0.09004419 0.01667686
v -0.13932670 0.09035019 0.01688142
v -0.13699396 0.08847809 0.00988650
v -0.13654670 0.09091249 0.01291832
v -0.13654670 0.08852552 0.00988650
v -0.14065351 0.08987257 0.01256798
v -0.14096276 0.09006001 0.01293395
v -0.13839560 0.08825115 0.00988650
v -0.14466555 0.08876376 0.01306560
v -0.14612704 0.08833808 0.01365173
v -0.14545531 0.08876376 0.01470722
v -0.14488834 0.08890377 0.01582742
v -0.14315916 0.08953044 0.01630421
v -0.13654670 0.09048681 0.01709341
v -0.13654670 0.09081200 0.01681521
v -0.13654670 0.09086055 0.01674009
v -0.14344847 0.08919961 0.01673414
v -0.14241262 0.08932945 0.01698704
v -0.14048392 0.08974611 0.01711423
v -0.13656333 0.09048230 0.01709489
v -0.13654670 0.08653938 0.00988650
v -0.14064020 0.08763690 0.00988650
v -0.14343516 0.08894894 0.01260666
v -0.13998345 0.08784918 0.00988650
v -0.14638309 0.08794402 0.01293766
v -0.14605720 0.08846793 0.01444093
v -0.14780800 0.08738962 0.01359297
v -0.14697333 0.08794176 0.01401249
v -0.14657096 0.08816307 0.01491847
v -0.14474535 0.08870731 0.01655562
v -0.14629829 0.08815404 0.01582965
v -0.13700727 0.09009275 0.01726597
v -0.13654670 0.09016163 0.01725035
v -0.14519759 0.08813033 0.01694910
v -0.14480354 0.08777239 0.01725184
v -0.14154137 0.08909121 0.01727490
v -0.14605221 0.08280988 0.00988650
v -0.13654670 0.08668956 0.01492590
v -0.14942245 0.07978495 0.01410844
v -0.14938255 0.07978495 0.01313329
v -0.14934764 0.07978495 0.01059760
v -0.14155302 0.08729364 0.00988650
v -0.14243756 0.08694022 0.00988650
v -0.14780467 0.08703055 0.01285882
v -0.14839160 0.08686570 0.01318015
v -0.14417672 0.08613516 0.00988650
v -0.14482349 0.08577835 0.00988650
v -0.14550020 0.08539332 0.00988650
v -0.15033360 0.08566092 0.01383843
v -0.15070438 0.08546106 0.01457482
v -0.15029702 0.08562366 0.01537369
v -0.14724435 0.08735010 0.01633619
v -0.13861009 0.08908331 0.01741920
v -0.13654670 0.08941301 0.01739019
v -0.13654670 0.09008597 0.01727341
v -0.14835169 0.08628759 0.01681819
v -0.14666907 0.08698991 0.01713878
v -0.14305109 0.08790789 0.01740730
v -0.14803412 0.08533912 0.01740804
v -0.14889871 0.08280988 0.00988650
v -0.13654670 0.08678779 0.01587949
v -0.14963195 0.07978495 0.01632132
v -0.14955380 0.07978495 0.01575750
v -0.15170198 0.07978495 0.01059760
v -0.14724767 0.08423032 0.00988650
v -0.14966686 0.08545655 0.01265575
v -0.14949229 0.08599515 0.01305519
v -0.15100365 0.08484004 0.01321957
v -0.15142597 0.08470681 0.01384959
v -0.15178179 0.08449906 0.01468788
v -0.15126469 0.08486037 0.01541385
v -0.15108014 0.08475423 0.01604313
v -0.14990795 0.08552769 0.01633991
v -0.13654670 0.08919735 0.01742738
v -0.14250740 0.08723719 0.01747276
v -0.14855620 0.08591836 0.01702423
v -0.15055474 0.08480166 0.01665827
v -0.14787783 0.08459729 0.01748466
v -0.14985475 0.08438388 0.01725556
v -0.14956877 0.08366236 0.01745714
v -0.15353092 0.08113651 0.01251815
v -0.15353092 0.08124039 0.01256427
v -0.15353092 0.08154074 0.01273088
v -0.15350432 0.08169204 0.01279857
v -0.15239698 0.08280988 0.01265799
v -0.15222738 0.08298037 0.01263716
v -0.15094214 0.08464245 0.01291163
v -0.13654670 0.08688264 0.01623355
v -0.14979822 0.07978495 0.01659356
v -0.15353092 0.07978495 0.01201979
v -0.15353092 0.08089262 0.01242368
v -0.15212098 0.08373351 0.01318015
v -0.15248012 0.08364769 0.01391951
v -0.15195970 0.08410837 0.01549344
v -0.15353092 0.08241807 0.01394406
v -0.15320171 0.08280988 0.01409282
v -0.15353092 0.08225661 0.01502855
v -0.15174189 0.08386335 0.01634289
v -0.13654670 0.08886651 0.01742664
v -0.15227394 0.07978495 0.01748094
v -0.15186991 0.07978495 0.01747796
v -0.15011745 0.08473504 0.01699225
v -0.15154403 0.08368270 0.01675125
v -0.15123310 0.08361946 0.01699745
v -0.15106351 0.08280875 0.01729424
v -0.15044667 0.08280875 0.01742887
v -0.15227394 0.08049743 0.01744970
v -0.15265303 0.07978495 0.01746085
v -0.15353092 0.08165816 0.01280229
v -0.15353092 0.08167510 0.01281345
v -0.15304043 0.08258292 0.01306337
v -0.15257655 0.08280988 0.01282014
v -0.13654670 0.08700684 0.01657868
v -0.14981318 0.07978495 0.01661513
v -0.15353092 0.07978495 0.01726672
v -0.15353092 0.08221821 0.01342189
v -0.15299555 0.08280988 0.01335792
v -0.15353092 0.08224419 0.01346652
v -0.15353092 0.08228032 0.01354909
v -0.15353092 0.08230968 0.01363239
v -0.15353092 0.08221031 0.01515277
v -0.15353092 0.08189189 0.01591147
v -0.15353092 0.08239888 0.01407720
v -0.15255327 0.08280988 0.01636520
v -0.13654670 0.08877958 0.01742292
v -0.15169034 0.07978495 0.01747573
v -0.15221574 0.08280988 0.01672447
v -0.15353092 0.08021966 0.01713060
v -0.15231385 0.08280988 0.01665232
v -0.15353092 0.08142895 0.01649686
v -0.15353092 0.08139169 0.01651694
v -0.15353092 0.07989222 0.01724589
v -0.15286918 0.08045339 0.01735002
v -0.15309530 0.07978495 0.01738275
v -0.15353092 0.08195738 0.01308792
v -0.15353092 0.08220241 0.01339586
v -0.13654670 0.08704524 0.01664414
v -0.15043835 0.07978495 0.01710084
v -0.15328152 0.07978495 0.01734705
v -0.15353092 0.08153961 0.01639198
v -0.13654670 0.08810548 0.01726895
v -0.15116826 0.07978495 0.01740730
v -0.15353092 0.08125733 0.01658835
v -0.15316181 0.08158026 0.01668579
v -0.13654670 0.08728235 0.01689704
v -0.15068276 0.07978495 0.01721539
v -0.13654670 0.08808855 0.01726448
v -0.15103858 0.07978495 0.01736044
f 1 2 3
f 1 3 4
f 1 4 9
f 1 9 16
f 1 16 26
f 1 26 43
f 1 43 42
f 1 42 41
f 1 41 60
f 1 60 82
f 1 82 81
f 1 81 101
f 1 101 126
f 1 126 152
f 1 152 168
f 1 168 174
f 1 174 172
f 1 172 164
f 1 164 140
f 1 140 115
f 1 115 88
f 1 88 65
f 1 65 48
f 1 48 32
f 1 32 31
f 1 31 21
f 1 21 13
f 1 13 10
f 1 10 5
f 1 5 2
f 2 5 3
f 3 6 7
f 3 7 8
f 3 8 4
f 3 5 6
f 4 8 9
f 5 10 6
f 6 11 12
f 6 12 7
f 6 10 13
f 6 13 11
f 7 12 14
f 7 14 8
f 8 15 16
f 8 16 9
f 8 14 17
f 8 17 18
f 8 18 15
f 11 19 20
f 11 20 12
f 11 13 21
f 11 21 19
f 12 20 22
f 12 22 14
f 14 22 23
f 14 23 24
f 14 24 17
f 15 18 25
f 15 25 26
f 15 26 16
f 17 24 27
f 17 27 18
f 18 27 28
f 18 28 29
f 18 29 25
f 19 30 20
f 19 21 31
f 19 31 32
f 19 32 30
f 20 33 34
f 20 34 22
f 20 30 35
f 20 35 33
f 22 34 23
f 23 36 37
f 23 37 38
f 23 38 24
f 23 34 36
f 24 38 39
f 24 39 40
f 24 40 27
f 25 29 41
f 25 41 42
f 25 42 43
f 25 43 26
f 27 40 28
f 28 40 44
f 28 44 45
f 28 45 29
f 29 45 46
f 29 46 47
f 29 47 41
f 30 32 48
f 30 48 64
f 30 64 87
f 30 87 92
f 30 92 75
f 30 75 74
f 30 74 73
f 30 73 70
f 30 70 69
f 30 69 49
f 30 49 51
f 30 51 35
f 33 49 50
f 33 50 34
f 33 35 51
f 33 51 49
f 34 50 36
f 36 50 52
f 36 52 37
f 37 53 38
f 37 52 54
f 37 54 55
f 37 55 53
f 38 53 56
f 38 56 39
f 39 57 40
f 39 56 58
f 39 58 57
f 40 57 44
f 41 47 59
f 41 59 60
f 44 57 61
f 44 61 45
f 45 61 62
f 45 62 63
f 45 63 46
f 46 63 59
f 46 59 47
f 48 65 66
f 48 66 67
f 48 67 68
f 48 68 64
f 49 69 50
f 50 69 70
f 50 70 52
f 52 71 72
f 52 72 54
f 52 70 73
f 52 73 74
f 52 74 75
f 52 75 71
f 53 55 56
f 54 72 76
f 54 76 77
f 54 77 55
f 55 77 56
f 56 77 78
f 56 78 58
f 57 58 79
f 57 79 61
f 58 78 79
f 59 63 80
f 59 80 81
f 59 81 82
f 59 82 60
f 61 79 83
f 61 83 84
f 61 84 62
f 62 85 63
f 62 84 86
f 62 86 85
f 63 85 80
f 64 68 91
f 64 91 87
f 65 88 89
f 65 89 90
f 65 90 66
f 66 90 89
f 66 89 116
f 66 116 141
f 66 141 165
f 66 165 173
f 66 173 175
f 66 175 169
f 66 169 153
f 66 153 128
f 66 128 127
f 66 127 135
f 66 135 161
f 66 161 166
f 66 166 142
f 66 142 117
f 66 117 91
f 66 91 68
f 66 68 67
f 71 75 92
f 71 92 93
f 71 93 94
f 71 94 72
f 72 94 76
f 76 94 95
f 76 95 96
f 76 96 77
f 77 96 97
f 77 97 98
f 77 98 78
f 78 98 99
f 78 99 100
f 78 100 79
f 79 100 83
f 80 101 81
f 80 85 102
f 80 102 101
f 83 103 84
f 83 100 104
f 83 104 103
f 84 103 86
f 85 86 105
f 85 105 102
f 86 103 106
f 86 106 107
f 86 107 105
f 87 91 108
f 87 108 109
f 87 109 110
f 87 110 111
f 87 111 112
f 87 112 113
f 87 113 114
f 87 114 93
f 87 93 92
f 88 115 89
f 89 115 116
f 91 117 118
f 91 118 108
f 93 114 94
f 94 114 95
f 95 114 119
f 95 119 96
f 96 119 120
f 96 120 97
f 97 121 98
f 97 120 122
f 97 122 123
f 97 123 124
f 97 124 121
f 98 121 99
f 99 121 125
f 99 125 104
f 99 104 100
f 101 102 126
f 102 105 127
f 102 127 128
f 102 128 126
f 103 104 129
f 103 129 106
f 104 125 130
f 104 130 129
f 105 107 127
f 106 129 131
f 106 131 132
f 106 132 107
f 107 132 133
f 107 133 134
f 107 134 135
f 107 135 127
f 108 118 117
f 108 117 142
f 108 142 159
f 108 159 155
f 108 155 170
f 108 170 158
f 108 158 157
f 108 157 167
f 108 167 149
f 108 149 148
f 108 148 124
f 108 124 150
f 108 150 122
f 108 122 147
f 108 147 146
f 108 146 145
f 108 145 143
f 108 143 163
f 108 163 162
f 108 162 137
f 108 137 136
f 108 136 110
f 108 110 109
f 110 136 111
f 111 136 137
f 111 137 138
f 111 138 112
f 112 138 139
f 112 139 113
f 113 139 119
f 113 119 114
f 115 140 116
f 116 140 141
f 119 139 138
f 119 138 143
f 119 143 144
f 119 144 120
f 120 144 145
f 120 145 146
f 120 146 147
f 120 147 122
f 121 124 148
f 121 148 149
f 121 149 125
f 122 150 123
f 123 150 124
f 125 149 151
f 125 151 130
f 126 128 153
f 126 153 152
f 129 130 131
f 130 154 155
f 130 155 131
f 130 151 156
f 130 156 157
f 130 157 158
f 130 158 154
f 131 155 159
f 131 159 160
f 131 160 132
f 132 160 133
f 133 160 134
f 134 160 135
f 135 160 161
f 137 162 138
f 138 162 163
f 138 163 143
f 140 164 141
f 141 164 165
f 142 166 159
f 143 145 144
f 149 167 151
f 151 167 157
f 151 157 156
f 152 153 169
f 152 169 168
f 154 158 170
f 154 170 171
f 154 171 155
f 155 171 170
f 159 166 160
f 160 166 161
f 164 172 165
f 165 172 173
f 168 169 174
f 169 175 172
f 169 172 174
f 172 175 173

