# https://github.com/mikedh/trimesh
v 0.15191148 -0.04295675 -0.01028890
v 0.15518523 -0.04603472 -0.01028890
v 0.15191148 -0.04558113 -0.01585480
v 0.15191148 -0.04771411 -0.01028890
v 0.15524439 -0.04609412 -0.01028890
v 0.15542275 -0.04842960 -0.01484185
v 0.15191148 -0.04599692 -0.01623333
v 0.15534086 -0.04870770 -0.01556311
v 0.15564739 -0.04929360 -0.01600661
v 0.15540602 -0.04942320 -0.01637917
v 0.15191148 -0.07053972 -0.01037110
v 0.15215500 -0.07053972 -0.01028890
v 0.15530142 -0.04617242 -0.01028890
v 0.15568770 -0.04889400 -0.01524823
v 0.15191148 -0.04664222 -0.01660125
v 0.15523153 -0.04990109 -0.01674378
v 0.15602382 -0.04973099 -0.01583359
v 0.15598180 -0.05007389 -0.01622670
v 0.15565683 -0.04974989 -0.01638845
v 0.15191148 -0.07053972 -0.01411529
v 0.15559252 -0.07053972 -0.01028890
v 0.15547333 -0.04649642 -0.01028890
v 0.15556208 -0.04709851 -0.01147155
v 0.15191148 -0.04715791 -0.01673516
v 0.15487869 -0.05033309 -0.01700829
v 0.15543046 -0.05052209 -0.01690156
v 0.15611342 -0.04989299 -0.01551538
v 0.15619617 -0.05042488 -0.01612594
v 0.15561096 -0.04684471 -0.01028890
v 0.15608598 -0.05078398 -0.01647596
v 0.15579617 -0.05063008 -0.01669406
v 0.15343217 -0.07053972 -0.01627973
v 0.15191148 -0.04869420 -0.01696254
v 0.15562811 -0.07035342 -0.01028890
v 0.15554707 -0.07053972 -0.01499167
v 0.15191148 -0.04803540 -0.01693603
v 0.15541203 -0.05135098 -0.01702950
v 0.15480581 -0.05087308 -0.01706132
v 0.15567355 -0.05115928 -0.01691481
v 0.15566755 -0.04706071 -0.01028890
v 0.15628191 -0.05063279 -0.01590518
v 0.15622789 -0.05096758 -0.01634006
v 0.15611342 -0.05157238 -0.01660788
v 0.15593035 -0.05135098 -0.01677030
v 0.15357236 -0.07053972 -0.01639309
v 0.15191148 -0.04859430 -0.01696453
v 0.15476936 -0.06423527 -0.01694663
v 0.15437879 -0.06546107 -0.01685051
v 0.15392220 -0.07053972 -0.01659462
v 0.15569755 -0.06990793 -0.01028890
v 0.15577301 -0.06922753 -0.01483589
v 0.15554622 -0.07053972 -0.01501024
v 0.15191148 -0.04809211 -0.01694000
v 0.15577602 -0.05186667 -0.01691415
v 0.15563025 -0.05271447 -0.01695260
v 0.15502403 -0.06458087 -0.01690686
v 0.15510934 -0.05276037 -0.01706066
v 0.15442852 -0.05880292 -0.01701226
v 0.15199422 -0.04876440 -0.01696719
v 0.15576229 -0.04756021 -0.01028890
v 0.15627891 -0.05113768 -0.01576464
v 0.15629134 -0.05137798 -0.01624858
v 0.15578716 -0.04802730 -0.01028890
v 0.15579316 -0.04815421 -0.01028890
v 0.15619145 -0.05204217 -0.01642491
v 0.15557965 -0.06477797 -0.01651441
v 0.15549777 -0.06526397 -0.01661252
v 0.15476250 -0.06529637 -0.01690421
v 0.15443110 -0.07053972 -0.01663307
v 0.15578202 -0.06936253 -0.01028890
v 0.15576915 -0.06899804 -0.01558035
v 0.15590377 -0.06748605 -0.01512094
v 0.15590035 -0.06809894 -0.01028890
v 0.15585533 -0.06859304 -0.01028890
v 0.15549219 -0.07053972 -0.01566852
v 0.15527827 -0.06380058 -0.01680477
v 0.15495029 -0.06989443 -0.01655684
v 0.15475007 -0.07053972 -0.01657672
v 0.15472692 -0.07053972 -0.01658269
v 0.15451556 -0.07053972 -0.01662445
v 0.15585447 -0.05355146 -0.01028890
v 0.15594150 -0.06636826 -0.01028890
v 0.15592907 -0.06712965 -0.01028890
v 0.15583861 -0.06712965 -0.01579447
v 0.15566326 -0.06780194 -0.01610074
v 0.15565340 -0.06918703 -0.01594496
v 0.15527226 -0.07043442 -0.01621875
v 0.15519852 -0.06889814 -0.01647264
v 0.15448297 -0.07053972 -0.01662909
v 0.15547547 -0.07053972 -0.01574144
v 0.15490741 -0.07053972 -0.01647264
v 0.15540516 -0.07053972 -0.01596418
v 0.15527612 -0.07053972 -0.01618096
v 0.15524954 -0.07053972 -0.01621676
f 1 2 3
f 1 3 7
f 1 7 15
f 1 15 24
f 1 24 36
f 1 36 53
f 1 53 46
f 1 46 33
f 1 33 20
f 1 20 11
f 1 11 4
f 1 4 12
f 1 12 21
f 1 21 34
f 1 34 50
f 1 50 70
f 1 70 74
f 1 74 73
f 1 73 83
f 1 83 82
f 1 82 81
f 1 81 64
f 1 64 63
f 1 63 60
f 1 60 40
f 1 40 29
f 1 29 22
f 1 22 13
f 1 13 5
f 1 5 2
f 2 5 6
f 2 6 3
f 3 6 8
f 3 8 9
f 3 9 10
f 3 10 7
f 4 11 12
f 5 13 14
f 5 14 6
f 6 14 8
f 7 10 16
f 7 16 15
f 8 14 9
f 9 17 18
f 9 18 19
f 9 19 10
f 9 14 17
f 10 19 16
f 11 20 32
f 11 32 45
f 11 45 49
f 11 49 69
f 11 69 89
f 11 89 80
f 11 80 79
f 11 79 78
f 11 78 91
f 11 91 94
f 11 94 93
f 11 93 92
f 11 92 90
f 11 90 75
f 11 75 52
f 11 52 35
f 11 35 21
f 11 21 12
f 13 22 23
f 13 23 14
f 14 23 17
f 15 16 25
f 15 25 24
f 16 19 26
f 16 26 25
f 17 27 28
f 17 28 18
f 17 23 29
f 17 29 27
f 18 28 30
f 18 30 31
f 18 31 19
f 19 31 26
f 20 33 32
f 21 35 34
f 22 29 23
f 24 25 36
f 25 26 37
f 25 37 38
f 25 38 36
f 26 31 39
f 26 39 37
f 27 29 40
f 27 40 41
f 27 41 28
f 28 41 42
f 28 42 30
f 30 42 43
f 30 43 44
f 30 44 31
f 31 44 39
f 32 33 45
f 33 46 47
f 33 47 48
f 33 48 49
f 33 49 45
f 34 35 51
f 34 51 50
f 35 52 51
f 36 38 53
f 37 54 55
f 37 55 56
f 37 56 57
f 37 57 38
f 37 39 54
f 38 46 53
f 38 57 58
f 38 58 59
f 38 59 46
f 39 44 54
f 40 60 41
f 41 61 62
f 41 62 42
f 41 60 63
f 41 63 64
f 41 64 61
f 42 62 43
f 43 54 44
f 43 62 65
f 43 65 66
f 43 66 67
f 43 67 54
f 46 59 58
f 46 58 47
f 47 58 57
f 47 57 56
f 47 56 68
f 47 68 48
f 48 68 49
f 49 68 69
f 50 51 70
f 51 71 72
f 51 72 73
f 51 73 74
f 51 74 70
f 51 52 71
f 52 75 71
f 54 67 76
f 54 76 56
f 54 56 55
f 56 76 67
f 56 67 77
f 56 77 78
f 56 78 79
f 56 79 80
f 56 80 68
f 61 64 81
f 61 81 82
f 61 82 62
f 62 82 83
f 62 83 72
f 62 72 84
f 62 84 65
f 65 84 85
f 65 85 66
f 66 85 67
f 67 85 86
f 67 86 87
f 67 87 88
f 67 88 77
f 68 80 89
f 68 89 69
f 71 86 84
f 71 84 72
f 71 75 90
f 71 90 86
f 72 83 73
f 77 88 87
f 77 87 91
f 77 91 78
f 84 86 85
f 86 90 92
f 86 92 87
f 87 92 93
f 87 93 94
f 87 94 91

