# https://github.com/mikedh/trimesh
v 0.14349546 -0.07053973 -0.01409944
v 0.15070266 -0.04970871 -0.01487358
v 0.15102805 -0.04997834 -0.01487358
v 0.15154949 -0.05035168 -0.01487358
v 0.15191113 -0.05057983 -0.01487358
v 0.15191113 -0.07053973 -0.01411560
v 0.14349546 -0.07053973 -0.01070043
v 0.14349546 -0.04774522 -0.01425068
v 0.14960374 -0.04747558 -0.01487358
v 0.14971248 -0.04800793 -0.01487358
v 0.14973966 -0.04813238 -0.01487358
v 0.14977179 -0.04821534 -0.01487358
v 0.14990195 -0.04854029 -0.01487358
v 0.15012436 -0.04895511 -0.01487358
v 0.15039951 -0.04934919 -0.01487358
v 0.15191113 -0.04934919 -0.01487358
v 0.15191113 -0.07053973 -0.01037103
v 0.15000821 -0.04468935 -0.01028935
v 0.14971742 -0.04249079 -0.01028935
v 0.14958232 -0.04017470 -0.01028935
v 0.14957903 -0.02553145 -0.01028935
v 0.14961363 -0.01527841 -0.01028935
v 0.14973472 0.00009077 -0.01028935
v 0.14349546 -0.06888044 -0.01070177
v 0.14955267 -0.04645927 -0.01487358
v 0.14349546 -0.03242442 -0.01432473
v 0.15190948 -0.04522171 -0.01487358
v 0.15191113 -0.04497281 -0.01330646
v 0.15191113 -0.04770373 -0.01028935
v 0.15134685 -0.04719903 -0.01028935
v 0.15078503 -0.04650766 -0.01028935
v 0.15044316 -0.04597530 -0.01028935
v 0.15175296 0.00009077 -0.01028935
v 0.14349546 0.00009077 -0.01131839
v 0.14349546 -0.05683675 -0.01079153
v 0.14349546 -0.01867305 -0.01438890
v 0.14908147 -0.03557016 -0.01487358
v 0.15191113 -0.04295401 -0.01028935
v 0.15170106 0.00009077 -0.01487358
v 0.15171424 0.00009077 -0.01454463
v 0.14349546 0.00009077 -0.01444904
v 0.14349546 -0.00355967 -0.01443737
v 0.14906087 -0.03490645 -0.01487358
v 0.14911277 0.00009077 -0.01487358
v 0.14904110 -0.01269268 -0.01487358
v 0.14903780 -0.01361912 -0.01487358
f 1 2 3
f 1 3 4
f 1 4 5
f 1 5 6
f 1 6 17
f 1 17 7
f 1 7 24
f 1 24 35
f 1 35 34
f 1 34 41
f 1 41 42
f 1 42 36
f 1 36 26
f 1 26 8
f 1 8 9
f 1 9 10
f 1 10 11
f 1 11 12
f 1 12 13
f 1 13 14
f 1 14 15
f 1 15 2
f 2 15 14
f 2 14 13
f 2 13 12
f 2 12 11
f 2 11 10
f 2 10 9
f 2 9 25
f 2 25 37
f 2 37 43
f 2 43 46
f 2 46 45
f 2 45 44
f 2 44 39
f 2 39 27
f 2 27 16
f 2 16 5
f 2 5 4
f 2 4 3
f 5 16 28
f 5 28 38
f 5 38 29
f 5 29 17
f 5 17 6
f 7 17 18
f 7 18 19
f 7 19 20
f 7 20 21
f 7 21 22
f 7 22 23
f 7 23 24
f 8 25 9
f 8 26 25
f 16 27 28
f 17 29 30
f 17 30 31
f 17 31 32
f 17 32 18
f 18 32 31
f 18 31 30
f 18 30 29
f 18 29 38
f 18 38 33
f 18 33 23
f 18 23 22
f 18 22 21
f 18 21 20
f 18 20 19
f 23 33 40
f 23 40 39
f 23 39 44
f 23 44 41
f 23 41 34
f 23 34 35
f 23 35 24
f 25 26 36
f 25 36 37
f 27 38 28
f 27 39 40
f 27 40 33
f 27 33 38
f 36 42 37
f 37 42 41
f 37 41 43
f 41 45 46
f 41 46 43
f 41 44 45

