# https://github.com/mikedh/trimesh
v -0.02913292 0.08755708 -0.01841829
v -0.07203881 0.08829290 -0.01824510
v -0.07252924 0.08847875 -0.01821208
v -0.07197254 0.08849598 -0.01820466
v -0.07197254 0.08870068 -0.01812784
v -0.02118002 0.08835162 -0.01801125
v -0.02079563 0.08820187 -0.01807595
v -0.00112546 0.08792607 -0.01802878
v -0.00194726 0.08774508 -0.01805708
v -0.00291486 0.08757108 -0.01806786
v -0.02845692 0.08741434 -0.01838392
v -0.09612284 0.08718217 -0.01790748
v -0.12381219 0.08765512 -0.01773024
v -0.12332175 0.08789699 -0.01772215
v -0.13491974 0.08810922 -0.01756177
v -0.08522737 0.08927597 -0.01778752
v -0.02033171 0.08852776 -0.01790613
v -0.08512134 0.08950329 -0.01764533
v -0.01937736 0.08871199 -0.01776326
v -0.00087362 0.08819972 -0.01778348
v 0.00043861 0.08821533 -0.01773159
v 0.00043861 0.08819864 -0.01774237
v 0.00043861 0.08777902 -0.01795937
v -0.00030366 0.08774562 -0.01800384
v 0.00043861 0.08756839 -0.01795397
v -0.00087362 0.08749837 -0.01798767
v -0.00198702 0.08735077 -0.01798565
v -0.02893410 0.08716978 -0.01825453
v -0.09535406 0.08701033 -0.01783604
v -0.12973710 0.08715793 -0.01755503
v -0.12397125 0.08727967 -0.01765207
v -0.13494624 0.08716008 -0.01749573
v -0.13494624 0.08746120 -0.01754222
v -0.13494624 0.08774292 -0.01757929
v -0.13494624 0.08788783 -0.01757322
v -0.13494624 0.08810060 -0.01756177
v -0.13494624 0.08811946 -0.01755503
v -0.13494624 0.08846258 -0.01738453
v -0.13456186 0.08857409 -0.01734949
v -0.13385934 0.08870230 -0.01725582
v -0.08535992 0.08967621 -0.01742362
v -0.01939062 0.08879494 -0.01750449
v -0.01897972 0.08876801 -0.01756379
v 0.00043861 0.08852830 -0.01712845
v 0.00043861 0.08850730 -0.01719045
v 0.00043861 0.08844696 -0.01733938
v 0.00043861 0.08835000 -0.01756177
v -0.00003856 0.08834408 -0.01759007
v 0.00043861 0.08824550 -0.01769587
v 0.00043861 0.08736640 -0.01784615
v -0.02845692 0.08687566 -0.01802743
v 0.00043861 0.08713584 -0.01769116
v 0.00043861 0.08420117 -0.01512497
v -0.02939802 0.08700010 -0.01812851
v -0.09569869 0.08684173 -0.01768779
v -0.13494624 0.08675662 -0.01725851
v -0.13494624 0.08684927 -0.01733197
v -0.13494624 0.08696347 -0.01740812
v -0.13494624 0.08854877 -0.01732051
v -0.13466789 0.08878794 -0.01710419
v -0.13354123 0.08892692 -0.01697076
v -0.13375331 0.08897270 -0.01657721
v -0.08538643 0.08970422 -0.01711093
v -0.01851580 0.08880841 -0.01731984
v 0.00043861 0.08858486 -0.01683329
v -0.00296788 0.08420117 -0.01514047
v -0.00940973 0.08420117 -0.01513844
v -0.02945104 0.08420117 -0.01511284
v -0.04727879 0.08420117 -0.01507982
v -0.05916837 0.08420117 -0.01504208
v -0.06909624 0.08420117 -0.01500569
v 0.00043861 0.08420117 -0.01212277
v -0.12980337 0.08420117 -0.01472400
v -0.13494624 0.08420710 -0.01464920
v -0.13442931 0.08420117 -0.01465189
v -0.13494624 0.08869475 -0.01716215
v -0.13449558 0.08890483 -0.01678881
v -0.13494624 0.08873677 -0.01708465
v -0.13494624 0.08875993 -0.01702602
v -0.13494624 0.08883427 -0.01675983
v -0.13494624 0.08888975 -0.01621668
v -0.13494624 0.08889029 -0.01618702
v -0.13374005 0.08895763 -0.01599968
v -0.13388586 0.08872492 -0.01153446
v -0.09455877 0.08884935 -0.01153446
v -0.09443948 0.08884935 -0.01153446
v 0.00043861 0.08877609 -0.01153446
v 0.00043861 0.08876855 -0.01269288
v 0.00043861 0.08874269 -0.01377785
v 0.00043861 0.08870768 -0.01513305
v 0.00043861 0.08866512 -0.01600844
v 0.00043861 0.08865274 -0.01625104
v 0.00043861 0.08864250 -0.01635482
v 0.00043861 0.08860102 -0.01671401
v 0.00043861 0.08638925 -0.01153446
v -0.00211957 0.08633269 -0.01153446
v -0.11532910 0.08420117 -0.01154659
v -0.13494624 0.08420117 -0.01405617
v -0.13494624 0.08885473 -0.01658732
v -0.13494624 0.08867213 -0.01153446
v -0.13428351 0.08871091 -0.01153446
v -0.11831143 0.08420117 -0.01153446
v -0.13494624 0.08420117 -0.01153446
f 1 2 3
f 1 3 4
f 1 4 5
f 1 5 6
f 1 6 7
f 1 7 8
f 1 8 9
f 1 9 10
f 1 10 11
f 1 11 12
f 1 12 2
f 2 12 13
f 2 13 14
f 2 14 15
f 2 15 3
f 3 5 4
f 3 15 16
f 3 16 5
f 5 17 6
f 5 16 18
f 5 18 17
f 6 17 8
f 6 8 7
f 8 17 19
f 8 19 20
f 8 20 21
f 8 21 22
f 8 22 23
f 8 23 24
f 8 24 9
f 9 24 10
f 10 24 25
f 10 25 26
f 10 26 27
f 10 27 11
f 11 27 28
f 11 28 29
f 11 29 12
f 12 29 30
f 12 30 31
f 12 31 13
f 13 31 32
f 13 32 33
f 13 33 34
f 13 34 35
f 13 35 15
f 13 15 14
f 15 35 36
f 15 36 37
f 15 37 38
f 15 38 39
f 15 39 16
f 16 39 18
f 17 18 19
f 18 39 40
f 18 40 41
f 18 41 19
f 19 42 43
f 19 43 44
f 19 44 45
f 19 45 46
f 19 46 47
f 19 47 48
f 19 48 49
f 19 49 21
f 19 21 20
f 19 41 42
f 21 49 47
f 21 47 46
f 21 46 45
f 21 45 44
f 21 44 65
f 21 65 94
f 21 94 93
f 21 93 92
f 21 92 91
f 21 91 90
f 21 90 89
f 21 89 88
f 21 88 87
f 21 87 95
f 21 95 72
f 21 72 53
f 21 53 52
f 21 52 50
f 21 50 25
f 21 25 23
f 21 23 22
f 23 25 24
f 25 50 27
f 25 27 26
f 27 51 28
f 27 50 52
f 27 52 53
f 27 53 51
f 28 51 54
f 28 54 29
f 29 55 56
f 29 56 57
f 29 57 58
f 29 58 30
f 29 54 51
f 29 51 55
f 30 58 32
f 30 32 31
f 32 58 57
f 32 57 56
f 32 56 74
f 32 74 98
f 32 98 103
f 32 103 100
f 32 100 82
f 32 82 81
f 32 81 99
f 32 99 80
f 32 80 79
f 32 79 78
f 32 78 76
f 32 76 59
f 32 59 38
f 32 38 37
f 32 37 36
f 32 36 35
f 32 35 34
f 32 34 33
f 38 59 39
f 39 59 60
f 39 60 40
f 40 60 61
f 40 61 41
f 41 61 62
f 41 62 63
f 41 63 64
f 41 64 42
f 42 64 65
f 42 65 44
f 42 44 43
f 47 49 48
f 51 53 66
f 51 66 67
f 51 67 68
f 51 68 69
f 51 69 70
f 51 70 71
f 51 71 55
f 53 72 97
f 53 97 102
f 53 102 103
f 53 103 98
f 53 98 75
f 53 75 73
f 53 73 71
f 53 71 70
f 53 70 69
f 53 69 68
f 53 68 67
f 53 67 66
f 55 73 56
f 55 71 73
f 56 73 75
f 56 75 74
f 59 76 60
f 60 77 61
f 60 76 78
f 60 78 79
f 60 79 80
f 60 80 77
f 61 77 62
f 62 77 81
f 62 81 82
f 62 82 83
f 62 83 63
f 63 83 84
f 63 84 85
f 63 85 86
f 63 86 87
f 63 87 88
f 63 88 89
f 63 89 90
f 63 90 91
f 63 91 92
f 63 92 64
f 64 92 93
f 64 93 94
f 64 94 65
f 72 95 96
f 72 96 97
f 74 75 98
f 77 80 99
f 77 99 81
f 82 100 83
f 83 100 101
f 83 101 84
f 84 101 100
f 84 100 103
f 84 103 102
f 84 102 96
f 84 96 95
f 84 95 87
f 84 87 86
f 84 86 85
f 96 102 97

