# https://github.com/mikedh/trimesh
v -0.07836345 -0.08525010 -0.01523629
v -0.07921083 -0.08525121 -0.01523629
v -0.08295005 -0.08586476 -0.01523569
v -0.05186612 -0.08528766 -0.01523629
v -0.13738391 -0.08618995 -0.01752457
v -0.11516380 -0.08533517 -0.01523629
v -0.12568204 -0.08584487 -0.01523629
v -0.12739025 -0.08598150 -0.01523629
v -0.12739025 -0.08882976 -0.01523629
v -0.12712123 -0.08883234 -0.01523629
v -0.12654287 -0.08883455 -0.01523629
v -0.02870450 -0.08889310 -0.01523629
v -0.02847584 -0.08889163 -0.01523629
v 0.00001215 -0.08868871 -0.01523629
v 0.00001215 -0.08591852 -0.01523629
v -0.00905343 -0.08551747 -0.01523629
v -0.01959856 -0.08535911 -0.01523629
v -0.03957244 -0.08647094 -0.01776940
v -0.13738391 -0.08628422 -0.01768520
v -0.13738391 -0.08617964 -0.01748754
v -0.13738391 -0.08558634 -0.01523808
v -0.13531254 -0.08899033 -0.01523808
v -0.13472072 -0.08901205 -0.01523808
v -0.13738391 -0.08871559 -0.01523808
v -0.13710145 -0.08877047 -0.01523808
v -0.13626752 -0.08890452 -0.01523808
v -0.13605231 -0.08892809 -0.01523808
v -0.13551430 -0.08897781 -0.01523808
v -0.02785712 -0.08893141 -0.01667004
v 0.00001215 -0.08871376 -0.01583553
v 0.00001215 -0.08656117 -0.01690950
v -0.00542182 -0.08679245 -0.01773178
v -0.00671306 -0.08666172 -0.01752397
v 0.00001215 -0.08660794 -0.01702177
v -0.00036446 -0.08667497 -0.01719494
v -0.00664581 -0.08681418 -0.01779746
v -0.04020461 -0.08657517 -0.01793929
v -0.13738391 -0.08642343 -0.01783001
v -0.13564880 -0.08899991 -0.01580776
v -0.02823373 -0.08893914 -0.01701788
v -0.13424995 -0.08900690 -0.01566056
v -0.13738391 -0.08876237 -0.01602393
v -0.13648273 -0.08893398 -0.01610126
v -0.13632133 -0.08892957 -0.01565310
v 0.00001215 -0.08873033 -0.01640610
v -0.00478965 -0.08694455 -0.01787868
v -0.00586568 -0.08693313 -0.01792973
v 0.00001215 -0.08671917 -0.01724002
v 0.00001215 -0.08665582 -0.01712358
v -0.00644405 -0.08705503 -0.01805991
v -0.00574463 -0.08723548 -0.01819218
v -0.03974729 -0.08686463 -0.01808798
v -0.06658089 -0.08708744 -0.01821875
v -0.13738391 -0.08665398 -0.01798825
v -0.13738391 -0.08663225 -0.01797362
v -0.13582366 -0.08897523 -0.01627921
v -0.02737290 -0.08891667 -0.01712358
v 0.00001215 -0.08871965 -0.01670438
v 0.00001215 -0.08872112 -0.01668647
v -0.13594472 -0.08889273 -0.01667900
v -0.13738391 -0.08876421 -0.01607439
v -0.13734355 -0.08877268 -0.01608275
v -0.13648273 -0.08890158 -0.01646671
v -0.13738391 -0.08874027 -0.01646015
v -0.00530076 -0.08710475 -0.01807245
v 0.00001215 -0.08684549 -0.01737737
v -0.00060657 -0.08726642 -0.01775148
v 0.00001215 -0.08741336 -0.01777776
v -0.00530076 -0.08739422 -0.01822174
v -0.00586568 -0.08747781 -0.01826115
v -0.06597561 -0.08726495 -0.01826921
v -0.13738391 -0.08689705 -0.01809186
v -0.13738391 -0.08685432 -0.01807544
v -0.02692904 -0.08882756 -0.01740185
v 0.00001215 -0.08866073 -0.01697131
v 0.00001215 -0.08867803 -0.01690682
v -0.12534578 -0.08878668 -0.01718150
v -0.12374518 -0.08871965 -0.01742305
v -0.13657688 -0.08879072 -0.01687726
v -0.13554119 -0.08878815 -0.01699131
v -0.13716870 -0.08872812 -0.01672946
v -0.13738391 -0.08867435 -0.01672827
v 0.00001215 -0.08747966 -0.01778701
v -0.00546217 -0.08758756 -0.01825399
v 0.00001215 -0.08753600 -0.01779388
v 0.00001215 -0.08768847 -0.01781030
v -0.06682299 -0.08738943 -0.01828563
v -0.13738391 -0.08703551 -0.01812201
v -0.02668693 -0.08870896 -0.01760488
v 0.00001215 -0.08853367 -0.01729347
v 0.00001215 -0.08858780 -0.01716359
v -0.12444460 -0.08862794 -0.01756726
v -0.13466692 -0.08862463 -0.01731318
v -0.13641547 -0.08864636 -0.01719016
v -0.13738391 -0.08860695 -0.01695548
v -0.13738391 -0.08858891 -0.01700385
v -0.13738391 -0.08855798 -0.01708029
v -0.13720905 -0.08849647 -0.01730720
v -0.00512591 -0.08770836 -0.01821875
v -0.00562357 -0.08778349 -0.01822890
v -0.00600018 -0.08767411 -0.01824563
v 0.00001215 -0.08790759 -0.01777119
v -0.06635223 -0.08755184 -0.01826772
v -0.12106854 -0.08809984 -0.01813187
v -0.13738391 -0.08735739 -0.01805513
v -0.02566470 -0.08860511 -0.01768699
v -0.00519316 -0.08802360 -0.01806947
v 0.00001215 -0.08850347 -0.01734393
v -0.12049017 -0.08824604 -0.01805991
v -0.13391370 -0.08850936 -0.01746694
v -0.13451897 -0.08841913 -0.01755204
v -0.13700730 -0.08836316 -0.01748963
v -0.13738391 -0.08845928 -0.01730840
v -0.13738391 -0.08842724 -0.01734841
v -0.13738391 -0.08836316 -0.01742275
v -0.00519316 -0.08787371 -0.01819308
v 0.00001215 -0.08806043 -0.01774133
v -0.13707455 -0.08787334 -0.01789958
v -0.13726285 -0.08751354 -0.01801124
v -0.13738391 -0.08744651 -0.01802856
v -0.02598751 -0.08851636 -0.01775298
v 0.00001215 -0.08824752 -0.01765265
v -0.13708799 -0.08816060 -0.01767565
v -0.13738391 -0.08824567 -0.01755084
v -0.13738391 -0.08816355 -0.01763146
v 0.00001215 -0.08822395 -0.01766758
v -0.13738391 -0.08804828 -0.01773536
v -0.13738391 -0.08789250 -0.01785599
v -0.13738391 -0.08780706 -0.01791391
v -0.13738391 -0.08749328 -0.01801453
f 1 2 3
f 1 3 4
f 1 4 5
f 1 5 2
f 2 6 3
f 2 5 6
f 3 6 7
f 3 7 8
f 3 8 9
f 3 9 10
f 3 10 11
f 3 11 12
f 3 12 13
f 3 13 14
f 3 14 15
f 3 15 16
f 3 16 17
f 3 17 4
f 4 18 5
f 4 17 18
f 5 19 38
f 5 38 55
f 5 55 54
f 5 54 73
f 5 73 72
f 5 72 88
f 5 88 105
f 5 105 120
f 5 120 130
f 5 130 129
f 5 129 128
f 5 128 127
f 5 127 125
f 5 125 124
f 5 124 115
f 5 115 114
f 5 114 113
f 5 113 97
f 5 97 96
f 5 96 95
f 5 95 82
f 5 82 64
f 5 64 61
f 5 61 42
f 5 42 24
f 5 24 21
f 5 21 20
f 5 20 6
f 5 18 19
f 6 20 21
f 6 21 7
f 7 21 8
f 8 21 24
f 8 24 9
f 9 22 23
f 9 23 10
f 9 24 25
f 9 25 26
f 9 26 27
f 9 27 28
f 9 28 22
f 10 23 11
f 11 23 12
f 12 23 29
f 12 29 13
f 13 29 30
f 13 30 14
f 14 30 45
f 14 45 59
f 14 59 58
f 14 58 76
f 14 76 75
f 14 75 91
f 14 91 90
f 14 90 108
f 14 108 122
f 14 122 126
f 14 126 117
f 14 117 102
f 14 102 86
f 14 86 85
f 14 85 83
f 14 83 68
f 14 68 66
f 14 66 48
f 14 48 49
f 14 49 34
f 14 34 31
f 14 31 15
f 15 31 16
f 16 32 33
f 16 33 17
f 16 31 34
f 16 34 35
f 16 35 32
f 17 33 18
f 18 33 36
f 18 36 37
f 18 37 19
f 19 37 38
f 22 28 39
f 22 39 23
f 23 40 29
f 23 39 41
f 23 41 40
f 24 42 25
f 25 43 44
f 25 44 26
f 25 42 43
f 26 44 27
f 27 44 28
f 28 44 39
f 29 40 45
f 29 45 30
f 32 46 47
f 32 47 36
f 32 36 33
f 32 35 48
f 32 48 46
f 34 49 35
f 35 49 48
f 36 47 37
f 37 47 50
f 37 50 51
f 37 51 52
f 37 52 53
f 37 53 54
f 37 54 55
f 37 55 38
f 39 44 43
f 39 43 56
f 39 56 40
f 39 40 41
f 40 57 58
f 40 58 59
f 40 59 45
f 40 56 60
f 40 60 57
f 42 61 62
f 42 62 43
f 43 63 56
f 43 62 64
f 43 64 63
f 46 65 47
f 46 48 66
f 46 66 65
f 47 65 50
f 50 65 51
f 51 65 67
f 51 67 68
f 51 68 69
f 51 69 70
f 51 70 71
f 51 71 53
f 51 53 52
f 53 71 72
f 53 72 73
f 53 73 54
f 56 63 60
f 57 74 75
f 57 75 76
f 57 76 58
f 57 60 77
f 57 77 78
f 57 78 74
f 60 63 79
f 60 79 80
f 60 80 78
f 60 78 77
f 61 64 62
f 63 81 79
f 63 64 81
f 64 82 81
f 65 66 67
f 66 68 67
f 68 83 69
f 69 84 70
f 69 83 85
f 69 85 86
f 69 86 84
f 70 84 87
f 70 87 71
f 71 87 88
f 71 88 72
f 74 78 89
f 74 89 90
f 74 90 91
f 74 91 75
f 78 92 89
f 78 80 93
f 78 93 92
f 79 94 80
f 79 81 95
f 79 95 96
f 79 96 97
f 79 97 98
f 79 98 94
f 80 94 93
f 81 82 95
f 84 99 100
f 84 100 101
f 84 101 87
f 84 86 99
f 86 102 99
f 87 101 103
f 87 103 104
f 87 104 88
f 88 104 105
f 89 106 107
f 89 107 108
f 89 108 90
f 89 92 109
f 89 109 106
f 92 93 110
f 92 110 111
f 92 111 109
f 93 94 112
f 93 112 111
f 93 111 110
f 94 98 112
f 97 113 98
f 98 113 114
f 98 114 115
f 98 115 112
f 99 116 100
f 99 102 116
f 100 116 104
f 100 104 103
f 100 103 101
f 102 117 116
f 104 116 109
f 104 109 118
f 104 118 119
f 104 119 105
f 105 119 120
f 106 109 121
f 106 121 116
f 106 116 107
f 107 116 122
f 107 122 108
f 109 116 121
f 109 111 118
f 111 112 123
f 111 123 118
f 112 115 124
f 112 124 125
f 112 125 123
f 116 117 126
f 116 126 122
f 118 123 127
f 118 127 128
f 118 128 129
f 118 129 119
f 119 129 130
f 119 130 120
f 123 125 127

