# https://github.com/mikedh/trimesh
v 0.15079089 -0.08487928 0.01665282
v 0.15079089 -0.08484419 0.01694874
v 0.15079089 -0.08483156 0.01566196
v 0.15155387 -0.08395148 0.01486392
v 0.15222749 -0.08327633 0.01636226
v 0.15173335 -0.08376619 0.01699627
v 0.15079089 -0.08476419 0.01708532
v 0.15079089 -0.08476699 0.01507615
v 0.15130906 -0.08408482 0.01392796
v 0.15224626 -0.08298858 0.01369899
v 0.15261949 -0.08268399 0.01447695
v 0.15304679 -0.08228536 0.01588089
v 0.15311588 -0.08211412 0.01692062
v 0.15223049 -0.08301806 0.01732500
v 0.15079089 -0.08466032 0.01723261
v 0.15079089 -0.08468418 0.01442941
v 0.15079089 -0.08456347 0.01382351
v 0.15079089 -0.08451854 0.01371104
v 0.15136162 -0.08382515 0.01341914
v 0.15283126 -0.08213377 0.01341177
v 0.15335018 -0.08162144 0.01384695
v 0.15395020 -0.08101647 0.01511632
v 0.15420628 -0.08070767 0.01616676
v 0.15406135 -0.08081435 0.01687175
v 0.15373617 -0.08100945 0.01739597
v 0.15173561 -0.08266996 0.01805542
v 0.15079089 -0.08454381 0.01736383
v 0.15307458 -0.08130001 0.01792018
v 0.15079089 -0.08435993 0.01343253
v 0.15158391 -0.08321878 0.01314397
v 0.15079089 -0.08423502 0.01330532
v 0.15293339 -0.08156670 0.01311117
v 0.15399977 -0.08029922 0.01319887
v 0.15406960 -0.08048449 0.01348073
v 0.15459603 -0.07989918 0.01386569
v 0.15520807 -0.07920297 0.01501522
v 0.15506012 -0.07942755 0.01611253
v 0.15532146 -0.07882960 0.01674722
v 0.15444509 -0.07995111 0.01740467
v 0.15392167 -0.08037080 0.01774410
v 0.15126175 -0.08282296 0.01820070
v 0.15079089 -0.08384200 0.01791817
v 0.15079089 -0.08403850 0.01777892
v 0.15228306 -0.08171829 0.01820338
v 0.15336970 -0.08061503 0.01806680
v 0.15079089 -0.08399639 0.01313527
v 0.15079089 -0.08130843 0.01158002
v 0.15097563 -0.08109367 0.01158002
v 0.15134285 -0.08066556 0.01158002
v 0.15200520 -0.07978969 0.01158002
v 0.15255265 -0.07900927 0.01158002
v 0.15481381 -0.07885768 0.01316473
v 0.15558280 -0.07813480 0.01353630
v 0.15555576 -0.07838044 0.01384829
v 0.15528917 -0.07896014 0.01432564
v 0.15636530 -0.07701751 0.01439393
v 0.15592975 -0.07793408 0.01555953
v 0.15632700 -0.07712980 0.01604759
v 0.15526665 -0.07867240 0.01725336
v 0.15600109 -0.07742456 0.01707394
v 0.15585840 -0.07717753 0.01762359
v 0.15443607 -0.07906682 0.01796370
v 0.15122645 -0.08232185 0.01831854
v 0.15079089 -0.08280331 0.01828372
v 0.15079089 -0.08340265 0.01813308
v 0.15079089 -0.08352758 0.01807283
v 0.15352591 -0.08000726 0.01816991
v 0.15272238 -0.08059819 0.01829845
v 0.15079089 -0.07769406 0.01158002
v 0.15580734 -0.07054113 0.01157935
v 0.15329836 -0.07772494 0.01158002
v 0.15424908 -0.07599566 0.01158002
v 0.15596579 -0.07691224 0.01331135
v 0.15696232 -0.07536262 0.01372711
v 0.15634878 -0.07687434 0.01392260
v 0.15735508 -0.07487977 0.01472332
v 0.15677157 -0.07625112 0.01507682
v 0.15686244 -0.07591706 0.01625112
v 0.15621886 -0.07663572 0.01749304
v 0.15654854 -0.07620060 0.01717034
v 0.15672426 -0.07502856 0.01769791
v 0.15618883 -0.07589600 0.01785390
v 0.15475824 -0.07796076 0.01811032
v 0.15079089 -0.08262364 0.01831854
v 0.15079089 -0.08267978 0.01830916
v 0.15110554 -0.08169723 0.01841896
v 0.15436248 -0.07732631 0.01833059
v 0.15079089 -0.07793408 0.01652695
v 0.15370088 -0.07054113 0.01158002
v 0.15781392 -0.07054113 0.01312991
v 0.15570070 -0.07144226 0.01158002
v 0.15543035 -0.07264097 0.01158002
v 0.15492270 -0.07430568 0.01158002
v 0.15475974 -0.07480117 0.01158002
v 0.15434671 -0.07576827 0.01158002
v 0.15636155 -0.07501452 0.01299534
v 0.15725895 -0.07388740 0.01340374
v 0.15781016 -0.07298907 0.01384159
v 0.15781992 -0.07360387 0.01473604
v 0.15755333 -0.07437306 0.01569209
v 0.15720263 -0.07495276 0.01660261
v 0.15693829 -0.07501592 0.01737119
v 0.15738662 -0.07310838 0.01763966
v 0.15703216 -0.07338630 0.01790077
v 0.15606041 -0.07525454 0.01806145
v 0.15570821 -0.07521243 0.01819334
v 0.15079089 -0.08195269 0.01841293
v 0.15079089 -0.08187269 0.01841160
v 0.15390139 -0.07660905 0.01838816
v 0.15611974 -0.07054113 0.01834331
v 0.15664316 -0.07273361 0.01818129
v 0.15644716 -0.07188300 0.01829577
v 0.15079089 -0.07805058 0.01698422
v 0.15386834 -0.07054113 0.01604625
v 0.15385483 -0.07054113 0.01585478
v 0.15817964 -0.07054113 0.01351621
v 0.15818113 -0.07066184 0.01353630
v 0.15768249 -0.07117276 0.01308974
v 0.15694205 -0.07262272 0.01280454
v 0.15763744 -0.07284169 0.01349211
v 0.15808201 -0.07247674 0.01433166
v 0.15822995 -0.07120224 0.01388645
v 0.15809403 -0.07267746 0.01518996
v 0.15805798 -0.07260588 0.01589562
v 0.15761641 -0.07377792 0.01658319
v 0.15752104 -0.07336665 0.01725403
v 0.15788300 -0.07159105 0.01738860
v 0.15773131 -0.07116575 0.01775281
v 0.15755333 -0.07054113 0.01795299
v 0.15746396 -0.07054113 0.01801057
v 0.15079089 -0.08070907 0.01834130
v 0.15578256 -0.07054113 0.01832657
v 0.15571722 -0.07176229 0.01835201
v 0.15646744 -0.07054113 0.01831720
v 0.15742266 -0.07054113 0.01803199
v 0.15735658 -0.07054113 0.01805475
v 0.15678435 -0.07054113 0.01825092
v 0.15669123 -0.07054113 0.01827903
v 0.15079089 -0.07809831 0.01717101
v 0.15398099 -0.07054113 0.01689049
v 0.15819766 -0.07054113 0.01354299
v 0.15829829 -0.07161631 0.01458072
v 0.15827876 -0.07054113 0.01379941
v 0.15832532 -0.07054113 0.01396009
v 0.15836137 -0.07116294 0.01550865
v 0.15799640 -0.07205706 0.01678873
v 0.15838990 -0.07054113 0.01601010
v 0.15834936 -0.07054113 0.01627187
v 0.15831932 -0.07054113 0.01644394
v 0.15817288 -0.07054113 0.01699426
v 0.15809477 -0.07054113 0.01724332
v 0.15796486 -0.07054113 0.01753053
v 0.15789202 -0.07054113 0.01765104
v 0.15775985 -0.07054113 0.01779365
v 0.15079089 -0.08018412 0.01827167
v 0.15534399 -0.07054113 0.01824556
v 0.15532672 -0.07054113 0.01824087
v 0.15079089 -0.07828078 0.01744819
v 0.15399901 -0.07054113 0.01698088
v 0.15839141 -0.07054113 0.01434372
v 0.15845899 -0.07054113 0.01489204
v 0.15845749 -0.07059166 0.01492819
v 0.15846275 -0.07054113 0.01495296
v 0.15842971 -0.07054113 0.01556622
v 0.15079089 -0.08010832 0.01825694
v 0.15487839 -0.07054113 0.01804002
v 0.15079089 -0.07855590 0.01765774
v 0.15418225 -0.07054113 0.01750108
v 0.15413193 -0.07054113 0.01739463
v 0.15846200 -0.07054113 0.01492417
v 0.15079089 -0.07950616 0.01809626
v 0.15456899 -0.07054113 0.01788068
v 0.15079089 -0.07887452 0.01781775
v 0.15431893 -0.07054113 0.01769858
v 0.15079089 -0.07929140 0.01801860
f 1 2 7
f 1 7 15
f 1 15 27
f 1 27 43
f 1 43 42
f 1 42 66
f 1 66 65
f 1 65 64
f 1 64 85
f 1 85 84
f 1 84 107
f 1 107 108
f 1 108 131
f 1 131 155
f 1 155 165
f 1 165 171
f 1 171 175
f 1 175 173
f 1 173 167
f 1 167 158
f 1 158 139
f 1 139 113
f 1 113 88
f 1 88 69
f 1 69 47
f 1 47 46
f 1 46 31
f 1 31 29
f 1 29 18
f 1 18 17
f 1 17 16
f 1 16 8
f 1 8 3
f 1 3 4
f 1 4 5
f 1 5 6
f 1 6 2
f 2 6 7
f 3 8 4
f 4 8 9
f 4 9 10
f 4 10 11
f 4 11 5
f 5 11 12
f 5 12 13
f 5 13 6
f 6 13 14
f 6 14 7
f 7 14 15
f 8 16 9
f 9 16 17
f 9 17 18
f 9 18 19
f 9 19 10
f 10 19 20
f 10 20 21
f 10 21 11
f 11 21 22
f 11 22 12
f 12 22 23
f 12 23 13
f 13 23 24
f 13 24 25
f 13 25 14
f 14 26 27
f 14 27 15
f 14 25 28
f 14 28 26
f 18 29 19
f 19 30 20
f 19 29 31
f 19 31 30
f 20 32 33
f 20 33 34
f 20 34 21
f 20 30 32
f 21 34 35
f 21 35 22
f 22 35 36
f 22 36 23
f 23 36 37
f 23 37 24
f 24 37 38
f 24 38 39
f 24 39 25
f 25 39 40
f 25 40 28
f 26 41 42
f 26 42 43
f 26 43 27
f 26 28 44
f 26 44 41
f 28 40 45
f 28 45 44
f 30 31 46
f 30 46 47
f 30 47 48
f 30 48 49
f 30 49 32
f 32 49 50
f 32 50 33
f 33 50 51
f 33 51 52
f 33 52 53
f 33 53 34
f 34 53 54
f 34 54 35
f 35 54 55
f 35 55 36
f 36 55 56
f 36 56 57
f 36 57 37
f 37 57 58
f 37 58 38
f 38 59 39
f 38 58 60
f 38 60 59
f 39 59 61
f 39 61 40
f 40 61 62
f 40 62 45
f 41 44 63
f 41 63 64
f 41 64 65
f 41 65 66
f 41 66 42
f 44 45 67
f 44 67 68
f 44 68 63
f 45 62 67
f 47 69 70
f 47 70 48
f 48 70 49
f 49 70 50
f 50 70 51
f 51 70 71
f 51 71 52
f 52 71 72
f 52 72 73
f 52 73 53
f 53 73 74
f 53 74 75
f 53 75 54
f 54 75 56
f 54 56 55
f 56 75 76
f 56 76 77
f 56 77 57
f 57 77 58
f 58 77 78
f 58 78 60
f 59 60 79
f 59 79 61
f 60 78 80
f 60 80 79
f 61 79 81
f 61 81 82
f 61 82 62
f 62 82 83
f 62 83 67
f 63 84 85
f 63 85 64
f 63 68 86
f 63 86 84
f 67 83 87
f 67 87 68
f 68 87 86
f 69 88 89
f 69 89 70
f 70 89 115
f 70 115 114
f 70 114 140
f 70 140 159
f 70 159 169
f 70 169 168
f 70 168 174
f 70 174 172
f 70 172 166
f 70 166 157
f 70 157 156
f 70 156 132
f 70 132 110
f 70 110 134
f 70 134 138
f 70 138 137
f 70 137 136
f 70 136 135
f 70 135 130
f 70 130 129
f 70 129 154
f 70 154 153
f 70 153 152
f 70 152 151
f 70 151 150
f 70 150 149
f 70 149 148
f 70 148 147
f 70 147 164
f 70 164 163
f 70 163 170
f 70 170 161
f 70 161 160
f 70 160 144
f 70 144 143
f 70 143 141
f 70 141 116
f 70 116 90
f 70 90 91
f 70 91 92
f 70 92 93
f 70 93 94
f 70 94 95
f 70 95 72
f 70 72 71
f 72 95 73
f 73 95 94
f 73 94 96
f 73 96 97
f 73 97 74
f 74 97 98
f 74 98 99
f 74 99 76
f 74 76 75
f 76 99 100
f 76 100 77
f 77 100 78
f 78 100 101
f 78 101 80
f 79 80 102
f 79 102 81
f 80 101 102
f 81 102 103
f 81 103 104
f 81 104 82
f 82 104 105
f 82 105 83
f 83 105 106
f 83 106 87
f 84 86 107
f 86 108 107
f 86 87 109
f 86 109 110
f 86 110 108
f 87 106 111
f 87 111 112
f 87 112 109
f 88 113 114
f 88 114 115
f 88 115 89
f 90 116 117
f 90 117 118
f 90 118 91
f 91 118 92
f 92 119 93
f 92 118 119
f 93 97 94
f 93 119 97
f 94 97 96
f 97 119 118
f 97 118 120
f 97 120 98
f 98 121 99
f 98 120 117
f 98 117 122
f 98 122 121
f 99 121 123
f 99 123 100
f 100 123 124
f 100 124 125
f 100 125 101
f 101 125 102
f 102 125 126
f 102 126 103
f 103 126 127
f 103 127 128
f 103 128 104
f 104 128 129
f 104 129 130
f 104 130 111
f 104 111 105
f 105 111 106
f 108 110 132
f 108 132 131
f 109 112 133
f 109 133 110
f 110 133 112
f 110 112 134
f 111 130 135
f 111 135 112
f 112 135 136
f 112 136 137
f 112 137 138
f 112 138 134
f 113 139 114
f 114 139 140
f 116 141 117
f 117 120 118
f 117 141 122
f 121 142 123
f 121 122 142
f 122 141 143
f 122 143 144
f 122 144 142
f 123 142 145
f 123 145 124
f 124 146 125
f 124 145 147
f 124 147 148
f 124 148 149
f 124 149 146
f 125 146 126
f 126 146 127
f 127 150 151
f 127 151 152
f 127 152 128
f 127 146 150
f 128 152 153
f 128 153 154
f 128 154 129
f 131 132 156
f 131 156 157
f 131 157 155
f 139 158 159
f 139 159 140
f 142 144 160
f 142 160 161
f 142 161 162
f 142 162 145
f 145 162 163
f 145 163 164
f 145 164 147
f 146 149 150
f 155 157 165
f 157 166 165
f 158 167 168
f 158 168 169
f 158 169 159
f 161 170 162
f 162 170 163
f 165 166 172
f 165 172 171
f 167 173 174
f 167 174 168
f 171 172 174
f 171 174 175
f 173 175 174

