# https://github.com/mikedh/trimesh
v -0.13612715 -0.08910998 0.01024253
v -0.13612715 -0.08704753 0.01024253
v -0.13583392 -0.08913206 0.01024253
v -0.13527410 -0.09119126 0.01216836
v -0.13612715 -0.09119775 0.01226828
v -0.08525146 -0.08629684 0.01024253
v -0.13612715 -0.08712611 0.01487734
v -0.03554871 -0.08540199 0.01484709
v -0.03630844 -0.08541237 0.01465570
v -0.03542875 -0.08541043 0.01423845
v -0.13475429 -0.08916258 0.01024253
v -0.13455436 -0.09134711 0.01227391
v -0.13540739 -0.09143153 0.01244771
v -0.13612715 -0.09127114 0.01234990
v -0.05714122 -0.08598319 0.01024253
v -0.03613517 -0.08544550 0.01381556
v -0.13612715 -0.08712740 0.01492800
v -0.03509553 -0.08541952 0.01518624
v -0.01395620 -0.08543316 0.01558379
v -0.01274329 -0.08543316 0.01557394
v -0.01358299 -0.08540978 0.01484076
v -0.03633510 -0.08542991 0.01527067
v -0.00690531 -0.08559226 0.01024253
v -0.00729184 -0.08559226 0.01024253
v -0.13379462 -0.08918206 0.01024253
v -0.13262170 -0.09126854 0.01218947
v -0.12966272 -0.09138608 0.01229854
v -0.13362134 -0.09147959 0.01243926
v -0.13490090 -0.09155686 0.01261517
v -0.13606051 -0.09149972 0.01267287
v -0.13612715 -0.09148543 0.01266583
v -0.02336627 -0.08570265 0.01024253
v -0.13612715 -0.08720338 0.01546558
v -0.03576197 -0.08546368 0.01562671
v -0.01286325 -0.08547342 0.01583288
v 0.00001229 -0.08547536 0.01564078
v 0.00001229 -0.08545069 0.01536637
v 0.00001229 -0.08543835 0.01504903
v 0.00001229 -0.08543965 0.01472677
v 0.00001229 -0.08544809 0.01420749
v -0.00514592 -0.08561109 0.01024253
v 0.00001229 -0.08552926 0.01256732
v -0.13267501 -0.08917751 0.01024253
v -0.12888966 -0.09105359 0.01199246
v -0.13071569 -0.09116853 0.01209308
v -0.12856977 -0.09168545 0.01284174
v -0.12974269 -0.09158284 0.01264120
v -0.12827653 -0.09126140 0.01219229
v -0.03477564 -0.08839695 0.01024253
v -0.00545248 -0.08995613 0.01214514
v -0.00575905 -0.09015029 0.01243504
v -0.13571395 -0.09164518 0.01292547
v -0.13452770 -0.09170103 0.01293391
v -0.13612715 -0.09149777 0.01269398
v -0.13612715 -0.08721443 0.01552187
v -0.03540209 -0.08550978 0.01582865
v -0.01355634 -0.08555264 0.01604889
v -0.00250684 -0.08566304 0.01638030
v 0.00001229 -0.08564226 0.01630923
v 0.00001229 -0.08553381 0.01594827
v 0.00001229 -0.08552278 0.01590535
v 0.00001229 -0.08547861 0.01566049
v 0.00001229 -0.08568902 0.01039170
v 0.00001229 -0.08570525 0.01024253
v -0.12872971 -0.09186337 0.01328080
v -0.00064082 -0.08795602 0.01024253
v 0.00001229 -0.08978339 0.01220073
v 0.00001229 -0.08996976 0.01240760
v -0.00491934 -0.09002561 0.01226265
v 0.00001229 -0.09001977 0.01249344
v 0.00001229 -0.09009705 0.01267850
v -0.00543916 -0.09023082 0.01265528
v -0.13523413 -0.09175038 0.01320411
v -0.13612715 -0.09165946 0.01316048
v -0.13612715 -0.09165557 0.01314430
v -0.13416782 -0.09183026 0.01334906
v -0.13612715 -0.08737222 0.01593209
v -0.08675761 -0.08650334 0.01601230
v -0.03701487 -0.08558576 0.01597782
v -0.03660168 -0.08566434 0.01616569
v -0.03508220 -0.08563122 0.01611011
v -0.01963423 -0.08579421 0.01654002
v -0.00377307 -0.08569745 0.01643800
v -0.00205366 -0.08578123 0.01659420
v 0.00001229 -0.08573901 0.01652103
v 0.00001229 -0.08791900 0.01024253
v -0.12799664 -0.09197962 0.01377194
v 0.00001229 -0.09020354 0.01301905
v -0.00554578 -0.09030615 0.01296698
v -0.13563398 -0.09177505 0.01376772
v -0.13612715 -0.09166271 0.01319215
v -0.13318150 -0.09190104 0.01390493
v -0.13446106 -0.09186273 0.01415260
v -0.12779671 -0.09202637 0.01420397
v -0.13612715 -0.08737872 0.01594757
v -0.07590804 -0.08646828 0.01635849
v -0.03653503 -0.08587994 0.01646474
v -0.03532212 -0.08572278 0.01627335
v -0.02039397 -0.08589292 0.01667301
v 0.00001229 -0.08591046 0.01680670
v 0.00001229 -0.08580786 0.01664205
v 0.00001229 -0.09020744 0.01303876
v 0.00001229 -0.09023212 0.01331317
v -0.00030760 -0.09023796 0.01331599
v -0.00635884 -0.09033407 0.01322522
v -0.13603384 -0.09174064 0.01459308
v -0.13612715 -0.09173090 0.01404213
v -0.13612715 -0.09171726 0.01378179
v -0.13372798 -0.09189260 0.01432570
v -0.12762343 -0.09203611 0.01461700
v -0.13474096 -0.09181727 0.01476758
v -0.00529254 -0.09032887 0.01345812
v -0.13612715 -0.08753197 0.01623324
v -0.07696101 -0.08655075 0.01644081
v -0.03584194 -0.08608124 0.01669412
v -0.07613463 -0.08666440 0.01659913
v -0.02792469 -0.08604098 0.01674408
v -0.01978084 -0.08603643 0.01682922
v 0.00001229 -0.08605916 0.01696220
v 0.00001229 -0.09023991 0.01352567
v -0.00026761 -0.09024770 0.01360096
v -0.13612715 -0.09167245 0.01505114
v -0.13612715 -0.09171792 0.01470847
v -0.13612715 -0.09172765 0.01459941
v -0.13612715 -0.09173155 0.01449457
v -0.13398122 -0.09181857 0.01508421
v -0.12695699 -0.09199975 0.01485131
v -0.12762343 -0.09196468 0.01502511
v -0.00625221 -0.09034251 0.01356437
v -0.00599896 -0.09031329 0.01395488
v 0.00001229 -0.09018147 0.01441717
v -0.13586057 -0.09164064 0.01541914
v -0.13612715 -0.08771510 0.01646544
v -0.13474096 -0.08768847 0.01647107
v -0.04951719 -0.08650724 0.01685033
v -0.03508220 -0.08632087 0.01689043
v -0.06504514 -0.08670141 0.01679826
v -0.07756080 -0.08673063 0.01663220
v -0.01974086 -0.08618579 0.01693406
v -0.01038411 -0.08630333 0.01709167
v -0.00942444 -0.08616372 0.01699246
v 0.00001229 -0.08620658 0.01706845
v 0.00001229 -0.09024121 0.01359955
v 0.00001229 -0.09023991 0.01367202
v -0.13612715 -0.09163739 0.01529882
v -0.13340809 -0.09177246 0.01537200
v -0.13494089 -0.09163803 0.01565697
v -0.12673040 -0.09191402 0.01523690
v 0.00001229 -0.09017822 0.01444320
v 0.00001229 -0.09006328 0.01519327
v 0.00001229 -0.08998665 0.01557535
v -0.13316817 -0.09169454 0.01567597
v -0.13603384 -0.09152244 0.01585258
v -0.13612715 -0.09152050 0.01582795
v -0.13612715 -0.09160492 0.01547191
v -0.13612715 -0.08790537 0.01663502
v -0.04886409 -0.08669621 0.01696361
v -0.03458904 -0.08654426 0.01701146
v -0.01137043 -0.08647672 0.01718244
v -0.07690769 -0.08687090 0.01675393
v -0.09394178 -0.08739495 0.01684892
v -0.06404549 -0.08686895 0.01689676
v -0.00889129 -0.08632542 0.01711348
v 0.00001229 -0.08629943 0.01712615
v -0.13499420 -0.09149453 0.01609885
v -0.11677386 -0.09165232 0.01558238
v -0.12674374 -0.09176337 0.01559997
v -0.12737018 -0.09186078 0.01536426
v 0.00001229 -0.08992366 0.01585469
v 0.00001229 -0.08984313 0.01613192
v 0.00001229 -0.08976132 0.01638945
v -0.13342141 -0.09152244 0.01611503
v -0.13586057 -0.09141010 0.01615514
v -0.13612715 -0.09141141 0.01610377
v -0.13612715 -0.09150751 0.01587157
v -0.13612715 -0.08793004 0.01665261
v -0.04793108 -0.08691506 0.01705297
v -0.07857378 -0.08723715 0.01692069
v -0.12450451 -0.08820928 0.01690591
v -0.01058404 -0.08664361 0.01724717
v 0.00001229 -0.08668907 0.01728939
v 0.00001229 -0.08652867 0.01722888
v -0.13470097 -0.08807551 0.01674689
v -0.13612715 -0.08826513 0.01682218
v -0.13412783 -0.09142893 0.01627194
v -0.11573422 -0.09158349 0.01570904
v -0.11636068 -0.09152050 0.01586876
v -0.00076078 -0.08971131 0.01653228
v -0.12597067 -0.09164843 0.01580051
v 0.00001229 -0.08967819 0.01654284
v -0.13492757 -0.09129451 0.01639437
v -0.13612715 -0.09124581 0.01632120
v -0.13612715 -0.09133738 0.01621143
v -0.13612715 -0.08846254 0.01688973
v -0.12374477 -0.08839175 0.01696361
v -0.01133044 -0.08702935 0.01734639
v 0.00001229 -0.08675400 0.01730980
v -0.13338143 -0.09125101 0.01645348
v -0.11206882 -0.09128996 0.01612136
v -0.00152051 -0.08962299 0.01671101
v 0.00001229 -0.08960676 0.01665753
v -0.13612715 -0.09098281 0.01652595
v -0.13400788 -0.09109515 0.01654776
v -0.13612715 -0.08849436 0.01689747
v -0.13612715 -0.08879957 0.01696431
v -0.12166549 -0.08881776 0.01706704
v -0.01334308 -0.08724299 0.01736257
v 0.00001229 -0.08711442 0.01738720
v -0.13234179 -0.09104255 0.01659209
v 0.00001229 -0.08949701 0.01680178
v -0.00502597 -0.08909570 0.01715500
v 0.00001229 -0.08958403 0.01669271
v -0.13612715 -0.09072760 0.01664838
v -0.13294159 -0.09083539 0.01669271
v -0.13612715 -0.09030095 0.01683977
v -0.13612715 -0.08915414 0.01699598
v -0.13612715 -0.08968534 0.01700864
v -0.12167882 -0.08935934 0.01707478
v -0.01115717 -0.08760990 0.01740268
v 0.00001229 -0.08760924 0.01743082
v 0.00001229 -0.08938272 0.01688551
v -0.00345318 -0.08910608 0.01712404
v -0.00378640 -0.08892815 0.01721621
v -0.00466609 -0.08871321 0.01730769
v -0.00557244 -0.08888659 0.01724154
v -0.12462448 -0.09045746 0.01682077
v -0.12325161 -0.09011328 0.01693124
v -0.13612715 -0.08999119 0.01695306
v -0.13612715 -0.08995158 0.01696291
v -0.12193207 -0.08965806 0.01704171
v -0.00415960 -0.08814175 0.01741464
v -0.00168046 -0.08791641 0.01742801
v -0.00198702 -0.08767223 0.01742801
v 0.00001229 -0.08772808 0.01743012
v 0.00001229 -0.08925609 0.01696572
v 0.00001229 -0.08910608 0.01705016
v 0.00001229 -0.08900478 0.01709941
v 0.00001229 -0.08875477 0.01721199
v 0.00001229 -0.08856839 0.01728095
v 0.00001229 -0.08840150 0.01733231
v 0.00001229 -0.08821058 0.01738157
v -0.00418626 -0.08837098 0.01738649
v 0.00001229 -0.08796901 0.01741534
v 0.00001229 -0.08808915 0.01739986
f 1 2 6
f 1 6 15
f 1 15 32
f 1 32 24
f 1 24 23
f 1 23 41
f 1 41 64
f 1 64 86
f 1 86 66
f 1 66 49
f 1 49 43
f 1 43 25
f 1 25 11
f 1 11 3
f 1 3 4
f 1 4 5
f 1 5 14
f 1 14 31
f 1 31 54
f 1 54 75
f 1 75 74
f 1 74 91
f 1 91 108
f 1 108 107
f 1 107 125
f 1 125 124
f 1 124 123
f 1 123 122
f 1 122 145
f 1 145 155
f 1 155 154
f 1 154 175
f 1 175 174
f 1 174 193
f 1 193 192
f 1 192 202
f 1 202 213
f 1 213 215
f 1 215 228
f 1 228 229
f 1 229 217
f 1 217 216
f 1 216 205
f 1 205 204
f 1 204 194
f 1 194 184
f 1 184 176
f 1 176 156
f 1 156 133
f 1 133 113
f 1 113 95
f 1 95 77
f 1 77 55
f 1 55 33
f 1 33 17
f 1 17 7
f 1 7 2
f 2 7 8
f 2 8 9
f 2 9 10
f 2 10 6
f 3 11 12
f 3 12 4
f 4 13 5
f 4 12 13
f 5 13 14
f 6 10 16
f 6 16 15
f 7 17 8
f 8 18 19
f 8 19 20
f 8 20 21
f 8 21 10
f 8 10 9
f 8 17 22
f 8 22 18
f 10 21 23
f 10 23 24
f 10 24 16
f 11 25 12
f 12 25 26
f 12 26 27
f 12 27 28
f 12 28 29
f 12 29 13
f 13 29 30
f 13 30 14
f 14 30 31
f 15 16 32
f 16 24 32
f 17 33 34
f 17 34 22
f 18 22 34
f 18 34 19
f 19 35 20
f 19 34 35
f 20 35 36
f 20 36 37
f 20 37 38
f 20 38 21
f 21 38 39
f 21 39 40
f 21 40 23
f 23 40 42
f 23 42 41
f 25 43 44
f 25 44 45
f 25 45 26
f 26 45 27
f 27 46 47
f 27 47 28
f 27 45 44
f 27 44 48
f 27 48 49
f 27 49 50
f 27 50 51
f 27 51 46
f 28 47 46
f 28 46 29
f 29 52 30
f 29 46 53
f 29 53 52
f 30 52 54
f 30 54 31
f 33 55 34
f 34 56 35
f 34 55 56
f 35 56 57
f 35 57 58
f 35 58 59
f 35 59 60
f 35 60 61
f 35 61 62
f 35 62 36
f 36 62 61
f 36 61 60
f 36 60 59
f 36 59 85
f 36 85 101
f 36 101 100
f 36 100 119
f 36 119 142
f 36 142 164
f 36 164 182
f 36 182 181
f 36 181 197
f 36 197 208
f 36 208 220
f 36 220 234
f 36 234 243
f 36 243 244
f 36 244 241
f 36 241 240
f 36 240 239
f 36 239 238
f 36 238 237
f 36 237 236
f 36 236 235
f 36 235 221
f 36 221 210
f 36 210 212
f 36 212 201
f 36 201 190
f 36 190 171
f 36 171 170
f 36 170 169
f 36 169 151
f 36 151 150
f 36 150 149
f 36 149 131
f 36 131 144
f 36 144 143
f 36 143 120
f 36 120 103
f 36 103 102
f 36 102 88
f 36 88 71
f 36 71 70
f 36 70 68
f 36 68 67
f 36 67 86
f 36 86 64
f 36 64 63
f 36 63 42
f 36 42 40
f 36 40 39
f 36 39 38
f 36 38 37
f 41 42 63
f 41 63 64
f 43 49 44
f 44 49 48
f 46 65 53
f 46 51 65
f 49 66 50
f 50 66 67
f 50 67 68
f 50 68 69
f 50 69 51
f 51 69 68
f 51 68 70
f 51 70 71
f 51 71 72
f 51 72 65
f 52 53 73
f 52 73 74
f 52 74 75
f 52 75 54
f 53 65 76
f 53 76 73
f 55 77 78
f 55 78 79
f 55 79 56
f 56 79 80
f 56 80 81
f 56 81 58
f 56 58 57
f 58 81 82
f 58 82 83
f 58 83 84
f 58 84 85
f 58 85 59
f 65 87 76
f 65 72 87
f 66 86 67
f 71 88 72
f 72 88 89
f 72 89 87
f 73 90 74
f 73 76 90
f 74 90 91
f 76 92 93
f 76 93 90
f 76 87 94
f 76 94 92
f 77 95 78
f 78 95 96
f 78 96 80
f 78 80 79
f 80 97 98
f 80 98 82
f 80 82 81
f 80 96 97
f 82 98 99
f 82 99 100
f 82 100 84
f 82 84 83
f 84 100 101
f 84 101 85
f 87 89 94
f 88 102 89
f 89 102 103
f 89 103 104
f 89 104 105
f 89 105 94
f 90 106 107
f 90 107 108
f 90 108 91
f 90 93 106
f 92 109 93
f 92 94 110
f 92 110 109
f 93 109 111
f 93 111 106
f 94 105 112
f 94 112 110
f 95 113 96
f 96 113 114
f 96 114 97
f 97 115 99
f 97 99 98
f 97 114 116
f 97 116 115
f 99 115 117
f 99 117 118
f 99 118 100
f 100 118 119
f 103 120 121
f 103 121 104
f 104 121 112
f 104 112 105
f 106 111 122
f 106 122 123
f 106 123 124
f 106 124 125
f 106 125 107
f 109 126 111
f 109 110 126
f 110 127 128
f 110 128 126
f 110 112 129
f 110 129 130
f 110 130 131
f 110 131 127
f 111 132 122
f 111 126 132
f 112 121 129
f 113 133 134
f 113 134 114
f 114 134 116
f 115 135 136
f 115 136 118
f 115 118 117
f 115 116 137
f 115 137 135
f 116 134 138
f 116 138 137
f 118 136 139
f 118 139 140
f 118 140 141
f 118 141 119
f 119 141 140
f 119 140 142
f 120 143 121
f 121 143 144
f 121 144 129
f 122 132 145
f 126 128 146
f 126 146 147
f 126 147 132
f 127 148 128
f 127 131 149
f 127 149 150
f 127 150 151
f 127 151 148
f 128 148 152
f 128 152 146
f 129 144 130
f 130 144 131
f 132 147 153
f 132 153 154
f 132 154 155
f 132 155 145
f 133 156 134
f 134 156 138
f 135 157 136
f 135 137 157
f 136 157 158
f 136 158 159
f 136 159 140
f 136 140 139
f 137 138 160
f 137 160 161
f 137 161 162
f 137 162 157
f 138 156 160
f 140 163 142
f 140 159 163
f 142 163 164
f 146 152 147
f 147 165 153
f 147 152 165
f 148 166 167
f 148 167 168
f 148 168 152
f 148 151 169
f 148 169 170
f 148 170 171
f 148 171 166
f 152 168 172
f 152 172 165
f 153 165 173
f 153 173 174
f 153 174 175
f 153 175 154
f 156 176 160
f 157 177 159
f 157 159 158
f 157 162 161
f 157 161 178
f 157 178 179
f 157 179 177
f 159 177 180
f 159 180 181
f 159 181 182
f 159 182 164
f 159 164 163
f 160 176 161
f 161 176 183
f 161 183 184
f 161 184 179
f 161 179 178
f 165 172 185
f 165 185 173
f 166 186 187
f 166 187 167
f 166 171 188
f 166 188 186
f 167 187 189
f 167 189 172
f 167 172 168
f 171 190 188
f 172 189 187
f 172 187 185
f 173 185 191
f 173 191 192
f 173 192 193
f 173 193 174
f 176 184 183
f 177 179 180
f 179 184 194
f 179 194 195
f 179 195 180
f 180 196 197
f 180 197 181
f 180 195 196
f 185 198 191
f 185 187 199
f 185 199 200
f 185 200 198
f 186 188 187
f 187 188 200
f 187 200 199
f 188 190 201
f 188 201 200
f 191 202 192
f 191 198 203
f 191 203 202
f 194 204 195
f 195 204 205
f 195 205 206
f 195 206 196
f 196 207 208
f 196 208 197
f 196 206 207
f 198 209 203
f 198 200 210
f 198 210 211
f 198 211 209
f 200 201 212
f 200 212 210
f 202 203 213
f 203 209 214
f 203 214 215
f 203 215 213
f 205 216 206
f 206 216 217
f 206 217 218
f 206 218 219
f 206 219 207
f 207 219 208
f 208 219 220
f 209 211 214
f 210 221 211
f 211 221 222
f 211 222 223
f 211 223 224
f 211 224 225
f 211 225 214
f 214 226 227
f 214 227 228
f 214 228 215
f 214 225 224
f 214 224 226
f 217 229 230
f 217 230 218
f 218 230 231
f 218 231 232
f 218 232 219
f 219 232 233
f 219 233 220
f 220 233 232
f 220 232 234
f 221 235 222
f 222 235 236
f 222 236 237
f 222 237 223
f 223 237 238
f 223 238 239
f 223 239 224
f 224 239 240
f 224 240 241
f 224 241 242
f 224 242 230
f 224 230 227
f 224 227 226
f 227 230 229
f 227 229 228
f 230 242 231
f 231 242 243
f 231 243 232
f 232 243 234
f 241 244 242
f 242 244 243

