# https://github.com/mikedh/trimesh
v 0.14349617 -0.08646791 -0.01552531
v 0.14349617 -0.08641957 -0.01420992
v 0.14349617 -0.08642736 -0.01578611
v 0.14438849 -0.08607029 -0.01549414
v 0.14349617 -0.08641333 -0.01411355
v 0.14416658 -0.08608900 -0.01411355
v 0.14349617 -0.08636343 -0.01609437
v 0.14372633 -0.08624961 -0.01612725
v 0.14534218 -0.08553389 -0.01570432
v 0.14588158 -0.08519864 -0.01503804
v 0.14563489 -0.08526725 -0.01411355
v 0.14349617 -0.08365650 -0.01411355
v 0.14349617 -0.08631977 -0.01617615
v 0.14458677 -0.08568046 -0.01626766
v 0.14524067 -0.08548087 -0.01602088
v 0.14628171 -0.08491329 -0.01570289
v 0.14694622 -0.08443771 -0.01510982
v 0.14620616 -0.08488834 -0.01411355
v 0.14349617 -0.08364402 -0.01431915
v 0.14690727 -0.07702015 -0.01411355
v 0.14349617 -0.08613889 -0.01636345
v 0.14349617 -0.08584887 -0.01658707
v 0.14599134 -0.08440964 -0.01649842
v 0.14603620 -0.08482753 -0.01615642
v 0.14695330 -0.08434571 -0.01582900
v 0.14787394 -0.08366586 -0.01546841
v 0.14672669 -0.08451255 -0.01411355
v 0.14774411 -0.08370016 -0.01411355
v 0.14742071 -0.08397304 -0.01411355
v 0.14349617 -0.08362220 -0.01519103
v 0.14738884 -0.07619685 -0.01411355
v 0.14349617 -0.08380619 -0.01617443
v 0.14349617 -0.08372199 -0.01598828
v 0.14349617 -0.08367209 -0.01579125
v 0.14349617 -0.08576154 -0.01662110
v 0.14702176 -0.08376409 -0.01640949
v 0.14351741 -0.08552921 -0.01670488
v 0.14804981 -0.08223286 -0.01668172
v 0.14851013 -0.08222663 -0.01654789
v 0.14793650 -0.08331813 -0.01612696
v 0.14799080 -0.08348809 -0.01577152
v 0.14933281 -0.08231707 -0.01517845
v 0.14830830 -0.08321834 -0.01411355
v 0.14775709 -0.07570567 -0.01411355
v 0.15343086 -0.07053973 -0.01627995
v 0.14349617 -0.08401669 -0.01644666
v 0.14349617 -0.08389039 -0.01633085
v 0.14349617 -0.08553545 -0.01670717
v 0.14917229 -0.08203639 -0.01625221
v 0.14920179 -0.08038510 -0.01683356
v 0.15034670 -0.07932011 -0.01684614
v 0.14955707 -0.08105560 -0.01661423
v 0.14349617 -0.08515187 -0.01677437
v 0.14900468 -0.08239971 -0.01603632
v 0.14963497 -0.08188046 -0.01582700
v 0.14902475 -0.08256032 -0.01411355
v 0.15051548 -0.08098543 -0.01560081
v 0.15075155 -0.08079052 -0.01480556
v 0.15001975 -0.08160915 -0.01440580
v 0.14936114 -0.08225002 -0.01411355
v 0.15187166 -0.07053973 -0.01411355
v 0.15357131 -0.07053973 -0.01639348
v 0.14349617 -0.08412896 -0.01653731
v 0.15009647 -0.08115383 -0.01619531
v 0.15002565 -0.07882425 -0.01696796
v 0.15053555 -0.07988145 -0.01662796
v 0.15243585 -0.07544838 -0.01690248
v 0.15138301 -0.07820833 -0.01672719
v 0.14349617 -0.08489146 -0.01675578
v 0.15012244 -0.07729614 -0.01701486
v 0.15069961 -0.07704042 -0.01703459
v 0.15090617 -0.08042409 -0.01586703
v 0.15151639 -0.07971460 -0.01562883
v 0.15100413 -0.08042876 -0.01411355
v 0.15081764 -0.08067669 -0.01411355
v 0.15064414 -0.08088096 -0.01411355
v 0.15006814 -0.08154054 -0.01411355
v 0.15191769 -0.07920940 -0.01480070
v 0.14992297 -0.08169335 -0.01411355
v 0.15528985 -0.07053973 -0.01411355
v 0.15392068 -0.07053973 -0.01659508
v 0.14349617 -0.08441743 -0.01667428
v 0.15095338 -0.07992667 -0.01630340
v 0.15121069 -0.07983467 -0.01610352
v 0.15174065 -0.07830033 -0.01648298
v 0.15259873 -0.07453776 -0.01687274
v 0.15444592 -0.07064264 -0.01663654
v 0.15451556 -0.07053973 -0.01662567
v 0.15472683 -0.07053973 -0.01658335
v 0.15401983 -0.07257617 -0.01666456
v 0.15381445 -0.07355073 -0.01666771
v 0.15350285 -0.07456582 -0.01663282
v 0.15263768 -0.07598478 -0.01672147
v 0.15141252 -0.07586471 -0.01698426
v 0.14349617 -0.08468251 -0.01673233
v 0.14926671 -0.07800874 -0.01693479
v 0.15013660 -0.07680029 -0.01691249
v 0.15225054 -0.07846717 -0.01585845
v 0.15268490 -0.07791363 -0.01522849
v 0.15180084 -0.07934817 -0.01411355
v 0.15203927 -0.07900357 -0.01411355
v 0.15257395 -0.07810386 -0.01411355
v 0.15554715 -0.07053973 -0.01499229
v 0.15555187 -0.07054285 -0.01411355
v 0.15443058 -0.07053973 -0.01663368
v 0.15214668 -0.07823328 -0.01618444
v 0.15448251 -0.07053973 -0.01662996
v 0.15475044 -0.07053973 -0.01657706
v 0.15490742 -0.07053973 -0.01647297
v 0.15475752 -0.07278511 -0.01617672
v 0.15428067 -0.07400760 -0.01617100
v 0.15303781 -0.07688917 -0.01597341
v 0.15324082 -0.07672388 -0.01572177
v 0.15370823 -0.07591461 -0.01542494
v 0.15280765 -0.07768909 -0.01411355
v 0.15554597 -0.07053973 -0.01501059
v 0.15554007 -0.07057715 -0.01499687
v 0.15554715 -0.07056624 -0.01411355
v 0.15524972 -0.07053973 -0.01621733
v 0.15529929 -0.07111667 -0.01597312
v 0.15493457 -0.07272898 -0.01582242
v 0.15465130 -0.07340727 -0.01601630
v 0.15527686 -0.07053973 -0.01618130
v 0.15415084 -0.07465938 -0.01594767
v 0.15376016 -0.07580546 -0.01411355
v 0.15345328 -0.07642918 -0.01411355
v 0.15436566 -0.07444576 -0.01547584
v 0.15549167 -0.07053973 -0.01566886
v 0.15542912 -0.07089057 -0.01568917
v 0.15547869 -0.07087965 -0.01411355
v 0.15519778 -0.07206784 -0.01517702
v 0.15540551 -0.07053973 -0.01596454
v 0.15480474 -0.07330123 -0.01534516
v 0.15416382 -0.07490263 -0.01411355
v 0.15437038 -0.07441457 -0.01411355
v 0.15547515 -0.07053973 -0.01574178
v 0.15525680 -0.07184641 -0.01411355
v 0.15511280 -0.07232668 -0.01411355
v 0.15489798 -0.07299874 -0.01411355
f 1 2 5
f 1 5 12
f 1 12 19
f 1 19 30
f 1 30 34
f 1 34 33
f 1 33 32
f 1 32 47
f 1 47 46
f 1 46 63
f 1 63 82
f 1 82 95
f 1 95 69
f 1 69 53
f 1 53 48
f 1 48 35
f 1 35 22
f 1 22 21
f 1 21 13
f 1 13 7
f 1 7 3
f 1 3 4
f 1 4 2
f 2 4 6
f 2 6 5
f 3 7 8
f 3 8 4
f 4 8 9
f 4 9 10
f 4 10 11
f 4 11 6
f 5 6 11
f 5 11 18
f 5 18 27
f 5 27 29
f 5 29 28
f 5 28 43
f 5 43 56
f 5 56 60
f 5 60 79
f 5 79 77
f 5 77 76
f 5 76 75
f 5 75 74
f 5 74 100
f 5 100 101
f 5 101 102
f 5 102 115
f 5 115 126
f 5 126 125
f 5 125 134
f 5 134 135
f 5 135 139
f 5 139 138
f 5 138 137
f 5 137 130
f 5 130 118
f 5 118 104
f 5 104 80
f 5 80 61
f 5 61 44
f 5 44 31
f 5 31 20
f 5 20 12
f 7 13 8
f 8 13 14
f 8 14 15
f 8 15 9
f 9 15 16
f 9 16 10
f 10 16 17
f 10 17 18
f 10 18 11
f 12 20 19
f 13 21 14
f 14 21 22
f 14 22 23
f 14 23 24
f 14 24 15
f 15 24 16
f 16 24 25
f 16 25 26
f 16 26 17
f 17 27 18
f 17 26 28
f 17 28 29
f 17 29 27
f 19 20 30
f 20 31 32
f 20 32 33
f 20 33 34
f 20 34 30
f 22 35 23
f 23 36 24
f 23 35 37
f 23 37 38
f 23 38 39
f 23 39 36
f 24 36 40
f 24 40 25
f 25 40 41
f 25 41 26
f 26 41 42
f 26 42 43
f 26 43 28
f 31 44 45
f 31 45 46
f 31 46 47
f 31 47 32
f 35 48 37
f 36 39 49
f 36 49 40
f 37 48 38
f 38 50 51
f 38 51 52
f 38 52 39
f 38 48 53
f 38 53 50
f 39 52 49
f 40 54 41
f 40 49 54
f 41 54 55
f 41 55 42
f 42 56 43
f 42 55 57
f 42 57 58
f 42 58 59
f 42 59 60
f 42 60 56
f 44 61 45
f 45 61 80
f 45 80 103
f 45 103 116
f 45 116 128
f 45 128 136
f 45 136 132
f 45 132 123
f 45 123 119
f 45 119 109
f 45 109 108
f 45 108 89
f 45 89 88
f 45 88 107
f 45 107 105
f 45 105 81
f 45 81 62
f 45 62 63
f 45 63 46
f 49 52 64
f 49 64 54
f 50 65 51
f 50 53 65
f 51 66 52
f 51 65 67
f 51 67 68
f 51 68 66
f 52 66 64
f 53 69 70
f 53 70 71
f 53 71 65
f 54 64 55
f 55 64 72
f 55 72 57
f 57 72 73
f 57 73 58
f 58 74 75
f 58 75 76
f 58 76 77
f 58 77 59
f 58 73 78
f 58 78 74
f 59 77 79
f 59 79 60
f 62 81 82
f 62 82 63
f 64 66 83
f 64 83 84
f 64 84 72
f 65 71 67
f 66 68 85
f 66 85 83
f 67 86 87
f 67 87 88
f 67 88 89
f 67 89 90
f 67 90 91
f 67 91 92
f 67 92 93
f 67 93 68
f 67 71 94
f 67 94 86
f 68 93 85
f 69 95 70
f 70 96 97
f 70 97 81
f 70 81 94
f 70 94 71
f 70 95 96
f 72 84 73
f 73 84 98
f 73 98 99
f 73 99 78
f 74 78 100
f 78 101 100
f 78 99 102
f 78 102 101
f 80 104 103
f 81 105 94
f 81 97 96
f 81 96 82
f 82 96 95
f 83 85 106
f 83 106 84
f 84 106 98
f 85 93 92
f 85 92 106
f 86 94 87
f 87 105 107
f 87 107 88
f 87 94 105
f 89 108 90
f 90 108 91
f 91 108 109
f 91 109 110
f 91 110 92
f 92 111 106
f 92 110 111
f 98 106 112
f 98 112 113
f 98 113 99
f 99 113 114
f 99 114 115
f 99 115 102
f 103 104 117
f 103 117 116
f 104 118 117
f 106 111 112
f 109 119 110
f 110 120 121
f 110 121 122
f 110 122 111
f 110 119 123
f 110 123 120
f 111 124 112
f 111 122 124
f 112 124 113
f 113 124 114
f 114 125 126
f 114 126 115
f 114 124 127
f 114 127 125
f 116 117 129
f 116 129 128
f 117 118 130
f 117 130 131
f 117 131 129
f 120 129 121
f 120 123 132
f 120 132 129
f 121 133 127
f 121 127 122
f 121 129 131
f 121 131 133
f 122 127 124
f 125 127 134
f 127 135 134
f 127 133 135
f 128 129 136
f 129 132 136
f 130 137 131
f 131 137 138
f 131 138 133
f 133 138 139
f 133 139 135

