# https://github.com/mikedh/trimesh
v 0.14637823 0.07685660 -0.01121146
v 0.14637823 0.07358578 -0.01121146
v 0.14637823 0.07685660 -0.01330589
v 0.14297383 0.07685660 -0.01121146
v 0.14172631 0.06366617 -0.01181547
v 0.14189127 0.06366617 -0.01181688
v 0.14637823 0.06366617 -0.01185986
v 0.14632461 0.07361807 -0.01121146
v 0.12531261 0.06366617 -0.01190425
v 0.12703852 0.06366617 -0.01188158
v 0.12926139 0.06366617 -0.01185372
v 0.13490308 0.06366617 -0.01182727
v 0.14637823 0.07526574 -0.01420836
v 0.14460489 0.07685660 -0.01409785
v 0.14316147 0.07660996 -0.01121146
v 0.12533529 0.07685660 -0.01190850
v 0.12531261 0.07685531 -0.01190897
v 0.12531261 0.07659447 -0.01190850
v 0.14637823 0.06366617 -0.01458190
v 0.14553280 0.07415653 -0.01121146
v 0.14500286 0.07459557 -0.01121146
v 0.14491007 0.07467304 -0.01121146
v 0.14437188 0.07520505 -0.01121146
v 0.14418012 0.07540391 -0.01121146
v 0.14359862 0.07605729 -0.01121146
v 0.12531261 0.06366617 -0.01469241
v 0.14637823 0.07497649 -0.01432736
v 0.14432652 0.07685660 -0.01420174
v 0.12531261 0.07685660 -0.01469902
v 0.14637823 0.07305119 -0.01460316
v 0.12531261 0.06633267 -0.01589618
v 0.12531261 0.06659738 -0.01598826
v 0.12730040 0.06773887 -0.01603549
v 0.13634855 0.07231775 -0.01593348
v 0.13721667 0.07287946 -0.01591554
v 0.13771362 0.07344503 -0.01587492
v 0.14637823 0.07460977 -0.01446431
v 0.14370172 0.07685660 -0.01438781
v 0.13790126 0.07388278 -0.01573892
v 0.13715481 0.07314546 -0.01592545
v 0.13198738 0.07043119 -0.01600054
v 0.13116051 0.06995471 -0.01601188
v 0.13964986 0.07685660 -0.01468344
v 0.14637823 0.07360128 -0.01457765
v 0.13594646 0.07241330 -0.01595190
v 0.13822499 0.07374849 -0.01576961
v 0.14307900 0.07685660 -0.01448745
v 0.14357801 0.07685660 -0.01440953
v 0.13991586 0.07685660 -0.01467635
v 0.14152010 0.07685660 -0.01460552
v 0.14206448 0.07685660 -0.01457152
v 0.14234079 0.07685660 -0.01455121
f 1 2 7
f 1 7 19
f 1 19 30
f 1 30 44
f 1 44 37
f 1 37 27
f 1 27 13
f 1 13 3
f 1 3 14
f 1 14 28
f 1 28 38
f 1 38 48
f 1 48 47
f 1 47 52
f 1 52 51
f 1 51 50
f 1 50 49
f 1 49 43
f 1 43 29
f 1 29 16
f 1 16 4
f 1 4 15
f 1 15 25
f 1 25 24
f 1 24 23
f 1 23 22
f 1 22 21
f 1 21 20
f 1 20 8
f 1 8 2
f 2 5 6
f 2 6 7
f 2 8 9
f 2 9 10
f 2 10 11
f 2 11 12
f 2 12 5
f 3 13 14
f 4 16 17
f 4 17 18
f 4 18 9
f 4 9 15
f 5 12 11
f 5 11 10
f 5 10 9
f 5 9 26
f 5 26 19
f 5 19 7
f 5 7 6
f 8 20 9
f 9 20 21
f 9 21 22
f 9 22 23
f 9 23 24
f 9 24 25
f 9 25 15
f 9 18 17
f 9 17 29
f 9 29 32
f 9 32 31
f 9 31 26
f 13 27 28
f 13 28 14
f 16 29 17
f 19 26 31
f 19 31 32
f 19 32 33
f 19 33 34
f 19 34 35
f 19 35 36
f 19 36 30
f 27 37 38
f 27 38 28
f 29 39 36
f 29 36 40
f 29 40 41
f 29 41 42
f 29 42 33
f 29 33 32
f 29 43 39
f 30 36 44
f 33 42 34
f 34 42 45
f 34 45 35
f 35 45 40
f 35 40 36
f 36 39 46
f 36 46 44
f 37 47 48
f 37 48 38
f 37 44 46
f 37 46 47
f 39 43 49
f 39 49 46
f 40 45 41
f 41 45 42
f 46 49 50
f 46 50 51
f 46 51 52
f 46 52 47

