# https://github.com/mikedh/trimesh
v 0.00002560 -0.08783325 0.00599810
v 0.00003965 -0.08813364 0.01095665
v 0.00002560 -0.08804156 0.01070424
v 0.00002560 -0.08599463 0.00599810
v 0.00598009 -0.08787994 0.00599810
v 0.06198596 -0.08588851 0.01095714
v 0.00002560 -0.08732649 0.01095665
v 0.13353807 -0.08863223 0.00599810
v 0.12367947 -0.08869852 0.01095665
v 0.00002560 -0.08568835 0.01039066
v 0.01065661 -0.08577487 0.00599810
v 0.01371811 -0.08561619 0.01095665
v 0.00002560 -0.08564982 0.01095665
v 0.13390321 -0.08873673 0.01095665
v 0.13497052 -0.08872497 0.01095665
v 0.13526544 -0.08871191 0.01095665
v 0.13703493 -0.08853363 0.01095665
v 0.13716132 -0.08851501 0.01095665
v 0.13909934 -0.08815422 0.01095665
v 0.13949256 -0.08804940 0.01095665
v 0.14096714 -0.08762950 0.01095665
v 0.14158506 -0.08742967 0.01095665
v 0.14268046 -0.08703165 0.01095665
v 0.14349499 -0.08667476 0.01095665
v 0.14349499 -0.08540166 0.01095665
v 0.14098119 -0.08540166 0.01095665
v 0.13453517 -0.08862440 0.00599810
v 0.01182223 -0.08576215 0.00599810
v 0.14075649 -0.08540166 0.00835384
v 0.14084074 -0.08540166 0.00599810
v 0.01284741 -0.08573341 0.00646944
v 0.13579910 -0.08854310 0.00599810
v 0.13710515 -0.08841543 0.00599810
v 0.13907126 -0.08806541 0.00599810
v 0.14058796 -0.08767522 0.00599810
v 0.14089693 -0.08758575 0.00599810
v 0.14227319 -0.08709727 0.00599810
v 0.14322816 -0.08670415 0.00599810
v 0.14329838 -0.08667084 0.00599810
v 0.14349499 -0.08656995 0.00599810
v 0.14349499 -0.08540166 0.00638061
v 0.01291763 -0.08575464 0.00599810
v 0.14117779 -0.08540166 0.00599810
v 0.14349499 -0.08540754 0.00599810
f 1 2 3
f 1 3 7
f 1 7 13
f 1 13 10
f 1 10 4
f 1 4 11
f 1 11 28
f 1 28 42
f 1 42 30
f 1 30 43
f 1 43 44
f 1 44 40
f 1 40 39
f 1 39 38
f 1 38 37
f 1 37 36
f 1 36 35
f 1 35 34
f 1 34 33
f 1 33 32
f 1 32 27
f 1 27 8
f 1 8 5
f 1 5 2
f 2 6 7
f 2 7 3
f 2 5 8
f 2 8 9
f 2 9 6
f 4 10 11
f 6 12 13
f 6 13 7
f 6 9 14
f 6 14 15
f 6 15 16
f 6 16 17
f 6 17 18
f 6 18 19
f 6 19 20
f 6 20 21
f 6 21 22
f 6 22 23
f 6 23 24
f 6 24 25
f 6 25 26
f 6 26 12
f 8 27 14
f 8 14 9
f 10 13 11
f 11 13 28
f 12 26 29
f 12 29 30
f 12 30 13
f 13 31 28
f 13 30 31
f 14 27 15
f 15 27 16
f 16 27 32
f 16 32 33
f 16 33 17
f 17 33 18
f 18 33 34
f 18 34 19
f 19 34 35
f 19 35 20
f 20 35 21
f 21 35 36
f 21 36 22
f 22 36 37
f 22 37 23
f 23 37 38
f 23 38 24
f 24 38 39
f 24 39 40
f 24 40 44
f 24 44 41
f 24 41 25
f 25 41 43
f 25 43 30
f 25 30 29
f 25 29 26
f 28 31 42
f 30 42 31
f 41 44 43

