# https://github.com/mikedh/trimesh
v -0.14234291 0.08007924 -0.01153379
v -0.14234291 0.07682830 -0.01153379
v -0.14234291 0.08007924 -0.01411658
v -0.14736705 0.08007924 -0.01153379
v -0.14234291 0.07682830 -0.01461732
v -0.14736705 0.07682830 -0.01153379
v -0.14234291 0.07926651 -0.01434778
v -0.14736705 0.07682830 -0.01373084
v -0.14736705 0.08007733 -0.01216130
v -0.14711671 0.08007924 -0.01191108
v -0.14736705 0.08007924 -0.01156367
v -0.14234291 0.07733491 -0.01460887
v -0.14262425 0.07682830 -0.01460766
v -0.14234291 0.07896101 -0.01442747
v -0.14722048 0.07682830 -0.01376404
v -0.14234291 0.07772027 -0.01458171
v -0.14365562 0.07682830 -0.01449417
v -0.14234291 0.07807254 -0.01455665
f 1 2 5
f 1 5 12
f 1 12 16
f 1 16 18
f 1 18 14
f 1 14 7
f 1 7 3
f 1 3 10
f 1 10 11
f 1 11 4
f 1 4 6
f 1 6 2
f 2 6 8
f 2 8 15
f 2 15 17
f 2 17 13
f 2 13 5
f 3 7 8
f 3 8 9
f 3 9 10
f 4 11 9
f 4 9 8
f 4 8 6
f 5 13 12
f 7 14 8
f 8 14 15
f 9 11 10
f 12 13 17
f 12 17 16
f 14 18 17
f 14 17 15
f 16 17 18

