# https://github.com/mikedh/trimesh
v -0.15384529 0.03831860 0.00511890
v -0.15584124 0.03831860 0.00511890
v -0.15372790 0.03152013 0.00511890
v -0.15181325 0.03311779 0.00162935
v -0.15181325 0.03453959 0.00156126
v -0.15181325 0.03620460 0.00145095
v -0.15181325 0.03668727 0.00140355
v -0.15181325 0.03712129 0.00134322
v -0.15181325 0.03796689 0.00120619
v -0.15181325 0.03831860 0.00110449
v -0.15582260 0.03831860 0.00288762
v -0.15582656 0.03324501 0.00070633
v -0.15583490 0.02930137 0.00113380
v -0.15586424 0.00221225 0.00089076
v -0.15578016 0.00613718 0.00511890
v -0.15369300 0.02312774 0.00511890
v -0.15367872 0.01193291 0.00511890
v -0.15181325 0.03196912 0.00163021
v -0.15181285 0.03112727 -0.00344511
v -0.15181285 0.03181946 -0.00350285
v -0.15181325 0.03831860 -0.00344424
v -0.15579761 0.03831860 0.00091058
v -0.15580673 0.03160245 0.00047881
v -0.15582101 0.00248165 0.00031506
v -0.15579008 0.03706517 0.00052707
v -0.15577342 0.00009451 0.00036246
v -0.15578850 0.00009451 0.00054086
v -0.15581030 0.00009451 0.00093558
v -0.15575915 0.00009451 0.00511890
v -0.15181325 0.00367522 0.00153713
v -0.15181325 0.00687053 0.00155178
v -0.15181325 0.01600002 0.00158884
v -0.15373345 0.00009451 0.00511890
v -0.15181285 0.02784963 -0.00344511
v -0.15181285 0.03181946 -0.00359162
v -0.15185727 0.03829989 -0.00344424
v -0.15186282 0.03831860 -0.00340805
v -0.15181285 0.02890102 -0.00368556
v -0.15576312 0.03831860 0.00047881
v -0.15576312 0.03423653 0.00023835
v -0.15571870 0.00233199 0.00001342
v -0.15574329 0.00009451 0.00027024
v -0.15181325 0.00009451 0.00150352
v -0.15181325 0.00009451 -0.00297196
v -0.15524281 0.03831860 -0.00045197
v -0.15181325 0.00291567 -0.00327016
v -0.15545616 0.00225715 -0.00041405
v -0.15538319 0.02020930 -0.00040802
v -0.15527176 0.03831860 -0.00042525
v -0.15569847 0.03831860 0.00023577
v -0.15567825 0.03705020 0.00008753
v -0.15557871 0.03831860 -0.00011672
v -0.15570482 0.03232457 0.00009615
v -0.15554896 0.00903317 -0.00026237
v -0.15555373 0.00085780 -0.00023910
v -0.15564176 0.00009451 0.00003410
v -0.15516151 0.00009451 -0.00055711
v -0.15517262 0.00021050 -0.00055539
v -0.15550613 0.00009451 -0.00020721
v -0.15556721 0.00009451 -0.00012448
f 1 2 15
f 1 15 29
f 1 29 33
f 1 33 17
f 1 17 16
f 1 16 3
f 1 3 4
f 1 4 5
f 1 5 6
f 1 6 7
f 1 7 8
f 1 8 9
f 1 9 10
f 1 10 21
f 1 21 37
f 1 37 45
f 1 45 49
f 1 49 52
f 1 52 50
f 1 50 39
f 1 39 22
f 1 22 11
f 1 11 2
f 2 11 12
f 2 12 13
f 2 13 14
f 2 14 15
f 3 16 4
f 4 16 17
f 4 17 18
f 4 18 19
f 4 19 5
f 5 19 6
f 6 19 20
f 6 20 7
f 7 20 8
f 8 20 9
f 9 20 10
f 10 20 35
f 10 35 21
f 11 22 12
f 12 23 24
f 12 24 14
f 12 14 13
f 12 22 25
f 12 25 23
f 14 24 26
f 14 26 27
f 14 27 28
f 14 28 29
f 14 29 15
f 17 30 31
f 17 31 32
f 17 32 18
f 17 33 30
f 18 32 34
f 18 34 19
f 19 34 38
f 19 38 35
f 19 35 20
f 21 36 37
f 21 35 38
f 21 38 36
f 22 39 25
f 23 25 40
f 23 40 24
f 24 41 26
f 24 40 41
f 25 39 40
f 26 42 56
f 26 56 60
f 26 60 59
f 26 59 57
f 26 57 44
f 26 44 43
f 26 43 33
f 26 33 29
f 26 29 28
f 26 28 27
f 26 41 42
f 30 34 31
f 30 33 43
f 30 43 34
f 31 34 32
f 34 43 44
f 34 44 38
f 36 45 37
f 36 38 45
f 38 44 46
f 38 46 47
f 38 47 48
f 38 48 49
f 38 49 45
f 39 50 40
f 40 51 52
f 40 52 53
f 40 53 41
f 40 50 51
f 41 54 47
f 41 47 55
f 41 55 42
f 41 53 52
f 41 52 54
f 42 55 56
f 44 57 46
f 46 57 58
f 46 58 47
f 47 58 55
f 47 54 52
f 47 52 48
f 48 52 49
f 50 52 51
f 55 58 57
f 55 57 59
f 55 59 60
f 55 60 56

