# https://github.com/mikedh/trimesh
v 0.12998741 -0.07396871 -0.01073808
v 0.12611307 -0.07723565 -0.01073808
v 0.12970858 -0.07941138 -0.01053508
v 0.13880657 -0.08540134 -0.01022865
v 0.13880657 -0.07418023 -0.01073808
v 0.11888889 -0.08486076 -0.01073808
v 0.11888889 -0.08540134 -0.01066547
v 0.12040001 -0.08540134 -0.01061790
v 0.13880657 -0.08540134 -0.01073808
v 0.11888889 -0.08540134 -0.01073808
f 1 2 3
f 1 3 4
f 1 4 5
f 1 5 9
f 1 9 10
f 1 10 6
f 1 6 2
f 2 6 7
f 2 7 3
f 3 7 8
f 3 8 4
f 4 9 5
f 4 8 7
f 4 7 10
f 4 10 9
f 6 10 7

