# https://github.com/mikedh/trimesh
v 0.14878986 0.04353618 -0.01472194
v 0.14973885 0.04353618 -0.01656189
v 0.15171924 0.04353618 -0.01472194
v 0.14896714 0.04628565 -0.01472194
v 0.14961328 0.04690263 -0.01702960
v 0.14960122 0.04623953 -0.01702222
v 0.14964399 0.04566291 -0.01702113
v 0.15002771 0.04353618 -0.01703615
v 0.15181761 0.04353618 -0.01617423
v 0.15276154 0.04741389 -0.01472194
v 0.14899124 0.04644807 -0.01472194
v 0.14964088 0.04734277 -0.01694682
v 0.14979989 0.04771276 -0.01705773
v 0.14978512 0.04714961 -0.01717657
v 0.14992507 0.04608288 -0.01723667
v 0.15024814 0.04379566 -0.01724596
v 0.14999078 0.04428962 -0.01712111
v 0.15022015 0.04353618 -0.01718504
v 0.15180633 0.04353618 -0.01633787
v 0.15276154 0.04770027 -0.01532733
v 0.15276154 0.05335395 -0.01472194
v 0.14913236 0.04722649 -0.01472194
v 0.14934192 0.04811351 -0.01472194
v 0.14971436 0.04780695 -0.01673482
v 0.14989553 0.04811351 -0.01691649
v 0.15009185 0.04826343 -0.01710664
v 0.14996628 0.04758783 -0.01723067
v 0.15033756 0.04754651 -0.01742682
v 0.15026447 0.04654513 -0.01743146
v 0.15031928 0.04353618 -0.01723067
v 0.15025086 0.04353618 -0.01720826
v 0.15048568 0.04473457 -0.01740223
v 0.15174374 0.04353618 -0.01658156
v 0.15276154 0.04876508 -0.01706129
v 0.15276154 0.04849311 -0.01678919
v 0.15276154 0.04827112 -0.01639524
v 0.15276154 0.05109555 -0.01689109
v 0.15128655 0.04959252 -0.01713013
v 0.15078892 0.04919850 -0.01708751
v 0.15063030 0.04937148 -0.01669357
v 0.15013073 0.05005189 -0.01472194
v 0.14958062 0.04897939 -0.01472194
v 0.14976918 0.04952429 -0.01472194
v 0.15020459 0.04876892 -0.01677143
v 0.15036321 0.04848350 -0.01721591
v 0.15035699 0.04883235 -0.01696376
v 0.15099419 0.04900245 -0.01735442
v 0.15057004 0.04759648 -0.01750877
v 0.15052106 0.04624913 -0.01750741
v 0.15055139 0.04353618 -0.01727793
v 0.15074693 0.04557930 -0.01750304
v 0.15078309 0.04430596 -0.01740223
v 0.15161895 0.04353618 -0.01681104
v 0.15276154 0.04931863 -0.01738857
v 0.15276154 0.04904955 -0.01725689
v 0.15276154 0.05092065 -0.01704162
v 0.15276154 0.05076496 -0.01714406
v 0.15276154 0.05063426 -0.01722793
v 0.15276154 0.05025851 -0.01740223
v 0.15217644 0.04974052 -0.01741152
v 0.15106456 0.04614631 -0.01751260
v 0.15276154 0.04990293 -0.01745960
v 0.15276154 0.04987410 -0.01746288
v 0.15079320 0.04353618 -0.01730388
v 0.15116369 0.04430788 -0.01736262
v 0.15097359 0.04353618 -0.01728503
v 0.15150542 0.04353618 -0.01696977
v 0.15276154 0.04984719 -0.01746206
v 0.15118585 0.04353618 -0.01718586
v 0.15141212 0.04530157 -0.01740305
f 1 2 8
f 1 8 18
f 1 18 31
f 1 31 30
f 1 30 50
f 1 50 64
f 1 64 66
f 1 66 69
f 1 69 67
f 1 67 53
f 1 53 33
f 1 33 19
f 1 19 9
f 1 9 3
f 1 3 10
f 1 10 21
f 1 21 41
f 1 41 43
f 1 43 42
f 1 42 23
f 1 23 22
f 1 22 11
f 1 11 4
f 1 4 5
f 1 5 6
f 1 6 7
f 1 7 2
f 2 7 8
f 3 9 10
f 4 11 12
f 4 12 5
f 5 12 13
f 5 13 14
f 5 14 6
f 6 14 15
f 6 15 7
f 7 15 16
f 7 16 17
f 7 17 8
f 8 17 16
f 8 16 18
f 9 19 10
f 10 19 20
f 10 20 36
f 10 36 35
f 10 35 34
f 10 34 55
f 10 55 54
f 10 54 68
f 10 68 63
f 10 63 62
f 10 62 59
f 10 59 58
f 10 58 57
f 10 57 56
f 10 56 37
f 10 37 21
f 11 22 12
f 12 22 23
f 12 23 24
f 12 24 13
f 13 24 25
f 13 25 26
f 13 26 27
f 13 27 14
f 14 27 28
f 14 28 29
f 14 29 15
f 15 29 16
f 16 30 31
f 16 31 18
f 16 29 32
f 16 32 30
f 19 33 34
f 19 34 35
f 19 35 36
f 19 36 20
f 21 37 38
f 21 38 39
f 21 39 40
f 21 40 41
f 23 42 24
f 24 42 43
f 24 43 25
f 25 43 44
f 25 44 26
f 26 45 27
f 26 44 46
f 26 46 45
f 27 45 28
f 28 45 47
f 28 47 48
f 28 48 29
f 29 49 32
f 29 48 49
f 30 32 50
f 32 49 51
f 32 51 52
f 32 52 50
f 33 53 54
f 33 54 55
f 33 55 34
f 37 56 38
f 38 56 57
f 38 57 58
f 38 58 47
f 38 47 39
f 39 47 45
f 39 45 46
f 39 46 40
f 40 46 44
f 40 44 41
f 41 44 43
f 47 58 59
f 47 59 60
f 47 60 48
f 48 61 49
f 48 60 62
f 48 62 63
f 48 63 61
f 49 61 51
f 50 52 64
f 51 61 65
f 51 65 52
f 52 65 66
f 52 66 64
f 53 67 54
f 54 67 69
f 54 69 65
f 54 65 70
f 54 70 68
f 59 62 60
f 61 70 65
f 61 63 68
f 61 68 70
f 65 69 66

