# https://github.com/mikedh/trimesh
v 0.00003830 -0.08813385 0.01095709
v 0.00303420 -0.08958943 0.01199425
v 0.00132044 -0.08975008 0.01212938
v 0.00003830 -0.08978347 0.01220126
v 0.00003830 -0.08564992 0.01095709
v 0.12368286 -0.08869869 0.01095709
v 0.00636017 -0.09008921 0.01247942
v 0.00082536 -0.08991015 0.01231051
v 0.10801784 -0.09082680 0.01304939
v 0.00003830 -0.08997060 0.01240754
v 0.00003830 -0.08552900 0.01256782
v 0.00168858 -0.08550021 0.01289486
v 0.01371029 -0.08561652 0.01095709
v 0.12764355 -0.08870330 0.01095709
v 0.00592855 -0.09025043 0.01267779
v 0.12165174 -0.09065464 0.01287761
v 0.12045846 -0.09084521 0.01308029
v 0.12118205 -0.09090855 0.01315145
v 0.12160097 -0.09103120 0.01333617
v 0.10726886 -0.09102141 0.01336780
v 0.00003830 -0.09002012 0.01249379
v 0.00003830 -0.08548697 0.01340805
v 0.00142200 -0.08542075 0.01453218
v 0.00385935 -0.08547257 0.01345836
v 0.01461160 -0.08545933 0.01378827
v 0.03007352 -0.08566086 0.01095709
v 0.12876067 -0.08867796 0.01095709
v 0.00639825 -0.09038344 0.01294733
v 0.12970006 -0.08865493 0.01095709
v 0.12233725 -0.09089762 0.01317445
v 0.12292120 -0.09107841 0.01361217
v 0.12283233 -0.09118378 0.01396580
v 0.10795436 -0.09116766 0.01388315
v 0.10787819 -0.09107898 0.01352808
v 0.00003830 -0.09009728 0.01267851
v 0.00003830 -0.08544724 0.01420874
v 0.00003830 -0.08543918 0.01472697
v 0.00003830 -0.08543803 0.01504969
v 0.00170128 -0.08541557 0.01516541
v 0.02255836 -0.08540866 0.01530700
v 0.02367548 -0.08543745 0.01463353
v 0.04264109 -0.08573283 0.01095709
v 0.00615705 -0.09046117 0.01323770
v 0.00005099 -0.09020667 0.01302495
v 0.00003830 -0.09020436 0.01301848
v 0.12970006 -0.08651935 0.01095709
v 0.12970006 -0.09041396 0.01447540
v 0.12396214 -0.09091834 0.01358414
v 0.12317509 -0.09091547 0.01334695
v 0.12970006 -0.09091834 0.01556935
v 0.12379711 -0.09111987 0.01401899
v 0.12365748 -0.09124424 0.01451134
v 0.12236264 -0.09129030 0.01471044
v 0.09146419 -0.09121775 0.01466947
v 0.09099450 -0.09115901 0.01418574
v 0.10698958 -0.09111583 0.01368836
v 0.00003830 -0.08545070 0.01536594
v 0.00198056 -0.08544090 0.01560529
v 0.00393551 -0.08542363 0.01541985
v 0.02484338 -0.08542881 0.01574041
v 0.02453871 -0.08542191 0.01527538
v 0.04154936 -0.08556067 0.01482112
v 0.06448835 -0.08588081 0.01095709
v 0.00638555 -0.09047729 0.01353527
v 0.00003830 -0.09024064 0.01352521
v 0.00003830 -0.09023258 0.01331245
v 0.00003830 -0.09020782 0.01303789
v 0.12970006 -0.08651992 0.01252757
v 0.12890031 -0.08650035 0.01095709
v 0.12970006 -0.09056769 0.01478375
v 0.12970006 -0.09080433 0.01529694
v 0.12970006 -0.09105883 0.01604013
v 0.12970006 -0.09109683 0.01616879
v 0.12450800 -0.09127245 0.01558516
v 0.12970006 -0.09116017 0.01654542
v 0.12246419 -0.09129087 0.01548669
v 0.09086755 -0.09119183 0.01508131
v 0.00003830 -0.08547545 0.01564122
v 0.00206942 -0.08547890 0.01587482
v 0.00415132 -0.08546855 0.01591507
v 0.02395476 -0.08543803 0.01589279
v 0.04203175 -0.08557449 0.01600707
v 0.04206983 -0.08555030 0.01568004
v 0.06829670 -0.08582610 0.01468456
v 0.07701783 -0.08600000 0.01095709
v 0.00719800 -0.09046347 0.01374586
v 0.00387204 -0.09020840 0.01492966
v 0.00003830 -0.09017846 0.01444378
v 0.00003830 -0.09018191 0.01441790
v 0.00003830 -0.09024064 0.01367183
v 0.00003830 -0.09024122 0.01359924
v 0.09147688 -0.09116017 0.01547160
v 0.12970006 -0.08654756 0.01491025
v 0.06969310 -0.08583186 0.01527681
v 0.12970006 -0.09116650 0.01677111
v 0.12433028 -0.09121602 0.01634201
v 0.00003830 -0.08547833 0.01566063
v 0.00303420 -0.08552670 0.01613285
v 0.00003830 -0.08552267 0.01590501
v 0.00822626 -0.08558082 0.01633482
v 0.02484338 -0.08555088 0.01621911
v 0.04304731 -0.08563897 0.01628379
v 0.05070211 -0.08568850 0.01620185
v 0.07022627 -0.08586354 0.01596898
v 0.06844903 -0.08583589 0.01584391
v 0.00382126 -0.09013182 0.01533575
v 0.00003830 -0.09006330 0.01519344
v 0.12970006 -0.09112620 0.01703777
v 0.09123569 -0.09100240 0.01617454
v 0.12970006 -0.08657059 0.01571166
v 0.12970006 -0.09113598 0.01697811
v 0.00003830 -0.08553361 0.01594813
v 0.00003830 -0.08564243 0.01630895
v 0.00205673 -0.08566373 0.01648001
v 0.00309767 -0.08562458 0.01641964
v 0.02029874 -0.08575932 0.01669205
v 0.04311078 -0.08575989 0.01659286
v 0.05038474 -0.08584223 0.01670570
v 0.04996582 -0.08572534 0.01640670
v 0.11701825 -0.08659593 0.01707227
v 0.11618041 -0.08650841 0.01668845
v 0.12970006 -0.08662587 0.01642036
v 0.12970006 -0.08660975 0.01626007
v 0.00387204 -0.08998499 0.01590141
v 0.00003830 -0.08992396 0.01585469
v 0.00003830 -0.08998672 0.01557582
v 0.12970006 -0.09102601 0.01734468
v 0.00271684 -0.08982262 0.01632117
v 0.00003830 -0.08573917 0.01652098
v 0.00215828 -0.08580192 0.01674595
v 0.00391013 -0.08573225 0.01662664
v 0.00930529 -0.08582668 0.01680920
v 0.04440563 -0.08587274 0.01682358
v 0.11838925 -0.08687173 0.01755240
v 0.12970006 -0.08705943 0.01765230
v 0.12970006 -0.08679746 0.01708449
v 0.12970006 -0.08675945 0.01699752
v 0.00003830 -0.08976159 0.01638945
v 0.00003830 -0.08984335 0.01613213
v 0.12970006 -0.09100816 0.01737702
v 0.12962390 -0.09101565 0.01736408
v 0.00003830 -0.08580768 0.01664173
v 0.00233600 -0.08596314 0.01695152
v 0.00820087 -0.08588829 0.01688395
v 0.00003830 -0.08591017 0.01680777
v 0.02664600 -0.08589923 0.01688611
v 0.04326311 -0.08607312 0.01709814
v 0.04204444 -0.08594184 0.01692133
v 0.04957229 -0.08598733 0.01694289
v 0.05867426 -0.08618655 0.01713480
v 0.11816076 -0.08708246 0.01780468
v 0.12970006 -0.08712104 0.01775221
v 0.00327540 -0.08973223 0.01653680
v 0.00003830 -0.08967868 0.01654326
v 0.12970006 -0.09073985 0.01770190
v 0.00181553 -0.08957274 0.01674955
v 0.00003830 -0.08958425 0.01669348
v 0.00092691 -0.08599884 0.01694721
v 0.00140931 -0.08609269 0.01704424
v 0.00295804 -0.08611687 0.01707730
v 0.02678564 -0.08621361 0.01721602
v 0.02659522 -0.08606678 0.01708880
v 0.00003830 -0.08605872 0.01696230
v 0.04139702 -0.08614221 0.01716714
v 0.08764314 -0.08667078 0.01751646
v 0.10857640 -0.08709341 0.01781043
v 0.12970006 -0.08750969 0.01806918
v 0.12901456 -0.08738590 0.01798653
v 0.12970006 -0.08722296 0.01784637
v 0.04198097 -0.08632704 0.01732815
v 0.00003830 -0.08960728 0.01665755
v 0.12970006 -0.09059935 0.01780612
v 0.12870990 -0.09060972 0.01780684
v 0.00003830 -0.08949731 0.01680130
v 0.00003830 -0.08620612 0.01706796
v 0.00062225 -0.08626025 0.01712474
v 0.00212020 -0.08622282 0.01713408
v 0.02796623 -0.08646580 0.01736552
v 0.12970006 -0.08781198 0.01817556
v 0.04147319 -0.08656887 0.01746183
v 0.04119391 -0.08676752 0.01753874
v 0.12970006 -0.09044274 0.01791465
v 0.12878606 -0.09039611 0.01795418
v 0.01199653 -0.08916853 0.01719949
v 0.00003830 -0.08938330 0.01688539
v 0.00003830 -0.08629883 0.01712617
v 0.00165050 -0.08638288 0.01720811
v 0.02664600 -0.08669208 0.01745968
v 0.12275617 -0.08811542 0.01822731
v 0.12970006 -0.08803885 0.01822084
v 0.12970006 -0.09034256 0.01796784
v 0.12970006 -0.09003682 0.01810153
v 0.12934462 -0.09002012 0.01811231
v 0.01170455 -0.08901249 0.01729508
v 0.00003830 -0.08925663 0.01696661
v 0.00003830 -0.08652856 0.01722968
v 0.00003830 -0.08668920 0.01728933
v 0.00115542 -0.08670130 0.01730946
v 0.00210750 -0.08700243 0.01738493
v 0.02533846 -0.08710262 0.01753730
v 0.12279424 -0.08892555 0.01827044
v 0.12970006 -0.08833652 0.01826900
v 0.12970006 -0.08825822 0.01826253
v 0.00864518 -0.08716135 0.01744602
v 0.01285976 -0.08735654 0.01748987
v 0.02325656 -0.08766688 0.01758115
v 0.12970006 -0.08997463 0.01812453
v 0.12792284 -0.08940748 0.01826469
v 0.12405100 -0.08967407 0.01817484
v 0.01160300 -0.08878736 0.01737702
v 0.00003830 -0.08856799 0.01728143
v 0.00003830 -0.08875569 0.01721171
v 0.00003830 -0.08900559 0.01709958
v 0.00003830 -0.08910635 0.01704999
v 0.00003830 -0.08675369 0.01731018
v 0.00003830 -0.08711414 0.01738708
v 0.00003830 -0.08772792 0.01743021
v 0.00003830 -0.08796860 0.01741583
v 0.01345640 -0.08835265 0.01748627
v 0.12970006 -0.08919674 0.01828769
v 0.12970006 -0.08894974 0.01829919
v 0.00003830 -0.08760873 0.01743021
v 0.00648711 -0.08739339 0.01745321
v 0.12970006 -0.08934933 0.01827475
v 0.01405304 -0.08858469 0.01744530
v 0.00003830 -0.08821101 0.01738133
v 0.00003830 -0.08840101 0.01733246
v 0.00003830 -0.08740951 0.01741296
v 0.00003830 -0.08808951 0.01740002
f 1 2 3
f 1 3 4
f 1 4 10
f 1 10 21
f 1 21 35
f 1 35 45
f 1 45 67
f 1 67 66
f 1 66 65
f 1 65 91
f 1 91 90
f 1 90 89
f 1 89 88
f 1 88 107
f 1 107 126
f 1 126 125
f 1 125 139
f 1 139 138
f 1 138 154
f 1 154 171
f 1 171 157
f 1 157 174
f 1 174 185
f 1 185 195
f 1 195 214
f 1 214 213
f 1 213 212
f 1 212 211
f 1 211 227
f 1 227 226
f 1 226 229
f 1 229 218
f 1 218 217
f 1 217 222
f 1 222 228
f 1 228 216
f 1 216 215
f 1 215 197
f 1 197 196
f 1 196 186
f 1 186 175
f 1 175 163
f 1 163 145
f 1 145 142
f 1 142 129
f 1 129 113
f 1 113 112
f 1 112 99
f 1 99 97
f 1 97 78
f 1 78 57
f 1 57 38
f 1 38 37
f 1 37 36
f 1 36 22
f 1 22 11
f 1 11 5
f 1 5 13
f 1 13 26
f 1 26 42
f 1 42 63
f 1 63 85
f 1 85 69
f 1 69 46
f 1 46 29
f 1 29 27
f 1 27 14
f 1 14 6
f 1 6 2
f 2 6 3
f 3 7 8
f 3 8 4
f 3 6 9
f 3 9 7
f 4 8 10
f 5 11 12
f 5 12 13
f 6 14 9
f 7 15 8
f 7 9 15
f 8 15 10
f 9 14 16
f 9 16 17
f 9 17 18
f 9 18 19
f 9 19 20
f 9 20 15
f 10 15 21
f 11 22 12
f 12 22 23
f 12 23 24
f 12 24 25
f 12 25 13
f 13 25 26
f 14 27 16
f 15 28 21
f 15 20 28
f 16 18 17
f 16 27 29
f 16 29 30
f 16 30 18
f 18 30 19
f 19 30 31
f 19 31 32
f 19 32 33
f 19 33 34
f 19 34 20
f 20 34 28
f 21 28 35
f 22 36 23
f 23 36 37
f 23 37 38
f 23 38 39
f 23 39 40
f 23 40 25
f 23 25 24
f 25 40 41
f 25 41 26
f 26 41 42
f 28 43 44
f 28 44 45
f 28 45 35
f 28 34 43
f 29 46 68
f 29 68 93
f 29 93 110
f 29 110 123
f 29 123 122
f 29 122 137
f 29 137 136
f 29 136 135
f 29 135 152
f 29 152 169
f 29 169 167
f 29 167 179
f 29 179 190
f 29 190 203
f 29 203 202
f 29 202 221
f 29 221 220
f 29 220 224
f 29 224 207
f 29 207 192
f 29 192 191
f 29 191 182
f 29 182 172
f 29 172 155
f 29 155 140
f 29 140 127
f 29 127 108
f 29 108 111
f 29 111 95
f 29 95 75
f 29 75 73
f 29 73 72
f 29 72 50
f 29 50 71
f 29 71 70
f 29 70 47
f 29 47 48
f 29 48 49
f 29 49 30
f 30 49 31
f 31 49 48
f 31 48 50
f 31 50 51
f 31 51 32
f 32 51 52
f 32 52 53
f 32 53 33
f 33 53 54
f 33 54 55
f 33 55 56
f 33 56 34
f 34 56 43
f 38 57 39
f 39 57 58
f 39 58 59
f 39 59 40
f 40 60 61
f 40 61 41
f 40 59 60
f 41 61 62
f 41 62 63
f 41 63 42
f 43 64 65
f 43 65 66
f 43 66 67
f 43 67 44
f 43 56 55
f 43 55 54
f 43 54 64
f 44 67 45
f 46 69 68
f 47 70 48
f 48 70 71
f 48 71 50
f 50 72 51
f 51 72 73
f 51 73 52
f 52 74 53
f 52 73 75
f 52 75 74
f 53 74 76
f 53 76 54
f 54 76 77
f 54 77 64
f 57 78 58
f 58 78 79
f 58 79 80
f 58 80 81
f 58 81 59
f 59 81 60
f 60 81 82
f 60 82 83
f 60 83 61
f 61 83 62
f 62 83 84
f 62 84 69
f 62 69 85
f 62 85 63
f 64 86 87
f 64 87 88
f 64 88 89
f 64 89 90
f 64 90 91
f 64 91 65
f 64 77 92
f 64 92 86
f 68 69 94
f 68 94 93
f 69 84 94
f 74 75 95
f 74 95 76
f 76 95 96
f 76 96 92
f 76 92 77
f 78 97 79
f 79 98 80
f 79 97 99
f 79 99 98
f 80 98 81
f 81 98 100
f 81 100 101
f 81 101 102
f 81 102 82
f 82 102 103
f 82 103 104
f 82 104 83
f 83 104 105
f 83 105 94
f 83 94 84
f 86 92 87
f 87 92 106
f 87 106 107
f 87 107 88
f 92 96 108
f 92 108 109
f 92 109 106
f 93 94 110
f 94 105 110
f 95 111 96
f 96 111 108
f 98 99 112
f 98 112 113
f 98 113 114
f 98 114 115
f 98 115 100
f 100 115 116
f 100 116 101
f 101 116 117
f 101 117 102
f 102 117 118
f 102 118 119
f 102 119 103
f 103 119 120
f 103 120 121
f 103 121 104
f 104 121 122
f 104 122 123
f 104 123 110
f 104 110 105
f 106 124 125
f 106 125 126
f 106 126 107
f 106 109 124
f 108 127 109
f 109 127 128
f 109 128 124
f 113 129 114
f 114 130 115
f 114 129 130
f 115 130 131
f 115 131 116
f 116 131 132
f 116 132 133
f 116 133 117
f 117 133 118
f 118 133 134
f 118 134 120
f 118 120 119
f 120 134 135
f 120 135 136
f 120 136 137
f 120 137 122
f 120 122 121
f 124 128 138
f 124 138 139
f 124 139 125
f 127 140 141
f 127 141 138
f 127 138 128
f 129 142 130
f 130 143 144
f 130 144 132
f 130 132 131
f 130 142 145
f 130 145 143
f 132 146 133
f 132 144 147
f 132 147 146
f 133 148 147
f 133 147 149
f 133 149 134
f 133 146 148
f 134 150 151
f 134 151 152
f 134 152 135
f 134 149 150
f 138 141 153
f 138 153 154
f 140 155 156
f 140 156 157
f 140 157 141
f 141 157 153
f 143 145 158
f 143 158 159
f 143 159 160
f 143 160 161
f 143 161 162
f 143 162 144
f 144 162 147
f 145 163 158
f 146 147 148
f 147 162 164
f 147 164 165
f 147 165 150
f 147 150 149
f 150 165 151
f 151 166 167
f 151 167 168
f 151 168 169
f 151 169 152
f 151 165 164
f 151 164 170
f 151 170 166
f 153 157 171
f 153 171 154
f 155 172 173
f 155 173 174
f 155 174 156
f 156 174 157
f 158 163 159
f 159 163 175
f 159 175 176
f 159 176 177
f 159 177 160
f 160 177 178
f 160 178 161
f 161 178 170
f 161 170 162
f 162 170 164
f 166 170 167
f 167 169 168
f 167 170 180
f 167 180 181
f 167 181 179
f 170 178 180
f 172 182 173
f 173 182 183
f 173 183 184
f 173 184 185
f 173 185 174
f 175 186 176
f 176 187 177
f 176 186 187
f 177 187 178
f 178 187 188
f 178 188 180
f 179 189 190
f 179 181 188
f 179 188 189
f 180 188 181
f 182 191 183
f 183 191 192
f 183 192 193
f 183 193 194
f 183 194 184
f 184 194 195
f 184 195 185
f 186 196 187
f 187 196 197
f 187 197 198
f 187 198 188
f 188 198 199
f 188 199 200
f 188 200 189
f 189 201 202
f 189 202 203
f 189 203 190
f 189 200 204
f 189 204 205
f 189 205 206
f 189 206 201
f 192 207 193
f 193 207 208
f 193 208 209
f 193 209 210
f 193 210 194
f 194 210 211
f 194 211 212
f 194 212 213
f 194 213 214
f 194 214 195
f 197 215 198
f 198 215 199
f 199 215 216
f 199 216 204
f 199 204 200
f 201 217 218
f 201 218 219
f 201 219 208
f 201 208 220
f 201 220 221
f 201 221 202
f 201 206 222
f 201 222 217
f 204 216 223
f 204 223 205
f 205 223 206
f 206 223 222
f 207 224 208
f 208 224 220
f 208 219 225
f 208 225 209
f 209 225 210
f 210 225 226
f 210 226 227
f 210 227 211
f 216 228 223
f 218 229 219
f 219 229 226
f 219 226 225
f 222 223 228

