# https://github.com/mikedh/trimesh
v 0.13983437 0.08620786 0.00319400
v 0.14156809 0.08483161 0.00319400
v 0.14140115 0.08620786 0.01450360
v 0.14482114 0.08620786 0.00319400
v 0.14194792 0.08453913 0.00319400
v 0.14149918 0.08620786 0.01484958
v 0.15040521 0.07938670 0.01448475
v 0.15054152 0.07938670 0.01532883
v 0.14495745 0.08613441 0.00319400
v 0.14969610 0.08620786 0.01337951
v 0.14269073 0.08399891 0.00319400
v 0.14167990 0.08620786 0.01527768
v 0.15070999 0.07938670 0.01580270
v 0.14908807 0.07938670 0.00319400
v 0.14497429 0.08612506 0.00319400
v 0.14972979 0.08620786 0.01345086
v 0.14569259 0.08569636 0.00319400
v 0.14184684 0.08620786 0.01552807
v 0.15085243 0.07938670 0.01607195
v 0.15216957 0.07938670 0.00319400
v 0.14983547 0.08620786 0.01376856
v 0.15007286 0.08599484 0.01380087
v 0.14979718 0.08612372 0.01338758
v 0.14827481 0.08380459 0.00319400
v 0.14810174 0.08395685 0.00319400
v 0.14720118 0.08465466 0.00319400
v 0.14707712 0.08474881 0.00319400
v 0.14638792 0.08523827 0.00319400
v 0.14190351 0.08620786 0.01560481
v 0.15089838 0.07938670 0.01612580
v 0.15126288 0.08064276 0.00319400
v 0.15389411 0.08155425 0.01334450
v 0.15454655 0.08075827 0.01358548
v 0.15510251 0.07960505 0.01317084
v 0.15537207 0.07938670 0.01365817
v 0.14990898 0.08620786 0.01408223
v 0.15086467 0.08515347 0.01367433
v 0.14955213 0.08261732 0.00319400
v 0.14925194 0.08291448 0.00319400
v 0.14218685 0.08620786 0.01588078
v 0.15116793 0.07938670 0.01638293
v 0.15047107 0.08160300 0.00319400
v 0.15273778 0.08289111 0.01319777
v 0.15358321 0.08213186 0.01387626
v 0.15437502 0.08113756 0.01420205
v 0.15515765 0.07997633 0.01447264
v 0.15540883 0.07938670 0.01381030
v 0.15539963 0.07938670 0.01375376
v 0.14991664 0.08620786 0.01413608
v 0.15029800 0.08179865 0.00319400
v 0.14992277 0.08620786 0.01418185
v 0.15117405 0.08493978 0.01456687
v 0.15218488 0.08378590 0.01400954
v 0.14227567 0.08620786 0.01594810
v 0.15154010 0.07938670 0.01666832
v 0.15298129 0.08294653 0.01464361
v 0.15386501 0.08184005 0.01487112
v 0.15541189 0.07938670 0.01531268
v 0.15544252 0.07938670 0.01511075
v 0.15547469 0.07938670 0.01468803
v 0.15547928 0.07938670 0.01442283
v 0.14989826 0.08620786 0.01472707
v 0.15116333 0.08478620 0.01563308
v 0.15257084 0.08334985 0.01536788
v 0.14268001 0.08620786 0.01617157
v 0.15163965 0.07938670 0.01672890
v 0.15395077 0.08149281 0.01552000
v 0.15538432 0.07938670 0.01542980
v 0.14988142 0.08620786 0.01483612
v 0.15014638 0.08580654 0.01551865
v 0.14988448 0.08592807 0.01587675
v 0.15109135 0.08459856 0.01623080
v 0.15185714 0.08389141 0.01601271
v 0.15299355 0.08253919 0.01597098
v 0.14274893 0.08620786 0.01619984
v 0.15192452 0.07938670 0.01682852
v 0.15422799 0.08067080 0.01622272
v 0.15480080 0.08016063 0.01569905
v 0.15522197 0.07938670 0.01586328
v 0.14985384 0.08620786 0.01496536
v 0.14971601 0.08620786 0.01546211
v 0.14962871 0.08620786 0.01570981
v 0.14956438 0.08620786 0.01585925
v 0.14936987 0.08620786 0.01616618
v 0.14995187 0.08569302 0.01620792
v 0.15083098 0.08461258 0.01645831
v 0.15193984 0.08332982 0.01649601
v 0.15237939 0.08305604 0.01628869
v 0.14342588 0.08620786 0.01641523
v 0.15194290 0.07938670 0.01683391
v 0.15409780 0.08057531 0.01647447
v 0.15498611 0.07938670 0.01629811
v 0.15516071 0.07938670 0.01599252
v 0.14922438 0.08620786 0.01630484
v 0.14942654 0.08595278 0.01640581
v 0.15120009 0.08392279 0.01663063
v 0.14974511 0.08543259 0.01657813
v 0.15303490 0.08161101 0.01668717
v 0.14430653 0.08620786 0.01666832
v 0.15255400 0.07938670 0.01692949
v 0.14496511 0.08620786 0.01681237
v 0.14477366 0.08620786 0.01677871
v 0.15450673 0.07938670 0.01672621
v 0.15478701 0.07938670 0.01653774
v 0.15493404 0.07938670 0.01636542
v 0.14910338 0.08620786 0.01639100
v 0.14891500 0.08620786 0.01650543
v 0.14883842 0.08620786 0.01654582
v 0.15155388 0.08290846 0.01682583
v 0.15006521 0.08489772 0.01668986
v 0.14851832 0.08620786 0.01666159
v 0.14844328 0.08620786 0.01668582
v 0.15341626 0.08072022 0.01680833
v 0.15265201 0.07938670 0.01693487
v 0.14585494 0.08620786 0.01690257
v 0.14526222 0.08620786 0.01685006
v 0.15421267 0.07938670 0.01681372
v 0.15302418 0.08072355 0.01689180
v 0.15002538 0.08463396 0.01677198
v 0.14779390 0.08620786 0.01682045
v 0.14700974 0.08620786 0.01689853
v 0.14717974 0.08577983 0.01692680
v 0.15297670 0.07938670 0.01694699
v 0.14651504 0.08620786 0.01692411
v 0.15398294 0.07938670 0.01686218
v 0.15369653 0.07938670 0.01692007
v 0.14658702 0.08620786 0.01692411
f 1 2 3
f 1 3 6
f 1 6 12
f 1 12 18
f 1 18 29
f 1 29 40
f 1 40 54
f 1 54 65
f 1 65 75
f 1 75 89
f 1 89 99
f 1 99 102
f 1 102 101
f 1 101 116
f 1 116 115
f 1 115 124
f 1 124 127
f 1 127 121
f 1 121 120
f 1 120 112
f 1 112 111
f 1 111 108
f 1 108 107
f 1 107 106
f 1 106 94
f 1 94 84
f 1 84 83
f 1 83 82
f 1 82 81
f 1 81 80
f 1 80 69
f 1 69 62
f 1 62 51
f 1 51 49
f 1 49 36
f 1 36 21
f 1 21 16
f 1 16 10
f 1 10 4
f 1 4 9
f 1 9 15
f 1 15 17
f 1 17 28
f 1 28 27
f 1 27 26
f 1 26 25
f 1 25 24
f 1 24 39
f 1 39 38
f 1 38 50
f 1 50 42
f 1 42 31
f 1 31 20
f 1 20 14
f 1 14 11
f 1 11 5
f 1 5 2
f 2 5 3
f 3 5 7
f 3 7 8
f 3 8 6
f 4 10 9
f 5 11 7
f 6 8 13
f 6 13 12
f 7 11 14
f 7 14 20
f 7 20 35
f 7 35 48
f 7 48 47
f 7 47 61
f 7 61 60
f 7 60 59
f 7 59 58
f 7 58 68
f 7 68 79
f 7 79 93
f 7 93 92
f 7 92 105
f 7 105 104
f 7 104 103
f 7 103 117
f 7 117 125
f 7 125 126
f 7 126 123
f 7 123 114
f 7 114 100
f 7 100 90
f 7 90 76
f 7 76 66
f 7 66 55
f 7 55 41
f 7 41 30
f 7 30 19
f 7 19 13
f 7 13 8
f 9 10 15
f 10 16 17
f 10 17 15
f 12 13 19
f 12 19 18
f 16 21 22
f 16 22 23
f 16 23 24
f 16 24 25
f 16 25 26
f 16 26 27
f 16 27 28
f 16 28 17
f 18 19 29
f 19 30 29
f 20 31 32
f 20 32 33
f 20 33 34
f 20 34 35
f 21 36 22
f 22 37 23
f 22 36 37
f 23 38 39
f 23 39 24
f 23 37 38
f 29 30 40
f 30 41 40
f 31 42 32
f 32 43 44
f 32 44 33
f 32 42 43
f 33 44 45
f 33 45 46
f 33 46 47
f 33 47 48
f 33 48 35
f 33 35 34
f 36 49 37
f 37 50 38
f 37 49 51
f 37 51 52
f 37 52 53
f 37 53 43
f 37 43 50
f 40 41 55
f 40 55 54
f 42 50 43
f 43 53 44
f 44 53 56
f 44 56 57
f 44 57 45
f 45 57 46
f 46 58 59
f 46 59 60
f 46 60 61
f 46 61 47
f 46 57 58
f 51 62 52
f 52 63 64
f 52 64 56
f 52 56 53
f 52 62 63
f 54 55 66
f 54 66 65
f 56 64 57
f 57 67 58
f 57 64 67
f 58 67 68
f 62 69 63
f 63 70 71
f 63 71 72
f 63 72 73
f 63 73 64
f 63 69 70
f 64 74 67
f 64 73 74
f 65 66 75
f 66 76 75
f 67 74 77
f 67 77 78
f 67 78 68
f 68 78 79
f 69 80 70
f 70 80 81
f 70 81 71
f 71 81 82
f 71 82 83
f 71 83 84
f 71 84 85
f 71 85 72
f 72 86 87
f 72 87 88
f 72 88 73
f 72 85 86
f 73 88 74
f 74 88 77
f 75 76 89
f 76 90 89
f 77 88 91
f 77 91 92
f 77 92 93
f 77 93 79
f 77 79 78
f 84 94 85
f 85 94 95
f 85 95 86
f 86 96 87
f 86 95 97
f 86 97 96
f 87 96 98
f 87 98 91
f 87 91 88
f 89 90 99
f 90 100 101
f 90 101 102
f 90 102 99
f 91 98 103
f 91 103 104
f 91 104 105
f 91 105 92
f 94 106 95
f 95 106 107
f 95 107 108
f 95 108 97
f 96 109 98
f 96 97 110
f 96 110 109
f 97 108 111
f 97 111 112
f 97 112 110
f 98 113 103
f 98 109 113
f 100 114 115
f 100 115 116
f 100 116 101
f 103 113 117
f 109 118 113
f 109 110 119
f 109 119 120
f 109 120 121
f 109 121 122
f 109 122 118
f 110 112 119
f 112 120 119
f 113 118 117
f 114 123 115
f 115 123 124
f 117 118 125
f 118 126 125
f 118 122 126
f 121 127 122
f 122 127 124
f 122 124 123
f 122 123 126

