# https://github.com/mikedh/trimesh
v 0.03808681 -0.08763656 -0.01810426
v 0.03738789 -0.08750134 -0.01810168
v 0.08877764 -0.08710914 -0.01759841
v 0.08822434 -0.08730375 -0.01759067
v 0.08895238 -0.08745951 -0.01755453
v 0.06212176 -0.08797797 -0.01766035
v 0.03804798 -0.08784313 -0.01801264
v 0.03763057 -0.08768326 -0.01808619
v 0.01106205 -0.08796340 -0.01799328
v 0.01268315 -0.08743934 -0.01795715
v 0.01212984 -0.08732467 -0.01793134
v 0.03624245 -0.08721522 -0.01802812
v 0.09513585 -0.08655519 -0.01744097
v 0.09580564 -0.08669713 -0.01747065
v 0.08923388 -0.08692685 -0.01757002
v 0.01149887 -0.08762984 -0.01797005
v 0.09609685 -0.08682749 -0.01746162
v 0.08891355 -0.08767840 -0.01739194
v 0.06257800 -0.08807060 -0.01758421
v 0.09508731 -0.08731309 -0.01739968
v 0.09589301 -0.08751367 -0.01729258
v 0.09504848 -0.08768437 -0.01724612
v 0.06165582 -0.08820172 -0.01749904
v 0.04642527 -0.08800038 -0.01783585
v 0.03720345 -0.08813822 -0.01780359
v 0.01165419 -0.08804222 -0.01796102
v 0.00003470 -0.08822375 -0.01766680
v 0.00003470 -0.08805977 -0.01774036
v 0.00003470 -0.08790737 -0.01777004
v 0.00003470 -0.08768774 -0.01781004
v 0.00003470 -0.08747931 -0.01778681
v 0.00003470 -0.08741356 -0.01777649
v 0.01390625 -0.08682002 -0.01757260
v 0.03519407 -0.08687381 -0.01785908
v 0.03586387 -0.08702733 -0.01797134
v 0.00003470 -0.08684542 -0.01737645
v 0.01121736 -0.08716928 -0.01780359
v 0.09380596 -0.08626645 -0.01718160
v 0.09586388 -0.08635535 -0.01725386
v 0.05281259 -0.08683086 -0.01778939
v 0.05256020 -0.08666799 -0.01769519
v 0.09663074 -0.08651223 -0.01721902
v 0.00003470 -0.08753534 -0.01779326
v 0.09680548 -0.08672216 -0.01726677
v 0.09685401 -0.08706955 -0.01726548
v 0.09656279 -0.08727125 -0.01727709
v 0.09457282 -0.08789318 -0.01708352
v 0.09653367 -0.08766271 -0.01705642
v 0.09565032 -0.08779532 -0.01711836
v 0.06072393 -0.08832647 -0.01737645
v 0.04295010 -0.08856628 -0.01739968
v 0.04378492 -0.08850278 -0.01744614
v 0.00074333 -0.08841014 -0.01750679
v 0.00003470 -0.08824691 -0.01765261
v 0.01745908 -0.08671394 -0.01750163
v 0.00549013 -0.08689958 -0.01750421
v 0.00003470 -0.08671991 -0.01723967
v 0.03557265 -0.08673486 -0.01769390
v 0.05285141 -0.08653763 -0.01754292
v 0.09487375 -0.08611293 -0.01700352
v 0.09623275 -0.08617045 -0.01698416
v 0.09666958 -0.08628438 -0.01703062
v 0.09707727 -0.08641885 -0.01699319
v 0.09733937 -0.08664857 -0.01699448
v 0.09718406 -0.08692835 -0.01714417
v 0.09736849 -0.08714425 -0.01697384
v 0.09702875 -0.08745167 -0.01700094
v 0.09571827 -0.08806388 -0.01682027
v 0.09439810 -0.08813933 -0.01677511
v 0.09624246 -0.08811655 -0.01658154
v 0.09698021 -0.08772621 -0.01678285
v 0.06113163 -0.08837914 -0.01728225
v 0.04347429 -0.08868842 -0.01724096
v 0.00019002 -0.08853565 -0.01731580
v 0.00003470 -0.08850278 -0.01734161
v 0.00171404 -0.08500392 -0.01495301
v 0.00733450 -0.08500392 -0.01500850
v 0.00003470 -0.08500392 -0.01492333
v 0.00006383 -0.08500392 -0.01492462
v 0.03294201 -0.08500392 -0.01492204
v 0.05285141 -0.08500392 -0.01482397
v 0.09300027 -0.08500392 -0.01458653
v 0.09509701 -0.08601320 -0.01677511
v 0.09920315 -0.08515445 -0.01401874
v 0.09709669 -0.08623806 -0.01675188
v 0.09744615 -0.08641549 -0.01674414
v 0.09769853 -0.08673411 -0.01669639
v 0.09749469 -0.08689099 -0.01694158
v 0.09765000 -0.08707627 -0.01676350
v 0.09753351 -0.08746250 -0.01664865
v 0.09573769 -0.08829734 -0.01632217
v 0.09698021 -0.08797424 -0.01639959
v 0.09654338 -0.08818528 -0.01626797
v 0.09737820 -0.08769670 -0.01652993
v 0.04284332 -0.08875529 -0.01701513
v 0.00074333 -0.08863651 -0.01710546
v 0.00003470 -0.08866078 -0.01697126
v 0.00003470 -0.08858720 -0.01716224
v 0.00003470 -0.08853303 -0.01729258
v 0.00003470 -0.08500392 -0.01162369
v 0.09300027 -0.08500392 -0.01097976
v 0.09920315 -0.08515445 -0.01073845
v 0.09920315 -0.08577339 -0.01412326
v 0.09787327 -0.08696869 -0.01647315
v 0.09787327 -0.08734820 -0.01631313
v 0.09769853 -0.08762423 -0.01623700
v 0.09680548 -0.08826858 -0.01564082
v 0.09609685 -0.08836495 -0.01554790
v 0.09300027 -0.08846767 -0.01538015
v 0.09300027 -0.08839520 -0.01591052
v 0.09736849 -0.08789579 -0.01617764
v 0.09702875 -0.08812141 -0.01599827
v 0.07710963 -0.08870523 -0.01232956
v 0.07625540 -0.08872018 -0.01203663
v 0.03921284 -0.08881991 -0.01320060
v 0.00062684 -0.08874109 -0.01642927
v 0.00003470 -0.08872092 -0.01668478
v 0.00003470 -0.08871943 -0.01670285
v 0.00085011 -0.08870673 -0.01685125
v 0.09243725 -0.08841500 -0.01582664
v 0.09246637 -0.08849942 -0.01520078
v 0.00003470 -0.08867759 -0.01690544
v 0.00232560 -0.08500392 -0.01159401
v 0.00003470 -0.08642296 -0.01073974
v 0.00004442 -0.08636618 -0.00492116
v 0.01479931 -0.08625450 -0.00492116
v 0.09756264 -0.08540173 -0.00703489
v 0.09091322 -0.08500392 -0.01095653
v 0.09756264 -0.08639868 -0.00492116
v 0.09920315 -0.08734484 -0.01073845
v 0.09920315 -0.08601506 -0.01413617
v 0.09920315 -0.08628401 -0.01412971
v 0.09920315 -0.08652418 -0.01407552
v 0.09920315 -0.08663102 -0.01404584
v 0.09920315 -0.08668816 -0.01401229
v 0.09920315 -0.08693844 -0.01384840
v 0.09920315 -0.08703294 -0.01371678
v 0.09920315 -0.08714238 -0.01351934
v 0.09920315 -0.08729067 -0.01315156
v 0.09920315 -0.08736239 -0.01291670
v 0.09747527 -0.08800374 -0.01560468
v 0.09716464 -0.08818677 -0.01537111
v 0.09756264 -0.08852929 -0.00648904
v 0.09511642 -0.08855768 -0.01017711
v 0.09493199 -0.08854798 -0.01073845
v 0.09396127 -0.08849606 -0.01370000
v 0.09300027 -0.08849867 -0.01467299
v 0.09300027 -0.08848037 -0.01525110
v 0.08823404 -0.08858234 -0.01291799
v 0.09607744 -0.08855507 -0.00810338
v 0.09270905 -0.08858943 -0.00505149
v 0.03987293 -0.08881206 -0.01276443
v 0.00325749 -0.08868842 -0.01283670
v 0.00418937 -0.08853154 -0.00619611
v 0.00003470 -0.08863314 -0.01259151
v 0.00003470 -0.08873026 -0.01640475
v 0.00450000 -0.08500392 -0.01157336
v 0.00003470 -0.08857637 -0.01073974
v 0.00004442 -0.08838698 -0.00492116
v 0.01748820 -0.08624142 -0.00492116
v 0.02728273 -0.08500392 -0.01140560
v 0.02170111 -0.08622686 -0.00492116
v 0.03404863 -0.08622798 -0.00492116
v 0.04635731 -0.08624105 -0.00492116
v 0.07441104 -0.08628326 -0.00492116
v 0.09756264 -0.08852519 -0.00492116
v 0.09920315 -0.08738817 -0.01239666
v 0.09756264 -0.08846281 -0.00759882
v 0.09670840 -0.08853789 -0.00492116
v 0.09304880 -0.08858459 -0.00492116
v 0.09280612 -0.08858532 -0.00492116
v 0.03867895 -0.08879451 -0.01221084
v 0.00442234 -0.08848746 -0.00492116
v 0.00004442 -0.08841798 -0.00560767
v 0.00004442 -0.08842023 -0.00566961
v 0.00004442 -0.08850651 -0.00840534
v 0.00203438 -0.08843479 -0.00492116
v 0.00213145 -0.08843704 -0.00492116
f 1 2 3
f 1 3 4
f 1 4 5
f 1 5 6
f 1 6 7
f 1 7 8
f 1 8 9
f 1 9 2
f 2 10 11
f 2 11 12
f 2 12 13
f 2 13 14
f 2 14 15
f 2 15 3
f 2 9 16
f 2 16 10
f 3 15 14
f 3 14 17
f 3 17 4
f 4 17 5
f 5 18 19
f 5 19 6
f 5 17 20
f 5 20 21
f 5 21 22
f 5 22 18
f 6 23 24
f 6 24 7
f 6 19 23
f 7 25 26
f 7 26 8
f 7 24 25
f 8 26 9
f 9 27 28
f 9 28 29
f 9 29 30
f 9 30 16
f 9 26 27
f 10 16 31
f 10 31 32
f 10 32 11
f 11 33 34
f 11 34 35
f 11 35 12
f 11 32 36
f 11 36 37
f 11 37 33
f 12 35 13
f 13 38 39
f 13 39 14
f 13 35 40
f 13 40 41
f 13 41 38
f 14 39 42
f 14 42 17
f 16 30 43
f 16 43 31
f 17 21 20
f 17 42 44
f 17 44 45
f 17 45 46
f 17 46 21
f 18 23 19
f 18 22 47
f 18 47 23
f 21 46 48
f 21 48 49
f 21 49 22
f 22 49 47
f 23 50 51
f 23 51 52
f 23 52 24
f 23 47 50
f 24 52 25
f 25 52 51
f 25 51 26
f 26 51 53
f 26 53 54
f 26 54 27
f 27 54 75
f 27 75 99
f 27 99 98
f 27 98 97
f 27 97 122
f 27 122 118
f 27 118 117
f 27 117 156
f 27 156 155
f 27 155 158
f 27 158 124
f 27 124 100
f 27 100 78
f 27 78 57
f 27 57 36
f 27 36 32
f 27 32 31
f 27 31 43
f 27 43 30
f 27 30 29
f 27 29 28
f 33 55 34
f 33 37 56
f 33 56 36
f 33 36 57
f 33 57 55
f 34 55 58
f 34 58 59
f 34 59 41
f 34 41 35
f 35 41 40
f 36 56 37
f 38 60 39
f 38 41 60
f 39 61 62
f 39 62 42
f 39 60 61
f 41 59 60
f 42 62 63
f 42 63 44
f 44 63 64
f 44 64 65
f 44 65 45
f 45 65 66
f 45 66 67
f 45 67 46
f 46 67 48
f 47 49 68
f 47 68 69
f 47 69 50
f 48 70 68
f 48 68 49
f 48 67 71
f 48 71 70
f 50 72 73
f 50 73 51
f 50 69 72
f 51 73 53
f 53 74 54
f 53 73 74
f 54 74 75
f 55 57 76
f 55 76 77
f 55 77 58
f 57 78 79
f 57 79 76
f 58 77 59
f 59 77 60
f 60 77 80
f 60 80 81
f 60 81 82
f 60 82 83
f 60 83 61
f 61 83 84
f 61 84 62
f 62 84 85
f 62 85 63
f 63 85 84
f 63 84 86
f 63 86 64
f 64 86 87
f 64 87 88
f 64 88 65
f 65 88 66
f 66 88 89
f 66 89 90
f 66 90 67
f 67 90 71
f 68 91 69
f 68 70 91
f 69 91 73
f 69 73 72
f 70 71 92
f 70 92 93
f 70 93 91
f 71 90 94
f 71 94 92
f 73 91 95
f 73 95 96
f 73 96 74
f 74 96 97
f 74 97 98
f 74 98 99
f 74 99 75
f 76 79 78
f 76 78 100
f 76 100 123
f 76 123 157
f 76 157 161
f 76 161 128
f 76 128 101
f 76 101 82
f 76 82 81
f 76 81 80
f 76 80 77
f 82 101 102
f 82 102 84
f 82 84 83
f 84 102 130
f 84 130 167
f 84 167 140
f 84 140 139
f 84 139 138
f 84 138 137
f 84 137 136
f 84 136 135
f 84 135 134
f 84 134 133
f 84 133 132
f 84 132 131
f 84 131 103
f 84 103 104
f 84 104 87
f 84 87 86
f 87 104 89
f 87 89 88
f 89 104 105
f 89 105 90
f 90 105 106
f 90 106 94
f 91 93 107
f 91 107 108
f 91 108 109
f 91 109 110
f 91 110 95
f 92 94 111
f 92 111 112
f 92 112 93
f 93 112 107
f 94 106 111
f 95 113 114
f 95 114 115
f 95 115 116
f 95 116 117
f 95 117 118
f 95 118 119
f 95 119 96
f 95 110 120
f 95 120 121
f 95 121 113
f 96 119 97
f 97 119 122
f 100 124 125
f 100 125 126
f 100 126 127
f 100 127 123
f 101 128 127
f 101 127 102
f 102 127 129
f 102 129 166
f 102 166 130
f 103 131 104
f 104 131 132
f 104 132 133
f 104 133 134
f 104 134 105
f 105 134 135
f 105 135 136
f 105 136 137
f 105 137 106
f 106 137 138
f 106 138 139
f 106 139 140
f 106 140 141
f 106 141 111
f 107 112 142
f 107 142 143
f 107 143 108
f 108 144 145
f 108 145 146
f 108 146 147
f 108 147 148
f 108 148 109
f 108 143 144
f 109 148 121
f 109 121 120
f 109 120 110
f 111 141 112
f 112 141 142
f 113 121 114
f 114 121 149
f 114 149 144
f 114 144 150
f 114 150 151
f 114 151 115
f 115 151 152
f 115 152 153
f 115 153 116
f 116 153 154
f 116 154 155
f 116 155 156
f 116 156 117
f 118 122 119
f 121 148 147
f 121 147 144
f 121 144 149
f 123 127 157
f 124 158 159
f 124 159 125
f 125 159 177
f 125 177 178
f 125 178 173
f 125 173 171
f 125 171 170
f 125 170 169
f 125 169 166
f 125 166 129
f 125 129 165
f 125 165 164
f 125 164 163
f 125 163 162
f 125 162 160
f 125 160 126
f 126 160 127
f 127 128 161
f 127 161 157
f 127 160 162
f 127 162 163
f 127 163 164
f 127 164 165
f 127 165 129
f 130 166 167
f 140 167 143
f 140 143 168
f 140 168 142
f 140 142 141
f 142 168 143
f 143 167 166
f 143 166 169
f 143 169 150
f 143 150 144
f 144 147 145
f 145 147 146
f 150 169 151
f 151 169 170
f 151 170 171
f 151 171 172
f 151 172 152
f 152 172 154
f 152 154 153
f 154 173 174
f 154 174 175
f 154 175 176
f 154 176 155
f 154 172 173
f 155 176 158
f 158 176 175
f 158 175 174
f 158 174 159
f 159 174 177
f 171 173 172
f 173 178 174
f 174 178 177

