# https://github.com/mikedh/trimesh
v 0.15583237 0.06973457 0.01066583
v 0.15393494 0.06973457 0.01066583
v 0.15589925 0.06936099 0.01066583
v 0.15581954 0.06973457 0.00750677
v 0.15363899 0.06973457 0.00871846
v 0.15386027 0.02372187 0.01066583
v 0.15597518 0.06877468 0.01066583
v 0.15582456 0.06969306 0.00754066
v 0.15577377 0.06954259 0.00383561
v 0.15575969 0.06973457 0.00423518
v 0.15356356 0.06973457 0.00797918
v 0.15361686 0.06733224 0.00853310
v 0.15386027 0.02369593 0.01066583
v 0.15601341 0.06837515 0.01066583
v 0.15575265 0.06963080 0.00329828
v 0.15585348 0.06847892 0.00329828
v 0.15573832 0.06973457 0.00329828
v 0.15349793 0.06973457 0.00671700
v 0.15351201 0.06806902 0.00736324
v 0.15385674 0.01672761 0.01023381
v 0.15388390 0.01672761 0.01066583
v 0.15604534 0.06774214 0.01066583
v 0.15586053 0.06827657 0.00329828
v 0.15372373 0.06973457 0.00329828
v 0.15350346 0.06973457 0.00651433
v 0.15363799 0.01672761 0.00329828
v 0.15597191 0.01672761 0.01066583
v 0.15606646 0.06665253 0.01066583
v 0.15591911 0.06597800 0.00329828
v 0.15351754 0.06973457 0.00628497
v 0.15371845 0.06692233 0.00329828
v 0.15576824 0.01672761 0.00329828
v 0.15582909 0.02356621 0.00329828
v 0.15604886 0.05371211 0.01066583
v 0.15606369 0.06290634 0.01066583
v 0.15606042 0.06014600 0.01066583
v 0.15605666 0.05759838 0.01066583
f 1 2 6
f 1 6 13
f 1 13 21
f 1 21 27
f 1 27 34
f 1 34 37
f 1 37 36
f 1 36 35
f 1 35 28
f 1 28 22
f 1 22 14
f 1 14 7
f 1 7 3
f 1 3 4
f 1 4 10
f 1 10 17
f 1 17 24
f 1 24 30
f 1 30 25
f 1 25 18
f 1 18 11
f 1 11 5
f 1 5 2
f 2 5 6
f 3 7 4
f 4 7 8
f 4 8 9
f 4 9 10
f 5 11 12
f 5 12 6
f 6 12 13
f 7 14 9
f 7 9 8
f 9 15 10
f 9 14 16
f 9 16 15
f 10 15 17
f 11 18 19
f 11 19 13
f 11 13 12
f 13 20 21
f 13 19 20
f 14 22 16
f 15 16 23
f 15 23 29
f 15 29 33
f 15 33 32
f 15 32 26
f 15 26 31
f 15 31 24
f 15 24 17
f 16 22 23
f 18 25 26
f 18 26 19
f 19 26 20
f 20 26 32
f 20 32 27
f 20 27 21
f 22 28 29
f 22 29 23
f 24 31 30
f 25 30 26
f 26 30 31
f 27 32 33
f 27 33 29
f 27 29 34
f 28 35 29
f 29 35 36
f 29 36 37
f 29 37 34

