# https://github.com/mikedh/trimesh
v 0.14986909 0.02979027 -0.00166096
v 0.14988099 0.02938361 -0.00150856
v 0.14987570 0.03201364 -0.00166096
v 0.14987438 0.00262798 -0.00166096
v 0.15000458 0.03346348 -0.00091641
v 0.14992131 0.00009077 -0.00114550
v 0.14992792 0.00009077 -0.00109114
v 0.15002177 0.01169829 -0.00064994
v 0.15004755 0.02904325 -0.00063392
v 0.14990148 0.03440498 -0.00166096
v 0.14988297 0.00009077 -0.00166096
v 0.15016851 0.03457295 -0.00040920
v 0.15004094 0.03652669 -0.00117850
v 0.15007003 0.00009077 -0.00038444
v 0.15008192 0.00098808 -0.00034464
v 0.15009250 0.00009077 -0.00030581
v 0.15011827 0.00009077 -0.00023204
v 0.15018900 0.00979317 -0.00010487
v 0.15031722 0.03013063 0.00008297
v 0.14992660 0.03533323 -0.00166096
v 0.15196301 0.00009077 -0.00166096
v 0.15033904 0.03482933 -0.00000828
v 0.15032119 0.03790580 -0.00061596
v 0.15011761 0.03902854 -0.00166096
v 0.15004028 0.03812681 -0.00166096
v 0.15000458 0.03730024 -0.00166096
v 0.15027558 0.00009077 0.00019509
v 0.15058557 0.03342370 0.00052951
v 0.15032780 0.01808993 0.00019751
v 0.15513495 0.00009077 0.00004511
v 0.15570469 0.04340014 -0.00166096
v 0.15068604 0.03584156 0.00047175
v 0.15053005 0.03706154 0.00002084
v 0.15054525 0.03860862 -0.00037474
v 0.15055121 0.03918767 -0.00052374
v 0.15031392 0.03860862 -0.00085476
v 0.15030664 0.03932912 -0.00109939
v 0.15021279 0.03978882 -0.00166096
v 0.15057962 0.00009077 0.00074258
v 0.15068802 0.01504440 0.00081102
v 0.15083343 0.03166887 0.00087363
v 0.15078782 0.03471882 0.00072851
v 0.15536562 0.00009077 0.00018392
v 0.15574501 0.04524780 -0.00166096
v 0.15586068 0.00009077 0.00075277
v 0.15569808 0.00009077 0.00049456
v 0.15566173 0.00009077 0.00044651
v 0.15543171 0.00009077 0.00022955
v 0.15378263 0.04524780 0.00329756
v 0.15076007 0.03860862 0.00000191
v 0.15077725 0.03872355 0.00000045
v 0.15070454 0.04009824 -0.00064703
v 0.15038398 0.04060656 -0.00166096
v 0.15088036 0.00009077 0.00113185
v 0.15073627 0.00546577 0.00092896
v 0.15091870 0.01718821 0.00108865
v 0.15121745 0.03463926 0.00116825
v 0.15110177 0.02864101 0.00116388
v 0.15365044 0.04524780 -0.00166096
v 0.15578798 0.04524780 -0.00043541
v 0.15661285 0.00711893 0.00329756
v 0.15662078 0.00578844 0.00329756
v 0.15641787 0.00716755 0.00245011
v 0.15600939 0.00009077 0.00115078
v 0.15592281 0.00009077 0.00089499
v 0.15371190 0.03678307 0.00329756
v 0.15582830 0.04524780 0.00329756
v 0.15142168 0.04260892 -0.00166096
v 0.15133443 0.04249842 -0.00166096
v 0.15090878 0.04192379 -0.00166096
v 0.15070983 0.04152597 -0.00166096
v 0.15061928 0.04131822 -0.00166096
v 0.15040844 0.04069496 -0.00166096
v 0.15039984 0.04066845 -0.00166096
v 0.15102577 0.00009077 0.00127212
v 0.15120555 0.00009077 0.00143909
v 0.15138401 0.01574721 0.00148956
v 0.15660425 0.00505911 0.00329756
v 0.15604377 0.00009077 0.00130804
v 0.15360218 0.01618039 0.00329756
v 0.15389102 0.00009077 0.00329756
v 0.15360417 0.01442998 0.00329756
v 0.15656129 0.00400709 0.00329756
v 0.15612837 0.00009077 0.00198949
v 0.15617199 0.00009077 0.00329756
v 0.15650511 0.00320703 0.00329756
v 0.15640399 0.00192075 0.00329756
v 0.15615613 0.00009077 0.00252825
v 0.15617596 0.00009077 0.00310196
v 0.15622553 0.00050185 0.00329756
f 1 2 3
f 1 3 10
f 1 10 20
f 1 20 26
f 1 26 25
f 1 25 24
f 1 24 38
f 1 38 53
f 1 53 74
f 1 74 73
f 1 73 72
f 1 72 71
f 1 71 70
f 1 70 69
f 1 69 68
f 1 68 59
f 1 59 44
f 1 44 31
f 1 31 21
f 1 21 11
f 1 11 4
f 1 4 2
f 2 5 3
f 2 4 6
f 2 6 7
f 2 7 8
f 2 8 9
f 2 9 5
f 3 5 10
f 4 11 6
f 5 12 13
f 5 13 10
f 5 9 12
f 6 11 21
f 6 21 30
f 6 30 43
f 6 43 48
f 6 48 47
f 6 47 46
f 6 46 45
f 6 45 65
f 6 65 64
f 6 64 79
f 6 79 84
f 6 84 88
f 6 88 89
f 6 89 85
f 6 85 81
f 6 81 76
f 6 76 75
f 6 75 54
f 6 54 39
f 6 39 27
f 6 27 17
f 6 17 16
f 6 16 14
f 6 14 7
f 7 14 8
f 8 14 9
f 9 14 15
f 9 15 16
f 9 16 17
f 9 17 18
f 9 18 19
f 9 19 12
f 10 13 20
f 12 22 23
f 12 23 13
f 12 19 22
f 13 23 24
f 13 24 25
f 13 25 26
f 13 26 20
f 14 16 15
f 17 27 18
f 18 27 19
f 19 28 22
f 19 27 29
f 19 29 28
f 21 31 30
f 22 28 32
f 22 32 33
f 22 33 23
f 23 33 34
f 23 34 35
f 23 35 36
f 23 36 24
f 24 37 38
f 24 36 37
f 27 39 29
f 28 29 39
f 28 39 40
f 28 40 41
f 28 41 42
f 28 42 32
f 30 31 43
f 31 44 45
f 31 45 46
f 31 46 47
f 31 47 48
f 31 48 43
f 32 42 49
f 32 49 33
f 33 49 50
f 33 50 34
f 34 50 51
f 34 51 35
f 35 37 36
f 35 51 49
f 35 49 37
f 37 49 52
f 37 52 53
f 37 53 38
f 39 54 55
f 39 55 40
f 40 56 41
f 40 55 56
f 41 57 42
f 41 56 58
f 41 58 49
f 41 49 57
f 42 57 49
f 44 59 49
f 44 49 67
f 44 67 60
f 44 60 61
f 44 61 62
f 44 62 63
f 44 63 64
f 44 64 65
f 44 65 45
f 49 66 80
f 49 80 82
f 49 82 81
f 49 81 85
f 49 85 90
f 49 90 87
f 49 87 86
f 49 86 83
f 49 83 78
f 49 78 62
f 49 62 61
f 49 61 67
f 49 59 68
f 49 68 69
f 49 69 70
f 49 70 71
f 49 71 72
f 49 72 73
f 49 73 74
f 49 74 52
f 49 51 50
f 49 58 66
f 52 74 53
f 54 75 56
f 54 56 55
f 56 75 76
f 56 76 77
f 56 77 58
f 58 77 66
f 60 67 61
f 62 78 64
f 62 64 63
f 64 78 79
f 66 77 76
f 66 76 80
f 76 81 82
f 76 82 80
f 78 83 79
f 79 83 84
f 83 86 84
f 84 86 87
f 84 87 88
f 85 89 90
f 87 89 88
f 87 90 89

