# https://github.com/mikedh/trimesh
v 0.05955301 0.00009455 -0.01554206
v 0.06621670 0.00009455 -0.01550067
v 0.05955301 0.00009455 -0.01245375
v 0.05955301 0.03164655 -0.01673573
v 0.06872314 0.00009455 -0.01548306
v 0.06190647 0.00009455 -0.01243306
v 0.05955301 0.03869379 -0.01235556
v 0.07469306 0.00009455 -0.01540293
v 0.07033302 0.00009455 -0.01546765
v 0.06901843 0.00009455 -0.01548086
v 0.05955301 0.03192995 -0.01668334
v 0.06542510 0.03501336 -0.01669699
v 0.07772605 0.00009455 -0.01230801
v 0.07772605 0.03523252 -0.01224020
v 0.07772605 0.03717854 -0.01223756
v 0.07772605 0.03869379 -0.01224549
v 0.05955301 0.03869379 -0.01533292
v 0.07772605 0.00030238 -0.01533248
v 0.07772605 0.00009455 -0.01532191
v 0.06648353 0.03564440 -0.01668114
v 0.07772605 0.03869379 -0.01524133
v 0.07248725 0.03869379 -0.01649048
v 0.07772605 0.00165137 -0.01536858
v 0.07006441 0.03711808 -0.01660364
v 0.07279855 0.03869002 -0.01651074
v 0.07772605 0.01865544 -0.01533072
v 0.07378227 0.03869379 -0.01634298
v 0.07280923 0.03869379 -0.01651030
v 0.07772605 0.00238821 -0.01538399
v 0.07772605 0.01279470 -0.01535405
v 0.07772605 0.00319685 -0.01538399
f 1 2 5
f 1 5 10
f 1 10 9
f 1 9 8
f 1 8 19
f 1 19 13
f 1 13 6
f 1 6 3
f 1 3 7
f 1 7 17
f 1 17 11
f 1 11 4
f 1 4 2
f 2 4 5
f 3 6 7
f 4 8 9
f 4 9 10
f 4 10 5
f 4 11 12
f 4 12 8
f 6 13 7
f 7 14 15
f 7 15 16
f 7 16 21
f 7 21 27
f 7 27 28
f 7 28 22
f 7 22 17
f 7 13 14
f 8 18 19
f 8 12 18
f 11 17 12
f 12 17 20
f 12 20 18
f 13 19 18
f 13 18 23
f 13 23 29
f 13 29 31
f 13 31 30
f 13 30 26
f 13 26 21
f 13 21 16
f 13 16 15
f 13 15 14
f 17 22 20
f 18 20 24
f 18 24 23
f 20 22 25
f 20 25 24
f 21 26 27
f 22 28 25
f 23 24 25
f 23 25 28
f 23 28 29
f 26 30 27
f 27 30 31
f 27 31 29
f 27 29 28

