# https://github.com/mikedh/trimesh
v 0.00002236 -0.02516148 -0.01264074
v 0.00002236 -0.04742753 -0.01254569
v 0.00002236 -0.02516148 -0.01578120
v -0.03321792 -0.02516148 -0.01264348
v 0.00002236 -0.04742753 -0.01577160
v -0.03321792 -0.04742753 -0.01259230
v 0.00002236 -0.03933930 -0.01719971
v -0.03021442 -0.02516148 -0.01714213
v -0.03321792 -0.02516148 -0.01569620
v 0.00002236 -0.03961828 -0.01720245
v -0.01111956 -0.04742753 -0.01579582
v -0.03321792 -0.04742753 -0.01579720
v 0.00002236 -0.03949841 -0.01721387
v -0.03032831 -0.02516148 -0.01714395
v -0.03313982 -0.02516148 -0.01583741
v -0.03321792 -0.02516366 -0.01581045
v -0.02451980 -0.04742753 -0.01580542
v -0.02829126 -0.04742753 -0.01580542
v -0.02929352 -0.04742753 -0.01580405
v -0.03188375 -0.04742753 -0.01580039
v -0.00103522 -0.03966623 -0.01718965
v -0.00162420 -0.03946354 -0.01720474
v -0.03321792 -0.04585173 -0.01580177
v -0.03112881 -0.02516148 -0.01691500
v -0.03075134 -0.02516148 -0.01708546
v -0.03061792 -0.02516148 -0.01711516
v -0.02885422 -0.02709690 -0.01716315
v -0.02750053 -0.02844603 -0.01717823
v -0.02016586 -0.03411280 -0.01715766
v -0.01496261 -0.03648848 -0.01711516
v -0.00900767 -0.03832147 -0.01712430
v -0.00573083 -0.03914750 -0.01713481
v -0.03321792 -0.04297911 -0.01580999
f 1 2 5
f 1 5 10
f 1 10 13
f 1 13 7
f 1 7 3
f 1 3 8
f 1 8 14
f 1 14 26
f 1 26 25
f 1 25 24
f 1 24 15
f 1 15 9
f 1 9 4
f 1 4 2
f 2 4 6
f 2 6 12
f 2 12 20
f 2 20 19
f 2 19 18
f 2 18 17
f 2 17 11
f 2 11 5
f 3 7 8
f 4 9 16
f 4 16 33
f 4 33 23
f 4 23 12
f 4 12 6
f 5 11 10
f 7 13 8
f 8 13 14
f 9 15 16
f 10 11 17
f 10 17 18
f 10 18 19
f 10 19 20
f 10 20 12
f 10 12 21
f 10 21 22
f 10 22 13
f 12 23 24
f 12 24 25
f 12 25 26
f 12 26 14
f 12 14 27
f 12 27 28
f 12 28 29
f 12 29 30
f 12 30 31
f 12 31 32
f 12 32 22
f 12 22 21
f 13 22 29
f 13 29 28
f 13 28 14
f 14 28 27
f 15 24 16
f 16 24 33
f 22 32 31
f 22 31 29
f 23 33 24
f 29 31 30

