# https://github.com/mikedh/trimesh
v -0.03321792 -0.02516148 -0.01264366
v -0.03321792 -0.04742753 -0.01259245
v -0.03321792 -0.02516148 -0.01569635
v -0.03486700 -0.02516148 -0.01263714
v -0.05074046 -0.03543577 -0.01236250
v -0.04686230 -0.03844788 -0.01239741
v -0.03321792 -0.04742753 -0.01579737
v -0.05225324 -0.03909520 -0.01234528
v -0.04986380 -0.04322322 -0.01240113
v -0.05085806 -0.04742753 -0.01251285
v -0.03321792 -0.02516366 -0.01581040
v -0.03322059 -0.02516148 -0.01581040
v -0.03712815 -0.02516148 -0.01262923
v -0.05702409 -0.02516148 -0.01256173
v -0.06052272 -0.02516148 -0.01255707
v -0.05338915 -0.03289880 -0.01241184
v -0.05580265 -0.03663887 -0.01239788
v -0.04645337 -0.02516148 -0.01708119
v -0.03321792 -0.04297911 -0.01580993
v -0.04159966 -0.04742753 -0.01577688
v -0.06052272 -0.03262854 -0.01702952
v -0.05955519 -0.03208148 -0.01704442
v -0.05387292 -0.02882963 -0.01709981
v -0.05210356 -0.04261295 -0.01238112
v -0.05517990 -0.04099357 -0.01238438
v -0.06052272 -0.04742753 -0.01248911
v -0.06052272 -0.02516148 -0.01568937
v -0.06052272 -0.03850890 -0.01250215
v -0.04697456 -0.02516148 -0.01709190
v -0.05454913 -0.04742753 -0.01572847
v -0.06052272 -0.03247598 -0.01702068
v -0.05621425 -0.04742753 -0.01572056
v -0.05732344 -0.04742753 -0.01571404
v -0.06052272 -0.04742753 -0.01569170
v -0.06052272 -0.03234738 -0.01700346
v -0.06052272 -0.03218392 -0.01697739
v -0.04761602 -0.02522033 -0.01704256
v -0.04727925 -0.02516148 -0.01706583
v -0.04751713 -0.02516148 -0.01704116
f 1 2 7
f 1 7 19
f 1 19 11
f 1 11 3
f 1 3 12
f 1 12 18
f 1 18 29
f 1 29 38
f 1 38 39
f 1 39 27
f 1 27 15
f 1 15 14
f 1 14 13
f 1 13 4
f 1 4 5
f 1 5 6
f 1 6 2
f 2 6 8
f 2 8 9
f 2 9 10
f 2 10 26
f 2 26 34
f 2 34 33
f 2 33 32
f 2 32 30
f 2 30 20
f 2 20 7
f 3 11 12
f 4 13 5
f 5 8 6
f 5 13 14
f 5 14 15
f 5 15 16
f 5 16 17
f 5 17 8
f 7 18 19
f 7 20 21
f 7 21 22
f 7 22 23
f 7 23 18
f 8 24 9
f 8 17 25
f 8 25 24
f 9 24 26
f 9 26 10
f 11 19 18
f 11 18 12
f 15 27 36
f 15 36 35
f 15 35 31
f 15 31 21
f 15 21 34
f 15 34 26
f 15 26 28
f 15 28 17
f 15 17 16
f 17 28 26
f 17 26 25
f 18 23 29
f 20 30 21
f 21 31 22
f 21 30 32
f 21 32 33
f 21 33 34
f 22 31 23
f 23 31 35
f 23 35 36
f 23 36 27
f 23 27 37
f 23 37 38
f 23 38 29
f 24 25 26
f 27 39 37
f 37 39 38

