# https://github.com/mikedh/trimesh
v -0.15558615 0.05508299 -0.01153379
v -0.15287575 0.05508299 -0.01153379
v -0.15569707 0.05508299 -0.01152737
v -0.15569745 0.05513635 -0.01153379
v -0.15212312 0.05529217 -0.01153379
v -0.15393350 0.05508299 0.01031825
v -0.15575157 0.05508299 -0.00992312
v -0.15570091 0.06150816 -0.01153379
v -0.15212312 0.06988010 -0.01153379
v -0.15212312 0.05553339 -0.01152095
v -0.15353128 0.07103920 0.01031825
v -0.15602253 0.05508299 0.01031825
v -0.15576308 0.05508299 -0.00957446
v -0.15569898 0.06755338 -0.01153379
v -0.15212312 0.06988010 -0.01118727
v -0.15548828 0.06988010 -0.01153379
v -0.15353128 0.07614519 -0.00992098
v -0.15353128 0.07689016 0.01031825
v -0.15212312 0.05620152 -0.01148887
v -0.15604402 0.06672729 0.01031825
v -0.15585750 0.06646900 -0.00432963
v -0.15581527 0.05508299 -0.00579485
v -0.15579302 0.06019965 -0.00809855
v -0.15564180 0.06843497 -0.01153379
v -0.15581028 0.06806569 -0.00146123
v -0.15540653 0.07050341 -0.00992098
v -0.15516781 0.07158566 -0.00992098
v -0.15506802 0.07196135 -0.00992098
v -0.15474332 0.07303933 -0.00992098
v -0.15462281 0.07343850 -0.00992098
v -0.15454681 0.07365410 -0.00992098
v -0.15419104 0.07465309 -0.00992098
v -0.15392238 0.07537032 -0.00992098
v -0.15553012 0.06960047 -0.01153379
v -0.15575579 0.06994201 0.01031825
v -0.15562453 0.07076383 0.01031825
v -0.15368480 0.07645470 0.00667339
v -0.15413653 0.07562861 0.01031825
v -0.15588244 0.06897290 0.01031825
v -0.15561378 0.06905828 -0.00992312
v -0.15560879 0.06916714 -0.00963649
v -0.15550094 0.07151308 0.01031825
v -0.15536278 0.07087697 -0.00833384
v -0.15530175 0.07237119 0.01031825
v -0.15516282 0.07261027 0.00563812
v -0.15490030 0.07367971 0.01031825
v -0.15465390 0.07407462 0.00431194
v -0.15427086 0.07529348 0.01031825
v -0.15559690 0.06923332 -0.00992312
f 1 2 6
f 1 6 12
f 1 12 22
f 1 22 13
f 1 13 7
f 1 7 3
f 1 3 4
f 1 4 8
f 1 8 14
f 1 14 24
f 1 24 34
f 1 34 16
f 1 16 9
f 1 9 5
f 1 5 2
f 2 5 6
f 3 7 4
f 4 7 8
f 5 9 15
f 5 15 19
f 5 19 10
f 5 10 11
f 5 11 6
f 6 11 18
f 6 18 38
f 6 38 48
f 6 48 46
f 6 46 44
f 6 44 42
f 6 42 36
f 6 36 35
f 6 35 39
f 6 39 20
f 6 20 12
f 7 13 8
f 8 13 14
f 9 16 17
f 9 17 18
f 9 18 15
f 10 19 11
f 11 19 15
f 11 15 18
f 12 20 21
f 12 21 22
f 13 22 21
f 13 21 23
f 13 23 14
f 14 23 21
f 14 21 25
f 14 25 24
f 16 26 27
f 16 27 28
f 16 28 29
f 16 29 30
f 16 30 31
f 16 31 32
f 16 32 33
f 16 33 17
f 16 34 35
f 16 35 36
f 16 36 26
f 17 33 37
f 17 37 18
f 18 37 38
f 20 39 25
f 20 25 21
f 24 40 34
f 24 25 40
f 25 41 40
f 25 39 41
f 26 36 42
f 26 42 43
f 26 43 27
f 27 43 44
f 27 44 45
f 27 45 28
f 28 45 29
f 29 45 30
f 30 45 46
f 30 46 47
f 30 47 31
f 31 47 32
f 32 47 33
f 33 47 48
f 33 48 38
f 33 38 37
f 34 40 49
f 34 49 39
f 34 39 35
f 39 49 41
f 40 41 49
f 42 44 43
f 44 46 45
f 46 48 47

