# https://github.com/mikedh/trimesh
v -0.04370000 -0.00844514 -0.10173487
v -0.04222439 -0.00844514 -0.10173487
v -0.04222439 -0.00801943 -0.10090539
v -0.04370000 -0.00801220 -0.10089176
v -0.04370000 -0.00844080 -0.10268235
v -0.04222439 -0.00844080 -0.10268235
v -0.04222439 -0.00801220 -0.10089176
v -0.04222439 -0.00725265 -0.10035123
v -0.04370000 -0.00723999 -0.10034227
v -0.04370000 -0.00800062 -0.10352196
v -0.04222439 -0.00800062 -0.10352196
v -0.04222439 -0.00723999 -0.10034227
v -0.04370000 -0.00630176 -0.10020987
v -0.04370000 -0.00722335 -0.10406443
v -0.04222439 -0.00722335 -0.10406443
v -0.04222439 -0.00630176 -0.10020987
v -0.04222439 -0.00477542 -0.10312007
v -0.04370000 -0.00475011 -0.10316836
v -0.04370000 -0.00628404 -0.10418827
v -0.04222439 -0.00628404 -0.10418827
v -0.04222439 -0.00475011 -0.10316836
v -0.04222439 -0.00538234 -0.10385375
v -0.04370000 -0.00539283 -0.10386504
v -0.04222439 -0.00539283 -0.10386504
f 1 2 3
f 1 3 4
f 1 4 9
f 1 9 13
f 1 13 18
f 1 18 23
f 1 23 19
f 1 19 14
f 1 14 10
f 1 10 5
f 1 5 6
f 1 6 2
f 2 6 11
f 2 11 15
f 2 15 20
f 2 20 24
f 2 24 22
f 2 22 21
f 2 21 17
f 2 17 16
f 2 16 12
f 2 12 8
f 2 8 7
f 2 7 3
f 3 7 4
f 4 7 8
f 4 8 9
f 5 10 11
f 5 11 6
f 8 12 9
f 9 12 16
f 9 16 13
f 10 14 15
f 10 15 11
f 13 17 18
f 13 16 17
f 14 19 20
f 14 20 15
f 17 21 18
f 18 21 22
f 18 22 23
f 19 23 24
f 19 24 20
f 22 24 23

