# https://github.com/mikedh/trimesh
v 0.01600000 0.00299747 -0.02557024
v 0.01600000 0.00149924 -0.02557024
v 0.01600000 0.00450000 -0.03699724
v 0.01599668 0.00448708 -0.01801182
v 0.01600000 0.00149924 -0.03954320
v 0.01599668 0.00094817 -0.01801182
v 0.01600000 0.00450000 -0.03954320
v 0.01599668 0.00450000 -0.02400534
v 0.01599335 0.00450000 -0.01801182
v 0.01253657 0.00378318 -0.01284047
v 0.01310826 0.00094601 -0.01284445
v 0.01310826 -0.01359929 -0.01281664
v 0.01599668 0.00094817 -0.02200352
v 0.01310826 -0.01749123 -0.04085391
v 0.01309829 -0.01749123 -0.04203355
v 0.01586372 0.00149924 -0.04015884
v 0.01310826 -0.01749123 -0.01281664
v 0.01586372 0.00450000 -0.04015884
v 0.01253989 0.00450000 -0.01801182
v 0.01214435 0.00399198 -0.01284047
v 0.01253657 0.00399198 -0.01300332
v 0.01239696 0.00392310 -0.01284047
v 0.00985091 0.00399198 -0.01284047
v -0.00988602 -0.01621473 -0.01281664
v -0.01689266 -0.01749123 -0.04203355
v 0.01253657 0.00149924 -0.05339303
v -0.00988602 -0.01749123 -0.01281664
v 0.01253657 0.00399198 -0.05339303
v 0.01349715 0.00450000 -0.04384868
v -0.01795629 0.00398983 -0.01300729
v -0.01214290 0.00398983 -0.01284445
v 0.01253989 0.00450000 -0.04384868
v -0.01239552 0.00392310 -0.01284445
v -0.01341926 0.00289845 -0.01284445
v -0.01379485 0.00149709 -0.01284445
v -0.01795629 0.00094817 -0.04089363
v -0.01689599 0.00290275 -0.04394003
v 0.00436658 0.00149924 -0.05339303
v -0.01690596 -0.01749123 -0.02250795
v -0.01795629 0.00094817 -0.01300729
v -0.01690596 -0.01579712 -0.01635159
v -0.01690596 -0.01749123 -0.01730483
v 0.00740124 0.00399198 -0.05339303
v -0.01795629 0.00398983 -0.04089363
v 0.00436658 0.00299962 -0.05339303
f 1 2 5
f 1 5 7
f 1 7 3
f 1 3 4
f 1 4 6
f 1 6 2
f 2 6 13
f 2 13 5
f 3 7 18
f 3 18 29
f 3 29 32
f 3 32 19
f 3 19 9
f 3 9 8
f 3 8 4
f 4 9 10
f 4 10 11
f 4 11 12
f 4 12 17
f 4 17 6
f 4 8 9
f 5 13 14
f 5 14 15
f 5 15 16
f 5 16 18
f 5 18 7
f 6 17 14
f 6 14 13
f 9 19 23
f 9 23 20
f 9 20 21
f 9 21 10
f 10 22 12
f 10 12 11
f 10 21 22
f 12 22 20
f 12 20 23
f 12 23 24
f 12 24 27
f 12 27 17
f 14 17 27
f 14 27 42
f 14 42 39
f 14 39 25
f 14 25 15
f 15 25 38
f 15 38 26
f 15 26 16
f 16 26 28
f 16 28 18
f 18 28 29
f 19 30 31
f 19 31 23
f 19 32 44
f 19 44 30
f 20 22 21
f 23 31 24
f 24 31 33
f 24 33 34
f 24 34 35
f 24 35 27
f 25 36 37
f 25 37 38
f 25 39 36
f 26 38 45
f 26 45 43
f 26 43 28
f 27 35 40
f 27 40 41
f 27 41 42
f 28 43 32
f 28 32 29
f 30 40 35
f 30 35 34
f 30 34 33
f 30 33 31
f 30 44 36
f 30 36 40
f 32 43 44
f 36 44 37
f 36 39 42
f 36 42 40
f 37 44 43
f 37 43 45
f 37 45 38
f 40 42 41

