# https://github.com/mikedh/trimesh
v -0.01690870 0.00095083 -0.02254035
v -0.01690870 -0.00149800 -0.02254035
v -0.01690870 0.00095083 -0.02350941
v -0.01796062 0.00399232 -0.03750180
v -0.02156906 0.00399232 -0.02386261
v -0.02714130 0.00450211 -0.01912603
v -0.02502444 0.00094927 -0.01716075
v -0.02502444 -0.00349803 -0.01674415
v -0.02338956 -0.00349803 -0.02254035
v -0.01690870 -0.00149800 -0.02350941
v -0.02502444 -0.00349959 -0.01674415
v -0.01691196 0.00095083 -0.04089801
v -0.01796062 0.00399232 -0.04089801
v -0.03940609 0.01178761 -0.03861575
v -0.03677140 0.01023637 -0.03116220
v -0.02800433 0.00450211 -0.01943395
v -0.02714130 0.00351069 -0.01869131
v -0.03788195 0.01023637 -0.03116220
v -0.02714130 0.00304157 -0.01850112
v -0.02714130 0.00104622 -0.01772226
v -0.02630758 -0.00349959 -0.01707925
v -0.03949727 -0.00418764 -0.04117876
v -0.03949727 -0.00418764 -0.04939306
v -0.03952007 -0.00418764 -0.04967382
v -0.02600796 -0.00349959 -0.03689501
v -0.01691196 -0.00149800 -0.04089801
v -0.04568829 -0.00418764 -0.04117876
v -0.02565298 0.00399232 -0.09048270
v -0.02714130 0.00587351 -0.09618833
v -0.03940609 0.01178761 -0.03918632
v -0.03979038 0.01178761 -0.03846179
v -0.03988157 0.01178761 -0.03844368
v -0.03135223 0.00450211 -0.02107319
v -0.03087675 0.00277260 -0.02001357
v -0.02913767 0.00104622 -0.01847395
v -0.02785452 0.00297589 -0.01873659
v -0.03525378 0.00587351 -0.02436978
v -0.03995322 0.01178761 -0.03845274
v -0.04003463 0.01178761 -0.03849802
v -0.04007372 0.01178761 -0.03855236
v -0.03858214 0.01023637 -0.03217654
v -0.03964708 0.00894159 -0.03185956
v -0.03925302 0.00884620 -0.03116220
v -0.03671930 0.00587351 -0.02557430
v -0.02906928 0.00094927 -0.01843773
v -0.02855471 -0.00349959 -0.01793962
v -0.03953310 -0.00418764 -0.04973721
v -0.02616103 -0.00349959 -0.03766481
v -0.02676352 0.00095083 -0.09452192
v -0.02565298 0.00095083 -0.09048270
v -0.04574365 -0.00418764 -0.04133272
v -0.02960989 -0.00349959 -0.01847395
v -0.03076277 -0.00349959 -0.01914414
v -0.03282101 -0.00349959 -0.02064753
v -0.03449822 -0.00349959 -0.02217809
v -0.03494765 -0.00349959 -0.02264903
v -0.03565761 -0.00349803 -0.02338261
v -0.03656623 -0.00349803 -0.02442412
v -0.03825321 -0.00349803 -0.02660675
v -0.04026586 -0.00349803 -0.02962258
v -0.04207659 -0.00349803 -0.03276521
v -0.04384825 -0.00349803 -0.03634256
v -0.04538542 -0.00349803 -0.04001952
v -0.02676352 0.00399232 -0.09642380
v -0.04198866 0.00095083 -0.10926601
v -0.04198866 0.00157790 -0.10850526
v -0.04475036 0.01023637 -0.09092647
v -0.04033751 0.01178761 -0.03918632
v -0.03387944 0.00351069 -0.02214186
v -0.03357331 0.00268190 -0.02158036
v -0.03423443 0.00449429 -0.02282110
v -0.03100376 0.00104622 -0.01938867
v -0.03100376 0.00094927 -0.01937055
v -0.03666719 0.00452087 -0.02480449
v -0.04016490 0.01178761 -0.03874255
v -0.04015513 0.01171724 -0.03850708
v -0.04034402 0.01023637 -0.03532822
v -0.04102142 0.00951392 -0.03529199
v -0.04037333 0.00727307 -0.03116220
v -0.04203426 0.00750138 -0.03441351
v -0.04103770 0.00714797 -0.03219465
v -0.03874823 0.00587351 -0.02783844
v -0.03874498 0.00468350 -0.02715015
v -0.03976433 -0.00418764 -0.05039834
v -0.02676352 0.00150284 -0.09642380
v -0.04026586 -0.00418764 -0.05095985
v -0.04631358 -0.00418764 -0.04308970
v -0.04666205 -0.00349803 -0.04377800
v -0.03076277 -0.00349803 -0.01914414
v -0.03270377 0.00094927 -0.02045734
v -0.03438749 0.00094927 -0.02182488
v -0.03470339 -0.00349803 -0.02238639
v -0.03558271 0.00104622 -0.02308375
v -0.03723386 0.00094927 -0.02486789
v -0.03728922 0.00094927 -0.02494034
v -0.03801221 0.00267878 -0.02576449
v -0.03806432 0.00279137 -0.02582788
v -0.04002812 0.00297589 -0.02857202
v -0.03970570 0.00104622 -0.02828221
v -0.04076088 0.00094927 -0.02997579
v -0.04185840 0.00094927 -0.03188673
v -0.04198866 0.00103684 -0.03212220
v -0.04281587 0.00141683 -0.03370710
v -0.04315131 0.00156851 -0.03435011
v -0.04372775 0.00094927 -0.03558180
v -0.04438235 0.00118696 -0.03705803
v -0.04536262 0.00094927 -0.03946707
v -0.04199843 0.00095083 -0.10924790
v -0.04878868 0.00315572 -0.09617022
v -0.04872680 0.00351069 -0.09619739
v -0.04843696 0.00515419 -0.09627890
v -0.04829692 0.00564521 -0.09630607
v -0.04820899 0.00587351 -0.09633324
v -0.04399154 -0.00418764 -0.05426550
v -0.04890267 -0.00418764 -0.05426550
v -0.04663274 0.01023637 -0.09092647
v -0.04043195 0.01170786 -0.03918632
v -0.04693887 0.01023637 -0.08854459
v -0.04714079 0.01023637 -0.08658837
v -0.04770420 0.01023637 -0.07963293
v -0.04797776 0.01023637 -0.07620049
v -0.04798427 0.01023637 -0.07606465
v -0.04800382 0.01023637 -0.06849336
v -0.04797451 0.01023637 -0.06761487
v -0.04750554 0.01023637 -0.06057792
v -0.04746320 0.01023637 -0.06027906
v -0.04656109 0.01023637 -0.05441946
v -0.04569155 0.01023637 -0.05005419
v -0.04554499 0.01023637 -0.04943835
v -0.04541147 0.01023637 -0.04892212
v -0.04382219 0.01023637 -0.04388667
v -0.03558271 0.00268972 -0.02321054
v -0.03277216 0.00104622 -0.02052074
v -0.03439726 0.00104622 -0.02183394
v -0.03593117 0.00269129 -0.02350941
v -0.03868310 0.00450211 -0.02702335
v -0.03832811 0.00351069 -0.02632600
v -0.04073483 0.01103701 -0.03795463
v -0.04064364 0.01008782 -0.03560897
v -0.04103119 0.01048970 -0.03728444
v -0.04103770 0.00952487 -0.03534633
v -0.04337928 0.00821288 -0.03844368
v -0.04056548 0.00698221 -0.03116220
v -0.04229805 0.00541846 -0.03321804
v -0.04381242 0.00599549 -0.03707614
v -0.04060456 0.00498061 -0.02993957
v -0.04705285 -0.00418764 -0.04546252
v -0.04769117 -0.00349803 -0.04760892
v -0.04590323 0.00131050 -0.04102480
v -0.04668484 0.00094927 -0.04341573
v -0.03725340 0.00104622 -0.02488600
v -0.04185188 0.00325111 -0.03174182
v -0.04198866 0.00308848 -0.03198635
v -0.04281587 0.00200480 -0.03366181
v -0.04307641 0.00351069 -0.03434106
v -0.04352583 0.00351069 -0.03532822
v -0.04373752 0.00104622 -0.03560897
v -0.04494250 0.00351069 -0.03901424
v -0.04889290 0.00104622 -0.09615211
v -0.04888964 0.00095083 -0.09615211
v -0.04980152 0.00104622 -0.08447820
v -0.04962891 0.00296494 -0.08517555
v -0.04886359 0.00351069 -0.09454004
v -0.04833274 0.00587351 -0.09509249
v -0.04902642 0.00495403 -0.08940496
v -0.04844347 0.00672263 -0.09060043
v -0.04761301 0.00856942 -0.09092647
v -0.04725477 0.00921368 -0.09092647
v -0.04888313 -0.00418764 -0.05408436
v -0.04895152 -0.00349803 -0.05426550
v -0.04993179 0.00095083 -0.06403753
v -0.04993504 0.00095083 -0.06413715
v -0.05017930 0.00095083 -0.07239674
v -0.05008485 0.00095083 -0.07843747
v -0.04980478 0.00095083 -0.08446008
v -0.04889290 0.00095083 -0.09613399
v -0.04708542 0.00977194 -0.08963138
v -0.04194632 0.01040838 -0.03918632
v -0.04792565 0.00910891 -0.08503970
v -0.04882125 0.00729652 -0.08236801
v -0.04864213 0.00873361 -0.07394541
v -0.04855420 0.00896192 -0.06990618
v -0.04840439 0.00904167 -0.06608431
v -0.04793868 0.00881336 -0.05898397
v -0.04724826 0.00822383 -0.05250852
v -0.04553848 0.01004872 -0.04879533
v -0.04455821 0.00908232 -0.04321649
v -0.04222315 0.01023637 -0.03943084
v -0.04107027 0.01023637 -0.03680444
v -0.04103770 0.01009407 -0.03644218
v -0.04088464 0.01002996 -0.03599841
v -0.04210265 0.01025826 -0.03918632
v -0.04214498 0.01023637 -0.03924066
v -0.04404691 0.00611589 -0.03783689
v -0.04516070 0.00669448 -0.04155008
v -0.04167276 0.00525583 -0.03199540
v -0.04364633 0.00450211 -0.03600746
v -0.04353886 0.00361703 -0.03539162
v -0.04198866 0.00327769 -0.03201352
v -0.04211242 0.00450211 -0.03259314
v -0.04509557 0.00450211 -0.03982933
v -0.04506952 0.00405644 -0.03950330
v -0.04778236 -0.00418764 -0.04829722
v -0.04774328 0.00095083 -0.04750024
v -0.04802335 -0.00349803 -0.04908514
v -0.04800382 -0.00418764 -0.04927533
v -0.04550266 0.00421125 -0.04092518
v -0.04668810 0.00104622 -0.04345196
v -0.04718964 0.00142934 -0.04539006
v -0.04774328 0.00104622 -0.04750024
v -0.05008485 0.00104622 -0.07845558
v -0.04993179 0.00321045 -0.07593785
v -0.04959635 0.00351069 -0.08383518
v -0.04914366 0.00491181 -0.08802837
v -0.04949213 0.00351069 -0.08599064
v -0.04870727 0.00604396 -0.08963138
v -0.04879194 -0.00418764 -0.05339607
v -0.04878542 -0.00349803 -0.05314248
v -0.04871052 0.00094927 -0.05259909
v -0.04894826 0.00094927 -0.05426550
v -0.04915669 0.00095083 -0.05574172
v -0.04948562 0.00155131 -0.05929189
v -0.04993179 0.00104622 -0.06405564
v -0.05004903 0.00146062 -0.06754242
v -0.05017930 0.00104622 -0.07243296
v -0.04947911 0.00533402 -0.07932501
v -0.04901340 0.00587508 -0.08574611
v -0.04914366 0.00709793 -0.07156353
v -0.04880497 0.00735126 -0.06387451
v -0.04839136 0.00539344 -0.05499002
v -0.04894501 0.00633482 -0.06251603
v -0.04904922 0.00554044 -0.06144735
v -0.04751857 0.00502283 -0.04923910
v -0.04631358 0.00746854 -0.04669421
v -0.04641128 0.00454589 -0.04408592
v -0.04854117 0.00095083 -0.05157570
v -0.04832297 -0.00349803 -0.05056136
v -0.04816014 -0.00418764 -0.04999080
v -0.04824481 0.00152473 -0.05028967
v -0.04854443 0.00104622 -0.05160287
v -0.04986991 0.00299465 -0.07019599
v -0.04960938 0.00512291 -0.07337485
v -0.04867144 -0.00418764 -0.05270777
v -0.04856397 -0.00349803 -0.05186551
v -0.04869750 0.00104622 -0.05251758
v -0.04915669 0.00104622 -0.05575983
v -0.04927719 0.00351069 -0.06034245
v -0.04980152 0.00151691 -0.06307753
v -0.04912413 0.00156226 -0.05598624
v -0.04929999 0.00549040 -0.06501564
v -0.04998715 0.00147625 -0.06639224
v -0.04949213 0.00534809 -0.06894619
v -0.04953773 0.00526522 -0.07055826
v -0.04912413 0.00572339 -0.06313187
f 1 2 10
f 1 10 3
f 1 3 13
f 1 13 4
f 1 4 5
f 1 5 6
f 1 6 7
f 1 7 8
f 1 8 11
f 1 11 2
f 2 9 10
f 2 11 9
f 3 10 26
f 3 26 12
f 3 12 13
f 4 14 15
f 4 15 5
f 4 13 30
f 4 30 14
f 5 15 6
f 6 16 17
f 6 17 7
f 6 15 18
f 6 18 16
f 7 17 19
f 7 19 20
f 7 20 8
f 8 21 11
f 8 20 21
f 9 11 22
f 9 22 23
f 9 23 24
f 9 24 25
f 9 25 26
f 9 26 10
f 11 21 27
f 11 27 22
f 12 26 50
f 12 50 28
f 12 28 29
f 12 29 13
f 13 29 30
f 14 30 68
f 14 68 75
f 14 75 40
f 14 40 39
f 14 39 38
f 14 38 32
f 14 32 31
f 14 31 15
f 15 31 32
f 15 32 18
f 16 33 34
f 16 34 35
f 16 35 36
f 16 36 17
f 16 18 37
f 16 37 33
f 17 36 19
f 18 32 38
f 18 38 39
f 18 39 40
f 18 40 41
f 18 41 42
f 18 42 43
f 18 43 44
f 18 44 37
f 19 36 20
f 20 36 35
f 20 35 45
f 20 45 21
f 21 45 46
f 21 46 27
f 22 27 51
f 22 51 87
f 22 87 147
f 22 147 203
f 22 203 206
f 22 206 238
f 22 238 243
f 22 243 217
f 22 217 169
f 22 169 115
f 22 115 114
f 22 114 86
f 22 86 84
f 22 84 47
f 22 47 24
f 22 24 23
f 24 47 48
f 24 48 25
f 25 48 26
f 26 49 50
f 26 48 49
f 27 46 52
f 27 52 53
f 27 53 54
f 27 54 55
f 27 55 56
f 27 56 57
f 27 57 58
f 27 58 59
f 27 59 60
f 27 60 61
f 27 61 62
f 27 62 63
f 27 63 51
f 28 50 85
f 28 85 64
f 28 64 29
f 29 64 65
f 29 65 66
f 29 66 67
f 29 67 30
f 30 67 116
f 30 116 68
f 33 69 70
f 33 70 34
f 33 37 71
f 33 71 69
f 34 72 35
f 34 70 72
f 35 46 45
f 35 72 73
f 35 73 46
f 37 44 74
f 37 74 71
f 40 75 76
f 40 76 41
f 41 76 77
f 41 77 78
f 41 78 42
f 42 79 43
f 42 78 80
f 42 80 81
f 42 81 79
f 43 79 82
f 43 82 44
f 44 82 83
f 44 83 74
f 46 73 52
f 47 84 48
f 48 84 49
f 49 65 85
f 49 85 50
f 49 84 86
f 49 86 65
f 51 63 88
f 51 88 87
f 52 73 89
f 52 89 53
f 53 89 90
f 53 90 54
f 54 91 55
f 54 90 91
f 55 91 92
f 55 92 57
f 55 57 56
f 57 92 91
f 57 91 93
f 57 93 94
f 57 94 58
f 58 94 59
f 59 94 95
f 59 95 96
f 59 96 97
f 59 97 98
f 59 98 99
f 59 99 60
f 60 99 98
f 60 98 100
f 60 100 61
f 61 100 101
f 61 101 102
f 61 102 103
f 61 103 104
f 61 104 105
f 61 105 62
f 62 105 106
f 62 106 63
f 63 106 107
f 63 107 88
f 64 85 65
f 65 108 109
f 65 109 110
f 65 110 111
f 65 111 112
f 65 112 113
f 65 113 66
f 65 86 114
f 65 114 115
f 65 115 108
f 66 113 116
f 66 116 67
f 68 117 75
f 68 116 118
f 68 118 119
f 68 119 120
f 68 120 121
f 68 121 122
f 68 122 123
f 68 123 124
f 68 124 125
f 68 125 126
f 68 126 127
f 68 127 128
f 68 128 129
f 68 129 130
f 68 130 131
f 68 131 117
f 69 71 74
f 69 74 132
f 69 132 70
f 70 133 72
f 70 132 134
f 70 134 133
f 72 133 90
f 72 90 73
f 73 90 89
f 74 135 132
f 74 83 136
f 74 136 137
f 74 137 97
f 74 97 135
f 75 117 76
f 76 117 138
f 76 138 77
f 77 139 78
f 77 138 140
f 77 140 139
f 78 139 141
f 78 141 142
f 78 142 80
f 79 81 143
f 79 143 82
f 80 144 81
f 80 142 145
f 80 145 144
f 81 144 143
f 82 146 83
f 82 143 146
f 83 146 98
f 83 98 136
f 87 88 147
f 88 148 147
f 88 107 149
f 88 149 150
f 88 150 148
f 90 133 134
f 90 134 91
f 91 134 93
f 93 134 135
f 93 135 151
f 93 151 94
f 94 151 95
f 95 151 96
f 96 151 135
f 96 135 97
f 97 137 98
f 98 137 136
f 98 146 152
f 98 152 153
f 98 153 101
f 98 101 100
f 101 153 102
f 102 153 154
f 102 154 103
f 103 154 104
f 104 154 155
f 104 155 156
f 104 156 157
f 104 157 105
f 105 157 106
f 106 157 156
f 106 156 107
f 107 156 158
f 107 158 149
f 108 159 109
f 108 115 160
f 108 160 159
f 109 159 161
f 109 161 162
f 109 162 163
f 109 163 110
f 110 163 111
f 111 164 112
f 111 163 165
f 111 165 164
f 112 164 113
f 113 164 166
f 113 166 167
f 113 167 168
f 113 168 116
f 115 169 170
f 115 170 171
f 115 171 172
f 115 172 173
f 115 173 174
f 115 174 175
f 115 175 176
f 115 176 160
f 116 168 177
f 116 177 118
f 117 178 138
f 117 131 178
f 118 177 119
f 119 177 179
f 119 179 120
f 120 179 121
f 121 179 180
f 121 180 122
f 122 180 181
f 122 181 182
f 122 182 123
f 123 183 124
f 123 182 183
f 124 183 125
f 125 183 184
f 125 184 126
f 126 184 185
f 126 185 127
f 127 185 128
f 128 185 186
f 128 186 129
f 129 186 130
f 130 186 131
f 131 186 187
f 131 187 188
f 131 188 178
f 132 135 134
f 138 178 140
f 139 140 189
f 139 189 190
f 139 190 191
f 139 191 141
f 140 178 192
f 140 192 189
f 141 191 190
f 141 190 193
f 141 193 142
f 142 194 145
f 142 193 188
f 142 188 187
f 142 187 195
f 142 195 194
f 143 144 196
f 143 196 146
f 144 145 197
f 144 197 198
f 144 198 156
f 144 156 155
f 144 155 199
f 144 199 200
f 144 200 196
f 145 194 201
f 145 201 202
f 145 202 197
f 146 196 152
f 147 148 203
f 148 204 205
f 148 205 206
f 148 206 203
f 148 150 204
f 149 158 202
f 149 202 207
f 149 207 208
f 149 208 150
f 150 208 209
f 150 209 210
f 150 210 204
f 152 196 200
f 152 200 199
f 152 199 153
f 153 199 155
f 153 155 154
f 156 198 158
f 158 198 202
f 159 175 161
f 159 160 176
f 159 176 175
f 161 175 211
f 161 211 162
f 162 211 212
f 162 212 213
f 162 213 214
f 162 214 215
f 162 215 163
f 163 215 214
f 163 214 165
f 164 165 216
f 164 216 166
f 165 214 216
f 166 179 167
f 166 216 180
f 166 180 179
f 167 179 177
f 167 177 168
f 169 217 170
f 170 217 218
f 170 218 219
f 170 219 220
f 170 220 221
f 170 221 171
f 171 221 222
f 171 222 223
f 171 223 224
f 171 224 172
f 172 224 173
f 173 224 225
f 173 225 174
f 174 225 211
f 174 211 175
f 178 188 192
f 180 226 181
f 180 216 227
f 180 227 226
f 181 228 182
f 181 226 228
f 182 228 183
f 183 229 184
f 183 228 229
f 184 230 185
f 184 229 231
f 184 231 232
f 184 232 230
f 185 230 233
f 185 233 234
f 185 234 186
f 186 234 187
f 187 234 195
f 188 193 192
f 189 192 190
f 190 192 193
f 194 195 201
f 195 207 201
f 195 234 235
f 195 235 207
f 197 202 198
f 201 207 202
f 204 210 236
f 204 236 237
f 204 237 205
f 205 237 238
f 205 238 206
f 207 235 208
f 208 235 209
f 209 235 210
f 210 235 233
f 210 233 239
f 210 239 240
f 210 240 236
f 211 225 212
f 212 226 213
f 212 225 224
f 212 224 241
f 212 241 242
f 212 242 226
f 213 226 214
f 214 226 227
f 214 227 216
f 217 243 244
f 217 244 218
f 218 244 236
f 218 236 245
f 218 245 219
f 219 245 220
f 220 246 221
f 220 245 246
f 221 246 222
f 222 247 248
f 222 248 223
f 222 246 249
f 222 249 230
f 222 230 247
f 223 248 250
f 223 250 251
f 223 251 224
f 224 251 250
f 224 250 252
f 224 252 253
f 224 253 241
f 226 242 228
f 228 253 252
f 228 252 229
f 228 242 253
f 229 252 250
f 229 250 254
f 229 254 231
f 230 232 247
f 230 249 245
f 230 245 233
f 231 254 232
f 232 254 250
f 232 250 248
f 232 248 247
f 233 235 234
f 233 245 240
f 233 240 239
f 236 240 245
f 236 244 237
f 237 244 243
f 237 243 238
f 241 253 242
f 245 249 246

