# https://github.com/mikedh/trimesh
v 0.01599944 0.00450178 -0.08294378
v 0.01599944 0.00150123 -0.08294378
v 0.01599944 0.00595320 -0.09187429
v 0.00896069 0.01399965 -0.02618342
v 0.01349555 0.00450178 -0.04387371
v 0.01599944 0.00094972 -0.08499267
v 0.01349555 0.00150123 -0.04387371
v 0.01599944 0.00595320 -0.10047817
v 0.00902824 0.01408193 -0.04166150
v -0.02403320 0.01399965 -0.02618342
v -0.02248780 0.00450049 -0.02616115
v 0.00896069 0.00587478 -0.02618342
v 0.01253706 0.00450049 -0.03555193
v 0.01349555 0.00094972 -0.05956706
v 0.01599944 0.00094972 -0.09397515
v 0.01253706 0.00399397 -0.03555193
v 0.00895646 0.00400169 -0.02619085
v -0.02248780 0.00399269 -0.02616115
v 0.01254129 0.00150123 -0.04387371
v -0.02564193 0.00095100 -0.05600377
v 0.01599944 0.00150123 -0.10047817
v 0.01579676 0.00595320 -0.10124279
v 0.00896069 0.01399837 -0.05903999
v 0.00902824 0.01408193 -0.05315313
v -0.02309160 0.01408193 -0.04166150
v -0.02403320 0.00450049 -0.02616115
v -0.02403320 0.01399965 -0.03101614
v -0.02713666 0.00587478 -0.04106761
v 0.01254129 0.00094972 -0.05956706
v 0.01576720 0.00094972 -0.09491794
v -0.02403320 0.00399269 -0.02616115
v -0.02713666 0.00399269 -0.04106761
v -0.02564193 0.00095100 -0.09047867
v 0.01579676 0.00150123 -0.10124279
v 0.01524785 0.00595320 -0.10179213
v 0.00824288 0.01408193 -0.05903999
v -0.02309160 0.01408193 -0.05315313
v -0.02402897 0.01399965 -0.03913007
v -0.02713244 0.00587478 -0.09399742
v -0.02713666 0.00587478 -0.04261171
v 0.01254129 0.00094972 -0.10047817
v 0.01323798 0.00094972 -0.10047817
v -0.02713666 0.00399269 -0.04261171
v -0.02713244 0.00399269 -0.09396773
v -0.00523082 0.00150252 -0.10180698
v -0.01067773 0.00095229 -0.09783539
v -0.00275649 0.00095229 -0.10047817
v 0.01524785 0.00150123 -0.10179213
v 0.01449626 0.00595320 -0.10199257
v 0.00673970 0.01408193 -0.05903999
v -0.02309160 0.01399837 -0.05903999
v -0.00522660 0.00587349 -0.10180698
v -0.02713244 0.00458920 -0.09399742
v 0.00879601 0.00095229 -0.10082707
v 0.00998673 0.00095229 -0.10082707
v 0.01449626 0.00150123 -0.10199257
v -0.00472836 0.00587349 -0.10194803
v -0.00453835 0.00351059 -0.10199999
v -0.00457635 0.00150252 -0.10198515
v 0.01253706 0.00410710 -0.10199999
v -0.00450457 0.00447735 -0.10199999
v 0.01254129 0.00595320 -0.10199257
v -0.00453835 0.00587349 -0.10199257
v 0.01254129 0.00150123 -0.10199257
v 0.01253706 0.00350931 -0.10199999
v -0.00453835 0.00447735 -0.10199999
v 0.01249062 0.00350931 -0.10199999
f 1 2 6
f 1 6 15
f 1 15 21
f 1 21 8
f 1 8 3
f 1 3 4
f 1 4 5
f 1 5 7
f 1 7 2
f 2 7 6
f 3 8 24
f 3 24 9
f 3 9 4
f 4 10 26
f 4 26 11
f 4 11 18
f 4 18 12
f 4 12 16
f 4 16 13
f 4 13 5
f 4 9 25
f 4 25 10
f 5 13 16
f 5 16 7
f 6 7 14
f 6 14 29
f 6 29 41
f 6 41 42
f 6 42 30
f 6 30 15
f 7 16 17
f 7 17 18
f 7 18 31
f 7 31 19
f 7 19 20
f 7 20 14
f 8 21 34
f 8 34 22
f 8 22 23
f 8 23 24
f 9 24 36
f 9 36 50
f 9 50 37
f 9 37 25
f 10 25 37
f 10 37 27
f 10 27 40
f 10 40 28
f 10 28 26
f 11 26 31
f 11 31 18
f 12 18 17
f 12 17 16
f 14 20 29
f 15 30 21
f 19 31 20
f 20 31 32
f 20 32 43
f 20 43 33
f 20 33 41
f 20 41 29
f 21 30 34
f 22 34 48
f 22 48 35
f 22 35 23
f 23 36 24
f 23 35 36
f 26 28 32
f 26 32 31
f 27 37 38
f 27 38 39
f 27 39 40
f 28 40 43
f 28 43 32
f 30 42 34
f 33 44 45
f 33 45 46
f 33 46 47
f 33 47 41
f 33 43 44
f 34 42 48
f 35 48 56
f 35 56 49
f 35 49 36
f 36 49 62
f 36 62 50
f 37 50 51
f 37 51 38
f 38 51 39
f 39 51 52
f 39 52 45
f 39 45 53
f 39 53 43
f 39 43 40
f 41 47 54
f 41 54 55
f 41 55 42
f 42 55 56
f 42 56 48
f 43 53 44
f 44 53 45
f 45 52 57
f 45 57 58
f 45 58 59
f 45 59 47
f 45 47 46
f 47 59 54
f 49 56 65
f 49 65 60
f 49 60 61
f 49 61 66
f 49 66 62
f 50 62 51
f 51 62 63
f 51 63 57
f 51 57 52
f 54 59 64
f 54 64 56
f 54 56 55
f 56 64 67
f 56 67 65
f 57 63 66
f 57 66 58
f 58 66 61
f 58 61 60
f 58 60 65
f 58 65 67
f 58 67 64
f 58 64 59
f 62 66 63

