# https://github.com/mikedh/trimesh
v 0.03168455 0.01024124 -0.02536045
v 0.02914290 0.01024124 -0.02536045
v 0.00903150 0.02036537 -0.05903387
v 0.02117203 0.01824456 -0.04163633
v 0.02117203 0.01981674 -0.04163633
v 0.02483787 0.01818958 -0.03100874
v 0.03104537 0.01098358 -0.02536045
v 0.03135368 0.01024124 -0.02498390
v -0.00609059 0.02037412 -0.05903387
v 0.00630937 0.02036537 -0.05903387
v 0.01996136 0.01024124 -0.02099404
v 0.00903150 0.02162261 -0.05903387
v 0.02108179 0.01984423 -0.04163633
v 0.02117203 0.01983548 -0.04021425
v 0.02422126 0.01851076 -0.03100874
v 0.02383400 0.01851826 -0.02947048
v 0.02457469 0.01818958 -0.02994318
v 0.02838717 0.01374550 -0.02536045
v 0.02860148 0.01353305 -0.02536045
v 0.03076339 0.01129727 -0.02536045
v 0.03057915 0.01128602 -0.02512811
v 0.02825933 0.01128977 -0.02316523
v 0.03007158 0.01024124 -0.02390231
v -0.00672224 0.02110272 -0.03101675
v -0.00609059 0.02181632 -0.05903387
v 0.01766409 0.01024124 -0.01810981
v -0.00672224 0.01757220 -0.01810981
v 0.00903150 0.02171509 -0.05735540
v 0.01532923 0.02127518 -0.04163633
v 0.02078477 0.01993171 -0.04163633
v 0.00471144 0.02199878 -0.05903387
v 0.02072837 0.01997545 -0.03976158
v 0.02039374 0.02010792 -0.03563953
v 0.02117203 0.01984798 -0.03627647
v 0.02221726 0.01928310 -0.03100874
v 0.01932219 0.02025914 -0.02941440
v 0.02117203 0.01979049 -0.03307177
v 0.02117203 0.01975425 -0.03224656
v 0.02443181 0.01818958 -0.02949051
v 0.01860406 0.02018666 -0.02703491
v 0.02295044 0.01844577 -0.02709099
v 0.02808638 0.01399920 -0.02536045
v 0.02826685 0.01373426 -0.02518820
v 0.02616886 0.01359054 -0.02322131
v 0.02335274 0.01345057 -0.02129048
v 0.02514242 0.01141349 -0.02124240
v 0.02900378 0.01024124 -0.02303303
v -0.00672224 0.02259241 -0.03101675
v -0.00609059 0.02194254 -0.05739947
v -0.00256010 0.02222498 -0.05745555
v -0.00254882 0.02210376 -0.05903387
v 0.02056669 0.01024124 -0.01810981
v -0.00672224 0.01930559 -0.01810981
v 0.00346317 0.02219499 -0.05744353
v 0.00903150 0.02176008 -0.05643806
v 0.00952404 0.02229122 -0.04163633
v 0.01508484 0.02147389 -0.03563553
v 0.00903150 0.02225747 -0.04477694
v 0.00345189 0.02207376 -0.05903387
v 0.01992000 0.02021915 -0.03223053
v 0.02117203 0.01967551 -0.03101275
v 0.01966057 0.02023790 -0.03101275
v 0.01428776 0.02158387 -0.02941039
v 0.01376138 0.02148764 -0.02703491
v 0.02354073 0.01818958 -0.02740345
v 0.02551841 0.01613376 -0.02536045
v 0.02586807 0.01585256 -0.02536045
v 0.01310717 0.02123519 -0.02494384
v 0.01788593 0.01999545 -0.02536045
v 0.01770921 0.01994671 -0.02494384
v 0.02183000 0.01823082 -0.02499992
v 0.02262709 0.01791338 -0.02536045
v 0.02339410 0.01818958 -0.02710701
v 0.02535673 0.01611126 -0.02510808
v 0.02353697 0.01582257 -0.02315321
v 0.02569136 0.01399920 -0.02320929
v 0.02174728 0.01518395 -0.02148677
v 0.02174728 0.01485402 -0.02125042
v 0.02272484 0.01399920 -0.02127446
v 0.01758138 0.01368052 -0.01810981
v 0.01851006 0.01274821 -0.01810981
v 0.02748105 0.01024124 -0.02206361
v 0.01891612 0.01229456 -0.01810981
v 0.02595079 0.01024124 -0.02111422
v -0.00672224 0.02259241 -0.03090859
v -0.00609059 0.02269113 -0.03568760
v -0.00609059 0.02261990 -0.03932094
v -0.00609059 0.02249742 -0.04479697
v -0.00259394 0.02282486 -0.04483303
v 0.00351205 0.02280111 -0.04482501
v -0.00196604 0.02210126 -0.05903387
v 0.02007791 0.01089735 -0.01810981
v -0.00583116 0.01956554 -0.01810981
v -0.00672224 0.01991421 -0.01923947
v 0.00936988 0.02246368 -0.03566757
v 0.00901646 0.02245494 -0.02944244
v 0.00854648 0.02235495 -0.02706295
v 0.00902022 0.02227622 -0.02705894
v 0.00901646 0.02200128 -0.02529235
v 0.00815169 0.02209376 -0.02496787
v 0.02461605 0.01655742 -0.02508404
v 0.00902022 0.02194254 -0.02495986
v 0.00768171 0.02169259 -0.02322932
v 0.00820057 0.02160261 -0.02322932
v 0.00901646 0.02145014 -0.02322932
v 0.01225744 0.02077029 -0.02301300
v 0.01652862 0.01949055 -0.02301300
v 0.02032230 0.01782965 -0.02305707
v 0.01830703 0.01721978 -0.02116229
v 0.01933723 0.01655742 -0.02118632
v 0.02174728 0.01552263 -0.02174314
v 0.02109683 0.01541391 -0.02123440
v 0.01723171 0.01399920 -0.01810981
v 0.01961545 0.01146598 -0.01810981
v -0.00672224 0.02256991 -0.02945045
v -0.00244730 0.02294233 -0.03101675
v -0.00253754 0.02300732 -0.03570763
v 0.00343309 0.02299857 -0.03570363
v -0.00312032 0.02008418 -0.01810981
v -0.00568829 0.02017666 -0.01923947
v -0.00672224 0.02092026 -0.02113825
v 0.00886982 0.02247868 -0.02944244
v 0.00324886 0.02292734 -0.02947048
v 0.00298567 0.02251867 -0.02499591
v 0.00280896 0.02213000 -0.02322932
v 0.00279392 0.02209001 -0.02304906
v 0.00762907 0.02164510 -0.02302903
v 0.00901646 0.02089776 -0.02187133
v 0.00901646 0.02052284 -0.02113024
v 0.01111445 0.02006418 -0.02112623
v 0.01494573 0.01879070 -0.02112623
v 0.01303573 0.01791338 -0.01923146
v 0.01288158 0.01690984 -0.01811782
v 0.01588569 0.01646369 -0.01925549
v 0.01517508 0.01557012 -0.01811782
v 0.00901646 0.01859449 -0.01810981
v -0.00672224 0.02244619 -0.02752362
v -0.00241347 0.02291984 -0.02947048
v -0.00163894 0.02025414 -0.01810981
v -0.00641018 0.02098524 -0.02113825
v -0.00672224 0.02133142 -0.02214773
v -0.00233827 0.02276987 -0.02709099
v -0.00224427 0.02250742 -0.02499591
v -0.00213524 0.02212250 -0.02322932
v -0.00212396 0.02208376 -0.02305306
v -0.00196228 0.02146889 -0.02115828
v 0.00252697 0.02146639 -0.02115828
v 0.00692598 0.02097774 -0.02113825
v 0.00500470 0.01977924 -0.01810981
v 0.00821937 0.01890068 -0.01810981
v 0.01093022 0.01785839 -0.01811782
v -0.00672224 0.02241619 -0.02707096
v -0.00072154 0.02030788 -0.01810981
v -0.00672224 0.02165885 -0.02303303
v -0.00672224 0.02213250 -0.02497588
v -0.00056738 0.02030788 -0.01810981
v 0.00018083 0.02028539 -0.01810981
v 0.00212091 0.02022290 -0.01810981
f 1 2 10
f 1 10 3
f 1 3 4
f 1 4 5
f 1 5 6
f 1 6 7
f 1 7 8
f 1 8 23
f 1 23 47
f 1 47 82
f 1 82 84
f 1 84 52
f 1 52 26
f 1 26 11
f 1 11 2
f 2 9 10
f 2 11 9
f 3 10 9
f 3 9 25
f 3 25 51
f 3 51 91
f 3 91 59
f 3 59 31
f 3 31 12
f 3 12 5
f 3 5 4
f 5 12 13
f 5 13 14
f 5 14 15
f 5 15 6
f 6 15 16
f 6 16 17
f 6 17 18
f 6 18 19
f 6 19 20
f 6 20 7
f 7 20 21
f 7 21 8
f 8 21 22
f 8 22 23
f 9 24 48
f 9 48 25
f 9 11 26
f 9 26 27
f 9 27 24
f 12 28 29
f 12 29 30
f 12 30 13
f 12 31 28
f 13 32 14
f 13 30 32
f 14 32 33
f 14 33 34
f 14 34 15
f 15 35 36
f 15 36 16
f 15 34 37
f 15 37 38
f 15 38 35
f 16 39 17
f 16 36 40
f 16 40 41
f 16 41 39
f 17 39 18
f 18 42 43
f 18 43 19
f 18 39 42
f 19 43 20
f 20 43 21
f 21 44 22
f 21 43 44
f 22 45 46
f 22 46 47
f 22 47 23
f 22 44 45
f 24 27 53
f 24 53 94
f 24 94 121
f 24 121 141
f 24 141 154
f 24 154 155
f 24 155 152
f 24 152 137
f 24 137 115
f 24 115 85
f 24 85 48
f 25 48 49
f 25 49 50
f 25 50 51
f 26 52 92
f 26 92 114
f 26 114 83
f 26 83 81
f 26 81 80
f 26 80 113
f 26 113 136
f 26 136 150
f 26 150 149
f 26 149 158
f 26 158 157
f 26 157 156
f 26 156 153
f 26 153 139
f 26 139 119
f 26 119 93
f 26 93 53
f 26 53 27
f 28 31 54
f 28 54 55
f 28 55 29
f 29 56 57
f 29 57 30
f 29 55 58
f 29 58 56
f 30 57 32
f 31 59 54
f 32 57 33
f 33 57 60
f 33 60 34
f 34 60 37
f 35 38 61
f 35 61 36
f 36 61 62
f 36 62 63
f 36 63 64
f 36 64 40
f 37 60 38
f 38 60 61
f 39 41 65
f 39 65 66
f 39 66 67
f 39 67 42
f 40 64 68
f 40 68 69
f 40 69 41
f 41 69 70
f 41 70 71
f 41 71 72
f 41 72 73
f 41 73 65
f 42 67 43
f 43 67 74
f 43 74 75
f 43 75 76
f 43 76 44
f 44 76 77
f 44 77 78
f 44 78 79
f 44 79 45
f 45 79 80
f 45 80 81
f 45 81 46
f 46 82 47
f 46 81 83
f 46 83 84
f 46 84 82
f 48 85 86
f 48 86 87
f 48 87 88
f 48 88 49
f 49 88 89
f 49 89 50
f 50 89 90
f 50 90 54
f 50 54 59
f 50 59 91
f 50 91 51
f 52 84 92
f 53 93 94
f 54 90 55
f 55 90 58
f 56 58 95
f 56 95 57
f 57 95 63
f 57 63 60
f 58 90 95
f 60 63 62
f 60 62 61
f 63 96 97
f 63 97 98
f 63 98 64
f 63 95 96
f 64 98 99
f 64 99 100
f 64 100 68
f 65 73 66
f 66 73 72
f 66 72 101
f 66 101 74
f 66 74 67
f 68 100 102
f 68 102 103
f 68 103 104
f 68 104 105
f 68 105 106
f 68 106 70
f 68 70 69
f 70 106 107
f 70 107 71
f 71 107 108
f 71 108 101
f 71 101 72
f 74 101 108
f 74 108 75
f 75 108 109
f 75 109 110
f 75 110 111
f 75 111 77
f 75 77 76
f 77 111 112
f 77 112 78
f 78 112 113
f 78 113 80
f 78 80 79
f 83 114 84
f 84 114 92
f 85 115 116
f 85 116 117
f 85 117 86
f 86 117 89
f 86 89 87
f 87 89 88
f 89 117 118
f 89 118 90
f 90 118 95
f 93 119 120
f 93 120 121
f 93 121 94
f 95 118 122
f 95 122 96
f 96 122 97
f 97 122 123
f 97 123 124
f 97 124 100
f 97 100 98
f 98 100 99
f 100 124 125
f 100 125 126
f 100 126 103
f 100 103 102
f 103 126 127
f 103 127 104
f 104 127 105
f 105 127 106
f 106 127 128
f 106 128 129
f 106 129 130
f 106 130 107
f 107 130 131
f 107 131 108
f 108 131 109
f 109 131 132
f 109 132 133
f 109 133 134
f 109 134 135
f 109 135 110
f 110 135 112
f 110 112 111
f 112 135 113
f 113 135 133
f 113 133 136
f 115 137 138
f 115 138 116
f 116 138 123
f 116 123 117
f 117 123 118
f 118 123 122
f 119 139 140
f 119 140 120
f 120 140 121
f 121 140 141
f 123 138 142
f 123 142 124
f 124 143 144
f 124 144 125
f 124 142 143
f 125 144 145
f 125 145 126
f 126 145 146
f 126 146 147
f 126 147 127
f 127 147 148
f 127 148 128
f 128 148 129
f 129 148 149
f 129 149 130
f 130 149 150
f 130 150 131
f 131 151 132
f 131 150 136
f 131 136 151
f 132 151 133
f 133 151 136
f 133 135 134
f 137 152 142
f 137 142 138
f 139 153 146
f 139 146 140
f 140 146 141
f 141 146 154
f 142 152 143
f 143 155 144
f 143 152 155
f 144 155 145
f 145 155 154
f 145 154 146
f 146 153 156
f 146 156 147
f 147 156 157
f 147 157 158
f 147 158 148
f 148 158 149

