# https://github.com/mikedh/trimesh
v -0.01899452 -0.00106204 0.00000000
v -0.01611829 0.01023956 -0.00000163
v -0.02461797 -0.00106204 0.00000000
v -0.01880351 -0.00386865 0.00000000
v -0.01589528 0.01023956 -0.00020225
v -0.02242879 0.01023956 -0.00000163
v -0.01502621 -0.01169795 -0.00000163
v -0.01478319 -0.01169795 -0.00020225
v -0.02481698 -0.00106204 -0.00020225
v -0.02461797 -0.00298823 0.00000000
v -0.02318785 0.00879224 -0.00000163
v -0.02390691 0.00587181 -0.00000163
v -0.02461697 0.00298790 -0.00000326
v -0.02468597 0.00095005 -0.00007013
v -0.02481498 0.00301367 -0.00020225
v -0.02300684 -0.00386865 0.00000000
v -0.01589528 0.01023956 -0.01299641
v -0.02259381 0.01023956 -0.00014843
v -0.02166273 -0.01169795 -0.00000163
v -0.01478519 -0.01169795 -0.01283004
v -0.02500000 0.00000091 -0.00200296
v -0.02481698 -0.00301185 -0.00020225
v -0.02440195 -0.00386650 0.00000000
v -0.02337387 0.00886310 -0.00020225
v -0.02411093 0.00587181 -0.00020225
v -0.02427194 0.00598133 -0.00582783
v -0.02481598 0.00301367 -0.00496499
v -0.02482798 0.00289986 -0.00108956
v -0.02490799 0.00212036 -0.00288048
v -0.02482598 0.00289986 -0.00036536
v -0.02498700 0.00077826 -0.00210409
v -0.01795844 0.00587181 -0.01666307
v -0.02132871 0.01023956 -0.01299641
v -0.02265281 0.01023956 -0.00020225
v -0.02318585 -0.00879256 -0.00000163
v -0.02337387 -0.00886342 -0.00020225
v -0.02188675 -0.01169795 -0.00020225
v -0.01795844 0.00095005 -0.01666307
v -0.02058665 -0.01169795 -0.01283004
v -0.02498700 -0.00077429 -0.00210409
v -0.02482999 0.00288483 -0.00582947
v -0.02483099 -0.00288300 -0.00582620
v -0.02495300 -0.00150010 -0.00240258
v -0.02490899 -0.00212069 -0.00287885
v -0.02486399 -0.00259740 -0.00350029
v -0.02483099 -0.00289589 -0.00422448
v -0.02481698 -0.00301185 -0.00497478
v -0.02465997 -0.00386865 -0.00497641
v -0.02427194 -0.00598166 -0.00582620
v -0.02460597 -0.00386865 -0.00020225
v -0.02337387 0.00886310 -0.00582783
v -0.02275482 0.01023956 -0.00301097
v -0.02424294 0.00597274 -0.00617525
v -0.02426194 0.00587181 -0.00617525
v -0.02481598 0.00301367 -0.00582947
v -0.02486199 0.00259708 -0.00350192
v -0.02482899 0.00289556 -0.00422612
v -0.02495300 0.00150192 -0.00240584
v -0.02215677 0.00587181 -0.01666307
v -0.02230278 0.00587181 -0.01646082
v -0.02251380 0.00587181 -0.01614439
v -0.02191275 0.00914440 -0.01299641
v -0.02199976 0.01023956 -0.00995935
v -0.02337387 -0.00886342 -0.00582620
v -0.02213377 -0.01161635 -0.00582620
v -0.02208477 -0.01169795 -0.00565168
v -0.02323686 0.00095005 -0.01666307
v -0.02196076 -0.01169795 -0.00661238
v -0.02191675 -0.00920486 -0.01283004
v -0.02481398 0.00276243 -0.00617688
v -0.02481498 -0.00276060 -0.00617362
v -0.02481598 -0.00301185 -0.00582620
v -0.02481898 -0.00299467 -0.00497641
v -0.02465997 -0.00386865 -0.00582620
v -0.02424194 -0.00597521 -0.00617362
v -0.02275482 0.01023956 -0.00582783
v -0.02272182 0.01023956 -0.00617525
v -0.02334487 0.00885236 -0.00617525
v -0.02285783 0.00556474 -0.01499611
v -0.02334087 0.00294925 -0.01499611
v -0.02478598 0.00300937 -0.00617688
v -0.02220778 0.00569788 -0.01666307
v -0.02263581 0.00551106 -0.01614439
v -0.02275982 0.00587181 -0.01499611
v -0.02221978 0.00842503 -0.01299641
v -0.02211777 0.00869131 -0.01299641
v -0.02334387 -0.00885269 -0.00617362
v -0.02210777 -0.01160132 -0.00617362
v -0.02208377 -0.01169795 -0.00583762
v -0.02208477 -0.01169795 -0.00582620
v -0.02465097 -0.00077429 -0.00790093
v -0.02464597 -0.00000124 -0.00800369
v -0.02465097 0.00077611 -0.00790093
v -0.02467097 0.00149977 -0.00760244
v -0.02347488 0.00155775 -0.01499611
v -0.02252580 0.00448461 -0.01666307
v -0.02214577 -0.00869378 -0.01283004
v -0.02224778 -0.00843610 -0.01283004
v -0.02241379 -0.00790140 -0.01283004
v -0.02341887 -0.00386865 -0.01283004
v -0.02350788 -0.00351004 -0.01283004
v -0.02360989 -0.00296031 -0.01283004
v -0.02362989 -0.00279067 -0.01283004
v -0.02363989 -0.00268545 -0.01283004
v -0.02470997 -0.00212069 -0.00712128
v -0.02467097 -0.00150010 -0.00759918
v -0.02466097 -0.00111357 -0.00776066
v -0.02204976 -0.01169795 -0.00617362
v -0.02470797 0.00212251 -0.00712617
v -0.02477398 -0.00259740 -0.00650147
v -0.02478598 -0.00300970 -0.00617362
v -0.02245580 0.00481316 -0.01666307
f 1 2 6
f 1 6 3
f 1 3 10
f 1 10 23
f 1 23 16
f 1 16 4
f 1 4 2
f 2 5 17
f 2 17 33
f 2 33 63
f 2 63 77
f 2 77 76
f 2 76 52
f 2 52 34
f 2 34 18
f 2 18 6
f 2 4 7
f 2 7 8
f 2 8 5
f 3 9 22
f 3 22 10
f 3 6 11
f 3 11 12
f 3 12 13
f 3 13 14
f 3 14 15
f 3 15 9
f 4 16 19
f 4 19 7
f 5 8 17
f 6 18 11
f 7 19 37
f 7 37 66
f 7 66 90
f 7 90 89
f 7 89 108
f 7 108 68
f 7 68 39
f 7 39 20
f 7 20 8
f 8 20 17
f 9 15 21
f 9 21 22
f 10 22 23
f 11 18 24
f 11 24 25
f 11 25 15
f 11 15 12
f 12 15 13
f 13 15 14
f 15 25 26
f 15 26 27
f 15 27 28
f 15 28 29
f 15 29 30
f 15 30 31
f 15 31 21
f 16 23 19
f 17 32 59
f 17 59 33
f 17 20 32
f 18 34 24
f 19 23 35
f 19 35 36
f 19 36 37
f 20 38 32
f 20 39 67
f 20 67 38
f 21 40 22
f 21 31 41
f 21 41 42
f 21 42 40
f 22 43 44
f 22 44 45
f 22 45 46
f 22 46 47
f 22 47 74
f 22 74 48
f 22 48 49
f 22 49 50
f 22 50 23
f 22 40 43
f 23 50 36
f 23 36 35
f 24 51 26
f 24 26 25
f 24 34 52
f 24 52 76
f 24 76 51
f 26 53 54
f 26 54 55
f 26 55 27
f 26 51 53
f 27 55 56
f 27 56 57
f 27 57 28
f 28 57 56
f 28 56 29
f 29 56 41
f 29 41 58
f 29 58 30
f 30 58 31
f 31 58 41
f 32 38 67
f 32 67 96
f 32 96 112
f 32 112 82
f 32 82 59
f 33 59 60
f 33 60 61
f 33 61 62
f 33 62 63
f 36 64 65
f 36 65 66
f 36 66 37
f 36 50 49
f 36 49 64
f 39 68 69
f 39 69 67
f 40 42 43
f 41 55 70
f 41 70 71
f 41 71 42
f 41 56 55
f 42 71 111
f 42 111 72
f 42 72 73
f 42 73 46
f 42 46 45
f 42 45 44
f 42 44 43
f 46 73 47
f 47 72 74
f 47 73 72
f 48 74 49
f 49 74 75
f 49 75 64
f 51 76 77
f 51 77 78
f 51 78 53
f 53 79 54
f 53 78 79
f 54 79 80
f 54 80 81
f 54 81 55
f 55 81 70
f 59 82 60
f 60 82 83
f 60 83 61
f 61 83 84
f 61 84 85
f 61 85 86
f 61 86 62
f 62 86 63
f 63 86 77
f 64 75 87
f 64 87 88
f 64 88 65
f 65 88 89
f 65 89 90
f 65 90 66
f 67 91 92
f 67 92 93
f 67 93 94
f 67 94 95
f 67 95 80
f 67 80 83
f 67 83 96
f 67 69 97
f 67 97 98
f 67 98 99
f 67 99 100
f 67 100 101
f 67 101 102
f 67 102 103
f 67 103 104
f 67 104 105
f 67 105 106
f 67 106 107
f 67 107 91
f 68 108 88
f 68 88 69
f 69 88 87
f 69 87 97
f 70 81 80
f 70 80 95
f 70 95 109
f 70 109 94
f 70 94 93
f 70 93 92
f 70 92 71
f 71 107 106
f 71 106 105
f 71 105 110
f 71 110 103
f 71 103 111
f 71 92 91
f 71 91 107
f 72 111 74
f 74 111 75
f 75 101 100
f 75 100 99
f 75 99 98
f 75 98 87
f 75 111 102
f 75 102 101
f 77 86 78
f 78 86 85
f 78 85 84
f 78 84 79
f 79 84 83
f 79 83 80
f 82 112 83
f 83 112 96
f 87 98 97
f 88 108 89
f 94 109 95
f 102 111 103
f 103 110 105
f 103 105 104

