# https://github.com/mikedh/trimesh
v 0.01600000 0.00094972 -0.08499829
v 0.01600000 -0.01448895 -0.08499829
v 0.01600000 0.00094972 -0.09050072
v 0.01349434 0.00094972 -0.05955086
v 0.01349880 -0.01448895 -0.05955610
v 0.01599777 -0.01610124 -0.08500353
v 0.01600000 -0.01448895 -0.09050072
v 0.01349880 -0.01599943 -0.05955610
v 0.01599777 -0.00268713 -0.09399608
v 0.01599332 0.00094805 -0.09399608
v 0.01599109 0.00094805 -0.09401704
v 0.01577059 0.00094805 -0.09491315
v 0.01323821 0.00094972 -0.10049419
v -0.00675360 0.00094972 -0.05955086
v 0.01349434 -0.01448895 -0.05955086
v 0.01199763 -0.01610124 -0.06440348
v 0.01599777 -0.01610124 -0.09399608
v -0.00398290 -0.01609957 -0.06045745
v 0.00999756 -0.01610124 -0.06240688
v 0.01076596 -0.01610124 -0.06255885
v 0.01141186 -0.01610124 -0.06298857
v 0.01184395 -0.01610124 -0.06364362
v 0.01187736 -0.01610124 -0.06379559
v 0.00880598 -0.01599943 -0.05955086
v 0.01592873 -0.01610124 -0.09450440
v 0.01580623 -0.00268546 -0.09482930
v 0.00879707 -0.01448895 -0.11307642
v 0.00879707 0.00094972 -0.10147414
v -0.00675360 -0.01448895 -0.05955086
v -0.00675360 0.00094972 -0.09049549
v -0.00398290 -0.01599943 -0.05955086
v -0.00398290 -0.01610124 -0.06136928
v -0.00374236 -0.01610124 -0.06135880
v 0.01576614 -0.01610124 -0.09492887
v 0.01591314 -0.01448728 -0.09454632
v 0.00879707 -0.01525671 -0.11192352
v -0.00199842 -0.01448895 -0.11307642
v -0.00199396 0.00094972 -0.10147414
v -0.00675360 -0.01448895 -0.09049549
v -0.00275346 0.00094972 -0.10049419
v -0.00398290 -0.01610124 -0.09599267
v 0.01512469 -0.01610124 -0.09564157
v 0.00879707 -0.01599943 -0.10819235
v 0.01323821 -0.01599943 -0.10049419
v -0.00199842 -0.01525671 -0.11192352
v -0.00199842 -0.01599943 -0.10819235
v 0.00075224 -0.01609957 -0.10048895
v 0.00150282 -0.01609957 -0.10069332
v 0.01399770 -0.01610124 -0.09599267
v 0.01425829 -0.01610124 -0.09596647
v 0.00724690 -0.01609957 -0.10048895
v 0.00649632 -0.01609957 -0.10069332
v 0.01422265 -0.01610124 -0.09597695
f 1 2 7
f 1 7 3
f 1 3 13
f 1 13 28
f 1 28 38
f 1 38 40
f 1 40 30
f 1 30 14
f 1 14 4
f 1 4 5
f 1 5 8
f 1 8 2
f 2 6 17
f 2 17 7
f 2 8 6
f 3 7 17
f 3 17 9
f 3 9 10
f 3 10 11
f 3 11 12
f 3 12 13
f 4 14 29
f 4 29 31
f 4 31 24
f 4 24 15
f 4 15 8
f 4 8 5
f 6 8 16
f 6 16 23
f 6 23 22
f 6 22 21
f 6 21 20
f 6 20 19
f 6 19 33
f 6 33 32
f 6 32 41
f 6 41 49
f 6 49 53
f 6 53 50
f 6 50 42
f 6 42 34
f 6 34 25
f 6 25 17
f 8 18 19
f 8 19 20
f 8 20 21
f 8 21 22
f 8 22 23
f 8 23 16
f 8 15 24
f 8 24 18
f 9 17 25
f 9 25 11
f 9 11 10
f 11 25 26
f 11 26 12
f 12 26 27
f 12 27 13
f 13 27 28
f 14 30 39
f 14 39 29
f 18 24 31
f 18 31 29
f 18 29 32
f 18 32 33
f 18 33 19
f 25 34 35
f 25 35 26
f 26 35 34
f 26 34 27
f 27 36 45
f 27 45 37
f 27 37 38
f 27 38 28
f 27 34 36
f 29 39 41
f 29 41 32
f 30 40 37
f 30 37 39
f 34 42 43
f 34 43 44
f 34 44 36
f 36 44 43
f 36 43 46
f 36 46 45
f 37 40 38
f 37 45 39
f 39 45 46
f 39 46 41
f 41 46 47
f 41 47 48
f 41 48 52
f 41 52 49
f 42 50 51
f 42 51 43
f 43 51 52
f 43 52 48
f 43 48 46
f 46 48 47
f 49 52 53
f 50 53 51
f 51 53 52

