# https://github.com/mikedh/trimesh
v -0.00069198 -0.01910262 -0.03899894
v -0.00068961 -0.02235366 -0.03899695
v -0.00989076 -0.02261739 -0.03780945
v -0.00069198 -0.01749267 -0.03899894
v 0.01116244 -0.01910262 -0.03899894
v 0.01116244 -0.02349196 -0.03899695
v -0.00989076 -0.02248993 -0.03328345
v -0.00989076 -0.01749326 -0.03780945
v -0.00946197 -0.01749208 -0.03780945
v 0.01431082 -0.01749267 -0.03899894
v 0.01429424 -0.01910027 -0.03899894
v 0.01301025 -0.02165529 -0.02239170
v 0.01246301 -0.02228729 -0.02443762
v 0.01241800 -0.02233428 -0.02461803
v 0.01239431 -0.02235601 -0.02470129
v 0.01201527 -0.02267142 -0.02611282
v 0.01170493 -0.02287112 -0.02727059
v 0.01135669 -0.02303500 -0.02856118
v 0.01040673 -0.02324880 -0.03211775
v 0.01021958 -0.02326348 -0.03280964
v -0.00989076 -0.02238068 -0.03073398
v -0.00989076 -0.01749208 -0.03747838
v 0.01309316 -0.01749208 -0.03780945
v 0.01319503 -0.01749208 -0.03529566
v 0.01349589 -0.01749208 -0.02200314
v 0.01351010 -0.01749208 -0.02100397
v 0.01351010 -0.01749208 -0.01874592
v 0.01351010 -0.01910380 -0.01874592
v 0.01244880 -0.02167056 -0.02239170
v 0.01146567 -0.02194016 -0.02319461
v -0.00989076 -0.02173223 -0.02310936
v 0.01236825 -0.02233545 -0.02462398
v -0.00989076 -0.02175279 -0.02319461
v -0.00989076 -0.02186498 -0.02397174
v -0.00989076 -0.02207584 -0.02549627
v 0.01052518 -0.02305967 -0.02928677
v -0.00989076 -0.02210462 -0.02576985
v -0.00989076 -0.02224735 -0.02798230
v -0.00989076 -0.01749208 -0.01874592
v -0.00989076 -0.01910380 -0.01874592
v 0.00781743 -0.02165294 -0.02239170
v -0.00989076 -0.02153018 -0.02239170
f 1 2 3
f 1 3 8
f 1 8 4
f 1 4 10
f 1 10 11
f 1 11 5
f 1 5 6
f 1 6 2
f 2 6 3
f 3 7 21
f 3 21 38
f 3 38 37
f 3 37 35
f 3 35 34
f 3 34 33
f 3 33 31
f 3 31 42
f 3 42 40
f 3 40 39
f 3 39 22
f 3 22 8
f 3 6 7
f 4 8 9
f 4 9 23
f 4 23 10
f 5 11 6
f 6 11 12
f 6 12 13
f 6 13 14
f 6 14 15
f 6 15 16
f 6 16 17
f 6 17 18
f 6 18 19
f 6 19 20
f 6 20 7
f 7 20 19
f 7 19 21
f 8 22 9
f 9 22 39
f 9 39 27
f 9 27 26
f 9 26 25
f 9 25 24
f 9 24 23
f 10 23 24
f 10 24 25
f 10 25 26
f 10 26 27
f 10 27 28
f 10 28 11
f 11 28 12
f 12 28 29
f 12 29 30
f 12 30 13
f 13 30 31
f 13 31 32
f 13 32 15
f 13 15 14
f 15 32 31
f 15 31 33
f 15 33 16
f 16 33 17
f 17 33 34
f 17 34 35
f 17 35 18
f 18 36 19
f 18 35 37
f 18 37 36
f 19 37 38
f 19 38 21
f 19 36 37
f 27 39 40
f 27 40 28
f 28 40 29
f 29 40 41
f 29 41 30
f 30 41 42
f 30 42 31
f 40 42 41

