# https://github.com/mikedh/trimesh
v -0.03135677 0.01659398 -0.04164080
v -0.03940052 0.01024143 -0.03917402
v -0.04033521 0.01178862 -0.03917402
v -0.04017488 0.01192215 -0.03917402
v -0.03972118 0.01225331 -0.03917402
v -0.03847266 0.01304026 -0.03917402
v -0.03799167 0.01333759 -0.03917402
v -0.03764713 0.01353700 -0.03917402
v -0.03743563 0.01365628 -0.03917402
v -0.03718320 0.01379516 -0.03917402
v -0.03367984 0.01548834 -0.03917402
v -0.03107022 0.01659398 -0.04006148
v -0.02394410 0.01877500 -0.03226508
v -0.02977395 0.01718508 -0.04164080
v -0.02663900 0.01659398 -0.04164080
v -0.02824229 0.01441118 -0.04163591
v -0.04094582 0.00587584 -0.03114537
v -0.03796097 0.01024143 -0.03917402
v -0.04034885 0.01024143 -0.03531372
v -0.04015441 0.01178862 -0.03871929
v -0.04039661 0.01024143 -0.03546774
v -0.04035226 0.01024143 -0.03532350
v -0.04006913 0.01178862 -0.03852616
v -0.03948921 0.01228892 -0.03875596
v -0.03885813 0.01271978 -0.03878286
v -0.03777335 0.01333759 -0.03861906
v -0.03829527 0.01302780 -0.03862884
v -0.03227099 0.01504323 -0.03252423
v -0.02750887 0.01694473 -0.02956360
v -0.03314427 0.01525333 -0.03597381
v -0.02838215 0.01698746 -0.03239221
v -0.02325503 0.01879815 -0.02944625
v -0.02909510 0.01702841 -0.03582223
v -0.02363709 0.01878568 -0.03100602
v -0.02156986 0.01947293 -0.03100846
v -0.02450696 0.01870378 -0.03567799
v -0.02493337 0.01864147 -0.03981944
v -0.02502888 0.01864147 -0.04164080
v -0.00609639 0.02110558 -0.04164080
v -0.02674475 0.01441118 -0.04163591
v -0.04056717 0.00587584 -0.03040460
v -0.04050918 0.00696367 -0.03101580
v -0.04056717 0.00698504 -0.03114537
v -0.03919926 0.00587584 -0.03114537
v -0.03523878 0.00450313 -0.02565440
v -0.03523878 0.00450313 -0.02497230
v -0.03523878 0.00450669 -0.02362034
v -0.01796075 0.00450847 -0.01800224
v -0.04037273 0.00727525 -0.03114537
v -0.03925384 0.00884914 -0.03114537
v -0.03857500 0.01024143 -0.03216973
v -0.04033521 0.01024856 -0.03530149
v -0.03979623 0.01061710 -0.03500323
v -0.03902869 0.01123847 -0.03488833
v -0.03828163 0.01190791 -0.03507657
v -0.03769148 0.01249011 -0.03549708
v -0.03757209 0.01262008 -0.03563643
v -0.03725143 0.01300821 -0.03621584
v -0.03665787 0.01333759 -0.03604715
v -0.03678067 0.01333759 -0.03632341
v -0.03783134 0.01323611 -0.03834035
v -0.03654530 0.01339812 -0.03601537
v -0.03170131 0.01496133 -0.03100846
v -0.02643773 0.01684502 -0.02718483
v -0.02242609 0.01872159 -0.02707237
v -0.02795574 0.01696787 -0.03100602
v -0.03035727 0.01536015 -0.02965650
v -0.01789935 0.02028124 -0.02702592
v -0.01853043 0.02036492 -0.02939980
v -0.01948217 0.02023495 -0.03562176
v -0.01980624 0.02008183 -0.04164080
v -0.00609639 0.02256730 -0.04164080
v -0.00609639 0.02116611 -0.03100846
v -0.00673429 0.01757144 -0.01811226
v -0.03875921 0.00587584 -0.02779847
v -0.03876602 0.00659513 -0.02820430
v -0.03803943 0.00855359 -0.02900374
v -0.02713363 0.00450313 -0.02007786
v -0.03500000 0.00450313 -0.02342965
v -0.03670562 0.00587584 -0.02554438
v -0.03422564 0.00450313 -0.02280134
v -0.03427681 0.00587584 -0.02354944
v -0.03429045 0.00633162 -0.02379881
v -0.01796075 0.00450847 -0.01666739
v -0.03654188 0.01059574 -0.02950003
v -0.03730601 0.01078624 -0.03100602
v -0.03798485 0.01095894 -0.03235309
v -0.03550145 0.01301177 -0.03254867
v -0.03119985 0.01488834 -0.02968339
v -0.02886996 0.01536015 -0.02726551
v -0.02555081 0.01670971 -0.02581575
v -0.02136519 0.01849191 -0.02497720
v -0.01711135 0.02003732 -0.02493563
v -0.01744906 0.02014059 -0.02581575
v -0.01242427 0.02124089 -0.02494052
v -0.01297349 0.02149371 -0.02703325
v -0.01341354 0.02160053 -0.02940713
v -0.01359093 0.02158273 -0.03100846
v -0.01408897 0.02152753 -0.03562909
v -0.01431070 0.02135483 -0.04164080
v -0.00609639 0.02262071 -0.03931582
v -0.00854226 0.02233941 -0.04164080
v -0.00609639 0.02264386 -0.03100846
v -0.00673429 0.01930201 -0.01811226
v -0.03673292 0.00638504 -0.02583531
v -0.03650777 0.00708296 -0.02611646
v -0.03611207 0.00831858 -0.02662253
v -0.03476803 0.01036606 -0.02711149
v -0.02713363 0.00450313 -0.01908283
v -0.03132607 0.00450313 -0.02102643
v -0.03135677 0.00461708 -0.02109489
v -0.03132607 0.00645269 -0.02198723
v -0.03077344 0.00831858 -0.02265221
v -0.02971254 0.01024143 -0.02306538
v -0.03373783 0.00823668 -0.02454691
v -0.02252843 0.00450847 -0.01666739
v -0.01796075 0.00587584 -0.01666739
v -0.03267693 0.01253996 -0.02730951
v -0.03423587 0.01273581 -0.02970051
v -0.03481920 0.01286578 -0.03100846
v -0.02987628 0.01474234 -0.02729973
v -0.03246202 0.01399635 -0.02969317
v -0.02507323 0.01663493 -0.02508476
v -0.01994952 0.01806105 -0.02303848
v -0.01604703 0.01957619 -0.02299937
v -0.01168403 0.02078154 -0.02300670
v -0.00700378 0.02163258 -0.02302870
v -0.00743019 0.02207235 -0.02496986
v -0.00775426 0.02233229 -0.02706259
v -0.00801352 0.02246226 -0.02943647
v -0.00811585 0.02247116 -0.03100846
v -0.00841946 0.02248362 -0.03566821
v -0.01049009 0.02201003 -0.04164080
v -0.00609639 0.02269193 -0.03568043
v -0.00609639 0.02265276 -0.03162944
v -0.00664560 0.02260113 -0.03100846
v -0.00673429 0.02256730 -0.02944380
v -0.00673429 0.02244445 -0.02752221
v -0.00673429 0.02241240 -0.02706748
v -0.00673429 0.02213110 -0.02497475
v -0.00673429 0.02165929 -0.02303115
v -0.00673429 0.02132991 -0.02214858
v -0.00673429 0.02092041 -0.02113889
v -0.00673429 0.01991269 -0.01923930
v -0.01068453 0.02009251 -0.02111689
v -0.00831030 0.01885690 -0.01811226
v -0.02216342 0.00587584 -0.01666739
v -0.03554239 0.00829899 -0.02611646
v -0.03255071 0.01024143 -0.02500898
v -0.03068134 0.01239397 -0.02519967
v -0.03160920 0.01246162 -0.02617758
v -0.02798644 0.00450313 -0.01941043
v -0.02246361 0.00481827 -0.01666739
v -0.01916493 0.01219990 -0.01811470
v -0.02488902 0.01221236 -0.02130269
v -0.02811607 0.01228358 -0.02323651
v -0.02818771 0.01456074 -0.02518989
v -0.02898253 0.01464798 -0.02617758
v -0.03082802 0.01399457 -0.02729973
v -0.02699718 0.01535837 -0.02514833
v -0.02326185 0.01628419 -0.02313139
v -0.01806309 0.01740586 -0.02114623
v -0.01461430 0.01887292 -0.02111689
v -0.00862072 0.01874473 -0.01811226
v -0.01102566 0.01782604 -0.01811226
v -0.01292573 0.01693226 -0.01811226
v -0.01502707 0.01576965 -0.01811226
v -0.01545689 0.01549012 -0.01811226
v -0.01564109 0.01536015 -0.01811226
v -0.01692032 0.01444323 -0.01811470
v -0.01764691 0.01381296 -0.01811470
v -0.02598062 0.01432216 -0.02322918
v -0.02315610 0.01402127 -0.02129536
v -0.02455130 0.01535837 -0.02317539
v -0.02089785 0.01577143 -0.02121957
v -0.02143683 0.01535837 -0.02123913
f 1 2 3
f 1 3 4
f 1 4 5
f 1 5 6
f 1 6 7
f 1 7 8
f 1 8 9
f 1 9 10
f 1 10 11
f 1 11 12
f 1 12 13
f 1 13 14
f 1 14 38
f 1 38 71
f 1 71 100
f 1 100 133
f 1 133 102
f 1 102 72
f 1 72 39
f 1 39 15
f 1 15 40
f 1 40 16
f 1 16 2
f 2 17 3
f 2 16 40
f 2 40 18
f 2 18 44
f 2 44 17
f 3 19 20
f 3 20 4
f 3 17 21
f 3 21 22
f 3 22 19
f 4 20 23
f 4 23 24
f 4 24 5
f 5 24 25
f 5 25 6
f 6 25 7
f 7 26 8
f 7 25 27
f 7 27 26
f 8 26 28
f 8 28 9
f 9 28 10
f 10 28 29
f 10 29 30
f 10 30 11
f 11 30 31
f 11 31 32
f 11 32 33
f 11 33 12
f 12 33 13
f 13 34 35
f 13 35 36
f 13 36 14
f 13 33 34
f 14 36 37
f 14 37 38
f 15 39 40
f 17 41 42
f 17 42 43
f 17 43 21
f 17 44 45
f 17 45 46
f 17 46 47
f 17 47 41
f 18 40 48
f 18 48 44
f 19 22 43
f 19 43 49
f 19 49 50
f 19 50 51
f 19 51 52
f 19 52 53
f 19 53 23
f 19 23 20
f 21 43 22
f 23 53 54
f 23 54 55
f 23 55 56
f 23 56 24
f 24 56 57
f 24 57 25
f 25 57 58
f 25 58 59
f 25 59 60
f 25 60 27
f 26 27 61
f 26 61 28
f 27 60 61
f 28 61 62
f 28 62 59
f 28 59 63
f 28 63 29
f 29 64 65
f 29 65 32
f 29 32 66
f 29 66 30
f 29 63 67
f 29 67 64
f 30 66 31
f 31 66 32
f 32 65 68
f 32 68 69
f 32 69 35
f 32 35 34
f 32 34 33
f 35 69 36
f 36 69 70
f 36 70 37
f 37 70 38
f 38 70 71
f 39 72 101
f 39 101 134
f 39 134 135
f 39 135 103
f 39 103 73
f 39 73 74
f 39 74 48
f 39 48 40
f 41 47 75
f 41 75 76
f 41 76 42
f 42 49 43
f 42 76 77
f 42 77 50
f 42 50 49
f 44 48 45
f 45 48 78
f 45 78 109
f 45 109 152
f 45 152 110
f 45 110 81
f 45 81 79
f 45 79 46
f 46 79 47
f 47 80 75
f 47 79 81
f 47 81 82
f 47 82 83
f 47 83 80
f 48 84 109
f 48 109 78
f 48 74 84
f 50 77 85
f 50 85 51
f 51 85 86
f 51 86 87
f 51 87 52
f 52 87 53
f 53 87 54
f 54 87 88
f 54 88 55
f 55 88 56
f 56 88 57
f 57 88 58
f 58 88 59
f 59 88 89
f 59 89 63
f 59 62 60
f 60 62 61
f 63 89 67
f 64 67 89
f 64 89 90
f 64 90 91
f 64 91 92
f 64 92 65
f 65 92 93
f 65 93 94
f 65 94 68
f 68 94 95
f 68 95 96
f 68 96 69
f 69 96 97
f 69 97 70
f 70 97 98
f 70 98 99
f 70 99 71
f 71 99 100
f 72 102 101
f 73 103 104
f 73 104 74
f 74 104 117
f 74 117 84
f 75 80 105
f 75 105 76
f 76 105 106
f 76 106 107
f 76 107 77
f 77 107 108
f 77 108 85
f 80 83 105
f 81 110 111
f 81 111 112
f 81 112 82
f 82 112 83
f 83 112 113
f 83 113 114
f 83 114 115
f 83 115 105
f 84 116 109
f 84 117 147
f 84 147 153
f 84 153 116
f 85 108 118
f 85 118 119
f 85 119 86
f 86 119 87
f 87 119 120
f 87 120 88
f 88 120 89
f 89 121 90
f 89 120 122
f 89 122 121
f 90 121 91
f 91 121 123
f 91 123 92
f 92 123 124
f 92 124 125
f 92 125 93
f 93 125 126
f 93 126 95
f 93 95 94
f 95 126 127
f 95 127 128
f 95 128 96
f 96 128 129
f 96 129 97
f 97 129 130
f 97 130 131
f 97 131 132
f 97 132 98
f 98 132 99
f 99 132 102
f 99 102 133
f 99 133 100
f 101 102 132
f 101 132 134
f 103 135 136
f 103 136 137
f 103 137 138
f 103 138 139
f 103 139 140
f 103 140 141
f 103 141 142
f 103 142 143
f 103 143 144
f 103 144 104
f 104 144 145
f 104 145 146
f 104 146 147
f 104 147 117
f 105 115 148
f 105 148 106
f 106 148 107
f 107 148 149
f 107 149 108
f 108 149 150
f 108 150 151
f 108 151 118
f 109 116 152
f 110 152 116
f 110 116 153
f 110 153 147
f 110 147 111
f 111 147 154
f 111 154 112
f 112 154 155
f 112 155 113
f 113 155 114
f 114 155 156
f 114 156 115
f 115 156 149
f 115 149 148
f 118 151 157
f 118 157 158
f 118 158 159
f 118 159 119
f 119 159 121
f 119 121 122
f 119 122 120
f 121 159 158
f 121 158 123
f 123 160 161
f 123 161 124
f 123 158 160
f 124 161 162
f 124 162 163
f 124 163 125
f 125 163 145
f 125 145 126
f 126 145 143
f 126 143 142
f 126 142 127
f 127 142 141
f 127 141 128
f 128 141 140
f 128 140 129
f 129 140 139
f 129 139 138
f 129 138 137
f 129 137 130
f 130 137 136
f 130 136 131
f 131 136 134
f 131 134 132
f 134 136 135
f 143 145 144
f 145 163 146
f 146 163 164
f 146 164 147
f 147 164 165
f 147 165 166
f 147 166 167
f 147 167 168
f 147 168 169
f 147 169 170
f 147 170 171
f 147 171 154
f 149 156 150
f 150 156 172
f 150 172 157
f 150 157 151
f 154 171 155
f 155 171 173
f 155 173 156
f 156 173 172
f 157 172 174
f 157 174 161
f 157 161 160
f 157 160 158
f 161 175 162
f 161 174 175
f 162 175 167
f 162 167 166
f 162 166 165
f 162 165 163
f 163 165 164
f 167 175 168
f 168 175 169
f 169 175 170
f 170 175 176
f 170 176 173
f 170 173 171
f 172 173 176
f 172 176 175
f 172 175 174

