# https://github.com/mikedh/trimesh
v 0.00879957 0.00349975 -0.10050711
v -0.00029651 0.00349975 -0.10050711
v 0.00880493 0.00308067 -0.10050711
v 0.00999977 -0.00674840 -0.10234581
v 0.00999977 -0.00399971 -0.10290066
v 0.00999977 -0.00182154 -0.10467107
v 0.00999977 -0.00118587 -0.10615296
v 0.00999843 -0.00071925 -0.10725242
v 0.00880493 0.00349975 -0.10070173
v -0.00149806 0.00349975 -0.10084685
v -0.00079939 0.00299967 -0.10050711
v 0.00880493 0.00094828 -0.10050711
v 0.00879957 -0.01448909 -0.10148194
v 0.00999977 -0.00750556 -0.10242776
v 0.00999843 -0.00486252 -0.11382189
v 0.00999843 -0.00243431 -0.11241512
v 0.00999843 -0.00094463 -0.11005230
v 0.00999843 -0.00093935 -0.11004376
v 0.00999843 -0.00065762 -0.10866431
v 0.00999977 -0.01181436 -0.10615296
v 0.00999843 -0.00766052 -0.11393969
v 0.00880493 0.00349975 -0.10084685
v -0.00149806 0.00349975 -0.10923111
v -0.00199826 0.00299967 -0.10084685
v -0.00079939 0.00094828 -0.10050711
v 0.00766775 -0.01448909 -0.10148194
v 0.00879957 -0.01448909 -0.10798483
v 0.00999843 -0.01234438 -0.10774411
v 0.00999977 -0.01146043 -0.10507910
v 0.00999977 -0.00943897 -0.10313114
v 0.00879688 0.00031790 -0.11599350
v 0.00879688 -0.00625536 -0.11794488
v 0.00879957 0.00094828 -0.11524744
v 0.00879957 0.00156634 -0.11451161
v 0.00879957 0.00299967 -0.10917136
v 0.00999843 -0.01188655 -0.11050643
v 0.00999843 -0.01019966 -0.11274291
v 0.00879688 -0.00997427 -0.11720052
v 0.00829803 0.00349975 -0.10923111
v -0.00149806 0.00202064 -0.11474721
v -0.00199826 0.00299967 -0.10917136
v -0.00199826 0.00094828 -0.10084685
v -0.00370000 -0.00475159 -0.10916965
v -0.00370000 -0.00630114 -0.10621100
v -0.00199826 -0.01448909 -0.10148365
v 0.00879688 -0.01448909 -0.11307412
v 0.00829803 0.00055209 -0.11649372
v 0.00766775 -0.00997955 -0.11720223
v 0.00766775 -0.00625007 -0.11794829
v 0.00829803 -0.00359471 -0.11757270
v 0.00829803 0.00094828 -0.11602594
v 0.00829803 0.00202064 -0.11474721
v 0.00879688 -0.01345195 -0.11462770
v 0.00879688 -0.01314204 -0.11508866
v -0.00149806 0.00094828 -0.11602594
v -0.00199826 0.00156634 -0.11451161
v -0.00199826 0.00094828 -0.11524744
v -0.00199826 0.00031790 -0.11599521
v -0.00370000 -0.00539430 -0.10986450
v -0.00370000 -0.00723967 -0.10634246
v -0.00370000 -0.00801092 -0.10689219
v -0.00370000 -0.00844409 -0.10773557
v -0.00199826 -0.01448909 -0.11307582
v 0.00766775 -0.01448909 -0.11307582
v 0.00766775 0.00055209 -0.11649543
v 0.00766775 -0.01314380 -0.11509037
v -0.00199826 -0.00997955 -0.11720223
v 0.00766775 -0.00359471 -0.11757441
v -0.00199826 -0.00625007 -0.11794829
v -0.00149806 0.00055209 -0.11649543
v -0.00370000 -0.00628353 -0.11018717
v -0.00370000 -0.00844057 -0.10868309
v -0.00199826 -0.01314380 -0.11509037
v -0.00370000 -0.00800036 -0.10952134
v -0.00370000 -0.00722206 -0.11006425
v -0.00149806 -0.00359471 -0.11757441
f 1 2 11
f 1 11 25
f 1 25 12
f 1 12 3
f 1 3 4
f 1 4 5
f 1 5 6
f 1 6 7
f 1 7 8
f 1 8 9
f 1 9 22
f 1 22 39
f 1 39 23
f 1 23 10
f 1 10 2
f 2 10 11
f 3 12 4
f 4 13 14
f 4 14 30
f 4 30 29
f 4 29 20
f 4 20 7
f 4 7 6
f 4 6 5
f 4 12 13
f 7 15 16
f 7 16 17
f 7 17 18
f 7 18 19
f 7 19 8
f 7 20 21
f 7 21 15
f 8 19 9
f 9 19 22
f 10 23 41
f 10 41 24
f 10 24 11
f 11 24 42
f 11 42 25
f 12 25 26
f 12 26 13
f 13 26 45
f 13 45 63
f 13 63 64
f 13 64 46
f 13 46 27
f 13 27 28
f 13 28 29
f 13 29 30
f 13 30 14
f 15 31 16
f 15 21 32
f 15 32 31
f 16 31 33
f 16 33 34
f 16 34 17
f 17 34 18
f 18 34 35
f 18 35 19
f 19 35 22
f 20 29 28
f 20 28 36
f 20 36 37
f 20 37 21
f 21 37 38
f 21 38 32
f 22 35 39
f 23 39 52
f 23 52 40
f 23 40 41
f 24 41 43
f 24 43 44
f 24 44 42
f 25 42 45
f 25 45 26
f 27 46 28
f 28 46 36
f 31 47 33
f 31 32 47
f 32 38 48
f 32 48 49
f 32 49 50
f 32 50 47
f 33 47 51
f 33 51 34
f 34 51 52
f 34 52 35
f 35 52 39
f 36 46 53
f 36 53 54
f 36 54 37
f 37 54 38
f 38 54 48
f 40 52 51
f 40 51 55
f 40 55 56
f 40 56 41
f 41 56 43
f 42 44 45
f 43 56 57
f 43 57 58
f 43 58 59
f 43 59 71
f 43 71 75
f 43 75 74
f 43 74 72
f 43 72 62
f 43 62 61
f 43 61 60
f 43 60 44
f 44 60 45
f 45 60 61
f 45 61 62
f 45 62 63
f 46 64 53
f 47 65 51
f 47 50 68
f 47 68 65
f 48 54 66
f 48 66 73
f 48 73 67
f 48 67 69
f 48 69 49
f 49 68 50
f 49 69 76
f 49 76 68
f 51 65 70
f 51 70 55
f 53 64 66
f 53 66 54
f 55 70 58
f 55 58 57
f 55 57 56
f 58 70 69
f 58 69 71
f 58 71 59
f 62 72 63
f 63 73 66
f 63 66 64
f 63 72 74
f 63 74 73
f 65 68 76
f 65 76 70
f 67 73 75
f 67 75 69
f 69 75 71
f 69 70 76
f 73 74 75

