# https://github.com/mikedh/trimesh
v 0.00000176 0.02378352 -0.01289936
v 0.01099053 0.00430105 -0.01284123
v 0.00131741 0.02374284 -0.01289936
v 0.00116289 0.02349681 -0.01500174
v -0.00288560 0.02334764 -0.01500174
v -0.00016601 0.02376221 -0.01299335
v -0.00382157 0.02342126 -0.01299335
v -0.00568467 0.02307450 -0.01299335
v -0.00616149 0.02292533 -0.01299335
v -0.00982588 0.02162741 -0.01299335
v -0.01027621 0.02142206 -0.01299335
v -0.01103999 0.02104237 -0.01299335
v -0.01138435 0.02083896 -0.01299335
v -0.01517678 0.01828573 -0.01299335
v -0.01575072 0.01778787 -0.01299335
v -0.01586551 0.01768713 -0.01299335
v -0.01598472 0.01757090 -0.01299335
v -0.01609509 0.01745661 -0.01299335
v -0.01213931 0.00399497 -0.01284123
v -0.01099142 0.00430105 -0.01284123
v 0.01214283 0.00399497 -0.01284123
v 0.00568820 0.02309000 -0.01289936
v 0.00492441 0.02321592 -0.01289936
v 0.00518490 0.02294664 -0.01500174
v 0.00147635 0.02347938 -0.01500174
v 0.00115406 0.02326822 -0.01614816
v -0.00285912 0.02312293 -0.01614816
v -0.00440434 0.02310937 -0.01500174
v -0.00685463 0.02250302 -0.01500174
v -0.01001131 0.02128646 -0.01500174
v -0.01062057 0.02099007 -0.01500174
v -0.01406863 0.01885139 -0.01500174
v -0.01499136 0.01812494 -0.01500174
v -0.01710169 0.01615674 -0.01500174
v -0.01892506 0.01434352 -0.01299335
v -0.01955640 0.01350277 -0.01299335
v -0.01981688 0.01307659 -0.01299335
v -0.02133120 0.01024245 -0.01299335
v -0.02236430 0.00795268 -0.01299829
v -0.02288084 0.00589343 -0.01299829
v -0.02288084 0.00587599 -0.01299829
v -0.01795378 0.00399497 -0.01300200
v 0.01254018 0.00399497 -0.01300200
v 0.02140978 0.01024052 -0.01289936
v 0.02087557 0.01138347 -0.01289936
v 0.02060185 0.01184259 -0.01289936
v 0.01956875 0.01351439 -0.01289936
v 0.01928178 0.01389021 -0.01289936
v 0.01720676 0.01640664 -0.01289936
v 0.01708756 0.01652868 -0.01289936
v 0.01588670 0.01769101 -0.01289936
v 0.01576749 0.01779949 -0.01289936
v 0.01567036 0.01788279 -0.01289936
v 0.01327747 0.01968439 -0.01289936
v 0.01141878 0.02083896 -0.01289936
v 0.01104793 0.02105787 -0.01289936
v 0.01056229 0.02127677 -0.01289936
v 0.00755130 0.02254564 -0.01289936
v 0.00703475 0.02270449 -0.01289936
v 0.00726433 0.02237517 -0.01500174
v 0.00513192 0.02272386 -0.01614816
v 0.00499064 0.02209040 -0.01712143
v 0.00111433 0.02261926 -0.01712143
v -0.00277965 0.02247590 -0.01712143
v -0.00659856 0.02166421 -0.01712143
v -0.00679282 0.02228412 -0.01614816
v -0.01051903 0.02078860 -0.01614816
v -0.01393177 0.01867123 -0.01614816
v -0.01693393 0.01599983 -0.01614816
v -0.01902660 0.01383016 -0.01500174
v -0.01962262 0.01297972 -0.01500174
v -0.02369319 0.00587599 -0.01801186
v -0.02190956 0.00914793 -0.01299829
v -0.02201552 0.00892322 -0.01299829
v -0.02211706 0.00869269 -0.01299829
v -0.02221419 0.00842729 -0.01299829
v -0.01795378 0.00399497 -0.02349784
v 0.01254018 0.00399497 -0.02547531
v 0.02111398 0.01024052 -0.01500174
v 0.02080935 0.01097278 -0.01500174
v 0.02061068 0.01133697 -0.01500174
v 0.01861071 0.01438420 -0.01500174
v 0.01714495 0.01610444 -0.01500174
v 0.01586462 0.01736943 -0.01500174
v 0.01264613 0.01983549 -0.01500174
v 0.00925105 0.02162741 -0.01500174
v 0.00904796 0.02171458 -0.01500174
v 0.00895966 0.02150536 -0.01614816
v 0.00477431 0.02114117 -0.01777194
v 0.00107018 0.02164678 -0.01777194
v 0.00870801 0.02090483 -0.01712143
v 0.00833716 0.02000597 -0.01777194
v 0.00000176 0.02160804 -0.01777194
v -0.00265603 0.02151118 -0.01777194
v -0.00631601 0.02073436 -0.01777194
v -0.00978615 0.01933957 -0.01777194
v -0.01022323 0.02020550 -0.01712143
v -0.01354326 0.01814819 -0.01712143
v -0.01690744 0.01444619 -0.01810956
v -0.01763590 0.01381853 -0.01810956
v -0.01915464 0.01220291 -0.01810956
v -0.01942836 0.01285381 -0.01614816
v -0.02068221 0.01024245 -0.01810956
v -0.01795378 0.00450058 -0.02349784
v 0.01254018 0.00450058 -0.02547531
v 0.02056211 0.01024052 -0.01810956
v 0.01843411 0.01424666 -0.01614816
v 0.01571010 0.01719896 -0.01614816
v 0.01252252 0.01964371 -0.01614816
v 0.01216932 0.01909548 -0.01712143
v 0.01164836 0.01827604 -0.01777194
v -0.01501784 0.01576930 -0.01810956
v -0.01544609 0.01549228 -0.01810956
v 0.01517148 0.01556783 -0.01810956
v 0.01715378 0.01406262 -0.01810956
v 0.01757320 0.01368099 -0.01810956
v 0.01850475 0.01274726 -0.01810956
v 0.01891093 0.01229589 -0.01810956
v 0.01960849 0.01146483 -0.01810956
v 0.02007206 0.01089723 -0.01810956
v 0.01527302 0.01672240 -0.01712143
f 1 2 3
f 1 3 4
f 1 4 5
f 1 5 6
f 1 6 7
f 1 7 8
f 1 8 9
f 1 9 10
f 1 10 11
f 1 11 12
f 1 12 13
f 1 13 14
f 1 14 15
f 1 15 16
f 1 16 17
f 1 17 18
f 1 18 19
f 1 19 20
f 1 20 2
f 2 21 22
f 2 22 23
f 2 23 3
f 2 20 19
f 2 19 21
f 3 23 24
f 3 24 25
f 3 25 4
f 4 25 26
f 4 26 27
f 4 27 5
f 5 27 28
f 5 28 7
f 5 7 6
f 7 28 8
f 8 28 29
f 8 29 9
f 9 29 10
f 10 29 30
f 10 30 11
f 11 30 31
f 11 31 12
f 12 31 13
f 13 31 32
f 13 32 14
f 14 32 33
f 14 33 15
f 15 33 16
f 16 33 34
f 16 34 17
f 17 34 18
f 18 34 35
f 18 35 19
f 19 35 36
f 19 36 37
f 19 37 38
f 19 38 39
f 19 39 40
f 19 40 41
f 19 41 42
f 19 42 77
f 19 77 78
f 19 78 43
f 19 43 21
f 21 43 44
f 21 44 45
f 21 45 46
f 21 46 47
f 21 47 48
f 21 48 49
f 21 49 50
f 21 50 51
f 21 51 52
f 21 52 53
f 21 53 54
f 21 54 55
f 21 55 56
f 21 56 57
f 21 57 58
f 21 58 59
f 21 59 22
f 22 59 60
f 22 60 24
f 22 24 23
f 24 61 25
f 24 60 61
f 25 61 26
f 26 61 62
f 26 62 63
f 26 63 27
f 27 64 65
f 27 65 66
f 27 66 28
f 27 63 64
f 28 66 29
f 29 66 30
f 30 67 31
f 30 66 67
f 31 67 32
f 32 68 33
f 32 67 68
f 33 68 69
f 33 69 34
f 34 69 70
f 34 70 35
f 35 70 36
f 36 71 72
f 36 72 37
f 36 70 71
f 37 72 38
f 38 72 73
f 38 73 74
f 38 74 75
f 38 75 76
f 38 76 39
f 39 72 40
f 39 76 72
f 40 72 41
f 41 72 42
f 42 72 77
f 43 78 44
f 44 78 79
f 44 79 80
f 44 80 45
f 45 80 81
f 45 81 46
f 46 81 47
f 47 82 48
f 47 81 82
f 48 82 49
f 49 82 83
f 49 83 50
f 50 83 84
f 50 84 51
f 51 84 52
f 52 84 53
f 53 84 85
f 53 85 54
f 54 85 55
f 55 85 56
f 56 86 57
f 56 85 86
f 57 86 87
f 57 87 58
f 58 87 60
f 58 60 59
f 60 87 88
f 60 88 61
f 61 88 62
f 62 89 90
f 62 90 63
f 62 88 91
f 62 91 92
f 62 92 89
f 63 90 93
f 63 93 94
f 63 94 64
f 64 94 95
f 64 95 65
f 65 95 96
f 65 96 97
f 65 97 67
f 65 67 66
f 67 97 98
f 67 98 68
f 68 98 99
f 68 99 100
f 68 100 69
f 69 100 101
f 69 101 102
f 69 102 70
f 70 102 71
f 71 102 72
f 72 76 75
f 72 75 74
f 72 74 73
f 72 102 103
f 72 103 104
f 72 104 77
f 77 104 105
f 77 105 78
f 78 105 106
f 78 106 79
f 79 106 80
f 80 106 81
f 81 106 107
f 81 107 82
f 82 107 83
f 83 108 84
f 83 107 108
f 84 108 109
f 84 109 85
f 85 109 86
f 86 88 87
f 86 109 88
f 88 109 91
f 89 92 105
f 89 105 90
f 90 105 93
f 91 109 110
f 91 110 111
f 91 111 92
f 92 111 105
f 93 105 94
f 94 104 95
f 94 105 104
f 95 104 96
f 96 112 97
f 96 104 112
f 97 112 98
f 98 112 113
f 98 113 99
f 99 113 104
f 99 104 100
f 100 104 101
f 101 104 103
f 101 103 102
f 104 113 112
f 105 111 110
f 105 110 114
f 105 114 115
f 105 115 116
f 105 116 117
f 105 117 118
f 105 118 119
f 105 119 120
f 105 120 106
f 106 120 107
f 107 120 119
f 107 119 118
f 107 118 117
f 107 117 108
f 108 117 116
f 108 116 121
f 108 121 109
f 109 121 110
f 110 121 115
f 110 115 114
f 115 121 116

