# https://github.com/mikedh/trimesh
v -0.00988388 -0.02152929 -0.02239119
v -0.00276283 -0.02481396 -0.00617862
v -0.00597397 -0.02424113 -0.00617642
v -0.00885439 -0.02334413 -0.00617642
v -0.00885973 -0.02337277 -0.00583013
v -0.01161213 -0.02213337 -0.00582793
v -0.01160146 -0.02210603 -0.00617642
v -0.01370844 -0.02090048 -0.00582793
v -0.01369244 -0.02087574 -0.00617642
v -0.01512732 -0.01872632 -0.01783668
v -0.00988388 -0.01910387 -0.02239119
v 0.00782540 -0.02165167 -0.02239119
v -0.00153598 -0.02324648 -0.01614681
v -0.00155198 -0.02347562 -0.01499833
v -0.00288551 -0.02482958 -0.00583013
v -0.00212273 -0.02470720 -0.00712108
v -0.00149864 -0.02466815 -0.00759670
v -0.00077853 -0.02464992 -0.00789697
v -0.00013844 -0.02464602 -0.00798245
v 0.00000025 -0.02464471 -0.00799998
v 0.00276332 -0.02481396 -0.00617642
v 0.00288601 -0.02482958 -0.00583013
v -0.00597930 -0.02426977 -0.00583013
v -0.00597930 -0.02426977 -0.00020383
v -0.00988388 -0.02291190 -0.00373040
v -0.00988388 -0.02291190 -0.00499944
v -0.01161747 -0.02213076 -0.00020165
v -0.01542603 -0.01967019 -0.00499944
v -0.01542603 -0.01967019 -0.00500383
v -0.01551671 -0.01959598 -0.00582793
v -0.01550604 -0.01960380 -0.00422355
v -0.01512732 -0.01749473 -0.01783668
v -0.01559139 -0.01949574 -0.00617642
v -0.01949063 -0.01559918 -0.00617642
v -0.02054145 -0.01418663 -0.00617642
v -0.01955997 -0.01350704 -0.01295121
v -0.01982668 -0.01306961 -0.01295121
v -0.02055745 -0.01169872 -0.01295121
v 0.01762952 -0.01649488 -0.02099941
v 0.01301017 -0.01910387 -0.02239119
v 0.01243942 -0.02166989 -0.02239119
v 0.00148313 -0.02347952 -0.01499833
v -0.00299219 -0.02481917 -0.00506300
v 0.00000025 -0.02499883 -0.00200548
v -0.00078387 -0.02498451 -0.00210630
v -0.00149864 -0.02495196 -0.00240438
v -0.00212273 -0.02490770 -0.00288218
v -0.00260280 -0.02486213 -0.00350246
v 0.00077903 -0.02464992 -0.00789697
v 0.00150447 -0.02466945 -0.00759889
v 0.00212323 -0.02470720 -0.00712327
v 0.01301017 -0.02165557 -0.02239119
v 0.02313966 -0.02081065 -0.02099941
v 0.02640948 -0.02046825 -0.02099941
v 0.00368079 -0.02469288 -0.00519232
v 0.00299802 -0.02481656 -0.00499506
v 0.00290201 -0.02482958 -0.00422794
v 0.00261397 -0.02486083 -0.00353314
v 0.00212323 -0.02490509 -0.00287999
v 0.00150447 -0.02495196 -0.00240438
v 0.00077903 -0.02498581 -0.00210630
v 0.02676686 -0.02040706 -0.02099941
v -0.00988388 -0.02278952 -0.00020383
v -0.00290151 -0.02482828 -0.00422794
v -0.00516318 -0.02441428 -0.00099945
v -0.00013844 -0.02499492 -0.00040986
v 0.00000025 -0.02499883 -0.00020383
v -0.00147197 -0.02481526 -0.00019945
v -0.00516318 -0.02416952 0.00000000
v -0.00593129 -0.02407579 0.00000000
v -0.00988388 -0.02257601 0.00000000
v -0.01152145 -0.02195501 -0.00000438
v -0.01643951 -0.01856098 -0.00000438
v -0.01635416 -0.01886042 -0.00020165
v -0.01610346 -0.01911429 -0.00288218
v -0.01657820 -0.01870289 -0.00240438
v -0.01711161 -0.01821989 -0.00210410
v -0.01767169 -0.01767830 -0.00200109
v -0.01959198 -0.01552497 -0.00582793
v -0.01656753 -0.01870940 -0.00020165
v -0.01573541 -0.01941502 -0.00350027
v -0.02056812 -0.01420616 -0.00582793
v -0.02204567 -0.01170262 -0.00617642
v -0.02195499 -0.01170262 -0.00661259
v -0.02120821 -0.01169872 -0.01000107
v -0.01481260 -0.01169872 -0.01295121
v 0.03241036 -0.01649488 -0.02099941
v 0.03211699 -0.01717577 -0.02099941
v 0.03178627 -0.01775902 -0.02099941
v 0.03102349 -0.01864040 -0.02099941
v 0.03065010 -0.01894764 -0.02099941
v 0.02941792 -0.01965197 -0.02099941
v 0.02867648 -0.01993968 -0.02099941
v 0.00597980 -0.02426847 -0.00583232
v 0.00597980 -0.02426847 -0.00020602
v 0.00368079 -0.02467336 -0.00244602
v 0.00368079 -0.02464992 -0.00179726
v 0.00000025 -0.02479704 -0.00000219
v -0.00147197 -0.02461737 0.00000000
v 0.00368079 -0.02454968 -0.00020383
v 0.00593179 -0.02407579 0.00000000
v 0.00368079 -0.02434919 0.00000000
v -0.01891454 -0.01576973 0.00000000
v -0.01918125 -0.01576973 -0.00020165
v -0.01821044 -0.01712239 -0.00210410
v -0.01869584 -0.01658862 -0.00240438
v -0.01910657 -0.01611733 -0.00287999
v -0.01939461 -0.01576973 -0.00346739
v -0.01960264 -0.01551065 -0.00422355
v -0.01966132 -0.01543384 -0.00501259
v -0.02056812 -0.01420616 -0.00501259
v -0.02208301 -0.01170262 -0.00582793
v -0.02206167 -0.01170002 -0.00501259
v -0.02188031 -0.01170002 -0.00020165
v -0.02165628 -0.01170002 0.00000000
v -0.01482861 -0.01169872 -0.01000107
v -0.01478060 -0.01170002 -0.00020165
v 0.01378895 -0.01304748 -0.01281532
v 0.01378895 -0.02039014 0.00000000
v 0.01378895 -0.01305008 -0.00019945
v 0.01378895 -0.01330004 -0.00000438
v 0.01378895 -0.01624101 0.00000000
v 0.01378895 -0.02062968 -0.00020602
v 0.01161263 -0.02213337 -0.00020602
v 0.01151661 -0.02195631 0.00000000
v -0.02040276 -0.01408899 0.00000000
v -0.02056812 -0.01420225 -0.00020165
v -0.01930393 -0.01576973 -0.00122301
v -0.01934127 -0.01576973 -0.00165041
v -0.01937328 -0.01576973 -0.00239342
v -0.02208301 -0.01170262 -0.00565259
v -0.01502063 -0.01170002 0.00000000
f 1 2 3
f 1 3 4
f 1 4 5
f 1 5 6
f 1 6 7
f 1 7 8
f 1 8 9
f 1 9 10
f 1 10 32
f 1 32 11
f 1 11 40
f 1 40 52
f 1 52 41
f 1 41 12
f 1 12 13
f 1 13 14
f 1 14 2
f 2 15 3
f 2 14 16
f 2 16 17
f 2 17 18
f 2 18 19
f 2 19 20
f 2 20 21
f 2 21 22
f 2 22 15
f 3 15 23
f 3 23 5
f 3 5 4
f 5 23 24
f 5 24 25
f 5 25 26
f 5 26 6
f 6 27 8
f 6 8 7
f 6 26 25
f 6 25 27
f 8 28 29
f 8 29 30
f 8 30 10
f 8 10 9
f 8 27 31
f 8 31 28
f 10 30 33
f 10 33 34
f 10 34 35
f 10 35 36
f 10 36 37
f 10 37 38
f 10 38 32
f 11 32 38
f 11 38 39
f 11 39 87
f 11 87 40
f 12 41 13
f 13 41 42
f 13 42 14
f 14 19 18
f 14 18 17
f 14 17 16
f 14 42 20
f 14 20 19
f 15 43 23
f 15 22 44
f 15 44 45
f 15 45 46
f 15 46 47
f 15 47 48
f 15 48 43
f 20 42 49
f 20 49 21
f 21 49 50
f 21 50 51
f 21 51 52
f 21 52 53
f 21 53 54
f 21 54 22
f 22 55 56
f 22 56 57
f 22 57 58
f 22 58 59
f 22 59 60
f 22 60 61
f 22 61 44
f 22 54 62
f 22 62 55
f 23 43 24
f 24 63 25
f 24 43 64
f 24 64 65
f 24 65 47
f 24 47 66
f 24 66 67
f 24 67 68
f 24 68 69
f 24 69 70
f 24 70 27
f 24 27 63
f 25 63 27
f 27 70 71
f 27 71 72
f 27 72 73
f 27 73 74
f 27 74 31
f 28 31 75
f 28 75 30
f 28 30 29
f 30 75 76
f 30 76 77
f 30 77 78
f 30 78 79
f 30 79 33
f 31 74 80
f 31 80 81
f 31 81 75
f 33 79 34
f 34 79 35
f 35 82 83
f 35 83 37
f 35 37 36
f 35 79 82
f 37 83 84
f 37 84 38
f 38 84 85
f 38 85 116
f 38 116 86
f 38 86 87
f 38 87 39
f 40 87 52
f 41 52 42
f 42 50 49
f 42 52 50
f 43 48 64
f 44 61 67
f 44 67 45
f 45 67 66
f 45 66 46
f 46 66 47
f 47 65 48
f 48 65 64
f 50 52 51
f 52 87 88
f 52 88 89
f 52 89 90
f 52 90 91
f 52 91 92
f 52 92 93
f 52 93 62
f 52 62 54
f 52 54 53
f 55 62 94
f 55 94 95
f 55 95 56
f 56 95 57
f 57 96 58
f 57 95 96
f 58 96 97
f 58 97 59
f 59 97 60
f 60 97 67
f 60 67 61
f 62 93 95
f 62 95 94
f 67 98 99
f 67 99 69
f 67 69 68
f 67 97 100
f 67 100 101
f 67 101 102
f 67 102 98
f 69 99 102
f 69 102 101
f 69 101 125
f 69 125 119
f 69 119 122
f 69 122 132
f 69 132 115
f 69 115 126
f 69 126 103
f 69 103 71
f 69 71 70
f 71 103 73
f 71 73 72
f 73 103 104
f 73 104 80
f 73 80 74
f 75 81 80
f 75 80 76
f 76 80 77
f 77 80 78
f 78 80 105
f 78 105 79
f 79 105 106
f 79 106 107
f 79 107 108
f 79 108 109
f 79 109 110
f 79 110 82
f 80 104 105
f 82 111 131
f 82 131 112
f 82 112 83
f 82 110 111
f 83 112 113
f 83 113 85
f 83 85 84
f 85 113 114
f 85 114 115
f 85 115 132
f 85 132 116
f 86 116 117
f 86 117 118
f 86 118 87
f 87 119 88
f 87 118 120
f 87 120 121
f 87 121 122
f 87 122 119
f 88 119 89
f 89 119 123
f 89 123 90
f 90 123 91
f 91 123 124
f 91 124 92
f 92 124 93
f 93 124 95
f 95 101 100
f 95 100 97
f 95 97 96
f 95 124 101
f 98 102 99
f 101 124 125
f 103 126 104
f 104 126 127
f 104 127 128
f 104 128 105
f 105 128 129
f 105 129 106
f 106 129 107
f 107 129 130
f 107 130 108
f 108 130 127
f 108 127 109
f 109 127 110
f 110 127 111
f 111 127 131
f 112 131 113
f 113 131 127
f 113 127 114
f 114 127 115
f 115 127 126
f 116 132 117
f 117 132 120
f 117 120 118
f 119 125 124
f 119 124 123
f 120 132 121
f 121 132 122
f 127 130 129
f 127 129 128

