# https://github.com/mikedh/trimesh
v 0.04252558 -0.01650094 -0.06952315
v 0.04243836 -0.01650094 -0.06395111
v 0.04238705 -0.01689553 -0.06403890
v 0.04248453 -0.01677104 -0.06929488
v 0.04247427 -0.01670880 -0.07178825
v 0.04249993 -0.01650094 -0.07178240
v 0.04229982 -0.01618738 -0.05983061
v 0.04209972 -0.01796655 -0.06928317
v 0.04217156 -0.01699065 -0.05983061
v 0.04196119 -0.01751794 -0.05983061
v 0.04198685 -0.01781976 -0.07648234
v 0.04222286 -0.01650094 -0.07919227
v 0.03497303 -0.01200190 -0.05689827
v 0.03497303 -0.01199603 -0.04896748
v 0.03497303 -0.01199603 -0.03900571
v 0.04209972 -0.01618738 -0.05580961
v 0.04146350 -0.01824488 -0.05491411
v 0.04121209 -0.01917499 -0.06207816
v 0.04138654 -0.01907047 -0.06923635
v 0.04126853 -0.01896243 -0.07642381
v 0.04197145 -0.01707403 -0.05614909
v 0.04221260 -0.01652090 -0.07925665
v 0.04080163 -0.01884734 -0.08359956
v 0.04154047 -0.01766709 -0.08368150
v 0.04215103 -0.01650094 -0.08008192
v 0.02486534 -0.01200190 -0.05689827
v 0.04160203 -0.01650094 -0.08624511
v 0.04149429 -0.01650094 -0.08722841
v 0.04070927 -0.01649859 -0.09322186
v 0.04044247 -0.01649859 -0.09496019
v 0.04005766 -0.01649859 -0.09742430
v -0.00675584 -0.01449041 -0.09753550
v 0.02410085 -0.01200190 -0.05674609
v 0.02224349 -0.01199486 -0.04124740
v 0.02581454 -0.01199486 -0.04213705
v 0.02582480 -0.01199486 -0.04213705
v 0.02582480 -0.01199486 -0.03900571
v -0.00068609 -0.01749446 -0.03781170
v 0.04023724 -0.01618738 -0.03901156
v 0.04026290 -0.01618738 -0.03916959
v 0.04066310 -0.01618738 -0.04214876
v 0.04117618 -0.01618738 -0.04600002
v 0.04136089 -0.01618738 -0.04751009
v 0.04120183 -0.01724549 -0.04793736
v 0.04073493 -0.01837406 -0.04774421
v 0.04075032 -0.01927833 -0.05489655
v 0.04024750 -0.02002523 -0.06201963
v 0.04040656 -0.01994538 -0.06916611
v 0.04026290 -0.01986082 -0.07633016
v 0.03977034 -0.01977040 -0.08348250
v 0.03896993 -0.01967175 -0.09062314
v 0.04002688 -0.01872403 -0.09075190
v 0.04077085 -0.01750855 -0.09085140
v -0.00695594 -0.01449041 -0.09753550
v -0.00989076 -0.01449041 -0.09752380
v 0.04046813 -0.01743691 -0.09299945
v 0.03992426 -0.01731243 -0.09682144
v 0.03866721 -0.01649859 -0.09760574
v 0.02345437 -0.01200190 -0.05631297
v 0.02224349 -0.01199486 -0.03900571
v 0.02301825 -0.01200190 -0.05566329
v 0.02286432 -0.01200190 -0.05490240
v -0.00068609 -0.02232231 -0.03781170
v -0.00945977 -0.01749446 -0.03781170
v 0.03972929 -0.01773873 -0.03901156
v 0.03984217 -0.01745923 -0.03901742
v 0.04015515 -0.01738524 -0.04059187
v 0.04037064 -0.01736175 -0.04184440
v 0.04000123 -0.01938050 -0.04774421
v 0.03966259 -0.01850090 -0.04060357
v 0.03979599 -0.02010157 -0.05485558
v 0.03915464 -0.02058893 -0.06264589
v 0.03926239 -0.02052082 -0.06906661
v 0.03910333 -0.02044449 -0.07573901
v 0.03804125 -0.02028830 -0.08813562
v 0.03816439 -0.01988548 -0.09299945
v 0.03859538 -0.01943922 -0.09481972
v 0.03870826 -0.01932648 -0.09496605
v 0.03942144 -0.01846214 -0.09583229
v -0.00989076 -0.01600065 -0.09752380
v 0.03763079 -0.01649859 -0.09760574
v -0.00675584 -0.01600065 -0.09753550
v -0.00989076 -0.01449041 -0.05956137
v 0.03866721 -0.01774108 -0.09662244
v 0.03768723 -0.01700239 -0.09722529
v -0.00989076 -0.01749563 -0.03781170
v -0.00989076 -0.01450215 -0.05500776
v 0.03639940 -0.02078506 -0.03901156
v 0.03755383 -0.02029064 -0.03901156
v 0.03769236 -0.02020844 -0.03901156
v 0.03865182 -0.01941691 -0.03901156
v 0.03907768 -0.01890605 -0.03901156
v -0.00989076 -0.02261591 -0.03781170
v 0.02068886 -0.02379381 -0.03901156
v 0.02478325 -0.02339334 -0.03901156
v 0.02795409 -0.02287897 -0.03901156
v 0.03325421 -0.02168110 -0.03901156
v 0.03496790 -0.02119491 -0.03901156
v 0.03923160 -0.01878627 -0.03932762
v 0.03904176 -0.01933705 -0.04061528
v 0.03841580 -0.01980093 -0.03987780
v 0.03904176 -0.02017673 -0.04772665
v 0.03832858 -0.02069463 -0.05103358
v 0.03536297 -0.02180206 -0.06338337
v 0.03549124 -0.02170577 -0.07004991
v 0.03535271 -0.02156602 -0.07737784
v 0.03496790 -0.02139691 -0.08409121
v 0.03496790 -0.02133819 -0.08545495
v 0.03581448 -0.02070285 -0.09265412
v 0.03631217 -0.02053491 -0.09299945
v 0.03726137 -0.02021196 -0.09365498
v 0.03780524 -0.01997943 -0.09404713
v 0.02409572 -0.02302929 -0.09034219
v 0.02043232 -0.02321601 -0.09026611
v 0.01348520 -0.02295178 -0.09083970
v 0.03869800 -0.01902467 -0.09532893
v 0.01201266 -0.01850090 -0.09599617
v -0.00304626 -0.02192537 -0.09141329
v -0.00365170 -0.02192772 -0.09130794
v -0.00989076 -0.02210623 -0.08831706
v 0.03636348 -0.01850090 -0.09589667
v 0.01400855 -0.01850090 -0.09599617
v 0.03678421 -0.02076744 -0.04063284
v 0.03740503 -0.02052552 -0.04063284
v 0.03791298 -0.02025424 -0.04062698
v -0.00989076 -0.02264879 -0.03873647
v 0.01609165 -0.02384900 -0.03973733
v 0.01744619 -0.02387014 -0.03901156
v 0.02011421 -0.02396996 -0.04732865
v 0.02148413 -0.02393121 -0.04734035
v 0.02198695 -0.02373509 -0.03978416
v 0.02558878 -0.02358242 -0.04724671
v 0.02695358 -0.02339099 -0.04717647
v 0.02859031 -0.02290128 -0.04155761
v 0.02808749 -0.02288484 -0.03950321
v 0.03272574 -0.02195239 -0.04118302
v 0.03496790 -0.02129943 -0.04087866
v 0.03792838 -0.02072046 -0.04769738
v 0.03820544 -0.02070285 -0.04998005
v 0.03496790 -0.02175392 -0.05151353
v 0.03496790 -0.02185021 -0.05808057
v 0.03496790 -0.02190071 -0.06295025
v 0.03496790 -0.02190306 -0.06328387
v 0.03496790 -0.02190071 -0.06367017
v 0.03130450 -0.02278737 -0.06625133
v 0.03496790 -0.02183495 -0.07008503
v 0.03496790 -0.02166701 -0.07712031
v 0.03120189 -0.02257950 -0.07693887
v 0.03111979 -0.02251609 -0.07929762
v 0.03100178 -0.02244797 -0.08170905
v 0.03488581 -0.02136285 -0.08539057
v 0.03448047 -0.02114441 -0.09130208
v 0.03496790 -0.02098587 -0.09184641
v 0.03522444 -0.02090132 -0.09213906
v 0.03243328 -0.02166584 -0.09102699
v 0.03037070 -0.02211915 -0.09079287
v 0.02973961 -0.02224128 -0.09074019
v 0.02575297 -0.02286018 -0.09042413
v 0.02541947 -0.02329704 -0.08174417
v 0.02391101 -0.02333110 -0.08421412
v 0.02326966 -0.02318313 -0.08853948
v 0.02141743 -0.02327356 -0.08849851
v 0.02114550 -0.02345793 -0.08425510
v 0.01860575 -0.02321366 -0.09026611
v 0.01307474 -0.02287544 -0.09092749
v 0.01504497 -0.02307391 -0.09032463
v 0.01599417 -0.02319252 -0.08856289
v 0.01694850 -0.02330057 -0.08682455
v 0.01763090 -0.02336868 -0.08563054
v 0.01853392 -0.02359886 -0.07940297
v 0.01763090 -0.02360590 -0.07784608
v 0.01717939 -0.02360708 -0.07707934
v 0.01763090 -0.02364349 -0.07637698
v 0.01862114 -0.02372217 -0.07481424
v 0.01865193 -0.02381142 -0.07047133
v 0.01763090 -0.02379381 -0.06896126
v 0.01722043 -0.02378441 -0.06837596
v -0.00989076 -0.02268637 -0.05346257
v 0.03369546 -0.02193829 -0.04626341
v 0.03496790 -0.02157424 -0.04669067
v -0.00989076 -0.02268050 -0.03967295
v -0.00989076 -0.02270398 -0.04058601
v -0.00989076 -0.02272277 -0.04146396
v -0.00989076 -0.02272982 -0.04193805
v -0.00989076 -0.02273452 -0.04233606
v -0.00989076 -0.02274274 -0.04317888
v 0.01739488 -0.02394060 -0.04724671
v 0.01763090 -0.02392064 -0.04410951
v 0.01874941 -0.02397114 -0.04729938
v 0.01897004 -0.02397936 -0.04889724
v 0.02033996 -0.02397701 -0.04892066
v 0.02353646 -0.02380085 -0.04731694
v 0.02072991 -0.02398992 -0.05217491
v 0.02227941 -0.02395000 -0.05382545
v 0.02309521 -0.02385957 -0.04892066
v 0.02421373 -0.02373861 -0.04731109
v 0.02584532 -0.02358594 -0.04883871
v 0.02831324 -0.02316434 -0.04707697
v 0.02721012 -0.02339334 -0.04878604
v 0.02968830 -0.02290715 -0.04697747
v 0.03447534 -0.02190658 -0.05159547
v 0.03101718 -0.02286722 -0.05869513
v 0.03124293 -0.02282025 -0.06361749
v 0.03111979 -0.02285313 -0.06052126
v 0.02991405 -0.02306100 -0.06629815
v 0.03132503 -0.02275683 -0.06822964
v 0.03132503 -0.02272043 -0.07032500
v 0.03130450 -0.02268050 -0.07246719
v 0.03126859 -0.02263470 -0.07467377
v 0.02981144 -0.02284961 -0.07696228
v 0.02971395 -0.02278502 -0.07930347
v 0.02946767 -0.02263000 -0.08418486
v 0.03085812 -0.02236811 -0.08417315
v 0.03291045 -0.02160712 -0.08993248
v 0.03291045 -0.02154488 -0.09109138
v 0.03068881 -0.02227769 -0.08670749
v 0.03054001 -0.02220253 -0.08873262
v 0.02930862 -0.02253722 -0.08670749
v 0.02922653 -0.02239865 -0.08955204
v 0.02885711 -0.02251139 -0.08870336
v 0.02684070 -0.02282142 -0.08856289
v 0.02669191 -0.02305042 -0.08419656
v 0.02690740 -0.02321366 -0.07932688
v 0.02705106 -0.02334050 -0.07473815
v 0.02568627 -0.02355306 -0.07256084
v 0.02411624 -0.02349904 -0.07936200
v 0.02241281 -0.02331349 -0.08676017
v 0.01984741 -0.02355188 -0.08178514
v 0.02277710 -0.02364936 -0.07704422
v 0.02130969 -0.02362117 -0.07938542
v 0.01840052 -0.02344267 -0.08428436
v 0.01778995 -0.02326651 -0.08852192
v 0.01763090 -0.02327473 -0.08821171
v 0.02003725 -0.02380203 -0.07260767
v 0.02000646 -0.02393356 -0.06448373
v 0.01862627 -0.02387484 -0.06642107
v 0.01763090 -0.02381142 -0.06782578
v -0.00989076 -0.02269929 -0.05257292
v 0.02994484 -0.02290480 -0.04859289
v 0.03018086 -0.02290128 -0.05021417
v 0.03039635 -0.02289776 -0.05183544
v -0.00989076 -0.02274391 -0.04400416
v 0.01763090 -0.02394882 -0.04886798
v 0.01795414 -0.02395939 -0.05209297
v 0.01917014 -0.02398640 -0.05051267
v 0.02469089 -0.02374683 -0.05051267
v 0.01973453 -0.02398992 -0.05719677
v 0.02101723 -0.02399110 -0.05549941
v 0.02272579 -0.02392768 -0.06074953
v 0.02404441 -0.02385605 -0.05896437
v 0.02381352 -0.02386662 -0.05549941
v 0.02350567 -0.02386662 -0.05217491
v 0.02607108 -0.02358946 -0.05047170
v 0.02744613 -0.02339569 -0.05038975
v 0.02858517 -0.02316434 -0.04869824
v 0.03058106 -0.02289423 -0.05351525
v 0.03074011 -0.02288601 -0.05520090
v 0.03089404 -0.02287779 -0.05693339
v 0.02963699 -0.02313615 -0.05878293
v 0.02973961 -0.02312324 -0.06058565
v 0.02981144 -0.02310562 -0.06243519
v 0.02852360 -0.02326651 -0.06830573
v 0.02992945 -0.02302929 -0.06828231
v 0.02833890 -0.02336046 -0.06063832
v 0.02992945 -0.02299406 -0.07035427
v 0.02986275 -0.02290480 -0.07470303
v 0.02922653 -0.02294708 -0.07697984
v 0.02922653 -0.02298466 -0.07569804
v 0.02840560 -0.02308331 -0.07699155
v 0.02792843 -0.02276153 -0.08671920
v 0.02922653 -0.02255132 -0.08670749
v 0.02711776 -0.02343092 -0.07040694
v 0.02710237 -0.02349904 -0.06637424
v 0.02565548 -0.02368694 -0.06444861
v 0.02429582 -0.02371747 -0.07044206
v 0.02422912 -0.02362587 -0.07477912
v 0.02141743 -0.02374918 -0.07479668
v 0.02288485 -0.02383608 -0.06838767
v 0.02146361 -0.02383960 -0.07045377
v 0.02145335 -0.02390654 -0.06643277
v 0.02137126 -0.02395235 -0.06260492
v 0.01855444 -0.02392064 -0.06258151
v 0.01763090 -0.02389245 -0.06138165
v -0.00989076 -0.02270986 -0.05165985
v 0.02881606 -0.02316434 -0.05030781
v 0.02902642 -0.02316317 -0.05195250
v -0.00989076 -0.02271573 -0.05073508
v 0.01670735 -0.02390067 -0.05369084
v 0.01822607 -0.02395939 -0.05544088
v 0.02534250 -0.02374096 -0.05717921
v 0.02627118 -0.02359064 -0.05209297
v 0.01842104 -0.02394647 -0.05892340
v 0.02123272 -0.02397701 -0.05896437
v 0.02427529 -0.02378441 -0.06641521
v 0.02419833 -0.02382904 -0.06258736
v 0.02764624 -0.02339452 -0.05202859
v 0.02921113 -0.02315847 -0.05360889
v 0.02937532 -0.02315495 -0.05529455
v 0.02783094 -0.02339099 -0.05369084
v 0.02685096 -0.02357302 -0.05889413
v 0.02701002 -0.02354249 -0.06253469
v 0.01763090 -0.02390420 -0.05997108
v 0.02660981 -0.02358594 -0.05543502
f 1 2 3
f 1 3 4
f 1 4 5
f 1 5 6
f 1 6 7
f 1 7 2
f 2 7 3
f 3 8 4
f 3 7 9
f 3 9 10
f 3 10 8
f 4 8 5
f 5 11 12
f 5 12 6
f 5 8 11
f 6 12 13
f 6 13 7
f 7 13 14
f 7 14 15
f 7 15 16
f 7 16 9
f 8 10 17
f 8 17 18
f 8 18 19
f 8 19 20
f 8 20 11
f 9 16 21
f 9 21 17
f 9 17 10
f 11 22 12
f 11 20 23
f 11 23 24
f 11 24 22
f 12 22 25
f 12 25 13
f 13 26 14
f 13 25 27
f 13 27 28
f 13 28 29
f 13 29 30
f 13 30 31
f 13 31 32
f 13 32 54
f 13 54 26
f 14 26 33
f 14 33 34
f 14 34 35
f 14 35 36
f 14 36 37
f 14 37 15
f 15 37 38
f 15 38 39
f 15 39 40
f 15 40 41
f 15 41 42
f 15 42 43
f 15 43 16
f 16 43 21
f 17 21 44
f 17 44 45
f 17 45 46
f 17 46 18
f 18 47 48
f 18 48 19
f 18 46 47
f 19 48 20
f 20 48 49
f 20 49 50
f 20 50 23
f 21 43 44
f 22 24 25
f 23 50 51
f 23 51 52
f 23 52 24
f 24 52 53
f 24 53 28
f 24 28 27
f 24 27 25
f 26 54 55
f 26 55 33
f 28 53 29
f 29 53 56
f 29 56 57
f 29 57 30
f 30 57 31
f 31 57 58
f 31 58 32
f 32 58 81
f 32 81 54
f 33 59 34
f 33 55 59
f 34 60 37
f 34 37 36
f 34 36 35
f 34 59 61
f 34 61 62
f 34 62 55
f 34 55 83
f 34 83 60
f 37 60 64
f 37 64 38
f 38 63 39
f 38 64 86
f 38 86 93
f 38 93 63
f 39 63 65
f 39 65 66
f 39 66 67
f 39 67 68
f 39 68 40
f 40 68 41
f 41 68 42
f 42 68 44
f 42 44 43
f 44 68 45
f 45 69 46
f 45 68 70
f 45 70 69
f 46 69 71
f 46 71 47
f 47 72 48
f 47 71 72
f 48 72 73
f 48 73 49
f 49 73 74
f 49 74 50
f 50 75 51
f 50 74 75
f 51 76 77
f 51 77 78
f 51 78 52
f 51 75 76
f 52 78 79
f 52 79 53
f 53 79 56
f 54 80 55
f 54 81 82
f 54 82 80
f 55 62 61
f 55 61 59
f 55 80 120
f 55 120 178
f 55 178 238
f 55 238 284
f 55 284 287
f 55 287 242
f 55 242 186
f 55 186 185
f 55 185 184
f 55 184 183
f 55 183 182
f 55 182 181
f 55 181 126
f 55 126 93
f 55 93 86
f 55 86 87
f 55 87 83
f 56 79 57
f 57 84 58
f 57 79 84
f 58 84 85
f 58 85 81
f 60 86 64
f 60 83 87
f 60 87 86
f 63 88 89
f 63 89 90
f 63 90 91
f 63 91 92
f 63 92 65
f 63 93 94
f 63 94 95
f 63 95 96
f 63 96 97
f 63 97 98
f 63 98 88
f 65 92 99
f 65 99 70
f 65 70 67
f 65 67 66
f 67 70 68
f 69 70 100
f 69 100 101
f 69 101 102
f 69 102 71
f 70 99 100
f 71 102 103
f 71 103 72
f 72 104 73
f 72 103 104
f 73 105 74
f 73 104 105
f 74 106 75
f 74 105 106
f 75 106 107
f 75 107 108
f 75 108 109
f 75 109 110
f 75 110 111
f 75 111 112
f 75 112 76
f 76 112 77
f 77 112 113
f 77 113 114
f 77 114 115
f 77 115 78
f 78 116 79
f 78 115 116
f 79 116 84
f 80 82 81
f 80 81 117
f 80 117 118
f 80 118 119
f 80 119 120
f 81 85 117
f 84 116 121
f 84 121 122
f 84 122 117
f 84 117 85
f 88 98 123
f 88 123 124
f 88 124 89
f 89 124 125
f 89 125 90
f 90 125 101
f 90 101 91
f 91 101 100
f 91 100 92
f 92 100 99
f 93 126 127
f 93 127 128
f 93 128 94
f 94 128 129
f 94 129 130
f 94 130 131
f 94 131 95
f 95 131 132
f 95 132 133
f 95 133 134
f 95 134 135
f 95 135 96
f 96 135 97
f 97 135 136
f 97 136 137
f 97 137 98
f 98 137 123
f 101 125 102
f 102 125 124
f 102 124 138
f 102 138 139
f 102 139 103
f 103 139 140
f 103 140 141
f 103 141 104
f 104 142 143
f 104 143 144
f 104 144 105
f 104 141 142
f 105 144 145
f 105 145 146
f 105 146 106
f 106 146 147
f 106 147 148
f 106 148 149
f 106 149 107
f 107 150 151
f 107 151 108
f 107 149 150
f 108 151 152
f 108 152 153
f 108 153 154
f 108 154 109
f 109 154 155
f 109 155 156
f 109 156 110
f 110 156 111
f 111 156 157
f 111 157 158
f 111 158 112
f 112 158 113
f 113 158 159
f 113 159 160
f 113 160 161
f 113 161 114
f 114 161 162
f 114 162 163
f 114 163 164
f 114 164 115
f 115 119 118
f 115 118 165
f 115 165 117
f 115 117 122
f 115 122 116
f 115 164 166
f 115 166 120
f 115 120 119
f 116 122 121
f 117 165 118
f 120 166 167
f 120 167 168
f 120 168 169
f 120 169 170
f 120 170 171
f 120 171 172
f 120 172 173
f 120 173 174
f 120 174 175
f 120 175 176
f 120 176 177
f 120 177 178
f 123 137 179
f 123 179 180
f 123 180 138
f 123 138 124
f 126 181 127
f 127 181 182
f 127 182 183
f 127 183 184
f 127 184 185
f 127 185 186
f 127 186 187
f 127 187 188
f 127 188 128
f 128 188 189
f 128 189 129
f 129 189 190
f 129 190 191
f 129 191 130
f 130 192 131
f 130 191 193
f 130 193 194
f 130 194 195
f 130 195 192
f 131 192 196
f 131 196 132
f 132 196 197
f 132 197 133
f 133 198 134
f 133 197 199
f 133 199 198
f 134 198 200
f 134 200 136
f 134 136 135
f 136 200 179
f 136 179 137
f 138 180 201
f 138 201 140
f 138 140 139
f 140 201 141
f 141 201 202
f 141 202 142
f 142 202 143
f 143 203 144
f 143 202 204
f 143 204 203
f 144 203 145
f 145 203 205
f 145 205 206
f 145 206 146
f 146 206 207
f 146 207 208
f 146 208 147
f 147 208 209
f 147 209 148
f 148 210 149
f 148 209 210
f 149 210 211
f 149 211 150
f 150 212 213
f 150 213 151
f 150 211 212
f 151 213 214
f 151 214 215
f 151 215 152
f 152 215 153
f 153 215 154
f 154 215 155
f 155 215 214
f 155 214 213
f 155 213 216
f 155 216 217
f 155 217 156
f 156 217 157
f 157 217 218
f 157 218 219
f 157 219 158
f 158 219 220
f 158 220 221
f 158 221 222
f 158 222 159
f 159 222 223
f 159 223 224
f 159 224 225
f 159 225 226
f 159 226 160
f 160 227 161
f 160 226 227
f 161 227 162
f 162 227 163
f 163 228 164
f 163 227 229
f 163 229 230
f 163 230 228
f 164 228 231
f 164 231 232
f 164 232 166
f 166 232 233
f 166 233 167
f 167 233 168
f 168 233 169
f 169 231 170
f 169 233 231
f 170 234 174
f 170 174 171
f 170 231 228
f 170 228 234
f 171 174 173
f 171 173 172
f 174 234 175
f 175 234 235
f 175 235 236
f 175 236 176
f 176 236 237
f 176 237 177
f 177 237 238
f 177 238 178
f 179 200 239
f 179 239 240
f 179 240 241
f 179 241 201
f 179 201 180
f 186 242 187
f 187 243 190
f 187 190 189
f 187 189 188
f 187 242 244
f 187 244 243
f 190 245 191
f 190 243 245
f 191 245 193
f 192 195 246
f 192 246 196
f 193 245 247
f 193 247 248
f 193 248 194
f 194 248 249
f 194 249 250
f 194 250 251
f 194 251 252
f 194 252 195
f 195 252 246
f 196 246 197
f 197 246 253
f 197 253 254
f 197 254 199
f 198 199 255
f 198 255 200
f 199 254 255
f 200 255 239
f 201 241 256
f 201 256 257
f 201 257 258
f 201 258 202
f 202 259 260
f 202 260 204
f 202 258 259
f 203 261 205
f 203 204 261
f 204 260 261
f 205 262 263
f 205 263 206
f 205 261 264
f 205 264 262
f 206 263 265
f 206 265 207
f 207 265 208
f 208 265 266
f 208 266 209
f 209 266 210
f 210 267 211
f 210 266 268
f 210 268 267
f 211 267 269
f 211 269 212
f 212 270 271
f 212 271 218
f 212 218 216
f 212 216 213
f 212 269 270
f 216 218 217
f 218 271 220
f 218 220 219
f 220 270 221
f 220 271 270
f 221 270 222
f 222 270 269
f 222 269 223
f 223 269 224
f 224 272 225
f 224 269 272
f 225 272 273
f 225 273 274
f 225 274 275
f 225 275 276
f 225 276 226
f 226 276 229
f 226 229 227
f 228 230 277
f 228 277 234
f 229 277 230
f 229 276 278
f 229 278 277
f 231 233 232
f 234 277 279
f 234 279 280
f 234 280 235
f 235 281 247
f 235 247 282
f 235 282 236
f 235 280 281
f 236 282 237
f 237 282 283
f 237 283 238
f 238 283 284
f 239 255 285
f 239 285 240
f 240 285 286
f 240 286 241
f 241 286 256
f 242 287 288
f 242 288 244
f 243 244 245
f 244 288 289
f 244 289 247
f 244 247 245
f 246 252 251
f 246 251 290
f 246 290 291
f 246 291 253
f 247 292 282
f 247 281 293
f 247 293 248
f 247 289 292
f 248 293 249
f 249 293 281
f 249 281 280
f 249 280 278
f 249 278 294
f 249 294 295
f 249 295 250
f 250 290 251
f 250 295 274
f 250 274 290
f 253 291 254
f 254 291 296
f 254 296 286
f 254 286 285
f 254 285 255
f 256 297 298
f 256 298 257
f 256 286 297
f 257 298 258
f 258 298 259
f 259 264 260
f 259 298 264
f 260 264 261
f 262 273 272
f 262 272 269
f 262 269 268
f 262 268 265
f 262 265 263
f 262 264 273
f 264 298 299
f 264 299 300
f 264 300 301
f 264 301 273
f 265 268 266
f 267 268 269
f 273 301 274
f 274 301 300
f 274 300 290
f 274 295 294
f 274 294 275
f 275 294 278
f 275 278 276
f 277 278 279
f 278 280 279
f 282 292 283
f 283 292 302
f 283 302 284
f 284 302 287
f 286 296 299
f 286 299 297
f 287 302 289
f 287 289 288
f 289 302 292
f 290 300 303
f 290 303 291
f 291 299 296
f 291 303 299
f 297 299 298
f 299 303 300

