# https://github.com/mikedh/trimesh
v -0.00169381 -0.02299447 -0.02134704
v -0.00169381 -0.04004430 -0.01538259
v -0.00169381 -0.02299447 -0.02265829
v -0.04177552 -0.02299447 -0.01552897
v -0.04177552 -0.04004430 -0.00695137
v -0.00169381 -0.04004430 -0.02000932
v -0.00169381 -0.03796314 -0.02265829
v -0.02817560 -0.02299447 -0.02286074
v -0.04177552 -0.02299447 -0.01893946
v -0.04177552 -0.04004430 -0.01111714
v -0.00225492 -0.04004430 -0.02000932
v -0.00387937 -0.04004430 -0.01998752
v -0.00724208 -0.04004430 -0.01988630
v -0.00823872 -0.04004430 -0.01984581
v -0.00866642 -0.04004430 -0.01982401
v -0.01024771 -0.04004430 -0.01972745
v -0.01136208 -0.04004430 -0.01963713
v -0.01206052 -0.04004430 -0.01957484
v -0.01288059 -0.04004430 -0.01949697
v -0.01347309 -0.04004430 -0.01943935
v -0.00246288 -0.03788636 -0.02265829
v -0.00258059 -0.03787134 -0.02265829
v -0.00399316 -0.03766773 -0.02265829
v -0.00442478 -0.03759430 -0.02265829
v -0.00583343 -0.03732394 -0.02265829
v -0.00713221 -0.03701018 -0.02265829
v -0.00790520 -0.03680990 -0.02265829
v -0.00976901 -0.03625415 -0.02265829
v -0.01118551 -0.03573344 -0.02265829
v -0.01248429 -0.03525112 -0.02265829
v -0.01292375 -0.03508589 -0.02265829
v -0.01408128 -0.03460190 -0.02265829
v -0.01556055 -0.03391264 -0.02265829
v -0.01631785 -0.03352544 -0.02265829
v -0.01714185 -0.03309319 -0.02265829
v -0.01789522 -0.03267429 -0.02265829
v -0.01857796 -0.03226540 -0.02265829
v -0.01925678 -0.03181979 -0.02265829
v -0.02051633 -0.03091356 -0.02265829
v -0.02134817 -0.03027436 -0.02265829
v -0.02212509 -0.02963349 -0.02265829
v -0.02304326 -0.02881404 -0.02265829
v -0.02413408 -0.02776929 -0.02265829
v -0.03354730 -0.02673121 -0.02049832
v -0.03483823 -0.02685805 -0.02013079
v -0.03565438 -0.02550455 -0.02026316
v -0.03613309 -0.02430292 -0.02042201
v -0.03687861 -0.02299447 -0.02051545
v -0.04177552 -0.02349682 -0.01880086
v -0.04108886 -0.02299447 -0.01919174
v -0.04062585 -0.02416439 -0.01903913
v -0.04177552 -0.03966545 -0.01141147
v -0.04166566 -0.04004430 -0.01118566
v -0.01412836 -0.04004430 -0.01936927
v -0.01445404 -0.04004430 -0.01933190
v -0.01539575 -0.04004430 -0.01922289
v -0.01557625 -0.04004430 -0.01920109
v -0.01575282 -0.04004430 -0.01917773
v -0.01632570 -0.04004430 -0.01909830
v -0.01726741 -0.04004430 -0.01896593
v -0.01773827 -0.04004430 -0.01889741
v -0.01877023 -0.04004430 -0.01873078
v -0.01883301 -0.04004430 -0.01871988
v -0.02029659 -0.04004430 -0.01845825
v -0.02079491 -0.03975223 -0.01852055
v -0.02151690 -0.03932332 -0.01860308
v -0.02223888 -0.03889273 -0.01867628
v -0.02323945 -0.03824852 -0.01878373
v -0.02483644 -0.03735898 -0.01885381
v -0.02625686 -0.03651784 -0.01890520
v -0.02767335 -0.03566668 -0.01893167
v -0.02730452 -0.03498743 -0.01932100
v -0.02817560 -0.03446672 -0.01931633
v -0.02908200 -0.03392265 -0.01930854
v -0.02985107 -0.03257582 -0.01963090
v -0.03138528 -0.03165457 -0.01956238
v -0.03048673 -0.03129074 -0.01992367
v -0.03166387 -0.03057310 -0.01986450
v -0.03264090 -0.02908441 -0.02007784
v -0.03337857 -0.02773090 -0.02027562
v -0.03425750 -0.02810975 -0.01993613
v -0.03542680 -0.02738210 -0.01981310
v -0.03608600 -0.02606698 -0.01999687
v -0.03681583 -0.02471681 -0.02013391
v -0.03776539 -0.02326150 -0.02021333
v -0.03740440 -0.02299447 -0.02037218
v -0.04177552 -0.02450152 -0.01851276
v -0.04038257 -0.02299447 -0.01944247
v -0.04037865 -0.02346845 -0.01932100
v -0.03910341 -0.02509733 -0.01930542
v -0.03960958 -0.02576156 -0.01892700
v -0.04106139 -0.02479358 -0.01869341
v -0.04177552 -0.03939341 -0.01161859
v -0.04161465 -0.03972887 -0.01145819
v -0.04109670 -0.04004430 -0.01151893
v -0.02125008 -0.04004430 -0.01826671
v -0.02152082 -0.04004430 -0.01821064
v -0.02278429 -0.03946518 -0.01825425
v -0.02379271 -0.03886937 -0.01833679
v -0.02544855 -0.03787802 -0.01844580
v -0.02648444 -0.03727387 -0.01848473
v -0.02722996 -0.03682659 -0.01850497
v -0.02817560 -0.03628586 -0.01850653
v -0.02847773 -0.03611062 -0.01850653
v -0.02817560 -0.03536461 -0.01893167
v -0.02817560 -0.03485391 -0.01915281
v -0.02930958 -0.03467868 -0.01893167
v -0.03036901 -0.03316328 -0.01926805
v -0.03190322 -0.03223369 -0.01919641
v -0.03253888 -0.03095528 -0.01949386
v -0.03309606 -0.02968522 -0.01976639
v -0.03490101 -0.02862712 -0.01958885
v -0.03626257 -0.02777930 -0.01943468
v -0.03662749 -0.02661939 -0.01967450
v -0.03730238 -0.02532597 -0.01983335
v -0.03795374 -0.02400585 -0.01997974
v -0.03816954 -0.02299447 -0.02015571
v -0.04177552 -0.02500887 -0.01836170
v -0.03964490 -0.02299447 -0.01969164
v -0.03921720 -0.02324314 -0.01977261
v -0.03833434 -0.02466507 -0.01968852
v -0.03781640 -0.02592679 -0.01949853
v -0.03777716 -0.02682634 -0.01924002
v -0.04008829 -0.02669283 -0.01845202
v -0.04149301 -0.02576824 -0.01823245
v -0.03831865 -0.02740713 -0.01885692
v -0.04177552 -0.03878592 -0.01207333
v -0.04100646 -0.03929995 -0.01213095
v -0.04084951 -0.04004430 -0.01165753
v -0.02180333 -0.04004430 -0.01814835
v -0.02333362 -0.04004430 -0.01779952
v -0.02433419 -0.03940509 -0.01791320
v -0.02586055 -0.03855060 -0.01798484
v -0.02703770 -0.03784297 -0.01804245
v -0.02779499 -0.03739737 -0.01806270
v -0.02817560 -0.03717874 -0.01806426
v -0.02889758 -0.03676484 -0.01806426
v -0.02986284 -0.03525779 -0.01851120
v -0.03085949 -0.03376410 -0.01888028
v -0.03240155 -0.03284619 -0.01879775
v -0.03235053 -0.03196666 -0.01916683
v -0.03306467 -0.03153774 -0.01911699
v -0.03361400 -0.03031608 -0.01940509
v -0.03530909 -0.02924963 -0.01925092
v -0.03690608 -0.02830669 -0.01904536
v -0.03901709 -0.02299447 -0.01989564
v -0.04177552 -0.02561303 -0.01817483
v -0.03933492 -0.02299447 -0.01979442
v -0.03916619 -0.02800461 -0.01834301
v -0.04177552 -0.02739044 -0.01758772
v -0.04177552 -0.02601858 -0.01804557
v -0.03779286 -0.02866551 -0.01860464
v -0.04177552 -0.03806494 -0.01260748
v -0.04014322 -0.03972052 -0.01228979
v -0.04058661 -0.04004430 -0.01180391
v -0.04166566 -0.03794811 -0.01275542
v -0.04123404 -0.03814338 -0.01284886
v -0.02490707 -0.04004430 -0.01739929
v -0.02505617 -0.03996085 -0.01741019
v -0.02612737 -0.03929494 -0.01750051
v -0.02706124 -0.03871582 -0.01756125
v -0.02817560 -0.03794645 -0.01765936
v -0.02817560 -0.03777621 -0.01774968
v -0.02938021 -0.03735898 -0.01761108
v -0.03043179 -0.03581856 -0.01806737
v -0.03124794 -0.03440330 -0.01847850
v -0.03258204 -0.03363059 -0.01840219
v -0.03374741 -0.03292296 -0.01832900
v -0.03360223 -0.03211853 -0.01871521
v -0.03346490 -0.03196666 -0.01881955
v -0.03367678 -0.03196666 -0.01875258
v -0.03420650 -0.03085014 -0.01902511
v -0.03541503 -0.03011581 -0.01890208
v -0.03655686 -0.02941820 -0.01876816
v -0.03874634 -0.02900764 -0.01813278
v -0.04177552 -0.02855035 -0.01718127
v -0.04177552 -0.02820488 -0.01730430
v -0.03730631 -0.03005239 -0.01826203
v -0.04177552 -0.03786801 -0.01274919
v -0.04028840 -0.03865574 -0.01297812
v -0.03957427 -0.04004430 -0.01234897
v -0.04177552 -0.03761767 -0.01292517
v -0.04177552 -0.03699182 -0.01335498
v -0.04135960 -0.03726719 -0.01338457
v -0.02501693 -0.04004430 -0.01737126
v -0.02517389 -0.04004430 -0.01732921
v -0.02587232 -0.04004430 -0.01713611
v -0.02638242 -0.04004430 -0.01699439
v -0.02699061 -0.03967212 -0.01703955
v -0.02817560 -0.03890608 -0.01712832
v -0.02817560 -0.03806828 -0.01759239
v -0.02836002 -0.03796314 -0.01759551
v -0.02969412 -0.03796981 -0.01718750
v -0.03143629 -0.03693674 -0.01717192
v -0.03092619 -0.03640936 -0.01761108
v -0.03273114 -0.03538130 -0.01753322
v -0.03190322 -0.03499244 -0.01799262
v -0.03314707 -0.03419969 -0.01795680
v -0.03434383 -0.03347871 -0.01787738
v -0.03592120 -0.03254745 -0.01773099
v -0.03529339 -0.03198835 -0.01819507
v -0.03473229 -0.03141925 -0.01862644
v -0.03597221 -0.03069159 -0.01848629
v -0.04177552 -0.02993557 -0.01667359
v -0.03691392 -0.03103039 -0.01801442
v -0.04154794 -0.03088853 -0.01639016
v -0.04044143 -0.03787134 -0.01343596
v -0.03913872 -0.03938173 -0.01304041
v -0.03931529 -0.04004430 -0.01247978
v -0.04177552 -0.03616569 -0.01386578
v -0.04144592 -0.03632091 -0.01392340
v -0.02713579 -0.04004430 -0.01677793
v -0.02797156 -0.04004430 -0.01653187
v -0.02817560 -0.04004430 -0.01647114
v -0.02903492 -0.03940843 -0.01657548
v -0.02827762 -0.03892444 -0.01708627
v -0.03031408 -0.03854726 -0.01666892
v -0.03202486 -0.03755925 -0.01664867
v -0.03367678 -0.03711866 -0.01632942
v -0.03328832 -0.03603218 -0.01701931
v -0.03592905 -0.03578184 -0.01623132
v -0.03386120 -0.03496239 -0.01734946
v -0.03466558 -0.03450344 -0.01729028
v -0.03547389 -0.03409121 -0.01719996
v -0.03700809 -0.03370402 -0.01682932
v -0.03648623 -0.03311655 -0.01727938
v -0.03903670 -0.03331349 -0.01627648
v -0.03789880 -0.03268096 -0.01696013
v -0.04037080 -0.03212187 -0.01630762
v -0.03748680 -0.03160450 -0.01756904
v -0.04177552 -0.03069159 -0.01638237
v -0.04177552 -0.03155610 -0.01603510
v -0.04177552 -0.03103706 -0.01624689
v -0.04035118 -0.03697847 -0.01401372
v -0.03967236 -0.03834032 -0.01348424
v -0.03878951 -0.03886937 -0.01353096
v -0.03793804 -0.04004430 -0.01312606
v -0.03819701 -0.04004430 -0.01301238
v -0.03880520 -0.04004430 -0.01273051
v -0.04177552 -0.03522608 -0.01437346
v -0.04138707 -0.03546307 -0.01440772
v -0.02981183 -0.04004430 -0.01596813
v -0.03006295 -0.04004430 -0.01589027
v -0.03120086 -0.03952359 -0.01582642
v -0.03269583 -0.03983902 -0.01516456
v -0.03191891 -0.03903292 -0.01587314
v -0.03295480 -0.03817509 -0.01600706
v -0.03517175 -0.03820179 -0.01524710
v -0.03503050 -0.03724549 -0.01579839
v -0.03636459 -0.03675983 -0.01559127
v -0.03512074 -0.03616903 -0.01631852
v -0.03747895 -0.03607891 -0.01554299
v -0.03672166 -0.03526280 -0.01620640
v -0.03804398 -0.03482220 -0.01594633
v -0.03749465 -0.03425977 -0.01640262
v -0.03955857 -0.03388426 -0.01583420
v -0.04164996 -0.03351376 -0.01523932
v -0.04117126 -0.03291962 -0.01567536
v -0.04177552 -0.03255412 -0.01561462
v -0.04075141 -0.03196666 -0.01623599
v -0.03990779 -0.03647945 -0.01445911
v -0.03909948 -0.03772448 -0.01409159
v -0.03802044 -0.03836034 -0.01414453
v -0.03717290 -0.03975223 -0.01363374
v -0.03738478 -0.04004430 -0.01335810
v -0.04177552 -0.03475545 -0.01460705
v -0.04031194 -0.03522275 -0.01493408
v -0.03236623 -0.04004430 -0.01515211
v -0.03279392 -0.04004430 -0.01501195
v -0.03382589 -0.04004430 -0.01467090
v -0.03431244 -0.03972052 -0.01469426
v -0.03362577 -0.03914808 -0.01524866
v -0.03589374 -0.03878592 -0.01467713
v -0.03701594 -0.03810666 -0.01465533
v -0.03689038 -0.03731893 -0.01511940
v -0.03801652 -0.03663300 -0.01507268
v -0.03917404 -0.03593371 -0.01500728
v -0.03861294 -0.03538630 -0.01547758
v -0.04008829 -0.03445671 -0.01538103
v -0.04177552 -0.03424141 -0.01485778
v -0.04177552 -0.03344033 -0.01522530
v -0.03815777 -0.03742073 -0.01461484
v -0.03644307 -0.03931998 -0.01417257
v -0.03669419 -0.04004430 -0.01363530
v -0.03697670 -0.04004430 -0.01352317
v -0.04177552 -0.03437660 -0.01479237
v -0.03413587 -0.04004430 -0.01456500
v -0.03505796 -0.04004430 -0.01424264
v -0.03526200 -0.04004430 -0.01417101
v -0.03600360 -0.04004430 -0.01389381
f 1 2 6
f 1 6 7
f 1 7 3
f 1 3 8
f 1 8 48
f 1 48 86
f 1 86 117
f 1 117 146
f 1 146 148
f 1 148 119
f 1 119 88
f 1 88 50
f 1 50 9
f 1 9 4
f 1 4 5
f 1 5 2
f 2 5 10
f 2 10 53
f 2 53 95
f 2 95 129
f 2 129 155
f 2 155 181
f 2 181 209
f 2 209 239
f 2 239 238
f 2 238 237
f 2 237 265
f 2 265 285
f 2 285 284
f 2 284 290
f 2 290 289
f 2 289 288
f 2 288 287
f 2 287 270
f 2 270 269
f 2 269 268
f 2 268 243
f 2 243 242
f 2 242 214
f 2 214 213
f 2 213 212
f 2 212 188
f 2 188 187
f 2 187 186
f 2 186 185
f 2 185 158
f 2 158 131
f 2 131 130
f 2 130 97
f 2 97 96
f 2 96 64
f 2 64 63
f 2 63 62
f 2 62 61
f 2 61 60
f 2 60 59
f 2 59 58
f 2 58 57
f 2 57 56
f 2 56 55
f 2 55 54
f 2 54 20
f 2 20 19
f 2 19 18
f 2 18 17
f 2 17 16
f 2 16 15
f 2 15 14
f 2 14 13
f 2 13 12
f 2 12 11
f 2 11 6
f 3 7 8
f 4 9 49
f 4 49 87
f 4 87 118
f 4 118 147
f 4 147 151
f 4 151 150
f 4 150 177
f 4 177 176
f 4 176 204
f 4 204 231
f 4 231 233
f 4 233 232
f 4 232 259
f 4 259 281
f 4 281 280
f 4 280 286
f 4 286 266
f 4 266 240
f 4 240 210
f 4 210 183
f 4 183 182
f 4 182 179
f 4 179 153
f 4 153 127
f 4 127 93
f 4 93 52
f 4 52 10
f 4 10 5
f 6 11 7
f 7 11 12
f 7 12 13
f 7 13 14
f 7 14 15
f 7 15 16
f 7 16 17
f 7 17 18
f 7 18 19
f 7 19 20
f 7 20 21
f 7 21 8
f 8 21 22
f 8 22 23
f 8 23 24
f 8 24 25
f 8 25 26
f 8 26 27
f 8 27 28
f 8 28 29
f 8 29 30
f 8 30 31
f 8 31 32
f 8 32 33
f 8 33 34
f 8 34 35
f 8 35 36
f 8 36 37
f 8 37 38
f 8 38 39
f 8 39 40
f 8 40 41
f 8 41 42
f 8 42 43
f 8 43 44
f 8 44 45
f 8 45 46
f 8 46 47
f 8 47 48
f 9 50 51
f 9 51 49
f 10 52 53
f 20 54 21
f 21 54 55
f 21 55 22
f 22 55 56
f 22 56 57
f 22 57 23
f 23 57 58
f 23 58 24
f 24 58 59
f 24 59 60
f 24 60 25
f 25 60 61
f 25 61 62
f 25 62 26
f 26 62 27
f 27 62 63
f 27 63 64
f 27 64 28
f 28 64 65
f 28 65 29
f 29 65 30
f 30 65 31
f 31 65 66
f 31 66 67
f 31 67 32
f 32 67 68
f 32 68 33
f 33 68 69
f 33 69 34
f 34 69 70
f 34 70 35
f 35 70 36
f 36 70 71
f 36 71 72
f 36 72 37
f 37 72 73
f 37 73 74
f 37 74 38
f 38 74 75
f 38 75 39
f 39 75 76
f 39 76 77
f 39 77 78
f 39 78 40
f 40 78 41
f 41 78 79
f 41 79 42
f 42 79 80
f 42 80 43
f 43 80 45
f 43 45 44
f 45 80 81
f 45 81 82
f 45 82 83
f 45 83 46
f 46 83 84
f 46 84 47
f 47 84 85
f 47 85 48
f 48 85 86
f 49 51 87
f 50 88 89
f 50 89 51
f 51 89 90
f 51 90 91
f 51 91 92
f 51 92 87
f 52 93 94
f 52 94 53
f 53 94 95
f 64 96 65
f 65 96 97
f 65 97 66
f 66 97 98
f 66 98 67
f 67 98 99
f 67 99 68
f 68 99 100
f 68 100 69
f 69 100 101
f 69 101 70
f 70 101 102
f 70 102 71
f 71 102 103
f 71 103 104
f 71 104 105
f 71 105 106
f 71 106 72
f 72 106 73
f 73 106 107
f 73 107 74
f 74 107 108
f 74 108 75
f 75 108 76
f 76 109 110
f 76 110 78
f 76 78 77
f 76 108 109
f 78 110 111
f 78 111 79
f 79 111 81
f 79 81 80
f 81 112 82
f 81 111 112
f 82 113 114
f 82 114 83
f 82 112 113
f 83 114 115
f 83 115 84
f 84 115 116
f 84 116 85
f 85 116 117
f 85 117 86
f 87 92 118
f 88 119 120
f 88 120 89
f 89 120 121
f 89 121 90
f 90 121 122
f 90 122 123
f 90 123 91
f 91 124 125
f 91 125 92
f 91 123 126
f 91 126 124
f 92 125 118
f 93 127 128
f 93 128 95
f 93 95 94
f 95 128 129
f 97 130 98
f 98 130 131
f 98 131 132
f 98 132 99
f 99 132 133
f 99 133 100
f 100 133 134
f 100 134 101
f 101 134 135
f 101 135 102
f 102 135 136
f 102 136 103
f 103 136 137
f 103 137 104
f 104 137 138
f 104 138 107
f 104 107 105
f 105 107 106
f 107 138 139
f 107 139 108
f 108 139 109
f 109 139 140
f 109 140 141
f 109 141 110
f 110 141 142
f 110 142 143
f 110 143 111
f 111 143 112
f 112 143 144
f 112 144 113
f 113 144 145
f 113 145 123
f 113 123 114
f 114 123 122
f 114 122 115
f 115 122 121
f 115 121 116
f 116 121 120
f 116 120 146
f 116 146 117
f 118 125 147
f 119 148 120
f 120 148 146
f 123 145 126
f 124 126 149
f 124 149 150
f 124 150 151
f 124 151 125
f 125 151 147
f 126 145 152
f 126 152 149
f 127 153 128
f 128 154 155
f 128 155 129
f 128 153 156
f 128 156 157
f 128 157 154
f 131 158 159
f 131 159 132
f 132 159 160
f 132 160 133
f 133 160 161
f 133 161 134
f 134 161 162
f 134 162 135
f 135 162 163
f 135 163 164
f 135 164 136
f 136 164 137
f 137 164 165
f 137 165 138
f 138 165 166
f 138 166 139
f 139 166 167
f 139 167 140
f 140 167 168
f 140 168 169
f 140 169 170
f 140 170 142
f 140 142 141
f 142 170 171
f 142 171 172
f 142 172 143
f 143 172 144
f 144 173 174
f 144 174 145
f 144 172 173
f 145 174 152
f 149 152 175
f 149 175 176
f 149 176 177
f 149 177 150
f 152 174 178
f 152 178 175
f 153 179 156
f 154 180 181
f 154 181 155
f 154 157 180
f 156 179 182
f 156 182 157
f 157 182 183
f 157 183 184
f 157 184 180
f 158 185 159
f 159 185 186
f 159 186 187
f 159 187 160
f 160 187 188
f 160 188 189
f 160 189 161
f 161 189 190
f 161 190 191
f 161 191 162
f 162 191 192
f 162 192 163
f 163 192 164
f 164 192 193
f 164 193 194
f 164 194 195
f 164 195 165
f 165 195 196
f 165 196 197
f 165 197 166
f 166 197 198
f 166 198 167
f 167 198 168
f 168 199 200
f 168 200 201
f 168 201 202
f 168 202 169
f 168 198 199
f 169 202 171
f 169 171 170
f 171 202 172
f 172 202 173
f 173 203 174
f 173 202 203
f 174 203 178
f 175 204 176
f 175 178 204
f 178 203 205
f 178 205 206
f 178 206 204
f 180 207 208
f 180 208 209
f 180 209 181
f 180 184 207
f 183 210 184
f 184 210 211
f 184 211 207
f 188 212 189
f 189 212 213
f 189 213 214
f 189 214 190
f 190 214 215
f 190 215 216
f 190 216 217
f 190 217 193
f 190 193 192
f 190 192 191
f 193 217 218
f 193 218 194
f 194 218 219
f 194 219 220
f 194 220 195
f 195 220 196
f 196 220 221
f 196 221 222
f 196 222 198
f 196 198 197
f 198 222 223
f 198 223 199
f 199 223 224
f 199 224 225
f 199 225 226
f 199 226 200
f 200 226 227
f 200 227 228
f 200 228 229
f 200 229 230
f 200 230 201
f 201 230 205
f 201 205 203
f 201 203 202
f 204 206 231
f 205 230 232
f 205 232 206
f 206 232 233
f 206 233 231
f 207 234 235
f 207 235 208
f 207 211 234
f 208 236 237
f 208 237 238
f 208 238 239
f 208 239 209
f 208 235 236
f 210 240 211
f 211 241 234
f 211 240 241
f 214 242 215
f 215 242 243
f 215 243 217
f 215 217 216
f 217 243 244
f 217 244 245
f 217 245 246
f 217 246 247
f 217 247 218
f 218 247 219
f 219 247 248
f 219 248 249
f 219 249 250
f 219 250 220
f 220 250 251
f 220 251 221
f 221 250 252
f 221 252 253
f 221 253 222
f 221 251 250
f 222 253 223
f 223 253 224
f 224 253 254
f 224 254 255
f 224 255 225
f 225 255 256
f 225 256 226
f 226 256 227
f 227 256 257
f 227 257 258
f 227 258 228
f 228 258 259
f 228 259 229
f 229 259 260
f 229 260 230
f 230 260 232
f 232 260 259
f 234 261 262
f 234 262 235
f 234 241 261
f 235 262 236
f 236 262 263
f 236 263 264
f 236 264 265
f 236 265 237
f 240 266 241
f 241 266 267
f 241 267 261
f 243 268 244
f 244 268 245
f 245 268 269
f 245 269 270
f 245 270 271
f 245 271 272
f 245 272 246
f 246 272 247
f 247 272 248
f 248 272 273
f 248 273 274
f 248 274 275
f 248 275 249
f 249 275 250
f 250 275 276
f 250 276 252
f 252 276 277
f 252 277 278
f 252 278 253
f 253 278 254
f 254 278 279
f 254 279 255
f 255 279 256
f 256 279 257
f 257 279 280
f 257 280 281
f 257 281 259
f 257 259 258
f 261 267 277
f 261 277 276
f 261 276 282
f 261 282 262
f 262 282 263
f 263 282 274
f 263 274 283
f 263 283 264
f 264 283 284
f 264 284 285
f 264 285 265
f 266 286 267
f 267 279 278
f 267 278 277
f 267 286 280
f 267 280 279
f 270 287 271
f 271 287 288
f 271 288 289
f 271 289 273
f 271 273 272
f 273 283 274
f 273 289 283
f 274 282 275
f 275 282 276
f 283 289 290
f 283 290 284

