# https://github.com/mikedh/trimesh
v -0.00462411 -0.00188947 -0.02792590
v -0.00169048 -0.00674963 -0.02782059
v -0.00169048 -0.00770769 -0.02778957
v -0.00169048 -0.00910819 -0.02773853
v -0.00169048 -0.00994982 -0.02770235
v -0.00169048 -0.01104094 -0.02765518
v -0.00169048 -0.01165969 -0.02762481
v -0.00169048 -0.01207219 -0.02760284
v -0.00169048 -0.01311674 -0.02754534
v -0.00169048 -0.01343942 -0.02752531
v -0.00169048 -0.01476673 -0.02743938
v -0.00169048 -0.01575806 -0.02736637
v -0.00169048 -0.01633356 -0.02732114
v -0.00169048 -0.01737146 -0.02722745
v -0.00169048 -0.01820311 -0.02714863
v -0.00169048 -0.01931419 -0.02702134
v -0.00169048 -0.01970008 -0.02697353
v -0.00169048 -0.02022568 -0.02690762
v -0.00169048 -0.02034876 -0.02689082
v -0.00169048 -0.02045189 -0.02687661
v -0.00462411 -0.00188947 -0.02443364
v -0.00462411 0.00157685 -0.02803639
v -0.00082379 -0.00672967 -0.02782899
v -0.00365352 0.00220557 -0.02806805
v -0.00093862 -0.00978016 -0.02771721
v -0.00020590 -0.01131705 -0.02764807
v -0.00038635 -0.01302359 -0.02755632
v -0.00076911 -0.01466693 -0.02745359
v -0.00133232 -0.01625705 -0.02733212
v -0.00067342 -0.01803012 -0.02718093
v -0.00062694 -0.01904141 -0.02706980
v -0.00098784 -0.01974332 -0.02698257
v -0.00145536 -0.02036207 -0.02689470
v -0.00169048 -0.02045189 -0.02206368
v -0.00147996 -0.02045189 -0.02688113
v -0.00462411 0.01353264 -0.02298182
v -0.00462411 0.00226878 -0.02805577
v 0.00098341 -0.00689932 -0.02781865
v -0.00003366 -0.00849942 -0.02776760
v -0.00178891 0.00349297 -0.02811909
v -0.00002272 0.00229872 -0.02808162
v -0.00462411 0.00353621 -0.02809002
v -0.00462411 0.00448429 -0.02811522
v -0.00318600 0.00442774 -0.02813331
v 0.00321165 -0.01165969 -0.02760543
v 0.00299292 -0.01399496 -0.02748525
v 0.00100801 -0.01377208 -0.02751045
v 0.00210436 -0.00916141 -0.02772884
v 0.00160403 -0.01631693 -0.02733987
v 0.00078929 -0.01751117 -0.02724167
v 0.00146186 -0.01932084 -0.02705041
v 0.00109003 -0.02003939 -0.02696190
v 0.00075375 -0.02045189 -0.02690698
v 0.00025889 -0.02045189 -0.02690245
v -0.00129405 -0.02045189 -0.02688436
v 0.02330683 -0.02045189 -0.02158297
v 0.02165821 0.01353264 -0.02158362
v -0.00462411 0.01353264 -0.02789941
v 0.00259922 -0.00549217 -0.02784837
v -0.00038908 0.00582159 -0.02816884
v 0.00045300 0.00439115 -0.02813718
v -0.00462411 0.00561534 -0.02813331
v -0.00388045 0.00677300 -0.02816174
v -0.00178617 0.00683953 -0.02818177
v 0.00467162 -0.00801706 -0.02773659
v 0.00795247 -0.00966373 -0.02760672
v 0.00794427 -0.01193247 -0.02750464
v 0.00587187 -0.01327974 -0.02748202
v 0.00512001 -0.01492308 -0.02740255
v 0.00435448 -0.01567156 -0.02736314
v 0.00362175 -0.01742468 -0.02723908
v 0.00222466 -0.01828627 -0.02716155
v 0.00318157 -0.01881520 -0.02710146
v 0.00254728 -0.01994624 -0.02697611
v 0.00179815 -0.02045189 -0.02690956
v 0.02330683 -0.02045189 -0.02539571
v 0.02330683 -0.00188947 -0.02325642
v 0.02165821 0.01353264 -0.02672800
v -0.00385037 0.01353264 -0.02792784
v -0.00462411 0.01324323 -0.02792138
v 0.00583359 -0.00574167 -0.02779216
v 0.00317884 0.00302059 -0.02807516
v 0.00104355 0.00691604 -0.02817983
v 0.00322258 0.00659003 -0.02815398
v 0.00401272 0.00519619 -0.02811651
v -0.00462411 0.00663660 -0.02814558
v -0.00462411 0.00707572 -0.02814687
v -0.00385858 0.00863922 -0.02815075
v -0.00286065 0.00763791 -0.02817401
v -0.00016762 0.00923135 -0.02818047
v 0.00131696 0.00819345 -0.02818370
v 0.01292022 -0.01021927 -0.02745036
v 0.00990184 -0.01201231 -0.02745036
v 0.00944799 -0.00636707 -0.02769007
v 0.01379238 -0.00714217 -0.02755762
v 0.00800989 -0.01514929 -0.02732889
v 0.00736739 -0.01611733 -0.02728302
v 0.00626284 -0.01727166 -0.02721388
v 0.00570509 -0.01815321 -0.02714346
v 0.00419864 -0.01813990 -0.02716672
v 0.00444196 -0.01923768 -0.02704331
v 0.00395531 -0.01979655 -0.02698322
v 0.00334835 -0.02045189 -0.02690569
v 0.00249260 -0.02045189 -0.02691021
v 0.02129731 -0.02045189 -0.02564317
v 0.01892690 -0.01891500 -0.02617169
v 0.02073683 -0.01796359 -0.02608641
v 0.02330683 -0.01978989 -0.02549133
v 0.02330683 -0.00188947 -0.02703426
v 0.02165821 0.01153003 -0.02688372
v 0.02072043 0.01104102 -0.02704783
v 0.01944910 0.01124062 -0.02720161
v 0.02091181 0.01353264 -0.02682427
v -0.00315046 0.01353264 -0.02794852
v -0.00382030 0.01350270 -0.02793107
v -0.00413471 0.01194586 -0.02802282
v -0.00462411 0.01232176 -0.02798147
v 0.01518127 -0.00271779 -0.02767973
v 0.01344789 -0.00430125 -0.02766746
v 0.00605778 -0.00188947 -0.02789230
v 0.01133994 0.00248834 -0.02791427
v 0.01365568 -0.00013302 -0.02779345
v 0.00861958 0.00458077 -0.02801894
v 0.00622729 0.00099469 -0.02796661
v 0.00248713 0.00787077 -0.02817401
v 0.00418497 0.00760464 -0.02815463
v 0.00627650 0.00720878 -0.02811457
v 0.00791419 0.00688277 -0.02807968
v -0.00462411 0.00808035 -0.02814041
v -0.00462411 0.00859264 -0.02813395
v -0.00462411 0.00945091 -0.02811328
v -0.00407457 0.01011290 -0.02810940
v -0.00223182 0.00987671 -0.02815075
v -0.00211973 0.00892198 -0.02817014
v 0.00096700 0.00920474 -0.02817789
v 0.00029716 0.01088800 -0.02814235
v 0.00191571 0.01027258 -0.02815786
v 0.00279061 0.00899849 -0.02817272
v 0.01520861 -0.00803037 -0.02748008
v 0.01378417 -0.01078147 -0.02739157
v 0.01227772 -0.01154991 -0.02740126
v 0.01179106 -0.01325978 -0.02732178
v 0.01573901 -0.00509964 -0.02758023
v 0.00953274 -0.01554183 -0.02725782
v 0.00890392 -0.01708204 -0.02716026
v 0.00817119 -0.01769081 -0.02712730
v 0.00775015 -0.01885512 -0.02702328
v 0.00562580 -0.01903808 -0.02705171
v 0.00541255 -0.02019241 -0.02691279
v 0.00365730 -0.02045189 -0.02690310
v 0.01902533 -0.02045189 -0.02591648
v 0.01863983 -0.02045189 -0.02596042
v 0.01704315 -0.01969675 -0.02626021
v 0.01698847 -0.01771410 -0.02656001
v 0.01915383 -0.01720513 -0.02638879
v 0.01989475 -0.01582792 -0.02647408
v 0.02178124 -0.01682257 -0.02609675
v 0.02330683 -0.01850915 -0.02566449
v 0.02330683 -0.00225539 -0.02702651
v 0.02295687 -0.00188947 -0.02708918
v 0.02165821 -0.00005319 -0.02730046
v 0.02165821 0.00154691 -0.02729723
v 0.02165821 0.00217896 -0.02729465
v 0.02165821 0.00267795 -0.02728883
v 0.02165821 0.00313702 -0.02728108
v 0.02165821 0.00431796 -0.02725588
v 0.02165821 0.00472048 -0.02724619
v 0.02165821 0.00646362 -0.02718804
v 0.02165821 0.00817017 -0.02710146
v 0.02165821 0.00950081 -0.02702393
v 0.02165821 0.00969375 -0.02701229
v 0.02165821 0.00984012 -0.02700325
v 0.02165821 0.01001976 -0.02699097
v 0.01971704 0.00931784 -0.02730628
v 0.01864529 0.01000312 -0.02739221
v 0.01758722 0.01069838 -0.02746522
v 0.01846211 0.01262116 -0.02720548
v 0.02030212 0.01353264 -0.02689987
v -0.00253257 0.01353264 -0.02796661
v -0.00290713 0.01127721 -0.02808872
v -0.00462411 0.01108759 -0.02805254
v -0.00462411 0.01194918 -0.02800538
v -0.00248609 0.01353264 -0.02796790
v -0.00230017 0.01233174 -0.02804673
v 0.01623934 -0.00354611 -0.02761964
v 0.01568980 -0.00125741 -0.02771075
v 0.01286827 0.00436454 -0.02792396
v 0.01403297 0.00158017 -0.02783157
v 0.01041311 0.00573177 -0.02800667
v 0.00513094 0.00902843 -0.02814752
v 0.00738379 0.00869910 -0.02810617
v 0.00960656 0.00708570 -0.02804414
v -0.00462411 0.00998316 -0.02809777
v -0.00462411 0.01067842 -0.02807128
v -0.00462411 0.01086471 -0.02806353
v -0.00164127 0.01090796 -0.02812620
v 0.00251447 0.01115412 -0.02813460
v 0.00091232 0.01200906 -0.02810423
v 0.00385961 0.01064183 -0.02814106
v 0.00577071 0.00984677 -0.02813137
v 0.01638151 -0.00790063 -0.02743809
v 0.01565972 -0.00932442 -0.02739673
v 0.01668772 -0.00563854 -0.02752596
v 0.01463719 -0.01206553 -0.02728043
v 0.01307879 -0.01387520 -0.02723004
v 0.01150672 -0.01496300 -0.02721776
v 0.01122238 -0.01669616 -0.02709564
v 0.01020805 -0.01815321 -0.02700389
v 0.00884377 -0.01957034 -0.02690181
v 0.00746308 -0.02006933 -0.02688501
v 0.00672489 -0.01963687 -0.02695996
v 0.00630931 -0.02031550 -0.02687984
v 0.00628744 -0.02045189 -0.02686175
v 0.00559300 -0.02045189 -0.02687402
v 0.00515008 -0.02045189 -0.02688113
v 0.00426972 -0.02045189 -0.02689470
v 0.01729741 -0.02045189 -0.02610902
v 0.01568707 -0.01925764 -0.02646633
v 0.01562418 -0.02045189 -0.02628154
v 0.01541366 -0.02045189 -0.02630286
v 0.01535898 -0.01822972 -0.02664401
v 0.01534805 -0.01746128 -0.02674416
v 0.01657289 -0.01616390 -0.02678745
v 0.01755168 -0.01609072 -0.02670410
v 0.01825159 -0.01668950 -0.02655937
v 0.01898978 -0.01524243 -0.02665111
v 0.01991936 -0.01441411 -0.02663367
v 0.02131098 -0.01517590 -0.02636036
v 0.02330683 -0.01723507 -0.02582925
v 0.02178124 -0.01545866 -0.02625957
v 0.02330683 -0.00325670 -0.02699873
v 0.02257957 -0.00188947 -0.02714604
v 0.02165821 -0.00010308 -0.02729982
v 0.02092002 -0.00152022 -0.02736572
v 0.02075050 0.00056556 -0.02741095
v 0.02113600 0.00162009 -0.02736572
v 0.02149416 0.00233864 -0.02731468
v 0.02030212 0.00402190 -0.02744325
v 0.02077511 0.00465395 -0.02737024
v 0.02101844 0.00543238 -0.02731661
v 0.01996310 0.00700918 -0.02739867
v 0.02037867 0.00830323 -0.02727979
v 0.02150510 0.00972701 -0.02703232
v 0.01927412 0.00834315 -0.02741999
v 0.01807388 0.00907833 -0.02751885
v 0.01647173 0.01095786 -0.02756214
v 0.01664398 0.01177287 -0.02748267
v 0.01706502 0.00965383 -0.02759057
v 0.01696933 0.01284736 -0.02735280
v 0.01763370 0.01353264 -0.02721388
v 0.01822152 0.01353264 -0.02714733
v 0.01898432 0.01353264 -0.02706011
v -0.00106439 0.01203567 -0.02808614
v -0.00226190 0.01353264 -0.02797242
v -0.00076091 0.01338295 -0.02801184
v 0.01762823 -0.00209572 -0.02761254
v 0.01688457 0.00044913 -0.02771398
v 0.01470008 0.00316696 -0.02784514
v 0.01157507 0.00644699 -0.02798793
v 0.01310066 0.00545899 -0.02793043
v 0.00827509 0.00982016 -0.02807709
v 0.00934956 0.00866250 -0.02805707
v 0.01189495 0.00716221 -0.02798405
v 0.00465795 0.01138033 -0.02811198
v 0.00341397 0.01261118 -0.02807128
v 0.00045300 0.01353264 -0.02801636
v 0.00078109 0.01353264 -0.02801830
v 0.00198133 0.01345280 -0.02802928
v 0.00662373 0.01100775 -0.02809196
v 0.01737397 -0.00803037 -0.02737929
v 0.01638971 -0.00965707 -0.02734311
v 0.01758449 -0.00586143 -0.02747233
v 0.01819691 -0.00278765 -0.02755955
v 0.01671780 -0.01083469 -0.02724748
v 0.01550935 -0.01311341 -0.02716155
v 0.01374316 -0.01421451 -0.02717511
v 0.01248551 -0.01644666 -0.02705106
v 0.01199611 -0.01810331 -0.02691085
v 0.00994012 -0.01912457 -0.02690762
v 0.00957649 -0.02045189 -0.02674868
v 0.00822861 -0.02045189 -0.02680618
v 0.00810831 -0.02045189 -0.02681071
v 0.00722795 -0.02045189 -0.02683849
v 0.01394275 -0.01986973 -0.02653158
v 0.01495161 -0.01891500 -0.02658392
v 0.01512659 -0.02045189 -0.02632935
v 0.01423802 -0.01849917 -0.02670151
v 0.01351897 -0.01808002 -0.02681135
v 0.01416694 -0.01692902 -0.02689470
v 0.01634597 -0.01535221 -0.02689858
v 0.01854687 -0.01444072 -0.02679132
v 0.02178124 -0.01408145 -0.02641463
v 0.01974985 -0.01226845 -0.02686756
v 0.02049624 -0.01327309 -0.02667825
v 0.02186872 -0.01413800 -0.02639590
v 0.02330683 -0.01642005 -0.02592553
v 0.02330683 -0.01503951 -0.02608318
v 0.02330683 -0.00358271 -0.02698645
v 0.02316740 -0.00354279 -0.02701165
v 0.02178124 -0.00188947 -0.02725459
v 0.02165821 -0.00188614 -0.02727139
v 0.02215033 -0.00271114 -0.02718481
v 0.02178124 -0.00212898 -0.02724942
v 0.02159806 -0.00188947 -0.02727849
v 0.02095556 -0.00188947 -0.02735215
v 0.02071770 -0.00188947 -0.02737606
v 0.01980179 -0.00171981 -0.02747104
v 0.02035407 -0.00072183 -0.02743744
v 0.01974985 0.00002333 -0.02750593
v 0.01916750 0.00181304 -0.02757312
v 0.01928233 0.00271454 -0.02756408
v 0.01976898 0.00296737 -0.02751562
v 0.02038141 0.00300729 -0.02744584
v 0.01929600 0.00458077 -0.02754663
v 0.01935068 0.00546897 -0.02752273
v 0.01959401 0.00629396 -0.02747168
v 0.01861795 0.00778095 -0.02752531
v 0.01714704 0.00862591 -0.02763903
v 0.01582377 0.01037237 -0.02766293
v 0.01533437 0.01206561 -0.02758799
v 0.01610537 0.01353264 -0.02738123
v 0.01562692 0.00955070 -0.02772819
v 0.00032724 0.01353264 -0.02801507
v -0.00086754 0.01353264 -0.02799891
v -0.00063514 0.01353264 -0.02800279
v 0.01764737 -0.00188947 -0.02761706
v 0.01775400 -0.00188947 -0.02761189
v 0.01638151 0.00219892 -0.02776567
v 0.01741771 0.00101465 -0.02769782
v 0.01777587 -0.00012970 -0.02765647
v 0.01472742 0.00534588 -0.02786969
v 0.01073572 0.00970373 -0.02800215
v 0.00979521 0.00928790 -0.02803962
v 0.00864692 0.01098447 -0.02804091
v 0.01218750 0.00789738 -0.02797307
v 0.00531412 0.01197912 -0.02808162
v 0.00585820 0.01257458 -0.02804673
v 0.00222739 0.01353264 -0.02802347
v 0.00351786 0.01353264 -0.02801571
v 0.00466342 0.01325321 -0.02802541
v 0.00200047 0.01353264 -0.02802411
v 0.00700102 0.01196581 -0.02804931
v 0.01775126 -0.00904165 -0.02729529
v 0.01868357 -0.00560860 -0.02741547
v 0.01891323 -0.00696918 -0.02733018
v 0.01844844 -0.00426133 -0.02748977
v 0.01812856 -0.00127405 -0.02760931
v 0.01875739 -0.00188947 -0.02754857
v 0.01903353 -0.00313029 -0.02749236
v 0.01653462 -0.01291382 -0.02710921
v 0.01803014 -0.01033903 -0.02718933
v 0.01551756 -0.01478669 -0.02701876
v 0.01457431 -0.01466361 -0.02709112
v 0.01340688 -0.01653981 -0.02698580
v 0.01267689 -0.01888839 -0.02677129
v 0.01073846 -0.01962689 -0.02680037
v 0.00968038 -0.02045189 -0.02674351
v 0.01165162 -0.02011257 -0.02667502
v 0.01383065 -0.01918445 -0.02664078
v 0.01352718 -0.02045189 -0.02647408
v 0.01250738 -0.02045189 -0.02655484
v 0.01704862 -0.01366230 -0.02700454
v 0.01777314 -0.01408478 -0.02690245
v 0.01816957 -0.01338952 -0.02693282
v 0.02178124 -0.01254124 -0.02657358
v 0.02206284 -0.01237823 -0.02655032
v 0.01856327 -0.01269426 -0.02695608
v 0.01895424 -0.01199235 -0.02697740
v 0.01934521 -0.01129043 -0.02699356
v 0.01973618 -0.01059850 -0.02700713
v 0.02012988 -0.00989659 -0.02701940
v 0.02125083 -0.00941423 -0.02692442
v 0.02120436 -0.01139023 -0.02676418
v 0.02330683 -0.01314668 -0.02627830
v 0.02330683 -0.00401516 -0.02696706
v 0.02330683 -0.00485347 -0.02692636
v 0.02244561 -0.00413492 -0.02709306
v 0.02164727 -0.00191608 -0.02727203
v 0.02154064 -0.00376567 -0.02722745
v 0.02105398 -0.00300055 -0.02731015
v 0.02015722 -0.00290741 -0.02740384
v 0.01985374 -0.00188947 -0.02746135
v 0.01886949 -0.00171316 -0.02754599
v 0.01925225 -0.00100459 -0.02753306
v 0.01971157 -0.00188947 -0.02747362
v 0.01889409 0.00013976 -0.02758088
v 0.01897338 0.00101465 -0.02758475
v 0.01802193 0.00199600 -0.02766810
v 0.01807661 0.00344972 -0.02766810
v 0.01892417 0.00386222 -0.02759186
v 0.01827347 0.00492341 -0.02764097
v 0.01783875 0.00641705 -0.02765130
v 0.01808482 0.00710233 -0.02760737
v 0.01689278 0.00781755 -0.02769782
v 0.01447042 0.01116743 -0.02772755
v 0.01403844 0.01240825 -0.02767198
v 0.01425716 0.01321662 -0.02758346
v 0.01449776 0.01353264 -0.02753306
v 0.01490240 0.01353264 -0.02749559
v 0.01372676 0.00976028 -0.02785289
v 0.01376777 0.01067509 -0.02780767
v 0.01544647 0.00874899 -0.02777665
v 0.01649087 0.00331333 -0.02777213
v 0.01706229 0.00215900 -0.02773207
v 0.01815864 0.00057554 -0.02764161
v 0.01851406 -0.00056881 -0.02760026
v 0.01550935 0.00595798 -0.02783093
v 0.01667405 0.00423147 -0.02776631
v 0.01302958 0.00924798 -0.02791104
v 0.01272337 0.00845625 -0.02794335
v 0.01026547 0.01092792 -0.02798341
v 0.01153679 0.01008296 -0.02795756
v 0.00867152 0.01183940 -0.02800667
v 0.01486412 0.00719547 -0.02785354
v 0.00622729 0.01329645 -0.02799698
v 0.00721428 0.01263779 -0.02801184
v 0.00422598 0.01353264 -0.02801119
v 0.00479192 0.01353264 -0.02800473
v 0.00579531 0.01353264 -0.02798858
v 0.01937255 -0.00783410 -0.02724102
v 0.01967603 -0.00557867 -0.02733858
v 0.01937528 -0.00429127 -0.02742129
v 0.02002325 -0.00666979 -0.02724877
v 0.01784149 -0.01227178 -0.02705817
v 0.01744505 -0.01297037 -0.02703491
v 0.01901712 -0.01017602 -0.02711373
v 0.01862342 -0.01087461 -0.02709887
v 0.01823245 -0.01156987 -0.02708014
v 0.00978154 -0.02045189 -0.02673834
v 0.01152586 -0.02045189 -0.02663044
v 0.01012330 -0.02045189 -0.02671766
v 0.02178124 -0.01205223 -0.02662075
v 0.02330683 -0.01226180 -0.02636553
v 0.02178124 -0.01038227 -0.02676871
v 0.02209018 -0.00984669 -0.02677000
v 0.02330683 -0.01079477 -0.02650315
v 0.01941083 -0.00947744 -0.02712601
v 0.01980453 -0.00877885 -0.02713700
v 0.02051811 -0.00919800 -0.02702909
v 0.02090361 -0.00849277 -0.02703491
v 0.02129184 -0.00779085 -0.02703491
v 0.02167734 -0.00708561 -0.02703297
v 0.02178124 -0.00704570 -0.02702134
v 0.02276823 -0.00666646 -0.02690956
v 0.02178124 -0.00921131 -0.02686304
v 0.02178124 -0.00968701 -0.02682751
v 0.02330683 -0.00527262 -0.02690504
v 0.02244014 -0.00566516 -0.02701552
v 0.02178124 -0.00528260 -0.02712666
v 0.02073683 -0.00525266 -0.02725007
v 0.02048530 -0.00405841 -0.02733083
v 0.01744232 0.00286757 -0.02771204
v 0.01699667 0.00500657 -0.02774047
v 0.01708963 0.00588147 -0.02772496
v 0.01665218 0.00708902 -0.02773917
v 0.01300771 0.01206561 -0.02777600
v 0.01267962 0.01321662 -0.02770945
v 0.01397556 0.01353264 -0.02757829
v 0.01505824 0.00799053 -0.02782769
v 0.01230779 0.01062187 -0.02789941
v 0.01150945 0.01205563 -0.02787163
v 0.01611358 0.00648358 -0.02778957
v 0.01092437 0.01141027 -0.02793430
v 0.00904062 0.01253466 -0.02795886
v 0.00623276 0.01353264 -0.02797953
v 0.00744121 0.01353264 -0.02794852
v 0.00752869 0.01347609 -0.02794981
v 0.02019276 -0.00808027 -0.02714604
v 0.02096376 -0.00666979 -0.02714798
v 0.02057553 -0.00737503 -0.02714863
v 0.02296781 -0.00874891 -0.02672542
v 0.02330683 -0.00867573 -0.02667696
v 0.02182498 -0.00681616 -0.02703168
v 0.02206011 -0.00637705 -0.02702845
v 0.02330683 -0.00570175 -0.02688049
v 0.02330683 -0.00681283 -0.02681394
v 0.02330683 -0.00801706 -0.02672606
v 0.02134652 -0.00596122 -0.02714346
v 0.01149578 0.01297710 -0.02780702
v 0.01146298 0.01353264 -0.02776243
v 0.01214375 0.01353264 -0.02771785
v 0.01292569 0.01353264 -0.02766164
v 0.00949720 0.01320996 -0.02789554
v 0.00757244 0.01353264 -0.02794464
v 0.00986083 0.01353264 -0.02785225
v 0.01049513 0.01353264 -0.02781865
v 0.00893399 0.01353264 -0.02789360
f 1 2 3
f 1 3 4
f 1 4 5
f 1 5 6
f 1 6 7
f 1 7 8
f 1 8 9
f 1 9 10
f 1 10 11
f 1 11 12
f 1 12 13
f 1 13 14
f 1 14 15
f 1 15 16
f 1 16 17
f 1 17 18
f 1 18 19
f 1 19 20
f 1 20 34
f 1 34 21
f 1 21 36
f 1 36 58
f 1 58 80
f 1 80 117
f 1 117 182
f 1 182 181
f 1 181 195
f 1 195 194
f 1 194 193
f 1 193 131
f 1 131 130
f 1 130 129
f 1 129 87
f 1 87 86
f 1 86 62
f 1 62 43
f 1 43 42
f 1 42 37
f 1 37 22
f 1 22 2
f 2 23 3
f 2 22 24
f 2 24 23
f 3 23 4
f 4 25 5
f 4 23 25
f 5 25 6
f 6 26 7
f 6 25 26
f 7 26 8
f 8 27 9
f 8 26 27
f 9 27 28
f 9 28 10
f 10 28 11
f 11 28 12
f 12 28 29
f 12 29 13
f 13 30 14
f 13 29 30
f 14 30 15
f 15 30 31
f 15 31 16
f 16 31 32
f 16 32 17
f 17 32 18
f 18 33 19
f 18 32 33
f 19 33 20
f 20 33 35
f 20 35 55
f 20 55 54
f 20 54 53
f 20 53 75
f 20 75 104
f 20 104 103
f 20 103 150
f 20 150 216
f 20 216 215
f 20 215 214
f 20 214 213
f 20 213 283
f 20 283 282
f 20 282 281
f 20 281 280
f 20 280 357
f 20 357 429
f 20 429 431
f 20 431 430
f 20 430 361
f 20 361 360
f 20 360 286
f 20 286 220
f 20 220 219
f 20 219 217
f 20 217 152
f 20 152 151
f 20 151 105
f 20 105 76
f 20 76 56
f 20 56 34
f 21 34 36
f 22 37 24
f 23 38 39
f 23 39 25
f 23 24 40
f 23 40 41
f 23 41 38
f 24 37 42
f 24 42 43
f 24 43 44
f 24 44 40
f 25 39 26
f 26 45 46
f 26 46 47
f 26 47 27
f 26 39 48
f 26 48 45
f 27 47 28
f 28 47 49
f 28 49 29
f 29 49 50
f 29 50 30
f 30 50 51
f 30 51 31
f 31 51 52
f 31 52 32
f 32 52 53
f 32 53 54
f 32 54 33
f 33 54 55
f 33 55 35
f 34 56 57
f 34 57 36
f 36 57 78
f 36 78 113
f 36 113 178
f 36 178 252
f 36 252 251
f 36 251 250
f 36 250 321
f 36 321 399
f 36 399 398
f 36 398 458
f 36 458 482
f 36 482 481
f 36 481 480
f 36 480 486
f 36 486 485
f 36 485 487
f 36 487 484
f 36 484 466
f 36 466 465
f 36 465 419
f 36 419 418
f 36 418 417
f 36 417 339
f 36 339 338
f 36 338 341
f 36 341 267
f 36 267 266
f 36 266 323
f 36 323 325
f 36 325 324
f 36 324 254
f 36 254 183
f 36 183 179
f 36 179 114
f 36 114 79
f 36 79 58
f 38 59 48
f 38 48 39
f 38 41 59
f 40 44 60
f 40 60 61
f 40 61 41
f 41 61 59
f 43 62 63
f 43 63 44
f 44 63 64
f 44 64 60
f 45 48 65
f 45 65 66
f 45 66 67
f 45 67 68
f 45 68 46
f 46 69 70
f 46 70 49
f 46 49 47
f 46 68 69
f 48 59 65
f 49 71 50
f 49 70 71
f 50 71 72
f 50 72 51
f 51 72 73
f 51 73 74
f 51 74 52
f 52 74 75
f 52 75 53
f 56 76 108
f 56 108 158
f 56 158 229
f 56 229 296
f 56 296 297
f 56 297 374
f 56 374 433
f 56 433 436
f 56 436 472
f 56 472 477
f 56 477 476
f 56 476 475
f 56 475 447
f 56 447 376
f 56 376 375
f 56 375 298
f 56 298 231
f 56 231 159
f 56 159 109
f 56 109 77
f 56 77 57
f 57 77 109
f 57 109 78
f 58 79 80
f 59 81 65
f 59 61 82
f 59 82 81
f 60 64 83
f 60 83 61
f 61 83 84
f 61 84 85
f 61 85 82
f 62 86 63
f 63 87 88
f 63 88 89
f 63 89 64
f 63 86 87
f 64 89 90
f 64 90 91
f 64 91 83
f 65 81 66
f 66 92 93
f 66 93 67
f 66 81 94
f 66 94 95
f 66 95 92
f 67 93 96
f 67 96 68
f 68 96 69
f 69 96 97
f 69 97 70
f 70 97 98
f 70 98 71
f 71 98 99
f 71 99 100
f 71 100 72
f 72 100 73
f 73 101 102
f 73 102 74
f 73 100 101
f 74 102 103
f 74 103 104
f 74 104 75
f 76 105 106
f 76 106 107
f 76 107 108
f 78 110 111
f 78 111 112
f 78 112 113
f 78 109 110
f 79 114 115
f 79 115 80
f 80 115 116
f 80 116 117
f 81 118 119
f 81 119 94
f 81 82 120
f 81 120 121
f 81 121 122
f 81 122 118
f 82 85 123
f 82 123 124
f 82 124 120
f 83 91 125
f 83 125 126
f 83 126 84
f 84 126 127
f 84 127 85
f 85 127 128
f 85 128 123
f 87 129 88
f 88 130 131
f 88 131 132
f 88 132 133
f 88 133 134
f 88 134 89
f 88 129 130
f 89 134 90
f 90 135 91
f 90 134 133
f 90 133 136
f 90 136 137
f 90 137 135
f 91 135 138
f 91 138 125
f 92 95 139
f 92 139 140
f 92 140 141
f 92 141 93
f 93 141 142
f 93 142 96
f 94 119 95
f 95 119 118
f 95 118 143
f 95 143 139
f 96 144 97
f 96 142 144
f 97 144 145
f 97 145 98
f 98 145 146
f 98 146 99
f 99 146 147
f 99 147 148
f 99 148 100
f 100 148 101
f 101 148 102
f 102 149 150
f 102 150 103
f 102 148 149
f 105 151 106
f 106 151 152
f 106 152 153
f 106 153 154
f 106 154 155
f 106 155 107
f 107 155 156
f 107 156 157
f 107 157 158
f 107 158 108
f 109 159 160
f 109 160 161
f 109 161 162
f 109 162 163
f 109 163 164
f 109 164 165
f 109 165 166
f 109 166 167
f 109 167 168
f 109 168 169
f 109 169 170
f 109 170 171
f 109 171 172
f 109 172 173
f 109 173 110
f 110 173 111
f 111 173 174
f 111 174 112
f 112 174 175
f 112 175 176
f 112 176 177
f 112 177 178
f 112 178 113
f 114 179 115
f 115 179 116
f 116 180 181
f 116 181 182
f 116 182 117
f 116 179 183
f 116 183 184
f 116 184 180
f 118 185 143
f 118 122 186
f 118 186 185
f 120 124 121
f 121 123 187
f 121 187 188
f 121 188 122
f 121 124 123
f 122 188 186
f 123 128 189
f 123 189 187
f 125 138 190
f 125 190 126
f 126 190 191
f 126 191 127
f 127 191 128
f 128 191 192
f 128 192 189
f 131 193 132
f 132 193 194
f 132 194 195
f 132 195 180
f 132 180 196
f 132 196 133
f 133 196 136
f 135 137 138
f 136 197 137
f 136 196 198
f 136 198 197
f 137 197 199
f 137 199 138
f 138 199 200
f 138 200 190
f 139 201 202
f 139 202 140
f 139 143 203
f 139 203 201
f 140 204 142
f 140 142 141
f 140 202 204
f 142 204 205
f 142 205 144
f 143 185 203
f 144 205 206
f 144 206 207
f 144 207 145
f 145 207 208
f 145 208 146
f 146 208 147
f 147 209 210
f 147 210 211
f 147 211 148
f 147 208 209
f 148 211 149
f 149 211 212
f 149 212 213
f 149 213 214
f 149 214 215
f 149 215 216
f 149 216 150
f 152 217 153
f 153 218 154
f 153 217 219
f 153 219 220
f 153 220 218
f 154 221 222
f 154 222 223
f 154 223 224
f 154 224 225
f 154 225 155
f 154 218 221
f 155 225 156
f 156 226 227
f 156 227 228
f 156 228 157
f 156 225 226
f 157 229 158
f 157 228 230
f 157 230 229
f 159 231 232
f 159 232 160
f 160 232 161
f 161 233 234
f 161 234 235
f 161 235 236
f 161 236 162
f 161 232 233
f 162 236 163
f 163 236 237
f 163 237 164
f 164 237 238
f 164 238 165
f 165 238 239
f 165 239 166
f 166 239 167
f 167 239 240
f 167 240 168
f 168 240 241
f 168 241 242
f 168 242 169
f 169 242 170
f 170 242 243
f 170 243 171
f 171 243 172
f 172 243 173
f 173 243 174
f 174 243 242
f 174 242 244
f 174 244 245
f 174 245 175
f 175 245 176
f 176 246 247
f 176 247 177
f 176 245 248
f 176 248 246
f 177 249 250
f 177 250 251
f 177 251 252
f 177 252 178
f 177 247 249
f 180 195 181
f 180 184 253
f 180 253 196
f 183 254 184
f 184 254 255
f 184 255 253
f 185 186 256
f 185 256 203
f 186 188 257
f 186 257 256
f 187 258 188
f 187 189 259
f 187 259 260
f 187 260 258
f 188 258 257
f 189 192 259
f 190 200 191
f 191 200 261
f 191 261 262
f 191 262 192
f 192 263 259
f 192 262 263
f 196 253 198
f 197 264 199
f 197 198 265
f 197 265 264
f 198 253 266
f 198 266 267
f 198 267 268
f 198 268 265
f 199 264 269
f 199 269 200
f 200 269 261
f 201 270 271
f 201 271 202
f 201 203 272
f 201 272 270
f 202 271 204
f 203 256 273
f 203 273 272
f 204 271 274
f 204 274 275
f 204 275 276
f 204 276 205
f 205 276 206
f 206 276 207
f 207 277 278
f 207 278 208
f 207 276 277
f 208 278 279
f 208 279 209
f 209 279 280
f 209 280 281
f 209 281 282
f 209 282 210
f 210 212 211
f 210 282 283
f 210 283 213
f 210 213 212
f 218 220 284
f 218 284 285
f 218 285 221
f 220 286 284
f 221 287 222
f 221 285 287
f 222 287 288
f 222 288 289
f 222 289 290
f 222 290 223
f 223 290 224
f 224 290 291
f 224 291 226
f 224 226 225
f 226 291 227
f 227 292 228
f 227 291 293
f 227 293 294
f 227 294 292
f 228 292 295
f 228 295 230
f 229 230 296
f 230 295 297
f 230 297 296
f 231 298 299
f 231 299 232
f 232 300 301
f 232 301 233
f 232 299 302
f 232 302 303
f 232 303 300
f 233 301 234
f 234 301 304
f 234 304 305
f 234 305 306
f 234 306 307
f 234 307 308
f 234 308 235
f 235 308 309
f 235 309 310
f 235 310 311
f 235 311 312
f 235 312 236
f 236 312 313
f 236 313 237
f 237 313 238
f 238 314 315
f 238 315 239
f 238 313 312
f 238 312 314
f 239 315 316
f 239 316 240
f 240 316 241
f 241 317 244
f 241 244 242
f 241 316 317
f 244 317 245
f 245 317 318
f 245 318 248
f 246 248 319
f 246 319 320
f 246 320 247
f 247 320 321
f 247 321 249
f 248 318 322
f 248 322 319
f 249 321 250
f 253 255 323
f 253 323 266
f 254 324 255
f 255 324 325
f 255 325 323
f 256 257 326
f 256 326 327
f 256 327 273
f 257 258 328
f 257 328 329
f 257 329 330
f 257 330 326
f 258 260 331
f 258 331 328
f 259 263 260
f 260 263 331
f 261 332 333
f 261 333 262
f 261 269 334
f 261 334 332
f 262 335 263
f 262 333 335
f 263 335 331
f 264 265 336
f 264 336 269
f 265 337 336
f 265 268 338
f 265 338 339
f 265 339 340
f 265 340 337
f 267 341 268
f 268 341 338
f 269 336 342
f 269 342 334
f 270 343 271
f 270 272 344
f 270 344 345
f 270 345 343
f 271 343 274
f 272 273 346
f 272 346 344
f 273 327 347
f 273 347 348
f 273 348 349
f 273 349 346
f 274 350 275
f 274 343 351
f 274 351 350
f 275 350 352
f 275 352 353
f 275 353 276
f 276 353 277
f 277 354 278
f 277 353 354
f 278 354 289
f 278 289 288
f 278 288 355
f 278 355 356
f 278 356 279
f 279 356 357
f 279 357 280
f 284 358 359
f 284 359 285
f 284 286 360
f 284 360 361
f 284 361 358
f 285 359 287
f 287 359 355
f 287 355 288
f 289 354 352
f 289 352 290
f 290 352 362
f 290 362 363
f 290 363 291
f 291 363 364
f 291 364 293
f 292 294 365
f 292 365 366
f 292 366 295
f 293 364 367
f 293 367 368
f 293 368 369
f 293 369 370
f 293 370 371
f 293 371 372
f 293 372 373
f 293 373 294
f 294 373 365
f 295 366 297
f 297 366 374
f 298 375 299
f 299 375 376
f 299 376 377
f 299 377 302
f 300 303 301
f 301 303 378
f 301 378 304
f 302 377 379
f 302 379 303
f 303 379 380
f 303 380 378
f 304 378 380
f 304 380 305
f 305 380 381
f 305 381 306
f 306 382 307
f 306 381 382
f 307 383 384
f 307 384 309
f 307 309 308
f 307 382 385
f 307 385 383
f 309 386 387
f 309 387 310
f 309 384 386
f 310 387 388
f 310 388 389
f 310 389 311
f 311 389 390
f 311 390 312
f 312 390 314
f 314 390 391
f 314 391 315
f 315 392 393
f 315 393 316
f 315 391 392
f 316 393 317
f 317 393 318
f 318 393 394
f 318 394 322
f 319 395 320
f 319 322 395
f 320 396 397
f 320 397 398
f 320 398 399
f 320 399 321
f 320 395 396
f 322 400 401
f 322 401 395
f 322 394 402
f 322 402 400
f 326 330 327
f 327 330 347
f 328 331 403
f 328 403 404
f 328 404 329
f 329 405 330
f 329 404 388
f 329 388 405
f 330 406 347
f 330 405 406
f 331 407 408
f 331 408 403
f 331 335 407
f 332 409 410
f 332 410 335
f 332 335 333
f 332 334 411
f 332 411 412
f 332 412 409
f 334 342 413
f 334 413 411
f 335 410 414
f 335 414 407
f 336 337 342
f 337 340 415
f 337 415 416
f 337 416 342
f 339 417 340
f 340 417 418
f 340 418 419
f 340 419 415
f 342 416 413
f 343 345 420
f 343 420 351
f 344 421 345
f 344 346 422
f 344 422 421
f 345 421 423
f 345 423 420
f 346 349 422
f 347 406 383
f 347 383 348
f 348 383 349
f 349 381 422
f 349 383 385
f 349 385 381
f 350 424 425
f 350 425 362
f 350 362 352
f 350 351 424
f 351 420 426
f 351 426 427
f 351 427 428
f 351 428 424
f 352 354 353
f 355 359 358
f 355 358 356
f 356 358 429
f 356 429 357
f 358 361 430
f 358 430 431
f 358 431 429
f 362 425 363
f 363 425 364
f 364 425 367
f 365 373 432
f 365 432 366
f 366 433 374
f 366 432 434
f 366 434 435
f 366 435 436
f 366 436 433
f 367 425 424
f 367 424 428
f 367 428 368
f 368 428 427
f 368 427 369
f 369 427 426
f 369 426 370
f 370 426 437
f 370 437 371
f 371 437 438
f 371 438 439
f 371 439 372
f 372 439 440
f 372 440 441
f 372 441 442
f 372 442 443
f 372 443 444
f 372 444 445
f 372 445 446
f 372 446 373
f 373 446 434
f 373 434 432
f 376 447 377
f 377 447 448
f 377 448 449
f 377 449 379
f 379 449 450
f 379 450 451
f 379 451 380
f 380 451 381
f 381 451 422
f 381 385 382
f 383 406 384
f 384 406 386
f 386 405 388
f 386 388 387
f 386 406 405
f 388 404 452
f 388 452 389
f 389 452 408
f 389 408 453
f 389 453 391
f 389 391 390
f 391 453 454
f 391 454 392
f 392 454 455
f 392 455 394
f 392 394 393
f 394 455 402
f 395 401 456
f 395 456 396
f 396 456 457
f 396 457 458
f 396 458 397
f 397 458 398
f 400 402 459
f 400 459 409
f 400 409 460
f 400 460 401
f 401 460 461
f 401 461 456
f 402 455 459
f 403 408 404
f 404 408 452
f 407 414 462
f 407 462 408
f 408 462 453
f 409 412 460
f 409 459 410
f 410 459 414
f 411 413 463
f 411 463 412
f 412 463 460
f 413 416 464
f 413 464 463
f 414 459 462
f 415 419 465
f 415 465 466
f 415 466 467
f 415 467 416
f 416 467 464
f 420 468 438
f 420 438 437
f 420 437 426
f 420 423 468
f 421 422 451
f 421 451 450
f 421 450 423
f 423 469 470
f 423 470 468
f 423 450 469
f 434 446 435
f 435 446 471
f 435 471 436
f 436 471 472
f 438 468 439
f 439 468 440
f 440 468 470
f 440 470 441
f 441 470 469
f 441 469 442
f 442 469 473
f 442 473 443
f 443 473 444
f 444 473 474
f 444 474 448
f 444 448 447
f 444 447 475
f 444 475 476
f 444 476 477
f 444 477 471
f 444 471 445
f 445 471 446
f 448 474 449
f 449 474 478
f 449 478 450
f 450 478 469
f 453 462 454
f 454 462 455
f 455 462 459
f 456 461 479
f 456 479 457
f 457 479 480
f 457 480 481
f 457 481 482
f 457 482 458
f 460 463 461
f 461 464 483
f 461 483 479
f 461 463 464
f 464 467 484
f 464 484 483
f 466 484 467
f 469 478 473
f 471 477 472
f 473 478 474
f 479 483 485
f 479 485 486
f 479 486 480
f 483 484 487
f 483 487 485

