# https://github.com/mikedh/trimesh
v 0.00267562 -0.03810630 -0.02316266
v 0.00262754 -0.04957190 -0.01310742
v 0.00098675 -0.04947182 -0.01323486
v -0.00070212 -0.04904856 -0.01361927
v -0.00169380 -0.04997223 -0.01281076
v -0.00169380 -0.04981376 -0.01294865
v 0.00167192 -0.03810630 -0.02315013
v 0.00363726 -0.03810630 -0.02299344
v 0.02067021 -0.04289771 -0.01658800
v 0.01866280 -0.04338561 -0.01657965
v 0.01788147 -0.04399652 -0.01625373
v 0.01735858 -0.04459701 -0.01588604
v 0.01691984 -0.04521418 -0.01546820
v 0.01566370 -0.04523086 -0.01563534
v 0.01486434 -0.04614827 -0.01500440
v 0.01258046 -0.04657779 -0.01493964
v 0.01102381 -0.04721164 -0.01458030
v 0.01019440 -0.04807485 -0.01393056
v 0.00794057 -0.04768703 -0.01445704
v 0.00706909 -0.04889010 -0.01348765
v 0.00566270 -0.04903188 -0.01345214
v 0.00410605 -0.04917783 -0.01339991
v 0.00227294 -0.05020158 -0.01255797
v 0.00429237 -0.05018907 -0.01249529
v 0.00021143 -0.05021826 -0.01258095
v -0.00151350 -0.04985546 -0.01291313
v -0.00169380 -0.05064778 -0.01220281
v -0.00096056 -0.05105228 -0.01183929
v -0.00169380 -0.04851270 -0.01407680
v 0.00116105 -0.03810630 -0.02300597
v -0.00169380 -0.04757652 -0.01486234
v -0.00169380 -0.04653609 -0.01570637
v -0.00169380 -0.04630674 -0.01588604
v -0.00169380 -0.04582509 -0.01626209
v 0.02232302 -0.03810630 -0.01913890
v 0.02720332 -0.03810839 -0.01828442
v 0.02647608 -0.03810839 -0.01843066
v 0.02587506 -0.03867135 -0.01825099
v 0.02540025 -0.03929686 -0.01799820
v 0.02491343 -0.03992237 -0.01773288
v 0.02379552 -0.04019134 -0.01779555
v 0.02443261 -0.04053745 -0.01745919
v 0.02330870 -0.04080434 -0.01751351
v 0.02281586 -0.04141942 -0.01721476
v 0.02167993 -0.04168630 -0.01725027
v 0.02117507 -0.04229513 -0.01692645
v 0.02180014 -0.04263916 -0.01656502
v 0.02175806 -0.04347318 -0.01595498
v 0.01996702 -0.04388601 -0.01598632
v 0.01850653 -0.04433847 -0.01589230
v 0.01878901 -0.04506823 -0.01527600
v 0.01797764 -0.04493895 -0.01551416
v 0.01839835 -0.04604402 -0.01455941
v 0.01788147 -0.04697186 -0.01388669
v 0.01626472 -0.04630048 -0.01468267
v 0.01524299 -0.04729921 -0.01399741
v 0.01349401 -0.04722415 -0.01428990
v 0.01220182 -0.04843973 -0.01340827
v 0.01107791 -0.04956147 -0.01254752
v 0.00911857 -0.04916115 -0.01308444
v 0.00638994 -0.04989508 -0.01263945
v 0.00818098 -0.05001184 -0.01241381
v 0.00563265 -0.05038923 -0.01224877
v 0.00140146 -0.05096053 -0.01189361
v 0.00329467 -0.05073535 -0.01203985
v 0.00512779 -0.05089590 -0.01181004
v -0.00169380 -0.05098972 -0.01188943
v 0.00009724 -0.05156519 -0.01134833
v -0.00153153 -0.05154226 -0.01137967
v 0.00039775 -0.03810630 -0.02275945
v -0.00169380 -0.04537264 -0.01660054
v 0.02232302 -0.03810630 -0.01520287
v 0.05970658 -0.03810839 -0.00182166
v 0.05967652 -0.03810839 -0.00185090
v 0.05903944 -0.03810839 -0.00246930
v 0.05832422 -0.03810839 -0.00312322
v 0.05765709 -0.03810839 -0.00371863
v 0.05693586 -0.03810839 -0.00430361
v 0.05662934 -0.03810839 -0.00455013
v 0.05624468 -0.03810839 -0.00484679
v 0.05527704 -0.03810839 -0.00556965
v 0.05445364 -0.03810839 -0.00615253
v 0.05337181 -0.03810839 -0.00691299
v 0.05194137 -0.03810839 -0.00789282
v 0.05105787 -0.03810839 -0.00849660
v 0.05057104 -0.03810839 -0.00882251
v 0.04914061 -0.03810839 -0.00977935
v 0.04811287 -0.03810839 -0.01044789
v 0.04786044 -0.03810839 -0.01060667
v 0.04664036 -0.03810839 -0.01133371
v 0.04593716 -0.03810839 -0.01173901
v 0.04581696 -0.03810839 -0.01180795
v 0.04508973 -0.03810839 -0.01219654
v 0.04462093 -0.03810839 -0.01243680
v 0.04429036 -0.03810839 -0.01260184
v 0.04349101 -0.03810839 -0.01298207
v 0.04269766 -0.03810839 -0.01333723
v 0.04231902 -0.03810839 -0.01349810
v 0.04186224 -0.03810839 -0.01368822
v 0.04103884 -0.03810839 -0.01402040
v 0.04079843 -0.03810839 -0.01411232
v 0.04025751 -0.03810839 -0.01431497
v 0.03987887 -0.03810839 -0.01445286
v 0.03894127 -0.03810839 -0.01479130
v 0.03790751 -0.03810839 -0.01515691
v 0.03696992 -0.03810839 -0.01547656
v 0.03618258 -0.03810839 -0.01574397
v 0.03481826 -0.03810839 -0.01619941
v 0.03457184 -0.03810839 -0.01627880
v 0.03247428 -0.03810839 -0.01693481
v 0.03243822 -0.03810839 -0.01694525
v 0.03076137 -0.03810839 -0.01742368
v 0.03010625 -0.03810839 -0.01760126
v 0.02969155 -0.03810839 -0.01770781
v 0.02900037 -0.03810839 -0.01788121
v 0.02810485 -0.03810839 -0.01809221
v 0.02699296 -0.03839195 -0.01817578
v 0.02632583 -0.03929060 -0.01781018
v 0.02555051 -0.04027057 -0.01739234
v 0.02393977 -0.04115254 -0.01716462
v 0.02555652 -0.04075846 -0.01707687
v 0.02397583 -0.04167796 -0.01679901
v 0.02232302 -0.04204493 -0.01688467
v 0.02318849 -0.04248070 -0.01638953
v 0.02288798 -0.04319587 -0.01593200
v 0.02232302 -0.04333348 -0.01594453
v 0.02232302 -0.04363372 -0.01571890
v 0.02140346 -0.04417792 -0.01549118
v 0.02061612 -0.04480968 -0.01515064
v 0.01977469 -0.04633593 -0.01408516
v 0.01898134 -0.04759946 -0.01318263
v 0.01703403 -0.04791638 -0.01322651
v 0.01652917 -0.04849394 -0.01281912
v 0.01446166 -0.04851062 -0.01308235
v 0.01348800 -0.04953646 -0.01230518
v 0.00996001 -0.05004729 -0.01222997
v 0.01139645 -0.05001184 -0.01211506
v 0.00716526 -0.05071241 -0.01185391
v 0.00929287 -0.05054144 -0.01183511
v 0.00283790 -0.05137546 -0.01146324
v 0.00218880 -0.05181748 -0.01105793
v 0.00073432 -0.05190505 -0.01100988
v 0.00456884 -0.05152975 -0.01123969
v 0.00656423 -0.05170072 -0.01094721
v -0.00169380 -0.05145260 -0.01145906
v -0.00020327 -0.05226993 -0.01066935
v -0.00169380 -0.05221155 -0.01072993
v -0.00169380 -0.05174659 -0.01117702
v -0.00169380 -0.03810630 -0.02190915
v -0.00169380 -0.03810630 -0.01623284
v 0.05474814 -0.03810839 -0.00182166
v 0.05831221 -0.03945741 -0.00182166
v 0.05819200 -0.03933230 -0.00206191
v 0.05776527 -0.03889028 -0.00289132
v 0.05682167 -0.03930937 -0.00330498
v 0.05632282 -0.03907793 -0.00393800
v 0.05595619 -0.03853999 -0.00470055
v 0.05489840 -0.03867969 -0.00537744
v 0.05337181 -0.03852331 -0.00658499
v 0.05014432 -0.03872765 -0.00861777
v 0.05182117 -0.03910295 -0.00718250
v 0.04890020 -0.03849203 -0.00963311
v 0.04846747 -0.03910295 -0.00941375
v 0.04728346 -0.03930937 -0.00999245
v 0.04679062 -0.03895700 -0.01058369
v 0.04635788 -0.03848787 -0.01120836
v 0.04582297 -0.03816260 -0.01176617
v 0.04495750 -0.03828145 -0.01214640
v 0.04391773 -0.03861922 -0.01243262
v 0.04333474 -0.03832106 -0.01291104
v 0.04246326 -0.03844199 -0.01322442
v 0.04147157 -0.03865258 -0.01350437
v 0.04094869 -0.03823140 -0.01397861
v 0.03955431 -0.03898827 -0.01403502
v 0.03838833 -0.03877351 -0.01459074
v 0.03664537 -0.03870888 -0.01522794
v 0.03481826 -0.03820847 -0.01614092
v 0.03243822 -0.03813966 -0.01692645
v 0.03289500 -0.03899453 -0.01625164
v 0.03044884 -0.03852122 -0.01726072
v 0.02982978 -0.03818345 -0.01763259
v 0.02872991 -0.03846284 -0.01774332
v 0.02762403 -0.03874224 -0.01783733
v 0.02714322 -0.03937400 -0.01758036
v 0.02666240 -0.03999951 -0.01730877
v 0.02728746 -0.04034146 -0.01694525
v 0.02603734 -0.04123385 -0.01664023
v 0.02451074 -0.04299154 -0.01573144
v 0.02534015 -0.04191358 -0.01632685
v 0.02330870 -0.04390895 -0.01530524
v 0.02247929 -0.04501193 -0.01463462
v 0.02178210 -0.04639431 -0.01366941
v 0.02091663 -0.04742431 -0.01298416
v 0.01815193 -0.04851062 -0.01254543
v 0.02027955 -0.04798727 -0.01262691
v 0.01969656 -0.04844598 -0.01234278
v 0.01764106 -0.04903605 -0.01217147
v 0.01588608 -0.04955939 -0.01196882
v 0.01490040 -0.04931336 -0.01232398
v 0.01319350 -0.05010775 -0.01181840
v 0.01436549 -0.04987840 -0.01188525
v 0.01059709 -0.05088756 -0.01138385
v 0.01212368 -0.05067697 -0.01141518
v 0.00878200 -0.05126495 -0.01119164
v 0.00760400 -0.05142967 -0.01113315
v 0.00402191 -0.05208228 -0.01072993
v 0.00276578 -0.05213024 -0.01072993
v 0.00150964 -0.05217611 -0.01072993
v 0.00123317 -0.05218236 -0.01072993
v 0.00555452 -0.05198845 -0.01072993
v 0.00584902 -0.05212398 -0.01057533
v 0.00738763 -0.05209896 -0.01048759
v -0.00073818 -0.05288710 -0.01004886
v 0.00078841 -0.05278702 -0.01012407
v -0.00169380 -0.05313522 -0.00978771
v -0.00169380 -0.05547463 -0.00182374
v 0.02232302 -0.05361686 -0.00182166
v 0.05805978 -0.03968676 -0.00182166
v 0.05681566 -0.04028516 -0.00234813
v 0.05584201 -0.04054579 -0.00291848
v 0.05532512 -0.04042695 -0.00346584
v 0.05524699 -0.03955332 -0.00435166
v 0.05405697 -0.03978892 -0.00503482
v 0.05280685 -0.03942404 -0.00624028
v 0.05009023 -0.04007666 -0.00753139
v 0.05131030 -0.03971386 -0.00701745
v 0.04787245 -0.03979727 -0.00921527
v 0.04673653 -0.04005789 -0.00971041
v 0.04618358 -0.03978059 -0.01028285
v 0.04562464 -0.03949911 -0.01084066
v 0.04505968 -0.03920929 -0.01139011
v 0.04432643 -0.03918427 -0.01180795
v 0.04344893 -0.03925099 -0.01220490
v 0.04287195 -0.03895491 -0.01269585
v 0.04182017 -0.03928435 -0.01294029
v 0.04075636 -0.03960961 -0.01316592
v 0.04016135 -0.03930103 -0.01360465
v 0.03869486 -0.04000160 -0.01369657
v 0.03820803 -0.03973680 -0.01404547
v 0.03698194 -0.04005581 -0.01426692
v 0.03582197 -0.04013296 -0.01460537
v 0.03481826 -0.03957000 -0.01528644
v 0.03428937 -0.03927601 -0.01563951
v 0.03168093 -0.03922180 -0.01646892
v 0.03359819 -0.04024972 -0.01522794
v 0.02955331 -0.03894866 -0.01723983
v 0.02825511 -0.03908835 -0.01748635
v 0.02776828 -0.03972012 -0.01721894
v 0.02839334 -0.04005789 -0.01684706
v 0.02812288 -0.04081685 -0.01640624
v 0.02716125 -0.04179264 -0.01597587
v 0.02650012 -0.04251198 -0.01561862
v 0.02608542 -0.04373172 -0.01481638
v 0.02598925 -0.04495355 -0.01391594
v 0.02545435 -0.04573127 -0.01342916
v 0.02318248 -0.04657779 -0.01324531
v 0.02232903 -0.04727002 -0.01284210
v 0.02180014 -0.04784758 -0.01245769
v 0.02177008 -0.04866283 -0.01175363
v 0.01960039 -0.04924247 -0.01163873
v 0.01898134 -0.04892554 -0.01203985
v 0.01845244 -0.04948850 -0.01161992
v 0.01729848 -0.04972619 -0.01159068
v 0.01613851 -0.04997223 -0.01154263
v 0.01381857 -0.05043093 -0.01143608
v 0.00941308 -0.05167778 -0.01072993
v 0.01164888 -0.05130665 -0.01085528
v 0.01327164 -0.05098347 -0.01097019
v 0.00929888 -0.05175285 -0.01066726
v 0.00500759 -0.05251597 -0.01023062
v 0.00340887 -0.05247010 -0.01036224
v 0.00200248 -0.05258269 -0.01030374
v 0.00800067 -0.05242422 -0.01009273
v 0.00681666 -0.05263481 -0.00997156
v 0.00047588 -0.05347508 -0.00940330
v -0.00100263 -0.05350427 -0.00938659
v -0.00162769 -0.05317067 -0.00975011
v -0.00169380 -0.05317484 -0.00974593
v 0.00141348 -0.05312271 -0.00975428
v -0.00169380 -0.05940700 -0.00182374
v 0.02232302 -0.05680071 -0.00182166
v 0.05738663 -0.04028933 -0.00182166
v 0.05602832 -0.04142776 -0.00182166
v 0.05704405 -0.04058124 -0.00182166
v 0.05512679 -0.04156537 -0.00245468
v 0.05444763 -0.04152367 -0.00307308
v 0.05597423 -0.04144444 -0.00185090
v 0.05401490 -0.04130683 -0.00364342
v 0.05456784 -0.04044988 -0.00404455
v 0.05357014 -0.04083144 -0.00444776
v 0.05304124 -0.04057707 -0.00506616
v 0.05224789 -0.04018925 -0.00596868
v 0.05108792 -0.04089608 -0.00614418
v 0.04984982 -0.04158205 -0.00636145
v 0.04944112 -0.04051035 -0.00757944
v 0.04758997 -0.04050201 -0.00878908
v 0.04688077 -0.04137772 -0.00845690
v 0.04590712 -0.04047490 -0.00985665
v 0.04514983 -0.04012879 -0.01059623
v 0.04430239 -0.04029559 -0.01093676
v 0.04355111 -0.04018091 -0.01143608
v 0.04298014 -0.03988067 -0.01196464
v 0.04240316 -0.03958459 -0.01246395
v 0.04107490 -0.04033312 -0.01251410
v 0.03997503 -0.04056456 -0.01281703
v 0.03932593 -0.04043737 -0.01316383
v 0.03782938 -0.04128181 -0.01314503
v 0.03753488 -0.04055622 -0.01374462
v 0.03615854 -0.04130266 -0.01371955
v 0.03481225 -0.04131100 -0.01415201
v 0.03481826 -0.04128598 -0.01416664
v 0.03101380 -0.03972429 -0.01633521
v 0.03311737 -0.04121092 -0.01473490
v 0.03021444 -0.04015798 -0.01627880
v 0.02900638 -0.04039358 -0.01645638
v 0.02937902 -0.04174051 -0.01543268
v 0.02908452 -0.04312706 -0.01451971
v 0.02901840 -0.04390895 -0.01397026
v 0.02778631 -0.04470752 -0.01367568
v 0.02774424 -0.04584803 -0.01280031
v 0.02685473 -0.04622959 -0.01270630
v 0.02508772 -0.04661741 -0.01279613
v 0.02346496 -0.04701982 -0.01281912
v 0.02294808 -0.04759320 -0.01244515
v 0.02232302 -0.04812280 -0.01211506
v 0.02232302 -0.04824582 -0.01200851
v 0.02302622 -0.04849394 -0.01163455
v 0.02249732 -0.04905690 -0.01122507
v 0.02232302 -0.04924247 -0.01108927
v 0.02119310 -0.04913196 -0.01143608
v 0.02020743 -0.04956147 -0.01122298
v 0.01905948 -0.04980751 -0.01120836
v 0.01791753 -0.05004312 -0.01118537
v 0.01674554 -0.05028915 -0.01113523
v 0.01611447 -0.05080624 -0.01072993
v 0.01541127 -0.05048306 -0.01115613
v 0.01443161 -0.05075411 -0.01103286
v 0.01161883 -0.05143592 -0.01072993
v 0.01202151 -0.05138797 -0.01072784
v 0.01362624 -0.05117738 -0.01072784
v 0.00918469 -0.05221155 -0.01020137
v 0.01035668 -0.05199263 -0.01030165
v 0.00562664 -0.05284749 -0.00983785
v 0.00543431 -0.05333330 -0.00933227
v 0.00443061 -0.05305182 -0.00969579
v 0.00289199 -0.05305182 -0.00977726
v 0.00860771 -0.05275158 -0.00967489
v 0.00742369 -0.05296425 -0.00956208
v -0.00017322 -0.05394630 -0.00889563
v 0.00203854 -0.05345840 -0.00937614
v 0.00144353 -0.05399217 -0.00880788
v -0.00169380 -0.05383371 -0.00903143
v -0.00169380 -0.05901710 -0.00238573
v -0.00138728 -0.05917139 -0.00216846
v -0.00151951 -0.05940700 -0.00182374
v 0.01624669 -0.05790786 -0.00182374
v 0.01718429 -0.05775357 -0.00182374
v 0.01801971 -0.05761179 -0.00182374
v 0.01963045 -0.05733031 -0.00182374
v 0.02244323 -0.05677778 -0.00182166
v 0.00033164 -0.05938824 -0.00182374
v 0.00056604 -0.05938198 -0.00182374
v 0.00202652 -0.05933611 -0.00182374
v 0.00223087 -0.05932777 -0.00182374
v 0.00354711 -0.05926522 -0.00182374
v 0.00378150 -0.05925271 -0.00182374
v 0.00594518 -0.05911718 -0.00182374
v 0.00655822 -0.05907548 -0.00182374
v 0.00756794 -0.05899834 -0.00182374
v 0.00837932 -0.05892953 -0.00182374
v 0.01051896 -0.05871686 -0.00182374
v 0.01092164 -0.05867098 -0.00182374
v 0.01284491 -0.05842495 -0.00182374
v 0.01321754 -0.05837074 -0.00182374
v 0.01432342 -0.05820811 -0.00182374
v 0.01557956 -0.05801211 -0.00182374
v 0.05599226 -0.04145695 -0.00182166
v 0.05442359 -0.04245568 -0.00206400
v 0.05364827 -0.04256202 -0.00260928
v 0.05298114 -0.04255576 -0.00316291
v 0.05262053 -0.04207829 -0.00394427
v 0.05259649 -0.04161750 -0.00441851
v 0.05190531 -0.04119007 -0.00531686
v 0.05089560 -0.04213667 -0.00513510
v 0.05006619 -0.04256619 -0.00528970
v 0.04901440 -0.04244109 -0.00611075
v 0.04805276 -0.04207621 -0.00707386
v 0.04855762 -0.04098782 -0.00773613
v 0.04593716 -0.04274550 -0.00778627
v 0.04555852 -0.04169256 -0.00898964
v 0.04490341 -0.04147363 -0.00957879
v 0.04443461 -0.04098990 -0.01027449
v 0.04337681 -0.04130266 -0.01060040
v 0.04307029 -0.04081059 -0.01117702
v 0.04250533 -0.04051660 -0.01170976
v 0.04192835 -0.04021427 -0.01221952
v 0.04039575 -0.04116922 -0.01219654
v 0.03933194 -0.04148614 -0.01241173
v 0.03845444 -0.04151742 -0.01274182
v 0.03718629 -0.04210748 -0.01279196
v 0.03681366 -0.04139232 -0.01343334
v 0.03549742 -0.04210123 -0.01338737
v 0.03481826 -0.04228262 -0.01347721
v 0.03376047 -0.04256827 -0.01361301
v 0.03226392 -0.04267878 -0.01397652
v 0.03042480 -0.04109416 -0.01558937
v 0.03055101 -0.04297277 -0.01424394
v 0.03124820 -0.04407784 -0.01325158
v 0.03044283 -0.04470335 -0.01299879
v 0.02889820 -0.04471377 -0.01339364
v 0.02848951 -0.04536013 -0.01299879
v 0.02909654 -0.04567706 -0.01258931
v 0.02858567 -0.04627546 -0.01223832
v 0.02634386 -0.04681132 -0.01234905
v 0.02405998 -0.04775792 -0.01206074
v 0.02482327 -0.04808736 -0.01159694
v 0.02363325 -0.04881295 -0.01120209
v 0.02213671 -0.04966156 -0.01072993
v 0.02195640 -0.04963237 -0.01079679
v 0.02309834 -0.04937799 -0.01078843
v 0.02043581 -0.04995555 -0.01080096
v 0.01856664 -0.05038923 -0.01072993
v 0.01847648 -0.05040591 -0.01072993
v 0.01736459 -0.05059982 -0.01072993
v 0.01620462 -0.05084794 -0.01067352
v 0.01512278 -0.05096053 -0.01072784
v 0.01407700 -0.05111274 -0.01072784
v 0.01488237 -0.05099389 -0.01072993
v 0.01271268 -0.05152975 -0.01049177
v 0.01214773 -0.05208228 -0.00998618
v 0.01154069 -0.05175285 -0.01040820
v 0.01387867 -0.05131082 -0.01055653
v 0.01096972 -0.05230955 -0.00988799
v 0.00978571 -0.05253473 -0.00978144
v 0.00468904 -0.05402762 -0.00858852
v 0.00384762 -0.05359393 -0.00914424
v 0.00712919 -0.05356265 -0.00891861
v 0.00592715 -0.05376907 -0.00878908
v 0.00803073 -0.05329368 -0.00913380
v 0.00940707 -0.05325198 -0.00902725
v -0.00097859 -0.05436748 -0.00842347
v 0.00120913 -0.05463853 -0.00806205
v 0.00265158 -0.05378784 -0.00898964
v 0.00205657 -0.05432161 -0.00840676
v -0.00169380 -0.05400468 -0.00883713
v -0.00169380 -0.05867098 -0.00287043
v -0.00041363 -0.05858967 -0.00298324
v 0.00041578 -0.05930692 -0.00194283
v 0.01667943 -0.05758468 -0.00218726
v 0.01851856 -0.05706759 -0.00247766
v 0.02026753 -0.05678820 -0.00242961
v 0.02177008 -0.05691747 -0.00182374
v 0.02205857 -0.05685909 -0.00182374
v 0.02232302 -0.05680279 -0.00182374
v 0.02322456 -0.05660889 -0.00182166
v 0.00084852 -0.05880651 -0.00263435
v 0.00295209 -0.05894829 -0.00232306
v 0.00387166 -0.05870018 -0.00260510
v 0.00625771 -0.05847082 -0.00270329
v 0.00852356 -0.05862303 -0.00223322
v 0.01003213 -0.05817683 -0.00263435
v 0.01131832 -0.05832487 -0.00223740
v 0.01211166 -0.05780153 -0.00281820
v 0.01394478 -0.05714891 -0.00336138
v 0.01464197 -0.05772021 -0.00244005
v 0.05471208 -0.04244526 -0.00182166
v 0.05403894 -0.04294983 -0.00182166
v 0.05316145 -0.04317919 -0.00231679
v 0.05186925 -0.04390061 -0.00256332
v 0.05164687 -0.04331472 -0.00339272
v 0.05161682 -0.04284558 -0.00391084
v 0.05161081 -0.04244943 -0.00432032
v 0.05024048 -0.04330846 -0.00443940
v 0.04958537 -0.04318336 -0.00501393
v 0.04810685 -0.04353990 -0.00564486
v 0.04703704 -0.04314583 -0.00671452
v 0.04501159 -0.04356283 -0.00756900
v 0.04450674 -0.04242649 -0.00894786
v 0.04314242 -0.04220131 -0.00993604
v 0.04258948 -0.04143402 -0.01091169
v 0.04202451 -0.04114211 -0.01144861
v 0.04145355 -0.04084395 -0.01196046
v 0.04097273 -0.04146946 -0.01169722
v 0.03991493 -0.04179056 -0.01192912
v 0.03884511 -0.04210331 -0.01214431
v 0.03777529 -0.04241398 -0.01233860
v 0.03669946 -0.04272465 -0.01251410
v 0.03609844 -0.04241398 -0.01295909
v 0.03501059 -0.04271840 -0.01310742
v 0.03481826 -0.04277052 -0.01313249
v 0.03391072 -0.04301447 -0.01324322
v 0.03298515 -0.04369002 -0.01303221
v 0.03211968 -0.04474296 -0.01248902
v 0.03132032 -0.04512035 -0.01242635
v 0.02977569 -0.04513078 -0.01284836
v 0.02969756 -0.04599607 -0.01216938
v 0.02918068 -0.04658405 -0.01181004
v 0.02866981 -0.04717620 -0.01143817
v 0.02785242 -0.04683634 -0.01195211
v 0.02634987 -0.04727628 -0.01195211
v 0.02455882 -0.04894431 -0.01085528
v 0.02687276 -0.04761822 -0.01151755
v 0.02589910 -0.04828335 -0.01114986
v 0.02232302 -0.04998891 -0.01035597
v 0.02141548 -0.05019533 -0.01034970
v 0.02059208 -0.04999516 -0.01072993
v 0.02310435 -0.04980751 -0.01036224
v 0.02482327 -0.04943012 -0.01031210
v 0.02023748 -0.05006605 -0.01072993
v 0.01911357 -0.05068739 -0.01032045
v 0.01796561 -0.05092509 -0.01029329
v 0.01736459 -0.05060191 -0.01072784
v 0.01680564 -0.05116487 -0.01024733
v 0.01563966 -0.05140465 -0.01018883
v 0.01447969 -0.05163608 -0.01013034
v 0.01331371 -0.05185918 -0.01006348
v 0.01156473 -0.05263481 -0.00945553
v 0.01274274 -0.05241172 -0.00954328
v 0.01038673 -0.05285166 -0.00935943
v 0.00620963 -0.05455721 -0.00783432
v 0.00484531 -0.05491584 -0.00751468
v 0.00360120 -0.05421527 -0.00844646
v 0.00862574 -0.05361478 -0.00869925
v 0.00803073 -0.05415689 -0.00812681
v 0.01099376 -0.05316441 -0.00892906
v 0.01041077 -0.05369818 -0.00837960
v 0.00922075 -0.05393796 -0.00824798
v -0.00036555 -0.05470317 -0.00801817
v -0.00149547 -0.05496797 -0.00771733
v 0.00265759 -0.05465104 -0.00798266
v 0.00207460 -0.05539748 -0.00709475
v 0.00057205 -0.05521400 -0.00738306
v -0.00169380 -0.05496171 -0.00772151
v -0.00169380 -0.05840619 -0.00323394
v -0.00106273 -0.05809343 -0.00366849
v 0.00096271 -0.05770144 -0.00414483
v 0.01723838 -0.05688411 -0.00303338
v 0.01939605 -0.05626694 -0.00337392
v 0.02143952 -0.05570815 -0.00360791
v 0.02200448 -0.05669020 -0.00208071
v 0.02232302 -0.05675484 -0.00189478
v 0.02338082 -0.05626069 -0.00228128
v 0.02451675 -0.05632115 -0.00182166
v 0.00186424 -0.05806007 -0.00361626
v 0.00286795 -0.05727818 -0.00461489
v 0.00432843 -0.05805381 -0.00345540
v 0.00650413 -0.05751379 -0.00397142
v 0.00524198 -0.05737201 -0.00428898
v 0.00842740 -0.05739494 -0.00390457
v 0.01068724 -0.05666101 -0.00456684
v 0.01204555 -0.05570398 -0.00561770
v 0.01354209 -0.05648379 -0.00433076
v 0.01595219 -0.05543710 -0.00525836
v 0.01693787 -0.05588955 -0.00445194
v 0.01575386 -0.05681322 -0.00344704
v 0.05350403 -0.04334182 -0.00182166
v 0.05278882 -0.04386308 -0.00182166
v 0.05244623 -0.04403405 -0.00191149
v 0.05116605 -0.04477007 -0.00210996
v 0.05066120 -0.04453237 -0.00280148
v 0.05115403 -0.04392771 -0.00310232
v 0.05064317 -0.04368377 -0.00375833
v 0.04962143 -0.04404239 -0.00411140
v 0.04909253 -0.04379636 -0.00473189
v 0.04743972 -0.04450944 -0.00510585
v 0.04597924 -0.04428843 -0.00625699
v 0.04448270 -0.04409243 -0.00736426
v 0.04315444 -0.04328970 -0.00892488
v 0.04381556 -0.04295609 -0.00886011
v 0.04217477 -0.04294566 -0.00979398
v 0.04175405 -0.04251823 -0.01040820
v 0.04154370 -0.04176345 -0.01117493
v 0.04048590 -0.04208872 -0.01141727
v 0.03919971 -0.04259746 -0.01159068
v 0.03835828 -0.04271423 -0.01186227
v 0.03728846 -0.04302907 -0.01205239
v 0.03620662 -0.04333557 -0.01222579
v 0.03561161 -0.04302907 -0.01267496
v 0.03481826 -0.04296652 -0.01298625
v 0.03419921 -0.04374423 -0.01260811
v 0.03291904 -0.04423213 -0.01263527
v 0.03192134 -0.04543102 -0.01198971
v 0.03352607 -0.04453655 -0.01220907
v 0.03302121 -0.04514329 -0.01187898
v 0.03081546 -0.04571250 -0.01208581
v 0.03029858 -0.04630674 -0.01173483
v 0.02978170 -0.04689054 -0.01136922
v 0.02926482 -0.04747019 -0.01098690
v 0.02814692 -0.04775167 -0.01104958
v 0.02536419 -0.04885465 -0.01073829
v 0.02702301 -0.04802272 -0.01110390
v 0.02649411 -0.04859402 -0.01070068
v 0.02200448 -0.05050182 -0.00989635
v 0.02085653 -0.05075411 -0.00988590
v 0.02026152 -0.05044762 -0.01033717
v 0.02379552 -0.05008899 -0.00989426
v 0.02232302 -0.05042885 -0.00989635
v 0.02595319 -0.04916115 -0.01027658
v 0.02541227 -0.04973662 -0.00983576
v 0.01875295 -0.05137546 -0.00966445
v 0.01970257 -0.05100640 -0.00986083
v 0.01740065 -0.05148805 -0.00979607
v 0.01624068 -0.05172365 -0.00974802
v 0.01507470 -0.05195926 -0.00968743
v 0.01390872 -0.05218862 -0.00962058
v 0.01238813 -0.05305808 -0.00886220
v 0.01333775 -0.05272864 -0.00909410
v 0.00839134 -0.05455721 -0.00759825
v 0.00745375 -0.05534536 -0.00671452
v 0.00500759 -0.05557888 -0.00666438
v 0.00356513 -0.05505554 -0.00743320
v 0.01157675 -0.05349385 -0.00846108
v 0.01083149 -0.05408600 -0.00785940
v -0.00022130 -0.05569147 -0.00681689
v -0.00169380 -0.05569564 -0.00681063
v -0.00169380 -0.05516187 -0.00747498
v 0.00281987 -0.05595002 -0.00635309
v 0.00130529 -0.05634409 -0.00592690
v -0.00169380 -0.05793080 -0.00388577
v -0.00165774 -0.05697168 -0.00516853
v -0.00006504 -0.05713640 -0.00493036
v -0.00169380 -0.05697168 -0.00516853
v 0.01856063 -0.05584368 -0.00414901
v 0.01950423 -0.05511392 -0.00490320
v 0.02036369 -0.05512017 -0.00467757
v 0.02232302 -0.05493878 -0.00439344
v 0.02305026 -0.05566645 -0.00320887
v 0.02232302 -0.05637953 -0.00242334
v 0.02464898 -0.05602091 -0.00221651
v 0.02511176 -0.05552050 -0.00276597
v 0.02500959 -0.05620856 -0.00182166
v 0.00352907 -0.05657970 -0.00548817
v 0.00648009 -0.05651298 -0.00530641
v 0.00890221 -0.05625652 -0.00535238
v 0.00923878 -0.05549131 -0.00630295
v 0.01176908 -0.05441543 -0.00731412
v 0.01327164 -0.05470317 -0.00670408
v 0.01450974 -0.05543293 -0.00553831
v 0.01116806 -0.05515562 -0.00645546
v 0.01571779 -0.05431535 -0.00676048
v 0.01769516 -0.05448007 -0.00614209
v 0.05250633 -0.04406533 -0.00182166
v 0.05137040 -0.04485973 -0.00182166
v 0.05072731 -0.04529967 -0.00182166
v 0.05016235 -0.04513703 -0.00248810
v 0.04965148 -0.04489725 -0.00316082
v 0.05014432 -0.04429051 -0.00346584
v 0.04878601 -0.04500776 -0.00367058
v 0.04825110 -0.04486598 -0.00419497
v 0.04707911 -0.04536848 -0.00444149
v 0.04620162 -0.04549149 -0.00488022
v 0.04507169 -0.04573544 -0.00532939
v 0.04380354 -0.04501819 -0.00683570
v 0.04274574 -0.04414456 -0.00832737
v 0.04162784 -0.04374632 -0.00934063
v 0.04091262 -0.04367334 -0.00979189
v 0.03991493 -0.04315625 -0.01077381
v 0.04105687 -0.04237645 -0.01089080
v 0.03844242 -0.04362956 -0.01105376
v 0.03786544 -0.04333140 -0.01156352
v 0.03678962 -0.04363998 -0.01175154
v 0.03571379 -0.04394439 -0.01192286
v 0.03511878 -0.04363790 -0.01238039
v 0.03481225 -0.04367334 -0.01245978
v 0.03481826 -0.04401112 -0.01219236
v 0.03141047 -0.04602526 -0.01164291
v 0.03251635 -0.04573752 -0.01153427
v 0.03461993 -0.04424256 -0.01207537
v 0.03412108 -0.04484930 -0.01175154
v 0.03361021 -0.04544770 -0.01140892
v 0.03089359 -0.04660698 -0.01128357
v 0.03037070 -0.04719496 -0.01090542
v 0.02873592 -0.04805399 -0.01058160
v 0.02984180 -0.04777669 -0.01050848
v 0.02761802 -0.04832296 -0.01064637
v 0.02708311 -0.04889635 -0.01022853
v 0.02144553 -0.05106478 -0.00941584
v 0.02285192 -0.05108980 -0.00903769
v 0.02029758 -0.05131707 -0.00940121
v 0.02504565 -0.05045387 -0.00915678
v 0.02372340 -0.05056021 -0.00939494
v 0.02653618 -0.04947182 -0.00979189
v 0.02599527 -0.05003061 -0.00934689
v 0.01799567 -0.05180080 -0.00934480
v 0.01973863 -0.05185918 -0.00891234
v 0.01682968 -0.05204058 -0.00929257
v 0.01583199 -0.05229912 -0.00918185
v 0.01478621 -0.05259937 -0.00901262
v 0.01393276 -0.05303514 -0.00864911
v 0.01333775 -0.05358767 -0.00808920
v 0.01000208 -0.05469691 -0.00721384
v 0.01241217 -0.05398174 -0.00775285
v -0.00075621 -0.05613767 -0.00625281
v -0.00169380 -0.05619605 -0.00617133
v 0.02030960 -0.05385664 -0.00633847
v 0.02130128 -0.05411519 -0.00575559
v 0.01931791 -0.05411519 -0.00624863
v 0.02265959 -0.05464896 -0.00468801
v 0.02446867 -0.05460934 -0.00420124
v 0.02644002 -0.05586244 -0.00182166
v 0.02562263 -0.05459891 -0.00384816
v 0.02627174 -0.05522234 -0.00278477
v 0.01392675 -0.05389834 -0.00761078
v 0.01450974 -0.05420484 -0.00712609
v 0.01700398 -0.05343338 -0.00762123
v 0.01510475 -0.05366274 -0.00769853
v 0.01800168 -0.05351053 -0.00731203
v 0.05021043 -0.04564578 -0.00182166
v 0.04965749 -0.04573752 -0.00216219
v 0.04914662 -0.04549983 -0.00284327
v 0.04813090 -0.04586263 -0.00317127
v 0.04760200 -0.04562285 -0.00380847
v 0.04640596 -0.04611700 -0.00406962
v 0.04533615 -0.04649439 -0.00434539
v 0.04398384 -0.04675502 -0.00489484
v 0.04291403 -0.04635886 -0.00595615
v 0.04209063 -0.04552485 -0.00730158
v 0.04242119 -0.04474296 -0.00791371
v 0.04085853 -0.04492228 -0.00860523
v 0.04013130 -0.04450110 -0.00940957
v 0.03959038 -0.04370045 -0.01044371
v 0.03775726 -0.04442604 -0.01064637
v 0.03737261 -0.04394023 -0.01125641
v 0.03629678 -0.04424256 -0.01144234
v 0.03521494 -0.04454905 -0.01160530
v 0.03481225 -0.04434264 -0.01192495
v 0.03481826 -0.04419043 -0.01204821
v 0.03199947 -0.04632550 -0.01117702
v 0.03281085 -0.04623585 -0.01097646
v 0.03481225 -0.04465956 -0.01165962
v 0.03481225 -0.04502444 -0.01133997
v 0.03470407 -0.04515371 -0.01126685
v 0.03397082 -0.04598356 -0.01078007
v 0.03147658 -0.04691348 -0.01080305
v 0.03095369 -0.04749312 -0.01041864
v 0.02931291 -0.04835841 -0.01009691
v 0.02820102 -0.04863363 -0.01016585
v 0.03042480 -0.04807693 -0.01000708
v 0.02766009 -0.04920285 -0.00973548
v 0.02202852 -0.05137128 -0.00892697
v 0.02118108 -0.05170697 -0.00875357
v 0.02451675 -0.05086671 -0.00883713
v 0.02392174 -0.05163608 -0.00811010
v 0.02260550 -0.05167778 -0.00842347
v 0.02232302 -0.05152975 -0.00866791
v 0.02669846 -0.05041842 -0.00870343
v 0.02601330 -0.05088964 -0.00837124
v 0.02725140 -0.04988466 -0.00912753
v 0.01857866 -0.05210522 -0.00887892
v 0.01741869 -0.05235125 -0.00883295
v 0.01979272 -0.05231789 -0.00836289
v 0.01684170 -0.05289753 -0.00830439
v 0.01569375 -0.05312271 -0.00825007
v 0.01452176 -0.05334998 -0.00817904
v 0.02062814 -0.05308101 -0.00723682
v 0.01906548 -0.05322279 -0.00743529
v 0.02214872 -0.05318109 -0.00671661
v 0.02232302 -0.05321028 -0.00663304
v 0.02359719 -0.05341045 -0.00602091
v 0.02547839 -0.05365023 -0.00514137
v 0.02729347 -0.05536204 -0.00222905
v 0.02740166 -0.05561433 -0.00182166
v 0.02716125 -0.05365023 -0.00458356
v 0.02682467 -0.05465521 -0.00336765
v 0.01800769 -0.05265775 -0.00835453
v 0.04915263 -0.04633802 -0.00182166
v 0.04864777 -0.04610240 -0.00250900
v 0.04736760 -0.04676753 -0.00266151
v 0.04681466 -0.04659864 -0.00324857
v 0.04545034 -0.04730755 -0.00335721
v 0.04445865 -0.04797894 -0.00322976
v 0.04291403 -0.04790805 -0.00425138
v 0.04172400 -0.04698229 -0.00596451
v 0.04086454 -0.04574587 -0.00776120
v 0.03983079 -0.04603360 -0.00802026
v 0.03977669 -0.04513286 -0.00896875
v 0.03883910 -0.04468041 -0.00989008
v 0.03956634 -0.04421337 -0.00996947
v 0.03692785 -0.04543519 -0.01006348
v 0.03636289 -0.04514746 -0.01059205
v 0.03686775 -0.04454488 -0.01093049
v 0.03579192 -0.04485555 -0.01110599
v 0.03205958 -0.04721164 -0.01030792
v 0.03315343 -0.04693016 -0.01017421
v 0.03481826 -0.04521210 -0.01116866
v 0.03424128 -0.04664034 -0.01003423
v 0.03528105 -0.04545604 -0.01075918
v 0.03481225 -0.04598981 -0.01043954
v 0.03127224 -0.04795183 -0.00983994
v 0.02877800 -0.04893597 -0.00966654
v 0.02988388 -0.04865865 -0.00958715
v 0.02823708 -0.04950309 -0.00922572
v 0.02111497 -0.05260979 -0.00769435
v 0.02203453 -0.05223032 -0.00791580
v 0.02602532 -0.05127537 -0.00791789
v 0.02308632 -0.05221155 -0.00765674
v 0.02548440 -0.05211147 -0.00707386
v 0.02825511 -0.05037255 -0.00824798
v 0.02770217 -0.05093551 -0.00777792
v 0.02232302 -0.05299969 -0.00689419
v 0.02449872 -0.05267651 -0.00667692
v 0.02680063 -0.05274741 -0.00585796
v 0.02798465 -0.05546212 -0.00182166
v 0.02829718 -0.05422152 -0.00342615
v 0.02913861 -0.05486371 -0.00222487
v 0.02874794 -0.05525570 -0.00182166
v 0.02853759 -0.05269320 -0.00532104
v 0.02937902 -0.05304557 -0.00455640
v 0.04765008 -0.04728253 -0.00182166
v 0.04813691 -0.04670498 -0.00216219
v 0.04633985 -0.04800396 -0.00192611
v 0.04593116 -0.04759529 -0.00270538
v 0.04507169 -0.04861487 -0.00210161
v 0.04386965 -0.04950727 -0.00182166
v 0.04352106 -0.04904856 -0.00256958
v 0.04248129 -0.05024536 -0.00182166
v 0.04224689 -0.05036838 -0.00182166
v 0.04109894 -0.05096679 -0.00182166
v 0.04166991 -0.04900894 -0.00372072
v 0.04094869 -0.04865032 -0.00454386
v 0.04014933 -0.04748687 -0.00627579
v 0.03884511 -0.04665077 -0.00787402
v 0.03738463 -0.04651107 -0.00875357
v 0.03815393 -0.04545396 -0.00946389
v 0.03641698 -0.04602943 -0.00970414
v 0.03564166 -0.04594811 -0.01013034
v 0.03240817 -0.04772456 -0.00965191
v 0.03327965 -0.04754108 -0.00949940
v 0.03481225 -0.04693016 -0.00950358
v 0.03168093 -0.04876916 -0.00881206
v 0.03045485 -0.04895473 -0.00906276
v 0.02908452 -0.04960735 -0.00882460
v 0.02691483 -0.05173616 -0.00707595
v 0.02952927 -0.04980334 -0.00845063
v 0.02882007 -0.05066446 -0.00771315
v 0.02827915 -0.05170072 -0.00665185
v 0.02996201 -0.05414021 -0.00289967
v 0.03146456 -0.05413395 -0.00228128
v 0.03075536 -0.05466980 -0.00182166
v 0.02964347 -0.05499924 -0.00182166
v 0.02938503 -0.05178204 -0.00615044
v 0.03045485 -0.05189463 -0.00560099
v 0.03106789 -0.05309352 -0.00383772
v 0.04615955 -0.04819786 -0.00182166
v 0.04506568 -0.04884631 -0.00182166
v 0.04477719 -0.04901311 -0.00182166
v 0.04014933 -0.05144635 -0.00182166
v 0.03955431 -0.05173199 -0.00182166
v 0.03993296 -0.04989508 -0.00368730
v 0.03914562 -0.04810404 -0.00612328
v 0.03703603 -0.04719496 -0.00819993
v 0.03590010 -0.04662992 -0.00933018
v 0.03266060 -0.04838343 -0.00884131
v 0.03385663 -0.04794140 -0.00883295
v 0.03521494 -0.04739512 -0.00882669
v 0.03481826 -0.04755776 -0.00882669
v 0.03117607 -0.04933838 -0.00836498
v 0.03335177 -0.04874623 -0.00816024
v 0.03265459 -0.04944888 -0.00764630
v 0.03000408 -0.05028915 -0.00771942
v 0.02965549 -0.05105436 -0.00693807
v 0.03204755 -0.05355223 -0.00282237
v 0.03407901 -0.05343547 -0.00207445
v 0.03374845 -0.05372320 -0.00182166
v 0.03154871 -0.05443211 -0.00182166
v 0.03124820 -0.05099389 -0.00639697
v 0.03196942 -0.05223449 -0.00456893
v 0.03335177 -0.05238670 -0.00379176
v 0.03938603 -0.05179872 -0.00182166
v 0.03950022 -0.05169655 -0.00189060
v 0.03770918 -0.04865865 -0.00623192
v 0.03625471 -0.04788094 -0.00782179
v 0.03431341 -0.04838135 -0.00815188
v 0.03481826 -0.04783507 -0.00852376
v 0.03181917 -0.05048514 -0.00677302
v 0.03481225 -0.04867951 -0.00758989
v 0.03481826 -0.04968449 -0.00642204
v 0.03423527 -0.05037881 -0.00587049
v 0.03053899 -0.05054978 -0.00720339
v 0.03463195 -0.05245133 -0.00315038
v 0.03380254 -0.05312897 -0.00261555
v 0.03481826 -0.05310603 -0.00218726
v 0.03760100 -0.05244299 -0.00182166
v 0.03261853 -0.05137546 -0.00536700
v 0.03445164 -0.05187586 -0.00395471
v 0.03859268 -0.05210313 -0.00182166
v 0.03823207 -0.05196969 -0.00215175
v 0.03663335 -0.05044344 -0.00470264
v 0.03537120 -0.04900894 -0.00695687
v 0.03787746 -0.05019533 -0.00439344
v 0.03481225 -0.05039549 -0.00559054
v 0.03481225 -0.05069990 -0.00522702
v 0.03719230 -0.05228870 -0.00221442
v 0.03481826 -0.05247010 -0.00304174
v 0.03481826 -0.05183207 -0.00384607
v 0.03647708 -0.05162148 -0.00336556
f 1 2 3
f 1 3 4
f 1 4 5
f 1 5 6
f 1 6 7
f 1 7 30
f 1 30 70
f 1 70 149
f 1 149 150
f 1 150 72
f 1 72 35
f 1 35 8
f 1 8 9
f 1 9 10
f 1 10 11
f 1 11 12
f 1 12 13
f 1 13 14
f 1 14 15
f 1 15 16
f 1 16 17
f 1 17 18
f 1 18 19
f 1 19 20
f 1 20 21
f 1 21 22
f 1 22 2
f 2 23 3
f 2 22 24
f 2 24 23
f 3 23 25
f 3 25 26
f 3 26 4
f 4 26 5
f 5 27 67
f 5 67 145
f 5 145 148
f 5 148 147
f 5 147 215
f 5 215 278
f 5 278 352
f 5 352 445
f 5 445 533
f 5 533 616
f 5 616 615
f 5 615 694
f 5 694 622
f 5 622 619
f 5 619 534
f 5 534 446
f 5 446 353
f 5 353 280
f 5 280 216
f 5 216 150
f 5 150 149
f 5 149 71
f 5 71 34
f 5 34 33
f 5 33 32
f 5 32 31
f 5 31 29
f 5 29 6
f 5 26 25
f 5 25 28
f 5 28 27
f 6 29 7
f 7 29 31
f 7 31 32
f 7 32 33
f 7 33 34
f 7 34 30
f 8 35 36
f 8 36 37
f 8 37 38
f 8 38 39
f 8 39 40
f 8 40 41
f 8 41 42
f 8 42 43
f 8 43 44
f 8 44 45
f 8 45 46
f 8 46 9
f 9 46 47
f 9 47 48
f 9 48 49
f 9 49 10
f 10 49 11
f 11 49 50
f 11 50 12
f 12 50 51
f 12 51 52
f 12 52 13
f 13 52 53
f 13 53 54
f 13 54 55
f 13 55 14
f 14 55 15
f 15 55 56
f 15 56 57
f 15 57 16
f 16 57 17
f 17 57 58
f 17 58 18
f 18 58 59
f 18 59 60
f 18 60 19
f 19 60 20
f 20 61 21
f 20 60 62
f 20 62 61
f 21 63 24
f 21 24 22
f 21 61 63
f 23 64 25
f 23 24 65
f 23 65 64
f 24 63 66
f 24 66 65
f 25 64 28
f 27 28 67
f 28 64 68
f 28 68 69
f 28 69 67
f 30 34 70
f 34 71 70
f 35 72 73
f 35 73 74
f 35 74 75
f 35 75 76
f 35 76 77
f 35 77 78
f 35 78 79
f 35 79 80
f 35 80 81
f 35 81 82
f 35 82 83
f 35 83 84
f 35 84 85
f 35 85 86
f 35 86 87
f 35 87 88
f 35 88 89
f 35 89 90
f 35 90 91
f 35 91 92
f 35 92 93
f 35 93 94
f 35 94 95
f 35 95 96
f 35 96 97
f 35 97 98
f 35 98 99
f 35 99 100
f 35 100 101
f 35 101 102
f 35 102 103
f 35 103 104
f 35 104 105
f 35 105 106
f 35 106 107
f 35 107 108
f 35 108 109
f 35 109 110
f 35 110 111
f 35 111 112
f 35 112 113
f 35 113 114
f 35 114 115
f 35 115 116
f 35 116 36
f 36 116 117
f 36 117 37
f 37 117 38
f 38 117 118
f 38 118 39
f 39 118 40
f 40 42 41
f 40 118 119
f 40 119 42
f 42 120 43
f 42 119 121
f 42 121 120
f 43 120 44
f 44 120 122
f 44 122 123
f 44 123 45
f 45 123 46
f 46 123 47
f 47 123 124
f 47 124 125
f 47 125 126
f 47 126 48
f 48 126 127
f 48 127 128
f 48 128 49
f 49 128 129
f 49 129 51
f 49 51 50
f 51 53 52
f 51 129 130
f 51 130 53
f 53 130 54
f 54 130 131
f 54 131 132
f 54 132 55
f 55 132 133
f 55 133 56
f 56 134 57
f 56 133 134
f 57 134 58
f 58 134 135
f 58 135 59
f 59 136 60
f 59 135 137
f 59 137 136
f 60 136 62
f 61 62 63
f 62 138 63
f 62 136 139
f 62 139 138
f 63 138 66
f 64 65 140
f 64 140 141
f 64 141 142
f 64 142 68
f 65 66 140
f 66 143 140
f 66 138 144
f 66 144 143
f 67 69 145
f 68 142 146
f 68 146 69
f 69 146 147
f 69 147 148
f 69 148 145
f 70 71 149
f 72 150 151
f 72 151 73
f 73 152 74
f 73 151 217
f 73 217 281
f 73 281 360
f 73 360 455
f 73 455 543
f 73 543 631
f 73 631 700
f 73 700 762
f 73 762 803
f 73 803 806
f 73 806 840
f 73 840 839
f 73 839 865
f 73 865 864
f 73 864 883
f 73 883 886
f 73 886 869
f 73 869 848
f 73 848 847
f 73 847 818
f 73 818 817
f 73 817 816
f 73 816 814
f 73 814 846
f 73 846 845
f 73 845 844
f 73 844 809
f 73 809 766
f 73 766 708
f 73 708 644
f 73 644 643
f 73 643 642
f 73 642 557
f 73 557 556
f 73 556 467
f 73 467 466
f 73 466 377
f 73 377 283
f 73 283 284
f 73 284 282
f 73 282 218
f 73 218 152
f 74 152 75
f 75 152 153
f 75 153 154
f 75 154 76
f 76 154 77
f 77 154 155
f 77 155 156
f 77 156 78
f 78 156 79
f 79 156 157
f 79 157 80
f 80 157 158
f 80 158 81
f 81 158 159
f 81 159 82
f 82 159 83
f 83 159 84
f 84 159 85
f 85 160 86
f 85 159 161
f 85 161 160
f 86 160 87
f 87 160 162
f 87 162 88
f 88 162 163
f 88 163 164
f 88 164 89
f 89 164 165
f 89 165 166
f 89 166 90
f 90 166 167
f 90 167 91
f 91 167 92
f 92 167 168
f 92 168 93
f 93 168 94
f 94 168 169
f 94 169 95
f 95 169 96
f 96 169 170
f 96 170 171
f 96 171 97
f 97 171 98
f 98 171 172
f 98 172 99
f 99 172 100
f 100 173 101
f 100 172 173
f 101 173 174
f 101 174 102
f 102 174 175
f 102 175 103
f 103 175 104
f 104 175 105
f 105 176 106
f 105 175 176
f 106 176 107
f 107 176 177
f 107 177 108
f 108 177 109
f 109 177 110
f 110 178 111
f 110 177 179
f 110 179 178
f 111 178 112
f 112 180 181
f 112 181 113
f 112 178 180
f 113 181 114
f 114 181 115
f 115 181 182
f 115 182 116
f 116 183 117
f 116 182 183
f 117 183 118
f 118 183 184
f 118 184 119
f 119 184 185
f 119 185 186
f 119 186 121
f 120 121 122
f 121 186 187
f 121 187 122
f 122 188 124
f 122 124 123
f 122 187 189
f 122 189 188
f 124 188 125
f 125 188 190
f 125 190 127
f 125 127 126
f 127 190 191
f 127 191 128
f 128 191 129
f 129 191 192
f 129 192 130
f 130 192 193
f 130 193 131
f 131 194 132
f 131 193 195
f 131 195 196
f 131 196 194
f 132 194 133
f 133 194 197
f 133 197 198
f 133 198 199
f 133 199 134
f 134 199 135
f 135 200 137
f 135 199 201
f 135 201 200
f 136 137 202
f 136 202 139
f 137 200 203
f 137 203 202
f 138 139 204
f 138 204 205
f 138 205 144
f 139 202 204
f 140 143 206
f 140 206 141
f 141 206 207
f 141 207 208
f 141 208 142
f 142 208 209
f 142 209 146
f 143 144 210
f 143 210 206
f 144 211 210
f 144 205 212
f 144 212 211
f 146 213 147
f 146 209 214
f 146 214 213
f 147 213 215
f 150 216 151
f 151 216 217
f 152 218 153
f 153 218 219
f 153 219 154
f 154 219 155
f 155 219 220
f 155 220 221
f 155 221 156
f 156 221 222
f 156 222 157
f 157 222 158
f 158 222 223
f 158 223 224
f 158 224 159
f 159 224 161
f 160 225 163
f 160 163 162
f 160 161 226
f 160 226 225
f 161 224 226
f 163 227 164
f 163 225 227
f 164 228 229
f 164 229 165
f 164 227 228
f 165 229 230
f 165 230 166
f 166 230 231
f 166 231 167
f 167 231 232
f 167 232 168
f 168 232 169
f 169 233 234
f 169 234 170
f 169 232 233
f 170 234 171
f 171 234 235
f 171 235 172
f 172 235 236
f 172 236 237
f 172 237 173
f 173 237 174
f 174 238 239
f 174 239 175
f 174 237 238
f 175 239 240
f 175 240 176
f 176 240 241
f 176 241 177
f 177 241 242
f 177 242 243
f 177 243 179
f 178 244 180
f 178 179 244
f 179 243 245
f 179 245 244
f 180 246 181
f 180 244 246
f 181 246 247
f 181 247 182
f 182 247 184
f 182 184 183
f 184 247 248
f 184 248 185
f 185 248 186
f 186 248 249
f 186 249 250
f 186 250 251
f 186 251 187
f 187 251 189
f 188 189 252
f 188 252 253
f 188 253 254
f 188 254 190
f 189 251 252
f 190 254 191
f 191 254 255
f 191 255 256
f 191 256 192
f 192 256 257
f 192 257 193
f 193 257 258
f 193 258 195
f 194 196 197
f 195 258 196
f 196 258 259
f 196 259 260
f 196 260 261
f 196 261 197
f 197 261 262
f 197 262 263
f 197 263 198
f 198 263 264
f 198 264 201
f 198 201 199
f 200 201 265
f 200 265 203
f 201 264 265
f 202 266 204
f 202 203 267
f 202 267 266
f 203 265 268
f 203 268 267
f 204 266 269
f 204 269 205
f 205 269 212
f 206 210 211
f 206 211 270
f 206 270 271
f 206 271 272
f 206 272 207
f 207 272 208
f 208 272 214
f 208 214 209
f 211 212 270
f 212 269 273
f 212 273 274
f 212 274 270
f 213 214 275
f 213 275 276
f 213 276 277
f 213 277 278
f 213 278 215
f 214 272 279
f 214 279 275
f 216 280 281
f 216 281 217
f 218 282 219
f 219 283 220
f 219 282 284
f 219 284 283
f 220 285 286
f 220 286 221
f 220 283 287
f 220 287 285
f 221 286 288
f 221 288 289
f 221 289 222
f 222 289 223
f 223 289 290
f 223 290 291
f 223 291 292
f 223 292 224
f 224 292 226
f 225 226 293
f 225 293 294
f 225 294 295
f 225 295 227
f 226 292 293
f 227 296 228
f 227 295 296
f 228 296 297
f 228 297 298
f 228 298 229
f 229 298 299
f 229 299 230
f 230 299 300
f 230 300 231
f 231 300 301
f 231 301 232
f 232 301 302
f 232 302 233
f 233 302 303
f 233 303 234
f 234 303 235
f 235 304 236
f 235 303 304
f 236 304 305
f 236 305 306
f 236 306 237
f 237 306 238
f 238 306 307
f 238 307 308
f 238 308 239
f 239 308 240
f 240 308 309
f 240 309 241
f 241 309 310
f 241 310 311
f 241 311 245
f 241 245 242
f 242 245 243
f 244 245 312
f 244 312 246
f 245 313 312
f 245 311 310
f 245 310 313
f 246 312 314
f 246 314 249
f 246 249 248
f 246 248 247
f 249 314 315
f 249 315 250
f 250 315 316
f 250 316 251
f 251 316 317
f 251 317 318
f 251 318 252
f 252 318 253
f 253 318 319
f 253 319 254
f 254 319 320
f 254 320 255
f 255 320 321
f 255 321 322
f 255 322 256
f 256 322 323
f 256 323 257
f 257 323 324
f 257 324 258
f 258 325 326
f 258 326 259
f 258 324 325
f 259 326 327
f 259 327 328
f 259 328 329
f 259 329 330
f 259 330 260
f 260 330 331
f 260 331 332
f 260 332 262
f 260 262 261
f 262 333 263
f 262 332 333
f 263 333 264
f 264 334 335
f 264 335 336
f 264 336 265
f 264 333 334
f 265 336 337
f 265 337 268
f 266 267 338
f 266 338 269
f 267 268 339
f 267 339 338
f 268 337 340
f 268 340 339
f 269 341 273
f 269 338 342
f 269 342 341
f 270 343 344
f 270 344 345
f 270 345 346
f 270 346 271
f 270 274 343
f 271 346 272
f 272 346 279
f 273 347 348
f 273 348 274
f 273 341 347
f 274 348 344
f 274 344 343
f 275 349 276
f 275 279 350
f 275 350 351
f 275 351 349
f 276 349 352
f 276 352 278
f 276 278 277
f 279 346 350
f 280 353 354
f 280 354 355
f 280 355 281
f 281 356 357
f 281 357 358
f 281 358 359
f 281 359 360
f 281 355 361
f 281 361 362
f 281 362 363
f 281 363 364
f 281 364 365
f 281 365 366
f 281 366 367
f 281 367 368
f 281 368 369
f 281 369 370
f 281 370 371
f 281 371 372
f 281 372 373
f 281 373 374
f 281 374 375
f 281 375 376
f 281 376 356
f 283 377 287
f 285 287 377
f 285 377 378
f 285 378 379
f 285 379 286
f 286 379 380
f 286 380 288
f 288 290 289
f 288 380 381
f 288 381 382
f 288 382 290
f 290 382 383
f 290 383 291
f 291 383 292
f 292 383 293
f 293 383 294
f 294 383 384
f 294 384 385
f 294 385 386
f 294 386 387
f 294 387 388
f 294 388 295
f 295 388 296
f 296 388 297
f 297 388 387
f 297 387 389
f 297 389 390
f 297 390 298
f 298 390 391
f 298 391 392
f 298 392 299
f 299 392 300
f 300 393 394
f 300 394 301
f 300 392 393
f 301 394 395
f 301 395 302
f 302 395 396
f 302 396 303
f 303 396 304
f 304 397 305
f 304 396 397
f 305 398 399
f 305 399 306
f 305 397 398
f 306 399 307
f 307 400 401
f 307 401 308
f 307 399 400
f 308 401 309
f 309 402 310
f 309 401 402
f 310 402 403
f 310 403 404
f 310 404 313
f 312 313 314
f 313 404 405
f 313 405 406
f 313 406 314
f 314 406 315
f 315 406 316
f 316 406 405
f 316 405 407
f 316 407 317
f 317 407 318
f 318 407 408
f 318 408 409
f 318 409 410
f 318 410 319
f 319 410 411
f 319 411 320
f 320 411 412
f 320 412 413
f 320 413 321
f 321 414 322
f 321 413 414
f 322 415 323
f 322 414 415
f 323 415 324
f 324 415 326
f 324 326 325
f 326 415 327
f 327 415 416
f 327 416 417
f 327 417 328
f 328 417 329
f 329 418 419
f 329 419 330
f 329 417 420
f 329 420 418
f 330 421 331
f 330 419 421
f 331 421 332
f 332 422 333
f 332 421 422
f 333 422 423
f 333 423 424
f 333 424 334
f 334 424 335
f 335 424 425
f 335 425 426
f 335 426 336
f 336 426 337
f 337 427 340
f 337 426 428
f 337 428 427
f 338 339 429
f 338 429 430
f 338 430 431
f 338 431 342
f 339 340 429
f 340 427 432
f 340 432 429
f 341 342 433
f 341 433 434
f 341 434 347
f 342 431 430
f 342 430 433
f 344 435 436
f 344 436 345
f 344 348 437
f 344 437 438
f 344 438 435
f 345 436 346
f 346 436 350
f 347 439 348
f 347 434 440
f 347 440 439
f 348 439 437
f 349 441 352
f 349 351 442
f 349 442 441
f 350 443 351
f 350 436 443
f 351 443 444
f 351 444 442
f 352 441 445
f 353 446 447
f 353 447 354
f 354 447 448
f 354 448 355
f 355 448 361
f 356 449 357
f 356 376 449
f 357 449 358
f 358 449 450
f 358 450 359
f 359 450 451
f 359 451 452
f 359 452 360
f 360 452 453
f 360 453 454
f 360 454 455
f 361 448 362
f 362 448 363
f 363 448 456
f 363 456 457
f 363 457 364
f 364 457 365
f 365 457 366
f 366 457 458
f 366 458 367
f 367 458 459
f 367 459 368
f 368 459 369
f 369 459 460
f 369 460 370
f 370 460 371
f 371 460 461
f 371 461 462
f 371 462 372
f 372 462 373
f 373 462 463
f 373 463 464
f 373 464 465
f 373 465 374
f 374 465 375
f 375 465 449
f 375 449 376
f 377 466 378
f 378 466 467
f 378 467 468
f 378 468 379
f 379 468 380
f 380 469 470
f 380 470 471
f 380 471 381
f 380 468 469
f 381 471 472
f 381 472 382
f 382 472 384
f 382 384 383
f 384 472 473
f 384 473 385
f 385 474 386
f 385 473 474
f 386 475 476
f 386 476 387
f 386 474 475
f 387 476 389
f 389 477 478
f 389 478 390
f 389 476 477
f 390 478 391
f 391 478 479
f 391 479 393
f 391 393 392
f 393 479 480
f 393 480 394
f 394 480 481
f 394 481 395
f 395 481 482
f 395 482 396
f 396 482 397
f 397 482 483
f 397 483 484
f 397 484 398
f 398 485 399
f 398 484 485
f 399 485 486
f 399 486 400
f 400 487 488
f 400 488 401
f 400 486 487
f 401 488 402
f 402 488 489
f 402 489 490
f 402 490 403
f 403 490 404
f 404 491 492
f 404 492 405
f 404 490 491
f 405 492 408
f 405 408 407
f 408 492 493
f 408 493 494
f 408 494 409
f 409 495 410
f 409 494 495
f 410 495 411
f 411 495 412
f 412 495 496
f 412 496 413
f 413 496 497
f 413 497 498
f 413 498 499
f 413 499 414
f 414 499 500
f 414 500 415
f 415 500 416
f 416 501 417
f 416 500 502
f 416 502 503
f 416 503 501
f 417 501 420
f 418 504 505
f 418 505 506
f 418 506 419
f 418 420 507
f 418 507 504
f 419 506 421
f 420 501 508
f 420 508 507
f 421 506 509
f 421 509 422
f 422 509 510
f 422 510 423
f 423 511 512
f 423 512 424
f 423 510 511
f 424 512 425
f 425 512 513
f 425 513 514
f 425 514 426
f 426 514 515
f 426 515 432
f 426 432 428
f 427 428 432
f 429 516 430
f 429 432 516
f 430 517 433
f 430 516 605
f 430 605 518
f 430 518 517
f 432 515 516
f 433 519 434
f 433 517 519
f 434 519 440
f 435 438 520
f 435 520 521
f 435 521 522
f 435 522 436
f 436 522 443
f 437 520 438
f 437 439 523
f 437 523 524
f 437 524 520
f 439 440 523
f 440 519 525
f 440 525 526
f 440 526 527
f 440 527 523
f 441 442 528
f 441 528 529
f 441 529 445
f 442 444 530
f 442 530 531
f 442 531 532
f 442 532 528
f 443 522 444
f 444 522 530
f 445 529 533
f 446 534 535
f 446 535 447
f 447 535 536
f 447 536 456
f 447 456 448
f 449 537 450
f 449 465 537
f 450 538 451
f 450 537 538
f 451 539 540
f 451 540 452
f 451 538 539
f 452 540 453
f 453 540 541
f 453 541 454
f 454 541 455
f 455 541 542
f 455 542 543
f 456 536 544
f 456 544 457
f 457 544 458
f 458 544 545
f 458 545 546
f 458 546 459
f 459 547 460
f 459 546 548
f 459 548 547
f 460 547 549
f 460 549 461
f 461 549 550
f 461 550 463
f 461 463 462
f 463 550 551
f 463 551 552
f 463 552 464
f 464 552 553
f 464 553 554
f 464 554 555
f 464 555 465
f 465 555 537
f 467 556 468
f 468 556 557
f 468 557 558
f 468 558 469
f 469 558 559
f 469 559 560
f 469 560 561
f 469 561 470
f 470 561 562
f 470 562 471
f 471 562 473
f 471 473 472
f 473 562 563
f 473 563 564
f 473 564 474
f 474 564 475
f 475 565 566
f 475 566 476
f 475 564 565
f 476 566 477
f 477 567 568
f 477 568 569
f 477 569 478
f 477 566 567
f 478 569 479
f 479 569 568
f 479 568 570
f 479 570 571
f 479 571 480
f 480 571 572
f 480 572 481
f 481 572 483
f 481 483 482
f 483 573 484
f 483 572 573
f 484 574 485
f 484 573 574
f 485 574 575
f 485 575 486
f 486 576 487
f 486 575 576
f 487 576 577
f 487 577 578
f 487 578 488
f 488 578 489
f 489 578 579
f 489 579 490
f 490 579 580
f 490 580 491
f 491 580 492
f 492 580 581
f 492 581 493
f 493 582 494
f 493 581 583
f 493 583 584
f 493 584 582
f 494 582 585
f 494 585 496
f 494 496 495
f 496 585 586
f 496 586 497
f 497 586 498
f 498 586 587
f 498 587 588
f 498 588 589
f 498 589 502
f 498 502 499
f 499 502 500
f 501 503 590
f 501 590 508
f 502 589 591
f 502 591 503
f 503 591 592
f 503 592 590
f 504 593 505
f 504 507 593
f 505 593 594
f 505 594 595
f 505 595 506
f 506 595 509
f 507 508 596
f 507 596 597
f 507 597 593
f 508 590 592
f 508 592 598
f 508 598 599
f 508 599 596
f 509 595 510
f 510 600 511
f 510 595 601
f 510 601 600
f 511 600 602
f 511 602 513
f 511 513 512
f 513 602 603
f 513 603 514
f 514 604 515
f 514 603 604
f 515 605 516
f 515 604 605
f 517 518 606
f 517 606 525
f 517 525 519
f 518 607 606
f 518 605 607
f 520 524 608
f 520 608 609
f 520 609 610
f 520 610 521
f 521 610 611
f 521 611 522
f 522 611 530
f 523 527 524
f 524 527 608
f 525 606 612
f 525 612 526
f 526 612 613
f 526 613 527
f 527 613 608
f 528 532 529
f 529 532 614
f 529 614 615
f 529 615 616
f 529 616 533
f 530 611 531
f 531 611 617
f 531 617 618
f 531 618 614
f 531 614 532
f 534 619 535
f 535 620 621
f 535 621 536
f 535 619 622
f 535 622 620
f 536 618 545
f 536 545 544
f 536 621 618
f 537 555 554
f 537 554 623
f 537 623 538
f 538 623 624
f 538 624 625
f 538 625 539
f 539 625 626
f 539 626 627
f 539 627 628
f 539 628 540
f 540 628 542
f 540 542 541
f 542 629 543
f 542 628 627
f 542 627 630
f 542 630 629
f 543 629 631
f 545 618 617
f 545 617 632
f 545 632 548
f 545 548 546
f 547 548 633
f 547 633 549
f 548 632 633
f 549 633 634
f 549 634 550
f 550 634 635
f 550 635 551
f 551 636 637
f 551 637 638
f 551 638 552
f 551 635 639
f 551 639 636
f 552 638 553
f 553 640 641
f 553 641 554
f 553 638 640
f 554 641 624
f 554 624 623
f 557 642 558
f 558 642 559
f 559 643 644
f 559 644 645
f 559 645 560
f 559 642 643
f 560 645 646
f 560 646 647
f 560 647 561
f 561 647 562
f 562 647 563
f 563 647 648
f 563 648 649
f 563 649 564
f 564 649 565
f 565 649 650
f 565 650 651
f 565 651 566
f 566 651 652
f 566 652 653
f 566 653 567
f 567 653 654
f 567 654 568
f 568 654 655
f 568 655 570
f 570 655 656
f 570 656 571
f 571 656 657
f 571 657 658
f 571 658 572
f 572 658 573
f 573 658 657
f 573 657 574
f 574 659 660
f 574 660 575
f 574 657 659
f 575 660 576
f 576 660 661
f 576 661 577
f 577 662 663
f 577 663 578
f 577 661 662
f 578 663 664
f 578 664 579
f 579 664 580
f 580 583 581
f 580 664 665
f 580 665 583
f 582 666 585
f 582 584 667
f 582 667 666
f 583 665 668
f 583 668 669
f 583 669 584
f 584 669 670
f 584 670 667
f 585 666 586
f 586 666 671
f 586 671 587
f 587 671 672
f 587 672 588
f 588 673 589
f 588 672 674
f 588 674 673
f 589 675 592
f 589 592 591
f 589 673 675
f 592 675 676
f 592 676 598
f 593 677 594
f 593 597 678
f 593 678 677
f 594 679 601
f 594 601 595
f 594 677 679
f 596 599 680
f 596 680 681
f 596 681 678
f 596 678 597
f 598 676 682
f 598 682 599
f 599 682 683
f 599 683 680
f 600 684 602
f 600 601 679
f 600 679 685
f 600 685 684
f 602 684 603
f 603 684 686
f 603 686 687
f 603 687 604
f 604 687 605
f 605 687 688
f 605 688 607
f 606 607 689
f 606 689 690
f 606 690 612
f 607 688 689
f 608 613 691
f 608 691 635
f 608 635 609
f 609 633 610
f 609 635 634
f 609 634 633
f 610 632 617
f 610 617 611
f 610 633 632
f 612 690 692
f 612 692 613
f 613 692 636
f 613 636 691
f 614 693 615
f 614 618 693
f 615 693 694
f 618 621 693
f 620 693 621
f 620 622 693
f 622 694 693
f 624 695 696
f 624 696 625
f 624 641 697
f 624 697 695
f 625 696 698
f 625 698 626
f 626 698 627
f 627 698 699
f 627 699 630
f 629 630 700
f 629 700 631
f 630 701 702
f 630 702 700
f 630 699 701
f 635 691 639
f 636 692 703
f 636 703 637
f 636 639 691
f 637 703 704
f 637 704 638
f 638 704 640
f 640 705 641
f 640 704 706
f 640 706 705
f 641 705 707
f 641 707 697
f 644 708 645
f 645 709 710
f 645 710 646
f 645 708 709
f 646 710 648
f 646 648 647
f 648 711 712
f 648 712 649
f 648 710 711
f 649 712 650
f 650 712 713
f 650 713 651
f 651 714 652
f 651 713 714
f 652 714 715
f 652 715 716
f 652 716 653
f 653 716 717
f 653 717 718
f 653 718 654
f 654 718 719
f 654 719 655
f 655 719 720
f 655 720 656
f 656 720 721
f 656 721 657
f 657 721 659
f 659 721 722
f 659 722 723
f 659 723 660
f 660 723 661
f 661 723 724
f 661 724 662
f 662 725 726
f 662 726 727
f 662 727 665
f 662 665 663
f 662 724 725
f 663 665 664
f 665 727 668
f 666 667 728
f 666 728 671
f 667 729 728
f 667 670 729
f 668 727 726
f 668 726 669
f 669 726 730
f 669 730 731
f 669 731 732
f 669 732 670
f 670 732 733
f 670 733 729
f 671 728 734
f 671 734 672
f 672 734 735
f 672 735 674
f 673 674 736
f 673 736 737
f 673 737 675
f 674 735 738
f 674 738 736
f 675 737 676
f 676 737 739
f 676 739 682
f 677 678 740
f 677 740 741
f 677 741 679
f 678 681 680
f 678 680 742
f 678 742 743
f 678 743 744
f 678 744 745
f 678 745 740
f 679 741 685
f 680 683 746
f 680 746 747
f 680 747 742
f 682 739 748
f 682 748 683
f 683 748 746
f 684 685 749
f 684 749 750
f 684 750 686
f 685 741 751
f 685 751 749
f 686 750 687
f 687 750 752
f 687 752 753
f 687 753 688
f 688 753 689
f 689 753 754
f 689 754 690
f 690 754 703
f 690 703 692
f 695 755 696
f 695 697 756
f 695 756 755
f 696 755 757
f 696 757 758
f 696 758 759
f 696 759 698
f 697 707 756
f 698 759 699
f 699 759 760
f 699 760 701
f 700 702 761
f 700 761 762
f 701 760 763
f 701 763 764
f 701 764 702
f 702 764 761
f 703 754 706
f 703 706 704
f 705 706 753
f 705 753 752
f 705 752 765
f 705 765 756
f 705 756 707
f 706 754 753
f 708 766 709
f 709 766 767
f 709 767 710
f 710 767 711
f 711 767 768
f 711 768 769
f 711 769 712
f 712 769 713
f 713 769 770
f 713 770 714
f 714 770 771
f 714 771 715
f 715 772 716
f 715 771 772
f 716 772 773
f 716 773 774
f 716 774 717
f 717 774 719
f 717 719 718
f 719 774 775
f 719 775 776
f 719 776 720
f 720 776 777
f 720 777 778
f 720 778 721
f 721 778 777
f 721 777 722
f 722 779 780
f 722 780 781
f 722 781 723
f 722 777 779
f 723 781 724
f 724 781 782
f 724 782 725
f 725 782 731
f 725 731 730
f 725 730 726
f 728 729 734
f 729 783 734
f 729 733 784
f 729 784 783
f 731 782 732
f 732 782 785
f 732 785 733
f 733 786 784
f 733 785 787
f 733 787 788
f 733 788 786
f 734 783 735
f 735 783 789
f 735 789 738
f 736 790 737
f 736 738 791
f 736 791 790
f 737 790 739
f 738 789 791
f 739 790 792
f 739 792 748
f 740 745 741
f 741 793 751
f 741 745 744
f 741 744 794
f 741 794 793
f 742 747 795
f 742 795 743
f 743 796 744
f 743 795 797
f 743 797 796
f 744 796 794
f 746 748 798
f 746 798 799
f 746 799 795
f 746 795 747
f 748 792 798
f 749 765 750
f 749 751 765
f 750 765 752
f 751 793 756
f 751 756 765
f 755 793 757
f 755 756 793
f 757 793 800
f 757 800 758
f 758 800 796
f 758 796 801
f 758 801 759
f 759 801 760
f 760 802 763
f 760 801 802
f 761 803 762
f 761 764 804
f 761 804 805
f 761 805 806
f 761 806 803
f 763 802 807
f 763 807 808
f 763 808 804
f 763 804 764
f 766 809 810
f 766 810 767
f 767 810 768
f 768 811 812
f 768 812 769
f 768 810 811
f 769 812 770
f 770 812 813
f 770 813 771
f 771 813 814
f 771 814 815
f 771 815 772
f 772 815 816
f 772 816 817
f 772 817 818
f 772 818 819
f 772 819 820
f 772 820 773
f 773 820 821
f 773 821 775
f 773 775 774
f 775 821 822
f 775 822 823
f 775 823 824
f 775 824 776
f 776 824 777
f 777 824 779
f 779 825 826
f 779 826 780
f 779 824 825
f 780 826 787
f 780 787 782
f 780 782 781
f 782 787 785
f 783 784 827
f 783 827 789
f 784 786 828
f 784 828 827
f 786 788 826
f 786 826 829
f 786 829 828
f 787 826 788
f 789 827 830
f 789 830 831
f 789 831 791
f 790 791 832
f 790 832 792
f 791 831 832
f 792 832 798
f 793 794 800
f 794 796 800
f 795 799 833
f 795 833 797
f 796 797 801
f 797 833 802
f 797 802 801
f 798 832 834
f 798 834 835
f 798 835 799
f 799 835 836
f 799 836 833
f 802 833 836
f 802 836 807
f 804 808 837
f 804 837 805
f 805 837 838
f 805 838 839
f 805 839 840
f 805 840 806
f 807 836 841
f 807 841 808
f 808 841 842
f 808 842 843
f 808 843 837
f 809 844 811
f 809 811 810
f 811 844 813
f 811 813 812
f 813 845 846
f 813 846 814
f 813 844 845
f 814 816 815
f 818 847 820
f 818 820 819
f 820 847 848
f 820 848 849
f 820 849 850
f 820 850 821
f 821 850 822
f 822 850 851
f 822 851 823
f 823 851 852
f 823 852 825
f 823 825 824
f 825 852 826
f 826 852 829
f 827 853 830
f 827 828 853
f 828 829 854
f 828 854 853
f 829 852 855
f 829 855 856
f 829 856 854
f 830 857 831
f 830 853 858
f 830 858 859
f 830 859 857
f 831 834 832
f 831 857 834
f 834 857 860
f 834 860 835
f 835 860 861
f 835 861 836
f 836 861 841
f 837 843 862
f 837 862 838
f 838 862 863
f 838 863 864
f 838 864 865
f 838 865 839
f 841 861 842
f 842 861 866
f 842 866 867
f 842 867 843
f 843 867 868
f 843 868 862
f 848 869 870
f 848 870 849
f 849 870 850
f 850 870 871
f 850 871 851
f 851 871 872
f 851 872 855
f 851 855 852
f 853 854 858
f 854 873 858
f 854 856 873
f 855 872 874
f 855 874 856
f 856 874 873
f 857 859 875
f 857 875 860
f 858 873 876
f 858 876 877
f 858 877 878
f 858 878 859
f 859 878 875
f 860 879 861
f 860 875 879
f 861 879 866
f 862 868 880
f 862 880 881
f 862 881 863
f 863 881 882
f 863 882 883
f 863 883 864
f 866 875 884
f 866 884 867
f 866 879 875
f 867 884 868
f 868 885 880
f 868 884 885
f 869 886 887
f 869 887 870
f 870 887 888
f 870 888 889
f 870 889 890
f 870 890 871
f 871 890 872
f 872 890 889
f 872 889 876
f 872 876 873
f 872 873 874
f 875 878 884
f 876 889 877
f 877 889 888
f 877 888 891
f 877 891 878
f 878 891 892
f 878 892 884
f 880 885 893
f 880 893 894
f 880 894 881
f 881 894 893
f 881 893 882
f 882 893 883
f 883 893 886
f 884 892 885
f 885 892 895
f 885 895 887
f 885 887 893
f 886 893 887
f 887 895 896
f 887 896 892
f 887 892 891
f 887 891 888
f 892 896 895

