# https://github.com/mikedh/trimesh
v 0.01055403 0.02970747 -0.02442298
v 0.01151078 0.02874157 -0.02803619
v 0.01109940 0.02867507 -0.02895252
v 0.01077735 0.02893633 -0.02803619
v 0.01055403 0.02911526 -0.02740424
v 0.00918119 0.02913585 -0.02887737
v 0.00916943 0.02914218 -0.02885858
v 0.00916943 0.02930369 -0.02803619
v 0.01055403 0.01353423 -0.02442298
v 0.01251926 0.02916752 -0.02442298
v 0.01158836 0.02875424 -0.02786113
v 0.01164713 0.02870357 -0.02803619
v 0.01079615 0.02836946 -0.03057253
v 0.01057048 0.02859273 -0.02986372
v 0.00961372 0.02890942 -0.02949310
v 0.01207261 0.02831880 -0.02932999
v 0.01157190 0.02823962 -0.03027705
v 0.00916943 0.02896800 -0.02967926
v 0.00916943 0.02299528 -0.02803619
v 0.02104780 0.01353265 -0.02444177
v 0.02104545 0.01353423 -0.02442298
v 0.01055403 0.01353423 -0.02781757
v 0.01365232 0.02879699 -0.02442298
v 0.01258978 0.02840430 -0.02816856
v 0.01097011 0.02816045 -0.03125145
v 0.00978768 0.02870515 -0.03019507
v 0.00916943 0.02890783 -0.02993888
v 0.01286952 0.02812562 -0.02911136
v 0.01234530 0.02809395 -0.02994229
v 0.01174351 0.02801636 -0.03100380
v 0.00916943 0.02363023 -0.02999011
v 0.02104780 0.01353265 -0.02680816
v 0.03318475 0.01353265 -0.02444177
v 0.02104545 0.02540052 -0.02442298
v 0.00916943 0.02380916 -0.03048201
v 0.00916943 0.02382975 -0.03053581
v 0.00916943 0.02400234 -0.03096964
v 0.00916943 0.02414802 -0.03121900
v 0.00916943 0.02439978 -0.03154181
v 0.00916943 0.02470697 -0.03187999
v 0.00916943 0.02473547 -0.03190902
v 0.00916943 0.02501099 -0.03216437
v 0.00916943 0.02526751 -0.03235737
v 0.00916943 0.02558420 -0.03257940
v 0.00916943 0.02584546 -0.03274678
v 0.00916943 0.02593414 -0.03279717
v 0.00916943 0.02610990 -0.03289367
v 0.00916943 0.02631258 -0.03299102
v 0.00916943 0.02636800 -0.03301664
v 0.02800133 0.01353265 -0.03248375
v 0.02767223 0.01353265 -0.03239238
v 0.02722794 0.01353265 -0.03225403
v 0.02711980 0.01353265 -0.03221219
v 0.02668256 0.01353265 -0.03193720
v 0.02639342 0.01353265 -0.03168186
v 0.01431994 0.02857056 -0.02442298
v 0.01358415 0.02799736 -0.02857164
v 0.01176937 0.02781368 -0.03176897
v 0.01051406 0.02815728 -0.03166991
v 0.00916943 0.02862123 -0.03105077
v 0.01372520 0.02778043 -0.02938293
v 0.01328325 0.02770600 -0.03033769
v 0.01251691 0.02787227 -0.03066135
v 0.01267676 0.02766483 -0.03130696
v 0.03181191 0.01353265 -0.03017629
v 0.03311893 0.01365299 -0.02444177
v 0.03308837 0.01370524 -0.02444177
v 0.03279217 0.01419452 -0.02444177
v 0.03229616 0.01494032 -0.02444177
v 0.03195060 0.01544702 -0.02444177
v 0.03156038 0.01598698 -0.02444177
v 0.03145459 0.01612632 -0.02444177
v 0.03076347 0.01701779 -0.02444177
v 0.03050019 0.01731865 -0.02444177
v 0.02999007 0.01788869 -0.02444177
v 0.02928014 0.01866774 -0.02444177
v 0.02865719 0.01929953 -0.02444177
v 0.02782268 0.02008017 -0.02444177
v 0.02671077 0.02110940 -0.02444177
v 0.02565528 0.02204363 -0.02444177
v 0.02454807 0.02292244 -0.02444177
v 0.02335154 0.02381233 -0.02444177
v 0.02210094 0.02470380 -0.02444177
v 0.02200456 0.02477031 -0.02444177
v 0.02133459 0.02523109 -0.02444177
v 0.02058235 0.02568712 -0.02442298
v 0.00916943 0.02672586 -0.03314218
v 0.02817529 0.01353265 -0.03250767
v 0.00916943 0.02674169 -0.03314730
v 0.01430818 0.02780893 -0.02825140
v 0.01579856 0.02798786 -0.02442298
v 0.01199739 0.02747957 -0.03235566
v 0.01116052 0.02788493 -0.03197478
v 0.01307169 0.02742890 -0.03165112
v 0.01284366 0.02736240 -0.03207726
v 0.00983470 0.02812403 -0.03212679
v 0.00967719 0.02824912 -0.03190048
v 0.00916943 0.02837105 -0.03185351
v 0.00916943 0.02844072 -0.03163660
v 0.00916943 0.02849297 -0.03147178
v 0.00954790 0.02841063 -0.03148886
v 0.01441867 0.02762842 -0.02893544
v 0.01399083 0.02753658 -0.03003367
v 0.01420005 0.02731173 -0.03065281
v 0.01358180 0.02742415 -0.03104906
v 0.03172493 0.01353265 -0.03050678
v 0.03179310 0.01357065 -0.03016518
v 0.03132765 0.01416127 -0.03057339
v 0.03086220 0.01496407 -0.03034623
v 0.03049313 0.01561170 -0.02999695
v 0.03000888 0.01631000 -0.02982017
v 0.02954813 0.01678503 -0.03017458
v 0.02899805 0.01749916 -0.02994656
v 0.02864779 0.01795677 -0.02965877
v 0.02814003 0.01839064 -0.03000976
v 0.02756880 0.01903985 -0.02966389
v 0.02657677 0.02002791 -0.02938976
v 0.02615599 0.02031451 -0.02977662
v 0.02514517 0.02123924 -0.02952128
v 0.02446815 0.02189162 -0.02910709
v 0.02408498 0.02214655 -0.02933852
v 0.02368300 0.02262950 -0.02859129
v 0.02236422 0.02342122 -0.02935048
v 0.02165194 0.02398176 -0.02901145
v 0.02104780 0.02430953 -0.02925227
v 0.02095847 0.02435545 -0.02928643
v 0.01981365 0.02489699 -0.02984323
v 0.01958563 0.02516775 -0.02921726
v 0.01885219 0.02551453 -0.02949566
v 0.02040134 0.02578529 -0.02442298
v 0.02864544 0.01353265 -0.03242483
v 0.02778036 0.01405676 -0.03255634
v 0.02672958 0.01570196 -0.03270665
v 0.00916943 0.02718347 -0.03313791
v 0.01087373 0.02675278 -0.03312425
v 0.02389691 0.01883875 -0.03289452
v 0.02513811 0.01730915 -0.03281681
v 0.01679998 0.02756350 -0.02442298
v 0.01572569 0.02736873 -0.02760749
v 0.01091839 0.02746532 -0.03268359
v 0.01056108 0.02782001 -0.03238640
v 0.01357945 0.02692220 -0.03243251
v 0.01270967 0.02681611 -0.03280998
v 0.01443748 0.02699187 -0.03141115
v 0.01375576 0.02712963 -0.03179032
v 0.01460673 0.02677178 -0.03189280
v 0.01458322 0.02667677 -0.03214131
v 0.00916943 0.02815728 -0.03233175
v 0.00916943 0.02826337 -0.03211996
v 0.00916943 0.02831880 -0.03198588
v 0.01567632 0.02701246 -0.02944442
v 0.01482535 0.02730698 -0.02969378
v 0.01510039 0.02702671 -0.03039064
v 0.01480419 0.02699504 -0.03093548
v 0.03158859 0.01353265 -0.03075956
v 0.03061537 0.01506067 -0.03074333
v 0.03011466 0.01598698 -0.03036929
v 0.02883820 0.01752133 -0.03035989
v 0.02776626 0.01862657 -0.03037099
v 0.02687767 0.01957188 -0.03010455
v 0.02554950 0.02074521 -0.03003794
v 0.02456923 0.02151793 -0.03013529
v 0.02397684 0.02205630 -0.02994058
v 0.02328807 0.02267384 -0.02966475
v 0.02256169 0.02313462 -0.02992009
v 0.02177183 0.02375374 -0.02961436
v 0.02104780 0.02429211 -0.02932144
v 0.02106661 0.02413535 -0.02986970
v 0.02010985 0.02444412 -0.03083300
v 0.01948925 0.02492707 -0.03041796
v 0.01890156 0.02533718 -0.03012248
v 0.01804589 0.02584071 -0.02986970
v 0.01786958 0.02609565 -0.02913869
v 0.01858656 0.02580588 -0.02878172
v 0.01880753 0.02661343 -0.02442298
v 0.03049078 0.01353265 -0.03145641
v 0.02764872 0.01497674 -0.03254780
v 0.02572110 0.01746907 -0.03268700
v 0.00916943 0.02721514 -0.03312852
v 0.00923525 0.02718347 -0.03313535
v 0.01161187 0.02705996 -0.03287146
v 0.01276844 0.02625557 -0.03304653
v 0.02295896 0.01976506 -0.03289281
v 0.02377468 0.01971122 -0.03267334
v 0.02479961 0.01869624 -0.03264516
v 0.01774029 0.02716288 -0.02442298
v 0.01584793 0.02722939 -0.02803619
v 0.01005097 0.02750491 -0.03284414
v 0.00924936 0.02788810 -0.03266907
v 0.00916943 0.02814145 -0.03235907
v 0.01622170 0.02594839 -0.03209690
v 0.01502987 0.02619540 -0.03249315
v 0.01435755 0.02598322 -0.03287232
v 0.01547181 0.02658335 -0.03135308
v 0.01564576 0.02633158 -0.03185864
v 0.01682349 0.02579638 -0.03185095
v 0.01596076 0.02710113 -0.02842476
v 0.01691517 0.02662452 -0.02872024
v 0.01710793 0.02636325 -0.02952640
v 0.01606890 0.02673061 -0.02993802
v 0.01589729 0.02659285 -0.03071088
v 0.03150161 0.01353265 -0.03086801
v 0.03109258 0.01412169 -0.03089961
v 0.03012407 0.01509550 -0.03115324
v 0.02963981 0.01582230 -0.03111396
v 0.03005354 0.01572571 -0.03080311
v 0.02954343 0.01650951 -0.03061865
v 0.02810007 0.01800428 -0.03070319
v 0.02704223 0.01905885 -0.03072625
v 0.02648980 0.01967480 -0.03057766
v 0.02612543 0.02011183 -0.03035647
v 0.02534263 0.02072146 -0.03048884
v 0.02478315 0.02124874 -0.03036843
v 0.02385225 0.02195654 -0.03047689
v 0.02338680 0.02236982 -0.03036075
v 0.02314703 0.02264375 -0.03009686
v 0.02232191 0.02308078 -0.03055545
v 0.02207743 0.02334205 -0.03029755
v 0.02143567 0.02364290 -0.03070576
v 0.02104780 0.02395167 -0.03052813
v 0.02104780 0.02401184 -0.03032829
v 0.02090675 0.02406093 -0.03046579
v 0.02068343 0.02404509 -0.03094829
v 0.01992179 0.02438870 -0.03126426
v 0.01930589 0.02488115 -0.03094829
v 0.01825275 0.02556995 -0.03051532
v 0.01724193 0.02616373 -0.03010711
v 0.01760864 0.02637750 -0.02839572
v 0.03003004 0.01456980 -0.03138895
v 0.03114194 0.01353265 -0.03110200
v 0.02706103 0.01601389 -0.03251706
v 0.02938593 0.01549136 -0.03143677
v 0.02548838 0.01820854 -0.03248290
v 0.02667081 0.01745166 -0.03215412
v 0.02645924 0.01693387 -0.03251023
v 0.00916943 0.02759358 -0.03292783
v 0.01521322 0.02531818 -0.03290562
v 0.01609476 0.02482890 -0.03288855
v 0.01746055 0.02393900 -0.03288684
v 0.01919305 0.02280843 -0.03287146
v 0.02121940 0.02164302 -0.03276643
v 0.02451281 0.01937395 -0.03240177
v 0.02266042 0.02081330 -0.03261612
v 0.02353490 0.02035093 -0.03237530
v 0.02506994 0.01937395 -0.03201577
v 0.02633700 0.01815945 -0.03196880
v 0.02735958 0.01764325 -0.03161354
v 0.02736193 0.01719989 -0.03186376
v 0.00916943 0.02787385 -0.03269469
v 0.00916943 0.02789602 -0.03267249
v 0.00916943 0.02791344 -0.03265199
v 0.00916943 0.02801794 -0.03252048
v 0.01794480 0.02522001 -0.03183473
v 0.01838909 0.02484156 -0.03196539
v 0.01757103 0.02497299 -0.03229417
v 0.01649439 0.02540210 -0.03245728
v 0.01578446 0.02542902 -0.03271946
v 0.01733596 0.02442037 -0.03273824
v 0.01670595 0.02631100 -0.03045383
v 0.01746760 0.02584546 -0.03083641
v 0.01624756 0.02616057 -0.03157682
v 0.01813991 0.02546702 -0.03099526
v 0.01774499 0.02542902 -0.03160586
v 0.03132295 0.01353265 -0.03098757
v 0.03052369 0.01452863 -0.03112421
v 0.02873242 0.01643351 -0.03141883
v 0.02907093 0.01645726 -0.03113787
v 0.02868305 0.01718247 -0.03088338
v 0.02719973 0.01864399 -0.03097305
v 0.02613484 0.01972072 -0.03096708
v 0.02566703 0.02030818 -0.03074077
v 0.02502293 0.02076738 -0.03090815
v 0.02425188 0.02152743 -0.03071259
v 0.02324576 0.02226848 -0.03084325
v 0.02291665 0.02260258 -0.03067074
v 0.02217146 0.02302694 -0.03098245
v 0.02104780 0.02372682 -0.03113702
v 0.02104780 0.02385192 -0.03083214
v 0.01949865 0.02444095 -0.03157682
v 0.01882163 0.02490807 -0.03148203
v 0.02093026 0.02379491 -0.03115239
v 0.02104780 0.02370307 -0.03118143
v 0.02061526 0.02379016 -0.03151619
v 0.01857245 0.02515192 -0.03124035
v 0.03099620 0.01379075 -0.03109944
v 0.02709629 0.01651268 -0.03232406
v 0.02814238 0.01668686 -0.03165624
v 0.01830682 0.02348773 -0.03285695
v 0.02104780 0.02176653 -0.03276728
v 0.02185646 0.02140867 -0.03264260
v 0.02631349 0.01863449 -0.03167418
v 0.02260870 0.02128833 -0.03229075
v 0.02159788 0.02202938 -0.03236505
v 0.02141687 0.02271184 -0.03198844
v 0.02226784 0.02229065 -0.03173652
v 0.02426128 0.02106348 -0.03128647
v 0.02545782 0.02000733 -0.03126853
v 0.02581748 0.01932328 -0.03153156
v 0.02696230 0.01834630 -0.03140517
v 0.02810007 0.01729490 -0.03130184
v 0.01936701 0.02423036 -0.03196026
v 0.01896503 0.02423194 -0.03218998
v 0.01821984 0.02433170 -0.03245216
v 0.01685170 0.02495082 -0.03261356
v 0.01834443 0.02392000 -0.03264687
v 0.02017332 0.02237932 -0.03277240
v 0.02651330 0.01904460 -0.03122669
v 0.02365714 0.02184253 -0.03100977
v 0.02262046 0.02259150 -0.03113104
v 0.02152030 0.02331355 -0.03129586
v 0.02104780 0.02356531 -0.03141200
v 0.02021563 0.02373474 -0.03187145
v 0.02104780 0.02333413 -0.03167247
v 0.02104780 0.02323754 -0.03177495
v 0.02104780 0.02185995 -0.03271604
v 0.01915309 0.02340697 -0.03261185
v 0.02104780 0.02259150 -0.03227453
v 0.02013571 0.02298894 -0.03245216
v 0.02125702 0.02310928 -0.03175018
v 0.02104780 0.02286860 -0.03208067
v 0.02104780 0.02302853 -0.03195258
v 0.02188937 0.02288602 -0.03147093
v 0.02299422 0.02209588 -0.03134197
v 0.02057530 0.02306653 -0.03219596
v 0.01945869 0.02371257 -0.03230100
f 1 2 3
f 1 3 4
f 1 4 5
f 1 5 6
f 1 6 7
f 1 7 8
f 1 8 19
f 1 19 9
f 1 9 21
f 1 21 34
f 1 34 86
f 1 86 130
f 1 130 175
f 1 175 186
f 1 186 138
f 1 138 91
f 1 91 56
f 1 56 23
f 1 23 10
f 1 10 2
f 2 11 12
f 2 12 3
f 2 10 11
f 3 13 14
f 3 14 15
f 3 15 6
f 3 6 4
f 3 12 16
f 3 16 17
f 3 17 13
f 4 6 5
f 6 15 18
f 6 18 7
f 7 18 27
f 7 27 60
f 7 60 100
f 7 100 99
f 7 99 98
f 7 98 150
f 7 150 149
f 7 149 148
f 7 148 190
f 7 190 252
f 7 252 251
f 7 251 250
f 7 250 249
f 7 249 236
f 7 236 179
f 7 179 134
f 7 134 89
f 7 89 87
f 7 87 49
f 7 49 48
f 7 48 47
f 7 47 46
f 7 46 45
f 7 45 44
f 7 44 43
f 7 43 42
f 7 42 41
f 7 41 40
f 7 40 39
f 7 39 38
f 7 38 37
f 7 37 36
f 7 36 35
f 7 35 31
f 7 31 19
f 7 19 8
f 9 20 33
f 9 33 21
f 9 19 22
f 9 22 32
f 9 32 20
f 10 23 24
f 10 24 12
f 10 12 11
f 12 24 16
f 13 17 25
f 13 25 26
f 13 26 14
f 14 26 15
f 15 26 27
f 15 27 18
f 16 24 28
f 16 28 29
f 16 29 17
f 17 29 30
f 17 30 25
f 19 31 22
f 20 32 55
f 20 55 54
f 20 54 53
f 20 53 52
f 20 52 51
f 20 51 50
f 20 50 88
f 20 88 131
f 20 131 176
f 20 176 230
f 20 230 264
f 20 264 202
f 20 202 155
f 20 155 106
f 20 106 65
f 20 65 33
f 21 33 34
f 22 31 35
f 22 35 36
f 22 36 37
f 22 37 38
f 22 38 39
f 22 39 40
f 22 40 41
f 22 41 42
f 22 42 43
f 22 43 44
f 22 44 45
f 22 45 46
f 22 46 47
f 22 47 48
f 22 48 49
f 22 49 50
f 22 50 51
f 22 51 52
f 22 52 53
f 22 53 54
f 22 54 55
f 22 55 32
f 23 56 57
f 23 57 28
f 23 28 24
f 25 30 58
f 25 58 59
f 25 59 26
f 26 59 60
f 26 60 27
f 28 57 61
f 28 61 62
f 28 62 63
f 28 63 29
f 29 63 30
f 30 63 64
f 30 64 58
f 33 65 66
f 33 66 34
f 34 66 67
f 34 67 68
f 34 68 69
f 34 69 70
f 34 70 71
f 34 71 72
f 34 72 73
f 34 73 74
f 34 74 75
f 34 75 76
f 34 76 77
f 34 77 78
f 34 78 79
f 34 79 80
f 34 80 81
f 34 81 82
f 34 82 83
f 34 83 84
f 34 84 85
f 34 85 86
f 49 87 50
f 50 87 89
f 50 89 88
f 56 90 57
f 56 91 90
f 57 90 61
f 58 92 93
f 58 93 59
f 58 64 94
f 58 94 95
f 58 95 92
f 59 96 97
f 59 97 98
f 59 98 99
f 59 99 100
f 59 100 101
f 59 101 60
f 59 93 96
f 60 101 100
f 61 90 102
f 61 102 103
f 61 103 62
f 62 64 63
f 62 103 104
f 62 104 105
f 62 105 64
f 64 105 94
f 65 106 107
f 65 107 66
f 66 107 67
f 67 107 68
f 68 107 108
f 68 108 109
f 68 109 69
f 69 109 70
f 70 109 110
f 70 110 71
f 71 110 111
f 71 111 72
f 72 111 73
f 73 111 112
f 73 112 113
f 73 113 74
f 74 113 75
f 75 113 76
f 76 113 114
f 76 114 115
f 76 115 77
f 77 115 116
f 77 116 78
f 78 116 117
f 78 117 79
f 79 117 118
f 79 118 80
f 80 118 119
f 80 119 120
f 80 120 121
f 80 121 81
f 81 121 122
f 81 122 82
f 82 122 123
f 82 123 83
f 83 123 84
f 84 123 85
f 85 123 124
f 85 124 125
f 85 125 126
f 85 126 86
f 86 126 127
f 86 127 128
f 86 128 129
f 86 129 130
f 88 89 132
f 88 132 133
f 88 133 131
f 89 134 135
f 89 135 136
f 89 136 137
f 89 137 133
f 89 133 132
f 90 91 102
f 91 138 139
f 91 139 102
f 92 140 141
f 92 141 93
f 92 95 142
f 92 142 143
f 92 143 140
f 93 141 96
f 94 105 144
f 94 144 145
f 94 145 95
f 95 145 146
f 95 146 147
f 95 147 142
f 96 148 149
f 96 149 150
f 96 150 97
f 96 141 148
f 97 150 98
f 102 139 151
f 102 151 152
f 102 152 103
f 103 152 104
f 104 152 153
f 104 153 154
f 104 154 144
f 104 144 105
f 106 155 108
f 106 108 107
f 108 156 109
f 108 155 156
f 109 156 157
f 109 157 110
f 110 157 111
f 111 157 112
f 112 157 158
f 112 158 113
f 113 158 115
f 113 115 114
f 115 158 159
f 115 159 160
f 115 160 116
f 116 160 117
f 117 160 118
f 118 161 119
f 118 160 161
f 119 161 162
f 119 162 163
f 119 163 121
f 119 121 120
f 121 163 164
f 121 164 122
f 122 164 123
f 123 165 166
f 123 166 124
f 123 164 165
f 124 166 125
f 125 166 167
f 125 167 126
f 126 167 168
f 126 168 127
f 127 169 170
f 127 170 171
f 127 171 129
f 127 129 128
f 127 168 169
f 129 171 172
f 129 172 173
f 129 173 174
f 129 174 130
f 130 174 175
f 131 133 177
f 131 177 176
f 133 137 136
f 133 136 178
f 133 178 177
f 134 179 180
f 134 180 135
f 135 180 181
f 135 181 143
f 135 143 182
f 135 182 183
f 135 183 136
f 136 183 184
f 136 184 185
f 136 185 178
f 138 186 187
f 138 187 139
f 139 187 151
f 140 143 181
f 140 181 188
f 140 188 189
f 140 189 141
f 141 189 190
f 141 190 148
f 142 147 191
f 142 191 192
f 142 192 143
f 143 192 193
f 143 193 182
f 144 154 146
f 144 146 145
f 146 154 194
f 146 194 195
f 146 195 147
f 147 195 196
f 147 196 191
f 151 153 152
f 151 187 197
f 151 197 186
f 151 186 198
f 151 198 199
f 151 199 200
f 151 200 153
f 153 200 201
f 153 201 154
f 154 201 194
f 155 202 156
f 156 202 203
f 156 203 204
f 156 204 205
f 156 205 206
f 156 206 157
f 157 206 207
f 157 207 158
f 158 207 208
f 158 208 159
f 159 208 209
f 159 209 210
f 159 210 160
f 160 210 211
f 160 211 161
f 161 212 213
f 161 213 162
f 161 211 212
f 162 213 214
f 162 214 215
f 162 215 163
f 163 215 216
f 163 216 164
f 164 216 165
f 165 217 218
f 165 218 166
f 165 216 217
f 166 218 219
f 166 219 220
f 166 220 221
f 166 221 168
f 166 168 167
f 168 221 222
f 168 222 169
f 169 222 223
f 169 223 224
f 169 224 225
f 169 225 170
f 170 225 171
f 171 225 226
f 171 226 172
f 172 226 227
f 172 227 173
f 173 186 174
f 173 227 199
f 173 199 228
f 173 228 186
f 174 186 175
f 176 177 229
f 176 229 230
f 177 178 231
f 177 231 232
f 177 232 229
f 178 185 233
f 178 233 234
f 178 234 235
f 178 235 231
f 179 236 181
f 179 181 180
f 181 236 188
f 182 193 237
f 182 237 238
f 182 238 239
f 182 239 240
f 182 240 183
f 183 241 184
f 183 240 241
f 184 242 185
f 184 241 243
f 184 243 244
f 184 244 245
f 184 245 242
f 185 246 247
f 185 247 248
f 185 248 233
f 185 242 246
f 186 228 198
f 186 197 187
f 188 236 189
f 189 236 249
f 189 249 250
f 189 250 251
f 189 251 252
f 189 252 190
f 191 196 253
f 191 253 254
f 191 254 255
f 191 255 192
f 192 255 256
f 192 256 257
f 192 257 193
f 193 257 258
f 193 258 238
f 193 238 237
f 194 201 259
f 194 259 260
f 194 260 261
f 194 261 195
f 195 261 196
f 196 260 262
f 196 262 263
f 196 263 253
f 196 261 260
f 198 228 199
f 199 227 200
f 200 227 259
f 200 259 201
f 202 264 265
f 202 265 203
f 203 265 204
f 204 232 266
f 204 266 205
f 204 265 232
f 205 266 267
f 205 267 206
f 206 267 268
f 206 268 207
f 207 268 208
f 208 269 209
f 208 268 269
f 209 269 270
f 209 270 210
f 210 270 271
f 210 271 211
f 211 271 212
f 212 272 273
f 212 273 213
f 212 271 272
f 213 273 214
f 214 273 274
f 214 274 275
f 214 275 215
f 215 275 216
f 216 275 217
f 217 275 276
f 217 276 219
f 217 219 218
f 219 276 277
f 219 277 278
f 219 278 220
f 220 278 223
f 220 223 222
f 220 222 221
f 223 278 277
f 223 277 224
f 224 279 253
f 224 253 280
f 224 280 225
f 224 277 281
f 224 281 282
f 224 282 283
f 224 283 279
f 225 280 284
f 225 284 262
f 225 262 226
f 226 262 260
f 226 260 227
f 227 260 259
f 229 232 265
f 229 265 230
f 230 265 285
f 230 285 264
f 231 286 232
f 231 235 286
f 232 287 266
f 232 286 287
f 233 248 287
f 233 287 234
f 234 287 235
f 235 287 286
f 238 258 288
f 238 288 239
f 239 288 240
f 240 288 289
f 240 289 241
f 241 290 243
f 241 289 290
f 242 245 291
f 242 291 246
f 243 292 244
f 243 290 293
f 243 293 294
f 243 294 292
f 244 292 295
f 244 295 296
f 244 296 297
f 244 297 298
f 244 298 245
f 245 298 291
f 246 291 247
f 247 299 300
f 247 300 266
f 247 266 287
f 247 287 248
f 247 291 299
f 253 263 284
f 253 284 280
f 253 279 283
f 253 283 254
f 254 283 301
f 254 301 302
f 254 302 255
f 255 302 303
f 255 303 304
f 255 304 256
f 256 304 257
f 257 304 258
f 258 304 305
f 258 305 306
f 258 306 288
f 262 284 263
f 264 285 265
f 266 300 267
f 267 300 268
f 268 300 269
f 269 300 307
f 269 307 270
f 270 307 297
f 270 297 296
f 270 296 272
f 270 272 271
f 272 296 308
f 272 308 273
f 273 308 274
f 274 309 276
f 274 276 275
f 274 308 309
f 276 310 277
f 276 309 310
f 277 310 282
f 277 282 281
f 282 310 311
f 282 311 283
f 283 312 301
f 283 311 313
f 283 313 314
f 283 314 312
f 288 306 289
f 289 315 290
f 289 306 305
f 289 305 316
f 289 316 315
f 290 317 293
f 290 315 318
f 290 318 317
f 291 298 307
f 291 307 299
f 292 294 295
f 293 317 294
f 294 319 295
f 294 317 320
f 294 320 321
f 294 321 314
f 294 314 319
f 295 319 322
f 295 322 323
f 295 323 296
f 296 323 308
f 297 307 298
f 299 307 300
f 301 312 302
f 302 312 324
f 302 324 325
f 302 325 303
f 303 305 304
f 303 325 318
f 303 318 305
f 305 318 316
f 308 323 309
f 309 323 322
f 309 322 310
f 310 322 311
f 311 322 319
f 311 319 313
f 312 314 321
f 312 321 320
f 312 320 324
f 313 319 314
f 315 316 318
f 317 318 324
f 317 324 320
f 318 325 324

