# https://github.com/mikedh/trimesh
v 0.03074899 -0.06231857 0.03028568
v 0.03002811 -0.06219871 0.03041085
v 0.02956764 -0.06254662 0.03049881
v 0.03074899 -0.06235519 0.03028568
v 0.03074899 -0.06196733 0.03026876
v 0.03074899 -0.06193071 0.03025861
v 0.02926595 -0.06232856 0.03051234
v 0.02823068 -0.06285957 0.03069841
v 0.02887217 -0.06279798 0.03059354
v 0.03074899 -0.06261321 0.03015035
v 0.03074899 -0.06164439 0.03014697
v 0.03074899 -0.06157780 0.03011314
v -0.00169381 -0.06566782 0.03248467
v -0.00169381 -0.06618386 0.03274178
v 0.01892909 -0.06531658 0.03083373
v 0.02071700 -0.06500530 0.03072209
v 0.02228579 -0.06460079 0.03069165
v 0.02364816 -0.06452588 0.03049543
v 0.02698581 -0.06344719 0.03053941
v -0.00087448 -0.06652511 0.03267412
v 0.00426695 -0.06628873 0.03227830
v 0.00822703 -0.06643522 0.03182835
v 0.00916386 -0.06679312 0.03155094
v 0.02779561 -0.06337062 0.03037364
v 0.02951365 -0.06287123 0.03031951
v 0.03012656 -0.06277468 0.03021463
v 0.02466756 -0.06447927 0.03017742
v 0.03074899 -0.06266981 0.03000827
v 0.03074899 -0.06112669 0.02983911
v -0.00169381 -0.06564119 0.03246437
v 0.03074899 -0.06063895 0.02952787
v 0.03074899 -0.06024609 0.02925723
v -0.00169381 -0.06641691 0.03273501
v 0.01800179 -0.06570777 0.03072886
v 0.02023430 -0.06530659 0.03059354
v 0.02309242 -0.06471398 0.03046160
v 0.02524553 -0.06418130 0.03034319
v -0.00169381 -0.06662666 0.03270118
v 0.00072289 -0.06663830 0.03252526
v 0.00254573 -0.06665995 0.03235611
v 0.00644865 -0.06658670 0.03196706
v 0.00746169 -0.06682308 0.03176069
v 0.00791582 -0.06711273 0.03151711
v 0.00917974 -0.06710441 0.03131075
v 0.01036427 -0.06690465 0.03125323
v 0.02857048 -0.06320082 0.03028906
v 0.02265100 -0.06492373 0.03035334
v 0.02380377 -0.06469567 0.03020110
v 0.02294951 -0.06497034 0.03007254
v 0.02382282 -0.06478889 0.02992707
v 0.02496925 -0.06449425 0.02978498
v 0.02933264 -0.06318418 0.02975115
v 0.03011386 -0.06291285 0.02987971
v 0.03074899 -0.06276303 0.02970379
v -0.00169381 -0.06532491 0.03210238
v 0.03074899 -0.05988154 0.02896628
v 0.01079299 -0.06719096 0.03085403
v 0.01206644 -0.06702617 0.03071194
v 0.01917362 -0.06569446 0.03042438
v 0.01955153 -0.06547972 0.03058339
v 0.02149505 -0.06512016 0.03047174
v -0.00169381 -0.06689966 0.03260307
v 0.00058633 -0.06694626 0.03238994
v 0.00387952 -0.06704281 0.03202795
v 0.00581986 -0.06693961 0.03187910
v 0.00428283 -0.06672653 0.03214298
v 0.00664554 -0.06717432 0.03163890
v 0.00677574 -0.06746896 0.03138179
v 0.00790629 -0.06745065 0.03120587
v 0.00875102 -0.06738406 0.03110099
v 0.02046612 -0.06547472 0.03028906
v 0.02217464 -0.06507188 0.03029244
v 0.02171735 -0.06525166 0.03012667
v 0.02079322 -0.06553465 0.02994399
v 0.02207302 -0.06525832 0.02983573
v 0.02289552 -0.06506689 0.02973424
v 0.02316228 -0.06505024 0.02945344
v 0.02405782 -0.06477890 0.02962598
v 0.02717635 -0.06401317 0.02879036
v 0.02755108 -0.06381841 0.02929782
v 0.02845297 -0.06349880 0.02955155
v 0.02957399 -0.06321414 0.02927414
v 0.03074899 -0.06278633 0.02958200
v -0.00169381 -0.06528496 0.03204825
v 0.03074899 -0.05960521 0.02862798
v 0.00974819 -0.06744732 0.03068826
v 0.00967515 -0.06732913 0.03094537
v 0.00686784 -0.06777359 0.03100289
v 0.01113278 -0.06725256 0.03055294
v 0.01326685 -0.06692629 0.03037702
v 0.01457840 -0.06667992 0.03038040
v 0.01829713 -0.06589588 0.03040070
v 0.01840193 -0.06600574 0.03012667
v -0.00169381 -0.06718597 0.03246437
v -0.00024887 -0.06741902 0.03218019
v 0.00346350 -0.06729417 0.03190278
v 0.00495290 -0.06740237 0.03167273
v -0.00169381 -0.06745065 0.03229860
v 0.00542925 -0.06775028 0.03132766
v 0.01953882 -0.06577935 0.03007254
v 0.01854801 -0.06606234 0.02980867
v 0.02095518 -0.06555796 0.02965304
v 0.02188566 -0.06536319 0.02947036
v 0.02289235 -0.06515511 0.02897643
v 0.02504229 -0.06465406 0.02832012
v 0.02598229 -0.06438772 0.02851634
v 0.03044413 -0.06301772 0.02877683
v 0.02755108 -0.06396989 0.02814758
v 0.02871338 -0.06361033 0.02830997
v 0.03074899 -0.06290452 0.02884111
v -0.00169381 -0.06525998 0.03199412
v 0.03074899 -0.05957525 0.02857047
v 0.00816034 -0.06764874 0.03081344
v 0.00909399 -0.06758382 0.03058339
v 0.00588973 -0.06793340 0.03097921
v 0.01420367 -0.06684139 0.03008269
v 0.01590584 -0.06656506 0.02999812
v 0.01743335 -0.06626542 0.02996767
v 0.00104998 -0.06763709 0.03190278
v -0.00152867 -0.06747229 0.03226815
v 0.00335236 -0.06780522 0.03153741
v -0.00169381 -0.06749227 0.03226477
v 0.00267276 -0.06804992 0.03136826
v 0.00408911 -0.06803660 0.03118896
v 0.01692206 -0.06640192 0.02975454
v 0.01770963 -0.06625877 0.02955155
v 0.01925936 -0.06593417 0.02958877
v 0.02051694 -0.06569779 0.02915573
v 0.02192377 -0.06542312 0.02820171
v 0.02406735 -0.06491208 0.02808669
v 0.02508675 -0.06465572 0.02750818
v 0.02653486 -0.06425954 0.02786341
v 0.03026947 -0.06314922 0.02795475
v 0.03074899 -0.06298609 0.02806977
v 0.03074899 -0.06294281 0.02853664
v 0.02830054 -0.06376514 0.02735595
v 0.02940568 -0.06343388 0.02762659
v -0.00169381 -0.06517176 0.03178099
v -0.00169381 -0.06509851 0.03154417
v 0.03074899 -0.05953696 0.02842838
v -0.00169063 -0.05547690 -0.00181619
v 0.00737595 -0.06780854 0.03067473
v 0.00842075 -0.06771200 0.03028568
v 0.00979582 -0.06752223 0.03018080
v 0.00305702 -0.06822470 0.03095891
v 0.00472425 -0.06808987 0.03086080
v 0.00602946 -0.06796503 0.03076945
v 0.00981170 -0.06755053 0.02983911
v 0.01362887 -0.06696291 0.02971394
v 0.01503253 -0.06674151 0.02965981
v -0.00043306 -0.06769036 0.03200089
v 0.00146917 -0.06789344 0.03166258
v -0.00169381 -0.06783352 0.03196368
v -0.00162394 -0.06785682 0.03193999
v 0.00150411 -0.06816811 0.03134796
v 0.00003376 -0.06799832 0.03168627
v 0.00166289 -0.06829961 0.03104010
v 0.01565179 -0.06665995 0.02897305
v 0.01747463 -0.06632702 0.02895952
v 0.01955153 -0.06591751 0.02888509
v 0.02051376 -0.06572109 0.02863474
v 0.02094883 -0.06564285 0.02795813
v 0.02243187 -0.06531658 0.02775176
v 0.02406100 -0.06489709 0.02605685
v 0.02523283 -0.06459912 0.02647973
v 0.02707473 -0.06408642 0.02513328
v 0.02987251 -0.06330237 0.02708868
v 0.03074899 -0.06299774 0.02786679
v 0.02918338 -0.06349380 0.02606362
v -0.00169381 -0.06493538 0.03095891
v 0.03074899 -0.05945872 0.02813067
v 0.03074264 -0.05154003 -0.00181619
v -0.00169063 -0.05941045 -0.00181619
v -0.00169381 -0.06144962 0.01180402
v -0.00169381 -0.06451423 0.02919971
v -0.00169381 -0.06457249 0.02951434
v -0.00169381 -0.06468901 0.03002518
v -0.00169381 -0.06470067 0.03007254
v -0.00169381 -0.06482385 0.03054955
v 0.00708696 -0.06788012 0.03030936
v 0.00773163 -0.06782020 0.02994737
v 0.00119606 -0.06836786 0.03091831
v 0.00202492 -0.06833624 0.03071194
v 0.00369850 -0.06820806 0.03065443
v 0.00518790 -0.06806823 0.03057324
v 0.00982440 -0.06756551 0.02924031
v 0.01089778 -0.06740737 0.02937902
v 0.01243482 -0.06717931 0.02897305
v -0.00169381 -0.06785516 0.03194338
v -0.00169381 -0.06805325 0.03171333
v -0.00085543 -0.06810652 0.03160507
v 0.00034498 -0.06822970 0.03134796
v 0.00047518 -0.06834623 0.03109761
v 0.01361617 -0.06699121 0.02853664
v 0.01614084 -0.06657505 0.02828629
v 0.01717294 -0.06639360 0.02856032
v 0.01773504 -0.06629372 0.02813743
v 0.01925936 -0.06598743 0.02841484
v 0.02028829 -0.06574106 0.02577606
v 0.02151728 -0.06547805 0.02566780
v 0.02273674 -0.06518674 0.02511298
v 0.02472790 -0.06467736 0.02413866
v 0.02637925 -0.06422458 0.02344174
v 0.02847520 -0.06366526 0.02409806
v 0.03074899 -0.06301605 0.02724092
v 0.03023453 -0.06315089 0.02426383
v 0.03074899 -0.06299108 0.02438562
v 0.03074899 -0.06299940 0.02512313
v 0.03074899 -0.06301439 0.02664212
v 0.03074899 -0.05929892 0.02744729
v 0.03074264 -0.05467954 -0.00181619
v 0.03074899 -0.05919904 0.02698043
v 0.03074899 -0.05915076 0.02675038
v 0.03074899 -0.05886944 0.02524830
v 0.03074899 -0.05864638 0.02397627
v 0.03074899 -0.05847658 0.02296473
v 0.03074899 -0.05665880 0.01180402
v -0.00165570 -0.05941045 -0.00181619
v -0.00169063 -0.05970342 -0.00138315
v -0.00169381 -0.06607067 0.01180402
v 0.00453053 -0.06814980 0.03037025
v 0.00664872 -0.06795004 0.02968688
v 0.00788406 -0.06781354 0.02927076
v -0.00010597 -0.06843278 0.03085741
v 0.00061174 -0.06843112 0.03059354
v 0.00209161 -0.06836287 0.03015712
v 0.00311100 -0.06828130 0.03033642
v 0.00847474 -0.06773696 0.02870579
v 0.01060245 -0.06745232 0.02853325
v 0.01297786 -0.06709442 0.02832012
v -0.00169381 -0.06815978 0.03152726
v -0.00169381 -0.06833457 0.03120587
v -0.00125556 -0.06832625 0.03120925
v -0.00169381 -0.06836620 0.03113483
v -0.00169381 -0.06845775 0.03088786
v -0.00148104 -0.06846275 0.03085741
v 0.01462922 -0.06677148 0.02628690
v 0.01674740 -0.06641525 0.02602979
v 0.01661719 -0.06647517 0.02752510
v 0.01793193 -0.06618552 0.02532949
v 0.01965632 -0.06582430 0.02434841
v 0.02112667 -0.06550136 0.02371577
v 0.02223181 -0.06526165 0.02383080
v 0.02385776 -0.06484882 0.02304593
v 0.02618553 -0.06421959 0.02224414
v 0.02795757 -0.06373851 0.02224752
v 0.02916115 -0.06341390 0.02259598
v 0.03074899 -0.06296944 0.02354324
v 0.02964386 -0.05500581 -0.00181619
v 0.03074899 -0.06134975 0.01180402
v 0.03074264 -0.05520723 -0.00105500
v 0.03066325 -0.05527715 -0.00099072
v 0.03013609 -0.05514231 -0.00142037
v -0.00096340 -0.05940545 -0.00181619
v -0.00013137 -0.05985158 -0.00114972
v -0.00111266 -0.06009295 -0.00079112
v -0.00169063 -0.05980829 -0.00122415
v -0.00169063 -0.06007630 -0.00081142
v -0.00169063 -0.06055738 -0.00006038
v -0.00169063 -0.06082039 0.00036589
v -0.00169063 -0.06089863 0.00049444
v -0.00169063 -0.06102515 0.00070758
v -0.00169063 -0.06142466 0.00140110
v -0.00169063 -0.06168101 0.00185782
v -0.00169063 -0.06218373 0.00277463
v -0.00169063 -0.06220703 0.00281861
v -0.00169063 -0.06274139 0.00386736
v -0.00169063 -0.06332401 0.00505481
v -0.00169063 -0.06362031 0.00569083
v -0.00169063 -0.06370189 0.00586674
v -0.00169063 -0.06408974 0.00671928
v -0.00169063 -0.06418796 0.00693917
v -0.00169063 -0.06457748 0.00784245
v -0.00169063 -0.06464240 0.00799469
v -0.00169063 -0.06467070 0.00806235
v -0.00169063 -0.06507188 0.00904344
v -0.00169063 -0.06509019 0.00909080
v -0.00169063 -0.06544809 0.01001776
v -0.00169063 -0.06552799 0.01023089
v -0.00169063 -0.06586425 0.01117815
v -0.00169063 -0.06596080 0.01145894
v -0.00136036 -0.06593750 0.01137437
v -0.00169381 -0.06614225 0.01203068
v 0.00436222 -0.06817477 0.02983235
v 0.00576588 -0.06804492 0.02938578
v 0.00616284 -0.06800165 0.02889524
v -0.00134448 -0.06849438 0.03062060
v -0.00059185 -0.06848439 0.03045821
v -0.00088401 -0.06851436 0.02994737
v 0.00048471 -0.06845276 0.02945683
v 0.00177721 -0.06836953 0.02920648
v 0.00326979 -0.06827298 0.02966658
v 0.00780467 -0.06778691 0.02803256
v 0.00920832 -0.06751058 0.02527875
v 0.00930359 -0.06759048 0.02768410
v 0.01126299 -0.06724756 0.02543099
v 0.01158691 -0.06725422 0.02675038
v 0.01358759 -0.06688467 0.02486601
v -0.00169381 -0.06846941 0.03083035
v -0.00169381 -0.06850103 0.03062398
v 0.01549935 -0.06658171 0.02483218
v 0.01739206 -0.06625544 0.02463597
v 0.01881159 -0.06597245 0.02399995
v 0.01980876 -0.06574106 0.02314742
v 0.02100282 -0.06543477 0.02209867
v 0.02203809 -0.06523335 0.02244374
v 0.02269228 -0.06512515 0.02309329
v 0.02352114 -0.06486047 0.02188215
v 0.02468979 -0.06457748 0.02184832
v 0.02669682 -0.06400485 0.02097211
v 0.02992649 -0.06311593 0.02119878
v 0.02886899 -0.06339559 0.02080972
v 0.03074899 -0.06291617 0.02224076
v 0.03074899 -0.06294114 0.02279558
v 0.02874196 -0.05526050 -0.00181619
v 0.03074899 -0.06138637 0.01194272
v 0.02992967 -0.06169100 0.01220322
v 0.02981217 -0.06161942 0.01180402
v 0.02964703 -0.06151954 0.01124581
v 0.03074264 -0.06107508 0.01080263
v 0.03074264 -0.06102681 0.01063686
v 0.03074264 -0.06079709 0.00987567
v 0.03074264 -0.06070720 0.00959149
v 0.03074264 -0.06050578 0.00900284
v 0.03074264 -0.06045750 0.00886414
v 0.03074264 -0.06044252 0.00882354
v 0.03074264 -0.06019449 0.00819429
v 0.03074264 -0.05997642 0.00766992
v 0.03074264 -0.05985324 0.00738912
v 0.03074264 -0.05965681 0.00694932
v 0.03074264 -0.05933387 0.00624226
v 0.03074264 -0.05901592 0.00556227
v 0.03074264 -0.05849822 0.00449322
v 0.03074264 -0.05832510 0.00414477
v 0.03074264 -0.05807374 0.00366099
v 0.03074264 -0.05769753 0.00299453
v 0.03074264 -0.05739623 0.00246339
v 0.03074264 -0.05719814 0.00212846
v 0.03074264 -0.05676700 0.00140110
v 0.03074264 -0.05627260 0.00059255
v 0.03074264 -0.05611113 0.00032867
v 0.03074264 -0.05598462 0.00013246
v 0.03074264 -0.05526050 -0.00097719
v 0.03055528 -0.05615940 0.00031514
v 0.02982805 -0.05611612 -0.00008406
v 0.02929771 -0.05585478 -0.00071669
v 0.02845932 -0.05553516 -0.00153201
v 0.00032910 -0.05939213 -0.00181619
v 0.00147552 -0.05983160 -0.00111251
v 0.00089120 -0.06036761 -0.00030734
v -0.00052198 -0.06050578 -0.00013142
v 0.00009093 -0.06078044 0.00032867
v -0.00029333 -0.06139136 0.00135036
v -0.00083637 -0.06187411 0.00220289
v -0.00165888 -0.06219039 0.00278478
v 0.00032910 -0.06262486 0.00367452
v -0.00029333 -0.06298775 0.00438496
v -0.00133496 -0.06331735 0.00504128
v 0.00073241 -0.06366526 0.00583630
v 0.00014174 -0.06412304 0.00681738
v -0.00041083 -0.06439604 0.00742295
v -0.00157313 -0.06466571 0.00804882
v -0.00163347 -0.06508353 0.00907050
v -0.00051245 -0.06527497 0.00955428
v -0.00133813 -0.06549636 0.01013955
v -0.00018218 -0.06568613 0.01067069
v -0.00013455 -0.06596912 0.01148939
v -0.00100786 -0.06607233 0.01180402
v -0.00056962 -0.06623879 0.01233854
v -0.00169381 -0.06630538 0.01256520
v 0.00484810 -0.06812982 0.02914220
v 0.00510851 -0.06801995 0.02695336
v 0.00717270 -0.06778524 0.02629705
v -0.00169381 -0.06851602 0.03047513
v -0.00169381 -0.06852434 0.03037025
v -0.00169381 -0.06853599 0.02996767
v -0.00158901 -0.06854099 0.02955155
v -0.00059185 -0.06850270 0.02925723
v 0.00088485 -0.06833124 0.02688570
v 0.00173593 -0.06829295 0.02719018
v 0.00392398 -0.06813149 0.02715973
v 0.00789676 -0.06758882 0.02381726
v 0.01040238 -0.06730083 0.02411836
v 0.01198704 -0.06709608 0.02427736
v 0.01403854 -0.06675150 0.02354324
v 0.01642348 -0.06636197 0.02334702
v 0.01818916 -0.06603737 0.02303239
v 0.01935781 -0.06576104 0.02209529
v 0.01984687 -0.06560956 0.02133748
v 0.02035815 -0.06543810 0.02057968
v 0.02225404 -0.06509185 0.02114803
v 0.02421026 -0.06461077 0.02080634
v 0.02518519 -0.06439770 0.02108713
v 0.02567107 -0.06420960 0.02032595
v 0.02763047 -0.06366693 0.01996734
v 0.03074899 -0.06286790 0.02130365
v 0.03031075 -0.06288621 0.01975759
v 0.03074899 -0.06283960 0.02087739
v 0.02797980 -0.05546691 -0.00181619
v 0.03074899 -0.06151122 0.01243665
v 0.03069501 -0.06175425 0.01339405
v 0.02930406 -0.06206887 0.01304560
v 0.02801791 -0.06217374 0.01203406
v 0.02803696 -0.06210882 0.01180402
v 0.02815128 -0.06171098 0.01042034
v 0.02938980 -0.06138470 0.01051169
v 0.02856095 -0.06142965 0.00985199
v 0.03063785 -0.06075048 0.00961856
v 0.02933581 -0.06097520 0.00915170
v 0.03037109 -0.06033599 0.00826534
v 0.03027582 -0.05977334 0.00690534
v 0.02913892 -0.06058901 0.00805220
v 0.02950413 -0.05957025 0.00603590
v 0.03001224 -0.05904589 0.00522058
v 0.03019325 -0.05852153 0.00425303
v 0.02920244 -0.05828681 0.00332268
v 0.02799568 -0.05805876 0.00233821
v 0.03017102 -0.05778076 0.00285920
v 0.03059021 -0.05732299 0.00226040
v 0.02975818 -0.05690516 0.00115414
v 0.02883406 -0.05677033 0.00051136
v 0.02870703 -0.05639079 -0.00014157
v 0.02762730 -0.05615940 -0.00094336
v 0.00056728 -0.05938547 -0.00181619
v 0.00212336 -0.05938214 -0.00174852
v 0.00317452 -0.05991983 -0.00088584
v 0.00249174 -0.06034930 -0.00025998
v 0.00185026 -0.06082039 0.00046061
v 0.00190424 -0.06109506 0.00092071
v 0.00128498 -0.06171431 0.00197622
v 0.00075147 -0.06215876 0.00278478
v 0.00278708 -0.06304435 0.00462178
v 0.00228850 -0.06245840 0.00342756
v 0.00243141 -0.06347216 0.00548784
v 0.00206303 -0.06391329 0.00642495
v 0.00116431 -0.06443266 0.00754813
v 0.00061174 -0.06470400 0.00816384
v 0.00005599 -0.06493039 0.00868822
v 0.00098012 -0.06548138 0.01014293
v 0.00059904 -0.06578601 0.01098193
v 0.00145647 -0.06585925 0.01126273
v 0.00094201 -0.06604736 0.01180402
v 0.00062127 -0.06616222 0.01213894
v 0.00036404 -0.06637363 0.01283585
v -0.00118252 -0.06656173 0.01345833
v -0.00169381 -0.06649348 0.01321814
v 0.00528635 -0.06789178 0.02464950
v 0.00639784 -0.06777858 0.02446681
v -0.00169381 -0.06854265 0.02959215
v -0.00169381 -0.06854265 0.02953802
v -0.00122381 -0.06851103 0.02890200
v 0.00012586 -0.06834123 0.02634103
v 0.00193917 -0.06819807 0.02563059
v 0.00217735 -0.06822970 0.02643575
v 0.00344763 -0.06806490 0.02508929
v 0.00728385 -0.06761212 0.02320155
v 0.00917974 -0.06732580 0.02216633
v 0.01123123 -0.06710108 0.02265687
v 0.01276509 -0.06691297 0.02307638
v 0.01511192 -0.06649681 0.02217648
v 0.01703321 -0.06619052 0.02227459
v 0.01746828 -0.06606067 0.02154385
v 0.01823362 -0.06586425 0.02083679
v 0.01857024 -0.06572109 0.02001470
v 0.01900213 -0.06555296 0.01923998
v 0.02085991 -0.06525666 0.01981849
v 0.02275897 -0.06491041 0.02039022
v 0.02470566 -0.06442101 0.02004515
v 0.02615695 -0.06400984 0.01957152
v 0.02676986 -0.06376181 0.01878665
v 0.02817351 -0.06344220 0.01922983
v 0.03074899 -0.06275970 0.01987600
v 0.02874514 -0.06319250 0.01845173
v 0.03053305 -0.06267813 0.01846188
v 0.03074899 -0.06261987 0.01852277
v 0.03074899 -0.06271475 0.01939560
v 0.02739865 -0.05562006 -0.00181619
v 0.03074899 -0.06172263 0.01332639
v 0.03074899 -0.06175259 0.01345833
v 0.03012656 -0.06208219 0.01415863
v 0.02867845 -0.06239847 0.01375266
v 0.02638560 -0.06259989 0.01207804
v 0.02649358 -0.06250667 0.01180402
v 0.02769399 -0.06219871 0.01180402
v 0.02670317 -0.06278300 0.01318431
v 0.02674763 -0.06227196 0.01113417
v 0.02726844 -0.06198231 0.01056243
v 0.02623317 -0.06212547 0.01012940
v 0.02773527 -0.06154451 0.00950015
v 0.02830372 -0.06113168 0.00880662
v 0.02894521 -0.06010793 0.00688843
v 0.02734148 -0.06134808 0.00874235
v 0.02814493 -0.06074216 0.00782892
v 0.02279708 -0.06058069 0.00468606
v 0.02324485 -0.06027106 0.00426994
v 0.02831324 -0.05911913 0.00450337
v 0.02306384 -0.05981995 0.00329224
v 0.02294951 -0.05942709 0.00252766
v 0.02578857 -0.05802047 0.00128608
v 0.02802743 -0.05770585 0.00172926
v 0.02881818 -0.05732798 0.00143494
v 0.02623952 -0.05735794 0.00037604
v 0.02690959 -0.05681028 -0.00022953
v 0.02750980 -0.05744118 0.00104588
v 0.02590925 -0.05667045 -0.00082495
v 0.02621411 -0.05599794 -0.00171131
v 0.00149140 -0.05935551 -0.00181619
v 0.00222181 -0.05933054 -0.00181619
v 0.00354290 -0.05927062 -0.00181619
v 0.00575952 -0.06038426 0.00002420
v 0.00444479 -0.06055239 0.00017982
v 0.00456547 -0.05977833 -0.00099410
v 0.00349526 -0.06101682 0.00085981
v 0.00314594 -0.06137472 0.00146200
v 0.00362864 -0.06153952 0.00177662
v 0.00267911 -0.06194569 0.00246677
v 0.00369533 -0.06266814 0.00391472
v 0.00410182 -0.06326741 0.00515292
v 0.00408911 -0.06219539 0.00302497
v 0.00346033 -0.06375016 0.00614754
v 0.00319992 -0.06415134 0.00702713
v 0.00247904 -0.06440103 0.00754474
v 0.00195505 -0.06480720 0.00847847
v 0.00165971 -0.06515678 0.00933438
v 0.00257431 -0.06527497 0.00972343
v 0.00196140 -0.06558958 0.01052522
v 0.00187566 -0.06602072 0.01180402
v 0.00274580 -0.06567115 0.01084323
v 0.00199316 -0.06628208 0.01269038
v 0.00136755 -0.06659835 0.01378987
v 0.00013856 -0.06671821 0.01413833
v -0.00169381 -0.06662333 0.01369515
v -0.00134131 -0.06686137 0.01463564
v -0.00169381 -0.06673153 0.01411803
v 0.00342857 -0.06795503 0.02336732
v 0.00546736 -0.06773696 0.02260951
v 0.00632797 -0.06767704 0.02283618
v -0.00169381 -0.06850603 0.02871255
v -0.00169381 -0.06841281 0.02665565
v -0.00089354 -0.06838451 0.02644252
v -0.00069029 -0.06827631 0.02481188
v 0.00010998 -0.06817643 0.02381726
v 0.00157080 -0.06811983 0.02407776
v 0.00743629 -0.06749559 0.02192275
v 0.00793487 -0.06736908 0.02113450
v 0.00886852 -0.06720428 0.02054246
v 0.01017055 -0.06709442 0.02099241
v 0.01213313 -0.06684139 0.02102962
v 0.01288259 -0.06680810 0.02186862
v 0.01430529 -0.06656007 0.02140176
v 0.01645206 -0.06615556 0.02065410
v 0.01708402 -0.06593250 0.01956814
v 0.01763341 -0.06574106 0.01879342
v 0.01953247 -0.06535154 0.01846526
v 0.02139978 -0.06505357 0.01904377
v 0.02325755 -0.06471731 0.01963242
v 0.02474377 -0.06431447 0.01914526
v 0.02575047 -0.06398820 0.01851601
v 0.02681750 -0.06363363 0.01788676
v 0.02779243 -0.06328572 0.01726428
v 0.02929771 -0.06293282 0.01767701
v 0.03074899 -0.06259323 0.01829611
v 0.02643641 -0.05586809 -0.00181619
v 0.03074899 -0.06193570 0.01432778
v 0.02958034 -0.06239181 0.01492320
v 0.03074899 -0.06212214 0.01526150
v 0.02811318 -0.06270976 0.01451723
v 0.02614425 -0.06309928 0.01396579
v 0.02620459 -0.06257825 0.01180402
v 0.02503594 -0.06319750 0.01320122
v 0.02558215 -0.06249669 0.01089736
v 0.02535668 -0.06218873 0.00968960
v 0.02665554 -0.06179420 0.00944602
v 0.02469296 -0.06257992 0.01043726
v 0.02565837 -0.06104512 0.00719629
v 0.02402924 -0.06209551 0.00873558
v 0.02271451 -0.06137805 0.00639450
v 0.02184755 -0.06062064 0.00435113
v 0.02250174 -0.06020781 0.00378616
v 0.02143153 -0.06125986 0.00553182
v 0.02232390 -0.05979165 0.00293025
v 0.02237153 -0.05908917 0.00173264
v 0.02374343 -0.05850988 0.00127931
v 0.02514073 -0.05745283 0.00009186
v 0.02422296 -0.05699505 -0.00093659
v 0.02536621 -0.05639745 -0.00142713
v 0.02500735 -0.05621267 -0.00181619
v 0.02609979 -0.05595132 -0.00181619
v 0.02621729 -0.05592303 -0.00181619
v 0.00488621 -0.05918738 -0.00181619
v 0.00582621 -0.05963517 -0.00109221
v 0.00669635 -0.06009128 -0.00033102
v 0.00729021 -0.06045917 0.00028131
v 0.00674716 -0.06083371 0.00081245
v 0.00547054 -0.06101849 0.00099175
v 0.00433682 -0.06114999 0.00113046
v 0.00469885 -0.06179420 0.00231791
v 0.00550865 -0.06135807 0.00157026
v 0.00536892 -0.06244009 0.00359671
v 0.00530540 -0.06300107 0.00469959
v 0.00491797 -0.06347882 0.00567729
v 0.00491479 -0.06386002 0.00652306
v 0.00431776 -0.06427785 0.00741957
v 0.00374296 -0.06462076 0.00818076
v 0.00313641 -0.06496201 0.00896563
v 0.00335871 -0.06536153 0.01004144
v 0.00212336 -0.06601074 0.01180402
v 0.00421932 -0.06537318 0.01020045
v 0.00355877 -0.06573108 0.01114432
v 0.00300621 -0.06600408 0.01191227
v 0.00334283 -0.06628873 0.01295426
v 0.00247904 -0.06651679 0.01364440
v 0.00268229 -0.06679478 0.01482847
v 0.00201857 -0.06693628 0.01532578
v -0.00002340 -0.06695792 0.01513633
v -0.00159854 -0.06707611 0.01556260
v -0.00169381 -0.06708276 0.01558966
v -0.00169381 -0.06687635 0.01469992
v 0.00094519 -0.06807489 0.02301548
v 0.00213289 -0.06795004 0.02231180
v 0.00451466 -0.06776527 0.02205807
v 0.00521648 -0.06757716 0.02066087
v 0.00639784 -0.06751557 0.02106007
v -0.00169381 -0.06840615 0.02653386
v -0.00169381 -0.06839783 0.02639516
v -0.00169381 -0.06828463 0.02466303
v -0.00109678 -0.06817810 0.02338085
v -0.00021712 -0.06806990 0.02243698
v 0.00752521 -0.06730083 0.02010605
v 0.00890028 -0.06709775 0.01964595
v 0.01065643 -0.06695459 0.02023122
v 0.01293975 -0.06662666 0.02005530
v 0.01479118 -0.06641525 0.02064057
v 0.01527388 -0.06626209 0.01988615
v 0.01576929 -0.06609230 0.01912834
v 0.01633138 -0.06589754 0.01834009
v 0.01772233 -0.06559957 0.01788676
v 0.02143153 -0.06492539 0.01813711
v 0.02005646 -0.06514013 0.01769731
v 0.02284471 -0.06468069 0.01857352
v 0.02432776 -0.06427452 0.01809651
v 0.02490891 -0.06402316 0.01730826
v 0.02637925 -0.06358869 0.01684478
v 0.02794169 -0.06309928 0.01634408
v 0.02985980 -0.06266148 0.01690905
v 0.03074899 -0.06243177 0.01714587
v 0.03043778 -0.06236851 0.01613095
v 0.02895473 -0.06271142 0.01570807
v 0.02752568 -0.06301938 0.01529533
v 0.03074899 -0.06220870 0.01573852
v 0.02558533 -0.06339726 0.01473713
v 0.02420391 -0.06363030 0.01428042
v 0.02490891 -0.06289120 0.01180402
v 0.02333377 -0.06355373 0.01305913
v 0.02435952 -0.06318085 0.01246710
v 0.02397526 -0.06294114 0.01117815
v 0.02437539 -0.06234687 0.00953737
v 0.02354654 -0.06276469 0.01024443
v 0.02302890 -0.06305933 0.01088382
v 0.02279073 -0.06227862 0.00852921
v 0.02139978 -0.06161775 0.00630993
v 0.02159032 -0.06214545 0.00761240
v 0.01984687 -0.06125653 0.00489242
v 0.01996119 -0.06085369 0.00411432
v 0.02157761 -0.06027606 0.00356965
v 0.01885923 -0.06174261 0.00554535
v 0.02008187 -0.05988820 0.00235175
v 0.02184437 -0.05957525 0.00238558
v 0.01962774 -0.06033599 0.00301144
v 0.02087896 -0.05915742 0.00136051
v 0.02163795 -0.05857979 0.00065007
v 0.02297492 -0.05848491 0.00095116
v 0.02387999 -0.05770419 0.00002758
v 0.02246363 -0.05796221 -0.00005361
v 0.02220005 -0.05735462 -0.00105500
v 0.02308606 -0.05690683 -0.00143728
v 0.02451195 -0.05632587 -0.00181619
v 0.00594054 -0.05911913 -0.00181619
v 0.00664554 -0.05926229 -0.00154892
v 0.00752203 -0.05966846 -0.00087569
v 0.00798568 -0.06056570 0.00051813
v 0.00700757 -0.06108507 0.00125225
v 0.00608344 -0.06124987 0.00143155
v 0.00651216 -0.06214378 0.00314000
v 0.00694406 -0.06168933 0.00233145
v 0.00683926 -0.06270144 0.00428686
v 0.00616284 -0.06313757 0.00509202
v 0.00552135 -0.06352044 0.00583630
v 0.00625176 -0.06404314 0.00714554
v 0.00571189 -0.06437107 0.00783230
v 0.00637878 -0.06360367 0.00614416
v 0.00451783 -0.06471065 0.00850215
v 0.00393033 -0.06504525 0.00927687
v 0.00501959 -0.06546806 0.01063348
v 0.00533716 -0.06477724 0.00879986
v 0.00559439 -0.06515678 0.00986214
v 0.00436857 -0.06578101 0.01145218
v 0.00388269 -0.06603737 0.01219307
v 0.00376519 -0.06592584 0.01180402
v 0.00414310 -0.06632868 0.01327227
v 0.00468614 -0.06607566 0.01250431
v 0.00363499 -0.06655341 0.01403007
v 0.00390810 -0.06678812 0.01511942
v 0.00298080 -0.06706612 0.01617493
v 0.00094201 -0.06717266 0.01626627
v -0.00058232 -0.06714103 0.01592797
v -0.00135083 -0.06729917 0.01663841
v -0.00169381 -0.06729917 0.01664518
v 0.00079910 -0.06796669 0.02176375
v 0.00125323 -0.06783851 0.02071161
v 0.00280931 -0.06773696 0.02057629
v 0.00361594 -0.06775195 0.02122922
v 0.00420661 -0.06757383 0.01996734
v 0.00580716 -0.06738739 0.01948695
v -0.00169381 -0.06814980 0.02288016
v -0.00169381 -0.06812982 0.02265687
v -0.00083320 -0.06793839 0.02098903
v 0.00713460 -0.06720595 0.01904715
v 0.00938616 -0.06694127 0.01888138
v 0.01114549 -0.06680144 0.01947003
v 0.01343198 -0.06646685 0.01929073
v 0.01393056 -0.06629539 0.01852616
v 0.01441644 -0.06611228 0.01775144
v 0.01607098 -0.06579267 0.01736239
v 0.01644253 -0.06559624 0.01653692
v 0.01822409 -0.06538983 0.01711542
v 0.02058998 -0.06491041 0.01692597
v 0.02246045 -0.06461244 0.01750786
v 0.01920538 -0.06510517 0.01649294
v 0.02300032 -0.06437107 0.01673990
v 0.02448019 -0.06395158 0.01625951
v 0.02600135 -0.06349713 0.01577573
v 0.03074899 -0.06228861 0.01621214
v 0.02409276 -0.06384504 0.01519723
v 0.02222228 -0.06414135 0.01461534
v 0.02280661 -0.06385003 0.01384400
v 0.02347350 -0.06330403 0.01216262
v 0.02365769 -0.06317253 0.01180402
v 0.02190153 -0.06376514 0.01267346
v 0.02254620 -0.06342888 0.01187506
v 0.02321944 -0.06255994 0.00945956
v 0.02202221 -0.06331069 0.01106313
v 0.02169194 -0.06319417 0.01049139
v 0.02199363 -0.06288122 0.00972343
v 0.02236201 -0.06266814 0.00929717
v 0.02250174 -0.06341889 0.01180402
v 0.02158714 -0.06354873 0.01160103
v 0.02149505 -0.06252998 0.00852245
v 0.01986910 -0.06217041 0.00690534
v 0.01950389 -0.06247837 0.00749400
v 0.01777314 -0.06136640 0.00435452
v 0.01836065 -0.06092859 0.00369482
v 0.01844956 -0.06226197 0.00655689
v 0.01677915 -0.06220038 0.00577879
v 0.01675375 -0.06171431 0.00471989
v 0.01797639 -0.06033266 0.00246677
v 0.01798274 -0.05987155 0.00167175
v 0.01954835 -0.05960854 0.00170558
v 0.01764294 -0.06070886 0.00304189
v 0.01694747 -0.05977334 0.00119812
v 0.01962774 -0.05884280 0.00046738
v 0.02033592 -0.05816863 -0.00038515
v 0.02110761 -0.05754605 -0.00109898
v 0.02205397 -0.05686355 -0.00181619
v 0.02321944 -0.05661552 -0.00181619
v 0.00655345 -0.05907918 -0.00181619
v 0.00820798 -0.05926063 -0.00137977
v 0.00756014 -0.05900094 -0.00181619
v 0.00941156 -0.05987821 -0.00033102
v 0.00884312 -0.06042587 0.00040987
v 0.00870339 -0.06072384 0.00086320
v 0.00810636 -0.06118828 0.00158041
v 0.00829372 -0.06172096 0.00258518
v 0.00799838 -0.06236185 0.00377601
v 0.00753156 -0.06284959 0.00469621
v 0.00716953 -0.06321747 0.00541341
v 0.00770940 -0.06370854 0.00662793
v 0.00754426 -0.06415633 0.00766315
v 0.00649311 -0.06464906 0.00867807
v 0.00638196 -0.06520672 0.01018691
v 0.00617554 -0.06554131 0.01113079
v 0.00521648 -0.06581264 0.01174650
v 0.00695358 -0.06488544 0.00941896
v 0.00522919 -0.06582929 0.01180402
v 0.00550229 -0.06610396 0.01281555
v 0.00500371 -0.06634367 0.01356321
v 0.00604216 -0.06583928 0.01205098
v 0.00445749 -0.06657338 0.01433793
v 0.00507358 -0.06679645 0.01554230
v 0.00455912 -0.06698122 0.01626966
v 0.00269499 -0.06718597 0.01671284
v 0.00151998 -0.06733412 0.01724736
v 0.00018620 -0.06743067 0.01754507
v -0.00141752 -0.06756051 0.01811342
v -0.00169381 -0.06752389 0.01788676
v -0.00169381 -0.06736409 0.01699025
v -0.00031239 -0.06779357 0.01986247
v 0.00084356 -0.06767704 0.01925690
v 0.00275533 -0.06761212 0.01952078
v 0.00421932 -0.06744899 0.01901670
v 0.00544831 -0.06727420 0.01843820
v -0.00169381 -0.06809653 0.02233887
v -0.00169381 -0.06793672 0.02082664
v -0.00169381 -0.06792341 0.02071161
v 0.00762048 -0.06704947 0.01828934
v 0.01163772 -0.06663830 0.01871223
v 0.00988474 -0.06677148 0.01811342
v 0.01214583 -0.06646019 0.01794427
v 0.01265394 -0.06627208 0.01718647
v 0.01451171 -0.06595414 0.01686169
v 0.01502618 -0.06574106 0.01609374
v 0.01598523 -0.06547139 0.01547125
v 0.01783666 -0.06527330 0.01605314
v 0.02110761 -0.06467570 0.01616478
v 0.01928795 -0.06492040 0.01556936
v 0.02305748 -0.06419628 0.01582986
v 0.02078369 -0.06434943 0.01420937
v 0.02162843 -0.06442434 0.01540021
v 0.02132356 -0.06406810 0.01344480
v 0.02098694 -0.06386335 0.01232839
v 0.02045025 -0.06416964 0.01314033
v 0.02141883 -0.06363696 0.01180402
v 0.02066937 -0.06367525 0.01143188
v 0.02027558 -0.06343887 0.01045418
v 0.02108538 -0.06294281 0.00942911
v 0.02034862 -0.06293781 0.00906374
v 0.02043754 -0.06382340 0.01180402
v 0.01939592 -0.06300939 0.00881001
v 0.01721105 -0.06279798 0.00734514
v 0.01711578 -0.06319417 0.00828225
v 0.01627422 -0.06134975 0.00381999
v 0.01646476 -0.06095856 0.00313323
v 0.01607415 -0.06274305 0.00676664
v 0.01473084 -0.06272973 0.00626595
v 0.01449901 -0.06272640 0.00617799
v 0.01503253 -0.06218373 0.00514615
v 0.01521672 -0.06183582 0.00447292
v 0.01506746 -0.06078710 0.00239234
v 0.01583598 -0.06034763 0.00184429
v 0.01389881 -0.06032433 0.00125902
v 0.01473084 -0.05985823 0.00072788
v 0.01481023 -0.05981329 0.00067713
v 0.01761436 -0.05923566 0.00051474
v 0.01787159 -0.05868300 -0.00027689
v 0.01924031 -0.05765925 -0.00145082
v 0.02065349 -0.05713822 -0.00181619
v 0.02177133 -0.05692014 -0.00181619
v 0.00836994 -0.05893269 -0.00181619
v 0.00908447 -0.05886444 -0.00181619
v 0.00994508 -0.05923233 -0.00118694
v 0.01086920 -0.05975336 -0.00028366
v 0.01041508 -0.06031101 0.00047076
v 0.01092001 -0.06051576 0.00088350
v 0.01014197 -0.06082372 0.00125902
v 0.00895109 -0.06125153 0.00182737
v 0.00884629 -0.06197399 0.00315691
v 0.00957987 -0.06142799 0.00225364
v 0.00938298 -0.06223700 0.00377940
v 0.00876055 -0.06288621 0.00500406
v 0.00882406 -0.06342555 0.00621858
v 0.00929406 -0.06382506 0.00725718
v 0.00902095 -0.06421126 0.00814693
v 0.00805237 -0.06454918 0.00877618
v 0.00728703 -0.06521671 0.01044741
v 0.00780149 -0.06491540 0.00971328
v 0.00834136 -0.06526997 0.01090412
v 0.00778879 -0.06560789 0.01180402
v 0.00608027 -0.06575938 0.01180402
v 0.00634703 -0.06611395 0.01311326
v 0.00729338 -0.06585093 0.01247386
v 0.00617872 -0.06635865 0.01400639
v 0.00580081 -0.06658004 0.01482509
v 0.00648358 -0.06676648 0.01600578
v 0.00640419 -0.06694293 0.01691244
v 0.00448608 -0.06714602 0.01716617
v 0.00275533 -0.06728751 0.01733532
v 0.00167559 -0.06749892 0.01830964
v 0.00010045 -0.06761212 0.01865810
v -0.00123969 -0.06769868 0.01902685
v -0.00169381 -0.06773696 0.01926028
v -0.00169381 -0.06757217 0.01818447
v -0.00169381 -0.06780355 0.01977112
v 0.00343492 -0.06740071 0.01829949
v 0.00590561 -0.06711772 0.01768039
v 0.00812541 -0.06687635 0.01752139
v 0.00953224 -0.06664163 0.01705114
v 0.01084380 -0.06655674 0.01749771
v 0.01091049 -0.06639360 0.01658428
v 0.01318745 -0.06606567 0.01641175
v 0.01370509 -0.06584760 0.01564041
v 0.01420367 -0.06561788 0.01487584
v 0.01655051 -0.06522170 0.01471007
v 0.01791287 -0.06508353 0.01514648
v 0.01980876 -0.06466737 0.01480479
v 0.01987862 -0.06445930 0.01391166
v 0.02027241 -0.06392661 0.01206790
v 0.01950707 -0.06427785 0.01286291
v 0.01903072 -0.06454419 0.01360042
v 0.01905930 -0.06406810 0.01180402
v 0.01901166 -0.06404480 0.01169576
v 0.01966585 -0.06367358 0.01085338
v 0.01733490 -0.06388333 0.01027487
v 0.01970714 -0.06333566 0.00985876
v 0.01884017 -0.06338227 0.00955766
v 0.01704591 -0.06349214 0.00904006
v 0.01560097 -0.06311094 0.00747032
v 0.01557239 -0.06353542 0.00853260
v 0.01414969 -0.06171930 0.00390119
v 0.01460699 -0.06126319 0.00314000
v 0.01473084 -0.06124321 0.00314000
v 0.01372097 -0.06320249 0.00703052
v 0.01207914 -0.06303769 0.00614416
v 0.01278414 -0.06263152 0.00543710
v 0.01333989 -0.06221869 0.00470297
v 0.01296833 -0.06113335 0.00243294
v 0.01424496 -0.06065892 0.00192210
v 0.01312712 -0.06080042 0.00186797
v 0.01213630 -0.06051909 0.00113046
v 0.01298421 -0.06018284 0.00079554
v 0.01473084 -0.05980330 0.00063992
v 0.01546760 -0.05928559 0.00002420
v 0.01611861 -0.05874126 -0.00063888
v 0.01772233 -0.05793391 -0.00143390
v 0.01898308 -0.05744950 -0.00181619
v 0.01962774 -0.05733297 -0.00181619
v 0.00984981 -0.05878954 -0.00181619
v 0.01067231 -0.05888941 -0.00156246
v 0.01186002 -0.05950033 -0.00047649
v 0.01141860 -0.06012458 0.00036250
v 0.01122488 -0.06089697 0.00159394
v 0.01218076 -0.06023943 0.00069405
v 0.01070407 -0.06130980 0.00224349
v 0.01003082 -0.06179587 0.00303851
v 0.00992602 -0.06247504 0.00438496
v 0.01067866 -0.06198897 0.00355950
v 0.01039603 -0.06291950 0.00544386
v 0.01111691 -0.06346218 0.00686136
v 0.01081522 -0.06386502 0.00775788
v 0.01032934 -0.06428617 0.00870175
v 0.00985933 -0.06455584 0.00928025
v 0.00919244 -0.06495369 0.01021736
v 0.01027853 -0.06498033 0.01064024
v 0.00973548 -0.06528163 0.01139467
v 0.00785865 -0.06560124 0.01180402
v 0.00716953 -0.06611894 0.01342789
v 0.00962751 -0.06558292 0.01237237
v 0.00860494 -0.06584760 0.01294073
v 0.00796663 -0.06632868 0.01462211
v 0.00850332 -0.06609230 0.01385753
v 0.00740771 -0.06655341 0.01539344
v 0.00776021 -0.06672986 0.01646249
v 0.00916386 -0.06648849 0.01598886
v 0.01142812 -0.06618552 0.01581633
v 0.01194258 -0.06596579 0.01505852
v 0.01292705 -0.06570111 0.01443942
v 0.01474672 -0.06537318 0.01412480
v 0.01708402 -0.06496368 0.01394549
v 0.01844004 -0.06482718 0.01438191
v 0.01823997 -0.06439937 0.01247725
v 0.01810977 -0.06463575 0.01331624
v 0.01890369 -0.06409474 0.01180402
v 0.01722693 -0.06428950 0.01149616
v 0.01662990 -0.06414301 0.01071805
v 0.01581692 -0.06427285 0.01072144
v 0.01629010 -0.06390164 0.00983508
v 0.01515003 -0.06390164 0.00934115
v 0.01437198 -0.06356372 0.00814016
v 0.01473084 -0.06391163 0.00920244
v 0.01177110 -0.06207053 0.00397561
v 0.01250468 -0.06158945 0.00320089
v 0.01310171 -0.06353542 0.00763270
v 0.01126934 -0.06247504 0.00469959
v 0.01125981 -0.06155450 0.00283214
v 0.01195846 -0.06105178 0.00203712
v 0.01375590 -0.05963517 0.00013246
v 0.01473084 -0.05943708 0.00007156
v 0.01511509 -0.05876456 -0.00085201
v 0.01624246 -0.05791227 -0.00181619
v 0.01718247 -0.05775746 -0.00181619
v 0.01801767 -0.05761597 -0.00181619
v 0.01051670 -0.05872129 -0.00181619
v 0.01224110 -0.05885945 -0.00132564
v 0.01092001 -0.05867634 -0.00181619
v 0.01174252 -0.05857313 -0.00181619
v 0.01297786 -0.05950700 -0.00023968
v 0.01182826 -0.06408309 0.00861717
v 0.01090414 -0.06463741 0.00984522
v 0.01154562 -0.06499031 0.01113079
v 0.01200610 -0.06464074 0.01023089
v 0.01101846 -0.06526165 0.01180402
v 0.01085968 -0.06527996 0.01180402
v 0.00968785 -0.06540814 0.01180402
v 0.01098353 -0.06527996 0.01185138
v 0.01081204 -0.06556461 0.01279864
v 0.00990062 -0.06583262 0.01342450
v 0.01019278 -0.06604902 0.01446310
v 0.00968785 -0.06627375 0.01522767
v 0.01158691 -0.06577436 0.01400301
v 0.01345739 -0.06544975 0.01367485
v 0.01529611 -0.06510351 0.01335007
v 0.01717611 -0.06472397 0.01303545
v 0.01587408 -0.06482385 0.01261933
v 0.01662355 -0.06447760 0.01180402
v 0.01754449 -0.06432446 0.01180402
v 0.01660449 -0.06446928 0.01176342
v 0.01508969 -0.06459080 0.01138790
v 0.01473084 -0.06460578 0.01126273
v 0.01374637 -0.06464240 0.01092442
v 0.01447678 -0.06428284 0.01014293
v 0.01347327 -0.06393493 0.00878294
v 0.01273333 -0.06433112 0.00960164
v 0.01473084 -0.05870963 -0.00101778
v 0.01557557 -0.05801714 -0.00181619
v 0.01406077 -0.05861142 -0.00130873
v 0.01219981 -0.05851321 -0.00181619
v 0.01284130 -0.05842831 -0.00181619
v 0.01280955 -0.06496201 0.01155367
v 0.01262853 -0.06506023 0.01180402
v 0.01224745 -0.06525666 0.01232162
v 0.01217441 -0.06550968 0.01323167
v 0.01361935 -0.06519673 0.01276819
v 0.01415604 -0.06490542 0.01197994
v 0.01443550 -0.06481220 0.01180402
v 0.01408935 -0.06486214 0.01180402
v 0.01473084 -0.05814865 -0.00181619
v 0.01321603 -0.05837338 -0.00181619
v 0.01432117 -0.05821024 -0.00181619
v 0.01360347 -0.06492872 0.01180402
f 1 2 3
f 1 3 4
f 1 4 10
f 1 10 28
f 1 28 54
f 1 54 83
f 1 83 110
f 1 110 135
f 1 135 134
f 1 134 168
f 1 168 205
f 1 205 209
f 1 209 208
f 1 208 207
f 1 207 248
f 1 248 314
f 1 314 313
f 1 313 396
f 1 396 398
f 1 398 472
f 1 472 476
f 1 476 475
f 1 475 562
f 1 562 646
f 1 646 733
f 1 733 650
f 1 650 566
f 1 566 564
f 1 564 479
f 1 479 478
f 1 478 400
f 1 400 316
f 1 316 250
f 1 250 217
f 1 217 216
f 1 216 215
f 1 215 214
f 1 214 213
f 1 213 212
f 1 212 210
f 1 210 171
f 1 171 140
f 1 140 112
f 1 112 85
f 1 85 56
f 1 56 32
f 1 32 31
f 1 31 29
f 1 29 12
f 1 12 11
f 1 11 6
f 1 6 5
f 1 5 2
f 2 5 6
f 2 6 7
f 2 7 8
f 2 8 3
f 3 8 9
f 3 9 4
f 4 9 10
f 6 11 7
f 7 11 12
f 7 12 13
f 7 13 14
f 7 14 8
f 8 15 16
f 8 16 17
f 8 17 18
f 8 18 19
f 8 19 9
f 8 14 20
f 8 20 21
f 8 21 22
f 8 22 23
f 8 23 15
f 9 19 24
f 9 24 25
f 9 25 26
f 9 26 10
f 10 26 27
f 10 27 28
f 12 29 13
f 13 30 55
f 13 55 84
f 13 84 111
f 13 111 138
f 13 138 139
f 13 139 170
f 13 170 179
f 13 179 178
f 13 178 177
f 13 177 176
f 13 176 175
f 13 175 174
f 13 174 220
f 13 220 283
f 13 283 370
f 13 370 446
f 13 446 532
f 13 532 534
f 13 534 618
f 13 618 617
f 13 617 708
f 13 708 796
f 13 796 795
f 13 795 881
f 13 881 880
f 13 880 882
f 13 882 804
f 13 804 803
f 13 803 802
f 13 802 716
f 13 716 715
f 13 715 626
f 13 626 625
f 13 625 624
f 13 624 539
f 13 539 538
f 13 538 450
f 13 450 449
f 13 449 376
f 13 376 375
f 13 375 374
f 13 374 300
f 13 300 299
f 13 299 235
f 13 235 234
f 13 234 232
f 13 232 231
f 13 231 190
f 13 190 189
f 13 189 153
f 13 153 122
f 13 122 98
f 13 98 94
f 13 94 62
f 13 62 38
f 13 38 33
f 13 33 14
f 13 29 31
f 13 31 32
f 13 32 30
f 14 33 20
f 15 34 16
f 15 23 34
f 16 34 35
f 16 35 18
f 16 18 17
f 18 35 36
f 18 36 37
f 18 37 24
f 18 24 19
f 20 38 39
f 20 39 21
f 20 33 38
f 21 39 40
f 21 40 22
f 22 40 41
f 22 41 42
f 22 42 23
f 23 42 43
f 23 43 44
f 23 44 45
f 23 45 34
f 24 37 46
f 24 46 26
f 24 26 25
f 26 46 27
f 27 46 37
f 27 37 36
f 27 36 47
f 27 47 48
f 27 48 49
f 27 49 50
f 27 50 51
f 27 51 52
f 27 52 53
f 27 53 28
f 28 53 54
f 30 32 56
f 30 56 55
f 34 45 57
f 34 57 58
f 34 58 59
f 34 59 60
f 34 60 35
f 35 60 61
f 35 61 36
f 36 61 47
f 38 62 39
f 39 62 63
f 39 63 40
f 40 63 64
f 40 64 65
f 40 65 66
f 40 66 41
f 41 66 42
f 42 67 43
f 42 66 65
f 42 65 67
f 43 68 44
f 43 67 68
f 44 68 69
f 44 69 70
f 44 70 57
f 44 57 45
f 47 71 72
f 47 72 49
f 47 49 48
f 47 61 59
f 47 59 71
f 49 72 73
f 49 73 74
f 49 74 75
f 49 75 50
f 50 75 76
f 50 76 77
f 50 77 78
f 50 78 51
f 51 78 79
f 51 79 80
f 51 80 81
f 51 81 52
f 52 81 54
f 52 54 53
f 54 81 82
f 54 82 83
f 55 56 85
f 55 85 84
f 57 86 58
f 57 70 87
f 57 87 88
f 57 88 86
f 58 86 89
f 58 89 90
f 58 90 91
f 58 91 92
f 58 92 59
f 59 61 60
f 59 92 93
f 59 93 71
f 62 94 63
f 63 94 64
f 64 95 96
f 64 96 97
f 64 97 67
f 64 67 65
f 64 94 98
f 64 98 95
f 67 97 99
f 67 99 68
f 68 99 69
f 69 88 70
f 69 99 88
f 70 88 87
f 71 93 100
f 71 100 73
f 71 73 72
f 73 100 74
f 74 101 102
f 74 102 75
f 74 100 101
f 75 102 103
f 75 103 77
f 75 77 76
f 77 103 104
f 77 104 105
f 77 105 106
f 77 106 78
f 78 106 79
f 79 107 82
f 79 82 80
f 79 106 108
f 79 108 109
f 79 109 107
f 80 82 81
f 82 107 83
f 83 107 110
f 84 85 112
f 84 112 111
f 86 88 113
f 86 113 114
f 86 114 89
f 88 115 113
f 88 99 115
f 89 114 116
f 89 116 90
f 90 116 117
f 90 117 91
f 91 93 92
f 91 117 93
f 93 117 118
f 93 118 100
f 95 119 96
f 95 98 120
f 95 120 119
f 96 119 97
f 97 121 99
f 97 119 121
f 98 122 120
f 99 121 123
f 99 123 124
f 99 124 115
f 100 118 101
f 101 118 125
f 101 125 126
f 101 126 127
f 101 127 102
f 102 127 128
f 102 128 103
f 103 128 129
f 103 129 104
f 104 129 130
f 104 130 105
f 105 130 131
f 105 131 132
f 105 132 108
f 105 108 106
f 107 109 133
f 107 133 134
f 107 134 135
f 107 135 110
f 108 132 136
f 108 136 137
f 108 137 109
f 109 137 133
f 111 112 138
f 112 139 138
f 112 140 141
f 112 141 139
f 113 115 114
f 114 115 142
f 114 142 143
f 114 143 144
f 114 144 116
f 115 124 145
f 115 145 146
f 115 146 147
f 115 147 142
f 116 144 148
f 116 148 149
f 116 149 150
f 116 150 117
f 117 150 125
f 117 125 118
f 119 120 151
f 119 151 152
f 119 152 121
f 120 122 151
f 121 152 123
f 122 153 154
f 122 154 151
f 123 155 124
f 123 152 156
f 123 156 155
f 124 157 145
f 124 155 157
f 125 150 158
f 125 158 159
f 125 159 126
f 126 159 160
f 126 160 127
f 127 160 128
f 128 160 161
f 128 161 129
f 129 162 163
f 129 163 130
f 129 161 162
f 130 163 131
f 131 163 164
f 131 164 165
f 131 165 166
f 131 166 132
f 132 166 136
f 133 137 167
f 133 167 168
f 133 168 134
f 136 167 137
f 136 166 169
f 136 169 167
f 139 141 170
f 140 171 172
f 140 172 141
f 141 172 211
f 141 211 249
f 141 249 315
f 141 315 399
f 141 399 477
f 141 477 563
f 141 563 589
f 141 589 588
f 141 588 587
f 141 587 677
f 141 677 765
f 141 765 764
f 141 764 847
f 141 847 846
f 141 846 925
f 141 925 924
f 141 924 980
f 141 980 979
f 141 979 978
f 141 978 1013
f 141 1013 1025
f 141 1025 1027
f 141 1027 1026
f 141 1026 1016
f 141 1016 1015
f 141 1015 984
f 141 984 983
f 141 983 981
f 141 981 926
f 141 926 849
f 141 849 848
f 141 848 768
f 141 768 766
f 141 766 678
f 141 678 590
f 141 590 509
f 141 509 508
f 141 508 507
f 141 507 424
f 141 424 348
f 141 348 254
f 141 254 218
f 141 218 173
f 141 173 220
f 141 220 174
f 141 174 175
f 141 175 176
f 141 176 177
f 141 177 178
f 141 178 179
f 141 179 170
f 142 147 180
f 142 180 143
f 143 180 181
f 143 181 148
f 143 148 144
f 145 157 182
f 145 182 183
f 145 183 184
f 145 184 146
f 146 184 185
f 146 185 147
f 147 185 180
f 148 181 186
f 148 186 187
f 148 187 149
f 149 187 188
f 149 188 150
f 150 188 158
f 151 154 156
f 151 156 152
f 153 189 154
f 154 189 190
f 154 190 156
f 155 156 191
f 155 191 192
f 155 192 193
f 155 193 157
f 156 190 191
f 157 193 182
f 158 188 194
f 158 194 195
f 158 195 196
f 158 196 159
f 159 196 197
f 159 197 198
f 159 198 160
f 160 198 161
f 161 198 162
f 162 198 197
f 162 197 199
f 162 199 200
f 162 200 163
f 163 200 201
f 163 201 164
f 164 201 202
f 164 202 166
f 164 166 165
f 166 202 203
f 166 203 204
f 166 204 169
f 167 205 168
f 167 169 206
f 167 206 207
f 167 207 208
f 167 208 209
f 167 209 205
f 169 204 206
f 171 210 172
f 172 210 212
f 172 212 213
f 172 213 214
f 172 214 215
f 172 215 216
f 172 216 217
f 172 217 250
f 172 250 211
f 173 218 219
f 173 219 220
f 180 185 221
f 180 221 222
f 180 222 181
f 181 222 223
f 181 223 186
f 182 193 224
f 182 224 225
f 182 225 183
f 183 225 226
f 183 226 227
f 183 227 184
f 184 227 221
f 184 221 185
f 186 223 228
f 186 228 229
f 186 229 187
f 187 229 188
f 188 229 230
f 188 230 194
f 190 231 191
f 191 231 232
f 191 232 192
f 192 232 233
f 192 233 193
f 193 233 234
f 193 234 235
f 193 235 236
f 193 236 224
f 194 230 195
f 195 230 237
f 195 237 238
f 195 238 239
f 195 239 197
f 195 197 196
f 197 239 238
f 197 238 240
f 197 240 199
f 199 240 241
f 199 241 242
f 199 242 200
f 200 242 243
f 200 243 201
f 201 243 244
f 201 244 202
f 202 244 245
f 202 245 203
f 203 245 246
f 203 246 204
f 204 246 247
f 204 247 206
f 206 248 207
f 206 247 248
f 211 250 251
f 211 251 252
f 211 252 253
f 211 253 249
f 218 254 255
f 218 255 219
f 219 255 256
f 219 256 257
f 219 257 220
f 220 257 258
f 220 258 259
f 220 259 260
f 220 260 261
f 220 261 262
f 220 262 263
f 220 263 264
f 220 264 265
f 220 265 266
f 220 266 267
f 220 267 268
f 220 268 269
f 220 269 270
f 220 270 271
f 220 271 272
f 220 272 273
f 220 273 274
f 220 274 275
f 220 275 276
f 220 276 277
f 220 277 278
f 220 278 279
f 220 279 280
f 220 280 281
f 220 281 282
f 220 282 283
f 221 227 284
f 221 284 285
f 221 285 222
f 222 285 286
f 222 286 223
f 223 286 228
f 224 236 287
f 224 287 288
f 224 288 225
f 225 288 289
f 225 289 290
f 225 290 226
f 226 290 291
f 226 291 292
f 226 292 227
f 227 292 284
f 228 286 293
f 228 293 294
f 228 294 295
f 228 295 229
f 229 295 296
f 229 296 297
f 229 297 230
f 230 297 298
f 230 298 237
f 232 234 233
f 235 299 236
f 236 299 300
f 236 300 287
f 237 298 301
f 237 301 238
f 238 301 302
f 238 302 240
f 240 302 303
f 240 303 241
f 241 303 304
f 241 304 242
f 242 304 305
f 242 305 306
f 242 306 307
f 242 307 243
f 243 307 244
f 244 307 308
f 244 308 309
f 244 309 245
f 245 309 310
f 245 310 246
f 246 311 247
f 246 310 312
f 246 312 311
f 247 311 313
f 247 313 314
f 247 314 248
f 249 253 315
f 250 316 317
f 250 317 318
f 250 318 319
f 250 319 320
f 250 320 321
f 250 321 322
f 250 322 323
f 250 323 324
f 250 324 325
f 250 325 326
f 250 326 327
f 250 327 328
f 250 328 329
f 250 329 330
f 250 330 331
f 250 331 332
f 250 332 333
f 250 333 334
f 250 334 335
f 250 335 336
f 250 336 337
f 250 337 338
f 250 338 339
f 250 339 340
f 250 340 341
f 250 341 342
f 250 342 343
f 250 343 251
f 251 343 252
f 252 343 342
f 252 342 344
f 252 344 345
f 252 345 346
f 252 346 253
f 253 347 315
f 253 346 347
f 254 348 255
f 255 348 349
f 255 349 350
f 255 350 351
f 255 351 256
f 256 351 259
f 256 259 258
f 256 258 257
f 259 351 260
f 260 352 261
f 260 351 352
f 261 352 353
f 261 353 262
f 262 353 263
f 263 353 354
f 263 354 264
f 264 354 355
f 264 355 265
f 265 355 266
f 266 355 267
f 267 356 357
f 267 357 358
f 267 358 268
f 267 355 356
f 268 358 269
f 269 358 270
f 270 358 359
f 270 359 360
f 270 360 271
f 271 360 272
f 272 360 361
f 272 361 273
f 273 361 362
f 273 362 274
f 274 362 275
f 275 363 276
f 275 362 363
f 276 363 277
f 277 363 278
f 278 363 364
f 278 364 365
f 278 365 279
f 279 365 282
f 279 282 280
f 280 282 281
f 282 365 366
f 282 366 367
f 282 367 368
f 282 368 283
f 283 369 370
f 283 368 369
f 284 292 371
f 284 371 285
f 285 371 286
f 286 371 372
f 286 372 373
f 286 373 293
f 287 374 375
f 287 375 288
f 287 300 374
f 288 375 289
f 289 376 377
f 289 377 378
f 289 378 290
f 289 375 376
f 290 378 379
f 290 379 291
f 291 379 380
f 291 380 381
f 291 381 292
f 292 381 371
f 293 373 294
f 294 296 295
f 294 373 382
f 294 382 383
f 294 383 296
f 296 383 384
f 296 384 297
f 297 384 298
f 298 384 385
f 298 385 301
f 301 385 386
f 301 386 302
f 302 386 387
f 302 387 303
f 303 387 304
f 304 387 388
f 304 388 305
f 305 388 389
f 305 389 390
f 305 390 391
f 305 391 306
f 306 391 308
f 306 308 307
f 308 391 392
f 308 392 309
f 309 392 393
f 309 393 310
f 310 394 395
f 310 395 312
f 310 393 394
f 311 396 313
f 311 312 397
f 311 397 398
f 311 398 396
f 312 395 397
f 315 347 399
f 316 400 317
f 317 400 401
f 317 401 402
f 317 402 403
f 317 403 404
f 317 404 318
f 318 404 319
f 319 404 405
f 319 405 406
f 319 406 320
f 320 406 321
f 321 406 407
f 321 407 408
f 321 408 322
f 322 408 323
f 323 408 324
f 324 408 409
f 324 409 325
f 325 409 326
f 326 410 327
f 326 409 410
f 327 410 328
f 328 411 329
f 328 410 412
f 328 412 411
f 329 411 330
f 330 411 331
f 331 411 332
f 332 411 413
f 332 413 414
f 332 414 333
f 333 415 334
f 333 414 415
f 334 415 335
f 335 415 416
f 335 416 417
f 335 417 418
f 335 418 336
f 336 418 337
f 337 418 419
f 337 419 338
f 338 419 339
f 339 419 420
f 339 420 344
f 339 344 340
f 340 344 341
f 341 344 342
f 344 420 421
f 344 421 345
f 345 422 346
f 345 421 422
f 346 423 347
f 346 422 423
f 347 423 399
f 348 424 349
f 349 424 425
f 349 425 426
f 349 426 427
f 349 427 350
f 350 427 428
f 350 428 352
f 350 352 351
f 352 428 429
f 352 429 353
f 353 430 354
f 353 429 430
f 354 430 431
f 354 431 355
f 355 431 356
f 356 432 357
f 356 431 433
f 356 433 432
f 357 432 434
f 357 434 359
f 357 359 358
f 359 435 360
f 359 434 435
f 360 436 361
f 360 435 436
f 361 436 437
f 361 437 438
f 361 438 362
f 362 438 363
f 363 438 364
f 364 439 366
f 364 366 365
f 364 438 439
f 366 439 440
f 366 440 367
f 367 441 442
f 367 442 443
f 367 443 369
f 367 369 368
f 367 440 441
f 369 443 444
f 369 444 445
f 369 445 446
f 369 446 370
f 371 381 372
f 372 381 447
f 372 447 448
f 372 448 373
f 373 448 382
f 376 449 377
f 377 449 450
f 377 450 451
f 377 451 378
f 378 451 452
f 378 452 379
f 379 452 453
f 379 453 454
f 379 454 380
f 380 454 381
f 381 454 455
f 381 455 447
f 382 448 456
f 382 456 457
f 382 457 383
f 383 457 458
f 383 458 384
f 384 458 459
f 384 459 385
f 385 459 460
f 385 460 386
f 386 460 461
f 386 461 387
f 387 461 462
f 387 462 388
f 388 462 463
f 388 463 389
f 389 463 464
f 389 464 390
f 390 464 465
f 390 465 466
f 390 466 467
f 390 467 391
f 391 467 392
f 392 467 468
f 392 468 393
f 393 468 394
f 394 468 469
f 394 469 395
f 395 469 470
f 395 470 471
f 395 471 397
f 397 472 398
f 397 471 473
f 397 473 474
f 397 474 475
f 397 475 476
f 397 476 472
f 399 423 477
f 400 478 401
f 401 478 479
f 401 479 480
f 401 480 402
f 402 480 481
f 402 481 403
f 403 482 483
f 403 483 484
f 403 484 404
f 403 481 485
f 403 485 482
f 404 484 486
f 404 486 487
f 404 487 405
f 405 487 488
f 405 488 489
f 405 489 407
f 405 407 406
f 407 489 409
f 407 409 408
f 409 489 490
f 409 490 410
f 410 490 412
f 411 412 491
f 411 491 413
f 412 490 492
f 412 492 493
f 412 493 491
f 413 494 495
f 413 495 414
f 413 491 494
f 414 495 496
f 414 496 415
f 415 496 495
f 415 495 497
f 415 497 416
f 416 497 417
f 417 497 498
f 417 498 499
f 417 499 500
f 417 500 418
f 418 500 501
f 418 501 419
f 419 501 420
f 420 501 421
f 421 502 503
f 421 503 422
f 421 501 504
f 421 504 502
f 422 503 423
f 423 503 505
f 423 505 506
f 423 506 477
f 424 507 425
f 425 507 508
f 425 508 509
f 425 509 426
f 426 510 511
f 426 511 427
f 426 509 512
f 426 512 510
f 427 511 513
f 427 513 428
f 428 513 429
f 429 513 514
f 429 514 430
f 430 514 515
f 430 515 516
f 430 516 431
f 431 516 433
f 432 433 517
f 432 517 518
f 432 518 434
f 433 516 519
f 433 519 517
f 434 518 520
f 434 520 435
f 435 520 521
f 435 521 522
f 435 522 436
f 436 522 523
f 436 523 437
f 437 523 438
f 438 523 524
f 438 524 439
f 439 524 525
f 439 525 526
f 439 526 440
f 440 526 441
f 441 527 442
f 441 526 528
f 441 528 527
f 442 527 443
f 443 529 444
f 443 527 529
f 444 530 531
f 444 531 445
f 444 529 530
f 445 532 446
f 445 531 533
f 445 533 534
f 445 534 532
f 447 455 535
f 447 535 536
f 447 536 537
f 447 537 448
f 448 537 456
f 450 538 451
f 451 538 539
f 451 539 540
f 451 540 452
f 452 540 541
f 452 541 542
f 452 542 543
f 452 543 453
f 453 455 454
f 453 543 535
f 453 535 455
f 456 537 544
f 456 544 457
f 457 544 545
f 457 545 546
f 457 546 547
f 457 547 458
f 458 547 548
f 458 548 549
f 458 549 459
f 459 549 460
f 460 549 550
f 460 550 551
f 460 551 461
f 461 551 462
f 462 551 463
f 463 551 464
f 464 551 552
f 464 552 465
f 465 553 554
f 465 554 555
f 465 555 466
f 465 552 553
f 466 555 467
f 467 555 556
f 467 556 468
f 468 556 557
f 468 557 469
f 469 557 558
f 469 558 470
f 470 558 559
f 470 559 473
f 470 473 471
f 473 559 560
f 473 560 561
f 473 561 474
f 474 561 562
f 474 562 475
f 477 506 563
f 479 564 480
f 480 565 481
f 480 564 566
f 480 566 565
f 481 565 567
f 481 567 568
f 481 568 485
f 482 569 483
f 482 485 570
f 482 570 569
f 483 569 486
f 483 486 484
f 485 568 570
f 486 569 571
f 486 571 488
f 486 488 487
f 488 572 573
f 488 573 489
f 488 571 574
f 488 574 572
f 489 573 492
f 489 492 490
f 491 493 494
f 492 575 493
f 492 573 576
f 492 576 577
f 492 577 575
f 493 575 494
f 494 578 579
f 494 579 495
f 494 575 577
f 494 577 580
f 494 580 578
f 495 579 497
f 497 581 498
f 497 579 581
f 498 581 582
f 498 582 583
f 498 583 499
f 499 583 584
f 499 584 502
f 499 502 504
f 499 504 500
f 500 504 501
f 502 584 503
f 503 584 505
f 505 585 586
f 505 586 506
f 505 584 585
f 506 586 587
f 506 587 588
f 506 588 589
f 506 589 563
f 509 590 591
f 509 591 512
f 510 512 592
f 510 592 593
f 510 593 594
f 510 594 595
f 510 595 511
f 511 595 513
f 512 591 592
f 513 595 596
f 513 596 514
f 514 596 515
f 515 597 516
f 515 596 598
f 515 598 597
f 516 597 519
f 517 599 600
f 517 600 518
f 517 519 599
f 518 601 520
f 518 600 601
f 519 597 599
f 520 601 602
f 520 602 521
f 521 602 603
f 521 603 522
f 522 603 604
f 522 604 523
f 523 604 605
f 523 605 524
f 524 605 525
f 525 606 526
f 525 605 606
f 526 606 528
f 527 528 607
f 527 607 529
f 528 606 608
f 528 608 609
f 528 609 607
f 529 607 610
f 529 610 611
f 529 611 612
f 529 612 530
f 530 612 613
f 530 613 614
f 530 614 615
f 530 615 531
f 531 615 533
f 533 615 616
f 533 616 617
f 533 617 618
f 533 618 534
f 535 543 619
f 535 619 620
f 535 620 621
f 535 621 536
f 536 621 622
f 536 622 623
f 536 623 544
f 536 544 537
f 539 624 540
f 540 624 625
f 540 625 541
f 541 625 626
f 541 626 627
f 541 627 542
f 542 627 628
f 542 628 619
f 542 619 543
f 544 623 545
f 545 623 629
f 545 629 546
f 546 629 630
f 546 630 631
f 546 631 547
f 547 631 548
f 548 550 549
f 548 631 632
f 548 632 633
f 548 633 550
f 550 633 551
f 551 633 634
f 551 634 552
f 552 634 635
f 552 635 636
f 552 636 553
f 553 636 637
f 553 637 554
f 554 638 555
f 554 637 639
f 554 639 638
f 555 638 640
f 555 640 556
f 556 640 557
f 557 640 641
f 557 641 558
f 558 641 642
f 558 642 559
f 559 642 643
f 559 643 560
f 560 643 644
f 560 644 645
f 560 645 561
f 561 645 562
f 562 645 646
f 565 566 647
f 565 647 648
f 565 648 649
f 565 649 567
f 566 650 647
f 567 649 568
f 568 649 651
f 568 651 652
f 568 652 570
f 569 570 653
f 569 653 571
f 570 654 655
f 570 655 653
f 570 652 654
f 571 653 656
f 571 656 574
f 572 657 576
f 572 576 573
f 572 574 658
f 572 658 657
f 574 656 659
f 574 659 658
f 576 657 660
f 576 660 577
f 577 661 580
f 577 660 662
f 577 662 661
f 578 580 663
f 578 663 664
f 578 664 665
f 578 665 579
f 579 665 581
f 580 661 666
f 580 666 663
f 581 667 668
f 581 668 582
f 581 665 669
f 581 669 667
f 582 670 671
f 582 671 672
f 582 672 583
f 582 668 670
f 583 672 584
f 584 673 585
f 584 672 673
f 585 673 674
f 585 674 675
f 585 675 676
f 585 676 677
f 585 677 587
f 585 587 586
f 590 678 679
f 590 679 591
f 591 679 680
f 591 680 592
f 592 680 593
f 593 681 594
f 593 680 681
f 594 681 682
f 594 682 683
f 594 683 595
f 595 683 598
f 595 598 596
f 597 598 684
f 597 684 599
f 598 683 685
f 598 685 684
f 599 684 600
f 600 684 686
f 600 686 687
f 600 687 688
f 600 688 601
f 601 688 602
f 602 689 690
f 602 690 603
f 602 688 691
f 602 691 689
f 603 690 692
f 603 692 604
f 604 692 605
f 605 692 693
f 605 693 606
f 606 693 608
f 607 609 610
f 608 694 609
f 608 693 695
f 608 695 696
f 608 696 694
f 609 697 610
f 609 694 697
f 610 698 611
f 610 697 699
f 610 699 698
f 611 700 612
f 611 698 701
f 611 701 700
f 612 700 702
f 612 702 613
f 613 702 703
f 613 703 704
f 613 704 614
f 614 704 705
f 614 705 615
f 615 705 706
f 615 706 616
f 616 706 707
f 616 707 617
f 617 707 708
f 619 628 709
f 619 709 620
f 620 709 710
f 620 710 711
f 620 711 712
f 620 712 621
f 621 712 622
f 622 713 714
f 622 714 623
f 622 712 713
f 623 714 629
f 626 715 627
f 627 715 628
f 628 716 717
f 628 717 709
f 628 715 716
f 629 714 718
f 629 718 630
f 630 718 719
f 630 719 720
f 630 720 631
f 631 720 632
f 632 634 633
f 632 720 721
f 632 721 634
f 634 721 635
f 635 721 722
f 635 722 636
f 636 722 723
f 636 723 724
f 636 724 637
f 637 724 725
f 637 725 726
f 637 726 639
f 638 639 727
f 638 727 728
f 638 728 640
f 639 726 729
f 639 729 727
f 640 728 641
f 641 728 642
f 642 728 730
f 642 730 731
f 642 731 643
f 643 731 732
f 643 732 644
f 644 732 649
f 644 649 648
f 644 648 645
f 645 648 647
f 645 647 733
f 645 733 646
f 647 650 733
f 649 732 651
f 651 734 652
f 651 732 734
f 652 734 735
f 652 735 736
f 652 736 654
f 653 655 737
f 653 737 738
f 653 738 656
f 654 736 739
f 654 739 737
f 654 737 655
f 656 738 740
f 656 740 659
f 657 658 741
f 657 741 660
f 658 659 742
f 658 742 743
f 658 743 744
f 658 744 745
f 658 745 741
f 659 740 746
f 659 746 747
f 659 747 742
f 660 748 662
f 660 741 745
f 660 745 748
f 661 662 749
f 661 749 666
f 662 748 750
f 662 750 749
f 663 751 664
f 663 666 751
f 664 751 752
f 664 752 665
f 665 752 669
f 666 749 753
f 666 753 754
f 666 754 755
f 666 755 751
f 667 669 756
f 667 756 757
f 667 757 758
f 667 758 670
f 667 670 668
f 669 752 759
f 669 759 756
f 670 758 760
f 670 760 761
f 670 761 671
f 671 761 762
f 671 762 674
f 671 674 672
f 672 674 673
f 674 762 763
f 674 763 675
f 675 763 764
f 675 764 676
f 676 764 765
f 676 765 677
f 678 766 679
f 679 767 680
f 679 766 768
f 679 768 767
f 680 769 770
f 680 770 681
f 680 767 769
f 681 770 771
f 681 771 682
f 682 772 685
f 682 685 683
f 682 771 772
f 684 685 773
f 684 773 774
f 684 774 686
f 685 772 773
f 686 774 775
f 686 775 687
f 687 776 688
f 687 775 776
f 688 776 691
f 689 691 777
f 689 777 778
f 689 778 690
f 690 778 779
f 690 779 695
f 690 695 692
f 691 776 777
f 692 695 693
f 694 696 780
f 694 780 781
f 694 781 782
f 694 782 697
f 695 779 696
f 696 783 780
f 696 779 783
f 697 782 784
f 697 784 698
f 697 698 699
f 698 784 701
f 700 701 785
f 700 785 786
f 700 786 702
f 701 784 787
f 701 787 785
f 702 788 703
f 702 786 788
f 703 788 789
f 703 789 790
f 703 790 704
f 704 790 791
f 704 791 705
f 705 791 792
f 705 792 793
f 705 793 707
f 705 707 706
f 707 793 794
f 707 794 795
f 707 795 796
f 707 796 708
f 709 717 710
f 710 797 798
f 710 798 799
f 710 799 711
f 710 717 797
f 711 799 713
f 711 713 712
f 713 799 800
f 713 800 714
f 714 800 801
f 714 801 718
f 716 802 717
f 717 802 803
f 717 803 804
f 717 804 797
f 718 801 805
f 718 805 719
f 719 806 720
f 719 805 807
f 719 807 806
f 720 806 721
f 721 806 722
f 722 806 808
f 722 808 723
f 723 808 809
f 723 809 810
f 723 810 724
f 724 810 725
f 725 811 812
f 725 812 813
f 725 813 726
f 725 810 811
f 726 813 729
f 727 729 814
f 727 814 728
f 728 814 730
f 729 813 815
f 729 815 814
f 730 814 816
f 730 816 731
f 731 816 734
f 731 734 732
f 734 816 735
f 735 817 736
f 735 816 818
f 735 818 817
f 736 819 739
f 736 817 819
f 737 739 740
f 737 740 738
f 739 820 740
f 739 819 821
f 739 821 820
f 740 820 822
f 740 822 746
f 742 747 823
f 742 823 743
f 743 824 744
f 743 823 824
f 744 825 745
f 744 824 825
f 745 825 826
f 745 826 748
f 746 822 747
f 747 822 827
f 747 827 823
f 748 826 828
f 748 828 750
f 749 750 753
f 750 829 753
f 750 828 830
f 750 830 829
f 751 755 831
f 751 831 752
f 752 831 832
f 752 832 759
f 753 829 833
f 753 833 754
f 754 834 835
f 754 835 836
f 754 836 755
f 754 833 834
f 755 837 831
f 755 836 837
f 756 838 839
f 756 839 757
f 756 759 838
f 757 839 760
f 757 760 758
f 759 832 838
f 760 839 840
f 760 840 841
f 760 841 842
f 760 842 843
f 760 843 761
f 761 843 844
f 761 844 762
f 762 844 845
f 762 845 763
f 763 845 846
f 763 846 847
f 763 847 764
f 767 768 848
f 767 848 849
f 767 849 850
f 767 850 769
f 769 851 852
f 769 852 770
f 769 850 851
f 770 852 771
f 771 852 853
f 771 853 854
f 771 854 772
f 772 854 855
f 772 855 773
f 773 856 774
f 773 855 857
f 773 857 856
f 774 858 775
f 774 856 858
f 775 858 859
f 775 859 776
f 776 860 777
f 776 859 860
f 777 861 778
f 777 860 861
f 778 861 862
f 778 862 863
f 778 863 779
f 779 863 783
f 780 864 781
f 780 783 865
f 780 865 864
f 781 864 866
f 781 866 867
f 781 867 868
f 781 868 782
f 782 868 787
f 782 787 784
f 783 863 865
f 785 869 786
f 785 787 870
f 785 870 869
f 786 869 871
f 786 871 788
f 787 868 867
f 787 867 870
f 788 871 872
f 788 872 789
f 789 873 790
f 789 872 873
f 790 873 874
f 790 874 875
f 790 875 791
f 791 875 876
f 791 876 792
f 792 876 877
f 792 877 793
f 793 877 878
f 793 878 794
f 794 878 879
f 794 879 880
f 794 880 881
f 794 881 795
f 797 804 882
f 797 882 880
f 797 880 879
f 797 879 878
f 797 878 798
f 798 878 877
f 798 877 799
f 799 877 883
f 799 883 800
f 800 883 801
f 801 883 875
f 801 875 884
f 801 884 805
f 805 884 885
f 805 885 807
f 806 807 808
f 807 885 886
f 807 886 887
f 807 887 808
f 808 887 809
f 809 888 889
f 809 889 810
f 809 887 888
f 810 889 811
f 811 889 890
f 811 890 812
f 812 890 891
f 812 891 892
f 812 892 893
f 812 893 813
f 813 893 815
f 814 815 818
f 814 818 816
f 815 893 894
f 815 894 818
f 817 818 894
f 817 894 895
f 817 895 819
f 819 895 821
f 820 896 827
f 820 827 822
f 820 821 897
f 820 897 896
f 821 895 898
f 821 898 897
f 823 827 899
f 823 899 900
f 823 900 901
f 823 901 824
f 824 901 902
f 824 902 903
f 824 903 825
f 825 904 826
f 825 903 904
f 826 904 828
f 827 896 899
f 828 904 905
f 828 905 830
f 829 830 906
f 829 906 833
f 830 905 907
f 830 907 906
f 831 837 908
f 831 908 909
f 831 909 910
f 831 910 832
f 832 910 838
f 833 906 834
f 834 906 911
f 834 911 835
f 835 912 913
f 835 913 836
f 835 911 912
f 836 913 914
f 836 914 908
f 836 908 837
f 838 910 909
f 838 909 915
f 838 915 916
f 838 916 839
f 839 916 840
f 840 916 917
f 840 917 918
f 840 918 919
f 840 919 841
f 841 919 920
f 841 920 842
f 842 920 843
f 843 920 921
f 843 921 844
f 844 921 922
f 844 922 923
f 844 923 845
f 845 923 924
f 845 924 925
f 845 925 846
f 849 926 850
f 850 926 927
f 850 927 851
f 851 927 928
f 851 928 929
f 851 929 852
f 852 929 853
f 853 918 930
f 853 930 854
f 853 929 931
f 853 931 918
f 854 930 932
f 854 932 857
f 854 857 855
f 856 857 933
f 856 933 858
f 857 932 933
f 858 934 859
f 858 933 935
f 858 935 934
f 859 934 936
f 859 936 860
f 860 936 937
f 860 937 861
f 861 937 938
f 861 938 862
f 862 939 940
f 862 940 863
f 862 938 939
f 863 940 865
f 864 865 941
f 864 941 866
f 865 940 941
f 866 941 942
f 866 942 943
f 866 943 944
f 866 944 867
f 867 944 870
f 869 945 871
f 869 870 945
f 870 944 946
f 870 946 947
f 870 947 945
f 871 948 872
f 871 945 949
f 871 949 948
f 872 948 950
f 872 950 873
f 873 951 874
f 873 950 951
f 874 885 884
f 874 884 875
f 874 951 885
f 875 883 876
f 876 883 877
f 885 951 886
f 886 888 887
f 886 951 952
f 886 952 888
f 888 952 953
f 888 953 889
f 889 953 890
f 890 953 954
f 890 954 955
f 890 955 891
f 891 955 956
f 891 956 892
f 892 956 957
f 892 957 958
f 892 958 893
f 893 958 894
f 894 958 895
f 895 958 898
f 896 897 959
f 896 959 899
f 897 898 960
f 897 960 959
f 898 958 957
f 898 957 960
f 899 961 900
f 899 959 961
f 900 962 901
f 900 961 962
f 901 962 902
f 902 962 963
f 902 963 964
f 902 964 965
f 902 965 904
f 902 904 903
f 904 965 905
f 905 965 966
f 905 966 907
f 906 907 967
f 906 967 911
f 907 966 968
f 907 968 967
f 908 914 969
f 908 969 970
f 908 970 915
f 908 915 909
f 911 967 971
f 911 971 912
f 912 936 913
f 912 971 937
f 912 937 936
f 913 936 972
f 913 972 914
f 914 972 969
f 915 970 973
f 915 973 974
f 915 974 917
f 915 917 916
f 917 974 918
f 918 931 919
f 918 974 930
f 919 931 975
f 919 975 920
f 920 975 976
f 920 976 921
f 921 976 977
f 921 977 922
f 922 977 923
f 923 978 979
f 923 979 980
f 923 980 924
f 923 977 978
f 926 981 927
f 927 982 928
f 927 981 983
f 927 983 984
f 927 984 982
f 928 985 929
f 928 982 985
f 929 985 931
f 930 974 932
f 931 985 975
f 932 974 973
f 932 973 933
f 933 973 935
f 934 972 936
f 934 935 969
f 934 969 972
f 935 973 969
f 937 971 938
f 938 971 986
f 938 986 939
f 939 986 940
f 940 987 941
f 940 986 987
f 941 987 942
f 942 988 943
f 942 987 989
f 942 989 988
f 943 990 991
f 943 991 992
f 943 992 944
f 943 988 990
f 944 992 946
f 945 947 949
f 946 992 991
f 946 991 993
f 946 993 994
f 946 994 995
f 946 995 947
f 947 995 949
f 948 949 996
f 948 996 997
f 948 997 950
f 949 995 996
f 950 997 952
f 950 952 951
f 952 997 953
f 953 997 954
f 954 996 998
f 954 998 955
f 954 997 996
f 955 998 999
f 955 999 956
f 956 999 1000
f 956 1000 957
f 957 1000 1001
f 957 1001 960
f 959 1002 1003
f 959 1003 1004
f 959 1004 961
f 959 960 1001
f 959 1001 1002
f 961 1004 962
f 962 1004 1005
f 962 1005 964
f 962 964 963
f 964 1005 1006
f 964 1006 1007
f 964 1007 1008
f 964 1008 1009
f 964 1009 965
f 965 1009 966
f 966 1009 968
f 967 1010 971
f 967 968 1010
f 968 1009 1011
f 968 1011 1010
f 969 973 970
f 971 1010 986
f 975 985 977
f 975 977 976
f 977 985 1012
f 977 1012 978
f 978 1012 1014
f 978 1014 1013
f 982 984 1015
f 982 1015 1016
f 982 1016 1014
f 982 1014 985
f 985 1014 1012
f 986 1010 1011
f 986 1011 987
f 987 1011 989
f 988 989 1008
f 988 1008 1017
f 988 1017 990
f 989 1009 1008
f 989 1011 1009
f 990 1017 1018
f 990 1018 993
f 990 993 991
f 993 1019 994
f 993 1018 1019
f 994 1020 995
f 994 1019 1020
f 995 1020 998
f 995 998 996
f 998 1020 999
f 999 1020 1021
f 999 1021 1000
f 1000 1021 1002
f 1000 1002 1001
f 1002 1022 1005
f 1002 1005 1003
f 1002 1021 1022
f 1003 1005 1004
f 1005 1023 1006
f 1005 1022 1023
f 1006 1023 1007
f 1007 1023 1024
f 1007 1024 1008
f 1008 1024 1017
f 1013 1014 1025
f 1014 1016 1026
f 1014 1026 1027
f 1014 1027 1025
f 1017 1024 1028
f 1017 1028 1018
f 1018 1028 1022
f 1018 1022 1019
f 1019 1022 1021
f 1019 1021 1020
f 1022 1028 1024
f 1022 1024 1023

