# https://github.com/mikedh/trimesh
v -0.07565155 -0.00092547 0.00145806
v -0.07564495 -0.00045204 0.00145806
v -0.07524869 -0.00112273 0.00090678
v -0.07554919 -0.00188810 0.00132928
v -0.07564165 -0.00188810 0.00145806
v -0.07562844 0.00033305 0.00145806
v -0.07546664 0.00045930 0.00123439
v -0.07469724 -0.00034158 0.00017700
v -0.07509349 -0.00188810 0.00071473
v -0.07538408 -0.00188810 0.00110334
v -0.07070167 -0.00188810 0.00145806
v -0.07562184 0.00057766 0.00145806
v -0.07560202 0.00103530 0.00145806
v -0.07529162 0.00127596 0.00104686
v -0.07484253 0.00094061 0.00041875
v -0.07433401 -0.00188810 -0.00027487
v -0.07438354 0.00060527 -0.00019805
v -0.07375283 -0.00019560 -0.00102046
v -0.04192034 -0.00188810 -0.01844697
v -0.05302209 0.03841610 0.00145580
v -0.06754484 0.01734082 0.00145806
v -0.07557560 0.00148900 0.00145806
v -0.07545343 0.00271990 0.00140158
v -0.07499443 0.00264100 0.00076444
v -0.07466092 0.00175727 0.00023801
v -0.07420192 0.00141798 -0.00038332
v -0.07379246 -0.00188810 -0.00095494
v -0.07373302 0.00107081 -0.00099787
v -0.07316505 0.00111815 -0.00169150
v -0.07266643 0.00073152 -0.00229701
v -0.07302306 -0.00087418 -0.00189936
v -0.04192034 -0.00188810 -0.02159201
v -0.04192034 0.01734082 -0.01672533
v -0.04192365 0.03455374 -0.01066345
v -0.04192695 0.03841610 -0.00765171
v -0.05813048 0.03841610 0.00145580
v -0.07207535 0.01734082 0.00145806
v -0.07548975 0.00277119 0.00145806
v -0.07514633 0.00401393 0.00114175
v -0.07438023 0.00287376 -0.00002634
v -0.07460148 0.00409283 0.00041875
v -0.07372972 0.00206894 -0.00093461
v -0.07320798 -0.00188810 -0.00166212
v -0.07275889 0.00268834 -0.00206881
v -0.07228669 0.00234116 -0.00264947
v -0.07197959 0.00124440 -0.00305615
v -0.07228999 -0.00023506 -0.00274662
v -0.07258718 -0.00161588 -0.00240546
v -0.07284145 -0.00188810 -0.00210044
v -0.04241236 -0.00188810 -0.02146323
v -0.04253124 -0.00139494 -0.02144290
v -0.04192034 -0.00029423 -0.02161461
v -0.04192034 0.01734082 -0.02021380
v -0.04192365 0.03841610 -0.01066345
v -0.05802811 0.03841610 0.00134961
v -0.05530386 0.03651846 -0.00359840
v -0.05661150 0.03552032 -0.00331372
v -0.06001269 0.03608054 0.00102653
v -0.06023063 0.03624624 0.00145580
v -0.07247160 0.01631113 0.00145806
v -0.06069623 0.03575703 0.00145580
v -0.06079199 0.03565446 0.00145580
v -0.06151185 0.03485358 0.00145580
v -0.06188829 0.03443144 0.00145580
v -0.06242324 0.03381599 0.00145580
v -0.06283600 0.03332679 0.00145580
v -0.06318273 0.03290465 0.00145580
v -0.06347001 0.03255352 0.00145580
v -0.06356248 0.03243517 0.00145580
v -0.06398184 0.03189468 0.00145580
v -0.06415686 0.03166585 0.00145580
v -0.06475124 0.03086892 0.00145580
v -0.06480407 0.03079791 0.00145580
v -0.06508475 0.03040734 0.00145580
v -0.06535553 0.03002860 0.00145580
v -0.06543808 0.02991024 0.00145580
v -0.06601925 0.02906597 0.00145580
v -0.06616455 0.02884898 0.00145580
v -0.06678205 0.02789030 0.00145580
v -0.06724104 0.02716044 0.00145580
v -0.06742926 0.02685271 0.00145580
v -0.06804346 0.02580328 0.00145580
v -0.06828781 0.02536537 0.00145580
v -0.06873360 0.02455266 0.00145580
v -0.06899777 0.02406345 0.00145580
v -0.06958555 0.02293118 0.00145580
v -0.07011058 0.02185808 0.00145580
v -0.07015682 0.02175945 0.00145580
v -0.07073139 0.02052460 0.00145580
v -0.07129935 0.01923452 0.00145580
v -0.07151729 0.01872165 0.00145580
v -0.07192015 0.01774323 0.00145580
v -0.07200931 0.01752625 0.00145580
v -0.07535436 0.00417174 0.00145806
v -0.07530483 0.00458598 0.00145806
v -0.07486565 0.00500417 0.00092033
v -0.07405663 0.00414412 -0.00029069
v -0.07366037 0.00362335 -0.00086005
v -0.07410946 0.00570642 0.00003466
v -0.07321458 0.00314993 -0.00147008
v -0.07235273 0.00433743 -0.00236705
v -0.07190034 0.00380089 -0.00295448
v -0.07158334 0.00280275 -0.00340862
v -0.07154701 0.00047903 -0.00355096
v -0.07116066 0.00211234 -0.00391020
v -0.07188053 -0.00086629 -0.00320075
v -0.07205554 -0.00188810 -0.00300193
v -0.07219093 -0.00188810 -0.00284829
v -0.07263671 -0.00188810 -0.00234219
v -0.04278220 -0.00188810 -0.02135930
v -0.04304637 -0.00055856 -0.02130508
v -0.04262369 0.00013974 -0.02143160
v -0.04216800 0.00116155 -0.02156038
v -0.04192034 0.00089722 -0.02162365
v -0.04286145 0.01734082 -0.01986586
v -0.04192365 0.01772351 -0.02013924
v -0.04192365 0.01882817 -0.01991104
v -0.04192365 0.01900964 -0.01987038
v -0.04192365 0.02047726 -0.01951114
v -0.04192365 0.02165688 -0.01920612
v -0.04192365 0.02209874 -0.01909089
v -0.04192365 0.02364526 -0.01863676
v -0.04192365 0.02478937 -0.01827978
v -0.04192365 0.02590191 -0.01791150
v -0.04192365 0.02654893 -0.01768783
v -0.04192365 0.02706970 -0.01750030
v -0.04192365 0.02762991 -0.01728792
v -0.04192365 0.02889632 -0.01678182
v -0.04192365 0.02913698 -0.01668015
v -0.04192365 0.03006410 -0.01627346
v -0.04192365 0.03031660 -0.01615597
v -0.04192365 0.03103068 -0.01581933
v -0.04192365 0.03184339 -0.01540586
v -0.04192365 0.03225369 -0.01518896
v -0.04192365 0.03263638 -0.01497884
v -0.04192365 0.03324788 -0.01463316
v -0.04192365 0.03350432 -0.01448178
v -0.04192365 0.03421051 -0.01405702
v -0.04192365 0.03509818 -0.01349896
v -0.04192365 0.03607265 -0.01283696
v -0.04192365 0.03709445 -0.01211848
v -0.04192365 0.03832536 -0.01121248
v -0.04192365 0.03841610 -0.01114469
v -0.04192034 0.01603496 -0.02045555
v -0.04279541 0.01579036 -0.02018669
v -0.05297586 0.03841610 -0.00375430
v -0.05416462 0.03684985 -0.00425588
v -0.05551850 0.03553610 -0.00429203
v -0.05581899 0.03592273 -0.00368200
v -0.05259942 0.03841610 -0.00412258
v -0.05219325 0.03841610 -0.00448633
v -0.05625487 0.03539407 -0.00375204
v -0.05686576 0.03487331 -0.00362551
v -0.05988721 0.03210772 -0.00302452
v -0.05982447 0.03275473 -0.00250261
v -0.06022072 0.03325577 -0.00160338
v -0.06031318 0.03503506 0.00027641
v -0.07194987 0.01734082 0.00127054
v -0.07177156 0.01679244 0.00072603
v -0.07208526 0.01622039 0.00086837
v -0.07253104 0.01614937 0.00145806
v -0.06160101 0.03419868 0.00088418
v -0.06218218 0.03364635 0.00099489
v -0.06282940 0.03318870 0.00130895
v -0.06287233 0.03213139 0.00033064
v -0.06361531 0.03157511 0.00069892
v -0.06404788 0.03098728 0.00067406
v -0.06423611 0.03020613 0.00018830
v -0.06531260 0.02996153 0.00133606
v -0.06594000 0.02886871 0.00117338
v -0.06631975 0.02830849 0.00118920
v -0.06659713 0.02789030 0.00120050
v -0.06730378 0.02686060 0.00128861
v -0.06772315 0.02575989 0.00097908
v -0.06819205 0.02503002 0.00105590
v -0.06867747 0.02388591 0.00087967
v -0.06884918 0.02310871 0.00056561
v -0.07004454 0.02181074 0.00132702
v -0.06924213 0.02159770 0.00008437
v -0.07017663 0.02029578 0.00054528
v -0.07092621 0.01922663 0.00092711
v -0.07131916 0.01806280 0.00079607
v -0.07515624 0.00572220 0.00145806
v -0.07437693 0.00668088 0.00058821
v -0.07338299 0.00459782 -0.00108147
v -0.07370990 0.00548549 -0.00052566
v -0.07380567 0.00681897 -0.00014383
v -0.07317166 0.00701623 -0.00093009
v -0.07283814 0.00472406 -0.00173894
v -0.07188053 0.00591157 -0.00270821
v -0.07135219 0.00561568 -0.00335439
v -0.07124982 0.00402971 -0.00365941
v -0.07068846 0.00388768 -0.00427395
v -0.07093282 0.00042774 -0.00419714
v -0.07131586 -0.00117796 -0.00381078
v -0.07026579 0.00309075 -0.00475746
v -0.07062242 0.00171782 -0.00447052
v -0.07145125 -0.00188810 -0.00365263
v -0.04337988 -0.00188810 -0.02117403
v -0.04369359 -0.00140284 -0.02108818
v -0.04340960 0.00069601 -0.02120566
v -0.04299354 0.00138642 -0.02133219
v -0.04257416 0.00199398 -0.02145193
v -0.04199299 0.00299607 -0.02159653
v -0.04192034 0.00290927 -0.02161461
v -0.04493849 0.01734082 -0.01907734
v -0.04287796 0.01774718 -0.01978000
v -0.04452902 0.01557337 -0.01957214
v -0.04720045 0.01689502 -0.01830463
v -0.04724998 0.01847310 -0.01794991
v -0.04459506 0.01934104 -0.01877458
v -0.04263360 0.02028395 -0.01929650
v -0.04262700 0.02217764 -0.01880847
v -0.04374972 0.02264712 -0.01825719
v -0.04286145 0.02368866 -0.01827526
v -0.04381907 0.02411474 -0.01778498
v -0.04325771 0.02617019 -0.01732633
v -0.04215149 0.02737742 -0.01730147
v -0.04299684 0.02792186 -0.01676374
v -0.04340960 0.02858465 -0.01632317
v -0.04263690 0.02937764 -0.01628928
v -0.04257747 0.03056515 -0.01576736
v -0.04321808 0.03100306 -0.01526126
v -0.04227367 0.03191835 -0.01521156
v -0.04279541 0.03245884 -0.01467157
v -0.04232981 0.03382783 -0.01408865
v -0.04292749 0.03426575 -0.01350799
v -0.04196657 0.03511396 -0.01346733
v -0.04252463 0.03550848 -0.01290700
v -0.04305297 0.03591089 -0.01233990
v -0.04196657 0.03712207 -0.01207555
v -0.04224395 0.03812021 -0.01118762
v -0.04235953 0.03841610 -0.01090294
v -0.04192034 0.01536822 -0.02057304
v -0.04214159 0.01514335 -0.02053463
v -0.04391483 0.01468570 -0.01995623
v -0.05241780 0.03784404 -0.00480265
v -0.05326644 0.03719309 -0.00468290
v -0.05454767 0.03588328 -0.00477779
v -0.05505620 0.03444328 -0.00551209
v -0.05548548 0.03471944 -0.00495402
v -0.05600391 0.03507451 -0.00424910
v -0.05157576 0.03841610 -0.00497436
v -0.05810736 0.03245490 -0.00445696
v -0.05884044 0.03215901 -0.00401639
v -0.05945133 0.03189862 -0.00364133
v -0.06039904 0.03225369 -0.00235123
v -0.06060047 0.03049018 -0.00365037
v -0.06139298 0.03025347 -0.00303582
v -0.06121136 0.03133840 -0.00229249
v -0.06075897 0.03254958 -0.00168924
v -0.06150525 0.03308219 -0.00033136
v -0.07094603 0.01784186 0.00015667
v -0.07064883 0.01734082 -0.00050533
v -0.07109792 0.01639792 -0.00038558
v -0.07167910 0.01526170 -0.00014835
v -0.07253104 0.01553392 0.00114401
v -0.07264332 0.01582981 0.00145806
v -0.06216567 0.03292043 0.00027190
v -0.06130712 0.03189073 -0.00169601
v -0.06256853 0.03140153 -0.00070415
v -0.06327849 0.03043101 -0.00075386
v -0.06367475 0.02967747 -0.00096172
v -0.06465547 0.02938553 -0.00002408
v -0.06546780 0.02830849 0.00007759
v -0.06600604 0.02742476 0.00003014
v -0.06655750 0.02689216 0.00032386
v -0.06709575 0.02577961 0.00015215
v -0.06770003 0.02451715 0.00001207
v -0.06745238 0.02359002 -0.00096398
v -0.06819205 0.02226838 -0.00087360
v -0.06856849 0.02124658 -0.00102498
v -0.06963178 0.02035890 -0.00015738
v -0.07015021 0.01863880 -0.00047596
v -0.07510670 0.00604571 0.00145806
v -0.07475998 0.00713064 0.00120728
v -0.07398398 0.00790784 0.00033968
v -0.07356131 0.00759617 -0.00029746
v -0.07311222 0.00559990 -0.00126222
v -0.07232632 0.00804593 -0.00177283
v -0.07268294 0.00694916 -0.00155367
v -0.07233952 0.00625480 -0.00210044
v -0.07151729 0.00705173 -0.00294545
v -0.07090640 0.00522905 -0.00389664
v -0.07103518 0.00671639 -0.00354192
v -0.07019974 0.00543815 -0.00459478
v -0.06982000 0.00454258 -0.00506247
v -0.07033183 0.00024626 -0.00479587
v -0.07063893 -0.00108327 -0.00449763
v -0.07080734 -0.00188810 -0.00431462
v -0.07107151 -0.00188810 -0.00404576
v -0.06962848 0.00289349 -0.00537427
v -0.07001483 0.00145349 -0.00507377
v -0.04370349 -0.00188810 -0.02107010
v -0.04454553 -0.00085051 -0.02080349
v -0.04389832 0.00000166 -0.02103847
v -0.04397757 -0.00188810 -0.02097521
v -0.04442005 -0.00188810 -0.02082157
v -0.04387520 0.00186379 -0.02105203
v -0.04312562 0.00317360 -0.02128700
v -0.04242227 0.00409678 -0.02146775
v -0.04192034 0.00406522 -0.02159201
v -0.04764623 0.01734082 -0.01804029
v -0.04830005 0.01798784 -0.01765168
v -0.04875574 0.01598367 -0.01788213
v -0.04929729 0.01475277 -0.01789343
v -0.04889113 0.01734082 -0.01755452
v -0.04921474 0.01884395 -0.01709135
v -0.04651690 0.01998411 -0.01788213
v -0.04509699 0.02181468 -0.01797025
v -0.04508378 0.02254455 -0.01777368
v -0.04589610 0.02306926 -0.01729470
v -0.04484933 0.02431200 -0.01731729
v -0.04433420 0.02493928 -0.01731503
v -0.04442336 0.02625304 -0.01682701
v -0.04354169 0.02742082 -0.01674567
v -0.04548994 0.02501424 -0.01682249
v -0.04430778 0.02878586 -0.01582837
v -0.04355490 0.02947627 -0.01585548
v -0.04436722 0.02746816 -0.01638191
v -0.04382897 0.03142125 -0.01474387
v -0.04414267 0.03005621 -0.01529967
v -0.04330393 0.03292043 -0.01414514
v -0.04392473 0.03329522 -0.01359159
v -0.04439033 0.03375287 -0.01304031
v -0.04327422 0.03480624 -0.01296574
v -0.04414928 0.03494432 -0.01238961
v -0.04481301 0.03535068 -0.01172309
v -0.04375302 0.03675517 -0.01134126
v -0.04377944 0.03765467 -0.01066345
v -0.04277890 0.03841610 -0.01066345
v -0.04344262 0.03791111 -0.01066345
v -0.04192034 0.01504472 -0.02062501
v -0.04192034 0.01340351 -0.02087579
v -0.04265342 0.01427146 -0.02048718
v -0.04352188 0.01358105 -0.02027254
v -0.05020868 0.01326543 -0.01778046
v -0.05229562 0.03735878 -0.00530874
v -0.05292633 0.03581226 -0.00605434
v -0.05177719 0.03696426 -0.00602045
v -0.05274141 0.03452218 -0.00714561
v -0.05421415 0.03376865 -0.00661466
v -0.05519159 0.03342936 -0.00613793
v -0.05588834 0.03283364 -0.00603174
v -0.05666103 0.03269950 -0.00553242
v -0.05767478 0.03232865 -0.00495176
v -0.05096156 0.03841610 -0.00544883
v -0.05827577 0.03169347 -0.00490884
v -0.05926310 0.03128317 -0.00430784
v -0.06026035 0.03010355 -0.00427395
v -0.06117504 0.02978399 -0.00363229
v -0.06206331 0.02945260 -0.00297256
v -0.06254872 0.02963802 -0.00229249
v -0.06194113 0.03037972 -0.00233090
v -0.06207322 0.03098728 -0.00165083
v -0.07051675 0.01761304 -0.00053922
v -0.07003464 0.01744340 -0.00126899
v -0.07083706 0.01579430 -0.00102046
v -0.07228669 0.01491847 0.00051591
v -0.07150408 0.01434247 -0.00079001
v -0.07209186 0.01422411 -0.00005571
v -0.07307920 0.01432669 0.00134284
v -0.07313534 0.01439770 0.00145806
v -0.06281619 0.03003254 -0.00165309
v -0.06331151 0.02939736 -0.00163275
v -0.06396533 0.02882925 -0.00133903
v -0.06457292 0.02770487 -0.00153786
v -0.06496588 0.02796131 -0.00083971
v -0.06555696 0.02707758 -0.00082842
v -0.06599944 0.02641085 -0.00078097
v -0.06644853 0.02525885 -0.00107243
v -0.06705282 0.02418970 -0.00106791
v -0.06655420 0.02382279 -0.00194680
v -0.06700329 0.02308109 -0.00186773
v -0.06791467 0.02151090 -0.00171183
v -0.06880625 0.01989732 -0.00151075
v -0.06953932 0.01953830 -0.00076064
v -0.06943365 0.01877293 -0.00133903
v -0.07495481 0.00701623 0.00145806
v -0.07484253 0.00766324 0.00145806
v -0.07431749 0.00856275 0.00096326
v -0.07358442 0.00913086 0.00012504
v -0.07298014 0.00851935 -0.00082616
v -0.07191355 0.00924132 -0.00200103
v -0.07159984 0.00857458 -0.00253650
v -0.07197959 0.00738708 -0.00233090
v -0.07113755 0.00824319 -0.00314427
v -0.07063563 0.00792757 -0.00376334
v -0.07038136 0.00687420 -0.00421295
v -0.06947658 0.00562357 -0.00527485
v -0.06976717 0.00677952 -0.00484783
v -0.06925534 0.00406916 -0.00563183
v -0.06975066 -0.00023506 -0.00534715
v -0.07006105 -0.00148963 -0.00505344
v -0.07014361 -0.00188810 -0.00496306
v -0.06903740 0.00248319 -0.00592781
v -0.06943365 0.00103135 -0.00562054
v -0.04520266 -0.00188810 -0.02053689
v -0.04523898 -0.00188810 -0.02052333
v -0.04526209 -0.00045599 -0.02054367
v -0.04442005 0.00107475 -0.02086224
v -0.04449270 0.00283431 -0.02082157
v -0.04340300 0.00421119 -0.02117855
v -0.04273267 0.00586423 -0.02131411
v -0.04192034 0.00700834 -0.02149260
v -0.04192034 0.00494894 -0.02156942
v -0.05065116 0.01671354 -0.01698290
v -0.05083938 0.01482773 -0.01727888
v -0.05015254 0.01595606 -0.01733988
v -0.05159557 0.01356527 -0.01719754
v -0.05074362 0.01734082 -0.01679312
v -0.05082948 0.01793260 -0.01661237
v -0.04942607 0.01979869 -0.01676148
v -0.04807881 0.02047726 -0.01715235
v -0.04742829 0.02126236 -0.01719528
v -0.04647728 0.02253666 -0.01722240
v -0.04717733 0.02294301 -0.01680893
v -0.04658955 0.02366104 -0.01682023
v -0.04547673 0.02639506 -0.01632769
v -0.04665559 0.02481698 -0.01638869
v -0.04517955 0.02767331 -0.01592326
v -0.04572439 0.02839923 -0.01532227
v -0.04494179 0.02921983 -0.01531775
v -0.04484602 0.03040339 -0.01476872
v -0.04559891 0.03059276 -0.01426488
v -0.04441675 0.03183155 -0.01420388
v -0.04502765 0.03215506 -0.01367745
v -0.04554938 0.03262454 -0.01309227
v -0.04555929 0.03406454 -0.01215237
v -0.04571119 0.03609632 -0.01066345
v -0.04615697 0.03511396 -0.01108143
v -0.04454553 0.03704711 -0.01066345
v -0.04407663 0.03841610 -0.00992012
v -0.04493518 0.03719309 -0.01032680
v -0.04192034 0.01320625 -0.02090291
v -0.04271616 0.01160450 -0.02083513
v -0.04391483 0.01231463 -0.02029966
v -0.05033746 0.01238170 -0.01786180
v -0.05145028 0.03668415 -0.00647458
v -0.05022189 0.03812021 -0.00623735
v -0.05190928 0.03426180 -0.00792283
v -0.05077994 0.03629752 -0.00723825
v -0.05357685 0.03309007 -0.00753422
v -0.05511233 0.03254564 -0.00678863
v -0.05616571 0.03222213 -0.00623960
v -0.05726862 0.03194597 -0.00557309
v -0.05793565 0.03123583 -0.00553016
v -0.05050917 0.03841610 -0.00578321
v -0.05946124 0.03024953 -0.00490884
v -0.06076557 0.02947627 -0.00426266
v -0.06160101 0.02840712 -0.00423103
v -0.06195764 0.02882136 -0.00356903
v -0.06285582 0.02830849 -0.00301774
v -0.06297469 0.02830849 -0.00289122
v -0.06342048 0.02846235 -0.00226989
v -0.06926194 0.01796022 -0.00198295
v -0.06957234 0.01734082 -0.00190388
v -0.07014691 0.01627562 -0.00167794
v -0.07080073 0.01474488 -0.00153108
v -0.07279852 0.01378225 0.00070795
v -0.07142153 0.01335222 -0.00129837
v -0.07217111 0.01334828 -0.00031780
v -0.07353159 0.01312735 0.00145806
v -0.06353936 0.02830849 -0.00225860
v -0.06418657 0.02743265 -0.00219985
v -0.06519372 0.02679748 -0.00149945
v -0.06563951 0.02613073 -0.00144974
v -0.06578811 0.02501819 -0.00207107
v -0.06616785 0.02353085 -0.00259750
v -0.06672261 0.02260372 -0.00252068
v -0.06545129 0.02468285 -0.00269466
v -0.06760097 0.02106115 -0.00236253
v -0.06863123 0.01921480 -0.00211174
v -0.07471375 0.00832998 0.00145806
v -0.07437033 0.00968713 0.00136769
v -0.07386841 0.00974631 0.00069440
v -0.07281503 0.01049195 -0.00049177
v -0.07277210 0.00988834 -0.00072674
v -0.07234612 0.00956877 -0.00136615
v -0.07147436 0.01045644 -0.00221115
v -0.07119368 0.00968318 -0.00275792
v -0.07073139 0.00934784 -0.00336795
v -0.07002143 0.00789995 -0.00441629
v -0.07013370 0.00930839 -0.00402768
v -0.06874681 0.00569458 -0.00594363
v -0.06914307 0.00660593 -0.00547142
v -0.06939072 0.00783683 -0.00505344
v -0.06857180 0.00404943 -0.00623960
v -0.06906381 -0.00032580 -0.00596396
v -0.06946007 -0.00188810 -0.00559568
v -0.06841660 0.00209656 -0.00647458
v -0.06873690 0.00094061 -0.00623283
v -0.06795430 0.00361941 -0.00678637
v -0.04596545 -0.00188810 -0.02024995
v -0.05447503 -0.00028634 -0.01702357
v -0.04678768 0.00068812 -0.01996979
v -0.04590271 0.00127201 -0.02030869
v -0.05442219 0.00167442 -0.01704390
v -0.05455427 0.00321305 -0.01696483
v -0.05254989 0.00346160 -0.01772624
v -0.04499132 0.00350894 -0.02061597
v -0.04467432 0.00424669 -0.02071764
v -0.04420541 0.00481086 -0.02086676
v -0.04385539 0.00574982 -0.02094809
v -0.04348886 0.00645206 -0.02103395
v -0.04306288 0.00712275 -0.02113788
v -0.04274588 0.00791573 -0.02119663
v -0.04214489 0.00848779 -0.02135026
v -0.04192034 0.00913875 -0.02137286
v -0.05151302 0.01541162 -0.01689705
v -0.05139744 0.01699759 -0.01658073
v -0.05199182 0.01462258 -0.01684734
v -0.05169464 0.01164790 -0.01743478
v -0.05224279 0.01237776 -0.01710943
v -0.05249705 0.01376252 -0.01677052
v -0.05118611 0.01734082 -0.01659429
v -0.05111676 0.01879266 -0.01621020
v -0.05062805 0.01972767 -0.01617857
v -0.04966053 0.02107693 -0.01624861
v -0.04875904 0.02211057 -0.01635932
v -0.04809532 0.02183441 -0.01676148
v -0.04829675 0.02287594 -0.01632091
v -0.04737546 0.02403978 -0.01633672
v -0.04663578 0.02605972 -0.01591196
v -0.04594894 0.02697501 -0.01586226
v -0.04777501 0.02479726 -0.01584644
v -0.04657634 0.02740109 -0.01534938
v -0.04704855 0.02796920 -0.01482295
v -0.04589280 0.02923955 -0.01482069
v -0.04612065 0.03104251 -0.01370682
v -0.04678768 0.02932240 -0.01427618
v -0.04700231 0.03015090 -0.01369552
v -0.04652021 0.03160273 -0.01314649
v -0.04626264 0.03288098 -0.01250257
v -0.04667210 0.03333468 -0.01195807
v -0.04711789 0.03416317 -0.01113114
v -0.04744150 0.03630147 -0.00944113
v -0.04602489 0.03700766 -0.00980941
v -0.04839581 0.03505479 -0.00971677
v -0.04505736 0.03841610 -0.00934172
v -0.04567486 0.03816361 -0.00916323
v -0.04192034 0.01284329 -0.02095261
v -0.04255105 0.01057875 -0.02102491
v -0.04340300 0.01076417 -0.02068601
v -0.04468092 0.01104033 -0.02017313
v -0.05066107 0.01089436 -0.01793184
v -0.04959118 0.03747319 -0.00717724
v -0.05000395 0.03841610 -0.00615149
v -0.04977280 0.03841610 -0.00631190
v -0.04890104 0.03841610 -0.00691064
v -0.05030444 0.03424996 -0.00901185
v -0.05148330 0.03292438 -0.00910674
v -0.04951523 0.03539802 -0.00874299
v -0.04943598 0.03683013 -0.00776016
v -0.05231544 0.03214717 -0.00903670
v -0.05457739 0.03197753 -0.00755456
v -0.05586852 0.03090838 -0.00729925
v -0.05684265 0.03062827 -0.00675926
v -0.05716626 0.03117271 -0.00616731
v -0.05812717 0.03000887 -0.00616956
v -0.05913102 0.02972087 -0.00555050
v -0.06071604 0.02865567 -0.00488172
v -0.06154818 0.02830849 -0.00434851
v -0.06252230 0.02718016 -0.00417002
v -0.06179584 0.02830849 -0.00410902
v -0.06264778 0.02787057 -0.00356225
v -0.06383325 0.02711704 -0.00283925
v -0.06886569 0.01766039 -0.00262913
v -0.06921571 0.01693841 -0.00253424
v -0.06969452 0.01592450 -0.00240320
v -0.07035164 0.01452000 -0.00218630
v -0.07087998 0.01330883 -0.00200329
v -0.07280512 0.01253557 0.00021089
v -0.07341601 0.01295770 0.00122083
v -0.07140172 0.01209370 -0.00178865
v -0.07191025 0.01213710 -0.00112213
v -0.07242538 0.01201480 -0.00048951
v -0.07361084 0.01285513 0.00145806
v -0.06501211 0.02626093 -0.00211626
v -0.06475454 0.02573621 -0.00278051
v -0.06577160 0.02323101 -0.00324368
v -0.06645514 0.02205140 -0.00315557
v -0.06698348 0.02117162 -0.00303808
v -0.06426913 0.02555474 -0.00343799
v -0.06523335 0.02411868 -0.00329791
v -0.06748870 0.02021293 -0.00296804
v -0.06835056 0.01868219 -0.00273080
v -0.07444297 0.00963190 0.00145806
v -0.07440996 0.00978181 0.00145806
v -0.07420192 0.01065765 0.00145806
v -0.07399058 0.01080362 0.00120728
v -0.07345234 0.01105217 0.00054754
v -0.07220413 0.01139146 -0.00099787
v -0.07189043 0.01083913 -0.00157627
v -0.07081394 0.01076812 -0.00291155
v -0.07084036 0.01211343 -0.00246872
v -0.07029551 0.01055113 -0.00356225
v -0.06961857 0.00905195 -0.00461060
v -0.06957894 0.01076417 -0.00427847
v -0.06918269 0.01016450 -0.00481846
v -0.06810289 0.00546971 -0.00653106
v -0.06818215 0.00738708 -0.00623283
v -0.06762409 0.00681108 -0.00678863
v -0.06863454 0.00804198 -0.00573351
v -0.06879634 0.00942675 -0.00534038
v -0.06771324 0.00439661 -0.00693549
v -0.06844962 -0.00072426 -0.00648136
v -0.06872700 -0.00188810 -0.00621927
v -0.06768023 0.00206894 -0.00708009
v -0.06804346 0.00084199 -0.00681348
v -0.06717500 0.00375354 -0.00741674
v -0.05409528 -0.00188810 -0.01713428
v -0.05383441 -0.00157642 -0.01724273
v -0.05458400 -0.00188810 -0.01694675
v -0.05503969 -0.00032974 -0.01679312
v -0.05481514 0.00047903 -0.01689705
v -0.05491090 0.00247924 -0.01683830
v -0.05492411 0.00489371 -0.01671630
v -0.05375516 0.00541053 -0.01718625
v -0.05406226 0.00410072 -0.01712524
v -0.04555268 0.00479902 -0.02036292
v -0.04521256 0.00552889 -0.02046007
v -0.04485923 0.00624297 -0.02054593
v -0.04399078 0.00756856 -0.02078090
v -0.04349546 0.00813272 -0.02091194
v -0.04267984 0.00946620 -0.02108366
v -0.04192034 0.01117447 -0.02116499
v -0.05205787 0.01601524 -0.01649714
v -0.05196541 0.01734082 -0.01617631
v -0.05160217 0.01734082 -0.01637287
v -0.05268527 0.01502104 -0.01639095
v -0.05203145 0.01109162 -0.01737152
v -0.05312776 0.01087464 -0.01695127
v -0.05342825 0.01198324 -0.01661688
v -0.05329286 0.01387299 -0.01630057
v -0.05192578 0.01788132 -0.01604301
v -0.05186304 0.01932132 -0.01560921
v -0.05133800 0.02000384 -0.01568151
v -0.05014594 0.02147934 -0.01584192
v -0.04946240 0.02266685 -0.01577866
v -0.04853780 0.02385041 -0.01582611
v -0.04734904 0.02654104 -0.01533356
v -0.04826703 0.02543244 -0.01532679
v -0.04803258 0.02688032 -0.01480035
v -0.04789059 0.02811912 -0.01426940
v -0.04817787 0.02883320 -0.01371812
v -0.04780803 0.03025347 -0.01315101
v -0.04858073 0.03065194 -0.01243479
v -0.04762642 0.03200120 -0.01222241
v -0.04816466 0.03346882 -0.01093231
v -0.04847506 0.03643166 -0.00868650
v -0.04754716 0.03752448 -0.00847638
v -0.04630226 0.03841610 -0.00858709
v -0.04582346 0.03841610 -0.00888307
v -0.04908596 0.03392646 -0.01003308
v -0.04554608 0.03841610 -0.00905026
v -0.04448940 0.00919003 -0.02045555
v -0.05236497 0.01010138 -0.01735344
v -0.05186634 0.00883497 -0.01767201
v -0.04849818 0.03841610 -0.00718402
v -0.04811183 0.03796240 -0.00778275
v -0.04908596 0.03296777 -0.01066345
v -0.04944589 0.03260482 -0.01066345
v -0.05004357 0.03120427 -0.01115147
v -0.05084268 0.03113325 -0.01066345
v -0.05181351 0.03104251 -0.01006923
v -0.05371223 0.03099123 -0.00878817
v -0.05525102 0.03057304 -0.00795898
v -0.05649922 0.02972087 -0.00757263
v -0.05768139 0.02959462 -0.00676830
v -0.05888666 0.02910936 -0.00613567
v -0.06015138 0.02846235 -0.00550079
v -0.06085473 0.02755101 -0.00546464
v -0.06131703 0.02788241 -0.00484106
v -0.06198075 0.02698685 -0.00480942
v -0.06292516 0.02566915 -0.00473035
v -0.06340727 0.02589008 -0.00412258
v -0.06334453 0.02690399 -0.00351932
v -0.06794440 0.01833896 -0.00338150
v -0.06856189 0.01712384 -0.00323238
v -0.06921241 0.01575091 -0.00305615
v -0.06989265 0.01430302 -0.00282796
v -0.07046061 0.01300110 -0.00263365
v -0.07393115 0.01171102 0.00145806
v -0.07384529 0.01202269 0.00145806
v -0.06576499 0.02223682 -0.00381756
v -0.06505833 0.02339277 -0.00392149
v -0.06644523 0.02107693 -0.00369781
v -0.06713537 0.01981447 -0.00358259
v -0.06423281 0.02471835 -0.00400509
v -0.07413918 0.01091409 0.00145806
v -0.07397407 0.01155321 0.00145806
v -0.07032522 0.01193984 -0.00313297
v -0.06986623 0.01161239 -0.00374526
v -0.06892843 0.01235014 -0.00453604
v -0.06877983 0.01120998 -0.00497888
v -0.06832744 0.01063398 -0.00554598
v -0.06745898 0.00516198 -0.00709139
v -0.06758776 0.00887047 -0.00653784
v -0.06696696 0.00860614 -0.00710042
v -0.06664666 0.00659015 -0.00761330
v -0.06811941 0.00941491 -0.00596848
v -0.06777598 -0.00109905 -0.00701909
v -0.06797081 -0.00188810 -0.00684060
v -0.06736982 0.00040407 -0.00735573
v -0.05723890 0.00201371 -0.01529741
v -0.06698678 0.00172966 -0.00763589
v -0.06634286 0.00336297 -0.00809003
v -0.05793565 0.00383639 -0.01466027
v -0.06669289 0.00525667 -0.00769916
v -0.06557017 0.00484242 -0.00860968
v -0.05495713 -0.00188810 -0.01679312
v -0.05524772 -0.00132788 -0.01668467
v -0.05545576 -0.00188810 -0.01658073
v -0.05527414 0.00157185 -0.01669370
v -0.05534679 0.00376144 -0.01656040
v -0.05519819 0.00619957 -0.01641354
v -0.05491751 0.00700439 -0.01649036
v -0.05440898 0.00802620 -0.01667111
v -0.05467315 0.00552100 -0.01678408
v -0.05418114 0.00651124 -0.01693320
v -0.05347118 0.00613645 -0.01725629
v -0.05261263 0.00478324 -0.01765394
v -0.05385423 0.00722138 -0.01702357
v -0.05313436 0.00683475 -0.01734214
v -0.04559891 0.00709119 -0.02020928
v -0.04498141 0.00819584 -0.02035840
v -0.05261923 0.01668197 -0.01598652
v -0.05223949 0.01734082 -0.01601815
v -0.05336551 0.01552209 -0.01585096
v -0.05402593 0.01435825 -0.01573347
v -0.05287679 0.00925316 -0.01724047
v -0.05358345 0.00994357 -0.01686993
v -0.05399622 0.01091014 -0.01649262
v -0.05426039 0.01229885 -0.01605882
v -0.05382450 0.01291825 -0.01619438
v -0.05249705 0.01835474 -0.01554820
v -0.05257300 0.01734082 -0.01581481
v -0.05248054 0.01974345 -0.01508503
v -0.05175077 0.02078104 -0.01515733
v -0.05078655 0.02218948 -0.01520704
v -0.04986526 0.02333359 -0.01529064
v -0.04916190 0.02428044 -0.01531097
v -0.04877886 0.02596504 -0.01480487
v -0.04883830 0.02699079 -0.01427844
v -0.04934352 0.02746816 -0.01372489
v -0.04887132 0.02904230 -0.01318038
v -0.04972987 0.02956306 -0.01233312
v -0.04908266 0.03254564 -0.01093909
v -0.04753396 0.03841610 -0.00781438
v -0.04723016 0.03841610 -0.00800869
v -0.05241780 0.00806565 -0.01752741
v -0.05315748 0.00866927 -0.01718850
v -0.05060824 0.03021008 -0.01137289
v -0.05126866 0.03066377 -0.01066119
v -0.05218335 0.02961435 -0.01066345
v -0.05436936 0.03029687 -0.00875202
v -0.05549538 0.02916065 -0.00862550
v -0.05677330 0.02841895 -0.00813522
v -0.05795216 0.02830849 -0.00733540
v -0.05854985 0.02830849 -0.00688352
v -0.05861919 0.02855704 -0.00668018
v -0.05964615 0.02813884 -0.00611986
v -0.06064009 0.02686060 -0.00605434
v -0.06145242 0.02675013 -0.00543075
v -0.06249259 0.02533775 -0.00532230
v -0.06382334 0.02434356 -0.00463319
v -0.06747219 0.01810619 -0.00401639
v -0.06815903 0.01676482 -0.00383338
v -0.06871379 0.01560099 -0.00368878
v -0.06923552 0.01450422 -0.00351932
v -0.06988604 0.01304450 -0.00328887
v -0.06532911 0.02191726 -0.00444792
v -0.06599944 0.02078893 -0.00432366
v -0.06476775 0.02287200 -0.00450893
v -0.06680186 0.01934104 -0.00417002
v -0.06934450 0.01286696 -0.00394409
v -0.06844962 0.01347453 -0.00470097
v -0.06827791 0.01238959 -0.00517770
v -0.06775617 0.01201874 -0.00576740
v -0.06775287 0.01036570 -0.00611986
v -0.06720802 0.01163211 -0.00634354
v -0.06701319 0.01027497 -0.00677733
v -0.06656080 0.00964373 -0.00726536
v -0.06615134 0.00870083 -0.00775338
v -0.06539185 0.00855091 -0.00837471
v -0.06541827 0.00660198 -0.00858257
v -0.06691743 -0.00084262 -0.00770142
v -0.05645300 -0.00148963 -0.01593230
v -0.06704622 -0.00188810 -0.00757263
v -0.05743043 0.00118916 -0.01517089
v -0.05677000 -0.00030212 -0.01570410
v -0.05662801 0.00298029 -0.01571540
v -0.05645300 0.00076703 -0.01593682
v -0.05917725 0.00479113 -0.01361870
v -0.05842106 0.00561568 -0.01414288
v -0.05724220 0.00483848 -0.01511215
v -0.06516400 0.00615223 -0.00882206
v -0.05556803 -0.00188810 -0.01652425
v -0.05555482 0.00074730 -0.01655136
v -0.05573974 0.00277513 -0.01637513
v -0.05574304 0.00476746 -0.01620568
v -0.05549538 0.00575376 -0.01626894
v -0.05582229 0.00681108 -0.01592326
v -0.05533028 0.00782105 -0.01612208
v -0.05471938 0.00943069 -0.01628702
v -0.05393018 0.00921765 -0.01679312
v -0.05351411 0.00795124 -0.01710943
v -0.05275131 0.00751727 -0.01744155
v -0.05331598 0.01706071 -0.01544201
v -0.05414811 0.01571540 -0.01529741
v -0.05453446 0.01343902 -0.01562728
v -0.05478212 0.01456340 -0.01519348
v -0.05480854 0.01120209 -0.01592326
v -0.05426699 0.01040516 -0.01641580
v -0.05490760 0.01273677 -0.01554143
v -0.05349099 0.01817721 -0.01497432
v -0.05292633 0.01907671 -0.01503759
v -0.05314096 0.01734082 -0.01546461
v -0.05335891 0.01734082 -0.01532679
v -0.05292633 0.02031945 -0.01459475
v -0.05186304 0.02190542 -0.01465801
v -0.05122904 0.02276942 -0.01470320
v -0.05060493 0.02359397 -0.01474613
v -0.04947561 0.02504581 -0.01480035
v -0.04935673 0.02636745 -0.01427166
v -0.05009641 0.02551528 -0.01421292
v -0.04993130 0.02676591 -0.01371812
v -0.05083608 0.02725906 -0.01288441
v -0.05003036 0.02807178 -0.01296574
v -0.05092854 0.02902651 -0.01184736
v -0.05245413 0.02929873 -0.01066119
v -0.05249375 0.02949205 -0.01052111
v -0.05425709 0.02838739 -0.00993367
v -0.05443870 0.02830849 -0.00985234
v -0.05667094 0.02830849 -0.00827304
v -0.05839134 0.02777194 -0.00731506
v -0.05958672 0.02721961 -0.00670278
v -0.06035611 0.02620964 -0.00665307
v -0.06151185 0.02570071 -0.00597526
v -0.06225153 0.02460394 -0.00592555
v -0.06332472 0.02405556 -0.00526130
v -0.06404788 0.02294301 -0.00517092
v -0.06700659 0.01779058 -0.00463319
v -0.06751181 0.01734082 -0.00428525
v -0.06779910 0.01620855 -0.00443437
v -0.06826140 0.01526959 -0.00430107
v -0.06876002 0.01422411 -0.00413839
v -0.06468189 0.02190148 -0.00508959
v -0.06554705 0.02045753 -0.00493821
v -0.06618436 0.01931343 -0.00481394
v -0.06802694 0.01446083 -0.00481846
v -0.06787175 0.01341929 -0.00529067
v -0.06730048 0.01298926 -0.00593233
v -0.06663675 0.01123365 -0.00691064
v -0.06671270 0.01272494 -0.00651073
v -0.06617776 0.01229096 -0.00705976
v -0.06605558 0.01082729 -0.00746644
v -0.06576829 0.00967135 -0.00790476
v -0.05821303 0.00909929 -0.01386949
v -0.05771441 0.00845623 -0.01435074
v -0.05845408 0.00754883 -0.01390790
v -0.05886685 0.00696494 -0.01365485
v -0.05955369 0.00644812 -0.01317587
v -0.05645300 -0.00104777 -0.01594133
v -0.05624826 -0.00151725 -0.01609045
v -0.05645300 -0.00180525 -0.01592326
v -0.05635063 -0.00188810 -0.01600008
v -0.05645300 0.00049875 -0.01594133
v -0.05645300 -0.00049149 -0.01595037
v -0.05593456 0.00224648 -0.01626442
v -0.05645300 0.00335508 -0.01581933
v -0.05638695 0.00066445 -0.01598652
v -0.05601051 -0.00075582 -0.01628476
v -0.05752288 0.00599047 -0.01479131
v -0.05645300 0.00553678 -0.01562276
v -0.05645300 0.00419935 -0.01574929
v -0.05609637 -0.00188810 -0.01618309
v -0.05571332 0.00004505 -0.01646551
v -0.05616241 0.00396659 -0.01598200
v -0.05631100 0.00565513 -0.01571314
v -0.05639356 0.00757250 -0.01543072
v -0.05598079 0.00870083 -0.01555724
v -0.05547887 0.00985677 -0.01571766
v -0.05437596 0.01677271 -0.01482972
v -0.05401933 0.01734082 -0.01489073
v -0.05523121 0.01520647 -0.01470772
v -0.05516187 0.01386510 -0.01511215
v -0.05577276 0.01427935 -0.01458119
v -0.05610627 0.01028286 -0.01521608
v -0.05543594 0.01170313 -0.01540586
v -0.05578267 0.01279595 -0.01492914
v -0.05428680 0.01832712 -0.01439141
v -0.05352071 0.01948701 -0.01450664
v -0.05366601 0.02055616 -0.01401183
v -0.05295935 0.02160953 -0.01407284
v -0.05199513 0.02294301 -0.01414965
v -0.05104411 0.02420548 -0.01421292
v -0.05085259 0.02563759 -0.01367971
v -0.05163520 0.02454871 -0.01368422
v -0.05143047 0.02603211 -0.01311486
v -0.05210410 0.02777589 -0.01175246
v -0.05226920 0.02641085 -0.01236701
v -0.05326315 0.02830849 -0.01066119
v -0.05424718 0.02830849 -0.00998564
v -0.05404575 0.02703419 -0.01081483
v -0.05601382 0.02759046 -0.00914063
v -0.05785970 0.02740109 -0.00791154
v -0.05839795 0.02670279 -0.00788894
v -0.05894940 0.02697106 -0.00733314
v -0.05984098 0.02584274 -0.00724728
v -0.06102314 0.02526279 -0.00660562
v -0.06173640 0.02424098 -0.00653558
v -0.06226474 0.02347956 -0.00647232
v -0.06297139 0.02349928 -0.00585777
v -0.06373749 0.02234334 -0.00574254
v -0.06598293 0.01847704 -0.00536523
v -0.06651457 0.01745129 -0.00525678
v -0.06705942 0.01734082 -0.00475294
v -0.06723113 0.01734082 -0.00457897
v -0.06719811 0.01615726 -0.00506021
v -0.06465217 0.02080077 -0.00561828
v -0.06534232 0.01960931 -0.00550079
v -0.06706273 0.01500921 -0.00557083
v -0.06674242 0.01429118 -0.00608145
v -0.06621738 0.01381776 -0.00666437
v -0.06546119 0.01213710 -0.00767430
v -0.06564612 0.01341140 -0.00723825
v -0.06465547 0.01181754 -0.00837471
v -0.06468850 0.01056691 -0.00858483
v -0.05797528 0.01015266 -0.01387627
v -0.05908809 0.00988045 -0.01305838
v -0.05709361 0.00993173 -0.01457216
v -0.05670726 0.00887442 -0.01502629
v -0.05723230 0.00765141 -0.01481165
v -0.05723230 0.00670061 -0.01492914
v -0.05645300 0.00569458 -0.01560695
v -0.05645300 0.00581689 -0.01559339
v -0.05645300 0.00751727 -0.01539457
v -0.05494723 0.01715934 -0.01431911
v -0.05434294 0.01734082 -0.01467157
v -0.05637044 0.01468965 -0.01404120
v -0.05572323 0.01581008 -0.01418354
v -0.05639356 0.01304450 -0.01444111
v -0.05644969 0.01320231 -0.01436429
v -0.05674689 0.01398740 -0.01395309
v -0.05645300 0.01016055 -0.01499240
v -0.05645300 0.01133622 -0.01477098
v -0.05645300 0.01240143 -0.01454053
v -0.05645300 0.01293798 -0.01442304
v -0.05496044 0.01854017 -0.01384916
v -0.05422406 0.01970005 -0.01395083
v -0.05484486 0.01734082 -0.01433040
v -0.05459060 0.02113216 -0.01315553
v -0.05370233 0.02175945 -0.01351703
v -0.05483826 0.02044964 -0.01324591
v -0.05270839 0.02317183 -0.01358481
v -0.05199843 0.02525885 -0.01311260
v -0.05266216 0.02433567 -0.01309905
v -0.05294944 0.02516022 -0.01252291
v -0.05355703 0.02570860 -0.01184058
v -0.05513875 0.02609523 -0.01053918
v -0.05692520 0.02673830 -0.00894181
v -0.05759553 0.02622542 -0.00871813
v -0.05815029 0.02564548 -0.00860065
v -0.05930934 0.02546794 -0.00783020
v -0.05977494 0.02481698 -0.00780309
v -0.06060377 0.02467496 -0.00723147
v -0.06157790 0.02339277 -0.00706201
v -0.06242984 0.02207507 -0.00696486
v -0.06305725 0.02223682 -0.00637517
v -0.06357898 0.02141622 -0.00629157
v -0.06547770 0.01812197 -0.00595944
v -0.06589708 0.01734082 -0.00586229
v -0.06612823 0.01690685 -0.00580807
v -0.06652118 0.01734082 -0.00529067
v -0.06658392 0.01599946 -0.00569962
v -0.06429885 0.02019715 -0.00618312
v -0.06480077 0.01934893 -0.00609049
v -0.06598954 0.01584559 -0.00628027
v -0.06575178 0.01483562 -0.00678411
v -0.06530269 0.01413337 -0.00733766
v -0.06506164 0.01300899 -0.00779857
v -0.05798188 0.01155716 -0.01359159
v -0.05862580 0.01237776 -0.01291830
v -0.05733136 0.01120603 -0.01415417
v -0.05562416 0.01734082 -0.01378138
v -0.05561426 0.01744340 -0.01375427
v -0.05695492 0.01508811 -0.01350348
v -0.05640016 0.01614543 -0.01359159
v -0.05711012 0.01327726 -0.01386271
v -0.05763516 0.01401502 -0.01328432
v -0.05686246 0.01215288 -0.01430103
v -0.05536329 0.01945940 -0.01324365
v -0.05606665 0.02175551 -0.01185640
v -0.05454107 0.02207112 -0.01280985
v -0.05390376 0.02310476 -0.01280759
v -0.05388394 0.02388591 -0.01247320
v -0.05489439 0.02472230 -0.01138419
v -0.05563077 0.02512865 -0.01066119
v -0.05590815 0.02471835 -0.01066119
v -0.05732806 0.02471441 -0.00964221
v -0.05923009 0.02445402 -0.00837471
v -0.06022733 0.02415813 -0.00776242
v -0.06088115 0.02302586 -0.00776016
v -0.06156138 0.02216186 -0.00761330
v -0.06199066 0.02149118 -0.00755456
v -0.06330160 0.02061140 -0.00685641
v -0.06480407 0.01804307 -0.00656947
v -0.06562300 0.01734082 -0.00609952
v -0.06391910 0.01957381 -0.00674796
v -0.06518382 0.01734082 -0.00647684
v -0.06502531 0.01619672 -0.00697842
v -0.06453330 0.01565622 -0.00753196
v -0.06362191 0.01394400 -0.00869328
v -0.06402477 0.01524987 -0.00804484
v -0.05820312 0.01313524 -0.01307194
v -0.05746345 0.01256318 -0.01376330
v -0.05667754 0.01790104 -0.01282792
v -0.05781678 0.01532877 -0.01277822
v -0.05745024 0.01657151 -0.01267881
v -0.05700115 0.01734082 -0.01276692
v -0.06309027 0.01640976 -0.00843797
v -0.05717616 0.01975529 -0.01180217
v -0.05783989 0.02148723 -0.01066345
v -0.05779696 0.02157403 -0.01066119
v -0.05941500 0.02338093 -0.00872039
v -0.05827907 0.02372811 -0.00940272
v -0.05660820 0.02362159 -0.01066119
v -0.05576615 0.02357425 -0.01129155
v -0.05636384 0.02400822 -0.01066345
v -0.05994334 0.02294696 -0.00851253
v -0.06088115 0.02185414 -0.00825722
v -0.06137316 0.02078499 -0.00830693
v -0.06253882 0.02052066 -0.00750485
v -0.06322896 0.01944362 -0.00735347
v -0.06390919 0.01826400 -0.00722243
v -0.06441772 0.01734082 -0.00712076
v -0.06384315 0.01704888 -0.00766753
v -0.06198075 0.01848493 -0.00864357
v -0.06121466 0.01994466 -0.00872717
v -0.05867533 0.01982630 -0.01066119
v -0.06276006 0.01734082 -0.00841086
v -0.06261146 0.01775507 -0.00839730
v -0.05867202 0.01734082 -0.01150845
v -0.05838474 0.02042597 -0.01066119
v -0.05952067 0.02105720 -0.00958347
v -0.06185197 0.02039441 -0.00808325
v -0.06287893 0.01877293 -0.00785957
v -0.06368135 0.01734082 -0.00770142
v -0.06385966 0.01734082 -0.00756134
f 1 2 3
f 1 3 4
f 1 4 5
f 1 5 11
f 1 11 21
f 1 21 37
f 1 37 60
f 1 60 161
f 1 161 258
f 1 258 363
f 1 363 463
f 1 463 578
f 1 578 685
f 1 685 684
f 1 684 692
f 1 692 691
f 1 691 590
f 1 590 589
f 1 589 588
f 1 588 474
f 1 474 380
f 1 380 379
f 1 379 275
f 1 275 183
f 1 183 95
f 1 95 94
f 1 94 38
f 1 38 22
f 1 22 13
f 1 13 12
f 1 12 6
f 1 6 2
f 2 6 7
f 2 7 3
f 3 7 8
f 3 8 9
f 3 9 10
f 3 10 4
f 4 10 9
f 4 9 16
f 4 16 27
f 4 27 43
f 4 43 49
f 4 49 109
f 4 109 108
f 4 108 107
f 4 107 198
f 4 198 291
f 4 291 290
f 4 290 395
f 4 395 490
f 4 490 608
f 4 608 704
f 4 704 790
f 4 790 868
f 4 868 878
f 4 878 799
f 4 799 714
f 4 714 712
f 4 712 614
f 4 614 612
f 4 612 494
f 4 494 399
f 4 399 398
f 4 398 298
f 4 298 297
f 4 297 294
f 4 294 199
f 4 199 110
f 4 110 50
f 4 50 32
f 4 32 19
f 4 19 11
f 4 11 5
f 6 12 7
f 7 12 13
f 7 13 14
f 7 14 15
f 7 15 8
f 8 16 9
f 8 15 17
f 8 17 18
f 8 18 16
f 11 19 20
f 11 20 21
f 13 22 14
f 14 22 23
f 14 23 24
f 14 24 25
f 14 25 15
f 15 25 26
f 15 26 17
f 16 18 27
f 17 26 28
f 17 28 18
f 18 28 29
f 18 29 30
f 18 30 31
f 18 31 27
f 19 32 52
f 19 52 114
f 19 114 205
f 19 205 302
f 19 302 406
f 19 406 405
f 19 405 509
f 19 509 627
f 19 627 542
f 19 542 435
f 19 435 334
f 19 334 333
f 19 333 234
f 19 234 144
f 19 144 53
f 19 53 33
f 19 33 34
f 19 34 35
f 19 35 20
f 20 35 54
f 20 54 143
f 20 143 233
f 20 233 331
f 20 331 433
f 20 433 540
f 20 540 656
f 20 656 654
f 20 654 653
f 20 653 751
f 20 751 750
f 20 750 660
f 20 660 550
f 20 550 549
f 20 549 548
f 20 548 448
f 20 448 347
f 20 347 243
f 20 243 151
f 20 151 150
f 20 150 146
f 20 146 55
f 20 55 36
f 20 36 37
f 20 37 21
f 22 38 23
f 23 38 39
f 23 39 24
f 24 40 25
f 24 39 41
f 24 41 40
f 25 40 26
f 26 40 42
f 26 42 28
f 27 31 43
f 28 42 29
f 29 42 44
f 29 44 45
f 29 45 30
f 30 45 46
f 30 46 47
f 30 47 31
f 31 47 48
f 31 48 49
f 31 49 43
f 32 50 51
f 32 51 52
f 33 53 143
f 33 143 54
f 33 54 34
f 34 54 35
f 36 55 56
f 36 56 57
f 36 57 58
f 36 58 59
f 36 59 37
f 37 59 61
f 37 61 62
f 37 62 63
f 37 63 64
f 37 64 65
f 37 65 66
f 37 66 67
f 37 67 68
f 37 68 69
f 37 69 70
f 37 70 71
f 37 71 72
f 37 72 73
f 37 73 74
f 37 74 75
f 37 75 76
f 37 76 77
f 37 77 78
f 37 78 79
f 37 79 80
f 37 80 81
f 37 81 82
f 37 82 83
f 37 83 84
f 37 84 85
f 37 85 86
f 37 86 87
f 37 87 88
f 37 88 89
f 37 89 90
f 37 90 91
f 37 91 92
f 37 92 93
f 37 93 60
f 38 94 39
f 39 94 95
f 39 95 96
f 39 96 41
f 40 41 97
f 40 97 98
f 40 98 42
f 41 96 99
f 41 99 97
f 42 98 100
f 42 100 44
f 44 100 101
f 44 101 102
f 44 102 45
f 45 102 103
f 45 103 46
f 46 104 47
f 46 103 105
f 46 105 104
f 47 106 107
f 47 107 48
f 47 104 106
f 48 107 108
f 48 108 109
f 48 109 49
f 50 110 51
f 51 111 112
f 51 112 52
f 51 110 111
f 52 112 113
f 52 113 114
f 53 115 116
f 53 116 117
f 53 117 118
f 53 118 119
f 53 119 120
f 53 120 121
f 53 121 122
f 53 122 123
f 53 123 124
f 53 124 125
f 53 125 126
f 53 126 127
f 53 127 128
f 53 128 129
f 53 129 130
f 53 130 131
f 53 131 132
f 53 132 133
f 53 133 134
f 53 134 135
f 53 135 136
f 53 136 137
f 53 137 138
f 53 138 139
f 53 139 140
f 53 140 141
f 53 141 142
f 53 142 143
f 53 144 145
f 53 145 115
f 55 146 56
f 56 147 148
f 56 148 149
f 56 149 57
f 56 146 150
f 56 150 151
f 56 151 147
f 57 149 152
f 57 152 153
f 57 153 154
f 57 154 155
f 57 155 156
f 57 156 157
f 57 157 58
f 58 157 62
f 58 62 61
f 58 61 59
f 60 158 159
f 60 159 160
f 60 160 161
f 60 93 158
f 62 157 162
f 62 162 63
f 63 162 64
f 64 162 163
f 64 163 65
f 65 163 66
f 66 163 164
f 66 164 67
f 67 164 68
f 68 164 165
f 68 165 166
f 68 166 69
f 69 166 70
f 70 166 167
f 70 167 71
f 71 167 72
f 72 167 73
f 73 167 168
f 73 168 169
f 73 169 74
f 74 169 75
f 75 169 76
f 76 169 77
f 77 170 78
f 77 169 170
f 78 170 171
f 78 171 79
f 79 171 172
f 79 172 80
f 80 172 173
f 80 173 81
f 81 173 82
f 82 174 175
f 82 175 83
f 82 173 174
f 83 175 84
f 84 175 85
f 85 175 176
f 85 176 86
f 86 176 177
f 86 177 178
f 86 178 87
f 87 178 88
f 88 178 89
f 89 178 179
f 89 179 180
f 89 180 181
f 89 181 90
f 90 181 91
f 91 182 92
f 91 181 182
f 92 182 93
f 93 182 158
f 95 183 96
f 96 183 184
f 96 184 99
f 97 185 98
f 97 99 186
f 97 186 185
f 98 185 100
f 99 184 187
f 99 187 188
f 99 188 186
f 100 185 189
f 100 189 101
f 101 189 190
f 101 190 191
f 101 191 102
f 102 191 192
f 102 192 103
f 103 192 193
f 103 193 105
f 104 105 194
f 104 194 195
f 104 195 106
f 105 193 196
f 105 196 197
f 105 197 194
f 106 195 107
f 107 195 198
f 110 199 200
f 110 200 111
f 111 200 201
f 111 201 202
f 111 202 112
f 112 202 203
f 112 203 113
f 113 203 204
f 113 204 114
f 114 204 205
f 115 206 207
f 115 207 116
f 115 145 208
f 115 208 209
f 115 209 206
f 116 207 117
f 117 207 210
f 117 210 211
f 117 211 118
f 118 211 212
f 118 212 119
f 119 212 120
f 120 212 213
f 120 213 121
f 121 213 214
f 121 214 122
f 122 214 215
f 122 215 123
f 123 215 216
f 123 216 217
f 123 217 124
f 124 217 125
f 125 217 126
f 126 217 218
f 126 218 127
f 127 218 219
f 127 219 128
f 128 219 220
f 128 220 129
f 129 220 221
f 129 221 130
f 130 221 222
f 130 222 131
f 131 222 132
f 132 222 133
f 133 222 223
f 133 223 224
f 133 224 134
f 134 224 135
f 135 224 225
f 135 225 136
f 136 225 137
f 137 225 226
f 137 226 138
f 138 226 227
f 138 227 228
f 138 228 139
f 139 228 140
f 140 228 229
f 140 229 230
f 140 230 141
f 141 230 231
f 141 231 142
f 142 231 232
f 142 232 233
f 142 233 143
f 144 234 235
f 144 235 145
f 145 235 236
f 145 236 208
f 147 151 237
f 147 237 238
f 147 238 239
f 147 239 148
f 148 152 149
f 148 239 240
f 148 240 241
f 148 241 242
f 148 242 152
f 151 243 237
f 152 242 153
f 153 242 244
f 153 244 245
f 153 245 246
f 153 246 154
f 154 247 155
f 154 246 248
f 154 248 249
f 154 249 250
f 154 250 247
f 155 247 251
f 155 251 156
f 156 251 252
f 156 252 162
f 156 162 157
f 158 182 253
f 158 253 159
f 159 254 255
f 159 255 160
f 159 253 254
f 160 255 256
f 160 256 257
f 160 257 161
f 161 257 258
f 162 252 163
f 163 252 259
f 163 259 165
f 163 165 164
f 165 259 260
f 165 260 261
f 165 261 166
f 166 261 262
f 166 262 167
f 167 262 168
f 168 263 264
f 168 264 169
f 168 262 263
f 169 264 170
f 170 265 171
f 170 264 265
f 171 265 266
f 171 266 172
f 172 266 173
f 173 267 268
f 173 268 174
f 173 266 267
f 174 268 175
f 175 268 269
f 175 269 176
f 176 269 177
f 177 269 270
f 177 270 271
f 177 271 179
f 177 179 178
f 179 272 273
f 179 273 180
f 179 271 272
f 180 273 181
f 181 273 274
f 181 274 253
f 181 253 182
f 183 275 276
f 183 276 184
f 184 276 277
f 184 277 278
f 184 278 187
f 185 186 279
f 185 279 189
f 186 188 279
f 187 278 188
f 188 278 280
f 188 280 281
f 188 281 279
f 189 279 282
f 189 282 190
f 190 282 283
f 190 283 191
f 191 284 192
f 191 283 285
f 191 285 284
f 192 284 193
f 193 284 286
f 193 286 287
f 193 287 196
f 194 197 288
f 194 288 289
f 194 289 195
f 195 289 290
f 195 290 291
f 195 291 198
f 196 292 293
f 196 293 197
f 196 287 292
f 197 293 288
f 199 294 200
f 200 295 296
f 200 296 201
f 200 294 297
f 200 297 298
f 200 298 295
f 201 296 299
f 201 299 300
f 201 300 202
f 202 300 203
f 203 300 301
f 203 301 204
f 204 301 302
f 204 302 205
f 206 209 303
f 206 303 207
f 207 304 210
f 207 303 304
f 208 305 209
f 208 236 306
f 208 306 305
f 209 305 307
f 209 307 303
f 210 304 308
f 210 308 309
f 210 309 211
f 211 309 212
f 212 309 310
f 212 310 213
f 213 310 214
f 214 310 311
f 214 311 216
f 214 216 215
f 216 311 312
f 216 312 313
f 216 313 314
f 216 314 217
f 217 315 316
f 217 316 218
f 217 314 317
f 217 317 315
f 218 316 219
f 219 316 220
f 220 318 319
f 220 319 221
f 220 316 320
f 220 320 318
f 221 319 222
f 222 319 223
f 223 321 225
f 223 225 224
f 223 319 322
f 223 322 321
f 225 323 226
f 225 321 323
f 226 324 227
f 226 323 324
f 227 324 325
f 227 325 326
f 227 326 228
f 228 326 229
f 229 326 327
f 229 327 230
f 230 327 328
f 230 328 329
f 230 329 231
f 231 329 232
f 232 330 233
f 232 329 330
f 233 330 332
f 233 332 331
f 234 333 235
f 235 333 334
f 235 334 335
f 235 335 236
f 236 335 336
f 236 336 337
f 236 337 306
f 237 243 338
f 237 338 238
f 238 338 239
f 239 339 240
f 239 338 340
f 239 340 339
f 240 339 341
f 240 341 342
f 240 342 343
f 240 343 344
f 240 344 345
f 240 345 241
f 241 345 242
f 242 345 346
f 242 346 244
f 243 347 338
f 244 346 348
f 244 348 245
f 245 348 349
f 245 349 246
f 246 349 248
f 247 250 260
f 247 260 251
f 248 349 350
f 248 350 351
f 248 351 249
f 249 351 352
f 249 352 353
f 249 353 354
f 249 354 250
f 250 354 355
f 250 355 260
f 251 260 252
f 252 260 259
f 253 274 356
f 253 356 254
f 254 356 357
f 254 357 255
f 255 358 256
f 255 357 358
f 256 359 257
f 256 358 360
f 256 360 361
f 256 361 359
f 257 359 362
f 257 362 363
f 257 363 258
f 260 355 261
f 261 355 364
f 261 364 262
f 262 364 263
f 263 365 366
f 263 366 264
f 263 364 365
f 264 366 367
f 264 367 368
f 264 368 265
f 265 368 369
f 265 369 266
f 266 369 267
f 267 369 370
f 267 370 268
f 268 371 269
f 268 370 371
f 269 372 270
f 269 371 372
f 270 372 373
f 270 373 374
f 270 374 271
f 271 374 375
f 271 375 272
f 272 375 376
f 272 376 273
f 273 376 377
f 273 377 274
f 274 378 357
f 274 357 356
f 274 377 378
f 275 379 276
f 276 379 380
f 276 380 381
f 276 381 277
f 277 381 382
f 277 382 278
f 278 382 383
f 278 383 280
f 279 281 282
f 280 383 384
f 280 384 385
f 280 385 386
f 280 386 281
f 281 386 282
f 282 386 283
f 283 386 385
f 283 385 387
f 283 387 388
f 283 388 285
f 284 285 389
f 284 389 286
f 285 388 389
f 286 390 287
f 286 389 391
f 286 391 390
f 287 392 292
f 287 390 392
f 288 393 394
f 288 394 289
f 288 293 393
f 289 394 290
f 290 394 395
f 292 396 397
f 292 397 293
f 292 392 396
f 293 397 393
f 295 298 398
f 295 398 399
f 295 399 400
f 295 400 401
f 295 401 296
f 296 401 299
f 299 402 403
f 299 403 300
f 299 401 402
f 300 403 301
f 301 403 404
f 301 404 405
f 301 405 406
f 301 406 302
f 303 307 304
f 304 307 407
f 304 407 308
f 305 306 408
f 305 408 409
f 305 409 307
f 306 337 410
f 306 410 408
f 307 409 407
f 308 411 412
f 308 412 413
f 308 413 414
f 308 414 309
f 308 407 411
f 309 414 310
f 310 414 415
f 310 415 416
f 310 416 311
f 311 416 312
f 312 416 417
f 312 417 418
f 312 418 313
f 313 418 317
f 313 317 314
f 315 317 419
f 315 419 320
f 315 320 316
f 317 418 420
f 317 420 419
f 318 320 421
f 318 421 422
f 318 422 423
f 318 423 322
f 318 322 319
f 320 419 421
f 321 322 424
f 321 424 425
f 321 425 426
f 321 426 323
f 322 423 424
f 323 426 324
f 324 426 427
f 324 427 428
f 324 428 325
f 325 429 327
f 325 327 326
f 325 428 429
f 327 429 328
f 328 430 329
f 328 429 431
f 328 431 430
f 329 432 330
f 329 430 432
f 330 433 332
f 330 432 434
f 330 434 433
f 331 332 433
f 334 435 336
f 334 336 335
f 336 435 436
f 336 436 437
f 336 437 438
f 336 438 337
f 337 438 410
f 338 347 340
f 339 340 439
f 339 439 341
f 340 347 440
f 340 440 439
f 341 441 342
f 341 439 442
f 341 442 441
f 342 441 443
f 342 443 343
f 343 443 444
f 343 444 344
f 344 444 445
f 344 445 345
f 345 445 446
f 345 446 346
f 346 446 447
f 346 447 348
f 347 448 440
f 348 447 449
f 348 449 349
f 349 449 350
f 350 449 450
f 350 450 351
f 351 450 451
f 351 451 452
f 351 452 352
f 352 452 453
f 352 453 454
f 352 454 353
f 353 454 455
f 353 455 365
f 353 365 364
f 353 364 354
f 354 364 355
f 357 378 456
f 357 456 457
f 357 457 458
f 357 458 358
f 358 458 459
f 358 459 360
f 359 361 460
f 359 460 362
f 360 461 462
f 360 462 361
f 360 459 461
f 361 462 460
f 362 460 463
f 362 463 363
f 365 455 464
f 365 464 366
f 366 464 367
f 367 464 465
f 367 465 466
f 367 466 369
f 367 369 368
f 369 466 467
f 369 467 370
f 370 467 371
f 371 467 468
f 371 468 372
f 372 468 373
f 373 469 470
f 373 470 374
f 373 468 471
f 373 471 469
f 374 470 375
f 375 472 376
f 375 470 472
f 376 472 473
f 376 473 378
f 376 378 377
f 378 473 456
f 380 474 381
f 381 474 475
f 381 475 476
f 381 476 382
f 382 476 477
f 382 477 478
f 382 478 383
f 383 478 479
f 383 479 384
f 384 479 480
f 384 480 481
f 384 481 385
f 385 481 482
f 385 482 387
f 387 482 388
f 388 483 389
f 388 482 484
f 388 484 483
f 389 483 391
f 390 485 392
f 390 391 486
f 390 486 485
f 391 483 487
f 391 487 486
f 392 485 488
f 392 488 396
f 393 397 489
f 393 489 490
f 393 490 394
f 394 490 395
f 396 491 492
f 396 492 397
f 396 488 493
f 396 493 491
f 397 492 489
f 399 494 400
f 400 494 495
f 400 495 496
f 400 496 497
f 400 497 401
f 401 497 402
f 402 497 498
f 402 498 499
f 402 499 500
f 402 500 501
f 402 501 502
f 402 502 403
f 403 502 503
f 403 503 504
f 403 504 505
f 403 505 404
f 404 505 506
f 404 506 507
f 404 507 508
f 404 508 405
f 405 508 509
f 407 409 510
f 407 510 511
f 407 511 411
f 408 410 512
f 408 512 510
f 408 510 409
f 410 438 513
f 410 513 514
f 410 514 515
f 410 515 512
f 411 516 412
f 411 511 516
f 412 517 518
f 412 518 413
f 412 516 517
f 413 518 519
f 413 519 520
f 413 520 521
f 413 521 414
f 414 521 416
f 414 416 415
f 416 521 417
f 417 522 523
f 417 523 420
f 417 420 418
f 417 521 522
f 419 420 524
f 419 524 525
f 419 525 421
f 420 526 524
f 420 523 526
f 421 525 422
f 422 525 527
f 422 527 528
f 422 528 529
f 422 529 423
f 423 529 424
f 424 529 425
f 425 530 427
f 425 427 426
f 425 529 531
f 425 531 532
f 425 532 530
f 427 530 533
f 427 533 428
f 428 534 429
f 428 533 534
f 429 534 535
f 429 535 536
f 429 536 431
f 430 537 538
f 430 538 434
f 430 434 432
f 430 431 537
f 431 536 539
f 431 539 537
f 433 434 540
f 434 538 541
f 434 541 540
f 435 542 436
f 436 543 544
f 436 544 437
f 436 542 543
f 437 544 545
f 437 545 546
f 437 546 438
f 438 546 513
f 439 440 547
f 439 547 442
f 440 448 548
f 440 548 549
f 440 549 550
f 440 550 547
f 441 551 552
f 441 552 443
f 441 442 553
f 441 553 551
f 442 547 554
f 442 554 553
f 443 552 555
f 443 555 556
f 443 556 444
f 444 556 445
f 445 556 557
f 445 557 558
f 445 558 559
f 445 559 446
f 446 559 447
f 447 559 560
f 447 560 561
f 447 561 449
f 449 561 562
f 449 562 450
f 450 562 451
f 451 563 564
f 451 564 565
f 451 565 452
f 451 562 563
f 452 565 566
f 452 566 453
f 453 566 454
f 454 566 567
f 454 567 464
f 454 464 455
f 456 473 568
f 456 568 457
f 457 569 458
f 457 568 569
f 458 569 570
f 458 570 459
f 459 570 571
f 459 571 572
f 459 572 461
f 460 462 573
f 460 573 574
f 460 574 463
f 461 572 575
f 461 575 576
f 461 576 462
f 462 576 577
f 462 577 573
f 463 574 578
f 464 567 465
f 465 567 579
f 465 579 466
f 466 579 467
f 467 579 468
f 468 579 580
f 468 580 471
f 469 581 470
f 469 471 581
f 470 581 582
f 470 582 583
f 470 583 472
f 471 580 584
f 471 584 585
f 471 585 581
f 472 583 586
f 472 586 473
f 473 587 568
f 473 586 587
f 474 588 475
f 475 589 590
f 475 590 591
f 475 591 476
f 475 588 589
f 476 591 592
f 476 592 477
f 477 592 593
f 477 593 594
f 477 594 478
f 478 594 479
f 479 594 480
f 480 595 481
f 480 594 575
f 480 575 596
f 480 596 595
f 481 595 597
f 481 597 482
f 482 597 484
f 483 484 598
f 483 598 487
f 484 597 599
f 484 599 600
f 484 600 598
f 485 601 488
f 485 486 602
f 485 602 603
f 485 603 601
f 486 487 604
f 486 604 602
f 487 598 605
f 487 605 604
f 488 606 493
f 488 601 606
f 489 607 490
f 489 492 607
f 490 607 608
f 491 493 609
f 491 609 610
f 491 610 492
f 492 610 607
f 493 606 611
f 493 611 609
f 494 612 613
f 494 613 495
f 495 613 614
f 495 614 615
f 495 615 616
f 495 616 496
f 496 616 497
f 497 616 498
f 498 617 499
f 498 616 617
f 499 618 619
f 499 619 620
f 499 620 500
f 499 617 618
f 500 620 621
f 500 621 502
f 500 502 501
f 502 621 622
f 502 622 503
f 503 622 504
f 504 622 623
f 504 623 624
f 504 624 505
f 505 624 507
f 505 507 506
f 507 624 625
f 507 625 626
f 507 626 509
f 507 509 508
f 509 626 543
f 509 543 627
f 510 512 628
f 510 628 511
f 511 628 629
f 511 629 630
f 511 630 516
f 512 631 628
f 512 515 631
f 513 546 632
f 513 632 633
f 513 633 514
f 514 633 515
f 515 633 634
f 515 634 635
f 515 635 631
f 516 630 517
f 517 630 636
f 517 636 637
f 517 637 518
f 518 637 638
f 518 638 639
f 518 639 519
f 519 639 520
f 520 640 522
f 520 522 521
f 520 639 640
f 522 640 641
f 522 641 526
f 522 526 523
f 524 642 525
f 524 526 643
f 524 643 642
f 525 642 527
f 526 641 643
f 527 642 644
f 527 644 528
f 528 645 531
f 528 531 529
f 528 644 645
f 530 532 533
f 531 645 646
f 531 646 532
f 532 646 647
f 532 647 533
f 533 647 648
f 533 648 649
f 533 649 534
f 534 649 535
f 535 650 536
f 535 649 650
f 536 650 539
f 537 651 652
f 537 652 538
f 537 539 651
f 538 652 653
f 538 653 654
f 538 654 541
f 539 650 655
f 539 655 551
f 539 551 553
f 539 553 651
f 540 541 656
f 541 654 656
f 542 627 543
f 543 626 657
f 543 657 544
f 544 657 545
f 545 657 546
f 546 658 632
f 546 657 659
f 546 659 658
f 547 550 660
f 547 660 661
f 547 661 554
f 551 655 552
f 552 655 662
f 552 662 663
f 552 663 664
f 552 664 665
f 552 665 666
f 552 666 555
f 553 554 651
f 554 661 651
f 555 666 667
f 555 667 556
f 556 667 668
f 556 668 557
f 557 668 669
f 557 669 558
f 558 669 670
f 558 670 560
f 558 560 559
f 560 670 671
f 560 671 561
f 561 671 672
f 561 672 562
f 562 672 673
f 562 673 674
f 562 674 563
f 563 674 675
f 563 675 564
f 564 566 565
f 564 675 676
f 564 676 677
f 564 677 678
f 564 678 566
f 566 678 567
f 567 678 584
f 567 584 580
f 567 580 579
f 568 587 679
f 568 679 680
f 568 680 569
f 569 680 681
f 569 681 570
f 570 681 571
f 571 682 683
f 571 683 572
f 571 681 682
f 572 683 575
f 573 577 592
f 573 592 684
f 573 684 685
f 573 685 574
f 574 685 578
f 575 683 596
f 575 594 593
f 575 593 576
f 576 593 577
f 577 593 592
f 581 686 582
f 581 585 687
f 581 687 686
f 582 686 688
f 582 688 583
f 583 688 689
f 583 689 586
f 584 690 585
f 584 678 677
f 584 677 690
f 585 690 687
f 586 689 679
f 586 679 587
f 590 691 591
f 591 691 692
f 591 692 592
f 592 692 684
f 595 693 597
f 595 596 693
f 596 683 693
f 597 693 694
f 597 694 599
f 598 600 605
f 599 694 695
f 599 695 696
f 599 696 600
f 600 697 605
f 600 696 697
f 601 698 606
f 601 603 698
f 602 604 699
f 602 699 603
f 603 699 700
f 603 700 701
f 603 701 698
f 604 605 702
f 604 702 699
f 605 697 702
f 606 698 611
f 607 703 704
f 607 704 608
f 607 610 705
f 607 705 703
f 609 706 707
f 609 707 705
f 609 705 610
f 609 611 708
f 609 708 706
f 611 709 708
f 611 698 710
f 611 710 711
f 611 711 709
f 612 614 613
f 614 712 615
f 615 712 713
f 615 713 714
f 615 714 715
f 615 715 616
f 616 715 617
f 617 715 716
f 617 716 618
f 618 717 718
f 618 718 719
f 618 719 720
f 618 720 721
f 618 721 619
f 618 716 717
f 619 722 622
f 619 622 723
f 619 723 620
f 619 721 724
f 619 724 722
f 620 723 621
f 621 723 622
f 622 722 725
f 622 725 726
f 622 726 623
f 623 726 624
f 624 726 727
f 624 727 657
f 624 657 625
f 625 657 626
f 628 728 629
f 628 631 728
f 629 728 729
f 629 729 636
f 629 636 630
f 631 730 728
f 631 635 731
f 631 731 730
f 632 658 633
f 633 658 732
f 633 732 733
f 633 733 634
f 634 733 734
f 634 734 735
f 634 735 736
f 634 736 635
f 635 736 731
f 636 737 637
f 636 729 738
f 636 738 737
f 637 739 740
f 637 740 638
f 637 737 739
f 638 740 639
f 639 740 741
f 639 741 640
f 640 742 743
f 640 743 641
f 640 741 742
f 641 743 643
f 642 643 744
f 642 744 644
f 643 743 744
f 644 744 745
f 644 745 645
f 645 745 746
f 645 746 646
f 646 746 747
f 646 747 647
f 647 747 648
f 648 664 649
f 648 747 748
f 648 748 664
f 649 749 650
f 649 664 749
f 650 749 662
f 650 662 655
f 651 661 652
f 652 661 750
f 652 750 751
f 652 751 653
f 657 727 659
f 658 659 732
f 659 727 752
f 659 752 753
f 659 753 732
f 660 750 661
f 662 749 663
f 663 749 664
f 664 748 754
f 664 754 665
f 665 754 755
f 665 755 666
f 666 755 756
f 666 756 757
f 666 757 667
f 667 757 668
f 668 757 758
f 668 758 669
f 669 758 759
f 669 759 760
f 669 760 670
f 670 760 761
f 670 761 762
f 670 762 671
f 671 762 763
f 671 763 672
f 672 763 673
f 673 763 764
f 673 764 765
f 673 765 675
f 673 675 674
f 675 765 766
f 675 766 676
f 676 766 767
f 676 767 677
f 677 767 690
f 679 768 680
f 679 689 768
f 680 769 770
f 680 770 681
f 680 768 769
f 681 770 771
f 681 771 682
f 682 771 772
f 682 772 683
f 683 772 693
f 686 773 774
f 686 774 688
f 686 687 773
f 687 690 767
f 687 767 775
f 687 775 773
f 688 774 689
f 689 774 776
f 689 776 768
f 693 772 694
f 694 772 777
f 694 777 695
f 695 777 778
f 695 778 779
f 695 779 696
f 696 780 697
f 696 779 780
f 697 781 702
f 697 780 782
f 697 782 781
f 698 701 710
f 699 702 781
f 699 781 783
f 699 783 784
f 699 784 700
f 700 784 785
f 700 785 701
f 701 785 786
f 701 786 787
f 701 787 710
f 703 705 788
f 703 788 789
f 703 789 790
f 703 790 704
f 705 707 791
f 705 791 792
f 705 792 788
f 706 708 709
f 706 709 793
f 706 793 794
f 706 794 791
f 706 791 707
f 709 711 795
f 709 795 796
f 709 796 797
f 709 797 793
f 710 787 798
f 710 798 796
f 710 796 795
f 710 795 711
f 712 714 713
f 714 799 800
f 714 800 715
f 715 801 716
f 715 800 801
f 716 802 803
f 716 803 717
f 716 801 802
f 717 803 804
f 717 804 805
f 717 805 718
f 718 805 719
f 719 805 806
f 719 806 807
f 719 807 721
f 719 721 720
f 721 807 724
f 722 724 808
f 722 808 725
f 724 807 808
f 725 808 809
f 725 809 726
f 726 809 752
f 726 752 727
f 728 730 810
f 728 810 738
f 728 738 729
f 730 811 810
f 730 731 811
f 731 736 812
f 731 812 813
f 731 813 811
f 732 753 733
f 733 753 808
f 733 808 807
f 733 807 734
f 734 814 735
f 734 807 815
f 734 815 814
f 735 816 812
f 735 812 736
f 735 814 816
f 737 817 818
f 737 818 739
f 737 738 819
f 737 819 820
f 737 820 817
f 738 810 819
f 739 821 740
f 739 818 821
f 740 822 741
f 740 821 822
f 741 823 824
f 741 824 742
f 741 822 823
f 742 824 743
f 743 824 825
f 743 825 744
f 744 826 745
f 744 825 827
f 744 827 826
f 745 826 828
f 745 828 746
f 746 829 830
f 746 830 747
f 746 828 829
f 747 830 748
f 748 830 831
f 748 831 754
f 752 809 808
f 752 808 753
f 754 831 756
f 754 756 755
f 756 832 833
f 756 833 757
f 756 831 832
f 757 833 832
f 757 832 758
f 758 834 835
f 758 835 836
f 758 836 759
f 758 832 834
f 759 836 760
f 760 836 837
f 760 837 761
f 761 837 838
f 761 838 763
f 761 763 762
f 763 838 764
f 764 839 840
f 764 840 765
f 764 838 839
f 765 840 766
f 766 840 841
f 766 841 842
f 766 842 767
f 767 842 843
f 767 843 775
f 768 776 844
f 768 844 845
f 768 845 769
f 769 845 846
f 769 846 770
f 770 846 847
f 770 847 848
f 770 848 771
f 771 848 772
f 772 848 777
f 773 775 849
f 773 849 850
f 773 850 774
f 774 850 851
f 774 851 776
f 775 843 849
f 776 851 844
f 777 848 778
f 778 848 852
f 778 852 853
f 778 853 779
f 779 853 780
f 780 853 854
f 780 854 782
f 781 782 783
f 782 855 783
f 782 854 856
f 782 856 857
f 782 857 855
f 783 855 858
f 783 858 784
f 784 858 859
f 784 859 785
f 785 859 786
f 786 859 860
f 786 860 861
f 786 861 862
f 786 862 863
f 786 863 787
f 787 863 864
f 787 864 796
f 787 796 798
f 788 792 865
f 788 865 789
f 789 866 867
f 789 867 790
f 789 865 866
f 790 867 868
f 791 794 869
f 791 869 792
f 792 870 865
f 792 869 870
f 793 801 871
f 793 871 794
f 793 797 872
f 793 872 801
f 794 873 874
f 794 874 869
f 794 871 873
f 796 864 863
f 796 863 875
f 796 875 797
f 797 875 876
f 797 876 877
f 797 877 872
f 799 878 874
f 799 874 879
f 799 879 800
f 800 879 871
f 800 871 801
f 801 872 880
f 801 880 802
f 802 880 876
f 802 876 881
f 802 881 803
f 803 881 804
f 804 882 805
f 804 881 882
f 805 882 883
f 805 883 806
f 806 884 815
f 806 815 807
f 806 883 884
f 810 811 885
f 810 885 886
f 810 886 820
f 810 820 819
f 811 813 887
f 811 887 885
f 812 888 813
f 812 816 888
f 813 888 889
f 813 889 887
f 814 815 884
f 814 884 890
f 814 890 891
f 814 891 816
f 816 892 888
f 816 891 892
f 817 893 894
f 817 894 818
f 817 820 886
f 817 886 893
f 818 894 821
f 821 894 895
f 821 895 896
f 821 896 822
f 822 896 897
f 822 897 823
f 823 897 898
f 823 898 824
f 824 898 825
f 825 898 827
f 826 827 899
f 826 899 828
f 827 898 900
f 827 900 899
f 828 899 901
f 828 901 829
f 829 902 831
f 829 831 830
f 829 901 903
f 829 903 902
f 831 902 832
f 832 902 904
f 832 904 905
f 832 905 834
f 834 905 835
f 835 905 906
f 835 906 907
f 835 907 836
f 836 907 908
f 836 908 837
f 837 908 909
f 837 909 910
f 837 910 838
f 838 910 839
f 839 910 911
f 839 911 912
f 839 912 840
f 840 912 841
f 841 912 913
f 841 913 914
f 841 914 915
f 841 915 842
f 842 915 843
f 843 915 916
f 843 916 849
f 844 851 917
f 844 917 918
f 844 918 919
f 844 919 920
f 844 920 845
f 845 920 846
f 846 920 919
f 846 919 921
f 846 921 847
f 847 921 852
f 847 852 848
f 849 922 850
f 849 916 922
f 850 923 851
f 850 922 923
f 851 923 917
f 852 921 924
f 852 924 853
f 853 924 925
f 853 925 854
f 854 925 926
f 854 926 856
f 855 857 927
f 855 927 858
f 856 926 928
f 856 928 857
f 857 928 927
f 858 927 929
f 858 929 930
f 858 930 859
f 859 930 931
f 859 931 932
f 859 932 860
f 860 932 931
f 860 931 861
f 861 931 933
f 861 933 934
f 861 934 935
f 861 935 936
f 861 936 862
f 862 936 875
f 862 875 863
f 865 870 866
f 866 870 874
f 866 874 878
f 866 878 868
f 866 868 867
f 869 874 870
f 871 879 874
f 871 874 873
f 872 877 880
f 875 937 876
f 875 936 937
f 876 937 881
f 876 880 877
f 881 937 938
f 881 938 882
f 882 938 939
f 882 939 935
f 882 935 934
f 882 934 883
f 883 934 890
f 883 890 884
f 885 940 941
f 885 941 886
f 885 887 940
f 886 941 893
f 887 942 943
f 887 943 940
f 887 889 942
f 888 892 944
f 888 944 945
f 888 945 889
f 889 945 946
f 889 946 942
f 890 934 947
f 890 947 948
f 890 948 891
f 891 948 892
f 892 948 949
f 892 949 950
f 892 950 944
f 893 951 952
f 893 952 894
f 893 941 953
f 893 953 951
f 894 952 895
f 895 954 955
f 895 955 896
f 895 952 956
f 895 956 954
f 896 955 957
f 896 957 897
f 897 957 900
f 897 900 898
f 899 900 958
f 899 958 901
f 900 957 959
f 900 959 958
f 901 958 903
f 902 905 904
f 902 903 906
f 902 906 905
f 903 958 960
f 903 960 961
f 903 961 906
f 906 961 962
f 906 962 907
f 907 962 963
f 907 963 908
f 908 963 909
f 909 963 964
f 909 964 965
f 909 965 966
f 909 966 911
f 909 911 910
f 911 966 967
f 911 967 968
f 911 968 912
f 912 968 913
f 913 969 914
f 913 968 969
f 914 969 970
f 914 970 971
f 914 971 915
f 915 971 916
f 916 971 972
f 916 972 922
f 917 973 918
f 917 923 973
f 918 973 974
f 918 974 975
f 918 975 976
f 918 976 921
f 918 921 919
f 921 977 924
f 921 976 977
f 922 972 978
f 922 978 979
f 922 979 923
f 923 979 973
f 924 977 925
f 925 977 980
f 925 980 981
f 925 981 926
f 926 981 982
f 926 982 928
f 927 928 983
f 927 983 929
f 928 982 983
f 929 984 931
f 929 931 930
f 929 983 985
f 929 985 984
f 931 984 986
f 931 986 933
f 933 986 948
f 933 948 947
f 933 947 934
f 935 939 936
f 936 939 938
f 936 938 937
f 940 943 987
f 940 987 988
f 940 988 951
f 940 951 953
f 940 953 941
f 942 989 943
f 942 946 989
f 943 989 990
f 943 990 987
f 944 950 945
f 945 950 991
f 945 991 946
f 946 992 989
f 946 991 992
f 948 986 993
f 948 993 949
f 949 993 950
f 950 993 991
f 951 988 994
f 951 994 952
f 952 994 956
f 954 995 996
f 954 996 955
f 954 956 995
f 955 996 997
f 955 997 957
f 956 994 995
f 957 997 959
f 958 959 960
f 959 997 998
f 959 998 960
f 960 999 961
f 960 998 999
f 961 999 962
f 962 964 963
f 962 999 1000
f 962 1000 964
f 964 1000 1001
f 964 1001 965
f 965 1001 1002
f 965 1002 1003
f 965 1003 967
f 965 967 966
f 967 1003 1004
f 967 1004 968
f 968 1004 969
f 969 1004 1005
f 969 1005 1006
f 969 1006 970
f 970 1006 1007
f 970 1007 1008
f 970 1008 972
f 970 972 971
f 972 1008 978
f 973 979 1009
f 973 1009 974
f 974 1010 975
f 974 1009 1010
f 975 980 977
f 975 977 976
f 975 1010 980
f 978 1011 979
f 978 1008 1011
f 979 1011 1009
f 980 1010 1012
f 980 1012 1013
f 980 1013 981
f 981 1013 1014
f 981 1014 982
f 982 1015 983
f 982 1014 1016
f 982 1016 1015
f 983 1017 985
f 983 1015 1017
f 984 985 1018
f 984 1018 986
f 985 1017 1018
f 986 1018 993
f 987 990 1019
f 987 1019 988
f 988 1019 994
f 989 1020 1021
f 989 1021 990
f 989 992 1020
f 990 1021 1022
f 990 1022 1019
f 991 993 1018
f 991 1018 1017
f 991 1017 992
f 992 1017 1015
f 992 1015 1016
f 992 1016 1023
f 992 1023 1020
f 994 1024 1025
f 994 1025 995
f 994 1019 1024
f 995 1025 1026
f 995 1026 1027
f 995 1027 1028
f 995 1028 1029
f 995 1029 1030
f 995 1030 996
f 996 1030 997
f 997 1030 998
f 998 1030 999
f 999 1001 1000
f 999 1030 1001
f 1001 1030 1031
f 1001 1031 1002
f 1002 1031 1028
f 1002 1028 1003
f 1003 1028 1027
f 1003 1027 1004
f 1004 1027 1032
f 1004 1032 1005
f 1005 1032 1006
f 1006 1032 1033
f 1006 1033 1007
f 1007 1033 1034
f 1007 1034 1035
f 1007 1035 1008
f 1008 1035 1036
f 1008 1036 1011
f 1009 1011 1037
f 1009 1037 1038
f 1009 1038 1012
f 1009 1012 1010
f 1011 1036 1037
f 1012 1038 1013
f 1013 1039 1014
f 1013 1038 1039
f 1014 1039 1023
f 1014 1023 1016
f 1019 1040 1041
f 1019 1041 1042
f 1019 1042 1024
f 1019 1022 1040
f 1020 1023 1043
f 1020 1043 1021
f 1021 1043 1044
f 1021 1044 1040
f 1021 1040 1045
f 1021 1045 1022
f 1022 1045 1040
f 1023 1039 1043
f 1024 1042 1046
f 1024 1046 1025
f 1025 1047 1026
f 1025 1046 1047
f 1026 1047 1033
f 1026 1033 1032
f 1026 1032 1027
f 1028 1031 1029
f 1029 1031 1030
f 1033 1047 1034
f 1034 1047 1046
f 1034 1046 1042
f 1034 1042 1041
f 1034 1041 1048
f 1034 1048 1035
f 1035 1048 1036
f 1036 1048 1049
f 1036 1049 1037
f 1037 1049 1050
f 1037 1050 1051
f 1037 1051 1038
f 1038 1051 1039
f 1039 1051 1050
f 1039 1050 1044
f 1039 1044 1043
f 1040 1044 1049
f 1040 1049 1041
f 1041 1049 1048
f 1044 1050 1049

