# https://github.com/mikedh/trimesh
v 0.07037800 0.01358622 -0.00327658
v 0.07051672 0.01325450 -0.00327658
v 0.07035068 0.01358622 -0.00331114
v 0.06511940 0.01358622 -0.00327658
v 0.07078995 0.01258348 -0.00327658
v 0.07020776 0.01280766 -0.00387767
v 0.07005433 0.01358622 -0.00366930
v 0.06930821 -0.00188810 -0.00327658
v 0.05258660 0.01358622 -0.01308508
v 0.05909365 -0.00188810 -0.01074794
v 0.05955814 -0.00188810 -0.01039074
v 0.05989442 -0.00188810 -0.01014493
v 0.07115145 0.01165345 -0.00327658
v 0.07113254 0.01148380 -0.00337932
v 0.06996816 0.01197608 -0.00454597
v 0.06929980 0.01332721 -0.00469576
v 0.06934604 0.01358622 -0.00451428
v 0.06980002 0.01358622 -0.00397657
v 0.07405609 -0.00188810 -0.00327658
v 0.05899486 0.01358622 -0.01308508
v 0.05677540 -0.00188052 -0.01308508
v 0.05772961 -0.00188810 -0.01205766
v 0.05828867 -0.00188810 -0.01146137
v 0.05887507 -0.00188810 -0.01092558
v 0.07123762 0.01142321 -0.00327658
v 0.07166008 0.01021295 -0.00327658
v 0.07088453 0.01055679 -0.00407739
v 0.07009637 0.01098697 -0.00481579
v 0.06952049 0.01126568 -0.00534390
v 0.06912536 0.01243201 -0.00529397
v 0.06882270 0.01358622 -0.00510385
v 0.06917790 0.01358622 -0.00470632
v 0.07401826 -0.00188810 -0.00332267
v 0.07403507 -0.00152002 -0.00327658
v 0.05922816 0.01358622 -0.01291609
v 0.05969895 0.01196396 -0.01308508
v 0.05735129 -0.00188810 -0.01246863
v 0.05772540 -0.00188810 -0.01308508
v 0.07185344 0.00962070 -0.00327658
v 0.07169581 0.00918143 -0.00364242
v 0.07092236 0.00961767 -0.00439618
v 0.06989880 0.01009632 -0.00537271
v 0.06932292 0.01038715 -0.00588834
v 0.06893620 0.01154742 -0.00586049
v 0.06848852 0.01278645 -0.00582784
v 0.06841496 0.01358622 -0.00554842
v 0.07327634 -0.00188810 -0.00417821
v 0.07357899 -0.00130645 -0.00379701
v 0.07399724 -0.00096715 -0.00327658
v 0.06263091 0.01358622 -0.01043491
v 0.06070360 0.01282281 -0.01208263
v 0.06282217 0.01299548 -0.01048292
v 0.06422405 0.01314696 -0.00941229
v 0.06401808 0.01227297 -0.00983574
v 0.05974940 0.01183824 -0.01308508
v 0.06243124 -0.00188810 -0.01308508
v 0.07204260 0.00902239 -0.00327658
v 0.07167900 0.00827866 -0.00398521
v 0.07235997 0.00794088 -0.00327658
v 0.07083829 0.00866037 -0.00482923
v 0.07026661 0.00893454 -0.00537751
v 0.06969283 0.00922082 -0.00590082
v 0.06905390 0.00949195 -0.00646638
v 0.06873863 0.01067949 -0.00638572
v 0.06835191 0.01184430 -0.00634732
v 0.06795047 0.01301063 -0.00628682
v 0.06826784 0.01358622 -0.00570302
v 0.07308507 -0.00188810 -0.00439138
v 0.07265001 -0.00083991 -0.00479946
v 0.07395731 -0.00051122 -0.00327658
v 0.07307457 -0.00009316 -0.00425887
v 0.06340856 0.01358622 -0.00986647
v 0.06406852 0.01358622 -0.00938349
v 0.06508787 0.01358622 -0.00860476
v 0.06515092 0.01354835 -0.00856923
v 0.06556497 0.01242141 -0.00862108
v 0.06515513 0.01164587 -0.00917416
v 0.06402018 0.01132475 -0.01010748
v 0.06007096 0.01099606 -0.01308508
v 0.06242284 -0.00132462 -0.01308508
v 0.06834981 -0.00145034 -0.00870078
v 0.06834140 -0.00188810 -0.00870750
v 0.07147092 0.00734409 -0.00453733
v 0.07257014 0.00688664 -0.00337548
v 0.07262479 0.00698510 -0.00327658
v 0.07063442 0.00780001 -0.00533718
v 0.07006064 0.00808024 -0.00587201
v 0.06948265 0.00837106 -0.00637804
v 0.06889206 0.00866643 -0.00686487
v 0.06852215 0.00981307 -0.00688023
v 0.06814594 0.01097788 -0.00686103
v 0.06767934 0.01225479 -0.00685142
v 0.06732205 0.01318937 -0.00682646
v 0.06745866 0.01358622 -0.00652207
v 0.06782227 0.01358622 -0.00616488
v 0.07280554 -0.00188810 -0.00469480
v 0.07238308 -0.00165029 -0.00513746
v 0.07209304 -0.00056726 -0.00537079
v 0.07235997 0.00025068 -0.00501743
v 0.07389635 0.00008709 -0.00327658
v 0.07332257 0.00072024 -0.00387382
v 0.07261218 0.00107468 -0.00463719
v 0.06513621 0.01358622 -0.00856731
v 0.06578566 0.01358622 -0.00803728
v 0.06594749 0.01312120 -0.00807473
v 0.06634472 0.01193973 -0.00814770
v 0.06611984 0.01110966 -0.00858171
v 0.06562382 0.01041441 -0.00915784
v 0.06371963 0.01041138 -0.01056070
v 0.06066577 0.00929807 -0.01308508
v 0.06016344 0.01074462 -0.01308508
v 0.06238080 -0.00034157 -0.01308508
v 0.06801983 -0.00034157 -0.00890915
v 0.06864405 -0.00067481 -0.00845689
v 0.06894250 -0.00176692 -0.00825717
v 0.06882270 -0.00188810 -0.00834838
v 0.07155289 0.00638527 -0.00472841
v 0.07099172 0.00666701 -0.00527765
v 0.07234946 0.00597933 -0.00391127
v 0.07266472 0.00683060 -0.00327658
v 0.07287069 0.00598539 -0.00327658
v 0.07041794 0.00694420 -0.00581824
v 0.06983996 0.00723048 -0.00633483
v 0.06925777 0.00753040 -0.00682166
v 0.06866507 0.00783031 -0.00729600
v 0.06830567 0.00897846 -0.00732673
v 0.06787691 0.01009632 -0.00739106
v 0.06755324 0.01129597 -0.00730752
v 0.06713499 0.01242747 -0.00729024
v 0.06674616 0.01358622 -0.00719998
v 0.06683654 0.01358622 -0.00711740
v 0.06721065 0.01358622 -0.00676501
v 0.07230112 -0.00188810 -0.00523060
v 0.07195643 -0.00188810 -0.00558587
v 0.07181982 -0.00137915 -0.00570398
v 0.07153187 -0.00028856 -0.00592386
v 0.07179880 0.00052484 -0.00558395
v 0.07205311 0.00134279 -0.00521523
v 0.07385852 0.00044911 -0.00327658
v 0.07378496 0.00107317 -0.00327658
v 0.07285598 0.00190778 -0.00423102
v 0.07230112 0.00217285 -0.00481771
v 0.06605889 0.01358622 -0.00780491
v 0.06660534 0.01281372 -0.00762247
v 0.06705092 0.01164436 -0.00764071
v 0.06673145 0.01077491 -0.00818323
v 0.06649605 0.00994031 -0.00860188
v 0.06570159 0.00944196 -0.00933836
v 0.06470325 0.00954194 -0.01005275
v 0.06074983 0.00904662 -0.01308508
v 0.06234717 0.00024765 -0.01308508
v 0.06833719 0.00043245 -0.00863165
v 0.06228412 0.00113376 -0.01308508
v 0.06893200 0.00010830 -0.00819667
v 0.06923465 -0.00099290 -0.00801135
v 0.06916739 -0.00188810 -0.00808337
v 0.06896982 -0.00188810 -0.00823700
v 0.07209515 0.00515229 -0.00443170
v 0.07132800 0.00552794 -0.00519987
v 0.07075632 0.00580362 -0.00575007
v 0.07294005 0.00569153 -0.00327658
v 0.07307457 0.00510837 -0.00327658
v 0.07018464 0.00609142 -0.00626954
v 0.06960246 0.00638527 -0.00676789
v 0.06902237 0.00668367 -0.00723743
v 0.06842337 0.00700025 -0.00770025
v 0.06807027 0.00814083 -0.00774826
v 0.06770667 0.00929049 -0.00777034
v 0.06733255 0.01044319 -0.00776938
v 0.06630479 0.01358622 -0.00759270
v 0.07164537 -0.00188810 -0.00589794
v 0.07125864 -0.00109439 -0.00624649
v 0.07096019 -0.00000834 -0.00646542
v 0.07122922 0.00080204 -0.00612935
v 0.07149194 0.00162301 -0.00576639
v 0.07174625 0.00245307 -0.00537751
v 0.07372822 0.00148366 -0.00327658
v 0.07270676 0.00288174 -0.00423102
v 0.07357479 0.00249852 -0.00327658
v 0.07198585 0.00328617 -0.00496654
v 0.06710346 0.00961010 -0.00819667
v 0.06714339 0.00867703 -0.00839448
v 0.06699837 0.00776215 -0.00870750
v 0.06554395 0.00839227 -0.00968403
v 0.06477050 0.00889364 -0.01014973
v 0.06114707 0.00771671 -0.01308508
v 0.06759107 0.00089140 -0.00915784
v 0.06843598 0.00139883 -0.00849530
v 0.06223158 0.00169723 -0.01308508
v 0.06922204 0.00089898 -0.00792301
v 0.06952049 -0.00021282 -0.00775114
v 0.06982314 -0.00130342 -0.00755045
v 0.06960246 -0.00188810 -0.00773769
v 0.07192490 0.00425861 -0.00483499
v 0.07318596 0.00459639 -0.00327658
v 0.07306196 0.00371786 -0.00364530
v 0.07109471 0.00467970 -0.00564733
v 0.07052302 0.00496447 -0.00617640
v 0.06993243 0.00524166 -0.00669875
v 0.06935865 0.00555369 -0.00717213
v 0.06876806 0.00586421 -0.00763015
v 0.06806817 0.00629439 -0.00814482
v 0.06782227 0.00731379 -0.00813810
v 0.07098751 -0.00188810 -0.00653744
v 0.07068906 -0.00080810 -0.00677461
v 0.07038011 0.00027643 -0.00698297
v 0.07058188 0.00104136 -0.00672660
v 0.07092236 0.00190626 -0.00630123
v 0.07118088 0.00273330 -0.00592386
v 0.07142258 0.00355882 -0.00552730
v 0.07340034 0.00354064 -0.00327658
v 0.06689328 0.00690785 -0.00895235
v 0.06131101 0.00709416 -0.01308508
v 0.06120382 0.00750616 -0.01308508
v 0.06819217 0.00248640 -0.00858844
v 0.06890887 0.00201229 -0.00807569
v 0.06217273 0.00224556 -0.01308508
v 0.06949737 0.00169117 -0.00762727
v 0.06987778 0.00059452 -0.00740354
v 0.07010688 -0.00051728 -0.00727968
v 0.07040323 -0.00160333 -0.00706363
v 0.07029814 -0.00188810 -0.00715773
v 0.06997867 -0.00188810 -0.00742851
v 0.07332257 0.00395264 -0.00327658
v 0.07085300 0.00384055 -0.00606598
v 0.07027712 0.00413138 -0.00658065
v 0.06969703 0.00442978 -0.00707419
v 0.06921993 0.00467062 -0.00746116
v 0.06855157 0.00503869 -0.00796334
v 0.06791895 0.00537647 -0.00841656
v 0.06689328 0.00600962 -0.00910983
v 0.07048099 -0.00188810 -0.00700026
v 0.07007535 0.00138066 -0.00715581
v 0.07034438 0.00219406 -0.00681494
v 0.07060079 0.00301200 -0.00645582
v 0.06144342 0.00654583 -0.01308508
v 0.06798830 0.00345127 -0.00863933
v 0.06201089 0.00349217 -0.01308508
v 0.06903288 0.00294990 -0.00786924
v 0.06976219 0.00249246 -0.00730752
v 0.07002071 0.00330131 -0.00696089
v 0.06944062 0.00361032 -0.00743715
v 0.06885002 0.00392689 -0.00788749
v 0.06825102 0.00424498 -0.00832438
v 0.06765833 0.00457519 -0.00874879
v 0.06685335 0.00503869 -0.00928555
v 0.06163257 0.00566427 -0.01308508
v 0.06152959 0.00616412 -0.01308508
v 0.06736618 0.00378148 -0.00906662
v 0.06192893 0.00402080 -0.01308508
v 0.06169143 0.00535830 -0.01308508
f 1 2 3
f 1 3 7
f 1 7 18
f 1 18 17
f 1 17 32
f 1 32 31
f 1 31 46
f 1 46 67
f 1 67 95
f 1 95 94
f 1 94 132
f 1 132 131
f 1 131 130
f 1 130 170
f 1 170 143
f 1 143 104
f 1 104 103
f 1 103 74
f 1 74 73
f 1 73 72
f 1 72 50
f 1 50 35
f 1 35 20
f 1 20 9
f 1 9 4
f 1 4 8
f 1 8 19
f 1 19 34
f 1 34 49
f 1 49 70
f 1 70 100
f 1 100 139
f 1 139 140
f 1 140 177
f 1 177 179
f 1 179 211
f 1 211 224
f 1 224 195
f 1 195 162
f 1 162 161
f 1 161 121
f 1 121 120
f 1 120 85
f 1 85 59
f 1 59 57
f 1 57 39
f 1 39 26
f 1 26 25
f 1 25 13
f 1 13 5
f 1 5 2
f 2 5 6
f 2 6 3
f 3 6 7
f 4 9 10
f 4 10 11
f 4 11 12
f 4 12 8
f 5 13 6
f 6 13 14
f 6 14 15
f 6 15 16
f 6 16 17
f 6 17 18
f 6 18 7
f 8 12 11
f 8 11 10
f 8 10 24
f 8 24 23
f 8 23 22
f 8 22 37
f 8 37 38
f 8 38 56
f 8 56 82
f 8 82 116
f 8 116 157
f 8 157 156
f 8 156 193
f 8 193 223
f 8 223 222
f 8 222 232
f 8 232 204
f 8 204 171
f 8 171 134
f 8 134 133
f 8 133 96
f 8 96 68
f 8 68 47
f 8 47 33
f 8 33 19
f 9 20 36
f 9 36 55
f 9 55 79
f 9 79 111
f 9 111 110
f 9 110 150
f 9 150 186
f 9 186 214
f 9 214 213
f 9 213 236
f 9 236 248
f 9 248 247
f 9 247 251
f 9 251 250
f 9 250 238
f 9 238 217
f 9 217 189
f 9 189 153
f 9 153 151
f 9 151 112
f 9 112 80
f 9 80 56
f 9 56 38
f 9 38 21
f 9 21 22
f 9 22 23
f 9 23 24
f 9 24 10
f 13 25 14
f 14 25 26
f 14 26 27
f 14 27 15
f 15 28 29
f 15 29 30
f 15 30 16
f 15 27 28
f 16 30 31
f 16 31 32
f 16 32 17
f 19 33 34
f 20 35 36
f 21 37 22
f 21 38 37
f 26 39 40
f 26 40 27
f 27 40 41
f 27 41 28
f 28 42 29
f 28 41 42
f 29 42 43
f 29 43 44
f 29 44 30
f 30 44 45
f 30 45 46
f 30 46 31
f 33 47 48
f 33 48 34
f 34 48 49
f 35 50 51
f 35 51 36
f 36 51 52
f 36 52 53
f 36 53 54
f 36 54 55
f 39 57 40
f 40 58 41
f 40 57 59
f 40 59 58
f 41 60 61
f 41 61 42
f 41 58 60
f 42 62 43
f 42 61 62
f 43 63 64
f 43 64 44
f 43 62 63
f 44 64 65
f 44 65 45
f 45 65 66
f 45 66 67
f 45 67 46
f 47 68 69
f 47 69 48
f 48 70 49
f 48 69 71
f 48 71 70
f 50 72 53
f 50 53 52
f 50 52 51
f 53 72 73
f 53 73 74
f 53 74 75
f 53 75 76
f 53 76 77
f 53 77 54
f 54 77 78
f 54 78 55
f 55 78 79
f 56 80 81
f 56 81 82
f 58 83 60
f 58 59 84
f 58 84 83
f 59 85 84
f 60 83 86
f 60 86 61
f 61 86 87
f 61 87 62
f 62 87 88
f 62 88 63
f 63 88 89
f 63 89 90
f 63 90 64
f 64 90 91
f 64 91 65
f 65 91 92
f 65 92 66
f 66 92 93
f 66 93 94
f 66 94 95
f 66 95 67
f 68 96 69
f 69 96 97
f 69 97 98
f 69 98 99
f 69 99 71
f 70 71 101
f 70 101 100
f 71 99 102
f 71 102 101
f 74 103 75
f 75 103 104
f 75 104 105
f 75 105 76
f 76 105 106
f 76 106 107
f 76 107 77
f 77 107 108
f 77 108 78
f 78 109 110
f 78 110 111
f 78 111 79
f 78 108 109
f 80 112 81
f 81 113 114
f 81 114 115
f 81 115 116
f 81 116 82
f 81 112 113
f 83 117 118
f 83 118 86
f 83 84 119
f 83 119 117
f 84 85 120
f 84 120 121
f 84 121 119
f 86 122 87
f 86 118 122
f 87 123 88
f 87 122 123
f 88 124 89
f 88 123 124
f 89 124 125
f 89 125 126
f 89 126 90
f 90 126 127
f 90 127 91
f 91 127 128
f 91 128 92
f 92 128 129
f 92 129 93
f 93 129 130
f 93 130 131
f 93 131 132
f 93 132 94
f 96 133 97
f 97 133 134
f 97 134 135
f 97 135 98
f 98 135 136
f 98 136 137
f 98 137 99
f 99 137 138
f 99 138 102
f 100 101 139
f 101 140 139
f 101 102 141
f 101 141 140
f 102 138 142
f 102 142 141
f 104 143 105
f 105 143 144
f 105 144 106
f 106 144 145
f 106 145 146
f 106 146 107
f 107 146 147
f 107 147 108
f 108 148 149
f 108 149 109
f 108 147 148
f 109 149 110
f 110 149 150
f 112 151 113
f 113 152 114
f 113 151 153
f 113 153 152
f 114 152 154
f 114 154 155
f 114 155 115
f 115 155 156
f 115 156 157
f 115 157 116
f 117 158 159
f 117 159 118
f 117 119 158
f 118 159 160
f 118 160 122
f 119 121 161
f 119 161 162
f 119 162 158
f 122 160 163
f 122 163 123
f 123 163 164
f 123 164 124
f 124 165 125
f 124 164 165
f 125 166 167
f 125 167 126
f 125 165 166
f 126 167 168
f 126 168 127
f 127 168 169
f 127 169 128
f 128 169 145
f 128 145 129
f 129 145 144
f 129 144 130
f 130 144 170
f 134 171 135
f 135 171 172
f 135 172 136
f 136 172 173
f 136 173 174
f 136 174 137
f 137 174 175
f 137 175 138
f 138 175 176
f 138 176 142
f 140 141 177
f 141 142 178
f 141 178 179
f 141 179 177
f 142 176 180
f 142 180 178
f 143 170 144
f 145 169 146
f 146 169 181
f 146 181 147
f 147 181 182
f 147 182 148
f 148 182 183
f 148 183 184
f 148 184 185
f 148 185 150
f 148 150 149
f 150 185 186
f 152 153 187
f 152 187 188
f 152 188 154
f 153 189 188
f 153 188 187
f 154 190 191
f 154 191 155
f 154 188 190
f 155 191 192
f 155 192 156
f 156 192 193
f 158 194 159
f 158 162 195
f 158 195 196
f 158 196 194
f 159 197 160
f 159 194 197
f 160 198 163
f 160 197 198
f 163 198 199
f 163 199 164
f 164 199 200
f 164 200 165
f 165 200 201
f 165 201 166
f 166 202 203
f 166 203 167
f 166 201 202
f 167 203 182
f 167 182 168
f 168 182 181
f 168 181 169
f 171 204 172
f 172 204 205
f 172 205 173
f 173 205 206
f 173 206 207
f 173 207 174
f 174 207 208
f 174 208 175
f 175 208 209
f 175 209 176
f 176 209 210
f 176 210 180
f 178 196 179
f 178 180 194
f 178 194 196
f 179 196 211
f 180 210 194
f 182 203 183
f 183 203 202
f 183 202 212
f 183 212 184
f 184 212 213
f 184 213 214
f 184 214 186
f 184 186 185
f 188 215 216
f 188 216 190
f 188 189 217
f 188 217 215
f 190 216 218
f 190 218 219
f 190 219 191
f 191 219 220
f 191 220 192
f 192 220 221
f 192 221 222
f 192 222 223
f 192 223 193
f 194 210 197
f 195 224 196
f 196 224 211
f 197 210 225
f 197 225 198
f 198 226 199
f 198 225 226
f 199 227 200
f 199 226 227
f 200 228 201
f 200 227 228
f 201 228 229
f 201 229 202
f 202 229 230
f 202 230 231
f 202 231 212
f 204 232 221
f 204 221 205
f 205 221 220
f 205 220 206
f 206 220 219
f 206 219 233
f 206 233 207
f 207 233 234
f 207 234 208
f 208 234 235
f 208 235 209
f 209 235 225
f 209 225 210
f 212 231 236
f 212 236 213
f 215 237 216
f 215 217 238
f 215 238 237
f 216 239 218
f 216 237 239
f 218 239 240
f 218 240 233
f 218 233 219
f 221 232 222
f 225 235 226
f 226 235 241
f 226 241 227
f 227 241 242
f 227 242 228
f 228 242 243
f 228 243 229
f 229 244 245
f 229 245 230
f 229 243 244
f 230 245 231
f 231 245 246
f 231 246 247
f 231 247 248
f 231 248 236
f 233 240 234
f 234 240 241
f 234 241 235
f 237 249 245
f 237 245 244
f 237 244 243
f 237 243 239
f 237 238 249
f 238 250 249
f 239 243 242
f 239 242 240
f 240 242 241
f 245 249 250
f 245 250 251
f 245 251 246
f 246 251 247

