# https://github.com/mikedh/trimesh
v 0.00529448 0.02739343 -0.03324388
v 0.00367864 0.02798811 -0.03313313
v 0.00653422 0.02777323 -0.03315128
v 0.00758823 0.02720020 -0.03320575
v -0.00924346 0.02553111 -0.03318033
v -0.00711222 0.02640564 -0.03315310
v -0.00609535 0.02685373 -0.03313131
v 0.00497874 0.02820133 -0.03296609
v -0.00375052 0.02746673 -0.03305687
v -0.00008702 0.02809805 -0.03299514
v 0.00110629 0.02820966 -0.03297154
v 0.00303323 0.02838123 -0.03286623
v 0.00726785 0.02812304 -0.03277182
v 0.00822900 0.02769160 -0.03301693
v 0.00917157 0.02721686 -0.03312768
v 0.00917157 0.02718521 -0.03313857
v 0.00917157 0.02674379 -0.03314583
v -0.01440208 0.02353054 -0.03301330
v -0.01195046 0.02477986 -0.03307321
v -0.01095216 0.02537953 -0.03308047
v -0.00827302 0.02626904 -0.03314402
v -0.00721901 0.02686372 -0.03306958
v -0.00573318 0.02752836 -0.03297517
v 0.00385972 0.02852282 -0.03269738
v 0.00498803 0.02844619 -0.03269920
v 0.00626027 0.02834625 -0.03268286
v -0.00462345 0.02771992 -0.03295883
v -0.00194895 0.02808306 -0.03293704
v -0.00114567 0.02828961 -0.03286805
v 0.00058625 0.02846452 -0.03278453
v 0.00188635 0.02835624 -0.03287713
v 0.00096699 0.02871438 -0.03255577
v 0.00194671 0.02861110 -0.03265199
v 0.00764395 0.02841454 -0.03233608
v 0.00917157 0.02791481 -0.03265199
v 0.00917157 0.02789816 -0.03267197
v 0.00917157 0.02787484 -0.03269375
v 0.00917157 0.02759666 -0.03292615
v 0.03303310 0.03055171 -0.01905507
v 0.03303310 0.03000701 -0.01932015
v 0.03303310 0.02894259 -0.01981217
v 0.03303310 0.02849117 -0.02001370
v 0.03303310 0.02791815 -0.02026244
v 0.03303310 0.02758166 -0.02040405
v 0.03303310 0.02693701 -0.02066550
v 0.03303310 0.02662552 -0.02078533
v 0.03303310 0.02594922 -0.02103588
v 0.03303310 0.02513799 -0.02132274
v 0.03303310 0.02486981 -0.02141352
v 0.03303310 0.02403526 -0.02167860
v 0.03303310 0.02309744 -0.02194730
v 0.03303310 0.01379750 -0.02444010
v 0.03303310 0.01353431 -0.02444010
v 0.00917157 0.02672713 -0.03314220
v -0.01440208 0.02291753 -0.03279361
v -0.01440208 0.02375541 -0.03297880
v 0.00917157 0.02636899 -0.03301693
v -0.01376596 0.02417685 -0.03295883
v -0.01145827 0.02550946 -0.03293341
v -0.00974957 0.02613912 -0.03303145
v -0.00842160 0.02678210 -0.03296972
v -0.00694506 0.02738844 -0.03289528
v -0.00511099 0.02810971 -0.03269012
v -0.00410805 0.02820133 -0.03273007
v 0.00323753 0.02903254 -0.03205285
v 0.00439369 0.02879767 -0.03227617
v 0.00288929 0.02872771 -0.03249767
v 0.00578666 0.02871938 -0.03222715
v 0.00672923 0.02875436 -0.03202925
v -0.00321655 0.02804808 -0.03288802
v -0.00207896 0.02845619 -0.03270283
v -0.00100638 0.02851782 -0.03269738
v -0.00025882 0.02865608 -0.03259934
v 0.00011264 0.02889928 -0.03233427
v 0.00156597 0.02900089 -0.03218176
v 0.00908799 0.02816301 -0.03235787
v 0.00917157 0.02801976 -0.03252127
v 0.03279630 0.03055171 -0.01913496
v 0.03303310 0.03055171 -0.01469948
v 0.00917157 0.02814303 -0.03235969
v 0.00841008 0.02842620 -0.03211095
v 0.03303310 0.01353431 -0.01995923
v 0.01055525 0.01353431 -0.02781528
v -0.01440208 0.02210464 -0.03244320
v 0.00986341 0.01353431 -0.02785159
v 0.00893477 0.01353431 -0.02789334
v 0.00756966 0.01353431 -0.02794418
v -0.01440208 0.02398529 -0.03288984
v -0.01440208 0.02411022 -0.03283900
v -0.01355237 0.02452999 -0.03286260
v -0.01176937 0.02563939 -0.03277546
v -0.01072465 0.02599753 -0.03287713
v -0.00939204 0.02661552 -0.03285353
v -0.00795728 0.02739177 -0.03266652
v -0.00636466 0.02794647 -0.03259208
v -0.00536172 0.02841121 -0.03231248
v -0.00462345 0.02852115 -0.03235242
v -0.00462345 0.02834458 -0.03254124
v -0.00324905 0.02841121 -0.03265381
v 0.00457014 0.02906919 -0.03182409
v 0.00178884 0.02915414 -0.03197297
v 0.00309359 0.02918079 -0.03181683
v 0.00580988 0.02899922 -0.03175873
v -0.00253864 0.02878934 -0.03235787
v -0.00121996 0.02885264 -0.03235787
v -0.00174929 0.02901588 -0.03208009
v -0.00036097 0.02916414 -0.03188763
v 0.03208588 0.03055171 -0.01936372
v -0.00462345 0.03055171 -0.01866109
v -0.00462345 0.01353431 -0.02298219
v -0.01440208 0.02172652 -0.03225620
v 0.00743965 0.01353431 -0.02794781
v 0.00623241 0.01353431 -0.02797868
v 0.00479301 0.01353431 -0.02800409
v -0.01440208 0.02439507 -0.03268286
v -0.01209440 0.02578098 -0.03257029
v -0.01143970 0.02627404 -0.03245954
v -0.01099395 0.02619575 -0.03265744
v -0.01013031 0.02653224 -0.03268286
v -0.00923881 0.02699532 -0.03260298
v -0.00877913 0.02742175 -0.03235424
v -0.00745582 0.02777156 -0.03244502
v -0.00645288 0.02819300 -0.03224167
v -0.00462345 0.02866607 -0.03208553
v -0.00557067 0.02854447 -0.03195662
v -0.00408948 0.02859944 -0.03237784
v 0.00380400 0.02926241 -0.03154630
v 0.00200243 0.02924076 -0.03174783
v 0.00092520 0.02923576 -0.03180775
v 0.00489516 0.02918579 -0.03151725
v 0.03111081 0.03055171 -0.01967056
v -0.00300296 0.02891094 -0.03205830
v -0.00192109 0.02909750 -0.03186222
v -0.00102495 0.02924409 -0.03162437
v 0.00015443 0.02929906 -0.03159895
v -0.00462345 0.03055171 -0.02407517
v -0.01254479 0.02730515 -0.02815842
v -0.01346879 0.02692202 -0.02815842
v -0.01435565 0.02652391 -0.02815842
v -0.01440208 0.02650225 -0.02815842
v -0.01440208 0.01944443 -0.02815842
v -0.00462345 0.01353431 -0.02789879
v -0.01440208 0.02139836 -0.03197297
v 0.00422654 0.01353431 -0.02800954
v 0.00222995 0.01353431 -0.02802225
v 0.00200243 0.01353431 -0.02802225
v 0.00078126 0.01353431 -0.02801862
v 0.00045624 0.01353431 -0.02801499
v -0.00063492 0.01353431 -0.02800228
v -0.00086244 0.01353431 -0.02799865
v -0.00253400 0.01353431 -0.02796597
v -0.00380160 0.01353431 -0.02792784
v -0.01440208 0.02478152 -0.03239055
v -0.01320413 0.02538619 -0.03243049
v -0.01254014 0.02592923 -0.03229432
v -0.01195974 0.02628903 -0.03223622
v -0.01033461 0.02684373 -0.03234335
v -0.00967992 0.02733513 -0.03205467
v -0.00878842 0.02765996 -0.03200202
v -0.00782727 0.02786984 -0.03213092
v -0.00727009 0.02809305 -0.03202925
v -0.00669897 0.02832293 -0.03187311
v -0.00462345 0.02868273 -0.03205103
v -0.00453523 0.02869439 -0.03206011
v -0.00585855 0.02859445 -0.03167158
v -0.00495312 0.02883098 -0.03147549
v 0.00360434 0.02943732 -0.03091629
v 0.00443548 0.02932905 -0.03115232
v 0.00185849 0.02933238 -0.03148639
v 0.00117130 0.02942732 -0.03121768
v 0.00218816 0.02946064 -0.03099437
v 0.02824129 0.03055171 -0.02051117
v 0.02851524 0.03055171 -0.02043310
v 0.02947639 0.03055171 -0.02015895
v 0.03031681 0.03055171 -0.01991203
v -0.00437736 0.02880100 -0.03182590
v -0.00332335 0.02897257 -0.03174420
v -0.00269187 0.02910084 -0.03160985
v -0.00146141 0.02931905 -0.03118682
v -0.00051884 0.02938068 -0.03120679
v 0.00050731 0.02949229 -0.03095442
v -0.00093673 0.02964887 -0.02997401
v -0.00198610 0.02965220 -0.02957639
v -0.00284974 0.02951728 -0.02980516
v -0.00377838 0.02934570 -0.03009928
v -0.00462345 0.02917080 -0.03030626
v -0.00503205 0.02908585 -0.03040612
v -0.00620214 0.02896425 -0.02996674
v -0.00733509 0.02865774 -0.03022274
v -0.00766940 0.02873437 -0.02933674
v -0.00869556 0.02837457 -0.02973617
v -0.00876520 0.02863609 -0.02815842
v -0.00944311 0.02843120 -0.02815842
v -0.01024175 0.02816968 -0.02815842
v -0.01068285 0.02801809 -0.02815842
v -0.01155578 0.02769660 -0.02815842
v -0.01165793 0.02765829 -0.02815842
v 0.00010335 0.03055171 -0.02510097
v -0.00007773 0.03021357 -0.02706181
v -0.00033311 0.02991872 -0.02866315
v 0.00012193 0.02976048 -0.02964902
v -0.01338521 0.02676544 -0.02921146
v -0.01345950 0.02692369 -0.02817476
v -0.01440208 0.02650058 -0.02817295
v -0.01440208 0.01944609 -0.02816750
v -0.01440208 0.02010573 -0.02985599
v -0.01440208 0.02041890 -0.03060038
v -0.01440208 0.02064711 -0.03100889
v -0.01440208 0.02088031 -0.03137564
v -0.01440208 0.02113351 -0.03171515
v -0.01440208 0.02489646 -0.03230340
v -0.01407705 0.02514132 -0.03225075
v -0.01352451 0.02568603 -0.03204377
v -0.01157435 0.02662385 -0.03204014
v -0.01293946 0.02631236 -0.03171515
v -0.01189938 0.02668215 -0.03180230
v -0.01071536 0.02707028 -0.03188400
v -0.01092895 0.02709859 -0.03172060
v -0.00955920 0.02757833 -0.03168792
v -0.00802693 0.02800810 -0.03177870
v -0.00690791 0.02839622 -0.03156264
v -0.00462345 0.02881433 -0.03167703
v -0.00587712 0.02872104 -0.03122313
v -0.00471167 0.02898590 -0.03103794
v -0.00462345 0.02900756 -0.03100708
v -0.00343478 0.02907585 -0.03137745
v -0.00604428 0.02884098 -0.03066211
v 0.00329325 0.02958724 -0.03033712
v 0.00406867 0.02962055 -0.03004300
v 0.02528820 0.03055171 -0.02125919
v 0.00436119 0.02945898 -0.03065122
v 0.02693655 0.03055171 -0.02085795
v 0.02771661 0.03055171 -0.02065279
v 0.00133381 0.02969884 -0.03002121
v 0.00138953 0.02955559 -0.03064577
v -0.00297975 0.02923576 -0.03093445
v -0.00180965 0.02951894 -0.03024271
v -0.00380160 0.02918746 -0.03073655
v -0.00712615 0.02855447 -0.03085275
v -0.00842160 0.02816801 -0.03103068
v -0.00839839 0.02832293 -0.03040430
v -0.00955920 0.02805307 -0.02997945
v -0.00929918 0.02833292 -0.02899177
v -0.01055749 0.02780987 -0.02951829
v -0.01250764 0.02714523 -0.02904987
v 0.00105986 0.03055171 -0.02522443
v 0.00114808 0.03016692 -0.02749936
v 0.00026587 0.03009363 -0.02779530
v 0.00009871 0.03004699 -0.02803314
v 0.00092056 0.02985043 -0.02926048
v -0.01311126 0.02673712 -0.02987959
v -0.01405848 0.02626904 -0.03013559
v -0.01417920 0.02636566 -0.02944749
v -0.01440208 0.02629736 -0.02923325
v -0.01440208 0.02515299 -0.03207645
v -0.01440208 0.02526959 -0.03197115
v -0.01440208 0.02558942 -0.03159351
v -0.01440208 0.02564272 -0.03152815
v -0.01440208 0.02570768 -0.03142647
v -0.01417456 0.02587093 -0.03134477
v -0.01324127 0.02633068 -0.03127033
v -0.01242406 0.02657388 -0.03160985
v -0.01144899 0.02699532 -0.03145008
v -0.01039033 0.02741342 -0.03139198
v -0.00935025 0.02781654 -0.03124855
v -0.00844482 0.02802642 -0.03145916
v -0.00732116 0.02839622 -0.03124673
v 0.00309823 0.02976881 -0.02954553
v 0.02376987 0.03055171 -0.02158418
v 0.02511640 0.03055171 -0.02129732
v 0.00258748 0.02997536 -0.02854514
v -0.00960098 0.02789483 -0.03062943
v -0.01054356 0.02768328 -0.03012652
v -0.01224762 0.02690370 -0.03068027
v 0.00123166 0.03055171 -0.02524259
v 0.00223924 0.03055171 -0.02524804
v 0.00127809 0.03007364 -0.02803314
v 0.00133381 0.03003366 -0.02825465
v -0.01324127 0.02650058 -0.03065667
v -0.01421171 0.02603084 -0.03078194
v -0.01440208 0.02609747 -0.03016101
v -0.01440208 0.02614411 -0.02995222
v -0.01440208 0.02625072 -0.02947109
v -0.01440208 0.02576765 -0.03130301
v -0.01440208 0.02579763 -0.03123039
v -0.01142577 0.02714523 -0.03096531
v -0.01034390 0.02755168 -0.03094716
v 0.02220510 0.03055171 -0.02189102
v 0.00283821 0.03025688 -0.02690930
v 0.02104429 0.03055171 -0.02209618
v 0.00242497 0.03055171 -0.02523533
v -0.01440208 0.02591590 -0.03085457
v -0.01440208 0.02596921 -0.03066030
v 0.00310752 0.03055171 -0.02518268
f 1 2 3
f 1 3 4
f 1 4 5
f 1 5 6
f 1 6 7
f 1 7 2
f 2 8 3
f 2 7 9
f 2 9 10
f 2 10 11
f 2 11 12
f 2 12 8
f 3 8 13
f 3 13 14
f 3 14 15
f 3 15 16
f 3 16 4
f 4 16 17
f 4 17 5
f 5 18 19
f 5 19 20
f 5 20 21
f 5 21 6
f 5 17 18
f 6 21 7
f 7 21 22
f 7 22 23
f 7 23 9
f 8 12 24
f 8 24 25
f 8 25 26
f 8 26 13
f 9 23 27
f 9 27 10
f 10 27 28
f 10 28 29
f 10 29 11
f 11 29 30
f 11 30 31
f 11 31 12
f 12 31 30
f 12 30 32
f 12 32 33
f 12 33 24
f 13 26 34
f 13 34 35
f 13 35 36
f 13 36 37
f 13 37 14
f 14 37 38
f 14 38 15
f 15 38 39
f 15 39 40
f 15 40 41
f 15 41 42
f 15 42 43
f 15 43 44
f 15 44 45
f 15 45 46
f 15 46 47
f 15 47 48
f 15 48 16
f 16 48 49
f 16 49 50
f 16 50 51
f 16 51 52
f 16 52 17
f 17 52 53
f 17 53 54
f 17 54 18
f 18 55 84
f 18 84 111
f 18 111 143
f 18 143 210
f 18 210 209
f 18 209 208
f 18 208 207
f 18 207 206
f 18 206 205
f 18 205 141
f 18 141 140
f 18 140 204
f 18 204 254
f 18 254 283
f 18 283 282
f 18 282 281
f 18 281 293
f 18 293 292
f 18 292 285
f 18 285 284
f 18 284 259
f 18 259 258
f 18 258 257
f 18 257 256
f 18 256 255
f 18 255 211
f 18 211 153
f 18 153 115
f 18 115 89
f 18 89 88
f 18 88 56
f 18 56 19
f 18 54 57
f 18 57 55
f 19 56 20
f 20 56 58
f 20 58 59
f 20 59 60
f 20 60 21
f 21 60 22
f 22 60 61
f 22 61 23
f 23 61 62
f 23 62 63
f 23 63 64
f 23 64 27
f 24 65 66
f 24 66 25
f 24 33 67
f 24 67 65
f 25 66 68
f 25 68 26
f 26 68 69
f 26 69 34
f 27 64 70
f 27 70 28
f 28 70 29
f 29 70 71
f 29 71 72
f 29 72 30
f 30 73 32
f 30 72 73
f 32 73 74
f 32 74 75
f 32 75 67
f 32 67 33
f 34 76 77
f 34 77 35
f 34 69 76
f 35 77 39
f 35 39 36
f 36 39 37
f 37 39 38
f 39 78 108
f 39 108 131
f 39 131 175
f 39 175 174
f 39 174 173
f 39 173 172
f 39 172 233
f 39 233 232
f 39 232 230
f 39 230 270
f 39 270 269
f 39 269 288
f 39 288 290
f 39 290 294
f 39 294 291
f 39 291 276
f 39 276 275
f 39 275 246
f 39 246 198
f 39 198 136
f 39 136 109
f 39 109 79
f 39 79 82
f 39 82 53
f 39 53 52
f 39 52 51
f 39 51 50
f 39 50 49
f 39 49 48
f 39 48 47
f 39 47 46
f 39 46 45
f 39 45 44
f 39 44 43
f 39 43 42
f 39 42 41
f 39 41 40
f 39 77 80
f 39 80 76
f 39 76 81
f 39 81 69
f 39 69 78
f 53 82 110
f 53 110 142
f 53 142 152
f 53 152 151
f 53 151 150
f 53 150 149
f 53 149 148
f 53 148 147
f 53 147 146
f 53 146 145
f 53 145 144
f 53 144 114
f 53 114 113
f 53 113 112
f 53 112 87
f 53 87 86
f 53 86 85
f 53 85 83
f 53 83 57
f 53 57 54
f 55 57 85
f 55 85 86
f 55 86 87
f 55 87 84
f 56 88 58
f 57 83 85
f 58 88 89
f 58 89 90
f 58 90 59
f 59 91 92
f 59 92 60
f 59 90 91
f 60 93 61
f 60 92 93
f 61 93 94
f 61 94 62
f 62 95 63
f 62 94 95
f 63 95 96
f 63 96 97
f 63 97 98
f 63 98 99
f 63 99 64
f 64 99 70
f 65 100 68
f 65 68 66
f 65 67 101
f 65 101 102
f 65 102 100
f 67 75 101
f 68 103 69
f 68 100 103
f 69 103 78
f 69 81 76
f 70 99 71
f 71 104 72
f 71 99 104
f 72 104 73
f 73 104 105
f 73 105 74
f 74 105 106
f 74 106 107
f 74 107 101
f 74 101 75
f 76 80 77
f 78 103 108
f 79 109 110
f 79 110 82
f 84 87 112
f 84 112 113
f 84 113 114
f 84 114 111
f 89 115 90
f 90 115 91
f 91 116 117
f 91 117 118
f 91 118 92
f 91 115 116
f 92 118 93
f 93 118 119
f 93 119 120
f 93 120 94
f 94 120 121
f 94 121 122
f 94 122 95
f 95 122 123
f 95 123 96
f 96 124 97
f 96 123 125
f 96 125 124
f 97 124 126
f 97 126 98
f 98 126 99
f 99 126 104
f 100 102 127
f 100 127 103
f 101 128 102
f 101 107 129
f 101 129 128
f 102 128 127
f 103 127 130
f 103 130 131
f 103 131 108
f 104 106 105
f 104 126 132
f 104 132 106
f 106 132 133
f 106 133 134
f 106 134 107
f 107 135 129
f 107 134 135
f 109 136 137
f 109 137 138
f 109 138 139
f 109 139 140
f 109 140 141
f 109 141 110
f 110 141 142
f 111 114 144
f 111 144 145
f 111 145 146
f 111 146 147
f 111 147 148
f 111 148 149
f 111 149 150
f 111 150 151
f 111 151 152
f 111 152 142
f 111 142 143
f 115 153 154
f 115 154 116
f 116 154 155
f 116 155 117
f 117 155 156
f 117 156 157
f 117 157 120
f 117 120 119
f 117 119 118
f 120 157 121
f 121 157 158
f 121 158 159
f 121 159 122
f 122 159 160
f 122 160 123
f 123 160 161
f 123 161 162
f 123 162 125
f 124 163 164
f 124 164 126
f 124 125 163
f 125 162 165
f 125 165 166
f 125 166 163
f 126 164 132
f 127 167 168
f 127 168 130
f 127 128 169
f 127 169 170
f 127 170 171
f 127 171 167
f 128 129 169
f 129 135 170
f 129 170 169
f 130 168 172
f 130 172 173
f 130 173 174
f 130 174 175
f 130 175 131
f 132 164 176
f 132 176 177
f 132 177 178
f 132 178 133
f 133 178 134
f 134 178 179
f 134 179 180
f 134 180 135
f 135 180 181
f 135 181 170
f 136 182 183
f 136 183 184
f 136 184 185
f 136 185 186
f 136 186 187
f 136 187 188
f 136 188 189
f 136 189 190
f 136 190 191
f 136 191 192
f 136 192 193
f 136 193 194
f 136 194 195
f 136 195 196
f 136 196 197
f 136 197 137
f 136 198 199
f 136 199 200
f 136 200 201
f 136 201 182
f 137 202 203
f 137 203 138
f 137 197 202
f 138 203 139
f 139 204 140
f 139 203 204
f 141 205 142
f 142 205 206
f 142 206 207
f 142 207 208
f 142 208 209
f 142 209 210
f 142 210 143
f 153 211 154
f 154 211 155
f 155 211 212
f 155 212 213
f 155 213 156
f 156 214 157
f 156 213 215
f 156 215 214
f 157 214 158
f 158 214 216
f 158 216 217
f 158 217 218
f 158 218 219
f 158 219 159
f 159 220 161
f 159 161 160
f 159 219 220
f 161 220 162
f 162 220 221
f 162 221 165
f 163 166 164
f 164 166 222
f 164 222 176
f 165 223 166
f 165 221 223
f 166 224 225
f 166 225 226
f 166 226 222
f 166 223 227
f 166 227 224
f 167 171 228
f 167 228 229
f 167 229 230
f 167 230 231
f 167 231 168
f 168 231 230
f 168 230 232
f 168 232 233
f 168 233 172
f 170 181 234
f 170 234 235
f 170 235 171
f 171 235 234
f 171 234 228
f 176 226 177
f 176 222 226
f 177 226 178
f 178 236 237
f 178 237 179
f 178 226 236
f 179 182 180
f 179 237 182
f 180 182 181
f 181 182 201
f 181 201 234
f 182 237 183
f 183 237 184
f 184 237 236
f 184 236 185
f 185 236 226
f 185 226 238
f 185 238 225
f 185 225 186
f 186 225 187
f 187 225 224
f 187 224 227
f 187 227 188
f 188 227 189
f 189 227 239
f 189 239 240
f 189 240 241
f 189 241 191
f 189 191 190
f 191 241 242
f 191 242 243
f 191 243 192
f 192 243 193
f 193 243 194
f 194 243 244
f 194 244 195
f 195 244 196
f 196 244 197
f 197 244 245
f 197 245 202
f 198 246 247
f 198 247 199
f 199 247 248
f 199 248 249
f 199 249 201
f 199 201 200
f 201 249 248
f 201 248 250
f 201 250 234
f 202 245 251
f 202 251 252
f 202 252 253
f 202 253 203
f 203 253 204
f 204 253 254
f 211 255 212
f 212 255 213
f 213 255 256
f 213 256 215
f 214 215 216
f 215 256 257
f 215 257 258
f 215 258 259
f 215 259 260
f 215 260 261
f 215 261 262
f 215 262 216
f 216 262 218
f 216 218 217
f 218 263 264
f 218 264 219
f 218 262 263
f 219 265 266
f 219 266 220
f 219 264 265
f 220 266 221
f 221 267 239
f 221 239 223
f 221 266 267
f 223 239 227
f 225 238 226
f 228 234 268
f 228 268 229
f 229 268 269
f 229 269 270
f 229 270 230
f 234 271 268
f 234 250 271
f 239 267 240
f 240 266 265
f 240 265 272
f 240 272 241
f 240 267 266
f 241 272 242
f 242 272 273
f 242 273 244
f 242 244 243
f 244 273 274
f 244 274 251
f 244 251 245
f 246 275 247
f 247 275 276
f 247 276 277
f 247 277 250
f 247 250 248
f 250 277 278
f 250 278 271
f 251 279 252
f 251 274 279
f 252 279 280
f 252 280 281
f 252 281 253
f 253 281 282
f 253 282 283
f 253 283 254
f 259 284 260
f 260 280 261
f 260 284 285
f 260 285 280
f 261 279 262
f 261 280 279
f 262 274 286
f 262 286 263
f 262 279 274
f 263 286 264
f 264 286 287
f 264 287 265
f 265 287 272
f 268 271 288
f 268 288 269
f 271 278 277
f 271 277 276
f 271 276 289
f 271 289 290
f 271 290 288
f 272 287 273
f 273 287 286
f 273 286 274
f 276 291 289
f 280 285 292
f 280 292 293
f 280 293 281
f 289 291 294
f 289 294 290

