# https://github.com/mikedh/trimesh
v 0.00366674 -0.01054715 -0.01547026
v 0.00387045 -0.01049973 -0.01547026
v 0.00366674 -0.01051287 -0.01516961
v 0.00366674 -0.01052273 -0.01698316
v 0.00433037 -0.01034852 -0.01547026
v 0.00428762 -0.01032316 -0.01496597
v 0.00387045 -0.01044103 -0.01496597
v 0.00387045 -0.01047296 -0.01698316
v 0.00430148 -0.01033161 -0.01698316
v 0.00366674 -0.01048282 -0.01496597
v 0.00366674 -0.01051663 -0.01718592
v 0.00458256 -0.01024802 -0.01547026
v 0.00453981 -0.01023863 -0.01496597
v 0.00455368 -0.01023863 -0.01698316
v 0.00419829 -0.01028747 -0.01468541
v 0.00366674 -0.01050489 -0.01748658
v 0.00387045 -0.01045324 -0.01748658
v 0.00449151 -0.01021656 -0.01799175
v 0.00452260 -0.01022783 -0.01748658
v 0.00387045 -0.01043163 -0.01799175
v 0.00420824 -0.01029780 -0.01849605
v 0.00366674 -0.01041332 -0.01477543
v 0.00464367 -0.01022126 -0.01547026
v 0.00464367 -0.01021797 -0.01536626
v 0.00464367 -0.01019684 -0.01496597
v 0.00464367 -0.01019872 -0.01698316
v 0.00437474 -0.01010198 -0.02147726
v 0.00441931 -0.01008367 -0.02147726
v 0.00464367 -0.01000008 -0.02125352
v 0.00387045 -0.01032457 -0.01464696
v 0.00464367 -0.01014143 -0.01482700
v 0.00464367 -0.00997942 -0.01451236
v 0.00464367 -0.00986108 -0.01437689
v 0.00366674 -0.01049644 -0.01769110
v 0.00446043 -0.01020529 -0.01849605
v 0.00437474 -0.01012311 -0.02101754
v 0.00366674 -0.01047484 -0.01819539
v 0.00366674 -0.01046169 -0.01849605
v 0.00387045 -0.01040956 -0.01849605
v 0.00412800 -0.01026822 -0.01980006
v 0.00366674 -0.01034147 -0.01463385
v 0.00410476 -0.01026070 -0.02013655
v 0.00407635 -0.01025178 -0.02051324
v 0.00403523 -0.01024051 -0.02101754
v 0.00399372 -0.01023018 -0.02147726
v 0.00464367 -0.00998928 -0.02147726
v 0.00464367 -0.00971034 -0.01424579
v 0.00366674 -0.01043962 -0.01900035
v 0.00366674 -0.01043070 -0.01920399
v 0.00387045 -0.01038702 -0.01900035
v 0.00366674 -0.01015645 -0.01449401
v 0.00387045 -0.01036354 -0.01950464
v 0.00382416 -0.01032785 -0.02051324
v 0.00397144 -0.01023675 -0.02147726
v 0.00464367 -0.00575027 -0.02147726
v 0.00464367 -0.00957557 -0.01416626
v 0.00437474 -0.00972114 -0.01423006
v 0.00366674 -0.01041661 -0.01950464
v 0.00366674 -0.01001370 -0.01440049
v 0.00366674 -0.01040675 -0.01970829
v 0.00366674 -0.01036730 -0.02051324
v 0.00378303 -0.01031330 -0.02101754
v 0.00374153 -0.01030015 -0.02147726
v 0.00366674 -0.00693975 -0.02147726
v 0.00464367 -0.00575872 -0.01796466
v 0.00464367 -0.00671763 -0.01267784
v 0.00387045 -0.00972161 -0.01422744
v 0.00366674 -0.00983995 -0.01428949
v 0.00366674 -0.01034100 -0.02101754
v 0.00366674 -0.01031611 -0.02147726
v 0.00366674 -0.00696463 -0.01446167
v 0.00366674 -0.00696698 -0.01395737
v 0.00464367 -0.00576107 -0.01748658
v 0.00464367 -0.00647767 -0.01260442
v 0.00366674 -0.00731448 -0.01317252
v 0.00366674 -0.00776294 -0.01332197
v 0.00366674 -0.00799680 -0.01342336
v 0.00366674 -0.00852603 -0.01366982
v 0.00366674 -0.00880919 -0.01380180
v 0.00366674 -0.00972161 -0.01422744
v 0.00366674 -0.00701817 -0.01344084
v 0.00464367 -0.00586955 -0.01294790
v 0.00464367 -0.00585123 -0.01345220
v 0.00464367 -0.00576154 -0.01746386
v 0.00464367 -0.00631519 -0.01256946
v 0.00464367 -0.00607570 -0.01255023
v 0.00366674 -0.00717642 -0.01317252
v 0.00366674 -0.00711115 -0.01326953
v 0.00464367 -0.00589819 -0.01286924
f 1 2 3
f 1 3 10
f 1 10 22
f 1 22 41
f 1 41 51
f 1 51 59
f 1 59 68
f 1 68 80
f 1 80 79
f 1 79 78
f 1 78 77
f 1 77 76
f 1 76 75
f 1 75 87
f 1 87 88
f 1 88 81
f 1 81 72
f 1 72 71
f 1 71 64
f 1 64 70
f 1 70 69
f 1 69 61
f 1 61 60
f 1 60 58
f 1 58 49
f 1 49 48
f 1 48 38
f 1 38 37
f 1 37 34
f 1 34 16
f 1 16 11
f 1 11 4
f 1 4 2
f 2 5 6
f 2 6 7
f 2 7 3
f 2 4 8
f 2 8 9
f 2 9 5
f 3 7 10
f 4 11 8
f 5 12 13
f 5 13 6
f 5 9 14
f 5 14 12
f 6 13 15
f 6 15 7
f 7 15 10
f 8 11 16
f 8 16 17
f 8 17 9
f 9 18 19
f 9 19 14
f 9 17 20
f 9 20 21
f 9 21 35
f 9 35 18
f 10 15 22
f 12 23 24
f 12 24 13
f 12 14 23
f 13 25 15
f 13 24 25
f 14 26 23
f 14 19 27
f 14 27 28
f 14 28 29
f 14 29 26
f 15 30 22
f 15 25 31
f 15 31 32
f 15 32 33
f 15 33 30
f 16 34 17
f 17 34 20
f 18 35 36
f 18 36 19
f 19 36 27
f 20 34 37
f 20 37 38
f 20 38 48
f 20 48 39
f 20 39 40
f 20 40 21
f 21 40 36
f 21 36 35
f 22 30 41
f 23 26 29
f 23 29 46
f 23 46 55
f 23 55 65
f 23 65 73
f 23 73 84
f 23 84 83
f 23 83 82
f 23 82 89
f 23 89 86
f 23 86 85
f 23 85 74
f 23 74 66
f 23 66 56
f 23 56 47
f 23 47 33
f 23 33 32
f 23 32 31
f 23 31 25
f 23 25 24
f 27 36 40
f 27 40 42
f 27 42 43
f 27 43 44
f 27 44 45
f 27 45 54
f 27 54 63
f 27 63 70
f 27 70 64
f 27 64 55
f 27 55 46
f 27 46 28
f 28 46 29
f 30 33 47
f 30 47 41
f 39 48 49
f 39 49 50
f 39 50 42
f 39 42 40
f 41 47 51
f 42 50 52
f 42 52 43
f 43 52 44
f 44 52 53
f 44 53 45
f 45 53 54
f 47 56 57
f 47 57 51
f 49 58 52
f 49 52 50
f 51 57 59
f 52 58 53
f 53 58 60
f 53 60 61
f 53 61 62
f 53 62 54
f 54 62 63
f 55 64 65
f 56 66 57
f 57 66 67
f 57 67 68
f 57 68 59
f 61 69 63
f 61 63 62
f 63 69 70
f 64 71 65
f 65 71 72
f 65 72 73
f 66 74 75
f 66 75 76
f 66 76 77
f 66 77 78
f 66 78 79
f 66 79 80
f 66 80 67
f 67 80 68
f 72 81 82
f 72 82 83
f 72 83 84
f 72 84 73
f 74 85 75
f 75 85 86
f 75 86 87
f 81 88 89
f 81 89 82
f 86 89 88
f 86 88 87

