# https://github.com/mikedh/trimesh
v -0.00016434 0.00568467 -0.04227540
v -0.00021370 0.00568467 -0.04227360
v -0.00087796 0.00580736 -0.04219454
v -0.00066716 0.00580736 -0.04220173
v -0.00066716 0.00607472 -0.04206518
v -0.00021575 0.00607691 -0.04207117
v -0.00016434 0.00607691 -0.04207117
v 0.00034054 0.00607563 -0.04207057
v 0.00034054 0.00568467 -0.04227180
v -0.00021575 0.00568467 -0.04148722
v -0.00484607 0.00580736 -0.04101048
v -0.00466407 0.00580736 -0.04113566
v -0.00437718 0.00580736 -0.04132492
v -0.00431034 0.00580736 -0.04136624
v -0.00406973 0.00580736 -0.04149680
v -0.00387230 0.00580736 -0.04158784
v -0.00366150 0.00580736 -0.04168067
v -0.00334891 0.00580736 -0.04180525
v -0.00327281 0.00580736 -0.04183399
v -0.00318952 0.00580736 -0.04186454
v -0.00302706 0.00580736 -0.04192263
v -0.00284197 0.00580736 -0.04197474
v -0.00218079 0.00580736 -0.04207656
v -0.00167693 0.00580736 -0.04214124
v -0.00139621 0.00580736 -0.04216460
v -0.00117205 0.00580736 -0.04218137
v -0.00117205 0.00606721 -0.04205320
v -0.00117205 0.00631918 -0.04191066
v -0.00021575 0.00632871 -0.04191485
v -0.00016434 0.00632889 -0.04191485
v -0.00066716 0.00632651 -0.04191365
v 0.00034054 0.00624410 -0.04196576
v 0.00084337 0.00632266 -0.04191245
v 0.00084337 0.00607069 -0.04206098
v 0.00084337 0.00568467 -0.04225443
v -0.00021575 0.00568467 -0.03615686
v -0.00484710 0.00580736 -0.04060861
v -0.00458489 0.00612727 -0.04103384
v -0.00575815 0.00594433 -0.04011690
v -0.00553605 0.00594433 -0.04035467
v -0.00540031 0.00594433 -0.04047984
v -0.00504248 0.00594433 -0.04078529
v -0.00490469 0.00594433 -0.04090028
v -0.00447795 0.00641020 -0.04096137
v -0.00418078 0.00611555 -0.04129078
v -0.00399980 0.00593976 -0.04147345
v -0.00383117 0.00627615 -0.04140038
v -0.00367590 0.00611555 -0.04153633
v -0.00334891 0.00586504 -0.04177889
v -0.00349492 0.00640598 -0.04146626
v -0.00289235 0.00586065 -0.04194420
v -0.00218079 0.00597144 -0.04199690
v -0.00183220 0.00601777 -0.04202026
v -0.00167693 0.00603809 -0.04203044
v -0.00167693 0.00629043 -0.04189928
v -0.00117205 0.00662280 -0.04165911
v -0.00218079 0.00685958 -0.04142553
v -0.00016434 0.00649974 -0.04177350
v 0.00034054 0.00632724 -0.04191365
v -0.00062912 0.00667957 -0.04161898
v -0.00021678 0.00663690 -0.04165851
v 0.00033129 0.00649974 -0.04176991
v 0.00032306 0.00668067 -0.04161898
v 0.00084337 0.00662408 -0.04166031
v 0.00134723 0.00661383 -0.04165492
v 0.00134723 0.00649938 -0.04175015
v 0.00134723 0.00630783 -0.04190766
v 0.00134723 0.00605586 -0.04204182
v 0.00134723 0.00568467 -0.04221970
v -0.00575815 0.00594433 -0.03666115
v -0.00484710 0.00580736 -0.03813987
v 0.00134723 0.00568467 -0.03615686
v -0.00021678 0.00755544 -0.03652699
v -0.00575815 0.00696103 -0.03666115
v -0.00575815 0.00601044 -0.04009055
v -0.00567795 0.00605750 -0.04014804
v -0.00554736 0.00651348 -0.04001927
v -0.00535713 0.00622982 -0.04035587
v -0.00502088 0.00647612 -0.04049002
v -0.00489338 0.00681233 -0.04039599
v -0.00484710 0.00609981 -0.04085417
v -0.00455713 0.00695608 -0.04050679
v -0.00420032 0.00652062 -0.04104822
v -0.00392577 0.00687294 -0.04093203
v -0.00371086 0.00663946 -0.04119974
v -0.00358952 0.00695535 -0.04099970
v -0.00334891 0.00681453 -0.04119435
v -0.00318952 0.00672150 -0.04132252
v -0.00334891 0.00643657 -0.04148722
v -0.00318952 0.00646971 -0.04150998
v -0.00270726 0.00609852 -0.04184537
v -0.00218079 0.00622378 -0.04186993
v -0.00183220 0.00627029 -0.04189029
v -0.00218079 0.00660778 -0.04161779
v -0.00117205 0.00687496 -0.04143871
v -0.00077102 0.00688045 -0.04144350
v -0.00268567 0.00681526 -0.04139499
v -0.00268567 0.00696084 -0.04126263
v -0.00239878 0.00696084 -0.04130216
v -0.00218079 0.00696084 -0.04132671
v -0.00016434 0.00663122 -0.04166330
v 0.00005366 0.00649974 -0.04177231
v -0.00043580 0.00688356 -0.04144590
v -0.00016434 0.00688448 -0.04144769
v 0.00014517 0.00688448 -0.04144769
v 0.00048142 0.00688137 -0.04144470
v 0.00185108 0.00686013 -0.04142553
v 0.00185108 0.00660833 -0.04163276
v 0.00235596 0.00683614 -0.04141116
v 0.00235596 0.00658416 -0.04159503
v 0.00185108 0.00625912 -0.04188430
v 0.00185108 0.00624410 -0.04189209
v 0.00167730 0.00602363 -0.04202325
v 0.00167730 0.00568467 -0.04218616
v 0.00185108 0.00568467 -0.03615746
v 0.00084851 0.00755544 -0.03652699
v -0.00021678 0.00755544 -0.04061460
v -0.00575815 0.00696103 -0.03936166
v -0.00575815 0.00612105 -0.04001868
v -0.00543322 0.00684950 -0.03990309
v -0.00522756 0.00666272 -0.04020793
v -0.00575815 0.00656603 -0.03971562
v -0.00575815 0.00667114 -0.03963597
v -0.00484710 0.00696084 -0.04029538
v -0.00482345 0.00696084 -0.04031275
v -0.00456124 0.00696084 -0.04049961
v -0.00504556 0.00696103 -0.04014565
v -0.00454171 0.00696084 -0.04051099
v -0.00405327 0.00696084 -0.04078170
v -0.00420032 0.00677259 -0.04086015
v -0.00387950 0.00696084 -0.04087153
v -0.00359466 0.00696084 -0.04099252
v -0.00356176 0.00696084 -0.04100449
v -0.00334891 0.00696084 -0.04107696
v -0.00318952 0.00696084 -0.04113027
v -0.00268567 0.00656365 -0.04157167
v -0.00134274 0.00696084 -0.04135007
v -0.00301883 0.00696084 -0.04117938
v -0.00021678 0.00735437 -0.04089549
v 0.00134723 0.00737616 -0.04092723
v -0.00090572 0.00696084 -0.04135726
v 0.00185108 0.00737323 -0.04092484
v 0.00185108 0.00712107 -0.04117399
v 0.00235596 0.00710258 -0.04115902
v 0.00285982 0.00732232 -0.04087513
v 0.00285982 0.00707035 -0.04110511
v 0.00287421 0.00676216 -0.04135726
v 0.00287421 0.00675428 -0.04136325
v 0.00285982 0.00651421 -0.04154352
v 0.00235494 0.00618056 -0.04184657
v 0.00185005 0.00600678 -0.04201307
v 0.00235494 0.00592877 -0.04197654
v 0.00185005 0.00568467 -0.04216759
v 0.00235596 0.00568467 -0.03616584
v 0.00185108 0.00755544 -0.03652998
v -0.00484710 0.00696103 -0.04029478
v -0.00511651 0.00696103 -0.04008156
v -0.00537255 0.00696103 -0.03984319
v -0.00553193 0.00696103 -0.03966352
v 0.00134723 0.00755544 -0.04067988
v 0.00185108 0.00755544 -0.04069905
v 0.00235596 0.00755544 -0.04066431
v 0.00235596 0.00735474 -0.04090268
v 0.00285982 0.00753712 -0.04062298
v 0.00287421 0.00753621 -0.04062059
v 0.00287421 0.00731994 -0.04087333
v 0.00287421 0.00706778 -0.04110391
v 0.00366599 0.00678852 -0.04105301
v 0.00375133 0.00678852 -0.04102246
v 0.00366599 0.00663031 -0.04117818
v 0.00366599 0.00630948 -0.04141835
v 0.00287421 0.00651146 -0.04154232
v 0.00283308 0.00624410 -0.04170702
v 0.00281766 0.00608168 -0.04180285
v 0.00262229 0.00588299 -0.04195438
v 0.00235494 0.00568467 -0.04209273
v 0.00285879 0.00568467 -0.03619339
v 0.00233745 0.00755544 -0.03659287
v 0.00254619 0.00755544 -0.04064035
v 0.00282794 0.00755544 -0.04060442
v 0.00285982 0.00755544 -0.04059963
v 0.00287421 0.00755342 -0.04059843
v 0.00438064 0.00678852 -0.04068407
v 0.00406084 0.00678852 -0.04087333
v 0.00402177 0.00678852 -0.04089549
v 0.00398269 0.00678852 -0.04091705
v 0.00385005 0.00663983 -0.04109194
v 0.00422537 0.00647777 -0.04101048
v 0.00389940 0.00616518 -0.04137043
v 0.00366599 0.00619741 -0.04147225
v 0.00364131 0.00624410 -0.04146087
v 0.00347267 0.00624410 -0.04152615
v 0.00335339 0.00624410 -0.04156149
v 0.00306033 0.00611665 -0.04171421
v 0.00295853 0.00578264 -0.04191365
v 0.00287524 0.00568467 -0.04197654
v 0.00276933 0.00568467 -0.04200289
v 0.00332254 0.00568467 -0.03665695
v 0.00474670 0.00678852 -0.03749005
v 0.00277961 0.00755544 -0.03673661
v 0.00273848 0.00755544 -0.03671625
v 0.00235596 0.00755544 -0.03659706
v 0.00287421 0.00755544 -0.04058825
v 0.00474670 0.00678852 -0.04045289
v 0.00469632 0.00678852 -0.04049482
v 0.00456264 0.00629703 -0.04089549
v 0.00438578 0.00612837 -0.04110092
v 0.00408861 0.00583758 -0.04142853
v 0.00375133 0.00602271 -0.04151178
v 0.00336676 0.00568467 -0.04181603
v 0.00319812 0.00568467 -0.04187472
v 0.00302743 0.00568467 -0.04193282
v 0.00366496 0.00568467 -0.03872561
v 0.00474670 0.00577989 -0.03828122
v 0.00287421 0.00755544 -0.03697558
v 0.00474670 0.00665759 -0.04053674
v 0.00474670 0.00622030 -0.04079368
v 0.00474670 0.00601374 -0.04091166
v 0.00468912 0.00596100 -0.04098713
v 0.00438372 0.00577989 -0.04127161
v 0.00411020 0.00577989 -0.04144170
v 0.00403102 0.00577989 -0.04148243
v 0.00417910 0.00577989 -0.04139978
v 0.00384799 0.00577989 -0.04157107
v 0.00366496 0.00568467 -0.04168786
v 0.00474670 0.00577989 -0.04102486
v 0.00474670 0.00592749 -0.04095658
v 0.00473951 0.00577989 -0.04103085
f 1 2 3
f 1 3 4
f 1 4 5
f 1 5 6
f 1 6 7
f 1 7 8
f 1 8 9
f 1 9 35
f 1 35 69
f 1 69 114
f 1 114 153
f 1 153 176
f 1 176 197
f 1 197 196
f 1 196 212
f 1 212 211
f 1 211 210
f 1 210 225
f 1 225 213
f 1 213 198
f 1 198 177
f 1 177 154
f 1 154 115
f 1 115 72
f 1 72 36
f 1 36 10
f 1 10 2
f 2 10 11
f 2 11 12
f 2 12 13
f 2 13 14
f 2 14 15
f 2 15 16
f 2 16 17
f 2 17 18
f 2 18 19
f 2 19 20
f 2 20 21
f 2 21 22
f 2 22 23
f 2 23 24
f 2 24 25
f 2 25 26
f 2 26 3
f 3 26 27
f 3 27 4
f 4 27 5
f 5 27 28
f 5 28 6
f 6 29 30
f 6 30 7
f 6 28 31
f 6 31 29
f 7 30 8
f 8 32 33
f 8 33 34
f 8 34 9
f 8 30 32
f 9 34 35
f 10 36 71
f 10 71 37
f 10 37 11
f 11 38 12
f 11 37 39
f 11 39 40
f 11 40 41
f 11 41 42
f 11 42 43
f 11 43 38
f 12 38 13
f 13 44 14
f 13 38 44
f 14 44 45
f 14 45 46
f 14 46 15
f 15 46 16
f 16 46 47
f 16 47 17
f 17 48 18
f 17 47 48
f 18 48 49
f 18 49 19
f 19 49 20
f 20 49 50
f 20 50 21
f 21 51 22
f 21 50 51
f 22 51 23
f 23 52 53
f 23 53 54
f 23 54 24
f 23 51 52
f 24 54 25
f 25 54 26
f 26 54 27
f 27 54 55
f 27 55 28
f 28 56 31
f 28 55 57
f 28 57 56
f 29 58 30
f 29 31 58
f 30 58 59
f 30 59 32
f 31 56 60
f 31 60 61
f 31 61 58
f 32 59 33
f 33 59 62
f 33 62 63
f 33 63 64
f 33 64 65
f 33 65 66
f 33 66 67
f 33 67 34
f 34 67 68
f 34 68 35
f 35 68 69
f 36 70 71
f 36 72 116
f 36 116 73
f 36 73 74
f 36 74 70
f 37 71 70
f 37 70 39
f 38 43 44
f 39 75 40
f 39 70 74
f 39 74 118
f 39 118 123
f 39 123 122
f 39 122 119
f 39 119 75
f 40 75 76
f 40 76 77
f 40 77 41
f 41 77 78
f 41 78 42
f 42 78 43
f 43 78 79
f 43 79 80
f 43 80 81
f 43 81 44
f 44 82 83
f 44 83 47
f 44 47 45
f 44 81 80
f 44 80 82
f 45 47 46
f 47 84 85
f 47 85 50
f 47 50 48
f 47 83 84
f 48 50 49
f 50 85 86
f 50 86 87
f 50 87 88
f 50 88 89
f 50 89 51
f 51 89 90
f 51 90 91
f 51 91 92
f 51 92 52
f 52 92 53
f 53 92 54
f 54 92 93
f 54 93 55
f 55 93 94
f 55 94 57
f 56 95 96
f 56 96 60
f 56 57 95
f 57 94 97
f 57 97 98
f 57 98 99
f 57 99 100
f 57 100 95
f 58 101 102
f 58 102 59
f 58 61 101
f 59 102 62
f 60 96 103
f 60 103 104
f 60 104 61
f 61 104 105
f 61 105 101
f 62 102 63
f 63 102 101
f 63 101 105
f 63 105 64
f 64 105 106
f 64 106 107
f 64 107 65
f 65 107 66
f 66 107 108
f 66 108 67
f 67 108 109
f 67 109 110
f 67 110 111
f 67 111 68
f 68 111 112
f 68 112 113
f 68 113 114
f 68 114 69
f 72 115 116
f 73 116 155
f 73 155 178
f 73 178 202
f 73 202 201
f 73 201 200
f 73 200 215
f 73 215 203
f 73 203 181
f 73 181 180
f 73 180 179
f 73 179 162
f 73 162 161
f 73 161 160
f 73 160 117
f 73 117 118
f 73 118 74
f 75 119 77
f 75 77 76
f 77 120 121
f 77 121 78
f 77 119 122
f 77 122 123
f 77 123 120
f 78 121 79
f 79 121 80
f 80 124 125
f 80 125 126
f 80 126 82
f 80 121 120
f 80 120 127
f 80 127 124
f 82 126 128
f 82 128 129
f 82 129 84
f 82 84 130
f 82 130 83
f 83 130 84
f 84 129 131
f 84 131 132
f 84 132 86
f 84 86 85
f 86 132 133
f 86 133 134
f 86 134 87
f 87 134 88
f 88 90 89
f 88 134 135
f 88 135 97
f 88 97 90
f 90 97 136
f 90 136 91
f 91 136 92
f 92 94 93
f 92 136 94
f 94 136 97
f 95 100 137
f 95 137 96
f 96 137 103
f 97 135 138
f 97 138 98
f 98 138 117
f 98 117 99
f 99 117 100
f 100 117 139
f 100 139 140
f 100 140 137
f 103 137 141
f 103 141 104
f 104 140 105
f 104 141 140
f 105 140 142
f 105 142 106
f 106 142 143
f 106 143 107
f 107 143 144
f 107 144 109
f 107 109 108
f 109 144 145
f 109 145 146
f 109 146 147
f 109 147 148
f 109 148 149
f 109 149 110
f 110 150 111
f 110 149 150
f 111 150 112
f 112 151 113
f 112 150 152
f 112 152 151
f 113 151 114
f 114 151 153
f 115 154 155
f 115 155 116
f 117 138 135
f 117 135 134
f 117 134 133
f 117 133 132
f 117 132 131
f 117 131 129
f 117 129 128
f 117 128 126
f 117 126 125
f 117 125 156
f 117 156 127
f 117 127 157
f 117 157 158
f 117 158 159
f 117 159 118
f 117 160 139
f 118 159 120
f 118 120 123
f 120 159 158
f 120 158 157
f 120 157 127
f 124 127 156
f 124 156 125
f 137 140 141
f 139 160 140
f 140 160 161
f 140 161 142
f 142 161 162
f 142 162 163
f 142 163 144
f 142 144 143
f 144 163 145
f 145 164 165
f 145 165 166
f 145 166 167
f 145 167 146
f 145 163 164
f 146 167 147
f 147 167 168
f 147 168 169
f 147 169 170
f 147 170 148
f 148 170 171
f 148 171 172
f 148 172 149
f 149 172 150
f 150 172 173
f 150 173 174
f 150 174 175
f 150 175 152
f 151 152 153
f 152 176 153
f 152 175 176
f 154 177 155
f 155 177 178
f 162 179 164
f 162 164 163
f 164 179 180
f 164 180 181
f 164 181 165
f 165 181 182
f 165 182 183
f 165 183 184
f 165 184 185
f 165 185 186
f 165 186 166
f 166 186 169
f 166 169 167
f 167 169 168
f 169 186 187
f 169 187 170
f 170 187 171
f 171 187 188
f 171 188 189
f 171 189 190
f 171 190 191
f 171 191 192
f 171 192 172
f 172 192 193
f 172 193 173
f 173 193 174
f 174 193 194
f 174 194 195
f 174 195 175
f 175 195 196
f 175 196 197
f 175 197 176
f 177 198 199
f 177 199 200
f 177 200 201
f 177 201 202
f 177 202 178
f 181 203 182
f 182 203 204
f 182 204 205
f 182 205 183
f 183 205 188
f 183 188 184
f 184 188 185
f 185 188 186
f 186 188 187
f 188 205 206
f 188 206 207
f 188 207 189
f 189 208 209
f 189 209 190
f 189 207 208
f 190 209 210
f 190 210 192
f 190 192 191
f 192 210 211
f 192 211 195
f 192 195 194
f 192 194 193
f 195 211 212
f 195 212 196
f 198 213 214
f 198 214 199
f 199 214 226
f 199 226 227
f 199 227 218
f 199 218 217
f 199 217 216
f 199 216 204
f 199 204 203
f 199 203 215
f 199 215 200
f 204 216 205
f 205 216 206
f 206 216 217
f 206 217 218
f 206 218 219
f 206 219 207
f 207 219 220
f 207 220 208
f 208 221 222
f 208 222 209
f 208 220 223
f 208 223 221
f 209 222 224
f 209 224 210
f 210 224 225
f 213 225 226
f 213 226 214
f 218 227 219
f 219 227 228
f 219 228 220
f 220 228 225
f 220 225 223
f 221 225 222
f 221 223 225
f 222 225 224
f 225 228 226
f 226 228 227

