# https://github.com/mikedh/trimesh
v -0.00021718 -0.00641153 -0.03956294
v -0.00066973 -0.00641153 -0.03954143
v -0.00066973 -0.00637565 -0.03958249
v -0.00021718 -0.00638521 -0.03959226
v -0.00016550 -0.00635053 -0.03963137
v 0.00026705 -0.00635053 -0.03962941
v 0.00033873 -0.00635053 -0.03962550
v 0.00080295 -0.00635053 -0.03959617
v 0.00114883 -0.00635053 -0.03955512
v 0.00134802 -0.00635053 -0.03952775
v 0.00185808 -0.00635053 -0.03942217
v 0.00229147 -0.00635053 -0.03930487
v 0.00241065 -0.00635053 -0.03926772
v 0.00282654 -0.00635053 -0.03911718
v 0.00286071 -0.00635053 -0.03910349
v 0.00295155 -0.00635053 -0.03906635
v 0.00366664 -0.00635053 -0.03874962
v -0.00021718 -0.00641153 -0.02292131
v -0.00117396 -0.00641153 -0.03948864
v -0.00117396 -0.00635172 -0.03955512
v -0.00117396 -0.00611610 -0.03981123
v -0.00066973 -0.00614122 -0.03983469
v -0.00021718 -0.00615079 -0.03984447
v 0.00033873 -0.00614840 -0.03984251
v 0.00084379 -0.00613165 -0.03982687
v 0.00134802 -0.00610175 -0.03979559
v 0.00185225 -0.00629192 -0.03949255
v 0.00219146 -0.00625484 -0.03944954
v 0.00252733 -0.00620581 -0.03940067
v 0.00286071 -0.00614720 -0.03933810
v 0.00326826 -0.00629073 -0.03899596
v 0.00366664 -0.00626561 -0.03884542
v 0.00366664 -0.00635053 -0.02274926
v -0.00431852 -0.00641153 -0.02282355
v -0.00150817 -0.00641153 -0.03943195
v -0.00167819 -0.00631345 -0.03951406
v -0.00167819 -0.00607544 -0.03976627
v -0.00167819 -0.00582307 -0.04002433
v -0.00117396 -0.00586374 -0.04006148
v -0.00066973 -0.00588885 -0.04008690
v -0.00021718 -0.00589842 -0.04009667
v -0.00016550 -0.00589842 -0.04009667
v 0.00033873 -0.00589603 -0.04009667
v 0.00084379 -0.00587929 -0.04007712
v 0.00134802 -0.00584939 -0.04004780
v 0.00185225 -0.00580154 -0.04000478
v 0.00185225 -0.00605511 -0.03974476
v 0.00221813 -0.00575849 -0.03996177
v 0.00237231 -0.00598215 -0.03968220
v 0.00255484 -0.00570706 -0.03991290
v 0.00286071 -0.00589364 -0.03960204
v 0.00327659 -0.00580633 -0.03950624
v 0.00361247 -0.00572260 -0.03942217
v 0.00366664 -0.00570227 -0.03940067
v 0.00366664 0.00511716 -0.02302688
v -0.00484775 0.00511716 -0.02297801
v -0.00431852 -0.00640913 -0.02282355
v -0.00484775 0.00461363 -0.02297409
v -0.00484775 0.00432897 -0.02297605
v -0.00454105 -0.00523821 -0.02313050
v -0.00431852 -0.00641153 -0.03853652
v -0.00167819 -0.00641153 -0.03939871
v -0.00188905 -0.00641153 -0.03934983
v -0.00207824 -0.00627159 -0.03946909
v -0.00218326 -0.00576447 -0.03996568
v -0.00167819 -0.00553363 -0.04027654
v -0.00117396 -0.00558147 -0.04031564
v -0.00066973 -0.00561257 -0.04034106
v -0.00021718 -0.00562333 -0.04034888
v -0.00016550 -0.00562453 -0.04034888
v 0.00033873 -0.00562094 -0.04034497
v 0.00084379 -0.00560180 -0.04032933
v 0.00134802 -0.00556473 -0.04030196
v 0.00185225 -0.00550851 -0.04025503
v 0.00211228 -0.00522385 -0.04043490
v 0.00233314 -0.00546545 -0.04017488
v 0.00286071 -0.00564008 -0.03985229
v 0.00244816 -0.00516405 -0.04038993
v 0.00286071 -0.00538891 -0.04006735
v 0.00343411 -0.00550851 -0.03971152
v 0.00359247 -0.00520591 -0.03991485
v 0.00366664 -0.00525017 -0.03982687
v 0.00366664 0.00546880 -0.02313050
v -0.00484775 0.00533604 -0.02305034
v -0.00484775 0.00491025 -0.02297605
v -0.00484775 0.00432897 -0.04135574
v -0.00454105 -0.00523821 -0.03937134
v -0.00431852 -0.00636368 -0.03860690
v -0.00419934 -0.00641153 -0.03859713
v -0.00215158 -0.00641153 -0.03927945
v -0.00225576 -0.00641153 -0.03924817
v -0.00241328 -0.00622375 -0.03942022
v -0.00222076 -0.00605630 -0.03965483
v -0.00243829 -0.00572739 -0.03993245
v -0.00199740 -0.00524419 -0.04045445
v -0.00167819 -0.00528126 -0.04048378
v -0.00117396 -0.00532911 -0.04052092
v -0.00066973 -0.00535901 -0.04054634
v -0.00021718 -0.00537097 -0.04055612
v 0.00033873 -0.00536857 -0.04055221
v 0.00084379 -0.00534824 -0.04053656
v 0.00134802 -0.00531356 -0.04050919
v 0.00185225 -0.00525615 -0.04046423
v 0.00185225 -0.00496790 -0.04067538
v 0.00185225 -0.00465214 -0.04090021
v 0.00230981 -0.00498584 -0.04056003
v 0.00325576 -0.00529562 -0.03998914
v 0.00286071 -0.00482318 -0.04051310
v 0.00286071 -0.00507554 -0.04031955
v 0.00366664 -0.00517482 -0.03989334
v 0.00316658 -0.00474543 -0.04045641
v 0.00350246 -0.00463420 -0.04038016
v 0.00366664 -0.00472630 -0.04021984
v 0.00366664 0.00563744 -0.02354302
v -0.00484775 0.00561113 -0.02339444
v -0.00484775 0.00550229 -0.02313246
v -0.00484775 0.00433495 -0.04135574
v -0.00454105 0.00352642 -0.04159035
v -0.00454105 0.00309824 -0.04158449
v -0.00454105 0.00259470 -0.04157667
v -0.00454105 0.00208997 -0.04154539
v -0.00454105 0.00167374 -0.04150628
v -0.00454105 0.00007224 -0.04133033
v -0.00454105 0.00003397 -0.04132446
v -0.00454105 -0.00043847 -0.04124626
v -0.00454105 -0.00163093 -0.04100187
v -0.00454105 -0.00194429 -0.04093540
v -0.00454105 -0.00213088 -0.04089043
v -0.00454105 -0.00228756 -0.04084938
v -0.00454105 -0.00248610 -0.04077900
v -0.00454105 -0.00295735 -0.04060890
v -0.00454105 -0.00329343 -0.04047987
v -0.00454105 -0.00333649 -0.04046032
v -0.00454105 -0.00356972 -0.04034301
v -0.00454105 -0.00423113 -0.03999110
v -0.00454105 -0.00426941 -0.03996764
v -0.00451355 -0.00428974 -0.03997937
v -0.00446354 -0.00523821 -0.03942804
v -0.00431852 -0.00557071 -0.03931660
v -0.00431852 -0.00591636 -0.03908003
v -0.00431852 -0.00608859 -0.03892558
v -0.00431852 -0.00615916 -0.03885129
v -0.00419934 -0.00619743 -0.03888843
v -0.00263831 -0.00548459 -0.04006344
v -0.00268582 -0.00511382 -0.04034888
v -0.00233411 -0.00518438 -0.04040558
v -0.00229994 -0.00523821 -0.04037234
v -0.00394181 -0.00572380 -0.03942608
v -0.00217242 -0.00499780 -0.04058740
v -0.00167819 -0.00468204 -0.04091781
v -0.00167819 -0.00496790 -0.04071448
v -0.00121897 -0.00493800 -0.04080441
v -0.00108228 -0.00474902 -0.04095886
v -0.00066973 -0.00502531 -0.04079659
v -0.00016550 -0.00503966 -0.04080832
v 0.00033873 -0.00503607 -0.04080637
v 0.00084379 -0.00501454 -0.04079073
v 0.00119883 -0.00473826 -0.04095300
v 0.00135885 -0.00493082 -0.04079073
v 0.00153471 -0.00469879 -0.04092954
v 0.00235648 -0.00455407 -0.04084156
v 0.00185225 -0.00439978 -0.04104880
v 0.00235648 -0.00430170 -0.04099210
v 0.00283487 -0.00442848 -0.04077313
v 0.00298572 -0.00413186 -0.04089434
v 0.00334660 -0.00446556 -0.04055221
v 0.00366664 -0.00431845 -0.04049551
v 0.00366664 -0.00456124 -0.04033715
v -0.00484775 0.00565060 -0.02354498
v 0.00366664 0.00567571 -0.02404743
v -0.00484775 0.00461363 -0.04132642
v -0.00482108 0.00461363 -0.04134792
v -0.00458856 0.00432897 -0.04153757
v -0.00454105 0.00410770 -0.04158644
v -0.00454105 0.00402996 -0.04158840
v -0.00454105 0.00360297 -0.04159035
v -0.00419934 0.00309824 -0.04180346
v -0.00419934 0.00259470 -0.04179564
v -0.00419934 0.00208997 -0.04176044
v -0.00441603 0.00007224 -0.04142026
v -0.00443687 0.00003397 -0.04140071
v -0.00449604 -0.00194429 -0.04097059
v -0.00435269 -0.00043010 -0.04138116
v -0.00445604 -0.00220742 -0.04093931
v -0.00437270 -0.00254351 -0.04088457
v -0.00451855 -0.00331736 -0.04048769
v -0.00441103 -0.00365225 -0.04040558
v -0.00422601 -0.00399791 -0.04033910
v -0.00392681 -0.00419167 -0.04042122
v -0.00419934 -0.00561018 -0.03936743
v -0.00419934 -0.00594627 -0.03911327
v -0.00304753 -0.00477773 -0.04047791
v -0.00268582 -0.00486145 -0.04054048
v -0.00338257 -0.00467726 -0.04040753
v -0.00218326 -0.00459473 -0.04086306
v -0.00141816 -0.00471434 -0.04093540
v -0.00167819 -0.00442968 -0.04106835
v -0.00121897 -0.00451340 -0.04108203
v -0.00066973 -0.00446317 -0.04115828
v -0.00066973 -0.00477294 -0.04097646
v -0.00021718 -0.00478610 -0.04098428
v -0.00016550 -0.00478730 -0.04098428
v 0.00033873 -0.00478490 -0.04098232
v 0.00084379 -0.00476218 -0.04096864
v 0.00084379 -0.00446317 -0.04114655
v 0.00135885 -0.00450503 -0.04106835
v 0.00264902 -0.00423472 -0.04095300
v 0.00134802 -0.00401585 -0.04134206
v 0.00182558 -0.00391657 -0.04131664
v 0.00235648 -0.00396083 -0.04117783
v 0.00338411 -0.00396202 -0.04082787
v 0.00283487 -0.00396202 -0.04103707
v 0.00322825 -0.00379577 -0.04098428
v 0.00366664 -0.00425147 -0.04053461
v -0.00484775 0.00567571 -0.02390667
v 0.00366664 0.00568409 -0.03872225
v -0.00021718 0.00580728 -0.03650519
v -0.00021718 0.00567691 -0.02404939
v -0.00484775 0.00466147 -0.04131860
v -0.00451355 0.00511716 -0.04148478
v -0.00456855 0.00461363 -0.04152192
v -0.00476608 0.00511716 -0.04130296
v -0.00419934 0.00410770 -0.04179173
v -0.00419934 0.00360297 -0.04180346
v -0.00394514 0.00360297 -0.04194422
v -0.00394431 0.00309824 -0.04194227
v -0.00393764 0.00259470 -0.04194031
v -0.00390514 0.00208997 -0.04192663
v -0.00416350 0.00007224 -0.04157471
v -0.00419934 -0.00194429 -0.04115632
v -0.00410099 -0.00043010 -0.04153170
v -0.00390680 -0.00156874 -0.04141831
v -0.00382346 -0.00194429 -0.04137529
v -0.00420267 -0.00240477 -0.04103316
v -0.00420267 -0.00298725 -0.04083178
v -0.00403682 -0.00284253 -0.04099014
v -0.00393014 -0.00317861 -0.04092954
v -0.00422601 -0.00347284 -0.04060890
v -0.00407516 -0.00385558 -0.04051310
v -0.00390680 -0.00417014 -0.04044468
v -0.00390597 -0.00422396 -0.04041340
v -0.00359093 -0.00433998 -0.04051115
v -0.00320505 -0.00449068 -0.04059326
v -0.00286501 -0.00417253 -0.04091390
v -0.00269249 -0.00444284 -0.04080441
v -0.00345091 -0.00371564 -0.04094127
v -0.00319005 -0.00406130 -0.04085329
v -0.00252997 -0.00426104 -0.04096668
v -0.00218326 -0.00434117 -0.04101165
v -0.00178987 -0.00393452 -0.04131469
v -0.00169153 -0.00392734 -0.04133815
v -0.00117313 -0.00403857 -0.04135183
v -0.00066973 -0.00408163 -0.04137529
v -0.00021718 -0.00446317 -0.04117783
v -0.00016550 -0.00446317 -0.04117979
v 0.00033873 -0.00446317 -0.04117588
v 0.00033873 -0.00409479 -0.04138507
v 0.00084379 -0.00406728 -0.04136943
v 0.00134802 -0.00376228 -0.04146914
v 0.00163972 -0.00372162 -0.04144959
v 0.00197560 -0.00365105 -0.04142026
v 0.00235648 -0.00355058 -0.04137920
v 0.00356496 -0.00365105 -0.04091390
v 0.00282154 -0.00341424 -0.04130100
v 0.00338411 -0.00347165 -0.04106248
v 0.00366664 -0.00375152 -0.04080637
v -0.00484775 0.00567811 -0.02404939
v 0.00366664 0.00568409 -0.04168615
v -0.00167903 0.00580728 -0.03650519
v -0.00021718 0.00580728 -0.04220620
v -0.00484775 0.00511716 -0.04123844
v -0.00419934 0.00511716 -0.04166269
v -0.00419934 0.00461363 -0.04173894
v -0.00447688 0.00540780 -0.04146132
v -0.00405016 0.00432897 -0.04185233
v -0.00390930 0.00432897 -0.04193054
v -0.00393181 0.00410770 -0.04193836
v -0.00369344 0.00360297 -0.04206348
v -0.00369178 0.00309824 -0.04206153
v -0.00368594 0.00259470 -0.04205371
v -0.00375095 0.00057697 -0.04185233
v -0.00365261 0.00208997 -0.04204002
v -0.00355093 0.00108170 -0.04199701
v -0.00365594 0.00007583 -0.04184256
v -0.00365927 0.00003397 -0.04183474
v -0.00369428 -0.00043010 -0.04174480
v -0.00372095 -0.00141205 -0.04154930
v -0.00357093 -0.00194429 -0.04150824
v -0.00367011 -0.00243826 -0.04131469
v -0.00390680 -0.00242391 -0.04119152
v -0.00373512 -0.00298725 -0.04109572
v -0.00381346 -0.00345610 -0.04086306
v -0.00356259 -0.00345610 -0.04099796
v -0.00319005 -0.00381013 -0.04099210
v -0.00269249 -0.00398595 -0.04106835
v -0.00319338 -0.00295735 -0.04134988
v -0.00319005 -0.00345610 -0.04115242
v -0.00218326 -0.00395963 -0.04121889
v -0.00178987 -0.00379338 -0.04139094
v -0.00153151 -0.00373836 -0.04145741
v -0.00117313 -0.00378621 -0.04148087
v -0.00066973 -0.00382926 -0.04150042
v -0.00016550 -0.00409837 -0.04138702
v -0.00016550 -0.00384720 -0.04151020
v 0.00033873 -0.00384362 -0.04150628
v 0.00084379 -0.00381491 -0.04149455
v 0.00084379 -0.00345490 -0.04165292
v 0.00134802 -0.00345490 -0.04160208
v 0.00182558 -0.00347165 -0.04151997
v 0.00185225 -0.00295137 -0.04172134
v 0.00235648 -0.00329822 -0.04148282
v 0.00262651 -0.00321689 -0.04144959
v 0.00366664 -0.00359125 -0.04088652
v 0.00333660 -0.00292266 -0.04130491
v 0.00366664 -0.00327669 -0.04101360
v 0.00296239 -0.00307217 -0.04139094
v 0.00314908 -0.00273608 -0.04145741
v -0.00214492 0.00580728 -0.03650910
v -0.00218242 0.00580728 -0.03651106
v -0.00264581 0.00580728 -0.03654429
v -0.00268915 0.00580728 -0.03655407
v -0.00312004 0.00580728 -0.03668115
v -0.00484775 0.00580728 -0.03813377
v 0.00366664 0.00563505 -0.04170766
v 0.00336410 0.00561711 -0.04184647
v 0.00336827 0.00568409 -0.04181519
v 0.00302823 0.00568409 -0.04192858
v 0.00287654 0.00568409 -0.04197550
v 0.00235565 0.00568409 -0.04209085
v 0.00185225 0.00568409 -0.04216515
v 0.00134802 0.00568409 -0.04221598
v 0.00084379 0.00568409 -0.04225117
v 0.00033873 0.00568409 -0.04226877
v 0.00027038 0.00568409 -0.04227072
v -0.00016467 0.00568409 -0.04227268
v -0.00021551 0.00568409 -0.04227268
v -0.00040303 0.00580728 -0.04220425
v -0.00484775 0.00524035 -0.04120716
v -0.00377512 0.00511716 -0.04187579
v -0.00387930 0.00461363 -0.04191685
v -0.00437603 0.00580728 -0.04132251
v -0.00431019 0.00580728 -0.04136356
v -0.00406932 0.00580728 -0.04149455
v -0.00418017 0.00559319 -0.04153366
v -0.00345091 0.00537670 -0.04195009
v -0.00484775 0.00557764 -0.04110549
v -0.00484775 0.00575944 -0.04103120
v -0.00484525 0.00580728 -0.04100969
v -0.00466357 0.00580728 -0.04113091
v -0.00362760 0.00461363 -0.04203611
v -0.00365677 0.00432897 -0.04204784
v -0.00367928 0.00410770 -0.04205566
v -0.00319005 0.00360297 -0.04225117
v -0.00319005 0.00309824 -0.04224335
v -0.00319005 0.00259470 -0.04223162
v -0.00319005 0.00208997 -0.04221011
v -0.00349925 0.00057697 -0.04197159
v -0.00346341 0.00024686 -0.04195400
v -0.00319005 0.00158643 -0.04217688
v -0.00319005 0.00057697 -0.04208890
v -0.00359510 0.00003397 -0.04186602
v -0.00341091 -0.00009162 -0.04193445
v -0.00334090 -0.00043010 -0.04190903
v -0.00319005 -0.00143956 -0.04178977
v -0.00348592 -0.00226364 -0.04146132
v -0.00319005 -0.00194429 -0.04166856
v -0.00336340 -0.00259973 -0.04141049
v -0.00267832 -0.00343337 -0.04133619
v -0.00218326 -0.00360082 -0.04139680
v -0.00302753 -0.00279349 -0.04147696
v -0.00284167 -0.00312958 -0.04141440
v -0.00186822 -0.00368574 -0.04143199
v -0.00169153 -0.00349317 -0.04153952
v -0.00117313 -0.00345610 -0.04162163
v -0.00066973 -0.00345610 -0.04166269
v -0.00021718 -0.00380654 -0.04152779
v -0.00021718 -0.00384481 -0.04151020
v -0.00021718 -0.00345490 -0.04168029
v -0.00016550 -0.00345490 -0.04168029
v 0.00033873 -0.00345490 -0.04167833
v 0.00033873 -0.00297170 -0.04186406
v 0.00061209 -0.00270378 -0.04195009
v 0.00080629 -0.00290233 -0.04186406
v 0.00134802 -0.00295137 -0.04179759
v 0.00134802 -0.00259614 -0.04191881
v 0.00186558 -0.00243348 -0.04188557
v 0.00235648 -0.00244663 -0.04178391
v 0.00235648 -0.00295137 -0.04161577
v 0.00282154 -0.00292266 -0.04149651
v 0.00351662 -0.00244663 -0.04139876
v 0.00366664 -0.00265116 -0.04124821
v 0.00361497 -0.00219068 -0.04144177
v 0.00286071 -0.00244663 -0.04164314
v 0.00326409 -0.00244663 -0.04150237
v -0.00484775 0.00580728 -0.04060499
v 0.00366664 0.00515902 -0.04186993
v 0.00353163 0.00522481 -0.04191490
v 0.00319492 0.00544488 -0.04198137
v 0.00281904 0.00561711 -0.04201852
v 0.00235565 0.00562189 -0.04212213
v 0.00185225 0.00562189 -0.04219643
v 0.00134802 0.00562189 -0.04224530
v 0.00084379 0.00562189 -0.04228441
v 0.00033873 0.00562189 -0.04230200
v -0.00016467 0.00562189 -0.04230396
v -0.00021718 0.00562189 -0.04230396
v -0.00066890 0.00562189 -0.04229223
v -0.00066890 0.00580728 -0.04219838
v -0.00352259 0.00511716 -0.04198528
v -0.00387180 0.00580728 -0.04158644
v -0.00365011 0.00557525 -0.04178391
v -0.00319005 0.00574150 -0.04189339
v -0.00319005 0.00548913 -0.04199896
v -0.00319005 0.00511716 -0.04210454
v -0.00319005 0.00461363 -0.04219056
v -0.00338257 0.00432897 -0.04214951
v -0.00319005 0.00410770 -0.04223748
v -0.00247162 0.00396298 -0.04246036
v -0.00247996 0.00360297 -0.04246232
v -0.00245746 0.00309824 -0.04245841
v -0.00242495 0.00243443 -0.04244863
v -0.00268665 0.00208997 -0.04236261
v -0.00322255 0.00007583 -0.04202243
v -0.00343008 0.00003397 -0.04194227
v -0.00268665 0.00158643 -0.04232937
v -0.00268582 0.00003397 -0.04215537
v -0.00268582 -0.00043010 -0.04210258
v -0.00308837 -0.00043010 -0.04199896
v -0.00321172 0.00003397 -0.04202047
v -0.00317755 -0.00096952 -0.04187775
v -0.00300169 -0.00082360 -0.04196964
v -0.00291918 -0.00115969 -0.04194031
v -0.00282500 -0.00143956 -0.04191294
v -0.00319338 -0.00243826 -0.04152779
v -0.00265748 -0.00191439 -0.04185038
v -0.00268582 -0.00244783 -0.04169202
v -0.00250496 -0.00325157 -0.04146132
v -0.00218326 -0.00334845 -0.04150237
v -0.00267832 -0.00295735 -0.04152584
v -0.00167819 -0.00295137 -0.04175067
v -0.00117313 -0.00295137 -0.04181714
v -0.00067223 -0.00290711 -0.04187384
v -0.00016550 -0.00297648 -0.04186797
v 0.00033873 -0.00271814 -0.04195400
v 0.00094880 -0.00266671 -0.04193836
v 0.00033873 -0.00244663 -0.04203220
v 0.00033873 -0.00194190 -0.04217101
v 0.00084379 -0.00194190 -0.04214560
v 0.00134802 -0.00234377 -0.04199114
v 0.00170723 -0.00225646 -0.04196377
v 0.00204227 -0.00215360 -0.04193836
v 0.00239398 -0.00196822 -0.04190708
v 0.00258901 -0.00167040 -0.04194227
v 0.00366664 -0.00224091 -0.04139680
v 0.00366664 -0.00215001 -0.04142417
v 0.00341411 -0.00199094 -0.04157276
v 0.00366664 -0.00182349 -0.04150237
v 0.00366664 -0.00186536 -0.04149260
v 0.00286071 -0.00194190 -0.04178586
v 0.00366664 0.00508128 -0.04188948
v 0.00357246 0.00508128 -0.04193249
v 0.00336410 0.00508128 -0.04201265
v 0.00286071 0.00511716 -0.04217101
v 0.00235565 0.00511716 -0.04229223
v 0.00182975 0.00508128 -0.04238998
v 0.00134802 0.00521763 -0.04240758
v 0.00084379 0.00528580 -0.04242517
v 0.00033873 0.00531690 -0.04243495
v -0.00016467 0.00532049 -0.04243495
v -0.00021718 0.00535159 -0.04242126
v -0.00066890 0.00530374 -0.04243104
v -0.00117313 0.00562189 -0.04226681
v -0.00117313 0.00580728 -0.04217883
v -0.00087893 0.00580728 -0.04219252
v -0.00366094 0.00580728 -0.04167638
v -0.00327422 0.00580728 -0.04183083
v -0.00302669 0.00580728 -0.04192076
v -0.00319005 0.00580728 -0.04186211
v -0.00284334 0.00580728 -0.04197159
v -0.00270915 0.00566375 -0.04205762
v -0.00268665 0.00511716 -0.04223748
v -0.00268665 0.00461363 -0.04232351
v -0.00242912 0.00432897 -0.04243495
v -0.00265748 0.00412205 -0.04239389
v -0.00239995 0.00429787 -0.04244472
v -0.00221326 0.00412205 -0.04249751
v -0.00218326 0.00360297 -0.04253075
v -0.00218326 0.00309824 -0.04252292
v -0.00222743 0.00259829 -0.04250142
v -0.00239078 0.00208997 -0.04244081
v -0.00213908 0.00208997 -0.04249946
v -0.00228410 0.00158643 -0.04242517
v -0.00167819 -0.00194429 -0.04205762
v -0.00246912 -0.00172781 -0.04195595
v -0.00257164 -0.00143956 -0.04197941
v -0.00272499 -0.00096952 -0.04201656
v -0.00194573 0.00133048 -0.04245450
v -0.00227910 -0.00206390 -0.04191099
v -0.00213992 -0.00240358 -0.04184451
v -0.00218326 -0.00295137 -0.04165487
v -0.00167819 -0.00252079 -0.04189730
v -0.00117313 -0.00263083 -0.04192663
v -0.00084309 -0.00268943 -0.04194227
v -0.00050805 -0.00270976 -0.04194813
v -0.00016550 -0.00272412 -0.04195595
v -0.00021718 -0.00239520 -0.04205175
v -0.00021718 -0.00194429 -0.04217492
v -0.00016550 -0.00194190 -0.04217492
v 0.00033956 0.00209116 -0.04268715
v 0.00084379 0.00158643 -0.04259722
v 0.00134802 -0.00194190 -0.04209672
v 0.00134802 0.00158643 -0.04256594
v 0.00186558 -0.00196822 -0.04201656
v 0.00225313 -0.00181751 -0.04197746
v 0.00286654 -0.00147664 -0.04189339
v 0.00270152 -0.00133431 -0.04197746
v 0.00336577 -0.00143717 -0.04171743
v 0.00366664 -0.00131159 -0.04160208
v 0.00366581 0.00485164 -0.04193445
v 0.00366581 0.00492460 -0.04192076
v 0.00362747 0.00488632 -0.04195009
v 0.00366664 -0.00072194 -0.04170766
v 0.00366581 0.00215097 -0.04201070
v 0.00366581 0.00316761 -0.04202243
v 0.00366581 0.00360297 -0.04202438
v 0.00366581 0.00410650 -0.04201656
v 0.00366581 0.00461243 -0.04197355
v 0.00336494 0.00461243 -0.04209476
v 0.00286071 0.00461243 -0.04225117
v 0.00280820 0.00461123 -0.04226681
v 0.00280820 0.00465908 -0.04225899
v 0.00235398 0.00508128 -0.04230005
v 0.00257401 0.00510042 -0.04224335
v 0.00199643 0.00474997 -0.04243495
v 0.00167889 0.00489111 -0.04245645
v 0.00148304 0.00508128 -0.04243299
v 0.00134802 0.00508128 -0.04244863
v 0.00084379 0.00508128 -0.04248969
v 0.00033873 0.00508128 -0.04251315
v -0.00016467 0.00508128 -0.04251511
v -0.00021718 0.00508128 -0.04251511
v -0.00021718 0.00531929 -0.04243495
v -0.00117313 0.00526188 -0.04241931
v -0.00066890 0.00505138 -0.04250924
v -0.00167903 0.00562189 -0.04222575
v -0.00139816 0.00580728 -0.04216319
v -0.00218242 0.00580728 -0.04207521
v -0.00218242 0.00562189 -0.04216319
v -0.00218242 0.00511716 -0.04233915
v -0.00191489 0.00485164 -0.04245059
v -0.00221326 0.00465429 -0.04242713
v -0.00238411 0.00432897 -0.04244472
v -0.00207824 0.00432897 -0.04249556
v -0.00167819 0.00410770 -0.04258353
v -0.00207824 0.00399049 -0.04252684
v -0.00207824 0.00360297 -0.04254834
v -0.00206491 0.00451435 -0.04247600
v -0.00207824 0.00259709 -0.04252879
v -0.00207824 0.00309824 -0.04254052
v -0.00207824 0.00299418 -0.04253857
v -0.00207824 0.00180172 -0.04248382
v -0.00167819 0.00259470 -0.04259722
v -0.00167819 0.00208997 -0.04257571
v -0.00207824 0.00158643 -0.04246232
v -0.00117313 -0.00194429 -0.04212018
v -0.00178987 -0.00238922 -0.04191881
v -0.00194239 -0.00220503 -0.04194813
v -0.00213992 -0.00191439 -0.04198137
v -0.00167819 0.00158643 -0.04252292
v -0.00203240 0.00158643 -0.04247014
v -0.00117313 -0.00237966 -0.04199896
v -0.00066973 -0.00194429 -0.04215928
v -0.00067223 -0.00249208 -0.04200678
v -0.00066973 0.00158643 -0.04261090
v -0.00021801 0.00208997 -0.04268715
v 0.00033956 0.00259470 -0.04270670
v 0.00084379 0.00209116 -0.04265978
v 0.00207144 0.00137114 -0.04244277
v 0.00167889 0.00176106 -0.04254052
v 0.00188309 0.00155653 -0.04249164
v 0.00134802 0.00209116 -0.04261482
v 0.00239398 -0.00147664 -0.04200483
v 0.00303823 -0.00104487 -0.04192076
v 0.00286071 -0.00043010 -0.04207521
v 0.00286654 -0.00089895 -0.04200483
v 0.00313991 -0.00072194 -0.04194618
v 0.00332327 -0.00089895 -0.04183669
v 0.00336327 -0.00072194 -0.04185038
v 0.00366581 -0.00043010 -0.04175849
v 0.00366581 0.00007343 -0.04182301
v 0.00366581 0.00119533 -0.04194618
v 0.00366581 0.00141420 -0.04196964
v 0.00366581 0.00158643 -0.04198528
v 0.00366581 0.00161633 -0.04198723
v 0.00366581 0.00209116 -0.04200874
v 0.00336494 0.00209116 -0.04214364
v 0.00336494 0.00259470 -0.04215342
v 0.00336494 0.00360297 -0.04215928
v 0.00336494 0.00410650 -0.04214364
v 0.00286071 0.00410650 -0.04230787
v 0.00246566 0.00410650 -0.04241344
v 0.00214062 0.00441389 -0.04245645
v 0.00232731 0.00459210 -0.04238607
v 0.00185225 0.00410650 -0.04254052
v 0.00183725 0.00459210 -0.04247796
v 0.00134802 0.00461243 -0.04254052
v 0.00134802 0.00496287 -0.04247600
v 0.00084379 0.00503105 -0.04250142
v 0.00033956 0.00461243 -0.04261090
v -0.00021718 0.00461363 -0.04261872
v -0.00021718 0.00465788 -0.04260895
v -0.00066890 0.00461363 -0.04260699
v -0.00171986 0.00511357 -0.04240953
v -0.00117313 0.00501071 -0.04249360
v -0.00167903 0.00580728 -0.04213973
v -0.00194573 0.00580728 -0.04210649
v -0.00157901 0.00494254 -0.04247209
v -0.00117313 0.00461363 -0.04257376
v -0.00171986 0.00465429 -0.04250533
v -0.00169569 0.00432897 -0.04255225
v -0.00117313 0.00410770 -0.04264023
v -0.00167819 0.00360297 -0.04261090
v -0.00167819 0.00309824 -0.04260699
v -0.00117313 0.00360297 -0.04266174
v -0.00117313 0.00208997 -0.04262850
v -0.00117313 0.00158643 -0.04257767
v -0.00066973 0.00208997 -0.04266565
v -0.00021801 0.00214259 -0.04268911
v -0.00016467 0.00259470 -0.04270670
v -0.00016467 0.00309824 -0.04272234
v 0.00033956 0.00309824 -0.04271648
v 0.00084379 0.00259470 -0.04267542
v 0.00216979 0.00170604 -0.04246232
v 0.00234481 0.00155653 -0.04241344
v 0.00286071 0.00007343 -0.04213973
v 0.00167889 0.00209116 -0.04256789
v 0.00134802 0.00259470 -0.04263046
v 0.00310991 -0.00072194 -0.04195595
v 0.00342828 -0.00043010 -0.04186993
v 0.00317575 -0.00043010 -0.04196964
v 0.00350246 0.00007343 -0.04189730
v 0.00356746 0.00057697 -0.04192467
v 0.00360580 0.00087598 -0.04194031
v 0.00336494 0.00158643 -0.04210845
v 0.00286071 0.00158643 -0.04228636
v 0.00286071 0.00209116 -0.04231569
v 0.00286071 0.00259470 -0.04232742
v 0.00286071 0.00360297 -0.04233328
v 0.00280820 0.00360297 -0.04234892
v 0.00251733 0.00360177 -0.04243104
v 0.00221396 0.00410650 -0.04247405
v 0.00185225 0.00360177 -0.04256789
v 0.00134802 0.00360297 -0.04263828
v 0.00134802 0.00410650 -0.04260895
v 0.00084379 0.00461243 -0.04258744
v 0.00033956 0.00410650 -0.04268520
v -0.00021718 0.00432897 -0.04265978
v -0.00066890 0.00432897 -0.04264610
v -0.00066973 0.00410770 -0.04267347
v -0.00066973 0.00360297 -0.04270279
v -0.00021801 0.00264733 -0.04270670
v -0.00021718 0.00360297 -0.04272234
v -0.00016467 0.00360297 -0.04272234
v 0.00033956 0.00360297 -0.04271648
v 0.00084379 0.00360297 -0.04268911
v 0.00084379 0.00309824 -0.04268520
v 0.00220229 0.00209116 -0.04247014
v 0.00245482 0.00209116 -0.04241931
v 0.00185225 0.00209116 -0.04254052
v 0.00286071 0.00108170 -0.04224139
v 0.00324992 0.00007343 -0.04199896
v 0.00185225 0.00309824 -0.04256203
v 0.00134802 0.00309824 -0.04263828
v 0.00280820 0.00209116 -0.04232937
v 0.00280820 0.00266766 -0.04234306
v 0.00280820 0.00317478 -0.04234697
v 0.00280820 0.00360177 -0.04234892
v 0.00250316 0.00309824 -0.04243104
v 0.00226480 0.00360177 -0.04248382
v 0.00084379 0.00410650 -0.04265587
v -0.00021801 0.00415913 -0.04268129
v -0.00016467 0.00410650 -0.04268715
v -0.00021801 0.00410770 -0.04268715
f 1 2 3
f 1 3 4
f 1 4 5
f 1 5 6
f 1 6 7
f 1 7 8
f 1 8 9
f 1 9 10
f 1 10 11
f 1 11 12
f 1 12 13
f 1 13 14
f 1 14 15
f 1 15 16
f 1 16 17
f 1 17 33
f 1 33 18
f 1 18 34
f 1 34 61
f 1 61 89
f 1 89 91
f 1 91 90
f 1 90 63
f 1 63 62
f 1 62 35
f 1 35 19
f 1 19 2
f 2 19 3
f 3 19 20
f 3 20 21
f 3 21 22
f 3 22 23
f 3 23 4
f 4 23 5
f 5 23 6
f 6 23 24
f 6 24 7
f 7 24 8
f 8 24 25
f 8 25 9
f 9 25 26
f 9 26 10
f 10 27 11
f 10 26 27
f 11 27 28
f 11 28 12
f 12 28 13
f 13 28 29
f 13 29 14
f 14 29 30
f 14 30 15
f 15 30 16
f 16 30 31
f 16 31 17
f 17 31 32
f 17 32 54
f 17 54 82
f 17 82 110
f 17 110 113
f 17 113 168
f 17 168 167
f 17 167 214
f 17 214 266
f 17 266 313
f 17 313 315
f 17 315 391
f 17 391 454
f 17 454 455
f 17 455 458
f 17 458 457
f 17 457 518
f 17 518 522
f 17 522 460
f 17 460 396
f 17 396 324
f 17 324 268
f 17 268 216
f 17 216 170
f 17 170 114
f 17 114 83
f 17 83 55
f 17 55 33
f 18 33 34
f 19 35 36
f 19 36 20
f 20 36 21
f 21 37 38
f 21 38 39
f 21 39 40
f 21 40 22
f 21 36 37
f 22 40 41
f 22 41 23
f 23 41 42
f 23 42 43
f 23 43 24
f 24 43 25
f 25 43 44
f 25 44 45
f 25 45 26
f 26 45 46
f 26 46 47
f 26 47 27
f 27 47 28
f 28 47 48
f 28 48 49
f 28 49 29
f 29 49 50
f 29 50 30
f 30 32 31
f 30 50 51
f 30 51 52
f 30 52 32
f 32 52 53
f 32 53 54
f 33 55 56
f 33 56 57
f 33 57 34
f 34 57 58
f 34 58 59
f 34 59 60
f 34 60 87
f 34 87 61
f 35 62 36
f 36 62 63
f 36 63 64
f 36 64 37
f 37 65 38
f 37 64 65
f 38 65 66
f 38 66 67
f 38 67 39
f 39 67 68
f 39 68 40
f 40 68 41
f 41 68 69
f 41 69 70
f 41 70 42
f 42 70 43
f 43 70 71
f 43 71 72
f 43 72 44
f 44 72 45
f 45 72 73
f 45 73 46
f 46 73 74
f 46 74 48
f 46 48 47
f 48 50 49
f 48 74 75
f 48 75 76
f 48 76 50
f 50 77 51
f 50 76 78
f 50 78 79
f 50 79 77
f 51 77 52
f 52 77 80
f 52 80 53
f 53 80 81
f 53 81 82
f 53 82 54
f 55 83 56
f 56 84 116
f 56 116 115
f 56 115 169
f 56 169 215
f 56 215 267
f 56 267 323
f 56 323 395
f 56 395 347
f 56 347 346
f 56 346 338
f 56 338 271
f 56 271 219
f 56 219 171
f 56 171 117
f 56 117 86
f 56 86 59
f 56 59 58
f 56 58 85
f 56 85 57
f 56 83 84
f 57 85 58
f 59 86 87
f 59 87 60
f 61 88 89
f 61 87 88
f 63 90 64
f 64 90 91
f 64 91 92
f 64 92 93
f 64 93 65
f 65 93 94
f 65 94 95
f 65 95 66
f 66 95 96
f 66 96 67
f 67 96 97
f 67 97 68
f 68 97 98
f 68 98 99
f 68 99 69
f 69 99 70
f 70 99 100
f 70 100 71
f 71 100 72
f 72 100 101
f 72 101 102
f 72 102 73
f 73 102 103
f 73 103 74
f 74 103 75
f 75 103 104
f 75 104 105
f 75 105 106
f 75 106 78
f 75 78 76
f 77 79 107
f 77 107 80
f 78 106 108
f 78 108 109
f 78 109 79
f 79 109 107
f 80 107 81
f 81 110 82
f 81 107 111
f 81 111 112
f 81 112 113
f 81 113 110
f 83 114 115
f 83 115 116
f 83 116 84
f 86 117 176
f 86 176 118
f 86 118 119
f 86 119 120
f 86 120 121
f 86 121 122
f 86 122 123
f 86 123 124
f 86 124 125
f 86 125 126
f 86 126 127
f 86 127 128
f 86 128 129
f 86 129 130
f 86 130 131
f 86 131 132
f 86 132 133
f 86 133 134
f 86 134 135
f 86 135 136
f 86 136 87
f 87 136 137
f 87 137 138
f 87 138 139
f 87 139 140
f 87 140 141
f 87 141 142
f 87 142 88
f 88 142 143
f 88 143 89
f 89 143 91
f 91 143 92
f 92 143 94
f 92 94 93
f 94 144 145
f 94 145 146
f 94 146 147
f 94 147 95
f 94 143 148
f 94 148 144
f 95 147 146
f 95 146 149
f 95 149 150
f 95 150 151
f 95 151 96
f 96 151 152
f 96 152 97
f 97 152 153
f 97 153 154
f 97 154 98
f 98 154 155
f 98 155 99
f 99 155 156
f 99 156 100
f 100 156 101
f 101 156 157
f 101 157 102
f 102 157 158
f 102 158 159
f 102 159 103
f 103 159 160
f 103 160 104
f 104 160 105
f 105 161 106
f 105 160 162
f 105 162 163
f 105 163 161
f 106 161 108
f 107 109 111
f 108 111 109
f 108 161 164
f 108 164 111
f 111 164 165
f 111 165 166
f 111 166 112
f 112 166 167
f 112 167 168
f 112 168 113
f 114 169 115
f 114 170 169
f 117 171 172
f 117 172 173
f 117 173 174
f 117 174 175
f 117 175 176
f 118 176 224
f 118 224 177
f 118 177 119
f 119 177 178
f 119 178 120
f 120 178 121
f 121 178 179
f 121 179 122
f 122 180 123
f 122 179 180
f 123 180 181
f 123 181 124
f 124 181 125
f 125 182 126
f 125 181 183
f 125 183 182
f 126 182 127
f 127 182 184
f 127 184 128
f 128 184 129
f 129 184 185
f 129 185 130
f 130 185 131
f 131 185 186
f 131 186 132
f 132 186 133
f 133 186 187
f 133 187 134
f 134 187 135
f 135 187 137
f 135 137 136
f 137 187 188
f 137 188 189
f 137 189 138
f 138 189 139
f 139 189 190
f 139 190 140
f 140 191 143
f 140 143 141
f 140 190 148
f 140 148 191
f 141 143 142
f 143 191 148
f 144 148 145
f 145 192 193
f 145 193 146
f 145 148 192
f 146 193 149
f 148 190 194
f 148 194 192
f 149 195 150
f 149 193 195
f 150 196 151
f 150 195 197
f 150 197 196
f 151 196 152
f 152 196 153
f 153 196 198
f 153 198 199
f 153 199 200
f 153 200 154
f 154 200 155
f 155 200 201
f 155 201 202
f 155 202 203
f 155 203 156
f 156 203 204
f 156 204 157
f 157 204 158
f 158 160 159
f 158 204 205
f 158 205 206
f 158 206 160
f 160 206 162
f 161 163 207
f 161 207 164
f 162 206 208
f 162 208 209
f 162 209 210
f 162 210 163
f 163 210 207
f 164 207 165
f 165 211 166
f 165 207 212
f 165 212 213
f 165 213 211
f 166 214 167
f 166 211 214
f 169 170 215
f 170 216 217
f 170 217 218
f 170 218 215
f 171 219 172
f 172 220 221
f 172 221 173
f 172 219 222
f 172 222 220
f 173 221 223
f 173 223 174
f 174 223 175
f 175 223 224
f 175 224 176
f 177 224 225
f 177 225 226
f 177 226 227
f 177 227 178
f 178 227 228
f 178 228 179
f 179 228 229
f 179 229 180
f 180 183 181
f 180 229 183
f 182 183 230
f 182 230 184
f 183 229 231
f 183 231 232
f 183 232 230
f 184 230 233
f 184 233 234
f 184 234 185
f 185 235 186
f 185 234 236
f 185 236 235
f 186 235 237
f 186 237 238
f 186 238 187
f 187 238 239
f 187 239 188
f 188 239 189
f 189 240 241
f 189 241 190
f 189 239 240
f 190 241 242
f 190 242 194
f 192 194 243
f 192 243 244
f 192 244 245
f 192 245 193
f 193 245 195
f 194 242 246
f 194 246 247
f 194 247 243
f 195 248 249
f 195 249 197
f 195 245 248
f 196 197 198
f 197 249 250
f 197 250 251
f 197 251 252
f 197 252 198
f 198 252 253
f 198 253 199
f 199 254 200
f 199 253 254
f 200 254 255
f 200 255 201
f 201 255 202
f 202 255 203
f 203 255 256
f 203 256 204
f 204 256 205
f 205 256 257
f 205 257 258
f 205 258 206
f 206 258 208
f 207 210 212
f 208 258 259
f 208 259 260
f 208 260 209
f 209 260 261
f 209 261 210
f 210 261 262
f 210 262 212
f 211 213 263
f 211 263 214
f 212 262 264
f 212 264 213
f 213 264 265
f 213 265 263
f 214 263 266
f 215 218 267
f 216 268 270
f 216 270 217
f 217 269 267
f 217 267 218
f 217 270 337
f 217 337 408
f 217 408 474
f 217 474 473
f 217 473 546
f 217 546 615
f 217 615 616
f 217 616 547
f 217 547 479
f 217 479 477
f 217 477 478
f 217 478 476
f 217 476 475
f 217 475 410
f 217 410 343
f 217 343 342
f 217 342 341
f 217 341 349
f 217 349 348
f 217 348 395
f 217 395 323
f 217 323 322
f 217 322 321
f 217 321 320
f 217 320 319
f 217 319 318
f 217 318 269
f 219 271 222
f 220 272 273
f 220 273 221
f 220 222 274
f 220 274 272
f 221 273 223
f 222 271 274
f 223 273 275
f 223 275 276
f 223 276 277
f 223 277 225
f 223 225 224
f 225 277 278
f 225 278 226
f 226 278 279
f 226 279 227
f 227 279 280
f 227 280 228
f 228 281 229
f 228 280 282
f 228 282 283
f 228 283 281
f 229 281 284
f 229 284 285
f 229 285 231
f 230 232 233
f 231 285 286
f 231 286 287
f 231 287 232
f 232 287 288
f 232 288 233
f 233 288 289
f 233 289 290
f 233 290 234
f 234 290 236
f 235 236 237
f 236 290 289
f 236 289 291
f 236 291 237
f 237 246 292
f 237 292 239
f 237 239 238
f 237 291 293
f 237 293 246
f 239 292 246
f 239 246 240
f 240 246 242
f 240 242 241
f 243 247 244
f 244 248 245
f 244 247 294
f 244 294 295
f 244 295 248
f 246 293 296
f 246 296 297
f 246 297 294
f 246 294 247
f 248 295 298
f 248 298 249
f 249 298 250
f 250 298 299
f 250 299 251
f 251 299 300
f 251 300 252
f 252 300 301
f 252 301 253
f 253 301 302
f 253 302 303
f 253 303 254
f 254 303 255
f 255 303 256
f 256 303 257
f 257 303 304
f 257 304 305
f 257 305 306
f 257 306 258
f 258 306 259
f 259 306 307
f 259 307 308
f 259 308 260
f 260 308 309
f 260 309 261
f 261 309 310
f 261 310 311
f 261 311 262
f 262 311 312
f 262 312 264
f 263 313 266
f 263 265 314
f 263 314 315
f 263 315 313
f 264 312 316
f 264 316 265
f 265 316 317
f 265 317 314
f 267 269 318
f 267 318 319
f 267 319 320
f 267 320 321
f 267 321 322
f 267 322 323
f 268 324 325
f 268 325 326
f 268 326 270
f 270 326 327
f 270 327 328
f 270 328 329
f 270 329 330
f 270 330 331
f 270 331 332
f 270 332 333
f 270 333 334
f 270 334 335
f 270 335 336
f 270 336 337
f 271 338 274
f 272 274 339
f 272 339 340
f 272 340 273
f 273 340 275
f 274 341 342
f 274 342 343
f 274 343 344
f 274 344 345
f 274 345 339
f 274 338 346
f 274 346 347
f 274 347 348
f 274 348 349
f 274 349 341
f 275 340 276
f 276 340 350
f 276 350 351
f 276 351 352
f 276 352 277
f 277 352 278
f 278 352 353
f 278 353 279
f 279 353 354
f 279 354 280
f 280 354 355
f 280 355 356
f 280 356 282
f 281 283 357
f 281 357 358
f 281 358 284
f 282 356 359
f 282 359 283
f 283 359 360
f 283 360 357
f 284 361 285
f 284 358 361
f 285 361 286
f 286 361 362
f 286 362 363
f 286 363 287
f 287 363 364
f 287 364 288
f 288 365 289
f 288 364 366
f 288 366 365
f 289 365 367
f 289 367 291
f 291 367 293
f 293 367 296
f 294 297 368
f 294 368 295
f 295 368 369
f 295 369 298
f 296 367 370
f 296 370 371
f 296 371 297
f 297 371 368
f 298 369 372
f 298 372 299
f 299 372 300
f 300 372 373
f 300 373 374
f 300 374 301
f 301 374 375
f 301 375 302
f 302 375 376
f 302 376 377
f 302 377 303
f 303 377 304
f 304 377 376
f 304 376 378
f 304 378 379
f 304 379 380
f 304 380 305
f 305 380 306
f 306 380 307
f 307 380 381
f 307 381 382
f 307 382 383
f 307 383 384
f 307 384 308
f 308 384 310
f 308 310 309
f 310 384 385
f 310 385 386
f 310 386 387
f 310 387 388
f 310 388 311
f 311 388 312
f 312 317 316
f 312 388 389
f 312 389 317
f 314 317 390
f 314 390 315
f 315 390 391
f 317 392 390
f 317 389 393
f 317 393 394
f 317 394 392
f 324 396 397
f 324 397 325
f 325 397 398
f 325 398 326
f 326 398 327
f 327 398 328
f 328 398 399
f 328 399 400
f 328 400 329
f 329 400 401
f 329 401 330
f 330 401 331
f 331 401 402
f 331 402 403
f 331 403 332
f 332 403 404
f 332 404 333
f 333 404 334
f 334 404 335
f 335 404 405
f 335 405 406
f 335 406 336
f 336 406 407
f 336 407 408
f 336 408 337
f 339 345 409
f 339 409 350
f 339 350 340
f 343 410 344
f 344 410 411
f 344 411 345
f 345 411 412
f 345 412 413
f 345 413 414
f 345 414 409
f 347 395 348
f 350 409 414
f 350 414 415
f 350 415 416
f 350 416 351
f 351 416 417
f 351 417 352
f 352 417 353
f 353 417 418
f 353 418 419
f 353 419 354
f 354 419 420
f 354 420 355
f 355 420 421
f 355 421 422
f 355 422 356
f 356 422 425
f 356 425 359
f 357 360 358
f 358 360 423
f 358 423 424
f 358 424 361
f 359 425 360
f 360 425 426
f 360 426 427
f 360 427 428
f 360 428 429
f 360 429 423
f 361 424 362
f 362 424 423
f 362 423 429
f 362 429 428
f 362 428 363
f 363 430 364
f 363 428 431
f 363 431 430
f 364 430 431
f 364 431 432
f 364 432 433
f 364 433 366
f 365 366 434
f 365 434 367
f 366 433 435
f 366 435 436
f 366 436 434
f 367 434 370
f 368 371 437
f 368 437 369
f 369 437 438
f 369 438 372
f 370 434 436
f 370 436 439
f 370 439 371
f 371 439 437
f 372 438 373
f 373 438 440
f 373 440 441
f 373 441 374
f 374 441 375
f 375 441 442
f 375 442 443
f 375 443 378
f 375 378 376
f 378 443 379
f 379 443 380
f 380 443 381
f 381 443 444
f 381 444 382
f 382 445 383
f 382 444 446
f 382 446 447
f 382 447 448
f 382 448 445
f 383 445 384
f 384 445 385
f 385 445 449
f 385 449 450
f 385 450 386
f 386 450 451
f 386 451 387
f 387 451 452
f 387 452 453
f 387 453 393
f 387 393 389
f 387 389 388
f 390 392 391
f 391 392 454
f 392 455 454
f 392 394 456
f 392 456 457
f 392 457 458
f 392 458 455
f 393 453 459
f 393 459 394
f 394 459 456
f 396 460 461
f 396 461 397
f 397 461 462
f 397 462 398
f 398 462 463
f 398 463 399
f 399 463 464
f 399 464 400
f 400 464 465
f 400 465 401
f 401 465 466
f 401 466 402
f 402 466 467
f 402 467 403
f 403 467 468
f 403 468 404
f 404 468 405
f 405 468 469
f 405 469 406
f 406 469 470
f 406 470 471
f 406 471 407
f 407 472 473
f 407 473 474
f 407 474 408
f 407 471 472
f 410 475 411
f 411 475 476
f 411 476 412
f 412 477 413
f 412 476 478
f 412 478 477
f 413 479 480
f 413 480 481
f 413 481 414
f 413 477 479
f 414 481 482
f 414 482 415
f 415 482 483
f 415 483 484
f 415 484 417
f 415 417 416
f 417 484 418
f 418 484 483
f 418 483 485
f 418 485 486
f 418 486 487
f 418 487 419
f 419 487 488
f 419 488 420
f 420 488 489
f 420 489 421
f 421 490 422
f 421 489 491
f 421 491 490
f 422 490 425
f 425 490 492
f 425 492 426
f 426 492 427
f 427 493 494
f 427 494 495
f 427 495 496
f 427 496 431
f 427 431 428
f 427 492 497
f 427 497 493
f 431 496 432
f 432 496 495
f 432 495 494
f 432 494 433
f 433 494 435
f 435 494 436
f 436 494 498
f 436 498 499
f 436 499 500
f 436 500 439
f 437 439 500
f 437 500 438
f 438 500 440
f 440 501 502
f 440 502 441
f 440 500 501
f 441 502 503
f 441 503 442
f 442 503 504
f 442 504 505
f 442 505 443
f 443 505 444
f 444 505 506
f 444 506 446
f 445 448 449
f 446 506 447
f 447 506 507
f 447 507 508
f 447 508 509
f 447 509 510
f 447 510 448
f 448 511 449
f 448 510 512
f 448 512 511
f 449 511 450
f 450 511 513
f 450 513 451
f 451 453 452
f 451 513 514
f 451 514 453
f 453 515 459
f 453 514 516
f 453 516 515
f 456 459 515
f 456 515 517
f 456 517 457
f 457 517 518
f 460 519 520
f 460 520 521
f 460 521 461
f 460 522 523
f 460 523 524
f 460 524 525
f 460 525 526
f 460 526 527
f 460 527 519
f 461 521 462
f 462 528 463
f 462 521 528
f 463 528 529
f 463 529 530
f 463 530 531
f 463 531 532
f 463 532 533
f 463 533 464
f 464 533 532
f 464 532 534
f 464 534 465
f 465 534 535
f 465 535 536
f 465 536 466
f 466 536 537
f 466 537 538
f 466 538 467
f 467 538 539
f 467 539 468
f 468 539 540
f 468 540 469
f 469 541 542
f 469 542 470
f 469 540 541
f 470 542 471
f 471 543 472
f 471 542 541
f 471 541 544
f 471 544 543
f 472 543 545
f 472 545 546
f 472 546 473
f 479 547 548
f 479 548 480
f 480 548 549
f 480 549 481
f 481 549 550
f 481 550 551
f 481 551 483
f 481 483 482
f 483 552 485
f 483 551 552
f 485 552 486
f 486 553 554
f 486 554 555
f 486 555 556
f 486 556 487
f 486 552 557
f 486 557 553
f 487 556 559
f 487 559 488
f 488 558 489
f 488 559 560
f 488 560 558
f 489 558 491
f 490 491 492
f 491 561 492
f 491 558 562
f 491 562 563
f 491 563 561
f 492 561 564
f 492 564 497
f 493 565 501
f 493 501 566
f 493 566 567
f 493 567 568
f 493 568 494
f 493 497 569
f 493 569 565
f 494 568 498
f 497 564 570
f 497 570 569
f 498 567 499
f 498 568 567
f 499 567 566
f 499 566 500
f 500 566 501
f 501 565 571
f 501 571 502
f 502 571 503
f 503 571 565
f 503 565 572
f 503 572 573
f 503 573 506
f 503 506 504
f 504 506 505
f 506 572 507
f 506 573 572
f 507 572 574
f 507 574 575
f 507 575 509
f 507 509 508
f 509 575 576
f 509 576 577
f 509 577 510
f 510 577 512
f 511 512 578
f 511 578 513
f 512 579 580
f 512 580 578
f 512 577 581
f 512 581 579
f 513 582 516
f 513 516 514
f 513 578 582
f 515 516 583
f 515 583 517
f 516 582 578
f 516 578 584
f 516 584 585
f 516 585 583
f 517 583 586
f 517 586 587
f 517 587 518
f 518 587 588
f 518 588 522
f 519 521 520
f 519 527 521
f 521 527 528
f 522 588 589
f 522 589 590
f 522 590 591
f 522 591 592
f 522 592 593
f 522 593 594
f 522 594 595
f 522 595 523
f 523 595 596
f 523 596 597
f 523 597 524
f 524 597 598
f 524 598 525
f 525 598 526
f 526 598 599
f 526 599 527
f 527 599 528
f 528 599 600
f 528 600 529
f 529 600 530
f 530 600 601
f 530 601 602
f 530 602 603
f 530 603 532
f 530 532 531
f 532 603 534
f 534 603 602
f 534 602 604
f 534 604 605
f 534 605 606
f 534 606 535
f 535 607 537
f 535 537 536
f 535 606 607
f 537 607 608
f 537 608 538
f 538 608 539
f 539 608 609
f 539 609 610
f 539 610 611
f 539 611 540
f 540 611 541
f 541 611 612
f 541 612 544
f 543 613 545
f 543 544 614
f 543 614 613
f 544 612 614
f 545 613 548
f 545 548 615
f 545 615 546
f 547 616 548
f 548 616 615
f 548 613 549
f 549 613 550
f 550 617 618
f 550 618 619
f 550 619 557
f 550 557 551
f 550 613 617
f 551 557 552
f 553 557 554
f 554 620 618
f 554 618 621
f 554 621 622
f 554 622 556
f 554 556 555
f 554 557 620
f 556 622 623
f 556 623 559
f 557 619 620
f 558 560 562
f 559 623 560
f 560 623 562
f 561 563 570
f 561 570 564
f 562 623 624
f 562 624 625
f 562 625 563
f 563 625 626
f 563 626 569
f 563 569 570
f 565 569 626
f 565 626 572
f 572 626 574
f 574 626 627
f 574 627 575
f 575 628 629
f 575 629 576
f 575 627 628
f 576 629 630
f 576 630 631
f 576 631 666
f 576 666 632
f 576 632 577
f 577 632 637
f 577 637 581
f 578 580 633
f 578 633 634
f 578 634 635
f 578 635 584
f 579 581 636
f 579 636 633
f 579 633 580
f 581 637 636
f 583 585 586
f 584 635 586
f 584 586 638
f 584 638 585
f 585 638 586
f 586 639 588
f 586 588 587
f 586 635 640
f 586 640 639
f 588 639 589
f 589 639 590
f 590 639 641
f 590 641 642
f 590 642 643
f 590 643 591
f 591 643 592
f 592 644 593
f 592 643 644
f 593 644 596
f 593 596 594
f 594 596 595
f 596 644 645
f 596 645 646
f 596 646 647
f 596 647 597
f 597 647 648
f 597 648 598
f 598 648 599
f 599 648 600
f 600 648 649
f 600 649 650
f 600 650 601
f 601 650 651
f 601 651 602
f 602 651 604
f 604 652 653
f 604 653 654
f 604 654 605
f 604 651 652
f 605 654 606
f 606 654 680
f 606 680 655
f 606 655 607
f 607 655 608
f 608 655 609
f 609 656 610
f 609 655 656
f 610 656 657
f 610 657 612
f 610 612 611
f 612 618 614
f 612 657 658
f 612 658 618
f 613 614 617
f 614 618 617
f 618 658 621
f 618 620 619
f 621 658 659
f 621 659 660
f 621 660 624
f 621 624 622
f 622 624 623
f 624 660 625
f 625 660 627
f 625 627 626
f 627 660 630
f 627 630 661
f 627 661 628
f 628 661 629
f 629 661 630
f 630 662 663
f 630 663 664
f 630 664 631
f 630 660 662
f 631 664 665
f 631 665 666
f 632 666 637
f 633 667 668
f 633 668 634
f 633 636 669
f 633 669 667
f 634 668 645
f 634 645 670
f 634 670 635
f 635 671 640
f 635 670 671
f 636 637 672
f 636 672 669
f 637 666 673
f 637 673 672
f 639 640 671
f 639 671 641
f 641 671 642
f 642 671 643
f 643 671 644
f 644 671 670
f 644 670 645
f 645 674 646
f 645 668 674
f 646 674 675
f 646 675 647
f 647 675 676
f 647 676 648
f 648 676 677
f 648 677 649
f 649 677 650
f 650 677 676
f 650 676 675
f 650 675 678
f 650 678 679
f 650 679 651
f 651 679 652
f 652 679 678
f 652 678 672
f 652 672 673
f 652 673 653
f 653 673 665
f 653 665 654
f 654 665 680
f 655 680 656
f 656 681 657
f 656 680 665
f 656 665 664
f 656 664 663
f 656 663 682
f 656 682 681
f 657 681 658
f 658 681 659
f 659 681 683
f 659 683 662
f 659 662 660
f 662 683 663
f 663 683 682
f 665 673 666
f 667 678 668
f 667 669 672
f 667 672 678
f 668 678 674
f 674 678 675
f 681 682 683

