# https://github.com/mikedh/trimesh
v 0.02819990 -0.01882830 -0.07963362
v 0.02819990 -0.01883011 -0.07962888
v 0.02819990 -0.01883137 -0.07960740
v 0.02819990 -0.01871326 -0.07976762
v 0.02819990 -0.01862612 -0.07979098
v 0.02819990 -0.01886010 -0.07725575
v 0.02819990 -0.01851773 -0.07981701
v 0.02819990 -0.01846820 -0.07982220
v 0.02819990 -0.01839034 -0.07983008
v 0.02819990 -0.01823980 -0.07983953
v 0.02819990 -0.01887282 -0.07621179
v 0.02819990 -0.01889207 -0.07363064
v 0.02819990 -0.01889028 -0.07339577
v 0.02839940 -0.01886754 -0.07366152
v 0.02819990 -0.01807012 -0.07984668
v 0.02819990 -0.01791939 -0.07985116
v 0.02819990 -0.01887918 -0.07225302
v 0.02819990 -0.01662832 -0.07985116
v 0.02819990 -0.01602026 -0.07980134
v 0.02904594 -0.01867670 -0.07960740
v 0.02819990 -0.01862497 -0.05856263
v 0.02819990 -0.01857939 -0.05717747
v 0.02819990 -0.01384815 -0.07961062
v 0.03128860 -0.01824824 -0.07960740
v 0.02819990 -0.01832031 -0.05091482
v 0.02819990 -0.01805601 -0.04662100
v 0.02819990 -0.01788970 -0.04398283
v 0.02819990 -0.01787855 -0.04383097
v 0.02819990 -0.01775283 -0.04248892
v 0.02819990 -0.01759912 -0.04086855
v 0.02819990 -0.01693420 -0.03515007
v 0.02819990 -0.01661664 -0.03241983
v 0.02819990 -0.01661407 -0.03239845
v 0.02819990 -0.01659477 -0.03224522
v 0.02819990 -0.01658991 -0.03221731
v 0.02819990 -0.01644086 -0.03139019
v 0.02849011 -0.01646666 -0.03242954
v 0.02819990 -0.01612645 -0.02996632
v 0.02819990 -0.01602401 -0.02961693
v 0.02909612 -0.01654915 -0.03585171
v 0.02819990 -0.01547623 -0.02811288
v 0.02819990 -0.01540601 -0.02794626
v 0.02819990 -0.01510921 -0.02725826
v 0.02819990 -0.01467217 -0.02651731
v 0.02819990 -0.01397501 -0.02546430
v 0.02819990 -0.01391839 -0.02537981
v 0.02819990 -0.01378535 -0.02523029
v 0.02869276 -0.01377028 -0.02577978
v 0.02977548 -0.01387247 -0.02729629
v 0.03060924 -0.01398944 -0.02910466
v 0.03087365 -0.01402884 -0.02969409
v 0.03091804 -0.01398944 -0.02968837
v 0.02819990 -0.01107460 -0.06053676
v 0.02819990 -0.01275200 -0.02440913
v 0.02819990 -0.01230568 -0.02408485
v 0.02819990 -0.01206620 -0.02393682
v 0.02819990 -0.01146724 -0.02364111
v 0.02819990 -0.01091511 -0.02337821
v 0.02819990 -0.01013617 -0.02386425
v 0.02819990 -0.00977135 -0.04678408
v 0.02819990 -0.00977086 -0.02569718
v 0.02819990 -0.00977086 -0.02488681
v 0.03109366 -0.01131523 -0.02577978
v 0.03175179 -0.01824331 -0.07425096
v 0.03236939 -0.01787641 -0.07960740
v 0.03239255 -0.01771389 -0.06599884
v 0.03413920 -0.01723371 -0.07960740
v 0.03449990 -0.01703428 -0.07960740
v 0.03449990 -0.01700147 -0.07961084
v 0.03449990 -0.01675897 -0.07963538
v 0.03449990 -0.01725336 -0.07559879
v 0.03449990 -0.01729092 -0.07459923
v 0.03449990 -0.01729348 -0.07451208
v 0.03449990 -0.01729878 -0.07432788
v 0.03449990 -0.01728290 -0.07390321
v 0.03449990 -0.01629009 -0.07966483
v 0.03449990 -0.01694607 -0.06605839
v 0.03449990 -0.01682330 -0.06406386
v 0.03449990 -0.01680608 -0.06379065
v 0.03449990 -0.01680492 -0.06377492
v 0.03449990 -0.01646179 -0.06011208
v 0.03449990 -0.01604229 -0.05568962
v 0.03449990 -0.01576159 -0.07968710
v 0.03449990 -0.01529211 -0.07970103
v 0.03449990 -0.01479615 -0.07970103
v 0.03449990 -0.01422610 -0.07965433
v 0.03449990 -0.01370047 -0.07960818
v 0.03449990 -0.01590029 -0.05446847
v 0.03449990 -0.01587595 -0.05425922
v 0.03279206 -0.01490178 -0.04018951
v 0.03171319 -0.01422584 -0.03252683
v 0.03197567 -0.01398944 -0.03251538
v 0.03234623 -0.01450286 -0.03597761
v 0.03449990 -0.01526193 -0.04962246
v 0.03449990 -0.01505080 -0.04802899
v 0.03449990 -0.01481564 -0.04657609
v 0.03449990 -0.01436889 -0.04387635
v 0.03449990 -0.01417473 -0.04270367
v 0.03449990 -0.01404990 -0.04195200
v 0.03449990 -0.01344414 -0.03891168
v 0.03449990 -0.01329851 -0.03827086
v 0.03223429 -0.01138418 -0.02723906
v 0.03232500 -0.00706628 -0.02577978
v 0.03341738 -0.01158487 -0.02962542
v 0.03449990 -0.01262098 -0.03546028
v 0.03449990 -0.01260813 -0.03541691
v 0.03449990 -0.01226676 -0.03428155
v 0.03429360 -0.01190252 -0.03246960
v 0.03449990 -0.01204737 -0.03355711
v 0.03449990 -0.01182145 -0.03286501
v 0.03449990 -0.01174125 -0.03263272
v 0.03449990 -0.01166511 -0.03243499
v 0.03449990 -0.01084199 -0.03057816
v 0.03449990 -0.01026390 -0.02943888
v 0.03449990 -0.00821677 -0.04189651
v 0.03313174 -0.00897468 -0.02577978
v 0.03408130 -0.00900915 -0.02690714
v 0.03449990 -0.00981773 -0.02873608
v 0.03449990 -0.00908387 -0.02769856
v 0.03449990 -0.00869350 -0.02718978
v 0.03449990 -0.00827244 -0.02668797
v 0.03449990 -0.00706628 -0.02975583
v 0.03449990 -0.00770320 -0.02614580
v 0.03449990 -0.00728994 -0.02577978
v 0.03449990 -0.00720639 -0.02572814
v 0.03449990 -0.00718960 -0.02571985
v 0.03449990 -0.00717413 -0.02571248
v 0.03449990 -0.00706628 -0.02577978
f 20 3 2
f 20 2 1
f 20 6 3
f 14 6 20
f 14 11 6
f 14 12 11
f 14 13 12
f 14 17 13
f 24 1 4
f 24 4 5
f 20 1 24
f 65 5 7
f 14 64 17
f 14 20 64
f 64 21 17
f 64 22 21
f 66 25 22
f 67 7 8
f 69 8 9
f 70 9 10
f 76 10 15
f 83 15 16
f 84 16 18
f 24 5 65
f 20 24 64
f 64 66 22
f 78 26 25
f 85 18 19
f 86 19 23
f 40 31 30
f 37 32 31
f 37 33 32
f 37 34 33
f 37 35 34
f 37 36 35
f 37 38 36
f 37 31 40
f 49 43 42
f 49 44 43
f 48 46 45
f 48 47 46
f 49 45 44
f 48 45 49
f 37 91 38
f 51 39 38
f 51 41 39
f 50 42 41
f 49 42 50
f 79 27 26
f 80 28 27
f 81 29 28
f 82 30 29
f 40 30 82
f 37 40 89
f 51 38 91
f 50 41 51
f 48 49 102
f 37 93 91
f 37 90 93
f 51 91 52
f 50 51 52
f 49 50 104
f 87 23 53
f 63 54 47
f 48 63 47
f 63 55 54
f 103 60 61
f 103 59 58
f 103 62 59
f 103 61 62
f 116 56 55
f 126 57 56
f 48 102 63
f 63 116 55
f 115 53 60
f 127 58 57
f 65 7 67
f 67 8 69
f 24 73 64
f 24 65 73
f 64 75 66
f 69 9 70
f 70 10 76
f 76 15 83
f 83 16 84
f 66 78 25
f 78 79 26
f 79 80 27
f 80 81 28
f 81 82 29
f 84 18 85
f 85 19 86
f 86 23 87
f 65 67 71
f 64 73 74
f 64 74 75
f 65 71 72
f 65 72 73
f 67 69 68
f 67 68 71
f 66 75 77
f 66 77 78
f 40 82 88
f 40 88 89
f 37 95 90
f 37 89 94
f 37 94 95
f 52 91 92
f 50 52 104
f 52 92 108
f 91 93 101
f 91 105 92
f 90 98 93
f 90 95 96
f 90 96 97
f 90 97 98
f 98 99 93
f 99 100 93
f 100 101 93
f 91 101 105
f 92 105 106
f 87 53 115
f 49 104 102
f 52 108 104
f 63 102 117
f 115 60 103
f 116 125 56
f 103 58 127
f 125 126 56
f 126 127 57
f 63 117 116
f 92 106 107
f 92 107 108
f 102 104 118
f 102 118 117
f 107 109 108
f 109 110 108
f 108 110 111
f 108 111 112
f 108 113 104
f 108 112 113
f 104 113 114
f 104 114 118
f 116 117 123
f 118 119 117
f 117 119 120
f 117 120 121
f 115 103 122
f 116 123 124
f 116 124 125
f 103 128 122
f 103 127 128
f 117 121 123
f 68 69 71
f 71 69 70
f 71 70 76
f 71 76 83
f 71 83 84
f 71 87 72
f 73 87 74
f 72 87 73
f 74 87 75
f 75 87 77
f 77 80 78
f 78 80 79
f 71 84 85
f 71 85 86
f 71 86 87
f 77 87 80
f 80 87 81
f 81 115 82
f 82 115 88
f 88 115 89
f 89 115 94
f 81 87 115
f 94 115 95
f 95 115 96
f 96 115 97
f 97 115 98
f 98 115 99
f 99 115 100
f 100 115 101
f 101 115 105
f 105 115 106
f 106 115 107
f 107 115 109
f 109 115 110
f 110 115 111
f 111 115 112
f 112 122 113
f 112 115 122
f 113 122 114
f 114 122 118
f 118 122 119
f 119 122 120
f 120 122 121
f 122 123 121
f 122 124 123
f 122 125 124
f 122 126 125
f 122 127 126
f 122 128 127
f 2 53 1
f 2 3 53
f 4 1 53
f 4 53 5
f 5 53 7
f 53 8 7
f 53 9 8
f 6 53 3
f 6 11 53
f 12 53 11
f 12 13 53
f 17 53 13
f 17 21 53
f 53 10 9
f 53 15 10
f 53 16 15
f 18 16 53
f 19 18 53
f 23 19 53
f 21 22 60
f 22 25 60
f 21 60 53
f 25 26 60
f 26 27 60
f 27 28 60
f 28 29 60
f 29 30 60
f 30 31 61
f 31 32 61
f 32 33 61
f 33 34 61
f 34 35 61
f 35 36 61
f 36 38 61
f 39 61 38
f 39 41 61
f 42 61 41
f 43 61 42
f 43 44 61
f 30 61 60
f 44 45 61
f 45 46 61
f 61 46 47
f 61 47 54
f 61 54 55
f 61 55 56
f 62 56 57
f 59 57 58
f 61 56 62
f 59 62 57

