# https://github.com/mikedh/trimesh
v -0.04491115 0.00235182 -0.03888107
v -0.04473234 0.00235182 -0.03845578
v -0.04491115 0.00350176 -0.03888107
v -0.04359622 0.00235182 -0.03579367
v -0.04384930 0.00350176 -0.03634081
v -0.04283972 0.00235182 -0.03427181
v -0.04207497 0.00235182 -0.03276374
v -0.04207497 0.00350176 -0.03276374
v -0.04130746 0.00235182 -0.03143039
v -0.04026487 0.00350176 -0.02961887
v -0.03974220 0.00235182 -0.02880046
v -0.04501294 0.00676337 -0.03973166
v -0.04297451 0.00714570 -0.03497067
v -0.04494416 0.00872390 -0.03973166
v -0.04492491 0.00906621 -0.03973166
v -0.04491665 0.00918921 -0.03973166
v -0.04339265 0.00913734 -0.03603046
v -0.03949461 0.00676337 -0.03973166
v -0.04152478 0.00920551 -0.03228787
v -0.04107639 0.00720052 -0.03133383
v -0.03941759 0.00926478 -0.02872920
v -0.03310425 0.00235182 -0.03889946
v -0.03888941 0.00235182 -0.02751998
v -0.03862808 0.00235182 -0.02714067
v -0.03862808 0.00282454 -0.02714067
v -0.03825395 0.00235182 -0.02659813
v -0.03825395 0.00350176 -0.02659813
v -0.03896369 0.00724794 -0.02790849
v -0.03857031 0.00768214 -0.02737975
v -0.03677121 0.00235182 -0.02466706
v -0.03638333 0.00235182 -0.02422338
v -0.03656489 0.00350176 -0.02441189
v -0.03563509 0.00235182 -0.02338429
v -0.03510691 0.00235182 -0.02279577
v -0.03469978 0.00235182 -0.02237048
v -0.03461725 0.00235182 -0.02229002
v -0.03567360 0.00350176 -0.02338429
v -0.03469978 0.00350176 -0.02237048
v -0.03449071 0.00350176 -0.02216818
v -0.03428714 0.00235182 -0.02197277
v -0.03290344 0.00235182 -0.02087161
v -0.03281266 0.00350176 -0.02063482
v -0.03125564 0.00235182 -0.01959343
v -0.03101356 0.00235182 -0.01944400
v -0.03335183 0.00532447 -0.02115207
v -0.03664467 0.00728944 -0.02472224
v -0.03707656 0.00931665 -0.02538432
v -0.03538476 0.00846605 -0.02332912
v -0.03532699 0.00934332 -0.02332912
v -0.03442744 0.00935666 -0.02227623
v -0.03404782 0.00732352 -0.02181645
v -0.03105758 0.00732648 -0.01934285
v -0.03134367 0.00935666 -0.01960262
v -0.04475160 0.01104748 -0.03973166
v -0.04355771 0.01111268 -0.03673621
v -0.04456729 0.01217519 -0.03973166
v -0.04170634 0.01119419 -0.03292696
v -0.03959089 0.01126383 -0.02929013
v -0.03857031 0.01271163 -0.02821655
v -0.04411064 0.01480404 -0.03973166
v -0.04323585 0.01486332 -0.03748565
v -0.04312306 0.01748624 -0.03973166
v -0.04189341 0.01748624 -0.03677759
v -0.03949461 0.01748624 -0.03973166
v -0.04093334 0.01748624 -0.03478446
v -0.04058122 0.01748624 -0.03410169
v -0.04138449 0.01496409 -0.03364191
v -0.03925253 0.01505003 -0.02995450
v -0.03857031 0.01506930 -0.02894299
v -0.03857031 0.01748624 -0.03060509
v -0.03857031 0.01732472 -0.03048095
v -0.03851804 0.01748624 -0.03051773
v -0.03857031 0.01006203 -0.02760734
v -0.03723061 0.01132607 -0.02583720
v -0.03520595 0.01083113 -0.02332912
v -0.03514818 0.01136164 -0.02332912
v -0.03454023 0.01137053 -0.02259807
v -0.03137668 0.01136460 -0.01980263
v -0.03686474 0.01512116 -0.02643031
v -0.03611925 0.01748624 -0.02695216
v -0.03438618 0.01486925 -0.02332912
v -0.03431465 0.01517599 -0.02332912
v -0.03413034 0.01518192 -0.02310842
v -0.03384149 0.01632889 -0.02332912
v -0.03400930 0.01748624 -0.02421649
v -0.03348938 0.01748624 -0.02362567
v -0.03370120 0.01688460 -0.02343946
v -0.03358016 0.01688460 -0.02332912
v -0.03351689 0.01698685 -0.02332912
v -0.03339860 0.01748624 -0.02353142
v -0.03318403 0.01748624 -0.02332912
v -0.03262559 0.01748476 -0.02281417
v -0.02800132 0.00235182 -0.03889946
v -0.02800132 0.00350917 -0.03889946
v -0.02724206 0.00235182 -0.03874314
v -0.02720905 0.00235182 -0.03872245
v -0.02659285 0.00235182 -0.03831095
v -0.02616096 0.00235182 -0.03766266
v -0.02600691 0.00235182 -0.03689254
v -0.02650757 0.00459094 -0.03818681
v -0.02724206 0.00676337 -0.03874544
v -0.02503033 0.00235182 -0.02528777
v -0.02502483 0.00235182 -0.02338429
v -0.02941803 0.00235182 -0.01866008
v -0.03075773 0.00350176 -0.01913365
v -0.02960234 0.00350176 -0.01845778
v -0.02749790 0.00235182 -0.01774972
v -0.02855150 0.00350176 -0.01793133
v -0.03047988 0.00533039 -0.01897043
v -0.02629850 0.00350176 -0.01706695
v -0.02502483 0.00235182 -0.01707155
v -0.02502483 0.00350176 -0.01674051
v -0.02723656 0.00529779 -0.01735891
v -0.02502483 0.00440570 -0.01673821
v -0.02763269 0.00727314 -0.01750144
v -0.02776749 0.00927515 -0.01760949
v -0.02502483 0.00676485 -0.01676350
v -0.02502483 0.00720052 -0.01677269
v -0.02394372 0.00717237 -0.01647154
v -0.02502483 0.00918031 -0.01683936
v -0.01690965 0.00720497 -0.02250152
v -0.02391897 0.00664037 -0.01646005
v -0.02342931 0.00664037 -0.01638189
v -0.02254351 0.00664037 -0.01624855
v -0.02079118 0.00664037 -0.01624855
v -0.02384194 0.00913586 -0.01651062
v -0.02195757 0.00847642 -0.01624855
v -0.02187779 0.00866462 -0.01624855
v -0.01690965 0.00720497 -0.01635430
v -0.02800957 0.01748624 -0.03889946
v -0.02724206 0.01748624 -0.03874544
v -0.02659285 0.01748624 -0.03831095
v -0.02616096 0.01748624 -0.03766266
v -0.02959959 0.01132459 -0.01865318
v -0.02768771 0.01126087 -0.01772213
v -0.02502483 0.01114825 -0.01697960
v -0.03089802 0.01517303 -0.02024401
v -0.02907692 0.01512265 -0.01907388
v -0.03068070 0.01748476 -0.02109920
v -0.03053765 0.01748476 -0.02098655
v -0.03030383 0.01748476 -0.02080724
v -0.03048264 0.01688164 -0.02060034
v -0.02917045 0.01748476 -0.02013137
v -0.02712103 0.01503966 -0.01812444
v -0.02502483 0.01493297 -0.01753592
v -0.02674690 0.01674975 -0.01849456
v -0.02701924 0.01748476 -0.01895204
v -0.02657359 0.01748476 -0.01875204
v -0.02577308 0.01748476 -0.01846238
v -0.02502483 0.01748772 -0.01827157
v -0.02360536 0.01109046 -0.01658419
v -0.02090672 0.01079408 -0.01624855
v -0.02087921 0.01085187 -0.01624855
v -0.02087096 0.01086669 -0.01624855
v -0.02079118 0.01100006 -0.01624855
v -0.02079118 0.01749069 -0.02250152
v -0.01690965 0.01749069 -0.02250152
v -0.02293139 0.01482775 -0.01695201
v -0.02260953 0.01653488 -0.01730604
v -0.02287912 0.01748772 -0.01769685
v -0.02246098 0.01748772 -0.01761869
v -0.02145415 0.01748772 -0.01752443
v -0.02079118 0.01749069 -0.01748305
v -0.01825485 0.01483516 -0.01635430
v -0.01815031 0.01494186 -0.01635430
v -0.01690965 0.01579690 -0.01635430
v -0.01861797 0.01749069 -0.01733822
v -0.01690965 0.01749069 -0.01730144
f 1 4 2
f 1 2 5
f 1 5 3
f 2 4 5
f 1 3 12
f 1 6 4
f 1 7 6
f 4 6 8
f 1 9 7
f 4 8 5
f 3 5 17
f 5 8 13
f 1 12 22
f 6 7 8
f 1 11 9
f 1 23 11
f 7 9 10
f 1 24 23
f 7 10 8
f 1 26 24
f 9 11 10
f 1 30 26
f 1 31 30
f 1 33 31
f 10 11 27
f 1 34 33
f 1 35 34
f 8 10 20
f 10 27 28
f 3 14 12
f 3 15 14
f 3 17 15
f 5 13 17
f 12 14 15
f 12 15 16
f 12 16 54
f 15 55 16
f 15 17 55
f 13 19 17
f 8 19 13
f 8 20 19
f 17 19 57
f 10 21 20
f 10 28 21
f 19 20 21
f 19 21 58
f 21 28 29
f 1 22 93
f 12 93 22
f 12 18 93
f 1 93 95
f 1 95 96
f 1 96 97
f 1 97 98
f 1 98 99
f 18 94 93
f 1 99 102
f 1 102 103
f 18 64 94
f 11 23 25
f 11 25 27
f 23 24 25
f 1 36 35
f 24 26 27
f 24 27 25
f 27 29 28
f 21 29 47
f 21 47 73
f 1 40 36
f 1 41 40
f 26 30 27
f 27 30 32
f 1 43 41
f 1 44 43
f 1 104 44
f 30 31 37
f 30 37 32
f 31 33 37
f 33 34 37
f 34 35 37
f 35 36 38
f 35 38 37
f 36 39 38
f 27 32 47
f 32 37 48
f 37 38 50
f 1 107 104
f 1 103 111
f 36 40 39
f 1 111 107
f 39 40 42
f 40 41 42
f 39 42 45
f 41 43 42
f 43 44 105
f 42 43 105
f 38 39 51
f 39 45 51
f 42 105 52
f 42 53 45
f 27 47 29
f 32 46 47
f 32 48 46
f 37 50 48
f 46 48 47
f 47 48 49
f 47 49 75
f 48 50 49
f 38 51 50
f 45 53 51
f 42 52 53
f 50 51 53
f 12 54 56
f 16 55 54
f 12 56 60
f 54 55 56
f 17 57 55
f 55 61 56
f 12 60 62
f 55 57 67
f 55 67 61
f 12 64 18
f 19 58 57
f 21 73 58
f 57 58 68
f 58 59 69
f 56 61 60
f 12 62 64
f 60 61 62
f 61 63 62
f 61 67 63
f 63 67 65
f 65 67 66
f 57 68 67
f 58 69 68
f 66 67 68
f 66 68 71
f 66 71 70
f 68 69 71
f 69 79 71
f 70 71 72
f 64 130 94
f 62 156 64
f 62 63 163
f 71 80 72
f 63 65 163
f 65 66 163
f 58 73 74
f 58 74 59
f 59 79 69
f 47 74 73
f 47 76 74
f 47 75 76
f 49 50 77
f 49 77 75
f 75 77 76
f 59 74 79
f 74 76 81
f 76 77 81
f 50 78 77
f 50 53 78
f 77 78 137
f 74 81 79
f 79 81 82
f 79 82 84
f 71 79 80
f 79 85 80
f 79 84 87
f 79 87 85
f 77 83 81
f 81 83 82
f 82 83 84
f 83 137 84
f 66 70 163
f 70 72 163
f 84 137 88
f 85 87 86
f 84 88 87
f 87 88 89
f 87 89 90
f 88 92 89
f 86 87 90
f 89 91 90
f 89 92 91
f 72 80 163
f 88 139 92
f 91 92 139
f 77 137 83
f 88 137 142
f 88 142 139
f 91 139 140
f 91 140 141
f 93 101 95
f 97 100 98
f 95 101 96
f 96 101 97
f 93 94 131
f 93 131 101
f 97 101 132
f 97 132 100
f 98 100 133
f 98 121 99
f 99 121 102
f 44 106 105
f 44 104 108
f 44 108 106
f 105 106 109
f 104 107 108
f 107 110 108
f 52 105 109
f 106 116 109
f 106 108 115
f 108 113 115
f 107 111 110
f 108 110 113
f 110 111 112
f 110 112 114
f 110 115 113
f 110 117 115
f 110 114 122
f 112 122 114
f 110 119 117
f 112 123 122
f 110 122 119
f 52 109 134
f 106 115 116
f 52 134 53
f 109 116 134
f 115 117 118
f 115 118 120
f 117 119 118
f 118 119 120
f 115 120 116
f 116 120 135
f 119 126 120
f 120 126 151
f 102 121 103
f 103 121 111
f 111 129 112
f 112 124 123
f 112 125 124
f 112 129 125
f 111 121 129
f 98 157 121
f 119 122 123
f 119 123 124
f 119 124 126
f 124 127 126
f 126 127 128
f 126 128 151
f 124 125 155
f 124 155 127
f 127 155 128
f 125 129 166
f 94 130 131
f 100 132 133
f 101 131 132
f 64 157 130
f 130 157 131
f 64 156 157
f 98 133 157
f 131 157 132
f 132 157 133
f 53 134 78
f 116 135 134
f 78 134 137
f 134 135 138
f 120 136 135
f 120 151 136
f 135 136 145
f 136 151 145
f 62 163 156
f 80 85 163
f 134 138 137
f 135 144 138
f 137 138 142
f 138 143 142
f 139 142 140
f 140 142 141
f 85 86 163
f 86 90 163
f 91 141 150
f 141 142 143
f 90 91 163
f 138 147 143
f 141 143 150
f 138 144 146
f 138 146 147
f 135 145 144
f 144 145 159
f 91 150 163
f 143 147 150
f 146 148 147
f 146 149 148
f 147 148 150
f 148 149 150
f 144 159 146
f 146 159 149
f 149 160 150
f 128 152 151
f 128 155 152
f 151 152 153
f 151 153 154
f 151 154 155
f 152 155 153
f 153 155 154
f 145 151 158
f 151 155 164
f 151 164 158
f 121 157 129
f 125 166 155
f 155 165 164
f 129 157 166
f 145 158 159
f 149 159 160
f 150 160 163
f 159 161 160
f 158 166 159
f 160 161 163
f 161 162 163
f 159 166 161
f 158 164 165
f 158 165 166
f 155 166 165
f 156 163 157
f 157 163 167
f 161 166 162
f 162 167 163
f 162 166 167
f 157 168 166
f 157 167 168
f 166 168 167

