# https://github.com/mikedh/trimesh
v 0.01020657 -0.00052173 -0.02448339
v 0.01020657 -0.00052173 -0.01284477
v 0.01366894 -0.00319187 -0.01300445
v 0.01366894 -0.00198891 -0.01284310
v 0.01020657 0.00917145 -0.02448339
v 0.01020657 0.02135745 -0.02146437
v 0.01222568 0.02135397 -0.02146437
v 0.01333607 0.02134702 -0.02146437
v 0.01020657 0.01596501 -0.01241562
v 0.01020657 0.02152781 -0.01241562
v 0.01044711 0.02142350 -0.01241562
v 0.01109585 0.02113146 -0.01241562
v 0.01159152 0.02083593 -0.01241562
v 0.01350858 0.01961907 -0.01241562
v 0.01850010 -0.00768503 -0.02516988
v 0.01850010 -0.00924050 -0.02382119
v 0.01850010 -0.01154208 -0.01939673
v 0.01850010 -0.00270699 -0.02612916
v 0.01850010 0.00374721 -0.02612916
v 0.01786024 -0.01119534 -0.01882127
v 0.01850010 -0.01154208 -0.01914831
v 0.01850010 -0.01119534 -0.01882127
v 0.01850010 -0.00419005 -0.01371466
v 0.01850010 -0.00318845 -0.01298486
v 0.01850010 -0.00316610 -0.01298186
v 0.01850010 -0.00260903 -0.01291620
v 0.01850010 0.01186125 -0.02411895
v 0.01850010 0.01353443 -0.02365052
v 0.01850010 0.01458350 -0.02335575
v 0.01850010 0.02098376 -0.02128483
v 0.01850010 0.02099848 -0.02127989
v 0.01850010 0.02106517 -0.02121508
v 0.01850010 0.02106331 -0.02121829
v 0.01850010 0.02106837 -0.02118688
v 0.01600635 0.00997805 -0.01241562
v 0.01570263 0.01796762 -0.01241562
v 0.01582655 0.01785984 -0.01241562
v 0.01598691 0.01771729 -0.01241562
v 0.01600635 0.01769991 -0.01241562
v 0.01850010 0.00529243 -0.01261807
v 0.01850010 0.02107193 -0.01843268
v 0.01850010 0.02106869 -0.01797054
v 0.01850010 0.02106649 -0.01791629
v 0.01850010 0.02098361 -0.01680511
v 0.01850010 0.02096411 -0.01670987
v 0.01850010 0.02071594 -0.01611960
v 0.01850010 0.02081118 -0.01626920
v 0.01850010 0.02066946 -0.01605777
v 0.01850010 0.02053162 -0.01588291
v 0.01850010 0.01350797 -0.01261807
v 0.01850010 0.01358414 -0.01262200
v 0.01850010 0.01397818 -0.01264378
v 0.01850010 0.01404218 -0.01265152
v 0.01850010 0.01445596 -0.01270726
v 0.01850010 0.01935630 -0.01484328
v 0.01850010 0.02016328 -0.01552681
v 0.01850010 0.02002502 -0.01540200
v 0.01850010 0.01771528 -0.01374545
v 0.01850010 0.01772979 -0.01375404
v 0.01850010 0.01814765 -0.01400358
v 0.01850010 0.01805570 -0.01394770
v 0.01850010 0.01793159 -0.01387378
f 1 5 19
f 1 2 9
f 1 20 2
f 2 20 3
f 2 3 4
f 2 4 35
f 1 6 5
f 1 10 6
f 5 6 27
f 6 7 28
f 1 9 10
f 2 35 9
f 6 10 7
f 7 10 8
f 9 35 10
f 10 35 11
f 8 10 41
f 12 35 13
f 11 35 12
f 10 11 46
f 13 35 14
f 11 12 48
f 12 13 56
f 1 15 16
f 1 18 15
f 1 16 20
f 1 19 18
f 16 17 20
f 3 25 4
f 4 40 35
f 17 21 20
f 20 21 22
f 20 22 23
f 3 20 23
f 3 23 24
f 3 24 25
f 4 25 26
f 4 26 40
f 5 27 19
f 6 28 27
f 7 29 28
f 7 8 29
f 8 30 29
f 8 31 30
f 8 33 31
f 8 32 33
f 8 34 32
f 8 41 34
f 10 42 41
f 10 43 42
f 14 35 36
f 13 14 57
f 35 37 36
f 35 38 37
f 35 39 38
f 10 44 43
f 10 45 44
f 10 47 45
f 10 46 47
f 11 48 46
f 12 49 48
f 12 56 49
f 13 57 56
f 14 36 55
f 35 40 50
f 35 50 39
f 14 55 57
f 36 37 60
f 37 38 61
f 38 39 59
f 39 50 51
f 39 51 52
f 39 52 53
f 39 53 54
f 39 54 58
f 38 62 61
f 39 58 59
f 38 59 62
f 37 61 60
f 36 60 55
f 16 22 17
f 15 18 23
f 15 23 16
f 18 19 23
f 17 22 21
f 16 23 22
f 19 24 23
f 19 25 24
f 19 26 25
f 19 40 26
f 19 27 50
f 27 28 50
f 28 29 50
f 29 30 31
f 29 31 33
f 29 33 32
f 29 32 34
f 29 34 41
f 29 41 42
f 29 42 43
f 29 43 44
f 19 50 40
f 29 51 50
f 29 52 51
f 29 53 52
f 29 54 53
f 29 55 60
f 29 61 62
f 29 59 58
f 29 62 59
f 29 60 61
f 29 58 54
f 29 44 45
f 29 45 47
f 29 46 48
f 29 48 49
f 29 47 46
f 29 49 56
f 29 56 57
f 29 57 55

