# https://github.com/mikedh/trimesh
v 0.01850010 -0.00924050 -0.02382119
v 0.01850010 -0.01154208 -0.01939673
v 0.01850010 -0.01154208 -0.01914831
v 0.01850010 -0.01119534 -0.01882127
v 0.02101647 -0.01119534 -0.01882127
v 0.01850010 -0.00768503 -0.02516988
v 0.01850010 -0.00349990 -0.02597637
v 0.02150935 -0.00349990 -0.02672632
v 0.01850010 -0.00419005 -0.01371466
v 0.01850010 -0.00349990 -0.01321179
v 0.01856314 -0.00349990 -0.01321157
v 0.02301857 -0.01399065 -0.02346041
v 0.02301857 -0.01399065 -0.02145772
v 0.02480010 -0.01312648 -0.02569135
v 0.02480010 -0.01399065 -0.02494206
v 0.02480010 -0.01399065 -0.02261878
v 0.02480010 -0.01036925 -0.01977924
v 0.02480010 -0.00906503 -0.01876833
v 0.02480010 -0.00436698 -0.02737934
v 0.02480010 -0.00349990 -0.02737934
v 0.02293601 -0.00349990 -0.01321157
v 0.02301385 -0.00349990 -0.01322884
v 0.02309121 -0.00349990 -0.01327925
v 0.02310840 -0.00349990 -0.01329108
v 0.02321571 -0.00349990 -0.01337605
v 0.02384210 -0.00349990 -0.01389208
v 0.02391795 -0.00349990 -0.01395473
v 0.02480010 -0.00594329 -0.01644733
v 0.02480010 -0.00386015 -0.01494166
v 0.02480010 -0.00380380 -0.01490126
v 0.02480010 -0.00349990 -0.01469386
f 1 12 2
f 1 6 12
f 12 13 2
f 13 3 2
f 3 5 4
f 13 5 3
f 6 7 8
f 6 8 14
f 4 5 11
f 4 11 9
f 9 11 10
f 5 21 11
f 12 6 14
f 12 14 15
f 12 16 13
f 12 15 16
f 13 16 17
f 13 22 5
f 13 17 23
f 8 19 14
f 8 20 19
f 13 23 22
f 5 22 21
f 23 17 18
f 24 18 28
f 23 18 24
f 24 28 25
f 25 29 26
f 25 28 29
f 26 29 27
f 27 29 30
f 27 30 31
f 1 2 4
f 2 3 4
f 1 9 6
f 6 9 7
f 1 4 9
f 7 9 10
f 7 20 8
f 7 11 20
f 7 10 11
f 11 21 20
f 21 22 20
f 23 24 20
f 22 23 20
f 24 25 20
f 25 26 20
f 27 31 20
f 26 27 20
f 15 14 16
f 16 14 17
f 17 14 20
f 20 14 19
f 17 20 18
f 20 28 18
f 20 29 28
f 20 30 29
f 20 31 30

