# https://github.com/mikedh/trimesh
v 0.02819990 -0.01218862 -0.02671937
v 0.02819990 -0.01399065 -0.02577417
v 0.02841502 -0.01399065 -0.02577417
v 0.02819990 -0.01399065 -0.02549513
v 0.02819990 -0.01391614 -0.02537587
v 0.02819990 -0.01378713 -0.02518315
v 0.02819990 -0.01373693 -0.02513190
v 0.02819990 -0.01372517 -0.02512025
v 0.02826924 -0.01372989 -0.02518534
v 0.02868958 -0.01376814 -0.02577417
v 0.02819990 -0.01252766 -0.02409402
v 0.03057991 -0.01128226 -0.02512213
v 0.03109259 -0.01131008 -0.02577417
v 0.02819990 -0.01135675 -0.02316442
v 0.02826437 -0.01128574 -0.02316267
v 0.02819990 -0.01118632 -0.02303770
v 0.02819990 -0.00526279 -0.02805400
v 0.02819990 -0.00349990 -0.02805400
v 0.02958075 -0.00349990 -0.02832801
v 0.02819990 -0.00513861 -0.01866649
v 0.02819990 -0.00497503 -0.01854920
v 0.02819990 -0.00395727 -0.01785462
v 0.02819990 -0.00349990 -0.01758306
v 0.03231475 -0.00894241 -0.02480609
v 0.03313114 -0.00897022 -0.02577417
v 0.03191580 -0.00349990 -0.02841303
v 0.03216850 -0.00349990 -0.02841291
v 0.03230701 -0.00349990 -0.02841266
v 0.03449990 -0.00761865 -0.02910670
v 0.03449990 -0.00761323 -0.02911924
v 0.03449990 -0.00745688 -0.02920125
v 0.03449990 -0.00763005 -0.02892226
v 0.03449990 -0.00692278 -0.02930417
v 0.03449990 -0.00671719 -0.02930417
v 0.03449990 -0.00645872 -0.02924014
v 0.03449990 -0.00640542 -0.02922522
v 0.03449990 -0.00637201 -0.02921583
v 0.03331337 -0.00706149 -0.02426882
v 0.03345915 -0.00678683 -0.02419230
v 0.03449990 -0.00763005 -0.02609978
v 0.03449990 -0.00759168 -0.02604567
v 0.03449990 -0.00742665 -0.02588916
v 0.03449990 -0.00722773 -0.02570955
v 0.03449990 -0.00689050 -0.02541755
v 0.03449990 -0.00680530 -0.02534443
v 0.03449990 -0.00530836 -0.02887167
v 0.03449990 -0.00482414 -0.02871144
v 0.03395686 -0.00349990 -0.02831775
v 0.03449990 -0.00455318 -0.02861866
v 0.03418832 -0.00349990 -0.02829878
v 0.03427884 -0.00349990 -0.02828693
v 0.03449990 -0.00393121 -0.02839615
v 0.03449990 -0.00368203 -0.02830209
v 0.03442736 -0.00349990 -0.02825664
v 0.03447153 -0.00349990 -0.02824245
v 0.03449990 -0.00349990 -0.02822928
v 0.03449990 -0.00548231 -0.02430608
v 0.03449990 -0.00481893 -0.02381925
v 0.03398883 -0.00481551 -0.02329075
v 0.03390397 -0.00349990 -0.02243740
v 0.03449990 -0.00392285 -0.02325626
v 0.03449990 -0.00349990 -0.02300804
f 3 4 2
f 3 2 1
f 3 10 5
f 3 5 4
f 10 9 5
f 9 6 5
f 9 7 6
f 9 8 7
f 9 11 8
f 15 14 11
f 10 13 9
f 9 12 11
f 15 11 12
f 3 30 10
f 9 13 12
f 3 1 31
f 15 12 24
f 15 38 16
f 15 24 38
f 15 16 14
f 19 17 18
f 31 1 17
f 19 33 17
f 38 20 16
f 39 21 20
f 59 22 21
f 60 23 22
f 10 29 13
f 3 31 30
f 10 30 29
f 13 25 12
f 12 25 24
f 13 40 25
f 13 29 32
f 13 32 40
f 31 17 33
f 19 26 34
f 19 34 33
f 26 27 36
f 25 42 24
f 24 43 38
f 25 40 41
f 25 41 42
f 24 42 43
f 43 44 38
f 39 44 45
f 38 44 39
f 39 45 57
f 26 35 34
f 26 36 35
f 37 27 28
f 28 48 46
f 36 27 37
f 37 28 46
f 46 50 47
f 47 51 49
f 46 48 50
f 47 50 51
f 49 54 52
f 49 51 54
f 52 55 53
f 52 54 55
f 53 55 56
f 39 57 59
f 57 58 59
f 59 58 61
f 38 39 20
f 39 59 21
f 59 60 22
f 59 61 60
f 61 62 60
f 29 30 40
f 29 40 32
f 30 31 40
f 31 33 40
f 40 33 34
f 40 34 35
f 40 35 36
f 40 36 37
f 40 37 46
f 40 46 41
f 41 46 42
f 42 46 43
f 43 46 44
f 44 47 45
f 44 46 47
f 45 47 49
f 49 52 57
f 52 53 57
f 53 56 62
f 45 49 57
f 53 62 57
f 57 62 58
f 58 62 61
f 19 18 23
f 19 23 60
f 19 62 26
f 26 62 27
f 19 60 62
f 27 62 28
f 28 62 48
f 48 62 50
f 50 62 51
f 51 62 54
f 54 62 55
f 55 62 56
f 1 2 4
f 1 4 5
f 1 5 6
f 7 1 6
f 7 8 1
f 1 8 11
f 1 11 17
f 11 14 17
f 16 17 14
f 17 23 18
f 17 16 23
f 16 20 23
f 23 20 21
f 23 21 22

