# https://github.com/mikedh/trimesh
v 0.01850010 0.01649990 -0.02273566
v 0.01850010 0.01649990 -0.01335831
v 0.01850010 0.01771528 -0.01374545
v 0.01850010 0.01772979 -0.01375404
v 0.01850010 0.01805570 -0.01394770
v 0.01850010 0.01814765 -0.01400358
v 0.01850010 0.01793159 -0.01387378
v 0.01850010 0.02098376 -0.02128483
v 0.01850010 0.02099848 -0.02127989
v 0.01850010 0.02106331 -0.02121829
v 0.01850010 0.02106517 -0.02121508
v 0.01850010 0.02106837 -0.02118688
v 0.01850010 0.02107193 -0.01843268
v 0.01850010 0.01935630 -0.01484328
v 0.01850010 0.02106869 -0.01797054
v 0.01850010 0.02106649 -0.01791629
v 0.01850010 0.02053162 -0.01588291
v 0.01850010 0.02066946 -0.01605777
v 0.01850010 0.02071594 -0.01611960
v 0.01850010 0.02098361 -0.01680511
v 0.01850010 0.02096411 -0.01670987
v 0.01850010 0.02081118 -0.01626920
v 0.01850010 0.02002502 -0.01540200
v 0.01850010 0.02016328 -0.01552681
v 0.02480010 0.01649990 -0.02237323
v 0.02480010 0.01649990 -0.01670552
v 0.02480010 0.01775412 -0.01710502
v 0.02480010 0.01776111 -0.01710917
v 0.02480010 0.01846880 -0.01752907
v 0.02480010 0.01851722 -0.01755791
v 0.02480010 0.01855309 -0.01757971
v 0.02203453 0.02087765 -0.02099696
v 0.02301857 0.02081855 -0.02099696
v 0.02314492 0.02080812 -0.02099696
v 0.02480010 0.01928555 -0.01812531
v 0.02480010 0.01933949 -0.01817400
v 0.02480010 0.02054060 -0.02106579
v 0.02480010 0.02057327 -0.02105484
v 0.02480010 0.02063418 -0.02099696
v 0.02480010 0.02002124 -0.01883310
v 0.02480010 0.02009923 -0.01893325
v 0.02480010 0.02007956 -0.01890708
v 0.02480010 0.02026680 -0.01919649
v 0.02480010 0.02057023 -0.02013949
v 0.02480010 0.02053590 -0.01997190
v 0.02480010 0.01902464 -0.01790732
f 1 8 25
f 2 26 3
f 3 27 4
f 5 7 29
f 4 29 7
f 5 30 6
f 6 31 14
f 11 12 32
f 10 11 33
f 9 10 34
f 12 13 32
f 13 15 32
f 33 15 16
f 34 16 20
f 8 9 38
f 11 32 33
f 10 33 34
f 32 15 33
f 33 16 34
f 14 46 23
f 23 35 24
f 17 40 18
f 18 42 19
f 17 24 36
f 21 22 45
f 19 43 22
f 20 21 44
f 3 26 27
f 4 27 28
f 4 28 29
f 5 29 30
f 6 30 31
f 8 37 25
f 9 34 38
f 8 38 37
f 34 20 44
f 19 41 43
f 21 45 44
f 22 43 45
f 34 39 38
f 34 44 39
f 14 31 46
f 23 46 35
f 24 35 36
f 17 36 40
f 18 40 42
f 19 42 41
f 1 2 8
f 2 3 4
f 2 4 7
f 2 7 5
f 2 5 6
f 2 6 14
f 2 14 23
f 2 9 8
f 2 10 9
f 2 11 10
f 2 12 11
f 2 13 12
f 2 15 13
f 2 16 15
f 2 20 16
f 2 23 24
f 2 24 17
f 2 18 19
f 2 19 22
f 2 17 18
f 2 22 21
f 2 21 20
f 1 26 2
f 1 25 26
f 26 25 44
f 26 28 27
f 26 29 28
f 26 30 29
f 26 31 30
f 26 46 31
f 26 35 46
f 26 36 35
f 26 40 36
f 25 37 44
f 26 42 40
f 26 41 42
f 26 43 41
f 26 44 45
f 26 45 43
f 38 39 37
f 39 44 37

