# https://github.com/mikedh/trimesh
v 0.02819990 0.01649990 -0.02217157
v 0.02948254 0.01649990 -0.02206646
v 0.03008140 0.01649990 -0.02198809
v 0.02819990 0.01649990 -0.01851184
v 0.02869963 0.01649990 -0.01877734
v 0.02819990 0.01777507 -0.01891802
v 0.02819990 0.01777802 -0.01891977
v 0.02819990 0.02004964 -0.02099696
v 0.02867500 0.01993198 -0.02099696
v 0.02819990 0.01976122 -0.02044472
v 0.02819990 0.01976642 -0.02045163
v 0.02819990 0.01974581 -0.02042517
v 0.02819990 0.01997303 -0.02077621
v 0.02942093 0.01964689 -0.02099696
v 0.02819990 0.01875870 -0.01950165
v 0.02819990 0.01876627 -0.01950617
v 0.02819990 0.01877189 -0.01950958
v 0.02819990 0.01884567 -0.01956083
v 0.02819990 0.01889493 -0.01960256
v 0.02819990 0.01888649 -0.01959494
v 0.02883050 0.01881247 -0.01986753
v 0.03106393 0.01649990 -0.02178769
v 0.03135609 0.01649990 -0.02169384
v 0.03194776 0.01649990 -0.02141920
v 0.03164859 0.01649990 -0.02048239
v 0.03220009 0.01649990 -0.02122772
v 0.03239990 0.01649990 -0.02099696
v 0.03212037 0.01716449 -0.02099696
v 0.03178506 0.01774511 -0.02099696
v 0.03055567 0.01649990 -0.01976349
v 0.03066981 0.01779030 -0.02023514
v 0.03065280 0.01894458 -0.02099696
v 0.03102456 0.01862820 -0.02099696
f 2 1 8
f 2 14 3
f 5 6 4
f 31 6 5
f 31 21 7
f 31 7 6
f 30 31 5
f 2 9 14
f 2 8 9
f 9 8 13
f 9 13 11
f 14 11 10
f 14 10 12
f 21 14 12
f 9 11 14
f 3 14 32
f 21 32 14
f 31 33 21
f 21 33 32
f 21 15 7
f 21 12 19
f 21 20 18
f 21 19 20
f 21 17 16
f 21 16 15
f 21 18 17
f 3 32 22
f 22 33 23
f 22 32 33
f 29 33 31
f 23 29 24
f 28 31 25
f 24 28 26
f 27 28 25
f 26 28 27
f 24 29 28
f 23 33 29
f 28 29 31
f 30 25 31
f 2 5 1
f 2 3 5
f 5 4 1
f 3 30 5
f 3 22 30
f 22 23 30
f 23 25 30
f 23 24 25
f 24 26 25
f 26 27 25
f 1 17 18
f 1 15 16
f 1 16 17
f 1 20 19
f 1 18 20
f 1 4 6
f 1 6 7
f 1 7 15
f 1 19 8
f 11 13 8
f 10 11 8
f 12 10 8
f 12 8 19

