# https://github.com/mikedh/trimesh
v 0.02480010 -0.00349990 -0.02737934
v 0.02480010 -0.00037320 -0.02737934
v 0.02480010 0.00464767 -0.02613544
v 0.02480010 0.00568302 -0.02584559
v 0.02480010 0.00633217 -0.02566318
v 0.02480010 -0.00349990 -0.01469386
v 0.02480010 -0.00345323 -0.01466201
v 0.02480010 -0.00315865 -0.01448711
v 0.02480010 -0.00284672 -0.01433540
v 0.02480010 -0.00282614 -0.01433127
v 0.02480010 -0.00279640 -0.01432661
v 0.02480010 -0.00106292 -0.01431855
v 0.02511488 -0.00349990 -0.01495761
v 0.02480010 0.00616228 -0.01431855
v 0.02480010 0.01649990 -0.02237323
v 0.02480010 0.00685996 -0.01432086
v 0.02480010 0.00805392 -0.01446852
v 0.02480010 0.00849638 -0.01455118
v 0.02480010 0.01041196 -0.01491783
v 0.02480010 0.01082407 -0.01502019
v 0.02480010 0.01276141 -0.01551471
v 0.02480010 0.01394585 -0.01589197
v 0.02480010 0.01649990 -0.01670552
v 0.02819990 -0.00349990 -0.02805400
v 0.02819990 -0.00259678 -0.02805400
v 0.02819990 0.00075486 -0.02722365
v 0.02819990 0.00144599 -0.02703016
v 0.02819990 0.00187933 -0.02690839
v 0.02819990 -0.00349990 -0.01758306
v 0.02819990 -0.00310204 -0.01734684
v 0.02819990 -0.00219646 -0.01690640
v 0.02819990 -0.00213673 -0.01689441
v 0.02819990 -0.00205037 -0.01688090
v 0.02819990 0.00298220 -0.01685748
v 0.02795133 0.01649990 -0.02219194
v 0.02819990 0.01567211 -0.02244549
v 0.02819990 0.01649990 -0.02217157
v 0.02819990 0.00662208 -0.01685748
v 0.02819990 0.00864754 -0.01686419
v 0.02819990 0.01617260 -0.01840758
v 0.02819990 0.01649990 -0.01851184
v 0.02819990 0.01211381 -0.01729287
v 0.02819990 0.01228765 -0.01732535
v 0.02819990 0.01304027 -0.01746940
v 0.02819990 0.01320219 -0.01750962
v 0.02819990 0.01396335 -0.01770391
f 1 2 25
f 2 3 25
f 3 4 26
f 4 5 27
f 6 13 7
f 7 13 8
f 8 31 9
f 9 32 10
f 10 33 11
f 8 13 30
f 11 33 12
f 12 34 14
f 5 15 28
f 14 38 16
f 16 39 17
f 17 42 18
f 18 43 19
f 19 44 20
f 20 45 21
f 21 40 22
f 22 40 23
f 1 25 24
f 3 26 25
f 4 27 26
f 5 28 27
f 8 30 31
f 9 31 32
f 10 32 33
f 13 29 30
f 12 33 34
f 14 34 38
f 15 36 28
f 15 35 36
f 35 37 36
f 16 38 39
f 17 39 42
f 18 42 43
f 23 40 41
f 19 43 44
f 20 44 45
f 21 45 46
f 21 46 40
f 1 13 6
f 1 29 13
f 1 24 29
f 1 3 2
f 1 4 3
f 1 5 4
f 1 15 5
f 1 8 15
f 1 6 7
f 1 7 8
f 9 10 12
f 10 11 12
f 8 9 15
f 9 12 15
f 12 14 15
f 14 16 15
f 15 16 17
f 15 17 18
f 15 21 22
f 15 22 23
f 15 18 19
f 15 19 20
f 15 20 21
f 24 25 29
f 25 26 29
f 26 27 34
f 27 28 34
f 26 30 29
f 26 31 30
f 26 32 31
f 26 33 32
f 26 34 33
f 28 38 34
f 28 39 38
f 28 36 46
f 28 42 39
f 28 43 42
f 28 44 43
f 28 45 44
f 28 46 45
f 36 37 46
f 37 41 40
f 37 40 46
f 15 23 41
f 15 41 35
f 35 41 37

