# https://github.com/mikedh/trimesh
v 0.02819990 0.01649990 -0.03535796
v 0.02819990 0.01662073 -0.03529897
v 0.02840242 0.01649990 -0.03529897
v 0.02819990 0.01649990 -0.02441349
v 0.02819990 0.01662073 -0.02450214
v 0.02840242 0.01649990 -0.02450214
v 0.02819990 0.01703170 -0.03495023
v 0.02819990 0.01720481 -0.03479904
v 0.02819990 0.01703170 -0.02485088
v 0.02819990 0.01720481 -0.02500207
v 0.02904289 0.01649990 -0.03497469
v 0.02911831 0.01649990 -0.03492665
v 0.02913474 0.01665209 -0.03479904
v 0.02928026 0.01649990 -0.03479904
v 0.02920227 0.01659620 -0.03479904
v 0.02904289 0.01649990 -0.02482642
v 0.02911831 0.01649990 -0.02487446
v 0.02913474 0.01665209 -0.02500207
v 0.02928026 0.01649990 -0.02500207
v 0.02920227 0.01659620 -0.02500207
f 3 1 2
f 3 2 7
f 3 7 13
f 6 5 4
f 6 9 5
f 6 18 9
f 13 7 8
f 13 8 10
f 18 10 9
f 3 13 11
f 11 13 12
f 12 15 14
f 12 13 15
f 14 15 20
f 15 13 20
f 6 16 18
f 13 10 18
f 14 20 19
f 13 18 20
f 16 17 18
f 17 19 20
f 17 20 18
f 3 11 1
f 14 6 1
f 6 4 1
f 11 12 1
f 12 14 1
f 14 16 6
f 14 17 16
f 14 19 17
f 2 1 7
f 1 4 5
f 1 5 9
f 7 1 10
f 7 10 8
f 1 9 10

