# https://github.com/mikedh/trimesh
v 0.01850010 -0.00025897 -0.03531050
v 0.01850010 -0.00051357 -0.03505916
v 0.01850010 0.00453639 -0.03687554
v 0.01850010 0.00624498 -0.03743206
v 0.01850010 0.00673175 -0.03755974
v 0.01850010 0.00772614 -0.03771763
v 0.01850010 -0.00051357 -0.02474609
v 0.01850010 -0.00025897 -0.02449473
v 0.01850010 0.00471233 -0.02294391
v 0.01850010 0.00562121 -0.02271278
v 0.01850010 0.00669912 -0.02243931
v 0.01850010 0.00727912 -0.02235496
v 0.01850010 0.00871458 -0.03778868
v 0.01850010 0.00969751 -0.03779403
v 0.01850010 0.01614557 -0.03779403
v 0.01850010 0.01649990 -0.03776490
v 0.01936507 0.01649990 -0.03761455
v 0.01850010 0.00864306 -0.02229554
v 0.01850010 0.00953786 -0.02228927
v 0.01850010 0.01649990 -0.02228927
v 0.01907228 0.01649990 -0.02238350
v 0.02377143 0.00000335 -0.03529897
v 0.02383679 -0.00049968 -0.03479904
v 0.02326168 0.00365727 -0.03649880
v 0.02480010 -0.00014635 -0.03489001
v 0.02480010 0.00027917 -0.03529865
v 0.02480010 -0.00024090 -0.03479904
v 0.02465588 0.00394139 -0.03649880
v 0.02480010 0.00386031 -0.03645992
v 0.02480010 0.00403256 -0.03649880
v 0.02480010 0.00603081 -0.03681609
v 0.02377143 0.00000335 -0.02450214
v 0.02383679 -0.00049968 -0.02500207
v 0.02480010 -0.00024090 -0.02500236
v 0.02480010 -0.00014635 -0.02491140
v 0.02480010 0.00028016 -0.02450214
v 0.02480010 0.00027917 -0.02450278
v 0.02480010 0.00113850 -0.02428386
v 0.02480010 0.00357457 -0.02366582
v 0.02480010 0.00488538 -0.02347518
v 0.02480010 0.00796788 -0.02334089
v 0.02480010 0.00817272 -0.03697005
v 0.02480010 0.01030269 -0.03698163
v 0.02480010 0.01270639 -0.03698163
v 0.02480010 0.01425009 -0.03685474
v 0.02480010 0.01649990 -0.03624760
v 0.02166414 0.01649990 -0.02282538
v 0.02201293 0.01649990 -0.02289379
v 0.02480010 0.00999014 -0.02332673
v 0.02480010 0.01383467 -0.02332673
v 0.02480010 0.01467329 -0.02333721
v 0.02480010 0.01494170 -0.02335237
v 0.02441529 0.01649990 -0.02337752
v 0.02480010 0.01633141 -0.02344391
v 0.02480010 0.01649990 -0.02347976
f 1 22 2
f 1 3 22
f 3 4 24
f 4 5 24
f 5 6 28
f 6 13 31
f 2 33 7
f 7 32 8
f 8 32 9
f 9 32 10
f 10 39 11
f 11 40 12
f 12 41 18
f 15 16 17
f 13 14 42
f 14 15 44
f 15 17 44
f 19 21 20
f 18 49 19
f 19 50 21
f 2 22 23
f 3 24 22
f 2 23 33
f 5 28 24
f 6 31 28
f 13 42 31
f 24 28 22
f 22 25 23
f 22 26 25
f 23 25 27
f 22 28 26
f 28 29 26
f 23 27 34
f 28 30 29
f 28 31 30
f 7 33 32
f 10 32 38
f 10 38 39
f 11 39 40
f 12 40 41
f 23 34 33
f 33 35 32
f 33 34 35
f 32 35 37
f 32 37 36
f 32 36 38
f 14 43 42
f 14 44 43
f 17 45 44
f 17 46 45
f 18 41 49
f 19 49 50
f 21 50 47
f 47 52 48
f 47 50 51
f 47 51 52
f 48 54 53
f 48 52 54
f 53 54 55
f 1 2 3
f 2 9 3
f 3 10 4
f 4 18 5
f 5 18 6
f 2 7 8
f 2 8 9
f 3 9 10
f 4 10 11
f 4 11 12
f 4 12 18
f 6 18 13
f 13 19 14
f 14 19 15
f 15 19 16
f 13 18 19
f 16 19 20
f 16 46 17
f 16 20 21
f 16 21 47
f 16 47 46
f 47 48 46
f 48 53 46
f 53 55 46
f 41 27 25
f 41 25 26
f 46 26 29
f 27 40 34
f 34 37 35
f 36 37 34
f 38 36 34
f 38 34 39
f 39 34 40
f 41 40 27
f 41 26 49
f 46 29 30
f 31 46 30
f 31 42 46
f 42 43 46
f 46 55 26
f 44 46 43
f 45 46 44
f 49 26 50
f 50 26 51
f 52 51 26
f 26 54 52
f 26 55 54

