# https://github.com/mikedh/trimesh
v -0.03288052 -0.01694948 -0.09460473
v -0.03572778 -0.01680499 -0.09204277
v -0.03316439 -0.01739381 -0.09183047
v -0.04068252 -0.01399137 -0.09780116
v -0.04088036 -0.01399137 -0.09730903
v -0.04120724 -0.01371016 -0.09798450
v -0.04284161 -0.01273449 -0.09761540
v -0.04181798 -0.01338080 -0.09784216
v -0.03854923 -0.01481479 -0.09854900
v -0.03725033 -0.01523738 -0.09880954
v -0.03501381 -0.01577649 -0.09925100
v -0.03282031 -0.01600642 -0.09966111
v -0.03603745 -0.01399137 -0.09904836
v -0.03442888 -0.01399137 -0.09936439
v -0.03226118 -0.01399137 -0.09976002
v -0.03317299 -0.01399137 -0.09959839
v -0.04075133 -0.01473711 -0.09360841
v -0.04188679 -0.01443571 -0.09217545
v -0.04167175 -0.01469050 -0.09149998
v -0.04335773 -0.01250766 -0.09707985
v -0.04274699 -0.01399293 -0.09166885
v -0.04277280 -0.01399293 -0.09156994
v -0.03928900 -0.01474643 -0.09720288
v -0.03956426 -0.01511775 -0.09456131
v -0.03938362 -0.01566929 -0.09197039
v -0.03762021 -0.01626588 -0.09207654
v -0.03767183 -0.01634667 -0.09149998
v -0.01554753 -0.01752276 -0.10214347
v -0.01881628 -0.01706755 -0.10177196
v -0.01781845 -0.01726331 -0.10188534
v -0.03023971 -0.01791117 -0.09149998
v -0.03021391 -0.01791583 -0.09147827
v -0.02826126 -0.01573454 -0.10044755
v -0.02673871 -0.01569725 -0.10068396
v -0.02580969 -0.01567239 -0.10082630
v -0.02356458 -0.01596292 -0.10115438
v -0.03121174 -0.01598157 -0.09994818
v -0.02259255 -0.01617111 -0.10128706
v -0.02231729 -0.01593962 -0.10132325
v -0.01889370 -0.01593962 -0.10175507
v -0.02279900 -0.01399137 -0.10125811
v -0.02210224 -0.01399137 -0.10135461
v -0.02048506 -0.01399137 -0.10155967
v -0.02010658 -0.01399137 -0.10160309
v -0.01922057 -0.01399137 -0.10170200
v -0.03492779 -0.01729904 -0.08964726
v -0.03795569 -0.01689510 -0.08752194
v -0.03349986 -0.01793758 -0.08722280
v -0.04033844 -0.01682984 -0.07963341
v -0.03823956 -0.01733011 -0.08312897
v -0.04021801 -0.01670400 -0.08301317
v -0.03373212 -0.01818150 -0.08403603
v -0.03380953 -0.01827627 -0.08279847
v -0.03840299 -0.01743420 -0.07963341
v -0.03400738 -0.01832288 -0.07963341
v -0.04360719 -0.01400069 -0.08818776
v -0.04371902 -0.01339944 -0.09101026
v -0.04374482 -0.01339944 -0.09090894
v -0.03983092 -0.01622393 -0.08719144
v -0.04290183 -0.01546576 -0.08223397
v -0.04200722 -0.01596137 -0.08262719
v -0.04358138 -0.01471691 -0.08403603
v -0.04297065 -0.01546576 -0.08162846
v -0.04302226 -0.01546576 -0.08111944
v -0.04205883 -0.01602662 -0.08111944
v -0.04181798 -0.01620995 -0.07963341
v -0.04181798 -0.01461593 -0.07963341
v -0.04413191 -0.01423063 -0.08403603
v -0.04181798 -0.01400846 -0.07965753
v -0.02965478 -0.01837415 -0.08719144
v -0.02242051 -0.01876100 -0.09063875
v -0.02101839 -0.01910746 -0.08719385
v -0.02922468 -0.01871129 -0.08403603
v -0.02894942 -0.01891636 -0.08210129
v -0.02845910 -0.01897385 -0.08111220
v -0.02912146 -0.01892724 -0.07965029
v -0.02773654 -0.01905464 -0.07965029
v -0.02363339 -0.01938867 -0.08111220
v -0.02383124 -0.01936226 -0.08149819
v -0.01973669 -0.01942440 -0.08403120
v -0.02344415 -0.01919757 -0.08403844
v -0.02285061 -0.01948499 -0.07965029
v -0.01861844 -0.01970094 -0.08126177
v -0.01853242 -0.01971493 -0.08111220
v -0.01812812 -0.01980659 -0.07941147
v -0.01753459 -0.01985941 -0.07941147
v -0.01812812 -0.01399603 -0.07881319
v -0.04365880 -0.01221558 -0.09742723
v -0.04199002 -0.01150246 -0.09780839
v -0.04280721 -0.01093384 -0.09762505
v -0.03356008 -0.01150402 -0.09952119
v -0.04454481 -0.01189242 -0.09504620
v -0.04487168 -0.01133622 -0.09635613
v -0.04521576 -0.01086392 -0.09707261
v -0.04483727 -0.01229947 -0.09150239
v -0.04631682 -0.00994107 -0.09478325
v -0.04663509 -0.00913629 -0.09672764
v -0.04649746 -0.00933360 -0.09675659
v -0.04500071 -0.00873856 -0.09712086
v -0.04568027 -0.00779707 -0.09696164
v -0.04759851 -0.00746614 -0.09649363
v -0.04789958 -0.00670021 -0.09641644
v -0.04617058 -0.00689752 -0.09684343
v -0.04748668 -0.00840298 -0.09285816
v -0.04706519 -0.00591407 -0.09662391
v -0.04819205 -0.00591407 -0.09634407
v -0.04654047 -0.00591407 -0.09674694
v -0.04832108 -0.00591407 -0.09491110
v -0.02184418 -0.01150402 -0.10138597
v -0.02180977 -0.01073808 -0.10123399
v -0.04496630 -0.01228860 -0.09090894
v -0.04519856 -0.01205555 -0.09090894
v -0.04530178 -0.01194369 -0.09090894
v -0.04654047 -0.01037298 -0.09090894
v -0.04760711 -0.00858320 -0.09090894
v -0.04839849 -0.00676546 -0.09090894
v -0.04864795 -0.00591407 -0.09090894
v -0.04100939 -0.00591252 -0.08111220
v -0.03293213 -0.00591252 -0.07964064
v -0.01812812 -0.00591563 -0.07881319
v -0.01328521 -0.01748548 -0.10236782
v -0.01184868 -0.01730059 -0.10250291
v -0.00902723 -0.01663875 -0.10273933
v -0.00848530 -0.01649426 -0.10278275
v -0.00449398 -0.01649426 -0.10305294
v -0.00145748 -0.01649426 -0.10320733
v 0.00111451 -0.01724000 -0.10331107
v -0.01245082 -0.01593962 -0.10244502
v -0.01141858 -0.01593962 -0.10254151
v -0.00949173 -0.01593962 -0.10270314
v -0.00449398 -0.01399293 -0.10305294
v -0.00298003 -0.01399293 -0.10313014
v 0.00344565 -0.01765482 -0.10338344
v 0.00586280 -0.01775736 -0.10342927
v 0.00595742 -0.01775581 -0.10342927
v 0.00657677 -0.01773250 -0.10343892
v 0.00940682 -0.01741401 -0.10345581
v 0.00595742 -0.01691685 -0.10342927
v 0.01202182 -0.01686713 -0.10343892
v 0.01359598 -0.01649426 -0.10341480
v 0.01850010 -0.01697740 -0.10308291
v 0.01850010 -0.01691387 -0.10312917
v 0.01850010 -0.01702509 -0.10303680
v 0.01850010 -0.01661444 -0.10325028
v 0.01850010 -0.01655922 -0.10325764
v 0.01850010 -0.01649426 -0.10326198
v 0.01850010 -0.01844570 -0.09391335
v 0.01850010 -0.01865067 -0.09238102
v 0.01850010 -0.01866034 -0.09230148
v 0.01850010 -0.01823861 -0.09525838
v 0.01850010 -0.01539678 -0.10326239
v -0.01421422 -0.01905308 -0.09049160
v -0.01359488 -0.01967764 -0.08403120
v -0.01319059 -0.01996195 -0.08111220
v -0.01306156 -0.01996662 -0.08111220
v -0.01214114 -0.02013751 -0.07941147
v -0.01082504 -0.02019034 -0.07941147
v -0.00239510 -0.02015460 -0.08159227
v -0.00239510 -0.02020432 -0.08111462
v -0.00241230 -0.02037677 -0.07941147
v 0.01543681 -0.01893967 -0.09047953
v 0.01850010 -0.01891208 -0.09007754
v 0.01850010 -0.01881737 -0.09096790
v 0.01850010 -0.01886833 -0.09049625
v 0.01850010 -0.01901193 -0.08900188
v 0.01850010 -0.01913843 -0.08761128
v 0.00321339 -0.02013596 -0.08157780
v 0.00323060 -0.02035502 -0.07941147
v 0.00476175 -0.02029443 -0.07933427
v 0.00880468 -0.02003653 -0.08142582
v 0.00886489 -0.02021209 -0.07933427
v 0.00674021 -0.01672886 -0.07881319
v 0.00823695 -0.01672886 -0.07881319
v 0.01424113 -0.01986097 -0.08128831
v 0.01018100 -0.02011110 -0.07933427
v 0.01430135 -0.01995263 -0.07962376
v 0.01850010 -0.01965034 -0.08128831
v 0.01850010 -0.01966547 -0.08102219
v 0.01850010 -0.01966988 -0.08091661
v 0.01850010 -0.01971053 -0.07962376
v 0.01850010 -0.01970594 -0.07959919
v 0.01850010 -0.01970285 -0.07959567
v 0.01850010 -0.01963142 -0.07952204
v 0.01850010 -0.01953315 -0.07947137
v 0.01850010 -0.01947676 -0.07946311
v 0.01850010 -0.01768905 -0.07921450
v 0.01850010 -0.01740487 -0.07917525
v 0.01850010 -0.01721656 -0.07915899
v 0.01850010 -0.01692777 -0.07913544
v 0.01850010 -0.01682448 -0.07912986
v 0.01850010 -0.01664954 -0.07912063
v 0.00895091 -0.01399603 -0.07881319
v 0.01850010 -0.01633696 -0.07910783
v 0.01850010 -0.01598859 -0.07909697
v 0.01850010 -0.01568344 -0.07908961
v 0.01850010 -0.01388528 -0.07907661
v -0.01005946 -0.01150402 -0.10265972
v -0.01004226 -0.01073808 -0.10250774
v -0.00451119 -0.01150402 -0.10305053
v 0.00177686 -0.01150402 -0.10333519
v 0.00177686 -0.01073808 -0.10318079
v 0.00898532 -0.01126631 -0.10335690
v 0.01018100 -0.01150712 -0.10341721
v 0.01221107 -0.01150712 -0.10343651
v 0.01365620 -0.01150712 -0.10341480
v 0.01365620 -0.01073808 -0.10326040
v 0.01850010 -0.01150712 -0.10320202
v 0.01850010 -0.01110836 -0.10312460
v 0.01850010 -0.00744261 -0.10239979
v 0.01850010 -0.00677177 -0.10226668
v 0.01019820 -0.00450493 -0.10199390
v 0.01449059 -0.00450493 -0.10199390
v 0.01850010 -0.00548906 -0.10198007
v 0.01523896 -0.00450493 -0.10179125
v 0.01578949 -0.00450493 -0.10124364
v 0.01599594 -0.00450493 -0.10049339
v 0.01850010 -0.00533399 -0.10181116
v 0.01850010 -0.00521264 -0.10133345
v 0.01850010 -0.00517091 -0.10108583
v 0.01019820 -0.00450493 -0.09830052
v 0.01850010 -0.00499654 -0.09978857
v 0.01850010 -0.00496484 -0.09924728
v 0.01850010 -0.00494646 -0.09892996
v 0.01599594 -0.00450493 -0.09830052
v 0.01020680 -0.00450649 -0.09654912
v 0.01850010 -0.00494646 -0.09612081
v 0.01126485 -0.00450649 -0.09289917
v 0.01200462 -0.00450649 -0.09216821
v 0.01300245 -0.00450649 -0.09190043
v 0.01599594 -0.00450649 -0.09190043
v 0.01850010 -0.00494779 -0.09066361
v 0.01850010 -0.00495854 -0.09040704
v 0.01850010 -0.00499067 -0.09012347
v 0.00895091 -0.00591563 -0.07881319
v 0.01850010 -0.00842314 -0.07907661
v 0.01850010 -0.00658774 -0.07970042
v 0.01850010 -0.00663584 -0.07957991
f 11 12 31
f 2 11 3
f 1 3 11
f 1 11 31
f 2 27 26
f 1 31 3
f 4 5 6
f 7 8 20
f 7 20 88
f 6 89 9
f 6 8 7
f 6 7 90
f 10 13 11
f 4 9 23
f 9 13 10
f 11 14 12
f 11 13 14
f 12 16 37
f 15 37 16
f 12 14 16
f 4 6 9
f 9 89 91
f 9 91 13
f 13 91 14
f 15 16 91
f 14 91 16
f 5 24 17
f 5 17 19
f 17 24 19
f 4 24 5
f 6 18 8
f 5 19 6
f 8 21 20
f 20 57 88
f 58 92 88
f 20 21 22
f 6 19 18
f 8 18 21
f 22 58 57
f 18 19 21
f 57 58 88
f 20 22 57
f 58 95 92
f 2 26 10
f 10 26 25
f 9 10 25
f 9 24 23
f 4 23 24
f 9 25 24
f 2 10 11
f 25 26 27
f 19 24 25
f 12 28 31
f 12 30 28
f 12 29 30
f 28 30 29
f 28 29 40
f 31 71 32
f 28 152 71
f 28 71 31
f 12 37 29
f 29 37 33
f 33 34 36
f 33 36 38
f 34 35 36
f 35 41 36
f 15 33 37
f 33 91 109
f 33 109 34
f 34 109 35
f 35 109 41
f 15 91 33
f 29 33 38
f 29 38 39
f 29 39 42
f 29 44 40
f 36 42 38
f 38 42 39
f 36 41 42
f 29 42 43
f 29 43 44
f 28 40 44
f 28 44 45
f 41 109 42
f 42 109 43
f 44 109 45
f 43 109 44
f 2 46 47
f 2 47 27
f 3 31 48
f 2 3 48
f 2 48 46
f 46 48 47
f 47 51 59
f 47 48 50
f 49 66 51
f 52 74 53
f 53 74 55
f 47 50 51
f 49 51 50
f 48 52 50
f 48 74 52
f 50 52 53
f 50 53 54
f 49 50 54
f 53 55 54
f 19 25 61
f 21 60 22
f 19 61 21
f 25 59 61
f 21 61 60
f 22 60 62
f 58 111 95
f 68 112 111
f 68 113 112
f 22 56 58
f 56 111 58
f 22 62 56
f 56 68 111
f 56 62 68
f 25 27 47
f 25 47 59
f 51 61 59
f 60 61 63
f 51 65 61
f 60 63 62
f 62 63 64
f 62 64 68
f 63 65 64
f 51 66 65
f 61 65 63
f 64 65 66
f 64 66 67
f 64 67 69
f 49 54 87
f 49 87 66
f 70 71 73
f 71 74 73
f 71 81 74
f 31 32 70
f 31 70 48
f 32 71 70
f 48 70 73
f 71 152 153
f 71 72 81
f 72 80 81
f 71 153 155
f 71 154 72
f 48 73 74
f 74 81 79
f 55 74 76
f 74 75 76
f 54 55 85
f 75 77 76
f 74 82 75
f 74 79 78
f 74 78 82
f 75 82 77
f 55 76 85
f 76 77 85
f 54 85 87
f 79 81 83
f 80 83 81
f 72 154 80
f 71 155 154
f 80 154 83
f 78 79 86
f 79 83 84
f 79 84 86
f 77 82 86
f 78 86 82
f 77 86 85
f 83 156 84
f 84 156 86
f 7 88 94
f 7 94 90
f 6 90 89
f 89 90 103
f 89 107 91
f 91 107 109
f 88 93 94
f 92 95 93
f 93 111 94
f 94 113 96
f 88 92 93
f 93 95 111
f 94 111 112
f 94 112 113
f 96 113 114
f 94 96 98
f 94 98 97
f 97 98 114
f 94 100 99
f 90 99 100
f 94 97 103
f 94 103 100
f 90 100 103
f 90 94 99
f 96 114 98
f 97 114 115
f 97 115 104
f 97 101 103
f 89 103 107
f 97 104 101
f 101 105 103
f 101 102 106
f 101 116 102
f 101 104 115
f 101 115 116
f 103 105 107
f 101 106 105
f 102 116 106
f 106 116 108
f 108 116 117
f 107 110 109
f 107 198 110
f 45 109 197
f 109 110 198
f 105 211 107
f 105 106 211
f 106 108 211
f 107 211 198
f 108 117 211
f 68 114 113
f 68 115 114
f 64 116 68
f 68 116 115
f 64 117 116
f 64 69 117
f 69 118 117
f 66 120 67
f 67 120 69
f 69 119 118
f 66 87 120
f 69 120 119
f 117 118 227
f 118 119 229
f 28 128 121
f 121 128 122
f 121 122 133
f 28 121 134
f 122 130 123
f 122 123 125
f 123 124 125
f 28 134 152
f 122 125 127
f 121 133 134
f 122 127 133
f 125 126 127
f 134 158 152
f 122 128 129
f 122 129 130
f 28 197 128
f 128 197 129
f 123 130 124
f 124 130 197
f 129 197 130
f 28 45 197
f 124 197 199
f 124 131 125
f 125 132 126
f 125 131 132
f 126 200 127
f 124 199 131
f 131 199 132
f 126 132 200
f 133 138 134
f 134 136 135
f 134 138 136
f 136 137 141
f 137 139 144
f 136 143 150
f 136 141 143
f 137 142 141
f 137 144 142
f 139 140 145
f 139 145 144
f 140 146 145
f 135 136 149
f 136 150 147
f 134 135 167
f 135 161 167
f 135 163 161
f 135 149 163
f 136 147 148
f 136 148 149
f 127 200 133
f 133 200 138
f 136 204 137
f 136 138 204
f 138 200 203
f 138 203 204
f 137 204 139
f 139 205 140
f 140 151 146
f 140 205 151
f 139 204 205
f 151 205 207
f 152 157 153
f 152 160 157
f 83 154 156
f 153 157 155
f 154 155 157
f 154 157 156
f 85 86 172
f 86 156 172
f 85 172 87
f 152 158 159
f 152 159 160
f 156 157 169
f 157 160 169
f 158 167 159
f 159 167 160
f 160 167 168
f 156 169 172
f 87 172 173
f 134 167 158
f 161 164 162
f 161 163 164
f 161 162 170
f 162 165 170
f 165 166 174
f 161 170 167
f 167 170 168
f 160 168 169
f 168 171 169
f 168 170 171
f 169 171 173
f 171 175 173
f 169 173 172
f 165 174 170
f 166 177 174
f 170 174 171
f 171 174 176
f 171 181 175
f 171 176 181
f 174 178 176
f 174 177 178
f 176 178 179
f 175 181 182
f 175 182 183
f 175 183 184
f 175 184 185
f 176 179 180
f 176 180 181
f 175 185 186
f 173 175 186
f 173 186 187
f 173 187 188
f 173 188 189
f 173 189 190
f 173 190 191
f 173 191 193
f 173 195 192
f 173 193 194
f 173 194 195
f 192 195 196
f 109 198 197
f 197 198 199
f 132 199 200
f 199 201 200
f 198 211 199
f 117 220 211
f 117 225 220
f 117 227 225
f 200 201 203
f 201 202 203
f 199 211 201
f 201 211 202
f 202 204 203
f 204 206 205
f 205 208 207
f 202 211 204
f 204 212 206
f 205 206 212
f 205 209 208
f 204 211 212
f 205 212 209
f 211 220 212
f 209 212 210
f 210 212 213
f 212 214 213
f 212 215 214
f 212 216 215
f 213 214 217
f 215 218 217
f 214 215 217
f 215 219 218
f 215 216 221
f 215 221 219
f 212 220 224
f 212 224 216
f 216 222 221
f 216 224 223
f 216 223 222
f 223 224 226
f 220 225 227
f 220 230 224
f 220 227 228
f 224 230 226
f 220 228 229
f 220 229 230
f 226 230 231
f 87 173 120
f 120 173 234
f 118 228 227
f 118 229 228
f 119 120 229
f 120 234 229
f 173 192 234
f 192 196 235
f 192 235 234
f 230 232 231
f 230 233 232
f 229 234 230
f 230 236 233
f 234 235 237
f 230 234 236
f 234 237 236
f 141 150 143
f 141 142 150
f 142 144 150
f 144 145 150
f 145 146 150
f 146 151 150
f 150 151 207
f 150 207 208
f 147 150 226
f 147 226 148
f 148 226 149
f 149 226 163
f 163 226 164
f 162 164 226
f 162 226 165
f 166 226 177
f 177 226 178
f 178 226 179
f 179 226 180
f 181 226 182
f 180 226 181
f 182 226 183
f 183 226 184
f 184 226 185
f 165 226 166
f 185 233 186
f 186 233 187
f 187 233 188
f 188 233 189
f 189 233 190
f 190 233 191
f 191 233 193
f 150 208 209
f 150 209 210
f 150 210 213
f 150 213 217
f 150 217 218
f 150 218 219
f 150 219 221
f 150 221 222
f 150 222 223
f 150 223 226
f 185 226 231
f 185 231 232
f 185 232 233
f 193 233 194
f 194 233 195
f 195 233 196
f 196 233 235
f 233 236 235
f 235 236 237

