# https://github.com/mikedh/trimesh
v 0.03449990 -0.01360628 -0.10210031
v 0.03449990 -0.01359865 -0.10210065
v 0.03449990 -0.01334802 -0.10210124
v 0.03526437 -0.01302191 -0.10201802
v 0.03449990 -0.01485154 -0.09517496
v 0.03449990 -0.01597562 -0.08866647
v 0.03449990 -0.01648225 -0.08525574
v 0.03449990 -0.01574529 -0.09015376
v 0.03449990 -0.01571098 -0.09035335
v 0.03449990 -0.01589736 -0.08917284
v 0.03449990 -0.01685165 -0.08270181
v 0.03449990 -0.01700197 -0.07999918
v 0.03449990 -0.01702208 -0.07962617
v 0.03449990 -0.01697354 -0.07962355
v 0.03458482 -0.01697433 -0.07962617
v 0.03449990 -0.01652589 -0.07959991
v 0.03449990 -0.01572600 -0.07956718
v 0.03513535 -0.01649892 -0.08253311
v 0.03537620 -0.01651912 -0.07962617
v 0.03449990 -0.01483455 -0.07953938
v 0.03449990 -0.01405367 -0.07952055
v 0.03449990 -0.01369971 -0.07951799
v 0.03578049 -0.01557141 -0.08558961
v 0.03606436 -0.01522806 -0.08610827
v 0.03572028 -0.01580601 -0.08448715
v 0.03589232 -0.01573143 -0.08402155
v 0.03617618 -0.01554966 -0.08363074
v 0.03663209 -0.01517834 -0.08325441
v 0.03636543 -0.01562423 -0.08187452
v 0.03655467 -0.01564754 -0.07962617
v 0.03657187 -0.01464856 -0.08656904
v 0.03449990 -0.01222854 -0.10210368
v 0.03449990 -0.01195935 -0.10210416
v 0.03449990 -0.01180237 -0.10210440
v 0.03449990 -0.01156371 -0.10210204
v 0.03449990 -0.01150712 -0.10210141
v 0.03449990 -0.01128174 -0.10209708
v 0.03467944 -0.01150712 -0.10208557
v 0.03492890 -0.01127097 -0.10205903
v 0.03449990 -0.01009180 -0.10207240
v 0.03449990 -0.00997109 -0.10204887
v 0.03449990 -0.00941621 -0.10192490
v 0.03449990 -0.00940150 -0.10190887
v 0.03449990 -0.00938999 -0.10186357
v 0.03449990 -0.00910197 -0.10015434
v 0.03449990 -0.00864061 -0.09672202
v 0.03449990 -0.00845417 -0.09469752
v 0.03449990 -0.00845123 -0.09462330
v 0.03617618 -0.01210993 -0.10191670
v 0.03617618 -0.00986650 -0.10191911
v 0.03617618 -0.00982765 -0.10191911
v 0.03617618 -0.00951382 -0.10005674
v 0.03617618 -0.00950761 -0.09989994
v 0.03449990 -0.01262451 -0.07951799
v 0.03449990 -0.01079523 -0.08003310
v 0.03449990 -0.00837405 -0.08896172
v 0.03449990 -0.01017448 -0.08035069
v 0.03449990 -0.00951753 -0.08122550
v 0.03449990 -0.00837405 -0.08412591
v 0.03449990 -0.00837646 -0.08410308
v 0.03449990 -0.00854346 -0.08314958
v 0.03768153 -0.01327049 -0.08688265
v 0.03801701 -0.01281217 -0.08684405
v 0.03731165 -0.01451184 -0.08301076
v 0.03752670 -0.01459573 -0.08089750
v 0.03763852 -0.01460816 -0.07962617
v 0.03799981 -0.01365423 -0.08302041
v 0.03839550 -0.01365423 -0.07988188
v 0.03842130 -0.01365423 -0.07962617
v 0.03787938 -0.01204934 -0.09123220
v 0.03832668 -0.01141391 -0.09123220
v 0.03849012 -0.01111250 -0.09123220
v 0.03842130 -0.01227151 -0.08672343
v 0.03855033 -0.01209439 -0.08666795
v 0.03922989 -0.01111250 -0.08607450
v 0.03921268 -0.01111250 -0.08597318
f 1 4 5
f 1 2 4
f 2 3 4
f 4 23 5
f 4 49 31
f 4 24 23
f 4 31 24
f 6 18 7
f 8 9 23
f 5 23 9
f 8 25 10
f 6 10 25
f 6 25 18
f 8 23 25
f 7 18 11
f 11 18 12
f 12 15 13
f 13 15 14
f 14 15 16
f 12 18 15
f 16 19 17
f 15 19 16
f 15 18 19
f 18 25 26
f 17 19 30
f 17 30 20
f 20 66 21
f 24 31 28
f 18 26 29
f 18 30 19
f 25 27 26
f 23 27 25
f 23 24 27
f 26 27 29
f 18 29 30
f 20 30 66
f 27 28 29
f 24 28 27
f 28 65 29
f 29 66 30
f 31 49 64
f 21 69 22
f 22 69 54
f 28 31 64
f 21 66 69
f 3 32 39
f 32 33 38
f 33 34 38
f 34 35 38
f 32 38 39
f 3 39 4
f 35 36 38
f 36 37 38
f 37 39 38
f 37 40 39
f 4 39 49
f 40 41 51
f 41 42 51
f 42 43 51
f 43 44 51
f 44 45 52
f 45 46 52
f 46 47 52
f 39 40 51
f 44 52 51
f 47 53 52
f 47 48 53
f 39 50 49
f 39 51 50
f 48 75 53
f 54 69 55
f 55 69 57
f 57 69 58
f 48 56 75
f 56 59 75
f 58 76 61
f 59 60 76
f 60 61 76
f 49 63 62
f 29 65 66
f 49 67 64
f 49 62 67
f 62 63 67
f 28 64 65
f 64 67 65
f 65 67 68
f 65 69 66
f 63 73 67
f 65 68 69
f 67 74 68
f 68 75 69
f 49 50 72
f 49 70 63
f 49 71 70
f 49 72 71
f 51 75 72
f 50 51 72
f 51 52 75
f 52 53 75
f 58 69 76
f 59 76 75
f 63 70 73
f 70 71 73
f 71 74 73
f 67 73 74
f 71 72 75
f 71 75 74
f 68 74 75
f 69 75 76
f 1 5 2
f 2 5 3
f 3 5 32
f 5 33 32
f 5 34 33
f 5 35 34
f 5 9 47
f 11 12 16
f 12 13 14
f 12 14 16
f 11 16 17
f 7 11 54
f 11 17 20
f 11 20 21
f 11 21 22
f 8 56 9
f 8 10 56
f 6 59 10
f 6 7 59
f 11 22 54
f 7 54 55
f 5 36 35
f 5 37 36
f 5 40 37
f 5 41 40
f 5 42 41
f 5 43 42
f 5 44 43
f 5 45 44
f 5 46 45
f 5 47 46
f 9 48 47
f 9 56 48
f 10 59 56
f 7 55 57
f 7 57 58
f 7 60 59
f 7 61 60
f 7 58 61

