# https://github.com/mikedh/trimesh
v 0.01850010 -0.01697740 -0.10308291
v 0.01850010 -0.01702509 -0.10303680
v 0.01850010 -0.01691387 -0.10312917
v 0.01850010 -0.01661444 -0.10325028
v 0.01850010 -0.01655922 -0.10325764
v 0.01850010 -0.01649426 -0.10326198
v 0.01986683 -0.01649426 -0.10321939
v 0.01850010 -0.01823861 -0.09525838
v 0.01850010 -0.01844570 -0.09391335
v 0.01850010 -0.01865067 -0.09238102
v 0.01850010 -0.01866034 -0.09230148
v 0.01850010 -0.01539678 -0.10326239
v 0.01850010 -0.01881737 -0.09096790
v 0.01850010 -0.01886833 -0.09049625
v 0.01850010 -0.01891208 -0.09007754
v 0.01850010 -0.01901193 -0.08900188
v 0.01897222 -0.01885733 -0.09049883
v 0.01850010 -0.01913843 -0.08761128
v 0.01850010 -0.01965034 -0.08128831
v 0.01850010 -0.01966547 -0.08102219
v 0.01850010 -0.01966988 -0.08091661
v 0.01850010 -0.01971053 -0.07962376
v 0.01850010 -0.01970594 -0.07959919
v 0.01850010 -0.01970285 -0.07959567
v 0.01850010 -0.01963142 -0.07952204
v 0.01850010 -0.01953315 -0.07947137
v 0.01850010 -0.01947676 -0.07946311
v 0.01850010 -0.01768905 -0.07921450
v 0.01850010 -0.01740487 -0.07917525
v 0.01850010 -0.01721656 -0.07915899
v 0.01850010 -0.01692777 -0.07913544
v 0.01850010 -0.01682448 -0.07912986
v 0.01850010 -0.01664954 -0.07912063
v 0.01850010 -0.01633696 -0.07910783
v 0.01929910 -0.01961083 -0.08128831
v 0.01930770 -0.01961550 -0.08116528
v 0.01939372 -0.01965900 -0.07962376
v 0.01850010 -0.01598859 -0.07909697
v 0.01850010 -0.01568344 -0.07908961
v 0.01850010 -0.01388528 -0.07907661
v 0.02047757 -0.01880295 -0.09054708
v 0.01850010 -0.01150712 -0.10320202
v 0.01850010 -0.01110836 -0.10312460
v 0.01850010 -0.00744261 -0.10239979
v 0.01850010 -0.00677177 -0.10226668
v 0.01850010 -0.00548906 -0.10198007
v 0.01850010 -0.00533399 -0.10181116
v 0.01850010 -0.00521264 -0.10133345
v 0.01850010 -0.00517091 -0.10108583
v 0.01850010 -0.00499654 -0.09978857
v 0.01850010 -0.00496484 -0.09924728
v 0.01850010 -0.00494646 -0.09892996
v 0.01850010 -0.00494646 -0.09612081
v 0.01850010 -0.00494779 -0.09066361
v 0.01850010 -0.00495854 -0.09040704
v 0.01850010 -0.00499067 -0.09012347
v 0.01850010 -0.00842314 -0.07907661
v 0.01850010 -0.00658774 -0.07970042
v 0.01850010 -0.00663584 -0.07957991
v 0.02480010 -0.01657842 -0.10289480
v 0.02480010 -0.01656736 -0.10290285
v 0.02480010 -0.01649426 -0.10293243
v 0.02480010 -0.01665132 -0.10282433
v 0.02255065 -0.01868798 -0.09067735
v 0.02172486 -0.01944149 -0.08144753
v 0.02300655 -0.01937158 -0.07962376
v 0.02480010 -0.01850603 -0.09093599
v 0.02480010 -0.01850655 -0.09093259
v 0.02480010 -0.01850860 -0.09090594
v 0.02480010 -0.01850969 -0.09089172
v 0.02360009 -0.01918204 -0.08326165
v 0.02384094 -0.01929234 -0.08158262
v 0.02385815 -0.01929545 -0.08118458
v 0.02394417 -0.01930166 -0.07993013
v 0.02480010 -0.01919093 -0.08174068
v 0.02480010 -0.01919466 -0.08143757
v 0.02480010 -0.01920658 -0.08044958
v 0.02480010 -0.01921039 -0.07986423
v 0.02480010 -0.01921039 -0.07986999
v 0.02480010 -0.01920531 -0.07974105
v 0.02480010 -0.01919881 -0.07964742
v 0.02480010 -0.01919136 -0.07962464
v 0.02480010 -0.01909547 -0.07957520
v 0.02480010 -0.01899638 -0.07956068
v 0.02480010 -0.01827846 -0.07946085
v 0.02480010 -0.01781983 -0.07939751
v 0.02480010 -0.01751593 -0.07937126
v 0.02480010 -0.01704988 -0.07933325
v 0.02480010 -0.01688317 -0.07932426
v 0.02480010 -0.01660085 -0.07930935
v 0.02480010 -0.01609639 -0.07928870
v 0.02480010 -0.01553418 -0.07927117
v 0.02480010 -0.01504171 -0.07925929
v 0.02480010 -0.01381221 -0.07925040
v 0.02299795 -0.01073808 -0.10285512
v 0.02480010 -0.01214092 -0.10293511
v 0.02480010 -0.01150712 -0.10292527
v 0.02480010 -0.01128797 -0.10288272
v 0.02480010 -0.01073919 -0.10277577
v 0.02480010 -0.01033357 -0.10269528
v 0.02480010 -0.00703540 -0.10195834
v 0.02480010 -0.00693559 -0.10184964
v 0.02480010 -0.00685749 -0.10154219
v 0.02480010 -0.00671878 -0.10071905
v 0.02480010 -0.00613914 -0.09640670
v 0.02480010 -0.00612190 -0.09611227
v 0.02480010 -0.00605725 -0.09499665
v 0.02480010 -0.01007745 -0.07925040
v 0.02480010 -0.00605725 -0.09063708
v 0.02480010 -0.00605801 -0.08755202
v 0.02480010 -0.00609581 -0.08664993
v 0.02480010 -0.00620876 -0.08565298
v 0.02480010 -0.00703115 -0.08028576
v 0.02480010 -0.00711100 -0.08008575
f 3 4 7
f 4 5 7
f 5 6 7
f 6 12 7
f 11 17 13
f 9 41 10
f 10 41 11
f 8 64 9
f 7 12 42
f 1 63 2
f 1 3 60
f 3 7 61
f 2 67 8
f 9 64 41
f 7 42 96
f 13 17 14
f 14 17 15
f 17 16 15
f 16 41 18
f 17 41 16
f 11 41 17
f 41 35 18
f 18 35 19
f 19 35 20
f 20 36 21
f 21 37 22
f 23 37 24
f 22 37 23
f 24 37 25
f 20 35 36
f 21 36 37
f 25 66 26
f 41 64 35
f 35 65 36
f 36 65 37
f 25 37 66
f 26 83 27
f 27 85 28
f 28 86 29
f 29 87 30
f 30 88 31
f 31 89 32
f 32 90 33
f 33 91 34
f 34 91 38
f 35 64 65
f 38 92 39
f 39 93 40
f 42 43 95
f 43 44 95
f 44 45 95
f 45 46 100
f 46 47 102
f 47 48 103
f 48 49 103
f 49 50 104
f 50 51 105
f 51 52 106
f 52 53 107
f 53 54 109
f 40 108 57
f 54 55 110
f 55 56 111
f 56 58 112
f 57 114 59
f 58 59 114
f 1 60 63
f 3 61 60
f 7 62 61
f 2 63 67
f 8 67 64
f 7 96 62
f 65 64 71
f 37 65 72
f 37 72 73
f 37 74 66
f 26 66 83
f 37 73 74
f 27 83 84
f 27 84 85
f 28 85 86
f 65 71 72
f 29 86 87
f 30 87 88
f 31 88 89
f 32 89 90
f 33 90 91
f 38 91 92
f 39 92 93
f 40 93 94
f 40 94 108
f 64 69 71
f 64 67 68
f 64 68 69
f 71 69 70
f 71 70 72
f 66 74 81
f 72 70 75
f 72 76 73
f 73 77 74
f 66 81 82
f 66 82 83
f 72 75 76
f 73 76 77
f 74 77 79
f 74 79 78
f 74 78 80
f 74 80 81
f 42 95 97
f 45 100 95
f 42 97 96
f 46 101 100
f 46 102 101
f 47 103 102
f 49 104 103
f 50 105 104
f 51 106 105
f 52 107 106
f 53 109 107
f 95 98 97
f 95 99 98
f 95 100 99
f 54 110 109
f 55 111 110
f 56 112 111
f 57 108 114
f 58 114 113
f 58 113 112
f 1 2 8
f 1 8 3
f 3 8 4
f 4 8 5
f 5 8 6
f 6 8 12
f 8 42 12
f 8 43 42
f 13 14 53
f 14 15 53
f 15 16 53
f 8 9 53
f 9 10 53
f 10 11 53
f 11 13 53
f 16 18 53
f 18 19 53
f 19 20 53
f 20 21 53
f 21 22 53
f 23 24 53
f 22 23 53
f 24 25 53
f 25 26 53
f 26 27 53
f 27 28 56
f 28 29 56
f 29 30 56
f 30 31 56
f 31 32 56
f 32 33 56
f 33 34 56
f 34 38 56
f 8 44 43
f 8 45 44
f 8 46 45
f 8 47 46
f 8 48 47
f 8 49 48
f 8 50 49
f 8 51 50
f 8 52 51
f 8 53 52
f 27 54 53
f 27 55 54
f 27 56 55
f 38 39 56
f 39 40 56
f 40 57 56
f 57 59 58
f 56 57 58
f 60 96 63
f 60 61 96
f 61 62 96
f 63 96 67
f 97 67 96
f 97 98 67
f 67 98 99
f 67 99 100
f 70 88 75
f 85 77 76
f 85 79 77
f 83 81 80
f 84 80 78
f 83 82 81
f 83 80 84
f 85 78 79
f 84 78 85
f 88 76 75
f 85 76 86
f 86 76 87
f 87 76 88
f 70 89 88
f 70 90 89
f 70 91 90
f 70 92 91
f 70 93 92
f 68 109 69
f 67 109 68
f 69 109 70
f 70 94 93
f 70 108 94
f 67 100 101
f 67 101 102
f 67 102 103
f 67 103 104
f 67 104 105
f 67 105 106
f 67 106 107
f 67 107 109
f 70 112 108
f 70 109 110
f 70 110 111
f 70 111 112
f 114 108 112
f 114 112 113

