# https://github.com/mikedh/trimesh
v 0.02819990 -0.01642320 -0.10269514
v 0.02872687 -0.01634667 -0.10265248
v 0.02819990 -0.01735077 -0.09616911
v 0.02819990 -0.01800683 -0.09150216
v 0.02841720 -0.01797487 -0.09153858
v 0.02819990 -0.01555182 -0.10269210
v 0.02819990 -0.01464132 -0.10268752
v 0.02819990 -0.01389482 -0.10268318
v 0.02819990 -0.01372608 -0.10268153
v 0.02819990 -0.01354957 -0.10267978
v 0.03058490 -0.01582154 -0.10249085
v 0.03031824 -0.01749480 -0.09182083
v 0.02819990 -0.01825475 -0.08867434
v 0.02819990 -0.01861070 -0.08444456
v 0.02819990 -0.01878922 -0.08231049
v 0.02819990 -0.01879663 -0.08187244
v 0.02819990 -0.01880584 -0.08127005
v 0.02819990 -0.01882469 -0.07964552
v 0.02819990 -0.01882469 -0.07962617
v 0.02819990 -0.01873714 -0.07961334
v 0.02819990 -0.01859653 -0.07959379
v 0.02819990 -0.01804376 -0.07951745
v 0.02819990 -0.01767748 -0.07948581
v 0.02819990 -0.01711577 -0.07944000
v 0.02819990 -0.01691485 -0.07942915
v 0.02819990 -0.01657458 -0.07941119
v 0.02819990 -0.01596657 -0.07938631
v 0.02902794 -0.01867400 -0.07962617
v 0.02819990 -0.01528896 -0.07936518
v 0.02819990 -0.01469540 -0.07935087
v 0.02819990 -0.01377278 -0.07934419
v 0.03099779 -0.01824675 -0.08282742
v 0.03128166 -0.01824675 -0.07962617
v 0.02819990 -0.01150712 -0.10265717
v 0.02819990 -0.01143983 -0.10265588
v 0.02819990 -0.01108456 -0.10264851
v 0.02819990 -0.01051017 -0.10253657
v 0.02819990 -0.00786987 -0.10194662
v 0.02819990 -0.00779990 -0.10187040
v 0.02819990 -0.00774514 -0.10165483
v 0.02819990 -0.00755409 -0.10052111
v 0.02819990 -0.00675575 -0.09458167
v 0.02819990 -0.00674631 -0.09442047
v 0.02819990 -0.00665670 -0.09287404
v 0.02819990 -0.01097020 -0.07934419
v 0.02819990 -0.00665670 -0.08767777
v 0.02819990 -0.00665714 -0.08587286
v 0.02819990 -0.00670954 -0.08462240
v 0.02819990 -0.00686611 -0.08324046
v 0.02819990 -0.00727044 -0.08060164
v 0.02819990 -0.00736741 -0.08035872
v 0.02998276 -0.00750188 -0.08050187
v 0.03179778 -0.01696656 -0.09190767
v 0.03196982 -0.01698987 -0.09115742
v 0.03263217 -0.01487383 -0.10230027
v 0.03304506 -0.01638551 -0.09180153
v 0.03312248 -0.01644610 -0.09115742
v 0.03356118 -0.01432385 -0.10220136
v 0.03443858 -0.01364491 -0.10210728
v 0.03449990 -0.01359865 -0.10210065
v 0.03449990 -0.01360628 -0.10210031
v 0.03449990 -0.01334802 -0.10210124
v 0.03449990 -0.01485154 -0.09517496
v 0.03420633 -0.01573143 -0.09149998
v 0.03428375 -0.01573454 -0.09115742
v 0.03236551 -0.01787543 -0.07962617
v 0.03441278 -0.01590388 -0.08950734
v 0.03449990 -0.01589736 -0.08917284
v 0.03449990 -0.01597562 -0.08866647
v 0.03449990 -0.01648225 -0.08525574
v 0.03384505 -0.01721514 -0.08287567
v 0.03449990 -0.01685165 -0.08270181
v 0.03412891 -0.01723068 -0.07962617
v 0.03449990 -0.01700197 -0.07999918
v 0.03449990 -0.01702208 -0.07962617
v 0.03449990 -0.01697354 -0.07962355
v 0.03449990 -0.01652589 -0.07959991
v 0.03449990 -0.01571098 -0.09035335
v 0.03449990 -0.01574529 -0.09015376
v 0.03449990 -0.01572600 -0.07956718
v 0.03449990 -0.01483455 -0.07953938
v 0.03449990 -0.01405367 -0.07952055
v 0.03449990 -0.01369971 -0.07951799
v 0.03231389 -0.00750188 -0.09237327
v 0.03449990 -0.01222854 -0.10210368
v 0.03449990 -0.01195935 -0.10210416
v 0.03449990 -0.01180237 -0.10210440
v 0.03449990 -0.01156371 -0.10210204
v 0.03449990 -0.01150712 -0.10210141
v 0.03449990 -0.01128174 -0.10209708
v 0.03449990 -0.01009180 -0.10207240
v 0.03449990 -0.00997109 -0.10204887
v 0.03449990 -0.00941621 -0.10192490
v 0.03449990 -0.00940150 -0.10190887
v 0.03449990 -0.00938999 -0.10186357
v 0.03449990 -0.00910197 -0.10015434
v 0.03449990 -0.00864061 -0.09672202
v 0.03449990 -0.00845417 -0.09469752
v 0.03449990 -0.00845123 -0.09462330
v 0.03148810 -0.00750188 -0.08090715
v 0.03258916 -0.00750188 -0.08200479
v 0.03449990 -0.01262451 -0.07951799
v 0.03449990 -0.01079523 -0.08003310
v 0.03449990 -0.01017448 -0.08035069
v 0.03299345 -0.00750188 -0.08988126
v 0.03449990 -0.00837405 -0.08896172
v 0.03299345 -0.00750188 -0.08350530
v 0.03449990 -0.00837405 -0.08412591
v 0.03449990 -0.00837646 -0.08410308
v 0.03449990 -0.00854346 -0.08314958
v 0.03449990 -0.00951753 -0.08122550
f 2 3 1
f 2 1 6
f 5 4 3
f 2 5 3
f 2 12 5
f 2 6 7
f 2 7 8
f 2 8 11
f 11 8 9
f 55 9 10
f 2 11 12
f 12 11 53
f 11 9 55
f 5 13 4
f 5 32 13
f 32 14 13
f 28 17 16
f 28 18 17
f 28 19 18
f 28 20 19
f 28 21 20
f 28 22 21
f 32 15 14
f 32 16 15
f 33 23 22
f 28 16 33
f 28 33 22
f 66 24 23
f 5 12 32
f 12 54 32
f 32 33 16
f 73 25 24
f 77 26 25
f 80 27 26
f 33 66 23
f 80 29 27
f 81 30 29
f 83 31 30
f 84 42 43
f 84 43 44
f 88 10 34
f 89 34 35
f 90 35 36
f 91 36 37
f 92 37 38
f 94 38 39
f 95 39 40
f 95 40 41
f 96 41 42
f 84 44 105
f 52 51 45
f 52 50 51
f 101 48 49
f 100 49 50
f 102 45 31
f 52 45 102
f 105 44 46
f 107 46 47
f 107 47 48
f 52 100 50
f 107 48 101
f 100 101 49
f 53 11 55
f 12 53 54
f 53 55 56
f 53 57 54
f 53 56 57
f 55 10 88
f 56 64 57
f 55 58 64
f 55 87 58
f 55 88 87
f 58 59 61
f 58 62 59
f 59 60 61
f 59 62 60
f 58 61 63
f 58 85 62
f 58 86 85
f 56 55 64
f 58 65 64
f 58 63 65
f 63 78 65
f 54 71 32
f 32 66 33
f 66 73 24
f 32 71 66
f 73 76 25
f 76 77 25
f 77 80 26
f 80 81 29
f 81 82 30
f 82 83 30
f 83 102 31
f 54 57 71
f 57 64 67
f 57 67 69
f 57 69 70
f 64 65 67
f 65 79 67
f 79 68 67
f 69 67 68
f 57 70 71
f 66 71 73
f 70 72 71
f 71 72 74
f 71 74 73
f 73 74 75
f 73 75 76
f 65 78 79
f 88 34 89
f 89 35 90
f 90 36 91
f 91 37 92
f 92 38 93
f 93 38 94
f 94 39 95
f 95 41 96
f 96 42 84
f 58 87 86
f 84 105 98
f 96 84 97
f 84 98 97
f 98 105 99
f 99 105 106
f 105 46 107
f 52 103 100
f 100 111 101
f 52 102 103
f 105 107 106
f 106 107 108
f 100 104 111
f 100 103 104
f 107 101 110
f 111 110 101
f 107 109 108
f 107 110 109
f 60 63 61
f 60 62 63
f 62 85 63
f 63 85 86
f 63 86 87
f 63 98 78
f 74 76 75
f 72 77 74
f 74 77 76
f 72 80 77
f 72 81 80
f 78 106 79
f 79 106 68
f 69 108 70
f 69 68 108
f 70 102 72
f 72 82 81
f 72 83 82
f 72 102 83
f 70 103 102
f 63 87 88
f 63 88 89
f 63 89 90
f 63 90 91
f 63 91 92
f 63 92 93
f 63 93 94
f 63 94 95
f 63 95 96
f 63 96 97
f 63 97 98
f 78 98 99
f 78 99 106
f 68 106 108
f 70 111 104
f 70 110 111
f 70 104 103
f 70 108 109
f 70 109 110
f 3 6 1
f 3 7 6
f 3 8 7
f 3 9 8
f 3 10 9
f 3 34 10
f 3 35 34
f 3 36 35
f 3 37 36
f 3 4 42
f 17 24 16
f 20 17 18
f 20 21 17
f 22 17 21
f 20 18 19
f 17 22 23
f 17 23 24
f 16 24 25
f 25 26 16
f 26 27 16
f 4 13 46
f 13 14 46
f 14 15 49
f 16 49 15
f 16 27 49
f 3 38 37
f 3 39 38
f 3 40 39
f 3 41 40
f 3 42 41
f 4 43 42
f 4 44 43
f 4 46 44
f 14 47 46
f 29 49 27
f 30 49 29
f 49 30 31
f 14 48 47
f 14 49 48
f 31 45 49
f 45 50 49
f 45 51 50

