# https://github.com/mikedh/trimesh
v 0.02480010 -0.01665132 -0.10282433
v 0.02480010 -0.01657842 -0.10289480
v 0.02480010 -0.01656736 -0.10290285
v 0.02480010 -0.01649426 -0.10293243
v 0.02612907 -0.01649426 -0.10285512
v 0.02480010 -0.01850603 -0.09093599
v 0.02480010 -0.01850655 -0.09093259
v 0.02480436 -0.01850621 -0.09093307
v 0.02480010 -0.01850969 -0.09089172
v 0.02480010 -0.01850860 -0.09090594
v 0.02480010 -0.01919093 -0.08174068
v 0.02480010 -0.01919466 -0.08143757
v 0.02480010 -0.01920658 -0.08044958
v 0.02480010 -0.01921039 -0.07986423
v 0.02480010 -0.01921039 -0.07986999
v 0.02480010 -0.01920531 -0.07974105
v 0.02480010 -0.01919881 -0.07964742
v 0.02480010 -0.01919136 -0.07962464
v 0.02480010 -0.01909547 -0.07957520
v 0.02480010 -0.01899638 -0.07956068
v 0.02480010 -0.01827846 -0.07946085
v 0.02520006 -0.01916028 -0.07965270
v 0.02480010 -0.01781983 -0.07939751
v 0.02480010 -0.01751593 -0.07937126
v 0.02480010 -0.01704988 -0.07933325
v 0.02480010 -0.01688317 -0.07932426
v 0.02480010 -0.01660085 -0.07930935
v 0.02480010 -0.01609639 -0.07928870
v 0.02480010 -0.01553418 -0.07927117
v 0.02480010 -0.01504171 -0.07925929
v 0.02480010 -0.01214092 -0.10293511
v 0.02480010 -0.01150712 -0.10292527
v 0.02480010 -0.01128797 -0.10288272
v 0.02480010 -0.01073919 -0.10277577
v 0.02480010 -0.01033357 -0.10269528
v 0.02480010 -0.00949990 -0.10250901
v 0.02551833 -0.01150712 -0.10289372
v 0.02551833 -0.01073963 -0.10274415
v 0.02480010 -0.01381221 -0.07925040
v 0.02480010 -0.01007745 -0.07925040
v 0.02480010 -0.00949990 -0.07941304
v 0.02819990 -0.01800683 -0.09150216
v 0.02819990 -0.01735077 -0.09616911
v 0.02789248 -0.01646785 -0.10272003
v 0.02819990 -0.01642320 -0.10269514
v 0.02819990 -0.01555182 -0.10269210
v 0.02819990 -0.01464132 -0.10268752
v 0.02819990 -0.01825475 -0.08867434
v 0.02772044 -0.01888218 -0.08222191
v 0.02789248 -0.01865069 -0.08462224
v 0.02819990 -0.01861070 -0.08444456
v 0.02819990 -0.01878922 -0.08231049
v 0.02789248 -0.01888063 -0.07965270
v 0.02789248 -0.01888063 -0.07962617
v 0.02819990 -0.01879663 -0.08187244
v 0.02819990 -0.01880584 -0.08127005
v 0.02819990 -0.01882469 -0.07964552
v 0.02819990 -0.01882469 -0.07962617
v 0.02819990 -0.01873714 -0.07961334
v 0.02819990 -0.01859653 -0.07959379
v 0.02819990 -0.01804376 -0.07951745
v 0.02819990 -0.01767748 -0.07948581
v 0.02819990 -0.01711577 -0.07944000
v 0.02819990 -0.01691485 -0.07942915
v 0.02819990 -0.01657458 -0.07941119
v 0.02819990 -0.01596657 -0.07938631
v 0.02819990 -0.01528896 -0.07936518
v 0.02819990 -0.01469540 -0.07935087
v 0.02789248 -0.01364647 -0.10270797
v 0.02819990 -0.01389482 -0.10268318
v 0.02819990 -0.01372608 -0.10268153
v 0.02819990 -0.01354957 -0.10267978
v 0.02819990 -0.01150712 -0.10265717
v 0.02819990 -0.01143983 -0.10265588
v 0.02819990 -0.01108456 -0.10264851
v 0.02819990 -0.01051017 -0.10253657
v 0.02819990 -0.00949990 -0.10231083
v 0.02819990 -0.01377278 -0.07934419
v 0.02819990 -0.01097020 -0.07934419
v 0.02819990 -0.00949990 -0.07975822
f 1 8 6
f 1 2 5
f 2 3 5
f 3 4 5
f 4 31 5
f 1 44 8
f 1 5 44
f 6 8 7
f 7 8 10
f 8 9 10
f 14 22 16
f 16 22 17
f 17 22 18
f 8 49 9
f 9 49 11
f 11 49 12
f 12 49 13
f 13 53 15
f 14 15 53
f 18 54 19
f 19 54 20
f 14 54 22
f 18 22 54
f 20 60 21
f 21 61 23
f 23 62 24
f 24 63 25
f 25 64 26
f 26 65 27
f 27 66 28
f 28 66 29
f 29 67 30
f 30 68 39
f 5 31 37
f 31 32 37
f 32 33 37
f 33 34 38
f 34 35 38
f 33 38 37
f 35 36 77
f 37 38 75
f 35 77 38
f 39 79 40
f 40 79 41
f 8 44 43
f 8 43 42
f 5 37 44
f 37 46 44
f 44 45 43
f 44 46 45
f 46 69 47
f 8 50 49
f 8 42 48
f 8 48 50
f 13 49 53
f 14 53 54
f 20 54 59
f 20 59 60
f 21 60 61
f 23 61 62
f 24 62 63
f 25 63 64
f 26 64 65
f 27 65 66
f 29 66 67
f 30 67 68
f 48 51 50
f 49 50 51
f 49 51 52
f 49 56 53
f 49 52 55
f 49 55 56
f 53 57 54
f 53 56 57
f 54 57 58
f 54 58 59
f 37 69 46
f 37 73 69
f 37 74 73
f 37 75 74
f 38 76 75
f 38 77 76
f 47 69 70
f 69 71 70
f 69 72 71
f 69 73 72
f 39 68 78
f 39 78 79
f 79 80 41
f 1 31 2
f 2 31 3
f 3 31 4
f 1 6 35
f 7 10 36
f 6 7 36
f 10 9 36
f 9 11 25
f 14 16 20
f 16 17 19
f 16 19 20
f 17 18 19
f 12 13 21
f 13 15 21
f 14 21 15
f 14 20 21
f 11 12 25
f 12 21 23
f 12 23 24
f 9 25 26
f 9 26 27
f 9 27 28
f 12 24 25
f 9 28 29
f 9 29 30
f 9 30 39
f 1 32 31
f 1 33 32
f 1 34 33
f 1 35 34
f 6 36 35
f 9 39 36
f 39 40 36
f 40 41 36
f 45 46 43
f 43 46 47
f 43 47 70
f 43 70 71
f 43 71 72
f 56 59 57
f 56 60 59
f 57 59 58
f 56 55 64
f 56 61 60
f 56 62 61
f 56 63 62
f 56 64 63
f 55 65 64
f 55 66 65
f 42 43 80
f 42 80 48
f 51 80 52
f 52 80 55
f 48 80 51
f 55 80 66
f 43 72 73
f 43 73 74
f 43 74 75
f 43 75 76
f 43 76 80
f 76 77 80
f 66 80 67
f 67 80 68
f 68 80 78
f 78 80 79
f 36 41 80
f 36 80 77

