# https://github.com/mikedh/trimesh
v 0.03449990 0.01648803 -0.09306844
v 0.03449990 0.01648801 -0.09306831
v 0.03449990 0.01210511 -0.05789204
v 0.03449990 0.01116985 -0.05025513
v 0.03449990 0.01117120 -0.05026731
v 0.03449990 0.01117095 -0.05026525
v 0.03449990 0.01109196 -0.04945135
v 0.03449990 0.01115088 -0.05007565
v 0.03449990 0.01104585 -0.04874426
v 0.03449990 0.01104585 -0.03900558
v 0.03449990 0.01875966 -0.09425395
v 0.03449990 0.01892396 -0.09430833
v 0.03449990 0.01971822 -0.09430833
v 0.03449990 0.01978172 -0.09430822
v 0.03449990 0.01989166 -0.09418082
v 0.03449990 0.01993794 -0.09411996
v 0.03449990 0.01997044 -0.09407562
v 0.03449990 0.02008616 -0.09390603
v 0.03449990 0.02009709 -0.09388838
v 0.03449990 0.02028971 -0.09356777
v 0.03449990 0.02083348 -0.09251550
v 0.03449990 0.02086431 -0.09245180
v 0.03449990 0.02101836 -0.09204237
v 0.03449990 0.02101372 -0.09205515
v 0.03449990 0.02109923 -0.09179513
v 0.03449990 0.02111150 -0.09174099
v 0.03449990 0.02114622 -0.09130950
v 0.03449990 0.02114763 -0.09128383
v 0.03449990 0.02141429 -0.08627103
v 0.03449990 0.02146449 -0.08522816
v 0.03449990 0.02147631 -0.08496954
v 0.03449990 0.02148706 -0.08470376
v 0.03449990 0.02157048 -0.08260533
v 0.03449990 0.02158110 -0.08233321
v 0.03449990 0.02176122 -0.07769417
v 0.03449990 0.02177261 -0.07739796
v 0.03449990 0.02178411 -0.07707895
v 0.03449990 0.02179444 -0.07674256
v 0.03449990 0.02180246 -0.07642359
v 0.03449990 0.02180894 -0.07615440
v 0.03449990 0.02194146 -0.07054365
v 0.03449990 0.02194853 -0.07021777
v 0.03449990 0.02195267 -0.07002181
v 0.03449990 0.02195755 -0.06972424
v 0.03449990 0.02196080 -0.06952342
v 0.03449990 0.02196425 -0.06923772
v 0.03449990 0.02201753 -0.06372380
v 0.03449990 0.02201968 -0.06344394
v 0.03449990 0.02202033 -0.06317790
v 0.03449990 0.02202033 -0.06279325
v 0.03449990 0.02201996 -0.06254342
v 0.03449990 0.02201870 -0.06231281
v 0.03449990 0.02201289 -0.06177953
v 0.03449990 0.02196012 -0.05694362
v 0.03449990 0.02190464 -0.05196231
v 0.03449990 0.02189533 -0.05136864
v 0.03449990 0.02189513 -0.05135846
v 0.03449990 0.02188134 -0.05099252
v 0.03449990 0.02170344 -0.04634875
v 0.03449990 0.02132838 -0.03900558
v 0.03449990 0.02162903 -0.04458794
v 0.03449990 0.02153834 -0.04286468
v 0.03449990 0.02143602 -0.04092574
v 0.03449990 0.02140133 -0.04030598
v 0.03502801 0.01650059 -0.09299266
v 0.03502558 0.01200398 -0.05690456
v 0.03502558 0.01104585 -0.04908212
v 0.03502558 0.01104585 -0.03900558
v 0.03502801 0.01650059 -0.05694362
v 0.03483119 0.01999219 -0.09401928
v 0.03502801 0.01883128 -0.09420899
v 0.03502801 0.01899985 -0.09426478
v 0.03489923 0.02136475 -0.08534319
v 0.03502801 0.01981476 -0.09426478
v 0.03502801 0.02013414 -0.09375705
v 0.03502801 0.02071079 -0.09264115
v 0.03502801 0.02087682 -0.09220037
v 0.03502801 0.02096807 -0.09192140
v 0.03502801 0.02118478 -0.08797670
v 0.03502801 0.02132166 -0.08544920
v 0.03502801 0.02142178 -0.08312255
v 0.03502801 0.02164231 -0.07744264
v 0.03502801 0.02165625 -0.07707997
v 0.03502801 0.02181847 -0.07021163
v 0.03502801 0.02182354 -0.06997171
v 0.03502801 0.02182734 -0.06973737
v 0.03488465 0.02186156 -0.05694362
v 0.03502801 0.02188944 -0.06330981
v 0.03502801 0.02188944 -0.06286345
v 0.03502801 0.02184382 -0.05880158
v 0.03502801 0.02181467 -0.05694362
v 0.03502558 0.02172849 -0.05129160
v 0.03502558 0.02172595 -0.05116327
v 0.03502558 0.02155232 -0.04655462
v 0.03502558 0.02128237 -0.04085797
v 0.03502558 0.02117845 -0.03900558
v 0.03502558 0.02143065 -0.04367560
f 2 65 3
f 1 65 2
f 3 66 5
f 5 67 6
f 4 6 67
f 4 67 8
f 7 8 67
f 7 67 9
f 9 68 10
f 17 18 70
f 18 19 70
f 1 11 65
f 11 12 71
f 12 13 72
f 13 14 74
f 14 15 74
f 15 16 74
f 16 17 74
f 19 20 75
f 20 21 76
f 28 29 73
f 21 22 76
f 22 24 77
f 23 77 24
f 23 25 78
f 25 26 78
f 26 27 78
f 27 28 78
f 29 30 73
f 30 31 73
f 31 32 73
f 32 33 81
f 33 34 81
f 34 35 82
f 35 36 82
f 36 37 83
f 37 38 83
f 38 39 83
f 39 40 83
f 40 41 84
f 41 42 84
f 42 43 84
f 43 44 85
f 44 45 86
f 45 46 86
f 53 54 87
f 54 55 87
f 10 96 60
f 46 47 88
f 47 48 88
f 48 49 88
f 49 50 89
f 50 51 89
f 51 52 89
f 52 53 89
f 55 56 92
f 56 57 92
f 57 58 93
f 58 59 94
f 60 96 64
f 59 61 94
f 61 62 97
f 62 63 95
f 63 64 95
f 3 65 66
f 5 66 67
f 9 67 68
f 10 68 96
f 65 67 66
f 67 69 68
f 65 69 67
f 68 69 91
f 11 71 65
f 12 72 71
f 17 70 74
f 19 75 70
f 28 73 78
f 32 81 73
f 13 74 72
f 20 76 75
f 22 77 76
f 23 78 77
f 34 82 81
f 36 83 82
f 40 84 83
f 43 85 84
f 44 86 85
f 46 88 86
f 65 71 91
f 65 91 69
f 70 75 74
f 71 72 91
f 72 74 91
f 74 75 91
f 73 79 78
f 73 80 79
f 73 81 80
f 75 76 91
f 76 77 91
f 77 78 91
f 78 79 91
f 79 80 91
f 80 81 91
f 81 82 91
f 82 83 91
f 83 84 91
f 53 87 89
f 55 92 87
f 49 89 88
f 57 93 92
f 58 94 93
f 64 96 95
f 61 97 94
f 62 95 97
f 68 91 96
f 84 85 91
f 85 86 91
f 86 88 91
f 88 89 91
f 87 90 89
f 87 92 90
f 89 90 91
f 90 92 91
f 91 92 93
f 91 93 94
f 91 94 97
f 91 97 95
f 91 95 96
f 3 5 55
f 4 58 6
f 5 6 58
f 4 8 58
f 7 58 8
f 7 9 58
f 9 10 64
f 1 2 11
f 2 21 11
f 2 3 29
f 3 30 29
f 3 31 30
f 3 32 31
f 3 33 32
f 3 34 33
f 3 35 34
f 3 36 35
f 3 37 36
f 3 38 37
f 3 39 38
f 3 40 39
f 3 41 40
f 2 22 21
f 11 21 12
f 2 24 22
f 2 23 24
f 2 25 23
f 2 26 25
f 2 27 26
f 2 28 27
f 13 15 14
f 13 16 15
f 13 17 16
f 12 21 13
f 13 18 17
f 2 29 28
f 13 19 18
f 13 20 19
f 13 21 20
f 3 42 41
f 3 43 42
f 3 44 43
f 3 45 44
f 3 46 45
f 3 47 46
f 3 48 47
f 3 49 48
f 3 50 49
f 3 51 50
f 3 52 51
f 3 53 52
f 3 54 53
f 3 55 54
f 5 56 55
f 5 57 56
f 5 58 57
f 9 59 58
f 9 61 59
f 9 62 61
f 9 63 62
f 9 64 63
f 10 60 64

