# https://github.com/mikedh/trimesh
v 0.02480010 0.01649990 -0.09458686
v 0.02480010 0.01744430 -0.09507972
v 0.02480010 0.01753014 -0.09510813
v 0.02480010 0.01794513 -0.09510813
v 0.02480010 0.01917483 -0.09510615
v 0.02480010 0.01649990 -0.03900558
v 0.02480010 0.02130404 -0.09263891
v 0.02480010 0.02220040 -0.09146018
v 0.02480010 0.02282987 -0.09060144
v 0.02480010 0.02283757 -0.09059014
v 0.02480010 0.02296243 -0.09038852
v 0.02480010 0.02317388 -0.08584916
v 0.02480010 0.02331509 -0.08278728
v 0.02542990 0.02330129 -0.08175000
v 0.02480010 0.02339758 -0.08060437
v 0.02480010 0.02352506 -0.07643065
v 0.02480010 0.02360066 -0.07393455
v 0.02480010 0.02366171 -0.07120976
v 0.02480010 0.02370352 -0.06864207
v 0.02576523 0.02286278 -0.09043726
v 0.02569476 0.02355603 -0.07256617
v 0.02480010 0.02375133 -0.06566762
v 0.02480010 0.02377446 -0.06331731
v 0.02480010 0.02378724 -0.05978361
v 0.02480010 0.02379361 -0.05792818
v 0.02480010 0.02379000 -0.05655809
v 0.02535458 0.02374487 -0.05717238
v 0.02480010 0.02374702 -0.05151173
v 0.02480010 0.02373611 -0.05049570
v 0.02480010 0.02373763 -0.05059830
v 0.02480010 0.02373365 -0.05035567
v 0.02480010 0.02370702 -0.04886948
v 0.02480010 0.02369760 -0.04840707
v 0.02480010 0.02367404 -0.04726459
v 0.02480010 0.02361754 -0.04558434
v 0.02480010 0.02339419 -0.03901013
v 0.02480010 0.02339396 -0.03900558
v 0.02480010 0.02339667 -0.03907547
v 0.02480010 0.02339507 -0.03903122
v 0.02559757 0.02358391 -0.04723532
v 0.02567046 0.02368910 -0.06443128
v 0.02585270 0.02358771 -0.04883105
v 0.02608112 0.02359025 -0.05044910
v 0.02628280 0.02359152 -0.05207831
v 0.02819990 0.01649990 -0.09405682
v 0.02819990 0.01790534 -0.09479028
v 0.02819990 0.01801868 -0.09482780
v 0.02819990 0.01856660 -0.09482780
v 0.02819990 0.01938754 -0.09482648
v 0.02819990 0.01649990 -0.03900558
v 0.02677850 0.02282856 -0.08870204
v 0.02685625 0.02282476 -0.08857371
v 0.02670803 0.02305415 -0.08420497
v 0.02692915 0.02322018 -0.07934524
v 0.02706765 0.02334438 -0.07475333
v 0.02712597 0.02343690 -0.07041249
v 0.02819990 0.02080900 -0.09317935
v 0.02819990 0.02140740 -0.09239244
v 0.02819990 0.02182763 -0.09181915
v 0.02819990 0.02187320 -0.09175237
v 0.02819990 0.02209188 -0.09139922
v 0.02819990 0.02214557 -0.09130985
v 0.02819990 0.02229714 -0.09101654
v 0.02819990 0.02248516 -0.09062804
v 0.02819990 0.02259010 -0.08909222
v 0.02819990 0.02261539 -0.08871723
v 0.02819990 0.02261799 -0.08867443
v 0.02794485 0.02276393 -0.08673806
v 0.02819990 0.02269513 -0.08728815
v 0.02819990 0.02272240 -0.08673599
v 0.02819990 0.02274190 -0.08631592
v 0.02819990 0.02292722 -0.08175275
v 0.02819990 0.02310646 -0.07733801
v 0.02819990 0.02312837 -0.07663645
v 0.02819990 0.02314575 -0.07589233
v 0.02819990 0.02330964 -0.06881664
v 0.02819990 0.02332464 -0.06784729
v 0.02661813 0.02358771 -0.05541484
v 0.02686355 0.02357377 -0.05888528
v 0.02711382 0.02350153 -0.06634505
v 0.02702635 0.02354716 -0.06251194
v 0.02696803 0.02339381 -0.04716836
v 0.02722560 0.02339507 -0.04876409
v 0.02819990 0.02338046 -0.06133294
v 0.02819990 0.02338461 -0.06084380
v 0.02819990 0.02338502 -0.06044707
v 0.02784522 0.02339381 -0.05366846
v 0.02819990 0.02333400 -0.05364832
v 0.02819990 0.02337256 -0.05852763
v 0.02819990 0.02333916 -0.05404028
v 0.02745644 0.02339634 -0.05038215
v 0.02766298 0.02339634 -0.05201135
v 0.02796672 0.02288052 -0.03900558
v 0.02819990 0.02282772 -0.03900558
v 0.02819990 0.02283512 -0.03911070
v 0.02819990 0.02331552 -0.05255566
v 0.02819990 0.02330531 -0.05198069
v 0.02819990 0.02329030 -0.05121695
v 0.02819990 0.02327168 -0.05033363
v 0.02819990 0.02324637 -0.04926595
v 0.02819990 0.02323260 -0.04870051
v 0.02819990 0.02319492 -0.04728082
v 0.02819990 0.02318953 -0.04708295
v 0.02819990 0.02302394 -0.04293805
v 0.02819990 0.02295455 -0.04127398
v 0.02819990 0.02288838 -0.03993188
f 1 2 45
f 2 3 46
f 3 4 47
f 4 5 48
f 5 7 49
f 10 11 20
f 11 12 20
f 12 13 14
f 13 15 14
f 12 14 20
f 14 15 16
f 16 17 21
f 17 18 21
f 18 19 21
f 14 16 21
f 19 41 21
f 7 8 57
f 8 9 58
f 9 10 60
f 14 53 20
f 10 20 60
f 20 53 51
f 14 54 53
f 14 21 54
f 21 41 56
f 19 22 41
f 22 23 41
f 23 24 41
f 24 25 27
f 25 26 27
f 26 28 27
f 24 27 41
f 27 28 44
f 33 34 40
f 34 35 40
f 31 32 42
f 32 33 42
f 35 38 40
f 38 39 40
f 28 30 44
f 29 43 30
f 29 31 43
f 33 40 42
f 31 42 43
f 6 93 37
f 27 81 41
f 27 78 79
f 27 44 78
f 27 79 81
f 30 43 44
f 36 37 93
f 39 82 40
f 36 105 39
f 40 82 42
f 42 83 43
f 2 46 45
f 3 47 46
f 4 48 47
f 5 49 48
f 6 50 94
f 7 57 49
f 8 58 57
f 20 51 65
f 51 53 52
f 9 59 58
f 9 60 59
f 51 52 66
f 52 53 68
f 53 54 68
f 21 55 54
f 21 56 55
f 41 80 56
f 20 61 60
f 20 62 61
f 20 63 62
f 20 64 63
f 20 65 64
f 51 66 65
f 52 67 66
f 52 69 67
f 52 68 69
f 54 72 68
f 68 70 69
f 68 71 70
f 68 72 71
f 54 55 73
f 55 56 75
f 56 80 76
f 54 73 72
f 55 74 73
f 55 75 74
f 56 76 75
f 76 80 77
f 6 94 93
f 41 81 80
f 44 87 78
f 78 87 79
f 43 91 44
f 42 82 83
f 43 83 91
f 39 104 82
f 44 91 92
f 44 92 87
f 36 93 105
f 39 105 104
f 80 81 84
f 79 85 81
f 79 86 85
f 79 87 89
f 79 89 86
f 77 80 84
f 81 85 84
f 87 90 89
f 87 88 90
f 87 96 88
f 82 102 83
f 91 98 92
f 83 100 91
f 93 94 95
f 93 95 106
f 91 99 98
f 91 100 99
f 83 101 100
f 83 102 101
f 82 103 102
f 87 92 96
f 92 98 97
f 92 97 96
f 82 104 103
f 93 106 105
f 1 50 6
f 1 45 50
f 1 7 2
f 2 7 3
f 3 7 4
f 4 7 5
f 1 8 7
f 1 6 34
f 1 12 8
f 1 13 12
f 1 15 13
f 1 16 15
f 1 17 16
f 1 18 17
f 1 19 18
f 1 22 19
f 1 23 22
f 1 24 23
f 1 25 24
f 1 26 25
f 1 28 26
f 8 12 9
f 9 12 10
f 10 12 11
f 1 30 28
f 1 29 30
f 1 31 29
f 1 32 31
f 1 33 32
f 1 34 33
f 6 35 34
f 6 38 35
f 6 37 36
f 6 36 39
f 6 39 38
f 45 46 50
f 46 47 50
f 47 48 50
f 48 49 50
f 49 57 50
f 50 57 58
f 50 58 59
f 50 59 60
f 50 60 61
f 50 61 62
f 50 62 63
f 50 63 64
f 50 64 65
f 50 65 66
f 50 66 67
f 50 67 69
f 50 69 70
f 50 70 71
f 50 71 72
f 50 72 73
f 50 73 74
f 50 74 75
f 50 75 76
f 50 76 77
f 50 77 84
f 50 97 98
f 50 98 99
f 50 99 100
f 50 100 101
f 50 101 102
f 50 102 103
f 50 103 94
f 50 84 97
f 86 96 97
f 84 85 97
f 85 86 97
f 86 89 96
f 88 89 90
f 88 96 89
f 94 106 95
f 94 103 104
f 94 104 105
f 94 105 106

