# https://github.com/mikedh/trimesh
v 0.02819990 0.01164461 -0.05387641
v 0.02819990 0.01192995 -0.05690010
v 0.03088906 0.01187231 -0.05690010
v 0.02819990 0.01104585 -0.04469521
v 0.02819990 0.01104585 -0.03900558
v 0.02819990 0.01649990 -0.05690010
v 0.02819990 0.01649990 -0.03900558
v 0.03152199 0.01187231 -0.05690010
v 0.03155194 0.01187250 -0.05690010
v 0.03155800 0.01187270 -0.05690010
v 0.03449990 0.01198361 -0.05690010
v 0.03449990 0.01117120 -0.05026731
v 0.03449990 0.01117095 -0.05026525
v 0.03449990 0.01116985 -0.05025513
v 0.03449990 0.01115088 -0.05007565
v 0.03449990 0.01109196 -0.04945135
v 0.03449990 0.01104585 -0.04874426
v 0.03449990 0.01104585 -0.03900558
v 0.03449990 0.01649990 -0.05690010
v 0.03449990 0.01649990 -0.03900558
f 15 1 2
f 3 15 2
f 17 4 1
f 18 5 4
f 20 7 5
f 3 8 14
f 8 9 13
f 9 10 12
f 15 16 1
f 16 17 1
f 10 11 12
f 8 13 14
f 9 12 13
f 3 14 15
f 17 18 4
f 18 20 5
f 11 19 12
f 15 20 16
f 16 20 17
f 14 20 15
f 13 20 14
f 12 20 13
f 17 20 18
f 12 19 20
f 19 6 7
f 19 7 20
f 3 2 6
f 3 6 8
f 8 6 9
f 9 6 10
f 10 19 11
f 10 6 19
f 7 2 1
f 1 4 7
f 4 5 7
f 6 2 7

