# https://github.com/mikedh/trimesh
v 0.02480010 0.01200284 -0.05690010
v 0.02480010 0.01194284 -0.05626440
v 0.02480010 0.01104585 -0.04251014
v 0.02480010 0.01104585 -0.03900558
v 0.02480010 0.01649990 -0.05690010
v 0.02480010 0.01649990 -0.03900558
v 0.02819990 0.01164461 -0.05387641
v 0.02819990 0.01192995 -0.05690010
v 0.02819990 0.01104585 -0.04469521
v 0.02819990 0.01104585 -0.03900558
v 0.02819990 0.01649990 -0.05690010
v 0.02819990 0.01649990 -0.03900558
f 1 7 2
f 2 9 3
f 3 10 4
f 4 12 6
f 1 8 7
f 2 7 9
f 3 9 10
f 4 10 12
f 1 5 8
f 5 11 8
f 1 2 6
f 2 3 6
f 3 4 6
f 1 6 5
f 7 8 11
f 7 11 9
f 9 11 10
f 10 11 12
f 5 6 11
f 6 12 11

