# https://github.com/mikedh/trimesh
v -0.00074356 -0.02369278 -0.01299300
v 0.00000241 -0.02376374 -0.01299300
v 0.00016622 -0.02376130 -0.01299300
v 0.00133306 -0.02372459 -0.01299300
v 0.00148427 -0.02371725 -0.01299300
v -0.00074356 -0.01894833 -0.01299300
v 0.00000241 -0.02464461 -0.00799861
v -0.00074356 -0.02464950 -0.00789889
v 0.00077863 -0.02464950 -0.00789749
v 0.00151200 -0.02467153 -0.00758850
v 0.00212440 -0.02471068 -0.00712221
v 0.00510828 -0.02317405 -0.01299019
v 0.00568792 -0.02307373 -0.01299019
v 0.00753016 -0.02253297 -0.01299019
v 0.00260071 -0.02477429 -0.00650142
v 0.00276452 -0.02481344 -0.00617557
v 0.00288549 -0.02483057 -0.00582726
v 0.00300394 -0.02481589 -0.00500141
v 0.00295101 -0.02482323 -0.00459270
v 0.00392128 -0.02464950 -0.00525563
v 0.00290061 -0.02482813 -0.00422473
v -0.00074356 -0.02498717 -0.00210253
v -0.00074356 -0.02498717 -0.00203231
v 0.00000241 -0.02499696 -0.00200141
v 0.00078115 -0.02498473 -0.00210394
v 0.00148175 -0.02495536 -0.00239467
v -0.00074356 -0.02497494 -0.00130057
v -0.00074356 -0.02490642 -0.00020225
v -0.00074356 -0.02470823 0.00000000
v 0.00000241 -0.02499696 -0.00020225
v 0.00000241 -0.02479876 0.00000000
v 0.00148175 -0.02481834 -0.00020225
v -0.00074356 -0.01914897 0.00000000
v -0.00074356 -0.01894833 -0.00020225
v 0.00212440 -0.02490642 -0.00288062
v 0.00260071 -0.02486238 -0.00350281
v 0.00295101 -0.02477185 -0.00230759
v 0.00597521 -0.02424088 -0.00617557
v 0.00598278 -0.02427024 -0.00582726
v 0.00885325 -0.02334288 -0.00617557
v 0.00886333 -0.02337225 -0.00582726
v 0.00857099 -0.02346523 -0.00525563
v 0.00598278 -0.02427024 -0.00020225
v 0.00593489 -0.02407694 0.00000000
v 0.01020658 -0.02139518 -0.01299019
v 0.01106344 -0.02106486 -0.01282727
v 0.01145154 -0.02083730 -0.01282727
v 0.01331395 -0.01967505 -0.01282727
v 0.01597273 -0.01896790 -0.00712080
v 0.01577867 -0.01781054 -0.01282727
v 0.01590468 -0.01769309 -0.01282727
v 0.01721517 -0.01641828 -0.01282727
v 0.01734622 -0.01628370 -0.01282727
v 0.01850010 -0.01486581 -0.01282559
v 0.01850010 -0.01292928 -0.01338256
v 0.01850010 -0.01285825 -0.01339938
v 0.01850010 -0.01391406 -0.01313693
v 0.01850010 -0.01380932 -0.01316431
v 0.01850010 -0.01588920 -0.00935328
v 0.01639107 -0.01849566 -0.00760114
v 0.01688503 -0.01797693 -0.00789468
v 0.01742687 -0.01742394 -0.00799580
v 0.01790318 -0.01680733 -0.00849299
v 0.01850010 -0.01605790 -0.00877848
v 0.01790318 -0.01695659 -0.00791153
v 0.01850010 -0.01638431 -0.00760114
v 0.01850010 -0.01637868 -0.00762269
v 0.01850010 -0.01638297 -0.00760635
v 0.01850010 -0.01644559 -0.00726351
v 0.01850010 -0.01647435 -0.00705466
v 0.01020658 -0.02273851 -0.00617557
v 0.01020910 -0.02277032 -0.00582726
v 0.00914307 -0.02324745 -0.00525563
v 0.01160779 -0.02210722 -0.00617417
v 0.01162039 -0.02213169 -0.00582726
v 0.01020910 -0.02277032 -0.00308989
v 0.01020406 -0.02267000 -0.00020225
v 0.01152967 -0.02195552 0.00000000
v 0.01162039 -0.02213169 -0.00020365
v 0.01369449 -0.02087401 -0.00617417
v 0.01371213 -0.02089602 -0.00582726
v 0.01568039 -0.01935206 -0.00650282
v 0.01559470 -0.01949642 -0.00617417
v 0.01552666 -0.01958451 -0.00587080
v 0.01551658 -0.01959430 -0.00582726
v 0.01542585 -0.01966770 -0.00500422
v 0.01552666 -0.01958696 -0.00416433
v 0.01574339 -0.01941568 -0.00350281
v 0.01552666 -0.01943525 -0.00020365
v 0.01611134 -0.01910982 -0.00288343
v 0.01850010 -0.01659000 -0.00617626
v 0.01850010 -0.01659504 -0.00609987
v 0.01850010 -0.01673368 -0.00388730
v 0.01850010 -0.01674830 -0.00364115
v 0.01658513 -0.01870120 -0.00240450
v 0.01711688 -0.01821427 -0.00210394
v 0.01767636 -0.01767596 -0.00200281
v 0.01790318 -0.01744106 -0.00204354
v 0.01850010 -0.01676161 -0.00337519
v 0.01850010 -0.01678410 -0.00286394
v 0.01850010 -0.01680459 -0.00227724
v 0.01821820 -0.01711074 -0.00210394
v 0.01850010 -0.01676210 -0.00187627
v 0.01644400 -0.01855928 0.00000000
v 0.01657757 -0.01870854 -0.00020365
v 0.01850010 -0.01653829 -0.00020230
v 0.01850010 -0.01638760 -0.00009997
v 0.01850010 -0.01623811 0.00000000
v 0.01850010 -0.01054792 -0.01386966
v 0.01850010 -0.00985912 -0.01395240
v 0.01850010 -0.00944549 -0.01399450
v 0.01850010 -0.00931535 -0.01400596
v 0.01850010 -0.00864293 -0.01406418
v 0.01850010 -0.00861657 -0.01406616
v 0.01850010 -0.00842095 -0.01408057
v 0.01850010 -0.00839454 -0.01408248
v 0.01850010 -0.00826329 -0.01409082
v 0.01850010 -0.00736184 -0.01409082
v 0.01850010 -0.00482103 -0.01409036
v 0.01850010 -0.00043011 -0.01298060
v 0.01850010 -0.00043011 -0.01273878
v 0.01850010 -0.00055067 -0.00652964
v 0.01850010 -0.00341253 0.00000000
v 0.01850010 -0.00340983 -0.00000272
v 0.01850010 -0.00324755 -0.00020084
f 1 2 8
f 2 3 7
f 1 8 6
f 3 4 9
f 4 5 10
f 5 12 16
f 2 7 8
f 3 9 7
f 4 10 9
f 6 8 22
f 7 16 8
f 7 9 16
f 5 11 10
f 5 15 11
f 5 16 15
f 9 10 16
f 12 13 16
f 13 14 38
f 13 38 16
f 14 40 38
f 1 117 2
f 2 116 3
f 1 6 117
f 3 115 4
f 4 114 5
f 5 113 12
f 6 34 121
f 8 16 22
f 6 22 23
f 6 23 27
f 6 27 28
f 6 28 29
f 6 29 33
f 6 33 34
f 10 11 16
f 11 15 16
f 17 20 18
f 16 38 17
f 16 17 24
f 17 19 36
f 17 35 26
f 17 36 35
f 19 21 36
f 17 18 19
f 22 24 23
f 16 24 22
f 17 25 24
f 23 24 30
f 23 30 27
f 24 25 30
f 27 30 28
f 28 30 29
f 29 30 31
f 25 26 30
f 26 32 30
f 30 32 31
f 17 26 25
f 35 36 37
f 26 35 37
f 18 43 19
f 19 43 21
f 21 43 36
f 36 43 37
f 26 37 32
f 31 32 44
f 32 37 43
f 17 39 20
f 17 38 39
f 20 39 43
f 38 41 39
f 38 40 41
f 39 41 42
f 41 73 42
f 39 42 43
f 18 20 43
f 32 43 44
f 42 76 43
f 43 77 44
f 43 76 77
f 29 31 123
f 29 123 33
f 33 123 34
f 31 44 123
f 14 46 40
f 14 45 46
f 45 47 46
f 45 48 47
f 45 50 48
f 46 47 74
f 47 48 80
f 40 46 71
f 46 74 71
f 47 80 74
f 12 112 13
f 13 111 14
f 14 110 45
f 3 116 115
f 2 117 116
f 4 115 114
f 5 114 113
f 48 50 83
f 48 83 80
f 50 82 83
f 45 109 50
f 13 112 111
f 12 113 112
f 14 111 110
f 45 110 109
f 50 56 51
f 50 51 61
f 51 52 61
f 52 53 65
f 51 55 52
f 52 58 53
f 51 56 55
f 53 57 54
f 53 58 57
f 52 55 58
f 50 109 56
f 53 54 59
f 49 82 50
f 49 50 60
f 50 61 60
f 52 62 61
f 53 63 65
f 53 59 64
f 53 64 67
f 52 65 62
f 53 67 63
f 60 61 83
f 61 62 83
f 63 68 65
f 62 65 70
f 65 68 66
f 65 66 69
f 62 70 91
f 65 69 70
f 63 67 68
f 40 71 41
f 41 72 73
f 41 71 72
f 71 74 72
f 72 74 75
f 42 73 76
f 72 76 73
f 72 75 76
f 74 81 75
f 74 80 81
f 75 81 79
f 75 79 76
f 44 77 78
f 76 79 77
f 77 79 78
f 78 79 89
f 44 78 123
f 80 84 81
f 81 85 86
f 49 60 83
f 49 83 82
f 81 84 85
f 80 83 84
f 81 86 87
f 81 87 88
f 85 88 86
f 84 95 85
f 86 88 87
f 85 90 88
f 85 95 90
f 79 81 88
f 79 88 89
f 78 89 104
f 88 105 89
f 88 90 105
f 89 105 104
f 62 91 83
f 83 92 84
f 83 91 92
f 84 92 97
f 92 93 97
f 78 104 123
f 84 96 95
f 84 97 96
f 90 95 105
f 93 94 97
f 94 99 98
f 98 99 100
f 94 98 97
f 98 100 102
f 100 101 102
f 101 103 102
f 95 96 105
f 96 97 105
f 104 105 106
f 97 98 105
f 98 102 105
f 102 106 105
f 102 103 106
f 104 106 107
f 104 107 108
f 104 108 123
f 6 118 117
f 6 119 118
f 6 120 119
f 6 121 120
f 34 122 121
f 34 125 122
f 34 124 125
f 34 123 124
f 103 107 106
f 103 108 107
f 55 122 58
f 55 56 122
f 109 110 122
f 110 111 122
f 56 109 122
f 54 123 59
f 54 57 123
f 57 58 123
f 111 112 122
f 112 113 122
f 113 114 122
f 114 115 122
f 115 116 122
f 116 117 122
f 117 118 122
f 118 119 122
f 119 120 121
f 119 121 122
f 64 123 67
f 59 123 64
f 67 123 68
f 66 68 123
f 66 123 69
f 69 123 70
f 70 123 91
f 91 123 92
f 58 125 124
f 58 124 123
f 92 123 93
f 93 123 94
f 94 123 99
f 99 123 100
f 100 123 101
f 101 123 103
f 103 123 108
f 58 122 125

