# https://github.com/mikedh/trimesh
v 0.01850010 -0.00349990 -0.01375646
v 0.02029969 -0.00349990 -0.01419298
v 0.01850010 -0.00349990 0.00000000
v 0.01850010 -0.00341253 0.00000000
v 0.01850010 -0.00340983 -0.00000272
v 0.01850010 -0.00324755 -0.00020084
v 0.01856094 -0.00319791 -0.00020084
v 0.01876255 -0.00319791 0.00000000
v 0.01850010 -0.00043011 -0.01298060
v 0.01850010 -0.00043011 -0.01273878
v 0.01887092 -0.00007327 -0.01298036
v 0.01850010 -0.00055067 -0.00652964
v 0.01899945 -0.00007327 -0.00669383
v 0.02301775 -0.00349990 -0.01434834
v 0.02323081 -0.00349990 -0.01434834
v 0.02328108 -0.00349990 -0.01407148
v 0.02353827 -0.00349990 -0.01264829
v 0.02335430 -0.00284801 -0.01434834
v 0.02306090 -0.00349990 0.00000000
v 0.02301408 -0.00319791 0.00000000
v 0.02469457 -0.00349990 -0.00617417
v 0.02472239 -0.00349990 -0.00588353
v 0.02472533 -0.00349990 -0.00585207
v 0.02472744 -0.00349990 -0.00582726
v 0.02480010 -0.00310093 -0.00583682
v 0.02480010 -0.00310357 -0.00583161
v 0.02480010 -0.00310558 -0.00582726
v 0.02478324 -0.00301684 -0.00617417
v 0.02480010 -0.00301810 -0.00599563
v 0.02480010 -0.00286504 -0.00617417
v 0.02480010 -0.00267143 -0.00628206
v 0.02480010 -0.00272016 -0.00626860
v 0.02412046 -0.00349990 -0.00000142
v 0.02472707 -0.00349990 -0.00111581
v 0.02449196 -0.00349990 -0.00000246
v 0.02470928 -0.00349990 -0.00057211
v 0.02467260 -0.00349990 -0.00017688
v 0.02469695 -0.00349990 -0.00020084
v 0.02480010 -0.00310320 -0.00036442
v 0.02480010 -0.00308881 -0.00025615
v 0.02480010 -0.00308136 -0.00020084
v 0.02480010 -0.00307040 -0.00019818
v 0.02461691 -0.00299238 -0.00000281
v 0.02480010 -0.00301489 -0.00018502
v 0.02477316 -0.00260333 -0.00650282
v 0.02470763 -0.00212863 -0.00712361
v 0.02480010 -0.00254176 -0.00018489
v 0.02302416 -0.00149979 -0.01434834
v 0.02301408 -0.00007327 -0.01298036
v 0.02343495 -0.00149979 -0.01434834
v 0.02466731 -0.00149979 -0.00760114
v 0.02301408 -0.00000476 -0.00200000
v 0.02301408 -0.00000476 -0.00000281
v 0.02480010 -0.00090301 -0.00536530
v 0.02480010 -0.00019569 -0.00357701
v 0.02480010 -0.00001166 -0.00310512
v 0.02480010 -0.00000476 -0.00200000
v 0.02461691 -0.00000476 -0.00000281
v 0.02471519 -0.00000476 -0.00009972
v 0.02480010 -0.00000476 -0.00018489
f 1 9 2
f 2 9 48
f 4 8 5
f 5 7 6
f 5 8 7
f 3 19 4
f 6 7 13
f 4 19 8
f 8 19 20
f 7 8 53
f 8 20 53
f 9 10 11
f 10 13 11
f 10 12 13
f 9 11 48
f 6 13 12
f 7 53 13
f 11 13 53
f 11 53 52
f 2 48 14
f 14 18 15
f 14 48 50
f 15 18 16
f 16 18 17
f 18 28 17
f 17 28 21
f 18 45 28
f 14 50 18
f 18 50 51
f 18 46 45
f 18 51 46
f 21 28 22
f 22 25 23
f 23 27 24
f 23 25 26
f 23 26 27
f 22 28 25
f 24 27 39
f 28 29 25
f 28 30 29
f 28 32 30
f 28 45 32
f 45 31 32
f 19 33 20
f 24 39 34
f 33 35 43
f 35 37 43
f 34 39 36
f 36 40 38
f 37 38 41
f 37 42 43
f 36 39 40
f 37 41 42
f 38 40 41
f 43 42 44
f 43 44 47
f 45 51 31
f 45 46 51
f 20 33 58
f 33 43 58
f 43 47 59
f 11 50 48
f 11 49 50
f 11 56 49
f 50 55 51
f 49 55 50
f 11 52 56
f 51 54 31
f 20 58 53
f 43 59 58
f 51 55 54
f 49 56 55
f 52 53 57
f 59 47 60
f 52 57 56
f 53 58 57
f 58 59 57
f 59 60 57
f 1 3 9
f 3 4 5
f 3 5 6
f 3 6 12
f 3 10 9
f 3 12 10
f 1 2 3
f 2 14 3
f 3 14 16
f 14 15 16
f 3 16 17
f 3 17 21
f 3 21 22
f 3 22 23
f 3 23 24
f 3 24 19
f 19 24 33
f 24 35 33
f 24 34 36
f 24 38 37
f 24 37 35
f 24 36 38
f 40 39 41
f 41 39 42
f 42 39 44
f 44 39 47
f 26 54 27
f 25 54 26
f 25 29 54
f 29 30 54
f 27 54 39
f 30 32 54
f 32 31 54
f 47 39 60
f 55 39 54
f 55 56 39
f 56 57 39
f 57 60 39

