# https://github.com/mikedh/trimesh
v 0.02480010 -0.00301810 -0.00599563
v 0.02480010 -0.00310357 -0.00583161
v 0.02480010 -0.00310093 -0.00583682
v 0.02480010 -0.00310558 -0.00582726
v 0.02480010 -0.00286504 -0.00617417
v 0.02480010 -0.00272016 -0.00626860
v 0.02481096 -0.00276726 -0.00617417
v 0.02481600 -0.00301929 -0.00582726
v 0.02480010 -0.00267143 -0.00628206
v 0.02482860 -0.00288961 -0.00582726
v 0.02482608 -0.00292876 -0.00331321
v 0.02485884 -0.00262535 -0.00331321
v 0.02487649 -0.00245651 -0.00331321
v 0.02480010 -0.00310320 -0.00036442
v 0.02480010 -0.00308881 -0.00025615
v 0.02480010 -0.00308136 -0.00020084
v 0.02480010 -0.00307040 -0.00019818
v 0.02480010 -0.00301489 -0.00018502
v 0.02481600 -0.00301684 -0.00020084
v 0.02480010 -0.00254176 -0.00018489
v 0.02480010 -0.00090301 -0.00536530
v 0.02480010 -0.00019569 -0.00357701
v 0.02480010 -0.00001166 -0.00310512
v 0.02480010 -0.00000476 -0.00200000
v 0.02480010 -0.00000476 -0.00018489
v 0.02481600 -0.00000476 -0.00020084
v 0.02490673 -0.00212619 -0.00287781
v 0.02495209 -0.00150469 -0.00240450
v 0.02498485 -0.00078042 -0.00210394
v 0.02499997 -0.00000476 -0.00200000
f 1 7 8
f 2 3 8
f 2 8 4
f 1 8 3
f 1 5 7
f 5 6 7
f 6 9 7
f 7 10 8
f 8 10 13
f 4 8 19
f 8 12 11
f 7 9 21
f 8 13 12
f 10 27 13
f 10 28 27
f 7 30 10
f 8 11 19
f 4 19 14
f 11 12 19
f 14 19 15
f 15 19 16
f 16 19 17
f 17 19 18
f 18 19 20
f 19 26 20
f 12 13 19
f 13 27 19
f 19 27 28
f 7 21 30
f 21 22 30
f 20 26 25
f 19 30 26
f 22 23 30
f 23 24 30
f 24 25 30
f 25 26 30
f 10 29 28
f 19 28 29
f 10 30 29
f 19 29 30
f 1 3 21
f 2 4 21
f 2 21 3
f 5 21 6
f 1 21 5
f 6 21 9
f 4 14 15
f 4 15 16
f 4 16 17
f 4 17 18
f 4 18 20
f 4 20 25
f 4 22 21
f 4 23 22
f 4 24 23
f 4 25 24

