# https://github.com/mikedh/trimesh
v -0.00979158 0.00538921 -0.10686115
v -0.00979158 0.00475011 -0.10616835
v -0.00979158 0.00627897 -0.10718632
v -0.00979158 0.00630176 -0.10320987
v -0.00979158 0.00721792 -0.10706521
v -0.00979158 0.00799628 -0.10652507
v -0.00979158 0.00843827 -0.10568702
v -0.00979158 0.00724433 -0.10334539
v -0.00979158 0.00844478 -0.10474033
v -0.00979158 0.00801473 -0.10389644
v -0.00830000 0.00539283 -0.10686504
v -0.00830000 0.00475011 -0.10616835
v -0.00830000 0.00628404 -0.10718827
v -0.00830000 0.00630176 -0.10320987
v -0.00830000 0.00722335 -0.10706443
v -0.00830000 0.00800062 -0.10652196
v -0.00830000 0.00844080 -0.10568235
v -0.00830000 0.00723999 -0.10334228
v -0.00830000 0.00844514 -0.10473487
v -0.00830000 0.00801220 -0.10389176
f 1 2 3
f 2 5 3
f 1 12 2
f 1 3 11
f 3 5 13
f 2 4 8
f 2 14 4
f 2 6 5
f 2 7 6
f 2 9 7
f 5 6 15
f 6 7 16
f 7 9 17
f 2 8 10
f 2 10 9
f 4 18 8
f 9 10 19
f 8 20 10
f 1 11 12
f 3 13 11
f 11 13 12
f 12 13 15
f 2 12 14
f 12 18 14
f 5 15 13
f 6 16 15
f 7 17 16
f 12 15 16
f 12 16 17
f 12 17 19
f 4 14 18
f 8 18 20
f 9 19 17
f 10 20 19
f 12 20 18
f 12 19 20

