# https://github.com/mikedh/trimesh
v 0.01850010 0.01649990 -0.00684653
v 0.01850010 0.01658692 -0.00617612
v 0.01850010 0.01659342 -0.00608936
v 0.01850010 0.01661213 -0.00582896
v 0.01858700 0.01649990 -0.00617616
v 0.01859288 0.01649990 -0.00609747
v 0.01861214 0.01649990 -0.00582896
v 0.01850010 0.01649990 -0.00017701
v 0.01850010 0.01653761 -0.00020235
v 0.01853350 0.01649990 -0.00020235
v 0.01850010 0.01674593 -0.00364290
v 0.01850010 0.01671883 -0.00153508
v 0.01850010 0.01676515 -0.00187827
v 0.01850010 0.01678661 -0.00286602
v 0.01850010 0.01680555 -0.00227694
v 0.01871905 0.01649990 -0.00407943
v 0.01874710 0.01649990 -0.00353348
v 0.01877336 0.01649990 -0.00265639
v 0.01877549 0.01649990 -0.00248214
v 0.01876950 0.01649990 -0.00233401
v 0.01871169 0.01649990 -0.00168179
v 0.01871453 0.01649990 -0.00170556
v 0.01872511 0.01649990 -0.00182615
v 0.01870780 0.01657843 -0.00240371
f 1 2 5
f 2 3 6
f 3 4 6
f 2 6 5
f 4 7 6
f 4 16 7
f 4 11 16
f 8 10 9
f 9 10 21
f 9 21 12
f 11 14 17
f 14 15 24
f 13 24 15
f 12 22 13
f 11 17 16
f 12 21 22
f 13 23 24
f 14 24 18
f 14 18 17
f 13 22 23
f 20 24 23
f 18 24 19
f 19 24 20
f 1 8 2
f 2 8 3
f 3 8 4
f 4 8 11
f 8 9 12
f 8 14 11
f 8 12 13
f 8 13 15
f 8 15 14
f 1 5 8
f 5 6 8
f 6 7 8
f 7 16 8
f 8 21 10
f 8 16 17
f 8 17 18
f 8 22 21
f 8 23 22
f 8 20 23
f 8 18 19
f 8 19 20

