# https://github.com/mikedh/trimesh
v 0.02480010 0.01649990 -0.04550720
v 0.02480010 0.01649990 -0.03868965
v 0.02480010 0.01792986 -0.04468965
v 0.02480010 0.01792986 -0.04003023
v 0.02480010 0.01792601 -0.03937153
v 0.02480010 0.01790292 -0.03900092
v 0.02692353 0.01649990 -0.04560080
v 0.02692353 0.01649990 -0.03981653
v 0.02691900 0.01649990 -0.03929475
v 0.02689171 0.01649990 -0.03900092
f 1 3 7
f 2 10 6
f 3 4 7
f 4 5 8
f 5 6 9
f 4 8 7
f 5 9 8
f 6 10 9
f 1 10 2
f 1 7 8
f 1 8 9
f 1 9 10
f 1 2 6
f 1 4 3
f 1 5 4
f 1 6 5

