# https://github.com/mikedh/trimesh
v 0.01850010 0.00015110 -0.04550974
v 0.01850010 -0.00002768 -0.04503791
v 0.01850010 0.00333896 -0.04550974
v 0.01850010 -0.00003179 -0.04418053
v 0.01850010 -0.00003179 -0.03622916
v 0.01850010 0.01566500 -0.04435919
v 0.01850010 0.01649990 -0.04419304
v 0.01850010 0.00963539 -0.03622916
v 0.01850010 0.01649990 -0.03775210
v 0.02480010 0.00066653 -0.04687000
v 0.02480010 0.00055589 -0.04657802
v 0.02480010 0.00054699 -0.04471981
v 0.02480010 0.00627526 -0.04687000
v 0.02480010 0.00054699 -0.03728569
v 0.02480010 0.01390292 -0.04615801
v 0.02480010 0.01613029 -0.04571475
v 0.02480010 0.01627007 -0.04563830
v 0.02480010 0.01633636 -0.04560070
v 0.02405713 0.01649990 -0.04547041
v 0.02435045 0.01649990 -0.04548707
v 0.02448415 0.01649990 -0.04549327
v 0.02480010 0.01649990 -0.04550720
v 0.02480010 0.01017165 -0.03728569
v 0.02480010 0.01649990 -0.03868965
f 1 11 2
f 1 3 10
f 2 12 4
f 4 14 5
f 5 23 8
f 3 6 13
f 6 7 19
f 8 24 9
f 1 10 11
f 2 11 12
f 3 13 10
f 4 12 14
f 5 14 23
f 6 15 13
f 6 19 15
f 19 20 16
f 19 16 15
f 20 17 16
f 21 18 17
f 20 21 17
f 21 22 18
f 8 23 24
f 1 2 3
f 2 4 3
f 4 8 3
f 4 5 8
f 3 8 6
f 6 8 7
f 7 8 9
f 7 9 22
f 7 22 19
f 19 22 20
f 20 22 21
f 9 24 22
f 10 12 11
f 10 23 12
f 10 13 23
f 14 12 23
f 13 15 24
f 16 24 15
f 16 17 24
f 17 18 24
f 22 24 18
f 13 24 23

