# https://github.com/mikedh/trimesh
v 0.02480010 0.00066653 -0.04687000
v 0.02480010 0.00055589 -0.04657802
v 0.02480010 0.00054699 -0.04471981
v 0.02480010 0.00627526 -0.04687000
v 0.02480010 0.00054699 -0.03728569
v 0.02480010 0.01390292 -0.04615801
v 0.02480010 0.01613029 -0.04571475
v 0.02480010 0.01627007 -0.04563830
v 0.02480010 0.01633636 -0.04560070
v 0.02480010 0.01649990 -0.04550720
v 0.02480010 0.01017165 -0.03728569
v 0.02480010 0.01649990 -0.03868965
v 0.02819990 0.00094468 -0.04760407
v 0.02819990 0.00087082 -0.04740915
v 0.02819990 0.00085932 -0.04501084
v 0.02819990 0.00785984 -0.04760407
v 0.02819990 0.00085932 -0.03785584
v 0.02692353 0.01649990 -0.04560080
v 0.02819990 0.01295202 -0.04712875
v 0.02819990 0.01443899 -0.04683283
v 0.02819990 0.01453231 -0.04678180
v 0.02819990 0.01457656 -0.04675669
v 0.02819990 0.01564037 -0.04614848
v 0.02692353 0.01649990 -0.03981653
v 0.02691900 0.01649990 -0.03929475
v 0.02689171 0.01649990 -0.03900092
v 0.02819990 0.01046104 -0.03785584
v 0.02819990 0.01564037 -0.03968808
v 0.02819990 0.01563780 -0.03924834
v 0.02819990 0.01562239 -0.03900092
f 1 14 2
f 2 15 3
f 1 4 13
f 3 17 5
f 5 27 11
f 9 10 18
f 4 6 16
f 6 7 20
f 7 8 20
f 8 9 21
f 11 26 12
f 1 13 14
f 2 14 15
f 3 15 17
f 4 16 13
f 5 17 27
f 6 19 16
f 9 18 22
f 6 20 19
f 8 21 20
f 9 22 21
f 18 24 23
f 18 23 22
f 11 27 30
f 11 30 26
f 24 25 28
f 25 26 29
f 23 24 28
f 25 29 28
f 26 30 29
f 10 12 18
f 12 24 18
f 12 25 24
f 12 26 25
f 1 2 4
f 2 3 11
f 2 11 4
f 3 5 11
f 4 11 6
f 6 11 7
f 7 11 8
f 8 11 9
f 9 12 10
f 9 11 12
f 13 15 14
f 13 17 15
f 13 16 27
f 13 27 17
f 16 19 30
f 19 20 30
f 20 21 30
f 21 22 30
f 22 23 30
f 16 30 27
f 23 28 30
f 28 29 30

