# https://github.com/mikedh/trimesh
v 0.01850010 0.00033216 -0.01297672
v 0.01887326 -0.00006559 -0.01297971
v 0.01850010 0.00270406 -0.01403454
v 0.01850010 -0.00306843 -0.00505144
v 0.01850010 -0.00306987 -0.00499766
v 0.01850010 -0.00307014 -0.00498275
v 0.01859670 -0.00319031 -0.00500814
v 0.01850010 -0.00309356 -0.00275212
v 0.01857779 -0.00319031 -0.00276272
v 0.01850010 -0.00311340 -0.00020166
v 0.01850010 -0.00311408 -0.00020284
v 0.01850010 -0.00311408 -0.00020235
v 0.01856125 -0.00319031 -0.00020235
v 0.01850010 -0.00286150 -0.00000163
v 0.01876453 -0.00319031 -0.00000163
v 0.01850010 0.01008375 -0.01584292
v 0.01850010 0.01044423 -0.01588955
v 0.01850010 0.01101530 -0.01589913
v 0.01850010 0.01185053 -0.01588126
v 0.01850010 0.01226878 -0.01584292
v 0.01850010 0.01244767 -0.01576191
v 0.01850010 0.01277302 -0.01559467
v 0.01850010 0.01361329 -0.01502873
v 0.01850010 0.01367546 -0.01498633
v 0.01928691 0.01385085 -0.01297808
v 0.01850010 0.01410253 -0.01468031
v 0.01850010 0.01416545 -0.01458672
v 0.01850010 0.01450943 -0.01405940
v 0.01850010 0.01454195 -0.01399121
v 0.01850010 0.01463364 -0.01374684
v 0.01850010 0.01467717 -0.01361138
v 0.01955873 0.01349508 -0.01297808
v 0.01850010 0.01591715 -0.00941215
v 0.01850010 0.01594303 -0.00932383
v 0.01850010 0.01607829 -0.00882802
v 0.02086350 0.01137149 -0.01297808
v 0.02060113 0.01180172 -0.01297808
v 0.01850010 0.00950542 -0.00000163
v 0.01850010 0.01639655 -0.00757055
v 0.01850010 0.01640505 -0.00752960
v 0.01850010 0.01643781 -0.00731067
v 0.01850010 0.01647259 -0.00705694
v 0.01850010 0.01649990 -0.00684653
v 0.01858700 0.01649990 -0.00617616
v 0.01859288 0.01649990 -0.00609747
v 0.01897490 0.01596618 -0.00712627
v 0.01861214 0.01649990 -0.00582896
v 0.01871905 0.01649990 -0.00407943
v 0.01935545 0.01567384 -0.00650454
v 0.01949728 0.01558834 -0.00617654
v 0.01959655 0.01551388 -0.00582896
v 0.01966983 0.01541459 -0.00499835
v 0.01960364 0.01550009 -0.00422322
v 0.02000548 0.01496230 -0.00531166
v 0.01874710 0.01649990 -0.00353348
v 0.01877336 0.01649990 -0.00265639
v 0.01877549 0.01649990 -0.00248214
v 0.01876950 0.01649990 -0.00233401
v 0.01878580 0.01647915 -0.00231559
v 0.01911908 0.01610131 -0.00288021
v 0.01872511 0.01649990 -0.00182615
v 0.01871453 0.01649990 -0.00170556
v 0.01871169 0.01649990 -0.00168179
v 0.01872907 0.01648191 -0.00169385
v 0.01850010 0.01573608 -0.00000319
v 0.01850010 0.01601486 -0.00000326
v 0.01850010 0.01614768 -0.00000333
v 0.01850010 0.01624027 -0.00000342
v 0.01850010 0.01649990 -0.00017701
v 0.01850010 0.01648191 -0.00016492
v 0.01853350 0.01649990 -0.00020235
v 0.01854943 0.01648191 -0.00020235
v 0.01941927 0.01573451 -0.00350031
v 0.02054440 0.01417629 -0.00617654
v 0.02057040 0.01419284 -0.00582896
v 0.02057040 0.01419284 -0.00531166
v 0.02040731 0.01407700 -0.00000489
v 0.02057040 0.01419008 -0.00020561
v 0.02301448 -0.00149143 -0.01434556
v 0.02301448 0.00464493 -0.01434556
v 0.02301448 0.00587496 -0.01306293
v 0.02287739 0.00635760 -0.01297808
v 0.02343286 -0.00149143 -0.01434556
v 0.02352504 0.00000611 -0.01434556
v 0.02464544 0.00000336 -0.00800257
v 0.02335485 0.00283849 -0.01434556
v 0.02301448 -0.00319031 -0.00500814
v 0.02301448 -0.00319031 -0.00000163
v 0.02301448 -0.00006835 -0.00000163
v 0.02466908 -0.00149143 -0.00760277
v 0.02465017 -0.00077162 -0.00790140
v 0.02480010 -0.00089852 -0.00538604
v 0.02465017 0.00078385 -0.00790140
v 0.02466908 0.00150642 -0.00760277
v 0.02480010 -0.00031570 -0.00180232
v 0.02461471 0.00000611 -0.00000326
v 0.02471635 0.00000611 -0.00010281
v 0.02480010 -0.00002145 -0.00020224
v 0.02480010 0.00000611 -0.00018815
v 0.02470690 0.00212695 -0.00712627
v 0.02480010 0.00231554 -0.00632768
v 0.02480010 0.00243468 -0.00633843
v 0.02480010 0.00251463 -0.00634317
v 0.02480010 0.00258067 -0.00633843
v 0.02480010 0.00263323 -0.00632768
v 0.02480010 0.00267540 -0.00631219
v 0.02480010 0.00276755 -0.00626339
v 0.02480010 0.00289223 -0.00617654
v 0.02478490 0.00301500 -0.00617654
v 0.02480010 0.00301773 -0.00600220
v 0.02480010 0.00302007 -0.00599820
v 0.02480010 0.00302790 -0.00598234
v 0.02480010 0.00310321 -0.00582838
v 0.02480010 0.00310500 -0.00582406
v 0.02424125 0.00597976 -0.00617654
v 0.02425779 0.00599079 -0.00597909
v 0.02426961 0.00599079 -0.00582406
v 0.02461471 0.00260959 -0.00000326
v 0.02480010 0.00254899 -0.00018815
v 0.02461471 0.00299845 -0.00000489
v 0.02480010 0.00310500 -0.00036383
v 0.02480010 0.00298876 -0.00018847
v 0.02480010 0.00301881 -0.00018859
v 0.02480010 0.00308352 -0.00020398
v 0.02201227 0.00888936 -0.01297808
v 0.02222027 0.00843155 -0.01297808
v 0.02301448 0.00708293 -0.01100354
v 0.02301448 0.00958987 -0.00617654
v 0.02318467 0.00879835 -0.00000489
v 0.02210445 0.01159764 -0.00617654
v 0.02213282 0.01161143 -0.00582896
v 0.02334540 0.00885627 -0.00617654
v 0.02336195 0.00886454 -0.00597909
v 0.02337377 0.00887006 -0.00582406
v 0.02337377 0.00887006 -0.00020398
f 1 3 2
f 1 2 4
f 3 16 79
f 2 3 79
f 2 79 7
f 16 17 83
f 16 83 79
f 19 80 86
f 2 7 4
f 4 7 5
f 5 7 6
f 6 7 9
f 6 9 8
f 7 13 9
f 8 9 13
f 7 15 13
f 8 13 11
f 11 13 12
f 10 12 13
f 10 15 14
f 10 13 15
f 14 89 38
f 7 88 15
f 14 15 88
f 7 87 88
f 14 88 89
f 19 20 80
f 20 21 80
f 21 22 80
f 26 27 37
f 25 32 30
f 25 30 31
f 27 28 32
f 28 29 32
f 29 30 32
f 25 31 33
f 23 24 125
f 24 26 36
f 22 23 126
f 27 32 37
f 26 37 36
f 34 35 46
f 33 34 49
f 25 33 50
f 25 50 32
f 32 50 74
f 17 18 84
f 18 19 86
f 24 36 125
f 22 126 80
f 23 125 126
f 32 74 37
f 36 37 74
f 36 74 130
f 38 89 65
f 35 39 46
f 39 40 46
f 40 41 50
f 42 43 44
f 41 42 50
f 42 44 50
f 44 45 50
f 34 46 49
f 33 49 50
f 40 50 46
f 45 47 50
f 46 50 49
f 47 48 51
f 47 51 50
f 48 55 51
f 51 55 56
f 50 51 74
f 51 53 52
f 51 60 73
f 51 73 53
f 51 54 75
f 51 52 54
f 56 57 60
f 57 59 60
f 57 58 59
f 58 61 59
f 51 56 60
f 63 71 64
f 61 62 64
f 59 61 64
f 62 63 64
f 64 71 72
f 69 70 71
f 70 72 71
f 68 72 70
f 64 72 78
f 67 77 68
f 68 77 72
f 66 129 67
f 52 53 78
f 53 73 78
f 60 78 73
f 59 64 78
f 59 78 60
f 72 77 78
f 65 118 66
f 51 75 74
f 54 76 75
f 74 131 130
f 74 75 131
f 75 76 131
f 67 129 77
f 52 78 54
f 54 78 76
f 76 78 131
f 77 135 78
f 7 79 83
f 7 83 87
f 17 84 83
f 18 86 84
f 80 126 81
f 82 127 81
f 83 84 90
f 86 94 84
f 83 90 87
f 84 91 90
f 84 85 91
f 84 93 85
f 84 94 93
f 86 80 115
f 80 81 115
f 86 100 94
f 86 107 100
f 86 109 107
f 86 115 109
f 65 89 118
f 87 90 88
f 90 92 95
f 90 91 101
f 90 101 92
f 85 102 91
f 85 93 103
f 93 94 104
f 91 102 101
f 85 103 102
f 88 118 89
f 88 90 95
f 88 95 98
f 88 97 96
f 88 98 97
f 88 96 118
f 97 98 99
f 96 97 118
f 97 99 119
f 97 119 118
f 94 100 105
f 93 104 103
f 94 105 104
f 100 106 105
f 100 107 106
f 109 108 107
f 109 110 108
f 109 111 110
f 109 112 111
f 109 116 112
f 116 113 112
f 117 114 113
f 117 121 114
f 109 115 116
f 116 117 113
f 118 122 120
f 118 119 122
f 120 122 123
f 120 123 124
f 117 135 121
f 118 120 129
f 120 124 135
f 135 124 121
f 82 81 126
f 82 126 127
f 36 130 125
f 125 130 126
f 81 127 132
f 126 132 127
f 126 128 132
f 126 130 128
f 81 132 115
f 128 130 131
f 133 128 131
f 133 131 134
f 78 135 131
f 66 118 129
f 77 129 135
f 134 131 135
f 132 128 133
f 115 132 116
f 116 132 133
f 116 134 117
f 116 133 134
f 117 134 135
f 120 135 129
f 1 14 3
f 3 14 16
f 14 17 16
f 14 18 17
f 1 4 14
f 4 5 14
f 5 6 14
f 6 8 14
f 8 12 10
f 8 11 12
f 8 10 14
f 14 19 18
f 14 20 19
f 14 21 20
f 14 22 21
f 14 23 22
f 14 24 23
f 14 26 24
f 14 27 26
f 14 28 27
f 14 29 28
f 14 30 29
f 14 31 30
f 14 33 31
f 14 34 33
f 14 35 34
f 14 38 35
f 35 38 39
f 38 40 39
f 38 41 40
f 38 42 41
f 38 43 42
f 38 65 43
f 43 65 66
f 43 66 67
f 43 67 68
f 43 70 69
f 43 68 70
f 43 45 44
f 43 47 45
f 43 48 47
f 43 55 48
f 43 56 55
f 43 57 56
f 43 58 57
f 43 61 58
f 43 62 61
f 43 63 62
f 43 71 63
f 43 69 71
f 101 95 92
f 102 95 101
f 102 103 95
f 103 104 95
f 104 105 95
f 105 106 95
f 107 95 106
f 98 95 114
f 98 114 99
f 107 108 95
f 95 108 110
f 95 110 111
f 95 111 112
f 95 112 113
f 95 113 114
f 99 114 119
f 114 121 119
f 121 122 119
f 121 124 123
f 121 123 122

