# https://github.com/mikedh/trimesh
v -0.00016746 0.02796546 -0.02862176
v -0.00016746 0.02794114 -0.02706085
v -0.00004750 0.02794219 -0.02706085
v 0.00030802 0.02792527 -0.02706085
v 0.00077041 0.02790412 -0.02862176
v -0.00016746 0.02180890 -0.02862176
v -0.00016746 0.01716161 -0.02706085
v 0.00203981 0.02775711 -0.02706085
v 0.00315435 0.02763125 -0.02706085
v 0.00240842 0.02768624 -0.02862176
v -0.00016746 0.01716161 -0.02765603
v 0.01400097 0.01716161 -0.02862176
v 0.02211466 0.01716161 -0.02706085
v 0.00362765 0.02756779 -0.02706085
v 0.00464186 0.02742077 -0.02706085
v 0.00592435 0.02723251 -0.02706085
v 0.00553830 0.02719127 -0.02862176
v 0.02194672 0.01716161 -0.02862176
v 0.02178314 0.01765447 -0.02706085
v 0.00685786 0.02702099 -0.02706085
v 0.00848278 0.02658841 -0.02862176
v 0.00831266 0.02662648 -0.02862176
v 0.00709342 0.02689301 -0.02862176
v 0.02127930 0.01802359 -0.02862176
v 0.02134473 0.01826896 -0.02706085
v 0.00698218 0.02698714 -0.02706085
v 0.00928325 0.02639274 -0.02862176
v 0.02045484 0.01888345 -0.02862176
v 0.01954096 0.01980255 -0.02862176
v 0.02071439 0.01889826 -0.02706085
v 0.00929633 0.02630813 -0.02706085
v 0.01198999 0.02532135 -0.02706085
v 0.01173480 0.02543240 -0.02862176
v 0.02034579 0.01926103 -0.02706085
v 0.01883429 0.02045406 -0.02862176
v 0.01313071 0.02478724 -0.02706085
v 0.01246765 0.02505376 -0.02862176
v 0.01722463 0.02209235 -0.02706085
v 0.01788551 0.02126316 -0.02862176
v 0.01339244 0.02453551 -0.02862176
v 0.01305219 0.02472695 -0.02862176
v 0.01545358 0.02347575 -0.02706085
v 0.01639363 0.02249849 -0.02862176
v 0.01684294 0.02239272 -0.02706085
v 0.01395298 0.02419918 -0.02862176
v 0.01576984 0.02323673 -0.02706085
v 0.01483197 0.02362277 -0.02862176
f 1 2 3
f 1 3 4
f 1 4 5
f 1 5 10
f 1 10 17
f 1 17 23
f 1 23 22
f 1 22 21
f 1 21 27
f 1 27 33
f 1 33 37
f 1 37 41
f 1 41 40
f 1 40 45
f 1 45 47
f 1 47 43
f 1 43 39
f 1 39 35
f 1 35 29
f 1 29 28
f 1 28 24
f 1 24 18
f 1 18 12
f 1 12 6
f 1 6 11
f 1 11 7
f 1 7 2
f 2 7 13
f 2 13 19
f 2 19 25
f 2 25 30
f 2 30 34
f 2 34 38
f 2 38 44
f 2 44 46
f 2 46 42
f 2 42 36
f 2 36 32
f 2 32 31
f 2 31 26
f 2 26 20
f 2 20 16
f 2 16 15
f 2 15 14
f 2 14 9
f 2 9 8
f 2 8 4
f 2 4 3
f 4 8 5
f 5 8 9
f 5 9 10
f 6 12 11
f 7 11 12
f 7 12 18
f 7 18 13
f 9 14 10
f 10 14 15
f 10 15 16
f 10 16 17
f 13 18 19
f 16 20 21
f 16 21 22
f 16 22 23
f 16 23 17
f 18 24 25
f 18 25 19
f 20 26 27
f 20 27 21
f 24 28 25
f 25 28 29
f 25 29 30
f 26 31 27
f 27 31 32
f 27 32 33
f 29 34 30
f 29 35 34
f 32 36 33
f 33 36 37
f 34 35 38
f 35 39 38
f 36 40 41
f 36 41 37
f 36 42 40
f 38 39 43
f 38 43 44
f 40 42 45
f 42 46 43
f 42 43 47
f 42 47 45
f 43 46 44

