# https://github.com/mikedh/trimesh
v -0.00016561 -0.02135918 -0.02743471
v -0.00016561 -0.02135918 -0.01263169
v -0.00016561 -0.02050317 -0.02743471
v 0.01882252 -0.01018081 -0.02766678
v 0.01882252 -0.02135918 -0.02743471
v 0.01882252 -0.02135918 -0.01131608
v -0.00016375 0.00001807 -0.01388808
v -0.00016561 -0.01042150 -0.01366081
v -0.00016561 -0.01042150 -0.02674490
v -0.00016375 -0.00001751 -0.02682812
v -0.00015817 0.00001807 -0.02682972
v 0.01882252 0.00001807 -0.02744431
v 0.01882438 -0.00635074 -0.02746672
v 0.01882438 -0.00635074 -0.02743311
v 0.01882438 -0.00546961 -0.02743311
v 0.01882252 0.00001807 -0.01313105
v -0.00016375 0.00001807 -0.02640719
v 0.01882438 -0.00546961 -0.02744591
f 1 2 8
f 1 8 9
f 1 9 3
f 1 3 4
f 1 4 5
f 1 5 6
f 1 6 2
f 2 6 7
f 2 7 8
f 3 9 10
f 3 10 11
f 3 11 12
f 3 12 4
f 4 12 13
f 4 13 5
f 5 13 14
f 5 14 6
f 6 14 15
f 6 15 16
f 6 16 7
f 7 16 12
f 7 12 11
f 7 11 17
f 7 17 9
f 7 9 8
f 9 17 10
f 10 17 11
f 12 18 13
f 12 16 15
f 12 15 18
f 13 18 15
f 13 15 14

