# https://github.com/mikedh/trimesh
v 0.02799050 -0.03371292 -0.00251195
v 0.03518411 -0.03371292 -0.00251195
v 0.03353006 -0.03371292 0.00388476
v 0.03096836 -0.03016659 -0.00194717
v 0.03081978 -0.02983361 -0.00251195
v 0.03518411 -0.03371292 0.00388476
v 0.03518411 -0.02608644 -0.00251195
v 0.03518411 -0.03194125 0.00388476
v 0.03122678 -0.02934459 -0.00251195
v 0.03213021 -0.02858007 -0.00251195
v 0.03164716 -0.02897801 -0.00251195
f 1 2 6
f 1 6 3
f 1 3 4
f 1 4 5
f 1 5 9
f 1 9 11
f 1 11 10
f 1 10 7
f 1 7 2
f 2 7 8
f 2 8 6
f 3 6 8
f 3 8 4
f 4 8 9
f 4 9 5
f 7 10 8
f 8 10 11
f 8 11 9

