# https://github.com/mikedh/trimesh
v -0.02863771 -0.00032565 -0.02916151
v -0.02254120 -0.00032565 -0.02916151
v -0.02852700 -0.00032565 -0.02785586
v -0.02852924 -0.00011107 -0.02785586
v -0.02863547 -0.00000601 -0.02916151
v -0.02038752 -0.00032565 -0.02785586
v -0.01721403 0.01428855 -0.02916151
v -0.02852253 0.00023763 -0.02785586
v -0.02861870 0.00052151 -0.02916151
v -0.01721403 0.00912954 -0.02785586
v -0.01721403 0.02250987 -0.02916151
v -0.02847445 0.00124351 -0.02785586
v -0.02859745 0.00099316 -0.02916151
v -0.01721403 0.02236682 -0.02785586
v -0.01723304 0.02249646 -0.02916151
v -0.02845432 0.00157880 -0.02785586
v -0.02854937 0.00169280 -0.02916151
v -0.01735940 0.02240482 -0.02916151
v -0.01793752 0.02181023 -0.02785586
v -0.02835815 0.00269867 -0.02785586
v -0.02849905 0.00227620 -0.02916151
v -0.01745780 0.02232658 -0.02916151
v -0.01848656 0.02150847 -0.02916151
v -0.01798225 0.02177447 -0.02785586
v -0.02832461 0.00305408 -0.02785586
v -0.02843643 0.00290431 -0.02916151
v -0.01951085 0.02061213 -0.02916151
v -0.01910158 0.02086919 -0.02785586
v -0.02814345 0.00431700 -0.02785586
v -0.02826981 0.00417618 -0.02916151
v -0.02834697 0.00360172 -0.02916151
v -0.01974120 0.02027013 -0.02785586
v -0.01967858 0.02033049 -0.02785586
v -0.02060222 0.01955708 -0.02916151
v -0.02812109 0.00443771 -0.02785586
v -0.02802940 0.00552852 -0.02916151
v -0.02819489 0.00462100 -0.02916151
v -0.02029695 0.01976496 -0.02830889
v -0.02070398 0.01927544 -0.02785586
v -0.02176069 0.01828074 -0.02916151
v -0.02092203 0.01904073 -0.02785586
v -0.02786390 0.00555758 -0.02785586
v -0.02796790 0.00580346 -0.02916151
v -0.02228066 0.01764369 -0.02916151
v -0.02202571 0.01778451 -0.02785586
v -0.02752397 0.00692109 -0.02785586
v -0.02769617 0.00695015 -0.02916151
v -0.02264855 0.01717428 -0.02916151
v -0.02271676 0.01693734 -0.02785586
v -0.02719856 0.00819520 -0.02785586
v -0.02757876 0.00740615 -0.02916151
v -0.02311038 0.01656182 -0.02916151
v -0.02346150 0.01589347 -0.02785586
v -0.02702748 0.00876743 -0.02785586
v -0.02716837 0.00877637 -0.02916151
v -0.02378689 0.01560289 -0.02916151
v -0.02374328 0.01548218 -0.02785586
v -0.02666965 0.00982024 -0.02785586
v -0.02683067 0.00971965 -0.02916151
v -0.02476198 0.01403820 -0.02916151
v -0.02464233 0.01402255 -0.02785701
v -0.02464456 0.01401808 -0.02785586
v -0.02644265 0.01038576 -0.02785586
v -0.02627716 0.01105187 -0.02916151
v -0.02514105 0.01336985 -0.02916151
v -0.02541501 0.01264562 -0.02785586
v -0.02610160 0.01117929 -0.02785586
v -0.02600096 0.01166657 -0.02916151
v -0.02522268 0.01322232 -0.02916151
v -0.02559169 0.01251151 -0.02916151
f 1 2 6
f 1 6 3
f 1 3 4
f 1 4 5
f 1 5 9
f 1 9 13
f 1 13 17
f 1 17 21
f 1 21 26
f 1 26 31
f 1 31 30
f 1 30 37
f 1 37 36
f 1 36 43
f 1 43 47
f 1 47 51
f 1 51 55
f 1 55 59
f 1 59 64
f 1 64 68
f 1 68 70
f 1 70 69
f 1 69 65
f 1 65 60
f 1 60 56
f 1 56 52
f 1 52 48
f 1 48 44
f 1 44 40
f 1 40 34
f 1 34 27
f 1 27 23
f 1 23 22
f 1 22 18
f 1 18 15
f 1 15 11
f 1 11 7
f 1 7 2
f 2 7 6
f 3 6 10
f 3 10 14
f 3 14 19
f 3 19 24
f 3 24 28
f 3 28 33
f 3 33 32
f 3 32 39
f 3 39 41
f 3 41 45
f 3 45 49
f 3 49 53
f 3 53 57
f 3 57 62
f 3 62 66
f 3 66 67
f 3 67 63
f 3 63 58
f 3 58 54
f 3 54 50
f 3 50 46
f 3 46 42
f 3 42 35
f 3 35 29
f 3 29 25
f 3 25 20
f 3 20 16
f 3 16 12
f 3 12 8
f 3 8 4
f 4 8 5
f 5 8 9
f 6 7 10
f 7 11 14
f 7 14 10
f 8 12 13
f 8 13 9
f 11 15 14
f 12 16 13
f 13 16 17
f 14 15 18
f 14 18 19
f 16 20 17
f 17 20 21
f 18 22 19
f 19 23 24
f 19 22 23
f 20 25 21
f 21 25 26
f 23 27 28
f 23 28 24
f 25 29 30
f 25 30 31
f 25 31 26
f 27 32 33
f 27 33 28
f 27 34 32
f 29 35 36
f 29 36 37
f 29 37 30
f 32 34 38
f 32 38 39
f 34 40 41
f 34 41 39
f 34 39 38
f 35 42 43
f 35 43 36
f 40 44 45
f 40 45 41
f 42 46 47
f 42 47 43
f 44 48 49
f 44 49 45
f 46 50 47
f 47 50 51
f 48 52 49
f 49 52 53
f 50 54 51
f 51 54 55
f 52 56 53
f 53 56 57
f 54 58 55
f 55 58 59
f 56 60 57
f 57 60 61
f 57 61 62
f 58 63 59
f 59 63 64
f 60 65 61
f 61 65 66
f 61 66 62
f 63 67 64
f 64 67 68
f 65 69 66
f 66 70 68
f 66 68 67
f 66 69 70

