# https://github.com/mikedh/trimesh
v -0.02066191 -0.00032565 -0.02785573
v -0.02066191 0.01056786 -0.02785573
v -0.02038507 -0.00032565 -0.02785573
v -0.02066191 -0.00032565 -0.01256146
v -0.02066191 0.01056786 -0.01224980
v -0.01621035 0.01056786 -0.02785573
v -0.00016947 0.01056786 -0.02707963
v -0.00016947 -0.00001536 -0.02683214
v -0.00016947 -0.00032565 -0.02682450
v -0.00016947 -0.00032565 -0.01388143
v -0.00016947 0.01056786 -0.01373171
f 1 2 6
f 1 6 3
f 1 3 9
f 1 9 10
f 1 10 4
f 1 4 5
f 1 5 2
f 2 5 11
f 2 11 7
f 2 7 6
f 3 6 7
f 3 7 8
f 3 8 9
f 4 10 5
f 5 10 11
f 7 11 10
f 7 10 9
f 7 9 8

