# https://github.com/mikedh/trimesh
v 0.00015721 0.05646201 -0.00242830
v 0.00099861 0.05645618 -0.00242830
v 0.00143989 0.05617620 -0.00337345
v -0.00016746 0.05641924 -0.00257834
v -0.00016746 0.05646007 -0.00242830
v 0.00254423 0.05640368 -0.00242830
v 0.00270885 0.05629869 -0.00278331
v 0.00330103 0.05589622 -0.00404944
v 0.00203207 0.05576207 -0.00464190
v 0.00017321 0.05600121 -0.00396127
v -0.00016746 0.05622092 -0.00323732
v -0.00016746 0.04421290 -0.00242830
v 0.00347480 0.05635896 -0.00242830
v 0.00408985 0.05632591 -0.00242830
v 0.00456999 0.05599927 -0.00346162
v 0.00389321 0.05545292 -0.00531789
v 0.00262425 0.05530126 -0.00591035
v 0.00076311 0.05557736 -0.00523281
v -0.00016746 0.05594289 -0.00411982
v -0.00016746 0.05603232 -0.00383984
v -0.00016746 0.03659901 -0.00847587
v 0.02318830 0.03659901 -0.00320561
v 0.02318830 0.03759838 -0.00242830
v 0.00563547 0.05619176 -0.00242830
v 0.00583896 0.05605176 -0.00286375
v 0.00643114 0.05561430 -0.00413684
v 0.00516218 0.05555597 -0.00472775
v 0.00575436 0.05506989 -0.00599698
v 0.00448540 0.05494740 -0.00658634
v 0.00321644 0.05477825 -0.00717958
v 0.00135529 0.05510295 -0.00650126
v -0.00016746 0.05541403 -0.00566826
v -0.00016746 0.03659901 -0.01032905
v 0.02318830 0.03659901 -0.01032905
v 0.02318830 0.05162653 -0.00242830
v 0.00678553 0.05605954 -0.00242830
v 0.00717880 0.05601288 -0.00242830
v 0.00770010 0.05563179 -0.00354670
v 0.00702104 0.05513405 -0.00540297
v 0.00829000 0.05516905 -0.00481206
v 0.00759950 0.05453910 -0.00682147
v 0.00634426 0.05450799 -0.00726002
v 0.00498384 0.05439522 -0.00781612
v 0.00380862 0.05417551 -0.00844726
v 0.00194747 0.05456243 -0.00776972
v 0.00008633 0.05487157 -0.00709759
v -0.00016746 0.05507961 -0.00655386
v -0.00016746 0.05328891 -0.01032905
v 0.02318830 0.04816567 -0.01032905
v 0.02318830 0.05149043 -0.00286297
v 0.02275388 0.05173930 -0.00270364
v 0.02262584 0.05188123 -0.00242830
v 0.00872442 0.05580873 -0.00242830
v 0.00896906 0.05563569 -0.00295424
v 0.00888218 0.05463631 -0.00608283
v 0.00956125 0.05516322 -0.00422269
v 0.01015114 0.05463826 -0.00549114
v 0.00947436 0.05401997 -0.00734742
v 0.00788530 0.05400830 -0.00794374
v 0.00724739 0.05379637 -0.00858493
v 0.00566748 0.05369721 -0.00912015
v 0.00454256 0.05345807 -0.00975129
v 0.00253966 0.05394414 -0.00903972
v 0.00067851 0.05431745 -0.00836218
v -0.00016746 0.05444966 -0.00805280
v -0.00016746 0.05481908 -0.00721361
v -0.00016746 0.05490268 -0.00700555
v -0.00016746 0.05330641 -0.01030198
v 0.00004975 0.05329086 -0.01032905
v 0.02318830 0.04824150 -0.01020994
v 0.02294365 0.04828233 -0.01032905
v 0.02316544 0.04824539 -0.01022154
v 0.02318830 0.05124545 -0.00363410
v 0.02147806 0.05209511 -0.00328991
v 0.02318830 0.05115212 -0.00391795
v 0.02179587 0.05223121 -0.00242830
v 0.00915884 0.05574651 -0.00242830
v 0.01008484 0.05559485 -0.00242830
v 0.01026775 0.05556375 -0.00242830
v 0.01074332 0.05404719 -0.00676037
v 0.01083021 0.05510295 -0.00363100
v 0.01142010 0.05458382 -0.00489791
v 0.01201000 0.05401608 -0.00616868
v 0.01133322 0.05337251 -0.00802031
v 0.01006654 0.05332585 -0.00861741
v 0.00879530 0.05324419 -0.00920678
v 0.00721995 0.05319364 -0.00974510
v 0.00668493 0.05293699 -0.01032905
v 0.00649287 0.05295644 -0.01032905
v 0.00475291 0.05311003 -0.01032905
v 0.00314098 0.05322086 -0.01032905
v 0.00312955 0.05323447 -0.01030662
v 0.00622308 0.05298171 -0.01032905
v 0.00127069 0.05366999 -0.00962986
v -0.00016746 0.05412496 -0.00875354
v -0.00016746 0.05338418 -0.01016199
v 0.00000173 0.05335307 -0.01022309
v 0.00028525 0.05328891 -0.01032905
v 0.02318830 0.04887340 -0.00911706
v 0.02258240 0.04925059 -0.00896160
v 0.02166326 0.04885785 -0.01032905
v 0.02120826 0.04961029 -0.00940556
v 0.02080585 0.05170430 -0.00515469
v 0.02022053 0.05237120 -0.00389088
v 0.02107336 0.05252675 -0.00242830
v 0.02318830 0.05110740 -0.00405176
v 0.02207481 0.05140488 -0.00456378
v 0.01042780 0.05553264 -0.00242830
v 0.01260218 0.05337446 -0.00743636
v 0.01209688 0.05502517 -0.00304009
v 0.01268907 0.05450604 -0.00431009
v 0.01328125 0.05393831 -0.00557854
v 0.01387114 0.05331807 -0.00684545
v 0.01319208 0.05263757 -0.00870095
v 0.01192312 0.05261813 -0.00929495
v 0.01065873 0.05255202 -0.00989205
v 0.00934175 0.05254035 -0.01032905
v 0.00865354 0.05264729 -0.01032905
v 0.00761550 0.05280283 -0.01032905
v 0.00308611 0.05322281 -0.01032905
v 0.00159994 0.05326947 -0.01032905
v -0.00016746 0.05354361 -0.00986266
v 0.02318830 0.04912033 -0.00867620
v 0.02101392 0.05035885 -0.00816572
v 0.02175243 0.05017997 -0.00788651
v 0.02318830 0.04935753 -0.00821600
v 0.02014279 0.04949946 -0.01032905
v 0.02004676 0.04965306 -0.01014806
v 0.01945000 0.05061161 -0.00887111
v 0.02139803 0.05098491 -0.00642469
v 0.01953232 0.05195512 -0.00574174
v 0.02073497 0.05265312 -0.00242830
v 0.01895385 0.05260257 -0.00448489
v 0.01962606 0.05299726 -0.00261934
v 0.02002618 0.05291366 -0.00242830
v 0.02318830 0.05054356 -0.00558705
v 0.02266471 0.05068160 -0.00583146
v 0.01181108 0.05525654 -0.00242830
v 0.01449305 0.05264534 -0.00800175
v 0.01335441 0.05492018 -0.00242830
v 0.01336127 0.05491435 -0.00244376
v 0.01395574 0.05439911 -0.00371454
v 0.01454564 0.05382943 -0.00498144
v 0.01513782 0.05320725 -0.00625144
v 0.01573229 0.05250536 -0.00752144
v 0.01240555 0.05194151 -0.01032905
v 0.01505551 0.05177819 -0.00938467
v 0.01378655 0.05180152 -0.00997791
v 0.01086222 0.05226426 -0.01032905
v 0.01002082 0.05242370 -0.01032905
v 0.02012450 0.05123573 -0.00700942
v 0.01885782 0.05144571 -0.00760420
v 0.02318830 0.04989221 -0.00713936
v 0.01965807 0.04969001 -0.01032905
v 0.01857202 0.05009442 -0.01032905
v 0.01818790 0.05068354 -0.00956179
v 0.01758886 0.05160709 -0.00819589
v 0.02318830 0.04997387 -0.00695064
v 0.01826793 0.05216705 -0.00633884
v 0.01768032 0.05281839 -0.00507348
v 0.01709728 0.05344445 -0.00381276
v 0.01910018 0.05322669 -0.00242830
v 0.01953689 0.05308476 -0.00242830
v 0.02318830 0.05036274 -0.00602250
v 0.01632219 0.05171986 -0.00878989
v 0.01339557 0.05491046 -0.00242830
v 0.01442674 0.05465381 -0.00242830
v 0.01522242 0.05424745 -0.00312208
v 0.01581231 0.05366416 -0.00438821
v 0.01640678 0.05303032 -0.00566130
v 0.01700582 0.05235565 -0.00693672
v 0.01304346 0.05178791 -0.01032905
v 0.01549450 0.05109963 -0.01032905
v 0.01691665 0.05082548 -0.01006299
v 0.01634276 0.05084492 -0.01032905
v 0.01395117 0.05154876 -0.01032905
v 0.01700811 0.05063299 -0.01032905
v 0.01648681 0.05403552 -0.00252575
v 0.01669945 0.05399858 -0.00242830
v 0.01798898 0.05358445 -0.00242830
v 0.01490003 0.05453132 -0.00242830
v 0.01644108 0.05407636 -0.00242830
f 1 2 3
f 1 3 4
f 1 4 5
f 1 5 12
f 1 12 23
f 1 23 35
f 1 35 52
f 1 52 76
f 1 76 105
f 1 105 132
f 1 132 135
f 1 135 163
f 1 163 162
f 1 162 180
f 1 180 179
f 1 179 182
f 1 182 181
f 1 181 167
f 1 167 166
f 1 166 140
f 1 140 138
f 1 138 108
f 1 108 79
f 1 79 78
f 1 78 77
f 1 77 53
f 1 53 37
f 1 37 36
f 1 36 24
f 1 24 14
f 1 14 13
f 1 13 6
f 1 6 2
f 2 6 7
f 2 7 3
f 3 7 8
f 3 8 9
f 3 9 10
f 3 10 11
f 3 11 4
f 4 11 20
f 4 20 19
f 4 19 32
f 4 32 47
f 4 47 67
f 4 67 66
f 4 66 65
f 4 65 95
f 4 95 122
f 4 122 96
f 4 96 68
f 4 68 48
f 4 48 33
f 4 33 21
f 4 21 12
f 4 12 5
f 6 13 7
f 7 13 14
f 7 14 15
f 7 15 8
f 8 15 16
f 8 16 9
f 9 16 17
f 9 17 18
f 9 18 10
f 10 18 19
f 10 19 20
f 10 20 11
f 12 21 22
f 12 22 23
f 14 24 15
f 15 24 25
f 15 25 26
f 15 26 27
f 15 27 16
f 16 27 28
f 16 28 29
f 16 29 17
f 17 29 30
f 17 30 31
f 17 31 18
f 18 31 32
f 18 32 19
f 21 33 34
f 21 34 22
f 22 34 49
f 22 49 70
f 22 70 99
f 22 99 123
f 22 123 126
f 22 126 153
f 22 153 158
f 22 158 164
f 22 164 136
f 22 136 106
f 22 106 75
f 22 75 73
f 22 73 50
f 22 50 35
f 22 35 23
f 24 36 25
f 25 36 37
f 25 37 38
f 25 38 26
f 26 39 27
f 26 38 40
f 26 40 39
f 27 39 28
f 28 39 41
f 28 41 42
f 28 42 29
f 29 43 30
f 29 42 43
f 30 43 44
f 30 44 45
f 30 45 31
f 31 46 47
f 31 47 32
f 31 45 46
f 33 48 69
f 33 69 98
f 33 98 121
f 33 121 120
f 33 120 91
f 33 91 90
f 33 90 93
f 33 93 89
f 33 89 88
f 33 88 119
f 33 119 118
f 33 118 117
f 33 117 150
f 33 150 149
f 33 149 146
f 33 146 172
f 33 172 176
f 33 176 173
f 33 173 175
f 33 175 177
f 33 177 155
f 33 155 154
f 33 154 127
f 33 127 101
f 33 101 71
f 33 71 49
f 33 49 34
f 35 50 51
f 35 51 52
f 37 53 54
f 37 54 38
f 38 54 40
f 39 40 55
f 39 55 41
f 40 54 56
f 40 56 57
f 40 57 55
f 41 55 58
f 41 58 59
f 41 59 42
f 42 59 60
f 42 60 43
f 43 60 61
f 43 61 44
f 44 61 62
f 44 62 63
f 44 63 45
f 45 63 64
f 45 64 46
f 46 64 65
f 46 65 66
f 46 66 67
f 46 67 47
f 48 68 69
f 49 71 72
f 49 72 70
f 50 73 51
f 51 74 52
f 51 73 75
f 51 75 74
f 52 74 76
f 53 77 54
f 54 77 78
f 54 78 79
f 54 79 56
f 55 57 80
f 55 80 58
f 56 79 81
f 56 81 82
f 56 82 57
f 57 82 83
f 57 83 80
f 58 80 84
f 58 84 85
f 58 85 59
f 59 86 60
f 59 85 86
f 60 87 61
f 60 86 87
f 61 87 88
f 61 88 89
f 61 89 62
f 62 90 91
f 62 91 92
f 62 92 63
f 62 89 93
f 62 93 90
f 63 92 94
f 63 94 64
f 64 94 95
f 64 95 65
f 68 96 97
f 68 97 69
f 69 97 98
f 70 72 100
f 70 100 99
f 71 101 102
f 71 102 72
f 72 102 100
f 74 103 104
f 74 104 105
f 74 105 76
f 74 75 106
f 74 106 107
f 74 107 103
f 79 108 81
f 80 83 109
f 80 109 84
f 81 108 110
f 81 110 111
f 81 111 82
f 82 111 83
f 83 111 112
f 83 112 113
f 83 113 109
f 84 109 114
f 84 114 115
f 84 115 85
f 85 115 116
f 85 116 86
f 86 116 117
f 86 117 87
f 87 117 118
f 87 118 119
f 87 119 88
f 91 120 92
f 92 120 121
f 92 121 94
f 94 97 122
f 94 122 95
f 94 121 97
f 96 122 97
f 97 121 98
f 99 100 123
f 100 102 124
f 100 124 125
f 100 125 126
f 100 126 123
f 101 127 128
f 101 128 102
f 102 128 129
f 102 129 124
f 103 107 130
f 103 130 131
f 103 131 104
f 104 132 105
f 104 131 133
f 104 133 134
f 104 134 135
f 104 135 132
f 106 136 107
f 107 137 130
f 107 136 137
f 108 138 110
f 109 113 139
f 109 139 114
f 110 138 140
f 110 140 141
f 110 141 142
f 110 142 111
f 111 142 112
f 112 142 143
f 112 143 113
f 113 143 144
f 113 144 145
f 113 145 139
f 114 146 115
f 114 139 147
f 114 147 148
f 114 148 146
f 115 146 116
f 116 149 150
f 116 150 117
f 116 146 149
f 124 151 130
f 124 130 125
f 124 129 152
f 124 152 151
f 125 130 153
f 125 153 126
f 127 154 128
f 128 154 155
f 128 155 156
f 128 156 129
f 129 156 157
f 129 157 152
f 130 151 131
f 130 137 158
f 130 158 153
f 131 159 133
f 131 151 159
f 133 159 160
f 133 160 161
f 133 161 134
f 134 162 163
f 134 163 135
f 134 161 162
f 136 164 137
f 137 164 158
f 139 145 165
f 139 165 147
f 140 166 141
f 141 166 142
f 142 166 167
f 142 167 168
f 142 168 143
f 143 168 169
f 143 169 144
f 144 169 170
f 144 170 171
f 144 171 145
f 145 171 157
f 145 157 165
f 146 148 172
f 147 173 148
f 147 165 174
f 147 174 175
f 147 175 173
f 148 173 176
f 148 176 172
f 151 152 159
f 152 157 171
f 152 171 159
f 155 177 174
f 155 174 156
f 156 174 165
f 156 165 157
f 159 171 170
f 159 170 160
f 160 170 161
f 161 170 169
f 161 169 168
f 161 168 178
f 161 178 179
f 161 179 180
f 161 180 162
f 167 181 168
f 168 181 182
f 168 182 178
f 174 177 175
f 178 182 179

