# https://github.com/mikedh/trimesh
v 0.02694469 0.05222939 0.01296131
v 0.02739601 0.05201013 0.01296131
v 0.02694469 0.05220049 0.01172635
v 0.02694469 0.04305617 0.01296131
v 0.02780320 0.05179427 0.01296131
v 0.02816627 0.05157161 0.01218089
v 0.02694469 0.05219539 0.01161391
v 0.02694469 0.03928457 0.00322644
v 0.03696598 0.03486708 0.01296131
v 0.02935574 0.05092063 0.01296131
v 0.02749831 0.05181126 0.01031986
v 0.02944600 0.05086454 0.01277264
v 0.02876000 0.05115348 0.01091257
v 0.02694469 0.05218689 0.01148527
v 0.03241668 0.03486708 0.00322644
v 0.02694469 0.05127076 0.00322644
v 0.04743457 0.03486708 0.01296131
v 0.02985119 0.05062318 0.01296131
v 0.02935775 0.05072177 0.00964330
v 0.02809004 0.05137954 0.00905059
v 0.02741607 0.05158181 0.00719052
v 0.02694469 0.05196933 0.00879522
v 0.02694469 0.05207642 0.01005972
v 0.03003573 0.05044811 0.01150337
v 0.04637547 0.03486708 0.00322644
v 0.02694469 0.05139144 0.00388680
v 0.02732180 0.05122827 0.00406309
v 0.02771094 0.05087134 0.00322644
v 0.04741852 0.03486708 0.01188930
v 0.04733227 0.03498266 0.01184927
v 0.04735433 0.03497246 0.01296131
v 0.03089825 0.04997560 0.01296131
v 0.03129541 0.04969685 0.01209608
v 0.02867575 0.05094782 0.00778418
v 0.03062746 0.05001809 0.01023410
v 0.02995148 0.05028155 0.00837403
v 0.02926548 0.05049401 0.00651587
v 0.02800379 0.05112799 0.00592221
v 0.02694469 0.05180446 0.00697326
v 0.02694469 0.05191664 0.00819774
v 0.03188914 0.04927023 0.01082681
v 0.04621501 0.03507444 0.00322644
v 0.04622503 0.03506934 0.00325217
v 0.04639954 0.03486708 0.00334174
v 0.02694469 0.05154611 0.00487592
v 0.02859151 0.05063678 0.00465485
v 0.02806998 0.05067587 0.00322644
v 0.02694469 0.05162600 0.00542956
v 0.04741250 0.03486708 0.01175970
v 0.04724401 0.03497586 0.01026841
v 0.04621300 0.03638320 0.01132613
v 0.04626314 0.03639850 0.01288508
v 0.04626515 0.03639850 0.01296131
v 0.03244677 0.04898808 0.01296131
v 0.03257314 0.04889800 0.01268688
v 0.03249090 0.04881302 0.00955659
v 0.03121317 0.04956938 0.00896579
v 0.03053719 0.04981243 0.00710667
v 0.02986724 0.04999770 0.00524469
v 0.03316086 0.04846798 0.01141856
v 0.04492925 0.03664155 0.00322644
v 0.04550092 0.03638150 0.00481970
v 0.04678066 0.03486708 0.00526852
v 0.02918524 0.05009288 0.00338462
v 0.02884425 0.05025095 0.00322644
v 0.04732625 0.03486708 0.01030748
v 0.04731622 0.03486708 0.01017693
v 0.04709959 0.03499116 0.00864561
v 0.04611471 0.03637980 0.00973859
v 0.04512181 0.03780074 0.01235146
v 0.04618492 0.03649878 0.01296131
v 0.03316286 0.04851217 0.01296131
v 0.03375259 0.04801076 0.01014929
v 0.03306859 0.04831671 0.00829018
v 0.03180089 0.04908837 0.00769937
v 0.03113694 0.04930083 0.00583645
v 0.03044893 0.04945380 0.00397828
v 0.03372852 0.04813314 0.01296131
v 0.03443057 0.04762153 0.01200936
v 0.04470660 0.03690670 0.00322644
v 0.04423923 0.03773105 0.00422699
v 0.04490718 0.03735882 0.00608801
v 0.04578375 0.03638320 0.00649300
v 0.04672249 0.03497246 0.00539621
v 0.04680874 0.03486708 0.00543527
v 0.02925946 0.05001640 0.00322644
v 0.03017814 0.04946740 0.00322644
v 0.04719387 0.03486708 0.00868849
v 0.04694313 0.03499116 0.00702948
v 0.04581784 0.03655147 0.00793284
v 0.04490317 0.03778204 0.00917257
v 0.04502553 0.03779054 0.01076868
v 0.04393033 0.03918768 0.01180639
v 0.04400856 0.03916899 0.01296131
v 0.04449999 0.03858090 0.01296131
v 0.04514387 0.03779394 0.01296131
v 0.03501628 0.04716262 0.01074105
v 0.03435033 0.04749746 0.00888002
v 0.03239863 0.04855636 0.00642915
v 0.03367436 0.04775921 0.00701995
v 0.03171864 0.04874673 0.00456908
v 0.03079796 0.04909006 0.00322644
v 0.03399129 0.04795297 0.01296131
v 0.03477959 0.04740567 0.01296131
v 0.04387617 0.03787553 0.00322644
v 0.04316008 0.03868458 0.00322644
v 0.04296752 0.03900922 0.00363524
v 0.04363747 0.03868118 0.00549721
v 0.04432348 0.03823246 0.00735633
v 0.04702337 0.03486708 0.00693038
v 0.04703741 0.03486708 0.00707427
v 0.04372573 0.03904321 0.00862465
v 0.04337270 0.03959561 0.01007497
v 0.04254829 0.04061372 0.01116223
v 0.04321022 0.04005962 0.01296131
v 0.03553179 0.04686517 0.01296131
v 0.03569827 0.04673260 0.01260112
v 0.03629201 0.04623459 0.01133280
v 0.03559196 0.04663742 0.00947464
v 0.03494808 0.04691956 0.00761076
v 0.03298836 0.04798017 0.00516084
v 0.03426007 0.04716602 0.00575164
v 0.03216194 0.04820283 0.00322644
v 0.03122520 0.04881302 0.00322644
v 0.03231840 0.04811444 0.00329886
v 0.04281708 0.03906531 0.00322644
v 0.04209497 0.03984206 0.00322644
v 0.04177001 0.04018880 0.00322644
v 0.04238582 0.03991175 0.00490165
v 0.04305377 0.03952592 0.00676458
v 0.04247006 0.04030608 0.00803194
v 0.04188435 0.04105904 0.00929930
v 0.04128460 0.04179841 0.01056952
v 0.04195054 0.04130210 0.01243055
v 0.04303972 0.04023469 0.01296131
v 0.04314804 0.04012421 0.01296131
v 0.03646853 0.04614961 0.01296131
v 0.03688374 0.04583006 0.01296131
v 0.03707831 0.04567199 0.01296131
v 0.03757175 0.04522158 0.01192360
v 0.03687572 0.04567709 0.01006448
v 0.03620776 0.04602893 0.00820346
v 0.03552577 0.04631787 0.00634435
v 0.03484779 0.04653033 0.00448428
v 0.03357206 0.04734448 0.00389443
v 0.03229232 0.04811614 0.00322644
v 0.03389099 0.04696716 0.00322644
v 0.03235250 0.04807365 0.00322644
v 0.04161556 0.04034857 0.00322644
v 0.04110407 0.04111513 0.00431275
v 0.04178406 0.04075989 0.00617282
v 0.04118831 0.04153495 0.00744209
v 0.04059859 0.04225732 0.00870945
v 0.03999884 0.04295419 0.00997968
v 0.04069889 0.04244428 0.01183784
v 0.04220328 0.04106074 0.01296131
v 0.04016533 0.04297459 0.01296131
v 0.04170583 0.04154005 0.01296131
v 0.03793882 0.04495302 0.01296131
v 0.03882742 0.04416437 0.01251631
v 0.03814342 0.04465388 0.01065624
v 0.03748550 0.04506011 0.00879331
v 0.03679748 0.04540344 0.00693515
v 0.03611549 0.04567709 0.00507603
v 0.03672327 0.04498532 0.00380295
v 0.03548766 0.04579947 0.00322644
v 0.04070891 0.04125451 0.00322644
v 0.03983837 0.04224032 0.00372100
v 0.04051234 0.04193778 0.00558202
v 0.03992864 0.04267375 0.00684938
v 0.03933891 0.04337062 0.00811675
v 0.03874317 0.04403349 0.00938697
v 0.03941513 0.04357628 0.01124704
v 0.03898989 0.04403349 0.01296131
v 0.03861881 0.04436493 0.01296131
v 0.03806519 0.04441932 0.00752690
v 0.03738119 0.04475756 0.00566778
v 0.03697801 0.04465388 0.00322644
v 0.03650663 0.04501931 0.00322644
v 0.03797091 0.04407259 0.00439851
v 0.04006704 0.04189529 0.00322644
v 0.03965985 0.04228282 0.00322644
v 0.03876724 0.04312756 0.00322644
v 0.03924865 0.04303918 0.00498931
v 0.03866695 0.04374285 0.00625668
v 0.03753364 0.04419156 0.00322644
v 0.03851651 0.04335702 0.00322644
v 0.03859474 0.04328563 0.00322644
f 1 2 3
f 1 3 7
f 1 7 14
f 1 14 23
f 1 23 22
f 1 22 40
f 1 40 39
f 1 39 48
f 1 48 45
f 1 45 26
f 1 26 16
f 1 16 8
f 1 8 4
f 1 4 9
f 1 9 17
f 1 17 31
f 1 31 53
f 1 53 71
f 1 71 96
f 1 96 95
f 1 95 94
f 1 94 115
f 1 115 136
f 1 136 135
f 1 135 156
f 1 156 158
f 1 158 157
f 1 157 174
f 1 174 175
f 1 175 159
f 1 159 139
f 1 139 138
f 1 138 137
f 1 137 116
f 1 116 104
f 1 104 103
f 1 103 78
f 1 78 72
f 1 72 54
f 1 54 32
f 1 32 18
f 1 18 10
f 1 10 5
f 1 5 2
f 2 5 6
f 2 6 3
f 3 6 7
f 4 8 9
f 5 10 6
f 6 11 7
f 6 10 12
f 6 12 13
f 6 13 11
f 7 11 14
f 8 15 9
f 8 16 28
f 8 28 47
f 8 47 65
f 8 65 86
f 8 86 87
f 8 87 102
f 8 102 124
f 8 124 123
f 8 123 146
f 8 146 148
f 8 148 147
f 8 147 166
f 8 166 179
f 8 179 178
f 8 178 186
f 8 186 187
f 8 187 188
f 8 188 183
f 8 183 182
f 8 182 181
f 8 181 167
f 8 167 149
f 8 149 128
f 8 128 127
f 8 127 126
f 8 126 106
f 8 106 105
f 8 105 80
f 8 80 61
f 8 61 42
f 8 42 25
f 8 25 15
f 9 15 25
f 9 25 44
f 9 44 63
f 9 63 85
f 9 85 110
f 9 110 111
f 9 111 88
f 9 88 67
f 9 67 66
f 9 66 49
f 9 49 29
f 9 29 17
f 10 18 12
f 11 13 19
f 11 19 20
f 11 20 21
f 11 21 22
f 11 22 23
f 11 23 14
f 12 18 24
f 12 24 13
f 13 24 19
f 16 26 27
f 16 27 28
f 17 29 30
f 17 30 31
f 18 32 33
f 18 33 24
f 19 34 20
f 19 24 35
f 19 35 36
f 19 36 34
f 20 34 21
f 21 34 37
f 21 37 38
f 21 38 39
f 21 39 40
f 21 40 22
f 24 33 41
f 24 41 35
f 25 42 43
f 25 43 44
f 26 45 27
f 27 46 47
f 27 47 28
f 27 45 48
f 27 48 46
f 29 49 30
f 30 50 51
f 30 51 52
f 30 52 53
f 30 53 31
f 30 49 50
f 32 54 33
f 33 54 55
f 33 55 41
f 34 36 37
f 35 41 56
f 35 56 57
f 35 57 36
f 36 57 58
f 36 58 37
f 37 58 59
f 37 59 38
f 38 46 48
f 38 48 39
f 38 59 46
f 41 55 60
f 41 60 56
f 42 61 43
f 43 61 62
f 43 62 63
f 43 63 44
f 46 59 64
f 46 64 47
f 47 64 65
f 49 66 50
f 50 66 67
f 50 67 68
f 50 68 69
f 50 69 51
f 51 69 70
f 51 70 52
f 52 70 71
f 52 71 53
f 54 72 55
f 55 72 60
f 56 60 73
f 56 73 74
f 56 74 75
f 56 75 57
f 57 75 58
f 58 75 76
f 58 76 59
f 59 76 77
f 59 77 64
f 60 72 78
f 60 78 79
f 60 79 73
f 61 80 81
f 61 81 62
f 62 81 82
f 62 82 83
f 62 83 84
f 62 84 63
f 63 84 85
f 64 86 65
f 64 77 87
f 64 87 86
f 67 88 68
f 68 88 89
f 68 89 90
f 68 90 69
f 69 90 91
f 69 91 92
f 69 92 70
f 70 92 93
f 70 93 94
f 70 94 95
f 70 95 96
f 70 96 71
f 73 79 97
f 73 97 98
f 73 98 74
f 74 99 75
f 74 98 100
f 74 100 99
f 75 99 76
f 76 99 101
f 76 101 77
f 77 102 87
f 77 101 102
f 78 103 79
f 79 104 97
f 79 103 104
f 80 105 81
f 81 105 106
f 81 106 107
f 81 107 108
f 81 108 82
f 82 108 109
f 82 109 83
f 83 109 90
f 83 90 89
f 83 89 84
f 84 89 85
f 85 89 110
f 88 111 89
f 89 111 110
f 90 109 91
f 91 109 93
f 91 93 92
f 93 112 113
f 93 113 114
f 93 114 115
f 93 115 94
f 93 109 112
f 97 104 116
f 97 116 117
f 97 117 118
f 97 118 119
f 97 119 98
f 98 119 120
f 98 120 100
f 99 100 121
f 99 121 101
f 100 120 122
f 100 122 121
f 101 123 124
f 101 124 102
f 101 121 125
f 101 125 123
f 106 126 107
f 107 126 127
f 107 127 128
f 107 128 129
f 107 129 108
f 108 129 130
f 108 130 109
f 109 130 112
f 112 130 131
f 112 131 114
f 112 114 113
f 114 131 132
f 114 132 133
f 114 133 134
f 114 134 135
f 114 135 136
f 114 136 115
f 116 137 117
f 117 137 138
f 117 138 118
f 118 138 139
f 118 139 140
f 118 140 141
f 118 141 119
f 119 141 142
f 119 142 120
f 120 142 143
f 120 143 122
f 121 122 144
f 121 144 145
f 121 145 125
f 122 143 144
f 123 125 146
f 125 145 147
f 125 147 148
f 125 148 146
f 128 149 150
f 128 150 129
f 129 150 151
f 129 151 130
f 130 151 131
f 131 151 152
f 131 152 132
f 132 152 133
f 133 152 153
f 133 153 154
f 133 154 155
f 133 155 134
f 134 156 135
f 134 155 157
f 134 157 158
f 134 158 156
f 139 159 140
f 140 159 160
f 140 160 161
f 140 161 141
f 141 161 162
f 141 162 142
f 142 162 163
f 142 163 143
f 143 163 164
f 143 164 144
f 144 164 165
f 144 165 166
f 144 166 145
f 145 166 147
f 149 167 150
f 150 167 168
f 150 168 169
f 150 169 151
f 151 169 152
f 152 169 170
f 152 170 153
f 153 170 171
f 153 171 154
f 154 171 172
f 154 172 173
f 154 173 155
f 155 173 160
f 155 160 157
f 157 160 174
f 159 175 160
f 160 175 174
f 160 173 161
f 161 173 172
f 161 172 162
f 162 172 176
f 162 176 163
f 163 176 177
f 163 177 164
f 164 177 165
f 165 178 179
f 165 179 166
f 165 177 180
f 165 180 178
f 167 181 168
f 168 181 182
f 168 182 183
f 168 183 184
f 168 184 169
f 169 184 170
f 170 184 185
f 170 185 171
f 171 185 176
f 171 176 172
f 176 185 177
f 177 185 180
f 178 180 186
f 180 187 186
f 180 185 184
f 180 184 187
f 183 188 184
f 184 188 187

