# https://github.com/mikedh/trimesh
v 0.00981132 -0.05532723 -0.00251195
v 0.00981132 -0.05531301 -0.00255679
v 0.00990660 -0.05530894 -0.00251195
v 0.00981132 -0.04280822 -0.00251195
v 0.00981132 -0.05508742 -0.00326224
v 0.01083120 -0.05476225 -0.00363427
v 0.01030714 -0.05522765 -0.00251195
v 0.01882438 -0.03962563 -0.00251195
v 0.01882438 -0.03456519 -0.00675334
v 0.00981132 -0.03820098 -0.00675334
v 0.00981132 -0.05480899 -0.00411010
v 0.01185108 -0.05490451 -0.00251195
v 0.01015099 -0.05425621 -0.00549027
v 0.01141790 -0.05419321 -0.00489734
v 0.01209811 -0.05468299 -0.00304259
v 0.01882438 -0.05292098 -0.00251195
v 0.01882438 -0.05131343 -0.00675334
v 0.00981132 -0.05381723 -0.00675334
v 0.00981132 -0.05458138 -0.00476198
v 0.01269275 -0.05471347 -0.00251195
v 0.00981132 -0.05426434 -0.00564763
v 0.01073680 -0.05363839 -0.00675044
v 0.01200724 -0.05358555 -0.00616789
v 0.01267157 -0.05387413 -0.00499201
v 0.01381497 -0.05394933 -0.00401211
v 0.01852265 -0.05302869 -0.00251195
v 0.01882438 -0.05288643 -0.00262323
v 0.01882438 -0.05144959 -0.00646477
v 0.01839472 -0.05147398 -0.00675334
v 0.01073062 -0.05363839 -0.00675334
v 0.01306947 -0.05462202 -0.00251195
v 0.01227897 -0.05326851 -0.00675334
v 0.01389172 -0.05329086 -0.00574396
v 0.01412375 -0.05281124 -0.00675334
v 0.01478015 -0.05355303 -0.00442359
v 0.01397818 -0.05437205 -0.00260122
v 0.01820151 -0.05313640 -0.00251195
v 0.01818739 -0.05306528 -0.00277229
v 0.01882438 -0.05272791 -0.00312896
v 0.01882438 -0.05163047 -0.00604541
v 0.01668404 -0.05215277 -0.00655819
v 0.01693901 -0.05198002 -0.00675334
v 0.01369498 -0.05446960 -0.00251195
v 0.01444842 -0.05272181 -0.00675334
v 0.01576562 -0.05261614 -0.00612264
v 0.01644319 -0.05289659 -0.00488987
v 0.01572592 -0.05360384 -0.00349268
v 0.01521333 -0.05406111 -0.00251195
v 0.01405494 -0.05437611 -0.00251195
v 0.01390231 -0.05441676 -0.00251195
v 0.01785655 -0.05324818 -0.00251195
v 0.01686490 -0.05355913 -0.00251195
v 0.01702547 -0.05319534 -0.00353669
v 0.01822709 -0.05261207 -0.00408893
v 0.01882438 -0.05254704 -0.00367288
v 0.01882438 -0.05191702 -0.00535657
v 0.01837972 -0.05208977 -0.00533747
v 0.01585826 -0.05231535 -0.00675334
v 0.01652965 -0.05211416 -0.00675334
v 0.01536331 -0.05401843 -0.00251195
v 0.01534920 -0.05402249 -0.00251195
v 0.01882438 -0.05240071 -0.00407190
v 0.01882438 -0.05206131 -0.00497956
f 1 2 3
f 1 3 7
f 1 7 12
f 1 12 20
f 1 20 31
f 1 31 43
f 1 43 50
f 1 50 49
f 1 49 48
f 1 48 61
f 1 61 60
f 1 60 52
f 1 52 51
f 1 51 37
f 1 37 26
f 1 26 16
f 1 16 8
f 1 8 4
f 1 4 10
f 1 10 18
f 1 18 21
f 1 21 19
f 1 19 11
f 1 11 5
f 1 5 2
f 2 5 3
f 3 5 6
f 3 6 7
f 4 8 9
f 4 9 10
f 5 11 6
f 6 12 7
f 6 11 13
f 6 13 14
f 6 14 15
f 6 15 12
f 8 16 27
f 8 27 39
f 8 39 55
f 8 55 62
f 8 62 63
f 8 63 56
f 8 56 40
f 8 40 28
f 8 28 17
f 8 17 9
f 9 17 29
f 9 29 42
f 9 42 59
f 9 59 58
f 9 58 44
f 9 44 34
f 9 34 32
f 9 32 30
f 9 30 18
f 9 18 10
f 11 19 13
f 12 15 20
f 13 19 21
f 13 21 22
f 13 22 23
f 13 23 14
f 14 23 24
f 14 24 15
f 15 24 25
f 15 25 20
f 16 26 27
f 17 28 29
f 18 30 22
f 18 22 21
f 20 25 31
f 22 30 32
f 22 32 23
f 23 33 24
f 23 32 34
f 23 34 33
f 24 33 25
f 25 33 35
f 25 35 36
f 25 36 31
f 26 37 38
f 26 38 39
f 26 39 27
f 28 40 41
f 28 41 42
f 28 42 29
f 31 36 43
f 33 34 44
f 33 44 45
f 33 45 35
f 35 45 46
f 35 46 47
f 35 47 36
f 36 48 49
f 36 49 50
f 36 50 43
f 36 47 48
f 37 51 38
f 38 51 52
f 38 52 53
f 38 53 54
f 38 54 55
f 38 55 39
f 40 56 57
f 40 57 41
f 41 45 58
f 41 58 59
f 41 59 42
f 41 57 46
f 41 46 45
f 44 58 45
f 46 53 47
f 46 57 54
f 46 54 53
f 47 53 60
f 47 60 61
f 47 61 48
f 52 60 53
f 54 57 62
f 54 62 55
f 56 63 57
f 57 63 62

