# https://github.com/mikedh/trimesh
v -0.03967359 -0.01553147 -0.00433681
v -0.03578472 -0.02247098 -0.00433681
v -0.05081596 -0.01553147 -0.00433681
v -0.04447690 -0.01553147 0.00176305
v -0.04138406 -0.02247098 0.00176723
v -0.05139648 -0.02247098 -0.00433681
v -0.05362922 -0.01651982 -0.00433681
v -0.05392433 -0.01553147 -0.00433442
v -0.04478755 -0.01553147 0.00176723
v -0.04403812 -0.01673719 0.00176723
v -0.05320597 -0.02247098 0.00176723
v -0.05141395 -0.02247098 -0.00429318
v -0.05142172 -0.02241664 -0.00433681
v -0.05354186 -0.01681462 -0.00433681
v -0.05355350 -0.01681462 -0.00430215
v -0.05428934 -0.01553147 -0.00323062
v -0.05561734 -0.01553147 0.00176723
v -0.05323121 -0.02241528 0.00176723
v -0.05293222 -0.02247098 0.00066045
v -0.05171877 -0.02247098 -0.00344517
v -0.05174013 -0.02241596 -0.00345533
v -0.05225074 -0.02101393 -0.00369377
v -0.05201582 -0.02101597 -0.00433681
v -0.05307589 -0.01821801 -0.00433681
v -0.05315743 -0.01821801 -0.00411569
v -0.05359622 -0.01821734 -0.00277524
v -0.05399228 -0.01681327 -0.00296229
v -0.05432623 -0.01553147 -0.00311827
v -0.05546202 -0.01553147 0.00104352
v -0.05510284 -0.01681734 0.00115528
v -0.05523292 -0.01681462 0.00176723
v -0.05344866 -0.02101597 0.00038136
v -0.05294387 -0.02242275 0.00062101
v -0.05379037 -0.02100985 0.00176723
v -0.05292445 -0.02247098 0.00062937
v -0.05215755 -0.02247098 -0.00210591
v -0.05217891 -0.02241596 -0.00211547
v -0.05235559 -0.02015600 -0.00433681
v -0.05268759 -0.02100985 -0.00235512
v -0.05316326 -0.01961393 -0.00257564
v -0.05272059 -0.01961597 -0.00391310
v -0.05256721 -0.01961665 -0.00433681
v -0.05356127 -0.01961461 -0.00121666
v -0.05399228 -0.01821462 -0.00141686
v -0.05439612 -0.01681666 -0.00160451
v -0.05473006 -0.01553147 -0.00175929
v -0.05545037 -0.01553147 0.00099332
v -0.05493975 -0.01772758 0.00176723
v -0.05476113 -0.01681666 -0.00023000
v -0.05435535 -0.01821666 -0.00004115
v -0.05469318 -0.01821734 0.00134651
v -0.05392045 -0.01961597 0.00016084
v -0.05308754 -0.02101597 -0.00099494
v -0.05257304 -0.02241596 -0.00075470
v -0.05429711 -0.01961937 0.00176723
v -0.05425439 -0.01962005 0.00155388
v -0.05253615 -0.02247098 -0.00079833
v -0.05509701 -0.01553147 -0.00038777
v -0.05477860 -0.01821666 0.00176723
f 1 2 6
f 1 6 13
f 1 13 23
f 1 23 38
f 1 38 42
f 1 42 24
f 1 24 14
f 1 14 7
f 1 7 3
f 1 3 8
f 1 8 16
f 1 16 28
f 1 28 46
f 1 46 58
f 1 58 47
f 1 47 29
f 1 29 17
f 1 17 9
f 1 9 4
f 1 4 2
f 2 4 5
f 2 5 11
f 2 11 19
f 2 19 35
f 2 35 57
f 2 57 36
f 2 36 20
f 2 20 12
f 2 12 6
f 3 7 8
f 4 9 10
f 4 10 5
f 5 10 9
f 5 9 17
f 5 17 31
f 5 31 48
f 5 48 59
f 5 59 55
f 5 55 34
f 5 34 18
f 5 18 11
f 6 12 13
f 7 14 8
f 8 14 15
f 8 15 16
f 11 18 19
f 12 20 21
f 12 21 13
f 13 21 22
f 13 22 23
f 14 24 25
f 14 25 15
f 15 25 26
f 15 26 27
f 15 27 28
f 15 28 16
f 17 29 30
f 17 30 31
f 18 32 33
f 18 33 19
f 18 34 32
f 19 33 35
f 20 36 21
f 21 36 37
f 21 37 22
f 22 38 23
f 22 37 39
f 22 39 40
f 22 40 41
f 22 41 38
f 24 42 25
f 25 41 40
f 25 40 26
f 25 42 41
f 26 40 43
f 26 43 44
f 26 44 45
f 26 45 27
f 27 45 28
f 28 45 46
f 29 47 30
f 30 48 31
f 30 47 49
f 30 49 50
f 30 50 51
f 30 51 48
f 32 34 52
f 32 52 43
f 32 43 53
f 32 53 33
f 33 53 54
f 33 54 35
f 34 55 56
f 34 56 52
f 35 54 57
f 36 57 54
f 36 54 37
f 37 54 53
f 37 53 39
f 38 41 42
f 39 53 40
f 40 53 43
f 43 52 50
f 43 50 44
f 44 50 49
f 44 49 45
f 45 49 58
f 45 58 46
f 47 58 49
f 48 51 59
f 50 52 51
f 51 52 56
f 51 56 59
f 55 59 56

