# https://github.com/mikedh/trimesh
v 0.02906720 -0.02121225 -0.00874954
v 0.02906720 -0.01488873 -0.01021259
v 0.02906319 -0.02237017 -0.00841217
v 0.02906720 -0.02237017 -0.01166038
v 0.01882538 -0.01488873 -0.01238766
v 0.02906720 -0.01488873 -0.02471083
v 0.01882538 -0.02237017 -0.01107889
v 0.02906720 -0.02237017 -0.02343426
v 0.01882538 -0.01488873 -0.02573140
v 0.02906720 -0.01541532 -0.02464471
v 0.02529632 -0.01488873 -0.02573140
v 0.01882538 -0.02237017 -0.02573140
v 0.02812172 -0.02237017 -0.02368686
v 0.02906720 -0.02101670 -0.02372246
v 0.02906720 -0.01681567 -0.02445314
v 0.02500456 -0.01535307 -0.02573140
v 0.02906720 -0.01744699 -0.02435990
v 0.02906720 -0.01821601 -0.02423784
v 0.01901287 -0.02237017 -0.02573140
v 0.02792922 -0.02237017 -0.02373772
v 0.02804352 -0.02101597 -0.02398693
v 0.02906720 -0.01961562 -0.02399371
v 0.02424958 -0.01650513 -0.02573140
v 0.02906720 -0.01875652 -0.02414798
v 0.01982098 -0.02175642 -0.02573140
v 0.02654058 -0.02237017 -0.02407339
v 0.02658470 -0.02237017 -0.02406322
v 0.02815280 -0.01961635 -0.02422088
v 0.02348257 -0.01759420 -0.02573140
v 0.02036140 -0.02123496 -0.02573140
v 0.02275968 -0.01844379 -0.02573140
f 1 2 3
f 1 3 4
f 1 4 8
f 1 8 14
f 1 14 22
f 1 22 24
f 1 24 18
f 1 18 17
f 1 17 15
f 1 15 10
f 1 10 6
f 1 6 2
f 2 5 3
f 2 6 11
f 2 11 9
f 2 9 5
f 3 5 7
f 3 7 12
f 3 12 19
f 3 19 26
f 3 26 27
f 3 27 20
f 3 20 13
f 3 13 8
f 3 8 4
f 5 9 12
f 5 12 7
f 6 10 11
f 8 13 14
f 9 11 16
f 9 16 23
f 9 23 29
f 9 29 31
f 9 31 30
f 9 30 25
f 9 25 19
f 9 19 12
f 10 15 11
f 11 15 17
f 11 17 18
f 11 18 16
f 13 20 14
f 14 20 21
f 14 21 22
f 16 18 23
f 18 24 23
f 19 25 26
f 20 27 21
f 21 28 22
f 21 27 29
f 21 29 28
f 22 28 24
f 23 24 29
f 24 28 29
f 25 30 26
f 26 30 27
f 27 30 31
f 27 31 29

