# https://github.com/mikedh/trimesh
v -0.02066191 0.02251112 -0.01069555
v -0.03296489 0.02251112 -0.00628357
v -0.02066191 0.01270507 -0.01208155
v -0.02066191 0.02251112 -0.02480562
v -0.03296489 0.01270507 -0.00881145
v -0.03296489 0.02251112 -0.02241555
v -0.02066191 0.01270507 -0.02639441
v -0.02066191 0.02251016 -0.02545728
v -0.02078956 0.02251112 -0.02543759
v -0.03296489 0.01270507 -0.02414019
v -0.03292153 0.02251112 -0.02243327
v -0.03291672 0.02237962 -0.02247068
v -0.03296489 0.02237098 -0.02245296
v -0.02588008 0.01270507 -0.02639441
v -0.02066191 0.01996266 -0.02639441
v -0.02082690 0.02251112 -0.02543169
v -0.03296489 0.01325028 -0.02408112
v -0.03287216 0.02251112 -0.02245296
v -0.03296489 0.02133240 -0.02271874
v -0.03296489 0.02222316 -0.02249234
v -0.03191716 0.02251112 -0.02280931
v -0.03296489 0.01398458 -0.02399647
v -0.03296489 0.01472464 -0.02390984
v -0.02587406 0.01271947 -0.02639441
v -0.02192882 0.01856701 -0.02639441
v -0.02733124 0.02251112 -0.02418153
v -0.02577410 0.02251112 -0.02452803
v -0.02561875 0.02251112 -0.02456150
v -0.02406763 0.02251112 -0.02486666
v -0.02212271 0.02251112 -0.02521709
v -0.02098225 0.02251112 -0.02540609
v -0.03135837 0.02251112 -0.02301602
v -0.03253134 0.01958351 -0.02326803
v -0.03296489 0.01958255 -0.02311446
v -0.03296489 0.01538407 -0.02381731
v -0.03216404 0.01538503 -0.02406734
v -0.02527071 0.01373117 -0.02639441
v -0.03236636 0.01693715 -0.02378384
v -0.03059245 0.01818306 -0.02410869
v -0.03072372 0.01958351 -0.02383503
v -0.02337155 0.01676437 -0.02639441
v -0.02909191 0.02251112 -0.02372871
v -0.02749021 0.02251112 -0.02414215
v -0.03124397 0.02251112 -0.02305540
v -0.03087425 0.02098396 -0.02351806
v -0.03238924 0.01818306 -0.02357318
v -0.03296489 0.01811395 -0.02338812
v -0.03296489 0.01916597 -0.02319518
v -0.03296489 0.01635642 -0.02367950
v -0.02407004 0.01571235 -0.02639441
v -0.03296489 0.01715888 -0.02355350
v -0.02923642 0.02238442 -0.02371690
v -0.02909191 0.02098396 -0.02402993
v -0.02925087 0.02251112 -0.02368343
v -0.03296489 0.01760426 -0.02348065
f 1 2 3
f 1 3 7
f 1 7 15
f 1 15 8
f 1 8 4
f 1 4 9
f 1 9 16
f 1 16 31
f 1 31 30
f 1 30 29
f 1 29 28
f 1 28 27
f 1 27 26
f 1 26 43
f 1 43 42
f 1 42 54
f 1 54 44
f 1 44 32
f 1 32 21
f 1 21 18
f 1 18 11
f 1 11 6
f 1 6 2
f 2 5 3
f 2 6 13
f 2 13 20
f 2 20 19
f 2 19 34
f 2 34 48
f 2 48 47
f 2 47 55
f 2 55 51
f 2 51 49
f 2 49 35
f 2 35 23
f 2 23 22
f 2 22 17
f 2 17 10
f 2 10 5
f 3 5 10
f 3 10 14
f 3 14 7
f 4 8 9
f 6 11 12
f 6 12 13
f 7 14 24
f 7 24 37
f 7 37 50
f 7 50 41
f 7 41 25
f 7 25 15
f 8 15 9
f 9 15 16
f 10 17 14
f 11 18 12
f 12 19 20
f 12 20 13
f 12 18 21
f 12 21 19
f 14 17 22
f 14 22 23
f 14 23 24
f 15 25 26
f 15 26 27
f 15 27 28
f 15 28 29
f 15 29 30
f 15 30 31
f 15 31 16
f 19 21 32
f 19 32 33
f 19 33 34
f 23 35 36
f 23 36 24
f 24 36 38
f 24 38 39
f 24 39 40
f 24 40 37
f 25 41 42
f 25 42 43
f 25 43 26
f 32 44 33
f 33 45 40
f 33 40 46
f 33 46 47
f 33 47 48
f 33 48 34
f 33 44 45
f 35 49 36
f 36 49 38
f 37 40 50
f 38 49 51
f 38 51 46
f 38 46 39
f 39 46 40
f 40 45 52
f 40 52 53
f 40 53 50
f 41 50 53
f 41 53 52
f 41 52 42
f 42 52 54
f 44 54 52
f 44 52 45
f 46 51 55
f 46 55 47

