# https://github.com/mikedh/trimesh
v 0.03982049 0.01949916 -0.00242620
v 0.04318757 0.01025237 -0.00242620
v 0.04928985 0.01025237 0.01107232
v 0.04642863 0.01949916 0.01107232
v 0.05332609 0.01949916 -0.00242620
v 0.05585717 0.01025237 -0.00242620
v 0.05795339 0.01025237 0.01107232
v 0.05554833 0.01949916 0.01107232
v 0.05335449 0.01949916 -0.00234031
v 0.05377693 0.01826897 -0.00242620
v 0.05568677 0.01118474 -0.00242620
v 0.05607549 0.01118384 -0.00106247
v 0.05625653 0.01025237 -0.00098715
v 0.05793741 0.01025237 0.01078953
v 0.05775282 0.01118565 0.01052656
v 0.05778299 0.01118474 0.01107232
v 0.05559625 0.01935523 0.01107232
v 0.05554833 0.01949916 0.01104853
v 0.05382308 0.01949916 -0.00070436
v 0.05379113 0.01826897 -0.00238127
v 0.05379468 0.01821828 -0.00242620
v 0.05561578 0.01154502 -0.00242620
v 0.05575245 0.01258240 -0.00121048
v 0.05618376 0.01258059 0.00054175
v 0.05649438 0.01118655 0.00066861
v 0.05667542 0.01025237 0.00075715
v 0.05792676 0.01025237 0.01060717
v 0.05784334 0.01025237 0.00953812
v 0.05762147 0.01118112 0.00893026
v 0.05745640 0.01258511 0.01039045
v 0.05749545 0.01258421 0.01107232
v 0.05760905 0.01203202 0.01107232
v 0.05598142 0.01817845 0.01107232
v 0.05546668 0.01949916 0.00955662
v 0.05591574 0.01818478 0.00966895
v 0.05386035 0.01949916 -0.00056561
v 0.05437509 0.01818478 -0.00031586
v 0.05444076 0.01677446 -0.00180645
v 0.05426859 0.01672105 -0.00242620
v 0.05539036 0.01258330 -0.00242620
v 0.05580747 0.01398277 0.00035807
v 0.05536018 0.01398639 -0.00140473
v 0.05652455 0.01258602 0.00222923
v 0.05617134 0.01398548 0.00206670
v 0.05683694 0.01118474 0.00237856
v 0.05702509 0.01025237 0.00246974
v 0.05779897 0.01025237 0.00900558
v 0.05746883 0.01118474 0.00730621
v 0.05731263 0.01258783 0.00876904
v 0.05765519 0.01025237 0.00738682
v 0.05697184 0.01398639 0.00861576
v 0.05711206 0.01397915 0.01024113
v 0.05733748 0.01324683 0.01107232
v 0.05603821 0.01798926 0.01107232
v 0.05546135 0.01949916 0.00946412
v 0.05633641 0.01678713 0.00986188
v 0.05621926 0.01678079 0.00827483
v 0.05578262 0.01818116 0.00807000
v 0.05545425 0.01949916 0.00937162
v 0.05427036 0.01949916 0.00117076
v 0.05477800 0.01818931 0.00140730
v 0.05489514 0.01678351 -0.00007007
v 0.05485077 0.01534512 -0.00189630
v 0.05465375 0.01547094 -0.00242620
v 0.05526966 0.01308932 -0.00242620
v 0.05537083 0.01538585 0.00014532
v 0.05576487 0.01538404 0.00187905
v 0.05505134 0.01398458 -0.00242620
v 0.05484012 0.01478569 -0.00242620
v 0.05644113 0.01398367 0.00374096
v 0.05679257 0.01258602 0.00389821
v 0.05711383 0.01118203 0.00405943
v 0.05606306 0.01538133 0.00356918
v 0.05730375 0.01025237 0.00414136
v 0.05750077 0.01025237 0.00577995
v 0.05730730 0.01118384 0.00568877
v 0.05715288 0.01258873 0.00714896
v 0.05681387 0.01398820 0.00699303
v 0.05645355 0.01538495 0.00682917
v 0.05660797 0.01538133 0.00845586
v 0.05715998 0.01398005 0.01107232
v 0.05673399 0.01538404 0.01005216
v 0.05639143 0.01678894 0.01107232
v 0.05678724 0.01538585 0.01107232
v 0.05605064 0.01678441 0.00664417
v 0.05559980 0.01818660 0.00643009
v 0.05529806 0.01949916 0.00774625
v 0.05530871 0.01949916 0.00784404
v 0.05459873 0.01949916 0.00279745
v 0.05512944 0.01817664 0.00313971
v 0.05529628 0.01678532 0.00165705
v 0.05562820 0.01677898 0.00336964
v 0.05627606 0.01538223 0.00521040
v 0.05664170 0.01398367 0.00537955
v 0.05698959 0.01258511 0.00553548
v 0.05586072 0.01678622 0.00500690
v 0.05700379 0.01457749 0.01107232
v 0.05539036 0.01818660 0.00478754
v 0.05511169 0.01949916 0.00620941
v 0.05461825 0.01949916 0.00289656
v 0.05487740 0.01949916 0.00445322
v 0.05489337 0.01949916 0.00455497
v 0.05509926 0.01949916 0.00611295
f 1 2 3
f 1 3 4
f 1 4 8
f 1 8 18
f 1 18 34
f 1 34 55
f 1 55 59
f 1 59 88
f 1 88 87
f 1 87 99
f 1 99 103
f 1 103 102
f 1 102 101
f 1 101 100
f 1 100 89
f 1 89 60
f 1 60 36
f 1 36 19
f 1 19 9
f 1 9 5
f 1 5 10
f 1 10 21
f 1 21 39
f 1 39 64
f 1 64 69
f 1 69 68
f 1 68 65
f 1 65 40
f 1 40 22
f 1 22 11
f 1 11 6
f 1 6 2
f 2 6 13
f 2 13 26
f 2 26 46
f 2 46 74
f 2 74 75
f 2 75 50
f 2 50 47
f 2 47 28
f 2 28 27
f 2 27 14
f 2 14 7
f 2 7 3
f 3 7 16
f 3 16 32
f 3 32 31
f 3 31 53
f 3 53 81
f 3 81 97
f 3 97 84
f 3 84 83
f 3 83 54
f 3 54 33
f 3 33 17
f 3 17 8
f 3 8 4
f 5 9 10
f 6 11 12
f 6 12 13
f 7 14 15
f 7 15 16
f 8 17 18
f 9 19 20
f 9 20 10
f 10 20 21
f 11 22 12
f 12 22 23
f 12 23 24
f 12 24 25
f 12 25 13
f 13 25 26
f 14 27 15
f 15 27 28
f 15 28 29
f 15 29 30
f 15 30 31
f 15 31 32
f 15 32 16
f 17 33 18
f 18 33 35
f 18 35 34
f 19 36 37
f 19 37 20
f 20 37 38
f 20 38 21
f 21 38 39
f 22 40 23
f 23 41 24
f 23 40 42
f 23 42 41
f 24 43 25
f 24 41 44
f 24 44 43
f 25 43 45
f 25 45 46
f 25 46 26
f 28 47 29
f 29 48 49
f 29 49 30
f 29 47 50
f 29 50 48
f 30 49 51
f 30 51 52
f 30 52 53
f 30 53 31
f 33 54 35
f 34 35 55
f 35 54 56
f 35 56 57
f 35 57 58
f 35 58 59
f 35 59 55
f 36 60 37
f 37 60 61
f 37 61 62
f 37 62 38
f 38 62 63
f 38 63 64
f 38 64 39
f 40 65 42
f 41 42 66
f 41 66 67
f 41 67 44
f 42 65 68
f 42 68 69
f 42 69 63
f 42 63 66
f 43 44 70
f 43 70 71
f 43 71 72
f 43 72 45
f 44 67 73
f 44 73 70
f 45 72 74
f 45 74 46
f 48 50 75
f 48 75 76
f 48 76 77
f 48 77 49
f 49 77 78
f 49 78 51
f 51 78 79
f 51 79 80
f 51 80 52
f 52 81 53
f 52 80 82
f 52 82 81
f 54 83 56
f 56 83 84
f 56 84 82
f 56 82 57
f 57 82 80
f 57 80 79
f 57 79 85
f 57 85 58
f 58 85 86
f 58 86 87
f 58 87 88
f 58 88 59
f 60 89 61
f 61 89 90
f 61 90 91
f 61 91 62
f 62 91 66
f 62 66 63
f 63 69 64
f 66 91 67
f 67 91 92
f 67 92 73
f 70 93 94
f 70 94 71
f 70 73 93
f 71 95 72
f 71 94 95
f 72 76 75
f 72 75 74
f 72 95 76
f 73 92 96
f 73 96 93
f 76 95 77
f 77 95 78
f 78 95 94
f 78 94 79
f 79 93 85
f 79 94 93
f 81 82 97
f 82 84 97
f 85 96 86
f 85 93 96
f 86 98 99
f 86 99 87
f 86 96 98
f 89 100 90
f 90 100 101
f 90 101 98
f 90 98 92
f 90 92 91
f 92 98 96
f 98 101 102
f 98 102 103
f 98 103 99

