# https://github.com/mikedh/trimesh
v -0.01823255 -0.02211160 -0.02642730
v -0.01823255 -0.02203215 -0.02768271
v -0.01815305 -0.02209836 -0.02768271
v -0.01597237 -0.02394826 -0.02642730
v -0.01823255 -0.01682576 -0.02642730
v -0.01823255 -0.01682576 -0.02768271
v -0.01563726 -0.02403148 -0.02768271
v -0.01473264 -0.02468595 -0.02768271
v -0.01480597 -0.02468784 -0.02642730
v -0.01123135 -0.01682576 -0.02642730
v -0.01278154 -0.01682576 -0.02768271
v -0.01387531 -0.02516450 -0.02768271
v -0.01479294 -0.02469541 -0.02642730
v -0.01123135 -0.01682576 -0.02750869
v -0.01123135 -0.02648667 -0.02642730
v -0.01123135 -0.01807510 -0.02768271
v -0.01376977 -0.02524300 -0.02681517
v -0.01307348 -0.02556740 -0.02768271
v -0.01337297 -0.02546620 -0.02642730
v -0.01152398 -0.02633630 -0.02768271
v -0.01123135 -0.02645546 -0.02768271
f 1 2 3
f 1 3 4
f 1 4 9
f 1 9 13
f 1 13 19
f 1 19 15
f 1 15 10
f 1 10 5
f 1 5 6
f 1 6 2
f 2 6 11
f 2 11 16
f 2 16 21
f 2 21 20
f 2 20 18
f 2 18 12
f 2 12 8
f 2 8 7
f 2 7 3
f 3 7 4
f 4 7 8
f 4 8 9
f 5 10 14
f 5 14 11
f 5 11 6
f 8 12 13
f 8 13 9
f 10 15 21
f 10 21 16
f 10 16 14
f 11 14 16
f 12 17 13
f 12 18 19
f 12 19 17
f 13 17 19
f 15 19 20
f 15 20 21
f 18 20 19

