# https://github.com/mikedh/trimesh
v 0.05669455 0.00137422 -0.00242960
v 0.05669064 0.00002016 -0.00242960
v 0.05620207 0.00002016 -0.00408440
v 0.05619230 0.00121482 -0.00410935
v 0.05620598 0.00265614 -0.00399709
v 0.05666914 0.00277863 -0.00242960
v 0.04535189 0.00002016 -0.00242960
v 0.05576236 0.00002016 -0.00543984
v 0.05575454 0.00015775 -0.00546271
v 0.05574477 0.00139436 -0.00545647
v 0.05572522 0.00258399 -0.00547102
v 0.05573499 0.00327025 -0.00536500
v 0.05609263 0.00418471 -0.00413845
v 0.05660270 0.00431391 -0.00242960
v 0.05666719 0.00285917 -0.00242960
v 0.04435129 0.00002519 -0.00242960
v 0.04428289 0.00002016 -0.00252523
v 0.05549657 0.00002016 -0.00615082
v 0.05537736 0.00031043 -0.00647513
v 0.05534023 0.00248667 -0.00651878
v 0.05522102 0.00410920 -0.00658947
v 0.05567246 0.00488440 -0.00525274
v 0.05596365 0.00571999 -0.00419666
v 0.05659488 0.00442129 -0.00242960
v 0.04092348 0.01716160 -0.00242960
v 0.03672958 0.00002016 -0.00852284
v 0.05536564 0.00002016 -0.00649384
v 0.05516630 0.00146819 -0.00700316
v 0.05460933 0.00278366 -0.00812785
v 0.05525815 0.00558408 -0.00619240
v 0.05452139 0.00449177 -0.00810706
v 0.05449598 0.00532568 -0.00800727
v 0.05485557 0.00644820 -0.00695327
v 0.05528942 0.00700862 -0.00574128
v 0.05581121 0.00698345 -0.00426526
v 0.05650694 0.00558744 -0.00242960
v 0.05412857 0.01716160 -0.00242960
v 0.03672958 0.01716160 -0.00579117
v 0.03672958 0.00002016 -0.02365926
v 0.05471095 0.00002016 -0.00795946
v 0.05487315 0.00125677 -0.00765386
v 0.05428687 0.00209237 -0.00880972
v 0.05374944 0.00305380 -0.00975146
v 0.05374749 0.00413605 -0.00964128
v 0.05380221 0.00528541 -0.00937102
v 0.05446080 0.00670660 -0.00774117
v 0.05364196 0.00698513 -0.00931697
v 0.05480476 0.00790965 -0.00664144
v 0.05496892 0.00856907 -0.00597203
v 0.05558452 0.00838114 -0.00437129
v 0.05612585 0.00838618 -0.00259383
v 0.05633887 0.00698681 -0.00250028
v 0.05648348 0.00580892 -0.00242960
v 0.05426928 0.01672032 -0.00242960
v 0.05383152 0.01716160 -0.00340876
v 0.03672958 0.01716160 -0.02224353
v 0.03672958 0.00037587 -0.02366133
v 0.03706767 0.00002016 -0.02354492
v 0.05460151 0.00002016 -0.00820061
v 0.05459760 0.00029533 -0.00821932
v 0.05396246 0.00014936 -0.00944378
v 0.05382175 0.00138429 -0.00969949
v 0.05297555 0.00309743 -0.01107780
v 0.05296382 0.00436928 -0.01097385
v 0.05294623 0.00528709 -0.01088238
v 0.05286024 0.00677707 -0.01077428
v 0.05349929 0.00870330 -0.00914650
v 0.05424192 0.00856068 -0.00767881
v 0.05271758 0.00838450 -0.01065786
v 0.05444126 0.00950198 -0.00686596
v 0.05488488 0.00951540 -0.00574128
v 0.05523079 0.00962279 -0.00474341
v 0.05453116 0.01080403 -0.00603440
v 0.05556693 0.01118324 -0.00284954
v 0.05586984 0.00978219 -0.00270609
v 0.05614930 0.00852712 -0.00242960
v 0.05616885 0.00838618 -0.00242960
v 0.05635059 0.00704553 -0.00242960
v 0.05635841 0.00698681 -0.00242960
v 0.05465428 0.01547028 -0.00242960
v 0.05428101 0.01570854 -0.00342539
v 0.05385888 0.01659112 -0.00391185
v 0.05372990 0.01716160 -0.00372891
v 0.03747026 0.01716160 -0.02190259
v 0.03672958 0.01710623 -0.02225600
v 0.03672958 0.00138429 -0.02366549
v 0.03710481 0.00138429 -0.02353868
v 0.03710285 0.00002016 -0.02353244
v 0.05395073 0.00002016 -0.00946250
v 0.05347975 0.00002016 -0.01027534
v 0.05289347 0.00002016 -0.01128568
v 0.05295991 0.00138429 -0.01117758
v 0.05212739 0.00147490 -0.01245818
v 0.05204531 0.00278534 -0.01252263
v 0.05212152 0.00441123 -0.01229603
v 0.05197886 0.00558576 -0.01237918
v 0.05191632 0.00698345 -0.01225029
v 0.05352665 0.00995837 -0.00869746
v 0.05261205 0.00978219 -0.01043126
v 0.05386279 0.01008421 -0.00795738
v 0.05174826 0.00860430 -0.01216298
v 0.05179907 0.00946171 -0.01185946
v 0.05423410 0.01087786 -0.00674538
v 0.05496110 0.01104062 -0.00474757
v 0.05401523 0.01238629 -0.00651047
v 0.05461128 0.01228562 -0.00500743
v 0.05521906 0.01258093 -0.00300545
v 0.05561578 0.01154399 -0.00242960
v 0.05568809 0.01118324 -0.00242960
v 0.05594606 0.00978387 -0.00242960
v 0.05483993 0.01478402 -0.00242960
v 0.05482234 0.01398198 -0.00319047
v 0.05419502 0.01398366 -0.00503445
v 0.05354033 0.01538471 -0.00578078
v 0.05355206 0.01716160 -0.00424655
v 0.05329019 0.01690488 -0.00522571
v 0.03781030 0.01716160 -0.02174044
v 0.03784353 0.01678408 -0.02180904
v 0.03672958 0.01678240 -0.02232253
v 0.03672958 0.00239607 -0.02365510
v 0.03709894 0.00278534 -0.02352621
v 0.03841222 0.00278534 -0.02302935
v 0.03841613 0.00138429 -0.02303975
v 0.03841613 0.00002016 -0.02303559
v 0.03713608 0.00002016 -0.02351997
v 0.05206876 0.00002016 -0.01256212
v 0.05110920 0.00138429 -0.01382193
v 0.05109748 0.00278534 -0.01379907
v 0.05107598 0.00423505 -0.01374086
v 0.05103103 0.00558408 -0.01366186
v 0.05100367 0.00697171 -0.01349555
v 0.05089619 0.00838450 -0.01336873
v 0.05255342 0.01106243 -0.01011943
v 0.05327064 0.01096176 -0.00882843
v 0.05162123 0.01118324 -0.01160375
v 0.05370059 0.01177722 -0.00758525
v 0.05099586 0.00977716 -0.01291969
v 0.05346412 0.01352056 -0.00723392
v 0.05363609 0.01396184 -0.00652294
v 0.05526988 0.01308766 -0.00242960
v 0.05539104 0.01258093 -0.00242960
v 0.05505100 0.01398366 -0.00242960
v 0.05291105 0.01510617 -0.00752705
v 0.05304395 0.01607600 -0.00652710
v 0.05325501 0.01716160 -0.00508435
v 0.05259642 0.01678072 -0.00709464
v 0.05252802 0.01716160 -0.00694703
v 0.05310062 0.01716160 -0.00548973
v 0.03872295 0.01716160 -0.02127477
v 0.03909231 0.01678408 -0.02117290
v 0.03794906 0.01538303 -0.02203564
v 0.03920371 0.01538471 -0.02141405
v 0.03672958 0.01538303 -0.02258447
v 0.03672958 0.00278534 -0.02365094
v 0.03708722 0.00418471 -0.02349918
v 0.03839854 0.00418471 -0.02299817
v 0.03970009 0.00278534 -0.02248052
v 0.03970791 0.00138429 -0.02249507
v 0.03970791 0.00002016 -0.02249300
v 0.05111116 0.00002016 -0.01382401
v 0.05108575 0.00002016 -0.01385520
v 0.05011643 0.00002016 -0.01500690
v 0.05011252 0.00138429 -0.01500482
v 0.05010275 0.00278534 -0.01497572
v 0.05007930 0.00418471 -0.01492583
v 0.05013402 0.00547837 -0.01474288
v 0.04997572 0.00698513 -0.01470546
v 0.04990732 0.00838618 -0.01454747
v 0.04981742 0.00978219 -0.01436868
v 0.05236190 0.01258261 -0.00988659
v 0.05311430 0.01282255 -0.00835445
v 0.05149029 0.01260610 -0.01130647
v 0.05069294 0.01118324 -0.01293425
v 0.05056982 0.01258261 -0.01266607
v 0.04973730 0.01116143 -0.01413169
v 0.05297945 0.01380412 -0.00815279
v 0.05202576 0.01538135 -0.00917145
v 0.05175998 0.01704583 -0.00867875
v 0.05174044 0.01716160 -0.00864133
v 0.05225832 0.01716160 -0.00754783
v 0.03905909 0.01716160 -0.02110014
v 0.03995415 0.01716160 -0.02060536
v 0.04031960 0.01678240 -0.02049310
v 0.04043686 0.01538303 -0.02074465
v 0.03804091 0.01398366 -0.02223521
v 0.03930338 0.01398366 -0.02162610
v 0.04054044 0.01398198 -0.02096709
v 0.03675694 0.01398198 -0.02279236
v 0.03672958 0.01442327 -0.02273415
v 0.03672958 0.00418471 -0.02361976
v 0.03672958 0.00455385 -0.02360936
v 0.03672958 0.00558576 -0.02357402
v 0.03706767 0.00558576 -0.02345760
v 0.03837900 0.00558576 -0.02295659
v 0.03968642 0.00418471 -0.02244934
v 0.04096256 0.00278534 -0.02187349
v 0.04097038 0.00138429 -0.02189220
v 0.03973918 0.00002016 -0.02247844
v 0.04910411 0.00002016 -0.01606714
v 0.04907870 0.00138429 -0.01609624
v 0.04906698 0.00278534 -0.01606506
v 0.04903962 0.00418471 -0.01600893
v 0.04899662 0.00558576 -0.01591746
v 0.04893995 0.00698513 -0.01579480
v 0.04887350 0.00838618 -0.01564928
v 0.04879924 0.00978387 -0.01548505
v 0.04870348 0.01118324 -0.01528963
v 0.05229546 0.01384775 -0.00945834
v 0.05133395 0.01398198 -0.01099880
v 0.05048774 0.01409272 -0.01223574
v 0.04959659 0.01258261 -0.01389677
v 0.04946956 0.01398366 -0.01361197
v 0.04859404 0.01258429 -0.01505264
v 0.05113852 0.01527396 -0.01073894
v 0.05151570 0.01607600 -0.00968494
v 0.05096068 0.01716160 -0.01001548
v 0.05166618 0.01716160 -0.00877438
v 0.04028443 0.01716160 -0.02042034
v 0.04152540 0.01678240 -0.01976965
v 0.04164656 0.01538471 -0.02002743
v 0.04175209 0.01398366 -0.02025195
v 0.03938741 0.01258261 -0.02180904
v 0.03812103 0.01258261 -0.02240360
v 0.04063229 0.01258429 -0.02116251
v 0.04184395 0.01258093 -0.02045568
v 0.03672958 0.01395178 -0.02280691
v 0.03672958 0.01398198 -0.02280275
v 0.03683121 0.01258429 -0.02295035
v 0.03672958 0.00698513 -0.02350334
v 0.03703836 0.00698513 -0.02339731
v 0.03834773 0.00698513 -0.02289007
v 0.03966492 0.00558576 -0.02240153
v 0.04094888 0.00418471 -0.02184230
v 0.04219572 0.00278534 -0.02120408
v 0.04220744 0.00138429 -0.02123111
v 0.04220940 0.00002016 -0.02123319
v 0.04096843 0.00002016 -0.02188596
v 0.04904939 0.00002016 -0.01612119
v 0.04800385 0.00138429 -0.01709827
v 0.04799017 0.00278534 -0.01707124
v 0.04796476 0.00418471 -0.01701511
v 0.04792763 0.00558576 -0.01693196
v 0.04787487 0.00698513 -0.01682178
v 0.04780646 0.00838450 -0.01668041
v 0.04773611 0.00978387 -0.01652657
v 0.04765208 0.01118324 -0.01634987
v 0.04755241 0.01258261 -0.01613574
v 0.05026886 0.01538135 -0.01202785
v 0.04927022 0.01533772 -0.01338329
v 0.04845333 0.01401722 -0.01479693
v 0.04832826 0.01538303 -0.01448510
v 0.04743515 0.01398198 -0.01588835
v 0.05008516 0.01676226 -0.01163910
v 0.05097827 0.01678911 -0.01020466
v 0.05068513 0.01716160 -0.01047284
v 0.04116581 0.01716160 -0.01989022
v 0.04149022 0.01716160 -0.01969273
v 0.04235206 0.01716160 -0.01912103
v 0.04270579 0.01678240 -0.01898590
v 0.04283086 0.01538303 -0.01925408
v 0.04294225 0.01398366 -0.01949108
v 0.03946558 0.01118324 -0.02197327
v 0.04070851 0.01118324 -0.02132882
v 0.03819139 0.01118324 -0.02255536
v 0.04192407 0.01118324 -0.02062199
v 0.04303606 0.01258261 -0.01969273
v 0.04311814 0.01118324 -0.01987151
v 0.03672958 0.01258429 -0.02298777
v 0.03689570 0.01118324 -0.02308756
v 0.03672958 0.00838450 -0.02340979
v 0.03700123 0.00838450 -0.02331624
v 0.03830669 0.00838450 -0.02280275
v 0.03963170 0.00698513 -0.02233084
v 0.04092543 0.00558408 -0.02179241
v 0.04217813 0.00418471 -0.02116666
v 0.04339955 0.00278534 -0.02047855
v 0.04341323 0.00138429 -0.02050350
v 0.04341519 0.00002016 -0.02050973
v 0.04800189 0.00002016 -0.01709411
v 0.04797258 0.00002016 -0.01711906
v 0.04688795 0.00002016 -0.01801922
v 0.04688991 0.00138429 -0.01802130
v 0.04687427 0.00278534 -0.01799427
v 0.04685082 0.00418471 -0.01794230
v 0.04681760 0.00558408 -0.01787370
v 0.04677069 0.00698345 -0.01777391
v 0.04671402 0.00838618 -0.01764502
v 0.04664562 0.00978387 -0.01749326
v 0.04656354 0.01118324 -0.01732487
v 0.04647169 0.01258429 -0.01712322
v 0.04636029 0.01398198 -0.01688622
v 0.04915297 0.01678240 -0.01294880
v 0.04811329 0.01671864 -0.01425226
v 0.04730226 0.01538135 -0.01560562
v 0.04715569 0.01678240 -0.01528340
v 0.04623327 0.01538303 -0.01661389
v 0.04976661 0.01716160 -0.01189480
v 0.05002653 0.01716160 -0.01151228
v 0.05027473 0.01716160 -0.01112353
v 0.04910020 0.01716160 -0.01283862
v 0.04266865 0.01716160 -0.01890691
v 0.04385881 0.01678408 -0.01814603
v 0.04398975 0.01538471 -0.01842460
v 0.04410505 0.01398366 -0.01867407
v 0.04420472 0.01258261 -0.01888820
v 0.03953007 0.00978387 -0.02211672
v 0.04205305 0.00838450 -0.02090056
v 0.04077300 0.00978219 -0.02146810
v 0.03825393 0.00978387 -0.02269049
v 0.04318849 0.00978387 -0.02001911
v 0.04428876 0.01118324 -0.01907114
v 0.04436497 0.00978387 -0.01923121
v 0.03672958 0.01118324 -0.02314785
v 0.03695237 0.00978387 -0.02321022
v 0.03672958 0.00978387 -0.02329129
v 0.03672958 0.01100203 -0.02316656
v 0.03958675 0.00838450 -0.02223729
v 0.04088830 0.00698513 -0.02171341
v 0.04214881 0.00558408 -0.02110845
v 0.04338197 0.00418471 -0.02043489
v 0.04458190 0.00278534 -0.01969689
v 0.04459167 0.00138429 -0.01972183
v 0.04344646 0.00002016 -0.02048894
v 0.04575447 0.00002016 -0.01889443
v 0.04575447 0.00138597 -0.01889028
v 0.04574079 0.00278534 -0.01886533
v 0.04571733 0.00418471 -0.01881751
v 0.04568607 0.00558576 -0.01875099
v 0.04564307 0.00698513 -0.01865744
v 0.04558640 0.00838450 -0.01853478
v 0.04551995 0.00978219 -0.01839550
v 0.04544178 0.01118324 -0.01823127
v 0.04535384 0.01258429 -0.01803585
v 0.04524636 0.01398534 -0.01780509
v 0.04512519 0.01538471 -0.01754731
v 0.04838493 0.01716160 -0.01374086
v 0.04884615 0.01716160 -0.01317332
v 0.04807811 0.01716160 -0.01410882
v 0.04710879 0.01716160 -0.01518569
v 0.04777129 0.01716160 -0.01445392
v 0.04608474 0.01678240 -0.01629582
v 0.04605543 0.01716160 -0.01619395
v 0.04683519 0.01716160 -0.01545386
v 0.04499034 0.01678575 -0.01725211
v 0.04351095 0.01716160 -0.01829363
v 0.04381973 0.01716160 -0.01806288
v 0.04083554 0.00838450 -0.02160115
v 0.04210973 0.00698513 -0.02102114
v 0.04325299 0.00838618 -0.02015632
v 0.04442946 0.00838450 -0.01937050
v 0.04335070 0.00558576 -0.02036629
v 0.04456235 0.00418471 -0.01965115
v 0.04459558 0.00002016 -0.01972391
v 0.04452718 0.00558576 -0.01957631
v 0.04448418 0.00698513 -0.01948692
v 0.04494735 0.01716160 -0.01716271
v 0.04464834 0.01716160 -0.01740802
v 0.04330966 0.00698513 -0.02027690
f 1 2 3
f 1 3 4
f 1 4 5
f 1 5 6
f 1 6 15
f 1 15 14
f 1 14 24
f 1 24 36
f 1 36 53
f 1 53 79
f 1 79 78
f 1 78 77
f 1 77 76
f 1 76 110
f 1 110 109
f 1 109 108
f 1 108 141
f 1 141 140
f 1 140 142
f 1 142 111
f 1 111 80
f 1 80 54
f 1 54 37
f 1 37 25
f 1 25 16
f 1 16 7
f 1 7 2
f 2 7 17
f 2 17 26
f 2 26 39
f 2 39 58
f 2 58 88
f 2 88 125
f 2 125 124
f 2 124 159
f 2 159 198
f 2 198 237
f 2 237 236
f 2 236 278
f 2 278 323
f 2 323 353
f 2 353 324
f 2 324 281
f 2 281 280
f 2 280 279
f 2 279 238
f 2 238 199
f 2 199 162
f 2 162 161
f 2 161 160
f 2 160 126
f 2 126 91
f 2 91 90
f 2 90 89
f 2 89 59
f 2 59 40
f 2 40 27
f 2 27 18
f 2 18 8
f 2 8 3
f 3 8 4
f 4 8 9
f 4 9 10
f 4 10 11
f 4 11 5
f 5 11 12
f 5 12 13
f 5 13 14
f 5 14 15
f 5 15 6
f 7 16 17
f 8 18 19
f 8 19 9
f 9 19 20
f 9 20 10
f 10 20 11
f 11 20 12
f 12 20 21
f 12 21 22
f 12 22 13
f 13 23 14
f 13 22 23
f 14 23 24
f 16 25 26
f 16 26 17
f 18 27 19
f 19 27 28
f 19 28 20
f 20 28 29
f 20 29 21
f 21 30 22
f 21 29 31
f 21 31 32
f 21 32 33
f 21 33 30
f 22 30 34
f 22 34 23
f 23 35 36
f 23 36 24
f 23 34 35
f 25 37 55
f 25 55 83
f 25 83 115
f 25 115 145
f 25 145 148
f 25 148 147
f 25 147 180
f 25 180 179
f 25 179 217
f 25 217 216
f 25 216 255
f 25 255 299
f 25 299 298
f 25 298 297
f 25 297 300
f 25 300 337
f 25 337 336
f 25 336 338
f 25 338 340
f 25 340 339
f 25 339 343
f 25 343 342
f 25 342 356
f 25 356 357
f 25 357 346
f 25 346 345
f 25 345 301
f 25 301 258
f 25 258 257
f 25 257 256
f 25 256 218
f 25 218 182
f 25 182 181
f 25 181 149
f 25 149 117
f 25 117 84
f 25 84 56
f 25 56 38
f 25 38 26
f 26 38 56
f 26 56 85
f 26 85 119
f 26 119 153
f 26 153 189
f 26 189 227
f 26 227 226
f 26 226 268
f 26 268 313
f 26 313 316
f 26 316 315
f 26 315 270
f 26 270 229
f 26 229 192
f 26 192 191
f 26 191 190
f 26 190 154
f 26 154 120
f 26 120 86
f 26 86 57
f 26 57 39
f 27 40 41
f 27 41 28
f 28 41 29
f 29 42 43
f 29 43 44
f 29 44 31
f 29 41 42
f 30 33 34
f 31 45 32
f 31 44 45
f 32 46 33
f 32 45 47
f 32 47 46
f 33 46 48
f 33 48 34
f 34 48 49
f 34 49 50
f 34 50 35
f 35 50 51
f 35 51 52
f 35 52 36
f 36 52 53
f 37 54 55
f 39 57 58
f 40 59 41
f 41 59 60
f 41 60 42
f 42 60 61
f 42 61 62
f 42 62 43
f 43 62 63
f 43 63 64
f 43 64 44
f 44 64 65
f 44 65 45
f 45 65 66
f 45 66 47
f 46 47 67
f 46 67 68
f 46 68 48
f 47 66 69
f 47 69 67
f 48 70 49
f 48 68 70
f 49 71 72
f 49 72 50
f 49 70 73
f 49 73 71
f 50 72 74
f 50 74 75
f 50 75 51
f 51 75 76
f 51 76 77
f 51 77 78
f 51 78 52
f 52 78 79
f 52 79 53
f 54 80 81
f 54 81 82
f 54 82 55
f 55 82 83
f 56 84 85
f 57 86 87
f 57 87 58
f 58 87 88
f 59 89 60
f 60 89 61
f 61 89 90
f 61 90 62
f 62 90 91
f 62 91 92
f 62 92 63
f 63 92 93
f 63 93 94
f 63 94 95
f 63 95 64
f 64 95 96
f 64 96 65
f 65 96 97
f 65 97 66
f 66 97 69
f 67 98 68
f 67 69 99
f 67 99 98
f 68 98 100
f 68 100 70
f 69 97 101
f 69 101 102
f 69 102 99
f 70 103 73
f 70 100 103
f 71 73 104
f 71 104 72
f 72 104 74
f 73 103 105
f 73 105 106
f 73 106 104
f 74 104 106
f 74 106 107
f 74 107 108
f 74 108 109
f 74 109 75
f 75 109 110
f 75 110 76
f 80 111 112
f 80 112 81
f 81 112 113
f 81 113 114
f 81 114 82
f 82 115 83
f 82 114 116
f 82 116 115
f 84 117 118
f 84 118 85
f 85 118 119
f 86 120 87
f 87 121 122
f 87 122 123
f 87 123 124
f 87 124 125
f 87 125 88
f 87 120 121
f 91 126 92
f 92 126 93
f 93 126 127
f 93 127 128
f 93 128 94
f 94 128 129
f 94 129 95
f 95 129 96
f 96 129 130
f 96 130 131
f 96 131 97
f 97 131 132
f 97 132 101
f 98 99 133
f 98 133 134
f 98 134 100
f 99 102 135
f 99 135 133
f 100 136 103
f 100 134 136
f 101 132 137
f 101 137 102
f 102 137 135
f 103 136 105
f 105 136 138
f 105 138 139
f 105 139 106
f 106 113 112
f 106 112 107
f 106 139 113
f 107 112 140
f 107 140 141
f 107 141 108
f 111 142 112
f 112 142 140
f 113 139 114
f 114 139 143
f 114 143 144
f 114 144 116
f 115 116 145
f 116 144 146
f 116 146 147
f 116 147 148
f 116 148 145
f 117 149 150
f 117 150 118
f 118 151 119
f 118 150 152
f 118 152 151
f 119 151 153
f 120 154 121
f 121 154 155
f 121 155 122
f 122 155 156
f 122 156 195
f 122 195 157
f 122 157 158
f 122 158 123
f 123 158 159
f 123 159 124
f 126 160 127
f 127 160 161
f 127 161 162
f 127 162 163
f 127 163 128
f 128 163 164
f 128 164 165
f 128 165 129
f 129 165 166
f 129 166 130
f 130 166 131
f 131 166 167
f 131 167 168
f 131 168 132
f 132 168 169
f 132 169 137
f 133 135 170
f 133 170 134
f 134 171 136
f 134 170 171
f 135 172 170
f 135 137 173
f 135 173 174
f 135 174 172
f 136 171 138
f 137 169 175
f 137 175 173
f 138 171 176
f 138 176 143
f 138 143 139
f 143 146 144
f 143 176 177
f 143 177 178
f 143 178 146
f 146 178 179
f 146 179 180
f 146 180 147
f 149 181 150
f 150 181 182
f 150 182 183
f 150 183 184
f 150 184 152
f 151 185 153
f 151 152 186
f 151 186 185
f 152 184 187
f 152 187 186
f 153 185 188
f 153 188 189
f 154 190 155
f 155 190 191
f 155 191 192
f 155 192 193
f 155 193 194
f 155 194 156
f 156 194 195
f 157 195 233
f 157 233 196
f 157 196 197
f 157 197 158
f 158 197 198
f 158 198 159
f 162 199 200
f 162 200 163
f 163 200 164
f 164 200 201
f 164 201 165
f 165 201 202
f 165 202 203
f 165 203 166
f 166 203 204
f 166 204 167
f 167 204 205
f 167 205 168
f 168 205 206
f 168 206 169
f 169 206 207
f 169 207 175
f 170 208 171
f 170 172 209
f 170 209 208
f 171 208 176
f 172 174 210
f 172 210 209
f 173 175 211
f 173 211 174
f 174 211 212
f 174 212 210
f 175 207 213
f 175 213 211
f 176 208 177
f 177 208 214
f 177 214 215
f 177 215 178
f 178 215 216
f 178 216 217
f 178 217 179
f 182 218 183
f 183 218 219
f 183 219 220
f 183 220 184
f 184 220 221
f 184 221 187
f 185 186 222
f 185 222 223
f 185 223 188
f 186 187 224
f 186 224 222
f 187 221 225
f 187 225 224
f 188 226 227
f 188 227 189
f 188 223 228
f 188 228 226
f 192 229 230
f 192 230 193
f 193 230 194
f 194 230 231
f 194 231 232
f 194 232 195
f 195 232 233
f 196 233 234
f 196 234 235
f 196 235 197
f 197 235 236
f 197 236 237
f 197 237 198
f 199 238 200
f 200 238 239
f 200 239 240
f 200 240 201
f 201 240 241
f 201 241 202
f 202 241 242
f 202 242 203
f 203 242 243
f 203 243 204
f 204 243 244
f 204 244 205
f 205 244 245
f 205 245 206
f 206 245 246
f 206 246 207
f 207 246 247
f 207 247 213
f 208 209 214
f 209 210 248
f 209 248 214
f 210 212 249
f 210 249 248
f 211 213 250
f 211 250 212
f 212 250 251
f 212 251 249
f 213 247 252
f 213 252 250
f 214 248 253
f 214 253 254
f 214 254 215
f 215 254 216
f 216 254 255
f 218 256 219
f 219 256 257
f 219 257 258
f 219 258 259
f 219 259 260
f 219 260 220
f 220 260 261
f 220 261 221
f 221 261 225
f 222 262 223
f 222 224 263
f 222 263 262
f 223 264 228
f 223 262 264
f 224 225 265
f 224 265 263
f 225 261 266
f 225 266 267
f 225 267 265
f 226 228 268
f 228 269 268
f 228 264 269
f 229 270 230
f 230 270 271
f 230 271 231
f 231 272 273
f 231 273 232
f 231 271 272
f 232 273 274
f 232 274 233
f 233 274 275
f 233 275 234
f 234 275 276
f 234 276 235
f 235 276 277
f 235 277 278
f 235 278 236
f 238 279 239
f 239 279 280
f 239 280 281
f 239 281 282
f 239 282 240
f 240 282 283
f 240 283 284
f 240 284 241
f 241 284 285
f 241 285 242
f 242 285 286
f 242 286 243
f 243 286 287
f 243 287 244
f 244 287 288
f 244 288 245
f 245 288 289
f 245 289 246
f 246 289 290
f 246 290 247
f 247 290 291
f 247 291 252
f 248 249 292
f 248 292 253
f 249 251 293
f 249 293 292
f 250 252 294
f 250 294 251
f 251 294 295
f 251 295 293
f 252 291 296
f 252 296 294
f 253 297 298
f 253 298 299
f 253 299 255
f 253 255 254
f 253 292 300
f 253 300 297
f 258 301 259
f 259 301 302
f 259 302 303
f 259 303 260
f 260 303 304
f 260 304 261
f 261 304 305
f 261 305 266
f 262 306 264
f 262 263 306
f 263 265 307
f 263 307 308
f 263 308 306
f 264 306 309
f 264 309 269
f 265 267 310
f 265 310 307
f 266 305 311
f 266 311 267
f 267 311 312
f 267 312 310
f 268 269 313
f 269 314 315
f 269 315 316
f 269 316 313
f 269 309 314
f 270 315 271
f 271 315 314
f 271 314 272
f 272 309 317
f 272 317 273
f 272 314 309
f 273 317 318
f 273 318 274
f 274 318 319
f 274 319 275
f 275 319 320
f 275 320 276
f 276 320 321
f 276 321 277
f 277 321 322
f 277 322 278
f 278 322 323
f 281 324 282
f 282 324 325
f 282 325 326
f 282 326 283
f 283 326 327
f 283 327 284
f 284 327 328
f 284 328 285
f 285 328 329
f 285 329 286
f 286 329 330
f 286 330 287
f 287 330 331
f 287 331 288
f 288 331 332
f 288 332 289
f 289 332 333
f 289 333 290
f 290 333 334
f 290 334 291
f 291 334 335
f 291 335 296
f 292 293 336
f 292 336 337
f 292 337 300
f 293 338 336
f 293 295 339
f 293 339 340
f 293 340 338
f 294 296 341
f 294 341 295
f 295 341 342
f 295 342 343
f 295 343 339
f 296 335 344
f 296 344 341
f 301 345 302
f 302 345 346
f 302 346 344
f 302 344 335
f 302 335 303
f 303 335 334
f 303 334 304
f 304 334 333
f 304 333 305
f 305 333 332
f 305 332 311
f 306 317 309
f 306 308 347
f 306 347 317
f 307 348 347
f 307 347 308
f 307 310 349
f 307 349 348
f 310 312 350
f 310 350 349
f 311 332 331
f 311 331 312
f 312 331 330
f 312 330 350
f 317 347 318
f 318 347 348
f 318 348 319
f 319 348 351
f 319 351 320
f 320 351 352
f 320 352 321
f 321 352 326
f 321 326 325
f 321 325 322
f 322 325 353
f 322 353 323
f 324 353 325
f 326 352 327
f 327 352 328
f 328 352 354
f 328 354 355
f 328 355 329
f 329 355 350
f 329 350 330
f 341 344 342
f 342 344 356
f 344 346 357
f 344 357 356
f 348 349 358
f 348 358 351
f 349 350 358
f 350 355 358
f 351 358 354
f 351 354 352
f 354 358 355

