# https://github.com/mikedh/trimesh
v -0.05764485 -0.00006146 0.00133465
v -0.05764485 -0.00001542 0.00133465
v -0.05764357 -0.00032565 0.00133465
v -0.05768184 -0.00001542 0.00149909
v -0.05764485 0.00138461 0.00151504
v -0.05760402 0.00138461 0.00133465
v -0.05768057 -0.00032565 0.00150032
v -0.04690512 -0.00032565 0.00133465
v -0.05792042 0.00138461 0.00292997
v -0.05774053 -0.00032565 0.00181324
v -0.05795232 -0.00001542 0.00291525
v -0.05758233 0.00278465 0.00154327
v -0.05754534 0.00258050 0.00133465
v -0.05785918 0.00278465 0.00296065
v -0.04583600 0.00989792 0.00133465
v -0.05117397 -0.00032565 0.01387023
v -0.05815644 0.00138461 0.00436577
v -0.05794976 -0.00032565 0.00291525
v -0.05812838 -0.00032565 0.00403566
v -0.05818068 -0.00001542 0.00435350
v -0.05749303 0.00418469 0.00158499
v -0.05743944 0.00418469 0.00133465
v -0.05752109 0.00299881 0.00133465
v -0.05753513 0.00278465 0.00133465
v -0.05776477 0.00418469 0.00300360
v -0.05809393 0.00278465 0.00439645
v -0.05800080 0.00418469 0.00443940
v -0.05020053 0.00989792 0.01387023
v -0.05679133 0.00989792 0.00133465
v -0.05886452 -0.00032565 0.01387023
v -0.05835802 0.00138461 0.00581751
v -0.05829678 0.00278465 0.00584574
v -0.05817813 -0.00032565 0.00435472
v -0.05837971 -0.00001542 0.00580892
v -0.05737438 0.00558472 0.00164267
v -0.05731186 0.00558372 0.00133465
v -0.05741775 0.00444288 0.00133465
v -0.05787960 0.00558272 0.00449339
v -0.05763464 0.00558472 0.00306619
v -0.05819982 0.00418469 0.00588992
v -0.05807990 0.00558372 0.00594760
v -0.05218568 0.00989792 0.01387023
v -0.05681175 0.00977983 0.00133465
v -0.05688192 0.00989792 0.00177029
v -0.05886962 -0.00001542 0.01387023
v -0.05886452 -0.00001542 0.01329346
v -0.05885941 -0.00032565 0.01329837
v -0.05852515 0.00138461 0.00728031
v -0.05846647 0.00278465 0.00730976
v -0.05837588 -0.00032565 0.00581015
v -0.05841288 -0.00032565 0.00613535
v -0.05853919 -0.00032565 0.00727785
v -0.05854174 -0.00001542 0.00727662
v -0.05707712 0.00838780 0.00178870
v -0.05727869 0.00590296 0.00133465
v -0.05794084 0.00698476 0.00601386
v -0.05772522 0.00697976 0.00455843
v -0.05733355 0.00838580 0.00320977
v -0.05836568 0.00418469 0.00735885
v -0.05824192 0.00558472 0.00741898
v -0.05810541 0.00698376 0.00748034
v -0.05797273 0.00989792 0.01386778
v -0.05799314 0.00978383 0.01387023
v -0.05687809 0.00929948 0.00133465
v -0.05691764 0.00977883 0.00184515
v -0.05689850 0.00989792 0.00185251
v -0.05886452 0.00050396 0.01387023
v -0.05885431 0.00138461 0.01387023
v -0.05884665 0.00138461 0.01330450
v -0.05882624 -0.00001542 0.01177667
v -0.05882369 -0.00032565 0.01177913
v -0.05865656 0.00138461 0.00876641
v -0.05860043 0.00278465 0.00878850
v -0.05867060 -0.00032565 0.00876151
v -0.05867187 -0.00001542 0.00876273
v -0.05699036 0.00838680 0.00133465
v -0.05794084 0.00838280 0.00755274
v -0.05777243 0.00838580 0.00609608
v -0.05756320 0.00838179 0.00463820
v -0.05717152 0.00978383 0.00328095
v -0.05849453 0.00418469 0.00884127
v -0.05823682 0.00698276 0.00895785
v -0.05807352 0.00837979 0.00902658
v -0.05797145 0.00989792 0.01372052
v -0.05799314 0.00978483 0.01371193
v -0.05821768 0.00838580 0.01387023
v -0.05713197 0.00989792 0.00316682
v -0.05883007 0.00188899 0.01387023
v -0.05878669 0.00278465 0.01387023
v -0.05877904 0.00278465 0.01333887
v -0.05880583 0.00138561 0.01179631
v -0.05876245 -0.00001542 0.01025989
v -0.05875990 -0.00032565 0.01025989
v -0.05874076 0.00138461 0.01027093
v -0.05868080 0.00278365 0.01029302
v -0.05859022 0.00418469 0.01034088
v -0.05874076 -0.00032565 0.00992855
v -0.05772522 0.00978483 0.00765828
v -0.05755682 0.00978383 0.00619058
v -0.05737438 0.00978483 0.00473269
v -0.05715239 0.00989792 0.00328954
v -0.05847029 0.00558572 0.01040346
v -0.05833761 0.00698576 0.01046728
v -0.05815389 0.00838179 0.01053968
v -0.05784642 0.00978283 0.00914193
v -0.05794594 0.00989792 0.01231049
v -0.05796508 0.00978283 0.01217550
v -0.05819600 0.00838280 0.01206751
v -0.05821641 0.00838580 0.01361130
v -0.05840650 0.00698376 0.01351803
v -0.05836695 0.00728698 0.01387023
v -0.05869356 0.00418569 0.01387023
v -0.05868846 0.00418569 0.01338918
v -0.05865018 0.00418469 0.01185889
v -0.05873566 0.00278565 0.01182576
v -0.05853026 0.00558272 0.01190798
v -0.05770354 0.00989792 0.00766809
v -0.05769205 0.00989792 0.00754906
v -0.05781580 0.00989792 0.00903148
v -0.05753641 0.00989792 0.00619917
v -0.05735524 0.00989792 0.00474128
v -0.05838099 0.00698276 0.01197916
v -0.05792297 0.00978383 0.01065258
v -0.05782474 0.00989792 0.00915297
v -0.05794339 0.00989792 0.01218655
v -0.05790511 0.00989792 0.01078634
v -0.05840778 0.00698376 0.01387023
v -0.05856343 0.00558372 0.01344318
v -0.05844733 0.00664651 0.01387023
v -0.05860425 0.00517942 0.01387023
v -0.05790129 0.00989792 0.01066363
v -0.05856598 0.00558372 0.01387023
f 1 2 6
f 1 6 13
f 1 13 24
f 1 24 23
f 1 23 22
f 1 22 37
f 1 37 36
f 1 36 55
f 1 55 76
f 1 76 64
f 1 64 43
f 1 43 29
f 1 29 15
f 1 15 8
f 1 8 3
f 1 3 4
f 1 4 2
f 2 4 5
f 2 5 6
f 3 7 4
f 3 8 16
f 3 16 30
f 3 30 47
f 3 47 71
f 3 71 93
f 3 93 97
f 3 97 74
f 3 74 52
f 3 52 51
f 3 51 50
f 3 50 33
f 3 33 19
f 3 19 18
f 3 18 10
f 3 10 7
f 4 9 5
f 4 7 10
f 4 10 11
f 4 11 9
f 5 12 13
f 5 13 6
f 5 9 14
f 5 14 12
f 8 15 16
f 9 11 17
f 9 17 14
f 10 18 11
f 11 19 20
f 11 20 17
f 11 18 19
f 12 21 22
f 12 22 23
f 12 23 24
f 12 24 13
f 12 14 21
f 14 25 21
f 14 17 26
f 14 26 27
f 14 27 25
f 15 28 16
f 15 29 44
f 15 44 66
f 15 66 87
f 15 87 101
f 15 101 121
f 15 121 120
f 15 120 118
f 15 118 117
f 15 117 119
f 15 119 124
f 15 124 131
f 15 131 126
f 15 126 125
f 15 125 106
f 15 106 84
f 15 84 62
f 15 62 42
f 15 42 28
f 16 28 42
f 16 42 63
f 16 63 86
f 16 86 111
f 16 111 127
f 16 127 129
f 16 129 132
f 16 132 130
f 16 130 112
f 16 112 89
f 16 89 88
f 16 88 68
f 16 68 67
f 16 67 45
f 16 45 30
f 17 20 31
f 17 31 32
f 17 32 26
f 19 33 20
f 20 33 34
f 20 34 31
f 21 25 35
f 21 35 36
f 21 36 37
f 21 37 22
f 25 27 38
f 25 38 39
f 25 39 35
f 26 32 27
f 27 32 40
f 27 40 41
f 27 41 38
f 29 43 44
f 30 45 46
f 30 46 47
f 31 34 48
f 31 48 49
f 31 49 32
f 32 49 40
f 33 50 34
f 34 50 51
f 34 51 52
f 34 52 53
f 34 53 48
f 35 54 55
f 35 55 36
f 35 39 54
f 38 56 57
f 38 57 58
f 38 58 39
f 38 41 56
f 39 58 54
f 40 49 59
f 40 59 41
f 41 59 60
f 41 60 61
f 41 61 56
f 42 62 63
f 43 64 65
f 43 65 44
f 44 65 66
f 45 67 46
f 46 67 68
f 46 68 69
f 46 69 70
f 46 70 71
f 46 71 47
f 48 53 72
f 48 72 73
f 48 73 49
f 49 73 59
f 52 74 53
f 53 74 75
f 53 75 72
f 54 65 76
f 54 76 55
f 54 58 65
f 56 77 78
f 56 78 79
f 56 79 57
f 56 61 77
f 57 79 80
f 57 80 58
f 58 80 65
f 59 73 81
f 59 81 60
f 60 81 82
f 60 82 61
f 61 83 77
f 61 82 83
f 62 84 85
f 62 85 63
f 63 85 86
f 64 76 65
f 65 80 87
f 65 87 66
f 68 88 69
f 69 88 89
f 69 89 90
f 69 90 91
f 69 91 70
f 70 91 92
f 70 92 93
f 70 93 71
f 72 94 73
f 72 75 92
f 72 92 94
f 73 94 95
f 73 95 96
f 73 96 81
f 74 97 92
f 74 92 75
f 77 98 99
f 77 99 78
f 77 83 98
f 78 99 100
f 78 100 80
f 78 80 79
f 80 101 87
f 80 100 101
f 81 102 82
f 81 96 102
f 82 102 103
f 82 103 83
f 83 103 104
f 83 104 105
f 83 105 98
f 84 106 85
f 85 106 107
f 85 107 108
f 85 108 109
f 85 109 86
f 86 110 111
f 86 109 110
f 89 112 113
f 89 113 90
f 90 113 114
f 90 114 115
f 90 115 91
f 91 115 95
f 91 95 94
f 91 94 92
f 92 97 93
f 95 115 114
f 95 114 96
f 96 116 102
f 96 114 116
f 98 117 118
f 98 118 99
f 98 105 119
f 98 119 117
f 99 118 120
f 99 120 121
f 99 121 100
f 100 121 101
f 102 116 103
f 103 116 122
f 103 122 104
f 104 122 108
f 104 108 123
f 104 123 105
f 105 123 124
f 105 124 119
f 106 125 107
f 107 125 126
f 107 126 123
f 107 123 108
f 108 122 110
f 108 110 109
f 110 127 111
f 110 122 128
f 110 128 129
f 110 129 127
f 112 130 128
f 112 128 113
f 113 128 116
f 113 116 114
f 116 128 122
f 123 126 131
f 123 131 124
f 128 130 132
f 128 132 129

