# https://github.com/mikedh/trimesh
v 0.05887753 -0.00001620 0.01877948
v 0.05884893 -0.00141600 0.01876813
v 0.05885447 -0.00141683 0.01720906
v 0.05887568 -0.00001620 0.01721360
v 0.05887568 0.00002016 0.01721360
v 0.05887661 0.00002016 0.01877948
v 0.05887661 0.00002016 0.01881806
v 0.05885447 0.00002016 0.02032494
v 0.05885447 -0.00001620 0.02032494
v 0.05878897 -0.00281580 0.01874090
v 0.05879727 -0.00281746 0.01717956
v 0.05882310 -0.00141683 0.02029090
v 0.05882218 -0.00154160 0.01445401
v 0.05886554 0.00002016 0.01575438
v 0.05886830 0.00002016 0.01601082
v 0.05887476 0.00002016 0.01695942
v 0.05879266 0.00002016 0.02179096
v 0.05879081 -0.00001620 0.02182954
v 0.05876130 -0.00141600 0.02181139
v 0.05869949 -0.00421561 0.01869551
v 0.05870779 -0.00421643 0.01714779
v 0.05875022 -0.00281580 0.02026593
v 0.05866443 -0.00421643 0.02022054
v 0.05868934 -0.00427097 0.01573395
v 0.05875853 -0.00297777 0.01452210
v 0.05869211 -0.00281663 0.02177962
v 0.05875853 -0.00235719 0.01293125
v 0.05881941 -0.00084997 0.01321946
v 0.05884340 0.00002016 0.01392298
v 0.05878897 0.00002016 0.02186813
v 0.05868288 -0.00141683 0.02330919
v 0.05862753 -0.00281580 0.02329330
v 0.05857034 -0.00561376 0.01864105
v 0.05857864 -0.00561293 0.01710467
v 0.05860724 -0.00421561 0.02173650
v 0.05853528 -0.00561623 0.02015927
v 0.05856111 -0.00561541 0.01553652
v 0.05855465 -0.00546419 0.01429516
v 0.05858325 -0.00489733 0.01313323
v 0.05868657 -0.00375699 0.01345094
v 0.05868473 -0.00336945 0.01233667
v 0.05869303 -0.00204484 0.01076171
v 0.05869764 -0.00195229 0.01076171
v 0.05870041 -0.00186800 0.01076171
v 0.05873916 -0.00065495 0.01076171
v 0.05874008 -0.00061942 0.01076171
v 0.05878805 0.00002016 0.01179202
v 0.05880004 0.00002016 0.01215739
v 0.05869303 0.00002016 0.02331827
v 0.05869303 -0.00001620 0.02331827
v 0.05858971 -0.00141600 0.02482742
v 0.05854820 -0.00281498 0.02480699
v 0.05853344 -0.00421561 0.02324792
v 0.05839691 -0.00701521 0.01855481
v 0.05841259 -0.00701356 0.01702297
v 0.05839968 -0.00701686 0.01545936
v 0.05847717 -0.00561376 0.02168657
v 0.05835724 -0.00701438 0.02008438
v 0.05830743 -0.00701521 0.02160261
v 0.05836647 -0.00701521 0.01390255
v 0.05834248 -0.00696728 0.01260446
v 0.05848362 -0.00546832 0.01165358
v 0.05858325 -0.00394292 0.01076171
v 0.05873823 0.00002016 0.01076171
v 0.05859340 0.00002016 0.02481834
v 0.05859340 -0.00001620 0.02481834
v 0.05859063 0.00002016 0.02485692
v 0.05821610 0.00000446 0.02957953
v 0.05821333 -0.00141600 0.02927770
v 0.05844303 -0.00421561 0.02475026
v 0.05813861 -0.00273152 0.02956137
v 0.05795226 -0.00414454 0.03050771
v 0.05839506 -0.00561458 0.02318891
v 0.05819211 -0.00841667 0.01845269
v 0.05821610 -0.00841584 0.01692312
v 0.05815521 -0.00841419 0.01998907
v 0.05815429 -0.00842080 0.01998680
v 0.05821149 -0.00841584 0.01537539
v 0.05818197 -0.00841667 0.01381405
v 0.05822809 -0.00701521 0.02310721
v 0.05810724 -0.00841832 0.02149821
v 0.05813953 -0.00842080 0.01226178
v 0.05828436 -0.00695406 0.01076171
v 0.05831112 -0.00671938 0.01076171
v 0.05848085 -0.00507829 0.01076171
v 0.05856203 -0.00418669 0.01076171
v 0.05026969 0.00002016 0.01076171
v 0.05821610 0.00002016 0.02957726
v 0.05809156 0.00002016 0.03082542
v 0.05809064 -0.00006495 0.03083904
v 0.05808418 -0.00147467 0.03065522
v 0.05829451 -0.00561623 0.02467990
v 0.05831481 -0.00421561 0.02623671
v 0.05793842 -0.00561623 0.02914834
v 0.05800577 -0.00290587 0.03081181
v 0.05783418 -0.00387516 0.03149489
v 0.05777883 -0.00471554 0.03137235
v 0.05777699 -0.00570465 0.03056444
v 0.05805835 -0.00421478 0.02920962
v 0.05819119 -0.00842080 0.01845269
v 0.05821517 -0.00842080 0.01692765
v 0.05821517 -0.00842080 0.01691631
v 0.05810632 -0.00842080 0.02149821
v 0.05821056 -0.00842080 0.01537539
v 0.05818104 -0.00842080 0.01381405
v 0.05802606 -0.00841501 0.02301417
v 0.05811647 -0.00701686 0.02459594
v 0.05802514 -0.00842080 0.02300736
v 0.05808233 -0.00842080 0.01076171
v 0.05808418 -0.00841088 0.01076171
v 0.05826499 -0.00709867 0.01076171
v 0.04945328 -0.00842080 0.01076171
v 0.05311560 0.00002016 0.02992901
v 0.05807034 0.00002016 0.03095705
v 0.05795872 0.00002016 0.03157432
v 0.05793197 -0.00104415 0.03164921
v 0.05790798 -0.00257700 0.03151305
v 0.05777514 -0.00701769 0.02906891
v 0.05762847 -0.00417677 0.03219841
v 0.05751869 -0.00565590 0.03208267
v 0.05766721 -0.00565094 0.03137235
v 0.05738216 -0.00808448 0.03128838
v 0.05758788 -0.00721188 0.03059395
v 0.05802422 -0.00842080 0.02302098
v 0.05756942 -0.00841501 0.02898041
v 0.05756851 -0.00842080 0.02897814
v 0.05232594 -0.00842080 0.02969754
v 0.05327058 0.00002016 0.03091620
v 0.05779728 0.00002016 0.03207132
v 0.05773179 -0.00014263 0.03227103
v 0.05773086 -0.00142096 0.03223699
v 0.05769397 -0.00269516 0.03222564
v 0.05744581 -0.00842080 0.03039651
v 0.05746242 -0.00842080 0.03023765
v 0.05733511 -0.00555922 0.03262051
v 0.05721427 -0.00633266 0.03270448
v 0.05735541 -0.00704992 0.03201459
v 0.05719674 -0.00842080 0.03193970
v 0.05751869 -0.00682846 0.03139731
v 0.05723733 -0.00842080 0.03175360
v 0.05733973 -0.00842080 0.03126342
v 0.05246524 -0.00842080 0.03054856
v 0.05267096 -0.00842080 0.03142454
v 0.05346246 0.00002016 0.03166964
v 0.05773548 0.00002016 0.03225968
v 0.05769120 0.00002016 0.03233003
v 0.05731943 0.00001685 0.03287469
v 0.05740522 -0.00135981 0.03274079
v 0.05683512 -0.00691192 0.03330814
v 0.05707405 -0.00728046 0.03274306
v 0.05692829 -0.00842080 0.03261824
v 0.05268111 -0.00842080 0.03146085
v 0.05280195 -0.00842080 0.03181715
v 0.05372629 0.00002016 0.03234592
v 0.05731851 0.00002016 0.03287469
v 0.05676409 0.00002016 0.03332857
v 0.05709619 -0.00121520 0.03309482
v 0.05675855 -0.00003686 0.03333084
v 0.05518661 -0.00838609 0.03394584
v 0.05609435 -0.00774156 0.03358274
v 0.05592738 -0.00842080 0.03356912
v 0.05647995 -0.00842080 0.03324006
v 0.05651409 -0.00842080 0.03320829
v 0.05692276 -0.00842080 0.03262732
v 0.05692644 -0.00288191 0.03322644
v 0.05301690 -0.00842080 0.03231642
v 0.05343386 -0.00842080 0.03303354
v 0.05412205 0.00002016 0.03285426
v 0.05615985 0.00002016 0.03344203
v 0.05505193 -0.00684994 0.03390272
v 0.05478625 -0.00842080 0.03388457
v 0.05492001 -0.00842080 0.03390499
v 0.05517277 -0.00842080 0.03394357
v 0.05518477 -0.00842080 0.03394357
v 0.05579638 0.00002016 0.03350558
v 0.05565616 0.00002016 0.03352827
v 0.05378534 -0.00842080 0.03340346
v 0.05413496 0.00002016 0.03287015
v 0.05522259 0.00002016 0.03357366
v 0.05441079 -0.00842080 0.03372344
v 0.05381670 -0.00842080 0.03343296
v 0.05414880 0.00002016 0.03288150
v 0.05497259 0.00002016 0.03343977
v 0.05457776 0.00002016 0.03319467
f 1 2 3
f 1 3 4
f 1 4 5
f 1 5 6
f 1 6 7
f 1 7 8
f 1 8 9
f 1 9 2
f 2 10 11
f 2 11 3
f 2 9 12
f 2 12 10
f 3 11 13
f 3 13 14
f 3 14 15
f 3 15 16
f 3 16 4
f 4 16 5
f 5 16 15
f 5 15 14
f 5 14 29
f 5 29 48
f 5 48 47
f 5 47 64
f 5 64 87
f 5 87 113
f 5 113 128
f 5 128 144
f 5 144 154
f 5 154 168
f 5 168 178
f 5 178 182
f 5 182 184
f 5 184 183
f 5 183 179
f 5 179 176
f 5 176 175
f 5 175 169
f 5 169 156
f 5 156 155
f 5 155 146
f 5 146 145
f 5 145 129
f 5 129 115
f 5 115 114
f 5 114 89
f 5 89 88
f 5 88 67
f 5 67 65
f 5 65 49
f 5 49 30
f 5 30 17
f 5 17 8
f 5 8 7
f 5 7 6
f 8 17 9
f 9 17 18
f 9 18 19
f 9 19 12
f 10 20 21
f 10 21 11
f 10 12 22
f 10 22 23
f 10 23 20
f 11 21 24
f 11 24 25
f 11 25 13
f 12 19 26
f 12 26 22
f 13 25 27
f 13 27 28
f 13 28 29
f 13 29 14
f 17 30 18
f 18 30 31
f 18 31 19
f 19 31 32
f 19 32 26
f 20 33 21
f 20 23 33
f 21 33 34
f 21 34 24
f 22 26 35
f 22 35 23
f 23 36 33
f 23 35 36
f 24 37 38
f 24 38 39
f 24 39 40
f 24 40 25
f 24 34 37
f 25 40 41
f 25 41 27
f 26 32 35
f 27 41 42
f 27 42 43
f 27 43 28
f 28 43 44
f 28 44 45
f 28 45 46
f 28 46 47
f 28 47 48
f 28 48 29
f 30 49 50
f 30 50 51
f 30 51 31
f 31 51 52
f 31 52 32
f 32 53 35
f 32 52 53
f 33 54 55
f 33 55 34
f 33 36 54
f 34 55 56
f 34 56 37
f 35 53 57
f 35 57 36
f 36 58 54
f 36 57 59
f 36 59 58
f 37 56 38
f 38 60 61
f 38 61 62
f 38 62 39
f 38 56 60
f 39 41 40
f 39 62 63
f 39 63 41
f 41 63 42
f 42 63 86
f 42 86 85
f 42 85 84
f 42 84 83
f 42 83 111
f 42 111 110
f 42 110 109
f 42 109 112
f 42 112 87
f 42 87 64
f 42 64 46
f 42 46 45
f 42 45 44
f 42 44 43
f 46 64 47
f 49 65 66
f 49 66 50
f 50 66 51
f 51 66 67
f 51 67 68
f 51 68 69
f 51 69 52
f 52 70 53
f 52 69 71
f 52 71 72
f 52 72 70
f 53 70 73
f 53 73 57
f 54 74 75
f 54 75 55
f 54 58 76
f 54 76 77
f 54 77 74
f 55 75 78
f 55 78 56
f 56 78 79
f 56 79 60
f 57 73 80
f 57 80 59
f 58 59 81
f 58 81 76
f 59 80 81
f 60 79 61
f 61 79 82
f 61 82 83
f 61 83 62
f 62 83 84
f 62 84 85
f 62 85 86
f 62 86 63
f 65 67 66
f 67 88 68
f 68 88 89
f 68 89 90
f 68 90 91
f 68 91 69
f 69 91 71
f 70 92 73
f 70 72 93
f 70 93 94
f 70 94 92
f 71 91 95
f 71 95 72
f 72 95 96
f 72 96 97
f 72 97 98
f 72 98 94
f 72 94 99
f 72 99 93
f 73 92 80
f 74 77 100
f 74 100 101
f 74 101 75
f 75 101 102
f 75 102 78
f 76 81 77
f 77 81 103
f 77 103 108
f 77 108 124
f 77 124 126
f 77 126 134
f 77 134 133
f 77 133 141
f 77 141 140
f 77 140 138
f 77 138 151
f 77 151 164
f 77 164 163
f 77 163 162
f 77 162 161
f 77 161 174
f 77 174 173
f 77 173 172
f 77 172 171
f 77 171 180
f 77 180 181
f 77 181 177
f 77 177 167
f 77 167 166
f 77 166 153
f 77 153 152
f 77 152 143
f 77 143 142
f 77 142 127
f 77 127 112
f 77 112 109
f 77 109 82
f 77 82 105
f 77 105 104
f 77 104 102
f 77 102 101
f 77 101 100
f 78 102 104
f 78 104 79
f 79 104 105
f 79 105 82
f 80 106 81
f 80 92 107
f 80 107 106
f 81 106 108
f 81 108 103
f 82 109 110
f 82 110 111
f 82 111 83
f 87 112 113
f 89 114 90
f 90 114 115
f 90 115 116
f 90 116 91
f 91 116 117
f 91 117 95
f 92 94 118
f 92 118 107
f 93 99 94
f 94 98 118
f 95 117 96
f 96 117 119
f 96 119 120
f 96 120 97
f 97 121 98
f 97 120 121
f 98 121 122
f 98 122 123
f 98 123 118
f 106 124 108
f 106 107 118
f 106 118 125
f 106 125 126
f 106 126 124
f 112 127 113
f 113 127 128
f 115 129 116
f 116 129 130
f 116 130 131
f 116 131 132
f 116 132 117
f 117 132 119
f 118 123 133
f 118 133 134
f 118 134 125
f 119 132 135
f 119 135 120
f 120 135 136
f 120 136 137
f 120 137 138
f 120 138 122
f 120 122 139
f 120 139 121
f 121 139 122
f 122 138 140
f 122 140 141
f 122 141 123
f 123 141 133
f 125 134 126
f 127 142 128
f 128 143 144
f 128 142 143
f 129 145 130
f 130 145 146
f 130 146 147
f 130 147 148
f 130 148 131
f 131 148 132
f 132 148 135
f 135 148 149
f 135 149 136
f 136 150 137
f 136 149 150
f 137 150 138
f 138 150 151
f 143 152 144
f 144 152 153
f 144 153 154
f 146 155 147
f 147 155 156
f 147 156 157
f 147 157 149
f 147 149 148
f 149 156 158
f 149 158 159
f 149 159 160
f 149 160 161
f 149 161 162
f 149 162 163
f 149 163 164
f 149 164 151
f 149 151 150
f 149 157 165
f 149 165 156
f 153 166 154
f 154 166 167
f 154 167 168
f 156 169 159
f 156 159 158
f 156 165 157
f 159 170 171
f 159 171 172
f 159 172 173
f 159 173 174
f 159 174 160
f 159 169 175
f 159 175 176
f 159 176 170
f 160 174 161
f 167 177 178
f 167 178 168
f 170 176 179
f 170 179 171
f 171 179 180
f 177 181 178
f 178 181 182
f 179 183 181
f 179 181 180
f 181 183 184
f 181 184 182

