# https://github.com/mikedh/trimesh
v -0.05793977 -0.01011285 0.01424884
v -0.05026985 -0.01011285 0.01424884
v -0.05794061 -0.01011285 0.01527833
v -0.05799282 -0.00981583 0.01424884
v -0.05124164 -0.00032661 0.01424884
v -0.05292502 -0.00032661 0.02842768
v -0.05201722 -0.01011285 0.02885415
v -0.05799198 -0.00981488 0.01525453
v -0.05792798 -0.01011285 0.01683150
v -0.05798188 -0.00981583 0.01680770
v -0.05820588 -0.00841602 0.01515932
v -0.05820672 -0.00841602 0.01424884
v -0.05886778 -0.00032661 0.01424884
v -0.05313807 -0.00032661 0.03014350
v -0.05220586 -0.01011285 0.03041129
v -0.05819830 -0.00841602 0.01670852
v -0.05790609 -0.01011285 0.01804944
v -0.05795493 -0.00981296 0.01835690
v -0.05818062 -0.00841506 0.01825772
v -0.05839704 -0.00701525 0.01506807
v -0.05829009 -0.00780187 0.01424884
v -0.05884841 -0.00141599 0.01424884
v -0.05887199 -0.00032661 0.01484789
v -0.05333428 -0.00032661 0.03141698
v -0.05226228 -0.01011285 0.03078421
v -0.05837346 -0.00701525 0.01816845
v -0.05838693 -0.00701525 0.01661529
v -0.05789935 -0.01011285 0.01838467
v -0.05786735 -0.01011285 0.01962046
v -0.05791367 -0.00981488 0.01992593
v -0.05814188 -0.00841410 0.01981683
v -0.05830272 -0.00701716 0.02129660
v -0.05834146 -0.00701525 0.01972757
v -0.05855199 -0.00561543 0.01808713
v -0.05856209 -0.00561543 0.01653594
v -0.05857135 -0.00561639 0.01499071
v -0.05839535 -0.00701429 0.01424884
v -0.05881725 -0.00225243 0.01424884
v -0.05885177 -0.00141599 0.01485781
v -0.05884336 -0.00141599 0.01640502
v -0.05885767 -0.00032661 0.01639709
v -0.05346312 -0.00032661 0.03212314
v -0.05241554 -0.01011285 0.03170460
v -0.05237007 -0.01011285 0.03143681
v -0.05785725 -0.01011285 0.01995172
v -0.05780840 -0.01011285 0.02119346
v -0.05778903 -0.00981775 0.02307987
v -0.05804504 -0.00841602 0.02295887
v -0.05851998 -0.00561543 0.01964624
v -0.05825556 -0.00701333 0.02284779
v -0.05868925 -0.00421562 0.01801571
v -0.05870272 -0.00421562 0.01646850
v -0.05865978 -0.00421562 0.01957483
v -0.05870693 -0.00421562 0.01492129
v -0.05856546 -0.00561543 0.01424884
v -0.05879451 -0.00281581 0.01424884
v -0.05879957 -0.00281581 0.01487764
v -0.05879451 -0.00281677 0.01642684
v -0.05877767 -0.00281677 0.01798001
v -0.05882399 -0.00141599 0.01796017
v -0.05885346 -0.00032661 0.01674224
v -0.05258396 -0.01011285 0.03249011
v -0.05363407 -0.00032661 0.03280154
v -0.05773177 -0.01011285 0.02310764
v -0.05772672 -0.00981392 0.02464097
v -0.05798019 -0.00841410 0.02452592
v -0.05847030 -0.00561543 0.02121131
v -0.05818904 -0.00701429 0.02442674
v -0.05841893 -0.00561543 0.02278034
v -0.05860588 -0.00421562 0.02114188
v -0.05870020 -0.00281677 0.02110618
v -0.05874651 -0.00281677 0.01953913
v -0.05874146 -0.00362255 0.01424884
v -0.05870104 -0.00421562 0.01424884
v -0.05879199 -0.00141599 0.01951532
v -0.05883241 -0.00032661 0.01795224
v -0.05283659 -0.01011285 0.03319429
v -0.05394313 -0.00032661 0.03334505
v -0.05768209 -0.01011285 0.02433748
v -0.05766693 -0.01011285 0.02467072
v -0.05764588 -0.01011285 0.02500992
v -0.05762230 -0.00981296 0.02623182
v -0.05786398 -0.00841410 0.02612471
v -0.05834230 -0.00561352 0.02435136
v -0.05806693 -0.00701429 0.02602950
v -0.05822188 -0.00561352 0.02594817
v -0.05853683 -0.00421754 0.02273274
v -0.05874820 -0.00141599 0.02108436
v -0.05862693 -0.00281581 0.02268116
v -0.05868083 -0.00141695 0.02266133
v -0.05879957 -0.00032661 0.01951136
v -0.05315070 -0.01011285 0.03370805
v -0.05422691 -0.00032661 0.03376160
v -0.05756335 -0.01011285 0.02626158
v -0.05729472 -0.01011285 0.02953453
v -0.05735703 -0.00981488 0.02945122
v -0.05758946 -0.00841506 0.02934411
v -0.05845430 -0.00421754 0.02431764
v -0.05778314 -0.00701429 0.02924889
v -0.05832378 -0.00421562 0.02590453
v -0.05807451 -0.00561639 0.02758068
v -0.05803998 -0.00421754 0.02914178
v -0.05870525 -0.00032661 0.02230626
v -0.05875409 -0.00032661 0.02107841
v -0.05853430 -0.00281581 0.02427003
v -0.05869009 -0.00032661 0.02265538
v -0.05858398 -0.00141599 0.02424623
v -0.05859325 -0.00032661 0.02424425
v -0.05350860 -0.01011285 0.03414246
v -0.05451155 -0.00032661 0.03397187
v -0.05716587 -0.01011285 0.03092504
v -0.05717430 -0.01002566 0.03100637
v -0.05736798 -0.00877531 0.03106588
v -0.05758777 -0.00721262 0.03094289
v -0.05774103 -0.00582335 0.03086553
v -0.05792883 -0.00561639 0.02919137
v -0.05839956 -0.00281581 0.02587081
v -0.05786146 -0.00439479 0.03080404
v -0.05795493 -0.00297773 0.03075247
v -0.05811662 -0.00281581 0.02909219
v -0.05844925 -0.00141599 0.02584700
v -0.05845683 -0.00032661 0.02584700
v -0.05380165 -0.00861435 0.03421585
v -0.05387407 -0.01011285 0.03435470
v -0.05459997 -0.00032661 0.03399369
v -0.05489303 -0.00811134 0.03451339
v -0.05716082 -0.01011285 0.03097661
v -0.05715493 -0.01011285 0.03103216
v -0.05713051 -0.00954564 0.03195652
v -0.05736882 -0.00798487 0.03186726
v -0.05754061 -0.00659942 0.03178395
v -0.05767535 -0.00526572 0.03169270
v -0.05779998 -0.00371357 0.03163914
v -0.05787830 -0.00235591 0.03160939
v -0.05802567 -0.00148306 0.03060965
v -0.05816546 -0.00141599 0.02907037
v -0.05818062 -0.00032661 0.02906640
v -0.05433555 -0.01011285 0.03447769
v -0.05491324 -0.00032661 0.03405319
v -0.05621597 -0.00032661 0.03429916
v -0.05557429 -0.00658601 0.03443008
v -0.05491155 -0.00972290 0.03450942
v -0.05463365 -0.01011285 0.03449356
v -0.05706061 -0.01011285 0.03170460
v -0.05700588 -0.01011285 0.03203586
v -0.05688040 -0.01011285 0.03252581
v -0.05687619 -0.00976601 0.03278765
v -0.05716840 -0.00818607 0.03264880
v -0.05731324 -0.00707944 0.03255557
v -0.05754398 -0.00419646 0.03258929
v -0.05773767 -0.00277269 0.03226398
v -0.05778651 -0.00149073 0.03225009
v -0.05791535 -0.00098676 0.03159749
v -0.05803746 -0.00032661 0.03067114
v -0.05628503 -0.00032661 0.03427536
v -0.05622861 -0.00429515 0.03432892
v -0.05488881 -0.01011285 0.03450546
v -0.05679703 -0.01011285 0.03280154
v -0.05671703 -0.01011285 0.03296816
v -0.05649977 -0.01011285 0.03335496
v -0.05655871 -0.00957343 0.03340852
v -0.05688377 -0.00859519 0.03309313
v -0.05731156 -0.00295953 0.03331926
v -0.05749851 -0.00331499 0.03285708
v -0.05760209 -0.00183757 0.03289477
v -0.05766693 -0.00032661 0.03274996
v -0.05781430 -0.00032661 0.03220248
v -0.05784630 -0.00032661 0.03202991
v -0.05792377 -0.00032661 0.03158955
v -0.05798693 -0.00032661 0.03108571
v -0.05653850 -0.00032661 0.03411072
v -0.05626398 -0.00310420 0.03430511
v -0.05651324 -0.00158558 0.03413254
v -0.05655535 -0.00413514 0.03408890
v -0.05624882 -0.00555028 0.03428924
v -0.05568966 -0.01011285 0.03420196
v -0.05614103 -0.01011285 0.03389649
v -0.05618061 -0.00978613 0.03393814
v -0.05623366 -0.00835853 0.03409882
v -0.05685514 -0.00397801 0.03379136
v -0.05731661 -0.00169960 0.03345018
v -0.05758356 -0.00032661 0.03296816
v -0.05763240 -0.00032661 0.03287295
v -0.05691745 -0.00032661 0.03379136
v -0.05693935 -0.00083058 0.03377351
v -0.05681724 -0.00234633 0.03387268
v -0.05622440 -0.00685045 0.03420990
v -0.05592882 -0.01011285 0.03405121
v -0.05606776 -0.01011285 0.03395600
v -0.05734777 -0.00032661 0.03341050
f 1 2 7
f 1 7 15
f 1 15 25
f 1 25 44
f 1 44 43
f 1 43 62
f 1 62 77
f 1 77 92
f 1 92 109
f 1 109 124
f 1 124 138
f 1 138 143
f 1 143 157
f 1 157 176
f 1 176 188
f 1 188 189
f 1 189 177
f 1 177 160
f 1 160 159
f 1 159 158
f 1 158 146
f 1 146 145
f 1 145 144
f 1 144 128
f 1 128 127
f 1 127 111
f 1 111 95
f 1 95 94
f 1 94 81
f 1 81 80
f 1 80 79
f 1 79 64
f 1 64 46
f 1 46 45
f 1 45 29
f 1 29 28
f 1 28 17
f 1 17 9
f 1 9 3
f 1 3 4
f 1 4 12
f 1 12 21
f 1 21 37
f 1 37 55
f 1 55 74
f 1 74 73
f 1 73 56
f 1 56 38
f 1 38 22
f 1 22 13
f 1 13 5
f 1 5 2
f 2 5 6
f 2 6 7
f 3 8 4
f 3 9 10
f 3 10 8
f 4 8 11
f 4 11 12
f 5 13 23
f 5 23 41
f 5 41 61
f 5 61 76
f 5 76 91
f 5 91 104
f 5 104 103
f 5 103 106
f 5 106 108
f 5 108 122
f 5 122 137
f 5 137 154
f 5 154 170
f 5 170 169
f 5 169 168
f 5 168 167
f 5 167 166
f 5 166 183
f 5 183 182
f 5 182 190
f 5 190 184
f 5 184 171
f 5 171 155
f 5 155 140
f 5 140 139
f 5 139 125
f 5 125 110
f 5 110 93
f 5 93 78
f 5 78 63
f 5 63 42
f 5 42 24
f 5 24 14
f 5 14 6
f 6 14 15
f 6 15 7
f 8 10 16
f 8 16 11
f 9 17 18
f 9 18 10
f 10 18 19
f 10 19 16
f 11 20 12
f 11 16 20
f 12 20 21
f 13 22 23
f 14 24 25
f 14 25 15
f 16 19 26
f 16 26 27
f 16 27 20
f 17 28 18
f 18 28 29
f 18 29 30
f 18 30 31
f 18 31 19
f 19 31 32
f 19 32 33
f 19 33 26
f 20 27 34
f 20 34 35
f 20 35 36
f 20 36 37
f 20 37 21
f 22 38 39
f 22 39 23
f 23 39 40
f 23 40 41
f 24 42 43
f 24 43 44
f 24 44 25
f 26 34 27
f 26 33 49
f 26 49 34
f 29 45 30
f 30 45 46
f 30 46 47
f 30 47 48
f 30 48 31
f 31 48 32
f 32 49 33
f 32 48 50
f 32 50 49
f 34 51 52
f 34 52 35
f 34 49 53
f 34 53 51
f 35 52 36
f 36 54 55
f 36 55 37
f 36 52 54
f 38 56 57
f 38 57 39
f 39 57 58
f 39 58 40
f 40 58 59
f 40 59 60
f 40 60 61
f 40 61 41
f 42 62 43
f 42 63 62
f 46 64 47
f 47 64 65
f 47 65 48
f 48 65 66
f 48 66 50
f 49 50 67
f 49 67 53
f 50 66 68
f 50 68 69
f 50 69 67
f 51 59 58
f 51 58 52
f 51 53 59
f 52 58 57
f 52 57 54
f 53 67 69
f 53 69 70
f 53 70 71
f 53 71 72
f 53 72 59
f 54 57 73
f 54 73 74
f 54 74 55
f 56 73 57
f 59 72 60
f 60 72 75
f 60 75 76
f 60 76 61
f 62 63 77
f 63 78 77
f 64 79 65
f 65 80 81
f 65 81 82
f 65 82 66
f 65 79 80
f 66 82 83
f 66 83 68
f 68 84 69
f 68 83 85
f 68 85 86
f 68 86 84
f 69 87 70
f 69 84 87
f 70 87 71
f 71 88 72
f 71 87 89
f 71 89 90
f 71 90 88
f 72 88 75
f 75 88 91
f 75 91 76
f 77 78 92
f 78 93 92
f 81 94 82
f 82 94 95
f 82 95 96
f 82 96 83
f 83 96 97
f 83 97 85
f 84 86 98
f 84 98 87
f 85 97 99
f 85 99 86
f 86 100 98
f 86 99 101
f 86 101 102
f 86 102 100
f 87 98 89
f 88 90 103
f 88 103 104
f 88 104 91
f 89 98 105
f 89 105 90
f 90 106 103
f 90 105 107
f 90 107 108
f 90 108 106
f 92 93 109
f 93 110 109
f 95 111 96
f 96 111 112
f 96 112 113
f 96 113 97
f 97 113 114
f 97 114 99
f 98 100 105
f 99 114 115
f 99 115 116
f 99 116 101
f 100 117 105
f 100 102 117
f 101 116 102
f 102 116 118
f 102 118 119
f 102 119 120
f 102 120 117
f 105 117 121
f 105 121 107
f 107 121 108
f 108 121 122
f 109 123 124
f 109 110 123
f 110 125 126
f 110 126 124
f 110 124 123
f 111 127 112
f 112 127 128
f 112 128 129
f 112 129 113
f 113 129 130
f 113 130 114
f 114 130 131
f 114 131 115
f 115 131 132
f 115 132 118
f 115 118 116
f 117 120 121
f 118 132 133
f 118 133 119
f 119 133 134
f 119 134 135
f 119 135 120
f 120 135 136
f 120 136 121
f 121 136 137
f 121 137 122
f 124 126 138
f 125 139 126
f 126 140 141
f 126 141 142
f 126 142 143
f 126 143 138
f 126 139 140
f 128 144 129
f 129 144 145
f 129 145 146
f 129 146 147
f 129 147 148
f 129 148 130
f 130 148 149
f 130 149 131
f 131 149 132
f 132 149 150
f 132 150 151
f 132 151 133
f 133 151 134
f 134 151 152
f 134 152 153
f 134 153 135
f 135 153 154
f 135 154 136
f 136 154 137
f 140 155 156
f 140 156 141
f 141 157 142
f 141 156 157
f 142 157 143
f 146 158 147
f 147 158 159
f 147 159 160
f 147 160 161
f 147 161 162
f 147 162 148
f 148 162 163
f 148 163 149
f 149 163 164
f 149 164 150
f 150 164 165
f 150 165 151
f 151 165 152
f 152 165 166
f 152 166 167
f 152 167 168
f 152 168 153
f 153 169 170
f 153 170 154
f 153 168 169
f 155 171 172
f 155 172 156
f 156 172 173
f 156 173 174
f 156 174 175
f 156 175 157
f 157 175 176
f 160 177 178
f 160 178 161
f 161 178 162
f 162 178 179
f 162 179 163
f 163 180 181
f 163 181 165
f 163 165 164
f 163 179 180
f 165 182 183
f 165 183 166
f 165 181 182
f 171 184 185
f 171 185 173
f 171 173 172
f 173 185 186
f 173 186 174
f 174 179 175
f 174 186 181
f 174 181 180
f 174 180 179
f 175 187 176
f 175 179 187
f 176 179 178
f 176 178 188
f 176 187 179
f 177 189 178
f 178 189 188
f 181 186 185
f 181 185 184
f 181 184 190
f 181 190 182

