# https://github.com/mikedh/trimesh
v 0.00977432 -0.05758160 0.01663013
v 0.00977432 -0.05757710 0.01441471
v 0.01074966 -0.05741993 0.01641654
v 0.01015838 -0.05751985 0.01768444
v 0.00977432 -0.05758047 0.01750721
v 0.00977432 -0.05756812 0.01287187
v 0.01134186 -0.05731553 0.01514864
v 0.01201788 -0.05718418 0.01700732
v 0.01142475 -0.05728859 0.01827749
v 0.01083716 -0.05738289 0.01954539
v 0.00977432 -0.05757598 0.01850926
v 0.00977432 -0.05755016 0.01187891
v 0.01192854 -0.05716510 0.01387846
v 0.01260731 -0.05706406 0.01573942
v 0.00998523 -0.05750189 0.01142673
v 0.01125437 -0.05726389 0.01201751
v 0.01328793 -0.05688781 0.01760037
v 0.01269389 -0.05700568 0.01886827
v 0.01210077 -0.05710784 0.02013617
v 0.01151133 -0.05719653 0.02140634
v 0.01024127 -0.05746484 0.02081329
v 0.00977432 -0.05756925 0.01905005
v 0.00977432 -0.05753444 0.01131312
v 0.01319675 -0.05690352 0.01447151
v 0.01387829 -0.05675983 0.01633019
v 0.01003957 -0.05748729 0.01131312
v 0.01158316 -0.05716846 0.01131312
v 0.01455338 -0.05653754 0.01819115
v 0.01396579 -0.05666440 0.01946132
v 0.01514835 -0.05640844 0.01692324
v 0.01337359 -0.05677779 0.02072922
v 0.01277770 -0.05687096 0.02199712
v 0.01218826 -0.05694057 0.02326502
v 0.01092189 -0.05725940 0.02267652
v 0.00977432 -0.05751087 0.02181761
v 0.00977432 -0.05754567 0.02059743
v 0.00977432 -0.04909223 0.01131312
v 0.01252350 -0.05699670 0.01261056
v 0.01311571 -0.05680922 0.01134039
v 0.01379448 -0.05671267 0.01320134
v 0.01446957 -0.05659480 0.01506229
v 0.01573687 -0.05624566 0.01565307
v 0.01310558 -0.05681034 0.01131312
v 0.01523677 -0.05630291 0.02005210
v 0.01700416 -0.05587519 0.01624612
v 0.01641933 -0.05602899 0.01751402
v 0.01582436 -0.05617269 0.01878420
v 0.01464548 -0.05641517 0.02132227
v 0.01532058 -0.05616595 0.02317868
v 0.01473114 -0.05625688 0.02444885
v 0.01346016 -0.05659929 0.02385580
v 0.01286888 -0.05665654 0.02512597
v 0.01159698 -0.05698996 0.02453292
v 0.01032784 -0.05729644 0.02394214
v 0.00977432 -0.05748168 0.02242203
v 0.00977432 -0.05749739 0.02214027
v 0.01918325 -0.04611387 0.01131312
v 0.00977432 -0.05169112 0.02986356
v 0.01438853 -0.05650611 0.01193344
v 0.01608869 -0.05604021 0.01131312
v 0.01621671 -0.05600654 0.01131312
v 0.01633183 -0.05605481 0.01438517
v 0.01759176 -0.05569332 0.01497595
v 0.01650130 -0.05593469 0.02064288
v 0.01827883 -0.05546767 0.01683690
v 0.01709074 -0.05578426 0.01937497
v 0.01658511 -0.05577864 0.02376946
v 0.01598922 -0.05588192 0.02503736
v 0.01539426 -0.05593918 0.02630526
v 0.01413433 -0.05631189 0.02571675
v 0.01186775 -0.05634445 0.03169725
v 0.00977432 -0.05730318 0.02512597
v 0.00977432 -0.05740983 0.02368311
v 0.01008286 -0.05671267 0.03147912
v 0.01918325 -0.05506128 0.01131312
v 0.00977432 -0.05189208 0.03128597
v 0.01918325 -0.04904507 0.03111101
v 0.01636223 -0.05596388 0.01131312
v 0.01750519 -0.05564280 0.01184709
v 0.01819409 -0.05547329 0.01370805
v 0.01886458 -0.05528019 0.01556900
v 0.01776951 -0.05552830 0.02123593
v 0.01717639 -0.05566189 0.02250383
v 0.01918325 -0.05514098 0.01725726
v 0.01918325 -0.05511180 0.01880237
v 0.01835895 -0.05536888 0.01996575
v 0.01785701 -0.05531948 0.02436251
v 0.01725744 -0.05542501 0.02563041
v 0.01666984 -0.05548900 0.02689831
v 0.01630144 -0.05511404 0.03129734
v 0.01602882 -0.05511292 0.03187675
v 0.01326030 -0.05585498 0.03226757
v 0.01227668 -0.05606828 0.03266294
v 0.01127279 -0.05642528 0.03209261
v 0.00977432 -0.05676431 0.03135868
v 0.00977432 -0.05665317 0.03211306
v 0.00977432 -0.05674523 0.03154955
v 0.01775570 -0.05554513 0.01131312
v 0.01918325 -0.05507138 0.01158579
v 0.01878537 -0.05523865 0.01243787
v 0.00977432 -0.05191453 0.03142912
v 0.00977432 -0.05202567 0.03209488
v 0.01918325 -0.04918316 0.03185630
v 0.01918325 -0.05515109 0.01416931
v 0.01918325 -0.05516231 0.01488960
v 0.01918325 -0.05516231 0.01571669
v 0.01918325 -0.05507587 0.02034976
v 0.01918325 -0.05502985 0.02151314
v 0.01903681 -0.05506689 0.02182670
v 0.01844829 -0.05519712 0.02309461
v 0.01913167 -0.05482440 0.02495556
v 0.01853210 -0.05491758 0.02622346
v 0.01912522 -0.05423053 0.03123144
v 0.01802002 -0.05466499 0.03062021
v 0.01758071 -0.05465825 0.03181086
v 0.01652709 -0.05490074 0.03224031
v 0.01728967 -0.05457742 0.03258114
v 0.01700048 -0.05447639 0.03313102
v 0.01339661 -0.05550023 0.03325599
v 0.01167711 -0.05607839 0.03302650
v 0.01105175 -0.05632985 0.03271293
v 0.01038218 -0.05650948 0.03239028
v 0.00977432 -0.05664756 0.03214488
v 0.01918325 -0.05510394 0.01262420
v 0.00977432 -0.05203353 0.03212670
v 0.01918325 -0.04929542 0.03232665
v 0.01918325 -0.05500963 0.02189487
v 0.01918325 -0.05494901 0.02282876
v 0.01918325 -0.05481318 0.02484649
v 0.01918325 -0.05480644 0.02493738
v 0.01918325 -0.05480307 0.02498055
v 0.01918325 -0.05421818 0.03113374
v 0.01918325 -0.05420695 0.03124962
v 0.01884616 -0.05425859 0.03178814
v 0.01853394 -0.05419236 0.03254479
v 0.01918325 -0.05371748 0.03320600
v 0.01865091 -0.05387016 0.03326963
v 0.01605461 -0.05453364 0.03353548
v 0.01918325 -0.05388363 0.03278110
v 0.01471456 -0.05483451 0.03371044
v 0.01296466 -0.05545532 0.03353093
v 0.01076163 -0.05614911 0.03328780
v 0.00977432 -0.05648478 0.03279928
v 0.00977432 -0.05652968 0.03263340
v 0.00977432 -0.05630404 0.03328099
v 0.01918325 -0.04934594 0.03251070
v 0.00977432 -0.05220754 0.03275156
v 0.01918325 -0.05413510 0.03177223
v 0.01918325 -0.05410816 0.03193810
v 0.01918325 -0.05402396 0.03230620
v 0.01918325 -0.05396671 0.03252661
v 0.01918325 -0.05354684 0.03345368
v 0.01918325 -0.05329200 0.03379678
v 0.01867670 -0.05327853 0.03405354
v 0.01328977 -0.05507250 0.03390358
v 0.01197183 -0.05540256 0.03389903
v 0.01116135 -0.05578426 0.03363318
v 0.00977432 -0.05597847 0.03371498
v 0.00977432 -0.05230072 0.03297651
v 0.01918325 -0.04964456 0.03312193
v 0.01918325 -0.05312361 0.03398765
v 0.01918325 -0.05306635 0.03405127
v 0.01918325 -0.05289571 0.03416943
v 0.01768662 -0.05322801 0.03428985
v 0.01396487 -0.05469418 0.03405127
v 0.01186223 -0.05502760 0.03415579
v 0.00977432 -0.05543848 0.03416943
v 0.00977432 -0.05565852 0.03398538
v 0.00977432 -0.05276324 0.03378996
v 0.01918325 -0.05011607 0.03383768
v 0.01918325 -0.05270262 0.03428076
v 0.01334043 -0.05454936 0.03423078
v 0.01918325 -0.05233552 0.03440801
v 0.01862052 -0.05252300 0.03441256
v 0.01143488 -0.05465825 0.03441028
v 0.01002023 -0.05533745 0.03420124
v 0.00977432 -0.05533632 0.03422623
v 0.00977432 -0.05289571 0.03394220
v 0.00977432 -0.05306635 0.03413761
v 0.01918325 -0.05047419 0.03410126
v 0.01918325 -0.05205935 0.03445800
v 0.01918325 -0.05188085 0.03448981
v 0.01777227 -0.05251626 0.03446709
v 0.00990326 -0.05468632 0.03451708
v 0.00977432 -0.05510057 0.03434439
v 0.00977432 -0.05345928 0.03434212
v 0.01918325 -0.05049327 0.03411489
v 0.01918325 -0.05182135 0.03449663
v 0.00977432 -0.05468295 0.03452389
v 0.00977432 -0.05471887 0.03451026
v 0.00977432 -0.05476939 0.03448981
v 0.00977432 -0.05354123 0.03436256
v 0.01918325 -0.05123646 0.03445800
v 0.01918325 -0.05104561 0.03438074
v 0.01918325 -0.05093335 0.03433303
v 0.01918325 -0.05168327 0.03449208
v 0.01811765 -0.05171695 0.03448299
v 0.00977432 -0.05399141 0.03444437
v 0.00977432 -0.05388139 0.03442846
v 0.01918325 -0.05141159 0.03447163
f 1 2 3
f 1 3 4
f 1 4 5
f 1 5 11
f 1 11 22
f 1 22 36
f 1 36 35
f 1 35 56
f 1 56 55
f 1 55 73
f 1 73 72
f 1 72 95
f 1 95 97
f 1 97 96
f 1 96 123
f 1 123 144
f 1 144 143
f 1 143 145
f 1 145 158
f 1 158 168
f 1 168 167
f 1 167 177
f 1 177 185
f 1 185 191
f 1 191 190
f 1 190 189
f 1 189 198
f 1 198 199
f 1 199 192
f 1 192 186
f 1 186 179
f 1 179 178
f 1 178 169
f 1 169 159
f 1 159 147
f 1 147 125
f 1 125 102
f 1 102 101
f 1 101 76
f 1 76 58
f 1 58 37
f 1 37 23
f 1 23 12
f 1 12 6
f 1 6 2
f 2 6 7
f 2 7 3
f 3 7 8
f 3 8 9
f 3 9 4
f 4 9 10
f 4 10 11
f 4 11 5
f 6 12 7
f 7 13 14
f 7 14 8
f 7 12 15
f 7 15 16
f 7 16 13
f 8 14 17
f 8 17 18
f 8 18 9
f 9 18 19
f 9 19 10
f 10 19 20
f 10 20 21
f 10 21 22
f 10 22 11
f 12 23 15
f 13 24 14
f 13 16 24
f 14 25 17
f 14 24 25
f 15 23 26
f 15 26 16
f 16 26 27
f 16 27 24
f 17 28 29
f 17 29 18
f 17 25 30
f 17 30 28
f 18 29 31
f 18 31 19
f 19 31 32
f 19 32 20
f 20 32 33
f 20 33 34
f 20 34 21
f 21 34 35
f 21 35 36
f 21 36 22
f 23 37 57
f 23 57 75
f 23 75 98
f 23 98 78
f 23 78 61
f 23 61 60
f 23 60 43
f 23 43 27
f 23 27 26
f 24 27 38
f 24 38 39
f 24 39 40
f 24 40 41
f 24 41 25
f 25 41 42
f 25 42 30
f 27 43 39
f 27 39 38
f 28 44 29
f 28 30 44
f 29 44 31
f 30 42 45
f 30 45 46
f 30 46 47
f 30 47 44
f 31 44 48
f 31 48 49
f 31 49 32
f 32 49 50
f 32 50 51
f 32 51 33
f 33 51 52
f 33 52 53
f 33 53 34
f 34 53 54
f 34 54 55
f 34 55 56
f 34 56 35
f 37 58 57
f 39 59 40
f 39 43 60
f 39 60 59
f 40 59 60
f 40 60 61
f 40 61 41
f 41 62 42
f 41 61 62
f 42 62 63
f 42 63 45
f 44 64 49
f 44 49 48
f 44 47 64
f 45 65 66
f 45 66 46
f 45 63 65
f 46 66 64
f 46 64 47
f 49 67 68
f 49 68 50
f 49 64 67
f 50 68 69
f 50 69 70
f 50 70 52
f 50 52 51
f 52 70 71
f 52 71 53
f 53 71 54
f 54 72 73
f 54 73 55
f 54 71 74
f 54 74 72
f 57 58 76
f 57 76 77
f 57 77 103
f 57 103 126
f 57 126 146
f 57 146 160
f 57 160 170
f 57 170 180
f 57 180 187
f 57 187 195
f 57 195 194
f 57 194 193
f 57 193 200
f 57 200 196
f 57 196 188
f 57 188 182
f 57 182 181
f 57 181 173
f 57 173 171
f 57 171 163
f 57 163 162
f 57 162 161
f 57 161 153
f 57 153 152
f 57 152 136
f 57 136 139
f 57 139 151
f 57 151 150
f 57 150 149
f 57 149 148
f 57 148 133
f 57 133 132
f 57 132 131
f 57 131 130
f 57 130 129
f 57 129 128
f 57 128 127
f 57 127 108
f 57 108 107
f 57 107 85
f 57 85 84
f 57 84 106
f 57 106 105
f 57 105 104
f 57 104 124
f 57 124 99
f 57 99 75
f 61 78 62
f 62 78 79
f 62 79 63
f 63 80 81
f 63 81 65
f 63 79 80
f 64 66 82
f 64 82 83
f 64 83 67
f 65 81 84
f 65 84 85
f 65 85 86
f 65 86 82
f 65 82 66
f 67 83 87
f 67 87 88
f 67 88 68
f 68 88 89
f 68 89 69
f 69 89 90
f 69 90 71
f 69 71 70
f 71 90 91
f 71 91 92
f 71 92 93
f 71 93 94
f 71 94 74
f 72 74 95
f 74 94 96
f 74 96 97
f 74 97 95
f 75 99 100
f 75 100 98
f 76 101 77
f 77 101 102
f 77 102 103
f 78 98 79
f 79 98 80
f 80 104 81
f 80 98 100
f 80 100 104
f 81 104 105
f 81 105 106
f 81 106 84
f 82 86 107
f 82 107 108
f 82 108 109
f 82 109 83
f 83 109 110
f 83 110 87
f 85 107 86
f 87 111 88
f 87 110 111
f 88 111 112
f 88 112 113
f 88 113 114
f 88 114 89
f 89 114 90
f 90 114 115
f 90 115 91
f 91 115 116
f 91 116 92
f 92 116 93
f 93 117 118
f 93 118 119
f 93 119 120
f 93 120 121
f 93 121 94
f 93 116 117
f 94 122 123
f 94 123 96
f 94 121 122
f 99 124 100
f 100 124 104
f 102 125 126
f 102 126 103
f 108 127 109
f 109 127 110
f 110 127 128
f 110 128 129
f 110 129 111
f 111 129 130
f 111 130 131
f 111 131 113
f 111 113 112
f 113 131 132
f 113 132 133
f 113 133 134
f 113 134 114
f 114 134 115
f 115 134 135
f 115 135 116
f 116 135 117
f 117 135 118
f 118 136 137
f 118 137 138
f 118 138 119
f 118 135 139
f 118 139 136
f 119 138 140
f 119 140 141
f 119 141 120
f 120 141 142
f 120 142 121
f 121 143 144
f 121 144 122
f 121 142 145
f 121 145 143
f 122 144 123
f 125 146 126
f 125 147 146
f 133 148 134
f 134 148 149
f 134 149 150
f 134 150 135
f 135 150 151
f 135 151 139
f 136 152 137
f 137 152 153
f 137 153 154
f 137 154 138
f 138 154 140
f 140 155 141
f 140 154 155
f 141 155 156
f 141 156 142
f 142 156 157
f 142 157 158
f 142 158 145
f 146 147 159
f 146 159 160
f 153 161 154
f 154 161 162
f 154 162 163
f 154 163 164
f 154 164 165
f 154 165 155
f 155 165 156
f 156 158 157
f 156 165 166
f 156 166 167
f 156 167 168
f 156 168 158
f 159 169 160
f 160 169 170
f 163 171 164
f 164 172 165
f 164 171 173
f 164 173 174
f 164 174 175
f 164 175 172
f 165 172 166
f 166 172 175
f 166 175 176
f 166 176 167
f 167 176 177
f 169 178 170
f 170 178 179
f 170 179 180
f 173 181 174
f 174 181 182
f 174 182 183
f 174 183 184
f 174 184 175
f 175 184 185
f 175 185 177
f 175 177 176
f 179 186 187
f 179 187 180
f 182 188 189
f 182 189 183
f 183 189 184
f 184 189 190
f 184 190 191
f 184 191 185
f 186 192 193
f 186 193 194
f 186 194 195
f 186 195 187
f 188 196 189
f 189 196 197
f 189 197 198
f 192 199 193
f 193 199 197
f 193 197 200
f 196 200 197
f 197 199 198

