# https://github.com/mikedh/trimesh
v 0.05186306 0.02796645 0.01550004
v 0.05186306 0.02796645 0.01547253
v 0.05185064 0.02799211 0.01549546
v 0.05179943 0.02796645 0.02011417
v 0.05186150 0.02796645 0.01396199
v 0.05106850 0.02938878 0.01358837
v 0.05106695 0.02938203 0.01513788
v 0.05102505 0.02938405 0.01974972
v 0.05179167 0.02798063 0.02011188
v 0.05176529 0.02796645 0.02164763
v 0.05182581 0.02796645 0.01239874
v 0.05181495 0.02798603 0.01239415
v 0.05024291 0.03078140 0.01475279
v 0.05102815 0.02938608 0.01202740
v 0.05019635 0.03079288 0.01163315
v 0.05024446 0.03077059 0.01321933
v 0.05022118 0.03078208 0.01783347
v 0.05020411 0.03077735 0.01937380
v 0.05099556 0.02937460 0.02129006
v 0.05092883 0.02938338 0.02279372
v 0.05169235 0.02796645 0.02313983
v 0.05173735 0.02798806 0.01081026
v 0.05174822 0.02796645 0.01079880
v 0.04934283 0.03217672 0.01279299
v 0.04933817 0.03218550 0.01432874
v 0.04933352 0.03218483 0.01741629
v 0.04933196 0.03217267 0.01896809
v 0.05094435 0.02938878 0.01044122
v 0.04929782 0.03217132 0.01123202
v 0.05010479 0.03078073 0.01005614
v 0.05015135 0.03079491 0.02087976
v 0.05009393 0.03079153 0.02239947
v 0.05000547 0.03077465 0.02391230
v 0.05081244 0.02938675 0.02428134
v 0.05157596 0.02796645 0.02462516
v 0.05168149 0.02798468 0.01004010
v 0.05116782 0.02892548 0.01004010
v 0.05169080 0.02796645 0.01004010
v 0.04837136 0.03359095 0.01232997
v 0.04837291 0.03359568 0.01387260
v 0.04838843 0.03359230 0.01851653
v 0.04836515 0.03358757 0.02005229
v 0.04927765 0.03219225 0.02047404
v 0.05090866 0.02938675 0.01004010
v 0.05006755 0.03083745 0.01004010
v 0.04920626 0.03218415 0.01004010
v 0.04830928 0.03357137 0.01076900
v 0.05010324 0.03078073 0.01004010
v 0.04921247 0.03218617 0.02199146
v 0.04913177 0.03218212 0.02349971
v 0.04902159 0.03218347 0.02499191
v 0.04869725 0.03211256 0.02966564
v 0.04964079 0.03078140 0.02837286
v 0.04960509 0.03063484 0.02985818
v 0.05043689 0.02938675 0.02874189
v 0.05119420 0.02796645 0.02909260
v 0.04157109 0.02796645 0.01004010
v 0.04743869 0.03486538 0.01333853
v 0.04745421 0.03486538 0.01499805
v 0.04746818 0.03486538 0.01654756
v 0.04747593 0.03486538 0.01797787
v 0.04741231 0.03486538 0.01176151
v 0.04741851 0.03486538 0.01189217
v 0.04747593 0.03486538 0.01810165
v 0.04745576 0.03486538 0.01963511
v 0.04740765 0.03486538 0.02103333
v 0.04740300 0.03486538 0.02115482
v 0.04830618 0.03357947 0.02157429
v 0.04885554 0.03269743 0.01004010
v 0.04823945 0.03358757 0.01004010
v 0.04732695 0.03486538 0.01030828
v 0.04821617 0.03358555 0.02307107
v 0.04856069 0.03289532 0.02477644
v 0.04775061 0.03357744 0.02903758
v 0.04759543 0.03356529 0.03045873
v 0.04912401 0.03130684 0.03045185
v 0.04953991 0.03058487 0.03070628
v 0.05030343 0.02936852 0.03022263
v 0.05105298 0.02796645 0.03038996
v 0.03601231 0.03486538 0.01004010
v 0.04518228 0.02796645 0.02970919
v 0.04733161 0.03486538 0.02253241
v 0.04730523 0.03486538 0.01004010
v 0.04721367 0.03486538 0.02414839
v 0.04810754 0.03357137 0.02457244
v 0.04732385 0.03486538 0.02265848
v 0.04684898 0.03486538 0.02861583
v 0.04674811 0.03486538 0.02975274
v 0.04671707 0.03486538 0.03001863
v 0.04659913 0.03486538 0.03080255
v 0.04658206 0.03486538 0.03090341
v 0.04692192 0.03436290 0.03102948
v 0.04737817 0.03364430 0.03125182
v 0.04854517 0.03205718 0.03089883
v 0.04934128 0.03072805 0.03129537
v 0.05010945 0.02953669 0.03098593
v 0.05103126 0.02796645 0.03058251
v 0.04010768 0.03486538 0.02984443
v 0.04528470 0.02796645 0.03021347
v 0.04644549 0.03486538 0.03140539
v 0.04640515 0.03486538 0.03154751
v 0.04722453 0.03359230 0.03192571
v 0.04835274 0.03211256 0.03154751
v 0.04859483 0.03161346 0.03181111
v 0.05014514 0.02923345 0.03169420
v 0.05102815 0.02796645 0.03060543
v 0.05054242 0.02870463 0.03116472
v 0.04015268 0.03486538 0.03002780
v 0.04530953 0.02796645 0.03031203
v 0.04613357 0.03486538 0.03209534
v 0.04642377 0.03432913 0.03230622
v 0.04801598 0.03220306 0.03227183
v 0.05090711 0.02796645 0.03139164
v 0.05085589 0.02806708 0.03137789
v 0.04983011 0.02924425 0.03227642
v 0.05073330 0.02800157 0.03200594
v 0.05075502 0.02796645 0.03199677
v 0.04036063 0.03486538 0.03083693
v 0.04561059 0.02796645 0.03126099
v 0.04610719 0.03486538 0.03213889
v 0.04680863 0.03362337 0.03249188
v 0.04574561 0.03486470 0.03266608
v 0.04863518 0.03089351 0.03254002
v 0.05008617 0.02866208 0.03242770
v 0.05075037 0.02796645 0.03201282
v 0.04039478 0.03486538 0.03093779
v 0.04074705 0.03486538 0.03184090
v 0.04073618 0.03486538 0.03181569
v 0.04052823 0.03486538 0.03131371
v 0.04595976 0.02796645 0.03205637
v 0.04531263 0.03486538 0.03291823
v 0.04622203 0.03374358 0.03292510
v 0.04944835 0.02905650 0.03291823
v 0.05040741 0.02796645 0.03254919
v 0.05042603 0.02796645 0.03252626
v 0.04076256 0.03486538 0.03186841
v 0.04598770 0.02796645 0.03210909
v 0.04512641 0.03486538 0.03302366
v 0.04548489 0.03416569 0.03314515
v 0.04762647 0.03090702 0.03319328
v 0.05014669 0.02796645 0.03279674
v 0.04971217 0.02804479 0.03311077
v 0.04104190 0.03486538 0.03228330
v 0.04634928 0.02796645 0.03258586
v 0.04470120 0.03486538 0.03325747
v 0.04601563 0.03218955 0.03340187
v 0.04765595 0.02990814 0.03336520
v 0.04976183 0.02796645 0.03310160
v 0.04974321 0.02796645 0.03311535
v 0.04117536 0.03486538 0.03245750
v 0.04637411 0.02796645 0.03261337
v 0.04449635 0.03486538 0.03331018
v 0.04391440 0.03486538 0.03339041
v 0.04377629 0.03486538 0.03340875
v 0.04752870 0.02953061 0.03345459
v 0.04916747 0.02796645 0.03325976
v 0.04140969 0.03486538 0.03264316
v 0.04644084 0.02796645 0.03267525
v 0.04672638 0.02796645 0.03292281
v 0.04312450 0.03486538 0.03340875
v 0.04454446 0.03364093 0.03342479
v 0.04812927 0.02796645 0.03341562
v 0.04162540 0.03486538 0.03280820
v 0.04706004 0.02796645 0.03315661
v 0.04307485 0.03486538 0.03340416
v 0.04305622 0.03486538 0.03340187
v 0.04755508 0.02796645 0.03334228
v 0.04242927 0.03486538 0.03318870
v 0.04753801 0.02796645 0.03333769
v 0.04250686 0.03486538 0.03322079
v 0.04300501 0.03486538 0.03338583
f 1 2 3
f 1 3 4
f 1 4 10
f 1 10 21
f 1 21 35
f 1 35 56
f 1 56 79
f 1 79 97
f 1 97 106
f 1 106 113
f 1 113 117
f 1 117 125
f 1 125 135
f 1 135 134
f 1 134 141
f 1 141 148
f 1 148 149
f 1 149 156
f 1 156 162
f 1 162 167
f 1 167 169
f 1 169 164
f 1 164 159
f 1 159 158
f 1 158 151
f 1 151 144
f 1 144 137
f 1 137 130
f 1 130 119
f 1 119 109
f 1 109 99
f 1 99 81
f 1 81 57
f 1 57 38
f 1 38 23
f 1 23 11
f 1 11 5
f 1 5 2
f 2 5 3
f 3 5 6
f 3 6 7
f 3 7 8
f 3 8 9
f 3 9 4
f 4 9 10
f 5 11 12
f 5 12 6
f 6 13 7
f 6 12 14
f 6 14 15
f 6 15 16
f 6 16 13
f 7 13 17
f 7 17 8
f 8 17 18
f 8 18 19
f 8 19 10
f 8 10 9
f 10 19 20
f 10 20 21
f 11 22 12
f 11 23 22
f 12 22 14
f 13 16 24
f 13 24 25
f 13 25 26
f 13 26 27
f 13 27 17
f 14 22 28
f 14 28 15
f 15 29 24
f 15 24 16
f 15 28 30
f 15 30 29
f 17 27 18
f 18 27 31
f 18 31 19
f 19 31 32
f 19 32 20
f 20 32 33
f 20 33 34
f 20 34 21
f 21 34 35
f 22 23 36
f 22 36 37
f 22 37 28
f 23 38 36
f 24 29 39
f 24 39 40
f 24 40 41
f 24 41 25
f 25 41 26
f 26 41 27
f 27 41 42
f 27 42 43
f 27 43 31
f 28 37 44
f 28 44 30
f 29 30 45
f 29 45 46
f 29 46 47
f 29 47 39
f 30 44 48
f 30 48 45
f 31 43 32
f 32 43 49
f 32 49 50
f 32 50 33
f 33 50 51
f 33 51 52
f 33 52 53
f 33 53 34
f 34 53 54
f 34 54 55
f 34 55 35
f 35 55 56
f 36 38 57
f 36 57 80
f 36 80 83
f 36 83 70
f 36 70 69
f 36 69 46
f 36 46 45
f 36 45 48
f 36 48 44
f 36 44 37
f 39 58 59
f 39 59 60
f 39 60 61
f 39 61 40
f 39 47 62
f 39 62 63
f 39 63 58
f 40 61 41
f 41 61 64
f 41 64 65
f 41 65 42
f 42 65 66
f 42 66 67
f 42 67 68
f 42 68 43
f 43 68 49
f 46 69 47
f 47 69 70
f 47 70 71
f 47 71 62
f 49 68 50
f 50 72 73
f 50 73 51
f 50 68 72
f 51 73 52
f 52 74 75
f 52 75 76
f 52 76 54
f 52 54 53
f 52 73 74
f 54 76 77
f 54 77 78
f 54 78 55
f 55 78 56
f 56 78 79
f 57 81 80
f 58 63 62
f 58 62 71
f 58 71 83
f 58 83 80
f 58 80 98
f 58 98 108
f 58 108 118
f 58 118 126
f 58 126 129
f 58 129 128
f 58 128 127
f 58 127 136
f 58 136 143
f 58 143 150
f 58 150 157
f 58 157 163
f 58 163 168
f 58 168 170
f 58 170 171
f 58 171 166
f 58 166 165
f 58 165 160
f 58 160 154
f 58 154 153
f 58 153 152
f 58 152 145
f 58 145 138
f 58 138 131
f 58 131 120
f 58 120 110
f 58 110 101
f 58 101 100
f 58 100 91
f 58 91 90
f 58 90 89
f 58 89 88
f 58 88 87
f 58 87 84
f 58 84 86
f 58 86 82
f 58 82 67
f 58 67 66
f 58 66 65
f 58 65 64
f 58 64 61
f 58 61 60
f 58 60 59
f 67 82 68
f 68 82 72
f 70 83 71
f 72 84 74
f 72 74 85
f 72 85 73
f 72 82 86
f 72 86 84
f 73 85 74
f 74 87 88
f 74 88 75
f 74 84 87
f 75 89 90
f 75 90 91
f 75 91 92
f 75 92 93
f 75 93 94
f 75 94 76
f 75 88 89
f 76 94 95
f 76 95 77
f 77 96 78
f 77 95 96
f 78 96 97
f 78 97 79
f 80 81 99
f 80 99 98
f 91 100 92
f 92 100 101
f 92 101 102
f 92 102 93
f 93 103 94
f 93 102 103
f 94 103 95
f 95 103 104
f 95 104 105
f 95 105 96
f 96 106 97
f 96 105 107
f 96 107 106
f 98 99 108
f 99 109 108
f 101 110 102
f 102 110 111
f 102 111 112
f 102 112 104
f 102 104 103
f 104 112 105
f 105 113 114
f 105 114 107
f 105 112 115
f 105 115 116
f 105 116 117
f 105 117 113
f 106 107 114
f 106 114 113
f 108 109 118
f 109 119 118
f 110 120 111
f 111 121 112
f 111 120 122
f 111 122 121
f 112 121 123
f 112 123 124
f 112 124 115
f 115 124 125
f 115 125 116
f 116 125 117
f 118 119 126
f 119 127 128
f 119 128 129
f 119 129 126
f 119 130 127
f 120 131 122
f 121 122 132
f 121 132 123
f 122 131 132
f 123 133 124
f 123 132 133
f 124 133 134
f 124 134 135
f 124 135 125
f 127 130 137
f 127 137 136
f 131 138 132
f 132 138 139
f 132 139 140
f 132 140 133
f 133 141 134
f 133 140 142
f 133 142 141
f 136 137 143
f 137 144 143
f 138 145 139
f 139 145 140
f 140 145 146
f 140 146 147
f 140 147 142
f 141 142 148
f 142 147 149
f 142 149 148
f 143 144 150
f 144 151 150
f 145 152 146
f 146 152 153
f 146 153 154
f 146 154 155
f 146 155 147
f 147 155 149
f 149 155 156
f 150 151 158
f 150 158 159
f 150 159 157
f 154 160 161
f 154 161 155
f 155 161 160
f 155 160 162
f 155 162 156
f 157 159 163
f 159 164 163
f 160 165 162
f 162 165 166
f 162 166 167
f 163 164 168
f 164 169 170
f 164 170 168
f 166 171 169
f 166 169 167
f 169 171 170

