# https://github.com/mikedh/trimesh
v 0.03434527 0.02795655 -0.00242630
v 0.03670103 0.02400191 -0.00242630
v 0.04614063 0.01950089 0.01003780
v 0.04157609 0.02795655 0.01003780
v 0.04941137 0.02795655 -0.00242630
v 0.03982065 0.01950089 -0.00242630
v 0.05549329 0.01950089 0.01003780
v 0.05169468 0.02795655 0.01003780
v 0.04990819 0.02795655 -0.00086448
v 0.04984402 0.02717506 -0.00242630
v 0.05332590 0.01950089 -0.00242630
v 0.05546224 0.01950089 0.00946432
v 0.05546638 0.01958202 0.01003780
v 0.05214181 0.02711215 0.01003780
v 0.05238816 0.02658315 0.00957170
v 0.05163464 0.02795655 0.00923981
v 0.05022698 0.02658481 -0.00224938
v 0.05037396 0.02795655 0.00091210
v 0.05078384 0.02658150 -0.00044107
v 0.05016488 0.02658563 -0.00242630
v 0.05324724 0.01971862 -0.00242630
v 0.05335488 0.01950089 -0.00233967
v 0.05545395 0.01950089 0.00937159
v 0.05543325 0.01958119 0.00945212
v 0.05523867 0.02019215 0.01003780
v 0.05241714 0.02658315 0.01003780
v 0.05225567 0.02658729 0.00795984
v 0.05301953 0.02534634 0.01003780
v 0.05308785 0.02518739 0.00989260
v 0.05297813 0.02517912 0.00830759
v 0.05163050 0.02795655 0.00919710
v 0.05109228 0.02517084 -0.00182354
v 0.05088734 0.02517663 -0.00242630
v 0.05025390 0.02641344 -0.00242630
v 0.05074864 0.02795655 0.00264475
v 0.05123098 0.02659391 0.00129646
v 0.05161394 0.02517746 -0.00004696
v 0.05319549 0.01985521 -0.00242630
v 0.05322240 0.01987094 -0.00232747
v 0.05382480 0.01959030 -0.00058262
v 0.05382273 0.01950089 -0.00070463
v 0.05530905 0.01950089 0.00784393
v 0.05527800 0.01958451 0.00783050
v 0.05487226 0.02098771 0.00918124
v 0.05493436 0.02098274 0.01003780
v 0.05208385 0.02658232 0.00634189
v 0.05147110 0.02795655 0.00759257
v 0.05282494 0.02517415 0.00669696
v 0.05309612 0.02518739 0.01003780
v 0.05339836 0.02452015 0.01003780
v 0.05372957 0.02378833 0.01003780
v 0.05363228 0.02377840 0.00861386
v 0.05348323 0.02378833 0.00698614
v 0.05174022 0.02379412 -0.00188576
v 0.05156012 0.02379164 -0.00242630
v 0.05104467 0.02795655 0.00430297
v 0.05159945 0.02658232 0.00302789
v 0.05203831 0.02518408 0.00168569
v 0.05236745 0.02378253 0.00029713
v 0.05271523 0.02110775 -0.00242630
v 0.05313339 0.02109864 -0.00105970
v 0.05277319 0.02116487 -0.00217861
v 0.05423467 0.01959030 0.00115492
v 0.05426986 0.01950089 0.00117078
v 0.05385999 0.01950089 -0.00056553
v 0.05367782 0.02098440 0.00090600
v 0.05529870 0.01950089 0.00774631
v 0.05508134 0.01958285 0.00619547
v 0.05450999 0.02098854 0.00592093
v 0.05470458 0.02098440 0.00756207
v 0.05410219 0.02238678 0.00727776
v 0.05425951 0.02238347 0.00890060
v 0.05434646 0.02238429 0.01003780
v 0.05455347 0.02189338 0.01003780
v 0.05187684 0.02657818 0.00470563
v 0.05127445 0.02795655 0.00596241
v 0.05146697 0.02795655 0.00755474
v 0.05262414 0.02518657 0.00504362
v 0.05329692 0.02378916 0.00535355
v 0.05391795 0.02238512 0.00564883
v 0.05187270 0.02308383 -0.00242630
v 0.05268004 0.02205564 -0.00126835
v 0.05127031 0.02795655 0.00593069
v 0.05237366 0.02518326 0.00338662
v 0.05277319 0.02378336 0.00202856
v 0.05306300 0.02238016 0.00062658
v 0.05221634 0.02227916 -0.00242630
v 0.05403180 0.02098026 0.00262279
v 0.05458659 0.01958037 0.00288147
v 0.05461764 0.01950089 0.00289611
v 0.05343562 0.02238264 0.00234093
v 0.05511239 0.01950089 0.00621011
v 0.05509997 0.01950089 0.00611250
v 0.05485984 0.01958782 0.00453969
v 0.05429678 0.02098688 0.00427857
v 0.05370887 0.02238098 0.00401379
v 0.05307128 0.02378585 0.00370875
v 0.05487640 0.01950089 0.00445305
v 0.05489296 0.01950089 0.00455555
f 1 2 3
f 1 3 4
f 1 4 8
f 1 8 16
f 1 16 31
f 1 31 47
f 1 47 77
f 1 77 76
f 1 76 83
f 1 83 56
f 1 56 35
f 1 35 18
f 1 18 9
f 1 9 5
f 1 5 10
f 1 10 20
f 1 20 34
f 1 34 33
f 1 33 55
f 1 55 81
f 1 81 87
f 1 87 60
f 1 60 38
f 1 38 21
f 1 21 11
f 1 11 6
f 1 6 2
f 2 6 3
f 3 6 11
f 3 11 22
f 3 22 41
f 3 41 65
f 3 65 64
f 3 64 90
f 3 90 98
f 3 98 99
f 3 99 93
f 3 93 92
f 3 92 67
f 3 67 42
f 3 42 23
f 3 23 12
f 3 12 7
f 3 7 13
f 3 13 25
f 3 25 45
f 3 45 74
f 3 74 73
f 3 73 51
f 3 51 50
f 3 50 49
f 3 49 28
f 3 28 26
f 3 26 14
f 3 14 8
f 3 8 4
f 5 9 10
f 7 12 13
f 8 14 15
f 8 15 16
f 9 17 10
f 9 18 19
f 9 19 17
f 10 17 20
f 11 21 22
f 12 23 24
f 12 24 13
f 13 24 25
f 14 26 15
f 15 27 16
f 15 26 28
f 15 28 29
f 15 29 30
f 15 30 27
f 16 27 31
f 17 19 32
f 17 32 33
f 17 33 34
f 17 34 20
f 18 35 36
f 18 36 19
f 19 36 37
f 19 37 32
f 21 38 39
f 21 39 22
f 22 39 40
f 22 40 41
f 23 42 24
f 24 42 43
f 24 43 44
f 24 44 45
f 24 45 25
f 27 46 47
f 27 47 31
f 27 30 48
f 27 48 46
f 28 49 29
f 29 49 50
f 29 50 51
f 29 51 52
f 29 52 30
f 30 52 53
f 30 53 48
f 32 37 54
f 32 54 33
f 33 54 55
f 35 56 57
f 35 57 36
f 36 57 58
f 36 58 37
f 37 58 59
f 37 59 54
f 38 60 39
f 39 61 40
f 39 60 62
f 39 62 61
f 40 63 64
f 40 64 65
f 40 65 41
f 40 61 66
f 40 66 63
f 42 67 43
f 43 67 68
f 43 68 69
f 43 69 70
f 43 70 44
f 44 70 71
f 44 71 72
f 44 72 73
f 44 73 74
f 44 74 45
f 46 75 76
f 46 76 77
f 46 77 47
f 46 48 78
f 46 78 75
f 48 53 79
f 48 79 78
f 51 73 52
f 52 73 72
f 52 72 53
f 53 72 71
f 53 71 80
f 53 80 79
f 54 81 55
f 54 59 82
f 54 82 62
f 54 62 81
f 56 83 75
f 56 75 57
f 57 75 84
f 57 84 58
f 58 84 85
f 58 85 59
f 59 85 86
f 59 86 82
f 60 87 62
f 61 62 82
f 61 82 86
f 61 86 66
f 62 87 81
f 63 66 88
f 63 88 89
f 63 89 64
f 64 89 90
f 66 86 91
f 66 91 88
f 67 92 68
f 68 92 93
f 68 93 94
f 68 94 95
f 68 95 69
f 69 95 96
f 69 96 80
f 69 80 70
f 70 80 71
f 75 78 84
f 75 83 76
f 78 79 97
f 78 97 84
f 79 80 96
f 79 96 97
f 84 97 85
f 85 97 91
f 85 91 86
f 88 95 94
f 88 94 89
f 88 91 96
f 88 96 95
f 89 94 90
f 90 94 98
f 91 97 96
f 93 99 94
f 94 99 98

