# https://github.com/mikedh/trimesh
v -0.03296489 0.01320432 -0.02408792
v -0.03381662 0.01320432 -0.02383660
v -0.03386266 0.01398451 -0.02373267
v -0.03296489 0.01398451 -0.02399722
v -0.03296489 0.01320432 -0.01229669
v -0.03487134 0.01398552 -0.02339632
v -0.03528360 0.01320432 -0.02334530
v -0.03296489 0.01472432 -0.02391029
v -0.03396520 0.01538440 -0.02350592
v -0.03296489 0.01398451 -0.00860437
v -0.03296698 0.01320432 -0.00872909
v -0.03447373 0.01706286 -0.02305241
v -0.03615835 0.01320432 -0.02300139
v -0.03667106 0.01398350 -0.02268393
v -0.03616462 0.01572151 -0.02261779
v -0.03296489 0.01538440 -0.02381770
v -0.03328926 0.01727885 -0.02342844
v -0.03296489 0.01635635 -0.02367976
v -0.03296489 0.02351429 -0.00598347
v -0.03314068 0.02351429 -0.00587009
v -0.03482320 0.02351429 -0.00478545
v -0.03619183 0.02072358 -0.00478545
v -0.03990637 0.01320432 -0.00478545
v -0.03421423 0.01796316 -0.02298438
v -0.03594698 0.01702552 -0.02247796
v -0.03690963 0.01320432 -0.02270283
v -0.03758975 0.01320432 -0.02240049
v -0.03831173 0.01400166 -0.02194887
v -0.03809828 0.01538541 -0.02181093
v -0.03296489 0.01760486 -0.02348135
v -0.03296489 0.01715875 -0.02355315
v -0.03296489 0.02351429 -0.02213783
v -0.05065656 0.02351429 -0.00478545
v -0.05434180 0.01320432 -0.00478545
v -0.03371198 0.01958207 -0.02284833
v -0.03296489 0.01916624 -0.02319602
v -0.03296489 0.01811455 -0.02338876
v -0.03597628 0.01788746 -0.02229089
v -0.03781158 0.01678430 -0.02167298
v -0.03847287 0.01320432 -0.02199989
v -0.03932669 0.01320432 -0.02156905
v -0.03993567 0.01398451 -0.02111932
v -0.03966780 0.01538440 -0.02099650
v -0.03296489 0.02237076 -0.02245340
v -0.03463068 0.02206090 -0.02184872
v -0.03426864 0.02351429 -0.02157472
v -0.05034893 0.02351429 -0.00560176
v -0.05117973 0.02238489 -0.00478545
v -0.05419950 0.01377962 -0.00478545
v -0.05416810 0.01320432 -0.00527675
v -0.03546148 0.01958106 -0.02211705
v -0.03488808 0.02126457 -0.02195265
v -0.03331437 0.02107381 -0.02265370
v -0.03296489 0.01958308 -0.02311476
v -0.03728422 0.01844762 -0.02155772
v -0.03933716 0.01679035 -0.02086801
v -0.04005914 0.01320432 -0.02119302
v -0.04073926 0.01320432 -0.02080565
v -0.04156169 0.01320432 -0.02033702
v -0.04142358 0.01398451 -0.02027089
v -0.04114943 0.01538440 -0.02014050
v -0.03296489 0.02222239 -0.02249308
v -0.03672338 0.02098298 -0.02116468
v -0.03628182 0.02238388 -0.02096249
v -0.03580887 0.02351429 -0.02083777
v -0.05025058 0.02351429 -0.00585120
v -0.05068376 0.02238590 -0.00605338
v -0.05169872 0.02098398 -0.00498197
v -0.05177197 0.02098398 -0.00478545
v -0.05414718 0.01398552 -0.00478545
v -0.05373910 0.01398552 -0.00593434
v -0.05390442 0.01320432 -0.00600992
v -0.03719214 0.01925910 -0.02139899
v -0.03296489 0.02133219 -0.02271794
v -0.03296489 0.02040767 -0.02292769
v -0.03903162 0.01818218 -0.02069038
v -0.03846031 0.01959620 -0.02063747
v -0.04083971 0.01678632 -0.02000067
v -0.04218113 0.01320432 -0.01994209
v -0.04282568 0.01398451 -0.01937899
v -0.04254317 0.01538440 -0.01924860
v -0.03826569 0.02098197 -0.02033702
v -0.03782204 0.02238489 -0.02013672
v -0.03714401 0.02351429 -0.02012161
v -0.05014385 0.02351429 -0.00609685
v -0.05012501 0.02238287 -0.00733833
v -0.05117764 0.02098701 -0.00628392
v -0.05187242 0.02073065 -0.00478545
v -0.05216539 0.01958409 -0.00519928
v -0.05384583 0.01507152 -0.00478545
v -0.05366586 0.01320432 -0.00658437
v -0.05339381 0.01538138 -0.00577372
v -0.05286854 0.01538339 -0.00707189
v -0.05320128 0.01398552 -0.00722873
v -0.04049233 0.01818621 -0.01984005
v -0.04011983 0.01958308 -0.01966054
v -0.04222717 0.01678430 -0.01909932
v -0.04296589 0.01320432 -0.01944134
v -0.04429057 0.01320432 -0.01851732
v -0.04414827 0.01398451 -0.01844929
v -0.04385738 0.01538440 -0.01831513
v -0.03971593 0.02098398 -0.01947536
v -0.03927856 0.02238287 -0.01926750
v -0.03744117 0.02351429 -0.01996099
v -0.04968555 0.02351429 -0.00713425
v -0.04999317 0.02098298 -0.00881979
v -0.05061470 0.02098197 -0.00756697
v -0.04918330 0.02351429 -0.00814897
v -0.04949302 0.02238186 -0.00858737
v -0.05164431 0.01958207 -0.00650122
v -0.05232025 0.01958308 -0.00478545
v -0.05260695 0.01818722 -0.00540525
v -0.05262788 0.01875646 -0.00478545
v -0.05375375 0.01538339 -0.00478545
v -0.05336032 0.01320432 -0.00730242
v -0.05301921 0.01678833 -0.00559799
v -0.05362819 0.01579115 -0.00478545
v -0.05249185 0.01678329 -0.00689615
v -0.05190590 0.01678531 -0.00816787
v -0.05226166 0.01538138 -0.00833416
v -0.05302340 0.01320432 -0.00800536
v -0.05259021 0.01398350 -0.00848721
v -0.04188188 0.01818419 -0.01893681
v -0.04150519 0.01958207 -0.01876108
v -0.04353720 0.01678531 -0.01816585
v -0.04318981 0.01818621 -0.01800712
v -0.04553572 0.01320432 -0.01755550
v -0.04539551 0.01398451 -0.01748936
v -0.04509835 0.01538642 -0.01735520
v -0.04109293 0.02098298 -0.01857023
v -0.04065555 0.02238388 -0.01836615
v -0.03889350 0.02351429 -0.01908798
v -0.04927329 0.02098398 -0.01003103
v -0.04973368 0.01958510 -0.01024645
v -0.05044938 0.01958207 -0.00903332
v -0.05107928 0.01958005 -0.00778239
v -0.04906192 0.02351429 -0.00838707
v -0.04848852 0.02351429 -0.00936589
v -0.04877104 0.02238388 -0.00979672
v -0.05208378 0.01818823 -0.00670719
v -0.05283924 0.01818621 -0.00478545
v -0.05331638 0.01678531 -0.00478545
v -0.05306107 0.01754026 -0.00478545
v -0.05151038 0.01818419 -0.00798458
v -0.05085746 0.01818218 -0.00922417
v -0.05123833 0.01678733 -0.00940179
v -0.05158990 0.01538541 -0.00956619
v -0.05275135 0.01320432 -0.00856280
v -0.05191845 0.01398653 -0.00971925
v -0.04281313 0.01958510 -0.01782950
v -0.04477817 0.01678430 -0.01719836
v -0.04442869 0.01818419 -0.01703775
v -0.04671182 0.01320432 -0.01655022
v -0.04656952 0.01398653 -0.01648031
v -0.04626817 0.01538440 -0.01634992
v -0.04594590 0.01678531 -0.01620064
v -0.04240086 0.02098398 -0.01763676
v -0.04026213 0.02351429 -0.01818475
v -0.04195512 0.02238388 -0.01742701
v -0.04801139 0.02238691 -0.01098718
v -0.04850736 0.02098600 -0.01121961
v -0.04896984 0.01958611 -0.01143502
v -0.05014594 0.01818621 -0.01043919
v -0.04938838 0.01818318 -0.01162776
v -0.04834831 0.02351429 -0.00960020
v -0.04759075 0.02351429 -0.01079255
v -0.05052263 0.01678632 -0.01061304
v -0.05087629 0.01538743 -0.01077932
v -0.05207959 0.01320432 -0.00979483
v -0.05120066 0.01398451 -0.01092860
v -0.05136389 0.01320432 -0.01100608
v -0.04404154 0.01958308 -0.01685634
v -0.04558804 0.01818520 -0.01603436
v -0.04732498 0.01320432 -0.01597767
v -0.04780421 0.01320432 -0.01552416
v -0.04765354 0.01398552 -0.01545424
v -0.04735428 0.01538541 -0.01531441
v -0.04702573 0.01678632 -0.01516135
v -0.04362719 0.02098398 -0.01666360
v -0.04131475 0.02351429 -0.01742134
v -0.04317307 0.02238691 -0.01645574
v -0.04156169 0.02351429 -0.01724182
v -0.04679344 0.02351429 -0.01196223
v -0.04721198 0.02237883 -0.01215686
v -0.04769748 0.02098398 -0.01238550
v -0.04814741 0.01958409 -0.01259525
v -0.04855967 0.01818318 -0.01278610
v -0.04893636 0.01678531 -0.01296184
v -0.04976298 0.01678228 -0.01180350
v -0.05011664 0.01538440 -0.01196790
v -0.05043473 0.01398350 -0.01211529
v -0.05059587 0.01320432 -0.01219087
v -0.04519462 0.01958510 -0.01585106
v -0.04666160 0.01818218 -0.01498562
v -0.04837133 0.01320432 -0.01492515
v -0.04881917 0.01320432 -0.01445086
v -0.04866431 0.01398451 -0.01437905
v -0.04835668 0.01538339 -0.01423544
v -0.04801976 0.01678531 -0.01408049
v -0.04477398 0.02098197 -0.01565265
v -0.04431359 0.02238186 -0.01543724
v -0.04277546 0.02351429 -0.01626678
v -0.04608820 0.02351429 -0.01288247
v -0.04590823 0.02351429 -0.01311678
v -0.04629119 0.02231020 -0.01339456
v -0.04681018 0.02098398 -0.01351738
v -0.04724337 0.01958106 -0.01371579
v -0.04764935 0.01818621 -0.01390854
v -0.04927956 0.01538440 -0.01312245
v -0.04967090 0.01388156 -0.01320938
v -0.05021918 0.01320432 -0.01270863
v -0.04635397 0.01950133 -0.01473997
v -0.04573453 0.02110106 -0.01465493
v -0.04977972 0.01320432 -0.01330953
v -0.04411060 0.02351429 -0.01504798
v -0.04391388 0.02351429 -0.01524261
v -0.04537040 0.02238186 -0.01438850
v -0.04512556 0.02351429 -0.01401435
v -0.04496023 0.02351429 -0.01419954
f 1 2 3
f 1 3 4
f 1 4 8
f 1 8 16
f 1 16 18
f 1 18 31
f 1 31 30
f 1 30 37
f 1 37 36
f 1 36 54
f 1 54 75
f 1 75 74
f 1 74 62
f 1 62 44
f 1 44 32
f 1 32 19
f 1 19 10
f 1 10 5
f 1 5 11
f 1 11 23
f 1 23 34
f 1 34 50
f 1 50 72
f 1 72 91
f 1 91 115
f 1 115 121
f 1 121 148
f 1 148 169
f 1 169 171
f 1 171 192
f 1 192 211
f 1 211 214
f 1 214 196
f 1 196 195
f 1 195 175
f 1 175 174
f 1 174 153
f 1 153 127
f 1 127 99
f 1 99 98
f 1 98 79
f 1 79 59
f 1 59 58
f 1 58 57
f 1 57 41
f 1 41 40
f 1 40 27
f 1 27 26
f 1 26 13
f 1 13 7
f 1 7 2
f 2 6 3
f 2 7 6
f 3 8 4
f 3 6 9
f 3 9 8
f 5 10 11
f 6 12 9
f 6 7 13
f 6 13 14
f 6 14 15
f 6 15 12
f 8 9 16
f 9 12 17
f 9 17 18
f 9 18 16
f 10 19 11
f 11 19 20
f 11 20 21
f 11 21 22
f 11 22 23
f 12 24 17
f 12 15 25
f 12 25 24
f 13 26 14
f 14 26 27
f 14 27 28
f 14 28 15
f 15 28 29
f 15 29 25
f 17 24 30
f 17 30 31
f 17 31 18
f 19 32 46
f 19 46 65
f 19 65 84
f 19 84 104
f 19 104 132
f 19 132 158
f 19 158 180
f 19 180 182
f 19 182 202
f 19 202 216
f 19 216 215
f 19 215 219
f 19 219 218
f 19 218 204
f 19 204 203
f 19 203 183
f 19 183 166
f 19 166 165
f 19 165 138
f 19 138 137
f 19 137 108
f 19 108 105
f 19 105 85
f 19 85 66
f 19 66 47
f 19 47 33
f 19 33 21
f 19 21 20
f 21 33 48
f 21 48 69
f 21 69 88
f 21 88 111
f 21 111 113
f 21 113 141
f 21 141 143
f 21 143 142
f 21 142 117
f 21 117 114
f 21 114 90
f 21 90 70
f 21 70 49
f 21 49 34
f 21 34 23
f 21 23 22
f 24 35 36
f 24 36 37
f 24 37 30
f 24 25 38
f 24 38 35
f 25 29 39
f 25 39 38
f 27 40 28
f 28 40 41
f 28 41 42
f 28 42 29
f 29 42 43
f 29 43 39
f 32 44 45
f 32 45 46
f 33 47 48
f 34 49 50
f 35 38 51
f 35 51 52
f 35 52 53
f 35 53 54
f 35 54 36
f 38 39 55
f 38 55 51
f 39 43 56
f 39 56 55
f 41 57 42
f 42 57 58
f 42 58 59
f 42 59 60
f 42 60 43
f 43 60 61
f 43 61 56
f 44 62 45
f 45 53 52
f 45 52 63
f 45 63 64
f 45 64 46
f 45 62 53
f 46 64 65
f 47 66 67
f 47 67 48
f 48 68 69
f 48 67 68
f 49 70 71
f 49 71 50
f 50 71 72
f 51 55 73
f 51 73 52
f 52 73 63
f 53 62 74
f 53 74 75
f 53 75 54
f 55 56 76
f 55 76 77
f 55 77 73
f 56 61 78
f 56 78 76
f 59 79 80
f 59 80 60
f 60 80 61
f 61 80 81
f 61 81 78
f 63 73 77
f 63 77 82
f 63 82 83
f 63 83 64
f 64 83 65
f 65 83 84
f 66 85 67
f 67 85 86
f 67 86 87
f 67 87 68
f 68 88 69
f 68 87 89
f 68 89 88
f 70 90 71
f 71 91 72
f 71 90 92
f 71 92 93
f 71 93 94
f 71 94 91
f 76 78 95
f 76 95 77
f 77 95 96
f 77 96 82
f 78 81 97
f 78 97 95
f 79 98 80
f 80 98 99
f 80 99 100
f 80 100 81
f 81 100 101
f 81 101 97
f 82 96 102
f 82 102 83
f 83 102 103
f 83 103 104
f 83 104 84
f 85 105 86
f 86 106 107
f 86 107 87
f 86 105 108
f 86 108 109
f 86 109 106
f 87 110 89
f 87 107 110
f 88 89 111
f 89 110 112
f 89 112 113
f 89 113 111
f 90 114 92
f 91 94 115
f 92 116 93
f 92 114 117
f 92 117 116
f 93 116 118
f 93 118 119
f 93 119 120
f 93 120 94
f 94 121 115
f 94 120 122
f 94 122 121
f 95 97 123
f 95 123 124
f 95 124 96
f 96 124 102
f 97 101 125
f 97 125 126
f 97 126 123
f 99 127 128
f 99 128 100
f 100 128 101
f 101 128 129
f 101 129 125
f 102 124 130
f 102 130 131
f 102 131 103
f 103 131 132
f 103 132 104
f 106 109 133
f 106 133 134
f 106 134 135
f 106 135 136
f 106 136 107
f 107 136 110
f 108 137 109
f 109 137 138
f 109 138 139
f 109 139 133
f 110 140 112
f 110 136 140
f 112 116 141
f 112 141 113
f 112 140 116
f 116 140 118
f 116 117 142
f 116 142 143
f 116 143 141
f 118 140 144
f 118 144 119
f 119 144 145
f 119 145 146
f 119 146 120
f 120 146 147
f 120 147 122
f 121 122 148
f 122 147 149
f 122 149 148
f 123 126 124
f 124 126 150
f 124 150 130
f 125 129 151
f 125 151 126
f 126 151 152
f 126 152 150
f 127 153 128
f 128 153 154
f 128 154 129
f 129 154 155
f 129 155 156
f 129 156 151
f 130 150 157
f 130 157 131
f 131 158 132
f 131 157 159
f 131 159 158
f 133 139 160
f 133 160 161
f 133 161 162
f 133 162 134
f 134 163 135
f 134 162 164
f 134 164 163
f 135 145 144
f 135 144 136
f 135 163 145
f 136 144 140
f 138 165 139
f 139 165 166
f 139 166 160
f 145 163 146
f 146 163 167
f 146 167 168
f 146 168 147
f 147 168 149
f 148 149 169
f 149 168 170
f 149 170 171
f 149 171 169
f 150 152 172
f 150 172 157
f 151 156 152
f 152 156 173
f 152 173 172
f 153 174 154
f 154 174 175
f 154 175 176
f 154 176 155
f 155 176 177
f 155 177 156
f 156 177 178
f 156 178 173
f 157 172 179
f 157 179 159
f 158 159 180
f 159 179 181
f 159 181 182
f 159 182 180
f 160 166 183
f 160 183 184
f 160 184 161
f 161 184 185
f 161 185 162
f 162 185 186
f 162 186 164
f 163 164 167
f 164 186 187
f 164 187 188
f 164 188 189
f 164 189 167
f 167 189 168
f 168 189 190
f 168 190 170
f 170 190 191
f 170 191 171
f 171 191 192
f 172 173 193
f 172 193 179
f 173 178 194
f 173 194 193
f 175 195 176
f 176 195 196
f 176 196 197
f 176 197 177
f 177 197 198
f 177 198 178
f 178 198 199
f 178 199 194
f 179 193 200
f 179 200 181
f 181 200 201
f 181 201 202
f 181 202 182
f 183 203 184
f 184 203 204
f 184 204 205
f 184 205 185
f 185 205 206
f 185 206 186
f 186 206 207
f 186 207 187
f 187 207 208
f 187 208 188
f 188 209 190
f 188 190 189
f 188 208 199
f 188 199 209
f 190 209 191
f 191 209 210
f 191 210 192
f 192 210 211
f 193 194 212
f 193 212 213
f 193 213 200
f 194 199 208
f 194 208 212
f 196 214 197
f 197 214 210
f 197 210 198
f 198 210 209
f 198 209 199
f 200 213 201
f 201 215 216
f 201 216 202
f 201 213 217
f 201 217 215
f 204 218 205
f 205 218 217
f 205 217 206
f 206 217 213
f 206 213 207
f 207 213 212
f 207 212 208
f 210 214 211
f 215 217 219
f 217 218 219

