# https://github.com/mikedh/trimesh
v 0.01918325 -0.04611341 0.01131085
v 0.01918325 -0.03946180 -0.00251195
v 0.00984146 -0.04907676 0.01131085
v 0.01918325 -0.05506003 0.01131085
v 0.00984146 -0.04280175 -0.00251195
v 0.01918325 -0.05279508 -0.00251195
v 0.00984146 -0.05752300 0.01131085
v 0.01915855 -0.05506887 0.01131085
v 0.01918325 -0.05505472 0.01107813
v 0.00984146 -0.05531994 -0.00251195
v 0.01918325 -0.05296482 -0.00196667
v 0.01852303 -0.05302847 -0.00251195
v 0.00984146 -0.05748764 0.01042460
v 0.01058031 -0.05734619 0.01015534
v 0.01003897 -0.05748764 0.01131085
v 0.01775582 -0.05554449 0.01131085
v 0.01809782 -0.05541188 0.01057750
v 0.01870043 -0.05511837 0.00930698
v 0.01918325 -0.05495748 0.00953159
v 0.00990638 -0.05530756 -0.00251195
v 0.00984146 -0.05534999 -0.00241182
v 0.01918325 -0.05300726 -0.00182054
v 0.01826150 -0.05344575 -0.00138756
v 0.01820206 -0.05313810 -0.00251195
v 0.00984146 -0.05745935 0.00981302
v 0.00989724 -0.05734972 0.00829760
v 0.01117012 -0.05714993 0.00888753
v 0.01184497 -0.05709335 0.01074798
v 0.01158344 -0.05716761 0.01131085
v 0.01636224 -0.05596353 0.01131085
v 0.01683042 -0.05577434 0.00998621
v 0.01742297 -0.05549675 0.00871705
v 0.01801918 -0.05518556 0.00744788
v 0.01918325 -0.05485493 0.00827460
v 0.01030690 -0.05522800 -0.00251195
v 0.01023466 -0.05529165 -0.00235635
v 0.00984146 -0.05561875 -0.00151475
v 0.01918325 -0.05331491 -0.00070292
v 0.01727575 -0.05420603 0.00029970
v 0.01672526 -0.05387363 -0.00162435
v 0.01915673 -0.05338210 -0.00048913
v 0.01785641 -0.05324949 -0.00251195
v 0.00984146 -0.05736740 0.00841667
v 0.00984146 -0.05736033 0.00831790
v 0.00984146 -0.05735680 0.00827054
v 0.01049070 -0.05712517 0.00702843
v 0.01176175 -0.05692007 0.00761837
v 0.01303098 -0.05665839 0.00820965
v 0.01243934 -0.05688471 0.00947882
v 0.01310505 -0.05681045 0.01131085
v 0.01305292 -0.05682283 0.01131085
v 0.01621684 -0.05600596 0.01131085
v 0.01624336 -0.05599712 0.01125402
v 0.01557217 -0.05608376 0.00939222
v 0.01615832 -0.05582915 0.00812441
v 0.01674813 -0.05553034 0.00685660
v 0.01734708 -0.05519263 0.00558473
v 0.01861081 -0.05484255 0.00617872
v 0.01918325 -0.05466927 0.00644527
v 0.01918325 -0.05472939 0.00702438
v 0.01918325 -0.05482841 0.00798640
v 0.01185045 -0.05490443 -0.00251195
v 0.01150297 -0.05521385 -0.00176506
v 0.00984146 -0.05572130 -0.00116295
v 0.01918325 -0.05336972 -0.00049725
v 0.01875529 -0.05384357 0.00081792
v 0.01726661 -0.05453667 0.00173799
v 0.01599189 -0.05495217 0.00186112
v 0.01535911 -0.05478774 0.00031323
v 0.01686426 -0.05355890 -0.00251195
v 0.01505918 -0.05444119 -0.00134562
v 0.01534905 -0.05402392 -0.00251195
v 0.01918325 -0.05337856 -0.00046207
v 0.01918325 -0.05370566 0.00089369
v 0.00984146 -0.05720828 0.00672264
v 0.00984146 -0.05702439 0.00518016
v 0.01108325 -0.05685996 0.00575927
v 0.01235156 -0.05665132 0.00635055
v 0.01361896 -0.05639671 0.00694184
v 0.01489092 -0.05612443 0.00753177
v 0.01430478 -0.05637019 0.00879958
v 0.01370857 -0.05659297 0.01007010
v 0.01497597 -0.05629770 0.01066274
v 0.01608882 -0.05603956 0.01131085
v 0.01547799 -0.05583446 0.00626531
v 0.01666857 -0.05511130 0.00372563
v 0.01793048 -0.05481249 0.00432097
v 0.01918325 -0.05448539 0.00494744
v 0.01607328 -0.05549321 0.00499479
v 0.01269264 -0.05471348 -0.00251195
v 0.01295325 -0.05472762 -0.00227787
v 0.01277585 -0.05508832 -0.00118190
v 0.01091042 -0.05569124 -0.00049590
v 0.00984146 -0.05576727 -0.00099788
v 0.01918325 -0.05379406 0.00127119
v 0.01851480 -0.05440052 0.00305722
v 0.01539752 -0.05537475 0.00313570
v 0.01471535 -0.05518910 0.00127525
v 0.01428923 -0.05504058 0.00013056
v 0.01405514 -0.05437754 -0.00251195
v 0.01521372 -0.05406105 -0.00251195
v 0.00984146 -0.05701378 0.00510845
v 0.01040657 -0.05672204 0.00390017
v 0.01167671 -0.05654700 0.00448875
v 0.01294777 -0.05634544 0.00507868
v 0.01421425 -0.05610321 0.00567267
v 0.01918325 -0.05447302 0.00486625
v 0.01918325 -0.05422371 0.00336707
v 0.01479948 -0.05575666 0.00440757
v 0.01306938 -0.05462331 -0.00251195
v 0.01369485 -0.05446948 -0.00251195
v 0.01344796 -0.05539420 0.00068532
v 0.01217782 -0.05556394 0.00009539
v 0.01158984 -0.05597767 0.00136184
v 0.01031970 -0.05610498 0.00077191
v 0.00984146 -0.05598121 -0.00011028
v 0.01918325 -0.05403629 0.00241452
v 0.01353666 -0.05598828 0.00381358
v 0.01412098 -0.05560637 0.00254983
v 0.00984146 -0.05677686 0.00363768
v 0.00984146 -0.05647982 0.00209114
v 0.01100095 -0.05636666 0.00262830
v 0.01227109 -0.05618985 0.00321823
v 0.01285541 -0.05580794 0.00195584
v 0.00984146 -0.05613857 0.00054595
v 0.00984146 -0.05641793 0.00179753
v 0.00984146 -0.05646036 0.00199778
f 1 2 3
f 1 3 7
f 1 7 15
f 1 15 29
f 1 29 51
f 1 51 50
f 1 50 84
f 1 84 52
f 1 52 30
f 1 30 16
f 1 16 8
f 1 8 4
f 1 4 9
f 1 9 19
f 1 19 34
f 1 34 61
f 1 61 60
f 1 60 59
f 1 59 88
f 1 88 107
f 1 107 108
f 1 108 117
f 1 117 95
f 1 95 74
f 1 74 73
f 1 73 65
f 1 65 38
f 1 38 22
f 1 22 11
f 1 11 6
f 1 6 2
f 2 5 3
f 2 6 12
f 2 12 24
f 2 24 42
f 2 42 70
f 2 70 72
f 2 72 101
f 2 101 100
f 2 100 111
f 2 111 110
f 2 110 90
f 2 90 62
f 2 62 35
f 2 35 20
f 2 20 10
f 2 10 5
f 3 5 10
f 3 10 21
f 3 21 37
f 3 37 64
f 3 64 94
f 3 94 116
f 3 116 125
f 3 125 126
f 3 126 127
f 3 127 121
f 3 121 120
f 3 120 102
f 3 102 76
f 3 76 75
f 3 75 45
f 3 45 44
f 3 44 43
f 3 43 25
f 3 25 13
f 3 13 7
f 4 8 9
f 6 11 12
f 7 13 14
f 7 14 15
f 8 16 17
f 8 17 9
f 9 18 19
f 9 17 18
f 10 20 21
f 11 22 23
f 11 23 24
f 11 24 12
f 13 25 14
f 14 25 26
f 14 26 27
f 14 27 28
f 14 28 29
f 14 29 15
f 16 30 31
f 16 31 17
f 17 31 32
f 17 32 18
f 18 33 34
f 18 34 19
f 18 32 33
f 20 35 36
f 20 36 21
f 21 36 37
f 22 38 23
f 23 39 40
f 23 40 24
f 23 38 41
f 23 41 39
f 24 40 42
f 25 43 26
f 26 43 44
f 26 44 45
f 26 45 46
f 26 46 27
f 27 46 47
f 27 47 48
f 27 48 49
f 27 49 28
f 28 49 50
f 28 50 51
f 28 51 29
f 30 52 53
f 30 53 31
f 31 53 54
f 31 54 55
f 31 55 32
f 32 55 56
f 32 56 33
f 33 57 58
f 33 58 59
f 33 59 60
f 33 60 61
f 33 61 34
f 33 56 57
f 35 62 63
f 35 63 36
f 36 63 37
f 37 63 64
f 38 65 41
f 39 41 66
f 39 66 67
f 39 67 68
f 39 68 69
f 39 69 40
f 40 70 42
f 40 69 71
f 40 71 72
f 40 72 70
f 41 65 73
f 41 73 74
f 41 74 66
f 45 75 46
f 46 75 76
f 46 76 77
f 46 77 47
f 47 77 78
f 47 78 79
f 47 79 48
f 48 79 80
f 48 80 81
f 48 81 49
f 49 81 54
f 49 54 82
f 49 82 50
f 50 82 54
f 50 54 83
f 50 83 53
f 50 53 84
f 52 84 53
f 53 83 54
f 54 81 80
f 54 80 55
f 55 80 85
f 55 85 56
f 56 85 57
f 57 86 87
f 57 87 88
f 57 88 58
f 57 85 89
f 57 89 86
f 58 88 59
f 62 90 91
f 62 91 63
f 63 91 92
f 63 92 93
f 63 93 64
f 64 93 94
f 66 74 95
f 66 95 96
f 66 96 67
f 67 86 68
f 67 96 86
f 68 86 97
f 68 97 98
f 68 98 69
f 69 98 99
f 69 99 71
f 71 100 101
f 71 101 72
f 71 99 92
f 71 92 100
f 76 102 103
f 76 103 77
f 77 103 104
f 77 104 105
f 77 105 78
f 78 105 106
f 78 106 79
f 79 106 85
f 79 85 80
f 85 106 89
f 86 96 87
f 86 89 97
f 87 107 88
f 87 96 108
f 87 108 107
f 89 106 109
f 89 109 97
f 90 110 91
f 91 110 111
f 91 111 100
f 91 100 92
f 92 99 112
f 92 112 113
f 92 113 93
f 93 113 114
f 93 114 115
f 93 115 116
f 93 116 94
f 95 117 96
f 96 117 108
f 97 109 118
f 97 118 119
f 97 119 98
f 98 119 112
f 98 112 99
f 102 120 103
f 103 120 121
f 103 121 122
f 103 122 104
f 104 122 123
f 104 123 105
f 105 123 118
f 105 118 109
f 105 109 106
f 112 119 124
f 112 124 114
f 112 114 113
f 114 122 115
f 114 124 122
f 115 125 116
f 115 122 126
f 115 126 125
f 118 123 119
f 119 123 124
f 121 127 122
f 122 124 123
f 122 127 126

