# https://github.com/mikedh/trimesh
v 0.01882538 -0.05292250 -0.00251195
v 0.01882538 -0.05272823 -0.00312923
v 0.01925751 -0.05249983 -0.00337165
v 0.01929761 -0.05275448 -0.00251195
v 0.01882538 -0.03962290 -0.00251195
v 0.01882538 -0.05254708 -0.00367293
v 0.02077749 -0.05219267 -0.00251195
v 0.02029423 -0.05238169 -0.00251195
v 0.01999344 -0.05198790 -0.00403871
v 0.02905116 -0.03257930 -0.00251195
v 0.02906720 -0.03255305 -0.00251238
v 0.02906720 -0.02610277 -0.00693380
v 0.01882538 -0.03423847 -0.00693380
v 0.01882538 -0.05240007 -0.00407204
v 0.02106925 -0.05180413 -0.00332922
v 0.02196961 -0.05169650 -0.00251195
v 0.01882538 -0.05206141 -0.00497936
v 0.01963149 -0.05160461 -0.00539102
v 0.02143922 -0.05118982 -0.00457981
v 0.02906720 -0.03258980 -0.00251195
v 0.02906720 -0.04627007 -0.00693380
v 0.01882538 -0.05122920 -0.00693380
v 0.02324495 -0.05102180 -0.00283791
v 0.02345149 -0.05102705 -0.00251195
v 0.01882538 -0.05191702 -0.00535639
v 0.01900986 -0.05143660 -0.00634032
v 0.02067522 -0.05060439 -0.00675805
v 0.02185331 -0.05029460 -0.00632907
v 0.02290205 -0.05037336 -0.00502481
v 0.02906720 -0.04811301 -0.00251195
v 0.02906720 -0.04663236 -0.00621868
v 0.02892382 -0.04683188 -0.00600138
v 0.02858193 -0.04656935 -0.00693380
v 0.01896675 -0.05117670 -0.00693380
v 0.01882538 -0.05144972 -0.00646456
v 0.02427665 -0.05024998 -0.00366211
v 0.02542065 -0.05008458 -0.00251195
v 0.01882538 -0.05162824 -0.00604510
v 0.02047771 -0.05059914 -0.00693380
v 0.02077448 -0.05047838 -0.00693380
v 0.02150540 -0.05016071 -0.00693380
v 0.02279578 -0.04959628 -0.00693380
v 0.02302437 -0.04949127 -0.00693380
v 0.02394378 -0.04982994 -0.00519926
v 0.02884361 -0.04824690 -0.00251195
v 0.02906720 -0.04804213 -0.00272839
v 0.02906720 -0.04676099 -0.00595290
v 0.02906720 -0.04741731 -0.00439064
v 0.02833528 -0.04772972 -0.00473478
v 0.02765450 -0.04730968 -0.00659269
v 0.02781392 -0.04703927 -0.00693380
v 0.02551690 -0.04931801 -0.00454994
v 0.02564925 -0.04997170 -0.00251195
v 0.02414731 -0.04896885 -0.00693380
v 0.02461354 -0.04877982 -0.00687017
v 0.02578761 -0.04862756 -0.00591221
v 0.02729055 -0.04912374 -0.00251195
v 0.02773671 -0.04855143 -0.00346342
v 0.02901306 -0.04802375 -0.00287470
v 0.02906720 -0.04800012 -0.00284916
v 0.02906720 -0.04798437 -0.00289418
v 0.02706796 -0.04819964 -0.00532739
v 0.02691256 -0.04755645 -0.00693380
v 0.02755825 -0.04718629 -0.00693380
v 0.02646138 -0.04902135 -0.00405256
v 0.02577458 -0.04990869 -0.00251195
v 0.02464863 -0.04873257 -0.00693380
v 0.02626486 -0.04790561 -0.00693380
v 0.02702485 -0.04926550 -0.00251195
f 1 2 3
f 1 3 4
f 1 4 8
f 1 8 7
f 1 7 16
f 1 16 24
f 1 24 37
f 1 37 53
f 1 53 66
f 1 66 69
f 1 69 57
f 1 57 45
f 1 45 30
f 1 30 20
f 1 20 10
f 1 10 5
f 1 5 13
f 1 13 22
f 1 22 35
f 1 35 38
f 1 38 25
f 1 25 17
f 1 17 14
f 1 14 6
f 1 6 2
f 2 6 3
f 3 7 8
f 3 8 4
f 3 6 9
f 3 9 7
f 5 10 11
f 5 11 12
f 5 12 13
f 6 14 9
f 7 9 15
f 7 15 16
f 9 17 18
f 9 18 19
f 9 19 15
f 9 14 17
f 10 20 11
f 11 20 30
f 11 30 46
f 11 46 60
f 11 60 61
f 11 61 48
f 11 48 47
f 11 47 31
f 11 31 21
f 11 21 12
f 12 21 33
f 12 33 51
f 12 51 64
f 12 64 63
f 12 63 68
f 12 68 67
f 12 67 54
f 12 54 43
f 12 43 42
f 12 42 41
f 12 41 40
f 12 40 39
f 12 39 34
f 12 34 22
f 12 22 13
f 15 19 23
f 15 23 16
f 16 23 24
f 17 25 18
f 18 25 26
f 18 26 27
f 18 27 28
f 18 28 19
f 19 28 29
f 19 29 23
f 21 31 32
f 21 32 33
f 22 34 35
f 23 29 36
f 23 36 37
f 23 37 24
f 25 38 26
f 26 35 39
f 26 39 27
f 26 38 35
f 27 39 40
f 27 40 41
f 27 41 28
f 28 41 42
f 28 42 43
f 28 43 44
f 28 44 29
f 29 44 36
f 30 45 46
f 31 47 32
f 32 47 48
f 32 48 49
f 32 49 50
f 32 50 33
f 33 50 51
f 34 39 35
f 36 44 52
f 36 52 53
f 36 53 37
f 43 54 44
f 44 54 55
f 44 55 56
f 44 56 52
f 45 57 58
f 45 58 59
f 45 59 46
f 46 59 60
f 48 61 49
f 49 61 59
f 49 59 58
f 49 58 62
f 49 62 50
f 50 63 64
f 50 64 51
f 50 62 56
f 50 56 63
f 52 56 62
f 52 62 65
f 52 65 53
f 53 65 66
f 54 67 55
f 55 67 56
f 56 67 68
f 56 68 63
f 57 69 58
f 58 69 65
f 58 65 62
f 59 61 60
f 65 69 66

