# https://github.com/mikedh/trimesh
v 0.04773442 -0.03371367 0.01512775
v 0.04772578 -0.03371367 0.01666996
v 0.04678587 -0.03501441 0.01468537
v 0.04677896 -0.03502399 0.01342580
v 0.04740614 -0.03415790 0.01342580
v 0.04772578 -0.03371367 0.01357941
v 0.04772405 -0.03371367 0.01678056
v 0.04677205 -0.03501920 0.01622143
v 0.04570255 -0.03641102 0.01572784
v 0.04569910 -0.03641902 0.01417744
v 0.04647141 -0.03542189 0.01342580
v 0.04772405 -0.03371367 0.01342580
v 0.04769813 -0.03371367 0.01831252
v 0.04674268 -0.03501601 0.01775339
v 0.04563171 -0.03642381 0.01877743
v 0.04566973 -0.03641422 0.01725366
v 0.04455876 -0.03781723 0.01518920
v 0.04453285 -0.03782363 0.01671911
v 0.04454840 -0.03781244 0.01364290
v 0.04568873 -0.03642221 0.01342580
v 0.03748870 -0.03371367 0.01342580
v 0.04765494 -0.03371367 0.01972774
v 0.04669430 -0.03503198 0.01926692
v 0.04450002 -0.03781723 0.01825313
v 0.04665283 -0.03501441 0.02080298
v 0.04658717 -0.03502080 0.02231242
v 0.04558506 -0.03640463 0.02030940
v 0.04445164 -0.03780924 0.01977895
v 0.04333032 -0.03920906 0.01616613
v 0.04334587 -0.03921065 0.01462802
v 0.04325084 -0.03927777 0.01342580
v 0.04446546 -0.03789873 0.01342580
v 0.04453976 -0.03781403 0.01342580
v 0.04478510 -0.03752001 0.01342580
v 0.03008346 -0.04041072 0.01342580
v 0.04005964 -0.03371367 0.02898097
v 0.04754782 -0.03371367 0.02276095
v 0.04311434 -0.03941679 0.01749738
v 0.04338733 -0.03904606 0.01928126
v 0.04550904 -0.03641902 0.02181269
v 0.04748389 -0.03371367 0.02427653
v 0.04651979 -0.03501760 0.02382800
v 0.04436007 -0.03783002 0.02126995
v 0.04316272 -0.03922503 0.02071492
v 0.04203794 -0.04057851 0.01556195
v 0.04263230 -0.03996649 0.01429214
v 0.04303314 -0.03951107 0.01342580
v 0.03008346 -0.04273576 0.02852425
v 0.03008346 -0.05001607 0.01342580
v 0.03008346 -0.04298823 0.03016066
v 0.04024624 -0.03371367 0.03006646
v 0.04208286 -0.04047144 0.01878563
v 0.04542957 -0.03640943 0.02332417
v 0.04747698 -0.03371367 0.02438303
v 0.04642131 -0.03500642 0.02533129
v 0.04532763 -0.03641422 0.02481722
v 0.04427887 -0.03781563 0.02278348
v 0.04416829 -0.03782522 0.02427038
v 0.04306942 -0.03921065 0.02222231
v 0.04219862 -0.04017582 0.02181883
v 0.04077666 -0.04182013 0.01497005
v 0.04136929 -0.04123048 0.01370024
v 0.04144704 -0.04116017 0.01682971
v 0.04149542 -0.04109305 0.01342580
v 0.03068818 -0.04965653 0.01342580
v 0.03011456 -0.05001927 0.01463417
v 0.03008346 -0.05003684 0.01461983
v 0.03008346 -0.04305535 0.03053547
v 0.04037236 -0.03371367 0.03077099
v 0.04028770 -0.03371367 0.03030608
v 0.04153170 -0.04098279 0.01995918
v 0.04735949 -0.03371367 0.02576753
v 0.04622952 -0.03444394 0.03222104
v 0.04561271 -0.03525250 0.03189539
v 0.04518422 -0.03641902 0.02629184
v 0.04405771 -0.03780924 0.02577163
v 0.04289664 -0.03927138 0.02368054
v 0.04229711 -0.03980190 0.02494625
v 0.04169066 -0.04030526 0.02621402
v 0.04162327 -0.04064563 0.02308864
v 0.04018404 -0.04237462 0.01623781
v 0.03950502 -0.04299463 0.01437816
v 0.04020822 -0.04232188 0.01342580
v 0.04077839 -0.04178497 0.01342580
v 0.04126908 -0.04131517 0.01342580
v 0.04084750 -0.04171466 0.01809952
v 0.03084886 -0.04955586 0.01342580
v 0.03139311 -0.04923946 0.01522606
v 0.03079703 -0.04960859 0.01649587
v 0.03008346 -0.05003844 0.01616408
v 0.03008346 -0.04325350 0.03150216
v 0.04040692 -0.03371367 0.03090207
v 0.04092525 -0.04148296 0.02122694
v 0.04026697 -0.04220683 0.01936728
v 0.04675477 -0.03371367 0.03189334
v 0.04665110 -0.03373924 0.03245042
v 0.04585460 -0.03475554 0.03284365
v 0.04482657 -0.03609782 0.03223128
v 0.04471254 -0.03632793 0.03156974
v 0.04389357 -0.03781563 0.02723601
v 0.04271005 -0.03919627 0.02669122
v 0.04113086 -0.04073830 0.02748587
v 0.04042247 -0.04161558 0.02562212
v 0.04105656 -0.04110424 0.02435845
v 0.03891758 -0.04352195 0.01564592
v 0.03958450 -0.04289236 0.01750762
v 0.03822819 -0.04410841 0.01378626
v 0.03839752 -0.04395021 0.01342580
v 0.03915601 -0.04327906 0.01342580
v 0.03994388 -0.04256797 0.01342580
v 0.03178359 -0.04895662 0.01342580
v 0.03197537 -0.04884476 0.01395830
v 0.03264920 -0.04841012 0.01581796
v 0.03205658 -0.04880002 0.01708572
v 0.03147259 -0.04915157 0.01835553
v 0.03020094 -0.04995055 0.01776363
v 0.03008346 -0.05001927 0.01771038
v 0.03008346 -0.04327427 0.03158818
v 0.03008346 -0.04345164 0.03221080
v 0.04071101 -0.03371367 0.03186672
v 0.03915946 -0.04286839 0.02503227
v 0.03789128 -0.04404129 0.02444038
v 0.03900742 -0.04335577 0.01877743
v 0.04666838 -0.03371367 0.03244428
v 0.04666319 -0.03371367 0.03245452
v 0.04639712 -0.03371367 0.03297678
v 0.04625717 -0.03388784 0.03305256
v 0.04530344 -0.03497606 0.03320616
v 0.04212951 -0.03838770 0.03336796
v 0.04151615 -0.03928736 0.03312834
v 0.04229020 -0.03868652 0.03278835
v 0.04258565 -0.03862420 0.03208996
v 0.04361021 -0.03756475 0.03169877
v 0.04353592 -0.03781244 0.03041258
v 0.04230229 -0.03908282 0.03117856
v 0.04150751 -0.03987221 0.03152264
v 0.04108421 -0.04040913 0.03070955
v 0.03984366 -0.04204863 0.02689193
v 0.04039137 -0.04105310 0.03114375
v 0.03832322 -0.04400933 0.01691573
v 0.03764248 -0.04460857 0.01505607
v 0.03746279 -0.04473001 0.01342580
v 0.03809861 -0.04420429 0.01342580
v 0.03222417 -0.04866739 0.01342580
v 0.03283753 -0.04824713 0.01342580
v 0.03324529 -0.04798346 0.01454815
v 0.03392258 -0.04749129 0.01640985
v 0.03332822 -0.04791155 0.01767761
v 0.03273732 -0.04829826 0.01894742
v 0.03214988 -0.04864342 0.02021519
v 0.03088687 -0.04947436 0.01962534
v 0.03008346 -0.04997133 0.01925259
v 0.03008346 -0.05001127 0.01801350
v 0.03008346 -0.04351556 0.03238488
v 0.04071447 -0.03371367 0.03187491
v 0.03857720 -0.04327267 0.02630208
v 0.03730038 -0.04442960 0.02570814
v 0.03662827 -0.04512791 0.02385053
v 0.03723127 -0.04469326 0.02258277
v 0.03772368 -0.04446954 0.01818349
v 0.04633837 -0.03371367 0.03308532
v 0.04588224 -0.03371367 0.03339049
v 0.04424258 -0.03524451 0.03374276
v 0.04401624 -0.03612978 0.03340482
v 0.04094944 -0.03937365 0.03358915
v 0.03709823 -0.04319437 0.03344579
v 0.03631728 -0.04419310 0.03303208
v 0.03861694 -0.04237142 0.03249343
v 0.04048294 -0.04061047 0.03248728
v 0.04179778 -0.03933689 0.03247909
v 0.04198956 -0.03929854 0.03192406
v 0.04072483 -0.04058650 0.03188515
v 0.03977110 -0.04176899 0.03006236
v 0.03925104 -0.04211095 0.03135470
v 0.03898841 -0.04244173 0.03055185
v 0.03705158 -0.04507357 0.01632383
v 0.03636911 -0.04562008 0.01446418
v 0.03685980 -0.04522059 0.01342580
v 0.03705331 -0.04506558 0.01342580
v 0.03376708 -0.04758557 0.01342580
v 0.03452211 -0.04704386 0.01514004
v 0.03519940 -0.04651653 0.01700175
v 0.03460677 -0.04694319 0.01826951
v 0.03400724 -0.04736825 0.01953932
v 0.03341634 -0.04775495 0.02080708
v 0.03283062 -0.04810012 0.02207689
v 0.03224663 -0.04841971 0.02334670
v 0.03155552 -0.04896621 0.02148500
v 0.03096808 -0.04926982 0.02275481
v 0.03028388 -0.04978596 0.02089310
v 0.03008346 -0.04990741 0.02079889
v 0.03008346 -0.04360984 0.03261222
v 0.04102892 -0.03371367 0.03259583
v 0.04075593 -0.03371367 0.03197117
v 0.03823165 -0.04306813 0.03090002
v 0.03604083 -0.04550502 0.02511829
v 0.03695137 -0.04413397 0.03110278
v 0.03619979 -0.04473640 0.03130145
v 0.03536872 -0.04616818 0.02326068
v 0.03595962 -0.04575591 0.02199087
v 0.03655225 -0.04532605 0.02072311
v 0.03713106 -0.04490579 0.01945330
v 0.03646414 -0.04551621 0.01759364
v 0.04576130 -0.03371367 0.03344988
v 0.04478510 -0.03371367 0.03392709
v 0.04288282 -0.03617932 0.03397829
v 0.04126735 -0.03836054 0.03388612
v 0.03821437 -0.04183930 0.03368541
v 0.03592161 -0.04418031 0.03356867
v 0.04017367 -0.03934808 0.03393528
v 0.03531862 -0.04485306 0.03323688
v 0.03546894 -0.04506079 0.03258969
v 0.03655052 -0.04422026 0.03239717
v 0.03740232 -0.04341489 0.03259583
v 0.03894004 -0.04231230 0.03185648
v 0.03973136 -0.04143821 0.03224152
v 0.03578512 -0.04607709 0.01573194
v 0.03511301 -0.04658524 0.01387228
v 0.03531862 -0.04641746 0.01342580
v 0.03415237 -0.04729794 0.01342580
v 0.03586805 -0.04594446 0.01886141
v 0.03528579 -0.04636153 0.02013121
v 0.03468107 -0.04678979 0.02139898
v 0.03409190 -0.04717649 0.02266879
v 0.03349927 -0.04752964 0.02393450
v 0.03289800 -0.04783965 0.02520226
v 0.03164709 -0.04871533 0.02461242
v 0.03037718 -0.04956544 0.02402052
v 0.03008346 -0.04988344 0.02132115
v 0.03008346 -0.04374247 0.03288052
v 0.04103756 -0.03371367 0.03261222
v 0.03771677 -0.04336855 0.03189744
v 0.03477955 -0.04654370 0.02452640
v 0.03519768 -0.04550343 0.03162709
v 0.03482102 -0.04588054 0.03087749
v 0.03592161 -0.04484347 0.03207972
v 0.04424604 -0.03371367 0.03407455
v 0.04277225 -0.03557849 0.03409708
v 0.04182024 -0.03652288 0.03415032
v 0.04113777 -0.03785398 0.03407660
v 0.03489359 -0.04467568 0.03386974
v 0.03435452 -0.04532446 0.03363421
v 0.03645204 -0.04197992 0.03428345
v 0.03361676 -0.04610106 0.03329013
v 0.03405907 -0.04605153 0.03272896
v 0.03341116 -0.04663319 0.03240741
v 0.03447201 -0.04595725 0.03206129
v 0.03495060 -0.04669870 0.01342580
v 0.03416446 -0.04687927 0.02579416
v 0.03105447 -0.04898538 0.02588222
v 0.03356666 -0.04685370 0.03043101
v 0.03300858 -0.04714293 0.03130554
v 0.03193909 -0.04790037 0.03094713
v 0.03008346 -0.04974602 0.02388739
v 0.03008346 -0.04969967 0.02463085
v 0.03008346 -0.04405088 0.03338844
v 0.04142804 -0.03371367 0.03315701
v 0.03417483 -0.04632798 0.03127277
v 0.04422703 -0.03371367 0.03407660
v 0.04253381 -0.03516302 0.03413189
v 0.04419766 -0.03371367 0.03407864
v 0.03264920 -0.04627364 0.03374890
v 0.03489359 -0.04396939 0.03411141
v 0.03408499 -0.04482429 0.03405816
v 0.03335759 -0.04548425 0.03400696
v 0.03008346 -0.04824233 0.03348880
v 0.03049467 -0.04811609 0.03336796
v 0.03234339 -0.04690164 0.03338434
v 0.03008346 -0.04801542 0.03367108
v 0.03529616 -0.04231549 0.03429984
v 0.03418693 -0.04330943 0.03432236
v 0.03490395 -0.04342767 0.03429164
v 0.03164537 -0.04755361 0.03309761
v 0.03255418 -0.04709020 0.03282317
v 0.03273732 -0.04717330 0.03215754
v 0.03008346 -0.04963256 0.02543370
v 0.03220862 -0.04763830 0.03165372
v 0.03136892 -0.04819439 0.03149192
v 0.03008346 -0.04434650 0.03369156
v 0.04144531 -0.03371367 0.03317134
v 0.03170065 -0.04489940 0.03434080
v 0.04339252 -0.03371367 0.03406226
v 0.03328503 -0.04489780 0.03425068
v 0.03200820 -0.04612184 0.03411346
v 0.03008346 -0.04837177 0.03334748
v 0.03008346 -0.04845167 0.03321026
v 0.03008346 -0.04763351 0.03385540
v 0.03030461 -0.04615699 0.03434899
v 0.03178705 -0.04551621 0.03431212
v 0.03008346 -0.04863223 0.03284775
v 0.03099400 -0.04807455 0.03281088
v 0.03131536 -0.04808254 0.03218826
v 0.03053959 -0.04883358 0.03027741
v 0.03008346 -0.04955586 0.02613824
v 0.03008346 -0.04883038 0.03221489
v 0.03008346 -0.04892626 0.03172130
v 0.03025105 -0.04886394 0.03152059
v 0.03008346 -0.04448393 0.03381649
v 0.04209323 -0.03371367 0.03370589
v 0.03012838 -0.04552420 0.03427116
v 0.03008346 -0.04557533 0.03427321
v 0.03008346 -0.04585658 0.03430598
v 0.03008346 -0.04615540 0.03433260
v 0.04332859 -0.03371367 0.03405612
v 0.03008346 -0.04683453 0.03421177
v 0.03008346 -0.04625767 0.03433875
v 0.03008346 -0.04637911 0.03433056
v 0.03008346 -0.04908286 0.03048016
v 0.03008346 -0.04895662 0.03155950
v 0.03008346 -0.04896621 0.03148168
v 0.03008346 -0.04898858 0.03129940
v 0.03008346 -0.04493615 0.03407045
v 0.03008346 -0.04498569 0.03409708
v 0.04269104 -0.03371367 0.03394757
v 0.03008346 -0.04554657 0.03426912
v 0.04277052 -0.03371367 0.03396190
v 0.03008346 -0.04501605 0.03410936
f 1 2 3
f 1 3 4
f 1 4 5
f 1 5 6
f 1 6 12
f 1 12 21
f 1 21 36
f 1 36 51
f 1 51 70
f 1 70 69
f 1 69 92
f 1 92 120
f 1 120 155
f 1 155 194
f 1 194 193
f 1 193 231
f 1 231 257
f 1 257 280
f 1 280 299
f 1 299 314
f 1 314 316
f 1 316 304
f 1 304 282
f 1 282 261
f 1 261 259
f 1 259 237
f 1 237 205
f 1 205 204
f 1 204 162
f 1 162 161
f 1 161 126
f 1 126 125
f 1 125 124
f 1 124 95
f 1 95 72
f 1 72 54
f 1 54 41
f 1 41 37
f 1 37 22
f 1 22 13
f 1 13 7
f 1 7 2
f 2 7 8
f 2 8 3
f 3 8 9
f 3 9 10
f 3 10 11
f 3 11 4
f 4 11 20
f 4 20 34
f 4 34 33
f 4 33 32
f 4 32 31
f 4 31 47
f 4 47 64
f 4 64 85
f 4 85 84
f 4 84 83
f 4 83 110
f 4 110 109
f 4 109 108
f 4 108 143
f 4 143 142
f 4 142 179
f 4 179 178
f 4 178 219
f 4 219 248
f 4 248 220
f 4 220 180
f 4 180 145
f 4 145 144
f 4 144 111
f 4 111 87
f 4 87 65
f 4 65 49
f 4 49 35
f 4 35 21
f 4 21 12
f 4 12 5
f 5 12 6
f 7 13 8
f 8 13 14
f 8 14 15
f 8 15 16
f 8 16 9
f 9 17 10
f 9 16 18
f 9 18 17
f 10 19 20
f 10 20 11
f 10 17 19
f 13 22 23
f 13 23 14
f 14 23 15
f 15 24 18
f 15 18 16
f 15 23 25
f 15 25 26
f 15 26 27
f 15 27 28
f 15 28 24
f 17 18 29
f 17 29 30
f 17 30 19
f 18 24 29
f 19 31 32
f 19 32 33
f 19 33 34
f 19 34 20
f 19 30 31
f 21 35 36
f 22 37 23
f 23 37 25
f 24 38 29
f 24 28 39
f 24 39 38
f 25 37 26
f 26 40 27
f 26 37 41
f 26 41 42
f 26 42 40
f 27 40 28
f 28 40 43
f 28 43 44
f 28 44 39
f 29 45 30
f 29 38 45
f 30 45 46
f 30 46 31
f 31 46 47
f 35 48 36
f 35 49 67
f 35 67 90
f 35 90 117
f 35 117 153
f 35 153 152
f 35 152 191
f 35 191 229
f 35 229 254
f 35 254 255
f 35 255 276
f 35 276 294
f 35 294 308
f 35 308 311
f 35 311 310
f 35 310 309
f 35 309 296
f 35 296 295
f 35 295 290
f 35 290 286
f 35 286 285
f 35 285 266
f 35 266 269
f 35 269 287
f 35 287 305
f 35 305 307
f 35 307 306
f 35 306 303
f 35 303 302
f 35 302 301
f 35 301 315
f 35 315 317
f 35 317 313
f 35 313 312
f 35 312 298
f 35 298 279
f 35 279 256
f 35 256 230
f 35 230 192
f 35 192 154
f 35 154 119
f 35 119 118
f 35 118 91
f 35 91 68
f 35 68 50
f 35 50 48
f 36 48 50
f 36 50 51
f 38 39 52
f 38 52 45
f 39 44 52
f 40 42 53
f 40 53 43
f 41 54 42
f 42 54 55
f 42 55 56
f 42 56 53
f 43 53 57
f 43 57 44
f 44 57 58
f 44 58 59
f 44 59 60
f 44 60 52
f 45 61 62
f 45 62 46
f 45 52 63
f 45 63 61
f 46 62 64
f 46 64 47
f 49 65 66
f 49 66 67
f 50 68 69
f 50 69 70
f 50 70 51
f 52 60 71
f 52 71 63
f 53 56 57
f 54 72 55
f 55 72 73
f 55 73 74
f 55 74 56
f 56 58 57
f 56 74 75
f 56 75 76
f 56 76 58
f 58 76 77
f 58 77 59
f 59 77 60
f 60 77 78
f 60 78 79
f 60 79 80
f 60 80 71
f 61 63 81
f 61 81 82
f 61 82 83
f 61 83 84
f 61 84 62
f 62 84 85
f 62 85 64
f 63 71 86
f 63 86 81
f 65 87 88
f 65 88 66
f 66 88 89
f 66 89 90
f 66 90 67
f 68 91 69
f 69 91 92
f 71 80 93
f 71 93 94
f 71 94 86
f 72 95 73
f 73 95 96
f 73 96 97
f 73 97 74
f 74 97 98
f 74 98 99
f 74 99 100
f 74 100 76
f 74 76 75
f 76 100 101
f 76 101 77
f 77 101 78
f 78 101 79
f 79 101 102
f 79 102 103
f 79 103 104
f 79 104 80
f 80 104 93
f 81 105 82
f 81 86 106
f 81 106 105
f 82 107 108
f 82 108 109
f 82 109 110
f 82 110 83
f 82 105 107
f 86 94 106
f 87 111 112
f 87 112 88
f 88 113 114
f 88 114 89
f 88 112 113
f 89 114 115
f 89 115 116
f 89 116 90
f 90 116 117
f 91 118 92
f 92 118 119
f 92 119 120
f 93 104 103
f 93 103 121
f 93 121 94
f 94 121 122
f 94 122 123
f 94 123 106
f 95 124 96
f 96 124 125
f 96 125 126
f 96 126 127
f 96 127 97
f 97 127 128
f 97 128 129
f 97 129 130
f 97 130 131
f 97 131 132
f 97 132 98
f 98 132 133
f 98 133 99
f 99 133 100
f 100 133 134
f 100 134 101
f 101 134 135
f 101 135 136
f 101 136 137
f 101 137 102
f 102 138 103
f 102 137 139
f 102 139 138
f 103 138 121
f 105 106 140
f 105 140 141
f 105 141 107
f 106 123 140
f 107 142 143
f 107 143 108
f 107 141 142
f 111 144 112
f 112 144 113
f 113 144 145
f 113 145 146
f 113 146 147
f 113 147 148
f 113 148 114
f 114 148 149
f 114 149 115
f 115 149 150
f 115 150 151
f 115 151 116
f 116 151 152
f 116 152 153
f 116 153 117
f 119 154 120
f 120 154 155
f 121 138 156
f 121 156 122
f 122 156 157
f 122 157 158
f 122 158 159
f 122 159 123
f 123 160 140
f 123 159 160
f 126 161 127
f 127 161 128
f 128 161 162
f 128 162 163
f 128 163 164
f 128 164 129
f 129 164 165
f 129 165 130
f 130 165 166
f 130 166 167
f 130 167 168
f 130 168 169
f 130 169 170
f 130 170 131
f 131 170 132
f 132 170 171
f 132 171 135
f 132 135 133
f 133 135 134
f 135 171 136
f 136 171 172
f 136 172 139
f 136 139 137
f 138 139 173
f 138 173 174
f 138 174 175
f 138 175 156
f 139 172 174
f 139 174 173
f 140 160 176
f 140 176 141
f 141 176 177
f 141 177 178
f 141 178 179
f 141 179 142
f 145 180 146
f 146 181 147
f 146 180 181
f 147 181 182
f 147 182 183
f 147 183 184
f 147 184 148
f 148 184 149
f 149 184 185
f 149 185 186
f 149 186 150
f 150 186 187
f 150 187 188
f 150 188 151
f 151 188 189
f 151 189 190
f 151 190 152
f 152 190 191
f 154 192 193
f 154 193 194
f 154 194 155
f 156 175 195
f 156 195 157
f 157 196 158
f 157 195 197
f 157 197 198
f 157 198 196
f 158 196 199
f 158 199 200
f 158 200 159
f 159 200 201
f 159 201 202
f 159 202 160
f 160 203 176
f 160 202 203
f 162 204 163
f 163 165 164
f 163 204 205
f 163 205 206
f 163 206 207
f 163 207 165
f 165 208 209
f 165 209 166
f 165 207 210
f 165 210 208
f 166 209 167
f 167 209 211
f 167 211 212
f 167 212 213
f 167 213 214
f 167 214 168
f 168 214 215
f 168 215 216
f 168 216 169
f 169 216 170
f 170 216 172
f 170 172 171
f 172 215 174
f 172 216 215
f 174 215 195
f 174 195 175
f 176 217 177
f 176 203 217
f 177 218 178
f 177 217 218
f 178 218 219
f 180 220 181
f 181 217 182
f 181 220 218
f 181 218 217
f 182 203 183
f 182 217 203
f 183 203 221
f 183 221 222
f 183 222 184
f 184 222 223
f 184 223 224
f 184 224 185
f 185 224 225
f 185 225 186
f 186 225 187
f 187 225 226
f 187 226 227
f 187 227 228
f 187 228 189
f 187 189 188
f 189 228 190
f 190 229 191
f 190 228 229
f 192 230 231
f 192 231 193
f 195 215 232
f 195 232 197
f 196 233 199
f 196 198 234
f 196 234 235
f 196 235 233
f 197 232 198
f 198 232 236
f 198 236 234
f 199 233 224
f 199 224 223
f 199 223 200
f 200 223 222
f 200 222 221
f 200 221 203
f 200 203 201
f 201 203 202
f 205 237 206
f 206 237 238
f 206 238 239
f 206 239 240
f 206 240 207
f 207 240 210
f 208 241 209
f 208 210 241
f 209 241 242
f 209 242 211
f 210 240 243
f 210 243 241
f 211 244 245
f 211 245 212
f 211 242 244
f 212 245 246
f 212 246 247
f 212 247 236
f 212 236 213
f 213 236 232
f 213 232 214
f 214 232 215
f 218 220 248
f 218 248 219
f 224 233 225
f 225 233 249
f 225 249 226
f 226 250 227
f 226 249 251
f 226 251 252
f 226 252 253
f 226 253 250
f 227 250 228
f 228 254 229
f 228 250 255
f 228 255 254
f 230 256 231
f 231 256 257
f 233 235 258
f 233 258 249
f 234 236 247
f 234 247 258
f 234 258 235
f 237 259 239
f 237 239 238
f 239 260 243
f 239 243 240
f 239 259 261
f 239 261 260
f 241 262 242
f 241 243 263
f 241 263 264
f 241 264 265
f 241 265 262
f 242 266 267
f 242 267 268
f 242 268 244
f 242 262 269
f 242 269 266
f 243 260 270
f 243 270 271
f 243 271 272
f 243 272 263
f 244 268 273
f 244 273 274
f 244 274 245
f 245 274 246
f 246 274 275
f 246 275 247
f 247 275 258
f 249 258 251
f 250 276 255
f 250 253 276
f 251 258 252
f 252 258 275
f 252 275 277
f 252 277 253
f 253 277 278
f 253 278 276
f 256 279 257
f 257 279 280
f 260 281 271
f 260 271 270
f 260 261 282
f 260 282 281
f 262 265 269
f 263 272 264
f 264 272 283
f 264 283 265
f 265 283 284
f 265 284 269
f 266 285 267
f 267 285 286
f 267 286 273
f 267 273 268
f 269 284 287
f 271 281 288
f 271 288 272
f 272 288 289
f 272 289 283
f 273 286 290
f 273 290 274
f 274 291 292
f 274 292 275
f 274 290 291
f 275 292 277
f 276 278 293
f 276 293 294
f 277 292 278
f 278 292 295
f 278 295 296
f 278 296 297
f 278 297 293
f 279 298 299
f 279 299 280
f 281 300 301
f 281 301 302
f 281 302 303
f 281 303 288
f 281 282 300
f 282 304 300
f 283 289 284
f 284 289 305
f 284 305 287
f 288 303 306
f 288 306 307
f 288 307 289
f 289 307 305
f 290 295 292
f 290 292 291
f 293 297 308
f 293 308 294
f 296 309 297
f 297 309 310
f 297 310 311
f 297 311 308
f 298 312 299
f 299 312 313
f 299 313 314
f 300 315 301
f 300 304 315
f 304 316 315
f 313 317 314
f 314 317 315
f 314 315 316

