# https://github.com/mikedh/trimesh
v 0.03139184 -0.04662513 -0.00251195
v 0.03139184 -0.03371518 -0.00251195
v 0.03193223 -0.04626417 -0.00251195
v 0.03155172 -0.04680865 -0.00168979
v 0.03139184 -0.04676012 -0.00212817
v 0.03139184 -0.03371518 0.00089214
v 0.04513814 -0.03371518 -0.00251195
v 0.03230314 -0.04600784 -0.00251195
v 0.03281795 -0.04613524 -0.00109696
v 0.03139184 -0.04737285 -0.00022644
v 0.03139184 -0.04702402 -0.00134501
v 0.03139184 -0.04688752 -0.00176311
v 0.03139184 -0.03938149 0.01342580
v 0.03748798 -0.03371518 0.01342580
v 0.04527243 -0.03371518 -0.00214065
v 0.04541472 -0.03379253 -0.00158682
v 0.04432596 -0.03496492 -0.00207669
v 0.04454499 -0.03447807 -0.00251195
v 0.03309614 -0.04545123 -0.00251195
v 0.03222960 -0.04692392 0.00016982
v 0.03340790 -0.04528136 -0.00236530
v 0.03409377 -0.04540421 -0.00050881
v 0.03349743 -0.04621715 0.00076265
v 0.03139184 -0.04779904 0.00133052
v 0.03139184 -0.04920652 0.01342580
v 0.04772496 -0.03371518 0.01342580
v 0.04544670 -0.03371518 -0.00165703
v 0.04548507 -0.03371518 -0.00154470
v 0.04576806 -0.03371518 -0.00065078
v 0.04480399 -0.03503317 -0.00051193
v 0.04348340 -0.03653620 -0.00076622
v 0.04283749 -0.03656350 -0.00251195
v 0.04310929 -0.03623742 -0.00251195
v 0.04416768 -0.03495279 -0.00251195
v 0.03335514 -0.04526467 -0.00251195
v 0.03163325 -0.04766861 0.00144129
v 0.03347665 -0.04517671 -0.00251195
v 0.03468053 -0.04453212 -0.00177559
v 0.03536800 -0.04460492 0.00008090
v 0.03475407 -0.04546033 0.00135860
v 0.03416732 -0.04621715 0.00262538
v 0.03291068 -0.04695273 0.00202943
v 0.03139184 -0.04794919 0.00196391
v 0.03139184 -0.04920652 0.01340240
v 0.03178354 -0.04895778 0.01342580
v 0.04677848 -0.03502407 0.01342580
v 0.04677688 -0.03502559 0.01312782
v 0.04771057 -0.03371518 0.01214341
v 0.04610859 -0.03371518 0.00043972
v 0.04615336 -0.03371518 0.00059104
v 0.04546269 -0.03500739 0.00171742
v 0.04415329 -0.03640728 0.00109651
v 0.04288546 -0.03767522 0.00050524
v 0.04219638 -0.03777836 -0.00135125
v 0.04274317 -0.03667119 -0.00251195
v 0.03441193 -0.04446539 -0.00251195
v 0.03502426 -0.04399521 -0.00251195
v 0.03595156 -0.04372373 -0.00118432
v 0.03662784 -0.04374648 0.00067685
v 0.03603309 -0.04460795 0.00194675
v 0.03544314 -0.04539662 0.00321509
v 0.03358217 -0.04688752 0.00389217
v 0.03484680 -0.04609430 0.00448500
v 0.03231913 -0.04762462 0.00329934
v 0.03139184 -0.04815394 0.00286564
v 0.03139184 -0.04918832 0.01233998
v 0.03139184 -0.04918376 0.01213561
v 0.03222480 -0.04866809 0.01342580
v 0.04647152 -0.03542144 0.01342580
v 0.04567533 -0.03642548 0.01261456
v 0.04675930 -0.03499678 0.01159427
v 0.04770897 -0.03371518 0.01202797
v 0.04657704 -0.03371518 0.00222600
v 0.04584640 -0.03501346 0.00343506
v 0.04483437 -0.03614945 0.00295768
v 0.04347061 -0.03757057 0.00238201
v 0.04229391 -0.03870201 0.00177358
v 0.04151530 -0.03896592 -0.00007199
v 0.04093815 -0.03889008 -0.00194720
v 0.04120035 -0.03837441 -0.00251195
v 0.04177910 -0.03774954 -0.00251195
v 0.03546713 -0.04364031 -0.00251195
v 0.03653671 -0.04279098 -0.00245111
v 0.03721139 -0.04285013 -0.00058993
v 0.03849042 -0.04191433 -0.00000179
v 0.03789407 -0.04281979 0.00126968
v 0.03730572 -0.04368430 0.00253646
v 0.03670618 -0.04448510 0.00380792
v 0.03611943 -0.04519794 0.00507471
v 0.03426485 -0.04672220 0.00575022
v 0.03298422 -0.04751391 0.00516207
v 0.03173078 -0.04825253 0.00456768
v 0.03552149 -0.04584860 0.00634305
v 0.03139184 -0.04829954 0.00364099
v 0.03139184 -0.04917618 0.01190316
v 0.03189066 -0.04881370 0.01082671
v 0.03257014 -0.04842088 0.01268632
v 0.03283873 -0.04824798 0.01342580
v 0.04568812 -0.03642245 0.01342580
v 0.04478481 -0.03752052 0.01342580
v 0.04454019 -0.03781476 0.01342580
v 0.04449063 -0.03782689 0.01206073
v 0.04563056 -0.03640880 0.01105916
v 0.04664898 -0.03501497 0.00998583
v 0.04764982 -0.03371518 0.01055058
v 0.04660262 -0.03371518 0.00234301
v 0.04491111 -0.03641487 0.00454272
v 0.04692717 -0.03371518 0.00393897
v 0.04694795 -0.03371518 0.00405910
v 0.04612298 -0.03501953 0.00510279
v 0.04423323 -0.03713681 0.00422758
v 0.04296060 -0.03843053 0.00363631
v 0.04170076 -0.03965145 0.00304349
v 0.04102128 -0.03985924 0.00118387
v 0.04034180 -0.03994721 -0.00067574
v 0.04073190 -0.03885823 -0.00251195
v 0.03965753 -0.03993811 -0.00251195
v 0.03972787 -0.03986834 -0.00251195
v 0.03640721 -0.04287439 -0.00251195
v 0.03656549 -0.04274244 -0.00251195
v 0.03780454 -0.04190372 -0.00185828
v 0.03908836 -0.04094669 -0.00127325
v 0.03975345 -0.04093001 0.00059260
v 0.03916830 -0.04184457 0.00185939
v 0.03856876 -0.04271059 0.00313085
v 0.03798041 -0.04350078 0.00439763
v 0.03739046 -0.04421817 0.00566441
v 0.03680371 -0.04487337 0.00693276
v 0.03366051 -0.04730915 0.00702012
v 0.03239907 -0.04809934 0.00642729
v 0.03493473 -0.04644465 0.00761139
v 0.03139184 -0.04869388 0.00595927
v 0.03139184 -0.04858771 0.00528064
v 0.03139184 -0.04844211 0.00441011
v 0.03620896 -0.04549066 0.00820266
v 0.03139184 -0.04912158 0.01059426
v 0.03248860 -0.04834504 0.00955681
v 0.03316169 -0.04796436 0.01141798
v 0.03139184 -0.04905940 0.00945540
v 0.03139184 -0.04903513 0.00904822
v 0.03383478 -0.04753362 0.01327915
v 0.03376603 -0.04758519 0.01342580
v 0.04325158 -0.03927835 0.01342580
v 0.04441229 -0.03781628 0.01048661
v 0.04321960 -0.03929959 0.01302174
v 0.04382234 -0.03856703 0.01175340
v 0.04551385 -0.03641335 0.00945696
v 0.04648591 -0.03502863 0.00835555
v 0.04738122 -0.03371518 0.00734150
v 0.04751712 -0.03371518 0.00882981
v 0.04752511 -0.03371518 0.00892342
v 0.04764342 -0.03371518 0.01044449
v 0.04515093 -0.03642397 0.00619016
v 0.04365287 -0.03804833 0.00549281
v 0.04718777 -0.03371518 0.00560357
v 0.04633402 -0.03501801 0.00674711
v 0.04240423 -0.03931475 0.00489998
v 0.04109962 -0.04055236 0.00431339
v 0.04043133 -0.04080109 0.00245222
v 0.03862951 -0.04089968 -0.00251195
v 0.03756952 -0.04185670 -0.00251195
v 0.03810991 -0.04137743 -0.00251195
v 0.03983179 -0.04167470 0.00372212
v 0.03924824 -0.04245882 0.00499046
v 0.03865349 -0.04318986 0.00625724
v 0.03806674 -0.04385417 0.00752559
v 0.03747519 -0.04447600 0.00879393
v 0.03308335 -0.04784302 0.00828690
v 0.03180433 -0.04864686 0.00769719
v 0.03139184 -0.04889105 0.00750531
v 0.03139184 -0.04877123 0.00656146
v 0.03432560 -0.04699368 0.00888129
v 0.03560942 -0.04606093 0.00947256
v 0.03688205 -0.04506447 0.01006383
v 0.03375643 -0.04748357 0.01014808
v 0.03442952 -0.04705587 0.01200925
v 0.03139184 -0.04899570 0.00858332
v 0.03494912 -0.04669793 0.01342580
v 0.03415133 -0.04729854 0.01342580
v 0.04303254 -0.03951192 0.01342580
v 0.04312048 -0.03920707 0.00988910
v 0.04428918 -0.03782538 0.00887817
v 0.04195017 -0.04059331 0.01243047
v 0.04255131 -0.03989412 0.01116057
v 0.04535077 -0.03641335 0.00783760
v 0.04737003 -0.03371518 0.00723073
v 0.04412131 -0.03781172 0.00726349
v 0.04302935 -0.03895682 0.00676739
v 0.04720216 -0.03371518 0.00572370
v 0.04177750 -0.04019443 0.00617300
v 0.04052086 -0.04135620 0.00557861
v 0.03992932 -0.04209330 0.00684851
v 0.03932977 -0.04278642 0.00811842
v 0.03873982 -0.04342343 0.00938676
v 0.03815787 -0.04402555 0.01065510
v 0.03503386 -0.04656447 0.01073935
v 0.03629370 -0.04560441 0.01133217
v 0.03756153 -0.04460492 0.01192344
v 0.03531844 -0.04641735 0.01342580
v 0.04149452 -0.04109381 0.01342580
v 0.04186224 -0.04047046 0.00930095
v 0.04269200 -0.03949979 0.00802013
v 0.04126909 -0.04131525 0.01342580
v 0.04068554 -0.04180362 0.01183920
v 0.04128828 -0.04114235 0.01056930
v 0.04119875 -0.04095125 0.00743978
v 0.04060240 -0.04165043 0.00870969
v 0.04001885 -0.04230867 0.00997803
v 0.03941931 -0.04294264 0.01124637
v 0.03882616 -0.04354931 0.01251627
v 0.03569895 -0.04610340 0.01260052
v 0.03696998 -0.04512969 0.01319335
v 0.03839769 -0.04394972 0.01342580
v 0.03809871 -0.04420452 0.01342580
v 0.03746400 -0.04472929 0.01342580
v 0.03633366 -0.04563019 0.01342580
v 0.04077827 -0.04178239 0.01342580
v 0.04009079 -0.04242546 0.01310754
v 0.03915871 -0.04327934 0.01342580
v 0.03994531 -0.04256802 0.01342580
v 0.03705311 -0.04506447 0.01342580
v 0.03685966 -0.04522069 0.01342580
v 0.04020910 -0.04232080 0.01342580
f 1 2 7
f 1 7 18
f 1 18 34
f 1 34 33
f 1 33 32
f 1 32 55
f 1 55 81
f 1 81 80
f 1 80 116
f 1 116 118
f 1 118 117
f 1 117 160
f 1 160 162
f 1 162 161
f 1 161 120
f 1 120 119
f 1 119 82
f 1 82 57
f 1 57 56
f 1 56 37
f 1 37 35
f 1 35 19
f 1 19 8
f 1 8 3
f 1 3 4
f 1 4 5
f 1 5 12
f 1 12 11
f 1 11 10
f 1 10 24
f 1 24 43
f 1 43 65
f 1 65 94
f 1 94 134
f 1 134 133
f 1 133 132
f 1 132 171
f 1 171 170
f 1 170 177
f 1 177 140
f 1 140 139
f 1 139 136
f 1 136 95
f 1 95 67
f 1 67 66
f 1 66 44
f 1 44 25
f 1 25 13
f 1 13 6
f 1 6 2
f 2 6 14
f 2 14 26
f 2 26 48
f 2 48 72
f 2 72 105
f 2 105 152
f 2 152 151
f 2 151 150
f 2 150 149
f 2 149 186
f 2 186 189
f 2 189 155
f 2 155 109
f 2 109 108
f 2 108 106
f 2 106 73
f 2 73 50
f 2 50 49
f 2 49 29
f 2 29 28
f 2 28 27
f 2 27 15
f 2 15 7
f 3 8 4
f 4 8 9
f 4 9 10
f 4 10 11
f 4 11 12
f 4 12 5
f 6 13 14
f 7 15 16
f 7 16 17
f 7 17 18
f 8 19 9
f 9 20 10
f 9 19 21
f 9 21 22
f 9 22 23
f 9 23 20
f 10 20 24
f 13 25 45
f 13 45 68
f 13 68 98
f 13 98 142
f 13 142 179
f 13 179 178
f 13 178 199
f 13 199 216
f 13 216 222
f 13 222 221
f 13 221 215
f 13 215 214
f 13 214 213
f 13 213 219
f 13 219 220
f 13 220 223
f 13 223 217
f 13 217 203
f 13 203 200
f 13 200 180
f 13 180 143
f 13 143 101
f 13 101 100
f 13 100 99
f 13 99 69
f 13 69 46
f 13 46 26
f 13 26 14
f 15 27 16
f 16 27 28
f 16 28 29
f 16 29 30
f 16 30 17
f 17 31 32
f 17 32 33
f 17 33 34
f 17 34 18
f 17 30 31
f 19 35 21
f 20 23 36
f 20 36 24
f 21 35 37
f 21 37 38
f 21 38 22
f 22 38 39
f 22 39 40
f 22 40 23
f 23 40 41
f 23 41 42
f 23 42 36
f 24 36 43
f 25 44 45
f 26 46 47
f 26 47 48
f 29 49 30
f 30 49 50
f 30 50 51
f 30 51 52
f 30 52 31
f 31 52 53
f 31 53 54
f 31 54 32
f 32 54 55
f 36 42 43
f 37 56 38
f 38 56 57
f 38 57 58
f 38 58 39
f 39 58 59
f 39 59 60
f 39 60 40
f 40 60 61
f 40 61 41
f 41 62 42
f 41 61 63
f 41 63 62
f 42 64 65
f 42 65 43
f 42 62 64
f 44 66 45
f 45 66 67
f 45 67 68
f 46 69 47
f 47 69 70
f 47 70 71
f 47 71 72
f 47 72 48
f 50 73 51
f 51 74 75
f 51 75 52
f 51 73 74
f 52 76 53
f 52 75 76
f 53 76 77
f 53 77 78
f 53 78 54
f 54 78 79
f 54 79 80
f 54 80 81
f 54 81 55
f 57 82 58
f 58 82 83
f 58 83 84
f 58 84 59
f 59 84 85
f 59 85 86
f 59 86 87
f 59 87 60
f 60 87 88
f 60 88 61
f 61 88 89
f 61 89 63
f 62 63 90
f 62 90 91
f 62 91 92
f 62 92 64
f 63 89 93
f 63 93 90
f 64 92 65
f 65 92 94
f 67 95 96
f 67 96 97
f 67 97 68
f 68 97 98
f 69 99 70
f 70 99 100
f 70 100 101
f 70 101 102
f 70 102 103
f 70 103 71
f 71 104 105
f 71 105 72
f 71 103 104
f 73 106 74
f 74 107 75
f 74 106 108
f 74 108 109
f 74 109 110
f 74 110 107
f 75 107 111
f 75 111 76
f 76 112 77
f 76 111 112
f 77 113 114
f 77 114 78
f 77 112 113
f 78 114 115
f 78 115 79
f 79 116 80
f 79 115 117
f 79 117 118
f 79 118 116
f 82 119 83
f 83 119 120
f 83 120 121
f 83 121 84
f 84 121 85
f 85 121 122
f 85 122 123
f 85 123 124
f 85 124 86
f 86 124 87
f 87 124 125
f 87 125 126
f 87 126 88
f 88 126 127
f 88 127 89
f 89 127 128
f 89 128 93
f 90 129 130
f 90 130 91
f 90 93 131
f 90 131 129
f 91 130 92
f 92 130 132
f 92 132 133
f 92 133 134
f 92 134 94
f 93 128 135
f 93 135 131
f 95 136 96
f 96 137 138
f 96 138 97
f 96 136 139
f 96 139 140
f 96 140 137
f 97 138 141
f 97 141 98
f 98 141 142
f 101 143 102
f 102 144 103
f 102 143 145
f 102 145 146
f 102 146 144
f 103 144 147
f 103 147 104
f 104 148 149
f 104 149 150
f 104 150 151
f 104 151 152
f 104 152 105
f 104 147 148
f 107 110 153
f 107 153 154
f 107 154 111
f 109 155 110
f 110 155 156
f 110 156 153
f 111 154 112
f 112 154 157
f 112 157 113
f 113 158 159
f 113 159 114
f 113 157 158
f 114 159 123
f 114 123 115
f 115 123 122
f 115 122 117
f 117 122 160
f 120 161 121
f 121 161 162
f 121 162 122
f 122 162 160
f 123 159 124
f 124 159 163
f 124 163 125
f 125 163 126
f 126 163 164
f 126 164 165
f 126 165 127
f 127 165 166
f 127 166 128
f 128 166 167
f 128 167 135
f 129 131 168
f 129 168 169
f 129 169 130
f 130 169 170
f 130 170 171
f 130 171 132
f 131 172 168
f 131 135 173
f 131 173 172
f 135 167 174
f 135 174 173
f 137 168 175
f 137 175 138
f 137 140 168
f 138 175 176
f 138 176 141
f 140 177 169
f 140 169 168
f 141 176 178
f 141 178 179
f 141 179 142
f 143 180 145
f 144 146 181
f 144 181 182
f 144 182 147
f 145 180 183
f 145 183 184
f 145 184 181
f 145 181 146
f 147 182 185
f 147 185 156
f 147 156 148
f 148 156 149
f 149 156 186
f 153 156 185
f 153 185 187
f 153 187 154
f 154 187 188
f 154 188 157
f 155 189 156
f 156 189 186
f 157 190 158
f 157 188 190
f 158 190 191
f 158 191 163
f 158 163 159
f 163 191 164
f 164 191 192
f 164 192 165
f 165 192 193
f 165 193 166
f 166 193 194
f 166 194 167
f 167 194 195
f 167 195 174
f 168 172 175
f 169 177 170
f 172 173 196
f 172 196 175
f 173 174 197
f 173 197 196
f 174 195 198
f 174 198 197
f 175 196 176
f 176 196 178
f 178 196 199
f 180 200 183
f 181 184 201
f 181 201 202
f 181 202 182
f 182 202 187
f 182 187 185
f 183 200 203
f 183 203 204
f 183 204 205
f 183 205 184
f 184 205 201
f 187 202 188
f 188 202 190
f 190 202 206
f 190 206 191
f 191 206 192
f 192 206 207
f 192 207 193
f 193 207 208
f 193 208 194
f 194 208 209
f 194 209 195
f 195 209 210
f 195 210 198
f 196 197 211
f 196 211 199
f 197 198 212
f 197 212 211
f 198 210 213
f 198 213 214
f 198 214 215
f 198 215 212
f 199 211 216
f 201 205 207
f 201 207 206
f 201 206 202
f 203 217 218
f 203 218 204
f 204 218 209
f 204 209 208
f 204 208 205
f 205 208 207
f 209 218 210
f 210 219 213
f 210 218 220
f 210 220 219
f 211 212 216
f 212 215 221
f 212 221 222
f 212 222 216
f 217 223 218
f 218 223 220

