# https://github.com/mikedh/trimesh
v 0.01881980 -0.01832305 -0.03425234
v 0.01882387 -0.01827961 -0.03424937
v 0.01882387 -0.01831925 -0.03425174
v 0.01882387 -0.01832305 -0.03419769
v 0.01791892 -0.01832305 -0.03421491
v 0.01882387 -0.01755305 -0.03420304
v 0.01882387 -0.01832305 -0.02818503
v 0.01714223 -0.01832305 -0.03409969
v 0.01875770 -0.01692966 -0.03415196
v 0.01882387 -0.01704641 -0.03416443
v 0.01882387 -0.01277665 -0.02818503
v 0.01362472 -0.01832305 -0.02818503
v 0.01688011 -0.01832305 -0.03399812
v 0.01882387 -0.01629759 -0.03396070
v 0.01882387 -0.01683464 -0.03414483
v 0.01882387 -0.01687916 -0.03415017
v 0.01882387 -0.01448228 -0.03261657
v 0.01503508 -0.01832305 -0.03246035
v 0.01646733 -0.01832305 -0.03382706
v 0.01882387 -0.01570081 -0.03372430
v 0.01882387 -0.01473641 -0.03302818
v 0.01535319 -0.01832305 -0.03307392
v 0.01507936 -0.01832305 -0.03257024
v 0.01589321 -0.01832305 -0.03354136
v 0.01882387 -0.01555582 -0.03365303
v 0.01882387 -0.01508068 -0.03334417
v 0.01545498 -0.01832305 -0.03320102
v 0.01582450 -0.01832305 -0.03350632
f 1 2 3
f 1 3 4
f 1 4 7
f 1 7 12
f 1 12 18
f 1 18 23
f 1 23 22
f 1 22 27
f 1 27 28
f 1 28 24
f 1 24 19
f 1 19 13
f 1 13 8
f 1 8 5
f 1 5 6
f 1 6 2
f 2 6 10
f 2 10 16
f 2 16 15
f 2 15 14
f 2 14 20
f 2 20 25
f 2 25 26
f 2 26 21
f 2 21 17
f 2 17 11
f 2 11 7
f 2 7 4
f 2 4 3
f 5 8 9
f 5 9 10
f 5 10 6
f 7 11 12
f 8 13 14
f 8 14 15
f 8 15 9
f 9 15 16
f 9 16 10
f 11 17 18
f 11 18 12
f 13 19 20
f 13 20 14
f 17 21 22
f 17 22 23
f 17 23 18
f 19 24 20
f 20 24 25
f 21 26 27
f 21 27 22
f 24 28 25
f 25 28 26
f 26 28 27

