# https://github.com/mikedh/trimesh
v -0.05862494 -0.00570703 0.05324585
v -0.06530184 -0.01036901 0.06567751
v -0.07354107 -0.00435233 0.06676496
v -0.05558921 0.00982752 0.05324585
v -0.05410734 0.00088061 0.05324585
v -0.03028725 -0.00710751 0.08034332
v -0.03279374 -0.01103154 0.09131941
v -0.06756276 -0.00854300 0.07203298
v -0.04283238 -0.01148131 0.08774816
v -0.05063975 -0.01138435 0.08289481
v -0.05945902 -0.01003235 0.07907392
v -0.07291022 0.00313754 0.06848712
v -0.07124205 0.01293281 0.06803013
v -0.06497583 -0.00532998 0.07757603
v -0.06842648 0.00000262 0.07468179
v -0.06423066 0.01549946 0.06634183
v -0.03028725 0.01429020 0.08297944
v -0.03028725 0.00249385 0.07649704
v -0.03154896 0.00914882 0.09641393
v -0.03327217 -0.00068685 0.09646894
v -0.04312453 -0.00523302 0.09238993
v -0.05669850 -0.00635879 0.08472699
v -0.06580991 0.01086710 0.07554076
v -0.05992899 0.01569875 0.07753795
v -0.06192740 0.00124420 0.08146886
v -0.03597765 0.01603272 0.09032081
v -0.04723990 0.01390776 0.08778201
v -0.04538968 0.00434141 0.09230954
v -0.03861539 0.00517631 0.09489065
v -0.05019095 -0.00486405 0.08906410
v -0.05330712 0.00351189 0.08795126
v -0.05867575 0.01026382 0.08285673
f 1 2 3
f 1 3 4
f 1 4 5
f 1 5 6
f 1 6 7
f 1 7 2
f 2 8 3
f 2 7 9
f 2 9 10
f 2 10 11
f 2 11 8
f 3 12 13
f 3 13 4
f 3 8 14
f 3 14 15
f 3 15 12
f 4 13 16
f 4 16 17
f 4 17 18
f 4 18 5
f 5 18 6
f 6 18 17
f 6 17 19
f 6 19 7
f 7 19 20
f 7 20 21
f 7 21 9
f 8 11 14
f 9 21 22
f 9 22 11
f 9 11 10
f 11 22 14
f 12 15 23
f 12 23 13
f 13 23 24
f 13 24 16
f 14 22 25
f 14 25 15
f 15 25 23
f 16 24 26
f 16 26 17
f 17 26 19
f 19 26 27
f 19 27 28
f 19 28 29
f 19 29 20
f 20 29 28
f 20 28 21
f 21 28 30
f 21 30 22
f 22 30 31
f 22 31 25
f 23 25 32
f 23 32 24
f 24 32 27
f 24 27 26
f 25 31 32
f 27 32 28
f 28 31 30
f 28 32 31

