# https://github.com/mikedh/trimesh
v 0.02170797 0.04649155 0.11068864
v -0.01783119 0.02200876 0.09421884
v 0.00626732 0.04277633 0.11213733
v 0.01813959 0.03938640 0.12022283
v 0.04272600 0.03121977 0.12020171
v 0.03897586 0.04153507 0.10854579
v -0.01858696 -0.01612789 0.09421884
v -0.02203097 0.01052068 0.09421884
v -0.03323358 0.00837202 0.12179224
v -0.00798706 0.03603072 0.11136469
v 0.06348574 0.01260086 0.11152768
v 0.02209064 0.02254807 0.12366045
v 0.03030843 0.03442137 0.12104980
v -0.01675016 0.01495498 0.12449646
v 0.04117620 0.01766007 0.12278520
v 0.04996799 0.00749886 0.12192504
v 0.05595674 0.02601504 0.11308804
v 0.01595838 -0.04096166 0.11181440
v -0.00521272 -0.03352265 0.11125001
v -0.02259541 -0.00697681 0.12449044
v -0.02230841 -0.00354408 0.09421884
v 0.05011149 -0.02835216 0.11188381
v 0.03243224 -0.03990873 0.11174196
v 0.06449981 -0.00301333 0.11318159
v 0.02742885 0.00669418 0.12505180
v -0.01489422 0.00249101 0.12497031
v 0.03834445 -0.00488807 0.12413731
v 0.05598545 -0.01201033 0.11962525
v 0.00922343 -0.03454134 0.12062122
v 0.02442491 -0.02605797 0.12259506
v 0.02531461 -0.00870601 0.12497333
v 0.04023866 -0.01765165 0.12270070
f 1 2 3
f 1 3 4
f 1 4 5
f 1 5 6
f 1 6 2
f 2 7 21
f 2 21 8
f 2 8 9
f 2 9 10
f 2 10 3
f 2 6 11
f 2 11 7
f 3 10 4
f 4 12 13
f 4 13 5
f 4 10 14
f 4 14 12
f 5 15 16
f 5 16 17
f 5 17 6
f 5 13 15
f 6 17 11
f 7 18 19
f 7 19 20
f 7 20 9
f 7 9 21
f 7 11 22
f 7 22 23
f 7 23 18
f 8 21 9
f 9 20 14
f 9 14 10
f 11 24 22
f 11 17 16
f 11 16 24
f 12 14 25
f 12 25 15
f 12 15 13
f 14 20 26
f 14 26 25
f 15 25 27
f 15 27 16
f 16 27 28
f 16 28 24
f 18 23 29
f 18 29 19
f 19 29 20
f 20 29 30
f 20 30 31
f 20 31 26
f 22 24 28
f 22 28 32
f 22 32 23
f 23 32 30
f 23 30 29
f 25 31 27
f 25 26 31
f 27 31 32
f 27 32 28
f 30 32 31

