# https://github.com/mikedh/trimesh
v -0.02748014 -0.01567244 -0.02617205
v -0.02897924 -0.01464354 -0.02617205
v -0.03026586 -0.01362268 -0.02617205
v -0.01680351 -0.01990687 -0.02438760
v -0.01977809 -0.01881353 -0.02438760
v -0.01557590 -0.02024715 -0.02438760
v -0.01220589 -0.02110894 -0.02438760
v -0.02092898 -0.01836250 -0.02438760
v -0.01027005 -0.02142305 -0.01299552
v -0.00981560 -0.02162641 -0.01299552
v -0.01138552 -0.02083711 -0.01299552
v -0.01103730 -0.02104048 -0.01299552
v -0.01880427 -0.01446836 -0.01299552
v -0.01928233 -0.01385424 -0.01299552
v -0.01954792 -0.01349986 -0.01299552
v -0.01516867 -0.01828196 -0.01299552
v -0.01574706 -0.01778664 -0.01299552
v -0.01586510 -0.01768193 -0.01299552
v -0.01598314 -0.01756716 -0.01299552
v -0.03159971 -0.01246290 -0.02617205
v -0.03276239 -0.01136352 -0.02617205
v -0.03511727 -0.00885871 -0.02617205
v -0.03377162 -0.01031649 -0.02617205
v -0.03559533 -0.00830096 -0.02617205
v -0.03646292 -0.00721970 -0.02617205
v -0.03701770 -0.00641430 -0.02617205
v -0.03727739 -0.00591293 -0.02617205
v -0.03672260 -0.00638611 -0.02583336
v -0.03531794 -0.00591293 -0.02650403
v -0.03671080 -0.00591293 -0.02556429
v -0.03531794 -0.00450347 -0.02571824
v -0.03531794 -0.00450750 -0.02368614
v -0.03504645 -0.00450347 -0.02346659
v -0.03422608 -0.00450347 -0.02279726
v -0.03148757 -0.00450347 -0.02111991
v -0.03132231 -0.00450347 -0.02102486
v -0.02856610 -0.00450347 -0.01966745
v -0.02798771 -0.00450347 -0.01940909
v -0.02566824 -0.00450347 -0.01839705
v -0.02501313 -0.00450347 -0.01815743
v -0.01980760 -0.01307904 -0.01299552
v -0.02190870 -0.00915067 -0.01299552
v -0.02210936 -0.00869762 -0.01299552
v -0.02221560 -0.00843385 -0.01299552
v -0.02236315 -0.00795464 -0.01299552
v -0.02287072 -0.00591293 -0.01299552
v -0.00638066 -0.02230899 -0.02605959
v -0.00509404 -0.02241772 -0.02605959
v -0.00230241 -0.02263921 -0.02605959
v 0.00025904 -0.02264525 -0.02605959
v 0.00283819 -0.02261706 -0.02605959
v 0.00283819 -0.02111296 -0.02605959
v -0.00616819 -0.02292311 -0.01299552
v -0.00569013 -0.02306809 -0.01299552
v -0.00364806 -0.02343253 -0.01299552
v -0.00001245 -0.02376275 -0.01299552
v 0.00132139 -0.02372449 -0.01299552
v 0.00147484 -0.02371443 -0.01299552
v 0.00904114 -0.02171098 -0.01500085
v 0.00924771 -0.02162641 -0.01500085
v 0.00509864 -0.02317279 -0.01299552
v 0.00567113 -0.02306809 -0.01299552
v 0.00751844 -0.02253450 -0.01299552
v 0.01019793 -0.02142707 -0.01283087
v 0.01019793 -0.02112706 -0.01500085
v 0.01105371 -0.02106464 -0.01283087
v 0.01144324 -0.02083912 -0.01283087
v 0.01252330 -0.01964108 -0.01614809
v 0.01264723 -0.01983639 -0.01500085
v 0.01330825 -0.01967531 -0.01283087
v 0.01712682 -0.01506839 -0.01882007
v 0.01775833 -0.01457709 -0.01882007
v 0.01850010 -0.01390389 -0.01882007
v 0.01850010 -0.01374229 -0.01903275
v 0.01850010 -0.01357937 -0.01919838
v 0.01850010 -0.01401470 -0.01843199
v 0.01850010 -0.01406686 -0.01823800
v 0.01850010 -0.01415447 -0.01783055
v 0.01850010 -0.01425637 -0.01733385
v 0.01850010 -0.01444847 -0.01626518
v 0.01019793 -0.01582346 -0.01283087
v 0.01586380 -0.01736581 -0.01500085
v 0.01571035 -0.01719869 -0.01614809
v 0.01714453 -0.01610132 -0.01500085
v 0.01577527 -0.01780878 -0.01283087
v 0.01589921 -0.01769603 -0.01283087
v 0.01720944 -0.01641745 -0.01283087
v 0.01733929 -0.01628657 -0.01283087
v 0.01850010 -0.01465724 -0.01490112
v 0.01850010 -0.01486343 -0.01283087
v 0.01850010 -0.01471496 -0.01437880
v 0.01850010 -0.01293179 -0.01971082
v 0.01850010 -0.01238223 -0.02008961
v 0.01850010 -0.01182120 -0.02044058
v 0.01850010 -0.00720712 -0.02044058
v 0.01019793 -0.00319670 -0.01882007
v 0.01850010 -0.00340702 -0.01941504
v 0.01850010 -0.00329788 -0.01935419
v 0.01850010 -0.00319670 -0.01882007
v 0.01019793 -0.00319670 -0.01284157
v 0.01850010 -0.00327978 -0.01283087
v 0.01850010 -0.00319670 -0.01283094
f 1 16 2
f 3 2 16
f 3 17 20
f 18 21 20
f 1 47 4
f 6 47 7
f 4 47 6
f 5 10 8
f 6 7 54
f 5 4 10
f 4 6 54
f 1 5 8
f 1 4 5
f 1 29 47
f 29 48 47
f 29 49 48
f 29 50 49
f 29 51 50
f 29 52 51
f 1 8 9
f 1 12 11
f 4 54 53
f 4 53 10
f 8 10 9
f 1 9 12
f 3 16 17
f 1 11 16
f 18 20 17
f 18 19 21
f 19 13 22
f 15 14 64
f 15 64 41
f 41 64 42
f 1 2 29
f 3 29 2
f 21 23 29
f 23 22 29
f 3 20 29
f 20 21 29
f 15 28 25
f 28 41 30
f 19 23 21
f 19 22 23
f 13 24 22
f 13 25 24
f 24 25 29
f 22 24 29
f 25 26 29
f 25 28 26
f 26 27 29
f 26 28 27
f 27 28 30
f 27 31 29
f 27 30 32
f 27 32 31
f 32 34 33
f 30 43 32
f 32 46 34
f 29 31 97
f 31 32 100
f 32 33 100
f 33 34 100
f 15 25 14
f 15 41 28
f 13 14 25
f 30 41 42
f 30 42 43
f 32 45 46
f 32 43 44
f 32 44 45
f 34 46 35
f 35 46 36
f 36 46 37
f 37 46 38
f 38 46 39
f 39 46 40
f 42 64 43
f 44 43 64
f 44 64 45
f 45 64 46
f 34 35 100
f 35 36 100
f 36 37 100
f 37 38 100
f 38 39 100
f 39 40 100
f 40 46 100
f 47 48 56
f 48 49 56
f 7 47 54
f 49 50 56
f 50 51 56
f 51 71 68
f 51 52 94
f 51 92 75
f 51 75 74
f 51 72 71
f 51 74 72
f 51 93 92
f 51 94 93
f 47 55 54
f 47 56 55
f 51 57 56
f 51 58 57
f 51 61 58
f 51 62 61
f 9 10 64
f 9 64 12
f 16 64 17
f 18 17 64
f 18 64 19
f 11 64 16
f 12 64 11
f 54 55 64
f 10 53 64
f 53 54 64
f 55 56 64
f 56 57 64
f 57 58 64
f 19 64 13
f 13 64 14
f 46 64 81
f 51 60 59
f 51 59 63
f 51 65 60
f 51 69 65
f 51 63 62
f 51 68 69
f 58 61 64
f 61 62 64
f 62 63 64
f 63 59 60
f 60 65 66
f 63 60 64
f 60 66 64
f 65 69 66
f 68 83 69
f 69 67 66
f 69 70 67
f 69 85 70
f 68 71 83
f 82 83 77
f 72 74 73
f 72 73 76
f 71 72 83
f 72 76 83
f 83 76 77
f 84 77 78
f 84 78 79
f 69 83 82
f 69 82 85
f 82 86 85
f 82 84 87
f 82 87 86
f 84 88 87
f 82 77 84
f 84 79 80
f 84 80 88
f 88 80 89
f 64 66 101
f 66 67 101
f 64 101 81
f 67 70 101
f 88 89 91
f 88 91 90
f 70 85 101
f 29 97 52
f 31 98 97
f 31 96 98
f 52 95 94
f 52 97 95
f 31 100 96
f 46 81 100
f 85 86 101
f 86 87 101
f 87 88 101
f 88 90 101
f 96 99 98
f 96 100 99
f 81 101 100
f 100 102 99
f 100 101 102
f 75 92 101
f 74 101 73
f 73 101 76
f 76 101 77
f 77 101 78
f 74 75 101
f 92 93 101
f 93 94 101
f 91 101 90
f 78 101 79
f 80 79 101
f 80 101 89
f 89 101 91
f 95 101 94
f 95 97 101
f 98 101 97
f 98 99 101
f 101 99 102

