# https://github.com/mikedh/trimesh
v -0.02485280 -0.01399966 -0.05162896
v -0.02485280 -0.01400823 -0.04314610
v -0.02485280 -0.01400823 -0.04165131
v -0.02485280 -0.01399966 -0.03918474
v -0.02403265 -0.01399844 -0.02618347
v -0.02485280 -0.00591336 -0.05162896
v -0.01573168 -0.00591092 -0.05779071
v -0.01573168 -0.00399954 -0.05780000
v -0.01573168 -0.00150166 -0.05780000
v -0.01573168 -0.00150166 -0.05489707
v -0.02485280 -0.00591336 -0.03918474
v -0.02403265 -0.00591336 -0.02618347
v -0.01573168 -0.00400077 -0.02618657
v 0.00674854 -0.01400823 -0.05162896
v 0.00824814 -0.01400823 -0.05162896
v 0.00896191 -0.01399966 -0.05162896
v 0.01020414 -0.01400823 -0.04314610
v 0.01020414 -0.01400823 -0.04165131
v 0.00896534 -0.01399844 -0.02618347
v 0.00896191 -0.00591092 -0.05779071
v 0.01020414 -0.00450034 -0.05779071
v 0.01020414 -0.00399954 -0.05780000
v 0.01020414 -0.00150166 -0.05780000
v 0.01020414 -0.00150166 -0.05424097
v 0.00449743 -0.00150166 -0.04396003
v 0.01020071 -0.00150166 -0.04396003
v 0.00896534 -0.00591336 -0.02618347
v 0.01020414 -0.00450034 -0.03736500
v 0.01020414 -0.00399097 -0.03736500
v 0.00896191 -0.00400077 -0.02618657
f 1 2 3
f 1 3 4
f 1 4 11
f 1 6 8
f 1 8 7
f 1 11 6
f 1 7 14
f 1 14 2
f 2 14 3
f 3 5 4
f 4 5 11
f 5 12 11
f 3 19 5
f 5 19 12
f 6 9 8
f 9 11 10
f 6 11 9
f 7 8 20
f 9 10 25
f 10 11 12
f 10 12 13
f 12 30 13
f 10 13 25
f 7 15 14
f 3 14 18
f 7 20 15
f 15 20 16
f 14 15 17
f 15 16 17
f 14 17 18
f 16 21 17
f 16 20 21
f 17 22 18
f 3 18 19
f 12 19 27
f 18 28 19
f 19 28 27
f 8 22 20
f 8 9 23
f 9 25 26
f 17 21 22
f 20 22 21
f 18 22 28
f 8 23 22
f 9 24 23
f 9 26 24
f 22 23 24
f 22 24 29
f 22 29 28
f 24 26 29
f 12 27 30
f 13 26 25
f 13 30 26
f 27 28 29
f 27 29 30
f 26 30 29

