# https://github.com/mikedh/trimesh
v 0.01850010 -0.00924050 -0.02382119
v 0.02580062 -0.01399065 -0.02577417
v 0.02301857 -0.01399065 -0.02346041
v 0.02301857 -0.01399065 -0.02145772
v 0.02570100 -0.01399065 -0.02320592
v 0.02617480 -0.01358735 -0.02321923
v 0.01850010 -0.01154208 -0.01939673
v 0.01850010 -0.01154208 -0.01914831
v 0.01850010 -0.01119534 -0.01882127
v 0.02101647 -0.01119534 -0.01882127
v 0.01850010 -0.00768503 -0.02516988
v 0.01850010 -0.00349990 -0.02597637
v 0.02150935 -0.00349990 -0.02672632
v 0.01850010 -0.00419005 -0.01371466
v 0.01850010 -0.00349990 -0.01321179
v 0.01856314 -0.00349990 -0.01321157
v 0.02293601 -0.00349990 -0.01321157
v 0.02301385 -0.00349990 -0.01322884
v 0.02309121 -0.00349990 -0.01327925
v 0.02310840 -0.00349990 -0.01329108
v 0.02321571 -0.00349990 -0.01337605
v 0.02384210 -0.00349990 -0.01389208
v 0.02391795 -0.00349990 -0.01395473
v 0.02511488 -0.00349990 -0.01495761
v 0.02841502 -0.01399065 -0.02577417
v 0.02868958 -0.01376814 -0.02577417
v 0.02795337 -0.01399065 -0.02517535
v 0.02826924 -0.01372989 -0.02518534
v 0.02826437 -0.01128574 -0.02316267
v 0.03109259 -0.01131008 -0.02577417
v 0.03313114 -0.00897022 -0.02577417
v 0.03057991 -0.01128226 -0.02512213
v 0.03231475 -0.00894241 -0.02480609
v 0.02958075 -0.00349990 -0.02832801
v 0.03449990 -0.00761323 -0.02911924
v 0.03449990 -0.00761865 -0.02910670
v 0.03449990 -0.00763005 -0.02892226
v 0.03449990 -0.00745688 -0.02920125
v 0.03449990 -0.00763005 -0.02609978
v 0.03449990 -0.00759168 -0.02604567
v 0.03449990 -0.00692278 -0.02930417
v 0.03449990 -0.00671719 -0.02930417
v 0.03449990 -0.00645872 -0.02924014
v 0.03449990 -0.00640542 -0.02922522
v 0.03449990 -0.00637201 -0.02921583
v 0.03449990 -0.00742665 -0.02588916
v 0.03449990 -0.00722773 -0.02570955
v 0.03449990 -0.00689050 -0.02541755
v 0.03449990 -0.00680530 -0.02534443
v 0.03331337 -0.00706149 -0.02426882
v 0.03345915 -0.00678683 -0.02419230
v 0.03191580 -0.00349990 -0.02841303
v 0.03216850 -0.00349990 -0.02841291
v 0.03230701 -0.00349990 -0.02841266
v 0.03449990 -0.00530836 -0.02887167
v 0.03449990 -0.00482414 -0.02871144
v 0.03449990 -0.00455318 -0.02861866
v 0.03395686 -0.00349990 -0.02831775
v 0.03449990 -0.00393121 -0.02839615
v 0.03418832 -0.00349990 -0.02829878
v 0.03449990 -0.00368203 -0.02830209
v 0.03427884 -0.00349990 -0.02828693
v 0.03442736 -0.00349990 -0.02825664
v 0.03447153 -0.00349990 -0.02824245
v 0.03449990 -0.00349990 -0.02822928
v 0.03449990 -0.00548231 -0.02430608
v 0.03398883 -0.00481551 -0.02329075
v 0.03449990 -0.00481893 -0.02381925
v 0.03390397 -0.00349990 -0.02243740
v 0.03449990 -0.00392285 -0.02325626
v 0.03449990 -0.00349990 -0.02300804
f 1 3 7
f 3 4 7
f 11 2 3
f 11 3 1
f 2 4 3
f 2 5 4
f 2 27 5
f 4 8 7
f 4 10 8
f 8 10 9
f 4 18 10
f 4 5 19
f 5 6 19
f 6 29 20
f 11 13 2
f 11 12 13
f 9 10 16
f 9 16 14
f 14 16 15
f 10 17 16
f 10 18 17
f 4 19 18
f 6 20 19
f 29 21 20
f 29 22 21
f 2 25 27
f 27 25 26
f 27 26 28
f 28 26 30
f 28 30 32
f 2 38 25
f 5 27 28
f 5 28 6
f 6 28 32
f 6 32 29
f 29 32 33
f 25 35 26
f 26 36 30
f 30 31 32
f 2 41 38
f 25 38 35
f 26 35 36
f 30 36 37
f 30 37 39
f 30 39 31
f 29 33 50
f 31 33 32
f 2 13 41
f 41 13 34
f 31 46 33
f 46 47 33
f 31 39 40
f 31 40 46
f 47 50 33
f 48 51 50
f 47 48 50
f 48 49 51
f 49 66 51
f 42 34 52
f 41 34 42
f 42 52 43
f 43 52 44
f 44 53 45
f 45 54 55
f 44 52 53
f 45 53 54
f 55 60 56
f 56 62 57
f 55 54 58
f 55 58 60
f 57 63 59
f 56 60 62
f 57 62 63
f 59 64 61
f 59 63 64
f 61 64 65
f 51 66 67
f 66 68 67
f 67 68 70
f 67 70 69
f 70 71 69
f 29 50 22
f 50 23 22
f 51 24 23
f 50 51 23
f 51 67 24
f 67 69 24
f 7 8 9
f 1 7 9
f 11 14 12
f 1 9 14
f 11 1 14
f 14 15 12
f 35 39 36
f 36 39 37
f 38 39 35
f 38 41 39
f 41 42 39
f 42 43 39
f 43 44 39
f 44 45 39
f 45 55 39
f 55 40 39
f 55 46 40
f 55 47 46
f 55 48 47
f 48 56 49
f 55 56 48
f 49 56 57
f 49 57 66
f 66 57 59
f 66 59 61
f 61 65 71
f 66 61 71
f 66 71 68
f 68 71 70
f 16 34 12
f 12 34 13
f 12 15 16
f 17 34 16
f 17 18 34
f 18 19 34
f 20 21 34
f 19 20 34
f 21 22 34
f 22 23 34
f 23 24 34
f 24 69 34
f 34 71 52
f 52 71 53
f 53 71 54
f 54 71 58
f 71 60 58
f 71 62 60
f 71 63 62
f 71 64 63
f 71 65 64
f 69 71 34

