# https://github.com/mikedh/trimesh
v 0.01850010 -0.00349990 -0.01944011
v 0.01850010 -0.00340702 -0.01941504
v 0.01850010 -0.00349990 -0.01283087
v 0.01850010 -0.00329788 -0.01935419
v 0.01850010 -0.00319670 -0.01882007
v 0.01850010 -0.00327978 -0.01283087
v 0.01850010 -0.00319670 -0.01283094
v 0.01855509 -0.00319670 -0.01283087
v 0.02267548 -0.00349990 -0.01894258
v 0.02301697 -0.00349990 -0.01882007
v 0.02301697 -0.00349990 -0.01283087
v 0.02301697 -0.00319670 -0.01882007
v 0.02301697 -0.00319670 -0.01283087
f 1 2 12
f 3 11 6
f 2 4 12
f 4 5 12
f 5 7 12
f 6 8 7
f 6 11 8
f 7 8 13
f 1 12 9
f 9 12 10
f 10 13 11
f 10 12 13
f 8 11 13
f 7 13 12
f 1 3 2
f 2 3 4
f 3 5 4
f 3 7 5
f 3 6 7
f 1 11 3
f 1 9 11
f 9 10 11

