# https://github.com/mikedh/trimesh
v 0.01850010 0.01649990 -0.02273566
v 0.01850010 0.01649990 -0.01335831
v 0.01850010 0.01771528 -0.01374545
v 0.01850010 0.01772979 -0.01375404
v 0.01850010 0.01805570 -0.01394770
v 0.01850010 0.01814765 -0.01400358
v 0.01850010 0.01793159 -0.01387378
v 0.01850010 0.02098376 -0.02128483
v 0.01850010 0.02099848 -0.02127989
v 0.01850010 0.02106331 -0.02121829
v 0.01850010 0.02106517 -0.02121508
v 0.01850010 0.02106837 -0.02118688
v 0.01850010 0.02107193 -0.01843268
v 0.02203453 0.02087765 -0.02099696
v 0.02301857 0.02081855 -0.02099696
v 0.02314492 0.02080812 -0.02099696
v 0.01850010 0.01935630 -0.01484328
v 0.01850010 0.02106869 -0.01797054
v 0.01850010 0.02106649 -0.01791629
v 0.01850010 0.02053162 -0.01588291
v 0.01850010 0.02066946 -0.01605777
v 0.01850010 0.02071594 -0.01611960
v 0.01850010 0.02098361 -0.01680511
v 0.01850010 0.02096411 -0.01670987
v 0.01850010 0.02081118 -0.01626920
v 0.01850010 0.02002502 -0.01540200
v 0.01850010 0.02016328 -0.01552681
v 0.02795133 0.01649990 -0.02219194
v 0.02869963 0.01649990 -0.01877734
v 0.02948254 0.01649990 -0.02206646
v 0.03008140 0.01649990 -0.02198809
v 0.03106393 0.01649990 -0.02178769
v 0.03135609 0.01649990 -0.02169384
v 0.03194776 0.01649990 -0.02141920
v 0.03220009 0.01649990 -0.02122772
v 0.03239990 0.01649990 -0.02099696
v 0.03164859 0.01649990 -0.02048239
v 0.03212037 0.01716449 -0.02099696
v 0.03055567 0.01649990 -0.01976349
v 0.03178506 0.01774511 -0.02099696
v 0.03102456 0.01862820 -0.02099696
v 0.03066981 0.01779030 -0.02023514
v 0.02883050 0.01881247 -0.01986753
v 0.02642020 0.02046392 -0.02099696
v 0.02677981 0.02040134 -0.02099696
v 0.02867500 0.01993198 -0.02099696
v 0.03065280 0.01894458 -0.02099696
v 0.02942093 0.01964689 -0.02099696
f 45 28 1
f 3 2 29
f 7 4 43
f 7 43 5
f 6 5 43
f 17 6 43
f 3 42 4
f 8 45 1
f 11 12 14
f 11 15 10
f 9 10 16
f 9 44 8
f 11 14 15
f 10 15 16
f 12 13 14
f 14 13 18
f 15 18 19
f 16 19 23
f 14 18 15
f 15 19 16
f 44 23 24
f 9 16 44
f 8 44 45
f 16 23 44
f 25 46 45
f 44 24 45
f 26 43 27
f 20 27 43
f 17 43 26
f 25 22 46
f 24 25 45
f 21 20 48
f 22 21 48
f 46 30 28
f 48 31 30
f 47 32 31
f 38 35 34
f 38 36 35
f 38 37 36
f 40 34 33
f 41 33 32
f 38 42 37
f 40 33 41
f 40 42 38
f 40 38 34
f 42 29 39
f 42 39 37
f 46 48 30
f 48 47 31
f 47 41 32
f 40 41 42
f 41 43 42
f 3 29 42
f 4 42 43
f 45 46 28
f 20 43 48
f 22 48 46
f 48 43 47
f 47 43 41
f 8 1 2
f 3 4 2
f 7 2 4
f 7 5 2
f 6 2 5
f 17 2 6
f 17 26 2
f 9 8 2
f 9 2 10
f 11 10 2
f 11 2 12
f 12 2 13
f 13 2 18
f 18 2 19
f 19 2 23
f 26 27 2
f 20 2 27
f 22 2 21
f 25 2 22
f 21 2 20
f 24 2 25
f 24 23 2
f 2 1 29
f 29 1 28
f 29 28 30
f 29 30 31
f 31 32 39
f 32 33 39
f 33 37 39
f 33 34 37
f 34 35 37
f 35 36 37
f 29 31 39

