# https://github.com/mikedh/trimesh
v 0.01850010 0.01649990 -0.03776490
v 0.01850010 0.01685795 -0.03773547
v 0.01936507 0.01649990 -0.03761455
v 0.01850010 0.01810902 -0.03739785
v 0.01850010 0.01859824 -0.03715901
v 0.01850010 0.01860049 -0.03715776
v 0.01850010 0.01649990 -0.02228927
v 0.01850010 0.01676614 -0.02228927
v 0.01907228 0.01649990 -0.02238350
v 0.01850010 0.01834287 -0.02230897
v 0.01850010 0.01846379 -0.02231580
v 0.02166414 0.01649990 -0.02282538
v 0.02201293 0.01649990 -0.02289379
v 0.01850010 0.01880577 -0.03696493
v 0.01850010 0.02073240 -0.03387547
v 0.01850010 0.02073639 -0.03384226
v 0.01850010 0.02079994 -0.03209314
v 0.01850010 0.01908990 -0.02235704
v 0.01850010 0.01964539 -0.02247523
v 0.01850010 0.02079994 -0.02728925
v 0.01850010 0.02076933 -0.02622085
v 0.01850010 0.01995172 -0.02269997
v 0.01850010 0.02016125 -0.02288805
v 0.01850010 0.02015854 -0.02288348
v 0.01850010 0.02071286 -0.02560481
v 0.01850010 0.02059203 -0.02478910
v 0.01850010 0.02058285 -0.02473935
v 0.01850010 0.02059928 -0.02483027
v 0.02604354 0.01790733 -0.03529897
v 0.02622000 0.01837542 -0.03479904
v 0.02617861 0.01839172 -0.03479904
v 0.02733130 0.01649990 -0.03561098
v 0.02840242 0.01649990 -0.03529897
v 0.02904289 0.01649990 -0.03497469
v 0.02911831 0.01649990 -0.03492665
v 0.02928026 0.01649990 -0.03479904
v 0.02920227 0.01659620 -0.03479904
v 0.02913474 0.01665209 -0.03479904
v 0.02441529 0.01649990 -0.02337752
v 0.02604354 0.01790733 -0.02450214
v 0.02622000 0.01837542 -0.02500207
v 0.02617861 0.01839172 -0.02500207
v 0.02802272 0.01649990 -0.02433593
v 0.02840242 0.01649990 -0.02450214
v 0.02904289 0.01649990 -0.02482642
v 0.02928026 0.01649990 -0.02500207
v 0.02911831 0.01649990 -0.02487446
v 0.02920227 0.01659620 -0.02500207
v 0.02913474 0.01665209 -0.02500207
f 2 3 1
f 2 4 3
f 4 5 29
f 5 6 29
f 6 14 29
f 4 32 3
f 14 31 29
f 8 7 9
f 8 9 10
f 10 9 12
f 10 12 13
f 10 13 11
f 11 39 18
f 11 13 39
f 18 39 43
f 18 43 19
f 14 15 31
f 15 16 31
f 16 17 31
f 17 42 31
f 19 40 22
f 22 40 24
f 23 24 42
f 27 23 42
f 17 20 42
f 20 21 42
f 21 25 42
f 26 27 42
f 25 28 42
f 28 26 42
f 24 41 42
f 24 40 41
f 4 29 32
f 29 31 30
f 31 41 30
f 29 33 32
f 29 38 33
f 38 34 33
f 38 35 34
f 37 36 35
f 38 37 35
f 37 48 36
f 38 48 37
f 30 49 38
f 29 30 38
f 31 42 41
f 19 43 40
f 48 46 36
f 38 49 48
f 40 43 44
f 40 44 49
f 49 44 45
f 49 45 47
f 48 47 46
f 49 47 48
f 30 41 49
f 40 49 41
f 2 1 7
f 2 7 4
f 4 7 5
f 5 7 6
f 6 7 14
f 20 7 8
f 8 10 25
f 14 7 15
f 15 7 16
f 16 7 17
f 17 7 20
f 25 10 11
f 20 8 21
f 21 8 25
f 27 11 18
f 25 11 28
f 26 11 27
f 28 11 26
f 27 18 19
f 27 19 22
f 27 22 24
f 27 24 23
f 1 3 7
f 7 3 32
f 7 12 9
f 7 36 12
f 33 7 32
f 33 34 7
f 7 34 35
f 7 35 36
f 13 12 36
f 13 36 39
f 43 39 36
f 45 36 47
f 47 36 46
f 43 36 44
f 44 36 45

