# https://github.com/mikedh/trimesh
v 0.01020414 0.01600505 -0.09599442
v 0.01020414 0.01650186 -0.09599442
v 0.01400207 0.01600505 -0.09599442
v 0.01418675 0.01600505 -0.09598326
v 0.01422805 0.01600505 -0.09597210
v 0.01020414 0.01600505 -0.06245615
v 0.01020414 0.01799989 -0.05952692
v 0.01020657 0.01798975 -0.04092492
v 0.01020414 0.01849923 -0.09475578
v 0.01026975 0.01849923 -0.09499569
v 0.01020414 0.01850557 -0.09242913
v 0.01100115 0.01849923 -0.09571545
v 0.01200227 0.01849923 -0.09599442
v 0.01020657 0.02259663 -0.09106216
v 0.01020657 0.02273731 -0.08924325
v 0.01020657 0.02280195 -0.08686639
v 0.01020657 0.02286278 -0.08442257
v 0.01149685 0.02291854 -0.08686639
v 0.01020657 0.02297938 -0.07942336
v 0.01020657 0.02302754 -0.07706881
v 0.01020657 0.02307190 -0.07478681
v 0.01020657 0.02315047 -0.07038459
v 0.01020657 0.02318342 -0.06826439
v 0.01161348 0.02316822 -0.07709113
v 0.01160376 0.02332790 -0.06829787
v 0.01400207 0.01849923 -0.09599442
v 0.01306656 0.02287799 -0.09092825
v 0.01249797 0.02294389 -0.08883595
v 0.01291348 0.02311372 -0.08433330
v 0.01347722 0.02295276 -0.09083898
v 0.01433497 0.02329749 -0.08185043
v 0.01298638 0.02324552 -0.07944567
v 0.01302282 0.02335072 -0.07481470
v 0.01302525 0.02343183 -0.07043481
v 0.01020414 0.01850557 -0.05952692
v 0.01020657 0.01855880 -0.04092492
v 0.01020657 0.02321384 -0.06627251
v 0.01020657 0.02327087 -0.06213812
v 0.01020657 0.02331016 -0.05877927
v 0.01020657 0.02334818 -0.05453328
v 0.01117367 0.02345844 -0.05333369
v 0.01146769 0.02342169 -0.06044753
v 0.01020657 0.02335959 -0.05325000
v 0.01020657 0.02336719 -0.05213968
v 0.01020657 0.02339127 -0.04734133
v 0.01020657 0.02339381 -0.04670526
v 0.01069012 0.02344450 -0.04674990
v 0.01020900 0.02339381 -0.04092492
v 0.01020657 0.02339381 -0.04093050
v 0.01038638 0.02341282 -0.04092492
v 0.01048601 0.02342296 -0.04092492
v 0.01075816 0.02344957 -0.04092492
v 0.01102302 0.02347238 -0.04092492
v 0.01135348 0.02351040 -0.04681128
v 0.01217722 0.02358264 -0.04847396
v 0.01201927 0.02357504 -0.04687265
v 0.01299124 0.02349393 -0.06631157
v 0.01292077 0.02354082 -0.06240035
v 0.01265348 0.02358771 -0.05515260
v 0.01281142 0.02357124 -0.05868999
v 0.01413572 0.02370305 -0.05698267
v 0.01244451 0.02359152 -0.05175470
v 0.01368133 0.02370811 -0.05020918
v 0.01352581 0.02370178 -0.04858555
v 0.01335572 0.02369417 -0.04697866
v 0.01850010 0.01518319 -0.08794718
v 0.01850010 0.01498637 -0.08634036
v 0.01850010 0.01497856 -0.08627538
v 0.01850010 0.01494402 -0.08595743
v 0.01850010 0.01341365 -0.06987566
v 0.01850010 0.01361692 -0.07257282
v 0.01850010 0.01349999 -0.07115353
v 0.01850010 0.01434756 -0.08031513
v 0.01850010 0.01610761 -0.09536432
v 0.01850010 0.01610683 -0.09536016
v 0.01850010 0.01658997 -0.09561606
v 0.01850010 0.01662486 -0.09562760
v 0.01850010 0.01679352 -0.09562760
v 0.01600917 0.01799862 -0.03900558
v 0.01850010 0.01279472 -0.06063062
v 0.01850010 0.01279472 -0.04727547
v 0.01850010 0.01349509 -0.03968257
v 0.01850010 0.01552812 -0.03900558
v 0.01503478 0.02307443 -0.09033125
v 0.01565927 0.02331903 -0.08431098
v 0.01596787 0.02319103 -0.08860161
v 0.01442974 0.02351801 -0.07261081
v 0.01576132 0.02346478 -0.07944009
v 0.01581964 0.02357884 -0.07482586
v 0.01600674 0.02349013 -0.07903837
v 0.01583665 0.02366502 -0.07046271
v 0.01850010 0.01878066 -0.09562440
v 0.01695198 0.02330256 -0.08683291
v 0.01850010 0.02222138 -0.09163744
v 0.01850010 0.02314387 -0.09042434
v 0.01850010 0.02321054 -0.09026646
v 0.01850010 0.02320917 -0.09027731
v 0.01850010 0.02322263 -0.09001997
v 0.01779272 0.02326834 -0.08853465
v 0.01850010 0.02334137 -0.08696901
v 0.01840506 0.02344450 -0.08427751
v 0.01850010 0.02345171 -0.08411621
v 0.01719011 0.02360799 -0.07709113
v 0.01723870 0.02378542 -0.06838714
v 0.01850010 0.02355716 -0.08082144
v 0.01850010 0.02359561 -0.07959817
v 0.01850010 0.02359912 -0.07948338
v 0.01850010 0.02360307 -0.07935118
v 0.01850010 0.02371471 -0.07500751
v 0.01850010 0.02372992 -0.07425116
v 0.01850010 0.02381030 -0.07024838
v 0.01437142 0.02364475 -0.06437549
v 0.01580992 0.02372966 -0.06637852
v 0.01573945 0.02377275 -0.06249520
v 0.01561796 0.02380190 -0.05882390
v 0.01543815 0.02381584 -0.05531999
v 0.01600674 0.02385386 -0.05459465
v 0.01469703 0.02379683 -0.04707909
v 0.01519516 0.02381584 -0.05194440
v 0.01488413 0.02380570 -0.04868040
v 0.01600674 0.02386147 -0.05287617
v 0.01600674 0.02387921 -0.04721858
v 0.01600674 0.02387921 -0.04715720
v 0.01605048 0.02388174 -0.04715720
v 0.01600674 0.02385259 -0.04092492
v 0.01600917 0.02384626 -0.03970301
v 0.01600917 0.02380824 -0.03900558
v 0.01608936 0.02385133 -0.03972533
v 0.01709291 0.02387541 -0.06067629
v 0.01671627 0.02390075 -0.05369078
v 0.01850010 0.02386909 -0.06660591
v 0.01850010 0.02387772 -0.06592054
v 0.01850010 0.02392037 -0.06247911
v 0.01850010 0.02393456 -0.06087747
v 0.01842936 0.02394891 -0.05891317
v 0.01850010 0.02395103 -0.05882022
v 0.01823253 0.02396032 -0.05543716
v 0.01850010 0.02396526 -0.05574781
v 0.01850010 0.02396874 -0.05362603
v 0.01740151 0.02394004 -0.04722416
v 0.01745011 0.02387034 -0.03900558
v 0.01796281 0.02396032 -0.05208389
v 0.01761048 0.02394891 -0.04883105
v 0.01850010 0.02397211 -0.05138174
v 0.01850010 0.02397052 -0.04977945
v 0.01850010 0.02396657 -0.04763046
v 0.01850010 0.02396567 -0.04726928
v 0.01850010 0.02396002 -0.04654521
v 0.01850010 0.02395162 -0.04563911
v 0.01850010 0.02390971 -0.04227212
v 0.01850010 0.02384614 -0.03900558
f 1 6 2
f 2 9 10
f 2 10 12
f 1 2 13
f 2 12 13
f 2 6 9
f 6 11 9
f 1 13 26
f 6 35 11
f 1 81 6
f 1 26 3
f 1 3 69
f 3 26 4
f 6 7 35
f 6 8 7
f 7 8 35
f 35 8 36
f 8 79 36
f 6 81 8
f 10 9 14
f 10 14 12
f 12 14 13
f 9 11 46
f 9 15 14
f 9 16 15
f 9 17 16
f 9 19 17
f 9 20 19
f 9 21 20
f 15 16 18
f 16 17 32
f 13 14 27
f 14 15 30
f 14 30 27
f 15 28 30
f 15 18 28
f 16 29 18
f 16 32 29
f 9 22 21
f 9 23 22
f 9 37 23
f 9 38 37
f 9 39 38
f 9 40 39
f 9 43 40
f 19 20 24
f 20 21 24
f 17 19 32
f 21 22 25
f 22 23 25
f 23 37 25
f 19 24 32
f 21 33 24
f 21 25 34
f 21 34 33
f 13 27 26
f 18 29 28
f 28 29 31
f 26 27 30
f 29 32 31
f 28 85 30
f 28 31 85
f 24 33 32
f 25 57 34
f 32 33 87
f 33 34 87
f 34 112 87
f 11 35 49
f 35 36 49
f 9 44 43
f 9 45 44
f 9 46 45
f 11 49 46
f 25 37 38
f 38 39 42
f 25 38 42
f 39 40 41
f 40 43 41
f 42 39 41
f 25 42 58
f 42 41 60
f 41 59 60
f 41 62 59
f 36 48 49
f 41 43 44
f 41 44 47
f 44 45 47
f 45 46 47
f 41 47 54
f 46 50 47
f 46 49 50
f 47 50 51
f 48 50 49
f 47 51 54
f 54 51 52
f 36 127 48
f 41 54 55
f 41 55 62
f 54 56 55
f 54 52 56
f 52 53 65
f 56 52 65
f 48 127 50
f 36 79 127
f 25 58 57
f 42 60 58
f 60 59 61
f 34 57 112
f 57 58 112
f 58 60 112
f 60 61 112
f 59 63 61
f 55 56 65
f 62 55 65
f 59 62 63
f 62 65 63
f 50 127 51
f 51 127 52
f 52 126 53
f 63 65 64
f 63 64 120
f 64 65 118
f 53 126 65
f 52 127 126
f 1 73 71
f 1 69 73
f 1 70 80
f 1 80 81
f 1 72 70
f 1 71 72
f 3 4 68
f 4 5 67
f 4 74 5
f 4 26 78
f 3 68 69
f 4 67 68
f 5 66 67
f 5 75 66
f 4 76 74
f 5 74 75
f 4 77 76
f 4 78 77
f 26 92 78
f 8 81 82
f 8 82 79
f 79 82 83
f 26 30 94
f 30 85 84
f 31 88 85
f 30 84 97
f 84 86 99
f 84 85 86
f 86 85 93
f 31 32 89
f 32 87 89
f 31 89 88
f 87 112 113
f 89 87 91
f 87 113 91
f 85 88 90
f 88 89 90
f 85 90 103
f 90 89 103
f 89 91 104
f 91 113 104
f 26 94 92
f 30 95 94
f 30 97 95
f 84 99 96
f 84 96 97
f 86 93 99
f 85 106 93
f 99 98 96
f 93 101 99
f 93 106 101
f 99 101 100
f 99 100 98
f 101 102 100
f 101 105 102
f 85 103 107
f 89 104 103
f 85 107 106
f 103 108 107
f 101 106 105
f 103 109 108
f 103 110 109
f 103 104 110
f 104 111 110
f 104 131 111
f 112 114 113
f 112 115 114
f 112 61 115
f 61 63 116
f 61 116 115
f 114 115 129
f 113 114 129
f 116 119 121
f 116 121 117
f 115 116 129
f 116 117 129
f 117 121 130
f 63 120 119
f 116 63 119
f 64 118 120
f 119 120 122
f 118 122 120
f 65 126 118
f 119 122 121
f 118 123 122
f 121 122 130
f 122 123 124
f 122 124 130
f 118 125 123
f 118 126 125
f 123 125 124
f 124 125 128
f 125 126 128
f 126 127 128
f 79 83 151
f 104 113 129
f 117 130 129
f 129 130 135
f 104 129 132
f 104 132 131
f 129 133 132
f 129 134 133
f 130 142 137
f 130 137 135
f 129 135 134
f 135 136 134
f 135 138 136
f 137 142 139
f 135 137 138
f 137 139 138
f 79 151 127
f 124 142 130
f 124 140 143
f 124 143 142
f 124 128 140
f 127 141 128
f 128 148 140
f 128 141 149
f 127 151 141
f 143 140 146
f 143 145 142
f 142 144 139
f 142 145 144
f 143 146 145
f 140 147 146
f 140 148 147
f 128 149 148
f 141 150 149
f 141 151 150
f 74 66 75
f 74 76 66
f 76 77 66
f 66 77 78
f 92 66 78
f 69 102 73
f 68 67 100
f 69 68 100
f 67 66 100
f 72 71 111
f 72 111 70
f 71 73 109
f 81 83 82
f 70 132 80
f 81 80 134
f 81 151 83
f 92 94 66
f 94 95 66
f 97 66 95
f 96 66 97
f 96 98 66
f 102 105 73
f 98 100 66
f 69 100 102
f 106 73 105
f 107 73 106
f 107 108 73
f 108 109 73
f 71 109 110
f 71 110 111
f 70 111 131
f 70 131 132
f 80 132 133
f 80 133 134
f 81 134 136
f 81 136 138
f 81 138 139
f 81 139 144
f 81 144 145
f 81 145 146
f 81 146 147
f 81 147 148
f 81 148 149
f 81 149 150
f 81 150 151

