# https://github.com/mikedh/trimesh
v 0.01850010 -0.01486581 -0.01282559
v 0.01850010 -0.01391406 -0.01313693
v 0.01850010 -0.01380932 -0.01316431
v 0.01928171 -0.01390536 -0.01282446
v 0.01935983 -0.01380504 -0.01282446
v 0.01958161 -0.01350897 -0.01282446
v 0.01850010 -0.01588920 -0.00935328
v 0.01850010 -0.01605790 -0.00877848
v 0.01850010 -0.01644559 -0.00726351
v 0.01850010 -0.01637868 -0.00762269
v 0.01850550 -0.01637913 -0.00759833
v 0.01850010 -0.01638297 -0.00760635
v 0.01850010 -0.01638431 -0.00760114
v 0.01850010 -0.01292928 -0.01338256
v 0.01850010 -0.01285825 -0.01339938
v 0.01850010 -0.01054792 -0.01386966
v 0.02089462 -0.01138509 -0.01282446
v 0.01850010 -0.01647435 -0.00705466
v 0.01850010 -0.01659000 -0.00617626
v 0.01850010 -0.01659504 -0.00609987
v 0.01897173 -0.01596561 -0.00712361
v 0.01850010 -0.01673368 -0.00388730
v 0.01850010 -0.01674830 -0.00364115
v 0.01935731 -0.01559613 -0.00677248
v 0.01935731 -0.01567443 -0.00650282
v 0.01950096 -0.01558879 -0.00617698
v 0.01959925 -0.01551049 -0.00582726
v 0.01960681 -0.01550315 -0.00422613
v 0.01966982 -0.01542241 -0.00500282
v 0.01850010 -0.01676161 -0.00337519
v 0.01850010 -0.01678410 -0.00286394
v 0.01850010 -0.01680459 -0.00227724
v 0.01850010 -0.01676210 -0.00187627
v 0.01870711 -0.01657977 -0.00240450
v 0.01911286 -0.01610997 -0.00288062
v 0.01850010 -0.01653829 -0.00020230
v 0.01850010 -0.01638760 -0.00009997
v 0.01850010 -0.01623811 0.00000000
v 0.01928675 -0.01589954 -0.00323034
v 0.01941780 -0.01573560 -0.00350281
v 0.02044351 -0.01414515 -0.00677248
v 0.02046367 -0.01411579 -0.00676967
v 0.02054935 -0.01417451 -0.00617698
v 0.02057456 -0.01419653 -0.00582726
v 0.02040823 -0.01408398 0.00000000
v 0.02057456 -0.01419653 -0.00020084
v 0.01850010 -0.00985912 -0.01395240
v 0.01850010 -0.00944549 -0.01399450
v 0.01850010 -0.00931535 -0.01400596
v 0.01850010 -0.00864293 -0.01406418
v 0.01850010 -0.00861657 -0.01406616
v 0.01850010 -0.00842095 -0.01408057
v 0.01850010 -0.00839454 -0.01408248
v 0.01850010 -0.00826329 -0.01409082
v 0.01850010 -0.00736184 -0.01409082
v 0.01850010 -0.00482103 -0.01409036
v 0.01850010 -0.00349990 -0.01375646
v 0.02029969 -0.00349990 -0.01419298
v 0.01850010 -0.00349990 0.00000000
v 0.02210430 -0.01160042 -0.00617698
v 0.02213202 -0.01161265 -0.00582726
v 0.02224543 -0.00844397 -0.01282446
v 0.02301408 -0.00587722 -0.01306182
v 0.02301408 -0.00464400 -0.01434834
v 0.02301775 -0.00349990 -0.01434834
v 0.02323081 -0.00349990 -0.01434834
v 0.02328108 -0.00349990 -0.01407148
v 0.02353827 -0.00349990 -0.01264829
v 0.02301408 -0.00958665 -0.00617136
v 0.02301408 -0.00966251 -0.00582726
v 0.02301408 -0.00966251 -0.00182865
v 0.02301408 -0.00954995 -0.00020084
v 0.02301408 -0.00912420 0.00000000
v 0.02306090 -0.00349990 0.00000000
v 0.02334422 -0.00885504 -0.00617136
v 0.02337194 -0.00886483 -0.00582726
v 0.02390370 -0.00707129 -0.00617417
v 0.02393394 -0.00706639 -0.00582726
v 0.02393394 -0.00706639 -0.00371630
v 0.02318545 -0.00879387 0.00000000
v 0.02337194 -0.00886483 -0.00020084
v 0.02392134 -0.00706639 -0.00331321
v 0.02361388 -0.00706639 0.00000000
v 0.02381801 -0.00706639 -0.00020084
v 0.02423888 -0.00598243 -0.00617417
v 0.02425652 -0.00598488 -0.00598035
v 0.02426912 -0.00598733 -0.00582726
v 0.02469457 -0.00349990 -0.00617417
v 0.02472239 -0.00349990 -0.00588353
v 0.02472533 -0.00349990 -0.00585207
v 0.02472744 -0.00349990 -0.00582726
v 0.02412046 -0.00349990 -0.00000142
v 0.02472707 -0.00349990 -0.00111581
v 0.02449196 -0.00349990 -0.00000246
v 0.02470928 -0.00349990 -0.00057211
v 0.02467260 -0.00349990 -0.00017688
v 0.02469695 -0.00349990 -0.00020084
f 1 2 4
f 1 4 7
f 11 9 13
f 8 21 10
f 10 11 12
f 11 13 12
f 10 21 11
f 7 24 8
f 8 24 21
f 4 24 7
f 4 5 26
f 5 6 26
f 4 26 24
f 6 41 26
f 2 3 64
f 3 14 64
f 6 42 41
f 6 17 42
f 2 64 4
f 4 64 5
f 5 64 6
f 17 43 42
f 17 60 43
f 11 26 9
f 9 26 18
f 18 26 19
f 19 26 20
f 20 26 22
f 11 21 26
f 21 24 25
f 21 25 26
f 22 27 23
f 23 27 30
f 27 31 30
f 27 34 31
f 27 35 34
f 22 26 27
f 24 26 25
f 27 29 28
f 27 39 35
f 28 40 39
f 27 28 39
f 26 44 27
f 27 44 29
f 31 34 32
f 32 34 33
f 33 34 46
f 33 46 36
f 36 46 37
f 37 46 38
f 34 35 46
f 39 46 35
f 39 40 46
f 28 46 40
f 29 46 28
f 38 46 45
f 26 41 43
f 26 43 44
f 41 42 43
f 29 44 46
f 44 43 60
f 44 60 61
f 44 61 46
f 38 45 83
f 45 46 73
f 14 15 64
f 15 16 64
f 16 47 64
f 47 48 64
f 48 49 64
f 49 50 64
f 50 51 64
f 51 52 64
f 52 53 64
f 53 54 64
f 56 57 58
f 54 55 64
f 55 56 64
f 6 64 17
f 56 58 64
f 38 83 59
f 17 62 60
f 60 70 61
f 60 69 70
f 61 70 71
f 46 61 71
f 46 71 72
f 46 72 73
f 17 64 62
f 62 75 60
f 62 63 75
f 64 58 65
f 62 64 63
f 63 64 67
f 64 65 66
f 75 63 77
f 64 66 67
f 63 67 68
f 63 85 77
f 63 68 85
f 85 68 88
f 60 75 69
f 69 75 70
f 45 73 83
f 70 81 71
f 71 81 72
f 72 81 73
f 83 74 59
f 70 75 76
f 70 76 81
f 75 77 76
f 76 77 78
f 76 78 81
f 73 81 80
f 81 78 79
f 81 79 82
f 73 80 83
f 80 81 84
f 80 84 83
f 81 82 84
f 77 87 78
f 77 85 86
f 77 86 87
f 78 87 79
f 79 87 82
f 85 89 86
f 86 90 87
f 85 88 89
f 86 89 90
f 87 90 91
f 87 91 93
f 83 92 74
f 87 93 82
f 82 95 84
f 83 84 96
f 83 94 92
f 83 96 94
f 82 93 95
f 84 95 97
f 84 97 96
f 1 7 38
f 1 57 2
f 2 57 3
f 1 38 57
f 7 8 38
f 8 10 38
f 10 12 38
f 12 13 38
f 13 9 38
f 9 18 38
f 18 19 38
f 19 20 38
f 20 22 38
f 22 23 38
f 23 30 38
f 30 31 38
f 31 32 38
f 32 33 38
f 33 36 37
f 33 37 38
f 14 57 15
f 3 57 14
f 15 57 16
f 16 57 47
f 47 57 48
f 48 57 49
f 49 57 50
f 50 57 51
f 51 57 52
f 52 57 53
f 53 57 54
f 54 57 55
f 55 57 56
f 38 59 57
f 57 65 58
f 57 67 65
f 57 59 91
f 57 68 67
f 57 88 68
f 57 89 88
f 57 90 89
f 57 91 90
f 65 67 66
f 59 74 91
f 91 74 92
f 91 92 94
f 95 93 91
f 95 91 97
f 97 91 96
f 96 91 94

