# https://github.com/mikedh/trimesh
v 0.01850010 -0.00349990 -0.01375646
v 0.02029969 -0.00349990 -0.01419298
v 0.01850010 -0.00349990 0.00000000
v 0.01850010 -0.00341253 0.00000000
v 0.01850010 -0.00340983 -0.00000272
v 0.01850010 -0.00324755 -0.00020084
v 0.01856094 -0.00319791 -0.00020084
v 0.01876255 -0.00319791 0.00000000
v 0.01850010 -0.00043011 -0.01298060
v 0.01850010 -0.00043011 -0.01273878
v 0.01887092 -0.00007327 -0.01298036
v 0.01850010 -0.00055067 -0.00652964
v 0.01899945 -0.00007327 -0.00669383
v 0.02301775 -0.00349990 -0.01434834
v 0.02323081 -0.00349990 -0.01434834
v 0.02328108 -0.00349990 -0.01407148
v 0.02335430 -0.00284801 -0.01434834
v 0.02353827 -0.00349990 -0.01264829
v 0.02306090 -0.00349990 0.00000000
v 0.02301408 -0.00319791 0.00000000
v 0.02469457 -0.00349990 -0.00617417
v 0.02472239 -0.00349990 -0.00588353
v 0.02472533 -0.00349990 -0.00585207
v 0.02472744 -0.00349990 -0.00582726
v 0.02478324 -0.00301684 -0.00617417
v 0.02481600 -0.00301929 -0.00582726
v 0.02482860 -0.00288961 -0.00582726
v 0.02481096 -0.00276726 -0.00617417
v 0.02412046 -0.00349990 -0.00000142
v 0.02449196 -0.00349990 -0.00000246
v 0.02472707 -0.00349990 -0.00111581
v 0.02470928 -0.00349990 -0.00057211
v 0.02467260 -0.00349990 -0.00017688
v 0.02469695 -0.00349990 -0.00020084
v 0.02482608 -0.00292876 -0.00331321
v 0.02461691 -0.00299238 -0.00000281
v 0.02481600 -0.00301684 -0.00020084
v 0.02477316 -0.00260333 -0.00650282
v 0.02470763 -0.00212863 -0.00712361
v 0.02485884 -0.00262535 -0.00331321
v 0.02487649 -0.00245651 -0.00331321
v 0.02490673 -0.00212619 -0.00287781
v 0.02302416 -0.00149979 -0.01434834
v 0.02301408 -0.00007327 -0.01298036
v 0.02343495 -0.00149979 -0.01434834
v 0.02466731 -0.00149979 -0.00760114
v 0.02301408 -0.00000476 -0.00200000
v 0.02301408 -0.00000476 -0.00000281
v 0.02495209 -0.00150469 -0.00240450
v 0.02498485 -0.00078042 -0.00210394
v 0.02499997 -0.00000476 -0.00200000
v 0.02461691 -0.00000476 -0.00000281
v 0.02471519 -0.00000476 -0.00009972
v 0.02481600 -0.00000476 -0.00020084
f 1 9 2
f 2 9 43
f 4 8 5
f 5 7 6
f 5 8 7
f 3 19 4
f 4 19 8
f 6 7 13
f 7 8 48
f 8 19 20
f 8 20 48
f 9 10 11
f 10 13 11
f 10 12 13
f 9 11 43
f 6 13 12
f 7 48 13
f 11 13 48
f 11 48 47
f 2 43 14
f 14 17 15
f 15 17 16
f 14 45 17
f 14 43 45
f 16 17 18
f 17 25 18
f 18 25 21
f 17 38 25
f 17 45 46
f 17 39 38
f 17 46 39
f 21 25 22
f 22 26 23
f 23 26 24
f 22 25 26
f 24 26 31
f 25 28 26
f 26 28 27
f 25 38 28
f 26 40 35
f 26 27 41
f 26 41 40
f 19 29 20
f 26 37 31
f 29 30 36
f 31 37 32
f 30 33 36
f 32 37 34
f 33 34 37
f 33 37 36
f 26 35 37
f 35 40 37
f 37 40 41
f 28 38 46
f 27 42 41
f 38 39 46
f 27 49 42
f 27 28 51
f 20 29 52
f 37 41 42
f 37 42 49
f 29 36 52
f 36 37 53
f 37 49 50
f 11 45 43
f 11 44 45
f 11 51 44
f 45 51 46
f 44 51 45
f 11 47 51
f 28 46 51
f 20 52 48
f 27 50 49
f 27 51 50
f 37 50 51
f 36 53 52
f 37 54 53
f 37 51 54
f 47 48 51
f 48 52 51
f 51 52 53
f 51 53 54
f 1 3 9
f 3 4 5
f 3 5 6
f 3 6 12
f 3 10 9
f 3 12 10
f 1 2 3
f 2 14 3
f 3 14 16
f 14 15 16
f 3 16 18
f 3 18 21
f 3 21 22
f 3 22 23
f 3 23 24
f 3 24 19
f 19 24 29
f 24 30 29
f 24 31 32
f 24 33 30
f 24 32 34
f 24 34 33

