# https://github.com/mikedh/trimesh
v -0.03293339 -0.01844623 -0.07964737
v -0.02774716 -0.01905692 -0.07964737
v -0.02913100 -0.01892991 -0.07964737
v -0.02285293 -0.01948754 -0.07964737
v -0.01753974 -0.01986161 -0.07940554
v -0.01814279 -0.01979984 -0.07964737
v -0.01213133 -0.02013912 -0.07940554
v -0.01428962 -0.02135528 -0.04163907
v -0.01979324 -0.02008257 -0.04163907
v -0.01797774 -0.02051928 -0.04163907
v -0.03841797 -0.01743798 -0.07962133
v -0.03865919 -0.01758673 -0.07455777
v -0.03436166 -0.01840099 -0.07422665
v -0.04036677 -0.01683511 -0.07962133
v -0.04057625 -0.01702650 -0.07446104
v -0.04183314 -0.01652281 -0.07421177
v -0.04183314 -0.01641755 -0.07178230
v -0.03402522 -0.01832531 -0.07962133
v -0.03293339 -0.01703259 -0.07964737
v -0.03886867 -0.01716743 -0.06627601
v -0.04066512 -0.01675073 -0.06884313
v -0.04183314 -0.01628618 -0.06884313
v -0.04070321 -0.01662024 -0.06619416
v -0.04183314 -0.01621398 -0.07962133
v -0.04183314 -0.01462200 -0.07962133
v -0.04183314 -0.01615744 -0.06599325
v -0.04183314 -0.01589994 -0.06371261
v -0.04183314 -0.01430187 -0.06412558
v -0.01814279 -0.01829660 -0.07964737
v -0.03883058 -0.01637405 -0.05850395
v -0.03109884 -0.01678205 -0.04163907
v -0.04058260 -0.01579032 -0.05842954
v -0.04183314 -0.01523444 -0.05822863
v -0.03954789 -0.01562765 -0.05486905
v -0.04183314 -0.01465071 -0.05486905
v -0.04183314 -0.01430187 -0.05486905
v -0.03293973 -0.01400522 -0.05315392
v -0.03293973 -0.01400522 -0.05165457
v -0.03403792 -0.01567723 -0.04163907
v -0.03014666 -0.01401044 -0.04165395
v -0.02823594 -0.01401044 -0.04164651
v -0.02669975 -0.01818438 -0.04163907
v -0.02673149 -0.01567723 -0.04163907
v -0.02673149 -0.01401131 -0.04164651
v -0.00812581 -0.02080896 -0.07292821
v -0.00245079 -0.02102297 -0.07306214
v 0.00330040 -0.02100122 -0.07304726
v -0.00500264 -0.02160408 -0.06424463
v -0.00251427 -0.02170239 -0.06424463
v 0.00338927 -0.02167629 -0.06424463
v -0.01081732 -0.02019218 -0.07940554
v -0.00240001 -0.02037748 -0.07940554
v 0.00323692 -0.02035573 -0.07940554
v 0.00477312 -0.02093858 -0.07301006
v 0.00903890 -0.02075329 -0.07290216
v 0.00590939 -0.02156146 -0.06424835
v 0.00886751 -0.02021219 -0.07932369
v 0.01020057 -0.02009475 -0.07961389
v 0.01430131 -0.01995556 -0.07961389
v 0.01850010 -0.01971305 -0.07961389
v 0.01850010 -0.01978725 -0.07859709
v 0.01850010 -0.01975561 -0.07903550
v 0.01850010 -0.01966481 -0.07961469
v 0.01850010 -0.01980338 -0.07837325
v 0.01850010 -0.01994736 -0.07569262
v 0.01850010 -0.02019280 -0.07033519
v 0.01850010 -0.02004737 -0.07375012
v 0.01850010 -0.01949129 -0.07961661
v 0.01850010 -0.02032492 -0.06539484
v 0.01850010 -0.02034403 -0.06461559
v 0.01850010 -0.02035308 -0.06411982
v 0.01850010 -0.02037141 -0.06303985
v -0.00651979 -0.02211125 -0.05316136
v -0.00495821 -0.02223739 -0.05316136
v -0.00849399 -0.02174936 -0.05737665
v -0.00256505 -0.02222347 -0.05746594
v -0.00257140 -0.02242965 -0.05316508
v -0.00258410 -0.02250185 -0.05163596
v 0.00023437 -0.02249142 -0.05163596
v -0.00853842 -0.02233744 -0.04163907
v -0.00856381 -0.02230090 -0.04316074
v -0.00482490 -0.02261581 -0.04482007
v -0.00482490 -0.02267671 -0.04163907
v -0.00482490 -0.02124393 -0.04163907
v -0.00260314 -0.02282373 -0.04483867
v -0.00259044 -0.02284722 -0.04368532
v -0.00258410 -0.02288810 -0.04164278
v -0.00183504 -0.02284635 -0.04368532
v -0.00049564 -0.02288636 -0.04164278
v 0.00345910 -0.02219477 -0.05745850
v 0.00348449 -0.02247402 -0.05163596
v 0.00945786 -0.02167803 -0.05735805
v 0.00351623 -0.02279937 -0.04483495
v 0.00350354 -0.02282460 -0.04368532
v 0.00424624 -0.02275761 -0.04368532
v 0.00347180 -0.02286810 -0.04164278
v 0.00553486 -0.02268193 -0.04164278
v 0.00818828 -0.02236875 -0.04368532
v 0.00959117 -0.02219999 -0.04477914
v 0.00950864 -0.02228959 -0.04164278
v 0.01020057 -0.02217215 -0.04164278
v 0.01147015 -0.02195206 -0.04165395
v 0.01532332 -0.02127351 -0.04165395
v 0.01850010 -0.02046617 -0.05712611
v 0.01020057 -0.02066282 -0.04164278
v 0.01850010 -0.02048973 -0.05060855
v 0.01850010 -0.02050664 -0.04165395
v 0.01850010 -0.02049051 -0.04165342
v 0.01850010 -0.02041455 -0.04165154
v 0.01850010 -0.02024552 -0.04165001
v 0.01850010 -0.01902925 -0.04164761
v 0.01850010 -0.01804640 -0.07961661
v 0.01850010 -0.01796563 -0.07961588
v 0.01850010 -0.01785119 -0.07961427
v 0.01850010 -0.01634930 -0.04164761
v 0.01020057 -0.01400174 -0.05315020
v 0.01850010 -0.01404494 -0.05505277
v 0.01850010 -0.01403342 -0.05456219
v 0.01850010 -0.01400195 -0.05320991
v 0.01850010 -0.01400174 -0.05319566
v 0.01020057 -0.01400174 -0.04165395
v 0.01850010 -0.01517666 -0.04164842
v 0.01850010 -0.01415386 -0.04164922
v 0.01850010 -0.01400261 -0.04164989
v 0.01850010 -0.01400231 -0.04164999
v 0.01850010 -0.01400251 -0.04164990
v 0.01850010 -0.01400174 -0.04165128
f 1 3 18
f 1 2 3
f 1 4 2
f 8 20 12
f 8 12 13
f 2 75 73
f 5 4 6
f 2 4 75
f 1 6 4
f 1 29 6
f 5 6 7
f 6 51 7
f 5 76 4
f 3 81 18
f 2 85 3
f 18 80 13
f 9 42 20
f 2 73 85
f 3 85 82
f 18 81 80
f 8 13 80
f 3 82 81
f 8 80 10
f 10 80 9
f 8 10 20
f 10 9 20
f 42 80 31
f 9 80 42
f 43 80 84
f 11 12 15
f 1 18 11
f 18 13 12
f 11 18 12
f 1 11 14
f 1 14 24
f 11 15 14
f 14 15 16
f 14 16 24
f 1 24 25
f 16 17 24
f 1 25 19
f 12 20 15
f 17 22 24
f 15 21 16
f 16 21 17
f 1 19 29
f 15 20 21
f 20 23 21
f 17 21 23
f 17 23 22
f 22 23 26
f 23 27 26
f 20 30 23
f 23 30 32
f 22 26 24
f 24 28 25
f 24 26 27
f 24 27 33
f 23 32 27
f 24 33 35
f 24 36 28
f 25 28 37
f 24 35 36
f 19 25 114
f 25 37 118
f 20 42 30
f 30 31 32
f 30 42 31
f 27 32 33
f 32 34 33
f 33 34 35
f 32 39 34
f 28 36 38
f 28 38 37
f 34 39 35
f 31 39 32
f 35 39 36
f 36 40 38
f 36 39 40
f 39 43 41
f 39 41 40
f 43 44 41
f 31 80 39
f 39 80 43
f 37 38 121
f 38 40 121
f 40 41 121
f 41 44 126
f 51 46 45
f 5 7 76
f 7 45 48
f 46 53 47
f 7 48 76
f 45 46 48
f 4 76 75
f 48 49 76
f 46 47 49
f 46 49 48
f 47 76 49
f 47 50 76
f 6 52 51
f 7 51 45
f 51 52 46
f 6 29 68
f 46 52 53
f 6 58 52
f 6 59 58
f 56 55 61
f 50 56 90
f 50 55 56
f 47 54 50
f 54 55 50
f 56 64 90
f 90 65 92
f 52 58 53
f 47 53 57
f 6 63 59
f 6 68 63
f 47 57 59
f 53 58 57
f 47 59 54
f 54 59 55
f 29 112 68
f 55 59 62
f 57 58 59
f 59 60 62
f 59 63 60
f 55 62 61
f 56 61 64
f 90 64 65
f 92 65 67
f 92 67 66
f 76 74 75
f 73 75 74
f 73 74 78
f 50 90 76
f 76 79 77
f 77 78 74
f 76 77 74
f 90 91 79
f 76 90 79
f 80 81 82
f 80 87 83
f 80 85 87
f 80 82 85
f 80 83 84
f 73 78 85
f 77 85 78
f 77 79 85
f 79 91 93
f 79 93 85
f 85 88 86
f 85 86 87
f 83 87 89
f 86 88 89
f 86 89 87
f 83 89 96
f 85 93 88
f 88 93 89
f 83 96 97
f 89 93 94
f 89 94 96
f 83 97 100
f 83 105 84
f 90 92 91
f 91 92 93
f 92 66 99
f 99 66 69
f 99 69 70
f 100 70 71
f 101 71 72
f 102 72 104
f 93 92 99
f 93 95 94
f 93 98 95
f 93 99 98
f 94 95 96
f 95 97 96
f 83 100 101
f 95 98 97
f 83 101 105
f 97 98 100
f 98 99 100
f 101 102 103
f 99 70 100
f 100 71 101
f 101 72 102
f 102 104 103
f 103 104 106
f 101 103 108
f 103 106 107
f 101 108 109
f 101 109 110
f 103 107 108
f 84 105 122
f 101 115 105
f 101 110 111
f 101 111 115
f 19 113 29
f 19 114 113
f 25 117 114
f 25 118 117
f 29 113 112
f 43 84 123
f 37 116 119
f 37 119 118
f 37 121 116
f 43 123 44
f 41 125 121
f 41 126 125
f 84 122 123
f 105 115 122
f 116 120 119
f 44 123 124
f 44 124 126
f 116 121 120
f 121 127 120
f 121 125 127
f 63 62 60
f 63 68 62
f 61 62 68
f 64 61 68
f 64 68 65
f 112 65 68
f 113 65 112
f 114 65 113
f 107 106 108
f 108 106 109
f 106 110 109
f 106 111 110
f 106 115 111
f 67 65 117
f 67 117 66
f 69 66 117
f 69 117 70
f 70 117 71
f 71 117 72
f 114 117 65
f 72 117 104
f 104 120 106
f 106 122 115
f 123 122 106
f 104 117 118
f 119 104 118
f 119 120 104
f 106 120 127
f 123 106 124
f 124 106 126
f 106 125 126
f 106 127 125

