# https://github.com/mikedh/trimesh
v -0.00079843 -0.00031802 -0.11599671
v -0.00029823 -0.00055301 -0.11649682
v -0.00079843 -0.00114719 -0.11501333
v -0.00029823 -0.00114719 -0.11579128
v -0.00199866 0.00094082 -0.11005432
v -0.00199866 0.00093579 -0.11004422
v -0.00199866 0.00242962 -0.11242017
v -0.00029823 0.00359615 -0.11757787
v -0.00199866 0.00485668 -0.11382452
v -0.00079843 0.00624980 -0.11794832
v -0.00199866 0.00642940 -0.11389524
v -0.00199866 0.00078976 -0.10933363
v -0.00199866 0.00065716 -0.10866008
v -0.00199866 0.00071591 -0.10725068
v -0.00079843 -0.00114719 -0.10100856
v -0.00199866 0.00182034 -0.10466930
v -0.00199866 0.00399898 -0.10289955
v -0.00199866 0.00642940 -0.10240617
v -0.00199866 0.00675167 -0.10234219
v -0.00199866 0.00765636 -0.11394576
v -0.00079843 0.00997935 -0.11720405
v -0.00199866 0.01019923 -0.11274347
v -0.00079843 0.01313822 -0.11509079
v -0.00199866 0.01188944 -0.11050729
v -0.00079843 0.01524973 -0.11192848
v -0.00199866 0.01145640 -0.10507848
v -0.00199866 0.00943721 -0.10312855
v -0.00199866 0.00750865 -0.10242469
v -0.00079843 0.01031840 -0.10074587
v -0.00199866 0.01233927 -0.10774405
v -0.00079843 0.01600000 -0.10820712
v -0.00079843 0.01600000 -0.10074587
v 0.00949802 -0.00055301 -0.11649682
v 0.00949802 -0.00114719 -0.11579128
v 0.00975416 -0.00114719 -0.11539220
v 0.00999689 -0.00031802 -0.11599671
v 0.00999689 -0.00114719 -0.11501333
v 0.00949802 0.00359615 -0.11757787
v 0.00999689 0.00624980 -0.11794832
v 0.01170000 0.00539379 -0.10986405
v 0.01170000 0.00628505 -0.11018735
v 0.01170000 0.00722499 -0.11006443
v 0.00999689 -0.00114719 -0.10100856
v 0.01170000 0.00475094 -0.10916861
v 0.01170000 0.00630184 -0.10621004
v 0.01170000 0.00724010 -0.10634307
v 0.00999689 0.00997935 -0.11720405
v 0.01170000 0.00800044 -0.10952054
v 0.00999689 0.01313822 -0.11509079
v 0.00999689 0.01524973 -0.11192848
v 0.01170000 0.00844020 -0.10868365
v 0.01170000 0.00844356 -0.10773563
v 0.01170000 0.00801219 -0.10689201
v 0.00999689 0.01031840 -0.10074587
v 0.00999689 0.01600000 -0.10820712
v 0.00999689 0.01600000 -0.10074587
f 1 2 3
f 1 3 7
f 2 4 3
f 1 10 2
f 2 10 8
f 1 7 9
f 3 6 5
f 3 5 7
f 3 13 12
f 3 12 6
f 3 4 15
f 6 9 7
f 5 6 7
f 1 9 10
f 9 11 10
f 10 11 20
f 6 11 9
f 6 20 11
f 6 22 20
f 2 33 4
f 2 8 38
f 8 10 38
f 3 15 13
f 6 12 13
f 6 13 14
f 13 15 14
f 6 14 16
f 6 16 17
f 14 15 16
f 15 17 16
f 15 18 17
f 6 17 18
f 6 28 27
f 6 27 26
f 6 18 19
f 6 19 28
f 15 19 18
f 15 29 19
f 4 43 15
f 15 54 29
f 10 20 21
f 20 22 21
f 21 22 23
f 6 24 22
f 6 30 24
f 22 24 23
f 23 24 25
f 24 31 25
f 10 21 47
f 21 23 49
f 23 25 50
f 25 31 55
f 6 26 30
f 19 32 28
f 27 28 32
f 19 29 32
f 24 30 31
f 30 32 31
f 26 27 32
f 26 32 30
f 31 32 55
f 29 56 32
f 4 33 34
f 2 38 33
f 4 34 35
f 4 35 37
f 4 37 43
f 10 39 38
f 33 35 34
f 33 36 37
f 33 37 35
f 33 39 36
f 33 38 39
f 36 44 37
f 36 39 41
f 36 40 44
f 36 41 40
f 39 42 41
f 40 42 44
f 40 41 42
f 15 43 54
f 37 44 43
f 43 44 45
f 42 45 44
f 42 46 45
f 43 45 54
f 10 47 39
f 21 49 47
f 23 50 49
f 25 55 50
f 39 47 42
f 42 47 49
f 42 49 48
f 42 48 51
f 48 50 51
f 48 49 50
f 50 55 51
f 29 54 56
f 32 56 55
f 42 51 52
f 42 53 46
f 42 52 53
f 51 55 52
f 52 56 53
f 45 46 56
f 46 53 56
f 45 56 54
f 52 55 56

