# https://github.com/mikedh/trimesh
v -0.04799524 0.01448277 -0.09288390
v -0.04800680 0.01448277 -0.09280048
v -0.04841173 0.01448277 -0.08718069
v -0.04790268 0.01499015 -0.09288390
v -0.04787376 0.01517870 -0.09277014
v -0.04855635 0.01448277 -0.08478413
v -0.04864890 0.01448277 -0.08317630
v -0.04549048 0.01600126 -0.09288390
v -0.03689449 0.01412387 -0.09287632
v -0.04888029 0.01448277 -0.07211116
v -0.04889186 0.01448277 -0.07088254
v -0.04889186 0.01448277 -0.07072328
v -0.04857949 0.01448277 -0.06224430
v -0.04856213 0.01448277 -0.06206228
v -0.03689449 0.01412387 -0.05955196
v -0.04759610 0.01650954 -0.09170837
v -0.04750933 0.01690306 -0.09139743
v -0.04745726 0.01707704 -0.09121541
v -0.04818034 0.01650954 -0.08158365
v -0.04823241 0.01650954 -0.07901266
v -0.04805308 0.01704698 -0.08117411
v -0.04696557 0.01818562 -0.08995646
v -0.04754403 0.01805809 -0.08159882
v -0.04831918 0.01650954 -0.07089771
v -0.04811672 0.01721368 -0.07090530
v -0.04808201 0.01723827 -0.06947191
v -0.04790847 0.01650954 -0.06134179
v -0.04772914 0.01650954 -0.05939269
v -0.04746883 0.01650954 -0.05676861
v -0.04760188 0.01741043 -0.06093984
v -0.04733000 0.01747329 -0.05812615
v -0.04760767 0.01820839 -0.07132242
v -0.04708126 0.01838419 -0.06098534
v -0.02676557 0.01412387 -0.09287632
v -0.02502439 0.01412387 -0.09047975
v -0.02700274 0.01412387 -0.05616946
v -0.02502439 0.01412387 -0.05616946
v -0.04782170 0.01448277 -0.05466782
v -0.04767708 0.01500017 -0.05466782
v -0.04745148 0.01574074 -0.05466782
v -0.04729530 0.01650954 -0.05530488
v -0.04727215 0.01650954 -0.05512286
v -0.04702920 0.01753158 -0.05572959
v -0.04615572 0.01748786 -0.05022356
v -0.04516076 0.01748786 -0.04588548
v -0.04498722 0.01748786 -0.04527875
v -0.04424100 0.01748786 -0.04278360
v -0.04392863 0.01748786 -0.04185076
v -0.04335595 0.01748786 -0.04028844
v -0.04189243 0.01748786 -0.03678461
v -0.04610366 0.01767551 -0.05025390
v -0.04505664 0.01779848 -0.04592340
v -0.04486574 0.01781670 -0.04524842
v -0.04416001 0.01788319 -0.04298078
v -0.04378980 0.01791416 -0.04190385
v -0.04310142 0.01796791 -0.04007609
v -0.04159741 0.01807084 -0.03663292
v -0.04093218 0.01748786 -0.03480516
v -0.04057931 0.01748786 -0.03411501
v -0.03851998 0.01748786 -0.03052776
v -0.03611935 0.01748786 -0.02696325
v -0.04081648 0.01811548 -0.03508577
v -0.04037106 0.01813916 -0.03423636
v -0.03829438 0.01823663 -0.03070219
v -0.03585904 0.01832316 -0.02713768
v -0.03445915 0.01836415 -0.02535543
v -0.02600778 0.01412387 -0.05591161
v -0.03400795 0.01748786 -0.02421782
v -0.03349312 0.01748786 -0.02362626
v -0.03340056 0.01748786 -0.02353525
v -0.03263120 0.01748786 -0.02282993
v -0.03068178 0.01748786 -0.02110835
v -0.03053716 0.01748786 -0.02099459
v -0.03029999 0.01748786 -0.02082016
v -0.02917198 0.01748786 -0.02013759
v -0.02702009 0.01748786 -0.01896206
v -0.03317496 0.01839421 -0.02390687
v -0.03294357 0.01839877 -0.02367177
v -0.03097679 0.01841334 -0.02187434
v -0.03062393 0.01841061 -0.02158615
v -0.03002232 0.01840423 -0.02113110
v -0.02733246 0.01833045 -0.01948536
v -0.02657467 0.01748786 -0.01875729
v -0.02577061 0.01748786 -0.01846910
v -0.02502439 0.01748786 -0.01827191
v -0.02287828 0.01749059 -0.01770311
v -0.02246179 0.01749059 -0.01762727
v -0.02144947 0.01749059 -0.01753626
v -0.02078424 0.01749059 -0.01748317
v -0.02305761 0.01812550 -0.01796855
v -0.02638378 0.01829037 -0.01903790
v -0.02480457 0.01821659 -0.01843876
v -0.02236345 0.01809179 -0.01782445
v -0.02159409 0.01805445 -0.01769552
v -0.04645652 0.01886424 -0.08903120
v -0.04624249 0.01908833 -0.08868992
v -0.04533430 0.01976695 -0.08751439
v -0.04680360 0.01895442 -0.08157607
v -0.04462857 0.02008577 -0.08681666
v -0.04399226 0.02030803 -0.08625543
v -0.04210068 0.02085731 -0.08595965
v -0.04491202 0.02016138 -0.07855003
v -0.04210068 0.02087917 -0.08464003
v -0.04210068 0.02093383 -0.08095417
v -0.04210068 0.02095114 -0.07953596
v -0.04686144 0.01908924 -0.07133759
v -0.04632926 0.01923681 -0.06106118
v -0.04491780 0.02021785 -0.07260412
v -0.04488888 0.02023516 -0.07088254
v -0.04210068 0.02099759 -0.07418161
v -0.04210068 0.02100124 -0.06976768
v -0.04457651 0.02031077 -0.06370802
v -0.04396912 0.02037544 -0.05714781
v -0.04210068 0.02098940 -0.06495939
v -0.04210068 0.02098029 -0.06398105
v -0.04210068 0.02088009 -0.05748909
v -0.03998928 0.02146762 -0.08564113
v -0.03994879 0.02147764 -0.08564113
v -0.03889598 0.02172632 -0.08551220
v -0.03845635 0.02182014 -0.08545911
v -0.03691763 0.02211619 -0.08531501
v -0.03689449 0.02212257 -0.08524675
v -0.03994879 0.02150042 -0.08442768
v -0.03993143 0.02152774 -0.08279710
v -0.03989094 0.02157147 -0.08031711
v -0.03920257 0.02167986 -0.08410914
v -0.03982152 0.02161155 -0.07789022
v -0.03972897 0.02164980 -0.07550123
v -0.03869352 0.02185020 -0.07979381
v -0.03860097 0.02189210 -0.07735175
v -0.03736305 0.02214352 -0.07686637
v -0.03689449 0.02221912 -0.07768545
v -0.03689449 0.02223370 -0.07591077
v -0.03600365 0.02230201 -0.08314597
v -0.03504340 0.02246780 -0.08103760
v -0.03621769 0.02232479 -0.07888373
v -0.03961328 0.02168897 -0.07318051
v -0.03849105 0.02193219 -0.07495518
v -0.03938189 0.02174909 -0.06968426
v -0.03911580 0.02180466 -0.06647620
v -0.03819604 0.02201052 -0.07034407
v -0.03801671 0.02204969 -0.06810678
v -0.03780847 0.02208977 -0.06591498
v -0.03890177 0.02184383 -0.06433750
v -0.03868195 0.02188026 -0.06234289
v -0.03841586 0.02191761 -0.06019660
v -0.03813241 0.02195131 -0.05820199
v -0.03783160 0.02198137 -0.05624530
v -0.03733413 0.02216993 -0.06169066
v -0.03705646 0.02220728 -0.05965813
v -0.03676144 0.02224007 -0.05765594
v -0.03595738 0.02240768 -0.07399959
v -0.03448807 0.02263996 -0.07125416
v -0.03689449 0.02227013 -0.06730287
v -0.03670938 0.02230657 -0.06758348
v -0.03560451 0.02248966 -0.06935815
v -0.03516488 0.02257347 -0.06493664
v -0.03570285 0.02246507 -0.05915000
v -0.03464426 0.02265545 -0.06071990
v -0.03401374 0.02255980 -0.08299429
v -0.03294357 0.02262174 -0.08505715
v -0.03222628 0.02267549 -0.08502682
v -0.03096522 0.02278844 -0.08247857
v -0.03363195 0.02266638 -0.07815566
v -0.03092473 0.02286678 -0.07761719
v -0.02706059 0.02281850 -0.08495856
v -0.02837949 0.02285858 -0.08243307
v -0.02965211 0.02287771 -0.08000617
v -0.02648790 0.02279482 -0.08607342
v -0.02303447 0.02264361 -0.08803769
v -0.02276837 0.02266365 -0.08803010
v -0.02261219 0.02267367 -0.08803010
v -0.03333693 0.02275109 -0.07324877
v -0.03215108 0.02282761 -0.07537231
v -0.03294936 0.02283490 -0.06858457
v -0.03061236 0.02295240 -0.07269513
v -0.03135858 0.02299430 -0.06602116
v -0.03356832 0.02280757 -0.06238081
v -0.03403109 0.02272923 -0.05671552
v -0.03247502 0.02291961 -0.06414790
v -0.03191391 0.02300341 -0.05993874
v -0.02805554 0.02321566 -0.06119770
v -0.02916620 0.02320655 -0.05934719
v -0.03024214 0.02316100 -0.05760285
v -0.02637800 0.02328215 -0.05894523
v -0.04575658 0.01931423 -0.05590402
v -0.04554833 0.01933427 -0.05466024
v -0.04488888 0.01939804 -0.05073928
v -0.04362783 0.01948184 -0.04559728
v -0.04189822 0.01956929 -0.04053871
v -0.04359312 0.02039913 -0.05466024
v -0.04319398 0.02042372 -0.05202098
v -0.04223951 0.02046198 -0.04762981
v -0.04104787 0.02049750 -0.04355717
v -0.04019753 0.02052028 -0.04119094
v -0.03962485 0.02053485 -0.03977272
v -0.03968269 0.01965673 -0.03566216
v -0.03700440 0.01973781 -0.03104347
v -0.03779690 0.02057949 -0.03590485
v -0.03705646 0.02059679 -0.03453214
v -0.03553510 0.02062867 -0.03198389
v -0.03755973 0.02200415 -0.05466024
v -0.03750767 0.02200779 -0.05434929
v -0.03688292 0.02215172 -0.05466024
v -0.03670360 0.02218997 -0.05466024
v -0.03716058 0.02202783 -0.05248361
v -0.03649535 0.02204878 -0.04929830
v -0.03640279 0.02204878 -0.04889635
v -0.03598630 0.02204878 -0.04715202
v -0.03555245 0.02203967 -0.04546077
v -0.03500291 0.02202145 -0.04350408
v -0.03460377 0.02200141 -0.04218446
v -0.03611935 0.02229655 -0.05382599
v -0.03576648 0.02231477 -0.05198306
v -0.03436660 0.02257347 -0.05151285
v -0.03538470 0.02232752 -0.05017806
v -0.03457485 0.02232843 -0.04668180
v -0.03413521 0.02231659 -0.04500573
v -0.03390961 0.01981159 -0.02666747
v -0.03205852 0.01984712 -0.02455151
v -0.02987771 0.01986807 -0.02257208
v -0.02733246 0.01986807 -0.02088841
v -0.03290887 0.02067877 -0.02818428
v -0.03089581 0.02071430 -0.02580288
v -0.03002811 0.02072705 -0.02494589
v -0.02884804 0.02074527 -0.02392204
v -0.02702009 0.02077533 -0.02267825
v -0.02502439 0.01940897 -0.01946261
v -0.02502439 0.01984894 -0.01987215
v -0.02449220 0.01984438 -0.01964463
v -0.02152467 0.01981432 -0.01891656
v -0.02078424 0.01981705 -0.01885589
v -0.02502439 0.02081268 -0.02180608
v -0.02401786 0.02082907 -0.02136621
v -0.02323693 0.02084638 -0.02113869
v -0.02136270 0.02088828 -0.02077465
v -0.02078424 0.02090286 -0.02071398
v -0.02078424 0.02101763 -0.02106284
v -0.03410050 0.02197227 -0.04059939
v -0.03357410 0.02193765 -0.03905224
v -0.03325016 0.02191670 -0.03814974
v -0.03302456 0.02190030 -0.03754301
v -0.03270640 0.02223005 -0.04019743
v -0.03218579 0.02218997 -0.03868062
v -0.03165360 0.02214261 -0.03720173
v -0.03334850 0.02278389 -0.05291590
v -0.03259650 0.02281121 -0.04929072
v -0.03252130 0.02292690 -0.05466024
v -0.03232462 0.02295240 -0.05438721
v -0.03129495 0.02307902 -0.05594953
v -0.03058922 0.02313276 -0.05215750
v -0.03080904 0.02300068 -0.04718235
v -0.02874392 0.02326758 -0.05563858
v -0.02853567 0.02328124 -0.05536555
v -0.02796299 0.02330857 -0.05466024
v -0.02784730 0.02333499 -0.05159628
v -0.02682341 0.02336322 -0.05323443
v -0.02884804 0.02326576 -0.05004913
v -0.02983143 0.02315736 -0.04857782
v -0.02710108 0.02335594 -0.04802418
v -0.03367823 0.02229382 -0.04335999
v -0.03272954 0.02256345 -0.04458860
v -0.03176929 0.02280119 -0.04586273
v -0.03088424 0.02275109 -0.04259400
v -0.03081482 0.02241497 -0.03833934
v -0.02994712 0.02266365 -0.03950728
v -0.02901580 0.02314005 -0.04518016
v -0.02815967 0.02307720 -0.04197210
v -0.02724569 0.02322477 -0.04328415
v -0.02906208 0.02288864 -0.04072073
v -0.02726305 0.02297426 -0.03894606
v -0.02577639 0.02335685 -0.05497118
v -0.02511116 0.02340968 -0.05119432
v -0.02340469 0.02342243 -0.04923763
v -0.02439965 0.02342972 -0.04763740
v -0.02631436 0.02333408 -0.04466444
v -0.02537147 0.02340148 -0.04610542
v -0.02548716 0.02326211 -0.04148672
v -0.02365342 0.02340421 -0.04428524
v -0.02502439 0.02308995 -0.03796013
v -0.02550451 0.02301252 -0.03726999
v -0.02502439 0.02301161 -0.03683769
v -0.02376912 0.02325574 -0.03978789
v -0.02464260 0.02315098 -0.03850619
v -0.02196431 0.02336869 -0.04254849
v -0.02287250 0.02332952 -0.04113786
v -0.02208000 0.02321110 -0.03818766
v -0.03245188 0.02185749 -0.03607170
v -0.03185606 0.02181377 -0.03463073
v -0.03123132 0.02176640 -0.03322010
v -0.03053716 0.02203876 -0.03434254
v -0.02994712 0.02198411 -0.03297741
v -0.02868029 0.02217904 -0.03274230
v -0.02896373 0.02255251 -0.03658742
v -0.02793985 0.02242043 -0.03384199
v -0.02741923 0.02234847 -0.03253753
v -0.02715892 0.02264361 -0.03495685
v -0.02671929 0.02203876 -0.02913229
v -0.02502439 0.02221275 -0.02898819
v -0.02357822 0.02165254 -0.02432399
v -0.02482771 0.02181103 -0.02585597
v -0.02202215 0.02144758 -0.02284510
v -0.02078424 0.02152501 -0.02292094
v -0.02006694 0.02118068 -0.02144205
v -0.02133378 0.02216265 -0.02586356
v -0.02078424 0.02218177 -0.02585597
v -0.02617553 0.02249422 -0.03234035
v -0.02634329 0.02284218 -0.03609446
v -0.02666723 0.02256982 -0.03362964
v -0.02541196 0.02269097 -0.03344003
v -0.02502439 0.02260353 -0.03218108
v -0.02502439 0.02262357 -0.03238585
v -0.02494340 0.02260990 -0.03217350
v -0.02372284 0.02269735 -0.03202181
v -0.02378647 0.02300706 -0.03572284
v -0.02293613 0.02284492 -0.03312909
v -0.02251963 0.02275838 -0.03190047
v -0.02276837 0.02244229 -0.02879100
v -0.02132800 0.02279664 -0.03179429
v -0.02014214 0.02281121 -0.03169570
v -0.02212628 0.02296607 -0.03426670
v -0.02129329 0.02306353 -0.03544981
v -0.02172135 0.02288226 -0.03300016
v -0.02078424 0.02289502 -0.03291673
v -0.02051236 0.02289775 -0.03290157
v 0.01020414 0.01799615 -0.09474958
v 0.01020414 0.01850170 -0.09474958
v -0.01861499 0.01749333 -0.01734666
v -0.01574002 0.01749333 -0.01727082
v -0.01858607 0.01798795 -0.01749075
v -0.01573424 0.01802439 -0.01746042
v -0.01573424 0.01814371 -0.01751351
v 0.01020414 0.01749333 -0.04204794
v 0.01020414 0.01749333 -0.01804439
v -0.00306007 0.02192581 -0.09140501
v 0.00923232 0.02260262 -0.09106373
v 0.01020414 0.02259533 -0.09106373
v 0.01020414 0.02273834 -0.08924355
v 0.01020414 0.02280210 -0.08686216
v 0.01020414 0.02286405 -0.08442009
v 0.01020414 0.02297973 -0.07941461
v 0.01020414 0.02302710 -0.07707872
v 0.01020414 0.02307355 -0.07475800
v 0.01020414 0.02314916 -0.07038199
v 0.01020414 0.02321384 -0.06625626
v 0.01020414 0.02327122 -0.06213812
v 0.01020414 0.02329217 -0.06036345
v -0.01573424 0.01925320 -0.01822641
v -0.01865549 0.01982343 -0.01868145
v -0.01573424 0.01966858 -0.01849944
v -0.01455417 0.01902365 -0.01804439
v -0.01918768 0.02094658 -0.02057747
v -0.01870755 0.02096025 -0.02056230
v -0.01573424 0.02101126 -0.02056230
v -0.01307908 0.02105498 -0.02056988
v -0.01215354 0.02106136 -0.02058505
v -0.01022147 0.01920219 -0.01804439
v -0.00845136 0.01921312 -0.01804439
v -0.01045285 0.01938802 -0.01817332
v -0.01046442 0.02042372 -0.01929576
v -0.01599455 0.02182652 -0.02323189
v -0.01573424 0.02176093 -0.02297403
v -0.01701265 0.02209068 -0.02453635
v -0.01464094 0.02147946 -0.02188951
v -0.01888687 0.02256982 -0.02858623
v -0.01778779 0.02229017 -0.02584081
v 0.00568632 0.01937435 -0.01812023
v 0.00674492 0.01927506 -0.01804439
v 0.00830099 0.01926596 -0.01804439
v 0.01020414 0.01924683 -0.01804439
v 0.01020414 0.01931606 -0.01809748
v 0.01020414 0.01934520 -0.01812023
v 0.00571525 0.02041643 -0.01927301
v 0.01020414 0.02039093 -0.01923509
v 0.01020414 0.02077260 -0.01999349
v 0.00955626 0.02104405 -0.02053955
v 0.01020414 0.02107138 -0.02062297
v 0.01020414 0.02109506 -0.02069123
v 0.01020414 0.02334956 -0.05453889
v 0.01020414 0.02336778 -0.05214233
v 0.01020414 0.02339602 -0.04670456
v 0.01020414 0.02339419 -0.04092550
v 0.01020414 0.02339328 -0.03957554
v 0.01020414 0.02338964 -0.03874888
v 0.00752584 0.02148584 -0.02184401
v 0.01020414 0.02147855 -0.02182884
v 0.01020414 0.02192672 -0.02322430
v 0.01020414 0.02211072 -0.02390687
v 0.01020414 0.02326120 -0.03281814
v 0.01020414 0.02290959 -0.02832079
v 0.01020414 0.02301617 -0.02914746
v 0.01020414 0.02230110 -0.02468803
v 0.01020414 0.02260535 -0.02614417
v 0.01020414 0.02267640 -0.02652337
f 1 2 4
f 2 3 4
f 3 5 4
f 3 6 16
f 1 9 2
f 2 9 3
f 3 9 6
f 6 9 7
f 7 10 19
f 7 9 10
f 9 11 10
f 9 12 11
f 4 5 8
f 3 16 5
f 6 7 17
f 5 16 17
f 5 17 8
f 6 17 16
f 7 19 17
f 10 20 19
f 10 11 24
f 11 12 24
f 13 14 28
f 14 38 29
f 12 15 13
f 13 15 14
f 14 15 38
f 10 24 20
f 12 13 26
f 12 26 24
f 13 28 27
f 14 29 28
f 13 27 26
f 9 15 12
f 15 36 38
f 8 17 18
f 17 21 18
f 8 18 22
f 19 20 21
f 17 19 21
f 20 25 21
f 18 21 23
f 21 25 23
f 18 23 22
f 22 23 95
f 23 98 95
f 23 32 98
f 20 24 25
f 24 26 25
f 25 26 32
f 27 28 31
f 28 29 31
f 26 27 30
f 27 31 30
f 29 43 31
f 23 25 32
f 26 33 32
f 32 106 98
f 32 33 106
f 26 30 33
f 30 31 33
f 31 43 33
f 33 43 186
f 9 34 67
f 1 4 327
f 34 35 67
f 1 326 9
f 9 67 15
f 15 67 36
f 35 37 67
f 4 8 327
f 29 38 39
f 39 40 41
f 38 44 39
f 29 39 41
f 39 44 40
f 40 42 41
f 29 41 43
f 41 42 43
f 40 51 42
f 40 44 51
f 38 45 44
f 38 46 45
f 38 47 46
f 38 48 47
f 42 51 43
f 44 45 51
f 38 49 48
f 38 50 49
f 38 58 50
f 38 59 58
f 38 60 59
f 45 46 53
f 46 47 53
f 43 51 186
f 45 52 51
f 51 187 186
f 51 52 188
f 45 53 52
f 47 54 53
f 47 48 55
f 47 55 54
f 48 49 56
f 48 56 55
f 49 50 56
f 50 57 56
f 52 53 189
f 53 54 189
f 54 55 189
f 55 56 190
f 56 57 190
f 38 61 60
f 38 68 61
f 38 69 68
f 38 70 69
f 38 71 70
f 38 72 71
f 38 73 72
f 38 74 73
f 38 75 74
f 38 76 75
f 50 58 57
f 58 59 62
f 57 58 62
f 59 60 63
f 59 63 62
f 60 64 63
f 57 62 197
f 62 63 197
f 63 64 197
f 60 61 65
f 60 65 64
f 64 65 198
f 61 68 65
f 65 68 66
f 36 67 38
f 38 67 87
f 67 88 87
f 67 89 88
f 67 328 89
f 67 329 328
f 38 83 76
f 38 84 83
f 38 85 84
f 38 86 85
f 38 87 86
f 66 68 69
f 69 70 78
f 70 71 79
f 66 69 77
f 69 78 77
f 70 79 78
f 71 72 79
f 72 73 80
f 72 80 79
f 73 74 81
f 74 75 81
f 73 81 80
f 75 82 81
f 75 76 82
f 76 83 82
f 82 83 91
f 84 85 86
f 83 84 92
f 83 92 91
f 84 86 92
f 86 90 92
f 82 91 228
f 91 92 228
f 90 231 92
f 86 87 93
f 86 93 90
f 87 94 93
f 87 88 94
f 88 89 94
f 89 328 94
f 94 328 330
f 90 93 231
f 93 94 231
f 94 330 349
f 95 98 96
f 96 98 97
f 97 98 106
f 97 106 102
f 96 97 119
f 99 100 101
f 97 99 118
f 100 103 101
f 99 101 117
f 99 117 118
f 97 102 99
f 99 102 100
f 100 102 103
f 102 108 105
f 102 104 103
f 102 105 104
f 105 108 125
f 8 22 170
f 22 95 170
f 95 96 170
f 96 119 120
f 97 118 119
f 96 120 121
f 101 103 123
f 102 106 108
f 106 109 108
f 106 112 109
f 33 107 106
f 33 186 107
f 106 107 112
f 107 186 113
f 108 109 110
f 109 112 111
f 108 110 127
f 109 137 110
f 109 111 137
f 111 112 139
f 112 114 139
f 107 113 112
f 112 115 114
f 112 145 115
f 112 113 145
f 113 191 148
f 113 116 146
f 113 148 116
f 108 127 125
f 101 123 117
f 117 123 118
f 118 123 119
f 96 121 170
f 120 122 121
f 103 104 123
f 104 124 123
f 104 105 125
f 104 125 124
f 123 124 126
f 124 125 126
f 119 123 126
f 110 128 127
f 125 127 129
f 119 126 129
f 119 129 120
f 120 129 122
f 125 129 126
f 127 130 129
f 129 130 131
f 127 128 130
f 128 138 130
f 130 138 131
f 122 129 131
f 122 136 134
f 122 132 136
f 122 131 132
f 131 133 132
f 132 133 136
f 121 122 161
f 122 134 160
f 122 160 161
f 134 136 135
f 134 135 160
f 135 164 160
f 133 152 136
f 135 136 153
f 135 153 164
f 110 137 128
f 111 139 137
f 114 140 139
f 128 137 138
f 137 139 141
f 137 141 138
f 131 138 141
f 139 142 141
f 139 140 142
f 140 143 142
f 131 155 133
f 131 141 155
f 141 142 155
f 142 143 154
f 142 154 155
f 114 115 144
f 114 144 140
f 115 145 144
f 113 146 145
f 116 147 146
f 116 148 147
f 140 144 143
f 144 145 149
f 143 144 149
f 145 146 149
f 146 147 150
f 143 149 154
f 149 155 154
f 146 150 149
f 147 151 150
f 147 148 151
f 148 204 151
f 133 155 152
f 136 152 153
f 152 156 153
f 152 155 156
f 155 157 156
f 153 156 157
f 153 157 178
f 149 158 155
f 155 158 157
f 157 158 159
f 157 159 178
f 149 150 158
f 150 151 158
f 151 213 158
f 158 213 179
f 158 179 159
f 8 170 335
f 121 161 170
f 161 162 171
f 162 166 169
f 162 169 172
f 160 164 161
f 161 174 162
f 162 165 163
f 161 164 174
f 164 173 174
f 162 174 165
f 163 165 168
f 162 163 166
f 163 167 166
f 163 168 167
f 165 176 168
f 161 171 170
f 162 172 171
f 170 171 172
f 153 173 164
f 153 175 173
f 173 175 174
f 153 178 175
f 165 174 176
f 174 177 176
f 174 175 177
f 175 180 177
f 168 176 183
f 167 168 185
f 166 167 272
f 176 177 183
f 168 183 182
f 168 182 185
f 159 179 178
f 178 179 248
f 175 178 180
f 178 181 180
f 177 180 181
f 177 181 184
f 178 249 250
f 178 248 249
f 178 250 181
f 181 250 184
f 177 184 183
f 167 185 272
f 182 183 254
f 183 184 253
f 183 253 254
f 182 254 255
f 182 272 185
f 182 255 257
f 182 257 272
f 51 188 187
f 52 189 188
f 186 187 192
f 187 188 192
f 188 189 193
f 55 190 189
f 189 190 194
f 113 186 191
f 186 192 191
f 188 193 192
f 148 191 192
f 189 194 193
f 57 197 190
f 190 197 196
f 192 193 207
f 190 195 194
f 190 196 195
f 196 197 199
f 193 194 209
f 194 195 211
f 195 196 211
f 196 199 239
f 64 198 197
f 65 219 198
f 65 66 219
f 197 198 200
f 197 200 199
f 198 201 200
f 198 219 223
f 198 223 201
f 199 200 242
f 200 201 288
f 148 192 202
f 192 203 202
f 192 206 203
f 192 207 206
f 193 208 207
f 193 209 208
f 148 202 204
f 202 203 204
f 151 204 205
f 151 205 213
f 203 213 204
f 204 213 205
f 203 206 213
f 206 214 213
f 206 207 214
f 207 208 216
f 207 216 214
f 208 209 217
f 208 217 216
f 209 210 217
f 194 210 209
f 194 211 210
f 196 212 211
f 196 239 212
f 199 240 239
f 199 242 241
f 199 241 240
f 210 218 217
f 210 211 218
f 211 261 218
f 211 212 261
f 179 213 215
f 213 214 215
f 214 216 215
f 216 217 247
f 200 288 242
f 66 77 220
f 77 78 220
f 66 220 219
f 78 79 220
f 79 80 221
f 79 221 220
f 80 81 221
f 81 82 222
f 81 222 221
f 201 223 290
f 219 220 224
f 219 224 223
f 220 221 225
f 220 225 224
f 221 226 225
f 221 227 226
f 221 222 227
f 225 226 301
f 82 228 222
f 92 230 228
f 92 231 230
f 222 228 229
f 228 230 229
f 94 232 231
f 94 349 232
f 222 229 234
f 222 233 227
f 222 234 233
f 229 230 234
f 230 235 234
f 227 233 300
f 233 234 300
f 234 235 302
f 230 231 236
f 231 232 352
f 232 349 352
f 230 236 235
f 231 237 236
f 235 236 302
f 231 352 237
f 236 237 238
f 237 352 238
f 238 352 304
f 212 243 261
f 242 288 245
f 212 239 243
f 239 240 243
f 240 244 243
f 240 241 244
f 241 242 244
f 242 245 244
f 244 245 265
f 179 215 246
f 179 246 248
f 215 247 246
f 215 216 247
f 217 263 247
f 246 249 248
f 246 247 249
f 249 251 250
f 184 250 251
f 247 251 249
f 247 259 251
f 247 263 252
f 247 252 259
f 184 256 253
f 184 251 258
f 184 258 256
f 253 256 254
f 254 257 255
f 254 256 257
f 252 267 259
f 251 259 258
f 258 259 260
f 259 267 260
f 256 258 260
f 256 260 257
f 217 218 262
f 218 261 262
f 261 264 262
f 243 264 261
f 217 262 263
f 262 264 263
f 243 244 265
f 243 265 264
f 264 265 266
f 252 263 264
f 265 294 266
f 264 266 270
f 266 294 270
f 270 294 271
f 271 294 297
f 271 297 308
f 252 264 267
f 264 268 267
f 264 270 268
f 260 267 276
f 267 269 276
f 267 268 269
f 268 278 269
f 268 270 271
f 268 271 278
f 257 273 272
f 257 260 275
f 257 275 273
f 260 277 275
f 273 275 274
f 260 276 277
f 276 279 277
f 269 278 276
f 276 278 279
f 275 277 279
f 278 286 279
f 271 281 278
f 271 308 281
f 278 281 280
f 280 281 282
f 280 282 284
f 278 280 284
f 282 315 284
f 284 315 287
f 278 283 286
f 278 284 283
f 283 284 287
f 279 286 285
f 283 287 286
f 201 289 288
f 201 290 289
f 223 292 290
f 245 288 289
f 289 290 291
f 290 292 291
f 245 289 291
f 245 291 265
f 223 224 298
f 223 298 292
f 291 293 294
f 291 292 293
f 292 298 293
f 293 298 296
f 224 225 298
f 226 227 301
f 225 301 298
f 265 291 294
f 293 295 294
f 294 295 297
f 293 296 295
f 295 296 309
f 295 309 297
f 296 307 309
f 296 298 307
f 298 299 307
f 298 301 299
f 299 301 318
f 227 300 301
f 234 302 300
f 300 305 301
f 302 304 303
f 236 238 302
f 238 304 302
f 300 302 305
f 301 305 318
f 302 303 363
f 302 363 305
f 305 306 366
f 305 363 306
f 297 310 308
f 297 309 310
f 307 310 309
f 307 311 310
f 311 313 312
f 310 311 312
f 281 310 314
f 310 312 314
f 312 313 314
f 314 317 316
f 299 318 307
f 307 318 311
f 311 318 313
f 313 318 314
f 281 308 310
f 281 314 282
f 282 314 315
f 314 316 315
f 316 317 323
f 317 319 323
f 319 320 324
f 314 318 317
f 317 318 319
f 305 365 318
f 318 365 319
f 319 365 320
f 315 316 321
f 287 315 321
f 287 321 322
f 316 323 321
f 321 323 324
f 321 324 322
f 319 324 323
f 322 324 325
f 320 325 324
f 9 326 34
f 34 326 35
f 1 327 326
f 35 326 333
f 326 327 370
f 35 334 37
f 37 334 67
f 67 334 329
f 328 329 330
f 329 331 330
f 330 331 332
f 330 332 351
f 330 351 348
f 331 368 332
f 329 370 331
f 35 333 334
f 326 370 333
f 329 334 370
f 333 370 334
f 8 335 327
f 170 172 335
f 169 338 172
f 166 341 169
f 172 336 335
f 166 272 343
f 272 273 346
f 327 335 336
f 327 337 370
f 172 338 336
f 169 339 338
f 169 340 339
f 169 341 340
f 166 342 341
f 166 343 342
f 327 336 337
f 336 338 337
f 272 344 343
f 272 345 344
f 272 346 345
f 273 347 346
f 337 338 370
f 338 339 370
f 339 340 370
f 340 341 370
f 341 342 370
f 342 343 370
f 330 348 349
f 348 350 349
f 332 357 351
f 348 351 357
f 348 357 350
f 350 357 359
f 350 359 360
f 349 360 353
f 349 353 352
f 304 352 353
f 349 350 360
f 353 360 354
f 354 360 355
f 332 358 357
f 357 358 359
f 332 368 358
f 359 367 360
f 355 360 373
f 355 376 356
f 273 274 380
f 274 275 381
f 275 279 384
f 279 285 389
f 286 287 389
f 285 286 389
f 303 304 361
f 304 362 361
f 304 353 364
f 353 354 364
f 304 364 362
f 303 361 363
f 306 363 366
f 354 355 364
f 355 356 364
f 305 366 365
f 356 385 364
f 362 364 388
f 361 362 388
f 361 393 363
f 320 365 391
f 365 366 391
f 322 325 391
f 287 322 389
f 320 391 325
f 363 394 366
f 358 368 359
f 331 369 368
f 331 370 369
f 359 368 367
f 360 367 374
f 360 374 373
f 355 373 376
f 367 368 369
f 367 369 372
f 369 370 371
f 369 371 372
f 370 372 371
f 367 372 374
f 370 374 372
f 370 375 374
f 370 378 377
f 370 377 375
f 373 375 376
f 370 386 378
f 373 374 375
f 370 387 386
f 370 388 387
f 375 377 376
f 376 377 378
f 273 379 347
f 273 380 379
f 274 381 380
f 275 382 381
f 275 383 382
f 275 384 383
f 279 389 384
f 343 344 370
f 344 345 370
f 345 346 370
f 346 347 370
f 347 379 370
f 370 379 380
f 370 380 381
f 364 385 387
f 356 376 385
f 364 387 388
f 361 392 393
f 361 388 392
f 366 390 391
f 322 391 389
f 366 394 390
f 363 393 394
f 370 381 382
f 370 382 383
f 370 383 384
f 370 384 389
f 370 392 388
f 370 393 392
f 370 394 393
f 370 390 394
f 385 386 387
f 376 378 385
f 378 386 385
f 370 391 390
f 370 389 391

