# https://github.com/mikedh/trimesh
v 0.03449990 0.00146011 -0.04896433
v 0.03449990 0.00145440 -0.04894926
v 0.03449990 0.00143810 -0.04555013
v 0.03449990 0.00143810 -0.03891237
v 0.03449990 0.01079614 -0.04896433
v 0.03449990 0.01118994 -0.04892757
v 0.03449990 0.01130493 -0.04890469
v 0.03449990 0.01131215 -0.04890074
v 0.03449990 0.01131557 -0.04889880
v 0.03449990 0.01139784 -0.04885176
v 0.03449990 0.01099730 -0.03891237
v 0.03449990 0.01139784 -0.03905406
v 0.03449990 0.01139764 -0.03902005
v 0.03449990 0.01139644 -0.03900092
v 0.03502793 0.00150331 -0.04907834
v 0.03502793 0.00148661 -0.04559533
v 0.03502793 0.00148661 -0.03900092
v 0.03502793 0.01104225 -0.04907834
v 0.03502793 0.01104225 -0.03900092
f 15 2 1
f 16 3 2
f 15 1 5
f 17 4 3
f 18 5 6
f 18 6 7
f 18 7 8
f 18 8 9
f 18 9 10
f 19 11 4
f 19 10 12
f 19 14 11
f 19 12 13
f 19 13 14
f 15 16 2
f 15 19 16
f 16 17 3
f 17 19 4
f 16 19 17
f 15 5 18
f 18 10 19
f 15 18 19
f 1 2 5
f 2 3 5
f 4 5 3
f 6 5 12
f 6 12 7
f 7 12 8
f 8 12 9
f 9 12 10
f 4 11 5
f 11 12 5
f 11 13 12
f 11 14 13

