# https://github.com/mikedh/trimesh
v -0.13166373 0.01343542 -0.00364443
v -0.15018645 0.01078311 -0.00473135
v -0.13985897 0.01302327 -0.00354761
v -0.11898150 0.01200272 -0.00071345
v -0.10876527 0.01224103 -0.00074900
v 0.02897781 0.00197106 -0.00634319
v -0.15908626 0.00578971 -0.00527518
v -0.16040269 -0.00197936 -0.00425785
v -0.09458119 0.00963920 0.00051264
v -0.08473578 0.01009059 0.00046650
v -0.12124354 -0.01361754 -0.00005465
v -0.09014984 0.00301404 0.00127583
v -0.06758511 0.00816725 0.00087646
v -0.03122568 0.00098977 -0.00002288
v -0.01739390 -0.00248963 -0.00063328
v 0.02897781 -0.00833816 -0.00471395
v -0.15758442 -0.00984655 -0.00584398
v -0.14671923 -0.01407174 -0.00297427
v -0.10754154 -0.01410538 0.00006789
v -0.11241789 -0.01341006 0.00037044
v -0.10316580 -0.01242877 0.00081443
v -0.13212726 -0.01520724 -0.00178298
v -0.08041567 -0.01053346 0.00138399
v -0.07778280 0.00296638 0.00136810
v -0.09135501 -0.01116430 0.00122288
v -0.06617597 0.00008417 0.00133558
v -0.05963090 0.00516448 0.00090444
v -0.04824657 0.00193742 0.00064274
v -0.03634307 -0.00808022 0.00030917
v -0.04780158 -0.00963628 0.00057844
v -0.07212772 -0.01125401 0.00121305
v -0.06298688 -0.00762882 0.00126372
f 1 2 3
f 1 3 4
f 1 4 5
f 1 5 6
f 1 6 2
f 2 7 8
f 2 8 3
f 2 6 7
f 3 8 4
f 4 9 10
f 4 10 5
f 4 8 11
f 4 11 12
f 4 12 9
f 5 10 6
f 6 10 13
f 6 13 14
f 6 14 15
f 6 15 16
f 6 16 17
f 6 17 7
f 7 17 8
f 8 17 18
f 8 18 11
f 9 12 13
f 9 13 10
f 11 19 20
f 11 20 21
f 11 21 12
f 11 18 22
f 11 22 19
f 12 23 24
f 12 24 13
f 12 21 25
f 12 25 23
f 13 24 26
f 13 26 27
f 13 27 14
f 14 27 28
f 14 28 29
f 14 29 15
f 15 29 16
f 16 29 30
f 16 30 31
f 16 31 19
f 16 19 22
f 16 22 18
f 16 18 17
f 19 21 20
f 19 31 21
f 21 31 25
f 23 31 32
f 23 32 26
f 23 26 24
f 23 25 31
f 26 32 29
f 26 29 28
f 26 28 27
f 29 32 30
f 30 32 31

