# https://github.com/mikedh/trimesh
v 0.04350602 0.03052270 -0.00097310
v 0.04033439 0.03012743 0.00003368
v 0.05776556 0.02788344 0.00019038
v 0.06080041 0.02776823 -0.00131735
v 0.05790234 0.02777354 -0.00257176
v 0.03600866 0.02910115 -0.00272318
v 0.03203342 0.02915433 -0.00275769
v 0.01235390 0.03012920 -0.00210856
v -0.01859306 0.02903734 0.00004261
v 0.06459611 0.02078101 0.00136888
v -0.01383133 0.02873070 0.00015871
v 0.06074912 0.02654697 0.00009011
v 0.06483549 0.02306045 -0.00167378
v 0.06373268 0.02432602 -0.00183982
v 0.05864610 0.02043006 -0.00208786
v 0.05271317 0.01713497 -0.00207162
v 0.04546372 0.01383988 -0.00204077
v 0.03853912 0.01241834 -0.00204158
v 0.02803255 0.02901430 -0.00277839
v -0.01731073 0.02904620 -0.00138920
v -0.02174760 0.02774518 -0.00096498
v -0.02187583 0.02174348 0.00019972
v 0.06545956 0.01826051 0.00070351
v -0.02185019 0.01721473 0.00011446
v 0.01780808 0.01241834 0.00009660
v 0.04540388 0.01243074 -0.00089475
v 0.00925920 0.01241834 -0.00202981
v -0.02187583 0.01647560 -0.00206918
v -0.02187583 0.01944100 -0.00214713
v -0.02183309 0.01339144 -0.00105348
v 0.00684842 0.01241834 -0.00056795
f 1 2 3
f 1 3 4
f 1 4 5
f 1 5 6
f 1 6 7
f 1 7 8
f 1 8 9
f 1 9 2
f 2 10 3
f 2 9 11
f 2 11 10
f 3 10 12
f 3 12 4
f 4 12 10
f 4 10 13
f 4 13 14
f 4 14 5
f 5 14 13
f 5 13 15
f 5 15 16
f 5 16 17
f 5 17 18
f 5 18 19
f 5 19 7
f 5 7 6
f 7 19 8
f 8 19 20
f 8 20 9
f 9 20 21
f 9 21 22
f 9 22 11
f 10 23 13
f 10 11 22
f 10 22 24
f 10 24 25
f 10 25 23
f 13 23 15
f 15 23 16
f 16 23 17
f 17 23 26
f 17 26 18
f 18 26 25
f 18 25 31
f 18 31 27
f 18 27 19
f 19 27 28
f 19 28 29
f 19 29 20
f 20 29 21
f 21 29 22
f 22 29 28
f 22 28 24
f 23 25 26
f 24 28 30
f 24 30 25
f 25 30 31
f 27 31 30
f 27 30 28

