# https://github.com/mikedh/trimesh
v 0.01882538 -0.05292250 -0.00251195
v 0.01882538 -0.05272823 -0.00312961
v 0.01925751 -0.05249720 -0.00337199
v 0.01929761 -0.05275185 -0.00251195
v 0.01882538 -0.03962552 -0.00251195
v 0.01882538 -0.05254708 -0.00367325
v 0.02029423 -0.05238169 -0.00251195
v 0.01999344 -0.05198790 -0.00403899
v 0.02905015 -0.03257930 -0.00251195
v 0.02906720 -0.03255305 -0.00251238
v 0.02906720 -0.02610277 -0.00693380
v 0.01882538 -0.03424110 -0.00693380
v 0.01882538 -0.05240007 -0.00407232
v 0.02055390 -0.05227931 -0.00251195
v 0.01963149 -0.05160199 -0.00539074
v 0.02143922 -0.05118982 -0.00458004
v 0.02106925 -0.05180151 -0.00332958
v 0.01882538 -0.05206141 -0.00497911
v 0.02906720 -0.03258980 -0.00251195
v 0.02906720 -0.04626745 -0.00693380
v 0.01882538 -0.05122920 -0.00693380
v 0.02077749 -0.05219005 -0.00251195
v 0.01882538 -0.05191439 -0.00535611
v 0.01882538 -0.05162824 -0.00604476
v 0.01900986 -0.05143660 -0.00633995
v 0.02067522 -0.05060439 -0.00675764
v 0.02185331 -0.05029460 -0.00632870
v 0.02290205 -0.05037336 -0.00502456
v 0.02324495 -0.05101918 -0.00283831
v 0.02198064 -0.05168862 -0.00251195
v 0.02906720 -0.04811301 -0.00251195
v 0.02906720 -0.04663236 -0.00621832
v 0.02870726 -0.04649059 -0.00693380
v 0.01911012 -0.05112156 -0.00693380
v 0.01882538 -0.05144710 -0.00646417
v 0.02047771 -0.05059651 -0.00693380
v 0.02077448 -0.05047838 -0.00693380
v 0.02150439 -0.05016071 -0.00693380
v 0.02279477 -0.04959628 -0.00693380
v 0.02394378 -0.04982994 -0.00519899
v 0.02405808 -0.05027098 -0.00387971
v 0.02427665 -0.05024998 -0.00366243
v 0.02542165 -0.05008196 -0.00251195
v 0.02345149 -0.05102705 -0.00251195
v 0.02884361 -0.04824427 -0.00251195
v 0.02901306 -0.04802375 -0.00287510
v 0.02906720 -0.04800012 -0.00284956
v 0.02906720 -0.04676099 -0.00595256
v 0.02892382 -0.04682925 -0.00600104
v 0.02765450 -0.04730968 -0.00659229
v 0.02781392 -0.04703927 -0.00693380
v 0.02310759 -0.04945189 -0.00693380
v 0.02405808 -0.04979318 -0.00515182
v 0.02405808 -0.04997432 -0.00467223
v 0.02405808 -0.04965141 -0.00548423
v 0.02405808 -0.04975643 -0.00524314
v 0.02564925 -0.04996907 -0.00251195
v 0.02551690 -0.04931538 -0.00455017
v 0.02646138 -0.04902135 -0.00405285
v 0.02729055 -0.04912374 -0.00251195
v 0.02773671 -0.04855143 -0.00346376
v 0.02833528 -0.04772709 -0.00473456
v 0.02906720 -0.04741469 -0.00439089
v 0.02691256 -0.04755645 -0.00693380
v 0.02706796 -0.04819964 -0.00532711
v 0.02405808 -0.04901085 -0.00693380
v 0.02461354 -0.04877982 -0.00686974
v 0.02578861 -0.04862494 -0.00591187
v 0.02577458 -0.04990607 -0.00251195
v 0.02702485 -0.04926288 -0.00251195
v 0.02626586 -0.04790299 -0.00693380
v 0.02414731 -0.04896885 -0.00693380
v 0.02457945 -0.04876407 -0.00693380
v 0.02464863 -0.04872995 -0.00693380
f 1 2 3
f 1 3 4
f 1 4 7
f 1 7 14
f 1 14 22
f 1 22 30
f 1 30 44
f 1 44 43
f 1 43 57
f 1 57 69
f 1 69 70
f 1 70 60
f 1 60 45
f 1 45 31
f 1 31 19
f 1 19 9
f 1 9 5
f 1 5 12
f 1 12 21
f 1 21 35
f 1 35 24
f 1 24 23
f 1 23 18
f 1 18 13
f 1 13 6
f 1 6 2
f 2 6 3
f 3 7 4
f 3 6 8
f 3 8 7
f 5 9 10
f 5 10 11
f 5 11 12
f 6 13 8
f 7 8 14
f 8 15 16
f 8 16 17
f 8 17 14
f 8 13 18
f 8 18 15
f 9 19 10
f 10 19 31
f 10 31 47
f 10 47 63
f 10 63 48
f 10 48 32
f 10 32 20
f 10 20 11
f 11 20 33
f 11 33 51
f 11 51 64
f 11 64 71
f 11 71 74
f 11 74 73
f 11 73 72
f 11 72 66
f 11 66 52
f 11 52 39
f 11 39 38
f 11 38 37
f 11 37 36
f 11 36 34
f 11 34 21
f 11 21 12
f 14 17 22
f 15 18 23
f 15 23 24
f 15 24 25
f 15 25 26
f 15 26 16
f 16 26 27
f 16 27 28
f 16 28 29
f 16 29 17
f 17 30 22
f 17 29 30
f 20 32 33
f 21 34 25
f 21 25 35
f 24 35 25
f 25 34 26
f 26 36 37
f 26 37 27
f 26 34 36
f 27 38 39
f 27 39 40
f 27 40 28
f 27 37 38
f 28 40 41
f 28 41 29
f 29 41 42
f 29 42 43
f 29 43 44
f 29 44 30
f 31 45 46
f 31 46 47
f 32 48 49
f 32 49 50
f 32 50 51
f 32 51 33
f 39 52 40
f 40 53 54
f 40 54 41
f 40 52 55
f 40 55 56
f 40 56 53
f 41 54 42
f 42 57 43
f 42 54 58
f 42 58 59
f 42 59 57
f 45 60 61
f 45 61 46
f 46 61 62
f 46 62 63
f 46 63 47
f 48 63 62
f 48 62 49
f 49 62 50
f 50 64 51
f 50 62 65
f 50 65 64
f 52 66 55
f 53 56 58
f 53 58 54
f 55 66 67
f 55 67 56
f 56 67 68
f 56 68 58
f 57 59 69
f 58 68 65
f 58 65 59
f 59 60 70
f 59 70 69
f 59 65 61
f 59 61 60
f 61 65 62
f 64 65 68
f 64 68 71
f 66 72 67
f 67 72 73
f 67 73 74
f 67 74 71
f 67 71 68

