# https://github.com/mikedh/trimesh
v -0.03690118 0.03517148 0.01325451
v -0.04276349 0.02777461 0.01325451
v -0.04699610 0.03517148 0.01325451
v -0.03954329 0.03517148 0.02852996
v -0.04538672 0.02777461 0.03044193
v -0.04519935 0.02777461 0.02934967
v -0.04515287 0.02777461 0.02906897
v -0.04494661 0.02777461 0.02774483
v -0.05173418 0.02777461 0.01325451
v -0.04714280 0.03497960 0.01325451
v -0.04715878 0.03498033 0.01412710
v -0.04700917 0.03517148 0.01398269
v -0.03983815 0.03517148 0.03014293
v -0.04541287 0.02777461 0.03056804
v -0.05162524 0.02798313 0.01325451
v -0.05173563 0.02777461 0.01330739
v -0.04778917 0.03410061 0.01325451
v -0.04818135 0.03357857 0.01364911
v -0.04817409 0.03358943 0.01520513
v -0.04714280 0.03498902 0.01723101
v -0.04700046 0.03517148 0.01729813
v -0.04005021 0.03517148 0.03111315
v -0.04566706 0.02777461 0.03174167
v -0.05083508 0.02938923 0.01325451
v -0.05173999 0.02777461 0.01353317
v -0.05162960 0.02798168 0.01358605
v -0.05084815 0.02938344 0.01395218
v -0.04816101 0.03358219 0.01325451
v -0.04914581 0.03217971 0.01449323
v -0.04914872 0.03218116 0.01474341
v -0.04901509 0.03233683 0.01325451
v -0.04814939 0.03357133 0.01829276
v -0.04712683 0.03496512 0.01876669
v -0.04697141 0.03517148 0.01861821
v -0.04006474 0.03517148 0.03117011
v -0.04027390 0.03517148 0.03192676
v -0.04572225 0.02777461 0.03192676
v -0.05047921 0.02999743 0.01325451
v -0.05171820 0.02777461 0.01972471
v -0.05160781 0.02797879 0.01977149
v -0.05003765 0.03077216 0.01432237
v -0.05081474 0.02937692 0.02014168
v -0.04915017 0.03217899 0.01474544
v -0.04912112 0.03217971 0.01325451
v -0.04916905 0.03210513 0.01325451
v -0.04908916 0.03218405 0.01786359
v -0.04905430 0.03217971 0.01944401
v -0.04896860 0.03217971 0.02254385
v -0.04797364 0.03358002 0.02301575
v -0.04689297 0.03498684 0.02352425
v -0.04696414 0.03517148 0.01884398
v -0.04031021 0.03517148 0.03202032
v -0.04588203 0.02777461 0.03244340
v -0.05001005 0.03077723 0.01325451
v -0.05168479 0.02777461 0.02129090
v -0.05157004 0.02798965 0.02134378
v -0.04996502 0.03078520 0.01899857
v -0.04993888 0.03078375 0.02055662
v -0.05077407 0.02938489 0.02171194
v -0.04909207 0.03217971 0.01786359
v -0.04990257 0.03077578 0.02211061
v -0.04983575 0.03079171 0.02369714
v -0.04890324 0.03217899 0.02411818
v -0.04788939 0.03357495 0.02459211
v -0.04674046 0.03517148 0.02359544
v -0.04675063 0.03517148 0.02338797
v -0.04679275 0.03496729 0.02509654
v -0.04664169 0.03517148 0.02494806
v -0.04051792 0.03517148 0.03249425
v -0.04592560 0.02777461 0.03255527
v -0.05163541 0.02777461 0.02285913
v -0.05152357 0.02798748 0.02290998
v -0.05071161 0.02938923 0.02329034
v -0.05059977 0.02938127 0.02487687
v -0.04970648 0.03078085 0.02529181
v -0.04874637 0.03217971 0.02573726
v -0.04770347 0.03359739 0.02623966
v -0.04645141 0.03498902 0.02836317
v -0.04662281 0.03517148 0.02517587
v -0.04629890 0.03517148 0.02846894
v -0.04056150 0.03517148 0.03257968
v -0.04604907 0.02777461 0.03277088
v -0.05162524 0.02777461 0.02309507
v -0.05143496 0.02797589 0.02448227
v -0.05125485 0.02798168 0.02611558
v -0.05041094 0.02938054 0.02650611
v -0.04993888 0.02946526 0.03014090
v -0.04932302 0.03078592 0.02856657
v -0.04838470 0.03218623 0.02900388
v -0.04731565 0.03363866 0.02962629
v -0.04611879 0.03517148 0.03020802
v -0.04061233 0.03517148 0.03266104
v -0.04644996 0.02777461 0.03322650
v -0.05154390 0.02777461 0.02442938
v -0.05152211 0.02777461 0.02466533
v -0.05137105 0.02777461 0.02606270
v -0.05085687 0.02799037 0.02940051
v -0.05045888 0.02826623 0.03112129
v -0.04975877 0.02948119 0.03124943
v -0.04917196 0.03066718 0.03043786
v -0.04815230 0.03217971 0.03070839
v -0.04806950 0.03230207 0.03073076
v -0.04730548 0.03353006 0.03034023
v -0.04611152 0.03517148 0.03027311
v -0.04103356 0.03517148 0.03310852
v -0.04108149 0.03517148 0.03314920
v -0.04161601 0.03517148 0.03358245
v -0.04557410 0.02936244 0.03341159
v -0.04693655 0.02777461 0.03350312
v -0.05097742 0.02777461 0.02934153
v -0.05093239 0.02777461 0.02966900
v -0.05072614 0.02777461 0.03108061
v -0.05014368 0.02856961 0.03196744
v -0.04894537 0.03083153 0.03115587
v -0.04952782 0.02954056 0.03215457
v -0.04814358 0.03217971 0.03076330
v -0.04687845 0.03391742 0.03106027
v -0.04808693 0.03200883 0.03153216
v -0.04797945 0.03217971 0.03148741
v -0.04600259 0.03517148 0.03090568
v -0.04163926 0.03517148 0.03359669
v -0.04167702 0.03512948 0.03360279
v -0.04508460 0.03063459 0.03365364
v -0.04813341 0.02777461 0.03397298
v -0.05055184 0.02777461 0.03201422
v -0.05024536 0.02806857 0.03266714
v -0.04920682 0.02992358 0.03239865
v -0.04870425 0.03093363 0.03184133
v -0.04947844 0.02928425 0.03278511
v -0.04594158 0.03517148 0.03112739
v -0.04795476 0.03217899 0.03158505
v -0.04738973 0.03290665 0.03180879
v -0.04679130 0.03371035 0.03190439
v -0.04577890 0.03517148 0.03170505
v -0.04166104 0.03517148 0.03360889
v -0.04386304 0.03344969 0.03389568
v -0.04854157 0.02777461 0.03403400
v -0.05047776 0.02777461 0.03232746
v -0.05038625 0.02777461 0.03266307
v -0.05010301 0.02789263 0.03308818
v -0.04768313 0.03217971 0.03238034
v -0.04760906 0.03229628 0.03236814
v -0.04951911 0.02878320 0.03318988
v -0.04879285 0.03003436 0.03302106
v -0.04778045 0.03164392 0.03287054
v -0.04764101 0.03217971 0.03245967
v -0.04540706 0.03514831 0.03245967
v -0.04576583 0.03517148 0.03173556
v -0.04224785 0.03517148 0.03376348
v -0.04310774 0.03517148 0.03392010
v -0.04851542 0.02784701 0.03402993
v -0.04855609 0.02777461 0.03402993
v -0.04450795 0.03362346 0.03396078
v -0.05017564 0.02777461 0.03305564
v -0.04977765 0.02777461 0.03356211
v -0.04974279 0.02786584 0.03356008
v -0.04537801 0.03517148 0.03248001
v -0.04896280 0.02933420 0.03336278
v -0.04489287 0.03512152 0.03330582
v -0.04738102 0.03217971 0.03287054
v -0.04645432 0.03341638 0.03287461
v -0.04539108 0.03517148 0.03245561
v -0.04359578 0.03517148 0.03391196
v -0.04683342 0.03087063 0.03393433
v -0.04820023 0.02949929 0.03377975
v -0.04858950 0.02777461 0.03401976
v -0.04372070 0.03506214 0.03390993
v -0.04975587 0.02777461 0.03357635
v -0.04911967 0.02855368 0.03364754
v -0.04662716 0.03226225 0.03359465
v -0.04488851 0.03517148 0.03325701
v -0.04513108 0.03426714 0.03357024
v -0.04484349 0.03517148 0.03331192
v -0.04486091 0.03517148 0.03329565
v -0.04363645 0.03517148 0.03390382
v -0.04530393 0.03347721 0.03381229
v -0.04910079 0.02777461 0.03383263
v -0.04372651 0.03517148 0.03386924
v -0.04436416 0.03504622 0.03365160
v -0.04429153 0.03517148 0.03363533
v -0.04421164 0.03517148 0.03366991
f 1 2 9
f 1 9 15
f 1 15 24
f 1 24 38
f 1 38 54
f 1 54 45
f 1 45 44
f 1 44 31
f 1 31 28
f 1 28 17
f 1 17 10
f 1 10 3
f 1 3 12
f 1 12 21
f 1 21 34
f 1 34 51
f 1 51 66
f 1 66 65
f 1 65 68
f 1 68 79
f 1 79 80
f 1 80 91
f 1 91 104
f 1 104 120
f 1 120 130
f 1 130 134
f 1 134 148
f 1 148 162
f 1 162 157
f 1 157 171
f 1 171 174
f 1 174 173
f 1 173 180
f 1 180 181
f 1 181 178
f 1 178 175
f 1 175 163
f 1 163 150
f 1 150 149
f 1 149 135
f 1 135 121
f 1 121 107
f 1 107 106
f 1 106 105
f 1 105 92
f 1 92 81
f 1 81 69
f 1 69 52
f 1 52 36
f 1 36 35
f 1 35 22
f 1 22 13
f 1 13 4
f 1 4 5
f 1 5 6
f 1 6 7
f 1 7 8
f 1 8 2
f 2 8 7
f 2 7 6
f 2 6 5
f 2 5 14
f 2 14 23
f 2 23 37
f 2 37 53
f 2 53 70
f 2 70 82
f 2 82 93
f 2 93 109
f 2 109 124
f 2 124 137
f 2 137 152
f 2 152 166
f 2 166 177
f 2 177 168
f 2 168 155
f 2 155 154
f 2 154 139
f 2 139 138
f 2 138 125
f 2 125 112
f 2 112 111
f 2 111 110
f 2 110 96
f 2 96 95
f 2 95 94
f 2 94 83
f 2 83 71
f 2 71 55
f 2 55 39
f 2 39 25
f 2 25 16
f 2 16 9
f 3 10 11
f 3 11 12
f 4 13 5
f 5 13 14
f 9 16 15
f 10 17 18
f 10 18 11
f 11 18 19
f 11 19 20
f 11 20 21
f 11 21 12
f 13 22 23
f 13 23 14
f 15 16 25
f 15 25 26
f 15 26 27
f 15 27 24
f 17 28 18
f 18 29 30
f 18 30 19
f 18 28 31
f 18 31 29
f 19 30 32
f 19 32 20
f 20 32 33
f 20 33 34
f 20 34 21
f 22 35 23
f 23 36 37
f 23 35 36
f 24 27 38
f 25 39 26
f 26 39 40
f 26 40 27
f 27 41 38
f 27 40 42
f 27 42 41
f 29 41 43
f 29 43 30
f 29 31 44
f 29 44 45
f 29 45 41
f 30 43 32
f 32 46 47
f 32 47 48
f 32 48 49
f 32 49 33
f 32 43 46
f 33 49 50
f 33 50 51
f 33 51 34
f 36 52 53
f 36 53 37
f 38 41 54
f 39 55 56
f 39 56 40
f 40 56 42
f 41 45 54
f 41 42 57
f 41 57 43
f 42 58 57
f 42 56 59
f 42 59 58
f 43 57 58
f 43 58 60
f 43 60 46
f 46 60 47
f 47 60 58
f 47 58 61
f 47 61 48
f 48 61 62
f 48 62 63
f 48 63 49
f 49 63 64
f 49 64 50
f 50 65 66
f 50 66 51
f 50 64 67
f 50 67 68
f 50 68 65
f 52 69 70
f 52 70 53
f 55 71 72
f 55 72 56
f 56 72 59
f 58 59 61
f 59 72 73
f 59 73 62
f 59 62 61
f 62 73 74
f 62 74 75
f 62 75 63
f 63 75 76
f 63 76 64
f 64 76 77
f 64 77 78
f 64 78 67
f 67 79 68
f 67 78 80
f 67 80 79
f 69 81 70
f 70 81 82
f 71 83 72
f 72 83 84
f 72 84 73
f 73 84 74
f 74 84 85
f 74 85 86
f 74 86 87
f 74 87 75
f 75 87 88
f 75 88 89
f 75 89 76
f 76 89 90
f 76 90 77
f 77 90 78
f 78 90 91
f 78 91 80
f 81 92 82
f 82 92 93
f 83 94 84
f 84 94 95
f 84 95 96
f 84 96 85
f 85 96 97
f 85 97 87
f 85 87 86
f 87 98 99
f 87 99 100
f 87 100 88
f 87 97 98
f 88 100 89
f 89 100 101
f 89 101 102
f 89 102 103
f 89 103 90
f 90 103 104
f 90 104 91
f 92 105 93
f 93 105 106
f 93 106 107
f 93 107 108
f 93 108 109
f 96 110 97
f 97 110 111
f 97 111 98
f 98 112 113
f 98 113 99
f 98 111 112
f 99 114 100
f 99 113 115
f 99 115 114
f 100 114 116
f 100 116 101
f 101 116 102
f 102 117 103
f 102 116 118
f 102 118 119
f 102 119 117
f 103 117 120
f 103 120 104
f 107 121 122
f 107 122 108
f 108 122 123
f 108 123 109
f 109 123 124
f 112 125 113
f 113 125 126
f 113 126 115
f 114 115 118
f 114 118 116
f 115 127 128
f 115 128 118
f 115 126 129
f 115 129 127
f 117 130 120
f 117 119 131
f 117 131 132
f 117 132 133
f 117 133 134
f 117 134 130
f 118 128 127
f 118 127 131
f 118 131 119
f 121 135 122
f 122 135 123
f 123 135 124
f 124 136 137
f 124 135 136
f 125 138 126
f 126 139 140
f 126 140 129
f 126 138 139
f 127 141 142
f 127 142 132
f 127 132 131
f 127 129 141
f 129 140 143
f 129 143 144
f 129 144 145
f 129 145 146
f 129 146 142
f 129 142 141
f 132 142 133
f 133 142 147
f 133 147 148
f 133 148 134
f 135 149 136
f 136 149 150
f 136 150 137
f 137 151 152
f 137 150 153
f 137 153 151
f 139 154 140
f 140 154 155
f 140 155 156
f 140 156 143
f 142 146 157
f 142 157 147
f 143 156 158
f 143 158 144
f 144 158 159
f 144 159 145
f 145 160 146
f 145 159 160
f 146 160 161
f 146 161 157
f 147 157 162
f 147 162 148
f 150 163 153
f 151 153 164
f 151 164 165
f 151 165 166
f 151 166 152
f 153 163 167
f 153 167 164
f 155 168 156
f 156 168 169
f 156 169 170
f 156 170 158
f 157 161 171
f 158 170 159
f 159 170 172
f 159 172 173
f 159 173 174
f 159 174 171
f 159 171 160
f 160 171 161
f 163 175 167
f 164 167 176
f 164 176 165
f 165 177 166
f 165 176 170
f 165 170 169
f 165 169 177
f 167 175 178
f 167 178 179
f 167 179 176
f 168 177 169
f 170 176 172
f 172 176 179
f 172 179 180
f 172 180 173
f 178 181 179
f 179 181 180

