# https://github.com/mikedh/trimesh
v 0.02319059 0.03659901 -0.00320492
v 0.02318884 0.02271153 -0.01032905
v 0.02319059 0.03218645 -0.00566099
v 0.02319059 0.03659901 -0.01032905
v 0.01749857 0.03659901 -0.00466239
v 0.01509891 0.02512716 -0.01032905
v 0.01543824 0.02495180 -0.01032905
v 0.01628047 0.02459292 -0.01032905
v 0.01703569 0.02437542 -0.01032905
v 0.02319059 0.03005765 -0.01032905
v 0.02319059 0.03005765 -0.00691831
v 0.02319059 0.03077677 -0.00645109
v 0.00541326 0.03659901 -0.01032905
v 0.01611168 0.03659901 -0.00502292
v 0.00923984 0.03659901 -0.00684718
v 0.00788427 0.03659901 -0.00725095
v 0.01389473 0.02594415 -0.01032905
v 0.00541326 0.03203012 -0.01032905
v 0.00541326 0.03659901 -0.00809405
f 1 2 3
f 1 3 12
f 1 12 11
f 1 11 10
f 1 10 4
f 1 4 13
f 1 13 19
f 1 19 16
f 1 16 15
f 1 15 14
f 1 14 5
f 1 5 6
f 1 6 7
f 1 7 8
f 1 8 9
f 1 9 2
f 2 10 11
f 2 11 12
f 2 12 3
f 2 9 8
f 2 8 7
f 2 7 6
f 2 6 17
f 2 17 18
f 2 18 13
f 2 13 4
f 2 4 10
f 5 14 6
f 6 14 15
f 6 15 16
f 6 16 17
f 13 18 19
f 16 19 17
f 17 19 18

