# https://github.com/mikedh/trimesh
v 0.05473602 0.01949916 0.00361110
v 0.05503910 0.01865188 0.00361110
v 0.05461854 0.01949916 0.00289587
v 0.04370262 0.01949916 0.00361110
v 0.05520426 0.01817935 0.00361110
v 0.05512934 0.01817664 0.00313881
v 0.05477859 0.01818931 0.00140632
v 0.05426949 0.01949916 0.00117047
v 0.03982049 0.01949916 -0.00242752
v 0.04673680 0.01025237 0.00361110
v 0.05558737 0.01701977 0.00361110
v 0.05562823 0.01677898 0.00336816
v 0.05529621 0.01678532 0.00165694
v 0.05437505 0.01818478 -0.00031613
v 0.05424395 0.01949916 0.00106053
v 0.05489607 0.01678351 -0.00007083
v 0.04318840 0.01025237 -0.00242752
v 0.05332620 0.01949916 -0.00242752
v 0.05721513 0.01025237 0.00361110
v 0.05566228 0.01677989 0.00361110
v 0.05576444 0.01538404 0.00187801
v 0.05606412 0.01538133 0.00356854
v 0.05537112 0.01538585 0.00014551
v 0.05443975 0.01677446 -0.00180628
v 0.05379273 0.01826897 -0.00238142
v 0.05386084 0.01949916 -0.00056558
v 0.05485180 0.01534512 -0.00189613
v 0.05585809 0.01025237 -0.00242752
v 0.05335174 0.01949916 -0.00235068
v 0.05377741 0.01826897 -0.00242752
v 0.05702443 0.01025237 0.00246851
v 0.05683714 0.01118474 0.00237807
v 0.05703975 0.01118293 0.00361110
v 0.05606922 0.01538133 0.00361110
v 0.05580701 0.01398277 0.00035771
v 0.05617138 0.01398548 0.00206539
v 0.05615776 0.01503644 0.00361110
v 0.05535920 0.01398639 -0.00140493
v 0.05426949 0.01672105 -0.00242752
v 0.05465429 0.01547094 -0.00242752
v 0.05379444 0.01821828 -0.00242752
v 0.05335514 0.01949916 -0.00234004
v 0.05382338 0.01949916 -0.00070507
v 0.05483989 0.01478569 -0.00242752
v 0.05568782 0.01118474 -0.00242752
v 0.05607604 0.01118384 -0.00106328
v 0.05625652 0.01025237 -0.00098703
v 0.05667538 0.01025237 0.00075611
v 0.05649319 0.01118655 0.00066745
v 0.05652554 0.01258602 0.00222794
v 0.05674689 0.01258602 0.00361110
v 0.05575252 0.01258240 -0.00121046
v 0.05618331 0.01258059 0.00054095
v 0.05642168 0.01398367 0.00361110
v 0.05538985 0.01258330 -0.00242752
v 0.05526896 0.01308932 -0.00242752
v 0.05505102 0.01398458 -0.00242752
v 0.05561461 0.01154502 -0.00242752
f 1 2 3
f 1 3 8
f 1 8 15
f 1 15 26
f 1 26 43
f 1 43 42
f 1 42 29
f 1 29 18
f 1 18 9
f 1 9 4
f 1 4 10
f 1 10 19
f 1 19 33
f 1 33 51
f 1 51 54
f 1 54 37
f 1 37 34
f 1 34 20
f 1 20 11
f 1 11 5
f 1 5 2
f 2 5 6
f 2 6 3
f 3 6 7
f 3 7 8
f 4 9 10
f 5 11 12
f 5 12 6
f 6 12 13
f 6 13 7
f 7 14 15
f 7 15 8
f 7 13 16
f 7 16 14
f 9 17 10
f 9 18 30
f 9 30 41
f 9 41 39
f 9 39 40
f 9 40 44
f 9 44 57
f 9 57 56
f 9 56 55
f 9 55 58
f 9 58 45
f 9 45 28
f 9 28 17
f 10 17 28
f 10 28 47
f 10 47 48
f 10 48 31
f 10 31 19
f 11 20 12
f 12 21 13
f 12 20 22
f 12 22 21
f 13 23 16
f 13 21 23
f 14 24 25
f 14 25 26
f 14 26 15
f 14 16 24
f 16 23 27
f 16 27 24
f 18 29 25
f 18 25 30
f 19 31 32
f 19 32 33
f 20 34 22
f 21 35 23
f 21 22 36
f 21 36 35
f 22 34 37
f 22 37 36
f 23 38 27
f 23 35 38
f 24 39 25
f 24 27 40
f 24 40 39
f 25 41 30
f 25 29 42
f 25 42 43
f 25 43 26
f 25 39 41
f 27 44 40
f 27 38 44
f 28 45 46
f 28 46 47
f 31 48 49
f 31 49 32
f 32 49 50
f 32 50 33
f 33 50 51
f 35 52 38
f 35 36 53
f 35 53 52
f 36 37 54
f 36 54 50
f 36 50 53
f 38 52 55
f 38 55 56
f 38 56 57
f 38 57 44
f 45 58 52
f 45 52 46
f 46 53 49
f 46 49 47
f 46 52 53
f 47 49 48
f 49 53 50
f 50 54 51
f 52 58 55

