# https://github.com/mikedh/trimesh
v 0.05795283 0.01025137 0.01107232
v 0.05803793 0.00978463 0.01107232
v 0.05793767 0.01025137 0.01078926
v 0.04929111 0.01025137 0.01107232
v 0.05801461 0.00978463 0.01064773
v 0.05820697 0.00867186 0.01107232
v 0.05792718 0.01025137 0.01060740
v 0.04684415 0.01025137 0.00384305
v 0.05034614 0.00002116 0.01107232
v 0.05788871 0.00978463 0.00904280
v 0.05823378 0.00838040 0.01076591
v 0.05811837 0.00838341 0.00915319
v 0.05824893 0.00838040 0.01107232
v 0.05784324 0.01025137 0.00953815
v 0.04790267 0.00002116 0.00384305
v 0.05725336 0.01025137 0.00384305
v 0.05875372 0.00002116 0.01107232
v 0.05779894 0.01025137 0.00900529
v 0.05798430 0.00838641 0.00753269
v 0.05774882 0.00978663 0.00742796
v 0.05841681 0.00698219 0.01085153
v 0.05830956 0.00698319 0.00924802
v 0.05817433 0.00698619 0.00760983
v 0.05842730 0.00698219 0.01107232
v 0.05808339 0.00002116 0.00384305
v 0.05730349 0.01025137 0.00414097
v 0.05726968 0.01016623 0.00384305
v 0.05868377 0.00002116 0.00955584
v 0.05875139 0.00085648 0.01107232
v 0.05765556 0.01025137 0.00738763
v 0.05783625 0.00837940 0.00594687
v 0.05759726 0.00978262 0.00582657
v 0.05851823 0.00560100 0.01028825
v 0.05845178 0.00531455 0.00887792
v 0.05822096 0.00558898 0.00656464
v 0.05802044 0.00698119 0.00602683
v 0.05854971 0.00563205 0.01107232
v 0.05808339 0.00019844 0.00384305
v 0.05825360 0.00002116 0.00497457
v 0.05739792 0.00978463 0.00418130
v 0.05734196 0.00978463 0.00384305
v 0.05750051 0.01025137 0.00578057
v 0.05867211 0.00002116 0.00934001
v 0.05869426 0.00173888 0.00991603
v 0.05873856 0.00196123 0.01107232
v 0.05781643 0.00698119 0.00439430
v 0.05762991 0.00838140 0.00430160
v 0.05863014 0.00458839 0.01107232
v 0.05863714 0.00449324 0.01107232
v 0.05858351 0.00429593 0.00972567
v 0.05840398 0.00465951 0.00766502
v 0.05852872 0.00385223 0.00852693
v 0.05812653 0.00423984 0.00494060
v 0.05796216 0.00558197 0.00446294
v 0.05832121 0.00388027 0.00633253
v 0.05822096 0.00138532 0.00477714
v 0.05807756 0.00138532 0.00384305
v 0.05832121 0.00002116 0.00546921
v 0.05749934 0.00874097 0.00384305
v 0.05859400 0.00002116 0.00823184
v 0.05861965 0.00091858 0.00853613
v 0.05855903 0.00260024 0.00819363
v 0.05871408 0.00279956 0.01095909
v 0.05872108 0.00272945 0.01107232
v 0.05786423 0.00558297 0.00384305
v 0.05772667 0.00698219 0.00384305
v 0.05760426 0.00798177 0.00384305
v 0.05755297 0.00838241 0.00384305
v 0.05866745 0.00387126 0.01107232
v 0.05836784 0.00221764 0.00610043
v 0.05805308 0.00325328 0.00403270
v 0.05801578 0.00340151 0.00384305
v 0.05796332 0.00421080 0.00384305
v 0.05790503 0.00504812 0.00384305
v 0.05838300 0.00050192 0.00594474
v 0.05803909 0.00276250 0.00384305
v 0.05842147 0.00002116 0.00631980
v 0.05856486 0.00002116 0.00789005
v 0.05850541 0.00138632 0.00719798
v 0.05871758 0.00282160 0.01107232
v 0.05802627 0.00317716 0.00384305
v 0.05846460 0.00002116 0.00676278
f 1 2 3
f 1 3 7
f 1 7 14
f 1 14 18
f 1 18 30
f 1 30 42
f 1 42 26
f 1 26 16
f 1 16 8
f 1 8 4
f 1 4 9
f 1 9 17
f 1 17 29
f 1 29 45
f 1 45 64
f 1 64 80
f 1 80 69
f 1 69 49
f 1 49 48
f 1 48 37
f 1 37 24
f 1 24 13
f 1 13 6
f 1 6 2
f 2 5 3
f 2 6 5
f 3 5 7
f 4 8 9
f 5 10 7
f 5 6 11
f 5 11 12
f 5 12 10
f 6 13 11
f 7 10 14
f 8 15 9
f 8 16 27
f 8 27 41
f 8 41 59
f 8 59 68
f 8 68 67
f 8 67 66
f 8 66 65
f 8 65 74
f 8 74 73
f 8 73 72
f 8 72 81
f 8 81 76
f 8 76 57
f 8 57 38
f 8 38 25
f 8 25 15
f 9 15 25
f 9 25 39
f 9 39 58
f 9 58 77
f 9 77 82
f 9 82 78
f 9 78 60
f 9 60 43
f 9 43 28
f 9 28 17
f 10 18 14
f 10 12 19
f 10 19 20
f 10 20 18
f 11 13 21
f 11 21 22
f 11 22 12
f 12 22 23
f 12 23 19
f 13 24 21
f 16 26 27
f 17 28 29
f 18 20 30
f 19 31 20
f 19 23 31
f 20 32 30
f 20 31 32
f 21 24 33
f 21 33 22
f 22 33 34
f 22 34 23
f 23 34 35
f 23 35 36
f 23 36 31
f 24 37 33
f 25 38 39
f 26 40 41
f 26 41 27
f 26 42 32
f 26 32 40
f 28 43 44
f 28 44 29
f 29 44 45
f 30 32 42
f 31 36 46
f 31 46 47
f 31 47 40
f 31 40 32
f 33 37 48
f 33 48 49
f 33 49 50
f 33 50 34
f 34 51 35
f 34 50 52
f 34 52 51
f 35 53 54
f 35 54 36
f 35 51 55
f 35 55 53
f 36 54 46
f 38 56 39
f 38 57 56
f 39 56 58
f 40 47 41
f 41 47 59
f 43 60 61
f 43 61 44
f 44 61 62
f 44 62 50
f 44 50 63
f 44 63 64
f 44 64 45
f 46 54 65
f 46 65 66
f 46 66 47
f 47 66 67
f 47 67 68
f 47 68 59
f 49 69 50
f 50 69 63
f 50 62 52
f 51 52 55
f 52 62 55
f 53 55 70
f 53 70 71
f 53 71 72
f 53 72 73
f 53 73 54
f 54 73 74
f 54 74 65
f 55 62 70
f 56 70 75
f 56 75 58
f 56 57 76
f 56 76 71
f 56 71 70
f 58 75 77
f 60 78 79
f 60 79 61
f 61 79 62
f 62 79 70
f 63 80 64
f 63 69 80
f 70 79 75
f 71 76 81
f 71 81 72
f 75 79 77
f 77 79 82
f 78 82 79

