# https://github.com/mikedh/trimesh
v 0.05520867 -0.01762208 0.00388476
v 0.05500873 -0.01821591 0.00388476
v 0.05486368 -0.01821433 0.00300565
v 0.05507930 -0.01762208 0.00310771
v 0.04437510 -0.01762208 0.00388476
v 0.05469708 -0.01908381 0.00388476
v 0.05472060 -0.01762208 0.00139020
v 0.05493229 -0.01762208 0.00238201
v 0.05430309 -0.01961148 0.00275019
v 0.05449518 -0.01821748 0.00128438
v 0.04023533 -0.01762208 -0.00251195
v 0.03754605 -0.02811721 0.00388476
v 0.05450106 -0.01961463 0.00388476
v 0.05454419 -0.01762208 0.00064508
v 0.05392283 -0.01961936 0.00101388
v 0.05406984 -0.02075188 0.00388476
v 0.05370526 -0.02101808 0.00245903
v 0.05406592 -0.01821591 -0.00045694
v 0.03518411 -0.02608529 -0.00251195
v 0.03518411 -0.03194006 0.00388476
v 0.03745197 -0.02783369 0.00343957
v 0.05370329 -0.01762208 -0.00251195
v 0.03709523 -0.02884177 0.00388476
v 0.05429525 -0.01762208 -0.00035550
v 0.05331127 -0.02101493 0.00073587
v 0.05348376 -0.01961778 -0.00073119
v 0.05396595 -0.02101808 0.00388476
v 0.05339360 -0.02241365 0.00386598
v 0.05306430 -0.02241365 0.00216850
v 0.05358765 -0.01821591 -0.00222392
v 0.05382286 -0.01762208 -0.00211497
v 0.03518411 -0.03371367 -0.00251195
v 0.03518411 -0.03371367 0.00388476
v 0.05375230 -0.01762208 -0.00235353
v 0.05359157 -0.01795286 -0.00251195
v 0.05264875 -0.02241995 0.00041967
v 0.05285849 -0.02101965 -0.00102736
v 0.05299373 -0.01961778 -0.00250506
v 0.05340144 -0.02240104 0.00388476
v 0.05338772 -0.02243255 0.00388476
v 0.05277028 -0.02381552 0.00388476
v 0.05271736 -0.02381394 0.00355040
v 0.05236258 -0.02381709 0.00183476
v 0.05299177 -0.01961778 -0.00251195
v 0.05350140 -0.01820646 -0.00251195
v 0.04513954 -0.03371367 -0.00251195
v 0.04284817 -0.03371367 0.00388476
v 0.05194115 -0.02381867 0.00009282
v 0.05219009 -0.02241680 -0.00133417
v 0.05298001 -0.01964771 -0.00251195
v 0.05232534 -0.02129215 -0.00251195
v 0.05243902 -0.02101650 -0.00251195
v 0.05260171 -0.02416677 0.00388476
v 0.05209600 -0.02521266 0.00388476
v 0.05198427 -0.02520951 0.00321353
v 0.05161577 -0.02521896 0.00148412
v 0.04518071 -0.03366011 -0.00251195
v 0.04544728 -0.03371367 -0.00165789
v 0.04660179 -0.03371367 0.00234194
v 0.04691737 -0.03371052 0.00388476
v 0.05117474 -0.02521739 -0.00026408
v 0.05146680 -0.02381394 -0.00166540
v 0.05158245 -0.02299960 -0.00251195
v 0.05184314 -0.02241522 -0.00251195
v 0.05172554 -0.02593092 0.00388476
v 0.05137076 -0.02661296 0.00388476
v 0.05118650 -0.02661453 0.00283284
v 0.05079448 -0.02662241 0.00111344
v 0.04584519 -0.03276543 -0.00251195
v 0.04620193 -0.03227557 -0.00251195
v 0.04685073 -0.03221571 -0.00073495
v 0.04548453 -0.03371367 -0.00154581
v 0.04657631 -0.03371367 0.00222485
v 0.04665864 -0.03361916 0.00226242
v 0.04699185 -0.03361286 0.00388476
v 0.05032994 -0.02661611 -0.00065730
v 0.05065924 -0.02522054 -0.00205298
v 0.05120023 -0.02381237 -0.00251195
v 0.05073568 -0.02476690 -0.00251195
v 0.05074352 -0.02776123 0.00388476
v 0.05032405 -0.02801483 0.00243148
v 0.04992027 -0.02801325 0.00069893
v 0.05012804 -0.02732492 0.00001768
v 0.04676448 -0.03148170 -0.00251195
v 0.04716042 -0.03103751 -0.00227589
v 0.04620389 -0.03361758 0.00050795
v 0.04797583 -0.03080912 -0.00020210
v 0.04736232 -0.03222044 0.00104394
v 0.04576678 -0.03371367 -0.00065042
v 0.04615292 -0.03371367 0.00059123
v 0.04777590 -0.03221256 0.00278901
v 0.04707026 -0.03350260 0.00388476
v 0.04941064 -0.02804633 -0.00109623
v 0.04979678 -0.02661453 -0.00244871
v 0.04980266 -0.02656255 -0.00251195
v 0.05050438 -0.02522054 -0.00251195
v 0.05059847 -0.02801798 0.00388476
v 0.05013392 -0.02881815 0.00388476
v 0.04975170 -0.02941512 0.00370819
v 0.04940868 -0.02941670 0.00200069
v 0.04898725 -0.02941670 0.00026063
v 0.04706046 -0.03105484 -0.00251195
v 0.04729175 -0.03070516 -0.00251195
v 0.04812676 -0.02941355 -0.00251195
v 0.04846979 -0.02941197 -0.00152013
v 0.04610980 -0.03371367 0.00043845
v 0.04843646 -0.03081069 0.00155550
v 0.04798172 -0.03221414 0.00388476
v 0.04879908 -0.03081857 0.00325987
v 0.04843842 -0.03153368 0.00388476
v 0.04875596 -0.02839758 -0.00251195
v 0.04897746 -0.02802113 -0.00251195
v 0.04966153 -0.02681615 -0.00251195
v 0.04977522 -0.02661453 -0.00251195
v 0.04978110 -0.02941512 0.00388476
v 0.04890885 -0.03081699 0.00388476
f 1 2 3
f 1 3 4
f 1 4 8
f 1 8 7
f 1 7 14
f 1 14 24
f 1 24 31
f 1 31 34
f 1 34 22
f 1 22 11
f 1 11 5
f 1 5 12
f 1 12 23
f 1 23 20
f 1 20 33
f 1 33 47
f 1 47 60
f 1 60 75
f 1 75 92
f 1 92 108
f 1 108 110
f 1 110 116
f 1 116 115
f 1 115 98
f 1 98 97
f 1 97 80
f 1 80 66
f 1 66 65
f 1 65 54
f 1 54 53
f 1 53 41
f 1 41 40
f 1 40 39
f 1 39 27
f 1 27 16
f 1 16 13
f 1 13 6
f 1 6 2
f 2 6 3
f 3 7 8
f 3 8 4
f 3 6 9
f 3 9 10
f 3 10 7
f 5 11 12
f 6 13 9
f 7 10 14
f 9 15 10
f 9 13 16
f 9 16 17
f 9 17 15
f 10 15 18
f 10 18 14
f 11 19 20
f 11 20 21
f 11 21 12
f 11 22 35
f 11 35 45
f 11 45 44
f 11 44 50
f 11 50 52
f 11 52 51
f 11 51 64
f 11 64 63
f 11 63 78
f 11 78 79
f 11 79 96
f 11 96 95
f 11 95 114
f 11 114 113
f 11 113 112
f 11 112 111
f 11 111 104
f 11 104 103
f 11 103 102
f 11 102 84
f 11 84 70
f 11 70 69
f 11 69 57
f 11 57 46
f 11 46 32
f 11 32 19
f 12 21 23
f 14 18 24
f 15 17 25
f 15 25 26
f 15 26 18
f 16 27 17
f 17 28 29
f 17 29 25
f 17 27 28
f 18 26 30
f 18 30 31
f 18 31 24
f 19 32 33
f 19 33 20
f 20 23 21
f 22 34 35
f 25 29 36
f 25 36 37
f 25 37 26
f 26 37 38
f 26 38 30
f 27 39 28
f 28 39 40
f 28 40 41
f 28 41 42
f 28 42 29
f 29 42 43
f 29 43 36
f 30 38 44
f 30 44 45
f 30 45 35
f 30 35 34
f 30 34 31
f 32 46 58
f 32 58 72
f 32 72 89
f 32 89 106
f 32 106 90
f 32 90 73
f 32 73 59
f 32 59 47
f 32 47 33
f 36 43 48
f 36 48 49
f 36 49 37
f 37 50 38
f 37 49 51
f 37 51 52
f 37 52 50
f 38 50 44
f 41 53 42
f 42 53 54
f 42 54 55
f 42 55 43
f 43 55 56
f 43 56 48
f 46 57 58
f 47 59 60
f 48 56 61
f 48 61 62
f 48 62 49
f 49 62 63
f 49 63 64
f 49 64 51
f 54 65 55
f 55 65 66
f 55 66 67
f 55 67 56
f 56 67 68
f 56 68 61
f 57 69 58
f 58 69 70
f 58 70 71
f 58 71 72
f 59 73 74
f 59 74 60
f 60 74 75
f 61 68 76
f 61 76 77
f 61 77 62
f 62 78 63
f 62 77 79
f 62 79 78
f 66 80 67
f 67 80 81
f 67 81 68
f 68 81 82
f 68 82 83
f 68 83 76
f 70 84 85
f 70 85 71
f 71 86 72
f 71 85 87
f 71 87 88
f 71 88 86
f 72 86 89
f 73 90 74
f 74 90 86
f 74 86 88
f 74 88 91
f 74 91 75
f 75 91 92
f 76 83 93
f 76 93 94
f 76 94 77
f 77 94 95
f 77 95 96
f 77 96 79
f 80 97 81
f 81 97 98
f 81 98 99
f 81 99 100
f 81 100 82
f 82 100 101
f 82 101 93
f 82 93 83
f 84 102 85
f 85 102 103
f 85 103 104
f 85 104 105
f 85 105 87
f 86 90 106
f 86 106 89
f 87 105 101
f 87 101 107
f 87 107 88
f 88 107 91
f 91 108 92
f 91 107 109
f 91 109 110
f 91 110 108
f 93 101 105
f 93 105 111
f 93 111 112
f 93 112 94
f 94 113 114
f 94 114 95
f 94 112 113
f 98 115 99
f 99 115 116
f 99 116 109
f 99 109 100
f 100 109 107
f 100 107 101
f 104 111 105
f 109 116 110

