# https://github.com/mikedh/trimesh
v -0.04731644 0.01942376 0.01387345
v -0.04920303 0.01404247 0.01387345
v -0.05548624 0.01942376 0.01387345
v -0.04922989 0.01942376 0.02860436
v -0.05110785 0.01404247 0.02928942
v -0.05708990 0.01404247 0.01387345
v -0.05591977 0.01818367 0.01387345
v -0.05594087 0.01818472 0.01466805
v -0.05551214 0.01942376 0.01486520
v -0.04924907 0.01942376 0.02874774
v -0.05128337 0.01404247 0.03056994
v -0.05673694 0.01538476 0.01387345
v -0.05709565 0.01404247 0.01412836
v -0.05674749 0.01538529 0.01429365
v -0.05634850 0.01678500 0.01387345
v -0.05636384 0.01678553 0.01447288
v -0.05638111 0.01678237 0.01600432
v -0.05595046 0.01818683 0.01621144
v -0.05552077 0.01942376 0.01623135
v -0.04942939 0.01942376 0.03005016
v -0.05129584 0.01404247 0.03065756
v -0.05648565 0.01629350 0.01387345
v -0.05709661 0.01404247 0.01419208
v -0.05677051 0.01538529 0.01582708
v -0.05676284 0.01538581 0.01737645
v -0.05636864 0.01678184 0.01755369
v -0.05593511 0.01818103 0.01775682
v -0.05551981 0.01942376 0.01657189
v -0.05552173 0.01942376 0.01640063
v -0.04945048 0.01942376 0.03019156
v -0.05143587 0.01404247 0.03151191
v -0.05711483 0.01404247 0.01566179
v -0.05710620 0.01404247 0.01721315
v -0.05708031 0.01404247 0.01870675
v -0.05672639 0.01538529 0.01893776
v -0.05632548 0.01678342 0.01912297
v -0.05550351 0.01942376 0.01796393
v -0.05588044 0.01818261 0.01932809
v -0.04962409 0.01942376 0.03116340
v -0.04966245 0.01942376 0.03136454
v -0.05145217 0.01404247 0.03159356
v -0.05704002 0.01404247 0.02033179
v -0.05699782 0.01404247 0.02183137
v -0.05667939 0.01538740 0.02050704
v -0.05661993 0.01538476 0.02207632
v -0.05626026 0.01678658 0.02070220
v -0.05544884 0.01942376 0.01953122
v -0.05574329 0.01818577 0.02248656
v -0.05538745 0.01942376 0.02110846
v -0.05539513 0.01942376 0.02092525
v -0.04970849 0.01942376 0.03155173
v -0.05159508 0.01404247 0.03214718
v -0.05693164 0.01404247 0.02347035
v -0.05619024 0.01678500 0.02227746
v -0.05654799 0.01538581 0.02365555
v -0.05531744 0.01942376 0.02268172
v -0.05610871 0.01678132 0.02385271
v -0.05565984 0.01818367 0.02406380
v -0.05530785 0.01942376 0.02286295
v -0.04988689 0.01942376 0.03221489
v -0.05179746 0.01404247 0.03273268
v -0.05679928 0.01404247 0.02506950
v -0.05641468 0.01538529 0.02526068
v -0.05598307 0.01678184 0.02545584
v -0.05522824 0.01942376 0.02426494
v -0.05558504 0.01677552 0.03024732
v -0.05525126 0.01818367 0.02889113
v -0.04995786 0.01942376 0.03237820
v -0.05183678 0.01404247 0.03282229
v -0.05637439 0.01404247 0.02980920
v -0.05600705 0.01529415 0.03026325
v -0.05478321 0.01942376 0.02929142
v -0.05583824 0.01559864 0.03101603
v -0.05535580 0.01713691 0.03121518
v -0.05509492 0.01821106 0.03054405
v -0.05020436 0.01942376 0.03288204
v -0.05214658 0.01404247 0.03329626
v -0.05627081 0.01404247 0.03079099
v -0.05614804 0.01453924 0.03079498
v -0.05460769 0.01942376 0.03080294
v -0.05616147 0.01404247 0.03140636
v -0.05612118 0.01404247 0.03162143
v -0.05573274 0.01548327 0.03170906
v -0.05519467 0.01684190 0.03224078
v -0.05484267 0.01851292 0.03146809
v -0.05034343 0.01942376 0.03305131
v -0.05224633 0.01404247 0.03342173
v -0.05457124 0.01942376 0.03103993
v -0.05608473 0.01404247 0.03176084
v -0.05573657 0.01475629 0.03240807
v -0.05573466 0.01404247 0.03287606
v -0.05474293 0.01768794 0.03267891
v -0.05419431 0.01923569 0.03277649
v -0.05473333 0.01831273 0.03215515
v -0.05437558 0.01942376 0.03199384
v -0.05438997 0.01942376 0.03193808
v -0.05063213 0.01942376 0.03338588
v -0.05077216 0.01942376 0.03354520
v -0.05112415 0.01942376 0.03386383
v -0.05250145 0.01404247 0.03364079
v -0.05589387 0.01404247 0.03246184
v -0.05566368 0.01404247 0.03302941
v -0.05439956 0.01795714 0.03315089
v -0.05385190 0.01942376 0.03319868
v -0.05408688 0.01942376 0.03283424
v -0.05412237 0.01942376 0.03277251
v -0.05430173 0.01942376 0.03222286
v -0.05130159 0.01942376 0.03391163
v -0.05318147 0.01526044 0.03418645
v -0.05310666 0.01404247 0.03408887
v -0.05309803 0.01404247 0.03408489
v -0.05264149 0.01404247 0.03375829
v -0.05559463 0.01404247 0.03312898
v -0.05546035 0.01404247 0.03330821
v -0.05514863 0.01490800 0.03337393
v -0.05451465 0.01678448 0.03345956
v -0.05371858 0.01942376 0.03340181
v -0.05152603 0.01942376 0.03395942
v -0.05238252 0.01942376 0.03412272
v -0.05309132 0.01671810 0.03418247
v -0.05357855 0.01404247 0.03421234
v -0.05187131 0.01942376 0.03402912
v -0.05503066 0.01404247 0.03376028
v -0.05459042 0.01525675 0.03387578
v -0.05371762 0.01827270 0.03378218
v -0.05366871 0.01942376 0.03345558
v -0.05239787 0.01942376 0.03412272
v -0.05310474 0.01817418 0.03410878
v -0.05422308 0.01404247 0.03417450
v -0.05361883 0.01404247 0.03421433
v -0.05469881 0.01404247 0.03402514
v -0.05310187 0.01942376 0.03394150
v -0.05314790 0.01942376 0.03391760
v -0.05346058 0.01942376 0.03365074
v -0.05264820 0.01942376 0.03408489
v -0.05302801 0.01942376 0.03397934
v -0.05461152 0.01404247 0.03405700
f 1 2 6
f 1 6 12
f 1 12 22
f 1 22 15
f 1 15 7
f 1 7 3
f 1 3 9
f 1 9 19
f 1 19 29
f 1 29 28
f 1 28 37
f 1 37 47
f 1 47 50
f 1 50 49
f 1 49 56
f 1 56 59
f 1 59 65
f 1 65 72
f 1 72 80
f 1 80 88
f 1 88 96
f 1 96 95
f 1 95 107
f 1 107 106
f 1 106 105
f 1 105 104
f 1 104 117
f 1 117 126
f 1 126 134
f 1 134 133
f 1 133 132
f 1 132 136
f 1 136 135
f 1 135 127
f 1 127 119
f 1 119 122
f 1 122 118
f 1 118 108
f 1 108 99
f 1 99 98
f 1 98 97
f 1 97 86
f 1 86 76
f 1 76 68
f 1 68 60
f 1 60 51
f 1 51 40
f 1 40 39
f 1 39 30
f 1 30 20
f 1 20 10
f 1 10 4
f 1 4 5
f 1 5 2
f 2 5 11
f 2 11 21
f 2 21 31
f 2 31 41
f 2 41 52
f 2 52 61
f 2 61 69
f 2 69 77
f 2 77 87
f 2 87 100
f 2 100 112
f 2 112 111
f 2 111 110
f 2 110 121
f 2 121 130
f 2 130 129
f 2 129 137
f 2 137 131
f 2 131 123
f 2 123 114
f 2 114 113
f 2 113 102
f 2 102 91
f 2 91 101
f 2 101 89
f 2 89 82
f 2 82 81
f 2 81 78
f 2 78 70
f 2 70 62
f 2 62 53
f 2 53 43
f 2 43 42
f 2 42 34
f 2 34 33
f 2 33 32
f 2 32 23
f 2 23 13
f 2 13 6
f 3 7 8
f 3 8 9
f 4 10 5
f 5 10 11
f 6 13 14
f 6 14 12
f 7 15 8
f 8 15 16
f 8 16 17
f 8 17 18
f 8 18 9
f 9 18 19
f 10 20 11
f 11 20 21
f 12 14 22
f 13 23 14
f 14 23 24
f 14 24 16
f 14 16 22
f 15 22 16
f 16 24 17
f 17 24 25
f 17 25 26
f 17 26 18
f 18 26 27
f 18 27 28
f 18 28 29
f 18 29 19
f 20 30 21
f 21 30 31
f 23 32 24
f 24 32 25
f 25 32 33
f 25 33 34
f 25 34 35
f 25 35 26
f 26 35 36
f 26 36 27
f 27 37 28
f 27 36 38
f 27 38 37
f 30 39 31
f 31 39 40
f 31 40 41
f 34 42 35
f 35 42 43
f 35 43 44
f 35 44 36
f 36 44 45
f 36 45 46
f 36 46 38
f 37 38 47
f 38 46 48
f 38 48 49
f 38 49 50
f 38 50 47
f 40 51 41
f 41 51 52
f 43 53 45
f 43 45 44
f 45 54 46
f 45 53 55
f 45 55 54
f 46 54 48
f 48 56 49
f 48 54 57
f 48 57 58
f 48 58 59
f 48 59 56
f 51 60 52
f 52 60 61
f 53 62 55
f 54 55 57
f 55 62 63
f 55 63 64
f 55 64 57
f 57 64 58
f 58 65 59
f 58 64 66
f 58 66 67
f 58 67 65
f 60 68 61
f 61 68 69
f 62 70 71
f 62 71 63
f 63 71 66
f 63 66 64
f 65 67 72
f 66 71 73
f 66 73 74
f 66 74 75
f 66 75 67
f 67 75 72
f 68 76 69
f 69 76 77
f 70 78 79
f 70 79 71
f 71 79 73
f 72 75 80
f 73 81 82
f 73 82 83
f 73 83 74
f 73 79 81
f 74 83 84
f 74 84 85
f 74 85 75
f 75 85 80
f 76 86 87
f 76 87 77
f 78 81 79
f 80 85 88
f 82 89 90
f 82 90 83
f 83 90 84
f 84 90 91
f 84 91 92
f 84 92 93
f 84 93 94
f 84 94 85
f 85 94 95
f 85 95 96
f 85 96 88
f 86 97 87
f 87 97 98
f 87 98 99
f 87 99 100
f 89 101 90
f 90 101 91
f 91 102 92
f 92 102 103
f 92 103 93
f 93 103 104
f 93 104 105
f 93 105 106
f 93 106 107
f 93 107 95
f 93 95 94
f 99 108 109
f 99 109 110
f 99 110 111
f 99 111 112
f 99 112 100
f 102 113 103
f 103 113 114
f 103 114 115
f 103 115 116
f 103 116 117
f 103 117 104
f 108 118 109
f 109 119 120
f 109 120 121
f 109 121 110
f 109 118 122
f 109 122 119
f 114 123 124
f 114 124 115
f 115 124 116
f 116 125 126
f 116 126 117
f 116 124 125
f 119 127 120
f 120 127 128
f 120 128 129
f 120 129 130
f 120 130 121
f 123 131 124
f 124 131 132
f 124 132 133
f 124 133 125
f 125 134 126
f 125 133 134
f 127 135 128
f 128 135 136
f 128 136 131
f 128 131 137
f 128 137 129
f 131 136 132

