# https://github.com/mikedh/trimesh
v -0.01823255 -0.02924031 -0.00917421
v -0.01823255 -0.02248844 -0.01093293
v -0.02889797 -0.02924031 -0.00538249
v -0.01823255 -0.02924031 -0.02299181
v -0.02889379 -0.02248844 -0.00819603
v -0.01823255 -0.02248844 -0.02598486
v -0.02889797 -0.02248844 -0.00820813
v -0.02889797 -0.02924031 -0.02155983
v -0.01844031 -0.02924031 -0.02410513
v -0.01823255 -0.02923832 -0.02413538
v -0.01989876 -0.02924031 -0.02386109
v -0.02010860 -0.02924031 -0.02382478
v -0.02142612 -0.02801432 -0.02389739
v -0.02313931 -0.02801564 -0.02354646
v -0.02345877 -0.02772550 -0.02355251
v -0.02467502 -0.02661781 -0.02357267
v -0.02449337 -0.02521602 -0.02394580
v -0.02621491 -0.02521536 -0.02356259
v -0.02606040 -0.02381819 -0.02391151
v -0.02764205 -0.02248844 -0.02381873
v -0.02889797 -0.02248844 -0.02349805
v -0.02889797 -0.02801233 -0.02199548
v -0.02865158 -0.02924031 -0.02165059
v -0.02159525 -0.02924031 -0.02353637
v -0.02345877 -0.02924031 -0.02313299
v -0.02345773 -0.02801564 -0.02347385
v -0.02485981 -0.02801365 -0.02315316
v -0.02640805 -0.02661781 -0.02316527
v -0.02801266 -0.02522990 -0.02310073
v -0.02779447 -0.02381753 -0.02350007
v -0.02784562 -0.02248844 -0.02376831
v -0.02889797 -0.02284797 -0.02342141
v -0.02846575 -0.02801101 -0.02214876
v -0.02889797 -0.02759992 -0.02213464
v -0.02705950 -0.02924031 -0.02217498
v -0.02353290 -0.02924031 -0.02311484
v -0.02505817 -0.02924031 -0.02273971
v -0.02661998 -0.02801564 -0.02270138
v -0.02817031 -0.02661252 -0.02267113
v -0.02889797 -0.02599259 -0.02263281
v -0.02889797 -0.02585380 -0.02267113
v -0.02889797 -0.02455114 -0.02301803
v -0.02889797 -0.02389816 -0.02317333
v -0.02683086 -0.02924031 -0.02224355
v -0.02527845 -0.02924031 -0.02268323
f 1 2 3
f 1 3 8
f 1 8 23
f 1 23 35
f 1 35 44
f 1 44 45
f 1 45 37
f 1 37 36
f 1 36 25
f 1 25 24
f 1 24 12
f 1 12 11
f 1 11 9
f 1 9 4
f 1 4 10
f 1 10 6
f 1 6 2
f 2 5 3
f 2 6 20
f 2 20 31
f 2 31 21
f 2 21 7
f 2 7 5
f 3 5 7
f 3 7 21
f 3 21 32
f 3 32 43
f 3 43 42
f 3 42 41
f 3 41 40
f 3 40 34
f 3 34 22
f 3 22 8
f 4 9 10
f 6 10 9
f 6 9 11
f 6 11 12
f 6 12 13
f 6 13 14
f 6 14 15
f 6 15 16
f 6 16 17
f 6 17 18
f 6 18 19
f 6 19 20
f 8 22 23
f 12 24 13
f 13 24 14
f 14 24 25
f 14 25 26
f 14 26 15
f 15 26 27
f 15 27 16
f 16 18 17
f 16 27 28
f 16 28 18
f 18 28 29
f 18 29 30
f 18 30 19
f 19 30 20
f 20 30 31
f 21 31 30
f 21 30 32
f 22 33 23
f 22 34 33
f 23 33 35
f 25 36 27
f 25 27 26
f 27 36 37
f 27 37 38
f 27 38 28
f 28 38 39
f 28 39 29
f 29 39 40
f 29 40 41
f 29 41 42
f 29 42 30
f 30 42 43
f 30 43 32
f 33 34 40
f 33 40 39
f 33 39 38
f 33 38 35
f 35 38 44
f 37 45 38
f 38 45 44

