# https://github.com/mikedh/trimesh
v -0.03296489 0.02351429 -0.00598131
v -0.03296489 0.02288051 -0.00618193
v -0.03296489 0.02351429 -0.00618193
v -0.03829038 0.02351429 -0.00155551
v -0.04309512 0.01320432 -0.00155551
v -0.03335654 0.02206609 -0.00618193
v -0.05010533 0.02351429 -0.00618193
v -0.05172223 0.02351429 -0.00155551
v -0.03809565 0.01320432 -0.00618193
v -0.03396479 0.02083790 -0.00618193
v -0.03340030 0.02197627 -0.00618193
v -0.05531485 0.01320432 -0.00155551
v -0.05062606 0.02238500 -0.00618193
v -0.05068295 0.02238500 -0.00605196
v -0.05024973 0.02351429 -0.00585088
v -0.05170910 0.02351429 -0.00160442
v -0.05224515 0.02238197 -0.00155551
v -0.05383141 0.01320432 -0.00618193
v -0.05525577 0.01347075 -0.00155551
v -0.05519889 0.01320432 -0.00197938
v -0.05121900 0.02098625 -0.00618193
v -0.05117962 0.02238399 -0.00478349
v -0.05115773 0.02243344 -0.00478349
v -0.05034819 0.02351429 -0.00560045
v -0.05169816 0.02098322 -0.00498139
v -0.05163252 0.02351429 -0.00186300
v -0.05209418 0.02238197 -0.00207720
v -0.05252083 0.02172902 -0.00155551
v -0.05390362 0.01320432 -0.00600939
v -0.05363450 0.01398645 -0.00618193
v -0.05513325 0.01398443 -0.00155551
v -0.05503698 0.01398443 -0.00190647
v -0.05464533 0.01399250 -0.00326234
v -0.05480724 0.01320432 -0.00333932
v -0.05177036 0.01958245 -0.00618193
v -0.05216420 0.01958346 -0.00519877
v -0.05127370 0.02216096 -0.00478349
v -0.05217951 0.02098322 -0.00366176
v -0.05166097 0.02238500 -0.00341857
v -0.05074859 0.02351429 -0.00453895
v -0.05177036 0.02098322 -0.00478349
v -0.05265648 0.01957943 -0.00388457
v -0.05121025 0.02351429 -0.00320845
v -0.05261054 0.02098120 -0.00231903
v -0.05283371 0.02098120 -0.00155551
v -0.05416617 0.01320432 -0.00527530
v -0.05373734 0.01398645 -0.00593240
v -0.05354698 0.01429224 -0.00618193
v -0.05484225 0.01514299 -0.00155551
v -0.05472629 0.01537914 -0.00176382
v -0.05437622 0.01320432 -0.00468658
v -0.05456876 0.01320432 -0.00409152
v -0.05431714 0.01538722 -0.00311289
v -0.05420774 0.01398645 -0.00460778
v -0.05229328 0.01818875 -0.00618193
v -0.05260616 0.01818774 -0.00540482
v -0.05262804 0.01875592 -0.00478349
v -0.05309626 0.01958245 -0.00254501
v -0.05283808 0.01818673 -0.00478349
v -0.05309407 0.01818471 -0.00408835
v -0.05304156 0.02045541 -0.00155551
v -0.05419899 0.01378057 -0.00478349
v -0.05384454 0.01507235 -0.00478349
v -0.05339164 0.01538217 -0.00577209
v -0.05322754 0.01538217 -0.00618193
v -0.05414648 0.01398645 -0.00478349
v -0.05478099 0.01537914 -0.00155551
v -0.05472629 0.01556786 -0.00155551
v -0.05436090 0.01678395 -0.00155551
v -0.05435215 0.01678395 -0.00158675
v -0.05394519 0.01678395 -0.00294126
v -0.05387517 0.01538520 -0.00445200
v -0.05277901 0.01678697 -0.00618193
v -0.05301750 0.01678899 -0.00559592
v -0.05353385 0.01818673 -0.00274834
v -0.05387955 0.01818774 -0.00155551
v -0.05338070 0.01958447 -0.00155551
v -0.05305907 0.01754085 -0.00478349
v -0.05350104 0.01678496 -0.00427674
v -0.05362793 0.01579191 -0.00478349
v -0.05295842 0.01623091 -0.00618193
f 1 2 3
f 1 3 7
f 1 7 15
f 1 15 24
f 1 24 40
f 1 40 43
f 1 43 26
f 1 26 16
f 1 16 8
f 1 8 4
f 1 4 2
f 2 4 5
f 2 5 6
f 2 6 11
f 2 11 10
f 2 10 9
f 2 9 18
f 2 18 30
f 2 30 48
f 2 48 65
f 2 65 81
f 2 81 73
f 2 73 55
f 2 55 35
f 2 35 21
f 2 21 13
f 2 13 7
f 2 7 3
f 4 8 17
f 4 17 28
f 4 28 45
f 4 45 61
f 4 61 77
f 4 77 76
f 4 76 69
f 4 69 68
f 4 68 67
f 4 67 49
f 4 49 31
f 4 31 19
f 4 19 12
f 4 12 5
f 5 9 10
f 5 10 11
f 5 11 6
f 5 12 20
f 5 20 34
f 5 34 52
f 5 52 51
f 5 51 46
f 5 46 29
f 5 29 18
f 5 18 9
f 7 13 14
f 7 14 15
f 8 16 17
f 12 19 20
f 13 21 14
f 14 22 23
f 14 23 24
f 14 24 15
f 14 21 25
f 14 25 22
f 16 26 27
f 16 27 17
f 17 27 28
f 18 29 30
f 19 31 32
f 19 32 20
f 20 32 33
f 20 33 34
f 21 35 36
f 21 36 25
f 22 25 37
f 22 37 38
f 22 38 39
f 22 39 23
f 23 39 40
f 23 40 24
f 25 41 37
f 25 36 42
f 25 42 41
f 26 43 27
f 27 38 44
f 27 44 28
f 27 43 39
f 27 39 38
f 28 44 45
f 29 46 47
f 29 47 30
f 30 47 48
f 31 49 50
f 31 50 32
f 32 50 33
f 33 51 52
f 33 52 34
f 33 50 53
f 33 53 54
f 33 54 51
f 35 55 56
f 35 56 36
f 36 56 57
f 36 57 42
f 37 41 38
f 38 41 42
f 38 42 58
f 38 58 44
f 39 43 40
f 42 57 59
f 42 59 60
f 42 60 58
f 44 58 61
f 44 61 45
f 46 62 47
f 46 51 62
f 47 63 64
f 47 64 65
f 47 65 48
f 47 62 66
f 47 66 63
f 49 67 50
f 50 67 68
f 50 68 69
f 50 69 70
f 50 70 71
f 50 71 53
f 51 54 62
f 53 71 72
f 53 72 54
f 54 72 66
f 54 66 62
f 55 73 74
f 55 74 56
f 56 74 59
f 56 59 57
f 58 60 75
f 58 75 76
f 58 76 77
f 58 77 61
f 59 74 78
f 59 78 60
f 60 78 79
f 60 79 71
f 60 71 75
f 63 66 72
f 63 72 64
f 64 80 74
f 64 74 65
f 64 72 80
f 65 74 81
f 69 76 70
f 70 76 75
f 70 75 71
f 71 79 72
f 72 79 80
f 73 81 74
f 74 80 79
f 74 79 78

