# https://github.com/mikedh/trimesh
v -0.00016746 -0.05845050 0.01131085
v -0.00016746 -0.05843410 0.01090718
v 0.00119044 -0.05839660 0.01041313
v 0.00077210 -0.05843761 0.01131085
v -0.00016746 -0.05021194 0.01131085
v -0.00016746 -0.05839426 0.01001171
v -0.00007831 -0.05838488 0.00982117
v 0.00245919 -0.05838020 0.01100433
v 0.00151767 -0.05842004 0.01131085
v 0.00178220 -0.05829935 0.00914486
v 0.00304997 -0.05828412 0.00973757
v 0.00984146 -0.04907769 0.01131085
v 0.00984146 -0.04647993 0.00361692
v -0.00016746 -0.04762121 0.00361692
v -0.00016746 -0.05838606 0.00985355
v -0.00016746 -0.05838137 0.00977975
v -0.00016746 -0.05836496 0.00957716
v 0.00051345 -0.05827826 0.00855140
v 0.00311659 -0.05834387 0.01131085
v 0.00231713 -0.05839543 0.01131085
v 0.00431970 -0.05821733 0.01032727
v 0.00237493 -0.05815991 0.00787359
v 0.00364368 -0.05815874 0.00846630
v 0.00984146 -0.05752248 0.01131085
v 0.00984146 -0.05677256 0.00361692
v -0.00016746 -0.05762911 0.00361692
v -0.00016746 -0.05825248 0.00823433
v -0.00016746 -0.05809312 0.00670022
v 0.00110520 -0.05813179 0.00728389
v 0.00386216 -0.05828880 0.01131085
v 0.00490950 -0.05809195 0.00905901
v 0.00558845 -0.05810718 0.01091847
v 0.00540622 -0.05814350 0.01131085
v 0.00296571 -0.05799001 0.00660683
v 0.00423446 -0.05799704 0.00719879
v 0.00550125 -0.05793728 0.00778999
v 0.00849335 -0.05775331 0.01131085
v 0.00871575 -0.05770293 0.01083337
v 0.00984146 -0.05748733 0.01042442
v 0.00984146 -0.05677725 0.00363801
v 0.00979639 -0.05678076 0.00361692
v -0.00013121 -0.05762911 0.00361692
v -0.00016746 -0.05779081 0.00458770
v -0.00016746 -0.05787518 0.00514803
v 0.00042821 -0.05790564 0.00542442
v 0.00169696 -0.05795954 0.00601337
v 0.00618021 -0.05798063 0.00964946
v 0.00642808 -0.05802867 0.01131085
v 0.00355649 -0.05780135 0.00534083
v 0.00482426 -0.05780252 0.00593203
v 0.00609203 -0.05774277 0.00652323
v 0.00736372 -0.05763262 0.00711293
v 0.00677000 -0.05782010 0.00838195
v 0.00695027 -0.05796774 0.01131085
v 0.00745091 -0.05785291 0.01024066
v 0.00930750 -0.05754123 0.00956511
v 0.00984146 -0.05745920 0.00981288
v 0.00984146 -0.05701394 0.00510962
v 0.00854429 -0.05714986 0.00457716
v 0.00899105 -0.05691903 0.00361692
v 0.00126882 -0.05761622 0.00361692
v 0.00228872 -0.05775917 0.00474435
v 0.00281483 -0.05757404 0.00361692
v 0.00293142 -0.05756935 0.00361692
v 0.00414923 -0.05758692 0.00406955
v 0.00541798 -0.05757755 0.00465925
v 0.00668673 -0.05751193 0.00525196
v 0.00795646 -0.05740765 0.00584241
v 0.00922619 -0.05728578 0.00643361
v 0.00863443 -0.05750373 0.00770263
v 0.00804071 -0.05769121 0.00897240
v 0.00984146 -0.05735726 0.00827124
v 0.00984146 -0.05736078 0.00831793
v 0.00984146 -0.05736781 0.00841734
v 0.00984146 -0.05702449 0.00518116
v 0.00981304 -0.05702800 0.00516836
v 0.00727750 -0.05723657 0.00398369
v 0.00744798 -0.05714752 0.00361692
v 0.00317929 -0.05755880 0.00361692
v 0.00398365 -0.05751896 0.00361692
v 0.00435987 -0.05749318 0.00361692
v 0.00590294 -0.05734554 0.00361692
v 0.00984146 -0.05720845 0.00672356
v 0.00648784 -0.05727290 0.00361692
f 1 2 3
f 1 3 4
f 1 4 9
f 1 9 20
f 1 20 19
f 1 19 30
f 1 30 33
f 1 33 48
f 1 48 54
f 1 54 37
f 1 37 24
f 1 24 12
f 1 12 5
f 1 5 14
f 1 14 26
f 1 26 43
f 1 43 44
f 1 44 28
f 1 28 27
f 1 27 17
f 1 17 16
f 1 16 15
f 1 15 6
f 1 6 2
f 2 6 7
f 2 7 3
f 3 8 9
f 3 9 4
f 3 7 10
f 3 10 11
f 3 11 8
f 5 12 13
f 5 13 14
f 6 15 7
f 7 15 16
f 7 16 17
f 7 17 18
f 7 18 10
f 8 19 20
f 8 20 9
f 8 11 21
f 8 21 19
f 10 18 22
f 10 22 23
f 10 23 11
f 11 23 21
f 12 24 39
f 12 39 57
f 12 57 74
f 12 74 73
f 12 73 72
f 12 72 83
f 12 83 75
f 12 75 58
f 12 58 40
f 12 40 25
f 12 25 13
f 13 25 41
f 13 41 60
f 13 60 78
f 13 78 84
f 13 84 82
f 13 82 81
f 13 81 80
f 13 80 79
f 13 79 64
f 13 64 63
f 13 63 61
f 13 61 42
f 13 42 26
f 13 26 14
f 17 27 18
f 18 27 28
f 18 28 29
f 18 29 22
f 19 21 30
f 21 23 31
f 21 31 32
f 21 32 33
f 21 33 30
f 22 29 34
f 22 34 35
f 22 35 23
f 23 35 36
f 23 36 31
f 24 37 38
f 24 38 39
f 25 40 41
f 26 42 43
f 28 44 45
f 28 45 46
f 28 46 29
f 29 46 34
f 31 36 47
f 31 47 32
f 32 47 48
f 32 48 33
f 34 46 49
f 34 49 35
f 35 49 50
f 35 50 51
f 35 51 36
f 36 51 52
f 36 52 53
f 36 53 47
f 37 54 38
f 38 54 55
f 38 55 56
f 38 56 39
f 39 56 57
f 40 58 59
f 40 59 60
f 40 60 41
f 42 61 43
f 43 61 45
f 43 45 44
f 45 61 62
f 45 62 46
f 46 62 49
f 47 53 55
f 47 55 54
f 47 54 48
f 49 62 63
f 49 63 64
f 49 64 65
f 49 65 50
f 50 65 66
f 50 66 51
f 51 66 67
f 51 67 68
f 51 68 52
f 52 68 69
f 52 69 70
f 52 70 53
f 53 70 71
f 53 71 55
f 55 71 56
f 56 70 72
f 56 72 73
f 56 73 74
f 56 74 57
f 56 71 70
f 58 75 76
f 58 76 59
f 59 77 60
f 59 76 69
f 59 69 68
f 59 68 67
f 59 67 77
f 60 77 78
f 61 63 62
f 64 79 65
f 65 79 80
f 65 80 81
f 65 81 66
f 66 81 82
f 66 82 77
f 66 77 67
f 69 72 70
f 69 76 75
f 69 75 83
f 69 83 72
f 77 82 84
f 77 84 78

