# https://github.com/mikedh/trimesh
v 0.02264032 0.01716121 -0.02996544
v 0.01548368 0.01716121 -0.02996544
v 0.02185305 0.01716121 -0.02817976
v 0.02207290 0.01690186 -0.02817976
v 0.02263909 0.01615392 -0.02817976
v 0.02324827 0.01534024 -0.02817976
v 0.02303457 0.01660213 -0.02996544
v 0.01933282 0.01311660 -0.02996544
v 0.01279027 0.01716002 -0.02817976
v 0.01279027 0.01716121 -0.02818029
v 0.01343261 0.01716121 -0.02817976
v 0.02418906 0.01394413 -0.02817976
v 0.02385991 0.01537429 -0.02996544
v 0.01721665 0.01311660 -0.02817976
v 0.02533496 0.01311660 -0.02996544
v 0.02473561 0.01311660 -0.02817976
v 0.02471350 0.01408905 -0.02996544
v 0.02514951 0.01340960 -0.02996544
f 1 2 10
f 1 10 11
f 1 11 3
f 1 3 4
f 1 4 5
f 1 5 6
f 1 6 7
f 1 7 13
f 1 13 17
f 1 17 18
f 1 18 15
f 1 15 8
f 1 8 2
f 2 8 9
f 2 9 10
f 3 11 9
f 3 9 14
f 3 14 16
f 3 16 12
f 3 12 6
f 3 6 5
f 3 5 4
f 6 12 7
f 7 12 13
f 8 14 9
f 8 15 16
f 8 16 14
f 9 11 10
f 12 16 17
f 12 17 13
f 15 18 16
f 16 18 17

