# https://github.com/mikedh/trimesh
v -0.00962385 -0.05010170 0.01428620
v -0.00016746 -0.05083094 0.01428620
v -0.00962385 -0.04585670 0.00176783
v -0.00962385 -0.05776430 0.01428620
v -0.00016746 -0.04671017 0.00176783
v -0.00016746 -0.05854696 0.01428620
v -0.00962385 -0.05655056 0.00176783
v -0.00962385 -0.05776306 0.01373111
v -0.00937578 -0.05780157 0.01320665
v -0.00833906 -0.05796432 0.01428620
v -0.00016746 -0.05729098 0.00176783
v -0.00044238 -0.05854696 0.01428620
v -0.00058493 -0.05854572 0.01421880
v -0.00016746 -0.05852336 0.01332428
v -0.00868155 -0.05670337 0.00176783
v -0.00962385 -0.05666361 0.00228126
v -0.00962385 -0.05775933 0.01329610
v -0.00962385 -0.05775685 0.01309146
v -0.00962385 -0.05774194 0.01253269
v -0.00879077 -0.05785996 0.01193717
v -0.00752079 -0.05805998 0.01252902
v -0.00811135 -0.05799910 0.01379850
v -0.00706444 -0.05814197 0.01428620
v -0.00016746 -0.05734688 0.00205824
v -0.00078580 -0.05728850 0.00176783
v -0.00061640 -0.05854572 0.01428620
v -0.00076821 -0.05854200 0.01428620
v -0.00185492 -0.05850597 0.01362695
v -0.00126343 -0.05848858 0.01235747
v -0.00016746 -0.05850969 0.01286845
v -0.00740878 -0.05689593 0.00176783
v -0.00904347 -0.05681642 0.00255207
v -0.00962385 -0.05675803 0.00276283
v -0.00962385 -0.05771213 0.01154872
v -0.00819743 -0.05786617 0.01066891
v -0.00962385 -0.05768976 0.01118724
v -0.00687746 -0.05816682 0.01428620
v -0.00692745 -0.05806619 0.01126076
v -0.00565932 -0.05824011 0.01185139
v -0.00625080 -0.05822645 0.01312087
v -0.00016746 -0.05742764 0.00248100
v -0.00151983 -0.05751211 0.00296992
v -0.00095797 -0.05728725 0.00176783
v -0.00216130 -0.05850348 0.01428620
v -0.00312490 -0.05845379 0.01303510
v -0.00253156 -0.05844261 0.01176684
v -0.00194007 -0.05840782 0.01049858
v -0.00067102 -0.05844758 0.01108921
v -0.00016746 -0.05849727 0.01247020
v -0.00713572 -0.05693320 0.00176783
v -0.00718570 -0.05695183 0.00187321
v -0.00777534 -0.05712824 0.00314515
v -0.00962385 -0.05696549 0.00382645
v -0.00962385 -0.05761274 0.01000476
v -0.00819743 -0.05763883 0.00777704
v -0.00760502 -0.05784754 0.00940065
v -0.00679138 -0.05817675 0.01428620
v -0.00633596 -0.05804631 0.00999251
v -0.00506783 -0.05822396 0.01058313
v -0.00379784 -0.05835068 0.01117621
v -0.00439211 -0.05836310 0.01244447
v -0.00498174 -0.05834695 0.01371273
v -0.00524833 -0.05833204 0.01428620
v -0.00582686 -0.05828111 0.01428620
v -0.00016746 -0.05758914 0.00338654
v -0.00024985 -0.05762019 0.00356300
v -0.00211132 -0.05773325 0.00424185
v -0.00278889 -0.05737173 0.00237684
v -0.00250379 -0.05725123 0.00176783
v -0.00370528 -0.05843764 0.01428620
v -0.00320821 -0.05831714 0.00990673
v -0.00016746 -0.05839416 0.01001211
v -0.00261765 -0.05824508 0.00863725
v -0.00134859 -0.05832832 0.00922910
v -0.00016746 -0.05838546 0.00985281
v -0.00016746 -0.05843391 0.01090786
v -0.00558897 -0.05709221 0.00176783
v -0.00591572 -0.05721271 0.00246629
v -0.00650906 -0.05738167 0.00373087
v -0.00836683 -0.05725992 0.00441340
v -0.00962385 -0.05711954 0.00486801
v -0.00962385 -0.05737049 0.00710431
v -0.00828352 -0.05760777 0.00754054
v -0.00701538 -0.05782394 0.00813117
v -0.00642205 -0.05779412 0.00686291
v -0.00447819 -0.05818172 0.00931365
v -0.00016746 -0.05762641 0.00360098
v -0.00084226 -0.05784009 0.00483493
v -0.00337945 -0.05758168 0.00364877
v -0.00143375 -0.05802271 0.00610196
v -0.00270373 -0.05791338 0.00550766
v -0.00464759 -0.05741149 0.00306060
v -0.00405702 -0.05719905 0.00178866
v -0.00404777 -0.05719532 0.00176783
v -0.00388578 -0.05812209 0.00804662
v -0.00329337 -0.05803637 0.00677836
v -0.00202616 -0.05814570 0.00736899
v -0.00075617 -0.05822893 0.00796084
v -0.00016746 -0.05836434 0.00957711
v -0.00016746 -0.05838049 0.00978052
v -0.00409960 -0.05719284 0.00176783
v -0.00523815 -0.05758044 0.00432518
v -0.00583056 -0.05771461 0.00559466
v -0.00709777 -0.05750839 0.00500526
v -0.00962385 -0.05718911 0.00537042
v -0.00895924 -0.05733819 0.00568043
v -0.00962385 -0.05735807 0.00697565
v -0.00955073 -0.05736800 0.00694869
v -0.00768925 -0.05757920 0.00627229
v -0.00456243 -0.05788978 0.00618774
v -0.00515299 -0.05796307 0.00745599
v -0.00446708 -0.05805004 0.00777704
v -0.00016746 -0.05778915 0.00458863
v -0.00016746 -0.05787487 0.00514862
v -0.00016746 -0.05809103 0.00668401
v -0.00397094 -0.05776182 0.00491703
v -0.00398482 -0.05808855 0.00777704
v -0.00016746 -0.05820408 0.00777704
v -0.00016746 -0.05825129 0.00823410
v -0.00962385 -0.05725247 0.00592183
f 1 2 3
f 1 3 7
f 1 7 16
f 1 16 33
f 1 33 53
f 1 53 81
f 1 81 105
f 1 105 120
f 1 120 107
f 1 107 82
f 1 82 54
f 1 54 36
f 1 36 34
f 1 34 19
f 1 19 18
f 1 18 17
f 1 17 8
f 1 8 4
f 1 4 10
f 1 10 23
f 1 23 37
f 1 37 57
f 1 57 64
f 1 64 63
f 1 63 70
f 1 70 44
f 1 44 27
f 1 27 26
f 1 26 12
f 1 12 6
f 1 6 2
f 2 5 3
f 2 6 14
f 2 14 30
f 2 30 49
f 2 49 76
f 2 76 72
f 2 72 75
f 2 75 100
f 2 100 99
f 2 99 119
f 2 119 118
f 2 118 115
f 2 115 114
f 2 114 113
f 2 113 87
f 2 87 65
f 2 65 41
f 2 41 24
f 2 24 11
f 2 11 5
f 3 5 11
f 3 11 25
f 3 25 43
f 3 43 69
f 3 69 94
f 3 94 101
f 3 101 77
f 3 77 50
f 3 50 31
f 3 31 15
f 3 15 7
f 4 8 9
f 4 9 10
f 6 12 13
f 6 13 14
f 7 15 16
f 8 17 9
f 9 17 18
f 9 18 19
f 9 19 20
f 9 20 21
f 9 21 22
f 9 22 10
f 10 22 23
f 11 24 25
f 12 26 13
f 13 26 27
f 13 27 28
f 13 28 29
f 13 29 14
f 14 29 30
f 15 31 32
f 15 32 16
f 16 32 33
f 19 34 20
f 20 35 38
f 20 38 21
f 20 34 36
f 20 36 35
f 21 37 22
f 21 38 39
f 21 39 40
f 21 40 37
f 22 37 23
f 24 41 25
f 25 41 42
f 25 42 43
f 27 44 28
f 28 44 45
f 28 45 46
f 28 46 29
f 29 46 47
f 29 47 48
f 29 48 49
f 29 49 30
f 31 50 51
f 31 51 32
f 32 51 52
f 32 52 53
f 32 53 33
f 35 36 54
f 35 54 55
f 35 55 56
f 35 56 38
f 37 40 57
f 38 56 58
f 38 58 59
f 38 59 39
f 39 59 60
f 39 60 61
f 39 61 40
f 40 61 62
f 40 62 63
f 40 63 64
f 40 64 57
f 41 65 42
f 42 65 66
f 42 66 67
f 42 67 68
f 42 68 43
f 43 68 69
f 44 70 45
f 45 70 62
f 45 62 61
f 45 61 46
f 46 61 60
f 46 60 71
f 46 71 47
f 47 72 48
f 47 71 73
f 47 73 74
f 47 74 75
f 47 75 72
f 48 72 76
f 48 76 49
f 50 77 51
f 51 77 78
f 51 78 52
f 52 78 79
f 52 79 80
f 52 80 53
f 53 80 81
f 54 82 83
f 54 83 55
f 55 83 84
f 55 84 56
f 56 84 58
f 58 84 85
f 58 85 59
f 59 86 71
f 59 71 60
f 59 85 86
f 62 70 63
f 65 87 66
f 66 87 88
f 66 88 67
f 67 89 68
f 67 88 90
f 67 90 91
f 67 91 89
f 68 92 93
f 68 93 94
f 68 94 69
f 68 89 92
f 71 86 95
f 71 95 73
f 73 95 96
f 73 96 97
f 73 97 74
f 74 97 98
f 74 98 99
f 74 99 100
f 74 100 75
f 77 101 78
f 78 101 92
f 78 92 79
f 79 92 102
f 79 102 103
f 79 103 104
f 79 104 80
f 80 105 81
f 80 104 106
f 80 106 105
f 82 107 108
f 82 108 83
f 83 109 84
f 83 108 109
f 84 109 85
f 85 109 104
f 85 104 103
f 85 103 110
f 85 110 111
f 85 111 86
f 86 111 112
f 86 112 95
f 87 113 88
f 88 113 114
f 88 114 115
f 88 115 90
f 89 91 116
f 89 116 92
f 90 115 98
f 90 98 97
f 90 97 91
f 91 97 96
f 91 96 110
f 91 110 116
f 92 101 93
f 92 116 102
f 93 101 94
f 95 112 117
f 95 117 96
f 96 117 110
f 98 115 118
f 98 118 119
f 98 119 99
f 102 116 103
f 103 116 110
f 104 109 106
f 105 106 120
f 106 108 120
f 106 109 108
f 107 120 108
f 110 117 112
f 110 112 111

