# https://github.com/mikedh/trimesh
v 0.02639869 0.01020984 -0.02688520
v 0.02764960 0.00689939 -0.02688520
v 0.02644901 0.00972310 -0.02817959
v 0.02621057 0.01020984 -0.02817959
v 0.01659147 0.01020984 -0.02688520
v 0.02845838 0.00422430 -0.02688520
v 0.02737881 0.00695724 -0.02817959
v 0.02693188 0.00830975 -0.02817959
v 0.02675815 0.00882243 -0.02817959
v 0.01916759 0.01020984 -0.02817959
v 0.01659147 0.01020984 -0.02772037
v 0.01659147 0.00002116 -0.02688520
v 0.02860816 0.00349618 -0.02688520
v 0.02844400 0.00281394 -0.02817959
v 0.02834815 0.00323486 -0.02817959
v 0.02765200 0.00592092 -0.02817959
v 0.01659147 0.00002116 -0.02724545
v 0.02247700 0.00002116 -0.02817959
v 0.02879508 0.00002116 -0.02688520
v 0.02852668 0.00235812 -0.02817959
v 0.02868844 0.00304734 -0.02688520
v 0.02867406 0.00002116 -0.02817959
v 0.02881664 0.00053882 -0.02688520
v 0.02859977 0.00184644 -0.02817959
v 0.02876392 0.00229030 -0.02688520
v 0.02865728 0.00139760 -0.02817959
v 0.02868125 0.00053383 -0.02817959
v 0.02883222 0.00139261 -0.02688520
v 0.02867765 0.00091485 -0.02817959
f 1 2 3
f 1 3 4
f 1 4 10
f 1 10 11
f 1 11 5
f 1 5 12
f 1 12 19
f 1 19 23
f 1 23 28
f 1 28 25
f 1 25 21
f 1 21 13
f 1 13 6
f 1 6 2
f 2 6 7
f 2 7 8
f 2 8 9
f 2 9 3
f 3 9 8
f 3 8 7
f 3 7 16
f 3 16 15
f 3 15 14
f 3 14 20
f 3 20 24
f 3 24 26
f 3 26 29
f 3 29 27
f 3 27 22
f 3 22 18
f 3 18 10
f 3 10 4
f 5 11 17
f 5 17 12
f 6 13 14
f 6 14 15
f 6 15 16
f 6 16 7
f 10 17 11
f 10 18 17
f 12 17 18
f 12 18 22
f 12 22 19
f 13 20 14
f 13 21 20
f 19 22 23
f 20 21 24
f 21 25 26
f 21 26 24
f 22 27 28
f 22 28 23
f 25 28 26
f 26 28 29
f 27 29 28

