# https://github.com/mikedh/trimesh
v -0.04187005 -0.00809085 -0.00433681
v -0.03967318 -0.01553147 -0.00433681
v -0.05552385 -0.00809085 -0.00433681
v -0.04645556 -0.00809085 0.00176723
v -0.04447616 -0.01553147 0.00176305
v -0.05081505 -0.01553147 -0.00433681
v -0.05547933 -0.00841569 -0.00433681
v -0.05567796 -0.00841496 -0.00374816
v -0.05571563 -0.00809085 -0.00376549
v -0.05716593 -0.00809085 0.00176723
v -0.04452068 -0.01541712 0.00176723
v -0.04478608 -0.01553147 0.00176723
v -0.05392457 -0.01553147 -0.00433442
v -0.05395710 -0.01541712 -0.00433681
v -0.05525845 -0.00981699 -0.00433681
v -0.05609233 -0.00841569 -0.00239695
v -0.05603582 -0.00809085 -0.00272743
v -0.05548618 -0.00981626 -0.00365792
v -0.05685087 -0.00809085 0.00033953
v -0.05680978 -0.00841569 0.00035806
v -0.05711799 -0.00841496 0.00175767
v -0.05711970 -0.00841496 0.00176723
v -0.05561631 -0.01553147 0.00176723
v -0.05432696 -0.01553147 -0.00311827
v -0.05435778 -0.01541348 -0.00313202
v -0.05433381 -0.01401581 -0.00433681
v -0.05513516 -0.01045282 -0.00433681
v -0.05525331 -0.01121611 -0.00354915
v -0.05589371 -0.00981408 -0.00230492
v -0.05646732 -0.00841641 -0.00102662
v -0.05650670 -0.00809085 -0.00104455
v -0.05613171 -0.00809085 -0.00241428
v -0.05658889 -0.00809085 -0.00072363
v -0.05709744 -0.00855188 0.00176723
v -0.05626527 -0.00981699 -0.00093160
v -0.05659745 -0.00981554 0.00045726
v -0.05565227 -0.01541202 0.00176723
v -0.05546221 -0.01553147 0.00104352
v -0.05472935 -0.01553147 -0.00175929
v -0.05475845 -0.01541639 -0.00177304
v -0.05508722 -0.01401654 -0.00192663
v -0.05468312 -0.01401654 -0.00328262
v -0.05467627 -0.01261523 -0.00433681
v -0.05498619 -0.01121611 -0.00433681
v -0.05497934 -0.01261523 -0.00342126
v -0.05538858 -0.01261523 -0.00206707
v -0.05566083 -0.01121539 -0.00219496
v -0.05688341 -0.00981554 0.00176723
v -0.05602555 -0.01121684 -0.00081984
v -0.05635602 -0.01121684 0.00057081
v -0.05548275 -0.01541639 0.00097898
v -0.05588857 -0.01453001 0.00176723
v -0.05545022 -0.01553147 0.00099332
v -0.05509749 -0.01553147 -0.00038777
v -0.05512831 -0.01541566 -0.00040211
v -0.05546049 -0.01401508 -0.00055689
v -0.05575330 -0.01261523 -0.00069434
v -0.05661629 -0.01121684 0.00176723
v -0.05609233 -0.01261669 0.00069392
v -0.05632863 -0.01261742 0.00176723
v -0.05602042 -0.01401581 0.00176723
v -0.05580638 -0.01401436 0.00082539
f 1 2 6
f 1 6 14
f 1 14 26
f 1 26 43
f 1 43 44
f 1 44 27
f 1 27 15
f 1 15 7
f 1 7 3
f 1 3 9
f 1 9 17
f 1 17 32
f 1 32 31
f 1 31 33
f 1 33 19
f 1 19 10
f 1 10 4
f 1 4 2
f 2 4 5
f 2 5 12
f 2 12 23
f 2 23 38
f 2 38 53
f 2 53 54
f 2 54 39
f 2 39 24
f 2 24 13
f 2 13 6
f 3 7 8
f 3 8 9
f 4 10 22
f 4 22 34
f 4 34 48
f 4 48 58
f 4 58 60
f 4 60 61
f 4 61 52
f 4 52 37
f 4 37 23
f 4 23 12
f 4 12 11
f 4 11 5
f 5 11 12
f 6 13 14
f 7 15 8
f 8 16 17
f 8 17 9
f 8 15 18
f 8 18 16
f 10 19 20
f 10 20 21
f 10 21 22
f 13 24 25
f 13 25 14
f 14 25 26
f 15 27 28
f 15 28 18
f 16 18 29
f 16 29 30
f 16 30 31
f 16 31 32
f 16 32 17
f 18 28 29
f 19 33 20
f 20 34 21
f 20 33 30
f 20 30 35
f 20 35 36
f 20 36 34
f 21 34 22
f 23 37 38
f 24 39 25
f 25 39 40
f 25 40 41
f 25 41 42
f 25 42 26
f 26 42 43
f 27 44 28
f 28 44 43
f 28 43 45
f 28 45 46
f 28 46 47
f 28 47 29
f 29 47 35
f 29 35 30
f 30 33 31
f 34 36 48
f 35 47 49
f 35 49 36
f 36 49 50
f 36 50 48
f 37 51 38
f 37 52 51
f 38 51 53
f 39 54 55
f 39 55 40
f 40 55 56
f 40 56 41
f 41 56 46
f 41 46 42
f 42 46 45
f 42 45 43
f 46 56 57
f 46 57 47
f 47 57 49
f 48 50 58
f 49 57 59
f 49 59 50
f 50 60 58
f 50 59 60
f 51 52 61
f 51 61 62
f 51 62 56
f 51 56 55
f 51 55 54
f 51 54 53
f 56 62 57
f 57 62 59
f 59 62 61
f 59 61 60

