# https://github.com/mikedh/trimesh
v 0.02906419 -0.02237360 -0.00952323
v 0.02906720 -0.02237360 -0.01166047
v 0.02198666 -0.02237090 -0.01059824
v 0.02597911 -0.02237360 -0.00952323
v 0.02906720 -0.02242478 -0.00952323
v 0.02906720 -0.02237360 -0.02343284
v 0.02030726 -0.02237090 -0.01089694
v 0.02198666 -0.02237090 -0.02491517
v 0.01882538 -0.02237360 -0.01107904
v 0.01882538 -0.02838322 -0.00952483
v 0.02030726 -0.02740272 -0.00952323
v 0.02906720 -0.04476355 -0.00952323
v 0.02906720 -0.02241939 -0.02342326
v 0.02792822 -0.02237360 -0.02373794
v 0.02030726 -0.02237090 -0.02524422
v 0.02654058 -0.02237360 -0.02407338
v 0.01882538 -0.02237360 -0.02584163
v 0.01882538 -0.04988964 -0.00952483
v 0.02030726 -0.04931319 -0.00952323
v 0.02869523 -0.04500329 -0.00952323
v 0.02787608 -0.04450765 -0.01103911
v 0.02906720 -0.04407396 -0.01054074
v 0.02906720 -0.02263488 -0.02337694
v 0.02779687 -0.02381741 -0.02345521
v 0.02641225 -0.02381741 -0.02380023
v 0.02653657 -0.02241939 -0.02406539
v 0.02487622 -0.02522083 -0.02381780
v 0.02332917 -0.02661616 -0.02381141
v 0.02317978 -0.02801957 -0.02349035
v 0.02177009 -0.02801957 -0.02378106
v 0.02030726 -0.02942298 -0.02367404
v 0.01882538 -0.02942298 -0.02392802
v 0.01882538 -0.04930242 -0.01052317
v 0.01980695 -0.04945326 -0.00964463
v 0.01957634 -0.04960950 -0.00952483
v 0.01985708 -0.04950175 -0.00952483
v 0.02125474 -0.04892530 -0.00952323
v 0.02793924 -0.04548546 -0.00952323
v 0.02756627 -0.04559320 -0.00971971
v 0.02834130 -0.04338168 -0.01209974
v 0.02906720 -0.04318505 -0.01171957
v 0.02610143 -0.04589759 -0.01057109
v 0.02718126 -0.04464772 -0.01143684
v 0.02906720 -0.02391169 -0.02307983
v 0.02627288 -0.02521813 -0.02350153
v 0.02765249 -0.02522083 -0.02314692
v 0.02472984 -0.02661885 -0.02350472
v 0.02457343 -0.02801957 -0.02316928
v 0.02301334 -0.02942029 -0.02313255
v 0.02198666 -0.02941760 -0.02335138
v 0.02160967 -0.02942029 -0.02342965
v 0.02001148 -0.03082370 -0.02332582
v 0.01882538 -0.03081831 -0.02353507
v 0.01882538 -0.04845660 -0.01179784
v 0.02010874 -0.04884718 -0.01045608
v 0.02030726 -0.04873674 -0.01050080
v 0.02148935 -0.04882563 -0.00952323
v 0.02749308 -0.04575752 -0.00952323
v 0.02661678 -0.04625855 -0.00952323
v 0.02728553 -0.04351368 -0.01275624
v 0.02906720 -0.04214797 -0.01297189
v 0.02906720 -0.04215875 -0.01295911
v 0.02906720 -0.04288604 -0.01209335
v 0.02583072 -0.04670570 -0.00952323
v 0.02501559 -0.04715285 -0.00952323
v 0.02446013 -0.04720942 -0.00991298
v 0.02511786 -0.04632589 -0.01072124
v 0.02566028 -0.04472584 -0.01243358
v 0.02906720 -0.02473057 -0.02286579
v 0.02901506 -0.02521813 -0.02275398
v 0.02612048 -0.02661616 -0.02317248
v 0.02749308 -0.02661616 -0.02280509
v 0.02595204 -0.02801957 -0.02281467
v 0.02439797 -0.02942029 -0.02279231
v 0.02282485 -0.03082101 -0.02273321
v 0.02198666 -0.03081831 -0.02292170
v 0.02142819 -0.03081831 -0.02304629
v 0.02030726 -0.03082370 -0.02326832
v 0.01981998 -0.03221903 -0.02291051
v 0.01882538 -0.03185269 -0.02321880
v 0.01882538 -0.04810642 -0.01227065
v 0.01908807 -0.04816837 -0.01205981
v 0.02087675 -0.04791247 -0.01138573
v 0.02030726 -0.04860744 -0.01069887
v 0.02195056 -0.04780742 -0.01086180
v 0.02198666 -0.04860475 -0.00952323
v 0.02625283 -0.04378843 -0.01313801
v 0.02673108 -0.04285372 -0.01384243
v 0.02797534 -0.04200251 -0.01391112
v 0.02906720 -0.04119979 -0.01394786
v 0.02430473 -0.04750842 -0.00952323
v 0.02292912 -0.04818184 -0.00952323
v 0.02338432 -0.04749226 -0.01030593
v 0.02387661 -0.04548546 -0.01268436
v 0.02309957 -0.04696160 -0.01128031
v 0.02518002 -0.04439182 -0.01315238
v 0.02906720 -0.02521813 -0.02273800
v 0.02884662 -0.02661616 -0.02239298
v 0.02731661 -0.02801957 -0.02242812
v 0.02576856 -0.02942029 -0.02241854
v 0.02420547 -0.03081831 -0.02237700
v 0.02261931 -0.03221634 -0.02228436
v 0.02198666 -0.03221903 -0.02243770
v 0.02122867 -0.03221903 -0.02261980
v 0.01960943 -0.03362244 -0.02245847
v 0.01882538 -0.03362244 -0.02261501
v 0.01882538 -0.03221903 -0.02309740
v 0.01882538 -0.04757845 -0.01293674
v 0.02038246 -0.04740606 -0.01235851
v 0.02170893 -0.04723636 -0.01180263
v 0.02198666 -0.04718518 -0.01170040
v 0.02271557 -0.04827881 -0.00952323
v 0.02465264 -0.04366721 -0.01424017
v 0.02566529 -0.04285911 -0.01447019
v 0.02682332 -0.04193517 -0.01469541
v 0.02844958 -0.04060449 -0.01492543
v 0.02906720 -0.04054254 -0.01457401
v 0.02296622 -0.04637437 -0.01213807
v 0.02264037 -0.04555549 -0.01335205
v 0.02324996 -0.04484705 -0.01379611
v 0.02906720 -0.02661616 -0.02231790
v 0.02866013 -0.02801688 -0.02199364
v 0.02712311 -0.02942029 -0.02201121
v 0.02556603 -0.03081831 -0.02198406
v 0.02398990 -0.03221903 -0.02191697
v 0.02238971 -0.03361706 -0.02179398
v 0.02198666 -0.03361706 -0.02189780
v 0.02100809 -0.03362244 -0.02214539
v 0.02030726 -0.03422314 -0.02206073
v 0.01937281 -0.03502047 -0.02194892
v 0.01882538 -0.03502047 -0.02206712
v 0.01882538 -0.04712322 -0.01348303
v 0.01961043 -0.04694813 -0.01332010
v 0.02030726 -0.04675957 -0.01317794
v 0.02124371 -0.04650367 -0.01298466
v 0.02198666 -0.04704780 -0.01187771
v 0.02324495 -0.04396083 -0.01472257
v 0.02436489 -0.04296686 -0.01508356
v 0.02548081 -0.04215606 -0.01524010
v 0.02723640 -0.04060988 -0.01563464
v 0.02868520 -0.03928189 -0.01588383
v 0.02906720 -0.03952432 -0.01545574
v 0.02906720 -0.04009000 -0.01498293
v 0.02207489 -0.04503292 -0.01422899
v 0.02198666 -0.04599995 -0.01317954
v 0.02198666 -0.04577368 -0.01345268
v 0.02906720 -0.02801688 -0.02184669
v 0.02845560 -0.02941760 -0.02155597
v 0.02690754 -0.03081562 -0.02154958
v 0.02533944 -0.03222173 -0.02150007
v 0.02375228 -0.03361706 -0.02140582
v 0.02198666 -0.03502047 -0.02127484
v 0.02075744 -0.03502047 -0.02160869
v 0.02030726 -0.03502047 -0.02172050
v 0.01910812 -0.03640772 -0.02138027
v 0.01882538 -0.03640772 -0.02144735
v 0.01882538 -0.04663028 -0.01404050
v 0.01916627 -0.04629626 -0.01425614
v 0.02020098 -0.04582486 -0.01429927
v 0.02030726 -0.04584103 -0.01423059
v 0.02030726 -0.04655755 -0.01341594
v 0.02132292 -0.04598918 -0.01355332
v 0.02232956 -0.04347058 -0.01563305
v 0.02086973 -0.04477432 -0.01507398
v 0.02333218 -0.04275405 -0.01579118
v 0.02408616 -0.04200521 -0.01607551
v 0.02599315 -0.04061257 -0.01627997
v 0.02764748 -0.03921455 -0.01651478
v 0.02906720 -0.03923879 -0.01569055
v 0.02906720 -0.03832563 -0.01640296
v 0.02198666 -0.04514336 -0.01415232
v 0.02030726 -0.04578176 -0.01429448
v 0.02906720 -0.02942029 -0.02132436
v 0.02822900 -0.03081293 -0.02107038
v 0.02666892 -0.03221634 -0.02103684
v 0.02509279 -0.03361437 -0.02096656
v 0.02348358 -0.03501778 -0.02082919
v 0.02212903 -0.03501778 -0.02123491
v 0.02048071 -0.03641850 -0.02101767
v 0.02030726 -0.03656396 -0.02099211
v 0.01882538 -0.03779767 -0.02074772
v 0.01882538 -0.04644711 -0.01423538
v 0.01882538 -0.04629087 -0.01440150
v 0.01882538 -0.04537771 -0.01531997
v 0.01978890 -0.04465580 -0.01564423
v 0.02198666 -0.04353253 -0.01573049
v 0.02327603 -0.04199174 -0.01646366
v 0.02030726 -0.04431640 -0.01573687
v 0.02133094 -0.04364836 -0.01591737
v 0.02473184 -0.04060988 -0.01688696
v 0.02639320 -0.03921455 -0.01713614
v 0.02802748 -0.03781921 -0.01732463
v 0.02906720 -0.03781383 -0.01678473
v 0.02906720 -0.03081831 -0.02073654
v 0.02798236 -0.03222173 -0.02054166
v 0.02641225 -0.03361975 -0.02048735
v 0.02481707 -0.03501508 -0.02037714
v 0.02318680 -0.03641311 -0.02019185
v 0.02198666 -0.03641041 -0.02057361
v 0.02184228 -0.03640772 -0.02061993
v 0.02030726 -0.03722660 -0.02064389
v 0.02018093 -0.03781114 -0.02037075
v 0.01882538 -0.03893171 -0.02010399
v 0.01882538 -0.04472584 -0.01593654
v 0.01882538 -0.04436219 -0.01625122
v 0.02007265 -0.04363489 -0.01642213
v 0.02030726 -0.04364028 -0.01632949
v 0.02331614 -0.04087386 -0.01731504
v 0.02198666 -0.04200521 -0.01698599
v 0.02030726 -0.04340862 -0.01651957
v 0.02173700 -0.04200790 -0.01708662
v 0.02512187 -0.03921724 -0.01771757
v 0.02676517 -0.03781114 -0.01793162
v 0.02837539 -0.03641311 -0.01807218
v 0.02906720 -0.03690605 -0.01740130
v 0.02906720 -0.03221903 -0.02008802
v 0.02771165 -0.03361975 -0.01996023
v 0.02613251 -0.03501508 -0.01988676
v 0.02451428 -0.03641580 -0.01973181
v 0.02286797 -0.03781383 -0.01950819
v 0.02198666 -0.03781652 -0.01980529
v 0.02153247 -0.03781652 -0.01995704
v 0.02030726 -0.03781114 -0.02033401
v 0.01984906 -0.03920108 -0.01965355
v 0.01882538 -0.03921455 -0.01994107
v 0.01882538 -0.04343556 -0.01701634
v 0.02214708 -0.04061527 -0.01796356
v 0.02383249 -0.03921185 -0.01826386
v 0.02042056 -0.04201060 -0.01757541
v 0.02548682 -0.03780844 -0.01850027
v 0.02711108 -0.03641311 -0.01867438
v 0.02906720 -0.03641311 -0.01772396
v 0.02869523 -0.03502047 -0.01875744
v 0.02906720 -0.03580703 -0.01810573
v 0.02906720 -0.03240490 -0.01999538
v 0.02906720 -0.03325880 -0.01955451
v 0.02906720 -0.03361706 -0.01936602
v 0.02742289 -0.03502047 -0.01934206
v 0.02582471 -0.03641311 -0.01922706
v 0.02418541 -0.03781652 -0.01902420
v 0.02252406 -0.03921185 -0.01876862
v 0.02198666 -0.03921185 -0.01895711
v 0.02119559 -0.03920647 -0.01923504
v 0.02030726 -0.03920647 -0.01951138
v 0.01948109 -0.04060988 -0.01887245
v 0.01882538 -0.04061527 -0.01906093
v 0.01882538 -0.04285103 -0.01746679
v 0.02030726 -0.04201060 -0.01761375
v 0.02082461 -0.04061527 -0.01843797
v 0.02906720 -0.03502047 -0.01857854
v 0.02906720 -0.03468915 -0.01876862
v 0.02030726 -0.04061527 -0.01860729
v 0.01908406 -0.04201060 -0.01801947
v 0.01882538 -0.04201060 -0.01809774
f 1 2 3
f 1 3 4
f 1 4 11
f 1 11 19
f 1 19 37
f 1 37 57
f 1 57 86
f 1 86 112
f 1 112 92
f 1 92 91
f 1 91 65
f 1 65 64
f 1 64 59
f 1 59 58
f 1 58 38
f 1 38 20
f 1 20 12
f 1 12 5
f 1 5 2
f 2 6 8
f 2 8 3
f 2 5 12
f 2 12 22
f 2 22 41
f 2 41 63
f 2 63 62
f 2 62 61
f 2 61 90
f 2 90 117
f 2 117 143
f 2 143 142
f 2 142 169
f 2 169 170
f 2 170 193
f 2 193 215
f 2 215 232
f 2 232 234
f 2 234 250
f 2 250 251
f 2 251 237
f 2 237 236
f 2 236 235
f 2 235 216
f 2 216 194
f 2 194 173
f 2 173 147
f 2 147 121
f 2 121 97
f 2 97 69
f 2 69 44
f 2 44 23
f 2 23 13
f 2 13 6
f 3 7 4
f 3 8 15
f 3 15 7
f 4 7 9
f 4 9 10
f 4 10 11
f 6 13 14
f 6 14 8
f 7 15 17
f 7 17 9
f 8 14 16
f 8 16 17
f 8 17 15
f 9 17 32
f 9 32 53
f 9 53 80
f 9 80 107
f 9 107 106
f 9 106 131
f 9 131 156
f 9 156 181
f 9 181 203
f 9 203 225
f 9 225 246
f 9 246 254
f 9 254 247
f 9 247 226
f 9 226 205
f 9 205 204
f 9 204 184
f 9 184 183
f 9 183 182
f 9 182 157
f 9 157 132
f 9 132 108
f 9 108 81
f 9 81 54
f 9 54 33
f 9 33 18
f 9 18 10
f 10 18 19
f 10 19 11
f 12 20 21
f 12 21 22
f 13 23 14
f 14 23 24
f 14 24 25
f 14 25 26
f 14 26 16
f 16 26 17
f 17 26 25
f 17 25 27
f 17 27 28
f 17 28 29
f 17 29 30
f 17 30 31
f 17 31 32
f 18 33 34
f 18 34 35
f 18 35 19
f 19 35 36
f 19 36 37
f 20 38 39
f 20 39 21
f 21 40 41
f 21 41 22
f 21 39 42
f 21 42 43
f 21 43 40
f 23 44 24
f 24 45 25
f 24 44 46
f 24 46 45
f 25 45 27
f 27 47 28
f 27 45 47
f 28 47 29
f 29 48 49
f 29 49 50
f 29 50 51
f 29 51 30
f 29 47 48
f 30 51 31
f 31 51 52
f 31 52 53
f 31 53 32
f 33 54 55
f 33 55 34
f 34 36 35
f 34 55 37
f 34 37 36
f 37 55 56
f 37 56 57
f 38 58 39
f 39 58 59
f 39 59 42
f 40 60 61
f 40 61 62
f 40 62 63
f 40 63 41
f 40 43 60
f 42 59 64
f 42 64 65
f 42 65 66
f 42 66 67
f 42 67 43
f 43 67 68
f 43 68 60
f 44 69 70
f 44 70 46
f 45 46 71
f 45 71 47
f 46 72 71
f 46 70 72
f 47 71 48
f 48 71 73
f 48 73 74
f 48 74 49
f 49 74 75
f 49 75 76
f 49 76 77
f 49 77 50
f 50 77 51
f 51 77 78
f 51 78 52
f 52 78 79
f 52 79 80
f 52 80 53
f 54 81 82
f 54 82 83
f 54 83 84
f 54 84 55
f 55 84 56
f 56 84 85
f 56 85 57
f 57 85 86
f 60 87 88
f 60 88 89
f 60 89 61
f 60 68 87
f 61 89 90
f 65 91 66
f 66 91 92
f 66 92 93
f 66 93 67
f 67 94 68
f 67 93 95
f 67 95 94
f 68 94 96
f 68 96 87
f 69 97 70
f 70 97 98
f 70 98 72
f 71 72 73
f 72 99 73
f 72 98 99
f 73 100 74
f 73 99 100
f 74 100 101
f 74 101 75
f 75 101 102
f 75 102 103
f 75 103 104
f 75 104 76
f 76 104 77
f 77 104 79
f 77 79 78
f 79 105 106
f 79 106 107
f 79 107 80
f 79 104 105
f 81 108 82
f 82 108 109
f 82 109 83
f 83 109 110
f 83 110 111
f 83 111 85
f 83 85 84
f 85 111 95
f 85 95 93
f 85 93 92
f 85 92 112
f 85 112 86
f 87 96 88
f 88 96 113
f 88 113 114
f 88 114 115
f 88 115 89
f 89 115 116
f 89 116 117
f 89 117 90
f 94 95 118
f 94 118 119
f 94 119 96
f 95 111 118
f 96 119 120
f 96 120 113
f 97 121 98
f 98 121 122
f 98 122 99
f 99 122 123
f 99 123 100
f 100 123 124
f 100 124 101
f 101 124 125
f 101 125 102
f 102 125 126
f 102 126 127
f 102 127 128
f 102 128 103
f 103 128 104
f 104 128 105
f 105 128 129
f 105 129 130
f 105 130 131
f 105 131 106
f 108 132 133
f 108 133 109
f 109 133 134
f 109 134 135
f 109 135 136
f 109 136 110
f 110 136 111
f 111 136 118
f 113 120 137
f 113 137 138
f 113 138 114
f 114 138 139
f 114 139 115
f 115 140 116
f 115 139 140
f 116 140 141
f 116 141 142
f 116 142 143
f 116 143 117
f 118 136 119
f 119 144 120
f 119 136 145
f 119 145 146
f 119 146 144
f 120 144 137
f 121 147 122
f 122 147 148
f 122 148 123
f 123 148 149
f 123 149 124
f 124 149 150
f 124 150 125
f 125 150 151
f 125 151 126
f 126 151 152
f 126 152 153
f 126 153 127
f 127 153 128
f 128 153 154
f 128 154 129
f 129 154 130
f 130 154 155
f 130 155 156
f 130 156 131
f 132 157 133
f 133 157 158
f 133 158 159
f 133 159 160
f 133 160 161
f 133 161 134
f 134 161 162
f 134 162 135
f 135 162 146
f 135 146 145
f 135 145 136
f 137 163 138
f 137 144 164
f 137 164 163
f 138 165 166
f 138 166 139
f 138 163 165
f 139 166 167
f 139 167 140
f 140 167 168
f 140 168 141
f 141 169 142
f 141 168 170
f 141 170 169
f 144 146 171
f 144 171 160
f 144 160 172
f 144 172 164
f 146 162 171
f 147 173 148
f 148 173 174
f 148 174 149
f 149 174 175
f 149 175 150
f 150 176 151
f 150 175 176
f 151 176 177
f 151 177 178
f 151 178 152
f 152 178 179
f 152 179 153
f 153 179 155
f 153 155 154
f 155 179 180
f 155 180 181
f 155 181 156
f 157 182 158
f 158 182 183
f 158 183 184
f 158 184 185
f 158 185 159
f 159 185 164
f 159 164 172
f 159 172 160
f 160 171 162
f 160 162 161
f 163 186 187
f 163 187 165
f 163 164 186
f 164 185 188
f 164 188 189
f 164 189 186
f 165 187 166
f 166 187 190
f 166 190 167
f 167 190 191
f 167 191 168
f 168 191 192
f 168 192 193
f 168 193 170
f 173 194 174
f 174 194 195
f 174 195 175
f 175 195 196
f 175 196 176
f 176 196 197
f 176 197 177
f 177 197 198
f 177 198 199
f 177 199 200
f 177 200 178
f 178 200 179
f 179 201 180
f 179 200 201
f 180 201 181
f 181 201 202
f 181 202 203
f 184 204 185
f 185 204 205
f 185 205 206
f 185 206 207
f 185 207 188
f 186 189 187
f 187 208 190
f 187 189 209
f 187 209 208
f 188 207 189
f 189 207 210
f 189 210 211
f 189 211 209
f 190 208 212
f 190 212 191
f 191 212 213
f 191 213 192
f 192 213 214
f 192 214 215
f 192 215 193
f 194 216 195
f 195 217 196
f 195 216 217
f 196 217 218
f 196 218 197
f 197 218 219
f 197 219 198
f 198 219 220
f 198 220 221
f 198 221 222
f 198 222 199
f 199 222 200
f 200 222 223
f 200 223 201
f 201 223 202
f 202 223 224
f 202 224 225
f 202 225 203
f 205 226 206
f 206 226 210
f 206 210 207
f 208 227 228
f 208 228 212
f 208 209 211
f 208 211 227
f 210 226 229
f 210 229 211
f 211 229 227
f 212 228 230
f 212 230 213
f 213 230 231
f 213 231 214
f 214 232 215
f 214 231 233
f 214 233 234
f 214 234 232
f 216 235 217
f 217 235 236
f 217 236 237
f 217 237 238
f 217 238 218
f 218 238 239
f 218 239 219
f 219 239 240
f 219 240 220
f 220 240 241
f 220 241 242
f 220 242 243
f 220 243 221
f 221 243 222
f 222 243 244
f 222 244 223
f 223 244 224
f 224 244 245
f 224 245 246
f 224 246 225
f 226 247 248
f 226 248 229
f 227 249 241
f 227 241 228
f 227 229 249
f 228 241 240
f 228 240 230
f 229 248 249
f 230 240 239
f 230 239 231
f 231 239 238
f 231 238 233
f 233 250 234
f 233 238 237
f 233 237 251
f 233 251 250
f 241 249 242
f 242 249 243
f 243 249 252
f 243 252 245
f 243 245 244
f 245 252 253
f 245 253 254
f 245 254 246
f 247 254 253
f 247 253 248
f 248 253 249
f 249 253 252

