# https://github.com/mikedh/trimesh
v 0.05412970 0.01716067 -0.00242778
v 0.05426961 0.01672025 -0.00242778
v 0.05383196 0.01716067 -0.00340713
v 0.04092292 0.01716067 -0.00242778
v 0.05428038 0.01570848 -0.00342542
v 0.05385886 0.01659214 -0.00391007
v 0.05465346 0.01547097 -0.00242778
v 0.05372972 0.01716067 -0.00372868
v 0.03795261 0.01716067 -0.00505973
v 0.04370311 0.00760879 -0.00242778
v 0.05484000 0.01478556 -0.00242778
v 0.05482206 0.01398138 -0.00318967
v 0.05419607 0.01398419 -0.00503242
v 0.05417275 0.01403468 -0.00505973
v 0.05376739 0.01548406 -0.00505973
v 0.05336201 0.01686518 -0.00505973
v 0.05333511 0.01694747 -0.00505973
v 0.05355215 0.01716067 -0.00424503
v 0.04107897 0.00760879 -0.00505973
v 0.05326336 0.01716067 -0.00505973
v 0.05627494 0.00760879 -0.00242778
v 0.05505165 0.01398325 -0.00242778
v 0.05461041 0.01228795 -0.00500563
v 0.05527048 0.01308838 -0.00242778
v 0.05521846 0.01258156 -0.00300467
v 0.05458889 0.01229169 -0.00505973
v 0.05419248 0.01395427 -0.00505973
v 0.05544626 0.00760879 -0.00505973
v 0.05624444 0.00760879 -0.00254038
v 0.05612606 0.00838584 -0.00259242
v 0.05616911 0.00838584 -0.00242778
v 0.05556823 0.01118548 -0.00284956
v 0.05496017 0.01104242 -0.00474668
v 0.05459965 0.01224400 -0.00505973
v 0.05539065 0.01258156 -0.00242778
v 0.05543550 0.00769014 -0.00505973
v 0.05570993 0.00760879 -0.00431150
v 0.05595207 0.00760879 -0.00351792
v 0.05558437 0.00838117 -0.00436922
v 0.05587136 0.00978379 -0.00270450
v 0.05614938 0.00852611 -0.00242778
v 0.05561486 0.01154456 -0.00242778
v 0.05568840 0.01118455 -0.00242778
v 0.05523102 0.00962483 -0.00474179
v 0.05512160 0.00959023 -0.00505973
v 0.05485614 0.01098444 -0.00505973
v 0.05531891 0.00846158 -0.00505973
v 0.05594669 0.00978473 -0.00242778
f 1 2 3
f 1 3 8
f 1 8 18
f 1 18 20
f 1 20 9
f 1 9 4
f 1 4 10
f 1 10 21
f 1 21 31
f 1 31 41
f 1 41 48
f 1 48 43
f 1 43 42
f 1 42 35
f 1 35 24
f 1 24 22
f 1 22 11
f 1 11 7
f 1 7 2
f 2 5 6
f 2 6 3
f 2 7 5
f 3 6 8
f 4 9 10
f 5 7 11
f 5 11 12
f 5 12 13
f 5 13 14
f 5 14 15
f 5 15 6
f 6 15 16
f 6 16 17
f 6 17 18
f 6 18 8
f 9 19 10
f 9 20 17
f 9 17 16
f 9 16 15
f 9 15 14
f 9 14 27
f 9 27 26
f 9 26 34
f 9 34 46
f 9 46 45
f 9 45 47
f 9 47 36
f 9 36 28
f 9 28 19
f 10 19 28
f 10 28 37
f 10 37 38
f 10 38 29
f 10 29 21
f 11 22 12
f 12 23 13
f 12 22 24
f 12 24 25
f 12 25 23
f 13 23 26
f 13 26 27
f 13 27 14
f 17 20 18
f 21 29 30
f 21 30 31
f 23 25 32
f 23 32 33
f 23 33 34
f 23 34 26
f 24 35 25
f 25 35 32
f 28 36 37
f 29 38 30
f 30 38 37
f 30 37 39
f 30 39 40
f 30 40 41
f 30 41 31
f 32 42 43
f 32 43 40
f 32 40 39
f 32 39 44
f 32 44 33
f 32 35 42
f 33 45 46
f 33 46 34
f 33 44 45
f 36 39 37
f 36 47 39
f 39 47 45
f 39 45 44
f 40 48 41
f 40 43 48

