# https://github.com/mikedh/trimesh
v 0.02446464 -0.05301027 0.01509013
v 0.02446464 -0.05300657 0.01353072
v 0.02512134 -0.05270809 0.01539666
v 0.02453009 -0.05297944 0.01666599
v 0.02446464 -0.05300904 0.01648496
v 0.02571974 -0.05242318 0.01412733
v 0.02446464 -0.05300411 0.01342580
v 0.02449984 -0.05298807 0.01342580
v 0.02580719 -0.05237014 0.01725849
v 0.02521209 -0.05263409 0.01852576
v 0.02446464 -0.05298314 0.01818014
v 0.02446464 -0.05300657 0.01680383
v 0.02446464 -0.05300781 0.01669068
v 0.02698750 -0.05178551 0.01471982
v 0.02640285 -0.05208523 0.01598915
v 0.02604589 -0.05224803 0.01342580
v 0.02651615 -0.05200999 0.01342580
v 0.02446464 -0.04403978 0.01342580
v 0.02706615 -0.05171521 0.01784892
v 0.02648205 -0.05198286 0.01911826
v 0.02588640 -0.05222830 0.02038759
v 0.02529294 -0.05246388 0.02165487
v 0.02461974 -0.05286596 0.01979510
v 0.02446464 -0.05296587 0.01879938
v 0.02826075 -0.05109974 0.01531231
v 0.02766180 -0.05141919 0.01657959
v 0.02752430 -0.05148950 0.01342580
v 0.02758810 -0.05145619 0.01342580
v 0.03008291 -0.04040989 0.01342580
v 0.02446464 -0.04645107 0.03059369
v 0.02834600 -0.05101094 0.01844142
v 0.02775090 -0.05128598 0.01971075
v 0.02715745 -0.05154253 0.02097803
v 0.02656950 -0.05179538 0.02224736
v 0.02596834 -0.05203589 0.02351464
v 0.02470719 -0.05267972 0.02292420
v 0.02446464 -0.05292147 0.02013043
v 0.02446464 -0.05293750 0.01972309
v 0.02884595 -0.05075933 0.01404298
v 0.02952356 -0.05037451 0.01590275
v 0.02893065 -0.05070629 0.01717208
v 0.02913306 -0.05058295 0.01342580
v 0.03008291 -0.05001559 0.01342580
v 0.03008291 -0.04273608 0.02852408
v 0.02446464 -0.04657811 0.03139808
v 0.03008291 -0.04299016 0.03016166
v 0.02960936 -0.05026473 0.01903185
v 0.02901976 -0.05055212 0.02030118
v 0.02843565 -0.05081976 0.02157052
v 0.02784055 -0.05108741 0.02283985
v 0.02725040 -0.05133779 0.02410713
v 0.02537874 -0.05225050 0.02478191
v 0.02446464 -0.05276483 0.02344675
v 0.02446464 -0.05286843 0.02126604
v 0.03008291 -0.05003779 0.01470130
v 0.03008291 -0.05003779 0.01616402
v 0.03008291 -0.05001929 0.01770903
v 0.03008291 -0.05003655 0.01462107
v 0.02446464 -0.04659414 0.03147626
v 0.03008291 -0.04305553 0.03053609
v 0.03008291 -0.05001189 0.01801350
v 0.03008291 -0.04997242 0.01925198
v 0.03008291 -0.04990705 0.02079904
v 0.03008291 -0.04988361 0.02132159
v 0.02969076 -0.05007479 0.02216095
v 0.02910171 -0.05035107 0.02343029
v 0.02850715 -0.05061748 0.02469757
v 0.02665090 -0.05154746 0.02537441
v 0.02446464 -0.05271056 0.02435400
v 0.02605579 -0.05171767 0.02664168
v 0.02677630 -0.05085059 0.03146186
v 0.02578080 -0.05138096 0.03107098
v 0.02478364 -0.05240591 0.02604919
v 0.03008291 -0.04325534 0.03150095
v 0.02446464 -0.04676806 0.03226625
v 0.03008291 -0.04974671 0.02388700
v 0.02976776 -0.04984414 0.02528800
v 0.02917321 -0.05006122 0.02655528
v 0.02792525 -0.05081606 0.02596690
v 0.02446464 -0.05256625 0.02590107
v 0.02774540 -0.05032763 0.03148038
v 0.02661020 -0.05081360 0.03228682
v 0.02578959 -0.05128598 0.03188977
v 0.02446464 -0.05195695 0.03156884
v 0.03008291 -0.04327507 0.03158735
v 0.02446464 -0.04684329 0.03252958
v 0.03008291 -0.04969984 0.02462967
v 0.03008291 -0.04963323 0.02543407
v 0.03008291 -0.04908437 0.03048054
v 0.02962146 -0.04933845 0.03068627
v 0.02848845 -0.04994528 0.03110801
v 0.02891581 -0.04960486 0.03184451
v 0.02801930 -0.05005012 0.03222716
v 0.02719925 -0.05043618 0.03257895
v 0.02609485 -0.05092213 0.03283817
v 0.02487219 -0.05163504 0.03235060
v 0.02446464 -0.05187062 0.03211813
v 0.03008291 -0.04345392 0.03221070
v 0.02446464 -0.04690866 0.03269005
v 0.03008291 -0.04351682 0.03238557
v 0.03008291 -0.04898940 0.03129933
v 0.03008291 -0.04895610 0.03156061
v 0.02966766 -0.04908190 0.03222305
v 0.03008291 -0.04892650 0.03172107
v 0.02922161 -0.04915961 0.03288137
v 0.02783505 -0.04992678 0.03299247
v 0.02613995 -0.05059775 0.03336894
v 0.02517744 -0.05117005 0.03324139
v 0.02457629 -0.05161407 0.03288343
v 0.02446464 -0.05166711 0.03288137
v 0.02446464 -0.05167944 0.03284228
v 0.02446464 -0.05181635 0.03238969
v 0.03008291 -0.04361056 0.03261187
v 0.02446464 -0.04702830 0.03296366
v 0.03008291 -0.04883029 0.03221482
v 0.03008291 -0.04863172 0.03284640
v 0.03008291 -0.04845287 0.03321054
v 0.03008291 -0.04837147 0.03334631
v 0.02886355 -0.04913247 0.03328254
v 0.02761010 -0.04977507 0.03343272
v 0.02449214 -0.05120952 0.03363639
v 0.02446464 -0.05122185 0.03363845
v 0.02446464 -0.05148950 0.03326814
v 0.03008291 -0.04374376 0.03288137
v 0.02446464 -0.04704310 0.03299041
v 0.03008291 -0.04824196 0.03348827
v 0.02667565 -0.05006615 0.03363639
v 0.02844610 -0.04892157 0.03380097
v 0.02564659 -0.05044604 0.03378657
v 0.02446464 -0.05072602 0.03400258
v 0.03008291 -0.04405212 0.03338746
v 0.02446464 -0.04705297 0.03300481
v 0.02956811 -0.04840107 0.03363845
v 0.03008291 -0.04801502 0.03367137
v 0.02726580 -0.04891540 0.03423300
v 0.02743465 -0.04934709 0.03389766
v 0.02633300 -0.04975534 0.03402727
v 0.02446464 -0.05071122 0.03401081
v 0.02446464 -0.04751303 0.03361993
v 0.02446464 -0.04759443 0.03371045
v 0.03008291 -0.04434813 0.03369194
v 0.03008291 -0.04763390 0.03385446
v 0.02833005 -0.04843684 0.03409104
v 0.03008291 -0.04683466 0.03421243
v 0.03008291 -0.04638077 0.03433175
v 0.02712720 -0.04832090 0.03437083
v 0.02524454 -0.04911027 0.03444078
v 0.02446464 -0.04948769 0.03444284
v 0.02446464 -0.05016483 0.03426591
v 0.02446464 -0.04768077 0.03378657
v 0.03008291 -0.04448504 0.03381743
v 0.03008291 -0.04625989 0.03433792
v 0.03008291 -0.04615629 0.03433175
v 0.02729715 -0.04750069 0.03436466
v 0.02446464 -0.04912631 0.03440169
v 0.02446464 -0.04838134 0.03424122
v 0.02510814 -0.04753523 0.03394086
v 0.02549809 -0.04773750 0.03422065
v 0.03008291 -0.04493769 0.03407047
v 0.03008291 -0.04585904 0.03430500
v 0.03008291 -0.04554822 0.03427003
v 0.02446464 -0.04867982 0.03431735
v 0.02446464 -0.04856141 0.03428854
v 0.03008291 -0.04501786 0.03410956
v 0.03008291 -0.04498703 0.03409516
f 1 2 3
f 1 3 4
f 1 4 5
f 1 5 13
f 1 13 12
f 1 12 11
f 1 11 24
f 1 24 38
f 1 38 37
f 1 37 54
f 1 54 53
f 1 53 69
f 1 69 80
f 1 80 84
f 1 84 97
f 1 97 112
f 1 112 111
f 1 111 110
f 1 110 123
f 1 123 122
f 1 122 130
f 1 130 138
f 1 138 149
f 1 149 148
f 1 148 155
f 1 155 162
f 1 162 163
f 1 163 156
f 1 156 150
f 1 150 140
f 1 140 139
f 1 139 132
f 1 132 125
f 1 125 114
f 1 114 99
f 1 99 86
f 1 86 75
f 1 75 59
f 1 59 45
f 1 45 30
f 1 30 18
f 1 18 7
f 1 7 2
f 2 6 3
f 2 7 8
f 2 8 6
f 3 6 9
f 3 9 4
f 4 9 10
f 4 10 11
f 4 11 12
f 4 12 13
f 4 13 5
f 6 14 15
f 6 15 9
f 6 8 16
f 6 16 17
f 6 17 14
f 7 18 29
f 7 29 43
f 7 43 42
f 7 42 28
f 7 28 27
f 7 27 17
f 7 17 16
f 7 16 8
f 9 15 19
f 9 19 20
f 9 20 10
f 10 20 21
f 10 21 22
f 10 22 23
f 10 23 24
f 10 24 11
f 14 25 26
f 14 26 15
f 14 17 27
f 14 27 28
f 14 28 25
f 15 26 19
f 18 30 29
f 19 31 32
f 19 32 20
f 19 26 31
f 20 32 33
f 20 33 34
f 20 34 21
f 21 34 35
f 21 35 22
f 22 35 36
f 22 36 23
f 23 37 38
f 23 38 24
f 23 36 37
f 25 28 39
f 25 39 40
f 25 40 41
f 25 41 26
f 26 41 31
f 28 42 39
f 29 30 44
f 29 44 46
f 29 46 60
f 29 60 74
f 29 74 85
f 29 85 98
f 29 98 100
f 29 100 113
f 29 113 124
f 29 124 131
f 29 131 141
f 29 141 151
f 29 151 159
f 29 159 165
f 29 165 164
f 29 164 161
f 29 161 160
f 29 160 153
f 29 153 152
f 29 152 145
f 29 145 144
f 29 144 142
f 29 142 134
f 29 134 126
f 29 126 118
f 29 118 117
f 29 117 116
f 29 116 115
f 29 115 104
f 29 104 102
f 29 102 101
f 29 101 89
f 29 89 88
f 29 88 87
f 29 87 76
f 29 76 64
f 29 64 63
f 29 63 62
f 29 62 61
f 29 61 57
f 29 57 56
f 29 56 55
f 29 55 58
f 29 58 43
f 30 45 46
f 30 46 44
f 31 47 48
f 31 48 32
f 31 41 47
f 32 48 49
f 32 49 50
f 32 50 33
f 33 50 34
f 34 50 51
f 34 51 35
f 35 51 52
f 35 52 36
f 36 52 53
f 36 53 54
f 36 54 37
f 39 55 40
f 39 42 55
f 40 56 57
f 40 57 41
f 40 55 56
f 41 57 47
f 42 43 58
f 42 58 55
f 45 59 60
f 45 60 46
f 47 57 61
f 47 61 62
f 47 62 63
f 47 63 64
f 47 64 48
f 48 64 65
f 48 65 66
f 48 66 49
f 49 66 50
f 50 66 67
f 50 67 51
f 51 67 68
f 51 68 52
f 52 69 53
f 52 68 70
f 52 70 71
f 52 71 72
f 52 72 73
f 52 73 69
f 59 74 60
f 59 75 74
f 64 76 65
f 65 76 66
f 66 76 77
f 66 77 67
f 67 77 78
f 67 78 79
f 67 79 68
f 68 79 71
f 68 71 70
f 69 73 80
f 71 81 82
f 71 82 83
f 71 83 72
f 71 79 81
f 72 83 84
f 72 84 73
f 73 84 80
f 74 75 85
f 75 86 85
f 76 87 77
f 77 87 88
f 77 88 89
f 77 89 90
f 77 90 78
f 78 90 91
f 78 91 81
f 78 81 79
f 81 91 92
f 81 92 93
f 81 93 82
f 82 93 94
f 82 94 95
f 82 95 96
f 82 96 83
f 83 96 97
f 83 97 84
f 85 86 98
f 86 99 100
f 86 100 98
f 89 101 90
f 90 101 102
f 90 102 92
f 90 92 91
f 92 103 93
f 92 102 104
f 92 104 103
f 93 103 94
f 94 103 105
f 94 105 106
f 94 106 95
f 95 106 107
f 95 107 108
f 95 108 109
f 95 109 110
f 95 110 111
f 95 111 112
f 95 112 96
f 96 112 97
f 99 113 100
f 99 114 113
f 103 104 115
f 103 115 105
f 105 116 117
f 105 117 106
f 105 115 116
f 106 117 118
f 106 118 119
f 106 119 120
f 106 120 107
f 107 120 121
f 107 121 122
f 107 122 108
f 108 123 110
f 108 110 109
f 108 122 123
f 113 114 124
f 114 125 124
f 118 126 120
f 118 120 119
f 120 127 121
f 120 126 128
f 120 128 127
f 121 127 122
f 122 127 129
f 122 129 130
f 124 125 131
f 125 132 131
f 126 133 128
f 126 134 133
f 127 128 129
f 128 133 134
f 128 134 135
f 128 135 136
f 128 136 129
f 129 136 137
f 129 137 130
f 130 137 138
f 131 132 139
f 131 139 140
f 131 140 141
f 134 142 143
f 134 143 135
f 135 138 137
f 135 137 136
f 135 143 144
f 135 144 145
f 135 145 146
f 135 146 147
f 135 147 148
f 135 148 149
f 135 149 138
f 140 150 151
f 140 151 141
f 142 144 143
f 145 152 147
f 145 147 146
f 147 152 153
f 147 153 154
f 147 154 155
f 147 155 148
f 150 156 157
f 150 157 151
f 151 157 158
f 151 158 159
f 153 160 154
f 154 160 161
f 154 161 155
f 155 161 162
f 156 163 158
f 156 158 157
f 158 164 165
f 158 165 159
f 158 163 162
f 158 162 161
f 158 161 164

