# https://github.com/mikedh/trimesh
v 0.01918325 -0.05516342 0.01571741
v 0.01918325 -0.05516233 0.01489028
v 0.01946138 -0.05505997 0.01430036
v 0.02013499 -0.05481388 0.01615881
v 0.02022908 -0.05474092 0.01928992
v 0.01954978 -0.05500879 0.01742941
v 0.01918325 -0.05514055 0.01725821
v 0.01918325 -0.05515035 0.01417042
v 0.01920703 -0.05511550 0.01342580
v 0.01986668 -0.05488901 0.01342580
v 0.02132041 -0.05434565 0.01362175
v 0.02072227 -0.05459501 0.01489028
v 0.02081274 -0.05453076 0.01801932
v 0.02208450 -0.05402007 0.01861131
v 0.02147912 -0.05423785 0.01987984
v 0.02089236 -0.05442078 0.02114837
v 0.01962888 -0.05491732 0.02055845
v 0.01918325 -0.05509155 0.01966738
v 0.01918325 -0.05511115 0.01880313
v 0.01918325 -0.05512312 0.01342580
v 0.02090115 -0.05449919 0.01342580
v 0.02258648 -0.05383169 0.01421373
v 0.02200282 -0.05408104 0.01548226
v 0.02141140 -0.05430318 0.01342580
v 0.02185651 -0.05411916 0.01342580
v 0.02295508 -0.05366400 0.01342580
v 0.02335211 -0.05345928 0.01920329
v 0.02276535 -0.05367706 0.02047388
v 0.02268315 -0.05378486 0.01734277
v 0.02216618 -0.05386871 0.02174035
v 0.02157269 -0.05403205 0.02300888
v 0.02031438 -0.05456670 0.02241896
v 0.01918325 -0.05500988 0.02189505
v 0.01918325 -0.05502948 0.02151346
v 0.01918325 -0.05507521 0.02035012
v 0.01918325 -0.04659266 0.01342580
v 0.02385771 -0.05328833 0.01480571
v 0.02327560 -0.05353768 0.01607424
v 0.02421287 -0.05311519 0.01342580
v 0.02393371 -0.05323061 0.01793476
v 0.02446464 -0.05298343 0.01818021
v 0.02446464 -0.05296601 0.01879901
v 0.02446464 -0.05293770 0.01972308
v 0.02446464 -0.05292245 0.02013148
v 0.02403452 -0.05307925 0.02106380
v 0.02411775 -0.05288543 0.02419284
v 0.02285479 -0.05347017 0.02360292
v 0.02225303 -0.05364004 0.02486939
v 0.02098128 -0.05418340 0.02427535
v 0.02038831 -0.05431407 0.02554388
v 0.01972245 -0.05469628 0.02368749
v 0.01918325 -0.05494890 0.02282943
v 0.02446464 -0.04403918 0.01342580
v 0.01918325 -0.04904487 0.03111097
v 0.02446464 -0.05300956 0.01509036
v 0.02446464 -0.05300956 0.01648471
v 0.02446464 -0.05300630 0.01350212
v 0.02446464 -0.05300739 0.01680442
v 0.02440829 -0.05302916 0.01342580
v 0.02446464 -0.05286910 0.02126594
v 0.02446464 -0.05279505 0.02281087
v 0.02446464 -0.05276456 0.02344616
v 0.02446464 -0.05271120 0.02435373
v 0.02446464 -0.05263607 0.02516023
v 0.02351599 -0.05304223 0.02545931
v 0.02165541 -0.05376200 0.02613586
v 0.02227681 -0.05302045 0.03105528
v 0.02138658 -0.05336672 0.03138737
v 0.01918325 -0.05480299 0.02498078
v 0.01918325 -0.05480626 0.02493746
v 0.01918325 -0.05420736 0.03124917
v 0.01918325 -0.05481279 0.02484464
v 0.02446464 -0.05300412 0.01342580
v 0.02446257 -0.04645219 0.03059944
v 0.02446464 -0.04645110 0.03059325
v 0.01918325 -0.04918316 0.03185559
v 0.02446464 -0.04657741 0.03139768
v 0.02446464 -0.05256638 0.02590072
v 0.02361680 -0.05236058 0.03163489
v 0.02214912 -0.05299323 0.03181434
v 0.01963611 -0.05390682 0.03214024
v 0.01918325 -0.05410827 0.03194016
v 0.01918325 -0.05413440 0.03177102
v 0.02446464 -0.04659374 0.03147607
v 0.01918325 -0.04929531 0.03232794
v 0.02446464 -0.04676906 0.03226606
v 0.02446464 -0.05195768 0.03156888
v 0.02446464 -0.05187057 0.03211755
v 0.02273795 -0.05269161 0.03208249
v 0.02188598 -0.05295621 0.03249502
v 0.02042501 -0.05353550 0.03249089
v 0.01918325 -0.05402442 0.03230731
v 0.01918325 -0.04934540 0.03251152
v 0.02446464 -0.04684419 0.03253008
v 0.02446464 -0.05181613 0.03238982
v 0.02349997 -0.05224624 0.03248264
v 0.02299747 -0.05235622 0.03286010
v 0.02143776 -0.05299759 0.03295911
v 0.01918325 -0.05388395 0.03278172
v 0.01918325 -0.05396671 0.03252595
v 0.02005951 -0.05346690 0.03310350
v 0.02446464 -0.04691062 0.03269097
v 0.01918325 -0.04964376 0.03312206
v 0.02446464 -0.04702931 0.03296324
v 0.02446464 -0.05168001 0.03284154
v 0.02446464 -0.05166695 0.03288073
v 0.02446464 -0.05164190 0.03293642
v 0.02369176 -0.05183682 0.03329739
v 0.02232385 -0.05245422 0.03333039
v 0.01918325 -0.05371735 0.03320663
v 0.02112189 -0.05278743 0.03357172
v 0.01918325 -0.05011526 0.03383986
v 0.02446464 -0.04704346 0.03299212
v 0.02446464 -0.05148945 0.03326851
v 0.02446464 -0.05122158 0.03363772
v 0.02263352 -0.05207202 0.03366454
v 0.01918325 -0.05354639 0.03345415
v 0.01918325 -0.05329159 0.03379655
v 0.01918325 -0.05306728 0.03405232
v 0.02446464 -0.04768156 0.03378623
v 0.02446464 -0.04759553 0.03370992
v 0.02446464 -0.04751496 0.03361916
v 0.01918325 -0.05049202 0.03411420
v 0.02446464 -0.05121614 0.03364391
v 0.02343380 -0.05147094 0.03386668
v 0.02246034 -0.05160706 0.03412657
v 0.01918325 -0.05289523 0.03416989
v 0.02446464 -0.04838281 0.03424208
v 0.01918325 -0.05093193 0.03433284
v 0.02446464 -0.05072613 0.03400282
v 0.02446464 -0.05016535 0.03426684
v 0.02076156 -0.05180959 0.03439678
v 0.01965989 -0.05253480 0.03427715
v 0.02446464 -0.05071851 0.03400694
v 0.01918325 -0.05270249 0.03428127
v 0.01918325 -0.05104409 0.03438234
v 0.01918325 -0.05123574 0.03445660
v 0.02446464 -0.04856248 0.03428952
v 0.02446464 -0.04948914 0.03444216
v 0.01966041 -0.05166586 0.03449785
v 0.01918325 -0.05233553 0.03440915
v 0.01918325 -0.05141105 0.03447104
v 0.02446464 -0.04912762 0.03440091
v 0.02446464 -0.04868117 0.03431634
v 0.01918325 -0.05168219 0.03449166
v 0.01918325 -0.05182048 0.03449579
v 0.01918325 -0.05188146 0.03448960
v 0.01918325 -0.05206004 0.03445866
f 1 2 3
f 1 3 4
f 1 4 5
f 1 5 6
f 1 6 7
f 1 7 19
f 1 19 18
f 1 18 35
f 1 35 34
f 1 34 33
f 1 33 52
f 1 52 72
f 1 72 70
f 1 70 69
f 1 69 71
f 1 71 83
f 1 83 82
f 1 82 92
f 1 92 100
f 1 100 99
f 1 99 110
f 1 110 117
f 1 117 118
f 1 118 119
f 1 119 127
f 1 127 135
f 1 135 141
f 1 141 148
f 1 148 147
f 1 147 146
f 1 146 145
f 1 145 142
f 1 142 137
f 1 137 136
f 1 136 129
f 1 129 123
f 1 123 112
f 1 112 103
f 1 103 93
f 1 93 85
f 1 85 76
f 1 76 54
f 1 54 36
f 1 36 20
f 1 20 8
f 1 8 2
f 2 8 3
f 3 8 9
f 3 9 10
f 3 10 11
f 3 11 12
f 3 12 4
f 4 12 13
f 4 13 5
f 5 13 14
f 5 14 15
f 5 15 16
f 5 16 17
f 5 17 18
f 5 18 19
f 5 19 7
f 5 7 6
f 8 20 9
f 9 20 36
f 9 36 53
f 9 53 73
f 9 73 59
f 9 59 39
f 9 39 26
f 9 26 25
f 9 25 24
f 9 24 21
f 9 21 10
f 10 21 11
f 11 22 23
f 11 23 12
f 11 21 24
f 11 24 25
f 11 25 26
f 11 26 22
f 12 23 13
f 13 23 14
f 14 27 28
f 14 28 15
f 14 23 29
f 14 29 27
f 15 28 30
f 15 30 16
f 16 30 31
f 16 31 32
f 16 32 17
f 17 32 33
f 17 33 34
f 17 34 35
f 17 35 18
f 22 37 38
f 22 38 23
f 22 26 37
f 23 38 29
f 26 39 37
f 27 29 40
f 27 40 41
f 27 41 42
f 27 42 43
f 27 43 28
f 28 43 44
f 28 44 45
f 28 45 46
f 28 46 47
f 28 47 30
f 29 38 40
f 30 47 48
f 30 48 31
f 31 48 49
f 31 49 32
f 32 49 50
f 32 50 51
f 32 51 52
f 32 52 33
f 36 54 53
f 37 55 56
f 37 56 38
f 37 39 57
f 37 57 55
f 38 56 58
f 38 58 40
f 39 59 57
f 40 58 41
f 41 58 56
f 41 56 55
f 41 55 57
f 41 57 73
f 41 73 53
f 41 53 75
f 41 75 77
f 41 77 84
f 41 84 86
f 41 86 94
f 41 94 102
f 41 102 104
f 41 104 113
f 41 113 122
f 41 122 121
f 41 121 120
f 41 120 128
f 41 128 138
f 41 138 144
f 41 144 143
f 41 143 139
f 41 139 131
f 41 131 134
f 41 134 130
f 41 130 124
f 41 124 115
f 41 115 114
f 41 114 107
f 41 107 106
f 41 106 105
f 41 105 95
f 41 95 88
f 41 88 87
f 41 87 78
f 41 78 64
f 41 64 63
f 41 63 62
f 41 62 61
f 41 61 60
f 41 60 44
f 41 44 43
f 41 43 42
f 44 60 45
f 45 60 61
f 45 61 62
f 45 62 46
f 46 62 63
f 46 63 64
f 46 64 65
f 46 65 48
f 46 48 47
f 48 66 50
f 48 50 49
f 48 65 67
f 48 67 68
f 48 68 66
f 50 69 70
f 50 70 51
f 50 66 68
f 50 68 71
f 50 71 69
f 51 70 72
f 51 72 52
f 53 54 74
f 53 74 75
f 54 76 77
f 54 77 74
f 57 59 73
f 64 78 65
f 65 78 79
f 65 79 67
f 67 79 80
f 67 80 68
f 68 80 81
f 68 81 82
f 68 82 83
f 68 83 71
f 74 77 75
f 76 84 77
f 76 85 86
f 76 86 84
f 78 87 79
f 79 87 88
f 79 88 89
f 79 89 80
f 80 89 90
f 80 90 91
f 80 91 81
f 81 91 92
f 81 92 82
f 85 93 86
f 86 93 94
f 88 95 89
f 89 95 96
f 89 96 90
f 90 96 97
f 90 97 98
f 90 98 91
f 91 99 100
f 91 100 92
f 91 98 101
f 91 101 99
f 93 102 94
f 93 103 104
f 93 104 102
f 95 105 96
f 96 105 97
f 97 105 106
f 97 106 107
f 97 107 108
f 97 108 109
f 97 109 98
f 98 109 101
f 99 101 110
f 101 109 111
f 101 111 110
f 103 112 113
f 103 113 104
f 107 114 108
f 108 114 115
f 108 115 116
f 108 116 109
f 109 116 111
f 110 111 117
f 111 118 117
f 111 116 119
f 111 119 118
f 112 120 121
f 112 121 122
f 112 122 113
f 112 123 120
f 115 124 116
f 116 124 125
f 116 125 126
f 116 126 119
f 119 126 127
f 120 123 128
f 123 129 128
f 124 130 125
f 125 130 126
f 126 131 132
f 126 132 133
f 126 133 127
f 126 130 134
f 126 134 131
f 127 133 135
f 128 129 136
f 128 136 137
f 128 137 138
f 131 139 132
f 132 139 140
f 132 140 141
f 132 141 135
f 132 135 133
f 137 142 139
f 137 139 143
f 137 143 144
f 137 144 138
f 139 142 145
f 139 145 140
f 140 145 146
f 140 146 147
f 140 147 148
f 140 148 141

