# https://github.com/mikedh/trimesh
v -0.00016940 0.02251112 -0.02785573
v -0.00016843 0.02005392 -0.02785573
v -0.00016940 0.02251112 -0.02917834
v -0.01007136 0.02251112 -0.02785573
v -0.00016843 0.02005392 -0.02802124
v -0.00016843 0.01885261 -0.02785573
v -0.00152262 0.02251112 -0.02956716
v -0.01007136 0.02251112 -0.02956716
v -0.01007136 0.02005392 -0.02785573
v -0.01007039 0.01610308 -0.02785573
v -0.01007136 0.02024086 -0.02956716
v -0.01007136 0.02005392 -0.02923965
f 1 2 5
f 1 5 3
f 1 3 7
f 1 7 8
f 1 8 4
f 1 4 9
f 1 9 10
f 1 10 6
f 1 6 2
f 2 6 5
f 3 5 6
f 3 6 7
f 4 8 11
f 4 11 12
f 4 12 9
f 6 10 7
f 7 10 11
f 7 11 8
f 9 12 10
f 10 12 11

