# https://github.com/mikedh/trimesh
v -0.01861037 -0.04759563 0.01428620
v -0.00962385 -0.05010305 0.01428620
v -0.01861037 -0.04312813 0.00176783
v -0.01861037 -0.05557925 0.01428620
v -0.00962385 -0.04585764 0.00176783
v -0.00962385 -0.05776572 0.01428620
v -0.01861037 -0.05437139 0.00176783
v -0.01861037 -0.05558355 0.01389040
v -0.01846523 -0.05562653 0.01428620
v -0.00962385 -0.05654926 0.00176783
v -0.00988423 -0.05772417 0.01428620
v -0.00962385 -0.05776285 0.01373111
v -0.01794887 -0.05458631 0.00176783
v -0.01861037 -0.05458058 0.00272484
v -0.01861037 -0.05558641 0.01353627
v -0.01760845 -0.05590450 0.01428620
v -0.00962385 -0.05666389 0.00228126
v -0.01022993 -0.05645326 0.00176783
v -0.00962385 -0.05775856 0.01309146
v -0.01038211 -0.05763820 0.01428620
v -0.01124417 -0.05748632 0.01388305
v -0.01064865 -0.05757802 0.01261479
v -0.01734895 -0.05477258 0.00176783
v -0.01843444 -0.05465509 0.00280572
v -0.01861037 -0.05460780 0.00287066
v -0.01861037 -0.05557782 0.01312945
v -0.01817494 -0.05569531 0.01219449
v -0.01690473 -0.05610796 0.01278635
v -0.01750113 -0.05594032 0.01405460
v -0.01741756 -0.05596324 0.01428620
v -0.00962385 -0.05675845 0.00276161
v -0.01090814 -0.05662950 0.00322725
v -0.01031790 -0.05648049 0.00195654
v -0.01072254 -0.05636873 0.00176783
v -0.01005928 -0.05763677 0.01134654
v -0.00962385 -0.05771271 0.01154872
v -0.01143154 -0.05745193 0.01428620
v -0.01297356 -0.05713098 0.01428620
v -0.01192062 -0.05732298 0.01202294
v -0.01132422 -0.05739605 0.01075591
v -0.01670417 -0.05496457 0.00176783
v -0.01657222 -0.05508923 0.00213177
v -0.01861037 -0.05466512 0.00318313
v -0.01716686 -0.05516803 0.00339880
v -0.01861037 -0.05555059 0.01235257
v -0.01861037 -0.05553627 0.01199231
v -0.01861037 -0.05546033 0.01044957
v -0.01758558 -0.05583142 0.01092501
v -0.01631536 -0.05624407 0.01151686
v -0.01563803 -0.05646473 0.01337697
v -0.01606290 -0.05634724 0.01428620
v -0.01700501 -0.05608073 0.01428620
v -0.00963969 -0.05696335 0.00382032
v -0.00962385 -0.05696478 0.00381420
v -0.01149927 -0.05672836 0.00449673
v -0.01276685 -0.05638449 0.00390610
v -0.01217484 -0.05628563 0.00263907
v -0.01177284 -0.05617960 0.00176783
v -0.00962385 -0.05761241 0.01000476
v -0.00962385 -0.05768978 0.01118847
v -0.01073661 -0.05741325 0.00948643
v -0.01320227 -0.05707940 0.01428620
v -0.01378284 -0.05691463 0.01269935
v -0.01319084 -0.05702209 0.01143109
v -0.01259795 -0.05710663 0.01016283
v -0.01200155 -0.05714388 0.00889580
v -0.01640508 -0.05505341 0.00176783
v -0.01565210 -0.05526260 0.00176783
v -0.01530024 -0.05557352 0.00272362
v -0.01861037 -0.05479550 0.00392571
v -0.01775887 -0.05519239 0.00466705
v -0.01589137 -0.05563370 0.00399310
v -0.01861037 -0.05535287 0.00890438
v -0.01826203 -0.05547895 0.00906490
v -0.01699357 -0.05593459 0.00965675
v -0.01572159 -0.05634580 0.01024983
v -0.01445578 -0.05670114 0.01084046
v -0.01504866 -0.05659225 0.01210872
v -0.01437221 -0.05680001 0.01396883
v -0.01451999 -0.05676418 0.01428620
v -0.01530904 -0.05655786 0.01428620
v -0.00962385 -0.05711952 0.00486801
v -0.01022993 -0.05705218 0.00508858
v -0.01209391 -0.05677708 0.00576376
v -0.01336149 -0.05641888 0.00517313
v -0.01403530 -0.05601053 0.00331547
v -0.01344066 -0.05589733 0.00204967
v -0.01267888 -0.05599333 0.00176783
v -0.00962385 -0.05742901 0.00780645
v -0.01141306 -0.05713098 0.00762632
v -0.01102778 -0.05720979 0.00780645
v -0.00962385 -0.05737026 0.00710431
v -0.01369488 -0.05696478 0.01428620
v -0.01386905 -0.05678281 0.00957098
v -0.01327177 -0.05680860 0.00830395
v -0.01304042 -0.05680717 0.00780645
v -0.01268328 -0.05680430 0.00703447
v -0.01486130 -0.05548039 0.00176783
v -0.01861037 -0.05485281 0.00427003
v -0.01834823 -0.05517090 0.00593654
v -0.01861037 -0.05507060 0.00581522
v -0.01861037 -0.05495741 0.00497830
v -0.01648337 -0.05563513 0.00526136
v -0.01462467 -0.05604348 0.00458373
v -0.01522195 -0.05604635 0.00584831
v -0.01861037 -0.05528982 0.00811402
v -0.01640245 -0.05599333 0.00838727
v -0.01512959 -0.05640598 0.00898035
v -0.01767530 -0.05556349 0.00780645
v -0.01425610 -0.05683153 0.01428620
v -0.00962385 -0.05718830 0.00537042
v -0.00962385 -0.05725277 0.00592183
v -0.01082106 -0.05709946 0.00635806
v -0.01395437 -0.05642747 0.00644139
v -0.01403970 -0.05568671 0.00176783
v -0.01354270 -0.05580707 0.00176783
v -0.01331135 -0.05586151 0.00176783
v -0.00962385 -0.05735164 0.00691561
v -0.01433878 -0.05648622 0.00780645
v -0.01345473 -0.05670687 0.00780645
v -0.01861037 -0.05522678 0.00735919
v -0.01861037 -0.05514224 0.00649408
v -0.01861037 -0.05509353 0.00603211
v -0.01707538 -0.05560934 0.00652961
v -0.01581396 -0.05602485 0.00711779
v -0.01458421 -0.05642318 0.00780645
f 1 2 3
f 1 3 7
f 1 7 14
f 1 14 25
f 1 25 43
f 1 43 70
f 1 70 99
f 1 99 102
f 1 102 101
f 1 101 123
f 1 123 122
f 1 122 121
f 1 121 106
f 1 106 73
f 1 73 47
f 1 47 46
f 1 46 45
f 1 45 26
f 1 26 15
f 1 15 8
f 1 8 4
f 1 4 9
f 1 9 16
f 1 16 30
f 1 30 52
f 1 52 51
f 1 51 81
f 1 81 80
f 1 80 110
f 1 110 93
f 1 93 62
f 1 62 38
f 1 38 37
f 1 37 20
f 1 20 11
f 1 11 6
f 1 6 2
f 2 5 3
f 2 6 12
f 2 12 19
f 2 19 36
f 2 36 60
f 2 60 59
f 2 59 89
f 2 89 92
f 2 92 118
f 2 118 112
f 2 112 111
f 2 111 82
f 2 82 54
f 2 54 31
f 2 31 17
f 2 17 10
f 2 10 5
f 3 5 10
f 3 10 18
f 3 18 34
f 3 34 58
f 3 58 88
f 3 88 117
f 3 117 116
f 3 116 115
f 3 115 98
f 3 98 68
f 3 68 67
f 3 67 41
f 3 41 23
f 3 23 13
f 3 13 7
f 4 8 9
f 6 11 12
f 7 13 14
f 8 15 16
f 8 16 9
f 10 17 18
f 11 19 12
f 11 20 21
f 11 21 22
f 11 22 19
f 13 23 24
f 13 24 14
f 14 24 25
f 15 26 27
f 15 27 28
f 15 28 29
f 15 29 16
f 16 29 30
f 17 31 32
f 17 32 33
f 17 33 18
f 18 33 34
f 19 35 36
f 19 22 35
f 20 37 21
f 21 37 38
f 21 38 39
f 21 39 22
f 22 39 40
f 22 40 35
f 23 41 42
f 23 42 24
f 24 43 25
f 24 42 44
f 24 44 43
f 26 45 27
f 27 45 46
f 27 46 47
f 27 47 48
f 27 48 49
f 27 49 28
f 28 49 50
f 28 50 51
f 28 51 29
f 29 51 52
f 29 52 30
f 31 53 32
f 31 54 53
f 32 53 55
f 32 55 56
f 32 56 57
f 32 57 33
f 33 57 58
f 33 58 34
f 35 59 60
f 35 60 36
f 35 40 61
f 35 61 59
f 38 62 39
f 39 62 63
f 39 63 64
f 39 64 65
f 39 65 40
f 40 65 66
f 40 66 61
f 41 67 42
f 42 67 68
f 42 68 69
f 42 69 44
f 43 44 70
f 44 71 70
f 44 69 72
f 44 72 71
f 47 73 74
f 47 74 48
f 48 75 49
f 48 74 75
f 49 75 76
f 49 76 77
f 49 77 78
f 49 78 50
f 50 78 79
f 50 79 80
f 50 80 81
f 50 81 51
f 53 54 82
f 53 82 83
f 53 83 55
f 55 83 84
f 55 84 56
f 56 84 85
f 56 85 86
f 56 86 57
f 57 86 87
f 57 87 88
f 57 88 58
f 59 61 89
f 61 66 90
f 61 90 91
f 61 91 92
f 61 92 89
f 62 93 63
f 63 93 79
f 63 79 78
f 63 78 77
f 63 77 64
f 64 77 65
f 65 77 94
f 65 94 66
f 66 94 95
f 66 95 96
f 66 96 97
f 66 97 90
f 68 98 69
f 69 87 86
f 69 86 72
f 69 98 87
f 70 71 99
f 71 100 101
f 71 101 102
f 71 102 99
f 71 72 103
f 71 103 100
f 72 86 104
f 72 104 105
f 72 105 103
f 73 106 74
f 74 106 75
f 75 107 108
f 75 108 76
f 75 106 109
f 75 109 107
f 76 108 94
f 76 94 77
f 79 93 110
f 79 110 80
f 82 111 83
f 83 111 112
f 83 112 113
f 83 113 84
f 84 97 85
f 84 113 90
f 84 90 97
f 85 114 104
f 85 104 86
f 85 97 114
f 87 98 115
f 87 115 116
f 87 116 117
f 87 117 88
f 90 113 112
f 90 112 118
f 90 118 92
f 90 92 91
f 94 108 95
f 95 108 119
f 95 119 105
f 95 105 120
f 95 120 96
f 96 120 97
f 97 120 114
f 100 121 122
f 100 122 123
f 100 123 101
f 100 103 124
f 100 124 109
f 100 109 121
f 103 105 125
f 103 125 124
f 104 114 105
f 105 114 120
f 105 119 126
f 105 126 108
f 105 108 125
f 106 121 109
f 107 109 124
f 107 124 125
f 107 125 108
f 108 126 119

