# https://github.com/mikedh/trimesh
v -0.02330917 -0.04114755 -0.01728283
v -0.02282817 -0.04140884 -0.01728283
v -0.02429920 -0.04114755 -0.01688090
v -0.02137927 -0.04114755 -0.01728283
v -0.02314982 -0.04222755 -0.01653740
v -0.02141911 -0.04214870 -0.01728283
v -0.02456921 -0.04114755 -0.01676002
v -0.02137927 -0.04216887 -0.01728283
v -0.02137927 -0.04114755 -0.00699298
v -0.02137927 -0.04220921 -0.01725160
v -0.02222028 -0.04326629 -0.01607907
v -0.02480381 -0.04210103 -0.01589473
v -0.02580417 -0.04114755 -0.01617779
v -0.02137927 -0.05051367 -0.00699298
v -0.03645107 -0.04114755 -0.00699298
v -0.02137927 -0.04227889 -0.01719620
v -0.02264079 -0.04461950 -0.01466075
v -0.02381968 -0.04329013 -0.01533365
v -0.02137927 -0.04328738 -0.01639134
v -0.02137927 -0.04419135 -0.01561469
v -0.02137927 -0.04473961 -0.01511707
v -0.02568170 -0.04331763 -0.01432934
v -0.02674256 -0.04200568 -0.01496094
v -0.02646665 -0.04114755 -0.01583127
v -0.02137927 -0.05029547 -0.00746038
v -0.02161830 -0.05041649 -0.00699298
v -0.03644812 -0.04114755 -0.00699903
v -0.03643336 -0.04116405 -0.00699298
v -0.02339917 -0.04530161 -0.01355773
v -0.02454118 -0.04431329 -0.01397376
v -0.02137927 -0.04556748 -0.01431524
v -0.02137927 -0.04559774 -0.01428401
v -0.02665403 -0.04371003 -0.01334720
v -0.02817818 -0.04233756 -0.01379546
v -0.02893066 -0.04114755 -0.01444519
v -0.02756881 -0.04114755 -0.01524803
v -0.02137927 -0.05011395 -0.00783209
v -0.02286948 -0.04988291 -0.00699298
v -0.02308638 -0.04974630 -0.00708465
v -0.03620909 -0.04114755 -0.00734756
v -0.03506561 -0.04184341 -0.00782000
v -0.03564989 -0.04182782 -0.00699298
v -0.02137927 -0.04568484 -0.01418630
v -0.02198864 -0.04667591 -0.01274985
v -0.02384919 -0.04632569 -0.01207293
v -0.02527005 -0.04492480 -0.01287073
v -0.02710700 -0.04444348 -0.01219079
v -0.02795096 -0.04344140 -0.01276899
v -0.02938068 -0.04185532 -0.01346204
v -0.02919034 -0.04114755 -0.01427293
v -0.02137927 -0.04961062 -0.00875883
v -0.02249472 -0.04936766 -0.00834179
v -0.02313064 -0.04976739 -0.00699298
v -0.02334753 -0.04966563 -0.00699298
v -0.02435675 -0.04884141 -0.00767797
v -0.03569563 -0.04114755 -0.00806881
v -0.03465691 -0.04114755 -0.00939243
v -0.03390738 -0.04201118 -0.00904189
v -0.03303243 -0.04353492 -0.00768199
v -0.03353999 -0.04331122 -0.00739088
v -0.03379967 -0.04331855 -0.00699298
v -0.02137927 -0.04667407 -0.01306716
v -0.02258620 -0.04737452 -0.01148969
v -0.02137927 -0.04717007 -0.01246680
v -0.02137927 -0.04758722 -0.01192485
v -0.02444085 -0.04694637 -0.01080471
v -0.02570826 -0.04585903 -0.01139500
v -0.02757177 -0.04526311 -0.01072211
v -0.02861934 -0.04400341 -0.01156725
v -0.03010070 -0.04275380 -0.01189766
v -0.03096532 -0.04186082 -0.01223612
v -0.03077351 -0.04114755 -0.01314070
v -0.03015529 -0.04114755 -0.01361616
v -0.02137927 -0.04925673 -0.00938035
v -0.02190601 -0.04889184 -0.00962613
v -0.02376951 -0.04842610 -0.00895123
v -0.02468725 -0.04901652 -0.00699298
v -0.02517267 -0.04877815 -0.00699298
v -0.02529809 -0.04854803 -0.00733447
v -0.02564924 -0.04787051 -0.00825617
v -0.03406082 -0.04114755 -0.01006331
v -0.03341458 -0.04114755 -0.01079060
v -0.03313424 -0.04141342 -0.01073621
v -0.03245258 -0.04231556 -0.01022449
v -0.03294390 -0.04300317 -0.00866011
v -0.03187715 -0.04412718 -0.00809399
v -0.03248799 -0.04430504 -0.00699298
v -0.03280226 -0.04408134 -0.00699298
v -0.03308702 -0.04386772 -0.00699298
v -0.02313507 -0.04802270 -0.01013282
v -0.02137927 -0.04830049 -0.01092458
v -0.02503545 -0.04744236 -0.00954051
v -0.02630582 -0.04639353 -0.01013282
v -0.02817375 -0.04573434 -0.00946295
v -0.02943084 -0.04455441 -0.01004518
v -0.03092400 -0.04306551 -0.01073520
v -0.03177092 -0.04195984 -0.01139299
v -0.03251750 -0.04114755 -0.01167302
v -0.03162337 -0.04114755 -0.01247586
v -0.02137927 -0.04899544 -0.00981753
v -0.02137927 -0.04841143 -0.01075233
v -0.02620107 -0.04825374 -0.00699298
v -0.02621582 -0.04824274 -0.00699903
v -0.02754963 -0.04717007 -0.00764875
v -0.02689601 -0.04684643 -0.00886258
v -0.03315785 -0.04114755 -0.01104546
v -0.03130172 -0.04373203 -0.00937632
v -0.03183584 -0.04476711 -0.00699298
v -0.03010070 -0.04487254 -0.00888071
v -0.03060973 -0.04535112 -0.00750370
v -0.02137927 -0.04833900 -0.01086615
v -0.02875803 -0.04615333 -0.00818666
v -0.02623353 -0.04823632 -0.00699298
v -0.02743602 -0.04757530 -0.00699298
v -0.02778571 -0.04737177 -0.00699298
v -0.02915641 -0.04656589 -0.00699298
v -0.03085023 -0.04545655 -0.00699298
v -0.02951052 -0.04634494 -0.00699298
v -0.02930838 -0.04647421 -0.00699298
f 1 2 3
f 1 3 7
f 1 7 13
f 1 13 24
f 1 24 36
f 1 36 35
f 1 35 50
f 1 50 73
f 1 73 72
f 1 72 99
f 1 99 98
f 1 98 106
f 1 106 82
f 1 82 81
f 1 81 57
f 1 57 56
f 1 56 40
f 1 40 27
f 1 27 15
f 1 15 9
f 1 9 4
f 1 4 8
f 1 8 6
f 1 6 2
f 2 5 3
f 2 6 5
f 3 5 7
f 4 9 14
f 4 14 25
f 4 25 37
f 4 37 51
f 4 51 74
f 4 74 100
f 4 100 101
f 4 101 111
f 4 111 91
f 4 91 65
f 4 65 64
f 4 64 62
f 4 62 43
f 4 43 32
f 4 32 31
f 4 31 21
f 4 21 20
f 4 20 19
f 4 19 16
f 4 16 10
f 4 10 8
f 5 6 10
f 5 10 11
f 5 11 12
f 5 12 7
f 6 8 10
f 7 12 13
f 9 15 28
f 9 28 42
f 9 42 61
f 9 61 89
f 9 89 88
f 9 88 87
f 9 87 108
f 9 108 117
f 9 117 118
f 9 118 119
f 9 119 116
f 9 116 115
f 9 115 114
f 9 114 113
f 9 113 102
f 9 102 78
f 9 78 77
f 9 77 54
f 9 54 53
f 9 53 38
f 9 38 26
f 9 26 14
f 10 16 11
f 11 17 18
f 11 18 12
f 11 16 19
f 11 19 20
f 11 20 21
f 11 21 17
f 12 22 23
f 12 23 24
f 12 24 13
f 12 18 22
f 14 26 25
f 15 27 28
f 17 29 30
f 17 30 18
f 17 21 31
f 17 31 32
f 17 32 29
f 18 30 22
f 22 30 33
f 22 33 34
f 22 34 23
f 23 34 35
f 23 35 36
f 23 36 24
f 25 26 38
f 25 38 39
f 25 39 37
f 27 40 28
f 28 40 41
f 28 41 42
f 29 32 43
f 29 43 44
f 29 44 45
f 29 45 46
f 29 46 30
f 30 46 33
f 33 47 48
f 33 48 34
f 33 46 47
f 34 48 49
f 34 49 50
f 34 50 35
f 37 39 52
f 37 52 51
f 38 53 39
f 39 53 54
f 39 54 55
f 39 55 52
f 40 56 41
f 41 56 57
f 41 57 58
f 41 58 59
f 41 59 60
f 41 60 42
f 42 60 61
f 43 62 44
f 44 63 45
f 44 62 64
f 44 64 65
f 44 65 63
f 45 63 66
f 45 66 67
f 45 67 46
f 46 67 47
f 47 68 69
f 47 69 48
f 47 67 68
f 48 69 70
f 48 70 49
f 49 70 71
f 49 71 72
f 49 72 73
f 49 73 50
f 51 52 75
f 51 75 74
f 52 55 76
f 52 76 75
f 54 77 55
f 55 77 78
f 55 78 79
f 55 79 80
f 55 80 76
f 57 81 58
f 58 81 82
f 58 82 83
f 58 83 84
f 58 84 85
f 58 85 59
f 59 85 86
f 59 86 87
f 59 87 88
f 59 88 89
f 59 89 60
f 60 89 61
f 63 90 66
f 63 65 91
f 63 91 90
f 66 92 93
f 66 93 67
f 66 90 92
f 67 93 68
f 68 94 95
f 68 95 69
f 68 93 94
f 69 95 96
f 69 96 70
f 70 96 97
f 70 97 71
f 71 97 98
f 71 98 99
f 71 99 72
f 74 75 100
f 75 76 90
f 75 90 101
f 75 101 100
f 76 80 92
f 76 92 90
f 78 102 79
f 79 102 103
f 79 103 80
f 80 103 104
f 80 104 105
f 80 105 92
f 82 106 83
f 83 106 97
f 83 97 84
f 84 97 96
f 84 96 107
f 84 107 85
f 85 107 86
f 86 108 87
f 86 107 109
f 86 109 110
f 86 110 108
f 90 91 111
f 90 111 101
f 92 105 93
f 93 105 94
f 94 105 112
f 94 112 109
f 94 109 95
f 95 109 107
f 95 107 96
f 97 106 98
f 102 113 103
f 103 113 104
f 104 113 114
f 104 114 115
f 104 115 116
f 104 116 112
f 104 112 105
f 108 110 117
f 109 112 110
f 110 112 118
f 110 118 117
f 112 116 119
f 112 119 118

