# https://github.com/mikedh/trimesh
v -0.04519415 -0.02084520 0.00819372
v -0.04051622 -0.02881749 0.00819372
v -0.05477317 -0.02084520 0.00819372
v -0.04712161 -0.02084520 0.01588910
v -0.04268106 -0.02881749 0.01588910
v -0.05103765 -0.02881749 0.00819372
v -0.05475043 -0.02090607 0.00819372
v -0.05479876 -0.02100987 0.00901486
v -0.05485703 -0.02084520 0.00898699
v -0.05503329 -0.02084520 0.01588910
v -0.05128214 -0.02881749 0.01588910
v -0.05105044 -0.02881749 0.00833761
v -0.05111583 -0.02867935 0.00819372
v -0.05470778 -0.02101845 0.00819372
v -0.05489541 -0.02101377 0.01051778
v -0.05413921 -0.02242014 0.00819372
v -0.05424440 -0.02241624 0.00927929
v -0.05434532 -0.02241468 0.01077467
v -0.05495511 -0.02084520 0.01048991
v -0.05503756 -0.02084520 0.01508980
v -0.05497501 -0.02101767 0.01511843
v -0.05497075 -0.02101689 0.01588910
v -0.05171567 -0.02801363 0.01588910
v -0.05128498 -0.02881749 0.01554784
v -0.05112294 -0.02881749 0.00918813
v -0.05155932 -0.02800816 0.00898096
v -0.05148967 -0.02801128 0.00819372
v -0.05494516 -0.02101533 0.01204028
v -0.05354790 -0.02382105 0.00819372
v -0.05365166 -0.02381012 0.00954974
v -0.05372842 -0.02381403 0.01106245
v -0.05438796 -0.02241624 0.01230094
v -0.05499918 -0.02084520 0.01182784
v -0.05502761 -0.02084520 0.01372701
v -0.05496648 -0.02101143 0.01357032
v -0.05441212 -0.02241624 0.01537909
v -0.05441212 -0.02241546 0.01588910
v -0.05218332 -0.02709582 0.01588910
v -0.05171852 -0.02801285 0.01508754
v -0.05128640 -0.02881749 0.01529095
v -0.05116274 -0.02881749 0.00983073
v -0.05164886 -0.02801441 0.01048915
v -0.05226435 -0.02661272 0.00865552
v -0.05222454 -0.02661350 0.00819372
v -0.05500913 -0.02084520 0.01219848
v -0.05500486 -0.02084520 0.01201316
v -0.05326219 -0.02445087 0.00819372
v -0.05292673 -0.02521259 0.00834590
v -0.05301486 -0.02522040 0.00985710
v -0.05375258 -0.02381949 0.01260077
v -0.05234963 -0.02662052 0.01016672
v -0.05306319 -0.02521337 0.01137282
v -0.05379807 -0.02380778 0.01565707
v -0.05502618 -0.02084520 0.01354320
v -0.05391036 -0.02355179 0.01588910
v -0.05242497 -0.02661896 0.01588910
v -0.05241928 -0.02662208 0.01476963
v -0.05170430 -0.02801285 0.01354998
v -0.05127503 -0.02881749 0.01375262
v -0.05128071 -0.02881749 0.01440878
v -0.05121248 -0.02881749 0.01069029
v -0.05168866 -0.02801207 0.01201241
v -0.05125655 -0.02881749 0.01221581
v -0.05282439 -0.02539444 0.00819372
v -0.05291252 -0.02521181 0.00819372
v -0.05310441 -0.02522274 0.01445172
v -0.05238659 -0.02661896 0.01169374
v -0.05331194 -0.02482861 0.01588910
v -0.05379665 -0.02380700 0.01588910
v -0.05307598 -0.02531639 0.01588910
v -0.05126792 -0.02881749 0.01309646
v -0.05312573 -0.02521493 0.01588910
f 1 2 6
f 1 6 13
f 1 13 27
f 1 27 44
f 1 44 64
f 1 64 65
f 1 65 47
f 1 47 29
f 1 29 16
f 1 16 14
f 1 14 7
f 1 7 3
f 1 3 9
f 1 9 19
f 1 19 33
f 1 33 46
f 1 46 45
f 1 45 54
f 1 54 34
f 1 34 20
f 1 20 10
f 1 10 4
f 1 4 2
f 2 4 5
f 2 5 11
f 2 11 24
f 2 24 40
f 2 40 60
f 2 60 59
f 2 59 71
f 2 71 63
f 2 63 61
f 2 61 41
f 2 41 25
f 2 25 12
f 2 12 6
f 3 7 8
f 3 8 9
f 4 10 22
f 4 22 37
f 4 37 55
f 4 55 69
f 4 69 68
f 4 68 72
f 4 72 70
f 4 70 56
f 4 56 38
f 4 38 23
f 4 23 11
f 4 11 5
f 6 12 13
f 7 14 8
f 8 15 9
f 8 14 16
f 8 16 17
f 8 17 18
f 8 18 15
f 9 15 19
f 10 20 21
f 10 21 22
f 11 23 24
f 12 25 13
f 13 25 26
f 13 26 27
f 15 28 19
f 15 18 28
f 16 29 17
f 17 29 30
f 17 30 18
f 18 30 31
f 18 31 32
f 18 32 28
f 19 28 33
f 20 34 35
f 20 35 21
f 21 35 36
f 21 36 37
f 21 37 22
f 23 38 39
f 23 39 40
f 23 40 24
f 25 41 26
f 26 42 43
f 26 43 44
f 26 44 27
f 26 41 42
f 28 35 45
f 28 45 46
f 28 46 33
f 28 32 35
f 29 47 30
f 30 47 48
f 30 48 49
f 30 49 31
f 31 50 32
f 31 49 51
f 31 51 52
f 31 52 50
f 32 50 53
f 32 53 36
f 32 36 35
f 34 54 35
f 35 54 45
f 36 53 37
f 37 53 55
f 38 56 39
f 39 56 57
f 39 57 58
f 39 58 59
f 39 59 60
f 39 60 40
f 41 61 42
f 42 62 51
f 42 51 43
f 42 61 63
f 42 63 62
f 43 51 49
f 43 49 48
f 43 48 64
f 43 64 44
f 47 65 48
f 48 65 64
f 50 52 66
f 50 66 53
f 51 62 67
f 51 67 52
f 52 67 66
f 53 66 68
f 53 68 69
f 53 69 55
f 56 70 57
f 57 67 62
f 57 62 58
f 57 70 67
f 58 62 59
f 59 62 71
f 62 63 71
f 66 72 68
f 66 67 72
f 67 70 72

