# https://github.com/mikedh/trimesh
v 0.00792007 0.02743122 -0.03204273
v 0.00792007 0.02742519 -0.03211718
v 0.00792007 0.02741816 -0.03178038
v 0.00845560 0.02727742 -0.03178759
v 0.00850223 0.02722012 -0.03251280
v 0.00792007 0.02739403 -0.03245037
v 0.00792007 0.02735080 -0.03091289
v 0.00808554 0.02729451 -0.03075560
v 0.00909042 0.02707436 -0.03147001
v 0.01115281 0.02641391 -0.03057550
v 0.01145066 0.02631238 -0.03120766
v 0.01007272 0.02674866 -0.03181100
v 0.00965603 0.02679490 -0.03272593
v 0.00894901 0.02697785 -0.03302790
v 0.00792007 0.02734779 -0.03279076
v 0.00792007 0.02733975 -0.03078982
v 0.00919421 0.02689844 -0.03025732
v 0.00792007 0.02727742 -0.03050346
v 0.00792007 0.02717790 -0.03007361
v 0.01162366 0.02618069 -0.03012524
v 0.01241642 0.02595351 -0.03071298
v 0.01169887 0.02615355 -0.03183622
v 0.01031191 0.02659687 -0.03244136
v 0.01219980 0.02601382 -0.03139316
v 0.01083540 0.02625408 -0.03305371
v 0.00940181 0.02656168 -0.03362104
v 0.00830818 0.02709346 -0.03331486
v 0.00792007 0.02731863 -0.03293365
v 0.00792007 0.02713869 -0.02993433
v 0.00916413 0.02670845 -0.02955672
v 0.01056914 0.02642396 -0.02988931
v 0.01184178 0.02577658 -0.02941624
v 0.01242244 0.02580674 -0.03001958
v 0.00928447 0.02639280 -0.02862198
v 0.01290833 0.02569516 -0.03123648
v 0.01318061 0.02549210 -0.03031255
v 0.01355217 0.02538152 -0.03111040
v 0.01214414 0.02584192 -0.03248699
v 0.01332502 0.02531819 -0.03247618
v 0.01285417 0.02545792 -0.03280937
v 0.01371614 0.02494424 -0.03315637
v 0.01309336 0.02508698 -0.03343433
v 0.01143261 0.02582986 -0.03339891
v 0.00868576 0.02657274 -0.03389959
v 0.00792007 0.02706431 -0.03360603
v 0.01234722 0.02514127 -0.03379934
v 0.00792007 0.02709346 -0.03355080
v 0.00792007 0.02720605 -0.03329385
v 0.00792007 0.02728043 -0.03306932
v 0.00792007 0.02694569 -0.02938622
v 0.00792158 0.02671046 -0.02862198
v 0.00831269 0.02662602 -0.02862198
v 0.00848268 0.02658782 -0.02862198
v 0.00918820 0.02664914 -0.02938142
v 0.01183727 0.02576150 -0.02938142
v 0.01293691 0.02538052 -0.02967678
v 0.01174250 0.02543279 -0.02862859
v 0.01173648 0.02543178 -0.02862198
v 0.01414185 0.02494424 -0.03228227
v 0.01326033 0.02543782 -0.03184462
v 0.01397337 0.02486884 -0.02999437
v 0.01431635 0.02484673 -0.03061152
v 0.01616213 0.02376006 -0.03127430
v 0.01537538 0.02428178 -0.03163510
v 0.01473906 0.02464970 -0.03193587
v 0.01444422 0.02463663 -0.03290483
v 0.01471048 0.02425363 -0.03342833
v 0.01404558 0.02438230 -0.03370148
v 0.00792007 0.02655766 -0.03413313
v 0.00792007 0.02683611 -0.03388038
v 0.01112874 0.02521063 -0.03414093
v 0.01354013 0.02440040 -0.03396443
v 0.00792007 0.02693664 -0.02938202
v 0.00792158 0.02069204 -0.02862198
v 0.01264357 0.02516941 -0.02898759
v 0.01339723 0.02453510 -0.02862198
v 0.01343784 0.02492212 -0.02938202
v 0.01175904 0.02542072 -0.02862198
v 0.01517681 0.02429083 -0.03252661
v 0.01351757 0.02487085 -0.02938142
v 0.01420654 0.02442955 -0.02938142
v 0.01537839 0.02395105 -0.03010783
v 0.01571686 0.02393095 -0.03067696
v 0.01723018 0.02289051 -0.03085346
v 0.01753706 0.02277491 -0.03131632
v 0.01773562 0.02260201 -0.03207455
v 0.01644042 0.02350975 -0.03208356
v 0.01546564 0.02384651 -0.03323502
v 0.01547466 0.02354192 -0.03378853
v 0.00792007 0.02654258 -0.03414213
v 0.01455403 0.02361932 -0.03417155
v 0.01348297 0.02384450 -0.03432584
v 0.01131828 0.02450092 -0.03448013
v 0.00965603 0.02523978 -0.03445671
v 0.00792007 0.02126000 -0.02938202
v 0.01400346 0.01716261 -0.02862198
v 0.00792007 0.02168221 -0.03292224
v 0.00792007 0.02170131 -0.03304411
v 0.00792007 0.02181188 -0.03361203
v 0.01246907 0.02505381 -0.02862198
v 0.01320317 0.02464367 -0.02862198
v 0.01395682 0.02419834 -0.02862198
v 0.01349200 0.02487085 -0.02934840
v 0.01425919 0.02433104 -0.02924454
v 0.01833434 0.02205616 -0.03258184
v 0.01836442 0.02194759 -0.03291684
v 0.01638777 0.02333282 -0.03288322
v 0.01639229 0.02249746 -0.02862198
v 0.01511062 0.02379825 -0.02938202
v 0.01515425 0.02376709 -0.02938202
v 0.01856750 0.02142888 -0.03006221
v 0.02067503 0.02004164 -0.03072499
v 0.02002517 0.02065183 -0.03096692
v 0.01852839 0.02203706 -0.03171375
v 0.02059078 0.02036231 -0.03155706
v 0.01953477 0.02122180 -0.03214779
v 0.01665855 0.02289554 -0.03343733
v 0.01719408 0.02238387 -0.03368527
v 0.01650060 0.02241905 -0.03408390
v 0.01563412 0.02308955 -0.03404908
v 0.00792007 0.02647121 -0.03417695
v 0.01435095 0.02308051 -0.03443150
v 0.01577251 0.02252963 -0.03430062
v 0.01282860 0.02364143 -0.03450714
v 0.01059923 0.02449489 -0.03460680
v 0.00829765 0.02526893 -0.03462541
v 0.00804944 0.02597562 -0.03439007
v 0.01521291 0.01716160 -0.02938202
v 0.02194616 0.01716261 -0.02862198
v 0.01579658 0.01716160 -0.03302910
v 0.01559501 0.01716160 -0.03229008
v 0.01558448 0.01716160 -0.03221143
v 0.00792007 0.02187019 -0.03367447
v 0.01696091 0.01716160 -0.03425379
v 0.01635317 0.01716160 -0.03384796
v 0.01610496 0.01716160 -0.03365826
v 0.01581012 0.01716160 -0.03306212
v 0.01483383 0.02362234 -0.02862198
v 0.01961901 0.02101673 -0.03266829
v 0.01911356 0.02133238 -0.03298467
v 0.01788605 0.02126302 -0.02862198
v 0.02119551 0.01947971 -0.03055269
v 0.02138054 0.01956415 -0.03124248
v 0.01883376 0.02045480 -0.02862198
v 0.02144072 0.01957621 -0.03178339
v 0.02083899 0.02015021 -0.03209016
v 0.01737159 0.02167115 -0.03413012
v 0.01983111 0.02048395 -0.03337850
v 0.01871643 0.02106800 -0.03375791
v 0.00792007 0.02603694 -0.03438227
v 0.01310389 0.02305940 -0.03462961
v 0.01517982 0.02240196 -0.03447172
v 0.01746184 0.02103885 -0.03439307
v 0.01610496 0.02167819 -0.03449934
v 0.00977487 0.02456224 -0.03468064
v 0.00792007 0.02490001 -0.03472026
v 0.00792007 0.02527698 -0.03464522
v 0.00792007 0.02541067 -0.03461100
v 0.02231622 0.01716160 -0.02938202
v 0.02233126 0.01716160 -0.02940543
v 0.02255089 0.01716160 -0.02979505
v 0.02274946 0.01716160 -0.03017447
v 0.02236135 0.01750238 -0.02988330
v 0.02197625 0.01821410 -0.03012104
v 0.02149336 0.01889063 -0.03016727
v 0.02127825 0.01802411 -0.02862198
v 0.00792007 0.02212049 -0.03393261
v 0.01808613 0.01716160 -0.03454556
v 0.00792007 0.02244217 -0.03422798
v 0.00792007 0.02285935 -0.03445731
v 0.02044637 0.02037136 -0.03245277
v 0.02076378 0.01985869 -0.03303931
v 0.02045389 0.01888460 -0.02862198
v 0.02188599 0.01891777 -0.03098433
v 0.01954229 0.01980239 -0.02862198
v 0.02200483 0.01895497 -0.03166452
v 0.02145275 0.01936008 -0.03273013
v 0.02202739 0.01880921 -0.03243536
v 0.02029293 0.01962346 -0.03383476
v 0.01884128 0.02036031 -0.03414994
v 0.01810267 0.02100065 -0.03414874
v 0.02096987 0.01932892 -0.03352918
v 0.01429830 0.02244117 -0.03459359
v 0.01525203 0.02162189 -0.03463081
v 0.01224794 0.02303829 -0.03469865
v 0.01823054 0.01974509 -0.03455037
v 0.01737309 0.02032512 -0.03459779
v 0.01677137 0.02098657 -0.03455097
v 0.02125569 0.01818595 -0.03411392
v 0.02067352 0.01805426 -0.03436246
v 0.00910245 0.02450796 -0.03472867
v 0.00792007 0.02446976 -0.03475148
v 0.02289086 0.01716160 -0.03045243
v 0.02242603 0.01799194 -0.03068176
v 0.01823656 0.01716160 -0.03457198
v 0.00792007 0.02344039 -0.03464342
v 0.02163928 0.01885545 -0.03331366
v 0.02293147 0.01754360 -0.03119145
v 0.02257646 0.01816484 -0.03153124
v 0.02277804 0.01786528 -0.03209677
v 0.02225003 0.01831764 -0.03309934
v 0.02289988 0.01757375 -0.03278056
v 0.02157761 0.01836388 -0.03381014
v 0.01616965 0.02086996 -0.03464162
v 0.01125209 0.02303427 -0.03473887
v 0.01620876 0.02023364 -0.03469985
v 0.01987624 0.01804421 -0.03456477
v 0.02059078 0.01750741 -0.03453055
v 0.02037266 0.01716160 -0.03461340
v 0.02022825 0.01716160 -0.03463081
v 0.01924745 0.01806130 -0.03463922
v 0.01834336 0.01885947 -0.03464822
v 0.02194766 0.01749937 -0.03406409
v 0.02189953 0.01716160 -0.03422558
v 0.02171600 0.01716160 -0.03429042
v 0.02123914 0.01716160 -0.03443330
v 0.02099996 0.01716160 -0.03450354
v 0.00995840 0.02368768 -0.03474128
v 0.00834880 0.02447579 -0.03474368
v 0.00792007 0.02438230 -0.03475448
v 0.02310297 0.01716160 -0.03095972
v 0.02316013 0.01716160 -0.03110320
v 0.01889394 0.01716160 -0.03465543
v 0.00792007 0.02374699 -0.03471186
v 0.02240948 0.01768534 -0.03358021
v 0.02326242 0.01716160 -0.03165371
v 0.02328799 0.01716160 -0.03180980
v 0.02328499 0.01716160 -0.03190285
v 0.02326393 0.01716160 -0.03216160
v 0.02304731 0.01716160 -0.03318939
v 0.02299165 0.01716160 -0.03333587
v 0.02292997 0.01716160 -0.03342713
v 0.02319473 0.01716160 -0.03265749
v 0.02314960 0.01716160 -0.03287601
v 0.01908348 0.01752952 -0.03469565
v 0.01951070 0.01716160 -0.03469265
v 0.02055167 0.01716160 -0.03458519
v 0.01977846 0.01716160 -0.03467164
v 0.02235082 0.01716160 -0.03395783
v 0.02224401 0.01716160 -0.03404187
v 0.02202889 0.01716160 -0.03416314
v 0.00792007 0.02424760 -0.03474668
v 0.01905941 0.01716160 -0.03466743
v 0.00792007 0.02396412 -0.03472927
v 0.02253284 0.01716160 -0.03381314
v 0.02271786 0.01716160 -0.03365045
f 1 2 6
f 1 6 15
f 1 15 28
f 1 28 49
f 1 49 48
f 1 48 47
f 1 47 45
f 1 45 70
f 1 70 69
f 1 69 90
f 1 90 121
f 1 121 150
f 1 150 158
f 1 158 157
f 1 157 156
f 1 156 192
f 1 192 220
f 1 220 242
f 1 242 244
f 1 244 224
f 1 224 196
f 1 196 170
f 1 170 169
f 1 169 167
f 1 167 133
f 1 133 99
f 1 99 98
f 1 98 97
f 1 97 95
f 1 95 73
f 1 73 50
f 1 50 29
f 1 29 19
f 1 19 18
f 1 18 16
f 1 16 7
f 1 7 3
f 1 3 4
f 1 4 5
f 1 5 2
f 2 5 6
f 3 7 4
f 4 7 8
f 4 8 9
f 4 9 10
f 4 10 11
f 4 11 12
f 4 12 5
f 5 12 13
f 5 13 14
f 5 14 15
f 5 15 6
f 7 16 8
f 8 17 10
f 8 10 9
f 8 16 18
f 8 18 19
f 8 19 17
f 10 20 21
f 10 21 11
f 10 17 20
f 11 22 23
f 11 23 12
f 11 21 24
f 11 24 22
f 12 23 13
f 13 23 25
f 13 25 14
f 14 25 26
f 14 26 27
f 14 27 28
f 14 28 15
f 17 19 29
f 17 29 30
f 17 30 31
f 17 31 20
f 20 32 33
f 20 33 21
f 20 31 34
f 20 34 32
f 21 35 24
f 21 33 36
f 21 36 37
f 21 37 35
f 22 24 38
f 22 38 23
f 23 38 25
f 24 35 39
f 24 39 38
f 25 38 40
f 25 40 41
f 25 41 42
f 25 42 43
f 25 43 26
f 26 44 45
f 26 45 27
f 26 43 42
f 26 42 46
f 26 46 44
f 27 45 47
f 27 47 48
f 27 48 49
f 27 49 28
f 29 50 51
f 29 51 52
f 29 52 53
f 29 53 34
f 29 34 54
f 29 54 30
f 30 54 31
f 31 54 34
f 32 55 33
f 32 34 55
f 33 56 36
f 33 55 57
f 33 57 56
f 34 53 52
f 34 52 51
f 34 51 74
f 34 74 96
f 34 96 129
f 34 129 166
f 34 166 173
f 34 173 175
f 34 175 144
f 34 144 141
f 34 141 108
f 34 108 138
f 34 138 102
f 34 102 76
f 34 76 101
f 34 101 100
f 34 100 78
f 34 78 58
f 34 58 57
f 34 57 55
f 35 37 59
f 35 59 60
f 35 60 39
f 36 61 62
f 36 62 37
f 36 56 61
f 37 62 63
f 37 63 64
f 37 64 65
f 37 65 59
f 38 39 40
f 39 60 59
f 39 59 66
f 39 66 41
f 39 41 40
f 41 66 67
f 41 67 42
f 42 67 68
f 42 68 46
f 44 69 70
f 44 70 45
f 44 46 71
f 44 71 69
f 46 68 72
f 46 72 71
f 50 73 51
f 51 73 95
f 51 95 74
f 56 57 75
f 56 75 76
f 56 76 77
f 56 77 61
f 57 58 78
f 57 78 75
f 59 65 79
f 59 79 66
f 61 77 80
f 61 80 81
f 61 81 82
f 61 82 83
f 61 83 62
f 62 83 63
f 63 83 84
f 63 84 85
f 63 85 86
f 63 86 87
f 63 87 64
f 64 87 79
f 64 79 65
f 66 79 88
f 66 88 67
f 67 88 89
f 67 89 68
f 68 89 72
f 69 71 90
f 71 72 91
f 71 91 92
f 71 92 93
f 71 93 94
f 71 94 90
f 72 89 91
f 74 95 97
f 74 97 98
f 74 98 99
f 74 99 96
f 75 78 100
f 75 100 101
f 75 101 76
f 76 102 77
f 77 102 103
f 77 103 104
f 77 104 80
f 79 87 86
f 79 86 105
f 79 105 106
f 79 106 107
f 79 107 88
f 80 104 81
f 81 104 82
f 82 108 84
f 82 84 83
f 82 104 109
f 82 109 110
f 82 110 108
f 84 108 111
f 84 111 112
f 84 112 113
f 84 113 85
f 85 114 86
f 85 113 115
f 85 115 114
f 86 114 116
f 86 116 105
f 88 107 106
f 88 106 117
f 88 117 89
f 89 117 118
f 89 118 119
f 89 119 120
f 89 120 91
f 90 94 121
f 91 122 92
f 91 120 123
f 91 123 122
f 92 122 124
f 92 124 125
f 92 125 93
f 93 125 94
f 94 126 127
f 94 127 121
f 94 125 126
f 96 128 159
f 96 159 129
f 96 99 130
f 96 130 131
f 96 131 132
f 96 132 128
f 99 133 134
f 99 134 135
f 99 135 136
f 99 136 137
f 99 137 130
f 102 138 104
f 102 104 103
f 104 138 109
f 105 116 106
f 106 116 139
f 106 139 140
f 106 140 118
f 106 118 117
f 108 141 112
f 108 112 111
f 108 110 138
f 109 138 110
f 112 142 143
f 112 143 115
f 112 115 113
f 112 141 144
f 112 144 142
f 114 115 116
f 115 143 145
f 115 145 146
f 115 146 116
f 116 146 139
f 118 147 119
f 118 140 148
f 118 148 149
f 118 149 147
f 119 147 123
f 119 123 120
f 121 127 150
f 122 151 124
f 122 123 152
f 122 152 151
f 123 147 153
f 123 153 154
f 123 154 152
f 124 151 125
f 125 151 155
f 125 155 126
f 126 155 156
f 126 156 157
f 126 157 158
f 126 158 150
f 126 150 127
f 128 132 131
f 128 131 130
f 128 130 137
f 128 137 136
f 128 136 135
f 128 135 134
f 128 134 168
f 128 168 195
f 128 195 223
f 128 223 243
f 128 243 236
f 128 236 238
f 128 238 210
f 128 210 209
f 128 209 237
f 128 237 217
f 128 217 216
f 128 216 215
f 128 215 214
f 128 214 241
f 128 241 240
f 128 240 239
f 128 239 245
f 128 245 246
f 128 246 232
f 128 232 231
f 128 231 230
f 128 230 234
f 128 234 233
f 128 233 229
f 128 229 228
f 128 228 227
f 128 227 226
f 128 226 222
f 128 222 221
f 128 221 193
f 128 193 162
f 128 162 161
f 128 161 160
f 128 160 159
f 129 159 160
f 129 160 161
f 129 161 162
f 129 162 163
f 129 163 164
f 129 164 165
f 129 165 166
f 133 167 134
f 134 167 169
f 134 169 170
f 134 170 168
f 139 146 171
f 139 171 172
f 139 172 140
f 140 172 148
f 142 173 166
f 142 166 165
f 142 165 174
f 142 174 143
f 142 144 175
f 142 175 173
f 143 174 176
f 143 176 145
f 145 177 146
f 145 176 178
f 145 178 177
f 146 177 171
f 147 149 179
f 147 179 180
f 147 180 181
f 147 181 153
f 148 172 182
f 148 182 179
f 148 179 149
f 151 152 183
f 151 183 184
f 151 184 185
f 151 185 155
f 152 154 183
f 153 186 187
f 153 187 188
f 153 188 154
f 153 181 180
f 153 180 189
f 153 189 190
f 153 190 186
f 154 188 183
f 155 191 156
f 155 185 191
f 156 191 192
f 162 193 194
f 162 194 163
f 163 194 164
f 164 194 165
f 165 194 174
f 168 170 196
f 168 196 195
f 171 177 172
f 172 177 197
f 172 197 182
f 174 194 198
f 174 198 199
f 174 199 176
f 176 199 200
f 176 200 178
f 177 178 201
f 177 201 197
f 178 200 202
f 178 202 201
f 179 182 203
f 179 203 189
f 179 189 180
f 182 197 203
f 183 188 184
f 184 188 187
f 184 187 204
f 184 204 185
f 185 205 191
f 185 204 206
f 185 206 205
f 186 207 187
f 186 190 208
f 186 208 207
f 187 206 204
f 187 207 209
f 187 209 210
f 187 210 211
f 187 211 212
f 187 212 206
f 189 203 213
f 189 213 214
f 189 214 215
f 189 215 190
f 190 215 216
f 190 216 217
f 190 217 208
f 191 205 218
f 191 218 219
f 191 219 192
f 192 219 220
f 193 221 194
f 194 221 222
f 194 222 198
f 195 196 224
f 195 224 223
f 197 201 225
f 197 225 203
f 198 222 226
f 198 226 199
f 199 226 227
f 199 227 200
f 200 227 228
f 200 228 229
f 200 229 202
f 201 202 230
f 201 230 231
f 201 231 232
f 201 232 225
f 202 229 233
f 202 233 234
f 202 234 230
f 203 225 213
f 205 220 218
f 205 206 235
f 205 235 220
f 206 212 236
f 206 236 235
f 207 208 209
f 208 217 237
f 208 237 209
f 210 238 211
f 211 238 212
f 212 238 236
f 213 225 239
f 213 239 240
f 213 240 241
f 213 241 214
f 218 220 219
f 220 235 236
f 220 236 242
f 223 224 243
f 224 244 236
f 224 236 243
f 225 245 239
f 225 232 246
f 225 246 245
f 236 244 242

