# https://github.com/mikedh/trimesh
v 0.02906825 -0.01142149 -0.02509041
v 0.02906825 -0.00274394 -0.02610487
v 0.03000943 -0.01142149 -0.02488278
v 0.02906825 -0.01142149 -0.01073324
v 0.03244698 -0.01142149 -0.02428358
v 0.03140097 -0.01142149 -0.02455313
v 0.03021401 -0.01142149 -0.02483543
v 0.02906825 0.00002016 -0.02620321
v 0.03573606 -0.00281673 -0.02391933
v 0.03571221 -0.00421670 -0.02386469
v 0.03568257 -0.00561667 -0.02380276
v 0.03564281 -0.00701439 -0.02371899
v 0.03424983 -0.00841548 -0.02404500
v 0.03420067 -0.00981545 -0.02393936
v 0.03278456 -0.01121541 -0.02421619
v 0.03277516 -0.01142149 -0.02419798
v 0.03645243 -0.01142149 -0.00759699
v 0.02906825 -0.00421894 -0.01114667
v 0.02906825 0.00002016 -0.01140529
v 0.03576642 0.00002016 -0.02398125
v 0.03576642 -0.00001568 -0.02398125
v 0.03575558 -0.00141677 -0.02395939
v 0.03645243 -0.00141677 -0.02372263
v 0.03645243 -0.00281673 -0.02367345
v 0.03645243 -0.00421670 -0.02361335
v 0.03645243 -0.00561667 -0.02353868
v 0.03645243 -0.00701439 -0.02344033
v 0.03559655 -0.00841548 -0.02362064
v 0.03554378 -0.00981545 -0.02350407
v 0.03414501 -0.01121429 -0.02381551
v 0.03413489 -0.01142149 -0.02379366
v 0.03645243 0.00002016 -0.00866790
v 0.03645243 -0.01142149 -0.02298683
v 0.03645243 0.00002016 -0.02374995
v 0.03645243 -0.00001680 -0.02374995
v 0.03645243 -0.00069103 -0.02373902
v 0.03645243 -0.00841548 -0.02331830
v 0.03645243 -0.00981545 -0.02317624
v 0.03548450 -0.01121429 -0.02337658
v 0.03527704 -0.01142149 -0.02342030
v 0.03547366 -0.01142149 -0.02335473
v 0.03645243 -0.01121429 -0.02301415
f 1 2 3
f 1 3 7
f 1 7 6
f 1 6 5
f 1 5 16
f 1 16 31
f 1 31 40
f 1 40 41
f 1 41 33
f 1 33 17
f 1 17 4
f 1 4 18
f 1 18 19
f 1 19 8
f 1 8 2
f 2 5 6
f 2 6 7
f 2 7 3
f 2 8 9
f 2 9 10
f 2 10 11
f 2 11 12
f 2 12 13
f 2 13 14
f 2 14 15
f 2 15 16
f 2 16 5
f 4 17 18
f 8 19 32
f 8 32 34
f 8 34 20
f 8 20 21
f 8 21 22
f 8 22 9
f 9 22 23
f 9 23 24
f 9 24 25
f 9 25 10
f 10 25 11
f 11 25 26
f 11 26 12
f 12 26 27
f 12 27 28
f 12 28 13
f 13 28 14
f 14 28 29
f 14 29 30
f 14 30 15
f 15 30 16
f 16 30 31
f 17 32 19
f 17 19 18
f 17 33 42
f 17 42 38
f 17 38 37
f 17 37 27
f 17 27 26
f 17 26 25
f 17 25 24
f 17 24 23
f 17 23 36
f 17 36 35
f 17 35 34
f 17 34 32
f 20 34 35
f 20 35 21
f 21 35 36
f 21 36 22
f 22 36 23
f 27 37 28
f 28 37 29
f 29 37 38
f 29 38 39
f 29 39 30
f 30 39 40
f 30 40 31
f 33 41 42
f 38 42 39
f 39 42 41
f 39 41 40

