# https://github.com/mikedh/trimesh
v 0.01882438 -0.01488962 -0.02793198
v 0.01882438 -0.01488962 -0.02574765
v 0.01882438 -0.01192584 -0.02793198
v 0.01882529 -0.02198833 -0.02929291
v 0.01882438 -0.00932213 -0.02574765
v 0.01882529 -0.02168977 -0.02793198
v 0.01882620 -0.02237017 -0.02573196
v 0.01882529 -0.01395423 -0.02929291
v 0.01882438 -0.00932213 -0.02759593
v 0.01944064 -0.02145400 -0.02929291
v 0.01982114 -0.02175512 -0.02573196
v 0.01901281 -0.02237017 -0.02573196
v 0.01882620 -0.02237017 -0.02584212
v 0.02812386 -0.00932213 -0.02574765
v 0.02008603 -0.00927984 -0.02793198
v 0.01882620 -0.01488962 -0.02573196
v 0.02150608 -0.00927984 -0.02929291
v 0.01958993 -0.02131562 -0.02929291
v 0.02058305 -0.02038407 -0.02929291
v 0.02036094 -0.02123361 -0.02573196
v 0.02724179 -0.01148762 -0.02574765
v 0.02653086 -0.01149403 -0.02929291
v 0.02690863 -0.01053814 -0.02929291
v 0.02697235 -0.01037540 -0.02929291
v 0.02728730 -0.00941182 -0.02929291
v 0.02731643 -0.00931828 -0.02929291
v 0.02732736 -0.00927984 -0.02929291
v 0.02711253 -0.00927984 -0.02793198
v 0.02529560 -0.01488962 -0.02573196
v 0.02062947 -0.02033666 -0.02929291
v 0.02119658 -0.01973314 -0.02929291
v 0.02136225 -0.01954478 -0.02929291
v 0.02192117 -0.01890923 -0.02929291
v 0.02276045 -0.01844282 -0.02573196
v 0.02674295 -0.01261777 -0.02574765
v 0.02607207 -0.01247426 -0.02929291
v 0.02672475 -0.01264981 -0.02574765
v 0.02500431 -0.01535475 -0.02573196
v 0.02258386 -0.01810582 -0.02929291
v 0.02348231 -0.01759200 -0.02573196
v 0.02531563 -0.01388888 -0.02929291
v 0.02547037 -0.01360442 -0.02929291
v 0.02596830 -0.01268312 -0.02929291
v 0.02422874 -0.01574813 -0.02929291
v 0.02455827 -0.01519714 -0.02929291
v 0.02424877 -0.01650413 -0.02573196
v 0.02393290 -0.01620173 -0.02929291
v 0.02264576 -0.01802894 -0.02929291
v 0.02271312 -0.01794052 -0.02929291
v 0.02340220 -0.01699489 -0.02929291
f 1 2 5
f 1 5 9
f 1 9 3
f 1 3 8
f 1 8 4
f 1 4 2
f 2 4 6
f 2 6 7
f 2 7 16
f 2 16 5
f 3 9 8
f 4 10 11
f 4 11 12
f 4 12 13
f 4 13 7
f 4 7 6
f 4 8 17
f 4 17 27
f 4 27 26
f 4 26 25
f 4 25 24
f 4 24 23
f 4 23 22
f 4 22 36
f 4 36 43
f 4 43 42
f 4 42 41
f 4 41 45
f 4 45 44
f 4 44 47
f 4 47 50
f 4 50 49
f 4 49 48
f 4 48 39
f 4 39 33
f 4 33 32
f 4 32 31
f 4 31 30
f 4 30 19
f 4 19 18
f 4 18 10
f 5 14 28
f 5 28 15
f 5 15 9
f 5 16 29
f 5 29 14
f 7 13 12
f 7 12 11
f 7 11 20
f 7 20 34
f 7 34 40
f 7 40 46
f 7 46 38
f 7 38 29
f 7 29 16
f 8 9 17
f 9 15 17
f 10 18 11
f 11 18 19
f 11 19 20
f 14 21 22
f 14 22 23
f 14 23 24
f 14 24 25
f 14 25 26
f 14 26 27
f 14 27 28
f 14 29 21
f 15 28 27
f 15 27 17
f 19 30 20
f 20 30 31
f 20 31 32
f 20 32 33
f 20 33 34
f 21 35 22
f 21 29 35
f 22 35 36
f 29 37 35
f 29 38 37
f 33 39 40
f 33 40 34
f 35 37 41
f 35 41 42
f 35 42 43
f 35 43 36
f 37 38 44
f 37 44 45
f 37 45 41
f 38 46 47
f 38 47 44
f 39 48 40
f 40 48 49
f 40 49 50
f 40 50 46
f 46 50 47

