# https://github.com/mikedh/trimesh
v 0.01882438 -0.02233540 -0.03153790
v 0.01882438 -0.02233157 -0.03136750
v 0.01882438 -0.02231240 -0.03190100
v 0.01920622 -0.02196863 -0.03216256
v 0.01906954 -0.02213476 -0.03138038
v 0.01882438 -0.02228812 -0.03071163
v 0.01882438 -0.02227789 -0.03212441
v 0.01882438 -0.02223700 -0.03233395
v 0.01882438 -0.02215904 -0.03258609
v 0.01960259 -0.02149962 -0.03259649
v 0.02025181 -0.02095010 -0.03232800
v 0.02054567 -0.02073413 -0.03160676
v 0.01888247 -0.02224083 -0.03072204
v 0.01969741 -0.02155841 -0.03102272
v 0.01924125 -0.02179355 -0.02995472
v 0.01882438 -0.02209515 -0.02971794
v 0.01882438 -0.02202103 -0.03283823
v 0.01892689 -0.02190857 -0.03288727
v 0.01987168 -0.02092326 -0.03305372
v 0.02052859 -0.02048109 -0.03272034
v 0.02097279 -0.02019355 -0.03223141
v 0.02144519 -0.01977694 -0.03177171
v 0.02034493 -0.02091687 -0.03092167
v 0.02165192 -0.01954819 -0.03113220
v 0.01997248 -0.02116480 -0.03017515
v 0.01882438 -0.02198908 -0.02929341
v 0.01944028 -0.02145489 -0.02929341
v 0.01882438 -0.02198780 -0.03289074
v 0.01882438 -0.02192007 -0.03296207
v 0.01882438 -0.02155074 -0.03332418
v 0.01915924 -0.02107790 -0.03350648
v 0.02008353 -0.02032646 -0.03341384
v 0.02076265 -0.01972327 -0.03333062
v 0.02112143 -0.01975649 -0.03279563
v 0.02197311 -0.01894499 -0.03241618
v 0.02293840 -0.01788557 -0.03199958
v 0.02210381 -0.01901400 -0.03160379
v 0.02108726 -0.02010410 -0.03046098
v 0.02272057 -0.01825490 -0.03131350
v 0.02198336 -0.01904212 -0.03013008
v 0.01958978 -0.02131560 -0.02929341
v 0.02060462 -0.02037630 -0.02934691
v 0.02037397 -0.02058077 -0.02929341
v 0.01882438 -0.01395459 -0.02929341
v 0.01882438 -0.02134627 -0.03352134
v 0.01882438 -0.02102167 -0.03378685
v 0.01882438 -0.02097694 -0.03382054
v 0.02029623 -0.01966704 -0.03373979
v 0.02157333 -0.01846704 -0.03358772
v 0.02165021 -0.01877375 -0.03322412
v 0.02218155 -0.01831752 -0.03299179
v 0.02287946 -0.01763382 -0.03271340
v 0.02355431 -0.01690155 -0.03234386
v 0.02416680 -0.01605938 -0.03231810
v 0.02380887 -0.01672775 -0.03176280
v 0.02122565 -0.01974244 -0.02946282
v 0.02327241 -0.01751752 -0.03103560
v 0.02287519 -0.01794691 -0.03023807
v 0.02258389 -0.01810666 -0.02929341
v 0.02192100 -0.01891049 -0.02929341
v 0.02062853 -0.02033796 -0.02929341
v 0.02058240 -0.02038397 -0.02929341
v 0.01882438 -0.01424213 -0.03160626
v 0.02150584 -0.00928112 -0.02929341
v 0.01882438 -0.02094755 -0.03383143
v 0.02107359 -0.01832519 -0.03394240
v 0.02338346 -0.01598398 -0.03367193
v 0.02294951 -0.01704723 -0.03336034
v 0.02377898 -0.01620251 -0.03305817
v 0.02438293 -0.01553797 -0.03281990
v 0.02491768 -0.01484916 -0.03256231
v 0.02462382 -0.01549452 -0.03186633
v 0.02472718 -0.01536801 -0.03136452
v 0.02374993 -0.01685043 -0.03083349
v 0.02119575 -0.01973349 -0.02929341
v 0.02136147 -0.01954691 -0.02929341
v 0.02264540 -0.01802870 -0.02929341
v 0.02347999 -0.01707663 -0.02989032
v 0.01882438 -0.01428430 -0.03188664
v 0.02169377 -0.00928112 -0.03172713
v 0.02732835 -0.00928112 -0.02929341
v 0.01882438 -0.02028940 -0.03402760
v 0.01957782 -0.01975522 -0.03398252
v 0.02033809 -0.01895905 -0.03397856
v 0.02055080 -0.01808877 -0.03412717
v 0.02180055 -0.01690538 -0.03407912
v 0.02342618 -0.01525427 -0.03392456
v 0.02415228 -0.01470475 -0.03375267
v 0.02405404 -0.01535139 -0.03347923
v 0.02466055 -0.01470858 -0.03325186
v 0.02522008 -0.01408622 -0.03297594
v 0.02569846 -0.01341018 -0.03266634
v 0.02553359 -0.01392903 -0.03217048
v 0.02505948 -0.01479804 -0.03178261
v 0.02455890 -0.01554564 -0.03030841
v 0.02422233 -0.01612583 -0.03060711
v 0.02553786 -0.01399549 -0.03160577
v 0.02513039 -0.01456673 -0.03026878
v 0.02271288 -0.01794052 -0.02929341
v 0.02444101 -0.01550730 -0.02956091
v 0.02393274 -0.01620251 -0.02929341
v 0.02340226 -0.01699484 -0.02929341
v 0.01882438 -0.01439932 -0.03237061
v 0.02173307 -0.00928112 -0.03213927
v 0.02744965 -0.00928112 -0.02997206
v 0.02728734 -0.00941147 -0.02929341
v 0.02734116 -0.00965173 -0.03000822
v 0.01882438 -0.02014627 -0.03405782
v 0.01891663 -0.01961975 -0.03415095
v 0.02122052 -0.01689644 -0.03420048
v 0.02281795 -0.01468430 -0.03422129
v 0.02285042 -0.01529133 -0.03410983
v 0.02407454 -0.01413095 -0.03395131
v 0.02492281 -0.01331817 -0.03377992
v 0.02480834 -0.01401721 -0.03354809
v 0.02540374 -0.01339485 -0.03327514
v 0.02593935 -0.01270475 -0.03294771
v 0.02619819 -0.01257952 -0.03233048
v 0.02625628 -0.01258079 -0.03191784
v 0.02547977 -0.01401338 -0.03080080
v 0.02588041 -0.01331945 -0.03120601
v 0.02570615 -0.01340507 -0.02998593
v 0.02530550 -0.01393031 -0.02935137
v 0.02422916 -0.01574884 -0.02929341
v 0.02455804 -0.01519676 -0.02929341
v 0.01882438 -0.01448239 -0.03261680
v 0.02182618 -0.00928112 -0.03253259
v 0.02749749 -0.00928112 -0.03033615
v 0.02697213 -0.01037505 -0.02929341
v 0.02741377 -0.00964278 -0.03070817
v 0.02661847 -0.01149198 -0.02993094
v 0.02711393 -0.01050284 -0.03090284
v 0.01882438 -0.01969899 -0.03414946
v 0.01882438 -0.01962614 -0.03416184
v 0.01882438 -0.01908813 -0.03423070
v 0.02200984 -0.01543190 -0.03426438
v 0.01882438 -0.01888876 -0.03425497
v 0.02271545 -0.01409900 -0.03431144
v 0.02442735 -0.01177952 -0.03428717
v 0.02434448 -0.01260124 -0.03418909
v 0.02352868 -0.01396993 -0.03416878
v 0.02498602 -0.01244150 -0.03398351
v 0.02560534 -0.01205939 -0.03376803
v 0.02557459 -0.01264086 -0.03353967
v 0.02618196 -0.01189453 -0.03322560
v 0.02668596 -0.01140380 -0.03248751
v 0.02622638 -0.01262169 -0.03125208
v 0.02693198 -0.01099997 -0.03179797
v 0.02654586 -0.01192776 -0.03117975
v 0.02621100 -0.01248878 -0.03033120
v 0.02596840 -0.01268303 -0.02929341
v 0.02547037 -0.01360443 -0.02929341
v 0.02531576 -0.01388814 -0.02929341
v 0.01882438 -0.01473670 -0.03302845
v 0.02190990 -0.00928112 -0.03277433
v 0.02754191 -0.00928112 -0.03078346
v 0.02690892 -0.01053735 -0.02929341
v 0.02741634 -0.00967601 -0.03155177
v 0.02755131 -0.00928112 -0.03131548
v 0.02682606 -0.01122744 -0.03097764
v 0.02653134 -0.01149326 -0.02929341
v 0.01882438 -0.01831880 -0.03425200
v 0.02123846 -0.01542296 -0.03431243
v 0.02354150 -0.01134757 -0.03434314
v 0.02355089 -0.01270220 -0.03431541
v 0.02507401 -0.01131179 -0.03417175
v 0.02515089 -0.00928112 -0.03431788
v 0.02510903 -0.00986770 -0.03429807
v 0.02574800 -0.01121466 -0.03389335
v 0.02642456 -0.00982169 -0.03381954
v 0.02624432 -0.01110604 -0.03359267
v 0.02672867 -0.01062297 -0.03323452
v 0.02719338 -0.00981530 -0.03290857
v 0.02712419 -0.01033799 -0.03235921
v 0.02607261 -0.01247344 -0.02929341
v 0.01882438 -0.01508174 -0.03334400
v 0.02211577 -0.00928112 -0.03313793
v 0.02223536 -0.00928112 -0.03332369
v 0.02734458 -0.00971946 -0.03230274
v 0.02753080 -0.00928112 -0.03181531
v 0.02755045 -0.00928112 -0.03155127
v 0.01882438 -0.01827918 -0.03424952
v 0.02387380 -0.00928112 -0.03430798
v 0.02431031 -0.00928112 -0.03435355
v 0.02466055 -0.00928112 -0.03434314
v 0.02584026 -0.01039038 -0.03400283
v 0.02566343 -0.00928112 -0.03420593
v 0.02581463 -0.00928112 -0.03416531
v 0.02610422 -0.00928112 -0.03407515
v 0.02624517 -0.00928112 -0.03401819
v 0.02541143 -0.00928112 -0.03427181
v 0.02648607 -0.00928112 -0.03389682
v 0.02663812 -0.00928112 -0.03380419
v 0.02678164 -0.00928112 -0.03369174
v 0.02693967 -0.00928112 -0.03356047
v 0.02688414 -0.00975907 -0.03345793
v 0.02709002 -0.00928112 -0.03340344
v 0.02729589 -0.00928112 -0.03306114
v 0.02737619 -0.00928112 -0.03292343
v 0.02745648 -0.00928112 -0.03250832
v 0.02749236 -0.00928112 -0.03231760
v 0.01882438 -0.01555714 -0.03365310
v 0.02244465 -0.00928112 -0.03360456
v 0.01882438 -0.01755330 -0.03420296
v 0.02375762 -0.00928112 -0.03428420
v 0.01882438 -0.01704596 -0.03416481
v 0.01882438 -0.01687855 -0.03415045
v 0.01882438 -0.01570155 -0.03372444
v 0.02259585 -0.00928112 -0.03374078
v 0.02287263 -0.00928112 -0.03398004
v 0.02356969 -0.00928112 -0.03423664
v 0.01882438 -0.01683382 -0.03414500
v 0.01882438 -0.01629708 -0.03396072
v 0.02303322 -0.00928112 -0.03406426
v 0.02329035 -0.00928112 -0.03416283
f 1 2 6
f 1 6 16
f 1 16 26
f 1 26 44
f 1 44 63
f 1 63 79
f 1 79 103
f 1 103 126
f 1 126 154
f 1 154 176
f 1 176 202
f 1 202 208
f 1 208 213
f 1 213 212
f 1 212 207
f 1 207 206
f 1 206 204
f 1 204 182
f 1 182 162
f 1 162 137
f 1 137 135
f 1 135 134
f 1 134 133
f 1 133 108
f 1 108 82
f 1 82 65
f 1 65 47
f 1 47 46
f 1 46 45
f 1 45 30
f 1 30 29
f 1 29 28
f 1 28 17
f 1 17 9
f 1 9 8
f 1 8 7
f 1 7 3
f 1 3 4
f 1 4 5
f 1 5 2
f 2 5 6
f 3 7 4
f 4 7 8
f 4 8 9
f 4 9 10
f 4 10 11
f 4 11 12
f 4 12 5
f 5 13 6
f 5 12 14
f 5 14 13
f 6 13 15
f 6 15 16
f 9 17 18
f 9 18 10
f 10 19 20
f 10 20 11
f 10 18 19
f 11 20 21
f 11 21 22
f 11 22 12
f 12 23 14
f 12 22 24
f 12 24 23
f 13 14 15
f 14 23 25
f 14 25 15
f 15 26 16
f 15 25 27
f 15 27 26
f 17 28 18
f 18 28 29
f 18 29 30
f 18 30 31
f 18 31 19
f 19 31 32
f 19 32 33
f 19 33 20
f 20 33 34
f 20 34 35
f 20 35 21
f 21 35 22
f 22 35 36
f 22 36 37
f 22 37 24
f 23 24 38
f 23 38 25
f 24 37 39
f 24 39 40
f 24 40 38
f 25 41 27
f 25 38 42
f 25 42 43
f 25 43 41
f 26 27 41
f 26 41 43
f 26 43 62
f 26 62 61
f 26 61 75
f 26 75 76
f 26 76 60
f 26 60 59
f 26 59 77
f 26 77 99
f 26 99 102
f 26 102 101
f 26 101 124
f 26 124 125
f 26 125 153
f 26 153 152
f 26 152 151
f 26 151 175
f 26 175 161
f 26 161 157
f 26 157 129
f 26 129 106
f 26 106 81
f 26 81 64
f 26 64 44
f 30 45 31
f 31 45 46
f 31 46 47
f 31 47 32
f 32 47 48
f 32 48 33
f 33 48 49
f 33 49 50
f 33 50 34
f 34 50 51
f 34 51 52
f 34 52 35
f 35 52 36
f 36 39 37
f 36 52 53
f 36 53 54
f 36 54 55
f 36 55 39
f 38 40 56
f 38 56 42
f 39 55 57
f 39 57 58
f 39 58 40
f 40 58 59
f 40 59 60
f 40 60 56
f 42 61 62
f 42 62 43
f 42 56 61
f 44 64 63
f 47 65 66
f 47 66 48
f 48 66 49
f 49 66 67
f 49 67 68
f 49 68 50
f 50 68 51
f 51 68 52
f 52 68 69
f 52 69 70
f 52 70 53
f 53 70 54
f 54 70 71
f 54 71 72
f 54 72 55
f 55 72 73
f 55 73 74
f 55 74 57
f 56 75 61
f 56 60 76
f 56 76 75
f 57 74 58
f 58 77 59
f 58 74 78
f 58 78 77
f 63 64 80
f 63 80 79
f 64 81 105
f 64 105 128
f 64 128 156
f 64 156 159
f 64 159 181
f 64 181 180
f 64 180 201
f 64 201 200
f 64 200 199
f 64 199 198
f 64 198 197
f 64 197 195
f 64 195 194
f 64 194 193
f 64 193 192
f 64 192 190
f 64 190 189
f 64 189 188
f 64 188 187
f 64 187 191
f 64 191 167
f 64 167 185
f 64 185 184
f 64 184 183
f 64 183 205
f 64 205 211
f 64 211 215
f 64 215 214
f 64 214 210
f 64 210 209
f 64 209 203
f 64 203 178
f 64 178 177
f 64 177 155
f 64 155 127
f 64 127 104
f 64 104 80
f 65 82 83
f 65 83 66
f 66 83 84
f 66 84 85
f 66 85 86
f 66 86 87
f 66 87 67
f 67 87 88
f 67 88 89
f 67 89 68
f 68 89 69
f 69 89 90
f 69 90 70
f 70 90 91
f 70 91 71
f 71 91 92
f 71 92 93
f 71 93 72
f 72 93 94
f 72 94 73
f 73 95 96
f 73 96 74
f 73 94 97
f 73 97 98
f 73 98 95
f 74 96 78
f 77 78 99
f 78 96 95
f 78 95 100
f 78 100 101
f 78 101 102
f 78 102 99
f 79 80 104
f 79 104 103
f 81 106 107
f 81 107 105
f 82 108 109
f 82 109 83
f 83 109 85
f 83 85 84
f 85 109 110
f 85 110 86
f 86 110 111
f 86 111 112
f 86 112 87
f 87 112 113
f 87 113 88
f 88 113 114
f 88 114 115
f 88 115 89
f 89 115 90
f 90 115 116
f 90 116 91
f 91 116 117
f 91 117 92
f 92 117 118
f 92 118 93
f 93 118 119
f 93 119 97
f 93 97 94
f 95 98 100
f 97 120 98
f 97 119 121
f 97 121 120
f 98 120 122
f 98 122 123
f 98 123 100
f 100 124 101
f 100 123 125
f 100 125 124
f 103 104 126
f 104 127 126
f 105 107 128
f 106 129 107
f 107 130 128
f 107 129 131
f 107 131 132
f 107 132 130
f 108 133 109
f 109 133 134
f 109 134 135
f 109 135 110
f 110 136 111
f 110 135 137
f 110 137 136
f 111 138 139
f 111 139 140
f 111 140 141
f 111 141 112
f 111 136 138
f 112 141 113
f 113 141 140
f 113 140 142
f 113 142 114
f 114 142 143
f 114 143 144
f 114 144 115
f 115 144 116
f 116 144 145
f 116 145 117
f 117 145 146
f 117 146 118
f 118 146 119
f 119 147 121
f 119 146 148
f 119 148 149
f 119 149 147
f 120 121 122
f 121 147 150
f 121 150 122
f 122 150 151
f 122 151 123
f 123 151 152
f 123 152 153
f 123 153 125
f 126 127 155
f 126 155 154
f 128 130 156
f 129 157 131
f 130 132 158
f 130 158 159
f 130 159 156
f 131 160 132
f 131 157 161
f 131 161 150
f 131 150 149
f 131 149 160
f 132 160 148
f 132 148 158
f 136 137 138
f 137 162 163
f 137 163 138
f 138 163 164
f 138 164 165
f 138 165 139
f 139 166 140
f 139 165 167
f 139 167 168
f 139 168 166
f 140 166 142
f 142 166 169
f 142 169 143
f 143 169 170
f 143 170 171
f 143 171 144
f 144 171 145
f 145 171 172
f 145 172 146
f 146 172 173
f 146 173 174
f 146 174 148
f 147 149 150
f 148 174 158
f 148 160 149
f 150 175 151
f 150 161 175
f 154 155 177
f 154 177 178
f 154 178 176
f 158 174 179
f 158 179 180
f 158 180 181
f 158 181 159
f 162 182 183
f 162 183 184
f 162 184 163
f 163 184 164
f 164 184 185
f 164 185 165
f 165 185 167
f 166 186 169
f 166 168 187
f 166 187 188
f 166 188 189
f 166 189 190
f 166 190 186
f 167 191 168
f 168 191 187
f 169 186 190
f 169 190 192
f 169 192 170
f 170 192 193
f 170 193 194
f 170 194 171
f 171 194 195
f 171 195 196
f 171 196 172
f 172 196 197
f 172 197 198
f 172 198 199
f 172 199 173
f 173 199 174
f 174 199 200
f 174 200 201
f 174 201 179
f 176 178 203
f 176 203 202
f 179 201 180
f 182 204 183
f 183 204 206
f 183 206 207
f 183 207 205
f 195 197 196
f 202 203 209
f 202 209 210
f 202 210 208
f 205 207 212
f 205 212 211
f 208 210 213
f 210 214 212
f 210 212 213
f 211 212 215
f 212 214 215

