# https://github.com/mikedh/trimesh
v 0.05873790 0.00002016 0.01076171
v 0.05873906 -0.00061942 0.01076171
v 0.05868243 -0.00017568 0.00951458
v 0.05868358 0.00002016 0.00955587
v 0.05027025 0.00002016 0.01076171
v 0.05873906 -0.00065495 0.01076171
v 0.05873674 -0.00065082 0.01070975
v 0.05859344 -0.00192667 0.00883763
v 0.05858304 -0.00038392 0.00809519
v 0.05867203 0.00002016 0.00934018
v 0.04774971 0.00002016 0.00349035
v 0.04945318 -0.00842080 0.01075886
v 0.04954680 -0.00789360 0.01076171
v 0.05870092 -0.00186800 0.01076171
v 0.05869399 -0.00192585 0.01062077
v 0.05856686 -0.00324384 0.00942204
v 0.05848018 -0.00235967 0.00758125
v 0.05856455 0.00002016 0.00789018
v 0.05859460 0.00002016 0.00823186
v 0.05845360 -0.00038309 0.00663451
v 0.05846516 0.00002016 0.00676335
v 0.04693496 -0.00842080 0.00349035
v 0.05803063 0.00002016 0.00349035
v 0.05182464 -0.00842080 0.01076171
v 0.05869745 -0.00195229 0.01076171
v 0.05869283 -0.00204484 0.01076171
v 0.05858304 -0.00394292 0.01076171
v 0.05857379 -0.00399250 0.01062646
v 0.05847903 -0.00457423 0.00961139
v 0.05831261 -0.00500475 0.00776704
v 0.05831492 -0.00381236 0.00675410
v 0.05827794 -0.00260013 0.00572052
v 0.05835075 -0.00126726 0.00586858
v 0.05842124 0.00002016 0.00631988
v 0.05826407 -0.00041697 0.00503787
v 0.05832070 0.00002016 0.00546924
v 0.05735109 -0.00842080 0.00349035
v 0.05806298 0.00002016 0.00370390
v 0.05803178 -0.00025253 0.00349035
v 0.05808263 -0.00842080 0.01076171
v 0.05856224 -0.00418669 0.01076171
v 0.05835422 -0.00551873 0.00893871
v 0.05848134 -0.00507829 0.01076171
v 0.05811615 -0.00649710 0.00731146
v 0.05813001 -0.00496674 0.00588851
v 0.05808610 -0.00406852 0.00491971
v 0.05810690 -0.00251254 0.00436448
v 0.05802253 -0.00083509 0.00349035
v 0.05803178 -0.00047729 0.00349035
v 0.05825367 0.00002016 0.00497452
v 0.05735224 -0.00841419 0.00349035
v 0.05747475 -0.00841584 0.00421927
v 0.05747359 -0.00842080 0.00421856
v 0.05808032 -0.00842080 0.01069551
v 0.05826523 -0.00709867 0.01076171
v 0.05827910 -0.00695241 0.01059514
v 0.05821784 -0.00697059 0.00944197
v 0.05831030 -0.00671938 0.01076171
v 0.05806298 -0.00746721 0.00817634
v 0.05786536 -0.00841501 0.00748657
v 0.05791737 -0.00700943 0.00599742
v 0.05788154 -0.00561541 0.00442428
v 0.05780527 -0.00482296 0.00349035
v 0.05785959 -0.00416851 0.00349035
v 0.05796129 -0.00268855 0.00349035
v 0.05798209 -0.00208368 0.00349035
v 0.05745510 -0.00775808 0.00349035
v 0.05756720 -0.00701356 0.00349035
v 0.05770473 -0.00701356 0.00434028
v 0.05769548 -0.00842080 0.00588211
v 0.05747475 -0.00842080 0.00422567
v 0.05798671 -0.00842080 0.00909602
v 0.05798787 -0.00841336 0.00909674
v 0.05828372 -0.00695406 0.01076171
v 0.05786421 -0.00842080 0.00748586
v 0.05773362 -0.00561623 0.00349035
f 1 2 3
f 1 3 4
f 1 4 10
f 1 10 19
f 1 19 18
f 1 18 21
f 1 21 34
f 1 34 36
f 1 36 50
f 1 50 38
f 1 38 23
f 1 23 11
f 1 11 5
f 1 5 13
f 1 13 24
f 1 24 40
f 1 40 55
f 1 55 74
f 1 74 58
f 1 58 43
f 1 43 41
f 1 41 27
f 1 27 26
f 1 26 25
f 1 25 14
f 1 14 6
f 1 6 2
f 2 6 7
f 2 7 3
f 3 8 9
f 3 9 10
f 3 10 4
f 3 7 8
f 5 11 12
f 5 12 13
f 6 14 15
f 6 15 7
f 7 15 8
f 8 15 16
f 8 16 17
f 8 17 9
f 9 18 19
f 9 19 10
f 9 17 20
f 9 20 21
f 9 21 18
f 11 22 12
f 11 23 39
f 11 39 49
f 11 49 48
f 11 48 66
f 11 66 65
f 11 65 64
f 11 64 63
f 11 63 76
f 11 76 68
f 11 68 67
f 11 67 51
f 11 51 37
f 11 37 22
f 12 24 13
f 12 22 37
f 12 37 53
f 12 53 71
f 12 71 70
f 12 70 75
f 12 75 72
f 12 72 54
f 12 54 40
f 12 40 24
f 14 25 15
f 15 25 26
f 15 26 27
f 15 27 16
f 16 27 28
f 16 28 29
f 16 29 30
f 16 30 31
f 16 31 17
f 17 31 32
f 17 32 33
f 17 33 20
f 20 34 21
f 20 33 35
f 20 35 36
f 20 36 34
f 23 38 39
f 27 41 28
f 28 41 29
f 29 42 30
f 29 41 43
f 29 43 42
f 30 42 44
f 30 44 45
f 30 45 31
f 31 45 46
f 31 46 32
f 32 46 47
f 32 47 33
f 33 47 35
f 35 47 48
f 35 48 49
f 35 49 39
f 35 39 50
f 35 50 36
f 37 51 52
f 37 52 53
f 38 50 39
f 40 54 55
f 42 56 57
f 42 57 44
f 42 43 56
f 43 58 56
f 44 57 59
f 44 59 60
f 44 60 61
f 44 61 45
f 45 61 62
f 45 62 46
f 46 62 63
f 46 63 64
f 46 64 65
f 46 65 47
f 47 65 66
f 47 66 48
f 51 67 52
f 52 68 69
f 52 69 70
f 52 70 71
f 52 71 53
f 52 67 68
f 54 72 73
f 54 73 57
f 54 57 56
f 54 56 55
f 55 56 74
f 56 58 74
f 57 73 59
f 59 73 72
f 59 72 60
f 60 72 75
f 60 75 70
f 60 70 61
f 61 70 69
f 61 69 62
f 62 69 76
f 62 76 63
f 68 76 69

