# https://github.com/mikedh/trimesh
v 0.02189042 0.04875858 -0.01033053
v 0.02189042 0.04848843 -0.01078577
v 0.02189042 0.02947965 -0.01032905
v 0.02189305 0.03133170 -0.01032905
v 0.04347057 0.03133170 -0.01032905
v 0.02294850 0.04828063 -0.01033053
v 0.02189042 0.04845467 -0.01083751
v 0.02191147 0.04845207 -0.01082864
v 0.02189042 0.02663794 -0.01032905
v 0.04387064 0.03078621 -0.01032905
v 0.04330211 0.03157067 -0.01033053
v 0.04283361 0.03218888 -0.01033053
v 0.04172289 0.03359415 -0.01033053
v 0.04160708 0.03373182 -0.01033053
v 0.04054636 0.03499163 -0.01033053
v 0.04021209 0.03537606 -0.01033053
v 0.03931193 0.03635274 -0.01033053
v 0.03900925 0.03668003 -0.01033053
v 0.03864866 0.03704628 -0.01033053
v 0.03791958 0.03778658 -0.01033053
v 0.03716155 0.03851389 -0.01033053
v 0.03680623 0.03885417 -0.01033053
v 0.03646932 0.03916847 -0.01033053
v 0.03559022 0.03996072 -0.01033053
v 0.03492431 0.04053737 -0.01033053
v 0.03393993 0.04135819 -0.01033053
v 0.03284500 0.04224136 -0.01033053
v 0.03167900 0.04308815 -0.01033053
v 0.03094729 0.04360506 -0.01033053
v 0.02957599 0.04452979 -0.01033053
v 0.02948914 0.04458693 -0.01033053
v 0.02785727 0.04560257 -0.01033053
v 0.02632278 0.04654028 -0.01033053
v 0.02624645 0.04658444 -0.01033053
v 0.02486726 0.04732993 -0.01033053
v 0.02320907 0.04815595 -0.01033053
v 0.02372232 0.04698446 -0.01176869
v 0.02189042 0.04781567 -0.01177756
v 0.02279058 0.04719486 -0.01210717
v 0.02189042 0.02663794 -0.02286010
v 0.02189305 0.02222213 -0.01074439
v 0.02189305 0.02224810 -0.01072813
v 0.02189305 0.02344037 -0.01032905
v 0.04353110 0.03078621 -0.01083159
v 0.04337318 0.03133429 -0.01048129
v 0.04347320 0.03133429 -0.01033053
v 0.04476816 0.02947965 -0.01032905
v 0.04475237 0.02947965 -0.01035270
v 0.04217823 0.03218629 -0.01124102
v 0.04075429 0.03361753 -0.01158836
v 0.04034896 0.03499422 -0.01061432
v 0.03889870 0.03633456 -0.01089958
v 0.03741686 0.03778658 -0.01096166
v 0.03665093 0.03848791 -0.01100453
v 0.03589554 0.03918665 -0.01101635
v 0.03429525 0.04058153 -0.01100601
v 0.03309504 0.04062309 -0.01219437
v 0.03166847 0.04197381 -0.01188398
v 0.03129998 0.04284918 -0.01108434
v 0.03001818 0.04330895 -0.01166227
v 0.02918119 0.04407002 -0.01137257
v 0.02816258 0.04498176 -0.01098827
v 0.02688604 0.04515060 -0.01187067
v 0.02537788 0.04583635 -0.01215151
v 0.02503571 0.04688316 -0.01090698
v 0.02439876 0.04610390 -0.01249885
v 0.02189042 0.04735851 -0.01243530
v 0.02308537 0.04608312 -0.01335022
v 0.02189042 0.02786398 -0.02432338
v 0.02189305 0.02222213 -0.02542897
v 0.02189568 0.02222213 -0.01073404
v 0.02380128 0.02222213 -0.01032905
v 0.04386011 0.02943290 -0.01163862
v 0.04257304 0.03077582 -0.01210569
v 0.04300469 0.03133429 -0.01099123
v 0.04482870 0.02938874 -0.01032905
v 0.04241775 0.03133429 -0.01176278
v 0.04119648 0.03218109 -0.01245008
v 0.04049109 0.03290580 -0.01258902
v 0.03978833 0.03357597 -0.01275456
v 0.03936984 0.03497085 -0.01186624
v 0.03864076 0.03563842 -0.01200666
v 0.03790905 0.03637871 -0.01203031
v 0.03641142 0.03778138 -0.01212490
v 0.03487430 0.03917107 -0.01215003
v 0.03409258 0.03988799 -0.01210864
v 0.03249756 0.04047243 -0.01292158
v 0.03028401 0.04210888 -0.01293193
v 0.02903642 0.04325440 -0.01256980
v 0.02790728 0.04430900 -0.01214116
v 0.02602010 0.04477395 -0.01302357
v 0.02482252 0.04456875 -0.01405969
v 0.02189042 0.04617922 -0.01391336
v 0.02349070 0.04462590 -0.01476325
v 0.02189042 0.02798607 -0.02429530
v 0.02189305 0.02658599 -0.02462047
v 0.02189305 0.02518332 -0.02491313
v 0.02189305 0.02423262 -0.02509050
v 0.02189305 0.02378585 -0.02517031
v 0.02189305 0.02238578 -0.02540385
v 0.02248789 0.02238837 -0.02530777
v 0.02249842 0.02222213 -0.02532994
v 0.04877677 0.02222213 -0.01032905
v 0.04357848 0.02870039 -0.01260527
v 0.04292310 0.02938094 -0.01285359
v 0.04518929 0.02798866 -0.01107547
v 0.04423649 0.02798347 -0.01234957
v 0.04157023 0.03078881 -0.01324823
v 0.04142546 0.03133429 -0.01293636
v 0.04202820 0.03133429 -0.01224019
v 0.04569727 0.02798866 -0.01032905
v 0.04103592 0.03133429 -0.01335613
v 0.04018577 0.03219148 -0.01353054
v 0.03874341 0.03359155 -0.01380694
v 0.03835650 0.03500462 -0.01295262
v 0.03687466 0.03638131 -0.01312112
v 0.03536123 0.03778918 -0.01317581
v 0.03365303 0.03932432 -0.01312851
v 0.03108416 0.04057633 -0.01394292
v 0.03268707 0.03918406 -0.01407152
v 0.02941544 0.04221798 -0.01349063
v 0.02803888 0.04330635 -0.01328223
v 0.02628594 0.04349077 -0.01430062
v 0.02520153 0.04361286 -0.01483567
v 0.02189042 0.04600259 -0.01411142
v 0.02241419 0.04496098 -0.01496870
v 0.02189042 0.04582596 -0.01430505
v 0.02390920 0.04357649 -0.01557323
v 0.02223258 0.04412457 -0.01587328
v 0.02189042 0.02899651 -0.02403368
v 0.02200623 0.02798607 -0.02427608
v 0.02189831 0.02663794 -0.02460865
v 0.02189568 0.02663794 -0.02460865
v 0.02214573 0.02658599 -0.02457613
v 0.02227206 0.02518332 -0.02484662
v 0.02238787 0.02378585 -0.02509050
v 0.02391446 0.02238578 -0.02505207
v 0.02392762 0.02222213 -0.02507424
v 0.04829247 0.02222213 -0.01110356
v 0.04826089 0.02238578 -0.01103852
v 0.04798716 0.02378844 -0.01044286
v 0.04805559 0.02378844 -0.01032905
v 0.04322052 0.02801464 -0.01354237
v 0.04190187 0.02938354 -0.01397248
v 0.04188081 0.02947965 -0.01392223
v 0.04642109 0.02663794 -0.01047538
v 0.04555515 0.02663794 -0.01167261
v 0.04456287 0.02663794 -0.01295557
v 0.04563674 0.02633403 -0.01180712
v 0.04050688 0.03067192 -0.01439669
v 0.04037002 0.03133429 -0.01401978
v 0.04639477 0.02683536 -0.01032905
v 0.03910137 0.03218888 -0.01457258
v 0.03765374 0.03359415 -0.01478099
v 0.03728526 0.03502020 -0.01395475
v 0.03580342 0.03640469 -0.01405969
v 0.03425577 0.03778398 -0.01411881
v 0.03346879 0.03847493 -0.01411586
v 0.03154477 0.03918406 -0.01492436
v 0.02992869 0.04057893 -0.01477655
v 0.03311609 0.03779956 -0.01498496
v 0.02827576 0.04198160 -0.01454154
v 0.02708344 0.04197901 -0.01529831
v 0.02586218 0.04198420 -0.01599152
v 0.02189042 0.04491162 -0.01526284
v 0.02189042 0.04511683 -0.01505886
v 0.02189042 0.04534022 -0.01482533
v 0.02444087 0.04210888 -0.01661083
v 0.02283269 0.04321024 -0.01642016
v 0.02189042 0.04337908 -0.01668030
v 0.02189042 0.04411678 -0.01602847
v 0.02189042 0.04433237 -0.01582893
v 0.02189042 0.02938614 -0.02393169
v 0.02219574 0.02663794 -0.02455396
v 0.02341437 0.02798607 -0.02398047
v 0.02355913 0.02658599 -0.02429086
v 0.02369074 0.02518592 -0.02457465
v 0.02380918 0.02378585 -0.02482740
v 0.02533313 0.02238578 -0.02477862
v 0.02534366 0.02222213 -0.02480227
v 0.04746338 0.02222213 -0.01226975
v 0.04732914 0.02238318 -0.01235991
v 0.04714227 0.02373650 -0.01170661
v 0.04793188 0.02403002 -0.01032905
v 0.04663692 0.02516514 -0.01135631
v 0.04731862 0.02517813 -0.01032905
v 0.04432598 0.02570803 -0.01387641
v 0.04353900 0.02658080 -0.01417350
v 0.04348636 0.02663794 -0.01419124
v 0.04220982 0.02798607 -0.01462727
v 0.04179922 0.02947965 -0.01400352
v 0.04091221 0.02916795 -0.01506625
v 0.04651321 0.02663794 -0.01032905
v 0.04645794 0.02659638 -0.01045617
v 0.04519982 0.02578076 -0.01278708
v 0.04589468 0.02528982 -0.01225349
v 0.03942511 0.03078361 -0.01528501
v 0.03930141 0.03133429 -0.01500565
v 0.03989625 0.03133429 -0.01447207
v 0.03886975 0.03133429 -0.01537960
v 0.03799854 0.03218629 -0.01552889
v 0.03652460 0.03359155 -0.01571217
v 0.03691151 0.03429549 -0.01486228
v 0.03617453 0.03498384 -0.01493027
v 0.03542703 0.03568777 -0.01496574
v 0.03466637 0.03638391 -0.01499826
v 0.03195799 0.03778918 -0.01581268
v 0.03036824 0.03918145 -0.01571660
v 0.02874163 0.04058413 -0.01554367
v 0.03351617 0.03638131 -0.01584963
v 0.02752826 0.04058413 -0.01625314
v 0.02629646 0.04058153 -0.01691679
v 0.02503308 0.04058153 -0.01752723
v 0.02334068 0.04197641 -0.01720945
v 0.02189042 0.04321803 -0.01682220
v 0.02189042 0.03133429 -0.02334933
v 0.02189305 0.03078621 -0.02351931
v 0.02324329 0.02947965 -0.02361095
v 0.02325645 0.02938354 -0.02363608
v 0.02481199 0.02798607 -0.02365825
v 0.02495938 0.02658599 -0.02398343
v 0.02509099 0.02518592 -0.02427460
v 0.02521996 0.02378585 -0.02453770
v 0.02673075 0.02238578 -0.02446971
v 0.02674128 0.02222213 -0.02449484
v 0.04735546 0.02222213 -0.01241904
v 0.04660533 0.02222213 -0.01336204
v 0.04627896 0.02264293 -0.01352463
v 0.04661849 0.02329232 -0.01270135
v 0.04645794 0.02439627 -0.01216777
v 0.04668956 0.02632884 -0.01032905
v 0.04546039 0.02457550 -0.01328962
v 0.04476027 0.02504306 -0.01380546
v 0.04514455 0.02398845 -0.01402717
v 0.04398118 0.02513657 -0.01460066
v 0.04248618 0.02658599 -0.01521997
v 0.04247828 0.02663794 -0.01519632
v 0.04112804 0.02798866 -0.01561757
v 0.03973569 0.02938874 -0.01593683
v 0.03830912 0.03078361 -0.01620436
v 0.03819068 0.03133429 -0.01593979
v 0.03686676 0.03218109 -0.01641721
v 0.03538755 0.03358636 -0.01655467
v 0.03505855 0.03497864 -0.01580529
v 0.03233701 0.03638391 -0.01662561
v 0.03076568 0.03778138 -0.01656797
v 0.02916276 0.03918665 -0.01644529
v 0.03387676 0.03498903 -0.01662118
v 0.02793623 0.03919185 -0.01712520
v 0.02668600 0.03918406 -0.01775929
v 0.02376443 0.04061789 -0.01804751
v 0.02541736 0.03918145 -0.01834460
v 0.02191147 0.04223356 -0.01760853
v 0.02189042 0.04244916 -0.01744298
v 0.02189042 0.03183042 -0.02319118
v 0.02245631 0.03133170 -0.02322074
v 0.02307221 0.03078621 -0.02325030
v 0.02464354 0.02938354 -0.02330352
v 0.02619118 0.02798347 -0.02330499
v 0.02633594 0.02663794 -0.02362869
v 0.02634121 0.02658599 -0.02364051
v 0.02648334 0.02518592 -0.02394056
v 0.02661231 0.02378585 -0.02421991
v 0.02811784 0.02238578 -0.02413271
v 0.02812837 0.02222213 -0.02415932
v 0.04635792 0.02222213 -0.01366357
v 0.04602365 0.02365078 -0.01320389
v 0.04533932 0.02238578 -0.01471004
v 0.04405488 0.02378585 -0.01527023
v 0.04274149 0.02518592 -0.01576094
v 0.04139125 0.02658859 -0.01617924
v 0.04138335 0.02663794 -0.01615854
v 0.04243617 0.02663794 -0.01523475
v 0.04000679 0.02798347 -0.01652806
v 0.03859601 0.02938874 -0.01681628
v 0.03858022 0.02947965 -0.01677490
v 0.03850389 0.02947965 -0.01683254
v 0.03716418 0.03078102 -0.01705869
v 0.03704837 0.03133429 -0.01680446
v 0.03570077 0.03218888 -0.01722275
v 0.03420576 0.03358376 -0.01732326
v 0.03113153 0.03638650 -0.01734691
v 0.03267917 0.03498384 -0.01736169
v 0.02954967 0.03778138 -0.01727153
v 0.02830998 0.03777879 -0.01792483
v 0.02704660 0.03778398 -0.01852788
v 0.02244578 0.04057893 -0.01859440
v 0.02189042 0.04219200 -0.01764696
v 0.02411976 0.03917626 -0.01887966
v 0.02576479 0.03778398 -0.01909251
v 0.02189042 0.04222837 -0.01761887
v 0.02189042 0.03218629 -0.02306998
v 0.02287217 0.03218369 -0.02282314
v 0.02299851 0.03133170 -0.02308328
v 0.02445140 0.03078361 -0.02288818
v 0.02463038 0.02947965 -0.02327543
v 0.02601747 0.02938614 -0.02292956
v 0.02754405 0.02798347 -0.02290296
v 0.02771250 0.02658599 -0.02325917
v 0.02785727 0.02518852 -0.02357991
v 0.02799413 0.02378585 -0.02387109
v 0.02949177 0.02238578 -0.02377058
v 0.02950756 0.02222213 -0.02379571
v 0.04548145 0.02222213 -0.01463614
v 0.04442863 0.02222213 -0.01566930
v 0.04427597 0.02238837 -0.01573729
v 0.04536037 0.02222213 -0.01476325
v 0.04297048 0.02378585 -0.01625018
v 0.04162813 0.02518332 -0.01669952
v 0.04024894 0.02663794 -0.01704686
v 0.03885396 0.02798607 -0.01737351
v 0.03743265 0.02938354 -0.01763218
v 0.03598503 0.03078621 -0.01783467
v 0.03587448 0.03133429 -0.01759670
v 0.03659303 0.03133429 -0.01712076
v 0.03450845 0.03218629 -0.01796770
v 0.03299765 0.03358636 -0.01804603
v 0.03146580 0.03498384 -0.01806525
v 0.02989974 0.03638391 -0.01802534
v 0.02864951 0.03638391 -0.01865204
v 0.02737560 0.03638910 -0.01923292
v 0.02280637 0.03918665 -0.01937186
v 0.02189042 0.04057893 -0.01879837
v 0.02446193 0.03778138 -0.01961278
v 0.02608590 0.03638391 -0.01978128
v 0.02189042 0.03304347 -0.02275072
v 0.02264318 0.03358376 -0.02233095
v 0.02423294 0.03218629 -0.02242998
v 0.02436454 0.03133429 -0.02271081
v 0.02189042 0.03358376 -0.02253788
v 0.02581480 0.03078361 -0.02249797
v 0.02600167 0.02947965 -0.02290296
v 0.02736244 0.02938614 -0.02250684
v 0.02888376 0.02798607 -0.02245806
v 0.02905485 0.02663794 -0.02282758
v 0.02921803 0.02518592 -0.02318379
v 0.02936280 0.02378585 -0.02348975
v 0.03085253 0.02238578 -0.02336855
v 0.03086570 0.02222213 -0.02339811
v 0.02966285 0.02222213 -0.02375285
v 0.04429966 0.02222213 -0.01579050
v 0.04317578 0.02238578 -0.01669508
v 0.04185712 0.02378844 -0.01717250
v 0.04049109 0.02518332 -0.01757010
v 0.04020420 0.02663794 -0.01707938
v 0.03908821 0.02663794 -0.01786719
v 0.03767480 0.02798607 -0.01815098
v 0.03624297 0.02938614 -0.01838451
v 0.03614558 0.02947965 -0.01839781
v 0.03478481 0.03078621 -0.01856040
v 0.03467690 0.03133429 -0.01832982
v 0.03540861 0.03133429 -0.01788640
v 0.03328981 0.03218629 -0.01867273
v 0.03177112 0.03358896 -0.01872151
v 0.03022084 0.03498643 -0.01871412
v 0.02896273 0.03498384 -0.01932308
v 0.02768355 0.03498384 -0.01989362
v 0.02314064 0.03778918 -0.02009316
v 0.02189042 0.03918665 -0.01969408
v 0.02477777 0.03638131 -0.02028826
v 0.02638595 0.03498643 -0.02042572
v 0.02239051 0.03498903 -0.02179293
v 0.02399342 0.03359155 -0.02192448
v 0.02189042 0.03498903 -0.02193630
v 0.02558318 0.03218888 -0.02201612
v 0.02715451 0.03078361 -0.02206194
v 0.02868636 0.02938614 -0.02204420
v 0.03020505 0.02798607 -0.02198212
v 0.03039456 0.02658340 -0.02238416
v 0.03056038 0.02518592 -0.02274481
v 0.03071040 0.02378585 -0.02307146
v 0.03218698 0.02238578 -0.02292070
v 0.03220014 0.02222213 -0.02295174
v 0.04319683 0.02222213 -0.01674534
v 0.04205716 0.02238578 -0.01760705
v 0.04070692 0.02378585 -0.01802091
v 0.03932509 0.02518852 -0.01836382
v 0.03790379 0.02663794 -0.01863283
v 0.03647722 0.02798866 -0.01889592
v 0.03504012 0.02938614 -0.01910433
v 0.03356354 0.03078361 -0.01925066
v 0.03345826 0.03133170 -0.01902599
v 0.03420050 0.03133429 -0.01860474
v 0.03205538 0.03218888 -0.01932752
v 0.03052090 0.03358896 -0.01934969
v 0.02925488 0.03358896 -0.01994830
v 0.02797044 0.03358636 -0.02051145
v 0.02345122 0.03638650 -0.02075829
v 0.02189042 0.03778398 -0.02051588
v 0.02506993 0.03498643 -0.02091496
v 0.02666758 0.03358116 -0.02102286
v 0.02373548 0.03498124 -0.02136577
v 0.02189042 0.03638391 -0.02126378
v 0.02211414 0.03638391 -0.02119579
v 0.02533577 0.03359155 -0.02148993
v 0.02691763 0.03218369 -0.02156531
v 0.02705976 0.03133429 -0.02186831
v 0.02847580 0.03078361 -0.02158452
v 0.02998396 0.02947965 -0.02150323
v 0.03150265 0.02798607 -0.02145445
v 0.03170005 0.02658599 -0.02187422
v 0.03187640 0.02518592 -0.02225409
v 0.03203959 0.02378844 -0.02260587
v 0.03350037 0.02238318 -0.02242111
v 0.03351353 0.02222213 -0.02245510
v 0.03235543 0.02222213 -0.02289557
v 0.04220718 0.02222213 -0.01754940
v 0.04207558 0.02222213 -0.01765287
v 0.04105698 0.02222213 -0.01839338
v 0.04090432 0.02238578 -0.01844363
v 0.03952776 0.02378844 -0.01880872
v 0.03812751 0.02518852 -0.01911320
v 0.03671147 0.02658859 -0.01938664
v 0.03527174 0.02798347 -0.01960835
v 0.03381095 0.02938614 -0.01978276
v 0.03297660 0.03133170 -0.01928022
v 0.03232122 0.03078361 -0.01989214
v 0.03221594 0.03133429 -0.01967191
v 0.03079726 0.03218888 -0.01994535
v 0.02952335 0.03218109 -0.02052475
v 0.02823365 0.03218629 -0.02107311
v 0.02189042 0.03740214 -0.02072133
v 0.02837841 0.03133429 -0.02138498
v 0.02916803 0.03133429 -0.02106425
v 0.02977340 0.03078102 -0.02105685
v 0.03128945 0.02938614 -0.02099330
v 0.03278446 0.02798607 -0.02088983
v 0.03298976 0.02658599 -0.02132882
v 0.03317400 0.02518592 -0.02173085
v 0.03334508 0.02378585 -0.02209446
v 0.03479008 0.02238837 -0.02187866
v 0.03480324 0.02222213 -0.02191118
v 0.04092274 0.02222213 -0.01848945
v 0.03972253 0.02238578 -0.01921814
v 0.03833281 0.02378585 -0.01955218
v 0.03692204 0.02518592 -0.01984188
v 0.03549283 0.02658859 -0.02008576
v 0.03404521 0.02798607 -0.02027791
v 0.03256336 0.02938614 -0.02041242
v 0.03105520 0.03078621 -0.02049223
v 0.03095255 0.03133429 -0.02027939
v 0.02967338 0.03133429 -0.02084845
v 0.03425051 0.02663794 -0.02071838
v 0.03419787 0.02663794 -0.02074350
v 0.03445581 0.02518592 -0.02115736
v 0.03462952 0.02378585 -0.02153723
v 0.03604819 0.02238578 -0.02128300
v 0.03606662 0.02222213 -0.02131995
v 0.03973832 0.02222213 -0.01926396
v 0.03868024 0.02222213 -0.01990988
v 0.03851442 0.02238837 -0.01995126
v 0.03711944 0.02378585 -0.02026461
v 0.03569813 0.02518592 -0.02052918
v 0.03588238 0.02378325 -0.02092678
v 0.03729315 0.02238578 -0.02064300
v 0.03731421 0.02222213 -0.02067995
v 0.03621138 0.02222213 -0.02124605
v 0.03853811 0.02222213 -0.01999265
f 1 2 7
f 1 7 38
f 1 38 67
f 1 67 93
f 1 93 125
f 1 125 127
f 1 127 167
f 1 167 166
f 1 166 165
f 1 165 172
f 1 172 171
f 1 171 170
f 1 170 215
f 1 215 254
f 1 254 291
f 1 291 288
f 1 288 323
f 1 323 359
f 1 359 389
f 1 389 422
f 1 422 393
f 1 393 364
f 1 364 330
f 1 330 326
f 1 326 292
f 1 292 255
f 1 255 216
f 1 216 173
f 1 173 130
f 1 130 95
f 1 95 69
f 1 69 40
f 1 40 9
f 1 9 3
f 1 3 4
f 1 4 5
f 1 5 6
f 1 6 2
f 2 6 8
f 2 8 7
f 3 9 43
f 3 43 72
f 3 72 103
f 3 103 142
f 3 142 184
f 3 184 186
f 3 186 231
f 3 231 193
f 3 193 152
f 3 152 111
f 3 111 76
f 3 76 47
f 3 47 10
f 3 10 5
f 3 5 4
f 5 10 11
f 5 11 12
f 5 12 13
f 5 13 14
f 5 14 15
f 5 15 16
f 5 16 17
f 5 17 18
f 5 18 19
f 5 19 20
f 5 20 21
f 5 21 22
f 5 22 23
f 5 23 24
f 5 24 25
f 5 25 26
f 5 26 27
f 5 27 28
f 5 28 29
f 5 29 30
f 5 30 31
f 5 31 32
f 5 32 33
f 5 33 34
f 5 34 35
f 5 35 36
f 5 36 6
f 6 36 37
f 6 37 8
f 7 8 38
f 8 37 39
f 8 39 38
f 9 40 70
f 9 70 41
f 9 41 42
f 9 42 43
f 10 44 45
f 10 45 46
f 10 46 11
f 10 47 48
f 10 48 44
f 11 46 45
f 11 45 12
f 12 49 13
f 12 45 49
f 13 49 50
f 13 50 51
f 13 51 14
f 14 51 15
f 15 51 16
f 16 51 52
f 16 52 17
f 17 52 18
f 18 52 19
f 19 52 20
f 20 52 53
f 20 53 21
f 21 53 54
f 21 54 22
f 22 54 55
f 22 55 23
f 23 55 24
f 24 55 56
f 24 56 25
f 25 56 26
f 26 56 27
f 27 56 57
f 27 57 58
f 27 58 59
f 27 59 28
f 28 59 29
f 29 59 30
f 30 59 60
f 30 60 61
f 30 61 31
f 31 61 62
f 31 62 32
f 32 62 33
f 33 62 63
f 33 63 64
f 33 64 34
f 34 64 65
f 34 65 35
f 35 65 36
f 36 65 37
f 37 65 64
f 37 64 66
f 37 66 39
f 38 39 67
f 39 66 68
f 39 68 67
f 40 69 70
f 41 70 102
f 41 102 138
f 41 138 180
f 41 180 225
f 41 225 265
f 41 265 303
f 41 303 340
f 41 340 339
f 41 339 373
f 41 373 406
f 41 406 405
f 41 405 432
f 41 432 448
f 41 448 457
f 41 457 456
f 41 456 458
f 41 458 450
f 41 450 449
f 41 449 433
f 41 433 409
f 41 409 408
f 41 408 407
f 41 407 374
f 41 374 341
f 41 341 305
f 41 305 307
f 41 307 304
f 41 304 266
f 41 266 227
f 41 227 226
f 41 226 181
f 41 181 139
f 41 139 103
f 41 103 72
f 41 72 71
f 41 71 42
f 42 71 43
f 43 71 72
f 44 48 73
f 44 73 74
f 44 74 75
f 44 75 45
f 45 75 49
f 47 76 48
f 48 76 73
f 49 75 77
f 49 77 78
f 49 78 50
f 50 78 79
f 50 79 80
f 50 80 81
f 50 81 51
f 51 81 52
f 52 82 83
f 52 83 53
f 52 81 82
f 53 84 54
f 53 83 84
f 54 84 55
f 55 85 86
f 55 86 56
f 55 84 85
f 56 86 57
f 57 86 87
f 57 87 58
f 58 87 88
f 58 88 60
f 58 60 59
f 60 88 89
f 60 89 61
f 61 89 90
f 61 90 63
f 61 63 62
f 63 90 91
f 63 91 64
f 64 91 66
f 66 91 92
f 66 92 68
f 67 68 93
f 68 92 94
f 68 94 93
f 69 95 96
f 69 96 97
f 69 97 98
f 69 98 99
f 69 99 100
f 69 100 70
f 70 100 101
f 70 101 102
f 73 104 105
f 73 105 74
f 73 76 106
f 73 106 107
f 73 107 104
f 74 77 75
f 74 105 108
f 74 108 109
f 74 109 110
f 74 110 77
f 76 111 106
f 77 110 78
f 78 110 109
f 78 109 79
f 79 109 112
f 79 112 113
f 79 113 80
f 80 113 114
f 80 114 115
f 80 115 81
f 81 115 82
f 82 115 83
f 83 115 116
f 83 116 84
f 84 116 117
f 84 117 85
f 85 117 118
f 85 118 86
f 86 118 87
f 87 119 88
f 87 118 120
f 87 120 119
f 88 121 89
f 88 119 121
f 89 122 90
f 89 121 122
f 90 122 91
f 91 122 123
f 91 123 92
f 92 124 94
f 92 123 124
f 93 94 125
f 94 126 127
f 94 127 125
f 94 124 128
f 94 128 129
f 94 129 126
f 95 130 131
f 95 131 132
f 95 132 133
f 95 133 96
f 96 133 132
f 96 132 134
f 96 134 135
f 96 135 97
f 97 135 136
f 97 136 98
f 98 136 99
f 99 136 101
f 99 101 100
f 101 137 138
f 101 138 102
f 101 136 137
f 103 139 140
f 103 140 141
f 103 141 142
f 104 107 143
f 104 143 105
f 105 144 145
f 105 145 108
f 105 143 144
f 106 111 146
f 106 146 147
f 106 147 107
f 107 148 143
f 107 147 149
f 107 149 148
f 108 145 150
f 108 150 151
f 108 151 112
f 108 112 109
f 111 152 146
f 112 151 113
f 113 151 153
f 113 153 114
f 114 153 154
f 114 154 155
f 114 155 115
f 115 155 116
f 116 155 156
f 116 156 117
f 117 156 157
f 117 157 158
f 117 158 118
f 118 158 120
f 119 120 159
f 119 159 160
f 119 160 121
f 120 158 161
f 120 161 159
f 121 160 162
f 121 162 122
f 122 162 123
f 123 162 163
f 123 163 124
f 124 163 164
f 124 164 128
f 126 129 165
f 126 165 166
f 126 166 167
f 126 167 127
f 128 164 168
f 128 168 169
f 128 169 129
f 129 170 171
f 129 171 172
f 129 172 165
f 129 169 170
f 130 173 131
f 131 174 134
f 131 134 132
f 131 173 175
f 131 175 176
f 131 176 174
f 134 174 176
f 134 176 177
f 134 177 135
f 135 177 178
f 135 178 136
f 136 178 137
f 137 178 179
f 137 179 180
f 137 180 138
f 139 181 182
f 139 182 140
f 140 182 183
f 140 183 141
f 141 184 142
f 141 183 185
f 141 185 186
f 141 186 184
f 143 148 187
f 143 187 188
f 143 188 189
f 143 189 190
f 143 190 144
f 144 191 145
f 144 190 192
f 144 192 191
f 145 191 150
f 146 149 147
f 146 152 193
f 146 193 194
f 146 194 185
f 146 185 149
f 148 149 195
f 148 195 187
f 149 185 196
f 149 196 195
f 150 192 197
f 150 197 198
f 150 198 199
f 150 199 151
f 150 191 192
f 151 199 153
f 153 198 200
f 153 200 201
f 153 201 154
f 153 199 198
f 154 202 203
f 154 203 155
f 154 201 202
f 155 203 204
f 155 204 156
f 156 205 206
f 156 206 157
f 156 204 205
f 157 206 161
f 157 161 158
f 159 207 208
f 159 208 160
f 159 161 207
f 160 208 209
f 160 209 162
f 161 206 210
f 161 210 207
f 162 209 163
f 163 209 211
f 163 211 164
f 164 211 212
f 164 212 168
f 168 213 214
f 168 214 169
f 168 212 213
f 169 214 215
f 169 215 170
f 173 216 217
f 173 217 218
f 173 218 219
f 173 219 175
f 175 219 220
f 175 220 221
f 175 221 176
f 176 221 222
f 176 222 177
f 177 222 223
f 177 223 178
f 178 223 179
f 179 223 224
f 179 224 225
f 179 225 180
f 181 226 182
f 182 226 227
f 182 227 228
f 182 228 229
f 182 229 183
f 183 229 230
f 183 230 185
f 185 231 186
f 185 230 196
f 185 194 231
f 187 195 232
f 187 232 233
f 187 233 234
f 187 234 235
f 187 235 188
f 188 235 236
f 188 236 237
f 188 237 189
f 189 237 190
f 190 237 238
f 190 238 192
f 192 238 239
f 192 239 197
f 193 231 194
f 195 196 230
f 195 230 232
f 197 239 240
f 197 240 241
f 197 241 200
f 197 200 198
f 200 241 201
f 201 241 242
f 201 242 202
f 202 204 203
f 202 242 243
f 202 243 244
f 202 244 204
f 204 244 205
f 205 244 206
f 206 244 210
f 207 245 246
f 207 246 208
f 207 210 245
f 208 246 247
f 208 247 209
f 209 247 211
f 210 244 248
f 210 248 245
f 211 247 249
f 211 249 212
f 212 249 250
f 212 250 213
f 213 251 214
f 213 250 252
f 213 252 251
f 214 251 253
f 214 253 215
f 215 253 254
f 216 255 256
f 216 256 257
f 216 257 217
f 217 257 218
f 218 257 258
f 218 258 219
f 219 258 220
f 220 258 259
f 220 259 260
f 220 260 221
f 221 260 261
f 221 261 262
f 221 262 222
f 222 262 263
f 222 263 223
f 223 263 224
f 224 263 264
f 224 264 265
f 224 265 225
f 227 266 228
f 228 267 229
f 228 266 268
f 228 268 234
f 228 234 267
f 229 267 230
f 230 267 232
f 232 267 234
f 232 234 233
f 234 268 269
f 234 269 235
f 235 269 270
f 235 270 236
f 236 270 271
f 236 271 272
f 236 272 273
f 236 273 237
f 237 273 238
f 238 272 274
f 238 274 239
f 238 273 272
f 239 274 275
f 239 275 276
f 239 276 240
f 240 276 277
f 240 277 278
f 240 278 279
f 240 279 242
f 240 242 241
f 242 279 280
f 242 280 243
f 243 280 281
f 243 281 248
f 243 248 244
f 245 282 246
f 245 248 283
f 245 283 282
f 246 284 247
f 246 282 284
f 247 284 249
f 248 281 283
f 249 284 285
f 249 285 250
f 250 286 252
f 250 285 286
f 251 287 288
f 251 288 253
f 251 252 289
f 251 289 287
f 252 286 290
f 252 290 289
f 253 288 291
f 253 291 254
f 255 292 256
f 256 293 294
f 256 294 257
f 256 292 293
f 257 294 295
f 257 295 296
f 257 296 258
f 258 296 297
f 258 297 259
f 259 297 298
f 259 298 299
f 259 299 260
f 260 299 300
f 260 300 261
f 261 300 262
f 262 300 301
f 262 301 263
f 263 301 264
f 264 301 302
f 264 302 265
f 265 302 303
f 266 304 268
f 268 305 306
f 268 306 269
f 268 304 307
f 268 307 305
f 269 306 308
f 269 308 270
f 270 308 309
f 270 309 271
f 271 309 310
f 271 310 274
f 271 274 272
f 274 310 311
f 274 311 275
f 275 311 312
f 275 312 277
f 275 277 276
f 277 312 278
f 278 312 313
f 278 313 314
f 278 314 315
f 278 315 279
f 279 315 280
f 280 314 316
f 280 316 281
f 280 315 314
f 281 317 283
f 281 316 317
f 282 283 318
f 282 318 319
f 282 319 284
f 283 317 318
f 284 319 285
f 285 320 286
f 285 319 320
f 286 320 321
f 286 321 290
f 287 289 322
f 287 322 323
f 287 323 288
f 289 324 322
f 289 290 324
f 290 321 325
f 290 325 324
f 292 326 293
f 293 327 328
f 293 328 329
f 293 329 295
f 293 295 294
f 293 326 330
f 293 330 327
f 295 329 331
f 295 331 332
f 295 332 296
f 296 332 297
f 297 332 333
f 297 333 298
f 298 333 334
f 298 334 335
f 298 335 299
f 299 335 336
f 299 336 300
f 300 336 337
f 300 337 301
f 301 337 302
f 302 337 338
f 302 338 339
f 302 339 340
f 302 340 303
f 305 341 306
f 306 341 342
f 306 342 308
f 308 343 309
f 308 342 343
f 309 343 344
f 309 344 310
f 310 344 345
f 310 345 311
f 311 346 347
f 311 347 312
f 311 345 346
f 312 348 313
f 312 347 348
f 313 348 349
f 313 349 350
f 313 350 351
f 313 351 352
f 313 352 314
f 314 352 316
f 316 352 351
f 316 351 353
f 316 353 317
f 317 353 354
f 317 354 318
f 318 354 355
f 318 355 319
f 319 355 320
f 320 356 321
f 320 355 356
f 321 356 357
f 321 357 325
f 322 324 358
f 322 358 359
f 322 359 323
f 324 360 358
f 324 325 360
f 325 357 361
f 325 361 360
f 327 362 363
f 327 363 328
f 327 330 364
f 327 364 362
f 328 363 365
f 328 365 331
f 328 331 329
f 331 365 366
f 331 366 333
f 331 333 332
f 333 367 334
f 333 366 367
f 334 367 368
f 334 368 369
f 334 369 335
f 335 369 370
f 335 370 336
f 336 370 371
f 336 371 337
f 337 371 338
f 338 372 373
f 338 373 339
f 338 371 372
f 341 374 342
f 342 374 375
f 342 375 343
f 343 375 376
f 343 376 344
f 344 376 377
f 344 377 346
f 344 346 345
f 346 377 378
f 346 378 347
f 347 378 379
f 347 379 348
f 348 379 380
f 348 380 349
f 349 380 350
f 350 380 381
f 350 381 382
f 350 382 383
f 350 383 351
f 351 383 353
f 353 383 382
f 353 382 384
f 353 384 354
f 354 384 385
f 354 385 355
f 355 385 356
f 356 385 386
f 356 386 357
f 357 386 387
f 357 387 361
f 358 360 388
f 358 388 389
f 358 389 359
f 360 390 388
f 360 361 390
f 361 387 391
f 361 391 390
f 362 392 363
f 362 364 393
f 362 393 394
f 362 394 392
f 363 395 365
f 363 392 395
f 365 396 397
f 365 397 366
f 365 395 396
f 366 397 398
f 366 398 367
f 367 398 399
f 367 399 368
f 368 399 400
f 368 400 401
f 368 401 369
f 369 401 402
f 369 402 370
f 370 402 403
f 370 403 371
f 371 403 372
f 372 403 404
f 372 404 405
f 372 405 406
f 372 406 373
f 374 407 375
f 375 407 408
f 375 408 409
f 375 409 410
f 375 410 376
f 376 410 411
f 376 411 377
f 377 412 378
f 377 411 412
f 378 412 413
f 378 413 379
f 379 413 414
f 379 414 380
f 380 414 415
f 380 415 381
f 381 416 382
f 381 415 417
f 381 417 418
f 381 418 416
f 382 416 384
f 384 418 419
f 384 419 385
f 384 416 418
f 385 419 386
f 386 419 420
f 386 420 387
f 387 421 391
f 387 420 421
f 388 390 392
f 388 392 394
f 388 394 422
f 388 422 389
f 390 395 392
f 390 391 395
f 391 421 396
f 391 396 395
f 393 422 394
f 396 421 423
f 396 423 398
f 396 398 397
f 398 423 424
f 398 424 425
f 398 425 399
f 399 425 426
f 399 426 400
f 400 426 427
f 400 427 428
f 400 428 401
f 401 428 429
f 401 429 402
f 402 429 430
f 402 430 403
f 403 430 404
f 404 430 431
f 404 431 405
f 405 431 432
f 409 433 410
f 410 433 434
f 410 434 411
f 411 434 435
f 411 435 412
f 412 435 436
f 412 436 413
f 413 436 437
f 413 437 414
f 414 437 438
f 414 438 415
f 415 438 439
f 415 439 417
f 417 440 419
f 417 419 418
f 417 439 440
f 419 440 441
f 419 441 420
f 420 441 440
f 420 440 442
f 420 442 421
f 421 442 424
f 421 424 423
f 424 442 425
f 425 442 440
f 425 440 426
f 426 440 439
f 426 439 427
f 427 439 438
f 427 438 443
f 427 443 444
f 427 444 428
f 428 444 445
f 428 445 429
f 429 445 446
f 429 446 430
f 430 446 431
f 431 446 447
f 431 447 448
f 431 448 432
f 433 449 434
f 434 449 450
f 434 450 451
f 434 451 435
f 435 451 452
f 435 452 436
f 436 452 453
f 436 453 437
f 437 453 443
f 437 443 438
f 443 453 445
f 443 445 444
f 445 453 454
f 445 454 446
f 446 454 447
f 447 455 456
f 447 456 457
f 447 457 448
f 447 454 455
f 450 458 451
f 451 458 455
f 451 455 452
f 452 455 454
f 452 454 453
f 455 458 456

