# https://github.com/mikedh/trimesh
v 0.02439732 -0.00932093 -0.02648451
v 0.02439732 0.00002016 -0.02648451
v 0.02736216 -0.00932093 -0.02648451
v 0.02439732 -0.00932093 -0.01203897
v 0.02892275 0.00002016 -0.02648451
v 0.02439732 0.00002016 -0.01242812
v 0.02763141 -0.00848612 -0.02648451
v 0.02906674 -0.00932093 -0.02530339
v 0.02906674 -0.00932093 -0.01095666
v 0.02906674 -0.00421881 -0.01114667
v 0.02906537 0.00002016 -0.02620482
v 0.02906674 -0.00274395 -0.02610601
v 0.02882996 -0.00291768 -0.02648451
v 0.02906674 0.00002016 -0.01140357
v 0.02768260 -0.00831056 -0.02648451
v 0.02797424 -0.00712555 -0.02648451
v 0.02853786 -0.00481223 -0.02648451
v 0.02869465 -0.00416669 -0.02648451
v 0.02876002 -0.00377352 -0.02648451
v 0.02906674 -0.00828222 -0.02545084
v 0.02906674 0.00002016 -0.02620177
f 1 2 5
f 1 5 13
f 1 13 19
f 1 19 18
f 1 18 17
f 1 17 16
f 1 16 15
f 1 15 7
f 1 7 3
f 1 3 8
f 1 8 9
f 1 9 4
f 1 4 6
f 1 6 2
f 2 6 14
f 2 14 21
f 2 21 11
f 2 11 5
f 3 7 8
f 4 9 10
f 4 10 6
f 5 11 12
f 5 12 13
f 6 10 14
f 7 15 8
f 8 15 16
f 8 16 17
f 8 17 18
f 8 18 19
f 8 19 20
f 8 20 12
f 8 12 21
f 8 21 14
f 8 14 10
f 8 10 9
f 11 21 12
f 12 20 13
f 13 20 19

