# https://github.com/mikedh/trimesh
v 0.01882438 -0.02923512 -0.00921087
v 0.01259358 -0.02923512 -0.00944225
v 0.01882438 -0.02923512 -0.02397210
v 0.01882438 -0.02136176 -0.01131797
v 0.01224792 -0.02923512 -0.00950461
v 0.00876371 -0.02136176 -0.01239614
v 0.01877120 -0.02923512 -0.02398030
v 0.01277478 -0.02623637 -0.02597582
v 0.01380783 -0.02577935 -0.02597582
v 0.01515306 -0.02504797 -0.02597582
v 0.01541797 -0.02486146 -0.02597582
v 0.01828176 -0.02263262 -0.02597582
v 0.01868651 -0.02231125 -0.02597582
v 0.01882438 -0.02218948 -0.02597582
v 0.01882438 -0.02136176 -0.02597582
v 0.01200073 -0.02923512 -0.00955549
v 0.00876371 -0.02923512 -0.01072884
v 0.00876371 -0.02136176 -0.02597582
v 0.01733044 -0.02923512 -0.02419528
v 0.00876371 -0.02753729 -0.02597418
v 0.01230996 -0.02633425 -0.02597582
v 0.01606400 -0.02923512 -0.02436923
v 0.00876371 -0.02923512 -0.02506504
v 0.00876371 -0.02633425 -0.02597582
v 0.01584439 -0.02923512 -0.02439713
v 0.01456219 -0.02923512 -0.02453826
v 0.01441151 -0.02923512 -0.02455467
v 0.01425394 -0.02923512 -0.02457108
v 0.01295992 -0.02923512 -0.02470236
v 0.01265562 -0.02923512 -0.02473190
v 0.01140296 -0.02923512 -0.02484842
v 0.00984797 -0.02923512 -0.02497642
f 1 2 5
f 1 5 16
f 1 16 17
f 1 17 23
f 1 23 32
f 1 32 31
f 1 31 30
f 1 30 29
f 1 29 28
f 1 28 27
f 1 27 26
f 1 26 25
f 1 25 22
f 1 22 19
f 1 19 7
f 1 7 3
f 1 3 14
f 1 14 15
f 1 15 4
f 1 4 2
f 2 4 6
f 2 6 5
f 3 7 8
f 3 8 9
f 3 9 10
f 3 10 11
f 3 11 12
f 3 12 13
f 3 13 14
f 4 15 18
f 4 18 6
f 5 6 16
f 6 17 16
f 6 18 24
f 6 24 20
f 6 20 23
f 6 23 17
f 7 19 8
f 8 20 21
f 8 21 24
f 8 24 18
f 8 18 15
f 8 15 14
f 8 14 13
f 8 13 12
f 8 12 11
f 8 11 10
f 8 10 9
f 8 19 22
f 8 22 20
f 20 24 21
f 20 22 25
f 20 25 26
f 20 26 27
f 20 27 28
f 20 28 29
f 20 29 30
f 20 30 31
f 20 31 32
f 20 32 23

