# https://github.com/mikedh/trimesh
v 0.03139184 -0.03938129 0.01342580
v 0.03139184 -0.03638479 0.00518852
v 0.02570464 -0.04332538 0.01342580
v 0.03139184 -0.04920699 0.01342580
v 0.02570464 -0.04061912 0.00518852
v 0.03139184 -0.04857317 0.00518852
v 0.02570464 -0.05241057 0.01342580
v 0.03084678 -0.04955527 0.01342580
v 0.03139184 -0.04920699 0.01340322
v 0.02570464 -0.05177362 0.00518852
v 0.03139184 -0.04869398 0.00596016
v 0.03112794 -0.04885086 0.00583760
v 0.03089411 -0.04889165 0.00518852
v 0.02570464 -0.05239646 0.01257514
v 0.02604592 -0.05224899 0.01342580
v 0.03068755 -0.04965568 0.01342580
v 0.03071650 -0.04963685 0.01336371
v 0.03130332 -0.04923994 0.01209538
v 0.03139184 -0.04918816 0.01234050
v 0.02642117 -0.05141436 0.00518852
v 0.02672961 -0.05128101 0.00533204
v 0.02570464 -0.05180657 0.00541670
v 0.03139184 -0.04877085 0.00656328
v 0.03139184 -0.04889008 0.00750586
v 0.03053444 -0.04939682 0.00710673
v 0.02985521 -0.04954743 0.00524738
v 0.02988305 -0.04952076 0.00518852
v 0.02570464 -0.05234625 0.01102702
v 0.02630982 -0.05210779 0.01285815
v 0.02651638 -0.05200895 0.01342580
v 0.02913310 -0.05058287 0.01342580
v 0.02943709 -0.05039618 0.01277269
v 0.03002836 -0.05001338 0.01150355
v 0.03061963 -0.04959763 0.01023522
v 0.03139184 -0.04917561 0.01190429
v 0.03139184 -0.04918346 0.01213651
v 0.02667672 -0.05128414 0.00518852
v 0.02679531 -0.05122296 0.00518852
v 0.02712212 -0.05104881 0.00518852
v 0.02800624 -0.05069112 0.00592145
v 0.02613890 -0.05175637 0.00660037
v 0.02570464 -0.05187560 0.00591017
v 0.03139184 -0.04899676 0.00858470
v 0.03121368 -0.04914737 0.00896689
v 0.02994373 -0.04987689 0.00837506
v 0.02926283 -0.05007142 0.00651571
v 0.02983461 -0.04955057 0.00518852
v 0.02570464 -0.05233684 0.01085689
v 0.02622687 -0.05200738 0.00972805
v 0.02690388 -0.05176107 0.01158902
v 0.02752521 -0.05148966 0.01342580
v 0.02764435 -0.05142377 0.01342580
v 0.02817048 -0.05110843 0.01218085
v 0.02876398 -0.05072250 0.01091172
v 0.02935692 -0.05031302 0.00964258
v 0.03139184 -0.04905952 0.00945552
v 0.03139184 -0.04912070 0.01059484
v 0.02834530 -0.05039461 0.00518852
v 0.02867601 -0.05053894 0.00778323
v 0.02741330 -0.05116021 0.00719059
v 0.02681758 -0.05160419 0.00846053
v 0.02570464 -0.05207798 0.00752682
v 0.02570464 -0.05194306 0.00639718
v 0.03139184 -0.04903442 0.00904914
v 0.02808419 -0.05097822 0.00905236
v 0.02570464 -0.05225055 0.00948535
v 0.02749236 -0.05138612 0.01032069
v 0.02570464 -0.05215328 0.00830733
v 0.02758868 -0.05145515 0.01342580
v 0.02570464 -0.05212191 0.00794449
f 1 2 3
f 1 3 7
f 1 7 15
f 1 15 30
f 1 30 51
f 1 51 69
f 1 69 52
f 1 52 31
f 1 31 16
f 1 16 8
f 1 8 4
f 1 4 9
f 1 9 19
f 1 19 36
f 1 36 35
f 1 35 57
f 1 57 56
f 1 56 64
f 1 64 43
f 1 43 24
f 1 24 23
f 1 23 11
f 1 11 6
f 1 6 2
f 2 5 3
f 2 6 13
f 2 13 27
f 2 27 47
f 2 47 58
f 2 58 39
f 2 39 38
f 2 38 37
f 2 37 20
f 2 20 10
f 2 10 5
f 3 5 10
f 3 10 22
f 3 22 42
f 3 42 63
f 3 63 62
f 3 62 70
f 3 70 68
f 3 68 66
f 3 66 48
f 3 48 28
f 3 28 14
f 3 14 7
f 4 8 9
f 6 11 12
f 6 12 13
f 7 14 15
f 8 16 17
f 8 17 18
f 8 18 19
f 8 19 9
f 10 20 21
f 10 21 22
f 11 23 12
f 12 23 24
f 12 24 25
f 12 25 26
f 12 26 27
f 12 27 13
f 14 28 29
f 14 29 15
f 15 29 30
f 16 31 32
f 16 32 33
f 16 33 17
f 17 33 18
f 18 33 34
f 18 34 35
f 18 35 36
f 18 36 19
f 20 37 21
f 21 37 38
f 21 38 39
f 21 39 40
f 21 40 41
f 21 41 22
f 22 41 42
f 24 43 25
f 25 44 45
f 25 45 46
f 25 46 26
f 25 43 44
f 26 47 27
f 26 46 47
f 28 48 49
f 28 49 50
f 28 50 29
f 29 50 51
f 29 51 30
f 31 52 53
f 31 53 32
f 32 53 33
f 33 53 54
f 33 54 55
f 33 55 34
f 34 45 44
f 34 44 56
f 34 56 57
f 34 57 35
f 34 55 45
f 39 58 40
f 40 58 46
f 40 46 59
f 40 59 60
f 40 60 41
f 41 61 62
f 41 62 63
f 41 63 42
f 41 60 61
f 43 64 44
f 44 64 56
f 45 55 65
f 45 65 59
f 45 59 46
f 46 58 47
f 48 66 49
f 49 61 67
f 49 67 50
f 49 66 68
f 49 68 61
f 50 67 53
f 50 53 51
f 51 53 69
f 52 69 53
f 53 67 54
f 54 67 65
f 54 65 55
f 59 65 61
f 59 61 60
f 61 68 70
f 61 70 62
f 61 65 67

