# https://github.com/mikedh/trimesh
v -0.02137927 -0.03025512 -0.01728283
v -0.02137927 -0.04216840 -0.01728283
v -0.02137927 -0.03025512 -0.02327796
v -0.03663332 -0.03025512 -0.01728283
v -0.02141959 -0.04214741 -0.01728283
v -0.02261124 -0.04085637 -0.01778399
v -0.02137927 -0.04214508 -0.01729984
v -0.02137927 -0.03081609 -0.02311365
v -0.02165553 -0.03025512 -0.02322397
v -0.03596582 -0.03025512 -0.01772530
v -0.03652132 -0.03039040 -0.01728283
v -0.02282777 -0.04140801 -0.01728283
v -0.02375212 -0.04090768 -0.01728283
v -0.02440918 -0.04052748 -0.01728283
v -0.02406273 -0.03921195 -0.01835028
v -0.02202736 -0.03956066 -0.01887550
v -0.02137927 -0.04075607 -0.01829571
v -0.02137927 -0.03125343 -0.02297280
v -0.02184070 -0.03081609 -0.02301799
v -0.02175110 -0.03025512 -0.02320519
v -0.03569105 -0.03081609 -0.01759855
v -0.03616890 -0.03081609 -0.01728283
v -0.03449939 -0.03025512 -0.01859147
v -0.03422612 -0.03081842 -0.01846354
v -0.02516030 -0.04007848 -0.01728283
v -0.02580392 -0.03921428 -0.01762026
v -0.02351320 -0.03781711 -0.01943300
v -0.02507967 -0.03781944 -0.01883384
v -0.02167793 -0.03781244 -0.02004566
v -0.02137927 -0.03812150 -0.01995470
v -0.02137927 -0.03942887 -0.01916364
v -0.02137927 -0.04043418 -0.01851460
v -0.02137927 -0.03221792 -0.02264300
v -0.02209307 -0.03221792 -0.02248162
v -0.02357741 -0.03081725 -0.02261014
v -0.02244399 -0.03025512 -0.02305555
v -0.03495784 -0.03218410 -0.01728283
v -0.03502354 -0.03211296 -0.01728283
v -0.03294487 -0.03025512 -0.01941070
v -0.03267010 -0.03081958 -0.01928394
v -0.03350934 -0.03221326 -0.01812142
v -0.02593533 -0.03959098 -0.01728283
v -0.02637137 -0.03931341 -0.01728283
v -0.02848439 -0.03781477 -0.01732625
v -0.02682085 -0.03781944 -0.01810088
v -0.02609212 -0.03637562 -0.01928336
v -0.02423446 -0.03641061 -0.01997172
v -0.02306819 -0.03641294 -0.02037253
v -0.02780643 -0.03641061 -0.01854981
v -0.02137927 -0.03641294 -0.02087369
v -0.02137927 -0.03677098 -0.02068414
v -0.02137927 -0.03781244 -0.02013016
v -0.02137927 -0.03289902 -0.02239242
v -0.02237082 -0.03361510 -0.02187542
v -0.02384322 -0.03221559 -0.02203152
v -0.02137927 -0.03361626 -0.02211661
v -0.02533651 -0.03081376 -0.02213304
v -0.02523646 -0.03025512 -0.02235310
v -0.02418369 -0.03025512 -0.02263889
v -0.02348333 -0.03025512 -0.02281142
v -0.03493096 -0.03221209 -0.01728283
v -0.03130075 -0.03025512 -0.02018533
v -0.03102897 -0.03081609 -0.02005916
v -0.03194735 -0.03221676 -0.01894299
v -0.03030323 -0.03221559 -0.01971879
v -0.03116635 -0.03361743 -0.01857974
v -0.03272088 -0.03361743 -0.01775993
v -0.02842914 -0.03791391 -0.01728283
v -0.02856204 -0.03781711 -0.01728283
v -0.03018974 -0.03655639 -0.01728283
v -0.02944607 -0.03641411 -0.01777401
v -0.02662224 -0.03519304 -0.01973874
v -0.02548883 -0.03553125 -0.01998697
v -0.02460032 -0.03514872 -0.02050867
v -0.02269487 -0.03501460 -0.02118002
v -0.02869942 -0.03501577 -0.01897116
v -0.02137927 -0.03631264 -0.02092357
v -0.02414337 -0.03361276 -0.02137661
v -0.02137927 -0.03458542 -0.02171639
v -0.02137927 -0.03501810 -0.02152860
v -0.02552915 -0.03214911 -0.02156205
v -0.02730319 -0.03087090 -0.02149691
v -0.02711653 -0.03025512 -0.02178681
v -0.02594727 -0.03025512 -0.02215182
v -0.03339137 -0.03374921 -0.01728283
v -0.03061980 -0.03025512 -0.02047170
v -0.02956703 -0.03025512 -0.02091418
v -0.02928031 -0.03081842 -0.02079270
v -0.02857100 -0.03221442 -0.02045175
v -0.02952223 -0.03361976 -0.01936082
v -0.02779747 -0.03361510 -0.02009319
v -0.03033459 -0.03501693 -0.01819008
v -0.03188761 -0.03501227 -0.01736557
v -0.03178159 -0.03522919 -0.01728283
v -0.02597565 -0.03361626 -0.02077510
v -0.02747342 -0.03221676 -0.02087369
v -0.02788557 -0.03025512 -0.02153329
v -0.03202350 -0.03501577 -0.01728283
v -0.02903840 -0.03025512 -0.02110960
f 1 2 7
f 1 7 17
f 1 17 32
f 1 32 31
f 1 31 30
f 1 30 52
f 1 52 51
f 1 51 50
f 1 50 77
f 1 77 80
f 1 80 79
f 1 79 56
f 1 56 53
f 1 53 33
f 1 33 18
f 1 18 8
f 1 8 3
f 1 3 9
f 1 9 20
f 1 20 36
f 1 36 60
f 1 60 59
f 1 59 58
f 1 58 84
f 1 84 83
f 1 83 97
f 1 97 99
f 1 99 87
f 1 87 86
f 1 86 62
f 1 62 39
f 1 39 23
f 1 23 10
f 1 10 4
f 1 4 11
f 1 11 22
f 1 22 38
f 1 38 37
f 1 37 61
f 1 61 85
f 1 85 98
f 1 98 94
f 1 94 70
f 1 70 69
f 1 69 68
f 1 68 43
f 1 43 42
f 1 42 25
f 1 25 14
f 1 14 13
f 1 13 12
f 1 12 5
f 1 5 2
f 2 5 6
f 2 6 7
f 3 8 9
f 4 10 11
f 5 12 6
f 6 12 13
f 6 13 14
f 6 14 15
f 6 15 16
f 6 16 17
f 6 17 7
f 8 18 19
f 8 19 20
f 8 20 9
f 10 21 22
f 10 22 11
f 10 23 24
f 10 24 21
f 14 25 26
f 14 26 15
f 15 27 16
f 15 26 28
f 15 28 27
f 16 29 30
f 16 30 31
f 16 31 32
f 16 32 17
f 16 27 29
f 18 33 34
f 18 34 19
f 19 34 35
f 19 35 36
f 19 36 20
f 21 24 37
f 21 37 38
f 21 38 22
f 23 39 40
f 23 40 24
f 24 40 41
f 24 41 37
f 25 42 26
f 26 42 43
f 26 43 44
f 26 44 45
f 26 45 28
f 27 28 46
f 27 46 47
f 27 47 48
f 27 48 29
f 28 45 49
f 28 49 46
f 29 48 50
f 29 50 51
f 29 51 52
f 29 52 30
f 33 53 34
f 34 54 55
f 34 55 35
f 34 53 56
f 34 56 54
f 35 55 57
f 35 57 58
f 35 58 59
f 35 59 60
f 35 60 36
f 37 41 61
f 39 62 63
f 39 63 40
f 40 64 41
f 40 63 65
f 40 65 64
f 41 64 66
f 41 66 67
f 41 67 61
f 43 68 44
f 44 68 69
f 44 69 70
f 44 70 71
f 44 71 49
f 44 49 45
f 46 49 72
f 46 72 73
f 46 73 47
f 47 73 74
f 47 74 48
f 48 75 50
f 48 74 75
f 49 71 76
f 49 76 72
f 50 75 77
f 54 75 78
f 54 78 55
f 54 56 79
f 54 79 80
f 54 80 75
f 55 78 81
f 55 81 57
f 57 81 82
f 57 82 83
f 57 83 84
f 57 84 58
f 61 67 85
f 62 86 63
f 63 86 87
f 63 87 88
f 63 88 89
f 63 89 65
f 64 65 90
f 64 90 66
f 65 89 91
f 65 91 90
f 66 90 76
f 66 76 92
f 66 92 67
f 67 92 93
f 67 93 85
f 70 94 71
f 71 94 93
f 71 93 92
f 71 92 76
f 72 76 91
f 72 91 95
f 72 95 73
f 73 95 74
f 74 95 78
f 74 78 75
f 75 80 77
f 76 90 91
f 78 95 81
f 81 95 96
f 81 96 82
f 82 96 88
f 82 88 97
f 82 97 83
f 85 93 98
f 87 99 88
f 88 99 97
f 88 96 89
f 89 96 91
f 91 96 95
f 93 94 98

