# https://github.com/mikedh/trimesh
v 0.02906720 -0.01827798 -0.02422720
v 0.02906720 -0.01875757 -0.02414632
v 0.02906720 -0.01827798 -0.00944386
v 0.02958060 -0.01827798 -0.02410588
v 0.02906720 -0.01961650 -0.02399193
v 0.02954164 -0.01961570 -0.02387797
v 0.02906720 -0.02646951 -0.00676032
v 0.03094889 -0.02646951 -0.00545164
v 0.03390093 -0.01827798 -0.00658939
v 0.02964019 -0.01827798 -0.02409118
v 0.02906720 -0.02101678 -0.02371990
v 0.02942704 -0.02101678 -0.02362983
v 0.03101078 -0.01827798 -0.02371438
v 0.03090993 -0.01961650 -0.02349749
v 0.02906720 -0.02646951 -0.02236159
v 0.03553968 -0.01880328 -0.00545164
v 0.04878029 -0.02646951 -0.00545164
v 0.03511796 -0.01827798 -0.00588174
v 0.02906720 -0.02241465 -0.02342397
v 0.03078846 -0.02101598 -0.02323833
v 0.02930098 -0.02241545 -0.02336332
v 0.03230802 -0.01827798 -0.02332840
v 0.03225989 -0.01961730 -0.02308210
v 0.02906720 -0.02521520 -0.02273655
v 0.03035757 -0.02521440 -0.02231380
v 0.03019943 -0.02646951 -0.02197744
v 0.03588805 -0.01827798 -0.00545164
v 0.04870465 -0.02646951 -0.00564280
v 0.04898427 -0.02609659 -0.00545164
v 0.02906720 -0.02265284 -0.02337251
v 0.03065782 -0.02241465 -0.02295711
v 0.03213383 -0.02101598 -0.02280823
v 0.02916575 -0.02381733 -0.02307475
v 0.02906720 -0.02381733 -0.02310232
v 0.03236761 -0.01827798 -0.02331001
v 0.03370382 -0.01827798 -0.02286337
v 0.03358922 -0.01961570 -0.02261891
v 0.02906720 -0.02472518 -0.02286705
v 0.03051342 -0.02381412 -0.02265016
v 0.03184276 -0.02381572 -0.02218514
v 0.03167774 -0.02521440 -0.02183039
v 0.03033694 -0.02646951 -0.02192597
v 0.05248179 -0.01827798 -0.00545164
v 0.04825085 -0.02646951 -0.00665372
v 0.04914013 -0.02530422 -0.00609863
v 0.04939224 -0.02532908 -0.00545164
v 0.03063490 -0.02265284 -0.02290565
v 0.03199402 -0.02241625 -0.02250863
v 0.03345400 -0.02101598 -0.02233218
v 0.03501940 -0.01827798 -0.02237445
v 0.03490022 -0.01961570 -0.02211529
v 0.03196881 -0.02265284 -0.02245716
v 0.03330731 -0.02241304 -0.02201236
v 0.03327981 -0.02265284 -0.02195538
v 0.03314917 -0.02381572 -0.02167232
v 0.03297040 -0.02521360 -0.02129736
v 0.03151042 -0.02646951 -0.02147198
v 0.05217926 -0.01911285 -0.00545164
v 0.05201424 -0.01932057 -0.00568691
v 0.05227093 -0.01827798 -0.00599754
v 0.04813396 -0.02646951 -0.00689450
v 0.04956643 -0.02393923 -0.00669048
v 0.05003857 -0.02396329 -0.00556744
v 0.04831961 -0.02520718 -0.00787234
v 0.04993314 -0.02426404 -0.00545164
v 0.03475812 -0.02101598 -0.02181385
v 0.03631206 -0.01827798 -0.02183407
v 0.03618372 -0.01961650 -0.02155837
v 0.03459997 -0.02241304 -0.02147749
v 0.03457247 -0.02265284 -0.02141500
v 0.03443037 -0.02381572 -0.02111172
v 0.03292914 -0.02646951 -0.02085807
v 0.03279392 -0.02646951 -0.02091873
v 0.03164335 -0.02646951 -0.02141684
v 0.03424472 -0.02521680 -0.02071471
v 0.05208300 -0.01936949 -0.00545164
v 0.05188130 -0.01987955 -0.00545164
v 0.05141604 -0.02101598 -0.00545164
v 0.05088659 -0.02101678 -0.00672172
v 0.05179191 -0.01871185 -0.00673459
v 0.05218155 -0.01827798 -0.00620340
v 0.04725156 -0.02646951 -0.00851932
v 0.04865423 -0.02381572 -0.00856528
v 0.04975666 -0.02265284 -0.00753965
v 0.05024943 -0.02265284 -0.00649197
v 0.05043279 -0.02274988 -0.00600673
v 0.05014859 -0.02383016 -0.00545164
v 0.05003399 -0.02406434 -0.00545164
v 0.04746929 -0.02521841 -0.00932806
v 0.03603244 -0.02101517 -0.02123671
v 0.03757951 -0.01827798 -0.02123855
v 0.03744200 -0.01961650 -0.02094262
v 0.03586972 -0.02241785 -0.02088564
v 0.03562906 -0.02265284 -0.02092424
v 0.03583992 -0.02265284 -0.02082315
v 0.03569094 -0.02381653 -0.02050333
v 0.03406366 -0.02646951 -0.02032320
v 0.03549842 -0.02521440 -0.02008977
v 0.05106766 -0.02181716 -0.00545164
v 0.05049925 -0.02265284 -0.00594975
v 0.05116392 -0.01961329 -0.00733563
v 0.04979104 -0.02241304 -0.00769772
v 0.05008670 -0.02101437 -0.00832817
v 0.05161543 -0.01827798 -0.00745142
v 0.05154438 -0.01827798 -0.00760214
v 0.04716217 -0.02646951 -0.00867188
v 0.04890864 -0.02265284 -0.00910382
v 0.04778787 -0.02381893 -0.01000814
v 0.05069636 -0.02265284 -0.00545164
v 0.04637832 -0.02646951 -0.00992359
v 0.04627977 -0.02646951 -0.01007798
v 0.04656855 -0.02521360 -0.01072313
v 0.03728385 -0.02101678 -0.02060626
v 0.03876445 -0.01827798 -0.02061729
v 0.03881946 -0.01827798 -0.02058788
v 0.03867736 -0.01961810 -0.02027909
v 0.03711654 -0.02241545 -0.02024417
v 0.03687588 -0.02265284 -0.02028828
v 0.03708445 -0.02265284 -0.02017800
v 0.03692860 -0.02381653 -0.01984715
v 0.03531277 -0.02646951 -0.01968908
v 0.03672920 -0.02521520 -0.01941337
v 0.05148709 -0.01827798 -0.00771610
v 0.05035715 -0.01961730 -0.00890164
v 0.04895906 -0.02241785 -0.00921043
v 0.04924097 -0.02101838 -0.00981146
v 0.04687797 -0.02381492 -0.01138115
v 0.04806061 -0.02239540 -0.01067167
v 0.04545237 -0.02646951 -0.01128741
v 0.04563573 -0.02521360 -0.01203182
v 0.03851463 -0.02101517 -0.01993170
v 0.04003878 -0.01827798 -0.01988759
v 0.03989210 -0.01961810 -0.01957145
v 0.03834044 -0.02241385 -0.01956226
v 0.03814792 -0.02381572 -0.01914318
v 0.03830835 -0.02265284 -0.01949057
v 0.03653667 -0.02646951 -0.01899982
v 0.03793477 -0.02521680 -0.01868735
v 0.05059552 -0.01827798 -0.00941077
v 0.04949538 -0.01961490 -0.01037942
v 0.05055885 -0.01827798 -0.00947510
v 0.04842045 -0.02096144 -0.01112382
v 0.04710258 -0.02265284 -0.01187374
v 0.04592451 -0.02381653 -0.01264388
v 0.04785205 -0.02151642 -0.01158517
v 0.04535382 -0.02646951 -0.01142159
v 0.04448288 -0.02646951 -0.01252992
v 0.04464561 -0.02521440 -0.01321735
v 0.03972249 -0.02101277 -0.01921487
v 0.04122830 -0.01827798 -0.01913767
v 0.04107474 -0.01961570 -0.01881050
v 0.03954143 -0.02241465 -0.01882520
v 0.03950934 -0.02265284 -0.01875168
v 0.03933973 -0.02381572 -0.01838959
v 0.03773537 -0.02646951 -0.01826093
v 0.03912429 -0.02521680 -0.01792456
v 0.03786142 -0.02646951 -0.01818189
v 0.04858776 -0.01961249 -0.01174876
v 0.04968790 -0.01827798 -0.01092532
v 0.04972686 -0.01827798 -0.01086282
v 0.04714842 -0.02240984 -0.01197667
v 0.04608495 -0.02265284 -0.01316037
v 0.04487938 -0.02372430 -0.01388272
v 0.04790705 -0.02052756 -0.01213291
v 0.04437974 -0.02646951 -0.01264940
v 0.04346754 -0.02646951 -0.01365113
v 0.04335982 -0.02646951 -0.01376692
v 0.04360964 -0.02521921 -0.01430179
v 0.04090284 -0.02101678 -0.01844105
v 0.04235136 -0.01827798 -0.01837488
v 0.04224364 -0.01961810 -0.01800176
v 0.04071949 -0.02241465 -0.01803485
v 0.04048571 -0.02265284 -0.01809550
v 0.04051092 -0.02381492 -0.01759188
v 0.04029089 -0.02521520 -0.01711767
v 0.03904178 -0.02646951 -0.01740624
v 0.03892031 -0.02646951 -0.01748895
v 0.04881008 -0.01827798 -0.01220827
v 0.04612392 -0.02236412 -0.01328719
v 0.04732490 -0.02101196 -0.01259793
v 0.04586034 -0.02265284 -0.01341402
v 0.04510171 -0.02265284 -0.01423930
v 0.04385946 -0.02381091 -0.01485136
v 0.04767786 -0.01964858 -0.01293245
v 0.04229865 -0.02646951 -0.01480725
v 0.04253472 -0.02521600 -0.01531087
v 0.04206487 -0.02101838 -0.01761577
v 0.04245221 -0.01827798 -0.01830136
v 0.04354547 -0.01827798 -0.01748895
v 0.04338503 -0.01961409 -0.01714340
v 0.04187005 -0.02241705 -0.01719854
v 0.04165461 -0.02381572 -0.01674087
v 0.04143000 -0.02521761 -0.01625195
v 0.04007545 -0.02646951 -0.01666551
v 0.04877112 -0.01827798 -0.01225973
v 0.04515213 -0.02240984 -0.01431650
v 0.04641041 -0.02101357 -0.01369708
v 0.04714154 -0.02012416 -0.01332579
v 0.04409783 -0.02241304 -0.01535683
v 0.04280975 -0.02381332 -0.01580163
v 0.04784059 -0.01827798 -0.01343975
v 0.04131769 -0.02646951 -0.01567664
v 0.04120538 -0.02646951 -0.01577406
v 0.04319938 -0.02101598 -0.01674087
v 0.04467082 -0.01827798 -0.01658647
v 0.04450351 -0.01961730 -0.01622070
v 0.04299998 -0.02241625 -0.01630893
v 0.04019234 -0.02646951 -0.01657544
v 0.04538132 -0.02101598 -0.01479806
v 0.04665794 -0.01964698 -0.01411983
v 0.04779475 -0.01827798 -0.01349305
v 0.04430869 -0.02101758 -0.01580347
v 0.04576408 -0.01827798 -0.01560864
v 0.04558530 -0.01961810 -0.01522816
v 0.04682067 -0.01827798 -0.01457014
v 0.04677254 -0.01827798 -0.01461793
f 1 2 5
f 1 5 11
f 1 11 19
f 1 19 30
f 1 30 34
f 1 34 38
f 1 38 24
f 1 24 15
f 1 15 7
f 1 7 3
f 1 3 9
f 1 9 18
f 1 18 27
f 1 27 43
f 1 43 60
f 1 60 81
f 1 81 104
f 1 104 105
f 1 105 123
f 1 123 139
f 1 139 141
f 1 141 160
f 1 160 159
f 1 159 178
f 1 178 195
f 1 195 201
f 1 201 211
f 1 211 215
f 1 215 216
f 1 216 213
f 1 213 205
f 1 205 189
f 1 189 188
f 1 188 170
f 1 170 150
f 1 150 132
f 1 132 115
f 1 115 114
f 1 114 91
f 1 91 67
f 1 67 50
f 1 50 36
f 1 36 35
f 1 35 22
f 1 22 13
f 1 13 10
f 1 10 4
f 1 4 2
f 2 4 6
f 2 6 5
f 3 7 8
f 3 8 9
f 4 10 6
f 5 6 11
f 6 12 11
f 6 10 13
f 6 13 14
f 6 14 12
f 7 15 26
f 7 26 42
f 7 42 57
f 7 57 74
f 7 74 73
f 7 73 72
f 7 72 97
f 7 97 121
f 7 121 137
f 7 137 155
f 7 155 157
f 7 157 177
f 7 177 176
f 7 176 194
f 7 194 208
f 7 208 203
f 7 203 202
f 7 202 185
f 7 185 167
f 7 167 166
f 7 166 165
f 7 165 147
f 7 147 146
f 7 146 129
f 7 129 111
f 7 111 110
f 7 110 106
f 7 106 82
f 7 82 61
f 7 61 44
f 7 44 28
f 7 28 17
f 7 17 8
f 8 16 9
f 8 17 29
f 8 29 46
f 8 46 65
f 8 65 88
f 8 88 87
f 8 87 109
f 8 109 99
f 8 99 78
f 8 78 77
f 8 77 76
f 8 76 58
f 8 58 43
f 8 43 27
f 8 27 16
f 9 16 18
f 11 12 19
f 12 14 20
f 12 20 21
f 12 21 19
f 13 22 14
f 14 22 23
f 14 23 20
f 15 24 25
f 15 25 26
f 16 27 18
f 17 28 29
f 19 21 30
f 20 31 21
f 20 23 32
f 20 32 31
f 21 31 33
f 21 33 34
f 21 34 30
f 22 35 23
f 23 35 36
f 23 36 37
f 23 37 32
f 24 38 39
f 24 39 25
f 25 39 40
f 25 40 41
f 25 41 26
f 26 41 42
f 28 44 45
f 28 45 29
f 29 45 46
f 31 47 33
f 31 32 48
f 31 48 47
f 32 37 49
f 32 49 48
f 33 38 34
f 33 47 39
f 33 39 38
f 36 50 37
f 37 50 51
f 37 51 49
f 39 47 52
f 39 52 40
f 40 52 53
f 40 53 54
f 40 54 55
f 40 55 41
f 41 55 56
f 41 56 57
f 41 57 42
f 43 58 59
f 43 59 60
f 44 61 45
f 45 62 63
f 45 63 46
f 45 61 64
f 45 64 62
f 46 63 65
f 47 48 52
f 48 49 52
f 49 51 66
f 49 66 53
f 49 53 52
f 50 67 51
f 51 67 68
f 51 68 66
f 53 66 54
f 54 66 69
f 54 69 55
f 55 69 70
f 55 70 71
f 55 71 56
f 56 72 73
f 56 73 74
f 56 74 57
f 56 71 75
f 56 75 72
f 58 76 59
f 59 77 78
f 59 78 79
f 59 79 80
f 59 80 60
f 59 76 77
f 60 80 81
f 61 82 64
f 62 64 83
f 62 83 84
f 62 84 85
f 62 85 86
f 62 86 63
f 63 86 87
f 63 87 88
f 63 88 65
f 64 82 89
f 64 89 83
f 66 68 90
f 66 90 69
f 67 91 68
f 68 91 92
f 68 92 90
f 69 90 93
f 69 93 94
f 69 94 70
f 70 94 71
f 71 94 95
f 71 95 96
f 71 96 75
f 72 75 97
f 75 96 98
f 75 98 97
f 78 99 100
f 78 100 79
f 79 101 80
f 79 100 86
f 79 86 85
f 79 85 84
f 79 84 102
f 79 102 103
f 79 103 101
f 80 104 81
f 80 101 105
f 80 105 104
f 82 106 89
f 83 107 102
f 83 102 84
f 83 89 108
f 83 108 107
f 86 100 109
f 86 109 87
f 89 106 110
f 89 110 111
f 89 111 112
f 89 112 108
f 90 92 113
f 90 113 93
f 91 114 92
f 92 114 115
f 92 115 116
f 92 116 113
f 93 95 94
f 93 113 117
f 93 117 95
f 95 117 118
f 95 118 96
f 96 118 119
f 96 119 120
f 96 120 98
f 97 98 121
f 98 120 122
f 98 122 121
f 99 109 100
f 101 123 105
f 101 103 124
f 101 124 123
f 102 107 125
f 102 125 103
f 103 125 126
f 103 126 124
f 107 108 125
f 108 112 127
f 108 127 128
f 108 128 125
f 111 129 112
f 112 129 130
f 112 130 127
f 113 116 131
f 113 131 117
f 115 132 116
f 116 132 133
f 116 133 131
f 117 119 118
f 117 131 134
f 117 134 119
f 119 134 120
f 120 135 122
f 120 134 136
f 120 136 135
f 121 122 137
f 122 135 138
f 122 138 137
f 123 124 139
f 124 126 140
f 124 140 141
f 124 141 139
f 125 128 126
f 126 128 142
f 126 142 140
f 127 143 128
f 127 130 144
f 127 144 143
f 128 145 142
f 128 143 145
f 129 146 130
f 130 146 147
f 130 147 148
f 130 148 144
f 131 133 149
f 131 149 134
f 132 150 133
f 133 150 151
f 133 151 149
f 134 149 152
f 134 152 136
f 135 136 152
f 135 152 153
f 135 153 154
f 135 154 138
f 137 138 155
f 138 154 156
f 138 156 157
f 138 157 155
f 140 142 158
f 140 158 159
f 140 159 160
f 140 160 141
f 142 145 158
f 143 144 161
f 143 161 145
f 144 162 161
f 144 148 163
f 144 163 162
f 145 164 158
f 145 161 164
f 147 165 148
f 148 165 166
f 148 166 167
f 148 167 168
f 148 168 163
f 149 151 169
f 149 169 152
f 150 170 151
f 151 170 171
f 151 171 169
f 152 169 172
f 152 172 153
f 153 172 173
f 153 173 154
f 154 173 174
f 154 174 156
f 156 174 175
f 156 175 176
f 156 176 177
f 156 177 157
f 158 164 178
f 158 178 159
f 161 162 179
f 161 179 180
f 161 180 164
f 162 163 181
f 162 181 179
f 163 182 181
f 163 168 183
f 163 183 182
f 164 180 184
f 164 184 178
f 167 185 168
f 168 185 186
f 168 186 183
f 169 171 187
f 169 187 172
f 170 188 171
f 171 188 189
f 171 189 190
f 171 190 187
f 172 174 173
f 172 187 191
f 172 191 174
f 174 191 192
f 174 192 175
f 175 192 193
f 175 193 194
f 175 194 176
f 178 184 195
f 179 196 197
f 179 197 198
f 179 198 180
f 179 181 182
f 179 182 196
f 180 198 184
f 182 183 199
f 182 199 196
f 183 186 200
f 183 200 199
f 184 198 201
f 184 201 195
f 185 202 186
f 186 202 203
f 186 203 193
f 186 193 200
f 187 190 204
f 187 204 191
f 189 205 190
f 190 205 206
f 190 206 204
f 191 204 207
f 191 207 192
f 192 207 200
f 192 200 193
f 193 203 208
f 193 208 194
f 196 209 197
f 196 199 209
f 197 209 210
f 197 210 198
f 198 210 211
f 198 211 201
f 199 212 209
f 199 200 207
f 199 207 212
f 204 206 212
f 204 212 207
f 205 213 206
f 206 213 214
f 206 214 212
f 209 214 210
f 209 212 214
f 210 215 211
f 210 214 215
f 213 216 214
f 214 216 215

