# https://github.com/mikedh/trimesh
v -0.01810591 -0.00904748 -0.02768284
v -0.01582518 -0.01347293 -0.02768284
v -0.02060155 -0.00992338 -0.02931547
v -0.02097511 -0.00920256 -0.02931547
v -0.02105725 -0.00904748 -0.02931547
v -0.02713433 -0.00904748 -0.02768284
v -0.01880915 -0.01347293 -0.02931547
v -0.02532280 -0.01347293 -0.02768284
v -0.02731886 -0.00904748 -0.02931547
v -0.02688229 -0.00990692 -0.02768284
v -0.02553321 -0.01347293 -0.02931547
v -0.02577287 -0.01264468 -0.02768284
v -0.02713884 -0.00963791 -0.02931547
v -0.02678328 -0.01021969 -0.02768284
v -0.02562097 -0.01331005 -0.02931547
v -0.02623082 -0.01166654 -0.02768284
v -0.02596302 -0.01261912 -0.02931547
v -0.02695093 -0.01020539 -0.02931547
v -0.02671239 -0.01087943 -0.02931547
v -0.02644685 -0.01113458 -0.02768284
v -0.02639734 -0.01166957 -0.02931547
v -0.02632758 -0.01182768 -0.02931547
v -0.02612280 -0.01227343 -0.02931547
f 1 2 3
f 1 3 4
f 1 4 5
f 1 5 9
f 1 9 6
f 1 6 10
f 1 10 14
f 1 14 20
f 1 20 16
f 1 16 12
f 1 12 8
f 1 8 2
f 2 7 3
f 2 8 11
f 2 11 7
f 3 7 11
f 3 11 15
f 3 15 17
f 3 17 23
f 3 23 22
f 3 22 21
f 3 21 19
f 3 19 18
f 3 18 13
f 3 13 9
f 3 9 5
f 3 5 4
f 6 9 10
f 8 12 11
f 9 13 10
f 10 13 14
f 11 12 15
f 12 16 17
f 12 17 15
f 13 18 14
f 14 18 19
f 14 19 20
f 16 20 21
f 16 21 22
f 16 22 23
f 16 23 17
f 19 21 20

