# https://github.com/mikedh/trimesh
v 0.02911835 0.01716160 -0.00987380
v 0.02911835 0.01020984 -0.01093914
v 0.02911835 0.01716160 -0.02473922
v 0.01659270 0.01716160 -0.01252680
v 0.01659270 0.01020984 -0.01310486
v 0.02911835 0.01020984 -0.02546218
v 0.02911835 0.01695678 -0.02476788
v 0.02572423 0.01395655 -0.02614216
v 0.02524233 0.01470916 -0.02614216
v 0.02884368 0.01716160 -0.02480610
v 0.01659270 0.01716160 -0.02614216
v 0.01659270 0.01020984 -0.02614216
v 0.02724594 0.01020984 -0.02614216
v 0.02911835 0.01118293 -0.02538097
v 0.02911835 0.01678394 -0.02479177
v 0.02631526 0.01276844 -0.02614216
v 0.02441096 0.01578091 -0.02614216
v 0.02846969 0.01716160 -0.02489687
v 0.02333558 0.01716160 -0.02614216
v 0.02716624 0.01044733 -0.02614216
v 0.02911835 0.01538352 -0.02495579
v 0.02911835 0.01484526 -0.02501471
v 0.02911835 0.01398377 -0.02510548
v 0.02911835 0.01155855 -0.02534753
v 0.02676772 0.01162660 -0.02614216
v 0.02665982 0.01190355 -0.02614216
f 1 2 6
f 1 6 14
f 1 14 24
f 1 24 23
f 1 23 22
f 1 22 21
f 1 21 15
f 1 15 7
f 1 7 3
f 1 3 10
f 1 10 18
f 1 18 19
f 1 19 11
f 1 11 4
f 1 4 5
f 1 5 2
f 2 5 12
f 2 12 13
f 2 13 6
f 3 7 8
f 3 8 9
f 3 9 10
f 4 11 12
f 4 12 5
f 6 13 14
f 7 15 16
f 7 16 8
f 8 16 26
f 8 26 25
f 8 25 20
f 8 20 13
f 8 13 12
f 8 12 11
f 8 11 19
f 8 19 17
f 8 17 9
f 9 17 10
f 10 17 18
f 13 20 21
f 13 21 22
f 13 22 23
f 13 23 24
f 13 24 14
f 15 21 25
f 15 25 26
f 15 26 16
f 17 19 18
f 20 25 21

