# https://github.com/mikedh/trimesh
v 0.02333635 0.01716160 -0.02614216
v 0.02441061 0.01578091 -0.02614216
v 0.02207227 0.01690234 -0.02817959
v 0.02185429 0.01716160 -0.02817959
v 0.01659147 0.01716160 -0.02614216
v 0.02516885 0.01480375 -0.02614216
v 0.02524186 0.01470916 -0.02614216
v 0.02263965 0.01615382 -0.02817959
v 0.01659147 0.01716160 -0.02817959
v 0.01659147 0.01020984 -0.02614216
v 0.02509689 0.01259015 -0.02817959
v 0.02418846 0.01394294 -0.02817959
v 0.02324874 0.01533996 -0.02817959
v 0.02572371 0.01395655 -0.02614216
v 0.01659147 0.01396948 -0.02817959
v 0.02724644 0.01020984 -0.02614216
v 0.01659147 0.01020984 -0.02772029
v 0.02529713 0.01222814 -0.02817959
v 0.02586347 0.01367688 -0.02614216
v 0.01844170 0.01114822 -0.02817959
v 0.02620973 0.01020984 -0.02817959
v 0.02676772 0.01162660 -0.02614216
v 0.01880048 0.01067937 -0.02817959
v 0.01916761 0.01020984 -0.02817959
v 0.02631507 0.01276844 -0.02614216
v 0.02573310 0.01130609 -0.02817959
v 0.02666030 0.01190355 -0.02614216
f 1 2 3
f 1 3 4
f 1 4 9
f 1 9 5
f 1 5 10
f 1 10 16
f 1 16 22
f 1 22 27
f 1 27 25
f 1 25 19
f 1 19 14
f 1 14 7
f 1 7 6
f 1 6 2
f 2 6 3
f 3 6 7
f 3 7 8
f 3 8 13
f 3 13 12
f 3 12 11
f 3 11 18
f 3 18 26
f 3 26 21
f 3 21 24
f 3 24 23
f 3 23 20
f 3 20 15
f 3 15 9
f 3 9 4
f 5 9 15
f 5 15 17
f 5 17 10
f 7 11 12
f 7 12 13
f 7 13 8
f 7 14 11
f 10 17 24
f 10 24 21
f 10 21 16
f 11 14 18
f 14 19 18
f 15 20 17
f 16 21 22
f 17 20 23
f 17 23 24
f 18 19 25
f 18 25 26
f 21 26 25
f 21 25 27
f 21 27 22

