# https://github.com/mikedh/trimesh
v 0.02911713 0.01020984 -0.01093862
v 0.02911713 0.00002115 -0.01139129
v 0.02911713 0.01020984 -0.02546150
v 0.01659270 0.01020984 -0.01310363
v 0.01659270 0.00002115 -0.01333620
v 0.02911713 0.00002115 -0.02614519
v 0.02911713 0.00293435 -0.02612490
v 0.02883023 0.00139348 -0.02688507
v 0.02876279 0.00229107 -0.02688507
v 0.02868677 0.00304804 -0.02688507
v 0.02860708 0.00349684 -0.02688507
v 0.02845750 0.00422489 -0.02688507
v 0.02806760 0.00551343 -0.02688507
v 0.02764828 0.00689872 -0.02688507
v 0.02639768 0.01020984 -0.02688507
v 0.01659270 0.01020984 -0.02688507
v 0.01659270 0.00002115 -0.02688507
v 0.02879344 0.00002115 -0.02688507
v 0.02911713 0.00008399 -0.02615456
v 0.02911713 0.00139447 -0.02615924
v 0.02881429 0.00052480 -0.02688507
f 1 2 6
f 1 6 19
f 1 19 20
f 1 20 7
f 1 7 3
f 1 3 15
f 1 15 16
f 1 16 4
f 1 4 5
f 1 5 2
f 2 5 17
f 2 17 18
f 2 18 6
f 3 7 8
f 3 8 9
f 3 9 10
f 3 10 11
f 3 11 12
f 3 12 13
f 3 13 14
f 3 14 15
f 4 16 17
f 4 17 5
f 6 18 19
f 7 20 8
f 8 21 18
f 8 18 17
f 8 17 16
f 8 16 15
f 8 15 14
f 8 14 13
f 8 13 12
f 8 12 11
f 8 11 10
f 8 10 9
f 8 20 19
f 8 19 21
f 18 21 19

