# https://github.com/mikedh/trimesh
v 0.01882438 -0.02136127 -0.02909837
v 0.01882438 -0.02194196 -0.02909837
v 0.01882438 -0.02136127 -0.03350718
v 0.00943554 -0.02136127 -0.02909837
v 0.01821333 -0.02247372 -0.02909837
v 0.01882438 -0.02209608 -0.02971801
v 0.01880498 -0.02136127 -0.03352246
v 0.01882438 -0.02155118 -0.03332424
v 0.01790711 -0.02207928 -0.03356323
v 0.00990664 -0.02136127 -0.03116621
v 0.00466906 -0.02284624 -0.02909837
v 0.01838791 -0.02241163 -0.02947087
v 0.01743739 -0.02310846 -0.02909837
v 0.01737365 -0.02319173 -0.02924055
v 0.01780180 -0.02310627 -0.03053027
v 0.01882438 -0.02228892 -0.03071167
v 0.01849599 -0.02136127 -0.03373852
v 0.01882438 -0.02192078 -0.03296193
v 0.01854033 -0.02195146 -0.03316933
v 0.01678200 -0.02334293 -0.03324678
v 0.01694827 -0.02295069 -0.03348781
v 0.01703972 -0.02245326 -0.03380069
v 0.01836158 -0.02136127 -0.03381750
v 0.01008123 -0.02136127 -0.03180266
v 0.00466906 -0.02306098 -0.03122379
v 0.00466906 -0.02839385 -0.02909837
v 0.01708960 -0.02337799 -0.02909837
v 0.01686236 -0.02375854 -0.03019650
v 0.01684296 -0.02387176 -0.03101436
v 0.01768818 -0.02324870 -0.03130736
v 0.01882438 -0.02233274 -0.03136749
v 0.01882438 -0.02198871 -0.03289110
v 0.01760505 -0.02292950 -0.03293442
v 0.01610028 -0.02403318 -0.03288856
v 0.01528970 -0.02440059 -0.03311837
v 0.01582039 -0.02366432 -0.03356578
v 0.01744154 -0.02168631 -0.03396528
v 0.01809001 -0.02136127 -0.03389648
v 0.01580792 -0.02315302 -0.03383075
v 0.01639403 -0.02242259 -0.03396426
v 0.00466906 -0.02312964 -0.03186381
v 0.01033063 -0.02136127 -0.03246765
v 0.00466906 -0.02856331 -0.02970884
v 0.00573321 -0.02826529 -0.02925634
v 0.00552952 -0.02825288 -0.02909837
v 0.01659078 -0.02375197 -0.02909837
v 0.01624993 -0.02414640 -0.02992184
v 0.01574557 -0.02456859 -0.03074531
v 0.01604901 -0.02441082 -0.03135577
v 0.01642590 -0.02410477 -0.03202789
v 0.01790711 -0.02302300 -0.03203248
v 0.01855003 -0.02255991 -0.03171298
v 0.01882438 -0.02233567 -0.03153769
v 0.01882438 -0.02202231 -0.03283811
v 0.01828122 -0.02262053 -0.03257823
v 0.01529248 -0.02469787 -0.03258027
v 0.01650072 -0.02388856 -0.03256396
v 0.01391796 -0.02523255 -0.03306181
v 0.01457473 -0.02460584 -0.03338080
v 0.01302979 -0.02533116 -0.03344093
v 0.01472715 -0.02390317 -0.03377826
v 0.01740136 -0.02136127 -0.03405140
v 0.01772005 -0.02136127 -0.03399076
v 0.01662681 -0.02167682 -0.03410949
v 0.01697737 -0.02136127 -0.03412579
v 0.01400248 -0.02382355 -0.03398362
v 0.01426020 -0.02310262 -0.03415484
v 0.00466906 -0.02313110 -0.03187400
v 0.01064101 -0.02136127 -0.03299047
v 0.00466906 -0.02861809 -0.02991012
v 0.00546301 -0.02857134 -0.03021484
v 0.00675162 -0.02816815 -0.02959113
v 0.00680705 -0.02801257 -0.02909837
v 0.00596183 -0.02817472 -0.02909837
v 0.01645084 -0.02385204 -0.02909837
v 0.01524121 -0.02465332 -0.02909837
v 0.01515807 -0.02475996 -0.02945507
v 0.01469805 -0.02517192 -0.03058275
v 0.01532850 -0.02487318 -0.03148928
v 0.01484631 -0.02511568 -0.03195248
v 0.01882438 -0.02223852 -0.03233414
v 0.01882438 -0.02227942 -0.03212420
v 0.01882438 -0.02231302 -0.03190101
v 0.01882438 -0.02216036 -0.03258587
v 0.01347872 -0.02569345 -0.03252116
v 0.01270001 -0.02600754 -0.03280906
v 0.01215824 -0.02606378 -0.03312602
v 0.01148346 -0.02610249 -0.03341494
v 0.01090982 -0.02601776 -0.03369419
v 0.01218596 -0.02529317 -0.03374259
v 0.01042347 -0.02587752 -0.03390056
v 0.01261549 -0.02454375 -0.03399228
v 0.01665314 -0.02136127 -0.03416707
v 0.01190468 -0.02452257 -0.03412172
v 0.01346625 -0.02314717 -0.03423280
v 0.01627487 -0.02136127 -0.03421242
v 0.00466906 -0.02324724 -0.03245084
v 0.01130333 -0.02136127 -0.03344806
v 0.00466906 -0.02349778 -0.03300066
v 0.00466906 -0.02348317 -0.03296907
v 0.00466906 -0.02874957 -0.03048135
v 0.00466906 -0.02879412 -0.03082378
v 0.00507782 -0.02874884 -0.03104646
v 0.00638860 -0.02841138 -0.03041918
v 0.00760654 -0.02800672 -0.02981177
v 0.00792384 -0.02775034 -0.02909837
v 0.00763148 -0.02782338 -0.02909837
v 0.01499180 -0.02480379 -0.02909837
v 0.01412026 -0.02528295 -0.02909837
v 0.01396507 -0.02536768 -0.02909837
v 0.01378771 -0.02560069 -0.03011191
v 0.01365331 -0.02575042 -0.03086302
v 0.01451100 -0.02532093 -0.03130430
v 0.01320022 -0.02597467 -0.03195757
v 0.01192546 -0.02648962 -0.03255581
v 0.01095970 -0.02673650 -0.03297009
v 0.01015466 -0.02665762 -0.03335277
v 0.00922354 -0.02658458 -0.03368043
v 0.01106223 -0.02526907 -0.03402490
v 0.00788089 -0.02668756 -0.03388477
v 0.00960181 -0.02593303 -0.03401521
v 0.00976392 -0.02520918 -0.03418133
v 0.01266676 -0.02308582 -0.03427917
v 0.01546290 -0.02136127 -0.03426541
v 0.01583979 -0.02136127 -0.03424095
v 0.00816909 -0.02521356 -0.03426592
v 0.01225246 -0.02136127 -0.03388833
v 0.00466906 -0.02351093 -0.03301850
v 0.00466906 -0.02881019 -0.03104341
v 0.00540066 -0.02870355 -0.03170024
v 0.00600340 -0.02858595 -0.03138940
v 0.00660198 -0.02843329 -0.03110608
v 0.00466906 -0.02881750 -0.03125436
v 0.00466906 -0.02882334 -0.03168750
v 0.00724351 -0.02825142 -0.03078047
v 0.00789890 -0.02804763 -0.03049409
v 0.00865128 -0.02776057 -0.03009153
v 0.00889515 -0.02750638 -0.02925583
v 0.00852797 -0.02757577 -0.02909837
v 0.01389717 -0.02540201 -0.02909837
v 0.01296605 -0.02595641 -0.02970273
v 0.01257947 -0.02625077 -0.03061588
v 0.01288291 -0.02615873 -0.03128086
v 0.01224692 -0.02646624 -0.03155705
v 0.01157213 -0.02675403 -0.03186687
v 0.01015605 -0.02734787 -0.03183324
v 0.01042070 -0.02712728 -0.03245084
v 0.00956440 -0.02735153 -0.03272499
v 0.00782408 -0.02779928 -0.03288295
v 0.00628883 -0.02786210 -0.03336195
v 0.00692205 -0.02735664 -0.03361062
v 0.00636920 -0.02672920 -0.03403662
v 0.00494064 -0.02787451 -0.03365087
v 0.00466906 -0.02788620 -0.03367890
v 0.00466906 -0.02765319 -0.03379661
v 0.00466906 -0.02729236 -0.03397649
v 0.00762732 -0.02590966 -0.03419458
v 0.01278315 -0.02243865 -0.03430261
v 0.01505692 -0.02136127 -0.03428172
v 0.00647173 -0.02527053 -0.03430363
v 0.00668096 -0.02584611 -0.03423025
v 0.01262796 -0.02136127 -0.03399177
v 0.00466906 -0.02481328 -0.03408401
v 0.00466906 -0.02461680 -0.03394846
v 0.00466906 -0.02434508 -0.03373189
v 0.00466906 -0.02377169 -0.03325647
v 0.00554892 -0.02858157 -0.03239020
v 0.00679042 -0.02836390 -0.03176750
v 0.00474389 -0.02879559 -0.03196522
v 0.00849194 -0.02789935 -0.03175833
v 0.00822729 -0.02798627 -0.03111933
v 0.00466906 -0.02880873 -0.03194126
v 0.00982905 -0.02748300 -0.03118506
v 0.00943831 -0.02756043 -0.03055931
v 0.00981796 -0.02728944 -0.02967623
v 0.01003412 -0.02710099 -0.02909837
v 0.00920137 -0.02737417 -0.02909837
v 0.00893672 -0.02745744 -0.02909837
v 0.01321407 -0.02574458 -0.02909837
v 0.01201691 -0.02630774 -0.02909837
v 0.01163726 -0.02666492 -0.03038300
v 0.01124790 -0.02690816 -0.03122532
v 0.00917781 -0.02770505 -0.03145463
v 0.00895057 -0.02768679 -0.03240803
v 0.00653408 -0.02827771 -0.03264906
v 0.00603804 -0.02830474 -0.03290537
v 0.00520806 -0.02845155 -0.03301748
v 0.00470925 -0.02832592 -0.03330487
v 0.00469262 -0.02671532 -0.03416146
v 0.00466906 -0.02832738 -0.03330793
v 0.00466906 -0.02672263 -0.03416044
v 0.00466906 -0.02671313 -0.03416248
v 0.01467173 -0.02136127 -0.03427662
v 0.00499191 -0.02519457 -0.03426643
v 0.00466906 -0.02588190 -0.03424605
v 0.00466906 -0.02533700 -0.03426338
v 0.01371566 -0.02136127 -0.03422057
v 0.00466906 -0.02520844 -0.03425624
v 0.00466906 -0.02875760 -0.03232395
v 0.00466906 -0.02863781 -0.03273110
v 0.00708001 -0.02819225 -0.03235402
v 0.00466906 -0.02880362 -0.03200547
v 0.01051215 -0.02719010 -0.03075804
v 0.01069782 -0.02701699 -0.03004465
v 0.01094168 -0.02676791 -0.02909837
v 0.01081005 -0.02681758 -0.02909837
v 0.01192546 -0.02634792 -0.02909837
v 0.00466906 -0.02860056 -0.03285238
v 0.00466906 -0.02838581 -0.03321111
v 0.01385561 -0.02136127 -0.03423433
f 1 2 6
f 1 6 16
f 1 16 31
f 1 31 53
f 1 53 83
f 1 83 82
f 1 82 81
f 1 81 84
f 1 84 54
f 1 54 32
f 1 32 18
f 1 18 8
f 1 8 3
f 1 3 7
f 1 7 17
f 1 17 23
f 1 23 38
f 1 38 63
f 1 63 62
f 1 62 65
f 1 65 93
f 1 93 96
f 1 96 125
f 1 125 124
f 1 124 159
f 1 159 193
f 1 193 210
f 1 210 197
f 1 197 162
f 1 162 127
f 1 127 98
f 1 98 69
f 1 69 42
f 1 42 24
f 1 24 10
f 1 10 4
f 1 4 11
f 1 11 26
f 1 26 45
f 1 45 74
f 1 74 73
f 1 73 107
f 1 107 106
f 1 106 139
f 1 139 178
f 1 178 177
f 1 177 176
f 1 176 206
f 1 206 205
f 1 205 207
f 1 207 180
f 1 180 179
f 1 179 140
f 1 140 110
f 1 110 109
f 1 109 108
f 1 108 76
f 1 76 75
f 1 75 46
f 1 46 27
f 1 27 13
f 1 13 5
f 1 5 2
f 2 5 6
f 3 8 9
f 3 9 7
f 4 10 11
f 5 12 6
f 5 13 14
f 5 14 12
f 6 12 15
f 6 15 16
f 7 9 17
f 8 18 19
f 8 19 9
f 9 20 21
f 9 21 22
f 9 22 23
f 9 23 17
f 9 19 20
f 10 24 11
f 11 25 41
f 11 41 68
f 11 68 97
f 11 97 100
f 11 100 99
f 11 99 128
f 11 128 166
f 11 166 165
f 11 165 164
f 11 164 163
f 11 163 198
f 11 198 196
f 11 196 195
f 11 195 192
f 11 192 191
f 11 191 156
f 11 156 155
f 11 155 154
f 11 154 190
f 11 190 209
f 11 209 208
f 11 208 200
f 11 200 199
f 11 199 202
f 11 202 172
f 11 172 134
f 11 134 133
f 11 133 129
f 11 129 102
f 11 102 101
f 11 101 70
f 11 70 43
f 11 43 26
f 11 24 25
f 12 14 15
f 13 27 14
f 14 27 28
f 14 28 15
f 15 28 29
f 15 29 30
f 15 30 31
f 15 31 16
f 18 32 20
f 18 20 19
f 20 32 33
f 20 33 34
f 20 34 35
f 20 35 36
f 20 36 21
f 21 36 22
f 22 37 38
f 22 38 23
f 22 36 39
f 22 39 40
f 22 40 37
f 24 41 25
f 24 42 41
f 26 43 44
f 26 44 45
f 27 46 28
f 28 46 47
f 28 47 29
f 29 47 48
f 29 48 49
f 29 49 50
f 29 50 30
f 30 51 52
f 30 52 53
f 30 53 31
f 30 50 51
f 32 54 55
f 32 55 33
f 33 55 34
f 34 56 35
f 34 55 57
f 34 57 56
f 35 56 58
f 35 58 59
f 35 59 36
f 36 59 60
f 36 60 61
f 36 61 39
f 37 62 63
f 37 63 38
f 37 40 64
f 37 64 65
f 37 65 62
f 39 61 66
f 39 66 40
f 40 66 67
f 40 67 64
f 41 42 68
f 42 69 68
f 43 70 71
f 43 71 44
f 44 71 72
f 44 72 73
f 44 73 74
f 44 74 45
f 46 75 47
f 47 75 76
f 47 76 77
f 47 77 48
f 48 77 78
f 48 78 79
f 48 79 49
f 49 79 50
f 50 79 80
f 50 80 56
f 50 56 57
f 50 57 55
f 50 55 51
f 51 55 81
f 51 81 82
f 51 82 52
f 52 82 83
f 52 83 53
f 54 84 55
f 55 84 81
f 56 80 85
f 56 85 86
f 56 86 58
f 58 86 87
f 58 87 59
f 59 87 60
f 60 87 88
f 60 88 89
f 60 89 90
f 60 90 61
f 61 90 91
f 61 91 92
f 61 92 66
f 64 67 65
f 65 67 93
f 66 92 94
f 66 94 67
f 67 94 95
f 67 95 96
f 67 96 93
f 68 69 97
f 69 98 99
f 69 99 100
f 69 100 97
f 70 101 71
f 71 101 102
f 71 102 103
f 71 103 104
f 71 104 72
f 72 104 105
f 72 105 106
f 72 106 107
f 72 107 73
f 76 108 77
f 77 108 78
f 78 108 109
f 78 109 110
f 78 110 111
f 78 111 112
f 78 112 113
f 78 113 79
f 79 113 80
f 80 113 114
f 80 114 85
f 85 114 115
f 85 115 86
f 86 115 116
f 86 116 87
f 87 116 88
f 88 116 117
f 88 117 89
f 89 117 118
f 89 118 91
f 89 91 90
f 91 119 92
f 91 118 120
f 91 120 121
f 91 121 119
f 92 119 94
f 94 119 122
f 94 122 95
f 95 123 124
f 95 124 125
f 95 125 96
f 95 122 126
f 95 126 123
f 98 127 128
f 98 128 99
f 102 129 103
f 103 130 131
f 103 131 132
f 103 132 104
f 103 129 133
f 103 133 134
f 103 134 130
f 104 132 135
f 104 135 136
f 104 136 105
f 105 136 137
f 105 137 138
f 105 138 106
f 106 138 139
f 110 140 111
f 111 140 141
f 111 141 142
f 111 142 112
f 112 142 143
f 112 143 113
f 113 143 114
f 114 143 144
f 114 144 145
f 114 145 115
f 115 145 146
f 115 146 147
f 115 147 116
f 116 147 148
f 116 148 149
f 116 149 117
f 117 149 150
f 117 150 118
f 118 150 151
f 118 151 120
f 119 121 122
f 120 152 121
f 120 151 153
f 120 153 154
f 120 154 155
f 120 155 156
f 120 156 152
f 121 152 157
f 121 157 122
f 122 157 126
f 123 158 159
f 123 159 124
f 123 126 160
f 123 160 158
f 126 157 161
f 126 161 160
f 127 162 163
f 127 163 164
f 127 164 165
f 127 165 166
f 127 166 128
f 130 167 168
f 130 168 131
f 130 134 169
f 130 169 167
f 131 168 132
f 132 168 170
f 132 170 171
f 132 171 135
f 134 172 169
f 135 171 136
f 136 171 173
f 136 173 174
f 136 174 137
f 137 174 175
f 137 175 176
f 137 176 177
f 137 177 138
f 138 177 178
f 138 178 139
f 140 179 141
f 141 179 180
f 141 180 181
f 141 181 142
f 142 181 182
f 142 182 143
f 143 182 144
f 144 182 145
f 145 182 146
f 146 182 173
f 146 173 183
f 146 183 184
f 146 184 147
f 147 184 148
f 148 184 149
f 149 184 185
f 149 185 186
f 149 186 150
f 150 186 187
f 150 187 188
f 150 188 153
f 150 153 151
f 152 156 189
f 152 189 157
f 153 188 154
f 154 188 190
f 156 191 189
f 157 189 192
f 157 192 161
f 158 193 159
f 158 160 194
f 158 194 193
f 160 161 192
f 160 192 195
f 160 195 196
f 160 196 194
f 162 197 163
f 163 197 198
f 167 169 199
f 167 199 200
f 167 200 187
f 167 187 186
f 167 186 185
f 167 185 201
f 167 201 168
f 168 201 184
f 168 184 170
f 169 172 202
f 169 202 199
f 170 184 183
f 170 183 171
f 171 183 173
f 173 182 203
f 173 203 174
f 174 203 204
f 174 204 175
f 175 204 205
f 175 205 206
f 175 206 176
f 180 207 181
f 181 207 204
f 181 204 203
f 181 203 182
f 184 201 185
f 187 200 208
f 187 208 209
f 187 209 188
f 188 209 190
f 189 191 192
f 193 194 198
f 193 198 210
f 194 196 198
f 197 210 198
f 204 207 205

