# https://github.com/mikedh/trimesh
v 0.00466906 -0.02284599 -0.02909888
v 0.00466906 -0.02306089 -0.03122407
v -0.00016746 -0.02345831 -0.03159797
v -0.00016746 -0.02328888 -0.02909888
v 0.00466906 -0.02839362 -0.02909888
v 0.00466906 -0.02313004 -0.03186381
v 0.00466906 -0.02313128 -0.03187395
v -0.00016746 -0.02353430 -0.03219255
v -0.00016746 -0.02889755 -0.02909888
v 0.00361001 -0.02858485 -0.02909888
v 0.00466906 -0.02840296 -0.02913186
v 0.00466906 -0.02324714 -0.03245078
v -0.00016746 -0.02368941 -0.03271865
v -0.00016746 -0.02889880 -0.02910497
v 0.00055877 -0.02890440 -0.02909888
v 0.00466906 -0.02861849 -0.02991010
v 0.00466906 -0.02856367 -0.02970869
v 0.00271760 -0.02872874 -0.02909888
v 0.00354609 -0.02867330 -0.02938857
v 0.00466906 -0.02348323 -0.03296927
v -0.00016746 -0.02384887 -0.03310168
v -0.00016746 -0.02901964 -0.02974877
v 0.00034526 -0.02897791 -0.02947633
v 0.00125708 -0.02888198 -0.02909888
v 0.00143366 -0.02893929 -0.02945401
v 0.00466906 -0.02874992 -0.03048134
v 0.00245295 -0.02876612 -0.02909888
v 0.00427991 -0.02883713 -0.03061173
v 0.00466906 -0.02349755 -0.03300072
v 0.00163440 -0.02412171 -0.03352885
v -0.00016746 -0.02411984 -0.03339542
v 0.00466906 -0.02351063 -0.03301848
v -0.00016746 -0.02908567 -0.03015361
v 0.00011991 -0.02910436 -0.03026421
v 0.00112736 -0.02912180 -0.03050113
v 0.00215375 -0.02879726 -0.02909888
v 0.00213386 -0.02900968 -0.03014600
v 0.00466906 -0.02879415 -0.03082379
v 0.00236205 -0.02877671 -0.02909888
v 0.00311102 -0.02892060 -0.03026066
v 0.00356550 -0.02897666 -0.03103484
v 0.00287478 -0.02407250 -0.03351617
v 0.00466906 -0.02461692 -0.03394841
v 0.00466906 -0.02481314 -0.03408437
v 0.00117991 -0.02459200 -0.03381904
v -0.00016746 -0.02464308 -0.03378961
v -0.00016746 -0.02441883 -0.03363031
v 0.00005931 -0.02418275 -0.03347406
v -0.00016746 -0.02420518 -0.03347101
v 0.00466906 -0.02377163 -0.03325642
v -0.00016746 -0.02917412 -0.03090090
v 0.00037792 -0.02919219 -0.03093134
v 0.00190188 -0.02911619 -0.03091714
v 0.00466906 -0.02881034 -0.03104346
v 0.00287951 -0.02906325 -0.03129611
v 0.00384577 -0.02895735 -0.03167356
v 0.00466906 -0.02434471 -0.03373178
v 0.00466906 -0.02520868 -0.03425585
v -0.00016746 -0.02517442 -0.03412445
v -0.00016746 -0.02920465 -0.03116877
v -0.00016746 -0.02920714 -0.03124385
v 0.00067192 -0.02920963 -0.03157159
v 0.00224322 -0.02911993 -0.03160507
v 0.00466906 -0.02881782 -0.03125451
v 0.00263096 -0.02905702 -0.03224227
v 0.00415397 -0.02886018 -0.03228539
v 0.00466906 -0.02880910 -0.03194143
v 0.00466906 -0.02882280 -0.03168777
v 0.00466906 -0.02533763 -0.03426346
v -0.00016746 -0.02579796 -0.03428121
v -0.00016746 -0.02559987 -0.03423505
v -0.00016746 -0.02920527 -0.03154571
v -0.00016746 -0.02918471 -0.03196527
v -0.00016746 -0.02916478 -0.03216161
v 0.00096829 -0.02914173 -0.03218799
v 0.00156812 -0.02893430 -0.03276786
v 0.00330701 -0.02888883 -0.03257254
v 0.00449389 -0.02864901 -0.03279881
v 0.00466906 -0.02875740 -0.03232395
v 0.00466906 -0.02880349 -0.03200535
v 0.00466906 -0.02588267 -0.03424621
v 0.00343295 -0.02658282 -0.03422744
v -0.00016746 -0.02625829 -0.03426346
v -0.00016746 -0.02911744 -0.03233004
v 0.00018334 -0.02906885 -0.03248680
v 0.00179915 -0.02874307 -0.03305754
v -0.00016746 -0.02903833 -0.03254464
v -0.00016746 -0.02847646 -0.03337411
v 0.00466906 -0.02838614 -0.03321076
v 0.00466906 -0.02860042 -0.03285258
v 0.00466906 -0.02863780 -0.03273082
v 0.00466906 -0.02671301 -0.03416250
v 0.00288803 -0.02729294 -0.03408995
v 0.00206806 -0.02668062 -0.03422287
v -0.00016746 -0.02655541 -0.03424671
v 0.00045178 -0.02652302 -0.03424722
v 0.00074151 -0.02846151 -0.03341064
v 0.00239425 -0.02835251 -0.03348624
v 0.00364031 -0.02835188 -0.03339745
v 0.00466906 -0.02832697 -0.03330816
v -0.00016746 -0.02810147 -0.03376476
v 0.00466906 -0.02672235 -0.03416047
v 0.00435423 -0.02739696 -0.03396566
v 0.00335152 -0.02794014 -0.03381599
v 0.00177406 -0.02797315 -0.03387840
v 0.00148953 -0.02747109 -0.03403567
v 0.00013790 -0.02716462 -0.03412546
v -0.00016746 -0.02704377 -0.03415184
v 0.00018713 -0.02807220 -0.03379367
v 0.00466906 -0.02788595 -0.03367902
v -0.00016746 -0.02802735 -0.03381549
v 0.00466906 -0.02676035 -0.03414829
v 0.00466906 -0.02729231 -0.03397682
v 0.00466906 -0.02765360 -0.03379672
v -0.00016746 -0.02788221 -0.03387789
v -0.00016746 -0.02768911 -0.03395957
v -0.00016746 -0.02745365 -0.03403313
f 1 2 3
f 1 3 4
f 1 4 9
f 1 9 15
f 1 15 24
f 1 24 36
f 1 36 39
f 1 39 27
f 1 27 18
f 1 18 10
f 1 10 5
f 1 5 11
f 1 11 17
f 1 17 16
f 1 16 26
f 1 26 38
f 1 38 54
f 1 54 64
f 1 64 68
f 1 68 67
f 1 67 80
f 1 80 79
f 1 79 91
f 1 91 90
f 1 90 89
f 1 89 100
f 1 100 110
f 1 110 114
f 1 114 113
f 1 113 112
f 1 112 102
f 1 102 92
f 1 92 81
f 1 81 69
f 1 69 58
f 1 58 44
f 1 44 43
f 1 43 57
f 1 57 50
f 1 50 32
f 1 32 29
f 1 29 20
f 1 20 12
f 1 12 7
f 1 7 6
f 1 6 2
f 2 6 3
f 3 6 7
f 3 7 8
f 3 8 13
f 3 13 21
f 3 21 31
f 3 31 49
f 3 49 47
f 3 47 46
f 3 46 59
f 3 59 71
f 3 71 70
f 3 70 83
f 3 83 95
f 3 95 108
f 3 108 117
f 3 117 116
f 3 116 115
f 3 115 111
f 3 111 101
f 3 101 88
f 3 88 87
f 3 87 84
f 3 84 74
f 3 74 73
f 3 73 72
f 3 72 61
f 3 61 60
f 3 60 51
f 3 51 33
f 3 33 22
f 3 22 14
f 3 14 9
f 3 9 4
f 5 10 11
f 7 12 8
f 8 12 13
f 9 14 15
f 10 16 17
f 10 17 11
f 10 18 19
f 10 19 16
f 12 20 21
f 12 21 13
f 14 22 23
f 14 23 15
f 15 23 25
f 15 25 24
f 16 19 26
f 18 27 28
f 18 28 19
f 19 28 26
f 20 29 21
f 21 30 31
f 21 29 32
f 21 32 30
f 22 33 23
f 23 33 34
f 23 34 35
f 23 35 25
f 24 25 36
f 25 35 37
f 25 37 36
f 26 28 38
f 27 39 40
f 27 40 28
f 28 40 41
f 28 41 38
f 30 32 42
f 30 42 43
f 30 43 44
f 30 44 45
f 30 45 46
f 30 46 47
f 30 47 48
f 30 48 31
f 31 48 49
f 32 50 42
f 33 51 52
f 33 52 34
f 34 52 35
f 35 52 53
f 35 53 37
f 36 37 39
f 37 41 40
f 37 40 39
f 37 53 41
f 38 41 54
f 41 53 55
f 41 55 56
f 41 56 54
f 42 50 57
f 42 57 43
f 44 58 59
f 44 59 45
f 45 59 46
f 47 49 48
f 51 60 52
f 52 60 61
f 52 61 62
f 52 62 53
f 53 62 63
f 53 63 55
f 54 56 64
f 55 63 56
f 56 63 65
f 56 65 66
f 56 66 67
f 56 67 68
f 56 68 64
f 58 69 70
f 58 70 71
f 58 71 59
f 61 72 62
f 62 73 74
f 62 74 75
f 62 75 65
f 62 65 63
f 62 72 73
f 65 76 77
f 65 77 66
f 65 75 76
f 66 77 78
f 66 78 79
f 66 79 80
f 66 80 67
f 69 81 70
f 70 81 82
f 70 82 83
f 74 84 85
f 74 85 75
f 75 85 76
f 76 86 78
f 76 78 77
f 76 85 87
f 76 87 88
f 76 88 86
f 78 89 90
f 78 90 91
f 78 91 79
f 78 86 89
f 81 92 82
f 82 92 93
f 82 93 94
f 82 94 95
f 82 95 96
f 82 96 83
f 83 96 95
f 84 87 85
f 86 97 98
f 86 98 99
f 86 99 100
f 86 100 89
f 86 88 97
f 88 101 97
f 92 102 93
f 93 102 103
f 93 103 104
f 93 104 105
f 93 105 106
f 93 106 107
f 93 107 94
f 94 107 108
f 94 108 95
f 97 101 109
f 97 109 105
f 97 105 98
f 98 105 104
f 98 104 99
f 99 104 100
f 100 104 110
f 101 111 109
f 102 112 103
f 103 112 113
f 103 113 114
f 103 114 104
f 104 114 110
f 105 109 111
f 105 111 115
f 105 115 116
f 105 116 106
f 106 116 107
f 107 116 117
f 107 117 108

