# https://github.com/mikedh/trimesh
v 0.03673141 0.00760972 -0.02346250
v 0.03673141 0.00838486 -0.02341026
v 0.03700255 0.00838486 -0.02331658
v 0.03702454 0.00760972 -0.02335802
v 0.03673141 0.00760972 -0.00804820
v 0.03673141 0.00978461 -0.02329137
v 0.03695492 0.00978461 -0.02321030
v 0.03830878 0.00838486 -0.02280139
v 0.03833077 0.00760972 -0.02285003
v 0.03673141 0.01716107 -0.00579109
v 0.04108063 0.00760972 -0.00505973
v 0.03673141 0.01118435 -0.02314906
v 0.03689630 0.01118435 -0.02308781
v 0.03825565 0.00978461 -0.02269151
v 0.03958936 0.00838486 -0.02223757
v 0.03961318 0.00760972 -0.02228800
v 0.03795154 0.01716107 -0.00505973
v 0.03673141 0.01716107 -0.02224477
v 0.05544550 0.00760972 -0.00505973
v 0.03673141 0.01168272 -0.02309141
v 0.03687431 0.01168272 -0.02303918
v 0.03819337 0.01118435 -0.02255641
v 0.03953257 0.00978461 -0.02211507
v 0.04083697 0.00838486 -0.02159988
v 0.04086628 0.00760972 -0.02166293
v 0.04030935 0.00760972 -0.02194575
v 0.05326356 0.01716107 -0.00505973
v 0.03673141 0.01678332 -0.02232223
v 0.03747155 0.01716107 -0.02190251
v 0.03784345 0.01678332 -0.02180884
v 0.05541801 0.00760972 -0.00514079
v 0.05543634 0.00769013 -0.00505973
v 0.03673141 0.01258409 -0.02298693
v 0.03683034 0.01258409 -0.02295091
v 0.03946662 0.01118435 -0.02197096
v 0.03816772 0.01168272 -0.02250237
v 0.04071056 0.01118528 -0.02132788
v 0.04077468 0.00978367 -0.02146838
v 0.04205526 0.00838486 -0.02089735
v 0.04208641 0.00760972 -0.02096580
v 0.04154230 0.00760972 -0.02127744
v 0.05336066 0.01686466 -0.00505973
v 0.05328921 0.01690393 -0.00522726
v 0.05325440 0.01716107 -0.00508495
v 0.03794971 0.01538357 -0.02203581
v 0.03673141 0.01538357 -0.02258343
v 0.03781048 0.01716107 -0.02173859
v 0.03872465 0.01716107 -0.02127384
v 0.03909289 0.01678425 -0.02117296
v 0.03920464 0.01538451 -0.02141254
v 0.05516336 0.00760972 -0.00583072
v 0.05496734 0.00856813 -0.00597122
v 0.05531725 0.00846247 -0.00505973
v 0.03673141 0.01398290 -0.02280139
v 0.03675890 0.01398290 -0.02279059
v 0.03812192 0.01258409 -0.02240329
v 0.03943914 0.01168272 -0.02191332
v 0.04024156 0.01168272 -0.02149901
v 0.04068308 0.01168272 -0.02127023
v 0.04192519 0.01118528 -0.02061994
v 0.04199114 0.00978461 -0.02076045
v 0.04325340 0.00838580 -0.02015699
v 0.04262136 0.00760972 -0.02063435
v 0.05354019 0.01538451 -0.00578028
v 0.05376553 0.01548362 -0.00505973
v 0.05304371 0.01607643 -0.00652785
v 0.05259487 0.01677957 -0.00709528
v 0.05310051 0.01716107 -0.00549206
v 0.03804131 0.01398383 -0.02223396
v 0.03930357 0.01398477 -0.02162690
v 0.03673141 0.01442423 -0.02273474
v 0.03905991 0.01716107 -0.02110090
v 0.04032034 0.01678332 -0.02049204
v 0.04043576 0.01538357 -0.02074423
v 0.04054018 0.01398290 -0.02096580
v 0.05496367 0.00760972 -0.00634050
v 0.05480246 0.00790987 -0.00664133
v 0.05488306 0.00951719 -0.00574245
v 0.05511939 0.00959105 -0.00505973
v 0.05516153 0.00935169 -0.00505973
v 0.05443972 0.00950410 -0.00686650
v 0.03938784 0.01258409 -0.02180884
v 0.04063362 0.01258409 -0.02116215
v 0.04189771 0.01168272 -0.02056229
v 0.04311967 0.01118528 -0.01987237
v 0.04318928 0.00978554 -0.02001648
v 0.04436544 0.00978461 -0.01923108
v 0.04443139 0.00838486 -0.01936979
v 0.04381034 0.00760972 -0.01987237
v 0.04328455 0.00760972 -0.02022184
v 0.05363729 0.01396326 -0.00652424
v 0.05417224 0.01403526 -0.00505973
v 0.05290998 0.01510680 -0.00752580
v 0.05252709 0.01716107 -0.00694757
v 0.05175947 0.01704512 -0.00867868
v 0.05173932 0.01716107 -0.00864265
v 0.05225778 0.01716107 -0.00754742
v 0.03995577 0.01716107 -0.02060373
v 0.04028553 0.01716107 -0.02041819
v 0.04116674 0.01716107 -0.01989039
v 0.04152764 0.01678332 -0.01976789
v 0.04164672 0.01538451 -0.02002549
v 0.04175298 0.01398383 -0.02025066
v 0.04184458 0.01258222 -0.02045421
v 0.05481345 0.00760972 -0.00670438
v 0.05435361 0.00760972 -0.00771134
v 0.05424186 0.00855971 -0.00767892
v 0.05452949 0.01080566 -0.00603427
v 0.05485375 0.01098425 -0.00505973
v 0.05386263 0.01008569 -0.00795633
v 0.05423087 0.01087859 -0.00674581
v 0.04303539 0.01258409 -0.01969404
v 0.04429033 0.01118435 -0.01907076
v 0.04551961 0.00978367 -0.01839705
v 0.04446070 0.00760972 -0.01943284
v 0.04558556 0.00838486 -0.01853396
v 0.04561854 0.00760972 -0.01860241
v 0.04510191 0.00760972 -0.01897529
v 0.05346325 0.01352099 -0.00723398
v 0.05458994 0.01229142 -0.00505973
v 0.05401469 0.01238680 -0.00651164
v 0.05297959 0.01380431 -0.00815448
v 0.05202511 0.01538170 -0.00917225
v 0.05151581 0.01607643 -0.00968564
v 0.05166604 0.01716107 -0.00877595
v 0.04149283 0.01716107 -0.01969224
v 0.04270746 0.01678332 -0.01898610
v 0.04283204 0.01538357 -0.01925270
v 0.04294196 0.01398477 -0.01948868
v 0.05358783 0.00760972 -0.00925692
v 0.05349806 0.00870558 -0.00914884
v 0.05352554 0.00995946 -0.00869669
v 0.05411728 0.01168272 -0.00662152
v 0.05369958 0.01177809 -0.00758705
v 0.05375637 0.01168272 -0.00749698
v 0.05326906 0.01096274 -0.00882819
v 0.04420422 0.01258315 -0.01888882
v 0.04500298 0.01168272 -0.01846550
v 0.04544450 0.01118435 -0.01822953
v 0.04664264 0.00978461 -0.01749457
v 0.04671226 0.00838486 -0.01764408
v 0.04674340 0.00760972 -0.01771434
v 0.05311150 0.01282252 -0.00835443
v 0.05229625 0.01384732 -0.00945867
v 0.05113658 0.01527417 -0.01073944
v 0.05097720 0.01678893 -0.01020624
v 0.05095888 0.01716107 -0.01001709
v 0.04235388 0.01716107 -0.01911940
v 0.04351172 0.01716107 -0.01829257
v 0.04385980 0.01678332 -0.01814486
v 0.04398988 0.01538451 -0.01842407
v 0.04266899 0.01716107 -0.01890684
v 0.04410712 0.01398477 -0.01867266
v 0.05278540 0.00760972 -0.01071422
v 0.05271578 0.00838486 -0.01065838
v 0.05261136 0.00978367 -0.01043141
v 0.05255274 0.01106373 -0.01011977
v 0.05320860 0.01168272 -0.00864625
v 0.05286784 0.01168272 -0.00929835
v 0.04535473 0.01258502 -0.01803498
v 0.04613151 0.01168272 -0.01757743
v 0.04656203 0.01118435 -0.01732344
v 0.04773452 0.00978461 -0.01652543
v 0.04780597 0.00838486 -0.01668035
v 0.04784261 0.00760972 -0.01675781
v 0.05236220 0.01258409 -0.00988740
v 0.05133444 0.01398290 -0.01100064
v 0.05026821 0.01538170 -0.01202922
v 0.05008500 0.01676181 -0.01164013
v 0.05027370 0.01716107 -0.01112313
v 0.05068224 0.01716107 -0.01047284
v 0.04382133 0.01716107 -0.01806020
v 0.04499199 0.01678612 -0.01725138
v 0.04512756 0.01538451 -0.01754681
v 0.04524664 0.01398477 -0.01780440
v 0.05184924 0.00760972 -0.01221836
v 0.05174665 0.00860647 -0.01216432
v 0.05179794 0.00946295 -0.01185989
v 0.05247579 0.01168272 -0.01002610
v 0.05161840 0.01118528 -0.01160230
v 0.05157444 0.01168272 -0.01150142
v 0.04646860 0.01258409 -0.01712168
v 0.04652906 0.01168272 -0.01725318
v 0.04765025 0.01118435 -0.01634890
v 0.04879709 0.00978554 -0.01548604
v 0.04887221 0.00838580 -0.01564997
v 0.04843436 0.00760972 -0.01619038
v 0.05148833 0.01260653 -0.01130687
v 0.05048622 0.01409416 -0.01223638
v 0.04926975 0.01533869 -0.01338565
v 0.04915251 0.01678238 -0.01295152
v 0.04976623 0.01716107 -0.01189592
v 0.05002638 0.01716107 -0.01151403
v 0.04464940 0.01716107 -0.01740630
v 0.04494802 0.01716107 -0.01716312
v 0.04608571 0.01678332 -0.01629486
v 0.04623044 0.01538357 -0.01661370
v 0.04635684 0.01398290 -0.01688751
v 0.05095338 0.00760972 -0.01344149
v 0.05089476 0.00838486 -0.01337124
v 0.05099369 0.00977806 -0.01292090
v 0.05069140 0.01118435 -0.01293711
v 0.05064744 0.01168272 -0.01284164
v 0.05056866 0.01258409 -0.01266690
v 0.04755132 0.01258315 -0.01613454
v 0.04761727 0.01168272 -0.01627324
v 0.04723072 0.01168272 -0.01662451
v 0.04870183 0.01118435 -0.01528789
v 0.04981570 0.00978367 -0.01436739
v 0.04990547 0.00838580 -0.01454753
v 0.04890885 0.00760972 -0.01572743
v 0.04994394 0.00760972 -0.01463580
v 0.04946761 0.01398477 -0.01361622
v 0.04838306 0.01716107 -0.01374412
v 0.04832810 0.01538357 -0.01448448
v 0.04811192 0.01671880 -0.01425211
v 0.04884656 0.01716107 -0.01317489
v 0.04909938 0.01716107 -0.01283984
v 0.04605273 0.01716107 -0.01619218
v 0.04715561 0.01678332 -0.01528249
v 0.04730217 0.01538077 -0.01560493
v 0.04743590 0.01398290 -0.01588775
v 0.05050820 0.00760972 -0.01397290
v 0.04973692 0.01116191 -0.01413322
v 0.04968563 0.01168272 -0.01404855
v 0.04959586 0.01258315 -0.01389904
v 0.04859374 0.01258502 -0.01505192
v 0.04829329 0.01168272 -0.01559052
v 0.04866336 0.01168272 -0.01520503
v 0.04845267 0.01401749 -0.01479612
v 0.04807711 0.01716107 -0.01410800
v 0.04777116 0.01716107 -0.01445206
v 0.04710980 0.01716107 -0.01518522
v 0.04683500 0.01716107 -0.01545182
f 1 2 3
f 1 3 4
f 1 4 9
f 1 9 16
f 1 16 26
f 1 26 25
f 1 25 41
f 1 41 40
f 1 40 63
f 1 63 90
f 1 90 89
f 1 89 115
f 1 115 118
f 1 118 117
f 1 117 142
f 1 142 165
f 1 165 187
f 1 187 211
f 1 211 212
f 1 212 223
f 1 223 199
f 1 199 176
f 1 176 154
f 1 154 130
f 1 130 106
f 1 106 105
f 1 105 76
f 1 76 51
f 1 51 31
f 1 31 19
f 1 19 11
f 1 11 5
f 1 5 10
f 1 10 18
f 1 18 28
f 1 28 46
f 1 46 71
f 1 71 54
f 1 54 33
f 1 33 20
f 1 20 12
f 1 12 6
f 1 6 2
f 2 6 3
f 3 6 7
f 3 7 8
f 3 8 9
f 3 9 4
f 5 11 10
f 6 12 7
f 7 12 13
f 7 13 14
f 7 14 8
f 8 14 15
f 8 15 16
f 8 16 9
f 10 11 17
f 10 17 27
f 10 27 44
f 10 44 68
f 10 68 94
f 10 94 97
f 10 97 96
f 10 96 125
f 10 125 147
f 10 147 171
f 10 171 170
f 10 170 193
f 10 193 192
f 10 192 218
f 10 218 217
f 10 217 214
f 10 214 231
f 10 231 232
f 10 232 233
f 10 233 234
f 10 234 219
f 10 219 195
f 10 195 194
f 10 194 172
f 10 172 149
f 10 149 152
f 10 152 148
f 10 148 126
f 10 126 100
f 10 100 99
f 10 99 98
f 10 98 72
f 10 72 48
f 10 48 47
f 10 47 29
f 10 29 18
f 11 19 32
f 11 32 53
f 11 53 80
f 11 80 79
f 11 79 109
f 11 109 120
f 11 120 92
f 11 92 65
f 11 65 42
f 11 42 27
f 11 27 17
f 12 20 21
f 12 21 13
f 13 21 22
f 13 22 14
f 14 22 23
f 14 23 15
f 15 23 24
f 15 24 25
f 15 25 26
f 15 26 16
f 18 29 30
f 18 30 28
f 19 31 32
f 20 33 34
f 20 34 21
f 21 34 22
f 22 35 23
f 22 34 36
f 22 36 35
f 23 35 37
f 23 37 38
f 23 38 24
f 24 38 39
f 24 39 40
f 24 40 41
f 24 41 25
f 27 42 43
f 27 43 44
f 28 30 45
f 28 45 46
f 29 47 30
f 30 47 48
f 30 48 49
f 30 49 50
f 30 50 45
f 31 51 32
f 32 51 52
f 32 52 53
f 33 54 34
f 34 55 56
f 34 56 36
f 34 54 55
f 35 36 56
f 35 56 57
f 35 57 58
f 35 58 37
f 37 58 59
f 37 59 84
f 37 84 60
f 37 60 61
f 37 61 38
f 38 61 39
f 39 61 62
f 39 62 40
f 40 62 63
f 42 64 43
f 42 65 64
f 43 64 66
f 43 66 67
f 43 67 68
f 43 68 44
f 45 69 46
f 45 50 70
f 45 70 69
f 46 69 71
f 48 72 49
f 49 72 73
f 49 73 74
f 49 74 50
f 50 74 75
f 50 75 70
f 51 76 77
f 51 77 52
f 52 78 79
f 52 79 80
f 52 80 53
f 52 77 81
f 52 81 78
f 54 71 55
f 55 69 56
f 55 71 69
f 56 69 82
f 56 82 57
f 57 82 58
f 58 82 59
f 59 82 83
f 59 83 84
f 60 84 85
f 60 85 86
f 60 86 61
f 61 86 62
f 62 86 87
f 62 87 88
f 62 88 89
f 62 89 90
f 62 90 63
f 64 91 66
f 64 65 92
f 64 92 91
f 66 91 93
f 66 93 67
f 67 94 68
f 67 93 95
f 67 95 96
f 67 96 97
f 67 97 94
f 69 70 82
f 70 75 83
f 70 83 82
f 72 98 73
f 73 99 100
f 73 100 101
f 73 101 102
f 73 102 74
f 73 98 99
f 74 102 103
f 74 103 75
f 75 103 104
f 75 104 83
f 76 105 77
f 77 105 106
f 77 106 107
f 77 107 81
f 78 108 109
f 78 109 79
f 78 81 108
f 81 107 110
f 81 110 111
f 81 111 108
f 83 104 84
f 84 104 85
f 85 104 112
f 85 112 113
f 85 113 87
f 85 87 86
f 87 113 114
f 87 114 88
f 88 115 89
f 88 114 116
f 88 116 117
f 88 117 118
f 88 118 115
f 91 119 93
f 91 92 120
f 91 120 121
f 91 121 119
f 93 119 122
f 93 122 123
f 93 123 95
f 95 124 125
f 95 125 96
f 95 123 124
f 100 126 101
f 101 126 127
f 101 127 128
f 101 128 102
f 102 128 129
f 102 129 103
f 103 129 112
f 103 112 104
f 106 130 131
f 106 131 107
f 107 131 132
f 107 132 110
f 108 120 109
f 108 111 133
f 108 133 121
f 108 121 120
f 110 134 135
f 110 135 111
f 110 132 136
f 110 136 134
f 111 135 133
f 112 129 137
f 112 137 113
f 113 138 139
f 113 139 114
f 113 137 138
f 114 139 140
f 114 140 141
f 114 141 116
f 116 141 142
f 116 142 117
f 119 121 134
f 119 134 122
f 121 133 134
f 122 134 143
f 122 143 144
f 122 144 123
f 123 144 145
f 123 145 124
f 124 145 146
f 124 146 147
f 124 147 125
f 126 148 127
f 127 149 150
f 127 150 151
f 127 151 128
f 127 148 152
f 127 152 149
f 128 151 153
f 128 153 129
f 129 153 137
f 130 154 155
f 130 155 131
f 131 155 156
f 131 156 132
f 132 156 157
f 132 157 136
f 133 135 134
f 134 136 158
f 134 158 143
f 136 157 159
f 136 159 158
f 137 153 160
f 137 160 138
f 138 160 139
f 139 160 161
f 139 161 162
f 139 162 140
f 140 162 163
f 140 163 164
f 140 164 141
f 141 164 165
f 141 165 142
f 143 158 159
f 143 159 166
f 143 166 144
f 144 166 167
f 144 167 145
f 145 167 168
f 145 168 169
f 145 169 146
f 146 169 170
f 146 170 171
f 146 171 147
f 149 172 150
f 150 172 173
f 150 173 174
f 150 174 151
f 151 174 175
f 151 175 153
f 153 175 160
f 154 176 155
f 155 176 177
f 155 177 178
f 155 178 156
f 156 178 157
f 157 179 159
f 157 178 180
f 157 180 181
f 157 181 179
f 159 179 166
f 160 175 182
f 160 182 183
f 160 183 161
f 161 183 162
f 162 183 184
f 162 184 163
f 163 184 185
f 163 185 186
f 163 186 164
f 164 186 187
f 164 187 165
f 166 179 181
f 166 181 188
f 166 188 167
f 167 188 189
f 167 189 168
f 168 189 190
f 168 190 191
f 168 191 169
f 169 191 192
f 169 192 193
f 169 193 170
f 172 194 173
f 173 194 195
f 173 195 196
f 173 196 197
f 173 197 174
f 174 197 198
f 174 198 175
f 175 198 182
f 176 199 200
f 176 200 177
f 177 200 201
f 177 201 178
f 178 201 202
f 178 202 180
f 180 202 203
f 180 203 204
f 180 204 181
f 181 204 188
f 182 198 205
f 182 205 206
f 182 206 207
f 182 207 183
f 183 207 184
f 184 207 206
f 184 206 208
f 184 208 185
f 185 208 209
f 185 209 210
f 185 210 186
f 186 211 187
f 186 210 212
f 186 212 211
f 188 204 189
f 189 204 213
f 189 213 190
f 190 214 191
f 190 213 215
f 190 215 216
f 190 216 214
f 191 214 217
f 191 217 218
f 191 218 192
f 195 219 196
f 196 219 220
f 196 220 221
f 196 221 197
f 197 221 222
f 197 222 198
f 198 222 205
f 199 223 200
f 200 223 210
f 200 210 209
f 200 209 201
f 201 209 224
f 201 224 202
f 202 224 225
f 202 225 226
f 202 226 203
f 203 226 204
f 204 226 213
f 205 222 227
f 205 227 228
f 205 228 206
f 206 228 208
f 208 228 229
f 208 229 224
f 208 224 209
f 210 223 212
f 213 226 230
f 213 230 215
f 214 216 231
f 215 221 220
f 215 220 216
f 215 230 221
f 216 232 231
f 216 220 233
f 216 233 232
f 219 234 220
f 220 234 233
f 221 230 222
f 222 230 227
f 224 229 227
f 224 227 225
f 225 227 226
f 226 227 230
f 227 229 228

