# https://github.com/mikedh/trimesh
v 0.01659147 0.00864782 -0.01318201
v 0.00786764 0.00864782 -0.01369548
v 0.01659147 0.00002100 -0.01333436
v 0.01659147 0.00864782 -0.02759163
v 0.00786764 0.00002100 -0.01388451
v 0.00786764 0.00864782 -0.02653366
v 0.01659147 0.00002100 -0.02724462
v 0.00786764 0.00002100 -0.02678898
v 0.00786764 0.00864614 -0.02707534
v 0.00913501 0.00864782 -0.02712189
f 1 2 3
f 1 3 7
f 1 7 4
f 1 4 10
f 1 10 6
f 1 6 2
f 2 5 3
f 2 6 9
f 2 9 8
f 2 8 5
f 3 5 8
f 3 8 7
f 4 7 8
f 4 8 9
f 4 9 10
f 6 10 9

