# https://github.com/mikedh/trimesh
v 0.00760491 -0.03635598 -0.02313545
v 0.00760491 -0.03612525 -0.02321572
v 0.00761155 -0.03635598 -0.02313545
v 0.00760491 -0.03635598 -0.00798176
v 0.00760491 -0.03501621 -0.02359741
v 0.00777550 -0.03501621 -0.02358671
v 0.00905326 -0.03635598 -0.02301060
v 0.00926235 -0.03501691 -0.02346186
v 0.00838152 -0.03635598 -0.00781231
v 0.01056003 -0.03452478 -0.00767319
v 0.01040206 -0.03375661 -0.00785869
v 0.00980267 -0.03357258 -0.00816369
v 0.00760491 -0.02923541 -0.01084270
v 0.00760491 -0.03483358 -0.02365449
v 0.00797330 -0.03361510 -0.02400765
v 0.00946414 -0.03361510 -0.02389171
v 0.01046379 -0.03635598 -0.02286256
v 0.01074324 -0.03501621 -0.02332273
v 0.01094436 -0.03361719 -0.02375794
v 0.00960287 -0.03635598 -0.00756082
v 0.00961216 -0.03635598 -0.00755904
v 0.01026532 -0.03580042 -0.00753585
v 0.01438537 -0.03635598 -0.00695439
v 0.01123509 -0.03353982 -0.00784442
v 0.01063106 -0.03290688 -0.00809056
v 0.00760491 -0.02923541 -0.02517592
v 0.01085740 -0.03207109 -0.00844728
v 0.01195994 -0.02943198 -0.00946038
v 0.01199910 -0.02923541 -0.00955492
v 0.00760491 -0.03361580 -0.02403083
v 0.00760491 -0.03267197 -0.02429481
v 0.00815385 -0.03221329 -0.02438756
v 0.00964469 -0.03221608 -0.02427876
v 0.01112756 -0.03221608 -0.02414855
v 0.01052552 -0.03635598 -0.02285542
v 0.01221283 -0.03501273 -0.02315686
v 0.01241529 -0.03361650 -0.02360098
v 0.01260512 -0.03221538 -0.02400230
v 0.01438537 -0.02923541 -0.00954065
v 0.01383444 -0.02923541 -0.00948536
v 0.01347666 -0.02941455 -0.00939082
v 0.01246706 -0.03062049 -0.00888606
v 0.01146941 -0.03235201 -0.00820828
v 0.01438537 -0.03635598 -0.02233639
v 0.01170106 -0.03097739 -0.00876477
v 0.00844060 -0.02923541 -0.02510636
v 0.00980399 -0.03081566 -0.02461943
v 0.00760491 -0.03221329 -0.02441788
v 0.01259251 -0.02923541 -0.00944076
v 0.01224735 -0.02923541 -0.00950319
v 0.01129218 -0.03081357 -0.02449279
v 0.01277041 -0.03081636 -0.02435902
v 0.01199047 -0.03635598 -0.02268420
v 0.01387891 -0.03361510 -0.02342262
v 0.01366451 -0.03501621 -0.02296601
v 0.01407140 -0.03221608 -0.02383463
v 0.01424133 -0.03081636 -0.02420028
v 0.01438537 -0.02923541 -0.02455879
v 0.01351317 -0.02923541 -0.00946217
v 0.01324567 -0.02923541 -0.00945325
v 0.01271332 -0.02923541 -0.00943720
v 0.01344015 -0.03635598 -0.02248265
v 0.01438537 -0.03501621 -0.02286256
v 0.01140236 -0.02923541 -0.02484952
v 0.01143223 -0.02941804 -0.02480671
v 0.01291843 -0.02941455 -0.02466937
v 0.01438537 -0.02939852 -0.02452490
v 0.01337842 -0.03635598 -0.02249156
v 0.01438537 -0.03221608 -0.02379361
v 0.01438537 -0.03361510 -0.02335306
v 0.01438537 -0.03081636 -0.02418244
v 0.01438537 -0.03069159 -0.02421455
v 0.01425394 -0.02923541 -0.02457306
v 0.01265491 -0.02923541 -0.02473358
v 0.01295759 -0.02923541 -0.02470326
f 1 2 3
f 1 3 7
f 1 7 17
f 1 17 35
f 1 35 53
f 1 53 68
f 1 68 62
f 1 62 44
f 1 44 23
f 1 23 21
f 1 21 20
f 1 20 9
f 1 9 4
f 1 4 13
f 1 13 26
f 1 26 48
f 1 48 31
f 1 31 30
f 1 30 14
f 1 14 5
f 1 5 2
f 2 5 6
f 2 6 3
f 3 6 8
f 3 8 7
f 4 9 10
f 4 10 11
f 4 11 12
f 4 12 13
f 5 14 6
f 6 14 15
f 6 15 16
f 6 16 8
f 7 8 18
f 7 18 17
f 8 16 19
f 8 19 18
f 9 20 10
f 10 20 21
f 10 21 22
f 10 22 23
f 10 23 11
f 11 23 24
f 11 24 25
f 11 25 12
f 12 25 13
f 13 25 27
f 13 27 28
f 13 28 29
f 13 29 50
f 13 50 49
f 13 49 61
f 13 61 60
f 13 60 59
f 13 59 40
f 13 40 39
f 13 39 58
f 13 58 73
f 13 73 75
f 13 75 74
f 13 74 64
f 13 64 46
f 13 46 26
f 14 30 15
f 15 30 31
f 15 31 32
f 15 32 33
f 15 33 16
f 16 33 34
f 16 34 19
f 17 18 36
f 17 36 35
f 18 19 37
f 18 37 36
f 19 34 38
f 19 38 37
f 21 23 22
f 23 39 40
f 23 40 41
f 23 41 42
f 23 42 43
f 23 43 24
f 23 44 63
f 23 63 70
f 23 70 69
f 23 69 71
f 23 71 72
f 23 72 67
f 23 67 58
f 23 58 39
f 24 43 25
f 25 43 45
f 25 45 28
f 25 28 27
f 26 46 47
f 26 47 32
f 26 32 48
f 28 45 49
f 28 49 50
f 28 50 29
f 31 48 32
f 32 47 33
f 33 47 51
f 33 51 34
f 34 51 52
f 34 52 38
f 35 36 53
f 36 37 54
f 36 54 55
f 36 55 53
f 37 38 56
f 37 56 54
f 38 52 57
f 38 57 56
f 40 59 41
f 41 59 60
f 41 60 42
f 42 60 61
f 42 61 43
f 43 61 49
f 43 49 45
f 44 62 63
f 46 64 65
f 46 65 51
f 46 51 47
f 51 65 52
f 52 65 66
f 52 66 67
f 52 67 57
f 53 55 68
f 54 56 69
f 54 69 70
f 54 70 55
f 55 63 68
f 55 70 63
f 56 57 71
f 56 71 69
f 57 67 72
f 57 72 71
f 58 67 73
f 62 68 63
f 64 74 65
f 65 74 66
f 66 74 75
f 66 75 73
f 66 73 67

