# https://github.com/mikedh/trimesh
v 0.02437224 0.05251780 0.00322644
v 0.02462427 0.05240720 0.00322644
v 0.02437224 0.05248324 0.00303440
v 0.02437224 0.04095689 0.00322644
v 0.02478798 0.05227241 0.00287777
v 0.02491507 0.05227241 0.00322644
v 0.02437224 0.05241930 0.00268241
v 0.02437224 0.03688897 -0.00242752
v 0.03241781 0.03486711 0.00322644
v 0.02553115 0.05198209 0.00322644
v 0.02665128 0.05123210 0.00219981
v 0.02537390 0.05173152 0.00161150
v 0.02437224 0.05221538 0.00173879
v 0.02437224 0.05108348 -0.00242752
v 0.02721781 0.03486711 -0.00242752
v 0.04637639 0.03486711 0.00322644
v 0.02616876 0.05167276 0.00322644
v 0.02791358 0.05068775 0.00279420
v 0.02723935 0.05063073 0.00093242
v 0.02597058 0.05112842 0.00034135
v 0.02469966 0.05158290 -0.00024917
v 0.02437224 0.05208577 0.00114218
v 0.02437224 0.05123210 -0.00195322
v 0.02528989 0.05093487 -0.00151711
v 0.02571209 0.05044928 -0.00242752
v 0.04480389 0.03486711 -0.00242752
v 0.04634838 0.03486711 0.00310192
v 0.04624499 0.03503646 0.00322644
v 0.02672452 0.05138417 0.00322644
v 0.02771110 0.05087093 0.00322644
v 0.02807083 0.05067566 0.00322644
v 0.02884415 0.05025227 0.00322644
v 0.02912850 0.05009156 0.00322644
v 0.02925990 0.05001725 0.00322644
v 0.02850381 0.05008292 0.00152627
v 0.02782957 0.04998960 -0.00033551
v 0.02656081 0.05049075 -0.00092769
v 0.02437224 0.05168832 -0.00040525
v 0.02437224 0.05191297 0.00045370
v 0.02600936 0.05030239 -0.00242752
v 0.04443985 0.03532851 -0.00242752
v 0.04482543 0.03486711 -0.00236996
v 0.04608773 0.03486711 0.00200389
v 0.04569784 0.03531814 0.00185114
v 0.04621483 0.03507448 0.00322644
v 0.03017970 0.04946600 0.00322644
v 0.02977903 0.04948501 0.00211458
v 0.02910480 0.04942798 0.00025335
v 0.02714888 0.04979779 -0.00219452
v 0.02841980 0.04928455 -0.00160345
v 0.02664912 0.04997924 -0.00242752
v 0.04426752 0.03586076 -0.00174291
v 0.04395302 0.03591087 -0.00242752
v 0.04503223 0.03486711 -0.00179881
v 0.04587017 0.03486711 0.00111063
v 0.04483189 0.03668506 0.00295636
v 0.04436446 0.03617873 -0.00055191
v 0.04415982 0.03693563 0.00109458
v 0.04610712 0.03520581 0.00322644
v 0.03079792 0.04908927 0.00322644
v 0.03103703 0.04884043 0.00271063
v 0.03036495 0.04882142 0.00084775
v 0.02968856 0.04872119 -0.00101237
v 0.02725874 0.04965608 -0.00242752
v 0.02706487 0.04976150 -0.00242752
v 0.03027879 0.04795219 -0.00227975
v 0.02996429 0.04809044 -0.00242752
v 0.02880323 0.04877994 -0.00242752
v 0.02812469 0.04916704 -0.00242752
v 0.04312154 0.03688033 -0.00242752
v 0.04286520 0.03717238 -0.00242752
v 0.04345973 0.03718275 -0.00075834
v 0.04510331 0.03490858 -0.00150604
v 0.04512485 0.03486711 -0.00153703
v 0.04562461 0.03486711 0.00017808
v 0.04492883 0.03664185 0.00322644
v 0.04356528 0.03800186 0.00236418
v 0.04470480 0.03690798 0.00322644
v 0.04518732 0.03486711 -0.00133171
v 0.04289751 0.03822478 0.00050074
v 0.03122659 0.04881450 0.00322644
v 0.03216147 0.04820276 0.00322644
v 0.03229287 0.04811636 0.00322644
v 0.03163587 0.04814401 0.00143882
v 0.03096379 0.04809044 -0.00042296
v 0.03034772 0.04785887 -0.00242752
v 0.03022494 0.04793318 -0.00242752
v 0.03154971 0.04730761 -0.00169034
v 0.04270365 0.03735210 -0.00242752
v 0.04220174 0.03834748 -0.00135329
v 0.04513993 0.03486711 -0.00148999
v 0.04512701 0.03486711 -0.00153039
v 0.04228359 0.03926336 0.00177587
v 0.04281781 0.03906463 0.00322644
v 0.04316031 0.03868445 0.00322644
v 0.04387547 0.03787571 0.00322644
v 0.04161582 0.03941198 -0.00008702
v 0.03235103 0.04807488 0.00322644
v 0.03290464 0.04740093 0.00203045
v 0.03223040 0.04738365 0.00016923
v 0.03128260 0.04724022 -0.00242752
v 0.03189436 0.04682029 -0.00242752
v 0.03281847 0.04658873 -0.00109760
v 0.03233811 0.04650233 -0.00242752
v 0.04186354 0.03825243 -0.00242752
v 0.04120008 0.03895231 -0.00242752
v 0.04093297 0.03943617 -0.00194492
v 0.04102129 0.04041427 0.00118258
v 0.04170199 0.04021900 0.00304214
v 0.04209403 0.03984227 0.00322644
v 0.04034059 0.04048685 -0.00067588
v 0.03389121 0.04696718 0.00322644
v 0.03417771 0.04662502 0.00262098
v 0.03350132 0.04663539 0.00075975
v 0.03476147 0.04587503 0.00135470
v 0.03409155 0.04583528 -0.00050819
v 0.03343885 0.04569876 -0.00242752
v 0.04075849 0.03941025 -0.00242752
v 0.03991624 0.04025356 -0.00242752
v 0.03971806 0.04045056 -0.00242752
v 0.03975252 0.04146668 0.00059095
v 0.04042891 0.04135435 0.00245162
v 0.04161582 0.04034860 0.00322644
v 0.04176876 0.04018789 0.00322644
v 0.03907829 0.04147186 -0.00127083
v 0.03544432 0.04583010 0.00322644
v 0.03602593 0.04509393 0.00194688
v 0.03535816 0.04507320 0.00008455
v 0.03468392 0.04497988 -0.00177778
v 0.03444913 0.04493495 -0.00242752
v 0.03962328 0.04054042 -0.00242752
v 0.03849668 0.04244132 -0.00000511
v 0.03790431 0.04338140 0.00126449
v 0.03916446 0.04240157 0.00185833
v 0.04006702 0.04189524 0.00322644
v 0.03965990 0.04228233 0.00322644
v 0.03865824 0.04143903 -0.00242752
v 0.03780952 0.04241713 -0.00186135
v 0.03548525 0.04579899 0.00322644
v 0.03650629 0.04501963 0.00322644
v 0.03727746 0.04425927 0.00254349
v 0.03662692 0.04427482 0.00067563
v 0.03595269 0.04419187 -0.00118615
v 0.03498765 0.04452366 -0.00242752
v 0.03720638 0.04337103 -0.00058899
v 0.03855915 0.04329845 0.00313070
v 0.03876594 0.04312737 0.00322644
v 0.03807232 0.04197301 -0.00242752
v 0.03760273 0.04238775 -0.00242752
v 0.03653214 0.04330191 -0.00242752
v 0.03697589 0.04465327 0.00322644
v 0.03753380 0.04419014 0.00322644
v 0.03851607 0.04335720 0.00322644
v 0.03550033 0.04412275 -0.00242752
v 0.03859577 0.04328463 0.00322644
f 1 2 3
f 1 3 7
f 1 7 13
f 1 13 22
f 1 22 39
f 1 39 38
f 1 38 23
f 1 23 14
f 1 14 8
f 1 8 4
f 1 4 9
f 1 9 16
f 1 16 28
f 1 28 45
f 1 45 59
f 1 59 76
f 1 76 78
f 1 78 96
f 1 96 95
f 1 95 94
f 1 94 110
f 1 110 124
f 1 124 123
f 1 123 135
f 1 135 136
f 1 136 147
f 1 147 155
f 1 155 153
f 1 153 152
f 1 152 151
f 1 151 140
f 1 140 139
f 1 139 126
f 1 126 112
f 1 112 98
f 1 98 83
f 1 83 82
f 1 82 81
f 1 81 60
f 1 60 46
f 1 46 34
f 1 34 33
f 1 33 32
f 1 32 31
f 1 31 30
f 1 30 29
f 1 29 17
f 1 17 10
f 1 10 6
f 1 6 2
f 2 5 3
f 2 6 5
f 3 5 7
f 4 8 9
f 5 6 10
f 5 10 11
f 5 11 12
f 5 12 13
f 5 13 7
f 8 14 25
f 8 25 40
f 8 40 51
f 8 51 65
f 8 65 64
f 8 64 69
f 8 69 68
f 8 68 67
f 8 67 87
f 8 87 86
f 8 86 101
f 8 101 102
f 8 102 104
f 8 104 117
f 8 117 130
f 8 130 144
f 8 144 154
f 8 154 150
f 8 150 149
f 8 149 148
f 8 148 137
f 8 137 131
f 8 131 120
f 8 120 119
f 8 119 118
f 8 118 106
f 8 106 105
f 8 105 89
f 8 89 71
f 8 71 70
f 8 70 53
f 8 53 41
f 8 41 26
f 8 26 15
f 8 15 9
f 9 15 26
f 9 26 42
f 9 42 54
f 9 54 74
f 9 74 92
f 9 92 91
f 9 91 79
f 9 79 75
f 9 75 55
f 9 55 43
f 9 43 27
f 9 27 16
f 10 17 11
f 11 17 18
f 11 18 19
f 11 19 20
f 11 20 12
f 12 21 22
f 12 22 13
f 12 20 21
f 14 23 24
f 14 24 25
f 16 27 28
f 17 29 18
f 18 29 30
f 18 30 31
f 18 31 32
f 18 32 33
f 18 33 34
f 18 34 35
f 18 35 19
f 19 35 36
f 19 36 37
f 19 37 20
f 20 37 21
f 21 37 24
f 21 24 23
f 21 23 38
f 21 38 39
f 21 39 22
f 24 37 25
f 25 37 40
f 26 41 42
f 27 43 44
f 27 44 28
f 28 44 45
f 34 46 47
f 34 47 35
f 35 47 48
f 35 48 36
f 36 49 37
f 36 48 50
f 36 50 49
f 37 51 40
f 37 49 51
f 41 52 42
f 41 53 52
f 42 52 54
f 43 55 44
f 44 56 45
f 44 55 57
f 44 57 58
f 44 58 56
f 45 56 59
f 46 60 61
f 46 61 47
f 47 61 62
f 47 62 48
f 48 62 63
f 48 63 50
f 49 64 65
f 49 65 51
f 49 50 64
f 50 63 66
f 50 66 67
f 50 67 68
f 50 68 69
f 50 69 64
f 52 53 70
f 52 70 71
f 52 71 72
f 52 72 57
f 52 57 73
f 52 73 54
f 54 73 74
f 55 75 57
f 56 76 59
f 56 58 77
f 56 77 78
f 56 78 76
f 57 72 58
f 57 75 79
f 57 79 73
f 58 72 80
f 58 80 77
f 60 81 61
f 61 81 82
f 61 82 83
f 61 83 84
f 61 84 62
f 62 84 85
f 62 85 63
f 63 85 66
f 66 86 87
f 66 87 67
f 66 85 88
f 66 88 86
f 71 89 90
f 71 90 72
f 72 90 80
f 73 79 91
f 73 91 92
f 73 92 74
f 77 80 93
f 77 93 94
f 77 94 95
f 77 95 96
f 77 96 78
f 80 90 97
f 80 97 93
f 83 98 99
f 83 99 84
f 84 99 100
f 84 100 85
f 85 100 88
f 86 88 101
f 88 102 101
f 88 100 103
f 88 103 104
f 88 104 102
f 89 105 90
f 90 105 106
f 90 106 107
f 90 107 97
f 93 97 108
f 93 108 109
f 93 109 94
f 94 109 110
f 97 107 111
f 97 111 108
f 98 112 113
f 98 113 99
f 99 114 100
f 99 113 115
f 99 115 114
f 100 114 103
f 103 114 116
f 103 116 117
f 103 117 104
f 106 118 107
f 107 118 119
f 107 119 120
f 107 120 111
f 108 111 121
f 108 121 122
f 108 122 109
f 109 122 123
f 109 123 124
f 109 124 110
f 111 120 125
f 111 125 121
f 112 126 113
f 113 126 127
f 113 127 115
f 114 115 128
f 114 128 116
f 115 127 128
f 116 128 129
f 116 129 117
f 117 129 130
f 120 131 125
f 121 125 132
f 121 132 133
f 121 133 134
f 121 134 122
f 122 135 123
f 122 134 136
f 122 136 135
f 125 131 137
f 125 137 138
f 125 138 132
f 126 139 127
f 127 139 140
f 127 140 141
f 127 141 142
f 127 142 128
f 128 142 143
f 128 143 129
f 129 143 144
f 129 144 130
f 132 138 145
f 132 145 133
f 133 146 134
f 133 145 142
f 133 142 141
f 133 141 146
f 134 146 136
f 136 146 147
f 137 148 138
f 138 148 149
f 138 149 150
f 138 150 145
f 140 151 141
f 141 151 152
f 141 152 153
f 141 153 146
f 142 145 150
f 142 150 143
f 143 150 154
f 143 154 144
f 146 153 155
f 146 155 147

