# https://github.com/mikedh/trimesh
v 0.01218704 0.02624823 -0.02615017
v 0.01218704 0.02551355 -0.02683099
v 0.01218704 0.01716160 -0.02615017
v 0.01956655 0.02172538 -0.02596050
v 0.01288714 0.02591914 -0.02615017
v 0.01229878 0.02562651 -0.02669765
v 0.01313342 0.02478598 -0.02706084
v 0.01218704 0.02522803 -0.02706084
v 0.01956655 0.01716160 -0.02596050
v 0.01218704 0.01716160 -0.02706084
v 0.01992116 0.02141051 -0.02596050
v 0.01722682 0.02209094 -0.02706084
v 0.01591898 0.02436971 -0.02615017
v 0.01575251 0.02445866 -0.02615017
v 0.01501707 0.02484468 -0.02615017
v 0.01545492 0.02347582 -0.02706084
v 0.02383440 0.01716160 -0.02596050
v 0.01956655 0.01716160 -0.02706084
v 0.01997817 0.02135981 -0.02596050
v 0.01863613 0.02080035 -0.02706084
v 0.01684485 0.02239246 -0.02706084
v 0.02034760 0.01926160 -0.02706074
v 0.01577076 0.02323655 -0.02706084
v 0.02211381 0.01716160 -0.02706074
v 0.02202601 0.01729324 -0.02706074
v 0.02178428 0.01765525 -0.02706074
v 0.02134530 0.01826986 -0.02706074
v 0.02295643 0.01826007 -0.02596050
v 0.01956655 0.01994025 -0.02706084
v 0.02099297 0.02037163 -0.02596050
v 0.02110585 0.02026045 -0.02596050
v 0.02071590 0.01889781 -0.02706074
v 0.02191427 0.01945461 -0.02596050
v 0.02294845 0.01826986 -0.02596050
f 1 2 8
f 1 8 10
f 1 10 3
f 1 3 9
f 1 9 4
f 1 4 5
f 1 5 6
f 1 6 2
f 2 6 7
f 2 7 8
f 3 10 18
f 3 18 24
f 3 24 17
f 3 17 9
f 4 9 17
f 4 17 28
f 4 28 34
f 4 34 33
f 4 33 31
f 4 31 30
f 4 30 19
f 4 19 11
f 4 11 12
f 4 12 13
f 4 13 14
f 4 14 15
f 4 15 5
f 5 15 6
f 6 15 7
f 7 15 14
f 7 14 13
f 7 13 16
f 7 16 23
f 7 23 21
f 7 21 12
f 7 12 20
f 7 20 29
f 7 29 18
f 7 18 10
f 7 10 8
f 11 19 12
f 12 21 13
f 12 19 22
f 12 22 20
f 13 21 23
f 13 23 16
f 17 24 25
f 17 25 26
f 17 26 27
f 17 27 28
f 18 29 24
f 19 30 22
f 20 22 29
f 22 30 31
f 22 31 32
f 22 32 29
f 24 29 25
f 25 29 26
f 26 29 27
f 27 33 34
f 27 34 28
f 27 29 32
f 27 32 33
f 31 33 32

