# https://github.com/mikedh/trimesh
v 0.01918501 -0.05451325 0.00518776
v 0.01918501 -0.05448067 0.00491646
v 0.01979681 -0.05429131 0.00518776
v 0.01918501 -0.04411244 0.00518776
v 0.01918501 -0.05447863 0.00490289
v 0.02106344 -0.05367638 0.00423293
v 0.02061892 -0.05398384 0.00518776
v 0.03139002 -0.03638717 0.00518776
v 0.02799044 -0.03371570 -0.00251120
v 0.01918501 -0.03946180 -0.00251120
v 0.01918501 -0.05422411 0.00336551
v 0.01978606 -0.05406325 0.00364435
v 0.02233365 -0.05324878 0.00482376
v 0.02165612 -0.05321824 0.00296233
v 0.02292633 -0.05279268 0.00355241
v 0.02216397 -0.05336484 0.00518776
v 0.03139002 -0.03371570 0.00089214
v 0.03139002 -0.04857168 0.00518776
v 0.03139002 -0.03371570 -0.00251120
v 0.01918501 -0.05279268 -0.00251120
v 0.01918501 -0.05403475 0.00241294
v 0.01974782 -0.05372932 0.00186958
v 0.02246628 -0.05324064 0.00518776
v 0.02311155 -0.05296779 0.00518776
v 0.02067986 -0.05322028 0.00115968
v 0.02232528 -0.05274178 0.00198941
v 0.02352619 -0.05227956 0.00227880
v 0.02419415 -0.05232843 0.00414702
v 0.02370662 -0.05270919 0.00518776
v 0.03124663 -0.04866534 0.00518776
v 0.03139002 -0.04844136 0.00440852
v 0.03139002 -0.04662509 -0.00251120
v 0.01929852 -0.05275399 -0.00251120
v 0.01918501 -0.05295354 -0.00199798
v 0.01918501 -0.05379448 0.00127121
v 0.02043729 -0.05280489 -0.00088338
v 0.02177561 -0.05267865 0.00073464
v 0.01918501 -0.05370489 0.00089289
v 0.01918501 -0.05337910 -0.00046136
v 0.02319399 -0.05191916 0.00014305
v 0.02403881 -0.05183364 0.00133979
v 0.02478086 -0.05182142 0.00287868
v 0.02457294 -0.05231214 0.00518776
v 0.02498520 -0.05182549 0.00343937
v 0.02498520 -0.05201893 0.00451855
v 0.02498520 -0.05212277 0.00518776
v 0.03089412 -0.04888932 0.00518776
v 0.03045678 -0.04896670 0.00397444
v 0.03104946 -0.04834769 0.00270459
v 0.03139002 -0.04829883 0.00363983
v 0.03139002 -0.04675947 -0.00212836
v 0.03125260 -0.04671672 -0.00251120
v 0.02029510 -0.05238137 -0.00251120
v 0.02066791 -0.05233861 -0.00220146
v 0.01932720 -0.05293725 -0.00188720
v 0.01918501 -0.05300648 -0.00181938
v 0.02157965 -0.05220829 -0.00136570
v 0.01918501 -0.05331394 -0.00070251
v 0.02406271 -0.05104767 -0.00154732
v 0.02426704 -0.05143862 0.00018148
v 0.02498520 -0.05132052 0.00110768
v 0.02498520 -0.05142436 0.00152970
v 0.02498520 -0.05162798 0.00244233
v 0.02498520 -0.05173998 0.00297439
v 0.02604390 -0.05131441 0.00347328
v 0.02545600 -0.05183364 0.00474087
v 0.02525047 -0.05199857 0.00518776
v 0.02988202 -0.04952053 0.00518776
v 0.02983422 -0.04954904 0.00518776
v 0.02918776 -0.04962031 0.00338285
v 0.02976133 -0.04902982 0.00212054
v 0.03035043 -0.04836195 0.00085446
v 0.03139002 -0.04779793 0.00132999
v 0.03139002 -0.04794861 0.00196228
v 0.03139002 -0.04815222 0.00286436
v 0.03139002 -0.04687350 -0.00180129
v 0.03038269 -0.04729092 -0.00251120
v 0.02077785 -0.05219200 -0.00251120
v 0.02196919 -0.05169518 -0.00251120
v 0.02345210 -0.05102731 -0.00251120
v 0.02498520 -0.05047347 -0.00196030
v 0.02498520 -0.05071781 -0.00115996
v 0.02498520 -0.05092143 -0.00044025
v 0.02498520 -0.05110672 0.00024931
v 0.02596265 -0.05065469 0.00034125
v 0.02537235 -0.05125536 0.00160808
v 0.02667602 -0.05128387 0.00518776
v 0.02664615 -0.05074021 0.00220117
v 0.02791636 -0.05020062 0.00279201
v 0.02731411 -0.05076261 0.00406412
v 0.02561970 -0.05181531 0.00518776
v 0.02642030 -0.05141419 0.00518776
v 0.02973026 -0.04960809 0.00518776
v 0.02859149 -0.05017619 0.00465269
v 0.02850426 -0.04961216 0.00152443
v 0.02909336 -0.04897077 0.00025759
v 0.02969441 -0.04823571 -0.00101527
v 0.03096940 -0.04759838 -0.00042594
v 0.03139002 -0.04764318 0.00076252
v 0.03139002 -0.04702214 -0.00134384
v 0.03027156 -0.04744567 -0.00227607
v 0.02977686 -0.04767372 -0.00251120
v 0.02542134 -0.05008456 -0.00251120
v 0.02554442 -0.05051623 -0.00092483
v 0.02566511 -0.05004791 -0.00226552
v 0.02654338 -0.05001736 -0.00092031
v 0.02783032 -0.04950425 -0.00033626
v 0.02723883 -0.05014157 0.00093284
v 0.02679551 -0.05122075 0.00518776
v 0.02712173 -0.05104767 0.00518776
v 0.02834414 -0.05039202 0.00518776
v 0.02841942 -0.04879973 -0.00160384
v 0.02914594 -0.04806670 -0.00251120
v 0.03139002 -0.04737237 -0.00022623
v 0.02564958 -0.04997053 -0.00251120
v 0.02577504 -0.04990741 -0.00251120
v 0.02714085 -0.04931488 -0.00219242
v 0.02884243 -0.04824589 -0.00251120
v 0.02729141 -0.04912348 -0.00251120
v 0.02702494 -0.04926398 -0.00251120
f 1 2 3
f 1 3 7
f 1 7 16
f 1 16 23
f 1 23 24
f 1 24 29
f 1 29 43
f 1 43 46
f 1 46 67
f 1 67 91
f 1 91 92
f 1 92 87
f 1 87 109
f 1 109 110
f 1 110 111
f 1 111 93
f 1 93 69
f 1 69 68
f 1 68 47
f 1 47 30
f 1 30 18
f 1 18 8
f 1 8 4
f 1 4 10
f 1 10 20
f 1 20 34
f 1 34 56
f 1 56 58
f 1 58 39
f 1 39 38
f 1 38 35
f 1 35 21
f 1 21 11
f 1 11 5
f 1 5 2
f 2 5 6
f 2 6 7
f 2 7 3
f 4 8 9
f 4 9 10
f 5 11 12
f 5 12 6
f 6 13 7
f 6 12 14
f 6 14 15
f 6 15 13
f 7 13 16
f 8 17 9
f 8 18 31
f 8 31 50
f 8 50 75
f 8 75 74
f 8 74 73
f 8 73 99
f 8 99 114
f 8 114 100
f 8 100 76
f 8 76 51
f 8 51 32
f 8 32 19
f 8 19 17
f 9 17 19
f 9 19 32
f 9 32 52
f 9 52 77
f 9 77 102
f 9 102 113
f 9 113 118
f 9 118 119
f 9 119 120
f 9 120 116
f 9 116 115
f 9 115 103
f 9 103 80
f 9 80 79
f 9 79 78
f 9 78 53
f 9 53 33
f 9 33 20
f 9 20 10
f 11 21 22
f 11 22 12
f 12 22 14
f 13 23 16
f 13 15 24
f 13 24 23
f 14 25 26
f 14 26 15
f 14 22 25
f 15 26 27
f 15 27 28
f 15 28 29
f 15 29 24
f 18 30 31
f 20 33 34
f 21 35 22
f 22 35 25
f 25 36 37
f 25 37 26
f 25 35 38
f 25 38 39
f 25 39 36
f 26 37 40
f 26 40 41
f 26 41 27
f 27 41 42
f 27 42 28
f 28 43 29
f 28 42 44
f 28 44 45
f 28 45 46
f 28 46 43
f 30 47 48
f 30 48 31
f 31 48 49
f 31 49 50
f 32 51 52
f 33 53 54
f 33 54 55
f 33 55 34
f 34 55 56
f 36 55 54
f 36 54 57
f 36 57 37
f 36 39 58
f 36 58 55
f 37 57 40
f 40 57 59
f 40 59 60
f 40 60 41
f 41 60 61
f 41 61 62
f 41 62 63
f 41 63 42
f 42 63 64
f 42 64 44
f 44 64 65
f 44 65 66
f 44 66 45
f 45 66 46
f 46 66 67
f 47 68 48
f 48 68 69
f 48 69 70
f 48 70 71
f 48 71 49
f 49 72 73
f 49 73 74
f 49 74 75
f 49 75 50
f 49 71 72
f 51 76 52
f 52 76 77
f 53 78 54
f 54 78 79
f 54 79 57
f 55 58 56
f 57 79 59
f 59 79 80
f 59 80 81
f 59 81 82
f 59 82 83
f 59 83 60
f 60 83 84
f 60 84 61
f 61 84 85
f 61 85 86
f 61 86 62
f 62 86 63
f 63 86 65
f 63 65 64
f 65 87 66
f 65 86 88
f 65 88 89
f 65 89 90
f 65 90 87
f 66 91 67
f 66 87 92
f 66 92 91
f 69 93 94
f 69 94 70
f 70 94 90
f 70 90 89
f 70 89 95
f 70 95 71
f 71 95 96
f 71 96 72
f 72 97 98
f 72 98 99
f 72 99 73
f 72 96 97
f 76 100 98
f 76 98 97
f 76 97 101
f 76 101 77
f 77 101 102
f 80 103 81
f 81 104 82
f 81 103 105
f 81 105 104
f 82 104 83
f 83 104 85
f 83 85 84
f 85 104 106
f 85 106 107
f 85 107 108
f 85 108 86
f 86 108 88
f 87 90 109
f 88 108 95
f 88 95 89
f 90 94 110
f 90 110 109
f 93 111 94
f 94 111 110
f 95 108 107
f 95 107 96
f 96 107 112
f 96 112 97
f 97 113 102
f 97 102 101
f 97 112 113
f 98 100 114
f 98 114 99
f 103 115 105
f 104 105 106
f 105 115 116
f 105 116 117
f 105 117 106
f 106 117 107
f 107 117 112
f 112 118 113
f 112 117 119
f 112 119 118
f 116 120 117
f 117 120 119

