# https://github.com/mikedh/trimesh
v -0.02889797 -0.01682481 -0.02447927
v -0.02889797 -0.01682481 -0.00958131
v -0.02889797 -0.01821762 -0.02427436
v -0.02899086 -0.01821762 -0.02425525
v -0.03060714 -0.01682481 -0.02407465
v -0.02890029 -0.02656109 -0.00674029
v -0.02889797 -0.02125238 -0.00854111
v -0.03550013 -0.01682481 -0.00674203
v -0.02889797 -0.01830999 -0.02426047
v -0.02889797 -0.01963109 -0.02404339
v -0.02910929 -0.01961650 -0.02399651
v -0.03073023 -0.01821641 -0.02382285
v -0.03238599 -0.01682481 -0.02358494
v -0.02890029 -0.02924097 -0.00674029
v -0.03292475 -0.02125360 -0.00674029
v -0.02889797 -0.02125238 -0.02374991
v -0.05262210 -0.01682481 -0.00674203
v -0.02889797 -0.02101660 -0.02379507
v -0.02896764 -0.02125360 -0.02373602
v -0.02924166 -0.02101660 -0.02371345
v -0.03085330 -0.01952414 -0.02355716
v -0.03250675 -0.01821519 -0.02331404
v -0.03399995 -0.01682481 -0.02307266
v -0.04682576 -0.02924097 -0.00674029
v -0.02890029 -0.02924097 -0.02156011
v -0.05096169 -0.02125360 -0.00674029
v -0.02890029 -0.02801223 -0.02199425
v -0.02890029 -0.02760022 -0.02213491
v -0.02890029 -0.02599230 -0.02263331
v -0.02890029 -0.02585253 -0.02267151
v -0.02890029 -0.02454966 -0.02301709
v -0.02890029 -0.02389701 -0.02317511
v -0.02890029 -0.02284815 -0.02342344
v -0.02890029 -0.02131315 -0.02374123
v -0.05254547 -0.01682481 -0.00692437
v -0.05215301 -0.01821154 -0.00674203
v -0.02926488 -0.02125360 -0.02365962
v -0.03102051 -0.02101660 -0.02321505
v -0.03192618 -0.02028009 -0.02308308
v -0.03298281 -0.01947795 -0.02291289
v -0.03434133 -0.01821641 -0.02270451
v -0.03433436 -0.01682481 -0.02296152
v -0.04758049 -0.02801223 -0.00674029
v -0.04658424 -0.02924097 -0.00723174
v -0.03007071 -0.02924097 -0.02113118
v -0.03058160 -0.02801710 -0.02139687
v -0.05162353 -0.01961529 -0.00674203
v -0.05105923 -0.02101782 -0.00674203
v -0.05096169 -0.02125238 -0.00674203
v -0.05082236 -0.02157810 -0.00674029
v -0.02991744 -0.02663158 -0.02210539
v -0.02899086 -0.02591573 -0.02262810
v -0.02967592 -0.02395414 -0.02294241
v -0.02939261 -0.02241670 -0.02338698
v -0.05193007 -0.01682481 -0.00819380
v -0.05155387 -0.01821276 -0.00800625
v -0.05112657 -0.01961407 -0.00780654
v -0.03074416 -0.02125360 -0.02324458
v -0.03118539 -0.02241549 -0.02284690
v -0.03282490 -0.02125360 -0.02256384
v -0.03290850 -0.02119283 -0.02254821
v -0.03390010 -0.02028617 -0.02240234
v -0.03519359 -0.01963717 -0.02205329
v -0.03585079 -0.01796969 -0.02217138
v -0.03613178 -0.01682481 -0.02229120
v -0.03590653 -0.01682481 -0.02237803
v -0.04838167 -0.02660970 -0.00674029
v -0.04719500 -0.02801223 -0.00751654
v -0.04649832 -0.02924097 -0.00738109
v -0.03178917 -0.02924097 -0.02040877
v -0.03233954 -0.02801345 -0.02066404
v -0.03293637 -0.02628277 -0.02104783
v -0.03115984 -0.02661457 -0.02166083
v -0.05067141 -0.02101903 -0.00759642
v -0.05059245 -0.02125360 -0.00755648
v -0.05018838 -0.02241305 -0.00736719
v -0.05046241 -0.02241549 -0.00674029
v -0.03190529 -0.02506133 -0.02186748
v -0.03163590 -0.02408783 -0.02225300
v -0.03077667 -0.02430416 -0.02249264
v -0.02975488 -0.02521082 -0.02257947
v -0.05126126 -0.01682481 -0.00941460
v -0.05088041 -0.01822005 -0.00923747
v -0.05046009 -0.01961772 -0.00904124
v -0.05001421 -0.02101782 -0.00883285
v -0.03264376 -0.02241549 -0.02234677
v -0.03289921 -0.02125238 -0.02253779
v -0.03490796 -0.02112842 -0.02179281
v -0.03695154 -0.01961772 -0.02127705
v -0.03733007 -0.01821641 -0.02144724
v -0.03743921 -0.01682481 -0.02171988
v -0.03722556 -0.01682481 -0.02181539
v -0.04883915 -0.02577110 -0.00674029
v -0.04908531 -0.02521933 -0.00685491
v -0.04784058 -0.02661335 -0.00781696
v -0.04648439 -0.02801710 -0.00873039
v -0.04587596 -0.02924097 -0.00844560
v -0.03343565 -0.02924097 -0.01963426
v -0.03399995 -0.02801102 -0.01988954
v -0.03458052 -0.02661457 -0.02016739
v -0.03333115 -0.02541014 -0.02117633
v -0.03513554 -0.02521325 -0.02041919
v -0.03251836 -0.02477086 -0.02171640
v -0.05048331 -0.02125238 -0.00776660
v -0.04954047 -0.02241305 -0.00861057
v -0.04901564 -0.02381072 -0.00836745
v -0.04965891 -0.02381194 -0.00712234
v -0.05019999 -0.02299035 -0.00674029
v -0.05053904 -0.01682481 -0.01062325
v -0.05015819 -0.01821884 -0.01044612
v -0.04974715 -0.01961772 -0.01025336
v -0.04930360 -0.02101539 -0.01004671
v -0.04993525 -0.02125238 -0.00879638
v -0.03432275 -0.02270474 -0.02161221
v -0.03647780 -0.02125360 -0.02105303
v -0.03654979 -0.02101660 -0.02108603
v -0.03853996 -0.01961650 -0.02046781
v -0.03892546 -0.01821519 -0.02064147
v -0.03926218 -0.01682481 -0.02079776
v -0.04913640 -0.02521811 -0.00674029
v -0.04844669 -0.02521447 -0.00810176
v -0.04712533 -0.02661821 -0.00903082
v -0.04636595 -0.02661821 -0.01022210
v -0.04571804 -0.02802074 -0.00992167
v -0.04522108 -0.02924097 -0.00948580
v -0.03498691 -0.02924097 -0.01881808
v -0.03554426 -0.02801710 -0.01907335
v -0.03625486 -0.02652949 -0.01932168
v -0.03669145 -0.02521568 -0.01960648
v -0.03406730 -0.02361140 -0.02144550
v -0.03554890 -0.02372079 -0.02074045
v -0.03720699 -0.02381558 -0.01984439
v -0.04922232 -0.02125360 -0.01000677
v -0.04881825 -0.02241792 -0.00982095
v -0.04829575 -0.02382409 -0.00957957
v -0.04965659 -0.02415832 -0.00674029
v -0.04982379 -0.02381437 -0.00674029
v -0.04976573 -0.01682481 -0.01180584
v -0.04938953 -0.01821641 -0.01163219
v -0.04898081 -0.01961650 -0.01144117
v -0.04853494 -0.02100810 -0.01122757
v -0.04909228 -0.02125238 -0.01020821
v -0.03611785 -0.02241549 -0.02088112
v -0.03805229 -0.02125238 -0.02024206
v -0.03812428 -0.02101660 -0.02027506
v -0.04000995 -0.01961286 -0.01962558
v -0.04040008 -0.01821762 -0.01979403
v -0.04073681 -0.01682481 -0.01995379
v -0.04773144 -0.02521447 -0.00931214
v -0.04697206 -0.02521447 -0.01050342
v -0.04556710 -0.02660727 -0.01138907
v -0.04491454 -0.02801223 -0.01108865
v -0.04431773 -0.02924097 -0.01081253
v -0.04511890 -0.02924097 -0.00964209
v -0.03645690 -0.02924097 -0.01794980
v -0.03701192 -0.02801588 -0.01821202
v -0.03760642 -0.02661335 -0.01848640
v -0.03813357 -0.02521933 -0.01875730
v -0.03767840 -0.02242035 -0.02007361
v -0.03867698 -0.02381194 -0.01898132
v -0.03915536 -0.02241792 -0.01921228
v -0.04804959 -0.02241549 -0.01100529
v -0.04752476 -0.02381680 -0.01076217
v -0.04892043 -0.01682481 -0.01295892
v -0.04854423 -0.01821397 -0.01278006
v -0.04814015 -0.01961772 -0.01259598
v -0.04769893 -0.02101660 -0.01238759
v -0.04761997 -0.02125238 -0.01234939
v -0.03953156 -0.02125238 -0.01938767
v -0.03960355 -0.02101782 -0.01942240
v -0.04141259 -0.01961650 -0.01872083
v -0.04179111 -0.01821884 -0.01890144
v -0.04213945 -0.01682481 -0.01905773
v -0.04615927 -0.02521082 -0.01166692
v -0.04468696 -0.02661214 -0.01252478
v -0.04391598 -0.02811311 -0.01231813
v -0.04344920 -0.02924097 -0.01196908
v -0.03766215 -0.02924097 -0.01716140
v -0.03839598 -0.02801223 -0.01730727
v -0.03898583 -0.02661821 -0.01759033
v -0.03954550 -0.02521447 -0.01784734
v -0.04006336 -0.02381558 -0.01809220
v -0.04054639 -0.02241792 -0.01831795
v -0.04721822 -0.02241549 -0.01216184
v -0.04670268 -0.02381315 -0.01192046
v -0.04798921 -0.01682481 -0.01406858
v -0.04761068 -0.01823828 -0.01391229
v -0.04722751 -0.01961286 -0.01370738
v -0.04678860 -0.02101660 -0.01350768
v -0.04746670 -0.02125360 -0.01253867
v -0.04631254 -0.02242156 -0.01329060
v -0.04092027 -0.02125360 -0.01849161
v -0.04099690 -0.02101539 -0.01852460
v -0.04272698 -0.01961650 -0.01779004
v -0.04311248 -0.01821762 -0.01796890
v -0.04346778 -0.01682481 -0.01813561
v -0.04515141 -0.02534208 -0.01285473
v -0.04368375 -0.02655744 -0.01371085
v -0.04310551 -0.02800980 -0.01333228
v -0.04255746 -0.02924097 -0.01300581
v -0.03783400 -0.02924097 -0.01704852
v -0.03969876 -0.02801588 -0.01637474
v -0.04029094 -0.02661700 -0.01665433
v -0.04085292 -0.02521568 -0.01691481
v -0.04138008 -0.02381558 -0.01715966
v -0.04186543 -0.02241913 -0.01739063
v -0.04114553 -0.02125360 -0.01833358
v -0.04580861 -0.02381680 -0.01304922
v -0.04699761 -0.01682481 -0.01513831
v -0.04663766 -0.01821397 -0.01497854
v -0.04623823 -0.01961650 -0.01479620
v -0.04579932 -0.02101660 -0.01459303
v -0.04572269 -0.02125238 -0.01455656
v -0.04533952 -0.02241670 -0.01437596
v -0.04483791 -0.02392740 -0.01407900
v -0.04231130 -0.02101417 -0.01759033
v -0.04356532 -0.02101660 -0.01663349
v -0.04397868 -0.01961772 -0.01682972
v -0.04436417 -0.01821884 -0.01701379
v -0.04472412 -0.01682481 -0.01717529
v -0.04429682 -0.02521082 -0.01388798
v -0.04309622 -0.02551831 -0.01492471
v -0.04286864 -0.02632409 -0.01467117
v -0.04192116 -0.02831243 -0.01431865
v -0.04168197 -0.02924097 -0.01393140
v -0.04236703 -0.02924097 -0.01322114
v -0.03913213 -0.02924097 -0.01611078
v -0.04091795 -0.02801223 -0.01539879
v -0.04152870 -0.02661457 -0.01568532
v -0.04215571 -0.02531777 -0.01585030
v -0.04262945 -0.02381680 -0.01619761
v -0.04312177 -0.02241549 -0.01642510
v -0.04327736 -0.02125360 -0.01676199
v -0.04223467 -0.02125360 -0.01755734
v -0.04699064 -0.01682481 -0.01514525
v -0.04554852 -0.01821641 -0.01601353
v -0.04527217 -0.01952049 -0.01575826
v -0.04460801 -0.02115394 -0.01568185
v -0.04466374 -0.02125238 -0.01558287
v -0.04427128 -0.02241305 -0.01541789
v -0.04378361 -0.02381072 -0.01519214
v -0.04589454 -0.01682481 -0.01618545
v -0.04034900 -0.02924097 -0.01513136
v -0.04458246 -0.02125238 -0.01566101
f 1 2 7
f 1 7 16
f 1 16 18
f 1 18 10
f 1 10 9
f 1 9 3
f 1 3 4
f 1 4 5
f 1 5 13
f 1 13 23
f 1 23 42
f 1 42 66
f 1 66 65
f 1 65 92
f 1 92 91
f 1 91 119
f 1 119 148
f 1 148 173
f 1 173 196
f 1 196 220
f 1 220 242
f 1 242 235
f 1 235 209
f 1 209 186
f 1 186 164
f 1 164 138
f 1 138 109
f 1 109 82
f 1 82 55
f 1 55 35
f 1 35 17
f 1 17 8
f 1 8 2
f 2 6 7
f 2 8 6
f 3 9 4
f 4 9 10
f 4 10 11
f 4 11 12
f 4 12 5
f 5 12 13
f 6 14 7
f 6 8 15
f 6 15 26
f 6 26 50
f 6 50 77
f 6 77 108
f 6 108 137
f 6 137 136
f 6 136 120
f 6 120 93
f 6 93 67
f 6 67 43
f 6 43 24
f 6 24 14
f 7 14 25
f 7 25 16
f 8 17 26
f 8 26 15
f 10 18 11
f 11 18 19
f 11 19 20
f 11 20 12
f 12 21 22
f 12 22 13
f 12 20 21
f 13 22 23
f 14 24 44
f 14 44 69
f 14 69 97
f 14 97 125
f 14 125 154
f 14 154 153
f 14 153 177
f 14 177 200
f 14 200 226
f 14 226 225
f 14 225 243
f 14 243 227
f 14 227 201
f 14 201 178
f 14 178 155
f 14 155 126
f 14 126 98
f 14 98 70
f 14 70 45
f 14 45 25
f 16 25 27
f 16 27 28
f 16 28 29
f 16 29 30
f 16 30 31
f 16 31 32
f 16 32 33
f 16 33 34
f 16 34 18
f 17 35 36
f 17 36 26
f 18 34 19
f 19 34 37
f 19 37 20
f 20 37 38
f 20 38 21
f 21 38 22
f 22 38 39
f 22 39 40
f 22 40 41
f 22 41 23
f 23 41 42
f 24 43 44
f 25 45 46
f 25 46 27
f 26 36 47
f 26 47 48
f 26 48 49
f 26 49 50
f 27 46 51
f 27 51 28
f 28 51 52
f 28 52 29
f 29 52 30
f 30 52 31
f 31 52 53
f 31 53 32
f 32 53 54
f 32 54 33
f 33 54 34
f 34 54 37
f 35 55 56
f 35 56 36
f 36 56 57
f 36 57 47
f 37 54 58
f 37 58 38
f 38 58 59
f 38 59 39
f 39 59 40
f 40 59 60
f 40 60 61
f 40 61 62
f 40 62 41
f 41 63 64
f 41 64 65
f 41 65 66
f 41 66 42
f 41 62 63
f 43 67 68
f 43 68 44
f 44 68 69
f 45 70 71
f 45 71 46
f 46 71 72
f 46 72 73
f 46 73 51
f 47 57 74
f 47 74 48
f 48 74 75
f 48 75 49
f 49 75 76
f 49 76 77
f 49 77 50
f 51 73 78
f 51 78 79
f 51 79 80
f 51 80 81
f 51 81 52
f 52 81 53
f 53 81 80
f 53 80 59
f 53 59 54
f 54 59 58
f 55 82 83
f 55 83 56
f 56 83 84
f 56 84 57
f 57 84 85
f 57 85 74
f 59 80 86
f 59 86 60
f 60 86 87
f 60 87 61
f 61 87 62
f 62 87 86
f 62 86 88
f 62 88 63
f 63 88 89
f 63 89 64
f 64 89 90
f 64 90 91
f 64 91 92
f 64 92 65
f 67 93 94
f 67 94 95
f 67 95 68
f 68 95 96
f 68 96 69
f 69 96 97
f 70 98 99
f 70 99 71
f 71 99 100
f 71 100 72
f 72 101 73
f 72 100 102
f 72 102 101
f 73 101 103
f 73 103 78
f 74 85 104
f 74 104 75
f 75 104 105
f 75 105 76
f 76 105 106
f 76 106 107
f 76 107 77
f 77 107 108
f 78 103 79
f 79 103 86
f 79 86 80
f 82 109 83
f 83 109 110
f 83 110 111
f 83 111 84
f 84 111 112
f 84 112 85
f 85 113 104
f 85 112 113
f 86 103 114
f 86 114 88
f 88 114 115
f 88 115 116
f 88 116 89
f 89 116 117
f 89 117 118
f 89 118 90
f 90 118 91
f 91 118 119
f 93 120 94
f 94 121 95
f 94 120 107
f 94 107 121
f 95 121 122
f 95 122 96
f 96 122 123
f 96 123 124
f 96 124 125
f 96 125 97
f 98 126 99
f 99 126 127
f 99 127 128
f 99 128 100
f 100 128 129
f 100 129 102
f 101 130 103
f 101 102 131
f 101 131 130
f 102 129 132
f 102 132 131
f 103 130 114
f 104 113 105
f 105 113 112
f 105 112 133
f 105 133 134
f 105 134 135
f 105 135 106
f 106 135 121
f 106 121 107
f 107 136 137
f 107 137 108
f 107 120 136
f 109 138 139
f 109 139 110
f 110 139 140
f 110 140 111
f 111 140 112
f 112 140 141
f 112 141 142
f 112 142 133
f 114 131 143
f 114 143 115
f 114 130 131
f 115 144 145
f 115 145 116
f 115 143 144
f 116 145 117
f 117 146 118
f 117 145 146
f 118 146 147
f 118 147 148
f 118 148 119
f 121 135 149
f 121 149 122
f 122 149 150
f 122 150 123
f 123 150 151
f 123 151 124
f 124 151 152
f 124 152 153
f 124 153 154
f 124 154 125
f 126 155 156
f 126 156 127
f 127 156 128
f 128 156 157
f 128 157 158
f 128 158 129
f 129 158 132
f 131 132 159
f 131 159 143
f 132 158 160
f 132 160 161
f 132 161 159
f 133 142 134
f 134 142 162
f 134 162 135
f 135 162 163
f 135 163 150
f 135 150 149
f 138 164 139
f 139 164 165
f 139 165 166
f 139 166 140
f 140 166 167
f 140 167 141
f 141 167 168
f 141 168 162
f 141 162 142
f 143 159 144
f 144 159 169
f 144 169 170
f 144 170 145
f 145 170 146
f 146 170 171
f 146 171 172
f 146 172 147
f 147 172 173
f 147 173 148
f 150 174 151
f 150 163 174
f 151 175 176
f 151 176 152
f 151 174 175
f 152 176 177
f 152 177 153
f 155 178 156
f 156 178 179
f 156 179 180
f 156 180 157
f 157 180 181
f 157 181 158
f 158 181 182
f 158 182 160
f 159 161 169
f 160 182 161
f 161 182 183
f 161 183 169
f 162 168 184
f 162 184 185
f 162 185 163
f 163 185 174
f 164 186 187
f 164 187 165
f 165 187 166
f 166 187 188
f 166 188 189
f 166 189 167
f 167 190 168
f 167 189 190
f 168 190 191
f 168 191 184
f 169 183 192
f 169 192 170
f 170 192 193
f 170 193 171
f 171 193 194
f 171 194 195
f 171 195 172
f 172 195 196
f 172 196 173
f 174 185 197
f 174 197 175
f 175 197 198
f 175 198 199
f 175 199 176
f 176 199 200
f 176 200 177
f 178 201 179
f 179 202 180
f 179 201 202
f 180 202 203
f 180 203 204
f 180 204 181
f 181 204 205
f 181 205 182
f 182 205 206
f 182 206 183
f 183 206 207
f 183 207 192
f 184 191 208
f 184 208 185
f 185 208 197
f 186 209 210
f 186 210 187
f 187 210 211
f 187 211 188
f 188 211 189
f 189 211 212
f 189 212 213
f 189 213 214
f 189 214 191
f 189 191 190
f 191 214 215
f 191 215 208
f 192 207 193
f 193 207 216
f 193 216 194
f 194 216 217
f 194 217 218
f 194 218 219
f 194 219 195
f 195 219 196
f 196 219 220
f 197 208 215
f 197 215 221
f 197 221 198
f 198 221 222
f 198 222 223
f 198 223 224
f 198 224 199
f 199 224 225
f 199 225 226
f 199 226 200
f 201 227 202
f 202 227 228
f 202 228 229
f 202 229 203
f 203 229 230
f 203 230 204
f 204 230 231
f 204 231 205
f 205 231 206
f 206 231 232
f 206 232 233
f 206 233 234
f 206 234 207
f 207 234 216
f 209 235 210
f 210 235 236
f 210 236 237
f 210 237 211
f 211 237 238
f 211 238 212
f 212 238 239
f 212 239 213
f 213 239 240
f 213 240 214
f 214 240 241
f 214 241 215
f 215 241 222
f 215 222 221
f 216 234 217
f 217 238 237
f 217 237 218
f 217 234 233
f 217 233 232
f 217 232 238
f 218 237 236
f 218 236 219
f 219 236 220
f 220 236 242
f 222 230 229
f 222 229 223
f 222 241 230
f 223 229 228
f 223 228 224
f 224 228 243
f 224 243 225
f 227 243 228
f 230 241 231
f 231 241 232
f 232 241 240
f 232 240 244
f 232 244 238
f 235 242 236
f 238 244 239
f 239 244 240

