# https://github.com/mikedh/trimesh
v 0.02554756 0.04391639 0.01296132
v 0.01892167 0.04726741 0.01296132
v 0.02554756 0.05285206 0.01296132
v 0.02554756 0.04680325 0.03025090
v 0.01892167 0.04990407 0.03057663
v 0.01892167 0.04987350 0.03038199
v 0.01892167 0.04970482 0.02926576
v 0.01892167 0.05544118 0.01296132
v 0.02472192 0.05319962 0.01296132
v 0.02431721 0.05341245 0.01712829
v 0.02553070 0.05289961 0.01712829
v 0.02554756 0.05289169 0.01712829
v 0.02554756 0.04684740 0.03051308
v 0.02554756 0.04700250 0.03113077
v 0.02554756 0.04700589 0.03114269
v 0.01892167 0.05009993 0.03120625
v 0.01990816 0.05509589 0.01296132
v 0.01892167 0.05546042 0.01404974
v 0.01946194 0.05527929 0.01429999
v 0.02213149 0.05424115 0.01296132
v 0.02258550 0.05407926 0.01421459
v 0.02394298 0.05357774 0.01793468
v 0.02554756 0.05289395 0.01781154
v 0.02554756 0.04719495 0.03171073
v 0.01892167 0.05016106 0.03134528
v 0.02005474 0.05504494 0.01303083
v 0.02008652 0.05503136 0.01296132
v 0.01892167 0.05548193 0.01559497
v 0.02014230 0.05504042 0.01615905
v 0.02073380 0.05481173 0.01489187
v 0.02162625 0.05444380 0.01296132
v 0.02131882 0.05457512 0.01362271
v 0.02267565 0.05407926 0.01734280
v 0.02207507 0.05430681 0.01862785
v 0.02335018 0.05380189 0.01923760
v 0.02461815 0.05327094 0.01985133
v 0.02521160 0.05303659 0.01852656
v 0.02554756 0.05288036 0.01868346
v 0.02554756 0.04724250 0.03181600
v 0.01892167 0.05037276 0.03179018
v 0.02108144 0.05465210 0.01296132
v 0.01892167 0.05546835 0.01712829
v 0.01943859 0.05529061 0.01712829
v 0.02140833 0.05456154 0.01675092
v 0.01954885 0.05524985 0.01742821
v 0.02221776 0.05425360 0.01712829
v 0.02150951 0.05448455 0.01993276
v 0.02254464 0.05409964 0.02021877
v 0.02438466 0.05332868 0.02143828
v 0.02554756 0.05281584 0.02116419
v 0.02554756 0.05283961 0.02029226
v 0.02533807 0.05289735 0.02161107
v 0.02554756 0.04741911 0.03218344
v 0.01892167 0.05064333 0.03223309
v 0.01892167 0.05543552 0.01860600
v 0.01895605 0.05542193 0.01869737
v 0.02151016 0.05445059 0.02123569
v 0.02248432 0.05403737 0.02282859
v 0.02276126 0.05397511 0.02149389
v 0.02318025 0.05371472 0.02383955
v 0.02451956 0.05313169 0.02402625
v 0.02554756 0.05279999 0.02154553
v 0.02554756 0.05276942 0.02221884
v 0.02554756 0.04755949 0.03240986
v 0.02554756 0.04769195 0.03254492
v 0.01892167 0.05074636 0.03233637
v 0.01892167 0.05543325 0.01868148
v 0.01892167 0.05533023 0.02156738
v 0.01904231 0.05527929 0.02190900
v 0.01959360 0.05505287 0.02312850
v 0.02024672 0.05486154 0.02227445
v 0.02150043 0.05439172 0.02313844
v 0.02211658 0.05407473 0.02476312
v 0.02295519 0.05366718 0.02565888
v 0.02552162 0.05264375 0.02446917
v 0.02554756 0.05270036 0.02343437
v 0.02482764 0.05288942 0.02527357
v 0.02554756 0.04787195 0.03270382
v 0.01892167 0.05114032 0.03267601
v 0.01892167 0.05530419 0.02223274
v 0.01892167 0.05525551 0.02346417
v 0.01892167 0.05523174 0.02400440
v 0.01892167 0.05517853 0.02521199
v 0.02001777 0.05485248 0.02452478
v 0.02058658 0.05455814 0.02608194
v 0.02197583 0.05391058 0.02712467
v 0.02355967 0.05324264 0.02711673
v 0.02554756 0.05262112 0.02456649
v 0.02554756 0.05263017 0.02447314
v 0.02554756 0.05263696 0.02438575
v 0.02554756 0.05248413 0.02586544
v 0.02456497 0.05277282 0.02719220
v 0.02554756 0.04798063 0.03277134
v 0.01892167 0.05161468 0.03298386
v 0.01892167 0.05512419 0.02615741
v 0.01960333 0.05486041 0.02679298
v 0.01910587 0.05487286 0.02851698
v 0.02031612 0.05441663 0.02837000
v 0.02164700 0.05375095 0.02899961
v 0.02312123 0.05320754 0.02841370
v 0.02554756 0.05240149 0.02653081
v 0.02554756 0.05224186 0.02756362
v 0.02554756 0.04830441 0.03291038
v 0.01892167 0.05179129 0.03306133
v 0.01892167 0.05506419 0.02712666
v 0.01892167 0.05495551 0.02831240
v 0.01892167 0.05493286 0.02854875
v 0.01892167 0.05480494 0.02946636
v 0.01897940 0.05478456 0.02946040
v 0.01970775 0.05446983 0.02959745
v 0.02045491 0.05417209 0.02950212
v 0.02107561 0.05367057 0.03037007
v 0.02554756 0.05197695 0.02881490
v 0.02554756 0.05212978 0.02810584
v 0.02554756 0.04872895 0.03303551
v 0.01892167 0.05215016 0.03315865
v 0.01892167 0.05473701 0.02980203
v 0.01892167 0.05459776 0.03048725
v 0.01892167 0.05455814 0.03065409
v 0.01998729 0.05407813 0.03072758
v 0.02554756 0.05171204 0.02980203
v 0.02554756 0.04879348 0.03304345
v 0.01892167 0.05247168 0.03322022
v 0.01892167 0.05445852 0.03099770
v 0.01901766 0.05434757 0.03124001
v 0.02065273 0.05355057 0.03130754
v 0.02554756 0.05145618 0.03049917
v 0.02554756 0.04918519 0.03295805
v 0.01892167 0.05303207 0.03320632
v 0.01892167 0.05279206 0.03325200
v 0.01892167 0.05438719 0.03123604
v 0.01892167 0.05433059 0.03138500
v 0.01892167 0.05409171 0.03197092
v 0.01950345 0.05385850 0.03191531
v 0.02554756 0.05117542 0.03107714
v 0.02554756 0.04956897 0.03286470
v 0.01892167 0.05336490 0.03294811
v 0.02554756 0.04969237 0.03278326
v 0.02554756 0.04996747 0.03259458
v 0.01952874 0.05284301 0.03308119
v 0.01941589 0.05328792 0.03278922
v 0.01892167 0.05391284 0.03231254
v 0.01892167 0.05382227 0.03246349
v 0.01984525 0.05343057 0.03233836
v 0.02554756 0.05081655 0.03164320
v 0.01892167 0.05354038 0.03280710
v 0.02554756 0.05012483 0.03247541
v 0.02554756 0.05030257 0.03232247
v 0.02554756 0.05057314 0.03200071
f 1 2 8
f 1 8 17
f 1 17 27
f 1 27 41
f 1 41 31
f 1 31 20
f 1 20 9
f 1 9 3
f 1 3 12
f 1 12 23
f 1 23 38
f 1 38 51
f 1 51 50
f 1 50 62
f 1 62 63
f 1 63 76
f 1 76 90
f 1 90 89
f 1 89 88
f 1 88 91
f 1 91 101
f 1 101 102
f 1 102 114
f 1 114 113
f 1 113 121
f 1 121 127
f 1 127 135
f 1 135 145
f 1 145 149
f 1 149 148
f 1 148 147
f 1 147 139
f 1 139 138
f 1 138 136
f 1 136 128
f 1 128 122
f 1 122 115
f 1 115 103
f 1 103 93
f 1 93 78
f 1 78 65
f 1 65 64
f 1 64 53
f 1 53 39
f 1 39 24
f 1 24 15
f 1 15 14
f 1 14 13
f 1 13 4
f 1 4 5
f 1 5 6
f 1 6 7
f 1 7 2
f 2 7 6
f 2 6 5
f 2 5 16
f 2 16 25
f 2 25 40
f 2 40 54
f 2 54 66
f 2 66 79
f 2 79 94
f 2 94 104
f 2 104 116
f 2 116 123
f 2 123 130
f 2 130 129
f 2 129 137
f 2 137 146
f 2 146 143
f 2 143 142
f 2 142 133
f 2 133 132
f 2 132 131
f 2 131 124
f 2 124 119
f 2 119 118
f 2 118 117
f 2 117 108
f 2 108 107
f 2 107 106
f 2 106 105
f 2 105 95
f 2 95 83
f 2 83 82
f 2 82 81
f 2 81 80
f 2 80 68
f 2 68 67
f 2 67 55
f 2 55 42
f 2 42 28
f 2 28 18
f 2 18 8
f 3 9 10
f 3 10 11
f 3 11 12
f 4 13 5
f 5 13 14
f 5 14 15
f 5 15 16
f 8 18 19
f 8 19 17
f 9 20 21
f 9 21 22
f 9 22 10
f 10 22 11
f 11 22 23
f 11 23 12
f 15 24 16
f 16 24 25
f 17 26 27
f 17 19 26
f 18 28 19
f 19 28 29
f 19 29 30
f 19 30 26
f 20 31 21
f 21 31 32
f 21 32 33
f 21 33 22
f 22 34 35
f 22 35 36
f 22 36 37
f 22 37 23
f 22 33 34
f 23 37 38
f 24 39 25
f 25 39 40
f 26 41 27
f 26 30 32
f 26 32 41
f 28 42 43
f 28 43 29
f 29 44 30
f 29 43 45
f 29 45 34
f 29 34 44
f 30 44 46
f 30 46 33
f 30 33 32
f 31 41 32
f 33 46 34
f 34 45 47
f 34 47 48
f 34 48 35
f 34 46 44
f 35 48 49
f 35 49 36
f 36 50 51
f 36 51 37
f 36 49 52
f 36 52 50
f 37 51 38
f 39 53 40
f 40 53 54
f 42 55 56
f 42 56 45
f 42 45 43
f 45 56 57
f 45 57 47
f 47 57 48
f 48 57 58
f 48 58 59
f 48 59 49
f 49 59 58
f 49 58 60
f 49 60 61
f 49 61 52
f 50 52 62
f 52 61 63
f 52 63 62
f 53 64 54
f 54 64 65
f 54 65 66
f 55 67 56
f 56 67 68
f 56 68 69
f 56 69 70
f 56 70 71
f 56 71 57
f 57 71 72
f 57 72 58
f 58 72 73
f 58 73 60
f 60 73 74
f 60 74 61
f 61 75 76
f 61 76 63
f 61 74 77
f 61 77 75
f 65 78 66
f 66 78 79
f 68 80 69
f 69 80 81
f 69 81 70
f 70 81 82
f 70 82 83
f 70 83 84
f 70 84 71
f 71 84 72
f 72 84 85
f 72 85 73
f 73 85 74
f 74 85 86
f 74 86 87
f 74 87 77
f 75 88 89
f 75 89 90
f 75 90 76
f 75 77 91
f 75 91 88
f 77 87 92
f 77 92 91
f 78 93 94
f 78 94 79
f 83 95 96
f 83 96 84
f 84 96 85
f 85 96 97
f 85 97 86
f 86 97 98
f 86 98 87
f 87 98 99
f 87 99 100
f 87 100 92
f 91 92 101
f 92 100 102
f 92 102 101
f 93 103 104
f 93 104 94
f 95 105 96
f 96 105 106
f 96 106 97
f 97 106 107
f 97 107 108
f 97 108 109
f 97 109 98
f 98 109 110
f 98 110 111
f 98 111 99
f 99 111 112
f 99 112 113
f 99 113 100
f 100 114 102
f 100 113 114
f 103 115 104
f 104 115 116
f 108 117 109
f 109 117 118
f 109 118 110
f 110 118 111
f 111 118 119
f 111 119 120
f 111 120 112
f 112 120 121
f 112 121 113
f 115 122 123
f 115 123 116
f 119 124 125
f 119 125 120
f 120 125 126
f 120 126 121
f 121 126 127
f 122 128 129
f 122 129 130
f 122 130 123
f 124 131 125
f 125 131 132
f 125 132 133
f 125 133 134
f 125 134 126
f 126 134 127
f 127 134 135
f 128 136 129
f 129 136 138
f 129 138 139
f 129 139 140
f 129 140 141
f 129 141 137
f 133 142 134
f 134 142 143
f 134 143 144
f 134 144 135
f 135 144 145
f 137 141 146
f 139 147 140
f 140 147 141
f 141 147 148
f 141 148 144
f 141 144 146
f 143 146 144
f 144 148 149
f 144 149 145

