# https://github.com/mikedh/trimesh
v -0.02885290 0.00011300 -0.03144016
v -0.02879224 0.00084951 -0.03070542
v -0.02880327 0.00144776 -0.03146033
v -0.02880170 0.00106969 -0.03228637
v -0.02884029 -0.00032480 -0.03202837
v -0.02885211 -0.00032480 -0.03143962
v -0.02883478 -0.00032480 -0.03094113
v -0.02882454 -0.00032480 -0.03075798
v -0.02861817 0.00052094 -0.02916164
v -0.02859847 0.00099374 -0.02916164
v -0.02864967 0.00134791 -0.02972808
v -0.02870245 0.00223206 -0.03074471
v -0.02879697 -0.00032480 -0.03049042
v -0.02872214 0.00003022 -0.02985868
v -0.02868354 0.00282860 -0.03140140
v -0.02868906 0.00267840 -0.03215472
v -0.02869851 0.00004302 -0.03289741
v -0.02883242 -0.00032480 -0.03222745
v -0.02859296 0.00273814 -0.03283052
v -0.02863471 -0.00000647 -0.02916164
v -0.02854964 0.00169184 -0.02916164
v -0.02851734 0.00273814 -0.02963252
v -0.02855436 0.00351902 -0.03064066
v -0.02866070 -0.00032480 -0.02935063
v -0.02863628 -0.00020106 -0.02916164
v -0.02863707 -0.00032480 -0.02916164
v -0.02850947 0.00411300 -0.03125860
v -0.02851104 0.00411300 -0.03134672
v -0.02858272 0.00363423 -0.03202730
v -0.02844409 0.00413093 -0.03272435
v -0.02861187 0.00145203 -0.03298023
v -0.02838816 0.00044755 -0.03336193
v -0.02858981 -0.00032480 -0.03307101
v -0.02869536 -0.00032480 -0.03289794
v -0.02879697 -0.00032480 -0.03241060
v -0.02810775 0.00409338 -0.03339537
v -0.02822826 0.00303769 -0.03339643
v -0.02849844 0.00227388 -0.02916164
v -0.02843621 0.00290370 -0.02916164
v -0.02834720 0.00360010 -0.02916164
v -0.02835508 0.00411300 -0.02973073
v -0.02845905 0.00411300 -0.03058173
v -0.02850553 0.00411300 -0.03118852
v -0.02850001 0.00418042 -0.03125116
v -0.02254198 -0.00032480 -0.02916164
v -0.02841337 0.00474795 -0.03203580
v -0.02851025 0.00411300 -0.03203102
v -0.02815973 0.00564319 -0.03267816
v -0.02793603 0.00546995 -0.03330035
v -0.02826686 0.00172086 -0.03344687
v -0.02800377 0.00100739 -0.03379459
v -0.02802031 -0.00025055 -0.03379512
v -0.02840470 -0.00032480 -0.03335237
v -0.02809751 0.00411300 -0.03340227
v -0.02791477 0.00278764 -0.03375743
v -0.02827789 0.00411300 -0.02916164
v -0.02831963 0.00411300 -0.02946477
v -0.02831255 0.00423846 -0.02953856
v -0.02832672 0.00493144 -0.03050051
v -0.02824087 0.00560223 -0.03113119
v -0.02313038 -0.00032480 -0.03256455
v -0.02125491 0.00839293 -0.03247961
v -0.02080672 0.00839293 -0.02916164
v -0.02822669 0.00571318 -0.03201297
v -0.02779031 0.00646760 -0.03314533
v -0.02786987 0.00696003 -0.03249448
v -0.02747839 0.00756767 -0.03317294
v -0.02725390 0.00693016 -0.03368098
v -0.02742483 0.00534194 -0.03385936
v -0.02768713 0.00138375 -0.03403773
v -0.02766428 -0.00001842 -0.03405897
v -0.02766428 -0.00032480 -0.03405260
v -0.02799590 -0.00032480 -0.03381052
v -0.02801795 -0.00032480 -0.03379406
v -0.02806443 -0.00032480 -0.03374416
v -0.02744531 0.00442194 -0.03394642
v -0.02826922 0.00417445 -0.02916164
v -0.02819439 0.00461994 -0.02916164
v -0.02802898 0.00552713 -0.02916164
v -0.02803764 0.00562101 -0.02935965
v -0.02796203 0.00653332 -0.03020534
v -0.02792343 0.00692162 -0.03099740
v -0.02809987 0.00632423 -0.03168807
v -0.02333597 -0.00032480 -0.03322443
v -0.02136046 0.00839293 -0.03291652
v -0.02135416 0.00839293 -0.03289476
v -0.02728226 0.00839293 -0.02916164
v -0.02789744 0.00710426 -0.03187335
v -0.02731691 0.00836988 -0.03301367
v -0.02752329 0.00828369 -0.03231345
v -0.02730510 0.00839293 -0.03302004
v -0.02688211 0.00839293 -0.03359180
v -0.02683013 0.00839293 -0.03365550
v -0.02659146 0.00781004 -0.03402765
v -0.02672773 0.00664341 -0.03413488
v -0.02748548 0.00289517 -0.03403773
v -0.02672773 0.00571232 -0.03419275
v -0.02677972 0.00457556 -0.03421080
v -0.02674506 0.00411300 -0.03423203
v -0.02638745 0.00411300 -0.03433078
v -0.02667495 0.00316741 -0.03427397
v -0.02721058 0.00150921 -0.03415824
v -0.02638509 0.00006863 -0.03436634
v -0.02751068 -0.00032480 -0.03409241
v -0.02629293 0.00155359 -0.03438864
v -0.02796754 0.00580193 -0.02916164
v -0.02769658 0.00694893 -0.02916164
v -0.02757842 0.00740295 -0.02916164
v -0.02769737 0.00724422 -0.02967977
v -0.02749257 0.00822224 -0.03036619
v -0.02772415 0.00772128 -0.03152828
v -0.02373375 -0.00032480 -0.03374150
v -0.02162197 0.00839293 -0.03354508
v -0.02160228 0.00839293 -0.03350261
v -0.02732794 0.00839293 -0.02949290
v -0.02752171 0.00839293 -0.03166843
v -0.02750596 0.00839293 -0.03200289
v -0.02731061 0.00839293 -0.03300996
v -0.02748784 0.00839293 -0.03229858
v -0.02747839 0.00839293 -0.03234477
v -0.02746657 0.00839293 -0.03239308
v -0.02676002 0.00839293 -0.03371762
v -0.02631971 0.00839293 -0.03404994
v -0.02582426 0.00838695 -0.03429999
v -0.02599282 0.00680300 -0.03437165
v -0.02602984 0.00528476 -0.03440085
v -0.02591878 0.00411300 -0.03444492
v -0.02588885 0.00379809 -0.03445659
v -0.02596840 0.00003022 -0.03446084
v -0.02605584 -0.00032480 -0.03443642
v -0.02636618 -0.00032480 -0.03436528
v -0.02661273 -0.00032480 -0.03430742
v -0.02578566 0.00284226 -0.03448579
v -0.02580535 0.00122672 -0.03449323
v -0.02740041 0.00839293 -0.03005404
v -0.02743428 0.00839293 -0.03036407
v -0.02745003 0.00839293 -0.03054616
v -0.02405276 -0.00032480 -0.03398730
v -0.02208513 0.00839293 -0.03402446
v -0.02181889 0.00839293 -0.03377229
v -0.02165348 0.00839293 -0.03358330
v -0.02582268 0.00839293 -0.03429946
v -0.02507517 0.00839293 -0.03453092
v -0.02509171 0.00829308 -0.03453463
v -0.02502712 0.00753780 -0.03456755
v -0.02591799 -0.00032480 -0.03446243
v -0.02555960 -0.00032480 -0.03447305
v -0.02497041 0.00645480 -0.03457551
v -0.02431585 -0.00032480 -0.03417948
v -0.02212924 0.00839293 -0.03405207
v -0.02503185 0.00839293 -0.03453623
v -0.02471520 0.00839293 -0.03456011
v -0.02423314 0.00839293 -0.03458507
v -0.02543357 -0.00032480 -0.03446987
v -0.02467976 -0.00032480 -0.03432069
v -0.02271606 0.00839293 -0.03436369
v -0.02231356 0.00839293 -0.03416036
v -0.02368412 0.00839293 -0.03453835
v -0.02526894 -0.00032480 -0.03444651
v -0.02487353 -0.00032480 -0.03438970
v -0.02273182 0.00839293 -0.03436900
v -0.02343758 0.00839293 -0.03449747
v -0.02276096 0.00839293 -0.03437537
f 1 2 3
f 1 3 4
f 1 4 5
f 1 5 6
f 1 6 7
f 1 7 8
f 1 8 2
f 2 9 10
f 2 10 11
f 2 11 12
f 2 12 3
f 2 8 13
f 2 13 14
f 2 14 9
f 3 12 15
f 3 15 16
f 3 16 4
f 4 17 18
f 4 18 5
f 4 16 19
f 4 19 17
f 5 18 35
f 5 35 34
f 5 34 33
f 5 33 53
f 5 53 75
f 5 75 74
f 5 74 73
f 5 73 72
f 5 72 104
f 5 104 132
f 5 132 131
f 5 131 130
f 5 130 146
f 5 146 147
f 5 147 154
f 5 154 159
f 5 159 160
f 5 160 155
f 5 155 149
f 5 149 138
f 5 138 112
f 5 112 84
f 5 84 61
f 5 61 45
f 5 45 26
f 5 26 24
f 5 24 13
f 5 13 8
f 5 8 7
f 5 7 6
f 9 14 20
f 9 20 25
f 9 25 26
f 9 26 45
f 9 45 63
f 9 63 87
f 9 87 108
f 9 108 107
f 9 107 106
f 9 106 79
f 9 79 78
f 9 78 77
f 9 77 56
f 9 56 40
f 9 40 39
f 9 39 38
f 9 38 21
f 9 21 10
f 10 21 11
f 11 21 12
f 12 21 22
f 12 22 23
f 12 23 15
f 13 24 14
f 14 25 20
f 14 24 26
f 14 26 25
f 15 23 27
f 15 27 28
f 15 28 29
f 15 29 16
f 16 29 30
f 16 30 19
f 17 19 31
f 17 31 32
f 17 32 33
f 17 33 34
f 17 34 35
f 17 35 18
f 19 36 37
f 19 37 31
f 19 30 36
f 21 38 22
f 22 38 39
f 22 39 23
f 23 40 41
f 23 41 42
f 23 42 43
f 23 43 44
f 23 44 27
f 23 39 40
f 27 44 28
f 28 44 46
f 28 46 47
f 28 47 29
f 29 47 30
f 30 46 48
f 30 48 49
f 30 49 36
f 30 47 46
f 31 37 50
f 31 50 32
f 32 50 51
f 32 51 52
f 32 52 53
f 32 53 33
f 36 54 55
f 36 55 37
f 36 49 54
f 37 55 51
f 37 51 50
f 40 56 57
f 40 57 41
f 41 57 58
f 41 58 59
f 41 59 42
f 42 59 44
f 42 44 43
f 44 59 60
f 44 60 46
f 45 61 62
f 45 62 63
f 46 60 64
f 46 64 48
f 48 65 49
f 48 64 66
f 48 66 65
f 49 65 67
f 49 67 68
f 49 68 69
f 49 69 54
f 51 70 52
f 51 55 70
f 52 70 71
f 52 71 72
f 52 72 73
f 52 73 74
f 52 74 75
f 52 75 53
f 54 69 55
f 55 69 76
f 55 76 70
f 56 77 58
f 56 58 57
f 58 77 78
f 58 78 59
f 59 78 79
f 59 79 80
f 59 80 81
f 59 81 60
f 60 81 82
f 60 82 83
f 60 83 64
f 61 84 85
f 61 85 86
f 61 86 62
f 62 86 85
f 62 85 114
f 62 114 113
f 62 113 141
f 62 141 140
f 62 140 139
f 62 139 150
f 62 150 157
f 62 157 156
f 62 156 161
f 62 161 163
f 62 163 162
f 62 162 158
f 62 158 153
f 62 153 152
f 62 152 151
f 62 151 143
f 62 143 142
f 62 142 123
f 62 123 122
f 62 122 93
f 62 93 92
f 62 92 91
f 62 91 118
f 62 118 121
f 62 121 120
f 62 120 119
f 62 119 117
f 62 117 116
f 62 116 137
f 62 137 136
f 62 136 135
f 62 135 115
f 62 115 87
f 62 87 63
f 64 83 88
f 64 88 66
f 65 66 89
f 65 89 67
f 66 88 90
f 66 90 89
f 67 89 91
f 67 91 92
f 67 92 93
f 67 93 68
f 68 93 94
f 68 94 69
f 69 95 76
f 69 94 95
f 70 96 97
f 70 97 98
f 70 98 99
f 70 99 100
f 70 100 101
f 70 101 102
f 70 102 71
f 70 76 96
f 71 103 104
f 71 104 72
f 71 102 105
f 71 105 103
f 76 95 96
f 79 106 81
f 79 81 80
f 81 106 107
f 81 107 108
f 81 108 109
f 81 109 110
f 81 110 82
f 82 110 111
f 82 111 88
f 82 88 83
f 84 112 113
f 84 113 114
f 84 114 85
f 87 115 108
f 88 111 116
f 88 116 117
f 88 117 90
f 89 90 118
f 89 118 91
f 90 117 119
f 90 119 120
f 90 120 121
f 90 121 118
f 93 122 94
f 94 122 123
f 94 123 124
f 94 124 95
f 95 125 97
f 95 97 96
f 95 124 125
f 97 125 98
f 98 125 126
f 98 126 99
f 99 126 100
f 100 126 127
f 100 127 101
f 101 127 128
f 101 128 105
f 101 105 102
f 103 129 130
f 103 130 131
f 103 131 132
f 103 132 104
f 103 105 129
f 105 128 133
f 105 133 134
f 105 134 129
f 108 115 109
f 109 115 110
f 110 115 135
f 110 135 136
f 110 136 137
f 110 137 116
f 110 116 111
f 112 138 139
f 112 139 140
f 112 140 141
f 112 141 113
f 123 142 124
f 124 142 143
f 124 143 144
f 124 144 125
f 125 144 126
f 126 144 145
f 126 145 127
f 127 145 128
f 128 145 133
f 129 134 146
f 129 146 130
f 133 145 134
f 134 147 146
f 134 145 148
f 134 148 147
f 138 149 139
f 139 149 150
f 143 151 144
f 144 151 145
f 145 151 152
f 145 152 153
f 145 153 148
f 147 148 154
f 148 153 154
f 149 155 156
f 149 156 157
f 149 157 150
f 153 158 154
f 154 158 159
f 155 160 156
f 156 160 161
f 158 162 160
f 158 160 159
f 160 162 163
f 160 163 161

