# https://github.com/mikedh/trimesh
v 0.01327653 0.05172691 -0.01033054
v 0.01395199 0.05154794 -0.01033054
v 0.01437993 0.05088796 -0.01124837
v 0.01329993 0.05073694 -0.01195015
v 0.01327653 0.05073694 -0.01195611
v 0.01327653 0.02641273 -0.01033054
v 0.01471366 0.05132701 -0.01033054
v 0.01471981 0.05088236 -0.01108894
v 0.01471920 0.05071177 -0.01136310
v 0.01471735 0.04993993 -0.01254614
v 0.01327653 0.05014687 -0.01281583
v 0.01381961 0.04993713 -0.01290821
v 0.01327653 0.02490820 -0.01082671
v 0.01389288 0.02594571 -0.01033054
v 0.01549748 0.05109769 -0.01033054
v 0.01564772 0.05086558 -0.01065387
v 0.01647035 0.04979451 -0.01195611
v 0.01612122 0.04938063 -0.01272792
v 0.01471981 0.04933308 -0.01336563
v 0.01327653 0.04981968 -0.01324941
v 0.01456711 0.04932469 -0.01343566
v 0.01327653 0.04926317 -0.01396908
v 0.01510034 0.02512633 -0.01033054
v 0.01327653 0.02380637 -0.01121559
v 0.01634412 0.05084321 -0.01033054
v 0.01743335 0.04974138 -0.01155829
v 0.01788653 0.04888564 -0.01256402
v 0.01682747 0.04874022 -0.01324345
v 0.01540451 0.04865073 -0.01395567
v 0.01471981 0.04920445 -0.01352953
v 0.01339537 0.04919046 -0.01401973
v 0.01327653 0.04907581 -0.01418661
v 0.01327653 0.02315757 -0.01144952
v 0.01543899 0.02495295 -0.01033054
v 0.01700911 0.05063067 -0.01033054
v 0.01788653 0.04975256 -0.01128413
v 0.01788653 0.04950367 -0.01166407
v 0.01936553 0.04872903 -0.01200528
v 0.01956626 0.04776144 -0.01317939
v 0.01788653 0.04886047 -0.01259680
v 0.01757066 0.04820888 -0.01358019
v 0.01654731 0.04814735 -0.01409870
v 0.01471981 0.04859480 -0.01427899
v 0.01587185 0.04766356 -0.01491223
v 0.01438608 0.04856404 -0.01443693
v 0.01327653 0.04848294 -0.01486902
v 0.01393229 0.02315757 -0.01133479
v 0.01628193 0.02459499 -0.01033054
v 0.01327653 0.02315757 -0.02555219
v 0.01857246 0.05009094 -0.01033054
v 0.01877689 0.04977494 -0.01074029
v 0.01956626 0.04871785 -0.01190247
v 0.01956626 0.04859480 -0.01207829
v 0.01956626 0.04743424 -0.01359211
v 0.01788653 0.04802431 -0.01366214
v 0.01868884 0.04755169 -0.01386478
v 0.01788653 0.04743424 -0.01434753
v 0.01735146 0.04735314 -0.01466639
v 0.01471981 0.04836269 -0.01454421
v 0.01731082 0.04688053 -0.01519980
v 0.01570745 0.04688053 -0.01578834
v 0.01471920 0.04767474 -0.01531304
v 0.01471920 0.04774186 -0.01524152
v 0.01327653 0.04820888 -0.01517894
v 0.01564588 0.02315757 -0.01106808
v 0.01703744 0.02437686 -0.01033054
v 0.01956626 0.02315757 -0.02555219
v 0.01327653 0.02769354 -0.02555219
v 0.01956626 0.04972180 -0.01033054
v 0.01956626 0.04969943 -0.01037375
v 0.01956626 0.04930792 -0.01098762
v 0.01956626 0.04693366 -0.01418512
v 0.01788653 0.04663164 -0.01523407
v 0.01788653 0.04629326 -0.01558124
v 0.01788653 0.04605835 -0.01581516
v 0.01664398 0.04620936 -0.01611614
v 0.01544515 0.04599123 -0.01671958
v 0.01471920 0.04660367 -0.01637093
v 0.01434237 0.04691968 -0.01618766
v 0.01327653 0.04749297 -0.01593138
v 0.01462807 0.04774466 -0.01526685
v 0.01719014 0.02315757 -0.01087289
v 0.01754542 0.02424822 -0.01033054
v 0.01956626 0.02364976 -0.02555219
v 0.01956626 0.02315757 -0.01068367
v 0.01327653 0.02938265 -0.02518565
v 0.01471981 0.02938544 -0.02504113
v 0.01400679 0.02732720 -0.02555219
v 0.01956626 0.02390704 -0.01033054
v 0.01956626 0.04680782 -0.01432369
v 0.01883785 0.04620936 -0.01529069
v 0.01814822 0.04602479 -0.01575109
v 0.01788653 0.04576751 -0.01609826
v 0.01760268 0.04548506 -0.01647671
v 0.01562310 0.04499287 -0.01752864
v 0.01471981 0.04605835 -0.01686858
v 0.01722093 0.04476635 -0.01723511
v 0.01396308 0.04612547 -0.01702056
v 0.01327653 0.04734755 -0.01606995
v 0.01788653 0.02315757 -0.01081628
v 0.01845609 0.02408882 -0.01033054
v 0.01940063 0.02379239 -0.02555219
v 0.01956626 0.02518506 -0.02527654
v 0.01956626 0.02388467 -0.01033948
v 0.01866359 0.02315757 -0.01075370
v 0.01327653 0.03056558 -0.02492193
v 0.01449569 0.03078371 -0.02473866
v 0.01610091 0.02938824 -0.02487127
v 0.01769627 0.02798718 -0.02498153
v 0.01623945 0.02798438 -0.02515585
v 0.01685579 0.02569682 -0.02555219
v 0.01956626 0.04617021 -0.01501206
v 0.01956626 0.04590454 -0.01529665
v 0.01956626 0.04506838 -0.01612061
v 0.01956626 0.04500126 -0.01618617
v 0.01788653 0.04541235 -0.01643797
v 0.01788653 0.04516905 -0.01666147
v 0.01788653 0.04344359 -0.01808142
v 0.01626407 0.04338487 -0.01859845
v 0.01471981 0.04485864 -0.01788773
v 0.01788653 0.04469924 -0.01707271
v 0.01788653 0.04426018 -0.01743179
v 0.01327653 0.04624012 -0.01709059
v 0.01792779 0.02495854 -0.02555219
v 0.01938954 0.02518785 -0.02530187
v 0.01927132 0.02658332 -0.02504411
v 0.01956626 0.02658612 -0.02499941
v 0.01327653 0.03078651 -0.02486978
v 0.01327653 0.03218477 -0.02451367
v 0.01433128 0.03219316 -0.02439447
v 0.01471981 0.03078651 -0.02471035
v 0.01755342 0.02938824 -0.02467757
v 0.01595128 0.03078930 -0.02455539
v 0.01914140 0.02798718 -0.02476697
v 0.01788653 0.02781939 -0.02498898
v 0.01781449 0.02503684 -0.02555219
v 0.01956626 0.04496491 -0.01622044
v 0.01834895 0.04464890 -0.01696096
v 0.01899917 0.04341004 -0.01775959
v 0.01945850 0.04212643 -0.01856716
v 0.01803677 0.04198660 -0.01909014
v 0.01666923 0.04197822 -0.01946711
v 0.01528998 0.04197822 -0.01982023
v 0.01488976 0.04337368 -0.01895753
v 0.01327653 0.04479432 -0.01827363
v 0.01956626 0.02798718 -0.02469843
v 0.01327653 0.03308525 -0.02425889
v 0.01327653 0.03359143 -0.02411138
v 0.01415272 0.03358303 -0.02400410
v 0.01471920 0.03359143 -0.02392811
v 0.01560401 0.03359143 -0.02380891
v 0.01579058 0.03218197 -0.02420078
v 0.01739518 0.03079210 -0.02434679
v 0.01899547 0.02938824 -0.02445556
v 0.01956626 0.04409798 -0.01700417
v 0.01949114 0.04409798 -0.01703248
v 0.01956626 0.04400290 -0.01708314
v 0.01956626 0.04339326 -0.01757483
v 0.01956626 0.04211245 -0.01854034
v 0.01956626 0.04202575 -0.01859994
v 0.01956626 0.04160627 -0.01888452
v 0.01956626 0.04057995 -0.01956992
v 0.01841607 0.04058274 -0.01990218
v 0.01788653 0.04058274 -0.02004522
v 0.01704544 0.04057995 -0.02027021
v 0.01389042 0.04197822 -0.02013015
v 0.01471981 0.04242286 -0.01964590
v 0.01565819 0.04057995 -0.02060843
v 0.01348834 0.04337927 -0.01927043
v 0.01327653 0.04341004 -0.01929725
v 0.01327653 0.04406442 -0.01881598
v 0.01956626 0.02888207 -0.02448387
v 0.01327653 0.03499248 -0.02365693
v 0.01395076 0.03498969 -0.02357051
v 0.01471920 0.03499248 -0.02345728
v 0.01539466 0.03498969 -0.02335894
v 0.01704421 0.03358303 -0.02357945
v 0.01723201 0.03218477 -0.02398622
v 0.01883538 0.03078930 -0.02411585
v 0.01956626 0.02938824 -0.02435722
v 0.01956626 0.03917889 -0.02042367
v 0.01876396 0.03918169 -0.02064866
v 0.01788653 0.03918448 -0.02087663
v 0.01738533 0.03918169 -0.02100626
v 0.01425678 0.04057995 -0.02091537
v 0.01327653 0.04135179 -0.02063823
v 0.01327653 0.04197822 -0.02025084
v 0.01599438 0.03918728 -0.02133703
v 0.01327653 0.03639075 -0.02313991
v 0.01371863 0.03639075 -0.02307584
v 0.01471981 0.03638795 -0.02291492
v 0.01515698 0.03638516 -0.02284340
v 0.01682378 0.03499248 -0.02311458
v 0.01788653 0.03358583 -0.02342748
v 0.01866359 0.03218757 -0.02374484
v 0.01788653 0.03218757 -0.02387596
v 0.01956626 0.03078651 -0.02398473
v 0.01956626 0.03778342 -0.02120442
v 0.01908352 0.03778622 -0.02133703
v 0.01788653 0.03877339 -0.02110460
v 0.01770366 0.03777783 -0.02168420
v 0.01458989 0.03918169 -0.02163652
v 0.01327653 0.04057995 -0.02109864
v 0.01630841 0.03777783 -0.02200156
v 0.01327653 0.03780579 -0.02253200
v 0.01346125 0.03777783 -0.02251859
v 0.01489099 0.03778342 -0.02227870
v 0.01657810 0.03639075 -0.02258415
v 0.01824305 0.03498689 -0.02284042
v 0.01788653 0.03408361 -0.02324868
v 0.01846963 0.03358303 -0.02332169
v 0.01956626 0.03218477 -0.02357200
v 0.01956626 0.03738352 -0.02141451
v 0.01788653 0.03778062 -0.02163801
v 0.01937969 0.03638516 -0.02196581
v 0.01798690 0.03638795 -0.02229360
v 0.01327653 0.03918169 -0.02186747
v 0.01788653 0.03638795 -0.02231446
v 0.01956626 0.03498969 -0.02254690
v 0.01956626 0.03358583 -0.02309670
v 0.01956626 0.03638516 -0.02191664
v 0.01956626 0.03622855 -0.02199113
v 0.01956626 0.03538400 -0.02237108
f 1 2 3
f 1 3 4
f 1 4 5
f 1 5 11
f 1 11 20
f 1 20 22
f 1 22 32
f 1 32 46
f 1 46 64
f 1 64 80
f 1 80 99
f 1 99 123
f 1 123 145
f 1 145 171
f 1 171 170
f 1 170 187
f 1 187 186
f 1 186 203
f 1 203 217
f 1 217 205
f 1 205 189
f 1 189 173
f 1 173 148
f 1 148 147
f 1 147 129
f 1 129 128
f 1 128 106
f 1 106 86
f 1 86 68
f 1 68 49
f 1 49 33
f 1 33 24
f 1 24 13
f 1 13 6
f 1 6 14
f 1 14 23
f 1 23 34
f 1 34 48
f 1 48 66
f 1 66 83
f 1 83 101
f 1 101 89
f 1 89 69
f 1 69 50
f 1 50 35
f 1 35 25
f 1 25 15
f 1 15 7
f 1 7 2
f 2 7 3
f 3 7 8
f 3 8 9
f 3 9 10
f 3 10 4
f 4 11 5
f 4 10 12
f 4 12 11
f 6 13 14
f 7 15 16
f 7 16 8
f 8 16 9
f 9 16 17
f 9 17 10
f 10 17 18
f 10 18 19
f 10 19 12
f 11 12 20
f 12 19 21
f 12 21 22
f 12 22 20
f 13 23 14
f 13 24 23
f 15 25 16
f 16 25 26
f 16 26 17
f 17 26 18
f 18 26 27
f 18 27 28
f 18 28 29
f 18 29 19
f 19 29 30
f 19 30 21
f 21 30 31
f 21 31 22
f 22 31 32
f 23 24 33
f 23 33 34
f 25 35 26
f 26 36 37
f 26 37 27
f 26 35 36
f 27 38 39
f 27 39 40
f 27 40 28
f 27 37 38
f 28 40 41
f 28 41 42
f 28 42 29
f 29 43 30
f 29 42 44
f 29 44 43
f 30 43 45
f 30 45 31
f 31 45 46
f 31 46 32
f 33 47 48
f 33 48 34
f 33 49 67
f 33 67 85
f 33 85 105
f 33 105 100
f 33 100 82
f 33 82 65
f 33 65 47
f 35 50 51
f 35 51 36
f 36 51 38
f 36 38 37
f 38 52 53
f 38 53 39
f 38 51 52
f 39 54 55
f 39 55 40
f 39 53 52
f 39 52 71
f 39 71 70
f 39 70 69
f 39 69 89
f 39 89 104
f 39 104 85
f 39 85 67
f 39 67 84
f 39 84 103
f 39 103 127
f 39 127 146
f 39 146 172
f 39 172 180
f 39 180 197
f 39 197 212
f 39 212 220
f 39 220 219
f 39 219 223
f 39 223 222
f 39 222 221
f 39 221 213
f 39 213 198
f 39 198 181
f 39 181 162
f 39 162 161
f 39 161 160
f 39 160 159
f 39 159 158
f 39 158 157
f 39 157 155
f 39 155 137
f 39 137 115
f 39 115 114
f 39 114 113
f 39 113 112
f 39 112 90
f 39 90 72
f 39 72 54
f 40 55 41
f 41 55 42
f 42 55 56
f 42 56 57
f 42 57 58
f 42 58 44
f 43 44 59
f 43 59 45
f 44 58 60
f 44 60 61
f 44 61 62
f 44 62 63
f 44 63 59
f 45 59 63
f 45 63 64
f 45 64 46
f 47 65 48
f 48 65 66
f 49 68 88
f 49 88 111
f 49 111 136
f 49 136 124
f 49 124 102
f 49 102 84
f 49 84 67
f 50 69 70
f 50 70 51
f 51 70 71
f 51 71 52
f 54 56 55
f 54 72 56
f 56 72 57
f 57 72 58
f 58 72 73
f 58 73 60
f 60 73 74
f 60 74 61
f 61 74 75
f 61 75 76
f 61 76 77
f 61 77 78
f 61 78 79
f 61 79 62
f 62 80 81
f 62 81 63
f 62 79 80
f 63 81 64
f 64 81 80
f 65 82 66
f 66 82 83
f 68 86 87
f 68 87 88
f 72 90 73
f 73 90 91
f 73 91 74
f 74 91 92
f 74 92 75
f 75 92 93
f 75 93 94
f 75 94 76
f 76 94 77
f 77 95 96
f 77 96 78
f 77 94 97
f 77 97 95
f 78 96 98
f 78 98 79
f 79 99 80
f 79 98 99
f 82 100 101
f 82 101 83
f 84 102 103
f 85 104 105
f 86 106 87
f 87 106 107
f 87 107 108
f 87 108 109
f 87 109 110
f 87 110 88
f 88 110 111
f 89 101 104
f 90 112 91
f 91 112 113
f 91 113 114
f 91 114 92
f 92 114 115
f 92 115 93
f 93 115 116
f 93 116 94
f 94 116 117
f 94 117 97
f 95 98 96
f 95 97 118
f 95 118 119
f 95 119 120
f 95 120 98
f 97 121 122
f 97 122 118
f 97 117 121
f 98 120 123
f 98 123 99
f 100 105 101
f 101 105 104
f 102 124 125
f 102 125 103
f 103 125 126
f 103 126 127
f 106 128 107
f 107 128 129
f 107 129 130
f 107 130 131
f 107 131 108
f 108 132 109
f 108 131 133
f 108 133 132
f 109 132 134
f 109 134 135
f 109 135 111
f 109 111 110
f 111 135 136
f 115 137 116
f 116 137 117
f 117 137 138
f 117 138 121
f 118 122 139
f 118 139 140
f 118 140 141
f 118 141 119
f 119 141 142
f 119 142 143
f 119 143 144
f 119 144 120
f 120 144 145
f 120 145 123
f 121 138 139
f 121 139 122
f 124 136 135
f 124 135 126
f 124 126 125
f 126 135 134
f 126 134 127
f 127 134 146
f 129 147 130
f 130 147 148
f 130 148 149
f 130 149 150
f 130 150 151
f 130 151 152
f 130 152 133
f 130 133 131
f 132 133 153
f 132 153 154
f 132 154 134
f 133 152 153
f 134 154 146
f 137 155 156
f 137 156 138
f 138 156 139
f 139 156 157
f 139 157 158
f 139 158 159
f 139 159 140
f 140 159 160
f 140 160 161
f 140 161 141
f 141 161 162
f 141 162 163
f 141 163 142
f 142 163 164
f 142 164 165
f 142 165 143
f 143 166 167
f 143 167 144
f 143 165 168
f 143 168 166
f 144 169 170
f 144 170 171
f 144 171 145
f 144 167 169
f 146 154 172
f 148 173 149
f 149 173 150
f 150 173 174
f 150 174 151
f 151 174 175
f 151 175 176
f 151 176 177
f 151 177 178
f 151 178 152
f 152 178 153
f 153 178 179
f 153 179 154
f 154 179 180
f 154 180 172
f 155 157 156
f 162 181 163
f 163 181 182
f 163 182 164
f 164 182 165
f 165 182 183
f 165 183 184
f 165 184 168
f 166 168 185
f 166 185 186
f 166 186 187
f 166 187 170
f 166 170 167
f 167 170 169
f 168 184 188
f 168 188 185
f 173 189 174
f 174 189 190
f 174 190 175
f 175 190 176
f 176 190 191
f 176 191 192
f 176 192 193
f 176 193 177
f 177 194 195
f 177 195 196
f 177 196 178
f 177 193 194
f 178 196 179
f 179 197 180
f 179 196 195
f 179 195 197
f 181 198 182
f 182 198 199
f 182 199 200
f 182 200 183
f 183 200 184
f 184 200 201
f 184 201 188
f 185 188 202
f 185 202 203
f 185 203 186
f 188 201 204
f 188 204 202
f 189 205 206
f 189 206 190
f 190 206 191
f 191 206 207
f 191 207 192
f 192 207 208
f 192 208 193
f 193 209 210
f 193 210 194
f 193 208 209
f 194 210 211
f 194 211 195
f 195 212 197
f 195 211 212
f 198 213 199
f 199 214 200
f 199 213 215
f 199 215 214
f 200 214 201
f 201 214 215
f 201 215 216
f 201 216 204
f 202 217 203
f 202 204 207
f 202 207 217
f 204 208 207
f 204 216 218
f 204 218 208
f 205 217 206
f 206 217 207
f 208 218 209
f 209 218 216
f 209 216 219
f 209 219 220
f 209 220 211
f 209 211 210
f 211 220 212
f 213 221 215
f 215 221 222
f 215 222 223
f 215 223 216
f 216 223 219

