# https://github.com/mikedh/trimesh
v 0.02319059 0.05162687 -0.00242830
v 0.02417528 0.05117744 -0.00242830
v 0.02461879 0.05067353 -0.00338273
v 0.02335265 0.05106303 -0.00397751
v 0.02319059 0.05124553 -0.00363410
v 0.02319059 0.03760183 -0.00242830
v 0.02571201 0.05044744 -0.00242830
v 0.02587842 0.05025678 -0.00278485
v 0.02520049 0.04995443 -0.00464422
v 0.02393580 0.05034667 -0.00523900
v 0.02319059 0.05110662 -0.00405176
v 0.02319059 0.02380015 -0.00996940
v 0.03058194 0.03197166 -0.00242830
v 0.02600937 0.05030036 -0.00242830
v 0.02664823 0.04997622 -0.00242830
v 0.02706425 0.04976104 -0.00242830
v 0.02647604 0.04951317 -0.00405872
v 0.02452112 0.04956220 -0.00649198
v 0.02574457 0.04915635 -0.00597764
v 0.02319059 0.05054278 -0.00558705
v 0.02450448 0.04957037 -0.00649198
v 0.02319059 0.02380015 -0.01032905
v 0.03058194 0.02380015 -0.00745338
v 0.03058194 0.04769910 -0.00242830
v 0.02725742 0.04965481 -0.00242830
v 0.02774796 0.04902015 -0.00346935
v 0.02706786 0.04869329 -0.00532795
v 0.02456959 0.04953768 -0.00649121
v 0.02509486 0.04860886 -0.00790120
v 0.02601878 0.04878046 -0.00649198
v 0.02319059 0.05016689 -0.00649198
v 0.02326294 0.04987816 -0.00710223
v 0.03058194 0.02380015 -0.01032905
v 0.02319059 0.04816215 -0.01032905
v 0.03058194 0.04753294 -0.00293258
v 0.03034535 0.04785708 -0.00242830
v 0.02812201 0.04916724 -0.00242830
v 0.02901048 0.04850807 -0.00287380
v 0.02960593 0.04769637 -0.00414457
v 0.02834051 0.04819483 -0.00473935
v 0.02892655 0.04733410 -0.00600317
v 0.02765897 0.04780805 -0.00659640
v 0.02638921 0.04826838 -0.00718654
v 0.02570767 0.04766369 -0.00904668
v 0.02461517 0.04799055 -0.00948213
v 0.02384970 0.04897930 -0.00836682
v 0.02319059 0.04997350 -0.00695064
v 0.02319059 0.04988906 -0.00713936
v 0.02319059 0.04935519 -0.00821600
v 0.03058194 0.04284249 -0.01032905
v 0.02319059 0.04819211 -0.01028497
v 0.02320723 0.04815670 -0.01032905
v 0.03058194 0.04726600 -0.00368747
v 0.02996189 0.04808860 -0.00242830
v 0.02880211 0.04877773 -0.00242830
v 0.03058194 0.04701541 -0.00433407
v 0.03018474 0.04684653 -0.00540529
v 0.02951911 0.04637531 -0.00727239
v 0.02824646 0.04681930 -0.00786098
v 0.02670466 0.04732048 -0.00863752
v 0.02758011 0.04616285 -0.00973272
v 0.02630963 0.04656870 -0.01029811
v 0.02319059 0.04823841 -0.01020994
v 0.02319059 0.04887307 -0.00911706
v 0.02319059 0.04912094 -0.00867620
v 0.02486406 0.04733138 -0.01032905
v 0.02957120 0.04452855 -0.01032905
v 0.03058194 0.04385304 -0.01032364
v 0.03058194 0.04666404 -0.00522276
v 0.03058194 0.04627997 -0.00609289
v 0.03022236 0.04631266 -0.00649121
v 0.03058194 0.04609203 -0.00649121
v 0.03058194 0.04591498 -0.00686556
v 0.03058194 0.04552547 -0.00758641
v 0.03019197 0.04527760 -0.00850604
v 0.02885131 0.04574066 -0.00914181
v 0.02951911 0.04456396 -0.01032905
v 0.02785504 0.04560174 -0.01032905
v 0.02632120 0.04653874 -0.01032905
v 0.02629443 0.04655509 -0.01032905
v 0.02624524 0.04658232 -0.01032905
v 0.03058194 0.04417173 -0.00985802
v 0.03058194 0.04512779 -0.00832041
v 0.03058194 0.04439508 -0.00950533
f 1 2 3
f 1 3 4
f 1 4 5
f 1 5 11
f 1 11 20
f 1 20 31
f 1 31 47
f 1 47 48
f 1 48 49
f 1 49 65
f 1 65 64
f 1 64 63
f 1 63 51
f 1 51 34
f 1 34 22
f 1 22 12
f 1 12 6
f 1 6 13
f 1 13 24
f 1 24 36
f 1 36 54
f 1 54 55
f 1 55 37
f 1 37 25
f 1 25 16
f 1 16 15
f 1 15 14
f 1 14 7
f 1 7 2
f 2 7 3
f 3 7 8
f 3 8 9
f 3 9 10
f 3 10 4
f 4 10 11
f 4 11 5
f 6 12 13
f 7 14 8
f 8 14 15
f 8 15 16
f 8 16 17
f 8 17 9
f 9 18 10
f 9 17 19
f 9 19 18
f 10 20 11
f 10 18 21
f 10 21 20
f 12 22 33
f 12 33 23
f 12 23 13
f 13 23 33
f 13 33 50
f 13 50 68
f 13 68 82
f 13 82 84
f 13 84 83
f 13 83 74
f 13 74 73
f 13 73 72
f 13 72 70
f 13 70 69
f 13 69 56
f 13 56 53
f 13 53 35
f 13 35 24
f 16 25 17
f 17 26 27
f 17 27 19
f 17 25 26
f 18 19 28
f 18 28 29
f 18 29 21
f 19 30 28
f 19 27 30
f 20 21 31
f 21 29 32
f 21 32 31
f 22 34 52
f 22 52 66
f 22 66 81
f 22 81 80
f 22 80 79
f 22 79 78
f 22 78 77
f 22 77 67
f 22 67 50
f 22 50 33
f 24 35 36
f 25 37 26
f 26 37 38
f 26 38 39
f 26 39 40
f 26 40 27
f 27 40 41
f 27 41 42
f 27 42 30
f 28 30 43
f 28 43 29
f 29 43 44
f 29 44 45
f 29 45 46
f 29 46 32
f 30 42 43
f 31 32 47
f 32 48 47
f 32 46 49
f 32 49 48
f 34 51 52
f 35 53 36
f 36 38 54
f 36 53 39
f 36 39 38
f 37 55 38
f 38 55 54
f 39 53 56
f 39 56 57
f 39 57 40
f 40 57 41
f 41 57 58
f 41 58 42
f 42 58 43
f 43 58 59
f 43 59 60
f 43 60 44
f 44 60 61
f 44 61 62
f 44 62 45
f 45 52 51
f 45 51 63
f 45 63 64
f 45 64 65
f 45 65 46
f 45 62 66
f 45 66 52
f 46 65 49
f 50 67 68
f 56 69 57
f 57 69 70
f 57 70 71
f 57 71 58
f 58 71 72
f 58 72 73
f 58 73 74
f 58 74 75
f 58 75 76
f 58 76 59
f 59 76 60
f 60 76 61
f 61 76 77
f 61 77 78
f 61 78 62
f 62 78 79
f 62 79 80
f 62 80 81
f 62 81 66
f 67 77 68
f 68 77 82
f 70 72 71
f 74 83 75
f 75 83 84
f 75 84 77
f 75 77 76
f 77 84 82

