# https://github.com/mikedh/trimesh
v -0.00016746 0.01716295 -0.02705921
v -0.00016746 0.02525055 -0.02706085
v 0.01218518 0.01716295 -0.02705921
v -0.00016746 0.01716295 -0.01432038
v 0.01213681 0.02525055 -0.02706085
v -0.00016746 0.02794194 -0.02706085
v 0.01218518 0.02522770 -0.02705921
v 0.01218518 0.01716295 -0.01290532
v -0.00016505 0.01716295 -0.01318047
v -0.00016746 0.01719521 -0.01317719
v 0.01199051 0.02532181 -0.02706085
v 0.01218518 0.03089548 -0.02494644
v -0.00016746 0.03089548 -0.02541977
v 0.00077688 0.03089548 -0.02542959
v 0.00219642 0.03089548 -0.02543287
v -0.00004897 0.02794194 -0.02706085
v 0.01218518 0.02727246 -0.01032905
v 0.00330037 0.01716295 -0.01308220
v 0.00023639 0.01716295 -0.01316081
v -0.00016746 0.03089548 -0.01075488
v 0.00929411 0.02630856 -0.02706085
v 0.01159028 0.03089548 -0.02500213
v 0.01218518 0.03089548 -0.01032905
v 0.00697859 0.02698746 -0.02706085
v 0.00685405 0.02702106 -0.02706085
v 0.00592422 0.02723213 -0.02706085
v 0.00229194 0.03089548 -0.02543287
v 0.00384932 0.03089548 -0.02541486
v 0.00539824 0.03089548 -0.02537555
v 0.00030652 0.02792447 -0.02706085
v 0.00986120 0.02884400 -0.01032905
v 0.00774398 0.03089548 -0.01032905
v 0.01141012 0.03089548 -0.02501687
v 0.00464131 0.02742034 -0.02706085
v 0.00866173 0.03089548 -0.02521996
v 0.01004378 0.03089548 -0.02512333
v 0.00551553 0.03089548 -0.02537227
v 0.00203923 0.02775777 -0.02706085
v 0.00362805 0.02756821 -0.02706085
v 0.00854323 0.03089548 -0.02522651
v 0.00315406 0.02763140 -0.02706085
f 1 2 5
f 1 5 3
f 1 3 8
f 1 8 18
f 1 18 19
f 1 19 9
f 1 9 4
f 1 4 10
f 1 10 20
f 1 20 13
f 1 13 6
f 1 6 2
f 2 6 16
f 2 16 30
f 2 30 38
f 2 38 41
f 2 41 39
f 2 39 34
f 2 34 26
f 2 26 25
f 2 25 24
f 2 24 21
f 2 21 11
f 2 11 5
f 3 5 7
f 3 7 12
f 3 12 23
f 3 23 17
f 3 17 8
f 4 9 10
f 5 11 12
f 5 12 7
f 6 13 14
f 6 14 15
f 6 15 27
f 6 27 16
f 8 17 18
f 9 19 17
f 9 17 20
f 9 20 10
f 11 21 12
f 12 22 33
f 12 33 36
f 12 36 35
f 12 35 40
f 12 40 37
f 12 37 29
f 12 29 28
f 12 28 27
f 12 27 15
f 12 15 14
f 12 14 13
f 12 13 20
f 12 20 32
f 12 32 23
f 12 21 24
f 12 24 25
f 12 25 26
f 12 26 22
f 16 27 28
f 16 28 29
f 16 29 30
f 17 23 32
f 17 32 31
f 17 31 20
f 17 19 18
f 20 31 32
f 22 26 33
f 26 34 35
f 26 35 36
f 26 36 33
f 29 37 30
f 30 37 38
f 34 39 35
f 35 39 41
f 35 41 40
f 37 40 38
f 38 40 41

