# https://github.com/mikedh/trimesh
v 0.01882017 -0.01832359 -0.03425234
v 0.01791889 -0.01832359 -0.03421467
v 0.01882396 -0.01827970 -0.03424992
v 0.01882396 -0.01831933 -0.03425185
v 0.01882396 -0.01832359 -0.03419776
v 0.01875793 -0.01692974 -0.03415188
v 0.01882396 -0.01704650 -0.03416492
v 0.01882396 -0.01755316 -0.03420307
v 0.01714211 -0.01832359 -0.03409924
v 0.01882396 -0.01832359 -0.02931900
v 0.01882396 -0.01683429 -0.03414512
v 0.01882396 -0.01687946 -0.03415043
v 0.01688009 -0.01832359 -0.03399782
v 0.01882396 -0.01629780 -0.03396063
v 0.01882396 -0.01633104 -0.02931900
v 0.01452786 -0.01832359 -0.02931900
v 0.01646794 -0.01832359 -0.03382734
v 0.01882396 -0.01570165 -0.03372447
v 0.01882270 -0.01397074 -0.02931900
v 0.01882396 -0.01407343 -0.02988792
v 0.01882396 -0.01424175 -0.03160625
v 0.01480039 -0.01832359 -0.03132904
v 0.01589302 -0.01832359 -0.03354143
v 0.01882396 -0.01555634 -0.03365299
v 0.01882396 -0.01428394 -0.03188685
v 0.01490679 -0.01832359 -0.03199213
v 0.01582447 -0.01832359 -0.03350618
v 0.01882396 -0.01508079 -0.03334439
v 0.01882396 -0.01439856 -0.03237076
v 0.01503506 -0.01832359 -0.03246059
v 0.01545479 -0.01832359 -0.03320095
v 0.01882396 -0.01473648 -0.03302854
v 0.01882396 -0.01448208 -0.03261658
v 0.01507922 -0.01832359 -0.03257022
v 0.01535301 -0.01832359 -0.03307394
f 1 2 3
f 1 3 4
f 1 4 5
f 1 5 10
f 1 10 16
f 1 16 22
f 1 22 26
f 1 26 30
f 1 30 34
f 1 34 35
f 1 35 31
f 1 31 27
f 1 27 23
f 1 23 17
f 1 17 13
f 1 13 9
f 1 9 2
f 2 6 7
f 2 7 8
f 2 8 3
f 2 9 6
f 3 8 7
f 3 7 12
f 3 12 11
f 3 11 14
f 3 14 18
f 3 18 24
f 3 24 28
f 3 28 32
f 3 32 33
f 3 33 29
f 3 29 25
f 3 25 21
f 3 21 20
f 3 20 15
f 3 15 10
f 3 10 5
f 3 5 4
f 6 11 12
f 6 12 7
f 6 9 11
f 9 13 14
f 9 14 11
f 10 15 19
f 10 19 16
f 13 17 18
f 13 18 14
f 15 20 19
f 16 19 21
f 16 21 22
f 17 23 18
f 18 23 24
f 19 20 21
f 21 25 22
f 22 25 26
f 23 27 24
f 24 27 28
f 25 29 26
f 26 29 30
f 27 31 28
f 28 31 32
f 29 33 30
f 30 33 34
f 31 35 32
f 32 35 33
f 33 35 34

