# https://github.com/mikedh/trimesh
v 0.05666564 0.00002016 -0.00251195
v 0.05666726 -0.00005114 -0.00251195
v 0.05620115 0.00002016 -0.00408326
v 0.04429103 0.00002016 -0.00251195
v 0.05664136 -0.00141413 -0.00251195
v 0.05618334 -0.00139365 -0.00408294
v 0.05620438 -0.00034088 -0.00407587
v 0.05587908 0.00002016 -0.00508093
v 0.04102340 0.00002016 -0.00579099
v 0.04013487 -0.00772848 -0.00579099
v 0.04351580 -0.00772848 -0.00251195
v 0.05659767 -0.00268762 -0.00251195
v 0.05610889 -0.00281580 -0.00413397
v 0.05572209 -0.00162575 -0.00546389
v 0.05579977 -0.00071860 -0.00531944
v 0.05576255 0.00002016 -0.00543917
v 0.05563146 0.00002016 -0.00579099
v 0.05501645 -0.00772848 -0.00579099
v 0.05607814 -0.00772848 -0.00251195
v 0.05659119 -0.00281656 -0.00251195
v 0.05648599 -0.00421823 -0.00251195
v 0.05596000 -0.00425085 -0.00423862
v 0.05567839 -0.00348478 -0.00526904
v 0.05550360 -0.00320035 -0.00579099
v 0.05557967 -0.00195341 -0.00579099
v 0.05559909 -0.00156734 -0.00579099
v 0.05561527 -0.00098331 -0.00579099
v 0.05562822 -0.00029916 -0.00579099
v 0.05510061 -0.00716038 -0.00579099
v 0.05521228 -0.00772848 -0.00523212
v 0.05604578 -0.00772848 -0.00263265
v 0.05618011 -0.00701551 -0.00251195
v 0.05635004 -0.00561611 -0.00251195
v 0.05581110 -0.00561611 -0.00428099
v 0.05528187 -0.00568513 -0.00579099
v 0.05545181 -0.00389057 -0.00579099
v 0.05562174 -0.00701247 -0.00435161
v 0.05549713 -0.00772848 -0.00440875
v 0.05616392 -0.00701551 -0.00257198
v 0.05577873 -0.00772848 -0.00350642
f 1 2 3
f 1 3 8
f 1 8 16
f 1 16 17
f 1 17 9
f 1 9 4
f 1 4 11
f 1 11 19
f 1 19 32
f 1 32 33
f 1 33 21
f 1 21 20
f 1 20 12
f 1 12 5
f 1 5 2
f 2 5 6
f 2 6 7
f 2 7 3
f 3 7 8
f 4 9 10
f 4 10 11
f 5 12 6
f 6 12 13
f 6 13 14
f 6 14 15
f 6 15 7
f 7 15 8
f 8 15 16
f 9 17 28
f 9 28 27
f 9 27 26
f 9 26 25
f 9 25 24
f 9 24 36
f 9 36 35
f 9 35 29
f 9 29 18
f 9 18 10
f 10 18 30
f 10 30 38
f 10 38 40
f 10 40 31
f 10 31 19
f 10 19 11
f 12 20 13
f 13 20 21
f 13 21 22
f 13 22 23
f 13 23 14
f 14 23 24
f 14 24 25
f 14 25 26
f 14 26 27
f 14 27 15
f 15 27 28
f 15 28 17
f 15 17 16
f 18 29 30
f 19 31 32
f 21 33 22
f 22 34 35
f 22 35 23
f 22 33 34
f 23 35 36
f 23 36 24
f 29 35 37
f 29 37 30
f 30 37 38
f 31 39 32
f 31 40 37
f 31 37 39
f 32 39 33
f 33 39 34
f 34 37 35
f 34 39 37
f 37 40 38

