# https://github.com/mikedh/trimesh
v -0.01926607 0.03086834 -0.00849861
v -0.02765486 0.03086916 -0.00554826
v -0.02478797 0.03086834 -0.00623050
v -0.01926741 0.02251357 -0.01097603
v -0.01926607 0.03085525 -0.00850264
v -0.01926607 0.03086834 -0.02389842
v -0.03296489 0.03086916 -0.00554826
v -0.02765351 0.03086834 -0.00512965
v -0.02553486 0.03086834 -0.00594271
v -0.02765486 0.03086916 -0.02166049
v -0.01926607 0.02693640 -0.00987115
v -0.03296489 0.02455563 -0.00554826
v -0.03296489 0.02251112 -0.00628283
v -0.02765486 0.02251112 -0.00873609
v -0.01926741 0.02251357 -0.02568755
v -0.01926607 0.03081598 -0.02391452
v -0.01983194 0.03086834 -0.02379980
v -0.03296489 0.03086916 -0.01928572
v -0.02327139 0.03086834 -0.02303706
v -0.02338135 0.03086834 -0.02300888
v -0.02512320 0.03086834 -0.02251582
v -0.02528143 0.03086834 -0.02246550
v -0.02636757 0.03086834 -0.02211130
v -0.02739472 0.03086834 -0.02175508
v -0.02756501 0.03086834 -0.02169471
v -0.02765486 0.03072272 -0.02172087
v -0.02840174 0.03086916 -0.02136868
v -0.01993653 0.03086834 -0.02377968
v -0.02154563 0.03086834 -0.02345164
v -0.02164888 0.03086834 -0.02342749
v -0.01926607 0.02693640 -0.02485638
v -0.03296489 0.02251112 -0.02241519
v -0.02765486 0.02251112 -0.02409967
v -0.02212357 0.02251357 -0.02521259
v -0.02248293 0.02378413 -0.02493688
v -0.02090065 0.02346424 -0.02525284
v -0.02093820 0.02518396 -0.02494292
v -0.01926741 0.02658542 -0.02492682
v -0.01926607 0.03078244 -0.02392458
v -0.01972735 0.02938262 -0.02423250
v -0.01992178 0.03078162 -0.02380785
v -0.03283080 0.03086916 -0.01935817
v -0.03287236 0.03078735 -0.01937830
v -0.03296489 0.03078735 -0.01932798
v -0.02163547 0.03078408 -0.02346170
v -0.02336526 0.03077998 -0.02304511
v -0.02526534 0.03074071 -0.02252186
v -0.02662369 0.03050346 -0.02217168
v -0.02847684 0.02937689 -0.02194225
v -0.02959516 0.03078326 -0.02093196
v -0.02955628 0.03086916 -0.02090781
v -0.02141959 0.02938262 -0.02391653
v -0.01941760 0.02658542 -0.02490468
v -0.02108302 0.02658542 -0.02464305
v -0.01956375 0.02798443 -0.02459073
v -0.01926607 0.02798443 -0.02463500
v -0.03296489 0.02351415 -0.02213545
v -0.03234002 0.02405821 -0.02224614
v -0.03287102 0.02251112 -0.02245141
v -0.02909232 0.02251112 -0.02372735
v -0.02765486 0.02376941 -0.02384810
v -0.02733035 0.02251357 -0.02417816
v -0.02577355 0.02251357 -0.02452632
v -0.02561934 0.02251357 -0.02455852
v -0.02406656 0.02251357 -0.02486241
v -0.02359992 0.02251357 -0.02494895
v -0.02359992 0.02378495 -0.02473160
v -0.02261434 0.02518396 -0.02466318
v -0.01926607 0.02981868 -0.02419225
v -0.01926607 0.02938262 -0.02430696
v -0.02122918 0.02798115 -0.02430897
v -0.03110102 0.03086916 -0.02021349
v -0.03123913 0.03053291 -0.02031211
v -0.03296489 0.02942679 -0.01996193
v -0.03296489 0.03060000 -0.01941855
v -0.02314803 0.02938589 -0.02353616
v -0.02488988 0.02938262 -0.02309341
v -0.02663039 0.02970578 -0.02246752
v -0.02765486 0.02952415 -0.02217771
v -0.02956298 0.02852685 -0.02185168
v -0.03050967 0.02925826 -0.02118554
v -0.02849159 0.02816278 -0.02238299
v -0.03164677 0.02953233 -0.02056971
v -0.03075640 0.03086916 -0.02036846
v -0.02293751 0.02798361 -0.02397087
v -0.02237968 0.02693640 -0.02433513
v -0.02112056 0.02693640 -0.02456054
v -0.03296489 0.02396494 -0.02200464
v -0.03216838 0.02503915 -0.02201671
v -0.03067996 0.02567157 -0.02240110
v -0.03113856 0.02407212 -0.02269091
v -0.03137859 0.02251112 -0.02300888
v -0.03296489 0.02512587 -0.02164641
v -0.02925189 0.02251112 -0.02368106
v -0.02939805 0.02378086 -0.02334498
v -0.02779967 0.02518478 -0.02347780
v -0.02765486 0.02518559 -0.02351805
v -0.02603905 0.02518478 -0.02394873
v -0.02589691 0.02378822 -0.02426470
v -0.02417651 0.02378495 -0.02462494
v -0.02359992 0.02430283 -0.02463903
v -0.02359992 0.02518396 -0.02447400
v -0.02276721 0.02658542 -0.02433916
v -0.03296489 0.02798361 -0.02059185
v -0.02467668 0.02798688 -0.02357239
v -0.02643596 0.02798606 -0.02310347
v -0.02765486 0.02885737 -0.02242123
v -0.02964880 0.02658133 -0.02249167
v -0.03163202 0.02634080 -0.02180338
v -0.03065046 0.02825605 -0.02152163
v -0.03258005 0.02798361 -0.02078102
v -0.02765486 0.02808997 -0.02267682
v -0.02788013 0.02654942 -0.02309542
v -0.02452247 0.02693640 -0.02387628
v -0.02281146 0.02693640 -0.02424860
v -0.02447017 0.02658133 -0.02397892
v -0.02988614 0.02516187 -0.02283379
v -0.03126326 0.02259784 -0.02302901
v -0.03124315 0.02251112 -0.02305517
v -0.03296489 0.02545558 -0.02153371
v -0.03044665 0.02251112 -0.02330674
v -0.02765486 0.02655269 -0.02315982
v -0.02620532 0.02658051 -0.02356434
v -0.02431060 0.02518396 -0.02433513
v -0.02359992 0.02582946 -0.02433715
v -0.02359992 0.02658378 -0.02416407
v -0.03296489 0.02706321 -0.02095813
v -0.02626432 0.02693640 -0.02344761
v -0.03296489 0.02655188 -0.02114730
f 1 2 3
f 1 3 4
f 1 4 5
f 1 5 11
f 1 11 31
f 1 31 56
f 1 56 70
f 1 70 69
f 1 69 39
f 1 39 16
f 1 16 6
f 1 6 10
f 1 10 2
f 2 7 8
f 2 8 9
f 2 9 3
f 2 10 27
f 2 27 51
f 2 51 84
f 2 84 72
f 2 72 42
f 2 42 18
f 2 18 7
f 3 9 4
f 4 11 5
f 4 9 8
f 4 8 12
f 4 12 13
f 4 13 14
f 4 14 33
f 4 33 15
f 4 15 31
f 4 31 11
f 6 16 17
f 6 17 10
f 7 12 8
f 7 18 44
f 7 44 75
f 7 75 74
f 7 74 104
f 7 104 127
f 7 127 129
f 7 129 120
f 7 120 93
f 7 93 88
f 7 88 57
f 7 57 32
f 7 32 13
f 7 13 12
f 10 19 20
f 10 20 21
f 10 21 22
f 10 22 23
f 10 23 24
f 10 24 25
f 10 25 26
f 10 26 27
f 10 17 28
f 10 28 29
f 10 29 30
f 10 30 19
f 13 32 59
f 13 59 92
f 13 92 119
f 13 119 121
f 13 121 94
f 13 94 60
f 13 60 33
f 13 33 14
f 15 33 34
f 15 34 35
f 15 35 36
f 15 36 37
f 15 37 38
f 15 38 31
f 16 39 17
f 17 39 40
f 17 40 41
f 17 41 28
f 18 42 43
f 18 43 44
f 19 30 45
f 19 45 46
f 19 46 20
f 20 47 21
f 20 46 47
f 21 47 22
f 22 47 23
f 23 48 24
f 23 47 48
f 24 26 25
f 24 48 26
f 26 48 49
f 26 49 27
f 27 50 51
f 27 49 50
f 28 41 52
f 28 52 45
f 28 45 29
f 29 45 30
f 31 38 53
f 31 53 54
f 31 54 55
f 31 55 56
f 32 57 58
f 32 58 59
f 33 60 61
f 33 61 62
f 33 62 63
f 33 63 64
f 33 64 65
f 33 65 66
f 33 66 34
f 34 66 35
f 35 37 36
f 35 66 67
f 35 67 68
f 35 68 37
f 37 53 38
f 37 68 54
f 37 54 53
f 39 69 40
f 40 69 70
f 40 70 55
f 40 55 71
f 40 71 52
f 40 52 41
f 42 72 43
f 43 72 73
f 43 73 74
f 43 74 75
f 43 75 44
f 45 52 76
f 45 76 46
f 46 76 77
f 46 77 47
f 47 78 48
f 47 77 78
f 48 79 49
f 48 78 79
f 49 80 81
f 49 81 50
f 49 79 82
f 49 82 80
f 50 81 83
f 50 83 73
f 50 73 72
f 50 72 84
f 50 84 51
f 52 85 76
f 52 71 85
f 54 68 86
f 54 86 87
f 54 87 55
f 55 87 71
f 55 70 56
f 57 88 58
f 58 89 90
f 58 90 91
f 58 91 92
f 58 92 59
f 58 88 93
f 58 93 89
f 60 94 95
f 60 95 61
f 61 95 96
f 61 96 97
f 61 97 98
f 61 98 99
f 61 99 62
f 62 99 63
f 63 99 100
f 63 100 64
f 64 100 65
f 65 100 66
f 66 100 67
f 67 100 101
f 67 101 68
f 68 101 102
f 68 102 103
f 68 103 86
f 71 87 86
f 71 86 85
f 73 83 74
f 74 83 104
f 76 85 105
f 76 105 77
f 77 105 106
f 77 106 78
f 78 107 79
f 78 106 107
f 79 107 82
f 80 82 108
f 80 108 109
f 80 109 110
f 80 110 81
f 81 110 111
f 81 111 83
f 82 107 112
f 82 112 113
f 82 113 108
f 83 111 104
f 85 114 105
f 85 86 115
f 85 115 116
f 85 116 114
f 86 103 115
f 89 109 90
f 89 93 109
f 90 109 108
f 90 108 117
f 90 117 91
f 91 117 118
f 91 118 92
f 92 118 119
f 93 120 109
f 94 121 95
f 95 121 118
f 95 118 117
f 95 117 96
f 96 117 113
f 96 113 122
f 96 122 123
f 96 123 97
f 97 123 98
f 98 123 116
f 98 116 124
f 98 124 99
f 99 124 100
f 100 124 102
f 100 102 101
f 102 124 125
f 102 125 103
f 103 125 126
f 103 126 115
f 104 111 127
f 105 123 128
f 105 128 106
f 105 114 123
f 106 128 122
f 106 122 113
f 106 113 112
f 106 112 107
f 108 113 117
f 109 120 129
f 109 129 110
f 110 129 127
f 110 127 111
f 114 116 123
f 115 126 116
f 116 126 124
f 118 121 119
f 122 128 123
f 124 126 125

