# https://github.com/mikedh/trimesh
v -0.00908605 -0.02744064 -0.02905245
v -0.00899352 -0.02746874 -0.02905245
v -0.00868884 -0.02736383 -0.02768284
v -0.00908605 -0.02723551 -0.02768284
v -0.00908605 -0.02127068 -0.02905245
v -0.00873074 -0.02754836 -0.02905245
v -0.00815892 -0.02772071 -0.02905245
v -0.00681014 -0.02809070 -0.02905245
v -0.00772854 -0.02761767 -0.02768284
v -0.00908605 -0.01931955 -0.02768284
v -0.00016746 -0.02326488 -0.02905245
v -0.00711482 -0.02777410 -0.02768284
v -0.00740902 -0.02770104 -0.02768284
v -0.00596944 -0.02829865 -0.02905245
v -0.00016746 -0.02172965 -0.02768284
v -0.00016746 -0.02888876 -0.02905245
v -0.00575642 -0.02807852 -0.02768284
v -0.00578960 -0.02834080 -0.02905245
v -0.00016746 -0.02864335 -0.02768284
v -0.00130149 -0.02864803 -0.02768284
v -0.00023992 -0.02888782 -0.02905245
v -0.00549365 -0.02823214 -0.02821709
v -0.00465033 -0.02842135 -0.02845237
v -0.00429589 -0.02831082 -0.02768284
v -0.00470446 -0.02852626 -0.02905245
v -0.00165506 -0.02862274 -0.02768284
v -0.00202609 -0.02881195 -0.02905245
v -0.00104221 -0.02886066 -0.02905245
v -0.00061270 -0.02888127 -0.02905245
v -0.00422518 -0.02832206 -0.02768284
v -0.00380352 -0.02864428 -0.02905245
v -0.00368042 -0.02865833 -0.02905245
v -0.00356781 -0.02867051 -0.02905245
v -0.00272885 -0.02850097 -0.02768284
f 1 2 3
f 1 3 4
f 1 4 10
f 1 10 5
f 1 5 11
f 1 11 16
f 1 16 21
f 1 21 29
f 1 29 28
f 1 28 27
f 1 27 33
f 1 33 32
f 1 32 31
f 1 31 25
f 1 25 18
f 1 18 14
f 1 14 8
f 1 8 7
f 1 7 6
f 1 6 2
f 2 6 3
f 3 6 7
f 3 7 8
f 3 8 9
f 3 9 13
f 3 13 12
f 3 12 17
f 3 17 24
f 3 24 30
f 3 30 34
f 3 34 26
f 3 26 20
f 3 20 19
f 3 19 15
f 3 15 10
f 3 10 4
f 5 10 11
f 8 12 13
f 8 13 9
f 8 14 12
f 10 15 11
f 11 15 19
f 11 19 16
f 12 14 18
f 12 18 17
f 16 19 20
f 16 20 21
f 17 18 22
f 17 22 23
f 17 23 24
f 18 23 22
f 18 25 23
f 20 26 27
f 20 27 28
f 20 28 29
f 20 29 21
f 23 30 24
f 23 25 31
f 23 31 30
f 26 32 33
f 26 33 27
f 26 34 32
f 30 31 34
f 31 32 34

