# https://github.com/mikedh/trimesh
v -0.01575820 0.05327724 -0.00506092
v -0.01575820 0.05319170 -0.00530221
v -0.01615233 0.05304476 -0.00539721
v -0.01631233 0.05310617 -0.00506092
v -0.01575820 0.03864184 -0.00506092
v -0.01575820 0.05310617 -0.00554160
v -0.01575820 0.05284737 -0.00623319
v -0.01575820 0.05264121 -0.00676517
v -0.01742060 0.05240434 -0.00598809
v -0.01785683 0.05259076 -0.00506092
v -0.02416280 0.03306008 -0.00506092
v -0.01575820 0.03087344 -0.00930920
v -0.01575820 0.05225520 -0.00766385
v -0.01680078 0.05208851 -0.00730096
v -0.01874108 0.05227494 -0.00506092
v -0.01869560 0.05172225 -0.00658658
v -0.01905604 0.05188674 -0.00580190
v -0.02498473 0.03254467 -0.00506092
v -0.02546644 0.03224420 -0.00506092
v -0.02779918 0.03087124 -0.00506092
v -0.02478767 0.03087124 -0.00622749
v -0.01905604 0.03087124 -0.00855302
v -0.01575820 0.03087344 -0.02446891
v -0.01575820 0.05195911 -0.00830603
v -0.01623991 0.05170251 -0.00853213
v -0.01809936 0.05139765 -0.00785004
v -0.01928005 0.05198762 -0.00531171
v -0.01905604 0.05215870 -0.00506092
v -0.01905604 0.05153143 -0.00671007
v -0.02054663 0.05126386 -0.00590069
v -0.03296489 0.03087124 -0.00506092
v -0.01905604 0.03087124 -0.02393882
v -0.01575820 0.03218718 -0.02410602
v -0.01658687 0.03087344 -0.02435111
v -0.01575820 0.05175514 -0.00870502
v -0.01575820 0.05129237 -0.00956190
v -0.01750649 0.05097436 -0.00911921
v -0.01905604 0.05082521 -0.00829843
v -0.01996050 0.05098313 -0.00717746
v -0.01997398 0.05180559 -0.00506092
v -0.01939963 0.05203149 -0.00506092
v -0.02119172 0.05067388 -0.00671007
v -0.02182669 0.05049843 -0.00650298
v -0.02240946 0.05074626 -0.00522621
v -0.02205576 0.05095681 -0.00506092
v -0.02094413 0.05141739 -0.00506092
v -0.03296489 0.03087124 -0.01928204
v -0.03296489 0.04474998 -0.00506092
v -0.01983081 0.03087124 -0.02380013
v -0.01825769 0.03087344 -0.02408132
v -0.01575820 0.03315878 -0.02382103
v -0.01676541 0.03218498 -0.02395212
v -0.01575820 0.05113227 -0.00984879
v -0.01936595 0.05063879 -0.00844093
v -0.01691699 0.05044798 -0.01039028
v -0.01878150 0.05018479 -0.00969679
v -0.02119172 0.05022208 -0.00775125
v -0.02119340 0.05066292 -0.00673477
v -0.02227135 0.05021550 -0.00670817
v -0.02367941 0.04995889 -0.00581710
v -0.02286758 0.05061028 -0.00506092
v -0.02248693 0.05077477 -0.00506092
v -0.03282846 0.03087124 -0.01935614
v -0.03296489 0.03100503 -0.01921365
v -0.03199137 0.04546278 -0.00506092
v -0.03296489 0.04454820 -0.00551500
v -0.01993524 0.03087124 -0.02377923
v -0.02015251 0.03218937 -0.02332514
v -0.01905604 0.03161475 -0.02372223
v -0.01845475 0.03218937 -0.02365953
v -0.01698942 0.03358646 -0.02347713
v -0.01575820 0.03358865 -0.02368613
v -0.01575820 0.05055764 -0.01081207
v -0.02063422 0.04981414 -0.00903371
v -0.02119340 0.05020673 -0.00778164
v -0.01575820 0.05019795 -0.01139725
v -0.01632581 0.04985362 -0.01165944
v -0.01818695 0.04964087 -0.01098306
v -0.01905604 0.04999837 -0.00983169
v -0.02251388 0.04932944 -0.00838583
v -0.02309159 0.04969132 -0.00709006
v -0.02403479 0.05009268 -0.00506092
v -0.02419649 0.04934040 -0.00670817
v -0.02484157 0.04913424 -0.00648588
v -0.03110038 0.03087124 -0.02021302
v -0.03215980 0.03218279 -0.01903315
v -0.03056141 0.03218498 -0.01983493
v -0.03296489 0.03225955 -0.01855246
v -0.03174883 0.04563604 -0.00506092
v -0.03120144 0.04548690 -0.00623699
v -0.03221201 0.04454601 -0.00670817
v -0.03252192 0.04432230 -0.00670817
v -0.03296489 0.04442977 -0.00576960
v -0.02119340 0.03087124 -0.02352653
v -0.02154710 0.03087124 -0.02345433
v -0.02119340 0.03218718 -0.02309144
v -0.02040684 0.03358865 -0.02276465
v -0.01905604 0.03324431 -0.02319024
v -0.01869897 0.03359084 -0.02314464
v -0.01724375 0.03498354 -0.02292045
v -0.01575820 0.03498573 -0.02320164
v -0.01575820 0.03478396 -0.02327384
v -0.02004977 0.04931847 -0.01031048
v -0.02190922 0.04892588 -0.00962650
v -0.01575820 0.04989090 -0.01186844
v -0.01575820 0.04915836 -0.01294001
v -0.01759071 0.04903116 -0.01224463
v -0.01905604 0.04887982 -0.01164044
v -0.01905604 0.04906625 -0.01135735
v -0.02376868 0.04845653 -0.00894821
v -0.02436155 0.04882061 -0.00768285
v -0.02536707 0.04945445 -0.00506092
v -0.02621763 0.04819115 -0.00700457
v -0.02553886 0.04933821 -0.00514261
v -0.02955421 0.03087124 -0.02090650
v -0.02901860 0.03208190 -0.02058161
v -0.03138671 0.03359084 -0.01867976
v -0.02978159 0.03359084 -0.01947964
v -0.03296489 0.03265214 -0.01833587
v -0.03022118 0.04664054 -0.00506092
v -0.02994496 0.04656816 -0.00565560
v -0.02934030 0.04638613 -0.00691527
v -0.03097574 0.04541233 -0.00670817
v -0.03246634 0.04430695 -0.00682787
v -0.03061025 0.04528732 -0.00747955
v -0.03296489 0.04381566 -0.00705966
v -0.03280320 0.04410736 -0.00670817
v -0.02165153 0.03087124 -0.02342964
v -0.02187722 0.03218718 -0.02293565
v -0.02119340 0.03358865 -0.02256896
v -0.02071506 0.03498573 -0.02211107
v -0.01905604 0.03499231 -0.02251956
v -0.01756039 0.03638721 -0.02225547
v -0.01584579 0.03638940 -0.02262596
v -0.01575820 0.03638940 -0.02264116
v -0.01938953 0.04884473 -0.01150175
v -0.02119340 0.04850478 -0.01084057
v -0.02131804 0.04841486 -0.01089756
v -0.02318086 0.04807052 -0.01010148
v -0.01575820 0.04833810 -0.01396978
v -0.01700121 0.04830081 -0.01351759
v -0.01885898 0.04812755 -0.01283361
v -0.01905604 0.04839293 -0.01234153
v -0.02503358 0.04749151 -0.00953910
v -0.02560792 0.04794990 -0.00817493
v -0.02557760 0.04934918 -0.00506092
v -0.02680208 0.04841047 -0.00573160
v -0.02748422 0.04719762 -0.00759735
v -0.02807372 0.04742791 -0.00632438
v -0.02839878 0.03087124 -0.02136819
v -0.02709683 0.03218279 -0.02130549
v -0.02780591 0.03382332 -0.02023582
v -0.02612331 0.03362593 -0.02100910
v -0.03290594 0.03358865 -0.01783998
v -0.03057488 0.03498793 -0.01829597
v -0.02896639 0.03498793 -0.01909205
v -0.02739158 0.03464798 -0.01999073
v -0.03296489 0.03347021 -0.01787418
v -0.02868006 0.04759021 -0.00506092
v -0.02875249 0.04612732 -0.00818823
v -0.03187516 0.04407885 -0.00809514
v -0.03002918 0.04495175 -0.00878672
v -0.03092185 0.04448021 -0.00856252
v -0.03296489 0.04347352 -0.00770375
v -0.02327181 0.03087124 -0.02303825
v -0.02364404 0.03218718 -0.02246446
v -0.02216018 0.03358865 -0.02232386
v -0.02249872 0.03499012 -0.02160188
v -0.02107045 0.03638721 -0.02134539
v -0.01930700 0.03639159 -0.02183178
v -0.01905604 0.03664381 -0.02177098
v -0.01791914 0.03778868 -0.02149169
v -0.01617422 0.03778429 -0.02190777
v -0.01575820 0.03778429 -0.02199327
v -0.01905604 0.04809465 -0.01276901
v -0.02072854 0.04783146 -0.01217053
v -0.02258462 0.04746081 -0.01148845
v -0.02444408 0.04700023 -0.01081207
v -0.01575820 0.04785120 -0.01453217
v -0.01659529 0.04716691 -0.01498246
v -0.01820042 0.04711428 -0.01439347
v -0.01905604 0.04797402 -0.01292671
v -0.02632037 0.04640586 -0.01015848
v -0.02689472 0.04687083 -0.00886462
v -0.02576456 0.04924609 -0.00506092
v -0.02712209 0.04849601 -0.00506092
v -0.02756338 0.03087124 -0.02169498
v -0.02752464 0.03093704 -0.02168358
v -0.02544960 0.03218498 -0.02189068
v -0.02551360 0.03498573 -0.02056641
v -0.02432618 0.03499012 -0.02099960
v -0.02404322 0.03366322 -0.02172348
v -0.03296489 0.03359742 -0.01779628
v -0.03296489 0.03367638 -0.01774688
v -0.03296489 0.03499231 -0.01690141
v -0.03207895 0.03498793 -0.01745429
v -0.03126039 0.03654073 -0.01691281
v -0.02969737 0.03638501 -0.01788748
v -0.02808888 0.03639159 -0.01868736
v -0.02640964 0.03638501 -0.01943974
v -0.02815962 0.04576325 -0.00945550
v -0.03151472 0.04351519 -0.00943460
v -0.03296489 0.04286600 -0.00878102
v -0.03296489 0.04297127 -0.00860622
v -0.02943125 0.04456136 -0.01004829
v -0.03057657 0.04407008 -0.00960370
v -0.02338466 0.03087124 -0.02300785
v -0.02512285 0.03087124 -0.02251766
v -0.02288948 0.03638721 -0.02076211
v -0.02119340 0.03710878 -0.02091220
v -0.02119340 0.03808915 -0.02037641
v -0.01967754 0.03778429 -0.02101860
v -0.01905604 0.03778429 -0.02118769
v -0.01832674 0.03919015 -0.02061961
v -0.01655824 0.03918576 -0.02108890
v -0.01575820 0.03822074 -0.02177478
v -0.02012725 0.04713621 -0.01342640
v -0.02119340 0.04696075 -0.01304451
v -0.02199175 0.04682916 -0.01275761
v -0.02385626 0.04642122 -0.01208503
v -0.02571066 0.04590800 -0.01140105
v -0.01575820 0.04715376 -0.01528455
v -0.01575820 0.04668660 -0.01575954
v -0.01575820 0.04652210 -0.01592673
v -0.01775240 0.04663835 -0.01508695
v -0.01945185 0.04605056 -0.01497866
v -0.02132646 0.04584220 -0.01430987
v -0.02685766 0.04552857 -0.01098876
v -0.02759369 0.04523687 -0.01077407
v -0.02636753 0.03087124 -0.02211107
v -0.02528285 0.03087124 -0.02246636
v -0.02461251 0.03638940 -0.02015032
v -0.03296489 0.03617227 -0.01608823
v -0.03257919 0.03669645 -0.01597043
v -0.03026666 0.03778649 -0.01660881
v -0.02875249 0.03799923 -0.01730420
v -0.02714399 0.03778649 -0.01824277
v -0.02543949 0.03779087 -0.01899325
v -0.03075510 0.04330245 -0.01055747
v -0.03152146 0.04284845 -0.01041498
v -0.03293626 0.04198432 -0.01013948
v -0.03296489 0.04198432 -0.01010718
v -0.02883502 0.04407227 -0.01131555
v -0.02362383 0.03779745 -0.01970003
v -0.02136351 0.03812424 -0.02030232
v -0.02119172 0.03833918 -0.02023392
v -0.02047926 0.03923182 -0.01993753
v -0.01905604 0.03920331 -0.02038972
v -0.01905604 0.04033282 -0.01970383
v -0.01699447 0.04058504 -0.02015032
v -0.01575820 0.03918576 -0.02126939
v -0.01575820 0.04003893 -0.02078680
v -0.02325665 0.04574570 -0.01333710
v -0.02512116 0.04529828 -0.01267212
v -0.02704799 0.04457671 -0.01215533
v -0.01575820 0.04621725 -0.01621172
v -0.01702310 0.04510090 -0.01679881
v -0.01905604 0.04515573 -0.01600843
v -0.01905604 0.04541891 -0.01575954
v -0.01933226 0.04516231 -0.01590013
v -0.02051463 0.04535750 -0.01520665
v -0.02119340 0.04519301 -0.01504326
v -0.02290464 0.04477411 -0.01462717
v -0.02770149 0.04447802 -0.01174684
v -0.03296489 0.03658679 -0.01578614
v -0.03296489 0.03697938 -0.01547264
v -0.03200990 0.03764831 -0.01561134
v -0.03066247 0.03946211 -0.01500716
v -0.02897481 0.03944237 -0.01609203
v -0.02777728 0.03949062 -0.01672661
v -0.02619910 0.03949720 -0.01751319
v -0.02441544 0.03918576 -0.01851256
v -0.03011171 0.04276730 -0.01191594
v -0.03215812 0.04173429 -0.01130415
v -0.03296489 0.04194703 -0.01016038
v -0.02798445 0.04366872 -0.01257522
v -0.02224945 0.03935903 -0.01924405
v -0.02119340 0.03928227 -0.01966013
v -0.02096939 0.04048635 -0.01897235
v -0.01918068 0.04053021 -0.01954424
v -0.01905604 0.04053241 -0.01958034
v -0.01575820 0.04058504 -0.02046191
v -0.01905604 0.04064865 -0.01950434
v -0.01746944 0.04211811 -0.01899515
v -0.01575820 0.04204573 -0.01953474
v -0.02463272 0.04430037 -0.01416358
v -0.02636922 0.04405473 -0.01331620
v -0.01575820 0.04502852 -0.01726810
v -0.01666098 0.04426966 -0.01762149
v -0.01839748 0.04410298 -0.01717880
v -0.01905604 0.04418851 -0.01686721
v -0.01990155 0.04429379 -0.01646442
v -0.02119340 0.04402841 -0.01614333
v -0.02233198 0.04379373 -0.01585833
v -0.02415606 0.04352177 -0.01521805
v -0.03296489 0.03769656 -0.01488556
v -0.03296489 0.03789176 -0.01472026
v -0.03202842 0.03904320 -0.01439727
v -0.03068436 0.04044687 -0.01407998
v -0.02987422 0.04039642 -0.01470506
v -0.02806866 0.04033063 -0.01589253
v -0.02659997 0.04066180 -0.01643782
v -0.02539401 0.04054776 -0.01713130
v -0.02357162 0.04111799 -0.01751889
v -0.02264863 0.04069251 -0.01820287
v -0.02969906 0.04188562 -0.01332380
v -0.03136650 0.04138776 -0.01249162
v -0.03296489 0.04079778 -0.01168794
v -0.03296489 0.04099518 -0.01144285
v -0.02765264 0.04278046 -0.01385199
v -0.02119340 0.04145575 -0.01821807
v -0.02050453 0.04181325 -0.01822567
v -0.01930194 0.04198213 -0.01851826
v -0.01905604 0.04200187 -0.01858286
v -0.01758397 0.04317305 -0.01818767
v -0.01655656 0.04342527 -0.01831307
v -0.01575820 0.04352616 -0.01845747
v -0.02545802 0.04335070 -0.01466896
v -0.01575820 0.04472805 -0.01752269
v -0.01962701 0.04276730 -0.01782668
v -0.02148310 0.04274317 -0.01713890
v -0.02303770 0.04296469 -0.01627442
v -0.02374510 0.04299759 -0.01591153
v -0.02583867 0.04199309 -0.01573294
v -0.03296489 0.03842471 -0.01422628
v -0.03296489 0.03908926 -0.01359169
v -0.03289584 0.03917480 -0.01356319
v -0.03204695 0.04057627 -0.01280701
v -0.02838026 0.04197116 -0.01418828
v -0.02668755 0.04193387 -0.01529785
v -0.02376868 0.04203038 -0.01671711
v -0.02214334 0.04178693 -0.01761579
v -0.03296489 0.04063768 -0.01187794
v -0.02119340 0.04246683 -0.01746189
v -0.03296489 0.03917480 -0.01350430
f 1 2 3
f 1 3 4
f 1 4 10
f 1 10 15
f 1 15 28
f 1 28 41
f 1 41 40
f 1 40 46
f 1 46 45
f 1 45 62
f 1 62 61
f 1 61 82
f 1 82 112
f 1 112 146
f 1 146 185
f 1 185 186
f 1 186 159
f 1 159 120
f 1 120 89
f 1 89 65
f 1 65 48
f 1 48 31
f 1 31 20
f 1 20 19
f 1 19 18
f 1 18 11
f 1 11 5
f 1 5 12
f 1 12 23
f 1 23 33
f 1 33 51
f 1 51 72
f 1 72 102
f 1 102 101
f 1 101 135
f 1 135 174
f 1 174 216
f 1 216 251
f 1 251 252
f 1 252 282
f 1 282 285
f 1 285 317
f 1 317 319
f 1 319 288
f 1 288 256
f 1 256 224
f 1 224 223
f 1 223 222
f 1 222 179
f 1 179 140
f 1 140 106
f 1 106 105
f 1 105 76
f 1 76 73
f 1 73 53
f 1 53 36
f 1 36 35
f 1 35 24
f 1 24 13
f 1 13 8
f 1 8 7
f 1 7 6
f 1 6 2
f 2 6 3
f 3 6 7
f 3 7 8
f 3 8 9
f 3 9 10
f 3 10 4
f 5 11 12
f 8 13 14
f 8 14 9
f 9 15 10
f 9 14 16
f 9 16 17
f 9 17 15
f 11 18 12
f 12 18 19
f 12 19 20
f 12 20 21
f 12 21 22
f 12 22 32
f 12 32 23
f 13 24 25
f 13 25 14
f 14 25 26
f 14 26 16
f 15 17 27
f 15 27 28
f 16 26 29
f 16 29 30
f 16 30 17
f 17 30 27
f 20 31 47
f 20 47 63
f 20 63 85
f 20 85 115
f 20 115 150
f 20 150 187
f 20 187 230
f 20 230 231
f 20 231 208
f 20 208 207
f 20 207 165
f 20 165 128
f 20 128 95
f 20 95 94
f 20 94 67
f 20 67 49
f 20 49 32
f 20 32 22
f 20 22 21
f 23 32 34
f 23 34 33
f 24 35 25
f 25 36 37
f 25 37 26
f 25 35 36
f 26 37 38
f 26 38 39
f 26 39 29
f 27 30 40
f 27 40 41
f 27 41 28
f 29 39 30
f 30 39 42
f 30 42 43
f 30 43 44
f 30 44 45
f 30 45 46
f 30 46 40
f 31 48 66
f 31 66 93
f 31 93 126
f 31 126 164
f 31 164 204
f 31 204 203
f 31 203 242
f 31 242 275
f 31 275 309
f 31 309 308
f 31 308 333
f 31 333 335
f 31 335 326
f 31 326 325
f 31 325 297
f 31 297 296
f 31 296 266
f 31 266 265
f 31 265 233
f 31 233 195
f 31 195 194
f 31 194 193
f 31 193 158
f 31 158 119
f 31 119 88
f 31 88 64
f 31 64 47
f 32 49 50
f 32 50 34
f 33 34 52
f 33 52 51
f 34 50 52
f 36 53 37
f 37 54 38
f 37 53 55
f 37 55 56
f 37 56 54
f 38 54 39
f 39 54 57
f 39 57 58
f 39 58 42
f 42 58 43
f 43 58 57
f 43 57 59
f 43 59 60
f 43 60 44
f 44 60 61
f 44 61 62
f 44 62 45
f 47 64 63
f 48 65 66
f 49 67 68
f 49 68 69
f 49 69 50
f 50 69 70
f 50 70 52
f 51 71 72
f 51 52 71
f 52 70 71
f 53 73 55
f 54 56 74
f 54 74 75
f 54 75 57
f 55 73 76
f 55 76 77
f 55 77 78
f 55 78 56
f 56 78 79
f 56 79 74
f 57 75 80
f 57 80 81
f 57 81 59
f 59 81 60
f 60 82 61
f 60 81 83
f 60 83 84
f 60 84 82
f 63 64 86
f 63 86 87
f 63 87 85
f 64 88 86
f 65 89 90
f 65 90 91
f 65 91 92
f 65 92 66
f 66 92 93
f 67 94 68
f 68 70 69
f 68 94 95
f 68 95 96
f 68 96 97
f 68 97 98
f 68 98 70
f 70 98 99
f 70 99 71
f 71 99 100
f 71 100 101
f 71 101 102
f 71 102 72
f 74 79 103
f 74 103 104
f 74 104 80
f 74 80 75
f 76 105 77
f 77 105 106
f 77 106 107
f 77 107 78
f 78 107 108
f 78 108 109
f 78 109 103
f 78 103 79
f 80 104 110
f 80 110 111
f 80 111 81
f 81 111 83
f 82 84 112
f 83 111 84
f 84 111 113
f 84 113 114
f 84 114 112
f 85 87 116
f 85 116 115
f 86 88 117
f 86 117 87
f 87 117 118
f 87 118 116
f 88 119 117
f 89 120 121
f 89 121 90
f 90 121 122
f 90 122 123
f 90 123 91
f 91 124 92
f 91 123 125
f 91 125 124
f 92 124 126
f 92 126 127
f 92 127 93
f 93 127 126
f 95 128 129
f 95 129 96
f 96 129 97
f 97 99 98
f 97 129 130
f 97 130 131
f 97 131 132
f 97 132 99
f 99 132 100
f 100 132 133
f 100 133 134
f 100 134 101
f 101 134 135
f 103 109 136
f 103 136 137
f 103 137 104
f 104 137 138
f 104 138 139
f 104 139 110
f 106 140 141
f 106 141 107
f 107 141 142
f 107 142 143
f 107 143 108
f 108 136 109
f 108 143 136
f 110 139 144
f 110 144 145
f 110 145 111
f 111 145 113
f 112 114 146
f 113 147 114
f 113 145 148
f 113 148 149
f 113 149 147
f 114 147 146
f 115 116 151
f 115 151 150
f 116 118 152
f 116 152 153
f 116 153 151
f 117 154 155
f 117 155 118
f 117 119 154
f 118 155 156
f 118 156 157
f 118 157 152
f 119 158 154
f 120 159 121
f 121 159 149
f 121 149 122
f 122 160 125
f 122 125 123
f 122 149 148
f 122 148 160
f 124 125 161
f 124 161 126
f 125 160 162
f 125 162 163
f 125 163 161
f 126 161 164
f 128 165 129
f 129 165 166
f 129 166 167
f 129 167 130
f 130 167 131
f 131 167 168
f 131 168 169
f 131 169 170
f 131 170 132
f 132 170 133
f 133 170 171
f 133 171 172
f 133 172 173
f 133 173 134
f 134 173 174
f 134 174 135
f 136 143 175
f 136 175 176
f 136 176 138
f 136 138 137
f 138 176 177
f 138 177 139
f 139 177 178
f 139 178 144
f 140 179 141
f 141 179 180
f 141 180 181
f 141 181 142
f 142 181 182
f 142 182 175
f 142 175 143
f 144 178 183
f 144 183 184
f 144 184 145
f 145 184 148
f 146 147 185
f 147 149 159
f 147 159 186
f 147 186 185
f 148 184 160
f 150 151 188
f 150 188 187
f 151 189 188
f 151 153 189
f 152 157 153
f 153 157 190
f 153 190 191
f 153 191 192
f 153 192 189
f 154 158 193
f 154 193 194
f 154 194 195
f 154 195 196
f 154 196 155
f 155 196 197
f 155 197 198
f 155 198 199
f 155 199 156
f 156 199 157
f 157 199 200
f 157 200 190
f 160 201 162
f 160 184 201
f 161 163 202
f 161 202 203
f 161 203 204
f 161 204 164
f 162 205 206
f 162 206 163
f 162 201 205
f 163 206 202
f 165 207 166
f 166 207 208
f 166 208 189
f 166 189 192
f 166 192 167
f 167 192 168
f 168 191 209
f 168 209 169
f 168 192 191
f 169 209 210
f 169 210 211
f 169 211 212
f 169 212 170
f 170 212 213
f 170 213 171
f 171 213 172
f 172 213 214
f 172 214 215
f 172 215 173
f 173 215 216
f 173 216 174
f 175 182 217
f 175 217 176
f 176 217 218
f 176 218 219
f 176 219 177
f 177 219 220
f 177 220 178
f 178 220 221
f 178 221 183
f 179 222 180
f 180 222 223
f 180 223 224
f 180 224 225
f 180 225 181
f 181 225 226
f 181 226 227
f 181 227 217
f 181 217 182
f 183 221 228
f 183 228 229
f 183 229 201
f 183 201 184
f 187 188 230
f 188 189 230
f 189 208 231
f 189 231 230
f 190 200 232
f 190 232 191
f 191 232 209
f 195 233 197
f 195 197 196
f 197 234 235
f 197 235 236
f 197 236 198
f 197 233 234
f 198 236 199
f 199 236 237
f 199 237 200
f 200 237 238
f 200 238 232
f 201 229 205
f 202 239 240
f 202 240 241
f 202 241 203
f 202 206 239
f 203 241 242
f 205 243 239
f 205 239 206
f 205 229 243
f 209 232 244
f 209 244 245
f 209 245 211
f 209 211 210
f 211 245 246
f 211 246 212
f 212 246 247
f 212 247 248
f 212 248 214
f 212 214 213
f 214 248 249
f 214 249 250
f 214 250 215
f 215 251 216
f 215 250 252
f 215 252 251
f 217 227 218
f 218 227 219
f 219 227 253
f 219 253 220
f 220 253 254
f 220 254 221
f 221 254 255
f 221 255 228
f 224 256 257
f 224 257 258
f 224 258 225
f 225 258 259
f 225 259 226
f 226 259 260
f 226 260 261
f 226 261 227
f 227 261 262
f 227 262 263
f 227 263 253
f 228 255 264
f 228 264 229
f 229 264 243
f 232 238 244
f 233 265 234
f 234 266 267
f 234 267 235
f 234 265 266
f 235 267 268
f 235 268 269
f 235 269 236
f 236 269 270
f 236 270 271
f 236 271 237
f 237 271 272
f 237 272 238
f 238 272 244
f 239 243 273
f 239 273 274
f 239 274 240
f 240 274 241
f 241 274 275
f 241 275 242
f 243 276 273
f 243 264 276
f 244 272 277
f 244 277 246
f 244 246 245
f 246 277 278
f 246 278 247
f 247 278 279
f 247 279 280
f 247 280 249
f 247 249 248
f 249 280 281
f 249 281 250
f 250 282 252
f 250 281 283
f 250 283 284
f 250 284 285
f 250 285 282
f 253 263 286
f 253 286 254
f 254 286 287
f 254 287 255
f 255 287 276
f 255 276 264
f 256 288 257
f 257 288 289
f 257 289 290
f 257 290 291
f 257 291 258
f 258 291 292
f 258 292 260
f 258 260 259
f 260 292 261
f 261 292 293
f 261 293 294
f 261 294 262
f 262 294 263
f 263 294 295
f 263 295 286
f 266 296 267
f 267 296 297
f 267 297 298
f 267 298 268
f 268 298 299
f 268 299 300
f 268 300 269
f 269 300 301
f 269 301 270
f 270 301 302
f 270 302 303
f 270 303 271
f 271 303 272
f 272 303 304
f 272 304 305
f 272 305 277
f 273 306 307
f 273 307 274
f 273 276 306
f 274 307 308
f 274 308 309
f 274 309 275
f 276 287 310
f 276 310 306
f 277 305 279
f 277 279 278
f 279 305 311
f 279 311 312
f 279 312 313
f 279 313 280
f 280 313 283
f 280 283 281
f 283 313 314
f 283 314 284
f 284 314 315
f 284 315 316
f 284 316 285
f 285 316 317
f 286 295 318
f 286 318 287
f 287 318 310
f 288 319 289
f 289 319 316
f 289 316 315
f 289 315 290
f 290 315 320
f 290 320 291
f 291 320 292
f 292 320 321
f 292 321 293
f 293 321 294
f 294 321 322
f 294 322 323
f 294 323 295
f 295 323 324
f 295 324 318
f 297 325 298
f 298 325 326
f 298 326 327
f 298 327 299
f 299 328 307
f 299 307 306
f 299 306 329
f 299 329 300
f 299 327 328
f 300 329 330
f 300 330 301
f 301 330 324
f 301 324 302
f 302 324 303
f 303 324 331
f 303 331 304
f 304 331 332
f 304 332 305
f 305 332 311
f 306 310 329
f 307 328 333
f 307 333 308
f 310 330 329
f 310 318 330
f 311 332 312
f 312 332 334
f 312 334 320
f 312 320 313
f 313 320 315
f 313 315 314
f 316 319 317
f 318 324 330
f 320 334 321
f 321 334 332
f 321 332 331
f 321 331 322
f 322 331 323
f 323 331 324
f 326 335 327
f 327 335 328
f 328 335 333

