# https://github.com/mikedh/trimesh
v -0.01582595 -0.01347334 -0.02768300
v -0.00908740 -0.01932050 -0.02768300
v -0.00908740 -0.02134087 -0.02934344
v -0.01880726 -0.01347334 -0.02931532
v -0.02532205 -0.01347334 -0.02768300
v -0.00908740 -0.02723466 -0.02768300
v -0.00908740 -0.02748429 -0.02934344
v -0.01474417 -0.01767320 -0.02934344
v -0.02553293 -0.01347334 -0.02931532
v -0.02524317 -0.01401513 -0.02931532
v -0.02501297 -0.01404393 -0.02768300
v -0.00974258 -0.02703028 -0.02768300
v -0.00921618 -0.02744588 -0.02934344
v -0.02284298 -0.01767320 -0.02934344
v -0.02501458 -0.01441426 -0.02931532
v -0.02483106 -0.01437037 -0.02768300
v -0.01016273 -0.02712218 -0.02934344
v -0.00963151 -0.02730598 -0.02934344
v -0.01062957 -0.02670522 -0.02768300
v -0.02257415 -0.01802021 -0.02934344
v -0.02326153 -0.01678165 -0.02768300
v -0.02347080 -0.01685298 -0.02931532
v -0.02429018 -0.01564597 -0.02931532
v -0.02437389 -0.01551566 -0.02931532
v -0.02450428 -0.01529621 -0.02931532
v -0.02416461 -0.01546903 -0.02768300
v -0.01116885 -0.02670933 -0.02934344
v -0.01152622 -0.02633488 -0.02768300
v -0.02208156 -0.01859492 -0.02934344
v -0.02215078 -0.01815600 -0.02768300
v -0.02280757 -0.01734538 -0.02768300
v -0.02412759 -0.01552664 -0.02768300
v -0.01137007 -0.02662429 -0.02934344
v -0.01252106 -0.02609348 -0.02934344
v -0.01160671 -0.02651731 -0.02934344
v -0.01307483 -0.02556678 -0.02768300
v -0.02165336 -0.01908458 -0.02934344
v -0.02154711 -0.01882809 -0.02768300
v -0.01326317 -0.02572040 -0.02934344
v -0.01387650 -0.02516353 -0.02768300
v -0.02112374 -0.01965379 -0.02934344
v -0.02056514 -0.02025181 -0.02934344
v -0.02010796 -0.02034646 -0.02768300
v -0.01416465 -0.02523486 -0.02934344
v -0.01473451 -0.02468621 -0.02768300
v -0.01440773 -0.02510181 -0.02934344
v -0.01962825 -0.02119548 -0.02934344
v -0.01912600 -0.02129561 -0.02768300
v -0.01460734 -0.02498111 -0.02934344
v -0.01563921 -0.02403059 -0.02768300
v -0.01633464 -0.02386874 -0.02934344
v -0.01607707 -0.02404567 -0.02934344
v -0.01540257 -0.02449693 -0.02934344
v -0.01866882 -0.02206096 -0.02934344
v -0.01815208 -0.02209799 -0.02768300
v -0.01746792 -0.02297171 -0.02910888
v -0.01753392 -0.02297445 -0.02934344
v -0.01692704 -0.02342982 -0.02934344
f 1 2 3
f 1 3 4
f 1 4 9
f 1 9 5
f 1 5 11
f 1 11 16
f 1 16 26
f 1 26 32
f 1 32 21
f 1 21 31
f 1 31 30
f 1 30 38
f 1 38 43
f 1 43 48
f 1 48 55
f 1 55 50
f 1 50 45
f 1 45 40
f 1 40 36
f 1 36 28
f 1 28 19
f 1 19 12
f 1 12 6
f 1 6 2
f 2 6 7
f 2 7 3
f 3 7 13
f 3 13 18
f 3 18 17
f 3 17 27
f 3 27 33
f 3 33 35
f 3 35 34
f 3 34 39
f 3 39 44
f 3 44 46
f 3 46 49
f 3 49 53
f 3 53 52
f 3 52 51
f 3 51 58
f 3 58 57
f 3 57 54
f 3 54 47
f 3 47 42
f 3 42 41
f 3 41 37
f 3 37 29
f 3 29 20
f 3 20 14
f 3 14 8
f 3 8 4
f 4 8 14
f 4 14 9
f 5 9 10
f 5 10 11
f 6 12 13
f 6 13 7
f 9 14 10
f 10 14 15
f 10 15 16
f 10 16 11
f 12 17 18
f 12 18 13
f 12 19 17
f 14 20 21
f 14 21 22
f 14 22 23
f 14 23 24
f 14 24 25
f 14 25 15
f 15 25 16
f 16 25 24
f 16 24 26
f 17 19 27
f 19 28 27
f 20 29 30
f 20 30 31
f 20 31 21
f 21 32 22
f 22 32 23
f 23 32 26
f 23 26 24
f 27 28 33
f 28 34 35
f 28 35 33
f 28 36 34
f 29 37 30
f 30 37 38
f 34 36 39
f 36 40 39
f 37 41 38
f 38 41 42
f 38 42 43
f 39 40 44
f 40 45 46
f 40 46 44
f 42 47 43
f 43 47 48
f 45 49 46
f 45 50 51
f 45 51 52
f 45 52 53
f 45 53 49
f 47 54 48
f 48 54 55
f 50 56 57
f 50 57 58
f 50 58 51
f 50 55 56
f 54 57 55
f 55 57 56

