# https://github.com/mikedh/trimesh
v -0.03296489 0.00098011 -0.02471088
v -0.03296489 0.00190551 -0.02470721
v -0.03296489 0.00023346 -0.02470904
v -0.03359805 -0.00011994 -0.02454955
v -0.03345465 0.00138449 -0.02458621
v -0.03296489 0.00276058 -0.02470354
v -0.03296489 0.00004591 -0.02470721
v -0.03337523 -0.00032565 -0.02460271
v -0.03353628 -0.00032565 -0.02456238
v -0.03386057 -0.00032565 -0.02447255
v -0.03524821 -0.00032565 -0.02408389
v -0.03524380 -0.00001562 -0.02408756
v -0.03524821 0.00138449 -0.02408389
v -0.03341715 0.00304366 -0.02458804
v -0.03296489 0.00395910 -0.02469438
v -0.03322080 0.00399953 -0.02463205
v -0.03296489 -0.00032565 -0.02470354
v -0.03674395 -0.00032565 -0.02358890
v -0.03708590 -0.00007423 -0.02347707
v -0.03499451 0.00285846 -0.02414072
v -0.03649907 0.00196939 -0.02366407
v -0.03296489 0.00424568 -0.02468521
v -0.03296489 0.00532112 -0.02464854
v -0.03363334 0.00529064 -0.02448355
v -0.03296489 -0.00032565 -0.00976217
v -0.03708148 -0.00032565 -0.02347523
v -0.03811835 -0.00032565 -0.02309024
v -0.03840515 -0.00002676 -0.02298391
v -0.03769478 0.00075388 -0.02324974
v -0.03527248 0.00429374 -0.02402156
v -0.03760874 0.00277524 -0.02325707
v -0.03651231 0.00348086 -0.02362923
v -0.03296489 0.00566163 -0.02463205
v -0.03361349 0.00566163 -0.02447071
v -0.03529895 0.00558368 -0.02396656
v -0.03296489 0.00566163 -0.00960451
v -0.03859707 -0.00032565 -0.00685090
v -0.03869856 -0.00032565 -0.02285741
v -0.03930082 -0.00017797 -0.02261358
v -0.03936921 0.00264513 -0.02255308
v -0.03648363 0.00487688 -0.02359257
v -0.03771905 0.00418356 -0.02317091
v -0.03531439 0.00566163 -0.02395556
v -0.04005972 0.00566163 -0.00598191
v -0.04020533 0.00111256 -0.00598191
v -0.04039505 -0.00032565 -0.00598191
v -0.03934053 -0.00032565 -0.02259342
v -0.04120910 -0.00032565 -0.02170244
v -0.04104585 0.00146947 -0.02178310
v -0.03956556 0.00138449 -0.02248525
v -0.04116719 0.00278344 -0.02169144
v -0.03950820 0.00450238 -0.02241925
v -0.03920816 0.00561533 -0.02249992
v -0.03792642 0.00566163 -0.02301874
v -0.03794186 0.00561122 -0.02301508
v -0.05522227 0.00566163 -0.00598191
v -0.05549803 -0.00032565 -0.00598191
v -0.04270925 -0.00032565 -0.02086462
v -0.04271366 -0.00001562 -0.02086645
v -0.04271366 0.00138449 -0.02086829
v -0.04100614 0.00426502 -0.02170794
v -0.04254600 0.00265392 -0.02092879
v -0.03925008 0.00566163 -0.02247609
v -0.03921699 0.00566163 -0.02249075
v -0.05521344 0.00566163 -0.00600941
v -0.05523109 0.00558427 -0.00598191
v -0.05550245 -0.00001562 -0.00598191
v -0.05525315 -0.00001562 -0.00664007
v -0.05524874 -0.00032565 -0.00663823
v -0.04381010 -0.00032565 -0.02017713
v -0.04412778 -0.00001562 -0.01998280
v -0.04411895 0.00138449 -0.01998280
v -0.04407042 0.00278344 -0.01996447
v -0.04260115 0.00418356 -0.02081695
v -0.04247982 0.00563408 -0.02079679
v -0.04101276 0.00558309 -0.02161260
v -0.04099732 0.00566163 -0.02161444
v -0.05501269 0.00566163 -0.00652824
v -0.05502151 0.00558427 -0.00653190
v -0.05512741 0.00418356 -0.00658140
v -0.05529948 0.00479952 -0.00598191
v -0.05548480 0.00138449 -0.00598191
v -0.05523992 0.00138449 -0.00663457
v -0.05468619 0.00138449 -0.00791971
v -0.05469722 -0.00001562 -0.00792521
v -0.05481855 -0.00032565 -0.00763921
v -0.04412116 -0.00032565 -0.01998097
v -0.04545144 -0.00001562 -0.01906615
v -0.04544482 0.00138449 -0.01905699
v -0.04540291 0.00278344 -0.01903866
v -0.04400644 0.00418415 -0.01993147
v -0.04391599 0.00566163 -0.01988747
v -0.04247761 0.00566163 -0.02079496
v -0.05444793 0.00566163 -0.00780788
v -0.05456265 0.00418356 -0.00786288
v -0.05520021 0.00278344 -0.00661623
v -0.05544067 0.00278344 -0.00598191
v -0.05535243 0.00418415 -0.00598191
v -0.05464427 0.00278286 -0.00790138
v -0.05401774 0.00278344 -0.00915352
v -0.05405745 0.00138449 -0.00917185
v -0.05407068 -0.00001562 -0.00917918
v -0.05442807 -0.00001562 -0.00846420
v -0.05406848 -0.00032565 -0.00917735
v -0.05442366 -0.00032565 -0.00846420
v -0.05469280 -0.00032565 -0.00792338
v -0.04544702 -0.00032565 -0.01906249
v -0.04572720 -0.00032565 -0.01885166
v -0.04671774 -0.00032565 -0.01810367
v -0.04671995 -0.00001562 -0.01810734
v -0.04671112 0.00138449 -0.01810367
v -0.04533672 0.00418356 -0.01900382
v -0.04666921 0.00278344 -0.01808534
v -0.04660302 0.00418415 -0.01805051
v -0.04525509 0.00558309 -0.01896166
v -0.04524627 0.00566163 -0.01895982
v -0.05412363 0.00558427 -0.00846420
v -0.05419202 0.00488626 -0.00846420
v -0.05426041 0.00418356 -0.00846420
v -0.05381257 0.00566163 -0.00906002
v -0.05430894 0.00353009 -0.00846420
v -0.05393170 0.00418415 -0.00911502
v -0.05325001 0.00418473 -0.01034333
v -0.05333605 0.00278344 -0.01038183
v -0.05338459 0.00138449 -0.01040566
v -0.05339782 -0.00001562 -0.01041116
v -0.05339121 -0.00032565 -0.01040749
v -0.04698247 -0.00032565 -0.01788735
v -0.04792448 -0.00001562 -0.01712103
v -0.04790904 0.00138449 -0.01711553
v -0.04786492 0.00278344 -0.01709719
v -0.04779653 0.00418415 -0.01706420
v -0.04651257 0.00558368 -0.01800834
v -0.04650595 0.00566163 -0.01800468
v -0.05313750 0.00566163 -0.01028833
v -0.05314412 0.00558485 -0.01029200
v -0.05242934 0.00558368 -0.01150197
v -0.05252862 0.00418415 -0.01154964
v -0.05261466 0.00278286 -0.01158814
v -0.05265878 0.00138449 -0.01160830
v -0.05266760 -0.00001562 -0.01161564
v -0.05266319 -0.00032565 -0.01161197
v -0.04792007 -0.00032565 -0.01711919
v -0.04816715 -0.00032565 -0.01689370
v -0.04903856 -0.00032565 -0.01609621
v -0.04904077 -0.00001562 -0.01609621
v -0.04910695 0.00128076 -0.01602472
v -0.04899003 0.00278344 -0.01607422
v -0.04769725 0.00558368 -0.01701653
v -0.04891723 0.00418415 -0.01604305
v -0.04881354 0.00566163 -0.01599722
v -0.04769063 0.00566163 -0.01701286
v -0.05242272 0.00566163 -0.01149831
v -0.05238081 0.00566163 -0.01156614
v -0.05175428 0.00418415 -0.01273395
v -0.05183149 0.00278344 -0.01277061
v -0.05186679 0.00138449 -0.01278528
v -0.05186458 -0.00032565 -0.01278345
v -0.05248670 -0.00032565 -0.01187230
v -0.04983055 -0.00032565 -0.01528223
v -0.05005558 -0.00001562 -0.01505123
v -0.05005778 0.00138449 -0.01502924
v -0.05002469 0.00278344 -0.01501824
v -0.04990335 0.00409799 -0.01505123
v -0.04992100 0.00566163 -0.01485690
v -0.05164838 0.00566163 -0.01268262
v -0.05165500 0.00558368 -0.01268628
v -0.05080124 0.00566163 -0.01383393
v -0.05080565 0.00558427 -0.01383759
v -0.05090272 0.00418356 -0.01387976
v -0.05096890 0.00278344 -0.01391092
v -0.05100200 0.00138449 -0.01393109
v -0.05101303 -0.00001562 -0.01393109
v -0.05100861 -0.00032565 -0.01393109
v -0.05005558 -0.00032565 -0.01504757
f 1 2 6
f 1 6 15
f 1 15 22
f 1 22 23
f 1 23 33
f 1 33 36
f 1 36 25
f 1 25 17
f 1 17 7
f 1 7 3
f 1 3 4
f 1 4 5
f 1 5 2
f 2 5 6
f 3 7 8
f 3 8 4
f 4 8 9
f 4 9 10
f 4 10 11
f 4 11 12
f 4 12 13
f 4 13 5
f 5 13 14
f 5 14 6
f 6 14 16
f 6 16 15
f 7 17 8
f 8 17 25
f 8 25 37
f 8 37 46
f 8 46 57
f 8 57 69
f 8 69 86
f 8 86 106
f 8 106 105
f 8 105 104
f 8 104 127
f 8 127 142
f 8 142 159
f 8 159 158
f 8 158 174
f 8 174 175
f 8 175 160
f 8 160 145
f 8 145 144
f 8 144 143
f 8 143 128
f 8 128 109
f 8 109 108
f 8 108 107
f 8 107 87
f 8 87 70
f 8 70 58
f 8 58 48
f 8 48 47
f 8 47 38
f 8 38 27
f 8 27 26
f 8 26 18
f 8 18 11
f 8 11 10
f 8 10 9
f 11 18 12
f 12 18 19
f 12 19 13
f 13 20 14
f 13 19 21
f 13 21 20
f 14 20 16
f 15 16 22
f 16 23 22
f 16 20 24
f 16 24 23
f 18 26 19
f 19 26 27
f 19 27 28
f 19 28 29
f 19 29 21
f 20 21 30
f 20 30 24
f 21 29 31
f 21 31 32
f 21 32 30
f 23 24 34
f 23 34 33
f 24 30 35
f 24 35 34
f 25 36 37
f 27 38 28
f 28 31 29
f 28 38 39
f 28 39 40
f 28 40 31
f 30 32 41
f 30 41 35
f 31 42 32
f 31 40 42
f 32 42 41
f 33 34 43
f 33 43 54
f 33 54 64
f 33 64 63
f 33 63 77
f 33 77 93
f 33 93 92
f 33 92 116
f 33 116 134
f 33 134 152
f 33 152 151
f 33 151 165
f 33 165 168
f 33 168 166
f 33 166 154
f 33 154 153
f 33 153 135
f 33 135 120
f 33 120 94
f 33 94 78
f 33 78 65
f 33 65 56
f 33 56 44
f 33 44 36
f 34 35 43
f 35 41 43
f 36 44 45
f 36 45 37
f 37 45 46
f 38 47 39
f 39 47 48
f 39 48 49
f 39 49 50
f 39 50 40
f 40 50 49
f 40 49 51
f 40 51 52
f 40 52 53
f 40 53 42
f 41 42 54
f 41 54 43
f 42 53 55
f 42 55 54
f 44 56 66
f 44 66 81
f 44 81 98
f 44 98 97
f 44 97 82
f 44 82 67
f 44 67 57
f 44 57 46
f 44 46 45
f 48 58 59
f 48 59 60
f 48 60 49
f 49 60 51
f 51 61 52
f 51 60 62
f 51 62 61
f 52 61 53
f 53 63 64
f 53 64 54
f 53 54 55
f 53 61 63
f 56 65 66
f 57 67 68
f 57 68 69
f 58 70 59
f 59 70 71
f 59 71 60
f 60 71 72
f 60 72 73
f 60 73 62
f 61 62 74
f 61 74 75
f 61 75 76
f 61 76 63
f 62 73 74
f 63 76 77
f 65 78 79
f 65 79 66
f 66 79 80
f 66 80 81
f 67 82 83
f 67 83 68
f 68 83 84
f 68 84 85
f 68 85 86
f 68 86 69
f 70 87 71
f 71 87 88
f 71 88 72
f 72 88 89
f 72 89 90
f 72 90 73
f 73 90 91
f 73 91 74
f 74 91 75
f 75 91 92
f 75 92 93
f 75 93 77
f 75 77 76
f 78 94 79
f 79 94 95
f 79 95 80
f 80 96 97
f 80 97 98
f 80 98 81
f 80 95 99
f 80 99 96
f 82 97 83
f 83 97 96
f 83 96 84
f 84 96 99
f 84 99 100
f 84 100 101
f 84 101 102
f 84 102 103
f 84 103 85
f 85 103 104
f 85 104 105
f 85 105 106
f 85 106 86
f 87 107 88
f 88 107 108
f 88 108 109
f 88 109 110
f 88 110 111
f 88 111 89
f 89 111 113
f 89 113 90
f 90 112 91
f 90 113 114
f 90 114 112
f 91 112 115
f 91 115 92
f 92 115 116
f 94 117 118
f 94 118 119
f 94 119 95
f 94 120 117
f 95 119 121
f 95 121 99
f 99 121 100
f 100 121 119
f 100 119 122
f 100 122 123
f 100 123 124
f 100 124 125
f 100 125 101
f 101 125 102
f 102 104 103
f 102 125 126
f 102 126 104
f 104 126 127
f 109 128 110
f 110 128 129
f 110 129 111
f 111 129 130
f 111 130 113
f 112 114 115
f 113 130 131
f 113 131 132
f 113 132 114
f 114 133 115
f 114 132 133
f 115 133 116
f 116 133 134
f 117 120 122
f 117 122 118
f 118 122 119
f 120 135 136
f 120 136 122
f 122 136 123
f 123 136 137
f 123 137 138
f 123 138 139
f 123 139 124
f 124 139 125
f 125 139 140
f 125 140 126
f 126 140 141
f 126 141 142
f 126 142 127
f 128 143 129
f 129 143 144
f 129 144 145
f 129 145 146
f 129 146 147
f 129 147 130
f 130 147 148
f 130 148 131
f 131 148 132
f 132 149 133
f 132 148 150
f 132 150 151
f 132 151 149
f 133 149 152
f 133 152 134
f 135 153 136
f 136 153 137
f 137 154 138
f 137 153 154
f 138 154 155
f 138 155 139
f 139 155 156
f 139 156 140
f 140 156 157
f 140 157 141
f 141 157 158
f 141 158 159
f 141 159 142
f 145 160 146
f 146 160 161
f 146 161 147
f 147 161 162
f 147 162 163
f 147 163 148
f 148 163 164
f 148 164 150
f 149 151 152
f 150 164 151
f 151 164 165
f 154 166 167
f 154 167 155
f 155 167 168
f 155 168 169
f 155 169 170
f 155 170 156
f 156 170 171
f 156 171 172
f 156 172 157
f 157 172 173
f 157 173 158
f 158 173 174
f 160 175 161
f 161 175 173
f 161 173 172
f 161 172 162
f 162 172 163
f 163 172 171
f 163 171 170
f 163 170 164
f 164 170 169
f 164 169 165
f 165 169 168
f 166 168 167
f 173 175 174

