# https://github.com/mikedh/trimesh
v 0.01218590 0.02815705 -0.02555225
v 0.01218590 0.02624773 -0.02614999
v 0.01218590 0.02173926 -0.02555225
v 0.01329214 0.02768459 -0.02555225
v 0.01251756 0.02609381 -0.02614999
v 0.01218590 0.02173926 -0.02614999
v 0.01956687 0.02173926 -0.02555225
v 0.01400604 0.02732522 -0.02555225
v 0.01288679 0.02591978 -0.02614999
v 0.01896281 0.02173926 -0.02614999
v 0.01956687 0.02173926 -0.02595570
v 0.01956687 0.02364858 -0.02555225
v 0.01575175 0.02446031 -0.02614999
v 0.01501618 0.02484543 -0.02614999
v 0.01685582 0.02569297 -0.02555225
v 0.01591866 0.02437172 -0.02614999
v 0.01680307 0.02364355 -0.02614999
v 0.01904591 0.02173926 -0.02612412
v 0.01927062 0.02173926 -0.02605378
v 0.01940068 0.02378868 -0.02555225
v 0.01792738 0.02495727 -0.02555225
f 1 2 6
f 1 6 3
f 1 3 7
f 1 7 12
f 1 12 20
f 1 20 21
f 1 21 15
f 1 15 8
f 1 8 4
f 1 4 2
f 2 5 9
f 2 9 14
f 2 14 13
f 2 13 16
f 2 16 17
f 2 17 10
f 2 10 6
f 2 4 5
f 3 6 10
f 3 10 18
f 3 18 19
f 3 19 11
f 3 11 7
f 4 8 9
f 4 9 5
f 7 11 12
f 8 13 14
f 8 14 9
f 8 15 16
f 8 16 13
f 10 17 12
f 10 12 18
f 11 19 12
f 12 19 18
f 12 17 20
f 15 21 16
f 16 21 20
f 16 20 17

