# https://github.com/mikedh/trimesh
v -0.02066239 0.00806203 -0.01238714
v -0.02906330 0.00806203 -0.01067887
v -0.02066239 -0.00032565 -0.01256369
v -0.02066239 0.00806203 -0.02785573
v -0.02906330 -0.00032565 -0.01100001
v -0.02906330 0.00806203 -0.02547323
v -0.02066239 -0.00032565 -0.02785573
v -0.02553551 0.00806203 -0.02785573
v -0.02906330 -0.00032565 -0.02606171
v -0.02723197 0.00806203 -0.02785405
v -0.02752307 0.00691997 -0.02785405
v -0.02786434 0.00555624 -0.02785405
v -0.02812091 0.00443470 -0.02785405
v -0.02814311 0.00431483 -0.02785405
v -0.02832402 0.00305372 -0.02785405
v -0.02835774 0.00269739 -0.02785405
v -0.02845477 0.00157750 -0.02785405
v -0.02906330 0.00492814 -0.02594569
v -0.02553551 -0.00032565 -0.02785573
v -0.02852961 -0.00011136 -0.02785405
v -0.02852220 0.00023758 -0.02785405
v -0.02847451 0.00124334 -0.02785405
v -0.02852714 -0.00032565 -0.02785405
f 1 2 3
f 1 3 7
f 1 7 4
f 1 4 8
f 1 8 10
f 1 10 6
f 1 6 2
f 2 5 3
f 2 6 18
f 2 18 9
f 2 9 5
f 3 5 9
f 3 9 23
f 3 23 19
f 3 19 7
f 4 7 19
f 4 19 8
f 6 10 11
f 6 11 12
f 6 12 13
f 6 13 14
f 6 14 15
f 6 15 16
f 6 16 17
f 6 17 18
f 8 19 20
f 8 20 21
f 8 21 22
f 8 22 17
f 8 17 16
f 8 16 15
f 8 15 14
f 8 14 13
f 8 13 12
f 8 12 11
f 8 11 10
f 9 18 20
f 9 20 23
f 17 22 18
f 18 22 21
f 18 21 20
f 19 23 20

