# https://github.com/mikedh/trimesh
v -0.02906330 -0.00032565 -0.02606386
v -0.03296451 -0.00032565 -0.02470434
v -0.03296451 0.00004680 -0.02470772
v -0.03296451 0.00023430 -0.02470940
v -0.03296451 0.00098048 -0.02470940
v -0.03296451 0.00190523 -0.02470772
v -0.03296451 0.00276111 -0.02470434
v -0.03296451 0.00396010 -0.02469421
v -0.02906330 0.00492949 -0.02594733
v -0.02906330 -0.00032565 -0.01099763
v -0.03296451 -0.00032565 -0.00976308
v -0.03296451 0.00424709 -0.02468745
v -0.02906330 0.01270507 -0.02509784
v -0.03296451 0.00532235 -0.02464861
v -0.03296451 0.00698308 -0.02457430
v -0.03296451 0.00744992 -0.02455234
v -0.03296451 0.00838361 -0.02449492
v -0.03296451 0.00888744 -0.02446283
v -0.03296451 0.00978413 -0.02439866
v -0.03296451 0.01033515 -0.02435643
v -0.03296451 0.01118337 -0.02428550
v -0.03296451 0.01178542 -0.02423146
v -0.03199179 0.01258390 -0.02443412
v -0.03024073 0.01258262 -0.02486140
v -0.03010706 0.01270507 -0.02487829
v -0.02906330 0.01270507 -0.01022076
v -0.03296451 0.01270507 -0.00881226
v -0.03296451 0.01258390 -0.02415377
v -0.03199828 0.01270507 -0.02441892
v -0.03039998 0.01270507 -0.02480905
v -0.03024760 0.01270507 -0.02484620
v -0.03296451 0.01270507 -0.02414026
f 1 2 3
f 1 3 4
f 1 4 5
f 1 5 6
f 1 6 7
f 1 7 8
f 1 8 9
f 1 9 13
f 1 13 26
f 1 26 10
f 1 10 11
f 1 11 2
f 2 11 27
f 2 27 32
f 2 32 28
f 2 28 22
f 2 22 21
f 2 21 20
f 2 20 19
f 2 19 18
f 2 18 17
f 2 17 16
f 2 16 15
f 2 15 14
f 2 14 12
f 2 12 8
f 2 8 7
f 2 7 6
f 2 6 5
f 2 5 4
f 2 4 3
f 8 12 9
f 9 12 14
f 9 14 15
f 9 15 16
f 9 16 17
f 9 17 18
f 9 18 19
f 9 19 20
f 9 20 21
f 9 21 22
f 9 22 23
f 9 23 24
f 9 24 25
f 9 25 13
f 10 26 27
f 10 27 11
f 13 25 31
f 13 31 30
f 13 30 29
f 13 29 32
f 13 32 27
f 13 27 26
f 22 28 23
f 23 28 29
f 23 29 30
f 23 30 24
f 24 30 31
f 24 31 25
f 28 32 29

