# https://github.com/mikedh/trimesh
v 0.05802970 0.00002016 0.00348905
v 0.05803261 -0.00047780 0.00348905
v 0.05800497 -0.00048507 0.00330694
v 0.05800206 0.00002016 0.00330811
v 0.04774937 0.00002016 0.00348905
v 0.05802242 -0.00083491 0.00348905
v 0.05798169 -0.00208344 0.00348905
v 0.05783186 -0.00157276 0.00244806
v 0.05782895 -0.00001710 0.00230295
v 0.05783331 0.00002016 0.00232939
v 0.04429157 0.00002016 -0.00251136
v 0.04317145 -0.00926291 -0.00251136
v 0.04676018 -0.00926291 0.00348905
v 0.05796133 -0.00268862 0.00348905
v 0.05785513 -0.00281492 0.00285870
v 0.05751473 -0.00281583 0.00115739
v 0.05757583 -0.00141646 0.00118676
v 0.05760202 -0.00001619 0.00120027
v 0.05782313 0.00002016 0.00227417
v 0.05666665 0.00002016 -0.00251136
v 0.05583311 -0.00926291 -0.00251136
v 0.05719616 -0.00926291 0.00348905
v 0.05785950 -0.00416885 0.00348905
v 0.05774603 -0.00421883 0.00277645
v 0.05741145 -0.00421611 0.00109923
v 0.05710451 -0.00281583 -0.00058505
v 0.05716124 -0.00141646 -0.00056743
v 0.05759183 0.00002016 0.00115504
v 0.05760202 0.00002016 0.00120027
v 0.05672192 0.00002016 -0.00232455
v 0.05666665 -0.00005072 -0.00251136
v 0.05598003 -0.00841784 -0.00251136
v 0.05625061 -0.00926291 -0.00099275
v 0.05719470 -0.00926291 0.00347261
v 0.05735181 -0.00841421 0.00348905
v 0.05780422 -0.00482310 0.00348905
v 0.05773294 -0.00561547 0.00348905
v 0.05761365 -0.00561638 0.00273592
v 0.05726744 -0.00561547 0.00103402
v 0.05699686 -0.00421611 -0.00063322
v 0.05663901 -0.00281674 -0.00235510
v 0.05718306 -0.00001619 -0.00055685
v 0.05669429 -0.00141646 -0.00232925
v 0.05672192 -0.00001619 -0.00232455
v 0.05718306 0.00002016 -0.00055626
v 0.05664192 -0.00141465 -0.00251136
v 0.05617351 -0.00706663 -0.00251136
v 0.05665356 -0.00701393 -0.00079125
v 0.05641644 -0.00841693 -0.00091697
v 0.05685139 -0.00841511 0.00084133
v 0.05668265 -0.00926291 0.00076084
v 0.05719470 -0.00841239 0.00255439
v 0.05702305 -0.00926291 0.00246862
v 0.05745509 -0.00775814 0.00348905
v 0.05756711 -0.00701393 0.00348905
v 0.05743182 -0.00701393 0.00266366
v 0.05708414 -0.00701393 0.00095412
v 0.05684703 -0.00561456 -0.00070196
v 0.05651682 -0.00421701 -0.00241208
v 0.05659246 -0.00281674 -0.00251136
v 0.05618078 -0.00701575 -0.00251136
v 0.05635680 -0.00561638 -0.00248669
v 0.05681794 -0.00926291 0.00143585
v 0.05634952 -0.00561638 -0.00251136
v 0.05648627 -0.00421883 -0.00251136
v 0.05630007 -0.00602710 -0.00251136
f 1 2 3
f 1 3 4
f 1 4 10
f 1 10 19
f 1 19 29
f 1 29 28
f 1 28 45
f 1 45 30
f 1 30 20
f 1 20 11
f 1 11 5
f 1 5 13
f 1 13 22
f 1 22 35
f 1 35 54
f 1 54 55
f 1 55 37
f 1 37 36
f 1 36 23
f 1 23 14
f 1 14 7
f 1 7 6
f 1 6 2
f 2 6 3
f 3 6 7
f 3 7 8
f 3 8 9
f 3 9 10
f 3 10 4
f 5 11 12
f 5 12 13
f 7 14 8
f 8 14 15
f 8 15 16
f 8 16 17
f 8 17 9
f 9 17 18
f 9 18 19
f 9 19 10
f 11 20 31
f 11 31 46
f 11 46 60
f 11 60 65
f 11 65 64
f 11 64 66
f 11 66 61
f 11 61 47
f 11 47 32
f 11 32 21
f 11 21 12
f 12 21 33
f 12 33 51
f 12 51 63
f 12 63 53
f 12 53 34
f 12 34 22
f 12 22 13
f 14 23 24
f 14 24 15
f 15 24 25
f 15 25 16
f 16 25 26
f 16 26 17
f 17 26 27
f 17 27 18
f 18 28 29
f 18 29 19
f 18 27 28
f 20 30 44
f 20 44 31
f 21 32 33
f 22 34 35
f 23 36 24
f 24 36 37
f 24 37 38
f 24 38 25
f 25 39 40
f 25 40 26
f 25 38 39
f 26 40 41
f 26 41 27
f 27 42 28
f 27 41 43
f 27 43 44
f 27 44 42
f 28 42 45
f 30 45 42
f 30 42 44
f 31 44 46
f 32 47 48
f 32 48 49
f 32 49 33
f 33 49 50
f 33 50 51
f 34 52 35
f 34 53 52
f 35 52 54
f 37 55 38
f 38 55 56
f 38 56 57
f 38 57 39
f 39 57 58
f 39 58 40
f 40 58 59
f 40 59 41
f 41 59 60
f 41 60 46
f 41 46 43
f 43 46 44
f 47 61 48
f 48 61 62
f 48 62 58
f 48 58 57
f 48 57 50
f 48 50 49
f 50 57 56
f 50 56 52
f 50 52 63
f 50 63 51
f 52 56 54
f 52 53 63
f 54 56 55
f 58 62 59
f 59 62 64
f 59 64 65
f 59 65 60
f 61 66 62
f 62 66 64

