# https://github.com/mikedh/trimesh
v -0.00016647 0.04421337 -0.00242752
v 0.01003684 0.04263543 -0.00242752
v -0.00016647 0.04789720 0.00327906
v -0.00016647 0.05645938 -0.00242752
v 0.01003684 0.04666582 0.00327906
v 0.01003684 0.05560257 -0.00242752
v -0.00016647 0.05769814 0.00327906
v -0.00016647 0.05657589 -0.00199964
v 0.00025801 0.05689590 -0.00083386
v 0.00015813 0.05646086 -0.00242752
v 0.01003684 0.05685018 0.00327906
v 0.00915694 0.05574562 -0.00242752
v 0.01003684 0.05573530 -0.00193652
v -0.00011553 0.05769962 0.00327906
v -0.00016647 0.05756542 0.00247804
v -0.00016647 0.05683691 -0.00103048
v -0.00016647 0.05692392 -0.00068024
v -0.00004162 0.05704189 -0.00019092
v 0.00093516 0.05730882 0.00102626
v 0.00152643 0.05701830 -0.00024454
v 0.00084927 0.05655081 -0.00210633
v 0.00099908 0.05645496 -0.00242752
v 0.01003684 0.05667911 0.00218087
v 0.00914895 0.05700207 0.00327906
v 0.00872148 0.05580756 -0.00242752
v 0.00837591 0.05605236 -0.00168571
v 0.00964034 0.05602729 -0.00108634
v 0.01003684 0.05600370 -0.00090480
v 0.00070146 0.05770109 0.00327906
v 0.00034290 0.05754477 0.00229259
v -0.00016647 0.05749463 0.00205519
v -0.00016647 0.05703894 -0.00019092
v -0.00016647 0.05710088 0.00007777
v -0.00016647 0.05719969 0.00051515
v -0.00016647 0.05737518 0.00142565
v 0.00220359 0.05740025 0.00161557
v 0.00164029 0.05702715 -0.00019092
v 0.00338711 0.05677202 -0.00092100
v 0.00211869 0.05667174 -0.00151534
v 0.00173217 0.05643136 -0.00242752
v 0.01003684 0.05663192 0.00192503
v 0.00972823 0.05670861 0.00203731
v 0.00907604 0.05701387 0.00327906
v 0.00717640 0.05601107 -0.00242752
v 0.00710749 0.05606121 -0.00227838
v 0.00651522 0.05645938 -0.00100702
v 0.00778464 0.05644611 -0.00041770
v 0.00891624 0.05634730 -0.00019092
v 0.00922286 0.05630454 -0.00019092
v 0.01003684 0.05636647 0.00063915
v 0.00142855 0.05769814 0.00327906
v 0.00161232 0.05763473 0.00288470
v 0.00406327 0.05717314 0.00094079
v 0.00279485 0.05710825 0.00035148
v 0.00280983 0.05765980 0.00327906
v 0.00347101 0.05745039 0.00221159
v 0.00304654 0.05696521 -0.00019092
v 0.00365278 0.05692981 -0.00019092
v 0.00459062 0.05687230 -0.00019092
v 0.00465454 0.05683396 -0.00032721
v 0.00397938 0.05639892 -0.00219235
v 0.00254416 0.05640334 -0.00242752
v 0.01003684 0.05652280 0.00137650
v 0.00846180 0.05678972 0.00144409
v 0.00786654 0.05710678 0.00271600
v 0.00760487 0.05722181 0.00327906
v 0.00678389 0.05605826 -0.00242752
v 0.00563232 0.05619098 -0.00242752
v 0.00524381 0.05645643 -0.00159354
v 0.00575717 0.05674990 -0.00019092
v 0.00613370 0.05670713 -0.00019092
v 0.00767878 0.05651395 -0.00019092
v 0.00826605 0.05643578 -0.00019092
v 0.00592296 0.05684428 0.00026266
v 0.00905007 0.05641809 0.00017943
v 0.01003684 0.05641809 0.00087320
v 0.00245927 0.05767160 0.00327906
v 0.00474043 0.05746661 0.00279923
v 0.00532970 0.05718346 0.00153346
v 0.00297263 0.05765242 0.00327906
v 0.00342107 0.05762588 0.00327906
v 0.00494717 0.05683691 -0.00019092
v 0.00408824 0.05632518 -0.00242752
v 0.00347401 0.05635763 -0.00242752
v 0.00719338 0.05682364 0.00085086
v 0.00659812 0.05716134 0.00212501
v 0.00606179 0.05741647 0.00327906
v 0.00631447 0.05738550 0.00327906
v 0.00451771 0.05755509 0.00327906
v 0.00577215 0.05744596 0.00327906
f 1 2 3
f 1 3 7
f 1 7 15
f 1 15 31
f 1 31 35
f 1 35 34
f 1 34 33
f 1 33 32
f 1 32 17
f 1 17 16
f 1 16 8
f 1 8 4
f 1 4 10
f 1 10 22
f 1 22 40
f 1 40 62
f 1 62 84
f 1 84 83
f 1 83 68
f 1 68 67
f 1 67 44
f 1 44 25
f 1 25 12
f 1 12 6
f 1 6 2
f 2 5 3
f 2 6 13
f 2 13 28
f 2 28 50
f 2 50 76
f 2 76 63
f 2 63 41
f 2 41 23
f 2 23 11
f 2 11 5
f 3 5 11
f 3 11 24
f 3 24 43
f 3 43 66
f 3 66 88
f 3 88 87
f 3 87 90
f 3 90 89
f 3 89 81
f 3 81 80
f 3 80 55
f 3 55 77
f 3 77 51
f 3 51 29
f 3 29 14
f 3 14 7
f 4 8 9
f 4 9 10
f 6 12 13
f 7 14 15
f 8 16 9
f 9 16 17
f 9 17 18
f 9 18 19
f 9 19 20
f 9 20 21
f 9 21 10
f 10 21 22
f 11 23 24
f 12 25 26
f 12 26 27
f 12 27 13
f 13 27 28
f 14 29 30
f 14 30 15
f 15 30 31
f 17 32 18
f 18 32 33
f 18 33 34
f 18 34 19
f 19 34 35
f 19 35 30
f 19 30 36
f 19 36 37
f 19 37 20
f 20 37 38
f 20 38 39
f 20 39 21
f 21 39 40
f 21 40 22
f 23 41 42
f 23 42 24
f 24 42 43
f 25 44 45
f 25 45 26
f 26 45 46
f 26 46 47
f 26 47 48
f 26 48 27
f 27 48 49
f 27 49 50
f 27 50 28
f 29 51 52
f 29 52 30
f 30 52 36
f 30 35 31
f 36 53 54
f 36 54 37
f 36 52 55
f 36 55 56
f 36 56 53
f 37 57 38
f 37 54 57
f 38 57 58
f 38 58 59
f 38 59 60
f 38 60 61
f 38 61 39
f 39 61 62
f 39 62 40
f 41 63 42
f 42 63 64
f 42 64 65
f 42 65 43
f 43 65 66
f 44 67 45
f 45 67 68
f 45 68 69
f 45 69 46
f 46 69 70
f 46 70 71
f 46 71 47
f 47 72 73
f 47 73 48
f 47 71 74
f 47 74 72
f 48 73 75
f 48 75 49
f 49 75 50
f 50 75 64
f 50 64 76
f 51 77 52
f 52 77 55
f 53 56 78
f 53 78 79
f 53 79 59
f 53 59 58
f 53 58 54
f 54 58 57
f 55 80 56
f 56 80 81
f 56 81 78
f 59 74 82
f 59 82 60
f 59 79 74
f 60 82 69
f 60 69 61
f 61 69 83
f 61 83 84
f 61 84 62
f 63 76 64
f 64 85 86
f 64 86 65
f 64 75 85
f 65 86 87
f 65 87 88
f 65 88 66
f 68 83 69
f 69 82 70
f 70 82 74
f 70 74 71
f 72 74 85
f 72 85 73
f 73 85 75
f 74 79 85
f 78 81 89
f 78 89 90
f 78 90 86
f 78 86 79
f 79 86 85
f 86 90 87

