# https://github.com/mikedh/trimesh
v 0.03645470 0.00002016 -0.02375227
v 0.03645470 -0.00069130 -0.02373820
v 0.03645470 0.00002016 -0.00866759
v 0.03706853 0.00002016 -0.02354481
v 0.03645470 -0.00141640 -0.02372238
v 0.03645470 -0.00772848 -0.00812785
v 0.04013581 -0.00772848 -0.00579307
v 0.04102559 0.00002016 -0.00579307
v 0.03710232 0.00002016 -0.02353250
v 0.03710232 -0.00001625 -0.02353250
v 0.03645470 -0.00281732 -0.02367491
v 0.03708918 -0.00141640 -0.02350613
v 0.03645470 -0.00772848 -0.02337779
v 0.05501419 -0.00772848 -0.00579307
v 0.05562990 0.00002016 -0.00579307
v 0.03841446 0.00002016 -0.02303495
v 0.03841446 -0.00001625 -0.02303495
v 0.03840319 -0.00141565 -0.02300858
v 0.03645470 -0.00345292 -0.02364678
v 0.03707041 -0.00281732 -0.02346394
v 0.03838442 -0.00281732 -0.02296815
v 0.03645470 -0.00701551 -0.02343932
v 0.03697655 -0.00701551 -0.02325999
v 0.03695027 -0.00772848 -0.02320549
v 0.05501419 -0.00772848 -0.00579483
v 0.05508928 -0.00723092 -0.00579307
v 0.05562802 -0.00029916 -0.00579307
v 0.05549662 0.00002016 -0.00615172
v 0.03870354 0.00002016 -0.02291540
v 0.03870354 -0.00033178 -0.02290837
v 0.03870354 -0.00141640 -0.02288376
v 0.03645470 -0.00421520 -0.02361162
v 0.03704601 -0.00421520 -0.02340943
v 0.03835626 -0.00421520 -0.02290837
v 0.03870354 -0.00247448 -0.02284684
v 0.03967403 -0.00281656 -0.02241785
v 0.03645470 -0.00561535 -0.02353953
v 0.03701597 -0.00561535 -0.02334614
v 0.03832248 -0.00561535 -0.02283453
v 0.03828118 -0.00701475 -0.02274662
v 0.03825490 -0.00772848 -0.02269036
v 0.05476828 -0.00772848 -0.00642423
v 0.05473825 -0.00752521 -0.00658422
v 0.05507426 -0.00716796 -0.00586339
v 0.05509866 -0.00716038 -0.00579307
v 0.05561489 -0.00098331 -0.00579307
v 0.05530327 -0.00142702 -0.00658422
v 0.05536522 0.00002016 -0.00649456
v 0.03970782 0.00002016 -0.02249345
v 0.03970782 -0.00001625 -0.02249345
v 0.03969656 -0.00141640 -0.02246884
v 0.03964212 -0.00421520 -0.02235104
v 0.04093548 -0.00281732 -0.02181306
v 0.03870354 -0.00561535 -0.02266927
v 0.03960458 -0.00561535 -0.02227369
v 0.03870354 -0.00701475 -0.02255850
v 0.03956140 -0.00701551 -0.02217523
v 0.03953324 -0.00772848 -0.02211722
v 0.05462750 -0.00772848 -0.00676179
v 0.05429336 -0.00772848 -0.00751075
v 0.05433841 -0.00682968 -0.00771821
v 0.05477579 -0.00639204 -0.00686376
v 0.05528075 -0.00568513 -0.00579307
v 0.05559987 -0.00156734 -0.00579307
v 0.05523194 -0.00276195 -0.00660004
v 0.05461060 -0.00312450 -0.00796259
v 0.05461248 -0.00141565 -0.00810675
v 0.05459934 0.00002016 -0.00820345
v 0.05471009 0.00002016 -0.00795907
v 0.04096927 0.00002016 -0.02188514
v 0.04096927 -0.00001625 -0.02188514
v 0.04095801 -0.00141565 -0.02186229
v 0.04090357 -0.00421520 -0.02174449
v 0.04217629 -0.00281732 -0.02115552
v 0.04086227 -0.00561535 -0.02165659
v 0.04081159 -0.00701551 -0.02154934
v 0.04014708 -0.00772848 -0.02180779
v 0.05385411 -0.00772848 -0.00842497
v 0.05353499 -0.00772848 -0.00908075
v 0.05358379 -0.00701551 -0.00919679
v 0.05434592 -0.00571926 -0.00800127
v 0.05483399 -0.00516102 -0.00705716
v 0.05527136 -0.00421368 -0.00620974
v 0.05545157 -0.00389057 -0.00579307
v 0.05557922 -0.00195341 -0.00579307
v 0.05550226 -0.00320111 -0.00579307
v 0.05448483 -0.00398310 -0.00809620
v 0.05373585 -0.00453679 -0.00946578
v 0.05377714 -0.00281732 -0.00959940
v 0.05381281 -0.00141640 -0.00965566
v 0.05394984 0.00002016 -0.00946226
v 0.05447169 0.00002016 -0.00845135
v 0.04221008 0.00002016 -0.02123112
v 0.04221008 -0.00001625 -0.02123112
v 0.04219694 -0.00141640 -0.02120475
v 0.04213874 -0.00421520 -0.02108168
v 0.04338518 -0.00281732 -0.02043997
v 0.04335139 -0.00421596 -0.02036789
v 0.04209369 -0.00561535 -0.02098499
v 0.04204301 -0.00701627 -0.02087247
v 0.04138788 -0.00772848 -0.02115552
v 0.04078343 -0.00772848 -0.02148605
v 0.05312764 -0.00772848 -0.00982092
v 0.05376588 -0.00532637 -0.00926887
v 0.05263020 -0.00682968 -0.01095667
v 0.05293805 -0.00552889 -0.01070350
v 0.05278976 -0.00450570 -0.01111490
v 0.05292116 -0.00281656 -0.01109380
v 0.05294932 -0.00141640 -0.01115533
v 0.05348055 0.00002016 -0.01027627
v 0.04338518 0.00002016 -0.02052787
v 0.04341709 -0.00001625 -0.02050853
v 0.04340583 -0.00141640 -0.02048568
v 0.04330634 -0.00561535 -0.02027295
v 0.04456779 -0.00281732 -0.01966464
v 0.04453588 -0.00421520 -0.01959959
v 0.04449458 -0.00561384 -0.01950641
v 0.04201110 -0.00772848 -0.02080742
v 0.04325378 -0.00701627 -0.02015691
v 0.04260616 -0.00772848 -0.02045755
v 0.05260579 -0.00772848 -0.01075272
v 0.05205579 -0.00772848 -0.01164409
v 0.05181551 -0.00733407 -0.01212582
v 0.05191875 -0.00561308 -0.01227350
v 0.05214777 -0.00404075 -0.01218208
v 0.05201073 -0.00313664 -0.01247392
v 0.05205203 -0.00141565 -0.01254777
v 0.05288549 -0.00013761 -0.01129950
v 0.05289300 0.00002016 -0.01128719
v 0.04344712 0.00002016 -0.02048920
v 0.04458844 -0.00141640 -0.01970683
v 0.04574289 -0.00141640 -0.01887173
v 0.04572412 -0.00281656 -0.01882777
v 0.04569409 -0.00421520 -0.01876800
v 0.04565091 -0.00561535 -0.01867482
v 0.04443639 -0.00701551 -0.01938685
v 0.04322187 -0.00772848 -0.02008834
v 0.05181927 -0.00772848 -0.01202033
v 0.05092949 -0.00772848 -0.01322992
v 0.05107591 -0.00678645 -0.01324926
v 0.05102710 -0.00591192 -0.01344792
v 0.05103836 -0.00421596 -0.01367120
v 0.05107778 -0.00281732 -0.01375911
v 0.05112096 -0.00144068 -0.01378724
v 0.05206705 -0.00001625 -0.01256535
v 0.05281228 0.00002016 -0.01141202
v 0.04459595 0.00002016 -0.01972266
v 0.04459595 -0.00001625 -0.01972266
v 0.04572412 0.00002016 -0.01891568
v 0.04578419 0.00002016 -0.01887173
v 0.04688796 -0.00001625 -0.01801904
v 0.04687670 -0.00141640 -0.01799091
v 0.04685417 -0.00281732 -0.01794520
v 0.04682414 -0.00421596 -0.01788014
v 0.04559272 -0.00701551 -0.01854823
v 0.04677909 -0.00561535 -0.01777993
v 0.04671902 -0.00701551 -0.01765686
v 0.04440448 -0.00772848 -0.01931301
v 0.04380191 -0.00772848 -0.01970859
v 0.05035883 -0.00772848 -0.01392437
v 0.04992333 -0.00701551 -0.01459422
v 0.04999091 -0.00561535 -0.01473663
v 0.05011856 -0.00430546 -0.01475069
v 0.05007914 -0.00281656 -0.01492826
v 0.05010729 -0.00141640 -0.01498276
v 0.05011668 -0.00001625 -0.01500562
v 0.05111157 -0.00001625 -0.01382768
v 0.05206705 0.00002016 -0.01256183
v 0.05111157 0.00002016 -0.01382768
v 0.05204077 0.00002016 -0.01259699
v 0.04688796 0.00002016 -0.01801904
v 0.04800112 -0.00001625 -0.01709427
v 0.04798423 -0.00141640 -0.01706086
v 0.04795982 -0.00281656 -0.01700988
v 0.04792603 -0.00421520 -0.01693603
v 0.04555705 -0.00772848 -0.01847439
v 0.04499015 -0.00772848 -0.01888755
v 0.04611082 -0.00772848 -0.01803662
v 0.04788098 -0.00561535 -0.01683406
v 0.04782279 -0.00701551 -0.01671099
v 0.04668335 -0.00772848 -0.01758126
v 0.04987828 -0.00772848 -0.01450104
v 0.04936018 -0.00772848 -0.01507067
v 0.04888902 -0.00701551 -0.01569128
v 0.04894909 -0.00561384 -0.01582490
v 0.04900352 -0.00421520 -0.01593215
v 0.04903919 -0.00281732 -0.01601126
v 0.04906359 -0.00141640 -0.01606576
v 0.04907673 -0.00001625 -0.01609389
v 0.05011668 0.00002016 -0.01500562
v 0.04800112 0.00002016 -0.01709427
v 0.04778524 -0.00772848 -0.01663188
v 0.04885147 -0.00772848 -0.01560865
v 0.04830709 -0.00772848 -0.01613257
v 0.04907673 0.00002016 -0.01609389
f 1 2 5
f 1 5 11
f 1 11 19
f 1 19 32
f 1 32 37
f 1 37 22
f 1 22 13
f 1 13 6
f 1 6 3
f 1 3 8
f 1 8 15
f 1 15 28
f 1 28 48
f 1 48 69
f 1 69 68
f 1 68 92
f 1 92 91
f 1 91 110
f 1 110 129
f 1 129 146
f 1 146 168
f 1 168 170
f 1 170 169
f 1 169 190
f 1 190 195
f 1 195 191
f 1 191 171
f 1 171 150
f 1 150 149
f 1 149 147
f 1 147 130
f 1 130 111
f 1 111 93
f 1 93 70
f 1 70 49
f 1 49 29
f 1 29 16
f 1 16 9
f 1 9 4
f 1 4 2
f 2 4 5
f 3 6 7
f 3 7 8
f 4 9 10
f 4 10 5
f 5 10 12
f 5 12 11
f 6 13 24
f 6 24 41
f 6 41 58
f 6 58 77
f 6 77 102
f 6 102 101
f 6 101 118
f 6 118 120
f 6 120 137
f 6 137 159
f 6 159 158
f 6 158 177
f 6 177 176
f 6 176 178
f 6 178 181
f 6 181 192
f 6 192 194
f 6 194 193
f 6 193 183
f 6 183 182
f 6 182 160
f 6 160 139
f 6 139 138
f 6 138 122
f 6 122 121
f 6 121 103
f 6 103 79
f 6 79 78
f 6 78 60
f 6 60 59
f 6 59 42
f 6 42 25
f 6 25 14
f 6 14 7
f 7 14 26
f 7 26 45
f 7 45 63
f 7 63 84
f 7 84 86
f 7 86 85
f 7 85 64
f 7 64 46
f 7 46 27
f 7 27 15
f 7 15 8
f 9 16 17
f 9 17 10
f 10 17 18
f 10 18 12
f 11 12 20
f 11 20 19
f 12 18 21
f 12 21 20
f 13 22 23
f 13 23 24
f 14 25 26
f 15 27 28
f 16 29 17
f 17 29 30
f 17 30 18
f 18 30 31
f 18 31 21
f 19 20 33
f 19 33 32
f 20 21 33
f 21 34 33
f 21 31 35
f 21 35 36
f 21 36 34
f 22 37 23
f 23 38 39
f 23 39 40
f 23 40 24
f 23 37 38
f 24 40 41
f 25 42 43
f 25 43 44
f 25 44 26
f 26 44 45
f 27 46 47
f 27 47 48
f 27 48 28
f 29 49 50
f 29 50 30
f 30 50 51
f 30 51 31
f 31 51 35
f 32 33 37
f 33 34 38
f 33 38 37
f 34 39 38
f 34 36 52
f 34 52 39
f 35 51 36
f 36 51 53
f 36 53 52
f 39 52 54
f 39 54 40
f 40 54 55
f 40 55 56
f 40 56 41
f 41 56 57
f 41 57 58
f 42 59 43
f 43 59 60
f 43 60 61
f 43 61 62
f 43 62 44
f 44 62 63
f 44 63 45
f 46 64 47
f 47 65 66
f 47 66 67
f 47 67 68
f 47 68 69
f 47 69 48
f 47 64 65
f 49 70 71
f 49 71 50
f 50 71 72
f 50 72 51
f 51 72 53
f 52 53 73
f 52 73 55
f 52 55 54
f 53 72 74
f 53 74 73
f 55 73 75
f 55 75 57
f 55 57 56
f 57 75 76
f 57 76 58
f 58 76 77
f 60 78 61
f 61 78 79
f 61 79 80
f 61 80 81
f 61 81 62
f 62 82 63
f 62 81 82
f 63 82 83
f 63 83 84
f 64 85 65
f 65 85 86
f 65 86 84
f 65 84 83
f 65 83 82
f 65 82 87
f 65 87 66
f 66 87 88
f 66 88 89
f 66 89 90
f 66 90 67
f 67 90 91
f 67 91 92
f 67 92 68
f 70 93 94
f 70 94 71
f 71 94 72
f 72 94 95
f 72 95 74
f 73 74 96
f 73 96 75
f 74 95 97
f 74 97 98
f 74 98 96
f 75 96 99
f 75 99 76
f 76 99 100
f 76 100 101
f 76 101 102
f 76 102 77
f 79 103 80
f 80 104 81
f 80 103 105
f 80 105 104
f 81 104 87
f 81 87 82
f 87 104 88
f 88 104 106
f 88 106 107
f 88 107 108
f 88 108 89
f 89 108 90
f 90 108 109
f 90 109 91
f 91 109 110
f 93 111 94
f 94 111 112
f 94 112 113
f 94 113 95
f 95 113 97
f 96 98 114
f 96 114 99
f 97 113 115
f 97 115 116
f 97 116 98
f 98 116 117
f 98 117 114
f 99 114 100
f 100 118 101
f 100 114 119
f 100 119 120
f 100 120 118
f 103 121 105
f 104 105 106
f 105 107 106
f 105 121 122
f 105 122 123
f 105 123 124
f 105 124 107
f 107 124 125
f 107 125 108
f 108 125 126
f 108 126 127
f 108 127 109
f 109 128 110
f 109 127 128
f 110 128 129
f 111 130 112
f 112 130 131
f 112 131 113
f 113 131 115
f 114 117 119
f 115 131 132
f 115 132 133
f 115 133 134
f 115 134 116
f 116 134 117
f 117 134 135
f 117 135 136
f 117 136 119
f 119 137 120
f 119 136 137
f 122 138 123
f 123 138 139
f 123 139 140
f 123 140 124
f 124 140 141
f 124 141 142
f 124 142 125
f 125 142 126
f 126 142 143
f 126 143 127
f 127 143 144
f 127 144 145
f 127 145 128
f 128 145 129
f 129 145 146
f 130 147 148
f 130 148 131
f 131 148 149
f 131 149 132
f 132 149 150
f 132 150 151
f 132 151 152
f 132 152 133
f 133 152 153
f 133 153 134
f 134 153 154
f 134 154 135
f 135 155 136
f 135 154 156
f 135 156 157
f 135 157 155
f 136 158 159
f 136 159 137
f 136 155 158
f 139 160 140
f 140 160 161
f 140 161 141
f 141 161 162
f 141 162 142
f 142 162 163
f 142 163 143
f 143 163 164
f 143 164 165
f 143 165 144
f 144 165 166
f 144 166 167
f 144 167 145
f 145 168 146
f 145 167 169
f 145 169 170
f 145 170 168
f 147 149 148
f 150 171 151
f 151 171 191
f 151 191 172
f 151 172 152
f 152 172 173
f 152 173 153
f 153 173 174
f 153 174 154
f 154 174 175
f 154 175 156
f 155 176 177
f 155 177 158
f 155 157 178
f 155 178 176
f 156 175 179
f 156 179 180
f 156 180 157
f 157 180 181
f 157 181 178
f 160 182 161
f 161 182 183
f 161 183 184
f 161 184 162
f 162 184 185
f 162 185 186
f 162 186 163
f 163 186 164
f 164 186 187
f 164 187 165
f 165 187 188
f 165 188 189
f 165 189 166
f 166 189 195
f 166 195 190
f 166 190 169
f 166 169 167
f 172 191 195
f 172 195 189
f 172 189 188
f 172 188 173
f 173 188 174
f 174 188 187
f 174 187 175
f 175 187 186
f 175 186 179
f 179 186 185
f 179 185 180
f 180 185 184
f 180 184 192
f 180 192 181
f 183 193 184
f 184 193 194
f 184 194 192

