# https://github.com/mikedh/trimesh
v 0.01956710 0.04972291 -0.01033058
v 0.01965843 0.04969171 -0.01033058
v 0.01956710 0.04970021 -0.01037189
v 0.01956710 0.02390619 -0.01033058
v 0.01956710 0.04961796 -0.01050348
v 0.02014347 0.04949883 -0.01033058
v 0.02067894 0.04865076 -0.01133432
v 0.01956710 0.02074930 -0.01153783
v 0.02188778 0.02074930 -0.01110634
v 0.02188778 0.02343819 -0.01033058
v 0.01956710 0.04930880 -0.01098699
v 0.02166401 0.04885781 -0.01033058
v 0.02188778 0.04848908 -0.01078502
v 0.01956710 0.04871883 -0.01190199
v 0.02188778 0.04845505 -0.01083551
v 0.02188778 0.04781686 -0.01177805
v 0.02122464 0.04747933 -0.01267775
v 0.01956710 0.02074930 -0.02596050
v 0.02188778 0.02074930 -0.02567131
v 0.02188778 0.04875854 -0.01033058
v 0.01956710 0.04859403 -0.01207642
v 0.02188778 0.04736020 -0.01243446
v 0.02188778 0.04618027 -0.01391406
v 0.02166310 0.04619729 -0.01401964
v 0.02019390 0.04735453 -0.01339536
v 0.02060533 0.02074930 -0.02596050
v 0.01956710 0.02172785 -0.02596050
v 0.02188778 0.02238589 -0.02540354
v 0.01956710 0.04839548 -0.01234113
v 0.02188778 0.04600442 -0.01411144
v 0.01964911 0.04687518 -0.01421396
v 0.02188778 0.04582856 -0.01430424
v 0.02081820 0.04610652 -0.01453069
v 0.01956710 0.04743679 -0.01359121
v 0.01956710 0.04776297 -0.01317809
v 0.01956710 0.04693475 -0.01418336
v 0.01997876 0.02136196 -0.02596050
v 0.02188778 0.02423237 -0.02509140
v 0.02188778 0.02378423 -0.02516944
v 0.02188778 0.02326800 -0.02525665
v 0.01956710 0.02518540 -0.02527808
v 0.02083910 0.02518540 -0.02509293
v 0.01956710 0.04617176 -0.01501114
v 0.01956710 0.04680711 -0.01432260
v 0.02188778 0.04534070 -0.01482447
v 0.02043540 0.04554492 -0.01530186
v 0.02188778 0.02518540 -0.02491238
v 0.01956710 0.02658373 -0.02500113
v 0.02071415 0.02658657 -0.02482823
v 0.01956710 0.04590514 -0.01529574
v 0.02188778 0.04511663 -0.01505704
v 0.01956710 0.04507124 -0.01611893
v 0.02188778 0.04491241 -0.01526208
v 0.02106106 0.04483299 -0.01572263
v 0.01964684 0.04494644 -0.01620920
v 0.02188778 0.02658657 -0.02462166
v 0.01956710 0.02798490 -0.02469970
v 0.02057739 0.02798490 -0.02453598
v 0.01956710 0.04500317 -0.01618472
v 0.02188778 0.04433379 -0.01582821
v 0.02070325 0.04409269 -0.01656419
v 0.01956710 0.04409837 -0.01700332
v 0.01956710 0.04450964 -0.01663304
v 0.01956710 0.04492659 -0.01625664
v 0.01956710 0.04496630 -0.01621992
v 0.02188778 0.02786294 -0.02432483
v 0.01956710 0.02888120 -0.02448549
v 0.02042495 0.02938607 -0.02421007
v 0.02188778 0.02798490 -0.02429575
v 0.02188778 0.04411822 -0.01602712
v 0.02006168 0.04337793 -0.01741339
v 0.02181509 0.04321909 -0.01685337
v 0.01956710 0.04400477 -0.01708136
v 0.01956710 0.02938607 -0.02435849
v 0.02026228 0.03078441 -0.02385968
v 0.02184417 0.02938607 -0.02394077
v 0.02188778 0.02899749 -0.02403411
v 0.01956710 0.03078724 -0.02398514
v 0.02188778 0.04321909 -0.01682124
v 0.01956710 0.04339211 -0.01757405
v 0.02188778 0.04245043 -0.01744399
v 0.02188778 0.04222920 -0.01761995
v 0.02073301 0.04197959 -0.01824423
v 0.01956710 0.03218274 -0.02357355
v 0.02008485 0.03218274 -0.02347409
v 0.02167173 0.03078441 -0.02357202
v 0.02188778 0.02938607 -0.02393159
v 0.01956710 0.04211574 -0.01854107
v 0.02188778 0.04219232 -0.01764749
v 0.02188778 0.04058126 -0.01879812
v 0.02112240 0.04058126 -0.01907966
v 0.01956710 0.03358391 -0.02309769
v 0.01987653 0.03358675 -0.02303343
v 0.02148544 0.03218558 -0.02317113
v 0.02188778 0.03182820 -0.02319256
v 0.02188778 0.03078441 -0.02352153
v 0.01956710 0.04202781 -0.01860074
v 0.02188778 0.03918576 -0.01969476
v 0.02147567 0.03918576 -0.01983859
v 0.01977906 0.04057842 -0.01950962
v 0.01956710 0.03498792 -0.02254839
v 0.01964139 0.03498792 -0.02253155
v 0.02126939 0.03358391 -0.02270751
v 0.02188778 0.03218558 -0.02307015
v 0.01956710 0.04160519 -0.01888534
v 0.02188778 0.03778459 -0.02051642
v 0.02180464 0.03778459 -0.02054396
v 0.02013188 0.03917725 -0.02026549
v 0.01956710 0.04058126 -0.01957082
v 0.01956710 0.03538218 -0.02237090
v 0.01956710 0.03622175 -0.02199143
v 0.02102358 0.03498792 -0.02218422
v 0.02188778 0.03358391 -0.02253768
v 0.02188778 0.03304217 -0.02275189
v 0.02188778 0.03740168 -0.02072145
v 0.02188778 0.03638058 -0.02126464
v 0.02045584 0.03778175 -0.02096168
v 0.01956710 0.03918009 -0.02042461
v 0.01956710 0.03638058 -0.02191799
v 0.02188778 0.03498792 -0.02193635
v 0.02075618 0.03638058 -0.02160432
v 0.01956710 0.03778459 -0.02120649
v 0.01956710 0.03738182 -0.02141459
f 1 2 3
f 1 3 5
f 1 5 11
f 1 11 14
f 1 14 21
f 1 21 29
f 1 29 35
f 1 35 34
f 1 34 36
f 1 36 44
f 1 44 43
f 1 43 50
f 1 50 52
f 1 52 59
f 1 59 65
f 1 65 64
f 1 64 63
f 1 63 62
f 1 62 73
f 1 73 80
f 1 80 88
f 1 88 97
f 1 97 105
f 1 105 109
f 1 109 118
f 1 118 122
f 1 122 123
f 1 123 119
f 1 119 111
f 1 111 110
f 1 110 101
f 1 101 92
f 1 92 84
f 1 84 78
f 1 78 74
f 1 74 67
f 1 67 57
f 1 57 48
f 1 48 41
f 1 41 27
f 1 27 18
f 1 18 8
f 1 8 4
f 1 4 10
f 1 10 20
f 1 20 12
f 1 12 6
f 1 6 2
f 2 5 3
f 2 6 7
f 2 7 5
f 4 8 9
f 4 9 10
f 5 7 11
f 6 12 13
f 6 13 7
f 7 14 11
f 7 13 15
f 7 15 16
f 7 16 17
f 7 17 14
f 8 18 26
f 8 26 19
f 8 19 9
f 9 19 28
f 9 28 40
f 9 40 39
f 9 39 38
f 9 38 47
f 9 47 56
f 9 56 66
f 9 66 69
f 9 69 77
f 9 77 87
f 9 87 96
f 9 96 95
f 9 95 104
f 9 104 114
f 9 114 113
f 9 113 120
f 9 120 116
f 9 116 115
f 9 115 106
f 9 106 98
f 9 98 90
f 9 90 89
f 9 89 82
f 9 82 81
f 9 81 79
f 9 79 70
f 9 70 60
f 9 60 53
f 9 53 51
f 9 51 45
f 9 45 32
f 9 32 30
f 9 30 23
f 9 23 22
f 9 22 16
f 9 16 15
f 9 15 13
f 9 13 20
f 9 20 10
f 12 20 13
f 14 17 21
f 16 22 17
f 17 22 23
f 17 23 24
f 17 24 25
f 17 25 21
f 18 27 37
f 18 37 26
f 19 26 28
f 21 25 29
f 23 30 24
f 24 31 25
f 24 30 32
f 24 32 33
f 24 33 31
f 25 34 35
f 25 35 29
f 25 31 36
f 25 36 34
f 26 37 38
f 26 38 39
f 26 39 40
f 26 40 28
f 27 41 42
f 27 42 37
f 31 33 43
f 31 43 44
f 31 44 36
f 32 45 33
f 33 45 46
f 33 46 43
f 37 42 47
f 37 47 38
f 41 48 42
f 42 48 49
f 42 49 47
f 43 46 50
f 45 51 46
f 46 52 50
f 46 51 53
f 46 53 54
f 46 54 55
f 46 55 52
f 47 49 56
f 48 57 49
f 49 57 58
f 49 58 56
f 52 55 59
f 53 60 54
f 54 60 61
f 54 61 55
f 55 61 62
f 55 62 63
f 55 63 64
f 55 64 65
f 55 65 59
f 56 58 66
f 57 67 58
f 58 67 68
f 58 68 69
f 58 69 66
f 60 70 61
f 61 71 62
f 61 70 72
f 61 72 71
f 62 71 73
f 67 74 68
f 68 75 76
f 68 76 77
f 68 77 69
f 68 74 78
f 68 78 75
f 70 79 72
f 71 80 73
f 71 72 81
f 71 81 82
f 71 82 83
f 71 83 80
f 72 79 81
f 75 78 84
f 75 84 85
f 75 85 86
f 75 86 76
f 76 87 77
f 76 86 87
f 80 83 88
f 82 89 83
f 83 89 90
f 83 90 91
f 83 91 88
f 84 92 85
f 85 92 93
f 85 93 94
f 85 94 86
f 86 94 95
f 86 95 96
f 86 96 87
f 88 91 97
f 90 98 91
f 91 98 99
f 91 99 100
f 91 100 97
f 92 101 93
f 93 101 102
f 93 102 103
f 93 103 94
f 94 103 104
f 94 104 95
f 97 100 105
f 98 106 99
f 99 106 107
f 99 107 108
f 99 108 100
f 100 109 105
f 100 108 109
f 101 110 102
f 102 110 111
f 102 111 112
f 102 112 103
f 103 112 113
f 103 113 114
f 103 114 104
f 106 115 107
f 107 115 116
f 107 116 117
f 107 117 108
f 108 117 118
f 108 118 109
f 111 119 112
f 112 120 113
f 112 119 121
f 112 121 120
f 116 121 117
f 116 120 121
f 117 121 122
f 117 122 118
f 119 123 121
f 121 123 122

