# https://github.com/mikedh/trimesh
v 0.03058457 0.02700026 -0.00590303
v 0.03556006 0.01871917 -0.00590303
v 0.03058457 0.03197191 -0.00242786
v 0.03058457 0.04636368 -0.00590303
v 0.03576286 0.01838732 -0.00590303
v 0.03639431 0.01738582 -0.00590303
v 0.03653719 0.01716459 -0.00590303
v 0.04092503 0.01716459 -0.00242786
v 0.03058457 0.04770300 -0.00242786
v 0.03058457 0.04666562 -0.00522235
v 0.03071593 0.04627698 -0.00590303
v 0.05293628 0.01716459 -0.00590303
v 0.05412773 0.01716459 -0.00242786
v 0.03128284 0.04723962 -0.00242786
v 0.03087264 0.04713498 -0.00355144
v 0.03058457 0.04753260 -0.00293267
v 0.03058457 0.04701241 -0.00433349
v 0.03146260 0.04625904 -0.00481823
v 0.03196729 0.04544289 -0.00590303
v 0.05280492 0.01756221 -0.00590303
v 0.05309990 0.01716459 -0.00548904
v 0.05383044 0.01716459 -0.00340755
v 0.05377513 0.01827073 -0.00242786
v 0.03189585 0.04681809 -0.00242786
v 0.03214705 0.04646532 -0.00296091
v 0.03058457 0.04726354 -0.00368717
v 0.03274162 0.04557742 -0.00423144
v 0.03332466 0.04464468 -0.00549585
v 0.03244433 0.04510208 -0.00590303
v 0.05262517 0.01808538 -0.00590303
v 0.05325431 0.01716459 -0.00508288
v 0.05372674 0.01716459 -0.00372901
v 0.05347785 0.01826774 -0.00337659
v 0.05319439 0.01985819 -0.00242786
v 0.03233832 0.04650120 -0.00242786
v 0.03328088 0.04581360 -0.00242786
v 0.03343989 0.04569700 -0.00242786
v 0.03400911 0.04485096 -0.00363988
v 0.03458986 0.04392419 -0.00490157
v 0.03524895 0.04295258 -0.00590303
v 0.03340993 0.04438758 -0.00590303
v 0.05195455 0.01990602 -0.00590303
v 0.05315291 0.01790003 -0.00467842
v 0.05354929 0.01716459 -0.00424470
v 0.05274961 0.01958913 -0.00408244
v 0.05253298 0.02093444 -0.00318542
v 0.05271504 0.02110783 -0.00242786
v 0.03445158 0.04493467 -0.00242786
v 0.03527661 0.04408563 -0.00304731
v 0.03586426 0.04314392 -0.00431308
v 0.03552319 0.04273136 -0.00590303
v 0.05142220 0.02123040 -0.00590303
v 0.05147751 0.02124535 -0.00574995
v 0.05197529 0.02096732 -0.00473693
v 0.05143602 0.02238438 -0.00459372
v 0.05200294 0.02238438 -0.00296227
v 0.05221496 0.02227974 -0.00242786
v 0.03498854 0.04452210 -0.00242786
v 0.03550476 0.04412150 -0.00242786
v 0.03653488 0.04329937 -0.00242786
v 0.03713176 0.04231880 -0.00372186
v 0.03644040 0.04198994 -0.00587649
v 0.03636435 0.04204077 -0.00590303
v 0.05128854 0.02155028 -0.00590303
v 0.05048656 0.02375360 -0.00549721
v 0.05126088 0.02378947 -0.00331774
v 0.05155816 0.02379246 -0.00242786
v 0.05187158 0.02308393 -0.00242786
v 0.03660863 0.04323659 -0.00242786
v 0.03760650 0.04238457 -0.00242786
v 0.03840617 0.04141595 -0.00313235
v 0.03770790 0.04128142 -0.00498219
v 0.03655563 0.04187634 -0.00590303
v 0.03729308 0.04123059 -0.00590303
v 0.05086220 0.02252787 -0.00590303
v 0.05054878 0.02324238 -0.00590303
v 0.05029298 0.02381040 -0.00590303
v 0.05015931 0.02408245 -0.00590303
v 0.04968688 0.02503313 -0.00590303
v 0.05001643 0.02517663 -0.00488830
v 0.05045429 0.02519158 -0.00369669
v 0.05115948 0.02461459 -0.00242786
v 0.03807662 0.04196902 -0.00242786
v 0.03866197 0.04143687 -0.00242786
v 0.03968058 0.04044434 -0.00254250
v 0.03899152 0.04033970 -0.00439710
v 0.03796600 0.04059681 -0.00590303
v 0.04880424 0.02676409 -0.00590303
v 0.04882729 0.02676409 -0.00584350
v 0.04907848 0.02676409 -0.00518833
v 0.04962466 0.02659667 -0.00398311
v 0.05088524 0.02517962 -0.00242786
v 0.05016392 0.02658770 -0.00242786
v 0.05025380 0.02641431 -0.00242786
v 0.03962527 0.04053701 -0.00242786
v 0.03971976 0.04044733 -0.00242786
v 0.03992025 0.04025002 -0.00242786
v 0.04075910 0.03940696 -0.00242786
v 0.04025902 0.03933222 -0.00380657
v 0.03958840 0.03913790 -0.00566865
v 0.03839234 0.04019022 -0.00590303
v 0.04875354 0.02685975 -0.00590303
v 0.04845626 0.02821403 -0.00475530
v 0.04950713 0.02676110 -0.00406203
v 0.04959009 0.02676409 -0.00382664
v 0.05006944 0.02676409 -0.00242786
v 0.04120157 0.03894657 -0.00242786
v 0.04162561 0.03818423 -0.00319018
v 0.04085820 0.03808557 -0.00507812
v 0.03946856 0.03912594 -0.00590303
v 0.03919432 0.03940397 -0.00590303
v 0.04055861 0.03796300 -0.00590303
v 0.03969671 0.03889275 -0.00590303
v 0.04869824 0.02696140 -0.00590303
v 0.04801840 0.02817217 -0.00590303
v 0.04761971 0.02904812 -0.00563089
v 0.04834794 0.02919460 -0.00347626
v 0.04931816 0.02798682 -0.00266972
v 0.04984359 0.02717665 -0.00242786
v 0.04186297 0.03825000 -0.00242786
v 0.04270183 0.03735014 -0.00242786
v 0.04279401 0.03716778 -0.00262346
v 0.04236997 0.03710200 -0.00376405
v 0.04224323 0.03684191 -0.00456106
v 0.04147581 0.03695850 -0.00590303
v 0.04769576 0.02872524 -0.00590303
v 0.04745378 0.02911389 -0.00590303
v 0.04725098 0.02943377 -0.00590303
v 0.04650892 0.03057578 -0.00590303
v 0.04686613 0.03078804 -0.00473013
v 0.04728786 0.03079103 -0.00362254
v 0.04770728 0.03079103 -0.00242786
v 0.04809214 0.03017817 -0.00242786
v 0.04864292 0.02928429 -0.00242786
v 0.04925824 0.02822897 -0.00242786
v 0.04939420 0.02798682 -0.00242786
v 0.04286315 0.03717077 -0.00242786
v 0.04312125 0.03688078 -0.00242786
v 0.04318809 0.03602576 -0.00407802
v 0.04277788 0.03551155 -0.00590303
v 0.04197820 0.03640244 -0.00590303
v 0.04588900 0.03149059 -0.00590303
v 0.04561476 0.03219912 -0.00541965
v 0.04634761 0.03218417 -0.00362322
v 0.04685691 0.03207355 -0.00242786
v 0.04395319 0.03590917 -0.00242786
v 0.04466068 0.03464757 -0.00330278
v 0.04378265 0.03498539 -0.00473659
v 0.04288849 0.03538300 -0.00590303
v 0.04539122 0.03219314 -0.00590303
v 0.04443484 0.03348463 -0.00590303
v 0.04435649 0.03358927 -0.00590303
v 0.04509855 0.03359225 -0.00423348
v 0.04592357 0.03326041 -0.00270952
v 0.04677164 0.03219912 -0.00242786
v 0.04443945 0.03532620 -0.00242786
v 0.04487501 0.03477313 -0.00242786
v 0.04432192 0.03363411 -0.00590303
v 0.04573229 0.03364308 -0.00242786
v 0.04597888 0.03331124 -0.00242786
v 0.04655271 0.03251003 -0.00242786
f 1 2 3
f 1 3 9
f 1 9 16
f 1 16 26
f 1 26 17
f 1 17 10
f 1 10 4
f 1 4 11
f 1 11 19
f 1 19 29
f 1 29 41
f 1 41 40
f 1 40 51
f 1 51 63
f 1 63 73
f 1 73 74
f 1 74 87
f 1 87 101
f 1 101 111
f 1 111 110
f 1 110 113
f 1 113 112
f 1 112 125
f 1 125 141
f 1 141 140
f 1 140 149
f 1 149 158
f 1 158 152
f 1 152 151
f 1 151 150
f 1 150 142
f 1 142 129
f 1 129 128
f 1 128 127
f 1 127 126
f 1 126 115
f 1 115 114
f 1 114 102
f 1 102 88
f 1 88 79
f 1 79 78
f 1 78 77
f 1 77 76
f 1 76 75
f 1 75 64
f 1 64 52
f 1 52 42
f 1 42 30
f 1 30 20
f 1 20 12
f 1 12 7
f 1 7 6
f 1 6 5
f 1 5 2
f 2 5 3
f 3 5 6
f 3 6 7
f 3 7 8
f 3 8 13
f 3 13 23
f 3 23 34
f 3 34 47
f 3 47 57
f 3 57 68
f 3 68 67
f 3 67 82
f 3 82 92
f 3 92 94
f 3 94 93
f 3 93 106
f 3 106 119
f 3 119 136
f 3 136 135
f 3 135 134
f 3 134 133
f 3 133 132
f 3 132 145
f 3 145 155
f 3 155 161
f 3 161 160
f 3 160 159
f 3 159 157
f 3 157 156
f 3 156 146
f 3 146 138
f 3 138 137
f 3 137 121
f 3 121 120
f 3 120 107
f 3 107 98
f 3 98 97
f 3 97 96
f 3 96 95
f 3 95 84
f 3 84 83
f 3 83 70
f 3 70 69
f 3 69 60
f 3 60 59
f 3 59 58
f 3 58 48
f 3 48 37
f 3 37 36
f 3 36 35
f 3 35 24
f 3 24 14
f 3 14 9
f 4 10 11
f 7 12 21
f 7 21 31
f 7 31 44
f 7 44 32
f 7 32 22
f 7 22 13
f 7 13 8
f 9 14 15
f 9 15 16
f 10 17 15
f 10 15 18
f 10 18 19
f 10 19 11
f 12 20 21
f 13 22 23
f 14 24 25
f 14 25 15
f 15 25 18
f 15 17 26
f 15 26 16
f 18 27 28
f 18 28 19
f 18 25 27
f 19 28 29
f 20 30 21
f 21 30 31
f 22 32 33
f 22 33 23
f 23 33 34
f 24 35 25
f 25 35 36
f 25 36 37
f 25 37 38
f 25 38 27
f 27 38 39
f 27 39 28
f 28 39 40
f 28 40 41
f 28 41 29
f 30 42 43
f 30 43 31
f 31 43 44
f 32 44 33
f 33 43 45
f 33 45 34
f 33 44 43
f 34 45 46
f 34 46 47
f 37 48 38
f 38 48 49
f 38 49 39
f 39 49 50
f 39 50 51
f 39 51 40
f 42 45 43
f 42 52 53
f 42 53 54
f 42 54 45
f 45 54 46
f 46 54 55
f 46 55 56
f 46 56 47
f 47 56 57
f 48 58 49
f 49 59 60
f 49 60 50
f 49 58 59
f 50 60 61
f 50 61 62
f 50 62 51
f 51 62 63
f 52 64 53
f 53 64 55
f 53 55 54
f 55 64 65
f 55 65 66
f 55 66 56
f 56 66 67
f 56 67 68
f 56 68 57
f 60 69 61
f 61 70 71
f 61 71 72
f 61 72 62
f 61 69 70
f 62 73 63
f 62 72 74
f 62 74 73
f 64 75 65
f 65 75 76
f 65 76 77
f 65 77 78
f 65 78 79
f 65 79 80
f 65 80 81
f 65 81 66
f 66 81 67
f 67 81 82
f 70 83 71
f 71 83 84
f 71 84 85
f 71 85 86
f 71 86 72
f 72 86 87
f 72 87 74
f 79 88 80
f 80 88 89
f 80 89 90
f 80 90 91
f 80 91 81
f 81 92 82
f 81 91 93
f 81 93 94
f 81 94 92
f 84 95 85
f 85 95 96
f 85 96 97
f 85 97 98
f 85 98 99
f 85 99 86
f 86 99 100
f 86 100 101
f 86 101 87
f 88 102 89
f 89 102 90
f 90 102 103
f 90 103 104
f 90 104 91
f 91 104 105
f 91 105 93
f 93 105 106
f 98 107 108
f 98 108 99
f 99 108 109
f 99 109 100
f 100 110 111
f 100 111 101
f 100 109 112
f 100 112 113
f 100 113 110
f 102 114 103
f 103 114 115
f 103 115 116
f 103 116 117
f 103 117 118
f 103 118 105
f 103 105 104
f 105 118 106
f 106 118 119
f 107 120 108
f 108 120 121
f 108 121 122
f 108 122 123
f 108 123 109
f 109 123 124
f 109 124 125
f 109 125 112
f 115 126 116
f 116 126 127
f 116 127 128
f 116 128 129
f 116 129 130
f 116 130 131
f 116 131 117
f 117 131 132
f 117 132 133
f 117 133 134
f 117 134 135
f 117 135 118
f 118 136 119
f 118 135 136
f 121 137 122
f 122 137 138
f 122 138 139
f 122 139 123
f 123 139 124
f 124 139 140
f 124 140 141
f 124 141 125
f 129 142 130
f 130 142 143
f 130 143 144
f 130 144 131
f 131 144 145
f 131 145 132
f 138 146 139
f 139 146 147
f 139 147 148
f 139 148 140
f 140 148 149
f 142 150 143
f 143 150 151
f 143 151 152
f 143 152 153
f 143 153 144
f 144 153 154
f 144 154 155
f 144 155 145
f 146 156 147
f 147 156 157
f 147 157 154
f 147 154 153
f 147 153 148
f 148 153 158
f 148 158 149
f 152 158 153
f 154 157 159
f 154 159 160
f 154 160 161
f 154 161 155

