# https://github.com/mikedh/trimesh
v 0.03645308 -0.01827614 -0.02176645
v 0.03645308 -0.01821522 -0.02178214
v 0.03758257 -0.01821729 -0.02125256
v 0.03752270 -0.01827614 -0.02126433
v 0.03645308 -0.01827614 -0.00513163
v 0.03645308 -0.01807686 -0.02181549
v 0.03757661 -0.01827614 -0.02123883
v 0.03771035 -0.01681610 -0.02152520
v 0.03896165 -0.01681610 -0.02089558
v 0.03882402 -0.01821522 -0.02060137
v 0.03876286 -0.01827614 -0.02061706
v 0.03910056 -0.01827614 -0.00334085
v 0.03645308 -0.00772848 -0.00812672
v 0.03645308 -0.01681506 -0.02209597
v 0.03782127 -0.01541490 -0.02176449
v 0.03908113 -0.01541387 -0.02115449
v 0.03910056 -0.01667154 -0.02085439
v 0.03910056 -0.01681610 -0.02081909
v 0.03910056 -0.01793023 -0.02052291
v 0.03910056 -0.01821522 -0.02044445
v 0.03881729 -0.01827614 -0.02058764
v 0.03910056 -0.00772848 -0.00656150
v 0.03910056 -0.01827614 -0.02042484
v 0.03645308 -0.00772848 -0.02337874
v 0.03654224 -0.01541490 -0.02233330
v 0.03645308 -0.01541490 -0.02236861
v 0.03910056 -0.01401578 -0.02142320
v 0.03910056 -0.01515986 -0.02119568
v 0.03792313 -0.01401578 -0.02198221
v 0.03910056 -0.01541387 -0.02114272
v 0.03910056 -0.00772848 -0.02230977
v 0.03694966 -0.00772848 -0.02320614
v 0.03645308 -0.00841617 -0.02331990
v 0.03663735 -0.01401474 -0.02253729
v 0.03645308 -0.01401474 -0.02260986
v 0.03910056 -0.01280045 -0.02163111
v 0.03801203 -0.01261665 -0.02217443
v 0.03910056 -0.01261665 -0.02166250
v 0.03910056 -0.00841617 -0.02224308
v 0.03822792 -0.00841617 -0.02263536
v 0.03825332 -0.00772848 -0.02269028
v 0.03692530 -0.00841617 -0.02315318
v 0.03645308 -0.00981633 -0.02317671
v 0.03672470 -0.01261665 -0.02272559
v 0.03645308 -0.01288925 -0.02278835
v 0.03809211 -0.01121649 -0.02234507
v 0.03910056 -0.01121649 -0.02187825
v 0.03910056 -0.00981633 -0.02207440
v 0.03816442 -0.00981633 -0.02250002
v 0.03686621 -0.00981633 -0.02302765
v 0.03645308 -0.01121546 -0.02301392
v 0.03645308 -0.01261562 -0.02282954
v 0.03679934 -0.01121546 -0.02288446
f 1 2 3
f 1 3 4
f 1 4 7
f 1 7 11
f 1 11 21
f 1 21 23
f 1 23 12
f 1 12 5
f 1 5 13
f 1 13 24
f 1 24 33
f 1 33 43
f 1 43 51
f 1 51 52
f 1 52 45
f 1 45 35
f 1 35 26
f 1 26 14
f 1 14 6
f 1 6 2
f 2 6 3
f 3 7 4
f 3 6 8
f 3 8 9
f 3 9 10
f 3 10 11
f 3 11 7
f 5 12 13
f 6 14 8
f 8 14 15
f 8 15 16
f 8 16 9
f 9 16 17
f 9 17 18
f 9 18 10
f 10 19 20
f 10 20 21
f 10 21 11
f 10 18 19
f 12 22 13
f 12 23 20
f 12 20 19
f 12 19 18
f 12 18 17
f 12 17 30
f 12 30 28
f 12 28 27
f 12 27 36
f 12 36 38
f 12 38 47
f 12 47 48
f 12 48 39
f 12 39 31
f 12 31 22
f 13 22 31
f 13 31 41
f 13 41 32
f 13 32 24
f 14 25 15
f 14 26 25
f 15 27 28
f 15 28 16
f 15 25 29
f 15 29 27
f 16 28 30
f 16 30 17
f 20 23 21
f 24 32 33
f 25 26 34
f 25 34 29
f 26 35 34
f 27 29 36
f 29 34 37
f 29 37 38
f 29 38 36
f 31 39 40
f 31 40 41
f 32 42 33
f 32 41 42
f 33 42 43
f 34 35 44
f 34 44 37
f 35 45 44
f 37 46 47
f 37 47 38
f 37 44 46
f 39 48 49
f 39 49 40
f 40 49 50
f 40 50 42
f 40 42 41
f 42 50 43
f 43 50 51
f 44 45 52
f 44 52 53
f 44 53 46
f 46 48 47
f 46 53 49
f 46 49 48
f 49 53 50
f 50 53 51
f 51 53 52

