# https://github.com/mikedh/trimesh
v 0.02533519 0.01311620 -0.02996536
v 0.02473620 0.01311620 -0.02817959
v 0.02509642 0.01258979 -0.02817959
v 0.02535578 0.01308454 -0.02996536
v 0.01933397 0.01311620 -0.02996536
v 0.01721590 0.01311620 -0.02817959
v 0.02529711 0.01222758 -0.02817959
v 0.02589301 0.01217177 -0.02996536
v 0.02561307 0.01264989 -0.02996536
v 0.02213441 0.00763422 -0.02996536
v 0.01844167 0.01114793 -0.02817959
v 0.02573349 0.01130569 -0.02817959
v 0.02655684 0.01088821 -0.02996536
v 0.02641996 0.01117637 -0.02996536
v 0.02611017 0.01177522 -0.02996536
v 0.02773012 0.00763422 -0.02996536
v 0.02068016 0.00763422 -0.02818011
v 0.02068633 0.00763422 -0.02817959
v 0.02644878 0.00972377 -0.02817959
v 0.02698910 0.00993036 -0.02996536
v 0.02750061 0.00848421 -0.02996536
v 0.02714966 0.00763422 -0.02817959
v 0.02675753 0.00882281 -0.02817959
v 0.02747797 0.00855880 -0.02996536
v 0.02707144 0.00972538 -0.02996536
v 0.02703748 0.00981338 -0.02996536
v 0.02693250 0.00831088 -0.02817959
f 1 2 3
f 1 3 4
f 1 4 9
f 1 9 8
f 1 8 15
f 1 15 14
f 1 14 13
f 1 13 20
f 1 20 26
f 1 26 25
f 1 25 24
f 1 24 21
f 1 21 16
f 1 16 10
f 1 10 5
f 1 5 6
f 1 6 2
f 2 6 11
f 2 11 18
f 2 18 22
f 2 22 27
f 2 27 23
f 2 23 19
f 2 19 12
f 2 12 7
f 2 7 3
f 3 7 8
f 3 8 9
f 3 9 4
f 5 10 6
f 6 10 11
f 7 12 13
f 7 13 14
f 7 14 15
f 7 15 8
f 10 16 22
f 10 22 18
f 10 18 17
f 10 17 11
f 11 17 18
f 12 19 13
f 13 19 20
f 16 21 22
f 19 23 24
f 19 24 25
f 19 25 26
f 19 26 20
f 21 24 22
f 22 24 27
f 23 27 24

