# https://github.com/mikedh/trimesh
v 0.01951188 0.01716160 -0.03469286
v 0.01906005 0.01716160 -0.03466740
v 0.01978029 0.01716160 -0.03467203
v 0.02005803 0.01669205 -0.03468869
v 0.02146639 0.01454950 -0.03464149
v 0.02150370 0.01383980 -0.03461187
v 0.01889527 0.01716160 -0.03465584
v 0.02023109 0.01716160 -0.03463085
v 0.02052437 0.01689412 -0.03462807
v 0.02140628 0.01543036 -0.03463270
v 0.02298875 0.01324659 -0.03460169
v 0.02291517 0.01258483 -0.03457855
v 0.02281879 0.01258483 -0.03457809
v 0.02277941 0.01258483 -0.03457762
v 0.02250686 0.01258483 -0.03457392
v 0.02211305 0.01270446 -0.03457346
v 0.01904450 0.01692593 -0.03464935
v 0.01835017 0.01696088 -0.03456652
v 0.01823721 0.01716160 -0.03457207
v 0.02037410 0.01716160 -0.03461372
v 0.02055442 0.01716160 -0.03458595
v 0.02138452 0.01612393 -0.03457948
v 0.02290584 0.01398676 -0.03455125
v 0.02369655 0.01258483 -0.03453783
v 0.02218974 0.01258483 -0.03456559
v 0.02196590 0.01258483 -0.03453644
v 0.02155447 0.01258483 -0.03447766
v 0.02077931 0.01366641 -0.03451052
v 0.01808694 0.01716160 -0.03454569
v 0.02100004 0.01716160 -0.03450358
v 0.02151820 0.01672207 -0.03446841
v 0.02292864 0.01462881 -0.03445684
v 0.02364163 0.01381829 -0.03440963
v 0.02441473 0.01258483 -0.03437909
v 0.02109642 0.01258483 -0.03436937
v 0.01696253 0.01716160 -0.03425414
v 0.02123943 0.01716160 -0.03443370
v 0.02211513 0.01682064 -0.03426339
v 0.02429244 0.01342536 -0.03428052
v 0.02443131 0.01258483 -0.03437400
v 0.02093579 0.01258483 -0.03428792
v 0.01635525 0.01716160 -0.03384828
v 0.02171614 0.01716160 -0.03429070
v 0.02190061 0.01716160 -0.03422637
v 0.02203118 0.01716160 -0.03416343
v 0.02263847 0.01671221 -0.03401349
v 0.02336286 0.01551414 -0.03406764
v 0.02362816 0.01459520 -0.03423655
v 0.02427171 0.01400244 -0.03409448
v 0.02494947 0.01258483 -0.03418704
v 0.02044457 0.01258483 -0.03389780
v 0.01610756 0.01716160 -0.03365808
v 0.02224363 0.01716160 -0.03404265
v 0.02235037 0.01716160 -0.03395842
v 0.02253276 0.01716160 -0.03381357
v 0.02271827 0.01716160 -0.03365067
v 0.02331726 0.01614454 -0.03378719
v 0.02415461 0.01470856 -0.03387512
v 0.02499507 0.01258483 -0.03416019
v 0.01987667 0.01258483 -0.03343409
v 0.01581118 0.01716160 -0.03306247
v 0.01984869 0.01258483 -0.03340262
v 0.02292968 0.01716160 -0.03342761
v 0.02405305 0.01539228 -0.03356922
v 0.02311310 0.01697656 -0.03337346
v 0.02491216 0.01387564 -0.03359976
v 0.02502305 0.01315519 -0.03386216
v 0.02506761 0.01258483 -0.03409818
v 0.01579874 0.01716160 -0.03302915
v 0.01961655 0.01258483 -0.03280378
v 0.02299393 0.01716160 -0.03333598
v 0.02452976 0.01482863 -0.03329896
v 0.02370795 0.01624311 -0.03308978
v 0.02304678 0.01716160 -0.03318974
v 0.02315041 0.01716160 -0.03287644
v 0.02504274 0.01405621 -0.03306294
v 0.02583863 0.01258483 -0.03280285
v 0.02533084 0.01258483 -0.03384087
v 0.01559355 0.01716160 -0.03229055
v 0.01839784 0.01391507 -0.03257331
v 0.01955334 0.01258483 -0.03212950
v 0.02450074 0.01520723 -0.03270289
v 0.02319497 0.01716160 -0.03265800
v 0.02389656 0.01624938 -0.03224659
v 0.02517124 0.01416911 -0.03238265
v 0.02603243 0.01258483 -0.03223594
v 0.02597957 0.01258483 -0.03239792
v 0.01558215 0.01716160 -0.03221234
v 0.01548266 0.01716160 -0.02996600
v 0.01554691 0.01716160 -0.03147143
v 0.01955437 0.01258483 -0.03199854
v 0.02455152 0.01525831 -0.03205916
v 0.02326544 0.01716160 -0.03216236
v 0.02340638 0.01699448 -0.03185646
v 0.02560650 0.01344283 -0.03155380
v 0.02604175 0.01258483 -0.03205361
v 0.01966630 0.01258483 -0.02996600
v 0.02264054 0.01716160 -0.02996600
v 0.02502719 0.01443032 -0.03168986
v 0.02328513 0.01716160 -0.03190274
v 0.02431628 0.01544783 -0.03135989
v 0.02328721 0.01716160 -0.03181018
v 0.02326233 0.01716160 -0.03165330
v 0.02587387 0.01258483 -0.03059260
v 0.02606973 0.01258483 -0.03141450
v 0.02517953 0.01391059 -0.03094848
v 0.02565106 0.01258483 -0.02996600
v 0.02303434 0.01660244 -0.02996600
v 0.02274936 0.01716160 -0.03017425
v 0.02315974 0.01716160 -0.03110305
v 0.02331104 0.01690756 -0.03104474
v 0.02586040 0.01258483 -0.03055095
v 0.02533602 0.01322105 -0.03012889
v 0.02467692 0.01447513 -0.03049820
v 0.02561272 0.01265024 -0.02996600
v 0.02302916 0.01691607 -0.03038389
v 0.02386029 0.01537435 -0.02996600
v 0.02289133 0.01716160 -0.03045192
v 0.02310378 0.01716160 -0.03095959
v 0.02367065 0.01622564 -0.03081937
v 0.02515051 0.01340923 -0.02996600
v 0.02535571 0.01308485 -0.02996600
v 0.02471319 0.01408891 -0.02996600
v 0.02387377 0.01535419 -0.02996600
v 0.02391625 0.01529057 -0.02996600
f 1 2 7
f 1 7 19
f 1 19 29
f 1 29 36
f 1 36 42
f 1 42 52
f 1 52 61
f 1 61 69
f 1 69 79
f 1 79 88
f 1 88 90
f 1 90 89
f 1 89 98
f 1 98 109
f 1 109 118
f 1 118 119
f 1 119 110
f 1 110 103
f 1 103 102
f 1 102 100
f 1 100 93
f 1 93 83
f 1 83 75
f 1 75 74
f 1 74 71
f 1 71 63
f 1 63 56
f 1 56 55
f 1 55 54
f 1 54 53
f 1 53 45
f 1 45 44
f 1 44 43
f 1 43 37
f 1 37 30
f 1 30 21
f 1 21 20
f 1 20 8
f 1 8 3
f 1 3 4
f 1 4 5
f 1 5 6
f 1 6 2
f 2 6 7
f 3 8 9
f 3 9 4
f 4 9 10
f 4 10 11
f 4 11 5
f 5 11 12
f 5 12 13
f 5 13 14
f 5 14 15
f 5 15 16
f 5 16 6
f 6 16 7
f 7 16 17
f 7 17 18
f 7 18 19
f 8 20 9
f 9 20 21
f 9 21 22
f 9 22 10
f 10 22 11
f 11 22 23
f 11 23 24
f 11 24 12
f 12 24 34
f 12 34 40
f 12 40 50
f 12 50 59
f 12 59 68
f 12 68 78
f 12 78 77
f 12 77 87
f 12 87 86
f 12 86 96
f 12 96 105
f 12 105 104
f 12 104 112
f 12 112 107
f 12 107 97
f 12 97 91
f 12 91 81
f 12 81 70
f 12 70 62
f 12 62 60
f 12 60 51
f 12 51 41
f 12 41 35
f 12 35 27
f 12 27 26
f 12 26 25
f 12 25 15
f 12 15 14
f 12 14 13
f 15 25 16
f 16 26 27
f 16 27 28
f 16 28 18
f 16 18 17
f 16 25 26
f 18 29 19
f 18 28 29
f 21 30 22
f 22 30 31
f 22 31 23
f 23 31 32
f 23 32 33
f 23 33 24
f 24 33 34
f 27 35 28
f 28 35 29
f 29 35 36
f 30 37 31
f 31 38 33
f 31 33 32
f 31 37 38
f 33 39 34
f 33 38 39
f 34 39 40
f 35 41 36
f 36 41 42
f 37 43 38
f 38 43 44
f 38 44 45
f 38 45 46
f 38 46 47
f 38 47 48
f 38 48 39
f 39 49 50
f 39 50 40
f 39 48 47
f 39 47 49
f 41 51 52
f 41 52 42
f 45 53 46
f 46 53 54
f 46 54 55
f 46 55 56
f 46 56 57
f 46 57 47
f 47 57 58
f 47 58 49
f 49 58 59
f 49 59 50
f 51 60 52
f 52 60 62
f 52 62 61
f 56 63 57
f 57 64 58
f 57 63 65
f 57 65 64
f 58 64 66
f 58 66 67
f 58 67 68
f 58 68 59
f 61 62 70
f 61 70 69
f 63 71 65
f 64 72 66
f 64 65 73
f 64 73 72
f 65 71 74
f 65 74 75
f 65 75 73
f 66 76 77
f 66 77 78
f 66 78 67
f 66 72 76
f 67 78 68
f 69 70 80
f 69 80 79
f 70 81 80
f 72 73 82
f 72 82 76
f 73 75 82
f 75 83 84
f 75 84 82
f 76 85 86
f 76 86 87
f 76 87 77
f 76 82 85
f 79 80 88
f 80 89 90
f 80 90 88
f 80 81 89
f 81 91 89
f 82 92 85
f 82 84 92
f 83 93 84
f 84 94 92
f 84 93 94
f 85 95 86
f 85 92 95
f 86 95 96
f 89 91 97
f 89 97 107
f 89 107 115
f 89 115 122
f 89 122 121
f 89 121 123
f 89 123 125
f 89 125 124
f 89 124 117
f 89 117 108
f 89 108 98
f 92 94 99
f 92 99 95
f 93 100 94
f 94 101 99
f 94 100 102
f 94 102 103
f 94 103 101
f 95 104 105
f 95 105 96
f 95 99 106
f 95 106 104
f 98 108 109
f 99 101 106
f 101 103 110
f 101 110 111
f 101 111 106
f 104 106 113
f 104 113 112
f 106 114 113
f 106 111 114
f 107 112 115
f 108 116 109
f 108 117 116
f 109 116 118
f 110 119 111
f 111 119 116
f 111 116 120
f 111 120 114
f 112 113 115
f 113 114 121
f 113 121 122
f 113 122 115
f 114 120 123
f 114 123 121
f 116 117 124
f 116 124 125
f 116 125 123
f 116 123 120
f 116 119 118

