# https://github.com/mikedh/trimesh
v 0.02606937 0.01258438 -0.03141451
v 0.02612978 0.01247197 -0.03139590
v 0.02604206 0.01258438 -0.03205320
v 0.02588236 0.01258438 -0.03062919
v 0.02640037 0.01185320 -0.03096011
v 0.02617860 0.01231352 -0.03221072
v 0.02674212 0.01119275 -0.03100278
v 0.02694403 0.01087974 -0.03174588
v 0.02603213 0.01258438 -0.03223614
v 0.02587326 0.01258438 -0.03059288
v 0.02589725 0.01253932 -0.03058062
v 0.02656587 0.01114915 -0.03031098
v 0.02708884 0.01045915 -0.03092562
v 0.02589312 0.01217203 -0.02996599
v 0.02610992 0.01177518 -0.02996599
v 0.02694238 0.01075811 -0.03227518
v 0.02666434 0.01109439 -0.03269280
v 0.02741736 0.00977739 -0.03159382
v 0.02732551 0.00993196 -0.03211948
v 0.02598000 0.01258438 -0.03239820
v 0.02586002 0.01258438 -0.03055066
v 0.02565149 0.01258438 -0.02996599
v 0.02642023 0.01117628 -0.02996599
v 0.02655759 0.01088797 -0.02996599
v 0.02708057 0.00981324 -0.03007130
v 0.02730896 0.00980355 -0.03074586
v 0.02756217 0.00912470 -0.03070908
v 0.02723779 0.00965867 -0.03285123
v 0.02673799 0.01064328 -0.03315128
v 0.02583850 0.01258438 -0.03280311
v 0.02776821 0.00863046 -0.03137638
v 0.02763499 0.00896334 -0.03218031
v 0.01966624 0.01258438 -0.02996599
v 0.02698872 0.00993050 -0.02996599
v 0.02703754 0.00981324 -0.02996599
v 0.02707147 0.00972505 -0.02996599
v 0.02747776 0.00855923 -0.02996599
v 0.02750093 0.00848412 -0.02996599
v 0.02772353 0.00843131 -0.03055883
v 0.02719311 0.00895123 -0.03343999
v 0.02683232 0.00991839 -0.03354757
v 0.02768215 0.00815124 -0.03279085
v 0.02622991 0.01122134 -0.03365061
v 0.02617529 0.01157264 -0.03331788
v 0.02533042 0.01258438 -0.03384082
v 0.02793123 0.00763422 -0.03058425
v 0.02800653 0.00763422 -0.03123293
v 0.02798667 0.00763422 -0.03161742
v 0.02796681 0.00763422 -0.03183213
v 0.02791964 0.00763422 -0.03216124
v 0.02784848 0.00763422 -0.03254482
v 0.01955370 0.01258438 -0.03199873
v 0.02213382 0.00763422 -0.02996599
v 0.02772601 0.00764731 -0.02996599
v 0.02790641 0.00763422 -0.03048166
v 0.02791468 0.00767929 -0.03054340
v 0.02713270 0.00848509 -0.03363155
v 0.02651291 0.00987042 -0.03394613
v 0.02768629 0.00763422 -0.03307684
v 0.02756134 0.00763422 -0.03335919
v 0.02778973 0.00763422 -0.03281809
v 0.02585919 0.01110505 -0.03405054
v 0.02508135 0.01241527 -0.03416811
v 0.02506811 0.01258438 -0.03409820
v 0.02792295 0.00763422 -0.03053659
v 0.01955287 0.01258438 -0.03212946
v 0.02772932 0.00763422 -0.02996599
v 0.02218678 0.00763422 -0.03163194
v 0.02719145 0.00763422 -0.03376092
v 0.02749431 0.00763422 -0.03343636
v 0.02718069 0.00763422 -0.03377091
v 0.02689686 0.00763422 -0.03403283
v 0.02657580 0.00860478 -0.03413497
v 0.02592291 0.01034867 -0.03416902
v 0.02519885 0.01118306 -0.03435331
v 0.02494895 0.01258438 -0.03418717
v 0.02499529 0.01258438 -0.03416039
v 0.01961659 0.01258438 -0.03280356
v 0.02222071 0.00763422 -0.03233374
v 0.02665027 0.00763422 -0.03419398
v 0.02591960 0.00843082 -0.03436512
v 0.02520630 0.00983311 -0.03446408
v 0.02454513 0.01110263 -0.03451356
v 0.02443756 0.01254852 -0.03437783
v 0.02443177 0.01258438 -0.03437419
v 0.01984828 0.01258438 -0.03340276
v 0.02249130 0.00763422 -0.03332559
v 0.02232993 0.00763422 -0.03287302
v 0.02635237 0.00763422 -0.03429158
v 0.02600152 0.00763422 -0.03438691
v 0.02598745 0.00763422 -0.03439054
v 0.02555881 0.00763422 -0.03448178
v 0.02519140 0.00830581 -0.03452627
v 0.02440197 0.01063068 -0.03458528
v 0.02370109 0.01257760 -0.03453762
v 0.02369778 0.01258438 -0.03453762
v 0.02441522 0.01258438 -0.03437874
v 0.01987642 0.01258438 -0.03343409
v 0.02293980 0.00763422 -0.03396383
v 0.02286946 0.00763422 -0.03388530
v 0.02258646 0.00763422 -0.03354621
v 0.02541565 0.00763422 -0.03450901
v 0.02451120 0.00961118 -0.03460253
v 0.02291580 0.01258438 -0.03457847
v 0.02043084 0.01258438 -0.03388667
v 0.02317563 0.00763422 -0.03414042
v 0.02044491 0.01258438 -0.03389801
v 0.02093644 0.01258438 -0.03428795
v 0.02524105 0.00763422 -0.03452899
v 0.02491916 0.00763422 -0.03456258
v 0.02453272 0.00848509 -0.03459345
v 0.02250785 0.01258438 -0.03457393
v 0.02278009 0.01258438 -0.03457756
v 0.02281981 0.01258438 -0.03457802
v 0.02366882 0.00763422 -0.03437692
v 0.02109697 0.01258438 -0.03436920
v 0.02451038 0.00763422 -0.03453988
v 0.02443259 0.00763422 -0.03453217
v 0.02363406 0.00855487 -0.03450811
v 0.02219092 0.01258438 -0.03456530
v 0.02408256 0.00763422 -0.03446226
v 0.02155457 0.01258438 -0.03447769
v 0.02196666 0.01258438 -0.03453625
f 1 2 3
f 1 3 9
f 1 9 20
f 1 20 30
f 1 30 45
f 1 45 64
f 1 64 77
f 1 77 76
f 1 76 85
f 1 85 97
f 1 97 96
f 1 96 104
f 1 104 114
f 1 114 113
f 1 113 112
f 1 112 120
f 1 120 123
f 1 123 122
f 1 122 116
f 1 116 108
f 1 108 107
f 1 107 105
f 1 105 98
f 1 98 86
f 1 86 78
f 1 78 66
f 1 66 52
f 1 52 33
f 1 33 22
f 1 22 21
f 1 21 10
f 1 10 4
f 1 4 5
f 1 5 2
f 2 6 3
f 2 5 7
f 2 7 8
f 2 8 6
f 3 6 9
f 4 10 11
f 4 11 5
f 5 12 13
f 5 13 7
f 5 11 14
f 5 14 15
f 5 15 12
f 6 8 16
f 6 16 17
f 6 17 9
f 7 13 8
f 8 13 18
f 8 18 19
f 8 19 16
f 9 17 20
f 10 21 11
f 11 21 22
f 11 22 14
f 12 15 23
f 12 23 24
f 12 24 25
f 12 25 13
f 13 25 26
f 13 26 27
f 13 27 18
f 14 22 33
f 14 33 53
f 14 53 67
f 14 67 54
f 14 54 38
f 14 38 37
f 14 37 36
f 14 36 35
f 14 35 34
f 14 34 24
f 14 24 23
f 14 23 15
f 16 19 28
f 16 28 29
f 16 29 17
f 17 29 30
f 17 30 20
f 18 27 31
f 18 31 32
f 18 32 19
f 19 32 28
f 24 34 25
f 25 34 35
f 25 35 36
f 25 36 27
f 25 27 26
f 27 37 38
f 27 38 39
f 27 39 31
f 27 36 37
f 28 40 41
f 28 41 29
f 28 32 42
f 28 42 40
f 29 41 43
f 29 43 44
f 29 44 30
f 30 44 43
f 30 43 45
f 31 46 47
f 31 47 48
f 31 48 32
f 31 39 46
f 32 48 49
f 32 49 50
f 32 50 51
f 32 51 42
f 33 52 53
f 38 54 39
f 39 54 55
f 39 55 56
f 39 56 46
f 40 57 58
f 40 58 41
f 40 42 59
f 40 59 60
f 40 60 57
f 41 58 43
f 42 51 61
f 42 61 59
f 43 58 62
f 43 62 63
f 43 63 64
f 43 64 45
f 46 56 65
f 46 65 55
f 46 55 67
f 46 67 53
f 46 53 68
f 46 68 79
f 46 79 88
f 46 88 87
f 46 87 101
f 46 101 100
f 46 100 99
f 46 99 106
f 46 106 115
f 46 115 121
f 46 121 118
f 46 118 117
f 46 117 110
f 46 110 109
f 46 109 102
f 46 102 92
f 46 92 91
f 46 91 90
f 46 90 89
f 46 89 80
f 46 80 72
f 46 72 71
f 46 71 69
f 46 69 70
f 46 70 60
f 46 60 59
f 46 59 61
f 46 61 51
f 46 51 50
f 46 50 49
f 46 49 48
f 46 48 47
f 52 66 53
f 53 66 68
f 54 67 55
f 55 65 56
f 57 69 58
f 57 60 70
f 57 70 69
f 58 69 71
f 58 71 72
f 58 72 73
f 58 73 74
f 58 74 62
f 62 74 63
f 63 75 76
f 63 76 77
f 63 77 64
f 63 74 75
f 66 78 79
f 66 79 68
f 72 80 73
f 73 80 81
f 73 81 75
f 73 75 74
f 75 81 82
f 75 82 83
f 75 83 84
f 75 84 85
f 75 85 76
f 78 86 87
f 78 87 88
f 78 88 79
f 80 89 81
f 81 90 91
f 81 91 82
f 81 89 90
f 82 91 92
f 82 92 93
f 82 93 94
f 82 94 83
f 83 94 95
f 83 95 96
f 83 96 84
f 84 97 85
f 84 96 97
f 86 98 99
f 86 99 100
f 86 100 101
f 86 101 87
f 92 102 93
f 93 102 103
f 93 103 94
f 94 103 104
f 94 104 96
f 94 96 95
f 98 105 99
f 99 105 107
f 99 107 108
f 99 108 106
f 102 109 103
f 103 109 110
f 103 110 111
f 103 111 112
f 103 112 113
f 103 113 114
f 103 114 104
f 106 108 116
f 106 116 115
f 110 117 111
f 111 117 118
f 111 118 119
f 111 119 120
f 111 120 112
f 115 116 119
f 115 119 121
f 116 122 119
f 118 121 119
f 119 122 123
f 119 123 120

