# https://github.com/mikedh/trimesh
v -0.01524050 -0.00867125 -0.02734529
v -0.01524050 -0.00867125 -0.01294035
v -0.01524050 -0.00032565 -0.02728747
v -0.00016747 -0.00032565 -0.02682357
v -0.00016747 -0.00867125 -0.02670372
v -0.01524050 -0.00032565 -0.01323081
v -0.00018665 -0.00867125 -0.01374971
v -0.00016747 -0.00032565 -0.01388084
v -0.00016747 -0.00867125 -0.01375112
v -0.00016747 -0.00865492 -0.01375112
f 1 2 6
f 1 6 3
f 1 3 4
f 1 4 5
f 1 5 9
f 1 9 7
f 1 7 2
f 2 7 8
f 2 8 6
f 3 6 8
f 3 8 4
f 4 8 10
f 4 10 9
f 4 9 5
f 7 9 10
f 7 10 8

