# https://github.com/mikedh/trimesh
v 0.03139184 -0.04662563 -0.00251195
v 0.03139184 -0.04676059 -0.00212817
v 0.03139184 -0.03371514 -0.00251195
v 0.03193382 -0.04626473 -0.00251195
v 0.03139184 -0.04687432 -0.00180212
v 0.03155172 -0.04680760 -0.00168979
v 0.03139184 -0.03371514 0.00089370
v 0.04513814 -0.03371514 -0.00251195
v 0.03230474 -0.04600695 -0.00251195
v 0.03281955 -0.04613432 -0.00109696
v 0.03139184 -0.04702444 -0.00134345
v 0.03139184 -0.03938187 0.01342580
v 0.03748798 -0.03371666 0.01342580
v 0.03507223 -0.03371514 0.00673151
v 0.04527243 -0.03371514 -0.00214065
v 0.04541313 -0.03379248 -0.00158682
v 0.04432596 -0.03496616 -0.00207513
v 0.04454499 -0.03447940 -0.00251195
v 0.03309614 -0.04545043 -0.00251195
v 0.03223120 -0.04692284 0.00016982
v 0.03139184 -0.04737321 -0.00022644
v 0.03340950 -0.04528060 -0.00236530
v 0.03409537 -0.04540342 -0.00050881
v 0.03349903 -0.04621621 0.00076265
v 0.03139184 -0.04920652 0.01342580
v 0.04772496 -0.03371666 0.01342580
v 0.04731567 -0.03371514 0.00673151
v 0.04544670 -0.03371514 -0.00165703
v 0.04548507 -0.03371514 -0.00154470
v 0.04576806 -0.03371514 -0.00064922
v 0.04480239 -0.03503440 -0.00051193
v 0.04348340 -0.03653713 -0.00076622
v 0.04283749 -0.03656443 -0.00251195
v 0.04310769 -0.03623840 -0.00251195
v 0.04416608 -0.03495251 -0.00251195
v 0.03335674 -0.04526392 -0.00251195
v 0.03163485 -0.04766739 0.00144129
v 0.03139184 -0.04764312 0.00076265
v 0.03347665 -0.04517597 -0.00251195
v 0.03468213 -0.04453151 -0.00177559
v 0.03536960 -0.04460429 0.00008090
v 0.03475407 -0.04545953 0.00135860
v 0.03291228 -0.04695165 0.00202943
v 0.03416892 -0.04621621 0.00262538
v 0.03139184 -0.04920652 0.01340240
v 0.03178354 -0.04895631 0.01342580
v 0.04677688 -0.03502530 0.01342580
v 0.04677688 -0.03502681 0.01312626
v 0.04771057 -0.03371666 0.01214341
v 0.04770737 -0.03371666 0.01202797
v 0.04764822 -0.03371666 0.01055057
v 0.04764342 -0.03371666 0.01044293
v 0.04752351 -0.03371666 0.00892341
v 0.04751552 -0.03371666 0.00882981
v 0.04738122 -0.03371666 0.00734150
v 0.04737003 -0.03371666 0.00723073
v 0.04633402 -0.03501923 0.00674711
v 0.04720216 -0.03371514 0.00572370
v 0.04610859 -0.03371514 0.00043972
v 0.04546109 -0.03500862 0.00171742
v 0.04415329 -0.03640824 0.00109807
v 0.04288386 -0.03767593 0.00050524
v 0.04219638 -0.03777905 -0.00135125
v 0.04274157 -0.03667209 -0.00251195
v 0.03139184 -0.04794943 0.00196391
v 0.03139184 -0.04779780 0.00133052
v 0.03441353 -0.04446478 -0.00251195
v 0.03502426 -0.04399319 -0.00251195
v 0.03546713 -0.04363987 -0.00251195
v 0.03595156 -0.04372176 -0.00118432
v 0.03662784 -0.04374602 0.00067685
v 0.03603309 -0.04460732 0.00194675
v 0.03544314 -0.04539584 0.00321353
v 0.03358217 -0.04688645 0.00389217
v 0.03231913 -0.04762341 0.00329778
v 0.03139184 -0.04815263 0.00286564
v 0.03484680 -0.04609490 0.00448344
v 0.03139184 -0.04918680 0.01233998
v 0.03139184 -0.04918225 0.01213561
v 0.03222640 -0.04866668 0.01342580
v 0.04646992 -0.03542259 0.01342580
v 0.04568652 -0.03642340 0.01342580
v 0.04567533 -0.03642643 0.01261456
v 0.04675770 -0.03499800 0.01159271
v 0.04664898 -0.03501620 0.00998583
v 0.04648591 -0.03502984 0.00835555
v 0.04551385 -0.03641430 0.00945696
v 0.04534918 -0.03641430 0.00783760
v 0.04521488 -0.03642189 0.00673151
v 0.04514933 -0.03642492 0.00619016
v 0.04612298 -0.03502075 0.00510279
v 0.04718777 -0.03371514 0.00560357
v 0.04615176 -0.03371514 0.00059104
v 0.04483437 -0.03615045 0.00295612
v 0.04657704 -0.03371514 0.00222600
v 0.04584479 -0.03501316 0.00343506
v 0.04346901 -0.03757130 0.00238201
v 0.04229231 -0.03870404 0.00177514
v 0.04151371 -0.03896790 -0.00007199
v 0.04177910 -0.03775024 -0.00251195
v 0.04093655 -0.03889056 -0.00194564
v 0.03640881 -0.04287410 -0.00251195
v 0.03653671 -0.04279070 -0.00245111
v 0.03721139 -0.04284984 -0.00058838
v 0.03849042 -0.04191423 -0.00000023
v 0.03789407 -0.04281951 0.00126968
v 0.03730572 -0.04368233 0.00253646
v 0.03670618 -0.04448601 0.00380636
v 0.03611943 -0.04519720 0.00507470
v 0.03298422 -0.04751272 0.00516207
v 0.03173078 -0.04825119 0.00456612
v 0.03426485 -0.04672116 0.00574866
v 0.03139184 -0.04829972 0.00364099
v 0.03552149 -0.04584773 0.00634305
v 0.03139184 -0.04917467 0.01190316
v 0.03189226 -0.04881226 0.01082671
v 0.03257174 -0.04841951 0.01268632
v 0.03283873 -0.04824665 0.01342580
v 0.04478321 -0.03752126 0.01342580
v 0.04563056 -0.03640975 0.01105916
v 0.04453860 -0.03781544 0.01342580
v 0.04449063 -0.03782757 0.01206073
v 0.04441069 -0.03781696 0.01048505
v 0.04428759 -0.03782606 0.00887817
v 0.04411971 -0.03781241 0.00726349
v 0.04463132 -0.03712397 0.00673151
v 0.04398062 -0.03788368 0.00673307
v 0.04490951 -0.03641582 0.00454272
v 0.04694636 -0.03371514 0.00405909
v 0.04423163 -0.03713762 0.00422758
v 0.04660262 -0.03371514 0.00234145
v 0.04692557 -0.03371514 0.00393897
v 0.04296060 -0.03843109 0.00363631
v 0.04169916 -0.03965330 0.00304348
v 0.04102128 -0.03986105 0.00118387
v 0.04034180 -0.03994748 -0.00067574
v 0.04119875 -0.03837499 -0.00251195
v 0.03972787 -0.03987014 -0.00251195
v 0.04073030 -0.03885872 -0.00251195
v 0.03656549 -0.04274217 -0.00251195
v 0.03780454 -0.04190361 -0.00185828
v 0.03908996 -0.04094678 -0.00127169
v 0.03975185 -0.04093161 0.00059260
v 0.03916990 -0.04184296 0.00185939
v 0.03856876 -0.04271033 0.00313085
v 0.03798200 -0.04350036 0.00439763
v 0.03739206 -0.04421761 0.00566441
v 0.03673176 -0.04490757 0.00673151
v 0.03240067 -0.04809804 0.00642729
v 0.03139184 -0.04858783 0.00528063
v 0.03139184 -0.04844074 0.00441011
v 0.03534242 -0.04603121 0.00673151
v 0.03461977 -0.04657559 0.00673151
v 0.03379960 -0.04717456 0.00673151
v 0.03304817 -0.04769316 0.00673307
v 0.03620896 -0.04548986 0.00820266
v 0.03680530 -0.04487269 0.00693276
v 0.03139184 -0.04912008 0.01059426
v 0.03248860 -0.04834369 0.00955681
v 0.03316329 -0.04796308 0.01141798
v 0.03139184 -0.04905791 0.00945540
v 0.03139184 -0.04903365 0.00904822
v 0.03383637 -0.04753243 0.01327759
v 0.03376762 -0.04758398 0.01342580
v 0.04324998 -0.03927875 0.01342580
v 0.04321960 -0.03929998 0.01302174
v 0.04382234 -0.03856757 0.01175183
v 0.04312048 -0.03920748 0.00988910
v 0.04269041 -0.03950014 0.00802013
v 0.04304694 -0.03893302 0.00673307
v 0.04365287 -0.03804745 0.00549281
v 0.04240423 -0.03931514 0.00489998
v 0.04109962 -0.04055251 0.00431339
v 0.04042974 -0.04080120 0.00245065
v 0.03965593 -0.03993838 -0.00251195
v 0.03756952 -0.04185661 -0.00251195
v 0.03811151 -0.04137743 -0.00251195
v 0.03863111 -0.04090128 -0.00251195
v 0.03983019 -0.04167464 0.00372212
v 0.03924983 -0.04245861 0.00498890
v 0.03865509 -0.04318950 0.00625724
v 0.03778056 -0.04400987 0.00673307
v 0.03225838 -0.04822997 0.00673151
v 0.03139184 -0.04869398 0.00595927
v 0.03493473 -0.04644367 0.00761139
v 0.03366211 -0.04730800 0.00702012
v 0.03560942 -0.04606002 0.00947256
v 0.03747679 -0.04447540 0.00879549
v 0.03688364 -0.04506376 0.01006383
v 0.03806834 -0.04385368 0.00752559
v 0.03308495 -0.04784177 0.00828846
v 0.03375643 -0.04748239 0.01014808
v 0.03443112 -0.04705477 0.01200925
v 0.03139184 -0.04899422 0.00858332
v 0.03180433 -0.04864545 0.00769719
v 0.03415133 -0.04729739 0.01342580
v 0.03494912 -0.04669690 0.01342580
v 0.04303095 -0.03951228 0.01342580
v 0.04194858 -0.04059346 0.01243047
v 0.04255131 -0.03989441 0.01116056
v 0.04186224 -0.04047063 0.00930251
v 0.04119875 -0.04095132 0.00743978
v 0.04205409 -0.03998539 0.00673151
v 0.04295580 -0.03903158 0.00673151
v 0.04304534 -0.03893454 0.00673151
v 0.04177750 -0.04019617 0.00617300
v 0.04052086 -0.04135620 0.00557861
v 0.03998368 -0.04202492 0.00673307
v 0.03988615 -0.04211591 0.00673307
v 0.03967831 -0.04230849 0.00673151
v 0.03933138 -0.04278615 0.00811841
v 0.03843606 -0.04343819 0.00673307
v 0.03139184 -0.04888959 0.00750530
v 0.03139184 -0.04879254 0.00673151
v 0.03432720 -0.04699260 0.00888285
v 0.03629529 -0.04560359 0.01133217
v 0.03503546 -0.04656346 0.01073935
v 0.03873982 -0.04342303 0.00938676
v 0.03815947 -0.04402503 0.01065510
v 0.03756312 -0.04460429 0.01192344
v 0.03532004 -0.04641637 0.01342580
v 0.04149452 -0.04109386 0.01342580
v 0.04128828 -0.04114239 0.01056930
v 0.04060240 -0.04165038 0.00870968
v 0.04152170 -0.04052977 0.00673151
v 0.03992772 -0.04209316 0.00684851
v 0.04001725 -0.04230849 0.00997803
v 0.03569895 -0.04610248 0.01260052
v 0.03696998 -0.04512896 0.01319179
v 0.03941931 -0.04294234 0.01124637
v 0.03882616 -0.04354889 0.01251627
v 0.03839929 -0.04394921 0.01342580
v 0.03809871 -0.04420397 0.01342580
v 0.03746560 -0.04472863 0.01342580
v 0.03686126 -0.04521994 0.01342580
v 0.04126909 -0.04131526 0.01342580
v 0.04068394 -0.04180353 0.01183764
v 0.04008919 -0.04242525 0.01310754
v 0.03994531 -0.04256779 0.01342580
v 0.03916030 -0.04327897 0.01342580
v 0.04077827 -0.04178230 0.01342580
v 0.04020750 -0.04232062 0.01342580
f 1 2 5
f 1 5 11
f 1 11 21
f 1 21 38
f 1 38 66
f 1 66 65
f 1 65 76
f 1 76 113
f 1 113 151
f 1 151 150
f 1 150 184
f 1 184 214
f 1 214 213
f 1 213 194
f 1 194 162
f 1 162 161
f 1 161 158
f 1 158 115
f 1 115 79
f 1 79 78
f 1 78 45
f 1 45 25
f 1 25 12
f 1 12 7
f 1 7 3
f 1 3 8
f 1 8 18
f 1 18 35
f 1 35 34
f 1 34 33
f 1 33 64
f 1 64 100
f 1 100 137
f 1 137 139
f 1 139 138
f 1 138 175
f 1 175 178
f 1 178 177
f 1 177 176
f 1 176 140
f 1 140 102
f 1 102 69
f 1 69 68
f 1 68 67
f 1 67 39
f 1 39 36
f 1 36 19
f 1 19 9
f 1 9 4
f 1 4 2
f 2 4 6
f 2 6 5
f 3 7 14
f 3 14 27
f 3 27 58
f 3 58 92
f 3 92 129
f 3 129 132
f 3 132 131
f 3 131 95
f 3 95 93
f 3 93 59
f 3 59 30
f 3 30 29
f 3 29 28
f 3 28 15
f 3 15 8
f 4 9 10
f 4 10 6
f 5 6 11
f 6 10 11
f 7 12 13
f 7 13 14
f 8 15 16
f 8 16 17
f 8 17 18
f 9 19 10
f 10 20 21
f 10 21 11
f 10 19 22
f 10 22 23
f 10 23 24
f 10 24 20
f 12 25 46
f 12 46 80
f 12 80 118
f 12 118 164
f 12 164 196
f 12 196 197
f 12 197 221
f 12 221 235
f 12 235 234
f 12 234 233
f 12 233 232
f 12 232 240
f 12 240 239
f 12 239 242
f 12 242 241
f 12 241 236
f 12 236 222
f 12 222 198
f 12 198 165
f 12 165 121
f 12 121 119
f 12 119 82
f 12 82 81
f 12 81 47
f 12 47 26
f 12 26 13
f 13 26 27
f 13 27 14
f 15 28 16
f 16 28 29
f 16 29 30
f 16 30 31
f 16 31 17
f 17 32 33
f 17 33 34
f 17 34 35
f 17 35 18
f 17 31 32
f 19 36 22
f 20 24 37
f 20 37 21
f 21 37 38
f 22 36 39
f 22 39 40
f 22 40 23
f 23 40 41
f 23 41 42
f 23 42 24
f 24 43 37
f 24 42 44
f 24 44 43
f 25 45 46
f 26 47 48
f 26 48 49
f 26 49 27
f 27 49 50
f 27 50 51
f 27 51 52
f 27 52 53
f 27 53 54
f 27 54 55
f 27 55 56
f 27 56 57
f 27 57 58
f 30 59 31
f 31 60 61
f 31 61 32
f 31 59 60
f 32 61 62
f 32 62 63
f 32 63 33
f 33 63 64
f 37 65 66
f 37 66 38
f 37 43 65
f 39 67 40
f 40 67 68
f 40 68 69
f 40 69 70
f 40 70 41
f 41 70 71
f 41 71 72
f 41 72 42
f 42 72 73
f 42 73 44
f 43 44 74
f 43 74 75
f 43 75 76
f 43 76 65
f 44 73 77
f 44 77 74
f 45 78 46
f 46 78 79
f 46 79 80
f 47 81 48
f 48 81 82
f 48 82 83
f 48 83 84
f 48 84 49
f 49 84 50
f 50 84 51
f 51 84 52
f 52 84 85
f 52 85 53
f 53 85 54
f 54 85 55
f 55 85 86
f 55 86 57
f 55 57 56
f 57 86 87
f 57 87 88
f 57 88 89
f 57 89 90
f 57 90 91
f 57 91 92
f 57 92 58
f 59 93 60
f 60 94 61
f 60 93 95
f 60 95 96
f 60 96 94
f 61 97 62
f 61 94 97
f 62 98 99
f 62 99 63
f 62 97 98
f 63 100 64
f 63 99 101
f 63 101 100
f 69 102 70
f 70 102 103
f 70 103 104
f 70 104 71
f 71 104 105
f 71 105 106
f 71 106 107
f 71 107 72
f 72 107 108
f 72 108 73
f 73 108 109
f 73 109 77
f 74 110 111
f 74 111 75
f 74 77 112
f 74 112 110
f 75 111 113
f 75 113 76
f 77 109 114
f 77 114 112
f 79 115 116
f 79 116 117
f 79 117 80
f 80 117 118
f 82 119 83
f 83 120 84
f 83 119 121
f 83 121 122
f 83 122 120
f 84 120 85
f 85 120 87
f 85 87 86
f 87 120 123
f 87 123 124
f 87 124 88
f 88 124 125
f 88 125 126
f 88 126 89
f 89 126 90
f 90 126 127
f 90 127 128
f 90 128 91
f 91 96 129
f 91 129 92
f 91 128 96
f 94 96 128
f 94 128 130
f 94 130 97
f 95 131 96
f 96 131 132
f 96 132 129
f 97 130 133
f 97 133 98
f 98 133 134
f 98 134 135
f 98 135 99
f 99 135 136
f 99 136 101
f 100 101 137
f 101 136 138
f 101 138 139
f 101 139 137
f 102 140 103
f 103 140 141
f 103 141 104
f 104 141 105
f 105 141 142
f 105 142 143
f 105 143 144
f 105 144 106
f 106 144 107
f 107 144 145
f 107 145 108
f 108 145 146
f 108 146 147
f 108 147 109
f 109 147 148
f 109 148 114
f 110 149 111
f 110 112 149
f 111 150 151
f 111 151 113
f 111 149 150
f 112 114 152
f 112 152 153
f 112 153 154
f 112 154 155
f 112 155 149
f 114 156 152
f 114 148 157
f 114 157 156
f 115 158 116
f 116 159 160
f 116 160 117
f 116 158 161
f 116 161 162
f 116 162 159
f 117 160 163
f 117 163 118
f 118 163 164
f 120 122 123
f 121 165 122
f 122 165 166
f 122 166 167
f 122 167 123
f 123 167 168
f 123 168 124
f 124 168 169
f 124 169 125
f 125 127 126
f 125 169 170
f 125 170 127
f 127 171 128
f 127 170 171
f 128 171 130
f 130 171 133
f 133 172 134
f 133 171 172
f 134 173 174
f 134 174 135
f 134 172 173
f 135 174 143
f 135 143 136
f 136 143 142
f 136 142 138
f 138 142 175
f 140 176 141
f 141 176 177
f 141 177 142
f 142 178 175
f 142 177 178
f 143 174 144
f 144 174 179
f 144 179 145
f 145 179 146
f 146 179 180
f 146 180 181
f 146 181 147
f 147 182 157
f 147 157 148
f 147 181 182
f 149 155 183
f 149 183 184
f 149 184 150
f 152 156 185
f 152 185 153
f 153 185 186
f 153 186 154
f 154 186 155
f 155 186 183
f 156 187 185
f 156 157 188
f 156 188 189
f 156 189 187
f 157 182 190
f 157 190 188
f 159 191 192
f 159 192 160
f 159 162 191
f 160 192 193
f 160 193 163
f 162 194 195
f 162 195 191
f 163 196 164
f 163 193 197
f 163 197 196
f 165 198 166
f 166 168 167
f 166 198 199
f 166 199 200
f 166 200 168
f 168 200 201
f 168 201 169
f 169 201 202
f 169 202 203
f 169 203 204
f 169 204 205
f 169 205 170
f 170 205 171
f 171 205 172
f 172 205 204
f 172 204 206
f 172 206 173
f 173 206 207
f 173 207 179
f 173 179 174
f 179 207 180
f 180 207 208
f 180 208 209
f 180 209 210
f 180 210 181
f 181 210 211
f 181 211 212
f 181 212 182
f 182 212 190
f 183 186 191
f 183 191 195
f 183 195 213
f 183 213 214
f 183 214 184
f 185 215 191
f 185 191 186
f 185 187 215
f 187 189 216
f 187 216 217
f 187 217 215
f 188 190 218
f 188 218 219
f 188 219 189
f 189 219 220
f 189 220 216
f 190 212 211
f 190 211 218
f 191 215 192
f 192 215 217
f 192 217 193
f 193 217 221
f 193 221 197
f 194 213 195
f 198 222 199
f 199 222 223
f 199 223 200
f 200 223 201
f 201 223 224
f 201 224 202
f 202 225 203
f 202 224 226
f 202 226 208
f 202 208 207
f 202 207 225
f 203 225 206
f 203 206 204
f 206 225 207
f 208 226 209
f 209 226 210
f 210 226 211
f 211 226 224
f 211 224 227
f 211 227 218
f 216 228 217
f 216 220 229
f 216 229 228
f 217 228 221
f 218 227 230
f 218 230 219
f 219 230 231
f 219 231 220
f 220 231 232
f 220 232 233
f 220 233 234
f 220 234 229
f 221 228 235
f 222 236 223
f 223 236 237
f 223 237 227
f 223 227 224
f 227 237 230
f 228 229 235
f 229 234 235
f 230 237 238
f 230 238 231
f 231 238 239
f 231 239 240
f 231 240 232
f 236 241 238
f 236 238 237
f 238 241 242
f 238 242 239

