# https://github.com/mikedh/trimesh
v -0.00016746 0.03086895 -0.01076565
v -0.01106471 0.03086895 -0.00998772
v -0.00016746 0.02251172 -0.01260988
v -0.00016746 0.03086895 -0.02542388
v -0.01106471 0.03086895 -0.02497959
v -0.01106471 0.02251172 -0.01207673
v -0.00016746 0.02251172 -0.02711554
v -0.00056640 0.03086895 -0.02542053
v -0.00016746 0.02791087 -0.02711219
v -0.00017066 0.02791087 -0.02711554
v -0.00131735 0.02792641 -0.02711554
v -0.00151255 0.02792805 -0.02711554
v -0.00320218 0.02793378 -0.02711554
v -0.00996816 0.03086895 -0.02506678
v -0.00467847 0.02788388 -0.02711554
v -0.00714892 0.02734723 -0.02711554
v -0.00813240 0.02704292 -0.02711554
v -0.00916388 0.02665353 -0.02711554
v -0.00983589 0.02639747 -0.02711554
v -0.01106471 0.02593118 -0.02711386
v -0.01106471 0.02251172 -0.02711554
v -0.00016746 0.02790269 -0.02711554
v -0.00231577 0.03086895 -0.02539874
v -0.00436167 0.02790760 -0.02711554
v -0.00688758 0.03086895 -0.02525958
v -0.01057191 0.02611361 -0.02711554
v -0.01106471 0.02552707 -0.02711554
v -0.00365766 0.03086895 -0.02537191
v -0.00531848 0.03086895 -0.02532664
v -0.00508915 0.03086895 -0.02533335
f 1 2 3
f 1 3 7
f 1 7 22
f 1 22 9
f 1 9 4
f 1 4 8
f 1 8 23
f 1 23 28
f 1 28 30
f 1 30 29
f 1 29 25
f 1 25 14
f 1 14 5
f 1 5 2
f 2 5 20
f 2 20 27
f 2 27 21
f 2 21 6
f 2 6 3
f 3 6 21
f 3 21 7
f 4 9 10
f 4 10 11
f 4 11 12
f 4 12 13
f 4 13 8
f 5 14 15
f 5 15 16
f 5 16 17
f 5 17 18
f 5 18 19
f 5 19 20
f 7 21 27
f 7 27 26
f 7 26 19
f 7 19 18
f 7 18 17
f 7 17 16
f 7 16 15
f 7 15 24
f 7 24 13
f 7 13 12
f 7 12 11
f 7 11 10
f 7 10 22
f 8 13 23
f 9 22 10
f 13 24 23
f 14 25 15
f 15 25 24
f 19 26 20
f 20 26 27
f 23 24 28
f 24 25 29
f 24 29 30
f 24 30 28

