# https://github.com/mikedh/trimesh
v -0.02456731 -0.00904748 -0.03438574
v -0.02468804 -0.00904748 -0.03438375
v -0.02407648 -0.00904748 -0.03436141
v -0.02194482 -0.01383395 -0.03434652
v -0.02209110 -0.01383395 -0.03435198
v -0.02514451 -0.00905404 -0.03434752
v -0.02514715 -0.00904748 -0.03434752
v -0.02266565 -0.01383395 -0.03433858
v -0.02391610 -0.00904748 -0.03434057
v -0.02127246 -0.01383395 -0.03427455
v -0.02129008 -0.01383395 -0.03427654
v -0.02198360 -0.01331482 -0.03432866
v -0.02511278 -0.00976245 -0.03429987
v -0.02561684 -0.00904748 -0.03423137
v -0.02279784 -0.01383395 -0.03431476
v -0.02321024 -0.00904748 -0.03420506
v -0.02054457 -0.01383395 -0.03414649
v -0.02360327 -0.01316817 -0.03423087
v -0.02366759 -0.01383395 -0.03414600
v -0.02374338 -0.01383395 -0.03412366
v -0.02582040 -0.00976104 -0.03405268
v -0.02593936 -0.00904748 -0.03411870
v -0.02325607 -0.01383395 -0.03422591
v -0.02289830 -0.00904748 -0.03409090
v -0.01991010 -0.01383395 -0.03392909
v -0.02432057 -0.01383395 -0.03388690
v -0.02631300 -0.00920443 -0.03394845
v -0.02625660 -0.00904748 -0.03399510
v -0.02260309 -0.00904748 -0.03396532
v -0.01979378 -0.01383395 -0.03387151
v -0.02437873 -0.01383395 -0.03385613
v -0.02444747 -0.01383395 -0.03381096
v -0.02615966 -0.01040527 -0.03369233
v -0.02678885 -0.00904748 -0.03357420
v -0.02647073 -0.00904748 -0.03385861
v -0.02636763 -0.00904748 -0.03394894
v -0.02234401 -0.00904748 -0.03374990
v -0.01935141 -0.01383395 -0.03362383
v -0.01944923 -0.01383395 -0.03368588
v -0.02492861 -0.01383395 -0.03343770
v -0.02516213 -0.01318410 -0.03350123
v -0.02612001 -0.01142619 -0.03333247
v -0.02677387 -0.00973809 -0.03335431
v -0.02692896 -0.00904748 -0.03344564
v -0.02222681 -0.00904748 -0.03365113
v -0.01905709 -0.01383395 -0.03332354
v -0.02200210 -0.00904748 -0.03343323
v -0.02502642 -0.01383395 -0.03333049
v -0.02573051 -0.01281818 -0.03305799
v -0.02658265 -0.01115491 -0.03265991
v -0.02696862 -0.00984585 -0.03285746
v -0.02718628 -0.00904748 -0.03297659
v -0.02716865 -0.00904748 -0.03301332
v -0.01881828 -0.01383395 -0.03289469
v -0.02180030 -0.00904748 -0.03314584
v -0.02179590 -0.00904748 -0.03313939
v -0.02528902 -0.01383395 -0.03288426
v -0.02605392 -0.01259516 -0.03241819
v -0.02632181 -0.01192986 -0.03253632
v -0.02533837 -0.01383395 -0.03273685
v -0.02720478 -0.00982851 -0.03223354
v -0.02743830 -0.00904748 -0.03230700
v -0.01870636 -0.01383395 -0.03252639
v -0.02156590 -0.00904748 -0.03256412
v -0.02547408 -0.01383395 -0.03219582
v -0.02571729 -0.01332044 -0.03226332
v -0.02548818 -0.01383395 -0.03206677
v -0.02614028 -0.01257408 -0.03168160
v -0.02674038 -0.01118630 -0.03194615
v -0.02732463 -0.00969404 -0.03152375
v -0.02752995 -0.00904748 -0.03165033
v -0.02750263 -0.00904748 -0.03190496
v -0.01867112 -0.01383395 -0.03205436
v -0.02156414 -0.00904748 -0.03255667
v -0.02141521 -0.00904748 -0.03174215
v -0.02105744 -0.00904748 -0.02931547
v -0.02551638 -0.01383395 -0.03144384
v -0.02606714 -0.01274322 -0.03104031
v -0.02670073 -0.01134701 -0.03132174
v -0.02700475 -0.01055379 -0.03114553
v -0.02720831 -0.00988848 -0.03061642
v -0.02748325 -0.00904748 -0.03076830
v -0.02750968 -0.00904748 -0.03120658
v -0.01866495 -0.01383395 -0.03195509
v -0.02097461 -0.00920256 -0.02931547
v -0.02731846 -0.00904748 -0.02931547
v -0.02551814 -0.01383395 -0.03134060
v -0.02577369 -0.01330686 -0.03075391
v -0.02603718 -0.01264998 -0.03010319
v -0.02643196 -0.01193220 -0.03086658
v -0.02668927 -0.01122613 -0.03039058
v -0.02687962 -0.01057488 -0.02974631
v -0.02742773 -0.00904748 -0.03009971
v -0.01852836 -0.01383395 -0.02931547
v -0.02741451 -0.00904748 -0.02998952
v -0.02713957 -0.00963782 -0.02931547
v -0.02551462 -0.01383395 -0.03120956
v -0.02562565 -0.01330030 -0.02931547
v -0.02549964 -0.01383395 -0.03068640
v -0.02596315 -0.01261906 -0.02931547
v -0.02612265 -0.01227375 -0.02931547
v -0.02638085 -0.01173963 -0.02942616
v -0.02671218 -0.01087942 -0.02931547
v -0.02639759 -0.01166935 -0.02931547
v -0.02695099 -0.01020521 -0.02931547
v -0.02534102 -0.01383395 -0.02931547
v -0.02548642 -0.01383395 -0.03056430
v -0.02537891 -0.01383395 -0.02959095
v -0.02632709 -0.01182772 -0.02931547
f 1 2 7
f 1 7 14
f 1 14 22
f 1 22 28
f 1 28 36
f 1 36 35
f 1 35 34
f 1 34 44
f 1 44 53
f 1 53 52
f 1 52 62
f 1 62 72
f 1 72 71
f 1 71 83
f 1 83 82
f 1 82 93
f 1 93 95
f 1 95 86
f 1 86 76
f 1 76 75
f 1 75 74
f 1 74 64
f 1 64 56
f 1 56 55
f 1 55 47
f 1 47 45
f 1 45 37
f 1 37 29
f 1 29 24
f 1 24 16
f 1 16 9
f 1 9 3
f 1 3 4
f 1 4 5
f 1 5 2
f 2 6 7
f 2 5 8
f 2 8 6
f 3 9 10
f 3 10 11
f 3 11 12
f 3 12 4
f 4 12 11
f 4 11 10
f 4 10 17
f 4 17 25
f 4 25 30
f 4 30 39
f 4 39 38
f 4 38 46
f 4 46 54
f 4 54 63
f 4 63 73
f 4 73 84
f 4 84 94
f 4 94 106
f 4 106 108
f 4 108 107
f 4 107 99
f 4 99 97
f 4 97 87
f 4 87 77
f 4 77 67
f 4 67 65
f 4 65 60
f 4 60 57
f 4 57 48
f 4 48 40
f 4 40 32
f 4 32 31
f 4 31 26
f 4 26 20
f 4 20 19
f 4 19 23
f 4 23 15
f 4 15 8
f 4 8 5
f 6 13 7
f 6 8 13
f 7 13 14
f 8 15 13
f 9 16 17
f 9 17 10
f 13 15 18
f 13 18 19
f 13 19 20
f 13 20 21
f 13 21 22
f 13 22 14
f 15 23 18
f 16 24 25
f 16 25 17
f 18 23 19
f 20 26 21
f 21 27 22
f 21 26 27
f 22 27 28
f 24 29 25
f 25 29 30
f 26 31 27
f 27 31 32
f 27 32 33
f 27 33 34
f 27 34 35
f 27 35 36
f 27 36 28
f 29 37 38
f 29 38 39
f 29 39 30
f 32 40 41
f 32 41 33
f 33 42 43
f 33 43 44
f 33 44 34
f 33 41 42
f 37 45 38
f 38 45 47
f 38 47 46
f 40 48 42
f 40 42 41
f 42 48 49
f 42 49 43
f 43 50 51
f 43 51 52
f 43 52 53
f 43 53 44
f 43 49 50
f 46 47 55
f 46 55 56
f 46 56 54
f 48 57 49
f 49 58 59
f 49 59 50
f 49 57 60
f 49 60 58
f 50 61 51
f 50 59 61
f 51 61 62
f 51 62 52
f 54 56 64
f 54 64 63
f 58 60 65
f 58 65 66
f 58 66 67
f 58 67 68
f 58 68 69
f 58 69 59
f 59 69 61
f 61 70 71
f 61 71 72
f 61 72 62
f 61 69 70
f 63 64 74
f 63 74 75
f 63 75 76
f 63 76 73
f 65 67 66
f 67 77 68
f 68 78 79
f 68 79 69
f 68 77 78
f 69 79 70
f 70 79 80
f 70 80 81
f 70 81 82
f 70 82 83
f 70 83 71
f 73 76 85
f 73 85 84
f 76 86 96
f 76 96 105
f 76 105 103
f 76 103 104
f 76 104 109
f 76 109 101
f 76 101 100
f 76 100 98
f 76 98 106
f 76 106 94
f 76 94 85
f 77 87 78
f 78 88 89
f 78 89 90
f 78 90 79
f 78 87 88
f 79 91 80
f 79 90 91
f 80 91 92
f 80 92 81
f 81 93 82
f 81 92 93
f 84 85 94
f 86 95 96
f 87 97 88
f 88 98 89
f 88 97 99
f 88 99 98
f 89 98 100
f 89 100 101
f 89 101 102
f 89 102 90
f 90 102 91
f 91 103 92
f 91 102 104
f 91 104 103
f 92 105 96
f 92 96 93
f 92 103 105
f 93 96 95
f 98 99 107
f 98 107 108
f 98 108 106
f 101 109 102
f 102 109 104

