# https://github.com/mikedh/trimesh
v 0.01956687 0.02315757 -0.01068300
v 0.01866304 0.02315757 -0.01075264
v 0.01956687 0.01716264 -0.01214855
v 0.01956687 0.02315757 -0.02555050
v 0.01718988 0.02315757 -0.01087225
v 0.01218590 0.01716264 -0.01290404
v 0.01956687 0.01716264 -0.02615005
v 0.01956687 0.02121208 -0.02615005
v 0.01896215 0.02173792 -0.02615005
v 0.01218590 0.02315757 -0.02555050
v 0.01564664 0.02315757 -0.01106756
v 0.01218590 0.01716264 -0.02615005
v 0.01393289 0.02315757 -0.01133402
v 0.01218590 0.02315757 -0.01161562
v 0.01218590 0.02173792 -0.02615005
f 1 2 3
f 1 3 7
f 1 7 8
f 1 8 4
f 1 4 10
f 1 10 14
f 1 14 13
f 1 13 11
f 1 11 5
f 1 5 2
f 2 5 3
f 3 5 6
f 3 6 12
f 3 12 7
f 4 8 9
f 4 9 15
f 4 15 10
f 5 11 6
f 6 11 13
f 6 13 14
f 6 14 10
f 6 10 15
f 6 15 12
f 7 12 15
f 7 15 9
f 7 9 8

