# https://github.com/mikedh/trimesh
v -0.00818042 0.03695779 -0.00774726
v -0.00016746 0.03791150 -0.00774726
v -0.00016746 0.04158570 -0.00505902
v -0.00818042 0.04086401 -0.00505902
v -0.00818042 0.05394932 -0.00774726
v -0.00016746 0.05458513 -0.00774726
v -0.00016746 0.05562290 -0.00505902
v -0.00818042 0.05497430 -0.00505902
v -0.00818042 0.05416857 -0.00724703
v -0.00744234 0.05417040 -0.00751674
v -0.00793962 0.05398769 -0.00774726
v -0.00112124 0.05458148 -0.00774726
v -0.00118320 0.05461071 -0.00768121
v -0.00016746 0.05482082 -0.00721413
v -0.00016746 0.05541461 -0.00566766
v -0.00050631 0.05535615 -0.00582607
v -0.00086319 0.05561376 -0.00505902
v -0.00704154 0.05514787 -0.00505902
v -0.00818042 0.05468014 -0.00593317
v -0.00818042 0.05454494 -0.00631551
v -0.00803375 0.05459610 -0.00624736
v -0.00617248 0.05457600 -0.00692152
v -0.00578893 0.05425992 -0.00774726
v -0.00733410 0.05407721 -0.00774726
v -0.00132439 0.05457600 -0.00774726
v -0.00304369 0.05481717 -0.00700757
v -0.00177539 0.05510402 -0.00641866
v -0.00269936 0.05451753 -0.00774726
v -0.00016746 0.05490304 -0.00700546
v -0.00016746 0.05507844 -0.00655418
v -0.00236758 0.05554251 -0.00514980
v -0.00217384 0.05557905 -0.00505902
v -0.00549558 0.05534884 -0.00505902
v -0.00549479 0.05534884 -0.00506007
v -0.00676388 0.05498891 -0.00565319
v -0.00818042 0.05459062 -0.00619341
v -0.00431277 0.05447369 -0.00760069
v -0.00462651 0.05437868 -0.00774726
v -0.00490418 0.05494506 -0.00633235
v -0.00363588 0.05526845 -0.00573950
v -0.00424297 0.05441156 -0.00774726
v -0.00395354 0.05548404 -0.00505902
v -0.00240993 0.05556991 -0.00505902
v -0.00233385 0.05557357 -0.00505902
f 1 2 3
f 1 3 4
f 1 4 8
f 1 8 19
f 1 19 36
f 1 36 20
f 1 20 9
f 1 9 5
f 1 5 11
f 1 11 24
f 1 24 23
f 1 23 38
f 1 38 41
f 1 41 28
f 1 28 25
f 1 25 12
f 1 12 6
f 1 6 2
f 2 6 14
f 2 14 29
f 2 29 30
f 2 30 15
f 2 15 7
f 2 7 3
f 3 7 17
f 3 17 32
f 3 32 44
f 3 44 43
f 3 43 42
f 3 42 33
f 3 33 18
f 3 18 8
f 3 8 4
f 5 9 10
f 5 10 11
f 6 12 13
f 6 13 14
f 7 15 16
f 7 16 17
f 8 18 19
f 9 20 21
f 9 21 10
f 10 21 22
f 10 22 23
f 10 23 24
f 10 24 11
f 12 25 13
f 13 26 27
f 13 27 14
f 13 25 28
f 13 28 26
f 14 27 29
f 15 30 16
f 16 30 29
f 16 29 27
f 16 27 31
f 16 31 17
f 17 31 32
f 18 33 34
f 18 34 35
f 18 35 21
f 18 21 19
f 19 21 36
f 20 36 21
f 21 35 22
f 22 37 38
f 22 38 23
f 22 35 39
f 22 39 37
f 26 28 37
f 26 37 39
f 26 39 40
f 26 40 27
f 27 40 31
f 28 41 37
f 31 42 43
f 31 43 44
f 31 44 32
f 31 40 42
f 33 42 34
f 34 40 39
f 34 39 35
f 34 42 40
f 37 41 38

