# https://github.com/mikedh/trimesh
v -0.02322624 -0.01682481 -0.02768284
v -0.01524143 -0.01682481 -0.02768284
v -0.02477430 -0.01682481 -0.02545629
v -0.02326170 -0.01677959 -0.02768284
v -0.01524143 -0.01426836 -0.02768284
v -0.01524143 -0.01682481 -0.01221646
v -0.02477430 -0.01682481 -0.01073321
v -0.02477430 -0.01446376 -0.02767620
v -0.02416497 -0.01546664 -0.02768284
v -0.02412764 -0.01552478 -0.02768284
v -0.01929402 -0.00032655 -0.02768284
v -0.01524143 -0.00032655 -0.02728796
v -0.01524143 -0.00032655 -0.01323019
v -0.02477430 -0.00032655 -0.01193275
v -0.02477430 -0.01433619 -0.02768284
v -0.02429747 -0.01524217 -0.02768284
v -0.02477430 -0.00032655 -0.02768284
f 1 2 6
f 1 6 7
f 1 7 3
f 1 3 4
f 1 4 10
f 1 10 9
f 1 9 16
f 1 16 15
f 1 15 17
f 1 17 11
f 1 11 5
f 1 5 2
f 2 5 12
f 2 12 13
f 2 13 6
f 3 7 14
f 3 14 17
f 3 17 15
f 3 15 8
f 3 8 9
f 3 9 10
f 3 10 4
f 5 11 12
f 6 13 7
f 7 13 14
f 8 15 16
f 8 16 9
f 11 17 14
f 11 14 13
f 11 13 12

