# https://github.com/mikedh/trimesh
v -0.04178526 0.00698790 -0.00463922
v -0.04635129 0.00698790 0.00133465
v -0.04232865 -0.00032565 -0.00463922
v -0.05555320 0.00698790 -0.00463922
v -0.04690399 -0.00032565 0.00133465
v -0.05481108 0.00698790 0.00133465
v -0.05598325 -0.00032565 -0.00463922
v -0.05555475 0.00698432 -0.00463922
v -0.05582644 0.00698504 -0.00381530
v -0.05582334 0.00698790 -0.00381997
v -0.05764447 -0.00032565 0.00133465
v -0.05714921 0.00698790 0.00133172
v -0.05714921 0.00698361 0.00133465
v -0.05610590 -0.00032565 -0.00428836
v -0.05598636 -0.00016529 -0.00463922
v -0.05562151 0.00641519 -0.00463922
v -0.05597083 0.00558404 -0.00388371
v -0.05624253 0.00698790 -0.00246977
v -0.05764602 -0.00001567 0.00133465
v -0.05743798 -0.00032565 0.00040839
v -0.05695204 0.00698790 0.00029027
v -0.05727807 0.00590333 0.00133465
v -0.05620837 -0.00032565 -0.00399423
v -0.05598791 -0.00001567 -0.00463922
v -0.05621148 -0.00001567 -0.00399540
v -0.05571777 0.00558404 -0.00463922
v -0.05577211 0.00495262 -0.00463922
v -0.05607485 0.00418375 -0.00393225
v -0.05638226 0.00558332 -0.00253176
v -0.05624408 0.00698361 -0.00246626
v -0.05662911 0.00698218 -0.00110437
v -0.05662756 0.00698790 -0.00110378
v -0.05760410 0.00138461 0.00133465
v -0.05736967 -0.00001567 0.00009789
v -0.05736812 -0.00032565 0.00009847
v -0.05708400 0.00558261 0.00022770
v -0.05731068 0.00558404 0.00133465
v -0.05663221 -0.00032565 -0.00264754
v -0.05598170 0.00066442 -0.00463922
v -0.05663532 -0.00001567 -0.00264871
v -0.05619284 0.00138461 -0.00398780
v -0.05597083 0.00138461 -0.00463922
v -0.05583731 0.00418375 -0.00463922
v -0.05588078 0.00346142 -0.00463922
v -0.05592115 0.00278490 -0.00463922
v -0.05614627 0.00278490 -0.00396499
v -0.05647851 0.00418375 -0.00257620
v -0.05675952 0.00558475 -0.00116167
v -0.05753579 0.00278418 0.00133465
v -0.05726876 0.00278490 0.00014642
v -0.05732931 0.00138461 0.00011543
v -0.05702190 -0.00001496 -0.00128330
v -0.05702035 -0.00032565 -0.00128389
v -0.05718803 0.00418375 0.00018268
v -0.05741780 0.00444147 0.00133465
v -0.05671916 -0.00032565 -0.00234639
v -0.05660427 0.00138461 -0.00263467
v -0.05594754 0.00207903 -0.00463922
v -0.05654838 0.00278490 -0.00260778
v -0.05692254 0.00278490 -0.00123769
v -0.05685112 0.00418447 -0.00120378
v -0.05752182 0.00299823 0.00133465
v -0.05697998 0.00138461 -0.00126518
v -0.05743798 0.00418375 0.00133465
f 1 2 3
f 1 3 7
f 1 7 15
f 1 15 24
f 1 24 39
f 1 39 42
f 1 42 58
f 1 58 45
f 1 45 44
f 1 44 43
f 1 43 27
f 1 27 26
f 1 26 16
f 1 16 8
f 1 8 4
f 1 4 10
f 1 10 18
f 1 18 32
f 1 32 21
f 1 21 12
f 1 12 6
f 1 6 2
f 2 5 3
f 2 6 13
f 2 13 22
f 2 22 37
f 2 37 55
f 2 55 64
f 2 64 62
f 2 62 49
f 2 49 33
f 2 33 19
f 2 19 11
f 2 11 5
f 3 5 11
f 3 11 20
f 3 20 35
f 3 35 53
f 3 53 56
f 3 56 38
f 3 38 23
f 3 23 14
f 3 14 7
f 4 8 9
f 4 9 10
f 6 12 13
f 7 14 15
f 8 16 17
f 8 17 9
f 9 17 18
f 9 18 10
f 11 19 20
f 12 21 22
f 12 22 13
f 14 23 15
f 15 23 25
f 15 25 24
f 16 26 17
f 17 26 27
f 17 27 28
f 17 28 29
f 17 29 30
f 17 30 18
f 18 30 31
f 18 31 32
f 19 33 34
f 19 34 20
f 20 34 35
f 21 32 31
f 21 31 36
f 21 36 22
f 22 36 37
f 23 38 40
f 23 40 25
f 24 25 39
f 25 40 41
f 25 41 42
f 25 42 39
f 27 43 28
f 28 43 44
f 28 44 45
f 28 45 46
f 28 46 47
f 28 47 29
f 29 47 48
f 29 48 31
f 29 31 30
f 31 48 36
f 33 49 50
f 33 50 51
f 33 51 34
f 34 51 52
f 34 52 53
f 34 53 35
f 36 54 55
f 36 55 37
f 36 48 54
f 38 56 40
f 40 57 41
f 40 56 53
f 40 53 52
f 40 52 57
f 41 57 46
f 41 46 45
f 41 45 58
f 41 58 42
f 46 57 59
f 46 59 47
f 47 59 60
f 47 60 61
f 47 61 48
f 48 61 54
f 49 62 54
f 49 54 50
f 50 54 61
f 50 61 60
f 50 60 51
f 51 60 63
f 51 63 52
f 52 63 57
f 54 62 64
f 54 64 55
f 57 63 59
f 59 63 60

