# https://github.com/mikedh/trimesh
v -0.05886789 -0.00032670 0.01424884
v -0.05885968 -0.00032670 0.01329948
v -0.05884326 -0.00141590 0.01331633
v -0.05886071 -0.00075214 0.01424884
v -0.05124235 -0.00032670 0.01424884
v -0.05881453 -0.00141694 0.01179021
v -0.05882376 -0.00032670 0.01177984
v -0.05884840 -0.00141694 0.01424884
v -0.05876321 -0.00281660 0.01180900
v -0.05878784 -0.00281660 0.01333641
v -0.05879502 -0.00281660 0.01424884
v -0.05881658 -0.00225214 0.01424884
v -0.04958588 -0.00032670 0.00762920
v -0.05008262 -0.01100440 0.01424884
v -0.04838303 -0.01100440 0.00762920
v -0.05875192 -0.00141590 0.01026086
v -0.05871189 -0.00281555 0.01027965
v -0.05877450 -0.00032670 0.01059913
v -0.05862158 -0.00421520 0.01032048
v -0.05867289 -0.00421625 0.01185048
v -0.05869239 -0.00421520 0.01337789
v -0.05874166 -0.00362252 0.01424884
v -0.05856923 -0.00032670 0.00762920
v -0.05778205 -0.01100440 0.01424884
v -0.05751007 -0.01100440 0.00762920
v -0.05876013 -0.00032670 0.01026086
v -0.05874166 -0.00032670 0.00992907
v -0.05866571 -0.00141590 0.00876196
v -0.05862671 -0.00281660 0.00878075
v -0.05854152 -0.00421625 0.00881769
v -0.05848918 -0.00561590 0.01038982
v -0.05853434 -0.00561799 0.01192047
v -0.05855897 -0.00561590 0.01344269
v -0.05870060 -0.00421625 0.01424884
v -0.05867084 -0.00032670 0.00876326
v -0.05856000 -0.00141694 0.00762920
v -0.05778102 -0.01100440 0.01380688
v -0.05799244 -0.00981590 0.01424884
v -0.05799244 -0.00981590 0.01371292
v -0.05752445 -0.01100440 0.00775816
v -0.05771431 -0.00985771 0.00762920
v -0.05855076 -0.00173889 0.00762920
v -0.05851279 -0.00281555 0.00762920
v -0.05844813 -0.00393820 0.00762920
v -0.05840708 -0.00561485 0.00887861
v -0.05842966 -0.00421625 0.00762920
v -0.05829829 -0.00561694 0.00762920
v -0.05825005 -0.00701555 0.00895831
v -0.05832600 -0.00701660 0.01047147
v -0.05836500 -0.00701451 0.01198916
v -0.05839373 -0.00701451 0.01351851
v -0.05856513 -0.00561694 0.01424884
v -0.05777281 -0.01100440 0.01251082
v -0.05812381 -0.00895980 0.01424884
v -0.05820694 -0.00841520 0.01360988
v -0.05797602 -0.00981485 0.01217255
v -0.05777076 -0.01100440 0.01227494
v -0.05766915 -0.01100440 0.00922206
v -0.05772457 -0.00982008 0.00766549
v -0.05771534 -0.00985144 0.00762920
v -0.05815666 -0.00685144 0.00762920
v -0.05813716 -0.00701346 0.00762920
v -0.05795652 -0.00834203 0.00762920
v -0.05806634 -0.00841416 0.00903932
v -0.05815255 -0.00841625 0.01054729
v -0.05818642 -0.00841520 0.01207535
v -0.05839579 -0.00701451 0.01424884
v -0.05820592 -0.00841520 0.01424884
v -0.05829007 -0.00780161 0.01424884
v -0.05774921 -0.01100440 0.01072809
v -0.05794934 -0.00981381 0.01063672
v -0.05786313 -0.00981381 0.00913264
v -0.05793600 -0.00848001 0.00762920
v -0.05779642 -0.00934970 0.00762920
v -0.05794626 -0.00841520 0.00762920
f 1 2 3
f 1 3 4
f 1 4 8
f 1 8 12
f 1 12 11
f 1 11 22
f 1 22 34
f 1 34 52
f 1 52 67
f 1 67 69
f 1 69 68
f 1 68 54
f 1 54 38
f 1 38 24
f 1 24 14
f 1 14 5
f 1 5 13
f 1 13 23
f 1 23 35
f 1 35 27
f 1 27 26
f 1 26 18
f 1 18 7
f 1 7 2
f 2 6 3
f 2 7 6
f 3 8 4
f 3 6 9
f 3 9 10
f 3 10 11
f 3 11 12
f 3 12 8
f 5 14 15
f 5 15 13
f 6 7 16
f 6 16 17
f 6 17 9
f 7 18 16
f 9 17 19
f 9 19 20
f 9 20 10
f 10 20 21
f 10 21 22
f 10 22 11
f 13 15 25
f 13 25 41
f 13 41 60
f 13 60 74
f 13 74 73
f 13 73 75
f 13 75 63
f 13 63 62
f 13 62 61
f 13 61 47
f 13 47 46
f 13 46 44
f 13 44 43
f 13 43 42
f 13 42 36
f 13 36 23
f 14 24 37
f 14 37 53
f 14 53 57
f 14 57 70
f 14 70 58
f 14 58 40
f 14 40 25
f 14 25 15
f 16 18 26
f 16 26 27
f 16 27 28
f 16 28 29
f 16 29 17
f 17 29 30
f 17 30 19
f 19 30 31
f 19 31 20
f 20 31 32
f 20 32 33
f 20 33 21
f 21 33 34
f 21 34 22
f 23 36 28
f 23 28 35
f 24 38 39
f 24 39 37
f 25 40 41
f 27 35 28
f 28 36 42
f 28 42 29
f 29 43 44
f 29 44 30
f 29 42 43
f 30 45 31
f 30 44 46
f 30 46 47
f 30 47 45
f 31 45 48
f 31 48 49
f 31 49 32
f 32 49 50
f 32 50 51
f 32 51 33
f 33 51 52
f 33 52 34
f 37 39 53
f 38 54 39
f 39 54 55
f 39 55 56
f 39 56 57
f 39 57 53
f 40 58 59
f 40 59 41
f 41 59 60
f 45 47 61
f 45 61 48
f 48 61 62
f 48 62 63
f 48 63 64
f 48 64 65
f 48 65 49
f 49 65 50
f 50 65 66
f 50 66 51
f 51 67 52
f 51 66 55
f 51 55 67
f 54 68 55
f 55 68 69
f 55 69 67
f 55 66 56
f 56 70 57
f 56 66 71
f 56 71 70
f 58 70 71
f 58 71 72
f 58 72 59
f 59 72 73
f 59 73 74
f 59 74 60
f 63 75 64
f 64 75 72
f 64 72 65
f 65 72 71
f 65 71 66
f 72 75 73

