# https://github.com/mikedh/trimesh
v -0.02756710 0.03764161 0.00133465
v -0.01995650 0.04223079 0.00133465
v -0.01995650 0.04502847 0.00720100
v -0.02756710 0.04079626 0.00720100
v -0.02756710 0.05027182 0.00133465
v -0.01995650 0.05370043 0.00133465
v -0.01995650 0.05460365 0.00720100
v -0.02756710 0.05122652 0.00720100
v -0.02756710 0.05034654 0.00163784
v -0.02701731 0.05056902 0.00133465
v -0.02083631 0.05336504 0.00133465
v -0.02097040 0.05337832 0.00162463
v -0.01995650 0.05372533 0.00144892
v -0.01995650 0.05455716 0.00673070
v -0.02048170 0.05441603 0.00720100
v -0.02666197 0.05169308 0.00720100
v -0.02756710 0.05113520 0.00627131
v -0.02756710 0.05053582 0.00252388
v -0.02723261 0.05056570 0.00179403
v -0.02597212 0.05108373 0.00133465
v -0.02159096 0.05305124 0.00133465
v -0.02155669 0.05338828 0.00289598
v -0.01995650 0.05386646 0.00209723
v -0.02239404 0.05270920 0.00133465
v -0.02284027 0.05271750 0.00229763
v -0.01995650 0.05447913 0.00606919
v -0.02020979 0.05445422 0.00661298
v -0.02148145 0.05389801 0.00602095
v -0.02182414 0.05389635 0.00720100
v -0.02631779 0.05186575 0.00720100
v -0.02646827 0.05175119 0.00678410
v -0.02756710 0.05107875 0.00583088
v -0.02756710 0.05066200 0.00318195
v -0.02654873 0.05126803 0.00365684
v -0.02595648 0.05130954 0.00238836
v -0.02547299 0.05132780 0.00133465
v -0.02028801 0.05399431 0.00348744
v -0.01995650 0.05399099 0.00276563
v -0.01995650 0.05390631 0.00230797
v -0.02215416 0.05337002 0.00416216
v -0.02392793 0.05202514 0.00133465
v -0.02410374 0.05202680 0.00170790
v -0.02470493 0.05201684 0.00297293
v -0.02340943 0.05271086 0.00357587
v -0.01995650 0.05436622 0.00518659
v -0.02088846 0.05396442 0.00475190
v -0.02202900 0.05381665 0.00720100
v -0.02275013 0.05331191 0.00542892
v -0.02557356 0.05223268 0.00720100
v -0.02460362 0.05257140 0.00610766
v -0.02587751 0.05188235 0.00551505
v -0.02714247 0.05117505 0.00492417
v -0.02756710 0.05092102 0.00472663
v -0.02529122 0.05197699 0.00424485
v -0.02490384 0.05158848 0.00133465
v -0.01995650 0.05414042 0.00364191
v -0.02400690 0.05266604 0.00484148
v -0.01995650 0.05425664 0.00441195
v -0.02226218 0.05372035 0.00720100
v -0.02333642 0.05321229 0.00669912
v -0.02511541 0.05245351 0.00720100
v -0.02357258 0.05315916 0.00720100
v -0.02315540 0.05334013 0.00720100
f 1 2 3
f 1 3 4
f 1 4 8
f 1 8 17
f 1 17 32
f 1 32 53
f 1 53 33
f 1 33 18
f 1 18 9
f 1 9 5
f 1 5 10
f 1 10 20
f 1 20 36
f 1 36 55
f 1 55 41
f 1 41 24
f 1 24 21
f 1 21 11
f 1 11 6
f 1 6 2
f 2 6 13
f 2 13 23
f 2 23 39
f 2 39 38
f 2 38 56
f 2 56 58
f 2 58 45
f 2 45 26
f 2 26 14
f 2 14 7
f 2 7 3
f 3 7 15
f 3 15 29
f 3 29 47
f 3 47 59
f 3 59 63
f 3 63 62
f 3 62 61
f 3 61 49
f 3 49 30
f 3 30 16
f 3 16 8
f 3 8 4
f 5 9 10
f 6 11 12
f 6 12 13
f 7 14 15
f 8 16 17
f 9 18 19
f 9 19 10
f 10 19 20
f 11 21 12
f 12 22 23
f 12 23 13
f 12 21 24
f 12 24 25
f 12 25 22
f 14 26 27
f 14 27 15
f 15 27 28
f 15 28 29
f 16 30 31
f 16 31 17
f 17 31 32
f 18 33 19
f 19 33 34
f 19 34 35
f 19 35 36
f 19 36 20
f 22 37 38
f 22 38 39
f 22 39 23
f 22 25 40
f 22 40 37
f 24 41 25
f 25 41 42
f 25 42 43
f 25 43 44
f 25 44 40
f 26 45 46
f 26 46 27
f 27 46 28
f 28 47 29
f 28 46 48
f 28 48 47
f 30 49 31
f 31 49 50
f 31 50 51
f 31 51 52
f 31 52 32
f 32 52 53
f 33 53 52
f 33 52 34
f 34 52 54
f 34 54 43
f 34 43 35
f 35 43 36
f 36 43 55
f 37 56 38
f 37 40 46
f 37 46 56
f 40 44 57
f 40 57 48
f 40 48 46
f 41 55 42
f 42 55 43
f 43 54 57
f 43 57 44
f 45 58 46
f 46 58 56
f 47 48 59
f 48 57 50
f 48 50 60
f 48 60 59
f 49 61 50
f 50 57 54
f 50 54 51
f 50 61 62
f 50 62 60
f 51 54 52
f 59 60 63
f 60 62 63

