# https://github.com/mikedh/trimesh
v -0.04582374 -0.01100440 0.00176783
v -0.04842624 -0.01100440 0.00776116
v -0.04223651 -0.02084423 0.00176783
v -0.05665576 -0.01100440 0.00176783
v -0.04504404 -0.02084423 0.00776116
v -0.05752376 -0.01100440 0.00776116
v -0.05384973 -0.02084423 0.00176783
v -0.05661536 -0.01121729 0.00176783
v -0.05669766 -0.01100440 0.00195732
v -0.05472671 -0.02084423 0.00776116
v -0.05752376 -0.01100440 0.00775706
v -0.05751628 -0.01105064 0.00776116
v -0.05413557 -0.02084423 0.00314883
v -0.05429720 -0.01961895 0.00176783
v -0.05656896 -0.01144365 0.00176783
v -0.05640135 -0.01261885 0.00209753
v -0.05666025 -0.01121729 0.00197492
v -0.05696405 -0.01100440 0.00337704
v -0.05474766 -0.02079029 0.00776116
v -0.05472222 -0.02084423 0.00771364
v -0.05735764 -0.01100440 0.00628395
v -0.05748635 -0.01121825 0.00776116
v -0.05732173 -0.01121825 0.00630214
v -0.05416251 -0.02084423 0.00332190
v -0.05454413 -0.01961509 0.00295993
v -0.05477909 -0.01821546 0.00176783
v -0.05632802 -0.01261885 0.00176783
v -0.05665726 -0.01261403 0.00351608
v -0.05692664 -0.01121632 0.00339464
v -0.05612299 -0.01401655 0.00222484
v -0.05718105 -0.01100440 0.00481612
v -0.05470127 -0.02084423 0.00752885
v -0.05518465 -0.01961413 0.00776116
v -0.05513377 -0.01961702 0.00732058
v -0.05733220 -0.01100440 0.00606161
v -0.05748335 -0.01123366 0.00776116
v -0.05714364 -0.01121440 0.00483372
v -0.05687875 -0.01261981 0.00496514
v -0.05705385 -0.01261885 0.00642827
v -0.05434509 -0.02084423 0.00459613
v -0.05476413 -0.01961509 0.00440194
v -0.05520261 -0.01821161 0.00419426
v -0.05497963 -0.01821353 0.00275636
v -0.05540166 -0.01681004 0.00255630
v -0.05493922 -0.01772708 0.00176783
v -0.05601973 -0.01401655 0.00176783
v -0.05636843 -0.01401078 0.00364691
v -0.05588803 -0.01453094 0.00176783
v -0.05578327 -0.01540945 0.00237561
v -0.05454712 -0.02084423 0.00624582
v -0.05535975 -0.01912190 0.00776116
v -0.05560069 -0.01821064 0.00709648
v -0.05494820 -0.01962184 0.00586683
v -0.05436754 -0.02084423 0.00477212
v -0.05720051 -0.01261596 0.00776116
v -0.05675005 -0.01401367 0.00656203
v -0.05689372 -0.01401655 0.00776116
v -0.05694759 -0.01378248 0.00776116
v -0.05657345 -0.01401655 0.00510241
v -0.05540465 -0.01821642 0.00564977
v -0.05563212 -0.01681968 0.00400242
v -0.05523404 -0.01681390 0.00176783
v -0.05602422 -0.01541426 0.00381235
v -0.05565158 -0.01541330 0.00176783
v -0.05567702 -0.01821257 0.00776116
v -0.05589851 -0.01753828 0.00776116
v -0.05603469 -0.01681775 0.00690170
v -0.05682188 -0.01430457 0.00776116
v -0.05641482 -0.01541908 0.00672571
v -0.05654202 -0.01541137 0.00776116
v -0.05613646 -0.01681004 0.00776116
v -0.05641332 -0.01586411 0.00776116
f 1 2 3
f 1 3 7
f 1 7 14
f 1 14 26
f 1 26 45
f 1 45 62
f 1 62 64
f 1 64 48
f 1 48 46
f 1 46 27
f 1 27 15
f 1 15 8
f 1 8 4
f 1 4 9
f 1 9 18
f 1 18 31
f 1 31 35
f 1 35 21
f 1 21 11
f 1 11 6
f 1 6 2
f 2 5 3
f 2 6 12
f 2 12 22
f 2 22 36
f 2 36 55
f 2 55 58
f 2 58 57
f 2 57 68
f 2 68 70
f 2 70 72
f 2 72 71
f 2 71 66
f 2 66 65
f 2 65 51
f 2 51 33
f 2 33 19
f 2 19 10
f 2 10 5
f 3 5 10
f 3 10 20
f 3 20 32
f 3 32 50
f 3 50 54
f 3 54 40
f 3 40 24
f 3 24 13
f 3 13 7
f 4 8 9
f 6 11 12
f 7 13 14
f 8 15 16
f 8 16 17
f 8 17 9
f 9 17 18
f 10 19 20
f 11 21 12
f 12 21 23
f 12 23 22
f 13 24 25
f 13 25 14
f 14 25 26
f 15 27 16
f 16 28 29
f 16 29 17
f 16 27 30
f 16 30 28
f 17 29 18
f 18 29 31
f 19 32 20
f 19 33 34
f 19 34 32
f 21 35 23
f 22 23 36
f 23 35 31
f 23 31 37
f 23 37 38
f 23 38 39
f 23 39 36
f 24 40 41
f 24 41 25
f 25 41 42
f 25 42 43
f 25 43 26
f 26 43 44
f 26 44 45
f 27 46 30
f 28 30 47
f 28 47 38
f 28 38 29
f 29 38 37
f 29 37 31
f 30 46 48
f 30 48 49
f 30 49 47
f 32 34 50
f 33 51 34
f 34 51 52
f 34 52 53
f 34 53 54
f 34 54 50
f 36 39 55
f 38 56 57
f 38 57 58
f 38 58 39
f 38 47 59
f 38 59 56
f 39 58 55
f 40 54 41
f 41 53 52
f 41 52 60
f 41 60 42
f 41 54 53
f 42 60 61
f 42 61 43
f 43 61 44
f 44 62 45
f 44 61 63
f 44 63 49
f 44 49 62
f 47 49 63
f 47 63 59
f 48 64 49
f 49 64 62
f 51 65 52
f 52 65 66
f 52 66 67
f 52 67 60
f 56 68 57
f 56 59 68
f 59 63 69
f 59 69 70
f 59 70 68
f 60 67 61
f 61 67 63
f 63 67 69
f 66 71 67
f 67 71 72
f 67 72 69
f 69 72 70

