# https://github.com/mikedh/trimesh
v -0.03388258 -0.04393056 0.03478098
v -0.03929460 -0.03935616 0.03471996
v -0.03388258 -0.04429316 0.03477173
v -0.03388258 -0.04335178 0.03468482
v -0.04403609 -0.03362980 0.03464969
v -0.04410653 -0.03362980 0.03465154
v -0.04265562 -0.03633399 0.03467188
v -0.03837475 -0.04088468 0.03459791
v -0.03388258 -0.04444936 0.03472920
v -0.03735348 -0.04175772 0.03461086
v -0.03388258 -0.04306728 0.03462565
v -0.04351349 -0.03362980 0.03446292
v -0.04456011 -0.03362980 0.03462195
v -0.04484466 -0.03362980 0.03460161
v -0.04414315 -0.03498259 0.03453504
v -0.04248377 -0.03700899 0.03450730
v -0.03922416 -0.04075219 0.03442409
v -0.03388258 -0.04454559 0.03469962
v -0.03388258 -0.04258613 0.03439820
v -0.03388258 -0.04219703 0.03418000
v -0.04241052 -0.03362980 0.03386934
v -0.04510103 -0.03362980 0.03452395
v -0.04550954 -0.03362980 0.03438711
v -0.04550250 -0.03369534 0.03437416
v -0.04403187 -0.03558368 0.03435012
v -0.04319936 -0.03651111 0.03438711
v -0.04245560 -0.03771328 0.03426136
v -0.04081875 -0.03931432 0.03433163
v -0.03476298 -0.04414115 0.03457757
v -0.03936362 -0.04103809 0.03400433
v -0.03832967 -0.04204223 0.03397289
v -0.03764507 -0.04274652 0.03389523
v -0.03779157 -0.04205757 0.03437601
v -0.03388258 -0.04488867 0.03454614
v -0.03388258 -0.04218030 0.03416890
v -0.04209216 -0.03362980 0.03353834
v -0.04553771 -0.03362980 0.03437601
v -0.04556729 -0.03362980 0.03435937
v -0.04588142 -0.03362980 0.03410233
v -0.04532923 -0.03437035 0.03411898
v -0.04469393 -0.03501606 0.03424657
v -0.04391495 -0.03637444 0.03402282
v -0.04300779 -0.03759056 0.03385824
v -0.04222035 -0.03838131 0.03389708
v -0.03393188 -0.04489425 0.03452579
v -0.03388258 -0.04492493 0.03452949
v -0.03735348 -0.04245364 0.03436122
v -0.03618008 -0.04351356 0.03431684
v -0.03878326 -0.04217332 0.03339040
v -0.03681679 -0.04341733 0.03393591
v -0.03735348 -0.04298221 0.03391002
v -0.03735348 -0.04341733 0.03346252
v -0.03388258 -0.04186092 0.03377503
v -0.04173437 -0.03362980 0.03290037
v -0.04610399 -0.03362980 0.03391187
v -0.04605468 -0.03371626 0.03390077
v -0.04503905 -0.03530196 0.03369737
v -0.04376564 -0.03698249 0.03349211
v -0.04222881 -0.03878018 0.03343109
v -0.03444181 -0.04504905 0.03419849
v -0.03388258 -0.04529730 0.03430020
v -0.04023275 -0.04096138 0.03304091
v -0.03867057 -0.04247038 0.03302612
v -0.03614346 -0.04405747 0.03382866
v -0.03774790 -0.04335318 0.03286339
v -0.03735348 -0.04368371 0.03286894
v -0.03691962 -0.04404631 0.03287448
v -0.03557577 -0.04490122 0.03327206
v -0.03508275 -0.04488170 0.03380831
v -0.03388258 -0.04141324 0.03268402
v -0.04142729 -0.03362980 0.03206270
v -0.04612653 -0.03362980 0.03388228
v -0.04633360 -0.03386688 0.03333493
v -0.04512357 -0.03556415 0.03306865
v -0.04298525 -0.03811076 0.03315001
v -0.04174423 -0.03953189 0.03294660
v -0.03388258 -0.04550370 0.03417075
v -0.03980030 -0.04169636 0.03225316
v -0.03919036 -0.04218169 0.03251575
v -0.03805499 -0.04327927 0.03215886
v -0.03753943 -0.04380225 0.03183895
v -0.03735348 -0.04387617 0.03214776
v -0.03539829 -0.04525128 0.03280607
v -0.03735348 -0.04394590 0.03188148
v -0.03659141 -0.04453025 0.03205715
v -0.03616881 -0.04477431 0.03241774
v -0.03388258 -0.04597649 0.03352909
v -0.03388258 -0.04562922 0.03401173
v -0.03388258 -0.04633491 0.03289852
v -0.03388258 -0.04121381 0.03199243
v -0.04140897 -0.03362980 0.03200168
v -0.04644347 -0.03362980 0.03341259
v -0.04648573 -0.03362980 0.03334048
v -0.04656039 -0.03362980 0.03317960
v -0.04627725 -0.03427969 0.03263594
v -0.04560533 -0.03517784 0.03259341
v -0.04413611 -0.03697134 0.03266923
v -0.04285565 -0.03860864 0.03225316
v -0.04239784 -0.03899914 0.03259156
v -0.04154843 -0.03998235 0.03225686
v -0.04043701 -0.04119150 0.03179827
v -0.03970733 -0.04192926 0.03150425
v -0.03864099 -0.04294316 0.03124537
v -0.03658718 -0.04464740 0.03144508
v -0.03767184 -0.04380783 0.03106230
v -0.03506021 -0.04570872 0.03204975
v -0.03388258 -0.04658873 0.03205345
v -0.03436434 -0.04632375 0.03164848
v -0.03388258 -0.04108690 0.03134892
v -0.04121176 -0.03362980 0.03114366
v -0.04671957 -0.03362980 0.03272101
v -0.04692804 -0.03362980 0.03209414
v -0.04693931 -0.03362980 0.03205160
v -0.04588705 -0.03507185 0.03178163
v -0.04492918 -0.03620708 0.03207564
v -0.04366703 -0.03778162 0.03195545
v -0.04268380 -0.03891267 0.03173540
v -0.04181466 -0.03987078 0.03152829
v -0.04116246 -0.04050255 0.03164848
v -0.04086523 -0.04090002 0.03099018
v -0.04024966 -0.04164615 0.02970686
v -0.03973691 -0.04268376 0.02530953
v -0.03914810 -0.04337968 0.02404285
v -0.03788595 -0.04438242 0.02463643
v -0.03735348 -0.04494585 0.02348625
v -0.03661394 -0.04534053 0.02522817
v -0.03593357 -0.04530985 0.03019689
v -0.03557295 -0.04548558 0.03114366
v -0.03388258 -0.04663197 0.03187224
v -0.03388258 -0.04669054 0.03148946
v -0.03452633 -0.04629586 0.03093840
v -0.03388258 -0.04083866 0.02981226
v -0.04117936 -0.03362980 0.03097354
v -0.04708018 -0.03362980 0.03120838
v -0.04708581 -0.03362980 0.03117325
v -0.04605046 -0.03513461 0.03036516
v -0.04517287 -0.03618755 0.03080526
v -0.04371774 -0.03783043 0.03137111
v -0.04336699 -0.03830879 0.03080341
v -0.04210625 -0.03973690 0.03038365
v -0.04151885 -0.04049139 0.02911512
v -0.04101314 -0.04154295 0.02472149
v -0.04041870 -0.04227513 0.02345296
v -0.03982284 -0.04294595 0.02218258
v -0.03855224 -0.04401981 0.02277432
v -0.03735348 -0.04496119 0.02334201
v -0.03729855 -0.04500303 0.02336790
v -0.03602513 -0.04595278 0.02395963
v -0.03474608 -0.04687602 0.02454952
v -0.03388258 -0.04672959 0.03117510
v -0.03388258 -0.04745619 0.02495449
v -0.03388258 -0.04062528 0.02844572
v -0.03388258 -0.03869929 0.01588985
v -0.04094694 -0.03362980 0.02937770
v -0.04769576 -0.03362980 0.02620453
v -0.04659420 -0.03501048 0.02674264
v -0.04561941 -0.03641488 0.02565347
v -0.04416569 -0.03782904 0.02788727
v -0.04344024 -0.03882341 0.02666127
v -0.04220908 -0.04003674 0.02725670
v -0.04168788 -0.04108690 0.02286123
v -0.04109625 -0.04178143 0.02159270
v -0.04051589 -0.04240065 0.02032417
v -0.03923684 -0.04354843 0.02091590
v -0.03796061 -0.04461253 0.02150578
v -0.03735348 -0.04508113 0.02178686
v -0.03668720 -0.04559296 0.02209752
v -0.03544477 -0.04651342 0.02269110
v -0.03414882 -0.04742551 0.02328099
v -0.03388258 -0.04754545 0.02402251
v -0.03388258 -0.04787737 0.01588985
v -0.03898751 -0.03362980 0.01588985
v -0.04786057 -0.03362980 0.02460869
v -0.04677732 -0.03500909 0.02511352
v -0.04440657 -0.03778859 0.02620453
v -0.04574337 -0.03643161 0.02406873
v -0.04452912 -0.03781928 0.02462534
v -0.04336277 -0.03922367 0.02362863
v -0.04296412 -0.03980105 0.02226949
v -0.04286974 -0.03957791 0.02539459
v -0.04233727 -0.04056531 0.02099911
v -0.04177522 -0.04120544 0.01973243
v -0.04117796 -0.04183582 0.01846390
v -0.04059196 -0.04242715 0.01719167
v -0.03991018 -0.04300871 0.01905378
v -0.03864803 -0.04411605 0.01964737
v -0.03737743 -0.04515783 0.02023725
v -0.03735348 -0.04517318 0.02030197
v -0.03609416 -0.04612990 0.02082899
v -0.03484187 -0.04704199 0.02142072
v -0.03388258 -0.04771699 0.02187007
v -0.03388258 -0.04766120 0.02269110
v -0.03388258 -0.04760263 0.02340488
v -0.03408543 -0.04773233 0.01588985
v -0.03388258 -0.04787737 0.01605073
v -0.03433053 -0.04756079 0.01702340
v -0.04827189 -0.03362980 0.01588985
v -0.04798030 -0.03362980 0.02301101
v -0.04690128 -0.03502304 0.02352138
v -0.04599552 -0.03641627 0.02085118
v -0.04478690 -0.03781370 0.02141148
v -0.04362618 -0.03922088 0.02041292
v -0.04305286 -0.03991541 0.01913885
v -0.04244292 -0.04058902 0.01787032
v -0.04186115 -0.04121102 0.01660178
v -0.03932277 -0.04357214 0.01778525
v -0.04152730 -0.04153458 0.01588985
v -0.04106386 -0.04197947 0.01588985
v -0.04000315 -0.04296966 0.01588985
v -0.03805499 -0.04465577 0.01837699
v -0.03735348 -0.04522060 0.01870429
v -0.03678721 -0.04567525 0.01896872
v -0.03551802 -0.04663197 0.01956046
v -0.03424460 -0.04754545 0.02015219
v -0.03388258 -0.04775325 0.02115999
v -0.03474467 -0.04725955 0.01588985
v -0.03388258 -0.04786203 0.01825494
v -0.03559690 -0.04664173 0.01643166
v -0.03534898 -0.04682164 0.01588985
v -0.03388258 -0.04785506 0.01877641
v -0.03492076 -0.04711869 0.01829193
v -0.04751686 -0.03466183 0.01588985
v -0.04827048 -0.03362980 0.01669609
v -0.04808313 -0.03362980 0.02140223
v -0.04711962 -0.03502304 0.02033156
v -0.04702665 -0.03501048 0.02191075
v -0.04608427 -0.03640930 0.01925904
v -0.04489678 -0.03781370 0.01981564
v -0.04369661 -0.03922088 0.01883558
v -0.04371352 -0.03926411 0.01727858
v -0.04312470 -0.03992238 0.01601005
v -0.04306976 -0.03997956 0.01588985
v -0.04211752 -0.04095162 0.01588985
v -0.03873255 -0.04410489 0.01651672
v -0.03895934 -0.04390267 0.01588985
v -0.03745913 -0.04517597 0.01710846
v -0.03735348 -0.04525965 0.01715838
v -0.03618572 -0.04617732 0.01770019
v -0.03388258 -0.04783414 0.01937369
v -0.03388258 -0.04779509 0.02032047
v -0.03675481 -0.04575055 0.01588985
v -0.03579270 -0.04648971 0.01588985
v -0.04725626 -0.03501467 0.01588985
v -0.04723936 -0.03502025 0.01718242
v -0.04823386 -0.03362980 0.01824570
v -0.04816765 -0.03362980 0.01982119
v -0.04719146 -0.03502025 0.01875052
v -0.04613357 -0.03641906 0.01769834
v -0.04496298 -0.03781788 0.01824385
v -0.04500243 -0.03782067 0.01668130
v -0.04403751 -0.03893219 0.01588985
v -0.04378536 -0.03921670 0.01588985
v -0.04337544 -0.03965461 0.01588985
v -0.03844096 -0.04435732 0.01588985
v -0.03790286 -0.04481197 0.01588985
v -0.03735348 -0.04526383 0.01688286
v -0.03689145 -0.04564317 0.01588985
v -0.04616033 -0.03642185 0.01588985
v -0.04615752 -0.03642185 0.01614319
v -0.04501651 -0.03781928 0.01588985
v -0.03735348 -0.04526383 0.01588985
f 1 2 3
f 1 3 9
f 1 9 18
f 1 18 34
f 1 34 46
f 1 46 61
f 1 61 77
f 1 77 88
f 1 88 87
f 1 87 89
f 1 89 107
f 1 107 129
f 1 129 130
f 1 130 150
f 1 150 151
f 1 151 170
f 1 170 193
f 1 193 192
f 1 192 191
f 1 191 215
f 1 215 240
f 1 240 239
f 1 239 220
f 1 220 217
f 1 217 195
f 1 195 171
f 1 171 153
f 1 153 152
f 1 152 132
f 1 132 109
f 1 109 90
f 1 90 70
f 1 70 53
f 1 53 35
f 1 35 20
f 1 20 19
f 1 19 11
f 1 11 4
f 1 4 5
f 1 5 6
f 1 6 2
f 2 6 7
f 2 7 8
f 2 8 3
f 3 8 10
f 3 10 9
f 4 11 5
f 5 11 12
f 5 12 21
f 5 21 36
f 5 36 54
f 5 54 71
f 5 71 91
f 5 91 110
f 5 110 133
f 5 133 154
f 5 154 172
f 5 172 197
f 5 197 223
f 5 223 245
f 5 245 246
f 5 246 224
f 5 224 198
f 5 198 173
f 5 173 155
f 5 155 135
f 5 135 134
f 5 134 113
f 5 113 112
f 5 112 111
f 5 111 94
f 5 94 93
f 5 93 92
f 5 92 72
f 5 72 55
f 5 55 39
f 5 39 38
f 5 38 37
f 5 37 23
f 5 23 22
f 5 22 14
f 5 14 13
f 5 13 6
f 6 13 7
f 7 13 14
f 7 14 15
f 7 15 16
f 7 16 17
f 7 17 8
f 8 17 10
f 9 10 17
f 9 17 18
f 11 19 12
f 12 19 20
f 12 20 21
f 14 22 15
f 15 22 23
f 15 23 24
f 15 24 25
f 15 25 26
f 15 26 16
f 16 26 27
f 16 27 28
f 16 28 17
f 17 29 18
f 17 28 30
f 17 30 31
f 17 31 32
f 17 32 33
f 17 33 29
f 18 29 34
f 20 35 21
f 21 35 36
f 23 37 24
f 24 37 38
f 24 38 39
f 24 39 40
f 24 40 41
f 24 41 25
f 25 41 27
f 25 27 26
f 27 41 42
f 27 42 43
f 27 43 44
f 27 44 28
f 28 44 30
f 29 45 46
f 29 46 34
f 29 33 47
f 29 47 48
f 29 48 45
f 30 44 49
f 30 49 31
f 31 49 32
f 32 50 51
f 32 51 33
f 32 49 52
f 32 52 50
f 33 51 50
f 33 50 47
f 35 53 36
f 36 53 54
f 39 55 40
f 40 55 56
f 40 56 42
f 40 42 41
f 42 56 57
f 42 57 43
f 43 57 58
f 43 58 59
f 43 59 44
f 44 59 49
f 45 48 60
f 45 60 46
f 46 60 61
f 47 50 48
f 48 50 60
f 49 59 62
f 49 62 63
f 49 63 52
f 50 64 60
f 50 52 64
f 52 63 65
f 52 65 66
f 52 66 67
f 52 67 68
f 52 68 69
f 52 69 64
f 53 70 54
f 54 70 71
f 55 72 56
f 56 72 73
f 56 73 57
f 57 73 74
f 57 74 58
f 58 75 59
f 58 74 75
f 59 75 76
f 59 76 62
f 60 77 61
f 60 64 77
f 62 76 78
f 62 78 79
f 62 79 63
f 63 79 65
f 64 69 77
f 65 79 80
f 65 80 81
f 65 81 66
f 66 81 82
f 66 82 67
f 67 83 68
f 67 82 84
f 67 84 85
f 67 85 86
f 67 86 83
f 68 87 88
f 68 88 69
f 68 83 89
f 68 89 87
f 69 88 77
f 70 90 91
f 70 91 71
f 72 92 73
f 73 92 93
f 73 93 94
f 73 94 95
f 73 95 96
f 73 96 74
f 74 96 97
f 74 97 75
f 75 97 98
f 75 98 99
f 75 99 76
f 76 99 100
f 76 100 78
f 78 100 101
f 78 101 102
f 78 102 103
f 78 103 80
f 78 80 79
f 80 103 81
f 81 104 84
f 81 84 82
f 81 103 105
f 81 105 104
f 83 86 106
f 83 106 107
f 83 107 89
f 84 104 85
f 85 104 108
f 85 108 106
f 85 106 86
f 90 109 110
f 90 110 91
f 94 111 95
f 95 111 112
f 95 112 96
f 96 112 113
f 96 113 114
f 96 114 115
f 96 115 97
f 97 115 116
f 97 116 98
f 98 116 117
f 98 117 100
f 98 100 99
f 100 117 118
f 100 118 119
f 100 119 101
f 101 119 120
f 101 120 102
f 102 120 121
f 102 121 122
f 102 122 103
f 103 122 123
f 103 123 105
f 104 105 124
f 104 124 125
f 104 125 126
f 104 126 127
f 104 127 128
f 104 128 108
f 105 123 124
f 106 108 129
f 106 129 107
f 108 130 129
f 108 128 131
f 108 131 130
f 109 132 133
f 109 133 110
f 113 134 114
f 114 134 135
f 114 135 136
f 114 136 137
f 114 137 115
f 115 137 116
f 116 137 138
f 116 138 117
f 117 138 139
f 117 139 140
f 117 140 118
f 118 140 120
f 118 120 119
f 120 140 141
f 120 141 142
f 120 142 143
f 120 143 121
f 121 143 122
f 122 143 123
f 123 143 144
f 123 144 145
f 123 145 124
f 124 145 146
f 124 146 125
f 125 146 147
f 125 147 126
f 126 147 148
f 126 148 127
f 127 148 128
f 128 148 149
f 128 149 131
f 130 131 150
f 131 149 151
f 131 151 150
f 132 152 133
f 133 152 153
f 133 153 154
f 135 155 156
f 135 156 136
f 136 156 137
f 137 156 157
f 137 157 158
f 137 158 138
f 138 158 139
f 139 158 159
f 139 159 140
f 140 159 160
f 140 160 141
f 141 160 142
f 142 160 161
f 142 161 143
f 143 161 162
f 143 162 144
f 144 162 163
f 144 163 164
f 144 164 145
f 145 164 165
f 145 165 146
f 146 165 166
f 146 166 167
f 146 167 147
f 147 167 148
f 148 167 168
f 148 168 149
f 149 168 169
f 149 169 170
f 149 170 151
f 153 171 194
f 153 194 216
f 153 216 219
f 153 219 242
f 153 242 241
f 153 241 257
f 153 257 261
f 153 261 255
f 153 255 254
f 153 254 235
f 153 235 209
f 153 209 208
f 153 208 207
f 153 207 233
f 153 233 232
f 153 232 253
f 153 253 252
f 153 252 251
f 153 251 260
f 153 260 258
f 153 258 243
f 153 243 222
f 153 222 197
f 153 197 172
f 153 172 154
f 155 173 174
f 155 174 156
f 156 174 157
f 157 175 158
f 157 174 176
f 157 176 177
f 157 177 175
f 158 175 159
f 159 175 177
f 159 177 178
f 159 178 179
f 159 179 180
f 159 180 160
f 160 180 161
f 161 179 181
f 161 181 162
f 161 180 179
f 162 181 182
f 162 182 163
f 163 182 183
f 163 183 184
f 163 184 185
f 163 185 164
f 164 185 186
f 164 186 165
f 165 186 187
f 165 187 188
f 165 188 166
f 166 188 167
f 167 188 189
f 167 189 168
f 168 189 190
f 168 190 191
f 168 191 192
f 168 192 169
f 169 192 193
f 169 193 170
f 171 195 196
f 171 196 194
f 173 198 199
f 173 199 174
f 174 199 176
f 176 199 200
f 176 200 201
f 176 201 177
f 177 201 202
f 177 202 179
f 177 179 178
f 179 202 181
f 181 202 203
f 181 203 182
f 182 203 204
f 182 204 205
f 182 205 183
f 183 205 184
f 184 206 185
f 184 205 207
f 184 207 208
f 184 208 209
f 184 209 206
f 185 206 186
f 186 206 210
f 186 210 187
f 187 210 211
f 187 211 212
f 187 212 189
f 187 189 188
f 189 212 213
f 189 213 190
f 190 213 214
f 190 214 191
f 191 214 215
f 194 196 216
f 195 217 196
f 196 218 219
f 196 219 216
f 196 217 220
f 196 220 221
f 196 221 218
f 197 222 223
f 198 224 225
f 198 225 226
f 198 226 199
f 199 226 200
f 200 226 225
f 200 225 227
f 200 227 228
f 200 228 201
f 201 228 202
f 202 228 229
f 202 229 203
f 203 229 230
f 203 230 231
f 203 231 204
f 204 231 205
f 205 231 232
f 205 232 233
f 205 233 207
f 206 209 234
f 206 234 210
f 209 235 234
f 210 234 236
f 210 236 211
f 211 236 212
f 212 236 237
f 212 237 238
f 212 238 213
f 213 238 221
f 213 221 214
f 214 221 220
f 214 220 239
f 214 239 240
f 214 240 215
f 218 241 242
f 218 242 219
f 218 221 238
f 218 238 241
f 222 243 244
f 222 244 223
f 223 244 245
f 224 246 225
f 225 246 247
f 225 247 227
f 227 247 248
f 227 248 249
f 227 249 228
f 228 249 229
f 229 249 230
f 230 249 250
f 230 250 251
f 230 251 252
f 230 252 231
f 231 252 253
f 231 253 232
f 234 235 254
f 234 254 236
f 236 254 255
f 236 255 256
f 236 256 237
f 237 256 238
f 238 256 257
f 238 257 241
f 243 258 244
f 244 248 247
f 244 247 245
f 244 258 259
f 244 259 248
f 245 247 246
f 248 259 250
f 248 250 249
f 250 259 260
f 250 260 251
f 255 261 256
f 256 261 257
f 258 260 259

