# https://github.com/mikedh/trimesh
v -0.03067545 -0.02924302 -0.00424614
v -0.02811143 -0.03763080 0.00176783
v -0.02811143 -0.03178010 -0.00424614
v -0.04791156 -0.02924302 -0.00424614
v -0.03676551 -0.02924302 0.00176783
v -0.02811143 -0.05022787 0.00176783
v -0.02811143 -0.04837899 -0.00424614
v -0.04784376 -0.02935806 -0.00424614
v -0.04824213 -0.02924302 -0.00336842
v -0.04975723 -0.02924302 0.00176783
v -0.02811143 -0.05013543 0.00137459
v -0.02875773 -0.04987864 0.00176783
v -0.02811143 -0.04839542 -0.00420258
v -0.02904380 -0.04784692 -0.00424614
v -0.04780561 -0.02942175 -0.00424614
v -0.04814890 -0.02942175 -0.00332485
v -0.04860024 -0.02942380 -0.00198913
v -0.04869348 -0.02924302 -0.00203329
v -0.04948176 -0.02924302 0.00068289
v -0.04939488 -0.02940737 0.00072292
v -0.04965340 -0.02941558 0.00176783
v -0.02849497 -0.04988275 0.00120505
v -0.02811143 -0.04986631 0.00036206
v -0.02934894 -0.04953351 0.00176783
v -0.02978122 -0.04897885 0.00060577
v -0.02811143 -0.04874465 -0.00324950
v -0.02925994 -0.04789417 -0.00378461
v -0.03024741 -0.04709709 -0.00424614
v -0.04759583 -0.02975249 -0.00424614
v -0.04739664 -0.03081663 -0.00297518
v -0.04901557 -0.02941558 -0.00064164
v -0.04910669 -0.02924302 -0.00068344
v -0.04874858 -0.02924302 -0.00185845
v -0.04783952 -0.03081457 -0.00163710
v -0.04915331 -0.02924302 -0.00051390
v -0.04861508 -0.03081663 0.00109026
v -0.04936097 -0.02989013 0.00176783
v -0.02811143 -0.04971840 -0.00016069
v -0.02918154 -0.04896447 -0.00065930
v -0.03029826 -0.04896858 0.00176783
v -0.03060128 -0.04877958 0.00176783
v -0.03163748 -0.04799688 0.00128511
v -0.03104628 -0.04801537 0.00001591
v -0.03044659 -0.04801332 -0.00124916
v -0.02811143 -0.04884737 -0.00294869
v -0.02985327 -0.04797429 -0.00251777
v -0.03113103 -0.04694713 -0.00311410
v -0.03059281 -0.04687728 -0.00424614
v -0.02857550 -0.04892338 -0.00192085
v -0.04691986 -0.03081663 -0.00424614
v -0.04680967 -0.03098097 -0.00424614
v -0.04609344 -0.03221767 -0.00391177
v -0.04658294 -0.03221356 -0.00259665
v -0.04824001 -0.03081457 -0.00027960
v -0.04701734 -0.03221151 -0.00125505
v -0.04740935 -0.03221973 0.00010893
v -0.04778018 -0.03222384 0.00148173
v -0.04785011 -0.03222384 0.00176783
v -0.04878036 -0.03081663 0.00176783
v -0.02811143 -0.04957871 -0.00061986
v -0.03186210 -0.04797018 0.00176783
v -0.03289194 -0.04699438 0.00069937
v -0.03230497 -0.04701903 -0.00057159
v -0.03171589 -0.04700259 -0.00184138
v -0.02811143 -0.04924796 -0.00170421
v -0.03298094 -0.04592202 -0.00243065
v -0.03239185 -0.04585628 -0.00370102
v -0.03219902 -0.04577206 -0.00424614
v -0.04595147 -0.03221973 -0.00424614
v -0.04491739 -0.03361461 -0.00424614
v -0.04522253 -0.03361461 -0.00350617
v -0.04570142 -0.03361461 -0.00218517
v -0.04613370 -0.03361461 -0.00084179
v -0.04652784 -0.03362283 0.00052041
v -0.04687536 -0.03360845 0.00176783
v -0.04715931 -0.03320785 0.00176783
v -0.03250840 -0.04753055 0.00176783
v -0.03339415 -0.04691631 0.00176783
v -0.03391543 -0.04654037 0.00176783
v -0.03415912 -0.04591997 0.00010834
v -0.03357427 -0.04593846 -0.00116321
v -0.03364420 -0.04473052 -0.00424614
v -0.03425659 -0.04475517 -0.00302580
v -0.03356155 -0.04479009 -0.00424614
v -0.04381974 -0.03500538 -0.00424614
v -0.04428592 -0.03501565 -0.00306995
v -0.04475210 -0.03502181 -0.00174130
v -0.04519074 -0.03502181 -0.00040087
v -0.04559971 -0.03501976 0.00095251
v -0.04582221 -0.03501771 0.00176783
v -0.04674398 -0.03378512 0.00176783
v -0.03495163 -0.04577206 0.00176783
v -0.03476728 -0.04581725 0.00137047
v -0.03602809 -0.04467505 0.00078179
v -0.03544113 -0.04474695 -0.00048917
v -0.03484992 -0.04476750 -0.00175778
v -0.03368234 -0.04470176 -0.00424614
v -0.03610862 -0.04354723 -0.00234470
v -0.03551105 -0.04353902 -0.00361036
v -0.04349552 -0.03539159 -0.00424614
v -0.04277506 -0.03641464 -0.00390941
v -0.04327091 -0.03642286 -0.00259548
v -0.04374557 -0.03641464 -0.00127271
v -0.04419692 -0.03641259 0.00006007
v -0.04460377 -0.03641670 0.00141639
v -0.04513565 -0.03587230 0.00176783
v -0.03648580 -0.04456207 0.00176783
v -0.03788647 -0.04330482 0.00145995
v -0.03729315 -0.04344657 0.00019134
v -0.03669983 -0.04352464 -0.00107668
v -0.03522075 -0.04350204 -0.00424614
v -0.03738850 -0.04224479 -0.00294162
v -0.03660235 -0.04237011 -0.00424614
v -0.04262461 -0.03641670 -0.00424614
v -0.04210121 -0.03700423 -0.00424614
v -0.04171979 -0.03781774 -0.00341786
v -0.04220928 -0.03783212 -0.00209922
v -0.04269242 -0.03781774 -0.00078175
v -0.04314165 -0.03781363 0.00055220
v -0.04349552 -0.03782185 0.00176783
v -0.04385152 -0.03740688 0.00176783
v -0.04469489 -0.03641670 0.00176783
v -0.03722534 -0.04394166 0.00176783
v -0.03802845 -0.04325758 0.00176783
v -0.03873832 -0.04261457 0.00176783
v -0.03961348 -0.04181750 0.00176783
v -0.03921298 -0.04188734 0.00072233
v -0.03866628 -0.04201471 -0.00044856
v -0.03804540 -0.04212770 -0.00171775
v -0.03756014 -0.04153811 -0.00424614
v -0.03697106 -0.04206196 -0.00424614
v -0.03872561 -0.04063832 -0.00391765
v -0.04137015 -0.03781363 -0.00424614
v -0.03994405 -0.03930917 -0.00424614
v -0.04061365 -0.03920646 -0.00290159
v -0.04111162 -0.03921673 -0.00158883
v -0.04158840 -0.03921057 -0.00026842
v -0.04202069 -0.03921879 0.00107613
v -0.04327091 -0.03806837 0.00176783
v -0.04053949 -0.04092592 0.00176783
v -0.04041871 -0.04059518 0.00027729
v -0.03993345 -0.04061161 -0.00104018
v -0.03942065 -0.04062188 -0.00234529
v -0.03848828 -0.04071022 -0.00424614
v -0.03982538 -0.03942627 -0.00424614
v -0.03947574 -0.03976318 -0.00424614
v -0.04101627 -0.04039797 0.00154413
v -0.04136803 -0.04010009 0.00176783
v -0.04222199 -0.03921468 0.00176783
v -0.04104594 -0.04043083 0.00176783
f 1 2 3
f 1 3 7
f 1 7 14
f 1 14 28
f 1 28 48
f 1 48 68
f 1 68 84
f 1 84 82
f 1 82 97
f 1 97 111
f 1 111 113
f 1 113 131
f 1 131 130
f 1 130 144
f 1 144 146
f 1 146 145
f 1 145 134
f 1 134 133
f 1 133 115
f 1 115 114
f 1 114 100
f 1 100 85
f 1 85 70
f 1 70 69
f 1 69 51
f 1 51 50
f 1 50 29
f 1 29 15
f 1 15 8
f 1 8 4
f 1 4 9
f 1 9 18
f 1 18 33
f 1 33 32
f 1 32 35
f 1 35 19
f 1 19 10
f 1 10 5
f 1 5 2
f 2 6 11
f 2 11 23
f 2 23 38
f 2 38 60
f 2 60 65
f 2 65 45
f 2 45 26
f 2 26 13
f 2 13 7
f 2 7 3
f 2 5 10
f 2 10 21
f 2 21 37
f 2 37 59
f 2 59 58
f 2 58 76
f 2 76 75
f 2 75 91
f 2 91 90
f 2 90 106
f 2 106 122
f 2 122 121
f 2 121 120
f 2 120 139
f 2 139 149
f 2 149 148
f 2 148 150
f 2 150 140
f 2 140 126
f 2 126 125
f 2 125 124
f 2 124 123
f 2 123 107
f 2 107 92
f 2 92 79
f 2 79 78
f 2 78 77
f 2 77 61
f 2 61 41
f 2 41 40
f 2 40 24
f 2 24 12
f 2 12 6
f 4 8 9
f 6 12 11
f 7 13 14
f 8 15 9
f 9 16 17
f 9 17 18
f 9 15 16
f 10 19 20
f 10 20 21
f 11 12 22
f 11 22 23
f 12 24 25
f 12 25 22
f 13 26 27
f 13 27 14
f 14 27 28
f 15 29 30
f 15 30 16
f 16 30 17
f 17 31 32
f 17 32 33
f 17 33 18
f 17 30 34
f 17 34 31
f 19 35 31
f 19 31 20
f 20 31 36
f 20 36 37
f 20 37 21
f 22 25 23
f 23 25 39
f 23 39 38
f 24 40 25
f 25 40 41
f 25 41 42
f 25 42 43
f 25 43 44
f 25 44 39
f 26 45 27
f 27 46 47
f 27 47 48
f 27 48 28
f 27 45 49
f 27 49 46
f 29 50 30
f 30 50 51
f 30 51 52
f 30 52 53
f 30 53 34
f 31 35 32
f 31 34 54
f 31 54 36
f 34 53 55
f 34 55 54
f 36 54 56
f 36 56 57
f 36 57 58
f 36 58 59
f 36 59 37
f 38 49 60
f 38 39 49
f 39 44 46
f 39 46 49
f 41 61 42
f 42 61 62
f 42 62 63
f 42 63 43
f 43 63 44
f 44 63 64
f 44 64 46
f 45 65 49
f 46 64 47
f 47 64 66
f 47 66 67
f 47 67 48
f 48 67 68
f 49 65 60
f 51 69 52
f 52 69 70
f 52 70 71
f 52 71 53
f 53 71 72
f 53 72 55
f 54 55 56
f 55 72 73
f 55 73 74
f 55 74 56
f 56 74 57
f 57 74 75
f 57 75 76
f 57 76 58
f 61 77 62
f 62 77 78
f 62 78 79
f 62 79 80
f 62 80 63
f 63 80 81
f 63 81 64
f 64 81 66
f 66 82 67
f 66 81 83
f 66 83 82
f 67 82 84
f 67 84 68
f 70 85 71
f 71 85 86
f 71 86 72
f 72 86 87
f 72 87 88
f 72 88 73
f 73 88 89
f 73 89 74
f 74 89 90
f 74 90 91
f 74 91 75
f 79 92 93
f 79 93 80
f 80 93 94
f 80 94 95
f 80 95 81
f 81 95 96
f 81 96 83
f 82 83 97
f 83 96 98
f 83 98 99
f 83 99 97
f 85 100 101
f 85 101 86
f 86 101 102
f 86 102 87
f 87 102 103
f 87 103 104
f 87 104 88
f 88 104 105
f 88 105 89
f 89 105 90
f 90 105 106
f 92 107 94
f 92 94 93
f 94 107 108
f 94 108 109
f 94 109 95
f 95 109 110
f 95 110 98
f 95 98 96
f 97 99 111
f 98 110 112
f 98 112 99
f 99 112 113
f 99 113 111
f 100 114 101
f 101 114 115
f 101 115 116
f 101 116 102
f 102 116 117
f 102 117 118
f 102 118 103
f 103 118 104
f 104 118 119
f 104 119 105
f 105 119 120
f 105 120 121
f 105 121 122
f 105 122 106
f 107 123 108
f 108 123 124
f 108 124 125
f 108 125 126
f 108 126 127
f 108 127 109
f 109 127 128
f 109 128 129
f 109 129 110
f 110 129 112
f 112 130 131
f 112 131 113
f 112 129 132
f 112 132 130
f 115 133 116
f 116 133 134
f 116 134 135
f 116 135 136
f 116 136 117
f 117 136 137
f 117 137 118
f 118 137 119
f 119 137 138
f 119 138 120
f 120 138 139
f 126 140 141
f 126 141 127
f 127 141 128
f 128 141 142
f 128 142 143
f 128 143 129
f 129 143 132
f 130 132 144
f 132 143 145
f 132 145 146
f 132 146 144
f 134 145 143
f 134 143 135
f 135 143 136
f 136 143 142
f 136 142 137
f 137 142 141
f 137 141 138
f 138 141 147
f 138 147 148
f 138 148 149
f 138 149 139
f 140 150 147
f 140 147 141
f 147 150 148

