# https://github.com/mikedh/trimesh
v -0.02756710 0.05122328 0.00717466
v -0.02756710 0.05117300 0.00665674
v -0.02805613 0.05097343 0.00717466
v -0.02756710 0.04078450 0.00717466
v -0.02756710 0.05113371 0.00627145
v -0.02773752 0.05103943 0.00619256
v -0.02819321 0.05090272 0.00717466
v -0.02756710 0.03764171 0.00133465
v -0.03466179 0.03517148 0.00717466
v -0.02756710 0.05107871 0.00583128
v -0.02841365 0.05041559 0.00433240
v -0.02900642 0.05027259 0.00560090
v -0.02843032 0.05077229 0.00717466
v -0.02756710 0.05027102 0.00133465
v -0.03069025 0.03517148 0.00133465
v -0.04649123 0.03517148 0.00717466
v -0.02756710 0.05092158 0.00472627
v -0.02781717 0.05051458 0.00306619
v -0.02909163 0.04967231 0.00247224
v -0.02968439 0.04956860 0.00374017
v -0.03027716 0.04942403 0.00500867
v -0.02958992 0.05009659 0.00687111
v -0.02894158 0.05048944 0.00717466
v -0.02756710 0.05034644 0.00163820
v -0.02821729 0.04991902 0.00133465
v -0.04541498 0.03517148 0.00133465
v -0.04555020 0.03639717 0.00717466
v -0.04643750 0.03517148 0.00674135
v -0.02756710 0.05066230 0.00318223
v -0.02855628 0.04973045 0.00133465
v -0.02756710 0.05053658 0.00252369
v -0.03010674 0.04877505 0.00133465
v -0.03036052 0.04874834 0.00188058
v -0.03095144 0.04865719 0.00314965
v -0.03154420 0.04851420 0.00441758
v -0.03086808 0.04924018 0.00627774
v -0.02973256 0.05004316 0.00717466
v -0.04548352 0.03517148 0.00159475
v -0.04536497 0.03523433 0.00133465
v -0.04554835 0.03639717 0.00715980
v -0.04438690 0.03778157 0.00717466
v -0.04624671 0.03517148 0.00528077
v -0.03153124 0.04786364 0.00133465
v -0.03221848 0.04770178 0.00255856
v -0.03281310 0.04756507 0.00382649
v -0.03214068 0.04832563 0.00568493
v -0.03128302 0.04907833 0.00717466
v -0.03053835 0.04954346 0.00717466
v -0.03273715 0.04809463 0.00695343
v -0.03226108 0.04843563 0.00717466
v -0.04570581 0.03517148 0.00244709
v -0.04477776 0.03596032 0.00133465
v -0.04535200 0.03638616 0.00570151
v -0.04369039 0.03856255 0.00717466
v -0.04425353 0.03777371 0.00620971
v -0.04621522 0.03517148 0.00508012
v -0.04512786 0.03638460 0.00426151
v -0.03161275 0.04781021 0.00133465
v -0.03175538 0.04771435 0.00133465
v -0.03319469 0.04673695 0.00133465
v -0.03348552 0.04669295 0.00196747
v -0.03408014 0.04656095 0.00323540
v -0.03340031 0.04737651 0.00509556
v -0.03467476 0.04637867 0.00450275
v -0.03284089 0.04804906 0.00717466
v -0.03399123 0.04714865 0.00636406
v -0.04597255 0.03517148 0.00365499
v -0.04482407 0.03638616 0.00285925
v -0.04447581 0.03637831 0.00147527
v -0.04443506 0.03637831 0.00133465
v -0.04301427 0.03931367 0.00717466
v -0.04306428 0.03919896 0.00677279
v -0.04402012 0.03777528 0.00477429
v -0.04601330 0.03517148 0.00384707
v -0.04373300 0.03778785 0.00336859
v -0.03371892 0.04636295 0.00133465
v -0.03476553 0.04562440 0.00137180
v -0.03536015 0.04548926 0.00263973
v -0.03594551 0.04531327 0.00391109
v -0.03526382 0.04614767 0.00577182
v -0.03437467 0.04697580 0.00717466
v -0.03475627 0.04669923 0.00717466
v -0.04339216 0.03779571 0.00198405
v -0.04424241 0.03660302 0.00133465
v -0.04322174 0.03778785 0.00133465
v -0.04219366 0.04018109 0.00717466
v -0.04181391 0.04058179 0.00717466
v -0.04282532 0.03920368 0.00534137
v -0.04256969 0.03918168 0.00390880
v -0.04225849 0.03918482 0.00251054
v -0.03474886 0.04562597 0.00133465
v -0.03477850 0.04560397 0.00133465
v -0.03484333 0.04555369 0.00133465
v -0.03627524 0.04444271 0.00133465
v -0.03661422 0.04436257 0.00205264
v -0.03720143 0.04418186 0.00332229
v -0.03653087 0.04508070 0.00518073
v -0.03586030 0.04586797 0.00704032
v -0.03557318 0.04609739 0.00717466
v -0.04223626 0.03887683 0.00133465
v -0.04160274 0.04058179 0.00590388
v -0.04055057 0.04183734 0.00717466
v -0.04025419 0.04203219 0.00653441
v -0.04133414 0.04059279 0.00448732
v -0.04105628 0.04057708 0.00306904
v -0.04189912 0.03923825 0.00133465
v -0.04200286 0.03912982 0.00133465
v -0.04069877 0.04058022 0.00169193
v -0.03687727 0.04394301 0.00133465
v -0.03782384 0.04314945 0.00133465
v -0.03788127 0.04313531 0.00146098
v -0.03847033 0.04294517 0.00273063
v -0.03785163 0.04386129 0.00444444
v -0.03712549 0.04478999 0.00644866
v -0.03581028 0.04591825 0.00717466
v -0.03622707 0.04558983 0.00717466
v -0.03592143 0.04583340 0.00717466
v -0.03899827 0.04328459 0.00717466
v -0.03972255 0.04231975 0.00524533
v -0.03897604 0.04329873 0.00712722
v -0.04033755 0.04136435 0.00340575
v -0.04159718 0.03955096 0.00133465
v -0.04058577 0.04058336 0.00133465
v -0.04084511 0.04031937 0.00133465
v -0.03973922 0.04162677 0.00213896
v -0.03937430 0.04173991 0.00133465
v -0.03792943 0.04305517 0.00133465
v -0.03815357 0.04285403 0.00133465
v -0.03907606 0.04268117 0.00399570
v -0.03898900 0.04209347 0.00133465
v -0.03838882 0.04363658 0.00585814
v -0.03746077 0.04460299 0.00717466
v -0.03895936 0.04331916 0.00717466
v -0.03887601 0.04339145 0.00717466
f 1 2 3
f 1 3 7
f 1 7 13
f 1 13 23
f 1 23 37
f 1 37 48
f 1 48 47
f 1 47 50
f 1 50 65
f 1 65 81
f 1 81 82
f 1 82 99
f 1 99 115
f 1 115 117
f 1 117 116
f 1 116 132
f 1 132 134
f 1 134 133
f 1 133 118
f 1 118 102
f 1 102 87
f 1 87 86
f 1 86 71
f 1 71 54
f 1 54 41
f 1 41 27
f 1 27 16
f 1 16 9
f 1 9 4
f 1 4 8
f 1 8 14
f 1 14 24
f 1 24 31
f 1 31 29
f 1 29 17
f 1 17 10
f 1 10 5
f 1 5 2
f 2 5 6
f 2 6 3
f 3 6 7
f 4 9 8
f 5 10 6
f 6 11 12
f 6 12 13
f 6 13 7
f 6 10 11
f 8 9 15
f 8 15 26
f 8 26 39
f 8 39 52
f 8 52 70
f 8 70 84
f 8 84 85
f 8 85 100
f 8 100 107
f 8 107 106
f 8 106 122
f 8 122 124
f 8 124 123
f 8 123 126
f 8 126 130
f 8 130 128
f 8 128 127
f 8 127 110
f 8 110 109
f 8 109 94
f 8 94 93
f 8 93 92
f 8 92 91
f 8 91 76
f 8 76 60
f 8 60 59
f 8 59 58
f 8 58 43
f 8 43 32
f 8 32 30
f 8 30 25
f 8 25 14
f 9 16 28
f 9 28 42
f 9 42 56
f 9 56 74
f 9 74 67
f 9 67 51
f 9 51 38
f 9 38 26
f 9 26 15
f 10 17 11
f 11 17 18
f 11 18 19
f 11 19 20
f 11 20 12
f 12 20 21
f 12 21 22
f 12 22 13
f 13 22 23
f 14 25 24
f 16 27 28
f 17 29 18
f 18 30 19
f 18 29 31
f 18 31 24
f 18 24 30
f 19 32 33
f 19 33 34
f 19 34 20
f 19 30 32
f 20 34 35
f 20 35 21
f 21 36 22
f 21 35 36
f 22 37 23
f 22 36 37
f 24 25 30
f 26 38 39
f 27 40 28
f 27 41 40
f 28 40 42
f 32 43 33
f 33 43 44
f 33 44 34
f 34 44 45
f 34 45 35
f 35 45 46
f 35 46 36
f 36 47 48
f 36 48 37
f 36 46 49
f 36 49 50
f 36 50 47
f 38 51 39
f 39 51 52
f 40 53 42
f 40 41 53
f 41 54 55
f 41 55 53
f 42 53 57
f 42 57 56
f 43 58 44
f 44 58 59
f 44 59 60
f 44 60 61
f 44 61 62
f 44 62 45
f 45 63 46
f 45 62 64
f 45 64 63
f 46 63 49
f 49 65 50
f 49 63 66
f 49 66 65
f 51 67 68
f 51 68 69
f 51 69 52
f 52 69 70
f 53 55 57
f 54 71 72
f 54 72 55
f 55 72 73
f 55 73 57
f 56 57 74
f 57 73 75
f 57 75 68
f 57 68 67
f 57 67 74
f 60 76 61
f 61 76 77
f 61 77 62
f 62 77 78
f 62 78 64
f 63 64 66
f 64 78 79
f 64 79 80
f 64 80 66
f 65 66 81
f 66 80 82
f 66 82 81
f 68 75 83
f 68 83 69
f 69 84 70
f 69 83 85
f 69 85 84
f 71 86 72
f 72 86 87
f 72 87 88
f 72 88 73
f 73 88 89
f 73 89 75
f 75 89 90
f 75 90 83
f 76 91 77
f 77 91 92
f 77 92 93
f 77 93 94
f 77 94 78
f 78 94 95
f 78 95 79
f 79 95 96
f 79 96 97
f 79 97 80
f 80 98 99
f 80 99 82
f 80 97 98
f 83 90 100
f 83 100 85
f 87 101 88
f 87 102 103
f 87 103 101
f 88 101 104
f 88 104 89
f 89 104 105
f 89 105 90
f 90 106 107
f 90 107 100
f 90 105 108
f 90 108 106
f 94 109 95
f 95 109 110
f 95 110 111
f 95 111 96
f 96 111 112
f 96 112 113
f 96 113 97
f 97 113 114
f 97 114 98
f 98 115 99
f 98 114 116
f 98 116 117
f 98 117 115
f 101 103 104
f 102 118 103
f 103 119 104
f 103 118 120
f 103 120 119
f 104 119 121
f 104 121 105
f 105 121 108
f 106 108 122
f 108 123 124
f 108 124 122
f 108 121 125
f 108 125 126
f 108 126 123
f 110 127 111
f 111 127 128
f 111 128 112
f 112 129 113
f 112 128 130
f 112 130 125
f 112 125 129
f 113 129 131
f 113 131 114
f 114 131 132
f 114 132 116
f 118 133 120
f 119 120 131
f 119 131 129
f 119 129 121
f 120 133 134
f 120 134 131
f 121 129 125
f 125 130 126
f 131 134 132

