# https://github.com/mikedh/trimesh
v 0.04631281 0.03486538 0.00295061
v 0.04647442 0.03465846 0.00295061
v 0.04697542 0.03384162 0.00235100
v 0.04608655 0.03486538 0.00200407
v 0.03222477 0.03486538 0.00295061
v 0.04662680 0.03446102 0.00295061
v 0.04714627 0.03377941 0.00295061
v 0.04771422 0.03249599 0.00134338
v 0.04684844 0.03359752 0.00108174
v 0.04603344 0.03444073 0.00041369
v 0.04586952 0.03486538 0.00111070
v 0.02721938 0.03486538 -0.00242752
v 0.03839377 0.02795806 0.00295061
v 0.04825909 0.03219712 0.00295061
v 0.04850843 0.03077508 0.00005097
v 0.04742563 0.03218765 -0.00046863
v 0.04891708 0.03078117 0.00177875
v 0.04626201 0.03357858 -0.00100244
v 0.04518844 0.03486538 -0.00133147
v 0.04562480 0.03486538 0.00017784
v 0.03434651 0.02795806 -0.00242752
v 0.04480518 0.03486538 -0.00242752
v 0.05080334 0.02795806 0.00295061
v 0.04832142 0.03209975 0.00295061
v 0.04793586 0.03078725 -0.00177631
v 0.04945964 0.02938077 0.00048686
v 0.04896557 0.02938077 -0.00128777
v 0.04681611 0.03219644 -0.00230960
v 0.04913411 0.03078793 0.00295061
v 0.04946426 0.03023683 0.00295061
v 0.04982212 0.02939700 0.00218201
v 0.04655292 0.03251020 -0.00242752
v 0.04598034 0.03331149 -0.00242752
v 0.04573331 0.03364485 -0.00242752
v 0.04513996 0.03486538 -0.00148993
v 0.04941116 0.02795806 -0.00242752
v 0.04482596 0.03486538 -0.00237014
v 0.04487676 0.03477409 -0.00242752
v 0.05074793 0.02795806 0.00264370
v 0.04996064 0.02939903 0.00295061
v 0.04809286 0.03017665 -0.00242752
v 0.04770730 0.03078725 -0.00242752
v 0.05037391 0.02795806 0.00091170
v 0.04988445 0.02799390 -0.00087557
v 0.04925647 0.02822718 -0.00242752
v 0.04864234 0.02928340 -0.00242752
v 0.04677456 0.03219509 -0.00242752
v 0.04685767 0.03206999 -0.00242752
v 0.04503144 0.03486538 -0.00179895
v 0.04512610 0.03486538 -0.00153046
v 0.04989369 0.02795806 -0.00091032
v 0.04990754 0.02795806 -0.00086452
f 1 2 3
f 1 3 4
f 1 4 11
f 1 11 20
f 1 20 19
f 1 19 35
f 1 35 50
f 1 50 49
f 1 49 37
f 1 37 22
f 1 22 12
f 1 12 5
f 1 5 13
f 1 13 23
f 1 23 40
f 1 40 30
f 1 30 29
f 1 29 24
f 1 24 14
f 1 14 7
f 1 7 6
f 1 6 2
f 2 6 3
f 3 7 8
f 3 8 9
f 3 9 10
f 3 10 11
f 3 11 4
f 3 6 7
f 5 12 13
f 7 14 8
f 8 15 16
f 8 16 9
f 8 14 17
f 8 17 15
f 9 16 18
f 9 18 10
f 10 18 19
f 10 19 20
f 10 20 11
f 12 21 13
f 12 22 38
f 12 38 34
f 12 34 33
f 12 33 32
f 12 32 47
f 12 47 48
f 12 48 42
f 12 42 41
f 12 41 46
f 12 46 45
f 12 45 36
f 12 36 21
f 13 21 36
f 13 36 51
f 13 51 52
f 13 52 43
f 13 43 39
f 13 39 23
f 14 24 17
f 15 25 16
f 15 17 26
f 15 26 27
f 15 27 25
f 16 25 28
f 16 28 18
f 17 29 30
f 17 30 31
f 17 31 26
f 17 24 29
f 18 28 32
f 18 32 33
f 18 33 34
f 18 34 35
f 18 35 19
f 22 37 38
f 23 39 40
f 25 41 42
f 25 42 28
f 25 27 41
f 26 31 43
f 26 43 44
f 26 44 27
f 27 44 36
f 27 36 45
f 27 45 46
f 27 46 41
f 28 47 32
f 28 42 48
f 28 48 47
f 30 40 31
f 31 40 39
f 31 39 43
f 34 38 49
f 34 49 50
f 34 50 35
f 36 44 51
f 37 49 38
f 43 52 44
f 44 52 51

