# https://github.com/mikedh/trimesh
v -0.04887518 -0.01547928 0.01424884
v -0.05300992 -0.01547928 0.01424884
v -0.05026940 -0.01011381 0.01424884
v -0.05205500 -0.01011381 0.02916565
v -0.05220587 -0.01011381 0.03041170
v -0.05090040 -0.01547928 0.03086083
v -0.05675418 -0.01545092 0.01424884
v -0.05674619 -0.01547928 0.01425480
v -0.05793984 -0.01011381 0.01424884
v -0.05226267 -0.01011381 0.03078332
v -0.05103174 -0.01547928 0.03174916
v -0.05090394 -0.01547928 0.03088666
v -0.05676394 -0.01541572 0.01424884
v -0.05674708 -0.01547928 0.01429256
v -0.05676483 -0.01541572 0.01428461
v -0.05794073 -0.01011381 0.01527827
v -0.05774548 -0.01121527 0.01424884
v -0.05774992 -0.01121527 0.01536770
v -0.05237005 -0.01011381 0.03143715
v -0.05241532 -0.01011381 0.03170345
v -0.05116043 -0.01547928 0.03238907
v -0.05683760 -0.01513156 0.01424884
v -0.05675506 -0.01547928 0.01575722
v -0.05677370 -0.01541415 0.01582081
v -0.05712425 -0.01401540 0.01424884
v -0.05792742 -0.01011381 0.01683236
v -0.05745084 -0.01261402 0.01424884
v -0.05745705 -0.01261664 0.01550681
v -0.05772862 -0.01121632 0.01692576
v -0.05258393 -0.01011381 0.03249043
v -0.05132550 -0.01547928 0.03298925
v -0.05675506 -0.01547928 0.01583075
v -0.05712958 -0.01401592 0.01565984
v -0.05673554 -0.01547928 0.01731925
v -0.05675240 -0.01541625 0.01738086
v -0.05790612 -0.01011381 0.01805058
v -0.05743398 -0.01261612 0.01706090
v -0.05740203 -0.01261770 0.01862492
v -0.05769667 -0.01121632 0.01848382
v -0.05789991 -0.01011381 0.01838445
v -0.05276320 -0.01011381 0.03298925
v -0.05283687 -0.01011381 0.03319394
v -0.05137874 -0.01547928 0.03313035
v -0.05710562 -0.01401540 0.01721392
v -0.05673377 -0.01547928 0.01738880
v -0.05707012 -0.01401802 0.01877993
v -0.05669205 -0.01547928 0.01895282
v -0.05670980 -0.01541625 0.01894487
v -0.05735322 -0.01261454 0.02018496
v -0.05764964 -0.01121474 0.02004585
v -0.05785731 -0.01011381 0.01995244
v -0.05786707 -0.01011381 0.01962056
v -0.05315103 -0.01011381 0.03370866
v -0.05165209 -0.01536267 0.03370866
v -0.05159795 -0.01547928 0.03366295
v -0.05702131 -0.01401330 0.02033798
v -0.05663969 -0.01547928 0.02052280
v -0.05665744 -0.01541572 0.02051287
v -0.05695652 -0.01401540 0.02191790
v -0.05728577 -0.01261402 0.02176090
v -0.05758663 -0.01121579 0.02162378
v -0.05779518 -0.01011381 0.02152839
v -0.05780849 -0.01011381 0.02119253
v -0.05350779 -0.01011381 0.03414189
v -0.05163079 -0.01547928 0.03372058
v -0.05657313 -0.01547928 0.02202323
v -0.05658822 -0.01541467 0.02208881
v -0.05687842 -0.01401802 0.02350378
v -0.05714200 -0.01261559 0.02491676
v -0.05721477 -0.01261822 0.02334678
v -0.05751563 -0.01121842 0.02320767
v -0.05766739 -0.01011381 0.02467033
v -0.05768159 -0.01011381 0.02433647
v -0.05773128 -0.01011381 0.02310830
v -0.05387344 -0.01011381 0.03435454
v -0.05342881 -0.01130614 0.03436248
v -0.05318564 -0.01547928 0.03455128
v -0.05656958 -0.01547928 0.02209676
v -0.05649592 -0.01547928 0.02361308
v -0.05651012 -0.01541730 0.02367469
v -0.05679766 -0.01401487 0.02507774
v -0.05703817 -0.01261244 0.02650463
v -0.05734701 -0.01121474 0.02636552
v -0.05744641 -0.01121474 0.02477367
v -0.05764609 -0.01011381 0.02501017
v -0.05433403 -0.01011381 0.03447775
v -0.05463311 -0.01011381 0.03449365
v -0.05488871 -0.01011381 0.03450557
v -0.05481327 -0.01140173 0.03449762
v -0.05370481 -0.01547928 0.03445589
v -0.05649237 -0.01547928 0.02368264
v -0.05642581 -0.01541467 0.02525063
v -0.05668229 -0.01401067 0.02666759
v -0.05690860 -0.01262137 0.02813025
v -0.05756355 -0.01011381 0.02626019
v -0.05721744 -0.01121737 0.02797723
v -0.05568921 -0.01011381 0.03420151
v -0.05552857 -0.01063434 0.03423132
v -0.05479818 -0.01270909 0.03438832
v -0.05424440 -0.01547928 0.03434062
v -0.05397283 -0.01547928 0.03440024
v -0.05640717 -0.01547928 0.02526057
v -0.05629358 -0.01541625 0.02686036
v -0.05654651 -0.01402170 0.02829918
v -0.05677725 -0.01261507 0.02972011
v -0.05692013 -0.01167014 0.03046337
v -0.05732749 -0.01011381 0.02913783
v -0.05705237 -0.01127725 0.02985326
v -0.05592882 -0.01011381 0.03405246
v -0.05477688 -0.01408893 0.03423927
v -0.05469790 -0.01547928 0.03410015
v -0.05627494 -0.01547928 0.02686831
v -0.05603532 -0.01524974 0.03028252
v -0.05629358 -0.01417507 0.03076544
v -0.05640362 -0.01397863 0.03010962
v -0.05657136 -0.01273640 0.03122848
v -0.05694942 -0.01102250 0.03130201
v -0.05715443 -0.01011381 0.03103174
v -0.05716064 -0.01011381 0.03097609
v -0.05716596 -0.01011381 0.03092442
v -0.05729465 -0.01011381 0.02953330
v -0.05606816 -0.01011381 0.03395508
v -0.05614093 -0.01011381 0.03389546
v -0.05472630 -0.01547928 0.03407233
v -0.05596787 -0.01547928 0.03026265
v -0.05594924 -0.01547928 0.03045542
v -0.05580724 -0.01546510 0.03167960
v -0.05622968 -0.01382998 0.03167960
v -0.05688641 -0.01066322 0.03211284
v -0.05706035 -0.01011381 0.03170544
v -0.05649947 -0.01011381 0.03335491
v -0.05643202 -0.01073676 0.03329331
v -0.05601935 -0.01113543 0.03376430
v -0.05476091 -0.01547928 0.03403259
v -0.05580280 -0.01547928 0.03168159
v -0.05579837 -0.01547928 0.03170147
v -0.05589599 -0.01453120 0.03242087
v -0.05653142 -0.01215862 0.03213470
v -0.05688020 -0.01011381 0.03252620
v -0.05700622 -0.01011381 0.03203533
v -0.05648172 -0.01150048 0.03285212
v -0.05671690 -0.01011381 0.03296937
v -0.05582144 -0.01380004 0.03314028
v -0.05593504 -0.01257620 0.03341652
v -0.05515850 -0.01547928 0.03354569
v -0.05564661 -0.01547928 0.03236721
v -0.05546911 -0.01547928 0.03293161
v -0.05546734 -0.01547245 0.03294155
v -0.05679677 -0.01011381 0.03280045
v -0.05546556 -0.01547928 0.03294155
v -0.05544160 -0.01547928 0.03298925
f 1 2 7
f 1 7 13
f 1 13 22
f 1 22 25
f 1 25 27
f 1 27 17
f 1 17 9
f 1 9 3
f 1 3 4
f 1 4 5
f 1 5 6
f 1 6 12
f 1 12 11
f 1 11 21
f 1 21 31
f 1 31 43
f 1 43 55
f 1 55 65
f 1 65 77
f 1 77 90
f 1 90 101
f 1 101 100
f 1 100 111
f 1 111 124
f 1 124 134
f 1 134 145
f 1 145 151
f 1 151 150
f 1 150 147
f 1 147 146
f 1 146 136
f 1 136 135
f 1 135 126
f 1 126 125
f 1 125 112
f 1 112 102
f 1 102 91
f 1 91 79
f 1 79 78
f 1 78 66
f 1 66 57
f 1 57 47
f 1 47 45
f 1 45 34
f 1 34 32
f 1 32 23
f 1 23 14
f 1 14 8
f 1 8 2
f 2 8 7
f 3 9 16
f 3 16 26
f 3 26 36
f 3 36 40
f 3 40 52
f 3 52 51
f 3 51 63
f 3 63 62
f 3 62 74
f 3 74 73
f 3 73 72
f 3 72 85
f 3 85 95
f 3 95 107
f 3 107 121
f 3 121 120
f 3 120 119
f 3 119 118
f 3 118 130
f 3 130 140
f 3 140 139
f 3 139 149
f 3 149 142
f 3 142 131
f 3 131 123
f 3 123 122
f 3 122 109
f 3 109 97
f 3 97 88
f 3 88 87
f 3 87 86
f 3 86 75
f 3 75 64
f 3 64 53
f 3 53 42
f 3 42 41
f 3 41 30
f 3 30 20
f 3 20 19
f 3 19 10
f 3 10 5
f 3 5 4
f 5 10 11
f 5 11 12
f 5 12 6
f 7 8 14
f 7 14 15
f 7 15 13
f 9 17 18
f 9 18 16
f 10 19 11
f 11 20 21
f 11 19 20
f 13 15 22
f 14 23 24
f 14 24 15
f 15 24 25
f 15 25 22
f 16 18 26
f 17 27 28
f 17 28 18
f 18 28 29
f 18 29 26
f 20 30 21
f 21 30 31
f 23 32 24
f 24 33 25
f 24 32 34
f 24 34 35
f 24 35 33
f 25 33 28
f 25 28 27
f 26 29 36
f 28 33 37
f 28 37 29
f 29 37 38
f 29 38 39
f 29 39 40
f 29 40 36
f 30 41 31
f 31 41 42
f 31 42 43
f 33 35 44
f 33 44 37
f 34 45 35
f 35 46 44
f 35 45 47
f 35 47 48
f 35 48 46
f 37 44 38
f 38 44 46
f 38 46 49
f 38 49 50
f 38 50 39
f 39 50 51
f 39 51 52
f 39 52 40
f 42 53 54
f 42 54 55
f 42 55 43
f 46 48 56
f 46 56 49
f 47 57 48
f 48 57 58
f 48 58 56
f 49 56 59
f 49 59 60
f 49 60 61
f 49 61 50
f 50 61 62
f 50 62 63
f 50 63 51
f 53 64 54
f 54 65 55
f 54 64 65
f 56 58 59
f 57 66 67
f 57 67 58
f 58 67 59
f 59 67 80
f 59 80 68
f 59 68 69
f 59 69 70
f 59 70 60
f 60 70 61
f 61 70 71
f 61 71 72
f 61 72 73
f 61 73 74
f 61 74 62
f 64 75 76
f 64 76 65
f 65 76 77
f 66 78 67
f 67 78 79
f 67 79 80
f 68 80 81
f 68 81 69
f 69 81 82
f 69 82 83
f 69 83 84
f 69 84 70
f 70 84 71
f 71 84 72
f 72 84 83
f 72 83 85
f 75 86 76
f 76 86 77
f 77 86 87
f 77 87 88
f 77 88 89
f 77 89 90
f 79 91 80
f 80 91 92
f 80 92 81
f 81 92 93
f 81 93 82
f 82 93 94
f 82 94 83
f 83 95 85
f 83 94 96
f 83 96 95
f 88 97 89
f 89 97 98
f 89 98 99
f 89 99 100
f 89 100 101
f 89 101 90
f 91 102 92
f 92 102 103
f 92 103 104
f 92 104 93
f 93 104 94
f 94 104 105
f 94 105 106
f 94 106 96
f 95 96 107
f 96 106 108
f 96 108 107
f 97 109 110
f 97 110 98
f 98 110 99
f 99 110 100
f 100 110 111
f 102 112 103
f 103 112 113
f 103 113 114
f 103 114 115
f 103 115 104
f 104 115 105
f 105 115 114
f 105 114 106
f 106 114 116
f 106 116 117
f 106 117 118
f 106 118 119
f 106 119 120
f 106 120 108
f 107 108 121
f 108 120 121
f 109 111 110
f 109 122 111
f 111 122 123
f 111 123 124
f 112 125 113
f 113 125 126
f 113 126 114
f 114 127 128
f 114 128 116
f 114 126 127
f 116 128 129
f 116 129 117
f 117 129 130
f 117 130 118
f 123 131 132
f 123 132 133
f 123 133 124
f 124 133 134
f 126 135 127
f 127 135 136
f 127 136 137
f 127 137 128
f 128 137 138
f 128 138 129
f 129 139 140
f 129 140 130
f 129 138 141
f 129 141 139
f 131 142 132
f 132 142 141
f 132 141 143
f 132 143 144
f 132 144 133
f 133 144 145
f 133 145 134
f 136 146 137
f 137 146 147
f 137 147 148
f 137 148 143
f 137 143 141
f 137 141 138
f 139 141 149
f 141 142 149
f 143 148 150
f 143 150 151
f 143 151 145
f 143 145 144
f 147 150 148

