# https://github.com/mikedh/trimesh
v 0.05169537 0.02795655 0.01003780
v 0.05214305 0.02711215 0.01003780
v 0.05163469 0.02795655 0.00923950
v 0.04157742 0.02795655 0.01003780
v 0.05241691 0.02658315 0.01003780
v 0.05238739 0.02658315 0.00957170
v 0.05163141 0.02795655 0.00919805
v 0.03874046 0.02795655 0.00352381
v 0.04614279 0.01950089 0.01003780
v 0.05301873 0.02534634 0.01003780
v 0.05308761 0.02518739 0.00989306
v 0.05297938 0.02517912 0.00830792
v 0.05225456 0.02658729 0.00796042
v 0.05146743 0.02795655 0.00755552
v 0.04366004 0.01950089 0.00352381
v 0.05090495 0.02795655 0.00352381
v 0.05549329 0.01950089 0.01003780
v 0.05309581 0.02518739 0.01003780
v 0.05339918 0.02452015 0.01003780
v 0.05373044 0.02378833 0.01003780
v 0.05282359 0.02517415 0.00669792
v 0.05363204 0.02377840 0.00861398
v 0.05348446 0.02378833 0.00698676
v 0.05208401 0.02658232 0.00634212
v 0.05127556 0.02795655 0.00596337
v 0.05472255 0.01950089 0.00352381
v 0.05104434 0.02795655 0.00430427
v 0.05138871 0.02710884 0.00352381
v 0.05546213 0.01950089 0.00946458
v 0.05543425 0.01958119 0.00945246
v 0.05546541 0.01958202 0.01003780
v 0.05434702 0.02238429 0.01003780
v 0.05262353 0.02518657 0.00504519
v 0.05329751 0.02378916 0.00535444
v 0.05425847 0.02238347 0.00890028
v 0.05487342 0.02098771 0.00918083
v 0.05410268 0.02238678 0.00727816
v 0.05391738 0.02238512 0.00564966
v 0.05187739 0.02657818 0.00470661
v 0.05104762 0.02795655 0.00432403
v 0.05470615 0.01954808 0.00352381
v 0.05487670 0.01950089 0.00445411
v 0.05168225 0.02658067 0.00352381
v 0.05545393 0.01950089 0.00937212
v 0.05527846 0.01958451 0.00783034
v 0.05523911 0.02019215 0.01003780
v 0.05455529 0.02189338 0.01003780
v 0.05267108 0.02458720 0.00352381
v 0.05239395 0.02518326 0.00352381
v 0.05232179 0.02532813 0.00352381
v 0.05307121 0.02378585 0.00370873
v 0.05370912 0.02238098 0.00401479
v 0.05470615 0.02098440 0.00756318
v 0.05493409 0.02098274 0.01003780
v 0.05451101 0.02098854 0.00592193
v 0.05486030 0.01958782 0.00454083
v 0.05417648 0.02098357 0.00352381
v 0.05489310 0.01950089 0.00455613
v 0.05530798 0.01950089 0.00784437
v 0.05529814 0.01950089 0.00774618
v 0.05508168 0.01958285 0.00619674
v 0.05303841 0.02378585 0.00352381
v 0.05363040 0.02238181 0.00352381
v 0.05312041 0.02359710 0.00352381
v 0.05429783 0.02098688 0.00428004
v 0.05509972 0.01950089 0.00611385
f 1 2 3
f 1 3 7
f 1 7 14
f 1 14 25
f 1 25 40
f 1 40 27
f 1 27 16
f 1 16 8
f 1 8 4
f 1 4 9
f 1 9 17
f 1 17 31
f 1 31 46
f 1 46 54
f 1 54 47
f 1 47 32
f 1 32 20
f 1 20 19
f 1 19 18
f 1 18 10
f 1 10 5
f 1 5 2
f 2 5 6
f 2 6 3
f 3 6 7
f 4 8 9
f 5 10 11
f 5 11 6
f 6 12 13
f 6 13 7
f 6 11 12
f 7 13 14
f 8 15 9
f 8 16 28
f 8 28 43
f 8 43 50
f 8 50 49
f 8 49 48
f 8 48 62
f 8 62 64
f 8 64 63
f 8 63 57
f 8 57 41
f 8 41 26
f 8 26 15
f 9 15 26
f 9 26 42
f 9 42 58
f 9 58 66
f 9 66 60
f 9 60 59
f 9 59 44
f 9 44 29
f 9 29 17
f 10 18 11
f 11 18 19
f 11 19 20
f 11 20 12
f 12 21 13
f 12 20 22
f 12 22 23
f 12 23 21
f 13 21 24
f 13 24 14
f 14 24 25
f 16 27 28
f 17 29 30
f 17 30 31
f 20 32 22
f 21 33 24
f 21 23 34
f 21 34 33
f 22 32 35
f 22 35 23
f 23 35 36
f 23 36 37
f 23 37 38
f 23 38 34
f 24 33 39
f 24 39 25
f 25 39 40
f 26 41 42
f 27 40 28
f 28 40 39
f 28 39 43
f 29 44 30
f 30 44 45
f 30 45 36
f 30 36 46
f 30 46 31
f 32 47 36
f 32 36 35
f 33 48 49
f 33 49 50
f 33 50 39
f 33 34 51
f 33 51 48
f 34 38 52
f 34 52 51
f 36 53 37
f 36 47 54
f 36 54 46
f 36 45 53
f 37 53 38
f 38 53 55
f 38 55 52
f 39 50 43
f 41 56 42
f 41 57 56
f 42 56 58
f 44 59 45
f 45 59 60
f 45 60 61
f 45 61 55
f 45 55 53
f 48 51 62
f 51 52 63
f 51 63 64
f 51 64 62
f 52 55 65
f 52 65 63
f 55 61 65
f 56 61 66
f 56 66 58
f 56 57 65
f 56 65 61
f 57 63 65
f 60 66 61

