# https://github.com/mikedh/trimesh
v 0.05090520 0.02795655 0.00352381
v 0.05138392 0.02711629 0.00352381
v 0.05160134 0.02658232 0.00302748
v 0.05074762 0.02795655 0.00264416
v 0.03874157 0.02795655 0.00352381
v 0.05168313 0.02658067 0.00352381
v 0.05237329 0.02518326 0.00338633
v 0.05203818 0.02518408 0.00168412
v 0.05123033 0.02659391 0.00129498
v 0.05037461 0.02795655 0.00091166
v 0.03434726 0.02795655 -0.00242752
v 0.04366048 0.01950089 0.00352381
v 0.05232143 0.02532813 0.00352381
v 0.05239323 0.02518326 0.00352381
v 0.05267050 0.02458720 0.00352381
v 0.05303952 0.02378585 0.00352381
v 0.05277422 0.02378336 0.00202841
v 0.05161530 0.02517746 -0.00004664
v 0.05236930 0.02378253 0.00029648
v 0.05078551 0.02658150 -0.00044103
v 0.04990785 0.02795655 -0.00086454
v 0.03670299 0.02400191 -0.00242752
v 0.04941117 0.02795655 -0.00242752
v 0.05472104 0.01950089 0.00352381
v 0.03678079 0.02388850 -0.00242752
v 0.03982070 0.01950089 -0.00242752
v 0.05312130 0.02359710 0.00352381
v 0.05343646 0.02238264 0.00233949
v 0.05306146 0.02238016 0.00062504
v 0.05173898 0.02379412 -0.00188575
v 0.05109270 0.02517084 -0.00182458
v 0.05268047 0.02205564 -0.00126883
v 0.05022700 0.02658481 -0.00225043
v 0.04989389 0.02795655 -0.00091056
v 0.04984402 0.02717506 -0.00242752
v 0.05461732 0.01950089 0.00289582
v 0.05470508 0.01954808 0.00352381
v 0.05332675 0.01950089 -0.00242752
v 0.05362995 0.02238181 0.00352381
v 0.05382343 0.02188758 0.00352381
v 0.05403088 0.02098026 0.00262144
v 0.05367782 0.02098440 0.00090467
v 0.05313327 0.02109864 -0.00106028
v 0.05187262 0.02308383 -0.00242752
v 0.05155945 0.02379164 -0.00242752
v 0.05088724 0.02517663 -0.00242752
v 0.05277223 0.02116487 -0.00217877
v 0.05221770 0.02227916 -0.00242752
v 0.05025493 0.02641344 -0.00242752
v 0.05016516 0.02658563 -0.00242752
v 0.05458740 0.01958037 0.00288126
v 0.05469311 0.01958285 0.00352381
v 0.05459737 0.01950089 0.00279621
v 0.05324696 0.01971862 -0.00242752
v 0.05335468 0.01950089 -0.00234014
v 0.05417649 0.02098357 0.00352381
v 0.05427024 0.01950089 0.00117031
v 0.05382542 0.01959030 -0.00058258
v 0.05382343 0.01950089 -0.00070550
v 0.05322303 0.01987094 -0.00232732
v 0.05271438 0.02110775 -0.00242752
v 0.05314324 0.01999429 -0.00242752
v 0.05385934 0.01950089 -0.00056569
f 1 2 3
f 1 3 4
f 1 4 10
f 1 10 21
f 1 21 34
f 1 34 23
f 1 23 11
f 1 11 5
f 1 5 12
f 1 12 24
f 1 24 37
f 1 37 52
f 1 52 56
f 1 56 40
f 1 40 39
f 1 39 27
f 1 27 16
f 1 16 15
f 1 15 14
f 1 14 13
f 1 13 6
f 1 6 2
f 2 6 3
f 3 6 7
f 3 7 8
f 3 8 9
f 3 9 4
f 4 9 10
f 5 11 12
f 6 13 7
f 7 13 14
f 7 14 15
f 7 15 16
f 7 16 17
f 7 17 8
f 8 18 9
f 8 17 19
f 8 19 18
f 9 20 10
f 9 18 20
f 10 20 21
f 11 22 12
f 11 23 35
f 11 35 50
f 11 50 49
f 11 49 46
f 11 46 45
f 11 45 44
f 11 44 48
f 11 48 61
f 11 61 62
f 11 62 54
f 11 54 38
f 11 38 26
f 11 26 25
f 11 25 22
f 12 22 25
f 12 25 26
f 12 26 38
f 12 38 55
f 12 55 59
f 12 59 63
f 12 63 57
f 12 57 53
f 12 53 36
f 12 36 24
f 16 27 17
f 17 27 28
f 17 28 29
f 17 29 19
f 18 19 30
f 18 30 31
f 18 31 20
f 19 29 32
f 19 32 30
f 20 31 33
f 20 33 34
f 20 34 21
f 23 34 35
f 24 36 37
f 27 39 28
f 28 39 40
f 28 40 41
f 28 41 42
f 28 42 29
f 29 43 32
f 29 42 43
f 30 32 44
f 30 44 45
f 30 45 31
f 31 45 46
f 31 46 33
f 32 43 47
f 32 47 48
f 32 48 44
f 33 49 50
f 33 50 35
f 33 35 34
f 33 46 49
f 36 51 52
f 36 52 37
f 36 53 51
f 38 54 55
f 40 56 41
f 41 56 52
f 41 52 51
f 41 51 57
f 41 57 42
f 42 57 58
f 42 58 43
f 43 58 59
f 43 59 60
f 43 60 47
f 47 61 48
f 47 60 61
f 51 53 57
f 54 62 60
f 54 60 55
f 55 60 59
f 57 63 58
f 58 63 59
f 60 62 61

