# https://github.com/mikedh/trimesh
v -0.00016746 -0.05481588 0.03445112
v -0.00838861 -0.05465416 0.03460025
v -0.00016746 -0.05534922 0.03445112
v -0.00016746 -0.05459454 0.03441135
v -0.00896010 -0.05421393 0.03453265
v -0.00896010 -0.05448264 0.03457043
v -0.00896010 -0.05465824 0.03459429
v -0.00391914 -0.05600426 0.03441135
v -0.00071830 -0.05604510 0.03442925
v -0.00016746 -0.05599609 0.03442925
v -0.00016746 -0.05576821 0.03443919
v -0.00896010 -0.05361852 0.03434971
v -0.00896010 -0.05374920 0.03440539
v -0.00896010 -0.05406610 0.03450282
v -0.00016746 -0.05442547 0.03430398
v -0.00896010 -0.05496044 0.03449288
v -0.00242329 -0.05606061 0.03439345
v -0.00697281 -0.05598384 0.03421648
v -0.00249128 -0.05644122 0.03407133
v -0.00134228 -0.05641100 0.03411706
v -0.00016746 -0.05641999 0.03409718
v -0.00016746 -0.05620028 0.03428608
v -0.00896010 -0.05345353 0.03423438
v -0.00016746 -0.05419514 0.03411507
v -0.00896010 -0.05609818 0.03374721
v -0.00709416 -0.05658252 0.03347280
v -0.00675161 -0.05640120 0.03374124
v -0.00215390 -0.05684388 0.03365375
v -0.00016746 -0.05703010 0.03342508
v -0.00016746 -0.05390111 0.03386453
v -0.00016746 -0.05384231 0.03380885
v -0.00016746 -0.05363322 0.03359211
v -0.00896010 -0.05326568 0.03401167
v -0.00896010 -0.05646817 0.03327594
v -0.00783004 -0.05664704 0.03323220
v -0.00168655 -0.05719509 0.03307312
v -0.00084051 -0.05708074 0.03334753
v -0.00016746 -0.05722286 0.03304727
v -0.00016746 -0.05355236 0.03344099
v -0.00896010 -0.05319054 0.03387646
v -0.00752880 -0.05689779 0.03264163
v -0.00896010 -0.05670667 0.03257402
v -0.00647878 -0.05681938 0.03308107
v -0.00590988 -0.05704480 0.03261180
v -0.00224083 -0.05727268 0.03275298
v -0.00107806 -0.05740907 0.03233938
v -0.00024665 -0.05723756 0.03301943
v -0.00016746 -0.05723592 0.03301744
v -0.00896010 -0.05295939 0.03331173
v -0.00896010 -0.05316848 0.03382476
v -0.00016746 -0.05336451 0.03297767
v -0.00747372 -0.05706685 0.03189794
v -0.00671719 -0.05707992 0.03225388
v -0.00896010 -0.05678834 0.03218627
v -0.00285018 -0.05731025 0.03248454
v -0.00016746 -0.05741234 0.03234336
v -0.00247923 -0.05745400 0.03184624
v -0.00192410 -0.05754057 0.03142867
v -0.00016746 -0.05747197 0.03198742
v -0.00016746 -0.05728493 0.03283650
v -0.00016746 -0.05331550 0.03284842
v -0.00896010 -0.05263269 0.03209082
v -0.00563016 -0.05724818 0.03185420
v -0.00864423 -0.05690024 0.03187209
v -0.00827501 -0.05708728 0.03071084
v -0.00696076 -0.05718692 0.03135907
v -0.00464210 -0.05732985 0.03183233
v -0.00351204 -0.05734374 0.03216241
v -0.00896010 -0.05683980 0.03191982
v -0.00434775 -0.05735354 0.03182437
v -0.00370225 -0.05747115 0.03123778
v -0.00278133 -0.05804941 0.02555278
v -0.00092055 -0.05816294 0.02487472
v -0.00074928 -0.05759448 0.03113040
v -0.00016746 -0.05756589 0.03136504
v -0.00016746 -0.05330243 0.03279275
v -0.00016746 -0.05310151 0.03191186
v -0.00896010 -0.05241380 0.03096138
v -0.00514646 -0.05742459 0.03062533
v -0.00464210 -0.05744175 0.03084009
v -0.00896010 -0.05685858 0.03179255
v -0.00896010 -0.05692147 0.03125766
v -0.00896010 -0.05701785 0.03039268
v -0.00896010 -0.05742296 0.02593059
v -0.00836365 -0.05735680 0.02758499
v -0.00776807 -0.05755038 0.02631237
v -0.00590902 -0.05781745 0.02563630
v -0.00404910 -0.05802327 0.02496022
v -0.00218919 -0.05817683 0.02428614
v -0.00032927 -0.05827810 0.02361006
v -0.00016746 -0.05770719 0.02988563
v -0.00016746 -0.05304107 0.03154002
v -0.00016746 -0.05296920 0.03105683
v -0.00896010 -0.05226107 0.02990750
v -0.00464210 -0.05786483 0.02622488
v -0.00896010 -0.05743848 0.02575561
v -0.00896010 -0.05744338 0.02569396
v -0.00717851 -0.05772026 0.02504573
v -0.00464210 -0.05795793 0.02517498
v -0.00667157 -0.05804043 0.02065124
v -0.00531687 -0.05795140 0.02437164
v -0.00345782 -0.05813354 0.02369557
v -0.00464210 -0.05798979 0.02468383
v -0.00481080 -0.05825197 0.01997318
v -0.00422037 -0.05836386 0.01870455
v -0.00159704 -0.05827565 0.02301750
v -0.00016746 -0.05830179 0.02326407
v -0.00016746 -0.05827974 0.02355041
v -0.00016746 -0.05826912 0.02368562
v -0.00016746 -0.05083093 0.01428620
v -0.00896010 -0.05020611 0.01428620
v -0.00896010 -0.05745318 0.02555875
v -0.00844714 -0.05759856 0.02445317
v -0.00785672 -0.05774966 0.02319050
v -0.00540380 -0.05812455 0.02124380
v -0.00852976 -0.05776763 0.02132732
v -0.00794279 -0.05790158 0.02006067
v -0.00607771 -0.05816703 0.01938261
v -0.00464210 -0.05833528 0.01850769
v -0.00489772 -0.05835733 0.01684534
v -0.00464210 -0.05837040 0.01696465
v -0.00362823 -0.05842185 0.01743591
v -0.00236046 -0.05844309 0.01802847
v -0.00295174 -0.05838428 0.01929711
v -0.00100576 -0.05836060 0.02174887
v -0.00016746 -0.05834426 0.02249653
v -0.00016746 -0.05854681 0.01428620
v -0.00896010 -0.05786809 0.01428620
v -0.00896010 -0.05754221 0.02422052
v -0.00896010 -0.05761245 0.02304733
v -0.00896010 -0.05765900 0.02224797
v -0.00896010 -0.05769412 0.02148441
v -0.00896010 -0.05770964 0.02112847
v -0.00896010 -0.05775375 0.01958543
v -0.00870620 -0.05790975 0.01507164
v -0.00616722 -0.05823972 0.01625477
v -0.00548729 -0.05827647 0.01811398
v -0.00557335 -0.05831241 0.01498614
v -0.00464210 -0.05838592 0.01541962
v -0.00464210 -0.05838101 0.01629653
v -0.00430644 -0.05841123 0.01557671
v -0.00303695 -0.05847086 0.01616728
v -0.00176918 -0.05849863 0.01675984
v -0.00041448 -0.05842267 0.02048024
v -0.00016746 -0.05836305 0.02213861
v -0.00044288 -0.05854763 0.01428620
v -0.00016746 -0.05854927 0.01441545
v -0.00833956 -0.05796529 0.01428620
v -0.00896010 -0.05786891 0.01436971
v -0.00896010 -0.05786728 0.01516311
v -0.00896010 -0.05786973 0.01495233
v -0.00896010 -0.05786973 0.01490262
v -0.00706490 -0.05814334 0.01428620
v -0.00684026 -0.05817356 0.01439358
v -0.00582725 -0.05828055 0.01428620
v -0.00524888 -0.05833201 0.01428620
v -0.00375475 -0.05843492 0.01428620
v -0.00371430 -0.05843737 0.01430608
v -0.00244567 -0.05850271 0.01489864
v -0.00117703 -0.05853946 0.01549120
v -0.00016746 -0.05854355 0.01596247
v -0.00016746 -0.05842185 0.02059557
v -0.00016746 -0.05840062 0.02115631
v -0.00061674 -0.05854600 0.01428620
v -0.00687813 -0.05816703 0.01428620
v -0.00679207 -0.05817764 0.01428620
v -0.00366180 -0.05843982 0.01428620
v -0.00216164 -0.05850434 0.01428620
v -0.00076821 -0.05854191 0.01428620
f 1 2 3
f 1 3 11
f 1 11 10
f 1 10 22
f 1 22 21
f 1 21 29
f 1 29 38
f 1 38 48
f 1 48 60
f 1 60 56
f 1 56 59
f 1 59 75
f 1 75 91
f 1 91 109
f 1 109 108
f 1 108 107
f 1 107 126
f 1 126 145
f 1 145 163
f 1 163 162
f 1 162 161
f 1 161 147
f 1 147 127
f 1 127 110
f 1 110 93
f 1 93 92
f 1 92 77
f 1 77 76
f 1 76 61
f 1 61 51
f 1 51 39
f 1 39 32
f 1 32 31
f 1 31 30
f 1 30 24
f 1 24 15
f 1 15 4
f 1 4 2
f 2 4 5
f 2 5 6
f 2 6 7
f 2 7 8
f 2 8 9
f 2 9 10
f 2 10 11
f 2 11 3
f 4 12 13
f 4 13 14
f 4 14 5
f 4 15 12
f 5 14 13
f 5 13 12
f 5 12 23
f 5 23 33
f 5 33 40
f 5 40 50
f 5 50 49
f 5 49 62
f 5 62 78
f 5 78 94
f 5 94 111
f 5 111 128
f 5 128 149
f 5 149 152
f 5 152 151
f 5 151 150
f 5 150 134
f 5 134 133
f 5 133 132
f 5 132 131
f 5 131 130
f 5 130 129
f 5 129 112
f 5 112 97
f 5 97 96
f 5 96 84
f 5 84 83
f 5 83 82
f 5 82 81
f 5 81 69
f 5 69 54
f 5 54 42
f 5 42 34
f 5 34 25
f 5 25 16
f 5 16 7
f 5 7 6
f 7 16 8
f 8 17 9
f 8 16 18
f 8 18 19
f 8 19 17
f 9 17 20
f 9 20 21
f 9 21 22
f 9 22 10
f 12 15 23
f 15 24 23
f 16 25 18
f 17 19 20
f 18 25 26
f 18 26 27
f 18 27 28
f 18 28 19
f 19 28 20
f 20 28 21
f 21 28 29
f 23 24 30
f 23 30 31
f 23 31 32
f 23 32 33
f 25 34 26
f 26 28 27
f 26 34 35
f 26 35 36
f 26 36 28
f 28 36 37
f 28 37 29
f 29 37 38
f 32 39 40
f 32 40 33
f 34 41 35
f 34 42 41
f 35 41 43
f 35 43 36
f 36 43 44
f 36 44 45
f 36 45 46
f 36 46 47
f 36 47 37
f 37 47 38
f 38 47 48
f 39 49 50
f 39 50 40
f 39 51 49
f 41 42 52
f 41 52 53
f 41 53 44
f 41 44 43
f 42 54 52
f 44 53 55
f 44 55 45
f 45 55 46
f 46 56 47
f 46 55 57
f 46 57 58
f 46 58 59
f 46 59 56
f 47 60 48
f 47 56 60
f 49 51 61
f 49 61 62
f 52 63 53
f 52 54 64
f 52 64 65
f 52 65 66
f 52 66 63
f 53 63 67
f 53 67 68
f 53 68 55
f 54 69 64
f 55 68 57
f 57 68 70
f 57 70 71
f 57 71 58
f 58 71 72
f 58 72 73
f 58 73 74
f 58 74 75
f 58 75 59
f 61 76 62
f 62 76 77
f 62 77 78
f 63 66 79
f 63 79 80
f 63 80 67
f 64 69 81
f 64 81 82
f 64 82 65
f 65 82 83
f 65 83 84
f 65 84 85
f 65 85 86
f 65 86 66
f 66 86 87
f 66 87 79
f 67 70 68
f 67 80 71
f 67 71 70
f 71 80 88
f 71 88 72
f 72 88 89
f 72 89 73
f 73 89 90
f 73 90 74
f 74 91 75
f 74 90 91
f 77 92 78
f 78 92 93
f 78 93 94
f 79 87 95
f 79 95 80
f 80 95 88
f 84 96 86
f 84 86 85
f 86 96 97
f 86 97 98
f 86 98 87
f 87 99 95
f 87 98 100
f 87 100 101
f 87 101 99
f 88 102 89
f 88 95 99
f 88 99 103
f 88 103 104
f 88 104 105
f 88 105 102
f 89 102 105
f 89 105 106
f 89 106 90
f 90 107 108
f 90 108 109
f 90 109 91
f 90 106 107
f 93 110 111
f 93 111 94
f 97 112 98
f 98 113 114
f 98 114 100
f 98 112 113
f 99 101 103
f 100 115 101
f 100 114 116
f 100 116 117
f 100 117 118
f 100 118 104
f 100 104 115
f 101 115 104
f 101 104 103
f 104 118 105
f 105 119 120
f 105 120 121
f 105 121 122
f 105 122 123
f 105 123 124
f 105 124 125
f 105 125 106
f 105 118 119
f 106 125 126
f 106 126 107
f 110 127 146
f 110 146 164
f 110 164 169
f 110 169 168
f 110 168 167
f 110 167 157
f 110 157 156
f 110 156 155
f 110 155 166
f 110 166 165
f 110 165 153
f 110 153 148
f 110 148 128
f 110 128 111
f 112 129 113
f 113 129 130
f 113 130 131
f 113 131 114
f 114 131 116
f 116 131 132
f 116 132 133
f 116 133 117
f 117 133 134
f 117 134 135
f 117 135 136
f 117 136 118
f 118 136 137
f 118 137 119
f 119 137 120
f 120 136 138
f 120 138 139
f 120 139 140
f 120 140 121
f 120 137 136
f 121 140 122
f 122 140 141
f 122 141 142
f 122 142 143
f 122 143 123
f 123 143 144
f 123 144 124
f 124 144 125
f 125 144 145
f 125 145 126
f 127 147 146
f 128 148 149
f 134 150 135
f 135 151 152
f 135 152 149
f 135 149 148
f 135 148 153
f 135 153 154
f 135 154 136
f 135 150 151
f 136 154 138
f 138 154 155
f 138 155 156
f 138 156 139
f 139 141 140
f 139 156 141
f 141 156 157
f 141 157 158
f 141 158 159
f 141 159 142
f 142 159 160
f 142 160 143
f 143 160 161
f 143 161 144
f 144 162 163
f 144 163 145
f 144 161 162
f 146 147 160
f 146 160 164
f 147 161 160
f 153 165 154
f 154 165 166
f 154 166 155
f 157 167 158
f 158 167 159
f 159 167 168
f 159 168 169
f 159 169 164
f 159 164 160

