# https://github.com/mikedh/trimesh
v 0.05599343 -0.01762292 0.01677305
v 0.05599210 -0.01762292 0.01743784
v 0.05579621 -0.01821341 0.01734309
v 0.05579621 -0.01821927 0.01424715
v 0.05598946 -0.01762292 0.01433804
v 0.05596828 -0.01762292 0.01852554
v 0.05577106 -0.01820838 0.01852554
v 0.05527736 -0.01961717 0.01709581
v 0.05530648 -0.01962053 0.01401682
v 0.05579092 -0.01820671 0.01271728
v 0.05598416 -0.01762292 0.01345063
v 0.05530516 -0.01961717 0.01247616
v 0.04836552 -0.01762292 0.01852554
v 0.05566650 -0.01848729 0.01852554
v 0.05524162 -0.01961801 0.01852554
v 0.05502852 -0.02017165 0.01852554
v 0.05470689 -0.02101592 0.01837610
v 0.05475851 -0.02101759 0.01530943
v 0.05478498 -0.02101257 0.01378264
v 0.05573797 -0.01821508 0.01113656
v 0.05595372 -0.01762292 0.01213260
v 0.05597357 -0.01762292 0.01280124
v 0.05476910 -0.02101927 0.01222350
v 0.05524559 -0.01961466 0.01090701
v 0.04683014 -0.01762292 0.01065665
v 0.04247152 -0.02617870 0.01065665
v 0.04411676 -0.02617870 0.01852554
v 0.05470159 -0.02101592 0.01852554
v 0.05463674 -0.02118008 0.01852554
v 0.05414701 -0.02241717 0.01811342
v 0.05418936 -0.02241717 0.01504366
v 0.05421054 -0.02241382 0.01351302
v 0.05570621 -0.01821425 0.01065665
v 0.05585710 -0.01773097 0.01065665
v 0.05592460 -0.01762292 0.01121899
v 0.05531707 -0.01935669 0.01065665
v 0.05471351 -0.02098995 0.01065665
v 0.05419068 -0.02241466 0.01195773
v 0.05522839 -0.01961382 0.01065665
v 0.05589019 -0.01762292 0.01065665
v 0.05235485 -0.02617870 0.01065665
v 0.05237867 -0.02617870 0.01852554
v 0.05413641 -0.02241633 0.01852554
v 0.05394052 -0.02287197 0.01852554
v 0.05352888 -0.02381508 0.01852554
v 0.05353947 -0.02382094 0.01782686
v 0.05356859 -0.02382094 0.01475094
v 0.05358580 -0.02380754 0.01322877
v 0.05470292 -0.02101592 0.01065665
v 0.05355800 -0.02381424 0.01166424
v 0.05412980 -0.02241382 0.01065665
v 0.05284723 -0.02521884 0.01065665
v 0.05288561 -0.02522052 0.01134301
v 0.05238000 -0.02617870 0.01111345
v 0.05240779 -0.02617870 0.01730843
v 0.05287105 -0.02520963 0.01852554
v 0.05315695 -0.02460490 0.01852554
v 0.05288826 -0.02520795 0.01753567
v 0.05291738 -0.02522219 0.01444666
v 0.05292135 -0.02521298 0.01291294
v 0.05351035 -0.02381340 0.01065665
v 0.05321122 -0.02445330 0.01065665
v 0.05242500 -0.02617870 0.01267953
v 0.05243029 -0.02617870 0.01576854
v 0.05243691 -0.02617870 0.01528169
v 0.05243824 -0.02617870 0.01422712
v 0.05243824 -0.02617870 0.01374797
f 1 2 3
f 1 3 4
f 1 4 5
f 1 5 11
f 1 11 22
f 1 22 21
f 1 21 35
f 1 35 40
f 1 40 25
f 1 25 13
f 1 13 6
f 1 6 2
f 2 6 3
f 3 6 7
f 3 7 8
f 3 8 9
f 3 9 4
f 4 10 11
f 4 11 5
f 4 9 12
f 4 12 10
f 6 13 27
f 6 27 42
f 6 42 56
f 6 56 57
f 6 57 45
f 6 45 44
f 6 44 43
f 6 43 29
f 6 29 28
f 6 28 16
f 6 16 15
f 6 15 14
f 6 14 7
f 7 14 8
f 8 15 16
f 8 16 17
f 8 17 18
f 8 18 19
f 8 19 9
f 8 14 15
f 9 19 12
f 10 20 21
f 10 21 22
f 10 22 11
f 10 12 20
f 12 19 23
f 12 23 24
f 12 24 20
f 13 25 26
f 13 26 27
f 16 28 17
f 17 28 29
f 17 29 30
f 17 30 18
f 18 30 19
f 19 30 31
f 19 31 32
f 19 32 23
f 20 33 34
f 20 34 35
f 20 35 21
f 20 24 36
f 20 36 33
f 23 37 24
f 23 32 38
f 23 38 37
f 24 39 36
f 24 37 39
f 25 40 34
f 25 34 33
f 25 33 36
f 25 36 39
f 25 39 37
f 25 37 49
f 25 49 51
f 25 51 61
f 25 61 62
f 25 62 52
f 25 52 41
f 25 41 26
f 26 41 54
f 26 54 63
f 26 63 67
f 26 67 66
f 26 66 65
f 26 65 64
f 26 64 55
f 26 55 42
f 26 42 27
f 29 43 30
f 30 43 44
f 30 44 45
f 30 45 46
f 30 46 31
f 31 46 32
f 32 46 47
f 32 47 48
f 32 48 38
f 34 40 35
f 37 38 49
f 38 48 50
f 38 50 51
f 38 51 49
f 41 52 53
f 41 53 54
f 42 55 56
f 45 57 46
f 46 57 56
f 46 56 58
f 46 58 59
f 46 59 47
f 47 59 48
f 48 59 60
f 48 60 50
f 50 60 53
f 50 53 61
f 50 61 51
f 52 62 53
f 53 62 61
f 53 60 63
f 53 63 54
f 55 64 58
f 55 58 56
f 58 64 65
f 58 65 59
f 59 65 66
f 59 66 67
f 59 67 60
f 60 67 63

