# https://github.com/mikedh/trimesh
v -0.03449081 0.03517148 0.00685827
v -0.03690119 0.03517148 0.01325451
v -0.04264685 0.02795826 0.01325451
v -0.04058392 0.02795826 0.00685827
v -0.04645210 0.03517148 0.00685827
v -0.04699595 0.03517148 0.01325451
v -0.05163880 0.02795826 0.01325451
v -0.05121245 0.02795826 0.00685827
v -0.04659645 0.03498296 0.00685827
v -0.04661828 0.03517148 0.00819749
v -0.04698587 0.03517148 0.01266034
v -0.04714366 0.03498013 0.01325451
v -0.05162537 0.02798297 0.01325451
v -0.05160690 0.02798650 0.01205427
v -0.05162201 0.02795826 0.01204739
v -0.05130477 0.02795826 0.00756388
v -0.05119566 0.02798932 0.00685827
v -0.04676095 0.03497307 0.00812988
v -0.04727962 0.03405094 0.00685827
v -0.04675927 0.03517148 0.00946535
v -0.04697748 0.03517148 0.01245185
v -0.04713023 0.03498013 0.01259335
v -0.04778990 0.03410107 0.01325451
v -0.05140044 0.02838472 0.01325451
v -0.05082302 0.02939511 0.01242680
v -0.05154312 0.02798579 0.01053911
v -0.05155822 0.02795826 0.01056165
v -0.05128798 0.02798932 0.00757139
v -0.05144576 0.02795826 0.00904962
v -0.05143737 0.02797379 0.00903647
v -0.05037485 0.02938240 0.00685827
v -0.04760862 0.03360047 0.00685827
v -0.04770765 0.03360258 0.00770225
v -0.04789229 0.03357434 0.00914666
v -0.04692041 0.03497731 0.00960121
v -0.04677941 0.03517148 0.00966821
v -0.04690698 0.03517148 0.01115958
v -0.04703120 0.03500202 0.01110260
v -0.04810379 0.03359341 0.01214756
v -0.04816086 0.03358211 0.01325451
v -0.05083645 0.02938876 0.01325451
v -0.05048060 0.02999739 0.01325451
v -0.04999886 0.03077901 0.01279871
v -0.05076428 0.02937746 0.01089661
v -0.05155655 0.02795826 0.01053285
v -0.05066356 0.02937464 0.00939773
v -0.05050914 0.02938735 0.00793391
v -0.04950873 0.03078819 0.00685827
v -0.04858385 0.03218338 0.00685827
v -0.04880206 0.03217703 0.00872404
v -0.04800811 0.03358705 0.01064367
v -0.04893802 0.03218056 0.01020603
v -0.04689356 0.03517148 0.01097989
v -0.04902866 0.03220033 0.01172056
v -0.04912602 0.03217068 0.01320192
v -0.04901523 0.03233660 0.01325451
v -0.05001061 0.03077689 0.01325451
v -0.04912770 0.03217138 0.01325451
v -0.04992165 0.03078395 0.01129419
v -0.04982429 0.03078889 0.00979843
v -0.04967658 0.03079101 0.00832334
f 1 2 3
f 1 3 4
f 1 4 8
f 1 8 17
f 1 17 31
f 1 31 48
f 1 48 49
f 1 49 32
f 1 32 19
f 1 19 9
f 1 9 5
f 1 5 10
f 1 10 20
f 1 20 36
f 1 36 53
f 1 53 37
f 1 37 21
f 1 21 11
f 1 11 6
f 1 6 2
f 2 6 12
f 2 12 23
f 2 23 40
f 2 40 56
f 2 56 58
f 2 58 57
f 2 57 42
f 2 42 41
f 2 41 24
f 2 24 13
f 2 13 7
f 2 7 3
f 3 7 15
f 3 15 27
f 3 27 45
f 3 45 29
f 3 29 16
f 3 16 8
f 3 8 4
f 5 9 10
f 6 11 12
f 7 13 14
f 7 14 15
f 8 16 17
f 9 18 10
f 9 19 18
f 10 18 20
f 11 21 22
f 11 22 12
f 12 22 23
f 13 24 14
f 14 24 25
f 14 25 26
f 14 26 15
f 15 26 27
f 16 28 17
f 16 29 30
f 16 30 28
f 17 28 31
f 18 19 32
f 18 32 33
f 18 33 34
f 18 34 35
f 18 35 20
f 20 35 36
f 21 37 22
f 22 37 38
f 22 38 39
f 22 39 23
f 23 39 40
f 24 41 25
f 25 41 42
f 25 42 43
f 25 43 44
f 25 44 26
f 26 30 45
f 26 45 27
f 26 44 46
f 26 46 30
f 28 30 46
f 28 46 47
f 28 47 31
f 29 45 30
f 31 47 48
f 32 49 33
f 33 49 50
f 33 50 34
f 34 51 38
f 34 38 35
f 34 50 52
f 34 52 51
f 35 38 53
f 35 53 36
f 37 53 38
f 38 51 39
f 39 51 54
f 39 54 55
f 39 55 56
f 39 56 40
f 42 57 43
f 43 57 58
f 43 58 55
f 43 55 59
f 43 59 44
f 44 59 60
f 44 60 46
f 46 60 61
f 46 61 47
f 47 61 48
f 48 61 49
f 49 61 50
f 50 61 60
f 50 60 52
f 51 52 54
f 52 60 54
f 54 60 59
f 54 59 55
f 55 58 56

