# https://github.com/mikedh/trimesh
v -0.03839705 0.01320299 -0.00598167
v -0.04006902 0.01320299 -0.00463922
v -0.04039446 -0.00032565 -0.00598167
v -0.05391483 0.01320299 -0.00598167
v -0.04232988 -0.00032565 -0.00463922
v -0.05439351 0.01320299 -0.00463922
v -0.05549897 -0.00032565 -0.00598167
v -0.05405086 0.01265337 -0.00598167
v -0.05416795 0.01320299 -0.00527562
v -0.05598455 -0.00032565 -0.00463922
v -0.05437802 0.01320299 -0.00468692
v -0.05452094 0.01268516 -0.00463922
v -0.05574521 -0.00032565 -0.00532358
v -0.05574865 -0.00001442 -0.00532516
v -0.05550242 -0.00001442 -0.00598167
v -0.05406808 0.01258318 -0.00598167
v -0.05451061 0.01257921 -0.00475012
v -0.05598800 -0.00001575 -0.00463922
v -0.05454504 0.01258053 -0.00463922
v -0.05573832 0.00138546 -0.00532030
v -0.05548692 0.00138546 -0.00598167
v -0.05409218 0.01247855 -0.00598167
v -0.05478439 0.01118462 -0.00487549
v -0.05486015 0.01118462 -0.00463922
v -0.05457431 0.01245207 -0.00463922
v -0.05598111 0.00066499 -0.00463922
v -0.05597078 0.00138546 -0.00463922
v -0.05569872 0.00278534 -0.00530138
v -0.05546454 0.00210063 -0.00598167
v -0.05436596 0.01118462 -0.00598167
v -0.05441245 0.01094358 -0.00598167
v -0.05501340 0.00978342 -0.00498271
v -0.05512532 0.00978209 -0.00463922
v -0.05594667 0.00207944 -0.00463922
v -0.05562640 0.00418522 -0.00526787
v -0.05540083 0.00344356 -0.00598167
v -0.05544043 0.00278534 -0.00598167
v -0.05592084 0.00278534 -0.00463922
v -0.05588124 0.00346210 -0.00463922
v -0.05583819 0.00418522 -0.00463922
v -0.05462941 0.00978342 -0.00598167
v -0.05487220 0.00838354 -0.00598167
v -0.05521831 0.00838354 -0.00507812
v -0.05536294 0.00838354 -0.00463922
v -0.05577276 0.00495337 -0.00463922
v -0.05552308 0.00558510 -0.00522017
v -0.05530096 0.00480106 -0.00598167
v -0.05535434 0.00418522 -0.00598167
v -0.05506850 0.00698366 -0.00598167
v -0.05538361 0.00698366 -0.00515538
v -0.05555408 0.00698366 -0.00463922
v -0.05571766 0.00558510 -0.00463922
v -0.05513221 0.00643933 -0.00598167
v -0.05523208 0.00558510 -0.00598167
v -0.05562123 0.00641682 -0.00463922
f 1 2 3
f 1 3 7
f 1 7 15
f 1 15 21
f 1 21 29
f 1 29 37
f 1 37 36
f 1 36 48
f 1 48 47
f 1 47 54
f 1 54 53
f 1 53 49
f 1 49 42
f 1 42 41
f 1 41 31
f 1 31 30
f 1 30 22
f 1 22 16
f 1 16 8
f 1 8 4
f 1 4 9
f 1 9 11
f 1 11 6
f 1 6 2
f 2 5 3
f 2 6 12
f 2 12 19
f 2 19 25
f 2 25 24
f 2 24 33
f 2 33 44
f 2 44 51
f 2 51 55
f 2 55 52
f 2 52 45
f 2 45 40
f 2 40 39
f 2 39 38
f 2 38 34
f 2 34 27
f 2 27 26
f 2 26 18
f 2 18 10
f 2 10 5
f 3 5 10
f 3 10 13
f 3 13 7
f 4 8 9
f 6 11 12
f 7 13 14
f 7 14 15
f 8 16 17
f 8 17 9
f 9 17 11
f 10 18 14
f 10 14 13
f 11 17 12
f 12 17 19
f 14 20 15
f 14 18 20
f 15 20 21
f 16 22 17
f 17 23 24
f 17 24 25
f 17 25 19
f 17 22 23
f 18 26 20
f 20 26 27
f 20 27 28
f 20 28 29
f 20 29 21
f 22 30 23
f 23 30 31
f 23 31 32
f 23 32 33
f 23 33 24
f 27 34 28
f 28 35 36
f 28 36 37
f 28 37 29
f 28 34 38
f 28 38 39
f 28 39 40
f 28 40 35
f 31 41 32
f 32 41 42
f 32 42 43
f 32 43 44
f 32 44 33
f 35 40 45
f 35 45 46
f 35 46 47
f 35 47 48
f 35 48 36
f 42 49 43
f 43 50 51
f 43 51 44
f 43 49 50
f 45 52 46
f 46 50 49
f 46 49 53
f 46 53 54
f 46 54 47
f 46 52 50
f 50 52 55
f 50 55 51

