# https://github.com/mikedh/trimesh
v -0.00896010 -0.05787091 0.01495160
v -0.00896010 -0.05786789 0.01516341
v -0.01056407 -0.05759832 0.01574689
v -0.00997368 -0.05770997 0.01447803
v -0.00988489 -0.05772405 0.01428620
v -0.00896010 -0.05786890 0.01428620
v -0.00896010 -0.05775423 0.01958546
v -0.00980176 -0.05759832 0.02073643
v -0.01115541 -0.05747862 0.01701576
v -0.01183459 -0.05737803 0.01515542
v -0.01242309 -0.05726035 0.01642429
v -0.01038176 -0.05763855 0.01428620
v -0.00896010 -0.05020722 0.01428620
v -0.00896010 -0.05770997 0.02112808
v -0.01107228 -0.05740318 0.02014496
v -0.00896010 -0.05769387 0.02148376
v -0.00912447 -0.05761743 0.02259676
v -0.01039120 -0.05744744 0.02200529
v -0.01174768 -0.05733378 0.01828462
v -0.01310133 -0.05710846 0.01456395
v -0.01143123 -0.05745146 0.01428620
v -0.01233996 -0.05718390 0.01955348
v -0.01301915 -0.05710947 0.01769315
v -0.01368888 -0.05698273 0.01583281
v -0.01861037 -0.04759499 0.01428620
v -0.00896010 -0.05226120 0.02990822
v -0.01166172 -0.05724627 0.02141382
v -0.00896010 -0.05765766 0.02224508
v -0.00896010 -0.05761240 0.02304836
v -0.00896010 -0.05754199 0.02421931
v -0.00972147 -0.05745951 0.02386762
v -0.01098632 -0.05727342 0.02327415
v -0.01369361 -0.05696563 0.01428620
v -0.01320240 -0.05707929 0.01428620
v -0.01297286 -0.05713160 0.01428620
v -0.01292846 -0.05700788 0.02082235
v -0.01427927 -0.05681374 0.01709968
v -0.01361237 -0.05692942 0.01896201
v -0.01453338 -0.05676848 0.01544116
v -0.01453338 -0.05676244 0.01428620
v -0.01425660 -0.05683185 0.01428620
v -0.01453432 -0.05675641 0.01640830
v -0.01861037 -0.05557955 0.01428620
v -0.01861037 -0.04975458 0.03025990
v -0.01861037 -0.04991351 0.03140888
v -0.00896010 -0.05241409 0.03096128
v -0.01225778 -0.05706622 0.02268468
v -0.00896010 -0.05745348 0.02555811
v -0.00903662 -0.05743134 0.02571997
v -0.01030997 -0.05728147 0.02513049
v -0.01157576 -0.05709237 0.02453902
v -0.01352452 -0.05681073 0.02209121
v -0.01453432 -0.05673529 0.01763720
v -0.01453432 -0.05674736 0.01698178
v -0.01419520 -0.05673126 0.02023088
v -0.01453432 -0.05670913 0.01853040
v -0.01496507 -0.05665783 0.01523935
v -0.01530986 -0.05655926 0.01428620
v -0.01555546 -0.05647879 0.01650821
v -0.01846584 -0.05562682 0.01428620
v -0.01808894 -0.05574149 0.01532527
v -0.01861037 -0.05557050 0.01508149
v -0.01861037 -0.05004226 0.03213622
v -0.00896010 -0.05263337 0.03209027
v -0.01284628 -0.05686605 0.02395155
v -0.00896010 -0.05743838 0.02575593
v -0.00896010 -0.05742330 0.02593178
v -0.00963078 -0.05723319 0.02699083
v -0.01089752 -0.05707829 0.02639936
v -0.01216615 -0.05688114 0.02580789
v -0.01343761 -0.05665884 0.02521642
v -0.01453432 -0.05641542 0.02470287
v -0.01470530 -0.05637619 0.02462495
v -0.01478937 -0.05651601 0.02149774
v -0.01453432 -0.05660855 0.02095223
v -0.01488100 -0.05662565 0.01837054
v -0.01453432 -0.05664979 0.02007102
v -0.01623275 -0.05630075 0.01464787
v -0.01606367 -0.05634803 0.01428620
v -0.01682598 -0.05611869 0.01591674
v -0.01700546 -0.05608248 0.01428620
v -0.01614585 -0.05628365 0.01777707
v -0.01760812 -0.05590545 0.01428620
v -0.01741259 -0.05590947 0.01718560
v -0.01732474 -0.05585516 0.02031480
v -0.01800487 -0.05568516 0.01845447
v -0.01861037 -0.05545381 0.01974931
v -0.01861037 -0.05553730 0.01643627
v -0.01861037 -0.05011770 0.03251389
v -0.01861037 -0.05020119 0.03286957
v -0.00896010 -0.05295826 0.03331317
v -0.00896010 -0.05729857 0.02730655
v -0.00896010 -0.05701793 0.03039378
v -0.00954577 -0.05695959 0.03012203
v -0.01081629 -0.05679362 0.02953056
v -0.01140667 -0.05655323 0.03079742
v -0.01267247 -0.05635105 0.03020395
v -0.01453432 -0.05586219 0.03088334
v -0.01453338 -0.05628868 0.02624550
v -0.01529002 -0.05613076 0.02589181
v -0.01597960 -0.05606437 0.02403947
v -0.01606367 -0.05619815 0.02090627
v -0.01546950 -0.05642246 0.01963741
v -0.01673624 -0.05607645 0.01904594
v -0.01741731 -0.05596379 0.01428620
v -0.01861037 -0.05541961 0.02078438
v -0.01665405 -0.05596278 0.02217514
v -0.01791418 -0.05561375 0.02158567
v -0.01861037 -0.05021426 0.03290953
v -0.01861037 -0.05040538 0.03342107
v -0.00896010 -0.05316748 0.03382471
v -0.00896010 -0.05692137 0.03125901
v -0.01027974 -0.05668499 0.03145883
v -0.01036853 -0.05656831 0.03213023
v -0.01332898 -0.05606940 0.03140888
v -0.01453432 -0.05586119 0.03089134
v -0.01625165 -0.05531802 0.03155075
v -0.01579917 -0.05558055 0.03028988
v -0.01656148 -0.05581995 0.02530234
v -0.01861037 -0.05540050 0.02125996
v -0.01783483 -0.05545381 0.02471087
v -0.01851118 -0.05534116 0.02285253
v -0.01861037 -0.05531098 0.02280657
v -0.01861037 -0.05536731 0.02183744
v -0.01861037 -0.05044662 0.03351099
v -0.00896010 -0.05318961 0.03387666
v -0.00896010 -0.05685901 0.03179253
v -0.00896010 -0.05683990 0.03192042
v -0.01181570 -0.05627661 0.03207228
v -0.00933134 -0.05665683 0.03255585
v -0.01061697 -0.05638826 0.03270771
v -0.01217749 -0.05605532 0.03273369
v -0.01373045 -0.05585817 0.03207428
v -0.01453432 -0.05566303 0.03211224
v -0.01453432 -0.05569623 0.03192241
v -0.01503970 -0.05553831 0.03213822
v -0.01653692 -0.05510679 0.03228209
v -0.01746076 -0.05491467 0.03182051
v -0.01745037 -0.05501224 0.03104320
v -0.01715471 -0.05552121 0.02657120
v -0.01842617 -0.05517117 0.02597773
v -0.01861037 -0.05521643 0.02435719
v -0.01861037 -0.05088819 0.03402653
v -0.00969785 -0.05323286 0.03426432
v -0.00896010 -0.05326505 0.03401055
v -0.00896010 -0.05678860 0.03218618
v -0.01284722 -0.05598491 0.03240998
v -0.00896010 -0.05670612 0.03257383
v -0.00967896 -0.05635406 0.03330518
v -0.01160505 -0.05610461 0.03301744
v -0.01397416 -0.05560872 0.03283360
v -0.01558663 -0.05524761 0.03276766
v -0.01813050 -0.05460185 0.03234004
v -0.01711314 -0.05478190 0.03289554
v -0.01861037 -0.05456765 0.03159071
v -0.01861037 -0.05460788 0.03132695
v -0.01861037 -0.05444292 0.03233005
v -0.01861037 -0.05466823 0.03068752
v -0.01861037 -0.05511484 0.02589181
v -0.01861037 -0.05126036 0.03442817
v -0.00896010 -0.05361710 0.03435224
v -0.00896010 -0.05345114 0.03423634
v -0.01861037 -0.05141728 0.03453408
v -0.01800298 -0.05180957 0.03466396
v -0.00896010 -0.05646773 0.03327720
v -0.01022779 -0.05606940 0.03359092
v -0.01133299 -0.05569120 0.03389065
v -0.01109117 -0.05608952 0.03332916
v -0.01259595 -0.05571936 0.03341908
v -0.01554034 -0.05501827 0.03336712
v -0.01840444 -0.05434334 0.03298746
v -0.01740409 -0.05449824 0.03335713
v -0.01861037 -0.05427092 0.03298746
v -0.00896010 -0.05374686 0.03440619
v -0.01861037 -0.05161745 0.03463798
v -0.01861037 -0.05179950 0.03468195
v -0.00896010 -0.05465817 0.03459202
v -0.00896010 -0.05448315 0.03457005
v -0.00896010 -0.05421257 0.03453408
v -0.00896010 -0.05406471 0.03450410
v -0.00896010 -0.05609757 0.03374878
v -0.01161260 -0.05509673 0.03429229
v -0.01234941 -0.05514602 0.03418639
v -0.01437562 -0.05462498 0.03422635
v -0.01750799 -0.05397318 0.03407649
v -0.01659077 -0.05443185 0.03380473
v -0.01836193 -0.05392993 0.03383670
v -0.01861037 -0.05421358 0.03313533
v -0.01861037 -0.05409791 0.03339510
v -0.01861037 -0.05217067 0.03469793
v -0.01001997 -0.05466320 0.03457804
v -0.00896010 -0.05496094 0.03449411
v -0.01785656 -0.05251367 0.03469194
v -0.01629793 -0.05323286 0.03466196
v -0.01177413 -0.05458978 0.03456805
v -0.01310889 -0.05461593 0.03444815
v -0.01779705 -0.05359397 0.03430228
v -0.01861037 -0.05376396 0.03394260
v -0.01861037 -0.05350847 0.03419438
v -0.01861037 -0.05361006 0.03411645
v -0.01861037 -0.05383839 0.03384270
v -0.01861037 -0.05394703 0.03366486
v -0.01861037 -0.05253077 0.03466396
v -0.01848946 -0.05257000 0.03466396
v -0.01777249 -0.05310512 0.03458004
v -0.01453432 -0.05399028 0.03455006
v -0.01856314 -0.05317050 0.03442618
v -0.01861037 -0.05332742 0.03431428
v -0.01861037 -0.05316648 0.03442018
v -0.01861037 -0.05281241 0.03458603
f 1 2 3
f 1 3 4
f 1 4 5
f 1 5 6
f 1 6 13
f 1 13 26
f 1 26 46
f 1 46 64
f 1 64 91
f 1 91 111
f 1 111 126
f 1 126 145
f 1 145 162
f 1 162 161
f 1 161 174
f 1 174 180
f 1 180 179
f 1 179 178
f 1 178 177
f 1 177 192
f 1 192 181
f 1 181 165
f 1 165 148
f 1 148 146
f 1 146 128
f 1 128 127
f 1 127 112
f 1 112 93
f 1 93 92
f 1 92 67
f 1 67 66
f 1 66 48
f 1 48 30
f 1 30 29
f 1 29 28
f 1 28 16
f 1 16 14
f 1 14 7
f 1 7 2
f 2 7 8
f 2 8 9
f 2 9 3
f 3 10 4
f 3 9 11
f 3 11 10
f 4 10 12
f 4 12 5
f 5 12 21
f 5 21 35
f 5 35 34
f 5 34 33
f 5 33 41
f 5 41 40
f 5 40 58
f 5 58 79
f 5 79 81
f 5 81 105
f 5 105 83
f 5 83 60
f 5 60 43
f 5 43 25
f 5 25 13
f 5 13 6
f 7 14 8
f 8 15 9
f 8 14 16
f 8 16 17
f 8 17 18
f 8 18 15
f 9 15 19
f 9 19 11
f 10 20 21
f 10 21 12
f 10 11 20
f 11 19 22
f 11 22 23
f 11 23 24
f 11 24 20
f 13 25 26
f 15 22 19
f 15 18 27
f 15 27 22
f 16 28 17
f 17 28 29
f 17 29 30
f 17 30 31
f 17 31 18
f 18 31 32
f 18 32 27
f 20 24 33
f 20 33 34
f 20 34 35
f 20 35 21
f 22 27 36
f 22 36 23
f 23 37 24
f 23 36 38
f 23 38 37
f 24 39 40
f 24 40 41
f 24 41 33
f 24 37 42
f 24 42 39
f 25 43 62
f 25 62 88
f 25 88 87
f 25 87 106
f 25 106 120
f 25 120 124
f 25 124 123
f 25 123 142
f 25 142 159
f 25 159 158
f 25 158 156
f 25 156 155
f 25 155 157
f 25 157 173
f 25 173 188
f 25 188 189
f 25 189 202
f 25 202 201
f 25 201 198
f 25 198 200
f 25 200 199
f 25 199 208
f 25 208 209
f 25 209 210
f 25 210 203
f 25 203 190
f 25 190 176
f 25 176 175
f 25 175 163
f 25 163 160
f 25 160 143
f 25 143 125
f 25 125 110
f 25 110 109
f 25 109 90
f 25 90 89
f 25 89 63
f 25 63 45
f 25 45 44
f 25 44 26
f 26 44 45
f 26 45 46
f 27 32 47
f 27 47 36
f 30 48 31
f 31 48 49
f 31 49 50
f 31 50 32
f 32 50 51
f 32 51 47
f 36 47 52
f 36 52 38
f 37 38 53
f 37 53 54
f 37 54 42
f 38 52 55
f 38 55 56
f 38 56 53
f 39 57 40
f 39 42 57
f 40 57 58
f 42 54 59
f 42 59 57
f 43 60 61
f 43 61 62
f 45 63 46
f 46 63 64
f 47 51 65
f 47 65 52
f 48 66 49
f 49 66 67
f 49 67 68
f 49 68 50
f 50 68 69
f 50 69 51
f 51 69 70
f 51 70 71
f 51 71 65
f 52 65 71
f 52 71 72
f 52 72 73
f 52 73 74
f 52 74 75
f 52 75 55
f 53 76 59
f 53 59 54
f 53 56 76
f 55 77 56
f 55 75 77
f 56 77 76
f 57 78 79
f 57 79 58
f 57 59 78
f 59 80 81
f 59 81 78
f 59 76 82
f 59 82 80
f 60 83 61
f 61 83 80
f 61 80 84
f 61 84 85
f 61 85 86
f 61 86 87
f 61 87 88
f 61 88 62
f 63 89 64
f 64 89 90
f 64 90 91
f 67 92 68
f 68 92 93
f 68 93 94
f 68 94 69
f 69 94 95
f 69 95 70
f 70 95 96
f 70 96 97
f 70 97 71
f 71 97 98
f 71 98 99
f 71 99 100
f 71 100 72
f 72 100 73
f 73 101 74
f 73 100 101
f 74 102 103
f 74 103 77
f 74 77 75
f 74 101 102
f 76 77 103
f 76 103 82
f 78 81 79
f 80 82 104
f 80 104 84
f 80 83 105
f 80 105 81
f 82 103 104
f 84 104 85
f 85 106 87
f 85 87 86
f 85 104 103
f 85 103 102
f 85 102 107
f 85 107 108
f 85 108 106
f 90 109 91
f 91 109 110
f 91 110 111
f 93 112 94
f 94 112 113
f 94 113 96
f 94 96 95
f 96 113 114
f 96 114 115
f 96 115 97
f 97 115 98
f 98 116 117
f 98 117 118
f 98 118 100
f 98 100 99
f 98 115 116
f 100 119 101
f 100 118 119
f 101 107 102
f 101 119 107
f 106 108 120
f 107 119 108
f 108 119 121
f 108 121 122
f 108 122 123
f 108 123 124
f 108 124 120
f 110 125 126
f 110 126 111
f 112 127 113
f 113 127 128
f 113 128 114
f 114 129 115
f 114 128 130
f 114 130 131
f 114 131 132
f 114 132 129
f 115 129 133
f 115 133 134
f 115 134 135
f 115 135 116
f 116 135 136
f 116 136 117
f 117 136 137
f 117 137 138
f 117 138 139
f 117 139 118
f 118 139 119
f 119 139 140
f 119 140 141
f 119 141 121
f 121 142 123
f 121 123 122
f 121 141 142
f 125 143 144
f 125 144 145
f 125 145 126
f 128 146 130
f 129 132 147
f 129 147 133
f 130 148 149
f 130 149 131
f 130 146 148
f 131 149 150
f 131 150 132
f 132 150 151
f 132 151 147
f 133 147 134
f 134 147 136
f 134 136 135
f 136 147 152
f 136 152 137
f 137 153 138
f 137 152 154
f 137 154 153
f 138 155 156
f 138 156 139
f 138 153 157
f 138 157 155
f 139 158 141
f 139 141 140
f 139 156 158
f 141 158 159
f 141 159 142
f 143 160 144
f 144 161 162
f 144 162 145
f 144 160 163
f 144 163 164
f 144 164 161
f 147 151 152
f 148 165 149
f 149 165 166
f 149 166 167
f 149 167 168
f 149 168 150
f 150 168 169
f 150 169 151
f 151 169 152
f 152 169 170
f 152 170 154
f 153 154 171
f 153 171 157
f 154 170 172
f 154 172 171
f 157 171 173
f 161 164 174
f 163 175 164
f 164 175 176
f 164 176 177
f 164 177 178
f 164 178 179
f 164 179 180
f 164 180 174
f 165 181 166
f 166 181 167
f 167 182 183
f 167 183 184
f 167 184 185
f 167 185 186
f 167 186 170
f 167 170 169
f 167 169 168
f 167 181 182
f 170 186 187
f 170 187 172
f 171 172 188
f 171 188 173
f 172 189 188
f 172 187 189
f 176 190 177
f 177 191 192
f 177 190 193
f 177 193 194
f 177 194 195
f 177 195 191
f 181 192 182
f 182 192 195
f 182 195 196
f 182 196 183
f 183 196 184
f 184 197 185
f 184 196 197
f 185 198 187
f 185 187 186
f 185 197 199
f 185 199 200
f 185 200 198
f 187 198 201
f 187 201 202
f 187 202 189
f 190 203 193
f 191 195 192
f 193 203 204
f 193 204 194
f 194 204 205
f 194 205 206
f 194 206 195
f 195 206 196
f 196 206 205
f 196 205 207
f 196 207 197
f 197 208 199
f 197 207 209
f 197 209 208
f 203 210 204
f 204 210 205
f 205 210 207
f 207 210 209

