# https://github.com/mikedh/trimesh
v -0.01929340 -0.00032651 -0.02768284
v -0.01810498 -0.00904748 -0.02768284
v -0.02107809 -0.00904748 -0.02935830
v -0.02265817 -0.00032651 -0.02935830
v -0.02852896 -0.00032651 -0.02768284
v -0.02713386 -0.00904748 -0.02768284
v -0.02732401 -0.00904748 -0.02935830
v -0.02866227 -0.00032651 -0.02935830
v -0.02852380 -0.00088139 -0.02768284
v -0.02728681 -0.00853699 -0.02768284
v -0.02748522 -0.00851650 -0.02935830
v -0.02865297 -0.00108968 -0.02935830
v -0.02851656 -0.00132443 -0.02768284
v -0.02734468 -0.00832272 -0.02768284
v -0.02752036 -0.00839358 -0.02935830
v -0.02863850 -0.00148321 -0.02935830
v -0.02849899 -0.00176577 -0.02768284
v -0.02769294 -0.00697906 -0.02768284
v -0.02787172 -0.00707041 -0.02935830
v -0.02862094 -0.00178882 -0.02935830
v -0.02857340 -0.00258785 -0.02935830
v -0.02842872 -0.00283455 -0.02768284
v -0.02790375 -0.00694321 -0.02935830
v -0.02800503 -0.00558589 -0.02768284
v -0.02853103 -0.00304797 -0.02935830
v -0.02839152 -0.00315041 -0.02768284
v -0.02843699 -0.00392212 -0.02935830
v -0.02815487 -0.00576858 -0.02935830
v -0.02824271 -0.00426102 -0.02768284
v -0.02817657 -0.00566528 -0.02935830
v -0.02840289 -0.00420724 -0.02935830
v -0.02829955 -0.00388285 -0.02768284
v -0.02819724 -0.00554236 -0.02935830
v -0.02837189 -0.00442321 -0.02935830
f 1 2 3
f 1 3 4
f 1 4 8
f 1 8 5
f 1 5 9
f 1 9 13
f 1 13 17
f 1 17 22
f 1 22 26
f 1 26 32
f 1 32 29
f 1 29 24
f 1 24 18
f 1 18 14
f 1 14 10
f 1 10 6
f 1 6 2
f 2 6 7
f 2 7 3
f 3 7 11
f 3 11 15
f 3 15 19
f 3 19 23
f 3 23 28
f 3 28 30
f 3 30 33
f 3 33 34
f 3 34 31
f 3 31 27
f 3 27 25
f 3 25 21
f 3 21 20
f 3 20 16
f 3 16 12
f 3 12 8
f 3 8 4
f 5 8 9
f 6 10 11
f 6 11 7
f 8 12 9
f 9 12 13
f 10 14 15
f 10 15 11
f 12 16 13
f 13 16 17
f 14 18 19
f 14 19 15
f 16 20 17
f 17 20 21
f 17 21 22
f 18 23 19
f 18 24 23
f 21 25 22
f 22 25 27
f 22 27 26
f 23 24 28
f 24 29 30
f 24 30 28
f 26 27 31
f 26 31 32
f 29 33 30
f 29 32 34
f 29 34 33
f 31 34 32

