# https://github.com/mikedh/trimesh
v -0.02864737 -0.00032705 -0.02666047
v -0.02477430 -0.00032705 -0.02666047
v -0.02853022 -0.00032705 -0.02768284
v -0.02852454 -0.00088145 -0.02768284
v -0.02863562 -0.00135325 -0.02666047
v -0.02477430 -0.00032705 -0.02768284
v -0.02477430 -0.01462800 -0.02666047
v -0.02851809 -0.00132385 -0.02768284
v -0.02849990 -0.00176485 -0.02768284
v -0.02855980 -0.00266085 -0.02666047
v -0.02477430 -0.01433540 -0.02768284
v -0.02502301 -0.01420241 -0.02666047
v -0.02483421 -0.01436760 -0.02768284
v -0.02477430 -0.01446560 -0.02767783
v -0.02845326 -0.00247185 -0.02768284
v -0.02842900 -0.00283445 -0.02768284
v -0.02855714 -0.00270005 -0.02666047
v -0.02501429 -0.01404281 -0.02768284
v -0.02591545 -0.01258401 -0.02666047
v -0.02839261 -0.00314944 -0.02768284
v -0.02839753 -0.00412524 -0.02666047
v -0.02519930 -0.01370261 -0.02768284
v -0.02655919 -0.01119382 -0.02666047
v -0.02623201 -0.01166561 -0.02768284
v -0.02577328 -0.01264421 -0.02768284
v -0.02830010 -0.00388304 -0.02768284
v -0.02837592 -0.00428764 -0.02666047
v -0.02677453 -0.01058482 -0.02666047
v -0.02678363 -0.01021942 -0.02768284
v -0.02644697 -0.01113362 -0.02768284
v -0.02824248 -0.00426104 -0.02768284
v -0.02817120 -0.00556164 -0.02666047
v -0.02701982 -0.00985542 -0.02666047
v -0.02736065 -0.00881242 -0.02666047
v -0.02688296 -0.00990582 -0.02768284
v -0.02800591 -0.00558824 -0.02768284
v -0.02806770 -0.00604043 -0.02666047
v -0.02734548 -0.00832243 -0.02768284
v -0.02728710 -0.00853803 -0.02768284
v -0.02786601 -0.00687063 -0.02666047
v -0.02769389 -0.00697983 -0.02768284
f 1 2 6
f 1 6 3
f 1 3 4
f 1 4 5
f 1 5 10
f 1 10 17
f 1 17 21
f 1 21 27
f 1 27 32
f 1 32 37
f 1 37 40
f 1 40 34
f 1 34 33
f 1 33 28
f 1 28 23
f 1 23 19
f 1 19 12
f 1 12 7
f 1 7 2
f 2 7 14
f 2 14 11
f 2 11 6
f 3 6 11
f 3 11 13
f 3 13 18
f 3 18 22
f 3 22 25
f 3 25 24
f 3 24 30
f 3 30 29
f 3 29 35
f 3 35 39
f 3 39 38
f 3 38 41
f 3 41 36
f 3 36 31
f 3 31 26
f 3 26 20
f 3 20 16
f 3 16 15
f 3 15 9
f 3 9 8
f 3 8 4
f 4 8 5
f 5 9 10
f 5 8 9
f 7 12 13
f 7 13 14
f 9 15 10
f 10 15 16
f 10 16 17
f 11 14 13
f 12 18 13
f 12 19 18
f 16 20 21
f 16 21 17
f 18 19 22
f 19 23 24
f 19 24 25
f 19 25 22
f 20 26 21
f 21 26 27
f 23 28 29
f 23 29 30
f 23 30 24
f 26 31 27
f 27 31 32
f 28 33 29
f 29 33 34
f 29 34 35
f 31 36 32
f 32 36 37
f 34 38 39
f 34 39 35
f 34 40 38
f 36 41 37
f 37 41 40
f 38 40 41

