# https://github.com/mikedh/trimesh
v -0.02702589 -0.04329834 0.01383908
v -0.01861202 -0.04750317 0.01383908
v -0.02702589 -0.03843887 0.00176783
v -0.02702589 -0.05207896 0.01383908
v -0.01861202 -0.04313048 0.00176783
v -0.01861202 -0.05558382 0.01383908
v -0.02702589 -0.05080996 0.00176783
v -0.02702589 -0.05207896 0.01380954
v -0.02666430 -0.05226696 0.01383908
v -0.01861202 -0.05437021 0.00176783
v -0.01863014 -0.05557878 0.01383908
v -0.01861202 -0.05558718 0.01353541
v -0.02702589 -0.05082674 0.00183518
v -0.02567012 -0.05147635 0.00176783
v -0.02702589 -0.05205882 0.01270238
v -0.02629776 -0.05243649 0.01304268
v -0.02600535 -0.05258421 0.01383908
v -0.01861202 -0.05449275 0.00232555
v -0.01881382 -0.05430475 0.00176783
v -0.01894231 -0.05547303 0.01383908
v -0.01876687 -0.05553682 0.01346333
v -0.01861202 -0.05557878 0.01312893
v -0.02702589 -0.05083849 0.00189072
v -0.02596087 -0.05147635 0.00238699
v -0.02412901 -0.05219982 0.00176783
v -0.02702589 -0.05202021 0.01115684
v -0.02570636 -0.05268492 0.01177364
v -0.02503012 -0.05304582 0.01363348
v -0.02512402 -0.05300217 0.01383908
v -0.01861202 -0.05458003 0.00272611
v -0.01970092 -0.05411339 0.00221802
v -0.01949170 -0.05408317 0.00176783
v -0.01979976 -0.05516921 0.01383908
v -0.02003780 -0.05507185 0.01287135
v -0.01861202 -0.05553682 0.01199223
v -0.02702589 -0.05115910 0.00343507
v -0.02655227 -0.05144110 0.00365603
v -0.02469653 -0.05219310 0.00297661
v -0.02528463 -0.05216456 0.00424801
v -0.02397416 -0.05226864 0.00176783
v -0.02283419 -0.05289306 0.00230073
v -0.02702589 -0.05193628 0.00961249
v -0.02637930 -0.05227703 0.00991380
v -0.02510837 -0.05291153 0.01050578
v -0.02443460 -0.05328753 0.01236562
v -0.02357880 -0.05368535 0.01383908
v -0.02458863 -0.05324221 0.01383908
v -0.02495434 -0.05307939 0.01383908
v -0.01861202 -0.05466564 0.00318339
v -0.02029809 -0.05414528 0.00348352
v -0.02066380 -0.05366017 0.00176783
v -0.01986483 -0.05394889 0.00176783
v -0.02048753 -0.05492078 0.01383908
v -0.02127661 -0.05462032 0.01383908
v -0.02190261 -0.05437524 0.01354840
v -0.02130627 -0.05457332 0.01227936
v -0.02071898 -0.05474957 0.01101032
v -0.01945052 -0.05522964 0.01160231
v -0.01885994 -0.05536896 0.01033326
v -0.01861202 -0.05545960 0.01044906
v -0.02702589 -0.05122792 0.00382854
v -0.02702589 -0.05137228 0.00466748
v -0.02342147 -0.05288635 0.00357096
v -0.02587686 -0.05207896 0.00551587
v -0.02401123 -0.05285278 0.00484000
v -0.02258462 -0.05287964 0.00176783
v -0.02156655 -0.05354603 0.00289272
v -0.02215630 -0.05353932 0.00416176
v -0.02702589 -0.05189599 0.00909613
v -0.02579284 -0.05246503 0.00864475
v -0.02452355 -0.05309114 0.00923556
v -0.02325262 -0.05369039 0.00982754
v -0.02383990 -0.05350910 0.01109658
v -0.02317519 -0.05384482 0.01295642
v -0.02284655 -0.05398918 0.01383908
v -0.01861202 -0.05479489 0.00392662
v -0.01902468 -0.05468746 0.00407786
v -0.02088701 -0.05414192 0.00475374
v -0.02103692 -0.05351749 0.00176783
v -0.02203605 -0.05432489 0.01383908
v -0.02257638 -0.05405799 0.01168738
v -0.02198168 -0.05424264 0.01042070
v -0.02012429 -0.05488889 0.00974246
v -0.02139193 -0.05439203 0.00915048
v -0.01861202 -0.05535386 0.00890353
v -0.01953701 -0.05501478 0.00847224
v -0.02702589 -0.05142264 0.00498061
v -0.02459686 -0.05276381 0.00611022
v -0.02647073 -0.05194803 0.00678373
v -0.02702589 -0.05163414 0.00652496
v -0.02274935 -0.05349232 0.00542962
v -0.02136475 -0.05338321 0.00176783
v -0.02702589 -0.05181374 0.00806931
v -0.02523521 -0.05260603 0.00735917
v -0.02518826 -0.05262785 0.00735917
v -0.02393380 -0.05325732 0.00796652
v -0.02266451 -0.05384649 0.00855850
v -0.01861202 -0.05485196 0.00427046
v -0.01961690 -0.05468242 0.00534572
v -0.02147430 -0.05408989 0.00602278
v -0.02079888 -0.05452296 0.00788262
v -0.02210194 -0.05398246 0.00735917
v -0.02192403 -0.05405128 0.00735917
v -0.01888712 -0.05513900 0.00735917
v -0.01861202 -0.05522796 0.00735917
v -0.01901562 -0.05509703 0.00735917
v -0.02055343 -0.05456660 0.00735917
v -0.02020583 -0.05462703 0.00661476
v -0.02334075 -0.05339999 0.00669866
v -0.02672442 -0.05188592 0.00735917
v -0.02702589 -0.05173149 0.00735917
v -0.02702589 -0.05180367 0.00797833
v -0.02364963 -0.05332614 0.00735917
v -0.01861202 -0.05495771 0.00497824
v -0.01861202 -0.05507017 0.00581482
v -0.02206982 -0.05398918 0.00729064
v -0.01894313 -0.05510710 0.00720438
v -0.01861202 -0.05514403 0.00649424
f 1 2 3
f 1 3 7
f 1 7 13
f 1 13 23
f 1 23 36
f 1 36 61
f 1 61 62
f 1 62 87
f 1 87 90
f 1 90 111
f 1 111 112
f 1 112 93
f 1 93 69
f 1 69 42
f 1 42 26
f 1 26 15
f 1 15 8
f 1 8 4
f 1 4 9
f 1 9 17
f 1 17 29
f 1 29 48
f 1 48 47
f 1 47 46
f 1 46 75
f 1 75 80
f 1 80 54
f 1 54 53
f 1 53 33
f 1 33 20
f 1 20 11
f 1 11 6
f 1 6 2
f 2 5 3
f 2 6 12
f 2 12 22
f 2 22 35
f 2 35 60
f 2 60 85
f 2 85 105
f 2 105 118
f 2 118 115
f 2 115 114
f 2 114 98
f 2 98 76
f 2 76 49
f 2 49 30
f 2 30 18
f 2 18 10
f 2 10 5
f 3 5 10
f 3 10 19
f 3 19 32
f 3 32 52
f 3 52 51
f 3 51 79
f 3 79 92
f 3 92 66
f 3 66 40
f 3 40 25
f 3 25 14
f 3 14 7
f 4 8 9
f 6 11 12
f 7 14 13
f 8 15 9
f 9 15 16
f 9 16 17
f 10 18 19
f 11 20 21
f 11 21 12
f 12 21 22
f 13 14 24
f 13 24 23
f 14 25 24
f 15 26 16
f 16 27 28
f 16 28 17
f 16 26 27
f 17 28 29
f 18 30 31
f 18 31 19
f 19 31 32
f 20 33 21
f 21 33 34
f 21 34 22
f 22 34 35
f 23 24 36
f 24 37 36
f 24 25 38
f 24 38 39
f 24 39 37
f 25 40 41
f 25 41 38
f 26 42 43
f 26 43 27
f 27 43 44
f 27 44 45
f 27 45 28
f 28 45 46
f 28 46 47
f 28 47 48
f 28 48 29
f 30 49 31
f 31 50 51
f 31 51 52
f 31 52 32
f 31 49 50
f 33 53 34
f 34 53 54
f 34 54 55
f 34 55 56
f 34 56 57
f 34 57 58
f 34 58 35
f 35 59 60
f 35 58 59
f 36 37 61
f 37 62 61
f 37 39 62
f 38 41 63
f 38 63 39
f 39 64 62
f 39 63 65
f 39 65 64
f 40 66 41
f 41 66 67
f 41 67 68
f 41 68 63
f 42 69 43
f 43 70 44
f 43 69 70
f 44 71 72
f 44 72 73
f 44 73 45
f 44 70 71
f 45 73 74
f 45 74 46
f 46 74 75
f 49 76 77
f 49 77 50
f 50 78 67
f 50 67 51
f 50 77 78
f 51 67 79
f 54 80 55
f 55 80 74
f 55 74 81
f 55 81 56
f 56 81 82
f 56 82 57
f 57 83 59
f 57 59 58
f 57 82 84
f 57 84 83
f 59 85 60
f 59 83 86
f 59 86 85
f 62 64 87
f 63 68 65
f 64 65 88
f 64 88 89
f 64 89 90
f 64 90 87
f 65 68 91
f 65 91 88
f 66 92 67
f 67 92 79
f 67 78 68
f 68 78 91
f 69 93 70
f 70 94 95
f 70 95 96
f 70 96 71
f 70 93 94
f 71 96 72
f 72 97 82
f 72 82 73
f 72 96 97
f 73 82 81
f 73 81 74
f 74 80 75
f 76 98 77
f 77 99 78
f 77 98 99
f 78 100 91
f 78 99 100
f 82 97 84
f 83 84 101
f 83 101 86
f 84 97 102
f 84 102 103
f 84 103 101
f 85 104 105
f 85 86 106
f 85 106 104
f 86 101 107
f 86 107 108
f 86 108 106
f 88 91 109
f 88 109 95
f 88 95 94
f 88 94 89
f 89 110 90
f 89 94 110
f 90 110 111
f 91 100 109
f 93 110 94
f 93 112 110
f 95 109 113
f 95 113 96
f 96 113 97
f 97 113 102
f 98 114 99
f 99 114 115
f 99 115 108
f 99 108 100
f 100 108 103
f 100 103 116
f 100 116 109
f 101 103 107
f 102 116 103
f 102 113 109
f 102 109 116
f 103 108 107
f 104 117 105
f 104 106 117
f 105 117 118
f 106 108 117
f 108 115 118
f 108 118 117
f 110 112 111

