# https://github.com/mikedh/trimesh
v -0.03388191 -0.04790672 0.01259181
v -0.03381681 -0.04795570 0.01262199
v -0.03388191 -0.04790672 0.01275996
v -0.03388191 -0.04790515 0.01244275
v -0.03337853 -0.04825275 0.01383971
v -0.03386916 -0.04790040 0.01383971
v -0.03322752 -0.04835072 0.01135377
v -0.03255165 -0.04883579 0.01321391
v -0.03284562 -0.04862564 0.01383971
v -0.03388191 -0.04789093 0.01383971
v -0.03388191 -0.04787196 0.01104826
v -0.03264427 -0.04868252 0.01008493
v -0.03196571 -0.04920077 0.01194507
v -0.03388191 -0.04779770 0.00955953
v -0.03232613 -0.04897799 0.01383971
v -0.03128380 -0.04966056 0.01380522
v -0.03388191 -0.03821638 0.01383971
v -0.03205028 -0.04899063 0.00881609
v -0.03137576 -0.04952468 0.01067623
v -0.03388191 -0.04779454 0.00950532
v -0.03332349 -0.04808211 0.00822355
v -0.03069653 -0.05001133 0.01253699
v -0.03129924 -0.04964950 0.01383971
v -0.03021866 -0.05031470 0.01383971
v -0.03121065 -0.04970480 0.01383971
v -0.03388191 -0.03594113 0.00754786
v -0.02702589 -0.04329776 0.01383971
v -0.03145764 -0.04925765 0.00754786
v -0.03077439 -0.04983753 0.00940862
v -0.03010322 -0.05032734 0.01126754
v -0.03388191 -0.04778980 0.00944127
v -0.03300536 -0.04822589 0.00754786
v -0.03388191 -0.04765866 0.00796177
v -0.03388191 -0.04761126 0.00754786
v -0.03356914 -0.04783088 0.00754786
v -0.02942936 -0.05077449 0.01312830
v -0.02975689 -0.05058962 0.01383971
v -0.02702589 -0.04140489 0.00754786
v -0.02702589 -0.05208118 0.01383971
v -0.03040524 -0.04989441 0.00754786
v -0.03018778 -0.05009191 0.00813916
v -0.02951057 -0.05062912 0.00999931
v -0.02884678 -0.05107785 0.01185884
v -0.02815279 -0.05149498 0.01372022
v -0.02848032 -0.05131012 0.01383971
v -0.02702589 -0.05175411 0.00754786
v -0.02789640 -0.05162929 0.01383971
v -0.02756686 -0.05177781 0.01245138
v -0.02702589 -0.05205905 0.01270330
v -0.02991126 -0.05018672 0.00754786
v -0.02892397 -0.05087877 0.00873047
v -0.02823736 -0.05136858 0.01059185
v -0.02810916 -0.05151710 0.01383971
v -0.02820850 -0.05146338 0.01383971
v -0.02702589 -0.05180467 0.00797902
v -0.02814474 -0.05118056 0.00754786
v -0.02702589 -0.05202429 0.01129772
v -0.02836824 -0.05106363 0.00754786
v -0.02829709 -0.05110155 0.00754786
v -0.02764673 -0.05160875 0.00932301
v -0.02702589 -0.05201955 0.01115728
v -0.02702589 -0.05202114 0.01120163
v -0.02702589 -0.05181099 0.00804061
v -0.02706080 -0.05179519 0.00805355
v -0.02702589 -0.05189631 0.00909572
v -0.02702589 -0.05193739 0.00961311
v -0.02702589 -0.05201324 0.01103348
f 1 2 3
f 1 3 10
f 1 10 17
f 1 17 26
f 1 26 34
f 1 34 33
f 1 33 31
f 1 31 20
f 1 20 14
f 1 14 11
f 1 11 4
f 1 4 2
f 2 5 6
f 2 6 3
f 2 4 7
f 2 7 8
f 2 8 9
f 2 9 5
f 3 6 10
f 4 11 7
f 5 9 15
f 5 15 23
f 5 23 25
f 5 25 24
f 5 24 37
f 5 37 45
f 5 45 54
f 5 54 53
f 5 53 47
f 5 47 39
f 5 39 27
f 5 27 17
f 5 17 10
f 5 10 6
f 7 12 13
f 7 13 8
f 7 11 14
f 7 14 12
f 8 15 9
f 8 13 16
f 8 16 15
f 12 18 19
f 12 19 13
f 12 14 20
f 12 20 21
f 12 21 18
f 13 19 22
f 13 22 16
f 15 16 23
f 16 22 24
f 16 24 25
f 16 25 23
f 17 27 26
f 18 21 28
f 18 28 29
f 18 29 19
f 19 29 30
f 19 30 22
f 20 31 21
f 21 32 28
f 21 31 33
f 21 33 34
f 21 34 35
f 21 35 32
f 22 30 36
f 22 36 24
f 24 36 37
f 26 38 46
f 26 46 56
f 26 56 59
f 26 59 58
f 26 58 50
f 26 50 40
f 26 40 28
f 26 28 32
f 26 32 35
f 26 35 34
f 26 27 38
f 27 39 49
f 27 49 57
f 27 57 62
f 27 62 61
f 27 61 67
f 27 67 66
f 27 66 65
f 27 65 63
f 27 63 55
f 27 55 46
f 27 46 38
f 28 40 41
f 28 41 29
f 29 41 42
f 29 42 30
f 30 42 43
f 30 43 36
f 36 43 44
f 36 44 37
f 37 44 45
f 39 47 44
f 39 44 48
f 39 48 49
f 40 50 41
f 41 50 51
f 41 51 42
f 42 51 52
f 42 52 43
f 43 52 48
f 43 48 44
f 44 47 53
f 44 53 54
f 44 54 45
f 46 55 56
f 48 57 49
f 48 52 57
f 50 58 51
f 51 58 59
f 51 59 60
f 51 60 52
f 52 60 61
f 52 61 62
f 52 62 57
f 55 63 64
f 55 64 56
f 56 64 59
f 59 64 60
f 60 64 65
f 60 65 66
f 60 66 67
f 60 67 61
f 63 65 64

