# https://github.com/mikedh/trimesh
v -0.02137927 -0.05132600 -0.00501697
v -0.02054994 -0.05131852 -0.00590328
v -0.02096224 -0.05149802 -0.00501697
v -0.02137927 -0.03567028 -0.00501697
v -0.02137927 -0.05080996 -0.00632099
v -0.02137927 -0.05064543 -0.00670582
v -0.01995874 -0.05100192 -0.00717247
v -0.01868750 -0.05173484 -0.00657859
v -0.01928224 -0.05204148 -0.00531488
v -0.01942323 -0.05209632 -0.00501697
v -0.00927576 -0.04064122 -0.00501697
v -0.02137927 -0.02924097 -0.00838645
v -0.02036986 -0.05074764 -0.00736351
v -0.02137927 -0.05029392 -0.00745982
v -0.01809511 -0.05135093 -0.00784738
v -0.01832259 -0.05149802 -0.00736351
v -0.01936992 -0.05058809 -0.00844557
v -0.01705726 -0.05192431 -0.00736312
v -0.01682861 -0.05204896 -0.00725664
v -0.01742217 -0.05240794 -0.00599137
v -0.01787356 -0.05263979 -0.00501697
v -0.01864603 -0.05237553 -0.00501697
v -0.00927576 -0.03361859 -0.00901557
v -0.00927576 -0.05470893 -0.00501697
v -0.01898013 -0.02924097 -0.00901557
v -0.02137927 -0.02924097 -0.00901557
v -0.02122525 -0.05021415 -0.00776126
v -0.02137927 -0.05011194 -0.00783133
v -0.01779419 -0.05083739 -0.00901557
v -0.01755486 -0.05091965 -0.00901557
v -0.01728474 -0.05100940 -0.00901557
v -0.01623741 -0.05160522 -0.00852778
v -0.02059615 -0.04979782 -0.00901557
v -0.01910216 -0.05036871 -0.00901557
v -0.01497090 -0.05226834 -0.00793625
v -0.01523629 -0.05246030 -0.00736351
v -0.01555854 -0.05269463 -0.00666315
v -0.01615329 -0.05303118 -0.00540140
v -0.01633338 -0.05311843 -0.00501697
v -0.00927576 -0.05295390 -0.00901557
v -0.01015485 -0.05455188 -0.00501697
v -0.00989538 -0.05439233 -0.00556935
v -0.00927576 -0.05460922 -0.00528317
v -0.02137927 -0.04946377 -0.00901557
v -0.02137927 -0.04960836 -0.00875758
v -0.01600994 -0.05140578 -0.00901557
v -0.01490811 -0.05172238 -0.00901557
v -0.01310846 -0.05240046 -0.00860960
v -0.01374586 -0.05286914 -0.00736351
v -0.01447093 -0.05184454 -0.00901557
v -0.01428848 -0.05328297 -0.00606888
v -0.01532751 -0.05340014 -0.00501697
v -0.00927576 -0.05298631 -0.00895528
v -0.00997950 -0.05300874 -0.00869807
v -0.00983259 -0.05286166 -0.00901557
v -0.01170096 -0.05426768 -0.00501697
v -0.01116308 -0.05393861 -0.00615775
v -0.00927576 -0.05400592 -0.00682561
v -0.01397096 -0.05197168 -0.00901557
v -0.01292245 -0.05222596 -0.00901557
v -0.01201018 -0.05243038 -0.00901557
v -0.01183839 -0.05299379 -0.00801650
v -0.01369254 -0.05288160 -0.00736351
v -0.01370202 -0.05288908 -0.00734315
v -0.01243314 -0.05344999 -0.00675123
v -0.01302434 -0.05382144 -0.00548400
v -0.01479082 -0.05354473 -0.00501697
v -0.00927576 -0.05328795 -0.00836610
v -0.01065482 -0.05270959 -0.00901557
v -0.01057070 -0.05351730 -0.00742419
v -0.01201729 -0.05420536 -0.00501697
v -0.01137989 -0.05256500 -0.00901557
v -0.01324233 -0.05393612 -0.00501697
f 1 2 3
f 1 3 10
f 1 10 22
f 1 22 21
f 1 21 39
f 1 39 52
f 1 52 67
f 1 67 73
f 1 73 71
f 1 71 56
f 1 56 41
f 1 41 24
f 1 24 11
f 1 11 4
f 1 4 12
f 1 12 26
f 1 26 44
f 1 44 45
f 1 45 28
f 1 28 14
f 1 14 6
f 1 6 5
f 1 5 2
f 2 5 6
f 2 6 7
f 2 7 8
f 2 8 9
f 2 9 3
f 3 9 10
f 4 11 12
f 6 13 7
f 6 14 13
f 7 15 16
f 7 16 8
f 7 13 17
f 7 17 15
f 8 16 18
f 8 18 19
f 8 19 20
f 8 20 9
f 9 20 21
f 9 21 22
f 9 22 10
f 11 23 12
f 11 24 43
f 11 43 58
f 11 58 68
f 11 68 53
f 11 53 40
f 11 40 23
f 12 23 25
f 12 25 26
f 13 14 27
f 13 27 17
f 14 28 27
f 15 29 30
f 15 30 31
f 15 31 32
f 15 32 18
f 15 18 16
f 15 17 29
f 17 27 33
f 17 33 34
f 17 34 29
f 18 32 19
f 19 35 36
f 19 36 37
f 19 37 20
f 19 32 35
f 20 37 38
f 20 38 21
f 21 38 39
f 23 40 55
f 23 55 69
f 23 69 72
f 23 72 61
f 23 61 60
f 23 60 59
f 23 59 50
f 23 50 47
f 23 47 46
f 23 46 31
f 23 31 30
f 23 30 29
f 23 29 34
f 23 34 33
f 23 33 44
f 23 44 26
f 23 26 25
f 24 41 42
f 24 42 43
f 27 28 33
f 28 45 33
f 31 46 32
f 32 46 47
f 32 47 35
f 33 45 44
f 35 48 49
f 35 49 36
f 35 47 50
f 35 50 48
f 36 49 37
f 37 49 51
f 37 51 38
f 38 51 52
f 38 52 39
f 40 53 54
f 40 54 55
f 41 56 57
f 41 57 42
f 42 57 58
f 42 58 43
f 48 50 59
f 48 59 60
f 48 60 61
f 48 61 62
f 48 62 49
f 49 62 63
f 49 63 64
f 49 64 51
f 51 65 66
f 51 66 67
f 51 67 52
f 51 64 65
f 53 68 54
f 54 62 69
f 54 69 55
f 54 68 70
f 54 70 62
f 56 71 57
f 57 71 66
f 57 66 65
f 57 65 70
f 57 70 58
f 58 70 68
f 61 72 62
f 62 64 63
f 62 72 69
f 62 70 65
f 62 65 64
f 66 71 73
f 66 73 67

