# https://github.com/mikedh/trimesh
v -0.04268759 0.01942335 0.00133522
v -0.04545847 0.01942335 0.00717383
v -0.04842413 0.00989885 0.00717383
v -0.04583631 0.00989885 0.00133522
v -0.05419435 0.01942335 0.00133522
v -0.05512139 0.01942335 0.00717383
v -0.05764916 0.00989885 0.00717383
v -0.05679095 0.00989885 0.00133522
v -0.05421339 0.01936927 0.00133522
v -0.05421046 0.01942335 0.00139752
v -0.05497640 0.01942335 0.00585064
v -0.05538647 0.01817008 0.00564202
v -0.05554171 0.01818407 0.00712982
v -0.05544944 0.01846382 0.00717383
v -0.05757740 0.01028490 0.00717383
v -0.05731085 0.01118383 0.00630218
v -0.05753639 0.00989885 0.00619873
v -0.05688175 0.00989885 0.00177018
v -0.05666939 0.01059263 0.00133522
v -0.05462345 0.01818500 0.00133522
v -0.05424561 0.01942335 0.00155127
v -0.05480798 0.01942335 0.00455431
v -0.05518729 0.01818500 0.00420680
v -0.05579946 0.01678626 0.00546654
v -0.05554464 0.01818407 0.00717383
v -0.05549484 0.01833047 0.00717383
v -0.05595763 0.01678346 0.00693434
v -0.05597667 0.01678346 0.00717383
v -0.05740019 0.01118569 0.00717383
v -0.05713511 0.01118663 0.00484410
v -0.05701941 0.01258164 0.00643593
v -0.05735479 0.00989885 0.00474007
v -0.05689786 0.00989885 0.00185192
v -0.05669868 0.01113068 0.00192851
v -0.05655662 0.01115119 0.00133522
v -0.05463517 0.01814957 0.00133522
v -0.05463224 0.01818500 0.00137580
v -0.05492661 0.01818780 0.00278530
v -0.05453851 0.01942335 0.00296191
v -0.05478601 0.01942335 0.00439199
v -0.05456780 0.01942335 0.00312195
v -0.05558565 0.01678439 0.00402047
v -0.05616852 0.01538192 0.00529050
v -0.05632669 0.01538752 0.00676744
v -0.05604990 0.01652889 0.00717383
v -0.05636624 0.01538752 0.00717383
v -0.05709410 0.01258444 0.00717383
v -0.05733868 0.00989885 0.00462290
v -0.05684074 0.01258537 0.00497956
v -0.05693447 0.01118569 0.00339174
v -0.05668696 0.01398225 0.00659083
v -0.05652148 0.01398691 0.00513103
v -0.05715268 0.00989885 0.00328885
v -0.05663864 0.01258350 0.00352605
v -0.05638820 0.01258164 0.00209827
v -0.05639992 0.01183937 0.00133522
v -0.05472011 0.01787914 0.00133522
v -0.05506281 0.01678626 0.00133522
v -0.05531763 0.01678906 0.00260468
v -0.05568962 0.01538565 0.00242806
v -0.05594884 0.01538192 0.00384785
v -0.05630472 0.01398598 0.00368552
v -0.05674262 0.01398411 0.00717383
v -0.05689786 0.01337053 0.00717383
v -0.05605136 0.01398131 0.00225488
v -0.05585805 0.01398691 0.00133522
v -0.05600010 0.01344606 0.00133522
v -0.05621978 0.01258723 0.00133522
v -0.05538793 0.01566726 0.00133522
v -0.05546995 0.01538379 0.00133522
v -0.05557246 0.01502011 0.00133522
f 1 2 3
f 1 3 4
f 1 4 8
f 1 8 19
f 1 19 35
f 1 35 56
f 1 56 68
f 1 68 67
f 1 67 66
f 1 66 71
f 1 71 70
f 1 70 69
f 1 69 58
f 1 58 57
f 1 57 36
f 1 36 20
f 1 20 9
f 1 9 5
f 1 5 10
f 1 10 21
f 1 21 39
f 1 39 41
f 1 41 40
f 1 40 22
f 1 22 11
f 1 11 6
f 1 6 2
f 2 6 14
f 2 14 26
f 2 26 25
f 2 25 28
f 2 28 45
f 2 45 46
f 2 46 63
f 2 63 64
f 2 64 47
f 2 47 29
f 2 29 15
f 2 15 7
f 2 7 3
f 3 7 17
f 3 17 32
f 3 32 48
f 3 48 53
f 3 53 33
f 3 33 18
f 3 18 8
f 3 8 4
f 5 9 10
f 6 11 12
f 6 12 13
f 6 13 14
f 7 15 16
f 7 16 17
f 8 18 19
f 9 20 10
f 10 20 21
f 11 22 12
f 12 22 23
f 12 23 24
f 12 24 13
f 13 25 26
f 13 26 14
f 13 24 27
f 13 27 28
f 13 28 25
f 15 29 16
f 16 30 17
f 16 29 31
f 16 31 30
f 17 30 32
f 18 33 34
f 18 34 19
f 19 34 35
f 20 36 37
f 20 37 21
f 21 37 38
f 21 38 39
f 22 40 23
f 23 40 41
f 23 41 38
f 23 38 42
f 23 42 24
f 24 42 43
f 24 43 44
f 24 44 27
f 27 45 28
f 27 44 46
f 27 46 45
f 29 47 31
f 30 48 32
f 30 31 49
f 30 49 50
f 30 50 48
f 31 47 51
f 31 51 52
f 31 52 49
f 33 53 34
f 34 53 50
f 34 50 54
f 34 54 55
f 34 55 56
f 34 56 35
f 36 57 38
f 36 38 37
f 38 57 58
f 38 58 59
f 38 59 42
f 38 41 39
f 42 60 61
f 42 61 43
f 42 59 60
f 43 62 52
f 43 52 51
f 43 51 44
f 43 61 62
f 44 51 46
f 46 51 63
f 47 64 51
f 48 50 53
f 49 52 54
f 49 54 50
f 51 64 63
f 52 62 54
f 54 62 55
f 55 62 65
f 55 65 66
f 55 66 67
f 55 67 68
f 55 68 56
f 58 69 59
f 59 69 60
f 60 65 61
f 60 69 70
f 60 70 65
f 61 65 62
f 65 70 71
f 65 71 66

