# https://github.com/mikedh/trimesh
v 0.03601231 0.03486538 0.01003862
v 0.04157109 0.02796645 0.01003862
v 0.04347212 0.02796645 0.01837829
v 0.03820820 0.03486538 0.01837829
v 0.04730523 0.03486538 0.01003862
v 0.05169080 0.02796645 0.01003862
v 0.05014204 0.02796645 0.01837829
v 0.04747283 0.03486538 0.01837829
v 0.04732695 0.03486538 0.01030804
v 0.04823945 0.03358757 0.01003862
v 0.05168149 0.02798468 0.01003862
v 0.05174822 0.02796645 0.01079707
v 0.05183667 0.02796645 0.01703774
v 0.05181650 0.02796780 0.01837829
v 0.04808892 0.03401036 0.01837829
v 0.04747593 0.03486538 0.01809908
v 0.04741231 0.03486538 0.01176125
v 0.04830928 0.03357137 0.01076849
v 0.04885554 0.03269743 0.01003862
v 0.05173735 0.02798806 0.01080931
v 0.05116782 0.02892548 0.01003862
v 0.05182581 0.02796645 0.01239806
v 0.05186306 0.02796645 0.01549961
v 0.05180564 0.02799008 0.01837829
v 0.04838843 0.03359163 0.01837829
v 0.04837291 0.03359568 0.01387087
v 0.04747593 0.03486538 0.01797662
v 0.04741851 0.03486538 0.01189025
v 0.04837136 0.03359095 0.01232866
v 0.04929782 0.03217132 0.01123059
v 0.04920626 0.03218415 0.01003862
v 0.05181495 0.02798603 0.01239234
v 0.05094435 0.02938878 0.01044030
v 0.05102815 0.02938608 0.01202659
v 0.05090866 0.02938675 0.01003862
v 0.05186150 0.02796645 0.01395986
v 0.05186306 0.02796645 0.01547104
v 0.05185064 0.02799211 0.01549308
v 0.05103281 0.02938270 0.01837829
v 0.04850637 0.03341738 0.01837829
v 0.04933817 0.03218550 0.01432724
v 0.04934283 0.03217672 0.01279157
v 0.04746818 0.03486538 0.01654544
v 0.04743869 0.03486538 0.01333775
v 0.04745421 0.03486538 0.01499507
v 0.05019635 0.03079288 0.01163308
v 0.05010479 0.03078073 0.01005576
v 0.05006755 0.03083745 0.01003862
v 0.05106850 0.02938878 0.01358757
v 0.05010324 0.03078073 0.01003862
v 0.05106695 0.02938203 0.01513631
v 0.05104678 0.02938946 0.01666545
v 0.05044930 0.03038360 0.01837829
v 0.04933196 0.03217740 0.01837829
v 0.04933352 0.03218483 0.01741492
v 0.05024291 0.03078140 0.01475178
v 0.05024446 0.03077059 0.01321774
v 0.05022118 0.03078208 0.01783129
v 0.05021498 0.03078005 0.01837829
v 0.04979287 0.03145137 0.01837829
f 1 2 3
f 1 3 4
f 1 4 8
f 1 8 16
f 1 16 27
f 1 27 43
f 1 43 45
f 1 45 44
f 1 44 28
f 1 28 17
f 1 17 9
f 1 9 5
f 1 5 10
f 1 10 19
f 1 19 31
f 1 31 48
f 1 48 50
f 1 50 35
f 1 35 21
f 1 21 11
f 1 11 6
f 1 6 2
f 2 6 12
f 2 12 22
f 2 22 36
f 2 36 37
f 2 37 23
f 2 23 13
f 2 13 7
f 2 7 3
f 3 7 14
f 3 14 24
f 3 24 39
f 3 39 53
f 3 53 59
f 3 59 60
f 3 60 54
f 3 54 40
f 3 40 25
f 3 25 15
f 3 15 8
f 3 8 4
f 5 9 10
f 6 11 12
f 7 13 14
f 8 15 16
f 9 17 18
f 9 18 10
f 10 18 19
f 11 20 12
f 11 21 20
f 12 20 22
f 13 23 14
f 14 23 24
f 15 25 26
f 15 26 27
f 15 27 16
f 17 28 29
f 17 29 18
f 18 29 30
f 18 30 31
f 18 31 19
f 20 32 22
f 20 21 33
f 20 33 34
f 20 34 32
f 21 35 33
f 22 32 36
f 23 37 38
f 23 38 24
f 24 38 39
f 25 40 41
f 25 41 42
f 25 42 26
f 26 29 27
f 26 42 29
f 27 29 43
f 28 44 29
f 29 42 30
f 29 44 45
f 29 45 43
f 30 42 46
f 30 46 47
f 30 47 48
f 30 48 31
f 32 34 49
f 32 49 36
f 33 35 50
f 33 50 47
f 33 47 46
f 33 46 34
f 34 46 49
f 36 38 37
f 36 49 38
f 38 49 51
f 38 51 39
f 39 51 52
f 39 52 53
f 40 54 55
f 40 55 41
f 41 55 56
f 41 56 42
f 42 56 57
f 42 57 46
f 46 57 49
f 47 50 48
f 49 57 56
f 49 56 51
f 51 56 58
f 51 58 53
f 51 53 52
f 53 58 59
f 54 60 56
f 54 56 55
f 56 60 58
f 58 60 59

