# https://github.com/mikedh/trimesh
v 0.01882538 -0.02237017 -0.02573018
v 0.01882538 -0.01488883 -0.02574715
v 0.01901385 -0.02237017 -0.02573018
v 0.01882538 -0.02237017 -0.01107961
v 0.02527765 -0.01488883 -0.02574715
v 0.01882538 -0.00932093 -0.02574715
v 0.01982189 -0.02175577 -0.02573018
v 0.02653983 -0.02237017 -0.02407236
v 0.02906219 -0.02237017 -0.00841217
v 0.01882538 -0.00932093 -0.01285961
v 0.02424905 -0.01650465 -0.02573018
v 0.02348312 -0.01759294 -0.02573018
v 0.02276030 -0.01844365 -0.02573018
v 0.02036225 -0.02123462 -0.02573018
v 0.02672530 -0.01264966 -0.02574715
v 0.02906720 -0.01821500 -0.02423696
v 0.02906720 -0.01875532 -0.02414703
v 0.02812282 -0.00932093 -0.02574715
v 0.02658394 -0.02237017 -0.02406218
v 0.02906720 -0.00932093 -0.01095574
v 0.02906720 -0.02237017 -0.01166163
v 0.02906720 -0.02121163 -0.00874984
v 0.02815189 -0.01961624 -0.02421999
v 0.02804262 -0.02101492 -0.02398582
v 0.02674234 -0.01261773 -0.02574715
v 0.02906720 -0.01744605 -0.02435913
v 0.02906720 -0.01961496 -0.02399261
v 0.02724059 -0.01148729 -0.02574715
v 0.02906720 -0.00932093 -0.02530258
v 0.02906720 -0.01269564 -0.02496321
v 0.02906720 -0.01401641 -0.02481558
v 0.02906720 -0.01462570 -0.02474262
v 0.02906720 -0.01488883 -0.02471038
v 0.02906720 -0.01541637 -0.02464420
v 0.02792833 -0.02237017 -0.02373639
v 0.02906720 -0.02237017 -0.02343265
v 0.02906720 -0.02101620 -0.02372112
v 0.02906720 -0.01681505 -0.02445246
v 0.02812081 -0.02237017 -0.02368548
f 1 2 5
f 1 5 3
f 1 3 8
f 1 8 19
f 1 19 35
f 1 35 39
f 1 39 36
f 1 36 21
f 1 21 9
f 1 9 4
f 1 4 10
f 1 10 6
f 1 6 2
f 2 6 18
f 2 18 28
f 2 28 25
f 2 25 15
f 2 15 5
f 3 5 7
f 3 7 8
f 4 9 10
f 5 11 12
f 5 12 13
f 5 13 14
f 5 14 7
f 5 15 16
f 5 16 17
f 5 17 11
f 6 10 20
f 6 20 29
f 6 29 18
f 7 14 8
f 8 14 19
f 9 20 10
f 9 21 22
f 9 22 20
f 11 17 12
f 12 17 23
f 12 23 24
f 12 24 19
f 12 19 13
f 13 19 14
f 15 25 26
f 15 26 16
f 16 26 38
f 16 38 34
f 16 34 33
f 16 33 32
f 16 32 31
f 16 31 30
f 16 30 29
f 16 29 20
f 16 20 22
f 16 22 21
f 16 21 36
f 16 36 37
f 16 37 27
f 16 27 17
f 17 27 23
f 18 29 30
f 18 30 31
f 18 31 32
f 18 32 33
f 18 33 34
f 18 34 28
f 19 24 35
f 23 27 24
f 24 27 37
f 24 37 35
f 25 28 34
f 25 34 38
f 25 38 26
f 35 37 39
f 36 39 37

