# https://github.com/mikedh/trimesh
v 0.05562779 0.01950007 0.01716299
v 0.05562091 0.01950007 0.01571271
v 0.05559339 0.01958624 0.01569894
v 0.05559889 0.01958790 0.01724560
v 0.05562228 0.01950007 0.01762423
v 0.05560439 0.01950007 0.01425325
v 0.05508426 0.02098324 0.01546717
v 0.05509114 0.02098241 0.01701613
v 0.05557275 0.01958955 0.01414310
v 0.05506637 0.02098656 0.01390904
v 0.05545028 0.01998976 0.01762194
v 0.05558100 0.01958210 0.01878997
v 0.05560852 0.01950007 0.01871424
v 0.05560302 0.01950007 0.01415687
v 0.05453111 0.02238107 0.01521016
v 0.05452973 0.02238190 0.01675223
v 0.05482007 0.02165109 0.01762194
v 0.05508151 0.02098573 0.01855361
v 0.05555073 0.01958707 0.01258956
v 0.05503885 0.02098738 0.01235320
v 0.05451322 0.02238439 0.01365432
v 0.05553560 0.01958541 0.02031138
v 0.05556312 0.01950007 0.02032285
v 0.05560715 0.01950007 0.01880373
v 0.05557963 0.01950007 0.01260333
v 0.05393529 0.02378636 0.01492561
v 0.05452422 0.02238439 0.01762423
v 0.05451872 0.02238687 0.01828971
v 0.05448432 0.02238439 0.01982260
v 0.05503748 0.02097910 0.02008420
v 0.05555073 0.01950007 0.01114158
v 0.05551908 0.01958293 0.01103831
v 0.05498794 0.02097910 0.01079278
v 0.05446643 0.02238522 0.01208701
v 0.05390502 0.02378388 0.01336978
v 0.05496455 0.02098241 0.02159185
v 0.05529754 0.01958293 0.02483433
v 0.05532506 0.01950007 0.02484580
v 0.05328444 0.02518005 0.01617166
v 0.05391878 0.02378885 0.01646080
v 0.05329958 0.02517342 0.01464106
v 0.05390089 0.02379051 0.01762194
v 0.05389264 0.02379051 0.01799369
v 0.05386374 0.02377062 0.01954264
v 0.05380732 0.02378968 0.02104340
v 0.05373853 0.02379051 0.02255335
v 0.05441139 0.02238356 0.02133254
v 0.05554660 0.01950007 0.01104979
v 0.05546679 0.01958210 0.01004010
v 0.05438112 0.02238439 0.01050364
v 0.05523975 0.02019277 0.01004010
v 0.05493428 0.02098324 0.01004010
v 0.05383209 0.02378554 0.01179099
v 0.05325830 0.02518585 0.01306687
v 0.05433021 0.02238356 0.02283560
v 0.05487098 0.02098656 0.02308573
v 0.05477741 0.02098738 0.02458649
v 0.05444029 0.02098159 0.02906813
v 0.05517783 0.01958210 0.02632132
v 0.05520397 0.01950007 0.02633280
v 0.05259643 0.02658037 0.01585269
v 0.05256204 0.02658451 0.01737640
v 0.05248773 0.02659197 0.02042612
v 0.05245058 0.02658617 0.02195671
v 0.05319913 0.02518668 0.01921679
v 0.05259781 0.02658203 0.01430603
v 0.05315372 0.02518668 0.02074050
v 0.05310281 0.02518585 0.02225962
v 0.05304364 0.02517674 0.02378563
v 0.05366422 0.02377891 0.02407247
v 0.05549294 0.01950007 0.01004010
v 0.05547643 0.01955227 0.01004010
v 0.05374128 0.02378885 0.01019614
v 0.05455312 0.02189386 0.01004010
v 0.05434672 0.02238439 0.01004010
v 0.05373027 0.02378802 0.01004010
v 0.05317849 0.02518751 0.01148120
v 0.05256204 0.02657540 0.01275019
v 0.05248636 0.02658120 0.01116452
v 0.05423801 0.02238107 0.02434095
v 0.05389814 0.02238853 0.02880883
v 0.05492602 0.01950007 0.02966477
v 0.05492602 0.01959618 0.02927925
v 0.05384310 0.02220293 0.03025452
v 0.05435773 0.02082581 0.03051153
v 0.05495629 0.01950007 0.02930678
v 0.05186302 0.02796494 0.01550159
v 0.05179835 0.02796494 0.02011403
v 0.05176532 0.02796494 0.02164922
v 0.05238178 0.02658120 0.02347125
v 0.05186165 0.02796494 0.01396182
v 0.05186302 0.02796494 0.01547176
v 0.05182587 0.02796494 0.01239910
v 0.05227169 0.02658120 0.02496513
v 0.05293356 0.02517591 0.02527951
v 0.05331059 0.02378885 0.02853346
v 0.04614294 0.01950007 0.01004010
v 0.05340002 0.02451967 0.01004010
v 0.05309593 0.02518751 0.01004010
v 0.05241618 0.02658203 0.01004010
v 0.05214235 0.02711150 0.01004010
v 0.05174744 0.02796494 0.01079048
v 0.05325279 0.02363059 0.03001816
v 0.05481869 0.01950007 0.03075936
v 0.05306153 0.02385514 0.03076624
v 0.05352799 0.02269925 0.03103703
v 0.05394355 0.02169583 0.03104161
v 0.05431782 0.02062446 0.03133305
v 0.05479668 0.01950007 0.03091770
v 0.05169102 0.02796494 0.02315457
v 0.05157406 0.02796494 0.02464157
v 0.05190155 0.02657871 0.02942841
v 0.05268863 0.02518005 0.02824891
v 0.05258405 0.02509968 0.02994243
v 0.04157046 0.02796494 0.01004010
v 0.04949215 0.01950007 0.02997685
v 0.05168964 0.02796494 0.01004010
v 0.05255653 0.02501019 0.03056660
v 0.05234187 0.02523391 0.03119307
v 0.05283036 0.02408466 0.03145926
v 0.05348809 0.02244322 0.03172086
v 0.05408666 0.02079681 0.03197787
v 0.05461367 0.01974284 0.03155105
v 0.05475402 0.01950007 0.03121372
v 0.05119428 0.02796494 0.02909337
v 0.05105255 0.02796494 0.03038990
v 0.05103329 0.02796080 0.03058037
v 0.05189880 0.02624893 0.03083050
v 0.04518662 0.02796494 0.02971984
v 0.04972057 0.01950007 0.03108063
v 0.04528707 0.02796494 0.03021321
v 0.05121630 0.02735344 0.03147073
v 0.05157406 0.02656131 0.03166120
v 0.05129748 0.02673449 0.03224406
v 0.05259781 0.02403908 0.03211096
v 0.05308354 0.02273737 0.03226471
v 0.05441002 0.01957381 0.03228996
v 0.05445818 0.01950007 0.03223258
v 0.05469485 0.01950007 0.03157858
v 0.05103053 0.02796494 0.03058266
v 0.05091357 0.02796494 0.03134682
v 0.04972745 0.01950007 0.03110587
v 0.04531183 0.02796494 0.03030959
v 0.05090532 0.02796494 0.03139271
v 0.05075946 0.02796494 0.03197558
v 0.05075396 0.02796494 0.03199623
v 0.05074845 0.02796494 0.03201000
v 0.05061360 0.02796494 0.03222800
v 0.05044986 0.02791606 0.03253090
v 0.05171166 0.02546260 0.03250566
v 0.05247122 0.02350381 0.03272137
v 0.05436323 0.01950007 0.03237027
v 0.05443341 0.01950007 0.03228996
v 0.05276431 0.02245731 0.03293707
v 0.04992835 0.01950007 0.03171627
v 0.04561318 0.02796494 0.03126191
v 0.05042509 0.02796494 0.03252402
v 0.05040720 0.02796494 0.03254926
v 0.05065626 0.02716701 0.03270760
v 0.05402473 0.01950007 0.03273054
v 0.05014576 0.02796494 0.03279710
v 0.04979625 0.02796494 0.03307476
v 0.04974259 0.02796494 0.03311606
v 0.05029437 0.02662263 0.03318720
v 0.05186990 0.02363059 0.03310918
v 0.05358716 0.01952575 0.03316196
v 0.05362707 0.01950007 0.03313213
v 0.04993798 0.01950007 0.03173692
v 0.04596269 0.02796494 0.03205360
v 0.04916879 0.02796494 0.03325834
v 0.04971782 0.02645028 0.03337308
v 0.05048013 0.02510962 0.03337308
v 0.05080212 0.02522065 0.03324916
v 0.05358854 0.01950007 0.03316425
v 0.05359680 0.01950007 0.03315966
v 0.05311932 0.01950007 0.03330653
v 0.05033427 0.01950007 0.03238174
v 0.04599021 0.02796494 0.03210867
v 0.04812990 0.02796494 0.03341438
v 0.04891973 0.02677509 0.03344880
v 0.04997926 0.02527534 0.03344192
v 0.05091908 0.02350133 0.03341438
v 0.05220840 0.01950007 0.03347404
v 0.05054756 0.01950007 0.03271678
v 0.04635210 0.02796494 0.03258598
v 0.05215749 0.01950007 0.03348093
v 0.04755611 0.02796494 0.03334095
v 0.04644154 0.02796494 0.03267547
v 0.04637687 0.02796494 0.03261122
v 0.05089569 0.01950007 0.03304034
v 0.05179560 0.01950007 0.03340520
v 0.04706074 0.02796494 0.03315507
v 0.04672775 0.02796494 0.03292331
v 0.05077184 0.02094596 0.03328128
f 1 2 3
f 1 3 4
f 1 4 5
f 1 5 13
f 1 13 24
f 1 24 23
f 1 23 38
f 1 38 60
f 1 60 86
f 1 86 82
f 1 82 104
f 1 104 109
f 1 109 124
f 1 124 139
f 1 139 138
f 1 138 153
f 1 153 152
f 1 152 160
f 1 160 167
f 1 167 175
f 1 175 174
f 1 174 176
f 1 176 183
f 1 183 186
f 1 186 191
f 1 191 190
f 1 190 184
f 1 184 177
f 1 177 168
f 1 168 155
f 1 155 142
f 1 142 130
f 1 130 116
f 1 116 97
f 1 97 71
f 1 71 48
f 1 48 31
f 1 31 25
f 1 25 14
f 1 14 6
f 1 6 2
f 2 6 3
f 3 7 8
f 3 8 4
f 3 6 9
f 3 9 10
f 3 10 7
f 4 8 11
f 4 11 12
f 4 12 13
f 4 13 5
f 6 14 9
f 7 15 8
f 7 10 15
f 8 15 16
f 8 16 17
f 8 17 18
f 8 18 11
f 9 14 19
f 9 19 10
f 10 19 20
f 10 20 21
f 10 21 15
f 11 18 12
f 12 18 22
f 12 22 23
f 12 23 24
f 12 24 13
f 14 25 19
f 15 21 26
f 15 26 16
f 16 26 27
f 16 27 17
f 17 27 28
f 17 28 18
f 18 28 29
f 18 29 30
f 18 30 22
f 19 25 31
f 19 31 32
f 19 32 20
f 20 32 33
f 20 33 34
f 20 34 21
f 21 35 26
f 21 34 35
f 22 30 36
f 22 36 37
f 22 37 38
f 22 38 23
f 26 39 40
f 26 40 28
f 26 28 27
f 26 35 41
f 26 41 39
f 28 40 42
f 28 42 43
f 28 43 29
f 29 43 44
f 29 44 45
f 29 45 46
f 29 46 47
f 29 47 36
f 29 36 30
f 31 48 32
f 32 48 49
f 32 49 33
f 33 50 34
f 33 49 51
f 33 51 52
f 33 52 50
f 34 50 53
f 34 53 35
f 35 54 41
f 35 53 54
f 36 47 55
f 36 55 56
f 36 56 37
f 37 57 58
f 37 58 59
f 37 59 38
f 37 56 57
f 38 59 60
f 39 41 61
f 39 61 62
f 39 62 63
f 39 63 64
f 39 64 65
f 39 65 44
f 39 44 43
f 39 43 42
f 39 42 40
f 41 54 66
f 41 66 61
f 44 65 67
f 44 67 45
f 45 64 68
f 45 68 69
f 45 69 46
f 45 67 64
f 46 69 70
f 46 70 47
f 47 70 55
f 48 71 72
f 48 72 49
f 49 72 71
f 49 71 97
f 49 97 115
f 49 115 117
f 49 117 101
f 49 101 100
f 49 100 99
f 49 99 98
f 49 98 76
f 49 76 75
f 49 75 74
f 49 74 52
f 49 52 51
f 50 73 53
f 50 52 74
f 50 74 75
f 50 75 76
f 50 76 73
f 53 73 77
f 53 77 54
f 54 78 66
f 54 77 79
f 54 79 78
f 55 70 80
f 55 80 56
f 56 80 57
f 57 80 81
f 57 81 58
f 58 82 83
f 58 83 59
f 58 81 84
f 58 84 85
f 58 85 82
f 59 83 86
f 59 86 60
f 61 66 87
f 61 87 88
f 61 88 62
f 62 88 89
f 62 89 63
f 63 89 64
f 64 67 65
f 64 89 90
f 64 90 69
f 64 69 68
f 66 91 92
f 66 92 87
f 66 78 93
f 66 93 91
f 69 90 94
f 69 94 95
f 69 95 70
f 70 95 96
f 70 96 81
f 70 81 80
f 73 76 98
f 73 98 77
f 77 98 99
f 77 99 79
f 78 79 93
f 79 99 100
f 79 100 101
f 79 101 102
f 79 102 93
f 81 96 103
f 81 103 84
f 82 86 83
f 82 85 104
f 84 105 106
f 84 106 107
f 84 107 85
f 84 103 105
f 85 107 108
f 85 108 109
f 85 109 104
f 87 92 91
f 87 91 93
f 87 93 102
f 87 102 117
f 87 117 115
f 87 115 129
f 87 129 131
f 87 131 143
f 87 143 156
f 87 156 169
f 87 169 178
f 87 178 185
f 87 185 189
f 87 189 188
f 87 188 193
f 87 193 192
f 87 192 187
f 87 187 179
f 87 179 170
f 87 170 163
f 87 163 162
f 87 162 161
f 87 161 158
f 87 158 157
f 87 157 148
f 87 148 147
f 87 147 146
f 87 146 145
f 87 145 144
f 87 144 141
f 87 141 140
f 87 140 126
f 87 126 125
f 87 125 111
f 87 111 110
f 87 110 89
f 87 89 88
f 89 110 90
f 90 110 94
f 94 111 112
f 94 112 113
f 94 113 95
f 94 110 111
f 95 113 96
f 96 113 114
f 96 114 103
f 97 116 115
f 101 117 102
f 103 114 118
f 103 118 105
f 105 118 119
f 105 119 120
f 105 120 106
f 106 120 121
f 106 121 107
f 107 121 108
f 108 121 122
f 108 122 123
f 108 123 124
f 108 124 109
f 111 125 112
f 112 114 113
f 112 125 126
f 112 126 127
f 112 127 128
f 112 128 118
f 112 118 114
f 115 116 129
f 116 130 131
f 116 131 129
f 118 128 119
f 119 132 133
f 119 133 120
f 119 128 132
f 120 133 134
f 120 134 135
f 120 135 121
f 121 135 122
f 122 135 136
f 122 136 137
f 122 137 138
f 122 138 139
f 122 139 123
f 123 139 124
f 126 140 127
f 127 140 141
f 127 141 128
f 128 141 132
f 130 142 143
f 130 143 131
f 132 141 144
f 132 144 145
f 132 145 146
f 132 146 133
f 133 146 134
f 134 146 147
f 134 147 148
f 134 148 149
f 134 149 150
f 134 150 151
f 134 151 135
f 135 151 136
f 136 151 137
f 137 152 153
f 137 153 138
f 137 151 154
f 137 154 152
f 142 155 156
f 142 156 143
f 148 157 149
f 149 157 158
f 149 158 159
f 149 159 150
f 150 159 151
f 151 159 154
f 152 154 160
f 154 161 162
f 154 162 163
f 154 163 164
f 154 164 165
f 154 165 166
f 154 166 167
f 154 167 160
f 154 159 161
f 155 168 169
f 155 169 156
f 158 161 159
f 163 170 171
f 163 171 164
f 164 171 172
f 164 172 173
f 164 173 165
f 165 173 166
f 166 174 175
f 166 175 167
f 166 173 172
f 166 172 176
f 166 176 174
f 168 177 178
f 168 178 169
f 170 179 171
f 171 179 180
f 171 180 181
f 171 181 172
f 172 181 182
f 172 182 176
f 176 182 183
f 177 184 178
f 178 184 185
f 179 186 180
f 179 187 186
f 180 186 181
f 181 186 183
f 181 183 182
f 184 188 189
f 184 189 185
f 184 190 188
f 186 187 191
f 187 192 191
f 188 190 193
f 190 191 194
f 190 194 192
f 190 192 193
f 191 192 194

