# https://github.com/mikedh/trimesh
v 0.01882538 -0.05123012 -0.00693423
v 0.01882538 -0.05082616 -0.00779487
v 0.01928859 -0.05056061 -0.00799482
v 0.01911012 -0.05112277 -0.00693423
v 0.01882538 -0.03424115 -0.00693423
v 0.01882538 -0.05044762 -0.00853132
v 0.02047771 -0.05059734 -0.00693423
v 0.01882538 -0.05023857 -0.00892160
v 0.02014082 -0.04977812 -0.00884126
v 0.02113643 -0.05002106 -0.00757515
v 0.02077448 -0.05047869 -0.00693423
v 0.02906720 -0.02610542 -0.00693423
v 0.02906319 -0.02237090 -0.00841196
v 0.02597911 -0.02237090 -0.00952323
v 0.01882538 -0.02837947 -0.00952323
v 0.01882538 -0.05011993 -0.00912941
v 0.01957634 -0.04961145 -0.00952323
v 0.01985708 -0.04950410 -0.00952323
v 0.02143822 -0.04893912 -0.00937422
v 0.02213304 -0.04924421 -0.00824951
v 0.02303440 -0.04941935 -0.00708756
v 0.02279578 -0.04959732 -0.00693423
v 0.02150540 -0.05016230 -0.00693423
v 0.02906720 -0.02244718 -0.00838814
v 0.02906720 -0.04626958 -0.00693423
v 0.02906720 -0.02242175 -0.00952323
v 0.02906419 -0.02237090 -0.00952323
v 0.01882538 -0.04989111 -0.00952323
v 0.02125574 -0.04892782 -0.00952323
v 0.02148935 -0.04882612 -0.00952323
v 0.02271557 -0.04828092 -0.00952323
v 0.02282084 -0.04834589 -0.00933849
v 0.02384051 -0.04841086 -0.00835823
v 0.02414731 -0.04897019 -0.00693423
v 0.02310759 -0.04945325 -0.00693423
v 0.02858193 -0.04656902 -0.00693423
v 0.02824304 -0.04630913 -0.00785822
v 0.02906720 -0.04594755 -0.00756780
v 0.02906720 -0.04476391 -0.00952323
v 0.02292912 -0.04818487 -0.00952323
v 0.02430473 -0.04750972 -0.00952323
v 0.02464863 -0.04873290 -0.00693423
v 0.02501459 -0.04715378 -0.00952323
v 0.02570640 -0.04708033 -0.00904071
v 0.02510783 -0.04809447 -0.00776775
v 0.02781392 -0.04704078 -0.00693423
v 0.02899401 -0.04518482 -0.00897178
v 0.02637916 -0.04773289 -0.00717930
v 0.02711408 -0.04660858 -0.00851409
v 0.02906720 -0.04516505 -0.00892414
v 0.02906720 -0.04502663 -0.00913524
v 0.02882356 -0.04492211 -0.00952323
v 0.02626486 -0.04790520 -0.00693423
v 0.02583072 -0.04670744 -0.00952323
v 0.02661678 -0.04626111 -0.00952323
v 0.02691256 -0.04755492 -0.00693423
v 0.02794025 -0.04548709 -0.00952323
v 0.02647040 -0.04779503 -0.00693423
v 0.02749308 -0.04575828 -0.00952323
f 1 2 3
f 1 3 4
f 1 4 7
f 1 7 11
f 1 11 23
f 1 23 22
f 1 22 35
f 1 35 34
f 1 34 42
f 1 42 53
f 1 53 58
f 1 58 56
f 1 56 46
f 1 46 36
f 1 36 25
f 1 25 12
f 1 12 5
f 1 5 15
f 1 15 28
f 1 28 16
f 1 16 8
f 1 8 6
f 1 6 2
f 2 6 3
f 3 7 4
f 3 6 8
f 3 8 9
f 3 9 10
f 3 10 11
f 3 11 7
f 5 12 13
f 5 13 14
f 5 14 15
f 8 16 17
f 8 17 18
f 8 18 9
f 9 18 19
f 9 19 20
f 9 20 10
f 10 20 21
f 10 21 22
f 10 22 23
f 10 23 11
f 12 24 13
f 12 25 38
f 12 38 50
f 12 50 51
f 12 51 39
f 12 39 26
f 12 26 24
f 13 24 26
f 13 26 27
f 13 27 14
f 14 27 26
f 14 26 39
f 14 39 52
f 14 52 57
f 14 57 59
f 14 59 55
f 14 55 54
f 14 54 43
f 14 43 41
f 14 41 40
f 14 40 31
f 14 31 30
f 14 30 29
f 14 29 18
f 14 18 17
f 14 17 28
f 14 28 15
f 16 28 17
f 18 29 19
f 19 29 30
f 19 30 31
f 19 31 32
f 19 32 20
f 20 32 33
f 20 33 21
f 21 33 34
f 21 34 35
f 21 35 22
f 25 36 37
f 25 37 38
f 31 40 32
f 32 40 41
f 32 41 33
f 33 42 34
f 33 41 43
f 33 43 44
f 33 44 45
f 33 45 42
f 36 46 37
f 37 47 38
f 37 46 48
f 37 48 49
f 37 49 47
f 38 47 50
f 39 51 52
f 42 45 48
f 42 48 53
f 43 54 44
f 44 54 55
f 44 55 49
f 44 49 48
f 44 48 45
f 46 56 48
f 47 51 50
f 47 49 57
f 47 57 52
f 47 52 51
f 48 56 58
f 48 58 53
f 49 55 59
f 49 59 57

