# https://github.com/mikedh/trimesh
v -0.02138175 -0.02924107 -0.02357875
v -0.02138175 -0.02941509 -0.02353167
v -0.02159741 -0.02924107 -0.02353654
v -0.02138175 -0.02924107 -0.00838666
v -0.02161972 -0.02941509 -0.02348458
v -0.02138175 -0.03025395 -0.02327676
v -0.02175110 -0.03025395 -0.02320532
v -0.02181059 -0.02924107 -0.02349270
v -0.02506284 -0.02970919 -0.00699198
v -0.02435885 -0.03025395 -0.00699198
v -0.02138175 -0.03025395 -0.00798075
v -0.02567512 -0.02924107 -0.00699198
v -0.02334252 -0.02941677 -0.02311115
v -0.02244518 -0.03025395 -0.02305433
v -0.02331773 -0.02924107 -0.02316473
v -0.04604630 -0.03025395 -0.00699198
v -0.04670319 -0.02924107 -0.00699198
v -0.02348381 -0.03025395 -0.02281079
v -0.02418533 -0.03025395 -0.02263868
v -0.02508763 -0.02941638 -0.02268090
v -0.02505788 -0.02924107 -0.02274097
v -0.02353339 -0.02924107 -0.02311602
v -0.04607357 -0.03021350 -0.00699198
v -0.04563481 -0.03025395 -0.00771773
v -0.04658421 -0.02924107 -0.00723227
v -0.04658917 -0.02942738 -0.00699198
v -0.02523636 -0.03025395 -0.02235293
v -0.02686248 -0.02941489 -0.02218083
v -0.02527850 -0.02924107 -0.02268414
v -0.04649993 -0.02941102 -0.00719168
v -0.04579346 -0.02940775 -0.00840614
v -0.04535222 -0.03025395 -0.00819994
v -0.04649993 -0.02924107 -0.00738002
v -0.02594779 -0.03025395 -0.02215160
v -0.02711781 -0.03025395 -0.02178629
v -0.02788625 -0.03025395 -0.02153301
v -0.02867948 -0.02941191 -0.02158171
v -0.02865469 -0.02924107 -0.02165153
v -0.02706079 -0.02924107 -0.02217596
v -0.02683274 -0.02924107 -0.02224577
v -0.04587774 -0.02924107 -0.00844510
v -0.04502997 -0.02942649 -0.00959949
v -0.04459617 -0.03025395 -0.00939654
v -0.02904139 -0.03025395 -0.02110924
v -0.03000071 -0.02940309 -0.02109788
v -0.03006764 -0.02924107 -0.02113197
v -0.04522084 -0.02924107 -0.00948421
v -0.04511921 -0.02924107 -0.00964170
v -0.04501510 -0.02924107 -0.00979432
v -0.04431854 -0.02924107 -0.01081232
v -0.04422682 -0.02942451 -0.01077011
v -0.04380046 -0.03025395 -0.01056878
v -0.02956939 -0.03025395 -0.02091441
v -0.03130210 -0.03025395 -0.02018379
v -0.03170864 -0.02941519 -0.02037213
v -0.03178796 -0.02924107 -0.02040947
v -0.04344846 -0.02924107 -0.01196833
v -0.04337906 -0.02941251 -0.01191475
v -0.04328734 -0.03025395 -0.01125557
v -0.03294806 -0.03025395 -0.01940933
v -0.03335459 -0.02941638 -0.01959767
v -0.03322817 -0.02924107 -0.01973080
v -0.04255608 -0.02924107 -0.01300420
v -0.04218177 -0.02955262 -0.01319416
v -0.04186448 -0.03025395 -0.01298471
v -0.04241230 -0.03025395 -0.01234501
v -0.04294526 -0.03025395 -0.01171018
v -0.03449982 -0.03025395 -0.01859103
v -0.03490387 -0.02941915 -0.01878099
v -0.03498319 -0.02924107 -0.01881834
v -0.03343391 -0.02924107 -0.01963339
v -0.04236769 -0.02924107 -0.01322176
v -0.04166617 -0.02930978 -0.01390043
v -0.04116792 -0.03025395 -0.01370397
v -0.04139846 -0.03025395 -0.01346855
v -0.03596482 -0.03025395 -0.01772402
v -0.03637383 -0.02941340 -0.01791236
v -0.03645315 -0.02924107 -0.01794970
v -0.03627220 -0.02924107 -0.01805686
v -0.04168353 -0.02924107 -0.01392965
v -0.04074156 -0.03025395 -0.01409039
v -0.04026810 -0.02941063 -0.01509540
v -0.03984670 -0.03025395 -0.01490057
v -0.03733810 -0.03025395 -0.01682130
v -0.03774959 -0.02941548 -0.01701288
v -0.03765787 -0.02924107 -0.01716225
v -0.04034742 -0.02924107 -0.01513112
v -0.04019869 -0.02924107 -0.01525127
v -0.03904851 -0.02941648 -0.01607444
v -0.03862958 -0.03025395 -0.01588123
v -0.03896671 -0.02924107 -0.01622868
v -0.03782891 -0.02924107 -0.01704860
v -0.03912783 -0.02924107 -0.01611178
f 1 2 3
f 1 3 8
f 1 8 15
f 1 15 22
f 1 22 21
f 1 21 29
f 1 29 40
f 1 40 39
f 1 39 38
f 1 38 46
f 1 46 56
f 1 56 62
f 1 62 71
f 1 71 70
f 1 70 79
f 1 79 78
f 1 78 86
f 1 86 92
f 1 92 91
f 1 91 93
f 1 93 88
f 1 88 87
f 1 87 80
f 1 80 72
f 1 72 63
f 1 63 57
f 1 57 50
f 1 50 49
f 1 49 48
f 1 48 47
f 1 47 41
f 1 41 33
f 1 33 25
f 1 25 17
f 1 17 12
f 1 12 4
f 1 4 11
f 1 11 6
f 1 6 2
f 2 5 3
f 2 6 7
f 2 7 5
f 3 5 8
f 4 9 10
f 4 10 11
f 4 12 9
f 5 7 13
f 5 13 8
f 6 11 10
f 6 10 16
f 6 16 24
f 6 24 32
f 6 32 43
f 6 43 52
f 6 52 59
f 6 59 67
f 6 67 66
f 6 66 65
f 6 65 75
f 6 75 74
f 6 74 81
f 6 81 83
f 6 83 90
f 6 90 84
f 6 84 76
f 6 76 68
f 6 68 60
f 6 60 54
f 6 54 53
f 6 53 44
f 6 44 36
f 6 36 35
f 6 35 34
f 6 34 27
f 6 27 19
f 6 19 18
f 6 18 14
f 6 14 7
f 7 14 13
f 8 13 15
f 9 12 17
f 9 17 26
f 9 26 23
f 9 23 16
f 9 16 10
f 13 18 19
f 13 19 20
f 13 20 21
f 13 21 22
f 13 22 15
f 13 14 18
f 16 23 24
f 17 25 26
f 19 27 20
f 20 27 28
f 20 28 29
f 20 29 21
f 23 26 30
f 23 30 24
f 24 30 31
f 24 31 32
f 25 33 30
f 25 30 26
f 27 34 28
f 28 35 36
f 28 36 37
f 28 37 38
f 28 38 39
f 28 39 40
f 28 40 29
f 28 34 35
f 30 33 31
f 31 33 41
f 31 41 42
f 31 42 32
f 32 42 43
f 36 44 37
f 37 44 45
f 37 45 46
f 37 46 38
f 41 47 42
f 42 47 48
f 42 48 49
f 42 49 50
f 42 50 51
f 42 51 52
f 42 52 43
f 44 53 45
f 45 54 55
f 45 55 56
f 45 56 46
f 45 53 54
f 50 57 58
f 50 58 51
f 51 58 59
f 51 59 52
f 54 60 61
f 54 61 55
f 55 61 56
f 56 61 62
f 57 63 58
f 58 63 64
f 58 64 65
f 58 65 66
f 58 66 67
f 58 67 59
f 60 68 69
f 60 69 61
f 61 69 70
f 61 70 71
f 61 71 62
f 63 72 64
f 64 72 73
f 64 73 74
f 64 74 75
f 64 75 65
f 68 76 69
f 69 76 77
f 69 77 78
f 69 78 79
f 69 79 70
f 72 80 73
f 73 81 74
f 73 80 82
f 73 82 83
f 73 83 81
f 76 84 85
f 76 85 77
f 77 85 78
f 78 85 86
f 80 87 82
f 82 88 89
f 82 89 83
f 82 87 88
f 83 89 90
f 84 90 89
f 84 89 85
f 85 89 91
f 85 91 92
f 85 92 86
f 88 93 89
f 89 93 91

