# https://github.com/mikedh/trimesh
v 0.00974660 0.05466905 0.03345885
v 0.00974660 0.05488491 0.03342478
v 0.00145011 0.05597497 0.03345658
v 0.00891695 0.05463770 0.03346339
v 0.00974660 0.05438512 0.03338163
v 0.00769528 0.05589794 0.03326581
v 0.00429323 0.05590780 0.03338844
v 0.00974660 0.05578419 0.03310683
v -0.00016649 0.05580210 0.03345885
v 0.00253981 0.05636908 0.03327035
v -0.00016649 0.05640401 0.03327716
v -0.00016649 0.05521901 0.03340207
v 0.00751188 0.05455709 0.03343386
v 0.00974660 0.05392204 0.03323628
v 0.00396429 0.05644611 0.03317951
v 0.00898585 0.05602782 0.03307049
v 0.00699663 0.05637356 0.03303416
v 0.00974660 0.05595974 0.03302053
v -0.00016649 0.05685544 0.03299555
v -0.00016649 0.05678647 0.03304324
v -0.00016649 0.05466099 0.03328625
v 0.00974660 0.05355570 0.03307504
v 0.00456881 0.05679543 0.03291606
v 0.00974660 0.05621054 0.03281613
v 0.00938078 0.05633952 0.03276163
v 0.00781851 0.05654463 0.03279115
v 0.00612525 0.05672109 0.03283658
v 0.00272127 0.05696024 0.03281386
v -0.00016649 0.05728627 0.03238463
v -0.00016649 0.05420956 0.03289789
v 0.00974660 0.05327446 0.03282295
v 0.00408849 0.05709638 0.03258676
v 0.00974660 0.05628757 0.03274573
v 0.00974660 0.05636460 0.03263445
v 0.00874132 0.05662793 0.03247548
v 0.00717808 0.05682498 0.03250954
v 0.00545959 0.05700054 0.03254361
v 0.00180040 0.05728627 0.03235284
v -0.00016649 0.05736599 0.03224610
v -0.00016649 0.05389517 0.03239372
v 0.00974660 0.05287229 0.03223247
v 0.00974660 0.05311234 0.03260720
v 0.00476968 0.05726656 0.03212800
v 0.00323361 0.05726836 0.03233240
v 0.00974660 0.05649806 0.03242778
v 0.00818531 0.05693874 0.03202126
v 0.00636008 0.05712594 0.03210756
v 0.00288137 0.05744570 0.03198492
v 0.00009744 0.05736688 0.03223928
v -0.00016649 0.05754423 0.03180551
v -0.00016649 0.05369275 0.03203035
v 0.00974660 0.05285348 0.03220068
v 0.00535286 0.05736061 0.03169650
v 0.00974660 0.05669511 0.03199174
v 0.00974660 0.05691008 0.03134676
v 0.00967382 0.05693605 0.03130360
v 0.00820374 0.05711429 0.03145350
v 0.00661043 0.05726567 0.03160793
v 0.00365668 0.05748242 0.03168514
v 0.00218175 0.05754423 0.03171013
v 0.00035264 0.05755677 0.03176463
v 0.00064666 0.05772337 0.03105606
v -0.00016649 0.05770814 0.03109694
v -0.00016649 0.05359960 0.03182595
v 0.00974660 0.05260358 0.03159884
v 0.00554790 0.05749228 0.03101518
v 0.00456687 0.05751377 0.03131950
v 0.00974660 0.05692172 0.03130815
v 0.00974660 0.05693336 0.03125818
v 0.00883253 0.05715191 0.03087665
v 0.00711210 0.05734449 0.03100837
v 0.00377216 0.05763021 0.03097884
v 0.00255922 0.05766962 0.03103335
v 0.00152871 0.05763917 0.03137855
v 0.00111437 0.05781562 0.03037247
v -0.00016649 0.05787474 0.02989555
v -0.00016649 0.05339896 0.03116280
v 0.00974660 0.05254536 0.03143760
v 0.00630283 0.05750930 0.03055642
v 0.00974660 0.05702921 0.03075855
v 0.00974660 0.05714654 0.02997276
v 0.00925657 0.05727194 0.02962983
v 0.00747016 0.05742779 0.03021804
v 0.00441356 0.05767321 0.03040199
v 0.00297356 0.05780577 0.02977972
v 0.00094164 0.05830019 0.02419971
v -0.00016649 0.05787922 0.02986148
v -0.00016649 0.05330402 0.03071540
v 0.00974660 0.05234025 0.03060412
v 0.00974660 0.05250058 0.03126500
v 0.00605345 0.05760424 0.02993870
v 0.00974660 0.05720476 0.02951628
v 0.00974660 0.05725940 0.02865327
v 0.00974660 0.05728179 0.02827627
v 0.00795727 0.05749407 0.02901437
v 0.00483178 0.05774934 0.02910067
v 0.00280181 0.05827601 0.02352066
v 0.00220989 0.05820704 0.02479019
v 0.00153356 0.05835931 0.02293018
v 0.00026434 0.05840409 0.02233744
v -0.00016649 0.05833244 0.02368191
v -0.00016649 0.05319743 0.03008631
v 0.00974660 0.05214768 0.02942089
v 0.00592924 0.05804134 0.02343436
v 0.00466197 0.05818823 0.02284388
v 0.00407005 0.05815509 0.02411341
v 0.00974660 0.05729702 0.02796060
v 0.00905862 0.05763111 0.02335033
v 0.00846283 0.05765619 0.02461759
v 0.00855113 0.05748332 0.02774712
v 0.00719361 0.05785414 0.02402484
v 0.00339372 0.05830557 0.02225341
v 0.00212450 0.05839513 0.02166293
v 0.00085625 0.05845157 0.02107245
v -0.00016649 0.05838887 0.02249641
v -0.00016649 0.05835483 0.02326176
v 0.00017895 0.05851605 0.01921018
v -0.00016649 0.05848650 0.01995055
v -0.00016649 0.05844261 0.02115648
v -0.00016649 0.05314369 0.02974111
v -0.00016649 0.05292335 0.02831261
v 0.00974660 0.04940596 0.01026218
v 0.00652310 0.05802342 0.02216711
v 0.00525194 0.05818107 0.02157890
v 0.00398563 0.05830646 0.02098615
v 0.00974660 0.05750123 0.02367055
v 0.00974660 0.05762842 0.02058417
v 0.00897226 0.05777084 0.02022307
v 0.00829302 0.05794729 0.01836307
v 0.00778940 0.05783174 0.02275758
v 0.00271642 0.05840141 0.02039568
v 0.00144720 0.05847754 0.01980293
v 0.00077086 0.05852770 0.01794293
v -0.00016649 0.05853397 0.01826315
v -0.00016649 0.05851426 0.01904893
v -0.00016649 0.05034285 0.01026218
v 0.00974660 0.05758364 0.01026218
v 0.00702671 0.05812285 0.01777032
v 0.00457658 0.05828855 0.01971890
v 0.00974660 0.05767141 0.01946000
v 0.00956223 0.05772068 0.01895355
v 0.00869668 0.05789086 0.01750007
v 0.00798056 0.05800282 0.01750007
v 0.00715285 0.05811120 0.01750007
v 0.00330833 0.05838170 0.01912615
v 0.00203911 0.05845783 0.01853340
v 0.00009356 0.05855457 0.01608065
v -0.00016649 0.05855367 0.01663706
v -0.00016649 0.05854471 0.01750007
v 0.00195372 0.05847844 0.01540387
v 0.00068547 0.05853307 0.01481112
v -0.00016649 0.05843276 0.01026218
v 0.00956029 0.05761409 0.01026218
v 0.00974660 0.05760782 0.01077317
v 0.00644935 0.05817927 0.01750007
v 0.00635038 0.05820973 0.01591032
v 0.00575846 0.05824555 0.01717985
v 0.00974660 0.05768664 0.01903985
v 0.00974660 0.05768933 0.01888769
v 0.00912558 0.05781652 0.01750007
v 0.00888784 0.05786220 0.01709355
v 0.00761862 0.05806642 0.01650080
v 0.00449118 0.05833244 0.01658710
v 0.00508213 0.05830736 0.01531757
v -0.00016649 0.05855367 0.01536754
v -0.00016649 0.05855546 0.01596028
v 0.00381388 0.05837901 0.01472709
v 0.00254563 0.05844350 0.01413435
v 0.00127642 0.05848918 0.01354387
v 0.00060008 0.05847127 0.01168160
v 0.00000817 0.05851337 0.01295112
v -0.00016649 0.05854561 0.01441596
v -0.00016649 0.05846858 0.01132504
v 0.00008289 0.05842917 0.01026218
v 0.00974660 0.05763290 0.01131595
v 0.00898196 0.05770635 0.01026218
v 0.00694132 0.05813270 0.01464079
v 0.00567307 0.05825183 0.01404805
v 0.00974660 0.05770724 0.01750007
v 0.00974660 0.05771172 0.01678014
v 0.00948169 0.05776278 0.01582402
v 0.00821054 0.05796431 0.01523354
v 0.00440579 0.05833065 0.01345984
v 0.00313658 0.05838887 0.01286709
v 0.00186833 0.05843634 0.01227434
v 0.00119200 0.05841036 0.01041434
v 0.00086693 0.05841216 0.01026218
v -0.00016649 0.05851158 0.01287163
v -0.00016649 0.05852411 0.01332585
v 0.00974660 0.05765619 0.01194050
v 0.00871415 0.05777532 0.01083676
v 0.00850649 0.05776994 0.01026218
v 0.00753323 0.05802432 0.01337354
v 0.00626498 0.05815688 0.01278079
v 0.00499577 0.05825541 0.01219031
v 0.00974660 0.05771531 0.01594893
v 0.00974660 0.05771620 0.01572863
v 0.00974660 0.05771441 0.01525398
v 0.00974660 0.05770993 0.01467259
v 0.00974660 0.05770724 0.01440460
v 0.00880245 0.05785503 0.01396402
v 0.00372849 0.05831990 0.01159757
v 0.00246024 0.05837006 0.01100482
v 0.00126186 0.05840051 0.01026218
v 0.00113669 0.05840499 0.01026218
v 0.00939533 0.05773770 0.01269676
v 0.00974660 0.05768216 0.01286028
v 0.00812418 0.05790519 0.01210401
v 0.00745463 0.05790788 0.01026218
v 0.00685690 0.05803775 0.01151127
v 0.00558768 0.05814255 0.01092079
v 0.00431943 0.05821331 0.01033031
v 0.00974660 0.05769560 0.01366197
v 0.00417582 0.05822048 0.01026218
v 0.00280666 0.05831273 0.01026218
v 0.00218952 0.05835214 0.01026218
v 0.00743814 0.05790967 0.01026218
v 0.00589431 0.05807358 0.01026218
v 0.00435048 0.05820704 0.01026218
v 0.00429517 0.05821152 0.01026218
f 1 2 3
f 1 3 4
f 1 4 5
f 1 5 14
f 1 14 22
f 1 22 31
f 1 31 42
f 1 42 41
f 1 41 52
f 1 52 65
f 1 65 78
f 1 78 90
f 1 90 89
f 1 89 103
f 1 103 122
f 1 122 137
f 1 137 154
f 1 154 175
f 1 175 190
f 1 190 207
f 1 207 213
f 1 213 200
f 1 200 199
f 1 199 198
f 1 198 197
f 1 197 196
f 1 196 180
f 1 180 179
f 1 179 159
f 1 159 158
f 1 158 140
f 1 140 127
f 1 127 126
f 1 126 107
f 1 107 94
f 1 94 93
f 1 93 92
f 1 92 81
f 1 81 80
f 1 80 69
f 1 69 68
f 1 68 55
f 1 55 54
f 1 54 45
f 1 45 34
f 1 34 33
f 1 33 24
f 1 24 18
f 1 18 8
f 1 8 2
f 2 6 7
f 2 7 3
f 2 8 6
f 3 9 4
f 3 7 10
f 3 10 11
f 3 11 9
f 4 9 12
f 4 12 13
f 4 13 14
f 4 14 5
f 6 15 10
f 6 10 7
f 6 8 16
f 6 16 17
f 6 17 15
f 8 18 16
f 9 11 20
f 9 20 19
f 9 19 29
f 9 29 39
f 9 39 50
f 9 50 63
f 9 63 76
f 9 76 87
f 9 87 101
f 9 101 116
f 9 116 115
f 9 115 119
f 9 119 118
f 9 118 135
f 9 135 134
f 9 134 149
f 9 149 148
f 9 148 166
f 9 166 165
f 9 165 172
f 9 172 189
f 9 189 188
f 9 188 173
f 9 173 152
f 9 152 136
f 9 136 121
f 9 121 120
f 9 120 102
f 9 102 88
f 9 88 77
f 9 77 64
f 9 64 51
f 9 51 40
f 9 40 30
f 9 30 21
f 9 21 12
f 10 15 19
f 10 19 20
f 10 20 11
f 12 21 13
f 13 21 14
f 14 21 22
f 15 17 23
f 15 23 19
f 16 18 24
f 16 24 25
f 16 25 26
f 16 26 17
f 17 26 27
f 17 27 23
f 19 23 28
f 19 28 29
f 21 30 22
f 22 30 31
f 23 27 32
f 23 32 28
f 24 33 25
f 25 33 34
f 25 34 35
f 25 35 26
f 26 35 36
f 26 36 27
f 27 36 37
f 27 37 32
f 28 32 38
f 28 38 29
f 29 38 39
f 30 40 41
f 30 41 42
f 30 42 31
f 32 37 43
f 32 43 44
f 32 44 38
f 34 45 35
f 35 45 46
f 35 46 36
f 36 46 47
f 36 47 37
f 37 47 43
f 38 44 48
f 38 48 49
f 38 49 39
f 39 49 50
f 40 51 52
f 40 52 41
f 43 47 53
f 43 53 48
f 43 48 44
f 45 54 46
f 46 54 55
f 46 55 56
f 46 56 57
f 46 57 58
f 46 58 47
f 47 58 53
f 48 53 59
f 48 59 60
f 48 60 61
f 48 61 49
f 49 61 50
f 50 61 62
f 50 62 63
f 51 64 52
f 52 64 65
f 53 58 66
f 53 66 67
f 53 67 59
f 55 68 56
f 56 68 69
f 56 69 70
f 56 70 57
f 57 70 71
f 57 71 58
f 58 71 66
f 59 67 72
f 59 72 60
f 60 72 73
f 60 73 74
f 60 74 61
f 61 74 62
f 62 74 73
f 62 73 75
f 62 75 76
f 62 76 63
f 64 77 78
f 64 78 65
f 66 72 67
f 66 71 79
f 66 79 72
f 69 80 70
f 70 80 81
f 70 81 82
f 70 82 83
f 70 83 71
f 71 83 79
f 72 79 84
f 72 84 75
f 72 75 73
f 75 84 85
f 75 85 86
f 75 86 87
f 75 87 76
f 77 88 89
f 77 89 90
f 77 90 78
f 79 83 91
f 79 91 84
f 81 92 82
f 82 92 93
f 82 93 94
f 82 94 95
f 82 95 83
f 83 95 91
f 84 91 96
f 84 96 85
f 85 96 97
f 85 97 98
f 85 98 86
f 86 98 97
f 86 97 99
f 86 99 100
f 86 100 101
f 86 101 87
f 88 102 89
f 89 102 103
f 91 95 104
f 91 104 105
f 91 105 106
f 91 106 96
f 94 107 108
f 94 108 109
f 94 109 110
f 94 110 95
f 95 110 111
f 95 111 104
f 96 106 97
f 97 106 105
f 97 105 112
f 97 112 113
f 97 113 99
f 99 113 114
f 99 114 100
f 100 115 116
f 100 116 101
f 100 114 117
f 100 117 118
f 100 118 119
f 100 119 115
f 102 120 103
f 103 120 121
f 103 121 122
f 104 111 123
f 104 123 124
f 104 124 105
f 105 124 125
f 105 125 112
f 107 126 108
f 108 126 127
f 108 127 128
f 108 128 129
f 108 129 130
f 108 130 109
f 109 130 111
f 109 111 110
f 111 130 123
f 112 125 131
f 112 131 113
f 113 131 132
f 113 132 114
f 114 132 117
f 117 132 133
f 117 133 134
f 117 134 135
f 117 135 118
f 121 136 122
f 122 136 152
f 122 152 174
f 122 174 187
f 122 187 205
f 122 205 204
f 122 204 216
f 122 216 215
f 122 215 214
f 122 214 220
f 122 220 219
f 122 219 218
f 122 218 217
f 122 217 209
f 122 209 192
f 122 192 176
f 122 176 153
f 122 153 137
f 123 130 129
f 123 129 138
f 123 138 124
f 124 138 139
f 124 139 125
f 125 139 131
f 127 140 128
f 128 140 141
f 128 141 129
f 129 141 142
f 129 142 143
f 129 143 144
f 129 144 138
f 131 139 145
f 131 145 146
f 131 146 132
f 132 146 133
f 133 147 148
f 133 148 149
f 133 149 134
f 133 146 150
f 133 150 151
f 133 151 147
f 137 153 154
f 138 155 139
f 138 144 156
f 138 156 155
f 139 155 157
f 139 157 145
f 140 158 141
f 141 159 160
f 141 160 142
f 141 158 159
f 142 160 161
f 142 161 162
f 142 162 143
f 143 162 144
f 144 162 156
f 145 157 163
f 145 163 146
f 146 163 164
f 146 164 150
f 147 151 165
f 147 165 166
f 147 166 148
f 150 164 167
f 150 167 168
f 150 168 151
f 151 168 169
f 151 169 170
f 151 170 171
f 151 171 172
f 151 172 165
f 152 173 170
f 152 170 174
f 153 175 154
f 153 176 175
f 155 156 157
f 156 177 178
f 156 178 164
f 156 164 157
f 156 162 177
f 157 164 163
f 159 179 160
f 160 179 161
f 161 180 181
f 161 181 162
f 161 179 180
f 162 181 182
f 162 182 177
f 164 178 183
f 164 183 167
f 167 183 168
f 168 183 184
f 168 184 185
f 168 185 169
f 169 185 170
f 170 186 187
f 170 187 174
f 170 173 171
f 170 185 186
f 171 188 189
f 171 189 172
f 171 173 188
f 175 176 191
f 175 191 190
f 176 192 191
f 177 182 193
f 177 193 194
f 177 194 178
f 178 194 195
f 178 195 183
f 180 196 181
f 181 196 197
f 181 197 198
f 181 198 199
f 181 199 182
f 182 199 200
f 182 200 201
f 182 201 193
f 183 195 202
f 183 202 184
f 184 202 203
f 184 203 185
f 185 203 186
f 186 203 204
f 186 204 205
f 186 205 187
f 190 191 206
f 190 206 207
f 191 208 206
f 191 192 209
f 191 209 208
f 193 201 206
f 193 206 208
f 193 208 210
f 193 210 194
f 194 210 211
f 194 211 195
f 195 211 212
f 195 212 202
f 200 213 201
f 201 213 206
f 202 212 214
f 202 214 215
f 202 215 216
f 202 216 203
f 203 216 204
f 206 213 207
f 208 209 210
f 209 217 210
f 210 217 211
f 211 217 218
f 211 218 219
f 211 219 212
f 212 219 220
f 212 220 214

