# https://github.com/mikedh/trimesh
v 0.01850010 -0.01573611 -0.02135941
v 0.01850010 -0.01649137 -0.02099866
v 0.01850010 -0.01491476 -0.02149016
v 0.01850010 -0.01487781 -0.02149139
v 0.01850010 -0.01649137 -0.01716766
v 0.01850010 -0.01649111 -0.01713068
v 0.01850010 -0.01649110 -0.01712984
v 0.01850010 -0.01540999 -0.01658997
v 0.01850010 -0.01534731 -0.01656100
v 0.01850010 -0.01531076 -0.01654710
v 0.01850010 -0.01525200 -0.01652519
v 0.01850010 -0.01521511 -0.01651201
v 0.01850010 -0.01500443 -0.01645676
v 0.01850345 -0.01451799 -0.01634442
v 0.01850010 -0.01452000 -0.01634442
v 0.01850010 -0.01383146 -0.01626117
v 0.01850010 -0.00980767 -0.01598370
v 0.02101461 -0.01649110 -0.01730504
v 0.02137790 -0.00980767 -0.01598370
v 0.02149687 -0.00954075 -0.01598370
v 0.02158398 -0.00931832 -0.01598370
v 0.01850010 -0.00117548 -0.02149025
v 0.01850010 -0.00081345 -0.02148779
v 0.01850010 0.00284396 -0.02099479
v 0.01850010 0.00349990 -0.02083924
v 0.01863003 0.00349990 -0.02099442
v 0.01850010 0.00094757 -0.01598370
v 0.01850010 0.00349990 -0.01618904
v 0.02480010 -0.01649338 -0.02099966
v 0.02480010 -0.01022750 -0.02399259
v 0.02170083 -0.01649110 -0.01736385
v 0.02224682 -0.01649110 -0.01742658
v 0.02185804 -0.00860392 -0.01598370
v 0.02260374 -0.00652353 -0.01598370
v 0.02351728 -0.01649110 -0.01757558
v 0.02480010 -0.01649338 -0.01787223
v 0.02480010 -0.01649334 -0.01786704
v 0.02480010 -0.01649315 -0.01784150
v 0.02480010 -0.01649306 -0.01783192
v 0.02474736 -0.01649110 -0.01772457
v 0.02480010 -0.01649296 -0.01782625
v 0.02480010 -0.01649255 -0.01780406
v 0.02480010 -0.01649117 -0.01773680
v 0.02480010 -0.01649123 -0.01773738
v 0.02480010 -0.01579433 -0.01754926
v 0.02480010 -0.01475403 -0.01727646
v 0.02480010 -0.01474800 -0.01727507
v 0.02480010 -0.01463938 -0.01725735
v 0.02480010 -0.01281628 -0.01704013
v 0.02476648 -0.01199274 -0.01693516
v 0.02480010 -0.01196268 -0.01693946
v 0.02472612 -0.01104282 -0.01681492
v 0.02480010 -0.01104282 -0.01683211
v 0.02480010 -0.00960136 -0.01672426
v 0.02480010 -0.00855696 -0.01664782
v 0.02480010 -0.00807158 -0.01661547
v 0.02480010 -0.00779413 -0.01659990
v 0.02480010 -0.00663870 -0.01653740
v 0.02480010 -0.00658516 -0.01653511
v 0.02480010 -0.00341326 -0.02507735
v 0.02480010 -0.00339320 -0.02507801
v 0.02387689 0.00349990 -0.02455023
v 0.02414335 0.00349990 -0.02470345
v 0.02480010 0.00349990 -0.02507744
v 0.02279070 -0.00584838 -0.01598370
v 0.02287568 -0.00546632 -0.01598370
v 0.02318798 -0.00399566 -0.01598370
v 0.02319860 -0.00392762 -0.01598370
v 0.02246838 0.00349990 -0.01618904
v 0.02333244 -0.00300649 -0.01598370
v 0.02337706 -0.00267938 -0.01598370
v 0.02338343 -0.00261658 -0.01598370
v 0.02341105 -0.00231564 -0.01598370
v 0.02343230 -0.00188386 -0.01598370
v 0.02480010 -0.00584570 -0.01650530
v 0.02480010 -0.00557538 -0.01649493
v 0.02480010 -0.00453576 -0.01646170
v 0.02480010 -0.00449419 -0.01646045
v 0.02480010 -0.00429527 -0.01645497
v 0.02480010 -0.00402125 -0.01645070
v 0.02480010 -0.00241772 -0.01646459
v 0.02323047 0.00094757 -0.01598370
v 0.02480010 -0.00066248 -0.01650984
v 0.02480010 0.00097324 -0.01663160
v 0.02480010 0.00349990 -0.01714377
f 2 1 29
f 1 3 30
f 3 4 60
f 13 14 15
f 14 16 15
f 6 18 7
f 7 18 8
f 8 18 9
f 9 31 10
f 10 32 11
f 14 19 16
f 16 19 17
f 2 36 5
f 5 37 6
f 11 35 12
f 9 18 31
f 10 31 32
f 12 46 13
f 13 47 14
f 6 37 18
f 11 32 35
f 14 47 19
f 17 19 20
f 17 20 21
f 17 21 33
f 17 33 34
f 17 34 65
f 17 65 66
f 24 25 26
f 4 22 63
f 62 22 23
f 62 23 24
f 62 24 26
f 27 69 28
f 17 82 27
f 17 66 67
f 17 67 68
f 27 82 69
f 1 30 29
f 3 60 30
f 4 61 60
f 2 29 36
f 12 35 40
f 18 38 31
f 5 36 37
f 12 40 46
f 31 39 32
f 13 46 47
f 19 52 20
f 20 52 21
f 21 52 33
f 33 52 34
f 18 37 38
f 32 41 35
f 32 39 41
f 31 38 39
f 19 47 48
f 19 48 50
f 35 42 40
f 35 41 42
f 40 42 44
f 40 44 43
f 40 43 45
f 40 45 46
f 50 48 49
f 50 49 51
f 50 51 52
f 19 50 52
f 34 56 65
f 34 52 54
f 52 51 53
f 52 53 54
f 34 54 55
f 34 55 56
f 65 56 57
f 66 57 58
f 4 63 61
f 62 63 22
f 63 64 61
f 17 68 70
f 17 70 71
f 17 71 72
f 17 72 73
f 17 73 74
f 17 74 82
f 65 57 66
f 66 58 67
f 67 59 68
f 68 75 70
f 70 76 71
f 71 78 72
f 72 79 73
f 73 80 74
f 67 58 59
f 68 59 75
f 70 75 76
f 71 76 77
f 71 77 78
f 72 78 79
f 73 79 80
f 74 80 81
f 74 81 83
f 74 83 82
f 69 82 85
f 82 83 84
f 82 84 85
f 2 8 1
f 1 8 3
f 3 15 4
f 2 5 6
f 2 6 7
f 2 7 8
f 3 8 9
f 3 9 10
f 3 10 11
f 3 11 12
f 3 12 13
f 3 13 15
f 4 15 16
f 4 16 17
f 4 17 22
f 17 23 22
f 17 27 23
f 23 27 24
f 24 27 25
f 25 27 28
f 63 26 25
f 25 28 69
f 62 26 63
f 63 25 64
f 25 69 64
f 69 85 64
f 30 36 29
f 30 60 59
f 30 45 36
f 30 46 45
f 30 47 46
f 30 48 47
f 30 49 48
f 30 51 49
f 36 45 37
f 37 45 38
f 41 39 45
f 38 45 39
f 41 45 42
f 45 44 42
f 45 43 44
f 30 53 51
f 30 54 53
f 30 55 54
f 30 56 55
f 30 57 56
f 30 58 57
f 30 59 58
f 60 61 80
f 61 64 85
f 59 60 75
f 76 75 60
f 76 60 77
f 77 60 78
f 78 60 79
f 80 79 60
f 61 81 80
f 61 83 81
f 61 84 83
f 61 85 84

