# https://github.com/mikedh/trimesh
v 0.01850010 -0.01649990 -0.05690010
v 0.01850010 -0.01649990 -0.03838724
v 0.01850010 -0.01453606 -0.03845413
v 0.01850010 -0.01231967 -0.05690010
v 0.01850010 -0.01228557 -0.04780316
v 0.02132906 -0.01211854 -0.05690010
v 0.01850010 -0.01351435 -0.03867582
v 0.01850010 -0.01264423 -0.03886473
v 0.01850010 -0.01263566 -0.03886662
v 0.01850010 -0.01228557 -0.04140028
v 0.01850010 -0.01228694 -0.04086982
v 0.02480010 -0.01649990 -0.05690010
v 0.02480010 -0.01649990 -0.03856510
v 0.02204592 -0.01207543 -0.05690010
v 0.02297930 -0.01203735 -0.05690010
v 0.02301825 -0.01200190 -0.05566329
v 0.02286432 -0.01200190 -0.05490240
v 0.02345437 -0.01200190 -0.05631297
v 0.02397247 -0.01201130 -0.05690010
v 0.02410085 -0.01200190 -0.05674609
v 0.02480010 -0.01200190 -0.05688528
v 0.02480010 -0.01200268 -0.05690010
v 0.02480010 -0.01200152 -0.05624580
v 0.02224349 -0.01199486 -0.04124740
v 0.02224349 -0.01199486 -0.03900571
v 0.02480010 -0.01356464 -0.03866508
v 0.02480010 -0.01199509 -0.04279790
v 0.02480010 -0.01199486 -0.04188250
v 0.02480010 -0.01220743 -0.03895956
v 0.02480010 -0.01199486 -0.03900571
f 2 26 3
f 4 5 17
f 4 17 6
f 5 24 17
f 5 10 24
f 7 25 8
f 9 25 11
f 8 25 9
f 10 11 25
f 3 29 7
f 10 25 24
f 2 13 26
f 6 16 14
f 6 17 16
f 14 18 15
f 14 16 18
f 17 24 16
f 18 16 24
f 15 18 20
f 15 20 19
f 19 20 22
f 20 21 22
f 20 23 21
f 18 24 20
f 20 27 23
f 3 26 29
f 7 29 25
f 24 25 28
f 20 24 27
f 24 28 27
f 25 30 28
f 25 29 30
f 1 2 5
f 2 3 11
f 1 5 4
f 2 10 5
f 2 11 10
f 3 7 11
f 7 8 11
f 8 9 11
f 1 13 2
f 1 12 13
f 1 6 12
f 1 4 6
f 6 14 12
f 14 15 12
f 15 19 12
f 19 22 12
f 13 12 23
f 21 12 22
f 21 23 12
f 13 23 27
f 29 26 13
f 28 13 27
f 29 13 28
f 29 28 30

