# https://github.com/mikedh/trimesh
v 0.02819990 -0.01649990 -0.05690010
v 0.02819990 -0.01649990 -0.03866108
v 0.03045255 -0.01649990 -0.03872467
v 0.02819990 -0.01200190 -0.05689827
v 0.02819990 -0.01200201 -0.05690010
v 0.02819990 -0.01199996 -0.05428188
v 0.02819990 -0.01199969 -0.05381339
v 0.02819990 -0.01199541 -0.04485978
v 0.02819990 -0.01199516 -0.04391606
v 0.02819990 -0.01304041 -0.03877892
v 0.02819990 -0.01199516 -0.03900571
v 0.03449990 -0.01649990 -0.05690010
v 0.03449990 -0.01649990 -0.03884334
v 0.03449990 -0.01637063 -0.03884334
v 0.03449990 -0.01200190 -0.05689827
v 0.03449990 -0.01200201 -0.05690010
v 0.03449990 -0.01199630 -0.04933871
v 0.03449990 -0.01199629 -0.04930598
v 0.03449990 -0.01199599 -0.04868054
v 0.03449990 -0.01199597 -0.04861462
v 0.03449990 -0.01206898 -0.03898987
v 0.03449990 -0.01199597 -0.03900571
f 3 10 2
f 16 5 4
f 15 4 6
f 17 6 7
f 18 7 8
f 3 21 10
f 19 8 9
f 20 9 11
f 22 11 10
f 3 13 14
f 3 14 21
f 15 16 4
f 15 6 17
f 17 7 18
f 18 8 19
f 19 9 20
f 20 11 22
f 21 22 10
f 12 16 13
f 13 16 14
f 14 16 20
f 15 17 16
f 16 17 18
f 16 18 19
f 16 19 20
f 14 20 21
f 20 22 21
f 12 3 1
f 3 2 1
f 12 13 3
f 12 1 5
f 12 5 16
f 1 2 11
f 5 1 6
f 1 7 6
f 1 8 7
f 1 9 8
f 5 6 4
f 1 11 9
f 11 2 10

