# https://github.com/mikedh/trimesh
v 0.03449990 0.01313887 -0.07962547
v 0.03679878 0.01298341 -0.07962790
v 0.03449990 0.01075756 -0.04703842
v 0.03449990 0.01024161 -0.03732516
v 0.03449990 0.01024132 -0.03552084
v 0.03449990 0.01024093 -0.03101460
v 0.03449990 0.01024093 -0.02940605
v 0.03449990 0.01024968 -0.02941966
v 0.03449990 0.01026231 -0.02943953
v 0.03451739 0.01024093 -0.02943649
v 0.03449990 0.01084269 -0.03058079
v 0.03449990 0.01095887 -0.03084184
v 0.03449990 0.01122263 -0.03143451
v 0.03449990 0.01174897 -0.03265657
v 0.03449990 0.01177143 -0.03271527
v 0.03449990 0.01178922 -0.03276950
v 0.03449990 0.01166386 -0.03243510
v 0.03522504 0.01024093 -0.03101460
v 0.03537449 0.01024187 -0.03134935
v 0.03573641 0.01024187 -0.03222608
v 0.03494594 0.01236551 -0.03593491
v 0.03449990 0.01205189 -0.03357729
v 0.03449990 0.01255638 -0.03524586
v 0.03449990 0.01262208 -0.03546463
v 0.03449990 0.01313440 -0.03758737
v 0.03449990 0.01330044 -0.03827585
v 0.03449990 0.01344606 -0.03891319
v 0.03541410 0.01299658 -0.04015915
v 0.03652689 0.01024187 -0.04185947
v 0.03652689 0.01024187 -0.03445775
v 0.03652689 0.01048169 -0.03508475
v 0.03652689 0.01067167 -0.03566392
v 0.03652689 0.01190466 -0.03995724
v 0.03652689 0.01306806 -0.04511134
v 0.03449990 0.01381828 -0.07963061
v 0.03449990 0.01481841 -0.07963667
v 0.03449990 0.01532002 -0.07963906
v 0.03449990 0.01633252 -0.07963906
v 0.03449990 0.01640371 -0.07963885
v 0.03449990 0.01658505 -0.07963788
v 0.03449990 0.01660994 -0.07963766
v 0.03449990 0.01675724 -0.07963625
v 0.03449990 0.01679446 -0.07963557
v 0.03449990 0.01692677 -0.07963309
v 0.03449990 0.01703268 -0.07962790
v 0.03449990 0.01709760 -0.07849126
v 0.03449990 0.01725258 -0.07564894
v 0.03449990 0.01729406 -0.07451917
v 0.03449990 0.01729960 -0.07432719
v 0.03449990 0.01728313 -0.07388803
v 0.03461822 0.01725890 -0.07433033
v 0.03540690 0.01652250 -0.07962790
v 0.03449990 0.01603333 -0.05561673
v 0.03449990 0.01604103 -0.05568639
v 0.03449990 0.01682677 -0.06410397
v 0.03449990 0.01684022 -0.06431567
v 0.03449990 0.01680490 -0.06376286
v 0.03449990 0.01694666 -0.06605537
v 0.03562298 0.01576352 -0.05832604
v 0.03523044 0.01668050 -0.06607314
v 0.03668175 0.01464339 -0.05456939
v 0.03665833 0.01471298 -0.05496259
v 0.03682219 0.01501958 -0.05811350
v 0.03692483 0.01503369 -0.05903805
v 0.03676277 0.01471957 -0.05550988
v 0.03624419 0.01589425 -0.07962790
v 0.03590207 0.01656388 -0.07402746
v 0.03657191 0.01564690 -0.07962790
v 0.03647467 0.01597795 -0.06581809
v 0.03449990 0.01449621 -0.04463649
v 0.03449990 0.01465995 -0.04563900
v 0.03449990 0.01481497 -0.04658952
v 0.03449990 0.01505111 -0.04804503
v 0.03575082 0.01449103 -0.04966502
v 0.03569500 0.01380164 -0.04527606
v 0.03449990 0.01405267 -0.04195798
v 0.03449990 0.01587382 -0.05424990
v 0.03449990 0.01589855 -0.05445759
v 0.03577423 0.01475154 -0.05135471
v 0.03657731 0.01449197 -0.05315068
v 0.03691403 0.01438287 -0.05391583
v 0.03889652 0.01298341 -0.07962790
v 0.03863363 0.01341134 -0.07962790
v 0.03861922 0.01343015 -0.07962790
v 0.03863542 0.01341228 -0.07960133
v 0.03895594 0.01298341 -0.07909655
v 0.03936828 0.01298341 -0.07377772
v 0.03921523 0.01349692 -0.07137070
v 0.03956455 0.01298341 -0.07081810
v 0.03868584 0.01331729 -0.05692859
v 0.03866964 0.01331729 -0.05681169
v 0.03956815 0.01298341 -0.06404869
v 0.03955915 0.01298341 -0.06358641
v 0.03918282 0.01298341 -0.05903805
v 0.03791517 0.01331729 -0.05225801
v 0.03788096 0.01348940 -0.05306566
v 0.03805923 0.01331729 -0.05303910
v 0.03764688 0.01461047 -0.07962790
v 0.03747042 0.01478540 -0.07962790
v 0.03820508 0.01468101 -0.07254499
v 0.03705627 0.01458884 -0.05605717
v 0.03747402 0.01433396 -0.05645568
v 0.03761987 0.01512210 -0.06531330
v 0.03791157 0.01414398 -0.05769373
v 0.03805562 0.01389193 -0.05674793
v 0.03709769 0.01570332 -0.07342703
v 0.03725434 0.01406498 -0.05348012
f 1 2 3
f 1 35 2
f 2 29 3
f 2 37 82
f 3 29 4
f 6 10 7
f 7 10 8
f 8 10 9
f 9 10 11
f 5 18 6
f 6 18 10
f 10 19 11
f 11 19 12
f 10 18 19
f 12 20 13
f 13 20 17
f 14 17 20
f 4 29 5
f 5 29 18
f 12 19 20
f 18 20 19
f 14 20 30
f 14 30 15
f 15 31 16
f 16 32 22
f 21 22 32
f 28 75 76
f 21 25 24
f 21 28 25
f 21 23 22
f 21 24 23
f 26 28 27
f 25 28 26
f 27 28 76
f 21 33 28
f 32 95 33
f 18 29 30
f 18 30 20
f 15 30 31
f 16 31 32
f 21 32 33
f 28 34 75
f 33 95 34
f 75 95 107
f 34 95 75
f 28 33 34
f 2 35 36
f 2 36 37
f 59 77 79
f 43 44 52
f 44 45 52
f 45 46 52
f 47 48 51
f 48 49 51
f 49 50 51
f 42 43 66
f 46 47 67
f 47 51 67
f 50 60 51
f 50 58 60
f 41 42 68
f 43 52 66
f 40 41 99
f 46 67 52
f 51 60 67
f 57 59 60
f 53 78 59
f 53 59 54
f 59 78 77
f 54 59 57
f 55 60 56
f 56 60 58
f 55 57 60
f 37 38 82
f 38 39 83
f 39 40 84
f 40 99 98
f 40 98 84
f 59 79 62
f 59 62 63
f 61 101 65
f 61 81 101
f 63 64 69
f 64 103 69
f 61 65 62
f 62 65 63
f 63 65 101
f 42 66 68
f 52 67 66
f 41 68 99
f 66 67 68
f 60 69 67
f 67 106 68
f 67 69 106
f 59 69 60
f 59 63 69
f 70 76 75
f 70 74 71
f 72 79 73
f 73 79 77
f 71 79 72
f 71 74 79
f 70 75 74
f 74 80 79
f 74 75 80
f 61 79 80
f 75 81 80
f 61 62 79
f 75 107 81
f 61 80 81
f 2 82 29
f 29 82 86
f 29 86 87
f 91 105 97
f 83 85 86
f 82 83 86
f 83 84 85
f 85 87 86
f 85 88 87
f 88 100 92
f 87 88 89
f 88 92 89
f 29 87 89
f 29 89 92
f 90 105 91
f 90 91 94
f 92 100 93
f 90 94 93
f 29 92 30
f 30 94 31
f 31 97 32
f 32 97 95
f 31 91 97
f 31 94 91
f 95 96 107
f 95 97 96
f 96 97 105
f 30 93 94
f 30 92 93
f 39 84 83
f 38 83 82
f 68 106 99
f 98 99 106
f 98 106 100
f 100 106 103
f 84 98 100
f 63 101 102
f 101 107 102
f 63 102 104
f 63 104 64
f 64 104 103
f 96 105 102
f 102 105 104
f 90 103 104
f 90 104 105
f 69 103 106
f 84 100 85
f 85 100 88
f 93 100 103
f 90 93 103
f 81 107 101
f 96 102 107
f 1 3 57
f 3 4 76
f 4 5 23
f 5 6 13
f 6 7 8
f 6 8 9
f 6 9 11
f 6 11 12
f 5 13 17
f 6 12 13
f 4 23 24
f 4 24 25
f 5 17 14
f 5 14 15
f 5 15 16
f 5 16 22
f 5 22 23
f 3 70 71
f 3 76 70
f 3 72 73
f 3 71 72
f 4 25 26
f 4 26 27
f 4 27 76
f 1 47 35
f 35 47 36
f 3 54 57
f 36 47 37
f 1 48 47
f 1 49 48
f 1 50 49
f 37 46 38
f 1 58 50
f 1 56 58
f 1 55 56
f 1 57 55
f 38 46 39
f 37 47 46
f 39 46 40
f 40 46 41
f 41 46 42
f 42 46 43
f 43 46 44
f 44 46 45
f 3 77 78
f 3 73 77
f 3 78 53
f 3 53 54

