# https://github.com/mikedh/trimesh
v 0.02175093 0.01400103 -0.07961196
v 0.02117473 0.01400103 -0.05314005
v 0.02117473 0.01400103 -0.05165227
v 0.02175093 0.01400009 -0.02536103
v 0.02117473 0.01705294 -0.05314005
v 0.02174193 0.01802165 -0.07961196
v 0.02174193 0.01950293 -0.07961196
v 0.02174193 0.01958663 -0.07700834
v 0.02174193 0.01964400 -0.07288505
v 0.02174193 0.01968256 -0.06770438
v 0.02117833 0.01818247 -0.05902211
v 0.02117833 0.01972676 -0.05902211
v 0.02294475 0.01942016 -0.07961196
v 0.02117473 0.01705294 -0.05165227
v 0.02174553 0.01656482 -0.02536103
v 0.02117833 0.01983492 -0.04023354
v 0.02117653 0.01982740 -0.03976595
v 0.02117653 0.01811381 -0.03102523
v 0.02117653 0.01984809 -0.03628560
v 0.02117653 0.01978790 -0.03308687
v 0.02117653 0.01975310 -0.03226327
v 0.02117653 0.01967410 -0.03102523
v 0.02174553 0.01818999 -0.02536103
v 0.02263504 0.01791161 -0.02536103
v 0.02216508 0.01818999 -0.02536103
v 0.02222810 0.01928379 -0.03102523
v 0.02480010 0.01322529 -0.07182135
v 0.02480010 0.01379483 -0.07961519
v 0.02480010 0.01245180 -0.05725965
v 0.02480010 0.01229210 -0.04051477
v 0.02480010 0.01229210 -0.03970317
v 0.02480010 0.01245125 -0.02536103
v 0.02325446 0.01790220 -0.07964384
v 0.02325446 0.01938631 -0.07964384
v 0.02325266 0.01948035 -0.07298070
v 0.02325266 0.01949728 -0.07072246
v 0.02480010 0.01734088 -0.07964202
v 0.02480010 0.01764096 -0.07964384
v 0.02442127 0.01935339 -0.07304977
v 0.02480010 0.01922534 -0.07964384
v 0.02480010 0.01922616 -0.07962729
v 0.02480010 0.01924228 -0.07860069
v 0.02480010 0.01926498 -0.07696867
v 0.02480010 0.01927829 -0.07588446
v 0.02480010 0.01929985 -0.07409837
v 0.02480010 0.01930243 -0.07376157
v 0.02480010 0.01930715 -0.07310799
v 0.02480010 0.01935628 -0.05504210
v 0.02370641 0.01725138 -0.02536103
v 0.02340391 0.01818999 -0.02710917
v 0.02355336 0.01818999 -0.02741204
v 0.02370281 0.01801788 -0.02711980
v 0.02370641 0.01812416 -0.02748643
v 0.02370641 0.01809783 -0.02739610
v 0.02370641 0.01818999 -0.02776273
v 0.02480010 0.01657539 -0.02536103
v 0.02480010 0.01689926 -0.02603843
v 0.02480010 0.01704628 -0.02634786
v 0.02480010 0.01708412 -0.02643738
v 0.02480010 0.01738364 -0.02715296
v 0.02480010 0.01743562 -0.02732797
v 0.02480010 0.01745230 -0.02738521
v 0.02480010 0.01765057 -0.02806582
v 0.02480010 0.01929863 -0.04929255
v 0.02480010 0.01925907 -0.04718987
v 0.02480010 0.01911812 -0.04372308
v 0.02480010 0.01909456 -0.04316560
v 0.02480010 0.01896088 -0.04098059
v 0.02423040 0.01850882 -0.03102523
v 0.02455451 0.01849848 -0.03231110
v 0.02480010 0.01839429 -0.03249465
v 0.02480010 0.01837245 -0.03231110
v 0.02480010 0.01876883 -0.03795808
v 0.02480010 0.01845666 -0.03308776
v 0.02480010 0.01843780 -0.03288832
v 0.02444467 0.01818999 -0.02949494
v 0.02459052 0.01818999 -0.02995190
v 0.02480010 0.01818999 -0.03082296
v 0.02480010 0.01801854 -0.02964293
v 0.02480010 0.01804521 -0.02979106
v 0.02480010 0.01799397 -0.02950655
v 0.02480010 0.01809720 -0.03008462
v 0.02480010 0.01821386 -0.03101540
v 0.02480010 0.01833713 -0.03201994
f 2 3 5
f 1 2 11
f 1 29 2
f 3 14 5
f 3 4 18
f 2 30 3
f 3 31 4
f 4 56 15
f 1 11 6
f 2 5 12
f 2 12 11
f 6 12 7
f 7 12 8
f 8 12 9
f 9 12 10
f 6 11 12
f 10 12 16
f 10 19 36
f 1 6 33
f 6 7 34
f 7 8 13
f 9 10 36
f 6 34 33
f 7 13 34
f 8 9 43
f 9 36 35
f 39 36 19
f 3 22 14
f 4 15 18
f 3 18 22
f 5 14 19
f 5 17 12
f 14 20 19
f 14 21 20
f 10 16 19
f 5 19 17
f 12 19 16
f 12 17 19
f 14 22 21
f 15 22 18
f 15 23 22
f 21 22 26
f 23 25 22
f 15 56 23
f 23 56 25
f 25 50 22
f 20 21 67
f 19 20 65
f 22 51 26
f 22 50 51
f 21 26 73
f 1 27 29
f 1 28 27
f 1 33 28
f 2 29 30
f 3 30 31
f 4 31 32
f 4 32 56
f 8 42 13
f 9 35 43
f 33 34 38
f 13 41 34
f 8 43 42
f 35 36 39
f 39 19 48
f 33 37 28
f 33 38 37
f 34 40 38
f 13 42 41
f 34 41 40
f 35 44 43
f 35 45 44
f 35 39 45
f 39 46 45
f 39 47 46
f 39 48 47
f 24 25 56
f 24 59 25
f 25 59 50
f 49 24 56
f 49 58 24
f 19 64 48
f 20 67 66
f 19 65 64
f 20 66 65
f 26 51 55
f 26 70 73
f 50 53 51
f 50 52 54
f 50 54 53
f 51 53 55
f 26 55 76
f 26 76 69
f 26 69 70
f 21 68 67
f 21 73 68
f 24 58 59
f 50 60 52
f 52 61 54
f 54 62 53
f 50 59 60
f 49 56 57
f 49 57 58
f 52 60 61
f 54 61 62
f 53 62 63
f 76 63 81
f 76 55 53
f 76 53 63
f 70 72 71
f 70 84 72
f 70 74 73
f 70 75 74
f 70 71 75
f 76 77 69
f 69 77 78
f 69 84 70
f 76 80 77
f 76 81 79
f 76 79 80
f 69 78 83
f 69 83 84
f 77 80 82
f 77 82 78
f 28 37 27
f 29 27 47
f 37 38 27
f 31 56 32
f 29 64 30
f 30 68 31
f 31 81 63
f 31 57 56
f 31 58 57
f 31 59 58
f 31 60 59
f 31 61 60
f 31 62 61
f 31 63 62
f 42 27 38
f 43 27 42
f 43 44 27
f 44 45 27
f 45 46 27
f 46 47 27
f 29 47 48
f 29 48 64
f 40 41 38
f 42 38 41
f 30 64 65
f 30 65 66
f 30 66 67
f 31 68 73
f 30 67 68
f 31 73 74
f 31 83 78
f 31 84 83
f 31 80 79
f 31 82 80
f 31 79 81
f 31 78 82
f 31 71 72
f 31 74 75
f 31 75 71
f 31 72 84

