# https://github.com/mikedh/trimesh
v 0.02480010 0.01245180 -0.05725965
v 0.02480010 0.01379483 -0.07961519
v 0.02480010 0.01322529 -0.07182135
v 0.02480010 0.01229210 -0.04051477
v 0.02480010 0.01229210 -0.03970317
v 0.02480010 0.01245125 -0.02536103
v 0.02480010 0.01734088 -0.07964202
v 0.02480010 0.01764096 -0.07964384
v 0.02480010 0.01922534 -0.07964384
v 0.02480010 0.01922616 -0.07962729
v 0.02480010 0.01924228 -0.07860069
v 0.02480010 0.01926498 -0.07696867
v 0.02480010 0.01927829 -0.07588446
v 0.02480010 0.01929985 -0.07409837
v 0.02480010 0.01930243 -0.07376157
v 0.02480010 0.01930715 -0.07310799
v 0.02480010 0.01935628 -0.05504210
v 0.02480010 0.01657539 -0.02536103
v 0.02480010 0.01689926 -0.02603843
v 0.02480010 0.01704628 -0.02634786
v 0.02480010 0.01708412 -0.02643738
v 0.02552325 0.01612843 -0.02536103
v 0.02480010 0.01929863 -0.04929255
v 0.02480010 0.01925907 -0.04718987
v 0.02480010 0.01911812 -0.04372308
v 0.02480010 0.01909456 -0.04316560
v 0.02480010 0.01896088 -0.04098059
v 0.02480010 0.01738364 -0.02715296
v 0.02480010 0.01743562 -0.02732797
v 0.02480010 0.01745230 -0.02738521
v 0.02480010 0.01765057 -0.02806582
v 0.02480010 0.01799397 -0.02950655
v 0.02480010 0.01818999 -0.03082296
v 0.02480010 0.01821386 -0.03101540
v 0.02484621 0.01818999 -0.03101460
v 0.02480010 0.01801854 -0.02964293
v 0.02480010 0.01804521 -0.02979106
v 0.02480010 0.01809720 -0.03008462
v 0.02480010 0.01876883 -0.03795808
v 0.02480010 0.01837245 -0.03231110
v 0.02480010 0.01839429 -0.03249465
v 0.02480010 0.01845666 -0.03308776
v 0.02480010 0.01843780 -0.03288832
v 0.02496686 0.01832354 -0.03261928
v 0.02496686 0.01828687 -0.03231110
v 0.02480010 0.01833713 -0.03201994
v 0.02587617 0.01584816 -0.02536103
v 0.02626871 0.01744700 -0.03101460
v 0.02819990 0.01236034 -0.06313488
v 0.02819990 0.01356491 -0.07961879
v 0.02819990 0.01072443 -0.03233700
v 0.02819990 0.01068950 -0.02867503
v 0.02819990 0.01068950 -0.02849754
v 0.02819990 0.01072431 -0.02536103
v 0.02819990 0.01390968 -0.02536103
v 0.02819990 0.01467255 -0.02651971
v 0.02680350 0.01901669 -0.07964384
v 0.02819990 0.01610620 -0.07963802
v 0.02819990 0.01706634 -0.07964384
v 0.02793069 0.01888126 -0.07964384
v 0.02819990 0.01883052 -0.07964384
v 0.02819990 0.01883640 -0.07926347
v 0.02819990 0.01887366 -0.07619011
v 0.02819990 0.01889215 -0.07363052
v 0.02819990 0.01889485 -0.07264033
v 0.02819990 0.01878310 -0.06149627
v 0.02819990 0.01876289 -0.06042195
v 0.02819990 0.01848970 -0.05370246
v 0.02819990 0.01847670 -0.05339467
v 0.02669186 0.01629019 -0.02721012
v 0.02769841 0.01639553 -0.02960121
v 0.02819990 0.01510937 -0.02725688
v 0.02819990 0.01547608 -0.02810244
v 0.02819990 0.01602244 -0.02961462
v 0.02819990 0.01661374 -0.03242328
v 0.02819990 0.01659212 -0.03224865
v 0.02819990 0.01660110 -0.03232076
v 0.02819990 0.01661675 -0.03244857
v 0.02819990 0.01693435 -0.03515093
v 0.02819990 0.01631008 -0.03080585
v 0.02819990 0.01612489 -0.02996468
v 0.02809455 0.01642939 -0.03101460
v 0.02819990 0.01643869 -0.03139362
v 0.02819990 0.01639784 -0.03120569
v 0.02819990 0.01821758 -0.04915958
v 0.02819990 0.01808813 -0.04712227
v 0.02819990 0.01759772 -0.04087910
v 0.02819990 0.01754684 -0.04041865
v 0.02819990 0.01787771 -0.04383945
f 1 3 49
f 2 49 3
f 2 7 50
f 1 51 4
f 4 52 5
f 5 53 6
f 6 55 22
f 9 10 57
f 10 11 57
f 11 12 57
f 12 13 57
f 13 14 57
f 14 15 57
f 7 8 59
f 8 9 59
f 15 16 64
f 16 17 65
f 17 23 66
f 6 22 18
f 18 22 19
f 19 70 20
f 20 70 21
f 28 70 29
f 29 70 30
f 30 70 31
f 21 70 28
f 34 35 46
f 33 35 34
f 33 38 35
f 35 45 46
f 40 46 45
f 41 44 43
f 40 45 41
f 41 45 44
f 35 38 48
f 37 48 38
f 36 48 37
f 22 47 70
f 19 22 70
f 31 70 71
f 23 24 67
f 24 25 68
f 25 26 69
f 26 27 85
f 39 42 86
f 27 39 86
f 42 43 87
f 44 45 78
f 43 44 87
f 31 71 32
f 32 71 36
f 35 77 45
f 36 82 48
f 35 48 77
f 2 50 49
f 1 49 51
f 5 52 53
f 4 51 52
f 6 53 54
f 6 54 55
f 47 55 56
f 7 58 50
f 7 59 58
f 9 57 60
f 15 60 57
f 9 60 59
f 15 63 60
f 15 64 63
f 16 65 64
f 17 66 65
f 23 67 66
f 24 68 67
f 59 60 61
f 60 62 61
f 60 63 62
f 22 55 47
f 47 56 70
f 36 71 82
f 45 75 78
f 45 77 75
f 42 87 89
f 42 89 86
f 25 69 68
f 27 86 85
f 26 85 69
f 44 79 88
f 44 78 79
f 44 88 87
f 70 73 71
f 56 72 70
f 70 72 73
f 48 82 76
f 48 76 77
f 71 73 74
f 71 74 81
f 71 81 80
f 71 80 82
f 76 82 83
f 80 84 82
f 82 84 83
f 2 3 7
f 1 16 3
f 1 4 23
f 4 5 39
f 5 6 19
f 3 8 7
f 3 9 8
f 1 17 16
f 1 23 17
f 3 11 9
f 3 12 11
f 3 13 12
f 3 14 13
f 3 15 14
f 3 16 15
f 9 11 10
f 4 25 24
f 4 26 25
f 4 24 23
f 4 27 26
f 4 39 27
f 5 31 32
f 5 32 36
f 5 19 20
f 5 20 21
f 6 18 19
f 5 21 28
f 5 28 29
f 5 29 30
f 5 30 31
f 5 42 39
f 5 33 34
f 5 41 43
f 5 40 41
f 5 34 46
f 5 46 40
f 5 36 37
f 5 37 38
f 5 38 33
f 5 43 42
f 49 50 58
f 51 73 52
f 53 55 54
f 52 73 53
f 49 67 51
f 53 56 55
f 53 72 56
f 53 73 72
f 51 75 77
f 51 77 76
f 51 78 75
f 51 79 78
f 51 74 73
f 51 81 74
f 51 84 80
f 51 80 81
f 51 83 84
f 51 76 83
f 49 58 63
f 49 63 64
f 49 64 65
f 49 66 67
f 49 65 66
f 58 59 63
f 59 61 62
f 59 62 63
f 51 67 68
f 51 68 69
f 51 86 88
f 51 69 85
f 51 85 86
f 51 88 79
f 86 89 87
f 86 87 88

