# https://github.com/mikedh/trimesh
v -0.04102040 0.00587553 -0.08717577
v -0.04622034 0.01024522 -0.09374142
v -0.04633322 0.01024359 -0.09302498
v -0.04633322 0.01024522 -0.09302498
v -0.04648372 0.01024359 -0.09202516
v -0.04559575 0.01101490 -0.09374142
v -0.04692771 0.01024032 -0.08854451
v -0.04676216 0.01076651 -0.08731479
v -0.04525711 0.01141527 -0.09374142
v -0.04505393 0.01184995 -0.09262398
v -0.04712337 0.01024032 -0.08659834
v -0.04470024 0.01231078 -0.09213209
v -0.04392514 0.01310170 -0.09167228
v -0.04532484 0.01228953 -0.08904709
v -0.04322530 0.01366875 -0.09156535
v -0.04359403 0.01359195 -0.09059226
v -0.04266843 0.01404297 -0.09167228
v -0.04497115 0.01407075 -0.08089349
v -0.03916167 0.01024522 -0.09374142
v -0.03743838 0.01077795 -0.09374142
v -0.03721263 0.01099366 -0.09374142
v -0.03670843 0.01150515 -0.09374142
v -0.04783074 0.01024032 -0.07810790
v -0.04798877 0.01024032 -0.07606549
v -0.04715347 0.01164078 -0.07810790
v -0.04715347 0.01165222 -0.07796889
v -0.04707069 0.01176007 -0.07810790
v -0.04716100 0.01194146 -0.07382526
v -0.04800382 0.01024032 -0.06849468
v -0.04797372 0.01024032 -0.06761248
v -0.04783827 0.01061291 -0.06808299
v -0.04710832 0.01204114 -0.06982598
v -0.04614509 0.01292522 -0.07957288
v -0.04616766 0.01299712 -0.07810790
v -0.04501630 0.01420802 -0.07810790
v -0.04619777 0.01333212 -0.07131769
v -0.04555812 0.01400211 -0.07203414
v -0.04102792 0.00587553 -0.03940905
v -0.04102792 0.00587553 -0.03915242
v -0.04749963 0.01024032 -0.06059237
v -0.04746201 0.01034817 -0.06070999
v -0.04682236 0.01174700 -0.06221240
v -0.04726635 0.01024032 -0.05904185
v -0.04655898 0.01024032 -0.05442771
v -0.04630312 0.01100020 -0.05514416
v -0.04600211 0.01301183 -0.06348489
v -0.04510660 0.01400211 -0.06440986
v -0.04497115 0.01414429 -0.06455956
v -0.04492600 0.01400211 -0.06332984
v -0.04555059 0.01221436 -0.05620279
v -0.04471529 0.01352495 -0.05904185
v -0.04461746 0.01330270 -0.05706360
v -0.04568605 0.01024032 -0.05004883
v -0.04553555 0.01024032 -0.04942862
v -0.04540009 0.01024032 -0.04892069
v -0.04381979 0.01024032 -0.04387883
v -0.04221691 0.01024032 -0.03942509
v -0.04214166 0.01024032 -0.03924331
v -0.04211156 0.01024032 -0.03917915
v -0.04219434 0.01027954 -0.03944113
v -0.04209651 0.01026320 -0.03917915
v -0.04205888 0.01030569 -0.03917915
v -0.04193848 0.01041191 -0.03917915
v -0.04102792 0.01024032 -0.03915242
v -0.04320272 0.01121264 -0.04444022
v -0.04108813 0.01114563 -0.03917915
v -0.04017757 0.01192349 -0.03918450
v -0.04401545 0.01226175 -0.05031616
v -0.04296191 0.01321609 -0.05085082
v -0.04170520 0.01406421 -0.05121974
v -0.04108813 0.01303143 -0.04515667
v -0.04108813 0.01310661 -0.04546678
v -0.04108813 0.01306085 -0.04526895
v -0.04105050 0.01305758 -0.04516737
v -0.04020767 0.01218168 -0.04006134
v -0.03971853 0.01225358 -0.03918450
v -0.03846934 0.01303797 -0.03918450
v -0.03799525 0.01332885 -0.03918450
v -0.03764909 0.01353475 -0.03918450
v -0.03740076 0.01393021 -0.04026986
v -0.03718253 0.01379458 -0.03918450
v -0.02402840 0.00587553 -0.03914707
v -0.02402840 0.01024195 -0.03913103
v -0.02309527 0.01024195 -0.03913103
v -0.02824254 0.01400375 -0.03913103
v -0.02309527 0.01399885 -0.03913103
v -0.04187828 0.01443680 -0.09216417
v -0.04135904 0.01442536 -0.09374142
v -0.04134398 0.01444987 -0.09366657
v -0.04142676 0.01456589 -0.09284319
v -0.04166004 0.01470153 -0.09149050
v -0.04093762 0.01479467 -0.09284319
v -0.04020767 0.01576535 -0.08904709
v -0.04358651 0.01499241 -0.08243867
v -0.04371444 0.01499404 -0.08181846
v -0.04357898 0.01508555 -0.08190400
v -0.04199116 0.01596635 -0.08260441
v -0.04020767 0.01670825 -0.08299472
v -0.03669338 0.01467375 -0.09374142
v -0.03950783 0.01529309 -0.09374142
v -0.03816833 0.01578496 -0.09374142
v -0.03939495 0.01567221 -0.09196100
v -0.03763404 0.01627030 -0.09206793
v -0.03753621 0.01600884 -0.09374142
v -0.03682884 0.01620821 -0.09374142
v -0.03669338 0.01623762 -0.09374142
v -0.03669338 0.01628011 -0.09353825
v -0.03966586 0.01600884 -0.08904709
v -0.03669338 0.01653177 -0.09204655
v -0.03784475 0.01668374 -0.08904709
v -0.03794258 0.01689618 -0.08750192
v -0.03669338 0.01684389 -0.09006830
v -0.03719758 0.01686513 -0.08904709
v -0.03435303 0.01750735 -0.08904709
v -0.03348763 0.01793876 -0.08720251
v -0.03335970 0.01772142 -0.08904709
v -0.03823606 0.01733413 -0.08310699
v -0.03382627 0.01827540 -0.08277550
v -0.04368433 0.01526531 -0.07810256
v -0.04214919 0.01616082 -0.07810256
v -0.04378969 0.01548755 -0.07347238
v -0.04507650 0.01448582 -0.07253138
v -0.04227711 0.01633240 -0.07410328
v -0.04055383 0.01702201 -0.07445081
v -0.03958308 0.01715438 -0.07810256
v -0.03655793 0.01788647 -0.07810256
v -0.03864242 0.01758742 -0.07454171
v -0.03434551 0.01839796 -0.07421021
v -0.02987552 0.01817571 -0.08904709
v -0.02475083 0.01867740 -0.08904709
v -0.02361452 0.01878688 -0.08904709
v -0.03086885 0.01870354 -0.08060477
v -0.02892734 0.01891761 -0.08208579
v -0.02381770 0.01936210 -0.08148162
v -0.02264376 0.01886369 -0.08904709
v -0.01861023 0.01969873 -0.08124637
v -0.04374454 0.01511987 -0.06536156
v -0.04232227 0.01594838 -0.06591760
v -0.04350373 0.01430770 -0.05813292
v -0.04348115 0.01426358 -0.05772658
v -0.04341343 0.01430770 -0.05775331
v -0.04212661 0.01509536 -0.05819174
v -0.04056889 0.01579150 -0.05843233
v -0.04068176 0.01661838 -0.06621167
v -0.03884560 0.01716745 -0.06628652
v -0.03880798 0.01637325 -0.05851253
v -0.03606879 0.01430933 -0.03917915
v -0.03367576 0.01548755 -0.03917915
v -0.02824254 0.01440902 -0.03913103
v -0.02674502 0.01440902 -0.03913103
v -0.03075597 0.01659386 -0.03917915
v -0.02953688 0.01659386 -0.03917915
v -0.02977016 0.01718706 -0.04164394
v -0.02501421 0.01863981 -0.04164394
v -0.01979169 0.02008112 -0.04164394
v 0.00895473 0.00587553 -0.08717577
v 0.01850010 0.00976980 -0.06607935
v 0.00895473 0.00587553 -0.03914707
v 0.01850010 0.00976980 -0.04034870
v 0.00895473 0.01024032 -0.03914707
v 0.01850010 0.01273053 -0.04034870
v -0.01410261 0.01919051 -0.08904709
v -0.01331246 0.01994059 -0.08127845
v -0.00602050 0.01923791 -0.08904174
v -0.00240086 0.02015302 -0.08157251
v -0.01048297 0.02041285 -0.07670709
v -0.00815014 0.02080341 -0.07292168
v -0.00243849 0.02050763 -0.07810256
v -0.00247611 0.02102239 -0.07305000
v 0.00604999 0.01767893 -0.08904709
v 0.01850010 0.01494931 -0.08151620
v 0.01850010 0.01795137 -0.08154692
v 0.00604999 0.01918398 -0.08904709
v 0.00319792 0.02013341 -0.08155647
v 0.00604999 0.01952715 -0.08629358
v 0.00604999 0.02008112 -0.08148697
v 0.01850010 0.01943436 -0.08154692
v 0.00662191 0.02041612 -0.07810256
v 0.00901493 0.02018244 -0.07959961
v 0.00352151 0.02095866 -0.07340287
v 0.00328070 0.02100114 -0.07303396
v 0.00901493 0.02075275 -0.07290029
v 0.01319897 0.02003700 -0.07959961
v 0.01837633 0.01975756 -0.07959961
v 0.01850010 0.01974804 -0.07959961
v 0.01850010 0.01997292 -0.07570290
v 0.01850010 0.02006251 -0.07394703
v 0.01850010 0.02007272 -0.07374679
v 0.01850010 0.02017680 -0.07131179
v 0.01850010 0.02021785 -0.07033472
v 0.01850010 0.02028020 -0.06842782
v 0.01850010 0.02029063 -0.06802306
v 0.01850010 0.02029968 -0.06765482
v -0.00851888 0.02174631 -0.05737905
v -0.00611080 0.02193914 -0.05741648
v -0.00257394 0.02210092 -0.05905789
v -0.01429074 0.02135575 -0.04164394
v -0.00860918 0.02226107 -0.04479845
v -0.00857908 0.02230192 -0.04315703
v -0.01046792 0.02201104 -0.04164394
v -0.00853393 0.02233787 -0.04164394
v -0.00611080 0.02249475 -0.04481983
v -0.00611080 0.02253397 -0.04315703
v -0.00609575 0.02256992 -0.04164394
v 0.01850010 0.01772444 -0.04109848
v 0.01850010 0.01806453 -0.04116308
v 0.00341615 0.02206987 -0.05905789
v 0.00352151 0.02205843 -0.05914878
v 0.00468792 0.02199634 -0.05905254
v 0.00902246 0.02171363 -0.05737370
v 0.00902246 0.02175612 -0.05645943
v 0.00945140 0.02167768 -0.05736301
v 0.00902246 0.02189992 -0.05316056
v 0.01850010 0.02043624 -0.05917511
v 0.01850010 0.02046460 -0.05713118
v 0.01850010 0.02048405 -0.05456234
v 0.00902246 0.02216302 -0.04701195
v 0.00902246 0.02225617 -0.04479310
v 0.00958685 0.02219897 -0.04478776
v 0.00954922 0.02224636 -0.04316238
v 0.00902246 0.02233460 -0.04164394
v 0.00950407 0.02229048 -0.04164394
v 0.01532108 0.02127405 -0.04164394
v 0.01850010 0.02049134 -0.04164394
f 1 3 2
f 1 5 3
f 1 7 5
f 1 11 7
f 1 23 11
f 1 24 23
f 1 29 24
f 2 3 4
f 3 5 4
f 2 4 14
f 4 5 14
f 2 6 9
f 5 7 8
f 7 11 8
f 2 14 6
f 6 14 9
f 9 10 12
f 2 9 88
f 9 14 10
f 5 8 14
f 2 20 19
f 2 21 20
f 2 22 21
f 8 11 25
f 11 23 25
f 8 33 14
f 8 25 33
f 9 12 13
f 10 14 12
f 12 14 18
f 12 18 13
f 13 18 16
f 9 13 88
f 2 99 22
f 2 88 100
f 13 16 15
f 13 15 88
f 15 17 88
f 15 16 17
f 2 100 101
f 2 106 99
f 2 101 104
f 2 104 105
f 16 94 17
f 14 33 18
f 16 18 95
f 23 24 25
f 24 26 25
f 25 27 33
f 25 26 27
f 24 28 26
f 26 28 27
f 24 29 31
f 24 31 28
f 29 30 31
f 28 31 32
f 31 42 32
f 27 28 33
f 28 34 33
f 28 36 34
f 33 34 35
f 18 33 35
f 34 36 37
f 34 122 35
f 34 37 122
f 28 32 36
f 32 46 36
f 36 48 37
f 37 48 122
f 36 47 48
f 1 2 156
f 2 19 156
f 19 20 156
f 20 21 156
f 21 22 170
f 1 38 29
f 1 39 38
f 29 39 30
f 30 39 40
f 39 43 40
f 1 82 39
f 29 38 39
f 39 44 43
f 39 53 44
f 39 54 53
f 39 55 54
f 39 56 55
f 39 57 56
f 39 58 57
f 39 59 58
f 39 64 59
f 30 41 31
f 31 41 42
f 30 40 41
f 40 45 41
f 40 43 45
f 43 44 45
f 41 45 42
f 44 53 45
f 42 45 50
f 45 54 50
f 32 42 46
f 42 50 46
f 36 46 47
f 47 49 48
f 46 51 47
f 46 52 51
f 47 51 49
f 48 49 139
f 49 51 139
f 46 50 52
f 50 68 52
f 51 52 139
f 52 140 139
f 52 69 140
f 70 141 140
f 69 70 140
f 45 53 54
f 54 55 68
f 50 54 68
f 55 65 68
f 55 56 65
f 56 60 65
f 56 57 60
f 57 58 60
f 58 61 60
f 58 59 61
f 60 61 62
f 60 62 65
f 62 63 65
f 63 66 65
f 59 64 61
f 61 64 62
f 62 64 63
f 63 64 66
f 65 66 67
f 64 76 66
f 65 67 75
f 66 76 67
f 64 77 76
f 67 76 75
f 52 68 69
f 65 71 68
f 68 71 69
f 69 71 73
f 69 73 70
f 70 73 72
f 65 75 71
f 71 74 73
f 71 77 74
f 71 75 76
f 71 76 77
f 70 72 80
f 72 73 80
f 73 74 79
f 39 149 64
f 39 85 149
f 64 147 77
f 74 77 78
f 74 78 79
f 73 79 80
f 64 148 147
f 77 147 78
f 79 81 80
f 78 147 79
f 79 147 81
f 64 149 148
f 1 158 82
f 39 82 83
f 39 83 85
f 83 84 85
f 84 149 85
f 84 150 149
f 84 86 150
f 17 87 88
f 17 91 87
f 87 89 88
f 89 90 92
f 88 89 100
f 89 91 90
f 87 91 89
f 90 91 92
f 2 105 106
f 89 92 100
f 91 102 92
f 92 102 100
f 17 97 91
f 91 93 102
f 91 97 93
f 93 108 102
f 93 98 108
f 18 119 95
f 17 94 96
f 16 95 94
f 17 96 97
f 94 95 96
f 95 119 96
f 93 97 98
f 96 120 97
f 97 120 98
f 100 102 101
f 101 102 104
f 102 103 104
f 102 110 103
f 103 105 104
f 105 107 106
f 103 107 105
f 102 108 111
f 103 109 107
f 106 107 116
f 103 112 109
f 103 113 112
f 107 109 116
f 109 112 116
f 102 111 110
f 110 111 113
f 103 110 113
f 112 113 114
f 111 114 113
f 106 116 129
f 112 114 116
f 111 115 114
f 114 115 116
f 115 129 116
f 98 111 108
f 98 117 111
f 98 125 117
f 111 117 115
f 117 126 118
f 115 117 118
f 115 118 133
f 18 35 121
f 18 121 119
f 35 122 121
f 96 119 120
f 119 123 120
f 119 121 123
f 121 122 137
f 48 137 122
f 121 138 123
f 121 137 138
f 123 138 144
f 98 120 123
f 98 123 124
f 98 124 125
f 123 144 124
f 124 144 145
f 124 127 125
f 117 125 127
f 117 127 126
f 126 127 128
f 118 126 128
f 124 145 127
f 118 128 132
f 106 129 130
f 106 130 131
f 106 131 135
f 106 135 162
f 115 133 129
f 22 99 170
f 99 106 170
f 106 162 164
f 129 133 130
f 118 132 133
f 130 133 131
f 131 133 135
f 133 134 135
f 134 136 135
f 135 163 162
f 135 136 163
f 133 194 134
f 134 196 136
f 132 199 133
f 48 139 137
f 137 139 142
f 137 142 138
f 138 143 144
f 138 142 143
f 143 146 144
f 139 141 142
f 139 140 141
f 70 142 141
f 144 146 145
f 145 146 154
f 70 148 142
f 142 148 143
f 143 151 146
f 70 80 148
f 80 81 148
f 81 147 148
f 143 148 151
f 146 151 153
f 149 150 152
f 148 149 151
f 149 152 151
f 86 152 150
f 146 153 154
f 151 154 153
f 127 197 128
f 127 145 197
f 128 199 132
f 133 199 198
f 128 201 199
f 145 154 155
f 145 155 197
f 151 155 154
f 151 152 204
f 151 197 155
f 151 200 197
f 151 201 200
f 128 197 200
f 128 200 201
f 151 204 201
f 1 156 158
f 21 170 156
f 156 170 171
f 156 171 157
f 82 158 83
f 83 158 84
f 84 158 86
f 86 158 160
f 86 160 152
f 156 159 158
f 156 157 159
f 158 161 160
f 158 159 161
f 160 161 205
f 106 164 173
f 106 173 170
f 162 165 164
f 162 163 169
f 162 168 165
f 164 165 174
f 164 174 173
f 165 168 174
f 163 166 169
f 136 196 163
f 166 167 169
f 163 196 166
f 166 196 167
f 162 169 168
f 168 181 174
f 168 169 181
f 167 196 169
f 169 196 181
f 170 173 172
f 170 172 171
f 173 174 175
f 174 176 175
f 174 178 176
f 173 175 183
f 175 176 183
f 176 179 183
f 173 183 184
f 173 184 177
f 172 173 177
f 177 184 185
f 176 178 179
f 178 180 183
f 178 183 179
f 174 180 178
f 174 181 180
f 180 181 183
f 181 182 183
f 181 208 182
f 182 208 183
f 184 186 185
f 183 208 184
f 184 209 186
f 186 209 187
f 187 212 188
f 188 212 189
f 152 160 222
f 134 194 195
f 134 195 196
f 133 202 194
f 133 198 202
f 194 202 195
f 181 196 207
f 195 202 196
f 196 202 207
f 152 221 204
f 198 203 202
f 198 199 203
f 199 204 203
f 199 201 204
f 152 222 221
f 202 204 207
f 202 203 204
f 160 205 206
f 160 206 223
f 160 223 222
f 181 207 208
f 184 208 209
f 207 209 208
f 207 218 209
f 209 211 210
f 209 213 211
f 210 211 212
f 209 217 213
f 211 213 212
f 187 209 210
f 187 210 212
f 189 217 190
f 190 219 191
f 191 219 192
f 192 220 193
f 189 212 217
f 190 217 219
f 193 222 214
f 204 221 207
f 209 218 217
f 212 213 217
f 207 221 218
f 217 218 219
f 218 220 219
f 218 222 220
f 218 221 222
f 206 224 223
f 192 219 220
f 193 220 222
f 214 223 215
f 215 223 216
f 214 222 223
f 216 223 224
f 157 193 159
f 157 171 172
f 157 172 185
f 157 185 186
f 157 186 187
f 157 187 188
f 157 188 189
f 157 189 190
f 157 190 191
f 157 191 192
f 157 192 193
f 172 177 185
f 159 193 214
f 159 216 161
f 159 214 215
f 159 215 216
f 161 216 205
f 205 216 206
f 206 216 224

