# https://github.com/mikedh/trimesh
v 0.01319835 -0.01850524 -0.03529266
v 0.01319835 -0.01847647 -0.03529982
v 0.01311123 -0.01748841 -0.03529982
v 0.01319835 -0.01899831 -0.03479945
v 0.01319835 -0.01910000 -0.03434804
v 0.01384605 -0.01910000 -0.03449851
v 0.01457709 -0.01910000 -0.03428356
v 0.01510927 -0.01910000 -0.03373542
v 0.01530244 -0.01910000 -0.03299859
v 0.01319835 -0.01910000 -0.02665258
v 0.01319835 -0.01899256 -0.02499502
v 0.01319835 -0.01849757 -0.02450062
v 0.01311123 -0.01748841 -0.02450062
v 0.01384605 -0.01910000 -0.02650331
v 0.01530244 -0.01910000 -0.02800084
v 0.01457709 -0.01910000 -0.02671588
v 0.01510927 -0.01910000 -0.02726402
v 0.01311123 -0.00001226 -0.03529982
v 0.01311123 -0.00000267 -0.03529624
v 0.01311123 0.00049808 -0.03479945
v 0.01502026 -0.00000267 -0.03529982
v 0.01311123 0.00049808 -0.02500100
v 0.01311123 -0.00000267 -0.02450421
v 0.01311123 -0.00001610 -0.02450062
v 0.01502026 -0.00000267 -0.02450062
v 0.01694254 -0.00974511 -0.03650000
v 0.01763569 -0.01849757 -0.03529982
v 0.01850010 -0.01849757 -0.03529982
v 0.01850010 -0.01850100 -0.03529662
v 0.01850010 -0.01877754 -0.03502028
v 0.01850010 -0.01791719 -0.03552026
v 0.01850010 -0.01665652 -0.03599572
v 0.01850010 -0.01666861 -0.03599271
v 0.01850010 -0.01899831 -0.03479945
v 0.01850010 -0.01904713 -0.03465496
v 0.01850010 -0.01905148 -0.03452973
v 0.01850010 -0.01905516 -0.03420465
v 0.01850010 -0.01905662 -0.03376681
v 0.01850010 -0.01518835 -0.03628165
v 0.01763569 -0.01212220 -0.03650000
v 0.01773039 -0.01244068 -0.03650000
v 0.01850010 -0.01323710 -0.03650000
v 0.01763569 -0.01899831 -0.02500100
v 0.01850010 -0.01905662 -0.02672115
v 0.01850010 -0.01905516 -0.02626605
v 0.01850010 -0.01905148 -0.02589758
v 0.01850010 -0.01904713 -0.02572230
v 0.01850010 -0.01899831 -0.02500100
v 0.01850010 -0.01899574 -0.02499832
v 0.01850010 -0.01871919 -0.02472198
v 0.01850010 -0.01849757 -0.02450062
v 0.01850010 -0.01656389 -0.02438982
v 0.01850010 -0.01522107 -0.02434552
v 0.01730048 -0.00949378 -0.02430000
v 0.01763569 -0.01074468 -0.02430000
v 0.01803909 -0.01224499 -0.02430000
v 0.01850010 -0.01270543 -0.02430000
v 0.01749744 -0.00699965 -0.03650000
v 0.01763569 -0.00683273 -0.03650000
v 0.01850010 -0.00660551 -0.03650000
v 0.01850010 -0.00619186 -0.03649976
v 0.01850010 -0.00576557 -0.03649932
v 0.01850010 -0.00576709 -0.03649937
v 0.01763569 0.00049808 -0.03479945
v 0.01763948 0.00042901 -0.03486872
v 0.01763948 0.00050000 -0.03479706
v 0.01850010 -0.00422036 -0.03634923
v 0.01850010 -0.00229992 -0.03604019
v 0.01850010 -0.00229626 -0.03603939
v 0.01850010 -0.00207073 -0.03597299
v 0.01850010 -0.00194709 -0.03593656
v 0.01850010 -0.00154565 -0.03580627
v 0.01850010 -0.00000267 -0.03529982
v 0.01850010 0.00036841 -0.03492924
v 0.01850010 0.00043887 -0.03485877
v 0.01850010 0.00050000 -0.03479706
v 0.01850010 0.00049835 -0.03479912
v 0.01730048 -0.00450360 -0.02430000
v 0.01741411 -0.00392996 -0.02430000
v 0.01763569 -0.00359804 -0.02430000
v 0.01774364 -0.00344264 -0.02430000
v 0.01763948 0.00050000 -0.02500100
v 0.01823037 -0.00311840 -0.02430000
v 0.01850010 -0.00306411 -0.02430000
v 0.01850010 -0.00284466 -0.02431065
v 0.01850010 -0.00276351 -0.02431603
v 0.01850010 0.00050000 -0.02500100
v 0.01850010 -0.00000267 -0.02450062
f 1 4 3
f 1 3 2
f 3 4 5
f 4 6 5
f 5 6 7
f 5 7 8
f 2 3 26
f 3 5 10
f 1 30 4
f 1 2 33
f 5 8 9
f 4 34 6
f 6 35 7
f 5 9 15
f 5 14 10
f 3 10 13
f 5 16 14
f 5 17 16
f 10 14 11
f 10 11 13
f 11 12 13
f 3 13 24
f 5 15 17
f 11 14 43
f 11 50 12
f 12 54 13
f 14 16 47
f 3 19 18
f 3 20 19
f 3 18 26
f 3 22 20
f 18 19 21
f 19 20 21
f 20 65 21
f 18 21 71
f 3 23 22
f 3 24 23
f 23 24 25
f 22 23 25
f 13 78 24
f 20 22 82
f 22 25 82
f 24 85 25
f 1 27 29
f 1 33 27
f 7 36 8
f 8 38 9
f 2 40 41
f 2 41 39
f 1 29 30
f 2 32 33
f 2 39 32
f 4 30 34
f 6 34 35
f 2 26 40
f 7 35 36
f 8 36 37
f 8 37 38
f 27 28 29
f 27 31 28
f 27 33 31
f 9 38 44
f 26 42 41
f 26 41 40
f 26 59 42
f 39 41 42
f 9 44 15
f 16 17 46
f 15 44 17
f 11 43 49
f 14 47 43
f 11 49 50
f 12 50 51
f 12 51 52
f 12 52 53
f 12 53 56
f 12 55 54
f 12 56 55
f 13 54 78
f 17 44 45
f 16 46 47
f 17 45 46
f 43 47 48
f 43 48 49
f 54 55 56
f 53 57 56
f 56 57 84
f 18 58 26
f 18 67 58
f 20 64 65
f 20 77 64
f 20 66 77
f 18 68 67
f 18 69 68
f 18 70 69
f 18 71 70
f 21 65 73
f 20 82 66
f 26 58 59
f 42 59 60
f 58 62 59
f 59 61 60
f 59 63 61
f 59 62 63
f 58 67 62
f 21 72 71
f 21 73 72
f 65 74 73
f 64 77 65
f 65 75 74
f 65 77 75
f 66 76 77
f 66 82 76
f 24 78 79
f 24 79 80
f 24 80 81
f 24 81 83
f 24 83 85
f 25 87 82
f 54 79 78
f 54 80 79
f 54 81 80
f 54 83 81
f 54 56 84
f 54 84 83
f 76 82 87
f 25 85 86
f 25 86 88
f 25 88 87
f 83 84 85
f 30 57 34
f 29 57 30
f 34 57 35
f 35 57 36
f 36 57 37
f 37 57 38
f 31 33 57
f 32 57 33
f 32 39 57
f 28 57 29
f 28 31 57
f 39 42 57
f 38 57 44
f 44 52 45
f 45 52 46
f 46 52 47
f 48 50 49
f 47 52 48
f 48 52 50
f 50 52 51
f 44 53 52
f 44 57 53
f 42 84 57
f 42 60 84
f 60 61 84
f 61 63 84
f 62 84 63
f 62 67 84
f 67 68 84
f 68 69 84
f 69 70 84
f 70 71 84
f 71 72 84
f 72 73 84
f 73 74 84
f 74 75 84
f 75 77 84
f 76 84 77
f 76 85 84
f 76 86 85
f 76 87 86
f 86 87 88

