# https://github.com/mikedh/trimesh
v 0.01850010 -0.01904713 -0.03465496
v 0.01850010 -0.01899831 -0.03479945
v 0.01850010 -0.01877754 -0.03502028
v 0.01850010 -0.01905148 -0.03452973
v 0.01850010 -0.01905516 -0.03420465
v 0.01850010 -0.01905662 -0.03376681
v 0.01850010 -0.01850100 -0.03529662
v 0.01850010 -0.01849757 -0.03529982
v 0.01850010 -0.01791719 -0.03552026
v 0.01850010 -0.01905662 -0.02672115
v 0.01850010 -0.01905516 -0.02626605
v 0.01850010 -0.01905148 -0.02589758
v 0.01850010 -0.01904713 -0.02572230
v 0.01850010 -0.01899831 -0.02500100
v 0.01850010 -0.01899574 -0.02499832
v 0.01850010 -0.01871919 -0.02472198
v 0.01850010 -0.01849757 -0.02450062
v 0.01850010 -0.01666861 -0.03599271
v 0.01850010 -0.01665652 -0.03599572
v 0.01850010 -0.01649990 -0.03602622
v 0.01895636 -0.01649990 -0.03605561
v 0.01898711 -0.01649990 -0.03605702
v 0.02061101 -0.01649990 -0.03605857
v 0.01850010 -0.01656389 -0.02438982
v 0.01850010 -0.01649990 -0.02438771
v 0.01867555 -0.01649990 -0.02438616
v 0.02279839 -0.01899831 -0.03479945
v 0.02279839 -0.01849757 -0.03529982
v 0.02480010 -0.01864007 -0.03479945
v 0.02480010 -0.01843616 -0.03500321
v 0.02480010 -0.01813297 -0.03529982
v 0.02279839 -0.01899831 -0.02500100
v 0.02279839 -0.01849757 -0.02450062
v 0.02480010 -0.01864007 -0.02500100
v 0.02480010 -0.01843616 -0.02479724
v 0.02480010 -0.01813297 -0.02450062
v 0.02250984 -0.01649990 -0.03605857
v 0.02407289 -0.01649990 -0.03596348
v 0.02480010 -0.01649990 -0.03591369
v 0.02279839 -0.01649990 -0.02438616
v 0.02480010 -0.01679198 -0.02442378
v 0.02447452 -0.01649990 -0.02440365
v 0.02480010 -0.01649990 -0.02440829
f 1 27 4
f 1 2 27
f 2 3 27
f 4 27 5
f 5 27 6
f 3 7 28
f 7 8 28
f 8 9 28
f 3 28 27
f 6 27 32
f 6 32 10
f 10 32 11
f 11 32 12
f 12 32 13
f 13 32 14
f 14 32 15
f 15 32 16
f 16 33 17
f 17 33 24
f 16 32 33
f 9 18 22
f 18 19 21
f 19 20 21
f 18 21 22
f 9 22 23
f 9 23 28
f 24 26 25
f 24 40 26
f 33 40 24
f 27 28 29
f 28 30 29
f 27 29 34
f 28 31 30
f 27 34 32
f 32 34 33
f 33 34 35
f 33 35 36
f 28 23 37
f 28 37 38
f 28 38 31
f 38 39 31
f 33 42 40
f 33 36 42
f 42 36 41
f 42 41 43
f 1 20 2
f 1 4 20
f 4 5 20
f 5 6 20
f 2 20 3
f 3 20 7
f 7 20 8
f 6 10 20
f 14 15 16
f 10 11 24
f 11 12 24
f 12 13 24
f 13 14 24
f 14 16 24
f 16 17 24
f 8 20 9
f 9 20 18
f 18 20 19
f 10 24 20
f 20 24 25
f 20 22 21
f 20 23 22
f 20 39 23
f 20 25 26
f 20 26 40
f 23 39 37
f 20 40 39
f 37 39 38
f 40 42 39
f 42 43 39
f 30 39 29
f 29 39 34
f 39 35 34
f 30 31 39
f 39 36 35
f 39 41 36
f 41 39 43

