# https://github.com/mikedh/trimesh
v 0.01864220 0.00281677 -0.01282640
v 0.01850010 0.00295847 -0.01282704
v 0.01871632 0.00262766 -0.00499345
v 0.01850010 0.00284482 -0.00509944
v 0.01867926 0.00262766 -0.00020201
v 0.01888199 0.00262766 0.00000000
v 0.01850010 0.00280801 -0.00034339
v 0.01850010 0.00280801 -0.00025820
v 0.01850010 0.00281082 -0.00020202
v 0.01850010 0.00281314 -0.00019973
v 0.01850010 0.00301800 -0.00000003
v 0.01850010 0.00320041 -0.01283012
v 0.01850010 0.00349990 -0.01283302
v 0.01850010 0.00349990 -0.00000000
v 0.01850167 0.00349990 0.00000000
v 0.02362535 0.00281677 -0.01282640
v 0.02361881 0.00287112 -0.01282640
v 0.02299537 0.00262766 -0.00499345
v 0.02480010 0.00263671 -0.00401112
v 0.02480010 0.00262766 -0.00361317
v 0.02480010 0.00281677 -0.00620087
v 0.02461500 0.00262766 0.00000000
v 0.02480010 0.00262766 -0.00018793
v 0.02480010 0.00262803 -0.00018793
v 0.02480010 0.00285805 -0.00617521
v 0.02480010 0.00292251 -0.00610528
v 0.02478285 0.00301458 -0.00617521
v 0.02480010 0.00301581 -0.00597968
v 0.02461500 0.00299067 0.00000000
v 0.02480010 0.00301501 -0.00018850
v 0.02351636 0.00342325 -0.01282640
v 0.02342108 0.00349990 -0.01283302
v 0.02342996 0.00349990 -0.01283254
v 0.02349263 0.00349990 -0.01282721
v 0.02350199 0.00349990 -0.01282640
v 0.02353806 0.00349990 -0.01262697
v 0.02374448 0.00349990 -0.01148099
v 0.02480010 0.00308534 -0.00583727
v 0.02480010 0.00308906 -0.00582926
v 0.02480010 0.00307061 -0.00020201
v 0.02480010 0.00306384 -0.00020036
v 0.02480010 0.00308348 -0.00029610
v 0.02480010 0.00308906 -0.00033903
v 0.02469401 0.00349990 -0.00617521
v 0.02471988 0.00349990 -0.00588567
v 0.02472470 0.00349990 -0.00582926
v 0.02472470 0.00349990 -0.00111762
v 0.02471728 0.00349990 -0.00088337
v 0.02448953 0.00349990 0.00000000
v 0.02469432 0.00349990 -0.00020201
v 0.02467721 0.00349990 -0.00018512
f 1 3 4
f 1 4 2
f 1 2 12
f 1 18 3
f 3 7 4
f 3 6 5
f 3 5 7
f 5 6 10
f 5 8 7
f 5 9 8
f 5 10 9
f 6 11 10
f 6 15 11
f 3 22 6
f 6 22 15
f 1 12 32
f 12 13 32
f 11 15 14
f 1 16 18
f 1 32 16
f 16 19 18
f 16 21 19
f 16 17 27
f 16 32 17
f 16 27 21
f 3 18 23
f 3 23 22
f 15 22 29
f 18 19 20
f 18 20 23
f 22 23 24
f 22 24 29
f 27 25 21
f 27 26 25
f 27 28 26
f 27 38 28
f 29 24 30
f 29 30 41
f 17 33 31
f 17 31 36
f 17 37 27
f 17 32 33
f 17 36 37
f 31 33 34
f 31 34 35
f 31 35 36
f 27 37 44
f 15 29 49
f 27 45 38
f 46 39 38
f 47 43 39
f 29 41 51
f 48 42 43
f 51 41 40
f 50 40 42
f 27 44 45
f 45 46 38
f 46 47 39
f 29 51 49
f 47 48 43
f 48 50 42
f 50 51 40
f 2 4 12
f 8 9 10
f 4 7 13
f 7 8 13
f 8 10 13
f 4 13 12
f 10 11 13
f 11 14 13
f 13 14 15
f 13 15 49
f 13 36 32
f 13 37 36
f 13 44 37
f 13 45 44
f 13 46 45
f 13 47 46
f 32 36 33
f 33 36 34
f 34 36 35
f 13 48 47
f 13 49 51
f 13 51 50
f 13 50 48
f 19 21 25
f 19 23 20
f 19 43 23
f 23 43 24
f 19 25 39
f 19 39 43
f 25 26 39
f 26 28 39
f 28 38 39
f 24 42 30
f 24 43 42
f 30 42 41
f 41 42 40

