# https://github.com/mikedh/trimesh
v 0.02480010 0.00263671 -0.00401112
v 0.02480010 0.00262766 -0.00361317
v 0.02480010 0.00281677 -0.00620087
v 0.02480010 0.00285805 -0.00617521
v 0.02480465 0.00281677 -0.00617521
v 0.02481991 0.00281677 -0.00602496
v 0.02480010 0.00262766 -0.00018793
v 0.02480010 0.00262803 -0.00018793
v 0.02480029 0.00262766 -0.00018812
v 0.02481337 0.00262766 -0.00020201
v 0.02480010 0.00292251 -0.00610528
v 0.02480010 0.00301581 -0.00597968
v 0.02480010 0.00308534 -0.00583727
v 0.02480010 0.00308906 -0.00582926
v 0.02481337 0.00301676 -0.00582926
v 0.02482863 0.00288634 -0.00582926
v 0.02480010 0.00301501 -0.00018850
v 0.02480010 0.00306384 -0.00020036
v 0.02480010 0.00307061 -0.00020201
v 0.02480010 0.00308348 -0.00029610
v 0.02480010 0.00308906 -0.00033903
v 0.02481337 0.00301676 -0.00020201
v 0.02485915 0.00262766 -0.00356801
v 0.02483735 0.00262766 -0.00043432
v 0.02484389 0.00262766 -0.00057447
v 0.02484824 0.00262766 -0.00076638
v 0.02485479 0.00262766 -0.00136610
f 1 3 5
f 3 4 5
f 5 11 6
f 1 23 2
f 1 5 23
f 5 6 23
f 2 9 7
f 2 10 9
f 7 9 8
f 8 9 17
f 9 10 22
f 2 24 10
f 2 25 24
f 10 24 22
f 4 11 5
f 6 11 12
f 6 12 15
f 12 13 15
f 13 14 15
f 14 21 15
f 6 15 16
f 15 22 23
f 9 22 17
f 15 21 22
f 17 22 18
f 18 22 19
f 19 22 20
f 20 22 21
f 6 16 23
f 15 23 16
f 2 27 26
f 2 23 27
f 2 26 25
f 22 27 23
f 22 24 25
f 22 25 26
f 22 26 27
f 1 4 3
f 2 7 8
f 1 2 21
f 2 8 21
f 1 21 4
f 4 21 11
f 11 21 12
f 12 21 13
f 13 21 14
f 8 17 20
f 8 20 21
f 17 18 20
f 18 19 20

