# https://github.com/mikedh/trimesh
v 0.01850010 0.00660251 -0.10180174
v 0.01850010 0.00672473 -0.10196618
v 0.01850010 0.00675942 -0.10198598
v 0.01850010 0.00654508 -0.10162183
v 0.01850010 0.00652470 -0.10153539
v 0.01850010 0.00644241 -0.10109939
v 0.01850010 0.00644060 -0.10108955
v 0.01850010 0.00769173 -0.10226432
v 0.01850010 0.00620802 -0.09979226
v 0.01850010 0.00619186 -0.09925063
v 0.01850010 0.00618250 -0.09893192
v 0.01850010 0.00612460 -0.09251788
v 0.01850010 0.01074108 -0.10305023
v 0.01850010 0.01105166 -0.10311292
v 0.01850010 0.01150293 -0.10320255
v 0.01850010 0.01252427 -0.10321870
v 0.01850010 0.00612460 -0.08644173
v 0.01850010 0.00615021 -0.08539469
v 0.01850010 0.00622161 -0.08446920
v 0.01850010 0.00632549 -0.08389655
v 0.01850010 0.00672481 -0.08274438
v 0.01850010 0.00731327 -0.08171468
v 0.01850010 0.00867478 -0.07948434
v 0.01850010 0.00899881 -0.07920297
v 0.01850010 0.01146860 -0.07861890
v 0.01850010 0.01540647 -0.10326153
v 0.01850010 0.01649305 -0.10326202
v 0.01850010 0.01655831 -0.10325781
v 0.01850010 0.01661185 -0.10325076
v 0.01850010 0.01680866 -0.10317393
v 0.01850010 0.01691333 -0.10313213
v 0.01850010 0.01697765 -0.10308412
v 0.01850010 0.01702694 -0.10303862
v 0.01984474 0.01649305 -0.10321940
v 0.01850010 0.01823942 -0.09526524
v 0.01850010 0.01837846 -0.09436719
v 0.01850010 0.01844734 -0.09391188
v 0.01850010 0.01864770 -0.09239240
v 0.01850010 0.01881794 -0.09099896
v 0.01850010 0.01882113 -0.09097171
v 0.01850010 0.01887214 -0.09049681
v 0.01850010 0.01891668 -0.09007258
v 0.01850010 0.01892170 -0.09001964
v 0.01850010 0.01896217 -0.08956995
v 0.01897834 0.01886140 -0.09049949
v 0.01850010 0.01913756 -0.08759885
v 0.01850010 0.01934819 -0.08503885
v 0.01994668 0.01917442 -0.08631243
v 0.01850010 0.01724363 -0.07861681
v 0.01850010 0.01825577 -0.07861681
v 0.01850010 0.01842161 -0.07862559
v 0.01850010 0.01846828 -0.07862873
v 0.01850010 0.01870564 -0.07864523
v 0.01850010 0.01965835 -0.08118133
v 0.01850010 0.01967396 -0.08097323
v 0.01850010 0.01894912 -0.07866822
v 0.01850010 0.01914873 -0.07869564
v 0.01850010 0.01928682 -0.07873248
v 0.01850010 0.01973778 -0.07982932
v 0.01850010 0.01974589 -0.07966183
v 0.01850010 0.01974667 -0.07963605
v 0.01850010 0.01974710 -0.07962008
v 0.01850010 0.01943147 -0.07877422
v 0.01850010 0.01970216 -0.07914377
v 0.01850010 0.01969427 -0.07912183
v 0.01850010 0.01961952 -0.07893832
v 0.01850010 0.01959272 -0.07888963
v 0.01924166 0.01962325 -0.08116294
v 0.02049030 0.01880012 -0.09054661
v 0.02104242 0.01911977 -0.08631243
v 0.02143315 0.01946260 -0.08143083
v 0.02480010 0.00768931 -0.10128984
v 0.02480010 0.00762942 -0.10103587
v 0.02480010 0.00757747 -0.10076065
v 0.02480010 0.00757144 -0.10072792
v 0.02480010 0.00785804 -0.10181844
v 0.02480010 0.00793812 -0.10192619
v 0.02480010 0.00802745 -0.10197718
v 0.02480010 0.00679759 -0.09641152
v 0.02480010 0.00678880 -0.09611675
v 0.02480010 0.00675587 -0.09499592
v 0.02480010 0.00672313 -0.09136990
v 0.02480010 0.01042882 -0.10269411
v 0.02480010 0.01074108 -0.10277460
v 0.02480010 0.01145672 -0.10291906
v 0.02480010 0.01150293 -0.10292824
v 0.02480010 0.01213903 -0.10293829
v 0.02480010 0.00672313 -0.08516499
v 0.02480010 0.00675462 -0.08387811
v 0.02480010 0.00684237 -0.08274061
v 0.02480010 0.00697005 -0.08203677
v 0.02480010 0.00728020 -0.08114186
v 0.02480010 0.00744791 -0.08084841
v 0.02480010 0.00783592 -0.08021280
v 0.02480010 0.00817824 -0.07991554
v 0.02480010 0.01227965 -0.07894560
v 0.02323391 0.01352515 -0.10302841
v 0.02480010 0.01513466 -0.10293424
v 0.02323391 0.01649305 -0.10302345
v 0.02480010 0.01649305 -0.10293198
v 0.02480010 0.01656594 -0.10290287
v 0.02480010 0.01657709 -0.10289454
v 0.02480010 0.01665245 -0.10282499
v 0.02480010 0.01850604 -0.09094138
v 0.02254589 0.01868916 -0.09067560
v 0.02292812 0.01941788 -0.07962008
v 0.02480010 0.01620230 -0.07894419
v 0.02324241 0.01863450 -0.09075497
v 0.02323391 0.01901377 -0.08582377
v 0.02480010 0.01850877 -0.09092372
v 0.02480010 0.01851407 -0.09085475
v 0.02480010 0.01852472 -0.09071529
v 0.02324241 0.01937648 -0.08028733
v 0.02323391 0.01938642 -0.07962008
v 0.02383700 0.01929367 -0.08157718
v 0.02480010 0.01688979 -0.07894419
v 0.02480010 0.01716588 -0.07895879
v 0.02480010 0.01724357 -0.07896403
v 0.02480010 0.01763872 -0.07899149
v 0.02480010 0.01804407 -0.07902976
v 0.02480010 0.01919195 -0.08173754
v 0.02480010 0.01837637 -0.07907542
v 0.02480010 0.01860626 -0.07913675
v 0.02480010 0.01884707 -0.07920623
v 0.02480010 0.01920499 -0.08096187
v 0.02480010 0.01921084 -0.08053046
v 0.02480010 0.01911551 -0.07939838
v 0.02480010 0.01916013 -0.07947942
v 0.02480010 0.01922277 -0.07963321
f 1 72 4
f 4 72 5
f 5 73 6
f 6 74 7
f 1 2 76
f 2 3 77
f 3 8 78
f 7 79 9
f 9 79 10
f 10 80 11
f 11 81 12
f 8 13 83
f 13 14 84
f 15 16 97
f 14 15 85
f 12 88 17
f 17 88 18
f 18 90 19
f 19 91 20
f 20 92 21
f 21 92 22
f 22 94 23
f 23 95 24
f 24 96 25
f 16 26 34
f 26 27 34
f 27 28 34
f 28 29 34
f 29 30 34
f 38 39 45
f 37 38 69
f 38 45 69
f 36 37 105
f 16 34 97
f 30 31 99
f 30 99 34
f 31 32 102
f 32 33 102
f 33 35 103
f 35 36 108
f 37 69 105
f 36 105 108
f 39 40 45
f 40 41 45
f 41 42 45
f 45 42 43
f 45 43 44
f 44 46 69
f 46 47 48
f 45 44 69
f 69 46 48
f 47 54 68
f 47 68 48
f 54 55 68
f 55 59 68
f 68 59 60
f 61 62 106
f 62 64 106
f 64 65 106
f 25 107 49
f 69 48 105
f 48 70 105
f 49 116 50
f 50 117 51
f 48 68 70
f 70 68 71
f 60 61 113
f 65 66 114
f 51 118 52
f 52 119 53
f 53 120 56
f 56 122 57
f 68 60 115
f 57 123 58
f 58 124 63
f 63 127 67
f 66 67 128
f 68 115 71
f 61 106 113
f 65 114 106
f 2 77 76
f 3 78 77
f 1 76 72
f 5 72 73
f 6 73 74
f 7 74 75
f 7 75 79
f 10 79 80
f 8 83 78
f 11 80 81
f 12 81 82
f 15 97 86
f 13 84 83
f 14 85 84
f 15 86 85
f 97 87 86
f 12 82 88
f 18 88 89
f 18 89 90
f 19 90 91
f 20 91 92
f 22 92 93
f 22 93 94
f 23 94 95
f 24 95 96
f 34 99 97
f 31 101 99
f 31 102 101
f 33 103 102
f 35 108 104
f 35 104 103
f 97 99 98
f 97 98 87
f 99 100 98
f 99 101 100
f 25 96 107
f 70 109 105
f 105 109 108
f 70 71 109
f 60 113 115
f 66 128 114
f 49 107 116
f 50 116 117
f 51 117 118
f 52 118 119
f 71 115 109
f 53 119 120
f 56 120 122
f 57 122 123
f 58 123 124
f 63 124 127
f 67 127 128
f 113 106 114
f 108 109 111
f 109 115 112
f 108 110 104
f 108 111 110
f 109 112 111
f 113 125 115
f 113 114 126
f 115 121 112
f 113 126 125
f 114 129 126
f 114 128 129
f 115 125 121
f 6 7 35
f 7 9 35
f 9 10 35
f 10 11 35
f 1 4 35
f 4 5 35
f 1 35 2
f 2 35 3
f 5 6 35
f 3 35 8
f 8 35 13
f 11 12 35
f 12 17 46
f 17 18 47
f 18 19 47
f 19 20 47
f 20 21 47
f 21 22 47
f 22 23 47
f 23 24 47
f 13 35 14
f 14 35 15
f 15 35 16
f 16 35 26
f 12 36 35
f 12 37 36
f 12 38 37
f 12 39 38
f 12 40 39
f 12 41 40
f 12 42 41
f 26 35 27
f 27 35 28
f 28 35 29
f 29 35 30
f 30 35 31
f 31 35 32
f 32 35 33
f 12 43 42
f 12 44 43
f 12 46 44
f 17 47 46
f 24 25 47
f 25 49 54
f 25 54 47
f 49 55 54
f 49 50 55
f 50 51 59
f 51 52 59
f 50 59 55
f 52 53 59
f 53 56 62
f 56 57 62
f 53 60 59
f 53 61 60
f 53 62 61
f 57 64 62
f 57 58 65
f 58 63 66
f 57 65 64
f 58 66 65
f 63 67 66
f 74 104 75
f 76 77 104
f 72 76 104
f 77 78 104
f 72 104 73
f 73 104 74
f 83 104 78
f 79 75 104
f 79 104 80
f 80 104 81
f 81 104 82
f 88 82 104
f 88 112 89
f 90 89 112
f 91 90 112
f 92 91 112
f 92 112 93
f 93 112 94
f 94 112 95
f 83 84 104
f 84 85 104
f 86 104 85
f 86 87 104
f 103 87 98
f 103 98 100
f 103 104 87
f 103 100 101
f 102 103 101
f 88 104 110
f 88 110 111
f 88 111 112
f 95 112 96
f 107 96 112
f 112 121 107
f 121 116 107
f 121 117 116
f 118 117 125
f 119 118 125
f 121 125 117
f 120 125 126
f 120 119 125
f 122 120 126
f 123 122 126
f 124 123 126
f 127 124 126
f 128 126 129
f 128 127 126

