# https://github.com/mikedh/trimesh
v 0.02819990 0.00830680 -0.10111069
v 0.02819990 0.00822558 -0.10076631
v 0.02819990 0.00819001 -0.10057786
v 0.02819990 0.00818170 -0.10053276
v 0.02819990 0.00871175 -0.10197243
v 0.02819990 0.00853558 -0.10182745
v 0.02819990 0.00859293 -0.10190461
v 0.02819990 0.00711575 -0.09458710
v 0.02819990 0.00711093 -0.09442556
v 0.02819990 0.00706528 -0.09287186
v 0.02819990 0.01061169 -0.10253967
v 0.02819990 0.01117513 -0.10265340
v 0.02819990 0.01150293 -0.10265967
v 0.02819990 0.00704613 -0.09075040
v 0.02819990 0.00704613 -0.08447601
v 0.02819990 0.00708078 -0.08305968
v 0.02819990 0.00717736 -0.08180777
v 0.02819990 0.00731789 -0.08103313
v 0.02819990 0.00750157 -0.08050314
v 0.02819990 0.00773541 -0.08030008
v 0.02819990 0.01271734 -0.07912191
v 0.02999526 0.00750157 -0.08050314
v 0.02819990 0.01379514 -0.10268378
v 0.02819990 0.01556956 -0.10269287
v 0.02819990 0.01642203 -0.10269469
v 0.02871265 0.01634730 -0.10265385
v 0.02819990 0.01736372 -0.09607582
v 0.02819990 0.01800684 -0.09150304
v 0.02842385 0.01797368 -0.09154129
v 0.03057287 0.01582394 -0.10249510
v 0.03030105 0.01749670 -0.09182158
v 0.02819990 0.01564035 -0.07912086
v 0.02819990 0.01825959 -0.08861628
v 0.02819990 0.01615264 -0.07912086
v 0.02819990 0.01648823 -0.07913861
v 0.02819990 0.01658266 -0.07914497
v 0.02819990 0.01706296 -0.07917835
v 0.02819990 0.01878963 -0.08231187
v 0.02819990 0.01755565 -0.07922488
v 0.02819990 0.01795957 -0.07928036
v 0.02819990 0.01879688 -0.08186829
v 0.02819990 0.01823899 -0.07935491
v 0.02819990 0.01853169 -0.07943936
v 0.02819990 0.01882575 -0.07964985
v 0.03047094 0.01767888 -0.08964868
v 0.03099758 0.01824696 -0.08282487
v 0.03126939 0.01824696 -0.07964985
v 0.03232266 0.00750157 -0.09237473
v 0.03449990 0.00997978 -0.10196363
v 0.03449990 0.00979111 -0.10184415
v 0.03449990 0.00980631 -0.10186462
v 0.03449990 0.00945103 -0.10077871
v 0.03449990 0.00933030 -0.10026680
v 0.03449990 0.00932507 -0.10023912
v 0.03449990 0.00931255 -0.10017113
v 0.03449990 0.00884035 -0.09753732
v 0.03449990 0.00866762 -0.09582559
v 0.03449990 0.00859445 -0.09464796
v 0.03449990 0.01030764 -0.10206152
v 0.03449990 0.01040487 -0.10208115
v 0.03449990 0.01150293 -0.10210212
v 0.03449990 0.01169647 -0.10210416
v 0.03449990 0.01180081 -0.10210484
v 0.03449990 0.01196045 -0.10210503
v 0.03149024 0.00750157 -0.08090497
v 0.03258598 0.00750157 -0.08200383
v 0.03299370 0.00750157 -0.08987688
v 0.03449990 0.00859445 -0.08887655
v 0.03299370 0.00750157 -0.08350452
v 0.03449990 0.00940224 -0.08237298
v 0.03449990 0.00973948 -0.08118855
v 0.03449990 0.01044094 -0.08033140
v 0.03449990 0.01109359 -0.08002442
v 0.03259448 0.01488323 -0.10230162
v 0.03179603 0.01696837 -0.09191088
v 0.03260297 0.01659739 -0.09184142
v 0.03408945 0.01298026 -0.10214784
v 0.03449990 0.01298026 -0.10210456
v 0.03449990 0.01354924 -0.10210340
v 0.03260297 0.01776335 -0.07963745
v 0.03449990 0.01569000 -0.09038153
v 0.03449990 0.01582653 -0.08960155
v 0.03449990 0.01587071 -0.08931794
v 0.03449990 0.01352839 -0.07944862
v 0.03449990 0.01459902 -0.07944823
v 0.03449990 0.01478667 -0.07944823
v 0.03449990 0.01523250 -0.07947182
v 0.03449990 0.01535795 -0.07948027
v 0.03324853 0.01659407 -0.08960155
v 0.03439524 0.01589682 -0.08960155
v 0.03449990 0.01598295 -0.08859657
v 0.03449990 0.01643301 -0.08557643
v 0.03383463 0.01721680 -0.08287448
v 0.03449990 0.01659047 -0.08450175
v 0.03449990 0.01684992 -0.08269905
v 0.03449990 0.01686981 -0.08235480
v 0.03449990 0.01599605 -0.07952462
v 0.03449990 0.01691981 -0.08148909
v 0.03412343 0.01723336 -0.07963745
v 0.03449990 0.01665060 -0.07958643
v 0.03449990 0.01702202 -0.07963745
f 48 8 4
f 48 10 9
f 48 9 8
f 52 1 6
f 50 6 7
f 51 7 5
f 52 2 1
f 53 3 2
f 54 4 3
f 49 5 11
f 67 14 10
f 48 67 10
f 60 11 12
f 61 12 13
f 22 18 17
f 22 19 18
f 22 20 19
f 22 21 20
f 66 16 15
f 65 17 16
f 69 15 14
f 22 17 65
f 66 15 69
f 65 16 66
f 22 84 21
f 30 13 23
f 30 23 24
f 26 24 25
f 26 25 27
f 26 30 24
f 26 27 29
f 29 27 28
f 26 29 31
f 29 45 31
f 61 13 30
f 26 31 30
f 30 31 75
f 31 45 75
f 29 28 33
f 29 33 46
f 46 33 38
f 46 38 41
f 47 43 42
f 47 41 44
f 47 44 43
f 80 42 40
f 85 32 21
f 86 34 32
f 29 46 45
f 75 45 46
f 87 35 34
f 88 36 35
f 97 37 36
f 100 39 37
f 46 41 47
f 99 40 39
f 47 42 80
f 55 48 4
f 52 53 2
f 53 54 3
f 54 55 4
f 50 7 51
f 50 52 6
f 51 5 49
f 49 11 59
f 59 11 60
f 60 12 61
f 48 57 67
f 56 57 48
f 57 58 67
f 58 68 67
f 55 56 48
f 62 74 63
f 63 77 64
f 64 77 78
f 67 69 14
f 22 65 73
f 65 66 71
f 67 68 69
f 66 69 70
f 65 71 72
f 65 72 73
f 68 70 69
f 66 70 71
f 22 73 84
f 30 76 74
f 62 30 74
f 30 75 76
f 74 76 89
f 75 89 76
f 61 30 62
f 63 74 77
f 74 79 77
f 77 79 78
f 74 81 79
f 74 89 90
f 74 90 81
f 84 85 21
f 85 86 32
f 86 87 34
f 87 88 35
f 75 46 93
f 80 40 99
f 46 47 99
f 88 97 36
f 97 100 37
f 100 99 39
f 47 80 99
f 81 90 82
f 90 83 82
f 75 93 89
f 90 89 91
f 90 91 83
f 91 89 92
f 89 94 92
f 89 93 94
f 46 99 93
f 93 95 94
f 93 96 95
f 93 98 96
f 93 99 98
f 100 101 99
f 98 99 101
f 53 81 54
f 54 81 55
f 50 81 52
f 50 51 81
f 51 49 81
f 52 81 53
f 49 59 81
f 59 60 81
f 60 61 81
f 55 81 56
f 56 81 57
f 57 81 58
f 58 81 68
f 68 92 70
f 70 94 71
f 71 94 72
f 72 94 73
f 61 62 81
f 62 63 81
f 63 64 81
f 64 78 81
f 78 79 81
f 68 81 82
f 68 82 83
f 68 83 91
f 68 91 92
f 70 92 94
f 73 94 84
f 84 94 95
f 84 96 85
f 84 95 96
f 85 96 86
f 86 98 87
f 87 98 88
f 86 96 98
f 88 98 97
f 97 98 100
f 100 98 101
f 3 27 2
f 27 3 4
f 1 27 6
f 2 27 1
f 4 8 27
f 7 6 27
f 5 7 27
f 11 5 27
f 10 14 28
f 8 9 28
f 10 28 9
f 14 15 33
f 15 16 33
f 16 17 33
f 17 18 33
f 18 19 33
f 20 33 19
f 33 20 21
f 27 12 11
f 12 27 13
f 27 23 13
f 24 23 27
f 8 28 27
f 25 24 27
f 28 14 33
f 21 32 33
f 32 34 41
f 34 35 41
f 35 36 41
f 32 38 33
f 32 41 38
f 36 37 41
f 37 39 41
f 39 40 41
f 40 42 41
f 42 43 41
f 43 44 41

