# https://github.com/mikedh/trimesh
v 0.02480010 0.00672313 -0.08820010
v 0.02480010 0.00672313 -0.08516499
v 0.02480010 0.00675462 -0.08387811
v 0.02480010 0.00684237 -0.08274061
v 0.02480010 0.00697005 -0.08203677
v 0.02480010 0.00728020 -0.08114186
v 0.02480010 0.00744791 -0.08084841
v 0.02480010 0.00783592 -0.08021280
v 0.02480010 0.00949990 -0.08820010
v 0.02480010 0.00817824 -0.07991554
v 0.02480010 0.00949990 -0.07960298
v 0.02819990 0.00704613 -0.08820010
v 0.02819990 0.00704613 -0.08447601
v 0.02731111 0.00750157 -0.08050314
v 0.02819990 0.00708078 -0.08305968
v 0.02819990 0.00717736 -0.08180777
v 0.02819990 0.00731789 -0.08103313
v 0.02819990 0.00750157 -0.08050314
v 0.02819990 0.00773541 -0.08030008
v 0.02819990 0.00949990 -0.08820010
v 0.02819990 0.00949990 -0.07988280
f 2 1 12
f 2 15 3
f 5 14 6
f 6 14 7
f 7 14 8
f 8 14 10
f 3 16 4
f 4 17 5
f 10 19 11
f 2 12 13
f 2 13 15
f 3 15 16
f 4 16 17
f 5 17 14
f 10 14 19
f 14 17 18
f 14 18 19
f 11 19 21
f 2 3 1
f 3 4 1
f 4 5 1
f 5 6 1
f 6 7 1
f 7 8 1
f 8 10 1
f 10 9 1
f 10 11 9
f 13 12 20
f 13 21 15
f 15 21 16
f 16 21 17
f 17 21 18
f 13 20 21
f 18 21 19
f 11 21 9
f 21 20 9
f 12 1 9
f 12 9 20

