# https://github.com/mikedh/trimesh
v 0.03449990 -0.00174617 -0.02804676
v 0.03449990 -0.00362597 -0.02714886
v 0.03449990 -0.01107753 -0.02358802
v 0.03449990 -0.01112761 -0.02327688
v 0.03449990 -0.01099900 -0.02302538
v 0.03449990 -0.01079057 -0.02289503
v 0.03449990 -0.01073374 -0.02286156
v 0.03449990 -0.00996586 -0.02247201
v 0.03449990 -0.00942514 -0.02230134
v 0.03449990 -0.00941007 -0.02229859
v 0.03449990 -0.00841004 -0.02212666
v 0.03449990 -0.00734864 -0.02198824
v 0.03449990 -0.00544038 -0.02185107
v 0.03449990 -0.00126629 -0.02178004
v 0.03449990 -0.00102163 -0.02177599
v 0.03449990 0.00635032 -0.02933564
v 0.03449990 0.01020084 -0.02933564
v 0.03449990 0.01019984 -0.02933372
v 0.03449990 0.00981496 -0.02872936
v 0.03449990 0.00961398 -0.02844392
v 0.03508095 0.00955176 -0.02933564
v 0.03449990 0.00907942 -0.02768985
v 0.03534652 0.00922989 -0.02928728
v 0.03536139 0.00923512 -0.02933564
v 0.03539325 0.00919325 -0.02933564
v 0.03449990 0.00745435 -0.02590951
v 0.03451796 0.00738762 -0.02586696
v 0.03449990 0.00740035 -0.02585829
v 0.03449990 0.00737746 -0.02583846
v 0.03449990 0.00868686 -0.02717936
v 0.03449990 0.00826551 -0.02667943
v 0.03531890 0.00682239 -0.02625251
v 0.03667008 0.00704220 -0.02863380
v 0.03449990 0.00482063 -0.02382023
v 0.03449990 0.00104177 -0.02174251
v 0.03449990 0.00112822 -0.02176127
v 0.03472616 0.00104177 -0.02197351
v 0.03451796 0.00300964 -0.02273547
v 0.03449990 0.00300964 -0.02271822
v 0.03449990 0.00307137 -0.02275448
v 0.03449990 0.00433344 -0.02349643
v 0.03449990 0.00222648 -0.02231107
v 0.03565244 0.00104439 -0.02292629
v 0.03520205 0.00135056 -0.02252636
v 0.03449990 0.00596465 -0.02466012
v 0.03449990 0.00680857 -0.02534664
v 0.03593288 0.00482835 -0.02530104
v 0.03589889 0.00300702 -0.02405550
v 0.03758362 0.00095018 -0.02933564
v 0.03789167 0.00095018 -0.02631655
v 0.03790229 0.00104439 -0.02631786
v 0.03749226 0.00314310 -0.02638321
v 0.03691865 0.00714426 -0.02933564
v 0.03736692 0.00640631 -0.02933564
v 0.03738604 0.00501676 -0.02766142
v 0.03844617 0.00152851 -0.02753725
v 0.03883283 0.00095018 -0.02839724
v 0.03914938 0.00095018 -0.02933564
v 0.03915788 0.00104439 -0.02933564
v 0.03916425 0.00135056 -0.02933564
v 0.03911751 0.00163318 -0.02933564
v 0.03875210 0.00095018 -0.02816590
v 0.03876484 0.00104439 -0.02816721
v 0.03875634 0.00340217 -0.02916050
v 0.03880946 0.00342310 -0.02933564
v 0.03885407 0.00321376 -0.02933564
v 0.03872023 0.00366124 -0.02933564
v 0.03804888 0.00522873 -0.02933564
v 0.03697814 0.00140813 -0.02480832
v 0.03687403 0.00104439 -0.02455999
f 1 49 2
f 2 58 3
f 8 50 9
f 9 50 10
f 13 43 14
f 11 70 12
f 12 70 13
f 10 51 11
f 5 57 6
f 6 62 7
f 3 58 4
f 4 58 5
f 7 62 8
f 10 50 51
f 11 51 70
f 13 70 43
f 1 16 49
f 17 18 21
f 18 19 23
f 20 22 23
f 19 20 23
f 17 21 24
f 18 23 21
f 22 30 23
f 16 17 49
f 17 24 25
f 21 23 24
f 23 25 24
f 17 25 53
f 23 30 33
f 26 32 31
f 26 28 27
f 27 28 29
f 27 29 46
f 27 46 32
f 26 27 32
f 30 31 32
f 30 32 33
f 23 53 25
f 17 54 68
f 32 55 33
f 17 53 54
f 23 33 53
f 32 47 55
f 34 41 48
f 34 48 47
f 14 37 15
f 15 37 35
f 38 42 44
f 35 37 36
f 36 44 42
f 14 43 37
f 36 37 44
f 38 41 40
f 38 40 39
f 38 48 41
f 38 39 42
f 43 48 44
f 37 43 44
f 38 44 48
f 32 46 45
f 34 47 45
f 32 45 47
f 43 69 48
f 43 70 69
f 47 48 52
f 48 69 52
f 2 49 58
f 8 62 50
f 6 57 62
f 5 58 57
f 17 58 49
f 17 59 58
f 17 60 59
f 17 61 60
f 52 64 55
f 47 52 55
f 51 56 52
f 51 52 69
f 33 54 53
f 17 68 67
f 17 67 65
f 17 65 66
f 33 55 68
f 33 68 54
f 17 66 61
f 50 62 63
f 55 64 68
f 64 67 68
f 52 56 64
f 56 61 64
f 58 59 63
f 59 60 63
f 57 58 63
f 56 60 61
f 57 63 62
f 56 63 60
f 64 65 67
f 64 66 65
f 61 66 64
f 50 63 51
f 51 63 56
f 51 69 70
f 1 2 14
f 2 3 4
f 2 4 5
f 2 5 6
f 2 6 7
f 2 7 8
f 2 8 9
f 2 9 10
f 2 10 11
f 2 11 12
f 2 12 13
f 1 14 15
f 2 13 14
f 1 15 16
f 16 31 17
f 17 19 18
f 17 20 19
f 17 22 20
f 17 30 22
f 17 31 30
f 16 26 31
f 16 28 26
f 16 29 28
f 16 46 29
f 16 41 34
f 16 34 45
f 16 45 46
f 15 35 16
f 16 40 41
f 16 39 40
f 16 42 39
f 16 35 36
f 16 36 42

