# https://github.com/mikedh/trimesh
v 0.02480010 0.01216679 -0.03176493
v 0.02480010 0.01149020 -0.02951096
v 0.02480010 0.01331805 -0.03559408
v 0.02480010 0.01024124 -0.02329517
v 0.02480010 0.01024124 -0.02047212
v 0.02480010 0.01036979 -0.02052556
v 0.02480010 0.01046369 -0.02056853
v 0.02480010 0.01057711 -0.02062278
v 0.02480010 0.01148238 -0.02108072
v 0.02480010 0.01146193 -0.02107017
v 0.02480010 0.01180313 -0.02125160
v 0.02514242 0.01141349 -0.02124240
v 0.02480010 0.01281317 -0.02184350
v 0.02480010 0.01375295 -0.02244757
v 0.02480010 0.01408380 -0.02268436
v 0.02480010 0.01398167 -0.02261119
v 0.02480010 0.01352251 -0.02228284
v 0.02595079 0.01024124 -0.02111422
v 0.02569136 0.01399920 -0.02320929
v 0.02616886 0.01359054 -0.02322131
v 0.02480010 0.01548246 -0.03601921
v 0.02480010 0.01651205 -0.03601921
v 0.02480010 0.01820635 -0.03111824
v 0.02480010 0.01820926 -0.03100874
v 0.02480010 0.01820195 -0.03095086
v 0.02483787 0.01818958 -0.03100874
v 0.02480010 0.01818958 -0.03085582
v 0.02480010 0.01759032 -0.02843147
v 0.02480010 0.01792683 -0.02967223
v 0.02480010 0.01776729 -0.02907430
v 0.02480010 0.01777579 -0.02910596
v 0.02480010 0.01602295 -0.02451012
v 0.02535673 0.01611126 -0.02510808
v 0.02551841 0.01613376 -0.02536045
v 0.02480010 0.01426692 -0.02282005
v 0.02480010 0.01475352 -0.02318609
v 0.02480010 0.01526488 -0.02369666
v 0.02480010 0.01657588 -0.02536045
v 0.02480010 0.01630125 -0.02488131
v 0.02480010 0.01644656 -0.02509001
v 0.02480010 0.01647101 -0.02514042
v 0.02480010 0.01682891 -0.02595103
v 0.02480010 0.01688045 -0.02610249
v 0.02480010 0.01749279 -0.02809068
v 0.02586807 0.01585256 -0.02536045
v 0.02819990 0.01179860 -0.03054033
v 0.02819990 0.01289415 -0.03075552
v 0.02819990 0.01341529 -0.03075552
v 0.02819990 0.01065936 -0.02675113
v 0.02819990 0.01051244 -0.02626170
v 0.02819990 0.01024124 -0.02491199
v 0.02748105 0.01024124 -0.02206361
v 0.02819990 0.01024124 -0.02252125
v 0.02819990 0.01048529 -0.02266025
v 0.02819990 0.01135518 -0.02316682
v 0.02819990 0.01129213 -0.02312857
v 0.02819990 0.01131594 -0.02314252
v 0.02808638 0.01399920 -0.02536045
v 0.02819990 0.01396379 -0.02558556
v 0.02819990 0.01390345 -0.02536045
v 0.02819990 0.01395591 -0.02555599
v 0.02819990 0.01402991 -0.02596313
v 0.02819990 0.01397998 -0.02565847
v 0.02819990 0.01372967 -0.02512543
v 0.02819990 0.01374115 -0.02513676
v 0.02819990 0.01376382 -0.02515940
v 0.02819990 0.01378894 -0.02518636
v 0.02819990 0.01383255 -0.02525210
v 0.02819990 0.01379338 -0.02519301
v 0.02819990 0.01252925 -0.02409944
v 0.02819990 0.01428658 -0.02823517
v 0.02819990 0.01428675 -0.02794958
v 0.02819990 0.01427901 -0.02780400
f 1 3 49
f 1 49 2
f 3 21 47
f 8 12 10
f 4 18 5
f 6 18 7
f 5 18 6
f 7 18 8
f 9 10 12
f 9 12 11
f 11 12 13
f 8 18 12
f 15 19 35
f 13 20 17
f 14 17 20
f 14 20 16
f 15 16 20
f 15 20 19
f 2 50 4
f 12 57 13
f 12 18 52
f 4 53 18
f 13 57 20
f 22 23 26
f 23 24 26
f 24 25 26
f 25 27 26
f 26 27 29
f 21 22 48
f 22 26 48
f 26 29 63
f 32 37 33
f 32 33 39
f 33 45 34
f 19 36 35
f 19 37 36
f 28 45 30
f 28 44 45
f 34 44 43
f 33 40 39
f 33 41 40
f 34 42 38
f 34 43 42
f 34 38 41
f 34 45 44
f 33 34 41
f 33 37 66
f 30 45 58
f 33 67 45
f 19 66 37
f 30 58 31
f 29 31 59
f 3 46 49
f 3 47 46
f 21 48 47
f 2 49 50
f 4 50 51
f 4 51 53
f 12 52 54
f 18 53 52
f 12 54 56
f 12 56 57
f 19 20 65
f 20 57 55
f 52 53 54
f 20 64 65
f 19 65 66
f 58 60 61
f 58 69 68
f 58 68 60
f 20 55 70
f 20 70 64
f 26 71 48
f 26 72 71
f 26 73 72
f 26 62 73
f 33 66 67
f 26 63 62
f 31 58 61
f 29 59 63
f 31 61 59
f 45 69 58
f 45 67 69
f 1 2 29
f 2 4 13
f 4 6 7
f 4 7 8
f 4 5 6
f 4 8 10
f 4 10 9
f 4 9 11
f 4 11 13
f 2 13 17
f 2 17 14
f 2 14 16
f 2 16 15
f 2 15 35
f 2 35 36
f 2 36 37
f 1 23 3
f 3 23 21
f 1 24 23
f 1 27 25
f 1 25 24
f 1 29 27
f 2 30 31
f 2 28 30
f 2 44 28
f 2 31 29
f 21 23 22
f 2 38 42
f 2 41 38
f 2 40 41
f 2 39 40
f 2 42 43
f 2 37 32
f 2 32 39
f 2 43 44
f 46 71 49
f 46 47 71
f 47 48 71
f 50 70 51
f 49 62 50
f 53 56 54
f 51 70 53
f 53 57 56
f 53 55 57
f 53 70 55
f 49 71 72
f 49 72 73
f 49 73 62
f 50 65 64
f 50 66 65
f 50 69 67
f 50 67 66
f 50 68 69
f 50 64 70
f 50 62 63
f 50 63 59
f 50 61 60
f 50 60 68
f 50 59 61

