# https://github.com/mikedh/trimesh
v 0.01850010 0.00349990 -0.02014094
v 0.01867052 0.00349990 -0.02000488
v 0.01850010 0.00396583 -0.02003850
v 0.01850010 0.00674887 -0.01919535
v 0.01850010 0.00349990 -0.00148012
v 0.01853852 0.00349990 -0.00147812
v 0.01850010 0.00359788 -0.00164308
v 0.01850010 0.01023999 -0.01755825
v 0.01850010 0.00913391 -0.01096374
v 0.01850010 0.01023999 -0.01282658
v 0.02045321 0.01023999 -0.01672944
v 0.02087142 0.01023999 -0.01614748
v 0.02112015 0.01023999 -0.01499968
v 0.02142132 0.01023999 -0.01282828
v 0.02274683 0.00349990 -0.01672944
v 0.02290762 0.00349990 -0.01648988
v 0.02207241 0.00604460 -0.01672944
v 0.02278690 0.00584685 -0.01499968
v 0.02300987 0.00349990 -0.01614748
v 0.02304154 0.00349990 -0.01603288
v 0.02309206 0.00349990 -0.01582746
v 0.02325164 0.00349990 -0.01499968
v 0.02434952 0.00349990 -0.00817746
v 0.02443016 0.00349990 -0.00755191
v 0.02449422 0.00349990 -0.00699007
v 0.02450599 0.00349990 -0.00686091
v 0.02450670 0.00349990 -0.00679097
v 0.02450637 0.00349990 -0.00665762
v 0.02379236 0.00349990 -0.00147812
v 0.02424875 0.00349990 -0.00147838
v 0.02445587 0.00349990 -0.00215811
v 0.02445048 0.00349990 -0.00194850
v 0.02444509 0.00349990 -0.00186302
v 0.02442459 0.00349990 -0.00165747
v 0.02179929 0.00703641 -0.01672944
v 0.02216873 0.00715506 -0.01614748
v 0.02224677 0.00842980 -0.01282828
v 0.02238576 0.00722503 -0.01499968
v 0.02201754 0.00894395 -0.01282828
f 1 3 2
f 2 3 17
f 3 4 35
f 2 17 15
f 3 35 17
f 5 6 7
f 6 29 7
f 7 29 9
f 4 8 11
f 8 10 11
f 9 14 10
f 4 11 35
f 11 36 35
f 11 12 36
f 12 13 36
f 10 14 11
f 11 14 12
f 12 14 13
f 9 30 14
f 18 20 19
f 18 21 20
f 15 17 16
f 16 36 19
f 17 35 36
f 16 17 36
f 18 19 36
f 18 36 38
f 18 22 21
f 18 23 22
f 18 38 24
f 24 38 37
f 9 29 30
f 24 37 25
f 25 37 26
f 26 37 27
f 18 24 23
f 27 39 28
f 14 31 28
f 14 30 34
f 14 32 31
f 14 33 32
f 14 34 33
f 13 38 36
f 27 37 39
f 13 39 37
f 13 37 38
f 13 14 39
f 14 28 39
f 1 5 3
f 3 7 9
f 3 5 7
f 3 10 4
f 3 9 10
f 4 10 8
f 1 2 5
f 2 15 5
f 5 15 16
f 5 16 19
f 5 29 6
f 5 19 20
f 5 20 21
f 5 21 22
f 5 22 23
f 5 30 29
f 5 23 24
f 5 24 25
f 5 25 26
f 5 26 27
f 5 27 28
f 5 28 31
f 5 34 30
f 5 31 32
f 5 32 33
f 5 33 34

