# https://github.com/mikedh/trimesh
v 0.01863003 0.00349990 -0.02099442
v 0.01850010 0.00349990 -0.02083924
v 0.01850010 0.00349990 -0.01618904
v 0.01996511 0.01023999 -0.02099067
v 0.01850010 0.01023999 -0.01924096
v 0.01850010 0.01023999 -0.01673128
v 0.02045587 0.01023999 -0.01673128
v 0.02387689 0.00349990 -0.02455023
v 0.02414335 0.00349990 -0.02470345
v 0.02480010 0.00349990 -0.02507744
v 0.02480010 0.00404401 -0.02507740
v 0.02480010 0.00424051 -0.02507606
v 0.02246838 0.00349990 -0.01618904
v 0.02480010 0.00349990 -0.01714377
v 0.02480010 0.00555771 -0.01756091
v 0.02480010 0.00639755 -0.01775715
v 0.02480010 0.01023999 -0.02426735
v 0.02480010 0.00783213 -0.01843959
v 0.02480010 0.00789877 -0.01847571
v 0.02480010 0.00695348 -0.01797531
v 0.02480010 0.00718126 -0.01809025
v 0.02480010 0.00887938 -0.01906293
v 0.02480010 0.00969362 -0.01957865
v 0.02480010 0.01023999 -0.01993245
f 1 2 4
f 8 1 4
f 3 13 6
f 4 6 17
f 2 5 4
f 4 5 6
f 13 7 6
f 6 7 17
f 8 12 9
f 9 11 10
f 9 12 11
f 8 17 12
f 13 15 7
f 13 14 15
f 8 4 17
f 7 15 16
f 7 16 20
f 7 20 21
f 7 21 18
f 7 24 17
f 7 22 23
f 7 23 24
f 7 18 19
f 7 19 22
f 2 3 5
f 3 6 5
f 9 2 1
f 9 3 2
f 8 9 1
f 9 10 14
f 9 13 3
f 9 14 13
f 10 11 14
f 12 14 11
f 12 17 14
f 14 16 15
f 14 20 16
f 14 21 20
f 14 18 21
f 14 19 18
f 14 22 19
f 14 23 22
f 14 17 24
f 14 24 23

