# https://github.com/mikedh/trimesh
v 0.01850010 -0.01558090 -0.02012306
v 0.01850010 -0.01553619 -0.02015468
v 0.01850010 -0.01550375 -0.02016840
v 0.01850010 -0.01538800 -0.02021480
v 0.01850010 -0.01538127 -0.02021634
v 0.01850010 -0.01574198 -0.01993732
v 0.01850010 -0.01618318 -0.01875198
v 0.01850010 -0.01635189 -0.01813076
v 0.01850010 -0.01473776 -0.02035905
v 0.01850010 -0.01636102 -0.01808153
v 0.01850010 -0.01649990 -0.01674210
v 0.01851929 -0.01649990 -0.01643563
v 0.01861983 -0.01649990 -0.01339751
v 0.02143473 -0.00980598 -0.01634300
v 0.01959972 -0.01551340 -0.00583334
v 0.01877971 -0.01649990 -0.00266502
v 0.01911688 -0.01610666 -0.00287986
v 0.01878148 -0.01649990 -0.00248534
v 0.01877542 -0.01649990 -0.00232873
v 0.01871569 -0.01649990 -0.00170675
v 0.01850010 -0.01648695 -0.00016658
v 0.01850010 -0.01649990 -0.00017525
v 0.01853604 -0.01649990 -0.00020245
v 0.01853601 -0.01649990 -0.00020242
v 0.01853436 -0.01649990 -0.00020117
v 0.01854075 -0.01649990 -0.00024177
v 0.01854748 -0.01648695 -0.00020242
v 0.01850010 -0.01624117 -0.00000230
v 0.01850010 -0.01616341 -0.00000217
v 0.01850010 -0.01573719 -0.00000149
v 0.01850010 -0.01492933 -0.00000102
v 0.01966922 -0.01542213 -0.00500756
v 0.01964727 -0.01544951 -0.00473154
v 0.01960460 -0.01550123 -0.00422319
v 0.01941683 -0.01573853 -0.00350092
v 0.02057392 -0.01419607 -0.00583334
v 0.02057392 -0.01419607 -0.00473154
v 0.02040688 -0.01408350 -0.00000230
v 0.02057148 -0.01419303 -0.00020242
v 0.01850010 -0.00053125 -0.02068641
v 0.01850010 0.00094260 -0.02068641
v 0.01850010 0.00337242 -0.02016896
v 0.01850010 0.00349990 -0.02014094
v 0.01867052 0.00349990 -0.02000488
v 0.01850010 -0.00158183 -0.00000027
v 0.01850010 0.00089081 -0.00000017
v 0.01913152 0.00094260 0.00000000
v 0.01850010 0.00142444 -0.00000017
v 0.01850010 0.00203443 -0.00019503
v 0.01850010 0.00349990 -0.00148012
v 0.01853852 0.00349990 -0.00147812
v 0.01850010 0.00284573 -0.00057833
v 0.01868038 0.00262197 -0.00020242
v 0.01850010 0.00308177 -0.00078469
v 0.01888278 0.00262197 0.00000000
v 0.02260035 -0.00652329 -0.01598186
v 0.02210655 -0.01160095 -0.00617837
v 0.02213337 -0.01161312 -0.00583334
v 0.02182733 -0.01212119 -0.00473154
v 0.02224311 -0.01136974 -0.00532959
v 0.02224311 -0.01058786 0.00000000
v 0.02265522 -0.00980598 0.00000000
v 0.02294907 -0.00980598 -0.00213000
v 0.02287835 -0.00980598 -0.00020242
v 0.02318683 -0.00879592 -0.00000230
v 0.02334411 -0.00885677 -0.00617837
v 0.02337216 -0.00886894 -0.00583334
v 0.02337216 -0.00886894 -0.00363663
v 0.02392205 -0.00710742 -0.00363433
v 0.02337216 -0.00886589 -0.00020472
v 0.02278690 -0.00584485 -0.01598186
v 0.02287225 -0.00545543 -0.01598186
v 0.02318317 -0.00399815 -0.01598186
v 0.02319414 -0.00392818 -0.01598186
v 0.02274683 0.00349990 -0.01672944
v 0.02290762 0.00349990 -0.01648988
v 0.02300987 0.00349990 -0.01614748
v 0.02306978 0.00323957 -0.01614748
v 0.02304154 0.00349990 -0.01603288
v 0.02309206 0.00349990 -0.01582746
v 0.02332948 -0.00300635 -0.01598186
v 0.02337216 -0.00268386 -0.01598186
v 0.02340629 -0.00231574 -0.01598186
v 0.02342702 -0.00188069 -0.01598186
v 0.02342458 0.00094260 -0.01672944
v 0.02325164 0.00349990 -0.01499968
v 0.02329656 0.00327303 -0.01499968
v 0.02423906 -0.00598176 -0.00617837
v 0.02426954 -0.00598784 -0.00583334
v 0.02480010 -0.00310026 -0.00583334
v 0.02478408 -0.00302156 -0.00617837
v 0.02480010 -0.00288497 -0.00617837
v 0.02480010 -0.00277128 -0.00626843
v 0.02480010 -0.00276780 -0.00627061
v 0.02480010 -0.00302156 -0.00599703
v 0.02480010 -0.00310078 -0.00573711
v 0.02470848 -0.00212712 -0.00712605
v 0.02467069 -0.00150344 -0.00759990
v 0.02480010 -0.00265435 -0.00631030
v 0.02480010 -0.00261086 -0.00631817
v 0.02480010 -0.00269066 -0.00629802
v 0.02480010 -0.00255449 -0.00632207
v 0.02448413 -0.00483175 -0.00363433
v 0.02480010 -0.00310425 -0.00363433
v 0.02461704 -0.00300027 -0.00000230
v 0.02480010 -0.00310425 -0.00036687
v 0.02480010 -0.00308203 -0.00020472
v 0.02480010 -0.00307413 -0.00020277
v 0.02480010 -0.00301708 -0.00018875
v 0.02480010 -0.00270599 -0.00018857
v 0.02464996 -0.00078240 -0.00790353
v 0.02464508 -0.00000661 -0.00800473
v 0.02464996 0.00076919 -0.00790353
v 0.02434952 0.00349990 -0.00817746
v 0.02467069 0.00149631 -0.00759990
v 0.02443016 0.00349990 -0.00755191
v 0.02449422 0.00349990 -0.00699007
v 0.02450599 0.00349990 -0.00686091
v 0.02450670 0.00349990 -0.00679097
v 0.02450637 0.00349990 -0.00665762
v 0.02480010 0.00252015 -0.00632999
v 0.02480010 0.00258132 -0.00632573
v 0.02480010 0.00262925 -0.00631711
v 0.02480010 0.00273698 -0.00628358
v 0.02480010 0.00281316 -0.00622257
v 0.02480010 0.00279932 -0.00623754
v 0.02480010 0.00282316 -0.00621027
v 0.02480010 0.00282583 -0.00620423
v 0.02480010 0.00282894 -0.00619549
v 0.02480010 0.00285811 -0.00608405
v 0.02480010 0.00285821 -0.00607935
v 0.02480010 0.00285816 -0.00607010
v 0.02379236 0.00349990 -0.00147812
v 0.02461704 0.00094260 0.00000000
v 0.02480010 0.00094260 -0.00018645
v 0.02424875 0.00349990 -0.00147838
v 0.02445048 0.00349990 -0.00194850
v 0.02445587 0.00349990 -0.00215811
v 0.02444509 0.00349990 -0.00186302
v 0.02442459 0.00349990 -0.00165747
v 0.02480010 0.00273533 -0.00094773
v 0.02480010 0.00272196 -0.00069276
v 0.02461704 0.00262197 0.00000000
v 0.02480010 0.00270857 -0.00057562
v 0.02480010 0.00262197 -0.00018645
v 0.02480010 0.00265716 -0.00026074
f 1 14 6
f 6 14 7
f 1 2 56
f 2 3 71
f 3 4 72
f 4 5 73
f 11 36 12
f 12 36 13
f 7 57 8
f 8 57 10
f 10 58 11
f 5 9 74
f 7 14 66
f 7 66 57
f 1 56 14
f 2 71 56
f 3 72 71
f 4 73 72
f 5 74 73
f 13 15 16
f 13 36 15
f 15 32 33
f 15 36 32
f 16 17 18
f 15 17 16
f 17 19 18
f 20 27 26
f 21 22 25
f 21 25 27
f 23 26 27
f 23 27 24
f 24 27 25
f 21 27 28
f 20 39 27
f 27 38 28
f 28 38 29
f 15 35 17
f 15 33 35
f 33 34 35
f 34 39 35
f 32 39 33
f 33 39 34
f 19 39 20
f 17 39 19
f 17 35 39
f 27 39 38
f 29 61 30
f 30 61 31
f 31 61 45
f 11 58 36
f 32 36 37
f 10 57 58
f 36 58 59
f 32 37 39
f 29 38 61
f 36 59 37
f 37 59 39
f 38 39 62
f 42 43 44
f 9 40 85
f 40 41 85
f 41 42 85
f 42 44 85
f 44 75 85
f 45 61 47
f 45 47 46
f 46 55 48
f 48 55 49
f 46 47 55
f 49 53 52
f 49 55 53
f 52 55 54
f 52 53 55
f 50 54 51
f 51 54 55
f 51 55 143
f 47 143 55
f 14 56 66
f 58 60 59
f 39 59 64
f 57 67 58
f 57 66 67
f 59 60 63
f 38 62 61
f 39 64 62
f 58 63 60
f 58 68 63
f 58 67 68
f 59 63 64
f 62 64 65
f 63 70 64
f 64 70 65
f 56 88 66
f 66 89 67
f 66 88 89
f 63 68 70
f 67 69 68
f 67 89 69
f 68 69 70
f 62 65 105
f 70 69 103
f 65 70 107
f 9 85 74
f 56 71 88
f 75 76 85
f 76 77 78
f 76 78 85
f 78 80 85
f 77 79 78
f 79 80 78
f 80 86 87
f 74 85 81
f 81 85 82
f 71 72 88
f 72 73 88
f 83 84 98
f 73 74 91
f 74 81 91
f 81 82 91
f 82 83 94
f 82 85 83
f 83 85 84
f 80 87 85
f 84 85 98
f 86 114 87
f 87 126 85
f 85 111 98
f 85 112 111
f 85 113 112
f 85 115 113
f 47 61 143
f 61 62 143
f 51 143 133
f 73 91 88
f 88 91 89
f 89 91 90
f 82 93 91
f 83 97 94
f 82 94 93
f 83 98 97
f 91 93 92
f 91 95 90
f 91 92 95
f 97 101 94
f 97 99 101
f 98 100 99
f 98 111 100
f 97 98 99
f 111 102 100
f 62 105 134
f 62 134 143
f 69 89 103
f 89 90 103
f 70 103 107
f 65 108 105
f 65 107 108
f 103 90 96
f 103 96 104
f 103 104 106
f 103 106 107
f 105 108 109
f 105 109 110
f 105 110 134
f 111 112 102
f 112 121 102
f 85 124 115
f 85 126 124
f 87 114 125
f 87 125 126
f 112 113 121
f 113 115 122
f 113 122 121
f 115 123 122
f 114 116 127
f 116 117 128
f 117 118 129
f 115 124 123
f 114 127 125
f 116 128 127
f 118 119 130
f 119 120 131
f 117 129 128
f 118 130 129
f 119 131 130
f 120 132 131
f 134 110 135
f 120 138 132
f 138 141 132
f 133 143 136
f 134 135 145
f 134 145 143
f 138 137 141
f 137 139 142
f 140 144 139
f 136 146 140
f 136 143 146
f 143 145 146
f 137 142 141
f 139 144 142
f 140 146 144
f 10 11 22
f 1 45 2
f 1 6 45
f 2 45 3
f 3 45 4
f 4 45 5
f 5 45 9
f 7 8 45
f 6 7 45
f 8 10 45
f 21 45 22
f 10 22 45
f 21 28 45
f 28 29 45
f 29 30 45
f 30 31 45
f 9 45 40
f 40 43 41
f 41 43 42
f 40 54 43
f 40 45 46
f 40 46 48
f 40 48 49
f 40 49 52
f 40 52 54
f 43 54 50
f 11 12 22
f 12 13 22
f 13 16 22
f 16 18 22
f 18 19 22
f 19 20 22
f 20 26 22
f 22 26 25
f 23 24 26
f 24 25 26
f 43 75 44
f 43 76 75
f 43 77 76
f 43 79 77
f 43 80 79
f 43 86 80
f 43 50 51
f 43 51 136
f 43 114 86
f 43 116 114
f 43 117 116
f 43 118 117
f 43 119 118
f 43 120 119
f 43 136 140
f 43 138 120
f 43 137 138
f 43 139 137
f 43 140 139
f 51 133 136
f 107 106 108
f 108 106 109
f 109 106 110
f 110 106 135
f 93 132 92
f 94 132 93
f 90 132 96
f 95 132 90
f 95 92 132
f 101 99 132
f 99 100 132
f 94 101 132
f 100 102 132
f 102 121 122
f 102 122 123
f 102 123 124
f 102 124 126
f 125 102 126
f 127 128 102
f 125 127 102
f 102 128 129
f 102 129 130
f 102 130 131
f 102 131 132
f 96 132 104
f 104 132 106
f 132 135 106
f 132 145 135
f 132 141 145
f 141 142 145
f 142 144 145
f 144 146 145

