# https://github.com/mikedh/trimesh
v 0.02480010 -0.00302156 -0.00599703
v 0.02480010 -0.00288497 -0.00617837
v 0.02480010 -0.00276780 -0.00627061
v 0.02480010 -0.00277128 -0.00626843
v 0.02480010 -0.00310026 -0.00583334
v 0.02480010 -0.00310078 -0.00573711
v 0.02480010 -0.00269066 -0.00629802
v 0.02480010 -0.00265435 -0.00631030
v 0.02480010 -0.00261086 -0.00631817
v 0.02480010 -0.00255449 -0.00632207
v 0.02481334 -0.00277209 -0.00617837
v 0.02481456 -0.00302156 -0.00583334
v 0.02482675 -0.00289378 -0.00583334
v 0.02480010 -0.00310425 -0.00363433
v 0.02481578 -0.00301852 -0.00363433
v 0.02485601 -0.00266257 -0.00363663
v 0.02480010 -0.00310425 -0.00036687
v 0.02480010 -0.00308203 -0.00020472
v 0.02480010 -0.00307413 -0.00020277
v 0.02480010 -0.00301708 -0.00018875
v 0.02480010 -0.00270599 -0.00018857
v 0.02481578 -0.00301852 -0.00020472
v 0.02480010 0.00252015 -0.00632999
v 0.02480010 0.00258132 -0.00632573
v 0.02480010 0.00262925 -0.00631711
v 0.02480010 0.00273698 -0.00628358
v 0.02480010 0.00279932 -0.00623754
v 0.02480010 0.00281316 -0.00622257
v 0.02480010 0.00282316 -0.00621027
v 0.02480010 0.00282583 -0.00620423
v 0.02480010 0.00282894 -0.00619549
v 0.02480010 0.00285811 -0.00608405
v 0.02480010 0.00285821 -0.00607935
v 0.02480010 0.00285816 -0.00607010
v 0.02480846 0.00281060 -0.00617377
v 0.02481456 0.00275584 -0.00617377
v 0.02482187 0.00281060 -0.00602655
v 0.02485967 0.00262197 -0.00356763
v 0.02485967 0.00262197 -0.00328470
v 0.02486333 0.00259155 -0.00350092
v 0.02480010 0.00094260 -0.00018645
v 0.02481578 0.00094260 -0.00020242
v 0.02480010 0.00273533 -0.00094773
v 0.02480010 0.00272196 -0.00069276
v 0.02480010 0.00270857 -0.00057562
v 0.02480010 0.00262197 -0.00018645
v 0.02480010 0.00265716 -0.00026074
v 0.02481578 0.00262197 -0.00020242
v 0.02483895 0.00262197 -0.00043474
v 0.02484504 0.00262197 -0.00053135
v 0.02485601 0.00262197 -0.00136632
v 0.02485114 0.00262197 -0.00076827
v 0.02490844 -0.00213016 -0.00287986
v 0.02495356 -0.00150952 -0.00240372
v 0.02496453 -0.00127526 -0.00230711
v 0.02498648 -0.00078240 -0.00210470
v 0.02494136 0.00094260 -0.00143533
v 0.02490844 0.00211695 -0.00287986
v 0.02499867 -0.00000661 -0.00200349
v 0.02497916 0.00094260 -0.00217600
v 0.02498648 0.00076919 -0.00210470
v 0.02495356 0.00149631 -0.00240372
f 3 11 4
f 3 7 11
f 2 4 11
f 1 2 11
f 1 11 12
f 1 12 5
f 5 12 6
f 7 8 11
f 8 9 11
f 9 10 11
f 11 13 12
f 6 12 15
f 12 13 16
f 6 15 14
f 12 16 15
f 10 23 11
f 13 53 16
f 11 59 13
f 13 54 53
f 14 15 22
f 15 16 22
f 14 22 17
f 17 22 18
f 18 22 19
f 19 22 20
f 20 22 21
f 21 22 42
f 21 42 41
f 16 53 22
f 22 53 54
f 22 57 42
f 11 23 36
f 11 36 37
f 23 24 36
f 24 25 36
f 27 28 35
f 28 29 35
f 29 30 35
f 30 31 35
f 31 32 35
f 25 26 36
f 26 27 36
f 27 35 36
f 32 33 37
f 33 34 37
f 32 37 35
f 35 37 36
f 34 43 37
f 37 38 40
f 37 39 38
f 37 51 39
f 11 37 59
f 37 40 58
f 38 39 40
f 37 58 62
f 37 43 52
f 37 52 51
f 41 42 48
f 41 48 46
f 46 48 47
f 43 44 52
f 44 45 50
f 45 47 49
f 47 48 49
f 44 50 52
f 45 49 50
f 39 51 40
f 40 51 58
f 42 57 48
f 48 57 49
f 51 52 58
f 50 60 52
f 49 57 50
f 13 55 54
f 13 56 55
f 13 59 56
f 22 54 55
f 22 55 56
f 22 59 57
f 22 56 59
f 37 61 59
f 37 62 60
f 37 60 61
f 52 62 58
f 52 60 62
f 50 57 61
f 50 61 60
f 57 59 61
f 2 43 4
f 7 43 8
f 3 4 43
f 3 43 7
f 1 43 2
f 1 5 43
f 5 6 43
f 6 14 43
f 8 43 9
f 9 43 10
f 14 17 19
f 14 19 20
f 14 20 21
f 17 18 19
f 14 21 43
f 10 24 23
f 10 25 24
f 10 26 25
f 10 27 26
f 10 28 27
f 10 29 28
f 10 31 30
f 10 30 29
f 10 32 31
f 10 34 33
f 10 33 32
f 10 43 34
f 21 41 43
f 41 47 45
f 41 46 47
f 41 44 43
f 41 45 44

