# https://github.com/mikedh/trimesh
v 0.02819990 -0.01372855 -0.04642234
v 0.02819990 -0.01369748 -0.04645586
v 0.02819990 -0.01414217 -0.04582423
v 0.02819990 -0.01438817 -0.04511115
v 0.02819990 -0.01438817 -0.03900158
v 0.02819990 -0.01373496 -0.03884328
v 0.02819990 -0.00150141 -0.04645586
v 0.02819990 -0.00149598 -0.04564714
v 0.02819990 -0.00148574 -0.04340877
v 0.02819990 -0.00148574 -0.03900118
v 0.02819990 -0.00149070 -0.03884328
v 0.03449990 -0.01214415 -0.04874776
v 0.03449990 -0.01211528 -0.04878951
v 0.03449990 -0.01211311 -0.04879185
v 0.03449990 -0.01216133 -0.04869798
v 0.03449990 -0.01216133 -0.03900158
v 0.03449990 -0.01211573 -0.03899053
v 0.03449990 -0.00150141 -0.04879185
v 0.03449990 -0.00150103 -0.04873540
v 0.03449990 -0.00148574 -0.04539229
v 0.03449990 -0.00148574 -0.03900155
v 0.03449990 -0.00148609 -0.03899053
f 13 1 2
f 12 3 1
f 15 4 3
f 14 2 7
f 16 5 4
f 17 6 5
f 19 7 8
f 20 8 9
f 22 11 6
f 20 9 10
f 21 10 11
f 12 15 3
f 12 1 13
f 13 2 14
f 15 16 4
f 16 17 5
f 17 22 6
f 14 7 18
f 18 7 19
f 19 8 20
f 20 10 21
f 21 11 22
f 13 14 20
f 12 13 20
f 12 20 15
f 15 20 16
f 16 20 17
f 14 18 19
f 14 19 20
f 17 20 22
f 20 21 22
f 2 1 7
f 3 4 7
f 1 3 7
f 4 5 6
f 7 4 6
f 7 9 8
f 7 6 9
f 9 6 10
f 6 11 10

