# https://github.com/mikedh/trimesh
v 0.02480010 -0.01459915 -0.04514489
v 0.02480010 -0.01455248 -0.04519524
v 0.02480010 -0.01522040 -0.04424654
v 0.02480010 -0.01558988 -0.04317552
v 0.02480010 -0.01558988 -0.03900158
v 0.02480010 -0.01460879 -0.03876381
v 0.02480010 -0.00150141 -0.04519524
v 0.02480010 -0.00149325 -0.04398056
v 0.02480010 -0.00148574 -0.04233836
v 0.02480010 -0.00148574 -0.03900098
v 0.02480010 -0.00149319 -0.03876381
v 0.02819990 -0.01414217 -0.04582423
v 0.02819990 -0.01438817 -0.04511115
v 0.02819990 -0.01372855 -0.04642234
v 0.02819990 -0.01369748 -0.04645586
v 0.02819990 -0.01438817 -0.03900158
v 0.02819990 -0.01373496 -0.03884328
v 0.02819990 -0.00150141 -0.04645586
v 0.02819990 -0.00149598 -0.04564714
v 0.02819990 -0.00148574 -0.04340877
v 0.02819990 -0.00148574 -0.03900118
v 0.02819990 -0.00149070 -0.03884328
f 1 2 14
f 1 12 3
f 3 13 4
f 2 7 15
f 4 16 5
f 5 17 6
f 7 8 19
f 8 9 20
f 6 22 11
f 9 10 20
f 10 11 21
f 2 15 14
f 1 14 12
f 3 12 13
f 4 13 16
f 5 16 17
f 6 17 22
f 7 18 15
f 7 19 18
f 8 20 19
f 10 21 20
f 11 22 21
f 1 3 6
f 1 6 2
f 2 6 7
f 3 4 6
f 4 5 6
f 7 9 8
f 6 9 7
f 6 10 9
f 6 11 10
f 12 14 15
f 12 15 13
f 13 15 16
f 15 22 16
f 16 22 17
f 15 18 19
f 15 19 22
f 19 20 22
f 20 21 22

