# https://github.com/mikedh/trimesh
v -0.04094582 0.00587584 -0.03114537
v -0.03919926 0.00587584 -0.03114537
v -0.04056717 0.00587584 -0.03040460
v -0.04056717 0.00698504 -0.03114537
v -0.04050918 0.00696367 -0.03101580
v -0.04037273 0.00727525 -0.03114537
v -0.03925384 0.00884914 -0.03114537
v -0.03940052 0.01024143 -0.03917402
v -0.03796097 0.01024143 -0.03917402
v -0.04039661 0.01024143 -0.03546774
v -0.04033521 0.01178862 -0.03917402
v -0.04015441 0.01178862 -0.03871929
v -0.04006913 0.01178862 -0.03852616
v -0.04017488 0.01192215 -0.03917402
v -0.03972118 0.01225331 -0.03917402
v -0.03948921 0.01228892 -0.03875596
v -0.03885813 0.01271978 -0.03878286
v -0.03829527 0.01302780 -0.03862884
v -0.03847266 0.01304026 -0.03917402
v -0.03799167 0.01333759 -0.03917402
v -0.03777335 0.01333759 -0.03861906
v -0.03764713 0.01353700 -0.03917402
v -0.03783134 0.01323611 -0.03834035
v -0.03769148 0.01249011 -0.03549708
v -0.03725143 0.01300821 -0.03621584
v -0.03757209 0.01262008 -0.03563643
v -0.03678067 0.01333759 -0.03632341
v -0.03665787 0.01333759 -0.03604715
v -0.03654530 0.01339812 -0.03601537
v -0.04034885 0.01024143 -0.03531372
v -0.04035226 0.01024143 -0.03532350
v -0.04033521 0.01024856 -0.03530149
v -0.03979623 0.01061710 -0.03500323
v -0.03902869 0.01123847 -0.03488833
v -0.03798485 0.01095894 -0.03235309
v -0.03857500 0.01024143 -0.03216973
v -0.03730601 0.01078624 -0.03100602
v -0.03828163 0.01190791 -0.03507657
v -0.03654188 0.01059574 -0.02950003
v -0.03550145 0.01301177 -0.03254867
v -0.03481920 0.01286578 -0.03100846
v -0.03423587 0.01273581 -0.02970051
v -0.03875921 0.00587584 -0.02779847
v -0.03876602 0.00659513 -0.02820430
v -0.03670562 0.00587584 -0.02554438
v -0.03673292 0.00638504 -0.02583531
v -0.03803943 0.00855359 -0.02900374
v -0.03523878 0.00450313 -0.02565440
v -0.03523878 0.00450313 -0.02497230
v -0.03523878 0.00450669 -0.02362034
v -0.03500000 0.00450313 -0.02342965
v -0.03427681 0.00587584 -0.02354944
v -0.03429045 0.00633162 -0.02379881
v -0.03650777 0.00708296 -0.02611646
v -0.03611207 0.00831858 -0.02662253
v -0.03554239 0.00829899 -0.02611646
v -0.03373783 0.00823668 -0.02454691
v -0.03422564 0.00450313 -0.02280134
v -0.03476803 0.01036606 -0.02711149
v -0.03255071 0.01024143 -0.02500898
v -0.03267693 0.01253996 -0.02730951
v -0.03132607 0.00450313 -0.02102643
v -0.03135677 0.00461708 -0.02109489
v -0.03132607 0.00645269 -0.02198723
v -0.02798644 0.00450313 -0.01941043
v -0.03077344 0.00831858 -0.02265221
v -0.02713363 0.00450313 -0.02007786
v -0.02713363 0.00450313 -0.01908283
v -0.02971254 0.01024143 -0.02306538
v -0.03160920 0.01246162 -0.02617758
v -0.03068134 0.01239397 -0.02519967
v -0.02811607 0.01228358 -0.02323651
v -0.02488902 0.01221236 -0.02130269
v -0.03743563 0.01365628 -0.03917402
v -0.03718320 0.01379516 -0.03917402
v -0.03367984 0.01548834 -0.03917402
v -0.03314427 0.01525333 -0.03597381
v -0.03227099 0.01504323 -0.03252423
v -0.03246202 0.01399635 -0.02969317
v -0.02824229 0.01441118 -0.04163591
v -0.03135677 0.01659398 -0.04164080
v -0.03107022 0.01659398 -0.04006148
v -0.02977395 0.01718508 -0.04164080
v -0.02909510 0.01702841 -0.03582223
v -0.02674475 0.01441118 -0.04163591
v -0.02663900 0.01659398 -0.04164080
v -0.03170131 0.01496133 -0.03100846
v -0.03119985 0.01488834 -0.02968339
v -0.03035727 0.01536015 -0.02965650
v -0.02838215 0.01698746 -0.03239221
v -0.02795574 0.01696787 -0.03100602
v -0.02750887 0.01694473 -0.02956360
v -0.02502888 0.01864147 -0.04164080
v -0.02493337 0.01864147 -0.03981944
v -0.02450696 0.01870378 -0.03567799
v -0.02394410 0.01877500 -0.03226508
v -0.02363709 0.01878568 -0.03100602
v -0.03082802 0.01399457 -0.02729973
v -0.02898253 0.01464798 -0.02617758
v -0.02987628 0.01474234 -0.02729973
v -0.02886996 0.01536015 -0.02726551
v -0.02818771 0.01456074 -0.02518989
v -0.02598062 0.01432216 -0.02322918
v -0.02699718 0.01535837 -0.02514833
v -0.02455130 0.01535837 -0.02317539
v -0.02643773 0.01684502 -0.02718483
v -0.02555081 0.01670971 -0.02581575
v -0.02507323 0.01663493 -0.02508476
v -0.02252843 0.00450847 -0.01666739
v -0.02246361 0.00481827 -0.01666739
v -0.02216342 0.00587584 -0.01666739
v -0.01796075 0.00450847 -0.01800224
v -0.01796075 0.00450847 -0.01666739
v -0.01796075 0.00587584 -0.01666739
v -0.01916493 0.01219990 -0.01811470
v -0.01980624 0.02008183 -0.04164080
v -0.01948217 0.02023495 -0.03562176
v -0.02325503 0.01879815 -0.02944625
v -0.02156986 0.01947293 -0.03100846
v -0.01853043 0.02036492 -0.02939980
v -0.01431070 0.02135483 -0.04164080
v -0.01049009 0.02201003 -0.04164080
v -0.01408897 0.02152753 -0.03562909
v -0.00854226 0.02233941 -0.04164080
v -0.00609639 0.02110558 -0.04164080
v -0.00609639 0.02256730 -0.04164080
v -0.00609639 0.02262071 -0.03931582
v -0.00841946 0.02248362 -0.03566821
v -0.00609639 0.02269193 -0.03568043
v -0.01359093 0.02158273 -0.03100846
v -0.01341354 0.02160053 -0.02940713
v -0.00609639 0.02116611 -0.03100846
v -0.00811585 0.02247116 -0.03100846
v -0.00609639 0.02265276 -0.03162944
v -0.00664560 0.02260113 -0.03100846
v -0.00609639 0.02264386 -0.03100846
v -0.00801352 0.02246226 -0.02943647
v -0.00673429 0.02256730 -0.02944380
v -0.02326185 0.01628419 -0.02313139
v -0.01994952 0.01806105 -0.02303848
v -0.02315610 0.01402127 -0.02129536
v -0.02143683 0.01535837 -0.02123913
v -0.02089785 0.01577143 -0.02121957
v -0.01764691 0.01381296 -0.01811470
v -0.01692032 0.01444323 -0.01811470
v -0.01564109 0.01536015 -0.01811226
v -0.01545689 0.01549012 -0.01811226
v -0.01502707 0.01576965 -0.01811226
v -0.01806309 0.01740586 -0.02114623
v -0.02242609 0.01872159 -0.02707237
v -0.02136519 0.01849191 -0.02497720
v -0.01789935 0.02028124 -0.02702592
v -0.01744906 0.02014059 -0.02581575
v -0.01711135 0.02003732 -0.02493563
v -0.01604703 0.01957619 -0.02299937
v -0.01292573 0.01693226 -0.01811226
v -0.01102566 0.01782604 -0.01811226
v -0.00673429 0.01757144 -0.01811226
v -0.01297349 0.02149371 -0.02703325
v -0.01242427 0.02124089 -0.02494052
v -0.01168403 0.02078154 -0.02300670
v -0.00775426 0.02233229 -0.02706259
v -0.00673429 0.02244445 -0.02752221
v -0.00673429 0.02241240 -0.02706748
v -0.00743019 0.02207235 -0.02496986
v -0.00673429 0.02213110 -0.02497475
v -0.00700378 0.02163258 -0.02302870
v -0.00673429 0.02165929 -0.02303115
v -0.01461430 0.01887292 -0.02111689
v -0.01068453 0.02009251 -0.02111689
v -0.00862072 0.01874473 -0.01811226
v -0.00831030 0.01885690 -0.01811226
v -0.00673429 0.01991269 -0.01923930
v -0.00673429 0.01930201 -0.01811226
v -0.00673429 0.02132991 -0.02214858
v -0.00673429 0.02092041 -0.02113889
f 2 8 9
f 1 3 5
f 1 5 4
f 3 44 5
f 1 2 48
f 1 4 10
f 1 8 2
f 4 6 30
f 6 7 30
f 4 5 6
f 5 7 6
f 5 44 47
f 5 47 7
f 1 11 8
f 11 30 12
f 12 30 13
f 10 31 11
f 11 31 30
f 13 30 33
f 13 33 34
f 11 12 14
f 12 13 14
f 13 16 14
f 14 16 15
f 15 16 17
f 15 17 19
f 17 18 20
f 17 20 19
f 18 21 20
f 18 23 21
f 20 21 22
f 8 11 81
f 11 14 81
f 14 15 81
f 13 24 16
f 13 34 38
f 13 38 24
f 17 27 18
f 16 26 17
f 17 25 28
f 18 27 23
f 17 28 27
f 16 24 26
f 17 26 25
f 23 27 29
f 27 28 29
f 8 85 9
f 1 10 11
f 4 31 10
f 4 30 31
f 7 36 30
f 30 32 33
f 30 36 32
f 32 35 33
f 33 35 34
f 32 36 35
f 7 39 36
f 7 47 39
f 35 36 37
f 36 39 37
f 34 40 38
f 34 35 40
f 25 26 40
f 24 38 40
f 24 40 26
f 25 40 28
f 35 37 42
f 35 41 40
f 35 42 41
f 37 39 42
f 40 41 88
f 41 42 79
f 2 9 112
f 8 80 85
f 9 85 112
f 1 50 3
f 3 43 44
f 3 50 43
f 1 48 49
f 1 49 50
f 43 46 44
f 43 45 46
f 44 46 54
f 43 50 45
f 44 55 47
f 44 54 55
f 48 51 49
f 49 51 50
f 48 58 51
f 50 51 58
f 50 58 52
f 45 50 53
f 50 52 53
f 45 53 46
f 48 62 58
f 52 64 53
f 54 56 55
f 46 56 54
f 46 53 57
f 46 57 56
f 55 56 60
f 56 57 60
f 53 69 57
f 58 62 63
f 52 58 64
f 58 63 64
f 39 47 59
f 47 55 59
f 55 60 59
f 39 59 61
f 59 60 71
f 39 61 42
f 59 70 61
f 59 71 70
f 42 61 98
f 2 112 48
f 53 66 69
f 48 65 62
f 48 68 65
f 48 67 68
f 62 111 63
f 53 64 66
f 64 73 66
f 48 112 67
f 62 65 109
f 65 68 109
f 67 112 68
f 62 109 110
f 62 110 111
f 63 115 64
f 63 111 115
f 57 72 60
f 57 69 72
f 61 70 102
f 60 72 71
f 70 71 102
f 71 72 103
f 66 73 69
f 64 115 73
f 69 73 72
f 72 141 103
f 72 73 141
f 15 19 81
f 19 20 81
f 20 22 81
f 22 74 81
f 74 75 81
f 8 81 80
f 75 76 81
f 21 23 78
f 21 78 22
f 22 78 74
f 74 78 75
f 23 29 78
f 75 77 76
f 28 78 29
f 28 40 88
f 28 87 78
f 75 92 77
f 75 78 92
f 28 88 87
f 41 79 88
f 80 81 85
f 81 86 85
f 76 82 81
f 81 83 93
f 76 84 82
f 76 77 90
f 81 82 96
f 81 96 83
f 82 84 96
f 78 87 92
f 87 88 89
f 87 89 92
f 77 91 90
f 76 118 84
f 76 90 118
f 77 92 91
f 90 91 118
f 91 92 118
f 83 94 93
f 83 95 94
f 81 93 116
f 83 96 95
f 84 97 96
f 84 118 97
f 42 100 79
f 42 98 100
f 79 100 88
f 61 99 98
f 61 102 99
f 98 99 100
f 88 100 101
f 88 106 89
f 88 101 106
f 99 108 100
f 100 107 101
f 71 103 102
f 99 102 104
f 89 106 92
f 99 104 108
f 102 139 104
f 102 103 105
f 102 105 139
f 100 108 107
f 101 107 106
f 92 106 150
f 104 139 108
f 106 107 151
f 107 108 151
f 103 141 142
f 103 143 105
f 92 150 118
f 85 125 112
f 68 113 109
f 68 112 113
f 109 113 110
f 110 113 111
f 111 113 114
f 111 144 115
f 73 144 141
f 73 115 144
f 111 114 174
f 111 145 144
f 111 146 145
f 111 147 146
f 111 148 147
f 111 156 148
f 111 157 156
f 112 158 113
f 113 158 114
f 81 125 86
f 85 86 125
f 93 94 117
f 81 116 121
f 93 117 116
f 94 95 117
f 81 121 122
f 81 122 124
f 81 124 126
f 116 123 121
f 116 117 123
f 95 96 119
f 95 120 117
f 96 97 119
f 97 118 119
f 95 119 120
f 118 120 119
f 117 130 123
f 117 120 131
f 117 131 130
f 81 126 125
f 121 123 122
f 122 123 124
f 125 126 127
f 124 127 126
f 124 128 127
f 125 127 129
f 123 128 124
f 127 128 129
f 125 129 134
f 123 130 128
f 128 130 131
f 125 132 158
f 128 133 129
f 125 136 132
f 125 134 136
f 129 133 135
f 129 135 134
f 128 131 133
f 131 137 133
f 134 135 136
f 133 137 135
f 135 137 138
f 135 138 136
f 136 138 163
f 106 151 150
f 108 139 140
f 108 140 151
f 103 142 143
f 105 143 139
f 141 145 142
f 142 145 143
f 141 144 145
f 139 143 149
f 139 149 140
f 143 145 146
f 143 146 147
f 143 147 148
f 143 148 149
f 140 149 169
f 148 156 149
f 118 150 152
f 118 152 120
f 150 153 152
f 150 151 154
f 140 155 151
f 150 154 153
f 151 155 154
f 154 155 161
f 120 152 159
f 120 159 131
f 152 153 160
f 153 154 160
f 140 169 155
f 112 125 158
f 111 171 157
f 111 172 171
f 111 174 172
f 114 158 174
f 149 157 169
f 149 156 157
f 152 160 159
f 131 159 162
f 154 161 160
f 159 160 165
f 131 162 137
f 159 165 162
f 132 136 174
f 137 162 138
f 136 163 164
f 138 162 163
f 136 164 166
f 162 164 163
f 162 166 164
f 136 166 168
f 160 161 167
f 160 167 165
f 136 176 173
f 162 165 166
f 136 168 175
f 136 175 176
f 165 168 166
f 165 167 168
f 155 169 170
f 155 170 161
f 169 172 170
f 157 171 169
f 169 171 172
f 132 174 158
f 170 173 176
f 170 172 174
f 170 174 173
f 161 170 176
f 161 175 167
f 161 176 175
f 136 173 174
f 167 175 168

