# https://github.com/mikedh/trimesh
v 0.02819990 0.00349990 -0.02701348
v 0.02858138 0.00349990 -0.02723072
v 0.02858681 0.00349990 -0.02723348
v 0.02819990 0.00686072 -0.02701320
v 0.02819990 0.00349990 -0.01860295
v 0.02819990 0.00438144 -0.01894888
v 0.02819990 0.00478749 -0.01915378
v 0.02936516 0.00349990 -0.01928257
v 0.02819990 0.00594774 -0.01977651
v 0.02819990 0.00606654 -0.01984090
v 0.03002863 0.00349990 -0.01972585
v 0.02819990 0.00696789 -0.02701248
v 0.02819990 0.01023999 -0.02657141
v 0.02819990 0.00781457 -0.02088768
v 0.02819990 0.00926604 -0.02180700
v 0.02819990 0.01023999 -0.02243769
v 0.02900487 0.01023999 -0.02303085
v 0.03089993 0.00696893 -0.02233685
v 0.02983980 0.00905979 -0.02288185
v 0.03007562 0.01023999 -0.02389867
v 0.03449990 0.00349990 -0.02888188
v 0.03449990 0.00635032 -0.02933564
v 0.03345783 0.00679098 -0.02419404
v 0.03449990 0.00596465 -0.02466012
v 0.03449990 0.00680857 -0.02534664
v 0.03261626 0.00349990 -0.02151319
v 0.03296241 0.00349990 -0.02175329
v 0.03350408 0.00349990 -0.02214561
v 0.03449990 0.00349990 -0.02300640
v 0.03437453 0.00349990 -0.02288643
v 0.03449990 0.00433344 -0.02349643
v 0.03390379 0.00349990 -0.02243679
v 0.03398896 0.00481788 -0.02329224
v 0.03449990 0.00482063 -0.02382023
v 0.03227873 0.01023999 -0.02933564
v 0.03135670 0.01023999 -0.02498345
v 0.03231272 0.00894203 -0.02480832
v 0.03218525 0.01023999 -0.02593623
v 0.03449990 0.00826551 -0.02667943
v 0.03449990 0.00737746 -0.02583846
v 0.03449990 0.00740035 -0.02585829
v 0.03449990 0.00745435 -0.02590951
v 0.03312003 0.01023999 -0.02706936
v 0.03408031 0.00900484 -0.02689815
v 0.03449990 0.00868686 -0.02717936
v 0.03449990 0.00907942 -0.02768985
v 0.03388486 0.01023999 -0.02832405
v 0.03449990 0.00981496 -0.02872936
v 0.03449990 0.00961398 -0.02844392
v 0.03446485 0.01023999 -0.02933564
v 0.03449990 0.01019984 -0.02933372
v 0.03449990 0.01020084 -0.02933564
f 2 1 4
f 2 4 35
f 2 35 3
f 8 6 5
f 8 7 6
f 11 9 7
f 8 11 7
f 26 10 9
f 11 26 9
f 27 10 26
f 27 18 10
f 35 4 12
f 35 12 13
f 35 13 16
f 36 38 16
f 20 37 36
f 43 16 38
f 18 19 14
f 18 14 10
f 19 15 14
f 17 16 15
f 17 20 16
f 17 15 19
f 20 36 16
f 17 19 23
f 17 23 20
f 3 22 21
f 3 35 22
f 33 24 23
f 24 25 23
f 27 28 18
f 33 18 28
f 33 32 30
f 31 30 29
f 31 33 30
f 33 28 32
f 31 34 33
f 33 34 24
f 35 16 50
f 47 50 16
f 23 37 20
f 43 47 16
f 36 37 44
f 36 44 38
f 23 41 37
f 41 44 37
f 25 40 23
f 23 40 41
f 42 44 41
f 39 44 42
f 22 35 50
f 22 50 52
f 39 45 44
f 45 46 44
f 46 49 44
f 47 48 50
f 48 51 50
f 51 52 50
f 47 49 48
f 43 44 49
f 43 49 47
f 43 38 44
f 33 19 18
f 33 23 19
f 21 34 31
f 21 31 29
f 21 24 34
f 21 22 42
f 21 40 25
f 21 41 40
f 21 42 41
f 21 25 24
f 22 39 42
f 22 46 45
f 22 49 46
f 22 45 39
f 22 48 49
f 22 51 48
f 22 52 51
f 2 11 1
f 2 3 26
f 8 5 1
f 8 1 11
f 2 26 11
f 3 21 29
f 3 30 32
f 3 29 30
f 3 27 26
f 3 28 27
f 3 32 28
f 4 1 9
f 1 5 6
f 6 7 1
f 1 7 9
f 4 9 10
f 12 4 14
f 12 16 13
f 4 10 14
f 12 14 15
f 12 15 16

