# https://github.com/mikedh/trimesh
v 0.02819990 -0.02005632 -0.02099941
v 0.02819990 -0.01999188 -0.02104175
v 0.02819990 -0.01980070 -0.02110273
v 0.02867648 -0.01993968 -0.02099941
v 0.02819990 -0.02003057 -0.02056280
v 0.02819990 -0.02000095 -0.02041867
v 0.02819990 -0.01932377 -0.02119273
v 0.02819990 -0.01982172 -0.01957698
v 0.02819990 -0.01911303 -0.02121757
v 0.02819990 -0.01850329 -0.02126525
v 0.02941792 -0.01965197 -0.02099941
v 0.02819990 -0.01935766 -0.01832322
v 0.02819990 -0.01919207 -0.01797779
v 0.02819990 -0.01896631 -0.01759276
v 0.02819990 -0.01833106 -0.01685586
v 0.02819990 -0.01828333 -0.01681481
v 0.02819990 -0.01809417 -0.02128474
v 0.02819990 -0.01761491 -0.02130147
v 0.02819990 -0.01706112 -0.02130147
v 0.02819990 -0.01649990 -0.02100209
v 0.02819990 -0.01786275 -0.01651139
v 0.02819990 -0.01737563 -0.01625127
v 0.02819990 -0.01649990 -0.01625127
v 0.03065010 -0.01894764 -0.02099941
v 0.03102349 -0.01864040 -0.02099941
v 0.03178627 -0.01775902 -0.02099941
v 0.03211699 -0.01717577 -0.02099941
v 0.03237304 -0.01649990 -0.02100209
v 0.03239149 -0.01649990 -0.02100076
v 0.03240820 -0.01649990 -0.02099941
v 0.03238636 -0.01649990 -0.02097235
f 4 1 2
f 4 2 3
f 4 5 1
f 4 6 5
f 11 8 6
f 11 3 7
f 4 11 6
f 4 3 11
f 11 12 8
f 24 7 9
f 25 9 10
f 24 13 12
f 24 14 13
f 11 7 24
f 11 24 12
f 24 9 25
f 24 25 14
f 25 15 14
f 26 10 17
f 27 17 18
f 29 18 19
f 28 19 20
f 26 16 15
f 26 21 16
f 27 22 21
f 31 23 22
f 25 10 26
f 26 17 27
f 25 26 15
f 26 27 21
f 27 18 29
f 28 29 19
f 27 31 22
f 27 29 30
f 27 30 31
f 28 20 23
f 28 23 31
f 28 31 29
f 29 31 30
f 5 2 1
f 3 2 5
f 5 23 3
f 5 6 23
f 7 3 23
f 9 7 23
f 8 23 6
f 8 12 23
f 12 13 23
f 15 16 14
f 10 9 23
f 17 10 23
f 18 17 23
f 19 18 23
f 20 19 23
f 14 23 13
f 14 16 23
f 21 23 16
f 22 23 21

