# https://github.com/mikedh/trimesh
v 0.02480010 0.00949990 -0.02436712
v 0.02480010 0.00949990 -0.01945595
v 0.02480010 0.00969362 -0.01957865
v 0.02634043 0.00949990 -0.02058823
v 0.02480010 0.01023999 -0.02426735
v 0.02480010 0.01023999 -0.01993245
v 0.02819990 0.00949990 -0.02667117
v 0.02819990 0.00949990 -0.02195844
v 0.02819990 0.01023999 -0.02657141
v 0.02819990 0.01023999 -0.02243769
f 3 2 4
f 3 4 10
f 5 9 1
f 5 6 9
f 6 3 10
f 9 7 1
f 10 4 8
f 6 10 9
f 5 1 2
f 6 2 3
f 5 2 6
f 10 8 7
f 9 10 7
f 2 1 4
f 1 8 4
f 1 7 8

