# https://github.com/mikedh/trimesh
v 0.14075885 -0.08540028 0.00835555
v 0.14082470 -0.08540028 0.00556315
v 0.14349693 -0.08991820 0.01652762
v 0.14349693 -0.08990682 0.01669247
v 0.14130820 -0.08540028 0.01625455
v 0.15386521 -0.07054351 0.01604565
v 0.15385308 -0.07054351 0.01585312
v 0.15357060 -0.07054351 0.00988829
v 0.15351862 -0.07054351 0.00847258
v 0.15350302 -0.07054351 0.00597088
v 0.14349520 -0.08402519 0.00556315
v 0.14349520 -0.08540028 0.00556315
v 0.14349693 -0.08656675 0.00597088
v 0.14349693 -0.08937006 0.01419202
v 0.14349693 -0.08946489 0.01450914
v 0.14349693 -0.08968111 0.01532459
v 0.14349693 -0.08980440 0.01588709
v 0.14349693 -0.08988785 0.01634641
v 0.14679301 -0.08829653 0.01588332
v 0.14434088 -0.08955593 0.01669750
v 0.14349693 -0.08986889 0.01690892
v 0.14349693 -0.08984612 0.01696680
v 0.14349693 -0.08980250 0.01704608
v 0.14349693 -0.08959008 0.01736194
v 0.14138098 -0.08540028 0.01645841
v 0.15413035 -0.07054351 0.01739340
v 0.15399691 -0.07054351 0.01698065
v 0.15397785 -0.07054351 0.01688878
v 0.15565015 -0.07054351 0.00597088
v 0.14654693 -0.08477248 0.00597088
v 0.14535292 -0.08556720 0.00597088
v 0.14513457 -0.08570755 0.00597088
v 0.14505832 -0.08575307 0.00597088
v 0.14485210 -0.08586497 0.00597088
v 0.15552018 -0.07128512 0.00597088
v 0.15518052 -0.07266591 0.00597088
v 0.15514586 -0.07279868 0.00597088
v 0.15511467 -0.07289731 0.00597088
v 0.15454799 -0.07449811 0.00597088
v 0.15394665 -0.07590925 0.00597088
v 0.15307671 -0.07770162 0.00597088
v 0.15302819 -0.07778318 0.00597088
v 0.15233847 -0.07890412 0.00597088
v 0.15205080 -0.07932519 0.00597088
v 0.15186711 -0.07955848 0.00597088
v 0.15139747 -0.08014455 0.00597088
v 0.15117046 -0.08042527 0.00597088
v 0.15102836 -0.08059597 0.00597088
v 0.14983435 -0.08186486 0.00597088
v 0.14958134 -0.08212850 0.00597088
v 0.14835787 -0.08327410 0.00597088
v 0.14746367 -0.08404794 0.00597088
v 0.14720025 -0.08425848 0.00597088
v 0.14637190 -0.08792667 0.01393405
v 0.14522122 -0.08841602 0.01363707
v 0.14386777 -0.08922971 0.01419328
v 0.14413639 -0.08940041 0.01524531
v 0.14721758 -0.08815238 0.01654524
v 0.14587801 -0.08855069 0.01507542
v 0.14740647 -0.08776166 0.01515470
v 0.14785531 -0.08774839 0.01631118
v 0.14379153 -0.08973612 0.01696303
v 0.14635457 -0.08858673 0.01686739
v 0.14555915 -0.08886933 0.01716186
v 0.14417278 -0.08927522 0.01741354
v 0.14349693 -0.08948575 0.01746891
v 0.14170332 -0.08540028 0.01710523
v 0.15418060 -0.07054351 0.01750037
v 0.15819587 -0.07054351 0.01354143
v 0.15818027 -0.07066301 0.01353514
v 0.15822879 -0.07120356 0.01388497
v 0.14821577 -0.08672039 0.01388875
v 0.15780768 -0.07299025 0.01383967
v 0.15696200 -0.07536490 0.01372516
v 0.15634853 -0.07687656 0.01392021
v 0.15558084 -0.07813786 0.01353388
v 0.15555484 -0.07838253 0.01384596
v 0.15459478 -0.07990178 0.01386484
v 0.15406796 -0.08048217 0.01347977
v 0.15283063 -0.08213229 0.01341056
v 0.15224316 -0.08298770 0.01369747
v 0.15135935 -0.08382414 0.01341685
v 0.15063324 -0.08470610 0.01379059
v 0.14975290 -0.08533010 0.01345460
v 0.14718466 -0.08805945 0.01708006
v 0.14800607 -0.08763458 0.01676672
v 0.14828162 -0.08711869 0.01505655
v 0.14842372 -0.08733301 0.01627594
v 0.14619167 -0.08842741 0.01734181
v 0.14572897 -0.08842361 0.01754567
v 0.14349693 -0.08934160 0.01757210
v 0.14175010 -0.08540028 0.01717947
v 0.15431751 -0.07054351 0.01769668
v 0.15827731 -0.07054351 0.01379814
v 0.15829637 -0.07161704 0.01457835
v 0.15808149 -0.07247814 0.01433045
v 0.15832410 -0.07054351 0.01395796
v 0.15781808 -0.07360667 0.01473440
v 0.15735365 -0.07488124 0.01472181
v 0.15636413 -0.07701881 0.01439211
v 0.15528623 -0.07896292 0.01432416
v 0.15520652 -0.07920570 0.01501376
v 0.15394839 -0.08101514 0.01511569
v 0.15334879 -0.08162018 0.01384471
v 0.15261748 -0.08268233 0.01447517
v 0.15130736 -0.08408398 0.01392650
v 0.14804941 -0.08742026 0.01714676
v 0.14720025 -0.08776166 0.01741605
v 0.14857275 -0.08716041 0.01688123
v 0.14985168 -0.08576825 0.01533843
v 0.14919142 -0.08664072 0.01663459
v 0.14768722 -0.08699160 0.01772940
v 0.14668210 -0.08720024 0.01793829
v 0.14518309 -0.08782236 0.01799366
v 0.14349693 -0.08896227 0.01777470
v 0.14349693 -0.08840275 0.01805155
v 0.14349693 -0.08799875 0.01820130
v 0.14349693 -0.08797030 0.01821011
v 0.14349693 -0.08794564 0.01821514
v 0.14222320 -0.08540028 0.01754567
v 0.15456705 -0.07054351 0.01787915
v 0.15809189 -0.07267919 0.01518868
v 0.15838996 -0.07054351 0.01434178
v 0.15845754 -0.07054351 0.01489044
v 0.15845581 -0.07059472 0.01492567
v 0.15835876 -0.07116374 0.01550831
v 0.15755120 -0.07437483 0.01569078
v 0.15676964 -0.07625255 0.01507542
v 0.15592916 -0.07793681 0.01555865
v 0.15505921 -0.07943140 0.01611109
v 0.15420486 -0.08070598 0.01616520
v 0.15304551 -0.08228402 0.01587954
v 0.15222583 -0.08327599 0.01636151
v 0.15155171 -0.08394932 0.01486275
v 0.14926767 -0.08639984 0.01713291
v 0.14829202 -0.08683798 0.01753812
v 0.14961773 -0.08618361 0.01688878
v 0.14748966 -0.08645864 0.01801505
v 0.14884656 -0.08579860 0.01785524
v 0.14575151 -0.08683608 0.01820130
v 0.14349693 -0.08715663 0.01831204
v 0.14510338 -0.08656485 0.01831204
v 0.14349693 -0.08676591 0.01832336
v 0.14225266 -0.08540028 0.01756329
v 0.15487725 -0.07054351 0.01803896
v 0.15805550 -0.07260711 0.01589464
v 0.15846101 -0.07054351 0.01492190
v 0.15846274 -0.07054351 0.01495210
v 0.15842808 -0.07054351 0.01556494
v 0.15838823 -0.07054351 0.01600916
v 0.15720114 -0.07495522 0.01660187
v 0.15685975 -0.07591873 0.01625077
v 0.15761532 -0.07377927 0.01658173
v 0.15632601 -0.07713261 0.01604691
v 0.15532089 -0.07883205 0.01674658
v 0.15405930 -0.08081219 0.01687116
v 0.15311484 -0.08211332 0.01691898
v 0.15173193 -0.08376344 0.01699449
v 0.15222930 -0.08301615 0.01732419
v 0.14949469 -0.08591808 0.01739844
v 0.14956921 -0.08535856 0.01773820
v 0.15125884 -0.08282268 0.01819878
v 0.15122418 -0.08232006 0.01831707
v 0.15110461 -0.08169605 0.01841774
v 0.14349693 -0.08644536 0.01831707
v 0.15611979 -0.07054351 0.01834224
v 0.14349693 -0.08619310 0.01829945
v 0.14288692 -0.08540028 0.01786153
v 0.15532435 -0.07054351 0.01823905
v 0.15834836 -0.07054351 0.01627091
v 0.15831890 -0.07054351 0.01644331
v 0.15799485 -0.07205897 0.01678811
v 0.15693601 -0.07501781 0.01737075
v 0.15654782 -0.07620134 0.01716941
v 0.15600021 -0.07742660 0.01707251
v 0.15752001 -0.07336768 0.01725372
v 0.15526543 -0.07867463 0.01725246
v 0.15444228 -0.07995299 0.01740347
v 0.15373350 -0.08100945 0.01739466
v 0.15307151 -0.08129775 0.01791816
v 0.15173367 -0.08266905 0.01805406
v 0.15228128 -0.08171691 0.01820256
v 0.15271973 -0.08059787 0.01829819
v 0.15435910 -0.07732797 0.01832966
v 0.15389987 -0.07661102 0.01838754
v 0.15578013 -0.07054351 0.01832588
v 0.15571600 -0.07176498 0.01835105
v 0.15644558 -0.07188637 0.01829568
v 0.15646637 -0.07054351 0.01831581
v 0.14349693 -0.08580428 0.01821514
v 0.15534341 -0.07054351 0.01824408
v 0.15817160 -0.07054351 0.01699323
v 0.15788220 -0.07159238 0.01738711
v 0.15738484 -0.07310974 0.01763879
v 0.15672285 -0.07502918 0.01769668
v 0.15621683 -0.07663758 0.01749282
v 0.15585637 -0.07717814 0.01762243
v 0.15392066 -0.08037026 0.01774324
v 0.15336785 -0.08061304 0.01806665
v 0.15352382 -0.08000989 0.01816858
v 0.15475594 -0.07796336 0.01810943
v 0.15570734 -0.07521506 0.01819123
v 0.15664140 -0.07273609 0.01818116
v 0.15742124 -0.07054351 0.01803141
v 0.15735538 -0.07054351 0.01805406
v 0.15678350 -0.07054351 0.01825038
v 0.15668993 -0.07054351 0.01827806
v 0.15809362 -0.07054351 0.01724239
v 0.15773143 -0.07116753 0.01775205
v 0.15796364 -0.07054351 0.01753057
v 0.15702958 -0.07338855 0.01789928
v 0.15618737 -0.07589787 0.01785272
v 0.15443362 -0.07906913 0.01796220
v 0.15605913 -0.07525679 0.01806161
v 0.15746283 -0.07054351 0.01801002
v 0.15789086 -0.07054351 0.01765012
v 0.15775916 -0.07054351 0.01779357
v 0.15755120 -0.07054351 0.01795213
f 1 2 3
f 1 3 4
f 1 4 5
f 1 5 6
f 1 6 7
f 1 7 8
f 1 8 9
f 1 9 10
f 1 10 2
f 2 10 11
f 2 11 12
f 2 12 13
f 2 13 14
f 2 14 15
f 2 15 16
f 2 16 17
f 2 17 18
f 2 18 3
f 3 18 19
f 3 19 20
f 3 20 4
f 4 20 21
f 4 21 5
f 5 21 22
f 5 22 23
f 5 23 24
f 5 24 25
f 5 25 26
f 5 26 27
f 5 27 28
f 5 28 6
f 6 28 27
f 6 27 26
f 6 26 68
f 6 68 93
f 6 93 121
f 6 121 145
f 6 145 169
f 6 169 191
f 6 191 186
f 6 186 166
f 6 166 189
f 6 189 207
f 6 207 206
f 6 206 205
f 6 205 204
f 6 204 215
f 6 215 218
f 6 218 217
f 6 217 216
f 6 216 210
f 6 210 208
f 6 208 192
f 6 192 171
f 6 171 170
f 6 170 150
f 6 150 149
f 6 149 148
f 6 148 147
f 6 147 124
f 6 124 123
f 6 123 97
f 6 97 94
f 6 94 69
f 6 69 29
f 6 29 10
f 6 10 9
f 6 9 8
f 6 8 7
f 10 29 11
f 11 29 12
f 12 30 31
f 12 31 32
f 12 32 33
f 12 33 34
f 12 34 13
f 12 29 35
f 12 35 36
f 12 36 37
f 12 37 38
f 12 38 39
f 12 39 40
f 12 40 41
f 12 41 42
f 12 42 43
f 12 43 44
f 12 44 45
f 12 45 46
f 12 46 47
f 12 47 48
f 12 48 49
f 12 49 50
f 12 50 51
f 12 51 52
f 12 52 53
f 12 53 30
f 13 34 54
f 13 54 55
f 13 55 56
f 13 56 14
f 14 56 15
f 15 56 57
f 15 57 16
f 16 57 17
f 17 57 18
f 18 57 19
f 19 58 20
f 19 57 59
f 19 59 60
f 19 60 61
f 19 61 58
f 20 62 21
f 20 58 63
f 20 63 62
f 21 62 22
f 22 62 23
f 23 62 64
f 23 64 65
f 23 65 24
f 24 66 25
f 24 65 66
f 25 66 67
f 25 67 68
f 25 68 26
f 29 69 70
f 29 70 71
f 29 71 35
f 30 53 72
f 30 72 60
f 30 60 31
f 31 60 32
f 32 60 54
f 32 54 33
f 33 54 34
f 35 71 73
f 35 73 36
f 36 73 37
f 37 73 38
f 38 73 74
f 38 74 39
f 39 74 40
f 40 74 75
f 40 75 41
f 41 75 76
f 41 76 77
f 41 77 42
f 42 77 43
f 43 77 78
f 43 78 79
f 43 79 44
f 44 79 80
f 44 80 45
f 45 80 46
f 46 80 47
f 47 80 81
f 47 81 48
f 48 81 82
f 48 82 49
f 49 82 50
f 50 82 83
f 50 83 51
f 51 83 84
f 51 84 52
f 52 84 53
f 53 84 72
f 54 60 59
f 54 59 55
f 55 59 56
f 56 59 57
f 58 85 63
f 58 61 86
f 58 86 85
f 60 72 87
f 60 87 61
f 61 87 88
f 61 88 86
f 62 63 64
f 63 85 64
f 64 85 89
f 64 89 65
f 65 89 90
f 65 90 91
f 65 91 66
f 66 91 67
f 67 91 92
f 67 92 68
f 68 92 93
f 69 94 70
f 70 94 71
f 71 95 96
f 71 96 73
f 71 94 97
f 71 97 95
f 72 84 87
f 73 96 98
f 73 98 74
f 74 98 99
f 74 99 75
f 75 99 100
f 75 100 77
f 75 77 76
f 77 101 78
f 77 100 101
f 78 101 102
f 78 102 103
f 78 103 104
f 78 104 79
f 79 104 80
f 80 104 81
f 81 104 105
f 81 105 106
f 81 106 82
f 82 106 83
f 83 106 88
f 83 88 87
f 83 87 84
f 85 86 107
f 85 107 108
f 85 108 89
f 86 88 109
f 86 109 107
f 88 106 110
f 88 110 111
f 88 111 109
f 89 108 90
f 90 108 112
f 90 112 113
f 90 113 114
f 90 114 91
f 91 114 115
f 91 115 92
f 92 115 116
f 92 116 117
f 92 117 118
f 92 118 119
f 92 119 120
f 92 120 93
f 93 120 121
f 95 122 96
f 95 97 123
f 95 123 124
f 95 124 125
f 95 125 126
f 95 126 122
f 96 122 98
f 98 127 99
f 98 122 127
f 99 128 100
f 99 127 128
f 100 128 129
f 100 129 102
f 100 102 101
f 102 130 131
f 102 131 103
f 102 129 130
f 103 131 132
f 103 132 105
f 103 105 104
f 105 132 133
f 105 133 134
f 105 134 106
f 106 134 111
f 106 111 110
f 107 109 135
f 107 135 136
f 107 136 108
f 108 136 112
f 109 111 137
f 109 137 135
f 111 134 137
f 112 138 113
f 112 136 139
f 112 139 138
f 113 138 140
f 113 140 114
f 114 140 118
f 114 118 117
f 114 117 116
f 114 116 115
f 118 140 119
f 119 141 120
f 119 140 142
f 119 142 141
f 120 141 143
f 120 143 144
f 120 144 121
f 121 144 145
f 122 126 146
f 122 146 127
f 124 147 125
f 125 147 148
f 125 148 126
f 126 148 149
f 126 149 150
f 126 150 146
f 127 151 152
f 127 152 128
f 127 146 153
f 127 153 151
f 128 152 154
f 128 154 129
f 129 154 130
f 130 154 155
f 130 155 156
f 130 156 131
f 131 156 157
f 131 157 132
f 132 157 133
f 133 137 134
f 133 157 158
f 133 158 137
f 135 137 159
f 135 159 160
f 135 160 136
f 136 160 161
f 136 161 139
f 137 158 159
f 138 139 162
f 138 162 163
f 138 163 140
f 139 161 162
f 140 163 142
f 141 142 164
f 141 164 143
f 142 163 164
f 143 165 144
f 143 164 166
f 143 166 165
f 144 165 167
f 144 167 168
f 144 168 145
f 145 168 169
f 146 150 170
f 146 170 171
f 146 171 172
f 146 172 153
f 151 153 173
f 151 173 174
f 151 174 152
f 152 174 175
f 152 175 154
f 153 176 173
f 153 172 176
f 154 175 155
f 155 177 178
f 155 178 156
f 155 175 177
f 156 178 179
f 156 179 157
f 157 159 158
f 157 179 159
f 159 179 180
f 159 180 181
f 159 181 160
f 160 181 161
f 161 181 162
f 162 181 182
f 162 182 163
f 163 182 183
f 163 183 164
f 164 183 184
f 164 184 185
f 164 185 166
f 165 166 186
f 165 186 167
f 166 185 187
f 166 187 188
f 166 188 189
f 167 190 168
f 167 186 191
f 167 191 169
f 167 169 190
f 168 190 169
f 171 192 172
f 172 192 193
f 172 193 176
f 173 176 194
f 173 194 195
f 173 195 196
f 173 196 174
f 174 196 175
f 175 196 177
f 176 193 194
f 177 196 197
f 177 197 178
f 178 197 198
f 178 198 179
f 179 198 180
f 180 182 181
f 180 198 199
f 180 199 182
f 182 199 200
f 182 200 183
f 183 200 184
f 184 201 202
f 184 202 203
f 184 203 188
f 184 188 185
f 184 200 201
f 185 188 187
f 188 203 204
f 188 204 205
f 188 205 206
f 188 206 207
f 188 207 189
f 192 208 193
f 193 209 194
f 193 208 210
f 193 210 209
f 194 209 211
f 194 211 195
f 195 211 212
f 195 212 197
f 195 197 196
f 197 212 213
f 197 213 198
f 198 213 199
f 199 213 200
f 200 213 201
f 201 212 214
f 201 214 202
f 201 213 212
f 202 214 203
f 203 215 204
f 203 214 211
f 203 211 215
f 209 210 216
f 209 216 217
f 209 217 218
f 209 218 215
f 209 215 211
f 211 214 212

