# https://github.com/mikedh/trimesh
v 0.11124265 -0.06162226 -0.01123613
v 0.11018674 -0.07590400 -0.01073808
v 0.11124265 -0.07600684 -0.01073808
v 0.11124265 -0.06162226 -0.01464319
v 0.10423229 -0.06162226 -0.01127407
v 0.09911603 -0.07588687 -0.01073808
v 0.09974740 -0.07583926 -0.01073808
v 0.09994334 -0.07583355 -0.01073808
v 0.11124265 -0.08107590 -0.01073808
v 0.11124265 -0.07505472 -0.01445549
v 0.10708433 -0.07248210 -0.01712125
v 0.10721496 -0.07007896 -0.01701960
v 0.10671422 -0.06906210 -0.01722018
v 0.10633321 -0.06794431 -0.01717817
v 0.10573451 -0.06833849 -0.01740043
v 0.10549502 -0.06770819 -0.01727845
v 0.10490720 -0.06761298 -0.01724593
v 0.06068968 -0.06162226 -0.01519478
v 0.09849555 -0.07599160 -0.01073808
v 0.09890920 -0.07591924 -0.01073808
v 0.00003481 -0.06162226 -0.01241993
v 0.11124265 -0.08107590 -0.01348175
v 0.09630753 -0.08107590 -0.01073808
v 0.11124265 -0.07602397 -0.01441484
v 0.10670333 -0.07288770 -0.01728116
v 0.10659447 -0.07107487 -0.01737129
v 0.10783544 -0.08107590 -0.01617055
v 0.10745445 -0.08107590 -0.01639416
v 0.10616994 -0.07000089 -0.01747564
v 0.10589780 -0.06909066 -0.01747293
v 0.10517934 -0.06862412 -0.01750478
v 0.10493985 -0.06803381 -0.01740652
v 0.01027821 -0.06162226 -0.01562371
v 0.04802966 -0.06162226 -0.01532420
v 0.05326565 -0.06162226 -0.01527135
v 0.09809278 -0.07613251 -0.01073808
v 0.00003481 -0.06162226 -0.01564743
v 0.00003481 -0.08107590 -0.01178025
v 0.09796215 -0.07618012 -0.01073808
v 0.10835795 -0.08107590 -0.01576194
v 0.11124265 -0.07783299 -0.01416547
v 0.09634019 -0.07938685 -0.01073808
v 0.11124265 -0.07699323 -0.01433284
v 0.10742179 -0.08107590 -0.01640907
v 0.10692104 -0.08107590 -0.01661845
v 0.10611551 -0.07246877 -0.01753595
v 0.10554945 -0.07182133 -0.01766063
v 0.10556033 -0.06993805 -0.01758270
v 0.10504871 -0.07062166 -0.01764233
v 0.10467860 -0.06875361 -0.01750952
v 0.00331139 -0.06162226 -0.01564607
v 0.00652266 -0.06162226 -0.01564065
v 0.10463506 -0.07213743 -0.01765792
v 0.00003481 -0.06945628 -0.01548954
v 0.09636196 -0.07895840 -0.01073808
v 0.09645993 -0.07833380 -0.01073808
v 0.09659057 -0.07771493 -0.01073808
v 0.09678650 -0.07727696 -0.01073808
v 0.09709130 -0.07677995 -0.01073808
v 0.09747230 -0.07644481 -0.01073808
v 0.09749406 -0.07642767 -0.01073808
v 0.00003481 -0.08107590 -0.01513514
v 0.10633321 -0.08107590 -0.01675330
v 0.10579982 -0.07334472 -0.01750817
v 0.10509225 -0.07303052 -0.01761794
v 0.10484188 -0.08107590 -0.01688882
v 0.10561476 -0.08107590 -0.01684071
v 0.10550591 -0.07712843 -0.01721611
f 1 2 3
f 1 3 9
f 1 9 22
f 1 22 41
f 1 41 43
f 1 43 24
f 1 24 10
f 1 10 4
f 1 4 18
f 1 18 35
f 1 35 34
f 1 34 33
f 1 33 52
f 1 52 51
f 1 51 37
f 1 37 21
f 1 21 5
f 1 5 6
f 1 6 7
f 1 7 8
f 1 8 2
f 2 8 7
f 2 7 6
f 2 6 20
f 2 20 19
f 2 19 36
f 2 36 39
f 2 39 61
f 2 61 60
f 2 60 59
f 2 59 58
f 2 58 57
f 2 57 56
f 2 56 55
f 2 55 42
f 2 42 23
f 2 23 9
f 2 9 3
f 4 10 11
f 4 11 12
f 4 12 13
f 4 13 14
f 4 14 15
f 4 15 16
f 4 16 17
f 4 17 18
f 5 19 20
f 5 20 6
f 5 21 19
f 9 23 38
f 9 38 62
f 9 62 66
f 9 66 67
f 9 67 63
f 9 63 45
f 9 45 44
f 9 44 28
f 9 28 27
f 9 27 40
f 9 40 22
f 10 24 11
f 11 25 26
f 11 26 12
f 11 24 27
f 11 27 28
f 11 28 25
f 12 26 13
f 13 26 29
f 13 29 30
f 13 30 14
f 14 30 15
f 15 30 31
f 15 31 32
f 15 32 16
f 16 32 33
f 16 33 17
f 17 33 34
f 17 34 35
f 17 35 18
f 19 21 36
f 21 37 54
f 21 54 62
f 21 62 38
f 21 38 39
f 21 39 36
f 22 40 41
f 23 42 38
f 24 43 27
f 25 28 44
f 25 44 45
f 25 45 46
f 25 46 26
f 26 46 29
f 27 43 41
f 27 41 40
f 29 46 47
f 29 47 48
f 29 48 30
f 30 48 31
f 31 49 50
f 31 50 37
f 31 37 32
f 31 48 49
f 32 37 51
f 32 51 52
f 32 52 33
f 37 50 49
f 37 49 53
f 37 53 54
f 38 42 55
f 38 55 56
f 38 56 57
f 38 57 58
f 38 58 59
f 38 59 60
f 38 60 61
f 38 61 39
f 45 63 46
f 46 63 64
f 46 64 47
f 47 65 53
f 47 53 49
f 47 49 48
f 47 64 65
f 53 65 62
f 53 62 54
f 62 65 66
f 63 67 68
f 63 68 64
f 64 68 65
f 65 68 66
f 66 68 67

