# https://github.com/mikedh/trimesh
v 0.05953613 0.07684909 -0.01218836
v 0.14294608 0.07684157 -0.01121257
v 0.14637824 0.07684157 -0.01121257
v 0.05953613 0.07684909 -0.01511171
v 0.00041082 0.07684909 -0.01220777
v 0.14358059 0.07604513 -0.01121257
v -0.14826769 0.07681904 -0.01153403
v -0.14826769 0.03633608 -0.01153403
v 0.14637824 0.07357318 -0.01121257
v 0.14637824 0.07684157 -0.01330631
v 0.05846899 0.07684909 -0.01511913
v 0.14459005 0.07684157 -0.01409824
v 0.14430163 0.07684157 -0.01420102
v 0.14369596 0.07684157 -0.01438715
v 0.14306145 0.07684157 -0.01448650
v 0.14231156 0.07684157 -0.01455045
v 0.14205199 0.07684157 -0.01457100
v 0.14150399 0.07684157 -0.01460526
v 0.13988886 0.07684157 -0.01467606
v 0.13962929 0.07684157 -0.01468291
v 0.00041082 0.07684909 -0.01522020
v 0.14415742 0.07539146 -0.01121257
v -0.14826769 0.07681904 -0.01352328
v -0.14826769 0.02898784 -0.01154259
v 0.14637824 0.00010580 -0.01129765
v 0.14551298 0.07414421 -0.01121257
v 0.14490731 0.07466265 -0.01121257
v 0.14637824 0.07525621 -0.01420787
v 0.05255646 0.07684909 -0.01513798
v 0.07805245 0.07684157 -0.01501636
v 0.13786996 0.07387373 -0.01573863
v 0.13769690 0.07343794 -0.01587395
v 0.14637824 0.07496319 -0.01432663
v 0.14637824 0.07460254 -0.01446423
v 0.13821604 0.07373848 -0.01576947
v -0.01242369 0.07681904 -0.01521677
v -0.01504828 0.07681904 -0.01521334
v -0.02906531 0.07681904 -0.01519050
v -0.04388989 0.07681904 -0.01515739
v -0.05836838 0.07681904 -0.01511114
v -0.06223316 0.07681904 -0.01509458
v -0.07596177 0.07681904 -0.01503006
v -0.13975941 0.07681904 -0.01469605
v -0.14074003 0.07681904 -0.01468234
v -0.14258589 0.07681904 -0.01460640
v -0.14362419 0.07681904 -0.01449278
v -0.14720055 0.07681904 -0.01376480
v 0.01168790 0.07684909 -0.01522020
v -0.13779818 0.07286691 -0.01596645
v -0.13811544 0.07356567 -0.01583284
v -0.14826769 0.07678898 -0.01354041
v -0.14826769 0.00574847 -0.01159512
v 0.14637824 0.00010580 -0.01441399
v -0.14826769 0.00438100 -0.01160083
v -0.14826769 0.00009077 -0.01169333
v -0.01343315 0.00009077 -0.01237735
v -0.01178918 0.00009077 -0.01239105
v -0.01049130 0.00009077 -0.01241389
v -0.00876081 0.00009077 -0.01246242
v 0.00041082 0.00009077 -0.01275247
v 0.04404819 0.07684909 -0.01516367
v 0.13712007 0.07313740 -0.01592477
v 0.01595645 0.07684909 -0.01521506
v 0.03029074 0.07684909 -0.01519621
v 0.04032762 0.07684909 -0.01517338
v 0.14637824 0.07358821 -0.01457729
v 0.14637824 0.07303972 -0.01460241
v 0.14637824 0.01722164 -0.01448764
v -0.14714286 0.07675141 -0.01380933
v -0.14826769 0.07441470 -0.01438144
v -0.14826769 0.07545908 -0.01409196
v -0.14826769 0.07553422 -0.01406627
v -0.13710598 0.07268659 -0.01598815
v -0.14826769 0.00012083 -0.01502949
v -0.14826769 0.03712500 -0.01499523
v -0.14826769 0.04470616 -0.01497125
v -0.14826769 0.07098853 -0.01464409
v -0.14826769 0.07255134 -0.01459441
v -0.14826769 0.07308481 -0.01456358
v -0.14826769 0.07403151 -0.01443454
v 0.03949121 0.00009829 -0.01703473
v 0.03937584 0.00009829 -0.01704044
v 0.13593756 0.07240107 -0.01595161
v 0.00041082 0.00009077 -0.01570323
v -0.14826769 0.00009077 -0.01502892
v -0.00359816 0.03927388 -0.01686572
v -0.00700147 0.03855258 -0.01687772
v -0.08299913 0.04412762 -0.01650944
v -0.03947713 0.00009077 -0.01700790
v 0.13114986 0.06994415 -0.01601156
v 0.03934700 0.00120277 -0.01704501
v 0.02348412 0.03150488 -0.01691083
v 0.02558955 0.02987444 -0.01692453
v 0.02674322 0.02875492 -0.01693424
v 0.03499192 0.01891970 -0.01700219
v 0.03504960 0.01837121 -0.01700504
v -0.03160337 0.02363820 -0.01691882
v -0.06162748 0.03250418 -0.01670471
v -0.03947713 0.00223964 -0.01699762
v 0.03776071 0.01108308 -0.01703016
v 0.06541982 0.03502122 -0.01669615
f 1 2 3
f 1 3 10
f 1 10 4
f 1 4 11
f 1 11 29
f 1 29 61
f 1 61 65
f 1 65 64
f 1 64 63
f 1 63 48
f 1 48 21
f 1 21 5
f 1 5 2
f 2 6 22
f 2 22 27
f 2 27 26
f 2 26 9
f 2 9 3
f 2 5 7
f 2 7 8
f 2 8 6
f 3 9 25
f 3 25 53
f 3 53 68
f 3 68 67
f 3 67 66
f 3 66 34
f 3 34 33
f 3 33 28
f 3 28 10
f 4 10 12
f 4 12 13
f 4 13 14
f 4 14 15
f 4 15 16
f 4 16 17
f 4 17 18
f 4 18 19
f 4 19 20
f 4 20 11
f 5 21 23
f 5 23 7
f 6 8 22
f 7 23 51
f 7 51 72
f 7 72 71
f 7 71 70
f 7 70 80
f 7 80 79
f 7 79 78
f 7 78 77
f 7 77 76
f 7 76 75
f 7 75 74
f 7 74 85
f 7 85 55
f 7 55 54
f 7 54 52
f 7 52 24
f 7 24 8
f 8 24 25
f 8 25 26
f 8 26 27
f 8 27 22
f 9 26 25
f 10 28 12
f 11 20 30
f 11 30 31
f 11 31 32
f 11 32 29
f 12 28 13
f 13 28 14
f 14 28 33
f 14 33 34
f 14 34 15
f 15 34 35
f 15 35 16
f 16 35 17
f 17 35 18
f 18 35 19
f 19 35 31
f 19 31 20
f 20 31 30
f 21 36 37
f 21 37 38
f 21 38 39
f 21 39 40
f 21 40 41
f 21 41 42
f 21 42 43
f 21 43 44
f 21 44 45
f 21 45 46
f 21 46 47
f 21 47 23
f 21 48 32
f 21 32 49
f 21 49 50
f 21 50 36
f 23 47 51
f 24 52 25
f 25 52 54
f 25 54 55
f 25 55 56
f 25 56 57
f 25 57 58
f 25 58 59
f 25 59 60
f 25 60 84
f 25 84 53
f 29 32 61
f 31 35 32
f 32 62 49
f 32 48 63
f 32 63 64
f 32 64 65
f 32 65 61
f 32 35 66
f 32 66 67
f 32 67 68
f 32 68 53
f 32 53 62
f 34 66 35
f 36 50 37
f 37 50 38
f 38 50 39
f 39 50 40
f 40 50 41
f 41 50 42
f 42 50 43
f 43 50 44
f 44 50 45
f 45 50 46
f 46 69 47
f 46 50 70
f 46 70 71
f 46 71 72
f 46 72 69
f 47 69 51
f 49 73 74
f 49 74 75
f 49 75 76
f 49 76 77
f 49 77 78
f 49 78 79
f 49 79 50
f 49 62 73
f 50 79 80
f 50 80 70
f 51 69 72
f 53 81 82
f 53 82 83
f 53 83 62
f 53 84 81
f 55 85 89
f 55 89 84
f 55 84 60
f 55 60 59
f 55 59 58
f 55 58 57
f 55 57 56
f 62 83 73
f 73 86 87
f 73 87 88
f 73 88 89
f 73 89 74
f 73 83 86
f 74 89 85
f 81 84 82
f 82 90 83
f 82 84 89
f 82 89 91
f 82 91 90
f 83 90 86
f 86 92 87
f 86 90 92
f 87 92 93
f 87 93 94
f 87 94 95
f 87 95 96
f 87 96 97
f 87 97 88
f 88 97 98
f 88 98 99
f 88 99 89
f 89 99 97
f 89 97 96
f 89 96 100
f 89 100 91
f 90 91 100
f 90 100 101
f 90 101 94
f 90 94 93
f 90 93 92
f 94 101 95
f 95 100 96
f 95 101 100
f 97 99 98

