# https://github.com/mikedh/trimesh
v -0.13932680 -0.06725547 -0.01192218
v -0.14492584 -0.07423703 -0.01147299
v -0.14413559 -0.07494657 -0.01147299
v -0.14406507 -0.07501830 -0.01147299
v -0.14315941 -0.07601322 -0.01147299
v -0.14232268 -0.07711730 -0.01147299
v -0.14159495 -0.07818239 -0.01147299
v -0.14109323 -0.07896210 -0.01147299
v -0.14066525 -0.07975740 -0.01147299
v -0.14024047 -0.08059483 -0.01147299
v -0.13995034 -0.08133399 -0.01147299
v -0.13960090 -0.08242559 -0.01147299
v -0.13938451 -0.08318659 -0.01147299
v -0.13932680 -0.08318659 -0.01154272
v -0.13932680 -0.06725547 -0.01500083
v -0.15315529 -0.06725547 -0.01147299
v -0.14855808 -0.08318659 -0.01147299
v -0.13932680 -0.08318659 -0.01502564
v -0.13932680 -0.07378792 -0.01578323
v -0.14397050 -0.08318659 -0.01828329
v -0.15432382 -0.06725547 -0.01808886
v -0.15569593 -0.06725547 -0.01147299
v -0.14869273 -0.08305404 -0.01493043
v -0.14855167 -0.08318659 -0.01356878
v -0.14892676 -0.08283883 -0.01147299
v -0.13932680 -0.07416842 -0.01580603
v -0.14358419 -0.08318659 -0.01814116
v -0.13932680 -0.07400312 -0.01580267
v -0.14424139 -0.08318659 -0.01832218
v -0.15432703 -0.06847494 -0.01816798
v -0.15448412 -0.06725547 -0.01810026
v -0.15564945 -0.06725547 -0.01376790
v -0.15570234 -0.06760790 -0.01147299
v -0.14871036 -0.08299167 -0.01591061
v -0.14854686 -0.08318659 -0.01494653
v -0.14898927 -0.08277959 -0.01147299
v -0.14977471 -0.08197647 -0.01527035
v -0.14459404 -0.08318659 -0.01831547
v -0.15458671 -0.06932639 -0.01807747
v -0.15466846 -0.06817241 -0.01808954
v -0.15458671 -0.06725547 -0.01807948
v -0.15048962 -0.07822917 -0.01821357
v -0.15142092 -0.07701438 -0.01815859
v -0.15560136 -0.06725547 -0.01601453
v -0.15567189 -0.06794786 -0.01289901
v -0.15564945 -0.06881334 -0.01147299
v -0.14841382 -0.08318659 -0.01626393
v -0.14849236 -0.08318659 -0.01590458
v -0.14959518 -0.08212150 -0.01581072
v -0.14950862 -0.08218700 -0.01606616
v -0.14871998 -0.08285756 -0.01655692
v -0.14974265 -0.08200923 -0.01147299
v -0.14988531 -0.08185640 -0.01147299
v -0.15034054 -0.08134803 -0.01147299
v -0.15063388 -0.08099872 -0.01486071
v -0.15096408 -0.08054960 -0.01571485
v -0.15015621 -0.08145719 -0.01622572
v -0.14506209 -0.08318659 -0.01828463
v -0.14518872 -0.08287315 -0.01830340
v -0.15348869 -0.07336687 -0.01795075
v -0.15441038 -0.07101525 -0.01791120
v -0.15490088 -0.06988778 -0.01771208
v -0.15488646 -0.06885544 -0.01789846
v -0.15469090 -0.06725547 -0.01805467
v -0.15493294 -0.06814278 -0.01790718
v -0.15482394 -0.06763441 -0.01800104
v -0.15057297 -0.07875002 -0.01816664
v -0.15158602 -0.07758357 -0.01803992
v -0.15553083 -0.06725547 -0.01653345
v -0.15560136 -0.06765936 -0.01604269
v -0.15552282 -0.06932015 -0.01581072
v -0.15560938 -0.06925466 -0.01147299
v -0.15551961 -0.06934510 -0.01586167
v -0.14830803 -0.08318659 -0.01662731
v -0.14946214 -0.08209811 -0.01664742
v -0.14872318 -0.08268602 -0.01698398
v -0.15083905 -0.08074609 -0.01147299
v -0.15094645 -0.08061510 -0.01147299
v -0.15115002 -0.08034376 -0.01424860
v -0.15127505 -0.08018002 -0.01507659
v -0.15178478 -0.07947516 -0.01530990
v -0.15140810 -0.07990555 -0.01581072
v -0.15084867 -0.08061042 -0.01619756
v -0.15013696 -0.08125134 -0.01688610
v -0.15084546 -0.08048254 -0.01661658
v -0.14519994 -0.08318659 -0.01826653
v -0.14959998 -0.07990868 -0.01814585
v -0.15343901 -0.07442884 -0.01779924
v -0.15401606 -0.07241562 -0.01787231
v -0.15453861 -0.07195871 -0.01760615
v -0.15409941 -0.07301444 -0.01772549
v -0.15494896 -0.07134741 -0.01721663
v -0.15516055 -0.07059732 -0.01701482
v -0.15524230 -0.06889443 -0.01730781
v -0.15508522 -0.06812563 -0.01772080
v -0.15470853 -0.06725547 -0.01804529
v -0.15506437 -0.06725547 -0.01771878
v -0.15496980 -0.06725547 -0.01782136
v -0.14974746 -0.08029229 -0.01804931
v -0.15070761 -0.07939250 -0.01795210
v -0.15093042 -0.07857848 -0.01808350
v -0.15191942 -0.07805919 -0.01768526
v -0.15224322 -0.07692705 -0.01784416
v -0.15550038 -0.06725547 -0.01674598
v -0.15553404 -0.06814278 -0.01647512
v -0.15543626 -0.07056614 -0.01147299
v -0.15547633 -0.07022150 -0.01291108
v -0.15537695 -0.06985660 -0.01663335
v -0.15527596 -0.07102461 -0.01610504
v -0.14822788 -0.08318659 -0.01679626
v -0.14924895 -0.08212774 -0.01706578
v -0.14875043 -0.08236321 -0.01738289
v -0.14813651 -0.08304001 -0.01721998
v -0.14807240 -0.08318659 -0.01704298
v -0.15111476 -0.08039678 -0.01147299
v -0.15173670 -0.07953909 -0.01147299
v -0.15195309 -0.07923344 -0.01147299
v -0.15212460 -0.07896678 -0.01147299
v -0.15256862 -0.07825568 -0.01526498
v -0.15232497 -0.07858472 -0.01581072
v -0.15212139 -0.07889972 -0.01581072
v -0.15224161 -0.07869232 -0.01599174
v -0.15196271 -0.07887009 -0.01668698
v -0.14968174 -0.08149617 -0.01731116
v -0.15090478 -0.08002251 -0.01732658
v -0.15123979 -0.07975740 -0.01700343
v -0.14530894 -0.08318659 -0.01824239
v -0.14919925 -0.08082562 -0.01802987
v -0.15359288 -0.07463624 -0.01763632
v -0.15427414 -0.07331697 -0.01745731
v -0.15469891 -0.07240470 -0.01723540
v -0.15501148 -0.07180432 -0.01680498
v -0.15538336 -0.06896149 -0.01691828
v -0.15535451 -0.06762973 -0.01722132
v -0.15530482 -0.06725547 -0.01734669
v -0.15520544 -0.06725547 -0.01754246
v -0.14961441 -0.08083654 -0.01787969
v -0.15088233 -0.07949543 -0.01779722
v -0.15159884 -0.07880616 -0.01755587
v -0.15234420 -0.07782996 -0.01731250
v -0.15296614 -0.07652316 -0.01740033
v -0.15547793 -0.06725547 -0.01682978
v -0.15514132 -0.07175910 -0.01581072
v -0.15541382 -0.07067686 -0.01147299
v -0.15513651 -0.07176222 -0.01603733
v -0.14933070 -0.08153516 -0.01761688
v -0.14851320 -0.08230084 -0.01760079
v -0.14789126 -0.08318659 -0.01726222
v -0.14797301 -0.08318659 -0.01718914
v -0.15271128 -0.07800461 -0.01147299
v -0.15295332 -0.07756797 -0.01147299
v -0.15331238 -0.07690054 -0.01550969
v -0.15289241 -0.07761320 -0.01581072
v -0.15307033 -0.07725765 -0.01611309
v -0.15280425 -0.07756641 -0.01656563
v -0.15213422 -0.07841630 -0.01705840
v -0.15054091 -0.08028450 -0.01753374
v -0.15009369 -0.08070866 -0.01762626
v -0.14544199 -0.08318659 -0.01820686
v -0.14674036 -0.08318659 -0.01784751
v -0.14804995 -0.08231020 -0.01779454
v -0.15357205 -0.07541128 -0.01725752
v -0.15431420 -0.07375361 -0.01712411
v -0.15452098 -0.07349007 -0.01681168
v -0.15466686 -0.07333412 -0.01636785
v -0.15535130 -0.06725547 -0.01723339
v -0.15543786 -0.06725547 -0.01697393
v -0.15304629 -0.07682880 -0.01700477
v -0.15500347 -0.07234389 -0.01581072
v -0.15495217 -0.07256532 -0.01572490
v -0.15519743 -0.07170452 -0.01147299
v -0.15491531 -0.07266669 -0.01581072
v -0.14723246 -0.08318659 -0.01764034
v -0.14765243 -0.08318659 -0.01742312
v -0.15324345 -0.07701593 -0.01147299
v -0.15319216 -0.07707831 -0.01581072
v -0.15348709 -0.07651068 -0.01147299
v -0.15376280 -0.07592434 -0.01147299
v -0.15406575 -0.07520544 -0.01581072
v -0.15364739 -0.07606780 -0.01631221
v -0.14707697 -0.08318659 -0.01770672
v -0.15396156 -0.07525846 -0.01647780
v -0.15407858 -0.07517113 -0.01581072
v -0.15469250 -0.07338402 -0.01581072
v -0.15497622 -0.07256065 -0.01147299
v -0.15470532 -0.07340586 -0.01553986
v -0.15397599 -0.07541908 -0.01147299
v -0.15432062 -0.07455516 -0.01147299
v -0.15406575 -0.07520388 -0.01581541
v -0.15459953 -0.07374425 -0.01147299
f 1 2 3
f 1 3 4
f 1 4 5
f 1 5 6
f 1 6 7
f 1 7 8
f 1 8 9
f 1 9 10
f 1 10 11
f 1 11 12
f 1 12 13
f 1 13 14
f 1 14 18
f 1 18 26
f 1 26 28
f 1 28 19
f 1 19 15
f 1 15 21
f 1 21 31
f 1 31 41
f 1 41 64
f 1 64 96
f 1 96 98
f 1 98 97
f 1 97 136
f 1 136 135
f 1 135 166
f 1 166 167
f 1 167 142
f 1 142 104
f 1 104 69
f 1 69 44
f 1 44 32
f 1 32 22
f 1 22 16
f 1 16 2
f 2 16 22
f 2 22 33
f 2 33 46
f 2 46 72
f 2 72 106
f 2 106 144
f 2 144 171
f 2 171 185
f 2 185 190
f 2 190 188
f 2 188 187
f 2 187 178
f 2 178 177
f 2 177 175
f 2 175 151
f 2 151 150
f 2 150 118
f 2 118 117
f 2 117 116
f 2 116 115
f 2 115 78
f 2 78 77
f 2 77 54
f 2 54 53
f 2 53 52
f 2 52 36
f 2 36 25
f 2 25 17
f 2 17 13
f 2 13 12
f 2 12 11
f 2 11 10
f 2 10 9
f 2 9 8
f 2 8 7
f 2 7 6
f 2 6 5
f 2 5 4
f 2 4 3
f 13 17 24
f 13 24 35
f 13 35 48
f 13 48 47
f 13 47 74
f 13 74 110
f 13 110 114
f 13 114 149
f 13 149 148
f 13 148 174
f 13 174 173
f 13 173 181
f 13 181 160
f 13 160 159
f 13 159 127
f 13 127 86
f 13 86 58
f 13 58 38
f 13 38 29
f 13 29 20
f 13 20 27
f 13 27 18
f 13 18 14
f 15 19 20
f 15 20 21
f 17 23 24
f 17 25 23
f 18 27 26
f 19 28 20
f 20 29 21
f 20 28 27
f 21 30 31
f 21 29 30
f 22 32 33
f 23 34 35
f 23 35 24
f 23 25 36
f 23 36 37
f 23 37 34
f 26 27 28
f 29 38 30
f 30 39 40
f 30 40 41
f 30 41 31
f 30 38 42
f 30 42 43
f 30 43 39
f 32 44 33
f 33 45 46
f 33 44 45
f 34 47 48
f 34 48 35
f 34 37 49
f 34 49 50
f 34 50 51
f 34 51 47
f 36 52 37
f 37 52 53
f 37 53 54
f 37 54 55
f 37 55 56
f 37 56 57
f 37 57 49
f 38 58 59
f 38 59 42
f 39 43 60
f 39 60 61
f 39 61 62
f 39 62 63
f 39 63 40
f 40 64 41
f 40 63 65
f 40 65 66
f 40 66 64
f 42 59 67
f 42 67 43
f 43 67 68
f 43 68 60
f 44 69 70
f 44 70 45
f 45 70 71
f 45 71 46
f 46 71 73
f 46 73 72
f 47 51 74
f 49 57 50
f 50 57 75
f 50 75 51
f 51 75 76
f 51 76 74
f 54 77 55
f 55 77 78
f 55 78 79
f 55 79 80
f 55 80 56
f 56 80 81
f 56 81 82
f 56 82 83
f 56 83 57
f 57 84 75
f 57 83 85
f 57 85 84
f 58 86 87
f 58 87 67
f 58 67 59
f 60 88 89
f 60 89 61
f 60 68 88
f 61 90 62
f 61 89 91
f 61 91 90
f 62 92 93
f 62 93 94
f 62 94 95
f 62 95 63
f 62 90 92
f 63 95 65
f 64 66 96
f 65 95 97
f 65 97 66
f 66 97 98
f 66 98 96
f 67 87 99
f 67 99 100
f 67 100 101
f 67 101 68
f 68 102 103
f 68 103 88
f 68 101 100
f 68 100 102
f 69 104 70
f 70 104 105
f 70 105 73
f 70 73 71
f 72 73 107
f 72 107 106
f 73 108 109
f 73 109 107
f 73 105 108
f 74 76 110
f 75 111 76
f 75 84 111
f 76 111 112
f 76 112 113
f 76 113 114
f 76 114 110
f 78 115 80
f 78 80 79
f 80 115 116
f 80 116 81
f 81 116 117
f 81 117 118
f 81 118 119
f 81 119 120
f 81 120 121
f 81 121 82
f 82 121 122
f 82 122 83
f 83 123 85
f 83 122 123
f 84 124 111
f 84 85 125
f 84 125 124
f 85 123 126
f 85 126 125
f 86 127 128
f 86 128 99
f 86 99 87
f 88 129 91
f 88 91 89
f 88 103 129
f 90 91 130
f 90 130 131
f 90 131 92
f 91 129 130
f 92 131 132
f 92 132 93
f 93 132 108
f 93 108 133
f 93 133 94
f 94 133 134
f 94 134 95
f 95 134 135
f 95 135 136
f 95 136 97
f 99 128 137
f 99 137 100
f 100 138 102
f 100 137 138
f 102 138 139
f 102 139 140
f 102 140 141
f 102 141 129
f 102 129 103
f 104 142 133
f 104 133 105
f 105 133 108
f 106 107 109
f 106 109 143
f 106 143 144
f 108 132 109
f 109 132 145
f 109 145 143
f 111 124 112
f 112 124 146
f 112 146 147
f 112 147 113
f 113 147 148
f 113 148 149
f 113 149 114
f 118 150 119
f 119 150 151
f 119 151 152
f 119 152 153
f 119 153 120
f 120 153 154
f 120 154 122
f 120 122 121
f 122 154 155
f 122 155 123
f 123 156 126
f 123 155 156
f 124 125 157
f 124 157 158
f 124 158 146
f 125 126 156
f 125 156 139
f 125 139 157
f 127 159 128
f 128 159 160
f 128 160 161
f 128 161 137
f 129 141 162
f 129 162 130
f 130 162 163
f 130 163 131
f 131 163 164
f 131 164 132
f 132 164 165
f 132 165 145
f 133 142 134
f 134 166 135
f 134 142 167
f 134 167 166
f 137 161 147
f 137 147 146
f 137 146 158
f 137 158 138
f 138 158 157
f 138 157 139
f 139 156 140
f 140 168 141
f 140 156 168
f 141 168 162
f 143 145 169
f 143 169 170
f 143 170 171
f 143 171 144
f 145 165 172
f 145 172 169
f 147 161 173
f 147 173 174
f 147 174 148
f 151 175 152
f 152 176 153
f 152 175 177
f 152 177 178
f 152 178 179
f 152 179 180
f 152 180 176
f 153 176 154
f 154 176 180
f 154 180 155
f 155 180 168
f 155 168 156
f 160 181 161
f 161 181 173
f 162 168 182
f 162 182 163
f 163 182 164
f 164 182 165
f 165 182 183
f 165 183 184
f 165 184 172
f 168 180 182
f 169 172 170
f 170 185 171
f 170 172 186
f 170 186 185
f 172 184 186
f 178 187 179
f 179 187 188
f 179 188 183
f 179 183 189
f 179 189 182
f 179 182 180
f 182 189 183
f 183 188 186
f 183 186 184
f 185 186 190
f 186 188 190

