# https://github.com/mikedh/trimesh
v -0.13938162 -0.08318659 -0.01147299
v -0.14855995 -0.08318659 -0.01147299
v -0.13960123 -0.08242559 -0.01147299
v -0.14037556 -0.08139793 0.00044054
v -0.14022978 -0.08178311 -0.00043329
v -0.14001585 -0.08261117 -0.00010213
v -0.13991929 -0.08318659 0.00045167
v -0.14892913 -0.08283883 -0.01147299
v -0.15271746 -0.08318659 0.01313605
v -0.13994959 -0.08133399 -0.01147299
v -0.14076746 -0.08050126 0.00083570
v -0.14040017 -0.08160066 0.00101938
v -0.13998366 -0.08292149 0.00057968
v -0.14060843 -0.08071178 0.00008154
v -0.13993066 -0.08318659 0.00059916
v -0.14898971 -0.08277959 -0.01147299
v -0.15278751 -0.08318659 0.01365923
v -0.15314344 -0.08265015 0.01296908
v -0.15034147 -0.08134803 -0.01147299
v -0.14988710 -0.08185640 -0.01147299
v -0.14974321 -0.08200923 -0.01147299
v -0.14024114 -0.08059483 -0.01147299
v -0.14108741 -0.07997261 0.00115574
v -0.14091135 -0.08061354 0.00157317
v -0.14119722 -0.07950011 0.00033757
v -0.14067659 -0.08137922 0.00167892
v -0.14037556 -0.08208876 0.00142568
v -0.14010862 -0.08313825 0.00140063
v -0.13994769 -0.08318659 0.00068543
v -0.14009536 -0.08318659 0.00138950
v -0.14081668 -0.08022836 -0.00031084
v -0.15281023 -0.08318659 0.01394865
v -0.15353533 -0.08231175 0.01379003
v -0.15389505 -0.08174880 0.01316388
v -0.15084128 -0.08074609 -0.01147299
v -0.14066522 -0.07975740 -0.01147299
v -0.14148310 -0.07946112 0.00157317
v -0.14156829 -0.07900577 0.00091919
v -0.14145848 -0.07978703 0.00194051
v -0.14128620 -0.08029541 0.00206574
v -0.14678979 -0.08318659 0.01562117
v -0.14083940 -0.08129033 0.00198782
v -0.14169135 -0.07864866 0.00025687
v -0.14109498 -0.07896210 -0.01147299
v -0.14043236 -0.08245210 0.00184589
v -0.14026007 -0.08318659 0.00183754
v -0.14010294 -0.08318659 0.00141454
v -0.15279319 -0.08318659 0.01441896
v -0.15436077 -0.08122172 0.01379838
v -0.15318698 -0.08270005 0.01453862
v -0.15391966 -0.08175971 0.01470281
v -0.15195450 -0.07923344 -0.01147299
v -0.15173677 -0.07953909 -0.01147299
v -0.15111391 -0.08039678 -0.01147299
v -0.15094541 -0.08061510 -0.01147299
v -0.14198669 -0.07853326 0.00135889
v -0.14210975 -0.07861123 0.00184867
v -0.15431913 -0.06725547 0.01587441
v -0.14243917 -0.07766778 0.00081901
v -0.15432860 -0.06725547 0.01589667
v -0.15446112 -0.06725547 0.01618053
v -0.14703023 -0.08318659 0.01606921
v -0.14181630 -0.07837264 -0.00108170
v -0.14233505 -0.07761475 -0.00056687
v -0.14159669 -0.07818239 -0.01147299
v -0.15277615 -0.08318659 0.01453027
v -0.15451981 -0.08089891 0.01465829
v -0.15530549 -0.07965761 0.01422138
v -0.15490602 -0.08031881 0.01362862
v -0.15212299 -0.07896678 -0.01147299
v -0.15311693 -0.08263612 0.01506737
v -0.15345771 -0.08197960 0.01559612
v -0.15426233 -0.08089423 0.01553490
v -0.14271180 -0.07760540 0.00159821
v -0.15421878 -0.06725547 0.01554603
v -0.14277049 -0.07709702 0.00010381
v -0.14329869 -0.07658553 0.00085797
v -0.15465044 -0.06725547 0.01641985
v -0.14726688 -0.08318659 0.01636141
v -0.14232368 -0.07711730 -0.01147299
v -0.14315859 -0.07601322 -0.01147299
v -0.15268717 -0.08318659 0.01490875
v -0.15522219 -0.07964825 0.01494493
v -0.15616691 -0.07786894 0.01474734
v -0.15604006 -0.07819019 0.01396535
v -0.15526384 -0.07962330 0.01331972
v -0.15270989 -0.07800461 -0.01147299
v -0.15264362 -0.08318659 0.01505346
v -0.15252436 -0.08318659 0.01532061
v -0.15242591 -0.08318659 0.01551542
v -0.15225741 -0.08318659 0.01581319
v -0.15299766 -0.08214334 0.01604695
v -0.15390451 -0.08112191 0.01595233
v -0.15492875 -0.07967164 0.01578257
v -0.15414116 -0.06725547 0.01493379
v -0.14351263 -0.07626117 0.00046002
v -0.14345773 -0.07623466 -0.00087020
v -0.15478107 -0.06725547 0.01654508
v -0.15487762 -0.06725547 0.01663135
v -0.14729717 -0.08318659 0.01638646
v -0.14406544 -0.07501830 -0.01147299
v -0.15550239 -0.07881084 0.01558499
v -0.15600030 -0.07799526 0.01534566
v -0.15641871 -0.07698630 0.01551542
v -0.15701507 -0.07579334 0.01499223
v -0.15667051 -0.07677734 0.01439948
v -0.15655123 -0.07697695 0.01351174
v -0.15607225 -0.07796563 0.01325850
v -0.15324377 -0.07701593 -0.01147299
v -0.15295412 -0.07756797 -0.01147299
v -0.15189202 -0.08318659 0.01616383
v -0.15301091 -0.08180182 0.01628906
v -0.15380417 -0.08098468 0.01619444
v -0.15474699 -0.07955469 0.01622505
v -0.15561599 -0.07825412 0.01600799
v -0.15388368 -0.06725547 0.00930680
v -0.14404651 -0.07563116 -0.00038042
v -0.14413739 -0.07494657 -0.01147299
v -0.14492686 -0.07423703 -0.01147299
v -0.15507641 -0.06725547 0.01674823
v -0.14760009 -0.08318659 0.01655343
v -0.15604952 -0.07725765 0.01609147
v -0.15641682 -0.07633290 0.01614991
v -0.15710783 -0.07501830 0.01584101
v -0.15727634 -0.07515086 0.01467499
v -0.15744862 -0.07427914 0.01552098
v -0.15728959 -0.07509784 0.01392082
v -0.15710216 -0.07535982 0.01301360
v -0.15431913 -0.07455516 -0.01147299
v -0.15397645 -0.07541908 -0.01147299
v -0.15376252 -0.07592434 -0.01147299
v -0.15348800 -0.07651068 -0.01147299
v -0.15145847 -0.08318659 0.01645603
v -0.15266824 -0.08170826 0.01654230
v -0.15369626 -0.08069775 0.01642542
v -0.15487006 -0.07892156 0.01642264
v -0.15534714 -0.07831494 0.01631689
v -0.15315480 -0.06725547 -0.01147299
v -0.14814534 -0.08318659 0.01675658
v -0.14794844 -0.08318659 0.01668979
v -0.15540205 -0.06725547 0.01684563
v -0.15591132 -0.07692237 0.01644212
v -0.15712867 -0.07450525 0.01614435
v -0.15672541 -0.07520544 0.01630297
v -0.15752435 -0.07365069 0.01592450
v -0.15775722 -0.07362574 0.01430208
v -0.15772124 -0.07353217 0.01522043
v -0.15760197 -0.07401559 0.01338094
v -0.15460122 -0.07374425 -0.01147299
v -0.15099842 -0.08318659 0.01668701
v -0.15284052 -0.08110788 0.01668423
v -0.15361863 -0.08015974 0.01664527
v -0.15467694 -0.07833989 0.01668701
v -0.15542476 -0.07762723 0.01653673
v -0.15569739 -0.06725547 -0.01147299
v -0.15568035 -0.06725547 0.01690408
v -0.15587157 -0.06725547 0.01693469
v -0.14863000 -0.08318659 0.01683172
v -0.15624075 -0.07567015 0.01655343
v -0.15721954 -0.07330761 0.01642820
v -0.15740886 -0.07346511 0.01619722
v -0.15796358 -0.07167801 0.01594398
v -0.15807717 -0.07191972 0.01540410
v -0.15769663 -0.07261523 0.01609426
v -0.15802415 -0.07253569 0.01464159
v -0.15803173 -0.07249671 0.01383734
v -0.15519568 -0.07170452 -0.01147299
v -0.15498554 -0.07252634 -0.01147299
v -0.15497607 -0.07256065 -0.01147299
v -0.15065953 -0.08318659 0.01680667
v -0.15050050 -0.08318659 0.01685398
v -0.15218168 -0.08118585 0.01683729
v -0.15403325 -0.07876405 0.01682059
v -0.15523355 -0.07695044 0.01675102
v -0.15569929 -0.06760790 -0.01147299
v -0.15869436 -0.06725547 0.01384012
v -0.15611390 -0.06725547 0.01695695
v -0.14930588 -0.08318659 0.01689573
v -0.15657395 -0.07396257 0.01668979
v -0.15754896 -0.07209905 0.01641707
v -0.15728391 -0.07178873 0.01665918
v -0.15791814 -0.07086399 0.01626123
v -0.15820022 -0.06974432 0.01602747
v -0.15828921 -0.07005308 0.01569352
v -0.15843688 -0.07025581 0.01492266
v -0.15831382 -0.07120706 0.01451636
v -0.15846338 -0.07034938 0.01392917
v -0.15817561 -0.07161095 0.01331137
v -0.15541152 -0.07067686 -0.01147299
v -0.15022598 -0.08318659 0.01688181
v -0.15362810 -0.07875938 0.01691521
v -0.15497039 -0.07613798 0.01691242
v -0.15669322 -0.07293023 0.01677606
v -0.15569739 -0.06766404 -0.01147299
v -0.15867732 -0.06824883 0.01399318
v -0.15871139 -0.06725547 0.01400431
v -0.15649254 -0.06725547 0.01694582
v -0.15657206 -0.06743013 0.01694304
v -0.15529224 -0.07452085 0.01694582
v -0.15355427 -0.07760072 0.01694860
v -0.14977919 -0.08318659 0.01691242
v -0.15776857 -0.07025269 0.01650891
v -0.15707566 -0.07106359 0.01678720
v -0.15751867 -0.06943711 0.01668979
v -0.15812260 -0.06934822 0.01620836
v -0.15841984 -0.06725547 0.01589389
v -0.15845202 -0.06725547 0.01583267
v -0.15851260 -0.06725547 0.01567961
v -0.15847664 -0.06871665 0.01550150
v -0.15861863 -0.06828469 0.01490596
v -0.15855805 -0.06912834 0.01342825
v -0.15561220 -0.06925466 -0.01147299
v -0.15543423 -0.07056614 -0.01147299
v -0.15000448 -0.08318659 0.01690408
v -0.15330436 -0.07876405 0.01694582
v -0.15638842 -0.07128347 0.01690964
v -0.15564816 -0.06881334 -0.01147299
v -0.15872276 -0.06725547 0.01434939
v -0.15657206 -0.06725547 0.01694304
v -0.15661560 -0.06725547 0.01693469
v -0.15706051 -0.06725547 0.01684842
v -0.15796358 -0.06886480 0.01639759
v -0.15771556 -0.06762973 0.01662300
v -0.15749595 -0.06725547 0.01674823
v -0.15752814 -0.06725547 0.01673154
v -0.15827974 -0.06725547 0.01613043
v -0.15808284 -0.06725547 0.01634193
v -0.15857319 -0.06725547 0.01540410
v -0.15865082 -0.06725547 0.01502285
v -0.15869814 -0.06725547 0.01471116
v -0.15774775 -0.06725547 0.01660631
f 1 2 8
f 1 8 16
f 1 16 21
f 1 21 20
f 1 20 19
f 1 19 35
f 1 35 55
f 1 55 54
f 1 54 53
f 1 53 52
f 1 52 70
f 1 70 87
f 1 87 110
f 1 110 109
f 1 109 132
f 1 132 131
f 1 131 130
f 1 130 129
f 1 129 149
f 1 149 169
f 1 169 168
f 1 168 167
f 1 167 189
f 1 189 213
f 1 213 212
f 1 212 217
f 1 217 194
f 1 194 175
f 1 175 155
f 1 155 138
f 1 138 119
f 1 119 118
f 1 118 101
f 1 101 81
f 1 81 80
f 1 80 65
f 1 65 44
f 1 44 36
f 1 36 22
f 1 22 10
f 1 10 3
f 1 3 4
f 1 4 5
f 1 5 6
f 1 6 7
f 1 7 15
f 1 15 29
f 1 29 30
f 1 30 47
f 1 47 46
f 1 46 41
f 1 41 62
f 1 62 79
f 1 79 100
f 1 100 121
f 1 121 140
f 1 140 139
f 1 139 158
f 1 158 178
f 1 178 201
f 1 201 214
f 1 214 190
f 1 190 171
f 1 171 170
f 1 170 150
f 1 150 133
f 1 133 111
f 1 111 91
f 1 91 90
f 1 90 89
f 1 89 88
f 1 88 82
f 1 82 66
f 1 66 48
f 1 48 32
f 1 32 17
f 1 17 9
f 1 9 2
f 2 9 8
f 3 10 4
f 4 11 12
f 4 12 13
f 4 13 6
f 4 6 5
f 4 10 14
f 4 14 11
f 6 13 7
f 7 13 15
f 8 9 16
f 9 17 18
f 9 18 19
f 9 19 20
f 9 20 21
f 9 21 16
f 10 22 14
f 11 23 24
f 11 24 12
f 11 14 25
f 11 25 23
f 12 24 26
f 12 26 27
f 12 27 28
f 12 28 13
f 13 29 15
f 13 28 30
f 13 30 29
f 14 31 25
f 14 22 31
f 17 32 33
f 17 33 18
f 18 33 34
f 18 34 35
f 18 35 19
f 22 36 25
f 22 25 31
f 23 37 24
f 23 25 38
f 23 38 37
f 24 37 39
f 24 39 40
f 24 40 41
f 24 41 42
f 24 42 26
f 25 43 38
f 25 36 44
f 25 44 43
f 26 42 45
f 26 45 27
f 27 45 28
f 28 45 46
f 28 46 47
f 28 47 30
f 32 48 33
f 33 49 34
f 33 48 50
f 33 50 51
f 33 51 49
f 34 49 52
f 34 52 53
f 34 53 54
f 34 54 55
f 34 55 35
f 37 38 56
f 37 56 57
f 37 57 58
f 37 58 39
f 38 59 56
f 38 43 59
f 39 58 60
f 39 60 61
f 39 61 41
f 39 41 40
f 41 61 62
f 41 46 45
f 41 45 42
f 43 44 63
f 43 63 64
f 43 64 59
f 44 65 63
f 48 66 50
f 49 51 67
f 49 67 68
f 49 68 69
f 49 69 70
f 49 70 52
f 50 66 71
f 50 71 51
f 51 71 72
f 51 72 73
f 51 73 67
f 56 59 74
f 56 74 75
f 56 75 58
f 56 58 57
f 58 75 95
f 58 95 116
f 58 116 138
f 58 138 155
f 58 155 176
f 58 176 196
f 58 196 218
f 58 218 230
f 58 230 229
f 58 229 228
f 58 228 208
f 58 208 207
f 58 207 206
f 58 206 226
f 58 226 227
f 58 227 231
f 58 231 225
f 58 225 224
f 58 224 221
f 58 221 220
f 58 220 219
f 58 219 197
f 58 197 177
f 58 177 157
f 58 157 156
f 58 156 141
f 58 141 120
f 58 120 99
f 58 99 98
f 58 98 78
f 58 78 61
f 58 61 60
f 59 64 76
f 59 76 77
f 59 77 75
f 59 75 74
f 61 78 62
f 62 78 79
f 63 65 64
f 64 65 80
f 64 80 81
f 64 81 76
f 66 82 71
f 67 73 83
f 67 83 68
f 68 83 84
f 68 84 85
f 68 85 86
f 68 86 69
f 69 86 87
f 69 87 70
f 71 88 72
f 71 82 88
f 72 88 89
f 72 89 90
f 72 90 91
f 72 91 92
f 72 92 93
f 72 93 73
f 73 93 94
f 73 94 83
f 75 77 96
f 75 96 95
f 76 81 97
f 76 97 96
f 76 96 77
f 78 98 79
f 79 98 99
f 79 99 100
f 81 101 97
f 83 94 102
f 83 102 103
f 83 103 84
f 84 103 104
f 84 104 105
f 84 105 106
f 84 106 85
f 85 107 108
f 85 108 86
f 85 106 107
f 86 108 109
f 86 109 110
f 86 110 87
f 91 111 92
f 92 111 112
f 92 112 113
f 92 113 93
f 93 113 114
f 93 114 94
f 94 114 115
f 94 115 102
f 95 96 117
f 95 117 118
f 95 118 119
f 95 119 116
f 96 97 117
f 97 101 117
f 99 120 100
f 100 120 121
f 101 118 117
f 102 115 103
f 103 115 104
f 104 115 122
f 104 122 123
f 104 123 124
f 104 124 105
f 105 125 106
f 105 124 126
f 105 126 125
f 106 125 127
f 106 127 107
f 107 127 128
f 107 128 129
f 107 129 130
f 107 130 131
f 107 131 108
f 108 131 132
f 108 132 109
f 111 133 112
f 112 133 134
f 112 134 135
f 112 135 113
f 113 135 114
f 114 135 136
f 114 136 137
f 114 137 115
f 115 137 122
f 116 119 138
f 120 139 140
f 120 140 121
f 120 141 139
f 122 137 142
f 122 142 123
f 123 143 124
f 123 142 144
f 123 144 143
f 124 143 145
f 124 145 126
f 125 146 127
f 125 126 147
f 125 147 146
f 126 145 147
f 127 148 128
f 127 146 148
f 128 148 149
f 128 149 129
f 133 150 134
f 134 150 151
f 134 151 135
f 135 151 152
f 135 152 136
f 136 152 153
f 136 153 154
f 136 154 137
f 137 154 142
f 139 141 156
f 139 156 157
f 139 157 158
f 142 154 159
f 142 159 144
f 143 144 160
f 143 160 161
f 143 161 145
f 144 159 160
f 145 162 163
f 145 163 147
f 145 161 164
f 145 164 162
f 146 147 165
f 146 165 166
f 146 166 148
f 147 163 165
f 148 166 167
f 148 167 168
f 148 168 169
f 148 169 149
f 150 170 151
f 151 170 171
f 151 171 172
f 151 172 173
f 151 173 152
f 152 173 153
f 153 173 174
f 153 174 154
f 154 174 159
f 155 175 176
f 157 177 178
f 157 178 158
f 159 174 179
f 159 179 160
f 160 180 161
f 160 179 181
f 160 181 180
f 161 180 164
f 162 164 182
f 162 182 183
f 162 183 184
f 162 184 163
f 163 184 185
f 163 185 186
f 163 186 165
f 164 180 182
f 165 186 166
f 166 187 188
f 166 188 167
f 166 186 187
f 167 188 189
f 171 190 191
f 171 191 172
f 172 191 173
f 173 191 192
f 173 192 174
f 174 192 193
f 174 193 179
f 175 194 176
f 176 195 196
f 176 194 195
f 177 197 198
f 177 198 199
f 177 199 200
f 177 200 201
f 177 201 178
f 179 193 181
f 180 181 202
f 180 202 182
f 181 193 203
f 181 203 204
f 181 204 202
f 182 202 205
f 182 205 183
f 183 206 207
f 183 207 208
f 183 208 209
f 183 209 184
f 183 205 206
f 184 209 185
f 185 210 195
f 185 195 187
f 185 187 186
f 185 209 210
f 187 195 211
f 187 211 212
f 187 212 213
f 187 213 188
f 188 213 189
f 190 214 191
f 191 214 215
f 191 215 192
f 192 215 199
f 192 199 193
f 193 199 216
f 193 216 203
f 194 217 195
f 195 210 218
f 195 218 196
f 195 217 211
f 197 219 198
f 198 219 220
f 198 220 221
f 198 221 203
f 198 203 216
f 198 216 199
f 199 215 200
f 200 215 201
f 201 215 214
f 202 222 205
f 202 204 223
f 202 223 222
f 203 224 204
f 203 221 224
f 204 224 225
f 204 225 223
f 205 226 206
f 205 222 227
f 205 227 226
f 208 228 209
f 209 228 229
f 209 229 210
f 210 230 218
f 210 229 230
f 211 217 212
f 222 223 227
f 223 225 231
f 223 231 227

