# https://github.com/mikedh/trimesh
v 0.15869555 0.06973457 0.01355674
v 0.15868958 0.06973457 0.01345720
v 0.15869356 0.07048122 0.01333553
v 0.15867765 0.07090050 0.01391068
v 0.15868163 0.06973457 0.01407936
v 0.15867765 0.06973457 0.01334935
v 0.15558667 0.06973619 -0.01120822
v 0.15862394 0.07095533 0.01293181
v 0.15861400 0.07138107 0.01298711
v 0.15864184 0.07149718 0.01358716
v 0.15849665 0.07207933 0.01405447
v 0.15851455 0.07104242 0.01477895
v 0.15861798 0.06973457 0.01462410
v 0.15867168 0.06973457 0.01425357
v 0.15859411 0.06973457 0.01302030
v 0.15305262 0.06973619 -0.01120822
v 0.15536787 0.07122142 -0.01120822
v 0.15573386 0.06973457 0.00319561
v 0.15848471 0.07212126 0.01315026
v 0.15737681 0.07547069 0.01435864
v 0.15732709 0.07549488 0.01504164
v 0.15808491 0.07292113 0.01501123
v 0.15826790 0.07171649 0.01533475
v 0.15835542 0.06973457 0.01582696
v 0.15851455 0.06973457 0.01520202
v 0.14832066 0.07242121 -0.01120822
v 0.15400736 0.06973457 0.00319561
v 0.15368911 0.06973457 0.00381501
v 0.15351606 0.06973457 0.00628431
v 0.15350015 0.06973457 0.00651382
v 0.15349617 0.06973457 0.00671568
v 0.15508741 0.07239057 -0.01120822
v 0.15706453 0.07619476 0.01384156
v 0.15495215 0.07286468 -0.01120822
v 0.15470751 0.07367745 -0.01120822
v 0.15430970 0.07478533 -0.01120822
v 0.15675225 0.07698818 0.01469876
v 0.15689347 0.07655277 0.01513289
v 0.15681590 0.07648020 0.01560851
v 0.15752201 0.07441442 0.01558915
v 0.15788998 0.07281953 0.01572741
v 0.15798347 0.07115691 0.01628044
v 0.15828780 0.06973457 0.01602605
v 0.15832360 0.06973457 0.01592927
v 0.14632565 0.07361940 -0.01120822
v 0.15356182 0.06973457 0.00797937
v 0.15629676 0.07790415 0.01429781
v 0.15428383 0.07485467 -0.01120822
v 0.15426594 0.07490144 -0.01120822
v 0.15378459 0.07608349 -0.01120822
v 0.15362148 0.07644472 -0.01120822
v 0.15623509 0.07797350 0.01520202
v 0.15609586 0.07798156 0.01567211
v 0.15607001 0.07758646 0.01618366
v 0.15670053 0.07588030 0.01631086
v 0.15728929 0.07457891 0.01601775
v 0.15741460 0.07329042 0.01642700
v 0.15768909 0.07163909 0.01657909
v 0.15801729 0.07005710 0.01645465
v 0.15821022 0.06973457 0.01616707
v 0.14651460 0.07390483 0.00035576
v 0.14559964 0.07411447 -0.01120822
v 0.15421422 0.06973457 0.01453009
v 0.15539969 0.07938454 0.01375307
v 0.15515504 0.07997315 0.01446925
v 0.15547527 0.07938454 0.01468494
v 0.15332312 0.07704301 -0.01120822
v 0.15290344 0.07781868 -0.01120822
v 0.15555087 0.07916200 0.01534858
v 0.15539969 0.07905557 0.01593203
v 0.15525649 0.07892333 0.01632192
v 0.15601033 0.07734779 0.01642976
v 0.15623509 0.07644634 0.01660121
v 0.15672838 0.07515462 0.01659568
v 0.15712022 0.07327590 0.01673394
v 0.15748223 0.07136978 0.01680307
v 0.15775075 0.06997969 0.01675606
v 0.15800535 0.06973457 0.01649060
v 0.15808690 0.06973457 0.01636893
v 0.15776667 0.06973457 0.01675882
v 0.14581048 0.07439346 0.00034470
v 0.14553600 0.07415802 -0.01120822
v 0.15423809 0.06973457 0.01475960
v 0.15430174 0.06973457 0.01530434
v 0.15266674 0.07823474 -0.01120822
v 0.15244396 0.07859758 -0.01120822
v 0.15454440 0.08075528 0.01358163
v 0.15437335 0.08113586 0.01419826
v 0.15386216 0.08183735 0.01487020
v 0.15544346 0.07938293 0.01510801
v 0.15539770 0.07938454 0.01536793
v 0.15480099 0.08015861 0.01569699
v 0.15422616 0.08066819 0.01621961
v 0.15498597 0.07938293 0.01629427
v 0.15409488 0.08057306 0.01647401
v 0.15479701 0.07936358 0.01653761
v 0.15550312 0.07796704 0.01661227
v 0.15534599 0.07749132 0.01681966
v 0.15641809 0.07502400 0.01682519
v 0.15693723 0.07295499 0.01687496
v 0.15769108 0.06973457 0.01680860
v 0.15715403 0.07106499 0.01696068
v 0.15740466 0.06973457 0.01695238
v 0.15751604 0.06973457 0.01690538
v 0.14516006 0.07501755 0.00109407
v 0.14555389 0.07461439 0.00042489
v 0.14507056 0.07497400 0.00001288
v 0.14491342 0.07467406 -0.01120822
v 0.15437732 0.06973457 0.01559192
v 0.14423913 0.07591417 0.00134847
v 0.15149320 0.08000540 -0.01120822
v 0.15357971 0.08212924 0.01387474
v 0.15257127 0.08334838 0.01536517
v 0.15394769 0.08149063 0.01551726
v 0.15298101 0.08294523 0.01464346
v 0.15299095 0.08253723 0.01596798
v 0.15237832 0.08305488 0.01628598
v 0.15193874 0.08332904 0.01649336
v 0.15303272 0.08160836 0.01668693
v 0.15453048 0.07935391 0.01672011
v 0.15302278 0.08072141 0.01689155
v 0.15523858 0.07632216 0.01698280
v 0.15450462 0.07938454 0.01672288
v 0.15341463 0.08071819 0.01680860
v 0.15685767 0.07036511 0.01702981
v 0.15697701 0.06973457 0.01702704
v 0.14458523 0.07547069 0.00075395
v 0.14457329 0.07541103 -0.00025811
v 0.14437638 0.07520622 -0.01120822
v 0.14392486 0.07605124 0.00008754
v 0.15451257 0.06973457 0.01604540
v 0.14347733 0.07687691 0.00173006
v 0.14346539 0.07676563 0.00136506
v 0.14390696 0.07616090 0.00094198
v 0.15121274 0.08037469 -0.01120822
v 0.15218539 0.08378380 0.01400747
v 0.15067769 0.08104232 -0.01120822
v 0.15037336 0.08141323 -0.01120822
v 0.15116102 0.08478524 0.01563063
v 0.15185520 0.08389023 0.01601222
v 0.15117296 0.08493844 0.01456603
v 0.15108942 0.08459656 0.01622791
v 0.15082885 0.08461108 0.01645742
v 0.15120080 0.08392087 0.01662886
v 0.15155287 0.08290653 0.01682519
v 0.14718094 0.08577862 0.01692473
v 0.15581938 0.07354844 0.01702151
v 0.15687955 0.06973457 0.01703534
v 0.14418145 0.07540619 -0.01120822
v 0.14330030 0.07675919 0.00012902
v 0.14360264 0.07605769 -0.01120822
v 0.15460010 0.06973457 0.01620578
v 0.14168121 0.08620758 0.01527392
v 0.14150021 0.08620758 0.01484808
v 0.14277321 0.07769128 0.00148672
v 0.14320681 0.07696076 0.00089221
v 0.15086466 0.08515292 0.01367288
v 0.14989201 0.08193573 -0.01120822
v 0.14988207 0.08620758 0.01483426
v 0.15014462 0.08580604 0.01551726
v 0.14988406 0.08592698 0.01587396
v 0.14989599 0.08620758 0.01472641
v 0.14991589 0.08620758 0.01413466
v 0.14991986 0.08620758 0.01418167
v 0.14994969 0.08569154 0.01620578
v 0.14942657 0.08595117 0.01640488
v 0.14974482 0.08543190 0.01657632
v 0.15006506 0.08489651 0.01668969
v 0.14701187 0.08620758 0.01689708
v 0.15002527 0.08463204 0.01676988
v 0.14779357 0.08620758 0.01681966
v 0.14658820 0.08620758 0.01692197
v 0.14651659 0.08620758 0.01692197
v 0.15621720 0.06974586 0.01703257
v 0.15680794 0.06973457 0.01703534
v 0.14271154 0.07751067 0.00008754
v 0.14256038 0.07736715 -0.01120822
v 0.15463391 0.06973457 0.01625832
v 0.14184829 0.08620758 0.01552555
v 0.13983538 0.08620919 0.00319284
v 0.13973592 0.08620919 0.00302693
v 0.13931026 0.08620919 0.00211719
v 0.13908749 0.08620919 0.00137888
v 0.14140075 0.08620758 0.01450243
v 0.14218046 0.07850566 0.00129316
v 0.14259020 0.07774450 0.00072906
v 0.15007302 0.08599309 0.01379731
v 0.14990792 0.08620758 0.01407936
v 0.14930326 0.08255336 -0.01120822
v 0.14482192 0.08620919 0.00319284
v 0.14985223 0.08620758 0.01496422
v 0.14971300 0.08620758 0.01545919
v 0.14962747 0.08620758 0.01570805
v 0.14956183 0.08620758 0.01585737
v 0.14936890 0.08620758 0.01616431
v 0.14451362 0.08620919 -0.01120822
v 0.14454545 0.08620919 -0.01054181
v 0.14463296 0.08620919 -0.00847899
v 0.14922369 0.08620758 0.01630257
v 0.14910434 0.08620758 0.01638829
v 0.14891340 0.08620758 0.01650166
v 0.14883781 0.08620758 0.01654314
v 0.14852156 0.08620758 0.01666204
v 0.14844598 0.08620758 0.01668416
v 0.14840221 0.08620758 0.01669522
v 0.14585623 0.08620758 0.01689985
v 0.15621720 0.06973457 0.01703257
v 0.14220036 0.07824119 -0.00017515
v 0.14231174 0.07769612 -0.01120822
v 0.15489448 0.06973457 0.01656526
v 0.14190399 0.08620758 0.01560298
v 0.14218842 0.08620758 0.01587949
v 0.14227793 0.08620758 0.01594862
v 0.14268170 0.08620758 0.01616984
v 0.14275132 0.08620758 0.01620025
v 0.14342561 0.08620758 0.01641594
v 0.14430875 0.08620758 0.01666757
v 0.14477220 0.08620758 0.01677541
v 0.14496513 0.08620758 0.01681136
v 0.14526150 0.08620758 0.01684731
v 0.13893433 0.08620919 0.00050232
v 0.14084979 0.08101007 0.00091433
v 0.14125754 0.08016184 0.00116873
v 0.14169513 0.07924102 0.00102494
v 0.14172099 0.07945712 0.00158351
v 0.14197162 0.07865725 0.00057698
v 0.14854940 0.08327743 -0.01120822
v 0.14816154 0.08363221 -0.01120822
v 0.14697009 0.08462558 -0.01120822
v 0.14664986 0.08486265 -0.01120822
v 0.14597159 0.08533837 -0.01120822
v 0.14567920 0.08552705 -0.01120822
v 0.14520383 0.08582377 -0.01120822
v 0.13837541 0.08620919 -0.01120822
v 0.15562246 0.06973457 0.01696621
v 0.14166928 0.07911201 -0.00025257
v 0.14132119 0.07926037 -0.01120822
v 0.14181249 0.07845244 -0.01120822
v 0.15497404 0.06973457 0.01662609
v 0.15521471 0.06973457 0.01678371
v 0.15545738 0.06973457 0.01690261
v 0.13881300 0.08620919 -0.00078072
v 0.14053552 0.08180349 0.00062675
v 0.14101091 0.08045855 0.00013179
v 0.14137490 0.07971513 0.00044702
v 0.14050370 0.08104071 -0.01120822
v 0.14133114 0.07974416 -0.00049868
v 0.14113224 0.07964256 -0.01120822
v 0.14056934 0.08088913 -0.01120822
v 0.14082194 0.08031019 -0.01120822
f 1 2 3
f 1 3 4
f 1 4 5
f 1 5 14
f 1 14 13
f 1 13 25
f 1 25 24
f 1 24 44
f 1 44 43
f 1 43 60
f 1 60 79
f 1 79 78
f 1 78 80
f 1 80 101
f 1 101 104
f 1 104 103
f 1 103 126
f 1 126 148
f 1 148 175
f 1 175 207
f 1 207 235
f 1 235 241
f 1 241 240
f 1 240 239
f 1 239 210
f 1 210 178
f 1 178 152
f 1 152 131
f 1 131 109
f 1 109 84
f 1 84 83
f 1 83 63
f 1 63 46
f 1 46 31
f 1 31 30
f 1 30 29
f 1 29 28
f 1 28 27
f 1 27 18
f 1 18 15
f 1 15 6
f 1 6 2
f 2 6 3
f 3 6 7
f 3 7 8
f 3 8 9
f 3 9 10
f 3 10 4
f 4 11 12
f 4 12 13
f 4 13 14
f 4 14 5
f 4 10 11
f 6 15 7
f 7 16 26
f 7 26 45
f 7 45 62
f 7 62 82
f 7 82 108
f 7 108 129
f 7 129 149
f 7 149 151
f 7 151 177
f 7 177 209
f 7 209 238
f 7 238 237
f 7 237 248
f 7 248 250
f 7 250 249
f 7 249 246
f 7 246 234
f 7 234 196
f 7 196 233
f 7 233 232
f 7 232 231
f 7 231 230
f 7 230 229
f 7 229 228
f 7 228 227
f 7 227 189
f 7 189 158
f 7 158 138
f 7 138 137
f 7 137 135
f 7 135 111
f 7 111 86
f 7 86 85
f 7 85 68
f 7 68 67
f 7 67 51
f 7 51 50
f 7 50 49
f 7 49 48
f 7 48 36
f 7 36 35
f 7 35 34
f 7 34 32
f 7 32 17
f 7 17 9
f 7 9 8
f 7 15 18
f 7 18 27
f 7 27 16
f 9 19 10
f 9 17 19
f 10 19 11
f 11 20 21
f 11 21 22
f 11 22 23
f 11 23 12
f 11 19 20
f 12 23 24
f 12 24 25
f 12 25 13
f 16 27 28
f 16 28 29
f 16 29 30
f 16 30 31
f 16 31 26
f 17 32 19
f 19 33 20
f 19 32 34
f 19 34 35
f 19 35 36
f 19 36 33
f 20 37 21
f 20 33 37
f 21 38 39
f 21 39 40
f 21 40 22
f 21 37 38
f 22 40 41
f 22 41 23
f 23 41 42
f 23 42 43
f 23 43 44
f 23 44 24
f 26 31 45
f 31 46 45
f 33 47 37
f 33 36 48
f 33 48 49
f 33 49 50
f 33 50 51
f 33 51 47
f 37 47 52
f 37 52 38
f 38 52 39
f 39 52 53
f 39 53 54
f 39 54 55
f 39 55 56
f 39 56 40
f 40 56 41
f 41 56 57
f 41 57 42
f 42 57 58
f 42 58 59
f 42 59 43
f 43 59 60
f 45 61 62
f 45 46 61
f 46 63 61
f 47 64 65
f 47 65 66
f 47 66 52
f 47 51 67
f 47 67 68
f 47 68 64
f 52 69 53
f 52 66 69
f 53 70 54
f 53 69 70
f 54 70 71
f 54 71 72
f 54 72 55
f 55 72 73
f 55 73 74
f 55 74 57
f 55 57 56
f 57 74 75
f 57 75 58
f 58 75 76
f 58 76 77
f 58 77 59
f 59 78 79
f 59 79 60
f 59 77 80
f 59 80 78
f 61 81 82
f 61 82 62
f 61 63 83
f 61 83 84
f 61 84 81
f 64 68 85
f 64 85 65
f 65 85 86
f 65 86 87
f 65 87 88
f 65 88 89
f 65 89 90
f 65 90 66
f 66 90 69
f 69 90 89
f 69 89 91
f 69 91 92
f 69 92 70
f 70 92 93
f 70 93 94
f 70 94 71
f 71 94 95
f 71 95 96
f 71 96 97
f 71 97 72
f 72 97 73
f 73 97 98
f 73 98 99
f 73 99 74
f 74 99 75
f 75 99 100
f 75 100 76
f 76 101 77
f 76 100 102
f 76 102 103
f 76 103 104
f 76 104 101
f 77 101 80
f 81 105 106
f 81 106 107
f 81 107 82
f 81 84 105
f 82 107 108
f 84 109 110
f 84 110 105
f 86 111 87
f 87 111 88
f 88 111 112
f 88 112 89
f 89 113 114
f 89 114 91
f 89 112 115
f 89 115 113
f 91 114 92
f 92 114 93
f 93 114 116
f 93 116 117
f 93 117 95
f 93 95 94
f 95 118 119
f 95 119 120
f 95 120 96
f 95 117 118
f 96 120 97
f 97 120 98
f 98 121 122
f 98 122 99
f 98 120 123
f 98 123 124
f 98 124 121
f 99 122 100
f 100 122 102
f 102 122 125
f 102 125 126
f 102 126 103
f 105 110 127
f 105 127 107
f 105 107 106
f 107 127 128
f 107 128 108
f 108 128 130
f 108 130 129
f 109 131 110
f 110 132 133
f 110 133 134
f 110 134 127
f 110 131 132
f 111 135 112
f 112 136 115
f 112 135 137
f 112 137 138
f 112 138 136
f 113 139 140
f 113 140 116
f 113 116 114
f 113 115 141
f 113 141 139
f 115 136 141
f 116 140 117
f 117 140 142
f 117 142 118
f 118 142 143
f 118 143 144
f 118 144 119
f 119 144 145
f 119 145 124
f 119 124 123
f 119 123 120
f 121 124 145
f 121 145 146
f 121 146 122
f 122 147 125
f 122 146 147
f 125 148 126
f 125 147 148
f 127 130 128
f 127 134 130
f 129 130 149
f 130 150 151
f 130 151 149
f 130 134 150
f 131 152 153
f 131 153 154
f 131 154 132
f 132 155 133
f 132 154 155
f 133 155 156
f 133 156 134
f 134 156 150
f 136 157 141
f 136 138 158
f 136 158 157
f 139 141 159
f 139 159 160
f 139 160 161
f 139 161 142
f 139 142 140
f 141 162 159
f 141 157 163
f 141 163 164
f 141 164 162
f 142 161 165
f 142 165 143
f 143 166 167
f 143 167 144
f 143 165 166
f 144 168 145
f 144 167 168
f 145 169 146
f 145 168 170
f 145 170 171
f 145 171 169
f 146 169 172
f 146 172 147
f 147 172 173
f 147 173 174
f 147 174 175
f 147 175 148
f 150 156 176
f 150 176 177
f 150 177 151
f 152 178 153
f 153 179 180
f 153 180 181
f 153 181 182
f 153 182 154
f 153 178 179
f 154 182 183
f 154 183 184
f 154 184 185
f 154 185 155
f 155 185 186
f 155 186 156
f 156 186 176
f 157 187 188
f 157 188 163
f 157 158 189
f 157 189 187
f 159 162 190
f 159 190 191
f 159 191 160
f 160 191 192
f 160 192 193
f 160 193 161
f 161 193 194
f 161 194 195
f 161 195 165
f 162 164 190
f 163 188 196
f 163 196 164
f 164 196 197
f 164 197 198
f 164 198 190
f 165 195 166
f 166 199 200
f 166 200 201
f 166 201 202
f 166 202 167
f 166 195 199
f 167 202 203
f 167 203 168
f 168 203 204
f 168 204 205
f 168 205 170
f 169 171 190
f 169 190 172
f 170 205 171
f 171 205 190
f 172 190 180
f 172 180 173
f 173 180 206
f 173 206 207
f 173 207 174
f 174 207 175
f 176 186 208
f 176 208 209
f 176 209 177
f 178 210 211
f 178 211 179
f 179 211 180
f 180 190 198
f 180 198 197
f 180 197 196
f 180 196 234
f 180 234 242
f 180 242 221
f 180 221 183
f 180 183 182
f 180 182 181
f 180 211 212
f 180 212 213
f 180 213 214
f 180 214 215
f 180 215 216
f 180 216 217
f 180 217 218
f 180 218 219
f 180 219 220
f 180 220 206
f 183 221 222
f 183 222 184
f 184 222 223
f 184 223 224
f 184 224 225
f 184 225 185
f 185 225 224
f 185 224 226
f 185 226 186
f 186 226 208
f 187 189 188
f 188 189 227
f 188 227 228
f 188 228 229
f 188 229 230
f 188 230 231
f 188 231 232
f 188 232 233
f 188 233 196
f 190 205 204
f 190 204 203
f 190 203 202
f 190 202 201
f 190 201 200
f 190 200 199
f 190 199 195
f 190 195 194
f 190 194 193
f 190 193 192
f 190 192 191
f 206 220 207
f 207 220 235
f 208 226 236
f 208 236 237
f 208 237 238
f 208 238 209
f 210 213 212
f 210 212 211
f 210 239 213
f 213 239 240
f 213 240 214
f 214 240 241
f 214 241 215
f 215 241 235
f 215 235 216
f 216 235 217
f 217 235 218
f 218 235 219
f 219 235 220
f 221 242 243
f 221 243 222
f 222 243 244
f 222 244 245
f 222 245 223
f 223 245 224
f 224 245 226
f 226 245 236
f 234 246 244
f 234 244 242
f 236 247 237
f 236 245 247
f 237 247 248
f 242 244 243
f 244 246 249
f 244 249 250
f 244 250 248
f 244 248 247
f 244 247 245

