# https://github.com/mikedh/trimesh
v 0.14349499 -0.06588243 -0.01073792
v 0.14349499 -0.07609853 -0.00912890
v 0.14349499 -0.08540134 -0.01073792
v 0.14059717 -0.06648428 -0.01073792
v 0.14349499 -0.08540134 -0.00912890
v 0.13981117 -0.06696384 -0.01073792
v 0.11491953 -0.08539179 -0.01061569
v 0.11492233 -0.08540134 -0.01061411
v 0.14291598 -0.07684749 -0.00912890
v 0.11491953 -0.08540134 -0.01073792
v 0.13933846 -0.08540134 -0.00912890
v 0.11491953 -0.08470779 -0.01073792
v 0.14087128 -0.08053116 -0.00912890
v 0.14114260 -0.07975354 -0.00912890
v 0.14133001 -0.07936378 -0.00912890
v 0.14161811 -0.07881161 -0.00912890
v 0.14192860 -0.07829383 -0.00912890
v 0.14219432 -0.07788496 -0.00912890
f 1 2 5
f 1 5 3
f 1 3 10
f 1 10 12
f 1 12 6
f 1 6 4
f 1 4 2
f 2 4 6
f 2 6 7
f 2 7 8
f 2 8 9
f 2 9 18
f 2 18 17
f 2 17 16
f 2 16 15
f 2 15 14
f 2 14 13
f 2 13 11
f 2 11 5
f 3 5 11
f 3 11 8
f 3 8 10
f 6 12 7
f 7 12 10
f 7 10 8
f 8 11 13
f 8 13 14
f 8 14 15
f 8 15 16
f 8 16 17
f 8 17 18
f 8 18 9

