# https://github.com/mikedh/trimesh
v 0.11173266 -0.08107873 -0.01073897
v 0.11173266 -0.08751490 -0.01073897
v 0.11173266 -0.08107873 -0.01356999
v 0.09628384 -0.08107873 -0.01073897
v -0.08898504 -0.08651883 -0.01013238
v -0.02194650 -0.08657116 -0.01013238
v 0.00000956 -0.08659078 -0.01013238
v 0.11173266 -0.08765133 -0.01153152
v 0.00000956 -0.08855863 -0.01013238
v 0.10723845 -0.08944445 -0.01073897
v 0.10723845 -0.08944819 -0.01074296
v 0.10667668 -0.09006583 -0.01153232
v 0.10747253 -0.08983970 -0.01186515
v 0.10805771 -0.08967712 -0.01243662
v 0.11173266 -0.08268871 -0.01377990
v 0.10883015 -0.08339605 -0.01618551
v 0.10826837 -0.08365955 -0.01666759
v 0.10840882 -0.08273449 -0.01639223
v 0.10798749 -0.08240745 -0.01655904
v 0.10782364 -0.08107873 -0.01617035
v 0.00000956 -0.08107873 -0.01178134
v -0.12739644 -0.08318862 -0.01186754
v -0.12603881 -0.08678233 -0.01013238
v -0.11611412 -0.08670010 -0.01013238
v -0.08912549 -0.08651883 -0.01013238
v 0.11173266 -0.08771394 -0.01201760
v 0.10780023 -0.08986960 -0.01286123
v -0.00141829 -0.08856705 -0.01013238
v 0.10440617 -0.09012563 -0.01073897
v 0.10485091 -0.09010881 -0.01073897
v 0.10515520 -0.09007518 -0.01073897
v 0.10590424 -0.08990885 -0.01073897
v 0.10618512 -0.08984343 -0.01073897
v 0.10623194 -0.08982942 -0.01073897
v 0.10695757 -0.09015833 -0.01217563
v 0.10618512 -0.08987802 -0.01080202
v 0.10543609 -0.09027887 -0.01121227
v 0.10606809 -0.09037792 -0.01187313
v 0.10702779 -0.09019757 -0.01259465
v 0.11173266 -0.08357173 -0.01388206
v 0.10815134 -0.08688138 -0.01653430
v 0.10768319 -0.08382214 -0.01700201
v 0.10782364 -0.08311013 -0.01686473
v 0.11173266 -0.08407256 -0.01393554
v 0.10897059 -0.08449491 -0.01613762
v 0.10875993 -0.08674028 -0.01616476
v 0.10742572 -0.08240465 -0.01685994
v 0.10744912 -0.08107873 -0.01639383
v 0.00000956 -0.08107873 -0.01513356
v -0.12739644 -0.08318862 -0.01500825
v -0.12739644 -0.08681691 -0.01013238
v 0.11173266 -0.08775972 -0.01265212
v 0.10777683 -0.08988829 -0.01333374
v -0.00256524 -0.08857265 -0.01013238
v 0.10447639 -0.09029476 -0.01103827
v -0.01239631 -0.08859975 -0.01013238
v -0.12685807 -0.08890716 -0.01013238
v -0.12739644 -0.08890716 -0.01013238
v 0.10602128 -0.09047042 -0.01224826
v 0.10503817 -0.09048257 -0.01156505
v 0.10515520 -0.09058816 -0.01200483
v 0.10602128 -0.09049752 -0.01265212
v 0.10686394 -0.09026766 -0.01297776
v 0.10819816 -0.08766254 -0.01637387
v 0.10723845 -0.08754481 -0.01693417
v 0.10744912 -0.08622263 -0.01696131
v 0.10686394 -0.08699445 -0.01717920
v 0.10667668 -0.08449678 -0.01737714
v 0.10695757 -0.08362125 -0.01727099
v 0.10714483 -0.08291858 -0.01709620
v 0.11173266 -0.08527514 -0.01395310
v 0.11173266 -0.08645716 -0.01391000
v 0.11173266 -0.08697015 -0.01381662
v 0.10918126 -0.08744950 -0.01567550
v 0.10691075 -0.08107873 -0.01661731
v 0.10482750 -0.08107873 -0.01688868
v -0.12739644 -0.08745230 -0.01780415
v -0.12657718 -0.08318862 -0.01502182
v -0.11569278 -0.08700846 -0.01802524
v -0.12470459 -0.08691969 -0.01779617
v 0.11173266 -0.08769431 -0.01313420
v 0.10850245 -0.08940801 -0.01387967
v 0.10747253 -0.08998080 -0.01366656
v 0.10407847 -0.09040782 -0.01134715
v 0.10452321 -0.09061993 -0.01226342
v 0.10435936 -0.09056012 -0.01179970
v -0.12739644 -0.08883148 -0.01563639
v -0.12561749 -0.08885577 -0.01672027
v 0.10510839 -0.09062366 -0.01241427
v 0.10557654 -0.09055265 -0.01294744
v 0.10644261 -0.09036110 -0.01326989
v 0.10791726 -0.08819422 -0.01631800
v 0.10733208 -0.08790829 -0.01678572
v 0.10847905 -0.08791857 -0.01607617
v 0.10644261 -0.08783073 -0.01717202
v 0.10611491 -0.08739997 -0.01739470
v 0.10581061 -0.08667582 -0.01758067
v 0.10569358 -0.08549940 -0.01764053
v 0.10571698 -0.08433326 -0.01759344
v 0.10646602 -0.08335027 -0.01734043
v 0.10670009 -0.08247193 -0.01708422
v 0.11173266 -0.08725981 -0.01370328
v 0.10667668 -0.08107873 -0.01667398
v 0.10559994 -0.08107873 -0.01684079
v 0.10595105 -0.08284008 -0.01730611
v 0.10459343 -0.08282700 -0.01737076
v -0.06595224 -0.08726449 -0.01826947
v -0.06656084 -0.08708601 -0.01821839
v -0.11468627 -0.08712339 -0.01807472
v -0.12601540 -0.08740838 -0.01793824
v -0.12739644 -0.08766441 -0.01785842
v -0.12491527 -0.08726916 -0.01794702
v -0.12407260 -0.08717011 -0.01793185
v -0.12451734 -0.08704770 -0.01787918
v 0.11173266 -0.08768403 -0.01318847
v 0.10794067 -0.08958554 -0.01441363
v 0.10698097 -0.09008919 -0.01396746
v -0.12739644 -0.08880158 -0.01617593
v -0.12606222 -0.08883055 -0.01675858
v -0.12531318 -0.08878569 -0.01718160
v -0.12472800 -0.08883241 -0.01694934
v 0.10471047 -0.09061152 -0.01279818
v 0.10599787 -0.09039754 -0.01358835
v 0.10531906 -0.09048537 -0.01352210
v 0.10777683 -0.08859321 -0.01612405
v 0.10723845 -0.08826616 -0.01664524
v 0.10845564 -0.08831195 -0.01587823
v 0.10634898 -0.08825682 -0.01696929
v 0.10569358 -0.08767562 -0.01736517
v 0.10545950 -0.08724766 -0.01752320
v 0.10524883 -0.08682158 -0.01760860
v 0.10541269 -0.08638614 -0.01765410
v 0.10524883 -0.08520973 -0.01768363
v 0.10578720 -0.08343903 -0.01746175
v 0.10473387 -0.08379878 -0.01757428
v 0.10632557 -0.08107873 -0.01675299
v 0.11173266 -0.08755228 -0.01348459
v -0.00588908 -0.08747753 -0.01826149
v -0.06679491 -0.08738876 -0.01828623
v -0.11407767 -0.08744389 -0.01816332
v -0.11992951 -0.08761209 -0.01811623
v -0.12566429 -0.08761769 -0.01795899
v -0.12688148 -0.08762984 -0.01789035
v -0.12112327 -0.08762143 -0.01809068
v -0.12182549 -0.08785223 -0.01810346
v -0.12739644 -0.08787372 -0.01784326
v -0.12657718 -0.08782046 -0.01789514
v 0.10885356 -0.08884830 -0.01480392
v 0.10700438 -0.08991539 -0.01451180
v 0.10751935 -0.08952574 -0.01499388
v 0.10775342 -0.08923794 -0.01533229
v 0.10829178 -0.08899314 -0.01524210
v 0.10599787 -0.09026205 -0.01411193
v -0.12739644 -0.08873430 -0.01661491
v -0.12739644 -0.08864086 -0.01700122
v -0.12505570 -0.08868945 -0.01741545
v -0.12372149 -0.08871935 -0.01742344
v 0.10466365 -0.09037419 -0.01395070
v 0.10468706 -0.09051808 -0.01338721
v 0.10555313 -0.09021440 -0.01440405
v 0.10826837 -0.08861563 -0.01574494
v 0.10756615 -0.08893520 -0.01590696
v 0.10702779 -0.08858013 -0.01651275
v 0.10660646 -0.08885297 -0.01640979
v 0.10588083 -0.08862124 -0.01676257
v 0.10545950 -0.08805779 -0.01717761
v 0.03802304 -0.08784195 -0.01801247
v 0.03806985 -0.08763451 -0.01810346
v 0.10499136 -0.08593389 -0.01767964
v 0.03734422 -0.08749995 -0.01810186
v 0.10883015 -0.08852966 -0.01528121
v -0.00549116 -0.08758685 -0.01825430
v -0.06632676 -0.08755135 -0.01826787
v -0.12102965 -0.08809891 -0.01813139
v -0.00600612 -0.08767375 -0.01824553
v -0.12044446 -0.08785036 -0.01812740
v -0.12739644 -0.08795782 -0.01779617
v 0.10653623 -0.08987614 -0.01489651
v 0.10700438 -0.08935755 -0.01562841
v -0.12739644 -0.08851192 -0.01723827
v -0.12442371 -0.08862778 -0.01756710
v -0.12589837 -0.08854275 -0.01746813
v -0.02665137 -0.08870814 -0.01760461
v -0.02688544 -0.08882681 -0.01740189
v 0.10506158 -0.09015086 -0.01461396
v 0.10606809 -0.08980700 -0.01521497
v 0.10658305 -0.08917160 -0.01606659
v 0.10592765 -0.08905387 -0.01633476
v 0.10517861 -0.08908096 -0.01632678
v 0.04291516 -0.08856517 -0.01739949
v 0.04375783 -0.08850257 -0.01744658
v 0.04640285 -0.08799986 -0.01783528
v 0.03718037 -0.08813628 -0.01780415
v -0.00521027 -0.08787372 -0.01819205
v 0.03762511 -0.08768217 -0.01808510
v -0.00563160 -0.08778308 -0.01822876
v -0.12049128 -0.08824468 -0.01805956
v -0.12521956 -0.08843063 -0.01767086
v -0.12739644 -0.08806340 -0.01770997
v -0.12620266 -0.08828860 -0.01768443
v 0.10604469 -0.08946875 -0.01580001
v -0.12739644 -0.08836801 -0.01740268
v -0.02564485 -0.08860442 -0.01768682
v 0.04345353 -0.08868664 -0.01724146
v 0.10534247 -0.08937156 -0.01598917
v 0.10501476 -0.08976962 -0.01538737
v -0.02594915 -0.08851565 -0.01775227
f 1 2 8
f 1 8 26
f 1 26 52
f 1 52 81
f 1 81 115
f 1 115 137
f 1 137 102
f 1 102 73
f 1 73 72
f 1 72 71
f 1 71 44
f 1 44 40
f 1 40 15
f 1 15 3
f 1 3 20
f 1 20 48
f 1 48 75
f 1 75 103
f 1 103 136
f 1 136 104
f 1 104 76
f 1 76 49
f 1 49 21
f 1 21 4
f 1 4 25
f 1 25 5
f 1 5 6
f 1 6 7
f 1 7 9
f 1 9 2
f 2 9 10
f 2 10 11
f 2 11 12
f 2 12 13
f 2 13 14
f 2 14 8
f 3 15 16
f 3 16 17
f 3 17 18
f 3 18 19
f 3 19 20
f 4 21 22
f 4 22 23
f 4 23 24
f 4 24 25
f 5 25 24
f 5 24 23
f 5 23 51
f 5 51 58
f 5 58 57
f 5 57 56
f 5 56 54
f 5 54 28
f 5 28 9
f 5 9 7
f 5 7 6
f 8 14 27
f 8 27 26
f 9 28 29
f 9 29 30
f 9 30 31
f 9 31 32
f 9 32 33
f 9 33 34
f 9 34 10
f 10 34 11
f 11 34 12
f 12 35 13
f 12 34 36
f 12 36 37
f 12 37 38
f 12 38 35
f 13 35 14
f 14 35 39
f 14 39 27
f 15 40 17
f 15 17 16
f 17 41 42
f 17 42 43
f 17 43 18
f 17 40 44
f 17 44 45
f 17 45 46
f 17 46 41
f 18 43 19
f 19 43 47
f 19 47 48
f 19 48 20
f 21 49 50
f 21 50 22
f 22 50 77
f 22 77 111
f 22 111 146
f 22 146 177
f 22 177 199
f 22 199 202
f 22 202 180
f 22 180 155
f 22 155 154
f 22 154 118
f 22 118 87
f 22 87 58
f 22 58 51
f 22 51 23
f 26 27 52
f 27 53 52
f 27 39 53
f 28 54 29
f 29 55 30
f 29 54 56
f 29 56 57
f 29 57 58
f 29 58 55
f 30 55 37
f 30 37 31
f 31 37 32
f 32 37 33
f 33 36 34
f 33 37 36
f 35 38 59
f 35 59 39
f 37 55 60
f 37 60 38
f 38 60 61
f 38 61 59
f 39 59 62
f 39 62 63
f 39 63 53
f 41 46 64
f 41 64 65
f 41 65 66
f 41 66 42
f 42 66 67
f 42 67 68
f 42 68 69
f 42 69 43
f 43 69 70
f 43 70 47
f 44 71 45
f 45 71 72
f 45 72 46
f 46 72 73
f 46 73 74
f 46 74 64
f 47 70 75
f 47 75 48
f 49 76 50
f 50 76 78
f 50 78 79
f 50 79 80
f 50 80 77
f 52 53 82
f 52 82 81
f 53 63 83
f 53 83 82
f 55 84 60
f 55 58 84
f 58 85 86
f 58 86 84
f 58 87 88
f 58 88 89
f 58 89 85
f 59 61 89
f 59 89 62
f 60 84 86
f 60 86 61
f 61 86 85
f 61 85 89
f 62 89 90
f 62 90 91
f 62 91 63
f 63 91 83
f 64 92 93
f 64 93 65
f 64 74 94
f 64 94 92
f 65 93 95
f 65 95 96
f 65 96 67
f 65 67 66
f 67 96 97
f 67 97 68
f 68 97 98
f 68 98 99
f 68 99 69
f 69 99 100
f 69 100 70
f 70 100 101
f 70 101 75
f 73 102 94
f 73 94 74
f 75 101 103
f 76 104 105
f 76 105 106
f 76 106 107
f 76 107 108
f 76 108 109
f 76 109 79
f 76 79 78
f 77 80 110
f 77 110 111
f 79 109 112
f 79 112 113
f 79 113 114
f 79 114 80
f 80 114 110
f 81 82 115
f 82 83 116
f 82 116 115
f 83 91 117
f 83 117 116
f 87 118 88
f 88 118 119
f 88 119 120
f 88 120 121
f 88 121 122
f 88 122 89
f 89 122 90
f 90 123 91
f 90 122 124
f 90 124 123
f 91 123 117
f 92 125 126
f 92 126 93
f 92 94 127
f 92 127 125
f 93 126 95
f 94 102 127
f 95 126 128
f 95 128 129
f 95 129 96
f 96 129 130
f 96 130 97
f 97 130 131
f 97 131 132
f 97 132 98
f 98 132 133
f 98 133 99
f 99 134 100
f 99 133 135
f 99 135 134
f 100 134 105
f 100 105 101
f 101 105 136
f 101 136 103
f 102 137 127
f 104 136 105
f 105 134 106
f 106 134 135
f 106 135 107
f 107 138 139
f 107 139 140
f 107 140 109
f 107 109 108
f 107 135 138
f 109 140 141
f 109 141 112
f 110 142 143
f 110 143 111
f 110 114 112
f 110 112 144
f 110 144 145
f 110 145 142
f 111 143 147
f 111 147 146
f 112 114 113
f 112 141 144
f 115 116 148
f 115 148 137
f 116 117 149
f 116 149 150
f 116 150 151
f 116 151 152
f 116 152 148
f 117 123 153
f 117 153 149
f 118 154 119
f 119 154 155
f 119 155 120
f 120 155 156
f 120 156 157
f 120 157 158
f 120 158 159
f 120 159 121
f 121 159 122
f 122 159 124
f 123 124 153
f 124 159 158
f 124 158 160
f 124 160 153
f 125 127 161
f 125 161 162
f 125 162 163
f 125 163 126
f 126 163 128
f 127 137 161
f 128 163 164
f 128 164 165
f 128 165 166
f 128 166 129
f 129 166 167
f 129 167 168
f 129 168 130
f 130 168 131
f 131 168 132
f 132 169 133
f 132 168 169
f 133 169 168
f 133 168 170
f 133 170 138
f 133 138 135
f 137 148 152
f 137 152 171
f 137 171 161
f 138 170 168
f 138 168 172
f 138 172 139
f 139 173 174
f 139 174 140
f 139 172 175
f 139 175 173
f 140 176 141
f 140 174 176
f 141 176 145
f 141 145 144
f 142 147 143
f 142 145 174
f 142 174 147
f 145 176 174
f 146 147 174
f 146 174 177
f 149 153 178
f 149 178 150
f 150 178 179
f 150 179 151
f 151 179 162
f 151 162 152
f 152 162 161
f 152 161 171
f 153 160 178
f 155 180 156
f 156 181 157
f 156 180 182
f 156 182 181
f 157 181 183
f 157 183 184
f 157 184 185
f 157 185 158
f 158 185 160
f 160 186 178
f 160 185 186
f 162 179 187
f 162 187 164
f 162 164 163
f 164 187 188
f 164 188 165
f 165 188 189
f 165 189 190
f 165 190 191
f 165 191 192
f 165 192 166
f 166 192 167
f 167 192 193
f 167 193 194
f 167 194 195
f 167 195 168
f 168 195 194
f 168 194 196
f 168 196 175
f 168 175 172
f 173 175 196
f 173 196 174
f 174 196 194
f 174 194 197
f 174 197 198
f 174 198 177
f 177 198 200
f 177 200 199
f 178 186 179
f 179 186 201
f 179 201 187
f 180 202 182
f 181 182 198
f 181 198 197
f 181 197 183
f 182 202 200
f 182 200 198
f 183 203 193
f 183 193 190
f 183 190 204
f 183 204 205
f 183 205 206
f 183 206 184
f 183 197 203
f 184 206 185
f 185 206 186
f 186 206 201
f 187 201 188
f 188 201 205
f 188 205 189
f 189 205 190
f 190 193 191
f 190 205 204
f 191 193 192
f 193 203 194
f 194 203 207
f 194 207 197
f 197 207 203
f 199 200 202
f 201 206 205

