# https://github.com/mikedh/trimesh
v 0.13716496 0.08973727 -0.01653706
v 0.13319994 0.08903636 -0.01121209
v 0.13449157 0.08901151 -0.01121209
v 0.13749538 0.08969749 -0.01633020
v 0.13743530 0.08965111 -0.01676877
v 0.13704480 0.08972235 -0.01683180
v -0.08532681 0.08970247 -0.01711057
v -0.13329756 0.08877622 -0.00934862
v -0.11206067 0.08861052 -0.00934862
v 0.13521248 0.08896512 -0.01121209
v 0.13599347 0.08889553 -0.01121209
v 0.13677446 0.08879610 -0.01121209
v 0.13713491 0.08874308 -0.01121209
v 0.13764556 0.08865858 -0.01121209
v 0.13785583 0.08958648 -0.01610914
v 0.13785583 0.08955003 -0.01645272
v 0.14197104 0.08783340 -0.01673060
v 0.13737522 0.08954009 -0.01710081
v 0.13704480 0.08964448 -0.01707328
v 0.13659423 0.08967265 -0.01706174
v -0.08532681 0.08967430 -0.01742307
v -0.13368806 0.08897340 -0.01657701
v -0.13452912 0.08873480 -0.00934862
v -0.11206067 0.08673980 -0.00934862
v 0.15341553 0.07685760 -0.01121298
v 0.15266459 0.07823952 -0.01121298
v 0.15242428 0.07860240 -0.01121298
v 0.15146306 0.08000916 -0.01121298
v 0.15119272 0.08037867 -0.01121298
v 0.15065203 0.08104643 -0.01121298
v 0.15035165 0.08141097 -0.01121298
v 0.14987105 0.08193457 -0.01121298
v 0.14927028 0.08255263 -0.01121298
v 0.14851934 0.08327506 -0.01121298
v 0.14812884 0.08363297 -0.01121298
v 0.14695736 0.08462550 -0.01121298
v 0.14551553 0.08559980 -0.01121209
v 0.14518511 0.08582515 -0.01121209
v 0.14446420 0.08622283 -0.01121209
v 0.14368321 0.08661884 -0.01121209
v 0.14281211 0.08700823 -0.01121209
v 0.14188093 0.08739927 -0.01121209
v 0.14040906 0.08792122 -0.01121209
v 0.13899727 0.08835866 -0.01121209
v 0.13863682 0.08844483 -0.01121209
v 0.14230146 0.08768261 -0.01638791
v 0.14269195 0.08749372 -0.01672527
v 0.14224139 0.08760142 -0.01694988
v 0.14122009 0.08799745 -0.01702712
v 0.13725507 0.08935616 -0.01737513
v 0.13692465 0.08947546 -0.01735383
v 0.14188093 0.08759479 -0.01721977
v 0.14100983 0.08786820 -0.01733252
v 0.13659423 0.08954506 -0.01730322
v -0.08508651 0.08950363 -0.01764502
v -0.13383825 0.08870165 -0.01725528
v -0.13347779 0.08892535 -0.01697030
v -0.13443900 0.08890380 -0.01678830
v -0.13491961 0.08888724 -0.01618904
v -0.13488958 0.08871822 -0.00934862
v -0.13461923 0.08873148 -0.00934862
v -0.11320211 0.08654262 -0.00934862
v 0.15353569 0.07685760 -0.01633020
v 0.15311515 0.07764135 -0.01624320
v -0.11341237 0.08652439 -0.00934862
v -0.14170821 0.07862062 -0.00992746
v -0.13371809 0.07280961 -0.01153436
v 0.15257447 0.07860405 -0.01636483
v 0.15224405 0.07916742 -0.01612424
v 0.15152314 0.08017818 -0.01571585
v 0.15068207 0.08119391 -0.01544064
v 0.14845926 0.08352527 -0.01580552
v 0.14767827 0.08421954 -0.01610914
v 0.14674709 0.08493535 -0.01557469
v 0.14596610 0.08533799 -0.01121298
v 0.14566572 0.08552855 -0.01121298
v 0.14317256 0.08724351 -0.01633730
v 0.14329272 0.08713084 -0.01669952
v 0.14269195 0.08731974 -0.01699605
v 0.13692465 0.08919875 -0.01751895
v 0.13644404 0.08930977 -0.01751718
v 0.14197104 0.08732306 -0.01732009
v 0.14311249 0.08689390 -0.01710702
v 0.14674709 0.08432559 -0.01711945
v 0.14719766 0.08376885 -0.01725262
v 0.14076952 0.08760308 -0.01744083
v -0.08514658 0.08927497 -0.01778796
v -0.13452912 0.08857407 -0.01734939
v -0.13461923 0.08878617 -0.01710347
v -0.13618121 0.08863704 -0.01667911
v -0.13618121 0.08871657 -0.01604345
v -0.13525003 0.08867845 -0.00934862
v -0.13497969 0.08870994 -0.00934862
v 0.15350565 0.07685760 -0.01666135
v -0.11374279 0.08652108 -0.00934862
v -0.13525003 0.08636200 -0.00934862
v -0.15213141 0.07862062 -0.00992746
v -0.15315271 0.07682943 -0.01153613
v -0.15333293 0.07682943 -0.01584547
v -0.15327285 0.07682943 -0.01614465
v -0.15315271 0.07682943 -0.01652996
v -0.15297248 0.07682943 -0.01683092
v -0.15288236 0.07682943 -0.01692502
v -0.15279225 0.07682943 -0.01701735
v -0.15240175 0.07682943 -0.01727392
v -0.15207133 0.07682943 -0.01739910
v -0.15198122 0.07682943 -0.01742396
v -0.15186107 0.07682943 -0.01743994
v -0.15165080 0.07682943 -0.01745592
v 0.15203378 0.07685760 -0.01734584
v 0.15248436 0.07685760 -0.01732808
v 0.15254443 0.07685760 -0.01732098
v 0.15308512 0.07685760 -0.01713365
v 0.15326534 0.07685760 -0.01697829
v 0.15344557 0.07685760 -0.01677943
v 0.15302504 0.07744251 -0.01687264
v 0.15149310 0.07998266 -0.01660453
v 0.15116268 0.08045489 -0.01641987
v 0.15059196 0.08121711 -0.01604256
v 0.14906002 0.08281774 -0.01627782
v 0.14809880 0.08377713 -0.01643230
v 0.14746800 0.08429079 -0.01654682
v 0.14668701 0.08493369 -0.01619970
v 0.14350298 0.08702148 -0.01641454
v 0.14677713 0.08476634 -0.01656014
v 0.14737789 0.08418143 -0.01684423
v 0.14350298 0.08685082 -0.01688685
v 0.13776571 0.08830895 -0.01764325
v 0.13698473 0.08870497 -0.01762727
v 0.13641400 0.08887564 -0.01761306
v 0.07018012 0.08834375 -0.01811289
v 0.06921891 0.08845809 -0.01806406
v -0.07192984 0.08870000 -0.01812709
v 0.14182085 0.08691046 -0.01744793
v 0.14752808 0.08381524 -0.01707950
v 0.14794862 0.08332975 -0.01717183
v 0.14782846 0.08269181 -0.01735205
v 0.14623645 0.08393454 -0.01737158
v 0.14088967 0.08718884 -0.01750564
v -0.07250056 0.08847630 -0.01821054
v -0.13488958 0.08810846 -0.01756157
v -0.13558045 0.08827747 -0.01744083
v -0.13552037 0.08850945 -0.01727748
v -0.13651163 0.08845477 -0.01697829
v -0.13849414 0.08815154 -0.01654238
v -0.13843406 0.08826090 -0.01597242
v -0.13831391 0.08829736 -0.01491151
v -0.13726258 0.08841997 -0.01153613
v -0.13810364 0.08823605 -0.01153613
v -0.13915497 0.08799413 -0.01153613
v -0.14047665 0.08760308 -0.01153613
v -0.14281961 0.08664867 -0.01153613
v -0.14858692 0.08280448 -0.00992746
v -0.14987856 0.08154353 -0.00992746
v -0.15035917 0.08101992 -0.00992746
v -0.15117019 0.08001911 -0.00992746
v -0.15177096 0.07918565 -0.00992746
v -0.15225156 0.07857920 -0.01571674
v -0.15309262 0.07725693 -0.01592715
v -0.15303255 0.07707301 -0.01153613
v -0.15264206 0.07785013 -0.01644473
v -0.15273217 0.07716580 -0.01691259
v -0.15186107 0.07705644 -0.01742662
v -0.15114015 0.07883437 -0.01723753
v -0.14939795 0.08027594 -0.01745947
v -0.14870707 0.08058579 -0.01747101
v -0.13615117 0.08742745 -0.01760241
v -0.12377550 0.08765445 -0.01772936
v -0.07201996 0.08829073 -0.01824517
v -0.02906556 0.08755503 -0.01841829
v 0.13695468 0.08830730 -0.01770362
v 0.14893986 0.08125024 -0.01735649
v 0.14921021 0.08133143 -0.01732098
v 0.15164329 0.07898847 -0.01713987
v 0.15233417 0.07822626 -0.01703511
v 0.15062200 0.08087411 -0.01674480
v 0.14836914 0.08333472 -0.01676522
v 0.13611363 0.08843986 -0.01768941
v -0.07192984 0.08849453 -0.01820522
v 0.14863949 0.08280614 -0.01701824
v -0.12329489 0.08789637 -0.01772137
v -0.13678198 0.08768593 -0.01756246
v -0.13780326 0.08782014 -0.01732009
v -0.13900478 0.08772901 -0.01709015
v -0.13930517 0.08776713 -0.01691082
v -0.13954547 0.08786986 -0.01649356
v -0.13954547 0.08797756 -0.01536074
v -0.14074699 0.08757822 -0.01472153
v -0.14299984 0.08661718 -0.01467536
v -0.14441163 0.08583178 -0.01153613
v -0.14456182 0.08574727 -0.01153613
v -0.14600365 0.08484919 -0.01153613
v -0.14690479 0.08419800 -0.01153613
v -0.14720517 0.08397100 -0.01153613
v -0.14738540 0.08383181 -0.01153613
v -0.14834662 0.08319885 -0.01529060
v -0.14978844 0.08176888 -0.01574959
v -0.15138045 0.07971091 -0.01618638
v -0.15114015 0.07981696 -0.01663028
v -0.15219148 0.07834888 -0.01664537
v -0.14906753 0.08195943 -0.01692502
v -0.14846677 0.08200416 -0.01731388
v -0.14858692 0.08153856 -0.01741331
v -0.14747551 0.08243332 -0.01745237
v -0.14128767 0.08584669 -0.01747989
v -0.13909490 0.08708445 -0.01748611
v -0.14074699 0.08700823 -0.01718603
v -0.14122760 0.08702977 -0.01691792
v -0.14098730 0.08726837 -0.01669331
v -0.14098730 0.08744899 -0.01600705
v -0.14221886 0.08694858 -0.01572384
v -0.14399110 0.08605878 -0.01564216
v -0.14519262 0.08540925 -0.01543353
v -0.14651429 0.08458241 -0.01512014
v -0.14705498 0.08419800 -0.01516720
v -0.14696487 0.08419800 -0.01288025
v -0.14699490 0.08420132 -0.01593425
v -0.14807627 0.08332312 -0.01625119
v -0.14978844 0.08167608 -0.01611980
v -0.14993863 0.08126018 -0.01666046
v -0.14861696 0.08262553 -0.01671906
v -0.14735536 0.08314416 -0.01722332
v -0.14627399 0.08372908 -0.01732986
v -0.14414129 0.08499335 -0.01735205
v -0.14191848 0.08612837 -0.01738845
v -0.14287970 0.08577213 -0.01730322
v -0.14372075 0.08564123 -0.01703511
v -0.14242912 0.08663210 -0.01661874
v -0.14432152 0.08565117 -0.01649001
v -0.14633406 0.08450620 -0.01636394
v -0.14675460 0.08420132 -0.01646426
v -0.14720517 0.08382352 -0.01658677
v -0.14642418 0.08419800 -0.01681849
v -0.14618388 0.08419800 -0.01700404
v -0.14561315 0.08420132 -0.01729701
v -0.14492228 0.08469012 -0.01726416
v -0.14591354 0.08442832 -0.01695787
f 1 2 3
f 1 3 4
f 1 4 5
f 1 5 6
f 1 6 7
f 1 7 8
f 1 8 2
f 2 8 9
f 2 9 3
f 3 9 10
f 3 10 4
f 4 10 11
f 4 11 12
f 4 12 13
f 4 13 14
f 4 14 15
f 4 15 16
f 4 16 5
f 5 16 17
f 5 17 18
f 5 18 19
f 5 19 6
f 6 19 20
f 6 20 21
f 6 21 7
f 7 21 22
f 7 22 8
f 8 22 23
f 8 23 61
f 8 61 60
f 8 60 93
f 8 93 92
f 8 92 96
f 8 96 95
f 8 95 65
f 8 65 62
f 8 62 24
f 8 24 9
f 9 24 25
f 9 25 26
f 9 26 27
f 9 27 28
f 9 28 29
f 9 29 30
f 9 30 31
f 9 31 32
f 9 32 33
f 9 33 34
f 9 34 35
f 9 35 36
f 9 36 37
f 9 37 38
f 9 38 39
f 9 39 40
f 9 40 41
f 9 41 42
f 9 42 43
f 9 43 44
f 9 44 45
f 9 45 14
f 9 14 13
f 9 13 12
f 9 12 11
f 9 11 10
f 14 45 15
f 15 45 44
f 15 44 43
f 15 43 42
f 15 42 41
f 15 41 46
f 15 46 17
f 15 17 16
f 17 46 47
f 17 47 48
f 17 48 49
f 17 49 18
f 18 50 51
f 18 51 19
f 18 49 52
f 18 52 53
f 18 53 50
f 19 51 54
f 19 54 20
f 20 54 21
f 21 55 56
f 21 56 57
f 21 57 22
f 21 54 55
f 22 58 59
f 22 59 60
f 22 60 61
f 22 61 23
f 22 57 58
f 24 62 25
f 25 63 64
f 25 64 26
f 25 62 65
f 25 65 66
f 25 66 67
f 25 67 63
f 26 64 68
f 26 68 69
f 26 69 27
f 27 69 28
f 28 69 70
f 28 70 29
f 29 70 30
f 30 70 71
f 30 71 31
f 31 71 32
f 32 71 72
f 32 72 33
f 33 72 34
f 34 72 35
f 35 72 73
f 35 73 36
f 36 74 75
f 36 75 37
f 36 73 74
f 37 75 38
f 38 75 76
f 38 76 77
f 38 77 39
f 39 77 40
f 40 77 46
f 40 46 41
f 46 77 47
f 47 77 78
f 47 78 79
f 47 79 48
f 48 52 49
f 48 79 52
f 50 80 51
f 50 53 80
f 51 80 81
f 51 81 54
f 52 82 53
f 52 79 83
f 52 83 84
f 52 84 85
f 52 85 82
f 53 82 86
f 53 86 80
f 54 81 55
f 55 87 88
f 55 88 56
f 55 81 87
f 56 88 89
f 56 89 57
f 57 89 58
f 58 89 90
f 58 90 91
f 58 91 59
f 59 92 93
f 59 93 60
f 59 91 92
f 63 94 64
f 63 67 94
f 64 94 68
f 65 95 66
f 66 95 96
f 66 96 97
f 66 97 67
f 67 97 98
f 67 98 99
f 67 99 100
f 67 100 101
f 67 101 102
f 67 102 103
f 67 103 104
f 67 104 105
f 67 105 106
f 67 106 107
f 67 107 108
f 67 108 109
f 67 109 110
f 67 110 111
f 67 111 112
f 67 112 113
f 67 113 114
f 67 114 115
f 67 115 94
f 68 94 115
f 68 115 116
f 68 116 117
f 68 117 69
f 69 117 118
f 69 118 70
f 70 118 119
f 70 119 71
f 71 119 72
f 72 119 120
f 72 120 121
f 72 121 73
f 73 122 123
f 73 123 74
f 73 121 122
f 74 123 124
f 74 124 77
f 74 77 75
f 75 77 76
f 77 124 78
f 78 124 123
f 78 123 125
f 78 125 122
f 78 122 126
f 78 126 127
f 78 127 79
f 79 127 126
f 79 126 84
f 79 84 83
f 80 86 128
f 80 128 129
f 80 129 81
f 81 129 130
f 81 130 131
f 81 131 132
f 81 132 133
f 81 133 87
f 82 134 86
f 82 85 134
f 84 126 135
f 84 135 85
f 85 135 136
f 85 136 137
f 85 137 138
f 85 138 134
f 86 134 139
f 86 139 128
f 87 133 140
f 87 140 141
f 87 141 88
f 88 141 142
f 88 142 143
f 88 143 89
f 89 143 144
f 89 144 90
f 90 144 145
f 90 145 146
f 90 146 91
f 91 146 147
f 91 147 148
f 91 148 92
f 92 148 149
f 92 149 150
f 92 150 151
f 92 151 152
f 92 152 153
f 92 153 154
f 92 154 155
f 92 155 156
f 92 156 157
f 92 157 97
f 92 97 96
f 97 157 158
f 97 158 159
f 97 159 99
f 97 99 160
f 97 160 98
f 98 160 99
f 99 159 100
f 100 159 161
f 100 161 101
f 101 161 102
f 102 162 103
f 102 161 162
f 103 162 104
f 104 162 105
f 105 163 106
f 105 162 164
f 105 164 163
f 106 163 107
f 107 163 108
f 108 163 165
f 108 165 109
f 109 165 166
f 109 166 167
f 109 167 168
f 109 168 169
f 109 169 170
f 109 170 110
f 110 170 131
f 110 131 171
f 110 171 111
f 111 171 172
f 111 172 173
f 111 173 112
f 112 173 174
f 112 174 113
f 113 116 114
f 113 174 175
f 113 175 116
f 114 116 115
f 116 175 117
f 117 176 118
f 117 175 174
f 117 174 176
f 118 176 177
f 118 177 120
f 118 120 119
f 120 177 121
f 121 177 122
f 122 177 126
f 122 125 123
f 126 177 135
f 128 139 171
f 128 171 129
f 129 171 130
f 130 171 178
f 130 178 131
f 131 170 179
f 131 179 133
f 131 133 132
f 131 178 171
f 133 179 140
f 134 138 139
f 135 177 136
f 136 177 180
f 136 180 174
f 136 174 173
f 136 173 137
f 137 173 172
f 137 172 171
f 137 171 138
f 138 171 139
f 140 179 170
f 140 170 169
f 140 169 141
f 141 169 181
f 141 181 167
f 141 167 182
f 141 182 142
f 142 182 183
f 142 183 143
f 143 183 184
f 143 184 144
f 144 184 185
f 144 185 145
f 145 185 186
f 145 186 146
f 146 186 187
f 146 187 147
f 147 187 150
f 147 150 149
f 147 149 148
f 150 187 151
f 151 187 188
f 151 188 152
f 152 188 189
f 152 189 190
f 152 190 153
f 153 190 191
f 153 191 192
f 153 192 193
f 153 193 194
f 153 194 195
f 153 195 196
f 153 196 154
f 154 196 197
f 154 197 155
f 155 197 156
f 156 198 158
f 156 158 157
f 156 197 198
f 158 161 159
f 158 198 161
f 161 198 199
f 161 199 200
f 161 200 162
f 162 200 164
f 163 164 165
f 164 199 201
f 164 201 202
f 164 202 203
f 164 203 165
f 164 200 199
f 165 203 204
f 165 204 166
f 166 204 167
f 167 181 168
f 167 204 182
f 168 181 169
f 174 180 176
f 176 180 177
f 182 205 206
f 182 206 183
f 182 204 205
f 183 206 207
f 183 207 184
f 184 207 185
f 185 207 208
f 185 208 209
f 185 209 186
f 186 209 210
f 186 210 187
f 187 210 188
f 188 210 211
f 188 211 189
f 189 211 212
f 189 212 213
f 189 213 190
f 190 213 191
f 191 213 214
f 191 214 192
f 192 214 215
f 192 215 216
f 192 216 193
f 193 216 194
f 194 216 195
f 195 216 215
f 195 215 196
f 196 215 217
f 196 217 218
f 196 218 197
f 197 219 198
f 197 218 219
f 198 219 199
f 199 219 220
f 199 220 201
f 201 221 222
f 201 222 202
f 201 220 221
f 202 222 204
f 202 204 203
f 204 222 223
f 204 223 224
f 204 224 225
f 204 225 206
f 204 206 205
f 206 225 207
f 207 225 226
f 207 226 227
f 207 227 208
f 208 227 228
f 208 228 209
f 209 228 210
f 210 228 211
f 211 228 212
f 212 229 213
f 212 228 229
f 213 229 230
f 213 230 217
f 213 217 214
f 214 217 215
f 217 230 231
f 217 231 218
f 218 231 232
f 218 232 221
f 218 221 219
f 219 221 220
f 221 232 222
f 222 232 233
f 222 233 234
f 222 234 223
f 223 234 235
f 223 235 224
f 224 235 236
f 224 236 226
f 224 226 225
f 226 236 227
f 227 236 237
f 227 237 229
f 227 229 228
f 229 237 231
f 229 231 230
f 231 233 232
f 231 237 233
f 233 237 234
f 234 237 236
f 234 236 235

