# https://github.com/mikedh/trimesh
v 0.14349499 -0.06162226 -0.01078571
v 0.14349499 -0.06588504 -0.01073808
v 0.14349499 -0.06162226 -0.01415176
v 0.14088096 -0.06162226 -0.01077272
v 0.14349499 -0.08634690 -0.01073808
v 0.14059683 -0.06648491 -0.01073808
v 0.14349499 -0.08489236 -0.01675563
v 0.11829232 -0.06250083 -0.01578065
v 0.11685587 -0.06162226 -0.01568785
v 0.13944451 -0.06162226 -0.01079128
v 0.11124265 -0.07600582 -0.01073808
v 0.14283833 -0.08667073 -0.01073808
v 0.14349499 -0.08646900 -0.01552391
v 0.14349499 -0.08514982 -0.01677357
v 0.14015484 -0.08654332 -0.01695917
v 0.11518579 -0.08767404 -0.01705815
v 0.11560252 -0.06162226 -0.01573982
v 0.11592454 -0.06162226 -0.01572806
v 0.13554556 -0.06162226 -0.01084758
v 0.13002073 -0.06162226 -0.01093109
v 0.11124265 -0.06162226 -0.01123547
v 0.11124265 -0.08107550 -0.01073808
v 0.14258260 -0.08678751 -0.01073808
v 0.14217535 -0.08705560 -0.01557093
v 0.14283833 -0.08668931 -0.01599965
v 0.14349499 -0.08642654 -0.01578498
v 0.14349499 -0.08553470 -0.01670676
v 0.14084939 -0.08675832 -0.01687874
v 0.13941609 -0.08709542 -0.01693442
v 0.13529931 -0.08704498 -0.01699010
v 0.11508161 -0.08791558 -0.01689792
v 0.11471223 -0.08781473 -0.01694494
v 0.11440916 -0.08766078 -0.01691586
v 0.11464279 -0.08751214 -0.01697401
v 0.11549834 -0.06162226 -0.01573487
v 0.13516987 -0.08768732 -0.01690906
v 0.13663474 -0.08796867 -0.01673955
v 0.13506885 -0.08818102 -0.01660963
v 0.11124265 -0.06162226 -0.01464358
v 0.11124265 -0.08107550 -0.01348115
v 0.11173515 -0.08775898 -0.01265216
v 0.11173515 -0.08771386 -0.01201805
v 0.11173515 -0.08765016 -0.01153180
v 0.11173515 -0.08751479 -0.01073808
v 0.14179966 -0.08711930 -0.01073808
v 0.14131979 -0.08732103 -0.01073808
v 0.14005381 -0.08778552 -0.01073808
v 0.14036320 -0.08767670 -0.01539956
v 0.14104197 -0.08740066 -0.01595016
v 0.14349499 -0.08631771 -0.01617596
v 0.14349499 -0.08636283 -0.01609430
v 0.14049580 -0.08737942 -0.01650879
v 0.14199224 -0.08676894 -0.01649457
v 0.14349499 -0.08576031 -0.01662077
v 0.14089358 -0.08697066 -0.01675563
v 0.13961183 -0.08733695 -0.01684101
v 0.14349499 -0.08584790 -0.01658674
v 0.11491114 -0.08808546 -0.01669872
v 0.13544769 -0.08851811 -0.01622607
v 0.11427973 -0.08791558 -0.01677543
v 0.11412187 -0.08761299 -0.01673955
v 0.11490166 -0.06162226 -0.01561485
v 0.11522999 -0.06162226 -0.01569342
v 0.13669156 -0.08824206 -0.01646611
v 0.13929297 -0.08768201 -0.01659974
v 0.11370514 -0.08772979 -0.01642651
v 0.11124265 -0.07505824 -0.01445551
v 0.11124265 -0.07783196 -0.01416413
v 0.11173515 -0.08697066 -0.01381645
v 0.11173515 -0.08725998 -0.01370262
v 0.11173515 -0.08755195 -0.01348486
v 0.11173515 -0.08768467 -0.01318791
v 0.11173515 -0.08769528 -0.01313409
v 0.11438075 -0.08821552 -0.01588582
v 0.11333893 -0.08826861 -0.01241089
v 0.11338944 -0.08833497 -0.01073808
v 0.11298218 -0.08817040 -0.01073808
v 0.13965603 -0.08789966 -0.01073808
v 0.13857317 -0.08817305 -0.01521026
v 0.13863314 -0.08810139 -0.01597243
v 0.13962761 -0.08771916 -0.01635908
v 0.14349499 -0.08613721 -0.01636341
v 0.14013589 -0.08731572 -0.01673089
v 0.11469961 -0.08817836 -0.01636527
v 0.11834915 -0.08822082 -0.01653416
v 0.11670749 -0.08843317 -0.01618339
v 0.11586772 -0.08844379 -0.01615060
v 0.11527419 -0.08837743 -0.01611472
v 0.13679574 -0.08846768 -0.01601202
v 0.13532772 -0.08873841 -0.01541689
v 0.11716526 -0.08853934 -0.01586231
v 0.11404610 -0.08805361 -0.01600645
v 0.11397664 -0.08781738 -0.01659602
v 0.13835533 -0.08806422 -0.01622669
v 0.11173515 -0.08645573 -0.01390801
v 0.11124265 -0.07699321 -0.01433302
v 0.11124265 -0.07602440 -0.01441592
v 0.11475012 -0.08834027 -0.01548246
v 0.11382826 -0.08840928 -0.01199516
v 0.11358833 -0.08838805 -0.01073808
v 0.13846582 -0.08820756 -0.01073808
v 0.13809013 -0.08830046 -0.01073808
v 0.13654950 -0.08861367 -0.01530244
v 0.11575406 -0.08846768 -0.01587901
v 0.13652424 -0.08854996 -0.01073808
v 0.13545716 -0.08864551 -0.01073808
v 0.13467421 -0.08868798 -0.01073808
v 0.13337352 -0.08870126 -0.01073808
v 0.13279893 -0.08870126 -0.01073808
v 0.11548887 -0.08853403 -0.01073808
v 0.11510687 -0.08852873 -0.01073808
v 0.11445967 -0.08850749 -0.01073808
v 0.11415976 -0.08848891 -0.01104987
v 0.11406820 -0.08848626 -0.01073808
v 0.13729772 -0.08844644 -0.01073808
v 0.11417870 -0.08849422 -0.01073808
f 1 2 5
f 1 5 13
f 1 13 26
f 1 26 51
f 1 51 50
f 1 50 82
f 1 82 57
f 1 57 54
f 1 54 27
f 1 27 14
f 1 14 7
f 1 7 3
f 1 3 9
f 1 9 18
f 1 18 17
f 1 17 35
f 1 35 63
f 1 63 62
f 1 62 39
f 1 39 21
f 1 21 20
f 1 20 19
f 1 19 10
f 1 10 4
f 1 4 2
f 2 4 6
f 2 6 11
f 2 11 22
f 2 22 44
f 2 44 77
f 2 77 76
f 2 76 100
f 2 100 114
f 2 114 116
f 2 116 112
f 2 112 111
f 2 111 110
f 2 110 109
f 2 109 108
f 2 108 107
f 2 107 106
f 2 106 105
f 2 105 115
f 2 115 102
f 2 102 101
f 2 101 78
f 2 78 47
f 2 47 46
f 2 46 45
f 2 45 23
f 2 23 12
f 2 12 5
f 3 7 8
f 3 8 9
f 4 10 11
f 4 11 6
f 5 12 13
f 7 14 15
f 7 15 8
f 8 16 17
f 8 17 18
f 8 18 9
f 8 15 16
f 10 19 11
f 11 19 20
f 11 20 21
f 11 21 39
f 11 39 67
f 11 67 97
f 11 97 96
f 11 96 68
f 11 68 40
f 11 40 22
f 12 23 13
f 13 23 24
f 13 24 25
f 13 25 26
f 14 27 28
f 14 28 15
f 15 28 29
f 15 29 30
f 15 30 16
f 16 31 32
f 16 32 33
f 16 33 34
f 16 34 35
f 16 35 17
f 16 30 36
f 16 36 37
f 16 37 38
f 16 38 31
f 22 40 41
f 22 41 42
f 22 42 43
f 22 43 44
f 23 45 24
f 24 45 46
f 24 46 47
f 24 47 48
f 24 48 49
f 24 49 25
f 25 50 51
f 25 51 26
f 25 49 52
f 25 52 53
f 25 53 50
f 27 54 28
f 28 55 56
f 28 56 29
f 28 54 57
f 28 57 55
f 29 56 36
f 29 36 30
f 31 58 32
f 31 38 59
f 31 59 58
f 32 58 60
f 32 60 33
f 33 60 61
f 33 61 39
f 33 39 34
f 34 62 63
f 34 63 35
f 34 39 62
f 36 56 37
f 37 64 38
f 37 56 65
f 37 65 64
f 38 64 59
f 39 61 66
f 39 66 67
f 40 68 69
f 40 69 70
f 40 70 71
f 40 71 72
f 40 72 73
f 40 73 41
f 41 73 74
f 41 74 75
f 41 75 76
f 41 76 77
f 41 77 42
f 42 77 43
f 43 77 44
f 47 78 48
f 48 78 79
f 48 79 80
f 48 80 49
f 49 80 81
f 49 81 52
f 50 53 82
f 52 81 65
f 52 65 83
f 52 83 53
f 53 83 55
f 53 55 57
f 53 57 82
f 55 83 56
f 56 83 65
f 58 84 60
f 58 59 85
f 58 85 86
f 58 86 87
f 58 87 88
f 58 88 84
f 59 64 89
f 59 89 90
f 59 90 91
f 59 91 87
f 59 87 86
f 59 86 85
f 60 84 74
f 60 74 92
f 60 92 93
f 60 93 61
f 61 93 66
f 64 65 94
f 64 94 89
f 65 81 94
f 66 93 92
f 66 92 72
f 66 72 71
f 66 71 70
f 66 70 69
f 66 69 95
f 66 95 96
f 66 96 97
f 66 97 67
f 68 96 69
f 69 96 95
f 72 92 74
f 72 74 73
f 74 84 88
f 74 88 98
f 74 98 75
f 75 98 99
f 75 99 100
f 75 100 76
f 78 101 79
f 79 101 102
f 79 102 103
f 79 103 80
f 80 103 89
f 80 89 94
f 80 94 81
f 87 91 104
f 87 104 88
f 88 104 98
f 89 103 90
f 90 103 105
f 90 105 106
f 90 106 107
f 90 107 108
f 90 108 109
f 90 109 110
f 90 110 91
f 91 110 111
f 91 111 112
f 91 112 113
f 91 113 104
f 98 104 99
f 99 113 114
f 99 114 100
f 99 104 113
f 102 115 103
f 103 115 105
f 112 116 113
f 113 116 114

