# https://github.com/mikedh/trimesh
v -0.13614047 -0.08968529 0.01700624
v -0.13614047 -0.08915328 0.01699240
v -0.13617311 -0.08969114 0.01700970
v -0.13614047 -0.08995129 0.01696127
v -0.14130887 -0.08817710 0.01700624
v -0.13614047 -0.08879861 0.01696127
v -0.14977707 -0.08318659 0.01691284
v -0.13762718 -0.08979487 0.01699240
v -0.13659742 -0.08996133 0.01696127
v -0.13614047 -0.08999061 0.01695089
v -0.14870161 -0.08423722 0.01692668
v -0.14474576 -0.08670905 0.01696473
v -0.14553236 -0.08655346 0.01695089
v -0.14118157 -0.08867983 0.01698203
v -0.13866510 -0.08944020 0.01699240
v -0.13614047 -0.08849245 0.01689555
v -0.14930543 -0.08318659 0.01689555
v -0.15000065 -0.08318659 0.01690593
v -0.13898659 -0.08977312 0.01691976
v -0.13793725 -0.09012110 0.01687134
v -0.13673776 -0.09024992 0.01685058
v -0.13614047 -0.09030011 0.01683674
v -0.14883869 -0.08459106 0.01691284
v -0.14738463 -0.08572617 0.01687825
v -0.14792480 -0.08606496 0.01674335
v -0.14583264 -0.08738996 0.01673297
v -0.14157977 -0.08886302 0.01692668
v -0.13614047 -0.08846150 0.01688863
v -0.14862817 -0.08318659 0.01682983
v -0.15022585 -0.08318659 0.01688171
v -0.14942946 -0.08444551 0.01686442
v -0.14095636 -0.08934149 0.01684020
v -0.13908941 -0.09002490 0.01678832
v -0.13799437 -0.09077774 0.01653580
v -0.13726489 -0.09060710 0.01668454
v -0.13614047 -0.09072839 0.01664649
v -0.14848130 -0.08586754 0.01668454
v -0.14752008 -0.08673164 0.01659115
v -0.14616229 -0.08765261 0.01654618
v -0.14481919 -0.08833352 0.01657385
v -0.14257199 -0.08919510 0.01666725
v -0.13614047 -0.08826409 0.01681945
v -0.14814348 -0.08318659 0.01675718
v -0.15049676 -0.08318659 0.01685058
v -0.15065832 -0.08318659 0.01680907
v -0.15032540 -0.08384073 0.01675027
v -0.14952085 -0.08469479 0.01676756
v -0.14286248 -0.08935905 0.01652542
v -0.13997719 -0.09054938 0.01632479
v -0.13902250 -0.09086725 0.01626253
v -0.13756190 -0.09101363 0.01639398
v -0.13614047 -0.09098184 0.01652542
v -0.14953391 -0.08503189 0.01664303
v -0.14845682 -0.08624145 0.01648391
v -0.14774692 -0.08696167 0.01629712
v -0.14426433 -0.08893830 0.01638706
v -0.14691462 -0.08748615 0.01629712
v -0.14471964 -0.08882621 0.01628328
v -0.13614047 -0.08792782 0.01664995
v -0.14796234 -0.08318659 0.01669492
v -0.13614047 -0.08790272 0.01663266
v -0.15099614 -0.08318659 0.01668800
v -0.15145798 -0.08318659 0.01645624
v -0.14323783 -0.08959160 0.01623486
v -0.14175765 -0.09012193 0.01622102
v -0.14005716 -0.09077607 0.01599964
v -0.13796499 -0.09115668 0.01611379
v -0.13654030 -0.09122861 0.01629712
v -0.13614047 -0.09124450 0.01631788
v -0.15188881 -0.08318659 0.01616222
v -0.15129315 -0.08374704 0.01622448
v -0.14935766 -0.08550283 0.01645278
v -0.14860695 -0.08641963 0.01619681
v -0.14824303 -0.08687551 0.01594775
v -0.14625857 -0.08815702 0.01596504
v -0.14460867 -0.08915830 0.01601001
v -0.14572819 -0.08823900 0.01626253
v -0.13614047 -0.08771368 0.01646316
v -0.14759515 -0.08318659 0.01655310
v -0.14378617 -0.08960415 0.01595121
v -0.14308769 -0.08989859 0.01591662
v -0.14156345 -0.09040467 0.01585435
v -0.13973240 -0.09097599 0.01556725
v -0.13779037 -0.09133987 0.01575058
v -0.13672308 -0.09141515 0.01599272
v -0.13614047 -0.09133819 0.01621064
v -0.15063547 -0.08471318 0.01598926
v -0.15225764 -0.08318659 0.01581284
v -0.14958123 -0.08562663 0.01612762
v -0.14957307 -0.08587925 0.01580938
v -0.14971995 -0.08596625 0.01543926
v -0.14834911 -0.08698175 0.01559838
v -0.14476534 -0.08932643 0.01566064
v -0.13614047 -0.08753049 0.01623140
v -0.14729160 -0.08318659 0.01638706
v -0.14399669 -0.08972544 0.01559838
v -0.14361481 -0.08992118 0.01543580
v -0.14026115 -0.09091994 0.01520404
v -0.13807107 -0.09139758 0.01524901
v -0.13690422 -0.09150549 0.01562259
v -0.13614047 -0.09141180 0.01610341
v -0.13614047 -0.09152055 0.01582668
v -0.13614047 -0.09150716 0.01586819
v -0.15120176 -0.08461364 0.01541850
v -0.15242573 -0.08318659 0.01551536
v -0.15074318 -0.08518078 0.01521096
v -0.14993374 -0.08597294 0.01498265
v -0.14850415 -0.08699848 0.01519020
v -0.14518965 -0.08939586 0.01489618
v -0.14458909 -0.08958156 0.01528360
v -0.13614047 -0.08737239 0.01593045
v -0.14726223 -0.08318659 0.01635938
v -0.14435898 -0.08980490 0.01490309
v -0.14048473 -0.09092245 0.01458831
v -0.13890826 -0.09129302 0.01457794
v -0.13652235 -0.09163264 0.01512794
v -0.13749989 -0.09155066 0.01469209
v -0.13614047 -0.09160587 0.01547039
v -0.15150531 -0.08450407 0.01502070
v -0.15252528 -0.08318659 0.01531819
v -0.15087374 -0.08529455 0.01455718
v -0.14892356 -0.08679354 0.01472322
v -0.15005776 -0.08596123 0.01462982
v -0.14551767 -0.08931891 0.01419743
v -0.14471802 -0.08970536 0.01450184
v -0.13614047 -0.08721429 0.01551882
v -0.14702559 -0.08318659 0.01606882
v -0.14407666 -0.08991114 0.01435309
v -0.14042272 -0.09093919 0.01391724
v -0.13936031 -0.09120686 0.01408674
v -0.13829138 -0.09140930 0.01389649
v -0.13614047 -0.09171712 0.01470592
v -0.13614047 -0.09167195 0.01504838
v -0.13614047 -0.09163766 0.01529743
v -0.13614047 -0.09172716 0.01459869
v -0.13644565 -0.09170374 0.01420781
v -0.13614047 -0.09173218 0.01449492
v -0.15264441 -0.08318659 0.01505530
v -0.15268847 -0.08318659 0.01491001
v -0.15159180 -0.08458186 0.01450529
v -0.15087374 -0.08535645 0.01395184
v -0.15015894 -0.08593865 0.01418014
v -0.15010509 -0.08598298 0.01374429
v -0.14670900 -0.08844477 0.01391378
v -0.14566618 -0.08918758 0.01373737
v -0.14513906 -0.08952551 0.01414209
v -0.14457603 -0.08974802 0.01405215
v -0.14678570 -0.08318659 0.01562259
v -0.13614047 -0.08720426 0.01546347
v -0.14071810 -0.09080367 0.01338108
v -0.13950066 -0.08819968 -0.01616675
v -0.13738565 -0.08873922 -0.01645731
v -0.13973240 -0.09106968 0.01341567
v -0.13668881 -0.09165439 0.01379617
v -0.13614047 -0.09173134 0.01404177
v -0.15277660 -0.08318659 0.01452951
v -0.15190187 -0.08428156 0.01414555
v -0.15103041 -0.08519166 0.01358517
v -0.15019648 -0.08586922 0.01333611
v -0.14762452 -0.08772623 0.01334649
v -0.14700764 -0.08444133 -0.01562713
v -0.14597298 -0.08519501 -0.01548530
v -0.14474739 -0.08597629 -0.01548530
v -0.14431982 -0.08612853 -0.01614253
v -0.14330964 -0.08676510 -0.01550606
v -0.14197307 -0.08741673 -0.01544033
v -0.14172991 -0.08744433 -0.01606298
v -0.14076380 -0.08786675 -0.01568247
v -0.14026115 -0.08318659 0.00183799
v -0.13614047 -0.08712730 0.01492731
v -0.14009469 -0.08318659 0.00138830
v -0.14055491 -0.08787763 -0.01618058
v -0.13898334 -0.08825321 -0.01671675
v -0.13738565 -0.08867397 -0.01672713
v -0.13614047 -0.08892073 0.00105277
v -0.13614047 -0.09165941 0.01315624
v -0.13614047 -0.09166275 0.01318737
v -0.13614047 -0.09171712 0.01377888
v -0.15279291 -0.08318659 0.01441536
v -0.15281250 -0.08318659 0.01394838
v -0.15181701 -0.08432338 0.01349177
v -0.14849109 -0.08318743 -0.01590386
v -0.14802271 -0.08360316 -0.01589002
v -0.14715289 -0.08426316 -0.01605260
v -0.14566291 -0.08530208 -0.01615291
v -0.14436551 -0.08591940 -0.01678247
v -0.14325579 -0.08668814 -0.01621864
v -0.14289675 -0.08673499 -0.01668562
v -0.14142473 -0.08745186 -0.01649191
v -0.13614047 -0.08693239 0.00808862
v -0.13738565 -0.08318743 -0.01193624
v -0.13994781 -0.08318743 0.00068264
v -0.14002452 -0.08318659 0.00105277
v -0.13999678 -0.08795208 -0.01661989
v -0.13743624 -0.08857610 -0.01701077
v -0.13959206 -0.08790858 -0.01711801
v -0.13847579 -0.08820637 -0.01727713
v -0.13738565 -0.08860621 -0.01695197
v -0.13738565 -0.08858865 -0.01700040
v -0.13738565 -0.08855769 -0.01707996
v -0.13738565 -0.08845899 -0.01730480
v -0.13738565 -0.08842721 -0.01734631
v -0.13738565 -0.08824568 -0.01755040
v -0.13738565 -0.08816287 -0.01762996
v -0.13738565 -0.08804743 -0.01773373
v -0.13738565 -0.08789185 -0.01785134
v -0.13738565 -0.08780653 -0.01791015
v -0.13738565 -0.08735817 -0.01805543
v -0.13738565 -0.08703529 -0.01812115
v -0.13614047 -0.08682114 0.00105277
v -0.15278802 -0.08318659 0.01365781
v -0.15271621 -0.08318659 0.01313548
v -0.15268684 -0.08318659 0.01299712
v -0.14841275 -0.08318743 -0.01626014
v -0.14830668 -0.08318743 -0.01662681
v -0.14794438 -0.08347434 -0.01668562
v -0.14593871 -0.08499341 -0.01657492
v -0.14494485 -0.08547104 -0.01700732
v -0.14344183 -0.08624647 -0.01714568
v -0.14221133 -0.08692403 -0.01695197
v -0.13614047 -0.08690479 0.00705089
v -0.13738565 -0.08318743 -0.01499411
v -0.14358381 -0.08318743 -0.01813845
v -0.14396731 -0.08318743 -0.01828027
v -0.14423985 -0.08318743 -0.01831832
v -0.14877668 -0.08318659 0.00105277
v -0.13789319 -0.08834774 -0.01730826
v -0.14055001 -0.08742174 -0.01727021
v -0.13939458 -0.08776972 -0.01745354
v -0.13874180 -0.08787596 -0.01759191
v -0.13792256 -0.08820804 -0.01747430
v -0.13763534 -0.08816538 -0.01759191
v -0.13772510 -0.08791360 -0.01780291
v -0.13788013 -0.08769695 -0.01793782
v -0.13834524 -0.08731719 -0.01804159
v -0.13840236 -0.08682282 -0.01819034
v -0.13764187 -0.08699178 -0.01815574
v -0.13755537 -0.08682365 -0.01810386
v -0.13738565 -0.08689726 -0.01809002
v -0.13738565 -0.08685377 -0.01807273
v -0.13738565 -0.08665385 -0.01798625
v -0.13738565 -0.08663210 -0.01797241
v -0.13738565 -0.08642298 -0.01782713
v -0.14822671 -0.08318743 -0.01679285
v -0.14807168 -0.08318743 -0.01704191
v -0.14702070 -0.08402894 -0.01700732
v -0.14592076 -0.08462452 -0.01725291
v -0.14468700 -0.08541082 -0.01726329
v -0.14365562 -0.08586336 -0.01740165
v -0.14196654 -0.08643636 -0.01765417
v -0.14192411 -0.08675088 -0.01737744
v -0.14393957 -0.08353290 -0.01832870
v -0.14459235 -0.08318743 -0.01831486
v -0.14506073 -0.08318743 -0.01828373
v -0.14519617 -0.08318743 -0.01826298
v -0.14530552 -0.08318743 -0.01823876
v -0.14543933 -0.08318743 -0.01820417
v -0.14673674 -0.08318743 -0.01784442
v -0.14707455 -0.08318743 -0.01770606
v -0.14722959 -0.08318743 -0.01763688
v -0.14765063 -0.08318743 -0.01742241
v -0.14788889 -0.08318743 -0.01725983
v -0.14797376 -0.08318743 -0.01718719
v -0.14085029 -0.08707544 -0.01752964
v -0.13954636 -0.08747361 -0.01769568
v -0.13856392 -0.08760996 -0.01788939
v -0.13956104 -0.08716912 -0.01792052
v -0.14367193 -0.08417281 -0.01826298
v -0.14266012 -0.08526108 -0.01808656
v -0.14733403 -0.08351283 -0.01735669
v -0.14657028 -0.08364080 -0.01765763
v -0.14429534 -0.08515569 -0.01765417
v -0.14242512 -0.08586587 -0.01788247
v -0.14500034 -0.08333465 -0.01827335
v -0.14566618 -0.08390095 -0.01788939
v -0.14406360 -0.08440870 -0.01812115
f 1 2 3
f 1 3 4
f 1 4 10
f 1 10 22
f 1 22 36
f 1 36 52
f 1 52 69
f 1 69 86
f 1 86 101
f 1 101 103
f 1 103 102
f 1 102 118
f 1 118 134
f 1 134 133
f 1 133 132
f 1 132 135
f 1 135 137
f 1 137 155
f 1 155 178
f 1 178 177
f 1 177 176
f 1 176 175
f 1 175 210
f 1 210 221
f 1 221 190
f 1 190 170
f 1 170 149
f 1 149 126
f 1 126 111
f 1 111 94
f 1 94 78
f 1 78 61
f 1 61 59
f 1 59 42
f 1 42 28
f 1 28 16
f 1 16 6
f 1 6 2
f 2 5 3
f 2 6 7
f 2 7 5
f 3 5 8
f 3 8 9
f 3 9 4
f 4 9 10
f 5 7 11
f 5 11 12
f 5 12 13
f 5 13 14
f 5 14 15
f 5 15 8
f 6 16 17
f 6 17 7
f 7 17 29
f 7 29 43
f 7 43 60
f 7 60 79
f 7 79 95
f 7 95 112
f 7 112 127
f 7 127 148
f 7 148 169
f 7 169 171
f 7 171 193
f 7 193 226
f 7 226 213
f 7 213 212
f 7 212 211
f 7 211 180
f 7 180 179
f 7 179 156
f 7 156 139
f 7 139 138
f 7 138 120
f 7 120 105
f 7 105 88
f 7 88 70
f 7 70 63
f 7 63 62
f 7 62 45
f 7 45 44
f 7 44 30
f 7 30 18
f 7 18 11
f 8 15 14
f 8 14 19
f 8 19 20
f 8 20 9
f 9 20 21
f 9 21 22
f 9 22 10
f 11 18 23
f 11 23 13
f 11 13 12
f 13 23 24
f 13 24 25
f 13 25 26
f 13 26 27
f 13 27 14
f 14 27 19
f 16 28 17
f 17 28 29
f 18 30 31
f 18 31 23
f 19 27 32
f 19 32 33
f 19 33 20
f 20 33 34
f 20 34 35
f 20 35 21
f 21 35 22
f 22 35 36
f 23 31 25
f 23 25 24
f 25 37 38
f 25 38 26
f 25 31 37
f 26 38 39
f 26 39 40
f 26 40 41
f 26 41 27
f 27 41 32
f 28 42 29
f 29 42 43
f 30 44 31
f 31 44 45
f 31 45 46
f 31 46 47
f 31 47 37
f 32 41 33
f 33 41 48
f 33 48 34
f 34 48 49
f 34 49 50
f 34 50 51
f 34 51 52
f 34 52 35
f 35 52 36
f 37 47 53
f 37 53 54
f 37 54 38
f 38 54 55
f 38 55 39
f 39 56 40
f 39 55 57
f 39 57 58
f 39 58 56
f 40 56 48
f 40 48 41
f 42 59 43
f 43 59 61
f 43 61 60
f 45 62 46
f 46 62 63
f 46 63 53
f 46 53 47
f 48 56 64
f 48 64 65
f 48 65 49
f 49 65 66
f 49 66 50
f 50 66 67
f 50 67 51
f 51 67 68
f 51 68 69
f 51 69 52
f 53 63 70
f 53 70 71
f 53 71 72
f 53 72 54
f 54 72 73
f 54 73 55
f 55 73 74
f 55 74 75
f 55 75 57
f 56 58 64
f 57 75 76
f 57 76 77
f 57 77 58
f 58 77 76
f 58 76 64
f 60 61 78
f 60 78 79
f 64 76 80
f 64 80 81
f 64 81 65
f 65 81 82
f 65 82 66
f 66 82 83
f 66 83 84
f 66 84 67
f 67 84 85
f 67 85 68
f 68 85 86
f 68 86 69
f 70 87 71
f 70 88 87
f 71 87 72
f 72 87 89
f 72 89 73
f 73 89 90
f 73 90 74
f 74 90 91
f 74 91 92
f 74 92 93
f 74 93 75
f 75 93 76
f 76 93 80
f 78 94 79
f 79 94 95
f 80 93 96
f 80 96 81
f 81 96 97
f 81 97 82
f 82 97 98
f 82 98 83
f 83 98 99
f 83 99 84
f 84 99 100
f 84 100 85
f 85 101 86
f 85 100 102
f 85 102 103
f 85 103 101
f 87 88 104
f 87 104 89
f 88 105 104
f 89 104 90
f 90 104 106
f 90 106 91
f 91 106 107
f 91 107 92
f 92 107 108
f 92 108 109
f 92 109 93
f 93 109 110
f 93 110 96
f 94 111 95
f 95 111 112
f 96 110 113
f 96 113 97
f 97 113 98
f 98 113 114
f 98 114 115
f 98 115 99
f 99 116 100
f 99 115 117
f 99 117 116
f 100 116 118
f 100 118 102
f 104 119 106
f 104 105 119
f 105 120 119
f 106 119 121
f 106 121 107
f 107 122 108
f 107 121 123
f 107 123 122
f 108 122 124
f 108 124 109
f 109 113 110
f 109 124 125
f 109 125 113
f 111 126 112
f 112 126 127
f 113 125 128
f 113 128 114
f 114 128 129
f 114 129 130
f 114 130 115
f 115 130 131
f 115 131 117
f 116 132 133
f 116 133 134
f 116 134 118
f 116 117 135
f 116 135 132
f 117 131 136
f 117 136 137
f 117 137 135
f 119 120 138
f 119 138 139
f 119 139 140
f 119 140 121
f 121 140 141
f 121 141 142
f 121 142 123
f 122 123 142
f 122 142 124
f 124 142 143
f 124 143 144
f 124 144 145
f 124 145 146
f 124 146 125
f 125 146 147
f 125 147 128
f 126 148 127
f 126 149 148
f 128 147 129
f 129 150 151
f 129 151 152
f 129 152 153
f 129 153 130
f 129 147 150
f 130 153 131
f 131 154 136
f 131 153 152
f 131 152 154
f 136 155 137
f 136 154 155
f 139 156 140
f 140 156 157
f 140 157 141
f 141 157 158
f 141 158 143
f 141 143 142
f 143 158 159
f 143 159 145
f 143 145 144
f 145 159 160
f 145 160 161
f 145 161 162
f 145 162 163
f 145 163 164
f 145 164 165
f 145 165 146
f 146 165 166
f 146 166 147
f 147 166 167
f 147 167 168
f 147 168 151
f 147 151 150
f 148 149 169
f 149 170 171
f 149 171 169
f 151 168 172
f 151 172 173
f 151 173 152
f 152 173 174
f 152 174 175
f 152 175 176
f 152 176 177
f 152 177 154
f 154 177 178
f 154 178 155
f 156 179 157
f 157 180 181
f 157 181 158
f 157 179 180
f 158 181 182
f 158 182 183
f 158 183 159
f 159 183 161
f 159 161 160
f 161 183 184
f 161 184 185
f 161 185 162
f 162 185 163
f 163 185 164
f 164 185 186
f 164 186 187
f 164 187 165
f 165 187 167
f 165 167 166
f 167 187 188
f 167 188 189
f 167 189 172
f 167 172 168
f 170 190 191
f 170 191 192
f 170 192 193
f 170 193 171
f 172 189 194
f 172 194 173
f 173 195 174
f 173 194 196
f 173 196 197
f 173 197 195
f 174 195 198
f 174 198 175
f 175 198 199
f 175 199 200
f 175 200 201
f 175 201 202
f 175 202 203
f 175 203 204
f 175 204 205
f 175 205 206
f 175 206 207
f 175 207 208
f 175 208 209
f 175 209 210
f 180 211 181
f 181 211 212
f 181 212 182
f 182 212 213
f 182 213 214
f 182 214 183
f 183 214 215
f 183 215 216
f 183 216 184
f 184 216 217
f 184 217 185
f 185 217 186
f 186 188 187
f 186 217 218
f 186 218 219
f 186 219 188
f 188 219 220
f 188 220 189
f 189 220 196
f 189 196 194
f 190 221 191
f 191 222 193
f 191 193 192
f 191 221 210
f 191 210 222
f 193 222 223
f 193 223 224
f 193 224 225
f 193 225 226
f 195 199 198
f 195 197 227
f 195 227 200
f 195 200 199
f 196 228 229
f 196 229 197
f 196 220 228
f 197 229 230
f 197 230 231
f 197 231 227
f 200 227 201
f 201 227 202
f 202 227 231
f 202 231 232
f 202 232 203
f 203 232 204
f 204 232 205
f 205 232 233
f 205 233 206
f 206 234 207
f 206 233 234
f 207 234 208
f 208 235 236
f 208 236 237
f 208 237 209
f 208 234 235
f 209 237 238
f 209 238 239
f 209 239 210
f 210 239 240
f 210 240 241
f 210 241 242
f 210 242 243
f 210 243 222
f 213 226 215
f 213 215 214
f 215 226 244
f 215 244 216
f 216 244 245
f 216 245 246
f 216 246 217
f 217 246 218
f 218 246 247
f 218 247 248
f 218 248 219
f 219 248 249
f 219 249 250
f 219 250 251
f 219 251 220
f 220 251 228
f 222 243 223
f 223 243 242
f 223 242 241
f 223 241 224
f 224 241 240
f 224 240 238
f 224 238 237
f 224 237 225
f 225 252 253
f 225 253 226
f 225 237 252
f 226 253 254
f 226 254 255
f 226 255 256
f 226 256 257
f 226 257 258
f 226 258 259
f 226 259 260
f 226 260 261
f 226 261 262
f 226 262 263
f 226 263 245
f 226 245 244
f 228 251 229
f 229 251 264
f 229 264 265
f 229 265 230
f 230 265 266
f 230 266 232
f 230 232 231
f 232 266 233
f 233 266 234
f 234 266 235
f 235 266 267
f 235 267 236
f 236 268 252
f 236 252 237
f 236 267 269
f 236 269 268
f 238 240 239
f 245 263 246
f 246 263 270
f 246 270 247
f 247 270 271
f 247 271 272
f 247 272 248
f 248 272 249
f 249 272 273
f 249 273 250
f 250 273 267
f 250 267 265
f 250 265 264
f 250 264 251
f 252 274 254
f 252 254 253
f 252 268 274
f 254 274 255
f 255 274 256
f 256 274 257
f 257 274 275
f 257 275 258
f 258 275 259
f 259 271 260
f 259 275 271
f 260 271 261
f 261 270 262
f 261 271 270
f 262 270 263
f 265 267 266
f 267 273 269
f 268 269 276
f 268 276 274
f 269 273 276
f 271 275 272
f 272 275 273
f 273 275 276
f 274 276 275

