# https://github.com/mikedh/trimesh
v -0.11207799 0.08518275 -0.01153379
v -0.13528131 0.08281028 -0.01153095
v -0.14860393 0.08281028 -0.01153095
v -0.11207799 0.08850983 -0.01153379
v -0.10905147 0.08519450 -0.01153379
v -0.01700966 0.08606690 -0.01153379
v -0.00208476 0.08633332 -0.01153379
v 0.00043734 0.08639021 -0.01153379
v 0.14446408 0.08621050 -0.01120428
v 0.14992369 0.08621050 0.01417899
v -0.13528131 0.08281028 -0.01144573
v -0.15320305 0.08281028 0.01409093
v -0.15246126 0.08364746 0.01391765
v -0.15142274 0.08470681 0.01384948
v -0.14833688 0.08305141 -0.01153095
v -0.14738738 0.08383531 -0.01153095
v -0.14720935 0.08397439 -0.01153095
v -0.14599281 0.08485040 -0.01153095
v -0.14468726 0.08569391 -0.01153095
v -0.14442021 0.08583300 -0.01153095
v -0.14284761 0.08664941 -0.01153095
v -0.14258056 0.08676592 -0.01153095
v -0.14050354 0.08760400 -0.01153095
v -0.13916831 0.08799324 -0.01153095
v -0.13818914 0.08822624 -0.01153095
v -0.13726932 0.08841951 -0.01153095
v -0.13631982 0.08855588 -0.01153095
v -0.13572638 0.08862542 -0.01153095
v -0.13528131 0.08865071 -0.01153095
v -0.11098013 0.08853421 -0.01153379
v 0.00043734 0.08877443 -0.01153379
v 0.14366294 0.08662141 -0.01120428
v 0.14482014 0.08963871 0.01401707
v 0.14597734 0.08899298 0.01404832
v 0.14749061 0.08803297 0.01404548
v 0.14897419 0.08701246 0.01412217
v 0.14941926 0.08656361 0.01371313
v 0.14971598 0.08636854 0.01474142
v 0.14986435 0.08621050 0.01483231
v -0.14029584 0.08281028 0.00231964
v 0.14983467 0.08621050 0.01496298
v 0.14959729 0.08621050 0.01570437
v -0.15305469 0.08281028 0.01512773
v -0.15174914 0.08449819 0.01468744
v -0.15068095 0.08546091 0.01457382
v -0.15032489 0.08566140 0.01383812
v -0.14777312 0.08739087 0.01359099
v -0.14694231 0.08794086 0.01401139
v -0.14611150 0.08833643 0.01365064
v -0.14542905 0.08876360 0.01470733
v -0.14424218 0.08918625 0.01405968
v -0.13949470 0.09081276 0.01451701
v -0.13830783 0.09108821 0.01437214
v -0.13715063 0.09120742 0.01396878
v -0.13453951 0.09144765 0.01442327
v -0.11738923 0.09152170 0.01388641
v -0.09439362 0.08884939 -0.01153379
v -0.09454197 0.08884849 -0.01153379
v 0.13318881 0.08903814 -0.01120428
v 0.13446470 0.08901286 -0.01120428
v 0.13517682 0.08896770 -0.01120428
v 0.13600763 0.08889635 -0.01120428
v 0.13677910 0.08879701 -0.01120428
v 0.13710548 0.08874373 -0.01120428
v 0.13760991 0.08865883 -0.01120428
v 0.13864842 0.08844480 -0.01120428
v 0.13894514 0.08835991 -0.01120428
v 0.14042872 0.08792370 -0.01120428
v 0.14099249 0.08772682 -0.01120428
v 0.14188264 0.08740170 -0.01120428
v 0.14309918 0.08688512 -0.01120428
v 0.14413769 0.08997287 0.01405968
v 0.14461244 0.08978231 0.01444600
v 0.14547292 0.08932172 0.01450281
v 0.14775765 0.08788126 0.01450849
v 0.14891485 0.08704497 0.01453121
v 0.14912255 0.08683545 0.01497718
v 0.14909288 0.08676592 0.01537770
v -0.14637855 0.08281028 0.01631793
v 0.14953795 0.08621050 0.01585776
v -0.15281732 0.08281028 0.01582651
v -0.15192717 0.08410805 0.01549132
v -0.15124471 0.08486125 0.01541179
v -0.15026555 0.08562528 0.01537202
v -0.14655658 0.08816213 0.01491753
v -0.14602249 0.08846648 0.01444032
v -0.14486529 0.08890358 0.01582651
v -0.14237286 0.08989700 0.01542883
v -0.13901995 0.09090217 0.01570721
v -0.13807045 0.09112253 0.01556802
v -0.13726932 0.09125348 0.01496298
v -0.13477688 0.09147113 0.01533509
v -0.13385706 0.09151719 0.01503968
v -0.11709251 0.09157861 0.01463631
v 0.12372352 0.09203558 0.01428409
v 0.12327844 0.09200125 0.01387788
v 0.13381192 0.09192811 0.01391197
v 0.13529550 0.09189379 0.01398583
v 0.13648238 0.09184502 0.01414490
v 0.13725385 0.09173303 0.01401991
v 0.13808466 0.09155331 0.01389777
v 0.14324754 0.09027993 0.01421023
v 0.14395966 0.09007040 0.01449713
v 0.14499817 0.08956737 0.01492037
v 0.14416736 0.08999454 0.01489197
v 0.14802469 0.08766090 0.01499423
v 0.14793568 0.08762657 0.01538054
v 0.14826207 0.08726443 0.01574413
v 0.14897419 0.08669998 0.01582651
v -0.14649724 0.08281028 0.01651961
v 0.14933025 0.08621050 0.01616170
v -0.15269863 0.08281028 0.01608784
v -0.15171946 0.08386330 0.01634349
v -0.15106668 0.08475558 0.01604239
v -0.14987982 0.08552684 0.01633781
v -0.14720935 0.08735022 0.01633497
v -0.14628953 0.08815399 0.01582935
v -0.14471693 0.08870760 0.01655369
v -0.14314432 0.08953124 0.01630373
v -0.14047387 0.09039914 0.01622987
v -0.13893093 0.09077302 0.01630657
v -0.13744735 0.09103131 0.01622419
v -0.13634949 0.09128600 0.01577822
v -0.13394608 0.09144585 0.01604523
v -0.13326363 0.09151538 0.01577538
v 0.12422794 0.09201210 0.01461075
v 0.13425700 0.09195430 0.01460791
v 0.13538452 0.09192811 0.01440055
v 0.13615599 0.09188205 0.01465904
v 0.13686811 0.09181161 0.01446588
v 0.13787695 0.09163820 0.01438919
v 0.14295082 0.09036301 0.01496582
v 0.14351459 0.09021670 0.01496014
v 0.14473113 0.08964414 0.01534930
v 0.14398933 0.08999454 0.01533793
v 0.14796535 0.08733217 0.01606228
v 0.14654111 0.08835810 0.01576686
v 0.14882584 0.08664128 0.01612761
v -0.14658625 0.08281028 0.01664743
v 0.14909288 0.08621050 0.01638894
v -0.15252061 0.08281028 0.01636338
v -0.15151176 0.08368269 0.01674969
v -0.15053260 0.08480164 0.01665880
v -0.15228323 0.08281028 0.01665027
v -0.14833688 0.08628906 0.01681787
v -0.14519168 0.08813052 0.01694853
v -0.14341138 0.08920070 0.01673265
v -0.14103763 0.09004331 0.01667584
v -0.13709129 0.09076038 0.01680366
v -0.13931667 0.09035127 0.01688036
v -0.13415378 0.09128328 0.01646564
v -0.13278888 0.09140520 0.01628668
v 0.12366417 0.09197778 0.01484368
v 0.13535485 0.09191546 0.01485220
v 0.13663073 0.09182064 0.01510785
v 0.13778794 0.09166530 0.01485788
v 0.14327722 0.09021309 0.01541747
v 0.13763958 0.09164724 0.01522715
v 0.14470145 0.08929011 0.01608216
v 0.14416736 0.08978140 0.01572993
v 0.14348491 0.09004873 0.01575266
v 0.14520588 0.08875005 0.01640315
v 0.14787634 0.08716147 0.01633213
v -0.14691264 0.08281028 0.01690308
v 0.14870715 0.08630442 0.01653665
v 0.14879616 0.08621050 0.01654233
v -0.14712034 0.08281028 0.01701955
v -0.15121505 0.08361946 0.01699682
v -0.15219421 0.08281028 0.01672413
v -0.15008752 0.08473571 0.01699114
v -0.14854459 0.08592060 0.01702239
v -0.14664559 0.08699078 0.01713885
v -0.14477627 0.08777107 0.01725247
v -0.14240253 0.08932985 0.01698262
v -0.13652752 0.09048132 0.01709340
v -0.13418346 0.09102951 0.01685479
v -0.14047387 0.08974619 0.01711329
v -0.13290756 0.09121194 0.01667300
v 0.12873805 0.09152260 0.01619862
v 0.13488010 0.09166440 0.01590037
v 0.12947984 0.09174929 0.01569584
v 0.12858969 0.09182966 0.01545440
v 0.13529550 0.09183960 0.01531521
v 0.13419765 0.09187030 0.01516750
v 0.13686811 0.09175291 0.01534362
v 0.13612632 0.09174025 0.01556802
v 0.13799564 0.09147745 0.01563335
v 0.14286181 0.09021670 0.01580947
v 0.13719450 0.09162917 0.01564756
v 0.14395966 0.08968387 0.01606796
v 0.14440474 0.08924767 0.01634917
v 0.14327722 0.08992139 0.01611341
v 0.14455310 0.08889635 0.01656790
v 0.14576964 0.08801762 0.01668720
v 0.14665980 0.08768347 0.01655085
v 0.14814338 0.08642815 0.01668436
v 0.14849944 0.08621050 0.01665880
v -0.14783247 0.08281028 0.01725815
v -0.15198651 0.08281028 0.01686900
v -0.15166012 0.08281028 0.01707636
v -0.14985014 0.08438440 0.01725531
v -0.14801050 0.08533899 0.01740870
v -0.14302564 0.08790745 0.01740586
v -0.14151238 0.08909143 0.01727520
v -0.13344166 0.09061769 0.01714453
v -0.13697260 0.09009208 0.01726668
v -0.13293724 0.09087869 0.01698262
v 0.13514715 0.09120381 0.01655085
v 0.12787756 0.09135011 0.01642019
v 0.13396028 0.09141062 0.01635202
v 0.13443503 0.09154338 0.01614749
v 0.13535485 0.09158944 0.01601399
v 0.13363389 0.09177729 0.01559074
v 0.13666041 0.09155060 0.01590037
v 0.13760991 0.09140069 0.01596002
v 0.13855940 0.09115324 0.01603103
v 0.14235738 0.09014355 0.01614465
v 0.14375196 0.08948157 0.01640883
v 0.14271345 0.08980940 0.01642871
v 0.14274312 0.08944003 0.01665311
v 0.14277279 0.08901376 0.01682923
v 0.14591800 0.08771689 0.01676674
v 0.14841043 0.08621050 0.01668436
v 0.14665980 0.08697995 0.01684059
v 0.14775765 0.08621050 0.01681503
v -0.14869294 0.08281028 0.01744563
v -0.15103701 0.08281028 0.01729224
v -0.14955342 0.08366191 0.01745699
v -0.14786213 0.08459754 0.01748540
v -0.14249154 0.08723824 0.01746836
v -0.13860455 0.08908239 0.01741723
v -0.13269986 0.09002524 0.01733485
v 0.13523616 0.09078567 0.01678946
v 0.13449437 0.09102409 0.01668436
v 0.13565157 0.09109363 0.01661619
v 0.13680876 0.09113698 0.01649120
v 0.13609665 0.09130405 0.01638042
v 0.13520649 0.09140430 0.01631225
v 0.13683844 0.09135915 0.01619010
v 0.13760991 0.09120290 0.01627816
v 0.13850005 0.09091843 0.01637758
v 0.13758023 0.09088862 0.01659062
v 0.14087380 0.09009930 0.01655369
v 0.14078478 0.08983379 0.01674685
v 0.14060675 0.08939759 0.01689456
v 0.14238706 0.08875908 0.01691161
v 0.14390032 0.08811877 0.01690593
v 0.14695651 0.08621050 0.01689740
v -0.14890065 0.08281028 0.01745699
v -0.15041391 0.08281028 0.01742859
v -0.15026555 0.08281028 0.01745415
v -0.15014686 0.08281028 0.01746267
v 0.14654111 0.08621050 0.01692013
v 0.14206067 0.08840235 0.01693433
v -0.13314494 0.08938584 0.01743711
v 0.13422733 0.09072065 0.01680935
v 0.13959792 0.08944906 0.01691161
v 0.13695713 0.09066826 0.01674969
v 0.13633402 0.09090307 0.01669856
v 0.13927152 0.09006408 0.01679230
v 0.14134855 0.08897493 0.01692581
v 0.13238767 0.09023567 0.01688320
f 1 2 3
f 1 3 4
f 1 4 30
f 1 30 58
f 1 58 57
f 1 57 31
f 1 31 8
f 1 8 7
f 1 7 6
f 1 6 5
f 1 5 2
f 2 5 6
f 2 6 7
f 2 7 8
f 2 8 9
f 2 9 10
f 2 10 11
f 2 11 40
f 2 40 79
f 2 79 110
f 2 110 139
f 2 139 164
f 2 164 167
f 2 167 198
f 2 198 226
f 2 226 249
f 2 249 252
f 2 252 251
f 2 251 250
f 2 250 227
f 2 227 200
f 2 200 199
f 2 199 169
f 2 169 144
f 2 144 141
f 2 141 112
f 2 112 81
f 2 81 43
f 2 43 12
f 2 12 3
f 3 12 13
f 3 13 14
f 3 14 15
f 3 15 4
f 4 15 16
f 4 16 17
f 4 17 18
f 4 18 19
f 4 19 20
f 4 20 21
f 4 21 22
f 4 22 23
f 4 23 24
f 4 24 25
f 4 25 26
f 4 26 27
f 4 27 28
f 4 28 29
f 4 29 30
f 8 31 9
f 9 31 32
f 9 32 33
f 9 33 34
f 9 34 35
f 9 35 36
f 9 36 37
f 9 37 10
f 10 37 36
f 10 36 38
f 10 38 39
f 10 39 11
f 11 39 41
f 11 41 42
f 11 42 40
f 12 43 44
f 12 44 13
f 13 44 14
f 14 44 45
f 14 45 46
f 14 46 15
f 15 46 16
f 16 46 17
f 17 46 18
f 18 46 47
f 18 47 19
f 19 47 48
f 19 48 49
f 19 49 20
f 20 49 21
f 21 49 22
f 22 49 50
f 22 50 51
f 22 51 23
f 23 52 24
f 23 51 52
f 24 52 53
f 24 53 25
f 25 53 26
f 26 53 27
f 27 53 54
f 27 54 28
f 28 54 55
f 28 55 29
f 29 55 56
f 29 56 57
f 29 57 58
f 29 58 30
f 31 59 60
f 31 60 61
f 31 61 62
f 31 62 63
f 31 63 64
f 31 64 65
f 31 65 66
f 31 66 67
f 31 67 68
f 31 68 69
f 31 69 70
f 31 70 71
f 31 71 32
f 31 57 59
f 32 71 72
f 32 72 33
f 33 73 74
f 33 74 34
f 33 72 73
f 34 75 35
f 34 74 75
f 35 75 36
f 36 76 38
f 36 75 76
f 38 41 39
f 38 76 77
f 38 77 78
f 38 78 41
f 40 42 80
f 40 80 79
f 41 78 42
f 42 78 80
f 43 81 82
f 43 82 44
f 44 83 45
f 44 82 83
f 45 83 84
f 45 84 85
f 45 85 48
f 45 48 47
f 45 47 46
f 48 85 86
f 48 86 49
f 49 86 50
f 50 86 85
f 50 85 87
f 50 87 88
f 50 88 51
f 51 88 52
f 52 88 89
f 52 89 53
f 53 89 90
f 53 90 91
f 53 91 54
f 54 91 55
f 55 92 93
f 55 93 56
f 55 91 92
f 56 93 94
f 56 94 95
f 56 95 96
f 56 96 57
f 57 96 59
f 59 97 60
f 59 96 97
f 60 97 98
f 60 98 99
f 60 99 61
f 61 99 62
f 62 99 100
f 62 100 63
f 63 100 64
f 64 100 65
f 65 100 101
f 65 101 66
f 66 101 102
f 66 102 67
f 67 102 68
f 68 102 72
f 68 72 69
f 69 72 70
f 70 72 71
f 72 102 103
f 72 103 73
f 73 104 74
f 73 103 105
f 73 105 104
f 74 104 106
f 74 106 75
f 75 106 76
f 76 106 77
f 77 106 78
f 78 106 107
f 78 107 108
f 78 108 109
f 78 109 80
f 79 80 110
f 80 109 111
f 80 111 110
f 81 112 82
f 82 112 113
f 82 113 114
f 82 114 83
f 83 114 84
f 84 114 115
f 84 115 116
f 84 116 117
f 84 117 85
f 85 117 87
f 87 117 118
f 87 118 119
f 87 119 88
f 88 120 89
f 88 119 120
f 89 121 90
f 89 120 121
f 90 121 122
f 90 122 123
f 90 123 91
f 91 123 92
f 92 124 125
f 92 125 93
f 92 123 124
f 93 125 94
f 94 125 95
f 95 126 127
f 95 127 97
f 95 97 96
f 95 125 126
f 97 127 128
f 97 128 98
f 98 128 99
f 99 128 129
f 99 129 130
f 99 130 100
f 100 131 101
f 100 130 131
f 101 131 102
f 102 132 133
f 102 133 103
f 102 131 132
f 103 133 105
f 104 105 134
f 104 134 106
f 105 133 135
f 105 135 134
f 106 134 107
f 107 136 108
f 107 134 137
f 107 137 136
f 108 136 109
f 109 136 138
f 109 138 111
f 110 111 139
f 111 138 140
f 111 140 139
f 112 141 113
f 113 142 143
f 113 143 114
f 113 141 144
f 113 144 142
f 114 143 115
f 115 145 116
f 115 143 145
f 116 145 146
f 116 146 118
f 116 118 117
f 118 147 119
f 118 146 147
f 119 147 148
f 119 148 120
f 120 148 121
f 121 149 122
f 121 148 150
f 121 150 149
f 122 149 151
f 122 151 124
f 122 124 123
f 124 151 152
f 124 152 125
f 125 152 153
f 125 153 126
f 126 153 154
f 126 154 127
f 127 154 128
f 128 154 129
f 129 155 130
f 129 154 155
f 130 155 156
f 130 156 131
f 131 156 132
f 132 157 133
f 132 156 158
f 132 158 157
f 133 157 135
f 134 159 137
f 134 135 160
f 134 160 159
f 135 157 161
f 135 161 160
f 136 137 159
f 136 159 162
f 136 162 163
f 136 163 138
f 138 163 140
f 139 140 164
f 140 163 165
f 140 165 166
f 140 166 167
f 140 167 164
f 142 168 143
f 142 144 169
f 142 169 168
f 143 168 170
f 143 170 171
f 143 171 145
f 145 171 172
f 145 172 146
f 146 172 173
f 146 173 174
f 146 174 147
f 147 174 148
f 148 174 150
f 149 150 175
f 149 175 176
f 149 176 151
f 150 174 177
f 150 177 175
f 151 176 178
f 151 178 152
f 152 178 179
f 152 179 180
f 152 180 181
f 152 181 182
f 152 182 153
f 153 182 183
f 153 183 184
f 153 184 154
f 154 183 155
f 154 184 183
f 155 185 158
f 155 158 156
f 155 183 186
f 155 186 185
f 157 158 187
f 157 187 188
f 157 188 161
f 158 185 189
f 158 189 187
f 159 160 190
f 159 190 191
f 159 191 162
f 160 161 190
f 161 188 192
f 161 192 190
f 162 191 193
f 162 193 194
f 162 194 195
f 162 195 163
f 163 195 165
f 165 196 197
f 165 197 166
f 165 195 196
f 166 197 167
f 167 197 198
f 168 169 199
f 168 199 200
f 168 200 201
f 168 201 170
f 170 201 171
f 171 201 202
f 171 202 172
f 172 202 173
f 173 202 203
f 173 203 204
f 173 204 174
f 174 204 177
f 175 205 176
f 175 177 206
f 175 206 205
f 176 205 207
f 176 207 208
f 176 208 209
f 176 209 178
f 177 204 206
f 178 209 210
f 178 210 179
f 179 210 211
f 179 211 180
f 180 211 212
f 180 212 186
f 180 186 183
f 180 183 213
f 180 213 181
f 181 213 182
f 182 213 183
f 185 186 189
f 186 212 214
f 186 214 189
f 187 189 215
f 187 215 216
f 187 216 188
f 188 217 192
f 188 216 217
f 189 214 215
f 190 192 218
f 190 218 191
f 191 218 193
f 192 217 219
f 192 219 218
f 193 218 220
f 193 220 221
f 193 221 194
f 194 221 222
f 194 222 196
f 194 196 195
f 196 223 197
f 196 222 224
f 196 224 225
f 196 225 223
f 197 223 198
f 198 223 226
f 200 227 201
f 201 228 202
f 201 227 228
f 202 228 229
f 202 229 203
f 203 230 231
f 203 231 204
f 203 229 230
f 204 231 206
f 205 206 232
f 205 232 233
f 205 233 234
f 205 234 207
f 206 231 232
f 207 234 208
f 208 234 235
f 208 235 236
f 208 236 237
f 208 237 238
f 208 238 210
f 208 210 209
f 210 238 211
f 211 238 212
f 212 238 237
f 212 237 239
f 212 239 214
f 214 239 215
f 215 240 216
f 215 239 240
f 216 240 241
f 216 241 217
f 217 241 219
f 218 219 220
f 219 241 242
f 219 242 243
f 219 243 244
f 219 244 220
f 220 244 221
f 221 244 245
f 221 245 246
f 221 246 247
f 221 247 222
f 222 247 224
f 223 225 226
f 224 248 225
f 224 247 248
f 225 248 226
f 226 248 253
f 226 253 249
f 227 250 228
f 228 250 251
f 228 251 252
f 228 252 229
f 229 252 253
f 229 253 254
f 229 254 230
f 230 254 255
f 230 255 231
f 231 255 232
f 232 255 256
f 232 256 233
f 233 256 257
f 233 257 245
f 233 245 258
f 233 258 259
f 233 259 234
f 234 259 235
f 235 259 236
f 236 259 242
f 236 242 240
f 236 240 237
f 237 240 239
f 240 242 241
f 242 244 243
f 242 259 258
f 242 258 244
f 244 258 260
f 244 260 245
f 245 260 258
f 245 257 261
f 245 261 246
f 246 261 247
f 247 261 254
f 247 254 253
f 247 253 248
f 249 253 252
f 254 261 255
f 255 261 257
f 255 257 262
f 255 262 256
f 256 262 257

