# https://github.com/mikedh/trimesh
v 0.06219044 -0.01364595 -0.02049955
v 0.06407203 -0.01364595 -0.02005875
v 0.05492697 -0.01364595 0.00680287
v 0.05492697 0.00017782 -0.02140496
v 0.06194888 -0.00706965 -0.02104161
v 0.06335681 -0.00597495 -0.02084503
v 0.06460726 -0.00275174 -0.02059485
v 0.06476948 -0.00425645 -0.02041615
v 0.06508565 -0.00434170 -0.02015406
v 0.06541365 -0.00833619 -0.01935587
v 0.06537221 -0.01288278 -0.01876616
v 0.06681803 -0.01364595 0.00607616
v 0.06489026 -0.01364595 0.00902173
v 0.06513301 -0.00191279 0.00853627
v 0.05492697 0.00017782 0.00452742
v 0.06338286 0.00017782 -0.02110415
v 0.06167297 -0.00155962 -0.02136922
v 0.06293052 -0.00222131 -0.02118457
v 0.06357824 -0.00119292 -0.02107734
v 0.06477540 -0.00084110 -0.02049955
v 0.06507262 -0.00301561 -0.02019278
v 0.06523485 0.00017782 -0.01983240
v 0.06694000 0.00017782 0.00134060
v 0.06702407 -0.01294232 0.00108744
v 0.06683698 0.00013858 0.00527797
v 0.06670199 -0.00037426 0.00689520
v 0.06660134 -0.01063520 0.00767553
v 0.06644740 -0.01364595 0.00799123
v 0.06648766 -0.00180454 0.00777679
v 0.06538997 -0.00067737 0.00833672
v 0.06658239 -0.00934700 0.00773807
f 1 2 12
f 1 12 28
f 1 28 13
f 1 13 3
f 1 3 4
f 1 4 5
f 1 5 6
f 1 6 2
f 2 6 7
f 2 7 8
f 2 8 9
f 2 9 10
f 2 10 11
f 2 11 12
f 3 13 14
f 3 14 15
f 3 15 4
f 4 16 17
f 4 17 5
f 4 15 23
f 4 23 22
f 4 22 16
f 5 17 18
f 5 18 6
f 6 18 19
f 6 19 7
f 7 20 9
f 7 9 8
f 7 19 20
f 9 21 22
f 9 22 10
f 9 20 21
f 10 23 24
f 10 24 11
f 10 22 23
f 11 24 12
f 12 24 25
f 12 25 26
f 12 26 27
f 12 27 28
f 13 28 29
f 13 29 14
f 14 29 30
f 14 30 15
f 15 30 25
f 15 25 23
f 16 19 18
f 16 18 17
f 16 22 20
f 16 20 19
f 20 22 21
f 23 25 24
f 25 30 26
f 26 30 29
f 26 29 31
f 26 31 27
f 27 31 28
f 28 31 29

