# https://github.com/mikedh/trimesh
v 0.15835159 0.04260832 0.00510505
v 0.18479934 -0.03037450 0.00836004
v 0.18173882 0.03252248 0.00595292
v 0.17174474 0.03975996 0.00544343
v 0.14317089 0.03909368 -0.00023984
v 0.12402233 0.03725308 -0.00250276
v 0.04828129 0.00399730 -0.00002835
v 0.04828129 -0.00714626 0.00049268
v 0.18558478 -0.01546645 0.00621440
v 0.18661398 -0.00203255 0.00512620
v 0.18584208 0.01628187 0.00617018
v 0.15504731 -0.04130152 0.00689309
v 0.17384377 -0.03910279 0.00709304
v 0.15664529 -0.03739544 0.00126557
v 0.15690258 0.03380507 0.00028696
v 0.11180735 0.03323041 -0.00684212
v 0.10033717 0.02376088 -0.00912235
v 0.08794614 0.01478273 -0.00978757
v 0.08464186 -0.00337344 -0.01087193
v 0.09497450 -0.01177691 -0.01127761
v 0.10464357 -0.02837565 -0.00872244
v 0.12628387 -0.03792846 -0.00279116
v 0.15468167 -0.04247584 0.00527808
v 0.14631265 -0.03034118 -0.00269310
v 0.15060551 -0.01893944 -0.00214323
v 0.12284417 -0.00992798 -0.00767654
v 0.13034650 0.01697314 -0.00570200
v 0.11836172 0.02123734 -0.00780151
v 0.09733083 0.00589620 -0.01100075
v 0.10751450 -0.00581369 -0.01034513
v 0.11589707 -0.01987223 -0.00894354
v 0.13296013 -0.02537739 -0.00557896
f 1 2 3
f 1 3 4
f 1 4 5
f 1 5 6
f 1 6 7
f 1 7 8
f 1 8 2
f 2 9 10
f 2 10 11
f 2 11 3
f 2 8 12
f 2 12 13
f 2 13 14
f 2 14 9
f 3 11 10
f 3 10 15
f 3 15 4
f 4 15 5
f 5 15 16
f 5 16 6
f 6 16 7
f 7 16 17
f 7 17 18
f 7 18 19
f 7 19 8
f 8 19 20
f 8 20 21
f 8 21 22
f 8 22 23
f 8 23 12
f 9 14 24
f 9 24 10
f 10 24 25
f 10 25 26
f 10 26 27
f 10 27 15
f 12 23 13
f 13 23 14
f 14 23 22
f 14 22 24
f 15 27 28
f 15 28 16
f 16 28 17
f 17 29 18
f 17 28 29
f 18 29 19
f 19 29 20
f 20 29 30
f 20 30 31
f 20 31 21
f 21 31 32
f 21 32 24
f 21 24 22
f 24 32 25
f 25 32 26
f 26 31 30
f 26 30 28
f 26 28 27
f 26 32 31
f 28 30 29

