# https://github.com/mikedh/trimesh
v 0.11176857 -0.00002555 -0.02375118
v 0.11286857 -0.01133994 -0.02343622
v 0.11066857 -0.01566403 -0.01676011
v 0.11066857 0.02291669 -0.01503453
v 0.11306454 0.01915907 -0.02183928
v 0.12175074 0.01508801 -0.02125374
v 0.12311625 0.00142463 -0.02233167
v 0.12123235 -0.01064506 -0.02218972
v 0.12928003 -0.01351898 -0.01951484
v 0.13828231 -0.01315266 -0.01595277
v 0.17204088 -0.01447066 0.01753425
v 0.17525237 -0.00497276 0.02055513
v 0.17401961 0.01079035 0.02156653
v 0.17164893 0.01905333 0.01758304
v 0.16630699 0.02194613 0.00897285
v 0.15406160 0.02281473 -0.00371397
v 0.14304266 0.02291669 -0.01085586
v 0.13353462 0.02102467 -0.01600600
v 0.13168233 0.00654556 -0.01944387
v 0.13838347 -0.00130578 -0.01684440
v 0.14701908 -0.00838672 -0.01151682
v 0.15948573 -0.01272969 -0.00134517
v 0.16785582 -0.01154009 0.00777515
v 0.17063744 0.00582425 0.01051657
v 0.15980182 0.01005016 -0.00149600
v 0.16132538 0.02000123 0.00261170
v 0.14920011 0.01606234 -0.00905930
v 0.13906622 0.01494072 -0.01505227
v 0.14363059 0.00672684 -0.01385900
v 0.15125471 0.00349793 -0.00919238
v 0.15968803 -0.00174385 -0.00239650
v 0.16568744 -0.00305430 0.00384489
f 1 2 3
f 1 3 4
f 1 4 5
f 1 5 6
f 1 6 7
f 1 7 2
f 2 7 8
f 2 8 9
f 2 9 3
f 3 9 10
f 3 10 11
f 3 11 12
f 3 12 13
f 3 13 4
f 4 13 14
f 4 14 15
f 4 15 16
f 4 16 17
f 4 17 18
f 4 18 5
f 5 18 6
f 6 18 19
f 6 19 7
f 7 19 20
f 7 20 9
f 7 9 8
f 9 20 10
f 10 20 21
f 10 21 22
f 10 22 11
f 11 22 23
f 11 23 12
f 12 23 24
f 12 24 13
f 13 24 14
f 14 24 15
f 15 24 25
f 15 25 26
f 15 26 16
f 16 26 25
f 16 25 27
f 16 27 17
f 17 28 18
f 17 27 28
f 18 28 19
f 19 28 29
f 19 29 20
f 20 29 21
f 21 30 31
f 21 31 22
f 21 29 30
f 22 31 32
f 22 32 23
f 23 32 24
f 24 32 25
f 25 32 31
f 25 31 30
f 25 30 27
f 27 30 29
f 27 29 28

