# https://github.com/mikedh/trimesh
v 0.01445039 -0.02572675 0.01570197
v 0.01445039 -0.02483517 0.01812842
v 0.01445039 -0.02554348 0.01122858
v 0.02505127 -0.03729735 0.01201407
v 0.02517402 -0.03729735 0.01659633
v 0.02583614 -0.03729735 0.01896213
v 0.01445039 -0.02189299 0.02025157
v 0.01445039 -0.02415659 0.00914121
v 0.02557336 -0.03729735 0.00951296
v 0.02861429 -0.03729735 0.01998559
v 0.02507548 -0.01669216 0.02130303
v 0.02456203 -0.01476042 0.02137458
v 0.02550421 -0.01161020 0.02158456
v 0.02519303 -0.00793990 0.02167322
v 0.02505127 -0.00353653 0.02171833
v 0.01445039 0.01330426 0.01990626
v 0.01445039 -0.02101628 0.00871191
v 0.02671263 -0.03729735 0.00757490
v 0.03211161 -0.03729240 0.00697296
v 0.02794352 0.01330426 0.01584973
v 0.02569438 0.00272923 0.02123926
v 0.02522415 0.00021302 0.02162189
v 0.02914330 0.01330426 0.01089883
v 0.02866442 0.00309577 0.00628391
v 0.02818728 0.00006938 0.00625746
v 0.02890127 -0.00555247 0.00588883
v 0.02985556 -0.01367568 0.00582817
v 0.02995928 -0.01570648 0.00590127
v 0.03038629 -0.00020800 0.00627613
f 1 2 7
f 1 7 16
f 1 16 17
f 1 17 8
f 1 8 3
f 1 3 4
f 1 4 5
f 1 5 6
f 1 6 2
f 2 6 7
f 3 8 9
f 3 9 4
f 4 9 18
f 4 18 10
f 4 10 6
f 4 6 5
f 6 10 7
f 7 10 11
f 7 11 12
f 7 12 13
f 7 13 14
f 7 14 15
f 7 15 16
f 8 17 18
f 8 18 9
f 10 18 19
f 10 19 20
f 10 20 21
f 10 21 22
f 10 22 13
f 10 13 11
f 11 13 12
f 13 22 15
f 13 15 14
f 15 22 16
f 16 22 21
f 16 21 20
f 16 20 23
f 16 23 24
f 16 24 17
f 17 24 25
f 17 25 26
f 17 26 27
f 17 27 28
f 17 28 18
f 18 28 19
f 19 28 27
f 19 27 29
f 19 29 23
f 19 23 20
f 23 29 24
f 24 29 26
f 24 26 25
f 26 29 27

