# https://github.com/mikedh/trimesh
v 0.00577655 0.00367193 0.01946046
v 0.02934481 -0.00642737 0.00583830
v 0.02280979 -0.00642737 0.02144219
v 0.00577655 0.00780030 0.01990775
v 0.00577655 0.01033816 0.00901065
v 0.02913867 -0.00642737 0.01090642
v 0.00577655 0.01279780 0.00893106
v 0.02908223 0.01052068 0.00533849
v 0.03084666 0.03796783 0.00600543
v 0.02656196 -0.00642737 0.02045849
v 0.02433618 0.00481918 0.02147084
v 0.02472637 0.00690075 0.02142150
v 0.02303556 0.00828701 0.02120183
v 0.02459631 0.01069885 0.02114931
v 0.02413495 0.01262398 0.02095511
v 0.00577655 0.00993836 0.01971674
v 0.02793621 -0.00642737 0.01585357
v 0.02785277 0.03796783 0.01860251
v 0.00577655 0.01407108 0.01165454
v 0.02468956 0.03796783 0.00829596
v 0.02645890 0.03796783 0.00555179
v 0.02892026 0.03796783 0.00520956
v 0.00577655 0.01208946 0.01926946
v 0.02458649 0.03796783 0.01747874
v 0.00577655 0.01444480 0.01457221
v 0.02409569 0.03796783 0.01240107
v 0.00577655 0.01402762 0.01763314
v 0.02422575 0.03796783 0.01532192
f 1 2 3
f 1 3 4
f 1 4 16
f 1 16 23
f 1 23 27
f 1 27 25
f 1 25 19
f 1 19 7
f 1 7 5
f 1 5 2
f 2 6 17
f 2 17 10
f 2 10 3
f 2 5 7
f 2 7 8
f 2 8 9
f 2 9 6
f 3 10 11
f 3 11 4
f 4 12 13
f 4 13 14
f 4 14 15
f 4 15 16
f 4 11 12
f 6 9 18
f 6 18 17
f 7 19 20
f 7 20 21
f 7 21 8
f 8 21 22
f 8 22 9
f 9 22 21
f 9 21 20
f 9 20 26
f 9 26 28
f 9 28 24
f 9 24 18
f 10 12 11
f 10 17 18
f 10 18 12
f 12 14 13
f 12 18 14
f 14 18 15
f 15 18 16
f 16 18 23
f 18 24 23
f 19 25 26
f 19 26 20
f 23 24 27
f 24 28 27
f 25 27 28
f 25 28 26

