# https://github.com/mikedh/trimesh
v 0.02550936 0.01443312 0.01458288
v 0.02550936 0.01401564 0.01763470
v 0.02550936 0.01424884 0.01248614
v 0.00314568 0.00870087 0.01216962
v 0.00314568 0.00886069 0.01434653
v 0.00314568 0.00891124 0.01581992
v 0.00314568 0.00882155 0.01773698
v 0.02550936 0.01208151 0.01927256
v 0.00314568 0.00841874 0.01943013
v 0.00314568 0.00737503 0.02072798
v 0.02550936 0.01386887 0.01082202
v 0.00314568 0.00816434 0.00792500
v 0.00314568 0.00847093 0.00958636
v 0.02550936 0.00992723 0.01971900
v 0.00314568 0.00558278 0.02108872
v 0.02550936 0.01302085 0.00897821
v 0.00314568 0.00689231 0.00716758
v 0.00875028 0.00892918 0.00739287
v 0.02550936 0.00778762 0.01990974
v 0.00314568 0.00420150 0.02120206
v 0.02550936 0.01086168 0.00876259
v 0.00633548 0.00708475 0.00731962
v 0.01277202 -0.00222711 0.01360707
v 0.01104467 -0.00222711 0.01347577
v 0.00314568 -0.00222711 0.02066163
v 0.02550936 0.00434338 0.02009633
v 0.00314568 0.00268322 0.02126149
v 0.02550936 -0.00222711 0.01963883
v 0.02550936 0.00032835 0.02023454
v 0.00314568 0.00125138 0.02128775
f 1 2 8
f 1 8 14
f 1 14 19
f 1 19 26
f 1 26 29
f 1 29 28
f 1 28 21
f 1 21 16
f 1 16 11
f 1 11 3
f 1 3 4
f 1 4 5
f 1 5 6
f 1 6 7
f 1 7 2
f 2 7 9
f 2 9 10
f 2 10 8
f 3 11 12
f 3 12 13
f 3 13 4
f 4 13 12
f 4 12 17
f 4 17 25
f 4 25 30
f 4 30 27
f 4 27 20
f 4 20 15
f 4 15 10
f 4 10 9
f 4 9 7
f 4 7 6
f 4 6 5
f 8 10 14
f 10 15 14
f 11 16 12
f 12 16 18
f 12 18 17
f 14 15 19
f 15 20 19
f 16 21 18
f 17 18 22
f 17 22 23
f 17 23 24
f 17 24 25
f 18 21 22
f 19 20 26
f 20 27 26
f 21 28 23
f 21 23 22
f 23 28 25
f 23 25 24
f 25 28 29
f 25 29 30
f 26 27 29
f 27 30 29

