# https://github.com/mikedh/trimesh
v -0.07877118 0.00636309 -0.02048534
v -0.08420885 0.00635258 -0.01083070
v -0.08335393 0.00637735 -0.01528694
v -0.07281161 0.00792046 -0.01384551
v -0.06483901 0.00857644 -0.01264816
v -0.05901861 0.00855054 -0.01300440
v -0.04021540 0.00897910 -0.00544758
v -0.03978794 0.00655260 0.01321190
v -0.06972496 0.00703332 0.00019941
v -0.08091344 0.00669257 -0.00747615
v -0.07221018 0.00829386 -0.00716609
v -0.07523222 0.00784804 -0.01019079
v -0.07893024 0.00723634 -0.01190270
v -0.06899430 0.00846873 -0.01110777
v -0.05551444 0.00967711 -0.00582031
v -0.05070305 0.00991240 -0.00459988
v -0.04591153 0.00988126 -0.00484066
v -0.03717845 0.01006289 -0.00165763
v -0.03343570 0.01006889 0.00309877
v -0.04382394 0.00733204 0.01117344
v -0.04882919 0.00726374 0.00930650
v -0.03449441 0.00947634 0.01106789
v -0.03936545 0.00827772 0.01175727
v -0.06020157 0.00748665 0.00435549
v -0.05051914 0.00967861 0.00533184
v -0.06446125 0.00843421 0.00031815
v -0.07438227 0.00747764 -0.00361693
v -0.06773181 0.00878809 -0.00481098
v -0.05595681 0.00987188 -0.00132779
v -0.04892860 0.01018598 0.00229724
v -0.04404762 0.00994730 0.00718888
f 1 2 3
f 1 3 4
f 1 4 5
f 1 5 6
f 1 6 7
f 1 7 8
f 1 8 2
f 2 8 9
f 2 9 10
f 2 10 11
f 2 11 12
f 2 12 13
f 2 13 3
f 3 13 4
f 4 13 12
f 4 12 14
f 4 14 5
f 5 14 15
f 5 15 16
f 5 16 6
f 6 16 17
f 6 17 18
f 6 18 7
f 7 18 19
f 7 19 8
f 8 20 21
f 8 21 9
f 8 19 22
f 8 22 23
f 8 23 20
f 9 24 25
f 9 25 26
f 9 26 27
f 9 27 10
f 9 21 24
f 10 27 11
f 11 28 14
f 11 14 12
f 11 27 28
f 14 28 29
f 14 29 15
f 15 29 16
f 16 29 30
f 16 30 18
f 16 18 17
f 18 30 19
f 19 30 31
f 19 31 22
f 20 23 21
f 21 23 25
f 21 25 24
f 22 31 23
f 23 31 25
f 25 31 30
f 25 30 29
f 25 29 28
f 25 28 26
f 26 28 27

