# https://github.com/mikedh/trimesh
v 0.02508211 -0.01756716 0.01552863
v 0.02715243 -0.02907866 0.01954001
v 0.04742351 -0.05439936 0.01900456
v 0.03211795 -0.01756716 0.00697267
v 0.02531548 -0.01756716 0.01075648
v 0.02747129 -0.02930536 0.00719577
v 0.02859888 -0.03595636 0.01649466
v 0.02835395 -0.03304775 0.01918750
v 0.03059756 -0.03778914 0.01901125
v 0.04014506 -0.05133321 0.01866545
v 0.04394141 -0.05427641 0.01727329
v 0.04852106 -0.05681617 0.00902744
v 0.04868742 -0.05244364 -0.00325209
v 0.02954392 -0.03566051 0.00730509
v 0.02931748 -0.03804657 0.01342478
v 0.04454679 -0.05266265 -0.00150520
v 0.03528813 -0.04418655 0.00352575
v 0.03231898 -0.04021362 0.00519009
v 0.03165121 -0.04256511 0.01356533
v 0.03351819 -0.04533540 0.01504896
v 0.03294978 -0.04279180 0.01841780
v 0.03694715 -0.04863592 0.01784220
v 0.03903595 -0.05154070 0.01370366
v 0.04196120 -0.05374617 0.01175821
v 0.04544331 -0.05559048 0.01171582
v 0.04761992 -0.05618987 0.00431553
v 0.04856496 -0.05588633 -0.00008181
v 0.04411932 -0.05487196 0.00836037
v 0.03901285 -0.05143696 0.01019649
v 0.03984930 -0.04958113 0.00151560
v 0.03457876 -0.04666867 0.01087249
v 0.03596514 -0.04851297 0.01448451
f 1 2 3
f 1 3 4
f 1 4 5
f 1 5 6
f 1 6 2
f 2 6 7
f 2 7 8
f 2 8 9
f 2 9 10
f 2 10 3
f 3 10 11
f 3 11 12
f 3 12 13
f 3 13 4
f 4 13 6
f 4 6 5
f 6 14 15
f 6 15 7
f 6 13 16
f 6 16 17
f 6 17 18
f 6 18 14
f 7 15 19
f 7 19 20
f 7 20 21
f 7 21 9
f 7 9 8
f 9 21 10
f 10 22 23
f 10 23 11
f 10 21 22
f 11 23 24
f 11 24 25
f 11 25 12
f 12 26 27
f 12 27 13
f 12 25 28
f 12 28 26
f 13 27 16
f 14 18 15
f 15 18 19
f 16 29 30
f 16 30 17
f 16 27 28
f 16 28 29
f 17 31 18
f 17 30 31
f 18 31 19
f 19 31 20
f 20 31 32
f 20 32 22
f 20 22 21
f 22 32 23
f 23 32 29
f 23 29 24
f 24 28 25
f 24 29 28
f 26 28 27
f 29 32 31
f 29 31 30

