# https://github.com/mikedh/trimesh
v -0.08419112 -0.01558500 -0.02182050
v -0.08088506 -0.01656413 -0.01551754
v -0.08663984 -0.01600043 -0.01477312
v -0.09137873 -0.01414332 -0.02069895
v -0.04039605 -0.01614568 -0.00494484
v -0.07897071 -0.01615000 -0.02046940
v -0.07548261 -0.01694584 -0.01334987
v -0.07195340 -0.01730723 -0.00762409
v -0.09338703 -0.01388784 -0.01291700
v -0.08138420 -0.01634237 -0.00850296
v -0.08326918 -0.01349230 -0.00438734
v -0.06773714 -0.01322860 0.00319129
v -0.05054913 -0.01383942 0.00912368
v -0.03339635 -0.01605619 0.00130237
v -0.05135362 -0.01734095 -0.00532197
v -0.05848251 -0.01685160 -0.01168723
v -0.06524144 -0.01721688 -0.01123140
v -0.07181834 -0.01702365 -0.00336090
v -0.05606902 -0.01764441 -0.00151133
v -0.06643938 -0.01742006 -0.00330187
v -0.08766748 -0.01462532 -0.00834555
v -0.07754376 -0.01435644 -0.00235413
v -0.06705596 -0.01490285 0.00199104
v -0.05754295 -0.01464175 0.00595580
v -0.04269209 -0.01461754 0.01063547
v -0.03430067 -0.01523441 0.01168159
v -0.03463539 -0.01667393 0.00674285
v -0.04833530 -0.01749052 0.00013819
v -0.07225876 -0.01523009 -0.00071445
v -0.05422514 -0.01695059 0.00371927
v -0.06181793 -0.01611109 0.00239440
v -0.04640334 -0.01708460 0.00482442
f 1 2 3
f 1 3 4
f 1 4 5
f 1 5 6
f 1 6 2
f 2 6 7
f 2 7 8
f 2 8 3
f 3 9 4
f 3 8 10
f 3 10 9
f 4 9 11
f 4 11 12
f 4 12 5
f 5 13 14
f 5 14 15
f 5 15 16
f 5 16 6
f 5 12 13
f 6 16 17
f 6 17 7
f 7 17 8
f 8 18 10
f 8 17 19
f 8 19 20
f 8 20 18
f 9 10 21
f 9 21 11
f 10 18 21
f 11 21 22
f 11 22 12
f 12 22 23
f 12 23 24
f 12 24 13
f 13 24 25
f 13 25 26
f 13 26 14
f 14 26 27
f 14 27 15
f 15 19 17
f 15 17 16
f 15 27 28
f 15 28 19
f 18 29 21
f 18 20 30
f 18 30 31
f 18 31 29
f 19 28 32
f 19 32 30
f 19 30 20
f 21 29 22
f 22 29 23
f 23 29 31
f 23 31 24
f 24 31 30
f 24 30 25
f 25 30 26
f 26 30 32
f 26 32 27
f 27 32 28

