# https://github.com/mikedh/trimesh
v -0.00300744 -0.00379953 0.03126431
v -0.00285833 -0.00390838 0.03126431
v -0.00205089 -0.00400000 0.03462932
v -0.00223831 -0.00381206 0.03462932
v -0.00225069 -0.00379953 0.03462932
v -0.00300744 0.00379953 0.03126431
v -0.00270097 -0.00400000 0.03126431
v 0.00179947 -0.00400000 0.03462932
v -0.00225069 0.00379953 0.03462932
v -0.00205089 0.00400000 0.03462932
v -0.00270097 0.00400000 0.03126431
v 0.00270121 -0.00400000 0.03126431
v 0.00300709 -0.00379953 0.03126431
v 0.00199927 -0.00379953 0.03462932
v 0.00179947 0.00400000 0.03462932
v 0.00273009 0.00400000 0.03126431
v 0.00301358 0.00379953 0.03126431
v 0.00199927 0.00379953 0.03462932
f 1 2 3
f 1 3 4
f 1 4 5
f 1 5 9
f 1 9 6
f 1 6 11
f 1 11 16
f 1 16 17
f 1 17 13
f 1 13 12
f 1 12 7
f 1 7 2
f 2 7 3
f 3 7 12
f 3 12 8
f 3 8 14
f 3 14 18
f 3 18 15
f 3 15 10
f 3 10 9
f 3 9 5
f 3 5 4
f 6 9 10
f 6 10 11
f 8 12 13
f 8 13 14
f 10 15 16
f 10 16 11
f 13 17 14
f 14 17 18
f 15 18 17
f 15 17 16

