# https://github.com/mikedh/trimesh
v -0.00479905 0.00535163 -0.02515187
v -0.00480328 0.00547146 -0.02140710
v -0.00479905 0.00604803 -0.02515187
v 0.00026208 0.00530526 -0.02515187
v -0.00479905 0.00530526 -0.02515134
v -0.00480328 0.00504426 -0.02115291
v -0.00480328 0.00618468 -0.01979756
v -0.00479905 0.00819303 -0.02267388
v -0.00479905 0.00756599 -0.02349253
v -0.00479905 0.00664430 -0.02469379
v 0.00320718 0.00608004 -0.02515187
v -0.00479799 0.00504467 -0.02349201
v 0.00595558 0.00530526 -0.02515187
v -0.00480328 0.00504426 -0.01979756
v -0.00479905 0.00504426 -0.02180123
v -0.00479905 0.00923620 -0.01979756
v -0.00479905 0.00916684 -0.02032429
v -0.00479905 0.00878233 -0.02125301
v 0.00549875 0.00914838 -0.02039138
v 0.00549875 0.00878848 -0.02125249
v 0.00549875 0.00819303 -0.02267388
v 0.00549875 0.00812327 -0.02279337
v 0.00171295 0.00757953 -0.02349253
v 0.00549981 0.00664430 -0.02469379
v 0.00549981 0.00649615 -0.02483897
v 0.00549981 0.00608004 -0.02515187
v 0.00549875 0.00504467 -0.02349201
v 0.00580859 0.00556872 -0.02515187
v 0.00599894 0.00615021 -0.02447786
v 0.00599894 0.00530526 -0.02509369
v 0.00549875 0.00504426 -0.01979756
v 0.00549875 0.00504426 -0.02180123
v 0.00549875 0.00922881 -0.01979756
v 0.00600000 0.00866989 -0.02023519
v 0.00600000 0.00866660 -0.02025878
v 0.00600000 0.00769402 -0.02253708
v 0.00549981 0.00757953 -0.02349253
v 0.00600000 0.00693525 -0.02349201
v 0.00600000 0.00687041 -0.02349201
v 0.00599894 0.00530526 -0.02376193
v 0.00600000 0.00771126 -0.01979756
v 0.00600000 0.00872857 -0.01979756
v 0.00600000 0.00687041 -0.02181276
f 1 2 3
f 1 3 11
f 1 11 26
f 1 26 28
f 1 28 13
f 1 13 4
f 1 4 5
f 1 5 2
f 2 6 14
f 2 14 7
f 2 7 8
f 2 8 9
f 2 9 10
f 2 10 3
f 2 5 6
f 3 10 11
f 4 12 5
f 4 13 27
f 4 27 12
f 5 12 6
f 6 12 15
f 6 15 32
f 6 32 31
f 6 31 14
f 7 14 31
f 7 31 41
f 7 41 42
f 7 42 33
f 7 33 16
f 7 16 17
f 7 17 18
f 7 18 8
f 8 18 19
f 8 19 20
f 8 20 21
f 8 21 22
f 8 22 9
f 9 22 23
f 9 23 10
f 10 23 37
f 10 37 24
f 10 24 25
f 10 25 11
f 11 25 26
f 12 27 32
f 12 32 15
f 13 28 29
f 13 29 30
f 13 30 27
f 16 33 17
f 17 33 19
f 17 19 18
f 19 33 34
f 19 34 35
f 19 35 20
f 20 35 21
f 21 35 36
f 21 36 22
f 22 36 37
f 22 37 23
f 24 37 36
f 24 36 38
f 24 38 29
f 24 29 25
f 25 29 26
f 26 29 28
f 27 30 32
f 29 38 30
f 30 38 39
f 30 39 43
f 30 43 40
f 30 40 31
f 30 31 32
f 31 40 41
f 33 42 34
f 34 42 41
f 34 41 43
f 34 43 39
f 34 39 38
f 34 38 36
f 34 36 35
f 40 43 41

