# https://github.com/mikedh/trimesh
v 0.00649450 -0.01400000 -0.00939867
v 0.00649450 -0.01379951 -0.00959952
v 0.00700012 -0.01400000 -0.00939867
v 0.00649450 -0.01400000 0.00329914
v 0.00649450 -0.01230025 -0.00973688
v 0.00700012 -0.01379951 -0.00959952
v 0.00739992 -0.01400000 -0.00929241
v 0.00700012 -0.01400000 0.00329914
v 0.00649450 -0.01379951 0.00350000
v 0.00649450 -0.01120050 -0.00973688
v 0.00749984 -0.01379951 -0.00946475
v 0.00786590 -0.01379951 -0.00909933
v 0.00769274 -0.01400000 -0.00899955
v 0.00739992 -0.01400000 0.00319159
v 0.00700012 -0.01379951 0.00350000
v 0.00649450 -0.01269976 0.00350000
v 0.00649450 -0.01100558 -0.00952825
v 0.00687132 -0.01100558 -0.00958138
v 0.00700012 -0.01100558 -0.00959952
v 0.00749984 -0.01100558 -0.00946475
v 0.00786590 -0.01100558 -0.00909933
v 0.00800000 -0.01379951 -0.00859914
v 0.00779988 -0.01400000 -0.00859914
v 0.00786590 -0.01379951 0.00299981
v 0.00749984 -0.01379951 0.00336394
v 0.00769274 -0.01400000 0.00289873
v 0.00669949 -0.01100558 0.00350000
v 0.00749984 -0.01100558 0.00336394
v 0.00700115 -0.01100558 0.00349870
v 0.00650010 -0.01100558 0.00350000
v 0.00649450 -0.01250044 0.00329914
v 0.00649450 -0.01100558 -0.00617076
v 0.00800000 -0.01100558 -0.00859914
v 0.00800000 -0.01379951 0.00249962
v 0.00779988 -0.01400000 0.00249962
v 0.00786354 -0.01100558 0.00300240
v 0.00779929 -0.01100558 0.00309959
v 0.00796773 -0.01100558 0.00274323
v 0.00795992 -0.01100558 0.00277174
v 0.00800000 -0.01100558 0.00249962
f 1 2 6
f 1 6 3
f 1 3 7
f 1 7 13
f 1 13 23
f 1 23 35
f 1 35 26
f 1 26 14
f 1 14 8
f 1 8 4
f 1 4 9
f 1 9 16
f 1 16 31
f 1 31 32
f 1 32 17
f 1 17 10
f 1 10 5
f 1 5 2
f 2 5 6
f 3 6 7
f 4 8 15
f 4 15 9
f 5 10 20
f 5 20 11
f 5 11 6
f 6 11 7
f 7 11 12
f 7 12 13
f 8 14 15
f 9 15 27
f 9 27 30
f 9 30 16
f 10 17 18
f 10 18 19
f 10 19 20
f 11 20 21
f 11 21 12
f 12 21 33
f 12 33 22
f 12 22 13
f 13 22 23
f 14 24 25
f 14 25 15
f 14 26 24
f 15 25 28
f 15 28 29
f 15 29 27
f 16 30 31
f 17 32 30
f 17 30 27
f 17 27 29
f 17 29 28
f 17 28 37
f 17 37 36
f 17 36 39
f 17 39 38
f 17 38 40
f 17 40 33
f 17 33 21
f 17 21 20
f 17 20 19
f 17 19 18
f 22 33 40
f 22 40 34
f 22 34 35
f 22 35 23
f 24 36 37
f 24 37 25
f 24 26 35
f 24 35 34
f 24 34 38
f 24 38 39
f 24 39 36
f 25 37 28
f 30 32 31
f 34 40 38

