# https://github.com/mikedh/trimesh
v 0.00246098 -0.01097355 0.02717620
v 0.00246098 -0.01079933 0.02700080
v 0.00670009 -0.01100000 0.02598184
v 0.00292838 -0.01099942 0.02720076
v 0.00312900 -0.01099885 0.03079906
v 0.00246098 -0.00949813 0.02924016
v 0.00650001 -0.01079990 0.02598184
v 0.00246098 -0.00512650 0.02700080
v 0.00650001 -0.00950331 0.02598086
v 0.00599520 -0.01100000 0.02706860
v 0.00777478 -0.01100000 0.02598184
v 0.00599520 -0.01100000 0.03060156
v 0.00499968 -0.01099885 0.03079906
v 0.00312900 -0.01079875 0.03099951
v 0.00246098 -0.00512765 0.02924016
v 0.00246098 -0.00512650 0.02844818
v 0.00650001 -0.00512650 0.02598086
v 0.00799980 -0.00950331 0.02598086
v 0.00779918 -0.01100000 0.02800109
v 0.00780243 -0.01099713 0.02598184
v 0.00607165 -0.01100000 0.03058583
v 0.00614811 -0.01079990 0.03077056
v 0.00599520 -0.01079990 0.03080152
v 0.00537869 -0.01079933 0.03092434
v 0.00499968 -0.01079875 0.03099951
v 0.00537869 -0.00949928 0.03100000
v 0.00312900 -0.00512650 0.03099951
v 0.00799980 -0.00512650 0.02598086
v 0.00799980 -0.01079990 0.02598184
v 0.00758663 -0.01100000 0.02907115
v 0.00799980 -0.01079990 0.02800109
v 0.00697988 -0.01100000 0.02997908
v 0.00712086 -0.01079990 0.03012008
v 0.00799980 -0.00949928 0.03100000
v 0.00537869 -0.00512650 0.03100000
v 0.00799980 -0.00512650 0.03100000
v 0.00777098 -0.01079990 0.02914730
f 1 2 3
f 1 3 4
f 1 4 5
f 1 5 6
f 1 6 15
f 1 15 16
f 1 16 8
f 1 8 2
f 2 7 3
f 2 8 17
f 2 17 9
f 2 9 7
f 3 10 4
f 3 7 9
f 3 9 18
f 3 18 11
f 3 11 19
f 3 19 30
f 3 30 32
f 3 32 21
f 3 21 12
f 3 12 10
f 4 10 12
f 4 12 5
f 5 12 13
f 5 13 25
f 5 25 14
f 5 14 6
f 6 14 27
f 6 27 15
f 8 16 27
f 8 27 35
f 8 35 36
f 8 36 28
f 8 28 17
f 9 17 28
f 9 28 18
f 11 18 20
f 11 20 19
f 12 21 22
f 12 22 23
f 12 23 24
f 12 24 13
f 13 24 25
f 14 25 34
f 14 34 26
f 14 26 35
f 14 35 27
f 15 27 16
f 18 29 20
f 18 28 36
f 18 36 34
f 18 34 31
f 18 31 29
f 19 20 31
f 19 31 30
f 20 29 31
f 21 32 22
f 22 32 33
f 22 33 34
f 22 34 23
f 23 34 24
f 24 34 25
f 26 34 36
f 26 36 35
f 30 31 37
f 30 37 32
f 31 34 37
f 32 37 33
f 33 37 34

