# https://github.com/mikedh/trimesh
v -0.00799933 -0.00808128 -0.00735076
v -0.00788030 -0.00808128 -0.00811090
v 0.00661556 -0.00808301 -0.00811117
v -0.00799933 -0.00808128 -0.00726801
v -0.00799933 -0.00699253 -0.00795821
v -0.00799933 -0.00546240 -0.00809973
v -0.00799933 0.00546658 -0.00809973
v -0.00479821 0.00949788 -0.00811669
v -0.00479821 -0.00335761 -0.00811669
v -0.00479977 -0.00751354 -0.00811642
v -0.00469171 -0.00751527 -0.00811642
v -0.00112726 -0.00751354 -0.00811669
v 0.00788254 -0.00808301 -0.00811117
v 0.00661556 -0.00808301 -0.00774787
v -0.00658513 -0.00808128 -0.00726801
v 0.00532509 -0.00800165 -0.00688787
v -0.00379903 -0.00751527 -0.00680042
v -0.00663525 -0.00335935 -0.00680015
v -0.00799933 -0.00751354 -0.00726801
v -0.00799933 0.00699325 -0.00795821
v -0.00795391 0.00729269 -0.00804428
v -0.00786308 0.00749348 -0.00808207
v -0.00770490 0.00770292 -0.00809779
v -0.00749817 0.00786043 -0.00808207
v -0.00663525 0.00949788 -0.00735049
v -0.00381626 0.00960000 -0.00811669
v 0.00130177 -0.00751354 -0.00811669
v 0.00800000 -0.00751700 -0.00735063
v 0.00788254 -0.00808301 -0.00774787
v 0.00549580 -0.00751354 -0.00811614
v 0.00599695 -0.00459002 -0.00811669
v 0.00599852 0.00457516 -0.00811669
v 0.00599852 0.00899764 -0.00811669
v 0.00800000 0.00546658 -0.00809973
v 0.00800000 0.00464613 -0.00809986
v 0.00800000 -0.00546760 -0.00809986
v 0.00800000 -0.00699599 -0.00795835
v -0.00649743 -0.00808128 -0.00726980
v 0.00546917 -0.00800165 -0.00692001
v 0.00800000 -0.00751700 -0.00733587
v 0.00633210 -0.00334550 -0.00670760
v 0.00499621 -0.00751354 -0.00680001
v 0.00220071 -0.00751354 -0.00680001
v -0.00112726 -0.00334550 -0.00670760
v -0.00663525 0.00949788 -0.00680015
v -0.00799933 0.00699325 -0.00735476
v -0.00792259 0.00727885 -0.00735476
v -0.00786308 0.00749348 -0.00735476
v -0.00379747 0.00960000 -0.00804966
v 0.00381380 0.00960000 -0.00811669
v 0.00549736 0.00949788 -0.00811669
v 0.00775412 0.00765272 -0.00809724
v 0.00786531 0.00749694 -0.00808262
v 0.00796554 0.00725288 -0.00803490
v 0.00800000 0.00699844 -0.00795849
v 0.00800000 -0.00600418 -0.00733573
v 0.00633210 0.00949788 -0.00670760
v -0.00112726 0.00949788 -0.00670760
v -0.00249917 0.00960000 -0.00730056
v -0.00324933 0.00960000 -0.00750042
v 0.00379501 0.00960000 -0.00804966
v 0.00633210 0.00949788 -0.00735049
v 0.00786375 0.00749867 -0.00735683
v 0.00786531 0.00749521 -0.00735683
v 0.00799843 0.00700017 -0.00735683
v 0.00800000 0.00698978 -0.00735683
v 0.00800000 -0.00335761 -0.00733573
v 0.00324687 0.00960000 -0.00750083
v 0.00249827 0.00960000 -0.00730014
f 1 2 3
f 1 3 14
f 1 14 4
f 1 4 19
f 1 19 46
f 1 46 20
f 1 20 7
f 1 7 6
f 1 6 5
f 1 5 2
f 2 5 6
f 2 6 7
f 2 7 8
f 2 8 9
f 2 9 10
f 2 10 11
f 2 11 12
f 2 12 3
f 3 13 29
f 3 29 14
f 3 12 27
f 3 27 13
f 4 14 29
f 4 29 15
f 4 15 16
f 4 16 17
f 4 17 18
f 4 18 45
f 4 45 19
f 7 20 21
f 7 21 22
f 7 22 23
f 7 23 8
f 8 23 24
f 8 24 25
f 8 25 26
f 8 26 50
f 8 50 51
f 8 51 33
f 8 33 32
f 8 32 31
f 8 31 27
f 8 27 12
f 8 12 9
f 9 12 10
f 10 12 11
f 13 28 40
f 13 40 29
f 13 27 30
f 13 30 31
f 13 31 32
f 13 32 33
f 13 33 34
f 13 34 35
f 13 35 36
f 13 36 37
f 13 37 28
f 15 38 16
f 15 29 38
f 16 38 29
f 16 29 39
f 16 39 40
f 16 40 41
f 16 41 42
f 16 42 43
f 16 43 17
f 17 43 44
f 17 44 18
f 18 44 58
f 18 58 45
f 19 45 46
f 20 46 21
f 21 46 47
f 21 47 48
f 21 48 22
f 22 48 45
f 22 45 25
f 22 25 23
f 23 25 24
f 25 45 26
f 26 49 60
f 26 60 59
f 26 59 69
f 26 69 68
f 26 68 61
f 26 61 50
f 26 45 49
f 27 31 30
f 28 37 36
f 28 36 35
f 28 35 34
f 28 34 55
f 28 55 66
f 28 66 67
f 28 67 56
f 28 56 40
f 29 40 39
f 33 51 52
f 33 52 34
f 34 53 54
f 34 54 55
f 34 52 53
f 40 56 41
f 41 57 58
f 41 58 44
f 41 44 43
f 41 43 42
f 41 56 67
f 41 67 57
f 45 58 59
f 45 59 60
f 45 60 49
f 45 48 47
f 45 47 46
f 50 61 57
f 50 57 62
f 50 62 51
f 51 62 52
f 52 62 57
f 52 57 63
f 52 63 53
f 53 64 54
f 53 63 64
f 54 64 65
f 54 65 66
f 54 66 55
f 57 61 68
f 57 68 69
f 57 69 58
f 57 67 66
f 57 66 65
f 57 65 64
f 57 64 63
f 58 69 59

