# https://github.com/mikedh/trimesh
v -0.00649612 -0.01379973 -0.00298080
v -0.00649612 -0.01399978 -0.00237243
v -0.00649612 -0.01270020 -0.00298016
v 0.00649448 -0.01277980 -0.00297192
v 0.00649448 -0.01379973 -0.00297192
v 0.00649448 -0.01399963 -0.00236926
v -0.00649612 -0.01399978 0.00329953
v -0.00000082 -0.01400051 -0.00149889
v -0.00074979 -0.01400051 -0.00129780
v -0.00129785 -0.01400051 -0.00074906
v -0.00149876 -0.01400051 0.00000141
v -0.00649612 -0.01250015 -0.00233120
v 0.00649448 -0.01250044 -0.00232929
v 0.00649448 -0.01270049 -0.00297128
v 0.00649448 -0.01399963 -0.00229694
v 0.00149584 -0.01400051 0.00000141
v 0.00129620 -0.01400051 -0.00074906
v 0.00074815 -0.01400051 -0.00129780
v -0.00588576 -0.01399978 0.00329953
v -0.00649612 -0.01399258 0.00330715
v -0.00129785 -0.01400051 0.00074870
v -0.00074979 -0.01400051 0.00129807
v -0.00480363 -0.01399993 0.00329890
v -0.00649612 -0.01250015 0.00329953
v -0.00480363 -0.01250000 -0.00179832
v 0.00191674 -0.01250000 -0.00179832
v 0.00583960 -0.01250015 -0.00186683
v 0.00649448 -0.01250044 -0.00229694
v 0.00649320 -0.01379973 0.00349936
v 0.00649320 -0.01399963 0.00329890
v 0.00129620 -0.01400051 0.00074870
v 0.00191674 -0.01399993 0.00329890
v -0.00649612 -0.01379973 0.00350000
v 0.00583960 -0.01398142 0.00331730
v -0.00588576 -0.01397481 0.00332491
v -0.00588576 -0.01385437 0.00344544
v -0.00000082 -0.01400051 0.00149981
v -0.00649612 -0.01270005 0.00349936
v -0.00588576 -0.01268551 0.00348541
v -0.00588576 -0.01250015 0.00329953
v -0.00480363 -0.01250000 0.00329890
v 0.00191674 -0.01250000 0.00329890
v 0.00583960 -0.01250015 0.00278442
v 0.00649320 -0.01250044 0.00329890
v 0.00649320 -0.01270049 0.00349936
v -0.00588576 -0.01379973 0.00350000
v 0.00074815 -0.01400051 0.00129807
v -0.00649612 -0.01375890 0.00350000
v -0.00588576 -0.01269065 0.00349048
v -0.00588576 -0.01370911 0.00350000
v 0.00191674 -0.01270005 0.00349936
f 1 2 7
f 1 7 20
f 1 20 33
f 1 33 48
f 1 48 38
f 1 38 24
f 1 24 12
f 1 12 3
f 1 3 4
f 1 4 5
f 1 5 6
f 1 6 2
f 2 6 8
f 2 8 9
f 2 9 10
f 2 10 11
f 2 11 7
f 3 12 13
f 3 13 14
f 3 14 4
f 4 14 13
f 4 13 28
f 4 28 15
f 4 15 6
f 4 6 5
f 6 15 16
f 6 16 17
f 6 17 18
f 6 18 8
f 7 19 20
f 7 11 21
f 7 21 22
f 7 22 23
f 7 23 32
f 7 32 19
f 8 18 17
f 8 17 16
f 8 16 31
f 8 31 47
f 8 47 37
f 8 37 22
f 8 22 21
f 8 21 11
f 8 11 10
f 8 10 9
f 12 24 41
f 12 41 25
f 12 25 26
f 12 26 13
f 13 26 27
f 13 27 43
f 13 43 28
f 15 28 45
f 15 45 29
f 15 29 30
f 15 30 16
f 16 30 31
f 19 32 20
f 20 32 30
f 20 30 34
f 20 34 29
f 20 29 35
f 20 35 36
f 20 36 33
f 22 37 23
f 23 37 32
f 24 38 39
f 24 39 40
f 24 40 42
f 24 42 41
f 25 41 42
f 25 42 26
f 26 42 43
f 26 43 27
f 28 43 44
f 28 44 45
f 29 46 36
f 29 36 35
f 29 34 30
f 29 45 50
f 29 50 46
f 30 32 37
f 30 37 47
f 30 47 31
f 33 36 46
f 33 46 50
f 33 50 48
f 38 49 39
f 38 48 50
f 38 50 51
f 38 51 49
f 39 49 51
f 39 51 42
f 39 42 40
f 42 51 45
f 42 45 44
f 42 44 43
f 45 51 50

