# https://github.com/mikedh/trimesh
v 0.00620606 -0.00174989 -0.01876836
v 0.00620606 -0.00111006 -0.01946232
v 0.00769986 -0.00174989 -0.01876836
v 0.00620606 -0.00019824 -0.01580987
v 0.00769986 -0.00110717 -0.01946504
v 0.00620606 -0.00021596 -0.01978827
v 0.00769986 -0.00019824 -0.01580987
v 0.00769986 0.00073999 -0.01594228
v 0.00620606 0.00074324 -0.01594422
v 0.00769986 -0.00021596 -0.01978827
v 0.00620606 0.00072335 -0.01966443
v 0.00769986 0.00151220 -0.01649176
v 0.00620606 0.00151401 -0.01649488
v 0.00769986 0.00072335 -0.01966443
v 0.00620606 0.00149737 -0.01912390
v 0.00769986 0.00150062 -0.01912196
v 0.00769986 0.00194514 -0.01733487
v 0.00620606 0.00194514 -0.01733487
v 0.00620606 0.00193899 -0.01828585
v 0.00769986 0.00194080 -0.01828235
f 1 2 3
f 1 3 7
f 1 7 4
f 1 4 9
f 1 9 13
f 1 13 18
f 1 18 19
f 1 19 15
f 1 15 11
f 1 11 6
f 1 6 2
f 2 5 3
f 2 6 5
f 3 5 10
f 3 10 14
f 3 14 16
f 3 16 20
f 3 20 17
f 3 17 12
f 3 12 8
f 3 8 7
f 4 7 8
f 4 8 9
f 5 6 10
f 6 11 14
f 6 14 10
f 8 12 9
f 9 12 13
f 11 15 16
f 11 16 14
f 12 17 13
f 13 17 18
f 15 19 16
f 16 19 20
f 17 20 18
f 18 20 19

