# https://github.com/mikedh/trimesh
v 0.00650054 -0.01100529 -0.00599665
v 0.00649451 -0.01100328 -0.00774801
v 0.00799967 -0.01100529 -0.00599665
v 0.00650054 -0.01100529 0.00350035
v 0.00649483 -0.00785202 -0.00774471
v 0.00650021 -0.00832772 -0.00774801
v 0.00799984 -0.01100328 -0.00774801
v 0.00649451 -0.01100328 -0.00616849
v 0.00633459 -0.00335996 -0.00734818
v 0.00633459 -0.00335595 -0.00735148
v 0.00633459 0.00708738 -0.00735478
v 0.00633459 0.00799863 -0.00735478
v 0.00799967 -0.01100529 0.00249910
v 0.00700117 -0.01100529 0.00350035
v 0.00670040 -0.01099726 0.02597724
v 0.00650054 -0.01079453 0.02597724
v 0.00649744 -0.00751882 -0.00774471
v 0.00633459 0.00950000 -0.00734818
v 0.00799984 -0.00832772 -0.00774801
v 0.00799984 -0.01100328 -0.00599665
v 0.00633459 -0.00334792 0.00658340
v 0.00796772 -0.01100529 0.00274363
v 0.00799984 -0.01079453 0.02597724
v 0.00780226 -0.01099324 0.02597724
v 0.00777503 -0.01099726 0.02597724
v 0.00749969 -0.01100529 0.00336486
v 0.00649744 -0.00512427 0.02600698
v 0.00649190 -0.00334792 0.02600367
v 0.00783258 -0.00751882 -0.00774471
v 0.00799984 0.00950000 -0.00734818
v 0.00633459 0.00950000 0.00658340
v 0.00649190 0.00047374 0.02601028
v 0.00795990 -0.01100529 0.00277006
v 0.00799984 -0.00512427 0.02600698
v 0.00779916 -0.01100529 0.00310051
v 0.00786323 -0.01100529 0.00300468
v 0.00799984 0.00950000 0.02600698
v 0.00649190 0.00400637 0.02601028
v 0.00649206 0.00950000 0.02600698
v 0.00799984 0.00047374 0.02601028
v 0.00799984 0.00400637 0.02601028
f 1 2 7
f 1 7 3
f 1 3 13
f 1 13 22
f 1 22 33
f 1 33 36
f 1 36 35
f 1 35 26
f 1 26 14
f 1 14 4
f 1 4 8
f 1 8 2
f 2 5 6
f 2 6 19
f 2 19 7
f 2 8 9
f 2 9 10
f 2 10 11
f 2 11 12
f 2 12 5
f 3 7 20
f 3 20 13
f 4 14 25
f 4 25 15
f 4 15 16
f 4 16 8
f 5 17 6
f 5 12 18
f 5 18 17
f 6 17 29
f 6 29 19
f 7 19 30
f 7 30 37
f 7 37 41
f 7 41 40
f 7 40 34
f 7 34 23
f 7 23 20
f 8 16 21
f 8 21 9
f 9 21 31
f 9 31 18
f 9 18 12
f 9 12 11
f 9 11 10
f 13 20 23
f 13 23 24
f 13 24 25
f 13 25 22
f 14 26 25
f 15 25 34
f 15 34 27
f 15 27 16
f 16 27 28
f 16 28 21
f 17 18 30
f 17 30 29
f 18 31 39
f 18 39 37
f 18 37 30
f 19 29 30
f 21 28 32
f 21 32 38
f 21 38 31
f 22 25 33
f 23 34 24
f 24 34 25
f 25 26 35
f 25 35 36
f 25 36 33
f 27 34 40
f 27 40 32
f 27 32 28
f 31 38 39
f 32 40 41
f 32 41 38
f 37 39 38
f 37 38 41

