# https://github.com/mikedh/trimesh
v -0.00599988 -0.00549372 -0.01979811
v -0.00599988 -0.00491997 -0.02098822
v -0.00479732 -0.00653276 -0.02322957
v -0.00479732 -0.00653276 -0.01979763
v -0.00579946 0.00118063 -0.01939170
v -0.00599876 0.00150596 -0.01939170
v -0.00599988 0.00544021 -0.01979811
v -0.00599988 -0.00458077 -0.02135967
v 0.00549768 -0.00653276 -0.02322957
v -0.00599988 -0.00418861 -0.02178891
v -0.00599876 -0.00361739 -0.02241188
v -0.00599876 -0.00192768 -0.02333784
v -0.00479732 -0.00536258 -0.02349128
v 0.00549768 -0.00653276 -0.01979763
v -0.00480182 0.00118063 -0.01939170
v -0.00599876 0.00562053 -0.01939170
v -0.00479732 0.00504300 -0.02349128
v -0.00599988 0.00489295 -0.02102901
v 0.00549768 -0.00536258 -0.02349128
v 0.00550331 -0.00557568 -0.02318344
v 0.00550331 -0.00606116 -0.02285763
v 0.00550331 -0.00638523 -0.02237061
v 0.00550331 -0.00649872 -0.02179959
v -0.00599988 0.00030299 -0.02361024
v -0.00599876 -0.00002486 -0.02366317
v -0.00480295 -0.00002738 -0.02435218
v 0.00550331 -0.00649872 -0.01979763
v -0.00480182 0.00634937 -0.01939170
v -0.00510359 0.00617536 -0.01939170
v -0.00599988 0.00418554 -0.02179279
v -0.00480182 0.00634433 -0.01943151
v 0.00549768 0.00504300 -0.02349128
v -0.00480295 0.00209988 -0.02400500
v -0.00599988 0.00188047 -0.02335338
v -0.00599988 0.00358027 -0.02244199
v 0.00550331 -0.00499815 -0.02329851
v 0.00550331 -0.00536384 -0.02322714
v -0.00480295 0.00076199 -0.02422351
v 0.00550331 0.00503544 -0.01979763
v 0.00549768 0.00504300 -0.01979763
v 0.00550331 0.00476180 -0.02055122
v 0.00550331 0.00353235 -0.02201178
v 0.00550331 0.00187795 -0.02296688
v 0.00550331 -0.00000090 -0.02329851
f 1 2 3
f 1 3 4
f 1 4 5
f 1 5 6
f 1 6 16
f 1 16 7
f 1 7 18
f 1 18 30
f 1 30 35
f 1 35 34
f 1 34 24
f 1 24 10
f 1 10 8
f 1 8 2
f 2 8 3
f 3 9 14
f 3 14 4
f 3 8 10
f 3 10 11
f 3 11 12
f 3 12 13
f 3 13 19
f 3 19 9
f 4 14 15
f 4 15 5
f 5 15 28
f 5 28 29
f 5 29 16
f 5 16 6
f 7 16 17
f 7 17 18
f 9 19 20
f 9 20 21
f 9 21 22
f 9 22 23
f 9 23 27
f 9 27 14
f 10 12 11
f 10 24 12
f 12 24 25
f 12 25 13
f 13 25 26
f 13 26 19
f 14 27 15
f 15 27 39
f 15 39 28
f 16 29 17
f 17 30 18
f 17 29 31
f 17 31 32
f 17 32 33
f 17 33 34
f 17 34 35
f 17 35 30
f 19 36 37
f 19 37 20
f 19 26 32
f 19 32 44
f 19 44 36
f 20 37 36
f 20 36 44
f 20 44 43
f 20 43 42
f 20 42 41
f 20 41 39
f 20 39 27
f 20 27 23
f 20 23 22
f 20 22 21
f 24 34 26
f 24 26 25
f 26 34 38
f 26 38 32
f 28 39 40
f 28 40 32
f 28 32 31
f 28 31 29
f 32 38 33
f 32 40 39
f 32 39 41
f 32 41 42
f 32 42 43
f 32 43 44
f 33 38 34

