# https://github.com/mikedh/trimesh
v -0.00480000 -0.00220594 -0.02682159
v -0.00479789 -0.00368565 -0.02638802
v -0.00479789 -0.00536362 -0.02560046
v -0.00480000 -0.00220594 -0.02528121
v -0.00480000 -0.00199871 -0.02688239
v -0.00479789 -0.00024905 -0.02755000
v -0.00429890 -0.00375958 -0.02689601
v -0.00429890 -0.00387047 -0.02685187
v -0.00479789 -0.00536362 -0.02528051
v -0.00429890 -0.00536362 -0.02610140
v -0.00480000 0.00114889 -0.02515234
v -0.00480000 0.00114889 -0.02736502
v -0.00480000 0.00175488 -0.02728568
v -0.00479789 0.00175488 -0.02728591
v 0.00445865 0.00175488 -0.02732112
v 0.00549996 0.00193859 -0.02730070
v 0.00549996 0.00175488 -0.02732183
v 0.00549784 -0.00024905 -0.02755000
v 0.00510141 -0.00064782 -0.02754108
v 0.00510141 -0.00072287 -0.02753427
v -0.00429890 -0.00209393 -0.02737347
v -0.00429890 -0.00220594 -0.02734155
v -0.00333794 -0.00220594 -0.02734507
v 0.00549996 -0.00323759 -0.02708075
v 0.00549996 -0.00536362 -0.02610140
v 0.00599471 -0.00536362 -0.02528051
v -0.00479789 0.00019564 -0.02515187
v -0.00480000 0.00175488 -0.02515234
v -0.00479789 0.00604615 -0.02515187
v -0.00479789 0.00462357 -0.02624389
v -0.00479789 0.00227351 -0.02721713
v 0.00599894 0.00182545 -0.02681361
v 0.00549996 0.00227351 -0.02721713
v 0.00560568 0.00019564 -0.02739202
v 0.00557608 -0.00030954 -0.02747136
v 0.00549996 -0.00030954 -0.02754836
v 0.00549996 -0.00066462 -0.02754037
v 0.00549784 -0.00088193 -0.02751620
v 0.00549784 -0.00203456 -0.02738474
v 0.00549996 -0.00220594 -0.02734155
v 0.00600000 -0.00308413 -0.02660469
v 0.00600000 -0.00536362 -0.02560046
v 0.00600000 -0.00536362 -0.02534811
v 0.00600000 -0.00535914 -0.02528051
v 0.00549784 0.00019564 -0.02515234
v 0.00474092 0.00019564 -0.02515187
v 0.00320803 0.00607975 -0.02515187
v 0.00549996 0.00438162 -0.02637816
v 0.00549996 0.00462357 -0.02624389
v 0.00599894 0.00175488 -0.02682042
v 0.00599894 0.00414415 -0.02593896
v 0.00600000 0.00019564 -0.02696432
v 0.00600000 -0.00030954 -0.02701079
v 0.00599894 -0.00064334 -0.02704084
v 0.00549996 -0.00088081 -0.02751549
v 0.00558136 -0.00220594 -0.02725751
v 0.00600000 -0.00220594 -0.02676173
v 0.00600000 -0.00261479 -0.02528051
v 0.00599894 0.00308785 -0.02515187
v 0.00549996 0.00175488 -0.02515187
v 0.00549996 0.00607975 -0.02515187
v 0.00580759 0.00556673 -0.02515187
v 0.00599894 0.00522397 -0.02515187
v 0.00600000 0.00019564 -0.02572018
f 1 2 3
f 1 3 9
f 1 9 4
f 1 4 11
f 1 11 28
f 1 28 13
f 1 13 12
f 1 12 5
f 1 5 6
f 1 6 2
f 2 7 8
f 2 8 3
f 2 6 7
f 3 8 10
f 3 10 25
f 3 25 42
f 3 42 43
f 3 43 26
f 3 26 9
f 4 9 11
f 5 12 6
f 6 12 13
f 6 13 14
f 6 14 15
f 6 15 16
f 6 16 17
f 6 17 18
f 6 18 19
f 6 19 20
f 6 20 21
f 6 21 22
f 6 22 7
f 7 22 23
f 7 23 24
f 7 24 8
f 8 24 25
f 8 25 10
f 9 26 46
f 9 46 27
f 9 27 11
f 11 27 29
f 11 29 28
f 13 28 29
f 13 29 30
f 13 30 31
f 13 31 14
f 14 31 15
f 15 31 16
f 16 32 17
f 16 31 33
f 16 33 32
f 17 32 34
f 17 34 18
f 18 34 35
f 18 35 36
f 18 36 37
f 18 37 19
f 19 37 20
f 20 37 38
f 20 38 39
f 20 39 21
f 21 39 23
f 21 23 22
f 23 39 40
f 23 40 24
f 24 40 41
f 24 41 42
f 24 42 25
f 26 43 44
f 26 44 45
f 26 45 46
f 27 46 60
f 27 60 59
f 27 59 63
f 27 63 62
f 27 62 61
f 27 61 47
f 27 47 29
f 29 47 30
f 30 48 31
f 30 47 61
f 30 61 49
f 30 49 48
f 31 48 33
f 32 50 34
f 32 33 51
f 32 51 52
f 32 52 50
f 33 48 51
f 34 50 35
f 35 50 52
f 35 52 53
f 35 53 54
f 35 54 36
f 36 54 37
f 37 54 55
f 37 55 39
f 37 39 38
f 39 55 54
f 39 54 56
f 39 56 40
f 40 56 41
f 41 56 57
f 41 57 53
f 41 53 52
f 41 52 64
f 41 64 58
f 41 58 44
f 41 44 43
f 41 43 42
f 44 58 63
f 44 63 59
f 44 59 45
f 45 59 60
f 45 60 46
f 48 49 51
f 49 61 62
f 49 62 63
f 49 63 51
f 51 63 52
f 52 63 64
f 53 57 54
f 54 57 56
f 58 64 63

