# https://github.com/mikedh/trimesh
v -0.00225171 0.00199772 0.03463024
v -0.00225171 0.00379952 0.03463024
v 0.00199907 0.00199772 0.03463024
v -0.00309082 0.00199772 0.03547824
v -0.00711428 0.00200007 0.03830748
v -0.00645571 0.00200007 0.03764943
v -0.00655580 0.00220036 0.03747622
v -0.00208052 0.00397002 0.03463024
v -0.00655580 0.00379952 0.03747622
v 0.00199907 0.00379952 0.03463024
v 0.00199907 0.00199772 0.03600172
v -0.00109453 0.00199772 0.03893849
v -0.00711428 0.00200007 0.04010779
v -0.00735563 0.00200007 0.03920828
v -0.00735563 0.00200047 0.03920635
v -0.00755676 0.00220036 0.03920828
v -0.00728734 0.00220036 0.03820768
v -0.00205058 0.00399980 0.03463024
v -0.00645571 0.00399980 0.03764943
v -0.00728734 0.00379952 0.03820768
v -0.00711428 0.00399980 0.03830748
v 0.00199907 0.00379952 0.03600172
v 0.00179887 0.00399980 0.03463024
v 0.00173152 0.00199772 0.03700039
v 0.00099811 0.00199772 0.03773120
v -0.00455670 0.00220056 0.04093969
v -0.00465680 0.00200007 0.04076649
v -0.00543043 0.00200007 0.04097446
v -0.00555579 0.00200007 0.04100794
v -0.00611987 0.00200007 0.04085663
v -0.00645571 0.00200007 0.04076649
v -0.00728828 0.00220036 0.04020759
v -0.00655674 0.00220036 0.04093969
v -0.00755676 0.00379971 0.03920828
v -0.00735563 0.00399980 0.03920635
v 0.00179887 0.00399980 0.03600172
v 0.00173152 0.00379952 0.03700039
v -0.00242477 0.00281455 0.03970858
v 0.00099811 0.00379952 0.03773120
v -0.00455670 0.00379952 0.04093969
v -0.00555579 0.00220056 0.04120819
v -0.00611987 0.00220036 0.04105688
v -0.00728828 0.00379971 0.04020759
v -0.00655674 0.00379971 0.04093969
v -0.00711428 0.00399980 0.04010779
v -0.00735563 0.00399980 0.03920828
v 0.00155752 0.00399980 0.03689994
v 0.00089895 0.00399980 0.03755799
v -0.00242477 0.00379952 0.03970858
v -0.00242383 0.00379991 0.03970794
v -0.00282328 0.00399980 0.03970858
v -0.00465680 0.00399980 0.04076649
v -0.00543043 0.00399980 0.04097446
v -0.00555579 0.00379952 0.04120819
v -0.00611987 0.00379971 0.04105688
v -0.00611987 0.00399980 0.04085663
v -0.00645571 0.00399980 0.04076649
v -0.00555579 0.00399980 0.04100794
f 1 2 8
f 1 8 18
f 1 18 23
f 1 23 10
f 1 10 3
f 1 3 11
f 1 11 24
f 1 24 25
f 1 25 12
f 1 12 4
f 1 4 5
f 1 5 6
f 1 6 7
f 1 7 9
f 1 9 2
f 2 9 8
f 3 10 22
f 3 22 11
f 4 12 13
f 4 13 14
f 4 14 5
f 5 14 15
f 5 15 16
f 5 16 17
f 5 17 7
f 5 7 6
f 7 17 20
f 7 20 9
f 8 9 18
f 9 19 18
f 9 20 21
f 9 21 19
f 10 23 36
f 10 36 22
f 11 22 37
f 11 37 24
f 12 25 26
f 12 26 27
f 12 27 28
f 12 28 29
f 12 29 30
f 12 30 31
f 12 31 13
f 13 32 16
f 13 16 14
f 13 31 33
f 13 33 32
f 14 16 15
f 16 32 43
f 16 43 34
f 16 34 20
f 16 20 17
f 18 19 21
f 18 21 35
f 18 35 46
f 18 46 45
f 18 45 57
f 18 57 56
f 18 56 58
f 18 58 53
f 18 53 52
f 18 52 51
f 18 51 48
f 18 48 47
f 18 47 36
f 18 36 23
f 20 34 21
f 21 34 35
f 22 36 37
f 24 37 39
f 24 39 25
f 25 38 26
f 25 39 49
f 25 49 38
f 26 38 49
f 26 49 40
f 26 40 54
f 26 54 41
f 26 41 28
f 26 28 27
f 28 41 29
f 29 42 30
f 29 41 42
f 30 42 33
f 30 33 31
f 32 33 44
f 32 44 43
f 33 42 55
f 33 55 44
f 34 43 45
f 34 45 46
f 34 46 35
f 36 47 37
f 37 47 48
f 37 48 39
f 39 48 50
f 39 50 49
f 40 51 52
f 40 52 53
f 40 53 54
f 40 49 50
f 40 50 51
f 41 54 55
f 41 55 42
f 43 44 45
f 44 55 56
f 44 56 57
f 44 57 45
f 48 51 50
f 53 58 54
f 54 58 55
f 55 58 56

