# https://github.com/mikedh/trimesh
v -0.00650032 -0.00336799 0.00658160
v -0.00649630 0.00950000 0.00658024
v -0.00799983 -0.00336799 0.00658160
v -0.00650032 -0.01079855 0.00658160
v -0.00799950 0.00950000 0.00658024
v -0.00649630 -0.00334792 0.00658024
v -0.00628988 -0.00336197 -0.00734863
v -0.00649630 0.00950000 -0.00679753
v -0.00799983 0.00950000 -0.00679890
v -0.00799983 -0.01079855 0.00658160
v -0.00670037 -0.01099926 0.00658160
v -0.00650032 -0.01100529 0.00349873
v -0.00628988 -0.00751682 -0.00734999
v -0.00628988 -0.00336197 -0.00735409
v -0.00663826 0.00950000 -0.00734999
v -0.00799983 0.00950000 -0.00734999
v -0.00799983 -0.01100529 0.00249747
v -0.00779977 -0.01099926 0.00658160
v -0.00700038 -0.01100529 0.00349873
v -0.00649630 -0.01100529 -0.00616186
v -0.00628988 -0.00751682 -0.00735409
v -0.00663826 0.00799863 -0.00735409
v -0.00700021 0.00799863 -0.00735409
v -0.00750077 0.00786215 -0.00735409
v -0.00786607 0.00749684 -0.00735409
v -0.00799983 0.00699906 -0.00735409
v -0.00796769 -0.01100529 0.00274165
v -0.00799983 -0.01100529 -0.00378286
v -0.00795982 -0.01100529 0.00277166
v -0.00786573 -0.01100529 0.00299810
v -0.00779994 -0.01100529 0.00309904
v -0.00749877 -0.01100529 0.00336504
v -0.00649630 -0.01100529 -0.00726678
v -0.00783275 -0.00751682 -0.00735409
v -0.00799983 -0.00699094 -0.00735409
v -0.00799966 -0.01100529 -0.00726678
v -0.00799983 -0.00751682 -0.00734999
v -0.00792249 -0.00738033 -0.00735409
v -0.00799950 -0.00699897 -0.00735409
f 1 2 5
f 1 5 3
f 1 3 10
f 1 10 18
f 1 18 11
f 1 11 4
f 1 4 6
f 1 6 2
f 2 6 7
f 2 7 14
f 2 14 8
f 2 8 15
f 2 15 16
f 2 16 9
f 2 9 5
f 3 5 9
f 3 9 16
f 3 16 26
f 3 26 35
f 3 35 37
f 3 37 28
f 3 28 17
f 3 17 10
f 4 11 12
f 4 12 13
f 4 13 6
f 6 13 7
f 7 13 21
f 7 21 14
f 8 14 15
f 10 17 18
f 11 18 19
f 11 19 12
f 12 19 32
f 12 32 31
f 12 31 30
f 12 30 29
f 12 29 27
f 12 27 17
f 12 17 28
f 12 28 36
f 12 36 33
f 12 33 20
f 12 20 13
f 13 20 33
f 13 33 21
f 14 22 15
f 14 21 34
f 14 34 38
f 14 38 39
f 14 39 35
f 14 35 26
f 14 26 25
f 14 25 24
f 14 24 23
f 14 23 22
f 15 22 23
f 15 23 16
f 16 23 24
f 16 24 25
f 16 25 26
f 17 27 18
f 18 27 29
f 18 29 30
f 18 30 31
f 18 31 32
f 18 32 19
f 21 33 36
f 21 36 34
f 28 37 36
f 34 37 38
f 34 36 37
f 35 39 37
f 37 39 38

