# https://github.com/mikedh/trimesh
v 0.00800000 0.00949857 0.03099945
v 0.00800000 -0.00335768 0.03099945
v 0.00800000 0.00949857 0.02601080
v 0.00399373 0.00949857 0.03099996
v 0.00272984 0.00399734 0.03126431
v 0.00301331 0.00379836 0.03126431
v 0.00800000 -0.00335768 0.02601080
v 0.00300705 -0.00335624 0.03126431
v 0.00000000 -0.00399755 0.03126380
v -0.00399217 -0.00512414 0.03099894
v 0.00333124 0.00400879 0.02601028
v 0.00000000 0.00949857 0.02601080
v 0.00000000 0.00949857 0.03099996
v 0.00000000 0.00399734 0.03126431
v 0.00649648 -0.00335768 0.02601080
v 0.00333124 -0.00334766 0.02601028
v -0.00399217 -0.00512414 0.02700133
v -0.00584651 -0.00512414 0.02690721
v 0.00000000 -0.00335624 0.03126431
v -0.00270008 -0.00399755 0.03126380
v -0.00550039 -0.00512414 0.03099945
v 0.00000000 0.00400879 0.02601028
v -0.00800000 0.00949857 0.02690721
v -0.00800000 0.00949857 0.03099945
v -0.00270008 0.00399734 0.03126380
v -0.00300705 0.00379836 0.03126380
v 0.00000000 -0.00334766 0.02601028
v -0.00799843 -0.00512414 0.02690721
v -0.00300705 -0.00379858 0.03126380
v -0.00285826 -0.00390737 0.03126380
v -0.00799843 -0.00512414 0.03099945
v -0.00800000 0.00401881 0.02690721
v -0.00800000 0.00401881 0.03099945
f 1 2 7
f 1 7 3
f 1 3 12
f 1 12 23
f 1 23 24
f 1 24 13
f 1 13 4
f 1 4 5
f 1 5 6
f 1 6 2
f 2 6 8
f 2 8 9
f 2 9 10
f 2 10 17
f 2 17 7
f 3 7 16
f 3 16 11
f 3 11 22
f 3 22 12
f 4 13 14
f 4 14 5
f 5 14 19
f 5 19 8
f 5 8 6
f 7 15 27
f 7 27 16
f 7 17 18
f 7 18 28
f 7 28 15
f 8 19 20
f 8 20 9
f 9 20 31
f 9 31 21
f 9 21 10
f 10 21 31
f 10 31 28
f 10 28 18
f 10 18 17
f 11 16 27
f 11 27 22
f 12 22 23
f 13 24 14
f 14 24 25
f 14 25 26
f 14 26 29
f 14 29 19
f 15 28 27
f 19 29 30
f 19 30 20
f 20 30 31
f 22 27 32
f 22 32 23
f 23 32 33
f 23 33 24
f 24 33 29
f 24 29 26
f 24 26 25
f 27 28 32
f 28 31 33
f 28 33 32
f 29 33 31
f 29 31 30

