# https://github.com/mikedh/trimesh
v 0.09184663 0.00122314 -0.01182605
v 0.09430648 0.00186235 -0.01169046
v 0.09736264 0.00138841 -0.01134943
v 0.08746530 -0.00257014 -0.01117070
v 0.02978738 -0.00094480 -0.00816719
v 0.01364519 0.00066718 -0.00643638
v 0.01364519 0.00190063 -0.00478260
v 0.09601262 0.00297791 -0.01013221
v 0.09824885 0.00246692 -0.00936387
v 0.09823229 0.00081544 -0.00975318
v 0.08922114 -0.00169033 -0.00783336
v 0.06737244 -0.00178633 -0.00477438
v 0.04571424 -0.00214239 -0.00379342
v 0.02216767 -0.00241217 -0.00437481
v 0.01798511 -0.00240852 -0.00435632
v 0.01390194 -0.00173954 -0.00561668
v 0.01364519 -0.00199474 -0.00283300
v 0.01364519 0.00180645 -0.00286997
v 0.09572275 0.00363595 -0.00607789
v 0.09669178 0.00352354 -0.00829970
v 0.09776848 0.00231562 -0.00675583
v 0.09822400 0.00126568 -0.00798641
v 0.08792083 -0.00095877 -0.00592689
v 0.08597449 -0.00070175 -0.00478363
v 0.08191616 -0.00115563 -0.00473741
v 0.04580535 -0.00119209 -0.00234713
v 0.01643632 -0.00059542 -0.00133227
v 0.01364519 0.00004196 -0.00140828
v 0.02357566 0.00195166 -0.00270768
v 0.08890642 0.00181435 -0.00409849
v 0.09558195 0.00216493 -0.00515753
v 0.08385422 -0.00042772 -0.00436454
f 1 2 3
f 1 3 4
f 1 4 5
f 1 5 6
f 1 6 2
f 2 6 7
f 2 7 8
f 2 8 3
f 3 8 9
f 3 9 10
f 3 10 4
f 4 10 11
f 4 11 12
f 4 12 13
f 4 13 14
f 4 14 15
f 4 15 16
f 4 16 5
f 5 16 6
f 6 16 17
f 6 17 28
f 6 28 18
f 6 18 7
f 7 18 19
f 7 19 20
f 7 20 8
f 8 20 9
f 9 20 21
f 9 21 22
f 9 22 10
f 10 22 11
f 11 23 24
f 11 24 25
f 11 25 12
f 11 22 23
f 12 25 13
f 13 25 26
f 13 26 17
f 13 17 14
f 14 17 15
f 15 17 16
f 17 26 27
f 17 27 28
f 18 28 29
f 18 29 19
f 19 30 31
f 19 31 21
f 19 21 20
f 19 29 30
f 21 31 22
f 22 31 23
f 23 31 24
f 24 31 30
f 24 30 32
f 24 32 25
f 25 32 26
f 26 32 30
f 26 30 27
f 27 30 28
f 28 30 29

