# https://github.com/mikedh/trimesh
v -0.00418732 -0.00039867 -0.01413368
v -0.00539929 0.00433513 -0.01332645
v 0.01362857 -0.00015730 -0.00350964
v -0.00404368 -0.00509502 -0.01279951
v -0.00962770 -0.00062548 -0.01401036
v -0.00466762 0.00902939 -0.00901226
v -0.03222861 0.00240623 -0.01052806
v -0.00925962 0.00713795 -0.01144516
v -0.00274194 0.00738349 0.00455369
v -0.00345116 0.00155103 0.00801132
v -0.00369804 -0.00469135 0.00719737
v -0.00441625 -0.00842013 0.00380924
v -0.00613544 -0.01073189 -0.00119558
v -0.00408857 -0.01032405 -0.00560620
v -0.00376089 -0.00859283 -0.00985312
v -0.00386862 0.01042768 -0.00422045
v -0.00402572 0.00993662 0.00089425
v -0.00864915 -0.00701559 -0.01164248
v -0.03222861 -0.00352819 -0.00998542
v -0.00925513 0.01052548 -0.00583491
v -0.03222861 0.00738557 -0.00604120
v -0.00901723 0.01025290 0.00100412
v -0.00816436 0.00603097 0.00664800
v -0.00817783 -0.00038203 0.00877371
v -0.00910700 -0.00654533 0.00653364
v -0.00950201 -0.01001817 0.00206697
v -0.03222861 -0.00736100 0.00224636
v -0.03222861 -0.00789161 -0.00548960
v -0.00965912 -0.01035110 -0.00655693
v -0.03222861 0.00759573 0.00218581
v -0.03222861 0.00434969 0.00583629
v -0.03222861 -0.00283528 0.00644844
f 1 2 3
f 1 3 4
f 1 4 5
f 1 5 2
f 2 6 3
f 2 5 7
f 2 7 8
f 2 8 6
f 3 9 10
f 3 10 11
f 3 11 12
f 3 12 13
f 3 13 14
f 3 14 15
f 3 15 4
f 3 6 16
f 3 16 17
f 3 17 9
f 4 15 18
f 4 18 5
f 5 18 19
f 5 19 7
f 6 8 20
f 6 20 16
f 7 19 28
f 7 28 27
f 7 27 32
f 7 32 31
f 7 31 30
f 7 30 21
f 7 21 8
f 8 21 20
f 9 17 22
f 9 22 23
f 9 23 10
f 10 24 11
f 10 23 24
f 11 24 25
f 11 25 12
f 12 25 26
f 12 26 13
f 13 26 27
f 13 27 28
f 13 28 29
f 13 29 14
f 14 29 15
f 15 29 18
f 16 20 22
f 16 22 17
f 18 29 28
f 18 28 19
f 20 21 30
f 20 30 22
f 22 30 23
f 23 30 31
f 23 31 24
f 24 32 25
f 24 31 32
f 25 32 27
f 25 27 26

