# https://github.com/mikedh/trimesh
v -0.03436612 -0.00012091 -0.01150227
v -0.03436612 -0.00465192 -0.01036153
v -0.03436612 0.00340710 -0.01085296
v -0.02890254 0.00156437 -0.01118847
v -0.01246892 0.00240409 -0.01052731
v -0.03115099 -0.00102089 -0.01127728
v -0.03436612 -0.00712833 -0.00844318
v -0.01246892 -0.00352840 -0.00998457
v -0.03436612 0.00603318 -0.00927802
v -0.01246892 0.00675044 -0.00815109
v -0.03436612 -0.00900799 -0.00545119
v -0.02243798 -0.00741212 -0.00727086
v -0.01246892 -0.00837236 -0.00371639
v -0.03436612 0.00856401 -0.00635313
v -0.01246892 0.00802558 -0.00392560
v -0.03436612 0.00995189 -0.00265262
v -0.03433397 -0.00990602 -0.00184147
v -0.03436612 -0.00715943 0.00544114
v -0.01246892 -0.00785531 0.00067291
v -0.02289024 0.00773206 0.00208601
v -0.01246892 0.00434790 0.00583784
v -0.03436612 0.00962339 0.00107355
v -0.03409819 -0.00938314 0.00148801
v -0.01246892 -0.00686786 0.00382081
v -0.03436612 -0.00330486 0.00821603
v -0.03375739 0.00827633 0.00386620
v -0.01247750 -0.00283835 0.00644966
v -0.03436612 0.00597486 0.00653847
v -0.03436612 0.00150022 0.00866010
f 1 2 7
f 1 7 11
f 1 11 18
f 1 18 25
f 1 25 29
f 1 29 28
f 1 28 22
f 1 22 16
f 1 16 14
f 1 14 9
f 1 9 3
f 1 3 4
f 1 4 5
f 1 5 6
f 1 6 2
f 2 6 8
f 2 8 7
f 3 9 10
f 3 10 5
f 3 5 4
f 5 8 6
f 5 10 15
f 5 15 21
f 5 21 24
f 5 24 19
f 5 19 13
f 5 13 8
f 7 8 12
f 7 12 11
f 8 13 12
f 9 14 10
f 10 14 16
f 10 16 15
f 11 17 18
f 11 12 13
f 11 13 17
f 13 19 17
f 15 20 21
f 15 16 22
f 15 22 20
f 17 23 18
f 17 19 23
f 18 23 24
f 18 24 25
f 19 24 23
f 20 22 26
f 20 26 21
f 21 27 24
f 21 26 28
f 21 28 29
f 21 29 27
f 22 28 26
f 24 27 25
f 25 27 29

