# https://github.com/mikedh/trimesh
v -0.06353028 0.01444457 0.00237062
v -0.04930979 0.01296746 0.00155750
v -0.05462564 0.01207556 -0.00755540
v -0.06784787 0.01284647 -0.00736776
v -0.07627482 0.01378339 0.00061385
v -0.07980851 0.00722499 0.01175546
v -0.06607184 0.00877526 0.01152159
v -0.03440339 -0.00067547 0.00712967
v -0.03437890 0.00917479 -0.00357140
v -0.05302721 0.00600109 0.01141553
v -0.06352415 0.00282459 -0.01405762
v -0.07564402 0.00599547 -0.01227094
v -0.03437890 0.00229846 -0.01078068
v -0.05048565 0.00165978 -0.01347294
v -0.08512435 0.00835041 -0.00817000
v -0.09693801 0.00319879 -0.00049297
v -0.09001762 0.00349422 0.01120069
v -0.07644018 -0.00529252 0.01355030
v -0.06461427 -0.00538818 0.01372435
v -0.03438502 -0.00853936 -0.00373185
v -0.05447253 -0.00848028 0.01124964
v -0.04764400 -0.01194658 0.00282205
v -0.05956177 -0.00900078 -0.01164003
v -0.07442530 -0.00530940 -0.01218392
v -0.09143844 -0.00532347 -0.00793069
v -0.05049177 -0.01213508 -0.00671781
v -0.09433520 -0.01095339 0.00101633
v -0.08884789 -0.00781346 0.00951191
v -0.06774988 -0.01236580 0.00751855
v -0.05901059 -0.01429871 -0.00239659
v -0.07140605 -0.01378664 -0.00180647
v -0.08282163 -0.01167085 -0.00284802
f 1 2 3
f 1 3 4
f 1 4 5
f 1 5 6
f 1 6 7
f 1 7 2
f 2 8 9
f 2 9 3
f 2 7 10
f 2 10 8
f 3 11 12
f 3 12 4
f 3 9 13
f 3 13 14
f 3 14 11
f 4 12 15
f 4 15 5
f 5 15 16
f 5 16 17
f 5 17 6
f 6 17 18
f 6 18 19
f 6 19 7
f 7 19 10
f 8 20 9
f 8 10 19
f 8 19 21
f 8 21 22
f 8 22 20
f 9 20 13
f 11 14 23
f 11 23 24
f 11 24 12
f 12 24 25
f 12 25 15
f 13 20 26
f 13 26 23
f 13 23 14
f 15 25 16
f 16 25 27
f 16 27 17
f 17 27 28
f 17 28 18
f 18 28 29
f 18 29 21
f 18 21 19
f 20 22 26
f 21 29 22
f 22 29 30
f 22 30 26
f 23 30 31
f 23 31 32
f 23 32 24
f 23 26 30
f 24 32 25
f 25 32 27
f 27 32 31
f 27 31 29
f 27 29 28
f 29 31 30

