# https://github.com/mikedh/trimesh
v 0.14900641 -0.08011544 0.00597035
v 0.15079088 -0.07735329 0.00597035
v 0.15079088 -0.08011544 0.00597035
v 0.14884530 -0.08011544 0.00728616
v 0.14883730 -0.08011544 0.00747499
v 0.14879609 -0.08011544 0.00858993
v 0.15079088 -0.07741036 0.00816777
v 0.15079088 -0.08011544 0.01823595
v 0.15079088 -0.07741495 0.00830849
v 0.14907105 -0.08011544 0.01590022
v 0.15079088 -0.08010949 0.01825640
v 0.15078698 -0.08011544 0.01825760
v 0.15079088 -0.07793525 0.01652685
v 0.14913823 -0.08011544 0.01662066
v 0.15079088 -0.07950698 0.01809643
v 0.15025855 -0.08011544 0.01806035
v 0.15079088 -0.07805100 0.01698389
v 0.14922981 -0.08011544 0.01697066
v 0.15079088 -0.07809967 0.01717032
v 0.15079088 -0.07929253 0.01801825
v 0.14977484 -0.08011544 0.01782822
v 0.14947508 -0.08011544 0.01749747
v 0.15079088 -0.07828140 0.01744815
v 0.15079088 -0.07894530 0.01785107
v 0.15079088 -0.07887553 0.01781740
v 0.14975629 -0.08011544 0.01781740
v 0.14967466 -0.08011544 0.01773922
v 0.15079088 -0.07855697 0.01765743
f 1 2 3
f 1 3 8
f 1 8 12
f 1 12 16
f 1 16 21
f 1 21 26
f 1 26 27
f 1 27 22
f 1 22 18
f 1 18 14
f 1 14 10
f 1 10 6
f 1 6 5
f 1 5 4
f 1 4 2
f 2 4 5
f 2 5 6
f 2 6 7
f 2 7 9
f 2 9 13
f 2 13 17
f 2 17 19
f 2 19 23
f 2 23 28
f 2 28 25
f 2 25 24
f 2 24 20
f 2 20 15
f 2 15 11
f 2 11 8
f 2 8 3
f 6 9 7
f 6 10 9
f 8 11 12
f 9 10 13
f 10 14 13
f 11 15 12
f 12 15 16
f 13 14 17
f 14 18 19
f 14 19 17
f 15 20 21
f 15 21 16
f 18 22 19
f 19 22 23
f 20 24 21
f 21 24 25
f 21 25 26
f 22 27 23
f 23 27 28
f 25 28 26
f 26 28 27

