# https://github.com/mikedh/trimesh
v 0.15079089 -0.08487827 0.01665235
v 0.15079089 -0.08484318 0.01694823
v 0.15079089 -0.08483196 0.01566159
v 0.15222823 -0.08327683 0.01636181
v 0.15173335 -0.08376527 0.01699576
v 0.15079089 -0.08476318 0.01708479
v 0.15079089 -0.08476598 0.01507585
v 0.15155387 -0.08395053 0.01486431
v 0.15262024 -0.08268314 0.01447738
v 0.15304754 -0.08228453 0.01588050
v 0.15311588 -0.08211470 0.01692012
v 0.15223049 -0.08301718 0.01732445
v 0.15079089 -0.08465931 0.01723207
v 0.15079089 -0.08468318 0.01442985
v 0.15130980 -0.08408387 0.01392845
v 0.15224626 -0.08298911 0.01369951
v 0.15335018 -0.08162066 0.01384745
v 0.15395095 -0.08101714 0.01511601
v 0.15420552 -0.08070696 0.01616634
v 0.15406135 -0.08081362 0.01687125
v 0.15373617 -0.08101012 0.01739541
v 0.15173636 -0.08266910 0.01805479
v 0.15079089 -0.08403896 0.01777832
v 0.15079089 -0.08454282 0.01736328
v 0.15307458 -0.08129925 0.01791957
v 0.15079089 -0.08456247 0.01382402
v 0.15079089 -0.08451756 0.01371156
v 0.15136162 -0.08382561 0.01341969
v 0.15283126 -0.08213295 0.01341232
v 0.15407035 -0.08048380 0.01348127
v 0.15459603 -0.07989852 0.01386619
v 0.15520731 -0.07920377 0.01501493
v 0.15506012 -0.07942833 0.01611212
v 0.15532146 -0.07882902 0.01674673
v 0.15444434 -0.07995045 0.01740344
v 0.15392241 -0.08037011 0.01774351
v 0.15126175 -0.08282349 0.01820006
v 0.15079089 -0.08384106 0.01791756
v 0.15228381 -0.08171751 0.01820274
v 0.15336970 -0.08061432 0.01806617
v 0.15079089 -0.08435896 0.01343308
v 0.15158466 -0.08321789 0.01314455
v 0.15079089 -0.08423545 0.01330588
v 0.15293339 -0.08156592 0.01311175
v 0.15399977 -0.08029852 0.01319945
v 0.15558280 -0.07813427 0.01353684
v 0.15555576 -0.07838130 0.01384812
v 0.15528842 -0.07896096 0.01432609
v 0.15636530 -0.07701706 0.01439437
v 0.15592899 -0.07793497 0.01555917
v 0.15632625 -0.07713074 0.01604718
v 0.15526665 -0.07867183 0.01725282
v 0.15600109 -0.07742408 0.01707341
v 0.15585765 -0.07717706 0.01762301
v 0.15443532 -0.07906622 0.01796308
v 0.15079089 -0.08280244 0.01828307
v 0.15079089 -0.08340315 0.01813245
v 0.15079089 -0.08352666 0.01807220
v 0.15122720 -0.08232103 0.01831788
v 0.15352591 -0.08000519 0.01816927
v 0.15272238 -0.08059748 0.01829779
v 0.15079089 -0.08399685 0.01313585
v 0.15079089 -0.08130907 0.01157943
v 0.15134285 -0.08066625 0.01157943
v 0.15200520 -0.07978904 0.01157943
v 0.15255341 -0.07901008 0.01157943
v 0.15481306 -0.07885850 0.01316530
v 0.15596504 -0.07691179 0.01331191
v 0.15696232 -0.07536369 0.01372762
v 0.15634803 -0.07687530 0.01392310
v 0.15735433 -0.07487947 0.01472373
v 0.15677082 -0.07625213 0.01507652
v 0.15686169 -0.07591668 0.01625069
v 0.15621811 -0.07663529 0.01749248
v 0.15654779 -0.07620020 0.01716981
v 0.15672352 -0.07502824 0.01769732
v 0.15618808 -0.07589704 0.01785330
v 0.15475749 -0.07796164 0.01810969
v 0.15079089 -0.08268033 0.01830851
v 0.15079089 -0.08262278 0.01831788
v 0.15110554 -0.08169786 0.01841829
v 0.15436173 -0.07732724 0.01832993
v 0.15079089 -0.07769497 0.01157943
v 0.15329836 -0.07772444 0.01157943
v 0.15424833 -0.07599668 0.01157943
v 0.15434596 -0.07576931 0.01157943
v 0.15475974 -0.07480087 0.01157943
v 0.15636155 -0.07501561 0.01299594
v 0.15702315 -0.07444016 0.01338688
v 0.15714781 -0.07444016 0.01352479
v 0.15729199 -0.07444016 0.01377181
v 0.15781917 -0.07360506 0.01473645
v 0.15751503 -0.07444016 0.01472775
v 0.15755333 -0.07437279 0.01569172
v 0.15752554 -0.07444016 0.01566963
v 0.15720188 -0.07495386 0.01660214
v 0.15751278 -0.07444016 0.01579682
v 0.15693754 -0.07501561 0.01737064
v 0.15692703 -0.07443876 0.01767991
v 0.15683391 -0.07444016 0.01777029
v 0.15667770 -0.07443876 0.01788074
v 0.15648395 -0.07443876 0.01799120
v 0.15605966 -0.07525562 0.01806082
v 0.15570821 -0.07521351 0.01819269
v 0.15079089 -0.08195330 0.01841227
v 0.15079089 -0.08187189 0.01841093
v 0.15390139 -0.07661003 0.01838750
v 0.15571647 -0.07176362 0.01835202
v 0.15611974 -0.07053973 0.01834265
v 0.15599958 -0.07443876 0.01818935
v 0.15644716 -0.07188292 0.01829579
v 0.15546790 -0.07443876 0.01831185
v 0.15256167 -0.07444016 0.01157943
v 0.15079089 -0.07793497 0.01652649
v 0.15370088 -0.07053973 0.01158010
v 0.15487839 -0.07444016 0.01157943
v 0.15725895 -0.07388717 0.01340429
v 0.15780941 -0.07298891 0.01384143
v 0.15808201 -0.07247662 0.01433211
v 0.15809328 -0.07267732 0.01518965
v 0.15805723 -0.07260574 0.01589522
v 0.15761641 -0.07377769 0.01658339
v 0.15738362 -0.07443876 0.01659411
v 0.15725370 -0.07444016 0.01700446
v 0.15714180 -0.07444016 0.01732980
v 0.15707346 -0.07443876 0.01745164
v 0.15738586 -0.07310820 0.01763908
v 0.15703141 -0.07338611 0.01790016
v 0.15624891 -0.07443876 0.01810031
v 0.15079089 -0.08070836 0.01834064
v 0.15578180 -0.07053973 0.01832658
v 0.15646744 -0.07053973 0.01831654
v 0.15664241 -0.07273346 0.01818064
v 0.15735658 -0.07053973 0.01805479
v 0.15678435 -0.07053973 0.01825026
v 0.15669123 -0.07053973 0.01827905
v 0.15079089 -0.07805147 0.01698371
v 0.15386834 -0.07053973 0.01604585
v 0.15385483 -0.07053973 0.01585439
v 0.15580734 -0.07053973 0.01158010
v 0.15570070 -0.07144361 0.01158010
v 0.15543111 -0.07264083 0.01158010
v 0.15492270 -0.07430542 0.01158010
v 0.15694205 -0.07262258 0.01280515
v 0.15768175 -0.07117273 0.01308966
v 0.15763669 -0.07284153 0.01349266
v 0.15818113 -0.07066184 0.01353684
v 0.15822920 -0.07120220 0.01388695
v 0.15829754 -0.07161625 0.01458114
v 0.15836061 -0.07116290 0.01550830
v 0.15834936 -0.07053973 0.01627144
v 0.15799640 -0.07205696 0.01678824
v 0.15752104 -0.07336646 0.01725416
v 0.15788300 -0.07159098 0.01738871
v 0.15773131 -0.07116571 0.01775288
v 0.15755333 -0.07053973 0.01795304
v 0.15746396 -0.07053973 0.01800994
v 0.15742191 -0.07053973 0.01803203
v 0.15079089 -0.08018203 0.01827102
v 0.15534399 -0.07053973 0.01824491
v 0.15532672 -0.07053973 0.01824022
v 0.15079089 -0.07809919 0.01717048
v 0.15398174 -0.07053973 0.01688999
v 0.15781316 -0.07053973 0.01313049
v 0.15817964 -0.07053973 0.01351608
v 0.15819691 -0.07053973 0.01354353
v 0.15827876 -0.07053973 0.01379925
v 0.15832457 -0.07053973 0.01396058
v 0.15839141 -0.07053973 0.01434416
v 0.15845899 -0.07053973 0.01489242
v 0.15845749 -0.07059166 0.01492857
v 0.15846275 -0.07053973 0.01495334
v 0.15842895 -0.07053973 0.01556520
v 0.15838915 -0.07053973 0.01600970
v 0.15831932 -0.07053973 0.01644348
v 0.15817213 -0.07053973 0.01699442
v 0.15809477 -0.07053973 0.01724278
v 0.15796411 -0.07053973 0.01753063
v 0.15789202 -0.07053973 0.01765113
v 0.15775909 -0.07053973 0.01779372
v 0.15079089 -0.08010764 0.01825629
v 0.15487839 -0.07053973 0.01803940
v 0.15079089 -0.07828024 0.01744762
v 0.15399977 -0.07053973 0.01698036
v 0.15846200 -0.07053973 0.01492523
v 0.15079089 -0.07950693 0.01809563
v 0.15456899 -0.07053973 0.01788007
v 0.15079089 -0.07855674 0.01765715
v 0.15418300 -0.07053973 0.01750051
v 0.15413269 -0.07053973 0.01739474
v 0.15079089 -0.07929219 0.01801798
v 0.15431893 -0.07053973 0.01769799
v 0.15079089 -0.07887534 0.01781715
f 1 2 6
f 1 6 13
f 1 13 24
f 1 24 23
f 1 23 38
f 1 38 58
f 1 58 57
f 1 57 56
f 1 56 79
f 1 79 80
f 1 80 105
f 1 105 106
f 1 106 130
f 1 130 159
f 1 159 181
f 1 181 186
f 1 186 191
f 1 191 193
f 1 193 188
f 1 188 183
f 1 183 162
f 1 162 137
f 1 137 114
f 1 114 83
f 1 83 63
f 1 63 62
f 1 62 43
f 1 43 41
f 1 41 27
f 1 27 26
f 1 26 14
f 1 14 7
f 1 7 3
f 1 3 4
f 1 4 5
f 1 5 2
f 2 5 6
f 3 7 8
f 3 8 4
f 4 8 9
f 4 9 10
f 4 10 11
f 4 11 5
f 5 11 12
f 5 12 6
f 6 12 13
f 7 14 15
f 7 15 8
f 8 16 9
f 8 15 16
f 9 16 17
f 9 17 18
f 9 18 10
f 10 18 19
f 10 19 11
f 11 19 20
f 11 20 21
f 11 21 12
f 12 22 23
f 12 23 24
f 12 24 13
f 12 21 25
f 12 25 22
f 14 26 15
f 15 26 27
f 15 27 28
f 15 28 16
f 16 28 29
f 16 29 17
f 17 29 30
f 17 30 31
f 17 31 18
f 18 31 32
f 18 32 19
f 19 32 33
f 19 33 20
f 20 33 34
f 20 34 35
f 20 35 21
f 21 35 36
f 21 36 25
f 22 37 38
f 22 38 23
f 22 25 39
f 22 39 37
f 25 36 40
f 25 40 39
f 27 41 28
f 28 42 29
f 28 41 43
f 28 43 42
f 29 44 45
f 29 45 30
f 29 42 44
f 30 45 46
f 30 46 47
f 30 47 31
f 31 47 48
f 31 48 32
f 32 48 49
f 32 49 50
f 32 50 33
f 33 50 51
f 33 51 34
f 34 52 35
f 34 51 53
f 34 53 52
f 35 52 54
f 35 54 36
f 36 54 55
f 36 55 40
f 37 56 57
f 37 57 58
f 37 58 38
f 37 39 59
f 37 59 56
f 39 40 60
f 39 60 61
f 39 61 59
f 40 55 60
f 42 43 62
f 42 62 63
f 42 63 64
f 42 64 44
f 44 64 65
f 44 65 45
f 45 65 66
f 45 66 67
f 45 67 46
f 46 67 68
f 46 68 69
f 46 69 70
f 46 70 47
f 47 70 49
f 47 49 48
f 49 70 71
f 49 71 72
f 49 72 50
f 50 72 51
f 51 72 73
f 51 73 53
f 52 53 74
f 52 74 54
f 53 73 75
f 53 75 74
f 54 74 76
f 54 76 77
f 54 77 55
f 55 77 78
f 55 78 60
f 56 59 79
f 59 80 79
f 59 61 81
f 59 81 80
f 60 78 82
f 60 82 61
f 61 82 81
f 63 83 113
f 63 113 116
f 63 116 87
f 63 87 86
f 63 86 85
f 63 85 84
f 63 84 66
f 63 66 65
f 63 65 64
f 66 84 67
f 67 84 85
f 67 85 68
f 68 85 86
f 68 86 87
f 68 87 88
f 68 88 89
f 68 89 69
f 69 71 70
f 69 89 90
f 69 90 91
f 69 91 92
f 69 92 93
f 69 93 71
f 71 93 94
f 71 94 95
f 71 95 72
f 72 95 73
f 73 96 75
f 73 95 94
f 73 94 97
f 73 97 96
f 74 75 98
f 74 98 76
f 75 96 98
f 76 98 99
f 76 99 100
f 76 100 77
f 77 100 101
f 77 101 102
f 77 102 103
f 77 103 78
f 78 103 104
f 78 104 82
f 80 81 105
f 81 106 105
f 81 82 107
f 81 107 108
f 81 108 109
f 81 109 106
f 82 104 110
f 82 110 111
f 82 111 112
f 82 112 107
f 83 114 115
f 83 115 113
f 87 116 117
f 87 117 88
f 88 117 89
f 89 117 90
f 90 117 118
f 90 118 91
f 91 118 92
f 92 118 119
f 92 119 120
f 92 120 94
f 92 94 93
f 94 120 121
f 94 121 122
f 94 122 97
f 96 97 123
f 96 123 124
f 96 124 98
f 97 122 123
f 98 124 125
f 98 125 126
f 98 126 99
f 99 126 127
f 99 127 128
f 99 128 100
f 100 128 101
f 101 128 102
f 102 128 129
f 102 129 103
f 103 129 104
f 104 129 110
f 106 109 131
f 106 131 130
f 107 112 111
f 107 111 108
f 108 111 109
f 109 132 136
f 109 136 135
f 109 135 134
f 109 134 158
f 109 158 157
f 109 157 156
f 109 156 180
f 109 180 179
f 109 179 178
f 109 178 177
f 109 177 176
f 109 176 175
f 109 175 151
f 109 151 174
f 109 174 173
f 109 173 172
f 109 172 185
f 109 185 170
f 109 170 169
f 109 169 168
f 109 168 167
f 109 167 166
f 109 166 165
f 109 165 164
f 109 164 140
f 109 140 115
f 109 115 139
f 109 139 138
f 109 138 163
f 109 163 184
f 109 184 190
f 109 190 189
f 109 189 192
f 109 192 187
f 109 187 182
f 109 182 161
f 109 161 160
f 109 160 131
f 109 111 132
f 110 129 133
f 110 133 111
f 111 133 134
f 111 134 135
f 111 135 136
f 111 136 132
f 113 115 140
f 113 140 116
f 114 137 138
f 114 138 139
f 114 139 115
f 116 140 141
f 116 141 142
f 116 142 143
f 116 143 117
f 117 143 144
f 117 144 145
f 117 145 146
f 117 146 118
f 118 146 147
f 118 147 148
f 118 148 119
f 119 149 120
f 119 148 149
f 120 149 150
f 120 150 121
f 121 150 151
f 121 151 152
f 121 152 122
f 122 153 124
f 122 124 123
f 122 152 153
f 124 153 125
f 125 153 127
f 125 127 126
f 127 154 155
f 127 155 128
f 127 153 154
f 128 155 156
f 128 156 157
f 128 157 158
f 128 158 133
f 128 133 129
f 130 131 160
f 130 160 161
f 130 161 159
f 133 158 134
f 137 162 138
f 138 162 163
f 140 164 141
f 141 145 142
f 141 164 145
f 142 145 144
f 142 144 143
f 145 147 146
f 145 164 165
f 145 165 147
f 147 165 166
f 147 166 167
f 147 167 148
f 148 167 168
f 148 168 169
f 148 169 149
f 149 169 170
f 149 170 171
f 149 171 150
f 150 171 172
f 150 172 173
f 150 173 174
f 150 174 151
f 151 175 152
f 152 175 176
f 152 176 177
f 152 177 154
f 152 154 153
f 154 177 178
f 154 178 179
f 154 179 155
f 155 179 180
f 155 180 156
f 159 161 181
f 161 182 181
f 162 183 184
f 162 184 163
f 170 185 171
f 171 185 172
f 181 182 187
f 181 187 186
f 183 188 189
f 183 189 190
f 183 190 184
f 186 187 192
f 186 192 191
f 188 193 192
f 188 192 189
f 191 192 193

