# https://github.com/mikedh/trimesh
v -0.06734605 0.05758675 -0.01209399
v -0.06734605 0.05200963 -0.01212351
v -0.06734605 0.05758675 -0.01519682
v -0.08500994 0.05758675 -0.01196405
v -0.08004711 0.04859238 -0.01204298
v -0.06734605 0.04859238 -0.01214532
v -0.07955255 0.04859238 -0.01204683
v -0.06734605 0.04873591 -0.01524078
v -0.08500994 0.04859238 -0.01514485
v -0.07964420 0.05758675 -0.01511309
v -0.08500994 0.05758675 -0.01507555
v -0.08500994 0.05049692 -0.01199966
v -0.08062466 0.04859238 -0.01203880
v -0.06734605 0.04859238 -0.01524142
v -0.08500994 0.04859238 -0.01202340
v -0.08095840 0.05758675 -0.01510410
f 1 2 6
f 1 6 14
f 1 14 8
f 1 8 3
f 1 3 10
f 1 10 16
f 1 16 11
f 1 11 4
f 1 4 5
f 1 5 2
f 2 5 7
f 2 7 6
f 3 8 9
f 3 9 10
f 4 11 9
f 4 9 15
f 4 15 12
f 4 12 13
f 4 13 5
f 5 13 15
f 5 15 9
f 5 9 14
f 5 14 6
f 5 6 7
f 8 14 9
f 9 11 16
f 9 16 10
f 12 15 13

