# https://github.com/mikedh/trimesh
v 0.14593739 -0.08088155 -0.01564570
v 0.14608610 -0.08088155 -0.01595253
v 0.14593739 -0.08088155 -0.01561139
v 0.14669133 -0.07764831 -0.01411326
v 0.14687299 -0.07711079 -0.01411326
v 0.14690687 -0.07701968 -0.01411326
v 0.14634871 -0.08088155 -0.01623448
v 0.14738973 -0.07619467 -0.01411326
v 0.14595057 -0.08088155 -0.01526538
v 0.14664238 -0.07802185 -0.01411326
v 0.14597222 -0.08088155 -0.01513984
v 0.14646637 -0.08088155 -0.01634658
v 0.14768716 -0.07834577 -0.01591221
v 0.14777753 -0.07892379 -0.01639090
v 0.14775775 -0.07570472 -0.01411326
v 0.15343065 -0.07054003 -0.01627967
v 0.14633835 -0.08088155 -0.01411326
v 0.14683816 -0.08088155 -0.01659136
v 0.14878277 -0.07815344 -0.01676922
v 0.15357090 -0.07054003 -0.01639290
v 0.15187195 -0.07054003 -0.01411326
v 0.14831968 -0.08088155 -0.01411326
v 0.14926752 -0.07800767 -0.01693479
v 0.14831968 -0.07932061 -0.01683728
v 0.14719396 -0.08088155 -0.01672090
v 0.15392009 -0.07054003 -0.01659450
v 0.15528961 -0.07054003 -0.01411326
v 0.15064456 -0.08088155 -0.01411384
v 0.15320569 -0.07690934 -0.01411326
v 0.15005722 -0.07690934 -0.01691420
v 0.15012405 -0.07729502 -0.01701457
v 0.14929951 -0.07873753 -0.01696281
v 0.14772576 -0.08088155 -0.01679296
v 0.14831968 -0.08007173 -0.01685730
v 0.15443025 -0.07054003 -0.01663339
v 0.15141261 -0.07586264 -0.01698369
v 0.15095047 -0.07637587 -0.01699513
v 0.15013441 -0.07690934 -0.01693508
v 0.15554657 -0.07054003 -0.01499258
v 0.15555222 -0.07054408 -0.01411326
v 0.15067280 -0.08088155 -0.01476153
v 0.15075186 -0.08079045 -0.01480585
v 0.15081775 -0.08067606 -0.01411384
v 0.15320569 -0.07690934 -0.01411384
v 0.15345229 -0.07642648 -0.01411326
v 0.15100317 -0.08042907 -0.01411384
v 0.15180041 -0.07934794 -0.01411384
v 0.15203948 -0.07900376 -0.01411384
v 0.15257317 -0.07810283 -0.01411384
v 0.15280754 -0.07768779 -0.01411384
v 0.15070009 -0.07703992 -0.01703459
v 0.15002616 -0.07882560 -0.01696767
v 0.14844110 -0.08088155 -0.01683242
v 0.15448202 -0.07054003 -0.01662967
v 0.15444437 -0.07064329 -0.01663597
v 0.15259859 -0.07453553 -0.01687188
v 0.15243669 -0.07544760 -0.01690219
v 0.15554563 -0.07054003 -0.01501116
v 0.15553998 -0.07057850 -0.01499715
v 0.15547786 -0.07087915 -0.01411326
v 0.15066903 -0.08088155 -0.01482758
v 0.15064362 -0.08088155 -0.01517187
v 0.15151521 -0.07971337 -0.01562883
v 0.15191712 -0.07920926 -0.01480127
v 0.15320287 -0.07690934 -0.01468889
v 0.15370831 -0.07591224 -0.01542523
v 0.15375914 -0.07580392 -0.01411326
v 0.15268518 -0.07791353 -0.01522878
v 0.15034712 -0.07932061 -0.01684614
v 0.14920257 -0.08038452 -0.01683327
v 0.14871406 -0.08088155 -0.01680954
v 0.15451402 -0.07054003 -0.01662510
v 0.15472580 -0.07054003 -0.01658306
v 0.15401892 -0.07257574 -0.01666399
v 0.15381373 -0.07355057 -0.01666742
v 0.15375820 -0.07373279 -0.01666113
v 0.15350218 -0.07456488 -0.01663225
v 0.15263717 -0.07598209 -0.01672118
v 0.15211478 -0.07690934 -0.01672375
v 0.15187854 -0.07690934 -0.01680954
v 0.15542891 -0.07089130 -0.01568859
v 0.15549103 -0.07054003 -0.01566858
v 0.15525572 -0.07184690 -0.01411326
v 0.15519549 -0.07206859 -0.01517730
v 0.15059938 -0.08088155 -0.01560309
v 0.15121025 -0.07983586 -0.01610352
v 0.15225033 -0.07846725 -0.01585817
v 0.15058996 -0.08088155 -0.01565085
v 0.15090528 -0.08042501 -0.01586703
v 0.15315298 -0.07690934 -0.01564456
v 0.15323958 -0.07672308 -0.01572119
v 0.15414976 -0.07465903 -0.01594767
v 0.15436531 -0.07444544 -0.01547642
v 0.15416293 -0.07490097 -0.01411326
v 0.15313416 -0.07690934 -0.01573635
v 0.15138250 -0.07820811 -0.01672719
v 0.15053631 -0.07988040 -0.01662796
v 0.14970425 -0.08088155 -0.01661624
v 0.14963742 -0.08088155 -0.01663711
v 0.14911692 -0.08088155 -0.01675778
v 0.14889290 -0.08088155 -0.01679296
v 0.15474840 -0.07054003 -0.01657677
v 0.15490652 -0.07054003 -0.01647269
v 0.15475686 -0.07278428 -0.01617643
v 0.15408858 -0.07373279 -0.01641921
v 0.15263624 -0.07690934 -0.01634572
v 0.15239716 -0.07690934 -0.01653845
v 0.15428060 -0.07400712 -0.01617072
v 0.15227950 -0.07690934 -0.01662539
v 0.15227856 -0.07690934 -0.01662596
v 0.15493287 -0.07272860 -0.01582185
v 0.15529902 -0.07111704 -0.01597255
v 0.15540444 -0.07054003 -0.01596426
v 0.15547409 -0.07054003 -0.01574121
v 0.15511171 -0.07232773 -0.01411326
v 0.15480392 -0.07330054 -0.01534545
v 0.15040078 -0.08088155 -0.01607235
v 0.15032830 -0.08088155 -0.01617615
v 0.15028877 -0.08088155 -0.01621933
v 0.15095235 -0.07992697 -0.01630311
v 0.15214584 -0.07823240 -0.01618444
v 0.15302403 -0.07690934 -0.01597684
v 0.15303815 -0.07688707 -0.01597283
v 0.15050807 -0.08088155 -0.01585416
v 0.15452061 -0.07373279 -0.01599828
v 0.15465050 -0.07340784 -0.01601601
v 0.15436907 -0.07441405 -0.01411326
v 0.15174017 -0.07829921 -0.01648241
v 0.15019182 -0.08088155 -0.01628796
v 0.15524819 -0.07054003 -0.01621704
v 0.15281507 -0.07690934 -0.01617987
v 0.15527549 -0.07054003 -0.01618072
v 0.15489805 -0.07299888 -0.01411326
f 1 2 7
f 1 7 12
f 1 12 18
f 1 18 25
f 1 25 33
f 1 33 53
f 1 53 71
f 1 71 101
f 1 101 100
f 1 100 99
f 1 99 98
f 1 98 129
f 1 129 119
f 1 119 118
f 1 118 117
f 1 117 124
f 1 124 88
f 1 88 85
f 1 85 62
f 1 62 61
f 1 61 41
f 1 41 28
f 1 28 22
f 1 22 17
f 1 17 11
f 1 11 9
f 1 9 3
f 1 3 4
f 1 4 5
f 1 5 6
f 1 6 2
f 2 6 8
f 2 8 7
f 3 9 4
f 4 10 17
f 4 17 22
f 4 22 29
f 4 29 45
f 4 45 67
f 4 67 94
f 4 94 127
f 4 127 133
f 4 133 115
f 4 115 83
f 4 83 60
f 4 60 40
f 4 40 27
f 4 27 21
f 4 21 15
f 4 15 8
f 4 8 6
f 4 6 5
f 4 9 11
f 4 11 10
f 7 8 13
f 7 13 14
f 7 14 12
f 8 15 16
f 8 16 13
f 10 11 17
f 12 14 19
f 12 19 18
f 13 16 14
f 14 16 20
f 14 20 19
f 15 21 16
f 16 21 27
f 16 27 39
f 16 39 58
f 16 58 82
f 16 82 114
f 16 114 113
f 16 113 132
f 16 132 130
f 16 130 103
f 16 103 102
f 16 102 73
f 16 73 72
f 16 72 54
f 16 54 35
f 16 35 26
f 16 26 20
f 18 19 23
f 18 23 24
f 18 24 25
f 19 20 26
f 19 26 23
f 22 28 29
f 23 30 31
f 23 31 32
f 23 32 24
f 23 26 30
f 24 32 25
f 25 32 34
f 25 34 33
f 26 35 36
f 26 36 37
f 26 37 31
f 26 31 38
f 26 38 30
f 27 40 39
f 28 41 42
f 28 42 43
f 28 43 29
f 29 44 45
f 29 43 46
f 29 46 47
f 29 47 48
f 29 48 49
f 29 49 50
f 29 50 44
f 30 38 31
f 31 51 32
f 31 37 51
f 32 51 52
f 32 52 53
f 32 53 34
f 33 34 53
f 35 54 55
f 35 55 56
f 35 56 36
f 36 56 57
f 36 57 51
f 36 51 37
f 39 40 59
f 39 59 58
f 40 60 59
f 41 61 42
f 42 46 43
f 42 61 62
f 42 62 63
f 42 63 64
f 42 64 47
f 42 47 46
f 44 65 45
f 44 50 65
f 45 65 66
f 45 66 67
f 47 64 48
f 48 64 68
f 48 68 49
f 49 68 50
f 50 68 65
f 51 57 52
f 52 69 70
f 52 70 71
f 52 71 53
f 52 57 69
f 54 72 55
f 55 72 57
f 55 57 56
f 57 72 73
f 57 73 74
f 57 74 75
f 57 75 76
f 57 76 77
f 57 77 78
f 57 78 79
f 57 79 80
f 57 80 69
f 58 59 81
f 58 81 82
f 59 60 83
f 59 83 84
f 59 84 81
f 62 85 63
f 63 86 87
f 63 87 68
f 63 68 64
f 63 85 88
f 63 88 89
f 63 89 86
f 65 68 66
f 66 90 91
f 66 91 92
f 66 92 93
f 66 93 67
f 66 68 90
f 67 93 94
f 68 87 95
f 68 95 90
f 69 96 97
f 69 97 98
f 69 98 99
f 69 99 100
f 69 100 101
f 69 101 70
f 69 80 96
f 70 101 71
f 73 102 75
f 73 75 74
f 75 102 103
f 75 103 104
f 75 104 76
f 76 104 105
f 76 105 77
f 77 106 107
f 77 107 78
f 77 105 108
f 77 108 106
f 78 107 109
f 78 109 110
f 78 110 79
f 79 110 96
f 79 96 80
f 81 84 111
f 81 111 112
f 81 112 113
f 81 113 114
f 81 114 82
f 83 115 84
f 84 116 111
f 84 115 116
f 86 89 117
f 86 117 118
f 86 118 119
f 86 119 120
f 86 120 121
f 86 121 87
f 87 121 122
f 87 122 123
f 87 123 95
f 88 124 89
f 89 124 117
f 90 95 91
f 91 123 92
f 91 95 123
f 92 123 122
f 92 122 108
f 92 108 125
f 92 125 93
f 93 125 126
f 93 126 111
f 93 111 116
f 93 116 127
f 93 127 94
f 96 128 97
f 96 110 128
f 97 128 120
f 97 120 119
f 97 119 129
f 97 129 98
f 103 130 104
f 104 112 111
f 104 111 126
f 104 126 108
f 104 108 105
f 104 130 112
f 106 108 131
f 106 131 121
f 106 121 107
f 107 121 128
f 107 128 109
f 108 126 125
f 108 122 131
f 109 128 110
f 112 130 132
f 112 132 113
f 115 133 116
f 116 133 127
f 120 128 121
f 121 131 122

