# https://github.com/mikedh/trimesh
v -0.11208584 0.08884382 0.01728888
v -0.11416635 0.08884382 0.01731247
v -0.11557651 0.08845923 0.01727840
v -0.11208584 0.08836648 0.01721812
v -0.11208584 0.08884382 0.01096245
v -0.11720454 0.08884382 0.01733605
v -0.13654449 0.08878094 0.01742254
v -0.12891433 0.08820963 0.01726791
v -0.11218160 0.08791317 0.01711591
v -0.11208584 0.08794181 0.01712115
v -0.11227977 0.08884382 0.01095197
v -0.11208584 0.08870397 -0.00696331
v -0.11208823 0.08870422 -0.00704979
v -0.11269874 0.08870519 -0.00784911
v -0.13301312 0.08880644 -0.00820291
v -0.13551740 0.08884382 0.01742254
v -0.13654449 0.08884382 0.01742516
v -0.13654449 0.08808944 0.01726267
v -0.12529198 0.08784251 0.01714736
v -0.11438422 0.08747563 0.01691936
v -0.11208584 0.08790540 0.01711067
v -0.11688132 0.08884382 0.01089955
v -0.11208584 0.08683197 -0.00696331
v -0.11208823 0.08861171 -0.00934817
v -0.11208823 0.08866367 -0.00857767
v -0.13331478 0.08877779 -0.00934555
v -0.13466029 0.08873213 -0.00934555
v -0.13478000 0.08873918 -0.00862747
v -0.13654449 0.08884382 0.01105680
v -0.13336505 0.08884382 0.01073445
v -0.13654449 0.08728310 0.01689577
v -0.12636456 0.08758878 0.01702943
v -0.11260776 0.08764123 0.01697963
v -0.13654449 0.08704612 0.01664418
v -0.11652938 0.08716995 0.01661011
v -0.11331164 0.08729669 0.01671494
v -0.11208584 0.08769611 0.01699798
v -0.11208584 0.08653988 -0.00285139
v -0.11208823 0.08674165 -0.00934817
v -0.12297444 0.08863404 -0.00934817
v -0.12330483 0.08863356 -0.00934817
v -0.12755684 0.08857505 -0.00934817
v -0.13501463 0.08871150 -0.00934555
v -0.13516306 0.08869450 -0.00934555
v -0.13529234 0.08867945 -0.00934555
v -0.13654449 0.08852697 0.00988533
v -0.13654449 0.08700751 0.01657604
v -0.11478165 0.08704418 0.01636114
v -0.11208584 0.08712648 0.01640307
v -0.11208584 0.08715490 0.01644763
v -0.11208584 0.08730616 0.01662059
v -0.11208584 0.08646000 -0.00167731
v -0.11323742 0.08654546 -0.00934817
v -0.12755684 0.08680526 -0.00934817
v -0.13529234 0.08636385 -0.00934555
v -0.13654449 0.08654012 0.00988533
v -0.13654449 0.08688199 0.01623273
v -0.11208584 0.08697887 0.01609907
v -0.11208584 0.08645878 -0.00162489
v -0.11344811 0.08652531 -0.00934817
v -0.12088195 0.08663312 -0.00934817
v -0.12026187 0.08662000 -0.00934817
v -0.11377372 0.08652191 -0.00934817
v -0.11208584 0.08645805 -0.00144668
v -0.11208584 0.08645976 -0.00047439
v -0.11281127 0.08647287 0.00594900
v -0.11685978 0.08650030 0.00887373
v -0.13654449 0.08669042 0.01492499
v -0.13654449 0.08678803 0.01587631
v -0.11520063 0.08685940 0.01572431
v -0.11208584 0.08690408 0.01579769
v -0.11208584 0.08648282 0.00620845
v -0.11208584 0.08683076 0.01533644
v -0.11574889 0.08677322 0.01458691
v -0.11208584 0.08683367 0.01538099
f 1 2 3
f 1 3 4
f 1 4 10
f 1 10 21
f 1 21 37
f 1 37 51
f 1 51 50
f 1 50 49
f 1 49 58
f 1 58 71
f 1 71 75
f 1 75 73
f 1 73 72
f 1 72 65
f 1 65 64
f 1 64 59
f 1 59 52
f 1 52 38
f 1 38 23
f 1 23 12
f 1 12 5
f 1 5 11
f 1 11 22
f 1 22 30
f 1 30 29
f 1 29 17
f 1 17 16
f 1 16 6
f 1 6 2
f 2 6 3
f 3 6 7
f 3 7 8
f 3 8 9
f 3 9 4
f 4 9 10
f 5 12 13
f 5 13 14
f 5 14 15
f 5 15 11
f 6 16 7
f 7 16 17
f 7 17 29
f 7 29 46
f 7 46 56
f 7 56 68
f 7 68 69
f 7 69 57
f 7 57 47
f 7 47 34
f 7 34 31
f 7 31 18
f 7 18 8
f 8 18 19
f 8 19 9
f 9 20 21
f 9 21 10
f 9 19 20
f 11 15 22
f 12 23 39
f 12 39 24
f 12 24 25
f 12 25 13
f 13 25 14
f 14 25 26
f 14 26 15
f 15 26 27
f 15 27 28
f 15 28 29
f 15 29 30
f 15 30 22
f 18 31 19
f 19 31 32
f 19 32 20
f 20 33 21
f 20 32 31
f 20 31 34
f 20 34 35
f 20 35 36
f 20 36 33
f 21 33 37
f 23 38 39
f 24 39 53
f 24 53 60
f 24 60 63
f 24 63 62
f 24 62 61
f 24 61 54
f 24 54 42
f 24 42 41
f 24 41 40
f 24 40 26
f 24 26 25
f 26 40 41
f 26 41 42
f 26 42 27
f 27 43 28
f 27 42 43
f 28 43 29
f 29 43 44
f 29 44 45
f 29 45 46
f 33 36 37
f 34 47 35
f 35 47 48
f 35 48 36
f 36 48 49
f 36 49 50
f 36 50 51
f 36 51 37
f 38 52 39
f 39 52 53
f 42 54 55
f 42 55 45
f 42 45 44
f 42 44 43
f 45 55 56
f 45 56 46
f 47 57 48
f 48 57 58
f 48 58 49
f 52 59 60
f 52 60 53
f 54 61 55
f 55 61 62
f 55 62 63
f 55 63 59
f 55 59 64
f 55 64 65
f 55 65 66
f 55 66 67
f 55 67 56
f 56 67 68
f 57 69 70
f 57 70 58
f 58 70 71
f 59 63 60
f 65 72 66
f 66 72 67
f 67 72 73
f 67 73 74
f 67 74 68
f 68 74 73
f 68 73 75
f 68 75 69
f 69 75 70
f 70 75 71

