# https://github.com/mikedh/trimesh
v -0.13926612 0.08500529 -0.00651466
v -0.14006916 0.08280852 -0.00456660
v -0.14008808 0.08280852 -0.00651466
v -0.14581339 0.08500529 -0.00651466
v -0.13941746 0.08500529 0.00105617
v -0.14013821 0.08280852 0.00131794
v -0.14863679 0.08280852 -0.00651466
v -0.14625037 0.08472231 -0.00651466
v -0.14617376 0.08500529 0.00462834
v -0.13945908 0.08500529 0.00165280
v -0.14017321 0.08280852 0.00168552
v -0.14892906 0.08280852 0.00462834
v -0.14859233 0.08285024 -0.00651466
v -0.14668358 0.08443159 -0.00651466
v -0.14666277 0.08467737 0.00462834
v -0.14387153 0.08500529 0.00462834
v -0.13955272 0.08500529 0.00206510
v -0.14020253 0.08280852 0.00195712
v -0.14563178 0.08280852 0.00462834
v -0.14809954 0.08357468 0.00462834
v -0.14769093 0.08367747 -0.00651466
v -0.14768147 0.08390089 0.00462834
v -0.14171780 0.08500314 0.00462834
v -0.14171024 0.08500529 0.00460762
v -0.13968798 0.08500529 0.00246649
v -0.14027536 0.08280852 0.00220799
v -0.14136121 0.08280852 0.00330964
v -0.14131770 0.08280852 0.00329437
v -0.14114556 0.08280852 0.00319620
v -0.14105759 0.08280852 0.00314603
v -0.14093936 0.08280852 0.00306967
v -0.14082112 0.08280852 0.00296933
v -0.14042670 0.08500529 0.00348306
v -0.14031603 0.08280852 0.00231815
v -0.13984499 0.08500529 0.00273918
v -0.14047210 0.08280852 0.00258429
v -0.14030373 0.08500529 0.00335327
v -0.13996796 0.08500529 0.00294642
f 1 2 3
f 1 3 7
f 1 7 13
f 1 13 21
f 1 21 14
f 1 14 8
f 1 8 4
f 1 4 9
f 1 9 16
f 1 16 24
f 1 24 33
f 1 33 37
f 1 37 38
f 1 38 35
f 1 35 25
f 1 25 17
f 1 17 10
f 1 10 5
f 1 5 6
f 1 6 2
f 2 6 11
f 2 11 18
f 2 18 26
f 2 26 34
f 2 34 36
f 2 36 32
f 2 32 31
f 2 31 30
f 2 30 29
f 2 29 28
f 2 28 27
f 2 27 19
f 2 19 12
f 2 12 7
f 2 7 3
f 4 8 9
f 5 10 6
f 6 10 11
f 7 12 13
f 8 14 15
f 8 15 9
f 9 15 22
f 9 22 20
f 9 20 12
f 9 12 19
f 9 19 23
f 9 23 16
f 10 17 18
f 10 18 11
f 12 20 13
f 13 20 21
f 14 21 15
f 15 21 22
f 16 23 24
f 17 25 26
f 17 26 18
f 19 27 23
f 20 22 21
f 23 27 28
f 23 28 29
f 23 29 30
f 23 30 31
f 23 31 32
f 23 32 33
f 23 33 24
f 25 34 26
f 25 35 34
f 32 36 37
f 32 37 33
f 34 35 36
f 35 38 36
f 36 38 37

