# https://github.com/mikedh/trimesh
v -0.15313362 -0.04233632 -0.00405309
v -0.15290786 -0.04219659 -0.00405309
v -0.15290786 -0.04233632 -0.00405309
v -0.15462685 -0.04233632 -0.00305043
v -0.15482977 -0.03741388 -0.00076273
v -0.15480751 -0.03741388 -0.00077269
v -0.15435743 -0.03741388 -0.00095120
v -0.15290814 -0.03741388 -0.00136109
v -0.15290786 -0.03902322 -0.00172558
v -0.15290786 -0.04233632 0.00002471
v -0.15465225 -0.04233632 -0.00303240
v -0.15512773 -0.03741388 -0.00054752
v -0.15290814 -0.03741388 -0.00040260
v -0.15290786 -0.03902322 -0.00167022
v -0.15290786 -0.04214937 0.00017213
v -0.15365134 -0.04233632 0.00230122
v -0.15511689 -0.04233632 -0.00262126
v -0.15541371 -0.03741388 -0.00025643
v -0.15531639 -0.04233632 -0.00244026
v -0.15291557 -0.03741388 0.00194232
v -0.15290814 -0.03824650 0.00184156
v -0.15290786 -0.03902370 0.00103732
v -0.15290786 -0.04203855 0.00025921
v -0.15290786 -0.03990932 0.00139621
v -0.15290786 -0.03928726 0.00162449
v -0.15290814 -0.03828697 0.00183721
v -0.15310536 -0.03741388 0.00212892
v -0.15327945 -0.03789090 0.00224524
v -0.15324778 -0.03741388 0.00224524
v -0.15348038 -0.03902370 0.00230122
v -0.15575991 -0.04233632 0.00230122
v -0.15290786 -0.04125990 0.00074685
v -0.15290786 -0.04073229 0.00103608
v -0.15566373 -0.03741388 0.00005768
v -0.15550447 -0.04233632 -0.00210811
v -0.15577190 -0.03741388 0.00224524
v -0.15575020 -0.03902370 0.00230122
v -0.15576104 -0.04189785 0.00230122
v -0.15582355 -0.03741388 0.00100436
v -0.15575591 -0.04233632 0.00196720
v -0.15568941 -0.03741388 0.00011304
v -0.15551303 -0.04233632 -0.00209194
v -0.15581727 -0.03741388 0.00076116
v -0.15569997 -0.04233632 -0.00080565
v -0.15577731 -0.03741388 0.00036183
v -0.15561007 -0.04233632 -0.00165405
v -0.15580044 -0.03741388 0.00058762
f 1 2 3
f 1 3 10
f 1 10 16
f 1 16 31
f 1 31 40
f 1 40 44
f 1 44 46
f 1 46 42
f 1 42 35
f 1 35 19
f 1 19 17
f 1 17 11
f 1 11 4
f 1 4 5
f 1 5 6
f 1 6 7
f 1 7 2
f 2 7 8
f 2 8 9
f 2 9 14
f 2 14 22
f 2 22 25
f 2 25 24
f 2 24 33
f 2 33 32
f 2 32 23
f 2 23 15
f 2 15 10
f 2 10 3
f 4 11 5
f 5 11 12
f 5 12 18
f 5 18 34
f 5 34 41
f 5 41 45
f 5 45 47
f 5 47 43
f 5 43 39
f 5 39 36
f 5 36 29
f 5 29 27
f 5 27 20
f 5 20 13
f 5 13 8
f 5 8 7
f 5 7 6
f 8 13 14
f 8 14 9
f 10 15 16
f 11 17 12
f 12 17 19
f 12 19 18
f 13 20 21
f 13 21 22
f 13 22 14
f 15 23 16
f 16 24 25
f 16 25 26
f 16 26 20
f 16 20 27
f 16 27 28
f 16 28 29
f 16 29 30
f 16 30 37
f 16 37 38
f 16 38 31
f 16 23 32
f 16 32 33
f 16 33 24
f 18 19 34
f 19 35 34
f 20 26 21
f 21 26 25
f 21 25 22
f 27 29 28
f 29 36 37
f 29 37 30
f 31 38 39
f 31 39 40
f 34 35 42
f 34 42 41
f 36 39 38
f 36 38 37
f 39 43 44
f 39 44 40
f 41 42 45
f 42 46 45
f 43 47 44
f 44 47 45
f 44 45 46

