# https://github.com/mikedh/trimesh
v 0.00045187 0.08674589 -0.00959973
v 0.00045187 0.08671555 -0.00886197
v 0.00045187 0.08878854 -0.00959973
v 0.01536832 0.08666577 -0.00959973
v 0.00045187 0.08665118 -0.00709752
v 0.00045187 0.08879318 -0.00885619
v 0.03190442 0.08897774 0.00529790
v 0.02075494 0.08883694 -0.00839775
v 0.02116329 0.08882444 -0.00959973
v 0.00045187 0.08663890 -0.00549488
v 0.04050742 0.08674890 -0.00959973
v 0.04732558 0.08670398 -0.00698388
v 0.02118165 0.08664863 -0.00595333
v 0.00045187 0.08876863 0.00124314
v 0.03096842 0.08897149 0.00567160
v 0.04482956 0.08883949 0.01007886
v 0.04601792 0.08883231 0.01007886
v 0.04732558 0.08882630 0.00604336
v 0.04732558 0.08884296 -0.00594370
v 0.04732558 0.08883532 -0.00959973
v 0.00262671 0.08661204 0.00790990
v 0.00045187 0.08667665 0.00758437
v 0.04732558 0.08681327 -0.00959973
v 0.04732558 0.08678248 -0.00903726
v 0.04732558 0.08675399 -0.00844205
v 0.04732558 0.08669772 -0.00447975
v 0.04442579 0.08668035 0.00243549
v 0.00045187 0.08874849 0.00691018
v 0.01852963 0.08879897 0.01007886
v 0.03346443 0.08882398 0.01007886
v 0.00045187 0.08869522 0.01007886
v 0.01452866 0.08877928 0.01007886
v 0.04732558 0.08881193 0.01007886
v 0.00359942 0.08663474 0.00859372
v 0.00251659 0.08664006 0.00865536
v 0.04198025 0.08671601 0.00705657
v 0.03085830 0.08672343 0.00899438
v 0.00045187 0.08671207 0.00838761
v 0.04732558 0.08670119 0.00266279
v 0.04732558 0.08672945 0.00596246
v 0.00045187 0.08686931 0.01007886
v 0.04732558 0.08693670 0.01007886
v 0.00528790 0.08675307 0.01007886
v 0.03112901 0.08677599 0.01007886
v 0.00433354 0.08677112 0.01007886
v 0.04732558 0.08674102 0.00666169
v 0.04456803 0.08674751 0.00756125
v 0.04443039 0.08681721 0.01007886
v 0.04316402 0.08680933 0.01007886
v 0.04732558 0.08679521 0.00779818
f 1 2 5
f 1 5 10
f 1 10 22
f 1 22 38
f 1 38 41
f 1 41 31
f 1 31 28
f 1 28 14
f 1 14 6
f 1 6 3
f 1 3 9
f 1 9 20
f 1 20 23
f 1 23 11
f 1 11 4
f 1 4 2
f 2 4 5
f 3 6 7
f 3 7 8
f 3 8 9
f 4 10 5
f 4 11 12
f 4 12 13
f 4 13 10
f 6 14 15
f 6 15 7
f 7 15 16
f 7 16 17
f 7 17 18
f 7 18 19
f 7 19 20
f 7 20 8
f 8 20 9
f 10 21 22
f 10 13 21
f 11 23 24
f 11 24 25
f 11 25 12
f 12 25 24
f 12 24 23
f 12 23 20
f 12 20 19
f 12 19 18
f 12 18 33
f 12 33 42
f 12 42 50
f 12 50 46
f 12 46 40
f 12 40 39
f 12 39 26
f 12 26 13
f 13 26 27
f 13 27 21
f 14 28 15
f 15 29 30
f 15 30 16
f 15 28 31
f 15 31 32
f 15 32 29
f 16 30 29
f 16 29 32
f 16 32 31
f 16 31 41
f 16 41 45
f 16 45 43
f 16 43 44
f 16 44 49
f 16 49 48
f 16 48 42
f 16 42 33
f 16 33 17
f 17 33 18
f 21 34 35
f 21 35 22
f 21 27 36
f 21 36 37
f 21 37 34
f 22 35 38
f 26 39 27
f 27 39 40
f 27 40 36
f 34 43 35
f 34 37 44
f 34 44 43
f 35 41 38
f 35 43 45
f 35 45 41
f 36 40 46
f 36 46 47
f 36 47 48
f 36 48 49
f 36 49 37
f 37 49 44
f 42 48 50
f 46 50 48
f 46 48 47

