# https://github.com/mikedh/trimesh
v -0.08385775 -0.06715312 -0.01216589
v -0.08385775 -0.06715312 -0.01536570
v -0.08535836 -0.06715312 -0.01215467
v -0.08385775 -0.08318659 -0.01191117
v -0.08385775 -0.06802259 -0.01535788
v -0.11975980 -0.08086851 -0.01505010
v -0.11975980 -0.06715312 -0.01511710
v -0.10845080 -0.06715312 -0.01202476
v -0.08935763 -0.08318659 -0.01189893
v -0.08385775 -0.08318659 -0.01432301
v -0.11975980 -0.06715312 -0.01198701
v -0.08385775 -0.07262578 -0.01529836
v -0.11881797 -0.08318659 -0.01503106
v -0.11912020 -0.08318659 -0.01502970
v -0.11975980 -0.08318659 -0.01502596
v -0.11975980 -0.06920752 -0.01196796
v -0.11975980 -0.07504430 -0.01192749
v -0.11975980 -0.08017482 -0.01189859
v -0.11975980 -0.08201892 -0.01189144
v -0.10997951 -0.08318659 -0.01189621
v -0.08385775 -0.08317718 -0.01510758
v -0.08667270 -0.08318659 -0.01510078
v -0.08385775 -0.07696530 -0.01523239
v -0.09691336 -0.08071942 -0.01513716
v -0.09831557 -0.08133308 -0.01512220
v -0.10253975 -0.08318659 -0.01507629
v -0.11975980 -0.08318659 -0.01189655
v -0.08710496 -0.08318659 -0.01510214
v -0.08736854 -0.08318659 -0.01510180
v -0.08385775 -0.08307830 -0.01511064
v -0.08385775 -0.08114004 -0.01516063
v -0.08710496 -0.08133308 -0.01515077
f 1 2 7
f 1 7 11
f 1 11 8
f 1 8 3
f 1 3 4
f 1 4 10
f 1 10 21
f 1 21 30
f 1 30 31
f 1 31 23
f 1 23 12
f 1 12 5
f 1 5 2
f 2 5 6
f 2 6 7
f 3 8 4
f 4 9 20
f 4 20 27
f 4 27 15
f 4 15 14
f 4 14 13
f 4 13 26
f 4 26 29
f 4 29 28
f 4 28 22
f 4 22 10
f 4 8 11
f 4 11 9
f 5 12 13
f 5 13 14
f 5 14 6
f 6 14 15
f 6 15 27
f 6 27 19
f 6 19 18
f 6 18 17
f 6 17 16
f 6 16 11
f 6 11 7
f 9 11 16
f 9 16 17
f 9 17 18
f 9 18 19
f 9 19 20
f 10 22 21
f 12 23 24
f 12 24 13
f 13 25 26
f 13 24 25
f 19 27 20
f 21 22 28
f 21 28 29
f 21 29 30
f 23 31 32
f 23 32 24
f 24 32 25
f 25 32 26
f 26 32 30
f 26 30 29
f 30 32 31

