# https://github.com/mikedh/trimesh
v 0.12531113 0.05567805 -0.01184059
v 0.12531113 0.04511443 -0.01177767
v 0.12531113 0.05567805 -0.01468306
v 0.11753910 0.05567805 -0.01189808
v 0.10357513 0.04332390 -0.01181886
v 0.10308135 0.03906121 -0.01178265
v 0.12531113 0.03869379 -0.01175503
v 0.12531113 0.05390248 -0.01468940
v 0.10470752 0.05567472 -0.01615748
v 0.10421703 0.05567472 -0.01619189
v 0.11005017 0.05567805 -0.01483607
v 0.11601497 0.05567805 -0.01191121
v 0.09168172 0.05567472 -0.01209727
v 0.10053017 0.04502465 -0.01186730
v 0.09935499 0.04160153 -0.01182882
v 0.09978951 0.03869546 -0.01182520
v 0.10276862 0.03869546 -0.01178763
v 0.10304185 0.03869546 -0.01178627
v 0.11005017 0.03869379 -0.01186323
v 0.12531113 0.03869379 -0.01469845
v 0.12531113 0.04211026 -0.01469754
v 0.10269291 0.05470714 -0.01622403
v 0.09201749 0.04919257 -0.01637659
v 0.09168172 0.05567472 -0.01498365
v 0.11005017 0.05567805 -0.01197368
v 0.11208124 0.05567805 -0.01194924
v 0.09168172 0.04069380 -0.01206105
v 0.09527311 0.03949513 -0.01191529
v 0.09573067 0.03869546 -0.01190623
v 0.09807776 0.03869546 -0.01185734
v 0.11005017 0.03869379 -0.01486821
v 0.09404526 0.03869546 -0.01196735
v 0.09168172 0.03869546 -0.01206513
v 0.09168172 0.03869546 -0.01507781
v 0.09168830 0.04875035 -0.01635350
v 0.09168830 0.04899141 -0.01637976
v 0.09168172 0.04587253 -0.01504023
v 0.09168172 0.03876861 -0.01206467
f 1 2 7
f 1 7 20
f 1 20 21
f 1 21 8
f 1 8 3
f 1 3 11
f 1 11 25
f 1 25 26
f 1 26 12
f 1 12 4
f 1 4 5
f 1 5 6
f 1 6 2
f 2 6 7
f 3 8 9
f 3 9 10
f 3 10 11
f 4 12 13
f 4 13 14
f 4 14 5
f 5 14 15
f 5 15 6
f 6 15 16
f 6 16 17
f 6 17 18
f 6 18 7
f 7 19 31
f 7 31 20
f 7 18 17
f 7 17 19
f 8 21 9
f 9 21 20
f 9 20 10
f 10 20 22
f 10 22 23
f 10 23 24
f 10 24 11
f 11 24 13
f 11 13 25
f 12 26 13
f 13 24 37
f 13 37 34
f 13 34 33
f 13 33 38
f 13 38 27
f 13 27 28
f 13 28 15
f 13 15 14
f 13 26 25
f 15 28 29
f 15 29 30
f 15 30 16
f 16 30 19
f 16 19 17
f 19 30 29
f 19 29 32
f 19 32 33
f 19 33 34
f 19 34 31
f 20 31 34
f 20 34 35
f 20 35 36
f 20 36 23
f 20 23 22
f 23 36 24
f 24 36 37
f 27 38 32
f 27 32 28
f 28 32 29
f 32 38 33
f 34 37 36
f 34 36 35

