# https://github.com/mikedh/trimesh
v -0.05621757 -0.08832798 0.00105312
v -0.05621757 -0.08616905 0.00105312
v -0.05521009 -0.08832563 0.00105312
v -0.05621757 -0.08831494 0.00148393
v -0.05621757 -0.08610933 0.00256233
v -0.04546002 -0.08608715 0.00105312
v -0.00578809 -0.08811099 0.00105312
v -0.00096536 -0.08786687 0.00817461
v -0.05621757 -0.08811960 0.00671002
v -0.05621757 -0.08608976 0.00313115
v -0.02441837 -0.08578358 0.00548105
v -0.04521778 -0.08608585 0.00105312
v 0.00002561 -0.08807943 0.00105312
v -0.05621757 -0.08803301 0.00817461
v -0.00006798 -0.08783793 0.00817461
v -0.05621757 -0.08603004 0.00593485
v -0.05483021 -0.08602404 0.00481463
v -0.02373020 -0.08574290 0.00817461
v -0.00707636 -0.08566387 0.00817461
v -0.01007130 -0.08575176 0.00515411
v -0.01028601 -0.08586756 0.00199071
v -0.04822373 -0.08594163 0.00637541
v -0.02572866 -0.08576950 0.00709899
v -0.01024747 -0.08592650 0.00105312
v 0.00002561 -0.08624547 0.00105312
v 0.00002561 -0.08782880 0.00797036
v 0.00001460 -0.08783376 0.00817461
v -0.05621757 -0.08602978 0.00817461
v -0.05621757 -0.08602795 0.00652808
v -0.02468263 -0.08574864 0.00817461
v -0.00616246 -0.08567222 0.00817461
v -0.00939413 -0.08590303 0.00159337
v -0.00954828 -0.08593485 0.00105312
v -0.00322258 -0.08590668 0.00388750
v -0.04799250 -0.08593980 0.00817461
v 0.00002561 -0.08602274 0.00514226
v -0.00140580 -0.08616722 0.00105312
v -0.00214902 -0.08593094 0.00438243
v 0.00002561 -0.08606550 0.00817461
v -0.00516048 -0.08570273 0.00817461
v -0.00923448 -0.08594032 0.00105312
v -0.00306843 -0.08587330 0.00501818
v -0.00222059 -0.08612419 0.00105312
v 0.00002561 -0.08589051 0.00817461
f 1 2 6
f 1 6 12
f 1 12 24
f 1 24 33
f 1 33 41
f 1 41 43
f 1 43 37
f 1 37 25
f 1 25 13
f 1 13 7
f 1 7 3
f 1 3 4
f 1 4 9
f 1 9 14
f 1 14 28
f 1 28 29
f 1 29 16
f 1 16 10
f 1 10 5
f 1 5 2
f 2 5 6
f 3 7 8
f 3 8 4
f 4 8 9
f 5 10 11
f 5 11 6
f 6 11 12
f 7 13 8
f 8 14 9
f 8 13 15
f 8 15 27
f 8 27 39
f 8 39 44
f 8 44 40
f 8 40 31
f 8 31 19
f 8 19 18
f 8 18 30
f 8 30 35
f 8 35 28
f 8 28 14
f 10 16 17
f 10 17 11
f 11 18 19
f 11 19 20
f 11 20 21
f 11 21 12
f 11 17 22
f 11 22 23
f 11 23 18
f 12 21 24
f 13 25 36
f 13 36 44
f 13 44 39
f 13 39 26
f 13 26 27
f 13 27 15
f 16 29 22
f 16 22 17
f 18 23 30
f 19 31 21
f 19 21 20
f 21 32 33
f 21 33 24
f 21 31 34
f 21 34 32
f 22 35 30
f 22 30 23
f 22 29 35
f 25 37 38
f 25 38 36
f 26 39 27
f 28 35 29
f 31 40 34
f 32 41 33
f 32 34 41
f 34 40 42
f 34 42 38
f 34 38 43
f 34 43 41
f 36 38 44
f 37 43 38
f 38 42 44
f 40 44 42

