# https://github.com/mikedh/trimesh
v 0.14637752 0.07111451 -0.01187982
v 0.15024173 0.07095190 -0.01166090
v 0.14637752 0.07111451 -0.01459823
v 0.14037746 0.07111451 -0.01186449
v 0.15024173 0.06380416 -0.01181186
v 0.15024173 0.07095190 -0.01452796
v 0.14037746 0.07106128 -0.01186334
v 0.14037746 0.07091106 -0.01186073
v 0.14037746 0.07069230 -0.01185755
v 0.14037746 0.06366561 -0.01181793
v 0.14172733 0.06366561 -0.01181533
v 0.15011524 0.07095190 -0.01453114
v 0.14765883 0.07095190 -0.01459216
v 0.14704280 0.07095190 -0.01459534
v 0.14625586 0.07111451 -0.01459881
v 0.14037746 0.07111451 -0.01461125
v 0.15024173 0.06380416 -0.01454849
v 0.14637752 0.06366561 -0.01185957
v 0.15024173 0.06869863 -0.01455543
v 0.14037746 0.06366561 -0.01460575
v 0.14868524 0.06602242 -0.01457625
v 0.14790408 0.06380416 -0.01457510
v 0.14637752 0.06366561 -0.01458204
v 0.14556354 0.06366561 -0.01458580
v 0.14501316 0.06366561 -0.01458811
v 0.14037746 0.06808609 -0.01461530
v 0.14521304 0.07111451 -0.01460257
v 0.14920664 0.06380416 -0.01456700
f 1 2 6
f 1 6 3
f 1 3 15
f 1 15 27
f 1 27 16
f 1 16 4
f 1 4 2
f 2 5 17
f 2 17 19
f 2 19 6
f 2 4 7
f 2 7 8
f 2 8 9
f 2 9 10
f 2 10 11
f 2 11 5
f 3 6 12
f 3 12 13
f 3 13 14
f 3 14 15
f 4 16 26
f 4 26 20
f 4 20 10
f 4 10 9
f 4 9 8
f 4 8 7
f 5 11 18
f 5 18 23
f 5 23 17
f 6 19 12
f 10 20 25
f 10 25 24
f 10 24 23
f 10 23 18
f 10 18 11
f 12 19 13
f 13 19 21
f 13 21 14
f 14 21 22
f 14 22 23
f 14 23 24
f 14 24 25
f 14 25 15
f 15 25 26
f 15 26 27
f 16 27 26
f 17 28 19
f 17 23 28
f 19 28 21
f 20 26 25
f 21 28 22
f 22 28 23

