# https://github.com/mikedh/trimesh
v 0.02390805 -0.01869414 -0.01261011
v 0.02390805 -0.01869414 -0.01573608
v 0.01693548 -0.01869414 -0.01261737
v 0.02820594 -0.01869565 -0.01258878
v 0.02820594 -0.01869565 -0.01571158
v 0.02612532 -0.01869565 -0.01573290
v 0.02531093 -0.01869565 -0.01573563
v 0.01573899 -0.01869414 -0.01574697
v 0.01514492 -0.01869414 -0.01262145
v 0.00002561 -0.01869565 -0.01263870
v 0.02851831 -0.03405408 -0.01251709
v 0.02851831 -0.02632449 -0.01257562
v 0.02851831 -0.02632449 -0.01682738
v 0.02851831 -0.02677262 -0.01703701
v 0.02851831 -0.02708843 -0.01711325
v 0.00475859 -0.01869565 -0.01575604
v 0.00002561 -0.01869565 -0.01575877
v 0.01514492 -0.01869414 -0.01574606
v 0.00002561 -0.03319691 -0.01262962
v 0.02851831 -0.03405408 -0.01571112
v 0.00002561 -0.03405559 -0.01262962
v 0.00150100 -0.03405559 -0.01262599
v 0.00794645 -0.03405559 -0.01261147
v 0.01514492 -0.03405559 -0.01259786
v 0.02851831 -0.02722076 -0.01713367
v 0.00002561 -0.02349732 -0.01578009
v 0.02851831 -0.02738467 -0.01715272
v 0.02028510 -0.03405258 -0.01708103
v 0.02060863 -0.03405258 -0.01702794
v 0.02148159 -0.03336534 -0.01709011
v 0.02346459 -0.03219236 -0.01704927
v 0.02596356 -0.03009755 -0.01710916
v 0.02811111 -0.02827944 -0.01708647
v 0.02851831 -0.02784935 -0.01708784
v 0.01514492 -0.03405559 -0.01594027
v 0.00002561 -0.03405559 -0.01577782
v 0.00002561 -0.03259388 -0.01579870
v 0.02851831 -0.02761175 -0.01712187
v 0.02772623 -0.02826140 -0.01714864
v 0.02493441 -0.03070209 -0.01713457
f 1 2 8
f 1 8 18
f 1 18 9
f 1 9 3
f 1 3 4
f 1 4 5
f 1 5 2
f 2 5 6
f 2 6 7
f 2 7 8
f 3 9 10
f 3 10 4
f 4 11 12
f 4 12 13
f 4 13 5
f 4 10 11
f 5 13 14
f 5 14 15
f 5 15 6
f 6 15 7
f 7 15 8
f 8 16 17
f 8 17 18
f 8 15 16
f 9 18 17
f 9 17 10
f 10 17 26
f 10 26 37
f 10 37 36
f 10 36 21
f 10 21 19
f 10 19 11
f 11 20 34
f 11 34 38
f 11 38 27
f 11 27 25
f 11 25 15
f 11 15 14
f 11 14 13
f 11 13 12
f 11 19 21
f 11 21 22
f 11 22 23
f 11 23 24
f 11 24 35
f 11 35 20
f 15 25 17
f 15 17 16
f 17 25 27
f 17 27 28
f 17 28 26
f 20 28 29
f 20 29 30
f 20 30 31
f 20 31 32
f 20 32 33
f 20 33 34
f 20 35 28
f 21 36 35
f 21 35 24
f 21 24 23
f 21 23 22
f 26 28 37
f 27 38 39
f 27 39 40
f 27 40 28
f 28 40 30
f 28 30 29
f 28 35 36
f 28 36 37
f 30 40 31
f 31 40 32
f 32 40 39
f 32 39 33
f 33 39 34
f 34 39 38

