# https://github.com/mikedh/trimesh
v -0.07836911 -0.08524972 -0.01523642
v -0.11516799 -0.08533544 -0.01523642
v 0.01821735 -0.08567722 -0.01520293
v -0.05185152 -0.08528765 -0.01523612
v -0.03956826 -0.08647166 -0.01776884
v -0.11555821 -0.08671057 -0.01766294
v -0.12461796 -0.08666133 -0.01746926
v -0.13048813 -0.08568670 -0.01523883
v -0.12566984 -0.08584609 -0.01523612
v 0.00087828 -0.08581983 -0.01520293
v 0.00204891 -0.08579175 -0.01520293
v 0.00642610 -0.08572244 -0.01520293
v 0.03525104 -0.08571697 -0.01520293
v -0.01958251 -0.08535988 -0.01523642
v 0.03553946 -0.08673501 -0.01769462
v -0.04019600 -0.08657561 -0.01793899
v -0.11588055 -0.08681160 -0.01783280
v -0.12470279 -0.08692176 -0.01779539
v -0.13340626 -0.08726829 -0.01767381
v -0.13340626 -0.08703593 -0.01732263
v -0.13340626 -0.08702681 -0.01730604
v -0.13340626 -0.08603030 -0.01523883
v -0.12738339 -0.08598215 -0.01523612
v 0.00002998 -0.08588111 -0.01520293
v 0.00079345 -0.08582531 -0.01520293
v 0.03604844 -0.08662814 -0.01745809
v 0.03991665 -0.08595370 -0.01520293
v 0.03991665 -0.08657124 -0.01681398
v 0.03684583 -0.08674450 -0.01759959
v 0.03630292 -0.08689915 -0.01782827
v 0.03516622 -0.08687471 -0.01785935
v 0.03582788 -0.08702864 -0.01797188
v -0.00575537 -0.08723509 -0.01819181
v -0.03973792 -0.08686523 -0.01808743
v -0.06657786 -0.08708737 -0.01821776
v -0.06576350 -0.08700237 -0.01816828
v -0.06642517 -0.08683969 -0.01806269
v -0.11571090 -0.08701076 -0.01802588
v -0.12453313 -0.08704942 -0.01787956
v -0.13340626 -0.08738902 -0.01779086
v -0.13340626 -0.08897607 -0.01523883
v -0.12738339 -0.08882944 -0.01523612
v 0.00002998 -0.08868682 -0.01520293
v 0.03991665 -0.08668358 -0.01706800
v 0.03991665 -0.08863320 -0.01520293
v 0.03991665 -0.08680358 -0.01726833
v 0.03928891 -0.08695313 -0.01756882
v 0.03872903 -0.08709101 -0.01776431
v 0.03810130 -0.08727485 -0.01794925
v 0.03855938 -0.08740251 -0.01798998
v 0.03693066 -0.08732154 -0.01804670
v 0.03735480 -0.08750099 -0.01810191
v 0.03621810 -0.08721503 -0.01802830
v -0.00587412 -0.08747765 -0.01826120
v -0.06596709 -0.08726427 -0.01826814
v -0.11470991 -0.08712384 -0.01807476
v -0.12494031 -0.08726974 -0.01794774
v -0.12409202 -0.08717090 -0.01793236
v -0.13340626 -0.08755170 -0.01781440
v -0.11995236 -0.08761189 -0.01811609
v -0.02821812 -0.08893887 -0.01701732
v -0.02784487 -0.08893121 -0.01666977
v -0.02869316 -0.08889217 -0.01523642
v 0.00147208 -0.08869156 -0.01520293
v -0.13340626 -0.08896477 -0.01561082
v 0.03981485 -0.08863393 -0.01520293
v 0.03991665 -0.08862518 -0.01531154
v 0.03991665 -0.08688383 -0.01737724
v 0.03991665 -0.08700383 -0.01749822
v 0.03918712 -0.08715922 -0.01775255
v 0.03844062 -0.08769176 -0.01806571
v 0.03806737 -0.08763669 -0.01810342
v 0.03911925 -0.08740251 -0.01784577
v 0.03888173 -0.08763450 -0.01794895
v -0.06681538 -0.08738865 -0.01828474
v -0.00546694 -0.08758672 -0.01825366
v -0.11408217 -0.08744373 -0.01816315
v -0.13340626 -0.08778040 -0.01778604
v -0.12183556 -0.08785189 -0.01810372
v -0.12107209 -0.08809920 -0.01813178
v -0.12046133 -0.08785044 -0.01812665
v -0.02735286 -0.08891589 -0.01712321
v 0.03750750 -0.08843988 -0.01705412
v 0.03806737 -0.08849423 -0.01661908
v 0.03991665 -0.08856317 -0.01591583
v -0.13340626 -0.08895346 -0.01578279
v -0.12473672 -0.08883200 -0.01694974
v -0.12534749 -0.08878640 -0.01718084
v 0.02561445 -0.08866166 -0.01520293
v 0.03991665 -0.08798868 -0.01723695
v 0.03954340 -0.08729126 -0.01765993
v 0.03867814 -0.08777930 -0.01797339
v 0.03845759 -0.08785955 -0.01796494
v 0.03801647 -0.08784241 -0.01801381
v 0.03760930 -0.08768301 -0.01808592
v -0.00517852 -0.08787305 -0.01819272
v -0.00561964 -0.08778223 -0.01822832
v -0.00600985 -0.08767352 -0.01824521
v 0.03991665 -0.08823453 -0.01710722
v -0.06634034 -0.08755097 -0.01826663
v -0.13340626 -0.08788983 -0.01776884
v -0.12049526 -0.08824510 -0.01805907
v -0.13340626 -0.08820607 -0.01766264
v -0.13340626 -0.08800947 -0.01774923
v -0.02692872 -0.08882688 -0.01740138
v 0.03844062 -0.08833592 -0.01740650
v -0.12375270 -0.08871929 -0.01742279
v 0.03889869 -0.08841799 -0.01701219
v 0.03991665 -0.08849240 -0.01643686
v -0.13340626 -0.08891151 -0.01612521
v -0.13340626 -0.08889400 -0.01625252
v -0.13340626 -0.08888671 -0.01628873
v -0.13340626 -0.08881266 -0.01659796
v -0.13340626 -0.08870178 -0.01696603
v -0.13340626 -0.08864561 -0.01714162
v -0.13340626 -0.08858943 -0.01728914
v 0.03837275 -0.08803063 -0.01783763
v 0.03874600 -0.08817324 -0.01758782
v 0.03801647 -0.08818346 -0.01774470
v 0.03716818 -0.08813786 -0.01780384
v -0.02563932 -0.08860402 -0.01768678
v -0.02596166 -0.08851538 -0.01775255
v 0.03991665 -0.08841033 -0.01683871
v -0.12444830 -0.08862737 -0.01756640
v -0.13340626 -0.08840377 -0.01750636
v -0.13340626 -0.08831331 -0.01757968
v -0.02667423 -0.08870761 -0.01760442
v 0.03764322 -0.08828777 -0.01755343
f 1 2 3
f 1 3 4
f 1 4 5
f 1 5 2
f 2 6 7
f 2 7 8
f 2 8 9
f 2 9 10
f 2 10 11
f 2 11 12
f 2 12 3
f 2 5 6
f 3 12 11
f 3 11 10
f 3 10 25
f 3 25 24
f 3 24 43
f 3 43 64
f 3 64 89
f 3 89 66
f 3 66 45
f 3 45 27
f 3 27 13
f 3 13 14
f 3 14 4
f 4 14 5
f 5 14 15
f 5 15 16
f 5 16 17
f 5 17 6
f 6 17 7
f 7 17 18
f 7 18 19
f 7 19 20
f 7 20 8
f 8 20 21
f 8 21 22
f 8 22 23
f 8 23 9
f 9 23 24
f 9 24 25
f 9 25 10
f 13 26 14
f 13 27 28
f 13 28 26
f 14 26 15
f 15 26 29
f 15 29 30
f 15 30 31
f 15 31 16
f 16 31 32
f 16 32 33
f 16 33 34
f 16 34 35
f 16 35 36
f 16 36 37
f 16 37 38
f 16 38 17
f 17 38 18
f 18 38 39
f 18 39 40
f 18 40 19
f 19 40 59
f 19 59 78
f 19 78 101
f 19 101 104
f 19 104 103
f 19 103 126
f 19 126 125
f 19 125 116
f 19 116 115
f 19 115 114
f 19 114 113
f 19 113 112
f 19 112 111
f 19 111 110
f 19 110 86
f 19 86 65
f 19 65 41
f 19 41 22
f 19 22 21
f 19 21 20
f 22 41 42
f 22 42 23
f 23 42 43
f 23 43 24
f 26 28 44
f 26 44 29
f 27 45 67
f 27 67 85
f 27 85 109
f 27 109 123
f 27 123 99
f 27 99 90
f 27 90 69
f 27 69 68
f 27 68 46
f 27 46 44
f 27 44 28
f 29 44 46
f 29 46 47
f 29 47 30
f 30 32 31
f 30 47 48
f 30 48 32
f 32 48 49
f 32 49 50
f 32 50 51
f 32 51 52
f 32 52 53
f 32 53 33
f 33 54 55
f 33 55 35
f 33 35 34
f 33 53 54
f 35 55 56
f 35 56 38
f 35 38 36
f 36 38 37
f 38 56 57
f 38 57 58
f 38 58 39
f 39 58 57
f 39 57 40
f 40 57 60
f 40 60 59
f 41 61 62
f 41 62 63
f 41 63 64
f 41 64 43
f 41 43 42
f 41 65 61
f 45 66 67
f 46 68 47
f 47 68 69
f 47 69 70
f 47 70 48
f 48 70 50
f 48 50 49
f 50 71 72
f 50 72 52
f 50 52 51
f 50 70 73
f 50 73 74
f 50 74 71
f 52 72 54
f 52 54 53
f 54 75 55
f 54 72 76
f 54 76 75
f 55 75 77
f 55 77 56
f 56 77 60
f 56 60 57
f 59 60 79
f 59 79 80
f 59 80 78
f 60 77 81
f 60 81 79
f 61 82 83
f 61 83 84
f 61 84 85
f 61 85 67
f 61 67 66
f 61 66 62
f 61 65 86
f 61 86 87
f 61 87 88
f 61 88 82
f 62 66 63
f 63 66 89
f 63 89 64
f 69 90 91
f 69 91 74
f 69 74 73
f 69 73 70
f 71 74 92
f 71 92 93
f 71 93 94
f 71 94 72
f 72 94 95
f 72 95 96
f 72 96 97
f 72 97 98
f 72 98 76
f 74 91 90
f 74 90 99
f 74 99 92
f 75 76 98
f 75 98 100
f 75 100 80
f 75 80 77
f 77 80 81
f 78 80 101
f 79 81 80
f 80 102 103
f 80 103 104
f 80 104 101
f 80 100 97
f 80 97 96
f 80 96 102
f 82 105 106
f 82 106 83
f 82 88 107
f 82 107 105
f 83 106 108
f 83 108 109
f 83 109 84
f 84 109 85
f 86 110 87
f 87 110 111
f 87 111 88
f 88 111 112
f 88 112 113
f 88 113 114
f 88 114 115
f 88 115 116
f 88 116 107
f 92 117 93
f 92 99 118
f 92 118 117
f 93 117 94
f 94 117 119
f 94 119 120
f 94 120 96
f 94 96 95
f 96 120 121
f 96 121 122
f 96 122 102
f 97 100 98
f 99 123 118
f 102 124 125
f 102 125 126
f 102 126 103
f 102 122 121
f 102 121 127
f 102 127 124
f 105 127 119
f 105 119 128
f 105 128 106
f 105 107 127
f 106 118 123
f 106 123 108
f 106 128 119
f 106 119 118
f 107 116 124
f 107 124 127
f 108 123 109
f 116 125 124
f 117 118 119
f 119 127 120
f 120 127 121

