# https://github.com/mikedh/trimesh
v -0.11145367 -0.05937695 -0.01656905
v -0.11074690 -0.05897737 -0.01654935
v -0.11031791 -0.05897737 -0.01653189
v -0.11031791 -0.05901306 -0.01653055
v -0.11031791 -0.05911266 -0.01652204
v -0.11074872 -0.05925775 -0.01653502
v -0.11248652 -0.06000699 -0.01655517
v -0.11494021 -0.06136038 -0.01650324
v -0.11517519 -0.06136038 -0.01646697
v -0.11962261 -0.05897737 -0.01511081
v -0.11031791 -0.05897737 -0.01209943
v -0.11031791 -0.05933706 -0.01646697
v -0.11250200 -0.06030300 -0.01651174
v -0.11439646 -0.06136038 -0.01647010
v -0.11544387 -0.06136038 -0.01641414
v -0.11565063 -0.06136038 -0.01636802
v -0.11571529 -0.06136038 -0.01635280
v -0.11623900 -0.06136038 -0.01621938
v -0.11743487 -0.06136038 -0.01590060
v -0.11962261 -0.06136038 -0.01531005
v -0.11962261 -0.05897737 -0.01199556
v -0.11031791 -0.05978353 -0.01208868
v -0.11950694 -0.05897737 -0.01199600
v -0.11031791 -0.05937112 -0.01644951
v -0.11380899 -0.06130720 -0.01642712
v -0.11390280 -0.06136038 -0.01642220
v -0.11962261 -0.06136038 -0.01201302
v -0.11962261 -0.05906228 -0.01199556
v -0.11031791 -0.06136038 -0.01207435
v -0.11031791 -0.06136038 -0.01533289
f 1 2 3
f 1 3 4
f 1 4 5
f 1 5 6
f 1 6 7
f 1 7 8
f 1 8 9
f 1 9 10
f 1 10 2
f 2 10 21
f 2 21 23
f 2 23 11
f 2 11 3
f 3 11 22
f 3 22 29
f 3 29 30
f 3 30 24
f 3 24 12
f 3 12 5
f 3 5 4
f 5 12 13
f 5 13 6
f 6 13 7
f 7 13 14
f 7 14 8
f 8 14 26
f 8 26 30
f 8 30 29
f 8 29 27
f 8 27 20
f 8 20 19
f 8 19 18
f 8 18 17
f 8 17 16
f 8 16 15
f 8 15 9
f 9 15 10
f 10 16 17
f 10 17 18
f 10 18 19
f 10 19 20
f 10 20 27
f 10 27 28
f 10 28 21
f 10 15 16
f 11 23 22
f 12 24 25
f 12 25 13
f 13 25 14
f 14 25 26
f 21 28 23
f 22 23 29
f 23 28 29
f 24 30 25
f 25 30 26
f 27 29 28

