# https://github.com/mikedh/trimesh
v -0.02518126 -0.08773511 0.01024253
v -0.02518126 -0.08574245 0.01024253
v -0.02411560 -0.08776612 0.01024253
v -0.02984843 -0.08806889 0.01024327
v -0.02335583 -0.08570355 0.01024253
v -0.02984843 -0.08578292 0.01024327
v -0.00063173 -0.08795482 0.01024253
v -0.02499378 -0.08971674 0.01234343
v -0.02518126 -0.08973829 0.01239269
v -0.02580289 -0.08980293 0.01254643
v -0.02984843 -0.08938769 0.01268973
v 0.06725443 -0.09028914 0.01268898
v -0.00544691 -0.08995537 0.01214565
v -0.02984843 -0.08558319 0.01389504
v -0.01356759 -0.08541130 0.01483914
v -0.00728220 -0.08559317 0.01024253
v -0.00027651 -0.08793537 0.01024253
v 0.07095462 -0.08799845 0.01095900
v 0.06814247 -0.08810516 0.01095900
v 0.06742217 -0.08813197 0.01095900
v 0.06670187 -0.08814878 0.01095900
v 0.06523166 -0.08817716 0.01095900
v -0.02432281 -0.08982607 0.01248449
v -0.02504312 -0.08994748 0.01271809
v -0.02519112 -0.08991962 0.01268450
v -0.00574292 -0.09014880 0.01243523
v -0.02598050 -0.08993120 0.01284123
v -0.02984843 -0.08962791 0.01316289
v 0.06785632 -0.09007206 0.01253598
v 0.06937587 -0.08986391 0.01243821
v 0.07095462 -0.08996903 0.01261509
v 0.07095462 -0.09016457 0.01283750
v 0.06676107 -0.09047943 0.01293527
v 0.06647492 -0.09035485 0.01276884
v -0.02984843 -0.08557162 0.01500109
v -0.01427803 -0.08541761 0.01506080
v 0.02255613 -0.08540920 0.01530559
v 0.00143051 -0.08542181 0.01453016
v -0.00689738 -0.08559317 0.01024253
v 0.00002937 -0.08791698 0.01024253
v 0.07095462 -0.08599055 0.01095900
v -0.02412547 -0.08998061 0.01275988
v -0.02464843 -0.09007890 0.01306363
v -0.02519112 -0.08998008 0.01282780
v -0.02519112 -0.08994486 0.01273674
v -0.00546664 -0.09021924 0.01262629
v -0.02078050 -0.09010781 0.01296512
v 0.06565595 -0.09052673 0.01301587
v 0.06633678 -0.09061083 0.01319648
v 0.06583355 -0.09067075 0.01334649
v 0.00639370 -0.09038219 0.01294795
v -0.02559568 -0.09006944 0.01313827
v -0.02984843 -0.08984289 0.01370771
v -0.02984843 -0.08965892 0.01322932
v 0.07095462 -0.09022975 0.01295766
v 0.06720509 -0.09057508 0.01321215
v -0.02984843 -0.08559527 0.01550337
v -0.01395241 -0.08543443 0.01558099
v 0.02483545 -0.08542917 0.01573921
v 0.02453943 -0.08542287 0.01527425
v 0.02367112 -0.08543811 0.01463316
v 0.01461306 -0.08546071 0.01378906
v -0.00514103 -0.08561315 0.01024253
v 0.03006505 -0.08566203 0.01095750
v 0.04262596 -0.08573404 0.01095900
v 0.06446202 -0.08588227 0.01095900
v 0.00002937 -0.08570565 0.01024253
v 0.06830035 -0.08582813 0.01468391
v 0.06968175 -0.08583391 0.01527574
v 0.07095462 -0.08588332 0.01474809
v -0.02473723 -0.09015458 0.01344053
v -0.02519112 -0.09010991 0.01328007
v -0.01990232 -0.09015722 0.01307110
v -0.00542717 -0.09022975 0.01265689
v -0.00659150 -0.09025971 0.01279943
v 0.06663279 -0.09069441 0.01354651
v 0.06605063 -0.09075591 0.01382936
v 0.06535993 -0.09072595 0.01361293
v 0.00615689 -0.09046103 0.01323902
v -0.02604957 -0.09014565 0.01361965
v -0.02984843 -0.08998008 0.01421148
v 0.07095462 -0.09036746 0.01333530
v 0.07095462 -0.09050413 0.01382936
v 0.07095462 -0.09053514 0.01394280
v -0.02984843 -0.08564678 0.01584967
v -0.02844729 -0.08559160 0.01569443
v -0.02699682 -0.08561630 0.01598550
v -0.01285716 -0.08547333 0.01583175
v 0.02395727 -0.08543916 0.01589221
v 0.04202407 -0.08557530 0.01600639
v 0.04205367 -0.08555165 0.01567950
v 0.04154058 -0.08556216 0.01482123
v 0.06843849 -0.08583601 0.01584295
v 0.07021458 -0.08586492 0.01596758
v 0.07095462 -0.08587596 0.01534067
v -0.02105678 -0.09020346 0.01341814
v -0.02527006 -0.09020136 0.01384354
v -0.00553571 -0.09030544 0.01296885
v 0.06609010 -0.09077378 0.01393310
v 0.07095462 -0.09054250 0.01399132
v 0.00639370 -0.09047627 0.01353680
v -0.02605943 -0.09022344 0.01439060
v -0.02580289 -0.09021661 0.01421297
v -0.00634482 -0.09033435 0.01322559
v -0.02653306 -0.09019348 0.01411521
v -0.02984843 -0.09003737 0.01453986
v -0.02984843 -0.08566360 0.01593400
v -0.02945374 -0.08565204 0.01592131
v -0.02781579 -0.08568463 0.01617058
v -0.01354786 -0.08555323 0.01604819
v 0.00310793 -0.08562628 0.01641836
v 0.00303886 -0.08552747 0.01613252
v 0.00415385 -0.08547017 0.01591385
v 0.00822900 -0.08558214 0.01633328
v 0.02484532 -0.08555165 0.01621835
v 0.04304038 -0.08564048 0.01628328
v 0.05068744 -0.08568989 0.01620044
v 0.07095462 -0.08592590 0.01619447
v 0.07095462 -0.08590277 0.01608849
v 0.07095462 -0.08589120 0.01593400
v 0.07095462 -0.08588490 0.01576085
v 0.06972122 -0.08592011 0.01625417
v -0.02636531 -0.09020452 0.01421297
v 0.06623811 -0.09077903 0.01429432
v 0.07095462 -0.09059296 0.01442866
v 0.07095462 -0.09059453 0.01445852
v -0.02667120 -0.09020452 0.01504363
v -0.02779606 -0.09018613 0.01492945
v -0.02984843 -0.09007416 0.01489586
v -0.02984843 -0.09007154 0.01486676
v -0.02984843 -0.08574876 0.01620790
v -0.02984843 -0.08580815 0.01633552
v -0.02781579 -0.08582918 0.01647882
v -0.02012926 -0.08568989 0.01631686
v 0.00217055 -0.08580342 0.01674451
v 0.00390717 -0.08573351 0.01662510
v 0.02028668 -0.08576032 0.01669077
v -0.01961617 -0.08579554 0.01653778
v 0.04308972 -0.08576137 0.01659151
v 0.05038156 -0.08584284 0.01670495
v 0.04995728 -0.08572669 0.01640493
v 0.07095462 -0.08601105 0.01644822
v 0.07095462 -0.09059612 0.01452643
v 0.07095462 -0.09059874 0.01498841
v 0.07095462 -0.09058035 0.01526081
v 0.06664266 -0.09074171 0.01461898
v -0.02705602 -0.09014775 0.01555263
v -0.02796380 -0.09016299 0.01536381
v -0.02984843 -0.09008572 0.01539888
v -0.02984843 -0.08588121 0.01648329
v -0.02038581 -0.08589331 0.01667137
v -0.02918733 -0.08597845 0.01663853
v -0.02790459 -0.08604154 0.01674302
v 0.00233829 -0.08596427 0.01694975
v 0.00819939 -0.08588962 0.01688332
v 0.00929465 -0.08582760 0.01680720
v 0.04440206 -0.08587386 0.01682287
v 0.04956259 -0.08598897 0.01694228
v 0.05866012 -0.08618714 0.01713260
v 0.06922786 -0.08617451 0.01689228
v 0.07095462 -0.08611249 0.01669749
v 0.07095462 -0.08606835 0.01659151
v 0.07095462 -0.09056195 0.01547650
v 0.07095462 -0.09052042 0.01579668
v 0.06652426 -0.09065551 0.01513319
v -0.02796380 -0.09010045 0.01575936
v -0.02984843 -0.09002318 0.01580190
v -0.02984843 -0.08595901 0.01659002
v -0.01977405 -0.08603680 0.01682810
v -0.02984843 -0.08601999 0.01666092
v -0.02984843 -0.08617925 0.01680720
v -0.02984843 -0.08625073 0.01686094
v -0.02890118 -0.08630803 0.01692139
v -0.02715469 -0.08616664 0.01684676
v 0.00296979 -0.08611828 0.01707588
v 0.02676941 -0.08621446 0.01721469
v 0.02658194 -0.08606781 0.01708707
v 0.04324759 -0.08607465 0.01709752
v 0.02663127 -0.08590014 0.01688482
v 0.05790035 -0.08637110 0.01732366
v 0.06736297 -0.08640842 0.01726694
v 0.06879371 -0.08638109 0.01722141
v 0.06800434 -0.08626651 0.01707737
v 0.06981989 -0.08632011 0.01711618
v 0.07095462 -0.08627176 0.01699005
v 0.07095462 -0.08622708 0.01691392
v 0.07095462 -0.09046523 0.01609968
v -0.02674027 -0.09004210 0.01603475
v -0.02784539 -0.08999900 0.01613401
v -0.02984843 -0.08993382 0.01613476
v -0.02178695 -0.08610513 0.01685720
v -0.01972471 -0.08618661 0.01693184
v -0.01211712 -0.08627334 0.01705647
v -0.02984843 -0.08640159 0.01695273
v -0.02521086 -0.08653826 0.01706543
v -0.01135735 -0.08647886 0.01718036
v -0.01036076 -0.08630435 0.01709155
v 0.00212121 -0.08622340 0.01713260
v 0.02795348 -0.08646677 0.01736396
v 0.04197473 -0.08632800 0.01732739
v 0.04138270 -0.08614403 0.01716618
v 0.06879371 -0.08674903 0.01752143
v 0.06748138 -0.08657399 0.01741546
v 0.07095462 -0.08663129 0.01741471
v 0.07095462 -0.08643418 0.01721917
v 0.07095462 -0.08641788 0.01719977
v 0.07095462 -0.09034118 0.01657211
v -0.02700668 -0.08993855 0.01633104
v 0.07095462 -0.09031963 0.01664301
v 0.07056980 -0.09031543 0.01665047
v -0.02984843 -0.08984552 0.01634373
v -0.02984843 -0.08666177 0.01705946
v -0.02393799 -0.08670961 0.01714976
v -0.01056797 -0.08664390 0.01724679
v 0.02663127 -0.08669331 0.01745800
v 0.00164759 -0.08638425 0.01720648
v 0.04145177 -0.08657032 0.01746098
v 0.06680054 -0.08682367 0.01755800
v 0.06914893 -0.08705653 0.01765279
v 0.07095462 -0.08702393 0.01762890
v 0.07095462 -0.08690147 0.01757368
v 0.07095462 -0.08684575 0.01754531
v 0.07020471 -0.08666230 0.01745203
v -0.02620744 -0.08980872 0.01656241
v -0.02786513 -0.08983868 0.01647285
v 0.07095462 -0.09020031 0.01694154
v 0.07085595 -0.09019348 0.01695721
v -0.02946361 -0.08980819 0.01643329
v -0.02984843 -0.08975564 0.01647732
v -0.02984843 -0.08687728 0.01713334
v -0.02920706 -0.08675587 0.01710424
v -0.02793420 -0.08707913 0.01722141
v -0.01131788 -0.08702972 0.01734530
v 0.02533867 -0.08710330 0.01753636
v 0.03927112 -0.08722052 0.01762144
v 0.04118536 -0.08676848 0.01753711
v 0.06846809 -0.08723892 0.01771622
v 0.07095462 -0.08723261 0.01770503
v -0.02530953 -0.08967468 0.01672436
v -0.02592129 -0.08955274 0.01685646
v -0.02760858 -0.08961266 0.01675645
v -0.02848676 -0.08971358 0.01661316
v 0.06977056 -0.09004525 0.01715648
v 0.07095462 -0.09019243 0.01695721
v 0.07095462 -0.09016509 0.01699527
v -0.02984843 -0.08973460 0.01650345
v -0.02984843 -0.08711750 0.01720947
v -0.02984843 -0.08730200 0.01725276
v -0.02984843 -0.08754220 0.01729828
v -0.02860517 -0.08759004 0.01731395
v -0.01332091 -0.08724365 0.01736097
v 0.06240965 -0.08781658 0.01781698
v 0.06243925 -0.08747651 0.01775876
v 0.06028821 -0.08719319 0.01769085
v 0.06870491 -0.08760002 0.01780504
v 0.07095462 -0.08750488 0.01778414
v 0.07095462 -0.08728412 0.01772219
v -0.02675013 -0.08941660 0.01696244
v 0.06955348 -0.08991752 0.01729306
v -0.02984843 -0.08944919 0.01680720
v -0.02984843 -0.08955905 0.01670421
v -0.02984843 -0.08959900 0.01665943
v 0.07095462 -0.09002108 0.01718783
v -0.02984843 -0.08784077 0.01733336
v -0.02950308 -0.08784077 0.01733634
v 0.06982976 -0.08810831 0.01786176
v 0.06825101 -0.08777243 0.01783041
v 0.07095462 -0.08777243 0.01782668
v -0.02561541 -0.08906495 0.01710872
v -0.02984843 -0.08835430 0.01726694
v -0.02984843 -0.08913960 0.01698408
v -0.02984843 -0.08924945 0.01693482
v -0.02984843 -0.08939505 0.01684899
v 0.07095462 -0.08977823 0.01741844
v 0.07095462 -0.08964262 0.01751546
v 0.07093488 -0.08949545 0.01759681
v 0.07095462 -0.08998691 0.01722440
v -0.02984843 -0.08790700 0.01733336
v 0.07000737 -0.08836324 0.01786698
v 0.07095462 -0.08810988 0.01786325
v 0.07095462 -0.08803420 0.01785579
v -0.02519112 -0.08866390 0.01722365
v 0.07095462 -0.08922264 0.01769383
v 0.07095462 -0.08904183 0.01774458
v -0.02984843 -0.08831278 0.01727738
v -0.02490497 -0.08839636 0.01729903
v 0.07095462 -0.08949545 0.01759607
v -0.02984843 -0.08811777 0.01732291
v 0.06990870 -0.08874853 0.01780951
v 0.07095462 -0.08876534 0.01781175
v 0.07095462 -0.08852671 0.01784608
v 0.07095462 -0.08839320 0.01786325
v 0.07095462 -0.08830753 0.01786698
f 1 2 5
f 1 5 16
f 1 16 39
f 1 39 63
f 1 63 67
f 1 67 40
f 1 40 17
f 1 17 7
f 1 7 3
f 1 3 4
f 1 4 6
f 1 6 2
f 2 6 5
f 3 7 4
f 4 8 9
f 4 9 10
f 4 10 11
f 4 11 28
f 4 28 54
f 4 54 53
f 4 53 81
f 4 81 106
f 4 106 130
f 4 130 129
f 4 129 149
f 4 149 167
f 4 167 190
f 4 190 211
f 4 211 229
f 4 229 246
f 4 246 262
f 4 262 261
f 4 261 260
f 4 260 273
f 4 273 272
f 4 272 271
f 4 271 270
f 4 270 285
f 4 285 288
f 4 288 278
f 4 278 264
f 4 264 249
f 4 249 248
f 4 248 247
f 4 247 230
f 4 230 212
f 4 212 194
f 4 194 172
f 4 172 171
f 4 171 170
f 4 170 168
f 4 168 150
f 4 150 132
f 4 132 131
f 4 131 107
f 4 107 85
f 4 85 57
f 4 57 35
f 4 35 14
f 4 14 6
f 4 7 12
f 4 12 13
f 4 13 8
f 5 6 14
f 5 14 15
f 5 15 16
f 7 17 18
f 7 18 19
f 7 19 20
f 7 20 21
f 7 21 22
f 7 22 12
f 8 23 24
f 8 24 25
f 8 25 9
f 8 13 26
f 8 26 23
f 9 25 10
f 10 25 27
f 10 27 11
f 11 27 28
f 12 22 21
f 12 21 20
f 12 20 19
f 12 19 18
f 12 18 29
f 12 29 30
f 12 30 31
f 12 31 32
f 12 32 33
f 12 33 34
f 12 34 13
f 13 34 33
f 13 33 26
f 14 35 15
f 15 35 36
f 15 36 37
f 15 37 38
f 15 38 16
f 16 38 39
f 17 40 18
f 18 41 70
f 18 70 95
f 18 95 121
f 18 121 120
f 18 120 119
f 18 119 118
f 18 118 142
f 18 142 162
f 18 162 161
f 18 161 186
f 18 186 185
f 18 185 206
f 18 206 205
f 18 205 204
f 18 204 222
f 18 222 221
f 18 221 220
f 18 220 238
f 18 238 257
f 18 257 256
f 18 256 268
f 18 268 281
f 18 281 280
f 18 280 293
f 18 293 292
f 18 292 291
f 18 291 290
f 18 290 284
f 18 284 283
f 18 283 287
f 18 287 275
f 18 275 274
f 18 274 277
f 18 277 263
f 18 263 245
f 18 245 244
f 18 244 226
f 18 226 209
f 18 209 207
f 18 207 187
f 18 187 164
f 18 164 163
f 18 163 145
f 18 145 144
f 18 144 143
f 18 143 126
f 18 126 125
f 18 125 100
f 18 100 84
f 18 84 83
f 18 83 82
f 18 82 55
f 18 55 32
f 18 32 31
f 18 31 30
f 18 30 29
f 18 40 67
f 18 67 41
f 23 26 24
f 24 26 42
f 24 42 43
f 24 43 44
f 24 44 45
f 24 45 25
f 25 45 27
f 26 46 47
f 26 47 42
f 26 33 48
f 26 48 49
f 26 49 50
f 26 50 51
f 26 51 46
f 27 45 44
f 27 44 52
f 27 52 53
f 27 53 54
f 27 54 28
f 32 55 33
f 33 55 56
f 33 56 49
f 33 49 48
f 35 57 58
f 35 58 36
f 36 58 37
f 37 59 60
f 37 60 61
f 37 61 62
f 37 62 38
f 37 58 59
f 38 62 39
f 39 62 61
f 39 61 64
f 39 64 65
f 39 65 66
f 39 66 63
f 41 66 68
f 41 68 69
f 41 69 70
f 41 67 63
f 41 63 66
f 42 47 43
f 43 71 72
f 43 72 52
f 43 52 44
f 43 47 73
f 43 73 71
f 46 74 75
f 46 75 73
f 46 73 47
f 46 51 74
f 49 56 76
f 49 76 50
f 50 76 77
f 50 77 78
f 50 78 79
f 50 79 51
f 51 79 74
f 52 72 80
f 52 80 81
f 52 81 53
f 55 82 56
f 56 82 83
f 56 83 84
f 56 84 76
f 57 85 86
f 57 86 58
f 58 86 87
f 58 87 88
f 58 88 89
f 58 89 59
f 59 89 90
f 59 90 91
f 59 91 60
f 60 91 92
f 60 92 61
f 61 92 66
f 61 66 65
f 61 65 64
f 66 92 68
f 68 92 91
f 68 91 69
f 69 91 93
f 69 93 94
f 69 94 95
f 69 95 70
f 71 73 96
f 71 96 97
f 71 97 80
f 71 80 72
f 73 75 98
f 73 98 96
f 74 79 75
f 75 79 98
f 76 99 77
f 76 84 100
f 76 100 99
f 77 99 78
f 78 99 79
f 79 99 101
f 79 101 102
f 79 102 103
f 79 103 97
f 79 97 104
f 79 104 98
f 80 97 105
f 80 105 106
f 80 106 81
f 85 107 108
f 85 108 86
f 86 108 87
f 87 108 107
f 87 107 109
f 87 109 88
f 88 109 110
f 88 110 111
f 88 111 112
f 88 112 113
f 88 113 89
f 89 113 112
f 89 112 114
f 89 114 115
f 89 115 116
f 89 116 90
f 90 116 117
f 90 117 94
f 90 94 93
f 90 93 91
f 94 118 119
f 94 119 120
f 94 120 121
f 94 121 95
f 94 117 122
f 94 122 118
f 96 98 104
f 96 104 97
f 97 103 123
f 97 123 105
f 99 124 101
f 99 100 125
f 99 125 126
f 99 126 124
f 101 124 127
f 101 127 102
f 102 127 128
f 102 128 123
f 102 123 103
f 105 123 128
f 105 128 129
f 105 129 130
f 105 130 106
f 107 131 109
f 109 131 132
f 109 132 133
f 109 133 134
f 109 134 110
f 110 134 111
f 111 135 136
f 111 136 137
f 111 137 114
f 111 114 112
f 111 134 138
f 111 138 135
f 114 137 115
f 115 137 139
f 115 139 116
f 116 139 140
f 116 140 141
f 116 141 117
f 117 141 122
f 118 122 142
f 122 141 140
f 122 140 142
f 124 126 143
f 124 143 144
f 124 144 145
f 124 145 146
f 124 146 147
f 124 147 127
f 127 147 148
f 127 148 128
f 128 148 149
f 128 149 129
f 132 150 133
f 133 151 138
f 133 138 134
f 133 150 152
f 133 152 153
f 133 153 151
f 135 154 155
f 135 155 156
f 135 156 136
f 135 138 151
f 135 151 154
f 136 156 137
f 137 156 157
f 137 157 139
f 139 157 140
f 140 157 158
f 140 158 159
f 140 159 160
f 140 160 161
f 140 161 162
f 140 162 142
f 145 163 146
f 146 163 164
f 146 164 165
f 146 165 147
f 147 166 148
f 147 165 166
f 148 166 167
f 148 167 149
f 150 168 152
f 151 153 169
f 151 169 154
f 152 168 170
f 152 170 153
f 153 170 171
f 153 171 172
f 153 172 173
f 153 173 174
f 153 174 169
f 154 175 176
f 154 176 177
f 154 177 155
f 154 169 175
f 155 177 178
f 155 178 156
f 156 178 179
f 156 179 157
f 157 178 158
f 157 179 178
f 158 178 159
f 159 178 180
f 159 180 181
f 159 181 182
f 159 182 183
f 159 183 160
f 160 183 184
f 160 184 185
f 160 185 186
f 160 186 161
f 164 187 165
f 165 187 166
f 166 187 188
f 166 188 189
f 166 189 190
f 166 190 167
f 169 174 191
f 169 191 192
f 169 192 193
f 169 193 175
f 172 194 173
f 173 194 195
f 173 195 196
f 173 196 197
f 173 197 193
f 173 193 192
f 173 192 174
f 174 192 191
f 175 198 199
f 175 199 176
f 175 193 197
f 175 197 198
f 176 199 200
f 176 200 177
f 177 200 201
f 177 201 178
f 178 201 180
f 180 201 200
f 180 200 202
f 180 202 203
f 180 203 181
f 181 203 182
f 182 184 183
f 182 203 204
f 182 204 205
f 182 205 206
f 182 206 184
f 184 206 185
f 187 207 188
f 188 208 189
f 188 207 209
f 188 209 210
f 188 210 208
f 189 211 190
f 189 208 211
f 194 212 195
f 195 212 213
f 195 213 196
f 196 213 214
f 196 214 215
f 196 215 216
f 196 216 198
f 196 198 197
f 198 216 199
f 199 216 215
f 199 215 217
f 199 217 200
f 200 217 202
f 202 217 218
f 202 218 219
f 202 219 220
f 202 220 221
f 202 221 222
f 202 222 223
f 202 223 203
f 203 223 204
f 204 223 222
f 208 224 225
f 208 225 211
f 208 210 226
f 208 226 227
f 208 227 224
f 209 226 210
f 211 225 228
f 211 228 229
f 212 230 231
f 212 231 213
f 213 231 232
f 213 232 214
f 214 232 233
f 214 233 215
f 215 234 235
f 215 235 236
f 215 236 217
f 215 233 234
f 217 236 219
f 217 219 218
f 219 237 238
f 219 238 220
f 219 236 237
f 224 239 240
f 224 240 241
f 224 241 242
f 224 242 225
f 224 227 243
f 224 243 239
f 225 242 228
f 226 244 227
f 227 244 245
f 227 245 243
f 228 242 229
f 229 242 246
f 230 247 231
f 231 247 232
f 232 247 248
f 232 248 233
f 233 248 249
f 233 249 250
f 233 250 251
f 233 251 252
f 233 252 235
f 233 235 234
f 235 252 253
f 235 253 236
f 236 253 254
f 236 254 237
f 237 255 256
f 237 256 257
f 237 257 238
f 237 254 255
f 239 243 240
f 240 258 241
f 240 243 259
f 240 259 258
f 241 258 260
f 241 260 261
f 241 261 242
f 242 261 262
f 242 262 246
f 243 245 263
f 243 263 259
f 249 264 265
f 249 265 250
f 250 265 251
f 251 265 252
f 252 266 267
f 252 267 255
f 252 255 253
f 252 265 266
f 253 255 254
f 255 267 268
f 255 268 256
f 258 269 270
f 258 270 271
f 258 271 272
f 258 272 273
f 258 273 260
f 258 259 274
f 258 274 275
f 258 275 276
f 258 276 269
f 259 263 277
f 259 277 274
f 264 278 265
f 265 278 279
f 265 279 266
f 266 279 280
f 266 280 267
f 267 280 281
f 267 281 268
f 269 282 270
f 269 276 283
f 269 283 284
f 269 284 282
f 270 282 286
f 270 286 285
f 275 287 276
f 276 287 283
f 278 288 279
f 279 288 289
f 279 289 290
f 279 290 291
f 279 291 292
f 279 292 293
f 279 293 280
f 282 284 286
f 284 290 289
f 284 289 286
f 285 286 288
f 286 289 288

