# https://github.com/mikedh/trimesh
v 0.03292433 0.01674626 -0.01558593
v 0.03292433 0.01674626 -0.01257253
v 0.03292433 0.02110195 -0.01684186
v 0.03292693 0.00009077 -0.01566109
v 0.03292433 0.02217814 -0.01256093
v 0.03292693 0.00009077 -0.01259341
v 0.03292954 0.03477330 -0.01246258
v 0.03292433 0.02140749 -0.01691331
v 0.03941468 0.00009077 -0.01704043
v 0.03292433 0.02217814 -0.01684974
v 0.04422379 0.00009077 -0.01254655
v 0.05955301 0.00009417 -0.01245376
v 0.04231839 0.03477330 -0.01230390
v 0.04190395 0.03477330 -0.01230715
v 0.03817395 0.03477330 -0.01236004
v 0.03292954 0.03477330 -0.01390965
v 0.03292433 0.02150594 -0.01691006
v 0.05954520 0.03164658 -0.01673375
v 0.03502522 0.01890543 -0.01700238
v 0.03511384 0.01834867 -0.01700517
v 0.03939643 0.00119752 -0.01704368
v 0.03951633 0.00009077 -0.01703533
v 0.03292433 0.02213740 -0.01685856
v 0.03292954 0.03165337 -0.01551123
v 0.03293215 0.03477330 -0.01549453
v 0.04639767 0.00009077 -0.01253820
v 0.05955301 0.00009417 -0.01554185
v 0.05955301 0.02217814 -0.01242082
v 0.05955040 0.03082161 -0.01239809
v 0.05954520 0.03477330 -0.01238324
v 0.03292433 0.02194049 -0.01688779
v 0.05954520 0.03193175 -0.01668133
v 0.05955040 0.03082161 -0.01638532
v 0.03779861 0.01106316 -0.01702929
v 0.05722274 0.03031577 -0.01676020
v 0.03959974 0.00009077 -0.01702605
v 0.03896114 0.03477330 -0.01547968
v 0.05954520 0.03232216 -0.01654214
v 0.05954520 0.03202681 -0.01665906
v 0.04639767 0.00009077 -0.01560077
v 0.05955301 0.00152004 -0.01554232
v 0.05955301 0.02217814 -0.01543932
v 0.05954520 0.03477330 -0.01538828
v 0.05955301 0.01292019 -0.01550149
v 0.05955301 0.01231589 -0.01550473
v 0.05955301 0.00563808 -0.01553072
v 0.04777394 0.03477330 -0.01544164
f 1 2 5
f 1 5 10
f 1 10 23
f 1 23 31
f 1 31 17
f 1 17 8
f 1 8 3
f 1 3 4
f 1 4 6
f 1 6 2
f 2 6 7
f 2 7 5
f 3 8 4
f 4 9 22
f 4 22 36
f 4 36 40
f 4 40 26
f 4 26 11
f 4 11 6
f 4 8 9
f 5 7 16
f 5 16 10
f 6 11 12
f 6 12 13
f 6 13 14
f 6 14 15
f 6 15 7
f 7 15 14
f 7 14 13
f 7 13 30
f 7 30 43
f 7 43 47
f 7 47 37
f 7 37 25
f 7 25 16
f 8 17 18
f 8 18 19
f 8 19 20
f 8 20 9
f 9 21 18
f 9 18 22
f 9 20 21
f 10 16 24
f 10 24 25
f 10 25 23
f 11 26 12
f 12 26 40
f 12 40 27
f 12 27 41
f 12 41 46
f 12 46 45
f 12 45 44
f 12 44 42
f 12 42 28
f 12 28 29
f 12 29 30
f 12 30 13
f 16 25 24
f 17 31 18
f 18 25 32
f 18 32 33
f 18 33 27
f 18 27 22
f 18 21 34
f 18 34 35
f 18 35 19
f 18 31 25
f 19 35 20
f 20 35 34
f 20 34 21
f 22 27 36
f 23 25 31
f 25 37 38
f 25 38 39
f 25 39 32
f 27 40 36
f 27 33 41
f 28 42 33
f 28 33 29
f 29 33 43
f 29 43 30
f 32 39 33
f 33 42 44
f 33 44 45
f 33 45 46
f 33 46 41
f 33 39 38
f 33 38 43
f 37 47 38
f 38 47 43

