# https://github.com/mikedh/trimesh
v 0.07738274 0.05567699 -0.01219684
v 0.07738274 0.04774038 -0.01221328
v 0.07738274 0.05567699 -0.01511687
v 0.05955475 0.05567699 -0.01229215
v 0.07738274 0.04558201 -0.01222272
v 0.06969305 0.04485867 -0.01227175
v 0.07738274 0.04978331 -0.01514793
v 0.07680505 0.04947830 -0.01515463
v 0.07140866 0.05567699 -0.01516833
v 0.05955475 0.05567699 -0.01524416
v 0.05955475 0.04485867 -0.01233539
v 0.07658515 0.04485867 -0.01223125
v 0.07738274 0.04485867 -0.01222729
v 0.07738274 0.04485867 -0.01516255
v 0.06800363 0.04485867 -0.01524629
v 0.06360205 0.04485867 -0.01528131
v 0.06925848 0.05567699 -0.01518539
v 0.05955475 0.05039968 -0.01527766
v 0.06768774 0.05567699 -0.01519574
v 0.05955475 0.04485867 -0.01530750
v 0.06896004 0.05567699 -0.01518752
v 0.06099461 0.04485867 -0.01529836
f 1 2 5
f 1 5 13
f 1 13 14
f 1 14 7
f 1 7 3
f 1 3 9
f 1 9 17
f 1 17 21
f 1 21 19
f 1 19 10
f 1 10 4
f 1 4 2
f 2 4 6
f 2 6 5
f 3 7 8
f 3 8 9
f 4 10 18
f 4 18 20
f 4 20 11
f 4 11 6
f 5 6 12
f 5 12 13
f 6 11 20
f 6 20 22
f 6 22 16
f 6 16 15
f 6 15 14
f 6 14 13
f 6 13 12
f 7 14 8
f 8 14 15
f 8 15 16
f 8 16 9
f 9 16 17
f 10 19 18
f 16 21 17
f 16 22 21
f 18 22 20
f 18 19 21
f 18 21 22

