# https://github.com/mikedh/trimesh
v 0.04421249 -0.02348436 -0.01698229
v 0.04489780 -0.02368964 -0.01698229
v 0.04611417 -0.02453638 -0.01696427
v 0.04695372 -0.02513198 -0.01694176
v 0.04541324 -0.02442247 -0.01693726
v 0.03470993 -0.02615755 -0.01567284
v 0.04208822 -0.02246306 -0.01692825
v 0.04182074 -0.02218587 -0.01693185
v 0.04764684 -0.02504761 -0.01688052
v 0.04862697 -0.02572213 -0.01687106
v 0.04778156 -0.02544183 -0.01691429
v 0.04237328 -0.02218587 -0.01689087
v 0.04368728 -0.02291520 -0.01692555
v 0.04271496 -0.02218587 -0.01685395
v 0.05465418 -0.02228928 -0.01555576
v 0.04631918 -0.02499358 -0.01691564
v 0.04928690 -0.02615755 -0.01684495
v 0.04888274 -0.02615755 -0.01683729
v 0.03470993 -0.02615755 -0.01252124
v 0.03470993 -0.02218587 -0.01613168
v 0.04968520 -0.02615755 -0.01680802
v 0.04276768 -0.02218587 -0.01684585
v 0.05465418 -0.02228928 -0.01240327
v 0.05465418 -0.02615755 -0.01570661
v 0.05062628 -0.02615755 -0.01664006
v 0.05021041 -0.02615755 -0.01672832
v 0.05010497 -0.02615755 -0.01674588
v 0.03582868 -0.02218587 -0.01255366
v 0.03470993 -0.02218587 -0.01256537
v 0.03630898 -0.02615755 -0.01250458
v 0.04276768 -0.02218587 -0.01250323
v 0.05465418 -0.02615755 -0.01238255
v 0.04208237 -0.02218587 -0.01250729
v 0.04084257 -0.02615755 -0.01246856
f 1 2 3
f 1 3 4
f 1 4 5
f 1 5 6
f 1 6 7
f 1 7 8
f 1 8 2
f 2 9 10
f 2 10 11
f 2 11 3
f 2 8 12
f 2 12 13
f 2 13 14
f 2 14 15
f 2 15 9
f 3 11 4
f 4 16 5
f 4 11 17
f 4 17 18
f 4 18 6
f 4 6 16
f 5 16 6
f 6 19 29
f 6 29 20
f 6 20 8
f 6 8 7
f 6 18 17
f 6 17 21
f 6 21 27
f 6 27 26
f 6 26 25
f 6 25 24
f 6 24 32
f 6 32 34
f 6 34 30
f 6 30 19
f 8 20 29
f 8 29 28
f 8 28 33
f 8 33 31
f 8 31 22
f 8 22 14
f 8 14 12
f 9 15 10
f 10 15 21
f 10 21 17
f 10 17 11
f 12 14 13
f 14 22 15
f 15 23 32
f 15 32 24
f 15 24 25
f 15 25 26
f 15 26 27
f 15 27 21
f 15 22 31
f 15 31 23
f 19 28 29
f 19 30 28
f 23 31 33
f 23 33 28
f 23 28 34
f 23 34 32
f 28 30 34

