# https://github.com/mikedh/trimesh
v 0.15280522 -0.05165261 -0.01468030
v 0.15289544 -0.05165261 -0.01467833
v 0.15324849 -0.05165261 -0.01586591
v 0.15330140 -0.07053708 -0.01602692
v 0.15293309 -0.07053708 -0.01454588
v 0.15312538 -0.05657063 -0.01454588
v 0.15316370 -0.05575158 -0.01454588
v 0.15332650 -0.05403397 -0.01454588
v 0.15603357 -0.05165261 -0.01467833
v 0.15341806 -0.05165261 -0.01629427
v 0.15338686 -0.07053708 -0.01620565
v 0.15345910 -0.05165261 -0.01639767
v 0.15554995 -0.07053708 -0.01454588
v 0.15592674 -0.05403397 -0.01454588
v 0.15618042 -0.05165261 -0.01539964
v 0.15590163 -0.06731448 -0.01454588
v 0.15343265 -0.07053708 -0.01627975
v 0.15368158 -0.05165261 -0.01668275
v 0.15554723 -0.07053708 -0.01499246
v 0.15575343 -0.06935194 -0.01454588
v 0.15619127 -0.05165261 -0.01546488
v 0.15589418 -0.06760291 -0.01454588
v 0.15590367 -0.06748643 -0.01512146
v 0.15626961 -0.05165261 -0.01621771
v 0.15625232 -0.05165261 -0.01592844
v 0.15623638 -0.05165261 -0.01573962
v 0.15357204 -0.07053708 -0.01639299
v 0.15371990 -0.05853784 -0.01667044
v 0.15394510 -0.05895014 -0.01685729
v 0.15396511 -0.05165261 -0.01689028
v 0.15554622 -0.07053708 -0.01501092
v 0.15577310 -0.06922622 -0.01483687
v 0.15576700 -0.06925765 -0.01454588
v 0.15578260 -0.06909310 -0.01454588
v 0.15576904 -0.06899696 -0.01558083
v 0.15583890 -0.06713144 -0.01579501
v 0.15624994 -0.05165261 -0.01632111
v 0.15392238 -0.07053708 -0.01659511
v 0.15413468 -0.05927185 -0.01695182
v 0.15431715 -0.05165261 -0.01702568
v 0.15549229 -0.07053708 -0.01566946
v 0.15547567 -0.07053708 -0.01574258
v 0.15565305 -0.06918739 -0.01594494
v 0.15566322 -0.06780074 -0.01610102
v 0.15619127 -0.05204457 -0.01642499
v 0.15612615 -0.05165261 -0.01657738
v 0.15443177 -0.07053708 -0.01663351
v 0.15437989 -0.06546005 -0.01685114
v 0.15476278 -0.06529920 -0.01690480
v 0.15442941 -0.05880408 -0.01701288
v 0.15476991 -0.06423609 -0.01694739
v 0.15445043 -0.05165261 -0.01704094
v 0.15540512 -0.07053708 -0.01596439
v 0.15527659 -0.07053708 -0.01618103
v 0.15527219 -0.07043354 -0.01621894
v 0.15549771 -0.06526407 -0.01661234
v 0.15557978 -0.06477597 -0.01651461
v 0.15609292 -0.05165261 -0.01661849
v 0.15448366 -0.07053708 -0.01662982
v 0.15502393 -0.06457999 -0.01690727
v 0.15451555 -0.07053708 -0.01662539
v 0.15493134 -0.05165261 -0.01706088
v 0.15510939 -0.05276194 -0.01706064
v 0.15524946 -0.07053708 -0.01621697
v 0.15490726 -0.07053708 -0.01647251
v 0.15495034 -0.06989552 -0.01655769
v 0.15519892 -0.06889897 -0.01647275
v 0.15527828 -0.06380161 -0.01680461
v 0.15577582 -0.05186893 -0.01691441
v 0.15602305 -0.05165261 -0.01668989
v 0.15474989 -0.07053708 -0.01657714
v 0.15472649 -0.07053708 -0.01658329
v 0.15534713 -0.05165261 -0.01703602
v 0.15546006 -0.05165261 -0.01701239
v 0.15563032 -0.05271387 -0.01695306
v 0.15562354 -0.05165261 -0.01696241
v 0.15574462 -0.05165261 -0.01691441
v 0.15584025 -0.05165261 -0.01685409
f 1 2 9
f 1 9 15
f 1 15 21
f 1 21 26
f 1 26 25
f 1 25 24
f 1 24 37
f 1 37 46
f 1 46 58
f 1 58 70
f 1 70 78
f 1 78 77
f 1 77 76
f 1 76 74
f 1 74 73
f 1 73 62
f 1 62 52
f 1 52 40
f 1 40 30
f 1 30 18
f 1 18 12
f 1 12 10
f 1 10 3
f 1 3 4
f 1 4 5
f 1 5 6
f 1 6 7
f 1 7 8
f 1 8 2
f 2 8 14
f 2 14 9
f 3 10 4
f 4 11 17
f 4 17 27
f 4 27 38
f 4 38 47
f 4 47 59
f 4 59 61
f 4 61 72
f 4 72 71
f 4 71 65
f 4 65 64
f 4 64 54
f 4 54 53
f 4 53 42
f 4 42 41
f 4 41 31
f 4 31 19
f 4 19 13
f 4 13 5
f 4 10 12
f 4 12 11
f 5 13 20
f 5 20 33
f 5 33 34
f 5 34 22
f 5 22 16
f 5 16 14
f 5 14 8
f 5 8 7
f 5 7 6
f 9 14 16
f 9 16 15
f 11 12 17
f 12 18 17
f 13 19 20
f 15 16 21
f 16 22 23
f 16 23 24
f 16 24 25
f 16 25 26
f 16 26 21
f 17 18 28
f 17 28 29
f 17 29 27
f 18 30 29
f 18 29 28
f 19 31 32
f 19 32 20
f 20 32 33
f 22 34 32
f 22 32 23
f 23 32 35
f 23 35 36
f 23 36 24
f 24 36 37
f 27 29 38
f 29 39 38
f 29 30 39
f 30 40 39
f 31 41 35
f 31 35 32
f 32 34 33
f 35 41 42
f 35 42 43
f 35 43 36
f 36 43 44
f 36 44 45
f 36 45 37
f 37 45 46
f 38 39 48
f 38 48 49
f 38 49 47
f 39 50 51
f 39 51 48
f 39 40 50
f 40 52 50
f 42 53 43
f 43 53 54
f 43 54 55
f 43 55 56
f 43 56 44
f 44 56 57
f 44 57 45
f 45 57 46
f 46 57 56
f 46 56 58
f 47 49 59
f 48 51 49
f 49 51 60
f 49 60 61
f 49 61 59
f 50 52 62
f 50 62 63
f 50 63 51
f 51 63 60
f 54 64 55
f 55 64 65
f 55 65 66
f 55 66 67
f 55 67 56
f 56 60 68
f 56 68 69
f 56 69 70
f 56 70 58
f 56 67 66
f 56 66 60
f 60 66 71
f 60 71 72
f 60 72 61
f 60 63 73
f 60 73 74
f 60 74 75
f 60 75 69
f 60 69 68
f 62 73 63
f 65 71 66
f 69 75 74
f 69 74 76
f 69 76 77
f 69 77 78
f 69 78 70

