# https://github.com/mikedh/trimesh
v 0.09781890 0.07685446 -0.01205278
v 0.09781890 0.07255003 -0.01204315
v 0.09781890 0.07685446 -0.01488597
v 0.00045342 0.07685446 -0.01220778
v 0.09781890 0.07209986 -0.01204315
v 0.09781890 0.07354467 -0.01489659
v 0.06925543 0.05567957 -0.01518535
v 0.08885052 0.07685446 -0.01495302
v 0.00045342 0.07685446 -0.01522054
v 0.00045342 0.07474726 -0.01222703
v 0.09781890 0.05567957 -0.01206407
v 0.09781890 0.05708580 -0.01205809
v 0.09781890 0.06010190 -0.01204714
v 0.09781890 0.06062924 -0.01493078
v 0.08850742 0.05567957 -0.01502438
v 0.07139984 0.05567957 -0.01516743
v 0.06768287 0.05567957 -0.01519531
v 0.08402800 0.07685446 -0.01498455
v 0.05954367 0.05496145 -0.01524842
v 0.01170916 0.07685446 -0.01522054
v 0.00864028 0.06314373 -0.01540043
v 0.00252158 0.06368178 -0.01538715
v 0.00045342 0.06405049 -0.01537189
v 0.00045342 0.06730239 -0.01230437
v 0.05954367 0.05496145 -0.01229574
v 0.09781890 0.05567957 -0.01493841
v 0.00045342 0.05495931 -0.01245207
v 0.01279566 0.05495931 -0.01240726
v 0.05501659 0.05496145 -0.01527563
v 0.05118526 0.05496145 -0.01529787
v 0.07805226 0.07685446 -0.01501707
v 0.01638873 0.05495931 -0.01539977
v 0.01599797 0.07685446 -0.01521522
v 0.00820187 0.06231200 -0.01540574
v 0.03034165 0.07685231 -0.01519597
v 0.04036793 0.07685231 -0.01517340
v 0.04410396 0.07685231 -0.01516378
v 0.05848576 0.07685231 -0.01511997
v 0.05094699 0.05904937 -0.01527397
v 0.04676302 0.05496145 -0.01531513
v 0.03669862 0.05496145 -0.01534965
v 0.00662931 0.05934949 -0.01542400
v 0.00152086 0.06231200 -0.01539047
v 0.00045342 0.06231200 -0.01538384
v 0.01638873 0.05495931 -0.01239996
v 0.00045342 0.05495931 -0.01542001
v 0.01603609 0.05495931 -0.01540143
v 0.05955320 0.07685446 -0.01511200
v 0.01638873 0.07685446 -0.01521456
v 0.01070844 0.05495931 -0.01542201
v 0.00681992 0.05495931 -0.01543395
v 0.03022728 0.05496145 -0.01536824
v 0.00045342 0.05630766 -0.01541703
v 0.02384172 0.05496145 -0.01538649
v 0.00045342 0.06085218 -0.01539379
f 1 2 5
f 1 5 13
f 1 13 12
f 1 12 11
f 1 11 26
f 1 26 14
f 1 14 6
f 1 6 3
f 1 3 8
f 1 8 18
f 1 18 31
f 1 31 48
f 1 48 49
f 1 49 33
f 1 33 20
f 1 20 9
f 1 9 4
f 1 4 2
f 2 4 5
f 3 6 7
f 3 7 8
f 4 9 23
f 4 23 44
f 4 44 55
f 4 55 53
f 4 53 46
f 4 46 27
f 4 27 24
f 4 24 10
f 4 10 11
f 4 11 12
f 4 12 13
f 4 13 5
f 6 14 15
f 6 15 16
f 6 16 7
f 7 17 18
f 7 18 8
f 7 16 19
f 7 19 17
f 9 20 21
f 9 21 22
f 9 22 23
f 10 24 11
f 11 25 19
f 11 19 26
f 11 24 27
f 11 27 28
f 11 28 25
f 14 26 15
f 15 26 19
f 15 19 16
f 17 19 18
f 18 19 29
f 18 29 30
f 18 30 31
f 19 25 45
f 19 45 32
f 19 32 29
f 20 33 21
f 21 34 22
f 21 33 35
f 21 35 36
f 21 36 37
f 21 37 38
f 21 38 39
f 21 39 40
f 21 40 41
f 21 41 34
f 22 34 42
f 22 42 43
f 22 43 23
f 23 43 44
f 25 28 45
f 27 46 51
f 27 51 50
f 27 50 47
f 27 47 32
f 27 32 45
f 27 45 28
f 29 32 30
f 30 39 31
f 30 32 47
f 30 47 40
f 30 40 39
f 31 39 38
f 31 38 48
f 33 49 35
f 34 41 42
f 35 49 36
f 36 49 48
f 36 48 37
f 37 48 38
f 40 47 50
f 40 50 41
f 41 50 51
f 41 51 52
f 41 52 42
f 42 51 46
f 42 46 53
f 42 53 43
f 42 52 54
f 42 54 51
f 43 53 55
f 43 55 44
f 51 54 52

