# https://github.com/mikedh/trimesh
v 0.15357080 0.06973545 -0.00915822
v 0.15563817 0.06973545 -0.00915822
v 0.15353822 0.06973545 -0.00640119
v 0.15309625 0.07074468 -0.00790657
v 0.15309625 0.07080472 -0.00915822
v 0.15547317 0.07096188 -0.00915822
v 0.15563994 0.06973545 -0.00907300
v 0.15349793 0.06973545 0.00671552
v 0.15309625 0.07074468 -0.00759224
v 0.15279321 0.07283642 0.00319160
v 0.15309625 0.07749759 -0.00915822
v 0.15547051 0.07097866 -0.00915822
v 0.15547169 0.07097601 -0.00913549
v 0.15567816 0.07084269 0.00655835
v 0.15581946 0.06973545 0.00750513
v 0.15356369 0.06973545 0.00797852
v 0.15279321 0.07415557 0.00988345
v 0.15309625 0.07080119 -0.00529724
v 0.15309625 0.07079148 -0.00548849
v 0.15279321 0.07840528 0.00319160
v 0.15350030 0.07675413 -0.00915822
v 0.15279321 0.07875493 0.01018642
v 0.15323162 0.07802737 0.01018642
v 0.15512925 0.07239935 -0.00915822
v 0.15513932 0.07240200 -0.00862234
v 0.15542933 0.07219804 0.00705257
v 0.15565298 0.07090008 0.00834209
v 0.15581917 0.06973545 0.00756573
v 0.15363923 0.06973545 0.00871701
v 0.15279321 0.07425005 0.01018642
v 0.15394553 0.07575374 -0.00915822
v 0.15369047 0.07714529 0.01018642
v 0.15410816 0.07628175 0.01018642
v 0.15428056 0.07590737 0.01018642
v 0.15500484 0.07283024 -0.00915822
v 0.15514732 0.07319932 0.00612094
v 0.15488012 0.07412820 0.00731767
v 0.15493463 0.07383594 0.01018642
v 0.15517161 0.07292030 0.01018642
v 0.15551376 0.07129830 0.01018642
v 0.15552709 0.07123207 0.01018642
v 0.15577532 0.06973545 0.01018642
v 0.15386288 0.06973545 0.01018642
v 0.15428294 0.07490874 -0.00915822
v 0.15462833 0.07491227 0.01018642
v 0.15481081 0.07345273 -0.00915822
v 0.15470209 0.07375912 -0.00915822
f 1 2 7
f 1 7 15
f 1 15 28
f 1 28 42
f 1 42 43
f 1 43 29
f 1 29 16
f 1 16 8
f 1 8 3
f 1 3 4
f 1 4 5
f 1 5 11
f 1 11 21
f 1 21 31
f 1 31 44
f 1 44 47
f 1 47 46
f 1 46 35
f 1 35 24
f 1 24 12
f 1 12 6
f 1 6 2
f 2 6 7
f 3 8 4
f 4 8 9
f 4 9 10
f 4 10 5
f 5 10 20
f 5 20 11
f 6 12 13
f 6 13 7
f 7 13 14
f 7 14 15
f 8 16 17
f 8 17 10
f 8 10 18
f 8 18 19
f 8 19 9
f 9 19 10
f 10 17 30
f 10 30 22
f 10 22 20
f 10 19 18
f 11 20 22
f 11 22 23
f 11 23 21
f 12 24 13
f 13 24 25
f 13 25 26
f 13 26 14
f 14 26 27
f 14 27 28
f 14 28 15
f 16 29 30
f 16 30 17
f 21 23 32
f 21 32 33
f 21 33 34
f 21 34 31
f 22 30 43
f 22 43 42
f 22 42 41
f 22 41 40
f 22 40 39
f 22 39 38
f 22 38 45
f 22 45 34
f 22 34 33
f 22 33 32
f 22 32 23
f 24 35 25
f 25 35 36
f 25 36 26
f 26 36 37
f 26 37 38
f 26 38 39
f 26 39 40
f 26 40 27
f 27 40 41
f 27 41 42
f 27 42 28
f 29 43 30
f 31 34 44
f 34 45 37
f 34 37 44
f 35 46 37
f 35 37 36
f 37 45 38
f 37 46 47
f 37 47 44

