# https://github.com/mikedh/trimesh
v -0.15376201 -0.00390037 0.00508249
v -0.15373455 0.00009077 0.00508187
v -0.15575323 -0.00390037 0.00508249
v -0.15369622 -0.00519177 0.00508249
v -0.15290786 0.00009077 0.00217323
v -0.15575838 0.00009077 0.00508187
v -0.15360325 -0.00750085 0.00508249
v -0.15576210 -0.00083286 0.00508187
v -0.15575609 -0.00945784 0.00508249
v -0.15290786 0.00009077 0.00116829
v -0.15290786 -0.00886941 0.00268866
v -0.15581073 0.00009077 0.00093743
v -0.15358380 -0.00909731 0.00508249
v -0.15583018 -0.00668333 0.00114113
v -0.15576181 -0.01222752 0.00508187
v -0.15358781 -0.00945784 0.00508249
v -0.15290814 0.00009077 -0.00119899
v -0.15290786 -0.00707641 -0.00120146
v -0.15358924 -0.00960132 0.00508187
v -0.15290786 -0.00967729 0.00260039
v -0.15578870 0.00009077 0.00054113
v -0.15576925 -0.00707520 0.00038804
v -0.15576725 -0.00734048 0.00037323
v -0.15572606 -0.01222752 0.00082076
v -0.15577154 -0.01222752 0.00149792
v -0.15370194 -0.01222752 0.00508187
v -0.15475519 0.00009077 -0.00074035
v -0.15290814 -0.00498920 -0.00122368
v -0.15290786 -0.01139674 -0.00121134
v -0.15290786 -0.01222752 0.00221397
v -0.15577354 0.00009077 0.00036150
v -0.15568915 -0.00973878 0.00008434
v -0.15571947 -0.01222752 0.00073743
v -0.15512535 0.00009077 -0.00057492
v -0.15484015 -0.00730792 -0.00073294
v -0.15498690 -0.00707520 -0.00067060
v -0.15515967 -0.00680149 -0.00059652
v -0.15290786 -0.01222752 -0.00120640
v -0.15473345 -0.01222752 -0.00073603
v -0.15574379 0.00009077 0.00026953
v -0.15568372 -0.00376171 0.00004977
v -0.15561993 -0.00945904 -0.00006628
v -0.15554585 -0.00945904 -0.00022183
v -0.15553697 -0.01070462 -0.00021689
v -0.15554527 -0.01222752 -0.00012800
v -0.15557559 -0.01222752 -0.00003541
v -0.15516195 0.00009077 -0.00055763
v -0.15487791 -0.01222752 -0.00069035
v -0.15504210 -0.01067447 -0.00064035
v -0.15522804 -0.00962785 -0.00055578
v -0.15541741 -0.00978099 -0.00041196
v -0.15564224 0.00009077 0.00003372
v -0.15556758 0.00009077 -0.00012492
v -0.15554756 -0.00916724 -0.00022307
v -0.15548606 -0.00945904 -0.00031319
v -0.15524062 -0.01222752 -0.00051566
v -0.15550637 0.00009077 -0.00020702
v -0.15523748 -0.01220943 -0.00051936
f 1 2 6
f 1 6 3
f 1 3 9
f 1 9 16
f 1 16 13
f 1 13 7
f 1 7 4
f 1 4 2
f 2 5 10
f 2 10 17
f 2 17 27
f 2 27 34
f 2 34 47
f 2 47 57
f 2 57 53
f 2 53 52
f 2 52 40
f 2 40 31
f 2 31 21
f 2 21 12
f 2 12 6
f 2 4 7
f 2 7 5
f 3 6 8
f 3 8 9
f 5 7 11
f 5 11 20
f 5 20 30
f 5 30 38
f 5 38 29
f 5 29 18
f 5 18 10
f 6 12 8
f 7 13 11
f 8 12 14
f 8 14 15
f 8 15 9
f 9 15 26
f 9 26 16
f 10 18 17
f 11 13 16
f 11 16 19
f 11 19 20
f 12 21 14
f 14 22 23
f 14 23 24
f 14 24 25
f 14 25 15
f 14 21 22
f 15 25 24
f 15 24 33
f 15 33 46
f 15 46 45
f 15 45 56
f 15 56 48
f 15 48 39
f 15 39 38
f 15 38 30
f 15 30 26
f 16 26 19
f 17 18 28
f 17 28 27
f 18 29 28
f 19 26 30
f 19 30 20
f 21 31 22
f 22 31 23
f 23 31 32
f 23 32 33
f 23 33 24
f 27 28 35
f 27 35 36
f 27 36 37
f 27 37 34
f 28 29 35
f 29 38 39
f 29 39 35
f 31 40 41
f 31 41 32
f 32 42 43
f 32 43 44
f 32 44 45
f 32 45 46
f 32 46 33
f 32 41 42
f 34 37 47
f 35 39 48
f 35 48 49
f 35 49 36
f 36 49 37
f 37 49 50
f 37 50 51
f 37 51 47
f 40 52 41
f 41 52 53
f 41 53 54
f 41 54 42
f 42 54 43
f 43 54 55
f 43 55 44
f 44 55 51
f 44 51 56
f 44 56 45
f 47 51 57
f 48 56 58
f 48 58 49
f 49 58 50
f 50 58 51
f 51 58 56
f 51 55 53
f 51 53 57
f 53 55 54

