# https://github.com/mikedh/trimesh
v 0.12530957 0.07685660 -0.01469866
v 0.12530957 0.07685375 -0.01190918
v 0.12531226 0.06915557 -0.01194116
v 0.12531226 0.06915557 -0.01491021
v 0.12531226 0.06760655 -0.01569778
v 0.12531226 0.06728792 -0.01583881
v 0.12531226 0.06694512 -0.01593885
v 0.12531226 0.06659520 -0.01598763
v 0.11927050 0.07685660 -0.01474745
v 0.11804870 0.07685660 -0.01196617
v 0.12530957 0.07659487 -0.01190836
v 0.12531226 0.06232507 -0.01188048
v 0.10714931 0.07685660 -0.01199445
v 0.10780058 0.07643983 -0.01198994
v 0.12531226 0.06232507 -0.01467817
v 0.12261029 0.06504048 -0.01601223
v 0.12152036 0.06470906 -0.01605938
v 0.12174910 0.06484277 -0.01605733
v 0.09781890 0.07685660 -0.01488602
v 0.10401675 0.07685660 -0.01484831
v 0.11932164 0.06232507 -0.01195223
v 0.10305868 0.06967049 -0.01200716
v 0.10048319 0.06280016 -0.01202848
v 0.11214419 0.06232649 -0.01198502
v 0.09781890 0.07685660 -0.01205267
v 0.09781890 0.07255518 -0.01204365
v 0.09781890 0.07210284 -0.01204283
v 0.11932164 0.06232507 -0.01550837
v 0.11793298 0.06232649 -0.01596550
v 0.11932164 0.06313585 -0.01601141
v 0.11954770 0.06326672 -0.01601838
v 0.12203975 0.06470906 -0.01601346
v 0.12005634 0.06387125 -0.01606881
v 0.11983297 0.06404479 -0.01605979
v 0.12089868 0.06462798 -0.01605282
v 0.11682151 0.06232649 -0.01605077
v 0.09781890 0.07354519 -0.01489668
v 0.09781890 0.06280016 -0.01205226
v 0.11214419 0.06232649 -0.01494465
v 0.11550012 0.06232649 -0.01579617
v 0.11628058 0.06232649 -0.01596099
v 0.11684842 0.06232649 -0.01605077
v 0.11741088 0.06232649 -0.01602617
v 0.11932164 0.06322831 -0.01602781
v 0.09781890 0.06280016 -0.01492456
v 0.09781890 0.07057089 -0.01490488
f 1 2 3
f 1 3 4
f 1 4 5
f 1 5 6
f 1 6 7
f 1 7 8
f 1 8 9
f 1 9 20
f 1 20 19
f 1 19 25
f 1 25 13
f 1 13 10
f 1 10 2
f 2 11 12
f 2 12 3
f 2 10 13
f 2 13 14
f 2 14 11
f 3 12 15
f 3 15 8
f 3 8 7
f 3 7 6
f 3 6 5
f 3 5 4
f 8 15 16
f 8 16 17
f 8 17 18
f 8 18 19
f 8 19 20
f 8 20 9
f 11 14 12
f 12 21 28
f 12 28 15
f 12 14 22
f 12 22 23
f 12 23 24
f 12 24 21
f 13 25 26
f 13 26 27
f 13 27 22
f 13 22 14
f 15 28 29
f 15 29 30
f 15 30 31
f 15 31 32
f 15 32 16
f 16 32 33
f 16 33 17
f 17 33 34
f 17 34 35
f 17 35 18
f 18 35 19
f 19 36 37
f 19 37 46
f 19 46 45
f 19 45 38
f 19 38 27
f 19 27 26
f 19 26 25
f 19 35 34
f 19 34 36
f 21 24 39
f 21 39 28
f 22 27 23
f 23 27 38
f 23 38 24
f 24 38 45
f 24 45 39
f 28 39 40
f 28 40 41
f 28 41 36
f 28 36 42
f 28 42 43
f 28 43 29
f 29 43 30
f 30 43 31
f 31 43 44
f 31 44 33
f 31 33 32
f 33 44 43
f 33 43 42
f 33 42 36
f 33 36 34
f 36 41 45
f 36 45 46
f 36 46 37
f 39 45 40
f 40 45 41

