# https://github.com/mikedh/trimesh
v -0.13529475 0.08519151 -0.01128421
v -0.13529475 0.08280875 -0.01145125
v -0.13529475 0.08519151 -0.01153379
v -0.13689977 0.08607005 -0.00915049
v -0.13777776 0.08607005 -0.00651466
v -0.13945073 0.08280875 -0.01121297
v -0.13529475 0.08280875 -0.01153379
v -0.13945073 0.08460413 -0.00651466
v -0.13945073 0.08414539 -0.00753460
v -0.13945073 0.08413006 -0.00757440
v -0.13945073 0.08375911 -0.00856977
v -0.13945073 0.08519151 -0.01153379
v -0.13945073 0.08607005 -0.00915049
v -0.13945073 0.08607005 -0.00651466
v -0.13945073 0.08280875 -0.01153379
f 1 2 7
f 1 7 3
f 1 3 4
f 1 4 5
f 1 5 2
f 2 6 15
f 2 15 7
f 2 5 8
f 2 8 9
f 2 9 10
f 2 10 11
f 2 11 6
f 3 7 15
f 3 15 12
f 3 12 13
f 3 13 4
f 4 13 14
f 4 14 5
f 5 14 8
f 6 11 10
f 6 10 9
f 6 9 8
f 6 8 14
f 6 14 13
f 6 13 12
f 6 12 15

