# https://github.com/mikedh/trimesh
v 0.00001583 -0.04742753 -0.01254668
v -0.00263620 -0.06459684 -0.01229879
v 0.00001583 -0.06459684 -0.01235034
v 0.00001583 -0.04742753 -0.01577109
v -0.02996936 -0.04742753 -0.01259824
v -0.08385567 -0.04743089 -0.01233798
v -0.08385567 -0.04963295 -0.01231891
v -0.08385567 -0.06460020 -0.01219814
v -0.02997757 -0.06460020 -0.01235988
v 0.00001583 -0.06459684 -0.01558711
v 0.00001583 -0.05042804 -0.01575485
v -0.01251358 -0.05039106 -0.01578380
v -0.01112598 -0.04742753 -0.01579475
v -0.02996936 -0.04742753 -0.01580287
v -0.06257374 -0.04742921 -0.01247888
v -0.08385567 -0.04743089 -0.01554332
v -0.08385567 -0.06460020 -0.01538830
v -0.02997757 -0.06460020 -0.01561218
v -0.01963219 -0.06459684 -0.01560830
v 0.00001583 -0.06119795 -0.01565597
v 0.00001583 -0.05253765 -0.01574284
v -0.02451750 -0.04742753 -0.01580569
v -0.00198756 -0.05271919 -0.01574602
v 0.00001583 -0.05502210 -0.01572589
v -0.02832724 -0.05502210 -0.01574955
v -0.02929609 -0.04742753 -0.01580393
v -0.03189064 -0.04743089 -0.01580040
v -0.04160381 -0.04743089 -0.01577674
v -0.04213750 -0.04742921 -0.01577427
v -0.05455196 -0.04742921 -0.01572801
v -0.05621051 -0.04742921 -0.01572024
v -0.05731073 -0.04742921 -0.01571318
v -0.06257374 -0.04742921 -0.01567645
v -0.07637579 -0.06181822 -0.01547870
v -0.08385567 -0.06287722 -0.01540419
v -0.05625156 -0.04840417 -0.01571918
v -0.07972573 -0.06460020 -0.01542432
v -0.03307298 -0.06460020 -0.01561465
v -0.02997757 -0.06281671 -0.01564820
v -0.02883629 -0.06216786 -0.01566021
v -0.01263674 -0.05989352 -0.01568210
v -0.02829439 -0.04742753 -0.01580534
v -0.02924682 -0.05529274 -0.01574743
v -0.03822103 -0.05468087 -0.01573966
v -0.04213750 -0.05014228 -0.01576685
v -0.04213750 -0.04992880 -0.01576826
v -0.04213750 -0.04940434 -0.01577003
v -0.06257374 -0.06113743 -0.01557404
v -0.05693304 -0.05090375 -0.01569446
v -0.05161256 -0.05090375 -0.01572024
v -0.05156329 -0.05430938 -0.01569375
v -0.05967539 -0.06099623 -0.01559382
v -0.06257374 -0.06460020 -0.01552213
v -0.03967431 -0.06460020 -0.01560088
v -0.04822157 -0.05850169 -0.01567539
v -0.04213750 -0.05617356 -0.01571459
v -0.04213750 -0.05430938 -0.01573083
v -0.04530680 -0.05430770 -0.01572094
v -0.06107120 -0.06460020 -0.01553061
v -0.05035633 -0.06460020 -0.01557122
f 1 2 3
f 1 3 10
f 1 10 20
f 1 20 24
f 1 24 21
f 1 21 11
f 1 11 4
f 1 4 13
f 1 13 22
f 1 22 42
f 1 42 26
f 1 26 14
f 1 14 5
f 1 5 6
f 1 6 2
f 2 6 7
f 2 7 8
f 2 8 9
f 2 9 3
f 3 9 18
f 3 18 10
f 4 11 12
f 4 12 13
f 5 14 33
f 5 33 15
f 5 15 6
f 6 15 33
f 6 33 16
f 6 16 35
f 6 35 17
f 6 17 8
f 6 8 7
f 8 17 37
f 8 37 53
f 8 53 59
f 8 59 60
f 8 60 54
f 8 54 38
f 8 38 18
f 8 18 9
f 10 19 20
f 10 18 19
f 11 21 12
f 12 22 13
f 12 21 23
f 12 23 24
f 12 24 25
f 12 25 22
f 14 26 27
f 14 27 28
f 14 28 29
f 14 29 30
f 14 30 31
f 14 31 32
f 14 32 33
f 16 34 35
f 16 33 32
f 16 32 31
f 16 31 36
f 16 36 34
f 17 35 37
f 18 38 19
f 19 39 40
f 19 40 20
f 19 38 39
f 20 40 41
f 20 41 24
f 21 24 23
f 22 25 42
f 24 41 43
f 24 43 25
f 25 43 42
f 26 42 27
f 27 44 45
f 27 45 46
f 27 46 47
f 27 47 28
f 27 42 44
f 28 47 30
f 28 30 29
f 30 36 31
f 30 47 36
f 34 48 37
f 34 37 35
f 34 36 49
f 34 49 48
f 36 47 46
f 36 46 45
f 36 45 50
f 36 50 51
f 36 51 49
f 37 48 52
f 37 52 53
f 38 54 39
f 39 54 55
f 39 55 40
f 40 43 41
f 40 55 43
f 42 43 44
f 43 55 56
f 43 56 44
f 44 56 57
f 44 57 45
f 45 57 58
f 45 58 50
f 48 49 52
f 49 51 52
f 50 58 51
f 51 58 55
f 51 55 52
f 52 59 53
f 52 55 60
f 52 60 59
f 54 60 55
f 55 58 57
f 55 57 56

