# https://github.com/mikedh/trimesh
v -0.13102251 -0.08537071 -0.01180138
v -0.12793194 -0.08537178 -0.01178815
v -0.12739242 -0.08537178 -0.01179287
v -0.13102251 -0.08537071 -0.01219678
v -0.13738353 -0.08537071 -0.01180870
v -0.08915313 -0.08652093 -0.01013238
v -0.08902657 -0.08652093 -0.01013238
v -0.08809407 -0.08652272 -0.01013238
v -0.12739242 -0.08537178 -0.01219678
v -0.07562517 -0.08588442 -0.01150164
v -0.09366911 -0.08563670 -0.01176807
v -0.13722367 -0.08537071 -0.01219678
v -0.09366911 -0.08563670 -0.01254541
v -0.13738353 -0.08537071 -0.01218379
v -0.13738353 -0.08663513 -0.01036267
v -0.11613577 -0.08670171 -0.01013238
v -0.07593157 -0.08662869 -0.01013238
v -0.06934410 -0.08670028 -0.01013238
v -0.06934410 -0.08588442 -0.01171729
v -0.13738353 -0.08550638 -0.01219678
v -0.12738576 -0.08563670 -0.01254541
v -0.06934410 -0.08588442 -0.01254541
v -0.13738353 -0.08867102 -0.01036267
v -0.12738576 -0.08681949 -0.01013238
v -0.12620015 -0.08678799 -0.01013238
v -0.12604029 -0.08678441 -0.01013238
v -0.06934410 -0.08863200 -0.01013238
v -0.13738353 -0.08861052 -0.01219678
v -0.12738576 -0.08884751 -0.01254541
v -0.06934410 -0.08869429 -0.01254541
v -0.13702384 -0.08872973 -0.01036267
v -0.12738576 -0.08890730 -0.01013238
v -0.07249463 -0.08870968 -0.01013238
v -0.13604471 -0.08882603 -0.01219678
v -0.13635776 -0.08883713 -0.01036267
v -0.12560734 -0.08884644 -0.01254541
v -0.13344037 -0.08899034 -0.01219678
v -0.13360023 -0.08898999 -0.01219678
v -0.13432624 -0.08897710 -0.01219678
v -0.13513220 -0.08892734 -0.01219678
v -0.07349373 -0.08873188 -0.01013238
v -0.07414649 -0.08874835 -0.01254541
v -0.13581824 -0.08890157 -0.01036267
v -0.13499232 -0.08898247 -0.01036267
v -0.13415306 -0.08902329 -0.01036267
v -0.13319392 -0.08902793 -0.01036267
v -0.12687288 -0.08890765 -0.01013238
v -0.08161318 -0.08876767 -0.01254541
v -0.13340707 -0.08902686 -0.01036952
f 1 2 3
f 1 3 9
f 1 9 4
f 1 4 12
f 1 12 14
f 1 14 5
f 1 5 2
f 2 5 6
f 2 6 7
f 2 7 8
f 2 8 3
f 3 8 10
f 3 10 11
f 3 11 13
f 3 13 9
f 4 9 13
f 4 13 21
f 4 21 12
f 5 14 20
f 5 20 28
f 5 28 23
f 5 23 15
f 5 15 6
f 6 15 16
f 6 16 26
f 6 26 25
f 6 25 24
f 6 24 32
f 6 32 47
f 6 47 41
f 6 41 33
f 6 33 27
f 6 27 18
f 6 18 17
f 6 17 8
f 6 8 7
f 8 17 10
f 10 17 18
f 10 18 19
f 10 19 11
f 11 19 22
f 11 22 13
f 12 20 14
f 12 21 20
f 13 22 30
f 13 30 42
f 13 42 48
f 13 48 36
f 13 36 29
f 13 29 21
f 15 23 32
f 15 32 24
f 15 24 25
f 15 25 26
f 15 26 16
f 18 27 30
f 18 30 22
f 18 22 19
f 20 21 29
f 20 29 28
f 23 28 31
f 23 31 32
f 27 33 30
f 28 29 34
f 28 34 35
f 28 35 31
f 29 36 37
f 29 37 38
f 29 38 39
f 29 39 40
f 29 40 34
f 30 33 41
f 30 41 42
f 31 35 32
f 32 35 43
f 32 43 44
f 32 44 45
f 32 45 46
f 32 46 47
f 34 40 43
f 34 43 35
f 36 48 37
f 37 46 38
f 37 48 42
f 37 42 46
f 38 46 49
f 38 49 45
f 38 45 39
f 39 44 40
f 39 45 44
f 40 44 43
f 41 47 46
f 41 46 42
f 45 49 46

