# https://github.com/mikedh/trimesh
v -0.13945112 0.08791541 -0.01153379
v -0.13945112 0.08790842 -0.00915245
v -0.13945112 0.08280852 -0.01153379
v -0.14050893 0.08760448 -0.01153379
v -0.14014913 0.08769546 -0.00651466
v -0.13975425 0.08781094 -0.00651466
v -0.13973176 0.08781744 -0.00651466
v -0.13945112 0.08790592 -0.00875254
v -0.13945112 0.08280852 -0.01121297
v -0.14264973 0.08280852 -0.01153379
v -0.14260566 0.08676517 -0.01153379
v -0.14187527 0.08709459 -0.00923892
v -0.14180330 0.08709159 -0.00651466
v -0.13945112 0.08789092 -0.00651466
v -0.13945112 0.08375932 -0.00856977
v -0.14008797 0.08280852 -0.00651466
v -0.14303652 0.08280852 -0.01050009
v -0.14862058 0.08280903 -0.01153379
v -0.14286831 0.08664819 -0.01153379
v -0.14321192 0.08650223 -0.00772326
v -0.14268391 0.08671317 -0.00651466
v -0.13945112 0.08460463 -0.00651466
v -0.13945112 0.08413024 -0.00757391
v -0.13945112 0.08414523 -0.00753509
v -0.14318943 0.08280852 -0.00651466
v -0.14318943 0.08280852 -0.01004564
v -0.14864037 0.08280903 -0.00691704
v -0.14837143 0.08304997 -0.01153379
v -0.14444962 0.08583236 -0.01153379
v -0.14516922 0.08543696 -0.00795516
v -0.14466820 0.08568590 -0.00651466
v -0.14330906 0.08642774 -0.00651466
v -0.14318943 0.08648273 -0.00651466
v -0.14863767 0.08280903 -0.00651466
v -0.14769500 0.08367534 -0.00653530
v -0.14740986 0.08383480 -0.01153379
v -0.14460524 0.08574688 -0.01153379
v -0.14602104 0.08484858 -0.01153379
v -0.14661290 0.08449666 -0.00733808
v -0.14543547 0.08525000 -0.00651466
v -0.14769140 0.08367784 -0.00651466
v -0.14723087 0.08397327 -0.01153379
v -0.14625671 0.08467812 -0.01153379
v -0.14668487 0.08443218 -0.00651466
v -0.14625671 0.08471761 -0.00651466
f 1 2 8
f 1 8 14
f 1 14 22
f 1 22 24
f 1 24 23
f 1 23 15
f 1 15 9
f 1 9 3
f 1 3 10
f 1 10 18
f 1 18 28
f 1 28 36
f 1 36 42
f 1 42 43
f 1 43 38
f 1 38 37
f 1 37 29
f 1 29 19
f 1 19 11
f 1 11 4
f 1 4 2
f 2 4 5
f 2 5 6
f 2 6 7
f 2 7 8
f 3 9 16
f 3 16 25
f 3 25 26
f 3 26 17
f 3 17 10
f 4 11 12
f 4 12 5
f 5 12 13
f 5 13 21
f 5 21 33
f 5 33 32
f 5 32 31
f 5 31 40
f 5 40 45
f 5 45 44
f 5 44 41
f 5 41 34
f 5 34 25
f 5 25 16
f 5 16 22
f 5 22 14
f 5 14 7
f 5 7 6
f 7 14 8
f 9 15 16
f 10 17 18
f 11 19 20
f 11 20 12
f 12 20 13
f 13 20 21
f 15 23 16
f 16 23 24
f 16 24 22
f 17 26 18
f 18 26 27
f 18 27 28
f 19 29 20
f 20 29 30
f 20 30 31
f 20 31 32
f 20 32 33
f 20 33 21
f 25 34 27
f 25 27 26
f 27 34 35
f 27 35 28
f 28 35 36
f 29 37 30
f 30 37 38
f 30 38 39
f 30 39 40
f 30 40 31
f 34 41 35
f 35 41 39
f 35 39 42
f 35 42 36
f 38 43 39
f 39 44 45
f 39 45 40
f 39 43 42
f 39 41 44

