# https://github.com/mikedh/trimesh
v -0.15570452 0.06178411 -0.01636403
v -0.15569444 0.06184032 -0.01547880
v -0.15561844 0.06614628 -0.01547880
v -0.15555834 0.06614628 -0.01624646
v -0.15552228 0.06614628 -0.01654924
v -0.15552267 0.06324954 -0.01688024
v -0.15544705 0.05198178 -0.01709111
v -0.15549668 0.05119888 -0.01677224
v -0.15552809 0.05070104 -0.01656930
v -0.15561418 0.05148595 -0.01607968
v -0.15561107 0.05119888 -0.01588934
v -0.15560216 0.05041799 -0.01537173
v -0.15560836 0.05119888 -0.01537173
v -0.15561844 0.05252781 -0.01537173
v -0.15329581 0.06614628 -0.01547880
v -0.15558819 0.05397517 -0.01537173
v -0.15558316 0.05419599 -0.01537173
v -0.15556997 0.05446298 -0.01537173
v -0.15542224 0.06614628 -0.01682542
v -0.15540634 0.06383773 -0.01711817
v -0.15526364 0.05162045 -0.01739622
v -0.15539665 0.05103227 -0.01704422
v -0.15535904 0.04951464 -0.01642934
v -0.15550638 0.04901077 -0.01573888
v -0.15552344 0.04890438 -0.01537173
v -0.15174324 0.05102223 -0.01537173
v -0.15174324 0.05026542 -0.01683615
v -0.15174324 0.05004661 -0.01711234
v -0.15174324 0.04966118 -0.01732717
v -0.15337296 0.06614628 -0.01571509
v -0.15322484 0.05446298 -0.01537173
v -0.15536989 0.06614628 -0.01690776
v -0.15522138 0.06614628 -0.01712656
v -0.15503449 0.06614628 -0.01733347
v -0.15503720 0.06452025 -0.01741301
v -0.15525705 0.05281889 -0.01739528
v -0.15483479 0.05217049 -0.01766120
v -0.15496740 0.05106840 -0.01754364
v -0.15503759 0.05119888 -0.01750865
v -0.15520975 0.05119888 -0.01735423
v -0.15509187 0.05029152 -0.01726302
v -0.15493134 0.04939419 -0.01705565
v -0.15513337 0.04896059 -0.01649512
v -0.15538812 0.04847679 -0.01554061
v -0.15549242 0.04874178 -0.01537173
v -0.15174324 0.04563827 -0.01537173
v -0.15174324 0.04920549 -0.01749419
v -0.15380260 0.06614628 -0.01688584
v -0.15475259 0.06614628 -0.01743517
v -0.15477586 0.05789972 -0.01759799
v -0.15407286 0.05123100 -0.01775474
v -0.15454359 0.05074922 -0.01765210
v -0.15451878 0.05878299 -0.01761502
v -0.15473010 0.05006267 -0.01746713
v -0.15458197 0.04946847 -0.01731294
v -0.15467775 0.04896661 -0.01696048
v -0.15513298 0.04854304 -0.01605262
v -0.15520898 0.04816765 -0.01537173
v -0.15529428 0.04826200 -0.01537173
v -0.15539743 0.04841055 -0.01537173
v -0.15174324 0.04607589 -0.01619911
v -0.15174324 0.04901278 -0.01752731
v -0.15400384 0.06614628 -0.01714009
v -0.15472971 0.06614628 -0.01743540
v -0.15174324 0.04865345 -0.01753897
v -0.15174324 0.04850691 -0.01752661
v -0.15369208 0.04981576 -0.01761712
v -0.15445596 0.06614628 -0.01743284
v -0.15174324 0.04766779 -0.01728005
v -0.15174324 0.04715188 -0.01702043
v -0.15174324 0.04667210 -0.01670786
v -0.15481347 0.04842259 -0.01622011
v -0.15174324 0.04834832 -0.01750118
v -0.15174324 0.04816965 -0.01744590
f 1 2 3
f 1 3 4
f 1 4 5
f 1 5 6
f 1 6 7
f 1 7 8
f 1 8 9
f 1 9 10
f 1 10 11
f 1 11 12
f 1 12 2
f 2 12 13
f 2 13 14
f 2 14 3
f 3 15 30
f 3 30 48
f 3 48 63
f 3 63 68
f 3 68 64
f 3 64 49
f 3 49 34
f 3 34 33
f 3 33 32
f 3 32 19
f 3 19 5
f 3 5 4
f 3 14 16
f 3 16 17
f 3 17 18
f 3 18 31
f 3 31 15
f 5 19 6
f 6 19 20
f 6 20 7
f 7 21 22
f 7 22 8
f 7 20 21
f 8 22 9
f 9 22 23
f 9 23 24
f 9 24 10
f 10 24 11
f 11 24 25
f 11 25 12
f 12 25 45
f 12 45 60
f 12 60 59
f 12 59 58
f 12 58 46
f 12 46 26
f 12 26 31
f 12 31 18
f 12 18 17
f 12 17 16
f 12 16 14
f 12 14 13
f 15 26 27
f 15 27 28
f 15 28 29
f 15 29 30
f 15 31 26
f 19 32 20
f 20 32 33
f 20 33 34
f 20 34 35
f 20 35 36
f 20 36 21
f 21 36 37
f 21 37 38
f 21 38 39
f 21 39 40
f 21 40 22
f 22 40 41
f 22 41 23
f 23 42 43
f 23 43 24
f 23 41 42
f 24 43 44
f 24 44 45
f 24 45 25
f 26 46 61
f 26 61 71
f 26 71 70
f 26 70 69
f 26 69 74
f 26 74 73
f 26 73 66
f 26 66 65
f 26 65 62
f 26 62 47
f 26 47 29
f 26 29 28
f 26 28 27
f 29 47 48
f 29 48 30
f 34 49 35
f 35 49 50
f 35 50 37
f 35 37 36
f 37 51 52
f 37 52 38
f 37 50 53
f 37 53 51
f 38 52 54
f 38 54 41
f 38 41 40
f 38 40 39
f 41 54 42
f 42 54 55
f 42 55 56
f 42 56 43
f 43 56 57
f 43 57 44
f 44 57 58
f 44 58 59
f 44 59 60
f 44 60 45
f 46 58 61
f 47 62 63
f 47 63 48
f 49 64 53
f 49 53 50
f 51 65 66
f 51 66 67
f 51 67 52
f 51 53 68
f 51 68 65
f 52 67 54
f 53 64 68
f 54 67 55
f 55 67 69
f 55 69 70
f 55 70 56
f 56 70 71
f 56 71 61
f 56 61 72
f 56 72 57
f 57 72 61
f 57 61 58
f 62 65 68
f 62 68 63
f 66 73 67
f 67 73 74
f 67 74 69

