# https://github.com/mikedh/trimesh
v 0.09756758 -0.08827740 -0.00912726
v 0.09756758 -0.08846262 -0.00759503
v 0.09756758 -0.08540205 -0.00912726
v 0.10451965 -0.08902859 -0.00912726
v 0.09756758 -0.08852946 -0.00648621
v 0.09756758 -0.08540205 -0.00703248
v 0.09775729 -0.08540134 -0.00658836
v 0.10154358 -0.08540134 -0.00912726
v 0.10461055 -0.08903321 -0.00912726
v 0.09756758 -0.08837481 0.00599661
v 0.09756758 -0.08852341 -0.00287993
v 0.09756758 -0.08852875 -0.00338771
v 0.09756758 -0.08626949 0.00599661
v 0.09777310 -0.08540134 -0.00654690
v 0.10896596 -0.08540134 -0.00912726
v 0.10107721 -0.08841605 0.00599661
v 0.10472912 -0.08903250 -0.00912726
v 0.13354126 -0.08863184 0.00599661
v 0.10480026 -0.08540205 -0.00216489
v 0.10382799 -0.08540205 -0.00219746
v 0.10341696 -0.08540205 -0.00225519
v 0.10307707 -0.08540205 -0.00230405
v 0.10250003 -0.08540205 -0.00245801
v 0.10181628 -0.08540205 -0.00270968
v 0.10148429 -0.08540134 -0.00289917
v 0.10090331 -0.08540134 -0.00323226
v 0.10086378 -0.08540134 -0.00325743
v 0.09985990 -0.08540134 -0.00400208
v 0.09920383 -0.08540134 -0.00458536
v 0.09857146 -0.08540134 -0.00524118
v 0.09816438 -0.08540134 -0.00579486
v 0.09784819 -0.08540134 -0.00637074
v 0.13794411 -0.08622008 0.00599661
v 0.11251512 -0.08540134 -0.00658836
v 0.11358223 -0.08540205 -0.00912726
v 0.13367168 -0.08875307 -0.00912726
v 0.13382187 -0.08877867 -0.00832488
v 0.13188921 -0.08877547 -0.00406574
v 0.13454119 -0.08862402 0.00599661
v 0.10572114 -0.08540205 -0.00216489
v 0.10898968 -0.08540134 -0.00305906
v 0.13794411 -0.08826780 0.00599661
v 0.13794411 -0.08606223 0.00238441
v 0.10776052 -0.08540205 -0.00253647
v 0.10708468 -0.08540205 -0.00237363
v 0.10617960 -0.08540205 -0.00221818
v 0.11254279 -0.08540134 -0.00654986
v 0.11293801 -0.08540205 -0.00745588
v 0.13794411 -0.08599113 -0.00564533
v 0.13794411 -0.08619839 -0.00912726
v 0.13410249 -0.08874845 -0.00912726
v 0.13509451 -0.08869619 -0.00912726
v 0.13473090 -0.08874631 -0.00748993
v 0.13577431 -0.08870898 -0.00652914
v 0.13580987 -0.08854261 0.00599661
v 0.10971690 -0.08540134 -0.00348986
v 0.10826641 -0.08540205 -0.00272596
v 0.13794411 -0.08839045 -0.00761724
v 0.13767931 -0.08831473 0.00599661
v 0.13783740 -0.08841462 -0.00768534
v 0.11234517 -0.08540134 -0.00615608
v 0.11230565 -0.08540134 -0.00608502
v 0.11200527 -0.08540134 -0.00561869
v 0.11165747 -0.08540134 -0.00516716
v 0.11127015 -0.08540134 -0.00474524
v 0.11063778 -0.08540134 -0.00415900
v 0.10983942 -0.08540134 -0.00357720
v 0.13794411 -0.08836379 -0.00912726
v 0.13557668 -0.08867023 -0.00912726
v 0.13623672 -0.08861229 -0.00912726
v 0.13721689 -0.08848004 -0.00912726
v 0.13758445 -0.08843027 -0.00912726
v 0.13711017 -0.08841533 0.00599661
v 0.13794411 -0.08836805 -0.00892888
f 1 2 5
f 1 5 12
f 1 12 11
f 1 11 10
f 1 10 13
f 1 13 6
f 1 6 3
f 1 3 8
f 1 8 15
f 1 15 35
f 1 35 50
f 1 50 68
f 1 68 72
f 1 72 71
f 1 71 70
f 1 70 69
f 1 69 52
f 1 52 51
f 1 51 36
f 1 36 17
f 1 17 9
f 1 9 4
f 1 4 2
f 2 4 5
f 3 6 7
f 3 7 8
f 4 9 10
f 4 10 11
f 4 11 12
f 4 12 5
f 6 13 14
f 6 14 7
f 7 14 32
f 7 32 31
f 7 31 30
f 7 30 29
f 7 29 28
f 7 28 27
f 7 27 26
f 7 26 25
f 7 25 41
f 7 41 56
f 7 56 67
f 7 67 66
f 7 66 65
f 7 65 64
f 7 64 63
f 7 63 62
f 7 62 61
f 7 61 47
f 7 47 34
f 7 34 15
f 7 15 8
f 9 16 10
f 9 17 18
f 9 18 16
f 10 16 18
f 10 18 39
f 10 39 55
f 10 55 73
f 10 73 59
f 10 59 42
f 10 42 33
f 10 33 13
f 13 19 20
f 13 20 21
f 13 21 22
f 13 22 23
f 13 23 24
f 13 24 25
f 13 25 26
f 13 26 27
f 13 27 28
f 13 28 29
f 13 29 30
f 13 30 31
f 13 31 32
f 13 32 14
f 13 33 19
f 15 34 35
f 17 36 37
f 17 37 38
f 17 38 18
f 18 38 39
f 19 40 25
f 19 25 20
f 19 33 40
f 20 25 21
f 21 25 22
f 22 25 23
f 23 25 24
f 25 40 41
f 33 42 58
f 33 58 74
f 33 74 68
f 33 68 50
f 33 50 49
f 33 49 43
f 33 43 44
f 33 44 45
f 33 45 46
f 33 46 40
f 34 47 35
f 35 47 48
f 35 48 49
f 35 49 50
f 36 51 37
f 37 51 52
f 37 52 53
f 37 53 39
f 37 39 38
f 39 53 54
f 39 54 55
f 40 46 41
f 41 46 45
f 41 45 44
f 41 44 57
f 41 57 43
f 41 43 56
f 42 59 60
f 42 60 58
f 43 49 48
f 43 48 47
f 43 47 61
f 43 61 62
f 43 62 63
f 43 63 64
f 43 64 65
f 43 65 66
f 43 66 67
f 43 67 56
f 43 57 44
f 52 69 54
f 52 54 53
f 54 69 70
f 54 70 71
f 54 71 72
f 54 72 60
f 54 60 73
f 54 73 55
f 58 60 74
f 59 73 60
f 60 72 68
f 60 68 74

