# https://github.com/mikedh/trimesh
v -0.11976496 -0.06715245 -0.01198812
v -0.14491985 -0.07423308 -0.01147299
v -0.14413541 -0.07494329 -0.01147299
v -0.14406154 -0.07501535 -0.01147299
v -0.14315398 -0.07601283 -0.01147299
v -0.14264040 -0.07670995 -0.01147299
v -0.11976496 -0.06920731 -0.01196922
v -0.11976496 -0.06715245 -0.01511574
v -0.13214366 -0.06715245 -0.01194451
v -0.15315473 -0.06725632 -0.01147299
v -0.13932323 -0.07670995 -0.01198231
v -0.11976496 -0.07642268 -0.01192367
v -0.11976496 -0.07504155 -0.01192803
v -0.15173008 -0.07671182 -0.01147299
v -0.11976496 -0.07642268 -0.01506873
v -0.12470729 -0.06715245 -0.01628411
v -0.13931972 -0.06715245 -0.01192173
v -0.15569449 -0.06725632 -0.01147299
v -0.13932323 -0.07670995 -0.01504111
v -0.15339042 -0.07671182 -0.01147299
v -0.15173008 -0.07671182 -0.01581066
v -0.13695232 -0.07340029 -0.01634372
v -0.13600958 -0.07286505 -0.01639266
v -0.13110595 -0.07003542 -0.01641786
v -0.12939635 -0.06906040 -0.01642368
v -0.12500982 -0.06715245 -0.01634808
v -0.14959484 -0.07671088 -0.01581066
v -0.13931972 -0.06715245 -0.01499992
v -0.15564877 -0.06725632 -0.01376709
v -0.15570153 -0.06760815 -0.01147299
v -0.15348891 -0.07650970 -0.01147299
v -0.15339746 -0.07671182 -0.01554413
v -0.15337635 -0.07671182 -0.01581066
v -0.13694177 -0.07311676 -0.01636698
v -0.15560303 -0.06725632 -0.01581066
v -0.12778174 -0.06816116 -0.01639654
v -0.12553746 -0.06715245 -0.01633403
v -0.12617065 -0.06715245 -0.01629768
v -0.15560655 -0.06768207 -0.01581066
v -0.15566987 -0.06794782 -0.01289917
v -0.15564877 -0.06881430 -0.01147299
v -0.15376329 -0.07592300 -0.01147299
v -0.15338690 -0.07671182 -0.01569290
v -0.15406582 -0.07520156 -0.01581066
v -0.15343615 -0.07658830 -0.01581066
v -0.15469196 -0.07337970 -0.01581066
v -0.15491358 -0.07266294 -0.01581066
v -0.15500152 -0.07234198 -0.01581066
v -0.15513870 -0.07176090 -0.01581066
v -0.15529348 -0.07095243 -0.01581066
v -0.15551861 -0.06936076 -0.01581066
v -0.15552213 -0.06932146 -0.01581066
v -0.15561008 -0.06925596 -0.01147299
v -0.15397435 -0.07542052 -0.01147299
v -0.15431908 -0.07455310 -0.01147299
v -0.15470603 -0.07340310 -0.01553928
v -0.15495227 -0.07256188 -0.01572440
v -0.15519498 -0.07170569 -0.01147299
v -0.15541308 -0.07067733 -0.01147299
v -0.15543419 -0.07056411 -0.01147299
v -0.15547289 -0.07022069 -0.01291129
v -0.15460050 -0.07374089 -0.01147299
v -0.15497689 -0.07255814 -0.01147299
f 1 2 3
f 1 3 4
f 1 4 5
f 1 5 6
f 1 6 7
f 1 7 13
f 1 13 12
f 1 12 15
f 1 15 8
f 1 8 16
f 1 16 26
f 1 26 37
f 1 37 38
f 1 38 28
f 1 28 17
f 1 17 9
f 1 9 10
f 1 10 2
f 2 10 18
f 2 18 30
f 2 30 41
f 2 41 53
f 2 53 60
f 2 60 59
f 2 59 58
f 2 58 63
f 2 63 62
f 2 62 55
f 2 55 54
f 2 54 42
f 2 42 31
f 2 31 20
f 2 20 14
f 2 14 6
f 2 6 5
f 2 5 4
f 2 4 3
f 6 11 12
f 6 12 13
f 6 13 7
f 6 14 11
f 8 15 16
f 9 17 10
f 10 17 18
f 11 14 21
f 11 21 19
f 11 19 15
f 11 15 12
f 14 20 32
f 14 32 43
f 14 43 33
f 14 33 21
f 15 22 23
f 15 23 24
f 15 24 25
f 15 25 26
f 15 26 16
f 15 19 27
f 15 27 22
f 17 28 18
f 18 29 30
f 18 28 29
f 19 21 27
f 20 31 32
f 21 33 22
f 21 22 27
f 22 34 23
f 22 33 34
f 23 34 35
f 23 35 24
f 24 35 25
f 25 36 26
f 25 35 36
f 26 36 35
f 26 35 37
f 28 38 35
f 28 35 29
f 29 35 39
f 29 39 30
f 30 39 40
f 30 40 41
f 31 42 32
f 32 42 44
f 32 44 45
f 32 45 43
f 33 43 45
f 33 45 34
f 34 45 44
f 34 44 46
f 34 46 47
f 34 47 48
f 34 48 49
f 34 49 50
f 34 50 51
f 34 51 52
f 34 52 39
f 34 39 35
f 35 38 37
f 39 52 40
f 40 52 41
f 41 52 53
f 42 54 44
f 44 54 55
f 44 55 56
f 44 56 46
f 46 56 57
f 46 57 47
f 47 57 48
f 48 57 49
f 49 57 58
f 49 58 59
f 49 59 50
f 50 59 60
f 50 60 61
f 50 61 51
f 51 61 53
f 51 53 52
f 53 61 60
f 55 62 56
f 56 62 63
f 56 63 57
f 57 63 58

