# https://github.com/mikedh/trimesh
v 0.14349327 -0.02952905 -0.01106857
v 0.14349327 -0.02952905 -0.01433435
v 0.14338223 -0.02952905 -0.01106979
v 0.10540772 -0.03731739 -0.01139821
v 0.14174081 -0.04655574 -0.01092360
v 0.14349327 -0.04655574 -0.01090968
v 0.14349327 -0.03242072 -0.01432452
v 0.10254973 -0.02952905 -0.01497071
v 0.14066425 -0.02952905 -0.01110214
v 0.10212973 -0.03579406 -0.01145718
v 0.10242422 -0.04100240 -0.01139494
v 0.10063315 -0.04468574 -0.01143998
v 0.10049797 -0.04655574 -0.01147152
v 0.14349327 -0.04655574 -0.01425613
v 0.09417854 -0.02952905 -0.01509275
v 0.13946699 -0.02952905 -0.01111852
v 0.09908829 -0.02952905 -0.01174465
v 0.09779447 -0.03375905 -0.01161566
v 0.09676135 -0.03614073 -0.01157184
v 0.09712343 -0.04035073 -0.01149691
v 0.13265030 -0.02952905 -0.01122049
v 0.09482545 -0.04655574 -0.01162835
v 0.09417371 -0.04655574 -0.01496949
v 0.09417854 -0.02952905 -0.01186095
v 0.09417854 -0.03370239 -0.01172541
v 0.09417854 -0.03859573 -0.01165579
v 0.09417854 -0.04074740 -0.01162631
v 0.09417854 -0.04655574 -0.01164883
f 1 2 8
f 1 8 15
f 1 15 24
f 1 24 17
f 1 17 21
f 1 21 16
f 1 16 9
f 1 9 3
f 1 3 4
f 1 4 5
f 1 5 6
f 1 6 14
f 1 14 7
f 1 7 2
f 2 7 8
f 3 9 10
f 3 10 4
f 4 10 11
f 4 11 5
f 5 11 12
f 5 12 13
f 5 13 22
f 5 22 28
f 5 28 23
f 5 23 14
f 5 14 6
f 7 14 8
f 8 14 15
f 9 16 10
f 10 17 18
f 10 18 19
f 10 19 20
f 10 20 11
f 10 16 21
f 10 21 17
f 11 20 12
f 12 20 22
f 12 22 13
f 14 23 15
f 15 23 24
f 17 24 18
f 18 24 25
f 18 25 19
f 19 25 26
f 19 26 20
f 20 26 27
f 20 27 28
f 20 28 22
f 23 28 27
f 23 27 26
f 23 26 25
f 23 25 24

