# https://github.com/mikedh/trimesh
v -0.14889518 -0.04203485 -0.01157037
v -0.14893053 -0.04251802 -0.01157037
v -0.14890500 -0.04014524 -0.01157037
v -0.14980487 -0.03878738 -0.00282748
v -0.15002600 -0.04216267 -0.00479674
v -0.14974359 -0.04251802 -0.00876752
v -0.15159125 -0.04251802 -0.01157037
v -0.14993724 -0.03962481 -0.00241427
v -0.14989678 -0.04054076 -0.00330254
v -0.14998790 -0.04149908 -0.00391563
v -0.15011910 -0.04172332 -0.00345492
v -0.15010849 -0.04184932 -0.00373637
v -0.14895488 -0.03878774 -0.01157037
v -0.14976205 -0.03878738 -0.00332136
v -0.14985711 -0.03878738 -0.00245102
v -0.15176760 -0.04216267 -0.00479674
v -0.15012067 -0.04184932 -0.00367541
v -0.15015483 -0.04184932 -0.00350601
v -0.15029192 -0.04184932 -0.00302378
v -0.15037086 -0.04184932 -0.00277728
v -0.15046828 -0.04184932 -0.00253706
v -0.15052170 -0.04184932 -0.00241427
v -0.15182456 -0.04251802 -0.00876752
v -0.15161678 -0.04118902 -0.01157037
v -0.15166037 -0.04251802 -0.01075649
v -0.15290786 -0.04184932 -0.00357951
v -0.14987046 -0.03887831 -0.00241427
v -0.15010535 -0.04066128 -0.00241427
v -0.15011910 -0.04072519 -0.00241427
v -0.15014659 -0.04082052 -0.00241427
v -0.15030135 -0.04167037 -0.00274143
v -0.15161325 -0.03878774 -0.01157037
v -0.14970470 -0.03878738 -0.00479674
v -0.14972317 -0.03878738 -0.00412807
v -0.14973299 -0.03878738 -0.00386365
v -0.14986379 -0.03878738 -0.00241427
v -0.15240353 -0.04216267 -0.00480032
v -0.15262309 -0.04184932 -0.00241427
v -0.15034376 -0.04147753 -0.00241427
v -0.15044353 -0.04169009 -0.00241427
v -0.15181081 -0.04251802 -0.00895396
v -0.15161835 -0.04062294 -0.01157037
v -0.15179157 -0.04251802 -0.00920672
v -0.15290786 -0.04184932 -0.00241695
v -0.15290786 -0.04055099 -0.00241427
v -0.15171773 -0.03878738 -0.00479674
v -0.15212858 -0.03878738 -0.00241427
v -0.15290786 -0.04171675 -0.00241427
f 1 2 7
f 1 7 24
f 1 24 42
f 1 42 32
f 1 32 13
f 1 13 3
f 1 3 4
f 1 4 2
f 2 5 6
f 2 6 23
f 2 23 41
f 2 41 43
f 2 43 25
f 2 25 7
f 2 4 8
f 2 8 9
f 2 9 10
f 2 10 11
f 2 11 12
f 2 12 5
f 3 13 4
f 4 14 35
f 4 35 34
f 4 34 33
f 4 33 46
f 4 46 47
f 4 47 36
f 4 36 15
f 4 15 8
f 4 13 14
f 5 16 23
f 5 23 6
f 5 12 17
f 5 17 18
f 5 18 19
f 5 19 20
f 5 20 21
f 5 21 22
f 5 22 38
f 5 38 16
f 7 25 26
f 7 26 24
f 8 15 27
f 8 27 36
f 8 36 47
f 8 47 45
f 8 45 48
f 8 48 38
f 8 38 22
f 8 22 40
f 8 40 39
f 8 39 30
f 8 30 29
f 8 29 28
f 8 28 9
f 9 28 11
f 9 11 10
f 11 28 29
f 11 29 30
f 11 30 31
f 11 31 19
f 11 19 18
f 11 18 17
f 11 17 12
f 13 32 46
f 13 46 33
f 13 33 34
f 13 34 35
f 13 35 14
f 15 36 27
f 16 37 23
f 16 38 37
f 19 31 20
f 20 31 21
f 21 31 39
f 21 39 40
f 21 40 22
f 23 37 26
f 23 26 41
f 24 26 42
f 25 43 26
f 26 44 48
f 26 48 45
f 26 45 32
f 26 32 42
f 26 43 41
f 26 37 44
f 30 39 31
f 32 45 47
f 32 47 46
f 37 38 44
f 38 48 44

