# https://github.com/mikedh/trimesh
v -0.14185915 0.08500436 0.00570031
v -0.14191581 0.08500436 0.00654768
v -0.14171807 0.08500250 0.00462939
v -0.14387248 0.08500436 0.00462939
v -0.14221533 0.08500436 0.00988495
v -0.14554698 0.08280845 0.00439067
v -0.15199520 0.07549555 0.00994934
v -0.15189921 0.07549555 0.00795633
v -0.15177894 0.07549555 0.00439006
v -0.14617607 0.08500436 0.00462939
v -0.14606506 0.08500436 0.00988495
v -0.14606622 0.08280845 0.01059565
v -0.14891449 0.08280845 0.00439067
v -0.14962684 0.07908218 0.00439006
v -0.14998418 0.07978499 0.00439006
v -0.15353092 0.07549555 0.00994934
v -0.14934814 0.07978499 0.01059565
v -0.15353092 0.07549555 0.00439006
v -0.14666524 0.08467670 0.00462939
v -0.14664905 0.08475117 0.00652885
v -0.14625933 0.08500436 0.00630106
v -0.14619574 0.08500436 0.00751533
v -0.14724808 0.08422895 0.00988495
v -0.14909604 0.08280845 0.01059565
v -0.14940249 0.08235697 0.00439067
v -0.14896190 0.08280845 0.00521071
v -0.14809920 0.08357362 0.00462939
v -0.14768058 0.08390035 0.00462939
v -0.15154882 0.07978499 0.00439006
v -0.15170146 0.07978499 0.01059565
v -0.15353092 0.07680342 0.00994934
v -0.15353092 0.07657349 0.00439006
v -0.14828770 0.08349636 0.00646204
v -0.14901741 0.08280845 0.00691458
v -0.14952045 0.08233184 0.00722801
v -0.14919086 0.08271071 0.01059565
v -0.14966500 0.08210564 0.00439067
v -0.15071966 0.08091972 0.00439067
v -0.15062136 0.08103515 0.00439067
v -0.15216519 0.07893976 0.00439006
v -0.15034266 0.08148755 0.01059565
v -0.15245776 0.07852645 0.00439006
v -0.15285673 0.07795024 0.00626948
v -0.15304291 0.07767564 0.00994934
v -0.15338058 0.07712084 0.00994934
v -0.15353092 0.07673639 0.00660053
v -0.15353092 0.07668426 0.00559522
v -0.15335977 0.07693374 0.00439006
v -0.14989860 0.08197811 0.01059565
v -0.15319324 0.07723627 0.00439006
f 1 2 3
f 1 3 4
f 1 4 10
f 1 10 21
f 1 21 22
f 1 22 11
f 1 11 5
f 1 5 2
f 2 5 3
f 3 6 4
f 3 5 7
f 3 7 8
f 3 8 9
f 3 9 6
f 4 6 13
f 4 13 10
f 5 11 24
f 5 24 12
f 5 12 7
f 6 9 14
f 6 14 15
f 6 15 29
f 6 29 13
f 7 16 18
f 7 18 9
f 7 9 8
f 7 12 17
f 7 17 30
f 7 30 16
f 9 18 32
f 9 32 48
f 9 48 50
f 9 50 42
f 9 42 40
f 9 40 29
f 9 29 15
f 9 15 14
f 10 19 20
f 10 20 21
f 10 13 19
f 11 22 20
f 11 20 23
f 11 23 24
f 12 24 36
f 12 36 49
f 12 49 41
f 12 41 30
f 12 30 17
f 13 25 26
f 13 26 27
f 13 27 28
f 13 28 19
f 13 29 25
f 16 30 31
f 16 31 46
f 16 46 47
f 16 47 32
f 16 32 18
f 19 28 33
f 19 33 20
f 20 22 21
f 20 33 24
f 20 24 23
f 24 33 34
f 24 34 35
f 24 35 36
f 25 29 37
f 25 37 26
f 26 34 33
f 26 33 27
f 26 37 34
f 27 33 28
f 29 30 38
f 29 38 39
f 29 39 37
f 29 40 30
f 30 41 38
f 30 40 42
f 30 42 43
f 30 43 44
f 30 44 45
f 30 45 31
f 31 45 46
f 32 47 48
f 34 37 35
f 35 37 39
f 35 39 41
f 35 41 49
f 35 49 36
f 38 41 39
f 42 50 43
f 43 50 48
f 43 48 47
f 43 47 46
f 43 46 45
f 43 45 44

