# https://github.com/mikedh/trimesh
v 0.06162920 -0.02615799 -0.01231698
v 0.06162920 -0.03538189 -0.01222470
v 0.06162920 -0.02615799 -0.01547404
v 0.05232732 -0.02615799 -0.01240158
v 0.03631148 -0.02615890 -0.01250471
v 0.04084107 -0.02615890 -0.01246762
v 0.03910994 -0.03267090 -0.01229663
v 0.03875318 -0.03538370 -0.01224868
v 0.04242013 -0.03538370 -0.01223420
v 0.04372725 -0.03538370 -0.01223194
v 0.06162920 -0.03538189 -0.01547358
v 0.04444076 -0.03538370 -0.01223239
v 0.05209046 -0.03538370 -0.01231156
v 0.06162920 -0.03241172 -0.01669904
v 0.06021389 -0.03172087 -0.01674066
v 0.05442982 -0.02880126 -0.01681937
v 0.05065175 -0.02672150 -0.01682751
v 0.04968677 -0.02615980 -0.01680806
v 0.04928908 -0.02615980 -0.01684606
v 0.05209046 -0.02615799 -0.01628558
v 0.05209046 -0.02615799 -0.01240384
v 0.03175850 -0.02615890 -0.01255267
v 0.03547223 -0.03445806 -0.01232060
v 0.03638166 -0.03538370 -0.01228758
v 0.06162920 -0.03332020 -0.01655654
v 0.05209046 -0.03538370 -0.01554189
v 0.05096172 -0.03538370 -0.01556044
v 0.06162920 -0.03255079 -0.01671940
v 0.05579542 -0.02958783 -0.01681937
v 0.06162920 -0.03280094 -0.01675287
v 0.05491231 -0.02930156 -0.01684153
v 0.05001428 -0.02649393 -0.01684018
v 0.04888554 -0.02615980 -0.01683792
v 0.03175850 -0.02615890 -0.01611685
v 0.03175850 -0.03299058 -0.01246581
v 0.03533772 -0.03538370 -0.01231291
v 0.06162920 -0.03299239 -0.01672573
v 0.03204507 -0.03538370 -0.01569660
v 0.06162920 -0.03295987 -0.01673568
v 0.03175850 -0.03538370 -0.01569796
v 0.03175850 -0.03538370 -0.01244003
f 1 2 11
f 1 11 25
f 1 25 37
f 1 37 39
f 1 39 30
f 1 30 28
f 1 28 14
f 1 14 3
f 1 3 20
f 1 20 21
f 1 21 4
f 1 4 5
f 1 5 6
f 1 6 7
f 1 7 8
f 1 8 9
f 1 9 10
f 1 10 2
f 2 10 12
f 2 12 13
f 2 13 26
f 2 26 11
f 3 14 15
f 3 15 16
f 3 16 17
f 3 17 18
f 3 18 19
f 3 19 20
f 4 21 5
f 5 22 7
f 5 7 6
f 5 21 22
f 7 22 23
f 7 23 8
f 8 23 24
f 8 24 36
f 8 36 41
f 8 41 40
f 8 40 38
f 8 38 27
f 8 27 26
f 8 26 13
f 8 13 12
f 8 12 10
f 8 10 9
f 11 26 27
f 11 27 25
f 14 28 15
f 15 29 16
f 15 28 30
f 15 30 29
f 16 29 31
f 16 31 17
f 17 32 19
f 17 19 18
f 17 31 32
f 19 33 20
f 19 32 31
f 19 31 33
f 20 33 34
f 20 34 22
f 20 22 21
f 22 34 40
f 22 40 41
f 22 41 35
f 22 35 36
f 22 36 23
f 23 36 24
f 25 27 38
f 25 38 37
f 29 30 31
f 30 39 40
f 30 40 31
f 31 40 33
f 33 40 34
f 35 41 36
f 37 38 40
f 37 40 39

