# https://github.com/mikedh/trimesh
v -0.06052272 -0.02852022 -0.01255292
v -0.06052272 -0.03288939 -0.01253080
v -0.06052272 -0.02852022 -0.01568773
v -0.09598385 -0.02852022 -0.01223593
v -0.09598385 -0.03441594 -0.01215560
v -0.09598385 -0.03675507 -0.01213588
v -0.06052272 -0.03791469 -0.01250627
v -0.06052272 -0.03199242 -0.01692106
v -0.06648267 -0.02852022 -0.01566224
v -0.09598385 -0.02852022 -0.01538565
v -0.09598385 -0.03820578 -0.01213444
v -0.06052272 -0.03791469 -0.01568869
v -0.07759030 -0.03820578 -0.01242449
v -0.06052272 -0.03218300 -0.01697638
v -0.09598385 -0.02853350 -0.01542028
v -0.08129747 -0.02852022 -0.01556844
v -0.07951331 -0.02852022 -0.01558527
v -0.07759030 -0.02852117 -0.01559970
v -0.07759725 -0.02852022 -0.01559922
v -0.09598385 -0.03820578 -0.01540585
v -0.06134886 -0.03309230 -0.01701631
v -0.06052272 -0.03262675 -0.01702881
v -0.07759030 -0.03820578 -0.01559105
v -0.07028356 -0.03791469 -0.01689653
v -0.06052272 -0.03234704 -0.01700236
v -0.06052272 -0.03247409 -0.01701967
v -0.06308789 -0.03355500 -0.01704853
v -0.06825295 -0.03645356 -0.01697927
v -0.07076952 -0.03791469 -0.01694319
v -0.09485920 -0.03820578 -0.01541884
v -0.08980870 -0.03820578 -0.01547464
f 1 2 7
f 1 7 12
f 1 12 22
f 1 22 26
f 1 26 25
f 1 25 14
f 1 14 8
f 1 8 3
f 1 3 9
f 1 9 19
f 1 19 17
f 1 17 16
f 1 16 10
f 1 10 4
f 1 4 5
f 1 5 6
f 1 6 2
f 2 6 7
f 3 8 9
f 4 10 15
f 4 15 20
f 4 20 11
f 4 11 6
f 4 6 5
f 6 11 7
f 7 11 13
f 7 13 23
f 7 23 12
f 8 14 15
f 8 15 16
f 8 16 17
f 8 17 18
f 8 18 9
f 9 18 19
f 10 16 15
f 11 20 30
f 11 30 31
f 11 31 23
f 11 23 13
f 12 21 22
f 12 23 24
f 12 24 21
f 14 25 15
f 15 25 26
f 15 26 27
f 15 27 28
f 15 28 29
f 15 29 20
f 17 19 18
f 20 29 30
f 21 24 29
f 21 29 22
f 22 29 27
f 22 27 26
f 23 31 29
f 23 29 24
f 27 29 28
f 29 31 30

