# https://github.com/mikedh/trimesh
v -0.15174288 0.07682764 -0.01153379
v -0.15174288 0.07682764 -0.01516350
v -0.15318878 0.07682764 -0.01153379
v -0.15174288 0.07036429 -0.01153379
v -0.15330150 0.07682764 -0.01516350
v -0.15174288 0.07367027 -0.01516350
v -0.15174327 0.05102376 -0.01537101
v -0.15289208 0.07011658 -0.01554864
v -0.15385887 0.07547684 -0.01153379
v -0.15174288 0.07011658 -0.01156365
v -0.15174327 0.05505964 -0.01153379
v -0.15174327 0.04308740 -0.01153418
v -0.15385925 0.07567171 -0.01516350
v -0.15542988 0.07011658 -0.01554864
v -0.15174288 0.07011658 -0.01469269
v -0.15174327 0.04564038 -0.01537101
v -0.15331970 0.06614346 -0.01554864
v -0.15394950 0.07544051 -0.01516350
v -0.15442708 0.07418219 -0.01516350
v -0.15442243 0.07397742 -0.01153379
v -0.15282508 0.05446516 -0.01153379
v -0.15487755 0.04630422 -0.01153418
v -0.15511149 0.04706053 -0.01297137
v -0.15529508 0.04765832 -0.01410202
v -0.15522304 0.04809758 -0.01524328
v -0.15520871 0.04816694 -0.01537101
v -0.15568977 0.05446516 -0.01153379
v -0.15544072 0.07006374 -0.01554864
v -0.15543685 0.07011658 -0.01549205
v -0.15485469 0.07274222 -0.01516350
v -0.15469743 0.07329707 -0.01516350
v -0.15324998 0.05446516 -0.01547829
v -0.15556312 0.05446516 -0.01547829
v -0.15561153 0.06614346 -0.01554864
v -0.15453089 0.07367358 -0.01153379
v -0.15519747 0.04669064 -0.01153418
v -0.15545350 0.04801171 -0.01436375
v -0.15523544 0.04674347 -0.01153418
v -0.15539773 0.04841133 -0.01537101
v -0.15529431 0.04826271 -0.01537101
v -0.15569597 0.05514221 -0.01153379
v -0.15564174 0.04837500 -0.01153418
v -0.15555189 0.04771116 -0.01153418
v -0.15553988 0.04765172 -0.01153418
v -0.15542445 0.04712329 -0.01153418
v -0.15539347 0.04706053 -0.01153418
v -0.15559410 0.06908615 -0.01554864
v -0.15562121 0.06902670 -0.01532974
v -0.15545467 0.07011658 -0.01527236
v -0.15542445 0.07031144 -0.01516350
v -0.15541322 0.07036429 -0.01516350
v -0.15514829 0.07159619 -0.01153379
v -0.15470208 0.07310551 -0.01153379
v -0.15549223 0.04874491 -0.01537101
v -0.15552322 0.04890673 -0.01537101
v -0.15560185 0.05041936 -0.01537101
v -0.15569326 0.06184336 -0.01547829
v -0.15563826 0.06695922 -0.01554864
v -0.15558132 0.04854344 -0.01412717
v -0.15569984 0.06150648 -0.01153379
v -0.15569055 0.05446516 -0.01153418
v -0.15563051 0.06865680 -0.01554864
v -0.15565104 0.06798305 -0.01554864
v -0.15569790 0.06755370 -0.01153379
v -0.15564059 0.06843222 -0.01153379
v -0.15552864 0.06959806 -0.01153379
v -0.15545041 0.07012649 -0.01153379
v -0.15567815 0.06759333 -0.01369330
f 1 2 5
f 1 5 3
f 1 3 9
f 1 9 20
f 1 20 35
f 1 35 53
f 1 53 52
f 1 52 67
f 1 67 66
f 1 66 65
f 1 65 64
f 1 64 60
f 1 60 41
f 1 41 27
f 1 27 21
f 1 21 11
f 1 11 4
f 1 4 10
f 1 10 15
f 1 15 6
f 1 6 2
f 2 6 16
f 2 16 7
f 2 7 8
f 2 8 14
f 2 14 5
f 3 5 9
f 4 11 12
f 4 12 10
f 5 13 9
f 5 14 13
f 6 15 16
f 7 16 8
f 8 17 34
f 8 34 58
f 8 58 63
f 8 63 62
f 8 62 47
f 8 47 28
f 8 28 14
f 8 16 17
f 9 18 19
f 9 19 20
f 9 13 18
f 10 12 15
f 11 21 12
f 12 22 23
f 12 23 24
f 12 24 25
f 12 25 26
f 12 26 16
f 12 16 15
f 12 21 27
f 12 27 22
f 13 14 18
f 14 28 29
f 14 29 30
f 14 30 31
f 14 31 19
f 14 19 18
f 16 32 17
f 16 26 33
f 16 33 32
f 17 32 33
f 17 33 34
f 19 31 35
f 19 35 20
f 22 27 36
f 22 36 23
f 23 36 24
f 24 37 25
f 24 36 38
f 24 38 37
f 25 37 39
f 25 39 40
f 25 40 26
f 26 40 33
f 27 41 42
f 27 42 43
f 27 43 44
f 27 44 45
f 27 45 46
f 27 46 38
f 27 38 36
f 28 47 48
f 28 48 49
f 28 49 29
f 29 49 50
f 29 50 51
f 29 51 30
f 30 51 52
f 30 52 31
f 31 52 53
f 31 53 35
f 33 40 39
f 33 39 54
f 33 54 55
f 33 55 56
f 33 56 57
f 33 57 58
f 33 58 34
f 37 38 46
f 37 46 45
f 37 45 44
f 37 44 59
f 37 59 54
f 37 54 39
f 41 60 57
f 41 57 61
f 41 61 42
f 42 56 59
f 42 59 43
f 42 61 57
f 42 57 56
f 43 59 44
f 47 62 48
f 48 62 63
f 48 63 64
f 48 64 65
f 48 65 66
f 48 66 67
f 48 67 49
f 49 67 50
f 50 67 52
f 50 52 51
f 54 59 55
f 55 59 56
f 57 60 64
f 57 64 68
f 57 68 63
f 57 63 58
f 63 68 64

