# https://github.com/mikedh/trimesh
v -0.14736705 0.08007924 -0.01153403
v -0.14736705 0.07682830 -0.01153403
v -0.14736705 0.08007924 -0.01156408
v -0.15109679 0.08007924 -0.01153403
v -0.14736705 0.07682830 -0.01373074
v -0.15318735 0.07682830 -0.01153403
v -0.14736705 0.08007702 -0.01216138
v -0.14737051 0.08007924 -0.01216461
v -0.15110773 0.08007924 -0.01329810
v -0.15148428 0.07959905 -0.01407123
v -0.15202779 0.07880063 -0.01153403
v -0.14993434 0.07682830 -0.01407123
v -0.14774130 0.08007924 -0.01407123
v -0.15306760 0.07707046 -0.01153403
v -0.15316720 0.07699695 -0.01407123
v -0.15324896 0.07682830 -0.01407123
v -0.15111233 0.08007924 -0.01407123
v -0.15224772 0.07851774 -0.01407123
v -0.15233985 0.07831534 -0.01153403
v -0.15257245 0.07800444 -0.01407123
f 1 2 5
f 1 5 7
f 1 7 3
f 1 3 8
f 1 8 13
f 1 13 17
f 1 17 9
f 1 9 4
f 1 4 11
f 1 11 19
f 1 19 14
f 1 14 6
f 1 6 2
f 2 6 16
f 2 16 12
f 2 12 5
f 3 7 8
f 4 9 10
f 4 10 11
f 5 12 13
f 5 13 7
f 6 14 15
f 6 15 16
f 7 13 8
f 9 17 10
f 10 17 13
f 10 13 12
f 10 12 16
f 10 16 15
f 10 15 20
f 10 20 18
f 10 18 11
f 11 18 19
f 14 19 15
f 15 19 20
f 18 20 19

