# https://github.com/mikedh/trimesh
v 0.14550301 0.08275254 0.00319354
v 0.14550301 0.08383077 0.00945763
v 0.14550301 0.08580947 0.00319354
v 0.14908928 0.07938774 0.00319354
v 0.15221532 0.07334734 0.00319423
v 0.15154672 0.07404554 0.00319423
v 0.15111860 0.07458402 0.00319423
v 0.15050495 0.07544840 0.00319423
v 0.14550301 0.08599754 0.00945763
v 0.15279257 0.07415633 0.00988340
v 0.15279257 0.07425166 0.01018596
v 0.15011679 0.07938774 0.01018596
v 0.14550301 0.08593700 0.00611646
v 0.14562931 0.08589191 0.00678251
v 0.14569352 0.08569481 0.00319354
v 0.15216965 0.07938774 0.00319354
v 0.15279257 0.07283720 0.00319423
v 0.14565499 0.08590866 0.00945763
v 0.14550301 0.08596019 0.00675923
v 0.15239941 0.07938774 0.01018596
v 0.15279257 0.07875523 0.01018596
v 0.14622797 0.08556986 0.00945763
v 0.14667536 0.08520014 0.00681810
v 0.14638923 0.08523751 0.00319354
v 0.15238585 0.07908759 0.00319423
v 0.15255496 0.07881449 0.00319423
v 0.15279257 0.07840613 0.00319423
v 0.15126202 0.08064246 0.00319354
v 0.15144468 0.08054069 0.00624105
v 0.15161380 0.08043377 0.00945763
v 0.15083389 0.08144501 0.00945763
v 0.14995908 0.08243693 0.00945763
v 0.14950028 0.08287750 0.00945763
v 0.14860764 0.08370196 0.00945763
v 0.14761795 0.08454315 0.00945763
v 0.14691297 0.08509451 0.00945763
v 0.15266413 0.07897423 0.01018596
v 0.14739247 0.08466038 0.00670584
v 0.14707780 0.08474927 0.00319354
v 0.15047070 0.08160217 0.00319354
v 0.15029731 0.08179670 0.00319354
v 0.14955308 0.08261728 0.00319354
v 0.14925268 0.08291358 0.00319354
v 0.14834005 0.08385525 0.00608224
v 0.14810459 0.08395702 0.00319354
v 0.14827655 0.08380372 0.00319354
f 1 2 9
f 1 9 19
f 1 19 13
f 1 13 3
f 1 3 15
f 1 15 24
f 1 24 39
f 1 39 45
f 1 45 46
f 1 46 43
f 1 43 42
f 1 42 41
f 1 41 40
f 1 40 28
f 1 28 16
f 1 16 4
f 1 4 5
f 1 5 6
f 1 6 7
f 1 7 8
f 1 8 2
f 2 8 7
f 2 7 10
f 2 10 11
f 2 11 12
f 2 12 9
f 3 13 14
f 3 14 15
f 4 16 17
f 4 17 5
f 5 17 10
f 5 10 6
f 6 10 7
f 9 18 14
f 9 14 19
f 9 12 20
f 9 20 18
f 10 17 27
f 10 27 21
f 10 21 11
f 11 21 37
f 11 37 20
f 11 20 12
f 13 19 14
f 14 18 22
f 14 22 23
f 14 23 24
f 14 24 15
f 16 25 26
f 16 26 27
f 16 27 17
f 16 28 29
f 16 29 25
f 18 20 22
f 20 30 31
f 20 31 32
f 20 32 33
f 20 33 34
f 20 34 35
f 20 35 36
f 20 36 22
f 20 37 25
f 20 25 29
f 20 29 30
f 21 27 26
f 21 26 37
f 22 36 23
f 23 36 38
f 23 38 39
f 23 39 24
f 25 37 26
f 28 40 31
f 28 31 29
f 29 31 30
f 31 40 32
f 32 40 41
f 32 41 42
f 32 42 43
f 32 43 33
f 33 43 44
f 33 44 34
f 34 44 35
f 35 44 38
f 35 38 36
f 38 44 45
f 38 45 39
f 43 46 44
f 44 46 45

