# https://github.com/mikedh/trimesh
v 0.07096114 -0.08799806 0.01095709
v 0.07343195 -0.09018652 0.01274079
v 0.07096114 -0.08996902 0.01261561
v 0.07096114 -0.08599047 0.01095709
v 0.10178945 -0.08852206 0.01095709
v 0.08793730 -0.08842261 0.01095781
v 0.08495528 -0.09041858 0.01272560
v 0.08425238 -0.09049069 0.01282907
v 0.07410645 -0.09029761 0.01286525
v 0.07096114 -0.09016501 0.01283776
v 0.07147235 -0.09010220 0.01272704
v 0.07096114 -0.08588288 0.01474809
v 0.14098158 -0.08540366 0.01095709
v 0.12367172 -0.08869770 0.01095709
v 0.09452612 -0.08848368 0.01095781
v 0.13390286 -0.08873608 0.01095709
v 0.10801617 -0.09082626 0.01305050
v 0.08536709 -0.09058200 0.01292531
v 0.08404648 -0.09072855 0.01314240
v 0.07498685 -0.09043370 0.01308813
v 0.07377275 -0.09040055 0.01309826
v 0.07096114 -0.09022956 0.01295715
v 0.07096114 -0.08587474 0.01534073
v 0.14121588 -0.08540192 0.01419236
v 0.14349499 -0.08540366 0.01095709
v 0.13498205 -0.08872387 0.01095709
v 0.12164821 -0.09065411 0.01287900
v 0.12045541 -0.09084486 0.01308089
v 0.12117962 -0.09090768 0.01315325
v 0.12159852 -0.09103097 0.01333705
v 0.10727067 -0.09102050 0.01336961
v 0.08397548 -0.09091757 0.01360696
v 0.07403545 -0.09053082 0.01337034
v 0.09125301 -0.09099550 0.01363156
v 0.07096114 -0.09036740 0.01333560
v 0.07096114 -0.08588462 0.01576042
v 0.14339559 -0.08540192 0.01802388
v 0.14288438 -0.08540192 0.01786252
v 0.14224538 -0.08540192 0.01756367
v 0.14221698 -0.08540192 0.01754630
v 0.14174129 -0.08540192 0.01717871
v 0.14169868 -0.08540192 0.01710562
v 0.14137208 -0.08540192 0.01646016
v 0.14130108 -0.08540192 0.01625682
v 0.14349499 -0.08540192 0.01419236
v 0.14349499 -0.08667615 0.01095709
v 0.13526606 -0.08871108 0.01095709
v 0.13737477 -0.09056804 0.01325383
v 0.12232981 -0.09089663 0.01317568
v 0.12282682 -0.09118276 0.01396659
v 0.10795936 -0.09116706 0.01388482
v 0.10788127 -0.09107866 0.01352881
v 0.13663637 -0.09099841 0.01402520
v 0.13762327 -0.09120079 0.01469093
v 0.08400389 -0.09099084 0.01396370
v 0.07301305 -0.09057037 0.01361853
v 0.09101161 -0.09115775 0.01418657
v 0.07162854 -0.09044300 0.01345862
v 0.07096114 -0.09050058 0.01381608
v 0.07096114 -0.08588986 0.01593337
v 0.14349499 -0.08540192 0.01804704
v 0.14349499 -0.08895068 0.01327048
v 0.14340268 -0.08899256 0.01327048
v 0.14267849 -0.08703323 0.01095709
v 0.13656537 -0.08857731 0.01095709
v 0.13703396 -0.08853370 0.01095781
v 0.13841848 -0.09061515 0.01343184
v 0.12236531 -0.09128977 0.01470974
v 0.09148021 -0.09121707 0.01466849
v 0.10700086 -0.09111588 0.01368945
v 0.13898647 -0.09095013 0.01450351
v 0.13849657 -0.09129152 0.01546374
v 0.08407489 -0.09103039 0.01444490
v 0.08335779 -0.09100887 0.01443477
v 0.07385795 -0.09065643 0.01395357
v 0.07096114 -0.09054245 0.01399047
v 0.07096114 -0.09053431 0.01394199
v 0.07096114 -0.08590324 0.01608822
v 0.14349499 -0.08557813 0.01813677
v 0.07096114 -0.08592533 0.01619459
v 0.07096114 -0.08601199 0.01644858
v 0.07096114 -0.08606724 0.01659113
v 0.07096114 -0.08611318 0.01669823
v 0.07096114 -0.08622659 0.01691314
v 0.07096114 -0.08627137 0.01699057
v 0.07096114 -0.08641851 0.01720041
v 0.07096114 -0.08643363 0.01721923
v 0.07096114 -0.08663137 0.01741533
v 0.07096114 -0.08684655 0.01754558
v 0.07096114 -0.08690122 0.01757380
v 0.14349499 -0.08896581 0.01328784
v 0.14331749 -0.08919320 0.01353459
v 0.14130818 -0.08979280 0.01330738
v 0.14176969 -0.08938570 0.01302445
v 0.14159218 -0.08743161 0.01095709
v 0.13716887 -0.08851450 0.01095781
v 0.13959707 -0.08802133 0.01095709
v 0.13900778 -0.09028656 0.01314601
v 0.13963257 -0.09034355 0.01341665
v 0.13921367 -0.09069773 0.01393186
v 0.13505305 -0.09134328 0.01590515
v 0.09087671 -0.09119148 0.01507951
v 0.13411586 -0.09133630 0.01654410
v 0.13959707 -0.09105598 0.01555781
v 0.14069758 -0.09057909 0.01480888
v 0.14050587 -0.09086057 0.01563524
v 0.14033548 -0.09099724 0.01616420
v 0.13881607 -0.09128163 0.01598619
v 0.13656537 -0.09132060 0.01571194
v 0.08322289 -0.09097631 0.01490512
v 0.07096114 -0.09059944 0.01498761
v 0.07221785 -0.09064190 0.01488485
v 0.07096114 -0.09059653 0.01452811
v 0.07096114 -0.09059479 0.01446082
v 0.07096114 -0.09059305 0.01443187
v 0.14349499 -0.08580902 0.01821564
v 0.07096114 -0.08702451 0.01762952
v 0.07096114 -0.08728447 0.01772286
v 0.14349499 -0.08912225 0.01354328
v 0.14349499 -0.08920599 0.01374661
v 0.14218148 -0.08987073 0.01419091
v 0.14088218 -0.09008010 0.01361347
v 0.14001597 -0.09002543 0.01310983
v 0.14096738 -0.08763109 0.01095709
v 0.13910007 -0.08815567 0.01095781
v 0.13949768 -0.08805098 0.01095781
v 0.13656537 -0.09130780 0.01625393
v 0.09148731 -0.09115892 0.01547098
v 0.09055721 -0.09113508 0.01547894
v 0.07096114 -0.09056223 0.01547677
v 0.07096114 -0.09058083 0.01525969
v 0.13442115 -0.09121882 0.01715917
v 0.13368275 -0.09125546 0.01706510
v 0.13356915 -0.09126069 0.01704990
v 0.14236609 -0.09017606 0.01546374
v 0.14107388 -0.09074600 0.01597606
v 0.14160638 -0.09063492 0.01629735
v 0.14086798 -0.09086231 0.01653976
v 0.13953318 -0.09113682 0.01661863
v 0.13959707 -0.09112577 0.01658028
v 0.13656537 -0.09118509 0.01693195
v 0.14349499 -0.08619693 0.01829813
v 0.07096114 -0.08750489 0.01778437
v 0.14349499 -0.08937058 0.01419091
v 0.09125301 -0.09100131 0.01617288
v 0.07096114 -0.09046568 0.01609980
v 0.07096114 -0.09052152 0.01579733
v 0.13656537 -0.09103388 0.01726192
v 0.13564946 -0.09100131 0.01746091
v 0.13368275 -0.09105133 0.01742546
v 0.13287335 -0.09107110 0.01741026
v 0.09135241 -0.09070297 0.01692834
v 0.14349499 -0.08946538 0.01451219
v 0.14349499 -0.08968288 0.01532409
v 0.14349499 -0.08980676 0.01588778
v 0.14296249 -0.09014117 0.01642108
v 0.14230219 -0.09040171 0.01668520
v 0.14062658 -0.09087860 0.01680098
v 0.14059818 -0.09071692 0.01718956
v 0.14349499 -0.08645049 0.01831695
v 0.07096114 -0.08777183 0.01782634
v 0.07096114 -0.08803412 0.01785601
v 0.07096114 -0.08811031 0.01786397
v 0.07752866 -0.09043428 0.01676118
v 0.07096114 -0.09032029 0.01664396
v 0.07096114 -0.09034181 0.01657159
v 0.07096114 -0.09040577 0.01633208
v 0.13473356 -0.09067214 0.01780825
v 0.13959707 -0.09066574 0.01742690
v 0.13095634 -0.09090128 0.01757090
v 0.09147311 -0.09044649 0.01729086
v 0.09208371 -0.09055757 0.01717219
v 0.07096114 -0.09019293 0.01695800
v 0.07096114 -0.09020048 0.01694136
v 0.14349499 -0.08988643 0.01634655
v 0.14349499 -0.08991668 0.01652818
v 0.14349499 -0.08990854 0.01669171
v 0.14349499 -0.08986957 0.01690880
v 0.14349499 -0.08984689 0.01696669
v 0.14186908 -0.09044359 0.01698116
v 0.13984558 -0.09064423 0.01742401
v 0.14259329 -0.09000740 0.01729376
v 0.14206078 -0.08993238 0.01758972
v 0.14349499 -0.08676978 0.01832346
v 0.13480456 -0.08825454 0.01833648
v 0.07096114 -0.08830979 0.01786686
v 0.12279132 -0.08892451 0.01826919
v 0.12970674 -0.09073960 0.01770188
v 0.13658666 -0.09009115 0.01808539
v 0.12877664 -0.09039531 0.01795225
v 0.12870564 -0.09060875 0.01780535
v 0.09258782 -0.09034181 0.01741388
v 0.07096114 -0.08977942 0.01741822
v 0.07096114 -0.08998763 0.01722429
v 0.07096114 -0.09002194 0.01718811
v 0.07096114 -0.09016559 0.01699563
v 0.14349499 -0.08980385 0.01704556
v 0.14088928 -0.08990446 0.01777858
v 0.14349499 -0.08959042 0.01736106
v 0.14349499 -0.08948631 0.01746960
v 0.14349499 -0.08934266 0.01757235
v 0.14349499 -0.08896348 0.01777496
v 0.14349499 -0.08840401 0.01805138
v 0.14249388 -0.08874597 0.01808539
v 0.13634526 -0.08899139 0.01834951
v 0.14349499 -0.08716118 0.01831116
v 0.07096114 -0.08839528 0.01786469
v 0.12263512 -0.08935138 0.01822650
v 0.12791043 -0.08940722 0.01826268
v 0.13968938 -0.08855754 0.01831116
v 0.13959707 -0.08857150 0.01831261
v 0.13656537 -0.09000507 0.01810638
v 0.13368275 -0.08946770 0.01825544
v 0.13368275 -0.08951539 0.01824386
v 0.12970674 -0.08997425 0.01812374
v 0.12933754 -0.09001961 0.01811144
v 0.10087355 -0.09002485 0.01779016
v 0.09219732 -0.09015454 0.01754847
v 0.07257994 -0.08961833 0.01756439
v 0.07096114 -0.08964275 0.01751519
v 0.14349499 -0.08800330 0.01820117
v 0.14341689 -0.08801028 0.01820985
v 0.14349499 -0.08795037 0.01821419
v 0.07096114 -0.08852787 0.01784660
v 0.12404092 -0.08967358 0.01817295
v 0.12654723 -0.08950143 0.01823156
v 0.07096114 -0.08876691 0.01781331
v 0.07535606 -0.08899721 0.01782127
v 0.12969964 -0.08997425 0.01812374
v 0.13355496 -0.08949038 0.01825038
v 0.07490876 -0.08927288 0.01775108
v 0.07216104 -0.08937697 0.01767076
v 0.07536316 -0.08948050 0.01767076
v 0.07096114 -0.08949562 0.01759695
v 0.14349499 -0.08797538 0.01820985
v 0.07096114 -0.08904199 0.01774529
v 0.07299885 -0.08915831 0.01774963
v 0.07096114 -0.08922286 0.01769464
f 1 2 3
f 1 3 10
f 1 10 22
f 1 22 35
f 1 35 59
f 1 59 77
f 1 77 76
f 1 76 115
f 1 115 114
f 1 114 113
f 1 113 111
f 1 111 131
f 1 131 130
f 1 130 147
f 1 147 146
f 1 146 167
f 1 167 166
f 1 166 165
f 1 165 174
f 1 174 173
f 1 173 196
f 1 196 195
f 1 195 194
f 1 194 193
f 1 193 220
f 1 220 234
f 1 234 238
f 1 238 236
f 1 236 227
f 1 227 224
f 1 224 207
f 1 207 186
f 1 186 163
f 1 163 162
f 1 162 161
f 1 161 143
f 1 143 118
f 1 118 117
f 1 117 90
f 1 90 89
f 1 89 88
f 1 88 87
f 1 87 86
f 1 86 85
f 1 85 84
f 1 84 83
f 1 83 82
f 1 82 81
f 1 81 80
f 1 80 78
f 1 78 60
f 1 60 36
f 1 36 23
f 1 23 12
f 1 12 4
f 1 4 13
f 1 13 25
f 1 25 46
f 1 46 64
f 1 64 95
f 1 95 124
f 1 124 97
f 1 97 65
f 1 65 47
f 1 47 26
f 1 26 16
f 1 16 14
f 1 14 5
f 1 5 6
f 1 6 2
f 2 7 8
f 2 8 9
f 2 9 10
f 2 10 11
f 2 11 3
f 2 6 7
f 3 11 10
f 4 12 13
f 5 14 15
f 5 15 6
f 6 15 7
f 7 15 14
f 7 14 16
f 7 16 17
f 7 17 18
f 7 18 8
f 8 18 19
f 8 19 9
f 9 19 20
f 9 20 21
f 9 21 22
f 9 22 10
f 12 23 13
f 13 24 45
f 13 45 25
f 13 23 24
f 16 26 27
f 16 27 17
f 17 27 28
f 17 28 29
f 17 29 30
f 17 30 31
f 17 31 19
f 17 19 18
f 19 32 33
f 19 33 20
f 19 31 34
f 19 34 32
f 20 33 21
f 21 33 22
f 22 33 35
f 23 36 37
f 23 37 38
f 23 38 39
f 23 39 40
f 23 40 41
f 23 41 42
f 23 42 43
f 23 43 44
f 23 44 24
f 24 44 43
f 24 43 42
f 24 42 41
f 24 41 40
f 24 40 39
f 24 39 38
f 24 38 37
f 24 37 61
f 24 61 45
f 25 45 61
f 25 61 79
f 25 79 116
f 25 116 142
f 25 142 160
f 25 160 184
f 25 184 206
f 25 206 223
f 25 223 235
f 25 235 221
f 25 221 203
f 25 203 202
f 25 202 201
f 25 201 200
f 25 200 199
f 25 199 197
f 25 197 179
f 25 179 178
f 25 178 177
f 25 177 176
f 25 176 175
f 25 175 155
f 25 155 154
f 25 154 153
f 25 153 144
f 25 144 120
f 25 120 119
f 25 119 91
f 25 91 62
f 25 62 46
f 26 47 48
f 26 48 49
f 26 49 29
f 26 29 27
f 27 29 28
f 29 49 30
f 30 50 51
f 30 51 52
f 30 52 31
f 30 49 48
f 30 48 53
f 30 53 54
f 30 54 50
f 31 52 34
f 32 55 56
f 32 56 33
f 32 34 57
f 32 57 55
f 33 56 35
f 34 52 57
f 35 56 58
f 35 58 59
f 36 60 37
f 37 60 61
f 46 62 63
f 46 63 64
f 47 65 66
f 47 66 48
f 48 66 67
f 48 67 53
f 50 68 51
f 50 54 68
f 51 69 57
f 51 57 70
f 51 70 52
f 51 68 69
f 52 70 57
f 53 67 54
f 54 67 71
f 54 71 72
f 54 72 68
f 55 73 74
f 55 74 75
f 55 75 56
f 55 57 69
f 55 69 73
f 56 75 76
f 56 76 77
f 56 77 59
f 56 59 58
f 60 78 61
f 61 78 80
f 61 80 81
f 61 81 82
f 61 82 83
f 61 83 84
f 61 84 85
f 61 85 86
f 61 86 87
f 61 87 88
f 61 88 89
f 61 89 90
f 61 90 79
f 62 91 63
f 63 91 92
f 63 92 93
f 63 93 94
f 63 94 64
f 64 94 95
f 65 96 66
f 65 97 96
f 66 96 98
f 66 98 67
f 67 98 99
f 67 99 100
f 67 100 71
f 68 72 101
f 68 101 69
f 69 102 73
f 69 101 103
f 69 103 102
f 71 104 72
f 71 100 105
f 71 105 106
f 71 106 104
f 72 104 107
f 72 107 108
f 72 108 109
f 72 109 101
f 73 110 111
f 73 111 74
f 73 102 110
f 74 111 112
f 74 112 113
f 74 113 114
f 74 114 115
f 74 115 75
f 75 115 76
f 79 90 117
f 79 117 118
f 79 118 116
f 91 119 92
f 92 119 120
f 92 120 121
f 92 121 122
f 92 122 93
f 93 122 99
f 93 99 123
f 93 123 94
f 94 123 124
f 94 124 95
f 96 97 125
f 96 125 98
f 97 124 126
f 97 126 125
f 98 125 123
f 98 123 99
f 99 122 100
f 100 122 105
f 101 109 108
f 101 108 127
f 101 127 103
f 102 128 129
f 102 129 130
f 102 130 131
f 102 131 110
f 102 103 128
f 103 127 132
f 103 132 133
f 103 133 134
f 103 134 128
f 104 106 107
f 105 122 121
f 105 121 135
f 105 135 106
f 106 135 136
f 106 136 107
f 107 136 137
f 107 137 138
f 107 138 139
f 107 139 140
f 107 140 108
f 108 140 139
f 108 139 141
f 108 141 132
f 108 132 127
f 110 131 111
f 111 113 112
f 116 118 143
f 116 143 142
f 120 144 121
f 121 144 135
f 123 125 126
f 123 126 124
f 128 145 129
f 128 134 145
f 129 145 146
f 129 146 147
f 129 147 130
f 132 141 148
f 132 148 149
f 132 149 150
f 132 150 151
f 132 151 133
f 133 151 152
f 133 152 134
f 134 152 145
f 135 144 153
f 135 153 154
f 135 154 155
f 135 155 156
f 135 156 137
f 135 137 136
f 137 156 157
f 137 157 138
f 138 158 139
f 138 157 158
f 139 158 159
f 139 159 148
f 139 148 141
f 142 143 161
f 142 161 162
f 142 162 163
f 142 163 160
f 145 152 164
f 145 164 165
f 145 165 166
f 145 166 167
f 145 167 146
f 148 159 149
f 149 168 150
f 149 159 169
f 149 169 168
f 150 168 151
f 151 168 170
f 151 170 171
f 151 171 172
f 151 172 152
f 152 172 173
f 152 173 174
f 152 174 164
f 155 175 156
f 156 175 176
f 156 176 157
f 157 176 177
f 157 177 178
f 157 178 179
f 157 179 180
f 157 180 158
f 158 180 159
f 159 181 169
f 159 180 182
f 159 182 183
f 159 183 181
f 160 163 185
f 160 185 184
f 163 186 187
f 163 187 185
f 164 174 165
f 168 188 170
f 168 169 181
f 168 181 189
f 168 189 190
f 168 190 191
f 168 191 188
f 170 188 192
f 170 192 171
f 171 192 193
f 171 193 194
f 171 194 195
f 171 195 172
f 172 195 196
f 172 196 173
f 179 197 182
f 179 182 180
f 181 183 198
f 181 198 189
f 182 197 199
f 182 199 183
f 183 199 200
f 183 200 201
f 183 201 202
f 183 202 203
f 183 203 204
f 183 204 198
f 184 205 206
f 184 185 205
f 185 187 205
f 186 207 187
f 187 207 208
f 187 208 209
f 187 209 205
f 188 191 192
f 189 198 204
f 189 204 210
f 189 210 211
f 189 211 212
f 189 212 213
f 189 213 214
f 189 214 215
f 189 215 216
f 189 216 190
f 190 216 217
f 190 217 191
f 191 217 192
f 192 217 218
f 192 218 193
f 193 218 219
f 193 219 220
f 203 221 204
f 204 221 222
f 204 222 210
f 205 209 213
f 205 213 212
f 205 212 211
f 205 211 206
f 206 211 210
f 206 210 223
f 207 224 208
f 208 225 226
f 208 226 209
f 208 224 227
f 208 227 228
f 208 228 225
f 209 226 216
f 209 216 229
f 209 229 230
f 209 230 213
f 210 222 223
f 213 230 214
f 214 230 229
f 214 229 215
f 215 229 216
f 216 226 225
f 216 225 217
f 217 225 231
f 217 231 232
f 217 232 233
f 217 233 219
f 217 219 218
f 219 233 232
f 219 232 234
f 219 234 220
f 221 235 222
f 222 235 223
f 225 228 231
f 227 236 237
f 227 237 231
f 227 231 228
f 231 237 238
f 231 238 232
f 232 238 234
f 236 238 237

