# https://github.com/mikedh/trimesh
v 0.03175441 -0.01478209 -0.01568819
v 0.03175441 -0.01478209 -0.01258611
v 0.03175441 -0.00979438 -0.01570452
v 0.03652050 -0.01478209 -0.01699893
v 0.04276676 -0.01478209 -0.01253183
v 0.03175441 0.00008932 -0.01259229
v 0.03175441 -0.00933143 -0.01570364
v 0.03664878 -0.01478209 -0.01700643
v 0.03175441 0.00008932 -0.01566613
v 0.03940969 0.00009077 -0.01703998
v 0.04276676 -0.01478209 -0.01564185
v 0.04276676 0.00009077 -0.01255831
v 0.03416602 0.00009077 -0.01259053
v 0.03698622 -0.01440503 -0.01700820
v 0.03686440 -0.01478209 -0.01698657
v 0.03416602 0.00009077 -0.01565598
v 0.03951318 0.00009077 -0.01703512
v 0.03943987 -0.00212065 -0.01703291
v 0.03745409 -0.01309332 -0.01699187
v 0.03908196 -0.00584032 -0.01701041
v 0.03937843 -0.00590001 -0.01693185
v 0.03932452 -0.00498138 -0.01698569
v 0.03966627 -0.00132867 -0.01702365
v 0.04276676 -0.01278614 -0.01564141
v 0.04276676 0.00009077 -0.01563259
v 0.03959404 0.00009077 -0.01702673
v 0.03972772 0.00009077 -0.01698657
v 0.04276676 -0.00033142 -0.01563391
f 1 2 6
f 1 6 9
f 1 9 7
f 1 7 3
f 1 3 4
f 1 4 8
f 1 8 15
f 1 15 11
f 1 11 5
f 1 5 2
f 2 5 6
f 3 7 4
f 4 7 9
f 4 9 10
f 4 10 8
f 5 11 24
f 5 24 28
f 5 28 25
f 5 25 12
f 5 12 6
f 6 12 13
f 6 13 16
f 6 16 9
f 8 14 15
f 8 10 14
f 9 16 10
f 10 16 13
f 10 13 12
f 10 12 25
f 10 25 27
f 10 27 26
f 10 26 17
f 10 17 18
f 10 18 14
f 11 15 14
f 11 14 19
f 11 19 20
f 11 20 21
f 11 21 22
f 11 22 23
f 11 23 24
f 14 18 20
f 14 20 19
f 17 26 23
f 17 23 18
f 18 23 20
f 20 23 22
f 20 22 21
f 23 26 27
f 23 27 25
f 23 25 28
f 23 28 24

