# https://github.com/mikedh/trimesh
v -0.15181285 0.04228994 -0.00347180
v -0.15483554 0.04228994 -0.00347180
v -0.15181285 0.03832001 -0.00347180
v -0.15181285 0.04369705 -0.00347259
v -0.15371204 0.04808281 -0.00347259
v -0.15185548 0.03832001 -0.00347180
v -0.15584574 0.04808281 -0.00347259
v -0.15584495 0.04740984 -0.00347259
v -0.15581297 0.04520454 -0.00347259
v -0.15580429 0.04502387 -0.00347259
v -0.15557217 0.04328219 -0.00347259
v -0.15553151 0.04314358 -0.00347259
v -0.15537518 0.04281187 -0.00347259
v -0.15532702 0.04272680 -0.00347259
v -0.15181285 0.03832001 -0.00407951
v -0.15181285 0.04808473 -0.01132543
v -0.15356125 0.04808473 -0.00710226
v -0.15561875 0.04808473 -0.00670764
v -0.15577903 0.04808473 -0.00670764
v -0.15577863 0.04755323 -0.00670764
v -0.15577389 0.04722153 -0.00670764
v -0.15577271 0.04719285 -0.00670764
v -0.15574073 0.04646731 -0.00670764
v -0.15560375 0.04808473 -0.01153379
v -0.15555164 0.04770427 -0.01153379
v -0.15553151 0.04365882 -0.00451358
v -0.15523544 0.04673974 -0.01153379
v -0.15519636 0.04668717 -0.01153379
v -0.15181285 0.04122505 -0.00870440
v -0.15487778 0.04630193 -0.01153379
v -0.15181285 0.04808473 -0.01153379
v -0.15577271 0.04808473 -0.00698466
v -0.15576639 0.04757904 -0.00728220
v -0.15569296 0.04808473 -0.00970356
v -0.15566849 0.04808473 -0.01032311
v -0.15542453 0.04711733 -0.01153379
v -0.15181363 0.04351161 -0.01153379
v -0.15181285 0.04292371 -0.01041308
v -0.15181285 0.04531638 -0.01153379
f 1 2 6
f 1 6 3
f 1 3 15
f 1 15 29
f 1 29 38
f 1 38 39
f 1 39 31
f 1 31 16
f 1 16 4
f 1 4 5
f 1 5 7
f 1 7 2
f 2 7 8
f 2 8 9
f 2 9 10
f 2 10 11
f 2 11 12
f 2 12 13
f 2 13 14
f 2 14 6
f 3 6 15
f 4 16 5
f 5 16 17
f 5 17 18
f 5 18 19
f 5 19 7
f 6 14 15
f 7 19 20
f 7 20 8
f 8 20 21
f 8 21 9
f 9 21 22
f 9 22 23
f 9 23 10
f 10 23 24
f 10 24 11
f 11 24 25
f 11 25 26
f 11 26 12
f 12 26 13
f 13 26 27
f 13 27 14
f 14 27 28
f 14 28 15
f 15 28 30
f 15 30 29
f 16 31 24
f 16 24 35
f 16 35 34
f 16 34 32
f 16 32 19
f 16 19 18
f 16 18 17
f 19 32 33
f 19 33 20
f 20 33 21
f 21 33 22
f 22 33 34
f 22 34 35
f 22 35 23
f 23 35 24
f 24 31 39
f 24 39 37
f 24 37 30
f 24 30 28
f 24 28 27
f 24 27 36
f 24 36 25
f 25 36 26
f 26 36 27
f 29 37 38
f 29 30 37
f 32 34 33
f 37 39 38

