# https://github.com/mikedh/trimesh
v 0.14889445 0.07923961 -0.01511685
v 0.14934660 0.07923961 -0.01511685
v 0.14934660 0.07866508 -0.01511685
v 0.14537529 0.07685660 -0.01373550
v 0.14537529 0.07923961 -0.01346099
v 0.14934660 0.07923961 -0.01121137
v 0.14934660 0.07686407 -0.01329505
v 0.14537529 0.07685660 -0.01121137
v 0.14920936 0.07685660 -0.01328588
v 0.14537529 0.07923961 -0.01121137
v 0.14934660 0.07685660 -0.01121137
v 0.14934660 0.07685660 -0.01268601
f 1 2 3
f 1 3 4
f 1 4 5
f 1 5 10
f 1 10 6
f 1 6 2
f 2 6 11
f 2 11 12
f 2 12 7
f 2 7 3
f 3 7 4
f 4 8 10
f 4 10 5
f 4 7 9
f 4 9 12
f 4 12 11
f 4 11 8
f 6 10 8
f 6 8 11
f 7 12 9

