# https://github.com/mikedh/trimesh
v -0.09598852 -0.02852392 -0.01223609
v -0.09598852 -0.02852392 -0.01538558
v -0.09778452 -0.02852392 -0.01220048
v -0.09727402 -0.03488187 -0.01211453
v -0.09598852 -0.03441742 -0.01215528
v -0.09598852 -0.02853502 -0.01542016
v -0.09608078 -0.02852392 -0.01541948
v -0.10315716 -0.02852392 -0.01213405
v -0.10350160 -0.03225431 -0.01203680
v -0.09693881 -0.03771297 -0.01210083
v -0.10257899 -0.03707828 -0.01199400
v -0.09598852 -0.03675817 -0.01213610
v -0.09598852 -0.04014439 -0.01540612
v -0.09817202 -0.02852392 -0.01539722
v -0.12740014 -0.04742382 -0.01507878
v -0.12740014 -0.04644127 -0.01507981
v -0.12525048 -0.02852392 -0.01193785
v -0.10628479 -0.03416947 -0.01199914
v -0.12740014 -0.02852392 -0.01192278
v -0.09598852 -0.04178938 -0.01215254
v -0.09598852 -0.03871588 -0.01213473
v -0.10137653 -0.04078647 -0.01201010
v -0.09878093 -0.04257765 -0.01207584
v -0.12740014 -0.03160667 -0.01192210
v -0.10606337 -0.04175423 -0.01198715
v -0.09598852 -0.04742382 -0.01538387
v -0.12740014 -0.02853132 -0.01507707
v -0.12665284 -0.02852392 -0.01508494
v -0.12740014 -0.04742382 -0.01194504
v -0.12740014 -0.02852392 -0.01482882
v -0.09598852 -0.04742382 -0.01221691
v -0.10315101 -0.04346954 -0.01202790
v -0.09746776 -0.04742382 -0.01219260
v -0.12740014 -0.03370687 -0.01192381
v -0.12141244 -0.04742382 -0.01197722
v -0.12713875 -0.02852392 -0.01507946
v -0.10168714 -0.04742382 -0.01213473
v -0.10743498 -0.04742382 -0.01208337
f 1 2 7
f 1 7 14
f 1 14 28
f 1 28 36
f 1 36 30
f 1 30 19
f 1 19 17
f 1 17 8
f 1 8 3
f 1 3 4
f 1 4 5
f 1 5 12
f 1 12 21
f 1 21 20
f 1 20 31
f 1 31 26
f 1 26 13
f 1 13 6
f 1 6 2
f 2 6 7
f 3 8 9
f 3 9 4
f 4 10 5
f 4 9 11
f 4 11 10
f 5 10 12
f 6 13 7
f 7 13 15
f 7 15 16
f 7 16 14
f 8 17 9
f 9 18 11
f 9 17 19
f 9 19 18
f 10 20 21
f 10 21 12
f 10 11 22
f 10 22 23
f 10 23 20
f 11 18 19
f 11 19 24
f 11 24 25
f 11 25 22
f 13 26 15
f 14 16 27
f 14 27 28
f 15 29 34
f 15 34 24
f 15 24 19
f 15 19 30
f 15 30 27
f 15 27 16
f 15 26 31
f 15 31 33
f 15 33 37
f 15 37 38
f 15 38 35
f 15 35 29
f 20 23 31
f 22 25 32
f 22 32 23
f 23 32 33
f 23 33 31
f 24 34 25
f 25 34 29
f 25 29 35
f 25 35 32
f 27 30 36
f 27 36 28
f 32 37 33
f 32 35 38
f 32 38 37

