# https://github.com/mikedh/trimesh
v -0.06052091 -0.01910908 -0.01568776
v -0.06052091 -0.01910908 -0.01256175
v -0.06052091 -0.01628119 -0.01568253
v -0.06051556 -0.03262526 -0.01702762
v -0.06051556 -0.04742514 -0.01569109
v -0.06052091 0.00008612 -0.01251136
v -0.06051556 -0.04742514 -0.01248950
v -0.06052091 -0.00992776 -0.01566780
v -0.06044341 -0.03258805 -0.01702904
v -0.03322147 -0.04742514 -0.01579660
v -0.04160238 -0.04742514 -0.01577664
v -0.05454256 -0.04742514 -0.01572816
v -0.05621019 -0.04742514 -0.01571961
v -0.05731660 -0.04742514 -0.01571343
v -0.06052091 -0.00912311 -0.01566542
v -0.06052091 0.00008612 -0.01561742
v -0.03948845 0.00008612 -0.01700766
v -0.03361699 0.00007217 -0.01255699
v -0.04136987 0.00008612 -0.01255509
v -0.03361699 0.00009077 -0.01259644
v -0.03700571 0.00009077 -0.01508033
v -0.05579863 -0.03663918 -0.01239824
v -0.05224956 -0.03909497 -0.01234549
v -0.05073694 -0.03543454 -0.01236355
v -0.05085453 -0.04742514 -0.01251374
v -0.04986036 -0.04322052 -0.01240205
v -0.05209991 -0.04261122 -0.01238208
v -0.05517594 -0.04099263 -0.01238493
v -0.05954812 -0.03208107 -0.01704283
v -0.03947241 -0.00033248 -0.01701621
v -0.03322147 -0.04584841 -0.01580136
v -0.03322147 -0.04742514 -0.01259264
v -0.05386642 -0.02882994 -0.01709891
v -0.03457909 -0.01966721 -0.01718827
v -0.03395640 -0.02062070 -0.01711935
v -0.03395640 -0.02034628 -0.01712458
v -0.03700571 0.00009077 -0.01573006
v -0.03361699 0.00009077 -0.01562265
v -0.03933879 0.00008612 -0.01698294
v -0.03475013 -0.01901141 -0.01719302
v -0.03322681 -0.02516020 -0.01264492
v -0.03700571 0.00008147 -0.01255984
v -0.04686451 -0.03844846 -0.01239824
v -0.03526325 -0.01863001 -0.01720110
v -0.03322147 -0.04297866 -0.01580944
v -0.03322147 -0.02965319 -0.01264302
v -0.03395640 -0.01993698 -0.01709939
v -0.03322681 -0.02516020 -0.01580896
v -0.03322147 -0.03521593 -0.01580516
v -0.03929335 0.00008612 -0.01697343
v -0.03322147 -0.02965319 -0.01577854
f 1 2 6
f 1 6 16
f 1 16 15
f 1 15 8
f 1 8 3
f 1 3 4
f 1 4 5
f 1 5 7
f 1 7 2
f 2 7 6
f 3 8 4
f 4 9 10
f 4 10 11
f 4 11 12
f 4 12 13
f 4 13 14
f 4 14 5
f 4 8 15
f 4 15 16
f 4 16 17
f 4 17 9
f 5 14 13
f 5 13 12
f 5 12 11
f 5 11 10
f 5 10 32
f 5 32 25
f 5 25 7
f 6 18 19
f 6 19 20
f 6 20 21
f 6 21 37
f 6 37 16
f 6 7 22
f 6 22 23
f 6 23 24
f 6 24 18
f 7 25 26
f 7 26 27
f 7 27 28
f 7 28 22
f 9 29 10
f 9 17 30
f 9 30 29
f 10 31 45
f 10 45 49
f 10 49 51
f 10 51 46
f 10 46 32
f 10 29 33
f 10 33 34
f 10 34 35
f 10 35 36
f 10 36 31
f 16 37 17
f 17 37 38
f 17 38 39
f 17 39 40
f 17 40 30
f 18 41 20
f 18 20 42
f 18 42 19
f 18 24 23
f 18 23 43
f 18 43 32
f 18 32 41
f 19 42 20
f 20 38 37
f 20 37 21
f 20 41 48
f 20 48 38
f 22 28 23
f 23 28 27
f 23 27 26
f 23 26 32
f 23 32 43
f 25 32 26
f 29 30 33
f 30 40 44
f 30 44 33
f 31 36 45
f 32 46 41
f 33 44 34
f 34 44 40
f 34 40 36
f 34 36 35
f 36 40 39
f 36 39 47
f 36 47 38
f 36 38 48
f 36 48 49
f 36 49 45
f 38 47 50
f 38 50 39
f 39 50 47
f 41 46 51
f 41 51 48
f 48 51 49

