# https://github.com/mikedh/trimesh
v -0.09542171 0.05048205 -0.01636852
v -0.09532503 0.05006632 -0.01631945
v -0.09619953 0.05082369 -0.01634310
v -0.09866925 0.05226506 -0.01627261
v -0.09857037 0.05226506 -0.01626994
v -0.09607210 0.05108514 -0.01631589
v -0.08501551 0.05185041 -0.01509806
v -0.09128647 0.04859151 -0.01629893
v -0.09149521 0.04859151 -0.01631856
v -0.09181601 0.04859151 -0.01632213
v -0.09188852 0.04859151 -0.01631767
v -0.10746047 0.04902090 -0.01496066
v -0.09830231 0.05176302 -0.01625789
v -0.09875715 0.05226506 -0.01626592
v -0.09848469 0.05226506 -0.01626325
v -0.09700593 0.05185005 -0.01623247
v -0.08501551 0.05185041 -0.01199550
v -0.08501551 0.04859151 -0.01514401
v -0.09091074 0.04859151 -0.01625299
v -0.09242905 0.04859151 -0.01625968
v -0.10746047 0.04902090 -0.01181260
v -0.10746047 0.05226506 -0.01493345
v -0.09960968 0.05226506 -0.01615975
v -0.09924274 0.05226506 -0.01621373
v -0.09260482 0.04859151 -0.01623514
v -0.09298935 0.04859151 -0.01617180
v -0.09848469 0.04859151 -0.01501598
v -0.09848469 0.05226506 -0.01192190
v -0.10707815 0.04902090 -0.01181483
v -0.08501551 0.05049571 -0.01200041
v -0.10746047 0.05226506 -0.01181751
v -0.10746047 0.04983329 -0.01181171
v -0.08501551 0.04859151 -0.01202405
v -0.09848469 0.04859151 -0.01192368
f 1 2 3
f 1 3 4
f 1 4 5
f 1 5 6
f 1 6 7
f 1 7 8
f 1 8 9
f 1 9 10
f 1 10 2
f 2 10 11
f 2 11 12
f 2 12 3
f 3 12 13
f 3 13 14
f 3 14 4
f 4 14 24
f 4 24 23
f 4 23 22
f 4 22 31
f 4 31 28
f 4 28 15
f 4 15 5
f 5 15 6
f 6 15 16
f 6 16 7
f 7 17 30
f 7 30 33
f 7 33 18
f 7 18 19
f 7 19 8
f 7 16 15
f 7 15 28
f 7 28 17
f 8 19 18
f 8 18 33
f 8 33 34
f 8 34 27
f 8 27 26
f 8 26 25
f 8 25 20
f 8 20 11
f 8 11 10
f 8 10 9
f 11 20 12
f 12 21 32
f 12 32 31
f 12 31 22
f 12 22 23
f 12 23 24
f 12 24 13
f 12 20 25
f 12 25 26
f 12 26 27
f 12 27 34
f 12 34 21
f 13 24 14
f 17 29 30
f 17 28 31
f 17 31 32
f 17 32 29
f 21 29 32
f 21 34 29
f 29 34 33
f 29 33 30

