# https://github.com/mikedh/trimesh
v -0.13326447 0.02060238 -0.01492077
v -0.13324830 0.02060238 -0.01492111
v -0.13326447 0.02060238 -0.01174921
v -0.13326447 0.04310579 -0.01482707
v -0.11504449 0.02060238 -0.01505235
v -0.12646185 0.02060238 -0.01179048
v -0.13326447 0.02999690 -0.01170050
v -0.13326447 0.05758675 -0.01476652
v -0.11504449 0.02857053 -0.01501751
v -0.11491696 0.04161787 -0.01494513
v -0.11504449 0.02060238 -0.01189399
v -0.12049989 0.02060238 -0.01184325
v -0.11504449 0.03463805 -0.01180401
v -0.13326447 0.04728355 -0.01161797
v -0.13326447 0.05758675 -0.01159666
v -0.11491696 0.05758675 -0.01486834
v -0.11491696 0.05052367 -0.01490352
v -0.11491696 0.04161787 -0.01179792
v -0.12034900 0.02060238 -0.01184460
v -0.11491696 0.05140701 -0.01175868
v -0.11491696 0.05196814 -0.01175665
v -0.12535532 0.05273201 -0.01165822
v -0.12807134 0.05758675 -0.01162372
v -0.13326447 0.05343434 -0.01160511
v -0.11491696 0.05758675 -0.01175361
v -0.12447513 0.05758675 -0.01165653
f 1 2 5
f 1 5 11
f 1 11 19
f 1 19 12
f 1 12 6
f 1 6 3
f 1 3 7
f 1 7 14
f 1 14 24
f 1 24 15
f 1 15 8
f 1 8 4
f 1 4 2
f 2 4 5
f 3 6 7
f 4 8 5
f 5 9 10
f 5 10 18
f 5 18 11
f 5 8 9
f 6 12 13
f 6 13 14
f 6 14 7
f 8 15 23
f 8 23 26
f 8 26 25
f 8 25 16
f 8 16 9
f 9 16 17
f 9 17 10
f 10 17 16
f 10 16 25
f 10 25 21
f 10 21 20
f 10 20 18
f 11 18 13
f 11 13 19
f 12 19 13
f 13 18 20
f 13 20 21
f 13 21 22
f 13 22 14
f 14 22 23
f 14 23 24
f 15 24 23
f 21 25 26
f 21 26 22
f 22 26 23

