# https://github.com/mikedh/trimesh
v 0.03470769 -0.02615685 -0.01252163
v 0.03457500 -0.02615685 -0.01252299
v 0.03470769 -0.02615685 -0.01567295
v 0.03470769 -0.01478362 -0.01258771
v 0.03464728 -0.01478362 -0.01258726
v 0.03325880 -0.01478362 -0.01258364
v 0.03175441 -0.01478362 -0.01258590
v 0.03175441 -0.02615685 -0.01255331
v 0.03175441 -0.02615685 -0.01611693
v 0.03175441 -0.02504347 -0.01662065
v 0.03175441 -0.02431754 -0.01694153
v 0.03175441 -0.02404254 -0.01702752
v 0.03470769 -0.01965023 -0.01712754
v 0.03470769 -0.01478362 -0.01613684
v 0.03175441 -0.01478362 -0.01568788
v 0.03175441 -0.02368514 -0.01710355
v 0.03470769 -0.01950103 -0.01714519
v 0.03175441 -0.02362056 -0.01711215
v 0.03470769 -0.01770069 -0.01685735
v 0.03470769 -0.01839210 -0.01701394
v 0.03470769 -0.01897886 -0.01713116
v 0.03469671 -0.01900892 -0.01713387
v 0.03467532 -0.01906904 -0.01713885
v 0.03175441 -0.02329879 -0.01710219
v 0.03470769 -0.01905568 -0.01714021
f 1 2 8
f 1 8 9
f 1 9 3
f 1 3 13
f 1 13 17
f 1 17 25
f 1 25 21
f 1 21 20
f 1 20 19
f 1 19 14
f 1 14 4
f 1 4 5
f 1 5 6
f 1 6 7
f 1 7 2
f 2 7 8
f 3 9 10
f 3 10 11
f 3 11 12
f 3 12 13
f 4 14 15
f 4 15 7
f 4 7 6
f 4 6 5
f 7 15 24
f 7 24 18
f 7 18 16
f 7 16 12
f 7 12 11
f 7 11 10
f 7 10 9
f 7 9 8
f 12 16 13
f 13 16 18
f 13 18 17
f 14 19 15
f 15 19 20
f 15 20 21
f 15 21 22
f 15 22 23
f 15 23 24
f 17 18 25
f 18 24 23
f 18 23 25
f 21 25 22
f 22 25 23

