# https://github.com/mikedh/trimesh
v 0.15266782 -0.03393705 0.00278837
v 0.15133212 -0.03345355 0.00186160
v 0.15190817 -0.03530863 0.00217649
v 0.15266782 -0.03443536 0.00276149
v 0.15300816 -0.04021274 0.00195248
v 0.15266782 -0.02961019 0.00278325
v 0.15093098 -0.03437615 0.00141869
v 0.15096532 -0.03437615 0.00145197
v 0.15141345 -0.03437615 0.00185007
v 0.15266782 -0.02676837 0.00277813
v 0.15146557 -0.02826822 0.00194096
v 0.15117775 -0.02356639 0.00168110
v 0.15101113 -0.03263949 0.00159534
v 0.15162350 -0.03671473 0.00181679
v 0.15266782 -0.03679367 0.00258100
v 0.15266782 -0.03622630 0.00264116
v 0.15266782 -0.03781002 0.00242611
v 0.15266782 -0.03802710 0.00239027
v 0.15266782 -0.03856981 0.00229554
v 0.15266782 -0.03892010 0.00219314
v 0.15266782 -0.03978350 0.00187184
v 0.15265992 -0.04019793 0.00166446
v 0.15176208 -0.04036075 0.00080169
v 0.15300816 -0.04111561 0.00140973
v 0.15361264 -0.04681898 -0.00563454
v 0.15266782 0.00008584 0.00237363
v 0.15266782 -0.00338256 0.00249523
v 0.15266782 -0.00466533 0.00253108
v 0.15266782 -0.00645133 0.00257332
v 0.15266782 -0.01535175 0.00271157
v 0.15266782 -0.02469127 0.00276661
v 0.15092663 -0.03447483 0.00140717
v 0.15071777 -0.03257041 0.00125740
v 0.15173721 -0.02085284 0.00208817
v 0.15178775 -0.01559350 0.00208561
v 0.15133726 -0.00342203 0.00164014
v 0.15106758 -0.01501626 0.00150701
v 0.15092743 -0.02043348 0.00142637
v 0.15086465 -0.03021210 0.00143149
v 0.15075370 -0.03199317 0.00130220
v 0.15104942 -0.03658153 0.00130988
v 0.15158363 -0.03818005 0.00153134
v 0.15249093 -0.03781002 0.00229298
v 0.15178183 -0.03913225 0.00141229
v 0.15151611 -0.04138203 -0.00024157
v 0.15168865 -0.04019793 0.00081449
v 0.15156625 -0.04019793 0.00067496
v 0.15300816 -0.04200861 0.00066472
v 0.15300816 -0.04296575 -0.00032094
v 0.15361264 -0.05030712 -0.01025690
v 0.15361264 -0.04681898 -0.01028890
v 0.15205623 0.00008584 0.00200752
v 0.15266782 0.00008584 -0.00087905
v 0.15071619 -0.03547144 0.00105515
v 0.15054681 -0.02244643 0.00097066
v 0.15050219 -0.03317726 0.00090538
v 0.15096059 -0.00392034 0.00130988
v 0.15173129 0.00008584 0.00179759
v 0.15120538 0.00008584 0.00143789
v 0.15074856 -0.01497679 0.00117419
v 0.15079673 -0.03755347 0.00082089
v 0.15107391 -0.03781002 0.00111019
v 0.15105298 -0.03868329 0.00084521
v 0.15128909 -0.03930987 0.00087594
v 0.15117932 -0.04019793 0.00019237
v 0.15088202 -0.04082945 -0.00070752
v 0.15129342 -0.04207768 -0.00125283
v 0.15106048 -0.03977857 0.00034342
v 0.15135739 -0.04298549 -0.00236906
v 0.15165469 -0.04315323 -0.00222569
v 0.15218771 -0.04344432 -0.00197480
v 0.15300816 -0.04315323 -0.00058079
v 0.15358618 -0.05030712 -0.01028890
v 0.15358973 -0.05030712 -0.01028506
v 0.15361264 -0.05030218 -0.01028890
v 0.15175260 0.00008584 -0.01028890
v 0.15043507 -0.03520502 0.00061096
v 0.15033321 -0.02283126 0.00057640
v 0.15062143 -0.00651054 0.00093482
v 0.15048838 -0.01461170 0.00079913
v 0.15029333 -0.03303912 0.00046631
v 0.15102574 0.00008584 0.00127148
v 0.15088044 0.00008584 0.00113067
v 0.15083464 -0.00181364 0.00112299
v 0.15052707 -0.03754853 0.00033062
v 0.15080226 -0.03781002 0.00075433
v 0.15085359 -0.03781002 0.00082601
v 0.15082437 -0.03877209 0.00049191
v 0.15098862 -0.04019793 -0.00007644
v 0.15062301 -0.04099227 -0.00136804
v 0.15078607 -0.04019793 -0.00039262
v 0.15069606 -0.04019793 -0.00057567
v 0.15092663 -0.04278320 -0.00292845
v 0.15072962 -0.03982791 -0.00021213
v 0.15078647 -0.04651309 -0.01028890
v 0.14973624 0.00008584 -0.01028890
v 0.15012869 -0.03378904 -0.00002268
v 0.15017844 -0.03600921 -0.00024925
v 0.15012987 -0.02265858 0.00004517
v 0.15032057 -0.00490708 0.00039463
v 0.15058905 -0.00047167 0.00076713
v 0.15068658 0.00008584 0.00087978
v 0.15044099 -0.03781002 0.00004005
v 0.15053931 -0.03781002 0.00027046
v 0.15058945 -0.03781002 0.00036391
v 0.15059340 -0.03893490 0.00000676
v 0.15042599 -0.04104160 -0.00193511
v 0.15041375 -0.04019793 -0.00117603
v 0.15051562 -0.04226023 -0.00333296
v 0.15044416 -0.04598025 -0.01028890
v 0.15040112 -0.04014860 -0.00116451
v 0.15036321 -0.03918653 -0.00066528
v 0.14961462 -0.01528268 -0.01028890
v 0.14970307 -0.00523764 -0.00650883
v 0.14975360 0.00008584 -0.00637570
v 0.14998261 -0.03438602 -0.00070496
v 0.15003551 -0.02581616 -0.00026589
v 0.15013303 -0.03828366 -0.00110818
v 0.15035413 -0.03807150 -0.00025693
v 0.15010698 -0.01532215 -0.00008156
v 0.15057997 0.00008584 0.00073897
v 0.15027596 0.00008584 0.00019365
v 0.15011803 0.00008584 -0.00023261
v 0.15040270 -0.04019793 -0.00120547
v 0.15018752 -0.04058276 -0.00229994
v 0.15020884 -0.04161391 -0.00353777
v 0.15032176 -0.04260066 -0.00475384
v 0.15000867 -0.04469255 -0.01028890
v 0.15015593 -0.03964043 -0.00164070
v 0.15037782 -0.04019793 -0.00128995
v 0.14957948 -0.02552507 -0.01028890
v 0.14977453 0.00008584 -0.00378739
v 0.14985113 -0.03449950 -0.00186855
v 0.14996050 -0.03763734 -0.00204776
v 0.14994115 -0.02469127 -0.00074080
v 0.14999761 -0.02131168 -0.00046174
v 0.14995813 -0.03781002 -0.00214249
v 0.14993286 -0.03982791 -0.00326127
v 0.15009236 0.00008584 -0.00030814
v 0.15006987 0.00008584 -0.00038494
v 0.14996918 -0.04055316 -0.00361073
v 0.15004578 -0.04128829 -0.00405236
v 0.15004183 -0.04019793 -0.00284397
v 0.14971846 -0.04249211 -0.01028890
v 0.14995813 -0.04019793 -0.00339312
v 0.14977295 -0.02539186 -0.00276844
v 0.14958343 -0.04017820 -0.01028890
v 0.14980375 -0.00230208 -0.00256875
v 0.14981520 0.00008584 -0.00253163
v 0.14990246 -0.02118340 -0.00109794
v 0.14983691 -0.02290527 -0.00184679
v 0.14988192 -0.03833793 -0.00333040
v 0.14997155 -0.01586486 -0.00066016
v 0.14992732 0.00008584 -0.00109154
v 0.15001853 -0.00367858 -0.00055391
v 0.14994628 -0.04010420 -0.00339568
v 0.14987008 -0.01468570 -0.00144100
v 0.14992141 0.00008584 -0.00114787
v 0.14992614 -0.00015098 -0.00109922
f 1 2 3
f 1 3 4
f 1 4 5
f 1 5 6
f 1 6 2
f 2 7 8
f 2 8 9
f 2 9 3
f 2 6 10
f 2 10 11
f 2 11 12
f 2 12 13
f 2 13 7
f 3 14 15
f 3 15 16
f 3 16 4
f 3 9 14
f 4 16 5
f 5 17 18
f 5 18 19
f 5 19 20
f 5 20 21
f 5 21 22
f 5 22 23
f 5 23 24
f 5 24 25
f 5 25 26
f 5 26 27
f 5 27 28
f 5 28 29
f 5 29 30
f 5 30 31
f 5 31 10
f 5 10 6
f 5 16 15
f 5 15 17
f 7 32 8
f 7 13 33
f 7 33 32
f 8 32 14
f 8 14 9
f 10 31 11
f 11 31 30
f 11 30 34
f 11 34 35
f 11 35 36
f 11 36 12
f 12 36 37
f 12 37 38
f 12 38 13
f 13 38 39
f 13 39 40
f 13 40 33
f 14 32 41
f 14 41 42
f 14 42 43
f 14 43 17
f 14 17 15
f 17 43 18
f 18 43 19
f 19 43 42
f 19 42 20
f 20 42 44
f 20 44 21
f 21 44 23
f 21 23 22
f 23 45 24
f 23 44 46
f 23 46 47
f 23 47 45
f 24 45 48
f 24 48 25
f 25 48 49
f 25 49 50
f 25 50 75
f 25 75 51
f 25 51 53
f 25 53 26
f 26 52 27
f 26 53 76
f 26 76 96
f 26 96 115
f 26 115 132
f 26 132 149
f 26 149 158
f 26 158 154
f 26 154 140
f 26 140 139
f 26 139 123
f 26 123 122
f 26 122 121
f 26 121 102
f 26 102 83
f 26 83 82
f 26 82 59
f 26 59 58
f 26 58 52
f 27 52 28
f 28 52 36
f 28 36 29
f 29 36 30
f 30 36 35
f 30 35 34
f 32 54 41
f 32 33 54
f 33 40 55
f 33 55 56
f 33 56 54
f 36 57 37
f 36 52 58
f 36 58 59
f 36 59 57
f 37 57 38
f 38 57 60
f 38 60 39
f 39 55 40
f 39 60 55
f 41 54 61
f 41 61 62
f 41 62 42
f 42 63 64
f 42 64 44
f 42 62 63
f 44 64 46
f 45 47 65
f 45 65 66
f 45 66 67
f 45 67 49
f 45 49 48
f 46 64 68
f 46 68 47
f 47 68 65
f 49 69 70
f 49 70 71
f 49 71 72
f 49 72 50
f 49 67 69
f 50 73 74
f 50 74 75
f 50 72 71
f 50 71 73
f 51 76 53
f 51 75 73
f 51 73 95
f 51 95 110
f 51 110 128
f 51 128 144
f 51 144 147
f 51 147 131
f 51 131 113
f 51 113 96
f 51 96 76
f 54 77 61
f 54 56 77
f 55 78 56
f 55 60 79
f 55 79 80
f 55 80 78
f 56 78 81
f 56 81 77
f 57 59 82
f 57 82 83
f 57 83 84
f 57 84 79
f 57 79 60
f 61 77 85
f 61 85 86
f 61 86 87
f 61 87 62
f 62 87 63
f 63 87 86
f 63 86 88
f 63 88 64
f 64 88 68
f 65 68 89
f 65 89 66
f 66 90 67
f 66 89 91
f 66 91 92
f 66 92 90
f 67 93 69
f 67 90 93
f 68 94 91
f 68 91 89
f 68 88 94
f 69 93 73
f 69 73 70
f 70 73 71
f 73 75 74
f 73 93 95
f 77 97 98
f 77 98 85
f 77 81 97
f 78 99 81
f 78 80 100
f 78 100 99
f 79 84 101
f 79 101 100
f 79 100 80
f 81 99 97
f 83 102 84
f 84 102 101
f 85 98 103
f 85 103 104
f 85 104 105
f 85 105 86
f 86 105 88
f 88 106 94
f 88 105 104
f 88 104 106
f 90 107 93
f 90 92 108
f 90 108 107
f 91 94 92
f 92 94 108
f 93 107 109
f 93 109 110
f 93 110 95
f 94 111 108
f 94 106 112
f 94 112 111
f 96 113 114
f 96 114 115
f 97 116 98
f 97 99 117
f 97 117 116
f 98 116 118
f 98 118 119
f 98 119 103
f 99 100 120
f 99 120 117
f 100 101 121
f 100 121 122
f 100 122 123
f 100 123 120
f 101 102 121
f 103 119 106
f 103 106 104
f 106 119 112
f 107 108 124
f 107 124 125
f 107 125 126
f 107 126 109
f 108 111 124
f 109 126 127
f 109 127 110
f 110 127 126
f 110 126 128
f 111 112 129
f 111 129 130
f 111 130 124
f 112 119 118
f 112 118 129
f 113 131 114
f 114 132 115
f 114 131 132
f 116 133 134
f 116 134 118
f 116 117 135
f 116 135 133
f 117 120 136
f 117 136 135
f 118 137 138
f 118 138 129
f 118 134 137
f 120 123 139
f 120 139 140
f 120 140 136
f 124 130 125
f 125 141 142
f 125 142 126
f 125 130 129
f 125 129 143
f 125 143 141
f 126 142 128
f 128 142 141
f 128 141 144
f 129 138 145
f 129 145 143
f 131 146 132
f 131 147 146
f 132 146 148
f 132 148 149
f 133 135 150
f 133 150 151
f 133 151 146
f 133 146 147
f 133 147 152
f 133 152 138
f 133 138 137
f 133 137 134
f 135 136 153
f 135 153 154
f 135 154 150
f 136 140 155
f 136 155 153
f 138 152 147
f 138 147 144
f 138 144 156
f 138 156 145
f 140 154 155
f 141 143 145
f 141 145 156
f 141 156 144
f 146 151 157
f 146 157 148
f 148 157 158
f 148 158 149
f 150 154 159
f 150 159 157
f 150 157 151
f 153 155 154
f 154 158 159
f 157 159 158

