# https://github.com/mikedh/trimesh
v 0.00002351 -0.06460281 -0.01235015
v 0.00002561 -0.07357675 -0.01203143
v 0.00002561 -0.07268536 -0.01206464
v 0.00002351 -0.06460281 -0.01558730
v -0.00263324 -0.06460281 -0.01229862
v 0.00002561 -0.08156287 -0.01176272
v 0.00002561 -0.07268536 -0.01539073
v 0.00002351 -0.06945452 -0.01548959
v -0.01532730 -0.06573797 -0.01558463
v -0.01963351 -0.06460281 -0.01560867
v -0.00602658 -0.06460281 -0.01230244
v 0.00002561 -0.08318557 -0.01170967
v 0.00002561 -0.08110990 -0.01513423
v 0.00002351 -0.07268536 -0.01539111
v -0.00001846 -0.06947271 -0.01548920
v -0.02141307 -0.07268536 -0.01543767
v -0.02129975 -0.07016036 -0.01549531
v -0.02129975 -0.06519040 -0.01559722
v -0.02129975 -0.06460281 -0.01560906
v -0.02129975 -0.06460281 -0.01233870
v 0.00002561 -0.08318557 -0.01500102
v -0.01145760 -0.08318557 -0.01173715
v 0.00002561 -0.08267075 -0.01503690
v -0.00371819 -0.08318557 -0.01504224
v -0.01028871 -0.08318557 -0.01507125
v -0.00234154 -0.08111536 -0.01514224
v -0.00664145 -0.07961637 -0.01520370
v -0.00066062 -0.07268536 -0.01539378
v -0.01195285 -0.07430987 -0.01538004
v -0.02141307 -0.07272901 -0.01543653
v -0.02141307 -0.07268536 -0.01213907
v -0.02141307 -0.08098983 -0.01186387
v -0.02141307 -0.08318557 -0.01179211
v -0.01961672 -0.08318557 -0.01177532
v -0.01550358 -0.08318557 -0.01175432
v -0.01235577 -0.08318557 -0.01174058
v -0.01962511 -0.08318557 -0.01509377
v -0.02023998 -0.08046046 -0.01521133
v -0.02141307 -0.08050412 -0.01521171
v -0.02141307 -0.08318557 -0.01509262
f 1 2 3
f 1 3 7
f 1 7 4
f 1 4 10
f 1 10 19
f 1 19 20
f 1 20 11
f 1 11 5
f 1 5 2
f 2 6 12
f 2 12 21
f 2 21 23
f 2 23 13
f 2 13 7
f 2 7 3
f 2 5 6
f 4 7 8
f 4 8 9
f 4 9 10
f 5 11 12
f 5 12 6
f 7 13 8
f 8 13 14
f 8 14 15
f 8 15 16
f 8 16 17
f 8 17 9
f 9 17 18
f 9 18 10
f 10 18 19
f 11 20 12
f 12 20 22
f 12 22 36
f 12 36 35
f 12 35 34
f 12 34 33
f 12 33 40
f 12 40 37
f 12 37 25
f 12 25 24
f 12 24 21
f 13 23 24
f 13 24 25
f 13 25 26
f 13 26 27
f 13 27 28
f 13 28 14
f 14 28 15
f 15 28 27
f 15 27 29
f 15 29 30
f 15 30 16
f 16 30 39
f 16 39 40
f 16 40 33
f 16 33 32
f 16 32 31
f 16 31 20
f 16 20 19
f 16 19 18
f 16 18 17
f 20 31 32
f 20 32 33
f 20 33 34
f 20 34 35
f 20 35 36
f 20 36 22
f 21 24 23
f 25 37 26
f 26 37 38
f 26 38 27
f 27 38 29
f 29 38 39
f 29 39 30
f 37 40 39
f 37 39 38

