# https://github.com/mikedh/trimesh
v -0.12897288 -0.05556370 -0.01192871
v -0.12897288 -0.05556370 -0.01506171
v -0.13264783 -0.05556370 -0.01190830
v -0.13160088 -0.05915192 -0.01191480
v -0.12897288 -0.05674235 -0.01192902
v -0.12897288 -0.06089917 -0.01506326
v -0.13190392 -0.06257343 -0.01505275
v -0.13932579 -0.05556370 -0.01500916
v -0.13932579 -0.05556370 -0.01190490
v -0.13932579 -0.05988722 -0.01190769
v -0.12897288 -0.06476854 -0.01195159
v -0.12897288 -0.06137405 -0.01193582
v -0.13932579 -0.06476854 -0.01192005
v -0.12897288 -0.06476854 -0.01502863
v -0.13529611 -0.06476854 -0.01502771
v -0.13932579 -0.06110553 -0.01500359
v -0.13932579 -0.06476854 -0.01499957
f 1 2 8
f 1 8 9
f 1 9 3
f 1 3 4
f 1 4 5
f 1 5 12
f 1 12 11
f 1 11 14
f 1 14 6
f 1 6 2
f 2 6 7
f 2 7 8
f 3 9 10
f 3 10 4
f 4 11 12
f 4 12 5
f 4 10 13
f 4 13 11
f 6 14 7
f 7 14 15
f 7 15 8
f 8 16 17
f 8 17 13
f 8 13 10
f 8 10 9
f 8 15 16
f 11 13 17
f 11 17 15
f 11 15 14
f 15 17 16

