# https://github.com/mikedh/trimesh
v 0.14037568 0.07685570 -0.01193367
v 0.14037716 0.07069391 -0.01185774
v 0.14037716 0.07101156 -0.01186266
v 0.14037716 0.07150068 -0.01187251
v 0.14037716 0.07289403 -0.01190329
v 0.14037568 0.07685570 -0.01464660
v 0.13730114 0.07685570 -0.01191068
v 0.14037716 0.07051342 -0.01185651
v 0.13698262 0.07685570 -0.01190863
v 0.12965974 0.07685570 -0.01186636
v 0.14037716 0.07289403 -0.01482719
v 0.14037568 0.07484689 -0.01495319
v 0.13924761 0.07406989 -0.01543996
v 0.13868579 0.07410329 -0.01560618
v 0.13822277 0.07374863 -0.01576871
v 0.13991561 0.07685570 -0.01467574
v 0.14037421 0.06788374 -0.01184214
v 0.14037716 0.07051342 -0.01459858
v 0.12533621 0.07685570 -0.01190904
v 0.12531409 0.07685480 -0.01190904
v 0.12531409 0.07659399 -0.01190863
v 0.12531409 0.07656692 -0.01190863
v 0.12531261 0.07289403 -0.01190986
v 0.12531261 0.07132199 -0.01191109
v 0.13436373 0.06788374 -0.01186430
v 0.14037421 0.06788374 -0.01461459
v 0.14037568 0.07362951 -0.01498561
v 0.14037568 0.07404553 -0.01501804
v 0.14037568 0.07423053 -0.01501640
v 0.14037568 0.07445614 -0.01500203
v 0.13864745 0.07367463 -0.01566939
v 0.13819622 0.07340390 -0.01578677
v 0.13771255 0.07344541 -0.01587460
v 0.13789983 0.07388399 -0.01573875
v 0.13964870 0.07685570 -0.01468272
v 0.13306756 0.06763737 -0.01187621
v 0.12531409 0.07685570 -0.01469873
v 0.12531261 0.07289403 -0.01469134
v 0.12531261 0.07051342 -0.01192259
v 0.12531556 0.06763737 -0.01195706
v 0.13721709 0.07287869 -0.01591483
v 0.13306756 0.06763737 -0.01462403
v 0.12760709 0.06763737 -0.01596736
v 0.12758645 0.06763737 -0.01597229
v 0.12712785 0.06763737 -0.01603098
v 0.12730480 0.06773935 -0.01603508
v 0.13634707 0.07231738 -0.01593206
v 0.13722889 0.07289493 -0.01591441
v 0.13715368 0.07314671 -0.01592550
v 0.13198814 0.07043129 -0.01600020
v 0.13116089 0.06995391 -0.01601128
v 0.12704822 0.06763737 -0.01602236
v 0.12653653 0.06763737 -0.01595423
v 0.12615019 0.06763737 -0.01588569
v 0.12594079 0.06763737 -0.01584341
v 0.12539076 0.06763737 -0.01570428
v 0.12532146 0.06763737 -0.01568458
v 0.12531556 0.06857319 -0.01519617
v 0.12531261 0.07051342 -0.01471227
v 0.12531556 0.06763737 -0.01238226
v 0.13721266 0.07289493 -0.01591565
v 0.13594303 0.07241213 -0.01595094
f 1 2 3
f 1 3 4
f 1 4 5
f 1 5 11
f 1 11 6
f 1 6 16
f 1 16 35
f 1 35 37
f 1 37 19
f 1 19 10
f 1 10 9
f 1 9 7
f 1 7 2
f 2 8 18
f 2 18 11
f 2 11 5
f 2 5 4
f 2 4 3
f 2 7 9
f 2 9 10
f 2 10 8
f 6 12 13
f 6 13 14
f 6 14 15
f 6 15 16
f 6 11 12
f 8 17 26
f 8 26 18
f 8 10 17
f 10 19 20
f 10 20 21
f 10 21 22
f 10 22 23
f 10 23 24
f 10 24 25
f 10 25 17
f 11 18 26
f 11 26 27
f 11 27 28
f 11 28 29
f 11 29 30
f 11 30 12
f 12 30 13
f 13 31 14
f 13 30 29
f 13 29 31
f 14 31 15
f 15 31 32
f 15 32 33
f 15 33 34
f 15 34 16
f 16 34 35
f 17 25 36
f 17 36 42
f 17 42 26
f 19 37 20
f 20 37 23
f 20 23 21
f 21 23 22
f 23 37 38
f 23 38 59
f 23 59 39
f 23 39 24
f 24 39 40
f 24 40 36
f 24 36 25
f 26 41 32
f 26 32 31
f 26 31 28
f 26 28 27
f 26 42 43
f 26 43 44
f 26 44 45
f 26 45 46
f 26 46 47
f 26 47 41
f 28 31 29
f 32 41 48
f 32 48 33
f 33 48 49
f 33 49 37
f 33 37 34
f 34 37 35
f 36 40 60
f 36 60 57
f 36 57 56
f 36 56 55
f 36 55 54
f 36 54 53
f 36 53 52
f 36 52 45
f 36 45 44
f 36 44 43
f 36 43 42
f 37 50 51
f 37 51 46
f 37 46 45
f 37 45 52
f 37 52 53
f 37 53 54
f 37 54 55
f 37 55 56
f 37 56 57
f 37 57 58
f 37 58 38
f 37 49 50
f 38 58 59
f 39 59 60
f 39 60 40
f 41 61 48
f 41 47 61
f 46 51 47
f 47 51 62
f 47 62 61
f 48 61 49
f 49 61 62
f 49 62 50
f 50 62 51
f 57 60 58
f 58 60 59

