# https://github.com/mikedh/trimesh
v -0.15373161 -0.02229870 0.00508186
v -0.15290814 -0.02229870 0.00205015
v -0.15576431 -0.02229870 0.00508186
v -0.15369777 -0.02861783 0.00508186
v -0.15290814 -0.02229870 -0.00123452
v -0.15290814 -0.02476658 0.00209305
v -0.15581106 -0.02229870 0.00097019
v -0.15577865 -0.02387441 0.00508186
v -0.15290814 -0.02960913 0.00209178
v -0.15371726 -0.03741373 0.00508186
v -0.15290814 -0.03501983 0.00208484
v -0.15456539 -0.02603751 -0.00083395
v -0.15427256 -0.02229870 -0.00085350
v -0.15290814 -0.03741373 -0.00136131
v -0.15580160 -0.02229870 0.00057845
v -0.15583802 -0.03672870 0.00092477
v -0.15581250 -0.02283577 0.00105093
v -0.15578238 -0.02592654 0.00508186
v -0.15576632 -0.03741373 0.00508186
v -0.15291560 -0.03741373 0.00194228
v -0.15290814 -0.03703200 0.00198076
v -0.15290814 -0.03675385 0.00201419
v -0.15290814 -0.03672574 0.00201609
v -0.15506361 -0.02633934 -0.00067498
v -0.15494745 -0.02389513 -0.00068634
v -0.15435688 -0.03741373 -0.00095128
v -0.15489926 -0.03489702 -0.00077844
v -0.15482124 -0.02229870 -0.00068381
v -0.15290814 -0.03741373 -0.00040247
v -0.15579586 -0.02229870 0.00042769
v -0.15578352 -0.03552583 0.00036650
v -0.15578496 -0.03705568 0.00041822
v -0.15580046 -0.03741373 0.00058918
v -0.15581365 -0.03741373 0.00072543
v -0.15581708 -0.03741373 0.00076139
v -0.15582340 -0.03741373 0.00100489
v -0.15579070 -0.02229870 0.00036839
v -0.15520100 -0.02478137 -0.00057531
v -0.15516228 -0.03509232 -0.00065795
v -0.15533781 -0.03059746 -0.00052674
v -0.15512154 -0.02229870 -0.00054819
v -0.15480719 -0.03741373 -0.00077213
v -0.15482985 -0.03741373 -0.00076267
v -0.15571899 -0.02229870 0.00006686
v -0.15571010 -0.02962393 0.00004857
v -0.15577722 -0.03741373 0.00036271
v -0.15546143 -0.02913863 -0.00042329
v -0.15532175 -0.02315683 -0.00043086
v -0.15517031 -0.02229870 -0.00051602
v -0.15529880 -0.03380216 -0.00056396
v -0.15512786 -0.03741373 -0.00054693
v -0.15533179 -0.03576108 -0.00049520
v -0.15556612 -0.02229870 -0.00012491
v -0.15552052 -0.03131948 -0.00036651
v -0.15565532 -0.03007075 -0.00013437
v -0.15566048 -0.03496804 -0.00005993
v -0.15568945 -0.03741373 0.00011354
v -0.15552339 -0.02229870 -0.00017601
v -0.15541353 -0.03741373 -0.00025612
v -0.15549585 -0.03579215 -0.00029523
v -0.15556526 -0.03322366 -0.00026810
v -0.15566335 -0.03741373 0.00005803
f 1 2 5
f 1 5 13
f 1 13 28
f 1 28 41
f 1 41 49
f 1 49 58
f 1 58 53
f 1 53 44
f 1 44 37
f 1 37 30
f 1 30 15
f 1 15 7
f 1 7 3
f 1 3 8
f 1 8 18
f 1 18 19
f 1 19 10
f 1 10 4
f 1 4 2
f 2 4 6
f 2 6 9
f 2 9 11
f 2 11 23
f 2 23 22
f 2 22 21
f 2 21 29
f 2 29 14
f 2 14 5
f 3 7 8
f 4 9 6
f 4 10 11
f 4 11 9
f 5 12 13
f 5 14 12
f 7 15 16
f 7 16 17
f 7 17 8
f 8 17 18
f 10 19 36
f 10 36 35
f 10 35 34
f 10 34 33
f 10 33 46
f 10 46 57
f 10 57 62
f 10 62 59
f 10 59 51
f 10 51 43
f 10 43 42
f 10 42 26
f 10 26 14
f 10 14 29
f 10 29 20
f 10 20 21
f 10 21 22
f 10 22 23
f 10 23 11
f 12 24 25
f 12 25 13
f 12 14 26
f 12 26 27
f 12 27 24
f 13 25 28
f 15 30 16
f 16 31 32
f 16 32 33
f 16 33 34
f 16 34 35
f 16 35 36
f 16 36 19
f 16 19 18
f 16 18 17
f 16 30 37
f 16 37 31
f 20 29 21
f 24 38 25
f 24 27 39
f 24 39 40
f 24 40 38
f 25 38 41
f 25 41 28
f 26 42 27
f 27 42 43
f 27 43 39
f 31 37 44
f 31 44 45
f 31 45 46
f 31 46 32
f 32 46 33
f 38 40 47
f 38 47 48
f 38 48 49
f 38 49 41
f 39 50 40
f 39 43 51
f 39 51 52
f 39 52 50
f 40 50 47
f 44 53 47
f 44 47 54
f 44 54 55
f 44 55 45
f 45 55 46
f 46 55 56
f 46 56 57
f 47 53 58
f 47 58 48
f 47 50 54
f 48 58 49
f 50 52 54
f 51 59 52
f 52 60 54
f 52 59 60
f 54 60 61
f 54 61 55
f 55 61 56
f 56 61 60
f 56 60 62
f 56 62 57
f 59 62 60

