# https://github.com/mikedh/trimesh
v 0.09678313 -0.05440505 -0.01152313
v 0.09678313 -0.05440505 -0.01484061
v 0.09461259 -0.05440505 -0.01153987
v 0.09678313 -0.06162225 -0.01139522
v 0.09678313 -0.06044164 -0.01476685
v 0.08184233 -0.05752155 -0.01499773
v 0.08184233 -0.05657339 -0.01500913
v 0.08191546 -0.05440505 -0.01503407
v 0.09445901 -0.05440505 -0.01154130
v 0.09445755 -0.05445734 -0.01154023
v 0.09491681 -0.06162225 -0.01141945
v 0.09678313 -0.06162225 -0.01475224
v 0.08575780 -0.06162225 -0.01489476
v 0.08184233 -0.06162225 -0.01494072
v 0.08184233 -0.05440505 -0.01503479
v 0.09436687 -0.05440505 -0.01154237
v 0.08184233 -0.05440505 -0.01171375
v 0.08184233 -0.06162225 -0.01159332
v 0.09136115 -0.06162225 -0.01146612
f 1 2 8
f 1 8 15
f 1 15 17
f 1 17 16
f 1 16 9
f 1 9 3
f 1 3 4
f 1 4 12
f 1 12 5
f 1 5 2
f 2 5 6
f 2 6 7
f 2 7 8
f 3 9 10
f 3 10 4
f 4 10 11
f 4 11 19
f 4 19 18
f 4 18 14
f 4 14 13
f 4 13 12
f 5 12 6
f 6 13 14
f 6 14 18
f 6 18 17
f 6 17 15
f 6 15 7
f 6 12 13
f 7 15 8
f 9 16 10
f 10 16 17
f 10 17 18
f 10 18 19
f 10 19 11

