# https://github.com/mikedh/trimesh
v -0.15370113 0.05508298 -0.00347033
v -0.15365577 0.05508298 -0.00630722
v -0.15580786 0.05508298 -0.00347033
v -0.15371216 0.04808541 -0.00347033
v -0.15339759 0.04808541 -0.00915022
v -0.15368649 0.05508298 -0.00915022
v -0.15581554 0.05508298 -0.00579734
v -0.15584889 0.05158728 -0.00347033
v -0.15584553 0.04808541 -0.00347033
v -0.15570972 0.04808541 -0.00915022
v -0.15576923 0.05508298 -0.00915022
v -0.15576923 0.05483226 -0.00915022
v -0.15577354 0.04808541 -0.00698336
f 1 2 6
f 1 6 11
f 1 11 7
f 1 7 3
f 1 3 8
f 1 8 9
f 1 9 4
f 1 4 5
f 1 5 2
f 2 5 6
f 3 7 8
f 4 9 13
f 4 13 10
f 4 10 5
f 5 10 12
f 5 12 11
f 5 11 6
f 7 11 8
f 8 11 12
f 8 12 9
f 9 12 13
f 10 13 12

