# https://github.com/mikedh/trimesh
v 0.06162997 -0.03538762 -0.01222463
v 0.06162704 -0.06162225 -0.01184935
v 0.06162997 -0.03571893 -0.01222048
v 0.06162997 -0.03538762 -0.01547438
v 0.04443455 -0.03538762 -0.01223141
v 0.06162704 -0.06162225 -0.01518350
v 0.06162997 -0.04924588 -0.01205771
v 0.04154526 -0.03951993 -0.01217791
v 0.03847173 -0.03750899 -0.01221069
v 0.03379270 -0.06162225 -0.01211122
v 0.06162997 -0.04924588 -0.01534024
v 0.06162704 -0.05084333 -0.01532517
v 0.06064737 -0.04924588 -0.01535268
v 0.05981100 -0.04787187 -0.01537604
v 0.05145894 -0.04924588 -0.01545893
v 0.05061087 -0.04950784 -0.01546609
v 0.05025117 -0.04949243 -0.01546948
v 0.04495802 -0.04924588 -0.01551846
v 0.03447993 -0.04876048 -0.01561530
v 0.03175440 -0.04464615 -0.01566352
v 0.05103198 -0.03544155 -0.01555991
v 0.05095887 -0.03538762 -0.01556066
v 0.04242258 -0.03538762 -0.01223405
v 0.06070293 -0.06162225 -0.01519443
v 0.06162704 -0.05899750 -0.01522118
v 0.03875539 -0.03538762 -0.01224837
v 0.03638371 -0.03538762 -0.01228755
v 0.03534263 -0.03538762 -0.01231280
v 0.03480747 -0.03907819 -0.01228039
v 0.03175733 -0.06162225 -0.01213571
v 0.06162704 -0.05321382 -0.01530106
v 0.06162704 -0.05684275 -0.01525132
v 0.05025117 -0.05119004 -0.01544650
v 0.04563648 -0.06021229 -0.01536737
v 0.05326329 -0.06162225 -0.01527129
v 0.03495076 -0.04924588 -0.01560512
v 0.03175733 -0.05365556 -0.01557121
v 0.03359092 -0.04924588 -0.01561492
v 0.03175733 -0.04938456 -0.01562472
v 0.03175440 -0.04924588 -0.01562547
v 0.03175440 -0.03698764 -0.01569367
v 0.03204684 -0.03538762 -0.01569668
v 0.03175440 -0.03538762 -0.01244053
v 0.03175440 -0.03878541 -0.01239833
v 0.03175440 -0.04924588 -0.01234482
v 0.03175733 -0.06162225 -0.01544876
v 0.05025117 -0.06162225 -0.01530181
v 0.04802863 -0.06162225 -0.01532404
v 0.03175733 -0.05897696 -0.01549925
v 0.03175733 -0.05023979 -0.01561417
v 0.03175440 -0.03538762 -0.01569856
v 0.04543470 -0.06162225 -0.01534439
f 1 2 3
f 1 3 7
f 1 7 11
f 1 11 4
f 1 4 22
f 1 22 42
f 1 42 51
f 1 51 43
f 1 43 28
f 1 28 27
f 1 27 26
f 1 26 23
f 1 23 5
f 1 5 2
f 2 6 11
f 2 11 7
f 2 7 3
f 2 5 8
f 2 8 9
f 2 9 10
f 2 10 30
f 2 30 46
f 2 46 52
f 2 52 48
f 2 48 47
f 2 47 35
f 2 35 24
f 2 24 6
f 4 11 12
f 4 12 13
f 4 13 14
f 4 14 15
f 4 15 16
f 4 16 17
f 4 17 18
f 4 18 19
f 4 19 20
f 4 20 21
f 4 21 22
f 5 23 8
f 6 24 25
f 6 25 11
f 8 23 9
f 9 23 26
f 9 26 27
f 9 27 28
f 9 28 29
f 9 29 30
f 9 30 10
f 11 31 12
f 11 25 32
f 11 32 31
f 12 31 16
f 12 16 13
f 13 16 15
f 13 15 14
f 16 33 34
f 16 34 17
f 16 31 32
f 16 32 35
f 16 35 33
f 17 34 36
f 17 36 18
f 18 36 19
f 19 36 37
f 19 37 38
f 19 38 39
f 19 39 20
f 20 39 40
f 20 40 45
f 20 45 44
f 20 44 43
f 20 43 51
f 20 51 41
f 20 41 22
f 20 22 21
f 22 41 42
f 24 35 32
f 24 32 25
f 28 43 29
f 29 43 44
f 29 44 30
f 30 44 45
f 30 45 40
f 30 40 46
f 33 47 48
f 33 48 34
f 33 35 47
f 34 48 49
f 34 49 36
f 36 49 37
f 37 50 38
f 37 49 40
f 37 40 50
f 38 50 39
f 39 50 40
f 40 49 46
f 41 51 42
f 46 49 52
f 48 52 49

