# https://github.com/mikedh/trimesh
v -0.12086677 -0.06476854 -0.01646348
v -0.12133814 -0.06503819 -0.01646125
v -0.12222692 -0.06523530 -0.01644080
v -0.12140061 -0.06476854 -0.01643368
v -0.11031777 -0.06476854 -0.01517591
v -0.11031777 -0.06663651 -0.01517457
v -0.11031777 -0.06715155 -0.01517146
v -0.12327188 -0.06615272 -0.01641811
v -0.12383696 -0.06616812 -0.01639810
v -0.13932396 -0.06476854 -0.01499934
v -0.11031777 -0.06476854 -0.01204215
v -0.11031777 -0.06715155 -0.01201946
v -0.12500118 -0.06715155 -0.01634784
v -0.12549527 -0.06715155 -0.01633539
v -0.12552934 -0.06715155 -0.01633405
v -0.12615688 -0.06715155 -0.01629803
v -0.13932396 -0.06715155 -0.01500067
v -0.13932396 -0.06476854 -0.01191984
v -0.12794297 -0.06476854 -0.01195497
v -0.11059889 -0.06715155 -0.01201813
v -0.13932396 -0.06715155 -0.01192162
v -0.13217677 -0.06692995 -0.01194386
v -0.13217677 -0.06715155 -0.01194430
f 1 2 3
f 1 3 4
f 1 4 10
f 1 10 18
f 1 18 19
f 1 19 11
f 1 11 5
f 1 5 6
f 1 6 7
f 1 7 2
f 2 7 8
f 2 8 3
f 3 8 9
f 3 9 10
f 3 10 4
f 5 11 12
f 5 12 7
f 5 7 6
f 7 12 20
f 7 20 23
f 7 23 21
f 7 21 17
f 7 17 16
f 7 16 15
f 7 15 14
f 7 14 13
f 7 13 8
f 8 13 14
f 8 14 9
f 9 14 15
f 9 15 16
f 9 16 10
f 10 17 21
f 10 21 18
f 10 16 17
f 11 19 12
f 12 19 20
f 18 21 19
f 19 21 22
f 19 22 20
f 20 22 23
f 21 23 22

