# https://github.com/mikedh/trimesh
v -0.11208136 0.08664814 0.00898250
v -0.11208136 0.08855148 0.00898250
v -0.11081458 0.08660373 0.00898250
v -0.11208136 0.08683074 0.01533620
v -0.11208136 0.08880848 0.01090308
v -0.11124418 0.08856298 0.00898250
v -0.11028585 0.08659200 0.00898250
v -0.10809379 0.08655120 0.00898250
v -0.10722357 0.08657104 0.01003142
v -0.10199127 0.08667835 0.01526302
v -0.11208136 0.08683389 0.01538255
v -0.11208136 0.08880848 0.01728361
v -0.09539305 0.08880915 0.01085348
v -0.09511766 0.08880915 0.01083234
v -0.09396105 0.08880915 0.01078355
v -0.09064541 0.08880915 0.01065508
v -0.08448781 0.08880869 0.01032739
v -0.10745490 0.08880848 0.01080144
v -0.07103802 0.08862633 0.00898331
v -0.07302079 0.08860153 0.00898250
v -0.10691514 0.08653722 0.00898250
v -0.09175796 0.08650612 0.00975984
v -0.08195427 0.08653136 0.01027535
v -0.08542412 0.08668781 0.01492069
v -0.00413054 0.08680798 0.01450357
v -0.00420765 0.08685824 0.01501420
v -0.10159471 0.08673583 0.01572975
v -0.11208136 0.08690400 0.01579805
v -0.09539305 0.08880915 0.01332617
v -0.11208136 0.08836662 0.01722019
v -0.10777434 0.08848836 0.01724621
v -0.10662875 0.08880848 0.01728931
v -0.04664994 0.08880915 0.01693967
v -0.04781757 0.08880915 0.01693235
v -0.03881800 0.08880915 0.01033796
v -0.00630057 0.08880892 0.01024283
v -0.06635648 0.08858192 0.00898331
v -0.00560660 0.08872732 0.00987530
v 0.00045186 0.08868989 0.00987530
v -0.07302079 0.08661432 0.00898250
v -0.09287052 0.08651536 0.00898250
v -0.08191021 0.08651874 0.00978423
v -0.01309707 0.08668308 0.01170807
v -0.00658697 0.08664656 0.00987530
v 0.00045186 0.08682916 0.01372785
v 0.00045186 0.08686208 0.01446535
v 0.00045186 0.08692227 0.01510446
v -0.00194949 0.08691641 0.01532969
v -0.00370094 0.08691325 0.01536384
v -0.10138542 0.08683300 0.01607288
v -0.11208136 0.08697862 0.01609890
v -0.00286377 0.08696465 0.01556956
v -0.11208136 0.08794191 0.01712424
v -0.00608026 0.08852826 0.01674696
v -0.00597011 0.08880892 0.01679412
v -0.00449405 0.08880892 0.01678599
v -0.04392914 0.08880915 0.01692340
v -0.03854262 0.08880915 0.01036236
v 0.00045186 0.08880892 0.01057540
v -0.00050648 0.08880892 0.01050953
v -0.00178426 0.08880892 0.01044042
v -0.00537528 0.08880892 0.01025828
v -0.06635648 0.08663033 0.00898331
v 0.00045186 0.08685148 0.00987530
v -0.07337328 0.08660756 0.00898250
v -0.07449685 0.08659786 0.00898250
v -0.00655393 0.08664724 0.00987530
v 0.00045186 0.08682601 0.01337821
v 0.00045186 0.08696938 0.01543377
v 0.00045186 0.08701312 0.01561510
v -0.10009662 0.08705910 0.01645911
v -0.11208136 0.08712696 0.01640545
v -0.11004351 0.08698786 0.01620623
v -0.00385515 0.08703228 0.01573788
v -0.00251128 0.08708548 0.01584846
v 0.00045186 0.08705528 0.01575008
v -0.11208136 0.08790561 0.01711205
v -0.00690642 0.08806634 0.01659409
v -0.00009891 0.08793807 0.01651034
v 0.00045186 0.08803749 0.01654042
v 0.00045186 0.08841035 0.01666239
v 0.00045186 0.08858281 0.01670874
v 0.00045186 0.08880239 0.01675346
v 0.00045186 0.08880892 0.01675428
v -0.04257425 0.08880915 0.01691365
v -0.03854262 0.08880915 0.01582326
v -0.10036099 0.08721240 0.01662092
v -0.11016468 0.08723088 0.01656644
v -0.11208136 0.08715491 0.01644692
v -0.00279768 0.08716619 0.01598507
v 0.00045186 0.08711794 0.01587692
v -0.11208136 0.08769664 0.01699984
v -0.09815791 0.08763621 0.01691446
v -0.02890415 0.08784001 0.01662824
v -0.00103521 0.08764952 0.01638431
v 0.00045186 0.08792500 0.01649489
v 0.00045186 0.08798136 0.01652010
v -0.03921455 0.08880915 0.01683640
v -0.04067961 0.08880915 0.01687218
v -0.09810283 0.08743062 0.01679005
v -0.02432175 0.08730190 0.01625421
v -0.00291884 0.08743287 0.01623957
v -0.11208136 0.08730664 0.01662092
v 0.00045186 0.08716416 0.01593221
v -0.00085897 0.08738576 0.01617777
v -0.00383312 0.08729062 0.01611029
v 0.00045186 0.08756971 0.01629568
v 0.00045186 0.08762697 0.01633958
v 0.00045186 0.08739500 0.01615745
f 1 2 6
f 1 6 20
f 1 20 40
f 1 40 65
f 1 65 66
f 1 66 41
f 1 41 21
f 1 21 8
f 1 8 7
f 1 7 3
f 1 3 4
f 1 4 11
f 1 11 28
f 1 28 51
f 1 51 72
f 1 72 89
f 1 89 103
f 1 103 92
f 1 92 77
f 1 77 53
f 1 53 30
f 1 30 12
f 1 12 5
f 1 5 2
f 2 5 6
f 3 7 4
f 4 7 8
f 4 8 9
f 4 9 10
f 4 10 11
f 5 12 29
f 5 29 13
f 5 13 14
f 5 14 15
f 5 15 16
f 5 16 17
f 5 17 18
f 5 18 6
f 6 18 17
f 6 17 19
f 6 19 20
f 8 21 9
f 9 21 10
f 10 21 22
f 10 22 23
f 10 23 24
f 10 24 25
f 10 25 26
f 10 26 27
f 10 27 11
f 11 27 28
f 12 30 31
f 12 31 32
f 12 32 33
f 12 33 34
f 12 34 29
f 13 29 34
f 13 34 33
f 13 33 57
f 13 57 85
f 13 85 99
f 13 99 98
f 13 98 86
f 13 86 58
f 13 58 35
f 13 35 16
f 13 16 15
f 13 15 14
f 16 35 17
f 17 35 36
f 17 36 19
f 19 37 20
f 19 36 38
f 19 38 39
f 19 39 37
f 20 37 63
f 20 63 40
f 21 41 22
f 22 41 42
f 22 42 23
f 23 42 43
f 23 43 24
f 24 43 25
f 25 43 44
f 25 44 45
f 25 45 46
f 25 46 47
f 25 47 48
f 25 48 26
f 26 48 49
f 26 49 27
f 27 50 51
f 27 51 28
f 27 49 52
f 27 52 50
f 30 53 31
f 31 53 54
f 31 54 55
f 31 55 32
f 32 55 33
f 33 55 56
f 33 56 57
f 35 58 59
f 35 59 60
f 35 60 61
f 35 61 62
f 35 62 36
f 36 62 38
f 37 39 64
f 37 64 63
f 38 62 39
f 39 59 84
f 39 84 83
f 39 83 82
f 39 82 81
f 39 81 80
f 39 80 97
f 39 97 96
f 39 96 108
f 39 108 107
f 39 107 109
f 39 109 104
f 39 104 91
f 39 91 76
f 39 76 70
f 39 70 69
f 39 69 47
f 39 47 46
f 39 46 45
f 39 45 68
f 39 68 64
f 39 62 61
f 39 61 60
f 39 60 59
f 40 63 65
f 41 66 63
f 41 63 44
f 41 44 42
f 42 44 43
f 44 67 45
f 44 63 67
f 45 67 68
f 47 69 48
f 48 69 70
f 48 70 52
f 48 52 49
f 50 71 72
f 50 72 73
f 50 73 51
f 50 52 74
f 50 74 75
f 50 75 71
f 51 73 72
f 52 70 76
f 52 76 74
f 53 77 54
f 54 78 79
f 54 79 80
f 54 80 81
f 54 81 82
f 54 82 83
f 54 83 56
f 54 56 55
f 54 77 78
f 56 83 84
f 56 84 57
f 57 84 85
f 58 86 84
f 58 84 59
f 63 66 65
f 63 64 67
f 64 68 67
f 71 87 88
f 71 88 89
f 71 89 72
f 71 75 90
f 71 90 87
f 74 76 75
f 75 76 91
f 75 91 90
f 77 92 93
f 77 93 94
f 77 94 79
f 77 79 78
f 79 95 96
f 79 96 97
f 79 97 80
f 79 94 95
f 84 86 98
f 84 98 99
f 84 99 85
f 87 100 92
f 87 92 88
f 87 90 101
f 87 101 102
f 87 102 100
f 88 92 103
f 88 103 89
f 90 91 104
f 90 104 105
f 90 105 102
f 90 102 106
f 90 106 101
f 92 100 93
f 93 100 95
f 93 95 94
f 95 102 105
f 95 105 107
f 95 107 108
f 95 108 96
f 95 100 102
f 101 106 102
f 104 109 105
f 105 109 107

