# https://github.com/mikedh/trimesh
v -0.15872276 -0.06725586 0.01434908
v -0.15869893 -0.06725586 0.01471193
v -0.15871200 -0.06725586 0.01400534
v -0.15867818 -0.06824758 0.01399388
v -0.15862054 -0.06828656 0.01490748
v -0.15865128 -0.06725586 0.01502435
v -0.15869663 -0.06725586 0.01384264
v -0.15854062 -0.06817897 0.01293515
v -0.15855829 -0.06913014 0.01343167
v -0.15846377 -0.07034952 0.01392895
v -0.15843764 -0.07025440 0.01492352
v -0.15847761 -0.06871849 0.01550177
v -0.15857366 -0.06725586 0.01540476
v -0.15859211 -0.06725586 0.01305432
v -0.15845455 -0.06789050 0.01258454
v -0.15837616 -0.06935624 0.01264870
v -0.15827242 -0.07048674 0.01276175
v -0.15831468 -0.07121025 0.01451637
v -0.15817559 -0.07161255 0.01331327
v -0.15803110 -0.07249668 0.01384035
v -0.15828932 -0.07005325 0.01569427
v -0.15807799 -0.07192130 0.01540399
v -0.15820094 -0.06974451 0.01602732
v -0.15845378 -0.06725586 0.01583482
v -0.15851372 -0.06725586 0.01567899
v -0.15848452 -0.06725586 0.01264717
v -0.15825782 -0.06834114 0.01228586
v -0.15839383 -0.06725586 0.01240884
v -0.15808643 -0.07072687 0.01244551
v -0.15785665 -0.07240624 0.01259676
v -0.15802419 -0.07253566 0.01464241
v -0.15760228 -0.07401700 0.01338431
v -0.15775905 -0.07362874 0.01430478
v -0.15805954 -0.07120090 0.01587149
v -0.15772217 -0.07353362 0.01522143
v -0.15752466 -0.07365213 0.01592419
v -0.15796347 -0.07167960 0.01594482
v -0.15812409 -0.06935000 0.01621065
v -0.15842150 -0.06725586 0.01589440
v -0.15791737 -0.07086409 0.01626259
v -0.15806261 -0.06862025 0.01210788
v -0.15835925 -0.06725586 0.01234850
v -0.15816098 -0.06725586 0.01209795
v -0.15814100 -0.06725586 0.01207656
v -0.15773600 -0.07120090 0.01215447
v -0.15764301 -0.07193689 0.01216822
v -0.15797577 -0.07120090 0.01240884
v -0.15760381 -0.07278983 0.01228586
v -0.15735175 -0.07395619 0.01236378
v -0.15748239 -0.07395619 0.01266169
v -0.15710275 -0.07535956 0.01301689
v -0.15728950 -0.07509760 0.01392208
v -0.15727720 -0.07515218 0.01467679
v -0.15744858 -0.07428209 0.01552087
v -0.15741016 -0.07346657 0.01619919
v -0.15769603 -0.07261519 0.01609607
v -0.15710813 -0.07501808 0.01584322
v -0.15712965 -0.07450506 0.01614419
v -0.15776828 -0.07025128 0.01650932
v -0.15796501 -0.06886662 0.01639932
v -0.15808413 -0.06725586 0.01634280
v -0.15827933 -0.06725586 0.01612968
v -0.15755002 -0.07209906 0.01641995
v -0.15604837 -0.06982248 0.01064200
v -0.15617747 -0.06725586 0.01064200
v -0.15615135 -0.06827409 0.01064200
v -0.15732255 -0.07308922 0.01206357
v -0.15282143 -0.07843919 0.00915321
v -0.15693138 -0.07493699 0.01220260
v -0.15683454 -0.07547807 0.01235155
v -0.15674463 -0.07612518 0.01275870
v -0.15655173 -0.07697656 0.01351417
v -0.15667009 -0.07677697 0.01440103
v -0.15701514 -0.07579461 0.01499227
v -0.15722034 -0.07330752 0.01642911
v -0.15641879 -0.07698592 0.01551628
v -0.15641879 -0.07633257 0.01615106
v -0.15672695 -0.07520675 0.01630460
v -0.15751928 -0.06943732 0.01669036
v -0.15771525 -0.06762853 0.01662467
v -0.15728412 -0.07179031 0.01666057
v -0.15774906 -0.06725586 0.01660710
v -0.15396188 -0.06725586 0.01064200
v -0.15282143 -0.07369578 0.00915321
v -0.15251787 -0.07894128 0.00915321
v -0.15417860 -0.08075475 0.01225683
v -0.15518918 -0.07888047 0.01216440
v -0.15560879 -0.07782015 0.01205364
v -0.15627431 -0.07635596 0.01205823
v -0.15598996 -0.07755350 0.01236760
v -0.15622897 -0.07724008 0.01260974
v -0.15607450 -0.07796672 0.01326056
v -0.15604145 -0.07818970 0.01396562
v -0.15616748 -0.07787004 0.01474859
v -0.15624203 -0.07567143 0.01655363
v -0.15657479 -0.07396399 0.01669036
v -0.15600225 -0.07799479 0.01534747
v -0.15561801 -0.07825519 0.01600746
v -0.15605145 -0.07725724 0.01609225
v -0.15591158 -0.07692199 0.01644439
v -0.15711658 -0.07120090 0.01676369
v -0.15707739 -0.07106524 0.01678737
v -0.15749622 -0.06725586 0.01674918
v -0.15752851 -0.06725586 0.01673161
v -0.15669314 -0.07293017 0.01677821
v -0.15087174 -0.07772815 0.00915321
v -0.15414325 -0.06725586 0.01493421
v -0.15087174 -0.07846102 0.01471193
v -0.15215360 -0.07950575 0.00915321
v -0.15342855 -0.08175427 0.01217128
v -0.15317802 -0.08234992 0.01245468
v -0.15432308 -0.08086079 0.01264641
v -0.15514154 -0.07931084 0.01243482
v -0.15571638 -0.07850000 0.01282210
v -0.15526603 -0.07962270 0.01332167
v -0.15530753 -0.07965700 0.01422075
v -0.15522377 -0.07964765 0.01494643
v -0.15542665 -0.07762679 0.01653835
v -0.15523529 -0.07695005 0.01675223
v -0.15550427 -0.07881186 0.01558580
v -0.15534903 -0.07831600 0.01631912
v -0.15493096 -0.07967104 0.01578288
v -0.15474960 -0.07955253 0.01622592
v -0.15704972 -0.07120090 0.01678661
v -0.15664780 -0.07120090 0.01686452
v -0.15640034 -0.07120090 0.01691036
v -0.15657249 -0.06742894 0.01694320
v -0.15706126 -0.06725586 0.01684925
v -0.15497247 -0.07613922 0.01691265
v -0.15529293 -0.07452066 0.01694626
v -0.15639035 -0.07128354 0.01691036
v -0.15087174 -0.08116642 0.00915321
v -0.15422011 -0.06725586 0.01554760
v -0.15087174 -0.07864502 0.01538184
v -0.15149884 -0.08039300 0.00915321
v -0.15247868 -0.08283955 0.01207656
v -0.15282143 -0.08244816 0.01211093
v -0.15232036 -0.08318571 0.01223468
v -0.15242796 -0.08318571 0.01237218
v -0.15248406 -0.08318571 0.01249669
v -0.15261086 -0.08318571 0.01279154
v -0.15314574 -0.08264776 0.01297182
v -0.15389733 -0.08174804 0.01316508
v -0.15455824 -0.08073136 0.01309404
v -0.15506469 -0.07973497 0.01282363
v -0.15490868 -0.08031971 0.01363257
v -0.15436304 -0.08122099 0.01379986
v -0.15452213 -0.08089666 0.01465769
v -0.15426545 -0.08089353 0.01553615
v -0.15487102 -0.07892257 0.01642453
v -0.15467890 -0.07833939 0.01668807
v -0.15403720 -0.07876352 0.01682098
v -0.15390655 -0.08112275 0.01595322
v -0.15380742 -0.08098397 0.01619461
v -0.15369906 -0.08069862 0.01642606
v -0.15649410 -0.06725586 0.01694702
v -0.15657249 -0.06725586 0.01694397
v -0.15661629 -0.06725586 0.01693709
v -0.15363066 -0.07875885 0.01691647
v -0.15330635 -0.07876509 0.01694702
v -0.15355535 -0.07760029 0.01695008
v -0.15611446 -0.06725586 0.01695619
v -0.15087174 -0.08318415 0.01148838
v -0.15089633 -0.08318415 0.01149754
v -0.15098010 -0.08318571 0.01153574
v -0.15210518 -0.08318571 0.01204524
v -0.15219664 -0.08318571 0.01210559
v -0.15432308 -0.06725586 0.01587607
v -0.15087174 -0.07925626 0.01633057
v -0.15087174 -0.07923911 0.01631224
v -0.15087174 -0.07889451 0.01589058
v -0.15087174 -0.07887112 0.01585926
v -0.15268848 -0.08318571 0.01300237
v -0.15353767 -0.08231250 0.01379298
v -0.15271921 -0.08318571 0.01313758
v -0.15392269 -0.08176051 0.01470352
v -0.15346159 -0.08198037 0.01559726
v -0.15362144 -0.08015755 0.01664682
v -0.15284372 -0.08110872 0.01668425
v -0.15218127 -0.08118668 0.01683779
v -0.15299972 -0.08214410 0.01604718
v -0.15301279 -0.08180104 0.01629009
v -0.15282143 -0.08155935 0.01652536
v -0.15087174 -0.08274755 0.01685001
v -0.15087174 -0.08224233 0.01689050
v -0.15087174 -0.08213630 0.01689890
v -0.15087174 -0.08211759 0.01689890
v -0.15087174 -0.08156715 0.01689508
v -0.15587238 -0.06725586 0.01693480
v -0.15087174 -0.08318571 0.01153574
v -0.15433076 -0.06725586 0.01589669
v -0.15087174 -0.07961490 0.01653300
v -0.15446295 -0.06725586 0.01618162
v -0.15278992 -0.08318571 0.01366160
v -0.15281298 -0.08318571 0.01395034
v -0.15318954 -0.08270076 0.01453929
v -0.15311961 -0.08263684 0.01506942
v -0.15264544 -0.08318571 0.01505490
v -0.15252709 -0.08318571 0.01532150
v -0.15242642 -0.08318571 0.01551628
v -0.15282143 -0.08261969 0.01571642
v -0.15267003 -0.08170749 0.01654217
v -0.15099854 -0.08318571 0.01668883
v -0.15087174 -0.08318571 0.01673390
v -0.15282143 -0.08112587 0.01668654
v -0.15226811 -0.08317168 0.01581878
v -0.15189154 -0.08318571 0.01616405
v -0.15282143 -0.08174959 0.01643064
v -0.15145965 -0.08318571 0.01645585
v -0.15087174 -0.08276782 0.01684543
v -0.15087174 -0.08102764 0.01686300
v -0.15568256 -0.06725586 0.01690501
v -0.15087174 -0.08002656 0.01666974
v -0.15465200 -0.06725586 0.01642148
v -0.15279453 -0.08318571 0.01441860
v -0.15282143 -0.08315297 0.01442624
v -0.15282143 -0.08313426 0.01453165
v -0.15268924 -0.08318571 0.01491053
v -0.15282143 -0.08301731 0.01495942
v -0.15225812 -0.08318571 0.01581496
v -0.15139663 -0.08318571 0.01648870
v -0.15087174 -0.08070797 0.01682557
v -0.15507852 -0.06725586 0.01674841
v -0.15540282 -0.06725586 0.01684619
v -0.15087174 -0.08041327 0.01676827
v -0.15478265 -0.06725586 0.01654675
v -0.15487948 -0.06725586 0.01663154
v -0.15277762 -0.08318571 0.01453012
f 1 2 6
f 1 6 13
f 1 13 25
f 1 25 24
f 1 24 39
f 1 39 62
f 1 62 61
f 1 61 82
f 1 82 104
f 1 104 103
f 1 103 128
f 1 128 158
f 1 158 157
f 1 157 156
f 1 156 162
f 1 162 189
f 1 189 212
f 1 212 224
f 1 224 223
f 1 223 227
f 1 227 226
f 1 226 214
f 1 214 193
f 1 193 191
f 1 191 168
f 1 168 133
f 1 133 107
f 1 107 83
f 1 83 65
f 1 65 44
f 1 44 43
f 1 43 42
f 1 42 28
f 1 28 26
f 1 26 14
f 1 14 7
f 1 7 3
f 1 3 4
f 1 4 5
f 1 5 2
f 2 5 6
f 3 7 4
f 4 8 9
f 4 9 10
f 4 10 11
f 4 11 5
f 4 7 8
f 5 11 12
f 5 12 6
f 6 12 13
f 7 14 8
f 8 14 15
f 8 15 16
f 8 16 9
f 9 16 17
f 9 17 10
f 10 18 11
f 10 17 19
f 10 19 20
f 10 20 18
f 11 21 12
f 11 18 22
f 11 22 21
f 12 21 23
f 12 23 24
f 12 24 25
f 12 25 13
f 14 26 15
f 15 27 16
f 15 26 28
f 15 28 27
f 16 27 29
f 16 29 17
f 17 29 30
f 17 30 19
f 18 20 31
f 18 31 22
f 19 30 32
f 19 32 20
f 20 33 31
f 20 32 33
f 21 22 34
f 21 34 23
f 22 31 35
f 22 35 36
f 22 36 37
f 22 37 34
f 23 38 39
f 23 39 24
f 23 34 37
f 23 37 40
f 23 40 38
f 27 41 29
f 27 28 42
f 27 42 43
f 27 43 44
f 27 44 41
f 29 45 46
f 29 46 47
f 29 47 30
f 29 41 45
f 30 48 49
f 30 49 50
f 30 50 32
f 30 47 48
f 31 33 35
f 32 50 51
f 32 51 52
f 32 52 33
f 33 52 53
f 33 53 35
f 35 53 54
f 35 54 36
f 36 55 56
f 36 56 37
f 36 54 57
f 36 57 58
f 36 58 55
f 37 56 40
f 38 40 59
f 38 59 60
f 38 60 61
f 38 61 62
f 38 62 39
f 40 56 63
f 40 63 59
f 41 64 45
f 41 44 64
f 44 65 66
f 44 66 64
f 45 64 46
f 46 67 48
f 46 48 47
f 46 64 68
f 46 68 67
f 48 67 49
f 49 69 70
f 49 70 50
f 49 67 69
f 50 70 71
f 50 71 51
f 51 71 72
f 51 72 52
f 52 72 73
f 52 73 53
f 53 73 74
f 53 74 54
f 54 74 57
f 55 58 75
f 55 75 63
f 55 63 56
f 57 74 76
f 57 76 77
f 57 77 58
f 58 77 78
f 58 78 75
f 59 79 80
f 59 80 60
f 59 63 81
f 59 81 79
f 60 80 82
f 60 82 61
f 63 75 81
f 64 66 68
f 65 83 84
f 65 84 68
f 65 68 66
f 67 68 69
f 68 85 86
f 68 86 87
f 68 87 88
f 68 88 89
f 68 89 69
f 68 84 106
f 68 106 132
f 68 132 135
f 68 135 109
f 68 109 85
f 69 89 70
f 70 89 90
f 70 90 91
f 70 91 71
f 71 91 92
f 71 92 72
f 72 92 93
f 72 93 73
f 73 93 94
f 73 94 74
f 74 94 76
f 75 78 95
f 75 95 96
f 75 96 81
f 76 94 97
f 76 97 98
f 76 98 99
f 76 99 77
f 77 99 100
f 77 100 78
f 78 100 95
f 79 81 101
f 79 101 102
f 79 102 103
f 79 103 80
f 80 103 104
f 80 104 82
f 81 96 105
f 81 105 101
f 83 106 84
f 83 107 108
f 83 108 106
f 85 109 86
f 86 110 111
f 86 111 112
f 86 112 113
f 86 113 87
f 86 109 110
f 87 113 90
f 87 90 88
f 88 90 89
f 90 113 114
f 90 114 91
f 91 114 92
f 92 114 115
f 92 115 93
f 93 115 116
f 93 116 94
f 94 116 117
f 94 117 97
f 95 100 118
f 95 118 119
f 95 119 96
f 96 119 105
f 97 117 120
f 97 120 98
f 98 121 99
f 98 120 122
f 98 122 123
f 98 123 121
f 99 121 100
f 100 121 118
f 101 124 102
f 101 105 124
f 102 124 105
f 102 105 125
f 102 125 126
f 102 126 127
f 102 127 128
f 102 128 103
f 105 119 129
f 105 129 130
f 105 130 131
f 105 131 125
f 106 108 134
f 106 134 172
f 106 172 171
f 106 171 170
f 106 170 169
f 106 169 192
f 106 192 213
f 106 213 225
f 106 225 222
f 106 222 211
f 106 211 188
f 106 188 187
f 106 187 186
f 106 186 185
f 106 185 184
f 106 184 210
f 106 210 204
f 106 204 190
f 106 190 163
f 106 163 132
f 107 133 134
f 107 134 108
f 109 135 110
f 110 135 136
f 110 136 137
f 110 137 111
f 111 137 136
f 111 136 138
f 111 138 139
f 111 139 140
f 111 140 141
f 111 141 142
f 111 142 143
f 111 143 112
f 112 143 144
f 112 144 145
f 112 145 113
f 113 145 114
f 114 145 115
f 115 145 144
f 115 144 146
f 115 146 116
f 116 146 147
f 116 147 148
f 116 148 117
f 117 148 149
f 117 149 122
f 117 122 120
f 118 121 150
f 118 150 151
f 118 151 119
f 119 151 152
f 119 152 129
f 121 123 150
f 122 149 153
f 122 153 123
f 123 153 154
f 123 154 155
f 123 155 150
f 125 131 126
f 126 131 127
f 127 156 157
f 127 157 158
f 127 158 128
f 127 131 130
f 127 130 156
f 129 152 159
f 129 159 160
f 129 160 130
f 130 160 161
f 130 161 162
f 130 162 156
f 132 163 164
f 132 164 165
f 132 165 166
f 132 166 167
f 132 167 136
f 132 136 135
f 133 168 169
f 133 169 170
f 133 170 171
f 133 171 172
f 133 172 134
f 136 167 138
f 138 167 166
f 138 166 165
f 138 165 190
f 138 190 204
f 138 204 203
f 138 203 221
f 138 221 209
f 138 209 207
f 138 207 220
f 138 220 200
f 138 200 199
f 138 199 198
f 138 198 218
f 138 218 228
f 138 228 215
f 138 215 195
f 138 195 194
f 138 194 175
f 138 175 173
f 138 173 141
f 138 141 140
f 138 140 139
f 141 173 142
f 142 174 143
f 142 173 175
f 142 175 174
f 143 147 144
f 143 174 147
f 144 147 146
f 147 174 176
f 147 176 148
f 148 176 149
f 149 176 177
f 149 177 153
f 150 155 178
f 150 178 151
f 151 178 152
f 152 178 179
f 152 179 180
f 152 180 159
f 153 177 181
f 153 181 154
f 154 181 182
f 154 182 155
f 155 182 183
f 155 183 179
f 155 179 178
f 159 180 184
f 159 184 160
f 160 184 185
f 160 185 186
f 160 186 187
f 160 187 161
f 161 187 188
f 161 188 162
f 162 188 189
f 163 190 165
f 163 165 164
f 168 191 169
f 169 191 193
f 169 193 192
f 174 175 194
f 174 194 195
f 174 195 196
f 174 196 176
f 176 196 197
f 176 197 177
f 177 197 198
f 177 198 199
f 177 199 200
f 177 200 201
f 177 201 181
f 179 183 202
f 179 202 203
f 179 203 204
f 179 204 205
f 179 205 180
f 180 205 184
f 181 201 206
f 181 206 207
f 181 207 182
f 182 208 183
f 182 207 209
f 182 209 208
f 183 208 202
f 184 205 210
f 188 211 212
f 188 212 189
f 192 193 214
f 192 214 213
f 195 215 216
f 195 216 196
f 196 216 217
f 196 217 218
f 196 218 219
f 196 219 197
f 197 219 198
f 198 219 218
f 200 220 201
f 201 220 206
f 202 208 209
f 202 209 221
f 202 221 203
f 204 210 205
f 206 220 207
f 211 222 223
f 211 223 224
f 211 224 212
f 213 214 226
f 213 226 227
f 213 227 225
f 215 228 216
f 216 228 217
f 217 228 218
f 222 225 227
f 222 227 223

