# https://github.com/mikedh/trimesh
v 0.14564579 0.08372671 0.00946009
v 0.14564579 0.08403590 0.01451636
v 0.14564579 0.08586834 0.00946009
v 0.15006484 0.07938803 0.00946009
v 0.14564579 0.08411404 0.01513346
v 0.15040758 0.07938736 0.01448484
v 0.14564579 0.08591375 0.00946815
v 0.14565446 0.08590907 0.00946009
v 0.15035944 0.07938736 0.01342947
v 0.15035944 0.07938736 0.01343020
v 0.15231190 0.07938803 0.00946009
v 0.15239470 0.07938669 0.01015121
v 0.14564579 0.08421354 0.01553802
v 0.15054525 0.07938736 0.01532987
v 0.15239470 0.07938669 0.01342947
v 0.14564579 0.08620892 0.01086066
v 0.14830492 0.08620892 0.01230447
v 0.14890086 0.08620892 0.01264234
v 0.14905298 0.08620892 0.01274861
v 0.14622825 0.08557050 0.00946009
v 0.14941786 0.08620892 0.01304030
v 0.15179009 0.08018872 0.00946009
v 0.15469088 0.08006451 0.01293183
v 0.15500666 0.07938669 0.01287027
v 0.14564579 0.08435778 0.01589201
v 0.15071180 0.07938736 0.01580259
v 0.15194221 0.07938736 0.01683452
v 0.15192392 0.07938736 0.01683012
v 0.15163990 0.07938736 0.01672971
v 0.15153977 0.07938736 0.01666888
v 0.15116815 0.07938736 0.01638378
v 0.15089955 0.07938736 0.01612580
v 0.15085333 0.07938736 0.01607303
v 0.15530030 0.07938669 0.01342947
v 0.15297718 0.07938736 0.01694665
v 0.15265177 0.07938736 0.01693492
v 0.15255453 0.07938736 0.01692979
v 0.14564579 0.08620892 0.01688215
v 0.14691278 0.08509436 0.00946009
v 0.14950163 0.08620892 0.01313191
v 0.14969803 0.08599122 0.01306522
v 0.14860723 0.08370401 0.00946009
v 0.14761847 0.08454343 0.00946009
v 0.15161294 0.08043580 0.00946009
v 0.15380610 0.08114234 0.01274274
v 0.15431541 0.08084450 0.01314217
v 0.15510390 0.07960439 0.01317149
v 0.15520499 0.07938669 0.01315170
v 0.14564579 0.08463358 0.01623427
v 0.14564579 0.08587769 0.01684624
v 0.14564579 0.08582961 0.01683598
v 0.14564579 0.08546833 0.01673118
v 0.14564579 0.08543293 0.01671798
v 0.14564579 0.08504227 0.01652303
v 0.14564579 0.08500822 0.01650544
v 0.15523002 0.07938669 0.01320520
v 0.15530030 0.07938736 0.01342947
v 0.15537155 0.07938736 0.01365887
v 0.15539946 0.07938736 0.01375488
v 0.15540909 0.07938736 0.01381131
v 0.15548034 0.07938736 0.01442401
v 0.15547552 0.07938736 0.01468859
v 0.15544279 0.07938736 0.01511147
v 0.15541198 0.07938736 0.01531228
v 0.15538406 0.07938736 0.01543028
v 0.15522232 0.07938736 0.01586342
v 0.15515974 0.07938736 0.01599241
v 0.15498644 0.07938736 0.01629803
v 0.15493349 0.07938736 0.01636619
v 0.15478619 0.07938736 0.01653842
v 0.15450699 0.07938736 0.01672605
v 0.15421239 0.07938736 0.01681399
v 0.15398422 0.07938736 0.01686236
v 0.15369635 0.07938736 0.01692026
v 0.14718042 0.08578019 0.01692833
v 0.14651612 0.08620892 0.01692466
v 0.14585567 0.08620892 0.01690341
v 0.14564579 0.08599789 0.01685943
v 0.14969611 0.08620892 0.01338110
v 0.14979911 0.08612344 0.01338916
v 0.15076476 0.08505162 0.01320593
v 0.15101219 0.08451204 0.01286807
v 0.14996086 0.08243653 0.00946009
v 0.14950163 0.08287727 0.00946009
v 0.14889702 0.08343688 0.00946009
v 0.15367324 0.08158642 0.01298313
v 0.15083311 0.08144551 0.00946009
v 0.15446560 0.08078841 0.01342947
v 0.15475634 0.08032495 0.01342947
v 0.15389371 0.08155303 0.01334445
v 0.15412381 0.08127389 0.01342947
v 0.15524639 0.07948954 0.01342947
v 0.15454646 0.08075835 0.01358631
v 0.15515685 0.07997636 0.01447312
v 0.15386483 0.08183885 0.01487181
v 0.15395148 0.08149159 0.01551969
v 0.15480159 0.08016001 0.01569925
v 0.15422875 0.08067020 0.01622328
v 0.15409782 0.08057538 0.01647466
v 0.15303397 0.08161046 0.01668794
v 0.15341619 0.08072028 0.01680960
v 0.15302339 0.08072363 0.01689168
v 0.14701002 0.08620892 0.01689828
v 0.14658640 0.08620892 0.01692393
v 0.15155421 0.08290866 0.01682719
v 0.14973076 0.08620892 0.01345219
v 0.15007447 0.08599455 0.01380105
v 0.15086488 0.08515380 0.01367426
v 0.15239470 0.08330666 0.01328509
v 0.15223970 0.08343756 0.01320154
v 0.15215690 0.08343756 0.01308794
v 0.15001381 0.08237843 0.00946009
v 0.15239470 0.08313170 0.01304103
v 0.15239470 0.08293938 0.01282629
v 0.15283276 0.08244120 0.01281383
v 0.15273841 0.08289063 0.01319934
v 0.15384558 0.08164585 0.01342947
v 0.15358274 0.08213068 0.01387727
v 0.15437509 0.08113766 0.01420268
v 0.15298102 0.08294606 0.01464461
v 0.15257185 0.08334941 0.01536872
v 0.15299257 0.08253804 0.01597116
v 0.15237930 0.08305558 0.01628924
v 0.15193836 0.08332937 0.01649592
v 0.15180647 0.08343756 0.01652010
v 0.15158695 0.08343688 0.01664323
v 0.14779465 0.08620892 0.01681986
v 0.15120089 0.08392372 0.01663077
v 0.15006773 0.08489870 0.01669013
v 0.15002729 0.08463425 0.01677149
v 0.14983762 0.08620892 0.01376807
v 0.14990984 0.08620892 0.01408321
v 0.14991850 0.08620892 0.01413672
v 0.15117393 0.08494010 0.01456619
v 0.15218578 0.08378681 0.01401066
v 0.15239470 0.08335608 0.01342947
v 0.15239470 0.08321384 0.01313338
v 0.15302627 0.08263153 0.01342947
v 0.15240145 0.08343756 0.01369331
v 0.15248136 0.08343756 0.01398207
v 0.15251794 0.08343756 0.01427377
v 0.15253720 0.08343756 0.01462483
v 0.15249580 0.08343756 0.01532474
v 0.15248713 0.08343688 0.01538411
v 0.15245729 0.08343756 0.01547059
v 0.15245729 0.08343688 0.01547206
v 0.15185652 0.08389232 0.01601294
v 0.15214246 0.08343688 0.01616318
v 0.15206160 0.08343756 0.01627458
v 0.15186808 0.08343756 0.01647320
v 0.15184690 0.08343688 0.01649298
v 0.15083119 0.08461288 0.01645854
v 0.14840120 0.08620892 0.01669673
v 0.14974713 0.08543293 0.01657873
v 0.14852058 0.08620892 0.01666228
v 0.14844548 0.08620892 0.01668647
v 0.14992331 0.08620892 0.01418362
v 0.15116334 0.08478718 0.01563329
v 0.14989924 0.08620892 0.01472816
v 0.15109113 0.08459953 0.01622987
v 0.14995316 0.08569337 0.01620789
v 0.14942749 0.08595315 0.01640650
v 0.14891820 0.08620892 0.01650544
v 0.14884021 0.08620892 0.01654575
v 0.14988288 0.08620892 0.01483517
v 0.14985592 0.08620892 0.01496489
v 0.15014667 0.08580690 0.01551896
v 0.14988576 0.08592844 0.01587588
v 0.14937069 0.08620892 0.01616611
v 0.14922435 0.08620892 0.01630463
v 0.14910497 0.08620892 0.01639111
v 0.14971632 0.08620892 0.01546106
v 0.14962967 0.08620892 0.01571025
v 0.14956516 0.08620892 0.01585829
f 1 2 5
f 1 5 13
f 1 13 25
f 1 25 49
f 1 49 55
f 1 55 54
f 1 54 53
f 1 53 52
f 1 52 51
f 1 51 50
f 1 50 78
f 1 78 38
f 1 38 16
f 1 16 7
f 1 7 3
f 1 3 8
f 1 8 20
f 1 20 39
f 1 39 43
f 1 43 42
f 1 42 85
f 1 85 84
f 1 84 83
f 1 83 112
f 1 112 87
f 1 87 44
f 1 44 22
f 1 22 11
f 1 11 4
f 1 4 2
f 2 4 6
f 2 6 5
f 3 7 8
f 4 9 10
f 4 10 6
f 4 11 12
f 4 12 9
f 5 6 14
f 5 14 13
f 6 10 15
f 6 15 14
f 7 16 17
f 7 17 18
f 7 18 19
f 7 19 8
f 8 19 21
f 8 21 20
f 9 12 15
f 9 15 10
f 11 22 23
f 11 23 24
f 11 24 12
f 12 24 48
f 12 48 56
f 12 56 34
f 12 34 15
f 13 14 26
f 13 26 25
f 14 15 26
f 15 27 28
f 15 28 29
f 15 29 30
f 15 30 31
f 15 31 32
f 15 32 33
f 15 33 26
f 15 34 35
f 15 35 36
f 15 36 37
f 15 37 27
f 16 38 77
f 16 77 76
f 16 76 104
f 16 104 103
f 16 103 127
f 16 127 153
f 16 153 156
f 16 156 155
f 16 155 164
f 16 164 163
f 16 163 171
f 16 171 170
f 16 170 169
f 16 169 174
f 16 174 173
f 16 173 172
f 16 172 166
f 16 166 165
f 16 165 159
f 16 159 157
f 16 157 133
f 16 133 132
f 16 132 131
f 16 131 106
f 16 106 79
f 16 79 40
f 16 40 21
f 16 21 19
f 16 19 18
f 16 18 17
f 20 21 39
f 21 40 41
f 21 41 42
f 21 42 43
f 21 43 39
f 22 44 45
f 22 45 23
f 23 46 47
f 23 47 24
f 23 45 46
f 24 47 48
f 25 26 33
f 25 33 49
f 27 37 50
f 27 50 51
f 27 51 28
f 28 51 52
f 28 52 29
f 29 52 53
f 29 53 54
f 29 54 55
f 29 55 30
f 30 55 49
f 30 49 31
f 31 49 32
f 32 49 33
f 34 56 57
f 34 57 58
f 34 58 59
f 34 59 60
f 34 60 61
f 34 61 62
f 34 62 63
f 34 63 64
f 34 64 65
f 34 65 66
f 34 66 67
f 34 67 68
f 34 68 69
f 34 69 70
f 34 70 71
f 34 71 72
f 34 72 73
f 34 73 74
f 34 74 35
f 35 75 76
f 35 76 77
f 35 77 36
f 35 74 75
f 36 77 37
f 37 77 38
f 37 38 78
f 37 78 50
f 40 79 41
f 41 79 80
f 41 80 81
f 41 81 82
f 41 82 83
f 41 83 84
f 41 84 85
f 41 85 42
f 44 86 45
f 44 87 86
f 45 86 46
f 46 88 89
f 46 89 47
f 46 86 90
f 46 90 91
f 46 91 88
f 47 89 92
f 47 92 56
f 47 56 48
f 56 92 57
f 57 92 58
f 58 92 59
f 59 92 89
f 59 89 93
f 59 93 60
f 60 93 94
f 60 94 61
f 61 94 62
f 62 94 63
f 63 94 64
f 64 94 95
f 64 95 96
f 64 96 65
f 65 96 97
f 65 97 66
f 66 97 98
f 66 98 67
f 67 98 68
f 68 98 99
f 68 99 69
f 69 99 70
f 70 99 71
f 71 99 100
f 71 100 101
f 71 101 72
f 72 101 73
f 73 101 102
f 73 102 74
f 74 102 75
f 75 103 104
f 75 104 76
f 75 102 105
f 75 105 103
f 79 106 80
f 80 106 107
f 80 107 108
f 80 108 81
f 81 108 109
f 81 109 110
f 81 110 111
f 81 111 82
f 82 112 83
f 82 111 113
f 82 113 114
f 82 114 112
f 86 87 115
f 86 115 116
f 86 116 90
f 87 112 115
f 88 93 89
f 88 91 93
f 90 117 91
f 90 116 117
f 91 117 93
f 93 117 118
f 93 118 119
f 93 119 94
f 94 119 95
f 95 118 120
f 95 120 121
f 95 121 96
f 95 119 118
f 96 121 122
f 96 122 98
f 96 98 97
f 98 122 123
f 98 123 99
f 99 123 124
f 99 124 100
f 100 124 125
f 100 125 126
f 100 126 105
f 100 105 101
f 101 105 102
f 103 105 127
f 105 126 128
f 105 128 129
f 105 129 130
f 105 130 127
f 106 131 107
f 107 132 133
f 107 133 108
f 107 131 132
f 108 133 134
f 108 134 135
f 108 135 136
f 108 136 109
f 109 136 116
f 109 116 110
f 110 116 137
f 110 137 111
f 111 137 113
f 112 114 115
f 113 137 116
f 113 116 115
f 113 115 114
f 116 138 117
f 116 136 139
f 116 139 140
f 116 140 138
f 117 138 118
f 118 141 120
f 118 138 140
f 118 140 141
f 120 141 142
f 120 142 143
f 120 143 121
f 121 143 144
f 121 144 145
f 121 145 146
f 121 146 122
f 122 146 147
f 122 147 148
f 122 148 123
f 123 148 149
f 123 149 150
f 123 150 124
f 124 150 151
f 124 151 125
f 125 151 152
f 125 152 128
f 125 128 126
f 127 130 153
f 128 152 154
f 128 154 129
f 129 154 155
f 129 155 156
f 129 156 153
f 129 153 130
f 133 157 134
f 134 158 143
f 134 143 142
f 134 142 141
f 134 141 135
f 134 157 159
f 134 159 158
f 135 141 140
f 135 140 139
f 135 139 136
f 143 158 144
f 144 158 147
f 144 147 145
f 145 147 146
f 147 158 160
f 147 160 148
f 148 160 149
f 149 160 150
f 150 160 152
f 150 152 151
f 152 160 161
f 152 161 162
f 152 162 154
f 154 162 163
f 154 163 164
f 154 164 155
f 158 159 165
f 158 165 166
f 158 166 167
f 158 167 168
f 158 168 160
f 160 168 161
f 161 168 169
f 161 169 170
f 161 170 162
f 162 170 171
f 162 171 163
f 166 172 167
f 167 172 173
f 167 173 168
f 168 173 174
f 168 174 169

