# https://github.com/mikedh/trimesh
v 0.00003062 -0.08838668 -0.00492116
v 0.00003062 -0.08636617 -0.00492116
v 0.00213106 -0.08843673 -0.00492116
v 0.00003062 -0.08825262 -0.00183115
v 0.00003062 -0.08600629 0.00555987
v 0.01066651 -0.08577545 0.00599810
v 0.01088610 -0.08578880 0.00556629
v 0.01597490 -0.08597986 0.00017079
v 0.01229912 -0.08616148 -0.00301649
v 0.01480056 -0.08625464 -0.00492116
v 0.00442246 -0.08848708 -0.00492116
v 0.00458477 -0.08845649 -0.00404471
v 0.00003062 -0.08783267 0.00599810
v 0.00003062 -0.08599517 0.00599810
v 0.01183130 -0.08576238 0.00599810
v 0.02243854 -0.08582941 0.00353229
v 0.02301139 -0.08602354 -0.00087881
v 0.02169383 -0.08622712 -0.00492116
v 0.01747385 -0.08624185 -0.00492116
v 0.01291971 -0.08575459 0.00599810
v 0.09281295 -0.08858581 -0.00492116
v 0.09756758 -0.08837472 0.00599810
v 0.00598824 -0.08787968 0.00599810
v 0.02512138 -0.08576767 0.00523281
v 0.07442451 -0.08628301 -0.00492116
v 0.04635495 -0.08624074 -0.00492116
v 0.03387641 -0.08620820 -0.00454172
v 0.03404826 -0.08622850 -0.00492116
v 0.02367016 -0.08574458 0.00599810
v 0.09305163 -0.08858470 -0.00492116
v 0.09756758 -0.08852407 -0.00287968
v 0.09756758 -0.08626966 0.00599810
v 0.02624798 -0.08574653 0.00599810
v 0.02827204 -0.08575098 0.00599810
v 0.07476822 -0.08623685 -0.00331256
v 0.09756758 -0.08639871 -0.00492116
v 0.03179506 -0.08576544 0.00599810
v 0.09671785 -0.08853769 -0.00492116
v 0.09756758 -0.08852907 -0.00338738
v 0.09756758 -0.08627105 0.00511524
v 0.09118986 -0.08618094 0.00480313
v 0.09305163 -0.08620792 0.00599810
v 0.03293121 -0.08577323 0.00591152
v 0.04428315 -0.08582329 0.00599810
v 0.05892897 -0.08598042 0.00295191
v 0.09756758 -0.08852546 -0.00492116
v 0.07904549 -0.08618261 -0.00058274
v 0.06018924 -0.08590672 0.00599810
v 0.08227254 -0.08607276 0.00597351
v 0.08226299 -0.08607248 0.00599810
f 1 2 10
f 1 10 19
f 1 19 18
f 1 18 28
f 1 28 26
f 1 26 25
f 1 25 36
f 1 36 46
f 1 46 38
f 1 38 30
f 1 30 21
f 1 21 11
f 1 11 3
f 1 3 4
f 1 4 13
f 1 13 14
f 1 14 5
f 1 5 2
f 2 5 6
f 2 6 7
f 2 7 8
f 2 8 9
f 2 9 10
f 3 11 12
f 3 12 4
f 4 12 13
f 5 14 6
f 6 15 7
f 6 14 13
f 6 13 23
f 6 23 22
f 6 22 32
f 6 32 42
f 6 42 50
f 6 50 48
f 6 48 44
f 6 44 37
f 6 37 34
f 6 34 33
f 6 33 29
f 6 29 20
f 6 20 15
f 7 15 8
f 8 16 17
f 8 17 18
f 8 18 19
f 8 19 9
f 8 15 20
f 8 20 16
f 9 19 10
f 11 21 22
f 11 22 12
f 12 23 13
f 12 22 23
f 16 20 24
f 16 24 25
f 16 25 17
f 17 26 27
f 17 27 18
f 17 25 26
f 18 27 28
f 20 29 24
f 21 30 22
f 22 30 31
f 22 31 39
f 22 39 46
f 22 46 36
f 22 36 40
f 22 40 32
f 24 29 33
f 24 33 34
f 24 34 25
f 25 35 36
f 25 34 37
f 25 37 35
f 26 28 27
f 30 38 39
f 30 39 31
f 32 40 41
f 32 41 42
f 35 37 43
f 35 43 44
f 35 44 45
f 35 45 36
f 36 45 47
f 36 47 48
f 36 48 49
f 36 49 41
f 36 41 40
f 37 44 43
f 38 46 39
f 41 49 50
f 41 50 42
f 44 48 45
f 45 48 47
f 48 50 49

