# https://github.com/mikedh/trimesh
v -0.00728548 -0.08559181 0.01024225
v -0.00690019 -0.08559210 0.01024225
v -0.00602452 -0.08563964 0.00883226
v -0.00695273 -0.08565288 0.00841447
v -0.02371293 -0.08574315 0.00817506
v -0.02467616 -0.08574918 0.00817506
v -0.02336267 -0.08570314 0.01024225
v 0.00003507 -0.08565048 0.01095692
v 0.01373045 -0.08561647 0.01095692
v 0.02824896 -0.08568267 0.00918442
v -0.00707532 -0.08566402 0.00817506
v -0.00416811 -0.08578378 0.00817479
v -0.00222414 -0.08594837 0.00817452
v -0.04798634 -0.08594085 0.00817506
v -0.05620007 -0.08599200 0.01024225
v 0.00003507 -0.08732621 0.01095692
v 0.03008785 -0.08566131 0.01095692
v 0.02928224 -0.08568658 0.00918442
v -0.00616463 -0.08567274 0.00817506
v 0.06278514 -0.08587254 0.00918578
v 0.07732117 -0.08597575 0.00918578
v 0.00003507 -0.08589060 0.00817479
v 0.00001756 -0.08783353 0.00817479
v -0.00005250 -0.08783774 0.00817479
v -0.00096319 -0.08786663 0.00817479
v -0.00157615 -0.08785640 0.00817479
v -0.05620007 -0.08803303 0.00817506
v -0.05620007 -0.08602992 0.00817506
v 0.00003507 -0.08606542 0.00817479
v -0.05620007 -0.08780495 0.01024225
v 0.00005259 -0.08813353 0.01095692
v 0.04124381 -0.08574105 0.01095692
v 0.06444890 -0.08588127 0.01095664
v 0.04262736 -0.08573323 0.01095664
v -0.00514886 -0.08570314 0.00817506
v 0.12042134 -0.08641236 0.00918578
v 0.12268056 -0.08644516 0.00918578
v 0.07700593 -0.08599983 0.01095692
v 0.12268056 -0.08852079 0.00918578
v -0.03581461 -0.08839953 0.01024225
v -0.05607747 -0.08806342 0.01024225
v -0.05620007 -0.08806101 0.01023953
v 0.11914287 -0.08851537 0.00918578
v 0.12268056 -0.08866553 0.01095692
v 0.12268056 -0.08646713 0.01095692
f 1 2 3
f 1 3 4
f 1 4 5
f 1 5 6
f 1 6 7
f 1 7 8
f 1 8 9
f 1 9 2
f 2 9 10
f 2 10 3
f 3 10 4
f 4 11 5
f 4 10 11
f 5 11 12
f 5 12 6
f 6 12 13
f 6 13 14
f 6 14 7
f 7 14 15
f 7 15 8
f 8 16 31
f 8 31 44
f 8 44 45
f 8 45 38
f 8 38 32
f 8 32 17
f 8 17 9
f 8 15 30
f 8 30 16
f 9 17 10
f 10 17 18
f 10 18 11
f 11 19 12
f 11 18 20
f 11 20 21
f 11 21 19
f 12 19 22
f 12 22 13
f 13 23 24
f 13 24 25
f 13 25 26
f 13 26 27
f 13 27 28
f 13 28 14
f 13 22 29
f 13 29 23
f 14 28 15
f 15 28 27
f 15 27 42
f 15 42 30
f 16 30 31
f 17 32 33
f 17 33 34
f 17 34 20
f 17 20 18
f 19 35 22
f 19 21 36
f 19 36 37
f 19 37 35
f 20 34 33
f 20 33 21
f 21 33 38
f 21 38 36
f 22 37 39
f 22 39 29
f 22 35 37
f 23 29 39
f 23 39 24
f 24 39 25
f 25 27 26
f 25 39 27
f 27 40 41
f 27 41 42
f 27 39 43
f 27 43 40
f 30 42 41
f 30 41 31
f 31 41 40
f 31 40 44
f 32 38 33
f 36 38 45
f 36 45 37
f 37 45 44
f 37 44 39
f 39 44 40
f 39 40 43

