# https://github.com/mikedh/trimesh
v 0.14349499 -0.04655741 -0.01090885
v 0.14349499 -0.04920585 -0.01087592
v 0.14349499 -0.04655741 -0.01425645
v 0.14174303 -0.04655741 -0.01092323
v 0.14312034 -0.05683118 -0.01079531
v 0.14349499 -0.05684002 -0.01079152
v 0.14349499 -0.04774744 -0.01425077
v 0.12137132 -0.06162226 -0.01463871
v 0.12909381 -0.04655741 -0.01443358
v 0.13429773 -0.05918911 -0.01089220
v 0.13944534 -0.06162226 -0.01079115
v 0.14202239 -0.05918911 -0.01078396
v 0.12556390 -0.04655741 -0.01115789
v 0.14088546 -0.06162226 -0.01077260
v 0.14349499 -0.06162226 -0.01078547
v 0.14349499 -0.04995202 -0.01423564
v 0.12137132 -0.06162226 -0.01108106
v 0.12137132 -0.04655741 -0.01452668
v 0.12414111 -0.04655741 -0.01449375
v 0.14349499 -0.06162226 -0.01415161
v 0.13554295 -0.06162226 -0.01084754
v 0.12544263 -0.04655741 -0.01115978
v 0.12137132 -0.05620888 -0.01111853
v 0.12930388 -0.05918911 -0.01096714
v 0.12137132 -0.05918911 -0.01109620
v 0.12252991 -0.06162226 -0.01105721
v 0.12137132 -0.04655741 -0.01122563
v 0.13002502 -0.06162226 -0.01093080
v 0.12137132 -0.04788605 -0.01121049
v 0.12137132 -0.05687689 -0.01111171
v 0.12558772 -0.05918911 -0.01102353
v 0.12137132 -0.05755522 -0.01110641
v 0.12193654 -0.05918911 -0.01108484
f 1 2 6
f 1 6 15
f 1 15 20
f 1 20 16
f 1 16 7
f 1 7 3
f 1 3 9
f 1 9 19
f 1 19 18
f 1 18 27
f 1 27 22
f 1 22 13
f 1 13 4
f 1 4 2
f 2 4 5
f 2 5 6
f 3 7 8
f 3 8 9
f 4 10 11
f 4 11 12
f 4 12 5
f 4 13 10
f 5 12 6
f 6 12 14
f 6 14 15
f 7 16 8
f 8 17 25
f 8 25 32
f 8 32 30
f 8 30 23
f 8 23 29
f 8 29 27
f 8 27 18
f 8 18 19
f 8 19 9
f 8 16 20
f 8 20 15
f 8 15 14
f 8 14 11
f 8 11 21
f 8 21 28
f 8 28 26
f 8 26 17
f 10 21 11
f 10 13 21
f 11 14 12
f 13 22 23
f 13 23 24
f 13 24 21
f 17 26 25
f 21 24 28
f 22 27 29
f 22 29 23
f 23 30 31
f 23 31 28
f 23 28 24
f 25 26 32
f 26 28 33
f 26 33 32
f 28 31 32
f 28 32 33
f 30 32 31

