# https://github.com/mikedh/trimesh
v 0.14348698 0.00009077 -0.01131873
v 0.14348698 0.00009077 -0.01444859
v 0.14188432 0.00009077 -0.01133364
v 0.14348698 -0.02952905 -0.01106788
v 0.14348698 -0.00379147 -0.01443631
v 0.10592056 0.00009077 -0.01505597
v 0.14066629 -0.02952905 -0.01110209
v 0.12912712 0.00009077 -0.01151563
v 0.06163097 0.00008497 -0.01243613
v 0.14348698 -0.02952905 -0.01433413
v 0.14348698 -0.01866516 -0.01438895
v 0.10102442 -0.02765606 -0.01500817
v 0.09354801 -0.00881605 -0.01519981
v 0.09700975 -0.00439453 -0.01516780
v 0.09788320 0.00009077 -0.01517306
v 0.13946430 -0.02952905 -0.01111875
v 0.07676011 0.00009077 -0.01232167
v 0.06163097 0.00008497 -0.01552872
v 0.06163097 -0.02952325 -0.01228571
v 0.13264496 -0.02952905 -0.01122049
v 0.10253894 -0.02952905 -0.01497002
v 0.10213027 -0.02901296 -0.01498098
v 0.08462117 -0.02750530 -0.01524761
v 0.09186521 -0.01096157 -0.01521516
v 0.07676011 -0.01000189 -0.01540943
v 0.07726495 -0.00766790 -0.01540987
v 0.07676011 -0.00718951 -0.01541469
v 0.07033343 0.00008497 -0.01546688
v 0.08569495 0.00009077 -0.01529585
v 0.07676011 0.00009077 -0.01533444
v 0.06163097 -0.00257663 -0.01553836
v 0.08500581 0.00009077 -0.01530243
v 0.06623061 0.00008497 -0.01549977
v 0.09354801 -0.02952905 -0.01187567
v 0.09908521 -0.02952905 -0.01174499
v 0.06163097 -0.02952325 -0.01551863
v 0.09769089 -0.02952905 -0.01504106
v 0.08460514 -0.02952325 -0.01523095
v 0.07417982 -0.02193853 -0.01540242
v 0.06200759 -0.01061655 -0.01554494
v 0.06887500 -0.00048040 -0.01548311
v 0.06465199 -0.00670822 -0.01552126
v 0.06873878 0.00008497 -0.01548267
v 0.06163097 -0.01003088 -0.01554714
v 0.09354801 -0.02952905 -0.01510070
v 0.06163097 -0.01079051 -0.01554757
f 1 2 6
f 1 6 15
f 1 15 29
f 1 29 32
f 1 32 30
f 1 30 17
f 1 17 8
f 1 8 3
f 1 3 4
f 1 4 10
f 1 10 11
f 1 11 5
f 1 5 2
f 2 5 6
f 3 7 4
f 3 8 9
f 3 9 7
f 4 7 16
f 4 16 20
f 4 20 35
f 4 35 34
f 4 34 45
f 4 45 37
f 4 37 21
f 4 21 10
f 5 11 6
f 6 12 13
f 6 13 14
f 6 14 15
f 6 11 12
f 7 9 16
f 8 17 9
f 9 17 30
f 9 30 18
f 9 18 31
f 9 31 44
f 9 44 46
f 9 46 36
f 9 36 19
f 9 19 20
f 9 20 16
f 10 21 22
f 10 22 12
f 10 12 11
f 12 22 23
f 12 23 24
f 12 24 13
f 13 24 15
f 13 15 14
f 15 24 25
f 15 25 26
f 15 26 27
f 15 27 28
f 15 28 29
f 18 30 32
f 18 32 33
f 18 33 31
f 19 34 35
f 19 35 20
f 19 36 45
f 19 45 34
f 21 37 22
f 22 37 38
f 22 38 23
f 23 38 36
f 23 36 39
f 23 39 24
f 24 39 25
f 25 39 36
f 25 36 26
f 26 36 40
f 26 40 27
f 27 41 28
f 27 40 42
f 27 42 41
f 28 41 43
f 28 43 29
f 29 43 32
f 31 33 43
f 31 43 41
f 31 41 42
f 31 42 44
f 32 43 33
f 36 46 40
f 36 38 45
f 37 45 38
f 40 46 44
f 40 44 42

