# https://github.com/mikedh/trimesh
v -0.11208583 0.08650355 0.00670841
v -0.11208583 0.08860411 0.00670841
v -0.10624545 0.08646555 0.00670841
v -0.10692575 0.08653735 0.00898250
v -0.10809722 0.08655120 0.00898250
v -0.11208583 0.08653609 0.00747905
v -0.11208583 0.08858627 0.00778357
v -0.10058291 0.08860747 0.00670841
v -0.09664510 0.08651132 0.00670841
v -0.09287948 0.08651530 0.00898250
v -0.11029900 0.08659214 0.00898250
v -0.11208583 0.08654490 0.00767316
v -0.11208583 0.08855141 0.00898250
v -0.11124464 0.08856297 0.00898250
v -0.08336099 0.08856611 0.00898250
v -0.08561075 0.08861020 0.00670841
v -0.09357106 0.08657702 0.00670841
v -0.09348920 0.08656149 0.00696952
v -0.09232903 0.08654889 0.00760304
v -0.09196771 0.08652160 0.00898250
v -0.11082687 0.08660326 0.00898250
v -0.11208583 0.08664819 0.00898250
v -0.08325090 0.08856528 0.00898250
v -0.08492763 0.08860915 0.00670841
v -0.09177859 0.08663833 0.00670841
v -0.08637856 0.08670740 0.00830668
v -0.08650559 0.08667989 0.00898250
v -0.08325090 0.08678444 0.00898250
v -0.08325090 0.08855876 0.00670841
v -0.08639832 0.08688016 0.00670841
v -0.08325090 0.08679619 0.00884315
v -0.08325090 0.08707351 0.00670841
v -0.08500667 0.08695133 0.00670841
v -0.08325090 0.08689969 0.00804513
v -0.08349647 0.08705378 0.00670841
f 1 2 8
f 1 8 16
f 1 16 24
f 1 24 29
f 1 29 32
f 1 32 35
f 1 35 33
f 1 33 30
f 1 30 25
f 1 25 17
f 1 17 9
f 1 9 3
f 1 3 4
f 1 4 5
f 1 5 6
f 1 6 12
f 1 12 22
f 1 22 13
f 1 13 7
f 1 7 2
f 2 7 8
f 3 9 10
f 3 10 4
f 4 10 20
f 4 20 27
f 4 27 28
f 4 28 23
f 4 23 15
f 4 15 14
f 4 14 13
f 4 13 22
f 4 22 21
f 4 21 11
f 4 11 5
f 5 11 12
f 5 12 6
f 7 13 14
f 7 14 15
f 7 15 16
f 7 16 8
f 9 17 18
f 9 18 19
f 9 19 20
f 9 20 10
f 11 21 12
f 12 21 22
f 15 23 24
f 15 24 16
f 17 19 18
f 17 25 19
f 19 25 26
f 19 26 27
f 19 27 20
f 23 28 31
f 23 31 34
f 23 34 32
f 23 32 29
f 23 29 24
f 25 30 26
f 26 30 31
f 26 31 28
f 26 28 27
f 30 33 31
f 31 33 35
f 31 35 34
f 32 34 35

