# https://github.com/mikedh/trimesh
v -0.06886381 0.03640695 -0.01663455
v -0.06807561 0.03609180 -0.01659423
v -0.06734605 0.03533197 -0.01656092
v -0.06734605 0.03513969 -0.01653681
v -0.06754688 0.03521144 -0.01653418
v -0.06949917 0.03659051 -0.01660606
v -0.07217834 0.03799892 -0.01650087
v -0.07203528 0.03799892 -0.01649912
v -0.06916683 0.03689694 -0.01656618
v -0.06734605 0.03599334 -0.01649780
v -0.06734605 0.03558932 -0.01655785
v -0.06734605 0.03505982 -0.01650394
v -0.07642415 0.03503165 -0.01524210
v -0.07271062 0.03799892 -0.01645617
v -0.07249469 0.03799892 -0.01647808
v -0.07144080 0.03799892 -0.01644302
v -0.07006522 0.03758764 -0.01645617
v -0.06911884 0.03725362 -0.01642724
v -0.06734605 0.03658877 -0.01628348
v -0.06734605 0.03601309 -0.01649079
v -0.06734605 0.03503165 -0.01648729
v -0.07642415 0.03503165 -0.01216749
v -0.07642415 0.03799892 -0.01533195
v -0.07344551 0.03799892 -0.01626814
v -0.07313894 0.03799892 -0.01635755
v -0.07130661 0.03799892 -0.01643031
v -0.07032202 0.03799892 -0.01631372
v -0.06967601 0.03799892 -0.01621072
v -0.06957470 0.03784005 -0.01626507
v -0.06957470 0.03778747 -0.01628830
v -0.06954804 0.03779822 -0.01627910
v -0.06880338 0.03762250 -0.01619757
v -0.06734605 0.03664076 -0.01626463
v -0.06734605 0.03503165 -0.01223542
v -0.07642415 0.03585189 -0.01216442
v -0.06734605 0.03799892 -0.01221921
v -0.07642415 0.03799892 -0.01215697
v -0.06861500 0.03799892 -0.01597755
v -0.06734605 0.03799892 -0.01565716
v -0.06734605 0.03672151 -0.01623045
f 1 2 3
f 1 3 4
f 1 4 5
f 1 5 6
f 1 6 7
f 1 7 8
f 1 8 9
f 1 9 2
f 2 9 10
f 2 10 11
f 2 11 3
f 3 11 10
f 3 10 20
f 3 20 19
f 3 19 33
f 3 33 40
f 3 40 39
f 3 39 36
f 3 36 34
f 3 34 21
f 3 21 12
f 3 12 4
f 4 12 13
f 4 13 5
f 5 13 6
f 6 13 14
f 6 14 15
f 6 15 7
f 7 15 14
f 7 14 25
f 7 25 24
f 7 24 23
f 7 23 37
f 7 37 36
f 7 36 39
f 7 39 38
f 7 38 28
f 7 28 27
f 7 27 26
f 7 26 16
f 7 16 8
f 8 16 17
f 8 17 9
f 9 17 18
f 9 18 19
f 9 19 20
f 9 20 10
f 12 21 13
f 13 22 35
f 13 35 37
f 13 37 23
f 13 23 24
f 13 24 25
f 13 25 14
f 13 21 34
f 13 34 22
f 16 26 17
f 17 27 28
f 17 28 29
f 17 29 30
f 17 30 18
f 17 26 27
f 18 30 31
f 18 31 32
f 18 32 33
f 18 33 19
f 22 34 36
f 22 36 35
f 28 38 29
f 29 31 30
f 29 38 31
f 31 38 32
f 32 38 39
f 32 39 40
f 32 40 33
f 35 36 37

