# https://github.com/mikedh/trimesh
v -0.15212312 0.05753597 -0.01153377
v -0.15212312 0.05753597 -0.01148710
v -0.15212312 0.06309464 -0.01153377
v -0.14681095 0.05753597 -0.01153377
v -0.14973972 0.05753597 -0.01150389
v -0.15212312 0.06699803 -0.01139957
v -0.15212312 0.06699803 -0.01153376
v -0.14869851 0.06309464 -0.01153377
v -0.14656276 0.05768140 -0.01153377
v -0.14656276 0.05753597 -0.01152895
v -0.14781624 0.05753597 -0.01151748
v -0.14815151 0.06699803 -0.01150894
v -0.14815151 0.06699803 -0.01153376
v -0.14656276 0.05834277 -0.01153377
f 1 2 6
f 1 6 7
f 1 7 3
f 1 3 8
f 1 8 14
f 1 14 9
f 1 9 4
f 1 4 10
f 1 10 11
f 1 11 5
f 1 5 2
f 2 5 6
f 3 7 13
f 3 13 8
f 4 9 10
f 5 11 6
f 6 12 13
f 6 13 7
f 6 11 10
f 6 10 12
f 8 13 14
f 9 14 10
f 10 14 12
f 12 14 13

