# https://github.com/mikedh/trimesh
v -0.06166343 0.03249488 -0.01670447
v -0.06170248 0.03249488 -0.01670092
v -0.06734297 0.03503164 -0.01648731
v -0.06584390 0.03457267 -0.01656458
v -0.06558357 0.03457267 -0.01657036
v -0.06532758 0.03457267 -0.01656547
v -0.06204307 0.03301818 -0.01664363
v -0.06130114 0.03249488 -0.01668671
v -0.05787129 0.03249438 -0.01593798
v -0.06207128 0.03249488 -0.01664097
v -0.07642415 0.03264911 -0.01529050
v -0.07642415 0.03276684 -0.01528872
v -0.07642415 0.03503164 -0.01524165
v -0.06734297 0.03503164 -0.01223606
v -0.05426137 0.03487667 -0.01537176
v -0.06525599 0.03457267 -0.01656147
v -0.06106250 0.03259894 -0.01664097
v -0.06102562 0.03249488 -0.01666006
v -0.06089762 0.03249488 -0.01664585
v -0.05426137 0.03249438 -0.01540463
v -0.05787129 0.03249438 -0.01230090
v -0.06734297 0.03249488 -0.01531892
v -0.07642415 0.03264911 -0.01218588
v -0.07642415 0.03503164 -0.01216768
v -0.05426137 0.03487667 -0.01226715
v -0.06957313 0.03503164 -0.01221874
v -0.06041818 0.03249488 -0.01656058
v -0.05426137 0.03249438 -0.01230401
v -0.06734297 0.03249488 -0.01224539
v -0.07642415 0.03468468 -0.01216901
v -0.07642415 0.03487443 -0.01216812
v -0.07409853 0.03503164 -0.01218499
f 1 2 3
f 1 3 4
f 1 4 5
f 1 5 6
f 1 6 7
f 1 7 8
f 1 8 9
f 1 9 2
f 2 9 10
f 2 10 11
f 2 11 3
f 3 11 12
f 3 12 13
f 3 13 24
f 3 24 32
f 3 32 26
f 3 26 14
f 3 14 25
f 3 25 15
f 3 15 16
f 3 16 6
f 3 6 5
f 3 5 4
f 6 16 7
f 7 16 15
f 7 15 17
f 7 17 8
f 8 17 18
f 8 18 9
f 9 18 19
f 9 19 20
f 9 20 28
f 9 28 21
f 9 21 29
f 9 29 22
f 9 22 10
f 10 22 11
f 11 23 30
f 11 30 31
f 11 31 24
f 11 24 13
f 11 13 12
f 11 22 29
f 11 29 23
f 14 26 25
f 15 25 28
f 15 28 20
f 15 20 27
f 15 27 19
f 15 19 17
f 17 19 18
f 19 27 20
f 21 28 29
f 23 29 28
f 23 28 25
f 23 25 30
f 24 31 25
f 24 25 32
f 25 31 30
f 25 26 32

