# https://github.com/mikedh/trimesh
v -0.15181263 0.03197576 0.00163116
v -0.15143902 0.02056315 0.00137666
v -0.15142281 0.03259302 0.00138797
v -0.15181263 0.03311884 0.00162890
v -0.15181263 0.02049913 0.00159836
v -0.15181241 0.01599536 0.00158818
v -0.15152764 0.00483423 0.00137440
v -0.15100566 0.01644802 0.00101809
v -0.15088416 0.03242842 0.00089367
v -0.15138794 0.03444940 0.00127486
v -0.15181263 0.03454085 0.00156103
v -0.15084973 0.01975384 0.00088688
v -0.15084329 0.01989101 0.00088122
v -0.15181263 0.01975384 0.00159610
v -0.15181263 0.00367285 0.00153615
v -0.15181241 0.00686893 0.00155311
v -0.15181263 0.00009727 0.00150221
v -0.15149455 0.00009727 0.00130653
v -0.15125533 0.00009727 0.00113233
v -0.15088149 0.00009727 0.00081675
v -0.15061273 0.03253816 0.00057582
v -0.15098723 0.03502095 0.00086878
v -0.15116425 0.03658012 0.00088462
v -0.15181263 0.03668986 0.00140380
v -0.15181263 0.03620519 0.00145018
v -0.15080487 0.00009727 0.00073644
v -0.15055164 0.00009727 0.00042425
v -0.15060939 0.01455507 0.00054867
v -0.15181263 0.00009727 -0.00297480
v -0.15040038 0.03307312 0.00022291
v -0.15065338 0.03542331 0.00039597
v -0.15046901 0.01965782 0.00034167
v -0.15068781 0.03828561 -0.00006214
v -0.15108340 0.03836334 0.00041746
v -0.15158274 0.03790153 0.00104637
v -0.15181263 0.03712423 0.00134386
v -0.15034263 0.00009727 0.00005663
v -0.15168425 0.00009727 -0.00992445
v -0.15181263 0.04248304 -0.00992219
v -0.15033485 0.01471053 0.00008943
v -0.15015094 0.02054486 -0.00028045
v -0.15007342 0.03224553 -0.00053608
v -0.15018848 0.03463687 -0.00037094
v -0.15041726 0.03657555 -0.00015715
v -0.15042237 0.03847765 -0.00060056
v -0.15055697 0.03958416 -0.00082791
v -0.15114071 0.03935554 0.00014260
v -0.15180397 0.03893488 0.00091289
v -0.15181263 0.03893488 0.00091968
v -0.15181263 0.03888916 0.00093326
v -0.15181263 0.03796555 0.00120699
v -0.15019247 0.00009727 -0.00023068
v -0.15168846 0.00352197 -0.00992445
v -0.14964473 0.00009727 -0.00992445
v -0.15181263 0.04680392 -0.00992219
v -0.15016182 0.00231943 -0.00028610
v -0.15001766 0.02561560 -0.00069331
v -0.15005520 0.00840982 -0.00055305
v -0.14995814 0.03540960 -0.00116951
v -0.14990060 0.02535955 -0.00113897
v -0.14990860 0.03211293 -0.00120571
v -0.15015538 0.03702364 -0.00080077
v -0.15024667 0.03890288 -0.00122833
v -0.15031508 0.04055807 -0.00208347
v -0.15059563 0.04050320 -0.00136859
v -0.15083841 0.04021058 -0.00071028
v -0.15154009 0.04039347 0.00001591
v -0.15163160 0.03956130 0.00052492
v -0.15181263 0.03957501 0.00064821
v -0.15006186 0.00009727 -0.00061187
v -0.15167514 0.00535548 -0.00992445
v -0.14956231 0.00530518 -0.00992445
v -0.14963317 0.00009727 -0.00931025
v -0.15181263 0.04461833 -0.00528795
v -0.15117115 0.04393705 -0.00500517
v -0.15157630 0.04659359 -0.00992219
v -0.14956165 0.00535548 -0.00992445
v -0.14994992 0.01825410 -0.00092180
v -0.14992237 0.00009727 -0.00103943
v -0.14989150 0.00247947 -0.00111296
v -0.14982953 0.03607259 -0.00215133
v -0.15000634 0.03754032 -0.00149302
v -0.14986462 0.00917797 -0.00124869
v -0.14981509 0.01878907 -0.00159256
v -0.14975267 0.02566590 -0.00232100
v -0.15009629 0.03997281 -0.00240018
v -0.15008274 0.04087814 -0.00321686
v -0.15031620 0.04159143 -0.00315464
v -0.15064582 0.04142225 -0.00205066
v -0.15092148 0.04121649 -0.00133918
v -0.15144946 0.04099245 -0.00047274
v -0.15181263 0.04041633 0.00021838
v -0.15181263 0.04105646 -0.00021032
v -0.15181263 0.04059008 0.00010866
v -0.15181263 0.03969847 0.00059392
v -0.14955765 0.00561610 -0.00992332
v -0.14959363 0.00009727 -0.00713169
v -0.15181263 0.04411537 -0.00429595
v -0.15124511 0.04325577 -0.00353131
v -0.15071024 0.04401020 -0.00637271
v -0.15083085 0.04578428 -0.00992219
v -0.15115760 0.04615921 -0.00992219
v -0.15078087 0.04311402 -0.00429030
v -0.15051321 0.04529961 -0.00992219
v -0.15018336 0.04464576 -0.00992219
v -0.15010052 0.04440800 -0.00992219
v -0.14991460 0.04386846 -0.00992219
v -0.14984085 0.04354382 -0.00992219
v -0.14974023 0.04264307 -0.00992219
v -0.14964384 0.02901287 -0.00992219
v -0.14954365 0.00728044 -0.00992332
v -0.14987972 0.00009727 -0.00126679
v -0.14982598 0.00009727 -0.00161631
v -0.14978110 0.00295956 -0.00181539
v -0.14971802 0.03533644 -0.00378468
v -0.14976355 0.04007340 -0.00533094
v -0.14991882 0.04036603 -0.00365913
v -0.14968515 0.01851473 -0.00298158
v -0.14995413 0.04180633 -0.00541803
v -0.15009696 0.04194807 -0.00466923
v -0.15038683 0.04287626 -0.00510924
v -0.15074111 0.04228185 -0.00294199
v -0.15120401 0.04219041 -0.00192624
v -0.15143258 0.04156399 -0.00098401
v -0.15181263 0.04159143 -0.00063901
v -0.15181263 0.04127136 -0.00036189
v -0.14960096 0.00009727 -0.00574154
v -0.15181263 0.04355297 -0.00320215
v -0.15181263 0.04299971 -0.00225653
v -0.15178820 0.04297228 -0.00224635
v -0.14982020 0.04133537 -0.00608314
v -0.14967071 0.03930525 -0.00744728
v -0.14959008 0.01628342 -0.00757170
v -0.14972091 0.00009727 -0.00269314
v -0.14968626 0.00810804 -0.00302683
v -0.14970181 0.00143240 -0.00286847
v -0.14963761 0.00009727 -0.00455159
v -0.15181263 0.04246932 -0.00154052
v -0.15181263 0.04222698 -0.00125887
v -0.15181263 0.04189777 -0.00090483
v -0.15181263 0.04298600 -0.00223617
v -0.15181263 0.04296771 -0.00221128
v -0.14969758 0.00009727 -0.00305284
f 1 2 3
f 1 3 4
f 1 4 11
f 1 11 25
f 1 25 24
f 1 24 36
f 1 36 51
f 1 51 50
f 1 50 49
f 1 49 69
f 1 69 95
f 1 95 92
f 1 92 94
f 1 94 93
f 1 93 126
f 1 126 125
f 1 125 140
f 1 140 139
f 1 139 138
f 1 138 142
f 1 142 141
f 1 141 129
f 1 129 128
f 1 128 98
f 1 98 74
f 1 74 55
f 1 55 39
f 1 39 29
f 1 29 17
f 1 17 15
f 1 15 14
f 1 14 5
f 1 5 6
f 1 6 2
f 2 6 7
f 2 7 8
f 2 8 3
f 3 9 10
f 3 10 11
f 3 11 4
f 3 8 12
f 3 12 13
f 3 13 9
f 5 14 6
f 6 14 15
f 6 15 16
f 6 16 7
f 7 16 15
f 7 15 17
f 7 17 18
f 7 18 19
f 7 19 8
f 8 19 20
f 8 20 12
f 9 21 22
f 9 22 10
f 9 13 21
f 10 22 23
f 10 23 24
f 10 24 25
f 10 25 11
f 12 20 13
f 13 20 26
f 13 26 27
f 13 27 28
f 13 28 21
f 17 29 38
f 17 38 54
f 17 54 73
f 17 73 97
f 17 97 127
f 17 127 137
f 17 137 143
f 17 143 134
f 17 134 113
f 17 113 112
f 17 112 79
f 17 79 70
f 17 70 52
f 17 52 37
f 17 37 27
f 17 27 26
f 17 26 20
f 17 20 19
f 17 19 18
f 21 30 31
f 21 31 22
f 21 28 32
f 21 32 30
f 22 31 23
f 23 31 33
f 23 33 34
f 23 34 35
f 23 35 36
f 23 36 24
f 27 37 32
f 27 32 28
f 29 39 38
f 30 32 40
f 30 40 41
f 30 41 42
f 30 42 43
f 30 43 44
f 30 44 31
f 31 44 33
f 32 37 40
f 33 44 45
f 33 45 46
f 33 46 47
f 33 47 34
f 34 47 35
f 35 47 48
f 35 48 49
f 35 49 50
f 35 50 51
f 35 51 36
f 37 52 40
f 38 53 71
f 38 71 77
f 38 77 72
f 38 72 54
f 38 39 53
f 39 55 53
f 40 52 56
f 40 56 41
f 41 57 42
f 41 56 58
f 41 58 57
f 42 59 43
f 42 57 60
f 42 60 61
f 42 61 59
f 43 59 62
f 43 62 44
f 44 62 45
f 45 63 46
f 45 62 63
f 46 63 64
f 46 64 65
f 46 65 66
f 46 66 47
f 47 66 67
f 47 67 68
f 47 68 48
f 48 68 49
f 49 68 69
f 52 70 56
f 53 55 71
f 54 72 73
f 55 74 75
f 55 75 76
f 55 76 77
f 55 77 71
f 56 70 58
f 57 58 78
f 57 78 60
f 58 70 79
f 58 79 80
f 58 80 78
f 59 61 81
f 59 81 82
f 59 82 62
f 60 78 80
f 60 80 83
f 60 83 84
f 60 84 61
f 61 84 85
f 61 85 81
f 62 82 63
f 63 86 64
f 63 82 86
f 64 87 88
f 64 88 89
f 64 89 65
f 64 86 87
f 65 89 90
f 65 90 66
f 66 90 91
f 66 91 67
f 67 92 68
f 67 91 93
f 67 93 94
f 67 94 92
f 68 95 69
f 68 92 95
f 72 77 96
f 72 96 97
f 72 97 73
f 74 98 99
f 74 99 75
f 75 100 101
f 75 101 102
f 75 102 76
f 75 99 103
f 75 103 100
f 76 102 77
f 77 102 101
f 77 101 104
f 77 104 105
f 77 105 106
f 77 106 107
f 77 107 108
f 77 108 109
f 77 109 110
f 77 110 111
f 77 111 96
f 79 112 80
f 80 112 113
f 80 113 114
f 80 114 83
f 81 85 115
f 81 115 116
f 81 116 117
f 81 117 82
f 82 117 86
f 83 114 84
f 84 114 85
f 85 114 118
f 85 118 115
f 86 117 87
f 87 117 119
f 87 119 120
f 87 120 88
f 88 120 121
f 88 121 122
f 88 122 89
f 89 122 123
f 89 123 90
f 90 123 124
f 90 124 91
f 91 124 125
f 91 125 126
f 91 126 93
f 96 111 97
f 97 111 127
f 98 128 99
f 99 128 129
f 99 129 130
f 99 130 123
f 99 123 122
f 99 122 103
f 100 104 101
f 100 103 121
f 100 121 104
f 103 122 121
f 104 121 105
f 105 121 120
f 105 120 106
f 106 120 107
f 107 120 119
f 107 119 108
f 108 119 131
f 108 131 109
f 109 131 116
f 109 116 132
f 109 132 110
f 110 132 111
f 111 133 127
f 111 132 133
f 113 134 114
f 114 135 118
f 114 134 136
f 114 136 135
f 115 132 116
f 115 118 133
f 115 133 132
f 116 131 117
f 117 131 119
f 118 135 137
f 118 137 127
f 118 127 133
f 123 130 138
f 123 138 139
f 123 139 124
f 124 139 140
f 124 140 125
f 129 141 130
f 130 141 142
f 130 142 138
f 134 143 136
f 135 136 137
f 136 143 137

