# https://github.com/mikedh/trimesh
v -0.14364647 0.05929180 -0.01153379
v -0.14471528 0.05753440 -0.01153379
v -0.15212311 0.05753440 -0.01153379
v -0.15212311 0.05753440 -0.01148709
v -0.14976061 0.05469569 -0.01149119
v -0.14580152 0.05575086 -0.01153379
v -0.15212311 0.05528972 -0.01153379
v -0.15212311 0.05619965 -0.01148906
v -0.15150323 0.05271607 -0.01153379
v -0.14832750 0.05187369 -0.01153379
v -0.15212311 0.05548071 -0.01152440
f 1 2 6
f 1 6 10
f 1 10 9
f 1 9 7
f 1 7 3
f 1 3 4
f 1 4 5
f 1 5 2
f 2 5 6
f 3 7 11
f 3 11 8
f 3 8 4
f 4 8 5
f 5 8 9
f 5 9 10
f 5 10 6
f 7 9 11
f 8 11 9

