# https://github.com/mikedh/trimesh
v 0.15580760 -0.07053973 0.01157943
v 0.15370024 -0.07053973 0.01157943
v 0.15570102 -0.07144320 0.01157943
v 0.15565093 -0.07053973 0.00597035
v 0.15357353 -0.07053973 0.00988617
v 0.15079090 -0.07769365 0.01157943
v 0.15542992 -0.07264078 0.01157943
v 0.15552078 -0.07128401 0.00597035
v 0.15350527 -0.07053973 0.00597035
v 0.15351951 -0.07053973 0.00847182
v 0.15079090 -0.07741428 0.00830820
v 0.15079090 -0.08130961 0.01157943
v 0.15492261 -0.07430645 0.01157943
v 0.15511709 -0.07289590 0.00597035
v 0.15514705 -0.07279681 0.00597035
v 0.15518093 -0.07266292 0.00597035
v 0.15079090 -0.07735313 0.00597035
v 0.15079090 -0.07741006 0.00816710
v 0.15079090 -0.08094907 0.00706900
v 0.15103006 -0.08059591 0.00597035
v 0.15134290 -0.08066549 0.01157943
v 0.15476005 -0.07480193 0.01157943
v 0.15455035 -0.07449726 0.00597035
v 0.15079090 -0.08084891 0.00597035
v 0.15117249 -0.08042618 0.00597035
v 0.15153100 -0.08007301 0.00712445
v 0.15186937 -0.07955645 0.00597035
v 0.15205256 -0.07932241 0.00597035
v 0.15200492 -0.07978943 0.01157943
v 0.15434556 -0.07576865 0.01157943
v 0.15394775 -0.07590886 0.00597035
v 0.15233887 -0.07890178 0.00597035
v 0.15255300 -0.07900931 0.01157943
v 0.15424832 -0.07599425 0.01157943
v 0.15307799 -0.07769787 0.00597035
v 0.15302889 -0.07778115 0.00597035
v 0.15306719 -0.07771684 0.00597035
v 0.15329801 -0.07772527 0.01157943
f 1 2 6
f 1 6 12
f 1 12 21
f 1 21 29
f 1 29 33
f 1 33 38
f 1 38 34
f 1 34 30
f 1 30 22
f 1 22 13
f 1 13 7
f 1 7 3
f 1 3 4
f 1 4 9
f 1 9 10
f 1 10 5
f 1 5 2
f 2 5 6
f 3 7 8
f 3 8 4
f 4 8 16
f 4 16 15
f 4 15 14
f 4 14 23
f 4 23 31
f 4 31 35
f 4 35 37
f 4 37 36
f 4 36 32
f 4 32 28
f 4 28 27
f 4 27 25
f 4 25 20
f 4 20 24
f 4 24 17
f 4 17 9
f 5 10 6
f 6 11 18
f 6 18 17
f 6 17 24
f 6 24 19
f 6 19 12
f 6 10 11
f 7 13 14
f 7 14 15
f 7 15 16
f 7 16 8
f 9 17 10
f 10 17 18
f 10 18 11
f 12 19 20
f 12 20 21
f 13 22 14
f 14 22 23
f 19 24 20
f 20 25 21
f 21 25 26
f 21 26 27
f 21 27 28
f 21 28 29
f 22 30 31
f 22 31 23
f 25 27 26
f 28 32 33
f 28 33 29
f 30 34 31
f 31 34 35
f 32 36 33
f 33 36 37
f 33 37 38
f 34 38 35
f 35 38 37

