# https://github.com/mikedh/trimesh
v 0.15588493 -0.04315882 0.00658989
v 0.15586551 -0.04020426 0.00658824
v 0.15380052 -0.04315882 0.00658989
v 0.15604720 -0.06387949 0.00658989
v 0.15585293 -0.04020426 0.00244950
v 0.15382185 -0.04020426 0.00658824
v 0.15605406 -0.06390016 0.00583815
v 0.15600225 -0.05672295 0.00348708
v 0.15597293 -0.05632264 -0.00708860
v 0.15379785 -0.04346099 0.00658989
v 0.15600416 -0.06658870 0.00658989
v 0.15607920 -0.06658870 0.00328716
v 0.15584113 -0.04799614 -0.00723895
v 0.15579199 -0.04815110 -0.01028890
v 0.15578704 -0.04802713 -0.01028890
v 0.15576190 -0.04755968 -0.01028890
v 0.15577789 -0.04020426 0.00091957
v 0.15300895 -0.04020426 0.00131279
v 0.15300895 -0.04022234 0.00195054
v 0.15218807 -0.04315882 -0.00158185
v 0.15603387 -0.06647248 -0.00563633
v 0.15600911 -0.06618839 -0.00790479
v 0.15600568 -0.06614965 -0.00819392
v 0.15585408 -0.05354886 -0.01028559
v 0.15390679 -0.06658870 0.00658989
v 0.15602892 -0.06658870 -0.00551737
v 0.15581370 -0.05031279 -0.01028890
v 0.15566704 -0.04705864 -0.01028890
v 0.15571809 -0.04020426 0.00052635
v 0.15300895 -0.04020426 -0.00173550
v 0.15218807 -0.04315882 -0.00313986
v 0.15218807 -0.04345325 -0.00197011
v 0.15602664 -0.06658870 -0.00587424
v 0.15598779 -0.06658870 -0.00840210
v 0.15597140 -0.06658870 -0.00912576
v 0.15594169 -0.06636918 -0.01028890
v 0.15345806 -0.06658870 -0.01028890
v 0.15218807 -0.04381224 -0.00260951
v 0.15218807 -0.04391037 -0.00278630
v 0.15218807 -0.04409116 -0.00313986
v 0.15218882 -0.04438817 -0.00372144
v 0.15218882 -0.04558652 -0.00631207
v 0.15218882 -0.04681845 -0.00903654
v 0.15561028 -0.04684169 -0.01028890
v 0.15563580 -0.04020426 0.00015626
v 0.15477682 -0.04020426 -0.00078384
v 0.15218882 -0.04414798 -0.01024594
v 0.15218882 -0.04315882 -0.00815261
v 0.15218882 -0.04417381 -0.01028725
v 0.15593788 -0.06658870 -0.01028890
v 0.15218882 -0.04681845 -0.01028725
v 0.15361386 -0.04681845 -0.01028890
v 0.15560115 -0.04681845 -0.01028890
v 0.15550401 -0.04020426 -0.00010809
v 0.15547202 -0.04649562 -0.01028725
v 0.15530021 -0.04617278 -0.01028725
v 0.15524346 -0.04609531 -0.01028725
v 0.15487891 -0.04020426 -0.00072105
v 0.15515508 -0.04020426 -0.00051949
v 0.15527050 -0.04020426 -0.00043027
v 0.15518517 -0.04603591 -0.01028725
v 0.15537221 -0.04020426 -0.00030966
f 1 2 6
f 1 6 3
f 1 3 10
f 1 10 25
f 1 25 11
f 1 11 4
f 1 4 2
f 2 5 17
f 2 17 29
f 2 29 45
f 2 45 54
f 2 54 62
f 2 62 60
f 2 60 59
f 2 59 58
f 2 58 46
f 2 46 30
f 2 30 18
f 2 18 6
f 2 4 7
f 2 7 8
f 2 8 9
f 2 9 5
f 3 6 10
f 4 11 12
f 4 12 7
f 5 13 14
f 5 14 15
f 5 15 16
f 5 16 17
f 5 9 13
f 6 18 19
f 6 19 20
f 6 20 10
f 7 12 8
f 8 12 9
f 9 12 21
f 9 21 22
f 9 22 23
f 9 23 24
f 9 24 14
f 9 14 13
f 10 20 25
f 11 25 37
f 11 37 50
f 11 50 35
f 11 35 34
f 11 34 33
f 11 33 26
f 11 26 12
f 12 26 21
f 14 24 27
f 14 27 36
f 14 36 50
f 14 50 37
f 14 37 52
f 14 52 53
f 14 53 44
f 14 44 28
f 14 28 16
f 14 16 15
f 16 28 17
f 17 28 29
f 18 30 31
f 18 31 20
f 18 20 19
f 20 31 40
f 20 40 39
f 20 39 38
f 20 38 32
f 20 32 25
f 21 26 33
f 21 33 22
f 22 33 34
f 22 34 23
f 23 34 35
f 23 35 36
f 23 36 24
f 24 36 27
f 25 32 38
f 25 38 39
f 25 39 40
f 25 40 41
f 25 41 42
f 25 42 43
f 25 43 37
f 28 44 29
f 29 44 45
f 30 46 47
f 30 47 48
f 30 48 31
f 31 48 47
f 31 47 49
f 31 49 51
f 31 51 40
f 35 50 36
f 37 43 51
f 37 51 49
f 37 49 52
f 40 51 43
f 40 43 42
f 40 42 41
f 44 53 45
f 45 53 55
f 45 55 56
f 45 56 57
f 45 57 54
f 46 58 47
f 47 58 59
f 47 59 60
f 47 60 61
f 47 61 49
f 49 61 53
f 49 53 52
f 53 61 57
f 53 57 56
f 53 56 55
f 54 57 61
f 54 61 62
f 60 62 61

