# https://github.com/mikedh/trimesh
v -0.05058792 0.03249415 -0.01231365
v -0.03762857 0.03249239 -0.01238824
v -0.05058792 0.03249415 -0.01538057
v -0.06733619 0.03249415 -0.01224501
v 0.00044655 0.03140570 -0.01249395
v -0.01900242 0.03214218 -0.01244956
v -0.03762857 0.03249239 -0.01544830
v -0.06088638 0.03249415 -0.01664587
v -0.06733619 0.03249415 -0.01531879
v -0.06733619 0.03194684 -0.01224775
v 0.00044655 0.02350585 -0.01251820
v 0.00044655 0.03140570 -0.01552106
v -0.01900242 0.03214218 -0.01565697
v -0.06129115 0.03249415 -0.01668614
v -0.06101245 0.03249415 -0.01665914
v -0.02173629 0.03214218 -0.01661384
v -0.02210125 0.03214218 -0.01673693
v -0.02236667 0.03214218 -0.01679185
v -0.02249275 0.03214218 -0.01681336
v -0.02275817 0.03214218 -0.01683852
v -0.02283780 0.03214218 -0.01684402
v -0.06733619 0.02704046 -0.01538743
v -0.06206088 0.03249415 -0.01664038
v -0.06733619 0.02906425 -0.01227201
v 0.00044655 0.02350585 -0.01555126
v -0.06733619 0.02350761 -0.01231960
v -0.05296346 0.02350585 -0.01238504
v 0.00044655 0.02464533 -0.01554851
v -0.06165611 0.03249415 -0.01670353
v -0.03161008 0.02362992 -0.01691998
v -0.02760217 0.02800220 -0.01688840
v -0.02625514 0.02938718 -0.01687376
v -0.06164284 0.03247831 -0.01670536
v -0.06733619 0.02350761 -0.01541764
v -0.06169592 0.03249415 -0.01670124
v -0.03169634 0.02350585 -0.01691678
v -0.05296346 0.02350585 -0.01541718
v -0.04581028 0.02417546 -0.01678865
v -0.04658665 0.02448607 -0.01678315
v -0.04452961 0.02350849 -0.01675112
f 1 2 7
f 1 7 3
f 1 3 8
f 1 8 15
f 1 15 14
f 1 14 29
f 1 29 35
f 1 35 23
f 1 23 9
f 1 9 4
f 1 4 5
f 1 5 6
f 1 6 2
f 2 6 13
f 2 13 7
f 3 7 8
f 4 9 22
f 4 22 34
f 4 34 26
f 4 26 24
f 4 24 10
f 4 10 11
f 4 11 5
f 5 11 25
f 5 25 28
f 5 28 12
f 5 12 13
f 5 13 6
f 7 14 15
f 7 15 8
f 7 13 16
f 7 16 17
f 7 17 18
f 7 18 19
f 7 19 20
f 7 20 21
f 7 21 14
f 9 23 22
f 10 24 11
f 11 24 26
f 11 26 27
f 11 27 37
f 11 37 36
f 11 36 25
f 12 28 21
f 12 21 20
f 12 20 19
f 12 19 18
f 12 18 17
f 12 17 16
f 12 16 13
f 14 21 29
f 21 28 25
f 21 25 30
f 21 30 31
f 21 31 32
f 21 32 33
f 21 33 29
f 22 23 34
f 23 35 34
f 25 36 30
f 26 34 37
f 26 37 27
f 29 33 35
f 30 36 38
f 30 38 33
f 30 33 31
f 31 33 32
f 33 38 39
f 33 39 34
f 33 34 35
f 34 39 38
f 34 38 40
f 34 40 36
f 34 36 37
f 36 40 38

