# https://github.com/mikedh/trimesh
v 0.15563382 -0.07053973 -0.00688142
v 0.15564981 -0.07054287 0.00597035
v 0.15551868 -0.07128523 0.00597035
v 0.15549949 -0.07136998 0.00504553
v 0.15554747 -0.07097762 -0.00593190
v 0.15537955 -0.07170585 -0.00962037
v 0.15562742 -0.07053973 -0.00808878
v 0.15562422 -0.07053973 -0.00319294
v 0.15562102 -0.07053973 -0.00260007
v 0.15559224 -0.07053973 -0.00045090
v 0.15350532 -0.07054287 0.00597035
v 0.15517965 -0.07266481 0.00597035
v 0.15537795 -0.07169173 -0.00980101
v 0.15539394 -0.07161011 -0.00980101
v 0.15560024 -0.07053973 -0.00980101
v 0.15514607 -0.07279821 0.00597035
v 0.15506612 -0.07282960 -0.00877275
v 0.15505012 -0.07278565 -0.00980101
v 0.15375799 -0.07053973 -0.00045090
v 0.15299199 -0.07053973 -0.00077822
v 0.15309274 -0.07054287 0.00237606
v 0.14887572 -0.07204643 0.00092784
v 0.14947221 -0.07187065 0.00191133
v 0.14900525 -0.07207782 0.00218615
v 0.14860706 -0.07225674 0.00241929
v 0.14778189 -0.07272131 0.00281145
v 0.14701429 -0.07314350 0.00283769
v 0.14671844 -0.07355313 0.00333484
v 0.14572695 -0.07434571 0.00347380
v 0.14533195 -0.07499234 0.00376560
v 0.14461872 -0.07551969 0.00366370
v 0.14443322 -0.07627931 0.00395551
v 0.14082549 -0.08539955 0.00556121
v 0.14349771 -0.08409217 0.00597035
v 0.15176223 -0.07944809 -0.00980256
v 0.15176223 -0.07105923 -0.00980256
v 0.15340298 -0.07053973 -0.00980101
v 0.15511569 -0.07289709 0.00597035
v 0.15484223 -0.07365044 0.00431834
v 0.15467751 -0.07412913 0.00524933
v 0.15454958 -0.07449952 0.00597035
v 0.15431451 -0.07486364 -0.00842536
v 0.15433849 -0.07468002 -0.00980101
v 0.15300318 -0.07054287 0.00035504
v 0.15303997 -0.07054287 0.00143116
v 0.15292482 -0.07053973 -0.00979638
v 0.14983523 -0.07158971 -0.00980256
v 0.14922914 -0.07180159 -0.00980256
v 0.14837678 -0.07215002 -0.00980256
v 0.14754521 -0.07266324 0.00082594
v 0.14737730 -0.07278879 0.00196074
v 0.14630265 -0.07348093 0.00241620
v 0.14615393 -0.07377443 0.00303995
v 0.14529678 -0.07435199 0.00286394
v 0.14490018 -0.07493113 0.00330397
v 0.14409899 -0.07584457 0.00345373
v 0.14349611 -0.07675016 0.00361430
v 0.14349611 -0.07677370 0.00363128
v 0.14343214 -0.07684746 0.00362974
v 0.14321945 -0.07754117 0.00384898
v 0.14249183 -0.07873555 0.00385206
v 0.14237189 -0.07833376 0.00357724
v 0.14140599 -0.08030974 0.00362356
v 0.14104458 -0.08118079 0.00354328
v 0.14098381 -0.08061892 0.00311560
v 0.13970287 -0.08539955 0.00350622
v 0.14349771 -0.08656567 0.00597035
v 0.15122490 -0.08018104 -0.00980256
v 0.15413059 -0.07516028 -0.00980101
v 0.15381076 -0.07589793 -0.00980101
v 0.15351811 -0.07649747 -0.00980101
v 0.15285126 -0.07777503 -0.00980101
v 0.15265776 -0.07812188 -0.00980101
v 0.15221159 -0.07883285 -0.00980101
v 0.15199251 -0.07915930 -0.00980101
v 0.15292003 -0.07054287 -0.00980101
v 0.15394669 -0.07590735 0.00597035
v 0.15379158 -0.07605802 -0.00853807
v 0.14821686 -0.07222692 -0.00980256
v 0.14735810 -0.07269305 -0.00980256
v 0.14640500 -0.07333811 0.00116561
v 0.14544070 -0.07404751 0.00142962
v 0.14549827 -0.07405223 0.00219233
v 0.14468909 -0.07478360 0.00223401
v 0.14434367 -0.07527171 0.00290872
v 0.14354408 -0.07623223 0.00309399
v 0.14349611 -0.07631541 0.00313259
v 0.14349611 -0.07652101 0.00340741
v 0.14316987 -0.07688827 0.00338271
v 0.14221837 -0.07826784 0.00333021
v 0.14151154 -0.07960346 0.00332558
v 0.14115332 -0.07988441 0.00278674
v 0.14067677 -0.08090299 0.00232974
v 0.14055523 -0.08142720 0.00251192
v 0.14063999 -0.08142720 0.00282071
v 0.14045608 -0.08186509 0.00266323
v 0.13953337 -0.08539955 0.00289636
v 0.13946300 -0.08539955 0.00245480
v 0.14349771 -0.08657352 0.00570943
v 0.14485220 -0.08586255 0.00597035
v 0.15131765 -0.08011669 -0.00881135
v 0.15027340 -0.08137384 -0.00865232
v 0.15053247 -0.08100658 -0.00980256
v 0.15276810 -0.07799789 -0.00884686
v 0.15214442 -0.07899451 -0.00884686
v 0.15176223 -0.07951401 -0.00882988
v 0.15307674 -0.07769812 0.00597035
v 0.15340937 -0.07688827 -0.00479247
v 0.14714382 -0.07282018 -0.00980256
v 0.14676801 -0.07306659 -0.00980256
v 0.14522801 -0.07416052 -0.00980256
v 0.14458034 -0.07469728 -0.00980256
v 0.14404782 -0.07536744 0.00125515
v 0.14386871 -0.07567350 0.00250112
v 0.14349771 -0.07626833 0.00303841
v 0.14349771 -0.07629030 0.00309399
v 0.14259257 -0.07744230 0.00305848
v 0.14183457 -0.07851582 0.00287012
v 0.14140439 -0.07914832 0.00241002
v 0.14082709 -0.08033013 0.00180017
v 0.14057442 -0.08102385 0.00143734
v 0.14046088 -0.08142720 0.00148211
v 0.14049446 -0.08142720 0.00191442
v 0.14032815 -0.08191217 0.00153152
v 0.13932707 -0.08539955 -0.00467204
v 0.14395507 -0.08634281 0.00503627
v 0.13931268 -0.08539955 -0.00680886
v 0.13933986 -0.08539955 -0.00912786
v 0.14349771 -0.08646523 -0.00593962
v 0.14396626 -0.08622510 -0.00747584
v 0.14499134 -0.08576995 0.00280682
v 0.14506010 -0.08574954 0.00597035
v 0.15176223 -0.07955795 -0.00565553
v 0.15205167 -0.07932096 0.00597035
v 0.15153834 -0.07988441 -0.00378890
v 0.15082990 -0.08079000 -0.00412548
v 0.14926752 -0.08259489 0.00227416
v 0.14943703 -0.08227158 -0.00864923
v 0.14954417 -0.08210364 -0.00980256
v 0.14996796 -0.08164536 -0.00980256
v 0.15040613 -0.08134873 0.00199316
v 0.15286406 -0.07787861 -0.00581456
v 0.15306715 -0.07771696 0.00597035
v 0.15302876 -0.07778130 0.00597035
v 0.15252983 -0.07859900 0.00563069
v 0.15233793 -0.07890191 0.00597035
v 0.14388470 -0.07543023 -0.00980256
v 0.14349611 -0.07601564 0.00138021
v 0.14349611 -0.07605017 0.00189743
v 0.14349611 -0.07609569 0.00247796
v 0.14302595 -0.07663402 0.00244708
v 0.14230633 -0.07761964 0.00248104
v 0.14193212 -0.07807950 0.00176929
v 0.14133242 -0.07917814 0.00149910
v 0.14101579 -0.07988911 -0.00333499
v 0.14101899 -0.07992678 -0.00579140
v 0.14061440 -0.08108034 -0.00461646
v 0.14087506 -0.08053259 -0.00912631
v 0.14349771 -0.07592618 -0.00980256
v 0.14349771 -0.08637734 -0.00980256
v 0.14349771 -0.08640873 -0.00883605
v 0.14391349 -0.08616860 -0.00980256
v 0.14462672 -0.08579349 -0.00980256
v 0.14543590 -0.08542309 -0.00817524
v 0.14562141 -0.08532264 -0.00752988
v 0.14598921 -0.08511548 -0.00623605
v 0.14513366 -0.08570560 0.00597035
v 0.15186937 -0.07955481 0.00597035
v 0.15116893 -0.08042430 0.00597035
v 0.15102821 -0.08059537 0.00597035
v 0.14983203 -0.08186195 0.00597035
v 0.14957616 -0.08212718 0.00597035
v 0.14930750 -0.08238301 0.00597035
v 0.14835279 -0.08327448 0.00597035
v 0.14900525 -0.08283346 0.00228651
v 0.14843755 -0.08324151 -0.00728285
v 0.14784586 -0.08374218 -0.00887928
v 0.14900366 -0.08263099 -0.00980256
v 0.14907722 -0.08256036 -0.00980256
v 0.14379675 -0.07553381 -0.00980256
v 0.14283405 -0.07679724 0.00153306
v 0.14245984 -0.07730261 -0.00501016
v 0.14179779 -0.07834161 -0.00525411
v 0.14144117 -0.07898509 -0.00456705
v 0.14128605 -0.07939159 -0.00724579
v 0.14114532 -0.07975571 -0.00912631
v 0.14133242 -0.07936490 -0.00912631
v 0.14162188 -0.07881245 -0.00912631
v 0.14193212 -0.07829766 -0.00912631
v 0.14219598 -0.07788960 -0.00912631
v 0.14539592 -0.08536659 -0.00980256
v 0.14562141 -0.08531323 -0.00815826
v 0.14651694 -0.08476705 -0.00807026
v 0.14562141 -0.08539955 0.00441252
v 0.14615393 -0.08505897 0.00270492
v 0.14562141 -0.08539798 0.00576655
v 0.14535435 -0.08556592 0.00597035
v 0.14746046 -0.08404509 0.00597035
v 0.14824245 -0.08352402 0.00231739
v 0.14820887 -0.08336708 -0.00980256
v 0.14737890 -0.08420831 0.00238841
v 0.14684637 -0.08444374 -0.00980256
v 0.14713102 -0.08423185 -0.00980256
v 0.14774510 -0.08376102 -0.00980256
v 0.14562141 -0.08523004 -0.00980256
v 0.14590925 -0.08505427 -0.00980256
v 0.14591406 -0.08521121 0.00554114
v 0.14652814 -0.08478432 0.00597035
v 0.14719819 -0.08425697 0.00597035
f 1 2 3
f 1 3 4
f 1 4 5
f 1 5 6
f 1 6 7
f 1 7 15
f 1 15 37
f 1 37 46
f 1 46 20
f 1 20 19
f 1 19 10
f 1 10 9
f 1 9 8
f 1 8 2
f 2 8 9
f 2 9 10
f 2 10 19
f 2 19 11
f 2 11 34
f 2 34 67
f 2 67 100
f 2 100 132
f 2 132 167
f 2 167 197
f 2 197 208
f 2 208 209
f 2 209 198
f 2 198 174
f 2 174 173
f 2 173 172
f 2 172 171
f 2 171 170
f 2 170 169
f 2 169 168
f 2 168 134
f 2 134 146
f 2 146 144
f 2 144 143
f 2 143 107
f 2 107 77
f 2 77 41
f 2 41 38
f 2 38 16
f 2 16 12
f 2 12 3
f 3 12 4
f 4 6 5
f 4 12 6
f 6 13 14
f 6 14 15
f 6 15 7
f 6 12 16
f 6 16 17
f 6 17 18
f 6 18 13
f 11 19 20
f 11 20 21
f 11 21 22
f 11 22 23
f 11 23 24
f 11 24 25
f 11 25 26
f 11 26 27
f 11 27 28
f 11 28 29
f 11 29 30
f 11 30 31
f 11 31 32
f 11 32 33
f 11 33 34
f 13 18 35
f 13 35 14
f 14 35 15
f 15 35 36
f 15 36 37
f 16 38 17
f 17 38 39
f 17 39 40
f 17 40 41
f 17 41 42
f 17 42 18
f 18 42 43
f 18 43 35
f 20 44 45
f 20 45 21
f 20 46 47
f 20 47 48
f 20 48 44
f 21 45 22
f 22 48 49
f 22 49 50
f 22 50 51
f 22 51 25
f 22 25 24
f 22 24 23
f 22 45 44
f 22 44 48
f 25 51 26
f 26 51 27
f 27 51 52
f 27 52 53
f 27 53 28
f 28 53 29
f 29 53 54
f 29 54 55
f 29 55 31
f 29 31 30
f 31 55 56
f 31 56 57
f 31 57 58
f 31 58 32
f 32 58 59
f 32 59 60
f 32 60 33
f 33 60 61
f 33 61 62
f 33 62 63
f 33 63 64
f 33 64 65
f 33 65 66
f 33 66 67
f 33 67 34
f 35 68 103
f 35 103 140
f 35 140 139
f 35 139 179
f 35 179 178
f 35 178 200
f 35 200 204
f 35 204 203
f 35 203 202
f 35 202 206
f 35 206 205
f 35 205 191
f 35 191 163
f 35 163 162
f 35 162 160
f 35 160 159
f 35 159 180
f 35 180 147
f 35 147 112
f 35 112 111
f 35 111 110
f 35 110 109
f 35 109 80
f 35 80 79
f 35 79 49
f 35 49 48
f 35 48 47
f 35 47 36
f 35 43 69
f 35 69 70
f 35 70 71
f 35 71 72
f 35 72 73
f 35 73 74
f 35 74 75
f 35 75 68
f 36 47 76
f 36 76 37
f 37 76 46
f 38 41 40
f 38 40 39
f 41 77 42
f 42 77 78
f 42 78 70
f 42 70 69
f 42 69 43
f 46 76 47
f 49 79 50
f 50 79 80
f 50 80 81
f 50 81 51
f 51 81 52
f 52 81 82
f 52 82 83
f 52 83 54
f 52 54 53
f 54 83 84
f 54 84 85
f 54 85 55
f 55 85 56
f 56 85 86
f 56 86 87
f 56 87 88
f 56 88 57
f 57 88 89
f 57 89 59
f 57 59 58
f 59 89 62
f 59 62 60
f 60 62 61
f 62 90 91
f 62 91 63
f 62 89 90
f 63 91 65
f 63 65 64
f 65 91 92
f 65 92 93
f 65 93 94
f 65 94 95
f 65 95 66
f 66 95 96
f 66 96 97
f 66 97 67
f 67 97 98
f 67 98 99
f 67 99 100
f 68 101 102
f 68 102 103
f 68 75 101
f 70 78 71
f 71 78 72
f 72 104 73
f 72 78 104
f 73 105 74
f 73 104 105
f 74 105 75
f 75 105 106
f 75 106 101
f 77 107 78
f 78 107 108
f 78 108 104
f 80 109 81
f 81 109 110
f 81 110 111
f 81 111 82
f 82 111 112
f 82 112 113
f 82 113 84
f 82 84 83
f 84 113 114
f 84 114 85
f 85 114 86
f 86 114 115
f 86 115 116
f 86 116 87
f 87 116 117
f 87 117 89
f 87 89 88
f 89 117 90
f 90 117 118
f 90 118 91
f 91 118 92
f 92 118 119
f 92 119 120
f 92 120 93
f 93 120 121
f 93 121 122
f 93 122 123
f 93 123 98
f 93 98 94
f 94 98 96
f 94 96 95
f 96 98 97
f 98 123 124
f 98 124 125
f 98 125 99
f 99 126 100
f 99 125 127
f 99 127 128
f 99 128 129
f 99 129 130
f 99 130 126
f 100 126 131
f 100 131 132
f 101 106 133
f 101 133 134
f 101 134 135
f 101 135 136
f 101 136 102
f 102 137 138
f 102 138 139
f 102 139 140
f 102 140 103
f 102 136 141
f 102 141 137
f 104 108 142
f 104 142 143
f 104 143 144
f 104 144 145
f 104 145 105
f 105 145 146
f 105 146 134
f 105 134 133
f 105 133 106
f 107 143 108
f 108 143 142
f 112 147 113
f 113 147 148
f 113 148 149
f 113 149 150
f 113 150 114
f 114 150 115
f 115 150 151
f 115 151 116
f 116 151 117
f 117 152 118
f 117 151 152
f 118 152 153
f 118 153 119
f 119 153 154
f 119 154 120
f 120 154 155
f 120 155 121
f 121 155 156
f 121 156 157
f 121 157 127
f 121 127 122
f 122 127 125
f 122 125 124
f 122 124 123
f 126 130 131
f 127 157 128
f 128 157 158
f 128 158 159
f 128 159 160
f 128 160 161
f 128 161 129
f 129 161 130
f 130 161 160
f 130 160 162
f 130 162 163
f 130 163 164
f 130 164 131
f 131 164 165
f 131 165 166
f 131 166 132
f 132 166 167
f 134 168 136
f 134 136 135
f 136 169 141
f 136 168 169
f 137 141 170
f 137 170 171
f 137 171 172
f 137 172 173
f 137 173 174
f 137 174 175
f 137 175 176
f 137 176 138
f 138 176 177
f 138 177 178
f 138 178 179
f 138 179 139
f 141 169 170
f 144 146 145
f 147 180 148
f 148 180 181
f 148 181 151
f 148 151 149
f 149 151 150
f 151 181 152
f 152 181 153
f 153 181 182
f 153 182 183
f 153 183 184
f 153 184 154
f 154 184 155
f 155 184 156
f 156 158 157
f 156 184 185
f 156 185 186
f 156 186 158
f 158 186 159
f 159 186 187
f 159 187 188
f 159 188 189
f 159 189 190
f 159 190 182
f 159 182 181
f 159 181 180
f 163 191 164
f 164 191 192
f 164 192 165
f 165 192 193
f 165 193 166
f 166 194 167
f 166 193 195
f 166 195 194
f 167 194 196
f 167 196 197
f 174 198 199
f 174 199 175
f 175 199 176
f 176 199 177
f 177 200 178
f 177 199 201
f 177 201 193
f 177 193 202
f 177 202 203
f 177 203 204
f 177 204 200
f 182 190 189
f 182 189 183
f 183 188 184
f 183 189 188
f 184 188 187
f 184 187 185
f 185 187 186
f 191 205 192
f 192 205 206
f 192 206 193
f 193 201 195
f 193 206 202
f 194 195 207
f 194 207 196
f 195 201 208
f 195 208 207
f 196 207 208
f 196 208 197
f 198 209 199
f 199 209 201
f 201 209 208

