# https://github.com/mikedh/trimesh
v 0.05955301 0.05495519 -0.01229553
v 0.04264605 0.04530087 -0.01225087
v 0.04282466 0.04321671 -0.01223319
v 0.04303527 0.04077893 -0.01221295
v 0.04489605 0.03930323 -0.01222741
v 0.05955301 0.03905431 -0.01235369
v 0.05955301 0.05495519 -0.01524882
v 0.03791412 0.05495519 -0.01236204
v 0.03231846 0.05495519 -0.01237940
v 0.03803142 0.03800334 -0.01228300
v 0.03945233 0.03683384 -0.01227207
v 0.04209688 0.03503810 -0.01229617
v 0.05955301 0.03477536 -0.01238261
v 0.05955301 0.03477536 -0.01538988
v 0.05501303 0.05495519 -0.01527581
v 0.03231846 0.05495519 -0.01536225
v 0.03231846 0.04395753 -0.01241988
v 0.03292628 0.03487809 -0.01246069
v 0.03292628 0.03477536 -0.01246165
v 0.03817271 0.03477536 -0.01235980
v 0.04190493 0.03477536 -0.01230645
v 0.04232081 0.03477536 -0.01230421
v 0.05117951 0.05495519 -0.01529831
v 0.04780185 0.03477536 -0.01544194
v 0.03231846 0.05041942 -0.01539695
v 0.03669049 0.05495519 -0.01535004
v 0.03231846 0.04323449 -0.01242599
v 0.03292628 0.03477536 -0.01390826
v 0.03231846 0.04321671 -0.01245201
v 0.03896181 0.03477536 -0.01548018
v 0.03338747 0.04321671 -0.01544804
v 0.04675149 0.05495519 -0.01531501
v 0.03231846 0.04672521 -0.01542491
v 0.03311289 0.04363750 -0.01544612
v 0.03231846 0.04321671 -0.01545029
v 0.03293161 0.03477536 -0.01549560
v 0.03294227 0.04321671 -0.01544965
v 0.03231846 0.04460154 -0.01544097
v 0.03231846 0.04342809 -0.01544901
f 1 2 3
f 1 3 4
f 1 4 5
f 1 5 6
f 1 6 13
f 1 13 14
f 1 14 7
f 1 7 15
f 1 15 23
f 1 23 32
f 1 32 26
f 1 26 16
f 1 16 9
f 1 9 8
f 1 8 2
f 2 8 9
f 2 9 3
f 3 9 4
f 4 9 10
f 4 10 11
f 4 11 5
f 5 11 12
f 5 12 13
f 5 13 6
f 7 14 15
f 9 16 25
f 9 25 33
f 9 33 38
f 9 38 39
f 9 39 35
f 9 35 29
f 9 29 27
f 9 27 17
f 9 17 10
f 10 17 18
f 10 18 19
f 10 19 11
f 11 19 20
f 11 20 21
f 11 21 12
f 12 21 22
f 12 22 13
f 13 22 21
f 13 21 20
f 13 20 19
f 13 19 28
f 13 28 36
f 13 36 30
f 13 30 24
f 13 24 14
f 14 23 15
f 14 24 23
f 16 26 25
f 17 27 18
f 18 27 19
f 19 27 29
f 19 29 35
f 19 35 28
f 23 24 30
f 23 30 31
f 23 31 32
f 25 26 34
f 25 34 33
f 26 32 34
f 28 35 36
f 30 36 37
f 30 37 31
f 31 37 34
f 31 34 32
f 33 34 38
f 34 37 38
f 35 39 37
f 35 37 36
f 37 39 38

