# https://github.com/mikedh/trimesh
v -0.00629695 0.08880997 0.01024234
v -0.01285408 0.08880915 0.01033676
v -0.02926703 0.08880915 0.01029378
v -0.08448640 0.08880915 0.01032760
v -0.02270989 0.09088229 0.01198705
v -0.00565331 0.09083667 0.01194477
v 0.00044791 0.09092707 0.01205328
v 0.00044791 0.09080336 0.01195463
v -0.00538512 0.08880997 0.01025925
v -0.01159361 0.08880915 0.01036988
v -0.06485523 0.09085825 0.01216250
v -0.04716840 0.09088775 0.01210049
v -0.10745647 0.08880915 0.01080183
v -0.13336318 0.08884438 0.01073630
v -0.13152612 0.09037704 0.01214700
v -0.00483534 0.09108602 0.01218858
v -0.00609581 0.09099807 0.01210120
v -0.02336695 0.09100109 0.01210825
v 0.00044791 0.09110322 0.01225270
v 0.00044791 0.08880997 0.01057634
v -0.00051756 0.08880997 0.01050940
v -0.00177803 0.08880997 0.01044105
v -0.01019905 0.08880915 0.01042203
v -0.06398362 0.09100136 0.01231048
v -0.13203566 0.09099235 0.01279387
v -0.11208268 0.08880915 0.01090260
v -0.13654118 0.08884438 0.01105832
v -0.13654118 0.09045023 0.01245352
v -0.13347046 0.09060181 0.01240561
v -0.02261603 0.09109258 0.01221958
v -0.00550580 0.09117368 0.01234712
v 0.00044791 0.09111661 0.01227947
v 0.00044791 0.08880997 0.01273468
v 0.00043450 0.08880915 0.01273468
v -0.06452000 0.09107810 0.01243097
v -0.04535815 0.09117314 0.01244859
v -0.11821071 0.09132170 0.01319199
v -0.13654118 0.09091369 0.01291859
v -0.13363136 0.09111825 0.01311025
v -0.11208268 0.08880915 0.01728458
v -0.13654118 0.08884438 0.01742551
v -0.13654118 0.09088720 0.01288829
v -0.02331331 0.09116468 0.01236896
v -0.00471466 0.09128183 0.01269451
v 0.00044791 0.09125698 0.01265717
v 0.00044791 0.09119280 0.01246409
v -0.02677291 0.09125998 0.01259093
v -0.02292444 0.09127829 0.01263814
v 0.00044791 0.09127364 0.01273468
v 0.00043450 0.08892904 0.01676807
v 0.00043450 0.08880915 0.01675468
v -0.04492906 0.09127965 0.01272763
v -0.13065451 0.09127583 0.01341466
v -0.11771457 0.09144133 0.01351542
v -0.13654118 0.09092516 0.01293902
v -0.13654118 0.09110978 0.01335899
v -0.13549526 0.09123650 0.01355700
v -0.10663851 0.08880915 0.01728881
v -0.13550867 0.08884438 0.01742269
v -0.13654118 0.08886814 0.01742692
v -0.02575380 0.09133154 0.01282698
v -0.02658517 0.09136322 0.01294748
v -0.02368877 0.09141921 0.01320890
v -0.00470125 0.09129084 0.01273468
v 0.00043450 0.09129494 0.01282698
v -0.02615608 0.09130368 0.01273397
v 0.00043450 0.09133536 0.01303345
v 0.00043450 0.09135667 0.01321102
v 0.00043450 0.09140173 0.01377614
v 0.00043450 0.09140828 0.01431802
v 0.00043450 0.09140582 0.01442512
v 0.00043450 0.09139163 0.01475560
v 0.00043450 0.09135749 0.01507199
v 0.00043450 0.09133482 0.01524251
v 0.00043450 0.09128484 0.01548632
v 0.00043450 0.09124933 0.01558990
v 0.00043450 0.09119362 0.01573717
v 0.00043450 0.09109067 0.01597394
v 0.00043450 0.09102840 0.01608034
v 0.00043450 0.09092571 0.01620717
v 0.00043450 0.09067445 0.01640447
v 0.00043450 0.09065179 0.01642068
v 0.00043450 0.09043220 0.01655175
v 0.00043450 0.09031176 0.01660178
v 0.00043450 0.09018641 0.01664476
v 0.00043450 0.09000425 0.01669831
v 0.00043450 0.08963720 0.01675398
v 0.00043450 0.08951758 0.01676455
v -0.00366874 0.08930565 0.01682726
v -0.00590808 0.08901998 0.01682938
v -0.00450011 0.08880915 0.01678569
v -0.13455661 0.09144870 0.01442301
v -0.11739275 0.09152326 0.01388818
v -0.13654118 0.09121820 0.01381701
v -0.13654118 0.09126545 0.01407985
v -0.10618260 0.08893860 0.01730572
v -0.00598854 0.08880915 0.01679414
v -0.13314864 0.08938759 0.01744030
v -0.13654118 0.08919941 0.01742762
v -0.06211974 0.09153910 0.01390087
v -0.02363513 0.09148284 0.01366833
v -0.00451352 0.09137933 0.01314055
v -0.00573376 0.09141702 0.01347174
v -0.01325636 0.09146618 0.01377826
v -0.00417828 0.09143340 0.01419470
v 0.00024677 0.09140911 0.01437368
v -0.00243508 0.09140446 0.01483170
v -0.00124166 0.09135230 0.01521715
v -0.02379605 0.09148284 0.01527775
v -0.02335354 0.09142440 0.01551873
v -0.02415810 0.09136432 0.01569912
v -0.02376923 0.09122667 0.01601199
v -0.02469447 0.09114965 0.01611487
v -0.02391673 0.09101747 0.01627130
v -0.13296090 0.09087846 0.01698440
v -0.13344364 0.09061874 0.01714435
v -0.11884095 0.09032843 0.01717465
v -0.00223394 0.08998377 0.01672579
v -0.12102666 0.08983002 0.01732897
v -0.13654118 0.09130805 0.01481479
v -0.13479797 0.09147137 0.01533623
v -0.13385933 0.09151862 0.01503887
v -0.11711115 0.09157870 0.01463722
v -0.06315225 0.09157215 0.01427926
v -0.13270612 0.09002692 0.01733602
v -0.13654118 0.09008755 0.01727401
v -0.02388991 0.09151725 0.01407210
v -0.02368877 0.09152408 0.01457169
v -0.02422514 0.09149950 0.01509242
v -0.06189178 0.09156887 0.01503041
v -0.13326932 0.09151643 0.01577523
v -0.13278658 0.09140528 0.01628821
v -0.13290727 0.09121219 0.01667224
v -0.13418115 0.09102948 0.01685474
v -0.13654118 0.09048683 0.01709362
v -0.13654118 0.09016265 0.01725005
v -0.13654118 0.09131953 0.01507551
v -0.13395319 0.09144597 0.01604581
v -0.13654118 0.09128019 0.01561527
v -0.13635345 0.09128648 0.01577945
v -0.06220019 0.09159918 0.01465695
v -0.13416774 0.09128402 0.01646648
v -0.13654118 0.09081236 0.01681528
v -0.13654118 0.09124388 0.01585344
v -0.13654118 0.09110405 0.01629314
v -0.13654118 0.09126927 0.01575620
v -0.13654118 0.09086125 0.01673989
f 1 2 3
f 1 3 4
f 1 4 5
f 1 5 6
f 1 6 7
f 1 7 8
f 1 8 9
f 1 9 2
f 2 9 10
f 2 10 23
f 2 23 34
f 2 34 51
f 2 51 91
f 2 91 97
f 2 97 58
f 2 58 40
f 2 40 26
f 2 26 13
f 2 13 4
f 2 4 3
f 4 11 12
f 4 12 5
f 4 13 14
f 4 14 15
f 4 15 11
f 5 16 17
f 5 17 6
f 5 12 18
f 5 18 16
f 6 17 16
f 6 16 7
f 7 19 32
f 7 32 46
f 7 46 45
f 7 45 49
f 7 49 33
f 7 33 20
f 7 20 8
f 7 16 19
f 8 20 21
f 8 21 22
f 8 22 9
f 9 22 23
f 9 23 10
f 11 24 12
f 11 15 25
f 11 25 24
f 12 24 18
f 13 26 14
f 14 26 27
f 14 27 28
f 14 28 29
f 14 29 15
f 15 29 25
f 16 18 30
f 16 30 31
f 16 31 19
f 18 24 30
f 19 31 32
f 20 33 51
f 20 51 34
f 20 34 23
f 20 23 21
f 21 23 22
f 24 35 36
f 24 36 30
f 24 25 37
f 24 37 35
f 25 29 38
f 25 38 39
f 25 39 37
f 26 40 41
f 26 41 27
f 27 41 60
f 27 60 99
f 27 99 126
f 27 126 136
f 27 136 135
f 27 135 143
f 27 143 147
f 27 147 145
f 27 145 144
f 27 144 146
f 27 146 139
f 27 139 137
f 27 137 120
f 27 120 95
f 27 95 94
f 27 94 56
f 27 56 55
f 27 55 38
f 27 38 42
f 27 42 28
f 28 42 29
f 29 42 38
f 30 43 31
f 30 36 43
f 31 44 45
f 31 45 46
f 31 46 32
f 31 43 47
f 31 47 48
f 31 48 44
f 33 49 50
f 33 50 51
f 35 37 36
f 36 52 47
f 36 47 43
f 36 37 52
f 37 39 53
f 37 53 54
f 37 54 52
f 38 55 39
f 39 55 56
f 39 56 57
f 39 57 53
f 40 58 41
f 41 58 59
f 41 59 60
f 44 48 61
f 44 61 62
f 44 62 63
f 44 63 64
f 44 64 45
f 45 64 65
f 45 65 49
f 47 52 54
f 47 54 66
f 47 66 48
f 48 66 61
f 49 65 67
f 49 67 68
f 49 68 69
f 49 69 70
f 49 70 71
f 49 71 72
f 49 72 73
f 49 73 74
f 49 74 75
f 49 75 76
f 49 76 77
f 49 77 78
f 49 78 79
f 49 79 80
f 49 80 81
f 49 81 82
f 49 82 83
f 49 83 84
f 49 84 85
f 49 85 86
f 49 86 87
f 49 87 88
f 49 88 50
f 50 88 89
f 50 89 90
f 50 90 51
f 51 90 91
f 53 57 92
f 53 92 54
f 54 92 93
f 54 93 62
f 54 62 61
f 54 61 66
f 56 94 57
f 57 94 95
f 57 95 92
f 58 96 59
f 58 97 90
f 58 90 96
f 59 96 98
f 59 98 60
f 60 98 99
f 62 93 63
f 63 93 100
f 63 100 101
f 63 101 102
f 63 102 64
f 64 102 65
f 65 102 67
f 67 102 68
f 68 102 103
f 68 103 69
f 69 103 104
f 69 104 105
f 69 105 70
f 70 105 106
f 70 106 71
f 71 106 72
f 72 106 107
f 72 107 73
f 73 107 108
f 73 108 74
f 74 108 75
f 75 108 109
f 75 109 110
f 75 110 76
f 76 110 111
f 76 111 77
f 77 111 112
f 77 112 78
f 78 112 79
f 79 112 113
f 79 113 80
f 80 113 114
f 80 114 81
f 81 114 115
f 81 115 82
f 82 115 116
f 82 116 83
f 83 116 84
f 84 116 117
f 84 117 85
f 85 117 118
f 85 118 86
f 86 118 87
f 87 118 89
f 87 89 88
f 89 98 96
f 89 96 90
f 89 118 119
f 89 119 98
f 90 97 91
f 92 95 120
f 92 120 121
f 92 121 122
f 92 122 93
f 93 122 123
f 93 123 124
f 93 124 100
f 98 119 125
f 98 125 99
f 99 125 126
f 100 124 101
f 101 124 127
f 101 127 104
f 101 104 103
f 101 103 102
f 104 127 105
f 105 127 128
f 105 128 106
f 106 128 107
f 107 128 129
f 107 129 109
f 107 109 108
f 109 129 130
f 109 130 131
f 109 131 132
f 109 132 110
f 110 132 111
f 111 132 112
f 112 132 133
f 112 133 113
f 113 133 114
f 114 133 134
f 114 134 115
f 115 134 116
f 116 134 135
f 116 135 136
f 116 136 126
f 116 126 125
f 116 125 117
f 117 125 118
f 118 125 119
f 120 137 121
f 121 138 131
f 121 131 122
f 121 137 139
f 121 139 140
f 121 140 138
f 122 131 123
f 123 131 141
f 123 141 124
f 124 141 127
f 127 141 128
f 128 141 129
f 129 141 130
f 130 141 131
f 131 138 132
f 132 138 142
f 132 142 133
f 133 142 134
f 134 142 143
f 134 143 135
f 138 140 144
f 138 144 145
f 138 145 142
f 139 146 140
f 140 146 144
f 142 145 147
f 142 147 143

