# https://github.com/mikedh/trimesh
v 0.09596459 -0.05077667 -0.01614551
v 0.09678397 -0.05044947 -0.01589009
v 0.09600661 -0.05077667 -0.01614223
v 0.09986713 -0.05283558 -0.01610949
v 0.09901362 -0.05255545 -0.01613568
v 0.09533693 -0.05077667 -0.01613147
v 0.08184350 -0.05077628 -0.01506958
v 0.09678397 -0.05044947 -0.01158873
v 0.10867016 -0.05044947 -0.01469769
v 0.09902150 -0.05217573 -0.01608563
v 0.10211254 -0.05395802 -0.01605709
v 0.10259575 -0.05442411 -0.01606224
v 0.09819161 -0.05231385 -0.01612165
v 0.10254586 -0.05442411 -0.01606177
v 0.08184350 -0.05440388 -0.01503450
v 0.08184350 -0.05433152 -0.01503590
v 0.08184350 -0.05107741 -0.01506865
v 0.08184350 -0.05077628 -0.01177491
v 0.10020066 -0.05044947 -0.01152464
v 0.10867016 -0.05044947 -0.01138384
v 0.10867016 -0.05442411 -0.01473745
v 0.10365674 -0.05442411 -0.01588214
v 0.10211254 -0.05442411 -0.01601733
v 0.08184350 -0.05440388 -0.01171410
v 0.10115660 -0.05442411 -0.01583863
v 0.09678397 -0.05442411 -0.01483896
v 0.10667426 -0.05044947 -0.01141658
v 0.10867016 -0.05442411 -0.01136653
v 0.09437049 -0.05440388 -0.01154289
v 0.09678397 -0.05442411 -0.01152417
f 1 2 3
f 1 3 4
f 1 4 5
f 1 5 6
f 1 6 2
f 2 6 7
f 2 7 18
f 2 18 8
f 2 8 19
f 2 19 27
f 2 27 20
f 2 20 9
f 2 9 3
f 3 9 10
f 3 10 4
f 4 10 9
f 4 9 11
f 4 11 12
f 4 12 5
f 5 13 6
f 5 12 14
f 5 14 15
f 5 15 13
f 6 15 16
f 6 16 17
f 6 17 7
f 6 13 15
f 7 17 16
f 7 16 15
f 7 15 24
f 7 24 18
f 8 18 19
f 9 20 28
f 9 28 21
f 9 21 22
f 9 22 12
f 9 12 11
f 12 22 21
f 12 21 28
f 12 28 30
f 12 30 26
f 12 26 25
f 12 25 23
f 12 23 14
f 14 23 15
f 15 23 25
f 15 25 26
f 15 26 30
f 15 30 24
f 18 24 20
f 18 20 27
f 18 27 19
f 20 24 29
f 20 29 28
f 24 30 29
f 28 29 30

