# https://github.com/mikedh/trimesh
v -0.04606601 -0.06460110 -0.01235035
v -0.02130421 -0.06460292 -0.01233913
v -0.04606601 -0.06460110 -0.01558369
v -0.08385775 -0.06460110 -0.01219843
v -0.02141443 -0.08318386 -0.01179244
v -0.02130421 -0.07268182 -0.01213931
v -0.02130421 -0.06460292 -0.01560876
v -0.03306668 -0.06460292 -0.01561437
v -0.03966737 -0.06460292 -0.01560053
v -0.03671604 -0.06670588 -0.01557471
v -0.04606601 -0.06789743 -0.01553018
v -0.05176049 -0.06862327 -0.01550287
v -0.05035218 -0.06460110 -0.01557134
v -0.08385775 -0.06460110 -0.01538874
v -0.08385775 -0.07380607 -0.01207345
v -0.08384551 -0.08318567 -0.01191181
v -0.02564549 -0.08318386 -0.01179805
v -0.04607213 -0.08318567 -0.01186503
v -0.02141443 -0.08318386 -0.01509238
v -0.02130421 -0.07268546 -0.01508415
v -0.02130421 -0.07016047 -0.01549501
v -0.02415757 -0.07226888 -0.01545273
v -0.03814272 -0.07268546 -0.01543851
v -0.05779786 -0.08023681 -0.01523757
v -0.06032057 -0.08043510 -0.01522896
v -0.06431283 -0.08075709 -0.01521474
v -0.08384551 -0.08114094 -0.01515974
v -0.06371277 -0.07137385 -0.01541381
v -0.06107371 -0.06460110 -0.01553168
v -0.05593644 -0.06460110 -0.01555076
v -0.08385775 -0.06802113 -0.01535768
v -0.07973079 -0.06460110 -0.01542504
v -0.08385775 -0.07380607 -0.01528023
v -0.08384551 -0.08318567 -0.01432231
v -0.04607213 -0.08318567 -0.01511334
v -0.03599352 -0.08318386 -0.01511259
v -0.02953978 -0.08080803 -0.01521399
v -0.02141443 -0.08050241 -0.01521138
v -0.02130421 -0.07268546 -0.01543701
v -0.02166547 -0.07268546 -0.01543776
v -0.02441474 -0.07268546 -0.01544113
v -0.03867543 -0.07493395 -0.01538687
v -0.04763352 -0.08084805 -0.01521923
v -0.06687841 -0.08318567 -0.01512569
v -0.07882457 -0.08318567 -0.01511783
v -0.08384551 -0.08307470 -0.01510997
v -0.08384551 -0.08233794 -0.01512943
v -0.08384551 -0.07696596 -0.01523196
v -0.08385775 -0.07262543 -0.01529781
v -0.08384551 -0.08317476 -0.01510698
v -0.08365569 -0.08318567 -0.01510735
v -0.05357905 -0.08318567 -0.01511858
v -0.02141443 -0.07303111 -0.01542728
f 1 2 7
f 1 7 3
f 1 3 13
f 1 13 30
f 1 30 29
f 1 29 32
f 1 32 14
f 1 14 4
f 1 4 2
f 2 5 6
f 2 6 20
f 2 20 39
f 2 39 21
f 2 21 7
f 2 4 5
f 3 7 8
f 3 8 9
f 3 9 10
f 3 10 11
f 3 11 12
f 3 12 13
f 4 14 31
f 4 31 49
f 4 49 33
f 4 33 15
f 4 15 16
f 4 16 17
f 4 17 5
f 5 17 16
f 5 16 18
f 5 18 35
f 5 35 19
f 5 19 39
f 5 39 20
f 5 20 6
f 7 21 10
f 7 10 8
f 8 10 9
f 10 21 22
f 10 22 23
f 10 23 24
f 10 24 25
f 10 25 26
f 10 26 11
f 11 26 12
f 12 26 27
f 12 27 28
f 12 28 29
f 12 29 30
f 12 30 13
f 14 32 31
f 15 33 34
f 15 34 16
f 16 34 51
f 16 51 45
f 16 45 44
f 16 44 52
f 16 52 35
f 16 35 18
f 19 36 37
f 19 37 38
f 19 38 39
f 19 35 36
f 21 39 22
f 22 39 40
f 22 40 41
f 22 41 42
f 22 42 23
f 23 42 24
f 24 43 44
f 24 44 25
f 24 42 43
f 25 44 45
f 25 45 26
f 26 45 46
f 26 46 47
f 26 47 27
f 27 47 33
f 27 33 48
f 27 48 28
f 28 48 29
f 29 48 33
f 29 33 49
f 29 49 31
f 29 31 32
f 33 47 46
f 33 46 50
f 33 50 34
f 34 50 51
f 35 52 36
f 36 52 44
f 36 44 37
f 37 42 41
f 37 41 40
f 37 40 38
f 37 44 43
f 37 43 42
f 38 53 39
f 38 40 53
f 39 53 40
f 45 51 46
f 46 51 50

