# https://github.com/mikedh/trimesh
v 0.14349520 -0.08991818 0.01652790
v 0.14566120 -0.08887999 0.01625902
v 0.14433932 -0.08955837 0.01669807
v 0.14349520 -0.08990956 0.01669331
v 0.14349520 -0.08988749 0.01634683
v 0.14679169 -0.08829948 0.01588463
v 0.14566120 -0.08891357 0.01662796
v 0.14379157 -0.08973876 0.01696423
v 0.14635320 -0.08858829 0.01686689
v 0.14566120 -0.08889917 0.01689344
v 0.14349520 -0.08987117 0.01690909
v 0.14349520 -0.08980688 0.01588803
v 0.14413507 -0.08940197 0.01524613
v 0.14566120 -0.08876868 0.01561303
v 0.14740443 -0.08776406 0.01515559
v 0.14785362 -0.08774966 0.01631211
v 0.14721518 -0.08815363 0.01654627
v 0.14587830 -0.08855183 0.01507731
v 0.14417078 -0.08927819 0.01741349
v 0.14349520 -0.08980593 0.01704659
v 0.14349520 -0.08984814 0.01696695
v 0.14555693 -0.08887231 0.01716299
v 0.14566120 -0.08882049 0.01715755
v 0.14718376 -0.08806056 0.01708063
v 0.14349520 -0.08968407 0.01532509
v 0.14349520 -0.08946626 0.01451165
v 0.14386655 -0.08923021 0.01419580
v 0.14566120 -0.08862571 0.01498201
v 0.14637034 -0.08793006 0.01393645
v 0.14732872 -0.08723824 0.01368663
v 0.14821427 -0.08672106 0.01389152
v 0.14827853 -0.08712023 0.01505689
v 0.14842066 -0.08733419 0.01627603
v 0.14800430 -0.08763644 0.01676682
v 0.14566120 -0.08850770 0.01460422
v 0.14566120 -0.08823039 0.01375266
v 0.14349520 -0.08948832 0.01746999
v 0.14349520 -0.08959195 0.01736176
v 0.14566120 -0.08865258 0.01736176
v 0.14572691 -0.08842421 0.01754623
v 0.14566120 -0.08845204 0.01754691
v 0.14619038 -0.08842997 0.01734338
v 0.14719876 -0.08776406 0.01741554
v 0.14804715 -0.08742151 0.01714598
v 0.14349520 -0.08937222 0.01419444
v 0.14349520 -0.08920527 0.01374721
v 0.14349520 -0.08912178 0.01354368
v 0.14521986 -0.08841653 0.01363830
v 0.14672956 -0.08746565 0.01348106
v 0.14820141 -0.08639002 0.01332858
v 0.14975253 -0.08533263 0.01345791
v 0.15063307 -0.08470894 0.01379214
v 0.15079018 -0.08456405 0.01382345
v 0.15079018 -0.08468496 0.01442996
v 0.14985108 -0.08577017 0.01533870
v 0.14918836 -0.08664238 0.01663477
v 0.14857062 -0.08716148 0.01688186
v 0.14566120 -0.08813924 0.01359269
v 0.14349520 -0.08934344 0.01757278
v 0.14768652 -0.08699261 0.01773002
v 0.14668100 -0.08720082 0.01793900
v 0.14566120 -0.08762493 0.01797644
v 0.14566120 -0.08835225 0.01760001
v 0.14518273 -0.08782355 0.01799345
v 0.14828853 -0.08684004 0.01753806
v 0.14926477 -0.08640250 0.01713372
v 0.14349520 -0.08896538 0.01328774
v 0.14545196 -0.08800778 0.01328501
v 0.14566120 -0.08791950 0.01331701
v 0.14691524 -0.08707417 0.01319584
v 0.14756582 -0.08629119 0.01290926
v 0.14898911 -0.08555524 0.01308012
v 0.14988394 -0.08488741 0.01312505
v 0.15079018 -0.08436159 0.01343341
v 0.15079018 -0.08451992 0.01371182
v 0.15079018 -0.08476652 0.01507595
v 0.15079018 -0.08483272 0.01566204
v 0.14961827 -0.08618468 0.01688935
v 0.14349520 -0.08896442 0.01777495
v 0.14884414 -0.08580088 0.01785527
v 0.14748798 -0.08646007 0.01801524
v 0.14574976 -0.08683812 0.01820243
v 0.14566120 -0.08688226 0.01820311
v 0.14349520 -0.08797323 0.01821128
v 0.14349520 -0.08800106 0.01820243
v 0.14349520 -0.08840406 0.01805200
v 0.14949329 -0.08591890 0.01739852
v 0.14956614 -0.08535950 0.01773887
v 0.15079018 -0.08476459 0.01708471
v 0.15079018 -0.08466193 0.01723174
v 0.14349520 -0.08895099 0.01327072
v 0.14411865 -0.08650613 0.01145936
v 0.14512488 -0.08597360 0.01145936
v 0.14566120 -0.08787440 0.01327208
v 0.14349520 -0.08865738 0.01301137
v 0.14566120 -0.08564352 0.01145936
v 0.14577403 -0.08557251 0.01146004
v 0.14611182 -0.08535566 0.01146004
v 0.14729873 -0.08451800 0.01146004
v 0.14745870 -0.08439806 0.01146004
v 0.14888485 -0.08318810 0.01146004
v 0.14891841 -0.08315548 0.01146004
v 0.15079018 -0.08399889 0.01313594
v 0.15079018 -0.08423685 0.01330611
v 0.15079018 -0.08487877 0.01665246
v 0.15079018 -0.08484423 0.01694857
v 0.15079018 -0.08340495 0.01813300
v 0.15079018 -0.08280525 0.01828276
v 0.14510202 -0.08656753 0.01831339
v 0.15079018 -0.08268147 0.01830862
v 0.15079018 -0.08262486 0.01831747
v 0.14566120 -0.08617989 0.01831407
v 0.14349520 -0.08794829 0.01821536
v 0.15079018 -0.08454486 0.01736312
v 0.15079018 -0.08404015 0.01777835
v 0.15079018 -0.08384249 0.01791722
v 0.14390655 -0.08660784 0.01145936
v 0.14349520 -0.08677768 0.01145936
v 0.14566120 -0.08292806 0.01145936
v 0.15079018 -0.08119421 0.01146004
v 0.15029242 -0.08176321 0.01146004
v 0.14349520 -0.08715860 0.01831271
v 0.15079018 -0.08195415 0.01841345
v 0.14349520 -0.08424358 0.01145936
v 0.14891627 -0.08011667 0.01146004
v 0.15079018 -0.08011667 0.01146004
v 0.14349520 -0.08676807 0.01832428
v 0.15079018 -0.08187355 0.01841141
v 0.14349520 -0.08644760 0.01831815
v 0.14349520 -0.08437311 0.01558920
v 0.14907052 -0.08011667 0.01590028
v 0.15079018 -0.08011667 0.01823579
v 0.15079018 -0.08071061 0.01834062
v 0.14349520 -0.08619524 0.01829977
v 0.14349520 -0.08444412 0.01633389
v 0.14913765 -0.08011667 0.01662047
v 0.15078661 -0.08011667 0.01825689
v 0.15079018 -0.08018479 0.01827118
v 0.14349520 -0.08580663 0.01821536
v 0.14349520 -0.08457940 0.01699962
v 0.14922906 -0.08011667 0.01697035
v 0.15025814 -0.08011667 0.01805948
v 0.14349520 -0.08557635 0.01813776
v 0.14349520 -0.08471950 0.01739375
v 0.14947401 -0.08011667 0.01749722
v 0.14977395 -0.08011667 0.01782736
v 0.14349520 -0.08536430 0.01802953
v 0.14349520 -0.08490180 0.01766944
v 0.14967398 -0.08011667 0.01773887
v 0.14975538 -0.08011667 0.01781647
v 0.14349520 -0.08511194 0.01786208
f 1 2 3
f 1 3 4
f 1 4 11
f 1 11 21
f 1 21 20
f 1 20 38
f 1 38 37
f 1 37 59
f 1 59 79
f 1 79 86
f 1 86 85
f 1 85 84
f 1 84 113
f 1 113 122
f 1 122 127
f 1 127 129
f 1 129 134
f 1 134 139
f 1 139 143
f 1 143 147
f 1 147 151
f 1 151 148
f 1 148 144
f 1 144 140
f 1 140 135
f 1 135 130
f 1 130 124
f 1 124 118
f 1 118 95
f 1 95 91
f 1 91 67
f 1 67 47
f 1 47 46
f 1 46 45
f 1 45 26
f 1 26 25
f 1 25 12
f 1 12 5
f 1 5 6
f 1 6 2
f 2 7 3
f 2 6 7
f 3 8 4
f 3 7 9
f 3 9 10
f 3 10 8
f 4 8 11
f 5 12 13
f 5 13 14
f 5 14 6
f 6 15 16
f 6 16 17
f 6 17 7
f 6 14 18
f 6 18 15
f 7 17 9
f 8 19 20
f 8 20 21
f 8 21 11
f 8 10 22
f 8 22 19
f 9 23 22
f 9 22 10
f 9 17 24
f 9 24 23
f 12 25 13
f 13 25 26
f 13 26 27
f 13 27 28
f 13 28 18
f 13 18 14
f 15 18 29
f 15 29 30
f 15 30 31
f 15 31 32
f 15 32 16
f 16 32 33
f 16 33 34
f 16 34 17
f 17 34 24
f 18 28 35
f 18 35 36
f 18 36 29
f 19 37 38
f 19 38 20
f 19 22 39
f 19 39 40
f 19 40 41
f 19 41 37
f 22 23 42
f 22 42 39
f 23 24 42
f 24 43 42
f 24 34 44
f 24 44 43
f 26 45 27
f 27 45 46
f 27 46 47
f 27 47 48
f 27 48 28
f 28 48 35
f 29 36 49
f 29 49 30
f 30 49 50
f 30 50 31
f 31 50 51
f 31 51 32
f 32 51 52
f 32 52 33
f 33 52 53
f 33 53 54
f 33 54 55
f 33 55 56
f 33 56 57
f 33 57 34
f 34 57 44
f 35 48 36
f 36 48 58
f 36 58 49
f 37 41 59
f 39 42 40
f 40 42 43
f 40 43 60
f 40 60 61
f 40 61 62
f 40 62 63
f 40 63 41
f 41 63 64
f 41 64 59
f 43 44 65
f 43 65 60
f 44 57 66
f 44 66 65
f 47 67 48
f 48 68 69
f 48 69 58
f 48 67 68
f 49 70 50
f 49 58 69
f 49 69 70
f 50 71 72
f 50 72 51
f 50 70 71
f 51 72 73
f 51 73 74
f 51 74 75
f 51 75 52
f 52 75 53
f 53 75 74
f 53 74 104
f 53 104 103
f 53 103 120
f 53 120 126
f 53 126 132
f 53 132 138
f 53 138 133
f 53 133 128
f 53 128 123
f 53 123 111
f 53 111 110
f 53 110 108
f 53 108 107
f 53 107 116
f 53 116 115
f 53 115 114
f 53 114 90
f 53 90 89
f 53 89 106
f 53 106 105
f 53 105 77
f 53 77 76
f 53 76 54
f 54 76 56
f 54 56 55
f 56 76 77
f 56 77 78
f 56 78 57
f 57 78 66
f 59 64 79
f 60 65 80
f 60 80 81
f 60 81 61
f 61 81 82
f 61 82 62
f 62 82 64
f 62 64 63
f 64 82 83
f 64 83 84
f 64 84 85
f 64 85 86
f 64 86 79
f 65 66 87
f 65 87 88
f 65 88 80
f 66 78 89
f 66 89 90
f 66 90 87
f 67 91 68
f 68 92 93
f 68 93 94
f 68 94 69
f 68 91 95
f 68 95 92
f 69 94 70
f 70 94 93
f 70 93 96
f 70 96 97
f 70 97 71
f 71 97 98
f 71 98 72
f 72 98 99
f 72 99 100
f 72 100 73
f 73 100 101
f 73 101 102
f 73 102 103
f 73 103 104
f 73 104 74
f 77 105 78
f 78 105 106
f 78 106 89
f 80 88 107
f 80 107 81
f 81 107 108
f 81 108 82
f 82 109 83
f 82 108 110
f 82 110 111
f 82 111 112
f 82 112 109
f 83 109 84
f 84 109 113
f 87 90 114
f 87 114 115
f 87 115 88
f 88 115 116
f 88 116 107
f 92 95 117
f 92 117 118
f 92 118 124
f 92 124 119
f 92 119 96
f 92 96 93
f 95 118 117
f 96 119 126
f 96 126 120
f 96 120 121
f 96 121 102
f 96 102 101
f 96 101 100
f 96 100 99
f 96 99 98
f 96 98 97
f 102 121 103
f 103 121 120
f 109 122 113
f 109 112 123
f 109 123 122
f 111 123 112
f 119 124 125
f 119 125 126
f 122 123 127
f 123 128 129
f 123 129 127
f 124 130 131
f 124 131 125
f 125 131 136
f 125 136 141
f 125 141 145
f 125 145 149
f 125 149 150
f 125 150 146
f 125 146 142
f 125 142 137
f 125 137 132
f 125 132 126
f 128 133 129
f 129 133 134
f 130 135 136
f 130 136 131
f 132 137 138
f 133 138 134
f 134 138 137
f 134 137 139
f 135 140 141
f 135 141 136
f 137 142 143
f 137 143 139
f 140 144 141
f 141 144 145
f 142 146 147
f 142 147 143
f 144 148 149
f 144 149 145
f 146 150 151
f 146 151 147
f 148 151 150
f 148 150 149

