# https://github.com/mikedh/trimesh
v 0.15078982 -0.08011571 0.01145869
v 0.15078982 -0.08119444 0.01145869
v 0.15078982 -0.08011571 0.00597035
v 0.14891666 -0.08011571 0.01145869
v 0.15068841 -0.08110117 0.00753960
v 0.15078982 -0.08097595 0.00748964
v 0.15029279 -0.08176315 0.01145869
v 0.15078982 -0.08085073 0.00597035
v 0.14900521 -0.08011571 0.00597035
v 0.14889953 -0.08011571 0.01119437
v 0.14349499 -0.08424212 0.01145869
v 0.15078982 -0.08094987 0.00706952
v 0.14970220 -0.08214467 0.00783937
v 0.14957723 -0.08213098 0.00597035
v 0.14983289 -0.08186619 0.00597035
v 0.14996357 -0.08172793 0.00597035
v 0.14891808 -0.08315557 0.01145869
v 0.14884525 -0.08011571 0.00728603
v 0.14349499 -0.08409408 0.00597035
v 0.14879597 -0.08011571 0.00859042
v 0.14349499 -0.08413907 0.00921414
v 0.14349499 -0.08677784 0.01145869
v 0.14888524 -0.08318753 0.01145869
v 0.14930729 -0.08238533 0.00597035
v 0.14883740 -0.08011571 0.00747513
v 0.14349499 -0.08656979 0.00597035
v 0.14349499 -0.08413582 0.00903740
v 0.14390704 -0.08660826 0.01145869
v 0.14745769 -0.08439604 0.01145869
v 0.14746055 -0.08404972 0.00597035
v 0.14844462 -0.08333688 0.00793661
v 0.14835536 -0.08327688 0.00597035
v 0.14434338 -0.08612955 0.00597035
v 0.14411914 -0.08650652 0.01145869
v 0.14729773 -0.08451603 0.01145869
v 0.14654504 -0.08477496 0.00597035
v 0.14719704 -0.08426104 0.00597035
v 0.14485113 -0.08586607 0.00597035
v 0.14512535 -0.08597303 0.01145869
v 0.14611157 -0.08535606 0.01145869
v 0.14652790 -0.08478669 0.00597035
v 0.14505894 -0.08575390 0.00597035
v 0.14513249 -0.08570889 0.00597035
v 0.14577449 -0.08557389 0.01145869
v 0.14535173 -0.08556933 0.00597035
f 1 2 6
f 1 6 12
f 1 12 8
f 1 8 3
f 1 3 9
f 1 9 18
f 1 18 25
f 1 25 20
f 1 20 10
f 1 10 4
f 1 4 11
f 1 11 22
f 1 22 28
f 1 28 34
f 1 34 39
f 1 39 44
f 1 44 40
f 1 40 35
f 1 35 29
f 1 29 23
f 1 23 17
f 1 17 7
f 1 7 2
f 2 5 6
f 2 7 5
f 3 8 16
f 3 16 15
f 3 15 14
f 3 14 24
f 3 24 32
f 3 32 30
f 3 30 37
f 3 37 36
f 3 36 41
f 3 41 45
f 3 45 43
f 3 43 42
f 3 42 38
f 3 38 33
f 3 33 26
f 3 26 19
f 3 19 9
f 4 10 11
f 5 8 12
f 5 12 6
f 5 7 13
f 5 13 14
f 5 14 15
f 5 15 16
f 5 16 8
f 7 17 13
f 9 19 18
f 10 20 21
f 10 21 11
f 11 21 27
f 11 27 19
f 11 19 26
f 11 26 22
f 13 17 23
f 13 23 14
f 14 23 24
f 18 19 25
f 19 27 20
f 19 20 25
f 20 27 21
f 22 26 28
f 23 29 30
f 23 30 31
f 23 31 32
f 23 32 24
f 26 33 34
f 26 34 28
f 29 35 36
f 29 36 37
f 29 37 30
f 30 32 31
f 33 38 34
f 34 38 39
f 35 40 36
f 36 40 41
f 38 42 39
f 39 42 43
f 39 43 44
f 40 44 45
f 40 45 41
f 43 45 44

