# https://github.com/mikedh/trimesh
v 0.13697937 0.08830849 -0.01770415
v 0.13615905 0.08844133 -0.01769080
v 0.13643850 0.08887627 -0.01761262
v 0.13701318 0.08870659 -0.01762852
v 0.13771631 0.08830970 -0.01764822
v 0.14091873 0.08718993 -0.01750648
v 0.14325125 0.08560038 -0.01739525
v 0.12574498 0.08796709 -0.01759801
v 0.12499226 0.08817484 -0.01760373
v 0.13598101 0.08916299 -0.01755224
v 0.13648808 0.08930960 -0.01751729
v 0.13697036 0.08920066 -0.01751856
v 0.13777716 0.08830970 -0.01764313
v 0.14081281 0.08760503 -0.01744165
v 0.14185851 0.08691170 -0.01744801
v 0.14360057 0.08560038 -0.01737047
v 0.14287940 0.08560038 -0.01737364
v 0.12268453 0.08733329 -0.01735585
v 0.12268453 0.08749002 -0.01743847
v 0.12268453 0.08752445 -0.01745309
v 0.12368740 0.08771924 -0.01751665
v 0.12268453 0.08775650 -0.01749822
v 0.12268453 0.08780389 -0.01749695
v 0.12268453 0.08787273 -0.01748741
v 0.12427335 0.08842998 -0.01743085
v 0.12445815 0.08866163 -0.01734314
v 0.12536636 0.08838624 -0.01753445
v 0.12597710 0.08835830 -0.01757004
v 0.13661879 0.08954611 -0.01730373
v 0.13697036 0.08947645 -0.01735458
v 0.13731742 0.08935618 -0.01737619
v 0.14104494 0.08786867 -0.01733360
v 0.14201625 0.08732520 -0.01732089
v 0.14237234 0.08675862 -0.01737936
v 0.14402425 0.08560038 -0.01730627
v 0.12268453 0.08560038 -0.01476964
v 0.12268453 0.08719843 -0.01717852
v 0.12268453 0.08727457 -0.01728466
v 0.12268453 0.08800030 -0.01742131
v 0.12268453 0.08825746 -0.01723572
v 0.12268453 0.08845225 -0.01708000
v 0.12364007 0.08863288 -0.01716517
v 0.12456182 0.08883982 -0.01708318
v 0.12497423 0.08883375 -0.01716263
v 0.13665710 0.08967409 -0.01706348
v 0.13706501 0.08964574 -0.01707301
v 0.13740531 0.08954125 -0.01710161
v 0.14191259 0.08759775 -0.01721983
v 0.14314307 0.08689591 -0.01710860
v 0.14456287 0.08560038 -0.01716899
v 0.12268453 0.08560038 -0.01416901
v 0.12268453 0.08857375 -0.01690776
v 0.12398038 0.08879770 -0.01692047
v 0.12458435 0.08890705 -0.01674505
v 0.12540017 0.08893944 -0.01691284
v 0.13669992 0.08971904 -0.01673996
v 0.13706952 0.08972349 -0.01683276
v 0.13746841 0.08965141 -0.01677047
v 0.14198470 0.08783345 -0.01673297
v 0.14124777 0.08799949 -0.01702725
v 0.14229796 0.08760220 -0.01695034
v 0.14273066 0.08732155 -0.01699674
v 0.14353071 0.08685217 -0.01688742
v 0.14506769 0.08560038 -0.01691094
v 0.12354316 0.08560038 -0.01180272
v 0.12268453 0.08561172 -0.01180717
v 0.12268453 0.08863652 -0.01665988
v 0.12268453 0.08868107 -0.01624421
v 0.12268453 0.08868593 -0.01618891
v 0.12268453 0.08871833 -0.01540396
v 0.12268453 0.08884833 -0.01121099
v 0.13720023 0.08973727 -0.01653721
v 0.13752475 0.08969798 -0.01633192
v 0.13771631 0.08959552 -0.01659314
v 0.14234980 0.08768320 -0.01638848
v 0.14271038 0.08749528 -0.01672534
v 0.13791013 0.08955016 -0.01645331
v 0.13788083 0.08958741 -0.01610946
v 0.14330534 0.08713242 -0.01669992
v 0.14540798 0.08560038 -0.01657535
v 0.13944936 0.08560038 -0.01121099
v 0.12268453 0.08656869 -0.01121099
v 0.13322706 0.08903786 -0.01121162
v 0.13374765 0.08902733 -0.01121099
v 0.13451614 0.08901356 -0.01121099
v 0.13768476 0.08865961 -0.01121099
v 0.13771631 0.08963926 -0.01621306
v 0.13771631 0.08962549 -0.01639166
v 0.13521477 0.08896739 -0.01121099
v 0.13603510 0.08889693 -0.01121099
v 0.13682161 0.08879730 -0.01121099
v 0.13715967 0.08874344 -0.01121099
v 0.14284334 0.08700971 -0.01121099
v 0.14312730 0.08688376 -0.01121099
v 0.14369972 0.08662052 -0.01121099
v 0.14448625 0.08622324 -0.01121099
v 0.14319040 0.08724541 -0.01633764
v 0.14354198 0.08702470 -0.01641581
v 0.13868087 0.08844496 -0.01121099
v 0.13901441 0.08835911 -0.01121099
v 0.14045223 0.08792254 -0.01121099
v 0.14190583 0.08740052 -0.01121099
v 0.14561983 0.08560038 -0.01621052
v 0.14559053 0.08560038 -0.01627090
v 0.14556123 0.08560038 -0.01121099
v 0.14520065 0.08582554 -0.01121099
v 0.14570772 0.08560038 -0.01547705
v 0.14570321 0.08560038 -0.01571095
v 0.14568969 0.08560038 -0.01593213
f 1 2 3
f 1 3 4
f 1 4 5
f 1 5 6
f 1 6 7
f 1 7 8
f 1 8 9
f 1 9 2
f 2 9 3
f 3 9 10
f 3 10 11
f 3 11 4
f 4 11 12
f 4 12 13
f 4 13 5
f 5 13 6
f 6 14 15
f 6 15 16
f 6 16 7
f 6 13 14
f 7 16 35
f 7 35 50
f 7 50 64
f 7 64 80
f 7 80 104
f 7 104 103
f 7 103 109
f 7 109 108
f 7 108 107
f 7 107 105
f 7 105 81
f 7 81 65
f 7 65 51
f 7 51 36
f 7 36 17
f 7 17 18
f 7 18 19
f 7 19 20
f 7 20 21
f 7 21 8
f 8 21 22
f 8 22 9
f 9 22 23
f 9 23 24
f 9 24 25
f 9 25 26
f 9 26 27
f 9 27 28
f 9 28 10
f 10 28 11
f 11 29 30
f 11 30 12
f 11 28 27
f 11 27 26
f 11 26 29
f 12 30 31
f 12 31 32
f 12 32 14
f 12 14 13
f 14 32 33
f 14 33 15
f 15 33 34
f 15 34 35
f 15 35 16
f 17 36 37
f 17 37 38
f 17 38 18
f 18 38 37
f 18 37 36
f 18 36 51
f 18 51 66
f 18 66 82
f 18 82 71
f 18 71 70
f 18 70 69
f 18 69 68
f 18 68 67
f 18 67 52
f 18 52 41
f 18 41 40
f 18 40 39
f 18 39 24
f 18 24 23
f 18 23 22
f 18 22 20
f 18 20 19
f 20 22 21
f 24 39 26
f 24 26 25
f 26 39 40
f 26 40 41
f 26 41 42
f 26 42 43
f 26 43 44
f 26 44 29
f 29 45 46
f 29 46 30
f 29 44 45
f 30 46 47
f 30 47 31
f 31 47 32
f 32 48 33
f 32 47 48
f 33 48 49
f 33 49 50
f 33 50 35
f 33 35 34
f 41 52 42
f 42 52 43
f 43 52 53
f 43 53 54
f 43 54 55
f 43 55 45
f 43 45 44
f 45 56 57
f 45 57 46
f 45 55 54
f 45 54 56
f 46 57 58
f 46 58 47
f 47 58 59
f 47 59 60
f 47 60 48
f 48 61 62
f 48 62 49
f 48 60 61
f 49 62 63
f 49 63 64
f 49 64 50
f 51 65 66
f 52 67 53
f 53 67 54
f 54 67 68
f 54 68 69
f 54 69 70
f 54 70 71
f 54 71 56
f 56 72 57
f 56 71 72
f 57 72 58
f 58 73 74
f 58 74 59
f 58 72 73
f 59 75 76
f 59 76 61
f 59 61 60
f 59 74 77
f 59 77 78
f 59 78 75
f 61 76 62
f 62 76 79
f 62 79 63
f 63 79 80
f 63 80 64
f 65 81 66
f 66 81 82
f 71 83 72
f 71 82 81
f 71 81 105
f 71 105 106
f 71 106 96
f 71 96 95
f 71 95 94
f 71 94 93
f 71 93 102
f 71 102 101
f 71 101 100
f 71 100 99
f 71 99 86
f 71 86 92
f 71 92 91
f 71 91 90
f 71 90 89
f 71 89 85
f 71 85 84
f 71 84 83
f 72 85 73
f 72 83 85
f 73 86 87
f 73 87 88
f 73 88 74
f 73 85 89
f 73 89 90
f 73 90 91
f 73 91 92
f 73 92 86
f 74 88 77
f 75 93 94
f 75 94 95
f 75 95 96
f 75 96 97
f 75 97 76
f 75 78 93
f 76 97 98
f 76 98 79
f 77 88 78
f 78 88 87
f 78 87 86
f 78 86 99
f 78 99 100
f 78 100 101
f 78 101 102
f 78 102 93
f 79 98 103
f 79 103 104
f 79 104 80
f 83 84 85
f 96 106 97
f 97 106 105
f 97 105 98
f 98 105 107
f 98 107 108
f 98 108 109
f 98 109 103

