# https://github.com/mikedh/trimesh
v -0.15290786 -0.00887718 0.00269065
v -0.15154235 -0.03198165 0.00129444
v -0.15110704 -0.03369828 0.00093750
v -0.15100283 -0.03224878 0.00085968
v -0.15113349 -0.01784133 0.00103674
v -0.15098722 -0.00235223 0.00093242
v -0.15088269 0.00008697 0.00081795
v -0.15125650 0.00008697 0.00113317
v -0.15149391 0.00008697 0.00130741
v -0.15240149 0.00008697 0.00186624
v -0.15290786 0.00008697 0.00217300
v -0.15290786 -0.03501641 0.00208446
v -0.15280238 -0.03477993 0.00202356
v -0.15159844 -0.03550249 0.00122227
v -0.15103630 -0.03610244 0.00071702
v -0.15071411 -0.03538864 0.00045593
v -0.15067364 -0.03477993 0.00041815
v -0.15054394 -0.03284434 0.00029635
v -0.15078200 -0.01905436 0.00068826
v -0.15057517 -0.00276825 0.00049540
v -0.15080621 0.00008697 0.00073675
v -0.15290786 0.00008697 -0.00119854
v -0.15290786 -0.03672428 0.00201567
v -0.15290786 -0.03675056 0.00201341
v -0.15172527 -0.03773149 0.00106719
v -0.15089990 -0.03717971 0.00045142
v -0.15055223 -0.03680748 0.00009617
v -0.15041170 -0.03499013 0.00004203
v -0.15048053 -0.02153296 0.00029015
v -0.15019277 0.00008697 -0.00022864
v -0.15034286 0.00008697 0.00005669
v -0.15055223 0.00008697 0.00042548
v -0.15179920 0.00008697 -0.00307011
v -0.15290786 -0.04054729 -0.00241261
v -0.15290786 -0.03827888 0.00183691
v -0.15290786 -0.03878687 0.00173090
v -0.15290786 -0.03928609 0.00162489
v -0.15161692 -0.03878687 0.00074634
v -0.15144770 -0.03878687 0.00060254
v -0.15114751 -0.03852412 0.00040292
v -0.15066090 -0.03800737 0.00003357
v -0.15036135 -0.03768332 -0.00034311
v -0.15005956 -0.03478431 -0.00073615
v -0.15004012 -0.03355815 -0.00067976
v -0.15009079 -0.03122405 -0.00050382
v -0.15008346 -0.03627323 -0.00080551
v -0.15021731 -0.02069216 -0.00022018
v -0.15009525 -0.01372929 -0.00043897
v -0.15006243 0.00008697 -0.00060871
v -0.14969787 0.00008697 -0.00307011
v -0.15182023 -0.00202379 -0.00307011
v -0.15190755 -0.03878249 -0.00306955
v -0.15290786 -0.04465057 -0.00241261
v -0.15182756 -0.00408200 -0.00307011
v -0.15290786 -0.03990793 0.00139651
v -0.15160322 -0.03891824 0.00070574
v -0.15098149 -0.03945250 -0.00004594
v -0.15110130 -0.03878687 0.00027774
v -0.15083298 -0.03878687 -0.00000872
v -0.15055574 -0.03878687 -0.00035044
v -0.15054108 -0.03878687 -0.00036961
v -0.15053853 -0.03875621 -0.00036341
v -0.15051590 -0.03878687 -0.00041021
v -0.15034605 -0.03878687 -0.00070739
v -0.15020201 -0.03809934 -0.00079705
v -0.14983713 -0.03487189 -0.00151771
v -0.14983681 -0.03478431 -0.00151038
v -0.14983330 -0.03196851 -0.00127410
v -0.14998117 -0.03797234 -0.00145681
v -0.14987251 -0.01346217 -0.00111283
v -0.14992253 0.00008697 -0.00103614
v -0.14969819 0.00008697 -0.00305094
v -0.14966378 -0.01358478 -0.00307011
v -0.14978359 -0.03878249 -0.00306955
v -0.15181928 -0.02434439 -0.00307011
v -0.15180717 -0.03477993 -0.00307011
v -0.15107454 -0.04270622 -0.00241261
v -0.15290786 -0.04448416 -0.00214476
v -0.15290786 -0.04073121 0.00103618
v -0.15128232 -0.04016630 -0.00006455
v -0.15072559 -0.04052977 -0.00091208
v -0.15063221 -0.03966708 -0.00057938
v -0.15034319 -0.03899269 -0.00077731
v -0.15031004 -0.03878687 -0.00078182
v -0.15018831 -0.03878687 -0.00108069
v -0.14983394 -0.03478431 -0.00152955
v -0.14977626 -0.03822633 -0.00267539
v -0.14973005 -0.03180648 -0.00190961
v -0.15010418 -0.03878687 -0.00135023
v -0.14996205 -0.03878687 -0.00187804
v -0.14986358 -0.03878687 -0.00241261
v -0.14973229 -0.01979881 -0.00195867
v -0.14982661 0.00008697 -0.00161470
v -0.14988079 0.00008697 -0.00126395
v -0.14972113 0.00008697 -0.00269061
v -0.14967684 -0.01374681 -0.00266129
v -0.14966026 -0.03213054 -0.00282143
v -0.14965230 -0.03224878 -0.00307011
v -0.14968321 -0.03477993 -0.00307011
v -0.14976798 -0.03856791 -0.00306955
v -0.14980494 -0.03878249 -0.00282595
v -0.14993751 -0.03962329 -0.00241261
v -0.15010514 -0.04066115 -0.00241261
v -0.15011884 -0.04072245 -0.00241261
v -0.15014657 -0.04081880 -0.00241261
v -0.15034382 -0.04147567 -0.00241261
v -0.15044357 -0.04169025 -0.00241261
v -0.15062425 -0.04205810 -0.00241261
v -0.15099901 -0.04260112 -0.00241261
v -0.15290786 -0.04396304 -0.00148162
v -0.15070456 -0.04186980 -0.00201675
v -0.15111023 -0.04208875 -0.00163951
v -0.15290786 -0.04125672 0.00074747
v -0.15117269 -0.04110782 -0.00074742
v -0.15059589 -0.04095893 -0.00139083
v -0.15040883 -0.03990355 -0.00105644
v -0.15017906 -0.03927733 -0.00128482
v -0.14971922 -0.03727168 -0.00306955
v -0.14987027 -0.03887445 -0.00241261
v -0.14971444 -0.03700455 -0.00306955
v -0.14969819 -0.03601486 -0.00306955
v -0.14968608 -0.03478431 -0.00299117
v -0.14994739 -0.03939995 -0.00219889
v -0.15011884 -0.04066552 -0.00235453
v -0.15038301 -0.04129613 -0.00210867
v -0.15290786 -0.04317479 -0.00066340
v -0.15290786 -0.04300400 -0.00050269
v -0.15290786 -0.04203621 0.00025857
v -0.15254170 -0.04235150 -0.00035157
v -0.15024503 -0.04021447 -0.00160567
f 1 2 3
f 1 3 4
f 1 4 5
f 1 5 6
f 1 6 7
f 1 7 8
f 1 8 9
f 1 9 10
f 1 10 11
f 1 11 22
f 1 22 34
f 1 34 53
f 1 53 78
f 1 78 110
f 1 110 126
f 1 126 127
f 1 127 128
f 1 128 113
f 1 113 79
f 1 79 55
f 1 55 37
f 1 37 36
f 1 36 35
f 1 35 24
f 1 24 23
f 1 23 12
f 1 12 13
f 1 13 2
f 2 13 14
f 2 14 3
f 3 14 15
f 3 15 16
f 3 16 4
f 4 16 17
f 4 17 18
f 4 18 19
f 4 19 5
f 5 19 6
f 6 19 20
f 6 20 21
f 6 21 7
f 7 21 32
f 7 32 31
f 7 31 30
f 7 30 49
f 7 49 71
f 7 71 94
f 7 94 93
f 7 93 95
f 7 95 72
f 7 72 50
f 7 50 33
f 7 33 22
f 7 22 11
f 7 11 10
f 7 10 9
f 7 9 8
f 12 23 14
f 12 14 13
f 14 23 24
f 14 24 25
f 14 25 15
f 15 25 26
f 15 26 16
f 16 26 27
f 16 27 28
f 16 28 17
f 17 28 18
f 18 28 29
f 18 29 19
f 19 29 20
f 20 29 30
f 20 30 31
f 20 31 32
f 20 32 21
f 22 33 34
f 24 35 25
f 25 35 36
f 25 36 37
f 25 37 38
f 25 38 39
f 25 39 40
f 25 40 26
f 26 40 41
f 26 41 27
f 27 41 42
f 27 42 28
f 28 43 44
f 28 44 45
f 28 45 29
f 28 42 46
f 28 46 43
f 29 45 47
f 29 47 48
f 29 48 30
f 30 48 49
f 33 50 73
f 33 73 98
f 33 98 99
f 33 99 76
f 33 76 75
f 33 75 54
f 33 54 51
f 33 51 34
f 34 52 53
f 34 51 54
f 34 54 52
f 37 55 56
f 37 56 38
f 38 56 39
f 39 56 57
f 39 57 58
f 39 58 40
f 40 58 41
f 41 58 59
f 41 59 60
f 41 60 61
f 41 61 62
f 41 62 42
f 42 62 63
f 42 63 64
f 42 64 65
f 42 65 46
f 43 46 66
f 43 66 44
f 44 66 67
f 44 67 68
f 44 68 45
f 45 68 48
f 45 48 47
f 46 65 69
f 46 69 66
f 48 68 70
f 48 70 49
f 49 70 71
f 50 72 73
f 52 74 53
f 52 54 75
f 52 75 76
f 52 76 99
f 52 99 74
f 53 77 78
f 53 74 77
f 55 79 80
f 55 80 56
f 56 80 57
f 57 80 81
f 57 81 82
f 57 82 60
f 57 60 59
f 57 59 58
f 60 82 61
f 61 63 62
f 61 82 63
f 63 82 83
f 63 83 64
f 64 83 84
f 64 84 65
f 65 84 85
f 65 85 69
f 66 86 67
f 66 69 87
f 66 87 86
f 67 86 88
f 67 88 68
f 68 88 70
f 69 85 89
f 69 89 90
f 69 90 91
f 69 91 87
f 70 88 92
f 70 92 93
f 70 93 94
f 70 94 71
f 72 95 96
f 72 96 73
f 73 96 97
f 73 97 98
f 74 99 100
f 74 100 87
f 74 87 101
f 74 101 102
f 74 102 103
f 74 103 104
f 74 104 105
f 74 105 106
f 74 106 107
f 74 107 108
f 74 108 109
f 74 109 77
f 77 110 78
f 77 109 111
f 77 111 112
f 77 112 110
f 79 113 80
f 80 113 114
f 80 114 81
f 81 114 115
f 81 115 116
f 81 116 82
f 82 116 83
f 83 116 117
f 83 117 84
f 84 117 85
f 85 117 89
f 86 87 88
f 87 118 88
f 87 91 119
f 87 119 101
f 87 100 118
f 88 96 92
f 88 118 120
f 88 120 121
f 88 121 122
f 88 122 97
f 88 97 96
f 89 117 90
f 90 117 123
f 90 123 91
f 91 123 119
f 92 96 93
f 93 96 95
f 97 122 98
f 98 122 121
f 98 121 99
f 99 121 120
f 99 120 118
f 99 118 100
f 101 119 102
f 102 123 103
f 102 119 123
f 103 123 124
f 103 124 104
f 104 124 105
f 105 124 125
f 105 125 106
f 106 125 107
f 107 125 111
f 107 111 108
f 108 111 109
f 110 112 126
f 111 125 115
f 111 115 112
f 112 115 114
f 112 114 127
f 112 127 126
f 113 128 114
f 114 128 129
f 114 129 127
f 115 130 116
f 115 125 130
f 116 130 117
f 117 130 123
f 123 130 124
f 124 130 125
f 127 129 128

