# https://github.com/mikedh/trimesh
v 0.14349499 -0.08641334 -0.01411242
v 0.14416686 -0.08608863 -0.01411242
v 0.14349499 -0.08637915 -0.00980340
v 0.14349499 -0.08365717 -0.01411242
v 0.14462544 -0.08579654 -0.00980340
v 0.14391091 -0.08617253 -0.00980340
v 0.14563502 -0.08526675 -0.01411242
v 0.14539447 -0.08537084 -0.00980340
v 0.14349499 -0.07844313 -0.00980340
v 0.14472023 -0.08255718 -0.01411242
v 0.14349499 -0.07844313 -0.01347039
v 0.14349854 -0.07054128 -0.01409850
v 0.14690647 -0.07701843 -0.01411200
v 0.14738993 -0.07619655 -0.01411200
v 0.15187142 -0.07054128 -0.01411200
v 0.14587911 -0.08510516 -0.01411242
v 0.14684722 -0.08444331 -0.00980340
v 0.14590874 -0.08505545 -0.00980340
v 0.14485058 -0.07447200 -0.00980340
v 0.14349854 -0.07592466 -0.00980425
v 0.14349854 -0.07054128 -0.01070191
v 0.14488257 -0.08241425 -0.01411242
v 0.15528883 -0.07054128 -0.01411200
v 0.14620616 -0.08488765 -0.01411242
v 0.14713043 -0.08423357 -0.00980340
v 0.14672636 -0.08451322 -0.01411242
v 0.14522739 -0.07415817 -0.00980340
v 0.14458041 -0.07469417 -0.00980425
v 0.14388484 -0.07542750 -0.00980425
v 0.14379715 -0.07553159 -0.00980425
v 0.14676783 -0.07306440 -0.00980340
v 0.14714465 -0.07281581 -0.00980340
v 0.14735793 -0.07268997 -0.00980340
v 0.14821940 -0.07222543 -0.00980340
v 0.14838055 -0.07215086 -0.00980340
v 0.14923016 -0.07180128 -0.00980340
v 0.14983449 -0.07158844 -0.00980340
v 0.15291774 -0.07054128 -0.00980340
v 0.14918395 -0.08241425 -0.01411242
v 0.15555189 -0.07054128 -0.01403227
v 0.15555070 -0.07054438 -0.01411200
v 0.14774779 -0.08376281 -0.00980340
v 0.14742074 -0.08397256 -0.01411242
v 0.15560047 -0.07054128 -0.00980340
v 0.15203732 -0.07900399 -0.01411200
v 0.15179915 -0.07934890 -0.01411200
v 0.15100286 -0.08042869 -0.01411200
v 0.15081682 -0.08067417 -0.01411200
v 0.15064263 -0.08088080 -0.01411200
v 0.15006556 -0.08153954 -0.01411200
v 0.14992337 -0.08169180 -0.01411200
v 0.14936051 -0.08224956 -0.01411200
v 0.14907849 -0.08256496 -0.00980340
v 0.14821229 -0.08337130 -0.00980340
v 0.14830827 -0.08321748 -0.01411242
v 0.15554715 -0.07056768 -0.01411200
v 0.15547843 -0.07087997 -0.01411200
v 0.15525447 -0.07184789 -0.01411200
v 0.15511109 -0.07232797 -0.01411200
v 0.15489780 -0.07300070 -0.01411200
v 0.15436812 -0.07441607 -0.01411200
v 0.15416313 -0.07490236 -0.01411200
v 0.15375906 -0.07580503 -0.01411200
v 0.15345215 -0.07642805 -0.01411200
v 0.15280754 -0.07768806 -0.01411200
v 0.15257411 -0.07810133 -0.01411200
v 0.14774305 -0.08369911 -0.01411242
v 0.15539429 -0.07161174 -0.00980340
v 0.15220914 -0.07883309 -0.00980425
v 0.15199111 -0.07916091 -0.00980425
v 0.15265587 -0.07811997 -0.00980340
v 0.15245679 -0.07844313 -0.00980425
v 0.15122444 -0.08018321 -0.00980425
v 0.15053243 -0.08100975 -0.00980425
v 0.14996839 -0.08164830 -0.00980425
v 0.14954655 -0.08210352 -0.00980425
v 0.14923253 -0.08241425 -0.00980340
v 0.15537652 -0.07169097 -0.00980340
v 0.15535756 -0.07176089 -0.00980340
v 0.15504829 -0.07278630 -0.00980340
v 0.15433850 -0.07467864 -0.00980340
v 0.15413113 -0.07516027 -0.00980340
v 0.15381001 -0.07589825 -0.00980340
v 0.15351615 -0.07649640 -0.00980340
v 0.15284783 -0.07777351 -0.00980340
v 0.15245679 -0.07844157 -0.00980340
f 1 2 3
f 1 3 9
f 1 9 11
f 1 11 4
f 1 4 10
f 1 10 22
f 1 22 39
f 1 39 55
f 1 55 67
f 1 67 43
f 1 43 26
f 1 26 24
f 1 24 16
f 1 16 7
f 1 7 2
f 2 5 6
f 2 6 3
f 2 7 8
f 2 8 5
f 3 6 5
f 3 5 8
f 3 8 18
f 3 18 17
f 3 17 25
f 3 25 42
f 3 42 54
f 3 54 53
f 3 53 77
f 3 77 86
f 3 86 71
f 3 71 85
f 3 85 84
f 3 84 83
f 3 83 82
f 3 82 81
f 3 81 80
f 3 80 79
f 3 79 78
f 3 78 68
f 3 68 44
f 3 44 38
f 3 38 37
f 3 37 36
f 3 36 35
f 3 35 34
f 3 34 33
f 3 33 32
f 3 32 31
f 3 31 27
f 3 27 19
f 3 19 9
f 4 11 12
f 4 12 13
f 4 13 14
f 4 14 15
f 4 15 10
f 7 16 17
f 7 17 18
f 7 18 8
f 9 19 20
f 9 20 21
f 9 21 12
f 9 12 11
f 10 15 22
f 12 21 38
f 12 38 44
f 12 44 40
f 12 40 23
f 12 23 15
f 12 15 14
f 12 14 13
f 15 23 39
f 15 39 22
f 16 24 17
f 17 24 26
f 17 26 25
f 19 27 21
f 19 21 28
f 19 28 29
f 19 29 30
f 19 30 20
f 20 30 21
f 21 27 31
f 21 31 32
f 21 32 33
f 21 33 34
f 21 34 35
f 21 35 36
f 21 36 37
f 21 37 38
f 21 30 29
f 21 29 28
f 23 40 41
f 23 41 39
f 25 26 42
f 26 43 42
f 39 45 46
f 39 46 47
f 39 47 48
f 39 48 49
f 39 49 50
f 39 50 51
f 39 51 52
f 39 52 53
f 39 53 54
f 39 54 55
f 39 41 56
f 39 56 57
f 39 57 58
f 39 58 59
f 39 59 60
f 39 60 61
f 39 61 62
f 39 62 63
f 39 63 64
f 39 64 65
f 39 65 66
f 39 66 45
f 40 44 41
f 41 44 56
f 42 43 54
f 43 67 54
f 44 68 56
f 45 69 70
f 45 70 46
f 45 66 71
f 45 71 72
f 45 72 69
f 46 70 47
f 47 70 73
f 47 73 48
f 48 73 74
f 48 74 49
f 49 74 50
f 50 75 76
f 50 76 51
f 50 74 75
f 51 76 52
f 52 76 77
f 52 77 53
f 54 67 55
f 56 68 57
f 57 68 78
f 57 78 58
f 58 78 79
f 58 79 59
f 59 79 80
f 59 80 60
f 60 80 61
f 61 81 62
f 61 80 81
f 62 81 82
f 62 82 83
f 62 83 63
f 63 83 84
f 63 84 64
f 64 84 65
f 65 84 85
f 65 85 71
f 65 71 66
f 69 72 86
f 69 86 70
f 70 86 73
f 71 86 72
f 73 86 77
f 73 77 74
f 74 77 75
f 75 77 76

