# https://github.com/mikedh/trimesh
v -0.15290786 -0.04966703 -0.01157103
v -0.15290786 -0.04772262 -0.00876727
v -0.15290786 -0.04586849 -0.01157103
v -0.15034777 -0.04701632 -0.01157103
v -0.15112261 -0.04365854 -0.00382842
v -0.15290747 -0.04508108 -0.00310686
v -0.15290747 -0.04465180 -0.00241399
v -0.15290786 -0.04448345 -0.00876727
v -0.15290786 -0.04562592 -0.01109149
v -0.15159141 -0.04251913 -0.01157103
v -0.15007950 -0.04673242 -0.01157103
v -0.15073792 -0.04296449 -0.00344210
v -0.15107004 -0.04278390 -0.00250990
v -0.15145007 -0.04346418 -0.00292491
v -0.15123202 -0.04287572 -0.00241399
v -0.15290747 -0.04185186 -0.00241399
v -0.15290747 -0.04184957 -0.00241758
v -0.15290747 -0.04184957 -0.00358013
v -0.15178025 -0.04216484 -0.00876727
v -0.14893008 -0.04251913 -0.01157103
v -0.14997164 -0.04654648 -0.01157103
v -0.15046030 -0.04293082 -0.00414752
v -0.15053350 -0.04226891 -0.00286216
v -0.15062422 -0.04205923 -0.00241399
v -0.15099879 -0.04260637 -0.00241399
v -0.15107433 -0.04270738 -0.00241399
v -0.15262323 -0.04184957 -0.00241399
v -0.15219960 -0.04184957 -0.00479647
v -0.14972556 -0.04216484 -0.00876727
v -0.15211199 -0.04184957 -0.00479737
v -0.14896240 -0.04309687 -0.01157103
v -0.14995801 -0.04184957 -0.00479737
v -0.14998215 -0.04184957 -0.00454549
v -0.14974775 -0.04612101 -0.01157103
v -0.15027067 -0.04226431 -0.00367604
v -0.15037113 -0.04184957 -0.00277791
v -0.15043304 -0.04184957 -0.00262463
v -0.15046847 -0.04184957 -0.00253769
v -0.15052221 -0.04184957 -0.00241399
v -0.14917149 -0.04439162 -0.01157103
v -0.15010870 -0.04184957 -0.00373699
v -0.14940745 -0.04525632 -0.01157103
v -0.15015464 -0.04184957 -0.00350663
v -0.15029248 -0.04184957 -0.00302350
v -0.14919290 -0.04448268 -0.01157103
v -0.15012077 -0.04184957 -0.00367604
f 1 2 8
f 1 8 9
f 1 9 3
f 1 3 10
f 1 10 20
f 1 20 31
f 1 31 40
f 1 40 45
f 1 45 42
f 1 42 34
f 1 34 21
f 1 21 11
f 1 11 4
f 1 4 5
f 1 5 6
f 1 6 7
f 1 7 2
f 2 7 16
f 2 16 8
f 3 9 10
f 4 11 5
f 5 12 13
f 5 13 14
f 5 14 6
f 5 11 12
f 6 14 7
f 7 13 15
f 7 15 26
f 7 26 25
f 7 25 24
f 7 24 39
f 7 39 27
f 7 27 16
f 7 14 13
f 8 16 17
f 8 17 18
f 8 18 9
f 9 18 10
f 10 19 29
f 10 29 20
f 10 18 19
f 11 21 22
f 11 22 12
f 12 22 23
f 12 23 13
f 13 24 25
f 13 25 26
f 13 26 15
f 13 23 24
f 16 27 17
f 17 27 39
f 17 39 38
f 17 38 37
f 17 37 36
f 17 36 44
f 17 44 43
f 17 43 46
f 17 46 41
f 17 41 33
f 17 33 32
f 17 32 30
f 17 30 28
f 17 28 18
f 18 28 19
f 19 28 30
f 19 30 32
f 19 32 29
f 20 29 32
f 20 32 33
f 20 33 31
f 21 34 22
f 22 35 23
f 22 34 35
f 23 35 36
f 23 36 37
f 23 37 38
f 23 38 24
f 24 38 39
f 31 33 41
f 31 41 40
f 34 42 35
f 35 43 44
f 35 44 36
f 35 42 43
f 40 41 45
f 41 46 45
f 42 45 43
f 43 45 46

