# https://github.com/mikedh/trimesh
v -0.14058533 -0.08408580 -0.01525884
v -0.14058533 -0.08527650 -0.01753854
v -0.14058533 -0.08790046 -0.01525884
v -0.13738324 -0.08558659 -0.01523802
v -0.13341223 -0.08603027 -0.01523802
v -0.13341223 -0.08702565 -0.01730606
v -0.14058533 -0.08540333 -0.01767618
v -0.13341223 -0.08703480 -0.01732283
v -0.13341223 -0.08726822 -0.01767416
v -0.13773716 -0.08617542 -0.01773141
v -0.14058533 -0.08791589 -0.01568824
v -0.13891407 -0.08836824 -0.01525884
v -0.13738324 -0.08871547 -0.01523802
v -0.13341223 -0.08897589 -0.01523802
v -0.14058533 -0.08549255 -0.01774124
v -0.13812408 -0.08630130 -0.01796245
v -0.13341223 -0.08738927 -0.01779098
v -0.14058533 -0.08791300 -0.01575359
v -0.13949971 -0.08819945 -0.01617113
v -0.13887123 -0.08839236 -0.01571397
v -0.13767326 -0.08867593 -0.01553556
v -0.13776665 -0.08864217 -0.01525884
v -0.13734883 -0.08877286 -0.01608293
v -0.13710517 -0.08877045 -0.01523802
v -0.13362570 -0.08898698 -0.01523802
v -0.13341223 -0.08896479 -0.01561074
v -0.14058533 -0.08581856 -0.01785546
v -0.13842743 -0.08652650 -0.01812524
v -0.13797030 -0.08660994 -0.01811483
v -0.13341223 -0.08755179 -0.01781498
v -0.13343259 -0.08739168 -0.01779416
v -0.14058533 -0.08787586 -0.01610231
v -0.14055233 -0.08787731 -0.01618211
v -0.13898218 -0.08825347 -0.01671908
v -0.13736990 -0.08874441 -0.01645768
v -0.13649213 -0.08893393 -0.01610115
v -0.13708621 -0.08877383 -0.01523802
v -0.13409338 -0.08900193 -0.01523802
v -0.13426191 -0.08900675 -0.01566048
v -0.13341223 -0.08895419 -0.01578279
v -0.14058533 -0.08584460 -0.01786269
v -0.13840075 -0.08682213 -0.01819175
v -0.13764026 -0.08699044 -0.01815878
v -0.13341223 -0.08778086 -0.01778635
v -0.13371558 -0.08792794 -0.01779387
v -0.13383216 -0.08761978 -0.01784187
v -0.14058533 -0.08786526 -0.01617864
v -0.13999477 -0.08795206 -0.01662250
v -0.14058533 -0.08774469 -0.01656929
v -0.13959100 -0.08790914 -0.01711840
v -0.13847378 -0.08820669 -0.01728004
v -0.13743521 -0.08857610 -0.01701199
v -0.13738324 -0.08860696 -0.01695561
v -0.13717820 -0.08872801 -0.01672920
v -0.13648371 -0.08890162 -0.01646693
v -0.13582573 -0.08897541 -0.01627898
v -0.13565861 -0.08899952 -0.01580795
v -0.13633062 -0.08892960 -0.01565325
v -0.13627515 -0.08890451 -0.01523802
v -0.13472326 -0.08901205 -0.01523802
v -0.13433564 -0.08898988 -0.01599416
v -0.13363764 -0.08891126 -0.01625267
v -0.13341223 -0.08891175 -0.01612457
v -0.14058533 -0.08618459 -0.01790548
v -0.13834457 -0.08731693 -0.01804341
v -0.13955870 -0.08716840 -0.01792081
v -0.14058533 -0.08669578 -0.01786702
v -0.14058533 -0.08645995 -0.01791792
v -0.14058533 -0.08632541 -0.01791531
v -0.13738324 -0.08735744 -0.01805526
v -0.13738324 -0.08744665 -0.01802866
v -0.13430334 -0.08775723 -0.01785777
v -0.13341223 -0.08789033 -0.01776929
v -0.13374298 -0.08827228 -0.01764293
v -0.13446766 -0.08817534 -0.01770539
v -0.13708550 -0.08787346 -0.01789970
v -0.13727370 -0.08751369 -0.01801102
v -0.13341223 -0.08800944 -0.01774934
v -0.13341223 -0.08820620 -0.01766288
v -0.14058533 -0.08766029 -0.01677893
v -0.14058533 -0.08753443 -0.01705681
v -0.14058533 -0.08741000 -0.01726529
v -0.14054812 -0.08742109 -0.01727223
v -0.13939227 -0.08776928 -0.01745555
v -0.13874062 -0.08787586 -0.01759261
v -0.13792114 -0.08820862 -0.01747811
v -0.13789165 -0.08834751 -0.01731127
v -0.13738324 -0.08858912 -0.01700389
v -0.13738324 -0.08845939 -0.01730837
v -0.13721331 -0.08849653 -0.01730722
v -0.13657781 -0.08879070 -0.01687724
v -0.13595003 -0.08889294 -0.01667917
v -0.13481595 -0.08890066 -0.01663262
v -0.13532506 -0.08899036 -0.01523802
v -0.13551606 -0.08897782 -0.01523802
v -0.13606449 -0.08892815 -0.01523802
v -0.13341223 -0.08888716 -0.01628881
v -0.13341223 -0.08889439 -0.01625238
v -0.13787830 -0.08769647 -0.01793816
v -0.13856156 -0.08761014 -0.01789363
v -0.13738324 -0.08749344 -0.01801449
v -0.13954535 -0.08747414 -0.01769874
v -0.14058533 -0.08685589 -0.01779502
v -0.13392134 -0.08850907 -0.01746712
v -0.13452875 -0.08841888 -0.01755213
v -0.13341223 -0.08831376 -0.01757989
v -0.13341223 -0.08840441 -0.01750674
v -0.13709674 -0.08816088 -0.01767560
v -0.13738324 -0.08789274 -0.01785604
v -0.14058533 -0.08737769 -0.01730491
v -0.14058533 -0.08715537 -0.01756486
v -0.13763463 -0.08816569 -0.01759261
v -0.13738324 -0.08836294 -0.01742288
v -0.13701529 -0.08836294 -0.01748968
v -0.13642613 -0.08864650 -0.01719011
v -0.13555187 -0.08878830 -0.01699146
v -0.13441639 -0.08870486 -0.01716091
v -0.13341223 -0.08870197 -0.01696630
v -0.13341223 -0.08881289 -0.01659792
v -0.13772241 -0.08791444 -0.01780601
v -0.13467130 -0.08862433 -0.01731329
v -0.13341223 -0.08859009 -0.01728987
v -0.13738324 -0.08824576 -0.01755098
v -0.13341223 -0.08864555 -0.01714182
f 1 2 7
f 1 7 15
f 1 15 27
f 1 27 41
f 1 41 64
f 1 64 69
f 1 69 68
f 1 68 67
f 1 67 103
f 1 103 111
f 1 111 110
f 1 110 82
f 1 82 81
f 1 81 80
f 1 80 49
f 1 49 47
f 1 47 32
f 1 32 18
f 1 18 11
f 1 11 3
f 1 3 13
f 1 13 4
f 1 4 5
f 1 5 6
f 1 6 2
f 2 6 8
f 2 8 9
f 2 9 10
f 2 10 7
f 3 11 12
f 3 12 13
f 4 13 24
f 4 24 37
f 4 37 59
f 4 59 96
f 4 96 95
f 4 95 94
f 4 94 60
f 4 60 38
f 4 38 25
f 4 25 14
f 4 14 5
f 5 14 26
f 5 26 40
f 5 40 63
f 5 63 98
f 5 98 97
f 5 97 119
f 5 119 118
f 5 118 124
f 5 124 122
f 5 122 107
f 5 107 106
f 5 106 79
f 5 79 78
f 5 78 73
f 5 73 44
f 5 44 30
f 5 30 17
f 5 17 9
f 5 9 8
f 5 8 6
f 7 10 16
f 7 16 15
f 9 17 16
f 9 16 10
f 11 18 19
f 11 19 20
f 11 20 12
f 12 21 22
f 12 22 13
f 12 20 23
f 12 23 21
f 13 22 24
f 14 25 26
f 15 16 28
f 15 28 27
f 16 29 28
f 16 17 29
f 17 30 31
f 17 31 29
f 18 32 19
f 19 32 33
f 19 33 34
f 19 34 35
f 19 35 23
f 19 23 20
f 21 23 22
f 22 23 24
f 23 35 36
f 23 36 24
f 24 36 37
f 25 38 39
f 25 39 26
f 26 39 40
f 27 28 41
f 28 29 42
f 28 42 41
f 29 43 42
f 29 31 43
f 30 44 45
f 30 45 46
f 30 46 43
f 30 43 31
f 32 47 33
f 33 48 34
f 33 47 49
f 33 49 48
f 34 48 50
f 34 50 51
f 34 51 52
f 34 52 53
f 34 53 54
f 34 54 35
f 35 54 55
f 35 55 36
f 36 55 56
f 36 56 57
f 36 57 58
f 36 58 37
f 37 58 59
f 38 60 39
f 39 60 57
f 39 57 61
f 39 61 40
f 40 61 62
f 40 62 63
f 41 42 64
f 42 65 66
f 42 66 67
f 42 67 68
f 42 68 69
f 42 69 64
f 42 43 70
f 42 70 71
f 42 71 65
f 43 46 72
f 43 72 70
f 44 73 45
f 45 74 75
f 45 75 76
f 45 76 77
f 45 77 72
f 45 72 46
f 45 73 78
f 45 78 79
f 45 79 74
f 48 49 50
f 49 80 50
f 50 80 81
f 50 81 82
f 50 82 83
f 50 83 84
f 50 84 51
f 51 85 86
f 51 86 87
f 51 87 52
f 51 84 85
f 52 88 53
f 52 87 89
f 52 89 90
f 52 90 88
f 53 88 91
f 53 91 54
f 54 91 55
f 55 91 92
f 55 92 56
f 56 92 93
f 56 93 61
f 56 61 57
f 57 60 94
f 57 94 95
f 57 95 58
f 58 96 59
f 58 95 96
f 61 93 62
f 62 93 97
f 62 97 98
f 62 98 63
f 65 99 100
f 65 100 66
f 65 71 101
f 65 101 99
f 66 100 102
f 66 102 103
f 66 103 67
f 70 72 77
f 70 77 71
f 71 77 101
f 74 104 105
f 74 105 75
f 74 79 106
f 74 106 107
f 74 107 104
f 75 105 76
f 76 105 108
f 76 108 109
f 76 109 99
f 76 99 77
f 77 99 101
f 82 110 83
f 83 110 84
f 84 110 111
f 84 111 102
f 84 102 85
f 85 100 112
f 85 112 86
f 85 102 100
f 86 89 87
f 86 112 113
f 86 113 90
f 86 90 89
f 88 90 91
f 90 114 115
f 90 115 91
f 90 113 114
f 91 115 116
f 91 116 92
f 92 116 93
f 93 116 117
f 93 117 118
f 93 118 119
f 93 119 97
f 99 109 120
f 99 120 100
f 100 120 112
f 102 111 103
f 104 117 121
f 104 121 105
f 104 107 122
f 104 122 117
f 105 121 114
f 105 114 108
f 108 114 123
f 108 123 112
f 108 112 120
f 108 120 109
f 112 123 113
f 113 123 114
f 114 121 115
f 115 121 116
f 116 121 117
f 117 122 124
f 117 124 118

