# https://github.com/mikedh/trimesh
v 0.14986837 0.02978557 -0.00165999
v 0.14988093 0.02938333 -0.00150758
v 0.14987696 0.03203099 -0.00165999
v 0.14987498 0.00262833 -0.00166096
v 0.15004946 0.02903856 -0.00063295
v 0.15000452 0.03345869 -0.00091495
v 0.14992191 0.00009118 -0.00114550
v 0.14992852 0.00009118 -0.00109114
v 0.15002237 0.01169400 -0.00064945
v 0.14990273 0.03440017 -0.00165999
v 0.15008184 0.03860813 -0.00166096
v 0.14988291 0.00427262 -0.00166096
v 0.14988357 0.00009118 -0.00166096
v 0.15031846 0.03013034 0.00008297
v 0.15016975 0.03457256 -0.00040871
v 0.15006929 0.00009118 -0.00038444
v 0.15008184 0.00098846 -0.00034464
v 0.15009242 0.00009118 -0.00030581
v 0.15011820 0.00009118 -0.00023204
v 0.15018892 0.00979335 -0.00010439
v 0.14992653 0.03532398 -0.00165999
v 0.15004220 0.03652183 -0.00117705
v 0.15000452 0.03729535 -0.00165999
v 0.15004087 0.03812192 -0.00165999
v 0.15032177 0.03790091 -0.00061499
v 0.15011820 0.03902804 -0.00166096
v 0.15196349 0.00009118 -0.00166096
v 0.15058679 0.03341891 0.00052902
v 0.15033961 0.03482450 -0.00000780
v 0.15027682 0.00009118 0.00019509
v 0.15032903 0.01809434 0.00019703
v 0.15033366 0.03578367 -0.00019661
v 0.15031449 0.03860813 -0.00085428
v 0.15053062 0.03706109 0.00002035
v 0.15055176 0.03918717 -0.00052326
v 0.15030722 0.03932861 -0.00109890
v 0.15021337 0.03978830 -0.00166096
v 0.15513395 0.00009118 0.00004511
v 0.15570499 0.04339954 -0.00166096
v 0.15058018 0.00009118 0.00074258
v 0.15068858 0.01504888 0.00081102
v 0.15083464 0.03166854 0.00087315
v 0.15078837 0.03471842 0.00072802
v 0.15068725 0.03584114 0.00047175
v 0.15378236 0.04524716 0.00329707
v 0.15076062 0.03860813 0.00000191
v 0.15077780 0.03872305 0.00000045
v 0.15070510 0.04009771 -0.00064606
v 0.15038455 0.04060602 -0.00166096
v 0.15536528 0.00009118 0.00018392
v 0.15574464 0.04524716 -0.00166096
v 0.15585965 0.00009118 0.00075277
v 0.15569706 0.00009118 0.00049456
v 0.15566137 0.00009118 0.00044651
v 0.15543203 0.00009118 0.00022955
v 0.15088024 0.00009118 0.00113185
v 0.15073748 0.00546605 0.00092896
v 0.15091924 0.01719263 0.00108816
v 0.15121797 0.03463002 0.00116776
v 0.15110364 0.02863633 0.00116291
v 0.15582792 0.04524716 0.00329707
v 0.15364952 0.04524716 -0.00166096
v 0.15142220 0.04260834 -0.00166096
v 0.15133562 0.04249784 -0.00166096
v 0.15090999 0.04192322 -0.00166096
v 0.15071038 0.04152541 -0.00166096
v 0.15061984 0.04131767 -0.00166096
v 0.15040967 0.04069885 -0.00166096
v 0.15040107 0.04066791 -0.00166096
v 0.15371164 0.03677820 0.00329756
v 0.15375262 0.03794069 0.00329756
v 0.15378633 0.03860813 0.00329756
v 0.15578761 0.04524716 -0.00043492
v 0.15661243 0.00711917 0.00329756
v 0.15662037 0.00578872 0.00329756
v 0.15641746 0.00716780 0.00244962
v 0.15600902 0.00009118 0.00115078
v 0.15592178 0.00009118 0.00089402
v 0.15102631 0.00009118 0.00127163
v 0.15138453 0.01575610 0.00148762
v 0.15120608 0.00009118 0.00143909
v 0.15581338 0.03860813 0.00329756
v 0.15360126 0.01618485 0.00329756
v 0.15660252 0.00505940 0.00329756
v 0.15604404 0.00009118 0.00130755
v 0.15389009 0.00009118 0.00329756
v 0.15360392 0.01443448 0.00329756
v 0.15657212 0.00427262 0.00329756
v 0.15612798 0.00009118 0.00198949
v 0.15656022 0.00400299 0.00329756
v 0.15617226 0.00009118 0.00329756
v 0.15615574 0.00009118 0.00252825
v 0.15650471 0.00320737 0.00329756
v 0.15640359 0.00192111 0.00329756
v 0.15617557 0.00009118 0.00310147
v 0.15622448 0.00050225 0.00329756
f 1 2 3
f 1 3 4
f 1 4 2
f 2 5 6
f 2 6 3
f 2 4 7
f 2 7 8
f 2 8 9
f 2 9 5
f 3 6 10
f 3 10 11
f 3 11 12
f 3 12 4
f 4 12 11
f 4 11 26
f 4 26 37
f 4 37 49
f 4 49 69
f 4 69 68
f 4 68 67
f 4 67 66
f 4 66 65
f 4 65 64
f 4 64 63
f 4 63 62
f 4 62 51
f 4 51 39
f 4 39 27
f 4 27 13
f 4 13 7
f 5 14 15
f 5 15 6
f 5 9 16
f 5 16 17
f 5 17 18
f 5 18 19
f 5 19 20
f 5 20 14
f 6 21 10
f 6 15 22
f 6 22 21
f 7 13 27
f 7 27 38
f 7 38 50
f 7 50 55
f 7 55 54
f 7 54 53
f 7 53 52
f 7 52 78
f 7 78 77
f 7 77 85
f 7 85 89
f 7 89 92
f 7 92 95
f 7 95 91
f 7 91 86
f 7 86 81
f 7 81 79
f 7 79 56
f 7 56 40
f 7 40 30
f 7 30 19
f 7 19 18
f 7 18 16
f 7 16 8
f 8 16 9
f 10 21 11
f 11 23 24
f 11 24 22
f 11 22 25
f 11 25 26
f 11 21 23
f 14 28 29
f 14 29 15
f 14 20 30
f 14 30 31
f 14 31 28
f 15 29 32
f 15 32 25
f 15 25 22
f 16 18 17
f 19 30 20
f 21 22 23
f 22 24 23
f 25 33 26
f 25 32 34
f 25 34 35
f 25 35 33
f 26 36 37
f 26 33 36
f 27 39 38
f 28 31 40
f 28 40 41
f 28 41 42
f 28 42 43
f 28 43 44
f 28 44 29
f 29 44 34
f 29 34 32
f 30 40 31
f 33 35 36
f 34 44 45
f 34 45 46
f 34 46 35
f 35 46 47
f 35 47 45
f 35 45 36
f 36 45 48
f 36 48 49
f 36 49 37
f 38 39 50
f 39 51 52
f 39 52 53
f 39 53 54
f 39 54 55
f 39 55 50
f 40 56 57
f 40 57 41
f 41 57 58
f 41 58 42
f 42 59 43
f 42 58 60
f 42 60 45
f 42 45 59
f 43 59 45
f 43 45 44
f 45 61 73
f 45 73 51
f 45 51 62
f 45 62 63
f 45 63 64
f 45 64 65
f 45 65 66
f 45 66 67
f 45 67 68
f 45 68 69
f 45 69 49
f 45 49 48
f 45 47 46
f 45 60 70
f 45 70 71
f 45 71 72
f 45 72 82
f 45 82 61
f 51 73 74
f 51 74 75
f 51 75 76
f 51 76 77
f 51 77 78
f 51 78 52
f 56 79 58
f 56 58 57
f 58 80 70
f 58 70 60
f 58 79 81
f 58 81 80
f 61 74 73
f 61 82 74
f 70 80 81
f 70 81 83
f 70 83 87
f 70 87 86
f 70 86 91
f 70 91 96
f 70 96 94
f 70 94 93
f 70 93 90
f 70 90 88
f 70 88 84
f 70 84 75
f 70 75 74
f 70 74 82
f 70 82 72
f 70 72 71
f 75 84 85
f 75 85 77
f 75 77 76
f 81 86 87
f 81 87 83
f 84 88 85
f 85 88 90
f 85 90 89
f 89 90 93
f 89 93 94
f 89 94 92
f 91 95 96
f 92 94 95
f 94 96 95

