# https://github.com/mikedh/trimesh
v 0.14055873 0.08634398 0.01008079
v 0.13652418 0.08715377 0.01008146
v 0.14055873 0.08827177 0.01008079
v 0.14096926 0.08620920 0.01008079
v 0.13652418 0.08736201 0.01428657
v 0.13652418 0.08910199 0.01008146
v 0.14140079 0.08621031 0.01450468
v 0.13660812 0.08909813 0.01008146
v 0.13716687 0.08904068 0.01008146
v 0.13806533 0.08890645 0.01008146
v 0.13891789 0.08873301 0.01008146
v 0.13950550 0.08858773 0.01008146
v 0.14038166 0.08833253 0.01008146
v 0.14109387 0.08809336 0.01008079
v 0.14519269 0.08620920 0.01008079
v 0.14136931 0.08620920 0.01405236
v 0.13652418 0.08736588 0.01432684
v 0.14149785 0.08621031 0.01484761
v 0.13652418 0.09144352 0.01290880
v 0.13665010 0.09144572 0.01293028
v 0.13783055 0.09117230 0.01281418
v 0.13921694 0.09077735 0.01267325
v 0.14040789 0.09065197 0.01286585
v 0.14055873 0.09060059 0.01285109
v 0.14232154 0.09000182 0.01268398
v 0.14294194 0.08990791 0.01282357
v 0.14355840 0.08981346 0.01296383
v 0.14196085 0.08773763 0.01008079
v 0.14494741 0.08634674 0.01008079
v 0.14471919 0.08926550 0.01291551
v 0.14608853 0.08848389 0.01290209
v 0.14616853 0.08843804 0.01290142
v 0.14765722 0.08750397 0.01292760
v 0.14821204 0.08669142 0.01257258
v 0.14889802 0.08620975 0.01264171
v 0.14905016 0.08620975 0.01274908
v 0.14941611 0.08620975 0.01303967
v 0.14950136 0.08620975 0.01313161
v 0.14608853 0.08620920 0.01115857
v 0.14267962 0.08621031 0.01617237
v 0.14227695 0.08621031 0.01594889
v 0.14218645 0.08621031 0.01588178
v 0.14190314 0.08621031 0.01560462
v 0.14184805 0.08621031 0.01552744
v 0.14168148 0.08621031 0.01527578
v 0.14294194 0.08620920 0.01405236
v 0.14651349 0.08620975 0.01692400
v 0.14608853 0.08620975 0.01691125
v 0.13652418 0.08744210 0.01500130
v 0.13652418 0.09147445 0.01295578
v 0.13666453 0.09165452 0.01334032
v 0.13758397 0.09144297 0.01317120
v 0.13652418 0.09164569 0.01328798
v 0.13884050 0.09114302 0.01306718
v 0.14193724 0.09035865 0.01306785
v 0.14294194 0.09002170 0.01300477
v 0.14408830 0.08977534 0.01324435
v 0.14205529 0.08769454 0.01008079
v 0.14485559 0.08639425 0.01008079
v 0.14477953 0.08945718 0.01323496
v 0.14588653 0.08883575 0.01323227
v 0.14608853 0.08855127 0.01299403
v 0.14729653 0.08796797 0.01325643
v 0.14893999 0.08683449 0.01332287
v 0.14867241 0.08678753 0.01297390
v 0.14969417 0.08620975 0.01338193
v 0.14972958 0.08620975 0.01345307
v 0.14983582 0.08620975 0.01376848
v 0.14990928 0.08620975 0.01408189
v 0.14992239 0.08620975 0.01418188
v 0.14608853 0.08620920 0.01246454
v 0.14274914 0.08621031 0.01620122
v 0.13652418 0.08783815 0.01607506
v 0.13652418 0.08766969 0.01580662
v 0.13652418 0.08764041 0.01575159
v 0.13652418 0.08753822 0.01545093
v 0.13652418 0.08753214 0.01542677
v 0.14891506 0.08620975 0.01650590
v 0.14883768 0.08620975 0.01654483
v 0.14851764 0.08620975 0.01666294
v 0.14844288 0.08620975 0.01668643
v 0.14779101 0.08620975 0.01682065
v 0.14700797 0.08620975 0.01689783
v 0.14658562 0.08620975 0.01692400
v 0.14209201 0.08840268 0.01693675
v 0.13652418 0.08956489 0.01688910
v 0.14585112 0.08621031 0.01690185
v 0.14525826 0.08621031 0.01684951
v 0.14496184 0.08621031 0.01681327
v 0.14477034 0.08621031 0.01677770
v 0.14430603 0.08621031 0.01666764
v 0.14342331 0.08621031 0.01641531
v 0.13668944 0.09176113 0.01373761
v 0.13789745 0.09152527 0.01354299
v 0.13652418 0.09166171 0.01333227
v 0.13652418 0.09175396 0.01366983
v 0.14009179 0.09090993 0.01325912
v 0.14278455 0.09027027 0.01346649
v 0.14294194 0.09021116 0.01344032
v 0.14055873 0.09079945 0.01329536
v 0.14294194 0.09022939 0.01349333
v 0.14389418 0.08997474 0.01365171
v 0.14470738 0.08963780 0.01362420
v 0.14608853 0.08878106 0.01341280
v 0.14608853 0.08871201 0.01323496
v 0.14770969 0.08783263 0.01364836
v 0.14631937 0.08871754 0.01361883
v 0.14884293 0.08703942 0.01369936
v 0.14944496 0.08656272 0.01371412
v 0.14986205 0.08627162 0.01416309
v 0.14989878 0.08620975 0.01472816
v 0.14988173 0.08620975 0.01483621
v 0.14985418 0.08620975 0.01496506
v 0.14971646 0.08620975 0.01546234
v 0.14962859 0.08620975 0.01570998
v 0.14956432 0.08620975 0.01585829
v 0.14948955 0.08620975 0.01597708
v 0.14936889 0.08620975 0.01616633
v 0.14922330 0.08620975 0.01630457
v 0.14910394 0.08620975 0.01639182
v 0.13652418 0.08786578 0.01611532
v 0.14790643 0.08716039 0.01633544
v 0.14872751 0.08630366 0.01654214
v 0.14817531 0.08642684 0.01668576
v 0.14670105 0.08697866 0.01684481
v 0.14608853 0.08656770 0.01692064
v 0.14294194 0.08854686 0.01691125
v 0.14244222 0.08875897 0.01691393
v 0.14139423 0.08897495 0.01692668
v 0.13964977 0.08944999 0.01691326
v 0.14063742 0.08885453 0.01692400
v 0.13652418 0.08987974 0.01688642
v 0.13652418 0.08949197 0.01688105
v 0.13652418 0.08916607 0.01681528
v 0.13652418 0.08902190 0.01677971
v 0.13652418 0.08874571 0.01668777
v 0.13652418 0.08857835 0.01662804
v 0.13652418 0.08847118 0.01657972
v 0.13652418 0.08814694 0.01638242
v 0.13652418 0.08808397 0.01632940
v 0.13727181 0.09173407 0.01402350
v 0.13652418 0.09176942 0.01372889
v 0.13652418 0.09177716 0.01376781
v 0.13652418 0.09183294 0.01408726
v 0.13652418 0.09184122 0.01414162
v 0.13811518 0.09155454 0.01390270
v 0.14294194 0.09027413 0.01370070
v 0.14328166 0.09028076 0.01421611
v 0.14416700 0.08997254 0.01406243
v 0.14487396 0.08963891 0.01401948
v 0.14752474 0.08803314 0.01404699
v 0.14899901 0.08701125 0.01412417
v 0.14608853 0.08891860 0.01393156
v 0.14974008 0.08636718 0.01474695
v 0.14912230 0.08676433 0.01538181
v 0.14900425 0.08669916 0.01582943
v 0.14888227 0.08664116 0.01613210
v 0.14797726 0.08733163 0.01606499
v 0.14608853 0.08831044 0.01630122
v 0.14608853 0.08824416 0.01638443
v 0.14670105 0.08768294 0.01655422
v 0.14608853 0.08783484 0.01669180
v 0.14608853 0.08757578 0.01678374
v 0.14608853 0.08723220 0.01685823
v 0.14394140 0.08811987 0.01690454
v 0.14280029 0.08901417 0.01683273
v 0.14062168 0.08939696 0.01689648
v 0.14055873 0.08940138 0.01689783
v 0.13652418 0.09045200 0.01681797
v 0.13652418 0.08996425 0.01687903
v 0.13652418 0.08991068 0.01688508
v 0.13791581 0.09163851 0.01439194
v 0.13693078 0.09181305 0.01446978
v 0.13652418 0.09184288 0.01416645
v 0.14299310 0.09036252 0.01496774
v 0.14356234 0.09021613 0.01496304
v 0.14400566 0.09007087 0.01449931
v 0.14465755 0.08978197 0.01444898
v 0.14548911 0.08932184 0.01450535
v 0.14600196 0.08899373 0.01404968
v 0.14777920 0.08788180 0.01451072
v 0.14895180 0.08704440 0.01453622
v 0.14915247 0.08683449 0.01498183
v 0.14804677 0.08766029 0.01499593
v 0.14796283 0.08762659 0.01538181
v 0.14830516 0.08726314 0.01574756
v 0.14657907 0.08835794 0.01576971
v 0.14608853 0.08847560 0.01607774
v 0.14523990 0.08874903 0.01640725
v 0.14608853 0.08813037 0.01649248
v 0.14581571 0.08801823 0.01669247
v 0.14594294 0.08771718 0.01676830
v 0.14458541 0.08889651 0.01657100
v 0.14278455 0.08944005 0.01665824
v 0.14081056 0.08983334 0.01674884
v 0.14055873 0.08943010 0.01689179
v 0.13652418 0.09070057 0.01676495
v 0.13781613 0.09166613 0.01486372
v 0.13665665 0.09182079 0.01511001
v 0.13652418 0.09185228 0.01457649
v 0.14329083 0.09021338 0.01541939
v 0.13769152 0.09164789 0.01523081
v 0.14402141 0.08999463 0.01534154
v 0.14419454 0.08999463 0.01489593
v 0.14503398 0.08956820 0.01492345
v 0.14608853 0.08894568 0.01450670
v 0.14608853 0.08880592 0.01536570
v 0.14475723 0.08964443 0.01535161
v 0.14474280 0.08928925 0.01608579
v 0.14442670 0.08924838 0.01635222
v 0.14378663 0.08948203 0.01641195
v 0.14294194 0.08974828 0.01642738
v 0.14274389 0.08980959 0.01643141
v 0.14055873 0.08994216 0.01671998
v 0.13759971 0.09088893 0.01659449
v 0.14055873 0.08987200 0.01675757
v 0.14090106 0.09010014 0.01655825
v 0.13931006 0.09006534 0.01679515
v 0.13699768 0.09066854 0.01675421
v 0.13652418 0.09084585 0.01671596
v 0.13690980 0.09175340 0.01534893
v 0.13652418 0.09183847 0.01498251
v 0.13652418 0.09183018 0.01508384
v 0.13652418 0.09182300 0.01513082
v 0.13652418 0.09179925 0.01523618
v 0.14354267 0.09004877 0.01575494
v 0.13802336 0.09147832 0.01563616
v 0.14294194 0.09021613 0.01575830
v 0.14294194 0.09020233 0.01580863
v 0.13722459 0.09162966 0.01565025
v 0.14420635 0.08978086 0.01573212
v 0.14398862 0.08968365 0.01607371
v 0.14330002 0.08992172 0.01611666
v 0.14294194 0.09000899 0.01613143
v 0.14239369 0.09014322 0.01615022
v 0.13851653 0.09091821 0.01638108
v 0.13762594 0.09120324 0.01628041
v 0.13683110 0.09113805 0.01649651
v 0.13652418 0.09090164 0.01668979
v 0.13652418 0.09174622 0.01546503
v 0.13652418 0.09170368 0.01559656
v 0.14294194 0.09017692 0.01585561
v 0.13763905 0.09140098 0.01596298
v 0.13857031 0.09115462 0.01603613
v 0.14288554 0.09021613 0.01581333
v 0.13670650 0.09155123 0.01590393
v 0.13686258 0.09135955 0.01619451
v 0.13652418 0.09133470 0.01627974
v 0.13652418 0.09120931 0.01644752
v 0.13652418 0.09112590 0.01653006
v 0.13652418 0.09098284 0.01663341
v 0.13652418 0.09155620 0.01591936
f 1 2 6
f 1 6 3
f 1 3 14
f 1 14 28
f 1 28 58
f 1 58 59
f 1 59 29
f 1 29 15
f 1 15 4
f 1 4 2
f 2 5 17
f 2 17 49
f 2 49 77
f 2 77 76
f 2 76 75
f 2 75 74
f 2 74 73
f 2 73 121
f 2 121 140
f 2 140 139
f 2 139 138
f 2 138 137
f 2 137 136
f 2 136 135
f 2 135 134
f 2 134 133
f 2 133 86
f 2 86 132
f 2 132 171
f 2 171 170
f 2 170 169
f 2 169 197
f 2 197 220
f 2 220 239
f 2 239 251
f 2 251 250
f 2 250 249
f 2 249 248
f 2 248 252
f 2 252 241
f 2 241 240
f 2 240 225
f 2 225 224
f 2 224 223
f 2 223 222
f 2 222 200
f 2 200 174
f 2 174 145
f 2 145 144
f 2 144 143
f 2 143 142
f 2 142 96
f 2 96 95
f 2 95 53
f 2 53 50
f 2 50 19
f 2 19 6
f 2 4 7
f 2 7 5
f 3 6 8
f 3 8 9
f 3 9 10
f 3 10 11
f 3 11 12
f 3 12 13
f 3 13 14
f 4 15 39
f 4 39 71
f 4 71 46
f 4 46 16
f 4 16 7
f 5 7 18
f 5 18 17
f 6 19 8
f 7 16 18
f 8 19 9
f 9 19 20
f 9 20 10
f 10 20 21
f 10 21 22
f 10 22 11
f 11 22 23
f 11 23 12
f 12 23 24
f 12 24 25
f 12 25 13
f 13 25 14
f 14 25 26
f 14 26 27
f 14 27 28
f 15 29 30
f 15 30 31
f 15 31 32
f 15 32 33
f 15 33 34
f 15 34 35
f 15 35 36
f 15 36 37
f 15 37 38
f 15 38 39
f 16 40 41
f 16 41 42
f 16 42 43
f 16 43 44
f 16 44 45
f 16 45 18
f 16 46 84
f 16 84 47
f 16 47 48
f 16 48 40
f 17 18 45
f 17 45 49
f 19 50 20
f 20 51 52
f 20 52 21
f 20 50 53
f 20 53 51
f 21 52 54
f 21 54 22
f 22 54 23
f 23 54 55
f 23 55 24
f 24 55 25
f 25 55 26
f 26 55 56
f 26 56 27
f 27 57 30
f 27 30 28
f 27 56 57
f 28 30 58
f 29 59 30
f 30 60 61
f 30 61 62
f 30 62 31
f 30 59 58
f 30 57 60
f 31 62 32
f 32 62 63
f 32 63 33
f 33 63 64
f 33 64 65
f 33 65 34
f 34 65 35
f 35 65 36
f 36 65 37
f 37 65 38
f 38 66 39
f 38 65 64
f 38 64 66
f 39 66 67
f 39 67 68
f 39 68 69
f 39 69 70
f 39 70 71
f 40 48 72
f 40 72 73
f 40 73 74
f 40 74 75
f 40 75 41
f 41 75 42
f 42 75 76
f 42 76 43
f 43 76 77
f 43 77 49
f 43 49 44
f 44 49 45
f 46 71 78
f 46 78 79
f 46 79 80
f 46 80 81
f 46 81 82
f 46 82 83
f 46 83 84
f 47 84 85
f 47 85 86
f 47 86 48
f 48 87 88
f 48 88 89
f 48 89 90
f 48 90 91
f 48 91 92
f 48 92 72
f 48 86 87
f 51 93 94
f 51 94 52
f 51 53 95
f 51 95 96
f 51 96 93
f 52 94 54
f 54 94 97
f 54 97 55
f 55 98 99
f 55 99 57
f 55 57 56
f 55 97 100
f 55 100 98
f 57 99 101
f 57 101 102
f 57 102 103
f 57 103 60
f 60 103 61
f 61 103 104
f 61 104 105
f 61 105 62
f 62 105 63
f 63 106 64
f 63 105 107
f 63 107 106
f 64 106 108
f 64 108 109
f 64 109 67
f 64 67 66
f 67 109 68
f 68 109 110
f 68 110 69
f 69 110 70
f 70 110 111
f 70 111 71
f 71 111 112
f 71 112 113
f 71 113 114
f 71 114 115
f 71 115 116
f 71 116 117
f 71 117 118
f 71 118 119
f 71 119 120
f 71 120 78
f 72 92 121
f 72 121 73
f 78 120 122
f 78 122 123
f 78 123 79
f 79 123 80
f 80 123 124
f 80 124 81
f 81 124 82
f 82 124 125
f 82 125 83
f 83 125 84
f 84 125 126
f 84 126 127
f 84 127 85
f 85 127 128
f 85 128 129
f 85 129 130
f 85 130 131
f 85 131 86
f 86 133 87
f 86 131 130
f 86 130 132
f 87 133 134
f 87 134 135
f 87 135 88
f 88 135 136
f 88 136 137
f 88 137 89
f 89 137 138
f 89 138 90
f 90 138 139
f 90 139 91
f 91 139 140
f 91 140 121
f 91 121 92
f 93 141 94
f 93 96 142
f 93 142 143
f 93 143 144
f 93 144 145
f 93 145 141
f 94 146 97
f 94 141 146
f 97 146 100
f 98 147 101
f 98 101 99
f 98 100 146
f 98 146 147
f 101 147 102
f 102 148 149
f 102 149 103
f 102 147 148
f 103 150 107
f 103 107 104
f 103 149 150
f 104 107 105
f 106 107 151
f 106 151 152
f 106 152 108
f 107 150 153
f 107 153 151
f 108 152 109
f 109 152 110
f 110 154 111
f 110 152 154
f 111 154 112
f 112 154 113
f 113 154 114
f 114 154 155
f 114 155 115
f 115 155 116
f 116 155 156
f 116 156 117
f 117 156 157
f 117 157 118
f 118 157 119
f 119 157 120
f 120 157 122
f 122 158 159
f 122 159 160
f 122 160 161
f 122 161 123
f 122 157 158
f 123 161 124
f 124 161 162
f 124 162 163
f 124 163 125
f 125 163 164
f 125 164 126
f 126 164 165
f 126 165 127
f 127 166 128
f 127 165 166
f 128 166 167
f 128 167 129
f 129 167 168
f 129 168 130
f 130 168 169
f 130 169 170
f 130 170 171
f 130 171 132
f 141 172 146
f 141 145 173
f 141 173 172
f 145 174 173
f 146 172 148
f 146 148 147
f 148 175 176
f 148 176 177
f 148 177 149
f 148 172 175
f 149 177 178
f 149 178 150
f 150 178 179
f 150 179 180
f 150 180 153
f 151 181 152
f 151 153 180
f 151 180 181
f 152 182 154
f 152 181 182
f 154 182 183
f 154 183 155
f 155 183 184
f 155 184 185
f 155 185 186
f 155 186 156
f 156 186 157
f 157 186 158
f 158 187 188
f 158 188 159
f 158 186 187
f 159 188 189
f 159 189 160
f 160 190 161
f 160 189 190
f 161 190 191
f 161 191 162
f 162 191 163
f 163 191 192
f 163 192 166
f 163 166 165
f 163 165 164
f 166 192 191
f 166 191 193
f 166 193 194
f 166 194 195
f 166 195 196
f 166 196 167
f 167 196 168
f 168 196 169
f 169 196 197
f 172 173 198
f 172 198 175
f 173 199 198
f 173 174 200
f 173 200 199
f 175 201 176
f 175 198 202
f 175 202 201
f 176 201 203
f 176 203 204
f 176 204 177
f 177 204 178
f 178 205 179
f 178 204 205
f 179 205 206
f 179 206 180
f 180 206 181
f 181 184 182
f 181 206 205
f 181 205 184
f 182 184 183
f 184 205 185
f 185 207 187
f 185 187 186
f 185 205 208
f 185 208 207
f 187 207 208
f 187 208 209
f 187 209 188
f 188 209 189
f 189 209 210
f 189 210 193
f 189 193 191
f 189 191 190
f 193 210 211
f 193 211 194
f 194 211 212
f 194 212 213
f 194 213 195
f 195 214 215
f 195 215 216
f 195 216 196
f 195 213 217
f 195 217 214
f 196 216 218
f 196 218 219
f 196 219 197
f 197 219 220
f 198 199 202
f 199 221 202
f 199 200 222
f 199 222 223
f 199 223 224
f 199 224 225
f 199 225 221
f 201 226 203
f 201 202 227
f 201 227 228
f 201 228 229
f 201 229 226
f 202 221 230
f 202 230 227
f 203 231 208
f 203 208 204
f 203 226 231
f 204 208 205
f 208 231 209
f 209 231 232
f 209 232 210
f 210 232 211
f 211 232 233
f 211 233 212
f 212 233 213
f 213 233 234
f 213 234 235
f 213 235 236
f 213 236 215
f 213 215 217
f 214 217 215
f 215 236 237
f 215 237 238
f 215 238 239
f 215 239 220
f 215 220 219
f 215 219 216
f 216 219 218
f 221 225 240
f 221 240 241
f 221 241 230
f 226 229 242
f 226 242 233
f 226 233 232
f 226 232 231
f 227 230 243
f 227 243 244
f 227 244 245
f 227 245 228
f 228 245 229
f 229 245 242
f 230 241 246
f 230 246 243
f 233 242 234
f 234 242 235
f 235 242 245
f 235 245 244
f 235 244 236
f 236 244 237
f 237 244 243
f 237 243 247
f 237 247 238
f 238 247 248
f 238 248 249
f 238 249 250
f 238 250 251
f 238 251 239
f 241 252 246
f 243 246 247
f 246 252 248
f 246 248 247

