# https://github.com/mikedh/trimesh
v -0.15576822 0.05483170 -0.00915124
v -0.15576822 0.05508346 -0.00915124
v -0.15576318 0.05506425 -0.00956685
v -0.15570936 0.04808541 -0.00915124
v -0.15368696 0.05508346 -0.00915124
v -0.15550027 0.06988177 -0.00992462
v -0.15559630 0.06923317 -0.00992462
v -0.15561333 0.06905822 -0.00992462
v -0.15571323 0.06752206 -0.00992462
v -0.15574382 0.06089312 -0.00992508
v -0.15575157 0.05508559 -0.00992485
v -0.15564199 0.04837130 -0.01153340
v -0.15569852 0.06755407 -0.01153363
v -0.15570007 0.06150545 -0.01153316
v -0.15569271 0.04808541 -0.00970398
v -0.15339810 0.04808541 -0.00915124
v -0.15322657 0.06988177 -0.00992462
v -0.15548788 0.06988177 -0.01153363
v -0.15552969 0.06960014 -0.01153363
v -0.15564160 0.06843522 -0.01153363
v -0.15569735 0.05513679 -0.01153340
v -0.15560288 0.04808541 -0.01153340
v -0.15566832 0.04808541 -0.01032366
v -0.15567993 0.06538851 -0.01153363
v -0.15181286 0.04808541 -0.01132559
v -0.15212340 0.06988177 -0.01118752
v -0.15212340 0.06988177 -0.01153363
v -0.15181286 0.04808541 -0.01153340
v -0.15212340 0.06538851 -0.01153363
v -0.15181286 0.04849078 -0.01153340
f 1 2 3
f 1 3 4
f 1 4 16
f 1 16 5
f 1 5 2
f 2 5 17
f 2 17 6
f 2 6 7
f 2 7 8
f 2 8 9
f 2 9 10
f 2 10 3
f 3 11 12
f 3 12 4
f 3 10 13
f 3 13 14
f 3 14 11
f 4 12 15
f 4 15 23
f 4 23 22
f 4 22 28
f 4 28 25
f 4 25 16
f 5 16 17
f 6 18 19
f 6 19 7
f 6 17 26
f 6 26 27
f 6 27 18
f 7 19 8
f 8 19 20
f 8 20 9
f 9 20 13
f 9 13 10
f 11 14 21
f 11 21 12
f 12 22 23
f 12 23 15
f 12 21 13
f 12 13 24
f 12 24 22
f 13 20 19
f 13 19 18
f 13 18 27
f 13 27 29
f 13 29 24
f 13 21 14
f 16 25 26
f 16 26 17
f 22 24 29
f 22 29 28
f 25 28 30
f 25 30 26
f 26 30 27
f 27 30 28
f 27 28 29

