# https://github.com/mikedh/trimesh
v 0.09920315 -0.08738581 -0.01239776
v 0.09920315 -0.08734293 -0.01073808
v 0.09920315 -0.08736151 -0.01291721
v 0.10081695 -0.08893528 -0.01285602
v 0.10134794 -0.08942700 -0.01269964
v 0.10114069 -0.08917256 -0.01205848
v 0.10180780 -0.08967285 -0.01182187
v 0.10202485 -0.08956565 -0.01112087
v 0.10229096 -0.08950847 -0.01073808
v 0.09920315 -0.08107787 -0.01073808
v 0.10095552 -0.08886667 -0.01398604
v 0.10063668 -0.08864511 -0.01354614
v 0.10133813 -0.08932265 -0.01357333
v 0.09920315 -0.08729005 -0.01315315
v 0.10169866 -0.08967285 -0.01272072
v 0.10240501 -0.09006450 -0.01225633
v 0.10249575 -0.09002020 -0.01163489
v 0.10279497 -0.09000447 -0.01115283
v 0.10241727 -0.08957851 -0.01073808
v 0.10530030 -0.07728139 -0.01073808
v 0.09962990 -0.07602209 -0.01073876
v 0.09920315 -0.08107787 -0.01352982
v 0.09920315 -0.08714139 -0.01352166
v 0.10110391 -0.08878519 -0.01452726
v 0.10157971 -0.08926261 -0.01434912
v 0.10187402 -0.08964569 -0.01364881
v 0.10242463 -0.09002735 -0.01306680
v 0.10311871 -0.09032466 -0.01277851
v 0.10314324 -0.09034610 -0.01207412
v 0.10323398 -0.09032608 -0.01169676
v 0.10342160 -0.09027463 -0.01133436
v 0.10339217 -0.09006164 -0.01087814
v 0.10288081 -0.08978578 -0.01073808
v 0.10847150 -0.07651666 -0.01073808
v 0.10096778 -0.07602209 -0.01073876
v 0.09962990 -0.07602209 -0.01462789
v 0.09920315 -0.08577059 -0.01412475
v 0.09920315 -0.08703275 -0.01371748
v 0.10108183 -0.08846358 -0.01500524
v 0.10162263 -0.08904392 -0.01489442
v 0.10239029 -0.08956993 -0.01466936
v 0.10291637 -0.09003163 -0.01393505
v 0.10354791 -0.09033323 -0.01345095
v 0.10394278 -0.09050191 -0.01302668
v 0.10384468 -0.09053049 -0.01257589
v 0.10395995 -0.09054907 -0.01209519
v 0.10380176 -0.09045616 -0.01166276
v 0.10409362 -0.09040756 -0.01134728
v 0.10344246 -0.08998589 -0.01073808
v 0.10328917 -0.08993729 -0.01073808
v 0.10397221 -0.09016742 -0.01087474
v 0.10387902 -0.09006879 -0.01073808
v 0.11124170 -0.07651666 -0.01073808
v 0.10107571 -0.07602209 -0.01075508
v 0.10236086 -0.07602209 -0.01644191
v 0.10134548 -0.08551902 -0.01635284
v 0.10112843 -0.08628660 -0.01621278
v 0.10060235 -0.08607791 -0.01566408
v 0.09962990 -0.07616074 -0.01462789
v 0.09920315 -0.08601216 -0.01413631
v 0.09920315 -0.08693698 -0.01385006
v 0.10124738 -0.08809051 -0.01563485
v 0.10155273 -0.08854934 -0.01551790
v 0.10196845 -0.08877090 -0.01563417
v 0.10230813 -0.08914397 -0.01539076
v 0.10299240 -0.08937268 -0.01546623
v 0.10335539 -0.08981579 -0.01485226
v 0.10373308 -0.09016456 -0.01422538
v 0.10408871 -0.09039184 -0.01366308
v 0.10469082 -0.09051763 -0.01338840
v 0.10471535 -0.09061054 -0.01279823
v 0.10453508 -0.09061912 -0.01226313
v 0.10438302 -0.09056051 -0.01180079
v 0.10505871 -0.09048189 -0.01156622
v 0.10448113 -0.09029464 -0.01103792
v 0.10411814 -0.09010453 -0.01073808
v 0.11124170 -0.07651666 -0.01437292
v 0.10529907 -0.07602209 -0.01375215
v 0.10183478 -0.07602209 -0.01112563
v 0.10147057 -0.07602209 -0.01091758
v 0.10125842 -0.07602209 -0.01082375
v 0.11173100 -0.08107787 -0.01073808
v 0.10256934 -0.07602209 -0.01657585
v 0.10234124 -0.08388521 -0.01689745
v 0.10175507 -0.08645528 -0.01666492
v 0.10144727 -0.08693555 -0.01640247
v 0.10098005 -0.08664824 -0.01604348
v 0.09920315 -0.08628231 -0.01413087
v 0.09920315 -0.08668684 -0.01401392
v 0.10106466 -0.08724859 -0.01596189
v 0.10119220 -0.08783750 -0.01573343
v 0.10131115 -0.08783750 -0.01587282
v 0.10152084 -0.08783750 -0.01607135
v 0.10178450 -0.08816483 -0.01608563
v 0.10249820 -0.08882665 -0.01590749
v 0.10252641 -0.08836924 -0.01637188
v 0.10381280 -0.08963569 -0.01538464
v 0.10322908 -0.08887953 -0.01616926
v 0.10397957 -0.08909823 -0.01613391
v 0.10425426 -0.09003449 -0.01477543
v 0.10467611 -0.09037469 -0.01395069
v 0.10532850 -0.09048475 -0.01352166
v 0.10512861 -0.09062340 -0.01241543
v 0.10558602 -0.09055193 -0.01294781
v 0.10515804 -0.09058767 -0.01200544
v 0.10607532 -0.09037755 -0.01187354
v 0.10544377 -0.09028035 -0.01121198
v 0.10485392 -0.09010882 -0.01073808
v 0.10442227 -0.09012597 -0.01073808
v 0.10733595 -0.07651666 -0.01669892
v 0.10529907 -0.07602209 -0.01726121
v 0.11173100 -0.08107787 -0.01356993
v 0.11173100 -0.08268880 -0.01378071
v 0.11173100 -0.08357075 -0.01388202
v 0.11173100 -0.08407247 -0.01393505
v 0.11173100 -0.08527316 -0.01395409
v 0.10897183 -0.08449128 -0.01613731
v 0.10827530 -0.08365937 -0.01666628
v 0.11173100 -0.08751303 -0.01073808
v 0.10279252 -0.07602209 -0.01670300
v 0.10286609 -0.08346211 -0.01715174
v 0.10224681 -0.08630233 -0.01692193
v 0.10209353 -0.08725288 -0.01672815
v 0.10161772 -0.08736580 -0.01640723
v 0.09920315 -0.08662823 -0.01404588
v 0.09920315 -0.08652102 -0.01407647
v 0.10136265 -0.08763739 -0.01606183
v 0.10181025 -0.08783750 -0.01631408
v 0.10186911 -0.08786466 -0.01634604
v 0.10197580 -0.08783750 -0.01642355
v 0.10233388 -0.08783750 -0.01662073
v 0.10271158 -0.08783750 -0.01679003
v 0.10286609 -0.08783750 -0.01684714
v 0.10331369 -0.08826918 -0.01672747
v 0.10455103 -0.08940270 -0.01587010
v 0.10503419 -0.08977005 -0.01538736
v 0.10414757 -0.08848931 -0.01673699
v 0.10472270 -0.08881664 -0.01654118
v 0.10518257 -0.08908108 -0.01632632
v 0.10506607 -0.09015027 -0.01461429
v 0.10556395 -0.09021459 -0.01440351
v 0.10602013 -0.09026177 -0.01411183
v 0.10600296 -0.09039756 -0.01358897
v 0.10602382 -0.09049762 -0.01265341
v 0.10603853 -0.09047046 -0.01224817
v 0.10645547 -0.09036039 -0.01327077
v 0.10697665 -0.09015885 -0.01217542
v 0.10667988 -0.09006593 -0.01153290
v 0.10620285 -0.08987868 -0.01080199
v 0.10590977 -0.08991013 -0.01073808
v 0.10518012 -0.09007451 -0.01073808
v 0.10704041 -0.07651666 -0.01683830
v 0.10768300 -0.08382232 -0.01700216
v 0.10509305 -0.07602209 -0.01726869
v 0.10672280 -0.07651666 -0.01696409
v 0.10635123 -0.07651666 -0.01708511
v 0.10605570 -0.07651666 -0.01714970
v 0.10559460 -0.07651666 -0.01723401
v 0.10573931 -0.08433405 -0.01759369
v 0.10525614 -0.08520598 -0.01768412
v 0.11173100 -0.08645671 -0.01390921
v 0.10945009 -0.08565624 -0.01570896
v 0.10876336 -0.08673829 -0.01616450
v 0.10817106 -0.08688123 -0.01653438
v 0.10725256 -0.08944415 -0.01073808
v 0.10725011 -0.08944844 -0.01074284
v 0.10747452 -0.08984009 -0.01186538
v 0.10807050 -0.08967714 -0.01243583
v 0.11173100 -0.08765025 -0.01153222
v 0.10316654 -0.07602209 -0.01688318
v 0.10344491 -0.08387520 -0.01742303
v 0.10326219 -0.08645385 -0.01730948
v 0.10271894 -0.08718141 -0.01703616
v 0.10275082 -0.08772458 -0.01687842
v 0.10230567 -0.08775603 -0.01665812
v 0.10345227 -0.08783750 -0.01701372
v 0.10376006 -0.08765168 -0.01718914
v 0.10376006 -0.08783750 -0.01707831
v 0.10433520 -0.08783750 -0.01719798
v 0.10535548 -0.08937125 -0.01598908
v 0.10607777 -0.08980721 -0.01521398
v 0.10606306 -0.08946844 -0.01580075
v 0.10437812 -0.08782035 -0.01721702
v 0.10490297 -0.08818770 -0.01705180
v 0.10512371 -0.08860938 -0.01676283
v 0.10589505 -0.08862081 -0.01676147
v 0.10594656 -0.08905392 -0.01633448
v 0.10654131 -0.08987726 -0.01489578
v 0.10700363 -0.08991585 -0.01451162
v 0.10698891 -0.09008880 -0.01396701
v 0.10686996 -0.09026748 -0.01297841
v 0.10704532 -0.09019887 -0.01259561
v 0.10747943 -0.08998017 -0.01366784
v 0.10624087 -0.08982865 -0.01073808
v 0.10619304 -0.08984295 -0.01073808
v 0.10745245 -0.08622371 -0.01696069
v 0.10687732 -0.08699273 -0.01717962
v 0.10714956 -0.08418682 -0.01720478
v 0.10714956 -0.08367366 -0.01720002
v 0.10489194 -0.07602209 -0.01726733
v 0.10695703 -0.08361935 -0.01727073
v 0.10669460 -0.08449557 -0.01737680
v 0.10570988 -0.08549615 -0.01764060
v 0.10541924 -0.08638523 -0.01765488
v 0.10500966 -0.08593211 -0.01768004
v 0.10402004 -0.08400528 -0.01754270
v 0.11173100 -0.08696842 -0.01381742
v 0.10918889 -0.08744727 -0.01567564
v 0.10821030 -0.08766026 -0.01637324
v 0.10724766 -0.08754305 -0.01693417
v 0.10780317 -0.08987011 -0.01286078
v 0.11173100 -0.08771314 -0.01201768
v 0.10336765 -0.07602209 -0.01696137
v 0.10376006 -0.08477716 -0.01748150
v 0.10395873 -0.07602209 -0.01712795
v 0.10415738 -0.08591353 -0.01755357
v 0.10375761 -0.08692412 -0.01739787
v 0.10353320 -0.08758736 -0.01717758
v 0.10376006 -0.08748301 -0.01725237
v 0.10451056 -0.08713710 -0.01749578
v 0.10702325 -0.08935695 -0.01562873
v 0.10659650 -0.08917113 -0.01606591
v 0.10491033 -0.08746443 -0.01742643
v 0.10527086 -0.08783750 -0.01727073
v 0.10548302 -0.08805763 -0.01717758
v 0.10662838 -0.08885238 -0.01640927
v 0.10635614 -0.08825632 -0.01696884
v 0.10753216 -0.08952562 -0.01499368
v 0.10794174 -0.08958565 -0.01441303
v 0.10777864 -0.08988869 -0.01333400
v 0.10851687 -0.08940841 -0.01387998
v 0.10582515 -0.08667540 -0.01758145
v 0.10611456 -0.08739725 -0.01739515
v 0.10463932 -0.07602209 -0.01724625
v 0.10482449 -0.08645814 -0.01763244
v 0.10525614 -0.08682120 -0.01760865
v 0.10429595 -0.07602209 -0.01718846
v 0.11173100 -0.08726003 -0.01370320
v 0.10848990 -0.08791897 -0.01607611
v 0.10840283 -0.08783750 -0.01616926
v 0.10732001 -0.08783750 -0.01681450
v 0.10793684 -0.08819342 -0.01631748
v 0.10733718 -0.08790897 -0.01678527
v 0.10714956 -0.08757878 -0.01696341
v 0.11173100 -0.08775889 -0.01265137
v 0.10546707 -0.08724716 -0.01752366
v 0.10756895 -0.08893528 -0.01590681
v 0.10775412 -0.08923831 -0.01533160
v 0.10570988 -0.08767598 -0.01736592
v 0.10589015 -0.08783750 -0.01725577
v 0.10703306 -0.08857936 -0.01651330
v 0.10725747 -0.08826632 -0.01664520
v 0.10644321 -0.08783750 -0.01716874
v 0.10830718 -0.08899388 -0.01524185
v 0.10887495 -0.08884809 -0.01480399
v 0.11173100 -0.08768312 -0.01318850
v 0.11173100 -0.08769456 -0.01313411
v 0.10644566 -0.08782892 -0.01717214
v 0.11173100 -0.08755162 -0.01348427
v 0.10846047 -0.08831206 -0.01587690
v 0.10777619 -0.08859366 -0.01612439
v 0.10828511 -0.08861653 -0.01574499
v 0.10885288 -0.08852933 -0.01527993
f 1 2 10
f 1 10 22
f 1 22 37
f 1 37 60
f 1 60 88
f 1 88 126
f 1 126 125
f 1 125 89
f 1 89 61
f 1 61 38
f 1 38 23
f 1 23 14
f 1 14 3
f 1 3 4
f 1 4 2
f 2 4 5
f 2 5 6
f 2 6 7
f 2 7 8
f 2 8 9
f 2 9 19
f 2 19 33
f 2 33 50
f 2 50 49
f 2 49 52
f 2 52 76
f 2 76 109
f 2 109 108
f 2 108 151
f 2 151 150
f 2 150 195
f 2 195 194
f 2 194 165
f 2 165 119
f 2 119 82
f 2 82 53
f 2 53 34
f 2 34 20
f 2 20 10
f 3 11 12
f 3 12 13
f 3 13 4
f 3 14 11
f 4 13 5
f 5 13 15
f 5 15 7
f 5 7 6
f 7 15 16
f 7 16 17
f 7 17 8
f 8 17 18
f 8 18 19
f 8 19 9
f 10 20 21
f 10 21 36
f 10 36 22
f 11 14 23
f 11 23 24
f 11 24 25
f 11 25 13
f 11 13 12
f 13 25 26
f 13 26 15
f 15 26 27
f 15 27 16
f 16 28 29
f 16 29 17
f 16 27 28
f 17 29 30
f 17 30 18
f 18 30 31
f 18 31 32
f 18 32 33
f 18 33 19
f 20 34 21
f 21 34 53
f 21 53 35
f 21 35 54
f 21 54 81
f 21 81 80
f 21 80 79
f 21 79 78
f 21 78 111
f 21 111 154
f 21 154 200
f 21 200 234
f 21 234 237
f 21 237 215
f 21 215 213
f 21 213 170
f 21 170 120
f 21 120 83
f 21 83 55
f 21 55 36
f 22 36 37
f 23 38 24
f 24 39 40
f 24 40 25
f 24 38 39
f 25 41 26
f 25 40 41
f 26 41 42
f 26 42 27
f 27 42 28
f 28 43 44
f 28 44 45
f 28 45 29
f 28 42 43
f 29 45 46
f 29 46 30
f 30 46 47
f 30 47 31
f 31 47 48
f 31 48 32
f 32 49 50
f 32 50 33
f 32 48 51
f 32 51 52
f 32 52 49
f 35 53 54
f 36 55 56
f 36 56 57
f 36 57 58
f 36 58 59
f 36 59 60
f 36 60 37
f 38 61 39
f 39 62 63
f 39 63 40
f 39 61 62
f 40 63 64
f 40 64 65
f 40 65 41
f 41 65 66
f 41 66 67
f 41 67 42
f 42 67 68
f 42 68 43
f 43 68 69
f 43 69 44
f 44 69 70
f 44 70 71
f 44 71 45
f 45 71 72
f 45 72 46
f 46 72 73
f 46 73 47
f 47 73 48
f 48 73 74
f 48 74 75
f 48 75 51
f 51 75 76
f 51 76 52
f 53 77 111
f 53 111 78
f 53 78 79
f 53 79 80
f 53 80 81
f 53 81 54
f 53 82 112
f 53 112 77
f 55 83 84
f 55 84 56
f 56 84 85
f 56 85 57
f 57 85 86
f 57 86 87
f 57 87 58
f 58 87 88
f 58 88 60
f 58 60 59
f 61 89 90
f 61 90 91
f 61 91 62
f 62 91 92
f 62 92 93
f 62 93 94
f 62 94 63
f 63 94 64
f 64 95 65
f 64 94 96
f 64 96 95
f 65 95 66
f 66 97 67
f 66 95 98
f 66 98 99
f 66 99 97
f 67 100 68
f 67 97 100
f 68 101 69
f 68 100 101
f 69 101 70
f 70 101 102
f 70 102 71
f 71 103 72
f 71 102 104
f 71 104 103
f 72 103 105
f 72 105 73
f 73 105 74
f 74 106 107
f 74 107 75
f 74 105 106
f 75 107 108
f 75 108 109
f 75 109 76
f 77 110 111
f 77 112 113
f 77 113 114
f 77 114 115
f 77 115 116
f 77 116 117
f 77 117 118
f 77 118 110
f 82 119 169
f 82 169 212
f 82 212 245
f 82 245 257
f 82 257 256
f 82 256 259
f 82 259 238
f 82 238 207
f 82 207 161
f 82 161 116
f 82 116 115
f 82 115 114
f 82 114 113
f 82 113 112
f 83 120 84
f 84 121 122
f 84 122 85
f 84 120 121
f 85 122 123
f 85 123 86
f 86 123 124
f 86 124 90
f 86 90 87
f 87 90 125
f 87 125 126
f 87 126 88
f 89 125 90
f 90 124 127
f 90 127 91
f 91 127 92
f 92 127 93
f 93 127 128
f 93 128 94
f 94 129 96
f 94 128 129
f 95 96 98
f 96 129 130
f 96 130 131
f 96 131 132
f 96 132 133
f 96 133 134
f 96 134 98
f 97 99 135
f 97 135 136
f 97 136 100
f 98 134 137
f 98 137 99
f 99 137 138
f 99 138 139
f 99 139 135
f 100 136 140
f 100 140 101
f 101 140 141
f 101 141 102
f 102 141 142
f 102 142 143
f 102 143 104
f 103 104 144
f 103 144 145
f 103 145 105
f 104 143 146
f 104 146 144
f 105 145 106
f 106 145 147
f 106 147 148
f 106 148 107
f 107 148 149
f 107 149 150
f 107 150 151
f 107 151 108
f 110 152 111
f 110 118 153
f 110 153 152
f 111 152 155
f 111 155 156
f 111 156 157
f 111 157 158
f 111 158 159
f 111 159 160
f 111 160 154
f 116 161 117
f 117 161 162
f 117 162 163
f 117 163 118
f 118 163 164
f 118 164 153
f 119 165 166
f 119 166 148
f 119 148 167
f 119 167 147
f 119 147 168
f 119 168 169
f 120 170 121
f 121 171 122
f 121 170 171
f 122 172 173
f 122 173 123
f 122 171 172
f 123 173 174
f 123 174 175
f 123 175 124
f 124 175 130
f 124 130 129
f 124 129 128
f 124 128 127
f 130 175 131
f 131 175 174
f 131 174 132
f 132 174 133
f 133 176 134
f 133 174 176
f 134 176 177
f 134 177 178
f 134 178 179
f 134 179 137
f 135 180 136
f 135 139 180
f 136 181 140
f 136 180 182
f 136 182 181
f 137 179 183
f 137 183 184
f 137 184 185
f 137 185 138
f 138 185 139
f 139 185 186
f 139 186 187
f 139 187 180
f 140 181 141
f 141 181 188
f 141 188 142
f 142 188 189
f 142 189 190
f 142 190 143
f 143 190 146
f 144 146 191
f 144 191 192
f 144 192 145
f 145 192 147
f 146 190 193
f 146 193 191
f 147 192 168
f 147 167 148
f 148 166 149
f 149 166 194
f 149 194 195
f 149 195 150
f 152 153 155
f 153 164 196
f 153 196 197
f 153 197 198
f 153 198 199
f 153 199 155
f 154 160 200
f 155 199 201
f 155 201 156
f 156 201 202
f 156 202 159
f 156 159 157
f 157 159 158
f 159 202 203
f 159 203 160
f 160 203 204
f 160 204 205
f 160 205 206
f 160 206 200
f 161 207 163
f 161 163 162
f 163 207 208
f 163 208 209
f 163 209 164
f 164 197 196
f 164 209 210
f 164 210 197
f 165 194 166
f 168 192 211
f 168 211 212
f 168 212 169
f 170 213 171
f 171 206 214
f 171 214 172
f 171 213 215
f 171 215 206
f 172 214 216
f 172 216 217
f 172 217 173
f 173 217 218
f 173 218 174
f 174 218 176
f 176 218 177
f 177 218 219
f 177 219 220
f 177 220 183
f 177 183 179
f 177 179 178
f 180 187 182
f 181 182 221
f 181 221 188
f 182 187 222
f 182 222 221
f 183 223 224
f 183 224 225
f 183 225 184
f 183 220 223
f 184 225 185
f 185 225 186
f 186 226 187
f 186 225 227
f 186 227 226
f 187 226 222
f 188 221 228
f 188 228 189
f 189 228 229
f 189 229 190
f 190 229 193
f 191 193 230
f 191 230 192
f 192 230 211
f 193 229 231
f 193 231 230
f 197 232 202
f 197 202 198
f 197 210 233
f 197 233 232
f 198 202 199
f 199 202 201
f 200 206 234
f 202 232 203
f 203 232 204
f 204 235 205
f 204 232 236
f 204 236 235
f 205 235 216
f 205 216 206
f 206 216 214
f 206 215 237
f 206 237 234
f 207 238 239
f 207 239 208
f 208 239 240
f 208 240 209
f 209 241 210
f 209 240 242
f 209 242 243
f 209 243 241
f 210 241 244
f 210 244 233
f 211 230 245
f 211 245 212
f 216 235 217
f 217 220 219
f 217 219 218
f 217 235 220
f 220 235 236
f 220 236 246
f 220 246 223
f 221 222 247
f 221 247 248
f 221 248 228
f 222 226 247
f 223 249 224
f 223 246 249
f 224 249 225
f 225 249 250
f 225 250 227
f 226 227 251
f 226 251 247
f 227 252 251
f 227 250 253
f 227 253 252
f 228 248 254
f 228 254 229
f 229 254 255
f 229 255 256
f 229 256 231
f 230 231 245
f 231 256 257
f 231 257 245
f 232 233 246
f 232 246 236
f 233 244 258
f 233 258 249
f 233 249 246
f 238 259 260
f 238 260 239
f 239 260 242
f 239 242 240
f 241 258 244
f 241 243 258
f 242 260 261
f 242 261 252
f 242 252 243
f 243 252 258
f 247 254 248
f 247 251 261
f 247 261 262
f 247 262 254
f 249 258 253
f 249 253 250
f 251 252 261
f 252 253 258
f 254 262 263
f 254 263 259
f 254 259 255
f 255 259 256
f 259 263 262
f 259 262 260
f 260 262 261

