# https://github.com/mikedh/trimesh
v -0.09848918 0.04902082 -0.01192367
v -0.09848918 0.04902082 -0.01504234
v -0.10140377 0.04902082 -0.01188311
v -0.06735530 0.04859125 -0.01214556
v -0.11491514 0.04902082 -0.01490948
v -0.06735530 0.04859125 -0.01524093
v -0.09149139 0.04859125 -0.01631824
v -0.09180799 0.04859125 -0.01632197
v -0.10707928 0.04902082 -0.01181505
v -0.06735530 0.04510401 -0.01216095
v -0.10561268 0.04162040 -0.01178009
v -0.11491514 0.04162040 -0.01494491
v -0.11491514 0.04902082 -0.01176797
v -0.06735530 0.04569874 -0.01525724
v -0.07817557 0.04162112 -0.01643618
v -0.07957699 0.04221513 -0.01649772
v -0.08038246 0.04253603 -0.01653035
v -0.08302234 0.04414998 -0.01651030
v -0.08746405 0.04641010 -0.01644364
v -0.09096993 0.04828846 -0.01633782
v -0.08823693 0.04664553 -0.01643012
v -0.11269428 0.04902082 -0.01177589
v -0.06735530 0.04162112 -0.01219218
v -0.10863901 0.04162040 -0.01178288
v -0.09848918 0.04162040 -0.01190409
v -0.09848918 0.04162040 -0.01507637
v -0.11491514 0.04162040 -0.01179780
v -0.08211444 0.04346543 -0.01651450
v -0.07868306 0.04162112 -0.01646975
v -0.06735530 0.04162112 -0.01526004
v -0.08169542 0.04331621 -0.01652242
f 1 2 5
f 1 5 13
f 1 13 22
f 1 22 9
f 1 9 3
f 1 3 4
f 1 4 6
f 1 6 2
f 2 6 7
f 2 7 8
f 2 8 5
f 3 9 4
f 4 10 23
f 4 23 30
f 4 30 14
f 4 14 6
f 4 9 11
f 4 11 10
f 5 12 27
f 5 27 13
f 5 8 12
f 6 14 15
f 6 15 16
f 6 16 17
f 6 17 18
f 6 18 19
f 6 19 20
f 6 20 7
f 7 20 8
f 8 20 19
f 8 19 21
f 8 21 12
f 9 22 11
f 10 11 23
f 11 22 13
f 11 13 24
f 11 24 27
f 11 27 12
f 11 12 26
f 11 26 25
f 11 25 23
f 12 21 28
f 12 28 17
f 12 17 29
f 12 29 26
f 13 27 24
f 14 30 15
f 15 29 16
f 15 30 26
f 15 26 29
f 16 29 17
f 17 28 31
f 17 31 18
f 18 31 28
f 18 28 21
f 18 21 19
f 23 25 26
f 23 26 30

