# https://github.com/mikedh/trimesh
v 0.07693698 0.04107731 -0.01653240
v 0.08312812 0.04437084 -0.01640597
v 0.08359706 0.04437084 -0.01641672
v 0.08363748 0.04437084 -0.01641586
v 0.07735337 0.04107731 -0.01649800
v 0.07738166 0.04101026 -0.01648080
v 0.07668230 0.04107731 -0.01649499
v 0.06672960 0.04150261 -0.01525951
v 0.06672960 0.04419077 -0.01525951
v 0.06672960 0.04485829 -0.01525607
v 0.06800300 0.04485829 -0.01524618
v 0.07738166 0.04485867 -0.01516190
v 0.08415493 0.04437084 -0.01630836
v 0.08737884 0.04101026 -0.01508449
v 0.07748677 0.04101026 -0.01646790
v 0.07738166 0.04101026 -0.01225360
v 0.07232042 0.04107731 -0.01539282
v 0.07584348 0.04107731 -0.01631137
v 0.07642560 0.04107731 -0.01645285
v 0.06672960 0.04150261 -0.01230305
v 0.06672960 0.04485829 -0.01229316
v 0.07232042 0.04485867 -0.01520103
v 0.07738166 0.04485867 -0.01222823
v 0.08737884 0.04437084 -0.01525521
v 0.08466024 0.04437084 -0.01616043
v 0.08737884 0.04101026 -0.01214609
v 0.07232042 0.04107731 -0.01227983
v 0.06672960 0.04192791 -0.01229961
v 0.06672960 0.04353530 -0.01229574
v 0.08737884 0.04391578 -0.01213964
v 0.08737884 0.04437084 -0.01214093
v 0.06969479 0.04485829 -0.01227166
v 0.07232042 0.04485867 -0.01226005
v 0.07658730 0.04485867 -0.01223210
f 1 2 3
f 1 3 4
f 1 4 5
f 1 5 6
f 1 6 7
f 1 7 8
f 1 8 9
f 1 9 10
f 1 10 2
f 2 10 3
f 3 10 11
f 3 11 12
f 3 12 4
f 4 12 13
f 4 13 14
f 4 14 15
f 4 15 6
f 4 6 5
f 6 15 14
f 6 14 26
f 6 26 16
f 6 16 27
f 6 27 17
f 6 17 18
f 6 18 19
f 6 19 7
f 7 19 8
f 8 20 28
f 8 28 29
f 8 29 21
f 8 21 10
f 8 10 9
f 8 19 18
f 8 18 17
f 8 17 27
f 8 27 20
f 10 21 33
f 10 33 22
f 10 22 12
f 10 12 11
f 12 23 31
f 12 31 24
f 12 24 25
f 12 25 13
f 12 22 33
f 12 33 34
f 12 34 23
f 13 25 14
f 14 25 24
f 14 24 31
f 14 31 30
f 14 30 26
f 16 26 27
f 20 27 26
f 20 26 28
f 21 29 30
f 21 30 31
f 21 31 32
f 21 32 33
f 23 34 31
f 26 30 29
f 26 29 28
f 31 34 32
f 32 34 33

