# https://github.com/mikedh/trimesh
v -0.15128346 -0.07521666 -0.01581124
v -0.15132831 -0.07521666 -0.01691806
v -0.15402538 -0.07521666 -0.01581124
v -0.14156605 -0.08318624 -0.01525858
v -0.14778846 -0.07752512 -0.01581124
v -0.15139953 -0.07521666 -0.01738597
v -0.14693648 -0.07810192 -0.01581124
v -0.15405968 -0.07521666 -0.01581334
v -0.15405440 -0.07522909 -0.01581124
v -0.14852835 -0.08318624 -0.01525858
v -0.14058877 -0.08408501 -0.01525858
v -0.14579302 -0.07907155 -0.01581124
v -0.14636541 -0.07854696 -0.01581124
v -0.15154328 -0.07521666 -0.01770602
v -0.15403990 -0.07521666 -0.01598554
v -0.15364687 -0.07606944 -0.01631281
v -0.15343849 -0.07659030 -0.01581124
v -0.14797574 -0.08367976 -0.01525858
v -0.15319186 -0.07708008 -0.01581124
v -0.15289248 -0.07761462 -0.01581124
v -0.15232404 -0.07858549 -0.01581124
v -0.15212226 -0.07890124 -0.01581124
v -0.15094188 -0.08056328 -0.01581184
v -0.15081262 -0.08072240 -0.01581184
v -0.14998965 -0.08168457 -0.01581184
v -0.14959399 -0.08212090 -0.01581184
v -0.14887521 -0.08283320 -0.01581184
v -0.14870640 -0.08299853 -0.01581184
v -0.14870903 -0.08299232 -0.01591131
v -0.14859693 -0.08309799 -0.01581184
v -0.14058877 -0.08527467 -0.01753803
v -0.14058877 -0.08789888 -0.01525858
v -0.14510589 -0.08071991 -0.01711009
v -0.15160791 -0.07521666 -0.01778085
v -0.15397659 -0.07521666 -0.01648681
v -0.15396208 -0.07526141 -0.01647869
v -0.15307052 -0.07725785 -0.01611356
v -0.15304678 -0.07683022 -0.01700521
v -0.15280412 -0.07756987 -0.01656585
v -0.14780297 -0.08383267 -0.01525858
v -0.15224228 -0.07869365 -0.01599215
v -0.15186376 -0.07921575 -0.01604805
v -0.15084824 -0.08061425 -0.01619831
v -0.15015583 -0.08145957 -0.01622596
v -0.14950826 -0.08218802 -0.01606668
v -0.14871826 -0.08285931 -0.01655803
v -0.14841361 -0.08318624 -0.01626502
v -0.14802191 -0.08360145 -0.01589178
v -0.14058877 -0.08540271 -0.01767597
v -0.14070615 -0.08786656 -0.01525858
v -0.14058877 -0.08791628 -0.01568923
v -0.15182683 -0.07521666 -0.01793802
v -0.14514018 -0.08139741 -0.01790857
v -0.15366006 -0.07521666 -0.01724202
v -0.15357302 -0.07541307 -0.01725795
v -0.15296633 -0.07652566 -0.01740099
v -0.15234515 -0.07783092 -0.01731294
v -0.15213413 -0.07841767 -0.01705870
v -0.15196400 -0.07887265 -0.01668726
v -0.14745743 -0.08411112 -0.01525858
v -0.15084559 -0.08048621 -0.01661723
v -0.15013605 -0.08125445 -0.01688590
v -0.14946211 -0.08210101 -0.01664819
v -0.14872222 -0.08268651 -0.01698387
v -0.14794409 -0.08347465 -0.01668936
v -0.14715277 -0.08426154 -0.01605827
v -0.14700770 -0.08444055 -0.01563153
v -0.14058877 -0.08549222 -0.01774118
v -0.14355490 -0.08321235 -0.01813967
v -0.14076418 -0.08786532 -0.01568652
v -0.14134185 -0.08766021 -0.01525858
v -0.14058877 -0.08791255 -0.01575384
v -0.15194421 -0.07521666 -0.01797288
v -0.14467593 -0.08224521 -0.01820519
v -0.15363764 -0.07521666 -0.01727658
v -0.15357829 -0.07521666 -0.01735261
v -0.15340024 -0.07521666 -0.01756357
v -0.15330924 -0.07521666 -0.01764471
v -0.15191916 -0.07806090 -0.01768589
v -0.15159867 -0.07880801 -0.01755606
v -0.15123994 -0.07976024 -0.01700340
v -0.15168440 -0.07921575 -0.01680897
v -0.15136655 -0.07921575 -0.01747943
v -0.15090495 -0.08002501 -0.01732706
v -0.14683360 -0.08458847 -0.01525858
v -0.14968236 -0.08149935 -0.01731114
v -0.14924977 -0.08212960 -0.01706561
v -0.14874860 -0.08236455 -0.01738326
v -0.14813533 -0.08304204 -0.01721978
v -0.14807202 -0.08318624 -0.01704277
v -0.14702089 -0.08402783 -0.01701032
v -0.14594073 -0.08499125 -0.01657757
v -0.14566509 -0.08529954 -0.01615654
v -0.14597370 -0.08519387 -0.01548878
v -0.14058877 -0.08581667 -0.01785538
v -0.14186807 -0.08478862 -0.01804831
v -0.14396903 -0.08318624 -0.01828392
v -0.14173091 -0.08744266 -0.01606488
v -0.14058877 -0.08787526 -0.01610304
v -0.14197490 -0.08741532 -0.01544400
v -0.14165310 -0.08754211 -0.01525858
v -0.14519689 -0.08199534 -0.01827340
v -0.15169759 -0.07548144 -0.01798791
v -0.15124917 -0.07660770 -0.01815770
v -0.15206555 -0.07521666 -0.01799392
v -0.15324989 -0.07521666 -0.01768919
v -0.15224359 -0.07693091 -0.01784456
v -0.15158812 -0.07758479 -0.01804020
v -0.15087066 -0.07921575 -0.01791639
v -0.15088121 -0.07949794 -0.01779708
v -0.15117531 -0.07921575 -0.01769881
v -0.15054094 -0.08028607 -0.01753412
v -0.14624671 -0.08501113 -0.01525858
v -0.14933022 -0.08153664 -0.01761707
v -0.15009253 -0.08071245 -0.01762608
v -0.14851120 -0.08230239 -0.01760114
v -0.14788869 -0.08318624 -0.01726275
v -0.14733346 -0.08351195 -0.01735832
v -0.14592095 -0.08462328 -0.01725284
v -0.14494763 -0.08546984 -0.01701001
v -0.14436732 -0.08591736 -0.01678402
v -0.14431984 -0.08612745 -0.01614482
v -0.14474979 -0.08597454 -0.01548878
v -0.14589062 -0.08525976 -0.01525858
v -0.14058877 -0.08584278 -0.01786289
v -0.14182851 -0.08501735 -0.01809880
v -0.14395188 -0.08321111 -0.01828512
v -0.14469177 -0.08266911 -0.01831217
v -0.14142493 -0.08745011 -0.01649402
v -0.14058877 -0.08786407 -0.01617847
v -0.14297197 -0.08692926 -0.01549449
v -0.14325684 -0.08668685 -0.01622325
v -0.14289679 -0.08673284 -0.01668696
v -0.14204875 -0.08737553 -0.01525858
v -0.14234946 -0.08723879 -0.01525858
v -0.14321332 -0.08681986 -0.01525858
v -0.15048950 -0.07823121 -0.01821420
v -0.15142062 -0.07701669 -0.01815921
v -0.15244143 -0.07521666 -0.01801195
v -0.15306262 -0.07521666 -0.01781361
v -0.15297689 -0.07521666 -0.01785929
v -0.15282521 -0.07521666 -0.01790887
v -0.15057260 -0.07875207 -0.01816672
v -0.15093133 -0.07858176 -0.01808408
v -0.15075724 -0.07921575 -0.01798160
v -0.15070712 -0.07939476 -0.01795245
v -0.14961378 -0.08083926 -0.01788002
v -0.14804828 -0.08231234 -0.01779467
v -0.14723058 -0.08318624 -0.01764051
v -0.14657115 -0.08363998 -0.01766034
v -0.14429742 -0.08515409 -0.01765734
v -0.14469044 -0.08540893 -0.01726365
v -0.14344148 -0.08624430 -0.01714705
v -0.14297197 -0.08666696 -0.01675007
v -0.14331223 -0.08676268 -0.01551132
v -0.14462846 -0.08605410 -0.01525858
v -0.14505577 -0.08579181 -0.01525858
v -0.14058877 -0.08618215 -0.01790557
v -0.14058877 -0.08632386 -0.01791458
v -0.14058877 -0.08645812 -0.01791729
v -0.14270819 -0.08482093 -0.01819497
v -0.14297197 -0.08421306 -0.01822352
v -0.14394001 -0.08353183 -0.01832870
v -0.14058877 -0.08753341 -0.01705690
v -0.14058877 -0.08765896 -0.01677921
v -0.14058877 -0.08774349 -0.01656945
v -0.14221098 -0.08692304 -0.01695652
v -0.14375009 -0.08653643 -0.01525858
v -0.14459548 -0.08318624 -0.01831548
v -0.14518898 -0.08287298 -0.01830346
v -0.15248495 -0.07521666 -0.01800143
v -0.15067019 -0.07921575 -0.01801225
v -0.14506236 -0.08318624 -0.01828512
v -0.14500302 -0.08333418 -0.01827641
v -0.15018352 -0.07921575 -0.01815861
v -0.14974698 -0.08029601 -0.01804982
v -0.14919965 -0.08082682 -0.01803028
v -0.14567037 -0.08389980 -0.01789054
v -0.14707628 -0.08318624 -0.01770692
v -0.14242595 -0.08586515 -0.01788303
v -0.14297197 -0.08609388 -0.01750678
v -0.14365646 -0.08586018 -0.01740310
v -0.14196830 -0.08643449 -0.01765644
v -0.14297197 -0.08640093 -0.01721918
v -0.14297197 -0.08650411 -0.01707403
v -0.14058877 -0.08669555 -0.01786650
v -0.14265940 -0.08525976 -0.01809009
v -0.14297197 -0.08492536 -0.01814508
v -0.14297197 -0.08464442 -0.01821480
v -0.14367360 -0.08417204 -0.01826739
v -0.14058877 -0.08740785 -0.01726456
v -0.14192347 -0.08674900 -0.01737845
v -0.14406530 -0.08440698 -0.01812314
v -0.14960059 -0.07991190 -0.01814568
v -0.14297197 -0.08538034 -0.01796297
v -0.14058877 -0.08685467 -0.01779437
v -0.14058877 -0.08715426 -0.01756478
v -0.14085123 -0.08707346 -0.01753082
v -0.14058877 -0.08737678 -0.01730513
f 1 2 6
f 1 6 14
f 1 14 34
f 1 34 52
f 1 52 73
f 1 73 105
f 1 105 139
f 1 139 171
f 1 171 142
f 1 142 141
f 1 141 140
f 1 140 106
f 1 106 78
f 1 78 77
f 1 77 76
f 1 76 75
f 1 75 54
f 1 54 35
f 1 35 15
f 1 15 8
f 1 8 3
f 1 3 10
f 1 10 4
f 1 4 5
f 1 5 2
f 2 5 7
f 2 7 6
f 3 8 9
f 3 9 10
f 4 11 12
f 4 12 13
f 4 13 7
f 4 7 5
f 4 10 18
f 4 18 40
f 4 40 60
f 4 60 85
f 4 85 113
f 4 113 124
f 4 124 157
f 4 157 156
f 4 156 168
f 4 168 136
f 4 136 135
f 4 135 134
f 4 134 101
f 4 101 71
f 4 71 50
f 4 50 32
f 4 32 11
f 6 7 14
f 7 13 14
f 8 15 16
f 8 16 9
f 9 16 17
f 9 17 10
f 10 17 19
f 10 19 20
f 10 20 21
f 10 21 22
f 10 22 23
f 10 23 24
f 10 24 25
f 10 25 26
f 10 26 27
f 10 27 28
f 10 28 29
f 10 29 30
f 10 30 18
f 11 31 12
f 11 32 51
f 11 51 72
f 11 72 99
f 11 99 130
f 11 130 166
f 11 166 165
f 11 165 164
f 11 164 191
f 11 191 199
f 11 199 197
f 11 197 196
f 11 196 186
f 11 186 160
f 11 160 159
f 11 159 158
f 11 158 125
f 11 125 95
f 11 95 68
f 11 68 49
f 11 49 31
f 12 33 14
f 12 14 13
f 12 31 33
f 14 33 34
f 15 35 36
f 15 36 16
f 16 37 17
f 16 36 38
f 16 38 39
f 16 39 37
f 17 37 19
f 18 30 40
f 19 37 20
f 20 41 21
f 20 37 41
f 21 41 22
f 22 41 42
f 22 42 23
f 23 43 24
f 23 42 43
f 24 43 44
f 24 44 25
f 25 44 26
f 26 45 29
f 26 29 27
f 26 44 45
f 27 29 28
f 29 45 46
f 29 46 47
f 29 47 48
f 29 48 30
f 30 48 40
f 31 49 34
f 31 34 33
f 32 50 51
f 34 49 53
f 34 53 52
f 35 54 36
f 36 54 55
f 36 55 38
f 37 39 41
f 38 56 57
f 38 57 58
f 38 58 39
f 38 55 56
f 39 58 59
f 39 59 41
f 40 48 60
f 41 59 42
f 42 59 43
f 43 61 44
f 43 59 61
f 44 62 63
f 44 63 45
f 44 61 62
f 45 63 46
f 46 63 64
f 46 64 65
f 46 65 47
f 47 65 48
f 48 65 66
f 48 66 67
f 48 67 60
f 49 68 69
f 49 69 53
f 50 70 51
f 50 71 70
f 51 70 72
f 52 53 74
f 52 74 73
f 53 69 74
f 54 75 55
f 55 75 76
f 55 76 77
f 55 77 56
f 56 77 78
f 56 78 79
f 56 79 57
f 57 79 80
f 57 80 58
f 58 81 82
f 58 82 59
f 58 80 83
f 58 83 84
f 58 84 81
f 59 82 61
f 60 67 85
f 61 84 62
f 61 82 81
f 61 81 84
f 62 84 86
f 62 86 87
f 62 87 63
f 63 87 64
f 64 87 88
f 64 88 89
f 64 89 90
f 64 90 65
f 65 91 92
f 65 92 66
f 65 90 91
f 66 92 93
f 66 93 67
f 67 93 94
f 67 94 85
f 68 95 96
f 68 96 69
f 69 96 97
f 69 97 74
f 70 98 99
f 70 99 72
f 70 71 100
f 70 100 98
f 71 101 100
f 73 74 102
f 73 102 103
f 73 103 104
f 73 104 105
f 74 97 102
f 78 106 107
f 78 107 79
f 79 108 109
f 79 109 110
f 79 110 111
f 79 111 80
f 79 107 108
f 80 111 112
f 80 112 83
f 83 112 84
f 84 112 86
f 85 94 113
f 86 114 88
f 86 88 87
f 86 112 115
f 86 115 114
f 88 116 89
f 88 114 116
f 89 116 117
f 89 117 118
f 89 118 91
f 89 91 90
f 91 118 119
f 91 119 120
f 91 120 92
f 92 120 121
f 92 121 93
f 93 121 122
f 93 122 123
f 93 123 94
f 94 123 124
f 94 124 113
f 95 125 96
f 96 125 126
f 96 126 97
f 97 126 127
f 97 127 128
f 97 128 102
f 98 129 130
f 98 130 99
f 98 100 131
f 98 131 132
f 98 132 133
f 98 133 129
f 100 101 134
f 100 134 135
f 100 135 136
f 100 136 131
f 102 128 104
f 102 104 103
f 104 137 138
f 104 138 139
f 104 139 105
f 104 128 137
f 106 140 107
f 107 140 108
f 108 140 141
f 108 141 142
f 108 142 138
f 108 138 143
f 108 143 144
f 108 144 145
f 108 145 146
f 108 146 109
f 109 146 110
f 110 146 147
f 110 147 115
f 110 115 112
f 110 112 111
f 114 115 147
f 114 147 116
f 116 148 149
f 116 149 118
f 116 118 117
f 116 147 148
f 118 149 150
f 118 150 119
f 119 151 152
f 119 152 120
f 119 150 151
f 120 152 153
f 120 153 121
f 121 153 154
f 121 154 133
f 121 133 132
f 121 132 122
f 122 132 155
f 122 155 123
f 123 155 156
f 123 156 157
f 123 157 124
f 125 158 126
f 126 158 159
f 126 159 160
f 126 160 161
f 126 161 162
f 126 162 127
f 127 162 163
f 127 163 128
f 128 163 137
f 129 164 165
f 129 165 166
f 129 166 130
f 129 133 167
f 129 167 164
f 131 136 155
f 131 155 132
f 133 154 167
f 136 168 155
f 137 143 138
f 137 163 169
f 137 169 170
f 137 170 143
f 138 142 171
f 138 171 139
f 143 172 145
f 143 145 144
f 143 170 173
f 143 173 174
f 143 174 175
f 143 175 176
f 143 176 172
f 145 172 146
f 146 172 176
f 146 176 147
f 147 176 177
f 147 177 148
f 148 177 178
f 148 178 179
f 148 179 149
f 149 179 150
f 150 179 178
f 150 178 151
f 151 178 180
f 151 180 181
f 151 181 182
f 151 182 152
f 152 182 153
f 153 182 181
f 153 181 183
f 153 183 184
f 153 184 185
f 153 185 154
f 154 185 167
f 155 168 156
f 160 186 161
f 161 187 188
f 161 188 189
f 161 189 163
f 161 163 162
f 161 186 187
f 163 189 190
f 163 190 174
f 163 174 169
f 164 167 191
f 167 185 184
f 167 184 192
f 167 192 191
f 169 174 173
f 169 173 170
f 174 190 193
f 174 193 178
f 174 178 177
f 174 177 176
f 174 176 194
f 174 194 175
f 175 194 176
f 178 193 195
f 178 195 180
f 180 195 187
f 180 187 186
f 180 186 196
f 180 196 183
f 180 183 181
f 183 196 197
f 183 197 198
f 183 198 192
f 183 192 184
f 187 195 193
f 187 193 188
f 188 193 190
f 188 190 189
f 191 192 199
f 192 198 199
f 197 199 198

