# https://github.com/mikedh/trimesh
v -0.03395390 -0.02515745 -0.01571721
v -0.03321551 -0.04742752 -0.01579675
v -0.03395390 -0.02515745 -0.01264144
v -0.03395390 -0.02514814 -0.01576124
v -0.02885165 -0.02709701 -0.01716229
v -0.02796026 -0.02798539 -0.01717270
v -0.02749793 -0.02844586 -0.01717696
v -0.02016054 -0.03411106 -0.01715613
v -0.01496516 -0.03648784 -0.01711446
v -0.00900810 -0.03832042 -0.01712251
v -0.00573853 -0.03914369 -0.01713293
v -0.00162747 -0.03945997 -0.01720301
v -0.00103875 -0.03966462 -0.01718691
v 0.00002228 -0.03961346 -0.01720064
v -0.03188174 -0.04742752 -0.01580007
v -0.03321551 -0.04742752 -0.01259314
v -0.03395390 -0.02118530 -0.01696058
v -0.03395058 -0.02075273 -0.01709742
v -0.03395058 -0.02061785 -0.01711872
v -0.03187841 -0.02349231 -0.01712961
v -0.03395058 -0.01372938 -0.01261966
v -0.03395390 -0.02118530 -0.01264759
v -0.03395058 -0.02033877 -0.01712441
v 0.00002228 -0.03949253 -0.01721342
v 0.00002228 -0.04742752 -0.01577071
v -0.01112018 -0.04742752 -0.01579486
v -0.02451774 -0.04742752 -0.01580480
v -0.02828622 -0.04742752 -0.01580433
v 0.00002561 -0.02515745 -0.01578065
v 0.00002228 -0.04742752 -0.01254627
v -0.01343515 0.00008477 -0.01237629
v -0.01543081 0.00008477 -0.01238812
v -0.01807174 0.00008477 -0.01241227
v -0.03361131 0.00007547 -0.01255669
v -0.03395058 -0.01372938 -0.01573567
v -0.03395058 -0.01979923 -0.01708085
v -0.03395058 -0.01993877 -0.01709884
v -0.03361131 0.00008942 -0.01259598
v 0.00002228 0.00008477 -0.01570063
v 0.00002561 -0.00965490 -0.01570963
v 0.00002561 -0.01698059 -0.01575082
v 0.00002561 -0.02349696 -0.01578018
v 0.00002561 -0.02515745 -0.01264097
v 0.00002561 -0.00965490 -0.01262061
v 0.00002228 -0.00948746 -0.01262013
v -0.01050152 0.00008477 -0.01241369
v -0.01180868 0.00008477 -0.01239144
v -0.02608101 0.00008942 -0.01255148
v -0.03357805 0.00008942 -0.01255669
v -0.03361131 0.00008942 -0.01562393
v -0.03212122 0.00008942 -0.01563293
v -0.02641362 0.00008942 -0.01564097
v -0.02608101 0.00008942 -0.01564050
v 0.00002228 0.00008477 -0.01275176
v 0.00002228 -0.00681765 -0.01264333
v -0.00876529 0.00008477 -0.01246294
f 1 2 16
f 1 16 3
f 1 3 22
f 1 22 17
f 1 17 4
f 1 4 2
f 2 5 6
f 2 6 7
f 2 7 8
f 2 8 9
f 2 9 10
f 2 10 11
f 2 11 12
f 2 12 13
f 2 13 14
f 2 14 15
f 2 15 28
f 2 28 27
f 2 27 26
f 2 26 25
f 2 25 30
f 2 30 16
f 2 4 17
f 2 17 18
f 2 18 19
f 2 19 20
f 2 20 5
f 3 16 21
f 3 21 22
f 5 20 19
f 5 19 23
f 5 23 6
f 6 23 7
f 7 23 24
f 7 24 8
f 8 24 12
f 8 12 10
f 8 10 9
f 10 12 11
f 12 24 13
f 13 24 14
f 14 25 26
f 14 26 27
f 14 27 28
f 14 28 15
f 14 24 29
f 14 29 25
f 16 30 31
f 16 31 32
f 16 32 33
f 16 33 34
f 16 34 21
f 17 22 21
f 17 21 35
f 17 35 36
f 17 36 37
f 17 37 23
f 17 23 19
f 17 19 18
f 21 34 38
f 21 38 50
f 21 50 35
f 23 37 39
f 23 39 24
f 24 39 40
f 24 40 41
f 24 41 42
f 24 42 29
f 25 29 43
f 25 43 30
f 29 42 41
f 29 41 40
f 29 40 44
f 29 44 43
f 30 43 44
f 30 44 45
f 30 45 46
f 30 46 47
f 30 47 31
f 31 47 48
f 31 48 49
f 31 49 32
f 32 49 33
f 33 49 34
f 34 49 38
f 35 50 36
f 36 50 37
f 37 50 51
f 37 51 39
f 38 49 48
f 38 48 53
f 38 53 52
f 38 52 51
f 38 51 50
f 39 51 52
f 39 52 53
f 39 53 48
f 39 48 54
f 39 54 44
f 39 44 40
f 44 54 55
f 44 55 45
f 45 55 46
f 46 55 56
f 46 56 48
f 46 48 47
f 48 56 54
f 54 56 55

