# https://github.com/mikedh/trimesh
v 0.14546114 0.08238941 -0.01511685
v 0.14537514 0.07924021 -0.01346077
v 0.14537514 0.08238941 -0.01414507
v 0.14954030 0.08238941 -0.01511685
v 0.14889462 0.07924021 -0.01511685
v 0.14537514 0.07924021 -0.01121137
v 0.14537514 0.08238941 -0.01126795
v 0.14946356 0.08238941 -0.01121137
v 0.15054719 0.08133351 -0.01511685
v 0.15213295 0.07924021 -0.01511685
v 0.14537514 0.08237954 -0.01121137
v 0.15200593 0.07924021 -0.01121137
v 0.14538440 0.08238941 -0.01121137
v 0.14989291 0.08193714 -0.01121137
v 0.15037518 0.08141490 -0.01121137
v 0.15065569 0.08121420 -0.01511685
v 0.15200724 0.07942735 -0.01511685
v 0.15149454 0.08000817 -0.01121137
v 0.15068017 0.08104464 -0.01121137
v 0.15073110 0.08112264 -0.01511685
v 0.15152960 0.08012315 -0.01511685
v 0.15141184 0.08028470 -0.01511685
v 0.15121471 0.08037811 -0.01121137
f 1 2 3
f 1 3 7
f 1 7 13
f 1 13 8
f 1 8 4
f 1 4 9
f 1 9 16
f 1 16 20
f 1 20 22
f 1 22 21
f 1 21 17
f 1 17 10
f 1 10 5
f 1 5 2
f 2 6 11
f 2 11 7
f 2 7 3
f 2 5 10
f 2 10 12
f 2 12 6
f 4 8 9
f 6 12 18
f 6 18 23
f 6 23 19
f 6 19 15
f 6 15 14
f 6 14 8
f 6 8 13
f 6 13 11
f 7 11 13
f 8 14 9
f 9 15 16
f 9 14 15
f 10 17 18
f 10 18 12
f 15 19 16
f 16 19 20
f 17 21 18
f 18 22 23
f 18 21 22
f 19 23 22
f 19 22 20

