# https://github.com/mikedh/trimesh
v -0.15087222 -0.08116795 0.00915157
v -0.15087222 -0.08114267 0.00577055
v -0.15087222 -0.07772562 0.00915157
v -0.15282173 -0.07892397 0.01064078
v -0.15176395 -0.07950443 -0.01147223
v -0.15087222 -0.08111840 0.00517963
v -0.15358034 -0.07124447 0.01064078
v -0.15282173 -0.07396172 0.01064078
v -0.15087222 -0.07769529 0.00897192
v -0.15176395 -0.07188359 0.00110812
v -0.15176395 -0.07197662 0.00152804
v -0.15295922 -0.07872374 0.01064078
v -0.15195615 -0.07923139 -0.01147223
v -0.15176395 -0.07083693 -0.01147223
v -0.15087222 -0.07761439 0.00517963
v -0.15581789 -0.07124447 0.01064078
v -0.15176395 -0.07186639 0.00095227
v -0.15176395 -0.07181886 0.00043494
v -0.15176395 -0.07083693 -0.01137049
v -0.15331552 -0.07083693 -0.00367553
v -0.15087222 -0.07765383 0.00871650
v -0.15359244 -0.07765181 0.01064078
v -0.15271232 -0.07800372 -0.01147223
v -0.15212606 -0.07896543 -0.01147223
v -0.15537880 -0.07083693 -0.01147223
v -0.15087222 -0.07757799 0.00740046
v -0.15532167 -0.07083693 -0.00367553
v -0.15537687 -0.07083693 -0.00669507
v -0.15538945 -0.07083693 -0.00749812
v -0.15540300 -0.07083693 -0.00841805
v -0.15538897 -0.07083693 -0.01083152
v -0.15538558 -0.07083693 -0.01106529
v -0.15576802 -0.07153672 0.01064078
v -0.15373524 -0.07738079 0.01064078
v -0.15324775 -0.07701471 -0.01147223
v -0.15295535 -0.07756888 -0.01147223
v -0.15519726 -0.07170662 -0.01147223
v -0.15549208 -0.07276540 0.01064078
v -0.15417240 -0.07648380 0.01064078
v -0.15348980 -0.07651009 -0.01147223
v -0.15497748 -0.07256214 -0.01147223
v -0.15542189 -0.07302429 0.01064078
v -0.15463714 -0.07541086 0.01064078
v -0.15376333 -0.07592458 -0.01147223
v -0.15460132 -0.07374430 -0.01147223
v -0.15499054 -0.07445320 0.01064078
v -0.15506752 -0.07420341 0.01064078
v -0.15432054 -0.07455634 -0.01147223
v -0.15397681 -0.07542097 -0.01147223
f 1 2 6
f 1 6 15
f 1 15 26
f 1 26 21
f 1 21 9
f 1 9 3
f 1 3 8
f 1 8 4
f 1 4 2
f 2 4 5
f 2 5 6
f 3 7 8
f 3 9 10
f 3 10 11
f 3 11 7
f 4 12 13
f 4 13 5
f 4 8 7
f 4 7 16
f 4 16 33
f 4 33 38
f 4 38 42
f 4 42 47
f 4 47 46
f 4 46 43
f 4 43 39
f 4 39 34
f 4 34 22
f 4 22 12
f 5 13 24
f 5 24 23
f 5 23 36
f 5 36 35
f 5 35 40
f 5 40 44
f 5 44 49
f 5 49 48
f 5 48 45
f 5 45 41
f 5 41 37
f 5 37 25
f 5 25 14
f 5 14 15
f 5 15 6
f 7 11 10
f 7 10 17
f 7 17 18
f 7 18 19
f 7 19 20
f 7 20 27
f 7 27 16
f 9 21 10
f 10 21 17
f 12 22 23
f 12 23 24
f 12 24 13
f 14 25 32
f 14 32 31
f 14 31 30
f 14 30 29
f 14 29 28
f 14 28 27
f 14 27 20
f 14 20 19
f 14 19 26
f 14 26 15
f 16 27 28
f 16 28 29
f 16 29 30
f 16 30 31
f 16 31 32
f 16 32 25
f 16 25 33
f 17 21 18
f 18 21 19
f 19 21 26
f 22 34 35
f 22 35 36
f 22 36 23
f 25 37 33
f 33 37 38
f 34 39 35
f 35 39 40
f 37 41 38
f 38 41 42
f 39 43 44
f 39 44 40
f 41 45 46
f 41 46 47
f 41 47 42
f 43 46 48
f 43 48 49
f 43 49 44
f 45 48 46

