# https://github.com/mikedh/trimesh
v -0.12097109 0.08280812 -0.01153376
v -0.12485973 0.08280812 -0.01148797
v -0.13057361 0.08111865 -0.01135193
v -0.12897481 0.07744607 -0.01135700
v -0.12651904 0.07631845 -0.01151984
v -0.12726084 0.07511155 -0.01153373
v -0.12833647 0.07385571 -0.01153376
v -0.13694144 0.07511743 -0.01153379
v -0.13694144 0.07861871 -0.01153379
v -0.13865736 0.08280812 -0.01153376
v -0.13151257 0.08280812 -0.01141485
v -0.12948627 0.07861774 -0.01135537
v -0.13284978 0.08081913 -0.01133283
v -0.14091402 0.07861871 -0.01125504
v -0.13319726 0.07871562 -0.01131779
v -0.13217435 0.07592692 -0.01136222
v -0.12895529 0.07385571 -0.01151444
v -0.12856682 0.07358457 -0.01153376
v -0.14091402 0.07482182 -0.01153379
v -0.12895333 0.07341524 -0.01153376
v -0.13373409 0.07280836 -0.01153376
v -0.14091402 0.07861871 -0.01153379
v -0.13865736 0.08280812 -0.01145643
v -0.13249255 0.08280812 -0.01141168
f 1 2 3
f 1 3 4
f 1 4 5
f 1 5 6
f 1 6 7
f 1 7 8
f 1 8 9
f 1 9 22
f 1 22 10
f 1 10 23
f 1 23 24
f 1 24 11
f 1 11 2
f 2 11 3
f 3 12 4
f 3 11 13
f 3 13 14
f 3 14 15
f 3 15 12
f 4 12 15
f 4 15 14
f 4 14 16
f 4 16 17
f 4 17 18
f 4 18 5
f 5 18 6
f 6 18 7
f 7 18 8
f 8 19 22
f 8 22 9
f 8 18 20
f 8 20 21
f 8 21 19
f 10 22 14
f 10 14 23
f 11 24 13
f 13 24 14
f 14 22 19
f 14 19 21
f 14 21 16
f 14 24 23
f 16 20 17
f 16 21 20
f 17 20 18

