# https://github.com/mikedh/trimesh
v 0.14637841 0.00009077 -0.01441383
v 0.14637841 0.00009077 -0.01129826
v 0.14637841 0.01721587 -0.01448760
v 0.14899753 0.00011572 -0.01474908
v 0.14899866 0.00009077 -0.01474908
v 0.14837643 0.00009077 -0.01121099
v 0.14919874 0.04319664 -0.01121099
v 0.14637841 0.00774281 -0.01135021
v 0.14637841 0.03171546 -0.01451392
v 0.14637897 0.06380164 -0.01458215
v 0.14872700 0.03469645 -0.01474908
v 0.15170571 0.00009077 -0.01474908
v 0.15173840 0.00009077 -0.01121099
v 0.14924383 0.04352717 -0.01121099
v 0.14927765 0.04387017 -0.01121134
v 0.14637897 0.05815149 -0.01173775
v 0.14637841 0.04121347 -0.01161585
v 0.14637841 0.04353340 -0.01453158
v 0.14637897 0.06380164 -0.01186001
v 0.15213575 0.06380164 -0.01456552
v 0.15213575 0.06023443 -0.01462925
v 0.15213575 0.05227058 -0.01472103
v 0.15057115 0.05059922 -0.01472103
v 0.15044151 0.05043084 -0.01472103
v 0.15012983 0.05005042 -0.01472068
v 0.14976800 0.04952033 -0.01472068
v 0.14884592 0.04352717 -0.01474908
v 0.14882732 0.04338997 -0.01474908
v 0.14882281 0.04331513 -0.01474908
v 0.14874052 0.04181216 -0.01474908
v 0.14870840 0.04099520 -0.01474908
v 0.14870502 0.04067090 -0.01474908
v 0.15171416 0.00009077 -0.01454440
v 0.15171811 0.00042130 -0.01474908
v 0.15176320 0.04352717 -0.01121099
v 0.15213575 0.04680127 -0.01472068
v 0.15213575 0.04516110 -0.01144926
v 0.15213575 0.04504885 -0.01121134
v 0.15213575 0.04832918 -0.01121134
v 0.15123847 0.04755587 -0.01121134
v 0.15121818 0.04753716 -0.01121134
v 0.15064160 0.04691352 -0.01121134
v 0.15017888 0.04627741 -0.01121134
v 0.14983394 0.04569119 -0.01121134
v 0.14968120 0.04532325 -0.01121134
v 0.14946477 0.04470584 -0.01121134
v 0.14938304 0.04441897 -0.01121134
v 0.14637841 0.04353340 -0.01165083
v 0.15213575 0.06380164 -0.01171178
v 0.15213575 0.05043084 -0.01472103
v 0.15172994 0.00244812 -0.01474908
v 0.15172769 0.02077061 -0.01474908
v 0.15171980 0.04352717 -0.01474908
v 0.15172262 0.00113848 -0.01474908
f 1 2 8
f 1 8 17
f 1 17 48
f 1 48 18
f 1 18 9
f 1 9 3
f 1 3 4
f 1 4 5
f 1 5 12
f 1 12 33
f 1 33 13
f 1 13 6
f 1 6 2
f 2 6 7
f 2 7 8
f 3 9 10
f 3 10 4
f 4 11 32
f 4 32 31
f 4 31 30
f 4 30 29
f 4 29 28
f 4 28 27
f 4 27 53
f 4 53 52
f 4 52 51
f 4 51 54
f 4 54 34
f 4 34 12
f 4 12 5
f 4 10 11
f 6 13 35
f 6 35 14
f 6 14 7
f 7 14 15
f 7 15 16
f 7 16 8
f 8 16 17
f 9 18 10
f 10 19 49
f 10 49 20
f 10 20 21
f 10 21 22
f 10 22 23
f 10 23 24
f 10 24 25
f 10 25 26
f 10 26 27
f 10 27 28
f 10 28 29
f 10 29 30
f 10 30 31
f 10 31 32
f 10 32 11
f 10 18 48
f 10 48 19
f 12 34 33
f 13 33 34
f 13 34 36
f 13 36 37
f 13 37 38
f 13 38 35
f 14 35 39
f 14 39 40
f 14 40 41
f 14 41 42
f 14 42 43
f 14 43 44
f 14 44 45
f 14 45 46
f 14 46 47
f 14 47 15
f 15 47 16
f 16 47 19
f 16 19 48
f 16 48 17
f 19 47 46
f 19 46 45
f 19 45 44
f 19 44 43
f 19 43 42
f 19 42 41
f 19 41 40
f 19 40 39
f 19 39 49
f 20 49 39
f 20 39 38
f 20 38 37
f 20 37 36
f 20 36 50
f 20 50 22
f 20 22 21
f 22 50 51
f 22 51 52
f 22 52 53
f 22 53 27
f 22 27 23
f 23 27 24
f 24 27 25
f 25 27 26
f 34 54 36
f 35 38 39
f 36 54 51
f 36 51 50

