# https://github.com/mikedh/trimesh
v -0.15367067 -0.04233912 0.00508249
v -0.15290817 -0.04234157 0.00002329
v -0.15290848 -0.04219685 -0.00405508
v -0.15580170 -0.04233912 0.00508249
v -0.15370276 -0.04699714 0.00508249
v -0.15365723 -0.05169685 0.00508021
v -0.15365477 -0.05039438 0.00508021
v -0.15272878 -0.04929548 -0.01157088
v -0.15272878 -0.04576334 -0.01157088
v -0.15373546 -0.05924191 0.00508021
v -0.15378497 -0.06127780 0.00508021
v -0.15272878 -0.06725547 -0.01173055
v -0.15272878 -0.06268576 -0.01167809
v -0.15290848 -0.04367839 -0.00721195
v -0.15465169 -0.04234157 -0.00303321
v -0.15511651 -0.04234157 -0.00262263
v -0.15531577 -0.04234157 -0.00244015
v -0.15550403 -0.04234157 -0.00210941
v -0.15551259 -0.04234157 -0.00209345
v -0.15561008 -0.04234157 -0.00165550
v -0.15569931 -0.04234157 -0.00080698
v -0.15574607 -0.04233912 0.00150593
v -0.15575524 -0.04233912 0.00196440
v -0.15580812 -0.04699714 0.00508249
v -0.15561436 -0.05075985 -0.01598456
v -0.15574791 -0.06706905 -0.00924201
v -0.15584509 -0.06062534 0.00508021
v -0.15397414 -0.06725302 0.00508021
v -0.15272878 -0.04611655 -0.01231904
v -0.15385801 -0.06725547 -0.00405508
v -0.15272878 -0.06725547 -0.01547362
v -0.15458598 -0.04640109 -0.01157088
v -0.15272878 -0.04808622 -0.01637689
v -0.15444967 -0.04849830 -0.01602790
v -0.15483933 -0.04695789 -0.01251064
v -0.15491328 -0.04835603 -0.01526606
v -0.15518986 -0.04870925 -0.01552152
v -0.15535397 -0.04930284 -0.01628337
v -0.15537964 -0.04899869 -0.01556486
v -0.15551228 -0.04960700 -0.01594350
v -0.15566478 -0.04700204 -0.00869686
v -0.15585090 -0.06639941 0.00508021
v -0.15581606 -0.06725302 0.00508021
v -0.15551198 -0.05078193 -0.01695169
v -0.15560152 -0.06725547 -0.01601193
v -0.15565195 -0.06725547 -0.01376746
v -0.15573232 -0.06725547 -0.00999701
v -0.15550373 -0.05026928 -0.01676465
v -0.15574057 -0.06725547 -0.00924201
v -0.15568220 -0.06725547 -0.00405508
v -0.15358602 -0.06725547 -0.01741017
v -0.15272878 -0.05076476 -0.01787549
v -0.15272878 -0.04835113 -0.01690836
v -0.15272878 -0.04837075 -0.01694713
v -0.15430237 -0.04885642 -0.01682624
v -0.15475712 -0.04874113 -0.01623775
v -0.15506303 -0.04927586 -0.01671903
v -0.15527360 -0.04968304 -0.01692204
v -0.15545543 -0.04980078 -0.01660955
v -0.15574057 -0.06725547 -0.00923517
v -0.15573965 -0.06725547 -0.00882687
v -0.15571246 -0.06725547 -0.00576809
v -0.15538882 -0.05057098 -0.01724594
v -0.15536253 -0.05122345 -0.01743526
v -0.15548753 -0.05157912 -0.01713417
v -0.15553154 -0.06725547 -0.01653199
v -0.15538240 -0.05002154 -0.01700416
v -0.15379139 -0.06725547 -0.01776600
v -0.15272878 -0.05054155 -0.01788461
v -0.15386351 -0.06725547 -0.01786636
v -0.15398331 -0.06725547 -0.01795988
v -0.15272878 -0.04861359 -0.01726647
v -0.15425133 -0.04904529 -0.01711136
v -0.15462998 -0.04908944 -0.01690607
v -0.15474459 -0.04943285 -0.01719576
v -0.15489464 -0.04978851 -0.01735999
v -0.15519414 -0.05023248 -0.01736911
v -0.15517703 -0.05089721 -0.01759949
v -0.15518589 -0.05176063 -0.01773407
v -0.15532005 -0.05247932 -0.01758124
v -0.15543282 -0.06375766 -0.01708855
v -0.15549089 -0.06701754 -0.01681712
v -0.15550037 -0.06725547 -0.01674413
v -0.15415996 -0.06725547 -0.01803059
v -0.15432468 -0.06725547 -0.01808762
v -0.15397934 -0.05431408 -0.01816973
v -0.15421833 -0.05394369 -0.01821991
v -0.15272878 -0.05014173 -0.01788005
v -0.15272878 -0.04864302 -0.01730296
v -0.15428586 -0.04938134 -0.01738964
v -0.15349403 -0.04898888 -0.01735542
v -0.15431765 -0.04989399 -0.01764967
v -0.15492551 -0.05033305 -0.01759265
v -0.15493131 -0.05126024 -0.01782759
v -0.15495821 -0.05233215 -0.01795076
v -0.15509329 -0.05293065 -0.01789373
v -0.15520606 -0.06725547 -0.01754018
v -0.15525618 -0.06688999 -0.01746719
v -0.15530477 -0.06725547 -0.01734630
v -0.15535153 -0.06725547 -0.01723225
v -0.15543863 -0.06725547 -0.01697222
v -0.15547806 -0.06725547 -0.01682852
v -0.15448604 -0.06725547 -0.01809902
v -0.15427578 -0.05343349 -0.01819026
v -0.15312485 -0.05041645 -0.01792339
v -0.15440903 -0.05436068 -0.01820623
v -0.15455786 -0.05338444 -0.01818570
v -0.15272878 -0.05004852 -0.01787093
v -0.15272878 -0.04889321 -0.01748544
v -0.15357960 -0.04941813 -0.01761089
v -0.15393594 -0.05032324 -0.01787777
v -0.15458506 -0.05038947 -0.01775003
v -0.15465413 -0.05135590 -0.01793935
v -0.15481426 -0.05349972 -0.01809446
v -0.15484727 -0.05343349 -0.01807165
v -0.15471005 -0.06725547 -0.01804428
v -0.15497135 -0.06725547 -0.01782074
v -0.15506426 -0.06725547 -0.01771810
v -0.15511040 -0.06725547 -0.01766108
v -0.15458812 -0.06725547 -0.01807849
v -0.15431765 -0.05305575 -0.01816745
v -0.15426325 -0.05205988 -0.01806709
v -0.15469111 -0.06725547 -0.01805340
v -0.15272878 -0.04969530 -0.01780706
v -0.15272878 -0.04900850 -0.01755843
v -0.15272878 -0.04921699 -0.01765651
v -0.15272878 -0.04948436 -0.01775003
f 1 2 3
f 1 3 4
f 1 4 24
f 1 24 5
f 1 5 6
f 1 6 7
f 1 7 2
f 2 8 9
f 2 9 3
f 2 7 6
f 2 6 10
f 2 10 11
f 2 11 12
f 2 12 13
f 2 13 8
f 3 14 15
f 3 15 16
f 3 16 17
f 3 17 18
f 3 18 19
f 3 19 20
f 3 20 21
f 3 21 22
f 3 22 23
f 3 23 4
f 3 9 14
f 4 23 25
f 4 25 26
f 4 26 27
f 4 27 24
f 5 24 43
f 5 43 28
f 5 28 11
f 5 11 10
f 5 10 6
f 8 13 12
f 8 12 31
f 8 31 52
f 8 52 69
f 8 69 88
f 8 88 108
f 8 108 124
f 8 124 127
f 8 127 126
f 8 126 125
f 8 125 109
f 8 109 89
f 8 89 72
f 8 72 54
f 8 54 53
f 8 53 33
f 8 33 29
f 8 29 9
f 9 29 14
f 11 28 12
f 12 28 30
f 12 30 50
f 12 50 62
f 12 62 61
f 12 61 60
f 12 60 49
f 12 49 47
f 12 47 46
f 12 46 45
f 12 45 66
f 12 66 83
f 12 83 102
f 12 102 101
f 12 101 100
f 12 100 99
f 12 99 97
f 12 97 119
f 12 119 118
f 12 118 117
f 12 117 116
f 12 116 123
f 12 123 120
f 12 120 103
f 12 103 85
f 12 85 84
f 12 84 71
f 12 71 70
f 12 70 68
f 12 68 51
f 12 51 31
f 14 32 15
f 14 29 33
f 14 33 34
f 14 34 32
f 15 32 35
f 15 35 16
f 16 35 17
f 17 35 36
f 17 36 37
f 17 37 18
f 18 37 19
f 19 37 38
f 19 38 20
f 20 38 39
f 20 39 40
f 20 40 21
f 21 41 22
f 21 40 25
f 21 25 41
f 22 41 23
f 23 41 25
f 24 27 42
f 24 42 43
f 25 44 45
f 25 45 46
f 25 46 47
f 25 47 26
f 25 40 48
f 25 48 44
f 26 47 49
f 26 49 42
f 26 42 27
f 28 43 50
f 28 50 30
f 31 51 52
f 32 34 35
f 33 53 34
f 34 53 54
f 34 54 55
f 34 55 56
f 34 56 35
f 35 56 36
f 36 56 37
f 37 56 57
f 37 57 38
f 38 57 58
f 38 58 59
f 38 59 40
f 38 40 39
f 40 59 48
f 42 49 43
f 43 49 60
f 43 60 61
f 43 61 62
f 43 62 50
f 44 48 63
f 44 63 64
f 44 64 65
f 44 65 45
f 45 65 66
f 48 59 67
f 48 67 63
f 51 68 52
f 52 68 70
f 52 70 71
f 52 71 69
f 54 72 73
f 54 73 55
f 55 73 74
f 55 74 56
f 56 74 57
f 57 74 75
f 57 75 58
f 58 76 77
f 58 77 67
f 58 67 59
f 58 75 76
f 63 78 64
f 63 67 77
f 63 77 78
f 64 78 79
f 64 79 80
f 64 80 65
f 65 80 81
f 65 81 82
f 65 82 66
f 66 82 83
f 69 71 84
f 69 84 85
f 69 85 86
f 69 86 87
f 69 87 88
f 72 89 73
f 73 90 75
f 73 75 74
f 73 89 91
f 73 91 90
f 75 90 76
f 76 92 93
f 76 93 77
f 76 90 92
f 77 93 78
f 78 94 79
f 78 93 94
f 79 94 95
f 79 95 96
f 79 96 80
f 80 96 97
f 80 97 98
f 80 98 99
f 80 99 100
f 80 100 81
f 81 100 101
f 81 101 82
f 82 101 102
f 82 102 83
f 85 103 87
f 85 87 86
f 87 104 105
f 87 105 88
f 87 103 106
f 87 106 107
f 87 107 104
f 88 105 108
f 89 109 91
f 90 110 92
f 90 91 110
f 91 109 110
f 92 110 111
f 92 111 112
f 92 112 93
f 93 112 94
f 94 112 113
f 94 113 95
f 95 113 107
f 95 107 114
f 95 114 115
f 95 115 96
f 96 115 116
f 96 116 117
f 96 117 118
f 96 118 119
f 96 119 97
f 97 99 98
f 103 120 107
f 103 107 106
f 104 107 121
f 104 121 105
f 105 121 122
f 105 122 111
f 105 111 108
f 107 120 123
f 107 123 114
f 107 113 122
f 107 122 121
f 108 111 124
f 109 125 110
f 110 126 127
f 110 127 111
f 110 125 126
f 111 122 113
f 111 113 112
f 111 127 124
f 114 123 116
f 114 116 115

