# https://github.com/mikedh/trimesh
v 0.09995199 -0.07583472 -0.01073875
v 0.09975017 -0.07584117 -0.01073875
v 0.10048941 -0.07587986 -0.01073875
v 0.10541973 -0.06504070 -0.01122314
v 0.10238625 -0.06504070 -0.01122246
v 0.09962886 -0.07584977 -0.01073875
v 0.10069179 -0.07590996 -0.01073875
v 0.10541973 -0.06618104 -0.01121366
v 0.10541973 -0.06504070 -0.01468160
v 0.10096618 -0.07602066 -0.01073875
v 0.09962942 -0.06504070 -0.01127598
v 0.09962886 -0.07602066 -0.01073875
v 0.09962886 -0.07209986 -0.01115268
v 0.10541973 -0.06629819 -0.01121298
v 0.10541973 -0.06718059 -0.01689826
v 0.10538911 -0.06504070 -0.01468228
v 0.10107388 -0.07602066 -0.01075434
v 0.10541973 -0.06694091 -0.01122314
v 0.09962942 -0.06504070 -0.01465247
v 0.09962886 -0.07602066 -0.01462672
v 0.09962886 -0.07209986 -0.01462401
v 0.10485225 -0.06724400 -0.01697075
v 0.10541973 -0.06736545 -0.01707915
v 0.10281256 -0.06504070 -0.01470124
v 0.10125699 -0.07602066 -0.01082344
v 0.10541973 -0.06728376 -0.01126989
v 0.10060506 -0.06504070 -0.01467618
v 0.10490951 -0.06761158 -0.01724512
v 0.10428989 -0.06757611 -0.01713199
v 0.10439930 -0.06783943 -0.01728374
v 0.10376948 -0.06797377 -0.01714757
v 0.10333808 -0.06816079 -0.01701750
v 0.10347867 -0.06871538 -0.01719093
v 0.10271618 -0.06870678 -0.01678716
v 0.10295826 -0.07022114 -0.01702359
v 0.09962942 -0.06774807 -0.01470802
v 0.10258580 -0.07209986 -0.01678106
v 0.10302401 -0.07264263 -0.01706898
v 0.10235961 -0.07602066 -0.01644165
v 0.09962942 -0.06804149 -0.01470599
v 0.10246165 -0.07194186 -0.01669773
v 0.10541973 -0.06746755 -0.01715434
v 0.10146901 -0.07602066 -0.01091625
v 0.10541973 -0.06769648 -0.01134102
v 0.10541973 -0.06769218 -0.01727290
v 0.10494466 -0.06803289 -0.01740568
v 0.10429273 -0.06840584 -0.01739891
v 0.10419579 -0.06840584 -0.01737249
v 0.10359942 -0.06840584 -0.01717264
v 0.10427742 -0.06848967 -0.01741517
v 0.10377118 -0.06931617 -0.01734200
v 0.10340326 -0.07138083 -0.01728848
v 0.10318785 -0.07209986 -0.01716383
v 0.10300928 -0.07209986 -0.01705882
v 0.10354386 -0.07272968 -0.01732981
v 0.10279271 -0.07602066 -0.01670383
v 0.10256823 -0.07602066 -0.01657647
v 0.10347696 -0.07209986 -0.01731084
v 0.10183239 -0.07602066 -0.01112491
v 0.10541973 -0.06799849 -0.01144806
v 0.10197185 -0.07602066 -0.01122992
v 0.10529841 -0.07602066 -0.01375144
v 0.10541973 -0.06775452 -0.01729661
v 0.10541973 -0.06821452 -0.01740230
v 0.10541973 -0.06840584 -0.01744091
v 0.10509772 -0.06840584 -0.01746801
v 0.10481144 -0.06840584 -0.01745988
v 0.10439818 -0.06840584 -0.01741381
v 0.10468729 -0.06875192 -0.01750866
v 0.10434659 -0.07053820 -0.01755947
v 0.10384205 -0.07199023 -0.01746733
v 0.10379839 -0.07209986 -0.01744769
v 0.10430180 -0.07298333 -0.01754931
v 0.10336755 -0.07602066 -0.01696127
v 0.10316574 -0.07602066 -0.01688404
v 0.10541973 -0.06840584 -0.01163775
v 0.10529841 -0.07602066 -0.01726206
v 0.10541973 -0.07209986 -0.01390387
v 0.10541973 -0.06850149 -0.01745988
v 0.10518503 -0.06862187 -0.01750392
v 0.10505350 -0.07061773 -0.01764076
v 0.10463400 -0.07213855 -0.01765838
v 0.10442822 -0.07209986 -0.01760892
v 0.10389250 -0.07209986 -0.01747682
v 0.10510226 -0.07303277 -0.01761773
v 0.10463741 -0.07602066 -0.01724716
v 0.10429500 -0.07602066 -0.01718889
v 0.10395713 -0.07602066 -0.01712860
v 0.10509093 -0.07602066 -0.01726816
v 0.10529841 -0.07312090 -0.01758724
v 0.10541973 -0.07209986 -0.01764957
v 0.10541973 -0.06877449 -0.01749308
v 0.10541973 -0.06944193 -0.01755202
v 0.10541973 -0.07012764 -0.01759808
v 0.10541973 -0.07149691 -0.01765431
v 0.10541973 -0.07186878 -0.01765973
v 0.10529841 -0.07250828 -0.01763534
v 0.10489137 -0.07602066 -0.01726816
f 1 2 6
f 1 6 12
f 1 12 10
f 1 10 7
f 1 7 3
f 1 3 4
f 1 4 5
f 1 5 2
f 2 5 6
f 3 7 4
f 4 8 14
f 4 14 18
f 4 18 26
f 4 26 44
f 4 44 60
f 4 60 76
f 4 76 78
f 4 78 91
f 4 91 96
f 4 96 95
f 4 95 94
f 4 94 93
f 4 93 92
f 4 92 79
f 4 79 65
f 4 65 64
f 4 64 63
f 4 63 45
f 4 45 42
f 4 42 23
f 4 23 15
f 4 15 9
f 4 9 16
f 4 16 24
f 4 24 27
f 4 27 19
f 4 19 11
f 4 11 5
f 4 7 10
f 4 10 8
f 5 11 6
f 6 11 13
f 6 13 21
f 6 21 20
f 6 20 12
f 8 10 14
f 9 15 16
f 10 12 20
f 10 20 39
f 10 39 57
f 10 57 56
f 10 56 75
f 10 75 74
f 10 74 88
f 10 88 87
f 10 87 86
f 10 86 98
f 10 98 89
f 10 89 77
f 10 77 62
f 10 62 61
f 10 61 59
f 10 59 43
f 10 43 25
f 10 25 17
f 10 17 18
f 10 18 14
f 11 19 21
f 11 21 13
f 15 22 16
f 15 23 22
f 16 22 24
f 17 25 18
f 18 25 26
f 19 27 22
f 19 22 28
f 19 28 29
f 19 29 30
f 19 30 31
f 19 31 32
f 19 32 33
f 19 33 34
f 19 34 35
f 19 35 36
f 19 36 21
f 20 37 38
f 20 38 39
f 20 21 36
f 20 36 40
f 20 40 41
f 20 41 37
f 22 27 24
f 22 23 28
f 23 42 28
f 25 43 26
f 26 43 44
f 28 42 45
f 28 45 46
f 28 46 30
f 28 30 29
f 30 46 47
f 30 47 31
f 31 47 48
f 31 48 49
f 31 49 32
f 32 49 33
f 33 49 48
f 33 48 50
f 33 50 51
f 33 51 52
f 33 52 35
f 33 35 34
f 35 52 53
f 35 53 54
f 35 54 37
f 35 37 41
f 35 41 36
f 36 41 40
f 37 54 38
f 38 55 56
f 38 56 57
f 38 57 39
f 38 54 53
f 38 53 58
f 38 58 55
f 43 59 44
f 44 59 61
f 44 61 62
f 44 62 60
f 45 63 46
f 46 63 64
f 46 64 65
f 46 65 66
f 46 66 67
f 46 67 68
f 46 68 47
f 47 68 50
f 47 50 48
f 50 69 70
f 50 70 51
f 50 68 69
f 51 70 71
f 51 71 52
f 52 71 72
f 52 72 58
f 52 58 53
f 55 73 74
f 55 74 75
f 55 75 56
f 55 58 72
f 55 72 73
f 60 62 76
f 62 77 91
f 62 91 78
f 62 78 76
f 65 79 80
f 65 80 66
f 66 80 67
f 67 80 69
f 67 69 68
f 69 80 81
f 69 81 70
f 70 81 82
f 70 82 83
f 70 83 71
f 71 83 84
f 71 84 72
f 72 84 73
f 73 84 83
f 73 83 82
f 73 82 85
f 73 85 86
f 73 86 87
f 73 87 88
f 73 88 74
f 77 89 85
f 77 85 90
f 77 90 91
f 79 92 80
f 80 92 93
f 80 93 94
f 80 94 81
f 81 94 95
f 81 95 96
f 81 96 82
f 82 96 85
f 85 97 90
f 85 89 98
f 85 98 86
f 85 96 97
f 90 97 91
f 91 97 96

