# https://github.com/mikedh/trimesh
v -0.15353093 0.07688808 0.01032023
v -0.15353093 0.07614744 -0.00992445
v -0.15368492 0.07645479 0.00667397
v -0.15413706 0.07562878 0.01032023
v -0.15353093 0.07104194 0.01032023
v -0.15392256 0.07537052 -0.00992445
v -0.15353093 0.06867702 -0.00992445
v -0.15427088 0.07529367 0.01032023
v -0.15399070 0.06621818 0.01032023
v -0.15393362 0.05508512 0.01031825
v -0.15388787 0.05508512 0.00935120
v -0.15380029 0.05508512 0.00604182
v -0.15374666 0.05508512 0.00273046
v -0.15365614 0.05508512 -0.00630395
v -0.15353093 0.07057024 0.00841189
v -0.15419118 0.07465549 -0.00992445
v -0.15465464 0.07407493 0.00431183
v -0.15353093 0.06892248 -0.00247934
v -0.15369304 0.05508512 -0.00992247
v -0.15383399 0.06621818 -0.00992445
v -0.15490014 0.07367793 0.01032023
v -0.15603837 0.06621818 0.01032023
v -0.15602238 0.05508512 0.01031825
v -0.15353093 0.06935363 0.00143841
v -0.15462339 0.07343888 -0.00992445
v -0.15575129 0.05508512 -0.00992247
v -0.15570873 0.06621818 -0.00992445
v -0.15516262 0.07261073 0.00563954
v -0.15530185 0.07236954 0.01032023
v -0.15604402 0.06673044 0.01032023
v -0.15581525 0.05508512 -0.00579466
v -0.15585755 0.06647004 -0.00433219
v -0.15506791 0.07196187 -0.00992445
v -0.15576335 0.05508512 -0.00957369
v -0.15574415 0.06089284 -0.00992247
v -0.15571365 0.06752444 -0.00992445
v -0.15516779 0.07158621 -0.00992445
v -0.15536311 0.07087759 -0.00833515
v -0.15550111 0.07151791 0.01032023
v -0.15588216 0.06897370 0.01032023
v -0.15580984 0.06806658 -0.00146274
v -0.15585510 0.06621818 -0.00448280
v -0.15578647 0.05905512 -0.00842631
v -0.15579286 0.06019916 -0.00809736
v -0.15569373 0.06783179 -0.00992445
v -0.15532399 0.07088186 -0.00992445
v -0.15540690 0.07050621 -0.00992445
v -0.15562460 0.07076660 0.01032023
v -0.15575547 0.06994699 0.01032023
v -0.15559680 0.06923410 -0.00992445
v -0.15560861 0.06917006 -0.00963711
v -0.15561378 0.06905908 -0.00992445
v -0.15567576 0.06995339 0.00427616
f 1 2 3
f 1 3 4
f 1 4 8
f 1 8 21
f 1 21 29
f 1 29 39
f 1 39 48
f 1 48 49
f 1 49 40
f 1 40 30
f 1 30 22
f 1 22 9
f 1 9 5
f 1 5 15
f 1 15 24
f 1 24 18
f 1 18 7
f 1 7 2
f 2 6 3
f 2 7 20
f 2 20 27
f 2 27 36
f 2 36 45
f 2 45 52
f 2 52 50
f 2 50 47
f 2 47 46
f 2 46 37
f 2 37 33
f 2 33 25
f 2 25 16
f 2 16 6
f 3 6 4
f 4 6 8
f 5 9 10
f 5 10 11
f 5 11 12
f 5 12 13
f 5 13 14
f 5 14 15
f 6 16 17
f 6 17 8
f 7 18 14
f 7 14 19
f 7 19 20
f 8 17 21
f 9 22 23
f 9 23 10
f 10 23 31
f 10 31 34
f 10 34 26
f 10 26 19
f 10 19 14
f 10 14 13
f 10 13 12
f 10 12 11
f 14 18 24
f 14 24 15
f 16 25 17
f 17 25 21
f 19 26 27
f 19 27 20
f 21 25 28
f 21 28 29
f 22 30 23
f 23 30 32
f 23 32 31
f 25 33 28
f 26 34 35
f 26 35 36
f 26 36 27
f 28 33 37
f 28 37 29
f 29 37 38
f 29 38 39
f 30 40 41
f 30 41 32
f 31 32 42
f 31 42 34
f 32 41 36
f 32 36 42
f 34 42 43
f 34 43 35
f 35 43 44
f 35 44 36
f 36 41 45
f 36 44 42
f 37 46 38
f 38 47 39
f 38 46 47
f 39 47 48
f 40 49 50
f 40 50 51
f 40 51 41
f 41 51 52
f 41 52 45
f 42 44 43
f 47 50 53
f 47 53 49
f 47 49 48
f 49 53 50
f 50 52 51

