# https://github.com/mikedh/trimesh
v 0.09168172 0.05567764 -0.01209635
v 0.09168172 0.05525238 -0.01209724
v 0.09168172 0.05567764 -0.01498505
v 0.08333131 0.05567764 -0.01215294
v 0.08803979 0.05149266 -0.01212822
v 0.08810697 0.05149266 -0.01212792
v 0.09168172 0.05149266 -0.01211303
v 0.09168172 0.05149266 -0.01513218
v 0.08851847 0.05567764 -0.01502495
v 0.07738274 0.05567764 -0.01219702
v 0.08665132 0.05149266 -0.01213775
v 0.07738274 0.05149266 -0.01513903
v 0.07738274 0.05567764 -0.01511699
v 0.08398635 0.05567764 -0.01506248
v 0.07738274 0.05149266 -0.01220715
f 1 2 7
f 1 7 8
f 1 8 3
f 1 3 9
f 1 9 14
f 1 14 13
f 1 13 10
f 1 10 4
f 1 4 5
f 1 5 2
f 2 5 6
f 2 6 7
f 3 8 9
f 4 10 11
f 4 11 5
f 5 11 15
f 5 15 12
f 5 12 8
f 5 8 7
f 5 7 6
f 8 12 13
f 8 13 14
f 8 14 9
f 10 13 12
f 10 12 15
f 10 15 11

