# https://github.com/mikedh/trimesh
v -0.05198903 0.05321288 -0.02589786
v -0.03882850 0.05320043 -0.04338079
v -0.04057864 0.04291523 -0.04174745
v -0.05231130 0.03921783 -0.02478193
v -0.01376406 -0.04372652 0.42511445
v -0.02754333 -0.01548268 0.41981572
v -0.02570388 -0.04914989 0.41544750
v 0.01593051 -0.01258541 0.42769468
v 0.01160211 0.05297790 0.42738205
v -0.00106398 -0.01007646 0.43106967
v 0.01411944 -0.04639078 0.42448428
v 0.02265285 -0.04671562 0.41939577
v 0.02470415 -0.03480633 0.41984469
v 0.02589072 -0.05643592 0.38220060
v 0.02733424 -0.05590914 0.39914563
v 0.01287474 -0.05617378 0.41380948
v -0.00138531 -0.05603729 0.41733253
v -0.02655471 -0.05643445 0.38851076
v -0.00276489 -0.04757608 0.04827269
v 0.01617385 -0.04536714 0.05368224
v 0.04458020 0.00773478 -0.01888757
v 0.05149878 0.02454715 -0.01937663
v 0.04852320 0.00133079 0.00050875
v -0.00241390 0.03879978 -0.05803677
v -0.02139605 0.04640361 -0.05439547
v -0.01986674 0.05319235 -0.05484352
v 0.00188743 0.05317283 -0.05835449
v -0.02796301 -0.05411471 0.40578765
v -0.01553314 -0.05581757 0.41376334
v -0.01441064 -0.01235965 0.42832550
v -0.01053004 0.05299857 0.42770284
v -0.02646882 0.05303751 0.41822359
v 0.03478758 -0.02000907 0.00430192
v 0.04021065 -0.02184551 0.02508200
v 0.02573828 -0.03344500 0.01969133
v 0.01758122 -0.02525502 -0.00638590
v 0.02778087 -0.00999058 -0.02036449
v 0.03023451 -0.01665105 0.41689989
v 0.03211062 -0.04730844 0.40797400
v 0.03752639 -0.02095133 0.40362930
v 0.03426779 0.05297584 0.40704137
v 0.02685508 0.05344926 0.41734380
v 0.03733341 0.05306475 0.39435270
v -0.03261729 -0.04576541 0.40771377
v 0.01388999 0.01949267 -0.05070452
v 0.02476992 0.03705998 -0.05215955
v 0.02906467 0.01259548 -0.03998520
v 0.00821121 0.00118153 -0.04073127
v 0.00167000 0.01746637 -0.05162790
v 0.00015109 -0.04443265 0.42830026
v 0.00005743 -0.05137025 0.42518878
v -0.01337765 -0.05149563 0.42195472
v 0.03935637 -0.02636435 0.39140961
v 0.05742257 0.03625561 -0.00122641
v 0.05784436 0.05319481 -0.00029291
v 0.03965070 0.02625661 -0.03850500
v 0.04242485 0.03941146 -0.03941394
v 0.01820901 -0.01262364 -0.02392466
v -0.00249083 -0.01247839 -0.02862887
v -0.01289008 -0.02013128 -0.01673987
v -0.02823029 -0.00306778 -0.02774385
v -0.01358660 0.00199275 -0.04005602
v -0.03404808 0.02194379 -0.04149838
v -0.04187245 0.01612924 -0.03013376
v 0.01272431 -0.05220304 0.42149183
v 0.02466135 -0.05143483 0.41447824
v -0.05608949 0.03966067 -0.01395728
v -0.05216254 0.01414141 -0.00629639
v -0.05534769 0.02146836 0.00427872
v -0.05779243 0.05314838 -0.00364403
v 0.01407670 0.03662440 -0.05597007
v 0.02346703 0.05320124 -0.05337598
v -0.03679375 0.05304395 0.39866081
v -0.03782582 -0.02227983 0.40254989
v -0.03478106 -0.01931170 0.41011560
v -0.03316186 0.05306125 0.40908524
v -0.03238999 -0.05422050 0.38912854
v -0.03543163 -0.05015569 0.39365327
v -0.04172711 -0.02325140 0.04355210
v -0.03641972 -0.02931898 0.03645656
v -0.02479053 -0.04106791 0.05008071
v -0.00908214 0.02718153 -0.05472348
v 0.00031496 0.05304386 0.42918229
v -0.02977601 0.03050174 -0.04782659
v -0.02190381 0.02057082 -0.04847513
v 0.05631411 0.04076772 -0.01353954
v 0.05359454 0.05315968 -0.02237693
v 0.00780630 -0.02115886 -0.01695341
v -0.00238238 -0.03149047 -0.00121944
v 0.03335663 0.04785262 -0.04802308
v -0.03938971 -0.02642812 0.39125749
v -0.04884431 0.02286116 -0.02398593
v 0.03560365 -0.04715991 0.39896217
v 0.03420629 -0.05213030 0.39355150
v 0.04520676 -0.01682484 0.05261175
v 0.05210646 0.00766120 0.00771138
v 0.05027129 0.04320233 -0.02927174
v 0.04522029 0.05321593 -0.03687581
v 0.02504408 -0.03922156 0.03922155
v 0.03197287 -0.03606353 0.05453187
v -0.01640761 -0.04528093 0.05369387
v -0.01204627 -0.04173633 0.02725308
v 0.03607177 -0.00916420 -0.01202236
v 0.03614095 0.05320813 -0.04566311
v -0.03194834 -0.01137973 -0.01441552
v -0.02149418 -0.02724619 0.00011092
v -0.03026229 -0.02723681 0.01167989
v -0.03972328 -0.00703627 -0.00906944
v 0.03745656 0.00728316 -0.02855047
v 0.01879402 0.00252812 -0.03853549
v 0.00726412 -0.04548415 0.03829348
v 0.00729091 -0.04113895 0.02254547
v -0.04152546 -0.01449237 0.00908366
v -0.04673245 -0.00791481 0.01435717
v 0.02867711 -0.05349052 0.40615293
v -0.04625169 0.03284203 -0.03302156
v 0.01716162 -0.03293169 0.00787786
v -0.02092992 -0.04014444 0.03374333
v -0.01233597 -0.03401802 0.00685067
v -0.04453178 0.00754360 -0.01877512
v 0.04129994 -0.02494848 0.05687298
v 0.04530827 -0.01426978 0.02824031
v 0.02278689 0.05299528 0.42154625
v -0.02416170 0.01166415 -0.04241076
v -0.00254791 0.00343802 -0.04316845
v 0.03097075 -0.05511864 0.38716751
v 0.01662083 -0.04057381 0.02813116
v 0.05523709 0.02776084 -0.00944455
v -0.02934085 0.05321378 -0.05051467
v -0.03336373 -0.04972302 0.40314835
v -0.04882756 -0.00502437 0.02337483
f 104 72 27
f 104 27 26
f 104 26 129
f 104 129 2
f 104 2 1
f 104 1 70
f 104 70 73
f 104 73 76
f 104 76 32
f 104 32 31
f 104 31 83
f 104 83 42
f 104 42 43
f 104 43 55
f 104 55 87
f 104 87 98
f 1 2 3
f 1 3 4
f 5 6 7
f 8 9 10
f 11 12 13
f 11 13 8
f 14 15 16
f 14 16 17
f 14 17 18
f 14 18 19
f 14 19 20
f 21 22 23
f 24 25 26
f 24 26 27
f 28 18 29
f 28 29 7
f 30 31 32
f 30 32 6
f 30 6 5
f 30 10 31
f 33 23 34
f 33 34 35
f 33 36 37
f 38 13 39
f 38 39 40
f 38 8 13
f 41 42 38
f 41 38 40
f 41 40 43
f 41 43 42
f 44 7 6
f 45 46 47
f 45 48 49
f 50 51 11
f 50 11 8
f 50 8 10
f 10 30 5
f 10 5 50
f 52 51 50
f 52 50 5
f 52 5 7
f 52 7 29
f 53 54 55
f 53 55 43
f 53 43 40
f 56 22 21
f 56 47 46
f 56 46 57
f 58 37 36
f 58 59 48
f 60 61 62
f 60 62 59
f 63 61 64
f 65 11 51
f 65 16 66
f 67 68 69
f 67 69 70
f 67 70 1
f 67 1 4
f 71 46 45
f 71 45 49
f 71 49 24
f 71 24 27
f 71 27 72
f 71 72 46
f 73 74 75
f 73 75 76
f 77 78 79
f 77 79 80
f 77 80 81
f 77 18 28
f 82 25 24
f 82 24 49
f 83 10 9
f 83 9 42
f 83 31 10
f 84 85 63
f 84 63 3
f 84 25 82
f 84 82 85
f 86 87 55
f 86 55 54
f 88 59 58
f 88 58 36
f 88 36 89
f 88 89 60
f 88 60 59
f 90 57 46
f 90 46 72
f 91 74 73
f 91 73 70
f 91 70 69
f 91 69 78
f 91 78 74
f 92 68 67
f 92 67 4
f 93 94 95
f 93 95 96
f 93 96 54
f 93 54 53
f 93 53 40
f 93 40 39
f 97 57 98
f 97 98 87
f 97 87 86
f 97 86 22
f 97 22 56
f 97 56 57
f 99 100 20
f 99 35 34
f 99 34 100
f 101 18 77
f 101 77 81
f 101 102 19
f 101 19 18
f 103 21 23
f 103 23 33
f 103 33 37
f 98 57 90
f 98 90 104
f 104 90 72
f 105 61 60
f 105 60 106
f 105 106 107
f 105 107 108
f 109 47 56
f 109 56 21
f 109 21 103
f 109 103 37
f 109 37 47
f 110 47 37
f 110 37 58
f 110 58 48
f 110 48 45
f 110 45 47
f 111 19 102
f 111 102 112
f 111 20 19
f 113 107 80
f 80 79 114
f 80 114 113
f 113 114 68
f 113 68 108
f 113 108 107
f 115 66 16
f 115 16 15
f 115 15 94
f 115 94 93
f 115 93 39
f 115 39 66
f 17 51 52
f 17 52 29
f 17 29 18
f 17 16 65
f 17 65 51
f 12 11 65
f 12 65 66
f 12 66 39
f 12 39 13
f 116 3 63
f 116 63 64
f 116 64 92
f 116 92 4
f 116 4 3
f 117 112 89
f 117 89 36
f 117 36 33
f 117 33 35
f 118 107 106
f 118 102 101
f 118 101 81
f 118 81 80
f 118 80 107
f 119 102 118
f 119 118 106
f 119 106 60
f 119 60 89
f 119 89 112
f 119 112 102
f 120 108 68
f 120 68 92
f 120 92 64
f 120 64 61
f 120 61 105
f 120 105 108
f 121 100 34
f 121 122 95
f 121 95 94
f 121 94 100
f 123 9 8
f 123 8 38
f 123 38 42
f 123 42 9
f 6 32 76
f 6 76 75
f 75 74 44
f 75 44 6
f 124 85 62
f 124 62 61
f 124 61 63
f 124 63 85
f 125 48 59
f 125 59 62
f 125 62 85
f 125 85 82
f 125 82 49
f 125 49 48
f 126 94 15
f 126 15 14
f 126 14 20
f 126 20 100
f 126 100 94
f 127 35 99
f 127 99 20
f 127 20 111
f 127 111 112
f 127 112 117
f 127 117 35
f 128 54 96
f 128 96 23
f 128 23 22
f 128 22 86
f 128 86 54
f 129 26 25
f 129 25 84
f 129 84 3
f 129 3 2
f 130 28 7
f 130 7 44
f 130 44 74
f 130 74 78
f 130 78 77
f 130 77 28
f 122 121 34
f 122 34 23
f 122 23 96
f 122 96 95
f 69 68 114
f 69 114 131
f 131 114 79
f 131 79 78
f 131 78 69

