# https://github.com/mikedh/trimesh
v 0.06555605 -0.01793687 -0.01856920
v 0.06703292 -0.01251969 0.00092695
v 0.06685104 -0.02372812 0.00202697
v 0.06508015 -0.02287421 -0.01754457
v 0.06129763 -0.02283052 -0.01927179
v -0.06393235 -0.01435831 -0.02189974
v 0.00195319 -0.02086901 -0.02229246
v -0.06235560 -0.02295377 -0.02090933
v -0.06496912 0.01653362 -0.02013455
v -0.06437347 0.01217849 -0.02170335
v -0.06488414 -0.02211603 -0.01859175
v 0.06605380 -0.01990196 0.02135738
v 0.06683941 0.02256183 0.00233250
v 0.06606676 0.02250746 0.02008135
v 0.06600225 0.01324733 -0.01958392
v 0.02273381 0.00890796 -0.02313966
v 0.05453382 0.01687944 -0.02201311
v 0.05781370 0.00328223 -0.02197316
v 0.00460434 0.02051465 -0.02127531
v -0.06300828 0.01999376 -0.02109538
v -0.06482641 0.02471550 -0.00245100
v 0.06456252 0.02472898 0.00050737
v 0.06293176 0.02062764 -0.01670016
v 0.06556705 -0.02293131 0.02077294
v 0.06363446 -0.02262337 0.02280936
v -0.06332002 -0.02290135 0.01957159
v -0.06602257 -0.02314811 0.01812423
v -0.06680139 0.02192256 0.01703225
v -0.06675305 0.02275369 -0.00211430
v -0.06696774 -0.02226213 0.00012690
v -0.06703292 -0.02027535 0.01647816
v 0.04475965 -0.02413620 -0.01942546
v -0.04968075 0.01626934 -0.02268140
v -0.02789345 0.01908932 -0.02269368
v 0.02686813 0.01780190 -0.02286782
v -0.06661839 -0.01994015 0.01928482
v -0.06444433 -0.02120207 0.02005111
v 0.06377294 -0.00118166 -0.02106602
v 0.06416290 0.01840733 -0.02052771
v -0.06395673 -0.02372728 -0.01825513
v -0.06597772 -0.02443212 0.00035041
v 0.06626293 0.02420735 0.00047603
v 0.06559257 0.01778765 -0.01938010
v 0.06538660 0.02448748 0.02032645
v -0.06529051 0.02418214 0.01800774
v 0.06419085 0.02432309 0.02134619
v 0.06492167 -0.02460624 0.00272740
v -0.06471658 0.01942670 -0.01954818
v 0.00961150 -0.02301905 -0.02163183
v -0.06384659 -0.02226604 -0.02086101
v 0.05139356 0.01924997 -0.02136572
v -0.06645292 0.02405822 0.01423724
v 0.06528821 -0.01904844 0.02282480
v 0.06537954 0.02188370 0.02156535
v -0.06354653 0.02230164 0.01890951
v -0.06615835 0.02133750 0.01846440
v 0.06519759 -0.02205608 0.02263083
v 0.04763140 -0.02171592 -0.02076725
f 33 34 35
f 33 35 16
f 33 16 7
f 33 7 6
f 1 2 3
f 4 5 1
f 4 1 3
f 6 7 8
f 9 10 6
f 9 6 11
f 12 3 2
f 12 2 13
f 12 13 14
f 13 2 1
f 13 1 15
f 7 16 17
f 7 17 18
f 19 20 21
f 21 22 23
f 21 23 19
f 24 3 12
f 24 25 26
f 24 26 27
f 28 29 30
f 28 30 31
f 32 5 4
f 36 28 31
f 36 31 27
f 36 27 37
f 38 1 5
f 38 39 15
f 38 15 1
f 40 41 11
f 40 8 32
f 42 23 22
f 29 9 11
f 29 11 30
f 30 11 41
f 30 41 27
f 30 27 31
f 43 39 23
f 43 23 42
f 43 42 13
f 43 13 15
f 43 15 39
f 10 9 20
f 10 20 33
f 10 33 6
f 14 13 42
f 14 42 44
f 44 42 22
f 44 22 21
f 44 21 45
f 44 45 46
f 47 3 24
f 24 27 41
f 24 41 47
f 47 41 40
f 47 40 32
f 47 32 4
f 47 4 3
f 48 20 9
f 48 9 29
f 48 29 21
f 48 21 20
f 49 32 8
f 49 8 7
f 50 11 6
f 50 6 8
f 50 8 40
f 50 40 11
f 34 33 20
f 34 20 19
f 34 19 51
f 34 51 35
f 52 29 28
f 52 28 45
f 52 45 21
f 52 21 29
f 26 37 27
f 26 25 37
f 17 39 38
f 17 38 18
f 17 16 35
f 37 25 53
f 37 53 54
f 37 54 55
f 55 46 45
f 54 46 55
f 53 12 14
f 53 14 54
f 54 14 44
f 54 44 46
f 56 28 36
f 56 36 37
f 56 37 55
f 56 55 45
f 56 45 28
f 51 19 23
f 51 23 39
f 51 39 17
f 51 17 35
f 57 24 12
f 57 12 53
f 57 53 25
f 57 25 24
f 58 7 18
f 58 18 38
f 58 38 5
f 58 5 32
f 58 32 49
f 58 49 7

