# https://github.com/mikedh/trimesh
v -0.00750000 -0.00786602 -0.01050000
v 0.00796194 -0.00769134 -0.01050000
v 0.00771792 0.00598100 -0.01050000
v -0.00765274 0.00578715 -0.01050000
v -0.00800000 -0.00700000 -0.04595879
v -0.00400000 -0.01071892 -0.06117662
v -0.00398810 -0.01160044 -0.04698855
v -0.00795469 0.00729760 -0.04604521
v -0.00400000 -0.00095711 -0.06660000
v -0.00400000 -0.00467092 -0.06653970
v -0.00686965 0.01031846 -0.02677088
v 0.00589067 0.00970837 -0.01643785
v -0.00400000 0.00998621 -0.01676119
v -0.00400000 0.00582903 -0.06342285
v -0.00400000 0.00925555 -0.05796958
v 0.00529289 -0.00075000 -0.06660000
v 0.00550000 -0.00432890 -0.06660000
v 0.00800000 0.00700000 -0.04595879
v 0.00550000 0.00950000 -0.05580000
v 0.00686965 0.01034895 -0.02761491
v 0.00600000 0.00698194 -0.06156728
v 0.00550000 0.00398037 -0.06458444
v 0.00550000 0.00853445 -0.06003036
v 0.00380685 -0.01160044 -0.04606370
v 0.00600000 -0.01050000 -0.05990877
v 0.00800000 -0.00700000 -0.04595879
v 0.00785750 0.00776934 -0.01414196
v -0.00678264 0.00919470 -0.01584104
v 0.00550000 -0.00992836 -0.06220690
v -0.00400000 0.01102391 -0.03351586
v -0.00686965 0.00988689 -0.03905234
f 26 18 27
f 26 27 3
f 26 3 2
f 1 2 3
f 1 3 4
f 5 6 7
f 5 7 1
f 8 9 10
f 8 10 5
f 8 5 1
f 8 1 4
f 8 4 11
f 4 3 12
f 4 12 13
f 14 9 8
f 14 8 15
f 10 9 16
f 10 16 17
f 10 6 5
f 18 19 20
f 21 17 16
f 21 16 22
f 22 16 9
f 22 9 14
f 22 14 23
f 22 23 21
f 2 1 7
f 2 7 24
f 24 7 6
f 24 6 25
f 24 25 2
f 26 25 17
f 26 17 21
f 26 21 18
f 26 2 25
f 28 4 13
f 28 13 11
f 28 11 4
f 29 6 10
f 29 10 17
f 29 17 25
f 29 25 6
f 30 20 19
f 30 19 15
f 30 11 13
f 13 12 20
f 13 20 30
f 23 15 19
f 23 19 18
f 23 18 21
f 23 14 15
f 27 20 12
f 27 12 3
f 27 18 20
f 31 15 8
f 31 8 11
f 31 11 30
f 31 30 15

