# https://github.com/mikedh/trimesh
v -0.00750000 -0.01300000 0.00336603
v 0.00670000 -0.00800000 0.00350000
v 0.00780000 0.00950000 0.00310000
v -0.00780000 0.00950000 0.00310000
v 0.00800000 -0.00775218 -0.02579872
v -0.00800000 -0.00764312 -0.02595731
v -0.00800000 -0.00077612 -0.02726824
v 0.00800000 -0.00077612 -0.02726824
v 0.00770711 -0.01300000 0.00320711
v 0.00129904 -0.01600000 -0.00075000
v 0.00786603 -0.01300000 -0.00910000
v -0.00800000 -0.01300000 -0.00860000
v -0.00430000 0.00929803 -0.01974851
v 0.00580000 0.00870069 -0.02161418
v -0.00800000 0.00786886 -0.01842866
v -0.00800000 0.00656818 -0.02466360
v -0.00800000 0.00486742 -0.02595832
v -0.00000000 -0.01600000 0.00150000
v 0.00800000 0.00486742 -0.02595832
v 0.00800000 0.00656818 -0.02466360
v 0.00800000 0.00786886 -0.01842866
f 15 16 17
f 15 17 7
f 15 7 6
f 15 6 12
f 15 12 1
f 15 1 4
f 1 2 3
f 1 3 4
f 5 6 7
f 5 7 8
f 9 3 2
f 9 2 1
f 10 11 9
f 10 12 6
f 10 6 5
f 10 5 11
f 13 4 3
f 13 3 14
f 15 4 13
f 18 1 12
f 18 12 10
f 18 10 9
f 18 9 1
f 7 17 19
f 7 19 8
f 3 9 11
f 3 11 5
f 3 5 8
f 3 8 19
f 3 19 20
f 3 20 21
f 21 14 3
f 16 15 13
f 16 13 14
f 20 14 21
f 20 19 17
f 20 17 16
f 20 16 14

