# https://github.com/mikedh/trimesh
v 0.01387843 0.07439905 0.05580501
v 0.02212748 0.05090728 0.06974024
v 0.03294333 0.07439905 0.04722460
v -0.01826960 0.05249491 0.07000701
v -0.00699022 0.07439904 0.05706733
v -0.02695038 0.07439903 0.05084751
v -0.03398426 0.04254320 0.06886245
v 0.03846060 0.04341308 -0.06390128
v 0.01388011 0.05631390 -0.06390128
v 0.00699017 0.07439904 -0.05807154
v 0.01387843 0.07439904 -0.05680922
v -0.05799229 0.07439902 -0.00050210
v -0.05799925 -0.00000004 -0.06390128
v -0.05959045 -0.00771802 0.03461531
v -0.05952413 0.00828224 0.04107511
v 0.04677192 -0.03774234 0.02083640
v 0.05531883 -0.02347708 0.02785962
v 0.04871152 -0.02779707 0.05118731
v 0.03986142 -0.04006485 0.04689218
v 0.03720887 -0.04710249 0.01828306
v 0.02703432 -0.04990237 0.04296631
v 0.03905540 0.03103093 0.06867086
v 0.04014459 -0.02108193 0.06153268
v 0.04932050 0.00581730 0.06462132
v 0.05446119 -0.01575402 0.05207911
v 0.02349794 -0.05533050 0.01319602
v 0.01380295 -0.05445927 0.04493843
v 0.01105758 -0.05908811 0.01163592
v 0.01388015 -0.05631389 -0.06390128
v 0.02695361 -0.05135577 -0.06390128
v 0.03294735 -0.04773243 -0.06390128
v -0.05629850 -0.02100870 0.02900885
v -0.05401386 -0.01577643 0.05337916
v -0.05423023 -0.02056684 -0.06390128
v -0.04773244 -0.03294734 -0.06390128
v -0.04914337 -0.03463455 0.02201176
v -0.04921162 -0.02783041 0.04978551
v -0.03941879 -0.04527163 0.01904147
v -0.02755576 -0.05342911 0.01389537
v -0.03067523 -0.04718374 0.04624491
v -0.04341304 -0.03846063 -0.06390128
v -0.05647578 0.07440014 -0.01374885
v -0.05631389 0.01388011 -0.06390128
v 0.04907164 0.02017323 0.06539750
v 0.04311583 0.03465461 0.06629565
v 0.00023635 -0.05670615 0.04150931
v 0.00007582 -0.06001378 0.01297264
v -0.05134963 0.07439902 -0.02745246
v -0.05135579 0.02695358 -0.06390128
v -0.00405095 -0.05001215 0.05449744
v -0.00561922 -0.04309610 0.05854531
v -0.02342031 -0.04463733 0.05528826
v 0.05799223 0.07439906 -0.00050210
v 0.05757636 0.00699106 -0.06390128
v 0.05630709 0.07439906 -0.01438056
v -0.01866354 -0.05355340 0.04231969
v -0.01168785 -0.05897352 0.01158989
v -0.04250800 -0.03752360 0.04668993
v -0.04251613 -0.03361210 0.05346650
v -0.05527186 0.01422639 0.05811694
v -0.04989130 0.02554317 0.06325562
v -0.05134963 0.07439902 0.02644824
v -0.05422373 0.07439902 0.02006224
v -0.05705032 -0.00293954 0.05340059
v -0.05460297 0.00502334 0.06053444
v -0.03882275 -0.03099109 0.05818193
v -0.04171857 -0.01855922 0.06185712
v -0.05006955 -0.01128844 0.06066818
v -0.04340787 0.07439902 -0.03895809
v -0.02056437 0.07439903 -0.05472581
v -0.00699022 0.07439903 -0.05807154
v -0.03294735 0.04773244 -0.06390128
v 0.04007412 -0.03152795 0.05720763
v 0.04899041 -0.01924947 0.05809378
v 0.02649983 -0.03967789 0.05773329
v 0.03267176 -0.04245163 0.05265136
v 0.00673379 0.05535991 0.07049378
v 0.01164545 0.05225102 0.07127891
v -0.00384766 0.05567354 0.07053289
v 0.05700679 0.00570935 0.05482243
v 0.05935888 0.00906588 0.04183059
v 0.05647560 0.07439955 0.01274524
v 0.05382811 0.01813611 0.05994364
v -0.00699106 0.05757637 -0.06390128
v 0.00436973 -0.05351552 0.05032258
v 0.01220104 -0.04942003 0.05407526
v -0.01273599 -0.05113047 0.05202704
v -0.00900681 -0.05425827 0.04806129
v 0.03521364 0.04326449 0.06768278
v 0.05345415 0.00885988 0.06211049
v 0.05030799 0.02579292 0.06242097
v 0.05522968 -0.00329761 0.05804709
v 0.02106458 -0.04897910 0.05173728
v -0.02197706 -0.05049865 0.04869308
v -0.04868548 -0.02337967 0.05581561
v 0.05922080 -0.01022848 0.03324777
v 0.05631389 -0.01388010 -0.06390128
v -0.03294986 -0.04318578 0.05145763
v -0.02595901 -0.03651567 0.05926574
v -0.04341307 0.03846060 -0.06390128
v -0.03294339 0.07439902 -0.04822880
v 0.05096892 -0.00754001 0.06122485
v -0.00699101 -0.05757637 -0.06390128
v -0.03179225 0.03932822 0.06979643
v -0.04499325 0.02888865 0.06682616
v -0.04801542 0.01287734 0.06581192
v -0.00005100 0.05255488 0.07154801
v -0.04792687 -0.00516965 0.06331342
v 0.00886647 -0.04414431 0.05801207
v -0.05393994 -0.00749790 0.05842632
v 0.02619497 0.04496583 0.07047017
v -0.04346981 0.03497902 0.06578901
v -0.03294339 0.07439903 0.04722460
v -0.04340787 0.07439902 0.03795388
v -0.05177233 0.01702761 0.06345862
v 0.04772667 0.07439906 0.03244125
v 0.04340781 0.07439905 0.03795388
v 0.04322242 -0.03416925 0.05191946
v 0.05422368 0.07439906 0.02006224
v -0.05727464 0.07359795 0.00877167
v -0.05194579 0.00046743 0.06242013
v 0.05799925 0.00000003 -0.06390128
v 0.06009789 0.00005705 0.03786334
v -0.05631389 -0.01388014 -0.06390128
v 0.03846064 -0.04341303 -0.06390128
v 0.04773246 -0.03294731 -0.06390128
v 0.05135579 -0.02695357 -0.06390128
v -0.03294731 -0.04773245 -0.06390128
v -0.02695357 -0.05135579 -0.06390128
v -0.01388011 -0.05631390 -0.06390128
v 0.00699106 -0.05757636 -0.06390128
v 0.05638030 -0.00713602 0.05368088
v 0.05134957 0.07439906 -0.02745246
v 0.05423023 0.02056684 -0.06390128
v 0.05135577 0.02695362 -0.06390128
v 0.04772667 0.07439905 -0.03344546
v -0.01599995 0.05087525 0.07111295
v -0.00955694 -0.05588220 0.04181221
v 0.02598705 -0.04859457 0.04901147
v 0.03294333 0.07439905 -0.04822880
v 0.03845595 0.07439905 -0.04390994
v 0.02056431 0.07439905 -0.05472581
v 0.05387755 -0.01167992 0.05659191
f 134 54 122
f 134 122 97
f 134 97 127
f 134 127 126
f 134 126 125
f 134 125 31
f 134 31 30
f 134 30 29
f 134 29 131
f 134 131 103
f 134 103 130
f 134 130 129
f 134 129 128
f 134 128 41
f 134 41 35
f 134 35 34
f 134 34 124
f 134 124 13
f 134 13 43
f 134 43 49
f 134 49 100
f 134 100 72
f 134 72 84
f 134 84 9
f 134 9 8
f 134 8 135
f 1 2 3
f 4 5 6
f 4 6 7
f 8 9 10
f 8 10 11
f 12 13 14
f 12 14 15
f 16 17 18
f 16 18 19
f 16 19 20
f 21 20 19
f 22 23 24
f 25 18 17
f 26 20 21
f 26 21 27
f 26 27 28
f 26 28 29
f 26 30 31
f 26 31 20
f 32 33 14
f 32 34 35
f 32 35 36
f 37 33 32
f 37 32 36
f 38 39 40
f 38 36 41
f 42 43 13
f 42 13 12
f 44 45 22
f 44 22 24
f 46 47 28
f 46 28 27
f 43 42 48
f 43 48 49
f 50 51 52
f 53 54 55
f 56 40 39
f 56 39 57
f 58 59 37
f 58 37 36
f 58 36 38
f 58 38 40
f 60 61 62
f 60 62 63
f 64 14 33
f 64 65 60
f 64 60 15
f 64 15 14
f 66 67 68
f 69 49 48
f 70 71 72
f 73 74 23
f 73 23 75
f 73 75 76
f 77 78 2
f 77 2 1
f 1 5 79
f 1 79 77
f 80 81 82
f 80 82 83
f 84 72 71
f 85 86 50
f 85 50 87
f 85 87 88
f 85 88 46
f 85 46 27
f 89 3 2
f 89 22 45
f 90 83 91
f 90 91 44
f 90 44 24
f 90 92 80
f 90 80 83
f 93 76 75
f 93 75 86
f 93 86 85
f 93 85 27
f 94 40 56
f 94 56 88
f 95 59 66
f 95 66 68
f 95 33 37
f 95 37 59
f 96 25 17
f 96 17 97
f 98 40 94
f 98 94 52
f 98 52 66
f 98 66 59
f 98 59 58
f 98 58 40
f 99 67 66
f 99 66 52
f 99 52 51
f 100 49 69
f 100 69 101
f 101 70 72
f 101 72 100
f 102 24 23
f 102 23 74
f 102 92 90
f 102 90 24
f 47 57 103
f 104 7 105
f 104 105 106
f 107 104 106
f 107 106 108
f 107 108 67
f 107 67 99
f 107 99 51
f 107 51 109
f 107 109 23
f 107 23 22
f 79 5 4
f 110 33 95
f 110 95 68
f 110 65 64
f 110 64 33
f 109 86 75
f 109 75 23
f 109 51 50
f 109 50 86
f 111 107 22
f 111 22 89
f 111 89 2
f 112 61 105
f 112 105 7
f 112 7 113
f 112 113 114
f 115 106 105
f 115 105 61
f 115 61 60
f 115 60 65
f 91 116 117
f 91 117 45
f 91 45 44
f 118 18 74
f 118 74 73
f 118 73 76
f 118 76 19
f 118 19 18
f 119 116 91
f 119 91 83
f 119 83 82
f 87 50 52
f 87 52 94
f 87 94 88
f 120 12 15
f 120 15 60
f 120 60 63
f 120 63 12
f 121 65 110
f 121 110 68
f 121 106 115
f 121 115 65
f 122 54 53
f 122 53 123
f 122 123 96
f 122 96 97
f 124 34 32
f 124 32 14
f 124 14 13
f 125 126 16
f 125 16 20
f 125 20 31
f 17 16 126
f 17 126 127
f 127 97 17
f 35 41 36
f 128 129 39
f 128 39 38
f 128 38 41
f 130 103 57
f 57 39 129
f 57 129 130
f 131 29 28
f 131 28 47
f 131 47 103
f 30 26 29
f 132 25 96
f 132 96 123
f 132 123 80
f 132 80 92
f 133 134 135
f 133 135 136
f 137 4 7
f 137 7 104
f 137 104 107
f 137 107 79
f 137 79 4
f 62 61 112
f 62 112 114
f 134 133 55
f 134 55 54
f 9 84 71
f 9 71 10
f 138 46 88
f 138 88 56
f 138 56 57
f 57 47 46
f 57 46 138
f 139 76 93
f 139 93 27
f 139 27 21
f 139 21 19
f 139 19 76
f 135 8 140
f 135 140 141
f 141 136 135
f 3 89 45
f 3 45 117
f 142 140 8
f 142 8 11
f 108 106 121
f 108 121 68
f 108 68 67
f 81 80 123
f 81 123 53
f 81 53 82
f 113 7 6
f 113 6 5
f 113 5 1
f 113 1 3
f 113 3 117
f 113 117 116
f 113 116 119
f 113 119 82
f 113 82 53
f 113 53 55
f 113 55 133
f 113 133 136
f 113 136 141
f 113 141 140
f 113 140 142
f 113 142 11
f 113 11 10
f 113 10 71
f 113 71 70
f 113 70 101
f 113 101 69
f 113 69 48
f 113 48 42
f 113 42 12
f 113 12 63
f 113 63 62
f 113 62 114
f 74 18 25
f 74 25 143
f 143 25 132
f 143 132 92
f 143 92 102
f 143 102 74
f 78 107 111
f 78 111 2
f 78 77 79
f 78 79 107

