# https://github.com/mikedh/trimesh
v 0.02279954 0.15606029 0.05296130
v 0.01012651 0.16239420 0.05297443
v -0.00401709 0.16354968 0.05302764
v -0.01761615 0.15939513 0.05295805
v -0.03416200 0.14078426 0.05358664
v -0.03192639 0.10738830 0.05358664
v -0.02579608 0.09962541 0.05358664
v -0.01783266 0.09375792 0.05358664
v -0.00371422 0.08937835 0.05358664
v 0.00617183 0.08970888 0.05358664
v 0.02395683 0.09796201 0.05358664
v 0.03311806 0.10956299 0.05358664
v 0.03636273 0.11890727 0.05358664
v -0.03741342 0.12403947 0.05299464
v 0.00261581 0.05344928 0.03714550
v 0.03370432 0.05344929 -0.01670133
v 0.02410421 0.05344928 -0.02898895
v 0.03280117 0.11455844 -0.05220980
v -0.01987174 0.05344927 -0.03206404
v -0.03108854 0.05344927 -0.02123215
v -0.02525583 0.10482480 -0.05459769
v -0.03410082 0.11648403 -0.05108478
v -0.02992466 0.11592983 -0.05500072
v 0.01760494 0.05344928 0.03284747
v 0.03935784 0.12659109 -0.02590567
v 0.03747887 0.05344934 -0.00158075
v 0.03566413 0.05344929 -0.01185062
v 0.03519194 0.11682517 -0.04867764
v 0.03627765 0.12670329 -0.04808435
v 0.02202903 0.15889689 -0.01369688
v 0.03221884 0.14543802 0.05301103
v 0.03703887 0.13210450 0.05296130
v 0.03853561 0.13424864 -0.02304229
v 0.03479359 0.14456967 -0.01929708
v -0.00708102 0.16500677 -0.01119449
v -0.01570569 0.16237548 -0.01123310
v 0.00132937 0.16561854 -0.00990506
v -0.02866395 0.15044634 0.05300669
v -0.02898563 0.15289883 -0.01594012
v -0.03598728 0.14217414 -0.01931006
v -0.03566418 0.05344926 -0.01185068
v 0.03638561 0.05344929 0.00880933
v 0.02955000 0.05344929 0.02282435
v -0.03476897 0.05344927 0.01378498
v -0.03729412 0.05344926 0.00365712
v 0.01009634 0.16432473 -0.01038993
v 0.01620320 0.15767846 -0.04742221
v 0.01084997 0.16071491 -0.04379690
v -0.00026168 0.16258027 -0.04564098
v -0.01612134 0.15538727 -0.05114381
v -0.00574376 0.15738016 -0.05261139
v -0.01558099 0.14968473 -0.05519333
v -0.03286950 0.12905581 -0.05328942
v -0.02866465 0.13363396 -0.05527746
v -0.02783417 0.12632860 -0.05608530
v -0.00521894 0.05344927 -0.03739716
v -0.01337702 0.09714917 -0.05563271
v -0.00217783 0.09563247 -0.05615294
v 0.02899159 0.14805987 -0.04495004
v 0.03516711 0.13559526 -0.04630196
v 0.03244506 0.13997386 -0.04946406
v 0.02807727 0.15387657 -0.01534116
v 0.02275847 0.15408419 -0.04583077
v -0.03652938 0.13470884 0.05299072
v -0.03860727 0.13386326 -0.02322318
v -0.03934322 0.12628394 -0.02609039
v 0.01033626 0.05344928 -0.03630947
v 0.01928384 0.09895930 -0.05470609
v 0.02568146 0.10391074 -0.05388713
v 0.02806499 0.11665559 -0.05586775
v 0.02702877 0.14366814 -0.05313098
v 0.03175158 0.12900768 -0.05420890
v 0.02334663 0.14125144 -0.05566359
v 0.03746958 0.12497699 0.05295836
v 0.02188420 0.15116510 -0.05160899
v 0.00966386 0.15732554 -0.05183606
v -0.01239899 0.16016662 -0.04397061
v -0.03208475 0.14254650 -0.04722381
v -0.02729199 0.14814918 -0.04918486
v -0.02701212 0.14353278 -0.05321327
v -0.03213774 0.13723746 -0.05167785
v -0.03606547 0.12951320 -0.04801667
v 0.00921452 0.09528475 -0.05558999
v -0.02343781 0.14096062 -0.05569761
v -0.00917352 0.15973276 -0.04862801
v -0.00034769 0.15969776 -0.05121018
v -0.02069358 0.15542544 -0.04644860
v 0.01614813 0.15086238 -0.05454305
v 0.00733259 0.15194412 -0.05559218
v -0.03514591 0.11337459 0.05306487
v -0.02604936 0.05344927 0.02671224
v 0.03434991 0.12339813 -0.05204428
v -0.02201385 0.10764698 -0.05624016
v -0.00363982 0.15335058 -0.05531766
v 0.02731848 0.14819904 -0.04907793
v -0.02331994 0.15799195 -0.01380168
v 0.03462406 0.13056070 -0.05087458
v -0.01282560 0.05344927 0.03497531
v -0.03573517 0.11949787 -0.04861703
v 0.02055706 0.10591788 -0.05627344
v -0.02672592 0.15062481 -0.04532721
v 0.02780384 0.12827009 -0.05603001
v -0.03747698 0.05344931 -0.00156980
v -0.02356439 0.14955011 -0.05175377
v 0.00932681 0.16030376 -0.04726598
v -0.00505786 0.14873278 -0.05627884
v -0.03486080 0.13691819 -0.04560327
f 27 26 42
f 27 42 43
f 27 43 24
f 27 24 15
f 27 15 98
f 27 98 91
f 27 91 44
f 27 44 45
f 27 45 103
f 27 103 41
f 27 41 20
f 27 20 19
f 27 19 56
f 27 56 67
f 27 67 17
f 27 17 16
f 1 2 3
f 1 3 4
f 1 4 5
f 1 5 6
f 1 6 7
f 1 7 8
f 1 8 9
f 1 9 10
f 1 10 11
f 1 11 12
f 1 12 13
f 14 6 5
f 11 10 15
f 16 17 18
f 19 20 21
f 22 23 21
f 22 21 20
f 24 11 15
f 25 26 27
f 25 27 28
f 25 28 29
f 1 30 2
f 1 13 31
f 32 33 34
f 32 34 31
f 32 31 13
f 3 35 36
f 3 36 4
f 3 2 37
f 38 39 40
f 38 40 5
f 38 5 4
f 41 22 20
f 42 13 43
f 44 14 45
f 46 2 30
f 46 30 47
f 46 47 48
f 48 49 37
f 48 37 46
f 46 37 2
f 12 11 24
f 12 24 43
f 12 43 13
f 50 51 52
f 23 22 53
f 23 53 54
f 23 54 55
f 56 19 21
f 56 21 57
f 57 58 56
f 59 34 60
f 59 60 61
f 62 34 59
f 62 59 63
f 62 63 30
f 62 30 1
f 62 1 31
f 62 31 34
f 64 5 40
f 64 65 66
f 64 66 14
f 64 14 5
f 17 67 68
f 17 68 69
f 69 70 18
f 69 18 17
f 71 61 72
f 71 72 73
f 33 32 74
f 33 74 25
f 47 30 63
f 47 63 75
f 47 75 76
f 35 49 77
f 35 77 36
f 35 3 37
f 35 37 49
f 78 79 80
f 78 80 81
f 81 53 82
f 83 68 67
f 67 56 58
f 67 58 83
f 84 80 52
f 85 77 49
f 85 49 86
f 85 86 51
f 85 51 50
f 85 50 87
f 85 87 77
f 88 89 76
f 88 76 75
f 88 75 71
f 88 71 73
f 88 73 89
f 60 34 33
f 60 33 25
f 60 25 29
f 90 14 44
f 44 91 6
f 44 6 90
f 90 6 14
f 92 18 70
f 92 70 72
f 93 58 57
f 93 57 21
f 93 21 23
f 93 23 55
f 65 82 66
f 65 64 40
f 94 51 86
f 94 86 76
f 94 76 89
f 94 52 51
f 95 59 61
f 95 61 71
f 95 71 75
f 95 75 63
f 95 63 59
f 96 39 38
f 96 38 4
f 96 4 36
f 96 36 77
f 96 77 87
f 97 29 92
f 97 92 72
f 97 72 61
f 97 61 60
f 97 60 29
f 9 8 98
f 9 98 15
f 9 15 10
f 99 66 82
f 99 82 53
f 99 53 22
f 99 22 41
f 100 68 83
f 100 83 58
f 100 70 69
f 100 69 68
f 101 87 79
f 101 79 78
f 101 78 40
f 101 40 39
f 101 39 96
f 101 96 87
f 28 18 92
f 28 92 29
f 28 16 18
f 7 98 8
f 7 6 91
f 7 91 98
f 74 26 25
f 74 32 13
f 74 13 42
f 74 42 26
f 102 72 70
f 102 70 100
f 102 73 72
f 66 99 41
f 66 41 103
f 103 45 14
f 103 14 66
f 104 80 79
f 104 79 87
f 104 87 50
f 104 50 52
f 104 52 80
f 27 16 28
f 105 49 48
f 105 48 47
f 105 47 76
f 105 76 86
f 105 86 49
f 106 84 52
f 106 52 94
f 106 94 89
f 55 106 89
f 55 89 73
f 55 73 102
f 55 102 100
f 55 100 58
f 55 58 93
f 106 55 84
f 54 53 81
f 54 81 80
f 54 80 84
f 54 84 55
f 107 82 65
f 107 65 40
f 107 40 78
f 107 78 81
f 107 81 82

