# https://github.com/mikedh/trimesh
v -0.03120291 -0.00113893 -0.09660505
v -0.03120291 0.00094806 -0.09660655
v -0.03778872 -0.00113893 -0.09660505
v -0.03103260 -0.00344988 -0.09660505
v -0.03000000 -0.00544396 -0.09660655
v -0.03120291 0.00094806 -0.10925055
v -0.04199823 0.00094806 -0.09660655
v -0.03000000 -0.00400066 -0.09690095
v -0.03000000 -0.00247108 -0.09814162
v -0.03000000 -0.00182243 -0.09867183
v -0.03000000 -0.00071755 -0.10124779
v -0.03000000 -0.00067608 -0.10220758
v -0.03000000 -0.00065783 -0.10266119
v -0.04199689 -0.00475051 -0.09660505
v -0.03103260 -0.00969923 -0.09660505
v -0.03000000 -0.00650405 -0.09660655
v -0.03000000 -0.00093819 -0.10404905
v -0.03000000 -0.00094151 -0.10405807
v -0.03000000 -0.00232675 -0.10625101
v -0.03000000 -0.00243293 -0.10641774
v -0.03120291 0.00031765 -0.10999555
v -0.03170312 0.00094806 -0.11002559
v -0.04219804 -0.00092824 -0.09681533
v -0.04219804 -0.00138280 -0.09672822
v -0.04219670 -0.00150556 -0.09670719
v -0.04199823 0.00094806 -0.10924904
v -0.04370000 -0.00475051 -0.10316887
v -0.04370000 -0.00630331 -0.10020990
v -0.04199689 -0.01600000 -0.09660505
v -0.03120291 -0.01600000 -0.09660505
v -0.03017434 -0.00820283 -0.09660655
v -0.03000000 -0.00800541 -0.09660805
v -0.03000000 -0.00486000 -0.10782663
v -0.03170312 0.00054990 -0.11049572
v -0.03120291 -0.00625354 -0.11194967
v -0.03779141 0.00055322 -0.11049572
v -0.04149802 0.00094806 -0.11002559
v -0.04219670 -0.00650405 -0.09670719
v -0.04149802 0.00055322 -0.11049572
v -0.04199823 0.00031931 -0.10999555
v -0.04370000 -0.00539419 -0.10386581
v -0.04370000 -0.00724063 -0.10034358
v -0.04370000 -0.00801205 -0.10089181
v -0.04370000 -0.00844504 -0.10173595
v -0.04199689 -0.01600000 -0.10220157
v -0.03120291 -0.01600000 -0.10220307
v -0.03000000 -0.01234197 -0.10174346
v -0.03000000 -0.01145774 -0.09908038
v -0.03000000 -0.00944043 -0.09713076
v -0.03000000 -0.00559327 -0.10785817
v -0.03170312 -0.00359421 -0.11157717
v -0.03778872 -0.00625354 -0.11194967
v -0.03000000 -0.00765537 -0.10794379
v -0.03000000 -0.00765703 -0.10794379
v -0.03120291 -0.00997959 -0.11120467
v -0.04149668 -0.00359421 -0.11157717
v -0.04199823 -0.00625686 -0.11194667
v -0.04370000 -0.00628506 -0.10418874
v -0.04370000 -0.00844007 -0.10268372
v -0.04199689 -0.01525346 -0.10592808
v -0.03778872 -0.01600000 -0.10220307
v -0.03779007 -0.01525346 -0.10592808
v -0.03120291 -0.01525180 -0.10592808
v -0.03000000 -0.01188741 -0.10450567
v -0.03778872 -0.00997959 -0.11120467
v -0.04199823 -0.00997793 -0.11120467
v -0.04149668 -0.00578737 -0.11188208
v -0.03000000 -0.01019692 -0.10674518
v -0.03120291 -0.01313993 -0.10909283
v -0.04370000 -0.00722404 -0.10406558
v -0.04370000 -0.00800044 -0.10352335
v -0.04199823 -0.01406730 -0.10770347
v -0.04199689 -0.01406896 -0.10770347
v -0.03779007 -0.01406896 -0.10770347
v -0.04199823 -0.01313993 -0.10909283
f 1 2 7
f 1 7 3
f 1 3 14
f 1 14 29
f 1 29 30
f 1 30 15
f 1 15 4
f 1 4 5
f 1 5 2
f 2 6 22
f 2 22 37
f 2 37 26
f 2 26 7
f 2 5 8
f 2 8 9
f 2 9 10
f 2 10 11
f 2 11 12
f 2 12 13
f 2 13 6
f 3 7 14
f 4 15 16
f 4 16 5
f 5 16 32
f 5 32 49
f 5 49 48
f 5 48 47
f 5 47 64
f 5 64 68
f 5 68 54
f 5 54 53
f 5 53 50
f 5 50 33
f 5 33 20
f 5 20 19
f 5 19 18
f 5 18 17
f 5 17 13
f 5 13 12
f 5 12 11
f 5 11 10
f 5 10 9
f 5 9 8
f 6 13 17
f 6 17 18
f 6 18 19
f 6 19 20
f 6 20 21
f 6 21 22
f 7 23 24
f 7 24 25
f 7 25 14
f 7 26 27
f 7 27 28
f 7 28 23
f 14 25 38
f 14 38 29
f 15 30 16
f 16 30 31
f 16 31 32
f 20 33 21
f 21 34 22
f 21 33 35
f 21 35 34
f 22 34 36
f 22 36 39
f 22 39 37
f 23 28 24
f 24 28 25
f 25 28 38
f 26 37 39
f 26 39 40
f 26 40 27
f 27 40 41
f 27 41 58
f 27 58 70
f 27 70 71
f 27 71 59
f 27 59 44
f 27 44 43
f 27 43 42
f 27 42 28
f 28 42 29
f 28 29 38
f 29 42 43
f 29 43 44
f 29 44 45
f 29 45 61
f 29 61 46
f 29 46 30
f 30 46 47
f 30 47 48
f 30 48 49
f 30 49 32
f 30 32 31
f 33 50 35
f 34 35 51
f 34 51 36
f 35 52 56
f 35 56 51
f 35 50 53
f 35 53 54
f 35 54 55
f 35 55 65
f 35 65 52
f 36 51 56
f 36 56 39
f 39 56 57
f 39 57 40
f 40 57 58
f 40 58 41
f 44 59 45
f 45 60 61
f 45 59 60
f 46 62 63
f 46 63 64
f 46 64 47
f 46 61 60
f 46 60 62
f 52 65 66
f 52 66 57
f 52 57 67
f 52 67 56
f 54 68 55
f 55 68 69
f 55 69 75
f 55 75 65
f 56 67 57
f 57 66 70
f 57 70 58
f 59 71 60
f 60 72 73
f 60 73 74
f 60 74 62
f 60 71 72
f 62 74 63
f 63 74 69
f 63 69 64
f 64 69 68
f 65 75 66
f 66 75 70
f 69 74 73
f 69 73 75
f 70 75 71
f 71 75 72
f 72 75 73

