# https://github.com/mikedh/trimesh
v 0.00000850 0.02378352 -0.01289933
v 0.00000850 0.01899900 -0.01289933
v 0.00131794 0.02374375 -0.01289933
v 0.00116315 0.02349584 -0.01500219
v -0.00289067 0.02334736 -0.01500117
v -0.00016302 0.02376231 -0.01299317
v -0.00382778 0.02342159 -0.01299317
v -0.00568525 0.02307161 -0.01299317
v -0.00616217 0.02292180 -0.01299317
v -0.00648430 0.02281044 -0.01299317
v -0.00982692 0.02162658 -0.01299317
v -0.01027874 0.02141844 -0.01299317
v -0.01091045 0.02110557 -0.01299317
v -0.01104014 0.02104061 -0.01299317
v -0.01138737 0.02083645 -0.01299317
v -0.01517763 0.01828444 -0.01299317
v -0.01575495 0.01778597 -0.01299317
v -0.01586791 0.01768257 -0.01299317
v -0.01598923 0.01756590 -0.01299317
v -0.01609800 0.01745587 -0.01299317
v -0.01880473 0.01447565 -0.01299317
v -0.01891768 0.01434441 -0.01299317
v -0.01935695 0.01376772 -0.01299317
v -0.01955776 0.01350258 -0.01299317
v -0.01981713 0.01307437 -0.01299317
v -0.02133156 0.01023999 -0.01299317
v 0.01588909 0.01024396 -0.01289933
v 0.00147691 0.02347993 -0.01500219
v 0.00492830 0.02321611 -0.01289933
v 0.00518350 0.02294699 -0.01500219
v 0.00115478 0.02326914 -0.01614670
v -0.00286557 0.02311801 -0.01614670
v -0.00440928 0.02310740 -0.01500117
v 0.00000850 0.02322671 -0.01614670
v -0.00685663 0.02250420 -0.01500117
v -0.01001518 0.02128587 -0.01500117
v -0.01062179 0.02099023 -0.01500117
v -0.01406900 0.01885317 -0.01500117
v -0.01498937 0.01812668 -0.01500117
v -0.01549976 0.01765075 -0.01500117
v -0.01709367 0.01615799 -0.01500168
v -0.01811445 0.01493303 -0.01500168
v -0.01902227 0.01383268 -0.01500168
v -0.01961214 0.01298025 -0.01500168
v -0.02022712 0.01186001 -0.01500168
v -0.02110984 0.01024264 -0.01500168
v -0.02068730 0.01024131 -0.01810930
v -0.02101780 0.01023999 -0.01434476
v -0.01926491 0.01023999 -0.01299317
v 0.02140713 0.01024396 -0.01289933
v 0.00513329 0.02272427 -0.01614670
v 0.00568970 0.02308884 -0.01289933
v 0.00726688 0.02237428 -0.01500219
v 0.00499105 0.02209058 -0.01711984
v 0.00112131 0.02261954 -0.01711984
v 0.00000432 0.02259700 -0.01709230
v -0.00279027 0.02251083 -0.01706578
v -0.00573127 0.02251083 -0.01614670
v -0.00679388 0.02228280 -0.01614670
v -0.01051720 0.02078607 -0.01614670
v -0.01393513 0.01867022 -0.01614670
v -0.01693052 0.01600023 -0.01614721
v -0.01700163 0.01606652 -0.01565962
v -0.01782579 0.01507753 -0.01565962
v -0.01925654 0.01327058 -0.01565962
v -0.01950756 0.01290998 -0.01565962
v -0.01942388 0.01285563 -0.01614772
v -0.01915196 0.01220337 -0.01810930
v 0.00989412 0.01825395 -0.01810981
v 0.00989412 0.01630780 -0.01810981
v 0.01766289 0.01024264 -0.01810981
v -0.01778813 0.01024131 -0.01810930
v 0.00000850 0.01023999 -0.01799862
v 0.00989412 0.01023999 -0.01300134
v 0.02056625 0.01024264 -0.01810981
v 0.02111429 0.01024396 -0.01500066
v 0.02080889 0.01097311 -0.01500066
v 0.02087583 0.01138541 -0.01289933
v 0.00896120 0.02150461 -0.01614670
v 0.00871437 0.02090538 -0.01711984
v 0.00643018 0.02165176 -0.01709230
v 0.00704097 0.02270571 -0.01289933
v 0.00754718 0.02254530 -0.01289933
v 0.00904906 0.02171407 -0.01500219
v 0.00477770 0.02114136 -0.01777013
v 0.00107529 0.02164779 -0.01777013
v 0.00000432 0.02199512 -0.01751205
v 0.00000432 0.02257844 -0.01711984
v -0.00181551 0.02251083 -0.01711984
v -0.00660144 0.02166369 -0.01711933
v -0.00278608 0.02247503 -0.01711933
v -0.01022436 0.02020673 -0.01711984
v -0.01354188 0.01814922 -0.01711984
v -0.01690542 0.01444649 -0.01810930
v -0.01763753 0.01381810 -0.01810930
v -0.01659165 0.01467451 -0.01810930
v -0.01544537 0.01549248 -0.01810930
v -0.01501447 0.01577088 -0.01810930
v -0.01291017 0.01693486 -0.01810930
v -0.01101922 0.01782442 -0.01810930
v -0.00861371 0.01874314 -0.01810930
v -0.00830413 0.01885450 -0.01810930
v -0.00583586 0.01956243 -0.01810930
v -0.00312495 0.02008211 -0.01810930
v -0.00164817 0.02025313 -0.01810930
v -0.00072780 0.02030616 -0.01810930
v -0.00056882 0.02030616 -0.01810930
v 0.00000432 0.02028760 -0.01810930
v 0.00500360 0.01977985 -0.01810879
v 0.00821654 0.01890090 -0.01810879
v 0.00833786 0.02000655 -0.01777013
v 0.01092327 0.01785623 -0.01810981
v 0.00989412 0.01023999 -0.01799862
v 0.02007259 0.01089754 -0.01810981
v 0.01843266 0.01424763 -0.01614619
v 0.02061227 0.01133636 -0.01500066
v 0.02059972 0.01184278 -0.01289933
v 0.00924986 0.02162790 -0.01500219
v 0.00989412 0.02124079 -0.01522558
v 0.00989412 0.02101940 -0.01614670
v 0.00989412 0.01919388 -0.01777166
v 0.00989412 0.02029025 -0.01711984
v 0.00989412 0.02156029 -0.01289933
v 0.01056767 0.02127393 -0.01289933
v 0.00212117 0.02022397 -0.01810879
v 0.00000432 0.02029158 -0.01810879
v 0.00000432 0.02160669 -0.01777115
v -0.00266476 0.02150858 -0.01777115
v -0.00271078 0.02189569 -0.01751154
v -0.00643410 0.02110292 -0.01751205
v -0.00978927 0.01933706 -0.01777115
v -0.00858024 0.01982360 -0.01777115
v -0.00631696 0.02073171 -0.01777115
v 0.01287696 0.01691232 -0.01810981
v 0.01960822 0.01146495 -0.01810981
v 0.01714832 0.01610629 -0.01500066
v 0.01861255 0.01438683 -0.01500066
v 0.01890958 0.01229617 -0.01810981
v 0.01850378 0.01274957 -0.01810981
v 0.01571338 0.01720000 -0.01614619
v 0.01957057 0.01351451 -0.01289933
v 0.01104877 0.02105652 -0.01289933
v 0.00989412 0.02129249 -0.01500219
v 0.01252136 0.01964330 -0.01614619
v 0.01165120 0.01827649 -0.01777166
v 0.01216995 0.01909445 -0.01711984
v 0.01186037 0.01860261 -0.01751154
v -0.00403277 0.02145953 -0.01761304
v 0.01516952 0.01556937 -0.01810981
v 0.01586399 0.01736572 -0.01500066
v 0.01720689 0.01640722 -0.01289933
v 0.01928191 0.01389101 -0.01289933
v 0.01757504 0.01368022 -0.01810981
v 0.01527411 0.01672009 -0.01711984
v 0.01361744 0.01880677 -0.01614619
v 0.01361744 0.01909445 -0.01500066
v 0.01142110 0.02083512 -0.01289933
v 0.01264687 0.01983288 -0.01500117
v 0.01361744 0.01798881 -0.01711984
v 0.01715669 0.01406336 -0.01810981
v 0.01588909 0.01769052 -0.01289933
v 0.01567154 0.01788010 -0.01289933
v 0.01576777 0.01779923 -0.01289933
v 0.01327440 0.01968175 -0.01289933
v 0.01361744 0.01943119 -0.01289933
f 1 2 27
f 1 27 50
f 1 50 78
f 1 78 117
f 1 117 141
f 1 141 152
f 1 152 151
f 1 151 161
f 1 161 163
f 1 163 162
f 1 162 165
f 1 165 164
f 1 164 157
f 1 157 142
f 1 142 124
f 1 124 123
f 1 123 83
f 1 83 82
f 1 82 52
f 1 52 29
f 1 29 3
f 1 3 4
f 1 4 5
f 1 5 6
f 1 6 7
f 1 7 8
f 1 8 9
f 1 9 10
f 1 10 11
f 1 11 12
f 1 12 13
f 1 13 14
f 1 14 15
f 1 15 16
f 1 16 17
f 1 17 18
f 1 18 19
f 1 19 20
f 1 20 21
f 1 21 22
f 1 22 23
f 1 23 24
f 1 24 25
f 1 25 26
f 1 26 2
f 2 26 27
f 3 28 4
f 3 29 30
f 3 30 28
f 4 28 31
f 4 31 5
f 5 32 33
f 5 33 7
f 5 7 6
f 5 31 34
f 5 34 32
f 7 33 8
f 8 33 35
f 8 35 9
f 9 35 10
f 10 35 11
f 11 35 36
f 11 36 12
f 12 37 13
f 12 36 37
f 13 37 14
f 14 37 15
f 15 37 38
f 15 38 16
f 16 38 39
f 16 39 17
f 17 39 18
f 18 39 40
f 18 40 41
f 18 41 19
f 19 41 20
f 20 41 21
f 21 41 22
f 22 41 42
f 22 42 43
f 22 43 23
f 23 43 24
f 24 43 44
f 24 44 25
f 25 44 45
f 25 45 46
f 25 46 26
f 26 46 47
f 26 47 48
f 26 48 73
f 26 73 113
f 26 113 74
f 26 74 49
f 26 49 50
f 26 50 27
f 28 30 51
f 28 51 31
f 29 52 30
f 30 52 53
f 30 53 51
f 31 51 54
f 31 54 55
f 31 55 56
f 31 56 34
f 32 57 58
f 32 58 33
f 32 34 57
f 33 58 59
f 33 59 35
f 34 56 57
f 35 59 36
f 36 59 60
f 36 60 37
f 37 60 61
f 37 61 38
f 38 61 39
f 39 61 62
f 39 62 40
f 40 62 63
f 40 63 41
f 41 63 64
f 41 64 42
f 42 64 43
f 43 64 65
f 43 65 66
f 43 66 44
f 44 66 47
f 44 47 45
f 45 47 46
f 47 66 67
f 47 67 68
f 47 68 69
f 47 69 70
f 47 70 71
f 47 71 75
f 47 75 72
f 47 72 113
f 47 113 73
f 47 73 48
f 49 74 50
f 50 75 76
f 50 76 77
f 50 77 78
f 50 74 75
f 51 53 79
f 51 79 80
f 51 80 81
f 51 81 54
f 52 82 53
f 53 82 83
f 53 83 84
f 53 84 79
f 54 81 80
f 54 80 85
f 54 85 86
f 54 86 55
f 55 86 87
f 55 87 88
f 55 88 56
f 56 88 89
f 56 89 57
f 57 90 58
f 57 89 91
f 57 91 90
f 58 90 59
f 59 90 60
f 60 92 61
f 60 90 92
f 61 92 93
f 61 93 94
f 61 94 95
f 61 95 62
f 62 95 68
f 62 68 67
f 62 67 64
f 62 64 63
f 64 67 65
f 65 67 66
f 68 95 69
f 69 95 94
f 69 94 96
f 69 96 97
f 69 97 98
f 69 98 99
f 69 99 100
f 69 100 101
f 69 101 102
f 69 102 103
f 69 103 104
f 69 104 105
f 69 105 106
f 69 106 107
f 69 107 108
f 69 108 109
f 69 109 110
f 69 110 111
f 69 111 112
f 69 112 134
f 69 134 149
f 69 149 160
f 69 160 153
f 69 153 139
f 69 139 138
f 69 138 135
f 69 135 114
f 69 114 75
f 69 75 71
f 69 71 70
f 72 75 113
f 74 113 75
f 75 114 115
f 75 115 116
f 75 116 77
f 75 77 76
f 77 116 78
f 78 116 117
f 79 84 118
f 79 118 119
f 79 119 120
f 79 120 80
f 80 121 111
f 80 111 85
f 80 120 122
f 80 122 121
f 83 123 84
f 84 123 124
f 84 124 118
f 85 111 110
f 85 110 109
f 85 109 125
f 85 125 86
f 86 125 126
f 86 126 107
f 86 107 106
f 86 106 127
f 86 127 128
f 86 128 87
f 87 128 129
f 87 129 88
f 88 129 89
f 89 129 91
f 90 91 129
f 90 129 130
f 90 130 92
f 92 98 93
f 92 130 131
f 92 131 98
f 93 98 97
f 93 97 96
f 93 96 94
f 98 131 99
f 99 131 100
f 100 131 132
f 100 132 133
f 100 133 101
f 101 133 102
f 102 133 103
f 103 133 128
f 103 128 104
f 104 128 105
f 105 128 106
f 106 128 127
f 107 126 125
f 107 125 108
f 108 125 109
f 111 121 134
f 111 134 112
f 114 135 115
f 115 136 137
f 115 137 116
f 115 135 138
f 115 138 139
f 115 139 140
f 115 140 136
f 116 137 141
f 116 141 117
f 118 124 142
f 118 142 143
f 118 143 119
f 119 143 144
f 119 144 120
f 120 144 122
f 121 122 145
f 121 145 134
f 122 144 146
f 122 146 147
f 122 147 145
f 128 133 148
f 128 148 129
f 129 148 130
f 130 148 133
f 130 133 132
f 130 132 131
f 134 145 149
f 136 150 151
f 136 151 137
f 136 140 150
f 137 151 152
f 137 152 141
f 139 153 140
f 140 154 155
f 140 155 156
f 140 156 150
f 140 153 154
f 142 157 158
f 142 158 143
f 143 158 144
f 144 158 156
f 144 156 155
f 144 155 146
f 145 147 149
f 146 155 159
f 146 159 160
f 146 160 149
f 146 149 147
f 150 161 151
f 150 156 162
f 150 162 163
f 150 163 161
f 153 160 154
f 154 159 155
f 154 160 159
f 156 158 162
f 157 164 158
f 158 164 165
f 158 165 162

