# https://github.com/mikedh/trimesh
v -0.04948392 0.00351024 -0.06314009
v -0.04917067 0.00551669 -0.06314009
v -0.04919354 0.00587611 -0.06466104
v -0.04801708 0.00351024 -0.06314009
v -0.04927890 0.00351024 -0.06034598
v -0.04905187 0.00553994 -0.06144254
v -0.04880637 0.00735505 -0.06387816
v -0.04914515 0.00608860 -0.06466104
v -0.04765279 0.00587611 -0.06466104
v -0.04900700 0.00587506 -0.06188538
v -0.04726386 0.00587611 -0.06464786
v -0.04049545 0.01023998 -0.05903590
v -0.04344497 0.00351130 -0.03922930
v -0.04550840 0.00351024 -0.04610652
v -0.04908971 0.00351024 -0.05865633
v -0.04839457 0.00539300 -0.05497389
v -0.04833209 0.00587611 -0.05554062
v -0.04812619 0.00744279 -0.05737788
v -0.04794492 0.00881601 -0.05898582
v -0.04866647 0.00795022 -0.06465841
v -0.04884069 0.00732862 -0.06465841
v -0.04891285 0.00704636 -0.06465841
v -0.04895508 0.00687405 -0.06466104
v -0.04718731 0.00767113 -0.06466104
v -0.04702628 0.00687511 -0.06464786
v -0.04049545 0.01323908 -0.05903590
v -0.04049545 0.01023998 -0.03917658
v -0.04344497 0.00351130 -0.03807738
v -0.04550840 0.00351024 -0.04091895
v -0.04832681 0.00351024 -0.05268324
v -0.04752256 0.00502089 -0.04922749
v -0.04745040 0.00587611 -0.05010000
v -0.04724978 0.00822507 -0.05249872
v -0.04786309 0.00908347 -0.05928368
v -0.04817459 0.00892913 -0.06250746
v -0.04831449 0.00899784 -0.06465841
v -0.04777070 0.01023892 -0.06465841
v -0.04829338 0.00767113 -0.06466104
v -0.04705268 0.01023892 -0.06465841
v -0.04705268 0.00814790 -0.06465841
v -0.04702628 0.00767113 -0.06464786
v -0.04049545 0.01430890 -0.05903327
v -0.04049545 0.01165760 -0.03917658
v -0.04405124 0.00587611 -0.03773207
v -0.04456776 0.00351130 -0.03807738
v -0.04495492 0.00351130 -0.03899997
v -0.04625458 0.00351024 -0.04309625
v -0.04738441 0.00351024 -0.04760638
v -0.04749264 0.00468472 -0.04886373
v -0.04744601 0.00498706 -0.04886373
v -0.04631882 0.00746816 -0.04668116
v -0.04646400 0.00758656 -0.04758529
v -0.04554448 0.01004863 -0.04877938
v -0.04569758 0.01023892 -0.05004464
v -0.04630914 0.01100006 -0.05513468
v -0.04645872 0.01091760 -0.05584376
v -0.04712747 0.01054232 -0.05903327
v -0.04743809 0.00997886 -0.05928368
v -0.04750936 0.01023786 -0.06058058
v -0.04763255 0.01023892 -0.06250746
v -0.04659863 0.01141234 -0.05903327
v -0.04573806 0.01252445 -0.05903327
v -0.04472702 0.01352345 -0.05903327
v -0.04367815 0.01430996 -0.05903327
v -0.04364647 0.01430996 -0.05903327
v -0.04049545 0.01430890 -0.04990757
v -0.04049545 0.01191871 -0.03996737
v -0.04321354 0.01121149 -0.04443268
v -0.04109555 0.01114383 -0.03917658
v -0.04405124 0.00611503 -0.03782696
v -0.04457303 0.00390772 -0.03807738
v -0.04508779 0.00405572 -0.03946653
v -0.04550840 0.00421006 -0.04091895
v -0.04641737 0.00454412 -0.04407156
v -0.04636721 0.00605265 -0.04541590
v -0.04516699 0.00669539 -0.04153840
v -0.04456248 0.00908241 -0.04321750
v -0.04383038 0.01023998 -0.04387649
v -0.04541601 0.01023892 -0.04890854
v -0.04554448 0.01023998 -0.04942519
v -0.04556384 0.01211322 -0.05584376
v -0.04580670 0.01182040 -0.05584376
v -0.04556471 0.01221365 -0.05618907
v -0.04463111 0.01330251 -0.05705103
v -0.04364647 0.01413764 -0.05762566
v -0.04349512 0.01426450 -0.05771265
v -0.04364647 0.01430996 -0.05885402
v -0.04116683 0.01430890 -0.05125455
v -0.04049545 0.01335642 -0.04521029
v -0.04049545 0.01246419 -0.04170710
v -0.04233714 0.01196523 -0.04473318
v -0.04364471 0.01260902 -0.05050066
v -0.04403012 0.01226017 -0.05030824
v -0.04220779 0.01027803 -0.03944281
v -0.04195349 0.01041018 -0.03917921
v -0.04206700 0.01030340 -0.03917921
v -0.04209691 0.01027381 -0.03917921
v -0.04212507 0.01023998 -0.03917921
v -0.04362711 0.00839316 -0.03940590
v -0.04404948 0.00870607 -0.04112719
v -0.04222890 0.01023998 -0.03942172
v -0.04404948 0.00989112 -0.04367353
v -0.04547584 0.01221577 -0.05584376
v -0.04452376 0.01311645 -0.05584376
v -0.04297596 0.01321476 -0.05084070
v -0.04181798 0.01430890 -0.05286248
v -0.04342209 0.01430890 -0.05773638
v -0.04351008 0.01430890 -0.05811595
v -0.04171415 0.01406470 -0.05120710
v -0.04106388 0.01305619 -0.04516284
v -0.04109555 0.01302976 -0.04515230
v -0.04224474 0.01021038 -0.03940590
f 1 2 3
f 1 3 9
f 1 9 4
f 1 4 14
f 1 14 29
f 1 29 47
f 1 47 48
f 1 48 30
f 1 30 15
f 1 15 5
f 1 5 6
f 1 6 2
f 2 6 3
f 3 7 8
f 3 8 23
f 3 23 38
f 3 38 24
f 3 24 9
f 3 6 10
f 3 10 7
f 4 9 11
f 4 11 12
f 4 12 13
f 4 13 14
f 5 15 16
f 5 16 6
f 6 16 17
f 6 17 18
f 6 18 19
f 6 19 10
f 7 20 21
f 7 21 22
f 7 22 23
f 7 23 8
f 7 10 19
f 7 19 20
f 9 24 11
f 11 24 25
f 11 25 12
f 12 25 41
f 12 41 26
f 12 26 42
f 12 42 66
f 12 66 89
f 12 89 90
f 12 90 67
f 12 67 43
f 12 43 27
f 12 27 28
f 12 28 13
f 13 28 29
f 13 29 14
f 15 30 16
f 16 30 31
f 16 31 32
f 16 32 33
f 16 33 17
f 17 33 18
f 18 33 19
f 19 34 35
f 19 35 20
f 19 33 34
f 20 35 36
f 20 36 23
f 20 23 21
f 21 23 22
f 23 36 37
f 23 37 38
f 24 38 37
f 24 37 39
f 24 39 40
f 24 40 25
f 25 40 39
f 25 39 41
f 26 41 42
f 27 43 44
f 27 44 28
f 28 44 45
f 28 45 29
f 29 45 46
f 29 46 47
f 30 48 49
f 30 49 31
f 31 49 50
f 31 50 51
f 31 51 52
f 31 52 32
f 32 52 33
f 33 52 53
f 33 53 54
f 33 54 55
f 33 55 56
f 33 56 57
f 33 57 58
f 33 58 34
f 34 58 59
f 34 59 35
f 35 59 36
f 36 59 37
f 37 59 60
f 37 60 61
f 37 61 62
f 37 62 63
f 37 63 64
f 37 64 65
f 37 65 39
f 39 65 42
f 39 42 41
f 42 65 87
f 42 87 66
f 43 67 68
f 43 68 69
f 43 69 70
f 43 70 44
f 44 70 71
f 44 71 45
f 45 71 46
f 46 71 72
f 46 72 47
f 47 72 73
f 47 73 74
f 47 74 48
f 48 74 49
f 49 74 50
f 50 74 75
f 50 75 51
f 51 53 52
f 51 75 76
f 51 76 77
f 51 77 53
f 53 77 78
f 53 78 68
f 53 68 79
f 53 79 80
f 53 80 54
f 54 80 81
f 54 81 82
f 54 82 55
f 55 82 61
f 55 61 56
f 56 61 57
f 57 61 59
f 57 59 58
f 59 61 60
f 61 82 83
f 61 83 62
f 62 83 84
f 62 84 63
f 63 84 85
f 63 85 86
f 63 86 87
f 63 87 64
f 64 87 65
f 66 87 88
f 66 88 89
f 67 90 68
f 68 91 92
f 68 92 93
f 68 93 79
f 68 78 94
f 68 94 95
f 68 95 69
f 68 90 91
f 69 95 70
f 70 95 96
f 70 96 97
f 70 97 98
f 70 98 99
f 70 99 76
f 70 76 72
f 70 72 71
f 72 76 73
f 73 76 74
f 74 76 75
f 76 99 100
f 76 100 77
f 77 100 101
f 77 101 94
f 77 94 102
f 77 102 78
f 78 102 94
f 79 93 103
f 79 103 81
f 79 81 80
f 81 103 83
f 81 83 82
f 83 103 84
f 84 103 104
f 84 104 105
f 84 105 85
f 85 105 86
f 86 106 107
f 86 107 108
f 86 108 87
f 86 105 109
f 86 109 106
f 87 108 107
f 87 107 106
f 87 106 88
f 88 109 89
f 88 106 109
f 89 109 110
f 89 110 90
f 90 110 111
f 90 111 91
f 91 111 92
f 92 105 104
f 92 104 93
f 92 111 105
f 93 104 103
f 94 101 98
f 94 98 97
f 94 97 96
f 94 96 95
f 98 112 99
f 98 101 112
f 99 101 100
f 99 112 101
f 105 111 110
f 105 110 109

