# https://github.com/mikedh/trimesh
v -0.02502127 -0.01650922 -0.07940078
v -0.02502127 -0.02277353 -0.07940078
v -0.02502127 -0.01650922 -0.08966155
v -0.02502289 -0.01449522 -0.07106544
v -0.02502289 -0.01449609 -0.05617235
v -0.02502289 -0.01450130 -0.05501076
v -0.02502289 -0.01750275 -0.05427156
v -0.02502127 -0.02284996 -0.08169229
v -0.02502289 -0.01939429 -0.05427156
v -0.02502289 -0.02296026 -0.06119538
v -0.02502289 -0.02308011 -0.06299410
v -0.02502289 -0.02316087 -0.06424369
v -0.02502127 -0.01656393 -0.08991499
v -0.02502289 -0.01449609 -0.08870411
v -0.02502289 -0.01449522 -0.08775020
v -0.03558402 -0.01448741 -0.05955507
v -0.02600476 -0.01449609 -0.05590484
v -0.04005985 -0.01450217 -0.05426452
v -0.03896475 -0.01450304 -0.05426452
v -0.02664855 -0.01750275 -0.05426804
v -0.02502451 -0.01939516 -0.05426804
v -0.02535126 -0.02284735 -0.08225549
v -0.02648356 -0.02279698 -0.08608524
v -0.02599990 -0.02275269 -0.08641964
v -0.02502127 -0.02265455 -0.08710604
v -0.02502451 -0.02333023 -0.05622164
v -0.02504553 -0.02331199 -0.05724947
v -0.02502451 -0.02323122 -0.05426804
v -0.02502451 -0.02326683 -0.05488404
v -0.02502127 -0.01669681 -0.09009451
v -0.03850860 -0.01448741 -0.08805643
v -0.03750247 -0.01448741 -0.08805291
v -0.03558402 -0.01448741 -0.08804588
v -0.02502127 -0.01673937 -0.09013323
v -0.03558402 -0.01449609 -0.08870411
v -0.03750247 -0.01448741 -0.05955155
v -0.03850860 -0.01448741 -0.05955155
v -0.04154155 -0.01448741 -0.05955507
v -0.04154155 -0.01450217 -0.05426452
v -0.03753158 -0.01750275 -0.05426452
v -0.02669708 -0.02280567 -0.08566988
v -0.03222433 -0.02267366 -0.08502924
v -0.03294415 -0.02261981 -0.08505388
v -0.03692985 -0.02211870 -0.08531084
v -0.03846654 -0.02181995 -0.08546572
v -0.03890329 -0.02172441 -0.08551500
v -0.03999515 -0.02146648 -0.08564524
v -0.04154478 -0.02101921 -0.08588108
v -0.04154478 -0.02029230 -0.08629996
v -0.02502127 -0.01722745 -0.09015787
v -0.02577344 -0.02335628 -0.05496500
v -0.03753158 -0.02199451 -0.05426452
v -0.02619401 -0.02335976 -0.05426804
v -0.04154155 -0.01448741 -0.08805643
v -0.02502127 -0.01678974 -0.09016139
v -0.02502127 -0.01689743 -0.09020363
v -0.02502127 -0.01698080 -0.09022475
v -0.04154478 -0.01694085 -0.05620756
v -0.04154155 -0.01605587 -0.05426452
v -0.02706265 -0.02281783 -0.08496236
v -0.03096424 -0.02278743 -0.08248781
v -0.03092703 -0.02286472 -0.07763374
v -0.03215639 -0.02282564 -0.07538447
v -0.03363000 -0.02266411 -0.07815470
v -0.03400689 -0.02255815 -0.08299821
v -0.03601107 -0.02230108 -0.08316365
v -0.03622620 -0.02232280 -0.07889390
v -0.03737468 -0.02214389 -0.07686990
v -0.03869947 -0.02185034 -0.07980558
v -0.03920739 -0.02168186 -0.08410700
v -0.03995633 -0.02147690 -0.08563820
v -0.03993692 -0.02152814 -0.08280813
v -0.04154478 -0.02105916 -0.08329389
v -0.04154478 -0.01725871 -0.08798955
v -0.02502127 -0.01711889 -0.09019307
v -0.04154478 -0.01706070 -0.08805996
v -0.02804613 -0.02321646 -0.06119538
v -0.02637680 -0.02328159 -0.05894963
v -0.02828392 -0.02285604 -0.08262157
v -0.03886285 -0.02164452 -0.05426452
v -0.03753158 -0.02200320 -0.05450388
v -0.03748953 -0.02200493 -0.05426804
v -0.03643325 -0.02223768 -0.05426804
v -0.02765630 -0.02332328 -0.05426804
v -0.04154478 -0.01694085 -0.08804588
v -0.02502127 -0.01701033 -0.09022123
v -0.04154478 -0.02099316 -0.05620756
v -0.04153993 -0.02093236 -0.05426452
v -0.04154155 -0.01693998 -0.05426804
v -0.02838097 -0.02285778 -0.08243149
v -0.02992090 -0.02285778 -0.08051661
v -0.03060837 -0.02294897 -0.07268463
v -0.02918976 -0.02320517 -0.05932275
v -0.03135569 -0.02299152 -0.06603889
v -0.03294576 -0.02283259 -0.06859792
v -0.03333236 -0.02274922 -0.07324431
v -0.03448569 -0.02263805 -0.07124496
v -0.03498714 -0.02247478 -0.08092493
v -0.03558726 -0.02237577 -0.08223437
v -0.03596577 -0.02240791 -0.07401519
v -0.03722263 -0.02217255 -0.07656718
v -0.03558726 -0.02240183 -0.08006254
v -0.03861212 -0.02189116 -0.07735918
v -0.03671956 -0.02230629 -0.06760177
v -0.03753158 -0.02214563 -0.06910128
v -0.03820773 -0.02201101 -0.07035088
v -0.03850375 -0.02193198 -0.07497263
v -0.03983016 -0.02161065 -0.07789422
v -0.03989809 -0.02156983 -0.08032301
v -0.04153993 -0.02110954 -0.07960846
v -0.04154478 -0.02108001 -0.08179789
v -0.02853949 -0.02328072 -0.05537684
v -0.02828392 -0.02321385 -0.06083986
v -0.02965562 -0.02287428 -0.08000973
v -0.02944048 -0.02287254 -0.08041805
v -0.03886446 -0.02166189 -0.05478548
v -0.03649957 -0.02222640 -0.05437364
v -0.03772408 -0.02198843 -0.05556340
v -0.03753158 -0.02203794 -0.05582388
v -0.03677132 -0.02224029 -0.05767187
v -0.03558726 -0.02248520 -0.05897779
v -0.03402792 -0.02272577 -0.05672851
v -0.03240549 -0.02293594 -0.05427508
v -0.03223080 -0.02296026 -0.05427508
v -0.04154478 -0.02100532 -0.05658420
v -0.02918976 -0.02323469 -0.05623220
v -0.03024118 -0.02315914 -0.05761555
v -0.03080895 -0.02310703 -0.05840403
v -0.03247181 -0.02291770 -0.06416273
v -0.03355235 -0.02280654 -0.06238514
v -0.03558726 -0.02246696 -0.07330063
v -0.03561476 -0.02249041 -0.06937232
v -0.03753158 -0.02214736 -0.06791857
v -0.03558726 -0.02250170 -0.06565521
v -0.03570696 -0.02246609 -0.05915731
v -0.03733748 -0.02216908 -0.06169874
v -0.03753158 -0.02214736 -0.06635921
v -0.03802333 -0.02205009 -0.06811217
v -0.03931091 -0.02176523 -0.06866832
v -0.03939179 -0.02174786 -0.06969616
v -0.03961825 -0.02168881 -0.07318095
v -0.04153993 -0.02115556 -0.07297327
v -0.04153993 -0.02114341 -0.07590191
v -0.04154478 -0.02115556 -0.07232911
v -0.03146730 -0.02305492 -0.05569012
v -0.03128937 -0.02307490 -0.05595764
v -0.03783083 -0.02198062 -0.05620403
v -0.03753158 -0.02207962 -0.05796755
v -0.03706572 -0.02220642 -0.05966067
v -0.03463936 -0.02265455 -0.06073778
v -0.03232623 -0.02294983 -0.05439476
v -0.04154478 -0.02102529 -0.05737971
v -0.03813979 -0.02195022 -0.05820691
v -0.03192184 -0.02300108 -0.05995283
v -0.03516507 -0.02257205 -0.06494769
v -0.03781790 -0.02209091 -0.06592273
v -0.03841963 -0.02191635 -0.06020978
v -0.03868815 -0.02187987 -0.06235698
v -0.03912328 -0.02180432 -0.06647889
v -0.04154478 -0.02114514 -0.06597201
v -0.04154478 -0.02115209 -0.06726737
v -0.04154478 -0.02115817 -0.06961520
v -0.04154478 -0.02104353 -0.05827027
v -0.03891137 -0.02184340 -0.06434225
v -0.03868977 -0.02188943 -0.06397618
v -0.04154478 -0.02111214 -0.06243090
v -0.04154478 -0.02113559 -0.06478577
f 1 2 8
f 1 8 25
f 1 25 50
f 1 50 75
f 1 75 86
f 1 86 57
f 1 57 56
f 1 56 55
f 1 55 34
f 1 34 30
f 1 30 13
f 1 13 3
f 1 3 15
f 1 15 4
f 1 4 5
f 1 5 6
f 1 6 7
f 1 7 9
f 1 9 2
f 2 9 10
f 2 10 11
f 2 11 12
f 2 12 8
f 3 13 14
f 3 14 15
f 4 16 5
f 4 15 33
f 4 33 16
f 5 17 6
f 5 16 17
f 6 17 18
f 6 18 19
f 6 19 7
f 7 19 20
f 7 20 21
f 7 21 28
f 7 28 9
f 8 22 23
f 8 23 24
f 8 24 25
f 8 12 26
f 8 26 27
f 8 27 22
f 9 28 10
f 10 28 11
f 11 28 12
f 12 28 29
f 12 29 26
f 13 30 14
f 14 31 32
f 14 32 33
f 14 33 15
f 14 30 34
f 14 34 35
f 14 35 54
f 14 54 31
f 16 36 17
f 16 33 32
f 16 32 31
f 16 31 54
f 16 54 38
f 16 38 37
f 16 37 36
f 17 36 37
f 17 37 38
f 17 38 39
f 17 39 18
f 18 39 59
f 18 59 88
f 18 88 80
f 18 80 52
f 18 52 40
f 18 40 19
f 19 40 21
f 19 21 20
f 21 40 52
f 21 52 28
f 22 27 23
f 23 41 42
f 23 42 24
f 23 27 41
f 24 42 25
f 25 42 43
f 25 43 44
f 25 44 45
f 25 45 46
f 25 46 47
f 25 47 48
f 25 48 49
f 25 49 50
f 26 29 51
f 26 51 27
f 27 51 41
f 28 52 53
f 28 53 51
f 28 51 29
f 34 55 35
f 35 55 56
f 35 56 57
f 35 57 54
f 38 58 39
f 38 54 85
f 38 85 58
f 39 58 87
f 39 87 59
f 41 60 42
f 41 51 60
f 42 60 61
f 42 61 62
f 42 62 63
f 42 63 43
f 43 63 64
f 43 64 65
f 43 65 44
f 44 65 66
f 44 66 67
f 44 67 68
f 44 68 69
f 44 69 45
f 45 69 70
f 45 70 46
f 46 70 71
f 46 71 47
f 47 71 72
f 47 72 48
f 48 72 73
f 48 73 111
f 48 111 144
f 48 144 162
f 48 162 161
f 48 161 160
f 48 160 167
f 48 167 166
f 48 166 163
f 48 163 152
f 48 152 125
f 48 125 87
f 48 87 58
f 48 58 85
f 48 85 76
f 48 76 74
f 48 74 49
f 49 74 50
f 50 74 76
f 50 76 75
f 51 53 77
f 51 77 78
f 51 78 79
f 51 79 60
f 52 80 81
f 52 81 82
f 52 82 83
f 52 83 84
f 52 84 53
f 53 84 77
f 54 57 76
f 54 76 85
f 57 86 76
f 59 87 89
f 59 89 88
f 60 79 61
f 61 79 90
f 61 90 91
f 61 91 62
f 62 92 63
f 62 91 93
f 62 93 92
f 63 92 93
f 63 93 94
f 63 94 95
f 63 95 96
f 63 96 64
f 64 96 97
f 64 97 98
f 64 98 65
f 65 98 99
f 65 99 66
f 66 99 67
f 67 100 101
f 67 101 68
f 67 99 102
f 67 102 100
f 68 103 69
f 68 101 104
f 68 104 105
f 68 105 106
f 68 106 107
f 68 107 103
f 69 103 108
f 69 108 109
f 69 109 70
f 70 109 72
f 70 72 71
f 72 109 110
f 72 110 111
f 72 111 73
f 75 76 86
f 77 84 112
f 77 112 113
f 77 113 91
f 77 91 114
f 77 114 115
f 77 115 90
f 77 90 78
f 78 90 79
f 80 88 116
f 80 116 81
f 81 117 83
f 81 83 82
f 81 116 118
f 81 118 119
f 81 119 117
f 83 117 120
f 83 120 121
f 83 121 122
f 83 122 123
f 83 123 124
f 83 124 84
f 84 124 112
f 87 125 88
f 87 88 89
f 88 125 116
f 90 115 91
f 91 115 114
f 91 113 93
f 93 113 112
f 93 112 126
f 93 126 127
f 93 127 94
f 94 127 128
f 94 128 129
f 94 129 95
f 95 129 130
f 95 130 97
f 95 97 96
f 97 131 102
f 97 102 98
f 97 130 132
f 97 132 131
f 98 102 99
f 100 102 131
f 100 131 132
f 100 132 104
f 100 104 101
f 103 107 108
f 104 133 105
f 104 132 134
f 104 134 135
f 104 135 136
f 104 136 137
f 104 137 133
f 105 133 106
f 106 133 138
f 106 138 139
f 106 139 140
f 106 140 141
f 106 141 107
f 107 141 108
f 108 141 142
f 108 142 143
f 108 143 109
f 109 143 110
f 110 143 111
f 111 143 144
f 112 124 145
f 112 145 146
f 112 146 126
f 116 125 147
f 116 147 118
f 117 119 120
f 118 147 119
f 119 147 120
f 120 147 148
f 120 148 149
f 120 149 135
f 120 135 121
f 121 135 150
f 121 150 122
f 122 151 123
f 122 150 151
f 123 151 124
f 124 151 145
f 125 152 153
f 125 153 147
f 126 146 127
f 127 146 128
f 128 154 129
f 128 146 154
f 129 154 130
f 130 154 145
f 130 145 151
f 130 151 150
f 130 150 155
f 130 155 132
f 132 155 134
f 133 137 156
f 133 156 138
f 134 155 150
f 134 150 135
f 135 149 136
f 136 149 157
f 136 157 158
f 136 158 156
f 136 156 137
f 138 156 159
f 138 159 139
f 139 159 160
f 139 160 161
f 139 161 140
f 140 162 141
f 140 161 162
f 141 144 142
f 141 162 144
f 142 144 143
f 145 154 146
f 147 153 148
f 148 153 149
f 149 153 157
f 152 163 153
f 153 163 157
f 156 164 159
f 156 158 165
f 156 165 164
f 157 163 158
f 158 163 166
f 158 166 164
f 158 164 165
f 159 164 167
f 159 167 160
f 164 166 167

