# https://github.com/mikedh/trimesh
v 0.00250191 -0.01448909 -0.08299024
v 0.00248897 -0.00013838 -0.08299024
v 0.00837927 -0.01448909 -0.08299024
v 0.00249221 -0.01448909 -0.06500976
v 0.00248897 0.00094972 -0.08299024
v 0.00248897 -0.00013838 -0.06646701
v 0.01335018 -0.01448758 -0.08299024
v 0.01343318 -0.01448909 -0.07012048
v 0.00249221 -0.01448909 -0.05954562
v 0.01335018 0.00094972 -0.08299024
v 0.00248897 0.00094972 -0.06609983
v 0.01337066 -0.01360048 -0.07982788
v 0.01343318 -0.00563475 -0.07012507
v 0.01346551 -0.01448909 -0.06501205
v 0.01350000 -0.01448909 -0.05954562
v 0.00249221 0.00094972 -0.05954562
v 0.01350000 0.00094972 -0.05954562
v 0.01346551 -0.00013838 -0.06501205
v 0.01343318 -0.00180074 -0.07012507
f 1 2 5
f 1 5 10
f 1 10 7
f 1 7 3
f 1 3 8
f 1 8 14
f 1 14 15
f 1 15 9
f 1 9 4
f 1 4 2
f 2 4 9
f 2 9 6
f 2 6 11
f 2 11 5
f 3 7 8
f 5 11 16
f 5 16 17
f 5 17 10
f 6 9 11
f 7 10 12
f 7 12 8
f 8 12 13
f 8 13 14
f 9 15 17
f 9 17 16
f 9 16 11
f 10 17 18
f 10 18 19
f 10 19 12
f 12 19 13
f 13 19 18
f 13 18 14
f 14 18 17
f 14 17 15

