# https://github.com/mikedh/trimesh
v 0.03798584 -0.01199166 -0.03900000
v 0.02224783 -0.01198989 -0.03900361
v 0.03599354 -0.01199166 -0.03900000
v 0.03798584 -0.01277198 -0.03900000
v 0.03798584 -0.01199166 -0.05743147
v 0.02224783 -0.01198989 -0.04124440
v 0.02106867 -0.01198989 -0.03900361
v 0.03599354 -0.01277198 -0.03900000
v 0.03497007 -0.01649371 -0.03900361
v 0.03798584 -0.01618467 -0.03900361
v 0.03798584 -0.01618467 -0.05742967
v 0.02486779 -0.01649371 -0.05689743
v 0.02486779 -0.01200136 -0.05689743
v 0.02410267 -0.01200136 -0.05674408
v 0.03738964 -0.01199166 -0.05715543
v 0.02106867 -0.01198989 -0.04110187
v 0.02223955 -0.01198989 -0.04124440
v 0.02106867 -0.01649371 -0.03900361
v 0.03497007 -0.01649371 -0.05079210
v 0.03497172 -0.01649283 -0.05689743
v 0.02582834 -0.01649371 -0.05689743
v 0.02410267 -0.01649371 -0.05674408
v 0.02345347 -0.01200136 -0.05630927
v 0.03663446 -0.01199166 -0.05670439
v 0.03733002 -0.01199166 -0.05712656
v 0.02106867 -0.01649371 -0.04110187
v 0.02302123 -0.01200136 -0.05566157
v 0.02286887 -0.01200136 -0.05489841
v 0.02345347 -0.01649371 -0.05630927
v 0.02286887 -0.01649371 -0.05489841
v 0.02302123 -0.01649371 -0.05566157
f 1 2 7
f 1 7 3
f 1 3 8
f 1 8 4
f 1 4 10
f 1 10 11
f 1 11 5
f 1 5 6
f 1 6 2
f 2 6 17
f 2 17 16
f 2 16 7
f 3 7 18
f 3 18 8
f 4 8 18
f 4 18 9
f 4 9 10
f 5 11 12
f 5 12 13
f 5 13 14
f 5 14 15
f 5 15 16
f 5 16 17
f 5 17 6
f 7 16 26
f 7 26 18
f 9 18 26
f 9 26 30
f 9 30 31
f 9 31 29
f 9 29 22
f 9 22 12
f 9 12 21
f 9 21 19
f 9 19 11
f 9 11 10
f 11 20 21
f 11 21 12
f 11 19 20
f 12 22 14
f 12 14 13
f 14 23 24
f 14 24 25
f 14 25 15
f 14 22 29
f 14 29 23
f 15 25 16
f 16 25 24
f 16 24 23
f 16 23 27
f 16 27 28
f 16 28 30
f 16 30 26
f 19 21 20
f 23 29 31
f 23 31 27
f 27 31 30
f 27 30 28

