# https://github.com/mikedh/trimesh
v -0.00675583 -0.01448794 -0.09049394
v -0.00675583 -0.00861117 -0.09050000
v -0.00493799 -0.01448794 -0.09049394
v -0.00675583 -0.01448794 -0.05954964
v -0.00493799 -0.00861117 -0.09050000
v -0.00675583 -0.00418962 -0.09050000
v -0.00493799 -0.01448794 -0.05954964
v -0.00675583 -0.00418962 -0.05954661
v -0.00493799 -0.00135022 -0.09050000
v -0.00675565 0.00094972 -0.09048788
v -0.00675547 -0.00135022 -0.09050000
v -0.00675583 -0.00135022 -0.08003172
v -0.00493799 -0.00418962 -0.05954661
v -0.00675583 -0.00135022 -0.05954661
v -0.00493816 0.00094972 -0.09048788
v -0.00493799 -0.00135022 -0.05954661
v -0.00675565 0.00094972 -0.05955873
v -0.00493816 0.00094972 -0.05955873
f 1 2 5
f 1 5 3
f 1 3 7
f 1 7 4
f 1 4 8
f 1 8 14
f 1 14 12
f 1 12 6
f 1 6 2
f 2 6 11
f 2 11 9
f 2 9 5
f 3 5 9
f 3 9 16
f 3 16 13
f 3 13 7
f 4 7 13
f 4 13 8
f 6 10 11
f 6 12 10
f 8 13 16
f 8 16 14
f 9 11 10
f 9 10 15
f 9 15 18
f 9 18 16
f 10 12 14
f 10 14 17
f 10 17 18
f 10 18 15
f 14 16 18
f 14 18 17

