# https://github.com/mikedh/trimesh
v 0.02174002 0.01963234 -0.05903661
v 0.02162800 0.01965560 -0.05903661
v 0.02174002 0.01807874 -0.05903661
v 0.02174002 0.01963798 -0.05923400
v 0.01517450 0.02078511 -0.05904064
v 0.01564746 0.02069627 -0.05903661
v 0.02028502 0.01832163 -0.05903661
v 0.00902469 0.02010684 -0.05904064
v 0.00902469 0.01869320 -0.07961190
v 0.02174002 0.01802269 -0.07961391
v 0.02174002 0.01968310 -0.06770985
v 0.02174002 0.01965349 -0.07175441
v 0.02174002 0.01964503 -0.07288842
v 0.02174002 0.01959285 -0.07663891
v 0.02174002 0.01958721 -0.07701355
v 0.00942298 0.02158922 -0.05904064
v 0.01564746 0.01932141 -0.05903661
v 0.00902469 0.02162412 -0.05904064
v 0.01582918 0.01915889 -0.05903661
v 0.00902469 0.02018440 -0.07961190
v 0.01564746 0.01840025 -0.07961391
v 0.02174002 0.01950331 -0.07961391
v 0.00902594 0.02132024 -0.06452537
v 0.00902469 0.02135374 -0.06391707
v 0.00902469 0.02075514 -0.07291259
v 0.01309096 0.02004409 -0.07961190
v 0.01564746 0.01989250 -0.07961391
v 0.01838818 0.01975819 -0.07961391
v 0.00904834 0.02075444 -0.07291058
v 0.00902469 0.02100367 -0.06918225
v 0.01321044 0.02003986 -0.07961190
f 1 2 6
f 1 6 17
f 1 17 19
f 1 19 7
f 1 7 3
f 1 3 10
f 1 10 22
f 1 22 15
f 1 15 14
f 1 14 13
f 1 13 12
f 1 12 11
f 1 11 4
f 1 4 2
f 2 5 6
f 2 4 5
f 3 7 8
f 3 8 9
f 3 9 10
f 4 11 5
f 5 11 12
f 5 12 13
f 5 13 14
f 5 14 15
f 5 15 16
f 5 16 6
f 6 16 18
f 6 18 8
f 6 8 17
f 7 19 8
f 8 19 17
f 8 18 24
f 8 24 30
f 8 30 25
f 8 25 20
f 8 20 9
f 9 20 27
f 9 27 21
f 9 21 10
f 10 21 27
f 10 27 28
f 10 28 22
f 15 22 16
f 16 22 18
f 18 22 23
f 18 23 24
f 20 25 26
f 20 26 27
f 22 28 23
f 23 28 29
f 23 29 25
f 23 25 30
f 23 30 24
f 25 29 31
f 25 31 26
f 26 31 27
f 27 31 28
f 28 31 29

