# https://github.com/mikedh/trimesh
v 0.01763458 -0.01649073 -0.02099881
v 0.02644348 -0.01648774 -0.02099930
v 0.03240853 -0.01649073 -0.02099881
v 0.01763458 -0.01649073 -0.01707020
v 0.01763458 -0.01645193 -0.02099930
v 0.03347557 -0.00336243 -0.02100816
v 0.03120832 -0.01648774 -0.02099930
v 0.03164077 -0.01649073 -0.02047251
v 0.03275324 -0.01566704 -0.02099881
v 0.03121145 -0.01588191 -0.02000326
v 0.02045493 -0.01649073 -0.01726499
v 0.01763458 -0.01503733 -0.01634469
v 0.01763458 -0.00980571 -0.02099881
v 0.01763771 -0.00188217 -0.02099930
v 0.02238374 0.01023741 -0.02100275
v 0.03086674 0.00094404 -0.02100816
v 0.03098739 -0.00321619 -0.02100816
v 0.03358838 -0.01057568 -0.02099881
v 0.03340036 -0.01278412 -0.02099881
v 0.03300551 -0.01483440 -0.02099881
v 0.03364165 0.00094702 -0.02100816
v 0.03121145 -0.01649073 -0.02021329
v 0.03046562 -0.01501346 -0.01924577
v 0.03080720 -0.01648774 -0.01992259
v 0.03023843 -0.01648774 -0.01957090
v 0.03282062 -0.01466727 -0.02080305
v 0.03121145 -0.01471502 -0.01968206
v 0.03040138 -0.01473890 -0.01912083
v 0.02224586 -0.01649073 -0.01742731
v 0.02173819 -0.01648774 -0.01736828
v 0.02101117 -0.01648774 -0.01730434
v 0.02351658 -0.01649073 -0.01757487
v 0.02474657 -0.01649073 -0.01772440
v 0.02487662 -0.01475083 -0.01728466
v 0.01850105 -0.01452104 -0.01634469
v 0.02137625 -0.00980273 -0.01598316
v 0.02109578 -0.00980273 -0.01598316
v 0.01763771 -0.00980273 -0.01598365
v 0.01763458 -0.01384657 -0.01634469
v 0.01763458 -0.00980571 -0.01966140
v 0.01763771 0.00094404 -0.01800034
v 0.01763771 -0.00150017 -0.02099685
v 0.01994100 0.01399176 -0.02099832
v 0.02500667 0.01023741 -0.02100275
v 0.03209203 0.00094702 -0.02100816
v 0.03262946 -0.01098156 -0.02017689
v 0.03361031 -0.00913124 -0.02099881
v 0.02224899 0.01399176 -0.02099832
v 0.02261407 0.01366049 -0.02099832
v 0.02286633 0.01342771 -0.02099832
v 0.02450057 0.01165200 -0.02099832
v 0.02469173 0.01144011 -0.02099832
v 0.02567729 0.01032395 -0.02099832
v 0.03134776 0.00404780 -0.02099094
v 0.03324837 0.00171102 -0.02099045
v 0.03353197 0.00123054 -0.02099045
v 0.03362755 0.00104252 -0.02099045
v 0.02978874 -0.01648774 -0.01933874
v 0.02864179 -0.01649073 -0.01889506
v 0.03037631 -0.01501346 -0.01919117
v 0.03121145 -0.01337503 -0.01950401
v 0.02768601 -0.01475382 -0.01796739
v 0.02986864 -0.01474486 -0.01889506
v 0.03069595 -0.01102334 -0.01889506
v 0.03019455 -0.01103528 -0.01856354
v 0.02690257 -0.01649073 -0.01822267
v 0.02582927 -0.01475083 -0.01751585
v 0.02749015 -0.01104125 -0.01746076
v 0.02582927 -0.01104125 -0.01707119
v 0.02476537 -0.01199028 -0.01693396
v 0.02472463 -0.01104125 -0.01681394
v 0.02149533 -0.00953712 -0.01598316
v 0.02109578 -0.00900888 -0.01598316
v 0.01763771 0.00094404 -0.01598365
v 0.01994100 0.01399176 -0.01971059
v 0.03283785 0.00104252 -0.02036429
v 0.03165330 -0.00709589 -0.01943465
v 0.03075079 -0.00954010 -0.01889506
v 0.02144676 0.01399176 -0.02055071
v 0.01994100 0.01333221 -0.01930578
v 0.01994100 0.01330237 -0.01928758
v 0.01994100 0.01203102 -0.01859207
v 0.03130076 0.00317039 -0.02049808
v 0.03261536 0.00104252 -0.02021378
v 0.03307758 0.00135290 -0.02067910
v 0.02734130 -0.01649073 -0.01834662
v 0.03089181 -0.00533212 -0.01899344
v 0.02932181 -0.00713170 -0.01807166
v 0.02318597 -0.00399810 -0.01598365
v 0.02287417 -0.00546940 -0.01598365
v 0.02278956 -0.00584842 -0.01598365
v 0.02260153 -0.00652289 -0.01598365
v 0.02679446 -0.00713767 -0.01713071
v 0.02337400 -0.00269094 -0.01598365
v 0.02333169 -0.00300430 -0.01598365
v 0.02185571 -0.00860300 -0.01598365
v 0.02169902 -0.00900888 -0.01598316
v 0.02206410 0.00094702 -0.01598365
v 0.01993003 0.00969126 -0.01751044
v 0.01993003 0.01023741 -0.01774358
v 0.01994100 0.01106408 -0.01811003
v 0.01994100 0.01149383 -0.01832203
v 0.03085420 0.00104252 -0.01918478
v 0.03032147 -0.00349971 -0.01868307
v 0.03083070 -0.00519185 -0.01895852
v 0.02991565 -0.00349971 -0.01846074
v 0.02858382 -0.00521573 -0.01779080
v 0.02756379 -0.00349971 -0.01743518
v 0.02342884 -0.00188217 -0.01598365
v 0.02341004 -0.00231789 -0.01598365
v 0.02322828 0.00094702 -0.01598365
v 0.02898964 0.00104252 -0.01836040
f 1 2 7
f 1 7 3
f 1 3 8
f 1 8 22
f 1 22 59
f 1 59 86
f 1 86 66
f 1 66 33
f 1 33 32
f 1 32 29
f 1 29 11
f 1 11 4
f 1 4 12
f 1 12 39
f 1 39 40
f 1 40 13
f 1 13 5
f 1 5 2
f 2 5 6
f 2 6 7
f 3 7 6
f 3 6 9
f 3 9 10
f 3 10 8
f 4 11 12
f 5 13 14
f 5 14 15
f 5 15 16
f 5 16 17
f 5 17 6
f 6 18 19
f 6 19 20
f 6 20 9
f 6 17 16
f 6 16 45
f 6 45 21
f 6 21 18
f 8 10 23
f 8 23 24
f 8 24 25
f 8 25 22
f 9 20 26
f 9 26 27
f 9 27 28
f 9 28 10
f 10 28 23
f 11 29 30
f 11 30 31
f 11 31 12
f 12 31 30
f 12 30 29
f 12 29 32
f 12 32 33
f 12 33 34
f 12 34 35
f 12 35 36
f 12 36 37
f 12 37 38
f 12 38 74
f 12 74 39
f 13 40 74
f 13 74 41
f 13 41 42
f 13 42 14
f 14 42 43
f 14 43 15
f 15 43 48
f 15 48 44
f 15 44 21
f 15 21 45
f 15 45 16
f 18 46 19
f 18 21 47
f 18 47 46
f 19 46 26
f 19 26 20
f 21 44 48
f 21 48 49
f 21 49 50
f 21 50 51
f 21 51 52
f 21 52 53
f 21 53 54
f 21 54 55
f 21 55 56
f 21 56 57
f 21 57 47
f 22 25 58
f 22 58 59
f 23 28 60
f 23 60 25
f 23 25 24
f 25 60 58
f 26 46 27
f 27 46 61
f 27 61 28
f 28 62 63
f 28 63 58
f 28 58 60
f 28 61 64
f 28 64 65
f 28 65 62
f 33 66 34
f 34 67 68
f 34 68 69
f 34 69 70
f 34 70 36
f 34 36 35
f 34 66 67
f 36 70 71
f 36 71 72
f 36 72 97
f 36 97 73
f 36 73 37
f 37 73 74
f 37 74 38
f 39 74 40
f 41 74 75
f 41 75 43
f 41 43 42
f 43 75 79
f 43 79 48
f 46 47 57
f 46 57 76
f 46 76 77
f 46 77 78
f 46 78 64
f 46 64 61
f 48 79 49
f 49 79 75
f 49 75 80
f 49 80 81
f 49 81 50
f 50 81 82
f 50 82 51
f 51 82 83
f 51 83 52
f 52 83 54
f 52 54 53
f 54 83 84
f 54 84 85
f 54 85 55
f 55 85 56
f 56 85 57
f 57 85 76
f 58 86 59
f 58 63 62
f 58 62 86
f 62 67 66
f 62 66 86
f 62 65 68
f 62 68 67
f 64 78 65
f 65 78 87
f 65 87 88
f 65 88 68
f 68 89 90
f 68 90 91
f 68 91 92
f 68 92 69
f 68 88 93
f 68 93 94
f 68 94 95
f 68 95 89
f 69 71 70
f 69 92 71
f 71 92 96
f 71 96 97
f 71 97 72
f 73 97 111
f 73 111 98
f 73 98 74
f 74 98 99
f 74 99 100
f 74 100 101
f 74 101 102
f 74 102 82
f 74 82 81
f 74 81 80
f 74 80 75
f 76 85 84
f 76 84 77
f 77 87 78
f 77 84 87
f 82 102 83
f 83 103 84
f 83 102 103
f 84 103 104
f 84 104 105
f 84 105 87
f 87 105 88
f 88 105 104
f 88 104 106
f 88 106 107
f 88 107 93
f 89 97 90
f 89 95 97
f 90 97 91
f 91 97 92
f 92 97 96
f 93 107 108
f 93 108 109
f 93 109 110
f 93 110 94
f 94 110 97
f 94 97 95
f 97 110 109
f 97 109 111
f 98 111 99
f 99 112 103
f 99 103 100
f 99 111 112
f 100 103 101
f 101 103 102
f 103 112 106
f 103 106 104
f 106 108 107
f 106 112 108
f 108 112 111
f 108 111 109

