# https://github.com/mikedh/trimesh
v -0.01795629 0.00587470 -0.03715089
v -0.02103678 0.00587470 -0.02836573
v -0.01795809 0.00587433 -0.02619435
v -0.01795809 0.00587157 -0.02618771
v -0.01795629 0.00400003 -0.03715089
v -0.01795629 0.00587470 -0.04260260
v -0.02272171 0.00587470 -0.02618771
v -0.02249975 0.00450066 -0.02616114
v -0.01795809 0.00400003 -0.02618771
v -0.01795629 0.00399303 -0.03750283
v -0.01795629 0.00400003 -0.04260260
v -0.01795809 0.00400003 -0.09399210
v -0.01795899 0.00587452 -0.08717248
v -0.01795899 0.00587470 -0.05553132
v -0.02403191 0.00587470 -0.02618771
v -0.02249975 0.00399303 -0.02616114
v -0.02404269 0.00450066 -0.02616114
v -0.01795629 0.00399303 -0.04090267
v -0.01795809 0.00399322 -0.09399210
v -0.02099994 0.00399800 -0.09399874
v -0.02100803 0.00450066 -0.09399874
v -0.02271272 0.00587470 -0.09399874
v -0.02100803 0.00587470 -0.09399210
v -0.02713487 0.00587470 -0.04260260
v -0.02404269 0.00399303 -0.02616114
v -0.01795809 0.00399303 -0.09394562
v -0.01802099 0.00399303 -0.09399210
v -0.02236496 0.00399303 -0.09399874
v -0.02713577 0.00587470 -0.09399874
v -0.02713577 0.00587470 -0.05553132
v -0.02713487 0.00399303 -0.04260260
v -0.02713666 0.00399303 -0.09399874
v -0.02713666 0.00458888 -0.09399874
v -0.02713666 0.00458888 -0.09099067
v -0.02713666 0.00447155 -0.09098403
v -0.02713577 0.00500699 -0.05553132
v -0.02713577 0.00399598 -0.05553796
v -0.02713577 0.00399303 -0.05717812
v -0.02713666 0.00399303 -0.09098403
f 1 2 3
f 1 3 4
f 1 4 9
f 1 9 5
f 1 5 10
f 1 10 18
f 1 18 11
f 1 11 6
f 1 6 14
f 1 14 23
f 1 23 22
f 1 22 29
f 1 29 30
f 1 30 24
f 1 24 15
f 1 15 7
f 1 7 2
f 2 7 3
f 3 7 4
f 4 8 16
f 4 16 9
f 4 7 8
f 5 9 10
f 6 11 19
f 6 19 12
f 6 12 13
f 6 13 14
f 7 15 17
f 7 17 8
f 8 17 25
f 8 25 16
f 9 16 10
f 10 16 25
f 10 25 31
f 10 31 38
f 10 38 39
f 10 39 32
f 10 32 28
f 10 28 27
f 10 27 26
f 10 26 18
f 11 18 19
f 12 19 20
f 12 20 21
f 12 21 22
f 12 22 23
f 12 23 13
f 13 23 14
f 15 24 17
f 17 24 31
f 17 31 25
f 18 26 19
f 19 26 27
f 19 27 28
f 19 28 20
f 20 28 32
f 20 32 33
f 20 33 29
f 20 29 22
f 20 22 21
f 24 30 36
f 24 36 31
f 29 33 34
f 29 34 30
f 30 34 35
f 30 35 39
f 30 39 36
f 31 36 37
f 31 37 38
f 32 39 35
f 32 35 34
f 32 34 33
f 36 39 37
f 37 39 38

