# https://github.com/mikedh/trimesh
v -0.00988665 -0.02153014 -0.02239119
v -0.02248042 -0.01809689 -0.01783662
v -0.02294503 -0.01785886 -0.01783662
v -0.02343151 -0.01749502 -0.01783662
v -0.00988665 -0.01910406 -0.02239119
v -0.00151814 -0.02143578 -0.02239119
v 0.01244761 -0.02167095 -0.02239025
v 0.00781787 -0.02165308 -0.02239025
v -0.00154000 -0.02324783 -0.01614787
v -0.00155093 -0.02347442 -0.01500079
v -0.00440421 -0.02310987 -0.01500079
v -0.00354057 -0.02347585 -0.01281723
v -0.00568873 -0.02310558 -0.01281723
v -0.00622987 -0.02293617 -0.01281723
v -0.00979373 -0.02167310 -0.01281723
v -0.00988665 -0.02163235 -0.01281723
v -0.00988665 -0.01749288 -0.01281723
v 0.01763488 -0.01649429 -0.01706909
v 0.01763488 -0.01649429 -0.02099952
v -0.00151814 -0.01910406 -0.02239119
v 0.01301061 -0.02165523 -0.02239025
v 0.00148819 -0.02348014 -0.01500079
v 0.00000689 -0.02379680 -0.01281723
v -0.00696778 -0.01749288 -0.01281723
v 0.01610986 -0.01749502 -0.01281723
v 0.02101290 -0.01649429 -0.01730432
v 0.01915444 -0.01649429 -0.02099952
v 0.01301061 -0.01910406 -0.02239025
v 0.03240960 -0.01649429 -0.02099764
v 0.03211990 -0.01717622 -0.02099764
v 0.03178101 -0.01775736 -0.02099764
v 0.03102669 -0.01864158 -0.02099764
v 0.03064954 -0.01894824 -0.02099764
v 0.02942514 -0.01965232 -0.02099764
v 0.02867629 -0.01994039 -0.02099764
v 0.02677958 -0.02040788 -0.02099764
v 0.02641335 -0.02046792 -0.02099764
v 0.02459862 -0.02065950 -0.02099952
v 0.02313919 -0.02081175 -0.02099952
v 0.00148819 -0.02374891 -0.01281723
v 0.00131874 -0.02375677 -0.01281723
v 0.00019274 -0.02379252 -0.01281723
v 0.01577643 -0.01781669 -0.01281723
v 0.02932129 -0.01782098 -0.01950288
v 0.02978590 -0.01649429 -0.01933794
v 0.02733711 -0.01649429 -0.01834550
v 0.02689436 -0.01649429 -0.01822179
v 0.02474074 -0.01649429 -0.01772229
v 0.02351088 -0.01649429 -0.01757515
v 0.02173988 -0.01649429 -0.01736711
v 0.03163889 -0.01649429 -0.02047190
v 0.03110868 -0.01778524 -0.02051219
v 0.03011386 -0.01781097 -0.01990867
v 0.02882934 -0.01881957 -0.01986649
v 0.01105377 -0.02106980 -0.01281723
v 0.00756096 -0.02255589 -0.01281723
v 0.00568611 -0.02310558 -0.01281723
v 0.00503018 -0.02321924 -0.01281723
v 0.01331671 -0.01967877 -0.01281723
v 0.03023958 -0.01649429 -0.01956942
v 0.03080805 -0.01649429 -0.01992179
v 0.01144732 -0.02084034 -0.01281723
f 1 2 3
f 1 3 4
f 1 4 5
f 1 5 20
f 1 20 6
f 1 6 7
f 1 7 8
f 1 8 9
f 1 9 10
f 1 10 11
f 1 11 12
f 1 12 13
f 1 13 2
f 2 13 14
f 2 14 15
f 2 15 16
f 2 16 3
f 3 16 4
f 4 16 17
f 4 17 18
f 4 18 19
f 4 19 5
f 5 19 27
f 5 27 20
f 6 20 28
f 6 28 21
f 6 21 7
f 7 22 9
f 7 9 8
f 7 21 22
f 9 22 10
f 10 12 11
f 10 22 23
f 10 23 12
f 12 23 42
f 12 42 41
f 12 41 40
f 12 40 58
f 12 58 57
f 12 57 56
f 12 56 55
f 12 55 62
f 12 62 59
f 12 59 43
f 12 43 25
f 12 25 24
f 12 24 17
f 12 17 16
f 12 16 15
f 12 15 14
f 12 14 13
f 17 24 18
f 18 25 26
f 18 26 50
f 18 50 49
f 18 49 48
f 18 48 47
f 18 47 46
f 18 46 45
f 18 45 60
f 18 60 61
f 18 61 51
f 18 51 29
f 18 29 27
f 18 27 19
f 18 24 25
f 20 27 28
f 21 28 29
f 21 29 30
f 21 30 31
f 21 31 32
f 21 32 33
f 21 33 34
f 21 34 35
f 21 35 36
f 21 36 37
f 21 37 38
f 21 38 39
f 21 39 40
f 21 40 22
f 22 40 41
f 22 41 42
f 22 42 23
f 25 43 44
f 25 44 45
f 25 45 46
f 25 46 47
f 25 47 48
f 25 48 49
f 25 49 50
f 25 50 26
f 27 29 28
f 29 51 30
f 30 51 52
f 30 52 31
f 31 52 32
f 32 52 53
f 32 53 54
f 32 54 33
f 33 54 34
f 34 54 55
f 34 55 56
f 34 56 35
f 35 56 57
f 35 57 36
f 36 57 58
f 36 58 37
f 37 58 40
f 37 40 38
f 38 40 39
f 43 59 54
f 43 54 44
f 44 54 53
f 44 53 60
f 44 60 45
f 51 61 52
f 52 61 60
f 52 60 53
f 54 59 62
f 54 62 55

