# https://github.com/mikedh/trimesh
v -0.01690036 -0.01749107 -0.02251730
v -0.01690036 -0.01169872 -0.02251730
v -0.01689098 -0.01749277 -0.02251730
v -0.02501966 -0.01749334 -0.02249918
v -0.01631219 -0.01169872 -0.02251730
v -0.02501966 -0.01169928 -0.02249918
v -0.01999805 -0.01169872 -0.02249857
v -0.01631219 -0.01749277 -0.02251730
v -0.02501966 -0.01749334 -0.01826069
v -0.01999805 -0.01749334 -0.02249918
v -0.01631219 -0.01169872 -0.01634652
v -0.02501966 -0.01169928 -0.01705807
v -0.01999805 -0.01169872 -0.01634652
v -0.01631219 -0.01749277 -0.01728760
v -0.02385866 -0.01749334 -0.01794720
v -0.02260731 -0.01653702 -0.01730633
v -0.02501966 -0.01666237 -0.01799854
v -0.01999805 -0.01749334 -0.01743317
v -0.01631219 -0.01643889 -0.01634652
v -0.02501966 -0.01268339 -0.01720243
v -0.02414252 -0.01169928 -0.01681887
v -0.02349212 -0.01169928 -0.01664189
v -0.02176512 -0.01169928 -0.01645283
v -0.02136704 -0.01169928 -0.01641236
v -0.02085217 -0.01169928 -0.01637491
v -0.02037823 -0.01169928 -0.01634652
v -0.01690888 -0.01749277 -0.01729968
v -0.02285280 -0.01749334 -0.01769170
v -0.02293037 -0.01482688 -0.01695116
v -0.02501966 -0.01493408 -0.01753525
v -0.02501966 -0.01573725 -0.01774304
v -0.02245899 -0.01749334 -0.01761921
v -0.02196629 -0.01749334 -0.01754733
v -0.01861628 -0.01749220 -0.01733894
v -0.01816194 -0.01492614 -0.01634652
v -0.01826252 -0.01482405 -0.01634652
v -0.01871175 -0.01425343 -0.01634652
v -0.01909449 -0.01374861 -0.01634652
v -0.01954456 -0.01309802 -0.01634652
f 1 2 5
f 1 5 8
f 1 8 3
f 1 3 4
f 1 4 6
f 1 6 2
f 2 6 7
f 2 7 13
f 2 13 11
f 2 11 5
f 3 8 10
f 3 10 4
f 4 9 17
f 4 17 31
f 4 31 30
f 4 30 20
f 4 20 12
f 4 12 6
f 4 10 18
f 4 18 33
f 4 33 32
f 4 32 28
f 4 28 15
f 4 15 9
f 5 11 19
f 5 19 14
f 5 14 8
f 6 12 13
f 6 13 7
f 8 14 18
f 8 18 10
f 9 15 16
f 9 16 17
f 11 13 26
f 11 26 39
f 11 39 38
f 11 38 37
f 11 37 36
f 11 36 35
f 11 35 19
f 12 20 21
f 12 21 13
f 13 21 22
f 13 22 23
f 13 23 24
f 13 24 25
f 13 25 26
f 14 19 27
f 14 27 18
f 15 28 16
f 16 29 30
f 16 30 31
f 16 31 17
f 16 28 32
f 16 32 19
f 16 19 29
f 18 27 34
f 18 34 33
f 19 35 29
f 19 32 33
f 19 33 34
f 19 34 27
f 20 30 29
f 20 29 22
f 20 22 21
f 22 29 36
f 22 36 23
f 23 36 37
f 23 37 24
f 24 37 38
f 24 38 39
f 24 39 25
f 25 39 26
f 29 35 36

