# https://github.com/mikedh/trimesh
v 0.03680321 0.00094972 -0.08249275
v 0.03680321 0.01023917 -0.08249275
v 0.04285634 0.00094972 -0.08249275
v 0.03600456 0.00094972 -0.05484410
v 0.03600759 0.00095072 -0.05497612
v 0.03603105 0.01023917 -0.05524869
v 0.04014394 0.01116291 -0.05579809
v 0.04011139 0.01023917 -0.08249275
v 0.04285558 0.00104369 -0.08249275
v 0.04311297 0.00094972 -0.07988632
v 0.03680397 0.00094972 -0.03899680
v 0.03581833 0.01023817 -0.03898403
v 0.03601894 0.01023917 -0.05463541
v 0.03600683 0.00186347 -0.05488243
v 0.04022570 0.01114692 -0.05579809
v 0.03671464 0.01023917 -0.03898828
v 0.03783125 0.01023917 -0.03898828
v 0.04020072 0.01023917 -0.08168357
v 0.04014470 0.01017419 -0.08249275
v 0.04232037 0.00373095 -0.08249275
v 0.04310918 0.00104369 -0.07990335
v 0.04314628 0.00094972 -0.07932841
v 0.03991078 0.00094972 -0.03898828
v 0.03671464 0.00928443 -0.03898403
v 0.03671464 0.01023817 -0.03898403
v 0.04030821 0.01109593 -0.05579809
v 0.04103419 0.01023817 -0.06967352
v 0.04101754 0.01023817 -0.07000571
v 0.04073063 0.01023817 -0.07569558
v 0.04030745 0.01023917 -0.08070402
v 0.03871241 0.01023917 -0.04238261
v 0.03911136 0.01023917 -0.04411172
v 0.03889486 0.00884255 -0.03898828
v 0.04039981 0.00961834 -0.08249275
v 0.04197517 0.00537550 -0.08249275
v 0.04234459 0.00491863 -0.07932841
v 0.04291236 0.00221637 -0.07932841
v 0.04301531 0.00310412 -0.07569132
v 0.04353160 0.00104469 -0.07261641
v 0.04353084 0.00094972 -0.07268455
v 0.04140589 0.00094972 -0.03898828
v 0.04140967 0.00104469 -0.03898828
v 0.04138923 0.00177449 -0.03898828
v 0.04135517 0.00229335 -0.03898828
v 0.04124237 0.00304014 -0.03898828
v 0.04094032 0.00470469 -0.03898828
v 0.04017044 0.00682410 -0.03898828
v 0.03992743 0.00722000 -0.03898828
v 0.04035590 0.01103695 -0.05579809
v 0.04107961 0.01023817 -0.06089597
v 0.04108416 0.01023817 -0.06127501
v 0.04108567 0.01023817 -0.06147944
v 0.04110081 0.01023817 -0.06770166
v 0.03953984 0.01023917 -0.04620283
v 0.04001449 0.01023917 -0.04920534
v 0.04105918 0.01014319 -0.07000571
v 0.04136350 0.00897452 -0.07403036
v 0.04112731 0.00784383 -0.08249275
v 0.04053835 0.00931442 -0.08249275
v 0.03944067 0.00980629 -0.04392007
v 0.04171248 0.00625926 -0.08249275
v 0.04167388 0.00676312 -0.08099363
v 0.04214171 0.00560044 -0.07932841
v 0.04248843 0.00473868 -0.07808907
v 0.04206904 0.00721700 -0.07162409
v 0.04315233 0.00322409 -0.07044012
v 0.04354598 0.00104469 -0.06446491
v 0.04355204 0.00094972 -0.06473748
v 0.04353236 0.00094972 -0.07259086
v 0.04156259 0.00094972 -0.04001893
v 0.04157092 0.00104469 -0.04005726
v 0.04180560 0.00256627 -0.04270203
v 0.04116970 0.00493862 -0.04062370
v 0.04055652 0.00746793 -0.04250186
v 0.04037559 0.01101196 -0.05579809
v 0.04110081 0.01019818 -0.06085764
v 0.04160347 0.00903350 -0.06624512
v 0.04091080 0.00842567 -0.04791490
v 0.04050882 0.01023917 -0.05283391
v 0.04194262 0.00705204 -0.07553374
v 0.04192748 0.00703205 -0.07598518
v 0.04235519 0.00528753 -0.07758226
v 0.04206904 0.00752391 -0.06749298
v 0.04214020 0.00729198 -0.06768888
v 0.04216291 0.00726298 -0.06402625
v 0.04312962 0.00330507 -0.06606199
v 0.04354750 0.00094972 -0.06443936
v 0.04302818 0.00333906 -0.06226733
v 0.04299185 0.00333406 -0.06140278
v 0.04288435 0.00332207 -0.05888152
v 0.04337187 0.00104469 -0.06140278
v 0.04238396 0.00094972 -0.04816191
v 0.04222801 0.00104369 -0.04661168
v 0.04221969 0.00148057 -0.04661168
v 0.04135744 0.00522854 -0.04268074
v 0.04221514 0.00289018 -0.04752308
v 0.04162164 0.00563643 -0.04558103
v 0.04053986 0.01068905 -0.05544460
v 0.04057695 0.01065805 -0.05579809
v 0.04061632 0.01044811 -0.05475892
v 0.04061556 0.01049810 -0.05505704
v 0.04102284 0.01023817 -0.05985680
v 0.04110081 0.01007821 -0.05985680
v 0.04186237 0.00772086 -0.05814473
v 0.04124313 0.00980729 -0.06127501
v 0.04201907 0.00772086 -0.06460120
v 0.04088506 0.00857662 -0.04838338
v 0.04167917 0.00576639 -0.04661168
v 0.04192899 0.00633324 -0.05112184
v 0.04122799 0.00890953 -0.05359625
v 0.04106674 0.00923044 -0.05305537
v 0.04060042 0.01023917 -0.05359625
v 0.04190552 0.00772086 -0.05985680
v 0.04212733 0.00705204 -0.05985680
v 0.04210462 0.00692208 -0.05726740
v 0.04337414 0.00095172 -0.06140278
v 0.04309177 0.00094972 -0.05648377
v 0.04268450 0.00425181 -0.05845989
v 0.04277155 0.00326708 -0.05676060
v 0.04272386 0.00324409 -0.05586623
v 0.04257397 0.00316811 -0.05305537
v 0.04310388 0.00104469 -0.05676060
v 0.04292371 0.00104469 -0.05448209
v 0.04238472 0.00104469 -0.04817895
v 0.04256261 0.00316411 -0.05285520
v 0.04307739 0.00104469 -0.05631341
v 0.04301077 0.00131961 -0.05586623
v 0.04068066 0.01023917 -0.05431174
v 0.04069808 0.01023917 -0.05448209
v 0.04070868 0.01023917 -0.05459282
v 0.04072609 0.01023917 -0.05478873
v 0.04061935 0.01048110 -0.05499742
v 0.04072836 0.01023917 -0.05482706
v 0.04109930 0.00970931 -0.05676060
v 0.04205314 0.00705204 -0.05710131
v 0.04130596 0.00891153 -0.05498890
v 0.04179954 0.00773086 -0.05676060
v 0.04198577 0.00651719 -0.05305537
v 0.04109703 0.00938540 -0.05405195
v 0.04202665 0.00665515 -0.05448209
v 0.04128098 0.00891153 -0.05448209
v 0.04209251 0.00687109 -0.05676060
v 0.04109778 0.00943739 -0.05448209
v 0.04166706 0.00799678 -0.05586623
v 0.04123253 0.00905549 -0.05448209
f 1 2 8
f 1 8 19
f 1 19 34
f 1 34 59
f 1 59 58
f 1 58 61
f 1 61 35
f 1 35 20
f 1 20 9
f 1 9 3
f 1 3 10
f 1 10 22
f 1 22 40
f 1 40 69
f 1 69 68
f 1 68 87
f 1 87 117
f 1 117 92
f 1 92 70
f 1 70 41
f 1 41 23
f 1 23 11
f 1 11 4
f 1 4 5
f 1 5 2
f 2 6 7
f 2 7 8
f 2 5 6
f 3 9 10
f 4 11 12
f 4 12 13
f 4 13 14
f 4 14 5
f 5 14 6
f 6 14 13
f 6 13 7
f 7 15 8
f 7 13 12
f 7 12 16
f 7 16 17
f 7 17 15
f 8 15 18
f 8 18 19
f 9 20 21
f 9 21 10
f 10 21 22
f 11 23 12
f 12 23 24
f 12 24 25
f 12 25 17
f 12 17 16
f 15 26 27
f 15 27 28
f 15 28 29
f 15 29 30
f 15 30 18
f 15 17 31
f 15 31 32
f 15 32 26
f 17 25 33
f 17 33 31
f 18 30 19
f 19 30 34
f 20 35 21
f 21 36 37
f 21 37 38
f 21 38 39
f 21 39 22
f 21 35 36
f 22 39 40
f 23 41 24
f 24 41 42
f 24 42 25
f 25 42 43
f 25 43 44
f 25 44 45
f 25 45 46
f 25 46 47
f 25 47 48
f 25 48 33
f 26 49 50
f 26 50 51
f 26 51 52
f 26 52 53
f 26 53 27
f 26 32 54
f 26 54 55
f 26 55 49
f 27 53 56
f 27 56 28
f 28 56 29
f 29 56 57
f 29 57 58
f 29 58 59
f 29 59 30
f 30 59 34
f 31 33 60
f 31 60 32
f 32 60 54
f 33 48 60
f 35 61 62
f 35 62 36
f 36 62 63
f 36 63 64
f 36 64 37
f 37 64 38
f 38 64 65
f 38 65 66
f 38 66 39
f 39 66 67
f 39 67 68
f 39 68 69
f 39 69 40
f 41 70 42
f 42 70 71
f 42 71 43
f 43 71 72
f 43 72 44
f 44 72 45
f 45 72 73
f 45 73 46
f 46 73 47
f 47 73 74
f 47 74 60
f 47 60 48
f 49 75 50
f 49 55 75
f 50 76 51
f 50 75 76
f 51 76 52
f 52 76 77
f 52 77 53
f 53 77 56
f 54 60 78
f 54 78 55
f 55 78 79
f 55 79 75
f 56 77 57
f 57 65 80
f 57 80 81
f 57 81 62
f 57 62 58
f 57 77 65
f 58 62 61
f 60 74 78
f 62 81 82
f 62 82 63
f 63 82 64
f 64 82 65
f 65 82 80
f 65 77 83
f 65 83 84
f 65 84 66
f 66 84 85
f 66 85 86
f 66 86 67
f 67 87 68
f 67 86 88
f 67 88 89
f 67 89 90
f 67 90 91
f 67 91 87
f 70 92 71
f 71 92 93
f 71 93 94
f 71 94 72
f 72 95 73
f 72 94 96
f 72 96 97
f 72 97 95
f 73 95 74
f 74 95 97
f 74 97 78
f 75 98 99
f 75 99 76
f 75 79 100
f 75 100 98
f 76 99 101
f 76 101 102
f 76 102 103
f 76 103 104
f 76 104 105
f 76 105 77
f 77 106 83
f 77 105 106
f 78 107 79
f 78 97 108
f 78 108 109
f 78 109 110
f 78 110 111
f 78 111 107
f 79 112 100
f 79 107 112
f 80 82 81
f 83 106 84
f 84 106 85
f 85 105 113
f 85 113 104
f 85 104 114
f 85 114 86
f 85 106 105
f 86 114 115
f 86 115 88
f 87 91 116
f 87 116 117
f 88 115 118
f 88 118 89
f 89 118 90
f 90 119 91
f 90 118 109
f 90 109 119
f 91 119 120
f 91 120 121
f 91 121 122
f 91 122 117
f 91 117 116
f 92 123 124
f 92 124 93
f 92 117 123
f 93 124 94
f 94 124 96
f 96 125 109
f 96 109 108
f 96 108 97
f 96 124 123
f 96 123 126
f 96 126 127
f 96 127 125
f 98 101 99
f 98 100 101
f 100 112 128
f 100 128 129
f 100 129 130
f 100 130 131
f 100 131 132
f 100 132 101
f 101 132 131
f 101 131 133
f 101 133 102
f 102 133 103
f 103 134 104
f 103 133 134
f 104 135 115
f 104 115 114
f 104 113 105
f 104 134 136
f 104 136 137
f 104 137 135
f 107 111 128
f 107 128 112
f 109 138 110
f 109 125 121
f 109 121 120
f 109 120 119
f 109 118 138
f 110 139 111
f 110 138 140
f 110 140 141
f 110 141 139
f 111 139 128
f 115 135 142
f 115 142 118
f 117 122 126
f 117 126 123
f 118 142 140
f 118 140 138
f 121 125 127
f 121 127 122
f 122 127 126
f 128 139 129
f 129 139 130
f 130 139 131
f 131 143 133
f 131 139 143
f 133 143 134
f 134 143 136
f 135 137 144
f 135 144 142
f 136 143 139
f 136 139 145
f 136 145 144
f 136 144 137
f 139 141 145
f 140 142 144
f 140 144 141
f 141 144 145

