# https://github.com/mikedh/trimesh
v -0.01902609 -0.01650426 -0.08183771
v -0.01700261 -0.01650426 -0.08183229
v -0.01902609 -0.01650426 -0.05953140
v -0.02276787 -0.01650255 -0.08183771
v -0.02276455 -0.01650255 -0.09057146
v -0.00989389 -0.01650255 -0.09057146
v -0.01700261 -0.01650426 -0.05953140
v -0.01902609 -0.01449849 -0.05953140
v -0.02276787 -0.01650255 -0.05953682
v -0.02330360 -0.01445578 -0.08833106
v -0.02276455 -0.01649743 -0.09299087
v -0.01735091 -0.01649743 -0.09299629
v -0.00675583 -0.01448824 -0.08384485
v -0.00989389 -0.01650255 -0.05953682
v -0.01530753 -0.01649743 -0.09299629
v -0.00989389 -0.01649743 -0.09299087
v -0.00675915 -0.01448824 -0.09753133
v -0.01130037 -0.01650255 -0.05953140
v -0.02276787 -0.01449849 -0.05953682
v -0.01130037 -0.01449849 -0.05953140
v -0.00989223 0.00094972 -0.05955310
v -0.02330360 0.00094630 -0.05955852
v -0.02330360 -0.01445578 -0.05955852
v -0.02330194 -0.01445578 -0.09049009
v -0.02370000 -0.00844359 -0.10472989
v -0.02370000 -0.00843846 -0.10567921
v -0.02275460 -0.01599855 -0.09749878
v -0.02199663 -0.01599855 -0.10519641
v -0.00675583 0.00094972 -0.08384485
v -0.00675583 -0.01448824 -0.05955310
v -0.00989389 -0.01449849 -0.05953682
v -0.01248792 -0.01599855 -0.10519641
v -0.01120251 -0.01599513 -0.10520184
v -0.00675915 0.00094972 -0.09753133
v -0.01120251 -0.01525535 -0.10892317
v -0.01120251 -0.01313853 -0.11208577
v -0.01120251 -0.01123868 -0.11336057
v -0.01120251 -0.00997440 -0.11420139
v -0.01120251 -0.00625330 -0.11495000
v -0.00675583 0.00094972 -0.05955310
v -0.00989223 0.00094972 -0.08384485
v -0.02330360 0.00094801 -0.06778777
v -0.02370000 -0.00475153 -0.10616743
v -0.02370000 -0.00630455 -0.10321098
v -0.02370000 -0.00724251 -0.10334117
v -0.02370000 -0.00800963 -0.10388906
v -0.02370000 -0.00799767 -0.10652003
v -0.02199497 -0.01525193 -0.10892860
v -0.02199663 -0.01539374 -0.10822881
v -0.01248626 -0.01525535 -0.10892317
v -0.00841774 0.00094972 -0.09753133
v -0.01120251 -0.00364955 -0.11406578
v -0.01120251 -0.00098430 -0.11298626
v -0.01170175 -0.00098430 -0.11349076
v -0.01120417 0.00094630 -0.10137201
v -0.01483980 0.00094801 -0.10137201
v -0.01248792 -0.01313853 -0.11209119
v -0.02199663 -0.01313853 -0.11209119
v -0.02199663 -0.00997440 -0.11420139
v -0.01248626 -0.00625330 -0.11495000
v -0.01248792 -0.00359659 -0.11457570
v -0.01170175 -0.00359317 -0.11457027
v -0.01170175 -0.00350775 -0.11454857
v -0.02330194 0.00094801 -0.09049009
v -0.02330360 0.00094801 -0.08023200
v -0.02199663 -0.00112781 -0.11299711
v -0.02370000 -0.00539392 -0.10686179
v -0.02330360 0.00094630 -0.08179431
v -0.02275460 0.00094630 -0.09749878
v -0.02370000 -0.00722543 -0.10706251
v -0.02199497 0.00094801 -0.10137201
v -0.01248626 -0.00098430 -0.11349076
v -0.01248626 -0.00351629 -0.11455400
v -0.02199663 -0.00625671 -0.11494457
v -0.02149407 -0.00359659 -0.11457570
v -0.02149407 -0.00112781 -0.11349618
v -0.02149407 -0.00350945 -0.11454857
v -0.02199663 -0.00364955 -0.11407120
v -0.02370000 -0.00628576 -0.10718727
f 1 2 7
f 1 7 3
f 1 3 9
f 1 9 4
f 1 4 5
f 1 5 6
f 1 6 2
f 2 6 14
f 2 14 7
f 3 7 18
f 3 18 20
f 3 20 8
f 3 8 19
f 3 19 9
f 4 10 5
f 4 9 23
f 4 23 10
f 5 10 11
f 5 11 12
f 5 12 15
f 5 15 6
f 6 13 30
f 6 30 14
f 6 15 16
f 6 16 17
f 6 17 13
f 7 14 18
f 8 20 40
f 8 40 21
f 8 21 22
f 8 22 19
f 9 19 22
f 9 22 23
f 10 24 11
f 10 23 25
f 10 25 26
f 10 26 24
f 11 24 27
f 11 27 28
f 11 28 12
f 12 28 32
f 12 32 15
f 13 17 34
f 13 34 29
f 13 29 40
f 13 40 30
f 14 30 40
f 14 40 31
f 14 31 20
f 14 20 18
f 15 32 16
f 16 32 33
f 16 33 17
f 17 33 35
f 17 35 36
f 17 36 37
f 17 37 38
f 17 38 39
f 17 39 34
f 20 31 40
f 21 40 29
f 21 29 34
f 21 34 51
f 21 51 41
f 21 41 65
f 21 65 42
f 21 42 22
f 22 42 43
f 22 43 44
f 22 44 23
f 23 44 45
f 23 45 46
f 23 46 25
f 24 26 27
f 25 46 45
f 25 45 44
f 25 44 43
f 25 43 67
f 25 67 79
f 25 79 70
f 25 70 47
f 25 47 26
f 26 47 48
f 26 48 27
f 27 48 49
f 27 49 28
f 28 49 50
f 28 50 35
f 28 35 32
f 32 35 33
f 34 39 52
f 34 52 53
f 34 53 54
f 34 54 55
f 34 55 56
f 34 56 71
f 34 71 51
f 35 50 48
f 35 48 57
f 35 57 36
f 36 57 37
f 37 57 58
f 37 58 59
f 37 59 38
f 38 59 60
f 38 60 39
f 39 60 75
f 39 75 61
f 39 61 62
f 39 62 63
f 39 63 52
f 41 51 64
f 41 64 65
f 42 65 43
f 43 66 67
f 43 65 68
f 43 68 64
f 43 64 69
f 43 69 66
f 47 70 58
f 47 58 48
f 48 58 57
f 48 50 49
f 51 71 64
f 52 63 53
f 53 63 54
f 54 72 71
f 54 71 56
f 54 56 55
f 54 63 73
f 54 73 72
f 58 70 59
f 59 74 60
f 59 70 74
f 60 74 75
f 61 75 73
f 61 73 63
f 61 63 62
f 64 68 65
f 64 71 69
f 66 71 76
f 66 76 77
f 66 77 78
f 66 78 67
f 66 69 71
f 67 78 79
f 70 79 74
f 71 72 76
f 72 73 77
f 72 77 76
f 73 75 77
f 74 78 77
f 74 77 75
f 74 79 78

