# https://github.com/mikedh/trimesh
v 0.02439045 -0.00391488 0.00000000
v 0.02459462 -0.00391488 -0.00020149
v 0.02459993 -0.00383999 -0.00636672
v 0.01879923 -0.00391488 0.00000000
v 0.02318777 -0.00879494 0.00000000
v 0.02337493 -0.00886650 -0.00020149
v 0.02465204 -0.00391488 -0.00190578
v 0.02465948 -0.00387660 -0.00363703
v 0.01861101 -0.00383999 -0.00636672
v 0.02465948 -0.00387660 -0.00582900
v 0.02462758 -0.00387660 -0.00617679
v 0.02340683 -0.00383999 -0.01299140
v 0.01858974 -0.00391488 -0.00020149
v 0.01379712 -0.01329550 0.00000000
v 0.02265396 -0.00981189 0.00000000
v 0.02040918 -0.01408610 -0.00000128
v 0.02057294 -0.01419761 -0.00020149
v 0.02294958 -0.00981189 -0.00212908
v 0.02337493 -0.00886650 -0.00363703
v 0.02427135 -0.00598541 -0.00582900
v 0.01860888 -0.00383999 -0.01291825
v 0.01379712 -0.01304584 -0.00019892
v 0.02424158 -0.00597709 -0.00617679
v 0.01861101 -0.00383999 -0.01299140
v 0.02420755 -0.00597542 -0.00636672
v 0.02302720 -0.00587389 -0.01299140
v 0.02155975 -0.00981023 -0.01310947
v 0.01379605 -0.01570058 -0.00000128
v 0.01379605 -0.01651614 0.00000000
v 0.02224456 -0.01059083 0.00000000
v 0.01644066 -0.01748149 0.00000000
v 0.01756571 -0.01729841 -0.00000128
v 0.01854721 -0.01649117 -0.00020149
v 0.01911505 -0.01611169 -0.00287856
v 0.01941492 -0.01574551 -0.00349457
v 0.01991364 -0.01508807 -0.00261291
v 0.01960739 -0.01550584 -0.00422865
v 0.01967119 -0.01542595 -0.00500123
v 0.02057294 -0.01419761 -0.00349457
v 0.02213397 -0.01161944 -0.00582514
v 0.02224456 -0.01133649 -0.00472531
v 0.01822075 -0.01711533 -0.00210599
v 0.01878115 -0.01649117 -0.00231774
v 0.02294958 -0.00981189 -0.00582514
v 0.02337280 -0.00886650 -0.00582900
v 0.02409696 -0.00644812 -0.00617679
v 0.01860888 -0.00383999 -0.01293621
v 0.01379605 -0.01304751 -0.01281558
v 0.01379605 -0.01306415 -0.00661056
v 0.01763802 -0.00981023 -0.01310947
v 0.01763590 -0.00659126 -0.01299140
v 0.02334409 -0.00885485 -0.00617679
v 0.02222010 -0.00842877 -0.01299140
v 0.02084197 -0.01137810 -0.01310947
v 0.01840578 -0.01489667 -0.01311075
v 0.01379605 -0.01748149 0.00000000
v 0.01379605 -0.02039089 -0.00000128
v 0.01644598 -0.01856170 -0.00000128
v 0.01763802 -0.01751811 -0.00020149
v 0.01959888 -0.01551583 -0.00582514
v 0.01878753 -0.01649117 -0.00249741
v 0.02057187 -0.01419761 -0.00582514
v 0.02210739 -0.01160779 -0.00617679
v 0.02224350 -0.01137144 -0.00586236
v 0.02054848 -0.01418097 -0.00617679
v 0.01870778 -0.01657938 -0.00240116
v 0.01657890 -0.01871149 -0.00020149
v 0.01763483 -0.01771784 -0.00193017
v 0.01763802 -0.01771784 -0.00200845
v 0.02292831 -0.00981189 -0.00605358
v 0.01763802 -0.01489667 -0.01311075
v 0.01379605 -0.01930569 -0.01281558
v 0.01954253 -0.01348691 -0.01310947
v 0.01936282 -0.01372825 -0.01310947
v 0.01763802 -0.01584871 -0.01311075
v 0.01379605 -0.02063222 -0.00020149
v 0.01642790 -0.01880803 -0.00019507
v 0.01950212 -0.01559239 -0.00617679
v 0.01574522 -0.01941887 -0.00349971
v 0.01611102 -0.01911595 -0.00288113
v 0.01657890 -0.01871149 -0.00240886
v 0.01682773 -0.01848514 -0.00107545
v 0.01711910 -0.01821716 -0.00210214
v 0.01552084 -0.01959530 -0.00582771
v 0.01559741 -0.01949710 -0.00617679
v 0.01539324 -0.01810232 -0.01281558
v 0.01379605 -0.01954869 -0.01179275
v 0.01935963 -0.01489667 -0.00914904
v 0.01897681 -0.01597021 -0.00711748
v 0.01734879 -0.01628645 -0.01281301
v 0.01721905 -0.01641960 -0.01281301
v 0.01590791 -0.01769454 -0.01281558
v 0.01578031 -0.01780938 -0.01281558
v 0.01379605 -0.02070046 -0.00194300
v 0.01763802 -0.01722351 -0.00795808
v 0.01839515 -0.01649117 -0.00766419
v 0.01852062 -0.01637133 -0.00758334
v 0.01491579 -0.01999309 -0.00360751
v 0.01379605 -0.02084360 -0.00579050
v 0.01551021 -0.01960695 -0.00422352
v 0.01543152 -0.01966853 -0.00501663
v 0.01539537 -0.01969516 -0.00501663
v 0.01379605 -0.02084194 -0.00582771
v 0.01379605 -0.02080699 -0.00615497
v 0.01379605 -0.02080366 -0.00617679
v 0.01568248 -0.01935562 -0.00650147
v 0.01597384 -0.01896948 -0.00712005
v 0.01638643 -0.01850178 -0.00759618
v 0.01688515 -0.01797749 -0.00790033
v 0.01763802 -0.01655608 -0.01059281
v 0.01742854 -0.01742491 -0.00800043
v 0.01627478 -0.01837695 -0.00855227
v 0.01798256 -0.01687731 -0.00789776
f 1 2 3
f 1 3 9
f 1 9 4
f 1 4 14
f 1 14 29
f 1 29 56
f 1 56 31
f 1 31 30
f 1 30 15
f 1 15 5
f 1 5 6
f 1 6 2
f 2 7 8
f 2 8 3
f 2 6 7
f 3 8 10
f 3 10 11
f 3 11 12
f 3 12 24
f 3 24 47
f 3 47 21
f 3 21 9
f 4 9 13
f 4 13 14
f 5 15 6
f 6 15 16
f 6 16 17
f 6 17 18
f 6 18 44
f 6 44 19
f 6 19 20
f 6 20 7
f 7 20 8
f 8 20 10
f 9 21 22
f 9 22 13
f 10 20 23
f 10 23 11
f 11 23 12
f 12 23 25
f 12 25 26
f 12 26 27
f 12 27 50
f 12 50 24
f 13 22 14
f 14 22 28
f 14 28 29
f 15 30 16
f 16 30 31
f 16 31 32
f 16 32 33
f 16 33 17
f 17 34 35
f 17 35 36
f 17 36 37
f 17 37 38
f 17 38 39
f 17 39 40
f 17 40 41
f 17 41 18
f 17 33 42
f 17 42 43
f 17 43 34
f 18 41 40
f 18 40 44
f 19 45 20
f 19 44 45
f 20 45 46
f 20 46 23
f 21 47 48
f 21 48 22
f 22 48 49
f 22 49 28
f 23 46 25
f 24 50 51
f 24 51 48
f 24 48 47
f 25 46 26
f 26 46 52
f 26 52 53
f 26 53 27
f 27 53 54
f 27 54 55
f 27 55 71
f 27 71 50
f 28 49 48
f 28 48 72
f 28 72 87
f 28 87 105
f 28 105 104
f 28 104 103
f 28 103 99
f 28 99 94
f 28 94 76
f 28 76 57
f 28 57 56
f 28 56 29
f 31 56 57
f 31 57 58
f 31 58 32
f 32 58 59
f 32 59 33
f 33 59 42
f 34 60 35
f 34 43 61
f 34 61 60
f 35 60 37
f 35 37 36
f 37 60 38
f 38 60 62
f 38 62 39
f 39 62 40
f 40 63 64
f 40 64 44
f 40 62 65
f 40 65 63
f 42 61 66
f 42 66 43
f 42 59 67
f 42 67 68
f 42 68 69
f 42 69 60
f 42 60 61
f 43 66 61
f 44 64 70
f 44 70 45
f 45 70 52
f 45 52 46
f 48 51 50
f 48 50 71
f 48 71 75
f 48 75 72
f 52 70 63
f 52 63 53
f 53 63 54
f 54 63 65
f 54 65 73
f 54 73 55
f 55 73 74
f 55 74 75
f 55 75 71
f 57 76 77
f 57 77 58
f 58 77 67
f 58 67 59
f 60 69 78
f 60 78 65
f 60 65 62
f 63 70 64
f 65 78 73
f 67 79 80
f 67 80 81
f 67 81 82
f 67 82 69
f 67 69 68
f 67 77 76
f 67 76 79
f 69 82 83
f 69 83 84
f 69 84 85
f 69 85 78
f 72 75 86
f 72 86 87
f 73 78 74
f 74 78 88
f 74 88 89
f 74 89 75
f 75 89 90
f 75 90 91
f 75 91 92
f 75 92 93
f 75 93 86
f 76 94 79
f 78 89 88
f 78 85 95
f 78 95 96
f 78 96 97
f 78 97 89
f 79 84 80
f 79 94 98
f 79 98 99
f 79 99 100
f 79 100 84
f 80 84 81
f 81 84 83
f 81 83 82
f 84 100 101
f 84 101 102
f 84 102 99
f 84 99 103
f 84 103 104
f 84 104 85
f 85 104 105
f 85 105 87
f 85 87 86
f 85 86 93
f 85 93 106
f 85 106 107
f 85 107 108
f 85 108 109
f 85 109 95
f 89 97 90
f 90 97 96
f 90 96 110
f 90 110 91
f 91 110 95
f 91 95 111
f 91 111 92
f 92 111 109
f 92 109 112
f 92 112 93
f 93 112 107
f 93 107 106
f 94 99 98
f 95 109 111
f 95 110 113
f 95 113 96
f 96 113 110
f 99 102 100
f 100 102 101
f 107 112 108
f 108 112 109

