# https://github.com/mikedh/trimesh
v -0.00816301 -0.00930451 -0.04279598
v -0.00989076 -0.00930351 -0.04279598
v -0.00816301 -0.00916800 -0.04281111
v -0.00551045 -0.00930451 -0.04279598
v -0.00816301 -0.00930451 -0.01300035
v -0.00989076 -0.00930351 -0.01308508
v -0.00989076 -0.00311243 -0.04337700
v -0.00816301 -0.00547022 -0.04315912
v -0.00551045 -0.00704408 -0.04301083
v -0.00551045 -0.00547022 -0.04315912
v -0.00304941 -0.00547022 -0.04315609
v -0.00304941 -0.00930351 -0.04278992
v -0.00551045 -0.00930451 -0.01300337
v -0.00727838 -0.00930451 -0.01300035
v -0.00989076 -0.00900138 -0.01284298
v -0.00988942 -0.00930351 -0.01300640
v -0.00989076 -0.00101360 -0.04357370
v -0.00816301 0.00094871 -0.04375830
v -0.00727838 0.00094871 -0.04375830
v -0.00304941 0.00094972 -0.04375527
v -0.00304941 -0.00930351 -0.01300640
v -0.00959945 -0.00892409 -0.01284298
v -0.00989076 -0.00399873 -0.01284298
v -0.00989076 0.00094972 -0.04375527
v -0.00304941 0.00094972 -0.02316524
v -0.00304941 -0.00340954 -0.01300640
v -0.00305008 -0.00340753 -0.01300337
v -0.00819984 -0.00649905 -0.01284298
v -0.00857486 -0.00789827 -0.01284298
v -0.00875969 -0.00808396 -0.01284298
v -0.00989076 0.00094972 -0.01284904
v -0.00959945 -0.00407602 -0.01284298
v -0.00834717 0.00094972 -0.01284904
v -0.00305008 0.00094972 -0.01300337
v -0.00857486 -0.00509883 -0.01284298
f 1 2 3
f 1 3 4
f 1 4 13
f 1 13 14
f 1 14 5
f 1 5 6
f 1 6 2
f 2 6 15
f 2 15 23
f 2 23 31
f 2 31 24
f 2 24 17
f 2 17 7
f 2 7 8
f 2 8 3
f 3 9 4
f 3 8 10
f 3 10 9
f 4 9 11
f 4 11 12
f 4 12 21
f 4 21 13
f 5 14 15
f 5 15 16
f 5 16 6
f 6 16 15
f 7 17 8
f 8 17 18
f 8 18 19
f 8 19 10
f 9 10 11
f 10 19 20
f 10 20 11
f 11 20 25
f 11 25 26
f 11 26 21
f 11 21 12
f 13 21 14
f 14 21 15
f 15 21 22
f 15 22 30
f 15 30 29
f 15 29 28
f 15 28 35
f 15 35 32
f 15 32 23
f 17 24 18
f 18 24 20
f 18 20 19
f 20 24 31
f 20 31 33
f 20 33 34
f 20 34 25
f 21 26 34
f 21 34 27
f 21 27 28
f 21 28 29
f 21 29 30
f 21 30 22
f 23 32 33
f 23 33 31
f 25 34 26
f 27 34 28
f 28 33 35
f 28 34 33
f 32 35 33

