# https://github.com/mikedh/trimesh
v -0.02276993 -0.01590612 -0.05952984
v -0.02427085 0.00094621 -0.05691207
v -0.02427307 -0.01445097 -0.05690808
v -0.02276993 -0.01650323 -0.05952984
v -0.02276993 -0.01450000 -0.05953383
v -0.02500241 0.00094621 -0.05617495
v -0.02330804 0.00094797 -0.05955375
v -0.02498240 -0.00148077 -0.05619487
v -0.02500464 -0.01445097 -0.05617495
v -0.02502243 -0.01449125 -0.05617495
v -0.02600303 -0.01449125 -0.05591596
v -0.02502243 -0.01650323 -0.05952984
v -0.03850851 -0.01693925 -0.08645270
v -0.02276993 -0.01650323 -0.09057261
v -0.02276993 -0.01445447 -0.05954976
v -0.02502243 -0.01445097 -0.05616698
v -0.02673681 0.00094797 -0.05610322
v -0.02502243 0.00094621 -0.05616698
v -0.04303575 0.00094972 -0.05956172
v -0.02330804 0.00094797 -0.09048893
v -0.02600303 -0.00211291 -0.05590400
v -0.04548392 -0.01449650 -0.05945812
v -0.04154372 -0.01693925 -0.08645270
v -0.03850851 -0.01693925 -0.08805046
v -0.02276993 -0.01649973 -0.09299515
v -0.02276993 -0.01445447 -0.09048495
v -0.04399634 0.00094972 -0.05953781
v -0.04548392 0.00094972 -0.05953781
v -0.02600303 0.00094621 -0.05590799
v -0.04303575 0.00094972 -0.09448931
v -0.02276993 -0.01600242 -0.09299515
v -0.02676350 0.00094446 -0.09452916
v -0.03120624 0.00094621 -0.09659708
v -0.04548392 -0.00832747 -0.05945812
v -0.04548392 -0.01449650 -0.09448134
v -0.04154372 -0.01693925 -0.08805046
v -0.02450210 -0.01649973 -0.09299515
v -0.03120401 -0.01599892 -0.09660106
v -0.03000549 -0.00800352 -0.09660106
v -0.04548392 0.00094972 -0.09448134
v -0.04153927 0.00094797 -0.09660106
v -0.04309134 0.00094972 -0.09448931
v -0.03000549 -0.00544695 -0.09660106
v -0.03028567 -0.00458543 -0.09660106
v -0.03056806 -0.00386573 -0.09660106
v -0.03119734 -0.00330539 -0.09660106
v -0.04199510 -0.01599717 -0.09660106
v -0.04153927 -0.01599892 -0.09660106
v -0.04199510 0.00094797 -0.09660106
f 1 2 3
f 1 3 4
f 1 4 14
f 1 14 25
f 1 25 31
f 1 31 26
f 1 26 15
f 1 15 5
f 1 5 2
f 2 6 3
f 2 5 7
f 2 7 6
f 3 6 8
f 3 8 9
f 3 9 10
f 3 10 4
f 4 10 11
f 4 11 12
f 4 12 23
f 4 23 13
f 4 13 24
f 4 24 14
f 5 15 7
f 6 16 9
f 6 9 8
f 6 7 17
f 6 17 18
f 6 18 16
f 7 19 17
f 7 15 26
f 7 26 20
f 7 20 30
f 7 30 19
f 9 16 10
f 10 16 11
f 11 16 21
f 11 21 22
f 11 22 12
f 12 22 23
f 13 23 36
f 13 36 24
f 14 24 25
f 16 18 21
f 17 27 28
f 17 28 29
f 17 29 18
f 17 19 27
f 18 29 21
f 19 30 42
f 19 42 40
f 19 40 28
f 19 28 27
f 20 31 32
f 20 32 33
f 20 33 30
f 20 26 31
f 21 29 34
f 21 34 22
f 22 34 28
f 22 28 40
f 22 40 35
f 22 35 36
f 22 36 23
f 24 36 37
f 24 37 25
f 25 37 48
f 25 48 38
f 25 38 39
f 25 39 43
f 25 43 31
f 28 34 29
f 30 33 41
f 30 41 49
f 30 49 42
f 31 43 32
f 32 43 33
f 33 43 44
f 33 44 45
f 33 45 46
f 33 46 41
f 35 40 49
f 35 49 47
f 35 47 36
f 36 47 37
f 37 47 48
f 38 48 47
f 38 47 49
f 38 49 41
f 38 41 46
f 38 46 45
f 38 45 44
f 38 44 43
f 38 43 39
f 40 42 49

