# https://github.com/mikedh/trimesh
v 0.03499506 0.01450779 -0.08403510
v 0.03500815 0.01297893 -0.08495494
v 0.03507126 0.00095217 -0.08543794
v 0.03507126 0.00095217 -0.08436259
v 0.03499506 0.01463212 -0.08315042
v 0.03499506 0.01630374 -0.08403510
v 0.03499660 0.01636975 -0.08403510
v 0.03507357 0.01297893 -0.08549564
v 0.03508204 0.00095217 -0.08552861
v 0.03508358 0.00095217 -0.08426588
v 0.03499583 0.01481786 -0.08180912
v 0.03499506 0.01650176 -0.08315042
v 0.03499506 0.01643115 -0.08362793
v 0.03515362 0.01650022 -0.08252290
v 0.03547767 0.01604893 -0.08403510
v 0.03679463 0.01297893 -0.08729302
v 0.03590485 0.01297893 -0.08729302
v 0.03527370 0.01297893 -0.08602644
v 0.03508512 0.01023741 -0.08553080
v 0.03511514 0.00095217 -0.08561872
v 0.03511899 0.00095217 -0.08417742
v 0.03679386 0.01298046 -0.08180637
v 0.03499583 0.01663070 -0.08180912
v 0.03559005 0.00095217 -0.08334219
v 0.03565008 0.00095217 -0.08323999
v 0.03571243 0.00095217 -0.08315536
v 0.03572320 0.00095217 -0.08314492
v 0.03581172 0.00095217 -0.08308063
v 0.03680387 0.00095217 -0.08249323
v 0.03499583 0.01658772 -0.08256521
v 0.03521751 0.01650483 -0.08180912
v 0.03636360 0.01564676 -0.08180912
v 0.03639207 0.01562527 -0.08180912
v 0.03638746 0.01562374 -0.08186352
v 0.03589716 0.01573426 -0.08403510
v 0.03559851 0.01596297 -0.08403510
v 0.03951322 0.01023894 -0.08741885
v 0.03680541 0.01023894 -0.08741885
v 0.03680387 0.00767242 -0.08741995
v 0.03680387 0.00521948 -0.08741995
v 0.03680387 0.00095217 -0.08741885
v 0.03607573 0.00095217 -0.08694354
v 0.03596258 0.00095217 -0.08686661
v 0.03571243 0.00095217 -0.08664517
v 0.03564469 0.00095217 -0.08655121
v 0.03559082 0.00095217 -0.08645779
v 0.03790069 0.01399510 -0.08180912
v 0.03776138 0.01417162 -0.08180912
v 0.03744965 0.01455537 -0.08180912
v 0.03645211 0.01556694 -0.08180912
v 0.04285758 0.00095217 -0.08249323
v 0.03662837 0.01520775 -0.08315042
v 0.03618349 0.01555006 -0.08361968
v 0.03664608 0.01517705 -0.08324548
v 0.03591948 0.01571123 -0.08403510
v 0.03978262 0.01023894 -0.08538519
v 0.03976722 0.00979226 -0.08741885
v 0.04070626 0.00767242 -0.08741995
v 0.03731495 0.01449704 -0.08304437
v 0.03731957 0.01450779 -0.08300206
v 0.03773059 0.01399510 -0.08302459
v 0.03773521 0.01399510 -0.08300755
v 0.03784989 0.01399510 -0.08219815
v 0.04155601 0.00521948 -0.08741995
v 0.04236343 0.00095217 -0.08741885
v 0.04010974 0.01023894 -0.08249433
v 0.03981571 0.01023894 -0.08511539
v 0.04285681 0.00101204 -0.08249323
v 0.04285527 0.00104427 -0.08249323
v 0.04237498 0.00345883 -0.08249323
v 0.04232033 0.00372899 -0.08249378
v 0.04218409 0.00437984 -0.08249378
v 0.04200706 0.00521948 -0.08249378
v 0.04197319 0.00537605 -0.08249378
v 0.04189930 0.00562933 -0.08249378
v 0.04171226 0.00626328 -0.08249378
v 0.04119194 0.00767242 -0.08249378
v 0.04112421 0.00784741 -0.08249433
v 0.04068933 0.00893726 -0.08249433
v 0.04053846 0.00931487 -0.08249433
v 0.04014284 0.01017294 -0.08249433
v 0.04239807 0.00095217 -0.08715070
v 0.04269133 0.00101204 -0.08417137
v 0.03665224 0.01516017 -0.08327790
v 0.03701553 0.01479790 -0.08315042
v 0.03994118 0.00994269 -0.08532859
v 0.04005047 0.00919514 -0.08741885
v 0.04079786 0.00767242 -0.08649461
v 0.04110189 0.00684966 -0.08649461
v 0.04119656 0.00634464 -0.08741995
v 0.04016901 0.00893726 -0.08741885
v 0.04052461 0.00816208 -0.08741885
v 0.04149598 0.00552648 -0.08741995
v 0.04229108 0.00146026 -0.08741885
v 0.04236343 0.00104427 -0.08741885
v 0.04248043 0.00104427 -0.08630284
v 0.04237498 0.00345883 -0.08249378
v 0.04188314 0.00521795 -0.08392575
v 0.04194625 0.00521948 -0.08320152
v 0.04189160 0.00547736 -0.08320097
v 0.04172996 0.00602382 -0.08320152
v 0.04155063 0.00562779 -0.08649461
v 0.04069164 0.00870394 -0.08367903
v 0.04060235 0.00893726 -0.08351088
v 0.04055001 0.00893726 -0.08399279
v 0.04239499 0.00104427 -0.08716773
v 0.04157448 0.00556179 -0.08649461
v 0.04175844 0.00564007 -0.08433292
f 1 2 3
f 1 3 4
f 1 4 5
f 1 5 12
f 1 12 13
f 1 13 6
f 1 6 2
f 2 6 7
f 2 7 8
f 2 8 9
f 2 9 3
f 3 9 20
f 3 20 46
f 3 46 45
f 3 45 44
f 3 44 43
f 3 43 42
f 3 42 41
f 3 41 65
f 3 65 82
f 3 82 51
f 3 51 29
f 3 29 28
f 3 28 27
f 3 27 26
f 3 26 25
f 3 25 24
f 3 24 21
f 3 21 10
f 3 10 4
f 4 10 11
f 4 11 5
f 5 11 23
f 5 23 12
f 6 13 7
f 7 13 14
f 7 14 15
f 7 15 16
f 7 16 17
f 7 17 18
f 7 18 8
f 8 18 19
f 8 19 9
f 9 19 20
f 10 21 11
f 11 22 23
f 11 21 24
f 11 24 25
f 11 25 26
f 11 26 27
f 11 27 28
f 11 28 29
f 11 29 22
f 12 23 30
f 12 30 14
f 12 14 13
f 14 30 31
f 14 31 32
f 14 32 33
f 14 33 34
f 14 34 35
f 14 35 36
f 14 36 15
f 15 36 16
f 16 36 35
f 16 35 37
f 16 37 38
f 16 38 17
f 17 38 39
f 17 39 40
f 17 40 41
f 17 41 42
f 17 42 43
f 17 43 44
f 17 44 45
f 17 45 46
f 17 46 20
f 17 20 18
f 18 20 19
f 22 47 48
f 22 48 49
f 22 49 50
f 22 50 33
f 22 33 32
f 22 32 31
f 22 31 23
f 22 29 51
f 22 51 47
f 23 31 30
f 33 50 34
f 34 50 52
f 34 52 53
f 34 53 35
f 35 53 54
f 35 54 55
f 35 55 37
f 37 56 57
f 37 57 58
f 37 58 39
f 37 39 38
f 37 55 59
f 37 59 60
f 37 60 61
f 37 61 62
f 37 62 63
f 37 63 56
f 39 58 90
f 39 90 93
f 39 93 64
f 39 64 40
f 40 64 65
f 40 65 41
f 47 66 67
f 47 67 56
f 47 56 63
f 47 63 48
f 47 51 68
f 47 68 69
f 47 69 70
f 47 70 71
f 47 71 72
f 47 72 73
f 47 73 74
f 47 74 75
f 47 75 76
f 47 76 77
f 47 77 78
f 47 78 79
f 47 79 80
f 47 80 81
f 47 81 66
f 48 63 49
f 49 63 60
f 49 60 54
f 49 54 50
f 50 54 52
f 51 82 83
f 51 83 68
f 52 54 53
f 54 60 84
f 54 84 55
f 55 84 85
f 55 85 59
f 56 67 57
f 57 67 86
f 57 86 87
f 57 87 58
f 58 88 89
f 58 89 90
f 58 87 91
f 58 91 92
f 58 92 88
f 59 85 60
f 60 85 84
f 60 63 62
f 60 62 61
f 64 93 69
f 64 69 94
f 64 94 95
f 64 95 65
f 65 95 82
f 66 81 86
f 66 86 67
f 68 83 96
f 68 96 69
f 69 96 94
f 69 93 97
f 69 97 70
f 70 97 71
f 71 97 93
f 71 93 98
f 71 98 72
f 72 98 99
f 72 99 73
f 73 99 100
f 73 100 74
f 74 100 75
f 75 100 76
f 76 100 101
f 76 101 102
f 76 102 90
f 76 90 89
f 76 89 77
f 77 89 88
f 77 88 103
f 77 103 78
f 78 103 79
f 79 103 80
f 80 103 104
f 80 104 81
f 81 104 105
f 81 105 86
f 82 95 106
f 82 106 96
f 82 96 83
f 86 105 92
f 86 92 91
f 86 91 87
f 88 92 103
f 90 102 93
f 92 105 103
f 93 102 107
f 93 107 98
f 94 96 106
f 94 106 95
f 98 107 108
f 98 108 99
f 99 108 100
f 100 108 101
f 101 108 102
f 102 108 107
f 103 105 104

