# https://github.com/mikedh/trimesh
v -0.02309852 0.01399870 -0.04164827
v -0.02309852 0.01024248 -0.04164827
v -0.02309852 0.01659427 -0.04165217
v -0.02310036 0.01399870 -0.03912424
v -0.02310036 0.01024185 -0.03912424
v -0.02310036 0.01023999 -0.04315684
v -0.02309852 0.01023999 -0.05318476
v -0.02309852 0.01659427 -0.04315100
v -0.02664948 0.01659427 -0.04164048
v -0.02675256 0.01441046 -0.03912424
v -0.02403734 0.01024185 -0.03912424
v -0.03796136 0.01023999 -0.03917881
v -0.02674336 0.01023999 -0.03918271
v -0.02309852 0.01023999 -0.05903389
v -0.02309852 0.01399870 -0.05903389
v -0.02310220 0.01659427 -0.05314968
v -0.02954326 0.01659427 -0.04164048
v -0.02825100 0.01441046 -0.03912424
v -0.02825100 0.01400181 -0.03912424
v -0.04048882 0.01023999 -0.03917881
v -0.04049435 0.01023999 -0.05903389
v -0.04036365 0.01430907 -0.05903389
v -0.02954510 0.01659427 -0.05316137
v -0.03607636 0.01430907 -0.03917881
v -0.03507495 0.01659427 -0.05224726
v -0.03859461 0.01556861 -0.05224726
v -0.03718638 0.01379344 -0.03917881
v -0.03743857 0.01365473 -0.03917881
v -0.03764842 0.01353407 -0.03917881
v -0.03800002 0.01332881 -0.03917881
v -0.03847496 0.01303834 -0.03917881
v -0.03972488 0.01225276 -0.03917881
v -0.04017956 0.01192248 -0.03917881
v -0.04042992 0.01171038 -0.03917881
v -0.04048882 0.01165938 -0.03917881
v -0.04190442 0.01430907 -0.05316137
v -0.04049250 0.01024185 -0.04098169
v -0.04049250 0.01023999 -0.04362462
v -0.04049435 0.01430907 -0.05903389
v -0.04049435 0.01023999 -0.05315163
v -0.03539709 0.01659427 -0.05316137
v -0.03878606 0.01550516 -0.05224726
v -0.03652184 0.01430907 -0.04012800
v -0.03737782 0.01391348 -0.04012800
v -0.03862959 0.01568554 -0.05316137
v -0.03905482 0.01554746 -0.05316137
v -0.04049250 0.01335742 -0.04520725
v -0.04049250 0.01295375 -0.04362462
v -0.04049250 0.01246361 -0.04170479
v -0.04021638 0.01218123 -0.04005199
v -0.04048882 0.01191999 -0.03996623
v -0.04049250 0.01223783 -0.04098169
v -0.04181422 0.01430907 -0.05286901
v -0.04183079 0.01435323 -0.05316137
v -0.03776992 0.01430907 -0.04304770
v -0.03657706 0.01430907 -0.04024885
v -0.03740360 0.01393028 -0.04026249
f 1 2 7
f 1 7 14
f 1 14 15
f 1 15 8
f 1 8 3
f 1 3 4
f 1 4 5
f 1 5 2
f 2 5 6
f 2 6 7
f 3 8 16
f 3 16 23
f 3 23 41
f 3 41 25
f 3 25 17
f 3 17 9
f 3 9 10
f 3 10 4
f 4 10 18
f 4 18 19
f 4 19 11
f 4 11 5
f 5 11 20
f 5 20 12
f 5 12 13
f 5 13 6
f 6 13 12
f 6 12 20
f 6 20 38
f 6 38 40
f 6 40 21
f 6 21 14
f 6 14 7
f 8 15 16
f 9 17 18
f 9 18 10
f 11 19 20
f 14 21 39
f 14 39 22
f 14 22 15
f 15 22 16
f 16 22 23
f 17 24 18
f 17 25 26
f 17 26 24
f 18 24 27
f 18 27 28
f 18 28 29
f 18 29 30
f 18 30 31
f 18 31 32
f 18 32 33
f 18 33 34
f 18 34 35
f 18 35 20
f 18 20 19
f 20 35 36
f 20 36 37
f 20 37 38
f 21 36 39
f 21 40 36
f 22 39 41
f 22 41 23
f 24 26 42
f 24 42 43
f 24 43 44
f 24 44 27
f 25 41 45
f 25 45 26
f 26 45 46
f 26 46 42
f 27 44 28
f 28 44 47
f 28 47 29
f 29 47 30
f 30 47 48
f 30 48 49
f 30 49 31
f 31 49 32
f 32 49 50
f 32 50 33
f 33 50 34
f 34 50 51
f 34 51 35
f 35 51 36
f 36 51 52
f 36 52 49
f 36 49 53
f 36 53 54
f 36 54 39
f 36 40 38
f 36 38 37
f 39 54 46
f 39 46 45
f 39 45 41
f 42 46 54
f 42 54 53
f 42 53 55
f 42 55 56
f 42 56 43
f 43 56 57
f 43 57 44
f 44 57 47
f 47 57 53
f 47 53 48
f 48 53 49
f 49 52 50
f 50 52 51
f 53 57 55
f 55 57 56

