# https://github.com/mikedh/trimesh
v -0.04549066 -0.01989098 -0.07224392
v -0.04549066 -0.01987874 -0.07007827
v -0.04686987 -0.01908314 -0.07134950
v -0.04549066 -0.01984814 -0.07614456
v -0.04549020 -0.01654537 -0.09187963
v -0.04549066 -0.01977062 -0.06323352
v -0.04669511 -0.01913414 -0.06795818
v -0.04761504 -0.01820185 -0.07132880
v -0.04684128 -0.01901990 -0.07661661
v -0.04549066 -0.01984202 -0.07661661
v -0.04708383 -0.01837933 -0.06100990
v -0.04549066 -0.01947074 -0.08800798
v -0.04549020 -0.01599457 -0.09449662
v -0.04549020 -0.00477658 -0.06499336
v -0.04549066 -0.01933406 -0.05426866
v -0.04549066 -0.01933814 -0.05428523
v -0.04549066 -0.01942994 -0.05548606
v -0.04549066 -0.01947074 -0.05604921
v -0.04549066 -0.01963598 -0.05956890
v -0.04549066 -0.01973390 -0.06178837
v -0.04633636 -0.01923206 -0.06107615
v -0.04804020 -0.01725937 -0.06812795
v -0.04811767 -0.01720837 -0.07091057
v -0.04758138 -0.01812433 -0.07661661
v -0.04681316 -0.01895054 -0.08158144
v -0.04549112 -0.01967882 -0.08688582
v -0.04576503 -0.01931366 -0.05591256
v -0.04703726 -0.01752253 -0.05573451
v -0.04722401 -0.01748989 -0.05719207
v -0.04760951 -0.01740625 -0.06095193
v -0.04773355 -0.01737157 -0.06250887
v -0.04549112 -0.01964414 -0.08770984
v -0.04550081 -0.01599457 -0.09449662
v -0.04707092 -0.00836495 -0.09602044
v -0.04550035 -0.00924011 -0.09580512
v -0.04550035 -0.00493774 -0.09651320
v -0.04550035 -0.00350158 -0.09656703
v -0.04549020 -0.00124329 -0.09449662
v -0.04549020 -0.00329146 -0.06499336
v -0.04549066 -0.01641277 -0.05426452
v -0.04716776 -0.01641277 -0.05426452
v -0.04585495 -0.01884038 -0.05426866
v -0.04865718 -0.01426872 -0.06233496
v -0.04899841 -0.01412592 -0.07087745
v -0.04834592 -0.01641277 -0.07090643
v -0.04805772 -0.01704109 -0.08115908
v -0.04754772 -0.01804681 -0.08160214
v -0.04692890 -0.01837117 -0.08800798
v -0.04646409 -0.01886078 -0.08903075
v -0.04624275 -0.01908926 -0.08868293
v -0.04678503 -0.01756333 -0.05426866
v -0.04761228 -0.01509085 -0.05426452
v -0.04769989 -0.01479912 -0.05426452
v -0.04832010 -0.01186764 -0.09451733
v -0.04843676 -0.01074971 -0.09497696
v -0.04861660 -0.00837923 -0.09563535
v -0.04696210 -0.01819165 -0.08994173
v -0.04743982 -0.01714309 -0.09113429
v -0.04751175 -0.01689217 -0.09139930
v -0.04764271 -0.01629649 -0.09187963
v -0.04788388 -0.01516837 -0.09277405
v -0.04819744 -0.01304268 -0.09403285
v -0.04719958 -0.00595162 -0.09642210
v -0.04732638 -0.00350158 -0.09656703
v -0.04550035 -0.00148809 -0.09656703
v -0.04549112 0.00094971 -0.09449248
v -0.04549020 -0.00124329 -0.09187963
v -0.04549020 -0.00240813 -0.06803685
v -0.04549066 -0.00329146 -0.05427281
v -0.04549066 -0.00477862 -0.05426452
v -0.04780503 -0.01442988 -0.05426452
v -0.04817346 -0.01248168 -0.05426452
v -0.04854374 -0.01185132 -0.05682354
v -0.04925018 -0.01063139 -0.06169728
v -0.04927369 -0.01147800 -0.06570144
v -0.04930459 -0.01256532 -0.07088987
v -0.04854374 -0.01571917 -0.07090643
v -0.04876646 -0.01401984 -0.08354004
v -0.04747579 -0.01744297 -0.08800798
v -0.04847273 -0.01074155 -0.09451733
v -0.04874802 -0.00597814 -0.09602872
v -0.04868208 -0.00858119 -0.09451733
v -0.04941941 -0.00350362 -0.09005354
v -0.04932257 -0.01052531 -0.08358559
v -0.04854374 -0.01167996 -0.09187963
v -0.04887206 -0.00350158 -0.09617779
v -0.04732684 -0.00148197 -0.09656703
v -0.04570093 0.00094971 -0.09656703
v -0.04549112 0.00085995 -0.08746553
v -0.04549297 0.00094971 -0.06078630
v -0.04549251 0.00094768 -0.05965586
v -0.04549066 -0.00088425 -0.07604932
v -0.04549297 0.00094768 -0.05427281
v -0.04549297 -0.00123921 -0.05426452
v -0.04839757 -0.01075379 -0.05426452
v -0.04983857 -0.00679006 -0.06502649
v -0.04941157 -0.01058651 -0.06570144
v -0.04843307 -0.01047431 -0.05426452
v -0.04939681 -0.00876071 -0.06092708
v -0.04940972 -0.00873623 -0.06101818
v -0.04962184 -0.01052327 -0.07091057
v -0.04955821 -0.01059059 -0.07723359
v -0.04902054 -0.00350158 -0.09451733
v -0.04984133 -0.00350362 -0.08392100
v -0.04981643 0.00094768 -0.08445930
v -0.04902561 0.00094971 -0.09451733
v -0.04889512 0.00094971 -0.09616537
v -0.05004146 -0.00350362 -0.07982574
v -0.04889465 0.00094971 -0.09616951
v -0.04887206 -0.00148197 -0.09617779
v -0.04732684 0.00094971 -0.09656703
v -0.04962599 0.00094971 -0.06078630
v -0.04895229 0.00094768 -0.05427281
v -0.04893892 -0.00123921 -0.05426452
v -0.05008296 -0.00350362 -0.06619005
v -0.05011616 -0.00529678 -0.07098511
v -0.05001610 -0.00675130 -0.07096441
v -0.04984594 -0.00863627 -0.07093956
v -0.04983119 -0.00876071 -0.07093128
v -0.04947382 -0.00683494 -0.05999540
v -0.04990312 -0.00493978 -0.06406168
v -0.04992341 -0.00477658 -0.06429356
v -0.04998244 -0.00430942 -0.06499336
v -0.04855435 -0.00894431 -0.05426452
v -0.04887529 -0.00499894 -0.05426866
v -0.04861337 -0.00832823 -0.05427281
v -0.04946644 -0.00638206 -0.05963515
v -0.04982842 -0.00876071 -0.07132880
v -0.04971499 -0.00876071 -0.07684850
v -0.04971775 0.00094971 -0.08571397
v -0.04995892 0.00094971 -0.08132885
v -0.04985932 0.00094971 -0.08351520
v -0.05016227 -0.00350362 -0.07572634
v -0.05004930 -0.00329146 -0.07961870
v -0.05008757 0.00094971 -0.07843857
v -0.05005760 0.00094768 -0.07912594
v -0.04993125 0.00094971 -0.06405340
v -0.04915887 0.00094768 -0.05573037
v -0.04917086 -0.00350362 -0.05571795
v -0.04895183 -0.00329146 -0.05426452
v -0.04966150 -0.00350362 -0.06002439
v -0.04990819 -0.00150237 -0.06340329
v -0.04993632 0.00094971 -0.06415692
v -0.05002763 -0.00089853 -0.06563104
v -0.05004423 -0.00123921 -0.06590020
v -0.05005714 -0.00150237 -0.06611552
v -0.05020101 -0.00350362 -0.07100167
v -0.05014106 -0.00477658 -0.07098511
v -0.05013092 -0.00477658 -0.07231431
v -0.05010555 -0.00477658 -0.07385469
v -0.04895229 -0.00350362 -0.05427281
v -0.04944062 -0.00496834 -0.05854612
v -0.05016504 -0.00350362 -0.07557313
v -0.05015997 -0.00329146 -0.07581329
v -0.05015720 -0.00329146 -0.07594580
v -0.05012031 -0.00187977 -0.07743235
v -0.05010740 -0.00123921 -0.07789612
v -0.05010048 -0.00035181 -0.07807832
v -0.05012400 0.00094971 -0.07604932
v -0.05001840 0.00094971 -0.06694368
v -0.05017703 0.00094971 -0.07242197
v -0.05019317 -0.00150237 -0.07167248
v -0.05017564 0.00094768 -0.07259588
f 1 2 3
f 1 3 4
f 1 4 5
f 1 5 2
f 2 6 7
f 2 7 3
f 2 5 6
f 3 8 9
f 3 9 10
f 3 10 4
f 3 7 11
f 3 11 8
f 4 10 5
f 5 10 12
f 5 12 13
f 5 13 38
f 5 38 67
f 5 67 68
f 5 68 39
f 5 39 14
f 5 14 15
f 5 15 16
f 5 16 17
f 5 17 18
f 5 18 19
f 5 19 20
f 5 20 6
f 6 20 21
f 6 21 7
f 7 21 11
f 8 11 22
f 8 22 23
f 8 23 24
f 8 24 25
f 8 25 9
f 9 25 26
f 9 26 10
f 10 26 12
f 11 21 27
f 11 27 28
f 11 28 29
f 11 29 30
f 11 30 31
f 11 31 22
f 12 26 32
f 12 32 13
f 13 33 34
f 13 34 35
f 13 35 36
f 13 36 37
f 13 37 65
f 13 65 38
f 13 32 33
f 14 39 70
f 14 70 40
f 14 40 15
f 15 41 42
f 15 42 16
f 15 40 41
f 16 42 27
f 16 27 17
f 17 27 18
f 18 27 19
f 19 27 21
f 19 21 20
f 22 31 43
f 22 43 44
f 22 44 45
f 22 45 23
f 23 45 46
f 23 46 24
f 24 46 47
f 24 47 25
f 25 47 48
f 25 48 49
f 25 49 50
f 25 50 26
f 26 50 32
f 27 42 51
f 27 51 28
f 28 51 52
f 28 52 29
f 29 52 53
f 29 53 43
f 29 43 30
f 30 43 31
f 32 50 33
f 33 54 55
f 33 55 56
f 33 56 34
f 33 50 49
f 33 49 57
f 33 57 58
f 33 58 59
f 33 59 60
f 33 60 61
f 33 61 62
f 33 62 54
f 34 56 63
f 34 63 36
f 34 36 35
f 36 63 64
f 36 64 37
f 37 64 87
f 37 87 111
f 37 111 88
f 37 88 65
f 38 66 67
f 38 65 66
f 39 68 69
f 39 69 70
f 40 70 94
f 40 94 114
f 40 114 140
f 40 140 124
f 40 124 98
f 40 98 95
f 40 95 72
f 40 72 71
f 40 71 53
f 40 53 52
f 40 52 41
f 41 51 42
f 41 52 51
f 43 53 71
f 43 71 72
f 43 72 73
f 43 73 74
f 43 74 75
f 43 75 76
f 43 76 44
f 44 77 45
f 44 76 78
f 44 78 46
f 44 46 77
f 45 77 46
f 46 78 59
f 46 59 58
f 46 58 79
f 46 79 47
f 47 79 57
f 47 57 48
f 48 57 49
f 54 62 80
f 54 80 55
f 55 80 56
f 56 81 63
f 56 80 82
f 56 82 83
f 56 83 81
f 57 79 58
f 59 78 60
f 60 78 61
f 61 78 62
f 62 78 84
f 62 84 85
f 62 85 80
f 63 81 86
f 63 86 64
f 64 86 87
f 65 88 66
f 66 89 67
f 66 88 111
f 66 111 109
f 66 109 107
f 66 107 106
f 66 106 130
f 66 130 132
f 66 132 131
f 66 131 135
f 66 135 159
f 66 159 161
f 66 161 160
f 66 160 143
f 66 143 137
f 66 137 112
f 66 112 90
f 66 90 91
f 66 91 89
f 67 89 68
f 68 91 69
f 68 89 92
f 68 92 91
f 69 91 93
f 69 93 70
f 70 93 94
f 72 95 73
f 73 95 74
f 74 96 97
f 74 97 75
f 74 95 98
f 74 98 99
f 74 99 100
f 74 100 96
f 75 97 101
f 75 101 76
f 76 101 102
f 76 102 78
f 78 102 84
f 80 85 84
f 80 84 82
f 81 83 103
f 81 103 86
f 82 84 83
f 83 84 104
f 83 104 105
f 83 105 106
f 83 106 107
f 83 107 103
f 84 102 108
f 84 108 104
f 86 107 109
f 86 109 110
f 86 110 111
f 86 111 87
f 86 103 107
f 89 91 92
f 90 112 113
f 90 113 93
f 90 93 91
f 93 113 114
f 93 114 94
f 96 115 116
f 96 116 117
f 96 117 118
f 96 118 119
f 96 119 101
f 96 101 97
f 96 100 120
f 96 120 121
f 96 121 122
f 96 122 123
f 96 123 115
f 98 124 125
f 98 125 126
f 98 126 127
f 98 127 120
f 98 120 99
f 99 120 100
f 101 119 118
f 101 118 128
f 101 128 102
f 102 129 108
f 102 128 117
f 102 117 129
f 104 108 105
f 105 130 106
f 105 108 131
f 105 131 132
f 105 132 130
f 108 129 133
f 108 133 134
f 108 134 135
f 108 135 136
f 108 136 131
f 109 111 110
f 112 137 138
f 112 138 113
f 113 138 139
f 113 139 140
f 113 140 114
f 115 123 141
f 115 141 142
f 115 142 137
f 115 137 143
f 115 143 144
f 115 144 145
f 115 145 146
f 115 146 147
f 115 147 148
f 115 148 116
f 116 148 149
f 116 149 117
f 117 149 150
f 117 150 129
f 117 128 118
f 120 127 141
f 120 141 121
f 121 141 122
f 122 141 123
f 124 140 125
f 125 140 151
f 125 151 139
f 125 139 152
f 125 152 126
f 126 152 127
f 127 152 141
f 129 150 133
f 131 136 135
f 133 153 154
f 133 154 155
f 133 155 134
f 133 150 153
f 134 156 157
f 134 157 135
f 134 155 156
f 135 157 158
f 135 158 156
f 135 156 154
f 135 154 159
f 137 142 141
f 137 141 138
f 138 141 139
f 139 141 152
f 139 151 140
f 143 160 144
f 144 160 145
f 145 160 161
f 145 161 146
f 146 161 162
f 146 162 147
f 147 149 148
f 147 162 153
f 147 153 149
f 149 153 150
f 153 162 163
f 153 163 154
f 154 163 159
f 154 156 155
f 156 158 157
f 159 163 161
f 161 163 162

