# https://github.com/mikedh/trimesh
v -0.01689977 -0.01169871 -0.04257633
v -0.00989145 -0.01169871 -0.04257633
v -0.01689977 -0.01169871 -0.04238104
v -0.01690870 -0.00150048 -0.04089769
v -0.01689977 -0.00314963 -0.04337410
v -0.01689908 0.00094972 -0.04375844
v -0.00989145 -0.01169871 -0.04238104
v -0.00989145 0.00094972 -0.04375844
v -0.01239471 -0.01169748 -0.02253859
v -0.01689840 -0.01169748 -0.02254067
v -0.01690870 -0.00150048 -0.02253443
v -0.01690870 0.00094972 -0.04089769
v -0.00989145 -0.01081100 -0.02254067
v -0.00989213 -0.01169748 -0.02253859
v -0.00989145 0.00094972 -0.02253443
v -0.01689908 -0.00314840 -0.02253443
v -0.01690870 0.00094972 -0.02253443
v -0.00989145 -0.00314840 -0.02253443
f 1 2 7
f 1 7 3
f 1 3 11
f 1 11 4
f 1 4 5
f 1 5 6
f 1 6 8
f 1 8 2
f 2 8 15
f 2 15 18
f 2 18 13
f 2 13 7
f 3 7 14
f 3 14 9
f 3 9 10
f 3 10 11
f 4 12 6
f 4 6 5
f 4 11 17
f 4 17 12
f 6 12 17
f 6 17 15
f 6 15 8
f 7 13 14
f 9 14 18
f 9 18 16
f 9 16 10
f 10 16 11
f 11 16 18
f 11 18 15
f 11 15 17
f 13 18 14

