# https://github.com/mikedh/trimesh
v 0.00674983 0.01817292 -0.09786038
v 0.01350190 0.01776282 -0.09803423
v 0.00902043 0.01807911 -0.09803423
v 0.00674983 0.01790131 -0.10153490
v 0.00589195 0.01776103 -0.10343648
v 0.00586634 0.01817024 -0.09786038
v 0.03261854 0.01567657 -0.09712866
v 0.00674983 0.01777086 -0.10300216
v 0.02324588 0.01695512 -0.09803360
v 0.02324588 0.01649677 -0.10302763
v 0.00397132 0.01482151 -0.10339254
v 0.00347196 0.01765828 -0.10338935
v 0.00660044 0.01773602 -0.10344539
v 0.00674983 0.01772083 -0.10344794
v 0.00577671 0.01816578 -0.09786038
v 0.03061682 0.01496626 -0.09698219
v 0.03261854 0.01496626 -0.09698219
v 0.03613542 0.01298007 -0.09699237
v 0.03382213 0.01497876 -0.09712866
v 0.03264415 0.01487780 -0.10230610
v 0.03261854 0.01494035 -0.10198514
v 0.03260574 0.01496626 -0.10185522
v 0.03245209 0.01496626 -0.10232139
v 0.03038208 0.01496626 -0.10250861
v 0.02960102 0.01496536 -0.10257867
v 0.02783405 0.01496536 -0.10272896
v 0.02719384 0.01496536 -0.10278054
v 0.02596036 0.01496536 -0.10287416
v 0.02325441 0.01496626 -0.10303145
v 0.01986984 0.01649677 -0.10322314
v 0.00943017 0.01741705 -0.10346195
v 0.00902897 0.01746261 -0.10346004
v 0.00397132 0.01431581 -0.10338935
v 0.00180741 0.01150137 -0.10334223
v 0.00132085 0.01576413 -0.10332631
v 0.00115013 0.01724461 -0.10331994
v -0.00680980 0.01649767 -0.10290218
v -0.00680980 0.01743134 -0.09786102
v 0.01020269 0.01578378 -0.10345749
v 0.01223855 0.01150316 -0.10344285
v 0.00902043 0.01399327 -0.10343520
v 0.00902043 0.01150137 -0.10341228
v 0.00674983 0.01150137 -0.10339062
v 0.03672441 0.00991010 -0.09695608
v 0.03670307 0.00993601 -0.09695608
v 0.03648113 0.01024069 -0.09695608
v -0.00680980 0.01399773 -0.09786102
v -0.00680980 0.01150137 -0.09786739
v 0.03672441 0.01024069 -0.09695608
v 0.03656223 0.01254406 -0.09699237
v 0.03528181 0.01302474 -0.10202844
v 0.03538851 0.01371718 -0.09714649
v 0.03522206 0.01388158 -0.09714649
v 0.03507694 0.01399416 -0.09712866
v 0.03357458 0.01432921 -0.10220930
v 0.03400992 0.01399416 -0.10216409
v 0.03410809 0.01298186 -0.10215326
v 0.03493183 0.01126728 -0.10206665
v 0.03469709 0.01150227 -0.10209085
v 0.03261854 0.01150137 -0.10227617
v 0.02754808 0.01320969 -0.10274361
v 0.02667313 0.01320969 -0.10281748
v 0.02586220 0.01197759 -0.10287925
v 0.02590061 0.01320969 -0.10287798
v 0.02586220 0.01412193 -0.10288116
v 0.02325441 0.01352241 -0.10303336
v 0.01368116 0.01150316 -0.10342056
v 0.01599018 0.01649677 -0.10334732
v 0.01204222 0.01687382 -0.10344539
v 0.00181168 0.01073656 -0.10318939
v -0.00213627 0.01150137 -0.10316455
v -0.00096683 0.01576413 -0.10323524
v -0.00144058 0.01649767 -0.10321677
v -0.00213627 0.01649767 -0.10318047
v -0.00446237 0.01649767 -0.10305884
v -0.00680980 0.01440873 -0.10290218
v 0.01205929 0.01650481 -0.10344539
v 0.01205929 0.01650213 -0.10344539
v 0.00902043 0.01073656 -0.10323779
v 0.01362140 0.01578378 -0.10342247
v 0.01367262 0.01073746 -0.10326899
v 0.03672441 0.00957594 -0.09829788
v 0.03679270 0.01024247 -0.09699237
v -0.00680980 0.01073656 -0.09797055
v -0.00680980 0.01024158 -0.09830170
v 0.01600298 0.00936062 -0.09865769
v 0.01875161 0.00936062 -0.09865769
v 0.03679270 0.01225546 -0.09699237
v 0.03679270 0.01156839 -0.10135468
v 0.03679270 0.01148440 -0.10185522
v 0.03620798 0.01024069 -0.10192591
v 0.03607140 0.00996907 -0.10194183
v 0.03527327 0.01087773 -0.10202972
v 0.02586220 0.01150137 -0.10287543
v 0.02554636 0.01150137 -0.10290218
v 0.02325441 0.01150137 -0.10300343
v 0.01389456 0.01649767 -0.10341291
v 0.01358299 0.01650481 -0.10342247
v 0.00182448 0.01024069 -0.10286014
v -0.00213627 0.01073656 -0.10296522
v -0.00213627 0.01121904 -0.10310787
v 0.00898202 0.01024069 -0.10290855
v -0.00446237 0.01150137 -0.10305884
v -0.00680980 0.01150137 -0.10289453
v 0.01254158 0.01022550 -0.10292192
v 0.01360433 0.01649767 -0.10342183
v 0.01367262 0.01024158 -0.10293975
v 0.02325441 0.01073567 -0.10285059
v 0.03672441 0.00904522 -0.10186414
v 0.03679270 0.01024069 -0.09819854
v -0.00680980 0.01024158 -0.10236788
v -0.00403983 0.00950089 -0.10003962
v -0.00403983 0.00965278 -0.09927160
v 0.03679270 0.01136110 -0.10185522
v 0.03672441 0.01024069 -0.10186414
v 0.02553356 0.01073567 -0.10275061
v 0.00182875 0.01008701 -0.10275761
v -0.00403983 0.01024069 -0.10252644
v -0.00680980 0.01073656 -0.10269903
v -0.00680980 0.01117973 -0.10283021
v 0.00898202 0.01008701 -0.10280538
v 0.01254158 0.01008701 -0.10282894
v 0.01367262 0.01008701 -0.10283595
v 0.03679270 0.01024069 -0.10185395
v -0.00403983 0.00950089 -0.10100696
v 0.01600298 0.00936062 -0.10195202
v -0.00403983 0.01008701 -0.10242328
v -0.00403983 0.00965278 -0.10177307
v 0.00185009 0.00965278 -0.10210868
v -0.00228992 0.00993512 -0.10229591
f 1 2 3
f 1 3 4
f 1 4 5
f 1 5 6
f 1 6 7
f 1 7 2
f 2 8 3
f 2 7 9
f 2 9 10
f 2 10 8
f 3 8 4
f 4 8 5
f 5 11 12
f 5 12 6
f 5 8 13
f 5 13 14
f 5 14 11
f 6 12 15
f 6 15 16
f 6 16 7
f 7 16 17
f 7 17 18
f 7 18 19
f 7 19 20
f 7 20 21
f 7 21 22
f 7 22 23
f 7 23 10
f 7 10 9
f 8 10 13
f 10 23 24
f 10 24 25
f 10 25 26
f 10 26 27
f 10 27 28
f 10 28 29
f 10 29 30
f 10 30 31
f 10 31 32
f 10 32 14
f 10 14 13
f 11 33 34
f 11 34 12
f 11 14 33
f 12 34 35
f 12 35 36
f 12 36 37
f 12 37 38
f 12 38 15
f 14 32 39
f 14 39 40
f 14 40 41
f 14 41 42
f 14 42 43
f 14 43 34
f 14 34 33
f 15 38 16
f 16 44 45
f 16 45 46
f 16 46 49
f 16 49 17
f 16 38 47
f 16 47 48
f 16 48 44
f 17 49 18
f 18 49 50
f 18 50 51
f 18 51 52
f 18 52 53
f 18 53 54
f 18 54 19
f 19 54 53
f 19 53 55
f 19 55 20
f 20 55 56
f 20 56 57
f 20 57 58
f 20 58 59
f 20 59 25
f 20 25 24
f 20 24 23
f 20 23 21
f 21 23 22
f 25 60 61
f 25 61 26
f 25 59 60
f 26 61 62
f 26 62 27
f 27 62 63
f 27 63 64
f 27 64 28
f 28 64 65
f 28 65 29
f 29 65 66
f 29 66 30
f 30 67 68
f 30 68 69
f 30 69 31
f 30 66 67
f 31 69 39
f 31 39 32
f 34 70 71
f 34 71 72
f 34 72 35
f 34 43 70
f 35 72 73
f 35 73 36
f 36 73 74
f 36 74 75
f 36 75 37
f 37 76 104
f 37 104 120
f 37 120 119
f 37 119 111
f 37 111 85
f 37 85 84
f 37 84 48
f 37 48 47
f 37 47 38
f 37 75 103
f 37 103 76
f 39 69 77
f 39 77 78
f 39 78 40
f 40 79 70
f 40 70 42
f 40 42 41
f 40 78 77
f 40 77 80
f 40 80 67
f 40 67 81
f 40 81 79
f 42 70 43
f 44 82 83
f 44 83 88
f 44 88 49
f 44 49 46
f 44 46 45
f 44 48 84
f 44 84 85
f 44 85 86
f 44 86 87
f 44 87 82
f 49 88 50
f 50 88 89
f 50 89 90
f 50 90 51
f 51 91 92
f 51 92 93
f 51 93 58
f 51 58 56
f 51 56 55
f 51 55 53
f 51 53 52
f 51 90 91
f 56 58 57
f 58 60 59
f 58 93 60
f 60 93 94
f 60 94 61
f 61 94 63
f 61 63 62
f 63 94 95
f 63 95 64
f 64 95 65
f 65 95 66
f 66 95 96
f 66 96 67
f 67 80 68
f 67 96 81
f 68 80 97
f 68 97 98
f 68 98 69
f 69 98 80
f 69 80 77
f 70 99 100
f 70 100 101
f 70 101 71
f 70 79 102
f 70 102 99
f 71 73 72
f 71 101 103
f 71 103 73
f 73 103 74
f 74 103 75
f 76 103 104
f 79 81 105
f 79 105 102
f 80 98 106
f 80 106 97
f 81 107 105
f 81 96 108
f 81 108 109
f 81 109 107
f 82 109 83
f 82 87 109
f 83 109 110
f 83 110 124
f 83 124 114
f 83 114 90
f 83 90 89
f 83 89 88
f 85 111 125
f 85 125 112
f 85 112 113
f 85 113 86
f 86 113 112
f 86 112 109
f 86 109 87
f 90 114 109
f 90 109 115
f 90 115 91
f 91 109 92
f 91 115 109
f 92 109 94
f 92 94 93
f 94 109 95
f 95 109 116
f 95 116 96
f 96 116 108
f 97 106 98
f 99 117 118
f 99 118 100
f 99 102 117
f 100 118 119
f 100 119 120
f 100 120 101
f 101 120 103
f 102 105 121
f 102 121 117
f 103 120 104
f 105 122 121
f 105 107 122
f 107 123 122
f 107 109 123
f 108 116 109
f 109 114 124
f 109 124 110
f 109 112 125
f 109 125 126
f 109 126 117
f 109 117 121
f 109 121 122
f 109 122 123
f 111 119 118
f 111 118 127
f 111 127 128
f 111 128 125
f 117 129 130
f 117 130 127
f 117 127 118
f 117 126 129
f 125 128 126
f 126 128 129
f 127 130 128
f 128 130 129

