# https://github.com/mikedh/trimesh
v -0.00257825 0.02289004 -0.04162902
v 0.00347664 0.02286993 -0.04162902
v -0.00258448 0.02285769 -0.04315646
v -0.00366215 0.02276328 -0.04315646
v -0.00462769 0.02270471 -0.04162902
v 0.02174720 0.01697258 -0.03975100
v 0.02324846 0.01697258 -0.03975100
v 0.00349533 0.02283671 -0.04315646
v 0.00902695 0.02233580 -0.04162902
v 0.00951907 0.02229208 -0.04163849
v 0.02324846 0.01608788 -0.04320480
v 0.02174720 0.01608788 -0.04320480
v -0.00609158 0.02253424 -0.04315646
v -0.00856461 0.02230170 -0.04315240
v -0.00853347 0.02233842 -0.04164085
v -0.00609158 0.02256833 -0.04164085
v -0.00609158 0.02256833 -0.04162902
v 0.02174720 0.01608788 -0.03975100
v -0.01048324 0.02201059 -0.04164085
v -0.01429558 0.02135582 -0.04164085
v -0.01979606 0.02008473 -0.04164085
v -0.02502868 0.01864230 -0.04164085
v -0.02977541 0.01718850 -0.04164085
v -0.03135142 0.01659579 -0.04164085
v 0.02324846 0.01608788 -0.03975100
v 0.03151476 0.01580727 -0.04164829
v 0.03059905 0.01631518 -0.04164829
v 0.02886730 0.01708535 -0.04158778
v 0.02495529 0.01809767 -0.04109182
v 0.02078166 0.01993262 -0.04163849
v 0.01532478 0.02127452 -0.04163849
v 0.00949415 0.02225449 -0.04315680
v 0.00955644 0.02224837 -0.04315680
v 0.01538708 0.02122469 -0.04315680
v 0.02886730 0.01719724 -0.04317505
v 0.02965219 0.01686243 -0.04317505
v 0.03162065 0.01595326 -0.04317505
v 0.03198196 0.01575394 -0.04317505
v 0.02324846 0.01400117 -0.04320480
v 0.02174720 0.01400117 -0.04320480
v -0.03165666 0.01659579 -0.04315240
v -0.02988754 0.01724707 -0.04315240
v -0.02510343 0.01864230 -0.04315240
v -0.01987704 0.02004539 -0.04315240
v -0.01435164 0.02131298 -0.04315240
v -0.00957376 0.02213211 -0.04315240
v 0.02174720 0.01400117 -0.04155634
v -0.02309136 0.01408509 -0.04164998
v 0.02324846 0.01400117 -0.04155634
v 0.03151476 0.01400117 -0.04164998
v 0.03198196 0.01395921 -0.04257699
v 0.03198196 0.01567351 -0.04257699
v 0.03151476 0.01593315 -0.04257699
v 0.02958367 0.01678375 -0.04164829
v 0.02691753 0.01791846 -0.04158778
v 0.02116787 0.01981722 -0.04163849
v 0.02557823 0.01840364 -0.04158778
v 0.02496152 0.01860646 -0.04158778
v 0.02116787 0.01979799 -0.04315680
v 0.02083149 0.01989765 -0.04315680
v 0.02496152 0.01863443 -0.04315477
v 0.02517955 0.01856275 -0.04315477
v 0.02563429 0.01841238 -0.04315477
v 0.02818208 0.01748835 -0.04315477
v 0.03198196 0.01403963 -0.04317505
v 0.03198196 0.01400204 -0.04314902
v 0.00902695 0.01400029 -0.04314936
v -0.02309136 0.01408509 -0.04314969
v 0.00902695 0.01400029 -0.04164998
f 1 2 3
f 1 3 4
f 1 4 5
f 1 5 6
f 1 6 7
f 1 7 2
f 2 8 3
f 2 7 9
f 2 9 10
f 2 10 8
f 3 8 11
f 3 11 12
f 3 12 4
f 4 13 14
f 4 14 15
f 4 15 16
f 4 16 5
f 4 12 13
f 5 16 17
f 5 17 6
f 6 18 25
f 6 25 7
f 6 17 15
f 6 15 19
f 6 19 20
f 6 20 21
f 6 21 22
f 6 22 23
f 6 23 24
f 6 24 18
f 7 25 26
f 7 26 27
f 7 27 28
f 7 28 29
f 7 29 30
f 7 30 31
f 7 31 10
f 7 10 9
f 8 10 32
f 8 32 11
f 10 31 33
f 10 33 32
f 11 32 33
f 11 33 34
f 11 34 35
f 11 35 36
f 11 36 37
f 11 37 38
f 11 38 65
f 11 65 39
f 11 39 40
f 11 40 12
f 12 40 41
f 12 41 42
f 12 42 43
f 12 43 44
f 12 44 13
f 13 44 45
f 13 45 46
f 13 46 14
f 14 46 15
f 15 46 19
f 15 17 16
f 18 47 49
f 18 49 25
f 18 24 48
f 18 48 47
f 19 46 45
f 19 45 20
f 20 45 44
f 20 44 21
f 21 44 43
f 21 43 22
f 22 43 42
f 22 42 23
f 23 42 41
f 23 41 24
f 24 41 48
f 25 49 50
f 25 50 26
f 26 50 51
f 26 51 52
f 26 52 53
f 26 53 27
f 27 53 37
f 27 37 36
f 27 36 54
f 27 54 28
f 28 54 55
f 28 55 29
f 29 56 30
f 29 55 57
f 29 57 58
f 29 58 56
f 30 56 59
f 30 59 60
f 30 60 31
f 31 60 34
f 31 34 33
f 34 60 35
f 35 61 62
f 35 62 63
f 35 63 64
f 35 64 36
f 35 60 59
f 35 59 61
f 36 64 55
f 36 55 54
f 37 53 38
f 38 52 51
f 38 51 66
f 38 66 65
f 38 53 52
f 39 65 66
f 39 66 51
f 39 51 40
f 40 51 67
f 40 67 68
f 40 68 41
f 41 68 48
f 47 51 49
f 47 48 69
f 47 69 51
f 48 68 67
f 48 67 69
f 49 51 50
f 51 69 67
f 55 64 63
f 55 63 57
f 56 58 61
f 56 61 59
f 57 63 62
f 57 62 58
f 58 62 61

