# https://github.com/mikedh/trimesh
v -0.00259788 -0.02486416 -0.00350037
v 0.00140274 -0.02495841 -0.00236191
v 0.00077695 -0.02498707 -0.00210257
v -0.00000006 -0.02499980 -0.00200000
v -0.00077707 -0.02498707 -0.00210257
v -0.00147171 -0.02495586 -0.00239024
v -0.00149937 -0.02495459 -0.00240196
v -0.00212024 -0.02490937 -0.00287717
v -0.00259788 -0.02483104 -0.00254604
v -0.00259788 -0.02300395 -0.00350037
v -0.00147109 -0.02299885 -0.00414946
v 0.00169781 -0.02299885 -0.00498951
v 0.00299672 -0.02300649 -0.00498951
v 0.00368214 -0.02300649 -0.00498951
v 0.00140274 -0.02482913 -0.00020073
v -0.00000006 -0.02499980 -0.00020073
v 0.00368214 -0.02300777 -0.00352968
v 0.00368214 -0.02300777 -0.00000098
v -0.00259788 -0.02469603 -0.00038877
v -0.00259788 -0.02300267 -0.00204543
v -0.00147171 -0.01880272 -0.00019683
v -0.00147171 -0.01884156 -0.00266277
v -0.00147109 -0.01894409 -0.00414946
v 0.00169842 -0.01892499 -0.00498951
v 0.00368214 -0.01855881 -0.00498951
v 0.00140274 -0.02462916 -0.00000049
v -0.00000006 -0.02479920 -0.00000049
v -0.00147171 -0.02477118 -0.00015092
v -0.00259788 -0.02468138 -0.00019780
v -0.00259788 -0.02469157 -0.00032039
v 0.00368214 -0.01869445 -0.00000098
v -0.00014022 -0.02170543 0.00000000
v -0.00259788 -0.02300267 -0.00000098
v 0.00368214 -0.01849449 -0.00020073
v -0.00147171 -0.01899886 -0.00000147
v 0.00258608 -0.01875814 -0.00498951
v 0.00194124 -0.01887595 -0.00498951
v -0.00147171 -0.02170543 0.00000000
v -0.00147171 -0.02462025 -0.00000049
v -0.00259788 -0.02448396 -0.00000098
v -0.00259788 -0.02462852 -0.00014505
v -0.00014022 -0.01918164 0.00000000
v -0.00147171 -0.02041137 0.00000000
f 1 2 3
f 1 3 4
f 1 4 5
f 1 5 6
f 1 6 7
f 1 7 8
f 1 8 9
f 1 9 19
f 1 19 30
f 1 30 29
f 1 29 41
f 1 41 40
f 1 40 33
f 1 33 20
f 1 20 10
f 1 10 23
f 1 23 11
f 1 11 12
f 1 12 13
f 1 13 14
f 1 14 2
f 2 15 16
f 2 16 3
f 2 14 17
f 2 17 18
f 2 18 15
f 3 16 4
f 4 16 5
f 5 16 6
f 6 16 7
f 7 16 8
f 8 16 9
f 9 16 19
f 10 20 21
f 10 21 22
f 10 22 23
f 11 23 12
f 12 23 24
f 12 24 37
f 12 37 36
f 12 36 25
f 12 25 14
f 12 14 13
f 14 25 34
f 14 34 31
f 14 31 18
f 14 18 17
f 15 18 26
f 15 26 16
f 16 26 27
f 16 27 28
f 16 28 29
f 16 29 30
f 16 30 19
f 18 31 42
f 18 42 32
f 18 32 26
f 20 33 21
f 21 31 34
f 21 34 25
f 21 25 22
f 21 33 35
f 21 35 31
f 22 25 23
f 23 25 36
f 23 36 37
f 23 37 24
f 26 32 27
f 27 32 38
f 27 38 39
f 27 39 40
f 27 40 41
f 27 41 29
f 27 29 28
f 31 35 42
f 32 42 43
f 32 43 38
f 33 43 35
f 33 40 38
f 33 38 43
f 35 43 42
f 38 40 39

