# https://github.com/mikedh/trimesh
v 0.03850270 0.00773184 -0.05586226
v 0.03997707 0.00773184 -0.05586226
v 0.03850270 0.00773184 -0.05305549
v 0.03601843 0.01024154 -0.05463487
v 0.03603121 0.01024154 -0.05524352
v 0.03680370 0.01024154 -0.05903478
v 0.03744410 0.01024154 -0.05903478
v 0.03861410 0.01024241 -0.05903569
v 0.03885272 0.01331292 -0.05903569
v 0.03997707 0.00891180 -0.05586226
v 0.03997707 0.00773184 -0.05305549
v 0.03606165 0.01024154 -0.05443137
v 0.03475103 0.01331467 -0.04967214
v 0.03446797 0.01349928 -0.04967214
v 0.03375817 0.01437968 -0.05315082
v 0.03375878 0.01499361 -0.05903569
v 0.03375817 0.01443193 -0.05366964
v 0.03744471 0.01024241 -0.05903569
v 0.03786291 0.01431262 -0.05903569
v 0.03868836 0.01331292 -0.05693382
v 0.03858305 0.01279217 -0.05283733
v 0.03997707 0.00891180 -0.05305549
v 0.03725843 0.01331467 -0.04967214
v 0.03446797 0.01515209 -0.04967214
v 0.03375817 0.01596805 -0.05315082
v 0.03375878 0.01662813 -0.05903569
v 0.03375817 0.01454252 -0.05466054
v 0.03757619 0.01453468 -0.05903569
v 0.03791465 0.01414020 -0.05769372
v 0.03805954 0.01388766 -0.05674224
v 0.03867254 0.01331292 -0.05681007
v 0.03858305 0.01280785 -0.05293174
v 0.03806197 0.01331467 -0.05303807
v 0.03791709 0.01331467 -0.05224792
v 0.03759689 0.01331467 -0.05091603
v 0.03575728 0.01448766 -0.04967214
v 0.03446797 0.01542379 -0.05133586
v 0.03375878 0.01655586 -0.05829137
v 0.03375817 0.01611696 -0.05466054
v 0.03562518 0.01576341 -0.05832437
v 0.03558927 0.01584788 -0.05903569
v 0.03692667 0.01503192 -0.05903569
v 0.03742705 0.01453468 -0.05788072
v 0.03747819 0.01432917 -0.05645625
v 0.03788422 0.01348709 -0.05307382
v 0.03725843 0.01406270 -0.05348081
v 0.03577797 0.01474978 -0.05134411
v 0.03691876 0.01438055 -0.05391347
v 0.03658091 0.01449027 -0.05315082
v 0.03666248 0.01471146 -0.05496028
v 0.03682501 0.01501799 -0.05811171
v 0.03678362 0.01513381 -0.05903569
v 0.03570493 0.01578431 -0.05903569
v 0.03732661 0.01442409 -0.05631233
v 0.03706059 0.01458780 -0.05605567
v 0.03668500 0.01464092 -0.05457437
v 0.03667952 0.01465747 -0.05466054
v 0.03676718 0.01471756 -0.05550935
f 1 2 11
f 1 11 3
f 1 3 4
f 1 4 5
f 1 5 6
f 1 6 7
f 1 7 2
f 2 7 8
f 2 8 9
f 2 9 10
f 2 10 22
f 2 22 11
f 3 12 4
f 3 11 23
f 3 23 13
f 3 13 14
f 3 14 12
f 4 12 14
f 4 14 15
f 4 15 5
f 5 16 6
f 5 15 17
f 5 17 16
f 6 16 18
f 6 18 8
f 6 8 7
f 8 18 16
f 8 16 26
f 8 26 41
f 8 41 53
f 8 53 52
f 8 52 42
f 8 42 28
f 8 28 19
f 8 19 9
f 9 19 20
f 9 20 21
f 9 21 22
f 9 22 10
f 11 22 23
f 13 23 36
f 13 36 24
f 13 24 14
f 14 24 25
f 14 25 15
f 15 25 39
f 15 39 27
f 15 27 17
f 16 17 27
f 16 27 39
f 16 39 26
f 19 28 29
f 19 29 20
f 20 29 30
f 20 30 31
f 20 31 32
f 20 32 21
f 21 32 33
f 21 33 34
f 21 34 35
f 21 35 23
f 21 23 22
f 23 35 36
f 24 37 25
f 24 36 37
f 25 38 39
f 25 37 40
f 25 40 38
f 26 38 41
f 26 39 38
f 28 42 43
f 28 43 29
f 29 43 44
f 29 44 30
f 30 44 45
f 30 45 33
f 30 33 32
f 30 32 31
f 33 45 34
f 34 45 46
f 34 46 35
f 35 46 36
f 36 47 37
f 36 46 48
f 36 48 49
f 36 49 47
f 37 47 40
f 38 40 41
f 40 47 50
f 40 50 51
f 40 51 52
f 40 52 53
f 40 53 41
f 42 52 51
f 42 51 43
f 43 51 44
f 44 51 54
f 44 54 46
f 44 46 45
f 46 54 55
f 46 55 48
f 47 49 56
f 47 56 57
f 47 57 50
f 48 55 58
f 48 58 57
f 48 57 56
f 48 56 49
f 50 58 51
f 50 57 58
f 51 58 55
f 51 55 54

