# https://github.com/mikedh/trimesh
v 0.04072338 0.01024107 -0.05475470
v 0.04061242 0.01045175 -0.05475470
v 0.04061242 0.01044517 -0.05471519
v 0.04055502 0.01049408 -0.05438282
v 0.04070616 0.01024107 -0.05458503
v 0.03652592 0.01024013 -0.03445470
v 0.03652783 0.01024013 -0.03492652
v 0.03652783 0.01024013 -0.03740417
v 0.04025275 0.01024107 -0.05475470
v 0.04055502 0.01051477 -0.05475470
v 0.03954488 0.01176568 -0.05313702
v 0.04015709 0.01100761 -0.05362279
v 0.04040963 0.01067466 -0.05400396
v 0.04059903 0.01024107 -0.05359257
v 0.04067747 0.01024107 -0.05430379
v 0.04050528 0.01024107 -0.05283022
v 0.04001360 0.01024107 -0.04919742
v 0.03953532 0.01024107 -0.04619681
v 0.03910485 0.01024107 -0.04410731
v 0.03870692 0.01024107 -0.04238504
v 0.03858065 0.01024107 -0.04189230
v 0.03771590 0.01024107 -0.03856630
v 0.03699273 0.01024107 -0.03580741
v 0.03692768 0.01024107 -0.03559358
v 0.03690281 0.01024107 -0.03551920
v 0.03652783 0.01024107 -0.03445470
v 0.03573578 0.01024013 -0.03222807
v 0.03533594 0.01024013 -0.03740417
v 0.04023935 0.01024389 -0.05475470
v 0.03679950 0.01024107 -0.05283254
v 0.04047659 0.01054863 -0.05475470
v 0.03802392 0.01331568 -0.05283022
v 0.03858065 0.01280779 -0.05298129
v 0.03860552 0.01278522 -0.05297665
v 0.03873179 0.01265355 -0.05298129
v 0.03952766 0.01177885 -0.05320210
v 0.03873561 0.01265355 -0.05292551
v 0.03968645 0.01090133 -0.04966691
v 0.03858065 0.01092860 -0.04440714
v 0.03858065 0.01031632 -0.04211543
v 0.03747676 0.01097281 -0.03978653
v 0.03652783 0.01067090 -0.03565866
v 0.03652783 0.01048091 -0.03507295
v 0.03447693 0.01169326 -0.03243957
v 0.03499540 0.01050348 -0.03101016
v 0.03537420 0.01024013 -0.03135182
v 0.03306119 0.01024013 -0.03101016
v 0.04023935 0.01034641 -0.05475470
v 0.02176401 0.01400134 -0.05163323
v 0.02175062 0.01400604 -0.05163323
v 0.04038858 0.01054392 -0.05475470
v 0.02496663 0.01880089 -0.05163555
v 0.02970935 0.01740796 -0.05164020
v 0.03304780 0.01618150 -0.05164020
v 0.03446163 0.01545540 -0.05164020
v 0.03575109 0.01448947 -0.04966691
v 0.03791487 0.01331568 -0.05224218
v 0.03797035 0.01301753 -0.05082207
v 0.03858065 0.01281062 -0.05292551
v 0.03860552 0.01278616 -0.05292319
v 0.03858065 0.01272691 -0.05249785
v 0.03781730 0.01192651 -0.04483945
v 0.03797992 0.01171489 -0.04474880
v 0.03541629 0.01299308 -0.04015841
v 0.03494948 0.01236386 -0.03592595
v 0.03429327 0.01190394 -0.03246746
v 0.03388959 0.01169232 -0.03101016
v 0.03522497 0.01024013 -0.03101016
v 0.03160528 0.01169232 -0.03101016
v 0.02326010 0.01728475 -0.03101248
v 0.02118050 0.01813969 -0.03101481
v 0.02175062 0.01400134 -0.04320550
v 0.02175062 0.01400134 -0.04966924
v 0.02175062 0.01608556 -0.05163323
v 0.02175062 0.01705432 -0.05161928
v 0.04025849 0.01043106 -0.05475470
v 0.02118050 0.01809643 -0.04314507
v 0.02118050 0.01818390 -0.05103125
v 0.04031206 0.01050442 -0.05475470
v 0.02118050 0.01975177 -0.05103125
v 0.02313957 0.01933417 -0.05103125
v 0.02118050 0.01984865 -0.03627923
v 0.02118050 0.01979033 -0.03307177
v 0.02505272 0.01844819 -0.03529143
v 0.02455530 0.01850086 -0.03229547
v 0.03305737 0.01614670 -0.05131946
v 0.03446163 0.01542437 -0.05132643
v 0.03571857 0.01408692 -0.04709862
v 0.02904739 0.01654172 -0.03554942
v 0.02848875 0.01646648 -0.03242330
v 0.03276848 0.01488356 -0.03997479
v 0.03362749 0.01458729 -0.04164825
v 0.03569370 0.01380100 -0.04527408
v 0.03552725 0.01331662 -0.04220375
v 0.03476008 0.01331662 -0.03926589
v 0.03171051 0.01422706 -0.03252324
v 0.03329651 0.01331568 -0.03419206
v 0.03272639 0.01331568 -0.03250233
v 0.03217158 0.01331568 -0.03101248
v 0.03250638 0.01301377 -0.03101248
v 0.03384367 0.01174217 -0.03101248
v 0.02496472 0.01812653 -0.03101248
v 0.02494176 0.01813969 -0.03101248
v 0.02326010 0.01813969 -0.03101248
v 0.02118050 0.01967465 -0.03101481
v 0.02118050 0.01809643 -0.04164825
v 0.02118050 0.01979598 -0.04555067
v 0.02118050 0.01983454 -0.04022581
v 0.02118050 0.01975365 -0.03225596
v 0.02496854 0.01828830 -0.03230941
v 0.02496854 0.01832404 -0.03261389
v 0.02223082 0.01928339 -0.03101481
v 0.02423389 0.01850838 -0.03101481
v 0.02910096 0.01654831 -0.03585390
v 0.02626949 0.01744652 -0.03101481
v 0.02809464 0.01643074 -0.03101481
v 0.02887904 0.01588335 -0.03101481
v 0.03188269 0.01474154 -0.03554942
v 0.03234376 0.01450546 -0.03597476
v 0.02964430 0.01534536 -0.03101481
v 0.03126665 0.01412360 -0.03101481
f 1 2 3
f 1 3 4
f 1 4 5
f 1 5 6
f 1 6 7
f 1 7 8
f 1 8 28
f 1 28 9
f 1 9 29
f 1 29 48
f 1 48 76
f 1 76 79
f 1 79 51
f 1 51 31
f 1 31 10
f 1 10 2
f 2 10 11
f 2 11 12
f 2 12 13
f 2 13 4
f 2 4 3
f 4 13 14
f 4 14 15
f 4 15 5
f 5 15 6
f 6 15 14
f 6 14 16
f 6 16 17
f 6 17 18
f 6 18 19
f 6 19 20
f 6 20 21
f 6 21 22
f 6 22 23
f 6 23 24
f 6 24 25
f 6 25 26
f 6 26 27
f 6 27 46
f 6 46 68
f 6 68 47
f 6 47 28
f 6 28 8
f 6 8 7
f 9 28 30
f 9 30 29
f 10 31 32
f 10 32 33
f 10 33 34
f 10 34 35
f 10 35 36
f 10 36 11
f 11 36 35
f 11 35 37
f 11 37 38
f 11 38 12
f 12 38 13
f 13 38 17
f 13 17 16
f 13 16 14
f 17 38 18
f 18 39 19
f 18 38 39
f 19 39 40
f 19 40 20
f 20 40 21
f 21 40 41
f 21 41 22
f 22 41 23
f 23 42 24
f 23 41 42
f 24 43 25
f 24 42 43
f 25 43 26
f 26 43 27
f 27 43 44
f 27 44 45
f 27 45 46
f 28 47 30
f 29 30 49
f 29 49 50
f 29 50 74
f 29 74 48
f 30 47 49
f 31 51 52
f 31 52 53
f 31 53 32
f 32 53 54
f 32 54 55
f 32 55 56
f 32 56 57
f 32 57 58
f 32 58 59
f 32 59 33
f 33 59 34
f 34 59 60
f 34 60 37
f 34 37 35
f 37 60 58
f 37 58 61
f 37 61 62
f 37 62 38
f 38 62 63
f 38 63 39
f 39 63 41
f 39 41 40
f 41 64 65
f 41 65 42
f 41 63 62
f 41 62 64
f 42 65 43
f 43 65 66
f 43 66 44
f 44 66 45
f 45 67 69
f 45 69 47
f 45 47 68
f 45 68 46
f 45 66 67
f 47 69 70
f 47 70 71
f 47 71 72
f 47 72 73
f 47 73 49
f 48 74 75
f 48 75 76
f 49 73 50
f 50 73 77
f 50 77 78
f 50 78 80
f 50 80 74
f 51 79 52
f 52 79 75
f 52 75 80
f 52 80 81
f 52 81 82
f 52 82 53
f 53 82 83
f 53 83 54
f 54 83 84
f 54 84 85
f 54 85 86
f 54 86 55
f 55 86 87
f 55 87 56
f 56 88 57
f 56 87 89
f 56 89 90
f 56 90 91
f 56 91 92
f 56 92 88
f 57 88 93
f 57 93 58
f 58 93 94
f 58 94 64
f 58 64 62
f 58 62 61
f 58 60 59
f 64 95 96
f 64 96 97
f 64 97 65
f 64 94 95
f 65 97 98
f 65 98 66
f 66 98 99
f 66 99 100
f 66 100 101
f 66 101 67
f 67 101 100
f 67 100 99
f 67 99 102
f 67 102 103
f 67 103 104
f 67 104 69
f 69 104 70
f 70 104 105
f 70 105 71
f 71 105 109
f 71 109 83
f 71 83 82
f 71 82 108
f 71 108 107
f 71 107 80
f 71 80 78
f 71 78 77
f 71 77 106
f 71 106 72
f 72 106 77
f 72 77 73
f 74 80 75
f 75 79 76
f 80 107 81
f 81 107 108
f 81 108 82
f 83 109 85
f 83 85 84
f 85 110 111
f 85 111 86
f 85 109 105
f 85 105 112
f 85 112 113
f 85 113 110
f 86 111 114
f 86 114 87
f 87 114 89
f 88 92 93
f 89 114 111
f 89 111 90
f 90 111 110
f 90 110 103
f 90 103 115
f 90 115 116
f 90 116 117
f 90 117 96
f 90 96 118
f 90 118 91
f 91 118 119
f 91 119 92
f 92 119 93
f 93 119 94
f 94 119 95
f 95 119 96
f 96 98 97
f 96 119 118
f 96 117 120
f 96 120 121
f 96 121 98
f 98 121 99
f 99 121 120
f 99 120 117
f 99 117 116
f 99 116 102
f 102 116 103
f 103 116 115
f 103 110 113
f 103 113 112
f 103 112 105
f 103 105 104

