# https://github.com/mikedh/trimesh
v 0.01599932 0.00448749 -0.01802321
v 0.01599521 0.00450000 -0.01802321
v 0.01370294 0.00450000 -0.01800677
v 0.01599932 0.00094972 -0.01802321
v 0.01599932 0.00449965 -0.02400829
v 0.01599726 0.00450000 -0.02150081
v 0.01370294 0.00094972 -0.01800677
v 0.01254073 0.00450000 -0.01800677
v 0.01599932 0.00094972 -0.09187485
v 0.01599932 0.00450000 -0.03699790
v 0.01254073 0.00094972 -0.01800677
v 0.01254073 0.00450000 -0.02547990
v 0.00900822 0.00449965 -0.05339932
v 0.01406092 0.00094972 -0.09188307
v 0.01254004 0.00351026 -0.10199523
v 0.01599932 0.00449548 -0.09187485
v 0.01599932 0.00450000 -0.08295478
v 0.00900822 0.00350991 -0.05339932
v 0.01254073 0.00094972 -0.02409051
v 0.01254141 0.00450000 -0.07997868
v 0.00900822 0.00449965 -0.05365418
v 0.01254210 0.00094972 -0.09188307
v 0.01249966 0.00351026 -0.10199523
v 0.01254004 0.00410730 -0.10199523
v 0.01254004 0.00449965 -0.09200639
v 0.01300342 0.00450000 -0.09188307
v 0.01560164 0.00450000 -0.08591443
v 0.01569541 0.00450000 -0.08556914
v 0.01584942 0.00450000 -0.08499365
v 0.00900822 0.00350991 -0.06311686
v 0.01254141 0.00094972 -0.07997868
v 0.01254210 0.00450000 -0.09188307
v 0.00900822 0.00449479 -0.06300176
v 0.01100069 0.00449965 -0.09200639
v 0.00900890 0.00351026 -0.08717229
v 0.01098494 0.00351026 -0.10049074
v 0.01111431 0.00351026 -0.10106623
v 0.01143943 0.00351026 -0.10155128
v 0.01192608 0.00351026 -0.10188014
v 0.01192608 0.00410730 -0.10188014
v 0.01250513 0.00410730 -0.10199523
v 0.00900822 0.00399992 -0.06311686
v 0.00900890 0.00399992 -0.08717229
v 0.01143943 0.00410730 -0.10155128
v 0.01111431 0.00410730 -0.10106623
v 0.01100000 0.00410730 -0.10049074
v 0.01098494 0.00399470 -0.10049074
f 1 2 3
f 1 3 7
f 1 7 4
f 1 4 9
f 1 9 16
f 1 16 17
f 1 17 10
f 1 10 5
f 1 5 2
f 2 5 6
f 2 6 10
f 2 10 17
f 2 17 29
f 2 29 28
f 2 28 27
f 2 27 26
f 2 26 32
f 2 32 20
f 2 20 12
f 2 12 8
f 2 8 3
f 3 8 11
f 3 11 7
f 4 7 11
f 4 11 19
f 4 19 31
f 4 31 22
f 4 22 14
f 4 14 9
f 5 10 6
f 8 12 21
f 8 21 13
f 8 13 18
f 8 18 11
f 9 14 15
f 9 15 24
f 9 24 16
f 11 18 30
f 11 30 19
f 12 20 21
f 13 21 33
f 13 33 42
f 13 42 30
f 13 30 18
f 14 22 23
f 14 23 15
f 15 23 41
f 15 41 24
f 16 24 25
f 16 25 26
f 16 26 27
f 16 27 28
f 16 28 29
f 16 29 17
f 19 30 31
f 20 32 21
f 21 32 34
f 21 34 33
f 22 35 36
f 22 36 37
f 22 37 38
f 22 38 39
f 22 39 23
f 22 31 35
f 23 39 40
f 23 40 41
f 24 41 34
f 24 34 25
f 25 34 32
f 25 32 26
f 30 42 43
f 30 43 35
f 30 35 31
f 33 34 43
f 33 43 42
f 34 41 40
f 34 40 44
f 34 44 45
f 34 45 46
f 34 46 43
f 35 43 47
f 35 47 36
f 36 47 45
f 36 45 37
f 37 45 44
f 37 44 38
f 38 44 40
f 38 40 39
f 43 46 47
f 45 47 46

