# https://github.com/mikedh/trimesh
v -0.02299814 0.00168967 -0.00496116
v -0.02299814 0.00290159 -0.00496116
v -0.01892512 0.00169471 -0.00496116
v -0.01896882 -0.00106376 -0.00374078
v -0.02299814 -0.00106376 -0.00374078
v -0.02483084 0.00290198 -0.00425360
v -0.01866171 0.00290159 -0.00496116
v -0.02321724 0.00290198 -0.00458723
v -0.01879529 -0.00106376 -0.00020154
v -0.02497378 -0.00106376 -0.00222126
v -0.02498627 -0.00077728 -0.00210228
v -0.02499688 -0.00017597 -0.00202361
v -0.02500000 0.00000027 -0.00200030
v -0.02498751 0.00077742 -0.00210276
v -0.02495381 0.00149945 -0.00240142
v -0.02493009 0.00183407 -0.00265783
v -0.02490886 0.00212017 -0.00287734
v -0.02489263 0.00230068 -0.00311238
v -0.02486392 0.00259764 -0.00349943
v -0.02483084 0.00290198 -0.00407684
v -0.01866171 0.00290159 -0.00403556
v -0.01862363 0.00290120 -0.00033994
v -0.01863736 0.00290120 -0.00256897
v -0.01864048 0.00290120 -0.00299437
v -0.02321724 0.00290198 -0.00311238
v -0.01862363 0.00290120 -0.00020202
v -0.01899441 -0.00106376 0.00000000
v -0.02496442 -0.00106376 -0.00185947
v -0.02493383 -0.00106376 -0.00136558
v -0.02481648 -0.00106376 -0.00020154
v -0.02481710 -0.00017597 -0.00020056
v -0.02481710 0.00094978 -0.00020056
v -0.02481710 0.00290159 -0.00020105
v -0.02482584 0.00290159 -0.00029526
v -0.02492385 0.00183407 -0.00191531
v -0.02482709 0.00290159 -0.00036325
v -0.02482834 0.00290159 -0.00053516
v -0.02482959 0.00290159 -0.00108635
v -0.02461860 0.00290159 0.00000000
v -0.02378465 0.00290198 -0.00311238
v -0.02321786 0.00290159 0.00000000
v -0.01882650 0.00290120 -0.00000049
v -0.02347441 -0.00106376 0.00000000
v -0.01905496 -0.00017597 0.00000000
v -0.02461860 -0.00017597 0.00000000
v -0.02461736 -0.00106376 -0.00000049
v -0.01913174 0.00094939 0.00000000
f 1 2 7
f 1 7 3
f 1 3 4
f 1 4 5
f 1 5 6
f 1 6 2
f 2 6 8
f 2 8 7
f 3 7 4
f 4 7 9
f 4 9 27
f 4 27 43
f 4 43 46
f 4 46 30
f 4 30 29
f 4 29 28
f 4 28 10
f 4 10 5
f 5 10 6
f 6 10 11
f 6 11 12
f 6 12 13
f 6 13 14
f 6 14 15
f 6 15 16
f 6 16 17
f 6 17 18
f 6 18 19
f 6 19 20
f 6 20 40
f 6 40 25
f 6 25 8
f 7 21 26
f 7 26 22
f 7 22 23
f 7 23 24
f 7 24 9
f 7 8 25
f 7 25 21
f 9 24 23
f 9 23 22
f 9 22 26
f 9 26 27
f 10 28 11
f 11 28 13
f 11 13 12
f 13 28 29
f 13 29 30
f 13 30 31
f 13 31 32
f 13 32 33
f 13 33 34
f 13 34 14
f 14 34 35
f 14 35 15
f 15 35 16
f 16 35 36
f 16 36 17
f 17 36 37
f 17 37 18
f 18 37 38
f 18 38 19
f 19 38 20
f 20 38 37
f 20 37 36
f 20 36 34
f 20 34 33
f 20 33 39
f 20 39 40
f 21 25 26
f 25 40 39
f 25 39 41
f 25 41 42
f 25 42 26
f 26 42 27
f 27 42 44
f 27 44 47
f 27 47 41
f 27 41 39
f 27 39 45
f 27 45 43
f 30 45 31
f 30 46 45
f 31 45 39
f 31 39 32
f 32 39 33
f 34 36 35
f 41 47 42
f 42 47 44
f 43 45 46

