# https://github.com/mikedh/trimesh
v -0.01689514 0.00290457 -0.04394087
v 0.00435645 0.00290457 -0.04394087
v 0.00252028 0.00102010 -0.04376476
v -0.01689514 0.00095020 -0.04375745
v -0.02713666 0.00399168 -0.04259842
v -0.02713666 0.00587470 -0.04259842
v 0.00839047 0.00399264 -0.04142344
v 0.00839047 0.00300533 -0.04142344
v 0.00435645 0.00095020 -0.04375811
v -0.02404160 0.00587470 -0.04259842
v 0.00252028 0.00095020 -0.04375811
v -0.02404160 0.00094972 -0.04089909
v -0.02713666 0.00095020 -0.04089909
v -0.02713666 0.00587470 -0.03918115
v 0.00839047 0.00399264 -0.03750108
v 0.00839047 0.00300533 -0.03750108
v 0.00435645 0.00095020 -0.04090440
v -0.01794885 0.00094972 -0.04089909
v -0.02404160 0.00587470 -0.03918115
v -0.02404160 0.00094972 -0.03715284
v -0.02713666 0.00095020 -0.03715151
v -0.02713666 0.00358046 -0.03715151
v -0.02621510 0.00449931 -0.03715151
v -0.02404160 0.00449931 -0.03715151
v -0.02155512 0.00399264 -0.03715284
v 0.00435645 0.00095068 -0.03749577
v -0.02155512 0.00094972 -0.03715284
v -0.01794885 0.00094972 -0.03750108
v -0.02404160 0.00095020 -0.03715151
f 1 2 3
f 1 3 4
f 1 4 5
f 1 5 6
f 1 6 10
f 1 10 2
f 2 7 8
f 2 8 9
f 2 9 3
f 2 10 7
f 3 11 4
f 3 9 11
f 4 11 12
f 4 12 13
f 4 13 5
f 5 13 21
f 5 21 22
f 5 22 14
f 5 14 6
f 6 14 19
f 6 19 10
f 7 15 16
f 7 16 8
f 7 10 19
f 7 19 15
f 8 16 17
f 8 17 9
f 9 17 28
f 9 28 18
f 9 18 12
f 9 12 11
f 12 20 21
f 12 21 13
f 12 18 28
f 12 28 27
f 12 27 20
f 14 22 23
f 14 23 24
f 14 24 19
f 15 19 24
f 15 24 25
f 15 25 27
f 15 27 16
f 16 26 17
f 16 27 26
f 17 26 28
f 20 27 29
f 20 29 21
f 21 29 24
f 21 24 23
f 21 23 22
f 24 29 27
f 24 27 25
f 26 27 28

