# https://github.com/mikedh/trimesh
v 0.00902598 0.01663627 -0.09803172
v 0.00902598 0.01807927 -0.09803172
v 0.01173745 0.01641168 -0.09803172
v 0.01749352 0.01565292 -0.09803105
v 0.00902469 0.01696464 -0.09483071
v 0.00902469 0.01689708 -0.09549338
v 0.01173745 0.01788879 -0.09803172
v 0.00902469 0.01841251 -0.09549338
v 0.00902598 0.01816319 -0.09756012
v 0.02214983 0.01854970 -0.09147496
v 0.02216527 0.01809424 -0.09380811
v 0.02173951 0.01535833 -0.09803105
v 0.02173308 0.01535833 -0.09803105
v 0.01972006 0.01548056 -0.09803105
v 0.00902469 0.01717600 -0.09293083
v 0.00902469 0.01709800 -0.09362781
v 0.02174851 0.01594577 -0.09147496
v 0.01350221 0.01776483 -0.09803105
v 0.02173951 0.01693887 -0.09803105
v 0.00902469 0.01891567 -0.09115877
v 0.00902598 0.01838082 -0.09579949
v 0.01533258 0.01884429 -0.09115877
v 0.01813023 0.01878266 -0.09115877
v 0.02036963 0.01869421 -0.09115877
v 0.02073493 0.01867575 -0.09115877
v 0.02216527 0.01854866 -0.09147496
v 0.02216527 0.01803748 -0.09402003
v 0.02216527 0.01594542 -0.09549338
v 0.02216527 0.01594507 -0.09401936
v 0.02216527 0.01594507 -0.09236032
v 0.02216527 0.01594577 -0.09147496
v 0.00902469 0.01739642 -0.09115877
v 0.02073493 0.01719550 -0.09115877
v 0.02216527 0.01764052 -0.09549338
v 0.00999969 0.01891149 -0.09115877
f 1 2 7
f 1 7 3
f 1 3 4
f 1 4 5
f 1 5 6
f 1 6 8
f 1 8 2
f 2 8 9
f 2 9 10
f 2 10 11
f 2 11 7
f 3 7 19
f 3 19 12
f 3 12 13
f 3 13 14
f 3 14 4
f 4 15 16
f 4 16 5
f 4 14 17
f 4 17 15
f 5 16 15
f 5 15 32
f 5 32 20
f 5 20 8
f 5 8 6
f 7 18 19
f 7 11 18
f 8 20 21
f 8 21 9
f 9 21 22
f 9 22 23
f 9 23 24
f 9 24 25
f 9 25 10
f 10 26 11
f 10 25 26
f 11 26 31
f 11 31 30
f 11 30 29
f 11 29 28
f 11 28 34
f 11 34 27
f 11 27 18
f 12 19 34
f 12 34 28
f 12 28 29
f 12 29 30
f 12 30 31
f 12 31 17
f 12 17 13
f 13 17 14
f 15 17 32
f 17 31 33
f 17 33 32
f 18 27 34
f 18 34 19
f 20 35 21
f 20 32 33
f 20 33 25
f 20 25 24
f 20 24 23
f 20 23 22
f 20 22 35
f 21 35 22
f 25 33 31
f 25 31 26

