# https://github.com/mikedh/trimesh
v -0.02501884 -0.02325363 -0.05463597
v -0.02765641 -0.02332279 -0.05425772
v -0.03223061 -0.02296248 -0.05425772
v -0.03241126 -0.02293923 -0.05426132
v -0.03643265 -0.02223954 -0.05426132
v -0.03748768 -0.02200708 -0.05426132
v -0.03960857 -0.02144628 -0.05426132
v -0.04353241 -0.02040370 -0.05426132
v -0.04470667 -0.01976561 -0.05426132
v -0.04547626 -0.01934428 -0.05426132
v -0.04580505 -0.01889796 -0.05426132
v -0.04677337 -0.01757005 -0.05426132
v -0.04679866 -0.01749392 -0.05426132
v -0.02501884 -0.01750147 -0.05463597
v -0.02294492 -0.02333151 -0.05463597
v -0.02785152 -0.02333325 -0.05158474
v -0.03059026 -0.02313276 -0.05215392
v -0.02619672 -0.02335882 -0.05425772
v -0.02682901 -0.02336231 -0.05322023
v -0.02756608 -0.02334197 -0.05204584
v -0.03259914 -0.02281080 -0.04928641
v -0.03335067 -0.02278349 -0.05289961
v -0.03611831 -0.02229591 -0.05382183
v -0.03716611 -0.02202800 -0.05247813
v -0.04315303 -0.02042695 -0.05182610
v -0.04488371 -0.01940123 -0.05073097
v -0.04554491 -0.01835169 -0.05001049
v -0.04590983 -0.01806634 -0.05100475
v -0.04602545 -0.01749392 -0.04956739
v -0.04595319 -0.01769557 -0.04956019
v -0.03896183 -0.01749392 -0.05426132
v -0.01977261 -0.01750089 -0.05463597
v -0.02017367 -0.02322458 -0.05463597
v -0.02020980 -0.02322806 -0.05457473
v -0.02134431 -0.02331698 -0.05273390
v -0.02238489 -0.02338265 -0.05092550
v -0.02339656 -0.02342216 -0.04925038
v -0.02501884 -0.02341112 -0.05107680
v -0.02511640 -0.02340996 -0.05118127
v -0.02808998 -0.02330535 -0.04915312
v -0.02884874 -0.02326584 -0.05003571
v -0.02710722 -0.02335475 -0.04802196
v -0.03129120 -0.02294911 -0.04774818
v -0.02944129 -0.02320017 -0.04915312
v -0.02983150 -0.02315426 -0.04856953
v -0.03018197 -0.02309963 -0.04807240
v -0.02440461 -0.02343030 -0.04762570
v -0.03177174 -0.02280150 -0.04585332
v -0.03457551 -0.02232845 -0.04668187
v -0.03539569 -0.02232613 -0.05016179
v -0.03437318 -0.02257370 -0.05150188
v -0.03576784 -0.02231451 -0.05197019
v -0.03501993 -0.02245456 -0.05171803
v -0.03770085 -0.02171186 -0.04887213
v -0.03649769 -0.02204718 -0.04929001
v -0.04218833 -0.02046356 -0.04743477
v -0.04244848 -0.02036302 -0.04775178
v -0.04362274 -0.01948434 -0.04558674
v -0.04499210 -0.01841096 -0.04775178
v -0.04551239 -0.01774613 -0.04775178
v -0.04515108 -0.01749392 -0.04587493
v -0.00989437 -0.01749392 -0.04203117
v -0.00989437 -0.01750089 -0.05463597
v -0.00989437 -0.02266610 -0.05463597
v -0.01977622 -0.02328095 -0.05093991
v -0.02294853 -0.02341694 -0.04872443
v -0.02172369 -0.02340066 -0.04736993
v -0.02342546 -0.02342216 -0.04925038
v -0.02901855 -0.02313915 -0.04517607
v -0.02537654 -0.02340183 -0.04610188
v -0.02631956 -0.02333325 -0.04465372
v -0.03080704 -0.02299967 -0.04717900
v -0.02365670 -0.02340415 -0.04427547
v -0.03089014 -0.02275036 -0.04258594
v -0.03214389 -0.02262425 -0.04394044
v -0.03237513 -0.02265215 -0.04505358
v -0.03272922 -0.02256382 -0.04458167
v -0.03413471 -0.02231567 -0.04499955
v -0.03555467 -0.02204020 -0.04544985
v -0.03598824 -0.02204834 -0.04714658
v -0.03613638 -0.02204892 -0.04775178
v -0.03547156 -0.02219188 -0.04775178
v -0.03501631 -0.02243073 -0.05100475
v -0.03640374 -0.02204834 -0.04887213
v -0.04099239 -0.02050075 -0.04339288
v -0.04379978 -0.01866550 -0.04394405
v -0.04445736 -0.01785481 -0.04394405
v -0.04486564 -0.01781703 -0.04524091
v -0.04505714 -0.01779727 -0.04590735
v -0.04189928 -0.01957209 -0.04052897
v -0.04498488 -0.01749392 -0.04526973
v -0.00989437 -0.01749392 -0.01784465
v -0.00989437 -0.02267249 -0.05430815
v -0.01904999 -0.02329606 -0.04724384
v -0.01801664 -0.02321760 -0.04899101
v -0.02061446 -0.02336754 -0.04619194
v -0.02102636 -0.02337509 -0.04403050
v -0.01977261 -0.02333557 -0.04606226
v -0.02997964 -0.02281952 -0.04164571
v -0.02679649 -0.02327804 -0.04394044
v -0.02724452 -0.02322516 -0.04327400
v -0.02816225 -0.02307464 -0.04195912
v -0.02549577 -0.02326177 -0.04147640
v -0.02234514 -0.02337742 -0.04293177
v -0.02287627 -0.02332918 -0.04112337
v -0.02501884 -0.02326177 -0.04101169
v -0.03270754 -0.02222966 -0.04019395
v -0.03323144 -0.02242376 -0.04394044
v -0.02995435 -0.02266435 -0.03949868
v -0.03500909 -0.02202045 -0.04349014
v -0.03384205 -0.02230172 -0.04394044
v -0.03974587 -0.02053214 -0.04006786
v -0.04396237 -0.01789898 -0.04240222
v -0.04407076 -0.01749392 -0.04227974
v -0.04458382 -0.01749392 -0.04394405
v -0.04485842 -0.01749392 -0.04484104
v -0.03938456 -0.02054144 -0.03921769
v -0.04089845 -0.01961160 -0.03832790
v -0.04222446 -0.01803148 -0.03798928
v -0.04237260 -0.01802102 -0.03832790
v -0.04309522 -0.01796988 -0.04006066
v -0.00989437 -0.01904790 -0.01784465
v -0.01977261 -0.01749392 -0.01784465
v -0.01977622 -0.01749508 -0.01783744
v -0.00989437 -0.02268760 -0.05343637
v -0.01740241 -0.02318913 -0.04832456
v -0.01638713 -0.02313740 -0.04722943
v -0.01841769 -0.02327107 -0.04390442
v -0.00989437 -0.02270038 -0.05255018
v -0.02005805 -0.02335010 -0.04559755
v -0.02030374 -0.02329896 -0.04089641
v -0.02172008 -0.02337044 -0.04293177
v -0.01977261 -0.02333674 -0.04530215
v -0.02906914 -0.02288693 -0.04070549
v -0.02726258 -0.02297352 -0.03892590
v -0.02645325 -0.02299154 -0.03816579
v -0.02464308 -0.02315019 -0.03849361
v -0.02502607 -0.02308859 -0.03794965
v -0.02196577 -0.02336870 -0.04253911
v -0.02208500 -0.02321005 -0.03817660
v -0.02376871 -0.02325654 -0.03977607
v -0.02383736 -0.02324840 -0.03967520
v -0.03081788 -0.02241388 -0.03832790
v -0.03219086 -0.02218840 -0.03867373
v -0.03357830 -0.02193734 -0.03904118
v -0.03410581 -0.02197221 -0.04058301
v -0.03384567 -0.02209309 -0.04137193
v -0.03367946 -0.02229358 -0.04335325
v -0.02896797 -0.02255161 -0.03657714
v -0.03461526 -0.02199953 -0.04216446
v -0.04334814 -0.01749392 -0.04026960
v -0.03896905 -0.02055132 -0.03832790
v -0.03967722 -0.01965926 -0.03566212
v -0.03985426 -0.01965170 -0.03604038
v -0.03435873 -0.02198616 -0.04137193
v -0.04239428 -0.01749392 -0.03790642
v -0.04194264 -0.01804949 -0.03739128
v -0.04257132 -0.01749392 -0.03832790
v -0.04311690 -0.01749392 -0.03967160
v -0.01860919 -0.01864400 -0.01784465
v -0.01863087 -0.01925130 -0.01817967
v -0.01865616 -0.01982372 -0.01868761
v -0.01740241 -0.01975050 -0.01860115
v -0.01249581 -0.01946225 -0.01827334
v -0.01063867 -0.01935242 -0.01815086
v -0.00989437 -0.01934660 -0.01814365
v -0.01977622 -0.01852138 -0.01783744
v -0.02343269 -0.01749508 -0.01783744
v -0.02502246 -0.01749392 -0.01826613
v -0.00989437 -0.02271026 -0.05164238
v -0.01567896 -0.02309614 -0.04648734
v -0.01582710 -0.02311590 -0.04387920
v -0.00989437 -0.02271607 -0.05071296
v -0.01740241 -0.02320540 -0.04288134
v -0.01740241 -0.02318506 -0.04135392
v -0.01776372 -0.02319436 -0.04078114
v -0.01977622 -0.02326758 -0.04038848
v -0.01957028 -0.02317983 -0.03797487
v -0.02893906 -0.02255336 -0.03655192
v -0.02634485 -0.02284102 -0.03609441
v -0.02715058 -0.02264401 -0.03493804
v -0.02550661 -0.02301072 -0.03726159
v -0.02378677 -0.02300723 -0.03571256
v -0.02502246 -0.02301013 -0.03682570
v -0.02210307 -0.02296945 -0.03428601
v -0.02265587 -0.02297991 -0.03471830
v -0.01977622 -0.02316995 -0.03767226
v -0.02085654 -0.02315484 -0.03704905
v -0.02129373 -0.02306360 -0.03543878
v -0.03053967 -0.02203788 -0.03433644
v -0.03150799 -0.02219130 -0.03739128
v -0.03165974 -0.02214132 -0.03718234
v -0.03200298 -0.02209367 -0.03739128
v -0.03325673 -0.02191526 -0.03814418
v -0.03808384 -0.02057107 -0.03645105
v -0.03012778 -0.02206926 -0.03398341
v -0.02794546 -0.02241969 -0.03383571
v -0.02867531 -0.02217794 -0.03273697
v -0.02893545 -0.02213842 -0.03277660
v -0.03763943 -0.02058153 -0.03560088
v -0.03886427 -0.01994983 -0.03530549
v -0.03947489 -0.01966449 -0.03530549
v -0.03957967 -0.01955988 -0.03530549
v -0.04092736 -0.01810935 -0.03530549
v -0.04103214 -0.01810412 -0.03550002
v -0.04107549 -0.01777984 -0.03530549
v -0.04118389 -0.01749392 -0.03530549
v -0.01897411 -0.01972493 -0.01862277
v -0.02067589 -0.01842665 -0.01783744
v -0.01977622 -0.01947329 -0.01846787
v -0.01897411 -0.01982372 -0.01871283
v -0.01918729 -0.02094765 -0.02057887
v -0.01870313 -0.02095986 -0.02056446
v -0.01740241 -0.01991206 -0.01877407
v -0.01458057 -0.02005560 -0.01890736
v -0.01063867 -0.02038104 -0.01923518
v -0.00989437 -0.02039150 -0.01925679
v -0.02386265 -0.01749508 -0.01795272
v -0.02501884 -0.01805298 -0.01844265
v -0.02480567 -0.01821628 -0.01843904
v -0.02294853 -0.01785888 -0.01783744
v -0.02576676 -0.01749392 -0.01847147
v -0.00989437 -0.02274339 -0.04398727
v -0.01681347 -0.02316704 -0.04229054
v -0.00989437 -0.02274339 -0.04350455
v -0.00989437 -0.02274223 -0.04315512
v -0.01567896 -0.02307929 -0.04119902
v -0.01858029 -0.02319959 -0.03950228
v -0.01524539 -0.02304326 -0.04075952
v -0.01709891 -0.02308162 -0.03787040
v -0.01867784 -0.02319959 -0.03934378
v -0.01644494 -0.02293923 -0.03517580
v -0.01884765 -0.02303280 -0.03526226
v -0.02541628 -0.02268992 -0.03342503
v -0.02672062 -0.02257776 -0.03374565
v -0.02502246 -0.02269225 -0.03309361
v -0.02372535 -0.02269690 -0.03201650
v -0.02390239 -0.02269690 -0.03216419
v -0.02293769 -0.02284335 -0.03311523
v -0.02190073 -0.02291889 -0.03354752
v -0.02052414 -0.02289681 -0.03289188
v -0.02044465 -0.02313508 -0.03667080
v -0.01977261 -0.02285322 -0.03227227
v -0.03123339 -0.02176532 -0.03321249
v -0.03185484 -0.02181240 -0.03462103
v -0.02995073 -0.02198325 -0.03296393
v -0.03244017 -0.02185656 -0.03604038
v -0.03296768 -0.02189492 -0.03739128
v -0.03404439 -0.02164212 -0.03739128
v -0.02742156 -0.02234937 -0.03252083
v -0.02672423 -0.02203904 -0.02913097
v -0.03748045 -0.02058560 -0.03530549
v -0.03705411 -0.02059432 -0.03452377
v -0.03703604 -0.02027643 -0.03321609
v -0.03700714 -0.01974004 -0.03103664
v -0.03834760 -0.01834994 -0.03098981
v -0.03823559 -0.01824011 -0.03060435
v -0.03847406 -0.01749392 -0.03045666
v -0.04110079 -0.01749392 -0.03513617
v -0.01977622 -0.01982024 -0.01877407
v -0.02159000 -0.01827033 -0.01783744
v -0.02152497 -0.01981501 -0.01891816
v -0.01897411 -0.02100403 -0.02073377
v -0.02136599 -0.02088780 -0.02076260
v -0.02007250 -0.02118011 -0.02143984
v -0.01740241 -0.02112723 -0.02098955
v -0.01740241 -0.02098252 -0.02056086
v -0.01567896 -0.02074774 -0.02007453
v -0.01053028 -0.02038859 -0.01924598
v -0.01567896 -0.02101274 -0.02056446
v -0.01308475 -0.02105517 -0.02056446
v -0.00989437 -0.02085119 -0.02018261
v -0.01063867 -0.02092034 -0.02030869
v -0.02657609 -0.01749392 -0.01875966
v -0.02502246 -0.01822790 -0.01851830
v -0.02449494 -0.01984581 -0.01963504
v -0.02330984 -0.01983360 -0.01934685
v -0.02301718 -0.01812446 -0.01795272
v -0.02283653 -0.01791757 -0.01783744
v -0.00989437 -0.02273525 -0.04231216
v -0.00989437 -0.02273002 -0.04191229
v -0.00989437 -0.02272189 -0.04144398
v -0.00989437 -0.02270329 -0.04056139
v -0.01465645 -0.02293459 -0.03785599
v -0.01501776 -0.02293923 -0.03729761
v -0.01567896 -0.02295667 -0.03658434
v -0.01567896 -0.02294563 -0.03630335
v -0.01730486 -0.02291366 -0.03392937
v -0.00989437 -0.02237959 -0.03074485
v -0.00989437 -0.02224651 -0.02798541
v -0.01567896 -0.02277128 -0.03256406
v -0.01576929 -0.02277942 -0.03263971
v -0.01740241 -0.02291018 -0.03378888
v -0.01814671 -0.02287066 -0.03274418
v -0.02617865 -0.02249350 -0.03232990
v -0.02494658 -0.02261089 -0.03216419
v -0.02390239 -0.02268469 -0.03203811
v -0.02251857 -0.02275792 -0.03189041
v -0.02277149 -0.02244119 -0.02879234
v -0.02172730 -0.02288112 -0.03299275
v -0.02014837 -0.02281080 -0.03169228
v -0.02133347 -0.02279569 -0.03178234
v -0.01897411 -0.02280441 -0.03159501
v -0.03291348 -0.02067859 -0.02817273
v -0.03553660 -0.02062803 -0.03196966
v -0.03252688 -0.02183797 -0.03604038
v -0.03012778 -0.02160493 -0.03068361
v -0.03203550 -0.02087211 -0.02830602
v -0.03623754 -0.02087966 -0.03530549
v -0.02502246 -0.02221222 -0.02898327
v -0.02483096 -0.02181123 -0.02585639
v -0.03003384 -0.02072740 -0.02494138
v -0.03090098 -0.02071287 -0.02579515
v -0.03472365 -0.02123474 -0.03530549
v -0.03528730 -0.01978130 -0.02860862
v -0.03629174 -0.01885903 -0.02860862
v -0.03703243 -0.01828602 -0.02878874
v -0.03806939 -0.01824708 -0.03034858
v -0.03834760 -0.01749392 -0.03025132
v -0.02235237 -0.01812795 -0.01783744
v -0.02248606 -0.01809656 -0.01783744
v -0.01977622 -0.02119697 -0.02146506
v -0.01740241 -0.02132772 -0.02166319
v -0.01567896 -0.02134748 -0.02155512
v -0.02323758 -0.02084537 -0.02113724
v -0.02202358 -0.02144628 -0.02283758
v -0.01977622 -0.02122777 -0.02156953
v -0.01567896 -0.02129344 -0.02139302
v -0.01215979 -0.02106098 -0.02057887
v -0.01370982 -0.02117023 -0.02093191
v -0.01458057 -0.02146080 -0.02183611
v -0.00989437 -0.02106505 -0.02064011
v -0.01063867 -0.02106388 -0.02061850
v -0.02683624 -0.01749392 -0.01887134
v -0.02638821 -0.01829125 -0.01903704
v -0.02501884 -0.01941402 -0.01946573
v -0.02734207 -0.01986963 -0.02088147
v -0.02402162 -0.02082968 -0.02136419
v -0.00989437 -0.02267423 -0.03951309
v -0.01436379 -0.02287182 -0.03647987
v -0.00989437 -0.02248827 -0.03328454
v -0.00989437 -0.02210413 -0.02577353
v -0.01567896 -0.02271143 -0.03151576
v -0.01567896 -0.02271898 -0.03164185
v -0.01567896 -0.02274804 -0.03214258
v -0.01702303 -0.02283056 -0.03263971
v -0.01666172 -0.02274978 -0.03153738
v -0.01781431 -0.02278581 -0.03156980
v -0.02502246 -0.02260333 -0.03217140
v -0.01888379 -0.02257021 -0.02857981
v -0.02199828 -0.02229068 -0.02720369
v -0.03391432 -0.01981210 -0.02666693
v -0.02701689 -0.02077447 -0.02268267
v -0.02884874 -0.02074484 -0.02392190
v -0.02134070 -0.02216167 -0.02585639
v -0.02358083 -0.02165258 -0.02431096
v -0.02987847 -0.01986963 -0.02257100
v -0.03203550 -0.01985743 -0.02455232
v -0.03585817 -0.01832321 -0.02713884
v -0.03611831 -0.01749392 -0.02695512
v -0.03698907 -0.01749392 -0.02820155
v -0.01567896 -0.02142245 -0.02180729
v -0.01464561 -0.02147766 -0.02189735
v -0.02267394 -0.02153287 -0.02345359
v -0.02136238 -0.02153287 -0.02306453
v -0.01977622 -0.02158924 -0.02298527
v -0.01977622 -0.02153287 -0.02276193
v -0.01598969 -0.02182692 -0.02323024
v -0.01458057 -0.02148173 -0.02191176
v -0.00989437 -0.02173162 -0.02311496
v -0.02727703 -0.01749392 -0.01908748
v -0.02788765 -0.01835169 -0.01977193
v -0.02692656 -0.01831449 -0.01928561
v -0.02502246 -0.02081109 -0.02180369
v -0.02893545 -0.01837784 -0.02043478
v -0.03002661 -0.01840515 -0.02113004
v -0.02893545 -0.02016834 -0.02260702
v -0.00989437 -0.02207507 -0.02550336
v -0.01063506 -0.02213086 -0.02577353
v -0.01740241 -0.02228196 -0.02583838
v -0.01778540 -0.02228893 -0.02583838
v -0.01977622 -0.02221862 -0.02584919
v -0.03206079 -0.01984581 -0.02454872
v -0.03360359 -0.01850918 -0.02453070
v -0.03488985 -0.01835285 -0.02588521
v -0.01977622 -0.02213668 -0.02537727
v -0.03057219 -0.01841038 -0.02154071
v -0.03203550 -0.01982489 -0.02449828
v -0.03203550 -0.01984755 -0.02452710
v -0.03541376 -0.01749392 -0.02602570
v -0.01977622 -0.02173627 -0.02359768
v -0.01701220 -0.02209135 -0.02453431
v -0.00989437 -0.02175196 -0.02320142
v -0.03030482 -0.01749392 -0.02081663
v -0.00989437 -0.02186470 -0.02397954
v -0.01740241 -0.02219072 -0.02518995
v -0.03356745 -0.01838772 -0.02433257
v -0.03364694 -0.01749392 -0.02380302
v -0.03419252 -0.01749392 -0.02445506
v -0.03052161 -0.01749392 -0.02097874
f 1 2 3
f 1 3 4
f 1 4 5
f 1 5 6
f 1 6 7
f 1 7 8
f 1 8 9
f 1 9 10
f 1 10 11
f 1 11 12
f 1 12 13
f 1 13 14
f 1 14 32
f 1 32 63
f 1 63 64
f 1 64 33
f 1 33 15
f 1 15 2
f 2 16 17
f 2 17 3
f 2 15 18
f 2 18 19
f 2 19 20
f 2 20 16
f 3 17 4
f 4 17 21
f 4 21 22
f 4 22 5
f 5 22 23
f 5 23 24
f 5 24 6
f 6 24 25
f 6 25 7
f 7 25 8
f 8 25 9
f 9 25 26
f 9 26 10
f 10 26 27
f 10 27 11
f 11 27 28
f 11 28 12
f 12 29 13
f 12 28 30
f 12 30 29
f 13 29 61
f 13 61 91
f 13 91 116
f 13 116 115
f 13 115 114
f 13 114 151
f 13 151 159
f 13 159 158
f 13 158 156
f 13 156 207
f 13 207 259
f 13 259 258
f 13 258 319
f 13 319 361
f 13 361 360
f 13 360 390
f 13 390 399
f 13 399 398
f 13 398 400
f 13 400 394
f 13 394 371
f 13 371 334
f 13 334 274
f 13 274 222
f 13 222 169
f 13 169 123
f 13 123 92
f 13 92 62
f 13 62 31
f 13 31 63
f 13 63 32
f 13 32 14
f 15 33 34
f 15 34 35
f 15 35 36
f 15 36 37
f 15 37 38
f 15 38 39
f 15 39 18
f 16 40 41
f 16 41 17
f 16 20 42
f 16 42 40
f 17 43 21
f 17 41 44
f 17 44 45
f 17 45 46
f 17 46 43
f 18 39 19
f 19 39 47
f 19 47 20
f 20 47 42
f 21 43 48
f 21 48 49
f 21 49 50
f 21 50 51
f 21 51 22
f 22 51 23
f 23 52 24
f 23 51 53
f 23 53 52
f 24 54 25
f 24 52 50
f 24 50 55
f 24 55 54
f 25 54 56
f 25 56 57
f 25 57 26
f 26 58 59
f 26 59 27
f 26 57 58
f 27 30 28
f 27 59 60
f 27 60 30
f 29 30 60
f 29 60 61
f 31 62 63
f 33 64 34
f 34 64 65
f 34 65 35
f 35 65 36
f 36 66 37
f 36 65 67
f 36 67 66
f 37 68 38
f 37 66 47
f 37 47 68
f 38 47 39
f 38 68 47
f 40 69 44
f 40 44 41
f 40 42 69
f 42 47 70
f 42 70 71
f 42 71 69
f 43 46 72
f 43 72 48
f 44 69 45
f 45 69 46
f 46 69 72
f 47 66 67
f 47 67 73
f 47 73 70
f 48 72 69
f 48 69 74
f 48 74 75
f 48 75 76
f 48 76 49
f 49 77 78
f 49 78 79
f 49 79 80
f 49 80 81
f 49 81 82
f 49 82 50
f 49 76 77
f 50 83 51
f 50 82 84
f 50 84 55
f 50 52 83
f 51 83 53
f 52 53 83
f 54 55 84
f 54 84 56
f 56 85 58
f 56 58 57
f 56 84 81
f 56 81 80
f 56 80 85
f 58 86 87
f 58 87 88
f 58 88 89
f 58 89 59
f 58 85 90
f 58 90 86
f 59 89 60
f 60 89 61
f 61 89 91
f 62 92 122
f 62 122 166
f 62 166 217
f 62 217 272
f 62 272 332
f 62 332 370
f 62 370 393
f 62 393 395
f 62 395 378
f 62 378 342
f 62 342 290
f 62 290 289
f 62 289 341
f 62 341 339
f 62 339 283
f 62 283 282
f 62 282 281
f 62 281 280
f 62 280 226
f 62 226 225
f 62 225 223
f 62 223 173
f 62 173 170
f 62 170 129
f 62 129 125
f 62 125 93
f 62 93 64
f 62 64 63
f 64 93 65
f 65 94 67
f 65 93 95
f 65 95 94
f 67 96 97
f 67 97 73
f 67 94 98
f 67 98 96
f 69 99 74
f 69 71 100
f 69 100 101
f 69 101 102
f 69 102 99
f 70 73 71
f 71 103 100
f 71 73 103
f 73 97 104
f 73 104 105
f 73 105 106
f 73 106 103
f 74 107 108
f 74 108 75
f 74 99 109
f 74 109 107
f 75 108 77
f 75 77 76
f 77 108 78
f 78 110 79
f 78 108 111
f 78 111 110
f 79 110 85
f 79 85 80
f 81 84 82
f 85 112 90
f 85 110 112
f 86 113 87
f 86 90 113
f 87 113 114
f 87 114 115
f 87 115 116
f 87 116 88
f 88 116 91
f 88 91 89
f 90 112 117
f 90 117 118
f 90 118 119
f 90 119 120
f 90 120 121
f 90 121 113
f 92 123 168
f 92 168 124
f 92 124 167
f 92 167 122
f 93 125 95
f 94 95 126
f 94 126 127
f 94 127 128
f 94 128 98
f 95 125 129
f 95 129 126
f 96 130 97
f 96 98 130
f 97 131 132
f 97 132 104
f 97 130 133
f 97 133 128
f 97 128 131
f 98 128 133
f 98 133 130
f 99 102 134
f 99 134 109
f 100 103 101
f 101 103 135
f 101 135 102
f 102 135 134
f 103 136 135
f 103 106 137
f 103 137 138
f 103 138 136
f 104 139 105
f 104 132 139
f 105 139 131
f 105 131 140
f 105 140 141
f 105 141 106
f 106 141 142
f 106 142 137
f 107 109 143
f 107 143 144
f 107 144 145
f 107 145 146
f 107 146 147
f 107 147 148
f 107 148 108
f 108 148 111
f 109 134 149
f 109 149 143
f 110 111 148
f 110 148 150
f 110 150 112
f 112 150 117
f 113 121 114
f 114 121 151
f 117 152 153
f 117 153 154
f 117 154 118
f 117 150 155
f 117 155 146
f 117 146 152
f 118 154 119
f 119 156 120
f 119 154 157
f 119 157 156
f 120 156 158
f 120 158 159
f 120 159 121
f 121 159 151
f 122 160 161
f 122 161 162
f 122 162 163
f 122 163 164
f 122 164 165
f 122 165 166
f 122 167 160
f 123 169 168
f 124 168 221
f 124 221 279
f 124 279 321
f 124 321 320
f 124 320 261
f 124 261 209
f 124 209 167
f 126 129 170
f 126 170 127
f 127 171 172
f 127 172 128
f 127 170 173
f 127 173 171
f 128 172 174
f 128 174 175
f 128 175 176
f 128 176 131
f 131 177 178
f 131 178 140
f 131 139 132
f 131 176 177
f 134 179 149
f 134 135 179
f 135 136 180
f 135 180 181
f 135 181 179
f 136 138 182
f 136 182 180
f 137 142 183
f 137 183 184
f 137 184 138
f 138 184 182
f 140 185 186
f 140 186 183
f 140 183 142
f 140 142 141
f 140 178 187
f 140 187 188
f 140 188 189
f 140 189 185
f 143 190 191
f 143 191 144
f 143 149 190
f 144 191 192
f 144 192 193
f 144 193 194
f 144 194 145
f 145 194 195
f 145 195 146
f 146 155 147
f 146 195 152
f 147 155 150
f 147 150 148
f 149 196 190
f 149 179 197
f 149 197 198
f 149 198 199
f 149 199 196
f 152 195 153
f 153 195 200
f 153 200 201
f 153 201 202
f 153 202 203
f 153 203 204
f 153 204 205
f 153 205 157
f 153 157 154
f 156 157 206
f 156 206 207
f 157 205 206
f 160 167 161
f 161 208 162
f 161 167 209
f 161 209 210
f 161 210 208
f 162 208 211
f 162 211 212
f 162 212 213
f 162 213 214
f 162 214 215
f 162 215 163
f 163 215 164
f 164 215 216
f 164 216 165
f 165 216 166
f 166 216 217
f 168 218 219
f 168 219 220
f 168 220 221
f 168 169 218
f 169 222 219
f 169 219 218
f 171 173 223
f 171 223 172
f 172 224 174
f 172 223 225
f 172 225 226
f 172 226 224
f 174 224 175
f 175 224 227
f 175 227 176
f 176 228 177
f 176 227 229
f 176 229 230
f 176 230 228
f 177 228 231
f 177 231 178
f 178 231 230
f 178 230 232
f 178 232 233
f 178 233 187
f 179 181 197
f 180 182 234
f 180 234 181
f 181 234 235
f 181 235 197
f 182 184 236
f 182 236 234
f 183 237 238
f 183 238 184
f 183 186 239
f 183 239 237
f 184 238 236
f 185 240 239
f 185 239 186
f 185 189 241
f 185 241 240
f 187 242 188
f 187 233 242
f 188 242 189
f 189 242 243
f 189 243 241
f 190 244 245
f 190 245 192
f 190 192 191
f 190 196 246
f 190 246 244
f 192 245 247
f 192 247 193
f 193 247 248
f 193 248 194
f 194 248 249
f 194 249 200
f 194 200 195
f 196 199 246
f 197 235 250
f 197 250 198
f 198 250 251
f 198 251 199
f 199 251 246
f 200 249 252
f 200 252 201
f 201 252 253
f 201 253 254
f 201 254 255
f 201 255 202
f 202 255 203
f 203 255 256
f 203 256 204
f 204 206 205
f 204 256 257
f 204 257 206
f 206 257 258
f 206 258 259
f 206 259 207
f 208 210 260
f 208 260 211
f 209 261 262
f 209 262 210
f 210 262 260
f 211 260 212
f 212 263 213
f 212 260 262
f 212 262 264
f 212 264 265
f 212 265 263
f 213 266 267
f 213 267 268
f 213 268 216
f 213 216 214
f 213 263 266
f 214 216 215
f 216 269 217
f 216 268 267
f 216 267 270
f 216 270 271
f 216 271 269
f 217 269 273
f 217 273 272
f 219 222 274
f 219 274 275
f 219 275 220
f 220 275 276
f 220 276 277
f 220 277 262
f 220 262 278
f 220 278 221
f 221 278 279
f 224 226 280
f 224 280 281
f 224 281 227
f 227 281 282
f 227 282 229
f 228 230 231
f 229 282 283
f 229 283 284
f 229 284 230
f 230 284 285
f 230 285 286
f 230 286 287
f 230 287 232
f 232 288 233
f 232 287 289
f 232 289 290
f 232 290 291
f 232 291 292
f 232 292 288
f 233 288 293
f 233 293 294
f 233 294 242
f 234 295 235
f 234 236 296
f 234 296 295
f 235 295 250
f 236 238 296
f 237 297 238
f 237 239 298
f 237 298 299
f 237 299 297
f 238 297 296
f 239 240 300
f 239 300 298
f 240 241 300
f 241 301 302
f 241 302 300
f 241 243 301
f 242 294 243
f 243 303 301
f 243 294 303
f 244 246 304
f 244 304 305
f 244 305 245
f 245 306 247
f 245 305 306
f 246 307 308
f 246 308 304
f 246 251 307
f 247 306 248
f 248 309 249
f 248 306 309
f 249 309 252
f 250 295 251
f 251 295 310
f 251 310 311
f 251 311 312
f 251 312 313
f 251 313 308
f 251 308 307
f 252 309 253
f 253 309 314
f 253 314 305
f 253 305 254
f 254 305 255
f 255 305 304
f 255 304 315
f 255 315 316
f 255 316 317
f 255 317 318
f 255 318 257
f 255 257 256
f 257 318 319
f 257 319 258
f 261 320 262
f 262 320 321
f 262 321 278
f 262 277 264
f 263 265 322
f 263 322 323
f 263 323 324
f 263 324 266
f 264 277 276
f 264 276 325
f 264 325 326
f 264 326 265
f 265 326 327
f 265 327 322
f 266 324 328
f 266 328 267
f 267 328 270
f 269 271 329
f 269 329 273
f 270 328 330
f 270 330 271
f 271 330 331
f 271 331 329
f 272 273 332
f 273 329 333
f 273 333 332
f 274 334 335
f 274 335 275
f 275 336 276
f 275 335 336
f 276 336 337
f 276 337 338
f 276 338 325
f 278 321 279
f 283 339 284
f 284 340 285
f 284 339 341
f 284 341 340
f 285 340 286
f 286 340 341
f 286 341 287
f 287 341 289
f 288 292 293
f 290 342 343
f 290 343 344
f 290 344 345
f 290 345 291
f 291 345 292
f 292 345 293
f 293 345 346
f 293 346 294
f 294 346 347
f 294 347 348
f 294 348 303
f 295 296 349
f 295 349 299
f 295 299 310
f 296 297 299
f 296 299 349
f 298 300 302
f 298 302 299
f 299 302 350
f 299 350 351
f 299 351 311
f 299 311 310
f 301 303 350
f 301 350 302
f 303 348 350
f 304 352 315
f 304 308 313
f 304 313 352
f 305 314 306
f 306 314 309
f 311 353 354
f 311 354 312
f 311 351 355
f 311 355 356
f 311 356 353
f 312 354 357
f 312 357 358
f 312 358 313
f 313 358 352
f 315 352 316
f 316 359 317
f 316 352 359
f 317 359 360
f 317 360 361
f 317 361 319
f 317 319 318
f 322 327 323
f 323 362 324
f 323 327 362
f 324 362 363
f 324 363 331
f 324 331 328
f 325 338 326
f 326 338 364
f 326 364 355
f 326 355 365
f 326 365 366
f 326 366 367
f 326 367 327
f 327 367 368
f 327 368 362
f 328 331 330
f 329 331 333
f 331 363 369
f 331 369 332
f 331 332 333
f 332 369 370
f 334 371 372
f 334 372 373
f 334 373 335
f 335 373 336
f 336 373 337
f 337 353 374
f 337 374 338
f 337 373 372
f 337 372 375
f 337 375 376
f 337 376 357
f 337 357 377
f 337 377 353
f 338 374 356
f 338 356 364
f 342 378 379
f 342 379 347
f 342 347 343
f 343 347 346
f 343 346 344
f 344 346 345
f 347 379 348
f 348 379 350
f 350 379 380
f 350 380 381
f 350 381 382
f 350 382 355
f 350 355 351
f 352 358 383
f 352 383 384
f 352 384 385
f 352 385 359
f 353 356 374
f 353 377 354
f 354 377 357
f 355 382 386
f 355 386 365
f 355 364 356
f 357 376 387
f 357 387 388
f 357 388 389
f 357 389 358
f 358 389 383
f 359 390 360
f 359 385 390
f 362 368 363
f 363 368 369
f 365 386 391
f 365 391 366
f 366 391 368
f 366 368 367
f 368 392 393
f 368 393 370
f 368 370 369
f 368 391 392
f 371 394 372
f 372 394 375
f 375 394 376
f 376 394 387
f 378 395 379
f 379 395 380
f 380 392 396
f 380 396 381
f 380 395 392
f 381 396 382
f 382 396 392
f 382 392 386
f 383 389 388
f 383 388 397
f 383 397 384
f 384 397 385
f 385 397 398
f 385 398 399
f 385 399 390
f 386 392 391
f 387 400 398
f 387 398 397
f 387 397 388
f 387 394 400
f 392 395 393

