# https://github.com/mikedh/trimesh
v -0.01794691 0.00150053 -0.05954074
v -0.01794691 0.00350984 -0.05954074
v -0.01068664 0.00150053 -0.05954074
v -0.02564832 0.00094972 -0.05953893
v -0.01068664 0.00350984 -0.05954074
v -0.02564832 0.00399303 -0.05953893
v 0.01253724 0.00150053 -0.05952931
v -0.02399962 0.00094972 -0.05953893
v -0.02564832 0.00094972 -0.05870608
v -0.02565206 0.00095001 -0.05709273
v 0.01253724 0.00350984 -0.05952931
v -0.02399214 0.00399303 -0.05953893
v -0.01794691 0.00399303 -0.05953833
v -0.02565206 0.00354976 -0.05709273
v -0.02565206 0.00399303 -0.05665043
v 0.01254097 0.00150053 -0.05470490
v -0.02399962 0.00094972 -0.05789971
v -0.02523334 0.00094972 -0.05743514
v -0.02565206 0.00095001 -0.05599329
v 0.01254097 0.00350984 -0.05470490
v -0.01794691 0.00399303 -0.05909603
v -0.02565206 0.00399303 -0.05448044
v 0.01254097 0.00150053 -0.05339303
v -0.02412299 0.00094972 -0.05743514
v -0.02499782 0.00095001 -0.05616841
v 0.00436476 0.00150053 -0.05339303
v -0.02565206 0.00150053 -0.05448044
v 0.01254097 0.00350984 -0.05339303
v -0.01795065 0.00399303 -0.05490047
v 0.00436476 0.00299955 -0.05339303
v 0.00739673 0.00350984 -0.05339303
v -0.02497165 0.00095001 -0.05619368
v -0.02426506 0.00095001 -0.05690016
f 1 2 5
f 1 5 3
f 1 3 8
f 1 8 4
f 1 4 6
f 1 6 2
f 2 6 12
f 2 12 5
f 3 5 11
f 3 11 7
f 3 7 8
f 4 9 19
f 4 19 10
f 4 10 14
f 4 14 6
f 4 8 17
f 4 17 24
f 4 24 18
f 4 18 9
f 5 12 13
f 5 13 11
f 6 14 15
f 6 15 22
f 6 22 29
f 6 29 21
f 6 21 13
f 6 13 12
f 7 11 20
f 7 20 16
f 7 16 8
f 8 16 23
f 8 23 17
f 9 18 19
f 10 19 27
f 10 27 22
f 10 22 15
f 10 15 14
f 11 13 20
f 13 21 28
f 13 28 20
f 16 20 28
f 16 28 23
f 17 23 24
f 18 24 19
f 19 24 25
f 19 25 23
f 19 23 26
f 19 26 27
f 21 29 28
f 22 27 26
f 22 26 30
f 22 30 31
f 22 31 28
f 22 28 29
f 23 28 31
f 23 31 30
f 23 30 26
f 23 25 32
f 23 32 33
f 23 33 24
f 24 33 32
f 24 32 25

