# https://github.com/mikedh/trimesh
v -0.00989076 0.00094972 -0.01624278
v -0.00989076 -0.00055334 -0.01624278
v -0.00989076 0.00094972 -0.02253324
v -0.02204452 0.00094972 -0.01624278
v -0.00989076 -0.00055334 -0.02253324
v -0.00989224 -0.01169748 -0.01624278
v -0.01690876 0.00094972 -0.02349910
v -0.02320851 0.00094972 -0.01624350
v -0.02321888 -0.00055334 -0.01624278
v -0.00989224 -0.01169748 -0.02253324
v -0.01690876 -0.00150048 -0.02349910
v -0.01712349 -0.01169748 -0.01624278
v -0.01712497 -0.01169872 -0.01624350
v -0.02129667 0.00094972 -0.02367293
v -0.02347804 -0.00125286 -0.01624278
v -0.02501818 0.00094972 -0.01714972
v -0.02501818 -0.00350125 -0.01673807
v -0.01712497 -0.01169872 -0.01871052
v -0.01689987 -0.01169748 -0.02253324
v -0.02129667 -0.00150048 -0.02367293
v -0.02069246 -0.01108090 -0.01624278
v -0.02036518 -0.01169748 -0.01624350
v -0.01829340 -0.01169872 -0.01624350
v -0.02501966 0.00094972 -0.02253251
v -0.02347952 -0.00144229 -0.01624278
v -0.02501966 0.00094972 -0.01870543
v -0.02501966 -0.00055334 -0.01870543
v -0.02501818 -0.00525812 -0.01675335
v -0.01829340 -0.01169872 -0.01871052
v -0.02501818 -0.01169748 -0.02249760
v -0.02501818 -0.00350125 -0.02253251
v -0.02501966 -0.00025743 -0.02253251
v -0.02086573 -0.01086300 -0.01624278
v -0.02360095 -0.01108833 -0.01658097
v -0.02348988 -0.01169748 -0.01664134
v -0.02351802 -0.01169748 -0.01664861
v -0.02501818 -0.01169748 -0.01705808
v -0.02347508 -0.00153144 -0.01624278
v -0.02501818 -0.00719822 -0.01677080
v -0.02501818 -0.01114529 -0.01697735
v -0.02501818 -0.00978338 -0.01687990
v -0.02501818 -0.00917299 -0.01683844
v -0.02501966 -0.00055334 -0.02252887
v -0.02187126 -0.00866537 -0.01624278
v -0.02383938 -0.00913213 -0.01650824
v -0.02347063 -0.00159706 -0.01624278
v -0.02394008 -0.00716727 -0.01646969
v -0.02194827 -0.00846727 -0.01624278
v -0.02276276 -0.00594403 -0.01624278
v -0.02276720 -0.00592422 -0.01624278
v -0.02317445 -0.00404602 -0.01624278
v -0.02318186 -0.00400269 -0.01624278
v -0.02325294 -0.00357183 -0.01624278
v -0.02339214 -0.00245011 -0.01624278
v -0.02327663 -0.00341211 -0.01624278
v -0.02329737 -0.00325611 -0.01624278
v -0.02337585 -0.00259744 -0.01624278
f 1 2 5
f 1 5 3
f 1 3 7
f 1 7 14
f 1 14 24
f 1 24 26
f 1 26 16
f 1 16 8
f 1 8 4
f 1 4 9
f 1 9 15
f 1 15 25
f 1 25 38
f 1 38 46
f 1 46 54
f 1 54 57
f 1 57 56
f 1 56 55
f 1 55 53
f 1 53 52
f 1 52 51
f 1 51 50
f 1 50 49
f 1 49 48
f 1 48 44
f 1 44 33
f 1 33 21
f 1 21 12
f 1 12 6
f 1 6 2
f 2 6 10
f 2 10 5
f 3 5 11
f 3 11 7
f 4 8 9
f 5 10 11
f 6 12 23
f 6 23 13
f 6 13 18
f 6 18 10
f 7 11 20
f 7 20 14
f 8 15 9
f 8 16 17
f 8 17 15
f 10 18 29
f 10 29 19
f 10 19 20
f 10 20 11
f 12 21 22
f 12 22 23
f 13 23 29
f 13 29 18
f 14 20 32
f 14 32 24
f 15 17 25
f 16 26 17
f 17 26 27
f 17 27 28
f 17 28 25
f 19 29 30
f 19 30 20
f 20 30 31
f 20 31 32
f 21 33 22
f 22 33 34
f 22 34 35
f 22 35 23
f 23 35 36
f 23 36 37
f 23 37 30
f 23 30 29
f 24 32 43
f 24 43 27
f 24 27 26
f 25 28 39
f 25 39 38
f 27 37 40
f 27 40 41
f 27 41 42
f 27 42 39
f 27 39 28
f 27 43 30
f 27 30 37
f 30 43 32
f 30 32 31
f 33 44 34
f 34 36 35
f 34 44 45
f 34 45 41
f 34 41 40
f 34 40 37
f 34 37 36
f 38 39 47
f 38 47 46
f 39 45 47
f 39 42 45
f 41 45 42
f 44 48 45
f 45 48 49
f 45 49 50
f 45 50 51
f 45 51 52
f 45 52 53
f 45 53 47
f 46 47 54
f 47 53 55
f 47 55 56
f 47 56 57
f 47 57 54

