# https://github.com/mikedh/trimesh
v 0.02142099 0.01023999 -0.01282836
v 0.02201764 0.00894866 -0.01282836
v 0.02111938 0.01023908 -0.01500100
v 0.02112157 0.01023999 -0.01434333
v 0.01746381 0.01023999 -0.01282836
v 0.02224467 0.00843759 -0.01282836
v 0.02299378 0.00503285 -0.01750814
v 0.02091318 0.01023908 -0.01595044
v 0.02087041 0.01023908 -0.01614674
v 0.01992827 0.01023999 -0.01964940
v 0.01746161 0.01023999 -0.01750881
v 0.01254146 0.01023908 -0.01300129
v 0.01589431 0.01023726 -0.01282970
v 0.01746381 0.00721628 -0.01282836
v 0.02266145 0.00713171 -0.01282836
v 0.02294113 0.00624688 -0.01282836
v 0.02305410 0.00587403 -0.01282836
v 0.02315391 0.00536296 -0.01282836
v 0.02351913 0.00341960 -0.01282836
v 0.02362004 0.00286852 -0.01282836
v 0.02363868 0.00268755 -0.01282836
v 0.02342591 0.00094972 -0.01672829
v 0.02299378 0.00095153 -0.01750814
v 0.01992718 0.00094972 -0.01799956
v 0.01600180 0.00094972 -0.01800557
v 0.01254146 0.00094972 -0.01800557
v 0.01254146 0.00449995 -0.01800557
v 0.01254146 0.01023908 -0.01799822
v 0.01874156 0.01023999 -0.01891896
v 0.01746161 0.01023999 -0.01800023
v 0.01254146 0.00378427 -0.01284105
v 0.01254146 0.00094972 -0.01284105
v 0.01894556 0.00094972 -0.01282836
v 0.02365075 0.00253659 -0.01282836
v 0.02374617 0.00094972 -0.01282836
v 0.02239603 0.00095063 -0.01750814
f 1 2 3
f 1 3 4
f 1 4 10
f 1 10 29
f 1 29 30
f 1 30 11
f 1 11 5
f 1 5 14
f 1 14 33
f 1 33 35
f 1 35 34
f 1 34 21
f 1 21 20
f 1 20 19
f 1 19 18
f 1 18 17
f 1 17 16
f 1 16 15
f 1 15 6
f 1 6 2
f 2 6 3
f 3 6 7
f 3 7 8
f 3 8 4
f 4 8 9
f 4 9 10
f 5 11 12
f 5 12 13
f 5 13 14
f 6 15 7
f 7 15 16
f 7 16 17
f 7 17 18
f 7 18 19
f 7 19 20
f 7 20 21
f 7 21 22
f 7 22 23
f 7 23 10
f 7 10 9
f 7 9 8
f 10 23 24
f 10 24 25
f 10 25 26
f 10 26 27
f 10 27 28
f 10 28 29
f 11 30 28
f 11 28 12
f 12 28 27
f 12 27 26
f 12 26 32
f 12 32 31
f 12 31 13
f 13 31 32
f 13 32 33
f 13 33 14
f 21 34 22
f 22 34 35
f 22 35 33
f 22 33 32
f 22 32 26
f 22 26 25
f 22 25 24
f 22 24 36
f 22 36 23
f 23 36 24
f 28 30 29

