# https://github.com/mikedh/trimesh
v -0.03588665 0.01657804 -0.07811558
v -0.03589077 0.01559405 -0.05903848
v -0.03589077 0.01616316 -0.06523564
v -0.03588665 0.01801579 -0.07811558
v 0.00617916 0.01892203 -0.07811558
v -0.03589077 0.01711719 -0.05903848
v 0.00617916 0.02038017 -0.05904035
v -0.01048245 0.01987479 -0.05903848
v -0.03589077 0.01766145 -0.06523564
v -0.03588665 0.01811265 -0.07435021
v -0.03411589 0.01834718 -0.07811558
v 0.00617916 0.02042860 -0.07811558
v -0.03482832 0.01736829 -0.05903848
v 0.00617916 0.02187145 -0.05904035
v -0.01048245 0.02136161 -0.05903848
v -0.03469654 0.01791573 -0.06523564
v -0.03468007 0.01798010 -0.06597713
v -0.03588665 0.01809290 -0.07393371
v -0.03468007 0.01799284 -0.06623488
v -0.03455652 0.01814898 -0.06927930
v -0.03437121 0.01838606 -0.07393371
v -0.03448652 0.01837714 -0.07424189
v -0.03435886 0.01840135 -0.07423442
v -0.03169448 0.01865755 -0.07811558
v 0.00325123 0.02048851 -0.07811558
v 0.00330064 0.02100345 -0.07305400
v 0.00617916 0.02049998 -0.07740957
v -0.03478713 0.01737658 -0.05903848
v 0.00617916 0.02176757 -0.06090809
v 0.00545850 0.02188101 -0.05999476
v 0.00470901 0.02199891 -0.05904035
v 0.00344477 0.02207411 -0.05904035
v -0.00197045 0.02210151 -0.05904035
v -0.00255521 0.02210406 -0.05904035
v -0.00436715 0.02195621 -0.05904035
v -0.00845637 0.02164967 -0.05904221
v -0.01420927 0.02087407 -0.05903848
v -0.02699992 0.01876525 -0.05903848
v -0.02038222 0.01988307 -0.05903848
v -0.03027788 0.01881878 -0.07811558
v -0.00164101 0.02050763 -0.07811558
v 0.00617916 0.02087790 -0.07298116
v 0.00617916 0.02054077 -0.07693330
v -0.00245226 0.02102448 -0.07306708
v -0.00164101 0.02105634 -0.07261695
v -0.00436715 0.02095246 -0.07302225
v -0.00813104 0.02080971 -0.07293634
v -0.01048245 0.02041713 -0.07672598
v -0.01134312 0.02027310 -0.07811371
v -0.01881736 0.01979258 -0.07811371
v -0.02408022 0.01939490 -0.07811558
v -0.02923601 0.01893605 -0.07811558
v -0.00241520 0.02051018 -0.07811558
v -0.01048245 0.02029222 -0.07811558
v -0.01735134 0.01986013 -0.07811558
f 1 2 3
f 1 3 9
f 1 9 4
f 1 4 11
f 1 11 24
f 1 24 40
f 1 40 52
f 1 52 51
f 1 51 55
f 1 55 54
f 1 54 53
f 1 53 41
f 1 41 25
f 1 25 12
f 1 12 5
f 1 5 2
f 2 6 9
f 2 9 3
f 2 5 7
f 2 7 8
f 2 8 15
f 2 15 37
f 2 37 39
f 2 39 38
f 2 38 28
f 2 28 13
f 2 13 6
f 4 9 10
f 4 10 11
f 5 12 27
f 5 27 43
f 5 43 42
f 5 42 29
f 5 29 14
f 5 14 7
f 6 13 9
f 7 14 15
f 7 15 8
f 9 13 16
f 9 16 17
f 9 17 18
f 9 18 10
f 10 18 19
f 10 19 20
f 10 20 21
f 10 21 22
f 10 22 23
f 10 23 11
f 11 23 24
f 12 25 26
f 12 26 27
f 13 28 16
f 14 29 30
f 14 30 31
f 14 31 15
f 15 31 32
f 15 32 33
f 15 33 34
f 15 34 35
f 15 35 36
f 15 36 37
f 16 28 38
f 16 38 17
f 17 19 18
f 17 38 39
f 17 39 37
f 17 37 19
f 19 37 20
f 20 37 21
f 21 23 22
f 21 37 23
f 23 37 36
f 23 36 24
f 24 36 40
f 25 41 26
f 26 32 42
f 26 42 43
f 26 43 27
f 26 41 44
f 26 44 45
f 26 45 34
f 26 34 33
f 26 33 32
f 29 42 30
f 30 42 31
f 31 42 32
f 34 45 44
f 34 44 46
f 34 46 47
f 34 47 48
f 34 48 49
f 34 49 50
f 34 50 51
f 34 51 36
f 34 36 35
f 36 51 52
f 36 52 40
f 41 53 44
f 44 53 49
f 44 49 46
f 46 49 48
f 46 48 47
f 49 53 54
f 49 54 55
f 49 55 50
f 50 55 51

