# https://github.com/mikedh/trimesh
v -0.01795629 0.00326914 -0.05954243
v -0.01795704 0.00399244 -0.05953940
v -0.01795629 0.00150023 -0.05954243
v -0.01795629 0.00399244 -0.08879715
v -0.01795704 0.00384468 -0.05953940
v -0.02448595 0.00399303 -0.05954243
v -0.02300947 0.00399244 -0.05953940
v -0.01833596 0.00326914 -0.05953940
v -0.02448595 0.00094972 -0.05954243
v -0.01795629 0.00095001 -0.05954849
v -0.01795629 0.00399244 -0.09050055
v -0.02448595 0.00399303 -0.09049752
v -0.02565206 0.00399303 -0.05954243
v -0.02300947 0.00326914 -0.05953940
v -0.02565206 0.00094972 -0.05954243
v -0.02448595 0.00094972 -0.09049752
v -0.01795629 0.00095001 -0.06101850
v -0.01795629 0.00326914 -0.09050055
v -0.01795704 0.00326884 -0.09050358
v -0.01924294 0.00326914 -0.09050358
v -0.02271266 0.00399244 -0.09050055
v -0.02565206 0.00399303 -0.09049752
v -0.02565206 0.00094972 -0.09049752
v -0.02070887 0.00095001 -0.09050358
v -0.01924294 0.00095001 -0.09050055
v -0.01795704 0.00095031 -0.09050358
v -0.02070887 0.00326914 -0.09050358
v -0.02275636 0.00399065 -0.09050055
v -0.02274355 0.00182732 -0.09050358
v -0.02275636 0.00095001 -0.09050358
f 1 2 5
f 1 5 3
f 1 3 10
f 1 10 17
f 1 17 18
f 1 18 11
f 1 11 4
f 1 4 2
f 2 4 6
f 2 6 13
f 2 13 7
f 2 7 14
f 2 14 8
f 2 8 5
f 3 5 8
f 3 8 9
f 3 9 10
f 4 11 12
f 4 12 6
f 6 12 22
f 6 22 13
f 7 13 15
f 7 15 14
f 8 14 15
f 8 15 9
f 9 15 23
f 9 23 16
f 9 16 17
f 9 17 10
f 11 18 26
f 11 26 19
f 11 19 20
f 11 20 27
f 11 27 21
f 11 21 22
f 11 22 12
f 13 22 23
f 13 23 15
f 16 23 30
f 16 30 24
f 16 24 25
f 16 25 17
f 17 25 26
f 17 26 18
f 19 26 24
f 19 24 30
f 19 30 29
f 19 29 27
f 19 27 20
f 21 27 28
f 21 28 22
f 22 28 29
f 22 29 30
f 22 30 23
f 24 26 25
f 27 29 28

