# https://github.com/mikedh/trimesh
v 0.03680434 0.00094972 -0.10185371
v 0.03262313 0.01391235 -0.09714094
v 0.03672710 0.00904402 -0.10186211
v 0.03680434 0.00893291 -0.10185539
v 0.03729540 0.01087028 -0.10179654
v 0.03843105 0.00893419 -0.10165699
v 0.03885537 0.00094972 -0.10160151
v 0.03680434 0.00094972 -0.09220961
v 0.03262313 0.01399664 -0.09714094
v 0.03680529 0.00094972 -0.08742287
v 0.03262313 0.01398131 -0.09673407
v 0.03672710 0.01023939 -0.10186211
v 0.03679480 0.01148329 -0.10185539
v 0.03682436 0.01145264 -0.10185203
v 0.03771686 0.01023939 -0.10174442
v 0.03735452 0.01371057 -0.08685626
v 0.03769493 0.01327124 -0.08687812
v 0.03791424 0.01298134 -0.08685458
v 0.03804010 0.01281148 -0.08684113
v 0.03843391 0.01226360 -0.08672007
v 0.03855882 0.00893419 -0.10164018
v 0.03939506 0.00719221 -0.10153594
v 0.03904417 0.00094972 -0.10157797
v 0.03262313 0.01399664 -0.09665336
v 0.03508036 0.01399664 -0.09714094
v 0.04236434 0.00094972 -0.08742287
v 0.03502887 0.01298134 -0.08468567
v 0.03522720 0.01388298 -0.09714094
v 0.03527011 0.01399664 -0.09633559
v 0.03650111 0.01399664 -0.09014158
v 0.03695976 0.01399664 -0.08764985
v 0.03711995 0.01399664 -0.08677724
v 0.03848159 0.00909255 -0.10164858
v 0.03855596 0.01208992 -0.08666123
v 0.03711995 0.01399664 -0.08672512
v 0.03735738 0.01370674 -0.08680414
v 0.03769493 0.01327124 -0.08682263
v 0.03791424 0.01298134 -0.08683440
v 0.03842247 0.01227510 -0.08665450
v 0.03976789 0.00979240 -0.08742287
v 0.04005204 0.00919599 -0.08742287
v 0.03971163 0.00630079 -0.10149222
v 0.04021414 0.00420378 -0.10142833
v 0.04040771 0.00104678 -0.10140311
v 0.04039245 0.00772477 -0.09040555
v 0.04030568 0.00745019 -0.09230040
v 0.04034192 0.00737612 -0.09220961
v 0.04128972 0.00543619 -0.08982212
v 0.04040675 0.00094972 -0.10140311
v 0.03502887 0.01399664 -0.08468567
v 0.04236434 0.00104550 -0.08742287
v 0.03578025 0.01298134 -0.08468567
v 0.04146612 0.00094972 -0.09439702
v 0.04174932 0.00104678 -0.09220961
v 0.03910233 0.01129300 -0.08625098
v 0.03910805 0.01128534 -0.08624258
v 0.03854166 0.01210524 -0.08659734
v 0.03910329 0.01128534 -0.08614506
v 0.03710565 0.01399664 -0.08667468
v 0.03790756 0.01298134 -0.08677388
v 0.04052499 0.00815643 -0.08742287
v 0.04122965 0.00542214 -0.09040555
v 0.04060127 0.00527655 -0.09644824
v 0.04041438 0.00200971 -0.10140143
v 0.04094454 0.00350393 -0.09663487
v 0.04119628 0.00634166 -0.08742287
v 0.04149473 0.00552559 -0.08742287
v 0.04203442 0.00277215 -0.08742287
v 0.04196100 0.00277215 -0.08821309
v 0.04130116 0.00419995 -0.09220961
v 0.03577548 0.01399664 -0.08468567
v 0.04228901 0.00146184 -0.08742287
v 0.03906133 0.01128534 -0.08607276
v 0.03898886 0.01128534 -0.08604082
v 0.04131070 0.00315273 -0.09422888
v 0.04146517 0.00104678 -0.09440542
v 0.03707705 0.01399664 -0.08662592
f 1 2 3
f 1 3 4
f 1 4 5
f 1 5 6
f 1 6 7
f 1 7 23
f 1 23 49
f 1 49 53
f 1 53 26
f 1 26 10
f 1 10 8
f 1 8 2
f 2 9 12
f 2 12 3
f 2 8 10
f 2 10 11
f 2 11 24
f 2 24 9
f 3 12 4
f 4 12 13
f 4 13 14
f 4 14 5
f 5 15 6
f 5 14 16
f 5 16 17
f 5 17 18
f 5 18 19
f 5 19 20
f 5 20 15
f 6 21 22
f 6 22 23
f 6 23 7
f 6 15 21
f 9 13 12
f 9 24 50
f 9 50 71
f 9 71 77
f 9 77 59
f 9 59 35
f 9 35 32
f 9 32 31
f 9 31 30
f 9 30 29
f 9 29 25
f 9 25 13
f 10 26 52
f 10 52 27
f 10 27 24
f 10 24 11
f 13 25 28
f 13 28 29
f 13 29 30
f 13 30 31
f 13 31 32
f 13 32 14
f 14 32 16
f 15 33 21
f 15 20 34
f 15 34 33
f 16 32 35
f 16 35 36
f 16 36 37
f 16 37 17
f 17 37 38
f 17 38 18
f 18 38 19
f 19 38 39
f 19 39 20
f 20 39 34
f 21 33 40
f 21 40 41
f 21 41 22
f 22 42 43
f 22 43 44
f 22 44 23
f 22 41 45
f 22 45 46
f 22 46 47
f 22 47 48
f 22 48 42
f 23 44 49
f 24 27 50
f 25 29 28
f 26 51 52
f 26 53 54
f 26 54 51
f 27 52 71
f 27 71 50
f 33 34 55
f 33 55 56
f 33 56 40
f 34 39 57
f 34 57 58
f 34 58 56
f 34 56 55
f 35 59 58
f 35 58 36
f 36 58 37
f 37 58 60
f 37 60 38
f 38 60 39
f 39 60 58
f 39 58 57
f 40 56 41
f 41 56 61
f 41 61 45
f 42 48 62
f 42 62 63
f 42 63 43
f 43 64 44
f 43 63 65
f 43 65 64
f 44 64 53
f 44 53 49
f 45 47 46
f 45 61 66
f 45 66 47
f 47 66 48
f 48 66 67
f 48 67 68
f 48 68 69
f 48 69 70
f 48 70 62
f 51 72 73
f 51 73 74
f 51 74 71
f 51 71 52
f 51 54 75
f 51 75 72
f 53 64 76
f 53 76 54
f 54 76 75
f 56 58 61
f 58 73 67
f 58 67 66
f 58 66 61
f 58 59 73
f 59 77 73
f 62 70 75
f 62 75 63
f 63 75 65
f 64 65 75
f 64 75 76
f 67 73 68
f 68 72 69
f 68 73 72
f 69 72 75
f 69 75 70
f 71 74 73
f 71 73 77

