# https://github.com/mikedh/trimesh
v 0.01351196 -0.01749269 -0.01874632
v 0.01351196 -0.01910383 -0.01874632
v 0.01351196 -0.01749269 -0.02050289
v 0.01309274 -0.01749208 -0.04175729
v 0.00631200 -0.01749208 -0.03899995
v -0.00069095 -0.01749208 -0.03781196
v -0.00989076 -0.01749269 -0.01874632
v -0.00989076 -0.01910383 -0.01874632
v 0.01244445 -0.02167008 -0.02239581
v 0.01300798 -0.02165376 -0.02239581
v 0.01324393 -0.02364973 -0.04175729
v 0.01324393 -0.02365517 -0.04235591
v 0.01351196 -0.01910383 -0.02050289
v 0.01350967 -0.01749269 -0.02100674
v 0.01309274 -0.01749208 -0.04203695
v -0.00399197 -0.01749208 -0.03781196
v -0.00989076 -0.01749269 -0.03747451
v -0.00989076 -0.01910383 -0.03780734
v -0.00988847 -0.02227298 -0.02859232
v -0.00988847 -0.02224700 -0.02798446
v -0.00988847 -0.02210443 -0.02577257
v -0.00988847 -0.02207483 -0.02549753
v -0.00988847 -0.02186399 -0.02397210
v -0.00988847 -0.02175284 -0.02319320
v -0.00988847 -0.02173169 -0.02311231
v -0.00988847 -0.02153053 -0.02239581
v 0.00781934 -0.02165195 -0.02239581
v 0.01146399 -0.02194011 -0.02319782
v 0.01246278 -0.02228626 -0.02444128
v 0.01310419 -0.02366363 -0.03899995
v -0.00399197 -0.02241796 -0.04203926
v 0.01156707 -0.02352710 -0.04235591
v 0.01324393 -0.01800134 -0.04235591
v 0.01350967 -0.01910383 -0.02100674
v -0.00988618 -0.02261732 -0.03780965
v 0.01349363 -0.01749269 -0.02200521
v -0.00399197 -0.01749208 -0.04203695
v -0.00989076 -0.01749329 -0.03780734
v -0.00988618 -0.02248924 -0.03328188
v -0.00988618 -0.02237990 -0.03073255
v 0.01040335 -0.02324861 -0.03211700
v 0.01052247 -0.02305952 -0.02929032
v 0.01135632 -0.02303415 -0.02856689
v 0.01170452 -0.02286983 -0.02727490
v 0.01201149 -0.02266987 -0.02611695
v 0.01239176 -0.02235513 -0.02470708
v 0.01241238 -0.02233399 -0.02461925
v -0.00399197 -0.01800134 -0.04203926
v -0.00068865 -0.02244515 -0.04235591
v -0.00068865 -0.01800134 -0.04235591
f 1 2 13
f 1 13 3
f 1 3 15
f 1 15 4
f 1 4 5
f 1 5 6
f 1 6 16
f 1 16 7
f 1 7 8
f 1 8 2
f 2 8 9
f 2 9 10
f 2 10 11
f 2 11 12
f 2 12 13
f 3 13 34
f 3 34 14
f 3 14 15
f 4 15 37
f 4 37 16
f 4 16 6
f 4 6 5
f 7 16 37
f 7 37 17
f 7 17 38
f 7 38 18
f 7 18 8
f 8 18 19
f 8 19 20
f 8 20 21
f 8 21 22
f 8 22 23
f 8 23 24
f 8 24 25
f 8 25 26
f 8 26 27
f 8 27 9
f 9 27 28
f 9 28 29
f 9 29 10
f 10 29 30
f 10 30 11
f 11 30 12
f 12 31 32
f 12 32 49
f 12 49 50
f 12 50 33
f 12 33 14
f 12 14 34
f 12 34 13
f 12 30 35
f 12 35 31
f 14 33 36
f 14 36 15
f 15 33 50
f 15 50 37
f 15 36 33
f 17 37 38
f 18 38 48
f 18 48 31
f 18 31 35
f 18 35 19
f 19 39 20
f 19 35 39
f 20 39 40
f 20 40 41
f 20 41 21
f 21 41 42
f 21 42 43
f 21 43 22
f 22 43 44
f 22 44 23
f 23 44 24
f 24 44 45
f 24 45 46
f 24 46 47
f 24 47 25
f 25 28 26
f 25 47 29
f 25 29 28
f 26 28 27
f 29 47 30
f 30 47 46
f 30 46 45
f 30 45 44
f 30 44 43
f 30 43 41
f 30 41 40
f 30 40 39
f 30 39 35
f 31 48 50
f 31 50 49
f 31 49 32
f 37 50 48
f 37 48 38
f 41 43 42

