# https://github.com/mikedh/trimesh
v 0.00436118 0.00291253 -0.01300170
v -0.00059777 0.00291253 -0.01284000
v 0.00241037 0.00291234 -0.01284000
v 0.00241911 0.00289985 -0.01284000
v 0.00279485 0.00150017 -0.01284000
v 0.00436118 0.00095010 -0.01300170
v 0.00436118 0.00291253 -0.02349728
v -0.01340803 0.00291253 -0.01284000
v 0.00264630 0.00094991 -0.01284000
v 0.00279922 0.00094991 -0.01300170
v 0.00435900 0.00094991 -0.02351659
v 0.00436118 0.00095010 -0.02351659
v 0.00436118 0.00290446 -0.02351659
v 0.00435900 0.00290466 -0.03749221
v -0.01380344 0.00291253 -0.02349970
v -0.01795410 0.00291253 -0.01300170
v -0.01342114 0.00289966 -0.01284000
v -0.01183515 0.00094972 -0.01284000
v -0.00985375 0.00094972 -0.01284242
v 0.00435900 0.00094991 -0.03749221
v -0.01689896 0.00290466 -0.03749221
v -0.01795629 0.00291253 -0.02349970
v -0.01379689 0.00149998 -0.01284000
v -0.01370732 0.00183871 -0.01284000
v -0.01795629 0.00291253 -0.01938014
v -0.01795410 0.00094991 -0.01300170
v -0.01365052 0.00094972 -0.01284000
v -0.00985375 0.00094972 -0.01437730
v -0.01689896 0.00094991 -0.03749221
v -0.01099191 0.00094972 -0.02351659
v -0.01795629 0.00094972 -0.02349970
v -0.01795629 0.00094991 -0.01938014
v -0.01795629 0.00094972 -0.02097294
v -0.01380344 0.00094972 -0.01300170
v -0.01689896 0.00094972 -0.02351659
f 1 2 3
f 1 3 4
f 1 4 5
f 1 5 6
f 1 6 12
f 1 12 13
f 1 13 7
f 1 7 15
f 1 15 22
f 1 22 25
f 1 25 16
f 1 16 8
f 1 8 2
f 2 8 17
f 2 17 24
f 2 24 23
f 2 23 27
f 2 27 18
f 2 18 9
f 2 9 5
f 2 5 4
f 2 4 3
f 5 9 6
f 6 9 10
f 6 10 11
f 6 11 20
f 6 20 12
f 7 13 14
f 7 14 15
f 8 16 17
f 9 18 19
f 9 19 10
f 10 19 11
f 11 19 28
f 11 28 20
f 12 20 14
f 12 14 13
f 14 20 29
f 14 29 21
f 14 21 22
f 14 22 15
f 16 23 24
f 16 24 17
f 16 25 32
f 16 32 26
f 16 26 23
f 18 27 34
f 18 34 33
f 18 33 31
f 18 31 35
f 18 35 30
f 18 30 28
f 18 28 19
f 20 28 30
f 20 30 35
f 20 35 29
f 21 29 31
f 21 31 22
f 22 31 33
f 22 33 32
f 22 32 25
f 23 26 27
f 26 32 33
f 26 33 34
f 26 34 27
f 29 35 31

