# https://github.com/mikedh/trimesh
v 0.02231369 -0.01799906 -0.06076606
v 0.01349548 -0.01448974 -0.05955146
v 0.02231369 -0.01850213 -0.06076606
v 0.02231369 -0.01650007 -0.06177417
v -0.00398242 -0.01448974 -0.05955551
v 0.01200214 -0.01449092 -0.05955146
v 0.01349548 -0.01599975 -0.05955146
v 0.01599550 -0.01448974 -0.08499326
v 0.01762789 -0.01850213 -0.06076606
v 0.00927687 -0.01850764 -0.06239767
v 0.01762789 -0.01850725 -0.06239767
v 0.02231369 -0.01850213 -0.06216285
v 0.02231369 -0.01650007 -0.06216690
v -0.00398242 -0.01599975 -0.05955551
v 0.00880968 -0.01449368 -0.05955146
v -0.00398242 -0.01448974 -0.09048730
v -0.00609590 -0.01610123 -0.09400963
v 0.00880968 -0.01599975 -0.05955146
v 0.01599550 -0.01448974 -0.09399344
v 0.00000816 -0.01850764 -0.06239767
v 0.00927687 -0.01850764 -0.09326468
v 0.01762789 -0.01850725 -0.09193672
v 0.02231369 -0.01761753 -0.06216690
v 0.02231091 -0.01850174 -0.09190028
v 0.02231091 -0.01849859 -0.09299342
v 0.02231091 -0.01650007 -0.09299342
v -0.00372658 -0.01715969 -0.06140980
v -0.00609590 -0.01649967 -0.09400963
v -0.00275605 -0.01448974 -0.10049559
v -0.00599301 -0.01610123 -0.09449952
v 0.01591208 -0.01448974 -0.09454001
v 0.00000816 -0.01850764 -0.09328492
v 0.01399326 -0.01849859 -0.09599753
v 0.01421851 -0.01849859 -0.09597728
v 0.01512230 -0.01849859 -0.09564529
v 0.01323964 -0.01600014 -0.10049559
v 0.01323964 -0.01448974 -0.10049559
v 0.01576469 -0.01448974 -0.09492868
v -0.00599301 -0.01649967 -0.09449952
v -0.00199409 -0.01448974 -0.10091260
v -0.00275605 -0.01600014 -0.10049559
v -0.00579557 -0.01610123 -0.09524852
v -0.00583728 -0.01610123 -0.09509467
v -0.00579557 -0.01649967 -0.09524852
v -0.00199409 -0.01600014 -0.10091260
v 0.01199658 -0.01849859 -0.09599753
v 0.00879299 -0.01600014 -0.10091260
v 0.00999712 -0.01600014 -0.10083973
v 0.00999712 -0.01448974 -0.10083973
v 0.00879299 -0.01448974 -0.10091260
f 1 2 7
f 1 7 3
f 1 3 12
f 1 12 23
f 1 23 13
f 1 13 4
f 1 4 2
f 2 5 6
f 2 6 15
f 2 15 18
f 2 18 7
f 2 4 8
f 2 8 19
f 2 19 31
f 2 31 38
f 2 38 37
f 2 37 49
f 2 49 50
f 2 50 40
f 2 40 29
f 2 29 16
f 2 16 5
f 3 9 20
f 3 20 10
f 3 10 11
f 3 11 22
f 3 22 12
f 3 7 18
f 3 18 9
f 4 13 19
f 4 19 8
f 5 14 18
f 5 18 15
f 5 15 6
f 5 16 17
f 5 17 28
f 5 28 14
f 9 18 14
f 9 14 20
f 10 20 32
f 10 32 21
f 10 21 22
f 10 22 11
f 12 22 24
f 12 24 25
f 12 25 23
f 13 23 25
f 13 25 26
f 13 26 19
f 14 27 20
f 14 28 27
f 16 29 17
f 17 29 30
f 17 30 39
f 17 39 28
f 19 26 31
f 20 27 28
f 20 28 32
f 21 32 33
f 21 33 34
f 21 34 22
f 22 34 35
f 22 35 25
f 22 25 24
f 25 35 36
f 25 36 37
f 25 37 26
f 26 37 38
f 26 38 31
f 28 39 32
f 29 40 45
f 29 45 41
f 29 41 44
f 29 44 42
f 29 42 43
f 29 43 30
f 30 43 39
f 32 39 44
f 32 44 41
f 32 41 45
f 32 45 46
f 32 46 33
f 33 46 45
f 33 45 47
f 33 47 48
f 33 48 34
f 34 48 36
f 34 36 35
f 36 48 49
f 36 49 37
f 39 43 44
f 40 50 47
f 40 47 45
f 42 44 43
f 47 50 49
f 47 49 48

