# https://github.com/mikedh/trimesh
v -0.04167730 0.00439542 -0.03506644
v -0.04167730 0.00434671 -0.03506143
v -0.04167730 0.00450328 -0.03356376
v -0.04167438 0.00587528 -0.03356376
v -0.03481714 0.01285940 -0.03100754
v -0.03306052 0.01399481 -0.03100754
v -0.03027969 0.01399481 -0.03100754
v -0.04167730 0.00351052 -0.03486775
v -0.04167730 0.00450328 -0.03183234
v -0.04167438 0.00587528 -0.03246681
v -0.03925246 0.00885125 -0.03114445
v -0.03787226 0.01023949 -0.03114445
v -0.03730325 0.01078458 -0.03100754
v -0.03423646 0.01273415 -0.02969854
v -0.03246525 0.01399481 -0.02968852
v -0.03059191 0.01481941 -0.02857988
v -0.02964648 0.01535870 -0.02857988
v -0.02901620 0.01535870 -0.02857988
v -0.02675185 0.01535754 -0.02857988
v -0.02675185 0.01399945 -0.02857988
v -0.03724197 0.00351052 -0.02732765
v -0.04167730 0.00351052 -0.03356376
v -0.01186726 0.01535754 -0.01811289
v -0.02086338 0.00451024 -0.01800937
v -0.02896368 0.00351284 -0.02092957
v -0.04167730 0.00351168 -0.03149340
v -0.04167438 0.00525597 -0.03197426
v -0.04051011 0.00696315 -0.03101589
v -0.04056264 0.00698402 -0.03114612
v -0.04037005 0.00727396 -0.03114612
v -0.03803859 0.00855319 -0.02900397
v -0.03680136 0.01023949 -0.02941470
v -0.03653583 0.01059554 -0.02950319
v -0.03267826 0.01253815 -0.02730761
v -0.03083118 0.01399481 -0.02729926
v -0.02987992 0.01474055 -0.02729425
v -0.02887322 0.01535870 -0.02726086
v -0.02671684 0.01535870 -0.02852144
v -0.03903361 0.00351052 -0.02732765
v -0.02896368 0.00351284 -0.01948033
v -0.04082525 0.00351052 -0.03006085
v -0.01564312 0.01535754 -0.01811289
v -0.01767403 0.01023833 -0.01801271
v -0.02186133 0.01535870 -0.02364775
v -0.02028270 0.00587644 -0.01800937
v -0.02461006 0.00451024 -0.01800937
v -0.04018913 0.00351052 -0.02890546
v -0.04048093 0.00450328 -0.02958166
v -0.04061808 0.00498110 -0.02990724
v -0.04056847 0.00587760 -0.03040647
v -0.03876516 0.00659434 -0.02820254
v -0.03825160 0.00798142 -0.02877022
v -0.03610980 0.00831891 -0.02661972
v -0.03476753 0.01036590 -0.02711226
v -0.03068528 0.01239086 -0.02519885
v -0.02819041 0.01455962 -0.02518883
v -0.02898410 0.01464660 -0.02617726
v -0.02699113 0.01535870 -0.02514876
v -0.03106754 0.00351284 -0.02043703
v -0.03386588 0.00351284 -0.02212838
v -0.03624986 0.00351284 -0.02406349
v -0.03832163 0.00351284 -0.02630416
v -0.02339326 0.00633571 -0.01801271
v -0.02203349 0.00823657 -0.01801271
v -0.02053073 0.01023833 -0.01801271
v -0.01906299 0.01535754 -0.01995116
v -0.01692119 0.01444248 -0.01811289
v -0.02510028 0.01535870 -0.02364775
v -0.02369090 0.00587644 -0.01800937
v -0.03869221 0.00450328 -0.02699873
v -0.03875933 0.00468536 -0.02712562
v -0.03672841 0.00638558 -0.02583332
v -0.03650957 0.00708028 -0.02611716
v -0.03618275 0.00810900 -0.02653791
v -0.03553496 0.00829920 -0.02611716
v -0.03254695 0.01023949 -0.02500851
v -0.03377542 0.01031487 -0.02617559
v -0.02865437 0.01230271 -0.02364775
v -0.02597859 0.01432187 -0.02322366
v -0.02455170 0.01535754 -0.02317358
v -0.03132724 0.00450328 -0.02102641
v -0.01916803 0.01219601 -0.01811289
v -0.03135642 0.00461810 -0.02109487
v -0.03406138 0.00404401 -0.02248902
v -0.03524025 0.00450560 -0.02362104
v -0.03662920 0.00450328 -0.02474805
v -0.03666130 0.00452184 -0.02478144
v -0.03667005 0.00450328 -0.02478478
v -0.01765360 0.01381157 -0.01811289
v -0.02143530 0.01535754 -0.02123679
v -0.02315399 0.01402033 -0.02129523
v -0.03671674 0.00587528 -0.02554948
v -0.03428898 0.00633339 -0.02379969
v -0.03373457 0.00823773 -0.02454435
v -0.02810871 0.01227952 -0.02323368
v -0.02427741 0.01285824 -0.02129857
v -0.02489310 0.01220761 -0.02130191
v -0.03132140 0.00645401 -0.02198646
v -0.03133599 0.00587644 -0.02170763
v -0.03371998 0.00450328 -0.02248902
v -0.03422771 0.00449400 -0.02279623
v -0.03427439 0.00587644 -0.02355091
v -0.03422479 0.00450444 -0.02279957
v -0.03372873 0.00635659 -0.02345241
v -0.03076991 0.00831891 -0.02265098
v -0.02971360 0.01023949 -0.02306338
f 1 2 8
f 1 8 22
f 1 22 26
f 1 26 9
f 1 9 3
f 1 3 4
f 1 4 5
f 1 5 6
f 1 6 7
f 1 7 2
f 2 7 8
f 3 9 10
f 3 10 4
f 4 10 11
f 4 11 12
f 4 12 13
f 4 13 5
f 5 14 15
f 5 15 6
f 5 13 14
f 6 15 16
f 6 16 17
f 6 17 18
f 6 18 7
f 7 18 19
f 7 19 20
f 7 20 8
f 8 21 39
f 8 39 47
f 8 47 41
f 8 41 22
f 8 20 23
f 8 23 24
f 8 24 25
f 8 25 21
f 9 26 27
f 9 27 10
f 10 27 28
f 10 28 29
f 10 29 30
f 10 30 11
f 11 30 28
f 11 28 31
f 11 31 32
f 11 32 33
f 11 33 13
f 11 13 12
f 13 33 14
f 14 34 35
f 14 35 36
f 14 36 15
f 14 33 34
f 15 36 16
f 16 36 37
f 16 37 17
f 17 37 58
f 17 58 68
f 17 68 44
f 17 44 38
f 17 38 18
f 18 38 19
f 19 38 23
f 19 23 20
f 21 25 40
f 21 40 39
f 22 41 26
f 23 42 65
f 23 65 43
f 23 43 24
f 23 38 44
f 23 44 68
f 23 68 42
f 24 43 45
f 24 45 69
f 24 69 46
f 24 46 40
f 24 40 25
f 26 41 47
f 26 47 48
f 26 48 49
f 26 49 27
f 27 49 50
f 27 50 28
f 28 51 52
f 28 52 31
f 28 30 29
f 28 50 51
f 31 52 53
f 31 53 54
f 31 54 32
f 32 54 33
f 33 54 34
f 34 54 55
f 34 55 56
f 34 56 57
f 34 57 35
f 35 57 36
f 36 57 58
f 36 58 37
f 39 40 59
f 39 59 60
f 39 60 61
f 39 61 62
f 39 62 47
f 40 46 63
f 40 63 64
f 40 64 65
f 40 65 59
f 42 66 67
f 42 67 65
f 42 68 66
f 43 65 69
f 43 69 45
f 46 69 63
f 47 62 70
f 47 70 71
f 47 71 48
f 48 71 49
f 49 71 51
f 49 51 50
f 51 71 72
f 51 72 73
f 51 73 74
f 51 74 53
f 51 53 52
f 53 74 75
f 53 75 76
f 53 76 77
f 53 77 54
f 54 77 55
f 55 77 76
f 55 76 78
f 55 78 79
f 55 79 56
f 56 79 80
f 56 80 58
f 56 58 57
f 58 80 68
f 59 81 60
f 59 65 82
f 59 82 81
f 60 81 83
f 60 83 84
f 60 84 85
f 60 85 61
f 61 85 86
f 61 86 87
f 61 87 88
f 61 88 62
f 62 88 70
f 63 69 64
f 64 69 65
f 65 67 89
f 65 89 82
f 66 90 67
f 66 68 90
f 67 90 91
f 67 91 89
f 68 80 90
f 70 88 71
f 71 88 87
f 71 87 92
f 71 92 72
f 72 92 93
f 72 93 94
f 72 94 73
f 73 94 74
f 74 94 75
f 75 94 76
f 76 94 95
f 76 95 78
f 78 95 79
f 79 95 91
f 79 91 90
f 79 90 80
f 81 82 83
f 82 89 96
f 82 96 97
f 82 97 98
f 82 98 99
f 82 99 83
f 83 99 100
f 83 100 84
f 84 101 85
f 84 100 101
f 85 87 86
f 85 101 102
f 85 102 93
f 85 93 87
f 87 93 92
f 89 91 96
f 91 95 96
f 93 102 101
f 93 101 103
f 93 103 104
f 93 104 105
f 93 105 106
f 93 106 94
f 94 106 95
f 95 97 96
f 95 106 97
f 97 106 105
f 97 105 98
f 98 105 104
f 98 104 103
f 98 103 99
f 99 103 100
f 100 103 101

