# https://github.com/mikedh/trimesh
v 0.03613959 -0.00053089 -0.02379884
v 0.03857523 -0.00049926 -0.02812952
v 0.03770587 -0.00049926 -0.02630134
v 0.03667836 -0.00049926 -0.02455641
v 0.03629148 -0.00049926 -0.02399198
v 0.03565622 0.00104521 -0.02292637
v 0.03565085 0.00095033 -0.02293470
v 0.03564013 0.00095033 -0.02292138
v 0.03472074 0.00095033 -0.02197399
v 0.03452327 0.00095033 -0.02197399
v 0.03497538 -0.00051296 -0.02379884
v 0.03433386 -0.00050242 -0.02391872
v 0.03933916 -0.00049926 -0.03598335
v 0.04086970 -0.00049926 -0.03598335
v 0.04085004 -0.00049926 -0.03588511
v 0.03991367 -0.00049926 -0.03194737
v 0.03962954 -0.00049926 -0.03113652
v 0.03902108 0.00050755 -0.02907524
v 0.03876465 0.00104521 -0.02817114
v 0.03875214 0.00095033 -0.02816615
v 0.03794532 0.00095033 -0.02643121
v 0.03966528 -0.00018931 -0.03113652
v 0.03789171 0.00095033 -0.02631965
v 0.03749412 -0.00013449 -0.02586178
v 0.03686331 0.00095033 -0.02455975
v 0.03684187 0.00095033 -0.02452644
v 0.03520679 0.00135094 -0.02252844
v 0.03470108 0.00119175 -0.02197399
v 0.03472788 0.00104521 -0.02197399
v 0.03687493 0.00104521 -0.02456141
v 0.03698036 0.00140998 -0.02481116
v 0.03660152 0.00197400 -0.02454642
v 0.03590192 0.00300927 -0.02405525
v 0.03452327 0.00144583 -0.02197399
v 0.03228242 0.01023929 -0.02933665
v 0.03433386 -0.00050242 -0.02391372
v 0.03582151 0.01023929 -0.03898036
v 0.03991099 0.00095138 -0.03898369
v 0.04096084 0.00095138 -0.03604162
v 0.04093582 0.00067201 -0.03598335
v 0.04140579 0.00095138 -0.03898369
v 0.04095101 0.00095033 -0.03598335
v 0.04011917 0.00095033 -0.03226706
v 0.04006199 0.00095033 -0.03202896
v 0.03976088 0.00095033 -0.03113652
v 0.03966707 -0.00016928 -0.03113652
v 0.03903984 0.00067412 -0.02907524
v 0.03844568 0.00153122 -0.02753844
v 0.03790422 0.00104521 -0.02632299
v 0.03906307 0.00095033 -0.02907524
v 0.04007092 0.00104521 -0.03203396
v 0.03916404 0.00135094 -0.02933498
v 0.03762456 0.00095033 -0.02586178
v 0.03692586 0.00095033 -0.02466631
v 0.03452327 0.00220277 -0.02231698
v 0.03748429 0.00310942 -0.02635295
v 0.03749233 0.00314211 -0.02638292
v 0.03593677 0.00482995 -0.02530400
v 0.03452327 0.00431654 -0.02350580
v 0.03452327 0.00301033 -0.02273823
v 0.03447056 0.01023929 -0.02933665
v 0.03452327 0.00482257 -0.02384379
v 0.03452327 0.00594956 -0.02466963
v 0.03452327 0.00680983 -0.02537060
v 0.03452327 0.00738755 -0.02587177
v 0.03452327 0.00823306 -0.02667264
v 0.03452327 0.00867268 -0.02719378
v 0.03452327 0.00908383 -0.02772992
v 0.03782649 0.01023929 -0.03898036
v 0.03965367 0.00351531 -0.03898369
v 0.04096084 0.00104521 -0.03601332
v 0.04141026 0.00104521 -0.03898369
v 0.03852073 0.00197400 -0.02792472
v 0.03751466 0.00310942 -0.02640790
v 0.03911936 0.00163454 -0.02933498
v 0.04056324 0.00195186 -0.03429836
v 0.03963222 0.00171255 -0.03071028
v 0.03816870 0.00328232 -0.02786811
v 0.03738868 0.00501866 -0.02766165
v 0.03573574 0.00548359 -0.02561369
v 0.03452596 0.01023929 -0.02943488
v 0.03452327 0.00980178 -0.02874557
v 0.03534885 0.00923143 -0.02929169
v 0.03532384 0.00682248 -0.02625472
v 0.03667479 0.00704387 -0.02863401
v 0.03771659 0.01023929 -0.03855911
v 0.03843585 0.00804329 -0.03488278
v 0.03889063 0.00884347 -0.03898036
v 0.04115562 0.00351531 -0.03898369
v 0.04138971 0.00177475 -0.03898369
v 0.04127177 0.00224284 -0.03829604
v 0.03870925 0.00310942 -0.02890707
v 0.03887366 0.00310942 -0.02933498
v 0.03988508 0.00351531 -0.03271827
v 0.04055966 0.00351531 -0.03558708
v 0.03974570 0.00351531 -0.03220545
v 0.03875661 0.00340461 -0.02916348
v 0.03837867 0.00447046 -0.02933665
v 0.03747088 0.00504397 -0.02786811
v 0.03536583 0.00923775 -0.02933665
v 0.03538013 0.01023929 -0.03134298
v 0.03850196 0.00537500 -0.03047884
v 0.03767192 0.00744765 -0.03146619
v 0.03742085 0.01023929 -0.03742691
v 0.04004144 0.00661057 -0.03781485
v 0.03986453 0.00732008 -0.03898036
v 0.03742085 0.00953189 -0.03536397
v 0.03672303 0.00999365 -0.03435664
v 0.03627629 0.00962255 -0.03213219
v 0.03763618 0.00773967 -0.03197735
v 0.03775859 0.00751512 -0.03184747
v 0.03844568 0.00773967 -0.03435664
v 0.03889867 0.00698061 -0.03435664
v 0.04063114 0.00550151 -0.03898036
v 0.04093939 0.00470344 -0.03897869
v 0.04091884 0.00447046 -0.03859741
v 0.04124139 0.00303984 -0.03898369
v 0.03992618 0.00722204 -0.03898036
v 0.04013347 0.00688573 -0.03898036
v 0.04017010 0.00682459 -0.03898036
v 0.04135576 0.00229344 -0.03898369
v 0.04055609 0.00431126 -0.03624309
v 0.03976178 0.00379363 -0.03243855
v 0.03877716 0.00351531 -0.02933665
v 0.03574199 0.01023929 -0.03222044
v 0.03870568 0.00550151 -0.03126472
v 0.03794532 0.00719884 -0.03184747
v 0.03699287 0.01023929 -0.03580186
v 0.03945531 0.00599911 -0.03435664
v 0.04029072 0.00550151 -0.03705561
v 0.03696606 0.01019817 -0.03558208
v 0.03669176 0.01002844 -0.03435664
v 0.03690441 0.01023929 -0.03550882
v 0.03936507 0.00590634 -0.03383216
v 0.03944370 0.00550151 -0.03356410
v 0.03692943 0.01023929 -0.03558708
f 1 2 3
f 1 3 4
f 1 4 5
f 1 5 6
f 1 6 7
f 1 7 8
f 1 8 9
f 1 9 10
f 1 10 11
f 1 11 12
f 1 12 13
f 1 13 14
f 1 14 15
f 1 15 16
f 1 16 17
f 1 17 2
f 2 18 19
f 2 19 20
f 2 20 21
f 2 21 3
f 2 17 22
f 2 22 18
f 3 21 23
f 3 23 24
f 3 24 4
f 4 25 26
f 4 26 5
f 4 24 25
f 5 26 6
f 6 27 28
f 6 28 29
f 6 29 9
f 6 9 8
f 6 8 7
f 6 26 30
f 6 30 31
f 6 31 32
f 6 32 33
f 6 33 27
f 9 29 28
f 9 28 34
f 9 34 10
f 10 34 35
f 10 35 36
f 10 36 11
f 11 36 12
f 12 36 35
f 12 35 37
f 12 37 38
f 12 38 13
f 13 38 41
f 13 41 14
f 14 39 40
f 14 40 15
f 14 41 39
f 15 40 42
f 15 42 43
f 15 43 16
f 16 43 44
f 16 44 45
f 16 45 46
f 16 46 22
f 16 22 17
f 18 47 19
f 18 22 47
f 19 48 49
f 19 49 21
f 19 21 20
f 19 47 50
f 19 50 45
f 19 45 51
f 19 51 52
f 19 52 48
f 21 49 23
f 22 46 47
f 23 49 53
f 23 53 24
f 24 53 54
f 24 54 25
f 25 54 30
f 25 30 26
f 27 55 28
f 27 33 55
f 28 55 34
f 30 54 53
f 30 53 49
f 30 49 31
f 31 49 56
f 31 56 32
f 32 56 33
f 33 56 57
f 33 57 58
f 33 58 59
f 33 59 60
f 33 60 55
f 34 55 35
f 35 61 81
f 35 81 101
f 35 101 125
f 35 125 133
f 35 133 136
f 35 136 128
f 35 128 104
f 35 104 86
f 35 86 69
f 35 69 37
f 35 55 60
f 35 60 59
f 35 59 62
f 35 62 63
f 35 63 64
f 35 64 65
f 35 65 66
f 35 66 67
f 35 67 68
f 35 68 61
f 37 69 89
f 37 89 70
f 37 70 38
f 38 70 89
f 38 89 117
f 38 117 121
f 38 121 90
f 38 90 72
f 38 72 41
f 39 71 42
f 39 42 40
f 39 41 72
f 39 72 71
f 42 71 51
f 42 51 43
f 43 51 44
f 44 51 45
f 45 50 46
f 46 50 47
f 48 73 74
f 48 74 49
f 48 52 75
f 48 75 73
f 49 74 56
f 51 71 76
f 51 76 77
f 51 77 52
f 52 77 75
f 56 74 57
f 57 74 78
f 57 78 79
f 57 79 58
f 58 63 62
f 58 62 59
f 58 79 80
f 58 80 63
f 61 68 82
f 61 82 83
f 61 83 81
f 63 80 84
f 63 84 64
f 64 84 65
f 65 84 66
f 66 84 67
f 67 84 85
f 67 85 68
f 68 85 83
f 68 83 82
f 69 86 87
f 69 87 88
f 69 88 89
f 71 72 90
f 71 90 91
f 71 91 76
f 73 92 74
f 73 75 92
f 74 92 78
f 75 77 93
f 75 93 92
f 76 94 77
f 76 91 95
f 76 95 94
f 77 94 96
f 77 96 97
f 77 97 93
f 78 92 97
f 78 97 79
f 79 84 80
f 79 97 98
f 79 98 99
f 79 99 85
f 79 85 84
f 81 83 100
f 81 100 101
f 83 85 100
f 85 99 102
f 85 102 103
f 85 103 100
f 86 104 87
f 87 105 106
f 87 106 88
f 87 104 107
f 87 107 108
f 87 108 109
f 87 109 110
f 87 110 111
f 87 111 112
f 87 112 113
f 87 113 105
f 88 106 89
f 89 114 115
f 89 115 116
f 89 116 91
f 89 91 117
f 89 106 118
f 89 118 119
f 89 119 120
f 89 120 114
f 90 121 91
f 91 121 117
f 91 116 122
f 91 122 95
f 92 93 97
f 94 123 96
f 94 95 122
f 94 122 123
f 96 123 97
f 97 123 124
f 97 124 102
f 97 102 98
f 98 102 99
f 100 103 109
f 100 109 101
f 101 109 125
f 102 124 123
f 102 123 126
f 102 126 103
f 103 126 127
f 103 127 111
f 103 111 109
f 104 128 107
f 105 115 120
f 105 120 119
f 105 119 118
f 105 118 106
f 105 113 129
f 105 129 130
f 105 130 115
f 107 128 131
f 107 131 108
f 108 132 109
f 108 131 133
f 108 133 132
f 109 132 125
f 109 111 110
f 111 127 134
f 111 134 113
f 111 113 112
f 113 134 129
f 114 120 115
f 115 130 122
f 115 122 116
f 122 130 129
f 122 129 134
f 122 134 135
f 122 135 123
f 123 135 126
f 125 132 133
f 126 135 134
f 126 134 127
f 128 136 131
f 131 136 133

