# https://github.com/mikedh/trimesh
v -0.14877668 -0.08318659 0.00105312
v -0.14875220 -0.08320918 0.00105312
v -0.15084273 -0.08523097 0.01303461
v -0.15170766 -0.08433844 0.01306429
v -0.15268684 -0.08318659 0.01300025
v -0.14002452 -0.08318659 0.00105312
v -0.14866407 -0.08328781 0.00105312
v -0.15015894 -0.08578724 0.01295027
v -0.15019811 -0.08586922 0.01333919
v -0.15103203 -0.08519166 0.01358753
v -0.14828872 -0.08362157 0.00105312
v -0.14809126 -0.08379137 0.00105312
v -0.15181863 -0.08432255 0.01349226
v -0.15271784 -0.08318659 0.01313770
v -0.14009469 -0.08318659 0.00139050
v -0.13614047 -0.08712647 0.01492766
v -0.13614047 -0.08693239 0.00808957
v -0.13614047 -0.08690396 0.00705246
v -0.13614047 -0.08682031 0.00105312
v -0.14741236 -0.08433174 0.00105312
v -0.14665678 -0.08491394 0.00105312
v -0.14861512 -0.08693156 0.01298619
v -0.15010509 -0.08598215 0.01374685
v -0.15087374 -0.08535645 0.01395458
v -0.14762452 -0.08772706 0.01334856
v -0.14566781 -0.08918758 0.01373748
v -0.15190350 -0.08428156 0.01414826
v -0.15281250 -0.08318659 0.01394990
v -0.15278965 -0.08318659 0.01366094
v -0.14010285 -0.08318659 0.00141549
v -0.13614047 -0.08720342 0.01546496
v -0.13614047 -0.08892157 0.00105312
v -0.14636465 -0.08512139 0.00105312
v -0.14669921 -0.08830592 0.01305492
v -0.14671063 -0.08844477 0.01391710
v -0.14551767 -0.08931974 0.01419824
v -0.15016057 -0.08593865 0.01418106
v -0.15087374 -0.08529371 0.01455748
v -0.15159343 -0.08458102 0.01450594
v -0.14557805 -0.08565006 0.00105312
v -0.14485836 -0.08608922 0.00105312
v -0.14548666 -0.08921099 0.01346258
v -0.14501829 -0.08951882 0.01375466
v -0.14514068 -0.08952635 0.01414358
v -0.15277660 -0.08318659 0.01453093
v -0.15279291 -0.08318659 0.01441847
v -0.14025952 -0.08318659 0.00183877
v -0.13614047 -0.08721429 0.01552119
v -0.14678733 -0.08318659 0.01562428
v -0.13649135 -0.08888727 0.00105312
v -0.13614047 -0.09165941 0.01315957
v -0.14471802 -0.08970536 0.01450438
v -0.14519128 -0.08939670 0.01489642
v -0.14850415 -0.08699765 0.01519162
v -0.14892356 -0.08679270 0.01472461
v -0.15005776 -0.08596123 0.01463090
v -0.14993374 -0.08597211 0.01498545
v -0.15074318 -0.08517995 0.01521193
v -0.15150531 -0.08450323 0.01502138
v -0.15268847 -0.08318659 0.01491048
v -0.14405544 -0.08652418 0.00105312
v -0.14457766 -0.08974802 0.01405299
v -0.14332759 -0.08687802 0.00105312
v -0.14325089 -0.08691232 0.00105312
v -0.14178377 -0.08752798 0.00105312
v -0.14158793 -0.08760243 0.00105312
v -0.13614047 -0.08737156 0.01593197
v -0.14702722 -0.08318659 0.01606942
v -0.14726386 -0.08318659 0.01636150
v -0.13668718 -0.08886385 0.00105312
v -0.13616985 -0.09165605 0.01315801
v -0.13614047 -0.09166275 0.01319081
v -0.14407666 -0.08991197 0.01435444
v -0.14435898 -0.08980490 0.01490579
v -0.14458909 -0.08958240 0.01528690
v -0.14476534 -0.08932727 0.01566176
v -0.14835074 -0.08698091 0.01560085
v -0.14971995 -0.08596625 0.01543997
v -0.15120176 -0.08461364 0.01542123
v -0.14957470 -0.08587925 0.01581171
v -0.15252690 -0.08318659 0.01532126
v -0.15264441 -0.08318659 0.01505574
v -0.14029869 -0.08803656 0.00105312
v -0.14071647 -0.09080450 0.01338292
v -0.14042109 -0.09094002 0.01392022
v -0.13614047 -0.08737909 0.01594759
v -0.14729323 -0.08318659 0.01638806
v -0.13712944 -0.08879777 0.00105312
v -0.13668718 -0.09165439 0.01379683
v -0.13829138 -0.09140930 0.01389835
v -0.13826690 -0.09132313 0.01321267
v -0.13699235 -0.09147705 0.01294090
v -0.13614047 -0.09171712 0.01378121
v -0.14048310 -0.09092329 0.01459029
v -0.14361318 -0.08992201 0.01543841
v -0.14399506 -0.08972627 0.01560085
v -0.14025952 -0.09092078 0.01520724
v -0.14378617 -0.08960415 0.01595384
v -0.14460867 -0.08915830 0.01601319
v -0.14626020 -0.08815702 0.01596790
v -0.14824303 -0.08687468 0.01594916
v -0.14958123 -0.08562580 0.01613034
v -0.15063710 -0.08471318 0.01598977
v -0.15225764 -0.08318659 0.01581483
v -0.15242573 -0.08318659 0.01551650
v -0.14860858 -0.08641963 0.01619906
v -0.13991028 -0.08815451 0.00105312
v -0.13884135 -0.08844477 0.00105312
v -0.13970465 -0.09098603 0.01299557
v -0.13973077 -0.09106968 0.01341885
v -0.13935869 -0.09120770 0.01408891
v -0.13614047 -0.08753049 0.01623342
v -0.14759678 -0.08318659 0.01655518
v -0.13858351 -0.08851002 0.00105312
v -0.13614047 -0.09173134 0.01404205
v -0.13644565 -0.09170374 0.01420918
v -0.13890663 -0.09129302 0.01457935
v -0.13749989 -0.09155066 0.01469337
v -0.14308769 -0.08989859 0.01591792
v -0.14156345 -0.09040550 0.01585700
v -0.13807107 -0.09139842 0.01524942
v -0.13973240 -0.09097683 0.01556961
v -0.14323620 -0.08959160 0.01623811
v -0.14472127 -0.08882621 0.01628341
v -0.14572982 -0.08823983 0.01626466
v -0.14691462 -0.08748699 0.01629903
v -0.14426433 -0.08893913 0.01638962
v -0.14774692 -0.08696084 0.01629746
v -0.14935928 -0.08550200 0.01645522
v -0.15129478 -0.08374704 0.01622718
v -0.15189044 -0.08318659 0.01616470
v -0.14845682 -0.08624145 0.01648489
v -0.13614047 -0.08771368 0.01646615
v -0.14796396 -0.08318659 0.01669732
v -0.13614047 -0.09173218 0.01449501
v -0.13614047 -0.09172799 0.01459966
v -0.13652235 -0.09163264 0.01512915
v -0.14175602 -0.09012193 0.01622249
v -0.14005716 -0.09077690 0.01600226
v -0.13690422 -0.09150549 0.01562272
v -0.13779037 -0.09133987 0.01575235
v -0.14286248 -0.08935905 0.01652863
v -0.14616392 -0.08765345 0.01654737
v -0.14482082 -0.08833435 0.01657705
v -0.14752170 -0.08673164 0.01659423
v -0.14953554 -0.08503106 0.01664421
v -0.15145798 -0.08318659 0.01645678
v -0.14848293 -0.08586754 0.01668794
v -0.13614047 -0.08790356 0.01663484
v -0.14814348 -0.08318659 0.01675823
v -0.13614047 -0.09171795 0.01470743
v -0.13614047 -0.09167279 0.01505105
v -0.13614047 -0.09163766 0.01529940
v -0.13614047 -0.09160587 0.01547277
v -0.13997719 -0.09054938 0.01632558
v -0.13796499 -0.09115668 0.01611628
v -0.13902087 -0.09086808 0.01626466
v -0.13614047 -0.09152055 0.01582733
v -0.13614047 -0.09150799 0.01587106
v -0.13672145 -0.09141598 0.01599289
v -0.14257199 -0.08919594 0.01666764
v -0.13799274 -0.09077858 0.01653644
v -0.13908778 -0.09002490 0.01678947
v -0.14583264 -0.08738912 0.01673480
v -0.14792480 -0.08606496 0.01674574
v -0.14952248 -0.08469395 0.01677073
v -0.15032703 -0.08384073 0.01675355
v -0.15099776 -0.08318659 0.01668951
v -0.14942946 -0.08444467 0.01686600
v -0.13614047 -0.08792865 0.01665202
v -0.14862817 -0.08318659 0.01683320
v -0.13614047 -0.08826409 0.01682227
v -0.13653867 -0.09122945 0.01629746
v -0.13756190 -0.09101363 0.01639586
v -0.13614047 -0.09141180 0.01610379
v -0.13614047 -0.09133819 0.01621156
v -0.14095636 -0.08934149 0.01684257
v -0.14157814 -0.08886302 0.01692848
v -0.13614047 -0.09098268 0.01652550
v -0.13618780 -0.09097097 0.01653019
v -0.13726326 -0.09060710 0.01668794
v -0.13793725 -0.09012110 0.01687225
v -0.13898659 -0.08977395 0.01692067
v -0.14553399 -0.08655263 0.01695347
v -0.14884032 -0.08459023 0.01691598
v -0.14738463 -0.08572534 0.01688162
v -0.15065995 -0.08318659 0.01680977
v -0.15000227 -0.08318659 0.01690661
v -0.15022585 -0.08318659 0.01688318
v -0.15049839 -0.08318659 0.01685351
v -0.14930543 -0.08318659 0.01689568
v -0.13614047 -0.08849328 0.01689724
v -0.13614047 -0.08846150 0.01688943
v -0.13614047 -0.09124534 0.01632089
v -0.14118157 -0.08867983 0.01698315
v -0.13614047 -0.09072839 0.01664890
v -0.13614047 -0.09030094 0.01683945
v -0.13673776 -0.09024992 0.01685351
v -0.13659579 -0.08996216 0.01696284
v -0.13762555 -0.08979487 0.01699252
v -0.14474576 -0.08670905 0.01696753
v -0.14870324 -0.08423722 0.01692848
v -0.14130724 -0.08817710 0.01700658
v -0.14977870 -0.08318659 0.01691442
v -0.13614047 -0.08879944 0.01696440
v -0.13866347 -0.08944020 0.01699252
v -0.13614047 -0.08999144 0.01695347
v -0.13617148 -0.08969197 0.01700970
v -0.13614047 -0.08995212 0.01696284
v -0.13614047 -0.08915411 0.01699564
v -0.13614047 -0.08968529 0.01700814
f 1 2 3
f 1 3 4
f 1 4 5
f 1 5 14
f 1 14 29
f 1 29 28
f 1 28 46
f 1 46 45
f 1 45 60
f 1 60 82
f 1 82 81
f 1 81 105
f 1 105 104
f 1 104 131
f 1 131 147
f 1 147 168
f 1 168 187
f 1 187 190
f 1 190 189
f 1 189 188
f 1 188 204
f 1 204 191
f 1 191 171
f 1 171 150
f 1 150 134
f 1 134 113
f 1 113 87
f 1 87 69
f 1 69 68
f 1 68 49
f 1 49 47
f 1 47 30
f 1 30 15
f 1 15 6
f 1 6 19
f 1 19 32
f 1 32 50
f 1 50 70
f 1 70 88
f 1 88 114
f 1 114 108
f 1 108 107
f 1 107 83
f 1 83 66
f 1 66 65
f 1 65 64
f 1 64 63
f 1 63 61
f 1 61 41
f 1 41 40
f 1 40 33
f 1 33 21
f 1 21 20
f 1 20 12
f 1 12 11
f 1 11 7
f 1 7 2
f 2 7 3
f 3 8 9
f 3 9 10
f 3 10 4
f 3 7 11
f 3 11 12
f 3 12 8
f 4 10 13
f 4 13 5
f 5 13 14
f 6 15 16
f 6 16 17
f 6 17 18
f 6 18 19
f 8 12 20
f 8 20 21
f 8 21 22
f 8 22 9
f 9 23 24
f 9 24 10
f 9 22 25
f 9 25 26
f 9 26 23
f 10 24 27
f 10 27 13
f 13 27 28
f 13 28 29
f 13 29 14
f 15 30 31
f 15 31 16
f 16 31 48
f 16 48 67
f 16 67 86
f 16 86 112
f 16 112 133
f 16 133 149
f 16 149 170
f 16 170 172
f 16 172 193
f 16 193 192
f 16 192 205
f 16 205 210
f 16 210 211
f 16 211 209
f 16 209 207
f 16 207 197
f 16 197 196
f 16 196 179
f 16 179 194
f 16 194 176
f 16 176 175
f 16 175 159
f 16 159 158
f 16 158 154
f 16 154 153
f 16 153 152
f 16 152 151
f 16 151 136
f 16 136 135
f 16 135 115
f 16 115 93
f 16 93 72
f 16 72 51
f 16 51 32
f 16 32 19
f 16 19 18
f 16 18 17
f 21 33 22
f 22 33 34
f 22 34 25
f 23 35 36
f 23 36 37
f 23 37 24
f 23 26 35
f 24 38 39
f 24 39 27
f 24 37 38
f 25 34 26
f 26 40 41
f 26 41 42
f 26 42 43
f 26 43 44
f 26 44 36
f 26 36 35
f 26 34 40
f 27 45 46
f 27 46 28
f 27 39 45
f 30 47 31
f 31 47 49
f 31 49 48
f 32 51 50
f 33 40 34
f 36 44 52
f 36 52 53
f 36 53 54
f 36 54 55
f 36 55 37
f 37 55 56
f 37 56 38
f 38 56 57
f 38 57 58
f 38 58 59
f 38 59 39
f 39 59 60
f 39 60 45
f 41 61 42
f 42 61 43
f 43 62 44
f 43 61 63
f 43 63 64
f 43 64 65
f 43 65 66
f 43 66 62
f 44 62 52
f 48 49 68
f 48 68 69
f 48 69 67
f 50 51 71
f 50 71 70
f 51 72 71
f 52 62 73
f 52 73 74
f 52 74 53
f 53 74 75
f 53 75 76
f 53 76 77
f 53 77 54
f 54 77 57
f 54 57 55
f 55 57 56
f 57 78 58
f 57 77 78
f 58 79 59
f 58 78 80
f 58 80 79
f 59 79 81
f 59 81 82
f 59 82 60
f 62 66 83
f 62 83 84
f 62 84 85
f 62 85 73
f 67 69 87
f 67 87 86
f 70 71 88
f 71 89 90
f 71 90 91
f 71 91 92
f 71 92 88
f 71 72 89
f 72 93 89
f 73 85 94
f 73 94 74
f 74 95 96
f 74 96 75
f 74 94 97
f 74 97 95
f 75 96 76
f 76 96 98
f 76 98 99
f 76 99 100
f 76 100 101
f 76 101 77
f 77 101 80
f 77 80 78
f 79 80 102
f 79 102 103
f 79 103 104
f 79 104 105
f 79 105 81
f 80 101 106
f 80 106 102
f 83 107 84
f 84 107 108
f 84 108 109
f 84 109 110
f 84 110 85
f 85 110 111
f 85 111 94
f 86 87 112
f 87 113 112
f 88 92 91
f 88 91 114
f 89 93 115
f 89 115 116
f 89 116 90
f 90 117 111
f 90 111 110
f 90 110 91
f 90 116 118
f 90 118 117
f 91 110 109
f 91 109 114
f 94 111 117
f 94 117 97
f 95 119 96
f 95 97 120
f 95 120 119
f 96 119 98
f 97 117 121
f 97 121 122
f 97 122 120
f 98 119 123
f 98 123 99
f 99 124 125
f 99 125 126
f 99 126 100
f 99 123 127
f 99 127 124
f 100 126 128
f 100 128 101
f 101 128 106
f 102 106 129
f 102 129 103
f 103 130 131
f 103 131 104
f 103 129 130
f 106 128 132
f 106 132 129
f 108 114 109
f 112 113 133
f 113 134 133
f 115 135 116
f 116 135 118
f 117 118 121
f 118 135 136
f 118 136 137
f 118 137 121
f 119 120 138
f 119 138 123
f 120 122 139
f 120 139 138
f 121 137 140
f 121 140 141
f 121 141 122
f 122 141 139
f 123 138 142
f 123 142 127
f 124 143 126
f 124 126 125
f 124 127 143
f 126 143 128
f 127 142 144
f 127 144 143
f 128 143 145
f 128 145 132
f 129 146 130
f 129 132 146
f 130 146 131
f 131 146 147
f 132 148 146
f 132 145 148
f 133 134 149
f 134 150 149
f 136 151 137
f 137 151 152
f 137 152 153
f 137 153 154
f 137 154 140
f 138 139 155
f 138 155 142
f 139 141 156
f 139 156 157
f 139 157 155
f 140 154 158
f 140 158 159
f 140 159 160
f 140 160 141
f 141 160 156
f 142 161 144
f 142 155 162
f 142 162 163
f 142 163 161
f 143 144 164
f 143 164 145
f 144 161 164
f 145 165 148
f 145 164 165
f 146 166 167
f 146 167 147
f 146 148 166
f 147 167 168
f 148 165 169
f 148 169 166
f 149 150 170
f 150 171 172
f 150 172 170
f 155 157 162
f 156 160 173
f 156 173 174
f 156 174 157
f 157 174 162
f 159 175 160
f 160 175 176
f 160 176 173
f 161 163 177
f 161 177 178
f 161 178 164
f 162 174 179
f 162 179 180
f 162 180 181
f 162 181 182
f 162 182 163
f 163 182 183
f 163 183 177
f 164 184 165
f 164 178 184
f 165 185 169
f 165 184 186
f 165 186 185
f 166 169 167
f 167 187 168
f 167 169 187
f 169 188 189
f 169 189 190
f 169 190 187
f 169 185 188
f 171 191 192
f 171 192 193
f 171 193 172
f 173 176 194
f 173 194 174
f 174 194 179
f 177 183 178
f 178 183 195
f 178 195 184
f 179 196 181
f 179 181 180
f 181 196 197
f 181 197 198
f 181 198 182
f 182 198 199
f 182 199 200
f 182 200 183
f 183 200 195
f 184 201 202
f 184 202 185
f 184 185 186
f 184 195 203
f 184 203 201
f 185 202 204
f 185 204 188
f 191 204 205
f 191 205 192
f 195 200 206
f 195 206 203
f 197 207 199
f 197 199 198
f 199 208 200
f 199 207 209
f 199 209 208
f 200 208 203
f 200 203 206
f 201 203 202
f 202 203 204
f 203 208 210
f 203 210 204
f 204 210 205
f 208 209 211
f 208 211 210

