# https://github.com/mikedh/trimesh
v -0.12739644 -0.08890727 -0.01013238
v -0.12739644 -0.08681845 -0.01013238
v -0.12729665 -0.08890756 -0.01013238
v -0.12739644 -0.08891464 -0.00984661
v -0.12739644 -0.08681492 -0.00291698
v -0.12619906 -0.08678720 -0.01013238
v -0.12687258 -0.08890815 -0.01013238
v -0.12739644 -0.08891995 -0.00951923
v -0.01239730 -0.08860090 -0.01013238
v -0.12739644 -0.08681609 -0.00235421
v -0.12255700 -0.08673413 -0.00679840
v -0.12604938 -0.08678366 -0.01013238
v -0.12739644 -0.08892231 -0.00830170
v -0.00255627 -0.08857348 -0.01013238
v -0.12739644 -0.08893822 0.00105312
v -0.12739644 -0.08681728 -0.00209800
v -0.11941385 -0.08671584 0.00105312
v -0.11613351 -0.08670110 -0.01013238
v -0.09671337 -0.08647347 0.00105312
v -0.07070760 -0.08625763 0.00105312
v -0.00140877 -0.08856818 -0.01013238
v -0.12739644 -0.08683880 0.00105312
v 0.00002560 -0.08850655 -0.00840462
v 0.00002560 -0.08842045 -0.00566737
v 0.00002560 -0.08841809 -0.00560606
v 0.00002560 -0.08825326 -0.00183303
v 0.00002560 -0.08807958 0.00105312
v -0.12739644 -0.08682287 -0.00097135
v -0.12336773 -0.08677540 0.00105312
v -0.07050803 -0.08625615 0.00105312
v -0.04547514 -0.08608690 0.00105312
v -0.08914239 -0.08652064 -0.01013238
v 0.00002560 -0.08855903 -0.01013238
v -0.12652334 -0.08682318 0.00105312
v 0.00002560 -0.08624524 0.00105312
v -0.04522569 -0.08608543 0.00105312
v -0.08901766 -0.08652064 -0.01013238
v -0.01025198 -0.08592620 0.00105312
v -0.00781978 -0.08635906 -0.00740388
v 0.00002560 -0.08659230 -0.01013238
v 0.00002560 -0.08636466 -0.00509912
v -0.00140877 -0.08616710 0.00105312
v -0.00715873 -0.08643041 -0.00839696
v -0.02196393 -0.08657313 -0.01013238
v -0.00954103 -0.08593445 0.00105312
v -0.00493857 -0.08616916 -0.00360130
v -0.00263110 -0.08634136 -0.00631555
v -0.00226939 -0.08627944 -0.00499839
v 0.00002560 -0.08641420 -0.00671191
v 0.00002560 -0.08640329 -0.00640205
v -0.00276830 -0.08619983 -0.00306589
v -0.00221950 -0.08612405 0.00105312
v -0.00922921 -0.08594006 0.00105312
v -0.00410289 -0.08614292 -0.00257975
f 1 2 6
f 1 6 12
f 1 12 18
f 1 18 32
f 1 32 37
f 1 37 44
f 1 44 40
f 1 40 33
f 1 33 21
f 1 21 14
f 1 14 9
f 1 9 7
f 1 7 3
f 1 3 4
f 1 4 8
f 1 8 13
f 1 13 15
f 1 15 22
f 1 22 28
f 1 28 16
f 1 16 10
f 1 10 5
f 1 5 2
f 2 5 6
f 3 7 4
f 4 7 9
f 4 9 8
f 5 10 11
f 5 11 12
f 5 12 6
f 8 9 13
f 9 14 15
f 9 15 13
f 10 16 17
f 10 17 11
f 11 18 12
f 11 17 19
f 11 19 20
f 11 20 18
f 14 21 15
f 15 21 23
f 15 23 24
f 15 24 25
f 15 25 26
f 15 26 27
f 15 27 35
f 15 35 42
f 15 42 52
f 15 52 53
f 15 53 45
f 15 45 38
f 15 38 36
f 15 36 31
f 15 31 30
f 15 30 20
f 15 20 19
f 15 19 17
f 15 17 29
f 15 29 34
f 15 34 22
f 16 28 17
f 17 28 29
f 18 20 30
f 18 30 31
f 18 31 32
f 21 33 23
f 22 34 28
f 23 33 40
f 23 40 49
f 23 49 50
f 23 50 41
f 23 41 35
f 23 35 27
f 23 27 26
f 23 26 25
f 23 25 24
f 28 34 29
f 31 36 32
f 32 36 38
f 32 38 39
f 32 39 37
f 35 41 42
f 37 39 43
f 37 43 44
f 38 45 46
f 38 46 39
f 39 46 47
f 39 47 40
f 39 40 43
f 40 47 48
f 40 48 49
f 40 44 43
f 41 50 51
f 41 51 52
f 41 52 42
f 45 53 54
f 45 54 46
f 46 54 48
f 46 48 47
f 48 54 51
f 48 51 50
f 48 50 49
f 51 54 52
f 52 54 53

