# https://github.com/mikedh/trimesh
v -0.06681609 -0.08738919 -0.01828623
v -0.06596794 -0.08726530 -0.01826947
v -0.00586155 -0.08747816 -0.01826149
v -0.00544996 -0.08758798 -0.01825430
v -0.00599875 -0.08767413 -0.01824553
v -0.06634213 -0.08755194 -0.01826787
v -0.12107274 -0.08809986 -0.01813139
v -0.11408797 -0.08744494 -0.01816332
v -0.11471161 -0.08712396 -0.01807552
v -0.06657911 -0.08708679 -0.01821919
v -0.00573683 -0.08723546 -0.01819205
v -0.00530028 -0.08739426 -0.01822158
v 0.00002560 -0.08768821 -0.01781054
v -0.00512566 -0.08770848 -0.01821919
v -0.00561210 -0.08778337 -0.01822876
v -0.12049899 -0.08824627 -0.01806035
v -0.12522617 -0.08843153 -0.01767086
v -0.12739644 -0.08795851 -0.01779617
v -0.12739644 -0.08787460 -0.01784326
v -0.12659819 -0.08782111 -0.01789514
v -0.12567520 -0.08761838 -0.01795899
v -0.12184605 -0.08785264 -0.01810425
v -0.12046157 -0.08785096 -0.01812740
v -0.00518803 -0.08787404 -0.01819285
v -0.11995018 -0.08761275 -0.01811623
v -0.12495177 -0.08727037 -0.01794782
v -0.11572190 -0.08700908 -0.01802603
v -0.06576837 -0.08700064 -0.01816890
v -0.04019915 -0.08657435 -0.01793904
v -0.03973766 -0.08686380 -0.01808829
v -0.00643530 -0.08705413 -0.01805956
v -0.00372871 -0.08318715 -0.01504257
v 0.00002560 -0.08318715 -0.01500106
v -0.00530028 -0.08710425 -0.01807233
v -0.00059804 -0.08726643 -0.01775147
v 0.00002560 -0.08741397 -0.01777781
v 0.00002560 -0.08747986 -0.01778739
v 0.00002560 -0.08753617 -0.01779377
v 0.00002560 -0.08790783 -0.01777143
v -0.12445285 -0.08862807 -0.01756710
v -0.02598017 -0.08851657 -0.01775307
v -0.02565588 -0.08860497 -0.01768682
v -0.02667864 -0.08870915 -0.01760461
v -0.12591218 -0.08854416 -0.01746813
v -0.12622400 -0.08828906 -0.01768443
v -0.12739644 -0.08806437 -0.01771157
v -0.12739644 -0.08779802 -0.01784885
v -0.12739644 -0.08766512 -0.01785842
v -0.12689753 -0.08763077 -0.01789035
v -0.12603691 -0.08740890 -0.01793824
v -0.12116004 -0.08762289 -0.01809068
v 0.00002560 -0.08806043 -0.01774110
v 0.00002560 -0.08822431 -0.01766767
v -0.00002429 -0.08823725 -0.01766208
v 0.00002560 -0.08824740 -0.01765250
v -0.00518803 -0.08802384 -0.01806993
v -0.12454017 -0.08704851 -0.01787918
v -0.12410362 -0.08717070 -0.01793265
v -0.12471479 -0.08692067 -0.01779617
v -0.12661065 -0.08318715 -0.01502341
v -0.06644191 -0.08683846 -0.01806355
v -0.03931358 -0.08318715 -0.01511440
v -0.03599582 -0.08318715 -0.01511280
v -0.01963152 -0.08318715 -0.01509365
v -0.01028940 -0.08318715 -0.01507130
v -0.10253816 -0.08318715 -0.01507609
v -0.07882739 -0.08318715 -0.01511839
v -0.06687845 -0.08318715 -0.01512637
v 0.00002560 -0.08318715 -0.01171031
v -0.12375439 -0.08871985 -0.01742344
v -0.12507650 -0.08869057 -0.01741625
v 0.00002560 -0.08850306 -0.01734362
v 0.00002560 -0.08853346 -0.01729334
v -0.02691563 -0.08882797 -0.01740189
v -0.12739644 -0.08851263 -0.01723827
v -0.12739644 -0.08836903 -0.01740348
v -0.12739644 -0.08745339 -0.01780415
v -0.12739644 -0.08318715 -0.01500825
v 0.00002560 -0.08659180 -0.01013238
v -0.00008665 -0.08318715 -0.01171031
v -0.08901766 -0.08652029 -0.01013238
v -0.02196393 -0.08657266 -0.01013238
v -0.12535090 -0.08878687 -0.01718160
v -0.02736465 -0.08891639 -0.01712333
v 0.00002560 -0.08858808 -0.01716324
v 0.00002560 -0.08866073 -0.01697089
v -0.12739644 -0.08864158 -0.01700281
v -0.12739644 -0.08318715 -0.01186754
v 0.00002560 -0.08855880 -0.01013238
v -0.08914239 -0.08652029 -0.01013238
v -0.12473973 -0.08883304 -0.01695013
v -0.12562530 -0.08885669 -0.01672186
v -0.12608679 -0.08883191 -0.01675858
v -0.02822527 -0.08893891 -0.01701798
v 0.00002560 -0.08867818 -0.01690704
v 0.00002560 -0.08871985 -0.01670351
v -0.12739644 -0.08873506 -0.01661491
v -0.12739644 -0.08681819 -0.01013238
v -0.12619906 -0.08678665 -0.01013238
v -0.12604938 -0.08678327 -0.01013238
v -0.11613351 -0.08670049 -0.01013238
v 0.00002560 -0.08863369 -0.01259226
v -0.00140877 -0.08856782 -0.01013238
v -0.00507577 -0.08871253 -0.01244780
v -0.00568694 -0.08876209 -0.01346783
v -0.12687258 -0.08890794 -0.01013238
v -0.12739644 -0.08890737 -0.01013238
v -0.12739644 -0.08883248 -0.01563639
v -0.12739644 -0.08880263 -0.01617673
v 0.00002560 -0.08872155 -0.01668595
v 0.00002560 -0.08873055 -0.01640500
v -0.00639789 -0.08877448 -0.01413268
v -0.02785109 -0.08893159 -0.01666919
v -0.00255627 -0.08857344 -0.01013238
v -0.01239730 -0.08860047 -0.01013238
v -0.02972201 -0.08881727 -0.01313500
v -0.02949750 -0.08886345 -0.01400099
v -0.00699658 -0.08875139 -0.01313021
f 1 2 3
f 1 3 4
f 1 4 5
f 1 5 6
f 1 6 7
f 1 7 8
f 1 8 2
f 2 8 9
f 2 9 10
f 2 10 11
f 2 11 3
f 3 11 12
f 3 12 4
f 4 12 13
f 4 13 14
f 4 14 15
f 4 15 5
f 5 15 6
f 6 15 7
f 7 16 17
f 7 17 18
f 7 18 19
f 7 19 20
f 7 20 21
f 7 21 22
f 7 22 23
f 7 23 8
f 7 15 24
f 7 24 16
f 8 23 25
f 8 25 9
f 9 25 26
f 9 26 27
f 9 27 10
f 10 28 29
f 10 29 30
f 10 30 11
f 10 27 28
f 11 30 29
f 11 29 31
f 11 31 32
f 11 32 33
f 11 33 34
f 11 34 35
f 11 35 36
f 11 36 12
f 12 36 37
f 12 37 38
f 12 38 13
f 13 38 37
f 13 37 36
f 13 36 33
f 13 33 69
f 13 69 79
f 13 79 89
f 13 89 102
f 13 102 111
f 13 111 110
f 13 110 96
f 13 96 95
f 13 95 86
f 13 86 85
f 13 85 73
f 13 73 72
f 13 72 55
f 13 55 53
f 13 53 52
f 13 52 39
f 13 39 14
f 14 39 24
f 14 24 15
f 16 40 17
f 16 24 41
f 16 41 42
f 16 42 43
f 16 43 40
f 17 40 44
f 17 44 45
f 17 45 18
f 18 45 46
f 18 46 76
f 18 76 75
f 18 75 87
f 18 87 97
f 18 97 109
f 18 109 108
f 18 108 107
f 18 107 98
f 18 98 88
f 18 88 78
f 18 78 77
f 18 77 48
f 18 48 47
f 18 47 19
f 19 47 20
f 20 47 48
f 20 48 49
f 20 49 21
f 21 49 50
f 21 50 22
f 22 50 26
f 22 26 51
f 22 51 25
f 22 25 23
f 24 39 52
f 24 52 53
f 24 53 54
f 24 54 55
f 24 55 56
f 24 56 42
f 24 42 41
f 25 51 26
f 26 57 58
f 26 58 27
f 26 50 57
f 27 58 57
f 27 57 59
f 27 59 60
f 27 60 61
f 27 61 28
f 28 61 29
f 29 62 63
f 29 63 64
f 29 64 65
f 29 65 32
f 29 32 31
f 29 61 60
f 29 60 66
f 29 66 67
f 29 67 68
f 29 68 62
f 32 65 64
f 32 64 63
f 32 63 62
f 32 62 68
f 32 68 67
f 32 67 66
f 32 66 60
f 32 60 78
f 32 78 88
f 32 88 80
f 32 80 69
f 32 69 33
f 33 36 35
f 33 35 34
f 40 70 71
f 40 71 44
f 40 43 70
f 42 56 43
f 43 56 72
f 43 72 73
f 43 73 74
f 43 74 70
f 44 71 75
f 44 75 76
f 44 76 45
f 45 76 46
f 48 77 50
f 48 50 49
f 50 77 59
f 50 59 57
f 53 55 54
f 55 72 56
f 59 77 78
f 59 78 60
f 69 80 90
f 69 90 81
f 69 81 82
f 69 82 79
f 70 83 71
f 70 74 84
f 70 84 83
f 71 83 75
f 73 85 74
f 74 85 86
f 74 86 84
f 75 83 87
f 79 82 81
f 79 81 90
f 79 90 101
f 79 101 100
f 79 100 99
f 79 99 98
f 79 98 107
f 79 107 106
f 79 106 115
f 79 115 114
f 79 114 103
f 79 103 89
f 80 88 90
f 83 91 92
f 83 92 93
f 83 93 87
f 83 84 94
f 83 94 91
f 84 86 95
f 84 95 96
f 84 96 94
f 87 93 97
f 88 98 99
f 88 99 100
f 88 100 101
f 88 101 90
f 89 103 104
f 89 104 105
f 89 105 102
f 91 94 92
f 92 106 107
f 92 107 108
f 92 108 109
f 92 109 93
f 92 94 106
f 93 109 97
f 94 96 110
f 94 110 111
f 94 111 112
f 94 112 105
f 94 105 113
f 94 113 106
f 102 105 111
f 103 114 104
f 104 114 115
f 104 115 106
f 104 106 116
f 104 116 117
f 104 117 118
f 104 118 105
f 105 118 117
f 105 117 113
f 105 112 111
f 106 113 117
f 106 117 116

