# https://github.com/mikedh/trimesh
v -0.11711681 0.09157896 0.01463851
v -0.11587316 0.09155234 0.01509526
v -0.11572826 0.09151799 0.01433649
v -0.11739855 0.09152314 0.01388643
v -0.13386798 0.09151885 0.01504021
v -0.13326828 0.09151628 0.01577593
v -0.11636015 0.09150255 0.01553788
v -0.11376819 0.09139352 0.01575733
v -0.11431557 0.09147764 0.01513915
v -0.11414652 0.09142614 0.01463925
v -0.11381649 0.09130509 0.01417804
v -0.11553105 0.09137463 0.01373170
v -0.11772858 0.09144159 0.01351448
v -0.13457231 0.09144846 0.01442427
v -0.13480173 0.09147164 0.01533703
v -0.13396860 0.09144588 0.01604596
v -0.13279335 0.09140554 0.01628921
v -0.11648492 0.09134286 0.01616350
v -0.11482672 0.09134201 0.01609506
v -0.11208986 0.09119863 0.01601620
v -0.11208986 0.09123125 0.01592024
v -0.11208986 0.09126216 0.01571344
v -0.11208986 0.09127160 0.01556392
v -0.11208986 0.09125873 0.01524478
v -0.11208986 0.09124928 0.01511163
v -0.11208986 0.09117116 0.01459834
v -0.11427934 0.09120894 0.01362458
v -0.11208986 0.09116086 0.01454180
v -0.11599793 0.09125959 0.01326676
v -0.11639637 0.09116945 0.01301012
v -0.11822363 0.09132140 0.01319089
v -0.13067229 0.09127590 0.01341406
v -0.13550606 0.09123641 0.01355614
v -0.13716428 0.09120808 0.01397198
v -0.13728904 0.09125444 0.01496433
v -0.13635529 0.09128706 0.01577965
v -0.13747419 0.09103294 0.01622598
v -0.13418594 0.09128448 0.01646626
v -0.13291411 0.09121237 0.01667381
v -0.11577254 0.09124843 0.01637104
v -0.11208986 0.09111794 0.01623119
v -0.11208986 0.09114713 0.01449568
v -0.11208986 0.09097371 0.01396454
v -0.11347036 0.09098916 0.01339174
v -0.11425519 0.09097113 0.01307335
v -0.11506015 0.09087756 0.01275050
v -0.11208986 0.08856047 0.00988650
v -0.11823571 0.09104067 0.01279141
v -0.13204475 0.09099259 0.01279365
v -0.13363454 0.09111880 0.01310980
v -0.13708780 0.09104324 0.01325486
v -0.13842806 0.09094023 0.01355540
v -0.13832744 0.09108875 0.01437219
v -0.13810205 0.09112309 0.01557061
v -0.13895128 0.09077368 0.01630930
v -0.13710793 0.09076080 0.01680622
v -0.13418996 0.09102951 0.01685606
v -0.11744282 0.09084064 0.01688656
v -0.11639637 0.09108789 0.01663513
v -0.11208986 0.09091276 0.01655107
v -0.11208986 0.09094967 0.01649751
v -0.11208986 0.09094280 0.01388122
v -0.11208986 0.09077540 0.01349737
v -0.11208986 0.09074706 0.01344381
v -0.11208986 0.09054961 0.01310087
v -0.11208986 0.08670353 0.00988650
v -0.11788958 0.08865919 0.00988650
v -0.13476148 0.08862915 0.00988650
v -0.13583609 0.08859995 0.00988650
v -0.13678192 0.09090932 0.01292457
v -0.13885066 0.09065693 0.01298780
v -0.14005407 0.09049552 0.01335082
v -0.13951877 0.09081317 0.01451725
v -0.13903580 0.09090331 0.01570749
v -0.14049680 0.09039937 0.01623045
v -0.14106027 0.09004396 0.01667753
v -0.13932156 0.09035130 0.01688210
v -0.13656056 0.09048265 0.01709560
v -0.13346148 0.09061914 0.01714544
v -0.13297045 0.09087927 0.01698476
v -0.11781713 0.09065949 0.01701079
v -0.11208986 0.09031953 0.01705543
v -0.11208986 0.09054617 0.01690590
v -0.11525737 0.09075908 0.01686648
v -0.11208986 0.09083377 0.01664033
v -0.11208986 0.08676792 0.01281596
v -0.14621602 0.08280938 0.01571121
v -0.14615162 0.08280938 0.01494946
v -0.14612345 0.08280938 0.01431715
v -0.14605100 0.08280938 0.00988650
v -0.13592464 0.08859309 0.00988650
v -0.13699121 0.08847891 0.00988650
v -0.13839184 0.08825141 0.00988650
v -0.14064974 0.08987311 0.01256750
v -0.14095965 0.09006026 0.01293350
v -0.14424790 0.08918717 0.01406050
v -0.14238845 0.08989715 0.01543150
v -0.14315718 0.08953143 0.01630484
v -0.14240857 0.08933054 0.01698773
v -0.14344295 0.08920091 0.01673481
v -0.14048070 0.08974691 0.01711494
v -0.13700328 0.09009374 0.01726669
v -0.13271689 0.09002593 0.01733662
v -0.11885552 0.09032812 0.01717594
v -0.11208986 0.09022853 0.01709709
v -0.11208986 0.08683059 0.01533777
v -0.14638909 0.08280938 0.01632046
v -0.14889652 0.08280938 0.00988650
v -0.13998163 0.08784963 0.00988650
v -0.14063767 0.08763672 0.00988650
v -0.14343086 0.08895022 0.01260618
v -0.14466245 0.08876478 0.01306517
v -0.14612747 0.08833811 0.01365136
v -0.14545534 0.08876478 0.01470769
v -0.14488784 0.08890472 0.01582800
v -0.14474295 0.08870813 0.01655627
v -0.14153922 0.08909188 0.01727562
v -0.14519775 0.08813122 0.01694979
v -0.14479930 0.08777236 0.01725256
v -0.13860918 0.08908329 0.01741994
v -0.13315559 0.08938635 0.01744077
v -0.12104099 0.08982933 0.01732992
v -0.11208986 0.08982504 0.01721165
v -0.11208986 0.08997527 0.01717371
v -0.11208986 0.08683403 0.01538315
v -0.14651386 0.08280938 0.01652131
v -0.15239809 0.08280938 0.01265751
v -0.15222502 0.08297936 0.01263668
v -0.15094112 0.08464142 0.01291118
v -0.14966526 0.08545613 0.01265528
v -0.14724637 0.08423020 0.00988650
v -0.14154727 0.08729418 0.00988650
v -0.14638104 0.08794492 0.01293722
v -0.14243272 0.08694048 0.00988650
v -0.14780581 0.08739034 0.01359259
v -0.14697268 0.08794234 0.01401289
v -0.14605503 0.08846774 0.01444138
v -0.14657020 0.08816298 0.01491896
v -0.14629652 0.08815440 0.01583023
v -0.14724234 0.08735084 0.01633682
v -0.14304851 0.08790801 0.01740803
v -0.14835318 0.08628887 0.01681887
v -0.14666679 0.08699027 0.01713949
v -0.14803522 0.08533851 0.01740878
v -0.14250517 0.08723752 0.01747350
v -0.14787826 0.08459592 0.01748540
v -0.11341804 0.08904552 0.01733290
v -0.11352670 0.08953486 0.01729273
v -0.11208986 0.08965419 0.01725107
v -0.11208986 0.08690442 0.01579824
v -0.14692036 0.08280938 0.01690442
v -0.14661850 0.08280938 0.01665000
v -0.15257519 0.08280938 0.01281968
v -0.15212038 0.08373227 0.01317973
v -0.15100552 0.08483973 0.01321916
v -0.14949219 0.08599613 0.01305475
v -0.14780581 0.08703062 0.01285837
v -0.14549961 0.08539346 0.00988650
v -0.14417546 0.08613521 0.00988650
v -0.14481942 0.08577893 0.00988650
v -0.14839343 0.08686665 0.01317973
v -0.15033338 0.08566131 0.01383882
v -0.15070366 0.08546042 0.01457528
v -0.15029716 0.08562440 0.01537422
v -0.14990675 0.08552653 0.01634054
v -0.15055474 0.08480110 0.01665893
v -0.14855442 0.08591886 0.01702493
v -0.14985443 0.08438301 0.01725628
v -0.14956867 0.08366101 0.01745787
v -0.15016434 0.08280938 0.01746308
v -0.14892068 0.08280938 0.01745862
v -0.11208986 0.08888927 0.01729868
v -0.11208986 0.08915712 0.01730389
v -0.11208986 0.08697911 0.01610027
v -0.14714575 0.08280938 0.01702121
v -0.15285692 0.08280938 0.01308600
v -0.15299377 0.08280938 0.01335752
v -0.15312256 0.08280938 0.01369227
v -0.15247859 0.08364727 0.01391990
v -0.15142812 0.08470666 0.01384998
v -0.15178230 0.08449804 0.01468835
v -0.15126310 0.08486034 0.01541439
v -0.15108198 0.08475388 0.01604373
v -0.15174206 0.08386275 0.01634352
v -0.15154082 0.08368162 0.01675192
v -0.15011604 0.08473499 0.01699294
v -0.15123091 0.08361809 0.01699815
v -0.15106186 0.08280938 0.01729422
v -0.15044607 0.08280938 0.01742886
v -0.15029716 0.08280938 0.01745564
v -0.14871944 0.08280938 0.01744672
v -0.11208986 0.08790543 0.01711271
v -0.11208986 0.08794149 0.01712387
v -0.11208986 0.08836644 0.01722057
v -0.11208986 0.08712677 0.01640601
v -0.14785411 0.08280938 0.01725851
v -0.15319501 0.08280938 0.01393627
v -0.15320305 0.08280938 0.01409323
v -0.15195939 0.08410743 0.01549399
v -0.15308633 0.08280938 0.01498591
v -0.15283277 0.08280938 0.01582725
v -0.15270398 0.08280938 0.01608836
v -0.15255103 0.08280938 0.01636584
v -0.15231357 0.08280938 0.01665298
v -0.15221698 0.08280938 0.01672514
v -0.15199964 0.08280938 0.01687466
v -0.15166558 0.08280938 0.01707849
v -0.11208986 0.08715510 0.01644841
v -0.11208986 0.08730534 0.01662099
v -0.11208986 0.08769595 0.01700038
v -0.15306218 0.08280938 0.01512874
f 1 2 3
f 1 3 4
f 1 4 5
f 1 5 6
f 1 6 2
f 2 7 8
f 2 8 9
f 2 9 3
f 2 6 7
f 3 9 10
f 3 10 11
f 3 11 12
f 3 12 4
f 4 12 13
f 4 13 14
f 4 14 5
f 5 14 15
f 5 15 6
f 6 15 16
f 6 16 17
f 6 17 7
f 7 18 19
f 7 19 8
f 7 17 18
f 8 19 20
f 8 20 21
f 8 21 22
f 8 22 9
f 9 22 23
f 9 23 24
f 9 24 10
f 10 24 25
f 10 25 26
f 10 26 11
f 11 27 12
f 11 26 28
f 11 28 27
f 12 29 13
f 12 27 29
f 13 29 30
f 13 30 31
f 13 31 32
f 13 32 14
f 14 32 33
f 14 33 34
f 14 34 35
f 14 35 15
f 15 35 36
f 15 36 16
f 16 36 37
f 16 37 38
f 16 38 17
f 17 38 39
f 17 39 40
f 17 40 18
f 18 40 19
f 19 40 41
f 19 41 20
f 20 41 61
f 20 61 60
f 20 60 85
f 20 85 83
f 20 83 82
f 20 82 105
f 20 105 124
f 20 124 123
f 20 123 149
f 20 149 173
f 20 173 172
f 20 172 194
f 20 194 193
f 20 193 192
f 20 192 210
f 20 210 209
f 20 209 208
f 20 208 195
f 20 195 174
f 20 174 150
f 20 150 125
f 20 125 106
f 20 106 86
f 20 86 66
f 20 66 47
f 20 47 65
f 20 65 64
f 20 64 63
f 20 63 62
f 20 62 43
f 20 43 42
f 20 42 28
f 20 28 26
f 20 26 25
f 20 25 24
f 20 24 23
f 20 23 22
f 20 22 21
f 27 28 42
f 27 42 43
f 27 43 44
f 27 44 45
f 27 45 29
f 29 45 30
f 30 45 46
f 30 46 47
f 30 47 48
f 30 48 31
f 31 48 49
f 31 49 50
f 31 50 32
f 32 50 33
f 33 50 51
f 33 51 34
f 34 51 52
f 34 52 53
f 34 53 35
f 35 53 54
f 35 54 36
f 36 54 37
f 37 54 55
f 37 55 56
f 37 56 38
f 38 57 39
f 38 56 57
f 39 57 58
f 39 58 59
f 39 59 40
f 40 59 60
f 40 60 61
f 40 61 41
f 43 62 44
f 44 62 63
f 44 63 64
f 44 64 45
f 45 64 65
f 45 65 47
f 45 47 46
f 47 66 90
f 47 90 108
f 47 108 131
f 47 131 158
f 47 158 160
f 47 160 159
f 47 159 134
f 47 134 132
f 47 132 110
f 47 110 109
f 47 109 93
f 47 93 92
f 47 92 91
f 47 91 69
f 47 69 68
f 47 68 67
f 47 67 48
f 48 67 68
f 48 68 49
f 49 68 69
f 49 69 70
f 49 70 50
f 50 70 51
f 51 70 71
f 51 71 52
f 52 71 72
f 52 72 73
f 52 73 53
f 53 73 54
f 54 73 74
f 54 74 55
f 55 74 75
f 55 75 76
f 55 76 77
f 55 77 56
f 56 77 78
f 56 78 57
f 57 78 79
f 57 79 80
f 57 80 58
f 58 81 82
f 58 82 83
f 58 83 84
f 58 84 59
f 58 80 81
f 59 84 83
f 59 83 85
f 59 85 60
f 66 86 87
f 66 87 88
f 66 88 89
f 66 89 90
f 69 91 70
f 70 92 71
f 70 91 92
f 71 92 93
f 71 93 94
f 71 94 95
f 71 95 72
f 72 95 96
f 72 96 73
f 73 96 97
f 73 97 74
f 74 97 75
f 75 97 98
f 75 98 76
f 76 99 77
f 76 98 100
f 76 100 99
f 77 99 101
f 77 101 78
f 78 101 102
f 78 102 79
f 79 103 104
f 79 104 81
f 79 81 80
f 79 102 103
f 81 104 105
f 81 105 82
f 86 106 87
f 87 107 126
f 87 126 152
f 87 152 151
f 87 151 175
f 87 175 196
f 87 196 191
f 87 191 171
f 87 171 170
f 87 170 190
f 87 190 189
f 87 189 188
f 87 188 207
f 87 207 206
f 87 206 205
f 87 205 204
f 87 204 203
f 87 203 202
f 87 202 201
f 87 201 211
f 87 211 200
f 87 200 198
f 87 198 197
f 87 197 178
f 87 178 177
f 87 177 176
f 87 176 153
f 87 153 127
f 87 127 108
f 87 108 90
f 87 90 89
f 87 89 88
f 87 106 107
f 93 109 94
f 94 109 110
f 94 110 111
f 94 111 95
f 95 111 112
f 95 112 96
f 96 112 113
f 96 113 114
f 96 114 97
f 97 114 115
f 97 115 98
f 98 115 116
f 98 116 100
f 99 117 101
f 99 100 118
f 99 118 119
f 99 119 117
f 100 116 118
f 101 117 102
f 102 117 120
f 102 120 103
f 103 120 121
f 103 121 122
f 103 122 104
f 104 122 123
f 104 123 124
f 104 124 105
f 106 125 126
f 106 126 107
f 108 127 128
f 108 128 129
f 108 129 130
f 108 130 131
f 110 132 111
f 111 133 112
f 111 132 134
f 111 134 133
f 112 133 113
f 113 133 135
f 113 135 136
f 113 136 137
f 113 137 114
f 114 137 138
f 114 138 115
f 115 138 139
f 115 139 116
f 116 139 140
f 116 140 118
f 117 119 141
f 117 141 120
f 118 140 142
f 118 142 143
f 118 143 119
f 119 143 144
f 119 144 141
f 120 141 145
f 120 145 121
f 121 145 146
f 121 146 147
f 121 147 122
f 122 147 148
f 122 148 149
f 122 149 123
f 125 150 151
f 125 151 152
f 125 152 126
f 127 153 128
f 128 153 154
f 128 154 129
f 129 154 155
f 129 155 156
f 129 156 130
f 130 156 157
f 130 157 131
f 131 157 158
f 133 159 160
f 133 160 158
f 133 158 157
f 133 157 161
f 133 161 135
f 133 134 159
f 135 161 162
f 135 162 163
f 135 163 136
f 136 163 138
f 136 138 137
f 138 163 164
f 138 164 139
f 139 164 140
f 140 164 165
f 140 165 142
f 141 144 146
f 141 146 145
f 142 165 166
f 142 166 167
f 142 167 143
f 143 167 144
f 144 167 168
f 144 168 169
f 144 169 146
f 146 169 170
f 146 170 171
f 146 171 147
f 147 172 173
f 147 173 148
f 147 171 172
f 148 173 149
f 150 174 175
f 150 175 151
f 153 176 154
f 154 176 177
f 154 177 178
f 154 178 179
f 154 179 180
f 154 180 155
f 155 180 162
f 155 162 156
f 156 162 161
f 156 161 157
f 162 180 163
f 163 180 181
f 163 181 182
f 163 182 164
f 164 182 183
f 164 183 165
f 165 183 166
f 166 183 184
f 166 184 185
f 166 185 186
f 166 186 167
f 167 186 168
f 168 186 187
f 168 187 188
f 168 188 169
f 169 188 189
f 169 189 190
f 169 190 170
f 171 191 192
f 171 192 193
f 171 193 194
f 171 194 172
f 174 195 196
f 174 196 175
f 178 197 179
f 179 197 198
f 179 198 181
f 179 181 180
f 181 199 182
f 181 198 200
f 181 200 199
f 182 199 183
f 183 199 184
f 184 199 201
f 184 201 202
f 184 202 203
f 184 203 204
f 184 204 185
f 185 187 186
f 185 204 205
f 185 205 187
f 187 205 206
f 187 206 207
f 187 207 188
f 191 196 195
f 191 195 208
f 191 208 209
f 191 209 210
f 191 210 192
f 199 200 211
f 199 211 201

