# https://github.com/mikedh/trimesh
v 0.14348698 0.00009077 -0.01131836
v 0.14348698 0.00009077 -0.01444871
v 0.14188431 0.00009077 -0.01133360
v 0.14348698 -0.05683793 -0.01079156
v 0.10592856 0.00009077 -0.01505638
v 0.14348698 -0.00379348 -0.01443640
v 0.11685072 -0.06162226 -0.01568807
v 0.11348513 -0.06028120 -0.01585098
v 0.11057629 -0.05845687 -0.01594708
v 0.07461252 -0.03938599 -0.01660221
v 0.06792140 -0.03611791 -0.01670593
v 0.06669537 -0.03533260 -0.01671882
v 0.06215182 -0.03310354 -0.01675808
v 0.10213026 -0.03579171 -0.01145724
v 0.10242675 -0.04099889 -0.01139513
v 0.14088265 -0.06162226 -0.01077222
v 0.06163897 0.00009077 -0.01243526
v 0.14348698 -0.06162226 -0.01078511
v 0.09789121 0.00009077 -0.01517358
v 0.14348698 -0.01867202 -0.01438894
v 0.11591316 -0.06162226 -0.01572792
v 0.14348698 -0.03241489 -0.01432506
v 0.14348698 -0.04333065 -0.01427233
v 0.14348698 -0.04774045 -0.01425064
v 0.14348698 -0.04995139 -0.01423599
v 0.14348698 -0.06162226 -0.01415220
v 0.10975091 -0.05823336 -0.01596173
v 0.11559263 -0.06162226 -0.01574022
v 0.11539230 -0.06154977 -0.01574784
v 0.06163897 -0.06162226 -0.01518354
v 0.06926764 -0.03684281 -0.01668601
v 0.06163897 -0.03280150 -0.01675398
v 0.13944025 -0.06162226 -0.01079097
v 0.06163897 -0.06162226 -0.01184927
v 0.06163897 0.00009077 -0.01552927
v 0.07033342 0.00009077 -0.01546715
v 0.06622259 0.00009077 -0.01550056
v 0.06873075 0.00009077 -0.01548298
v 0.06902724 0.00009077 -0.01548063
f 1 2 5
f 1 5 19
f 1 19 36
f 1 36 39
f 1 39 38
f 1 38 37
f 1 37 35
f 1 35 17
f 1 17 3
f 1 3 4
f 1 4 18
f 1 18 26
f 1 26 25
f 1 25 24
f 1 24 23
f 1 23 22
f 1 22 20
f 1 20 6
f 1 6 2
f 2 6 7
f 2 7 8
f 2 8 9
f 2 9 10
f 2 10 11
f 2 11 12
f 2 12 13
f 2 13 5
f 3 14 15
f 3 15 16
f 3 16 4
f 3 17 14
f 4 16 18
f 5 13 19
f 6 20 7
f 7 21 8
f 7 20 22
f 7 22 23
f 7 23 24
f 7 24 25
f 7 25 26
f 7 26 18
f 7 18 16
f 7 16 33
f 7 33 34
f 7 34 30
f 7 30 28
f 7 28 21
f 8 27 9
f 8 21 28
f 8 28 29
f 8 29 30
f 8 30 27
f 9 27 10
f 10 31 11
f 10 27 31
f 11 31 30
f 11 30 13
f 11 13 12
f 13 30 32
f 13 32 19
f 14 17 15
f 15 33 16
f 15 17 34
f 15 34 33
f 17 35 32
f 17 32 30
f 17 30 34
f 19 32 36
f 27 30 31
f 28 30 29
f 32 35 37
f 32 37 38
f 32 38 39
f 32 39 36

