# https://github.com/mikedh/trimesh
v 0.15640853 0.00009077 0.01771413
v 0.15605795 0.00336981 0.01767462
v 0.15599278 0.00009077 0.01770002
v 0.15659512 0.00009077 0.01771131
v 0.15691890 0.03837577 0.01736133
v 0.15657725 0.04841740 0.01726679
v 0.15593653 0.02958167 0.01742060
v 0.15555441 0.00009077 0.01760829
v 0.15572892 0.01892650 0.01749540
v 0.15687108 0.00009077 0.01769720
v 0.15716279 0.05201003 0.01720752
v 0.15698198 0.06683047 0.01707345
v 0.15691313 0.00268810 0.01767179
v 0.15642641 0.06478533 0.01710027
v 0.15621879 0.06973457 0.01703535
v 0.15594547 0.06185396 0.01709321
v 0.15562432 0.06973457 0.01696762
v 0.15548187 0.00009077 0.01757866
v 0.15541512 0.01955368 0.01741355
v 0.15533628 0.01153673 0.01745306
v 0.15726791 0.00009077 0.01761393
v 0.15723848 0.00188368 0.01761676
v 0.15749340 0.06700772 0.01701560
v 0.15697830 0.06973457 0.01702830
v 0.15688159 0.06973457 0.01703818
v 0.15681063 0.06973457 0.01703818
v 0.15545980 0.06973457 0.01690694
v 0.15495837 0.00009077 0.01736133
v 0.15507505 0.02142157 0.01724985
v 0.15739564 0.00009077 0.01756313
v 0.15749656 0.00212228 0.01752503
v 0.15766896 0.06184033 0.01700149
v 0.15757540 0.05975429 0.01704946
v 0.15790286 0.06008833 0.01693093
v 0.15780457 0.06720542 0.01689282
v 0.15753335 0.06905967 0.01695209
v 0.15718487 0.06973457 0.01699302
v 0.15521749 0.06973457 0.01678558
v 0.15486480 0.00009077 0.01731336
v 0.15466875 0.00752826 0.01710873
v 0.15473077 0.00020666 0.01722868
v 0.15473760 0.00009077 0.01723433
v 0.15497781 0.06973457 0.01662894
v 0.15748657 0.00009077 0.01750951
v 0.15774991 0.00222453 0.01734722
v 0.15781718 0.01477487 0.01723997
v 0.15811416 0.05807046 0.01676723
v 0.15801166 0.06188805 0.01681239
v 0.15797907 0.06510574 0.01678416
v 0.15792178 0.06718496 0.01678134
v 0.15776777 0.06973457 0.01676159
v 0.15769419 0.06973457 0.01681098
v 0.15751863 0.06973457 0.01690976
v 0.15740667 0.06973457 0.01695492
v 0.15458045 0.01079367 0.01697326
v 0.15441278 0.00797137 0.01682085
v 0.15449687 0.00415378 0.01694504
v 0.15470450 0.04855375 0.01666280
v 0.15471501 0.00009077 0.01721175
v 0.15489739 0.06973457 0.01656684
v 0.15767947 0.00009077 0.01736698
v 0.15772835 0.00009077 0.01731900
v 0.15791600 0.00104517 0.01715672
v 0.15805686 0.01176851 0.01703394
v 0.15830706 0.05965204 0.01651745
v 0.15813150 0.06529662 0.01656825
v 0.15851835 0.06773715 0.01585279
v 0.15808892 0.06973457 0.01637351
v 0.15800851 0.06973457 0.01649346
v 0.15434917 0.02283272 0.01644125
v 0.15429347 0.00973019 0.01651886
v 0.15430398 0.00305622 0.01660777
v 0.15438859 0.00009077 0.01677288
v 0.15450003 0.00009077 0.01696480
v 0.15463722 0.06973457 0.01626062
v 0.15460200 0.06973457 0.01620840
v 0.15451527 0.06973457 0.01604894
v 0.15809681 0.00009077 0.01683497
v 0.15810312 0.00034982 0.01683214
v 0.15839641 0.00716695 0.01651181
v 0.15821402 0.00754189 0.01680674
v 0.15848787 0.06020422 0.01614067
v 0.15862137 0.06973457 0.01462648
v 0.15851835 0.06973457 0.01520365
v 0.15835699 0.06973457 0.01583162
v 0.15833228 0.06953006 0.01599249
v 0.15860770 0.06534433 0.01554092
v 0.15865817 0.06679638 0.01512039
v 0.15821245 0.06973457 0.01617030
v 0.15440122 0.04623592 0.01615619
v 0.15421672 0.00295397 0.01630295
v 0.15428925 0.01446810 0.01640879
v 0.15426087 0.00009077 0.01640174
v 0.15438071 0.06973457 0.01559454
v 0.15815253 0.00009077 0.01673760
v 0.15835647 0.00559901 0.01653862
v 0.15854148 0.00583761 0.01616748
v 0.15859404 0.05964522 0.01569333
v 0.15874595 0.00563992 0.01552681
v 0.15867446 0.06973457 0.01425534
v 0.15832651 0.06973457 0.01593181
v 0.15828919 0.06973457 0.01602777
v 0.15869601 0.06631919 0.01457850
v 0.15868497 0.06973457 0.01408176
v 0.15886736 0.00555811 0.01438375
v 0.15413367 0.00009077 0.01560583
v 0.15425298 0.00009077 0.01637351
v 0.15430450 0.06973457 0.01530807
v 0.15421514 0.01322056 0.01607293
v 0.15413736 0.01359551 0.01553386
v 0.15827551 0.00009077 0.01649628
v 0.15834700 0.00009077 0.01630719
v 0.15871230 0.00429694 0.01544919
v 0.15882163 0.00416742 0.01461660
v 0.15869548 0.06973457 0.01355963
v 0.15883793 0.00470597 0.01380658
v 0.15869075 0.06973457 0.01346085
v 0.15411527 0.00009077 0.01536876
v 0.15351240 0.06806437 0.00736457
v 0.15423985 0.06973457 0.01476195
v 0.15421567 0.06973457 0.01453193
v 0.15356391 0.06973457 0.00797984
v 0.15851310 0.00009077 0.01555080
v 0.15854621 0.00009077 0.01523328
v 0.15856776 0.00009077 0.01499338
v 0.15857302 0.00009077 0.01469280
v 0.15871335 0.00262674 0.01345238
v 0.15875225 0.00478777 0.01297681
v 0.15867919 0.06973457 0.01335078
v 0.15385458 0.01547022 0.01041271
v 0.15402645 0.00009077 0.01307560
v 0.15349768 0.06973457 0.00671825
v 0.15360543 0.01442719 0.00329756
v 0.15855935 0.00009077 0.01402814
v 0.15849680 0.00009077 0.01357233
v 0.15852414 0.00137921 0.01291190
v 0.15862347 0.00324710 0.01260850
v 0.15845265 0.00434466 0.01167148
v 0.15671917 0.00512181 0.00371103
v 0.15850311 0.00533315 0.01179989
v 0.15859719 0.06973457 0.01302338
v 0.15662036 0.00578989 0.00329756
v 0.15661300 0.00711923 0.00329756
v 0.15389189 0.00009077 0.00329756
v 0.15350347 0.06973457 0.00651504
v 0.15360281 0.01617920 0.00329756
v 0.15840061 0.00009077 0.01310946
v 0.15617306 0.00009077 0.00329756
v 0.15622614 0.00049980 0.00329756
v 0.15640433 0.00191776 0.00329756
v 0.15650630 0.00320620 0.00329756
v 0.15656149 0.00400380 0.00329756
v 0.15660406 0.00506046 0.00329756
v 0.15591919 0.06597833 0.00329756
v 0.15586084 0.06827570 0.00329756
v 0.15585401 0.06848022 0.00329756
v 0.15575677 0.06958459 0.00329756
v 0.15575309 0.06962550 0.00329756
v 0.15573891 0.06973457 0.00329756
v 0.15351765 0.06973457 0.00628502
v 0.15372422 0.06973457 0.00329756
f 1 2 3
f 1 3 8
f 1 8 18
f 1 18 28
f 1 28 39
f 1 39 42
f 1 42 59
f 1 59 74
f 1 74 73
f 1 73 93
f 1 93 107
f 1 107 106
f 1 106 118
f 1 118 131
f 1 131 144
f 1 144 148
f 1 148 147
f 1 147 135
f 1 135 134
f 1 134 126
f 1 126 125
f 1 125 124
f 1 124 123
f 1 123 112
f 1 112 111
f 1 111 95
f 1 95 78
f 1 78 62
f 1 62 61
f 1 61 44
f 1 44 30
f 1 30 21
f 1 21 10
f 1 10 4
f 1 4 5
f 1 5 6
f 1 6 2
f 2 6 7
f 2 7 3
f 3 7 9
f 3 9 8
f 4 10 5
f 5 11 12
f 5 12 6
f 5 10 13
f 5 13 11
f 6 12 14
f 6 14 7
f 7 14 15
f 7 15 16
f 7 16 17
f 7 17 9
f 8 9 19
f 8 19 20
f 8 20 18
f 9 17 19
f 10 21 22
f 10 22 13
f 11 23 12
f 11 13 22
f 11 22 23
f 12 23 24
f 12 24 25
f 12 25 14
f 14 25 26
f 14 26 15
f 15 26 25
f 15 25 24
f 15 24 37
f 15 37 54
f 15 54 53
f 15 53 52
f 15 52 51
f 15 51 69
f 15 69 68
f 15 68 89
f 15 89 102
f 15 102 101
f 15 101 85
f 15 85 84
f 15 84 83
f 15 83 100
f 15 100 104
f 15 104 115
f 15 115 117
f 15 117 129
f 15 129 141
f 15 141 159
f 15 159 161
f 15 161 160
f 15 160 145
f 15 145 132
f 15 132 122
f 15 122 121
f 15 121 120
f 15 120 108
f 15 108 94
f 15 94 77
f 15 77 76
f 15 76 75
f 15 75 60
f 15 60 43
f 15 43 38
f 15 38 27
f 15 27 17
f 15 17 16
f 17 27 19
f 18 20 28
f 19 29 20
f 19 27 29
f 20 29 28
f 21 30 31
f 21 31 22
f 22 31 32
f 22 32 33
f 22 33 23
f 23 33 32
f 23 32 34
f 23 34 35
f 23 35 36
f 23 36 37
f 23 37 24
f 27 38 29
f 28 29 39
f 29 40 41
f 29 41 42
f 29 42 39
f 29 38 43
f 29 43 40
f 30 44 31
f 31 44 45
f 31 45 46
f 31 46 34
f 31 34 32
f 34 47 48
f 34 48 35
f 34 46 47
f 35 48 49
f 35 49 50
f 35 50 51
f 35 51 52
f 35 52 36
f 36 52 53
f 36 53 54
f 36 54 37
f 40 55 56
f 40 56 57
f 40 57 41
f 40 43 58
f 40 58 55
f 41 57 59
f 41 59 42
f 43 60 58
f 44 61 45
f 45 61 62
f 45 62 63
f 45 63 64
f 45 64 46
f 46 64 47
f 47 65 48
f 47 64 65
f 48 65 49
f 49 65 66
f 49 66 50
f 50 67 68
f 50 68 69
f 50 69 51
f 50 66 67
f 55 58 56
f 56 70 71
f 56 71 72
f 56 72 73
f 56 73 74
f 56 74 57
f 56 58 75
f 56 75 76
f 56 76 77
f 56 77 70
f 57 74 59
f 58 60 75
f 62 78 63
f 63 78 79
f 63 79 80
f 63 80 81
f 63 81 64
f 64 81 65
f 65 82 67
f 65 67 66
f 65 81 80
f 65 80 82
f 67 83 84
f 67 84 85
f 67 85 86
f 67 86 68
f 67 82 87
f 67 87 88
f 67 88 83
f 68 86 89
f 70 77 90
f 70 90 71
f 71 91 72
f 71 90 92
f 71 92 91
f 72 91 93
f 72 93 73
f 77 94 90
f 78 95 79
f 79 95 96
f 79 96 80
f 80 96 97
f 80 97 82
f 82 98 87
f 82 97 99
f 82 99 98
f 83 88 100
f 85 101 86
f 86 101 102
f 86 102 89
f 87 98 99
f 87 99 88
f 88 103 104
f 88 104 100
f 88 99 105
f 88 105 103
f 90 94 92
f 91 106 107
f 91 107 93
f 91 92 108
f 91 108 109
f 91 109 110
f 91 110 106
f 92 94 108
f 95 111 96
f 96 111 97
f 97 111 112
f 97 112 99
f 99 112 113
f 99 113 114
f 99 114 105
f 103 115 104
f 103 105 115
f 105 114 116
f 105 116 117
f 105 117 115
f 106 110 119
f 106 119 118
f 108 120 110
f 108 110 109
f 110 120 121
f 110 121 122
f 110 122 119
f 112 123 113
f 113 123 114
f 114 123 124
f 114 124 125
f 114 125 126
f 114 126 127
f 114 127 116
f 116 127 128
f 116 128 117
f 117 128 129
f 118 130 131
f 118 119 130
f 119 122 132
f 119 132 133
f 119 133 130
f 126 134 127
f 127 134 135
f 127 135 136
f 127 136 137
f 127 137 128
f 128 137 138
f 128 138 139
f 128 139 140
f 128 140 129
f 129 140 139
f 129 139 142
f 129 142 143
f 129 143 141
f 130 133 131
f 131 133 144
f 132 145 146
f 132 146 133
f 133 146 161
f 133 161 159
f 133 159 158
f 133 158 157
f 133 157 156
f 133 156 155
f 133 155 154
f 133 154 143
f 133 143 142
f 133 142 153
f 133 153 152
f 133 152 151
f 133 151 150
f 133 150 149
f 133 149 148
f 133 148 144
f 135 147 136
f 136 147 148
f 136 148 149
f 136 149 150
f 136 150 137
f 137 151 152
f 137 152 139
f 137 139 138
f 137 150 151
f 139 152 153
f 139 153 142
f 141 154 155
f 141 155 156
f 141 156 157
f 141 157 158
f 141 158 159
f 141 143 154
f 145 160 146
f 146 160 161

