# https://github.com/mikedh/trimesh
v 0.14570643 0.08559998 -0.01547687
v 0.14676114 0.08493670 -0.01557629
v 0.14570643 0.08559998 -0.01571087
v 0.14556261 0.08559998 -0.01121159
v 0.14567502 0.08552980 -0.01121159
v 0.14696777 0.08462773 -0.01121159
v 0.14762738 0.08426827 -0.01541383
v 0.14770838 0.08422205 -0.01611097
v 0.14671650 0.08493498 -0.01620190
v 0.14568990 0.08559998 -0.01593274
v 0.14596928 0.08534065 -0.01121159
v 0.14664541 0.08486309 -0.01121159
v 0.13945095 0.08559998 -0.01121159
v 0.14816134 0.08363409 -0.01121159
v 0.14848370 0.08352796 -0.01580726
v 0.14750174 0.08429395 -0.01654804
v 0.14812167 0.08378044 -0.01643408
v 0.14680412 0.08476980 -0.01656199
v 0.14562378 0.08559998 -0.01621099
v 0.13918315 0.08559998 -0.01122008
v 0.13930383 0.08539800 -0.01121159
v 0.14854983 0.08327806 -0.01121159
v 0.14908544 0.08282017 -0.01627949
v 0.14930366 0.08255571 -0.01121159
v 0.15069726 0.08119234 -0.01544232
v 0.15062121 0.08121716 -0.01604429
v 0.14739759 0.08418440 -0.01684630
v 0.14838947 0.08333625 -0.01676689
v 0.14661896 0.08467394 -0.01687903
v 0.14507163 0.08559998 -0.01691177
v 0.14541052 0.08559998 -0.01657654
v 0.14559071 0.08559998 -0.01627222
v 0.13996839 0.08254802 -0.01121159
v 0.13664889 0.08559998 -0.01175112
v 0.13664889 0.07685660 -0.01190873
v 0.15119154 0.08045374 -0.01642135
v 0.14989218 0.08193694 -0.01121159
v 0.15037490 0.08141486 -0.01121159
v 0.15068073 0.08104514 -0.01121159
v 0.15153870 0.08017730 -0.01571814
v 0.14754637 0.08381895 -0.01708211
v 0.14675948 0.08432904 -0.01712212
v 0.14867712 0.08280819 -0.01702028
v 0.14796296 0.08333197 -0.01717365
v 0.15063278 0.08087311 -0.01674688
v 0.14456577 0.08559998 -0.01716941
v 0.14021967 0.08174437 -0.01121159
v 0.13664889 0.08559998 -0.01486279
v 0.14297545 0.07685660 -0.01121159
v 0.14256051 0.07736755 -0.01121159
v 0.14231088 0.07769533 -0.01121159
v 0.14181163 0.07845533 -0.01121159
v 0.14132065 0.07926325 -0.01121159
v 0.14113220 0.07964497 -0.01121159
v 0.14082141 0.08031338 -0.01121159
v 0.14056683 0.08089108 -0.01121159
v 0.14050235 0.08104257 -0.01121159
v 0.13664889 0.07685660 -0.01462515
v 0.15226443 0.07916398 -0.01612552
v 0.15150729 0.07998217 -0.01660624
v 0.15121469 0.08037843 -0.01121159
v 0.15149407 0.08000785 -0.01121159
v 0.14723558 0.08377188 -0.01725488
v 0.14656772 0.08417242 -0.01726580
v 0.15167261 0.07898596 -0.01714152
v 0.14922761 0.08133356 -0.01732338
v 0.14784889 0.08269351 -0.01735370
v 0.14450295 0.08559998 -0.01718578
v 0.14097185 0.08559998 -0.01683539
v 0.15341667 0.07685660 -0.01121159
v 0.14136033 0.08559998 -0.01698088
v 0.14144299 0.08559998 -0.01701119
v 0.14260184 0.08559998 -0.01731247
v 0.14288287 0.08559998 -0.01737431
v 0.15180321 0.07685660 -0.01734521
v 0.15244463 0.07859997 -0.01121159
v 0.15266780 0.07823709 -0.01121159
v 0.15313729 0.07763799 -0.01624494
v 0.15257853 0.07860254 -0.01636679
v 0.15305133 0.07744029 -0.01687479
v 0.15236362 0.07822339 -0.01703725
v 0.14624700 0.08393706 -0.01737370
v 0.14402684 0.08559998 -0.01730762
v 0.15308935 0.07685660 -0.01713546
v 0.15256530 0.07685660 -0.01732338
v 0.14898957 0.08125139 -0.01735854
v 0.15353569 0.07685660 -0.01633223
v 0.15332409 0.07704318 -0.01121159
v 0.14325648 0.08559998 -0.01739674
v 0.14501046 0.08431791 -0.01740340
v 0.15205779 0.07685660 -0.01734763
v 0.15290420 0.07781858 -0.01121159
v 0.15350759 0.07685660 -0.01666383
v 0.15349933 0.07685660 -0.01672021
v 0.15346792 0.07685660 -0.01678143
v 0.15328277 0.07685660 -0.01698027
v 0.14360364 0.08559998 -0.01737067
v 0.15249587 0.07685660 -0.01733005
f 1 2 3
f 1 3 10
f 1 10 19
f 1 19 32
f 1 32 31
f 1 31 30
f 1 30 46
f 1 46 68
f 1 68 83
f 1 83 97
f 1 97 89
f 1 89 74
f 1 74 73
f 1 73 72
f 1 72 71
f 1 71 69
f 1 69 48
f 1 48 34
f 1 34 20
f 1 20 13
f 1 13 4
f 1 4 5
f 1 5 2
f 2 6 7
f 2 7 8
f 2 8 9
f 2 9 10
f 2 10 3
f 2 5 11
f 2 11 12
f 2 12 6
f 4 13 21
f 4 21 33
f 4 33 47
f 4 47 57
f 4 57 56
f 4 56 55
f 4 55 54
f 4 54 53
f 4 53 52
f 4 52 51
f 4 51 50
f 4 50 49
f 4 49 70
f 4 70 88
f 4 88 92
f 4 92 77
f 4 77 76
f 4 76 62
f 4 62 61
f 4 61 39
f 4 39 38
f 4 38 37
f 4 37 24
f 4 24 22
f 4 22 14
f 4 14 6
f 4 6 12
f 4 12 11
f 4 11 5
f 6 14 7
f 7 14 15
f 7 15 8
f 8 16 9
f 8 15 17
f 8 17 16
f 9 16 18
f 9 18 19
f 9 19 10
f 13 20 21
f 14 22 15
f 15 23 17
f 15 22 24
f 15 24 25
f 15 25 26
f 15 26 23
f 16 27 18
f 16 17 28
f 16 28 27
f 17 23 28
f 18 27 29
f 18 29 30
f 18 30 31
f 18 31 32
f 18 32 19
f 20 33 21
f 20 34 35
f 20 35 33
f 23 26 36
f 23 36 28
f 24 37 25
f 25 37 38
f 25 38 39
f 25 39 40
f 25 40 26
f 26 40 36
f 27 28 41
f 27 41 42
f 27 42 29
f 28 43 44
f 28 44 41
f 28 36 45
f 28 45 43
f 29 42 30
f 30 42 46
f 33 35 47
f 34 48 58
f 34 58 35
f 35 49 50
f 35 50 51
f 35 51 52
f 35 52 53
f 35 53 54
f 35 54 55
f 35 55 56
f 35 56 57
f 35 57 47
f 35 58 75
f 35 75 91
f 35 91 98
f 35 98 85
f 35 85 84
f 35 84 96
f 35 96 95
f 35 95 94
f 35 94 93
f 35 93 87
f 35 87 70
f 35 70 49
f 36 40 59
f 36 59 60
f 36 60 45
f 39 61 40
f 40 61 62
f 40 62 59
f 41 63 42
f 41 44 63
f 42 63 64
f 42 64 46
f 43 45 65
f 43 65 44
f 44 65 66
f 44 66 67
f 44 67 63
f 45 60 65
f 46 64 68
f 48 69 58
f 58 69 71
f 58 71 72
f 58 72 73
f 58 73 74
f 58 74 75
f 59 76 77
f 59 77 78
f 59 78 79
f 59 79 60
f 59 62 76
f 60 79 80
f 60 80 81
f 60 81 65
f 63 82 64
f 63 67 82
f 64 82 83
f 64 83 68
f 65 81 84
f 65 84 85
f 65 85 66
f 66 86 67
f 66 85 86
f 67 86 82
f 70 87 88
f 74 89 75
f 75 90 91
f 75 89 90
f 77 92 78
f 78 88 87
f 78 87 93
f 78 93 94
f 78 94 79
f 78 92 88
f 79 94 95
f 79 95 80
f 80 95 96
f 80 96 81
f 81 96 84
f 82 86 90
f 82 90 89
f 82 89 97
f 82 97 83
f 85 98 86
f 86 98 91
f 86 91 90

