# https://github.com/mikedh/trimesh
v 0.13664724 0.08559998 -0.01175055
v 0.12964816 0.07685660 -0.01186582
v 0.13664724 0.07685660 -0.01190850
v 0.13664724 0.08559998 -0.01486314
v 0.01267692 0.08559998 -0.01188515
v 0.00045186 0.07685660 -0.01220688
v 0.13664724 0.07685660 -0.01462531
v 0.11126392 0.08559998 -0.01500467
v 0.11926286 0.07685660 -0.01474751
v 0.08885354 0.07685660 -0.01495360
v 0.08402751 0.07685660 -0.01498497
v 0.00099845 0.08559998 -0.01195774
v 0.00045186 0.08559998 -0.01196358
v 0.00045186 0.07685660 -0.01522062
v 0.07805496 0.07685660 -0.01501744
v 0.05851087 0.07685660 -0.01512030
v 0.01722299 0.08559998 -0.01547705
v 0.00045186 0.08559998 -0.01524797
v 0.00106511 0.07685660 -0.01522098
v 0.01632977 0.08559998 -0.01546501
v 0.05260499 0.07685660 -0.01513854
v 0.04411277 0.07685660 -0.01516444
v 0.04036660 0.07685660 -0.01517429
v 0.03032792 0.07685660 -0.01519654
v 0.01599648 0.07685660 -0.01521551
v 0.01171704 0.07685660 -0.01522098
f 1 2 3
f 1 3 7
f 1 7 4
f 1 4 8
f 1 8 17
f 1 17 20
f 1 20 18
f 1 18 13
f 1 13 12
f 1 12 5
f 1 5 2
f 2 5 6
f 2 6 14
f 2 14 19
f 2 19 26
f 2 26 25
f 2 25 24
f 2 24 23
f 2 23 22
f 2 22 21
f 2 21 16
f 2 16 15
f 2 15 11
f 2 11 10
f 2 10 9
f 2 9 7
f 2 7 3
f 4 7 9
f 4 9 10
f 4 10 11
f 4 11 8
f 5 12 6
f 6 12 13
f 6 13 18
f 6 18 14
f 8 11 15
f 8 15 16
f 8 16 17
f 14 18 20
f 14 20 17
f 14 17 19
f 16 21 17
f 17 21 22
f 17 22 23
f 17 23 24
f 17 24 25
f 17 25 26
f 17 26 19

