# https://github.com/mikedh/trimesh
v -0.06734605 0.00009077 -0.01558776
v -0.03948626 0.00009077 -0.01700889
v -0.06734605 0.00009077 -0.01247718
v -0.06734605 0.03533475 -0.01656121
v -0.03949289 0.00223906 -0.01699852
v -0.03161543 0.02363182 -0.01691995
v -0.00702077 0.03856469 -0.01687844
v -0.00358973 0.03928580 -0.01686658
v 0.00045186 0.03925575 -0.01681371
v 0.00045186 0.00009077 -0.01570388
v -0.06164534 0.03248789 -0.01670599
v -0.01343821 0.00009077 -0.01237637
v -0.05492926 0.04529500 -0.01204580
v -0.05784929 0.04370256 -0.01207050
v -0.06734605 0.03195457 -0.01224691
v -0.06734605 0.03559014 -0.01655824
v -0.00779060 0.03876000 -0.01687202
v -0.05841339 0.07682830 -0.01511191
v -0.04388622 0.07682830 -0.01515836
v -0.02908031 0.07682830 -0.01519097
v -0.01505087 0.07682830 -0.01521419
v -0.01244938 0.07682830 -0.01521815
v -0.00134661 0.07682830 -0.01522556
v 0.00045186 0.07682830 -0.01522111
v 0.00045186 0.03935340 -0.01680976
v 0.00045186 0.00009077 -0.01275192
v -0.01181229 0.00009077 -0.01239070
v 0.00045186 0.07682830 -0.01220738
v -0.01418813 0.00207381 -0.01236254
v -0.06734605 0.07682830 -0.01196130
v -0.06734605 0.04509971 -0.01216044
v -0.06734605 0.07682830 -0.01506546
v -0.06226253 0.07682830 -0.01509511
v -0.00876616 0.00009077 -0.01246186
v 0.00045186 0.00981817 -0.01256464
v -0.01049827 0.00009077 -0.01241343
v -0.01098273 0.00142782 -0.01239367
f 1 2 10
f 1 10 26
f 1 26 34
f 1 34 36
f 1 36 27
f 1 27 12
f 1 12 3
f 1 3 15
f 1 15 31
f 1 31 30
f 1 30 32
f 1 32 16
f 1 16 4
f 1 4 2
f 2 5 6
f 2 6 7
f 2 7 8
f 2 8 9
f 2 9 10
f 2 4 11
f 2 11 5
f 3 12 13
f 3 13 14
f 3 14 15
f 4 16 11
f 5 11 6
f 6 11 7
f 7 11 17
f 7 17 8
f 8 17 18
f 8 18 19
f 8 19 20
f 8 20 21
f 8 21 22
f 8 22 23
f 8 23 24
f 8 24 25
f 8 25 9
f 9 25 24
f 9 24 28
f 9 28 35
f 9 35 26
f 9 26 10
f 11 16 17
f 12 27 28
f 12 28 29
f 12 29 13
f 13 28 30
f 13 30 14
f 13 29 28
f 14 30 31
f 14 31 15
f 16 32 17
f 17 32 33
f 17 33 18
f 18 33 32
f 18 32 30
f 18 30 28
f 18 28 24
f 18 24 23
f 18 23 22
f 18 22 21
f 18 21 20
f 18 20 19
f 26 35 34
f 27 36 37
f 27 37 28
f 28 37 35
f 34 35 36
f 35 37 36

