# https://github.com/mikedh/trimesh
v 0.13983314 0.08620853 0.00319473
v 0.14156563 0.08483214 0.00319473
v 0.14140020 0.08620853 0.01450484
v 0.14482075 0.08620853 0.00319473
v 0.14194859 0.08453963 0.00319473
v 0.14149823 0.08620853 0.01484949
v 0.15040577 0.07938670 0.01448464
v 0.15054211 0.07938670 0.01533011
v 0.14495709 0.08613507 0.00319473
v 0.14969653 0.08620853 0.01338069
v 0.14268999 0.08399937 0.00319473
v 0.14167899 0.08620853 0.01527760
v 0.15071060 0.07938670 0.01580265
v 0.14908841 0.07938670 0.00319473
v 0.14497393 0.08612572 0.00319473
v 0.14973023 0.08620853 0.01345205
v 0.14569389 0.08569697 0.00319473
v 0.14184748 0.08620853 0.01552801
v 0.15085306 0.07938670 0.01607326
v 0.15217043 0.07938670 0.00319473
v 0.14983746 0.08620853 0.01376842
v 0.14979917 0.08612438 0.01338877
v 0.14827501 0.08380503 0.00319473
v 0.14810191 0.08395729 0.00319473
v 0.14720120 0.08465517 0.00319473
v 0.14707712 0.08474933 0.00319473
v 0.14638934 0.08523885 0.00319473
v 0.14190263 0.08620853 0.01560475
v 0.15090054 0.07938670 0.01612576
v 0.15126359 0.08064221 0.00319473
v 0.15389526 0.08155379 0.01334434
v 0.15454628 0.08075774 0.01358533
v 0.15510386 0.07960441 0.01317067
v 0.15537193 0.07938670 0.01365803
v 0.14990946 0.08620853 0.01408211
v 0.15007336 0.08599549 0.01380073
v 0.15086532 0.08515403 0.01367418
v 0.14955408 0.08261697 0.00319473
v 0.14925231 0.08291482 0.00319473
v 0.14218602 0.08620853 0.01588074
v 0.15116862 0.07938670 0.01638425
v 0.15047164 0.08160254 0.00319473
v 0.15273873 0.08289145 0.01319760
v 0.15358276 0.08213145 0.01387613
v 0.15437625 0.08113706 0.01420193
v 0.15515748 0.07997572 0.01447253
v 0.15540103 0.07938670 0.01375496
v 0.14991712 0.08620853 0.01413730
v 0.15117474 0.08494033 0.01456677
v 0.15218728 0.08378633 0.01400941
v 0.15029854 0.08179821 0.00319473
v 0.14992324 0.08620853 0.01418308
v 0.14227639 0.08620853 0.01594940
v 0.15153932 0.07938670 0.01666831
v 0.15386462 0.08183962 0.01487237
v 0.15298229 0.08294687 0.01464485
v 0.15541176 0.07938670 0.01531261
v 0.15544393 0.07938670 0.01511067
v 0.15547610 0.07938670 0.01468793
v 0.15548222 0.07938670 0.01442406
v 0.15540869 0.07938670 0.01381016
v 0.14989874 0.08620853 0.01472832
v 0.14988342 0.08620853 0.01483602
v 0.15116402 0.08478673 0.01563302
v 0.15257329 0.08335024 0.01536780
v 0.14267926 0.08620853 0.01617153
v 0.15164041 0.07938670 0.01673024
v 0.15395040 0.08149235 0.01551993
v 0.15539950 0.07938670 0.01536915
v 0.14985432 0.08620853 0.01496527
v 0.15014536 0.08580716 0.01551993
v 0.15109202 0.08459907 0.01623077
v 0.15185793 0.08389184 0.01601267
v 0.14988495 0.08592871 0.01587670
v 0.15299302 0.08253883 0.01597094
v 0.14274973 0.08620853 0.01620115
v 0.15192380 0.07938670 0.01682987
v 0.15422920 0.08067026 0.01622269
v 0.15480210 0.08016004 0.01569899
v 0.15538419 0.07938670 0.01542973
v 0.14971645 0.08620853 0.01546204
v 0.14995235 0.08569364 0.01620788
v 0.15083162 0.08461309 0.01645829
v 0.15194065 0.08333020 0.01649599
v 0.15238028 0.08305639 0.01628866
v 0.14962914 0.08620853 0.01571111
v 0.14956480 0.08620853 0.01585920
v 0.14937026 0.08620853 0.01616750
v 0.14342373 0.08620853 0.01641656
v 0.15194371 0.07938670 0.01683390
v 0.14477174 0.08620853 0.01677871
v 0.14430606 0.08620853 0.01666831
v 0.15493383 0.07938670 0.01636674
v 0.15498591 0.07938670 0.01629809
v 0.15516207 0.07938670 0.01599248
v 0.15409746 0.08057476 0.01647445
v 0.15522181 0.07938670 0.01586324
v 0.14942693 0.08595342 0.01640713
v 0.15120232 0.08392323 0.01663062
v 0.14974709 0.08543319 0.01657946
v 0.15303437 0.08161055 0.01668851
v 0.14922474 0.08620853 0.01630482
v 0.15255491 0.07938670 0.01692949
v 0.14496321 0.08620853 0.01681371
v 0.15478677 0.07938670 0.01653772
v 0.15450798 0.07938670 0.01672620
v 0.14910525 0.08620853 0.01639098
v 0.14891531 0.08620853 0.01650541
v 0.14883871 0.08620853 0.01654580
v 0.15155463 0.08290880 0.01682717
v 0.15006723 0.08489825 0.01668985
v 0.14851857 0.08620853 0.01666293
v 0.15341580 0.08071968 0.01680967
v 0.15265295 0.07938670 0.01693487
v 0.14585473 0.08620853 0.01690391
v 0.14526039 0.08620853 0.01685006
v 0.15421234 0.07938670 0.01681371
v 0.15302518 0.08072302 0.01689179
v 0.15002741 0.08463447 0.01677198
v 0.14779249 0.08620853 0.01682044
v 0.14700972 0.08620853 0.01689853
v 0.14717975 0.08578045 0.01692814
v 0.14844351 0.08620853 0.01668581
v 0.14839909 0.08620853 0.01669658
v 0.15398411 0.07938670 0.01686218
v 0.15297770 0.07938670 0.01694699
v 0.14651494 0.08620853 0.01692545
v 0.15369765 0.07938670 0.01692007
v 0.14658694 0.08620853 0.01692411
f 1 2 3
f 1 3 6
f 1 6 12
f 1 12 18
f 1 18 28
f 1 28 40
f 1 40 53
f 1 53 66
f 1 66 76
f 1 76 89
f 1 89 92
f 1 92 91
f 1 91 104
f 1 104 116
f 1 116 115
f 1 115 127
f 1 127 129
f 1 129 121
f 1 121 120
f 1 120 124
f 1 124 123
f 1 123 112
f 1 112 109
f 1 109 108
f 1 108 107
f 1 107 102
f 1 102 88
f 1 88 87
f 1 87 86
f 1 86 81
f 1 81 70
f 1 70 63
f 1 63 62
f 1 62 52
f 1 52 48
f 1 48 35
f 1 35 21
f 1 21 16
f 1 16 10
f 1 10 4
f 1 4 9
f 1 9 15
f 1 15 17
f 1 17 27
f 1 27 26
f 1 26 25
f 1 25 24
f 1 24 23
f 1 23 39
f 1 39 38
f 1 38 51
f 1 51 42
f 1 42 30
f 1 30 20
f 1 20 14
f 1 14 11
f 1 11 5
f 1 5 2
f 2 5 3
f 3 5 7
f 3 7 8
f 3 8 6
f 4 10 9
f 5 11 7
f 6 8 13
f 6 13 12
f 7 14 20
f 7 20 34
f 7 34 47
f 7 47 61
f 7 61 60
f 7 60 59
f 7 59 58
f 7 58 57
f 7 57 69
f 7 69 80
f 7 80 97
f 7 97 95
f 7 95 94
f 7 94 93
f 7 93 105
f 7 105 106
f 7 106 117
f 7 117 125
f 7 125 128
f 7 128 126
f 7 126 114
f 7 114 103
f 7 103 90
f 7 90 77
f 7 77 67
f 7 67 54
f 7 54 41
f 7 41 29
f 7 29 19
f 7 19 13
f 7 13 8
f 7 11 14
f 9 10 15
f 10 16 17
f 10 17 15
f 12 13 19
f 12 19 18
f 16 21 22
f 16 22 23
f 16 23 24
f 16 24 25
f 16 25 26
f 16 26 27
f 16 27 17
f 18 19 28
f 19 29 28
f 20 30 31
f 20 31 32
f 20 32 33
f 20 33 34
f 21 35 36
f 21 36 22
f 22 36 37
f 22 37 38
f 22 38 39
f 22 39 23
f 28 29 40
f 29 41 40
f 30 42 31
f 31 43 44
f 31 44 32
f 31 42 43
f 32 44 45
f 32 45 46
f 32 46 47
f 32 47 33
f 33 47 34
f 35 48 37
f 35 37 36
f 37 49 50
f 37 50 43
f 37 43 51
f 37 51 38
f 37 48 52
f 37 52 49
f 40 41 54
f 40 54 53
f 42 51 43
f 43 50 44
f 44 55 45
f 44 50 56
f 44 56 55
f 45 55 46
f 46 57 58
f 46 58 59
f 46 59 60
f 46 60 61
f 46 61 47
f 46 55 57
f 49 52 62
f 49 62 63
f 49 63 64
f 49 64 65
f 49 65 56
f 49 56 50
f 53 54 67
f 53 67 66
f 55 56 65
f 55 65 68
f 55 68 69
f 55 69 57
f 63 70 71
f 63 71 64
f 64 72 73
f 64 73 65
f 64 71 74
f 64 74 72
f 65 75 68
f 65 73 75
f 66 67 76
f 67 77 76
f 68 75 78
f 68 78 79
f 68 79 69
f 69 79 80
f 70 81 71
f 71 81 74
f 72 74 82
f 72 82 83
f 72 83 84
f 72 84 85
f 72 85 73
f 73 85 75
f 74 81 86
f 74 86 87
f 74 87 88
f 74 88 82
f 75 85 78
f 76 77 89
f 77 90 91
f 77 91 92
f 77 92 89
f 78 93 94
f 78 94 95
f 78 95 79
f 78 85 96
f 78 96 93
f 79 95 97
f 79 97 80
f 82 88 98
f 82 98 83
f 83 99 84
f 83 98 100
f 83 100 99
f 84 99 101
f 84 101 96
f 84 96 85
f 88 102 98
f 90 103 104
f 90 104 91
f 93 96 105
f 96 101 106
f 96 106 105
f 98 102 107
f 98 107 108
f 98 108 109
f 98 109 100
f 99 110 101
f 99 100 111
f 99 111 110
f 100 109 112
f 100 112 111
f 101 113 106
f 101 110 113
f 103 114 115
f 103 115 116
f 103 116 104
f 106 113 117
f 110 118 113
f 110 111 119
f 110 119 120
f 110 120 121
f 110 121 122
f 110 122 118
f 111 112 123
f 111 123 124
f 111 124 119
f 113 118 125
f 113 125 117
f 114 126 115
f 115 126 127
f 118 128 125
f 118 122 128
f 119 124 120
f 121 129 122
f 122 129 127
f 122 127 126
f 122 126 128

