# https://github.com/mikedh/trimesh
v 0.14637823 0.04353618 -0.01453139
v 0.14978527 0.04715002 -0.01717668
v 0.14960149 0.04624004 -0.01702184
v 0.14964440 0.04566274 -0.01702060
v 0.14999145 0.04428961 -0.01712094
v 0.15024894 0.04379710 -0.01724543
v 0.15025080 0.04353618 -0.01720827
v 0.14637823 0.04353618 -0.01165012
v 0.14637823 0.05947232 -0.01457288
v 0.15026480 0.04654663 -0.01743124
v 0.14992521 0.04608348 -0.01723614
v 0.14637823 0.07305032 -0.01460323
v 0.15126489 0.07685660 -0.01722809
v 0.15048590 0.04473644 -0.01740213
v 0.15031983 0.04353618 -0.01723057
v 0.14924324 0.04353618 -0.01121099
v 0.14637823 0.07358523 -0.01121099
v 0.15057080 0.04759686 -0.01750866
v 0.15052135 0.04624982 -0.01750742
v 0.15134886 0.07685660 -0.01725968
v 0.14637823 0.07359827 -0.01457784
v 0.14637823 0.07460936 -0.01446450
v 0.15102513 0.07685660 -0.01706272
v 0.15078350 0.04430591 -0.01740213
v 0.15055121 0.04353618 -0.01727764
v 0.15074711 0.04558120 -0.01750309
v 0.15176307 0.04353618 -0.01121099
v 0.14637823 0.07685660 -0.01121099
v 0.15106524 0.04614871 -0.01751238
v 0.15180319 0.07685660 -0.01734515
v 0.15468033 0.06249907 -0.01753839
v 0.14637823 0.07497466 -0.01432762
v 0.15096169 0.07685660 -0.01701441
v 0.14637823 0.07526495 -0.01420932
v 0.15116320 0.04430918 -0.01736249
v 0.15097382 0.04353618 -0.01728507
v 0.15079376 0.04353618 -0.01730365
v 0.15181718 0.04353618 -0.01617394
v 0.15529606 0.04688583 -0.01121099
v 0.15341714 0.07685660 -0.01121099
v 0.14637823 0.07685660 -0.01330629
v 0.15397597 0.05111286 -0.01749008
v 0.15392559 0.05043444 -0.01748203
v 0.15463275 0.05093347 -0.01745478
v 0.15205787 0.07685660 -0.01734763
v 0.15398716 0.07351021 -0.01742071
v 0.15479881 0.06748605 -0.01747522
v 0.15520463 0.06682721 -0.01743991
v 0.15494155 0.06089437 -0.01751919
v 0.15469060 0.05198696 -0.01747707
v 0.15493782 0.05075408 -0.01737178
v 0.15514399 0.05023875 -0.01713952
v 0.15118559 0.04353618 -0.01718597
v 0.15180598 0.04353618 -0.01633745
v 0.15540521 0.04702282 -0.01121099
v 0.15353563 0.07685660 -0.01633249
v 0.15362333 0.07644238 -0.01121099
v 0.15396011 0.07601837 -0.01642540
v 0.15499473 0.05184998 -0.01742257
v 0.15249728 0.07685660 -0.01732967
v 0.15382204 0.07441693 -0.01740275
v 0.15423813 0.07435822 -0.01730056
v 0.15517851 0.06837646 -0.01738665
v 0.15481094 0.06892441 -0.01745168
v 0.15549290 0.06728057 -0.01727269
v 0.15563191 0.05964192 -0.01729622
v 0.15533524 0.05963539 -0.01746159
v 0.15531472 0.05191847 -0.01729870
v 0.15526900 0.05089759 -0.01722623
v 0.15546492 0.05073125 -0.01699707
v 0.15547238 0.05010176 -0.01673941
v 0.15150465 0.04353618 -0.01696982
v 0.15174348 0.04353618 -0.01658148
v 0.15552182 0.04725440 -0.01121099
v 0.15551903 0.04888519 -0.01529940
v 0.15350858 0.07685660 -0.01666385
v 0.15358880 0.07668700 -0.01675490
v 0.15378659 0.07608034 -0.01121099
v 0.15438552 0.07500075 -0.01664279
v 0.15442564 0.07488333 -0.01586364
v 0.15256632 0.07685660 -0.01732347
v 0.15259244 0.07679137 -0.01732905
v 0.15384629 0.07543129 -0.01723800
v 0.15444150 0.07474635 -0.01691593
v 0.15509081 0.07192834 -0.01686576
v 0.15551996 0.06911358 -0.01703857
v 0.15465514 0.07249911 -0.01724667
v 0.15545466 0.06829492 -0.01722004
v 0.15573267 0.06759368 -0.01706148
v 0.15568042 0.06682721 -0.01713147
v 0.15586514 0.06690548 -0.01686514
v 0.15580637 0.05957343 -0.01701007
v 0.15577185 0.05878412 -0.01706706
v 0.15571961 0.05310895 -0.01695867
v 0.15561885 0.05158905 -0.01704228
v 0.15568136 0.05083236 -0.01671092
v 0.15556754 0.04972994 -0.01629471
v 0.15161847 0.04353618 -0.01681064
v 0.15537723 0.04912655 -0.01600299
v 0.15557687 0.04742400 -0.01121099
v 0.15563098 0.04906784 -0.01509067
v 0.15562632 0.04947228 -0.01583391
v 0.15349924 0.07685660 -0.01672021
v 0.15328280 0.07685660 -0.01698035
v 0.15346753 0.07685660 -0.01678153
v 0.15428570 0.07485398 -0.01121099
v 0.15482494 0.07383310 -0.01623339
v 0.15308969 0.07685660 -0.01713580
v 0.15486412 0.07355587 -0.01667562
v 0.15575319 0.06856890 -0.01685895
v 0.15587914 0.06770131 -0.01678958
v 0.15590899 0.06722838 -0.01662359
v 0.15584368 0.05889501 -0.01682365
v 0.15583902 0.05283824 -0.01655980
v 0.15577745 0.05186628 -0.01669668
v 0.15571774 0.05026158 -0.01612563
v 0.15564031 0.04790345 -0.01121099
v 0.15573174 0.04939726 -0.01468561
v 0.15470925 0.07367655 -0.01121099
v 0.15495368 0.07286115 -0.01121099
v 0.15508988 0.07238822 -0.01121099
v 0.15517291 0.07244693 -0.01622101
v 0.15535950 0.07118143 -0.01656971
v 0.15581476 0.06860804 -0.01665146
v 0.15587354 0.06836994 -0.01643035
v 0.15587075 0.05923422 -0.01634240
v 0.15586608 0.05975281 -0.01665456
v 0.15574014 0.06767196 -0.01121099
v 0.15574666 0.06652714 -0.01121099
v 0.15574666 0.06641951 -0.01121099
v 0.15568509 0.04928637 -0.01121099
v 0.15577279 0.05080953 -0.01574472
v 0.15529046 0.07154673 -0.01121099
v 0.15536883 0.07121731 -0.01121099
v 0.15557781 0.07007575 -0.01513898
v 0.15561419 0.06954738 -0.01121099
v 0.15562911 0.06943974 -0.01121099
v 0.15569162 0.06850692 -0.01121099
f 1 2 3
f 1 3 4
f 1 4 5
f 1 5 6
f 1 6 7
f 1 7 15
f 1 15 25
f 1 25 37
f 1 37 36
f 1 36 53
f 1 53 72
f 1 72 98
f 1 98 73
f 1 73 54
f 1 54 38
f 1 38 27
f 1 27 16
f 1 16 8
f 1 8 17
f 1 17 28
f 1 28 41
f 1 41 34
f 1 34 32
f 1 32 22
f 1 22 21
f 1 21 12
f 1 12 9
f 1 9 2
f 2 10 11
f 2 11 3
f 2 9 12
f 2 12 13
f 2 13 10
f 3 11 4
f 4 11 6
f 4 6 5
f 6 14 15
f 6 15 7
f 6 11 10
f 6 10 14
f 8 16 17
f 10 18 19
f 10 19 14
f 10 13 20
f 10 20 18
f 12 21 13
f 13 21 22
f 13 22 23
f 13 23 33
f 13 33 41
f 13 41 28
f 13 28 40
f 13 40 56
f 13 56 76
f 13 76 103
f 13 103 105
f 13 105 104
f 13 104 108
f 13 108 81
f 13 81 60
f 13 60 45
f 13 45 30
f 13 30 20
f 14 24 25
f 14 25 15
f 14 19 26
f 14 26 24
f 16 27 39
f 16 39 55
f 16 55 74
f 16 74 100
f 16 100 117
f 16 117 131
f 16 131 130
f 16 130 129
f 16 129 128
f 16 128 138
f 16 138 137
f 16 137 136
f 16 136 134
f 16 134 133
f 16 133 121
f 16 121 120
f 16 120 119
f 16 119 106
f 16 106 78
f 16 78 57
f 16 57 40
f 16 40 28
f 16 28 17
f 18 29 19
f 18 20 30
f 18 30 31
f 18 31 29
f 19 29 26
f 22 32 23
f 23 32 34
f 23 34 33
f 24 35 36
f 24 36 37
f 24 37 25
f 24 26 35
f 26 29 35
f 27 38 39
f 29 31 42
f 29 42 43
f 29 43 44
f 29 44 35
f 30 45 46
f 30 46 31
f 31 46 47
f 31 47 48
f 31 48 49
f 31 49 50
f 31 50 42
f 33 34 41
f 35 44 51
f 35 51 36
f 36 51 52
f 36 52 53
f 38 54 39
f 39 54 55
f 40 57 58
f 40 58 56
f 42 50 43
f 43 50 44
f 44 50 59
f 44 59 51
f 45 60 61
f 45 61 46
f 46 61 62
f 46 62 63
f 46 63 64
f 46 64 47
f 47 64 48
f 48 64 63
f 48 63 65
f 48 65 66
f 48 66 67
f 48 67 49
f 49 67 50
f 50 67 59
f 51 59 68
f 51 68 69
f 51 69 52
f 52 69 70
f 52 70 71
f 52 71 72
f 52 72 53
f 54 73 55
f 55 73 75
f 55 75 74
f 56 58 77
f 56 77 76
f 57 78 58
f 58 79 77
f 58 78 80
f 58 80 79
f 59 67 68
f 60 81 82
f 60 82 61
f 61 82 83
f 61 83 62
f 62 83 84
f 62 84 85
f 62 85 86
f 62 86 87
f 62 87 88
f 62 88 63
f 63 88 65
f 65 88 89
f 65 89 90
f 65 90 66
f 66 90 89
f 66 89 91
f 66 91 92
f 66 92 93
f 66 93 94
f 66 94 95
f 66 95 68
f 66 68 67
f 68 95 69
f 69 95 70
f 70 95 96
f 70 96 71
f 71 96 97
f 71 97 98
f 71 98 72
f 73 98 99
f 73 99 75
f 74 75 101
f 74 101 100
f 75 99 102
f 75 102 101
f 76 77 103
f 77 79 84
f 77 84 83
f 77 83 104
f 77 104 105
f 77 105 103
f 78 106 80
f 79 107 84
f 79 80 107
f 80 106 107
f 81 108 83
f 81 83 82
f 83 108 104
f 84 107 109
f 84 109 85
f 85 109 110
f 85 110 86
f 86 110 89
f 86 89 88
f 86 88 87
f 89 111 91
f 89 110 111
f 91 111 112
f 91 112 113
f 91 113 92
f 92 113 114
f 92 114 94
f 92 94 93
f 94 114 115
f 94 115 95
f 95 115 96
f 96 116 97
f 96 115 116
f 97 116 102
f 97 102 99
f 97 99 98
f 100 101 118
f 100 118 117
f 101 102 118
f 102 116 118
f 106 119 107
f 107 119 120
f 107 120 121
f 107 121 122
f 107 122 109
f 109 122 123
f 109 123 110
f 110 124 111
f 110 123 124
f 111 124 125
f 111 125 112
f 112 126 114
f 112 114 127
f 112 127 113
f 112 125 128
f 112 128 129
f 112 129 130
f 112 130 131
f 112 131 126
f 113 127 114
f 114 131 118
f 114 118 132
f 114 132 115
f 114 126 131
f 115 132 116
f 116 132 118
f 117 118 131
f 121 133 122
f 122 134 135
f 122 135 125
f 122 125 124
f 122 124 123
f 122 133 134
f 125 135 134
f 125 134 136
f 125 136 137
f 125 137 138
f 125 138 128

