# https://github.com/mikedh/trimesh
v 0.15400927 0.06973457 0.00319474
v 0.15373002 0.06974496 0.00319474
v 0.15573654 0.06973457 0.00319474
v 0.15369052 0.06973457 0.00381548
v 0.15050490 0.07544592 0.00319474
v 0.15559174 0.07076535 0.00319474
v 0.15861469 0.07138042 0.01298837
v 0.15862598 0.07095431 0.01293416
v 0.15859683 0.06973457 0.01302361
v 0.15351752 0.06973457 0.00628490
v 0.14908980 0.07938575 0.00319474
v 0.15350341 0.06973457 0.00651531
v 0.15349777 0.06973457 0.00671725
v 0.15356359 0.06973457 0.00798042
v 0.15421519 0.06973457 0.01453210
v 0.15423964 0.06973457 0.01476115
v 0.15430358 0.06973457 0.01530734
v 0.15040711 0.07938575 0.01448466
v 0.15552499 0.07111966 0.00319474
v 0.15846895 0.07172527 0.01277829
v 0.15840690 0.07218445 0.01292196
v 0.15848682 0.07212020 0.01315101
v 0.15864290 0.07149663 0.01358878
v 0.15869462 0.07048097 0.01333669
v 0.15867958 0.06973457 0.01335160
v 0.15217105 0.07938575 0.00319474
v 0.15437974 0.06973457 0.01559468
v 0.15054345 0.07938575 0.01532903
v 0.15530872 0.07206635 0.00319474
v 0.15706608 0.07619420 0.01384494
v 0.15529932 0.07210225 0.00319474
v 0.15459882 0.07443214 0.00319474
v 0.15458753 0.07446804 0.00319474
v 0.15456967 0.07451717 0.00319474
v 0.15408919 0.07580683 0.00319474
v 0.15737731 0.07546954 0.01435997
v 0.15849904 0.07207769 0.01405773
v 0.15868051 0.07089952 0.01391271
v 0.15869556 0.06973457 0.01355897
v 0.15869085 0.06973457 0.01346003
v 0.15238732 0.07908814 0.00319474
v 0.15537265 0.07938575 0.01365790
v 0.15451419 0.06973457 0.01604871
v 0.15071176 0.07938575 0.01580204
v 0.15647559 0.07725994 0.01354677
v 0.15629882 0.07790335 0.01430033
v 0.15675485 0.07698784 0.01470151
v 0.15394910 0.07612145 0.00319474
v 0.15360120 0.07689997 0.00319474
v 0.15732747 0.07549410 0.01504305
v 0.15808721 0.07291951 0.01501459
v 0.15826961 0.07171488 0.01533852
v 0.15851785 0.07104124 0.01478012
v 0.15862128 0.06973457 0.01462697
v 0.15867487 0.06973457 0.01425561
v 0.15868427 0.06973457 0.01408212
v 0.15255656 0.07881415 0.00319474
v 0.15540086 0.07938575 0.01375413
v 0.15542907 0.07934135 0.01375955
v 0.15460164 0.06973457 0.01620864
v 0.15085374 0.07938575 0.01607311
v 0.15330596 0.07749425 0.00319474
v 0.15316491 0.07776730 0.00319474
v 0.15548173 0.07938575 0.01442367
v 0.15547609 0.07938575 0.01468796
v 0.15623771 0.07797610 0.01520434
v 0.15689683 0.07655134 0.01513522
v 0.15681691 0.07647859 0.01560958
v 0.15752493 0.07441419 0.01559061
v 0.15789163 0.07281936 0.01572885
v 0.15798566 0.07115650 0.01628318
v 0.15828937 0.06973457 0.01602838
v 0.15832603 0.06973457 0.01593215
v 0.15835706 0.06973457 0.01583050
v 0.15851785 0.06973457 0.01520434
v 0.15540933 0.07938575 0.01381106
v 0.15463643 0.06973457 0.01626150
v 0.15489688 0.06973457 0.01656780
v 0.15090169 0.07938575 0.01612597
v 0.15544412 0.07938575 0.01511082
v 0.15555225 0.07916372 0.01535207
v 0.15609855 0.07798366 0.01567464
v 0.15607221 0.07758590 0.01618560
v 0.15670314 0.07587958 0.01631436
v 0.15729080 0.07457858 0.01602161
v 0.15741773 0.07328987 0.01643092
v 0.15769041 0.07163835 0.01658271
v 0.15801950 0.07005675 0.01645667
v 0.15821226 0.06973457 0.01617069
v 0.15116967 0.07938575 0.01638348
v 0.15497680 0.06973457 0.01662879
v 0.15154107 0.07938575 0.01666810
v 0.15541215 0.07938575 0.01531277
v 0.15538488 0.07938575 0.01543068
v 0.15540181 0.07905696 0.01593351
v 0.15525889 0.07892563 0.01632384
v 0.15601110 0.07734686 0.01643363
v 0.15623676 0.07644457 0.01660304
v 0.15673040 0.07515302 0.01659762
v 0.15712062 0.07327475 0.01673586
v 0.15748355 0.07136814 0.01680634
v 0.15775247 0.06997928 0.01675891
v 0.15776752 0.06973457 0.01676162
v 0.15800823 0.06973457 0.01649326
v 0.15808908 0.06973457 0.01637264
v 0.15521657 0.06973457 0.01678601
v 0.15164168 0.07938575 0.01672909
v 0.15522222 0.07938575 0.01586303
v 0.15516204 0.07938575 0.01599314
v 0.15498715 0.07938575 0.01629809
v 0.15493449 0.07938575 0.01636586
v 0.15479909 0.07936591 0.01653934
v 0.15550336 0.07796665 0.01661524
v 0.15534727 0.07748953 0.01682125
v 0.15641918 0.07502359 0.01682803
v 0.15693820 0.07295447 0.01687682
v 0.15769418 0.06973457 0.01681041
v 0.15715728 0.07106486 0.01696221
v 0.15740646 0.06973457 0.01695543
v 0.15751834 0.06973457 0.01690935
v 0.15545917 0.06973457 0.01690664
v 0.15562371 0.06973457 0.01696763
v 0.15192565 0.07938575 0.01682938
v 0.15478687 0.07938575 0.01653799
v 0.15450761 0.07938575 0.01672638
v 0.15453300 0.07935552 0.01672367
v 0.15421331 0.07938575 0.01681447
v 0.15398482 0.07938575 0.01686327
v 0.15524009 0.07632175 0.01698660
v 0.15685922 0.07036475 0.01703133
v 0.15697864 0.06973457 0.01702862
v 0.15621890 0.06973457 0.01703539
v 0.15255562 0.07938575 0.01692968
v 0.15194445 0.07938575 0.01683345
v 0.15369805 0.07938575 0.01692019
v 0.15582210 0.07354780 0.01702455
v 0.15297968 0.07938575 0.01694594
v 0.15688085 0.06973457 0.01703810
v 0.15681033 0.06973457 0.01703810
v 0.15621795 0.06974496 0.01703539
v 0.15563687 0.07201344 0.01702184
v 0.15265435 0.07938575 0.01693510
f 1 2 5
f 1 5 11
f 1 11 26
f 1 26 41
f 1 41 57
f 1 57 63
f 1 63 62
f 1 62 49
f 1 49 48
f 1 48 35
f 1 35 34
f 1 34 33
f 1 33 32
f 1 32 31
f 1 31 29
f 1 29 19
f 1 19 6
f 1 6 3
f 1 3 9
f 1 9 25
f 1 25 40
f 1 40 39
f 1 39 56
f 1 56 55
f 1 55 54
f 1 54 75
f 1 75 74
f 1 74 73
f 1 73 72
f 1 72 89
f 1 89 105
f 1 105 104
f 1 104 103
f 1 103 117
f 1 117 120
f 1 120 119
f 1 119 131
f 1 131 138
f 1 138 139
f 1 139 132
f 1 132 122
f 1 122 121
f 1 121 106
f 1 106 91
f 1 91 78
f 1 78 77
f 1 77 60
f 1 60 43
f 1 43 27
f 1 27 17
f 1 17 16
f 1 16 15
f 1 15 14
f 1 14 13
f 1 13 12
f 1 12 10
f 1 10 4
f 1 4 2
f 2 4 5
f 3 6 7
f 3 7 8
f 3 8 9
f 4 10 5
f 5 10 12
f 5 12 13
f 5 13 14
f 5 14 15
f 5 15 16
f 5 16 17
f 5 17 18
f 5 18 11
f 6 19 7
f 7 20 21
f 7 21 22
f 7 22 23
f 7 23 24
f 7 24 8
f 7 19 20
f 8 24 25
f 8 25 9
f 11 18 28
f 11 28 44
f 11 44 61
f 11 61 79
f 11 79 90
f 11 90 92
f 11 92 107
f 11 107 123
f 11 123 134
f 11 134 133
f 11 133 142
f 11 142 137
f 11 137 135
f 11 135 128
f 11 128 127
f 11 127 125
f 11 125 124
f 11 124 111
f 11 111 110
f 11 110 109
f 11 109 108
f 11 108 94
f 11 94 93
f 11 93 80
f 11 80 65
f 11 65 64
f 11 64 76
f 11 76 58
f 11 58 42
f 11 42 26
f 17 27 28
f 17 28 18
f 19 29 20
f 20 29 21
f 21 30 22
f 21 29 31
f 21 31 32
f 21 32 33
f 21 33 34
f 21 34 35
f 21 35 30
f 22 30 36
f 22 36 37
f 22 37 23
f 23 37 38
f 23 38 24
f 24 38 39
f 24 39 40
f 24 40 25
f 26 42 41
f 27 43 28
f 28 43 44
f 30 45 46
f 30 46 47
f 30 47 36
f 30 35 48
f 30 48 49
f 30 49 45
f 36 47 50
f 36 50 37
f 37 50 51
f 37 51 52
f 37 52 53
f 37 53 38
f 38 53 54
f 38 54 55
f 38 55 56
f 38 56 39
f 41 42 57
f 42 58 59
f 42 59 57
f 43 60 61
f 43 61 44
f 45 59 46
f 45 49 62
f 45 62 63
f 45 63 59
f 46 59 64
f 46 64 65
f 46 65 66
f 46 66 47
f 47 66 67
f 47 67 50
f 50 67 68
f 50 68 69
f 50 69 51
f 51 69 70
f 51 70 52
f 52 70 71
f 52 71 72
f 52 72 73
f 52 73 74
f 52 74 53
f 53 74 75
f 53 75 54
f 57 59 63
f 58 76 59
f 59 76 64
f 60 77 61
f 61 77 78
f 61 78 79
f 65 80 81
f 65 81 66
f 66 81 82
f 66 82 68
f 66 68 67
f 68 82 83
f 68 83 84
f 68 84 85
f 68 85 69
f 69 85 70
f 70 85 86
f 70 86 71
f 71 86 87
f 71 87 88
f 71 88 89
f 71 89 72
f 78 90 79
f 78 91 92
f 78 92 90
f 80 93 81
f 81 93 94
f 81 94 95
f 81 95 82
f 82 95 83
f 83 96 97
f 83 97 84
f 83 95 96
f 84 97 98
f 84 98 99
f 84 99 86
f 84 86 85
f 86 99 100
f 86 100 87
f 87 100 101
f 87 101 102
f 87 102 88
f 88 102 103
f 88 103 104
f 88 104 105
f 88 105 89
f 91 106 92
f 92 106 107
f 94 108 95
f 95 108 109
f 95 109 110
f 95 110 96
f 96 110 111
f 96 111 112
f 96 112 113
f 96 113 97
f 97 113 98
f 98 113 114
f 98 114 115
f 98 115 99
f 99 115 100
f 100 115 116
f 100 116 101
f 101 117 102
f 101 116 118
f 101 118 119
f 101 119 120
f 101 120 117
f 102 117 103
f 106 121 107
f 107 121 122
f 107 122 123
f 111 124 112
f 112 124 125
f 112 125 126
f 112 126 113
f 113 126 114
f 114 126 125
f 114 125 127
f 114 127 128
f 114 128 129
f 114 129 115
f 115 129 116
f 116 129 118
f 118 129 130
f 118 130 131
f 118 131 119
f 122 132 133
f 122 133 134
f 122 134 123
f 128 135 129
f 129 136 130
f 129 135 137
f 129 137 136
f 130 136 138
f 130 138 131
f 132 139 140
f 132 140 141
f 132 141 142
f 132 142 133
f 136 137 141
f 136 141 140
f 136 140 139
f 136 139 138
f 137 142 141

