# https://github.com/mikedh/trimesh
v 0.15626610 0.00009077 0.00658989
v 0.15617642 0.00009077 0.00310212
v 0.15405700 0.00009077 0.00658989
v 0.15586551 -0.04020327 0.00658989
v 0.15604683 -0.02727021 0.00170932
v 0.15615678 0.00009077 0.00252715
v 0.15057940 0.00009077 0.00074113
v 0.15395489 -0.00143564 0.00658989
v 0.15382070 -0.04020327 0.00658989
v 0.15585308 -0.04020327 0.00245115
v 0.15588384 -0.03682308 0.00103357
v 0.15599446 -0.02720316 0.00110957
v 0.15612929 0.00009077 0.00198854
v 0.15027503 0.00009077 0.00019426
v 0.15031954 -0.00490260 0.00039748
v 0.15379321 -0.00565988 0.00658989
v 0.15382202 -0.00406642 0.00658989
v 0.15385147 -0.00306460 0.00658989
v 0.15043408 -0.03521385 0.00061226
v 0.15052638 -0.03756459 0.00033139
v 0.15059248 -0.03894112 0.00000921
v 0.15036209 -0.03919750 -0.00066488
v 0.15072928 -0.03983646 -0.00021053
v 0.15040070 -0.04015200 -0.00116384
v 0.15041313 -0.04020327 -0.00117541
v 0.15375984 -0.02748320 0.00658989
v 0.15050150 -0.03318652 0.00090801
v 0.15577781 -0.04020327 0.00092122
v 0.15571890 -0.04020327 0.00052800
v 0.15563642 -0.04020327 0.00015626
v 0.15583606 -0.03464982 0.00074444
v 0.15591984 -0.02632754 0.00074279
v 0.15598333 -0.00061130 0.00093444
v 0.15604486 0.00009077 0.00130784
v 0.15011729 0.00009077 -0.00023366
v 0.15048710 -0.01460141 0.00080061
v 0.15010615 -0.01531531 -0.00007835
v 0.15012907 -0.02265548 0.00004887
v 0.15033197 -0.02282903 0.00057757
v 0.15054601 -0.02244250 0.00097409
v 0.15378929 -0.00812502 0.00658989
v 0.15017750 -0.03601452 -0.00024853
v 0.15029336 -0.03304453 0.00046687
v 0.15012775 -0.03379787 -0.00002053
v 0.15035292 -0.03807734 -0.00025514
v 0.15015525 -0.03964319 -0.00164133
v 0.15013233 -0.03829033 -0.00110767
v 0.15037714 -0.04020327 -0.00129106
v 0.15040201 -0.04020327 -0.00120515
v 0.15178376 -0.04020327 -0.01028890
v 0.15179816 -0.03530851 -0.01028890
v 0.15181583 -0.02406357 -0.01028890
v 0.15175365 0.00009077 -0.01028890
v 0.15588122 -0.00041014 0.00067174
v 0.15601017 0.00009077 0.00115088
v 0.15181518 -0.02310118 -0.01028890
v 0.15009176 0.00009077 -0.00030636
v 0.15006884 0.00009077 -0.00038566
v 0.15001779 -0.00367200 -0.00055418
v 0.15003481 -0.02583057 -0.00026340
v 0.14998179 -0.03438951 -0.00070453
v 0.14993205 -0.03983646 -0.00325882
v 0.14995037 -0.04020327 -0.00343561
v 0.15004135 -0.04020327 -0.00284247
v 0.15017423 -0.04020327 -0.00203124
v 0.14996019 -0.03764742 -0.00204446
v 0.14958448 -0.04020327 -0.01028890
v 0.14973569 0.00009077 -0.01028890
v 0.15592311 0.00009077 0.00089479
v 0.14992681 0.00009077 -0.00109280
v 0.14997001 -0.01585172 -0.00065992
v 0.14999750 -0.02130656 -0.00046331
v 0.14994055 -0.02469858 -0.00074088
v 0.14985088 -0.03450389 -0.00186602
v 0.14988165 -0.03834555 -0.00332821
v 0.14958318 -0.04017960 -0.01028890
v 0.14970295 -0.00522997 -0.00650538
v 0.14975336 0.00009077 -0.00637486
v 0.14961394 -0.01527587 -0.01028890
v 0.14992091 0.00009077 -0.00114567
v 0.14992550 -0.00014588 -0.00109941
v 0.14990194 -0.02118429 -0.00109776
v 0.14983649 -0.02290002 -0.00184620
v 0.14977233 -0.02539671 -0.00276482
v 0.14957925 -0.02552687 -0.01028890
v 0.14977430 0.00009077 -0.00378752
v 0.14981488 0.00009077 -0.00252855
v 0.14980310 -0.00229942 -0.00256821
v 0.14986921 -0.01467635 -0.00143976
f 1 2 6
f 1 6 13
f 1 13 34
f 1 34 55
f 1 55 69
f 1 69 53
f 1 53 68
f 1 68 78
f 1 78 86
f 1 86 87
f 1 87 80
f 1 80 70
f 1 70 58
f 1 58 57
f 1 57 35
f 1 35 14
f 1 14 7
f 1 7 3
f 1 3 8
f 1 8 18
f 1 18 17
f 1 17 16
f 1 16 41
f 1 41 26
f 1 26 9
f 1 9 4
f 1 4 5
f 1 5 2
f 2 5 6
f 3 7 8
f 4 9 25
f 4 25 49
f 4 49 48
f 4 48 65
f 4 65 64
f 4 64 63
f 4 63 67
f 4 67 50
f 4 50 30
f 4 30 29
f 4 29 28
f 4 28 10
f 4 10 5
f 5 10 11
f 5 11 12
f 5 12 13
f 5 13 6
f 7 14 15
f 7 15 16
f 7 16 17
f 7 17 18
f 7 18 8
f 9 19 20
f 9 20 21
f 9 21 22
f 9 22 23
f 9 23 24
f 9 24 25
f 9 26 27
f 9 27 19
f 10 28 11
f 11 28 29
f 11 29 30
f 11 30 31
f 11 31 32
f 11 32 12
f 12 32 33
f 12 33 34
f 12 34 13
f 14 35 15
f 15 36 16
f 15 35 37
f 15 37 38
f 15 38 39
f 15 39 36
f 16 36 40
f 16 40 41
f 19 42 20
f 19 27 43
f 19 43 44
f 19 44 42
f 20 42 45
f 20 45 21
f 21 45 22
f 22 46 24
f 22 24 23
f 22 45 47
f 22 47 46
f 24 48 49
f 24 49 25
f 24 46 48
f 26 40 27
f 26 41 40
f 27 40 39
f 27 39 43
f 30 50 32
f 30 32 31
f 32 50 51
f 32 51 52
f 32 52 33
f 33 53 54
f 33 54 55
f 33 55 34
f 33 52 56
f 33 56 53
f 35 57 37
f 36 39 40
f 37 57 58
f 37 58 59
f 37 59 60
f 37 60 38
f 38 60 44
f 38 44 43
f 38 43 39
f 42 47 45
f 42 44 61
f 42 61 47
f 44 60 61
f 46 47 62
f 46 62 63
f 46 63 64
f 46 64 65
f 46 65 48
f 47 61 66
f 47 66 62
f 50 67 76
f 50 76 85
f 50 85 79
f 50 79 68
f 50 68 53
f 50 53 56
f 50 56 52
f 50 52 51
f 53 69 54
f 54 69 55
f 58 70 59
f 59 70 71
f 59 71 72
f 59 72 60
f 60 72 73
f 60 73 61
f 61 73 74
f 61 74 66
f 62 66 74
f 62 74 75
f 62 75 76
f 62 76 67
f 62 67 63
f 68 77 78
f 68 79 77
f 70 80 81
f 70 81 73
f 70 73 71
f 71 73 72
f 73 81 82
f 73 82 74
f 74 82 83
f 74 83 84
f 74 84 76
f 74 76 75
f 76 84 85
f 77 86 78
f 77 79 85
f 77 85 86
f 80 87 88
f 80 88 89
f 80 89 81
f 81 89 82
f 82 89 83
f 83 89 84
f 84 89 88
f 84 88 86
f 84 86 85
f 86 88 87

