# https://github.com/mikedh/trimesh
v -0.13529248 0.08636361 -0.00934840
v -0.13529248 0.08652791 0.00641020
v -0.13529248 0.08867994 -0.00934840
v -0.11376926 0.08652169 -0.00934840
v -0.11208585 0.08645855 -0.00162537
v -0.11208585 0.08645783 -0.00145027
v -0.11208585 0.08645975 -0.00047501
v -0.11281056 0.08647243 0.00595081
v -0.11685666 0.08649992 0.00887660
v -0.13529248 0.08653557 0.00677922
v -0.13529248 0.08871079 0.00143598
v -0.13516526 0.08869501 -0.00934840
v -0.11344439 0.08652504 -0.00934840
v -0.11208585 0.08645975 -0.00167997
v -0.11208585 0.08648246 0.00621440
v -0.11208585 0.08653604 0.00747772
v -0.11208585 0.08654489 0.00767164
v -0.11668173 0.08655972 0.00988576
v -0.11737010 0.08654991 0.00988576
v -0.11981457 0.08654537 0.00982551
v -0.13529248 0.08656737 0.00816681
v -0.13501986 0.08871198 -0.00934840
v -0.13529248 0.08861417 0.00988576
v -0.13466546 0.08876221 0.00139456
v -0.13478133 0.08873997 -0.00862919
v -0.11323538 0.08654489 -0.00934840
v -0.11208585 0.08674125 -0.00934840
v -0.11208585 0.08670346 0.00988576
v -0.11980776 0.08654847 0.00988576
v -0.13529248 0.08664367 0.00988576
v -0.13529248 0.08661210 0.00921926
v -0.13529248 0.08659464 0.00881071
v -0.13466319 0.08873303 -0.00934840
v -0.13476087 0.08862948 0.00988576
v -0.13301385 0.08880670 -0.00820369
v -0.11788807 0.08865937 0.00988576
v -0.11208585 0.08861202 -0.00934840
v -0.11208585 0.08856059 0.00988576
v -0.13331827 0.08877871 -0.00934840
v -0.11208585 0.08869907 -0.00518753
v -0.11208585 0.08870457 -0.00704957
v -0.11269469 0.08870529 -0.00784973
v -0.11208585 0.08862852 0.00551778
v -0.11208585 0.08866392 -0.00857836
f 1 2 10
f 1 10 21
f 1 21 32
f 1 32 31
f 1 31 30
f 1 30 23
f 1 23 11
f 1 11 3
f 1 3 12
f 1 12 22
f 1 22 33
f 1 33 39
f 1 39 37
f 1 37 27
f 1 27 26
f 1 26 13
f 1 13 4
f 1 4 5
f 1 5 6
f 1 6 7
f 1 7 8
f 1 8 9
f 1 9 2
f 2 9 10
f 3 11 12
f 4 13 5
f 5 13 14
f 5 14 27
f 5 27 37
f 5 37 44
f 5 44 41
f 5 41 40
f 5 40 43
f 5 43 38
f 5 38 28
f 5 28 17
f 5 17 16
f 5 16 15
f 5 15 7
f 5 7 6
f 7 15 8
f 8 15 9
f 9 15 16
f 9 16 17
f 9 17 18
f 9 18 19
f 9 19 20
f 9 20 21
f 9 21 10
f 11 22 12
f 11 23 24
f 11 24 25
f 11 25 22
f 13 26 14
f 14 26 27
f 17 28 18
f 18 28 38
f 18 38 36
f 18 36 34
f 18 34 23
f 18 23 30
f 18 30 29
f 18 29 19
f 19 29 20
f 20 29 30
f 20 30 31
f 20 31 32
f 20 32 21
f 22 25 33
f 23 34 24
f 24 35 25
f 24 34 36
f 24 36 35
f 25 35 33
f 33 35 39
f 35 36 40
f 35 40 41
f 35 41 42
f 35 42 39
f 36 38 43
f 36 43 40
f 37 39 44
f 39 42 44
f 41 44 42

