# https://github.com/mikedh/trimesh
v -0.15212233 0.05529095 -0.01153379
v -0.15212233 0.05620156 -0.01148905
v -0.15212233 0.06309540 -0.01153379
v -0.15150417 0.05271619 -0.01153379
v -0.15212233 0.06309540 -0.01144203
v -0.15036825 0.05508334 -0.01149061
v -0.14869548 0.06309540 -0.01153379
v -0.14832707 0.05187368 -0.01153379
v -0.14976087 0.05469559 -0.01149119
v -0.14364564 0.05929149 -0.01153379
v -0.14580298 0.05575229 -0.01153379
f 1 2 5
f 1 5 3
f 1 3 7
f 1 7 10
f 1 10 11
f 1 11 8
f 1 8 4
f 1 4 2
f 2 4 6
f 2 6 5
f 3 5 7
f 4 8 9
f 4 9 6
f 5 10 7
f 5 6 9
f 5 9 10
f 8 11 9
f 9 11 10

