# https://github.com/mikedh/trimesh
v -0.13529608 0.08861377 0.00988415
v -0.13583881 0.08859990 0.00988415
v -0.13529608 0.08664306 0.00988415
v -0.13529608 0.08871083 0.00143832
v -0.13592747 0.08859354 0.00988415
v -0.14605249 0.08280852 0.00988415
v -0.14047211 0.08280852 0.00258455
v -0.14031494 0.08280852 0.00231646
v -0.14027598 0.08280852 0.00220729
v -0.14020209 0.08280852 0.00195685
v -0.14017254 0.08280852 0.00168555
v -0.14013761 0.08280852 0.00131952
v -0.13529608 0.08661186 0.00921953
v -0.13529608 0.08866577 -0.00651306
v -0.13616525 0.08863918 0.00149611
v -0.13699277 0.08847858 0.00988415
v -0.14890044 0.08280852 0.00988415
v -0.14006910 0.08280852 -0.00456736
v -0.13529608 0.08640849 -0.00514208
v -0.13529608 0.08652751 0.00641014
v -0.13529608 0.08653502 0.00677937
v -0.13529608 0.08656680 0.00816801
v -0.13529608 0.08643103 -0.00651306
v -0.13532161 0.08866345 -0.00651306
v -0.13647154 0.08853808 -0.00651306
v -0.13674693 0.08849302 -0.00651306
v -0.13914485 0.08810304 0.00570538
v -0.13700754 0.08849706 0.00495728
v -0.13839391 0.08825151 0.00988415
v -0.14724809 0.08422979 0.00988415
v -0.14828921 0.08349720 0.00646151
v -0.14901866 0.08280852 0.00691422
v -0.14008790 0.08280852 -0.00651306
v -0.13811314 0.08823476 -0.00651306
v -0.14046270 0.08775350 0.00599114
v -0.13998313 0.08784998 0.00988415
v -0.13813329 0.08823072 -0.00651306
v -0.13845570 0.08815330 -0.00651306
v -0.13973191 0.08781762 -0.00651306
v -0.14550171 0.08539338 0.00988415
v -0.14664761 0.08475265 0.00652733
v -0.14769141 0.08367746 -0.00651306
v -0.14863714 0.08280852 -0.00651306
v -0.14164488 0.08736062 0.00597348
v -0.14064003 0.08763737 0.00988415
v -0.13975475 0.08781127 -0.00651306
v -0.14009596 0.08771132 -0.00651306
v -0.14014970 0.08769514 -0.00651306
v -0.14482062 0.08577816 0.00988415
v -0.14536602 0.08558577 0.00577762
v -0.14624997 0.08472262 -0.00651306
v -0.14668388 0.08443200 -0.00651306
v -0.14327842 0.08667946 0.00590766
v -0.14243479 0.08694003 0.00988415
v -0.14155219 0.08729418 0.00988415
v -0.14180340 0.08709197 -0.00651306
v -0.14417580 0.08613464 0.00988415
v -0.14442566 0.08607570 0.00429908
v -0.14466747 0.08568688 -0.00651306
v -0.14543453 0.08525068 -0.00651306
v -0.14268331 0.08671354 -0.00651306
v -0.14330663 0.08642872 -0.00651306
f 1 2 5
f 1 5 16
f 1 16 29
f 1 29 36
f 1 36 45
f 1 45 55
f 1 55 54
f 1 54 57
f 1 57 49
f 1 49 40
f 1 40 30
f 1 30 17
f 1 17 6
f 1 6 3
f 1 3 13
f 1 13 22
f 1 22 21
f 1 21 20
f 1 20 19
f 1 19 23
f 1 23 14
f 1 14 4
f 1 4 2
f 2 4 5
f 3 6 7
f 3 7 8
f 3 8 9
f 3 9 10
f 3 10 11
f 3 11 12
f 3 12 13
f 4 14 15
f 4 15 5
f 5 15 16
f 6 17 32
f 6 32 43
f 6 43 33
f 6 33 18
f 6 18 12
f 6 12 11
f 6 11 10
f 6 10 9
f 6 9 8
f 6 8 7
f 12 18 19
f 12 19 20
f 12 20 21
f 12 21 22
f 12 22 13
f 14 23 33
f 14 33 43
f 14 43 42
f 14 42 52
f 14 52 51
f 14 51 60
f 14 60 59
f 14 59 62
f 14 62 61
f 14 61 56
f 14 56 48
f 14 48 47
f 14 47 46
f 14 46 39
f 14 39 38
f 14 38 37
f 14 37 34
f 14 34 26
f 14 26 25
f 14 25 24
f 14 24 15
f 15 24 25
f 15 25 26
f 15 26 27
f 15 27 28
f 15 28 16
f 16 28 29
f 17 30 31
f 17 31 32
f 18 33 19
f 19 33 23
f 26 34 27
f 27 35 36
f 27 36 29
f 27 29 28
f 27 34 37
f 27 37 38
f 27 38 39
f 27 39 35
f 30 40 41
f 30 41 31
f 31 41 42
f 31 42 43
f 31 43 32
f 35 44 45
f 35 45 36
f 35 39 46
f 35 46 47
f 35 47 48
f 35 48 44
f 40 49 50
f 40 50 41
f 41 50 51
f 41 51 52
f 41 52 42
f 44 53 54
f 44 54 55
f 44 55 45
f 44 48 56
f 44 56 53
f 49 57 50
f 50 57 53
f 50 53 58
f 50 58 59
f 50 59 60
f 50 60 51
f 53 56 61
f 53 61 62
f 53 62 58
f 53 57 54
f 58 62 59

