# https://github.com/mikedh/trimesh
v 0.09404207 -0.08107590 -0.01451783
v 0.10383537 -0.08107590 -0.01679531
v 0.09404207 -0.08107590 -0.01110196
v 0.09404207 -0.08027224 -0.01453681
v 0.10384210 -0.07198992 -0.01746819
v 0.10430180 -0.07298212 -0.01754950
v 0.10422940 -0.08107590 -0.01685088
v 0.09631023 -0.08107590 -0.01073808
v 0.09634896 -0.07938859 -0.01073808
v 0.09636748 -0.07896009 -0.01073808
v 0.09404207 -0.07409240 -0.01119615
v 0.09404207 -0.08015417 -0.01453952
v 0.10434726 -0.07054065 -0.01756034
v 0.10463520 -0.07213846 -0.01765860
v 0.09404207 -0.07369628 -0.01463371
v 0.09404207 -0.06554155 -0.01473806
v 0.09404207 -0.06162226 -0.01478617
v 0.10447524 -0.08107590 -0.01687595
v 0.11124265 -0.08107590 -0.01073808
v 0.09646515 -0.07833544 -0.01073808
v 0.09404207 -0.06162226 -0.01143128
v 0.10505448 -0.07062064 -0.01764233
v 0.10427823 -0.06848960 -0.01741669
v 0.10468740 -0.06875240 -0.01751020
v 0.10555459 -0.07182233 -0.01766063
v 0.10510163 -0.07303164 -0.01761862
v 0.11124265 -0.06162226 -0.01464387
v 0.10490967 -0.06761166 -0.01724593
v 0.10494503 -0.06803253 -0.01740652
v 0.10484568 -0.08107590 -0.01688950
v 0.11124265 -0.08107590 -0.01348108
v 0.11124265 -0.07600824 -0.01073808
v 0.09659985 -0.07771651 -0.01073808
v 0.10423950 -0.06162226 -0.01127407
v 0.09679686 -0.07727849 -0.01073808
v 0.09709658 -0.07678144 -0.01073808
v 0.09711511 -0.07676430 -0.01073808
v 0.09747714 -0.07644626 -0.01073808
v 0.09750408 -0.07642912 -0.01073808
v 0.09796882 -0.07618154 -0.01073808
v 0.09809680 -0.07613393 -0.01073808
v 0.10518583 -0.06862290 -0.01750478
v 0.10556132 -0.06993695 -0.01758270
v 0.10612373 -0.07246983 -0.01753595
v 0.10581053 -0.07334586 -0.01750884
v 0.10617256 -0.06999980 -0.01747632
v 0.10551081 -0.07712994 -0.01721679
v 0.11124265 -0.07505603 -0.01445617
v 0.10708857 -0.07248316 -0.01712125
v 0.10722497 -0.07007788 -0.01701960
v 0.10671981 -0.06906092 -0.01722018
v 0.10634263 -0.06794303 -0.01717884
v 0.10573813 -0.06833724 -0.01740043
v 0.10550238 -0.06770688 -0.01727845
v 0.11124265 -0.06162226 -0.01123545
v 0.10561857 -0.08107590 -0.01684071
v 0.10835988 -0.08107590 -0.01576262
v 0.11124265 -0.07783458 -0.01416480
v 0.11019529 -0.07590541 -0.01073808
v 0.09850092 -0.07599301 -0.01073808
v 0.09891010 -0.07592064 -0.01073808
v 0.09912563 -0.07588826 -0.01073808
v 0.10590146 -0.06908949 -0.01747293
v 0.10659858 -0.07107389 -0.01737129
v 0.10670971 -0.07288880 -0.01728184
v 0.10692525 -0.08107590 -0.01661845
v 0.10667940 -0.08107590 -0.01667469
v 0.10633421 -0.08107590 -0.01675330
v 0.11124265 -0.07602538 -0.01441551
v 0.10784294 -0.08107590 -0.01617055
v 0.10745903 -0.08107590 -0.01639484
v 0.09975034 -0.07584066 -0.01073808
v 0.09995241 -0.07583494 -0.01073808
v 0.11124265 -0.07699473 -0.01433284
v 0.10742535 -0.08107590 -0.01640907
f 1 2 7
f 1 7 18
f 1 18 30
f 1 30 56
f 1 56 68
f 1 68 67
f 1 67 66
f 1 66 75
f 1 75 71
f 1 71 70
f 1 70 57
f 1 57 31
f 1 31 19
f 1 19 8
f 1 8 3
f 1 3 11
f 1 11 21
f 1 21 17
f 1 17 16
f 1 16 15
f 1 15 12
f 1 12 4
f 1 4 5
f 1 5 6
f 1 6 2
f 2 6 7
f 3 8 9
f 3 9 10
f 3 10 11
f 4 12 5
f 5 13 14
f 5 14 6
f 5 12 15
f 5 15 16
f 5 16 17
f 5 17 13
f 6 14 7
f 7 14 18
f 8 19 32
f 8 32 59
f 8 59 73
f 8 73 72
f 8 72 62
f 8 62 61
f 8 61 60
f 8 60 41
f 8 41 40
f 8 40 39
f 8 39 38
f 8 38 37
f 8 37 36
f 8 36 35
f 8 35 33
f 8 33 20
f 8 20 10
f 8 10 9
f 10 20 21
f 10 21 11
f 13 22 14
f 13 17 23
f 13 23 24
f 13 24 22
f 14 25 26
f 14 26 18
f 14 22 25
f 17 21 34
f 17 34 55
f 17 55 27
f 17 27 28
f 17 28 29
f 17 29 23
f 18 26 30
f 19 31 58
f 19 58 74
f 19 74 69
f 19 69 48
f 19 48 27
f 19 27 55
f 19 55 32
f 20 33 21
f 21 33 35
f 21 35 36
f 21 36 37
f 21 37 38
f 21 38 39
f 21 39 40
f 21 40 41
f 21 41 34
f 22 24 42
f 22 42 43
f 22 43 25
f 23 29 24
f 24 29 42
f 25 44 45
f 25 45 26
f 25 43 46
f 25 46 44
f 26 45 47
f 26 47 30
f 27 48 49
f 27 49 50
f 27 50 51
f 27 51 52
f 27 52 53
f 27 53 54
f 27 54 28
f 28 54 29
f 29 54 53
f 29 53 42
f 30 47 56
f 31 57 58
f 32 55 59
f 34 41 60
f 34 60 61
f 34 61 62
f 34 62 55
f 42 53 63
f 42 63 43
f 43 63 46
f 44 46 64
f 44 64 65
f 44 65 66
f 44 66 67
f 44 67 68
f 44 68 45
f 45 68 47
f 46 63 51
f 46 51 64
f 47 68 56
f 48 69 49
f 49 65 64
f 49 64 50
f 49 69 70
f 49 70 71
f 49 71 65
f 50 64 51
f 51 63 52
f 52 63 53
f 55 62 72
f 55 72 73
f 55 73 59
f 57 70 58
f 58 70 74
f 65 71 75
f 65 75 66
f 69 74 70

