# https://github.com/mikedh/trimesh
v -0.14091643 0.07040649 -0.01153379
v -0.14027817 0.06988121 -0.01153379
v -0.15212311 0.06988121 -0.01153379
v -0.15212311 0.06988121 -0.01118773
v -0.14007498 0.06971303 -0.01153379
v -0.15212311 0.06699785 -0.01153379
v -0.15212311 0.06699785 -0.01139951
v -0.15212190 0.06309540 -0.01144199
v -0.13991362 0.06461688 -0.01153375
v -0.13998773 0.06699785 -0.01153375
v -0.13998892 0.06699785 -0.01153379
v -0.15212190 0.06309540 -0.01153372
v -0.14869632 0.06309540 -0.01153372
f 1 2 5
f 1 5 11
f 1 11 6
f 1 6 3
f 1 3 4
f 1 4 2
f 2 4 5
f 3 6 7
f 3 7 4
f 4 7 8
f 4 8 9
f 4 9 10
f 4 10 5
f 5 10 11
f 6 12 8
f 6 8 7
f 6 11 9
f 6 9 12
f 8 13 9
f 8 12 13
f 9 11 10
f 9 13 12

