# https://github.com/mikedh/trimesh
v -0.14091441 0.07861948 -0.01125496
v -0.14091441 0.06988178 -0.01152985
v -0.14091441 0.07861948 -0.01153379
v -0.14172395 0.07861948 -0.00992461
v -0.14225651 0.06988178 -0.01153379
v -0.14091441 0.07040693 -0.01153379
v -0.14182818 0.07839967 -0.00992461
v -0.14232933 0.07751102 -0.00992461
v -0.14272625 0.07691830 -0.00992461
v -0.14350867 0.07593984 -0.00992461
v -0.14401267 0.07537192 -0.00992461
v -0.14471229 0.07470308 -0.00992461
v -0.14507637 0.07439945 -0.00992461
v -0.14570887 0.07387857 -0.00992461
v -0.14654555 0.07333119 -0.00992461
v -0.14794048 0.07253319 -0.00992461
v -0.14808897 0.07245194 -0.00992461
v -0.15322610 0.06988178 -0.00992461
v -0.15214385 0.07861948 -0.01153379
v -0.15216241 0.07861948 -0.00992461
v -0.15548770 0.06988178 -0.01153379
v -0.15550055 0.06988178 -0.00992461
v -0.15233945 0.07831414 -0.01153379
v -0.15248081 0.07812427 -0.00992461
v -0.15215241 0.07861948 -0.01079213
v -0.15549198 0.06988178 -0.01104198
v -0.15545058 0.07013152 -0.01153379
v -0.15540632 0.07050785 -0.00992461
v -0.15306762 0.07706969 -0.01153379
v -0.15290485 0.07739897 -0.00992461
v -0.15514788 0.07159921 -0.01153379
v -0.15516787 0.07158895 -0.00992461
v -0.15385861 0.07548140 -0.01153379
v -0.15392143 0.07537192 -0.00992461
v -0.15379150 0.07563108 -0.00992461
v -0.15510076 0.07183271 -0.01046967
v -0.15470242 0.07310881 -0.01153379
v -0.15506793 0.07196442 -0.00992461
v -0.15442258 0.07398207 -0.01153379
v -0.15418985 0.07465690 -0.00992461
v -0.15453109 0.07367673 -0.01153379
v -0.15462246 0.07344066 -0.00992461
v -0.15454680 0.07365534 -0.00992461
f 1 2 6
f 1 6 3
f 1 3 19
f 1 19 25
f 1 25 20
f 1 20 4
f 1 4 2
f 2 5 6
f 2 4 7
f 2 7 8
f 2 8 9
f 2 9 10
f 2 10 11
f 2 11 12
f 2 12 13
f 2 13 14
f 2 14 15
f 2 15 16
f 2 16 17
f 2 17 18
f 2 18 22
f 2 22 26
f 2 26 21
f 2 21 5
f 3 6 5
f 3 5 21
f 3 21 27
f 3 27 31
f 3 31 37
f 3 37 41
f 3 41 39
f 3 39 33
f 3 33 29
f 3 29 23
f 3 23 19
f 4 20 24
f 4 24 30
f 4 30 35
f 4 35 34
f 4 34 40
f 4 40 43
f 4 43 42
f 4 42 38
f 4 38 32
f 4 32 28
f 4 28 22
f 4 22 18
f 4 18 17
f 4 17 16
f 4 16 15
f 4 15 14
f 4 14 13
f 4 13 12
f 4 12 11
f 4 11 10
f 4 10 9
f 4 9 8
f 4 8 7
f 19 23 24
f 19 24 25
f 20 25 24
f 21 26 27
f 22 28 26
f 23 29 24
f 24 29 30
f 26 28 27
f 27 28 31
f 28 32 31
f 29 33 34
f 29 34 35
f 29 35 30
f 31 32 36
f 31 36 37
f 32 38 36
f 33 39 34
f 34 39 40
f 36 38 37
f 37 38 41
f 38 42 41
f 39 41 43
f 39 43 40
f 41 42 43

