# https://github.com/mikedh/trimesh
v 0.15593034 -0.05031239 0.00658989
v 0.15600220 -0.05672550 0.00349038
v 0.15593034 -0.05031239 0.00590093
v 0.15385236 -0.05031239 0.00658989
v 0.15604754 -0.06388308 0.00658989
v 0.15605407 -0.06390090 0.00583980
v 0.15597338 -0.05632357 -0.00709025
v 0.15607982 -0.06661346 0.00326403
v 0.15591998 -0.05031239 0.00334499
v 0.15359030 -0.05031239 -0.01028394
v 0.15215438 -0.07053775 -0.01028890
v 0.15309232 -0.07053775 0.00237680
v 0.15351153 -0.07053775 0.00658989
v 0.15599452 -0.06723913 0.00658989
v 0.15585504 -0.05354964 -0.01028890
v 0.15583736 -0.05210624 -0.01028890
v 0.15581431 -0.05031239 -0.01028890
v 0.15583967 -0.05031239 -0.00895888
v 0.15585580 -0.05031239 -0.00810635
v 0.15587539 -0.05031239 -0.00476066
v 0.15603448 -0.06647486 -0.00563798
v 0.15600604 -0.06615212 -0.00819722
v 0.15602871 -0.06782124 0.00335325
v 0.15494091 -0.05031239 -0.01028890
v 0.15359530 -0.05037575 -0.01028890
v 0.15559298 -0.07053775 -0.01028890
v 0.15565407 -0.07053775 0.00658989
v 0.15591728 -0.06861520 0.00658989
v 0.15594187 -0.06636992 -0.01028890
v 0.15597069 -0.06797171 -0.00403040
v 0.15592573 -0.06812219 -0.00912576
v 0.15590037 -0.06810041 -0.01028890
v 0.15592919 -0.06713023 -0.01028890
v 0.15580009 -0.06971012 0.00658989
v 0.15584081 -0.06942897 0.00458248
v 0.15583736 -0.06925077 -0.00824514
v 0.15562795 -0.07053775 -0.00808983
v 0.15562833 -0.07035559 -0.01028890
v 0.15563371 -0.07053775 -0.00688208
v 0.15570172 -0.07019323 -0.00763548
v 0.15585580 -0.06859342 -0.01028890
v 0.15578242 -0.06936363 -0.01028890
f 1 2 3
f 1 3 9
f 1 9 20
f 1 20 19
f 1 19 18
f 1 18 17
f 1 17 24
f 1 24 10
f 1 10 4
f 1 4 13
f 1 13 27
f 1 27 34
f 1 34 28
f 1 28 14
f 1 14 5
f 1 5 6
f 1 6 2
f 2 7 3
f 2 6 8
f 2 8 7
f 3 7 9
f 4 10 11
f 4 11 12
f 4 12 13
f 5 14 8
f 5 8 6
f 7 15 16
f 7 16 17
f 7 17 18
f 7 18 19
f 7 19 20
f 7 20 9
f 7 8 21
f 7 21 22
f 7 22 15
f 8 14 23
f 8 23 21
f 10 24 25
f 10 25 11
f 11 26 37
f 11 37 39
f 11 39 27
f 11 27 13
f 11 13 12
f 11 25 24
f 11 24 17
f 11 17 16
f 11 16 15
f 11 15 29
f 11 29 33
f 11 33 32
f 11 32 41
f 11 41 42
f 11 42 38
f 11 38 26
f 14 28 23
f 15 22 29
f 21 23 30
f 21 30 31
f 21 31 22
f 22 31 32
f 22 32 33
f 22 33 29
f 23 28 34
f 23 34 35
f 23 35 36
f 23 36 30
f 26 38 37
f 27 39 40
f 27 40 34
f 30 36 31
f 31 41 32
f 31 36 41
f 34 40 35
f 35 40 36
f 36 42 41
f 36 40 38
f 36 38 42
f 37 38 40
f 37 40 39

