# https://github.com/mikedh/trimesh
v 0.11173266 -0.08107780 -0.01073876
v 0.11173266 -0.08751554 -0.01073876
v 0.11173266 -0.08107780 -0.01356926
v 0.09920315 -0.08107780 -0.01073876
v 0.11173266 -0.08765198 -0.01153086
v 0.10725363 -0.08944527 -0.01073876
v 0.10725118 -0.08944901 -0.01074283
v 0.10667964 -0.09006671 -0.01153222
v 0.10747562 -0.08984057 -0.01186470
v 0.10697768 -0.09015922 -0.01217542
v 0.10807168 -0.08967796 -0.01243583
v 0.11173266 -0.08268794 -0.01377935
v 0.10884680 -0.08339535 -0.01618626
v 0.10840895 -0.08273374 -0.01639227
v 0.10800177 -0.08240666 -0.01655953
v 0.10784233 -0.08107780 -0.01617062
v 0.09920315 -0.08107780 -0.01352914
v 0.09920315 -0.08734453 -0.01073876
v 0.11173266 -0.08771459 -0.01201700
v 0.10624180 -0.08983028 -0.01073876
v 0.10620256 -0.08987888 -0.01080131
v 0.10544215 -0.09027978 -0.01121198
v 0.10607746 -0.09037883 -0.01187286
v 0.10603944 -0.09047135 -0.01224749
v 0.10704636 -0.09019847 -0.01259425
v 0.10780432 -0.08987047 -0.01286078
v 0.11173266 -0.08357104 -0.01388202
v 0.10827528 -0.08365888 -0.01666764
v 0.11173266 -0.08407193 -0.01393505
v 0.10783007 -0.08310940 -0.01686550
v 0.10743760 -0.08240386 -0.01686006
v 0.10745967 -0.08107780 -0.01639431
v 0.10144512 -0.08351404 -0.01613323
v 0.10081962 -0.08499240 -0.01578443
v 0.09920315 -0.08577364 -0.01412407
v 0.10236741 -0.08107780 -0.01608563
v 0.10237600 -0.08273840 -0.01671048
v 0.10193080 -0.08331499 -0.01652010
v 0.09920315 -0.08738845 -0.01239708
v 0.10081471 -0.08893597 -0.01285466
v 0.10134577 -0.08942752 -0.01269828
v 0.10113850 -0.08917240 -0.01205780
v 0.10180692 -0.08967422 -0.01182187
v 0.10202400 -0.08956675 -0.01112087
v 0.10229014 -0.08950975 -0.01073876
v 0.11173266 -0.08776037 -0.01265137
v 0.10619397 -0.08984431 -0.01073876
v 0.10591188 -0.08990972 -0.01073876
v 0.10517846 -0.09007606 -0.01073876
v 0.10448061 -0.09029567 -0.01103792
v 0.10505827 -0.09048350 -0.01156486
v 0.10515639 -0.09058816 -0.01200476
v 0.10602595 -0.09049845 -0.01265205
v 0.10512818 -0.09062367 -0.01241407
v 0.10777978 -0.08988915 -0.01333332
v 0.10687220 -0.09026857 -0.01297773
v 0.10897190 -0.08449432 -0.01613799
v 0.10876586 -0.08674084 -0.01616518
v 0.10817225 -0.08688195 -0.01653506
v 0.10768412 -0.08382149 -0.01700216
v 0.11173266 -0.08527462 -0.01395273
v 0.10695805 -0.08362057 -0.01727141
v 0.10716532 -0.08291783 -0.01709667
v 0.10692494 -0.08107780 -0.01661801
v 0.10742534 -0.08107780 -0.01640927
v 0.10134332 -0.08552133 -0.01635420
v 0.10112623 -0.08628761 -0.01621414
v 0.10060131 -0.08607923 -0.01566408
v 0.09920315 -0.08601474 -0.01413699
v 0.10279667 -0.08107780 -0.01636576
v 0.10297206 -0.08262347 -0.01702732
v 0.10286290 -0.08346170 -0.01715310
v 0.10234044 -0.08388410 -0.01689813
v 0.09920315 -0.08736229 -0.01291653
v 0.10133841 -0.08932285 -0.01357197
v 0.10169777 -0.08967422 -0.01272004
v 0.10240298 -0.09006484 -0.01225565
v 0.10249251 -0.09002185 -0.01163353
v 0.10279422 -0.09000596 -0.01115283
v 0.10241647 -0.08957890 -0.01073876
v 0.11173266 -0.08769496 -0.01313411
v 0.10851688 -0.08940883 -0.01387930
v 0.10485468 -0.09010970 -0.01073876
v 0.10442173 -0.09012652 -0.01073876
v 0.10411634 -0.09010502 -0.01073876
v 0.10397039 -0.09016857 -0.01087406
v 0.10409304 -0.09040874 -0.01134660
v 0.10438126 -0.09056106 -0.01179943
v 0.10453457 -0.09061993 -0.01226313
v 0.10558565 -0.09055265 -0.01294713
v 0.10645521 -0.09036201 -0.01326941
v 0.10471363 -0.09061152 -0.01279755
v 0.10748052 -0.08998168 -0.01366648
v 0.11173266 -0.08645769 -0.01390921
v 0.10945145 -0.08565870 -0.01570964
v 0.11173266 -0.08697073 -0.01381606
v 0.10919021 -0.08745012 -0.01567564
v 0.10821149 -0.08766319 -0.01637392
v 0.10724750 -0.08754544 -0.01693485
v 0.10687834 -0.08699502 -0.01717962
v 0.10745355 -0.08622314 -0.01696205
v 0.10669804 -0.08449619 -0.01737748
v 0.10574018 -0.08433265 -0.01759369
v 0.10648218 -0.08334957 -0.01734076
v 0.10672258 -0.08247114 -0.01708443
v 0.10667964 -0.08107780 -0.01667444
v 0.10175419 -0.08645675 -0.01666628
v 0.10144512 -0.08693709 -0.01640383
v 0.10097906 -0.08665020 -0.01604416
v 0.09920315 -0.08628387 -0.01413019
v 0.10337802 -0.08107780 -0.01665268
v 0.10334858 -0.08277952 -0.01721974
v 0.10224354 -0.08630350 -0.01692329
v 0.10344424 -0.08387662 -0.01742371
v 0.09920315 -0.08729126 -0.01315179
v 0.10095576 -0.08886775 -0.01398537
v 0.10063565 -0.08864535 -0.01354614
v 0.10157880 -0.08926305 -0.01435048
v 0.10187438 -0.08964712 -0.01364813
v 0.10242383 -0.09002840 -0.01306544
v 0.10311556 -0.09032557 -0.01277715
v 0.10314254 -0.09034706 -0.01207343
v 0.10323330 -0.09032744 -0.01169608
v 0.10342094 -0.09027604 -0.01133436
v 0.10339028 -0.09006204 -0.01087814
v 0.10287885 -0.08978636 -0.01073876
v 0.11173266 -0.08768469 -0.01318782
v 0.10794290 -0.08958638 -0.01441371
v 0.10387841 -0.09006951 -0.01073876
v 0.10344057 -0.08998728 -0.01073876
v 0.10379992 -0.09045640 -0.01166208
v 0.10395813 -0.09054985 -0.01209519
v 0.10384284 -0.09053116 -0.01257589
v 0.10600509 -0.09039845 -0.01358829
v 0.10532809 -0.09048630 -0.01352166
v 0.10699117 -0.09009007 -0.01396701
v 0.10394342 -0.09050218 -0.01302668
v 0.10469033 -0.09051901 -0.01338704
v 0.11173266 -0.08726043 -0.01370252
v 0.10848991 -0.08791924 -0.01607679
v 0.10793799 -0.08819492 -0.01631816
v 0.10733826 -0.08790897 -0.01678595
v 0.10644662 -0.08783140 -0.01717214
v 0.10611548 -0.08740060 -0.01739515
v 0.10582726 -0.08667636 -0.01758145
v 0.10571074 -0.08549890 -0.01764061
v 0.10579047 -0.08343834 -0.01746247
v 0.10525573 -0.08520921 -0.01768412
v 0.10475042 -0.08379813 -0.01757465
v 0.10595727 -0.08283933 -0.01730676
v 0.10633501 -0.08107780 -0.01675331
v 0.10209268 -0.08725575 -0.01672883
v 0.10161682 -0.08736602 -0.01640723
v 0.10106246 -0.08725014 -0.01596257
v 0.09920315 -0.08663057 -0.01404588
v 0.09920315 -0.08652311 -0.01407647
v 0.10383794 -0.08107780 -0.01679547
v 0.10382936 -0.08306735 -0.01739719
v 0.10326273 -0.08645583 -0.01731016
v 0.10271695 -0.08718473 -0.01703752
v 0.10402068 -0.08400465 -0.01754338
v 0.10415682 -0.08591568 -0.01755357
v 0.09920315 -0.08714268 -0.01352030
v 0.10110171 -0.08878459 -0.01452726
v 0.10162050 -0.08904344 -0.01489510
v 0.10238826 -0.08957143 -0.01467004
v 0.10291564 -0.09003307 -0.01393437
v 0.10354604 -0.09033398 -0.01345095
v 0.10328849 -0.08993869 -0.01073876
v 0.11173266 -0.08755292 -0.01348427
v 0.10887501 -0.08884906 -0.01480467
v 0.10700466 -0.08991625 -0.01451230
v 0.10753327 -0.08952658 -0.01499436
v 0.10830839 -0.08899391 -0.01524253
v 0.10602104 -0.09026295 -0.01411183
v 0.10467561 -0.09037509 -0.01395001
v 0.10556357 -0.09021529 -0.01440419
v 0.10408568 -0.09039285 -0.01366172
v 0.10846047 -0.08831267 -0.01587826
v 0.10777733 -0.08859395 -0.01612439
v 0.10725977 -0.08826687 -0.01664588
v 0.10635832 -0.08825753 -0.01696953
v 0.10571074 -0.08767628 -0.01736592
v 0.10546667 -0.08724828 -0.01752366
v 0.10525573 -0.08682214 -0.01760865
v 0.10541884 -0.08638667 -0.01765488
v 0.10459344 -0.08282625 -0.01737136
v 0.10500798 -0.08593437 -0.01768004
v 0.10561999 -0.08107780 -0.01684102
v 0.10484732 -0.08107780 -0.01688929
v 0.10274884 -0.08772674 -0.01687910
v 0.10230487 -0.08775851 -0.01665812
v 0.10136049 -0.08763889 -0.01606183
v 0.10186824 -0.08786504 -0.01634740
v 0.10124643 -0.08809119 -0.01563485
v 0.09920315 -0.08693803 -0.01384938
v 0.09920315 -0.08668758 -0.01401256
v 0.10423041 -0.08107780 -0.01685122
v 0.10447570 -0.08107780 -0.01687570
v 0.10375699 -0.08692494 -0.01739855
v 0.10353255 -0.08758937 -0.01717894
v 0.10482402 -0.08646143 -0.01763244
v 0.09920315 -0.08703335 -0.01371680
v 0.10108086 -0.08846499 -0.01500592
v 0.10155182 -0.08855096 -0.01551926
v 0.10196758 -0.08877150 -0.01563417
v 0.10230732 -0.08914343 -0.01539212
v 0.10299291 -0.08937332 -0.01546623
v 0.10335594 -0.08981720 -0.01485294
v 0.10373124 -0.09016577 -0.01422674
v 0.10885294 -0.08853040 -0.01528129
v 0.10828754 -0.08861637 -0.01574499
v 0.10654352 -0.08987701 -0.01489714
v 0.10775526 -0.08923875 -0.01533296
v 0.10702551 -0.08935836 -0.01562873
v 0.10757129 -0.08893597 -0.01590749
v 0.10506562 -0.09015175 -0.01461429
v 0.10425493 -0.09003587 -0.01477679
v 0.10607868 -0.08980786 -0.01521534
v 0.10703287 -0.08858086 -0.01651330
v 0.10662936 -0.08885374 -0.01640995
v 0.10589716 -0.08862198 -0.01676283
v 0.10548140 -0.08805848 -0.01717826
v 0.10490864 -0.08746695 -0.01742643
v 0.10451004 -0.08713801 -0.01749578
v 0.10331179 -0.08827061 -0.01672815
v 0.10252563 -0.08836967 -0.01637188
v 0.10178485 -0.08816501 -0.01608631
v 0.10437513 -0.08782112 -0.01721702
v 0.10249742 -0.08882664 -0.01590817
v 0.10322716 -0.08887896 -0.01616926
v 0.10397776 -0.08909764 -0.01613459
v 0.10381096 -0.08963684 -0.01538532
v 0.10606396 -0.08946957 -0.01580075
v 0.10659625 -0.08917240 -0.01606659
v 0.10503374 -0.08977047 -0.01538804
v 0.10594622 -0.08905466 -0.01633516
v 0.10518091 -0.08908176 -0.01632700
v 0.10512204 -0.08861077 -0.01676351
v 0.10490251 -0.08818745 -0.01705180
v 0.10414700 -0.08848929 -0.01673767
v 0.10472221 -0.08881635 -0.01654118
v 0.10455052 -0.08940322 -0.01587010
v 0.10535507 -0.08937238 -0.01598976
f 1 2 5
f 1 5 19
f 1 19 46
f 1 46 81
f 1 81 127
f 1 127 170
f 1 170 139
f 1 139 96
f 1 96 94
f 1 94 61
f 1 61 29
f 1 29 27
f 1 27 12
f 1 12 3
f 1 3 16
f 1 16 32
f 1 32 65
f 1 65 64
f 1 64 106
f 1 106 151
f 1 151 189
f 1 189 190
f 1 190 199
f 1 199 198
f 1 198 157
f 1 157 111
f 1 111 70
f 1 70 36
f 1 36 17
f 1 17 4
f 1 4 18
f 1 18 45
f 1 45 80
f 1 80 126
f 1 126 169
f 1 169 130
f 1 130 129
f 1 129 85
f 1 85 84
f 1 84 83
f 1 83 49
f 1 49 48
f 1 48 47
f 1 47 20
f 1 20 6
f 1 6 2
f 2 6 7
f 2 7 8
f 2 8 9
f 2 9 10
f 2 10 11
f 2 11 5
f 3 12 13
f 3 13 14
f 3 14 15
f 3 15 16
f 4 17 35
f 4 35 69
f 4 69 110
f 4 110 156
f 4 156 155
f 4 155 197
f 4 197 196
f 4 196 203
f 4 203 163
f 4 163 115
f 4 115 74
f 4 74 39
f 4 39 18
f 5 11 19
f 6 20 7
f 7 20 21
f 7 21 8
f 8 21 22
f 8 22 23
f 8 23 10
f 8 10 9
f 10 23 24
f 10 24 25
f 10 25 11
f 11 25 26
f 11 26 19
f 12 27 13
f 13 28 14
f 13 27 29
f 13 29 28
f 14 28 30
f 14 30 15
f 15 30 31
f 15 31 32
f 15 32 16
f 17 33 34
f 17 34 35
f 17 36 37
f 17 37 38
f 17 38 33
f 18 39 40
f 18 40 41
f 18 41 42
f 18 42 43
f 18 43 44
f 18 44 45
f 19 26 46
f 20 47 21
f 21 47 48
f 21 48 49
f 21 49 22
f 22 49 50
f 22 50 51
f 22 51 23
f 23 51 52
f 23 52 24
f 24 53 25
f 24 52 54
f 24 54 53
f 25 55 26
f 25 53 56
f 25 56 55
f 26 55 46
f 28 29 57
f 28 57 58
f 28 58 59
f 28 59 60
f 28 60 30
f 29 61 57
f 30 60 62
f 30 62 63
f 30 63 31
f 31 63 64
f 31 64 65
f 31 65 32
f 33 66 34
f 33 38 66
f 34 66 67
f 34 67 68
f 34 68 35
f 35 68 69
f 36 70 37
f 37 70 71
f 37 71 72
f 37 72 73
f 37 73 38
f 38 73 66
f 39 74 40
f 40 75 41
f 40 74 75
f 41 75 76
f 41 76 43
f 41 43 42
f 43 77 78
f 43 78 44
f 43 76 77
f 44 78 79
f 44 79 45
f 45 79 80
f 46 55 82
f 46 82 81
f 49 83 50
f 50 83 84
f 50 84 85
f 50 85 86
f 50 86 87
f 50 87 51
f 51 87 88
f 51 88 52
f 52 88 89
f 52 89 54
f 53 54 90
f 53 90 91
f 53 91 56
f 54 89 92
f 54 92 90
f 55 56 93
f 55 93 82
f 56 91 93
f 57 61 94
f 57 94 95
f 57 95 58
f 58 95 94
f 58 94 96
f 58 96 97
f 58 97 98
f 58 98 59
f 59 98 99
f 59 99 100
f 59 100 101
f 59 101 60
f 60 101 100
f 60 100 102
f 60 102 62
f 62 102 103
f 62 103 104
f 62 104 63
f 63 104 105
f 63 105 64
f 64 105 106
f 66 73 107
f 66 107 67
f 67 107 108
f 67 108 109
f 67 109 68
f 68 109 110
f 68 110 69
f 70 111 71
f 71 111 112
f 71 112 72
f 72 113 73
f 72 112 114
f 72 114 113
f 73 113 107
f 74 115 116
f 74 116 117
f 74 117 75
f 75 117 116
f 75 116 118
f 75 118 119
f 75 119 76
f 76 119 120
f 76 120 77
f 77 120 121
f 77 121 122
f 77 122 78
f 78 122 123
f 78 123 79
f 79 123 124
f 79 124 125
f 79 125 126
f 79 126 80
f 81 82 127
f 82 93 128
f 82 128 127
f 85 129 86
f 86 129 130
f 86 130 125
f 86 125 87
f 87 131 88
f 87 125 124
f 87 124 131
f 88 131 132
f 88 132 89
f 89 132 133
f 89 133 92
f 90 134 91
f 90 92 135
f 90 135 134
f 91 136 93
f 91 134 136
f 92 133 137
f 92 137 138
f 92 138 135
f 93 136 128
f 96 139 140
f 96 140 97
f 97 140 98
f 98 140 141
f 98 141 142
f 98 142 99
f 99 142 143
f 99 143 144
f 99 144 100
f 100 144 145
f 100 145 102
f 102 145 146
f 102 146 103
f 103 147 104
f 103 146 148
f 103 148 149
f 103 149 147
f 104 147 150
f 104 150 105
f 105 150 151
f 105 151 106
f 107 113 152
f 107 152 108
f 108 152 153
f 108 153 154
f 108 154 109
f 109 154 155
f 109 155 156
f 109 156 110
f 111 157 112
f 112 157 158
f 112 158 114
f 113 114 159
f 113 159 160
f 113 160 152
f 114 158 161
f 114 161 162
f 114 162 159
f 115 163 116
f 116 164 118
f 116 163 164
f 118 164 165
f 118 165 166
f 118 166 119
f 119 166 167
f 119 167 120
f 120 167 121
f 121 167 168
f 121 168 137
f 121 137 133
f 121 133 122
f 122 133 132
f 122 132 123
f 123 132 131
f 123 131 124
f 125 169 126
f 125 130 169
f 127 128 171
f 127 171 170
f 128 136 172
f 128 172 173
f 128 173 174
f 128 174 171
f 134 175 136
f 134 135 175
f 135 138 176
f 135 176 177
f 135 177 175
f 136 175 172
f 137 168 178
f 137 178 138
f 138 178 176
f 139 170 179
f 139 179 140
f 140 179 141
f 141 180 181
f 141 181 142
f 141 179 180
f 142 181 143
f 143 182 183
f 143 183 144
f 143 181 182
f 144 183 184
f 144 184 145
f 145 184 185
f 145 185 186
f 145 186 146
f 146 186 148
f 147 149 187
f 147 187 150
f 148 188 161
f 148 161 149
f 148 186 188
f 149 161 158
f 149 158 187
f 150 189 151
f 150 187 190
f 150 190 189
f 152 160 191
f 152 191 192
f 152 192 153
f 153 193 154
f 153 192 194
f 153 194 193
f 154 193 195
f 154 195 196
f 154 196 197
f 154 197 155
f 157 198 158
f 158 198 199
f 158 199 187
f 159 162 200
f 159 200 160
f 160 200 201
f 160 201 191
f 161 188 162
f 162 188 202
f 162 202 200
f 163 203 164
f 164 204 165
f 164 203 204
f 165 204 205
f 165 205 206
f 165 206 207
f 165 207 166
f 166 207 208
f 166 208 209
f 166 209 167
f 167 209 210
f 167 210 168
f 168 210 178
f 170 171 174
f 170 174 211
f 170 211 212
f 170 212 179
f 172 175 213
f 172 213 173
f 173 214 174
f 173 213 215
f 173 215 214
f 174 212 211
f 174 214 216
f 174 216 212
f 175 177 213
f 176 217 177
f 176 178 210
f 176 210 218
f 176 218 217
f 177 219 213
f 177 217 219
f 179 212 180
f 180 216 220
f 180 220 181
f 180 212 216
f 181 220 182
f 182 220 221
f 182 221 222
f 182 222 223
f 182 223 183
f 183 223 224
f 183 224 184
f 184 224 225
f 184 225 185
f 185 225 202
f 185 202 186
f 186 202 188
f 187 199 190
f 191 226 227
f 191 227 192
f 191 201 226
f 192 227 194
f 193 194 228
f 193 228 195
f 194 227 228
f 195 228 205
f 195 205 204
f 195 204 196
f 196 204 203
f 200 202 225
f 200 225 201
f 201 225 229
f 201 229 226
f 205 228 206
f 206 228 227
f 206 227 230
f 206 230 207
f 207 230 208
f 208 231 232
f 208 232 233
f 208 233 209
f 208 230 231
f 209 233 218
f 209 218 210
f 213 219 215
f 214 215 216
f 215 219 234
f 215 234 235
f 215 235 216
f 216 235 221
f 216 221 220
f 217 218 236
f 217 236 219
f 218 233 236
f 219 236 234
f 221 235 237
f 221 237 222
f 222 237 238
f 222 238 239
f 222 239 223
f 223 239 240
f 223 240 229
f 223 229 224
f 224 229 225
f 226 231 227
f 226 229 241
f 226 241 231
f 227 231 230
f 229 240 241
f 231 241 232
f 232 241 242
f 232 242 238
f 232 238 243
f 232 243 233
f 233 243 236
f 234 236 244
f 234 244 237
f 234 237 235
f 236 243 244
f 237 244 238
f 238 242 239
f 238 244 243
f 239 242 241
f 239 241 240

