# https://github.com/mikedh/trimesh
v 0.01162758 0.08783183 -0.01811501
v 0.02321563 0.08733612 -0.01806365
v 0.01228163 0.08766092 -0.01809474
v 0.00045186 0.08756940 -0.01795484
v 0.00045186 0.08777958 -0.01795957
v 0.01175555 0.08805375 -0.01811163
v 0.07020766 0.08834494 -0.01811366
v 0.04096028 0.08758802 -0.01808865
v 0.02395499 0.08713566 -0.01797579
v 0.00193058 0.08718345 -0.01784468
v 0.00123388 0.08738553 -0.01791497
v 0.14324794 0.08560038 -0.01739662
v 0.00045186 0.08736691 -0.01784671
v 0.00045186 0.08819914 -0.01774331
v 0.01175555 0.08859805 -0.01800553
v 0.01128634 0.08838868 -0.01806635
v 0.01090244 0.08817525 -0.01808730
v 0.01172711 0.08828256 -0.01808595
v 0.07091859 0.08814609 -0.01809879
v 0.03503118 0.08845671 -0.01806094
v 0.06924081 0.08845874 -0.01806500
v 0.13647994 0.08931041 -0.01751759
v 0.13643729 0.08887708 -0.01761356
v 0.13615292 0.08844172 -0.01769128
v 0.13697759 0.08830930 -0.01770412
v 0.07134514 0.08799382 -0.01807041
v 0.02318719 0.08703847 -0.01791294
v 0.00269838 0.08705588 -0.01774466
v 0.00124810 0.08705912 -0.01769060
v 0.00045186 0.08713687 -0.01769195
v 0.02236252 0.08685015 -0.01776899
v 0.14091610 0.08718952 -0.01750746
v 0.14185452 0.08691131 -0.01744866
v 0.14358918 0.08560038 -0.01737027
v 0.00045186 0.08560038 -0.01524822
v 0.01145696 0.08665171 -0.01737770
v 0.01040479 0.08673676 -0.01751219
v 0.00045186 0.08821575 -0.01773182
v 0.00045186 0.08824572 -0.01769668
v 0.00045186 0.08835060 -0.01756220
v 0.01154227 0.08877867 -0.01773858
v 0.13660791 0.08954652 -0.01730404
v 0.13696338 0.08947686 -0.01735540
v 0.13696338 0.08920107 -0.01751962
v 0.13700603 0.08870698 -0.01762910
v 0.13777383 0.08831011 -0.01764397
v 0.00237136 0.08690199 -0.01749732
v 0.01125790 0.08685704 -0.01766289
v 0.00045186 0.08697570 -0.01752368
v 0.14080236 0.08760463 -0.01744258
v 0.14201093 0.08732438 -0.01732093
v 0.14236639 0.08675782 -0.01737973
v 0.14401573 0.08560038 -0.01730742
v 0.00045186 0.08560038 -0.01196378
v 0.00045186 0.08695585 -0.01749124
v 0.00045186 0.08844740 -0.01733986
v 0.01107306 0.08883293 -0.01759599
v 0.13665057 0.08967448 -0.01706345
v 0.13706290 0.08964614 -0.01707426
v 0.13740415 0.08954165 -0.01710197
v 0.13730461 0.08935698 -0.01737702
v 0.14104407 0.08786949 -0.01733445
v 0.14191139 0.08759693 -0.01722091
v 0.14313419 0.08689551 -0.01710873
v 0.14455604 0.08560038 -0.01716955
v 0.14449916 0.08560038 -0.01718577
v 0.00046608 0.08661972 -0.01121160
v 0.00045186 0.08656748 -0.01132582
v 0.00055139 0.08560038 -0.01196243
v 0.00295432 0.08655208 -0.01121160
v 0.00255620 0.08656181 -0.01121160
v 0.00045186 0.08850734 -0.01719118
v 0.01044745 0.08883172 -0.01752232
v 0.01081713 0.08888437 -0.01728579
v 0.13706290 0.08972430 -0.01683367
v 0.13746102 0.08965221 -0.01677082
v 0.14198249 0.08783425 -0.01673298
v 0.14124313 0.08799949 -0.01702831
v 0.14229529 0.08760220 -0.01695059
v 0.14272185 0.08732074 -0.01699722
v 0.14353230 0.08685137 -0.01688774
v 0.14506790 0.08560038 -0.01691139
v 0.00045186 0.08684489 -0.01121160
v 0.00099217 0.08560038 -0.01195770
v 0.01512532 0.08634393 -0.01121160
v 0.00045186 0.08852839 -0.01712900
v 0.00045186 0.08857011 -0.01691207
v 0.00045186 0.08858468 -0.01683367
v 0.00045186 0.08860129 -0.01671405
v 0.00045186 0.08864300 -0.01635520
v 0.00045186 0.08865312 -0.01625112
v 0.01016308 0.08888073 -0.01702560
v 0.13719087 0.08973727 -0.01653767
v 0.13751790 0.08969838 -0.01633222
v 0.13790180 0.08955097 -0.01645319
v 0.14235217 0.08768360 -0.01638899
v 0.14270763 0.08749488 -0.01672690
v 0.13787335 0.08958782 -0.01610988
v 0.14330481 0.08713242 -0.01670054
v 0.14540914 0.08560038 -0.01657619
v 0.00045186 0.08877827 -0.01121160
v 0.01267975 0.08560038 -0.01188539
v 0.13943738 0.08560038 -0.01121160
v 0.00045186 0.08866527 -0.01600918
v 0.00045186 0.08870821 -0.01513333
v 0.00045186 0.08874263 -0.01377698
v 0.00045186 0.08876895 -0.01269231
v 0.13322392 0.08903867 -0.01121160
v 0.13450357 0.08901356 -0.01121160
v 0.13767429 0.08865961 -0.01121160
v 0.13520028 0.08896820 -0.01121160
v 0.13522872 0.08896577 -0.01121160
v 0.13602496 0.08889733 -0.01121160
v 0.13680696 0.08879811 -0.01121160
v 0.13714822 0.08874425 -0.01121160
v 0.14283560 0.08700971 -0.01121160
v 0.14311997 0.08688376 -0.01121160
v 0.14370292 0.08662052 -0.01121160
v 0.14448494 0.08622284 -0.01121160
v 0.14319106 0.08724501 -0.01633898
v 0.13866958 0.08844537 -0.01121160
v 0.13901083 0.08835951 -0.01121160
v 0.14044690 0.08792254 -0.01121160
v 0.14189718 0.08740012 -0.01121160
v 0.14353230 0.08702389 -0.01641602
v 0.14562242 0.08560038 -0.01621058
v 0.14555133 0.08560038 -0.01121160
v 0.14519587 0.08582474 -0.01121160
v 0.14570773 0.08560038 -0.01547665
v 0.14569352 0.08560038 -0.01571048
v 0.14567929 0.08560038 -0.01593214
f 1 2 3
f 1 3 4
f 1 4 5
f 1 5 6
f 1 6 7
f 1 7 8
f 1 8 2
f 2 9 10
f 2 10 11
f 2 11 3
f 2 8 12
f 2 12 9
f 3 11 4
f 4 11 13
f 4 13 30
f 4 30 49
f 4 49 55
f 4 55 35
f 4 35 54
f 4 54 68
f 4 68 83
f 4 83 101
f 4 101 107
f 4 107 106
f 4 106 105
f 4 105 104
f 4 104 91
f 4 91 90
f 4 90 89
f 4 89 88
f 4 88 87
f 4 87 86
f 4 86 72
f 4 72 56
f 4 56 40
f 4 40 39
f 4 39 38
f 4 38 14
f 4 14 5
f 5 14 15
f 5 15 16
f 5 16 17
f 5 17 6
f 6 17 18
f 6 18 7
f 7 19 8
f 7 18 16
f 7 16 20
f 7 20 15
f 7 15 21
f 7 21 22
f 7 22 23
f 7 23 24
f 7 24 25
f 7 25 19
f 8 19 26
f 8 26 12
f 9 27 10
f 9 12 27
f 10 28 29
f 10 29 30
f 10 30 13
f 10 13 11
f 10 27 31
f 10 31 28
f 12 25 32
f 12 32 33
f 12 33 34
f 12 34 53
f 12 53 66
f 12 66 65
f 12 65 82
f 12 82 100
f 12 100 126
f 12 126 131
f 12 131 130
f 12 130 129
f 12 129 127
f 12 127 103
f 12 103 102
f 12 102 84
f 12 84 69
f 12 69 54
f 12 54 35
f 12 35 36
f 12 36 37
f 12 37 31
f 12 31 27
f 12 26 19
f 12 19 25
f 14 38 15
f 15 20 16
f 15 38 39
f 15 39 40
f 15 40 41
f 15 41 42
f 15 42 22
f 15 22 21
f 16 18 17
f 22 42 43
f 22 43 44
f 22 44 45
f 22 45 23
f 23 45 25
f 23 25 24
f 25 45 46
f 25 46 32
f 28 47 29
f 28 31 48
f 28 48 37
f 28 37 47
f 29 47 49
f 29 49 30
f 31 37 48
f 32 50 33
f 32 46 50
f 33 50 51
f 33 51 52
f 33 52 53
f 33 53 34
f 35 55 47
f 35 47 37
f 35 37 36
f 40 56 57
f 40 57 41
f 41 57 58
f 41 58 42
f 42 58 59
f 42 59 43
f 43 59 60
f 43 60 61
f 43 61 44
f 44 61 62
f 44 62 50
f 44 50 46
f 44 46 45
f 47 55 49
f 50 62 51
f 51 62 63
f 51 63 64
f 51 64 65
f 51 65 66
f 51 66 53
f 51 53 52
f 54 67 68
f 54 69 70
f 54 70 71
f 54 71 67
f 56 72 57
f 57 72 73
f 57 73 74
f 57 74 75
f 57 75 58
f 58 75 59
f 59 75 76
f 59 76 60
f 60 76 77
f 60 77 78
f 60 78 63
f 60 63 62
f 60 62 61
f 63 79 80
f 63 80 64
f 63 78 79
f 64 81 82
f 64 82 65
f 64 80 81
f 67 83 68
f 67 71 70
f 67 70 85
f 67 85 103
f 67 103 127
f 67 127 128
f 67 128 119
f 67 119 118
f 67 118 117
f 67 117 116
f 67 116 124
f 67 124 123
f 67 123 122
f 67 122 121
f 67 121 110
f 67 110 115
f 67 115 114
f 67 114 113
f 67 113 112
f 67 112 111
f 67 111 109
f 67 109 108
f 67 108 101
f 67 101 83
f 69 84 85
f 69 85 70
f 72 86 73
f 73 86 87
f 73 87 88
f 73 88 74
f 74 88 89
f 74 89 90
f 74 90 91
f 74 91 92
f 74 92 93
f 74 93 75
f 75 93 94
f 75 94 76
f 76 94 95
f 76 95 77
f 77 96 97
f 77 97 79
f 77 79 78
f 77 95 98
f 77 98 96
f 79 97 80
f 80 97 99
f 80 99 81
f 81 99 100
f 81 100 82
f 84 102 85
f 85 102 103
f 91 104 92
f 92 104 105
f 92 105 106
f 92 106 107
f 92 107 101
f 92 101 93
f 93 108 109
f 93 109 94
f 93 101 108
f 94 110 98
f 94 98 95
f 94 109 111
f 94 111 112
f 94 112 113
f 94 113 114
f 94 114 115
f 94 115 110
f 96 116 117
f 96 117 118
f 96 118 119
f 96 119 120
f 96 120 97
f 96 98 116
f 97 120 99
f 98 110 121
f 98 121 122
f 98 122 123
f 98 123 124
f 98 124 116
f 99 120 125
f 99 125 126
f 99 126 100
f 119 128 120
f 120 128 127
f 120 127 129
f 120 129 125
f 125 129 130
f 125 130 131
f 125 131 126

