# https://github.com/mikedh/trimesh
v 0.15293261 -0.01920354 0.01177328
v 0.16013220 -0.02727765 0.01052306
v 0.16265917 -0.01962140 0.00963004
v 0.14825492 -0.01941921 -0.01400624
v 0.14553475 -0.01920354 0.00041831
v 0.14760412 -0.01920354 0.01137369
v 0.11719404 -0.06185211 0.01516979
v 0.13002210 -0.05405207 0.01427677
v 0.14652112 -0.03558990 0.01271777
v 0.15965934 -0.02888169 0.00950592
v 0.16436754 -0.01997635 -0.00872380
v 0.14452294 -0.04392012 0.01255127
v 0.14938367 -0.04035259 0.01163101
v 0.15914581 -0.02162982 -0.01387910
v 0.15028870 -0.02570506 -0.01487504
v 0.12608673 -0.05518434 -0.01575596
v 0.11795670 -0.06115118 -0.01456930
v 0.11242991 -0.06386052 -0.00977121
v 0.11291802 -0.06510512 0.00653928
v 0.13661154 -0.05031830 0.01245137
v 0.15928818 -0.02967248 0.00659377
v 0.15444778 -0.03568875 0.00859171
v 0.16001016 -0.02709793 -0.01154816
v 0.15189030 -0.03805661 -0.00398928
v 0.14096383 -0.04740677 0.00978442
v 0.15687306 -0.03166742 -0.01178126
v 0.14857524 -0.03389150 -0.01490229
v 0.13399305 -0.04974768 -0.01536545
v 0.12685449 -0.05550784 -0.01513236
v 0.15282584 -0.03680304 -0.00994678
v 0.13851821 -0.04782014 -0.01270758
v 0.14613471 -0.04192518 -0.01189629
f 1 2 3
f 1 3 4
f 1 4 5
f 1 5 6
f 1 6 7
f 1 7 8
f 1 8 9
f 1 9 2
f 2 10 11
f 2 11 3
f 2 9 12
f 2 12 13
f 2 13 10
f 3 11 4
f 4 11 14
f 4 14 15
f 4 15 16
f 4 16 17
f 4 17 18
f 4 18 5
f 5 18 19
f 5 19 6
f 6 19 7
f 7 19 20
f 7 20 8
f 8 20 12
f 8 12 9
f 10 21 11
f 10 13 22
f 10 22 21
f 11 21 23
f 11 23 14
f 12 20 13
f 13 24 22
f 13 20 25
f 13 25 24
f 14 23 26
f 14 26 27
f 14 27 15
f 15 27 16
f 16 28 29
f 16 29 17
f 16 27 28
f 17 29 19
f 17 19 18
f 19 29 20
f 20 29 25
f 21 22 30
f 21 30 26
f 21 26 23
f 22 24 30
f 24 25 31
f 24 31 32
f 24 32 30
f 25 29 31
f 26 30 32
f 26 32 28
f 26 28 27
f 28 32 31
f 28 31 29

