# https://github.com/mikedh/trimesh
v 0.16172269 0.03237873 -0.00559763
v 0.15588187 0.03237873 -0.01046635
v 0.15874439 0.03237873 0.00604529
v 0.16818749 0.02095752 0.00059961
v 0.16692669 0.01892271 -0.00992988
v 0.15526433 0.02145739 -0.01390280
v 0.10279977 0.01177309 -0.00852291
v 0.14800188 0.03237873 -0.00912771
v 0.15532865 0.02138670 0.01158713
v 0.16850913 0.01674147 0.00753323
v 0.14694693 0.03237873 0.00572138
v 0.16814246 0.00110420 -0.01198467
v 0.16343377 0.01026844 -0.01360167
v 0.15116031 -0.01903692 -0.01425960
v 0.10279977 0.00231600 -0.01025885
v 0.10279977 0.01528731 0.00050598
v 0.14338326 0.03237873 -0.00306711
v 0.16200573 0.01321715 0.01146313
v 0.10279977 0.00838005 0.00796342
v 0.14564111 0.01232850 0.01133407
v 0.15025331 -0.01920354 0.01157447
v 0.16694599 0.00525462 0.00977274
v 0.16814889 -0.00705525 0.00845687
v 0.16553724 -0.01842597 -0.00316074
v 0.16333085 -0.01351818 -0.01278431
v 0.14553176 -0.01920354 0.00056924
v 0.10279977 -0.01317989 -0.00258378
v 0.10279977 -0.00824180 -0.00922134
v 0.16313787 -0.00726731 0.01107343
v 0.10279977 -0.00140523 0.00834553
v 0.16342734 -0.01578021 0.00994988
v 0.10279977 -0.01011504 0.00567330
f 1 2 8
f 1 8 17
f 1 17 11
f 1 11 3
f 1 3 4
f 1 4 5
f 1 5 2
f 2 5 6
f 2 6 7
f 2 7 8
f 3 9 10
f 3 10 4
f 3 11 9
f 4 10 12
f 4 12 5
f 5 13 6
f 5 12 13
f 6 14 15
f 6 15 7
f 6 13 14
f 7 16 8
f 7 15 28
f 7 28 27
f 7 27 32
f 7 32 30
f 7 30 19
f 7 19 16
f 8 16 17
f 9 18 10
f 9 11 19
f 9 19 20
f 9 20 21
f 9 21 18
f 10 22 23
f 10 23 12
f 10 18 22
f 11 17 16
f 11 16 19
f 12 23 24
f 12 24 25
f 12 25 13
f 13 25 14
f 14 25 24
f 14 24 21
f 14 21 26
f 14 26 27
f 14 27 28
f 14 28 15
f 18 21 29
f 18 29 22
f 19 30 20
f 20 30 21
f 21 24 31
f 21 31 29
f 21 30 32
f 21 32 27
f 21 27 26
f 22 29 23
f 23 29 31
f 23 31 24

