# https://github.com/mikedh/trimesh
v -0.00016647 0.04421190 -0.00242752
v 0.01003684 0.04263543 -0.00242752
v -0.00016647 0.04789573 0.00327906
v -0.00016647 0.05645938 -0.00242752
v 0.01003684 0.04666434 0.00327906
v 0.01003684 0.05560405 -0.00242752
v -0.00016647 0.05769814 0.00327906
v -0.00016647 0.05657736 -0.00199964
v -0.00013050 0.05646086 -0.00242752
v 0.01003684 0.05685018 0.00327906
v 0.00915776 0.05574562 -0.00242752
v 0.00964126 0.05602877 -0.00108634
v 0.01003684 0.05573530 -0.00193652
v -0.00011652 0.05769962 0.00327906
v -0.00016647 0.05756689 0.00247804
v 0.00084847 0.05655229 -0.00210633
v -0.00016647 0.05683838 -0.00103048
v 0.00025709 0.05689590 -0.00083386
v 0.00015719 0.05646086 -0.00242752
v 0.01003684 0.05680151 0.00296625
v 0.00972917 0.05671008 0.00203731
v 0.00921371 0.05699175 0.00327906
v 0.00872222 0.05580903 -0.00242752
v 0.01003684 0.05600517 -0.00090424
v 0.00837658 0.05605236 -0.00168627
v 0.00778520 0.05644611 -0.00041770
v 0.00905088 0.05641956 0.00017943
v 0.01003684 0.05636795 0.00063915
v 0.00070063 0.05770109 0.00327906
v 0.00034200 0.05754477 0.00229315
v -0.00016647 0.05749610 0.00205575
v 0.00152576 0.05701830 -0.00024398
v 0.00211814 0.05667321 -0.00151534
v 0.00254369 0.05640334 -0.00242752
v 0.00173155 0.05643136 -0.00242752
v 0.00099831 0.05645643 -0.00242752
v -0.00016647 0.05692392 -0.00067968
v -0.00016647 0.05710236 0.00007777
v -0.00016647 0.05720116 0.00051515
v 0.00093438 0.05730882 0.00102570
v 0.01003684 0.05667911 0.00218087
v 0.00846249 0.05678972 0.00144353
v 0.00786712 0.05710678 0.00271600
v 0.00907685 0.05701387 0.00327906
v 0.01003684 0.05663192 0.00192559
v 0.01003684 0.05652280 0.00137594
v 0.01003684 0.05641956 0.00087265
v 0.00717684 0.05601254 -0.00242752
v 0.00710791 0.05606269 -0.00227894
v 0.00651553 0.05646086 -0.00100702
v 0.00592315 0.05684428 0.00026266
v 0.00719382 0.05682511 0.00085086
v 0.00142786 0.05769814 0.00327906
v 0.00161167 0.05763473 0.00288470
v 0.00220305 0.05740025 0.00161557
v -0.00016647 0.05737665 0.00142565
v 0.00338681 0.05677350 -0.00092100
v 0.00279443 0.05710825 0.00035148
v 0.00397919 0.05639892 -0.00219235
v 0.00347372 0.05635910 -0.00242752
v 0.00659845 0.05716134 0.00212501
v 0.00606201 0.05741647 0.00327906
v 0.00631474 0.05738550 0.00327906
v 0.00760539 0.05722181 0.00327906
v 0.00678425 0.05605973 -0.00242752
v 0.00563246 0.05619246 -0.00242752
v 0.00524387 0.05645791 -0.00159354
v 0.00465448 0.05683543 -0.00032721
v 0.00532978 0.05718346 0.00153346
v 0.00245878 0.05767160 0.00327906
v 0.00280942 0.05765980 0.00327906
v 0.00347072 0.05745039 0.00221159
v 0.00406310 0.05717314 0.00094024
v 0.00297225 0.05765390 0.00327906
v 0.00408808 0.05632518 -0.00242752
v 0.00474039 0.05746808 0.00279923
v 0.00577231 0.05744596 0.00327906
v 0.00342078 0.05762588 0.00327906
v 0.00451763 0.05755509 0.00327906
f 1 2 3
f 1 3 7
f 1 7 15
f 1 15 31
f 1 31 56
f 1 56 39
f 1 39 38
f 1 38 37
f 1 37 17
f 1 17 8
f 1 8 4
f 1 4 9
f 1 9 19
f 1 19 36
f 1 36 35
f 1 35 34
f 1 34 60
f 1 60 75
f 1 75 66
f 1 66 65
f 1 65 48
f 1 48 23
f 1 23 11
f 1 11 6
f 1 6 2
f 2 5 3
f 2 6 13
f 2 13 24
f 2 24 28
f 2 28 47
f 2 47 46
f 2 46 45
f 2 45 41
f 2 41 20
f 2 20 10
f 2 10 5
f 3 5 10
f 3 10 22
f 3 22 44
f 3 44 64
f 3 64 63
f 3 63 62
f 3 62 77
f 3 77 79
f 3 79 78
f 3 78 74
f 3 74 71
f 3 71 70
f 3 70 53
f 3 53 29
f 3 29 14
f 3 14 7
f 4 8 9
f 6 11 12
f 6 12 13
f 7 14 15
f 8 16 9
f 8 17 18
f 8 18 16
f 9 16 19
f 10 20 21
f 10 21 22
f 11 23 12
f 12 24 13
f 12 23 25
f 12 25 26
f 12 26 27
f 12 27 28
f 12 28 24
f 14 29 30
f 14 30 15
f 15 30 31
f 16 18 32
f 16 32 33
f 16 33 34
f 16 34 35
f 16 35 36
f 16 36 19
f 17 37 18
f 18 37 38
f 18 38 39
f 18 39 40
f 18 40 32
f 20 41 21
f 21 42 43
f 21 43 44
f 21 44 22
f 21 41 45
f 21 45 46
f 21 46 47
f 21 47 42
f 23 48 49
f 23 49 25
f 25 49 50
f 25 50 26
f 26 50 51
f 26 51 52
f 26 52 27
f 27 52 42
f 27 42 47
f 27 47 28
f 29 53 54
f 29 54 30
f 30 54 55
f 30 55 40
f 30 40 31
f 31 40 56
f 32 57 33
f 32 40 55
f 32 55 58
f 32 58 57
f 33 57 59
f 33 59 60
f 33 60 34
f 39 56 40
f 42 52 61
f 42 61 43
f 43 61 62
f 43 62 63
f 43 63 64
f 43 64 44
f 48 65 49
f 49 65 66
f 49 66 67
f 49 67 50
f 50 67 51
f 51 67 68
f 51 68 69
f 51 69 52
f 52 69 61
f 53 70 54
f 54 70 71
f 54 71 55
f 55 72 73
f 55 73 58
f 55 71 74
f 55 74 72
f 57 58 73
f 57 73 68
f 57 68 59
f 59 67 75
f 59 75 60
f 59 68 67
f 61 69 76
f 61 76 62
f 62 76 77
f 66 75 67
f 68 73 69
f 69 73 76
f 72 76 73
f 72 74 76
f 74 78 76
f 76 78 79
f 76 79 77

