# https://github.com/mikedh/trimesh
v 0.01892246 0.05544157 0.01296131
v 0.01990781 0.05509679 0.01296131
v 0.01892246 0.05543524 0.01250201
v 0.01892246 0.04726647 0.01296131
v 0.01993451 0.05508730 0.01296131
v 0.01892246 0.05543208 0.01238671
v 0.01892246 0.04369372 0.00322644
v 0.02694190 0.03928432 0.00322644
v 0.02694190 0.04305634 0.01296131
v 0.01892246 0.05542417 0.01213896
v 0.02008604 0.05503194 0.01296131
v 0.02064820 0.05479154 0.01175970
v 0.01892246 0.05464920 0.00322644
v 0.02694190 0.05127099 0.00322644
v 0.02694190 0.05222783 0.01296131
v 0.01937627 0.05522806 0.01116795
v 0.01892246 0.05537040 0.01095831
v 0.02108081 0.05465237 0.01296131
v 0.02190914 0.05432182 0.01235241
v 0.02250428 0.05405295 0.01108314
v 0.02123156 0.05450845 0.01049234
v 0.01892246 0.05465079 0.00323692
v 0.01978847 0.05443253 0.00364477
v 0.01998476 0.05429019 0.00322644
v 0.02672364 0.05138486 0.00322644
v 0.02694190 0.05139119 0.00388680
v 0.02694190 0.05219936 0.01172635
v 0.02689244 0.05222151 0.01159008
v 0.02651714 0.05243343 0.01296131
v 0.01892246 0.05530556 0.00993203
v 0.01996984 0.05493705 0.00989868
v 0.02162570 0.05444360 0.01296131
v 0.02213134 0.05424275 0.01296131
v 0.02504343 0.05306606 0.01226569
v 0.02377699 0.05356109 0.01167394
v 0.02436036 0.05327957 0.01040658
v 0.02310256 0.05376195 0.00981292
v 0.02182591 0.05421428 0.00922307
v 0.01892246 0.05475675 0.00396018
v 0.02047704 0.05442146 0.00550102
v 0.02106119 0.05405138 0.00423461
v 0.02093556 0.05393750 0.00322644
v 0.01919569 0.05479629 0.00491404
v 0.02616697 0.05167270 0.00322644
v 0.02605155 0.05177867 0.00347134
v 0.02546584 0.05227528 0.00473870
v 0.02694190 0.05154618 0.00487592
v 0.02694190 0.05219620 0.01161391
v 0.02694190 0.05218671 0.01148527
v 0.02694190 0.05207600 0.01005972
v 0.02623449 0.05241604 0.00972716
v 0.02562679 0.05278138 0.01099833
v 0.02629573 0.05253782 0.01285840
v 0.02633421 0.05252042 0.01296131
v 0.01892246 0.05525811 0.00922593
v 0.02056262 0.05463814 0.00863036
v 0.02472231 0.05320049 0.01296131
v 0.02624941 0.05255838 0.01296131
v 0.02368356 0.05345513 0.00854555
v 0.02495393 0.05296010 0.00913731
v 0.02242184 0.05391061 0.00795380
v 0.01892246 0.05486746 0.00478444
v 0.02114991 0.05433131 0.00736300
v 0.02174191 0.05400867 0.00609373
v 0.01892246 0.05499557 0.00606705
v 0.01892246 0.05501929 0.00632338
v 0.01988190 0.05473303 0.00677125
v 0.02233469 0.05363384 0.00482446
v 0.02153620 0.05371292 0.00322644
v 0.01892246 0.05489277 0.00501314
v 0.01892246 0.05494337 0.00550865
v 0.02596283 0.05177234 0.00322644
v 0.02553022 0.05198269 0.00322644
v 0.02491388 0.05227370 0.00322644
v 0.02418998 0.05276556 0.00414885
v 0.02486834 0.05273235 0.00600892
v 0.02613478 0.05218355 0.00660068
v 0.02672992 0.05172490 0.00533141
v 0.02694190 0.05160153 0.00525422
v 0.02694190 0.05196846 0.00879522
v 0.02682021 0.05200325 0.00845884
v 0.02554435 0.05259634 0.00786995
v 0.01892246 0.05522806 0.00882380
v 0.01929226 0.05503827 0.00803956
v 0.02427399 0.05312458 0.00727819
v 0.02300756 0.05358007 0.00668644
v 0.02359955 0.05320840 0.00541717
v 0.02292747 0.05320682 0.00355519
v 0.02222555 0.05343773 0.00322644
v 0.02462259 0.05240813 0.00322644
v 0.02385865 0.05274184 0.00322644
v 0.02694190 0.05180397 0.00697326
v 0.02694190 0.05162526 0.00542956
v 0.02694190 0.05191627 0.00819774
v 0.02308057 0.05308030 0.00322644
f 1 2 3
f 1 3 6
f 1 6 10
f 1 10 17
f 1 17 30
f 1 30 55
f 1 55 83
f 1 83 66
f 1 66 65
f 1 65 71
f 1 71 70
f 1 70 62
f 1 62 39
f 1 39 22
f 1 22 13
f 1 13 7
f 1 7 4
f 1 4 9
f 1 9 15
f 1 15 29
f 1 29 54
f 1 54 58
f 1 58 57
f 1 57 33
f 1 33 32
f 1 32 18
f 1 18 11
f 1 11 5
f 1 5 2
f 2 5 3
f 3 5 6
f 4 7 8
f 4 8 9
f 5 10 6
f 5 11 12
f 5 12 10
f 7 13 24
f 7 24 42
f 7 42 69
f 7 69 89
f 7 89 95
f 7 95 91
f 7 91 90
f 7 90 74
f 7 74 73
f 7 73 72
f 7 72 44
f 7 44 25
f 7 25 14
f 7 14 8
f 8 14 26
f 8 26 47
f 8 47 79
f 8 79 93
f 8 93 92
f 8 92 94
f 8 94 80
f 8 80 50
f 8 50 49
f 8 49 48
f 8 48 27
f 8 27 15
f 8 15 9
f 10 12 16
f 10 16 17
f 11 18 12
f 12 18 19
f 12 19 20
f 12 20 21
f 12 21 16
f 13 22 23
f 13 23 24
f 14 25 26
f 15 27 28
f 15 28 29
f 16 30 17
f 16 21 31
f 16 31 30
f 18 32 19
f 19 32 33
f 19 33 34
f 19 34 35
f 19 35 20
f 20 35 36
f 20 36 37
f 20 37 21
f 21 37 38
f 21 38 31
f 22 39 23
f 23 40 41
f 23 41 42
f 23 42 24
f 23 39 43
f 23 43 40
f 25 44 45
f 25 45 26
f 26 45 46
f 26 46 47
f 27 48 28
f 28 48 49
f 28 49 50
f 28 50 51
f 28 51 52
f 28 52 53
f 28 53 29
f 29 53 54
f 30 31 55
f 31 38 56
f 31 56 55
f 33 57 34
f 34 58 53
f 34 53 52
f 34 52 36
f 34 36 35
f 34 57 58
f 36 59 37
f 36 52 60
f 36 60 59
f 37 59 61
f 37 61 38
f 38 61 56
f 39 62 43
f 40 63 64
f 40 64 41
f 40 43 65
f 40 65 66
f 40 66 67
f 40 67 63
f 41 64 68
f 41 68 69
f 41 69 42
f 43 62 70
f 43 70 71
f 43 71 65
f 44 72 45
f 45 72 73
f 45 73 46
f 46 73 74
f 46 74 75
f 46 75 76
f 46 76 77
f 46 77 78
f 46 78 47
f 47 78 79
f 50 80 81
f 50 81 51
f 51 82 60
f 51 60 52
f 51 81 77
f 51 77 82
f 53 58 54
f 55 56 83
f 56 67 84
f 56 84 83
f 56 61 63
f 56 63 67
f 59 60 85
f 59 85 61
f 60 82 85
f 61 64 63
f 61 85 86
f 61 86 64
f 64 86 87
f 64 87 68
f 66 83 84
f 66 84 67
f 68 87 88
f 68 88 89
f 68 89 69
f 74 90 75
f 75 90 91
f 75 91 88
f 75 88 87
f 75 87 76
f 76 82 77
f 76 87 85
f 76 85 82
f 77 81 92
f 77 92 93
f 77 93 78
f 78 93 79
f 80 94 81
f 81 94 92
f 85 87 86
f 88 91 95
f 88 95 89

