# https://github.com/mikedh/trimesh
v 0.04318711 0.01025137 -0.00242620
v 0.04435126 0.00002416 -0.00242620
v 0.05034568 0.00002116 0.01107232
v 0.04929125 0.01025137 0.01107232
v 0.05585860 0.01025137 -0.00242620
v 0.04535236 0.00002116 -0.00242620
v 0.04467124 0.00002116 -0.00197691
v 0.05875372 0.00002116 0.01107232
v 0.05795222 0.01025137 0.01107232
v 0.05625782 0.01025137 -0.00098715
v 0.05594545 0.00978362 -0.00242620
v 0.05669208 0.00002116 -0.00242620
v 0.05868362 0.00002116 0.00955530
v 0.05875219 0.00067920 0.01107232
v 0.05796442 0.01018726 0.01107232
v 0.05792784 0.01025137 0.01060717
v 0.05667532 0.01025137 0.00075715
v 0.05634772 0.00978563 -0.00094883
v 0.05614811 0.00852463 -0.00242620
v 0.05669361 0.00137430 -0.00242620
v 0.05672256 0.00002116 -0.00232445
v 0.05867143 0.00002116 0.00933991
v 0.05869429 0.00173888 0.00991605
v 0.05875067 0.00085648 0.01107232
v 0.05803755 0.00978463 0.01107232
v 0.05801470 0.00978463 0.01064681
v 0.05788823 0.00978463 0.00904258
v 0.05784251 0.01025137 0.00953812
v 0.05702426 0.01025137 0.00246974
v 0.05711874 0.00978262 0.00251467
v 0.05676675 0.00978362 0.00080208
v 0.05616944 0.00838441 -0.00242620
v 0.05658695 0.00838441 -0.00083122
v 0.05672561 0.00138532 -0.00231784
v 0.05667075 0.00277753 -0.00242620
v 0.05718273 0.00002116 -0.00055636
v 0.05859372 0.00002116 0.00823122
v 0.05861963 0.00091858 0.00853647
v 0.05871410 0.00279956 0.01095867
v 0.05873848 0.00196123 0.01107232
v 0.05855868 0.00260024 0.00819290
v 0.05858305 0.00429593 0.00972577
v 0.05820669 0.00867186 0.01107232
v 0.05823412 0.00838040 0.01076574
v 0.05811831 0.00838341 0.00915226
v 0.05774804 0.00978663 0.00742646
v 0.05779833 0.01025137 0.00900558
v 0.05798422 0.00838641 0.00753218
v 0.05730311 0.01025137 0.00414136
v 0.05739758 0.00978463 0.00418232
v 0.05699988 0.00838541 0.00090119
v 0.05762919 0.00838140 0.00430125
v 0.05734730 0.00838241 0.00262302
v 0.05635077 0.00704429 -0.00242620
v 0.05680332 0.00698119 -0.00071494
v 0.05669818 0.00278554 -0.00233106
v 0.05716445 0.00278454 -0.00055768
v 0.05718426 0.00138432 -0.00054843
v 0.05660371 0.00431296 -0.00242620
v 0.05664333 0.00432297 -0.00229274
v 0.05759110 0.00002116 0.00115622
v 0.05856477 0.00002116 0.00789029
v 0.05850535 0.00138632 0.00719653
v 0.05871714 0.00282160 0.01107232
v 0.05872019 0.00272945 0.01107232
v 0.05863639 0.00449324 0.01107232
v 0.05866686 0.00387126 0.01107232
v 0.05836821 0.00221764 0.00609841
v 0.05832097 0.00388027 0.00633099
v 0.05852820 0.00385223 0.00852590
v 0.05863029 0.00458839 0.01107232
v 0.05845201 0.00531455 0.00887740
v 0.05851906 0.00560100 0.01028870
v 0.05824936 0.00838040 0.01107232
v 0.05841697 0.00698219 0.01085163
v 0.05831031 0.00698319 0.00924741
v 0.05765510 0.01025137 0.00738682
v 0.05783642 0.00837940 0.00594645
v 0.05759719 0.00978262 0.00582620
v 0.05817469 0.00698619 0.00761014
v 0.05736863 0.01025137 0.00468447
v 0.05720406 0.00698519 0.00099633
v 0.05802079 0.00698119 0.00602573
v 0.05781509 0.00698119 0.00439375
v 0.05753929 0.00698519 0.00270099
v 0.05635839 0.00698519 -0.00242620
v 0.05697855 0.00558197 -0.00063168
v 0.05756519 0.00278354 0.00119851
v 0.05759871 0.00138432 0.00121040
v 0.05709740 0.00418375 -0.00058147
v 0.05760176 0.00002116 0.00120115
v 0.05659609 0.00442113 -0.00242620
v 0.05651228 0.00558497 -0.00241299
v 0.05846420 0.00002116 0.00676178
v 0.05842154 0.00002116 0.00631909
v 0.05838192 0.00050192 0.00594380
v 0.05822040 0.00138532 0.00477565
v 0.05805279 0.00325328 0.00403300
v 0.05812746 0.00423984 0.00493951
v 0.05840325 0.00465951 0.00766432
v 0.05822040 0.00558898 0.00656356
v 0.05854953 0.00563205 0.01107232
v 0.05842764 0.00698219 0.01107232
v 0.05749967 0.01025137 0.00577995
v 0.05737015 0.00558297 0.00108619
v 0.05796289 0.00558197 0.00446247
v 0.05769319 0.00558397 0.00277499
v 0.05648486 0.00580833 -0.00242620
v 0.05749358 0.00418175 0.00116680
v 0.05788365 0.00278554 0.00287013
v 0.05799641 0.00138532 0.00331282
v 0.05783337 0.00002116 0.00232966
v 0.05782271 0.00002116 0.00227548
v 0.05650771 0.00558597 -0.00242620
v 0.05832097 0.00002116 0.00546809
v 0.05825393 0.00002116 0.00497387
v 0.05806346 0.00002116 0.00370396
v 0.05781204 0.00418375 0.00284106
v 0.05800251 0.00002116 0.00330885
f 1 2 3
f 1 3 4
f 1 4 9
f 1 9 16
f 1 16 28
f 1 28 47
f 1 47 77
f 1 77 104
f 1 104 81
f 1 81 49
f 1 49 29
f 1 29 17
f 1 17 10
f 1 10 5
f 1 5 11
f 1 11 19
f 1 19 32
f 1 32 54
f 1 54 86
f 1 86 108
f 1 108 114
f 1 114 92
f 1 92 59
f 1 59 35
f 1 35 20
f 1 20 12
f 1 12 6
f 1 6 2
f 2 6 7
f 2 7 3
f 3 7 6
f 3 6 12
f 3 12 21
f 3 21 36
f 3 36 61
f 3 61 91
f 3 91 113
f 3 113 112
f 3 112 119
f 3 119 117
f 3 117 116
f 3 116 115
f 3 115 95
f 3 95 94
f 3 94 62
f 3 62 37
f 3 37 22
f 3 22 13
f 3 13 8
f 3 8 14
f 3 14 24
f 3 24 40
f 3 40 65
f 3 65 64
f 3 64 67
f 3 67 66
f 3 66 71
f 3 71 102
f 3 102 103
f 3 103 74
f 3 74 43
f 3 43 25
f 3 25 15
f 3 15 9
f 3 9 4
f 5 10 11
f 8 13 14
f 9 15 16
f 10 17 18
f 10 18 11
f 11 18 19
f 12 20 21
f 13 22 23
f 13 23 14
f 14 23 24
f 15 25 16
f 16 25 26
f 16 26 27
f 16 27 28
f 17 29 30
f 17 30 31
f 17 31 18
f 18 32 19
f 18 31 33
f 18 33 32
f 20 34 21
f 20 35 34
f 21 34 36
f 22 37 38
f 22 38 23
f 23 39 40
f 23 40 24
f 23 38 41
f 23 41 42
f 23 42 39
f 25 43 26
f 26 43 44
f 26 44 45
f 26 45 27
f 27 46 47
f 27 47 28
f 27 45 48
f 27 48 46
f 29 49 50
f 29 50 30
f 30 51 31
f 30 50 52
f 30 52 53
f 30 53 51
f 31 51 33
f 32 33 54
f 33 51 55
f 33 55 54
f 34 56 57
f 34 57 58
f 34 58 36
f 34 35 56
f 35 59 60
f 35 60 56
f 36 58 61
f 37 62 38
f 38 62 63
f 38 63 41
f 39 64 65
f 39 65 40
f 39 42 66
f 39 66 67
f 39 67 64
f 41 63 68
f 41 68 69
f 41 69 70
f 41 70 42
f 42 71 66
f 42 70 72
f 42 72 73
f 42 73 71
f 43 74 44
f 44 74 75
f 44 75 76
f 44 76 45
f 45 76 48
f 46 77 47
f 46 48 78
f 46 78 79
f 46 79 77
f 48 76 80
f 48 80 78
f 49 81 79
f 49 79 50
f 50 79 78
f 50 78 52
f 51 53 82
f 51 82 55
f 52 78 83
f 52 83 84
f 52 84 85
f 52 85 53
f 53 85 82
f 54 55 86
f 55 82 87
f 55 87 86
f 56 60 57
f 57 88 89
f 57 89 58
f 57 60 90
f 57 90 88
f 58 89 91
f 58 91 61
f 59 92 60
f 60 92 93
f 60 93 87
f 60 87 90
f 62 94 63
f 63 94 95
f 63 95 96
f 63 96 68
f 68 96 97
f 68 97 98
f 68 98 99
f 68 99 69
f 69 100 70
f 69 99 101
f 69 101 100
f 70 100 72
f 71 73 102
f 72 100 101
f 72 101 80
f 72 80 76
f 72 76 73
f 73 76 75
f 73 75 103
f 73 103 102
f 74 103 75
f 77 79 104
f 78 80 83
f 79 81 104
f 80 101 83
f 82 85 105
f 82 105 87
f 83 101 106
f 83 106 84
f 84 106 107
f 84 107 85
f 85 107 105
f 86 87 108
f 87 105 90
f 87 93 108
f 88 90 109
f 88 109 110
f 88 110 89
f 89 110 111
f 89 111 112
f 89 112 113
f 89 113 91
f 90 105 109
f 92 114 93
f 93 114 108
f 95 115 96
f 96 115 97
f 97 116 117
f 97 117 111
f 97 111 98
f 97 115 116
f 98 111 110
f 98 110 118
f 98 118 99
f 99 118 106
f 99 106 101
f 105 107 109
f 106 118 107
f 107 118 109
f 109 118 110
f 111 117 119
f 111 119 112

