# https://github.com/mikedh/trimesh
v 0.02328679 0.01716160 -0.03181018
v 0.02328556 0.01716160 -0.03190274
v 0.02326227 0.01716160 -0.03165330
v 0.02340570 0.01699374 -0.03185646
v 0.02326472 0.01716160 -0.03216236
v 0.02389606 0.01624859 -0.03224659
v 0.02315929 0.01716160 -0.03110305
v 0.02431655 0.01544750 -0.03135989
v 0.02502758 0.01442910 -0.03168986
v 0.02455192 0.01525818 -0.03205916
v 0.02319485 0.01716160 -0.03265800
v 0.02450044 0.01520689 -0.03270289
v 0.02314949 0.01716160 -0.03287644
v 0.02310290 0.01716160 -0.03095959
v 0.02331008 0.01690701 -0.03104474
v 0.02517959 0.01390965 -0.03094848
v 0.02560621 0.01344242 -0.03155380
v 0.02517101 0.01416891 -0.03238265
v 0.02504229 0.01405513 -0.03306294
v 0.02452986 0.01482732 -0.03329896
v 0.02370727 0.01624300 -0.03308978
v 0.02304651 0.01716160 -0.03318974
v 0.02289082 0.01716160 -0.03045192
v 0.02302812 0.01691540 -0.03038389
v 0.02367050 0.01622528 -0.03081937
v 0.02533650 0.01322046 -0.03012889
v 0.02589674 0.01253873 -0.03058057
v 0.02639937 0.01185421 -0.03096005
v 0.02467697 0.01447480 -0.03049820
v 0.02612967 0.01247159 -0.03139599
v 0.02617870 0.01231398 -0.03221095
v 0.02491234 0.01387514 -0.03359976
v 0.02666416 0.01109508 -0.03269271
v 0.02673772 0.01064370 -0.03315133
v 0.02405298 0.01539154 -0.03356922
v 0.02311271 0.01697602 -0.03337346
v 0.02299380 0.01716160 -0.03333598
v 0.02274984 0.01716160 -0.03017425
v 0.02303425 0.01660205 -0.02996600
v 0.02386051 0.01537382 -0.02996600
v 0.02387032 0.01537289 -0.02998589
v 0.02471374 0.01408777 -0.02996600
v 0.02515017 0.01340885 -0.02996600
v 0.02535489 0.01308430 -0.02996600
v 0.02561233 0.01264971 -0.02996600
v 0.02589307 0.01217223 -0.02996600
v 0.02611005 0.01177587 -0.02996600
v 0.02656609 0.01115010 -0.03031123
v 0.02708833 0.01045998 -0.03092534
v 0.02674140 0.01119300 -0.03100309
v 0.02694367 0.01088058 -0.03174586
v 0.02694244 0.01075934 -0.03227482
v 0.02623019 0.01122191 -0.03365067
v 0.02502267 0.01315425 -0.03386216
v 0.02415473 0.01470795 -0.03387512
v 0.02723789 0.00965888 -0.03285145
v 0.02683211 0.00991908 -0.03354747
v 0.02331744 0.01614414 -0.03378719
v 0.02293005 0.01716160 -0.03342761
v 0.02264074 0.01716160 -0.02996600
v 0.02391568 0.01529082 -0.02996600
v 0.02642021 0.01117715 -0.02996600
v 0.02655751 0.01088898 -0.02996600
v 0.02698903 0.00993120 -0.02996600
v 0.02707975 0.00981369 -0.03007151
v 0.02730899 0.00980344 -0.03074578
v 0.02756275 0.00912544 -0.03070923
v 0.02741687 0.00977732 -0.03159360
v 0.02732493 0.00993213 -0.03211932
v 0.02651215 0.00987058 -0.03394592
v 0.02585874 0.01110534 -0.03405051
v 0.02508152 0.01241470 -0.03416806
v 0.02427119 0.01400198 -0.03409448
v 0.02336279 0.01551371 -0.03406764
v 0.02719376 0.00895105 -0.03344010
v 0.02763386 0.00896317 -0.03218041
v 0.02768167 0.00815088 -0.03279082
v 0.02263828 0.01671209 -0.03401349
v 0.02253286 0.01716160 -0.03381357
v 0.02271797 0.01716160 -0.03365067
v 0.01548266 0.01716160 -0.02996600
v 0.02703684 0.00981369 -0.02996600
v 0.02707116 0.00972510 -0.02996600
v 0.02772335 0.00843159 -0.03055882
v 0.02791459 0.00767992 -0.03054308
v 0.02776748 0.00863117 -0.03137656
v 0.02747817 0.00855936 -0.02996600
v 0.02713246 0.00848475 -0.03363170
v 0.02717659 0.00767992 -0.03376544
v 0.02689586 0.00763422 -0.03403293
v 0.02657590 0.00860505 -0.03413520
v 0.02592249 0.01034900 -0.03416899
v 0.02429203 0.01342470 -0.03428052
v 0.02519920 0.01118368 -0.03435317
v 0.02362759 0.01459417 -0.03423655
v 0.02211482 0.01682027 -0.03426339
v 0.02756153 0.00763422 -0.03335912
v 0.02798692 0.00763422 -0.03161767
v 0.02796730 0.00763422 -0.03183240
v 0.02791949 0.00763422 -0.03216144
v 0.02784839 0.00763422 -0.03254462
v 0.02768534 0.00763422 -0.03307682
v 0.02778955 0.00763422 -0.03281812
v 0.02224354 0.01716160 -0.03404265
v 0.02235020 0.01716160 -0.03395842
v 0.01554764 0.01716160 -0.03147143
v 0.02218592 0.00763422 -0.03163201
v 0.02218470 0.00763422 -0.03159406
v 0.02213321 0.00763422 -0.02996600
v 0.02750023 0.00848475 -0.02996600
v 0.02752720 0.00838496 -0.02996600
v 0.02772948 0.00763422 -0.02996600
v 0.02790601 0.00763422 -0.03048200
v 0.02792317 0.00763422 -0.03053661
v 0.02793053 0.00763422 -0.03058427
v 0.02800653 0.00763422 -0.03123309
v 0.02749410 0.00763422 -0.03343640
v 0.02719130 0.00763422 -0.03376081
v 0.02664945 0.00763422 -0.03419398
v 0.02635278 0.00763422 -0.03429163
v 0.02592004 0.00843066 -0.03436521
v 0.02443669 0.01254806 -0.03437816
v 0.02364108 0.01381732 -0.03440963
v 0.02520533 0.00983328 -0.03446378
v 0.02454457 0.01110347 -0.03451376
v 0.02151903 0.01672235 -0.03446841
v 0.02171763 0.01716160 -0.03429070
v 0.02190029 0.01716160 -0.03422637
v 0.02203023 0.01716160 -0.03416343
v 0.01558196 0.01716160 -0.03221234
v 0.02221902 0.00763422 -0.03233359
v 0.02600095 0.00763422 -0.03438696
v 0.02598869 0.00767153 -0.03438834
v 0.02369992 0.01257697 -0.03453783
v 0.02290553 0.01398612 -0.03455125
v 0.02292882 0.01462775 -0.03445684
v 0.02519185 0.00830569 -0.03452626
v 0.02440114 0.01063158 -0.03458549
v 0.02598746 0.00763422 -0.03439020
v 0.02555839 0.00763422 -0.03448183
v 0.02138541 0.01612363 -0.03457948
v 0.02100047 0.01716160 -0.03450358
v 0.02124075 0.01716160 -0.03443370
v 0.01559422 0.01716160 -0.03229055
v 0.02232936 0.00763422 -0.03287320
v 0.02298889 0.01324564 -0.03460169
v 0.02541496 0.00763422 -0.03450913
v 0.02451147 0.00961132 -0.03460261
v 0.02005897 0.01669158 -0.03468869
v 0.02140747 0.01542978 -0.03463270
v 0.02052359 0.01689395 -0.03462807
v 0.02055424 0.01716160 -0.03458595
v 0.01579772 0.01716160 -0.03302915
v 0.02248995 0.00763422 -0.03332533
v 0.02524088 0.00763422 -0.03452857
v 0.02491970 0.00763422 -0.03456235
v 0.02453231 0.00848568 -0.03459336
v 0.01951222 0.01716160 -0.03469286
v 0.01978069 0.01716160 -0.03467203
v 0.02023183 0.01716160 -0.03463085
v 0.02037403 0.01716160 -0.03461372
v 0.01581120 0.01716160 -0.03306247
v 0.02258557 0.00763422 -0.03354608
v 0.02451024 0.00763422 -0.03454014
v 0.01889559 0.01716160 -0.03465584
v 0.01905986 0.01716160 -0.03466740
v 0.01610788 0.01716160 -0.03365808
v 0.02286875 0.00763422 -0.03388530
v 0.02443179 0.00763422 -0.03453227
v 0.01823728 0.01716160 -0.03457207
v 0.01635551 0.01716160 -0.03384828
v 0.02293863 0.00763422 -0.03396351
v 0.02408240 0.00763422 -0.03446193
v 0.02363249 0.00855469 -0.03450821
v 0.01808649 0.01716160 -0.03454569
v 0.01696233 0.01716160 -0.03425414
v 0.02317523 0.00763422 -0.03414076
v 0.02366804 0.00763422 -0.03437724
f 1 2 5
f 1 5 11
f 1 11 13
f 1 13 22
f 1 22 37
f 1 37 59
f 1 59 80
f 1 80 79
f 1 79 105
f 1 105 104
f 1 104 129
f 1 129 128
f 1 128 127
f 1 127 143
f 1 143 142
f 1 142 152
f 1 152 161
f 1 161 160
f 1 160 159
f 1 159 158
f 1 158 166
f 1 166 165
f 1 165 170
f 1 170 175
f 1 175 176
f 1 176 171
f 1 171 167
f 1 167 162
f 1 162 153
f 1 153 144
f 1 144 130
f 1 130 106
f 1 106 81
f 1 81 60
f 1 60 38
f 1 38 23
f 1 23 14
f 1 14 7
f 1 7 3
f 1 3 4
f 1 4 2
f 2 4 6
f 2 6 5
f 3 7 8
f 3 8 4
f 4 8 9
f 4 9 10
f 4 10 6
f 5 6 11
f 6 10 12
f 6 12 13
f 6 13 11
f 7 14 15
f 7 15 8
f 8 15 16
f 8 16 9
f 9 16 17
f 9 17 10
f 10 17 18
f 10 18 12
f 12 19 20
f 12 20 21
f 12 21 13
f 12 18 19
f 13 21 22
f 14 23 15
f 15 23 24
f 15 24 25
f 15 25 16
f 16 26 27
f 16 27 28
f 16 28 17
f 16 25 29
f 16 29 26
f 17 28 30
f 17 30 31
f 17 31 18
f 18 31 19
f 19 32 20
f 19 31 33
f 19 33 34
f 19 34 32
f 20 32 35
f 20 35 21
f 21 35 36
f 21 36 22
f 22 36 37
f 23 38 24
f 24 39 40
f 24 40 41
f 24 41 42
f 24 42 25
f 24 38 39
f 25 42 29
f 26 29 42
f 26 42 43
f 26 43 44
f 26 44 45
f 26 45 46
f 26 46 27
f 27 46 28
f 28 46 47
f 28 47 48
f 28 48 49
f 28 49 50
f 28 50 30
f 30 50 51
f 30 51 31
f 31 51 52
f 31 52 33
f 32 34 53
f 32 53 54
f 32 54 55
f 32 55 35
f 33 52 34
f 34 52 56
f 34 56 57
f 34 57 53
f 35 55 58
f 35 58 36
f 36 58 59
f 36 59 37
f 38 60 39
f 39 60 81
f 39 81 109
f 39 109 112
f 39 112 111
f 39 111 110
f 39 110 87
f 39 87 83
f 39 83 82
f 39 82 64
f 39 64 63
f 39 63 62
f 39 62 47
f 39 47 46
f 39 46 45
f 39 45 44
f 39 44 43
f 39 43 42
f 39 42 61
f 39 61 40
f 40 61 41
f 41 61 42
f 47 62 48
f 48 62 63
f 48 63 64
f 48 64 65
f 48 65 49
f 49 65 66
f 49 66 67
f 49 67 68
f 49 68 51
f 49 51 50
f 51 68 69
f 51 69 52
f 52 69 56
f 53 57 70
f 53 70 71
f 53 71 72
f 53 72 54
f 54 72 55
f 55 72 73
f 55 73 74
f 55 74 58
f 56 75 57
f 56 69 76
f 56 76 77
f 56 77 75
f 57 75 70
f 58 74 78
f 58 78 79
f 58 79 80
f 58 80 59
f 64 82 65
f 65 82 83
f 65 83 67
f 65 67 66
f 67 84 85
f 67 85 86
f 67 86 68
f 67 83 87
f 67 87 84
f 68 86 76
f 68 76 69
f 70 75 88
f 70 88 89
f 70 89 90
f 70 90 91
f 70 91 92
f 70 92 71
f 71 92 72
f 72 93 73
f 72 92 94
f 72 94 93
f 73 93 74
f 74 93 95
f 74 95 96
f 74 96 78
f 75 77 97
f 75 97 88
f 76 86 98
f 76 98 99
f 76 99 100
f 76 100 101
f 76 101 77
f 77 102 97
f 77 101 103
f 77 103 102
f 78 96 104
f 78 104 105
f 78 105 79
f 81 106 107
f 81 107 108
f 81 108 109
f 84 87 110
f 84 110 111
f 84 111 112
f 84 112 113
f 84 113 85
f 85 113 114
f 85 114 115
f 85 115 116
f 85 116 86
f 86 116 98
f 88 97 117
f 88 117 118
f 88 118 89
f 89 118 90
f 90 118 117
f 90 117 97
f 90 97 102
f 90 102 103
f 90 103 101
f 90 101 100
f 90 100 99
f 90 99 98
f 90 98 116
f 90 116 115
f 90 115 114
f 90 114 113
f 90 113 112
f 90 112 109
f 90 109 108
f 90 108 107
f 90 107 131
f 90 131 145
f 90 145 154
f 90 154 163
f 90 163 168
f 90 168 172
f 90 172 177
f 90 177 178
f 90 178 173
f 90 173 169
f 90 169 164
f 90 164 156
f 90 156 155
f 90 155 147
f 90 147 140
f 90 140 139
f 90 139 132
f 90 132 120
f 90 120 119
f 90 119 91
f 91 119 120
f 91 120 121
f 91 121 94
f 91 94 92
f 93 94 122
f 93 122 123
f 93 123 96
f 93 96 95
f 94 121 124
f 94 124 125
f 94 125 122
f 96 126 127
f 96 127 128
f 96 128 129
f 96 129 104
f 96 123 126
f 106 130 107
f 107 130 131
f 120 132 133
f 120 133 121
f 121 133 124
f 122 125 134
f 122 134 123
f 123 134 135
f 123 135 136
f 123 136 126
f 124 137 138
f 124 138 125
f 124 133 139
f 124 139 140
f 124 140 137
f 125 138 134
f 126 141 142
f 126 142 143
f 126 143 127
f 126 136 135
f 126 135 141
f 130 144 131
f 131 144 145
f 132 139 133
f 134 138 146
f 134 146 135
f 135 146 141
f 137 140 147
f 137 147 148
f 137 148 138
f 138 148 149
f 138 149 146
f 141 150 151
f 141 151 152
f 141 152 142
f 141 146 150
f 144 153 145
f 145 153 154
f 146 149 150
f 147 155 148
f 148 155 156
f 148 156 157
f 148 157 149
f 149 158 159
f 149 159 160
f 149 160 151
f 149 151 150
f 149 157 158
f 151 160 161
f 151 161 152
f 153 162 154
f 154 162 163
f 156 164 157
f 157 164 165
f 157 165 166
f 157 166 158
f 162 167 163
f 163 167 168
f 164 169 165
f 165 169 170
f 167 171 172
f 167 172 168
f 169 173 174
f 169 174 170
f 170 174 175
f 171 176 177
f 171 177 172
f 173 178 174
f 174 178 175
f 175 178 176
f 176 178 177

