# https://github.com/mikedh/trimesh
v 0.00941308 0.04680884 0.00327906
v 0.01892074 0.04371668 0.00327906
v 0.00941308 0.04948126 0.01026147
v 0.00941308 0.05695750 0.00327906
v 0.01892074 0.04652947 0.01026147
v 0.01892074 0.05465712 0.00327906
v 0.00941308 0.05763889 0.01026147
v 0.00941308 0.05696159 0.00330230
v 0.01069672 0.05673673 0.00327906
v 0.01892074 0.05532625 0.01026147
v 0.01862566 0.05475251 0.00327906
v 0.01892074 0.05475797 0.00395981
v 0.01053196 0.05745764 0.01026147
v 0.00941308 0.05761981 0.00985070
v 0.00941308 0.05698203 0.00343490
v 0.01040908 0.05688255 0.00389693
v 0.01167690 0.05673128 0.00448950
v 0.01123754 0.05663452 0.00327906
v 0.01892074 0.05530580 0.00993203
v 0.01824681 0.05555656 0.01026147
v 0.01841902 0.05481929 0.00327906
v 0.01793498 0.05512728 0.00431863
v 0.01892074 0.05486835 0.00478408
v 0.01080656 0.05740858 0.01026147
v 0.01058129 0.05744401 0.01015553
v 0.00941308 0.05760891 0.00962447
v 0.00941308 0.05706789 0.00406096
v 0.00981614 0.05715238 0.00516683
v 0.01108209 0.05701337 0.00576077
v 0.01235269 0.05684439 0.00635061
v 0.01294657 0.05655139 0.00508139
v 0.01229219 0.05643146 0.00327906
v 0.01224285 0.05644101 0.00327906
v 0.01869268 0.05534396 0.00930939
v 0.01892074 0.05527174 0.00941464
v 0.01742859 0.05571328 0.00871681
v 0.01798431 0.05564105 0.01026147
v 0.01789588 0.05497601 0.00327906
v 0.01666809 0.05541483 0.00372538
v 0.01607328 0.05575007 0.00499664
v 0.01734575 0.05545026 0.00558648
v 0.01892074 0.05489288 0.00501305
v 0.01207437 0.05717964 0.01026147
v 0.01243740 0.05707742 0.00947957
v 0.01117331 0.05726822 0.00888631
v 0.00941308 0.05759120 0.00934151
v 0.00989991 0.05744538 0.00829647
v 0.00941308 0.05718781 0.00497819
v 0.01049286 0.05725459 0.00702726
v 0.00941308 0.05731591 0.00603348
v 0.00941308 0.05737179 0.00652285
v 0.01303221 0.05688663 0.00821035
v 0.01362237 0.05662634 0.00694182
v 0.01176347 0.05708015 0.00761778
v 0.01421345 0.05632517 0.00567329
v 0.01480454 0.05601582 0.00440475
v 0.01353952 0.05623659 0.00381149
v 0.01378619 0.05609894 0.00327906
v 0.01892074 0.05525811 0.00922600
v 0.01892074 0.05522812 0.00882412
v 0.01801875 0.05541483 0.00744759
v 0.01675187 0.05575144 0.00685570
v 0.01616078 0.05604307 0.00812424
v 0.01684030 0.05597493 0.00998466
v 0.01742673 0.05581276 0.01026147
v 0.01687660 0.05527719 0.00327906
v 0.01570188 0.05561788 0.00327906
v 0.01532768 0.05572009 0.00327906
v 0.01548313 0.05605806 0.00626449
v 0.01861263 0.05511093 0.00617906
v 0.01892074 0.05494330 0.00550857
v 0.01272224 0.05705153 0.01026147
v 0.01361399 0.05687301 0.01026147
v 0.01370242 0.05684711 0.01007215
v 0.00941308 0.05749989 0.00806888
v 0.01429258 0.05662498 0.00880361
v 0.01489018 0.05635242 0.00753303
v 0.01439404 0.05595176 0.00327906
v 0.01892074 0.05501826 0.00632327
v 0.01557063 0.05630473 0.00939277
v 0.01516385 0.05646281 0.01026147
v 0.01607980 0.05620252 0.01026147
v 0.01671091 0.05602263 0.01026147
v 0.01693990 0.05595721 0.01026147
v 0.01892074 0.05499645 0.00606697
v 0.01377223 0.05683621 0.01026147
v 0.01411013 0.05674763 0.01026147
v 0.01482874 0.05655412 0.01026147
f 1 2 3
f 1 3 7
f 1 7 14
f 1 14 26
f 1 26 46
f 1 46 75
f 1 75 51
f 1 51 50
f 1 50 48
f 1 48 27
f 1 27 15
f 1 15 8
f 1 8 4
f 1 4 9
f 1 9 18
f 1 18 33
f 1 33 32
f 1 32 58
f 1 58 78
f 1 78 68
f 1 68 67
f 1 67 66
f 1 66 38
f 1 38 21
f 1 21 11
f 1 11 6
f 1 6 2
f 2 5 3
f 2 6 12
f 2 12 23
f 2 23 42
f 2 42 71
f 2 71 85
f 2 85 79
f 2 79 60
f 2 60 59
f 2 59 35
f 2 35 19
f 2 19 10
f 2 10 5
f 3 5 10
f 3 10 20
f 3 20 37
f 3 37 65
f 3 65 84
f 3 84 83
f 3 83 82
f 3 82 81
f 3 81 88
f 3 88 87
f 3 87 86
f 3 86 73
f 3 73 72
f 3 72 43
f 3 43 24
f 3 24 13
f 3 13 7
f 4 8 9
f 6 11 12
f 7 13 14
f 8 15 16
f 8 16 9
f 9 17 18
f 9 16 17
f 10 19 20
f 11 21 12
f 12 21 22
f 12 22 23
f 13 24 25
f 13 25 26
f 13 26 14
f 15 27 16
f 16 27 28
f 16 28 29
f 16 29 17
f 17 29 30
f 17 30 31
f 17 31 32
f 17 32 33
f 17 33 18
f 19 34 20
f 19 35 34
f 20 34 36
f 20 36 37
f 21 38 39
f 21 39 22
f 22 39 40
f 22 40 41
f 22 41 23
f 23 41 42
f 24 43 44
f 24 44 25
f 25 44 45
f 25 45 26
f 26 45 47
f 26 47 46
f 27 48 28
f 28 49 29
f 28 48 50
f 28 50 51
f 28 51 49
f 29 49 30
f 30 52 53
f 30 53 31
f 30 49 54
f 30 54 52
f 31 53 55
f 31 55 56
f 31 56 57
f 31 57 32
f 32 57 58
f 34 35 59
f 34 59 60
f 34 60 61
f 34 61 36
f 36 62 63
f 36 63 64
f 36 64 65
f 36 65 37
f 36 61 62
f 38 66 39
f 39 66 67
f 39 67 68
f 39 68 40
f 40 68 56
f 40 56 55
f 40 55 69
f 40 69 41
f 41 69 62
f 41 62 61
f 41 61 70
f 41 70 42
f 42 70 71
f 43 72 44
f 44 72 73
f 44 73 74
f 44 74 52
f 44 52 54
f 44 54 45
f 45 54 47
f 46 47 75
f 47 54 49
f 47 49 75
f 49 51 75
f 52 74 76
f 52 76 53
f 53 76 77
f 53 77 69
f 53 69 55
f 56 68 78
f 56 78 57
f 57 78 58
f 60 79 70
f 60 70 61
f 62 69 77
f 62 77 63
f 63 77 76
f 63 76 80
f 63 80 64
f 64 80 81
f 64 81 82
f 64 82 83
f 64 83 84
f 64 84 65
f 70 79 85
f 70 85 71
f 73 86 74
f 74 86 87
f 74 87 76
f 76 88 81
f 76 81 80
f 76 87 88

