# https://github.com/mikedh/trimesh
v -0.02752191 0.00839293 -0.03166848
v -0.02749063 0.00839293 -0.03117443
v -0.02727168 0.00910741 -0.03130068
v -0.02748861 0.00850210 -0.03169144
v -0.02750576 0.00839293 -0.03200295
v -0.02745027 0.00839293 -0.03054540
v -0.02698008 0.00970303 -0.03034975
v -0.02698714 0.00991171 -0.03145753
v -0.02743413 0.00839293 -0.03036341
v -0.02706887 0.00967816 -0.03212482
v -0.02748760 0.00839293 -0.03229915
v -0.02683075 0.00971962 -0.02916164
v -0.02643825 0.01100070 -0.03018908
v -0.02672682 0.01051701 -0.03102032
v -0.02721921 0.00873013 -0.02943708
v -0.02640596 0.01131579 -0.03118919
v -0.02644027 0.01123287 -0.03188162
v -0.02740083 0.00839293 -0.03005354
v -0.02645036 0.01101452 -0.03262050
v -0.02683680 0.00995041 -0.03280195
v -0.02747852 0.00839293 -0.03234561
v -0.02716876 0.00877712 -0.02916164
v -0.02627782 0.01105045 -0.02916164
v -0.02600136 0.01166819 -0.02916164
v -0.02604373 0.01205376 -0.03083943
v -0.02732717 0.00839293 -0.02949228
v -0.02580460 0.01259135 -0.03154388
v -0.02577332 0.01259550 -0.03234561
v -0.02615069 0.01173867 -0.03247623
v -0.02559473 0.01265768 -0.03296481
v -0.02617490 0.01122596 -0.03322002
v -0.02731103 0.00839293 -0.03301017
v -0.02711125 0.00907562 -0.03289321
v -0.02728278 0.00839293 -0.02916164
v -0.02574104 0.01220578 -0.02916164
v -0.02594082 0.01187687 -0.02945183
v -0.02563408 0.01269223 -0.03010218
v -0.02509427 0.01381439 -0.03079734
v -0.02504180 0.01399819 -0.03200950
v -0.02541715 0.01331274 -0.03214285
v -0.02496310 0.01394430 -0.03272489
v -0.02432542 0.01470714 -0.03316319
v -0.02466646 0.01397470 -0.03332277
v -0.02494898 0.01329615 -0.03343972
v -0.02530011 0.01253192 -0.03350749
v -0.02647558 0.00992553 -0.03348672
v -0.02730497 0.00839293 -0.03302055
v -0.02080706 0.00839293 -0.02916164
v -0.02559170 0.01251258 -0.02916164
v -0.02522241 0.01322429 -0.02916164
v -0.02514068 0.01337216 -0.02916164
v -0.02482285 0.01407282 -0.02972509
v -0.02421241 0.01518807 -0.03037216
v -0.02416297 0.01542438 -0.03161492
v -0.02460693 0.01471267 -0.03176631
v -0.02411555 0.01543820 -0.03230189
v -0.02397530 0.01537463 -0.03299049
v -0.02378056 0.01525164 -0.03352443
v -0.02431735 0.01397055 -0.03379605
v -0.02458271 0.01274751 -0.03406657
v -0.02632020 0.00839293 -0.03405072
v -0.02676012 0.00839293 -0.03371790
v -0.02679543 0.00851454 -0.03365396
v -0.02688221 0.00839293 -0.03359275
v -0.02723636 0.00839293 -0.03311346
v -0.02125505 0.00839293 -0.03248005
v -0.01721403 0.01429117 -0.02916164
v -0.02476231 0.01403965 -0.02916164
v -0.02392989 0.01537325 -0.02916164
v -0.02378662 0.01560266 -0.02916164
v -0.02379065 0.01564550 -0.02942724
v -0.02368370 0.01608635 -0.03112744
v -0.02307527 0.01696528 -0.03188053
v -0.02314994 0.01677871 -0.03260520
v -0.02355455 0.01610708 -0.03279211
v -0.02287549 0.01681603 -0.03325063
v -0.02212884 0.01735361 -0.03362335
v -0.02285935 0.01618447 -0.03374631
v -0.02322259 0.01538016 -0.03395727
v -0.02354950 0.01457309 -0.03409335
v -0.02492981 0.00925113 -0.03449941
v -0.02582276 0.00839293 -0.03429993
v -0.02603465 0.00900376 -0.03407477
v -0.02254757 0.01559575 -0.03428244
v -0.02275542 0.01456065 -0.03440595
v -0.02682974 0.00839293 -0.03365614
v -0.02135393 0.00839293 -0.03289485
v -0.01721403 0.01507475 -0.03259536
v -0.01721403 0.02250974 -0.02916164
v -0.02346172 0.01606424 -0.02916164
v -0.02318324 0.01663637 -0.03014863
v -0.02316911 0.01681188 -0.03116733
v -0.02248703 0.01766317 -0.03079625
v -0.02220653 0.01805842 -0.03205760
v -0.02254858 0.01761757 -0.03238824
v -0.02212480 0.01801143 -0.03289813
v -0.02166672 0.01815930 -0.03342278
v -0.02102500 0.01832376 -0.03391847
v -0.02198153 0.01394844 -0.03462292
v -0.02507510 0.00839293 -0.03453165
v -0.02195126 0.01549348 -0.03447591
v -0.02126716 0.01734256 -0.03419883
v -0.02118947 0.01677180 -0.03442672
v -0.02135999 0.00839293 -0.03291726
v -0.01721403 0.01553218 -0.03342715
v -0.01721403 0.02250974 -0.03325938
v -0.01725843 0.02250974 -0.02938898
v -0.01733713 0.02242129 -0.02916164
v -0.02311059 0.01656174 -0.02916164
v -0.02244869 0.01746279 -0.02929772
v -0.02206527 0.01819109 -0.03102688
v -0.02178982 0.01836936 -0.02985243
v -0.02156279 0.01880606 -0.03195595
v -0.02157288 0.01873005 -0.03257296
v -0.02051243 0.01972645 -0.03297191
v -0.02013507 0.01961728 -0.03368074
v -0.02031669 0.01806533 -0.03431687
v -0.01933998 0.02014104 -0.03386491
v -0.01816350 0.02087763 -0.03410537
v -0.01825128 0.02005398 -0.03439557
v -0.02177468 0.01340256 -0.03464205
v -0.02471489 0.00839293 -0.03456062
v -0.02503272 0.00839293 -0.03453657
v -0.02119148 0.01593295 -0.03457756
v -0.02115819 0.01528066 -0.03462839
v -0.01874468 0.01816759 -0.03470708
v -0.01784163 0.01981490 -0.03461035
v -0.02160214 0.00839293 -0.03350312
v -0.01721403 0.01572842 -0.03370150
v -0.01722211 0.02250974 -0.03324626
v -0.01721403 0.02240471 -0.03350858
v -0.01741482 0.02250974 -0.03026941
v -0.01735933 0.02240471 -0.02916164
v -0.02264746 0.01717534 -0.02916164
v -0.02228120 0.01764383 -0.02916164
v -0.02132064 0.01901889 -0.03083669
v -0.02115213 0.01925244 -0.03162094
v -0.02060223 0.01955647 -0.02916164
v -0.02059214 0.01956753 -0.02916164
v -0.02092915 0.01933121 -0.02998086
v -0.02176056 0.01828091 -0.02916164
v -0.02076771 0.01964906 -0.03234178
v -0.01979605 0.02056945 -0.03267242
v -0.01890006 0.02135718 -0.03290196
v -0.01932888 0.02076293 -0.03324407
v -0.01863873 0.02110013 -0.03360477
v -0.01721403 0.02235496 -0.03357471
v -0.01721403 0.02199703 -0.03383102
v -0.01723220 0.02194451 -0.03385780
v -0.01721403 0.02195419 -0.03385999
v -0.01721403 0.02107387 -0.03436060
v -0.01721403 0.02101583 -0.03438300
v -0.02427295 0.00839293 -0.03458357
v -0.01869019 0.01679115 -0.03473113
v -0.01802930 0.01806809 -0.03473167
v -0.01721403 0.02001528 -0.03466391
v -0.01721403 0.01948737 -0.03471200
v -0.01721403 0.01889865 -0.03474151
v -0.01721403 0.01882541 -0.03474479
v -0.01721403 0.02036769 -0.03461199
v -0.02162132 0.00839293 -0.03354575
v -0.01721403 0.01589978 -0.03390699
v -0.01741482 0.02250974 -0.03292054
v -0.01798894 0.02195004 -0.03322877
v -0.01756415 0.02250974 -0.03122854
v -0.01777302 0.02222643 -0.03016284
v -0.01737850 0.02238951 -0.02916164
v -0.02032274 0.02009544 -0.03122745
v -0.02007150 0.02036907 -0.03202645
v -0.01951050 0.02061368 -0.02916164
v -0.02012397 0.02021153 -0.03048255
v -0.01913717 0.02122589 -0.03233140
v -0.01818267 0.02202467 -0.03262050
v -0.02423158 0.00839293 -0.03458466
v -0.01721403 0.01813028 -0.03469889
v -0.02368269 0.00839293 -0.03453821
v -0.02420535 0.00839293 -0.03458248
v -0.02165360 0.00839293 -0.03358291
v -0.01721403 0.01628673 -0.03423654
v -0.01744307 0.02250974 -0.03286151
v -0.01761259 0.02250974 -0.03161820
v -0.01822303 0.02197630 -0.03106185
v -0.01858223 0.02152025 -0.02979231
v -0.01848637 0.02150919 -0.02916164
v -0.01912608 0.02116646 -0.03066618
v -0.01935007 0.02102550 -0.03143567
v -0.01848738 0.02182014 -0.03187670
v -0.01758736 0.02250974 -0.03233905
v -0.01721403 0.01751392 -0.03456991
v -0.02271405 0.00839293 -0.03436442
v -0.02273020 0.00839293 -0.03436879
v -0.02275946 0.00839293 -0.03437535
v -0.02343649 0.00839293 -0.03449777
v -0.02181908 0.00839293 -0.03377255
v -0.01721403 0.01674002 -0.03439557
v -0.02208545 0.00839293 -0.03402449
v -0.02212884 0.00839293 -0.03405236
v -0.02231349 0.00839293 -0.03416112
v -0.01761057 0.02250974 -0.03195868
v -0.01784768 0.02233423 -0.03171876
f 1 2 3
f 1 3 4
f 1 4 5
f 1 5 11
f 1 11 21
f 1 21 32
f 1 32 47
f 1 47 65
f 1 65 64
f 1 64 86
f 1 86 62
f 1 62 61
f 1 61 82
f 1 82 100
f 1 100 123
f 1 123 122
f 1 122 153
f 1 153 174
f 1 174 177
f 1 177 176
f 1 176 193
f 1 193 192
f 1 192 191
f 1 191 190
f 1 190 198
f 1 198 197
f 1 197 196
f 1 196 194
f 1 194 178
f 1 178 161
f 1 161 128
f 1 128 104
f 1 104 87
f 1 87 66
f 1 66 48
f 1 48 34
f 1 34 26
f 1 26 18
f 1 18 9
f 1 9 6
f 1 6 2
f 2 6 3
f 3 7 8
f 3 8 4
f 3 6 9
f 3 9 7
f 4 8 10
f 4 10 11
f 4 11 5
f 7 12 13
f 7 13 14
f 7 14 8
f 7 9 15
f 7 15 12
f 8 14 16
f 8 16 17
f 8 17 10
f 9 18 15
f 10 17 19
f 10 19 20
f 10 20 21
f 10 21 11
f 12 15 22
f 12 22 34
f 12 34 48
f 12 48 67
f 12 67 89
f 12 89 108
f 12 108 133
f 12 133 167
f 12 167 184
f 12 184 170
f 12 170 139
f 12 139 138
f 12 138 141
f 12 141 135
f 12 135 134
f 12 134 109
f 12 109 90
f 12 90 70
f 12 70 69
f 12 69 68
f 12 68 51
f 12 51 50
f 12 50 49
f 12 49 35
f 12 35 24
f 12 24 23
f 12 23 13
f 13 23 24
f 13 24 25
f 13 25 16
f 13 16 14
f 15 18 26
f 15 26 22
f 16 25 27
f 16 27 17
f 17 27 28
f 17 28 29
f 17 29 19
f 19 29 30
f 19 30 31
f 19 31 20
f 20 32 33
f 20 33 21
f 20 31 32
f 21 33 32
f 22 26 34
f 24 35 36
f 24 36 25
f 25 36 37
f 25 37 38
f 25 38 27
f 27 38 39
f 27 39 40
f 27 40 28
f 28 40 41
f 28 41 30
f 28 30 29
f 30 41 42
f 30 42 43
f 30 43 44
f 30 44 31
f 31 44 45
f 31 45 46
f 31 46 47
f 31 47 32
f 35 49 37
f 35 37 36
f 37 50 51
f 37 51 52
f 37 52 38
f 37 49 50
f 38 52 53
f 38 53 54
f 38 54 55
f 38 55 39
f 39 41 40
f 39 55 56
f 39 56 41
f 41 56 57
f 41 57 42
f 42 57 58
f 42 58 43
f 43 59 44
f 43 58 59
f 44 59 45
f 45 59 60
f 45 60 46
f 46 61 62
f 46 62 63
f 46 63 64
f 46 64 65
f 46 65 47
f 46 60 61
f 48 66 67
f 51 68 52
f 52 68 69
f 52 69 70
f 52 70 53
f 53 70 71
f 53 71 72
f 53 72 54
f 54 56 55
f 54 72 73
f 54 73 56
f 56 73 74
f 56 74 75
f 56 75 57
f 57 75 76
f 57 76 58
f 58 76 77
f 58 77 78
f 58 78 79
f 58 79 59
f 59 79 80
f 59 80 60
f 60 81 82
f 60 82 83
f 60 83 61
f 60 80 84
f 60 84 85
f 60 85 81
f 61 83 82
f 62 86 63
f 63 86 64
f 66 87 88
f 66 88 67
f 67 88 105
f 67 105 129
f 67 129 162
f 67 162 179
f 67 179 195
f 67 195 189
f 67 189 175
f 67 175 159
f 67 159 158
f 67 158 157
f 67 157 156
f 67 156 160
f 67 160 152
f 67 152 151
f 67 151 150
f 67 150 148
f 67 148 147
f 67 147 131
f 67 131 106
f 67 106 89
f 70 90 71
f 71 90 91
f 71 91 72
f 72 91 92
f 72 92 73
f 73 93 94
f 73 94 95
f 73 95 74
f 73 92 93
f 74 95 96
f 74 96 76
f 74 76 75
f 76 96 97
f 76 97 77
f 77 97 98
f 77 98 79
f 77 79 78
f 79 84 80
f 79 98 84
f 81 99 100
f 81 100 82
f 81 85 101
f 81 101 99
f 84 101 85
f 84 98 102
f 84 102 103
f 84 103 101
f 87 104 88
f 88 104 105
f 89 106 130
f 89 130 163
f 89 163 180
f 89 180 188
f 89 188 199
f 89 199 181
f 89 181 165
f 89 165 132
f 89 132 107
f 89 107 108
f 90 109 91
f 91 109 110
f 91 110 93
f 91 93 92
f 93 111 94
f 93 110 112
f 93 112 111
f 94 111 113
f 94 113 114
f 94 114 95
f 95 114 96
f 96 114 115
f 96 115 97
f 97 115 116
f 97 116 98
f 98 117 102
f 98 116 118
f 98 118 119
f 98 119 120
f 98 120 117
f 99 121 122
f 99 122 123
f 99 123 100
f 99 101 124
f 99 124 125
f 99 125 126
f 99 126 121
f 101 103 124
f 102 117 103
f 103 117 120
f 103 120 127
f 103 127 124
f 104 128 105
f 105 128 129
f 106 131 130
f 107 132 108
f 108 132 133
f 109 134 110
f 110 134 135
f 110 135 112
f 111 112 136
f 111 136 137
f 111 137 113
f 112 138 139
f 112 139 140
f 112 140 136
f 112 135 141
f 112 141 138
f 113 137 142
f 113 142 114
f 114 142 115
f 115 142 143
f 115 143 144
f 115 144 145
f 115 145 116
f 116 145 146
f 116 146 118
f 118 146 119
f 119 146 147
f 119 147 148
f 119 148 149
f 119 149 150
f 119 150 151
f 119 151 120
f 120 151 152
f 120 152 127
f 121 153 122
f 121 126 154
f 121 154 153
f 124 127 126
f 124 126 125
f 126 155 154
f 126 127 156
f 126 156 157
f 126 157 158
f 126 158 159
f 126 159 155
f 127 152 160
f 127 160 156
f 128 161 129
f 129 161 162
f 130 131 163
f 131 147 164
f 131 164 163
f 132 165 166
f 132 166 133
f 133 166 167
f 136 140 168
f 136 168 137
f 137 168 169
f 137 169 142
f 139 170 171
f 139 171 140
f 140 171 168
f 142 169 143
f 143 172 144
f 143 169 172
f 144 172 173
f 144 173 164
f 144 164 145
f 145 164 146
f 146 164 147
f 148 150 149
f 153 154 174
f 154 155 159
f 154 159 175
f 154 175 176
f 154 176 177
f 154 177 174
f 161 178 179
f 161 179 162
f 163 164 180
f 164 173 180
f 165 181 182
f 165 182 166
f 166 182 183
f 166 183 184
f 166 184 167
f 168 171 185
f 168 185 186
f 168 186 169
f 169 186 187
f 169 187 172
f 170 185 171
f 170 184 183
f 170 183 185
f 172 187 173
f 173 187 188
f 173 188 180
f 175 189 190
f 175 190 191
f 175 191 192
f 175 192 193
f 175 193 176
f 178 194 179
f 179 194 196
f 179 196 197
f 179 197 198
f 179 198 195
f 181 199 200
f 181 200 182
f 182 187 185
f 182 185 183
f 182 200 187
f 185 187 186
f 187 200 188
f 188 200 199
f 189 195 190
f 190 195 198

