# https://github.com/mikedh/trimesh
v -0.02587997 0.01270507 -0.02639441
v -0.02538299 0.01270507 -0.02785573
v -0.02066242 0.01270507 -0.02639441
v -0.02587384 0.01271928 -0.02639441
v -0.02066242 0.01270507 -0.02785573
v -0.02463982 0.01402800 -0.02785573
v -0.02066242 0.01996342 -0.02639441
v -0.02527011 0.01373031 -0.02639441
v -0.02066242 0.01931829 -0.02785573
v -0.02374392 0.01548450 -0.02785573
v -0.02406928 0.01571186 -0.02639441
v -0.02070328 0.01927566 -0.02785573
v -0.02092138 0.01904120 -0.02785573
v -0.02192812 0.01856731 -0.02639441
v -0.02337054 0.01676338 -0.02639441
v -0.02346197 0.01589445 -0.02785573
v -0.02202568 0.01778648 -0.02785573
v -0.02271624 0.01693816 -0.02785573
f 1 2 5
f 1 5 3
f 1 3 7
f 1 7 14
f 1 14 15
f 1 15 11
f 1 11 8
f 1 8 4
f 1 4 2
f 2 4 6
f 2 6 10
f 2 10 16
f 2 16 18
f 2 18 17
f 2 17 13
f 2 13 12
f 2 12 9
f 2 9 5
f 3 5 9
f 3 9 7
f 4 8 6
f 6 8 11
f 6 11 10
f 7 9 12
f 7 12 13
f 7 13 14
f 10 11 15
f 10 15 16
f 13 17 14
f 14 17 18
f 14 18 15
f 15 18 16

