# https://github.com/mikedh/trimesh
v -0.01721403 0.01462536 -0.02976483
v -0.01721067 0.01452529 -0.02956767
v -0.01721403 0.01471057 -0.02956767
v -0.01721403 0.01493728 -0.03190606
v -0.01149057 0.01972175 -0.03255000
v -0.01149057 0.01971080 -0.03244251
v -0.01149057 0.01967640 -0.03206195
v -0.01149057 0.01965764 -0.03185104
v -0.01149057 0.01946454 -0.02957225
v -0.01149057 0.01948565 -0.02956767
v -0.01721403 0.02251112 -0.02956767
v -0.01721403 0.01499435 -0.03220154
v -0.01149057 0.01985465 -0.03310684
v -0.01721403 0.01507410 -0.03259535
v -0.01149057 0.02251112 -0.02956767
v -0.01721403 0.02251112 -0.03325254
v -0.01149057 0.02000709 -0.03345785
v -0.01721403 0.01553378 -0.03342728
v -0.01149057 0.02251112 -0.03476510
v -0.01721403 0.02251034 -0.03325967
v -0.01703419 0.02251112 -0.03357197
v -0.01149057 0.02063486 -0.03417159
v -0.01721403 0.01572922 -0.03370188
v -0.01721403 0.01590121 -0.03390719
v -0.01160262 0.02251112 -0.03476663
v -0.01149057 0.02248845 -0.03476409
v -0.01267717 0.02160895 -0.03476052
v -0.01498986 0.02024554 -0.03476663
v -0.01704036 0.02250799 -0.03357095
v -0.01721403 0.02240558 -0.03350828
v -0.01654678 0.02251112 -0.03381956
v -0.01721403 0.02199671 -0.03383128
v -0.01149057 0.02101402 -0.03447013
v -0.01721403 0.01628819 -0.03423629
v -0.01303181 0.02251112 -0.03474116
v -0.01317635 0.02180674 -0.03477173
v -0.01149057 0.02178485 -0.03471620
v -0.01158694 0.02175749 -0.03472333
v -0.01561734 0.01955523 -0.03475542
v -0.01493104 0.02086627 -0.03476612
v -0.01721403 0.01882583 -0.03474473
v -0.01712944 0.01890479 -0.03474575
v -0.01721403 0.02235476 -0.03357451
v -0.01616750 0.02251112 -0.03397545
v -0.01721403 0.02107422 -0.03436060
v -0.01721403 0.02195371 -0.03385981
v -0.01149057 0.02103982 -0.03448185
v -0.01721403 0.01674084 -0.03439575
v -0.01385705 0.02251112 -0.03467799
v -0.01642297 0.02026821 -0.03473097
v -0.01550697 0.02101949 -0.03472027
v -0.01311864 0.02246734 -0.03473963
v -0.01394164 0.02246421 -0.03467748
v -0.01627058 0.01830439 -0.03465353
v -0.01622576 0.01888759 -0.03473199
v -0.01721403 0.01813162 -0.03469887
v -0.01721403 0.01889932 -0.03474116
v -0.01528287 0.02251112 -0.03433360
v -0.01713280 0.02109142 -0.03438200
v -0.01721403 0.02101637 -0.03438302
v -0.01721403 0.01751480 -0.03456999
v -0.01390915 0.02251112 -0.03467136
v -0.01721403 0.02001569 -0.03466372
v -0.01721403 0.02036827 -0.03461227
v -0.01657816 0.02092959 -0.03461380
v -0.01501059 0.02170746 -0.03467544
v -0.01721403 0.01948721 -0.03471212
v -0.01496297 0.02251112 -0.03445128
v -0.01514897 0.02224141 -0.03451293
v -0.01464251 0.02251112 -0.03453534
f 1 2 3
f 1 3 11
f 1 11 16
f 1 16 20
f 1 20 30
f 1 30 43
f 1 43 32
f 1 32 46
f 1 46 45
f 1 45 60
f 1 60 64
f 1 64 63
f 1 63 67
f 1 67 57
f 1 57 41
f 1 41 56
f 1 56 61
f 1 61 48
f 1 48 34
f 1 34 24
f 1 24 23
f 1 23 18
f 1 18 14
f 1 14 12
f 1 12 4
f 1 4 2
f 2 4 5
f 2 5 6
f 2 6 7
f 2 7 8
f 2 8 9
f 2 9 10
f 2 10 15
f 2 15 11
f 2 11 3
f 4 12 5
f 5 13 17
f 5 17 22
f 5 22 33
f 5 33 47
f 5 47 37
f 5 37 26
f 5 26 19
f 5 19 15
f 5 15 10
f 5 10 9
f 5 9 8
f 5 8 7
f 5 7 6
f 5 12 14
f 5 14 13
f 11 15 19
f 11 19 25
f 11 25 35
f 11 35 49
f 11 49 62
f 11 62 70
f 11 70 68
f 11 68 58
f 11 58 44
f 11 44 31
f 11 31 21
f 11 21 16
f 13 14 17
f 14 18 17
f 16 21 20
f 17 18 23
f 17 23 24
f 17 24 22
f 19 26 27
f 19 27 28
f 19 28 25
f 20 21 29
f 20 29 30
f 21 31 32
f 21 32 29
f 22 24 34
f 22 34 33
f 25 28 36
f 25 36 35
f 26 37 38
f 26 38 27
f 27 38 39
f 27 39 28
f 28 40 36
f 28 39 41
f 28 41 42
f 28 42 40
f 29 32 43
f 29 43 30
f 31 44 45
f 31 45 46
f 31 46 32
f 33 34 47
f 34 48 47
f 35 36 40
f 35 40 50
f 35 50 51
f 35 51 52
f 35 52 53
f 35 53 49
f 37 47 48
f 37 48 54
f 37 54 38
f 38 54 55
f 38 55 39
f 39 55 41
f 40 42 50
f 41 57 50
f 41 50 42
f 41 55 56
f 44 58 45
f 45 59 60
f 45 58 59
f 48 61 54
f 49 53 62
f 50 63 64
f 50 64 65
f 50 65 66
f 50 66 51
f 50 57 67
f 50 67 63
f 51 66 53
f 51 53 52
f 53 66 65
f 53 65 62
f 54 61 56
f 54 56 55
f 58 68 59
f 59 69 65
f 59 65 60
f 59 68 69
f 60 65 64
f 62 65 70
f 65 69 70
f 68 70 69

