# https://github.com/mikedh/trimesh
v 0.02319059 0.05162414 -0.00242830
v 0.02335339 0.05155332 -0.00242830
v 0.02319059 0.05160235 -0.00250255
v 0.02319059 0.03760053 -0.00242830
v 0.02319059 0.05149067 -0.00286297
v 0.02319059 0.05156694 -0.00261934
v 0.02417465 0.05117739 -0.00242830
v 0.02461821 0.05067344 -0.00338273
v 0.02319059 0.02379757 -0.00996940
v 0.03058194 0.03196984 -0.00242830
v 0.02335194 0.05106298 -0.00397751
v 0.02319059 0.05124550 -0.00363410
v 0.02489172 0.05083688 -0.00242830
v 0.02571153 0.05044734 -0.00242830
v 0.02587796 0.05025665 -0.00278485
v 0.02519996 0.04995428 -0.00464422
v 0.02393515 0.05034655 -0.00523900
v 0.02319059 0.02379757 -0.01032905
v 0.03058194 0.02379757 -0.00745338
v 0.03058194 0.04770146 -0.00242830
v 0.02319059 0.05110657 -0.00405176
v 0.02319059 0.05115288 -0.00391795
v 0.02600892 0.05030296 -0.00242830
v 0.02664784 0.04997880 -0.00242830
v 0.02647563 0.04951570 -0.00405795
v 0.02574409 0.04915884 -0.00597764
v 0.02319059 0.05054268 -0.00558705
v 0.02452921 0.04955112 -0.00650900
v 0.03058194 0.02379757 -0.01032905
v 0.02319059 0.04816455 -0.01032905
v 0.03058194 0.04753529 -0.00293258
v 0.03034605 0.04785673 -0.00242830
v 0.02706463 0.04976087 -0.00242830
v 0.02725782 0.04965463 -0.00242830
v 0.02774841 0.04901992 -0.00346935
v 0.02706824 0.04869302 -0.00532795
v 0.02638880 0.04827079 -0.00718654
v 0.02319059 0.05036289 -0.00602250
v 0.02509432 0.04861130 -0.00790120
v 0.02326222 0.04987801 -0.00710223
v 0.03058194 0.04284441 -0.01032905
v 0.02319059 0.04824083 -0.01020994
v 0.02486350 0.04733370 -0.01032905
v 0.03058194 0.04726560 -0.00368747
v 0.02960656 0.04769873 -0.00414457
v 0.03022377 0.04793301 -0.00242830
v 0.02812250 0.04916702 -0.00242830
v 0.02901105 0.04850779 -0.00287380
v 0.02834102 0.04819724 -0.00473935
v 0.02892712 0.04733370 -0.00600394
v 0.02765941 0.04780770 -0.00659563
v 0.02951973 0.04637483 -0.00727239
v 0.02824695 0.04682158 -0.00786098
v 0.02670428 0.04732281 -0.00863830
v 0.02570719 0.04766332 -0.00904668
v 0.02319059 0.04997335 -0.00695064
v 0.02384904 0.04897906 -0.00836682
v 0.02461459 0.04799021 -0.00948290
v 0.02319059 0.04935770 -0.00821600
v 0.02319059 0.04989162 -0.00713936
v 0.02957183 0.04453062 -0.01032905
v 0.03058194 0.04385504 -0.01032364
v 0.02319059 0.04887282 -0.00911706
v 0.02624481 0.04658458 -0.01032905
v 0.03058194 0.04701499 -0.00433407
v 0.03018542 0.04684882 -0.00540529
v 0.02996256 0.04809100 -0.00242830
v 0.02880266 0.04878020 -0.00242830
v 0.03058194 0.04591446 -0.00686556
v 0.03058194 0.04552763 -0.00758641
v 0.03019266 0.04527974 -0.00850604
v 0.02885186 0.04574284 -0.00914258
v 0.02758054 0.04616234 -0.00973272
v 0.02630921 0.04656823 -0.01029811
v 0.02319059 0.04912071 -0.00867620
v 0.02951973 0.04456603 -0.01032905
v 0.03058194 0.04417376 -0.00985802
v 0.02632079 0.04654100 -0.01032905
v 0.03058194 0.04666630 -0.00522276
v 0.03058194 0.04627948 -0.00609366
v 0.03058194 0.04512719 -0.00832041
v 0.03058194 0.04439714 -0.00950533
v 0.02948644 0.04458782 -0.01032905
v 0.02785550 0.04560391 -0.01032905
f 1 2 3
f 1 3 6
f 1 6 5
f 1 5 12
f 1 12 22
f 1 22 21
f 1 21 27
f 1 27 38
f 1 38 56
f 1 56 60
f 1 60 59
f 1 59 75
f 1 75 63
f 1 63 42
f 1 42 30
f 1 30 18
f 1 18 9
f 1 9 4
f 1 4 10
f 1 10 20
f 1 20 32
f 1 32 46
f 1 46 67
f 1 67 68
f 1 68 47
f 1 47 34
f 1 34 33
f 1 33 24
f 1 24 23
f 1 23 14
f 1 14 13
f 1 13 7
f 1 7 2
f 2 5 6
f 2 6 3
f 2 7 8
f 2 8 5
f 4 9 10
f 5 11 12
f 5 8 11
f 7 13 8
f 8 13 14
f 8 14 15
f 8 15 16
f 8 16 17
f 8 17 11
f 9 18 29
f 9 29 19
f 9 19 10
f 10 19 29
f 10 29 41
f 10 41 62
f 10 62 77
f 10 77 82
f 10 82 81
f 10 81 70
f 10 70 69
f 10 69 80
f 10 80 79
f 10 79 65
f 10 65 44
f 10 44 31
f 10 31 20
f 11 21 22
f 11 22 12
f 11 17 21
f 14 23 15
f 15 23 24
f 15 24 25
f 15 25 16
f 16 25 26
f 16 26 17
f 17 27 21
f 17 26 28
f 17 28 27
f 18 30 43
f 18 43 64
f 18 64 78
f 18 78 84
f 18 84 83
f 18 83 76
f 18 76 61
f 18 61 41
f 18 41 29
f 20 31 32
f 24 33 25
f 25 33 34
f 25 34 35
f 25 35 49
f 25 49 36
f 25 36 26
f 26 36 37
f 26 37 28
f 27 28 38
f 28 37 39
f 28 39 40
f 28 40 38
f 30 42 43
f 31 44 45
f 31 45 46
f 31 46 32
f 34 47 35
f 35 47 48
f 35 48 45
f 35 45 49
f 36 49 50
f 36 50 51
f 36 51 37
f 37 51 52
f 37 52 53
f 37 53 54
f 37 54 55
f 37 55 39
f 38 40 56
f 39 57 40
f 39 55 58
f 39 58 57
f 40 57 59
f 40 59 60
f 40 60 56
f 41 61 62
f 42 63 58
f 42 58 43
f 43 58 64
f 44 65 66
f 44 66 45
f 45 48 67
f 45 67 46
f 45 66 49
f 47 68 48
f 48 68 67
f 49 66 50
f 50 66 52
f 50 52 51
f 52 66 69
f 52 69 70
f 52 70 71
f 52 71 72
f 52 72 53
f 53 72 54
f 54 72 73
f 54 73 55
f 55 73 74
f 55 74 64
f 55 64 58
f 57 75 59
f 57 58 75
f 58 63 75
f 61 76 62
f 62 76 77
f 64 74 78
f 65 79 66
f 66 79 80
f 66 80 69
f 70 81 71
f 71 81 82
f 71 82 83
f 71 83 72
f 72 83 73
f 73 83 84
f 73 84 78
f 73 78 74
f 76 83 77
f 77 83 82

