# https://github.com/mikedh/trimesh
v -0.00104036 -0.02924097 -0.02569305
v -0.00130244 -0.02864787 -0.02768284
v -0.00016746 -0.02864301 -0.02768284
v -0.00016746 -0.02924097 -0.02565061
v -0.00338180 -0.02924097 -0.02553176
v -0.00165550 -0.02862235 -0.02768284
v -0.01123135 -0.02924097 -0.02489001
v -0.00016746 -0.02173002 -0.02768284
v -0.00016746 -0.02924097 -0.01105658
v -0.00272875 -0.02850081 -0.02768284
v -0.01123135 -0.02924097 -0.01034012
v -0.01123135 -0.02645535 -0.02768284
v -0.01062704 -0.02670572 -0.02768284
v -0.00974115 -0.02703144 -0.02768284
v -0.00868848 -0.02736445 -0.02768284
v -0.00740946 -0.02770110 -0.02768284
v -0.00711380 -0.02777402 -0.02768284
v -0.00575572 -0.02807908 -0.02768284
v -0.00422545 -0.02832215 -0.02768284
v -0.01123135 -0.01807542 -0.02768284
v -0.00016746 -0.01682481 -0.02710899
v -0.00016746 -0.01683210 -0.01314314
v -0.01122269 -0.01682481 -0.01265588
v -0.01123135 -0.01682481 -0.01265588
v -0.01123135 -0.01682481 -0.02750797
v -0.00016746 -0.01682481 -0.01314484
f 1 2 3
f 1 3 4
f 1 4 9
f 1 9 11
f 1 11 7
f 1 7 5
f 1 5 2
f 2 6 10
f 2 10 19
f 2 19 18
f 2 18 17
f 2 17 16
f 2 16 15
f 2 15 14
f 2 14 13
f 2 13 12
f 2 12 20
f 2 20 8
f 2 8 3
f 2 5 7
f 2 7 6
f 3 8 21
f 3 21 26
f 3 26 22
f 3 22 9
f 3 9 4
f 6 7 10
f 7 11 24
f 7 24 25
f 7 25 20
f 7 20 12
f 7 12 13
f 7 13 14
f 7 14 15
f 7 15 16
f 7 16 17
f 7 17 18
f 7 18 19
f 7 19 10
f 8 20 21
f 9 22 11
f 11 22 23
f 11 23 24
f 20 25 21
f 21 25 24
f 21 24 23
f 21 23 26
f 22 26 23

