# https://github.com/mikedh/trimesh
v 0.02319059 0.03659765 -0.00320492
v 0.02319059 0.02271153 -0.01032905
v 0.02319059 0.03659765 -0.01032905
v 0.01749857 0.03659765 -0.00466239
v 0.01509891 0.02512580 -0.01032905
v 0.01543650 0.02495044 -0.01032905
v 0.01628047 0.02459156 -0.01032905
v 0.01703743 0.02437542 -0.01032905
v 0.00541326 0.03659765 -0.01032905
v 0.01611168 0.03659765 -0.00502292
v 0.01389299 0.02594415 -0.01032905
v 0.00923984 0.03659765 -0.00684788
v 0.00788253 0.03659765 -0.00725095
v 0.00541326 0.03202876 -0.01032905
v 0.00541326 0.03659765 -0.00809474
f 1 2 3
f 1 3 9
f 1 9 15
f 1 15 13
f 1 13 12
f 1 12 10
f 1 10 4
f 1 4 5
f 1 5 6
f 1 6 7
f 1 7 8
f 1 8 2
f 2 8 7
f 2 7 6
f 2 6 5
f 2 5 11
f 2 11 14
f 2 14 9
f 2 9 3
f 4 10 5
f 5 10 12
f 5 12 13
f 5 13 11
f 9 14 15
f 11 13 15
f 11 15 14

