# https://github.com/mikedh/trimesh
v -0.01123135 -0.02924097 -0.02489017
v -0.01147532 -0.02924097 -0.02486990
v -0.01123135 -0.02648574 -0.02642730
v -0.01123135 -0.02924097 -0.01033987
v -0.01169805 -0.02924097 -0.02485133
v -0.01337297 -0.02546605 -0.02642730
v -0.01123135 -0.01682481 -0.02642730
v -0.01192489 -0.02924097 -0.02483105
v -0.01266846 -0.02924097 -0.02476349
v -0.01351894 -0.02924097 -0.02468241
v -0.01494577 -0.02924097 -0.02454559
v -0.01658231 -0.02924097 -0.02435640
v -0.01678105 -0.02924097 -0.02433107
v -0.01822981 -0.02924097 -0.02413681
v -0.01123135 -0.01682481 -0.01265569
v -0.01410763 -0.02924097 -0.00984326
v -0.01479294 -0.02469551 -0.02642730
v -0.01823255 -0.01682481 -0.02642730
v -0.01823255 -0.02924097 -0.02299326
v -0.01823255 -0.02923854 -0.02413681
v -0.01823255 -0.02211286 -0.02642730
v -0.01597237 -0.02394806 -0.02642730
v -0.01823255 -0.01682481 -0.01184997
v -0.01823255 -0.02924097 -0.00917098
f 1 2 3
f 1 3 7
f 1 7 15
f 1 15 4
f 1 4 16
f 1 16 24
f 1 24 19
f 1 19 14
f 1 14 13
f 1 13 12
f 1 12 11
f 1 11 10
f 1 10 9
f 1 9 8
f 1 8 5
f 1 5 2
f 2 5 3
f 3 6 17
f 3 17 22
f 3 22 21
f 3 21 18
f 3 18 7
f 3 5 8
f 3 8 9
f 3 9 10
f 3 10 11
f 3 11 12
f 3 12 13
f 3 13 14
f 3 14 6
f 4 15 16
f 6 14 17
f 7 18 23
f 7 23 15
f 14 19 20
f 14 20 21
f 14 21 22
f 14 22 17
f 15 23 24
f 15 24 16
f 18 21 20
f 18 20 19
f 18 19 24
f 18 24 23

