# https://github.com/mikedh/trimesh
v -0.04006760 0.01320299 -0.00463922
v -0.04501971 0.01320299 0.00133465
v -0.04690557 -0.00032565 0.00133465
v -0.04232857 -0.00032565 -0.00463922
v -0.05439223 0.01320299 -0.00463922
v -0.05606129 0.01320299 0.00133465
v -0.05764430 -0.00032565 0.00133465
v -0.05598385 -0.00032565 -0.00463922
v -0.05452128 0.01268516 -0.00463922
v -0.05457118 0.01320299 -0.00409188
v -0.05601654 0.01320299 0.00112297
v -0.05621959 0.01258583 0.00133465
v -0.05764430 -0.00001442 0.00133465
v -0.05736900 -0.00001575 0.00009789
v -0.05743782 -0.00032565 0.00040839
v -0.05610602 -0.00032565 -0.00428836
v -0.05598729 -0.00001575 -0.00463922
v -0.05454537 0.01258053 -0.00463922
v -0.05493424 0.01258450 -0.00339895
v -0.05480691 0.01320299 -0.00333872
v -0.05593912 0.01320299 0.00077036
v -0.05608193 0.01258980 0.00070487
v -0.05639854 0.01183755 0.00133465
v -0.05760301 0.00138546 0.00133465
v -0.05732942 0.00138413 0.00011543
v -0.05702142 -0.00001442 -0.00128330
v -0.05729157 -0.00032565 -0.00020794
v -0.05736728 -0.00032565 0.00009847
v -0.05620754 -0.00032565 -0.00399423
v -0.05621098 -0.00001575 -0.00399540
v -0.05598213 0.00066499 -0.00463922
v -0.05457462 0.01245207 -0.00463922
v -0.05520955 0.01118198 -0.00353052
v -0.05532999 0.01258848 -0.00203647
v -0.05520094 0.01320299 -0.00197858
v -0.05578769 0.01320299 0.00015812
v -0.05637101 0.01117800 0.00055868
v -0.05655684 0.01115019 0.00133465
v -0.05557777 0.01320299 -0.00061200
v -0.05570682 0.01258318 -0.00067165
v -0.05754450 0.00258006 0.00133465
v -0.05726748 0.00278534 0.00014642
v -0.05692334 0.00278534 -0.00123769
v -0.05698012 0.00138546 -0.00126518
v -0.05660329 0.00138413 -0.00263467
v -0.05663599 -0.00001575 -0.00264871
v -0.05701970 -0.00032565 -0.00128389
v -0.05663255 -0.00032565 -0.00264754
v -0.05619206 0.00138413 -0.00398780
v -0.05597009 0.00138546 -0.00463922
v -0.05485853 0.01118462 -0.00463922
v -0.05545044 0.00978209 -0.00364279
v -0.05585652 0.00978474 -0.00228441
v -0.05625228 0.00978607 -0.00092251
v -0.05560014 0.01118595 -0.00216395
v -0.05536785 0.01320299 -0.00137511
v -0.05598729 0.01118595 -0.00080030
v -0.05662739 0.00978077 0.00043997
v -0.05667040 0.01059130 0.00133465
v -0.05753418 0.00278534 0.00133465
v -0.05752214 0.00299857 0.00133465
v -0.05718833 0.00418522 0.00018268
v -0.05685107 0.00418522 -0.00120378
v -0.05647941 0.00418522 -0.00257620
v -0.05654824 0.00278534 -0.00260778
v -0.05614732 0.00278534 -0.00396499
v -0.05671858 -0.00032565 -0.00234639
v -0.05594772 0.00207944 -0.00463922
v -0.05512524 0.00978209 -0.00463922
v -0.05536269 0.00838354 -0.00463922
v -0.05565692 0.00838354 -0.00373752
v -0.05606817 0.00838486 -0.00238206
v -0.05646220 0.00838221 -0.00102543
v -0.05680462 0.00838486 0.00036395
v -0.05687860 0.00929869 0.00133465
v -0.05681150 0.00977945 0.00133465
v -0.05743782 0.00418522 0.00133465
v -0.05741717 0.00444215 0.00133465
v -0.05708337 0.00558378 0.00022770
v -0.05675988 0.00558510 -0.00116167
v -0.05638305 0.00558510 -0.00253176
v -0.05607505 0.00418522 -0.00393225
v -0.05588061 0.00346210 -0.00463922
v -0.05592019 0.00278534 -0.00463922
v -0.05555368 0.00698366 -0.00463922
v -0.05582555 0.00698498 -0.00381530
v -0.05624367 0.00698366 -0.00246626
v -0.05662911 0.00698233 -0.00110437
v -0.05695259 0.00698233 0.00029027
v -0.05727780 0.00590428 0.00133465
v -0.05699045 0.00838619 0.00133465
v -0.05731049 0.00558510 0.00133465
v -0.05597009 0.00558510 -0.00388371
v -0.05577221 0.00495337 -0.00463922
v -0.05583759 0.00418522 -0.00463922
v -0.05562251 0.00641682 -0.00463922
v -0.05571715 0.00558510 -0.00463922
f 1 2 3
f 1 3 4
f 1 4 8
f 1 8 17
f 1 17 31
f 1 31 50
f 1 50 68
f 1 68 84
f 1 84 83
f 1 83 95
f 1 95 94
f 1 94 97
f 1 97 96
f 1 96 85
f 1 85 70
f 1 70 69
f 1 69 51
f 1 51 32
f 1 32 18
f 1 18 9
f 1 9 5
f 1 5 10
f 1 10 20
f 1 20 35
f 1 35 56
f 1 56 39
f 1 39 36
f 1 36 21
f 1 21 11
f 1 11 6
f 1 6 2
f 2 6 12
f 2 12 23
f 2 23 38
f 2 38 59
f 2 59 76
f 2 76 75
f 2 75 91
f 2 91 90
f 2 90 92
f 2 92 78
f 2 78 77
f 2 77 61
f 2 61 60
f 2 60 41
f 2 41 24
f 2 24 13
f 2 13 7
f 2 7 3
f 3 7 15
f 3 15 28
f 3 28 27
f 3 27 47
f 3 47 67
f 3 67 48
f 3 48 29
f 3 29 16
f 3 16 8
f 3 8 4
f 5 9 10
f 6 11 12
f 7 13 14
f 7 14 15
f 8 16 17
f 9 18 19
f 9 19 10
f 10 19 20
f 11 21 22
f 11 22 12
f 12 22 23
f 13 24 14
f 14 25 26
f 14 26 27
f 14 27 28
f 14 28 15
f 14 24 25
f 16 29 30
f 16 30 17
f 17 30 31
f 18 32 19
f 19 32 33
f 19 33 34
f 19 34 20
f 20 34 35
f 21 36 22
f 22 37 38
f 22 38 23
f 22 36 39
f 22 39 40
f 22 40 37
f 24 41 25
f 25 41 42
f 25 42 43
f 25 43 44
f 25 44 26
f 26 44 45
f 26 45 46
f 26 46 47
f 26 47 27
f 29 48 46
f 29 46 30
f 30 49 31
f 30 46 49
f 31 49 50
f 32 51 33
f 33 52 53
f 33 53 54
f 33 54 55
f 33 55 34
f 33 51 52
f 34 56 35
f 34 55 57
f 34 57 37
f 34 37 40
f 34 40 56
f 37 58 38
f 37 57 54
f 37 54 58
f 38 58 59
f 39 56 40
f 41 60 42
f 42 60 61
f 42 61 62
f 42 62 63
f 42 63 43
f 43 63 64
f 43 64 65
f 43 65 44
f 44 65 45
f 45 65 66
f 45 66 49
f 45 49 46
f 46 48 67
f 46 67 47
f 49 66 68
f 49 68 50
f 51 69 52
f 52 69 70
f 52 70 71
f 52 71 72
f 52 72 53
f 53 72 54
f 54 73 58
f 54 57 55
f 54 72 73
f 58 73 74
f 58 74 75
f 58 75 76
f 58 76 59
f 61 77 62
f 62 77 78
f 62 78 79
f 62 79 80
f 62 80 63
f 63 80 64
f 64 81 82
f 64 82 66
f 64 66 65
f 64 80 81
f 66 82 83
f 66 83 84
f 66 84 68
f 70 85 86
f 70 86 71
f 71 86 87
f 71 87 72
f 72 87 73
f 73 87 88
f 73 88 74
f 74 88 89
f 74 89 90
f 74 90 91
f 74 91 75
f 78 92 79
f 79 89 88
f 79 88 80
f 79 92 90
f 79 90 89
f 80 88 81
f 81 87 93
f 81 93 82
f 81 88 87
f 82 93 94
f 82 94 95
f 82 95 83
f 85 96 86
f 86 93 87
f 86 96 93
f 93 96 97
f 93 97 94

