# https://github.com/mikedh/trimesh
v 0.05243942 -0.02617944 0.01422760
v 0.05222007 -0.02661755 0.01412667
v 0.05243788 -0.02617944 0.01374816
v 0.05243634 -0.02617944 0.01528283
v 0.05221544 -0.02661976 0.01566822
v 0.05145697 -0.02801524 0.01377339
v 0.05219999 -0.02661681 0.01257365
v 0.05242398 -0.02617944 0.01267917
v 0.05147396 -0.02800934 0.01533101
v 0.05243016 -0.02617944 0.01576915
v 0.05240698 -0.02617944 0.01731071
v 0.05219227 -0.02661312 0.01720748
v 0.05145388 -0.02801671 0.01686109
v 0.05061508 -0.02941440 0.01338112
v 0.05141835 -0.02801745 0.01220890
v 0.05064134 -0.02940997 0.01494103
v 0.05215056 -0.02661386 0.01100915
v 0.05238072 -0.02617944 0.01111468
v 0.05064134 -0.02941218 0.01648487
v 0.05237300 -0.02617944 0.01883391
v 0.05215056 -0.02662124 0.01872609
v 0.05210422 -0.02662050 0.02024929
v 0.05140290 -0.02802114 0.01837740
v 0.05060890 -0.02941440 0.01801266
v 0.04968824 -0.03081725 0.01294527
v 0.04963263 -0.03082094 0.01137390
v 0.05055638 -0.02941661 0.01180746
v 0.04972686 -0.03081651 0.01450976
v 0.05135811 -0.02801671 0.01065588
v 0.05140136 -0.02793927 0.01065588
v 0.04973613 -0.03081872 0.01605819
v 0.05213048 -0.02661460 0.01065588
v 0.05233438 -0.02621853 0.01065588
v 0.05235447 -0.02617944 0.01065588
v 0.04972995 -0.03081430 0.01760204
v 0.05232666 -0.02617944 0.02035481
v 0.05227568 -0.02617944 0.02140316
v 0.05203470 -0.02661091 0.02177019
v 0.05129322 -0.02801081 0.02142380
v 0.05134884 -0.02801819 0.01990061
v 0.05055793 -0.02941735 0.01953128
v 0.04969596 -0.03081208 0.01913212
v 0.04873977 -0.03222305 0.01250024
v 0.04870115 -0.03220756 0.01094951
v 0.04891896 -0.03186238 0.01065588
v 0.04960173 -0.03082683 0.01065588
v 0.05050386 -0.02941292 0.01065588
v 0.04878147 -0.03222231 0.01561087
v 0.04876603 -0.03222010 0.01406014
v 0.04878611 -0.03221346 0.01716389
v 0.04247274 -0.02617944 0.01065588
v 0.04875985 -0.03222010 0.01869168
v 0.05225097 -0.02617944 0.02187113
v 0.05222470 -0.02617944 0.02233681
v 0.05194202 -0.02662124 0.02326128
v 0.05121135 -0.02801597 0.02292406
v 0.05049923 -0.02941440 0.02105218
v 0.05042972 -0.02941735 0.02255932
v 0.04963881 -0.03081134 0.02065073
v 0.04859765 -0.03221641 0.02324981
v 0.04871042 -0.03222010 0.02021258
v 0.04778666 -0.03360819 0.01206668
v 0.04772178 -0.03361999 0.01065588
v 0.04808789 -0.03308452 0.01065588
v 0.04868724 -0.03220756 0.01065588
v 0.04780674 -0.03361410 0.01516125
v 0.04779747 -0.03361336 0.01361282
v 0.04780056 -0.03361188 0.01670510
v 0.03665833 -0.03371367 0.01065588
v 0.04566264 -0.02617944 0.02978535
v 0.04777585 -0.03361114 0.01823747
v 0.04773259 -0.03360819 0.01976297
v 0.05216292 -0.02617944 0.02336221
v 0.05209186 -0.02617944 0.02438762
v 0.05183852 -0.02661829 0.02475925
v 0.05111249 -0.02801966 0.02441974
v 0.05034012 -0.02940850 0.02406876
v 0.04950750 -0.03081798 0.02367190
v 0.04957084 -0.03081946 0.02216017
v 0.04852350 -0.03220239 0.02476842
v 0.04755804 -0.03361410 0.02431192
v 0.04761519 -0.03362073 0.02278872
v 0.04772641 -0.03371367 0.01357841
v 0.04771097 -0.03371367 0.01214467
v 0.04770788 -0.03371367 0.01202997
v 0.04765381 -0.03371367 0.01065588
v 0.04772641 -0.03371367 0.01666839
v 0.04773414 -0.03371367 0.01512684
v 0.04028848 -0.03371367 0.03030608
v 0.04588817 -0.02617944 0.03102868
v 0.04765535 -0.03371367 0.01972626
v 0.04769706 -0.03371367 0.01831317
v 0.04770015 -0.03371367 0.01820306
v 0.04754877 -0.03371367 0.02275890
v 0.05205633 -0.02617944 0.02486247
v 0.05129632 -0.02663894 0.03079699
v 0.05021654 -0.02941513 0.02555067
v 0.05045443 -0.02813398 0.03109521
v 0.04940401 -0.03080692 0.02517675
v 0.04837675 -0.03221493 0.02623657
v 0.04743600 -0.03360746 0.02580300
v 0.04736031 -0.03371367 0.02576630
v 0.04747771 -0.03371367 0.02438303
v 0.04748543 -0.03371367 0.02427751
v 0.04037498 -0.03371367 0.03077176
v 0.04602720 -0.02617944 0.03162282
v 0.05166087 -0.02617944 0.02931049
v 0.05152185 -0.02617944 0.03087269
v 0.05148169 -0.02617944 0.03126955
v 0.05132258 -0.02647372 0.03136360
v 0.05089623 -0.02726144 0.03146454
v 0.04979019 -0.02940628 0.02999180
v 0.04928351 -0.03014901 0.03056300
v 0.05042817 -0.02798278 0.03186139
v 0.04974076 -0.02925066 0.03135901
v 0.04893440 -0.03080913 0.02979911
v 0.04786235 -0.03226804 0.03081534
v 0.04675477 -0.03371367 0.03189351
v 0.04040897 -0.03371367 0.03090251
v 0.04071328 -0.03371367 0.03186598
v 0.04071637 -0.03371367 0.03187516
v 0.04610598 -0.02617944 0.03182240
v 0.05144616 -0.02617944 0.03152189
v 0.05139209 -0.02617944 0.03181322
v 0.05109086 -0.02662566 0.03218943
v 0.04867643 -0.03095812 0.03115026
v 0.05021191 -0.02805875 0.03249453
v 0.04959092 -0.02919903 0.03219402
v 0.04877221 -0.03062769 0.03184534
v 0.04786390 -0.03211758 0.03149895
v 0.04666827 -0.03371367 0.03244406
v 0.04102995 -0.03371367 0.03259547
v 0.04631915 -0.02617944 0.03234772
v 0.04624346 -0.02617944 0.03216191
v 0.05133957 -0.02617944 0.03207015
v 0.05128859 -0.02617944 0.03227660
v 0.05088696 -0.02658731 0.03284780
v 0.05056720 -0.02731012 0.03266887
v 0.05000800 -0.02792820 0.03318502
v 0.04926961 -0.02941735 0.03282945
v 0.04847716 -0.03087330 0.03243489
v 0.04666363 -0.03371367 0.03245324
v 0.04103922 -0.03371367 0.03261152
v 0.04658022 -0.02617944 0.03280422
v 0.05113412 -0.02617944 0.03272852
v 0.05105688 -0.02617944 0.03292121
v 0.04633769 -0.03371367 0.03308638
v 0.05093485 -0.02617944 0.03312079
v 0.05050695 -0.02664484 0.03341671
v 0.04978247 -0.02728431 0.03368969
v 0.04767853 -0.03081134 0.03359105
v 0.04696022 -0.03238162 0.03333413
v 0.04639794 -0.03371367 0.03297627
v 0.04143004 -0.03371367 0.03315749
v 0.04669143 -0.02617944 0.03298315
v 0.04588353 -0.03371367 0.03338918
v 0.05081436 -0.02617944 0.03328136
v 0.05074484 -0.02617944 0.03336166
v 0.05060890 -0.02617944 0.03349470
v 0.05025516 -0.02617944 0.03372410
v 0.05005743 -0.02647299 0.03376081
v 0.04901318 -0.02792599 0.03386633
v 0.04838138 -0.02930302 0.03373328
v 0.04566882 -0.03235433 0.03402461
v 0.04644582 -0.03196416 0.03379292
v 0.04147947 -0.03371367 0.03319878
v 0.04708998 -0.02617944 0.03338689
v 0.04478522 -0.03371367 0.03392827
v 0.04991686 -0.02617944 0.03383651
v 0.04897920 -0.02716409 0.03398562
v 0.04808325 -0.02876165 0.03397644
v 0.04819910 -0.02789796 0.03406361
v 0.04720892 -0.02952798 0.03405902
v 0.04568890 -0.03155555 0.03408196
v 0.04422757 -0.03371367 0.03407738
v 0.04424765 -0.03371367 0.03407508
v 0.04209428 -0.03371367 0.03370575
v 0.04757194 -0.02617944 0.03375392
v 0.04975466 -0.02617944 0.03388239
v 0.04895912 -0.02630261 0.03404297
v 0.04808789 -0.02736913 0.03405902
v 0.04570125 -0.03098099 0.03409114
v 0.04419977 -0.03371367 0.03407738
v 0.04432489 -0.03279097 0.03408655
v 0.04211591 -0.03371367 0.03371493
v 0.04763373 -0.02617944 0.03379063
v 0.04901164 -0.02617944 0.03403838
v 0.04894213 -0.02617944 0.03404067
v 0.04840765 -0.02617944 0.03398791
v 0.04420595 -0.03227099 0.03404526
v 0.04339341 -0.03371367 0.03406132
v 0.04333008 -0.03371367 0.03405673
v 0.04269210 -0.03371367 0.03394662
v 0.04778975 -0.02617944 0.03384798
v 0.04797666 -0.02617944 0.03390991
v 0.04277088 -0.03371367 0.03396038
f 1 2 3
f 1 3 8
f 1 8 18
f 1 18 34
f 1 34 51
f 1 51 70
f 1 70 90
f 1 90 106
f 1 106 122
f 1 122 134
f 1 134 133
f 1 133 144
f 1 144 155
f 1 155 167
f 1 167 178
f 1 178 186
f 1 186 194
f 1 194 195
f 1 195 189
f 1 189 188
f 1 188 187
f 1 187 179
f 1 179 169
f 1 169 160
f 1 160 159
f 1 159 158
f 1 158 157
f 1 157 148
f 1 148 146
f 1 146 145
f 1 145 136
f 1 136 135
f 1 135 124
f 1 124 123
f 1 123 109
f 1 109 108
f 1 108 107
f 1 107 95
f 1 95 74
f 1 74 73
f 1 73 54
f 1 54 53
f 1 53 37
f 1 37 36
f 1 36 20
f 1 20 11
f 1 11 10
f 1 10 4
f 1 4 5
f 1 5 2
f 2 6 7
f 2 7 8
f 2 8 3
f 2 5 9
f 2 9 6
f 4 10 5
f 5 10 11
f 5 11 12
f 5 12 13
f 5 13 9
f 6 14 15
f 6 15 7
f 6 9 16
f 6 16 14
f 7 15 17
f 7 17 18
f 7 18 8
f 9 13 19
f 9 19 16
f 11 20 12
f 12 20 21
f 12 21 13
f 13 21 22
f 13 22 23
f 13 23 24
f 13 24 19
f 14 25 26
f 14 26 27
f 14 27 15
f 14 16 28
f 14 28 25
f 15 27 29
f 15 29 30
f 15 30 17
f 16 19 31
f 16 31 28
f 17 30 32
f 17 32 18
f 18 32 33
f 18 33 34
f 19 24 35
f 19 35 31
f 20 36 21
f 21 36 22
f 22 36 37
f 22 37 38
f 22 38 39
f 22 39 40
f 22 40 23
f 23 40 41
f 23 41 24
f 24 41 42
f 24 42 35
f 25 28 43
f 25 43 44
f 25 44 26
f 26 44 45
f 26 45 46
f 26 46 27
f 27 46 47
f 27 47 29
f 28 31 48
f 28 48 49
f 28 49 43
f 29 47 46
f 29 46 45
f 29 45 65
f 29 65 64
f 29 64 63
f 29 63 86
f 29 86 69
f 29 69 51
f 29 51 34
f 29 34 33
f 29 33 32
f 29 32 30
f 31 35 50
f 31 50 48
f 35 42 52
f 35 52 50
f 37 53 38
f 38 53 54
f 38 54 55
f 38 55 56
f 38 56 39
f 39 57 41
f 39 41 40
f 39 56 58
f 39 58 57
f 41 57 59
f 41 59 42
f 42 59 60
f 42 60 61
f 42 61 52
f 43 49 62
f 43 62 44
f 44 63 64
f 44 64 65
f 44 65 45
f 44 62 63
f 48 66 67
f 48 67 62
f 48 62 49
f 48 50 66
f 50 52 68
f 50 68 66
f 51 69 70
f 52 71 68
f 52 61 72
f 52 72 71
f 54 73 55
f 55 73 74
f 55 74 75
f 55 75 76
f 55 76 56
f 56 76 77
f 56 77 58
f 57 58 78
f 57 78 79
f 57 79 59
f 58 77 78
f 59 79 60
f 60 79 78
f 60 78 80
f 60 80 81
f 60 81 82
f 60 82 61
f 61 82 72
f 62 67 83
f 62 83 84
f 62 84 85
f 62 85 86
f 62 86 63
f 66 68 87
f 66 87 88
f 66 88 83
f 66 83 67
f 68 71 87
f 69 89 90
f 69 90 70
f 69 86 85
f 69 85 84
f 69 84 83
f 69 83 88
f 69 88 87
f 69 87 93
f 69 93 92
f 69 92 91
f 69 91 94
f 69 94 104
f 69 104 103
f 69 103 102
f 69 102 118
f 69 118 131
f 69 131 142
f 69 142 153
f 69 153 147
f 69 147 156
f 69 156 168
f 69 168 176
f 69 176 175
f 69 175 183
f 69 183 191
f 69 191 192
f 69 192 196
f 69 196 193
f 69 193 185
f 69 185 177
f 69 177 166
f 69 166 154
f 69 154 143
f 69 143 132
f 69 132 121
f 69 121 120
f 69 120 119
f 69 119 105
f 69 105 89
f 71 72 91
f 71 91 92
f 71 92 93
f 71 93 87
f 72 82 94
f 72 94 91
f 74 95 75
f 75 95 96
f 75 96 76
f 76 97 77
f 76 96 98
f 76 98 97
f 77 97 99
f 77 99 78
f 78 99 80
f 80 99 100
f 80 100 101
f 80 101 81
f 81 101 102
f 81 102 103
f 81 103 104
f 81 104 94
f 81 94 82
f 89 105 90
f 90 105 106
f 95 107 96
f 96 107 108
f 96 108 109
f 96 109 110
f 96 110 111
f 96 111 98
f 97 98 112
f 97 112 113
f 97 113 99
f 98 111 114
f 98 114 115
f 98 115 113
f 98 113 112
f 99 113 116
f 99 116 100
f 100 116 117
f 100 117 118
f 100 118 101
f 101 118 102
f 105 119 106
f 106 119 120
f 106 120 121
f 106 121 122
f 109 123 110
f 110 123 111
f 111 123 124
f 111 124 125
f 111 125 114
f 113 115 126
f 113 126 117
f 113 117 116
f 114 125 127
f 114 127 128
f 114 128 129
f 114 129 115
f 115 129 126
f 117 126 130
f 117 130 118
f 118 130 131
f 121 132 133
f 121 133 134
f 121 134 122
f 124 135 125
f 125 135 136
f 125 136 137
f 125 137 138
f 125 138 127
f 126 129 131
f 126 131 130
f 127 138 139
f 127 139 140
f 127 140 128
f 128 140 141
f 128 141 129
f 129 141 131
f 131 141 140
f 131 140 142
f 132 143 144
f 132 144 133
f 136 145 137
f 137 145 146
f 137 146 139
f 137 139 138
f 139 147 140
f 139 146 148
f 139 148 149
f 139 149 150
f 139 150 151
f 139 151 152
f 139 152 147
f 140 147 153
f 140 153 142
f 143 154 155
f 143 155 144
f 147 152 156
f 148 157 149
f 149 157 158
f 149 158 159
f 149 159 150
f 150 159 160
f 150 160 161
f 150 161 162
f 150 162 163
f 150 163 151
f 151 156 152
f 151 163 164
f 151 164 165
f 151 165 156
f 154 166 167
f 154 167 155
f 156 165 164
f 156 164 168
f 160 169 161
f 161 169 170
f 161 170 162
f 162 170 171
f 162 171 164
f 162 164 163
f 164 171 172
f 164 172 173
f 164 173 174
f 164 174 175
f 164 175 176
f 164 176 168
f 166 177 167
f 167 177 178
f 169 179 170
f 170 180 172
f 170 172 171
f 170 179 180
f 172 181 182
f 172 182 174
f 172 174 173
f 172 180 181
f 174 182 175
f 175 182 184
f 175 184 183
f 177 185 186
f 177 186 178
f 179 187 180
f 180 187 188
f 180 188 181
f 181 188 189
f 181 189 190
f 181 190 182
f 182 190 184
f 183 184 191
f 184 190 192
f 184 192 191
f 185 193 186
f 186 193 194
f 189 195 190
f 190 195 193
f 190 193 196
f 190 196 192
f 193 195 194

