# https://github.com/mikedh/trimesh
v -0.05128704 -0.02881827 0.01529130
v -0.05128193 -0.02881827 0.01588985
v -0.05128193 -0.02881827 0.01440798
v -0.05096505 -0.02941621 0.01544197
v -0.05096165 -0.02941621 0.01588985
v -0.04267851 -0.02881827 0.01588985
v -0.05126830 -0.02881827 0.01309614
v -0.05095483 -0.02941808 0.01390342
v -0.05013367 -0.03082138 0.01428772
v -0.05013197 -0.03081204 0.01588985
v -0.03388258 -0.03243396 0.00176921
v -0.03710929 -0.02881827 0.00176921
v -0.03388258 -0.03869741 0.01588985
v -0.05125638 -0.02881827 0.01221558
v -0.05093438 -0.02941995 0.01236764
v -0.05011493 -0.03081577 0.01274778
v -0.04923244 -0.03221533 0.01315834
v -0.04924778 -0.03222094 0.01470104
v -0.04924778 -0.03221533 0.01588985
v -0.03388258 -0.04656223 0.00176921
v -0.05000420 -0.02881827 0.00176921
v -0.03388258 -0.04787770 0.01588985
v -0.05121208 -0.02881827 0.01068948
v -0.05089179 -0.02941061 0.01083739
v -0.05007064 -0.03081391 0.01122306
v -0.04919156 -0.03221347 0.01163223
v -0.04824433 -0.03361676 0.01207597
v -0.04827329 -0.03361863 0.01360898
v -0.04828692 -0.03361490 0.01514339
v -0.04867194 -0.03305246 0.01588985
v -0.03388258 -0.04656596 0.00178304
v -0.03391495 -0.04653981 0.00176921
v -0.04981679 -0.02913966 0.00176921
v -0.05005360 -0.02881827 0.00196551
v -0.03474463 -0.04725921 0.01588985
v -0.03388258 -0.04790573 0.01276023
v -0.05116268 -0.02881827 0.00982966
v -0.05079980 -0.02941808 0.00934031
v -0.04998034 -0.03082325 0.00972598
v -0.04910467 -0.03221720 0.01012963
v -0.04817107 -0.03361116 0.01056230
v -0.04717444 -0.03501819 0.01103091
v -0.04723236 -0.03501819 0.01254873
v -0.04725280 -0.03502380 0.01408728
v -0.04828521 -0.03361303 0.01588985
v -0.04726132 -0.03501258 0.01562168
v -0.03388258 -0.04659773 0.00191298
v -0.03495247 -0.04577182 0.00176921
v -0.04965325 -0.02941621 0.00176921
v -0.04973842 -0.02941995 0.00211342
v -0.05035685 -0.02881827 0.00336997
v -0.03534942 -0.04682196 0.01588985
v -0.03388258 -0.04790573 0.01259158
v -0.05112349 -0.02881827 0.00918687
v -0.05067202 -0.02942182 0.00785982
v -0.04985768 -0.03081577 0.00823443
v -0.04898882 -0.03221720 0.00864084
v -0.04806204 -0.03361863 0.00907352
v -0.04707562 -0.03502006 0.00953384
v -0.04603811 -0.03641962 0.01001627
v -0.04612669 -0.03641775 0.01151888
v -0.04617099 -0.03641215 0.01303946
v -0.04617440 -0.03642149 0.01458907
v -0.04751687 -0.03466130 0.01588985
v -0.04725791 -0.03501446 0.01588985
v -0.03388258 -0.04680888 0.00281979
v -0.03407680 -0.04676403 0.00323588
v -0.03535794 -0.04567279 0.00264147
v -0.03648575 -0.04456099 0.00176921
v -0.04936022 -0.02989083 0.00176921
v -0.04895475 -0.03081577 0.00247835
v -0.05003997 -0.02941995 0.00351788
v -0.05046759 -0.02881827 0.00397543
v -0.03579407 -0.04649122 0.01588985
v -0.03388258 -0.04790386 0.01244229
v -0.03509046 -0.04699947 0.01203035
v -0.05099572 -0.02881827 0.00770638
v -0.05082194 -0.02881827 0.00624109
v -0.05050166 -0.02941435 0.00638900
v -0.04969583 -0.03081951 0.00676777
v -0.04883890 -0.03221533 0.00716588
v -0.04792404 -0.03361490 0.00759164
v -0.04694785 -0.03501632 0.00804643
v -0.04591374 -0.03641401 0.00852887
v -0.04479785 -0.03780984 0.00904587
v -0.04492222 -0.03781171 0.01053327
v -0.04499718 -0.03781357 0.01204417
v -0.04503125 -0.03780797 0.01357028
v -0.04502955 -0.03781731 0.01511989
v -0.04616076 -0.03642149 0.01588985
v -0.03388258 -0.04692286 0.00332711
v -0.03466626 -0.04659586 0.00450625
v -0.03593548 -0.04549901 0.00391461
v -0.03661693 -0.04452922 0.00205259
v -0.03722514 -0.04394062 0.00176921
v -0.04878098 -0.03081577 0.00176921
v -0.04924948 -0.03081017 0.00388282
v -0.04811826 -0.03181920 0.00176921
v -0.04811996 -0.03222281 0.00286956
v -0.05029381 -0.02941435 0.00494169
v -0.05061240 -0.02881827 0.00479240
v -0.03675493 -0.04575127 0.01588985
v -0.03627621 -0.04611564 0.01456833
v -0.03388258 -0.04787210 0.01104750
v -0.03449760 -0.04742364 0.01076136
v -0.03695425 -0.04555881 0.01270770
v -0.03636309 -0.04599418 0.01143871
v -0.03577533 -0.04642022 0.01016971
v -0.05070269 -0.02881827 0.00541169
v -0.04949480 -0.03081951 0.00531631
v -0.04864639 -0.03221533 0.00571166
v -0.04774516 -0.03361863 0.00613189
v -0.04678260 -0.03502193 0.00658115
v -0.04574337 -0.03641589 0.00706497
v -0.04462237 -0.03781918 0.00758888
v -0.04343663 -0.03921874 0.00814182
v -0.04358485 -0.03922622 0.00961954
v -0.04387788 -0.03900946 0.01101847
v -0.04375181 -0.03922435 0.01263167
v -0.04379440 -0.03920379 0.01414672
v -0.04379610 -0.03920753 0.01569079
v -0.04501592 -0.03781918 0.01588985
v -0.03388258 -0.04710225 0.00421734
v -0.03525913 -0.04636977 0.00577386
v -0.03654197 -0.04526357 0.00517945
v -0.03388258 -0.04722744 0.00487257
v -0.03400184 -0.04739187 0.00636274
v -0.03721491 -0.04433489 0.00332020
v -0.03802926 -0.04325859 0.00176921
v -0.04840617 -0.03221347 0.00427678
v -0.04785078 -0.03222281 0.00176921
v -0.04716081 -0.03320755 0.00176921
v -0.04724088 -0.03361490 0.00327597
v -0.03689122 -0.04564289 0.01588985
v -0.03686737 -0.04566344 0.01583594
v -0.03388258 -0.04779548 0.00950342
v -0.03390814 -0.04777680 0.00949237
v -0.03517395 -0.04680140 0.00890072
v -0.03754542 -0.04510661 0.01397669
v -0.03821836 -0.04451054 0.01211605
v -0.03763572 -0.04495339 0.01084706
v -0.03704625 -0.04537195 0.00957807
v -0.03645168 -0.04576995 0.00831046
v -0.04751517 -0.03362050 0.00469425
v -0.04656794 -0.03501446 0.00513522
v -0.04553553 -0.03640654 0.00561351
v -0.04441623 -0.03782292 0.00614157
v -0.04324412 -0.03921127 0.00668483
v -0.04210779 -0.04050432 0.00721426
v -0.04270918 -0.04004278 0.00848049
v -0.04202772 -0.04090419 0.01034112
v -0.04262229 -0.04035857 0.01160873
v -0.04322027 -0.03978679 0.01287772
v -0.04253370 -0.04053235 0.01473836
v -0.04306865 -0.03997738 0.01588985
v -0.04337530 -0.03965412 0.01588985
v -0.04378588 -0.03921500 0.01588985
v -0.04403802 -0.03892911 0.01588985
v -0.03585711 -0.04609882 0.00704147
v -0.03712121 -0.04500571 0.00645121
v -0.03838873 -0.04384719 0.00585957
v -0.03780097 -0.04410879 0.00459058
v -0.03388258 -0.04743485 0.00611254
v -0.03458108 -0.04712840 0.00763450
v -0.03388258 -0.04746662 0.00632127
v -0.03388258 -0.04747970 0.00641803
v -0.03388258 -0.04751146 0.00668759
v -0.03388258 -0.04765908 0.00796211
v -0.03907189 -0.04288114 0.00399755
v -0.03847561 -0.04311471 0.00272994
v -0.03873968 -0.04261581 0.00176921
v -0.04687460 -0.03360929 0.00176921
v -0.04690696 -0.03360742 0.00188533
v -0.04597507 -0.03501632 0.00232215
v -0.04629876 -0.03500885 0.00371279
v -0.03790319 -0.04481138 0.01588985
v -0.03813829 -0.04461891 0.01524430
v -0.03388258 -0.04778988 0.00943984
v -0.03880953 -0.04402284 0.01338504
v -0.03948928 -0.04338752 0.01152441
v -0.03889982 -0.04386027 0.01025542
v -0.03830866 -0.04429565 0.00898643
v -0.03771408 -0.04469179 0.00771882
v -0.04527657 -0.03641775 0.00419384
v -0.04417602 -0.03782105 0.00470807
v -0.04301583 -0.03921687 0.00524719
v -0.04163247 -0.04078647 0.00587892
v -0.04087946 -0.04181045 0.00768426
v -0.04143655 -0.04140684 0.00907213
v -0.04074998 -0.04218977 0.01093277
v -0.04135307 -0.04164601 0.01220176
v -0.04194935 -0.04108918 0.01346937
v -0.04126619 -0.04178803 0.01533000
v -0.04152855 -0.04153390 0.01588985
v -0.04211801 -0.04095091 0.01588985
v -0.03898500 -0.04352206 0.00712718
v -0.03967157 -0.04259525 0.00526516
v -0.04034111 -0.04156940 0.00340591
v -0.03975505 -0.04179363 0.00213553
v -0.03961535 -0.04181792 0.00176921
v -0.04674341 -0.03378494 0.00176921
v -0.04582174 -0.03501632 0.00176921
v -0.04513517 -0.03587400 0.00176921
v -0.04469563 -0.03641775 0.00176921
v -0.04496481 -0.03641962 0.00279353
v -0.03843984 -0.04435731 0.01588985
v -0.03895945 -0.04390325 0.01588985
v -0.03941092 -0.04350151 0.01465265
v -0.04008897 -0.04286619 0.01279202
v -0.03938877 -0.04342116 0.01002872
v -0.03956765 -0.04313153 0.00839755
v -0.04387447 -0.03783413 0.00329808
v -0.04258481 -0.03942615 0.00398787
v -0.04200216 -0.04018105 0.00465969
v -0.04114182 -0.04108357 0.00480899
v -0.04025763 -0.04225330 0.00653553
v -0.04017245 -0.04267186 0.00966378
v -0.04068354 -0.04232431 0.01406101
v -0.04106345 -0.04198049 0.01588985
v -0.04120997 -0.04061456 0.00300088
v -0.04054044 -0.04092662 0.00176921
v -0.04385232 -0.03740809 0.00176921
v -0.04353715 -0.03782292 0.00191574
v -0.04000208 -0.04296896 0.01588985
v -0.04006171 -0.04291478 0.01588985
v -0.04241785 -0.03921127 0.00243688
v -0.04104812 -0.04043144 0.00176921
v -0.04137011 -0.04010071 0.00176921
v -0.04349456 -0.03782105 0.00176921
v -0.04327138 -0.03806770 0.00176921
v -0.04222364 -0.03921313 0.00176921
f 1 2 6
f 1 6 12
f 1 12 21
f 1 21 34
f 1 34 51
f 1 51 73
f 1 73 101
f 1 101 109
f 1 109 78
f 1 78 77
f 1 77 54
f 1 54 37
f 1 37 23
f 1 23 14
f 1 14 7
f 1 7 3
f 1 3 4
f 1 4 5
f 1 5 2
f 2 5 10
f 2 10 19
f 2 19 30
f 2 30 45
f 2 45 64
f 2 64 65
f 2 65 90
f 2 90 122
f 2 122 158
f 2 158 157
f 2 157 156
f 2 156 155
f 2 155 195
f 2 195 194
f 2 194 219
f 2 219 225
f 2 225 224
f 2 224 207
f 2 207 206
f 2 206 176
f 2 176 134
f 2 134 102
f 2 102 74
f 2 74 52
f 2 52 35
f 2 35 22
f 2 22 13
f 2 13 6
f 3 7 8
f 3 8 4
f 4 8 9
f 4 9 10
f 4 10 5
f 6 11 12
f 6 13 11
f 7 14 15
f 7 15 8
f 8 15 9
f 9 16 17
f 9 17 18
f 9 18 19
f 9 19 10
f 9 15 16
f 11 20 32
f 11 32 48
f 11 48 69
f 11 69 95
f 11 95 129
f 11 129 171
f 11 171 200
f 11 200 221
f 11 221 227
f 11 227 228
f 11 228 231
f 11 231 230
f 11 230 229
f 11 229 222
f 11 222 204
f 11 204 203
f 11 203 202
f 11 202 201
f 11 201 172
f 11 172 132
f 11 132 131
f 11 131 98
f 11 98 96
f 11 96 70
f 11 70 49
f 11 49 33
f 11 33 21
f 11 21 12
f 11 13 22
f 11 22 36
f 11 36 53
f 11 53 75
f 11 75 104
f 11 104 136
f 11 136 178
f 11 178 168
f 11 168 167
f 11 167 166
f 11 166 165
f 11 165 163
f 11 163 126
f 11 126 123
f 11 123 91
f 11 91 66
f 11 66 47
f 11 47 31
f 11 31 20
f 14 23 15
f 15 23 24
f 15 24 25
f 15 25 16
f 16 25 26
f 16 26 17
f 17 26 27
f 17 27 28
f 17 28 18
f 18 28 29
f 18 29 30
f 18 30 19
f 20 31 32
f 21 33 34
f 22 35 36
f 23 37 24
f 24 37 38
f 24 38 39
f 24 39 25
f 25 39 40
f 25 40 26
f 26 40 41
f 26 41 27
f 27 41 42
f 27 42 43
f 27 43 28
f 28 43 44
f 28 44 29
f 29 45 30
f 29 44 46
f 29 46 45
f 31 47 32
f 32 47 48
f 33 49 50
f 33 50 34
f 34 50 51
f 35 52 36
f 36 52 53
f 37 54 38
f 38 54 55
f 38 55 39
f 39 55 56
f 39 56 57
f 39 57 40
f 40 57 58
f 40 58 41
f 41 58 59
f 41 59 42
f 42 59 60
f 42 60 61
f 42 61 43
f 43 61 62
f 43 62 44
f 44 62 63
f 44 63 46
f 45 46 64
f 46 65 64
f 46 63 65
f 47 66 67
f 47 67 48
f 48 67 68
f 48 68 69
f 49 70 50
f 50 70 71
f 50 71 72
f 50 72 51
f 51 72 73
f 52 74 53
f 53 74 76
f 53 76 75
f 54 77 55
f 55 77 78
f 55 78 79
f 55 79 80
f 55 80 56
f 56 80 81
f 56 81 57
f 57 81 82
f 57 82 58
f 58 82 83
f 58 83 59
f 59 84 60
f 59 83 84
f 60 85 86
f 60 86 61
f 60 84 85
f 61 86 87
f 61 87 62
f 62 87 88
f 62 88 63
f 63 88 89
f 63 89 90
f 63 90 65
f 66 91 67
f 67 91 92
f 67 92 68
f 68 92 93
f 68 93 94
f 68 94 69
f 69 94 95
f 70 96 71
f 71 97 72
f 71 96 98
f 71 98 99
f 71 99 97
f 72 100 101
f 72 101 73
f 72 97 100
f 74 102 103
f 74 103 76
f 75 76 105
f 75 105 104
f 76 103 106
f 76 106 107
f 76 107 108
f 76 108 105
f 78 109 100
f 78 100 79
f 79 100 110
f 79 110 80
f 80 110 111
f 80 111 81
f 81 111 112
f 81 112 82
f 82 112 113
f 82 113 83
f 83 113 84
f 84 113 114
f 84 114 115
f 84 115 85
f 85 115 116
f 85 116 117
f 85 117 86
f 86 117 118
f 86 118 87
f 87 118 119
f 87 119 88
f 88 119 120
f 88 120 89
f 89 120 121
f 89 121 122
f 89 122 90
f 91 123 92
f 92 124 125
f 92 125 93
f 92 123 126
f 92 126 127
f 92 127 124
f 93 125 128
f 93 128 94
f 94 128 129
f 94 129 95
f 97 99 130
f 97 130 110
f 97 110 100
f 98 131 99
f 99 131 132
f 99 132 133
f 99 133 130
f 100 109 101
f 102 134 135
f 102 135 103
f 103 135 106
f 104 105 136
f 105 137 136
f 105 108 138
f 105 138 137
f 106 139 140
f 106 140 141
f 106 141 107
f 106 135 139
f 107 141 108
f 108 141 142
f 108 142 143
f 108 143 138
f 110 130 111
f 111 130 144
f 111 144 112
f 112 144 145
f 112 145 113
f 113 146 114
f 113 145 146
f 114 146 147
f 114 147 115
f 115 147 148
f 115 148 116
f 116 149 150
f 116 150 117
f 116 148 149
f 117 150 151
f 117 151 118
f 118 151 152
f 118 152 119
f 119 152 153
f 119 153 120
f 120 153 154
f 120 154 155
f 120 155 156
f 120 156 121
f 121 156 157
f 121 157 158
f 121 158 122
f 124 127 159
f 124 159 125
f 125 160 161
f 125 161 162
f 125 162 128
f 125 159 160
f 126 163 127
f 127 164 159
f 127 163 165
f 127 165 166
f 127 166 167
f 127 167 168
f 127 168 164
f 128 162 169
f 128 169 170
f 128 170 129
f 129 170 171
f 130 133 144
f 132 172 173
f 132 173 133
f 133 173 174
f 133 174 175
f 133 175 144
f 134 176 135
f 135 176 177
f 135 177 139
f 136 137 178
f 137 138 164
f 137 164 168
f 137 168 178
f 138 143 159
f 138 159 164
f 139 177 140
f 140 179 180
f 140 180 181
f 140 181 141
f 140 177 179
f 141 181 182
f 141 182 142
f 142 182 143
f 143 182 183
f 143 183 159
f 144 175 145
f 145 175 184
f 145 184 146
f 146 184 185
f 146 185 147
f 147 185 186
f 147 186 148
f 148 186 149
f 149 186 187
f 149 187 188
f 149 188 150
f 150 188 189
f 150 189 151
f 151 189 190
f 151 190 191
f 151 191 152
f 152 191 192
f 152 192 154
f 152 154 153
f 154 192 193
f 154 193 194
f 154 194 195
f 154 195 155
f 159 183 160
f 160 183 161
f 161 183 196
f 161 196 197
f 161 197 169
f 161 169 162
f 169 197 198
f 169 198 199
f 169 199 170
f 170 199 171
f 171 199 200
f 172 201 174
f 172 174 173
f 174 201 202
f 174 202 203
f 174 203 204
f 174 204 205
f 174 205 175
f 175 205 184
f 176 206 177
f 177 206 207
f 177 207 179
f 179 207 208
f 179 208 180
f 180 209 190
f 180 190 210
f 180 210 181
f 180 208 209
f 181 210 182
f 182 210 211
f 182 211 196
f 182 196 183
f 184 205 212
f 184 212 185
f 185 212 213
f 185 213 186
f 186 213 214
f 186 214 187
f 187 214 215
f 187 215 216
f 187 216 188
f 188 216 211
f 188 211 217
f 188 217 189
f 189 217 190
f 190 217 210
f 190 209 191
f 191 209 218
f 191 218 193
f 191 193 192
f 193 218 219
f 193 219 194
f 196 211 216
f 196 216 197
f 197 216 215
f 197 215 198
f 198 215 220
f 198 220 199
f 199 220 221
f 199 221 200
f 204 222 205
f 205 222 223
f 205 223 212
f 207 224 208
f 208 224 225
f 208 225 209
f 209 225 218
f 210 217 211
f 212 223 226
f 212 226 213
f 213 220 214
f 213 226 220
f 214 220 215
f 218 225 219
f 220 227 221
f 220 226 228
f 220 228 227
f 222 229 223
f 223 229 230
f 223 230 226
f 226 230 231
f 226 231 228

