# https://github.com/mikedh/trimesh
v -0.03152901 0.04031944 0.01432016
v -0.03152901 0.04933919 0.01432016
v -0.03152561 0.04032087 0.01432016
v -0.03152901 0.04253058 0.02864522
v -0.03018893 0.05015330 0.01432016
v -0.03152901 0.04934350 0.01523990
v -0.01995763 0.04707492 0.01432016
v -0.01995763 0.04909654 0.03043107
v -0.01995763 0.04915254 0.03082771
v -0.03152901 0.04271724 0.02976233
v -0.03001788 0.05025667 0.01439872
v -0.02998050 0.05027821 0.01432016
v -0.03061259 0.04990203 0.01566720
v -0.03152901 0.04932914 0.01678240
v -0.03120164 0.04953590 0.01693569
v -0.01995763 0.05496469 0.01432016
v -0.01995763 0.04937365 0.03172638
v -0.03152901 0.04302450 0.03128758
v -0.03152901 0.04293548 0.03085836
v -0.02993292 0.05030693 0.01752778
v -0.02934387 0.05065439 0.01625929
v -0.02874803 0.05098750 0.01499080
v -0.02843085 0.05115836 0.01432016
v -0.03152901 0.04931909 0.01763508
v -0.03152901 0.04930043 0.01893614
v -0.03111781 0.04954308 0.02006475
v -0.03051970 0.04993218 0.01879626
v -0.02025102 0.05486132 0.01432016
v -0.01995763 0.05496900 0.01445620
v -0.03152901 0.04336192 0.03229355
v -0.03152901 0.04325710 0.03202529
v -0.03152901 0.04317957 0.03179727
v -0.03152901 0.04307763 0.03148686
v -0.01995763 0.04973404 0.03260972
v -0.02984569 0.05030836 0.02065683
v -0.02925325 0.05068024 0.01938835
v -0.02866307 0.05103919 0.01811986
v -0.02806043 0.05137086 0.01685138
v -0.02793582 0.05142829 0.01432016
v -0.03152901 0.04926166 0.02095000
v -0.03043588 0.04991351 0.02192532
v -0.02048438 0.05477661 0.01432016
v -0.01995763 0.05498623 0.01600444
v -0.03152901 0.04350550 0.03257523
v -0.01995763 0.05009299 0.03298528
v -0.03152901 0.04394629 0.03319222
v -0.03152901 0.04374097 0.03294312
v -0.03152901 0.04367061 0.03284157
v -0.02917282 0.05063286 0.02251741
v -0.02857811 0.05101335 0.02124892
v -0.02739209 0.05171833 0.01871195
v -0.02797774 0.05137373 0.01998043
v -0.02748611 0.05167813 0.01558098
v -0.02680304 0.05203564 0.01744155
v -0.02689480 0.05197103 0.01432016
v -0.03152901 0.04924730 0.02141754
v -0.03152901 0.04923007 0.02182759
v -0.03103285 0.04948421 0.02319572
v -0.02975621 0.05021504 0.02378589
v -0.02071433 0.05469189 0.01432016
v -0.02121729 0.05450954 0.01541044
v -0.02054781 0.05475507 0.01727101
v -0.01995763 0.05496469 0.01754502
v -0.01995763 0.05012027 0.03300252
v -0.03152901 0.04448328 0.03356587
v -0.03152901 0.04414156 0.03333593
v -0.02849429 0.05088987 0.02437606
v -0.02789618 0.05130051 0.02310949
v -0.02730373 0.05166089 0.02184101
v -0.02671921 0.05200836 0.02057252
v -0.02613017 0.05234291 0.01930212
v -0.02552866 0.05265161 0.01803364
v -0.02621060 0.05232711 0.01617306
v -0.02562155 0.05259992 0.01490458
v -0.02534855 0.05271765 0.01432016
v -0.03152901 0.04917838 0.02296386
v -0.03152901 0.04908793 0.02427067
v -0.03152901 0.04906926 0.02450061
v -0.03034525 0.04975845 0.02505246
v -0.02908447 0.05043472 0.02564455
v -0.02225378 0.05408454 0.01432016
v -0.02248714 0.05399983 0.01481835
v -0.02308978 0.05375287 0.01608875
v -0.02180973 0.05426402 0.01667893
v -0.02113573 0.05450954 0.01853950
v -0.01995763 0.05494029 0.01909135
v -0.01995763 0.05100042 0.03354288
v -0.03152901 0.04479055 0.03371341
v -0.02721537 0.05151588 0.02496623
v -0.02773305 0.05082813 0.02937910
v -0.02645188 0.05146419 0.02995586
v -0.02662746 0.05191791 0.02369966
v -0.02604974 0.05226968 0.02243309
v -0.02545616 0.05260279 0.02116461
v -0.02485125 0.05292872 0.01989421
v -0.02426221 0.05322449 0.01862572
v -0.02493848 0.05293303 0.01676515
v -0.02434490 0.05319578 0.01549667
v -0.02400960 0.05332931 0.01432016
v -0.03152901 0.04905059 0.02470372
v -0.03094676 0.04926309 0.02632286
v -0.03085954 0.04899603 0.02945192
v -0.02899951 0.05016478 0.02877552
v -0.02267065 0.05391081 0.01432016
v -0.02372414 0.05345853 0.01432016
v -0.02368336 0.05348868 0.01735724
v -0.02299576 0.05375287 0.01921781
v -0.02240558 0.05401275 0.01794933
v -0.02172477 0.05424823 0.01980798
v -0.02046172 0.05471486 0.02040007
v -0.01995763 0.05493454 0.01931745
v -0.01995763 0.05141681 0.03374024
v -0.03145311 0.04488675 0.03373449
v -0.03152901 0.04484080 0.03373066
v -0.02587076 0.05187052 0.02868929
v -0.02953984 0.04969527 0.03016855
v -0.02735131 0.05094012 0.03031801
v -0.02565213 0.05170971 0.03112471
v -0.02519675 0.05201411 0.03056328
v -0.02595685 0.05209164 0.02556024
v -0.02535987 0.05248936 0.02428983
v -0.02476403 0.05283682 0.02302327
v -0.02417838 0.05316132 0.02175478
v -0.02359160 0.05346858 0.02048630
v -0.02379890 0.05342551 0.01432016
v -0.03152901 0.04892137 0.02605077
v -0.03152901 0.04877205 0.02756260
v -0.03152901 0.04860836 0.02913767
v -0.03152901 0.04844899 0.03054795
v -0.02231835 0.05396968 0.02107838
v -0.02105190 0.05444350 0.02167047
v -0.01995763 0.05482973 0.02218208
v -0.01995763 0.05489147 0.02063575
v -0.01995763 0.05167095 0.03374599
v -0.02798227 0.04772821 0.03389353
v -0.03152901 0.04487095 0.03374024
v -0.02459525 0.05241613 0.02927946
v -0.03152901 0.04843032 0.03068591
v -0.03016741 0.04918125 0.03115345
v -0.02918302 0.04977281 0.03110555
v -0.02842519 0.05027965 0.03063801
v -0.02810801 0.05032990 0.03146386
v -0.02670902 0.05114688 0.03118027
v -0.02720971 0.05070752 0.03187967
v -0.02490110 0.05198970 0.03149261
v -0.02333446 0.05292585 0.02987347
v -0.02378870 0.05255828 0.03109788
v -0.02408776 0.05301486 0.02488192
v -0.02350438 0.05336808 0.02361535
v -0.02291646 0.05367964 0.02234687
v -0.02164208 0.05415920 0.02293895
v -0.01995763 0.05480532 0.02263237
v -0.01995763 0.05193513 0.03374982
v -0.02379890 0.05038733 0.03381880
v -0.02683362 0.04887255 0.03383413
v -0.03123449 0.04628810 0.03383605
v -0.03152901 0.04603539 0.03384371
v -0.03152901 0.04551994 0.03380730
v -0.02056480 0.05176140 0.03376132
v -0.03152901 0.04831115 0.03136614
v -0.03152901 0.04828961 0.03148302
v -0.03110988 0.04851073 0.03166123
v -0.02889982 0.04975270 0.03193140
v -0.02663652 0.05085254 0.03224757
v -0.02579486 0.05141107 0.03191416
v -0.02776251 0.05017053 0.03243151
v -0.02166813 0.05337956 0.03139872
v -0.02424861 0.05217779 0.03184326
v -0.02248600 0.05312399 0.03103273
v -0.02202949 0.05339535 0.03044448
v -0.02273975 0.05327188 0.02860307
v -0.02223113 0.05384620 0.02420552
v -0.02096241 0.05428987 0.02479570
v -0.02036997 0.05460143 0.02352913
v -0.01995763 0.05473784 0.02372266
v -0.01995763 0.05203134 0.03374407
v -0.02287681 0.05106503 0.03371916
v -0.02492602 0.05038016 0.03368084
v -0.02600669 0.04963928 0.03373641
v -0.02732412 0.04903624 0.03371533
v -0.02833909 0.04827526 0.03376898
v -0.02969390 0.04764494 0.03373066
v -0.03152901 0.04650634 0.03371341
v -0.03152901 0.04627374 0.03378239
v -0.03152901 0.04615026 0.03381688
v -0.03152901 0.04610144 0.03383030
v -0.01995763 0.05228547 0.03366742
v -0.03152901 0.04817762 0.03184901
v -0.03052423 0.04877205 0.03199464
v -0.02985589 0.04908505 0.03225331
v -0.02600443 0.05107221 0.03249667
v -0.02465075 0.05179299 0.03237211
v -0.02928950 0.04925879 0.03258289
v -0.02699561 0.05034857 0.03283007
v -0.02270576 0.05281672 0.03185667
v -0.02109608 0.05352027 0.03171105
v -0.01995763 0.05398260 0.03152326
v -0.01995763 0.05402998 0.03130291
v -0.02060105 0.05384333 0.03105956
v -0.02356781 0.05231562 0.03220924
v -0.02019778 0.05414772 0.02978533
v -0.02146763 0.05372415 0.02919515
v -0.01995763 0.05461867 0.02526707
v -0.01995763 0.05466461 0.02467306
v -0.02358141 0.05107796 0.03362527
v -0.02408549 0.05117272 0.03343557
v -0.02564307 0.05047492 0.03341066
v -0.02744533 0.04960625 0.03341258
v -0.02843312 0.04879933 0.03359844
v -0.03152901 0.04717399 0.03337042
v -0.01995763 0.05243480 0.03361569
v -0.03152901 0.04810440 0.03206170
v -0.03152901 0.04800102 0.03230697
v -0.03095809 0.04827239 0.03252157
v -0.02543237 0.05117703 0.03281857
v -0.02395522 0.05182601 0.03283199
v -0.02152994 0.05309527 0.03233188
v -0.02935180 0.04884240 0.03316923
v -0.02636579 0.05044477 0.03318264
v -0.02047305 0.05367821 0.03197739
v -0.01995763 0.05394096 0.03168422
v -0.01995763 0.05408598 0.03096183
v -0.01995763 0.05420228 0.03003634
v -0.01995763 0.05427981 0.02925647
v -0.02188789 0.05189350 0.03353330
v -0.02318153 0.05181309 0.03324779
v -0.02957156 0.04836284 0.03341449
v -0.03152901 0.04750423 0.03304659
v -0.01995763 0.05307230 0.03322863
v -0.03152901 0.04787610 0.03251774
v -0.03082782 0.04808430 0.03292588
v -0.02220960 0.05257551 0.03276684
v -0.01995763 0.05360211 0.03251008
v -0.01995763 0.05374426 0.03225715
v -0.01995763 0.05379595 0.03215176
v -0.01995763 0.05328049 0.03299486
v -0.02025669 0.05328192 0.03285115
v -0.03152901 0.04764063 0.03285307
v -0.01995763 0.05345279 0.03276109
v -0.01995763 0.05338961 0.03285690
f 1 2 5
f 1 5 12
f 1 12 23
f 1 23 39
f 1 39 55
f 1 55 75
f 1 75 99
f 1 99 125
f 1 125 105
f 1 105 104
f 1 104 81
f 1 81 60
f 1 60 42
f 1 42 28
f 1 28 16
f 1 16 7
f 1 7 3
f 1 3 4
f 1 4 10
f 1 10 19
f 1 19 18
f 1 18 33
f 1 33 32
f 1 32 31
f 1 31 30
f 1 30 44
f 1 44 48
f 1 48 47
f 1 47 46
f 1 46 66
f 1 66 65
f 1 65 88
f 1 88 114
f 1 114 136
f 1 136 158
f 1 158 157
f 1 157 186
f 1 186 185
f 1 185 184
f 1 184 183
f 1 183 210
f 1 210 228
f 1 228 238
f 1 238 230
f 1 230 213
f 1 213 212
f 1 212 188
f 1 188 161
f 1 161 160
f 1 160 138
f 1 138 129
f 1 129 128
f 1 128 127
f 1 127 126
f 1 126 100
f 1 100 78
f 1 78 77
f 1 77 76
f 1 76 57
f 1 57 56
f 1 56 40
f 1 40 25
f 1 25 24
f 1 24 14
f 1 14 6
f 1 6 2
f 2 6 5
f 3 7 8
f 3 8 9
f 3 9 4
f 4 9 10
f 5 11 12
f 5 6 13
f 5 13 11
f 6 14 15
f 6 15 13
f 7 16 29
f 7 29 43
f 7 43 63
f 7 63 86
f 7 86 111
f 7 111 133
f 7 133 132
f 7 132 152
f 7 152 175
f 7 175 204
f 7 204 203
f 7 203 224
f 7 224 223
f 7 223 222
f 7 222 198
f 7 198 197
f 7 197 221
f 7 221 235
f 7 235 234
f 7 234 233
f 7 233 239
f 7 239 240
f 7 240 236
f 7 236 229
f 7 229 211
f 7 211 187
f 7 187 176
f 7 176 153
f 7 153 134
f 7 134 112
f 7 112 87
f 7 87 64
f 7 64 45
f 7 45 34
f 7 34 17
f 7 17 9
f 7 9 8
f 9 17 18
f 9 18 19
f 9 19 10
f 11 13 20
f 11 20 21
f 11 21 12
f 12 21 22
f 12 22 23
f 13 15 20
f 14 24 15
f 15 24 25
f 15 25 26
f 15 26 27
f 15 27 20
f 16 28 29
f 17 30 31
f 17 31 32
f 17 32 33
f 17 33 18
f 17 34 30
f 20 27 35
f 20 35 36
f 20 36 37
f 20 37 21
f 21 37 22
f 22 37 38
f 22 38 23
f 23 38 39
f 25 40 26
f 26 40 41
f 26 41 35
f 26 35 27
f 28 42 43
f 28 43 29
f 30 34 44
f 34 45 46
f 34 46 47
f 34 47 48
f 34 48 44
f 35 41 49
f 35 49 50
f 35 50 36
f 36 50 37
f 37 51 38
f 37 50 52
f 37 52 51
f 38 53 39
f 38 51 54
f 38 54 53
f 39 53 55
f 40 56 41
f 41 56 57
f 41 57 58
f 41 58 59
f 41 59 49
f 42 60 43
f 43 60 61
f 43 61 62
f 43 62 63
f 45 64 65
f 45 65 66
f 45 66 46
f 49 59 67
f 49 67 68
f 49 68 50
f 50 68 69
f 50 69 52
f 51 52 70
f 51 70 71
f 51 71 54
f 52 69 70
f 53 54 55
f 54 71 72
f 54 72 73
f 54 73 55
f 55 73 74
f 55 74 75
f 57 76 58
f 58 76 77
f 58 77 78
f 58 78 79
f 58 79 59
f 59 79 80
f 59 80 67
f 60 81 82
f 60 82 61
f 61 83 84
f 61 84 62
f 61 82 83
f 62 85 86
f 62 86 63
f 62 84 85
f 64 87 65
f 65 87 88
f 67 89 68
f 67 80 90
f 67 90 91
f 67 91 89
f 68 89 92
f 68 92 69
f 69 93 70
f 69 92 93
f 70 93 71
f 71 93 94
f 71 94 95
f 71 95 72
f 72 96 97
f 72 97 73
f 72 95 96
f 73 97 74
f 74 97 98
f 74 98 75
f 75 98 99
f 78 100 79
f 79 101 102
f 79 102 103
f 79 103 80
f 79 100 101
f 80 103 90
f 81 104 82
f 82 104 105
f 82 105 83
f 83 97 106
f 83 106 107
f 83 107 108
f 83 108 84
f 83 105 98
f 83 98 97
f 84 108 85
f 85 108 107
f 85 107 109
f 85 109 110
f 85 110 111
f 85 111 86
f 87 112 88
f 88 112 113
f 88 113 114
f 89 91 115
f 89 115 92
f 90 103 116
f 90 116 117
f 90 117 91
f 91 117 118
f 91 118 119
f 91 119 115
f 92 115 120
f 92 120 121
f 92 121 93
f 93 121 122
f 93 122 94
f 94 122 123
f 94 123 95
f 95 123 124
f 95 124 96
f 96 106 97
f 96 124 107
f 96 107 106
f 98 105 125
f 98 125 99
f 100 126 101
f 101 126 127
f 101 127 102
f 102 127 128
f 102 128 129
f 102 129 116
f 102 116 103
f 107 124 130
f 107 130 109
f 109 130 131
f 109 131 110
f 110 131 132
f 110 132 133
f 110 133 111
f 112 134 135
f 112 135 136
f 112 136 113
f 113 136 114
f 115 119 137
f 115 137 121
f 115 121 120
f 116 129 138
f 116 138 139
f 116 139 140
f 116 140 141
f 116 141 117
f 117 141 142
f 117 142 143
f 117 143 118
f 118 143 144
f 118 144 145
f 118 145 119
f 119 146 137
f 119 145 147
f 119 147 146
f 121 148 149
f 121 149 122
f 121 137 148
f 122 149 123
f 123 150 124
f 123 149 150
f 124 150 130
f 130 150 151
f 130 151 131
f 131 151 132
f 132 151 152
f 134 153 135
f 135 154 155
f 135 155 156
f 135 156 157
f 135 157 158
f 135 158 136
f 135 153 159
f 135 159 154
f 137 146 148
f 138 160 139
f 139 160 161
f 139 161 162
f 139 162 142
f 139 142 140
f 140 142 141
f 142 162 163
f 142 163 144
f 142 144 143
f 144 164 165
f 144 165 145
f 144 163 166
f 144 166 164
f 145 167 147
f 145 165 168
f 145 168 167
f 146 147 169
f 146 169 170
f 146 170 171
f 146 171 172
f 146 172 149
f 146 149 148
f 147 167 169
f 149 172 151
f 149 151 150
f 151 172 173
f 151 173 174
f 151 174 152
f 152 174 175
f 153 176 159
f 154 159 177
f 154 177 178
f 154 178 155
f 155 178 179
f 155 179 180
f 155 180 181
f 155 181 156
f 156 181 182
f 156 182 183
f 156 183 184
f 156 184 185
f 156 185 186
f 156 186 157
f 159 176 187
f 159 187 177
f 161 188 162
f 162 188 189
f 162 189 163
f 163 189 190
f 163 190 166
f 164 166 191
f 164 191 165
f 165 191 192
f 165 192 168
f 166 193 194
f 166 194 191
f 166 190 193
f 167 168 195
f 167 195 196
f 167 196 197
f 167 197 198
f 167 198 199
f 167 199 170
f 167 170 169
f 168 200 195
f 168 192 200
f 170 201 202
f 170 202 171
f 170 199 201
f 171 202 172
f 172 202 173
f 173 203 204
f 173 204 175
f 173 175 174
f 173 202 201
f 173 201 203
f 177 187 205
f 177 205 178
f 178 205 206
f 178 206 207
f 178 207 208
f 178 208 209
f 178 209 180
f 178 180 179
f 180 182 181
f 180 209 182
f 182 209 183
f 183 209 210
f 187 211 205
f 188 212 189
f 189 212 213
f 189 213 214
f 189 214 190
f 190 214 193
f 191 194 215
f 191 215 192
f 192 215 216
f 192 216 217
f 192 217 200
f 193 214 218
f 193 218 194
f 194 218 219
f 194 219 215
f 195 200 220
f 195 220 196
f 196 220 197
f 197 220 221
f 198 222 199
f 199 222 223
f 199 223 201
f 200 217 220
f 201 223 224
f 201 224 203
f 205 211 225
f 205 225 206
f 206 225 226
f 206 226 219
f 206 219 207
f 207 219 208
f 208 219 218
f 208 218 209
f 209 218 227
f 209 227 210
f 210 218 228
f 210 227 218
f 211 229 225
f 213 230 214
f 214 230 231
f 214 231 218
f 215 219 226
f 215 226 216
f 216 232 217
f 216 226 232
f 217 232 233
f 217 233 234
f 217 234 235
f 217 235 220
f 218 231 228
f 220 235 221
f 225 229 226
f 226 229 236
f 226 236 237
f 226 237 232
f 228 231 238
f 230 238 231
f 232 237 239
f 232 239 233
f 236 240 237
f 237 240 239

