# https://github.com/mikedh/trimesh
v -0.01995650 0.05496377 0.01431697
v -0.01995650 0.05493325 0.01291008
v -0.02004068 0.05490442 0.01287068
v -0.02025076 0.05486033 0.01431697
v -0.01995650 0.04707341 0.01431697
v -0.01995650 0.05493155 0.01284018
v -0.01995650 0.05492647 0.01269148
v -0.01995650 0.05481963 0.00982050
v -0.02071413 0.05459579 0.01101134
v -0.02130340 0.05441435 0.01227970
v -0.02063219 0.05472128 0.01414031
v -0.02071339 0.05469245 0.01431697
v -0.02756710 0.04305108 0.01431697
v -0.02756710 0.03764161 0.00133465
v -0.01995650 0.04223033 0.00133465
v -0.01995650 0.05479250 0.00938331
v -0.02012486 0.05475689 0.00974170
v -0.02198282 0.05408368 0.01041910
v -0.02258252 0.05388188 0.01168746
v -0.02189565 0.05421425 0.01354934
v -0.02111716 0.05453305 0.01431697
v -0.02756710 0.05087530 0.01431697
v -0.02756710 0.05027161 0.00133465
v -0.01995650 0.05370043 0.00133465
v -0.01995650 0.05470941 0.00827507
v -0.02079683 0.05437195 0.00788236
v -0.02138461 0.05424647 0.00915200
v -0.02266446 0.05368687 0.00855849
v -0.02325001 0.05352068 0.00982812
v -0.02384300 0.05331889 0.01109649
v -0.02317328 0.05366652 0.01295710
v -0.02267117 0.05391071 0.01431697
v -0.02225324 0.05408368 0.01431697
v -0.02689514 0.05197076 0.01431697
v -0.02756710 0.05161974 0.01431570
v -0.02756710 0.05034623 0.00163839
v -0.02701731 0.05057007 0.00133465
v -0.02083631 0.05336637 0.00133465
v -0.01995650 0.05386662 0.00209719
v -0.01995650 0.05455679 0.00673219
v -0.02020979 0.05445504 0.00661400
v -0.02148145 0.05389884 0.00602176
v -0.02206998 0.05381066 0.00729139
v -0.02333642 0.05321206 0.00670042
v -0.02393240 0.05307978 0.00796624
v -0.02451496 0.05291699 0.00923715
v -0.02510721 0.05271859 0.01050552
v -0.02569947 0.05249814 0.01177388
v -0.02444270 0.05309166 0.01236486
v -0.02375659 0.05344268 0.01422546
v -0.02355991 0.05352916 0.01431697
v -0.02687875 0.05197924 0.01431697
v -0.02689216 0.05197246 0.01431062
v -0.02756710 0.05161635 0.01399416
v -0.02756710 0.05035471 0.00167779
v -0.02723261 0.05056498 0.00179472
v -0.02597212 0.05108388 0.00133465
v -0.02159096 0.05305265 0.00133465
v -0.02097040 0.05337824 0.00162569
v -0.01995650 0.05399041 0.00276569
v -0.02155669 0.05338841 0.00289659
v -0.01995650 0.05447879 0.00607005
v -0.01995650 0.05436517 0.00518677
v -0.02088846 0.05396328 0.00475212
v -0.02275013 0.05331210 0.00542951
v -0.02460362 0.05257106 0.00610945
v -0.02519736 0.05243540 0.00737654
v -0.02579557 0.05226073 0.00864364
v -0.02638558 0.05205724 0.00991200
v -0.02696517 0.05184019 0.01118291
v -0.02756710 0.05159091 0.01244746
v -0.02629544 0.05224887 0.01304225
v -0.02502899 0.05285256 0.01363449
v -0.02372381 0.05345794 0.01431697
v -0.02400839 0.05332906 0.01431697
v -0.02534784 0.05271689 0.01431697
v -0.02756710 0.05053615 0.00252422
v -0.02654873 0.05126872 0.00365787
v -0.02595648 0.05130942 0.00238823
v -0.02547299 0.05132807 0.00133465
v -0.02213702 0.05281864 0.00133465
v -0.02284027 0.05271859 0.00229800
v -0.02028801 0.05399380 0.00348757
v -0.01995650 0.05413963 0.00364262
v -0.02215416 0.05336976 0.00416242
v -0.01995650 0.05425664 0.00441279
v -0.02400690 0.05266602 0.00484235
v -0.02529122 0.05197585 0.00424503
v -0.02587751 0.05188258 0.00551593
v -0.02646827 0.05175031 0.00678430
v -0.02705754 0.05157226 0.00805267
v -0.02756710 0.05139929 0.00936170
v -0.02756710 0.05150104 0.01090458
v -0.02756710 0.05066164 0.00318255
v -0.02470493 0.05201655 0.00297285
v -0.02714247 0.05117545 0.00492496
v -0.02490384 0.05158752 0.00133465
v -0.02239404 0.05270842 0.00133465
v -0.02392793 0.05202502 0.00133465
v -0.02410374 0.05202672 0.00170829
v -0.02340943 0.05271011 0.00357653
v -0.02756710 0.05128737 0.00781628
v -0.02756710 0.05107879 0.00583239
v -0.02756710 0.05113475 0.00627212
v -0.02756710 0.05092109 0.00472797
f 1 2 3
f 1 3 4
f 1 4 12
f 1 12 21
f 1 21 33
f 1 33 32
f 1 32 51
f 1 51 74
f 1 74 75
f 1 75 76
f 1 76 52
f 1 52 34
f 1 34 22
f 1 22 13
f 1 13 5
f 1 5 15
f 1 15 24
f 1 24 39
f 1 39 60
f 1 60 84
f 1 84 86
f 1 86 63
f 1 63 62
f 1 62 40
f 1 40 25
f 1 25 16
f 1 16 8
f 1 8 7
f 1 7 6
f 1 6 2
f 2 6 3
f 3 6 7
f 3 7 8
f 3 8 9
f 3 9 10
f 3 10 11
f 3 11 4
f 4 11 12
f 5 13 14
f 5 14 15
f 8 16 17
f 8 17 9
f 9 17 18
f 9 18 10
f 10 18 19
f 10 19 20
f 10 20 11
f 11 20 12
f 12 20 21
f 13 22 35
f 13 35 54
f 13 54 71
f 13 71 93
f 13 93 92
f 13 92 102
f 13 102 104
f 13 104 103
f 13 103 105
f 13 105 94
f 13 94 77
f 13 77 55
f 13 55 36
f 13 36 23
f 13 23 14
f 14 23 37
f 14 37 57
f 14 57 80
f 14 80 97
f 14 97 99
f 14 99 98
f 14 98 81
f 14 81 58
f 14 58 38
f 14 38 24
f 14 24 15
f 16 25 26
f 16 26 17
f 17 26 27
f 17 27 18
f 18 27 28
f 18 28 29
f 18 29 19
f 19 29 30
f 19 30 31
f 19 31 32
f 19 32 20
f 20 32 33
f 20 33 21
f 22 34 35
f 23 36 37
f 24 38 39
f 25 40 26
f 26 40 41
f 26 41 42
f 26 42 43
f 26 43 28
f 26 28 27
f 28 43 44
f 28 44 45
f 28 45 46
f 28 46 29
f 29 46 47
f 29 47 30
f 30 47 48
f 30 48 49
f 30 49 31
f 31 50 51
f 31 51 32
f 31 49 50
f 34 52 53
f 34 53 35
f 35 53 54
f 36 55 56
f 36 56 37
f 37 56 57
f 38 58 59
f 38 59 39
f 39 59 61
f 39 61 60
f 40 62 41
f 41 62 63
f 41 63 64
f 41 64 42
f 42 65 43
f 42 64 65
f 43 65 44
f 44 65 66
f 44 66 45
f 45 66 67
f 45 67 46
f 46 67 68
f 46 68 47
f 47 68 69
f 47 69 48
f 48 69 70
f 48 70 71
f 48 71 72
f 48 72 73
f 48 73 49
f 49 73 50
f 50 74 51
f 50 73 75
f 50 75 74
f 52 72 53
f 52 76 72
f 53 72 71
f 53 71 54
f 55 77 56
f 56 77 78
f 56 78 79
f 56 79 80
f 56 80 57
f 58 81 82
f 58 82 59
f 59 82 61
f 60 83 84
f 60 61 83
f 61 82 85
f 61 85 83
f 63 86 64
f 64 86 83
f 64 83 85
f 64 85 65
f 65 85 87
f 65 87 66
f 66 87 88
f 66 88 89
f 66 89 90
f 66 90 67
f 67 90 68
f 68 90 91
f 68 91 69
f 69 91 92
f 69 92 70
f 70 92 93
f 70 93 71
f 72 76 73
f 73 76 75
f 77 94 78
f 78 88 95
f 78 95 79
f 78 94 96
f 78 96 88
f 79 95 80
f 80 95 97
f 81 98 82
f 82 98 99
f 82 99 100
f 82 100 95
f 82 95 101
f 82 101 85
f 83 86 84
f 85 101 87
f 87 95 88
f 87 101 95
f 88 96 89
f 89 96 90
f 90 102 91
f 90 96 103
f 90 103 104
f 90 104 102
f 91 102 92
f 94 105 96
f 95 100 97
f 96 105 103
f 97 100 99

