# https://github.com/mikedh/trimesh
v -0.04265883 -0.00032565 -0.00433681
v -0.03967495 -0.01553147 -0.00433681
v -0.05608808 -0.00032565 -0.00433681
v -0.04714880 -0.00032565 0.00176723
v -0.04447603 -0.01553147 0.00176305
v -0.05081502 -0.01553147 -0.00433681
v -0.05608808 -0.00037775 -0.00433681
v -0.05610575 -0.00032565 -0.00428840
v -0.05773027 -0.00032565 0.00176723
v -0.04452023 -0.01541686 0.00176723
v -0.04478715 -0.01553147 0.00176723
v -0.05392441 -0.01553147 -0.00433442
v -0.05395623 -0.01541686 -0.00433681
v -0.05607570 -0.00141667 -0.00433681
v -0.05619767 -0.00141667 -0.00398780
v -0.05620828 -0.00032565 -0.00399378
v -0.05768078 -0.00032565 0.00149890
v -0.05773027 -0.00048492 0.00176723
v -0.05561610 -0.01553147 0.00176723
v -0.05429032 -0.01553147 -0.00323062
v -0.05435749 -0.01541388 -0.00313202
v -0.05399865 -0.01526206 -0.00433681
v -0.05602797 -0.00281729 -0.00433681
v -0.05615348 -0.00281729 -0.00396868
v -0.05662546 -0.00141667 -0.00264436
v -0.05663253 -0.00032565 -0.00264795
v -0.05767547 -0.00141667 0.00150129
v -0.05772674 -0.00141667 0.00176723
v -0.05736789 -0.00032565 0.00009809
v -0.05565145 -0.01541239 0.00176723
v -0.05545170 -0.01553147 0.00099332
v -0.05432568 -0.01553147 -0.00311827
v -0.05436103 -0.01553147 -0.00300413
v -0.05475876 -0.01541686 -0.00177304
v -0.05508755 -0.01401624 -0.00192663
v -0.05468275 -0.01401624 -0.00328262
v -0.05433275 -0.01401624 -0.00433681
v -0.05594136 -0.00421641 -0.00433681
v -0.05607924 -0.00421641 -0.00393461
v -0.05657773 -0.00281580 -0.00262345
v -0.05697369 -0.00281729 -0.00126208
v -0.05701612 -0.00141667 -0.00128419
v -0.05671915 -0.00032565 -0.00234675
v -0.05736082 -0.00141667 0.00009989
v -0.05732370 -0.00281580 0.00011901
v -0.05763481 -0.00281729 0.00151863
v -0.05768078 -0.00281729 0.00176723
v -0.05729188 -0.00032565 -0.00020789
v -0.05548175 -0.01541686 0.00097898
v -0.05588833 -0.01452975 0.00176723
v -0.05509816 -0.01553147 -0.00038777
v -0.05472871 -0.01553147 -0.00175929
v -0.05512821 -0.01541537 -0.00040211
v -0.05546054 -0.01401475 -0.00055689
v -0.05538806 -0.01261563 -0.00206707
v -0.05457846 -0.01301602 -0.00433681
v -0.05497972 -0.01261414 -0.00342126
v -0.05586004 -0.00515859 -0.00433681
v -0.05597494 -0.00561703 -0.00388501
v -0.05650348 -0.00421641 -0.00258699
v -0.05689415 -0.00421641 -0.00122443
v -0.05724415 -0.00421641 0.00015666
v -0.05701965 -0.00032565 -0.00128359
v -0.05755704 -0.00421641 0.00155388
v -0.05759769 -0.00421641 0.00176723
v -0.05580701 -0.01401475 0.00082539
v -0.05601913 -0.01401475 0.00176723
v -0.05575398 -0.01261414 -0.00069434
v -0.05566029 -0.01121353 -0.00219496
v -0.05525372 -0.01121502 -0.00354915
v -0.05467568 -0.01261563 -0.00433681
v -0.05581938 -0.00561703 -0.00433681
v -0.05639389 -0.00561703 -0.00253560
v -0.05576635 -0.00611416 -0.00433681
v -0.05584413 -0.00701764 -0.00382346
v -0.05677748 -0.00561703 -0.00117124
v -0.05713102 -0.00561703 0.00020925
v -0.05744567 -0.00561703 0.00160707
v -0.05749163 -0.00545181 0.00176723
v -0.05609338 -0.01261563 0.00069392
v -0.05632848 -0.01261712 0.00176723
v -0.05602444 -0.01121502 -0.00081984
v -0.05626485 -0.00981589 -0.00093160
v -0.05589363 -0.00981291 -0.00230492
v -0.05525902 -0.00981589 -0.00433681
v -0.05498680 -0.01121502 -0.00433681
v -0.05548706 -0.00981440 -0.00365792
v -0.05625778 -0.00701764 -0.00247105
v -0.05566736 -0.00701764 -0.00433681
v -0.05559312 -0.00758771 -0.00433681
v -0.05547999 -0.00841379 -0.00433681
v -0.05567797 -0.00841379 -0.00374816
v -0.05609338 -0.00841379 -0.00239695
v -0.05663253 -0.00701615 -0.00110431
v -0.05698607 -0.00701764 0.00027738
v -0.05745981 -0.00576736 0.00176723
v -0.05747572 -0.00561703 0.00176723
v -0.05729719 -0.00701615 0.00167640
v -0.05635677 -0.01121650 0.00057081
v -0.05656889 -0.01144275 0.00176723
v -0.05659717 -0.00981440 0.00045726
v -0.05680930 -0.00841379 0.00035806
v -0.05646813 -0.00841528 -0.00102662
v -0.05731486 -0.00701615 0.00176723
v -0.05711865 -0.00841379 0.00175767
v -0.05661485 -0.01121650 0.00176723
v -0.05665197 -0.01102450 0.00176723
v -0.05688354 -0.00981440 0.00176723
v -0.05712041 -0.00841379 0.00176723
v -0.05709743 -0.00855072 0.00176723
f 1 2 6
f 1 6 13
f 1 13 22
f 1 22 37
f 1 37 56
f 1 56 71
f 1 71 86
f 1 86 85
f 1 85 91
f 1 91 90
f 1 90 89
f 1 89 74
f 1 74 72
f 1 72 58
f 1 58 38
f 1 38 23
f 1 23 14
f 1 14 7
f 1 7 3
f 1 3 8
f 1 8 16
f 1 16 26
f 1 26 43
f 1 43 63
f 1 63 48
f 1 48 29
f 1 29 17
f 1 17 9
f 1 9 4
f 1 4 2
f 2 4 5
f 2 5 11
f 2 11 19
f 2 19 31
f 2 31 51
f 2 51 52
f 2 52 33
f 2 33 32
f 2 32 20
f 2 20 12
f 2 12 6
f 3 7 8
f 4 9 18
f 4 18 28
f 4 28 47
f 4 47 65
f 4 65 79
f 4 79 97
f 4 97 96
f 4 96 104
f 4 104 109
f 4 109 110
f 4 110 108
f 4 108 107
f 4 107 106
f 4 106 100
f 4 100 81
f 4 81 67
f 4 67 50
f 4 50 30
f 4 30 19
f 4 19 11
f 4 11 10
f 4 10 5
f 5 10 11
f 6 12 13
f 7 14 8
f 8 14 15
f 8 15 16
f 9 17 18
f 12 20 21
f 12 21 13
f 13 21 22
f 14 23 15
f 15 23 24
f 15 24 25
f 15 25 16
f 16 25 26
f 17 27 28
f 17 28 18
f 17 29 27
f 19 30 31
f 20 32 21
f 21 33 34
f 21 34 35
f 21 35 36
f 21 36 22
f 21 32 33
f 22 36 37
f 23 38 39
f 23 39 24
f 24 39 40
f 24 40 25
f 25 40 41
f 25 41 42
f 25 42 43
f 25 43 26
f 27 29 44
f 27 44 45
f 27 45 46
f 27 46 28
f 28 46 47
f 29 48 44
f 30 49 31
f 30 50 49
f 31 49 51
f 33 52 34
f 34 52 51
f 34 51 53
f 34 53 54
f 34 54 35
f 35 54 55
f 35 55 36
f 36 56 37
f 36 55 57
f 36 57 56
f 38 58 39
f 39 58 59
f 39 59 60
f 39 60 40
f 40 60 41
f 41 61 62
f 41 62 45
f 41 45 42
f 41 60 61
f 42 45 44
f 42 44 48
f 42 48 63
f 42 63 43
f 45 64 46
f 45 62 64
f 46 65 47
f 46 64 65
f 49 54 53
f 49 53 51
f 49 50 66
f 49 66 54
f 50 67 66
f 54 66 68
f 54 68 55
f 55 68 69
f 55 69 70
f 55 70 57
f 56 57 71
f 57 70 71
f 58 72 59
f 59 73 60
f 59 72 74
f 59 74 75
f 59 75 73
f 60 73 61
f 61 73 76
f 61 76 77
f 61 77 62
f 62 77 78
f 62 78 64
f 64 78 79
f 64 79 65
f 66 67 80
f 66 80 68
f 67 81 80
f 68 80 82
f 68 82 69
f 69 82 83
f 69 83 84
f 69 84 70
f 70 85 86
f 70 86 71
f 70 84 87
f 70 87 85
f 73 75 88
f 73 88 76
f 74 89 75
f 75 89 90
f 75 90 91
f 75 91 92
f 75 92 93
f 75 93 88
f 76 88 94
f 76 94 77
f 77 94 95
f 77 95 78
f 78 96 97
f 78 97 79
f 78 95 98
f 78 98 96
f 80 81 99
f 80 99 82
f 81 100 99
f 82 99 83
f 83 99 101
f 83 101 102
f 83 102 103
f 83 103 84
f 84 103 93
f 84 93 87
f 85 87 92
f 85 92 91
f 87 93 92
f 88 93 94
f 93 103 94
f 94 103 95
f 95 102 98
f 95 103 102
f 96 98 104
f 98 102 105
f 98 105 104
f 99 100 106
f 99 106 107
f 99 107 108
f 99 108 101
f 101 108 105
f 101 105 102
f 104 105 109
f 105 108 110
f 105 110 109

