# https://github.com/mikedh/trimesh
v 0.02906720 -0.01827798 -0.02422903
v 0.02906720 -0.01875757 -0.02414613
v 0.02906720 -0.01827798 -0.00944416
v 0.02957854 -0.01827798 -0.02410574
v 0.02906720 -0.01961650 -0.02399520
v 0.02906720 -0.02646951 -0.00675928
v 0.03210893 -0.02646951 -0.00435714
v 0.03247929 -0.02646951 -0.00408929
v 0.03292133 -0.02646951 -0.00379380
v 0.03486154 -0.02646951 -0.00251195
v 0.03992950 -0.01827798 -0.00251195
v 0.02963827 -0.01827798 -0.02409086
v 0.02954031 -0.01961570 -0.02387615
v 0.02906720 -0.02101678 -0.02372310
v 0.02906720 -0.02646951 -0.02236046
v 0.04985036 -0.02646951 -0.00251195
v 0.05347750 -0.01827798 -0.00251195
v 0.03100980 -0.01827798 -0.02371459
v 0.03090705 -0.01961570 -0.02349776
v 0.02942322 -0.02101758 -0.02363169
v 0.02906720 -0.02241545 -0.02342336
v 0.02906720 -0.02521520 -0.02273673
v 0.03035510 -0.02521440 -0.02231370
v 0.03019978 -0.02646951 -0.02197782
v 0.04981214 -0.02646951 -0.00262674
v 0.05050506 -0.02521921 -0.00251195
v 0.05299245 -0.01961730 -0.00251195
v 0.05294944 -0.01827798 -0.00420833
v 0.03236460 -0.01827798 -0.02331069
v 0.03078758 -0.02101678 -0.02323841
v 0.03225707 -0.01961650 -0.02308111
v 0.02929897 -0.02241545 -0.02336171
v 0.02906720 -0.02263118 -0.02337659
v 0.02906720 -0.02472598 -0.02286640
v 0.03051280 -0.02381412 -0.02265170
v 0.03184131 -0.02381572 -0.02218615
v 0.03167405 -0.02521520 -0.02183114
v 0.03033598 -0.02646951 -0.02192680
v 0.04979302 -0.02646951 -0.00268201
v 0.04995550 -0.02521841 -0.00415094
v 0.05089454 -0.02381171 -0.00347706
v 0.05073445 -0.02476528 -0.00251195
v 0.05298050 -0.01964778 -0.00251195
v 0.05235686 -0.02101598 -0.00280106
v 0.05242377 -0.01960928 -0.00429974
v 0.05289926 -0.01827798 -0.00436351
v 0.03370028 -0.01827798 -0.02286428
v 0.03065616 -0.02241465 -0.02295781
v 0.03213043 -0.02101598 -0.02280901
v 0.03358798 -0.01961570 -0.02262194
v 0.02916517 -0.02381733 -0.02307473
v 0.02906720 -0.02381733 -0.02310237
v 0.03199185 -0.02241705 -0.02251139
v 0.03330603 -0.02241385 -0.02201396
v 0.03314594 -0.02381492 -0.02167383
v 0.03164299 -0.02646951 -0.02141874
v 0.03150918 -0.02646951 -0.02147401
v 0.03296912 -0.02521440 -0.02129544
v 0.04924345 -0.02646951 -0.00426360
v 0.04955169 -0.02534432 -0.00504377
v 0.05004152 -0.02396329 -0.00556671
v 0.05127924 -0.02241545 -0.00424872
v 0.05166393 -0.02241385 -0.00312205
v 0.05158269 -0.02299850 -0.00251195
v 0.05120039 -0.02381171 -0.00251195
v 0.05243811 -0.02101678 -0.00251195
v 0.05232341 -0.02129186 -0.00251195
v 0.05184314 -0.02241465 -0.00251195
v 0.05161853 -0.02101598 -0.00497787
v 0.05201518 -0.01932057 -0.00568576
v 0.05284431 -0.01827798 -0.00451445
v 0.03501685 -0.01827798 -0.02237322
v 0.03345417 -0.02101598 -0.02233283
v 0.03489738 -0.01961490 -0.02211600
v 0.03475640 -0.02101598 -0.02181201
v 0.03459870 -0.02241304 -0.02147614
v 0.03442905 -0.02381572 -0.02111262
v 0.03279469 -0.02646951 -0.02091918
v 0.03424268 -0.02521680 -0.02071510
v 0.03292611 -0.02646951 -0.02085965
v 0.04874167 -0.02646951 -0.00555396
v 0.04870105 -0.02646951 -0.00565600
v 0.04914071 -0.02530422 -0.00609603
v 0.04956602 -0.02393923 -0.00669126
v 0.05043338 -0.02274988 -0.00600675
v 0.05088737 -0.02101758 -0.00672102
v 0.05227324 -0.01827798 -0.00599825
v 0.05179296 -0.01871105 -0.00673377
v 0.03507420 -0.01827798 -0.02234983
v 0.03630953 -0.01827798 -0.02183327
v 0.03618289 -0.01961570 -0.02155904
v 0.03603236 -0.02101517 -0.02123592
v 0.03586988 -0.02241785 -0.02088729
v 0.03569067 -0.02381572 -0.02050465
v 0.03406108 -0.02646951 -0.02032395
v 0.03549712 -0.02521440 -0.02009012
v 0.04825184 -0.02646951 -0.00665512
v 0.04813476 -0.02646951 -0.00689533
v 0.04832114 -0.02520718 -0.00787107
v 0.04979302 -0.02241385 -0.00769676
v 0.04865566 -0.02381492 -0.00856408
v 0.05116693 -0.01961329 -0.00733537
v 0.05008931 -0.02101437 -0.00832812
v 0.05218483 -0.01827798 -0.00620232
v 0.05161853 -0.01827798 -0.00745016
v 0.03752335 -0.01827798 -0.02126568
v 0.03743972 -0.01961650 -0.02094256
v 0.03728202 -0.02101678 -0.02060456
v 0.03711476 -0.02241625 -0.02024530
v 0.03692839 -0.02381572 -0.01984778
v 0.03531075 -0.02646951 -0.01969047
v 0.03672768 -0.02521600 -0.01941412
v 0.04725068 -0.02646951 -0.00851731
v 0.04716227 -0.02646951 -0.00867037
v 0.04747050 -0.02521841 -0.00932724
v 0.04896150 -0.02241785 -0.00921032
v 0.04778830 -0.02381893 -0.01000749
v 0.05035931 -0.01961730 -0.00890208
v 0.05148950 -0.01827798 -0.00771376
v 0.05154685 -0.01827798 -0.00760109
v 0.04924106 -0.02101918 -0.00981192
v 0.03757831 -0.01827798 -0.02123805
v 0.03876346 -0.01827798 -0.02061731
v 0.03867505 -0.01961810 -0.02027931
v 0.03851257 -0.02101598 -0.01993494
v 0.03834053 -0.02241385 -0.01956080
v 0.03814460 -0.02381572 -0.01914414
v 0.03653413 -0.02646951 -0.01900171
v 0.03793433 -0.02521680 -0.01868922
v 0.04638093 -0.02646951 -0.00992458
v 0.04657208 -0.02521360 -0.01072388
v 0.04806069 -0.02239620 -0.01067074
v 0.04687793 -0.02381412 -0.01138075
v 0.04949912 -0.01961409 -0.01037738
v 0.05059825 -0.01827798 -0.00941014
v 0.04842388 -0.02096144 -0.01112353
v 0.03881842 -0.01827798 -0.02058755
v 0.03998445 -0.01827798 -0.01992005
v 0.03989127 -0.01961810 -0.01957143
v 0.03972162 -0.02101277 -0.01921642
v 0.03954002 -0.02241465 -0.01882527
v 0.03933931 -0.02381492 -0.01839161
v 0.03773601 -0.02646951 -0.01826406
v 0.03912187 -0.02521680 -0.01792606
v 0.04628057 -0.02646951 -0.01007764
v 0.04545144 -0.02646951 -0.01128509
v 0.04535348 -0.02646951 -0.01142327
v 0.04563543 -0.02521360 -0.01203124
v 0.04715032 -0.02241064 -0.01197597
v 0.04785520 -0.02151642 -0.01158483
v 0.04592455 -0.02381653 -0.01264347
v 0.04973089 -0.01827798 -0.01086418
v 0.04859114 -0.01961249 -0.01174851
v 0.04003702 -0.01827798 -0.01988817
v 0.04123173 -0.01827798 -0.01913989
v 0.04107881 -0.01961490 -0.01881039
v 0.04090677 -0.02101678 -0.01844051
v 0.04071801 -0.02241545 -0.01803448
v 0.04051012 -0.02381492 -0.01759231
v 0.03786026 -0.02646951 -0.01818328
v 0.03891877 -0.02646951 -0.01749028
v 0.04029030 -0.02521520 -0.01712039
v 0.04448134 -0.02646951 -0.01252868
v 0.04438099 -0.02646951 -0.01264985
v 0.04464621 -0.02521440 -0.01321744
v 0.04612526 -0.02236492 -0.01328759
v 0.04732714 -0.02101277 -0.01259670
v 0.04790777 -0.02052756 -0.01213328
v 0.04488037 -0.02372430 -0.01388068
v 0.04969027 -0.01827798 -0.01092371
v 0.04768077 -0.01964858 -0.01293258
v 0.04881097 -0.01827798 -0.01220981
v 0.04235237 -0.01827798 -0.01837673
v 0.04224484 -0.01961810 -0.01800046
v 0.04206564 -0.02101918 -0.01761570
v 0.04187210 -0.02241705 -0.01719904
v 0.04165705 -0.02381572 -0.01674200
v 0.03904063 -0.02646951 -0.01740524
v 0.04143005 -0.02521841 -0.01625307
v 0.04019472 -0.02646951 -0.01657831
v 0.04007764 -0.02646951 -0.01666547
v 0.04347062 -0.02646951 -0.01364897
v 0.04361159 -0.02521921 -0.01430159
v 0.04641199 -0.02101357 -0.01369361
v 0.04714315 -0.02012336 -0.01332585
v 0.04515516 -0.02240984 -0.01431434
v 0.04386009 -0.02381091 -0.01485217
v 0.04779785 -0.01827798 -0.01348954
v 0.04784086 -0.01827798 -0.01343852
v 0.04877274 -0.01827798 -0.01225870
v 0.04245272 -0.01827798 -0.01830445
v 0.04354708 -0.01827798 -0.01749028
v 0.04338699 -0.01961409 -0.01714377
v 0.04320061 -0.02101598 -0.01673987
v 0.04299990 -0.02241625 -0.01630834
v 0.04280875 -0.02381332 -0.01580240
v 0.04120784 -0.02646951 -0.01577476
v 0.04253635 -0.02521600 -0.01531134
v 0.04336070 -0.02646951 -0.01376376
v 0.04229980 -0.02646951 -0.01480540
v 0.04666049 -0.01964617 -0.01411452
v 0.04538215 -0.02101678 -0.01479265
v 0.04409903 -0.02241385 -0.01535598
v 0.04682297 -0.01827798 -0.01456519
v 0.04462231 -0.01827798 -0.01662720
v 0.04450524 -0.01961730 -0.01622118
v 0.04431169 -0.02101758 -0.01580452
v 0.04132014 -0.02646951 -0.01567697
v 0.04558764 -0.01961810 -0.01522631
v 0.04677518 -0.01827798 -0.01461408
v 0.04467249 -0.01827798 -0.01658469
v 0.04571906 -0.01827798 -0.01565359
v 0.04576446 -0.01827798 -0.01561108
f 1 2 5
f 1 5 14
f 1 14 21
f 1 21 33
f 1 33 52
f 1 52 34
f 1 34 22
f 1 22 15
f 1 15 6
f 1 6 3
f 1 3 11
f 1 11 17
f 1 17 28
f 1 28 46
f 1 46 71
f 1 71 87
f 1 87 104
f 1 104 105
f 1 105 120
f 1 120 119
f 1 119 135
f 1 135 152
f 1 152 170
f 1 170 172
f 1 172 190
f 1 190 189
f 1 189 188
f 1 188 204
f 1 204 210
f 1 210 213
f 1 213 212
f 1 212 211
f 1 211 205
f 1 205 192
f 1 192 191
f 1 191 173
f 1 173 155
f 1 155 154
f 1 154 138
f 1 138 137
f 1 137 123
f 1 123 122
f 1 122 106
f 1 106 90
f 1 90 89
f 1 89 72
f 1 72 47
f 1 47 29
f 1 29 18
f 1 18 12
f 1 12 4
f 1 4 2
f 2 4 5
f 3 6 7
f 3 7 8
f 3 8 9
f 3 9 10
f 3 10 11
f 4 12 5
f 5 12 13
f 5 13 14
f 6 15 24
f 6 24 38
f 6 38 57
f 6 57 56
f 6 56 78
f 6 78 80
f 6 80 95
f 6 95 111
f 6 111 128
f 6 128 143
f 6 143 160
f 6 160 161
f 6 161 178
f 6 178 181
f 6 181 180
f 6 180 197
f 6 197 208
f 6 208 200
f 6 200 199
f 6 199 182
f 6 182 164
f 6 164 163
f 6 163 147
f 6 147 146
f 6 146 145
f 6 145 130
f 6 130 114
f 6 114 113
f 6 113 98
f 6 98 97
f 6 97 82
f 6 82 81
f 6 81 59
f 6 59 39
f 6 39 25
f 6 25 16
f 6 16 10
f 6 10 9
f 6 9 8
f 6 8 7
f 10 16 26
f 10 26 42
f 10 42 65
f 10 65 64
f 10 64 68
f 10 68 67
f 10 67 66
f 10 66 43
f 10 43 27
f 10 27 17
f 10 17 11
f 12 18 13
f 13 18 19
f 13 19 20
f 13 20 14
f 14 20 21
f 15 22 23
f 15 23 24
f 16 25 26
f 17 27 28
f 18 29 19
f 19 30 20
f 19 29 31
f 19 31 30
f 20 30 32
f 20 32 21
f 21 32 33
f 22 34 35
f 22 35 23
f 23 35 36
f 23 36 37
f 23 37 24
f 24 37 38
f 25 39 40
f 25 40 26
f 26 40 41
f 26 41 42
f 27 43 44
f 27 44 45
f 27 45 28
f 28 45 46
f 29 47 31
f 30 48 32
f 30 31 49
f 30 49 48
f 31 47 50
f 31 50 49
f 32 48 51
f 32 51 52
f 32 52 33
f 34 52 51
f 34 51 35
f 35 51 48
f 35 48 53
f 35 53 36
f 36 53 54
f 36 54 55
f 36 55 37
f 37 56 57
f 37 57 38
f 37 55 58
f 37 58 56
f 39 59 40
f 40 59 60
f 40 60 61
f 40 61 41
f 41 62 63
f 41 63 64
f 41 64 65
f 41 65 42
f 41 61 62
f 43 66 44
f 44 66 67
f 44 67 68
f 44 68 63
f 44 63 69
f 44 69 45
f 45 69 70
f 45 70 71
f 45 71 46
f 47 72 50
f 48 49 53
f 49 50 73
f 49 73 53
f 50 72 74
f 50 74 73
f 53 73 54
f 54 73 75
f 54 75 76
f 54 76 55
f 55 76 77
f 55 77 58
f 56 58 78
f 58 77 79
f 58 79 80
f 58 80 78
f 59 81 60
f 60 81 82
f 60 82 83
f 60 83 61
f 61 83 84
f 61 84 85
f 61 85 62
f 62 69 63
f 62 85 69
f 63 68 64
f 69 85 86
f 69 86 70
f 70 87 71
f 70 86 88
f 70 88 87
f 72 89 74
f 73 74 75
f 74 89 90
f 74 90 91
f 74 91 75
f 75 91 92
f 75 92 76
f 76 92 93
f 76 93 77
f 77 93 94
f 77 94 79
f 79 95 80
f 79 94 96
f 79 96 95
f 82 97 83
f 83 97 98
f 83 98 99
f 83 99 84
f 84 100 85
f 84 99 101
f 84 101 100
f 85 100 86
f 86 102 88
f 86 100 103
f 86 103 102
f 87 88 104
f 88 102 105
f 88 105 104
f 90 106 91
f 91 106 107
f 91 107 92
f 92 107 108
f 92 108 93
f 93 108 109
f 93 109 94
f 94 109 110
f 94 110 96
f 95 96 111
f 96 110 112
f 96 112 111
f 98 113 99
f 99 113 114
f 99 114 115
f 99 115 101
f 100 101 116
f 100 116 103
f 101 115 117
f 101 117 116
f 102 103 118
f 102 118 119
f 102 119 120
f 102 120 105
f 103 116 121
f 103 121 118
f 106 122 107
f 107 122 123
f 107 123 124
f 107 124 108
f 108 124 125
f 108 125 109
f 109 125 126
f 109 126 110
f 110 126 127
f 110 127 112
f 111 112 128
f 112 127 129
f 112 129 128
f 114 130 115
f 115 130 131
f 115 131 117
f 116 117 132
f 116 132 121
f 117 131 133
f 117 133 132
f 118 121 134
f 118 134 135
f 118 135 119
f 121 132 136
f 121 136 134
f 123 137 124
f 124 137 138
f 124 138 139
f 124 139 125
f 125 139 140
f 125 140 126
f 126 140 141
f 126 141 127
f 127 141 142
f 127 142 129
f 128 129 143
f 129 142 144
f 129 144 143
f 130 145 131
f 131 145 146
f 131 146 147
f 131 147 148
f 131 148 133
f 132 133 149
f 132 149 150
f 132 150 136
f 133 148 151
f 133 151 149
f 134 152 135
f 134 136 153
f 134 153 152
f 136 150 153
f 138 154 139
f 139 154 155
f 139 155 156
f 139 156 140
f 140 156 157
f 140 157 141
f 141 157 158
f 141 158 142
f 142 158 159
f 142 159 144
f 143 144 160
f 144 161 160
f 144 159 162
f 144 162 161
f 147 163 148
f 148 163 164
f 148 164 165
f 148 165 151
f 149 151 166
f 149 166 167
f 149 167 168
f 149 168 150
f 150 168 153
f 151 165 169
f 151 169 166
f 152 153 170
f 153 168 171
f 153 171 172
f 153 172 170
f 155 173 156
f 156 173 174
f 156 174 157
f 157 174 175
f 157 175 158
f 158 175 176
f 158 176 159
f 159 176 177
f 159 177 162
f 161 162 178
f 162 177 179
f 162 179 180
f 162 180 181
f 162 181 178
f 164 182 165
f 165 182 183
f 165 183 169
f 166 184 185
f 166 185 167
f 166 169 186
f 166 186 184
f 167 185 171
f 167 171 168
f 169 183 187
f 169 187 186
f 171 188 189
f 171 189 190
f 171 190 172
f 171 185 188
f 173 191 174
f 174 191 192
f 174 192 193
f 174 193 175
f 175 193 194
f 175 194 176
f 176 194 195
f 176 195 177
f 177 195 196
f 177 196 179
f 179 197 180
f 179 196 198
f 179 198 197
f 182 199 183
f 183 199 200
f 183 200 198
f 183 198 187
f 184 201 185
f 184 186 202
f 184 202 201
f 185 201 188
f 186 187 203
f 186 203 202
f 187 198 196
f 187 196 203
f 188 201 204
f 192 205 193
f 193 205 206
f 193 206 194
f 194 206 207
f 194 207 195
f 195 207 203
f 195 203 196
f 197 198 208
f 198 200 208
f 201 202 209
f 201 209 204
f 202 203 207
f 202 207 209
f 204 209 210
f 205 211 206
f 206 211 212
f 206 212 209
f 206 209 207
f 209 212 213
f 209 213 210

