# https://github.com/mikedh/trimesh
v -0.05821689 0.00839369 0.01387346
v -0.05818272 0.00860856 0.01387346
v -0.05053715 0.00839369 0.01387346
v -0.05822115 0.00839369 0.01510017
v -0.05799377 0.00978547 0.01387346
v -0.05800018 0.00978331 0.01524625
v -0.04731644 0.01942429 0.01387346
v -0.05048164 0.00839369 0.01387546
v -0.05822115 0.00839369 0.01516020
v -0.05774077 0.01114378 0.01387346
v -0.05774717 0.01118589 0.01537433
v -0.05799591 0.00978331 0.01679515
v -0.05548617 0.01942429 0.01387346
v -0.04924865 0.01942429 0.02874805
v -0.05244374 0.00839369 0.03019889
v -0.05226760 0.00839369 0.02874805
v -0.05821262 0.00839369 0.01669509
v -0.05773330 0.01118373 0.01387346
v -0.05773970 0.01118481 0.01692122
v -0.05744507 0.01258739 0.01706130
v -0.05745041 0.01258307 0.01550640
v -0.05819981 0.00839369 0.01826399
v -0.05797776 0.00978547 0.01835205
v -0.05571569 0.01876781 0.01387346
v -0.05594093 0.01818475 0.01466792
v -0.05550752 0.01942429 0.01469393
v -0.04943013 0.01942429 0.03005081
v -0.04945041 0.01942429 0.03019289
v -0.05266471 0.00839369 0.03155768
v -0.05743439 0.01258199 0.01387346
v -0.05771729 0.01118265 0.01846811
v -0.05742372 0.01258523 0.01861020
v -0.05712054 0.01398349 0.01720738
v -0.05713015 0.01398241 0.01565449
v -0.05816885 0.00839369 0.01981289
v -0.05795001 0.00978439 0.01990895
v -0.05591958 0.01818367 0.01387346
v -0.05634872 0.01678541 0.01387346
v -0.05636367 0.01678541 0.01447381
v -0.05638075 0.01678217 0.01600469
v -0.05595054 0.01818691 0.01621281
v -0.05552247 0.01942429 0.01640092
v -0.05551179 0.01942429 0.01486603
v -0.04962335 0.01942429 0.03116345
v -0.04966285 0.01942429 0.03136557
v -0.05270208 0.00839369 0.03172978
v -0.05711094 0.01398241 0.01412160
v -0.05710560 0.01398349 0.01387346
v -0.05768846 0.01118589 0.02003502
v -0.05738849 0.01258631 0.02017510
v -0.05709386 0.01398349 0.01876428
v -0.05676292 0.01538499 0.01737548
v -0.05677040 0.01538391 0.01582659
v -0.05812294 0.00839369 0.02136779
v -0.05790624 0.00978439 0.02147385
v -0.05648537 0.01629305 0.01387346
v -0.05673730 0.01538391 0.01387346
v -0.05674691 0.01538499 0.01429370
v -0.05636901 0.01678217 0.01755358
v -0.05593559 0.01818151 0.01775570
v -0.05550325 0.01942429 0.01796382
v -0.04970875 0.01942429 0.03155167
v -0.05285366 0.00839369 0.03236614
v -0.05763936 0.01118481 0.02159992
v -0.05734792 0.01258631 0.02173800
v -0.05705649 0.01398133 0.02032318
v -0.05672663 0.01538391 0.01893638
v -0.05805569 0.00839369 0.02294470
v -0.05783365 0.00978331 0.02304876
v -0.05758064 0.01118697 0.02317683
v -0.05632524 0.01678325 0.01912249
v -0.05588008 0.01818259 0.01932861
v -0.05544880 0.01942429 0.01953073
v -0.04988703 0.01942429 0.03221406
v -0.05288676 0.00839369 0.03247621
v -0.05729028 0.01258523 0.02330891
v -0.05701166 0.01398241 0.02189009
v -0.05667859 0.01538607 0.02050729
v -0.05805462 0.00839369 0.02296271
v -0.05795534 0.00839369 0.02453362
v -0.05772583 0.00978439 0.02464368
v -0.05745788 0.01118157 0.02476175
v -0.05717392 0.01257659 0.02488382
v -0.05661988 0.01538391 0.02207620
v -0.05626012 0.01678649 0.02070140
v -0.05574344 0.01818583 0.02248643
v -0.05539543 0.01942429 0.02092553
v -0.04995748 0.01942429 0.03237815
v -0.05304795 0.00839369 0.03294848
v -0.05694867 0.01398133 0.02346300
v -0.05782084 0.00839369 0.02613454
v -0.05729562 0.00978331 0.02947647
v -0.05703407 0.01071081 0.03046505
v -0.05681630 0.01397917 0.02505992
v -0.05683765 0.01164910 0.03057911
v -0.05670955 0.01261762 0.02981667
v -0.05637648 0.01402992 0.02982067
v -0.05654835 0.01538499 0.02365711
v -0.05618967 0.01678433 0.02227631
v -0.05531750 0.01942429 0.02268255
v -0.05610853 0.01678109 0.02385322
v -0.05566017 0.01818367 0.02406735
v -0.05020408 0.01942429 0.03288044
v -0.05034286 0.01942429 0.03305054
v -0.05063216 0.01942429 0.03338473
v -0.05077200 0.01942429 0.03354482
v -0.05337888 0.00839369 0.03329268
v -0.05641491 0.01538499 0.02526004
v -0.05753047 0.00839369 0.02936841
v -0.05736287 0.00839369 0.03081925
v -0.05735540 0.00839369 0.03087929
v -0.05707357 0.00988157 0.03120748
v -0.05682804 0.01113730 0.03129753
v -0.05600712 0.01529321 0.03026293
v -0.05662628 0.01258199 0.03066916
v -0.05640957 0.01347925 0.03078723
v -0.05614803 0.01453848 0.03079524
v -0.05598257 0.01678109 0.02545615
v -0.05530789 0.01942429 0.02286265
v -0.05522890 0.01942429 0.02426346
v -0.05558438 0.01677569 0.03024692
v -0.05525131 0.01818367 0.02889013
v -0.05112428 0.01942429 0.03386301
v -0.05375252 0.00839369 0.03358084
v -0.05733298 0.00839369 0.03100336
v -0.05709065 0.00877268 0.03202395
v -0.05692946 0.00995499 0.03192389
v -0.05664977 0.01124204 0.03204796
v -0.05646295 0.01254096 0.03163772
v -0.05583845 0.01559770 0.03101736
v -0.05616511 0.01387660 0.03161171
v -0.05509546 0.01821066 0.03054509
v -0.05479975 0.01942429 0.02910026
v -0.05535593 0.01713632 0.03121548
v -0.05130149 0.01942429 0.03391103
v -0.05421048 0.01110491 0.03427524
v -0.05462255 0.00839369 0.03420520
v -0.05457451 0.00839369 0.03417319
v -0.05425745 0.00839369 0.03395706
v -0.05715897 0.00839369 0.03195591
v -0.05711094 0.00839369 0.03214802
v -0.05670528 0.01005325 0.03265231
v -0.05639997 0.01130898 0.03290645
v -0.05636367 0.01203673 0.03249422
v -0.05573277 0.01548217 0.03170977
v -0.05618112 0.01273316 0.03256226
v -0.05573704 0.01475550 0.03240817
v -0.05478267 0.01942429 0.02929237
v -0.05484245 0.01851299 0.03146963
v -0.05457130 0.01942429 0.03104138
v -0.05460760 0.01942429 0.03080324
v -0.05519474 0.01684156 0.03224007
v -0.05152674 0.01942429 0.03396106
v -0.05318139 0.01525974 0.03418719
v -0.05238396 0.01942429 0.03412316
v -0.05309065 0.01671739 0.03418319
v -0.05476986 0.00967750 0.03431327
v -0.05497376 0.00839369 0.03425523
v -0.05692839 0.00839369 0.03272835
v -0.05691878 0.00844768 0.03273235
v -0.05629748 0.01086953 0.03333070
v -0.05592706 0.01274719 0.03321263
v -0.05573383 0.01377186 0.03305254
v -0.05474317 0.01768699 0.03267832
v -0.05473357 0.01831216 0.03215602
v -0.05437595 0.01942429 0.03199393
v -0.05438983 0.01942429 0.03193990
v -0.05419447 0.01923533 0.03277638
v -0.05187155 0.01942429 0.03402910
v -0.05239890 0.01942429 0.03412116
v -0.05310453 0.01817395 0.03410915
v -0.05482324 0.01228075 0.03419920
v -0.05481683 0.01087601 0.03426324
v -0.05533138 0.00903830 0.03419520
v -0.05528120 0.00839369 0.03421121
v -0.05658465 0.00839369 0.03332870
v -0.05649924 0.00937625 0.03332269
v -0.05609252 0.00983730 0.03381698
v -0.05592919 0.01129603 0.03371092
v -0.05439944 0.01795692 0.03315060
v -0.05575091 0.01244595 0.03356884
v -0.05430229 0.01942429 0.03222406
v -0.05371836 0.01942429 0.03340274
v -0.05385180 0.01942429 0.03319862
v -0.05408665 0.01942429 0.03283441
v -0.05412188 0.01942429 0.03277238
v -0.05264977 0.01942429 0.03408513
v -0.05302767 0.01942429 0.03397907
v -0.05471115 0.01389603 0.03404311
v -0.05561854 0.00839369 0.03413116
v -0.05541998 0.01194927 0.03391103
v -0.05548083 0.01080367 0.03402710
v -0.05583205 0.00839369 0.03404911
v -0.05540504 0.00839369 0.03418319
v -0.05646081 0.00839369 0.03349679
v -0.05616084 0.00839369 0.03386701
v -0.05614696 0.00839369 0.03388102
v -0.05459052 0.01525542 0.03387701
v -0.05451473 0.01678433 0.03345877
v -0.05366818 0.01942429 0.03345477
v -0.05310133 0.01942429 0.03394105
v -0.05314723 0.01942429 0.03391704
v -0.05371729 0.01827221 0.03378096
v -0.05346002 0.01942429 0.03365088
f 1 2 5
f 1 5 10
f 1 10 18
f 1 18 30
f 1 30 48
f 1 48 57
f 1 57 56
f 1 56 38
f 1 38 37
f 1 37 24
f 1 24 13
f 1 13 7
f 1 7 3
f 1 3 8
f 1 8 16
f 1 16 15
f 1 15 29
f 1 29 46
f 1 46 63
f 1 63 75
f 1 75 89
f 1 89 107
f 1 107 124
f 1 124 139
f 1 139 138
f 1 138 137
f 1 137 158
f 1 158 175
f 1 175 194
f 1 194 190
f 1 190 193
f 1 193 197
f 1 197 196
f 1 196 195
f 1 195 176
f 1 176 159
f 1 159 141
f 1 141 140
f 1 140 125
f 1 125 111
f 1 111 110
f 1 110 109
f 1 109 91
f 1 91 80
f 1 80 79
f 1 79 68
f 1 68 54
f 1 54 35
f 1 35 22
f 1 22 17
f 1 17 9
f 1 9 4
f 1 4 2
f 2 4 6
f 2 6 5
f 3 7 8
f 4 9 6
f 5 6 11
f 5 11 10
f 6 9 12
f 6 12 11
f 7 13 26
f 7 26 43
f 7 43 42
f 7 42 61
f 7 61 73
f 7 73 87
f 7 87 100
f 7 100 119
f 7 119 120
f 7 120 133
f 7 133 148
f 7 148 151
f 7 151 150
f 7 150 167
f 7 167 166
f 7 166 182
f 7 182 186
f 7 186 185
f 7 185 184
f 7 184 183
f 7 183 200
f 7 200 204
f 7 204 202
f 7 202 201
f 7 201 188
f 7 188 187
f 7 187 170
f 7 170 155
f 7 155 169
f 7 169 153
f 7 153 135
f 7 135 123
f 7 123 106
f 7 106 105
f 7 105 104
f 7 104 103
f 7 103 88
f 7 88 74
f 7 74 62
f 7 62 45
f 7 45 44
f 7 44 28
f 7 28 27
f 7 27 14
f 7 14 15
f 7 15 16
f 7 16 8
f 9 17 12
f 10 11 18
f 11 12 19
f 11 19 20
f 11 20 21
f 11 21 18
f 12 22 23
f 12 23 19
f 12 17 22
f 13 24 25
f 13 25 26
f 14 27 15
f 15 27 28
f 15 28 29
f 18 21 30
f 19 23 31
f 19 31 32
f 19 32 20
f 20 33 34
f 20 34 21
f 20 32 33
f 21 34 30
f 22 35 36
f 22 36 23
f 23 36 31
f 24 37 25
f 25 37 38
f 25 38 39
f 25 39 40
f 25 40 41
f 25 41 42
f 25 42 43
f 25 43 26
f 28 44 29
f 29 44 45
f 29 45 46
f 30 47 48
f 30 34 47
f 31 36 49
f 31 49 32
f 32 49 50
f 32 50 51
f 32 51 33
f 33 52 34
f 33 51 52
f 34 52 53
f 34 53 47
f 35 54 55
f 35 55 36
f 36 55 49
f 38 56 39
f 39 56 57
f 39 57 58
f 39 58 53
f 39 53 40
f 40 53 52
f 40 52 59
f 40 59 41
f 41 59 60
f 41 60 42
f 42 60 61
f 45 62 63
f 45 63 46
f 47 58 48
f 47 53 58
f 48 58 57
f 49 55 64
f 49 64 65
f 49 65 50
f 50 66 51
f 50 65 66
f 51 66 67
f 51 67 52
f 52 67 59
f 54 68 55
f 55 68 69
f 55 69 70
f 55 70 64
f 59 67 71
f 59 71 60
f 60 71 72
f 60 72 73
f 60 73 61
f 62 74 63
f 63 74 75
f 64 70 76
f 64 76 65
f 65 77 66
f 65 76 77
f 66 77 67
f 67 77 78
f 67 78 71
f 68 79 69
f 69 79 80
f 69 80 81
f 69 81 70
f 70 81 82
f 70 82 83
f 70 83 76
f 71 78 84
f 71 84 85
f 71 85 72
f 72 85 86
f 72 86 87
f 72 87 73
f 74 88 89
f 74 89 75
f 76 83 90
f 76 90 77
f 77 90 84
f 77 84 78
f 80 91 81
f 81 91 92
f 81 92 82
f 82 92 93
f 82 93 83
f 83 94 90
f 83 93 95
f 83 95 96
f 83 96 97
f 83 97 94
f 84 90 98
f 84 98 85
f 85 98 99
f 85 99 86
f 86 100 87
f 86 99 101
f 86 101 102
f 86 102 100
f 88 103 89
f 89 103 104
f 89 104 105
f 89 105 106
f 89 106 107
f 90 94 108
f 90 108 98
f 91 109 92
f 92 109 93
f 93 109 110
f 93 110 111
f 93 111 112
f 93 112 113
f 93 113 95
f 94 97 114
f 94 114 108
f 95 113 115
f 95 115 96
f 96 115 116
f 96 116 97
f 97 116 117
f 97 117 114
f 98 108 118
f 98 118 101
f 98 101 99
f 100 102 119
f 101 118 102
f 102 120 119
f 102 118 121
f 102 121 122
f 102 122 120
f 106 123 107
f 107 123 124
f 108 114 121
f 108 121 118
f 111 125 112
f 112 125 126
f 112 126 127
f 112 127 113
f 113 127 128
f 113 128 129
f 113 129 115
f 114 117 130
f 114 130 121
f 115 129 116
f 116 129 131
f 116 131 117
f 117 131 130
f 120 122 132
f 120 132 133
f 121 130 134
f 121 134 132
f 121 132 122
f 123 135 136
f 123 136 137
f 123 137 138
f 123 138 139
f 123 139 124
f 125 140 126
f 126 141 142
f 126 142 127
f 126 140 141
f 127 142 143
f 127 143 128
f 128 144 129
f 128 143 144
f 129 144 131
f 130 131 145
f 130 145 134
f 131 144 146
f 131 146 147
f 131 147 145
f 132 148 133
f 132 134 149
f 132 149 150
f 132 150 151
f 132 151 148
f 134 145 152
f 134 152 149
f 135 153 136
f 136 154 155
f 136 155 156
f 136 156 157
f 136 157 137
f 136 153 154
f 137 157 158
f 141 159 142
f 142 159 160
f 142 160 161
f 142 161 143
f 143 161 162
f 143 162 146
f 143 146 144
f 145 147 152
f 146 162 163
f 146 163 147
f 147 163 164
f 147 164 152
f 149 152 165
f 149 165 166
f 149 166 167
f 149 167 150
f 152 164 168
f 152 168 165
f 153 169 154
f 154 169 155
f 155 170 171
f 155 171 156
f 156 171 172
f 156 172 173
f 156 173 157
f 157 173 174
f 157 174 175
f 157 175 158
f 159 176 177
f 159 177 161
f 159 161 160
f 161 178 179
f 161 179 162
f 161 177 178
f 162 180 163
f 162 179 181
f 162 181 180
f 163 180 164
f 164 180 168
f 165 182 166
f 165 168 182
f 168 180 183
f 168 183 184
f 168 184 185
f 168 185 186
f 168 186 182
f 170 187 171
f 171 187 188
f 171 188 189
f 171 189 172
f 172 190 174
f 172 174 173
f 172 189 191
f 172 191 178
f 172 178 192
f 172 192 193
f 172 193 190
f 174 190 194
f 174 194 175
f 176 195 177
f 177 195 178
f 178 195 196
f 178 196 197
f 178 197 193
f 178 193 192
f 178 191 179
f 179 191 189
f 179 189 198
f 179 198 181
f 180 181 199
f 180 199 183
f 181 198 199
f 183 199 200
f 188 201 198
f 188 198 189
f 198 201 202
f 198 202 203
f 198 203 199
f 199 203 200
f 200 203 204
f 202 204 203

