# https://github.com/mikedh/trimesh
v 0.01892436 0.05464956 0.00322644
v 0.01998589 0.05428936 0.00322644
v 0.01892436 0.05459146 0.00290544
v 0.01892436 0.04369429 0.00322644
v 0.02038632 0.05399887 0.00237248
v 0.02093724 0.05393690 0.00322644
v 0.02166284 0.05362511 0.00296190
v 0.01911517 0.05431647 0.00178417
v 0.01892436 0.05445784 0.00219593
v 0.01892436 0.03949964 -0.00242752
v 0.03241791 0.03486538 0.00322644
v 0.01971177 0.05383232 0.00051125
v 0.02098292 0.05350891 0.00110233
v 0.02153653 0.05371225 0.00322644
v 0.02222720 0.05343919 0.00322644
v 0.02352254 0.05271879 0.00228504
v 0.02224601 0.05313128 0.00169673
v 0.01892436 0.05425644 0.00125287
v 0.01892436 0.05435714 0.00169396
v 0.01892436 0.05328427 -0.00242752
v 0.02721775 0.03486538 -0.00242752
v 0.04637639 0.03486538 0.00322644
v 0.02029763 0.05330557 -0.00075336
v 0.01892436 0.05389817 -0.00025416
v 0.01892436 0.05400081 0.00014322
v 0.02157416 0.05297635 -0.00016616
v 0.02308180 0.05308093 0.00322644
v 0.02386116 0.05274202 0.00322644
v 0.02478831 0.05227337 0.00287777
v 0.02410840 0.05218041 0.00101876
v 0.02283993 0.05259291 0.00042713
v 0.01892436 0.05330557 -0.00236166
v 0.01910173 0.05322811 -0.00242752
v 0.04480424 0.03486538 -0.00242752
v 0.04634951 0.03486538 0.00310192
v 0.04621514 0.03507453 0.00322644
v 0.02002889 0.05291438 -0.00242752
v 0.01953978 0.05308480 -0.00242752
v 0.01903454 0.05357088 -0.00134831
v 0.01892436 0.05367158 -0.00110978
v 0.02088349 0.05273428 -0.00201632
v 0.02216270 0.05238956 -0.00143409
v 0.02462438 0.05240699 0.00322644
v 0.02491462 0.05227337 0.00322644
v 0.02553273 0.05198288 0.00322644
v 0.02665070 0.05123148 0.00219981
v 0.02537417 0.05173112 0.00161150
v 0.02469963 0.05158201 -0.00024917
v 0.02344192 0.05198675 -0.00084745
v 0.01892436 0.05333656 -0.00225817
v 0.01892436 0.05359218 -0.00139978
v 0.04444144 0.03532822 -0.00242752
v 0.04482574 0.03486538 -0.00236996
v 0.04608615 0.03486538 0.00200389
v 0.04569647 0.03531661 0.00185114
v 0.04610764 0.03520622 0.00322644
v 0.02073837 0.05265488 -0.00242752
v 0.02107698 0.05252706 -0.00242752
v 0.02179721 0.05223076 -0.00242752
v 0.02403046 0.05134187 -0.00211538
v 0.02262763 0.05188024 -0.00242752
v 0.02616965 0.05167303 0.00322644
v 0.02672595 0.05138448 0.00322644
v 0.02791379 0.05068730 0.00279420
v 0.02723925 0.05063114 0.00093242
v 0.02597078 0.05112885 0.00034135
v 0.02656202 0.05048977 -0.00092769
v 0.02528818 0.05093519 -0.00151711
v 0.04510255 0.03490798 -0.00150604
v 0.04395233 0.03590920 -0.00242752
v 0.04426676 0.03586079 -0.00174291
v 0.04512673 0.03486538 -0.00153039
v 0.04586846 0.03486538 0.00111063
v 0.04562391 0.03486538 0.00017808
v 0.04436619 0.03617838 -0.00055191
v 0.04415926 0.03693559 0.00109458
v 0.04483112 0.03668577 0.00295636
v 0.04492787 0.03664123 0.00322644
v 0.02335323 0.05155296 -0.00242752
v 0.02417558 0.05117726 -0.00242752
v 0.02771223 0.05087128 0.00322644
v 0.02850233 0.05008309 0.00152627
v 0.02884632 0.05025157 0.00322644
v 0.02977886 0.04948662 0.00211458
v 0.02783048 0.04999013 -0.00033551
v 0.02715056 0.04979647 -0.00219452
v 0.02601109 0.05030192 -0.00242752
v 0.02571279 0.05044910 -0.00242752
v 0.04514017 0.03486538 -0.00148999
v 0.04518855 0.03486538 -0.00133171
v 0.04312192 0.03687943 -0.00242752
v 0.04345784 0.03718154 -0.00075834
v 0.04289617 0.03822342 0.00050074
v 0.04356534 0.03800265 0.00236418
v 0.04470481 0.03690848 0.00322644
v 0.02910432 0.04942852 0.00025335
v 0.02926019 0.05001724 0.00322644
v 0.03017929 0.04946725 0.00322644
v 0.03103658 0.04883980 0.00271063
v 0.03036472 0.04882043 0.00084775
v 0.02841903 0.04928328 -0.00160345
v 0.02706725 0.04976161 -0.00242752
v 0.02664801 0.04997851 -0.00242752
v 0.02726075 0.04965510 -0.00242752
v 0.04286393 0.03717186 -0.00242752
v 0.04220013 0.03834736 -0.00135329
v 0.04161696 0.03941249 -0.00008702
v 0.04228344 0.03926337 0.00177587
v 0.04281824 0.03906390 0.00322644
v 0.04315954 0.03868433 0.00322644
v 0.04387708 0.03787677 0.00322644
v 0.02969018 0.04872167 -0.00101237
v 0.03079739 0.04908962 0.00322644
v 0.03122469 0.04881269 0.00322644
v 0.03216260 0.04820266 0.00322644
v 0.03163587 0.04814263 0.00143882
v 0.03096401 0.04809034 -0.00042296
v 0.02812341 0.04916708 -0.00242752
v 0.03027872 0.04795284 -0.00227975
v 0.02996429 0.04809034 -0.00242752
v 0.02880333 0.04877977 -0.00242752
v 0.04270268 0.03735196 -0.00242752
v 0.04186151 0.03825247 -0.00242752
v 0.04120041 0.03895158 -0.00242752
v 0.04093167 0.03943573 -0.00194492
v 0.04034043 0.04048536 -0.00067588
v 0.04102035 0.04041564 0.00118258
v 0.04170027 0.04021811 0.00304214
v 0.04209532 0.03984241 0.00322644
v 0.03229160 0.04811551 0.00322644
v 0.03235072 0.04807485 0.00322644
v 0.03290434 0.04740091 0.00203045
v 0.03222979 0.04738348 0.00016923
v 0.03154987 0.04730602 -0.00169034
v 0.03128382 0.04724018 -0.00242752
v 0.03034859 0.04785795 -0.00242752
v 0.03022497 0.04793348 -0.00242752
v 0.04075698 0.03941055 -0.00242752
v 0.03991582 0.04025297 -0.00242752
v 0.03971695 0.04045050 -0.00242752
v 0.03908003 0.04147302 -0.00127083
v 0.03975189 0.04146721 0.00059095
v 0.03916603 0.04240064 0.00185833
v 0.04042643 0.04135489 0.00245162
v 0.04161427 0.04034786 0.00322644
v 0.04177014 0.04018906 0.00322644
v 0.03388793 0.04696712 0.00322644
v 0.03417548 0.04662628 0.00262098
v 0.03475866 0.04587488 0.00135470
v 0.03349825 0.04663403 0.00075975
v 0.03408949 0.04583421 -0.00050819
v 0.03281565 0.04658755 -0.00109760
v 0.03189655 0.04681994 -0.00242752
v 0.03962289 0.04053958 -0.00242752
v 0.03865811 0.04144010 -0.00242752
v 0.03780888 0.04241614 -0.00186135
v 0.03849686 0.04244131 -0.00000511
v 0.03855867 0.04329922 0.00313070
v 0.03966052 0.04228251 0.00322644
v 0.03790294 0.04338250 0.00126449
v 0.04006632 0.04189519 0.00322644
v 0.04070861 0.04125418 0.00322644
v 0.03544395 0.04583034 0.00322644
v 0.03545201 0.04582259 0.00321039
v 0.03602712 0.04509444 0.00194688
v 0.03535526 0.04507314 0.00008455
v 0.03468341 0.04498018 -0.00177778
v 0.03340688 0.04574126 -0.00236664
v 0.03233729 0.04650234 -0.00242752
v 0.03807225 0.04197266 -0.00242752
v 0.03760195 0.04238709 -0.00242752
v 0.03660491 0.04324112 -0.00242752
v 0.03720690 0.04337088 -0.00058899
v 0.03851567 0.04335732 0.00322644
v 0.03859361 0.04328566 0.00322644
v 0.03876560 0.04312687 0.00322644
v 0.03727677 0.04426171 0.00254349
v 0.03662642 0.04427720 0.00067563
v 0.03650548 0.04501891 0.00322644
v 0.03697578 0.04465483 0.00322644
v 0.03595187 0.04419393 -0.00118615
v 0.03444692 0.04493564 -0.00242752
v 0.03343644 0.04569865 -0.00242752
v 0.03550038 0.04412421 -0.00242752
v 0.03498440 0.04452508 -0.00242752
v 0.03327789 0.04581485 -0.00242752
v 0.03655385 0.04328373 -0.00242752
v 0.03753208 0.04419199 0.00322644
v 0.03653235 0.04330116 -0.00242752
f 1 2 3
f 1 3 9
f 1 9 19
f 1 19 18
f 1 18 25
f 1 25 24
f 1 24 40
f 1 40 51
f 1 51 50
f 1 50 32
f 1 32 20
f 1 20 10
f 1 10 4
f 1 4 11
f 1 11 22
f 1 22 36
f 1 36 56
f 1 56 78
f 1 78 95
f 1 95 111
f 1 111 110
f 1 110 109
f 1 109 129
f 1 129 146
f 1 146 145
f 1 145 162
f 1 162 161
f 1 161 159
f 1 159 176
f 1 176 175
f 1 175 174
f 1 174 188
f 1 188 180
f 1 180 179
f 1 179 163
f 1 163 147
f 1 147 131
f 1 131 130
f 1 130 115
f 1 115 114
f 1 114 113
f 1 113 98
f 1 98 97
f 1 97 83
f 1 83 81
f 1 81 63
f 1 63 62
f 1 62 45
f 1 45 44
f 1 44 43
f 1 43 28
f 1 28 27
f 1 27 15
f 1 15 14
f 1 14 6
f 1 6 2
f 2 5 3
f 2 6 7
f 2 7 5
f 3 8 9
f 3 5 8
f 4 10 11
f 5 12 8
f 5 7 13
f 5 13 12
f 6 14 7
f 7 15 16
f 7 16 17
f 7 17 13
f 7 14 15
f 8 12 18
f 8 18 19
f 8 19 9
f 10 20 33
f 10 33 38
f 10 38 37
f 10 37 57
f 10 57 58
f 10 58 59
f 10 59 61
f 10 61 79
f 10 79 80
f 10 80 88
f 10 88 87
f 10 87 103
f 10 103 102
f 10 102 104
f 10 104 118
f 10 118 121
f 10 121 120
f 10 120 137
f 10 137 136
f 10 136 135
f 10 135 153
f 10 153 169
f 10 169 186
f 10 186 183
f 10 183 182
f 10 182 185
f 10 185 184
f 10 184 189
f 10 189 187
f 10 187 172
f 10 172 171
f 10 171 170
f 10 170 155
f 10 155 154
f 10 154 140
f 10 140 139
f 10 139 138
f 10 138 124
f 10 124 123
f 10 123 122
f 10 122 105
f 10 105 91
f 10 91 70
f 10 70 52
f 10 52 34
f 10 34 21
f 10 21 11
f 11 21 34
f 11 34 53
f 11 53 72
f 11 72 89
f 11 89 90
f 11 90 74
f 11 74 73
f 11 73 54
f 11 54 35
f 11 35 22
f 12 13 23
f 12 23 24
f 12 24 25
f 12 25 18
f 13 17 26
f 13 26 23
f 15 27 16
f 16 27 28
f 16 28 29
f 16 29 30
f 16 30 31
f 16 31 17
f 17 31 26
f 20 32 33
f 22 35 36
f 23 37 38
f 23 38 39
f 23 39 40
f 23 40 24
f 23 26 41
f 23 41 37
f 26 31 42
f 26 42 41
f 28 43 29
f 29 43 44
f 29 44 45
f 29 45 46
f 29 46 47
f 29 47 30
f 30 47 48
f 30 48 31
f 31 48 49
f 31 49 42
f 32 50 33
f 33 50 51
f 33 51 38
f 34 52 53
f 35 54 55
f 35 55 36
f 36 55 56
f 37 41 57
f 38 51 39
f 39 51 40
f 41 42 58
f 41 58 57
f 42 59 58
f 42 49 60
f 42 60 61
f 42 61 59
f 45 62 46
f 46 62 63
f 46 63 64
f 46 64 65
f 46 65 66
f 46 66 47
f 47 66 48
f 48 66 67
f 48 67 68
f 48 68 60
f 48 60 49
f 52 69 53
f 52 70 71
f 52 71 69
f 53 69 72
f 54 73 55
f 55 73 74
f 55 74 75
f 55 75 76
f 55 76 77
f 55 77 56
f 56 77 78
f 60 79 61
f 60 68 80
f 60 80 79
f 63 81 64
f 64 82 65
f 64 81 83
f 64 83 84
f 64 84 82
f 65 82 85
f 65 85 67
f 65 67 66
f 67 86 87
f 67 87 88
f 67 88 68
f 67 85 86
f 68 88 80
f 69 89 72
f 69 71 75
f 69 75 90
f 69 90 89
f 70 91 71
f 71 91 92
f 71 92 75
f 74 90 75
f 75 92 76
f 76 92 93
f 76 93 94
f 76 94 77
f 77 95 78
f 77 94 95
f 82 84 96
f 82 96 85
f 83 97 84
f 84 97 98
f 84 98 99
f 84 99 100
f 84 100 96
f 85 96 101
f 85 101 86
f 86 102 103
f 86 103 87
f 86 101 104
f 86 104 102
f 91 105 92
f 92 105 106
f 92 106 93
f 93 106 107
f 93 107 108
f 93 108 94
f 94 108 109
f 94 109 110
f 94 110 111
f 94 111 95
f 96 100 112
f 96 112 101
f 98 113 99
f 99 114 115
f 99 115 116
f 99 116 100
f 99 113 114
f 100 116 117
f 100 117 112
f 101 118 104
f 101 112 119
f 101 119 120
f 101 120 121
f 101 121 118
f 105 122 106
f 106 122 123
f 106 123 124
f 106 124 125
f 106 125 107
f 107 125 126
f 107 126 127
f 107 127 108
f 108 127 128
f 108 128 129
f 108 129 109
f 112 117 119
f 115 130 116
f 116 130 131
f 116 131 132
f 116 132 133
f 116 133 117
f 117 133 134
f 117 134 119
f 119 134 135
f 119 135 136
f 119 136 137
f 119 137 120
f 124 138 125
f 125 138 139
f 125 139 140
f 125 140 126
f 126 140 141
f 126 141 142
f 126 142 127
f 127 142 143
f 127 143 144
f 127 144 128
f 128 145 146
f 128 146 129
f 128 144 145
f 131 147 148
f 131 148 132
f 132 148 149
f 132 149 150
f 132 150 133
f 133 150 151
f 133 151 152
f 133 152 134
f 134 153 135
f 134 152 153
f 140 154 141
f 141 154 155
f 141 155 156
f 141 156 157
f 141 157 142
f 142 157 143
f 143 158 159
f 143 159 144
f 143 157 160
f 143 160 158
f 144 161 162
f 144 162 145
f 144 159 161
f 147 163 164
f 147 164 148
f 148 164 165
f 148 165 149
f 149 166 150
f 149 165 166
f 150 166 151
f 151 166 167
f 151 167 168
f 151 168 152
f 152 168 169
f 152 169 153
f 155 170 156
f 156 170 171
f 156 171 172
f 156 172 173
f 156 173 157
f 157 173 160
f 158 174 175
f 158 175 176
f 158 176 159
f 158 160 177
f 158 177 174
f 160 173 178
f 160 178 177
f 163 179 164
f 164 179 165
f 165 179 180
f 165 180 177
f 165 177 178
f 165 178 166
f 166 178 181
f 166 181 167
f 167 182 183
f 167 183 168
f 167 181 184
f 167 184 185
f 167 185 182
f 168 183 186
f 168 186 169
f 172 187 173
f 173 187 178
f 174 177 188
f 177 180 188
f 178 187 181
f 181 187 189
f 181 189 184

