# https://github.com/mikedh/trimesh
v 0.02721707 0.03486538 -0.00242630
v 0.03434551 0.02795806 -0.00242630
v 0.04157459 0.02795806 0.01003780
v 0.03601081 0.03486538 0.01003780
v 0.04480455 0.03486538 -0.00242630
v 0.04940988 0.02795806 -0.00242630
v 0.05169338 0.02795806 0.01003780
v 0.04730370 0.03486538 0.01003780
v 0.04482612 0.03486538 -0.00237017
v 0.04487644 0.03477409 -0.00242630
v 0.04939551 0.02798443 -0.00242630
v 0.04989390 0.02795806 -0.00090962
v 0.05163348 0.02795806 0.00922395
v 0.05168140 0.02798443 0.01003780
v 0.04751456 0.03457867 0.01003780
v 0.04719348 0.03486538 0.00868829
v 0.04503219 0.03486538 -0.00179913
v 0.04573185 0.03364485 -0.00242630
v 0.04925653 0.02822718 -0.00242630
v 0.04896421 0.02938077 -0.00128788
v 0.04990828 0.02795806 -0.00086448
v 0.05163109 0.02795806 0.00919710
v 0.05162150 0.02798037 0.00921785
v 0.05116624 0.02892502 0.01003780
v 0.04823818 0.03358805 0.01003780
v 0.04815192 0.03360834 0.00912145
v 0.04718150 0.03486538 0.00854797
v 0.04512563 0.03486538 -0.00153679
v 0.04598105 0.03331149 -0.00242630
v 0.04864313 0.02928340 -0.00242630
v 0.04793388 0.03078725 -0.00177595
v 0.04850895 0.03077508 0.00005066
v 0.04946020 0.02938077 0.00048748
v 0.05035875 0.02798240 0.00090600
v 0.05036594 0.02795806 0.00088160
v 0.05147055 0.02795806 0.00759257
v 0.05080443 0.02938212 0.00883471
v 0.05090985 0.02938686 0.01003780
v 0.04885399 0.03269750 0.01003780
v 0.04917267 0.03218901 0.00961196
v 0.04801774 0.03357858 0.00753766
v 0.04703773 0.03486538 0.00707277
v 0.04518793 0.03486538 -0.00133180
v 0.04626139 0.03357858 -0.00100236
v 0.04655372 0.03251020 -0.00242630
v 0.04809202 0.03017665 -0.00242630
v 0.04770625 0.03078725 -0.00242630
v 0.04685802 0.03206999 -0.00242630
v 0.04681489 0.03219644 -0.00230917
v 0.04742590 0.03218765 -0.00046792
v 0.04771344 0.03249599 0.00134404
v 0.04891868 0.03078117 0.00177965
v 0.04982202 0.02939700 0.00218231
v 0.05074452 0.02795806 0.00262889
v 0.05037312 0.02795806 0.00091210
v 0.05145137 0.02799051 0.00758403
v 0.05127167 0.02795806 0.00593069
v 0.05060794 0.02939768 0.00718381
v 0.04994901 0.03076967 0.00844791
v 0.05010236 0.03078049 0.01003780
v 0.04920621 0.03218427 0.01003780
v 0.04901213 0.03219036 0.00799157
v 0.05006642 0.03083729 0.01003780
v 0.04783564 0.03357994 0.00590751
v 0.04702336 0.03486538 0.00693001
v 0.04562642 0.03486538 0.00017877
v 0.04603376 0.03444073 0.00041427
v 0.04684844 0.03359752 0.00108293
v 0.04677416 0.03219509 -0.00242630
v 0.04697543 0.03384162 0.00235191
v 0.04741153 0.03368542 0.00386249
v 0.04828371 0.03218292 0.00302545
v 0.04922778 0.03079064 0.00345861
v 0.05012393 0.02940106 0.00386371
v 0.05073973 0.02797023 0.00264109
v 0.05104404 0.02795806 0.00430297
v 0.05125969 0.02798443 0.00595509
v 0.05038271 0.02939700 0.00553413
v 0.04974774 0.03078252 0.00679823
v 0.04884201 0.03217142 0.00638459
v 0.04859521 0.03217480 0.00472271
v 0.04680770 0.03486538 0.00543408
v 0.04587082 0.03486538 0.00111099
v 0.04608647 0.03486538 0.00200538
v 0.04635005 0.03486538 0.00310232
v 0.04640036 0.03486538 0.00334147
v 0.04677895 0.03486538 0.00526813
v 0.04950813 0.03078522 0.00513879
f 1 2 3
f 1 3 4
f 1 4 8
f 1 8 16
f 1 16 27
f 1 27 42
f 1 42 65
f 1 65 82
f 1 82 87
f 1 87 86
f 1 86 85
f 1 85 84
f 1 84 83
f 1 83 66
f 1 66 43
f 1 43 28
f 1 28 17
f 1 17 9
f 1 9 5
f 1 5 10
f 1 10 18
f 1 18 29
f 1 29 45
f 1 45 69
f 1 69 48
f 1 48 47
f 1 47 46
f 1 46 30
f 1 30 19
f 1 19 11
f 1 11 6
f 1 6 2
f 2 6 12
f 2 12 21
f 2 21 35
f 2 35 55
f 2 55 54
f 2 54 76
f 2 76 57
f 2 57 36
f 2 36 22
f 2 22 13
f 2 13 7
f 2 7 3
f 3 7 14
f 3 14 24
f 3 24 38
f 3 38 60
f 3 60 63
f 3 63 61
f 3 61 39
f 3 39 25
f 3 25 15
f 3 15 8
f 3 8 4
f 5 9 10
f 6 11 12
f 7 13 14
f 8 15 16
f 9 17 10
f 10 17 18
f 11 19 20
f 11 20 12
f 12 20 21
f 13 22 23
f 13 23 14
f 14 23 24
f 15 25 26
f 15 26 16
f 16 26 27
f 17 28 18
f 18 28 29
f 19 30 20
f 20 30 31
f 20 31 32
f 20 32 33
f 20 33 21
f 21 34 35
f 21 33 34
f 22 36 23
f 23 36 37
f 23 37 38
f 23 38 24
f 25 39 40
f 25 40 26
f 26 41 42
f 26 42 27
f 26 40 41
f 28 43 44
f 28 44 29
f 29 44 45
f 30 46 31
f 31 46 47
f 31 47 48
f 31 48 49
f 31 49 50
f 31 50 32
f 32 50 51
f 32 51 52
f 32 52 33
f 33 52 53
f 33 53 34
f 34 53 54
f 34 54 55
f 34 55 35
f 36 56 37
f 36 57 56
f 37 56 58
f 37 58 59
f 37 59 60
f 37 60 38
f 39 61 40
f 40 62 41
f 40 61 63
f 40 63 60
f 40 60 62
f 41 62 64
f 41 64 65
f 41 65 42
f 43 66 67
f 43 67 44
f 44 67 68
f 44 68 50
f 44 50 45
f 45 50 49
f 45 49 69
f 48 69 49
f 50 68 51
f 51 68 70
f 51 70 71
f 51 71 72
f 51 72 52
f 52 73 53
f 52 72 73
f 53 74 75
f 53 75 54
f 53 73 74
f 54 75 76
f 56 57 77
f 56 77 58
f 57 76 78
f 57 78 58
f 57 58 77
f 58 78 79
f 58 79 59
f 59 79 80
f 59 80 62
f 59 62 60
f 62 80 64
f 64 80 81
f 64 81 71
f 64 71 82
f 64 82 65
f 66 83 67
f 67 70 68
f 67 83 70
f 70 83 84
f 70 84 85
f 70 85 86
f 70 86 71
f 71 81 72
f 71 86 87
f 71 87 82
f 72 81 73
f 73 81 88
f 73 88 74
f 74 88 76
f 74 76 75
f 76 88 78
f 78 88 79
f 79 88 80
f 80 88 81

