# https://github.com/mikedh/trimesh
v 0.01892167 0.04652944 0.01026374
v 0.00974757 0.04940536 0.01026374
v 0.01892167 0.05532587 0.01026374
v 0.01892167 0.04990586 0.03057757
v 0.00974757 0.05233824 0.03060482
v 0.00974757 0.05222105 0.02988493
v 0.00974757 0.05214658 0.02942165
v 0.00974757 0.05758412 0.01026374
v 0.01850230 0.05546934 0.01026374
v 0.01892167 0.05536968 0.01096093
v 0.01892167 0.05010080 0.03120890
v 0.00974757 0.05254413 0.03144054
v 0.00974757 0.05249923 0.03126568
v 0.00974757 0.05760821 0.01077244
v 0.00998644 0.05760055 0.01142648
v 0.01053154 0.05745708 0.01026374
v 0.01824727 0.05555586 0.01026374
v 0.01809909 0.05562705 0.01057941
v 0.01892167 0.05542444 0.01213956
v 0.01892167 0.05016213 0.03134516
v 0.00974757 0.05285297 0.03220132
v 0.00974757 0.05260218 0.03159951
v 0.00974757 0.05763340 0.01131520
v 0.00974757 0.05765640 0.01193972
v 0.01066444 0.05753703 0.01328640
v 0.01125623 0.05739794 0.01201920
v 0.01080723 0.05740889 0.01026374
v 0.01061954 0.05744175 0.01026374
v 0.01798415 0.05564128 0.01026374
v 0.01742648 0.05581213 0.01026374
v 0.01693976 0.05595779 0.01026374
v 0.01751000 0.05586032 0.01184661
v 0.01878158 0.05548467 0.01243933
v 0.01892167 0.05543648 0.01250292
v 0.01892167 0.05037569 0.03179027
v 0.00974757 0.05285845 0.03221267
v 0.00974757 0.05768269 0.01285946
v 0.01007265 0.05765750 0.01455588
v 0.01193334 0.05732237 0.01387913
v 0.01252513 0.05717562 0.01260965
v 0.01184892 0.05724242 0.01074973
v 0.01207432 0.05717891 0.01026374
v 0.01607946 0.05620311 0.01026374
v 0.01497580 0.05653494 0.01066343
v 0.01692359 0.05606621 0.01311608
v 0.01818351 0.05570699 0.01370880
v 0.01892167 0.05546058 0.01404945
v 0.01892167 0.05064400 0.03223311
v 0.00974757 0.05311143 0.03260782
v 0.00974757 0.05769583 0.01366338
v 0.00974757 0.05771116 0.01467397
v 0.00974757 0.05771554 0.01525533
v 0.00974757 0.05771773 0.01572770
v 0.01133885 0.05744065 0.01514860
v 0.00974757 0.05770787 0.01440372
v 0.01261133 0.05720629 0.01573905
v 0.01319953 0.05707048 0.01446958
v 0.01311422 0.05701682 0.01134245
v 0.01272179 0.05705187 0.01026374
v 0.01516349 0.05646266 0.01026374
v 0.01482853 0.05655466 0.01026374
v 0.01411012 0.05674741 0.01026374
v 0.01377157 0.05683612 0.01026374
v 0.01438671 0.05673098 0.01193291
v 0.01506291 0.05658094 0.01379283
v 0.01633450 0.05624691 0.01438555
v 0.01700711 0.05608483 0.01624548
v 0.01759710 0.05590303 0.01497601
v 0.01886420 0.05550220 0.01556873
v 0.01892167 0.05548029 0.01544610
v 0.01892167 0.05074914 0.03233530
v 0.01780634 0.05130549 0.03266005
v 0.01713912 0.05128468 0.03248746
v 0.00974757 0.05327352 0.03282356
v 0.00974757 0.05771226 0.01678143
v 0.01016066 0.05763231 0.01768527
v 0.01142865 0.05740123 0.01827800
v 0.01269305 0.05714496 0.01886845
v 0.01328484 0.05704529 0.01759897
v 0.01387753 0.05692483 0.01633178
v 0.01379581 0.05690511 0.01320238
v 0.01361442 0.05687335 0.01026374
v 0.01446663 0.05676055 0.01506230
v 0.01574271 0.05642652 0.01565275
v 0.01514912 0.05659299 0.01692223
v 0.01641622 0.05623487 0.01751495
v 0.01768241 0.05585155 0.01810540
v 0.01826971 0.05569604 0.01683593
v 0.01892167 0.05548139 0.01554829
v 0.01892167 0.05548139 0.01572315
v 0.01892167 0.05114231 0.03267822
v 0.01659941 0.05188374 0.03297799
v 0.01046957 0.05331075 0.03301659
v 0.00974757 0.05355388 0.03307564
v 0.00974757 0.05770678 0.01749224
v 0.00974757 0.05769364 0.01856414
v 0.00974757 0.05768926 0.01888662
v 0.01083686 0.05748117 0.01954520
v 0.01210216 0.05722381 0.02013792
v 0.01278196 0.05700915 0.02199558
v 0.01337195 0.05692483 0.02072837
v 0.01396284 0.05683174 0.01945890
v 0.01455194 0.05672331 0.01819170
v 0.01582802 0.05635972 0.01878442
v 0.01892167 0.05543320 0.01868223
v 0.01892167 0.05543539 0.01860729
v 0.01709062 0.05597640 0.01937487
v 0.01717683 0.05583075 0.02251790
v 0.01777042 0.05570371 0.02123480
v 0.01836580 0.05542553 0.02374195
v 0.01836041 0.05557119 0.01996533
v 0.01892167 0.05546824 0.01713797
v 0.01892167 0.05161652 0.03298480
v 0.01842327 0.05186512 0.03308927
v 0.01604085 0.05249375 0.03324596
v 0.01516888 0.05256165 0.03319600
v 0.00974757 0.05391967 0.03323688
v 0.00974757 0.05768597 0.01903877
v 0.00974757 0.05767173 0.01945890
v 0.01024238 0.05753812 0.02081467
v 0.01151217 0.05728514 0.02140512
v 0.01218927 0.05707705 0.02326505
v 0.01345547 0.05677150 0.02385550
v 0.01405354 0.05668389 0.02258830
v 0.01523623 0.05646923 0.02005162
v 0.01531525 0.05632248 0.02317875
v 0.01657965 0.05595450 0.02381008
v 0.01892167 0.05533135 0.02156636
v 0.01892167 0.05525688 0.02346262
v 0.01831641 0.05535763 0.02559506
v 0.01892167 0.05523278 0.02400538
v 0.01892167 0.05179394 0.03306201
v 0.01743636 0.05257042 0.03330274
v 0.01523892 0.05314757 0.03345489
v 0.00974757 0.05438402 0.03338449
v 0.00974757 0.05762902 0.02058303
v 0.00974757 0.05750198 0.02367155
v 0.01032769 0.05739246 0.02394180
v 0.01159568 0.05713072 0.02453225
v 0.01108920 0.05700587 0.02893112
v 0.01168099 0.05694892 0.02766165
v 0.01295258 0.05663898 0.02825437
v 0.01421698 0.05630824 0.02882211
v 0.01471987 0.05642433 0.02444822
v 0.01599056 0.05605416 0.02507274
v 0.01667574 0.05576285 0.02704848
v 0.01715079 0.05567852 0.02609240
v 0.01818440 0.05528425 0.02748905
v 0.01892167 0.05506522 0.02712797
v 0.01892167 0.05512436 0.02615826
v 0.01892167 0.05517802 0.02521354
v 0.01892167 0.05215096 0.03315740
v 0.01830294 0.05246309 0.03325050
v 0.01638568 0.05321766 0.03345716
v 0.00974757 0.05466877 0.03346170
v 0.00974757 0.05729719 0.02796141
v 0.00990293 0.05725557 0.02834521
v 0.00994783 0.05717781 0.02946707
v 0.01241018 0.05665651 0.02981907
v 0.01350486 0.05634329 0.03047765
v 0.01548677 0.05594464 0.02943754
v 0.01608036 0.05585922 0.02826572
v 0.01752796 0.05538830 0.02879259
v 0.01892167 0.05495570 0.02831341
v 0.01892167 0.05246418 0.03321871
v 0.01036181 0.05469177 0.03345943
v 0.01743007 0.05326914 0.03340720
v 0.01524521 0.05387039 0.03341402
v 0.01206534 0.05465015 0.03342310
v 0.00974757 0.05488452 0.03342537
v 0.00974757 0.05728185 0.02827708
v 0.00974757 0.05725995 0.02865406
v 0.00974757 0.05720519 0.02951476
v 0.01070216 0.05690292 0.03063889
v 0.01211024 0.05662037 0.03067068
v 0.01382186 0.05620858 0.03097272
v 0.01673142 0.05545510 0.03028234
v 0.01744983 0.05532368 0.02960333
v 0.01489588 0.05595998 0.03069112
v 0.01892167 0.05493380 0.02854959
v 0.01892167 0.05279164 0.03325050
v 0.01828408 0.05323409 0.03333907
v 0.01611448 0.05382329 0.03337768
v 0.01350127 0.05466220 0.03333226
v 0.00974757 0.05578475 0.03310743
v 0.00974757 0.05714605 0.02997350
v 0.00974757 0.05702996 0.03075925
v 0.00974757 0.05693359 0.03125886
v 0.00974757 0.05692263 0.03130883
v 0.01132718 0.05662037 0.03138831
v 0.01471718 0.05595998 0.03098862
v 0.01314386 0.05622720 0.03145644
v 0.01456810 0.05588112 0.03146779
v 0.01636952 0.05532478 0.03140193
v 0.01766086 0.05492613 0.03118165
v 0.01772821 0.05507179 0.03043223
v 0.01892167 0.05479800 0.02950567
v 0.01892167 0.05480457 0.02946707
v 0.01892167 0.05303367 0.03320736
v 0.01702866 0.05382220 0.03327321
v 0.01892167 0.05336442 0.03294847
v 0.01892167 0.05354074 0.03280767
v 0.01853104 0.05374116 0.03282129
v 0.01825625 0.05346736 0.03316194
v 0.01754232 0.05401604 0.03296209
v 0.01516708 0.05436978 0.03324823
v 0.01215514 0.05532040 0.03312333
v 0.00974757 0.05595998 0.03302341
v 0.00974757 0.05691059 0.03134743
v 0.01110088 0.05643966 0.03211956
v 0.01277028 0.05609687 0.03207641
v 0.01415681 0.05582746 0.03193561
v 0.01512667 0.05556791 0.03184477
v 0.01761866 0.05458553 0.03204689
v 0.01892167 0.05438841 0.03123615
v 0.01892167 0.05445959 0.03099770
v 0.01878248 0.05462168 0.03064570
v 0.01851218 0.05425698 0.03201055
v 0.01892167 0.05473776 0.02980317
v 0.01621147 0.05445630 0.03298026
v 0.01892167 0.05382329 0.03246475
v 0.01864419 0.05394048 0.03250108
v 0.01721904 0.05435774 0.03268049
v 0.01276130 0.05545839 0.03291667
v 0.01069318 0.05587565 0.03295982
v 0.00974757 0.05621077 0.03281902
v 0.00974757 0.05669593 0.03199239
v 0.00974757 0.05666417 0.03206279
v 0.00974757 0.05649771 0.03242841
v 0.01041659 0.05641119 0.03239889
v 0.01211563 0.05599502 0.03257830
v 0.01352641 0.05580337 0.03235347
v 0.01477465 0.05542006 0.03233757
v 0.01596901 0.05514627 0.03209458
v 0.01634168 0.05481990 0.03243068
v 0.01892167 0.05433036 0.03138604
v 0.01892167 0.05455925 0.03065478
v 0.01892167 0.05459868 0.03048673
v 0.01892167 0.05409271 0.03197195
v 0.01537362 0.05495789 0.03271683
v 0.01389370 0.05541458 0.03272364
v 0.01892167 0.05391419 0.03231259
v 0.01095091 0.05611768 0.03269866
v 0.00974757 0.05628853 0.03274862
v 0.00974757 0.05636519 0.03263507
f 1 2 8
f 1 8 16
f 1 16 28
f 1 28 27
f 1 27 42
f 1 42 59
f 1 59 82
f 1 82 63
f 1 63 62
f 1 62 61
f 1 61 60
f 1 60 43
f 1 43 31
f 1 31 30
f 1 30 29
f 1 29 17
f 1 17 9
f 1 9 3
f 1 3 10
f 1 10 19
f 1 19 34
f 1 34 47
f 1 47 70
f 1 70 89
f 1 89 90
f 1 90 112
f 1 112 106
f 1 106 105
f 1 105 128
f 1 128 129
f 1 129 131
f 1 131 151
f 1 151 150
f 1 150 149
f 1 149 164
f 1 164 180
f 1 180 198
f 1 198 197
f 1 197 219
f 1 219 238
f 1 238 237
f 1 237 216
f 1 216 215
f 1 215 236
f 1 236 239
f 1 239 242
f 1 242 221
f 1 221 202
f 1 202 201
f 1 201 199
f 1 199 181
f 1 181 165
f 1 165 152
f 1 152 132
f 1 132 113
f 1 113 91
f 1 91 71
f 1 71 48
f 1 48 35
f 1 35 20
f 1 20 11
f 1 11 4
f 1 4 5
f 1 5 6
f 1 6 7
f 1 7 2
f 2 7 6
f 2 6 5
f 2 5 13
f 2 13 12
f 2 12 22
f 2 22 21
f 2 21 36
f 2 36 49
f 2 49 74
f 2 74 94
f 2 94 117
f 2 117 135
f 2 135 155
f 2 155 170
f 2 170 185
f 2 185 208
f 2 208 226
f 2 226 244
f 2 244 245
f 2 245 229
f 2 229 228
f 2 228 227
f 2 227 209
f 2 209 189
f 2 189 188
f 2 188 187
f 2 187 186
f 2 186 173
f 2 173 172
f 2 172 171
f 2 171 156
f 2 156 137
f 2 137 136
f 2 136 119
f 2 119 118
f 2 118 97
f 2 97 96
f 2 96 95
f 2 95 75
f 2 75 53
f 2 53 52
f 2 52 51
f 2 51 55
f 2 55 50
f 2 50 37
f 2 37 24
f 2 24 23
f 2 23 14
f 2 14 8
f 3 9 10
f 4 11 12
f 4 12 13
f 4 13 5
f 8 14 15
f 8 15 16
f 9 17 18
f 9 18 10
f 10 18 19
f 11 20 21
f 11 21 22
f 11 22 12
f 14 23 15
f 15 24 25
f 15 25 26
f 15 26 27
f 15 27 28
f 15 28 16
f 15 23 24
f 17 29 18
f 18 29 30
f 18 30 31
f 18 31 32
f 18 32 33
f 18 33 19
f 19 33 34
f 20 35 21
f 21 35 36
f 24 37 25
f 25 37 38
f 25 38 39
f 25 39 26
f 26 39 40
f 26 40 41
f 26 41 27
f 27 41 42
f 31 43 44
f 31 44 32
f 32 45 46
f 32 46 33
f 32 44 45
f 33 46 47
f 33 47 34
f 35 48 36
f 36 48 49
f 37 50 38
f 38 51 52
f 38 52 53
f 38 53 54
f 38 54 39
f 38 50 55
f 38 55 51
f 39 54 56
f 39 56 57
f 39 57 40
f 40 58 41
f 40 57 58
f 41 59 42
f 41 58 59
f 43 60 44
f 44 60 61
f 44 61 62
f 44 62 63
f 44 63 64
f 44 64 45
f 45 64 65
f 45 65 66
f 45 66 67
f 45 67 68
f 45 68 46
f 46 68 69
f 46 69 47
f 47 69 70
f 48 71 72
f 48 72 73
f 48 73 74
f 48 74 49
f 53 75 54
f 54 75 76
f 54 76 77
f 54 77 56
f 56 77 78
f 56 78 79
f 56 79 80
f 56 80 57
f 57 81 58
f 57 80 81
f 58 81 82
f 58 82 59
f 63 82 81
f 63 81 64
f 64 81 83
f 64 83 65
f 65 83 84
f 65 84 66
f 66 84 67
f 67 84 85
f 67 85 86
f 67 86 87
f 67 87 88
f 67 88 68
f 68 88 69
f 69 89 70
f 69 88 90
f 69 90 89
f 71 91 72
f 72 91 92
f 72 92 73
f 73 92 74
f 74 92 93
f 74 93 94
f 75 95 76
f 76 95 96
f 76 96 77
f 77 96 97
f 77 97 98
f 77 98 78
f 78 98 99
f 78 99 100
f 78 100 101
f 78 101 102
f 78 102 79
f 79 102 103
f 79 103 80
f 80 103 85
f 80 85 83
f 80 83 81
f 83 85 84
f 85 103 86
f 86 103 104
f 86 104 87
f 87 105 106
f 87 106 88
f 87 104 107
f 87 107 108
f 87 108 109
f 87 109 110
f 87 110 111
f 87 111 105
f 88 106 112
f 88 112 90
f 91 113 92
f 92 113 114
f 92 114 115
f 92 115 116
f 92 116 94
f 92 94 93
f 94 116 117
f 97 118 98
f 98 118 119
f 98 119 120
f 98 120 121
f 98 121 99
f 99 121 122
f 99 122 100
f 100 122 123
f 100 123 101
f 101 123 124
f 101 124 102
f 102 124 125
f 102 125 103
f 103 125 104
f 104 125 126
f 104 126 127
f 104 127 107
f 105 111 128
f 107 127 108
f 108 127 110
f 108 110 109
f 110 129 128
f 110 128 111
f 110 127 130
f 110 130 131
f 110 131 129
f 113 132 114
f 114 132 133
f 114 133 134
f 114 134 115
f 115 134 116
f 116 134 117
f 117 134 135
f 119 136 120
f 120 136 137
f 120 137 138
f 120 138 121
f 121 138 122
f 122 138 139
f 122 139 140
f 122 140 141
f 122 141 123
f 123 141 142
f 123 142 143
f 123 143 144
f 123 144 124
f 124 144 126
f 124 126 125
f 126 144 127
f 127 144 145
f 127 145 146
f 127 146 147
f 127 147 130
f 130 147 148
f 130 148 149
f 130 149 150
f 130 150 151
f 130 151 131
f 132 152 133
f 133 153 154
f 133 154 134
f 133 152 153
f 134 154 155
f 134 155 135
f 137 156 157
f 137 157 138
f 138 157 139
f 139 157 140
f 140 157 158
f 140 158 159
f 140 159 142
f 140 142 141
f 142 159 143
f 143 159 160
f 143 160 161
f 143 161 162
f 143 162 144
f 144 162 145
f 145 162 146
f 146 162 148
f 146 148 147
f 148 162 163
f 148 163 164
f 148 164 149
f 152 165 153
f 153 165 154
f 154 166 155
f 154 165 167
f 154 167 168
f 154 168 169
f 154 169 166
f 155 166 170
f 156 171 157
f 157 171 172
f 157 172 158
f 158 172 173
f 158 173 174
f 158 174 159
f 159 174 175
f 159 175 160
f 160 175 176
f 160 176 161
f 161 177 178
f 161 178 163
f 161 163 162
f 161 176 179
f 161 179 177
f 163 178 180
f 163 180 164
f 165 181 167
f 166 169 170
f 167 182 183
f 167 183 168
f 167 181 182
f 168 183 169
f 169 183 184
f 169 184 185
f 169 185 170
f 173 186 174
f 174 187 188
f 174 188 189
f 174 189 190
f 174 190 175
f 174 186 187
f 175 190 176
f 176 191 179
f 176 190 192
f 176 192 193
f 176 193 191
f 177 179 191
f 177 191 194
f 177 194 195
f 177 195 196
f 177 196 178
f 178 197 198
f 178 198 180
f 178 196 197
f 181 199 182
f 182 200 183
f 182 199 201
f 182 201 202
f 182 202 203
f 182 203 204
f 182 204 205
f 182 205 200
f 183 200 184
f 184 200 206
f 184 206 207
f 184 207 208
f 184 208 185
f 189 209 210
f 189 210 190
f 190 210 192
f 191 193 194
f 192 210 211
f 192 211 212
f 192 212 193
f 193 212 213
f 193 213 194
f 194 213 214
f 194 214 195
f 195 215 216
f 195 216 217
f 195 217 196
f 195 214 218
f 195 218 215
f 196 217 197
f 197 217 219
f 200 205 220
f 200 220 206
f 202 221 203
f 203 205 204
f 203 221 222
f 203 222 223
f 203 223 205
f 205 223 220
f 206 220 224
f 206 224 207
f 207 224 225
f 207 225 208
f 208 225 226
f 209 227 210
f 210 227 228
f 210 228 229
f 210 229 230
f 210 230 231
f 210 231 232
f 210 232 211
f 211 232 212
f 212 232 233
f 212 233 213
f 213 233 234
f 213 234 214
f 214 234 235
f 214 235 223
f 214 223 222
f 214 222 218
f 215 218 236
f 216 237 217
f 217 237 238
f 217 238 219
f 218 222 239
f 218 239 236
f 220 223 240
f 220 240 241
f 220 241 224
f 221 242 222
f 222 242 239
f 223 235 233
f 223 233 240
f 224 241 231
f 224 231 225
f 225 231 243
f 225 243 226
f 226 243 244
f 229 245 230
f 230 245 244
f 230 244 243
f 230 243 231
f 231 241 232
f 232 241 240
f 232 240 233
f 233 235 234

