# https://github.com/mikedh/trimesh
v -0.05679108 0.00989885 0.00133465
v -0.05689880 0.00989885 0.00185251
v -0.05666988 0.01059263 0.00133465
v -0.04583716 0.00989885 0.00133465
v -0.05669831 0.01113068 0.00192860
v -0.05713072 0.00989885 0.00316682
v -0.05655617 0.01115119 0.00133465
v -0.04268759 0.01942335 0.00133465
v -0.05020017 0.00989885 0.01387023
v -0.05715167 0.00989885 0.00328954
v -0.05693471 0.01118569 0.00339262
v -0.05663846 0.01258350 0.00352638
v -0.05638709 0.01258164 0.00209918
v -0.05639906 0.01183937 0.00133465
v -0.04731693 0.01942335 0.01387023
v -0.05419511 0.01942335 0.00133465
v -0.05218418 0.00989885 0.01387023
v -0.05733870 0.00989885 0.00462347
v -0.05684045 0.01258537 0.00498058
v -0.05735516 0.00989885 0.00474128
v -0.05713521 0.01118663 0.00484437
v -0.05652026 0.01398691 0.00513152
v -0.05630480 0.01398598 0.00368591
v -0.05605044 0.01398131 0.00225503
v -0.05600106 0.01344606 0.00133465
v -0.05621952 0.01258723 0.00133465
v -0.05548636 0.01942335 0.01387023
v -0.05421456 0.01936927 0.00133465
v -0.05421008 0.01942335 0.00139723
v -0.05773969 0.01114280 0.01387023
v -0.05797160 0.00989885 0.01386778
v -0.05702000 0.01258164 0.00643601
v -0.05753620 0.00989885 0.00619917
v -0.05731027 0.01118383 0.00630348
v -0.05616715 0.01538192 0.00529106
v -0.05668783 0.01398225 0.00659186
v -0.05594870 0.01538192 0.00384790
v -0.05568985 0.01538565 0.00242806
v -0.05557314 0.01502011 0.00133465
v -0.05585743 0.01398691 0.00133465
v -0.05547290 0.01942335 0.01333764
v -0.05592027 0.01818313 0.01387023
v -0.05424598 0.01942335 0.00155186
v -0.05462303 0.01818500 0.00133465
v -0.05773221 0.01118383 0.01387023
v -0.05797160 0.00989885 0.01372052
v -0.05746288 0.01118756 0.00778222
v -0.05716813 0.01258723 0.00791844
v -0.05769181 0.00989885 0.00754906
v -0.05632724 0.01538752 0.00676857
v -0.05579907 0.01678626 0.00546777
v -0.05558511 0.01678439 0.00402093
v -0.05682848 0.01398877 0.00807920
v -0.05646939 0.01538752 0.00824732
v -0.05546990 0.01538379 0.00133465
v -0.05531729 0.01678906 0.00260477
v -0.05506293 0.01678626 0.00133465
v -0.05542801 0.01942335 0.01199265
v -0.05590082 0.01818313 0.01313884
v -0.05632575 0.01678439 0.01294249
v -0.05634819 0.01678533 0.01387023
v -0.05427890 0.01942335 0.00170771
v -0.05463201 0.01818500 0.00137637
v -0.05463501 0.01814957 0.00133465
v -0.05773221 0.01118383 0.01382974
v -0.05763944 0.01161837 0.01387023
v -0.05794617 0.00989885 0.01231049
v -0.05757360 0.01118383 0.00926956
v -0.05728633 0.01258444 0.00940332
v -0.05770378 0.00989885 0.00766809
v -0.05781599 0.00989885 0.00903148
v -0.05695716 0.01397945 0.00955058
v -0.05595767 0.01678346 0.00693547
v -0.05554172 0.01818407 0.00713059
v -0.05538611 0.01817008 0.00564326
v -0.05518711 0.01818500 0.00420746
v -0.05492527 0.01818780 0.00278639
v -0.05658908 0.01538285 0.00972975
v -0.05607887 0.01678253 0.00842158
v -0.05472029 0.01787914 0.00133465
v -0.05542202 0.01942335 0.01181840
v -0.05584097 0.01818127 0.01161959
v -0.05626889 0.01678439 0.01142447
v -0.05666689 0.01538658 0.01124163
v -0.05671028 0.01538285 0.01276087
v -0.05648585 0.01629297 0.01387023
v -0.05453925 0.01942335 0.00296188
v -0.05743296 0.01258164 0.01387023
v -0.05740902 0.01258910 0.01244548
v -0.05770078 0.01118849 0.01230804
v -0.05794317 0.00989885 0.01218655
v -0.05782497 0.00989885 0.00915297
v -0.05765141 0.01118849 0.01078512
v -0.05735964 0.01257977 0.01090661
v -0.05703795 0.01397852 0.01105509
v -0.05526043 0.01942335 0.00880200
v -0.05513774 0.01942335 0.00732448
v -0.05565843 0.01818780 0.00862284
v -0.05497614 0.01942335 0.00585188
v -0.05478613 0.01942335 0.00439277
v -0.05456917 0.01942335 0.00312264
v -0.05618510 0.01678533 0.00991996
v -0.05536666 0.01942335 0.01048323
v -0.05535768 0.01942335 0.01030775
v -0.05576017 0.01818313 0.01011508
v -0.05707835 0.01398971 0.01259888
v -0.05673721 0.01538379 0.01387023
v -0.05741201 0.01267582 0.01387023
v -0.05710529 0.01398504 0.01387023
v -0.05790128 0.00989885 0.01066363
f 1 2 3
f 1 3 7
f 1 7 14
f 1 14 26
f 1 26 25
f 1 25 40
f 1 40 39
f 1 39 55
f 1 55 57
f 1 57 80
f 1 80 64
f 1 64 44
f 1 44 28
f 1 28 16
f 1 16 8
f 1 8 4
f 1 4 9
f 1 9 17
f 1 17 31
f 1 31 46
f 1 46 67
f 1 67 91
f 1 91 110
f 1 110 92
f 1 92 71
f 1 71 70
f 1 70 49
f 1 49 33
f 1 33 20
f 1 20 18
f 1 18 10
f 1 10 6
f 1 6 2
f 2 5 3
f 2 6 5
f 3 5 7
f 4 8 9
f 5 6 10
f 5 10 11
f 5 11 12
f 5 12 13
f 5 13 14
f 5 14 7
f 8 15 9
f 8 16 29
f 8 29 43
f 8 43 62
f 8 62 87
f 8 87 101
f 8 101 100
f 8 100 99
f 8 99 97
f 8 97 96
f 8 96 104
f 8 104 103
f 8 103 81
f 8 81 58
f 8 58 41
f 8 41 27
f 8 27 15
f 9 15 27
f 9 27 42
f 9 42 61
f 9 61 86
f 9 86 107
f 9 107 109
f 9 109 108
f 9 108 88
f 9 88 66
f 9 66 45
f 9 45 30
f 9 30 17
f 10 18 11
f 11 19 12
f 11 18 20
f 11 20 21
f 11 21 19
f 12 22 23
f 12 23 13
f 12 19 22
f 13 23 24
f 13 24 25
f 13 25 26
f 13 26 14
f 16 28 29
f 17 30 31
f 19 21 32
f 19 32 22
f 20 33 21
f 21 33 34
f 21 34 32
f 22 35 23
f 22 32 36
f 22 36 35
f 23 35 37
f 23 37 24
f 24 37 38
f 24 38 39
f 24 39 40
f 24 40 25
f 27 41 42
f 28 43 29
f 28 44 43
f 30 45 31
f 31 45 65
f 31 65 46
f 32 34 47
f 32 47 48
f 32 48 36
f 33 49 34
f 34 49 47
f 35 36 50
f 35 50 51
f 35 51 52
f 35 52 37
f 36 48 53
f 36 53 54
f 36 54 50
f 37 52 38
f 38 55 39
f 38 52 56
f 38 56 57
f 38 57 55
f 41 58 59
f 41 59 42
f 42 59 60
f 42 60 61
f 43 44 63
f 43 63 62
f 44 64 63
f 45 66 65
f 46 65 67
f 47 68 69
f 47 69 48
f 47 49 70
f 47 70 71
f 47 71 68
f 48 69 72
f 48 72 53
f 50 54 73
f 50 73 51
f 51 73 74
f 51 74 75
f 51 75 76
f 51 76 52
f 52 76 77
f 52 77 56
f 53 72 54
f 54 72 78
f 54 78 79
f 54 79 73
f 56 77 57
f 57 77 80
f 58 81 59
f 59 81 82
f 59 82 83
f 59 83 60
f 60 83 84
f 60 84 85
f 60 85 86
f 60 86 61
f 62 63 77
f 62 77 87
f 63 64 77
f 64 80 77
f 65 66 88
f 65 88 89
f 65 89 90
f 65 90 67
f 67 90 91
f 68 71 92
f 68 92 93
f 68 93 69
f 69 93 94
f 69 94 95
f 69 95 72
f 72 95 78
f 73 79 74
f 74 96 97
f 74 97 75
f 74 79 98
f 74 98 96
f 75 97 99
f 75 99 100
f 75 100 76
f 76 100 101
f 76 101 77
f 77 101 87
f 78 84 83
f 78 83 102
f 78 102 79
f 78 95 84
f 79 102 98
f 81 103 82
f 82 103 104
f 82 104 105
f 82 105 83
f 83 105 102
f 84 95 106
f 84 106 85
f 85 106 107
f 85 107 86
f 88 108 89
f 89 108 109
f 89 109 106
f 89 106 95
f 89 95 94
f 89 94 93
f 89 93 90
f 90 93 110
f 90 110 91
f 92 110 93
f 96 98 105
f 96 105 104
f 98 102 105
f 106 109 107

