# https://github.com/mikedh/trimesh
v -0.00927576 -0.04064021 -0.00501860
v -0.00927576 -0.05470851 -0.00501860
v -0.00016746 -0.04165809 -0.00501860
v -0.00016746 -0.02924353 -0.01105622
v -0.00927576 -0.02924353 -0.01058867
v -0.00927576 -0.05460851 -0.00528374
v -0.00861153 -0.05482388 -0.00501860
v -0.00016746 -0.05543154 -0.00501860
v -0.00016746 -0.02924353 -0.02564932
v -0.00927576 -0.02924353 -0.02503605
v -0.00927576 -0.05400599 -0.00682604
v -0.00803558 -0.05444442 -0.00625324
v -0.00758534 -0.05496746 -0.00501860
v -0.00021204 -0.05543410 -0.00501860
v -0.00016746 -0.05520847 -0.00566831
v -0.00024236 -0.02924353 -0.02565337
v -0.00016746 -0.03501750 -0.02385807
v -0.00868821 -0.02924353 -0.02509070
v -0.00927576 -0.03070754 -0.02469804
v -0.00927576 -0.05397522 -0.00689485
v -0.00744001 -0.05399061 -0.00751015
v -0.00617130 -0.05441622 -0.00691914
v -0.00676242 -0.05484696 -0.00565009
v -0.00705931 -0.05503925 -0.00501860
v -0.00050626 -0.05515463 -0.00582820
v -0.00088429 -0.05542897 -0.00501860
v -0.00016746 -0.05485465 -0.00655077
v -0.00104031 -0.02924353 -0.02569385
v -0.00016746 -0.03529185 -0.02376700
v -0.00136930 -0.03501750 -0.02385403
v -0.00338158 -0.02924353 -0.02553193
v -0.00927576 -0.03180490 -0.02444099
v -0.00927576 -0.05329065 -0.00836631
v -0.00870782 -0.05351628 -0.00809914
v -0.00685068 -0.05343680 -0.00878730
v -0.00558198 -0.05388548 -0.00819427
v -0.00431238 -0.05428033 -0.00759719
v -0.00490349 -0.05479055 -0.00633218
v -0.00551778 -0.05521873 -0.00501860
v -0.00208078 -0.05540590 -0.00501860
v -0.00236786 -0.05535205 -0.00515218
v -0.00177497 -0.05491106 -0.00641314
v -0.00016746 -0.05458031 -0.00721060
v -0.00292509 -0.03501750 -0.02382569
v -0.00449069 -0.03501750 -0.02378116
v -0.00606610 -0.03501750 -0.02371639
v -0.00586371 -0.03361760 -0.02414751
v -0.00744714 -0.03361760 -0.02407060
v -0.00885315 -0.03221769 -0.02436813
v -0.00016746 -0.03641742 -0.02339053
v -0.00158774 -0.03641742 -0.02338243
v -0.00314710 -0.03641742 -0.02335410
v -0.00927576 -0.03221769 -0.02433776
v -0.00927576 -0.05298811 -0.00895732
v -0.00811939 -0.05295221 -0.00938034
v -0.00499086 -0.05326758 -0.00946939
v -0.00625957 -0.05281376 -0.01006040
v -0.00372127 -0.05368550 -0.00886826
v -0.00245256 -0.05405470 -0.00827928
v -0.00304367 -0.05462646 -0.00700618
v -0.00363568 -0.05509823 -0.00574117
v -0.00397269 -0.05531872 -0.00501860
v -0.00242938 -0.05539308 -0.00501860
v -0.00273341 -0.05538026 -0.00501860
v -0.00118386 -0.05437007 -0.00768422
v -0.00016746 -0.05417777 -0.00805664
v -0.00471359 -0.03641742 -0.02330147
v -0.00629256 -0.03641485 -0.02322456
v -0.00765488 -0.03501750 -0.02362531
v -0.00903592 -0.03361504 -0.02396535
v -0.00927576 -0.03337915 -0.02401392
v -0.00016746 -0.03772758 -0.02290477
v -0.00028426 -0.03781988 -0.02287036
v -0.00183203 -0.03781476 -0.02285619
v -0.00339406 -0.03781732 -0.02282381
v -0.00927576 -0.05246763 -0.00992075
v -0.00752560 -0.05231123 -0.01063927
v -0.00312926 -0.05302144 -0.01013529
v -0.00439797 -0.05259583 -0.01072630
v -0.00566578 -0.05211893 -0.01131529
v -0.00186145 -0.05340090 -0.00955238
v -0.00059185 -0.05373165 -0.00895934
v -0.00016746 -0.05382652 -0.00876099
v -0.00496679 -0.03781732 -0.02276106
v -0.00655201 -0.03781732 -0.02266998
v -0.00789025 -0.03641998 -0.02312134
v -0.00927576 -0.03501750 -0.02350590
v -0.00927576 -0.03361504 -0.02394511
v -0.00016746 -0.03781988 -0.02287036
v -0.00055886 -0.03921979 -0.02227935
v -0.00210841 -0.03921723 -0.02226518
v -0.00367580 -0.03921979 -0.02221863
v -0.00927576 -0.05241122 -0.01001588
v -0.00879520 -0.05175742 -0.01123635
v -0.00689080 -0.05164204 -0.01182939
v -0.00246237 -0.05236507 -0.01129100
v -0.00112323 -0.05260608 -0.01095704
v -0.00380686 -0.05183177 -0.01199941
v -0.00507467 -0.05130617 -0.01259244
v -0.00016746 -0.05306759 -0.01016768
v -0.00016746 -0.05323168 -0.00987015
v -0.00016746 -0.05362396 -0.00914353
v -0.00525209 -0.03921466 -0.02214172
v -0.00815059 -0.03781732 -0.02255259
v -0.00685246 -0.03921979 -0.02203444
v -0.00927576 -0.03641742 -0.02301002
v -0.00927576 -0.03516109 -0.02345530
v -0.00016746 -0.03921979 -0.02227935
v -0.00016746 -0.03966079 -0.02206885
v -0.00086556 -0.04061457 -0.02161345
v -0.00242046 -0.04061201 -0.02158511
v -0.00399855 -0.04061714 -0.02152237
v -0.00927576 -0.05229072 -0.01021625
v -0.00927576 -0.05178049 -0.01106026
v -0.00927576 -0.05152410 -0.01146102
v -0.00927576 -0.05107542 -0.01211882
v -0.00820409 -0.05098311 -0.01250743
v -0.00634427 -0.05072159 -0.01318548
v -0.00183827 -0.05209842 -0.01173831
v -0.00067744 -0.05189074 -0.01207632
v -0.00016746 -0.05246506 -0.01117766
v -0.00016746 -0.05297016 -0.01033769
v -0.00320148 -0.05092671 -0.01326643
v -0.00190157 -0.05145488 -0.01265316
v -0.00448356 -0.05034982 -0.01385745
v -0.00558287 -0.04061457 -0.02143331
v -0.00927576 -0.03781732 -0.02245139
v -0.00927576 -0.03664304 -0.02292096
v -0.00845373 -0.03921466 -0.02190086
v -0.00719215 -0.04061970 -0.02130378
v -0.00016746 -0.04061457 -0.02161345
v -0.00016746 -0.04130683 -0.02124305
v -0.00122665 -0.04201704 -0.02084635
v -0.00279582 -0.04202217 -0.02080182
v -0.00437122 -0.04201961 -0.02072896
v -0.00927576 -0.05042418 -0.01300331
v -0.00761208 -0.05007035 -0.01377244
v -0.00575227 -0.04971396 -0.01445048
v -0.00016746 -0.05095747 -0.01332513
v -0.00016746 -0.05175229 -0.01225443
v -0.00016746 -0.05203689 -0.01184558
v -0.00353315 -0.05015496 -0.01416105
v -0.00135504 -0.05043699 -0.01394650
v -0.00596179 -0.04201704 -0.02062573
v -0.00927576 -0.03833780 -0.02221863
v -0.00927576 -0.03921466 -0.02181585
v -0.00880768 -0.04061714 -0.02114995
v -0.00758177 -0.04202217 -0.02047596
v -0.00016746 -0.04196833 -0.02088278
v -0.00016746 -0.04330926 -0.02006103
v -0.00162608 -0.04340926 -0.01997805
v -0.00320326 -0.04341951 -0.01992340
v -0.00477867 -0.04341182 -0.01984447
v -0.00927576 -0.05029341 -0.01316726
v -0.00888168 -0.04935245 -0.01436750
v -0.00725367 -0.04880377 -0.01522163
v -0.00516026 -0.04854994 -0.01571549
v -0.00386659 -0.04928066 -0.01509007
v -0.00016746 -0.05090107 -0.01339597
v -0.00262285 -0.04987549 -0.01452942
v -0.00016746 -0.05004728 -0.01438166
v -0.00083258 -0.04935501 -0.01513460
v -0.00644947 -0.04346054 -0.01968052
v -0.00927576 -0.04009922 -0.02136449
v -0.00920354 -0.04201704 -0.02029784
v -0.00927576 -0.04193500 -0.02033630
v -0.00927576 -0.04061714 -0.02109328
v -0.00800794 -0.04341182 -0.01954694
v -0.00016746 -0.04341695 -0.01999424
v -0.00016746 -0.04369385 -0.01980601
v -0.00052855 -0.04481686 -0.01903284
v -0.00208078 -0.04481173 -0.01900653
v -0.00365529 -0.04481173 -0.01894378
v -0.00524407 -0.04481173 -0.01884663
v -0.00927576 -0.04940373 -0.01422177
v -0.00927576 -0.04910632 -0.01455168
v -0.00927576 -0.04846533 -0.01521556
v -0.00793127 -0.04831919 -0.01560214
v -0.00607412 -0.04778845 -0.01634698
v -0.00336910 -0.04773461 -0.01661819
v -0.00203174 -0.04866788 -0.01579645
v -0.00016746 -0.04958834 -0.01488362
v -0.00066496 -0.04831150 -0.01616077
v -0.00016746 -0.04838841 -0.01608183
v -0.00016746 -0.04908837 -0.01538962
v -0.00723762 -0.04422203 -0.01907939
v -0.00927576 -0.04201704 -0.02028772
v -0.00927576 -0.04224267 -0.02014402
v -0.00927576 -0.04341182 -0.01938704
v -0.00016746 -0.04481686 -0.01903081
v -0.00016746 -0.04529888 -0.01866649
v -0.00102070 -0.04620907 -0.01796619
v -0.00278155 -0.04667827 -0.01754317
v -0.00416884 -0.04621164 -0.01784272
v -0.00701116 -0.04486301 -0.01864018
v -0.00576653 -0.04650136 -0.01749257
v -0.00927576 -0.04754488 -0.01611624
v -0.00769678 -0.04695517 -0.01689144
v -0.00466187 -0.04738592 -0.01682869
v -0.00188641 -0.04755770 -0.01682262
v -0.00016746 -0.04754488 -0.01685500
v -0.00927576 -0.04382718 -0.01909558
v -0.00844748 -0.04475019 -0.01855315
v -0.00016746 -0.04621420 -0.01796619
v -0.00016746 -0.04751155 -0.01688334
v -0.00818091 -0.04550143 -0.01802083
v -0.00738830 -0.04620907 -0.01755531
v -0.00927576 -0.04731669 -0.01632471
v -0.00927576 -0.04607318 -0.01740958
v -0.00927576 -0.04488095 -0.01833051
v -0.00927576 -0.04527580 -0.01803095
v -0.00927576 -0.04602703 -0.01744601
f 1 2 7
f 1 7 13
f 1 13 24
f 1 24 39
f 1 39 62
f 1 62 64
f 1 64 63
f 1 63 40
f 1 40 26
f 1 26 14
f 1 14 8
f 1 8 3
f 1 3 4
f 1 4 5
f 1 5 10
f 1 10 19
f 1 19 32
f 1 32 53
f 1 53 71
f 1 71 88
f 1 88 87
f 1 87 107
f 1 107 106
f 1 106 128
f 1 128 127
f 1 127 145
f 1 145 146
f 1 146 164
f 1 164 167
f 1 167 166
f 1 166 187
f 1 187 188
f 1 188 189
f 1 189 202
f 1 202 210
f 1 210 211
f 1 211 212
f 1 212 209
f 1 209 208
f 1 208 197
f 1 197 177
f 1 177 176
f 1 176 175
f 1 175 154
f 1 154 136
f 1 136 116
f 1 116 115
f 1 115 114
f 1 114 113
f 1 113 93
f 1 93 76
f 1 76 54
f 1 54 33
f 1 33 20
f 1 20 11
f 1 11 6
f 1 6 2
f 2 6 7
f 3 8 15
f 3 15 27
f 3 27 43
f 3 43 66
f 3 66 83
f 3 83 102
f 3 102 101
f 3 101 100
f 3 100 122
f 3 122 121
f 3 121 141
f 3 141 140
f 3 140 139
f 3 139 159
f 3 159 161
f 3 161 182
f 3 182 185
f 3 185 184
f 3 184 201
f 3 201 205
f 3 205 204
f 3 204 191
f 3 191 190
f 3 190 170
f 3 170 169
f 3 169 150
f 3 150 149
f 3 149 132
f 3 132 131
f 3 131 109
f 3 109 108
f 3 108 89
f 3 89 72
f 3 72 50
f 3 50 29
f 3 29 17
f 3 17 9
f 3 9 4
f 4 9 16
f 4 16 28
f 4 28 31
f 4 31 18
f 4 18 10
f 4 10 5
f 6 11 12
f 6 12 7
f 7 12 13
f 8 14 15
f 9 17 16
f 10 18 19
f 11 20 21
f 11 21 12
f 12 21 22
f 12 22 23
f 12 23 13
f 13 23 24
f 14 25 15
f 14 26 25
f 15 25 27
f 16 17 28
f 17 29 30
f 17 30 28
f 18 31 32
f 18 32 19
f 20 33 34
f 20 34 21
f 21 34 35
f 21 35 36
f 21 36 22
f 22 36 37
f 22 37 38
f 22 38 23
f 23 38 39
f 23 39 24
f 25 26 40
f 25 40 41
f 25 41 42
f 25 42 27
f 27 42 43
f 28 30 44
f 28 44 45
f 28 45 46
f 28 46 47
f 28 47 48
f 28 48 49
f 28 49 31
f 29 50 30
f 30 50 51
f 30 51 52
f 30 52 44
f 31 49 53
f 31 53 32
f 33 54 34
f 34 54 55
f 34 55 35
f 35 56 36
f 35 55 57
f 35 57 56
f 36 56 58
f 36 58 37
f 37 58 59
f 37 59 60
f 37 60 38
f 38 60 61
f 38 61 39
f 39 61 62
f 40 63 41
f 41 63 64
f 41 64 61
f 41 61 42
f 42 61 60
f 42 60 65
f 42 65 43
f 43 65 66
f 44 52 45
f 45 52 67
f 45 67 46
f 46 67 68
f 46 68 69
f 46 69 48
f 46 48 47
f 48 70 49
f 48 69 70
f 49 70 71
f 49 71 53
f 50 72 73
f 50 73 51
f 51 73 74
f 51 74 52
f 52 74 75
f 52 75 67
f 54 76 55
f 55 76 77
f 55 77 57
f 56 78 58
f 56 57 79
f 56 79 78
f 57 77 80
f 57 80 79
f 58 78 81
f 58 81 59
f 59 65 60
f 59 81 82
f 59 82 65
f 61 64 62
f 65 82 66
f 66 82 83
f 67 75 84
f 67 84 68
f 68 84 85
f 68 85 86
f 68 86 69
f 69 87 70
f 69 86 87
f 70 87 88
f 70 88 71
f 72 89 73
f 73 89 108
f 73 108 90
f 73 90 91
f 73 91 74
f 74 91 75
f 75 91 92
f 75 92 84
f 76 93 77
f 77 93 94
f 77 94 95
f 77 95 80
f 78 79 96
f 78 96 97
f 78 97 81
f 79 80 98
f 79 98 96
f 80 95 99
f 80 99 98
f 81 100 101
f 81 101 82
f 81 97 100
f 82 101 102
f 82 102 83
f 84 92 103
f 84 103 85
f 85 104 86
f 85 103 105
f 85 105 104
f 86 104 106
f 86 106 107
f 86 107 87
f 90 108 109
f 90 109 110
f 90 110 91
f 91 110 111
f 91 111 92
f 92 111 112
f 92 112 103
f 93 113 94
f 94 114 115
f 94 115 116
f 94 116 117
f 94 117 95
f 94 113 114
f 95 117 118
f 95 118 99
f 96 119 97
f 96 98 119
f 97 119 120
f 97 120 121
f 97 121 122
f 97 122 100
f 98 99 123
f 98 123 124
f 98 124 119
f 99 118 125
f 99 125 123
f 103 112 126
f 103 126 105
f 104 127 128
f 104 128 106
f 104 105 129
f 104 129 127
f 105 126 130
f 105 130 129
f 109 131 110
f 110 131 132
f 110 132 133
f 110 133 111
f 111 133 134
f 111 134 112
f 112 134 135
f 112 135 126
f 116 136 117
f 117 136 137
f 117 137 118
f 118 137 138
f 118 138 125
f 119 124 120
f 120 139 140
f 120 140 141
f 120 141 121
f 120 124 139
f 123 125 142
f 123 142 143
f 123 143 124
f 124 143 139
f 125 138 142
f 126 135 144
f 126 144 130
f 127 129 145
f 129 146 145
f 129 130 147
f 129 147 146
f 130 144 148
f 130 148 147
f 132 149 133
f 133 149 150
f 133 150 151
f 133 151 134
f 134 151 152
f 134 152 135
f 135 152 153
f 135 153 144
f 136 154 137
f 137 154 155
f 137 155 156
f 137 156 138
f 138 156 157
f 138 157 158
f 138 158 142
f 139 143 159
f 142 158 160
f 142 160 143
f 143 161 159
f 143 160 162
f 143 162 161
f 144 153 163
f 144 163 148
f 146 147 164
f 147 148 165
f 147 165 166
f 147 166 167
f 147 167 164
f 148 163 168
f 148 168 165
f 150 169 151
f 151 169 170
f 151 170 171
f 151 171 172
f 151 172 152
f 152 172 173
f 152 173 153
f 153 173 174
f 153 174 163
f 154 175 155
f 155 175 176
f 155 176 177
f 155 177 156
f 156 177 178
f 156 178 179
f 156 179 157
f 157 179 180
f 157 180 158
f 158 180 181
f 158 181 160
f 160 181 162
f 161 162 182
f 162 181 183
f 162 183 184
f 162 184 185
f 162 185 182
f 163 186 168
f 163 174 186
f 165 187 166
f 165 168 188
f 165 188 187
f 168 186 189
f 168 189 188
f 170 190 171
f 171 190 191
f 171 191 192
f 171 192 172
f 172 192 193
f 172 193 173
f 173 193 194
f 173 194 174
f 174 195 186
f 174 194 196
f 174 196 195
f 177 197 178
f 178 197 198
f 178 198 179
f 179 198 196
f 179 196 199
f 179 199 180
f 180 199 193
f 180 193 200
f 180 200 181
f 181 200 183
f 183 200 201
f 183 201 184
f 186 202 189
f 186 195 203
f 186 203 202
f 191 204 192
f 192 204 205
f 192 205 200
f 192 200 193
f 193 199 194
f 194 199 196
f 195 206 203
f 195 196 207
f 195 207 206
f 196 198 207
f 197 208 198
f 198 209 207
f 198 208 209
f 200 205 201
f 202 203 210
f 203 206 211
f 203 211 210
f 206 207 209
f 206 209 212
f 206 212 211

