# https://github.com/mikedh/trimesh
v 0.05802912 0.00001843 0.00348905
v 0.05803261 -0.00047720 0.00348905
v 0.05800299 0.00001843 0.00330811
v 0.04775031 0.00001843 0.00348905
v 0.05802215 -0.00083467 0.00348905
v 0.05800473 -0.00048583 0.00330694
v 0.05783400 0.00001843 0.00232939
v 0.04429210 0.00001843 -0.00251136
v 0.04023458 -0.01762036 -0.00251136
v 0.04418931 -0.01762036 0.00348905
v 0.05798209 -0.00208323 0.00348905
v 0.05783226 -0.00157379 0.00244806
v 0.05782877 -0.00001783 0.00230295
v 0.05782355 0.00001843 0.00227417
v 0.05666674 0.00001843 -0.00251136
v 0.05370331 -0.01762036 -0.00251136
v 0.05514235 -0.01762036 0.00348905
v 0.05796118 -0.00268938 0.00348905
v 0.05785491 -0.00281545 0.00285870
v 0.05751518 -0.00281545 0.00115739
v 0.05757616 -0.00141664 0.00118676
v 0.05760229 -0.00001611 0.00120027
v 0.05760229 0.00001843 0.00120027
v 0.05672249 0.00001843 -0.00232455
v 0.05666674 -0.00005065 -0.00251136
v 0.05397857 -0.01681389 -0.00251136
v 0.05375209 -0.01762036 -0.00235333
v 0.05507963 -0.01762036 0.00310779
v 0.05537580 -0.01681216 0.00324643
v 0.05541412 -0.01681216 0.00348905
v 0.05785839 -0.00416936 0.00348905
v 0.05774515 -0.00421944 0.00277645
v 0.05741239 -0.00421598 0.00109923
v 0.05710403 -0.00281718 -0.00058505
v 0.05716152 -0.00141664 -0.00056743
v 0.05718243 -0.00001611 -0.00055685
v 0.05759184 0.00001843 0.00115504
v 0.05672249 -0.00001611 -0.00232455
v 0.05718243 0.00001843 -0.00055626
v 0.05664235 -0.00141491 -0.00251136
v 0.05417195 -0.01620255 -0.00251136
v 0.05414408 -0.01681389 -0.00196737
v 0.05382352 -0.01762036 -0.00211541
v 0.05493154 -0.01762036 0.00238226
v 0.05502562 -0.01681561 0.00153278
v 0.05550123 -0.01541680 0.00174897
v 0.05582527 -0.01541680 0.00344793
v 0.05583224 -0.01541680 0.00348905
v 0.05780438 -0.00482386 0.00348905
v 0.05761449 -0.00561652 0.00273592
v 0.05726779 -0.00561652 0.00103402
v 0.05699601 -0.00421598 -0.00063322
v 0.05663887 -0.00281718 -0.00235510
v 0.05669462 -0.00141664 -0.00232925
v 0.05659706 -0.00268766 -0.00251136
v 0.05445767 -0.01529247 -0.00251136
v 0.05465105 -0.01541680 -0.00173355
v 0.05460750 -0.01682079 -0.00021729
v 0.05429565 -0.01762036 -0.00035535
v 0.05472074 -0.01762036 0.00139002
v 0.05510576 -0.01541335 0.00003121
v 0.05555350 -0.01401282 0.00024093
v 0.05591238 -0.01401800 0.00193931
v 0.05584095 -0.01538572 0.00348905
v 0.05773295 -0.00561652 0.00348905
v 0.05756570 -0.00701533 0.00348905
v 0.05743156 -0.00701533 0.00266366
v 0.05708486 -0.00701533 0.00095412
v 0.05684619 -0.00561652 -0.00070196
v 0.05651692 -0.00421771 -0.00241208
v 0.05659183 -0.00281718 -0.00251136
v 0.05469983 -0.01445491 -0.00251136
v 0.05503433 -0.01397828 -0.00185222
v 0.05454304 -0.01762036 0.00064453
v 0.05551865 -0.01261401 -0.00132585
v 0.05594723 -0.01261228 0.00042599
v 0.05627650 -0.01261574 0.00211555
v 0.05618416 -0.01401454 0.00348905
v 0.05745421 -0.00775963 0.00348905
v 0.05719462 -0.00841413 0.00255439
v 0.05685141 -0.00841586 0.00084133
v 0.05641587 -0.00841931 -0.00091697
v 0.05665280 -0.00701533 -0.00079125
v 0.05630089 -0.00602753 -0.00251136
v 0.05635664 -0.00561824 -0.00248669
v 0.05634967 -0.00561824 -0.00251136
v 0.05648556 -0.00421944 -0.00251136
v 0.05483050 -0.01398864 -0.00251136
v 0.05500820 -0.01329787 -0.00251136
v 0.05545245 -0.01133090 -0.00251136
v 0.05585838 -0.01121347 -0.00116371
v 0.05518590 -0.01256393 -0.00251136
v 0.05534444 -0.01184035 -0.00251136
v 0.05627998 -0.01121175 0.00058284
v 0.05660925 -0.01121347 0.00227593
v 0.05651169 -0.01261746 0.00348905
v 0.05735142 -0.00841586 0.00348905
v 0.05719462 -0.00927759 0.00348905
v 0.05691065 -0.00981467 0.00241340
v 0.05657092 -0.00981467 0.00070797
v 0.05614235 -0.00981639 -0.00104210
v 0.05598033 -0.00841931 -0.00251136
v 0.05618068 -0.00701705 -0.00251136
v 0.05569287 -0.01006852 -0.00251136
v 0.05709357 -0.00981812 0.00348905
v 0.05700298 -0.01027230 0.00348905
v 0.05681134 -0.01121693 0.00348905
v 0.05575907 -0.00969033 -0.00251136
f 1 2 3
f 1 3 7
f 1 7 14
f 1 14 23
f 1 23 37
f 1 37 39
f 1 39 24
f 1 24 15
f 1 15 8
f 1 8 4
f 1 4 10
f 1 10 17
f 1 17 30
f 1 30 48
f 1 48 64
f 1 64 78
f 1 78 96
f 1 96 107
f 1 107 106
f 1 106 105
f 1 105 98
f 1 98 97
f 1 97 79
f 1 79 66
f 1 66 65
f 1 65 49
f 1 49 31
f 1 31 18
f 1 18 11
f 1 11 5
f 1 5 2
f 2 5 6
f 2 6 3
f 3 6 7
f 4 8 9
f 4 9 10
f 5 11 6
f 6 11 12
f 6 12 13
f 6 13 7
f 7 13 14
f 8 15 25
f 8 25 40
f 8 40 55
f 8 55 71
f 8 71 87
f 8 87 86
f 8 86 84
f 8 84 103
f 8 103 102
f 8 102 108
f 8 108 104
f 8 104 90
f 8 90 93
f 8 93 92
f 8 92 89
f 8 89 88
f 8 88 72
f 8 72 56
f 8 56 41
f 8 41 26
f 8 26 16
f 8 16 9
f 9 16 27
f 9 27 43
f 9 43 59
f 9 59 74
f 9 74 60
f 9 60 44
f 9 44 28
f 9 28 17
f 9 17 10
f 11 18 12
f 12 14 13
f 12 18 19
f 12 19 20
f 12 20 21
f 12 21 14
f 14 21 22
f 14 22 23
f 15 24 38
f 15 38 25
f 16 26 27
f 17 28 29
f 17 29 30
f 18 31 32
f 18 32 19
f 19 32 33
f 19 33 20
f 20 33 34
f 20 34 21
f 21 34 35
f 21 35 22
f 22 35 36
f 22 36 37
f 22 37 23
f 24 39 36
f 24 36 38
f 25 38 40
f 26 41 42
f 26 42 27
f 27 42 43
f 28 44 45
f 28 45 29
f 29 46 47
f 29 47 48
f 29 48 30
f 29 45 46
f 31 49 32
f 32 49 50
f 32 50 33
f 33 50 51
f 33 51 52
f 33 52 34
f 34 52 53
f 34 53 35
f 35 53 54
f 35 54 38
f 35 38 36
f 36 39 37
f 38 54 40
f 40 54 53
f 40 53 55
f 41 56 42
f 42 56 57
f 42 57 58
f 42 58 59
f 42 59 43
f 44 60 45
f 45 60 58
f 45 58 61
f 45 61 46
f 46 61 62
f 46 62 63
f 46 63 47
f 47 63 64
f 47 64 48
f 49 65 50
f 50 66 67
f 50 67 68
f 50 68 51
f 50 65 66
f 51 68 69
f 51 69 52
f 52 69 70
f 52 70 53
f 53 70 71
f 53 71 55
f 56 72 73
f 56 73 57
f 57 73 61
f 57 61 58
f 58 74 59
f 58 60 74
f 61 73 62
f 62 73 75
f 62 75 76
f 62 76 63
f 63 76 77
f 63 77 78
f 63 78 64
f 66 79 67
f 67 79 80
f 67 80 81
f 67 81 68
f 68 81 82
f 68 82 83
f 68 83 69
f 69 83 84
f 69 84 85
f 69 85 70
f 70 85 86
f 70 86 87
f 70 87 71
f 72 88 73
f 73 88 89
f 73 89 75
f 75 90 91
f 75 91 76
f 75 89 92
f 75 92 93
f 75 93 90
f 76 94 77
f 76 91 94
f 77 94 95
f 77 95 96
f 77 96 78
f 79 97 80
f 80 97 98
f 80 98 99
f 80 99 100
f 80 100 81
f 81 100 101
f 81 101 82
f 82 101 102
f 82 102 83
f 83 102 103
f 83 103 84
f 84 86 85
f 90 104 91
f 91 104 101
f 91 101 100
f 91 100 94
f 94 100 99
f 94 99 95
f 95 99 105
f 95 105 106
f 95 106 107
f 95 107 96
f 98 105 99
f 101 104 108
f 101 108 102

