# https://github.com/mikedh/trimesh
v -0.00016899 0.05562290 -0.00506101
v -0.00016899 0.05541452 -0.00566907
v -0.00050626 0.05535636 -0.00582656
v -0.00035518 0.05562048 -0.00506101
v -0.00016899 0.04158625 -0.00506101
v -0.00016899 0.05507771 -0.00655424
v -0.00236811 0.05554294 -0.00515072
v -0.00217430 0.05557928 -0.00506101
v -0.00086337 0.05561320 -0.00506101
v -0.00016899 0.05490325 -0.00700679
v -0.00177598 0.05510195 -0.00642067
v -0.01575820 0.03863984 -0.00506101
v -0.00016899 0.03086916 -0.01076478
v -0.00363631 0.05526914 -0.00574084
v -0.00395374 0.05548236 -0.00506101
v -0.00240932 0.05556959 -0.00506101
v -0.00016899 0.05482087 -0.00721612
v -0.00118385 0.05461007 -0.00768263
v -0.00304418 0.05481603 -0.00700879
v -0.01575820 0.03086916 -0.00930943
v -0.01575820 0.05327498 -0.00506101
v -0.00016899 0.03086916 -0.02542593
v -0.00549664 0.05534910 -0.00506101
v -0.00490604 0.05494445 -0.00633295
v -0.00016899 0.05445015 -0.00805345
v -0.00016899 0.05412546 -0.00875520
v -0.00059172 0.05402854 -0.00895058
v -0.00245205 0.05430234 -0.00827673
v -0.00431390 0.05447196 -0.00760089
v -0.01575820 0.03086916 -0.02446699
v -0.01542398 0.05337674 -0.00506101
v -0.01575820 0.05319502 -0.00530224
v -0.00016899 0.03218245 -0.02514283
v -0.00052457 0.03086916 -0.02542194
v -0.00231317 0.03218245 -0.02512888
v -0.00676484 0.05498806 -0.00565511
v -0.00704259 0.05514798 -0.00506101
v -0.00617423 0.05457615 -0.00692306
v -0.00016899 0.05354393 -0.00986366
v -0.00016899 0.05338401 -0.01016271
v -0.00186145 0.05368931 -0.00954668
v -0.00370193 0.05392677 -0.00888479
v -0.00558210 0.05408912 -0.00819499
v -0.01492647 0.03086916 -0.02458661
v -0.01575820 0.03218487 -0.02410614
v -0.01510655 0.03218729 -0.02420583
v -0.01476928 0.05356816 -0.00506101
v -0.01575820 0.05310779 -0.00554147
v -0.01429161 0.05334282 -0.00607776
v -0.00016899 0.03296509 -0.02496141
v -0.00186602 0.03086916 -0.02540599
v -0.00229334 0.03090308 -0.02539403
v -0.00365768 0.03086916 -0.02537409
v -0.00387744 0.03218245 -0.02508701
v -0.00247494 0.03358539 -0.02479195
v -0.00092136 0.03358539 -0.02481189
v -0.00803303 0.05459553 -0.00624921
v -0.00760267 0.05506318 -0.00506101
v -0.00744396 0.05416908 -0.00751716
v -0.00016899 0.05330648 -0.01030226
v -0.00126932 0.05299390 -0.01082260
v -0.00302434 0.05328225 -0.01019859
v -0.00498997 0.05352213 -0.00946095
v -0.00685183 0.05365539 -0.00878511
v -0.01482575 0.03086916 -0.02460057
v -0.01575820 0.03315650 -0.02382106
v -0.01345378 0.03218487 -0.02442712
v -0.01531411 0.03358539 -0.02376125
v -0.01365064 0.03358296 -0.02400248
v -0.01321876 0.05398008 -0.00506101
v -0.01302189 0.05388800 -0.00548167
v -0.01575820 0.05285094 -0.00623326
v -0.01243128 0.05356332 -0.00675360
v -0.01369948 0.05299875 -0.00734571
v -0.01555523 0.05274918 -0.00666189
v -0.00016899 0.03358539 -0.02481588
v -0.00231623 0.03086916 -0.02540001
v -0.00252378 0.03086916 -0.02539602
v -0.00508917 0.03086916 -0.02533422
v -0.00545238 0.03218729 -0.02503518
v -0.00403920 0.03358296 -0.02474411
v -0.00423149 0.03498590 -0.02434139
v -0.00265960 0.03498348 -0.02438924
v -0.00110144 0.03498590 -0.02442513
v -0.00016899 0.03498590 -0.02443111
v -0.00930123 0.05416665 -0.00683733
v -0.00989031 0.05452769 -0.00556340
v -0.00880219 0.05487903 -0.00506101
v -0.00858701 0.05491295 -0.00506101
v -0.00870910 0.05370385 -0.00810528
v -0.00016899 0.05276129 -0.01122132
v -0.00016899 0.05237845 -0.01185330
v -0.00067718 0.05222822 -0.01209055
v -0.00253751 0.05260137 -0.01140274
v -0.00439784 0.05288244 -0.01072890
v -0.00624138 0.05305932 -0.01005106
v -0.00812918 0.05317321 -0.00935529
v -0.01319434 0.03086916 -0.02479395
v -0.01575820 0.03358539 -0.02368748
v -0.01202534 0.03358781 -0.02419386
v -0.01183152 0.03218487 -0.02460057
v -0.01555065 0.03498348 -0.02324291
v -0.01388872 0.03498590 -0.02350208
v -0.01224052 0.03498590 -0.02372337
v -0.01211996 0.05423934 -0.00506101
v -0.01166975 0.05434111 -0.00506101
v -0.01116003 0.05407215 -0.00615551
v -0.01575820 0.05264257 -0.00676556
v -0.01057248 0.05368689 -0.00743343
v -0.01184220 0.05314898 -0.00802753
v -0.01310430 0.05255291 -0.00860768
v -0.01496920 0.05238330 -0.00793582
v -0.00531961 0.03086916 -0.02532625
v -0.00688998 0.03086916 -0.02525846
v -0.00703496 0.03218487 -0.02495144
v -0.00562331 0.03358781 -0.02467632
v -0.00581102 0.03498590 -0.02426364
v -0.00444515 0.03638884 -0.02388884
v -0.00287173 0.03638641 -0.02395064
v -0.00130747 0.03638641 -0.02398653
v -0.00016899 0.03595269 -0.02413206
v -0.01012838 0.05464399 -0.00506101
v -0.00970718 0.05471910 -0.00506101
v -0.01127297 0.05442107 -0.00506101
v -0.00997882 0.05320229 -0.00869938
v -0.00016899 0.05210707 -0.01227396
v -0.00016899 0.05145285 -0.01323688
v -0.00016899 0.05137289 -0.01335451
v -0.00194386 0.05186477 -0.01260690
v -0.00374772 0.05221853 -0.01191112
v -0.00566909 0.05239057 -0.01132699
v -0.00752942 0.05253837 -0.01064716
v -0.00938822 0.05263772 -0.00996932
v -0.01157666 0.03086916 -0.02493948
v -0.01575820 0.03478236 -0.02327680
v -0.01061063 0.03498590 -0.02390678
v -0.01040308 0.03358539 -0.02434937
v -0.01022300 0.03218729 -0.02474012
v -0.01575820 0.03498348 -0.02320303
v -0.01575820 0.03597450 -0.02280829
v -0.01415884 0.03638641 -0.02292791
v -0.01249385 0.03638399 -0.02317911
v -0.01085329 0.03638641 -0.02338844
v -0.01575820 0.05225730 -0.00766270
v -0.01124702 0.05264741 -0.00928750
v -0.01251064 0.05203196 -0.00987961
v -0.01437707 0.05190838 -0.00920576
v -0.01575820 0.05175815 -0.00870536
v -0.01575820 0.05196169 -0.00830464
v -0.00698765 0.03086916 -0.02525248
v -0.00862211 0.03218487 -0.02485575
v -0.00720741 0.03358539 -0.02458462
v -0.00739817 0.03498590 -0.02417393
v -0.00602773 0.03638641 -0.02380511
v -0.00468017 0.03778451 -0.02337249
v -0.00310065 0.03778208 -0.02344426
v -0.00153944 0.03778451 -0.02348214
v -0.00016899 0.03638399 -0.02399650
v -0.00016899 0.03778693 -0.02349610
v -0.00016899 0.03759793 -0.02356388
v -0.00016899 0.05133412 -0.01341033
v -0.00135478 0.05092221 -0.01393266
v -0.00321511 0.05133412 -0.01326679
v -0.00507543 0.05163943 -0.01259095
v -0.00693729 0.05185265 -0.01191511
v -0.00879762 0.05198834 -0.01124525
v -0.01065642 0.05205619 -0.01056143
v -0.01006887 0.03086916 -0.02506109
v -0.00899601 0.03498590 -0.02405630
v -0.00924934 0.03642034 -0.02354594
v -0.00879762 0.03358296 -0.02447696
v -0.01575820 0.03638641 -0.02264282
v -0.01446864 0.03778451 -0.02225606
v -0.01278839 0.03778451 -0.02254513
v -0.01113104 0.03778451 -0.02278636
v -0.00950115 0.03778693 -0.02297376
v -0.01195819 0.05137047 -0.01121734
v -0.01378647 0.05135351 -0.01047571
v -0.01564680 0.05120086 -0.00979787
v -0.01575820 0.05129535 -0.00956063
v -0.00761793 0.03638641 -0.02370144
v -0.00627343 0.03778451 -0.02326882
v -0.00496403 0.03918502 -0.02276244
v -0.00337687 0.03918260 -0.02285215
v -0.00181414 0.03918745 -0.02289801
v -0.00016899 0.03871011 -0.02311132
v -0.00025903 0.03918260 -0.02291396
v -0.00016899 0.05061206 -0.01434534
v -0.00041317 0.05069444 -0.01424765
v -0.00256651 0.05016380 -0.01479590
v -0.00448483 0.05077198 -0.01386886
v -0.00634516 0.05107728 -0.01318106
v -0.00820396 0.05127355 -0.01250921
v -0.01006429 0.05138985 -0.01182739
v -0.00787890 0.03778451 -0.02313724
v -0.01575820 0.03647364 -0.02260295
v -0.01575820 0.03778451 -0.02199489
v -0.01483338 0.03918745 -0.02148054
v -0.01313177 0.03918502 -0.02180749
v -0.01146220 0.03918502 -0.02207862
v -0.00981553 0.03918502 -0.02229593
v -0.00818870 0.03918745 -0.02247536
v -0.01130044 0.05079621 -0.01233975
v -0.01204518 0.05075986 -0.01213640
v -0.01319434 0.05072837 -0.01174365
v -0.01505467 0.05062660 -0.01106781
v -0.01575820 0.05113544 -0.00984971
v -0.00657560 0.03918987 -0.02263285
v -0.00529825 0.04058311 -0.02204673
v -0.00370499 0.04058553 -0.02215239
v -0.00213462 0.04058553 -0.02221220
v -0.00057646 0.04058311 -0.02223413
v -0.00016899 0.03918260 -0.02291396
v -0.00016899 0.04058553 -0.02223413
v -0.00016899 0.05016865 -0.01486568
v -0.00096104 0.04990938 -0.01515874
v -0.00198201 0.04938358 -0.01567908
v -0.00354780 0.04982942 -0.01509494
v -0.00575150 0.05017349 -0.01443904
v -0.00761335 0.05045699 -0.01377117
v -0.00947368 0.05064113 -0.01309932
v -0.01575820 0.03821823 -0.02177559
v -0.01575820 0.03918502 -0.02127121
v -0.01524543 0.04058553 -0.02059337
v -0.01352398 0.04058311 -0.02096419
v -0.01184678 0.04058796 -0.02126323
v -0.01018485 0.04059038 -0.02151642
v -0.00853665 0.04058553 -0.02172974
v -0.00690982 0.04058311 -0.02190319
v -0.01074035 0.04994572 -0.01368744
v -0.01257016 0.05001842 -0.01301359
v -0.01446406 0.04997965 -0.01233975
v -0.01575820 0.05020014 -0.01139477
v -0.01575820 0.05055875 -0.01081064
v -0.00568130 0.04198605 -0.02123133
v -0.00407583 0.04198121 -0.02135095
v -0.00249783 0.04198363 -0.02142671
v -0.00093968 0.04198605 -0.02146060
v -0.00016899 0.04107014 -0.02196698
v -0.00016899 0.04963073 -0.01545579
v -0.00016899 0.04866152 -0.01646656
v -0.00144787 0.04842891 -0.01664997
v -0.00231623 0.04822779 -0.01680946
v -0.00330057 0.04860821 -0.01638682
v -0.00546917 0.04896924 -0.01583259
v -0.00699833 0.04925516 -0.01530826
v -0.00888003 0.04976400 -0.01436328
v -0.01575820 0.04003793 -0.02078675
v -0.01575820 0.04058553 -0.02046379
v -0.01575820 0.04204420 -0.01953475
v -0.01397571 0.04198605 -0.02000525
v -0.01226799 0.04198605 -0.02035414
v -0.01058927 0.04198605 -0.02064321
v -0.00892733 0.04198363 -0.02088843
v -0.00729592 0.04198605 -0.02107982
v -0.01198108 0.04894501 -0.01455666
v -0.01386888 0.04922608 -0.01359773
v -0.01573226 0.04917762 -0.01292787
v -0.01575820 0.04989242 -0.01186726
v -0.00610708 0.04338657 -0.02032025
v -0.00450314 0.04338657 -0.02044983
v -0.00291294 0.04338657 -0.02054552
v -0.00134409 0.04338657 -0.02059537
v -0.00016899 0.04198605 -0.02146060
v -0.00016899 0.04292619 -0.02089042
v -0.00016899 0.04742577 -0.01759695
v -0.00114265 0.04755661 -0.01746736
v -0.00272522 0.04725858 -0.01767271
v -0.00485110 0.04782799 -0.01700484
v -0.00628716 0.04861790 -0.01608179
v -0.00825432 0.04848948 -0.01589239
v -0.01036493 0.04878751 -0.01514279
v -0.01575820 0.04352710 -0.01846019
v -0.01436334 0.04370398 -0.01871737
v -0.01274261 0.04337930 -0.01932542
v -0.01105168 0.04338657 -0.01965437
v -0.00936685 0.04337687 -0.01993547
v -0.00772018 0.04337687 -0.02015876
v -0.01141337 0.04815995 -0.01555946
v -0.01297305 0.04822537 -0.01506703
v -0.01513860 0.04835864 -0.01419183
v -0.01575820 0.04915824 -0.01293983
v -0.01575820 0.04917520 -0.01291790
v -0.01575820 0.04920670 -0.01287205
v -0.01575820 0.04833925 -0.01396655
v -0.00658170 0.04478466 -0.01930349
v -0.00496098 0.04478223 -0.01945900
v -0.00336161 0.04478223 -0.01957662
v -0.00178209 0.04477981 -0.01964640
v -0.00016899 0.04338414 -0.02060733
v -0.00023156 0.04478466 -0.01966833
v -0.00016899 0.04458355 -0.01980389
v -0.00016899 0.04688301 -0.01805548
v -0.00087558 0.04626998 -0.01856186
v -0.00227502 0.04617790 -0.01859177
v -0.00388659 0.04622152 -0.01846418
v -0.00583849 0.04706231 -0.01757502
v -0.00806203 0.04756630 -0.01681943
v -0.00948436 0.04766565 -0.01647653
v -0.01575820 0.04437032 -0.01780429
v -0.01522559 0.04500031 -0.01746337
v -0.01367048 0.04482827 -0.01802956
v -0.01156750 0.04477981 -0.01853595
v -0.00987963 0.04478223 -0.01884695
v -0.00826653 0.04483069 -0.01905828
v -0.01057859 0.04724162 -0.01665197
v -0.01273651 0.04721012 -0.01616752
v -0.01451900 0.04713500 -0.01573490
v -0.01575820 0.04785222 -0.01453075
v -0.00711432 0.04618275 -0.01815317
v -0.00547985 0.04618275 -0.01834855
v -0.00016899 0.04478466 -0.01966833
v -0.00016899 0.04486946 -0.01960653
v -0.00016899 0.04623363 -0.01858778
v -0.00895938 0.04660920 -0.01752518
v -0.01575820 0.04472893 -0.01752318
v -0.01575820 0.04502938 -0.01726800
v -0.01417257 0.04600102 -0.01691114
v -0.01246791 0.04606160 -0.01728993
v -0.01023216 0.04568118 -0.01807143
v -0.01575820 0.04668916 -0.01576082
v -0.01575820 0.04715439 -0.01528633
v -0.01543467 0.04650259 -0.01606185
v -0.01575820 0.04621909 -0.01621138
v -0.01575820 0.04652197 -0.01592629
f 1 2 3
f 1 3 4
f 1 4 9
f 1 9 8
f 1 8 16
f 1 16 15
f 1 15 23
f 1 23 37
f 1 37 58
f 1 58 89
f 1 89 88
f 1 88 123
f 1 123 122
f 1 122 124
f 1 124 106
f 1 106 105
f 1 105 70
f 1 70 47
f 1 47 31
f 1 31 21
f 1 21 12
f 1 12 5
f 1 5 13
f 1 13 22
f 1 22 33
f 1 33 50
f 1 50 76
f 1 76 85
f 1 85 121
f 1 121 158
f 1 158 160
f 1 160 159
f 1 159 186
f 1 186 213
f 1 213 214
f 1 214 239
f 1 239 264
f 1 264 265
f 1 265 290
f 1 290 292
f 1 292 312
f 1 312 313
f 1 313 314
f 1 314 293
f 1 293 266
f 1 266 241
f 1 241 240
f 1 240 215
f 1 215 188
f 1 188 161
f 1 161 128
f 1 128 127
f 1 127 126
f 1 126 92
f 1 92 91
f 1 91 60
f 1 60 40
f 1 40 39
f 1 39 26
f 1 26 25
f 1 25 17
f 1 17 10
f 1 10 6
f 1 6 2
f 2 6 3
f 3 7 8
f 3 8 9
f 3 9 4
f 3 6 10
f 3 10 11
f 3 11 7
f 5 12 13
f 7 11 14
f 7 14 15
f 7 15 16
f 7 16 8
f 10 17 11
f 11 17 18
f 11 18 19
f 11 19 14
f 12 20 13
f 12 21 32
f 12 32 48
f 12 48 72
f 12 72 108
f 12 108 144
f 12 144 149
f 12 149 148
f 12 148 180
f 12 180 207
f 12 207 234
f 12 234 233
f 12 233 259
f 12 259 284
f 12 284 283
f 12 283 282
f 12 282 285
f 12 285 309
f 12 309 322
f 12 322 321
f 12 321 325
f 12 325 324
f 12 324 317
f 12 317 316
f 12 316 300
f 12 300 273
f 12 273 250
f 12 250 249
f 12 249 248
f 12 248 223
f 12 223 222
f 12 222 197
f 12 197 196
f 12 196 172
f 12 172 140
f 12 140 139
f 12 139 135
f 12 135 99
f 12 99 66
f 12 66 45
f 12 45 30
f 12 30 20
f 13 20 30
f 13 30 44
f 13 44 65
f 13 65 98
f 13 98 134
f 13 134 168
f 13 168 150
f 13 150 114
f 13 114 113
f 13 113 79
f 13 79 53
f 13 53 78
f 13 78 77
f 13 77 51
f 13 51 34
f 13 34 22
f 14 23 15
f 14 19 24
f 14 24 23
f 17 25 18
f 18 25 26
f 18 26 27
f 18 27 28
f 18 28 19
f 19 28 29
f 19 29 24
f 21 31 32
f 22 34 35
f 22 35 33
f 23 24 36
f 23 36 37
f 24 29 38
f 24 38 36
f 26 39 27
f 27 39 40
f 27 40 41
f 27 41 28
f 28 41 42
f 28 42 29
f 29 42 43
f 29 43 38
f 30 45 46
f 30 46 44
f 31 47 32
f 32 47 49
f 32 49 48
f 33 35 50
f 34 51 52
f 34 52 35
f 35 52 53
f 35 53 54
f 35 54 55
f 35 55 56
f 35 56 50
f 36 38 57
f 36 57 37
f 37 57 58
f 38 43 59
f 38 59 57
f 40 60 61
f 40 61 41
f 41 62 42
f 41 61 62
f 42 62 63
f 42 63 43
f 43 63 64
f 43 64 59
f 44 46 65
f 45 66 46
f 46 67 65
f 46 66 68
f 46 68 69
f 46 69 67
f 47 70 71
f 47 71 49
f 48 49 72
f 49 71 73
f 49 73 74
f 49 74 75
f 49 75 72
f 50 56 76
f 51 77 52
f 52 77 78
f 52 78 53
f 53 79 54
f 54 80 81
f 54 81 55
f 54 79 80
f 55 81 82
f 55 82 83
f 55 83 84
f 55 84 56
f 56 84 85
f 56 85 76
f 57 59 86
f 57 86 87
f 57 87 88
f 57 88 89
f 57 89 58
f 59 64 90
f 59 90 86
f 60 91 61
f 61 91 92
f 61 92 93
f 61 93 94
f 61 94 62
f 62 94 95
f 62 95 63
f 63 95 96
f 63 96 64
f 64 96 97
f 64 97 90
f 65 67 98
f 66 99 68
f 67 69 100
f 67 100 101
f 67 101 98
f 68 99 102
f 68 102 103
f 68 103 69
f 69 103 104
f 69 104 100
f 70 105 71
f 71 105 106
f 71 106 107
f 71 107 73
f 72 75 108
f 73 107 109
f 73 109 110
f 73 110 74
f 74 110 111
f 74 111 112
f 74 112 75
f 75 112 108
f 79 113 80
f 80 113 114
f 80 114 115
f 80 115 116
f 80 116 81
f 81 116 82
f 82 116 117
f 82 117 118
f 82 118 119
f 82 119 83
f 83 119 84
f 84 119 120
f 84 120 121
f 84 121 85
f 86 90 109
f 86 109 107
f 86 107 87
f 87 122 123
f 87 123 88
f 87 107 124
f 87 124 122
f 90 97 125
f 90 125 109
f 92 126 93
f 93 126 127
f 93 127 128
f 93 128 129
f 93 129 94
f 94 129 130
f 94 130 95
f 95 130 131
f 95 131 96
f 96 131 132
f 96 132 97
f 97 132 133
f 97 133 125
f 98 101 134
f 99 135 102
f 100 104 136
f 100 136 137
f 100 137 101
f 101 137 138
f 101 138 134
f 102 139 140
f 102 140 141
f 102 141 103
f 102 135 139
f 103 141 142
f 103 142 104
f 104 142 143
f 104 143 136
f 106 124 107
f 108 112 144
f 109 125 110
f 110 125 145
f 110 145 111
f 111 145 146
f 111 146 147
f 111 147 112
f 112 147 148
f 112 148 149
f 112 149 144
f 114 150 151
f 114 151 115
f 115 151 152
f 115 152 116
f 116 152 153
f 116 153 117
f 117 153 154
f 117 154 118
f 118 154 155
f 118 155 156
f 118 156 119
f 119 156 157
f 119 157 120
f 120 158 121
f 120 157 159
f 120 159 160
f 120 160 158
f 125 133 145
f 128 161 129
f 129 161 162
f 129 162 163
f 129 163 130
f 130 163 164
f 130 164 131
f 131 164 165
f 131 165 132
f 132 165 166
f 132 166 133
f 133 166 167
f 133 167 145
f 134 138 168
f 136 169 137
f 136 143 170
f 136 170 169
f 137 169 171
f 137 171 138
f 138 151 168
f 138 171 151
f 140 172 141
f 141 172 173
f 141 173 174
f 141 174 142
f 142 174 175
f 142 175 143
f 143 175 176
f 143 176 170
f 145 167 146
f 146 167 177
f 146 177 178
f 146 178 147
f 147 178 179
f 147 179 180
f 147 180 148
f 150 168 151
f 151 171 152
f 152 171 153
f 153 171 169
f 153 169 181
f 153 181 154
f 154 181 182
f 154 182 155
f 155 182 183
f 155 183 184
f 155 184 156
f 156 184 185
f 156 185 157
f 157 185 159
f 159 185 187
f 159 187 186
f 161 188 189
f 161 189 162
f 162 189 190
f 162 190 163
f 163 190 191
f 163 191 164
f 164 191 192
f 164 192 165
f 165 192 193
f 165 193 166
f 166 193 194
f 166 194 167
f 167 194 177
f 169 170 181
f 170 176 195
f 170 195 181
f 172 196 173
f 173 196 197
f 173 197 198
f 173 198 199
f 173 199 174
f 174 199 200
f 174 200 175
f 175 200 201
f 175 201 176
f 176 201 202
f 176 202 195
f 177 194 203
f 177 203 204
f 177 204 205
f 177 205 178
f 178 205 206
f 178 206 179
f 179 206 207
f 179 207 180
f 181 195 182
f 182 195 208
f 182 208 183
f 183 208 209
f 183 209 210
f 183 210 184
f 184 210 211
f 184 211 185
f 185 211 212
f 185 212 187
f 186 187 213
f 187 212 214
f 187 214 213
f 188 215 189
f 189 215 216
f 189 216 190
f 190 216 217
f 190 217 218
f 190 218 191
f 191 218 219
f 191 219 192
f 192 219 220
f 192 220 193
f 193 220 221
f 193 221 194
f 194 221 203
f 195 202 208
f 197 222 198
f 198 223 224
f 198 224 225
f 198 225 199
f 198 222 223
f 199 225 226
f 199 226 200
f 200 226 227
f 200 227 201
f 201 227 228
f 201 228 202
f 202 228 229
f 202 229 208
f 203 221 230
f 203 230 231
f 203 231 204
f 204 231 205
f 205 231 232
f 205 232 206
f 206 232 233
f 206 233 234
f 206 234 207
f 208 229 209
f 209 229 235
f 209 235 236
f 209 236 210
f 210 236 237
f 210 237 211
f 211 237 238
f 211 238 212
f 212 238 214
f 214 238 239
f 215 240 216
f 216 240 241
f 216 241 217
f 217 241 242
f 217 242 243
f 217 243 244
f 217 244 218
f 218 244 245
f 218 245 219
f 219 245 246
f 219 246 220
f 220 246 247
f 220 247 221
f 221 247 230
f 223 248 224
f 224 248 249
f 224 249 250
f 224 250 251
f 224 251 225
f 225 251 252
f 225 252 226
f 226 252 253
f 226 253 227
f 227 253 254
f 227 254 228
f 228 254 255
f 228 255 229
f 229 255 235
f 230 247 256
f 230 256 231
f 231 256 257
f 231 257 232
f 232 257 258
f 232 258 259
f 232 259 233
f 235 255 260
f 235 260 261
f 235 261 236
f 236 261 262
f 236 262 237
f 237 262 263
f 237 263 238
f 238 264 239
f 238 263 265
f 238 265 264
f 241 266 267
f 241 267 242
f 242 267 243
f 243 267 268
f 243 268 269
f 243 269 244
f 244 269 245
f 245 269 270
f 245 270 246
f 246 270 271
f 246 271 272
f 246 272 247
f 247 272 256
f 250 273 274
f 250 274 251
f 251 274 275
f 251 275 252
f 252 275 276
f 252 276 253
f 253 276 277
f 253 277 254
f 254 277 278
f 254 278 255
f 255 278 260
f 256 272 279
f 256 279 280
f 256 280 281
f 256 281 257
f 257 281 258
f 258 282 283
f 258 283 284
f 258 284 259
f 258 281 285
f 258 285 282
f 260 278 286
f 260 286 287
f 260 287 261
f 261 287 288
f 261 288 262
f 262 288 289
f 262 289 263
f 263 290 265
f 263 289 291
f 263 291 292
f 263 292 290
f 266 293 294
f 266 294 267
f 267 294 268
f 268 294 295
f 268 295 296
f 268 296 269
f 269 296 297
f 269 297 298
f 269 298 270
f 270 298 271
f 271 298 299
f 271 299 272
f 272 299 279
f 273 300 274
f 274 300 301
f 274 301 302
f 274 302 275
f 275 302 303
f 275 303 276
f 276 303 304
f 276 304 277
f 277 304 305
f 277 305 278
f 278 305 286
f 279 299 306
f 279 306 307
f 279 307 280
f 280 307 308
f 280 308 281
f 281 308 309
f 281 309 285
f 286 305 310
f 286 310 311
f 286 311 287
f 287 311 296
f 287 296 288
f 288 296 295
f 288 295 289
f 289 295 294
f 289 294 291
f 291 312 292
f 291 294 313
f 291 313 312
f 293 314 294
f 294 314 313
f 296 311 297
f 297 315 298
f 297 311 310
f 297 310 315
f 298 315 299
f 299 315 306
f 300 316 301
f 301 316 317
f 301 317 318
f 301 318 302
f 302 318 319
f 302 319 303
f 303 319 320
f 303 320 304
f 304 320 315
f 304 315 310
f 304 310 305
f 306 315 320
f 306 320 319
f 306 319 307
f 307 319 318
f 307 318 308
f 308 321 322
f 308 322 309
f 308 318 323
f 308 323 321
f 317 324 318
f 318 324 323
f 321 323 325
f 323 324 325

