# https://github.com/mikedh/trimesh
v 0.02225573 0.01286272 -0.00845979
v 0.02225808 0.00747499 -0.00799888
v 0.02225690 0.01042815 -0.00845979
v 0.02225573 0.01286272 -0.00937707
v 0.01206192 0.01286272 -0.00845979
v 0.02222752 0.00638039 -0.00799841
v 0.02221695 0.00397366 -0.00799888
v 0.02225690 0.00397366 -0.00800029
v 0.02225808 0.00638039 -0.00800044
v 0.02225808 0.00747499 -0.00950202
v 0.01144258 0.00747499 -0.00799888
v 0.02225690 0.01042815 -0.00937707
v 0.01186096 0.01286272 -0.00937707
v 0.01025326 0.00626727 -0.00959984
v 0.01162944 0.01286272 -0.00850008
v 0.02218639 0.00470890 -0.00799841
v 0.01280935 0.00638039 -0.00799841
v 0.01252495 0.00397366 -0.00799856
v 0.02225808 0.00470890 -0.00888888
v 0.02225690 0.00397366 -0.00948759
v 0.02225808 0.00638039 -0.00950217
v 0.01048830 0.00569126 -0.00959984
v 0.01025326 0.00626727 -0.00906086
v 0.01144258 0.00457404 -0.00799856
v 0.01144375 0.00601929 -0.00799856
v 0.01158243 0.00637952 -0.00799856
v 0.01162944 0.01286272 -0.00914097
v 0.01025326 0.00546851 -0.00959984
v 0.01280935 0.00470890 -0.00799841
v 0.01149781 0.00397366 -0.00799856
v 0.02225808 0.00470890 -0.00950217
v 0.01158713 0.00397366 -0.00948759
v 0.01045892 0.00546851 -0.00959984
v 0.01025326 0.00546851 -0.00906086
v 0.01144258 0.00423991 -0.00799856
v 0.01144258 0.00397366 -0.00904753
v 0.01144258 0.00397366 -0.00800044
f 1 2 3
f 1 3 12
f 1 12 4
f 1 4 13
f 1 13 27
f 1 27 15
f 1 15 5
f 1 5 11
f 1 11 2
f 2 6 7
f 2 7 8
f 2 8 9
f 2 9 19
f 2 19 31
f 2 31 21
f 2 21 10
f 2 10 12
f 2 12 3
f 2 11 17
f 2 17 6
f 4 12 10
f 4 10 14
f 4 14 13
f 5 15 11
f 6 16 7
f 6 17 29
f 6 29 16
f 7 16 18
f 7 18 30
f 7 30 37
f 7 37 36
f 7 36 32
f 7 32 20
f 7 20 8
f 8 19 9
f 8 20 31
f 8 31 19
f 10 21 22
f 10 22 14
f 11 23 24
f 11 24 25
f 11 25 26
f 11 26 17
f 11 15 23
f 13 14 27
f 14 22 33
f 14 33 28
f 14 28 34
f 14 34 23
f 14 23 15
f 14 15 27
f 16 29 30
f 16 30 18
f 17 26 25
f 17 25 24
f 17 24 35
f 17 35 29
f 20 32 28
f 20 28 33
f 20 33 31
f 21 31 22
f 22 31 33
f 23 34 35
f 23 35 24
f 28 32 36
f 28 36 37
f 28 37 34
f 29 35 30
f 30 35 37
f 34 37 35

