# https://github.com/mikedh/trimesh
v 0.00950050 -0.01095520 -0.00850034
v 0.00950050 -0.01095520 -0.00799166
v 0.00950050 -0.00200398 -0.00850034
v 0.01000043 -0.01255037 -0.01069863
v 0.01000043 -0.01386651 -0.01069832
v 0.01000043 -0.01388873 -0.01069611
v 0.01117237 -0.01095520 -0.00799166
v 0.00950050 -0.00200398 -0.00799166
v 0.01000043 -0.01388873 -0.00850318
v 0.01237194 -0.01388749 -0.00850066
v 0.01343565 -0.01388749 -0.00850002
v 0.01000088 -0.00127677 -0.01069832
v 0.01000043 -0.01095643 -0.01069863
v 0.01002534 -0.01255037 -0.01070210
v 0.01189465 -0.00127677 -0.01094667
v 0.01020828 -0.01388873 -0.01072479
v 0.01199880 -0.01095520 -0.00799197
v 0.01204997 -0.01029836 -0.00799197
v 0.01117237 -0.00200398 -0.00799166
v 0.01404291 -0.01388749 -0.00850002
v 0.01300048 -0.00127554 -0.00799733
v 0.01199880 -0.00127677 -0.00800048
v 0.01000088 -0.00127677 -0.00854856
v 0.01237148 -0.01388873 -0.00850318
v 0.01204997 -0.00127554 -0.01096180
v 0.01023772 -0.00127677 -0.01073141
v 0.01391656 -0.00127554 -0.01116571
v 0.01204997 -0.00213486 -0.01096590
v 0.01404291 -0.01312201 -0.01121141
v 0.01404291 -0.01388873 -0.01121047
v 0.01412623 -0.01048850 -0.00799733
v 0.01335052 -0.01095643 -0.00799733
v 0.01412668 -0.00354359 -0.00799733
v 0.01204997 -0.00570300 -0.00799197
v 0.01199880 -0.00200398 -0.00799197
v 0.01412668 -0.00127554 -0.00799733
v 0.01404291 -0.01388873 -0.00916030
v 0.01412668 -0.01095396 -0.00906323
v 0.01412623 -0.01095643 -0.00800048
v 0.01204997 -0.00127554 -0.00800048
v 0.01412668 -0.00127554 -0.01118714
v 0.01412668 -0.01095396 -0.01120889
f 1 2 8
f 1 8 3
f 1 3 13
f 1 13 4
f 1 4 5
f 1 5 6
f 1 6 9
f 1 9 2
f 2 7 19
f 2 19 8
f 2 9 10
f 2 10 11
f 2 11 20
f 2 20 7
f 3 8 23
f 3 23 12
f 3 12 13
f 4 13 14
f 4 14 5
f 5 14 15
f 5 15 16
f 5 16 6
f 6 16 30
f 6 30 37
f 6 37 24
f 6 24 9
f 7 17 18
f 7 18 34
f 7 34 19
f 7 20 17
f 8 19 36
f 8 36 21
f 8 21 22
f 8 22 23
f 9 24 20
f 9 20 11
f 9 11 10
f 12 23 40
f 12 40 25
f 12 25 26
f 12 26 13
f 13 26 14
f 14 26 15
f 15 26 25
f 15 25 27
f 15 27 28
f 15 28 16
f 16 29 30
f 16 28 29
f 17 31 18
f 17 20 32
f 17 32 31
f 18 33 36
f 18 36 34
f 18 31 33
f 19 34 35
f 19 35 36
f 20 24 37
f 20 37 38
f 20 38 39
f 20 39 32
f 21 40 22
f 21 36 41
f 21 41 27
f 21 27 25
f 21 25 40
f 22 40 23
f 27 41 29
f 27 29 28
f 29 41 42
f 29 42 30
f 30 42 38
f 30 38 37
f 31 32 39
f 31 39 33
f 33 39 38
f 33 38 42
f 33 42 41
f 33 41 36
f 34 36 35

