# https://github.com/mikedh/trimesh
v 0.01734853 0.01386881 0.00849900
v 0.01588103 0.01386881 0.00849900
v 0.01588103 0.01386334 0.00850000
v 0.01734853 0.01350016 0.00849900
v 0.01734853 0.01386881 0.00336919
v 0.01486230 0.01386334 0.00850000
v 0.01588103 0.01386881 0.00740955
v 0.01588103 0.01350005 0.00850000
v 0.01730788 0.01330384 0.00819913
v 0.01734853 0.01330527 0.00799922
v 0.01734853 0.01330384 0.00336919
v 0.01588103 0.01386334 0.00336869
v 0.01588127 0.01386881 0.00336919
v 0.01486230 0.01350005 0.00850000
v 0.01486230 0.01386334 0.00336869
v 0.01588103 0.01330384 0.00819964
v 0.01734853 0.01330384 0.00792941
v 0.01588103 0.01330384 0.00336869
v 0.01486230 0.01330384 0.00819964
v 0.01486230 0.01330384 0.00336869
f 1 2 6
f 1 6 3
f 1 3 8
f 1 8 4
f 1 4 10
f 1 10 17
f 1 17 11
f 1 11 5
f 1 5 13
f 1 13 7
f 1 7 2
f 2 7 15
f 2 15 6
f 3 6 14
f 3 14 8
f 4 8 9
f 4 9 10
f 5 11 18
f 5 18 12
f 5 12 15
f 5 15 13
f 6 15 20
f 6 20 19
f 6 19 14
f 7 13 15
f 8 14 19
f 8 19 16
f 8 16 9
f 9 16 19
f 9 19 20
f 9 20 18
f 9 18 11
f 9 11 17
f 9 17 10
f 12 18 20
f 12 20 15

