# https://github.com/mikedh/trimesh
v 0.00487117 -0.00824523 0.01080364
v 0.00907475 -0.01205527 0.01080364
v 0.00907561 -0.01512209 0.00728481
v 0.00447822 -0.00824523 0.01064416
v 0.00292292 -0.00824523 0.01080364
v 0.00907475 -0.01319190 0.01080364
v 0.00907561 -0.01475719 0.01079089
v 0.00907561 -0.01460452 0.00839977
v 0.00907561 -0.01681488 0.00728481
v 0.00774931 -0.01475719 0.00728481
v 0.00114555 -0.01184640 0.00728550
v 0.00292119 -0.00824523 0.01002003
v 0.00292032 -0.00824523 0.01017227
v 0.00021393 -0.01347963 0.00728550
v 0.00207978 -0.01004791 0.01080364
v 0.00907475 -0.01441410 0.01080329
v 0.00610986 -0.01319190 0.01080364
v 0.00907475 -0.01474713 0.01080019
v 0.00907475 -0.01475719 0.01079124
v 0.00907561 -0.01522275 0.01035517
v 0.00907561 -0.01671086 0.00774912
v 0.00905219 -0.01670667 0.00774360
v 0.00891254 -0.01677546 0.00728481
v 0.00292986 -0.01475719 0.00728481
v 0.00292032 -0.00824523 0.01016642
v 0.00039522 -0.01357274 0.00728550
v 0.00033103 -0.01328418 0.00762374
v 0.00038395 -0.01319190 0.00775945
v 0.00058432 -0.01284798 0.00826750
v 0.00085757 -0.01236732 0.00886718
v 0.00096339 -0.01217774 0.00907212
v 0.00105708 -0.01201081 0.00925261
v 0.00161917 -0.01095722 0.01017882
v 0.00206590 -0.01007727 0.01078573
v 0.00209973 -0.01006972 0.01080364
v 0.00689142 -0.01367340 0.01080329
v 0.00582882 -0.01301910 0.01080364
v 0.00822119 -0.01475719 0.01039961
v 0.00907561 -0.01609851 0.00913137
v 0.00821078 -0.01475719 0.01039479
v 0.00676131 -0.01475719 0.00971038
v 0.00907475 -0.01609851 0.00913137
v 0.00889606 -0.01677126 0.00728481
v 0.00577764 -0.01541317 0.00821411
v 0.00740407 -0.01635603 0.00728481
v 0.00292986 -0.01475719 0.00728550
v 0.00287174 -0.01473454 0.00728550
v 0.00248227 -0.01456006 0.00728550
v 0.00576202 -0.01580910 0.00728481
v 0.00250395 -0.01382020 0.00838840
v 0.00126352 -0.01319190 0.00831090
v 0.00251696 -0.01319190 0.00901632
v 0.00252650 -0.01275654 0.00944894
v 0.00105360 -0.01201752 0.00924607
v 0.00158881 -0.01101761 0.01013783
v 0.00254992 -0.01146808 0.01033726
v 0.00400461 -0.01176251 0.01080364
v 0.00582274 -0.01346705 0.01050432
v 0.00537081 -0.01319190 0.01048124
v 0.00579759 -0.01456258 0.00944206
v 0.00621396 -0.01475719 0.00940382
v 0.00579325 -0.01475719 0.00916168
v 0.00253865 -0.01382859 0.00839977
v 0.00296456 -0.01475719 0.00731546
v 0.00331413 -0.01319190 0.00944688
f 1 2 3
f 1 3 4
f 1 4 12
f 1 12 25
f 1 25 13
f 1 13 5
f 1 5 15
f 1 15 35
f 1 35 57
f 1 57 37
f 1 37 17
f 1 17 6
f 1 6 2
f 2 6 7
f 2 7 8
f 2 8 3
f 3 8 7
f 3 7 20
f 3 20 39
f 3 39 21
f 3 21 9
f 3 9 23
f 3 23 43
f 3 43 45
f 3 45 49
f 3 49 24
f 3 24 10
f 3 10 11
f 3 11 12
f 3 12 4
f 5 13 14
f 5 14 15
f 6 16 7
f 6 17 16
f 7 16 18
f 7 18 19
f 7 19 20
f 9 21 22
f 9 22 23
f 10 24 11
f 11 24 14
f 11 14 12
f 12 14 25
f 13 25 14
f 14 26 27
f 14 27 28
f 14 28 15
f 14 24 26
f 15 28 29
f 15 29 30
f 15 30 31
f 15 31 32
f 15 32 33
f 15 33 34
f 15 34 35
f 16 17 36
f 16 36 18
f 17 37 36
f 18 36 19
f 19 36 38
f 19 38 20
f 20 38 40
f 20 40 41
f 20 41 42
f 20 42 39
f 21 39 42
f 21 42 22
f 22 43 23
f 22 42 44
f 22 44 45
f 22 45 43
f 24 46 47
f 24 47 48
f 24 48 26
f 24 49 46
f 26 48 50
f 26 50 27
f 27 50 51
f 27 51 29
f 27 29 28
f 29 51 52
f 29 52 53
f 29 53 30
f 30 54 31
f 30 53 54
f 31 54 32
f 32 55 33
f 32 54 53
f 32 53 56
f 32 56 55
f 33 55 34
f 34 55 56
f 34 56 35
f 35 56 57
f 36 37 58
f 36 58 38
f 37 59 58
f 37 57 56
f 37 56 59
f 38 58 40
f 40 58 60
f 40 60 41
f 41 60 61
f 41 61 42
f 42 61 62
f 42 62 44
f 44 49 45
f 44 62 63
f 44 63 64
f 44 64 49
f 46 49 64
f 46 64 47
f 47 64 48
f 48 64 63
f 48 63 50
f 50 63 51
f 51 63 52
f 52 63 60
f 52 60 65
f 52 65 53
f 53 65 58
f 53 58 59
f 53 59 56
f 58 65 60
f 60 62 61
f 60 63 62

