# https://github.com/mikedh/trimesh
v 0.01300027 -0.00127554 -0.00592167
v 0.01302013 -0.00127554 -0.00592167
v 0.01300027 -0.00127554 0.00336856
v 0.01299454 -0.00127507 0.00799886
v 0.01299454 0.00004202 0.00720408
v 0.01300027 -0.00000462 -0.00592167
v 0.01750322 -0.00127507 -0.00592167
v 0.01302013 -0.00127554 0.00336856
v 0.01299454 -0.00127507 0.00850000
v 0.01299454 0.00318969 0.00720408
v 0.01302013 0.00348912 -0.00592167
v 0.01299807 0.00318969 0.00336856
v 0.01750322 0.00348912 -0.00592167
v 0.01750322 -0.00127507 0.00189901
v 0.01746968 -0.00127507 0.00849859
v 0.01337276 -0.00127507 0.00850000
v 0.01299454 -0.00027466 0.00850000
v 0.01299454 0.00318969 0.00799886
v 0.01302013 0.00348912 0.00336856
v 0.01750322 0.00348912 0.00189901
v 0.01749704 0.00318969 0.00799886
v 0.01749483 0.00299894 0.00849859
v 0.01337276 -0.00112863 0.00850000
v 0.01299454 0.00299894 0.00849859
v 0.01749836 0.00348912 0.00336856
f 1 2 8
f 1 8 3
f 1 3 9
f 1 9 4
f 1 4 5
f 1 5 10
f 1 10 6
f 1 6 11
f 1 11 13
f 1 13 7
f 1 7 2
f 2 7 14
f 2 14 8
f 3 8 16
f 3 16 9
f 4 9 17
f 4 17 24
f 4 24 18
f 4 18 10
f 4 10 5
f 6 10 12
f 6 12 11
f 7 13 20
f 7 20 14
f 8 14 15
f 8 15 16
f 9 16 23
f 9 23 17
f 10 18 19
f 10 19 11
f 10 11 12
f 11 19 25
f 11 25 20
f 11 20 13
f 14 20 21
f 14 21 22
f 14 22 15
f 15 22 16
f 16 22 23
f 17 23 22
f 17 22 24
f 18 24 22
f 18 22 21
f 18 21 25
f 18 25 19
f 20 25 21

