# https://github.com/mikedh/trimesh
v 0.04444244 -0.00320985 -0.01156219
v 0.04444244 -0.00319849 -0.00960621
v 0.04444244 -0.00127554 -0.01155627
v 0.04445301 -0.00127554 -0.01155592
v 0.04526299 -0.00127554 -0.01148617
v 0.04488198 -0.00304418 -0.01152244
v 0.04530037 -0.00299987 -0.01148269
v 0.04799991 -0.00299987 -0.01119883
v 0.04829973 -0.00319338 -0.00849972
v 0.04829973 -0.00319338 -0.00800035
v 0.04561303 -0.00319338 -0.00800000
v 0.04444244 -0.00127554 -0.00960621
v 0.04550881 -0.00127554 -0.01146141
v 0.04795195 -0.00127554 -0.01120406
v 0.04799953 -0.00127554 -0.01119883
v 0.04829973 -0.00127554 -0.00850042
v 0.04829973 -0.00127554 -0.00800035
v 0.04561303 -0.00253314 -0.00800000
v 0.04561303 -0.00127554 -0.00800035
f 1 2 12
f 1 12 3
f 1 3 4
f 1 4 5
f 1 5 6
f 1 6 7
f 1 7 8
f 1 8 9
f 1 9 10
f 1 10 11
f 1 11 2
f 2 11 18
f 2 18 12
f 3 12 19
f 3 19 17
f 3 17 16
f 3 16 15
f 3 15 14
f 3 14 13
f 3 13 5
f 3 5 4
f 5 7 6
f 5 13 7
f 7 13 8
f 8 14 15
f 8 15 16
f 8 16 9
f 8 13 14
f 9 16 17
f 9 17 10
f 10 17 18
f 10 18 11
f 12 18 19
f 17 19 18

