# https://github.com/mikedh/trimesh
v 0.04630176 0.00375137 -0.00623692
v 0.04630137 0.00375386 -0.00449330
v 0.04630137 0.00802412 -0.00623692
v 0.04632660 0.00377715 -0.00798151
v 0.04632660 0.00377632 -0.00795421
v 0.04829727 0.00574843 -0.00798151
v 0.04823584 0.00568687 0.00030262
v 0.04630137 0.00375303 0.00030262
v 0.04630137 0.00375303 -0.00040145
v 0.04630137 0.01224863 -0.00623692
v 0.04632660 0.01222368 -0.00798151
v 0.04829981 0.00575674 -0.00798151
v 0.04829981 0.00575258 -0.00623692
v 0.04829981 0.00575092 -0.00040145
v 0.04829981 0.00575092 0.00030262
v 0.04829981 0.00575175 0.00197896
v 0.04808502 0.00553716 0.00197896
v 0.04691620 0.00553716 0.00197896
v 0.04630137 0.00553716 0.00159474
v 0.04630137 0.01224863 -0.00449428
v 0.04829981 0.01024742 -0.00798151
v 0.04632660 0.01222368 -0.00623692
v 0.04829981 0.01024991 -0.00623692
v 0.04829981 0.00800333 0.00197896
v 0.04630587 0.00612438 0.00197896
v 0.04630137 0.00612604 0.00196043
v 0.04630137 0.01224780 0.00194970
v 0.04639096 0.01215880 0.00016512
v 0.04829981 0.01024991 -0.00449428
v 0.04713725 0.00800333 0.00197896
v 0.04829981 0.01024825 0.00194970
v 0.04630137 0.00691954 0.00197896
v 0.04630137 0.00800083 0.00197896
v 0.04829981 0.01024908 -0.00040145
v 0.04805744 0.01049195 -0.00195491
f 1 2 3
f 1 3 4
f 1 4 5
f 1 5 6
f 1 6 7
f 1 7 8
f 1 8 9
f 1 9 2
f 2 9 8
f 2 8 19
f 2 19 26
f 2 26 32
f 2 32 33
f 2 33 27
f 2 27 20
f 2 20 10
f 2 10 3
f 3 10 11
f 3 11 4
f 4 6 5
f 4 11 21
f 4 21 12
f 4 12 6
f 6 12 13
f 6 13 14
f 6 14 7
f 7 14 15
f 7 15 16
f 7 16 8
f 8 16 17
f 8 17 18
f 8 18 19
f 10 20 22
f 10 22 11
f 11 22 29
f 11 29 23
f 11 23 21
f 12 21 23
f 12 23 29
f 12 29 34
f 12 34 31
f 12 31 24
f 12 24 16
f 12 16 15
f 12 15 14
f 12 14 13
f 16 24 30
f 16 30 33
f 16 33 32
f 16 32 25
f 16 25 18
f 16 18 17
f 18 25 19
f 19 25 26
f 20 27 28
f 20 28 22
f 22 28 29
f 24 31 27
f 24 27 30
f 25 32 26
f 27 33 30
f 27 31 28
f 28 31 34
f 28 34 35
f 28 35 29
f 29 35 34

