# https://github.com/mikedh/trimesh
v 0.01299905 -0.00000376 -0.00592167
v 0.00970097 0.00000103 -0.00546804
v 0.00988036 0.00000103 -0.00592031
v 0.01075939 0.00000103 -0.00592167
v 0.01301953 -0.00000376 -0.00592167
v 0.01299905 -0.00000376 0.00336755
v 0.00970292 0.00000069 0.00547496
v 0.00970032 0.00348924 -0.00592167
v 0.00970097 0.00332100 -0.00592167
v 0.00975069 0.00022911 -0.00592031
v 0.00970032 0.00000103 0.00336755
v 0.00970032 0.00056046 -0.00491088
v 0.00975069 0.00176001 -0.00592167
v 0.01301953 0.00348924 -0.00592167
v 0.01301985 0.00145773 -0.00492314
v 0.01301953 -0.00000376 0.00336755
v 0.01299711 0.00000001 0.00699796
v 0.01067847 0.00000035 0.00699932
v 0.00984168 0.00000069 0.00699932
v 0.00970032 0.00000103 0.00546951
v 0.00970000 0.00265181 -0.00492314
v 0.00970000 0.00348924 -0.00492314
v 0.00970000 0.00171727 0.00336755
v 0.00970000 0.00252427 -0.00479509
v 0.01301985 0.00348924 -0.00492314
v 0.01301985 0.00145773 0.00336755
v 0.01299418 0.00092327 0.00798423
v 0.01299418 0.00061756 0.00792293
v 0.01299711 0.00004138 0.00720366
v 0.01299418 0.00007660 0.00738075
v 0.01299418 0.00004104 0.00720366
v 0.01138137 0.00006122 0.00733988
v 0.00975589 0.00004651 0.00729629
v 0.00978254 0.00003181 0.00720366
v 0.00970585 0.00021372 0.00761506
v 0.00970227 0.00029408 0.00770633
v 0.00970032 0.00319038 0.00799513
v 0.00970000 0.00348924 0.00336755
v 0.01301985 0.00348924 0.00336755
v 0.01299418 0.00319038 0.00798423
v 0.01138105 0.00115716 0.00799513
v 0.01138072 0.00097080 0.00799513
v 0.01190164 0.00089967 0.00798423
v 0.01138137 0.00066031 0.00793792
v 0.00975557 0.00070305 0.00795290
v 0.00973672 0.00059773 0.00790658
v 0.01138137 0.00055191 0.00789024
v 0.01299418 0.00029306 0.00770633
v 0.01138137 0.00014362 0.00749654
v 0.01138137 0.00029340 0.00770633
v 0.00971592 0.00048523 0.00785618
v 0.00970227 0.00253042 0.00799513
v 0.01138072 0.00319038 0.00799513
v 0.01138105 0.00223600 0.00799513
v 0.00983291 0.00097080 0.00799513
v 0.01138137 0.00089967 0.00798423
f 1 2 3
f 1 3 4
f 1 4 13
f 1 13 9
f 1 9 8
f 1 8 14
f 1 14 5
f 1 5 16
f 1 16 6
f 1 6 7
f 1 7 2
f 2 8 9
f 2 9 10
f 2 10 3
f 2 7 11
f 2 11 12
f 2 12 8
f 3 10 13
f 3 13 4
f 5 14 25
f 5 25 15
f 5 15 26
f 5 26 16
f 6 16 17
f 6 17 18
f 6 18 19
f 6 19 7
f 7 20 11
f 7 19 20
f 8 12 21
f 8 21 22
f 8 22 38
f 8 38 39
f 8 39 25
f 8 25 14
f 9 13 10
f 11 23 12
f 11 20 23
f 12 23 24
f 12 24 21
f 15 25 39
f 15 39 26
f 16 26 27
f 16 27 28
f 16 28 29
f 16 29 17
f 17 29 30
f 17 30 31
f 17 31 32
f 17 32 33
f 17 33 34
f 17 34 18
f 18 34 19
f 19 34 20
f 20 34 33
f 20 33 35
f 20 35 36
f 20 36 37
f 20 37 23
f 21 24 23
f 21 23 38
f 21 38 22
f 23 37 38
f 26 39 40
f 26 40 27
f 27 40 54
f 27 54 41
f 27 41 42
f 27 42 43
f 27 43 28
f 28 44 45
f 28 45 46
f 28 46 47
f 28 47 48
f 28 48 29
f 28 43 44
f 29 48 30
f 30 49 32
f 30 32 31
f 30 48 49
f 32 49 35
f 32 35 33
f 35 49 48
f 35 48 50
f 35 50 36
f 36 50 51
f 36 51 52
f 36 52 37
f 37 52 55
f 37 55 42
f 37 42 41
f 37 41 54
f 37 54 53
f 37 53 39
f 37 39 38
f 39 53 40
f 40 53 54
f 42 55 56
f 42 56 43
f 43 56 45
f 43 45 44
f 45 51 46
f 45 56 55
f 45 55 52
f 45 52 51
f 46 51 47
f 47 51 48
f 48 51 50

