# https://github.com/mikedh/trimesh
v 0.01626833 -0.00401251 -0.00799718
v 0.01626833 -0.00401251 -0.00939843
v 0.01530287 -0.00401251 -0.00799718
v 0.01626833 -0.00491190 -0.00799718
v 0.03068840 -0.00585209 -0.00799759
v 0.03068539 -0.00491190 -0.00940983
v 0.03068840 -0.00491190 -0.01157787
v 0.01530287 -0.00401251 -0.00939843
v 0.03068840 -0.00491190 -0.01215042
v 0.02902107 -0.00491190 -0.01215735
v 0.01530137 -0.00585209 -0.00799759
v 0.01530287 -0.00491190 -0.00799718
v 0.03068840 -0.01095748 -0.00799759
v 0.01574870 -0.00491190 -0.01135716
v 0.01530287 -0.00491190 -0.01131114
v 0.01530137 -0.00585209 -0.00839666
v 0.02650577 -0.00491190 -0.01209260
v 0.02341209 -0.00491190 -0.01197939
v 0.02198424 -0.00491190 -0.01189062
v 0.02025667 -0.00491190 -0.01177537
v 0.01895533 -0.00491190 -0.01168782
v 0.01788746 -0.00491190 -0.01157787
v 0.03068840 -0.00585141 -0.01215042
v 0.02901504 -0.00787521 -0.01215735
v 0.02901806 -0.00585141 -0.01215735
v 0.02726789 -0.01095748 -0.01211744
v 0.02662475 -0.00585141 -0.01209667
v 0.01530137 -0.01095748 -0.00799759
v 0.03068840 -0.01095748 -0.01214879
v 0.01530287 -0.01095748 -0.01132010
v 0.01530137 -0.00984327 -0.01131481
v 0.01530137 -0.00895951 -0.01131114
v 0.01530137 -0.00858153 -0.01130951
v 0.01530137 -0.00787521 -0.01130503
v 0.02338950 -0.00585141 -0.01197817
v 0.02209419 -0.00585141 -0.01189795
v 0.01893124 -0.00585141 -0.01168619
v 0.03068840 -0.00858153 -0.01214961
v 0.02928314 -0.00858153 -0.01215613
v 0.02900751 -0.01095748 -0.01215613
v 0.02327352 -0.01095748 -0.01197043
v 0.02329762 -0.00984327 -0.01197247
v 0.01530137 -0.01095748 -0.00843739
v 0.02950304 -0.01095748 -0.01215409
v 0.01879417 -0.01095748 -0.01167398
v 0.02271022 -0.01095748 -0.01193623
v 0.02225084 -0.00716344 -0.01190772
f 1 2 8
f 1 8 3
f 1 3 12
f 1 12 4
f 1 4 13
f 1 13 5
f 1 5 6
f 1 6 7
f 1 7 9
f 1 9 2
f 2 9 10
f 2 10 8
f 3 8 16
f 3 16 11
f 3 11 28
f 3 28 12
f 4 12 28
f 4 28 13
f 5 13 29
f 5 29 38
f 5 38 23
f 5 23 9
f 5 9 7
f 5 7 6
f 8 14 15
f 8 15 16
f 8 10 17
f 8 17 18
f 8 18 19
f 8 19 20
f 8 20 21
f 8 21 22
f 8 22 14
f 9 23 10
f 10 23 24
f 10 24 25
f 10 25 26
f 10 26 27
f 10 27 17
f 11 16 34
f 11 34 33
f 11 33 32
f 11 32 31
f 11 31 43
f 11 43 28
f 13 28 43
f 13 43 30
f 13 30 45
f 13 45 46
f 13 46 41
f 13 41 26
f 13 26 40
f 13 40 44
f 13 44 29
f 14 30 15
f 14 22 30
f 15 30 31
f 15 31 32
f 15 32 33
f 15 33 34
f 15 34 16
f 17 27 18
f 18 27 35
f 18 35 36
f 18 36 19
f 19 36 20
f 20 36 37
f 20 37 21
f 21 37 30
f 21 30 22
f 23 38 39
f 23 39 24
f 24 40 26
f 24 26 25
f 24 39 40
f 26 41 42
f 26 42 35
f 26 35 27
f 29 44 39
f 29 39 38
f 30 43 31
f 30 37 45
f 35 42 46
f 35 46 47
f 35 47 36
f 36 47 37
f 37 47 45
f 39 44 40
f 41 46 42
f 45 47 46

