# https://github.com/mikedh/trimesh
v 0.03068840 -0.01095748 0.00799853
v 0.01798083 -0.01095748 0.00799853
v 0.01636856 -0.01282346 0.00849798
v 0.01659213 -0.01282346 0.00849596
v 0.03068697 -0.01350015 0.00849798
v 0.03068840 -0.01348829 0.00799853
v 0.03068840 -0.01095748 -0.01214948
v 0.01604897 -0.01282346 0.00849798
v 0.01659499 -0.01095748 0.00799448
v 0.02905750 -0.01350015 0.00850000
v 0.03068697 -0.01458316 0.00849798
v 0.03068697 -0.01599932 0.00849394
v 0.03068840 -0.01599932 -0.00606909
v 0.03068840 -0.01510168 -0.01214746
v 0.02900734 -0.01095748 -0.01215757
v 0.01604754 -0.01368799 0.00849798
v 0.01786618 -0.01358270 0.00850000
v 0.02101907 -0.01350015 0.00850000
v 0.01604754 -0.01095748 0.00793989
v 0.02443278 -0.01397567 0.00850000
v 0.02905750 -0.01599932 0.00849798
v 0.01798226 -0.01600723 -0.00618030
v 0.03068840 -0.01600723 -0.00849154
v 0.02899731 -0.01508883 -0.01215555
v 0.03068840 -0.01561328 -0.01204838
v 0.02848281 -0.01507894 -0.01214746
v 0.02778488 -0.01506559 -0.01213331
v 0.02770605 -0.01444327 -0.01213128
v 0.02738933 -0.01190901 -0.01212117
v 0.02726752 -0.01095748 -0.01211511
v 0.01604754 -0.01599834 0.00849798
v 0.02196350 -0.01399148 0.00850000
v 0.01604754 -0.01095748 -0.01139120
v 0.02101907 -0.01599932 0.00849798
v 0.01604754 -0.01600624 -0.00506411
v 0.01798226 -0.01600723 -0.01102116
v 0.01798226 -0.01599932 0.00849394
v 0.03068840 -0.01600723 -0.01190279
v 0.02898584 -0.01585400 -0.01200389
v 0.03068840 -0.01586636 -0.01199783
v 0.02777341 -0.01583077 -0.01198165
v 0.02774905 -0.01535921 -0.01207467
v 0.02769172 -0.01506312 -0.01213128
v 0.02604076 -0.01095797 -0.01207264
v 0.02604219 -0.01095748 -0.01207264
v 0.01729580 -0.01599883 0.00849798
v 0.01604754 -0.01599883 0.00799448
v 0.01798083 -0.01095748 -0.01158937
v 0.01604754 -0.01444476 -0.01140738
v 0.01604754 -0.01600624 -0.01059450
v 0.01864150 -0.01600723 -0.01112227
v 0.01729580 -0.01600674 -0.01087557
v 0.01785901 -0.01600674 -0.01100094
v 0.01729580 -0.01595187 -0.01095241
v 0.01729580 -0.01531274 -0.01137907
v 0.01798226 -0.01537107 -0.01144580
v 0.03031149 -0.01600723 -0.01190279
v 0.02898584 -0.01600723 -0.01190077
v 0.02848281 -0.01600723 -0.01188661
v 0.02777198 -0.01600723 -0.01186437
v 0.02769172 -0.01582830 -0.01197963
v 0.02318596 -0.01491928 -0.01196750
v 0.02400571 -0.01095748 -0.01199783
v 0.02162242 -0.01095748 -0.01186235
v 0.01879342 -0.01095797 -0.01167227
v 0.01604754 -0.01520746 -0.01125572
v 0.01729580 -0.01454955 -0.01153073
v 0.01729580 -0.01489704 -0.01146198
v 0.01604754 -0.01585252 -0.01082502
v 0.01865154 -0.01542742 -0.01151051
v 0.02162242 -0.01559598 -0.01171069
v 0.02315873 -0.01600723 -0.01159746
v 0.01798083 -0.01537058 -0.01144580
v 0.02769172 -0.01600723 -0.01186033
v 0.02437259 -0.01572252 -0.01185830
v 0.02162242 -0.01095797 -0.01186437
v 0.02270873 -0.01095748 -0.01193514
v 0.02327625 -0.01095748 -0.01196952
v 0.02316016 -0.01568297 -0.01181180
v 0.01869166 -0.01466670 -0.01166621
v 0.01895393 -0.01343787 -0.01168440
v 0.01798083 -0.01460689 -0.01159746
v 0.02437259 -0.01600723 -0.01166823
f 1 2 8
f 1 8 3
f 1 3 4
f 1 4 5
f 1 5 11
f 1 11 6
f 1 6 13
f 1 13 23
f 1 23 38
f 1 38 40
f 1 40 25
f 1 25 14
f 1 14 7
f 1 7 15
f 1 15 30
f 1 30 45
f 1 45 63
f 1 63 78
f 1 78 77
f 1 77 64
f 1 64 48
f 1 48 33
f 1 33 19
f 1 19 9
f 1 9 2
f 2 9 8
f 3 8 18
f 3 18 10
f 3 10 5
f 3 5 4
f 5 10 11
f 6 11 12
f 6 12 13
f 7 14 15
f 8 16 17
f 8 17 18
f 8 9 19
f 8 19 16
f 10 18 17
f 10 17 32
f 10 32 20
f 10 20 21
f 10 21 11
f 11 21 12
f 12 21 22
f 12 22 23
f 12 23 13
f 14 24 15
f 14 25 24
f 15 24 26
f 15 26 27
f 15 27 28
f 15 28 29
f 15 29 30
f 16 31 17
f 16 19 33
f 16 33 49
f 16 49 66
f 16 66 69
f 16 69 50
f 16 50 35
f 16 35 47
f 16 47 31
f 17 31 32
f 20 32 21
f 21 34 22
f 21 32 34
f 22 35 50
f 22 50 36
f 22 36 51
f 22 51 72
f 22 72 83
f 22 83 74
f 22 74 60
f 22 60 59
f 22 59 58
f 22 58 57
f 22 57 38
f 22 38 23
f 22 34 37
f 22 37 35
f 24 25 39
f 24 39 26
f 25 40 39
f 26 39 41
f 26 41 42
f 26 42 27
f 27 43 28
f 27 42 43
f 28 43 29
f 29 43 44
f 29 44 30
f 30 44 45
f 31 37 46
f 31 46 32
f 31 47 37
f 32 46 34
f 33 48 49
f 34 46 37
f 35 37 47
f 36 50 52
f 36 52 53
f 36 53 54
f 36 54 55
f 36 55 56
f 36 56 51
f 38 57 40
f 39 40 57
f 39 57 58
f 39 58 59
f 39 59 41
f 41 59 60
f 41 60 61
f 41 61 42
f 42 61 43
f 43 61 62
f 43 62 44
f 44 63 45
f 44 62 63
f 48 64 65
f 48 65 49
f 49 65 67
f 49 67 68
f 49 68 66
f 50 69 52
f 51 56 70
f 51 70 71
f 51 71 72
f 52 69 53
f 53 69 54
f 54 69 66
f 54 66 55
f 55 66 68
f 55 68 73
f 55 73 56
f 56 73 70
f 60 74 61
f 61 74 75
f 61 75 62
f 62 76 77
f 62 77 78
f 62 78 63
f 62 75 79
f 62 79 71
f 62 71 80
f 62 80 81
f 62 81 76
f 64 77 76
f 64 76 65
f 65 76 81
f 65 81 80
f 65 80 82
f 65 82 67
f 67 82 68
f 68 82 73
f 70 73 80
f 70 80 71
f 71 79 72
f 72 79 75
f 72 75 83
f 73 82 80
f 74 83 75

