# https://github.com/mikedh/trimesh
v 0.00326365 0.01420000 -0.00430627
v 0.00519118 0.01349883 -0.00421468
v 0.00647619 0.01399536 -0.00800041
v 0.00647619 0.01399751 -0.00856702
v 0.00647619 0.01399751 -0.00899962
v 0.00252536 0.01420000 -0.00479993
v -0.00326312 0.01420000 -0.00430627
v -0.00669818 0.01399967 -0.00425660
v 0.00519118 0.00364478 -0.00421365
v 0.00647914 0.01349883 -0.00662552
v 0.00358638 0.01349883 -0.00421468
v 0.00647914 0.01349668 -0.00781516
v 0.00647619 0.01349775 -0.00949897
v 0.00205526 0.01389519 -0.00910259
v -0.00000194 0.01399751 -0.00899962
v -0.00000194 0.01419892 -0.00550005
v 0.00210242 0.01419892 -0.00508194
v -0.00213873 0.01420000 -0.00505659
v -0.00252482 0.01420000 -0.00480044
v -0.00500054 0.01399967 -0.00753159
v -0.00604683 0.01399967 -0.00662552
v -0.00698849 0.01399967 -0.00580690
v -0.00798615 0.01399967 -0.00425660
v 0.00519118 0.00345522 -0.00421365
v 0.00418173 0.00364478 -0.00421365
v 0.00647914 0.00350045 -0.00662552
v 0.00358638 0.00319780 -0.00421468
v -0.00857560 0.01349775 -0.00425660
v 0.00647914 0.00350045 -0.00781516
v 0.00647619 0.00370186 -0.00949897
v 0.00354659 0.01294630 -0.00950000
v 0.00131255 0.01349668 -0.00950000
v 0.00001132 0.01349775 -0.00950000
v -0.00000194 0.01349775 -0.00950000
v -0.00260587 0.01399751 -0.00862498
v -0.00438014 0.01399967 -0.00781516
v -0.00526875 0.01349775 -0.00795228
v -0.00542790 0.01349883 -0.00781516
v -0.00679986 0.01349883 -0.00662552
v -0.00735543 0.01351176 -0.00612514
v 0.00499371 0.00319888 -0.00421365
v 0.00418173 0.00319888 -0.00421365
v 0.00647619 0.00320318 -0.00800041
v 0.00647619 0.00320103 -0.00899962
v 0.00418173 0.00319780 -0.00421468
v -0.00857560 0.00370079 -0.00425660
v -0.00798615 0.00320103 -0.00425660
v -0.00495633 0.00319780 -0.00425711
v 0.00266830 0.00319672 -0.00430679
v -0.00823961 0.01167429 -0.00477871
v -0.00736574 0.01349775 -0.00613445
v 0.00354659 0.00370079 -0.00949897
v -0.00000194 0.00370186 -0.00950000
v 0.00001132 0.00371371 -0.00950000
v 0.00354659 0.00696321 -0.00950000
v -0.00274587 0.01349775 -0.00910414
v -0.00386142 0.00916796 -0.00859548
v -0.00526875 0.00370186 -0.00795228
v -0.00542790 0.00916796 -0.00781516
v -0.00680134 0.01349775 -0.00662552
v 0.00358638 0.00319672 -0.00430679
v 0.00358638 0.00319672 -0.00480044
v 0.00099719 0.00319780 -0.00647132
v 0.00093087 0.00319780 -0.00648218
v 0.00086161 0.00319780 -0.00649253
v 0.00051088 0.00319780 -0.00653186
v 0.00015721 0.00319780 -0.00654790
v 0.00009237 0.00319780 -0.00654842
v 0.00354807 0.00320103 -0.00899962
v -0.00823961 0.01095050 -0.00477871
v -0.00736574 0.00370186 -0.00613445
v -0.00698996 0.00320103 -0.00580690
v -0.00481929 0.00319780 -0.00441856
v 0.00266830 0.00319672 -0.00480044
v 0.00001132 0.00320103 -0.00899910
v -0.00000194 0.00320211 -0.00899962
v -0.00260587 0.00320211 -0.00862498
v -0.00274587 0.00370186 -0.00910414
v -0.00500202 0.00320318 -0.00753159
v -0.00537927 0.00366955 -0.00781516
v -0.00680134 0.00370186 -0.00662552
v 0.00002458 0.00319780 -0.00654790
v -0.00604683 0.00320211 -0.00662552
v -0.00437867 0.00320211 -0.00781516
v -0.00324985 0.00320103 -0.00781516
v -0.00318207 0.00319780 -0.00571583
v -0.00379215 0.00319780 -0.00534274
v -0.00389531 0.00319780 -0.00526719
v -0.00427404 0.00319780 -0.00494637
v -0.00443319 0.00319780 -0.00480872
v -0.00452603 0.00319780 -0.00471765
v -0.00312017 0.00319780 -0.00574791
v -0.00269871 0.00319780 -0.00595075
v -0.00240840 0.00319780 -0.00607132
v -0.00202820 0.00319780 -0.00622759
v -0.00197220 0.00319780 -0.00624622
v -0.00190736 0.00319780 -0.00626692
v -0.00174674 0.00319780 -0.00631349
v -0.00122065 0.00319780 -0.00643199
v -0.00115433 0.00319780 -0.00644337
v -0.00109391 0.00319780 -0.00645217
f 1 2 3
f 1 3 4
f 1 4 5
f 1 5 6
f 1 6 18
f 1 18 19
f 1 19 7
f 1 7 23
f 1 23 8
f 1 8 2
f 2 9 10
f 2 10 3
f 2 8 23
f 2 23 11
f 2 11 25
f 2 25 9
f 3 10 4
f 4 10 5
f 5 10 12
f 5 12 13
f 5 13 14
f 5 14 15
f 5 15 16
f 5 16 17
f 5 17 6
f 6 17 16
f 6 16 18
f 7 19 20
f 7 20 21
f 7 21 22
f 7 22 23
f 9 24 26
f 9 26 10
f 9 25 42
f 9 42 41
f 9 41 24
f 10 26 29
f 10 29 12
f 11 27 42
f 11 42 25
f 11 23 28
f 11 28 46
f 11 46 27
f 12 29 30
f 12 30 13
f 13 30 55
f 13 55 31
f 13 31 32
f 13 32 33
f 13 33 14
f 14 33 34
f 14 34 15
f 15 34 35
f 15 35 16
f 16 35 18
f 18 35 36
f 18 36 20
f 18 20 19
f 20 37 38
f 20 38 21
f 20 36 37
f 21 38 39
f 21 39 22
f 22 39 40
f 22 40 28
f 22 28 23
f 24 41 26
f 26 41 43
f 26 43 44
f 26 44 29
f 27 45 41
f 27 41 42
f 27 46 47
f 27 47 48
f 27 48 49
f 27 49 61
f 27 61 45
f 28 50 70
f 28 70 46
f 28 40 51
f 28 51 50
f 29 44 30
f 30 44 52
f 30 52 53
f 30 53 54
f 30 54 55
f 31 55 54
f 31 54 53
f 31 53 34
f 31 34 33
f 31 33 32
f 34 53 78
f 34 78 56
f 34 56 35
f 35 56 36
f 36 56 37
f 37 56 57
f 37 57 58
f 37 58 59
f 37 59 38
f 38 59 81
f 38 81 60
f 38 60 39
f 39 60 51
f 39 51 40
f 41 45 61
f 41 61 44
f 41 44 43
f 44 61 62
f 44 62 63
f 44 63 64
f 44 64 65
f 44 65 66
f 44 66 67
f 44 67 68
f 44 68 69
f 44 69 52
f 46 70 71
f 46 71 72
f 46 72 47
f 47 72 48
f 48 72 73
f 48 73 74
f 48 74 49
f 49 74 62
f 49 62 61
f 50 51 71
f 50 71 70
f 51 60 81
f 51 81 71
f 52 69 53
f 53 69 75
f 53 75 76
f 53 76 77
f 53 77 78
f 56 78 57
f 57 78 58
f 58 79 80
f 58 80 81
f 58 81 59
f 58 78 77
f 58 77 79
f 62 74 68
f 62 68 67
f 62 67 66
f 62 66 65
f 62 65 64
f 62 64 63
f 68 74 82
f 68 82 75
f 68 75 69
f 71 81 72
f 72 81 83
f 72 83 79
f 72 79 84
f 72 84 85
f 72 85 86
f 72 86 87
f 72 87 88
f 72 88 89
f 72 89 90
f 72 90 91
f 72 91 73
f 73 91 74
f 74 91 90
f 74 90 89
f 74 89 88
f 74 88 87
f 74 87 86
f 74 86 92
f 74 92 93
f 74 93 94
f 74 94 95
f 74 95 96
f 74 96 97
f 74 97 98
f 74 98 99
f 74 99 100
f 74 100 101
f 74 101 82
f 75 82 101
f 75 101 100
f 75 100 99
f 75 99 98
f 75 98 97
f 75 97 96
f 75 96 95
f 75 95 85
f 75 85 77
f 75 77 76
f 77 85 84
f 77 84 79
f 79 83 80
f 80 83 81
f 85 95 94
f 85 94 93
f 85 93 92
f 85 92 86

