# https://github.com/mikedh/trimesh
v 0.00722038 0.01585828 0.00230132
v 0.00874615 0.01605879 0.00253787
v 0.00874615 0.01608255 0.00336807
v 0.00721911 0.01588911 0.00336807
v 0.00712314 0.01766641 -0.00340757
v 0.00721942 0.01587654 0.00185186
v 0.00721068 0.01609001 -0.00549941
v 0.00721720 0.01607371 -0.00568415
v 0.00735289 0.01600046 -0.00639832
v 0.00761679 0.01600046 -0.00699873
v 0.00769115 0.01600026 -0.00711813
v 0.00782891 0.01600026 -0.00731751
v 0.00833972 0.01600026 -0.00784132
v 0.00856629 0.01600026 -0.00800578
v 0.00871533 0.01600026 -0.00809702
v 0.00874631 0.01600026 -0.00811167
v 0.00874631 0.01600026 -0.00711813
v 0.00874631 0.01600046 -0.00696606
v 0.00874615 0.01758687 0.00336807
v 0.00874631 0.01634885 -0.00294685
v 0.00715364 0.01714893 0.00336807
v 0.00712473 0.01764500 -0.00232730
v 0.00712377 0.01765737 -0.00294685
v 0.00874615 0.01783825 -0.00177421
v 0.00874631 0.01786437 -0.00313948
v 0.00712806 0.01759473 -0.00549941
v 0.00722085 0.01753110 -0.00622260
v 0.00730347 0.01750341 -0.00649182
v 0.00754069 0.01744272 -0.00699985
v 0.00766986 0.01600046 -0.00708659
v 0.00763221 0.01742269 -0.00714516
v 0.00779697 0.01738911 -0.00736933
v 0.00832495 0.01729720 -0.00788074
v 0.00855644 0.01726382 -0.00804070
v 0.00865193 0.01725144 -0.00809702
v 0.00874631 0.01724143 -0.00813983
v 0.00714141 0.01738577 0.00336807
v 0.00874631 0.01786044 -0.00294685
v 0.00874631 0.01778601 -0.00515021
v 0.00874631 0.01773613 -0.00564697
v 0.00874631 0.01770942 -0.00585312
v 0.00874631 0.01764166 -0.00629356
v 0.00874631 0.01750714 -0.00710687
v 0.00761505 0.01742642 -0.00711813
v 0.00874631 0.01736869 -0.00768587
v 0.00874631 0.01730015 -0.00793594
v 0.00874631 0.01727030 -0.00804183
f 1 2 3
f 1 3 4
f 1 4 5
f 1 5 6
f 1 6 7
f 1 7 8
f 1 8 9
f 1 9 10
f 1 10 11
f 1 11 12
f 1 12 13
f 1 13 14
f 1 14 15
f 1 15 16
f 1 16 17
f 1 17 18
f 1 18 2
f 2 18 3
f 3 19 37
f 3 37 21
f 3 21 4
f 3 18 20
f 3 20 38
f 3 38 19
f 4 21 22
f 4 22 23
f 4 23 5
f 5 23 24
f 5 24 25
f 5 25 26
f 5 26 7
f 5 7 6
f 7 26 8
f 8 26 27
f 8 27 9
f 9 27 28
f 9 28 10
f 10 28 29
f 10 29 30
f 10 30 11
f 11 30 31
f 11 31 12
f 12 32 13
f 12 31 32
f 13 32 33
f 13 33 14
f 14 33 34
f 14 34 15
f 15 34 35
f 15 35 16
f 16 35 36
f 16 36 47
f 16 47 46
f 16 46 45
f 16 45 43
f 16 43 42
f 16 42 41
f 16 41 40
f 16 40 39
f 16 39 25
f 16 25 38
f 16 38 20
f 16 20 18
f 16 18 17
f 19 24 37
f 19 38 24
f 21 37 22
f 22 37 24
f 22 24 23
f 24 38 25
f 25 39 26
f 26 39 27
f 27 39 40
f 27 40 28
f 28 40 41
f 28 41 42
f 28 42 29
f 29 43 44
f 29 44 30
f 29 42 43
f 30 44 31
f 31 44 43
f 31 43 32
f 32 43 45
f 32 45 33
f 33 45 34
f 34 45 46
f 34 46 35
f 35 46 47
f 35 47 36

