# https://github.com/mikedh/trimesh
v 0.00949560 -0.00797879 0.00149985
v 0.00949560 -0.00795735 0.00149896
v 0.00890005 -0.00797879 0.00149955
v 0.00890005 -0.00799993 0.00149427
v 0.00890005 -0.00873102 0.00130959
v 0.00949560 -0.00873102 0.00130959
v 0.00949560 -0.00795207 0.00149779
v 0.00890000 -0.00723184 0.00128786
v 0.00890000 -0.00928771 0.00076847
v 0.00949560 -0.00928771 0.00076847
v 0.00949560 -0.00723184 0.00128786
v 0.00890000 -0.00669042 0.00073118
v 0.00890000 -0.00929652 0.00073793
v 0.00890005 -0.00949970 0.00002152
v 0.00949560 -0.00949940 0.00002152
v 0.00949560 -0.00669042 0.00073118
v 0.00890005 -0.00650016 -0.00002134
v 0.00890005 -0.00665166 -0.00055512
v 0.00890000 -0.00724975 -0.00001077
v 0.00890000 -0.00929622 0.00073764
v 0.00890005 -0.00802136 -0.00149966
v 0.00890005 -0.00949353 -0.00000138
v 0.00890011 -0.00930885 -0.00073099
v 0.00949560 -0.00930885 -0.00073099
v 0.00949560 -0.00935201 -0.00056070
v 0.00949560 -0.00949823 0.00001624
v 0.00949560 -0.00650016 -0.00002134
v 0.00949560 -0.00671244 -0.00076828
v 0.00890011 -0.00671244 -0.00076828
v 0.00890011 -0.00726913 -0.00130940
v 0.00890005 -0.00799993 -0.00149408
v 0.00949560 -0.00801549 -0.00149819
v 0.00949560 -0.00802136 -0.00149966
v 0.00890011 -0.00876831 -0.00128797
v 0.00949560 -0.00930562 -0.00073540
v 0.00949560 -0.00726913 -0.00130940
v 0.00949560 -0.00876831 -0.00128797
f 1 2 3
f 1 3 4
f 1 4 5
f 1 5 6
f 1 6 10
f 1 10 15
f 1 15 26
f 1 26 25
f 1 25 24
f 1 24 35
f 1 35 37
f 1 37 33
f 1 33 32
f 1 32 36
f 1 36 28
f 1 28 27
f 1 27 16
f 1 16 11
f 1 11 7
f 1 7 2
f 2 7 3
f 3 7 8
f 3 8 4
f 4 8 5
f 5 9 10
f 5 10 6
f 5 8 9
f 7 11 8
f 8 11 16
f 8 16 12
f 8 12 19
f 8 19 20
f 8 20 13
f 8 13 9
f 9 13 10
f 10 13 14
f 10 14 15
f 12 16 27
f 12 27 17
f 12 17 18
f 12 18 19
f 13 20 21
f 13 21 22
f 13 22 14
f 14 22 23
f 14 23 24
f 14 24 25
f 14 25 26
f 14 26 15
f 17 27 18
f 18 27 28
f 18 28 29
f 18 29 30
f 18 30 31
f 18 31 19
f 19 31 21
f 19 21 20
f 21 31 30
f 21 30 32
f 21 32 33
f 21 33 37
f 21 37 34
f 21 34 22
f 22 34 23
f 23 35 24
f 23 34 35
f 28 36 30
f 28 30 29
f 30 36 32
f 34 37 35

