# https://github.com/mikedh/trimesh
v 0.01162705 0.01327716 -0.00592167
v 0.01059344 0.01604252 -0.00715281
v 0.01059344 0.01599843 -0.00592313
v 0.01059382 0.01327716 -0.00592167
v 0.01162705 0.00747486 -0.00592167
v 0.01162762 0.01183982 -0.00849932
v 0.01162724 0.01327716 -0.00800423
v 0.00974797 0.01604252 -0.00702234
v 0.01059344 0.01604252 -0.00794533
v 0.00987282 0.01599843 -0.00592313
v 0.00975061 0.01579208 -0.00592313
v 0.00975061 0.01406550 -0.00592265
v 0.01025230 0.00747486 -0.00592167
v 0.01162762 0.00747310 -0.00849932
v 0.01144005 0.00000241 -0.00592167
v 0.01143986 -0.00127268 -0.00849980
v 0.01144042 -0.00127444 -0.00950409
v 0.01162762 0.01183982 -0.00937119
v 0.01162724 0.01327716 -0.00819798
v 0.00975061 0.01585205 -0.00603558
v 0.00974797 0.01604252 -0.00723702
v 0.00969791 0.00747486 -0.00773308
v 0.00969791 0.00747310 -0.00592265
v 0.00974815 0.01604252 -0.00794533
v 0.01162724 0.01310080 -0.00899927
v 0.01162724 0.01293502 -0.00911951
v 0.01129838 0.01274632 -0.00949922
v 0.01076892 0.01327716 -0.00949922
v 0.00975042 0.00297235 -0.00592216
v 0.01025211 0.00378537 -0.00592167
v 0.00975023 0.00266900 -0.00592216
v 0.01162762 0.00747310 -0.00937119
v 0.01025230 0.00000241 -0.00592167
v 0.01117144 -0.00197460 -0.00849932
v 0.01144042 -0.00127444 -0.01088516
v 0.01162724 0.01199678 -0.00937119
v 0.01144042 0.00377656 -0.01089441
v 0.00969791 0.00747310 -0.00899927
v 0.00969791 0.00747486 -0.00867165
v 0.00969791 0.00350143 -0.00592265
v 0.01059401 0.01327716 -0.00949922
v 0.00969791 0.00679234 -0.00959901
v 0.01149917 0.01199678 -0.00949922
v 0.01025211 0.00094242 -0.00592167
v 0.00975023 0.00093360 -0.00592216
v 0.01144042 -0.00070832 -0.01088662
v 0.01144042 0.00123166 -0.01089100
v 0.00975042 0.00022992 -0.00592216
v 0.00988000 0.00000241 -0.00592216
v 0.01000032 -0.00197460 -0.00849932
v 0.01117144 -0.00197460 -0.00854751
v 0.01000032 -0.00197460 -0.00854751
v 0.01023700 -0.00127444 -0.01073181
v 0.01103960 0.00344147 -0.01084183
v 0.01066654 0.00326511 -0.01079120
v 0.01039832 0.00312049 -0.01075421
v 0.00969791 0.00000241 -0.00799936
v 0.00970037 0.00332331 -0.00592265
v 0.01031841 0.00305347 -0.01074301
v 0.01018506 0.00290180 -0.01072451
v 0.01004792 0.00262668 -0.01070553
v 0.00969791 0.00422099 -0.00959901
v 0.01000014 0.00232157 -0.01069871
v 0.00975023 0.00010118 -0.00640118
v 0.01000032 -0.00127444 -0.01069871
v 0.00969791 0.00000241 -0.00849932
v 0.00969791 0.00370248 -0.00949922
f 1 2 3
f 1 3 10
f 1 10 4
f 1 4 13
f 1 13 30
f 1 30 44
f 1 44 33
f 1 33 15
f 1 15 5
f 1 5 14
f 1 14 6
f 1 6 7
f 1 7 2
f 2 8 3
f 2 7 19
f 2 19 9
f 2 9 24
f 2 24 21
f 2 21 8
f 3 8 10
f 4 10 11
f 4 11 12
f 4 12 13
f 5 15 16
f 5 16 17
f 5 17 14
f 6 18 19
f 6 19 7
f 6 14 32
f 6 32 18
f 8 11 20
f 8 20 10
f 8 21 39
f 8 39 22
f 8 22 23
f 8 23 11
f 9 19 25
f 9 25 26
f 9 26 27
f 9 27 28
f 9 28 41
f 9 41 24
f 10 20 11
f 11 23 12
f 12 23 29
f 12 29 13
f 13 29 31
f 13 31 30
f 14 17 35
f 14 35 32
f 15 33 50
f 15 50 34
f 15 34 16
f 16 34 17
f 17 34 51
f 17 51 35
f 18 36 26
f 18 26 25
f 18 25 19
f 18 32 37
f 18 37 36
f 21 24 38
f 21 38 39
f 22 39 38
f 22 38 42
f 22 42 62
f 22 62 67
f 22 67 66
f 22 66 57
f 22 57 40
f 22 40 23
f 23 40 45
f 23 45 31
f 23 31 29
f 24 41 42
f 24 42 38
f 26 36 27
f 27 36 43
f 27 43 37
f 27 37 28
f 28 37 41
f 30 31 45
f 30 45 44
f 32 35 46
f 32 46 47
f 32 47 37
f 33 44 45
f 33 45 48
f 33 48 49
f 33 49 50
f 34 50 52
f 34 52 51
f 35 51 52
f 35 52 53
f 35 53 46
f 36 37 43
f 37 54 55
f 37 55 56
f 37 56 41
f 37 47 53
f 37 53 54
f 40 57 58
f 40 58 48
f 40 48 45
f 41 56 59
f 41 59 60
f 41 60 61
f 41 61 42
f 42 61 63
f 42 63 62
f 46 53 47
f 48 58 57
f 48 57 64
f 48 64 50
f 48 50 49
f 50 64 57
f 50 57 66
f 50 66 52
f 52 65 53
f 52 66 65
f 53 65 61
f 53 61 56
f 53 56 55
f 53 55 54
f 56 61 60
f 56 60 59
f 61 65 63
f 62 63 65
f 62 65 67
f 65 66 67

