# https://github.com/mikedh/trimesh
v 0.03937364 0.01627905 -0.00685294
v 0.03937578 0.01599724 0.00190160
v 0.03937578 0.01599896 -0.00245655
v 0.03937364 0.01627905 -0.00811185
v 0.03206882 0.01627905 -0.00706276
v 0.02424160 0.01627217 -0.00700883
v 0.01751911 0.01599552 0.00190455
v 0.03344757 0.01599724 0.00190160
v 0.03937578 0.00584871 0.00190160
v 0.02225911 0.01599552 0.00190455
v 0.03937578 0.01599896 -0.00638624
v 0.03937578 0.01599552 -0.00684117
v 0.03937578 0.01461569 -0.00770692
v 0.03937364 0.01461569 -0.00811185
v 0.03808053 0.01627905 -0.00811185
v 0.03185044 0.01627905 -0.00769613
v 0.02424160 0.01627217 -0.00773241
v 0.01751911 0.01599724 -0.00348701
v 0.01750412 0.00349114 0.00189866
v 0.01751911 0.00585043 0.00190455
v 0.03937578 -0.00127382 0.00189768
v 0.02225911 0.00584871 0.00190455
v 0.03937578 -0.00032186 -0.00770692
v 0.03937364 -0.00127210 -0.00770692
v 0.02779339 -0.00127210 -0.00775104
v 0.03808053 0.01461569 -0.00811185
v 0.02424160 0.01553844 -0.00773241
v 0.01750412 0.00349114 -0.00592052
v 0.01751911 0.01599724 -0.00592052
v 0.01750412 0.00348599 0.00189866
v 0.01750412 -0.00127382 0.00189768
v 0.02225911 -0.00127382 0.00189866
v 0.03185258 -0.00127554 -0.00684117
v 0.03937578 -0.00127382 -0.00684117
v 0.03185258 -0.00127554 -0.00769613
v 0.02613846 -0.00127210 -0.00775104
v 0.02424374 -0.00127210 -0.00773241
v 0.01750412 -0.00127382 -0.00592052
v 0.03017410 -0.00127554 -0.00684117
v 0.03017410 -0.00127554 -0.00769613
v 0.02225911 -0.00127382 -0.00684117
f 1 2 3
f 1 3 11
f 1 11 4
f 1 4 15
f 1 15 16
f 1 16 5
f 1 5 6
f 1 6 7
f 1 7 8
f 1 8 2
f 2 9 21
f 2 21 34
f 2 34 23
f 2 23 13
f 2 13 12
f 2 12 11
f 2 11 3
f 2 8 7
f 2 7 10
f 2 10 22
f 2 22 9
f 4 11 12
f 4 12 13
f 4 13 23
f 4 23 14
f 4 14 26
f 4 26 15
f 5 16 6
f 6 17 29
f 6 29 18
f 6 18 7
f 6 16 17
f 7 19 30
f 7 30 20
f 7 20 22
f 7 22 10
f 7 18 19
f 9 22 21
f 14 24 25
f 14 25 36
f 14 36 26
f 14 23 24
f 15 26 27
f 15 27 17
f 15 17 16
f 17 27 38
f 17 38 28
f 17 28 29
f 18 29 28
f 18 28 19
f 19 28 38
f 19 38 31
f 19 31 30
f 20 30 31
f 20 31 32
f 20 32 22
f 21 33 35
f 21 35 34
f 21 22 32
f 21 32 33
f 23 34 24
f 24 35 25
f 24 34 35
f 25 35 40
f 25 40 36
f 26 36 37
f 26 37 27
f 27 37 38
f 31 38 40
f 31 40 39
f 31 39 32
f 32 39 33
f 33 39 40
f 33 40 35
f 36 40 37
f 37 40 41
f 37 41 38
f 38 41 40

