# https://github.com/mikedh/trimesh
v -0.00643317 0.00996931 -0.00303604
v -0.00643317 0.00996931 -0.00425615
v -0.00704135 0.00996931 -0.00303604
v -0.00643311 0.00938895 -0.00303604
v -0.00704135 0.00996931 -0.00425615
v -0.00643311 0.00938895 -0.00425615
v -0.00704183 0.00938895 -0.00303604
v -0.00643311 0.00835818 -0.00303604
v -0.00704183 0.00938895 -0.00425615
v -0.00643311 0.00835818 -0.00425615
v -0.00704183 0.00835818 -0.00303604
v -0.00704183 0.00835818 -0.00425615
f 1 2 5
f 1 5 3
f 1 3 7
f 1 7 11
f 1 11 8
f 1 8 4
f 1 4 6
f 1 6 2
f 2 6 10
f 2 10 12
f 2 12 9
f 2 9 5
f 3 5 9
f 3 9 7
f 4 8 10
f 4 10 6
f 7 9 12
f 7 12 11
f 8 11 12
f 8 12 10

