# https://github.com/mikedh/trimesh
v 0.05512700 -0.01570000 -0.00194319
v 0.05512700 -0.01570000 -0.00119306
v 0.05512700 -0.01421145 -0.00194319
v 0.05512766 -0.01419804 -0.00200483
v 0.05550099 -0.01350473 -0.00486324
v 0.05773042 -0.01350473 -0.00486324
v 0.06153709 -0.01349936 -0.00486454
v 0.05578314 -0.01569866 -0.00193994
v 0.05662231 -0.01570000 -0.00150064
v 0.05696525 -0.01570000 0.00110730
v 0.05512700 -0.01569866 0.00115077
v 0.05512700 -0.01421145 0.00115077
v 0.05512766 -0.00349793 -0.00200353
v 0.05512766 -0.01350204 -0.00200483
v 0.05550099 -0.00341211 -0.00486324
v 0.06082413 -0.01349802 -0.00486454
v 0.06079770 -0.01419804 0.00000027
v 0.05716480 -0.01569866 -0.00072325
v 0.06153709 -0.00350330 -0.00486454
v 0.06187672 -0.00341479 -0.00113595
v 0.06187672 -0.00341479 0.00112741
v 0.06153709 -0.01349802 -0.00404952
v 0.06079770 -0.01419804 0.00176334
v 0.05728837 -0.01570000 0.00021571
v 0.05626880 -0.01569866 0.00174906
v 0.05512766 -0.01349534 0.00176463
v 0.05512766 -0.00350464 0.00176463
v 0.05512766 -0.00349793 -0.00198666
v 0.05610493 -0.00220115 0.00176398
v 0.05550099 -0.00319888 -0.00486064
v 0.05550496 -0.00319888 -0.00486324
v 0.06082413 -0.00350196 -0.00486454
v 0.06187672 -0.00338126 -0.00100747
v 0.06187672 -0.00339870 -0.00107950
v 0.05966580 -0.00319888 -0.00486324
v 0.06078977 -0.00200134 -0.00200483
v 0.06085584 -0.00200134 -0.00187375
v 0.06097610 -0.00200134 -0.00146819
v 0.06187672 -0.00340406 0.00109886
v 0.06113601 -0.00200134 0.00056157
v 0.06178818 -0.00341479 0.00149794
v 0.06150868 -0.01349668 -0.00200483
v 0.05971932 -0.01419804 0.00176398
v 0.06172409 -0.00341479 0.00176398
v 0.05621264 -0.01419804 0.00176398
v 0.05621330 -0.01350204 0.00176463
v 0.05926075 -0.00200134 0.00176463
v 0.05658862 -0.00200134 0.00176398
v 0.05729828 -0.00200134 -0.00200483
v 0.06187672 -0.00325252 0.00002104
v 0.06187672 -0.00337858 0.00101321
v 0.06187672 -0.00335712 0.00092820
v 0.06187672 -0.00329678 0.00063230
v 0.06187672 -0.00325252 0.00016380
v 0.06187672 -0.00325118 0.00009177
v 0.06080298 -0.00200134 0.00176398
v 0.06162695 -0.00325789 0.00176398
v 0.05997174 -0.00341479 0.00176463
v 0.05729762 -0.01350204 0.00176463
v 0.05997174 -0.00200134 0.00176463
f 1 2 11
f 1 11 12
f 1 12 3
f 1 3 14
f 1 14 4
f 1 4 5
f 1 5 6
f 1 6 7
f 1 7 8
f 1 8 9
f 1 9 24
f 1 24 10
f 1 10 2
f 2 10 11
f 3 12 28
f 3 28 13
f 3 13 14
f 4 14 15
f 4 15 5
f 5 15 32
f 5 32 16
f 5 16 7
f 5 7 6
f 7 17 18
f 7 18 9
f 7 9 8
f 7 16 32
f 7 32 19
f 7 19 20
f 7 20 21
f 7 21 22
f 7 22 23
f 7 23 17
f 9 18 24
f 10 25 11
f 10 24 23
f 10 23 25
f 11 25 26
f 11 26 27
f 11 27 12
f 12 27 28
f 13 28 29
f 13 29 30
f 13 30 15
f 13 15 14
f 15 30 31
f 15 31 32
f 17 23 24
f 17 24 18
f 19 33 34
f 19 34 20
f 19 32 35
f 19 35 36
f 19 36 37
f 19 37 38
f 19 38 33
f 20 34 33
f 20 33 50
f 20 50 55
f 20 55 54
f 20 54 53
f 20 53 52
f 20 52 51
f 20 51 39
f 20 39 21
f 21 39 40
f 21 40 41
f 21 41 23
f 21 23 42
f 21 42 22
f 22 42 23
f 23 43 25
f 23 41 44
f 23 44 43
f 25 43 45
f 25 45 26
f 26 45 46
f 26 46 59
f 26 59 58
f 26 58 60
f 26 60 47
f 26 47 27
f 27 47 48
f 27 48 29
f 27 29 28
f 29 48 49
f 29 49 30
f 30 49 31
f 31 49 36
f 31 36 35
f 31 35 32
f 33 38 40
f 33 40 50
f 36 49 48
f 36 48 47
f 36 47 60
f 36 60 56
f 36 56 40
f 36 40 38
f 36 38 37
f 39 51 40
f 40 52 53
f 40 53 54
f 40 54 55
f 40 55 50
f 40 56 57
f 40 57 41
f 40 51 52
f 41 57 44
f 43 44 58
f 43 58 59
f 43 59 46
f 43 46 45
f 44 57 60
f 44 60 58
f 56 60 57

