# https://github.com/mikedh/trimesh
v 0.02225808 -0.00127382 -0.01190646
v 0.02349633 -0.00127210 -0.01198245
v 0.02326008 -0.00127382 -0.01196788
v 0.03483497 -0.00127554 -0.01211517
v 0.02225808 -0.00127382 -0.00771772
v 0.02225808 0.01495077 -0.01190230
v 0.02326008 0.01498513 -0.01196423
v 0.02326008 -0.00027718 -0.01196788
v 0.02424196 -0.00127210 -0.01201004
v 0.02613872 -0.00127382 -0.01207718
v 0.02385658 0.01498513 -0.01200015
v 0.02387669 0.01542503 -0.01200119
v 0.02402246 0.01542159 -0.01200795
v 0.02409451 0.01498513 -0.01201108
v 0.02424196 0.01310183 -0.01201628
v 0.03483497 -0.00127554 -0.00769638
v 0.03017016 -0.00127382 -0.01215108
v 0.03125928 -0.00127382 -0.01214744
v 0.03259137 -0.00127382 -0.01214223
v 0.03411112 -0.00127382 -0.01213547
v 0.03418317 -0.00127382 -0.01213391
v 0.03483497 -0.00127210 -0.01211621
v 0.03486513 -0.00127554 -0.01211413
v 0.02225976 -0.00127210 -0.00684176
v 0.02225808 0.01495249 -0.00771668
v 0.02225808 0.01548174 -0.01190178
v 0.02524564 -0.00127038 -0.01204647
v 0.02605326 -0.00127038 -0.01207561
v 0.02885316 -0.00127210 -0.01215160
v 0.02903244 -0.00127210 -0.01215629
v 0.02225808 0.01624812 -0.01174928
v 0.02390015 0.01618969 -0.01184973
v 0.02399565 0.01554360 -0.01198297
v 0.02406100 0.01554360 -0.01198505
v 0.02424196 0.01541816 -0.01201524
v 0.02907098 0.01534427 -0.01215837
v 0.03549012 -0.00127554 -0.00769638
v 0.02960884 -0.00127210 -0.01215473
v 0.03125091 0.00339320 -0.01214848
v 0.03347105 0.01057415 -0.01213859
v 0.03411782 0.01057415 -0.01213547
v 0.03418317 0.01057415 -0.01213391
v 0.03520024 0.00502734 -0.01210684
v 0.03761140 -0.00127210 -0.01201108
v 0.03549012 -0.00127554 -0.01209123
v 0.02424196 -0.00127210 -0.00684176
v 0.02225976 0.01599896 -0.00684176
v 0.02225808 0.01627733 -0.00771668
v 0.02225808 0.01627905 -0.01172846
v 0.02326008 0.01626702 -0.01177478
v 0.02390517 0.01627905 -0.01179040
v 0.02397722 0.01627905 -0.01179300
v 0.02405095 0.01627905 -0.01179560
v 0.02404592 0.01618626 -0.01185650
v 0.02424196 0.01618454 -0.01186222
v 0.02524564 0.01616907 -0.01189189
v 0.02908103 0.01610893 -0.01200535
v 0.03073650 0.01610206 -0.01199806
v 0.03185244 0.01575667 -0.01206104
v 0.03352467 0.01532537 -0.01213807
v 0.02982667 0.00258042 -0.01215421
v 0.03937578 -0.00127382 -0.00811275
v 0.03937411 -0.00127382 -0.00770835
v 0.03411950 0.01532365 -0.01213495
v 0.03418484 0.01532365 -0.01213339
v 0.03543482 0.01464318 -0.01210008
v 0.03536445 0.00786260 -0.01210216
v 0.03614192 0.01146081 -0.01207457
v 0.03885300 -0.00127210 -0.01195955
v 0.03614192 0.01532537 -0.01207613
v 0.03850448 0.01532880 -0.01197829
v 0.03937243 -0.00127210 -0.01192364
v 0.03937578 -0.00032186 -0.00770835
v 0.02424196 0.01595428 -0.00684176
v 0.02319138 0.01597834 -0.00684176
v 0.02424196 0.01599896 -0.00684437
v 0.02225976 0.01627905 -0.00697865
v 0.02225808 0.01627905 -0.00865821
v 0.02326008 0.01627905 -0.01176646
v 0.02424196 0.01627905 -0.01180028
v 0.02817119 0.01627905 -0.01187523
v 0.02908271 0.01627561 -0.01189293
v 0.02961052 0.01627733 -0.01188929
v 0.03073818 0.01627905 -0.01188096
v 0.03185244 0.01627905 -0.01187367
v 0.02961052 0.01610721 -0.01200275
v 0.03259304 0.01609518 -0.01198922
v 0.03352467 0.01600067 -0.01200327
v 0.03937411 0.01368779 -0.01191999
v 0.03937578 -0.00125836 -0.00811379
v 0.03411782 0.01608659 -0.01198245
v 0.03418484 0.01609003 -0.01198089
v 0.03549012 0.01609003 -0.01194602
v 0.03549012 0.01532537 -0.01209799
v 0.03577329 0.01532537 -0.01209019
v 0.03937411 0.01532708 -0.01192832
v 0.03614192 0.01598693 -0.01194341
v 0.03681718 0.01579963 -0.01195382
v 0.03937411 0.01609175 -0.01176750
v 0.03937411 0.01567591 -0.01185962
v 0.03937578 0.01461569 -0.00770835
v 0.03807889 0.01627905 -0.00770523
v 0.02424196 0.01627905 -0.00700988
v 0.03549012 0.01627905 -0.01182058
v 0.03411447 0.01627733 -0.01185702
v 0.03937578 0.01461569 -0.00811379
v 0.03418317 0.01627733 -0.01185546
v 0.03576324 0.01627905 -0.01181330
v 0.03576826 0.01608659 -0.01193717
v 0.03614192 0.01609003 -0.01191999
v 0.03681718 0.01609175 -0.01188877
v 0.03681718 0.01627905 -0.01176489
v 0.03937411 0.01627905 -0.01164206
v 0.03937411 0.01627905 -0.00811431
f 1 2 3
f 1 3 4
f 1 4 16
f 1 16 5
f 1 5 25
f 1 25 48
f 1 48 78
f 1 78 49
f 1 49 31
f 1 31 26
f 1 26 6
f 1 6 7
f 1 7 8
f 1 8 2
f 2 9 10
f 2 10 3
f 2 8 7
f 2 7 11
f 2 11 12
f 2 12 13
f 2 13 14
f 2 14 15
f 2 15 9
f 3 10 4
f 4 10 17
f 4 17 18
f 4 18 19
f 4 19 20
f 4 20 21
f 4 21 22
f 4 22 23
f 4 23 45
f 4 45 37
f 4 37 16
f 5 16 24
f 5 24 25
f 6 26 7
f 7 26 12
f 7 12 11
f 9 27 28
f 9 28 10
f 9 15 27
f 10 29 30
f 10 30 17
f 10 28 29
f 12 26 31
f 12 31 32
f 12 32 33
f 12 33 13
f 13 33 34
f 13 34 35
f 13 35 14
f 14 35 36
f 14 36 15
f 15 36 28
f 15 28 27
f 16 37 46
f 16 46 24
f 17 30 38
f 17 38 18
f 18 38 19
f 19 38 39
f 19 39 20
f 20 39 40
f 20 40 41
f 20 41 21
f 21 41 42
f 21 42 43
f 21 43 22
f 22 44 45
f 22 45 23
f 22 43 44
f 24 46 74
f 24 74 75
f 24 75 47
f 24 47 48
f 24 48 25
f 28 36 29
f 29 36 30
f 30 36 38
f 31 49 50
f 31 50 32
f 32 50 51
f 32 51 52
f 32 52 53
f 32 53 54
f 32 54 33
f 33 54 34
f 34 54 35
f 35 54 55
f 35 55 36
f 36 55 56
f 36 56 57
f 36 57 58
f 36 58 59
f 36 59 60
f 36 60 40
f 36 40 39
f 36 39 61
f 36 61 38
f 37 45 62
f 37 62 63
f 37 63 46
f 38 61 39
f 40 60 41
f 41 60 64
f 41 64 65
f 41 65 42
f 42 65 66
f 42 66 43
f 43 66 67
f 43 67 68
f 43 68 44
f 44 69 45
f 44 68 70
f 44 70 71
f 44 71 69
f 45 69 72
f 45 72 62
f 46 63 73
f 46 73 101
f 46 101 74
f 47 75 76
f 47 76 77
f 47 77 48
f 48 77 78
f 49 78 77
f 49 77 103
f 49 103 102
f 49 102 114
f 49 114 113
f 49 113 112
f 49 112 108
f 49 108 104
f 49 104 85
f 49 85 84
f 49 84 81
f 49 81 80
f 49 80 53
f 49 53 52
f 49 52 51
f 49 51 79
f 49 79 50
f 50 79 51
f 53 80 54
f 54 80 55
f 55 80 56
f 56 80 57
f 57 80 81
f 57 81 82
f 57 82 83
f 57 83 84
f 57 84 85
f 57 85 86
f 57 86 58
f 58 86 85
f 58 85 87
f 58 87 88
f 58 88 59
f 59 88 60
f 60 88 64
f 62 72 89
f 62 89 90
f 62 90 106
f 62 106 101
f 62 101 73
f 62 73 63
f 64 88 91
f 64 91 92
f 64 92 65
f 65 92 93
f 65 93 94
f 65 94 66
f 66 94 95
f 66 95 67
f 67 95 68
f 68 95 70
f 69 71 96
f 69 96 72
f 70 95 97
f 70 97 98
f 70 98 71
f 71 98 99
f 71 99 100
f 71 100 96
f 72 96 89
f 74 102 76
f 74 76 75
f 74 101 102
f 76 102 103
f 76 103 77
f 81 84 83
f 81 83 82
f 85 104 105
f 85 105 92
f 85 92 87
f 87 92 91
f 87 91 88
f 89 96 90
f 90 96 106
f 92 105 107
f 92 107 104
f 92 104 108
f 92 108 93
f 93 108 109
f 93 109 95
f 93 95 94
f 95 109 97
f 96 100 106
f 97 109 110
f 97 110 111
f 97 111 98
f 98 111 99
f 99 111 112
f 99 112 113
f 99 113 106
f 99 106 100
f 101 106 113
f 101 113 114
f 101 114 102
f 104 107 105
f 108 112 111
f 108 111 110
f 108 110 109

