# https://github.com/mikedh/trimesh
v 0.03937578 -0.00127413 -0.00876304
v 0.03937666 -0.00127554 -0.01192656
v 0.03937578 -0.00127413 -0.00798288
v 0.03937578 0.00932115 -0.01192266
v 0.04244632 -0.00127554 -0.01171774
v 0.03937666 -0.00127554 -0.00876304
v 0.03937840 0.00629573 -0.01192378
v 0.04094294 0.01310678 -0.01182911
v 0.03937666 -0.00127413 -0.00623768
v 0.03937578 0.01310678 -0.00798288
v 0.03937578 0.01188761 -0.01192099
v 0.03937840 0.00932115 -0.01192266
v 0.04270140 -0.00127554 -0.01169825
v 0.04096740 0.01310678 -0.01182744
v 0.04441706 -0.00127554 -0.00798288
v 0.03937578 0.01310678 -0.01191821
v 0.04554831 -0.00127413 -0.00623768
v 0.03937666 0.01310538 -0.00623768
v 0.03937840 0.01310678 -0.00676113
v 0.04313468 -0.00127554 -0.01166428
v 0.04494818 0.01310678 -0.01151504
v 0.04539020 -0.00127554 -0.00798288
v 0.04799775 -0.00127554 -0.00876304
v 0.04829913 -0.00127413 -0.00800070
v 0.04624715 0.00012665 -0.00623824
v 0.04629782 0.00340829 -0.00623768
v 0.04624890 0.01310538 -0.00623768
v 0.04607856 0.01310678 -0.00676113
v 0.04445113 -0.00127554 -0.01155514
v 0.04503204 0.00932115 -0.01150780
v 0.04721330 0.01310678 -0.01128395
v 0.04799775 -0.00127554 -0.01119819
v 0.04632402 0.00377855 -0.00623768
v 0.04829913 -0.00127413 -0.00850076
v 0.04830000 -0.00033934 -0.00800070
v 0.04829913 0.00575654 -0.00798288
v 0.04791302 0.01310678 -0.00850076
v 0.04624802 0.01310678 -0.00685190
v 0.04629694 0.01259152 -0.00623768
v 0.04829913 0.01099786 -0.00800070
v 0.04822313 0.01137938 -0.00800070
v 0.04526178 -0.00127554 -0.01148553
v 0.04509581 0.00629573 -0.01150168
v 0.04550638 -0.00127554 -0.01146103
v 0.04755311 0.01310678 -0.01124775
v 0.04774180 0.00629573 -0.01122770
v 0.04830000 0.00098120 -0.00850076
v 0.04795058 -0.00127554 -0.01120376
v 0.04799775 0.00629573 -0.01119819
v 0.04799863 0.00932115 -0.01119763
v 0.04632490 0.01219733 -0.00623768
v 0.04830000 0.00022239 -0.00846791
v 0.04830000 -0.00033934 -0.00837101
v 0.04830000 0.00488791 -0.00800070
v 0.04829913 0.01024749 -0.00798288
v 0.04799950 0.01310678 -0.00874522
v 0.04632490 0.01221985 -0.00623768
v 0.04829913 0.01099786 -0.00850076
v 0.04799863 0.01310678 -0.01119763
v 0.04830000 0.00395593 -0.00850076
v 0.04830000 0.00488791 -0.00809704
v 0.04799950 0.01310678 -0.00876304
f 1 2 6
f 1 6 3
f 1 3 10
f 1 10 16
f 1 16 11
f 1 11 4
f 1 4 2
f 2 5 13
f 2 13 20
f 2 20 29
f 2 29 42
f 2 42 44
f 2 44 48
f 2 48 32
f 2 32 23
f 2 23 22
f 2 22 15
f 2 15 6
f 2 4 7
f 2 7 8
f 2 8 5
f 3 6 9
f 3 9 18
f 3 18 10
f 4 11 12
f 4 12 7
f 5 8 14
f 5 14 13
f 6 15 9
f 7 12 8
f 8 16 10
f 8 10 19
f 8 19 28
f 8 28 38
f 8 38 37
f 8 37 56
f 8 56 62
f 8 62 59
f 8 59 45
f 8 45 31
f 8 31 21
f 8 21 14
f 8 12 11
f 8 11 16
f 9 15 22
f 9 22 17
f 9 17 26
f 9 26 33
f 9 33 51
f 9 51 57
f 9 57 39
f 9 39 27
f 9 27 18
f 10 18 19
f 13 14 20
f 14 21 20
f 17 22 23
f 17 23 24
f 17 24 25
f 17 25 26
f 18 27 28
f 18 28 19
f 20 21 30
f 20 30 29
f 21 31 30
f 23 32 34
f 23 34 24
f 24 33 25
f 24 34 53
f 24 53 35
f 24 35 36
f 24 36 33
f 25 33 26
f 27 37 38
f 27 38 28
f 27 39 40
f 27 40 41
f 27 41 37
f 29 30 43
f 29 43 42
f 30 31 44
f 30 44 43
f 31 45 46
f 31 46 44
f 32 47 34
f 32 48 49
f 32 49 59
f 32 59 50
f 32 50 47
f 33 36 51
f 34 47 52
f 34 52 53
f 35 53 52
f 35 52 47
f 35 47 60
f 35 60 61
f 35 61 54
f 35 54 55
f 35 55 36
f 36 55 57
f 36 57 51
f 37 41 56
f 39 57 40
f 40 57 55
f 40 55 54
f 40 54 61
f 40 61 58
f 40 58 62
f 40 62 56
f 40 56 41
f 42 43 44
f 44 46 48
f 45 59 46
f 46 59 49
f 46 49 48
f 47 50 59
f 47 59 60
f 58 61 60
f 58 60 59
f 58 59 62

