# https://github.com/mikedh/trimesh
v 0.04561108 -0.00127554 -0.00799993
v 0.04561254 -0.00350301 -0.00594409
v 0.04561254 -0.00331964 -0.00818223
v 0.04561108 -0.00127554 -0.00960522
v 0.04534082 -0.00127554 -0.00793355
v 0.04554826 -0.00127696 -0.00594364
v 0.04561254 -0.00921456 -0.00594364
v 0.04554826 -0.01406611 -0.00496164
v 0.04561254 -0.00331964 -0.00911695
v 0.04561254 -0.00370202 -0.00949884
v 0.04561108 -0.00300123 -0.00960522
v 0.04443070 -0.00127554 -0.00960613
v 0.03068986 -0.00127554 -0.00793355
v 0.04437227 -0.00127696 -0.00594318
v 0.04544600 -0.01350320 -0.00496164
v 0.04561108 -0.01163962 -0.00594409
v 0.04561254 -0.01034465 -0.00641963
v 0.04554826 -0.01435325 -0.00496164
v 0.04554826 -0.01464181 -0.00496300
v 0.04561254 -0.00408583 -0.00949884
v 0.04560231 -0.01579606 -0.00960432
v 0.04560231 -0.01448403 -0.00960522
v 0.04443070 -0.00320592 -0.00960613
v 0.03068986 -0.00127554 -0.00960613
v 0.03068840 -0.00127696 -0.00649283
v 0.03069132 -0.00127696 -0.00594318
v 0.04477546 -0.01350320 -0.00496164
v 0.04561108 -0.01163962 -0.00838045
v 0.04560377 -0.01349893 -0.00594409
v 0.04560377 -0.01555867 -0.00799947
v 0.04560377 -0.01579606 -0.00849911
v 0.04561254 -0.01034465 -0.00792673
v 0.04477546 -0.01435325 -0.00496164
v 0.04549128 -0.01528433 -0.00496300
v 0.04554826 -0.01489910 -0.00498710
v 0.04560377 -0.01579606 -0.00862913
v 0.04472726 -0.01579748 -0.00752666
v 0.03068986 -0.01579606 -0.00960432
v 0.04475647 -0.01448403 -0.00960522
v 0.04329707 -0.01163962 -0.00960568
v 0.04313200 -0.00720458 -0.00960613
v 0.03068840 -0.00350586 -0.00960613
v 0.03068840 -0.00127696 -0.00793355
v 0.03068840 -0.01263325 -0.00594409
v 0.03068840 -0.01448403 -0.00594364
v 0.03069132 -0.00252219 -0.00594318
v 0.04554826 -0.01528433 -0.00524351
v 0.04559501 -0.01575342 -0.00765486
v 0.04558916 -0.01579606 -0.00759622
v 0.04472726 -0.01579748 -0.00594364
v 0.03068840 -0.01579748 -0.00594364
v 0.04477546 -0.01528433 -0.00496300
v 0.04554826 -0.01579606 -0.00594364
v 0.03068840 -0.01579748 -0.00752666
v 0.03068840 -0.01448403 -0.00960432
v 0.03068986 -0.01486783 -0.00960477
v 0.03068986 -0.01163962 -0.00960568
v 0.03070009 -0.00720458 -0.00960613
v 0.03068840 -0.00718894 -0.00960613
f 1 2 3
f 1 3 9
f 1 9 4
f 1 4 12
f 1 12 24
f 1 24 13
f 1 13 5
f 1 5 6
f 1 6 2
f 2 7 17
f 2 17 32
f 2 32 20
f 2 20 10
f 2 10 9
f 2 9 3
f 2 6 8
f 2 8 7
f 4 9 10
f 4 10 20
f 4 20 11
f 4 11 23
f 4 23 12
f 5 13 26
f 5 26 14
f 5 14 6
f 6 15 8
f 6 14 15
f 7 16 17
f 7 8 18
f 7 18 19
f 7 19 16
f 8 15 27
f 8 27 33
f 8 33 18
f 11 20 21
f 11 21 22
f 11 22 23
f 12 23 41
f 12 41 58
f 12 58 59
f 12 59 42
f 12 42 24
f 13 24 43
f 13 43 25
f 13 25 26
f 14 26 27
f 14 27 15
f 16 28 32
f 16 32 17
f 16 19 29
f 16 29 30
f 16 30 31
f 16 31 36
f 16 36 28
f 18 33 52
f 18 52 34
f 18 34 19
f 19 34 35
f 19 35 29
f 20 32 28
f 20 28 21
f 21 28 36
f 21 36 37
f 21 37 54
f 21 54 38
f 21 38 39
f 21 39 22
f 22 39 57
f 22 57 40
f 22 40 41
f 22 41 23
f 24 42 43
f 25 43 42
f 25 42 59
f 25 59 55
f 25 55 54
f 25 54 51
f 25 51 45
f 25 45 44
f 25 44 26
f 26 44 45
f 26 45 51
f 26 51 46
f 26 46 33
f 26 33 27
f 29 35 47
f 29 47 48
f 29 48 30
f 30 48 31
f 31 48 49
f 31 49 50
f 31 50 37
f 31 37 36
f 33 46 51
f 33 51 52
f 34 52 51
f 34 51 50
f 34 50 53
f 34 53 47
f 34 47 35
f 37 50 51
f 37 51 54
f 38 54 55
f 38 55 56
f 38 56 39
f 39 56 57
f 40 57 58
f 40 58 41
f 47 53 48
f 48 53 49
f 49 53 50
f 55 59 57
f 55 57 56
f 57 59 58

