# https://github.com/mikedh/trimesh
v 0.00538491 -0.00127554 0.01365265
v 0.00539074 -0.00127554 0.01208265
v 0.00578864 -0.00127554 0.01377938
v 0.00565450 -0.00030353 0.01379556
v 0.00576272 0.00013699 0.01384102
v 0.00603361 0.00135460 0.01392677
v 0.00673805 0.00531931 0.01395294
v 0.00692987 0.00684489 0.01384412
v 0.00713660 0.00917875 0.01352489
v 0.00723511 0.01110068 0.01310785
v 0.00725260 0.01166985 0.01294875
v 0.00725908 0.01199861 0.01283407
v 0.00725908 0.01199861 0.01200034
v 0.01200545 -0.00127554 0.01386375
v 0.00712429 0.00910728 0.01200000
v 0.00710809 0.00876682 0.01200069
v 0.01027838 0.01199861 0.01200034
v 0.01200545 0.01199861 0.01246284
v 0.00929074 -0.00127554 0.01477393
v 0.00930824 0.00031502 0.01485692
v 0.00600510 0.00044887 0.01392092
v 0.00610684 0.00135460 0.01395122
v 0.00618201 0.00201993 0.01397326
v 0.00660519 0.00438108 0.01399427
v 0.00933869 0.00350004 0.01481457
v 0.00936980 0.00660969 0.01456283
v 0.00679637 0.00571565 0.01393538
v 0.00713142 0.00910728 0.01353522
v 0.00937239 0.00731790 0.01445194
v 0.00938924 0.00910728 0.01417162
v 0.00939248 0.00955560 0.01410102
v 0.00940869 0.01173092 0.01357930
v 0.00853705 0.01199861 0.01322080
v 0.01200545 -0.00127554 0.01544649
v 0.00733037 0.00910728 0.01200034
v 0.00949876 0.01122543 0.01200034
v 0.01200545 0.01199861 0.01417713
v 0.01083635 -0.00127554 0.01515791
v 0.01200545 0.00021626 0.01551812
v 0.00931731 0.00135460 0.01484315
v 0.00740166 0.00135460 0.01431867
v 0.01200545 0.00348964 0.01546750
v 0.01200545 0.00668116 0.01520853
v 0.01200545 0.00969464 0.01474018
v 0.01200545 0.01190895 0.01421191
v 0.00987140 0.01199861 0.01360065
v 0.00940998 0.01199861 0.01347426
v 0.01200545 0.00135460 0.01550056
f 1 2 14
f 1 14 34
f 1 34 38
f 1 38 19
f 1 19 3
f 1 3 4
f 1 4 5
f 1 5 6
f 1 6 7
f 1 7 8
f 1 8 9
f 1 9 10
f 1 10 11
f 1 11 12
f 1 12 13
f 1 13 2
f 2 13 15
f 2 15 16
f 2 16 17
f 2 17 18
f 2 18 14
f 3 19 4
f 4 20 21
f 4 21 5
f 4 19 20
f 5 21 6
f 6 21 22
f 6 22 23
f 6 23 24
f 6 24 7
f 7 24 25
f 7 25 26
f 7 26 27
f 7 27 8
f 8 28 9
f 8 27 26
f 8 26 29
f 8 29 30
f 8 30 31
f 8 31 28
f 9 28 31
f 9 31 10
f 10 31 32
f 10 32 11
f 11 32 33
f 11 33 12
f 12 33 47
f 12 47 46
f 12 46 37
f 12 37 18
f 12 18 17
f 12 17 13
f 13 17 15
f 14 18 37
f 14 37 45
f 14 45 44
f 14 44 43
f 14 43 42
f 14 42 48
f 14 48 39
f 14 39 34
f 15 35 16
f 15 17 36
f 15 36 35
f 16 35 36
f 16 36 17
f 19 38 20
f 20 38 39
f 20 39 40
f 20 40 41
f 20 41 21
f 21 41 22
f 22 41 23
f 23 41 25
f 23 25 24
f 25 41 40
f 25 40 42
f 25 42 43
f 25 43 26
f 26 43 44
f 26 44 29
f 29 44 30
f 30 44 31
f 31 44 45
f 31 45 32
f 32 45 46
f 32 46 47
f 32 47 33
f 34 39 38
f 37 46 45
f 39 48 40
f 40 48 42

