# https://github.com/mikedh/trimesh
v 0.01150569 -0.01009759 0.01235385
v 0.01150569 -0.01009759 0.01400874
v 0.01150569 -0.00614530 0.01329845
v 0.01150685 -0.01400024 0.01080486
v 0.01150685 -0.01535642 0.01080425
v 0.01150685 -0.01575238 0.01080425
v 0.01150801 -0.01258231 0.01312560
v 0.01150801 -0.01148768 0.01360277
v 0.01150801 -0.01079022 0.01380910
v 0.01247357 -0.01163298 0.01383710
v 0.01250599 -0.00920639 0.01454617
v 0.01150569 -0.00907562 0.01430210
v 0.01150685 -0.01565672 0.01093571
v 0.01150685 -0.01553079 0.01105501
v 0.01150685 -0.01535642 0.01121751
v 0.01150685 -0.01505370 0.01149749
v 0.01150685 -0.01451002 0.01199718
v 0.01150685 -0.01440467 0.01206596
v 0.01150685 -0.01412739 0.01224612
v 0.01150685 -0.01367089 0.01253583
v 0.01150569 -0.00614530 0.01487361
v 0.01722265 -0.00614409 0.01455590
v 0.02333092 -0.00614409 0.01548834
v 0.02333092 -0.01679615 0.01080364
v 0.01259513 -0.01400024 0.01080486
v 0.02078503 -0.01639293 0.01080364
v 0.01239137 -0.01606478 0.01080425
v 0.02078503 -0.01812569 0.01080364
v 0.01150801 -0.01311509 0.01288884
v 0.01244810 -0.01326766 0.01311586
v 0.01208688 -0.01258231 0.01330393
v 0.01576967 -0.01207616 0.01451208
v 0.01351786 -0.01009759 0.01453582
v 0.01245852 -0.01258231 0.01341836
v 0.01574420 -0.01367089 0.01381215
v 0.01580209 -0.00958903 0.01522723
v 0.01254072 -0.00625186 0.01512681
v 0.01150569 -0.00819894 0.01447678
v 0.01150569 -0.00842659 0.01443174
v 0.01239832 -0.01581655 0.01114813
v 0.01151959 -0.01535642 0.01122299
v 0.01242263 -0.01466622 0.01221690
v 0.01243999 -0.01367089 0.01285658
v 0.01150569 -0.00614651 0.01487361
v 0.01250599 -0.00614530 0.01512985
v 0.01722265 -0.00614409 0.01610611
v 0.02333092 -0.00614409 0.01702151
v 0.02333324 -0.00828250 0.01518646
v 0.02333092 -0.01851317 0.01080364
v 0.02333324 -0.01009759 0.01479632
v 0.01432481 -0.01665206 0.01080425
v 0.02224727 -0.01837392 0.01080364
v 0.01895811 -0.01781571 0.01080425
v 0.01721107 -0.01744881 0.01080425
v 0.01567590 -0.01706012 0.01080425
v 0.01571989 -0.01516631 0.01287484
v 0.01524058 -0.01367089 0.01367885
v 0.01906231 -0.01246849 0.01506595
v 0.01907736 -0.01136296 0.01541530
v 0.01617720 -0.01009881 0.01516150
v 0.01574420 -0.01374475 0.01377928
v 0.01903568 -0.01416371 0.01431732
v 0.01905189 -0.01324587 0.01472328
v 0.01722265 -0.00980820 0.01545061
v 0.01909820 -0.00992565 0.01578840
v 0.01581598 -0.00842659 0.01545121
v 0.01583914 -0.00655216 0.01581153
v 0.01545477 -0.00614530 0.01577440
v 0.01254303 -0.00614530 0.01513837
v 0.01569558 -0.01633360 0.01179998
v 0.01377603 -0.01535642 0.01204466
v 0.01851353 -0.00614409 0.01634044
v 0.01584377 -0.00614530 0.01585839
v 0.02244293 -0.00614409 0.01692473
v 0.02243251 -0.00704619 0.01682491
v 0.02333092 -0.00710068 0.01691621
v 0.02333324 -0.00828250 0.01669832
v 0.02333092 -0.01818381 0.01153766
v 0.02333324 -0.01009759 0.01636235
v 0.02225769 -0.01807968 0.01145793
v 0.02078503 -0.01790652 0.01128873
v 0.01896274 -0.01769220 0.01107814
v 0.01610426 -0.01535642 0.01280972
v 0.01901021 -0.01560344 0.01340010
v 0.02235726 -0.01281601 0.01550051
v 0.02237231 -0.01168868 0.01585474
v 0.02045508 -0.01065823 0.01581640
v 0.02233063 -0.01452940 0.01472998
v 0.02234452 -0.01367089 0.01511646
v 0.01911904 -0.00828250 0.01609942
v 0.02100153 -0.01009759 0.01604464
v 0.01913640 -0.00681613 0.01637574
v 0.01898590 -0.01678283 0.01231854
v 0.01914335 -0.00614409 0.01645182
v 0.02163829 -0.00614409 0.01681092
v 0.02333092 -0.00799552 0.01675188
v 0.02053843 -0.00828250 0.01631427
v 0.02239546 -0.01009759 0.01625584
v 0.02333092 -0.01727203 0.01278537
v 0.02333092 -0.01029618 0.01632583
v 0.02333092 -0.01177102 0.01594969
v 0.02333092 -0.01290682 0.01559485
v 0.02333092 -0.01367089 0.01524549
v 0.02333092 -0.01535642 0.01434592
v 0.02333092 -0.01608416 0.01387971
v 0.02228200 -0.01716789 0.01270442
v 0.02078503 -0.01699352 0.01253035
v 0.02230631 -0.01598365 0.01379693
v 0.02239199 -0.01022353 0.01623149
v 0.02332976 -0.01462627 0.01481762
f 1 2 12
f 1 12 39
f 1 39 38
f 1 38 44
f 1 44 21
f 1 21 3
f 1 3 4
f 1 4 5
f 1 5 6
f 1 6 2
f 2 7 8
f 2 8 9
f 2 9 10
f 2 10 11
f 2 11 12
f 2 6 13
f 2 13 14
f 2 14 15
f 2 15 16
f 2 16 17
f 2 17 18
f 2 18 19
f 2 19 20
f 2 20 7
f 3 21 46
f 3 46 22
f 3 22 23
f 3 23 24
f 3 24 25
f 3 25 4
f 4 25 26
f 4 26 5
f 5 26 28
f 5 28 6
f 6 27 13
f 6 28 27
f 7 29 30
f 7 30 31
f 7 31 10
f 7 10 8
f 7 20 29
f 8 10 9
f 10 32 33
f 10 33 11
f 10 31 34
f 10 34 35
f 10 35 32
f 11 36 37
f 11 37 38
f 11 38 39
f 11 39 12
f 11 33 36
f 13 27 40
f 13 40 14
f 14 41 15
f 14 40 41
f 15 41 16
f 16 42 17
f 16 41 40
f 16 40 42
f 17 42 18
f 18 42 19
f 19 42 43
f 19 43 30
f 19 30 20
f 20 30 29
f 21 44 45
f 21 45 46
f 22 46 72
f 22 72 94
f 22 94 95
f 22 95 74
f 22 74 47
f 22 47 23
f 23 47 77
f 23 77 48
f 23 48 24
f 24 49 52
f 24 52 28
f 24 28 26
f 24 26 25
f 24 48 50
f 24 50 49
f 27 28 51
f 27 51 40
f 28 52 53
f 28 53 54
f 28 54 55
f 28 55 51
f 30 34 31
f 30 43 56
f 30 56 57
f 30 57 34
f 32 58 59
f 32 59 60
f 32 60 36
f 32 36 33
f 32 35 58
f 34 57 35
f 35 57 61
f 35 61 62
f 35 62 63
f 35 63 58
f 36 64 65
f 36 65 66
f 36 66 37
f 36 60 59
f 36 59 64
f 37 67 68
f 37 68 69
f 37 69 45
f 37 45 44
f 37 44 38
f 37 66 67
f 40 51 70
f 40 70 71
f 40 71 42
f 42 71 56
f 42 56 43
f 45 69 46
f 46 69 68
f 46 68 73
f 46 73 72
f 47 74 75
f 47 75 76
f 47 76 77
f 48 77 79
f 48 79 50
f 49 78 52
f 49 50 79
f 49 79 78
f 51 55 70
f 52 78 80
f 52 80 81
f 52 81 53
f 53 81 82
f 53 82 54
f 54 82 55
f 55 82 70
f 56 71 70
f 56 70 83
f 56 83 84
f 56 84 62
f 56 62 61
f 56 61 57
f 58 63 85
f 58 85 59
f 59 85 86
f 59 86 87
f 59 87 65
f 59 65 64
f 62 84 88
f 62 88 89
f 62 89 85
f 62 85 63
f 65 90 67
f 65 67 66
f 65 87 91
f 65 91 90
f 67 92 72
f 67 72 73
f 67 73 68
f 67 90 92
f 70 82 93
f 70 93 83
f 72 92 94
f 74 95 75
f 75 96 76
f 75 95 94
f 75 94 92
f 75 92 97
f 75 97 98
f 75 98 96
f 76 96 77
f 77 96 79
f 78 79 99
f 78 99 80
f 79 96 100
f 79 100 101
f 79 101 102
f 79 102 103
f 79 103 104
f 79 104 105
f 79 105 99
f 80 99 106
f 80 106 107
f 80 107 81
f 81 107 82
f 82 107 93
f 83 93 84
f 84 93 108
f 84 108 88
f 85 102 86
f 85 89 102
f 86 109 87
f 86 102 101
f 86 101 109
f 87 109 91
f 88 110 102
f 88 102 89
f 88 108 110
f 90 91 98
f 90 98 97
f 90 97 92
f 91 109 98
f 93 107 108
f 96 98 100
f 98 109 100
f 99 105 106
f 100 109 101
f 102 110 103
f 103 110 104
f 104 110 105
f 105 108 106
f 105 110 108
f 106 108 107

