# https://github.com/mikedh/trimesh
v 0.00549977 0.01420000 0.00499973
v 0.00549977 0.01420000 0.00457244
v 0.00538480 0.01420000 0.00557363
v 0.00647624 0.01399775 0.00459331
v 0.00549820 0.01419895 0.00176463
v 0.00529346 0.01420000 0.00457244
v 0.00647624 0.01399775 0.00176463
v 0.00529346 0.01420000 0.00571050
v 0.00647624 0.01349685 0.00650384
v 0.00529188 0.01419895 0.00176463
v -0.00549653 0.01419790 0.00176510
v 0.00647624 0.00681013 0.00176463
v -0.00549653 0.01419790 0.00499834
v -0.00538156 0.01419790 0.00557270
v -0.00505712 0.01419790 0.00605938
v -0.00456888 0.01419790 0.00638414
v -0.00399718 0.01419790 0.00649874
v 0.00399570 0.01419895 0.00649920
v 0.00456898 0.01419790 0.00638507
v 0.00505721 0.01419790 0.00606031
v 0.00573602 0.01349685 0.00650431
v 0.00647624 0.00350187 0.00650384
v -0.00909529 0.01399880 0.00176463
v 0.00647624 0.00349558 0.00176556
v -0.00473425 0.00349558 0.00176463
v -0.00841176 0.01399775 0.00409272
v -0.00698958 0.01399775 0.00630667
v -0.00676279 0.01399775 0.00650431
v -0.00004090 0.01419790 0.00649920
v -0.00611391 0.01399775 0.00650431
v 0.00573602 0.00680908 0.00650431
v -0.00473425 0.00349558 0.00650431
v 0.00168052 0.00349558 0.00650384
v 0.00179234 0.00349558 0.00647879
v 0.00200181 0.00349558 0.00641755
v 0.00207426 0.00349558 0.00639435
v 0.00215458 0.00349558 0.00636791
v 0.00296883 0.00349558 0.00603062
v 0.00305072 0.00349558 0.00598979
v 0.00312790 0.00349558 0.00594989
v 0.00346336 0.00349558 0.00574436
v 0.00387757 0.00349558 0.00548873
v 0.00395002 0.00349558 0.00543816
v 0.00401617 0.00349558 0.00538805
v 0.00468710 0.00349558 0.00481601
v 0.00480522 0.00349558 0.00469817
v 0.00538323 0.00349558 0.00402080
v 0.00543678 0.00349558 0.00395214
v 0.00548087 0.00349558 0.00389136
v 0.00553757 0.00349558 0.00380878
v 0.00595179 0.00349558 0.00312121
v 0.00598643 0.00349558 0.00305394
v 0.00603526 0.00349558 0.00295558
v 0.00636442 0.00349558 0.00215806
v 0.00641482 0.00349558 0.00200635
v 0.00647624 0.00349558 0.00179154
v -0.00961030 0.01349685 0.00176463
v -0.00891102 0.01349790 0.00414885
v -0.00853776 0.01386048 0.00414885
v -0.00585089 0.00349453 0.00176463
v -0.00721637 0.01369805 0.00650431
v -0.00585089 0.00349453 0.00650431
v -0.00961030 0.00370097 0.00176463
v -0.00888110 0.00680593 0.00425231
v -0.00886535 0.01349790 0.00429964
v -0.00824324 0.01349790 0.00526928
v -0.00939926 0.00349453 0.00176463
v -0.00744947 0.01349790 0.00650431
v -0.00720693 0.00349453 0.00650431
v -0.00891102 0.00370097 0.00414885
v -0.00886535 0.00370202 0.00429964
v -0.00824324 0.01346541 0.00526928
v -0.00867950 0.00349453 0.00421381
v -0.00744947 0.00370202 0.00650431
v -0.00721637 0.00350082 0.00650431
v -0.00721165 0.00349453 0.00649967
f 1 2 6
f 1 6 8
f 1 8 3
f 1 3 4
f 1 4 7
f 1 7 2
f 2 5 10
f 2 10 6
f 2 7 5
f 3 8 9
f 3 9 4
f 4 9 22
f 4 22 56
f 4 56 24
f 4 24 12
f 4 12 7
f 5 7 12
f 5 12 25
f 5 25 60
f 5 60 67
f 5 67 63
f 5 63 57
f 5 57 23
f 5 23 10
f 6 10 11
f 6 11 13
f 6 13 8
f 8 13 14
f 8 14 15
f 8 15 16
f 8 16 17
f 8 17 18
f 8 18 19
f 8 19 20
f 8 20 9
f 9 21 31
f 9 31 22
f 9 20 19
f 9 19 18
f 9 18 21
f 10 23 11
f 11 23 13
f 12 24 25
f 13 23 14
f 14 23 26
f 14 26 27
f 14 27 15
f 15 27 28
f 15 28 16
f 16 28 17
f 17 29 18
f 17 28 29
f 18 29 28
f 18 28 30
f 18 30 21
f 21 30 28
f 21 28 61
f 21 61 68
f 21 68 74
f 21 74 75
f 21 75 69
f 21 69 62
f 21 62 32
f 21 32 31
f 22 31 32
f 22 32 33
f 22 33 34
f 22 34 35
f 22 35 36
f 22 36 37
f 22 37 38
f 22 38 39
f 22 39 40
f 22 40 41
f 22 41 42
f 22 42 43
f 22 43 44
f 22 44 45
f 22 45 46
f 22 46 47
f 22 47 48
f 22 48 49
f 22 49 50
f 22 50 51
f 22 51 52
f 22 52 53
f 22 53 54
f 22 54 55
f 22 55 56
f 23 57 58
f 23 58 59
f 23 59 26
f 24 56 62
f 24 62 60
f 24 60 25
f 26 59 27
f 27 59 61
f 27 61 28
f 32 62 33
f 33 62 34
f 34 62 35
f 35 62 36
f 36 62 37
f 37 62 38
f 38 62 39
f 39 62 40
f 40 62 41
f 41 62 42
f 42 62 43
f 43 62 44
f 44 62 45
f 45 62 46
f 46 62 47
f 47 62 48
f 48 62 49
f 49 62 50
f 50 62 51
f 51 62 52
f 52 62 53
f 53 62 54
f 54 62 55
f 55 62 56
f 57 63 64
f 57 64 58
f 58 64 65
f 58 65 59
f 59 65 66
f 59 66 61
f 60 62 69
f 60 69 76
f 60 76 73
f 60 73 67
f 61 66 68
f 63 67 70
f 63 70 64
f 64 71 65
f 64 70 71
f 65 71 72
f 65 72 66
f 66 72 74
f 66 74 68
f 67 73 70
f 69 75 76
f 70 73 71
f 71 73 75
f 71 75 74
f 71 74 72
f 73 76 75

