# https://github.com/mikedh/trimesh
v 0.03112960 0.01881747 0.00864319
v 0.03112960 0.01880972 0.00878532
v 0.03136584 0.01881488 0.00864319
v 0.03112960 0.01731523 0.00864319
v 0.02862525 0.01866447 0.01002380
v 0.03112960 0.01876324 0.00946810
v 0.03241017 0.01879358 0.00864319
v 0.02862525 0.01369552 0.01433673
v 0.02862525 0.01711123 0.01002380
v 0.03937459 0.01689109 0.00864319
v 0.04180923 0.01222234 0.01433618
v 0.02862396 0.01809507 0.01181965
v 0.02862525 0.01853406 0.01065196
v 0.02969154 0.01867092 0.01002380
v 0.03184476 0.01851534 0.01055386
v 0.03237919 0.01873871 0.00945082
v 0.03091402 0.01864833 0.01002380
v 0.03112960 0.01864445 0.01002324
v 0.03301432 0.01877357 0.00864319
v 0.03659528 0.01338823 0.01433673
v 0.02862525 0.01625004 0.01433673
v 0.02862396 0.01523585 0.01322199
v 0.02862396 0.01638044 0.01181965
v 0.03937459 0.01840107 0.00864319
v 0.04181181 0.01635010 0.01002380
v 0.04181181 0.01633203 0.01002714
v 0.04181181 0.01534302 0.01181909
v 0.04180923 0.01502023 0.01433618
v 0.03659657 0.01338823 0.01433673
v 0.02862396 0.01795499 0.01214961
v 0.02862525 0.01847015 0.01094067
v 0.02921390 0.01847338 0.01096018
v 0.03250699 0.01841980 0.01093120
v 0.03369849 0.01869739 0.00940177
v 0.03595886 0.01863412 0.00870227
v 0.03595886 0.01863735 0.00864319
v 0.02862525 0.01692143 0.01371526
v 0.02862396 0.01727004 0.01322199
v 0.02923068 0.01627715 0.01433673
v 0.03937459 0.01837719 0.00891630
v 0.04181181 0.01790076 0.01002380
v 0.03750924 0.01855537 0.00864319
v 0.03742662 0.01851921 0.00914371
v 0.04181181 0.01715319 0.01181909
v 0.04034664 0.01534495 0.01433618
v 0.03659657 0.01589110 0.01433673
v 0.04180923 0.01525070 0.01416618
v 0.02862396 0.01784008 0.01241603
v 0.02922423 0.01784330 0.01243610
v 0.02922036 0.01810734 0.01181965
v 0.03116833 0.01807183 0.01181965
v 0.03184476 0.01813252 0.01164463
v 0.03251345 0.01804537 0.01181909
v 0.03472347 0.01792271 0.01181909
v 0.03579492 0.01829714 0.01076566
v 0.03598081 0.01832296 0.01057950
v 0.03654106 0.01839914 0.01002324
v 0.03614734 0.01862831 0.00864319
v 0.02923068 0.01692466 0.01373700
v 0.02862525 0.01708992 0.01347783
v 0.03098889 0.01625843 0.01433673
v 0.04181181 0.01788785 0.01009737
v 0.03908414 0.01810540 0.01046245
v 0.04181181 0.01729328 0.01160339
v 0.04180923 0.01657089 0.01272370
v 0.04180923 0.01641401 0.01295947
v 0.04180923 0.01545922 0.01395716
v 0.03910350 0.01556832 0.01433618
v 0.03910221 0.01660446 0.01329891
v 0.03581041 0.01677295 0.01357815
v 0.03581299 0.01598988 0.01433673
v 0.03857552 0.01563998 0.01433618
v 0.03659786 0.01645146 0.01379330
v 0.02922810 0.01728811 0.01322311
v 0.03252377 0.01687947 0.01372418
v 0.03187316 0.01724228 0.01322311
v 0.03251732 0.01779424 0.01241269
v 0.03580267 0.01767933 0.01225328
v 0.03598081 0.01784330 0.01181909
v 0.03870978 0.01759153 0.01181965
v 0.03252507 0.01623132 0.01433673
v 0.04181181 0.01739786 0.01134421
v 0.03909447 0.01755409 0.01181965
v 0.04016075 0.01741723 0.01181909
v 0.03909447 0.01749663 0.01195899
v 0.03680699 0.01762381 0.01216466
v 0.03659657 0.01675036 0.01348674
v 0.03451693 0.01609188 0.01433673
f 1 2 3
f 1 3 7
f 1 7 19
f 1 19 36
f 1 36 58
f 1 58 42
f 1 42 24
f 1 24 10
f 1 10 4
f 1 4 9
f 1 9 5
f 1 5 2
f 2 5 6
f 2 6 3
f 3 6 7
f 4 8 9
f 4 10 11
f 4 11 8
f 5 9 23
f 5 23 12
f 5 12 13
f 5 13 14
f 5 14 6
f 6 15 16
f 6 16 7
f 6 14 17
f 6 17 18
f 6 18 15
f 7 16 19
f 8 11 20
f 8 20 29
f 8 29 46
f 8 46 71
f 8 71 88
f 8 88 81
f 8 81 61
f 8 61 39
f 8 39 21
f 8 21 38
f 8 38 22
f 8 22 9
f 9 22 23
f 10 24 41
f 10 41 25
f 10 25 26
f 10 26 11
f 11 26 27
f 11 27 44
f 11 44 28
f 11 28 46
f 11 46 29
f 11 29 20
f 12 23 22
f 12 22 38
f 12 38 48
f 12 48 30
f 12 30 31
f 12 31 13
f 13 31 32
f 13 32 14
f 14 32 15
f 14 15 17
f 15 33 16
f 15 18 17
f 15 32 33
f 16 33 34
f 16 34 19
f 19 34 35
f 19 35 36
f 21 37 38
f 21 39 37
f 24 40 41
f 24 42 43
f 24 43 40
f 25 41 62
f 25 62 82
f 25 82 64
f 25 64 44
f 25 44 27
f 25 27 26
f 28 45 46
f 28 44 47
f 28 47 45
f 30 48 49
f 30 49 50
f 30 50 31
f 31 50 32
f 32 50 51
f 32 51 52
f 32 52 33
f 33 52 53
f 33 53 54
f 33 54 55
f 33 55 34
f 34 55 56
f 34 56 57
f 34 57 43
f 34 43 35
f 35 43 42
f 35 42 58
f 35 58 36
f 37 39 59
f 37 59 60
f 37 60 38
f 38 60 48
f 39 61 59
f 40 62 41
f 40 43 63
f 40 63 62
f 43 57 63
f 44 64 65
f 44 65 66
f 44 66 67
f 44 67 47
f 45 68 46
f 45 47 69
f 45 69 68
f 46 70 71
f 46 68 72
f 46 72 73
f 46 73 70
f 47 67 69
f 48 60 74
f 48 74 49
f 49 74 75
f 49 75 76
f 49 76 77
f 49 77 50
f 50 77 51
f 51 77 52
f 52 77 53
f 53 77 78
f 53 78 54
f 54 78 55
f 55 78 79
f 55 79 80
f 55 80 63
f 55 63 56
f 56 63 57
f 59 61 81
f 59 81 75
f 59 75 74
f 59 74 60
f 62 63 82
f 63 80 83
f 63 83 64
f 63 64 82
f 64 83 84
f 64 84 65
f 65 84 85
f 65 85 69
f 65 69 66
f 66 69 67
f 68 69 73
f 68 73 72
f 69 85 86
f 69 86 78
f 69 78 87
f 69 87 70
f 69 70 73
f 70 87 78
f 70 78 77
f 70 77 75
f 70 75 88
f 70 88 71
f 75 77 76
f 75 81 88
f 78 86 79
f 79 86 80
f 80 86 85
f 80 85 83
f 83 85 84

