# https://github.com/mikedh/trimesh
v 0.04402438 -0.01428908 0.00671423
v 0.04402438 -0.01428908 0.00727343
v 0.04402438 -0.01350639 0.00671423
v 0.04402480 -0.01404660 0.00585103
v 0.04402565 -0.01404592 0.00478542
v 0.04505027 -0.01428908 0.00671423
v 0.04402480 -0.01428908 0.00795897
v 0.04402480 -0.00847012 0.00799938
v 0.04402438 -0.01350639 0.00727343
v 0.04402480 -0.01350168 0.00585103
v 0.04402480 -0.00740925 0.00585176
v 0.04541076 -0.01404592 0.00478542
v 0.04402565 -0.00740925 0.00478542
v 0.04555015 -0.01423991 0.00671423
v 0.04555015 -0.01428908 0.00719989
v 0.04534548 -0.01428908 0.00795897
v 0.04444425 -0.01350370 0.00850470
v 0.04402565 -0.01350370 0.00849887
v 0.04402480 -0.00740992 0.00799938
v 0.04402480 -0.00740925 0.00753155
v 0.04555099 -0.01404592 0.00497109
v 0.04600540 -0.01349831 0.00478542
v 0.04832670 -0.01349831 0.00478615
v 0.04600751 -0.00740925 0.00478542
v 0.04555015 -0.01428908 0.00727343
v 0.04554973 -0.01428908 0.00787123
v 0.04832670 -0.01349831 0.00799974
v 0.04832670 -0.01301267 0.00850397
v 0.04600708 -0.01350370 0.00850470
v 0.04443499 -0.01349562 0.00850470
v 0.04430107 -0.01299718 0.00850470
v 0.04402565 -0.01250480 0.00849887
v 0.04430107 -0.00740925 0.00849924
v 0.04600582 -0.01311775 0.00478542
v 0.04600751 -0.01092797 0.00478542
v 0.04832670 -0.00740925 0.00478615
v 0.04832670 -0.01046388 0.00850397
v 0.04600751 -0.01219294 0.00850470
v 0.04430107 -0.01112061 0.00850470
v 0.04430149 -0.01020119 0.00850470
v 0.04459460 -0.00949596 0.00850470
v 0.04491845 -0.00927908 0.00850470
v 0.04530000 -0.00920364 0.00850470
v 0.04600751 -0.00740925 0.00849924
v 0.04437856 -0.00981793 0.00850470
v 0.04832670 -0.00740925 0.00799974
v 0.04600751 -0.00950472 0.00850470
v 0.04829932 -0.00740925 0.00800629
v 0.04600708 -0.00920364 0.00850470
f 1 2 9
f 1 9 3
f 1 3 10
f 1 10 4
f 1 4 5
f 1 5 12
f 1 12 6
f 1 6 15
f 1 15 25
f 1 25 26
f 1 26 16
f 1 16 7
f 1 7 2
f 2 7 8
f 2 8 19
f 2 19 9
f 3 9 20
f 3 20 11
f 3 11 10
f 4 10 13
f 4 13 5
f 5 13 24
f 5 24 35
f 5 35 34
f 5 34 22
f 5 22 12
f 6 12 14
f 6 14 15
f 7 16 29
f 7 29 17
f 7 17 18
f 7 18 8
f 8 18 32
f 8 32 19
f 9 19 20
f 10 11 13
f 11 20 33
f 11 33 44
f 11 44 48
f 11 48 46
f 11 46 36
f 11 36 24
f 11 24 13
f 12 21 14
f 12 22 23
f 12 23 21
f 14 21 23
f 14 23 15
f 15 23 27
f 15 27 25
f 16 26 27
f 16 27 28
f 16 28 29
f 17 29 38
f 17 38 47
f 17 47 49
f 17 49 43
f 17 43 42
f 17 42 41
f 17 41 45
f 17 45 40
f 17 40 39
f 17 39 31
f 17 31 30
f 17 30 18
f 18 30 31
f 18 31 39
f 18 39 32
f 19 32 33
f 19 33 20
f 22 34 23
f 23 34 35
f 23 35 24
f 23 24 36
f 23 36 46
f 23 46 37
f 23 37 28
f 23 28 27
f 25 27 26
f 28 37 47
f 28 47 38
f 28 38 29
f 32 39 40
f 32 40 33
f 33 41 42
f 33 42 43
f 33 43 49
f 33 49 44
f 33 40 45
f 33 45 41
f 37 46 48
f 37 48 44
f 37 44 49
f 37 49 47

