# https://github.com/mikedh/trimesh
v 0.04569395 0.01039901 0.00297445
v 0.03937578 0.01039901 0.00297445
v 0.04630137 0.00987449 0.00297445
v 0.04630137 0.01039901 0.00163357
v 0.04590614 0.01095946 -0.00195534
v 0.03937646 0.01095946 -0.00195534
v 0.03937578 0.01078822 -0.00299865
v 0.03937578 0.00584238 0.00297445
v 0.04630137 0.00612260 0.00297445
v 0.04630137 0.01039901 -0.00151078
v 0.04590478 0.01095946 -0.00299865
v 0.03937646 0.01095946 -0.00299865
v 0.03937578 0.01078822 -0.00449463
v 0.03937578 -0.00127459 0.00189868
v 0.04072755 -0.00127459 0.00297445
v 0.04629865 0.00000198 0.00297445
v 0.04630069 0.00375028 0.00297355
v 0.04630137 0.00495381 0.00190138
v 0.04629865 0.01039901 -0.00163162
v 0.04630137 0.00986970 -0.00449463
v 0.04629865 0.00987449 -0.00449463
v 0.04575090 0.01078822 -0.00449463
v 0.03937578 0.00836919 -0.00623317
v 0.04480521 0.00836919 -0.00623498
v 0.03937578 -0.00127459 -0.00623768
v 0.04559905 -0.00127459 0.00297445
v 0.04629865 0.00000198 -0.00546940
v 0.04630137 0.00495381 -0.00149726
v 0.04630137 0.00836919 -0.00623498
v 0.03937578 0.00785904 -0.00623678
v 0.04066925 -0.00127459 -0.00623768
v 0.03937578 0.00668545 -0.00623768
v 0.04559905 -0.00127459 -0.00463440
v 0.04624917 0.00012772 -0.00623768
v 0.04629865 0.00340778 -0.00623768
v 0.04630069 0.00375028 -0.00623768
v 0.04554820 -0.00127459 -0.00623678
v 0.04630137 0.00552024 -0.00527553
v 0.04630137 0.00668545 -0.00623768
v 0.04523772 0.00785904 -0.00623678
v 0.04607291 0.00000198 -0.00623768
v 0.04630137 0.00631661 -0.00623768
f 1 2 8
f 1 8 15
f 1 15 26
f 1 26 16
f 1 16 9
f 1 9 3
f 1 3 4
f 1 4 5
f 1 5 6
f 1 6 2
f 2 6 7
f 2 7 13
f 2 13 23
f 2 23 30
f 2 30 32
f 2 32 25
f 2 25 14
f 2 14 8
f 3 9 18
f 3 18 28
f 3 28 38
f 3 38 42
f 3 42 39
f 3 39 29
f 3 29 20
f 3 20 10
f 3 10 4
f 4 10 5
f 5 11 12
f 5 12 6
f 5 10 11
f 6 12 13
f 6 13 7
f 8 14 15
f 9 16 17
f 9 17 18
f 10 19 11
f 10 20 19
f 11 19 20
f 11 20 21
f 11 21 22
f 11 22 13
f 11 13 12
f 13 22 29
f 13 29 24
f 13 24 23
f 14 25 31
f 14 31 37
f 14 37 33
f 14 33 26
f 14 26 15
f 16 26 33
f 16 33 27
f 16 27 28
f 16 28 18
f 16 18 17
f 20 29 21
f 21 29 22
f 23 24 30
f 24 29 40
f 24 40 30
f 25 32 39
f 25 39 42
f 25 42 36
f 25 36 35
f 25 35 34
f 25 34 41
f 25 41 31
f 27 34 35
f 27 35 36
f 27 36 28
f 27 33 37
f 27 37 34
f 28 36 38
f 29 39 40
f 30 40 39
f 30 39 32
f 31 41 37
f 34 37 41
f 36 42 38

