# https://github.com/mikedh/trimesh
v 0.01150486 -0.00127702 0.01532386
v 0.01200338 -0.00199536 0.00821851
v 0.01150486 -0.00127702 0.01376936
v 0.01083661 -0.00127702 0.01515815
v 0.01150486 -0.00196277 0.01529014
v 0.01237219 -0.01273492 0.00850043
v 0.01237219 -0.01181398 0.00850043
v 0.01237187 -0.01095680 0.00850043
v 0.01199951 -0.00200102 0.00950041
v 0.01200338 -0.00199536 0.00814749
v 0.01199951 -0.00199536 0.00800689
v 0.00908678 -0.00127702 0.01316966
v 0.00929199 -0.00127702 0.01477437
v 0.01109991 -0.00196135 0.01518971
v 0.01150486 -0.00301264 0.01523778
v 0.01150486 -0.01311321 0.01288774
v 0.01150486 -0.01412341 0.01224499
v 0.01150486 -0.01450596 0.01199751
v 0.01150486 -0.01479641 0.01173137
v 0.01150421 -0.01534614 0.01122420
v 0.01150421 -0.01565359 0.01093583
v 0.01150421 -0.01575135 0.01080527
v 0.01237219 -0.01273492 0.00800115
v 0.01150486 -0.00517755 0.01498886
v 0.01150486 -0.00614808 0.01487408
v 0.01150486 -0.00819965 0.01447595
v 0.01150486 -0.00907242 0.01430235
v 0.01150486 -0.01078678 0.01380666
v 0.01150486 -0.01148386 0.01360078
v 0.01150486 -0.01265274 0.01309075
v 0.01237219 -0.01181398 0.00800115
v 0.01237187 -0.01095680 0.00800115
v 0.01200338 -0.00200102 0.00800689
v 0.01199887 -0.01095680 0.00799541
v 0.00950140 -0.01095680 0.00799541
v 0.00950044 -0.00200244 0.00800689
v 0.00908678 -0.00127702 0.01471555
v 0.00907613 -0.01388822 0.00939353
v 0.00907580 -0.01388680 0.00950615
v 0.00907580 -0.01319256 0.01004560
v 0.00907613 -0.01205343 0.01080384
v 0.00927521 -0.00285537 0.01469187
v 0.00917196 -0.01113107 0.01303480
v 0.00915970 -0.01194716 0.01267038
v 0.00914711 -0.01272925 0.01231960
v 0.01039584 -0.01431894 0.01173137
v 0.01150421 -0.01479641 0.01173137
v 0.00912291 -0.01409933 0.01142721
v 0.01072400 -0.01545665 0.01080527
v 0.01095374 -0.01555441 0.01080527
v 0.00950108 -0.01388680 0.00799541
v 0.01199951 -0.01388680 0.00799541
v 0.00924004 -0.00591431 0.01431957
v 0.00920390 -0.00877205 0.01374067
v 0.00950044 -0.01181398 0.00799541
v 0.00907580 -0.01294886 0.01080384
v 0.00907580 -0.01388680 0.01080384
v 0.00908678 -0.00196135 0.01468183
v 0.00950044 -0.01216677 0.00799541
v 0.00908742 -0.01474682 0.01080527
v 0.00907580 -0.01294886 0.01036912
v 0.00908678 -0.00283979 0.01463807
v 0.00908678 -0.00575987 0.01429303
v 0.00908678 -0.01105739 0.01302906
v 0.00908678 -0.01111690 0.01301041
v 0.00908678 -0.01269100 0.01231601
v 0.00908678 -0.01271933 0.01230310
v 0.00908742 -0.01409366 0.01141717
v 0.00910969 -0.01475674 0.01080527
v 0.00908678 -0.00589730 0.01427509
v 0.00908678 -0.00875505 0.01370767
v 0.00908678 -0.01360344 0.01173137
f 1 2 10
f 1 10 3
f 1 3 12
f 1 12 37
f 1 37 13
f 1 13 4
f 1 4 5
f 1 5 6
f 1 6 7
f 1 7 8
f 1 8 9
f 1 9 2
f 2 9 8
f 2 8 32
f 2 32 10
f 3 10 11
f 3 11 12
f 4 13 14
f 4 14 5
f 5 14 15
f 5 15 6
f 6 16 17
f 6 17 18
f 6 18 19
f 6 19 20
f 6 20 21
f 6 21 22
f 6 22 23
f 6 23 31
f 6 31 7
f 6 15 24
f 6 24 25
f 6 25 26
f 6 26 27
f 6 27 28
f 6 28 29
f 6 29 30
f 6 30 16
f 7 31 32
f 7 32 8
f 10 32 33
f 10 33 11
f 11 33 34
f 11 34 35
f 11 35 36
f 11 36 12
f 12 36 38
f 12 38 39
f 12 39 40
f 12 40 41
f 12 41 37
f 13 37 42
f 13 42 14
f 14 42 15
f 15 42 24
f 16 30 43
f 16 43 44
f 16 44 45
f 16 45 17
f 17 46 18
f 17 45 46
f 18 46 47
f 18 47 19
f 19 47 20
f 20 47 46
f 20 46 48
f 20 48 49
f 20 49 21
f 21 49 50
f 21 50 22
f 22 50 51
f 22 51 52
f 22 52 23
f 23 52 31
f 24 42 25
f 25 42 53
f 25 53 26
f 26 53 27
f 27 53 54
f 27 54 28
f 28 54 43
f 28 43 29
f 29 43 30
f 31 52 34
f 31 34 32
f 32 34 33
f 34 52 51
f 34 51 59
f 34 59 55
f 34 55 35
f 35 55 36
f 36 55 38
f 37 41 56
f 37 56 57
f 37 57 58
f 37 58 42
f 38 55 59
f 38 59 51
f 38 51 60
f 38 60 39
f 39 60 57
f 39 57 56
f 39 56 61
f 39 61 40
f 40 61 41
f 41 61 56
f 42 58 62
f 42 62 63
f 42 63 53
f 43 54 64
f 43 64 65
f 43 65 44
f 44 66 45
f 44 65 66
f 45 66 67
f 45 67 48
f 45 48 46
f 48 68 60
f 48 60 69
f 48 69 49
f 48 67 68
f 49 69 51
f 49 51 50
f 51 69 60
f 53 63 70
f 53 70 71
f 53 71 54
f 54 71 64
f 57 60 68
f 57 68 72
f 57 72 67
f 57 67 66
f 57 66 65
f 57 65 64
f 57 64 71
f 57 71 70
f 57 70 63
f 57 63 62
f 57 62 58
f 67 72 68

