# https://github.com/mikedh/trimesh
v 0.04402774 -0.00399915 0.00800000
v 0.04402774 -0.00400498 0.00800000
v 0.04402774 -0.00399915 0.00191054
v 0.04070973 -0.00399915 0.00799940
v 0.04067128 -0.01250494 0.00800000
v 0.04402774 -0.00740896 0.00799940
v 0.04402413 -0.01248745 0.00800000
v 0.04070973 -0.00399915 0.00191054
v 0.04402774 -0.00740896 0.00191054
v 0.04067128 -0.00742145 0.00799940
v 0.04067128 -0.01250494 0.00191054
v 0.04402248 -0.01250494 0.00800000
v 0.04402413 -0.01250494 0.00797973
v 0.04067128 -0.00742145 0.00191054
v 0.04402413 -0.01250494 0.00191054
f 1 2 6
f 1 6 9
f 1 9 3
f 1 3 8
f 1 8 4
f 1 4 5
f 1 5 12
f 1 12 7
f 1 7 2
f 2 7 6
f 3 9 15
f 3 15 11
f 3 11 14
f 3 14 8
f 4 8 14
f 4 14 10
f 4 10 5
f 5 10 14
f 5 14 11
f 5 11 15
f 5 15 13
f 5 13 12
f 6 7 13
f 6 13 15
f 6 15 9
f 7 12 13

