# https://github.com/mikedh/trimesh
v 0.06216105 -0.00320106 0.00642076
v 0.06229149 -0.00320106 0.00630694
v 0.06380271 -0.00320000 0.00378723
v 0.06199487 -0.00320106 0.00642076
v 0.06242268 -0.00337443 0.00642076
v 0.06371334 -0.00320106 0.00409323
v 0.06356199 -0.00320000 0.00378723
v 0.06431874 -0.00370004 0.00378723
v 0.06442979 -0.00370004 0.00340948
v 0.06439670 -0.00320106 0.00176486
v 0.06391337 -0.00320000 0.00340948
v 0.06199487 -0.00320106 0.00426808
v 0.06106586 -0.00320211 0.00642076
v 0.06280676 -0.00370215 0.00642076
v 0.06416815 -0.00370215 0.00430025
v 0.06371753 -0.00320000 0.00340948
v 0.06379244 -0.00320106 -0.00200357
v 0.06495076 -0.00370215 0.00163785
v 0.06445488 -0.00320423 0.00156774
v 0.06445564 -0.00320211 0.00041222
v 0.06445564 -0.00320106 -0.00106579
v 0.06106586 -0.00320211 0.00540793
v 0.06106586 -0.00680070 0.00642076
v 0.06280676 -0.00681233 0.00642076
v 0.06416815 -0.00681233 0.00430025
v 0.06417956 -0.00320211 -0.00200357
v 0.06379244 -0.00320317 -0.00200522
v 0.06298283 -0.00320317 -0.00200522
v 0.06495076 -0.00634189 0.00089142
v 0.06495076 -0.00802913 0.00041305
v 0.06495038 -0.00370110 -0.00113672
v 0.06495038 -0.00370110 0.00041222
v 0.06466670 -0.00341460 0.00041222
v 0.06431874 -0.01349891 0.00378723
v 0.06495038 -0.01349891 0.00163785
v 0.06469560 -0.00370110 -0.00200357
v 0.06435715 -0.00337337 -0.00200357
v 0.06106586 -0.00350235 0.00378723
v 0.06143472 -0.00681233 0.00642076
v 0.06106586 -0.00681233 0.00547968
v 0.06106624 -0.01349679 0.00549453
v 0.06117462 -0.01399894 0.00578485
v 0.06143472 -0.01399894 0.00641994
v 0.06216105 -0.01399894 0.00641994
v 0.06242268 -0.01382451 0.00641994
v 0.06275657 -0.01354013 0.00641994
v 0.06280600 -0.01349679 0.00641994
v 0.06411377 -0.01323356 0.00438437
v 0.06416739 -0.01349679 0.00430025
v 0.06379244 -0.01400000 -0.00200522
v 0.06297979 -0.00350235 -0.00200109
v 0.06297979 -0.00409859 -0.00200522
v 0.06495038 -0.01349996 0.00089060
v 0.06495038 -0.01349996 0.00041305
v 0.06495038 -0.01349891 -0.00113672
v 0.06371220 -0.01399894 0.00409240
v 0.06380271 -0.01399894 0.00378723
v 0.06391337 -0.01400000 0.00340948
v 0.06426132 -0.01366277 0.00340948
v 0.06435905 -0.01383191 0.00248407
v 0.06445526 -0.01399894 0.00156692
v 0.06445564 -0.01400000 0.00089060
v 0.06469560 -0.01349891 -0.00200357
v 0.06106586 -0.00681128 0.00378723
v 0.06106586 -0.00681233 0.00529988
v 0.06106624 -0.01349679 0.00472666
v 0.06116625 -0.01399894 0.00553494
v 0.06303835 -0.01400000 -0.00200522
v 0.06387154 -0.01400000 0.00340948
v 0.06229149 -0.01399894 0.00630694
v 0.06388485 -0.01350525 0.00472666
v 0.06389359 -0.01349679 0.00472666
v 0.06417956 -0.01400000 -0.00200357
v 0.06297979 -0.01349891 -0.00200522
v 0.06445564 -0.01400000 0.00041222
v 0.06445564 -0.01399894 -0.00106579
v 0.06418527 -0.01400000 0.00248407
v 0.06106662 -0.01349679 0.00378723
f 1 2 3
f 1 3 7
f 1 7 4
f 1 4 13
f 1 13 23
f 1 23 39
f 1 39 24
f 1 24 14
f 1 14 5
f 1 5 2
f 2 6 3
f 2 5 6
f 3 6 8
f 3 8 9
f 3 9 10
f 3 10 11
f 3 11 16
f 3 16 7
f 4 7 12
f 4 12 22
f 4 22 13
f 5 14 15
f 5 15 6
f 6 15 8
f 7 16 17
f 7 17 12
f 8 15 9
f 9 15 18
f 9 18 10
f 10 19 20
f 10 20 21
f 10 21 11
f 10 18 19
f 11 21 17
f 11 17 16
f 12 17 22
f 13 22 38
f 13 38 64
f 13 64 65
f 13 65 40
f 13 40 23
f 14 24 25
f 14 25 15
f 15 25 18
f 17 21 26
f 17 26 27
f 17 27 28
f 17 28 22
f 18 29 30
f 18 30 31
f 18 31 32
f 18 32 33
f 18 33 20
f 18 20 19
f 18 25 34
f 18 34 35
f 18 35 29
f 20 33 21
f 21 33 32
f 21 32 31
f 21 31 36
f 21 36 37
f 21 37 26
f 22 28 38
f 23 40 41
f 23 41 42
f 23 42 43
f 23 43 39
f 24 39 43
f 24 43 44
f 24 44 45
f 24 45 46
f 24 46 47
f 24 47 48
f 24 48 25
f 25 48 49
f 25 49 34
f 26 37 27
f 27 37 36
f 27 36 63
f 27 63 50
f 27 50 68
f 27 68 74
f 27 74 52
f 27 52 28
f 28 51 38
f 28 52 51
f 29 35 30
f 30 35 53
f 30 53 54
f 30 54 55
f 30 55 31
f 31 55 63
f 31 63 36
f 34 49 56
f 34 56 57
f 34 57 58
f 34 58 59
f 34 59 35
f 35 59 60
f 35 60 61
f 35 61 62
f 35 62 53
f 38 51 52
f 38 52 74
f 38 74 64
f 40 65 66
f 40 66 41
f 41 66 67
f 41 67 42
f 42 67 68
f 42 68 69
f 42 69 43
f 43 69 58
f 43 58 44
f 44 58 70
f 44 70 45
f 45 70 46
f 46 70 71
f 46 71 47
f 47 71 72
f 47 72 48
f 48 72 49
f 49 72 71
f 49 71 56
f 50 63 73
f 50 73 75
f 50 75 62
f 50 62 77
f 50 77 58
f 50 58 69
f 50 69 68
f 53 62 75
f 53 75 54
f 54 75 55
f 55 75 76
f 55 76 73
f 55 73 63
f 56 70 58
f 56 58 57
f 56 71 70
f 58 77 60
f 58 60 59
f 60 77 61
f 61 77 62
f 64 74 78
f 64 78 66
f 64 66 65
f 66 78 67
f 67 78 68
f 68 78 74
f 73 76 75

