# https://github.com/mikedh/trimesh
v 0.04832718 -0.01399705 0.00161038
v 0.04832718 -0.01399705 0.00176426
v 0.04832718 -0.01399571 -0.00200424
v 0.05330908 -0.01569866 0.00019738
v 0.05341025 -0.01569866 0.00025052
v 0.05512679 -0.01569866 0.00115057
v 0.04980078 -0.01419551 0.00176390
v 0.05330176 -0.01419551 0.00176463
v 0.04832718 -0.00350449 0.00176426
v 0.04832718 -0.00350315 -0.00200424
v 0.04909260 -0.00317999 -0.00200534
v 0.04979413 -0.01399705 -0.00200461
v 0.05020080 -0.01419551 -0.00200461
v 0.05483326 -0.01569866 -0.00194445
v 0.05399130 -0.01569866 -0.00151159
v 0.05344153 -0.01569866 -0.00073958
v 0.05330176 -0.01419953 0.00176390
v 0.05300091 -0.01419953 0.00176390
v 0.05512679 -0.01569866 0.00025052
v 0.05512679 -0.01349690 0.00176463
v 0.05436270 -0.01419551 0.00176463
v 0.05330176 -0.00200402 0.00176463
v 0.04832718 -0.00350315 0.00041695
v 0.04975885 -0.00200134 0.00176426
v 0.04962374 -0.00200134 0.00146794
v 0.04953189 -0.00200134 0.00031030
v 0.04946333 -0.00200134 -0.00056171
v 0.04986402 -0.00200134 -0.00200534
v 0.05330242 -0.00317999 -0.00200534
v 0.05330309 -0.01419685 -0.00200461
v 0.05512612 -0.01569866 -0.00194298
v 0.05512612 -0.01419685 -0.00200461
v 0.05512679 -0.00350315 0.00025052
v 0.05512679 -0.00350315 0.00176463
v 0.05398997 -0.00200402 0.00176463
v 0.05330242 -0.00200134 0.00176426
v 0.05330242 -0.00200000 0.00120371
v 0.05330242 -0.00200000 0.00112954
v 0.05330242 -0.00200134 -0.00200534
v 0.05512612 -0.00349645 -0.00200461
v 0.05512612 -0.00349645 -0.00198726
v 0.05438998 -0.00220382 0.00176463
v 0.05436935 -0.00218907 0.00176463
f 1 2 9
f 1 9 23
f 1 23 10
f 1 10 3
f 1 3 4
f 1 4 2
f 2 4 5
f 2 5 6
f 2 6 7
f 2 7 8
f 2 8 22
f 2 22 9
f 3 10 11
f 3 11 12
f 3 12 13
f 3 13 14
f 3 14 15
f 3 15 16
f 3 16 4
f 4 16 15
f 4 15 14
f 4 14 31
f 4 31 19
f 4 19 6
f 4 6 5
f 6 17 18
f 6 18 7
f 6 19 33
f 6 33 34
f 6 34 20
f 6 20 21
f 6 21 17
f 7 18 8
f 8 18 17
f 8 17 21
f 8 21 20
f 8 20 34
f 8 34 42
f 8 42 43
f 8 43 35
f 8 35 22
f 9 22 24
f 9 24 25
f 9 25 26
f 9 26 27
f 9 27 23
f 10 23 27
f 10 27 28
f 10 28 11
f 11 28 39
f 11 39 29
f 11 29 32
f 11 32 30
f 11 30 13
f 11 13 12
f 13 30 14
f 14 30 32
f 14 32 31
f 19 31 32
f 19 32 40
f 19 40 33
f 22 35 36
f 22 36 24
f 24 36 37
f 24 37 25
f 25 37 26
f 26 37 27
f 27 37 38
f 27 38 28
f 28 38 39
f 29 39 40
f 29 40 32
f 33 40 41
f 33 41 34
f 34 41 42
f 35 43 39
f 35 39 38
f 35 38 37
f 35 37 36
f 39 43 42
f 39 42 40
f 40 42 41

