# https://github.com/mikedh/trimesh
v 0.04556018 0.01082510 0.01437052
v 0.04556018 0.01082510 0.01607294
v 0.04556018 0.01224274 0.01374436
v 0.04556261 0.00887256 0.01500984
v 0.04556261 0.01082510 0.01607294
v 0.04556018 0.01102192 0.01601895
v 0.04556261 0.00887256 0.01654483
v 0.04556261 0.00958674 0.01640735
v 0.04556261 0.00962181 0.01640054
v 0.04556261 0.00966371 0.01639011
v 0.04556018 0.01224274 0.01547310
v 0.04987438 0.01224274 0.01269622
v 0.04606270 0.00228906 0.01583655
v 0.04566652 0.01082510 0.01605933
v 0.04566713 0.01101607 0.01600670
v 0.04565801 0.00961694 0.01639056
v 0.04556018 0.01104920 0.01600987
v 0.04606270 0.00228906 0.01733161
v 0.04606270 0.00256674 0.01732163
v 0.04606270 0.00307339 0.01730167
v 0.04606270 0.00554427 0.01703941
v 0.04606999 0.00603825 0.01698541
v 0.04606999 0.00649034 0.01693278
v 0.04565254 0.00887256 0.01653394
v 0.04567320 0.01224274 0.01545223
v 0.04556018 0.01187835 0.01568409
v 0.04567199 0.01181209 0.01570224
v 0.04987073 0.01224274 0.01456426
v 0.04992724 0.01208198 0.01466227
v 0.05015936 0.01135514 0.01324706
v 0.05031613 0.01082510 0.01343673
v 0.05037811 0.01061465 0.01351205
v 0.05044677 0.01036620 0.01360234
v 0.05125978 0.00680017 0.01455655
v 0.05144268 0.00554427 0.01472806
v 0.05158062 0.00458846 0.01485829
v 0.05159884 0.00442672 0.01487644
v 0.05176655 0.00228906 0.01505748
v 0.04894288 0.00942013 0.01592956
v 0.04605844 0.01082510 0.01599762
v 0.04830486 0.01082510 0.01562329
v 0.04893862 0.00887256 0.01604390
v 0.04813230 0.00716360 0.01652078
v 0.04556018 0.01181989 0.01571540
v 0.04630940 0.00228906 0.01730257
v 0.04889123 0.00301006 0.01695819
v 0.04653179 0.00554525 0.01698133
v 0.04891918 0.00638024 0.01656207
v 0.04606999 0.00716360 0.01680392
v 0.04781086 0.01224274 0.01502935
v 0.04895625 0.01155390 0.01520313
v 0.04895260 0.01077834 0.01552891
v 0.04909175 0.01082510 0.01548445
v 0.05020615 0.01119827 0.01512645
v 0.04979235 0.01224274 0.01458786
v 0.05012959 0.01144965 0.01499940
v 0.05031613 0.01082510 0.01409510
v 0.05048262 0.01024343 0.01540595
v 0.05079859 0.00901968 0.01410962
v 0.05083322 0.00887256 0.01415227
v 0.05118748 0.00716360 0.01484014
v 0.05137523 0.00610743 0.01620770
v 0.05083383 0.00887256 0.01416089
v 0.05159884 0.00442770 0.01640780
v 0.05167298 0.00367357 0.01647904
v 0.05176716 0.00228906 0.01513643
v 0.05004087 0.00887256 0.01587058
v 0.05079798 0.00902066 0.01569861
v 0.04927100 0.00716360 0.01634519
v 0.04888394 0.00228906 0.01698723
v 0.05017273 0.00228906 0.01681390
v 0.05175197 0.00228906 0.01657069
v 0.04891310 0.00554427 0.01666053
v 0.05006700 0.00554525 0.01649583
v 0.05144997 0.00554525 0.01627486
v 0.04969027 0.00716360 0.01627894
v 0.05081925 0.00893297 0.01413730
v 0.05093531 0.00842535 0.01582203
v 0.05117472 0.00716360 0.01603211
f 1 2 6
f 1 6 17
f 1 17 44
f 1 44 26
f 1 26 11
f 1 11 3
f 1 3 4
f 1 4 7
f 1 7 2
f 2 5 6
f 2 7 8
f 2 8 9
f 2 9 10
f 2 10 5
f 3 11 25
f 3 25 50
f 3 50 55
f 3 55 28
f 3 28 12
f 3 12 13
f 3 13 4
f 4 13 18
f 4 18 7
f 5 14 15
f 5 15 6
f 5 10 16
f 5 16 14
f 6 15 17
f 7 18 19
f 7 19 20
f 7 20 21
f 7 21 22
f 7 22 23
f 7 23 24
f 7 24 16
f 7 16 8
f 8 16 9
f 9 16 10
f 11 26 27
f 11 27 25
f 12 28 29
f 12 29 30
f 12 30 31
f 12 31 32
f 12 32 33
f 12 33 34
f 12 34 35
f 12 35 36
f 12 36 37
f 12 37 38
f 12 38 13
f 13 38 66
f 13 66 72
f 13 72 71
f 13 71 70
f 13 70 45
f 13 45 18
f 14 16 39
f 14 39 40
f 14 40 15
f 15 40 41
f 15 41 27
f 15 27 17
f 16 42 39
f 16 24 43
f 16 43 42
f 17 27 44
f 18 45 19
f 19 45 20
f 20 45 46
f 20 46 47
f 20 47 21
f 21 47 22
f 22 47 23
f 23 48 43
f 23 43 49
f 23 49 24
f 23 47 48
f 24 49 43
f 25 27 51
f 25 51 50
f 26 44 27
f 27 41 52
f 27 52 53
f 27 53 54
f 27 54 51
f 28 55 29
f 29 51 56
f 29 56 30
f 29 55 50
f 29 50 51
f 30 56 54
f 30 54 31
f 31 54 57
f 31 57 32
f 32 58 33
f 32 57 58
f 33 58 59
f 33 59 60
f 33 60 34
f 34 61 62
f 34 62 35
f 34 60 63
f 34 63 61
f 35 62 36
f 36 62 64
f 36 64 37
f 37 64 65
f 37 65 38
f 38 65 66
f 39 42 67
f 39 67 68
f 39 68 58
f 39 58 52
f 39 52 41
f 39 41 40
f 42 43 48
f 42 48 69
f 42 69 67
f 45 70 46
f 46 70 71
f 46 71 72
f 46 72 65
f 46 65 64
f 46 64 73
f 46 73 47
f 47 73 48
f 48 73 64
f 48 64 74
f 48 74 75
f 48 75 62
f 48 62 76
f 48 76 69
f 51 54 56
f 52 58 53
f 53 58 54
f 54 58 57
f 58 68 59
f 59 68 63
f 59 63 77
f 59 77 60
f 60 77 63
f 61 78 62
f 61 63 78
f 62 78 79
f 62 79 76
f 62 75 64
f 63 68 78
f 64 75 74
f 65 72 66
f 67 69 78
f 67 78 68
f 69 76 78
f 76 79 78

