# https://github.com/mikedh/trimesh
v 0.03068970 -0.01599975 0.00191054
v 0.03068970 -0.01599975 0.00747972
v 0.03068970 -0.01349737 0.00191054
v 0.04016395 -0.01600112 0.00191054
v 0.03068970 -0.01599907 0.00849904
v 0.04402322 -0.01599975 0.00849969
v 0.03068970 -0.01349737 0.00799809
v 0.03069120 -0.01250587 0.00191118
v 0.04402172 -0.01349737 0.00191054
v 0.04402172 -0.01599907 0.00191054
v 0.04539960 -0.01599975 0.00191118
v 0.04541160 -0.01599975 0.00354120
v 0.04542359 -0.01599975 0.00528678
v 0.04402472 -0.01600010 0.00614730
v 0.04479987 -0.01599975 0.00849969
v 0.03068970 -0.01350045 0.00849969
v 0.04529915 -0.01400031 0.00850550
v 0.04479688 -0.01386414 0.00850550
v 0.04444153 -0.01350695 0.00850550
v 0.03069120 -0.01250587 0.00799874
v 0.04402172 -0.01250587 0.00191118
v 0.04559901 -0.01404719 0.00191118
v 0.04559901 -0.01599941 0.00191118
v 0.04559901 -0.01599941 0.00547076
v 0.04545808 -0.01599941 0.00699942
v 0.04529915 -0.01586564 0.00849969
v 0.04600683 -0.01400031 0.00850550
v 0.04402172 -0.01250826 0.00849904
v 0.04600683 -0.01350695 0.00850550
v 0.03232697 -0.01250587 0.00799874
v 0.04402172 -0.01250587 0.00797808
v 0.04600683 -0.01350695 0.00849969
v 0.04600683 -0.01400031 0.00849969
v 0.04579993 -0.01499969 0.00849969
v 0.04566499 -0.01549921 0.00849969
v 0.04556153 -0.01592346 0.00738159
v 0.04402022 -0.01250587 0.00799809
f 1 2 5
f 1 5 16
f 1 16 7
f 1 7 3
f 1 3 9
f 1 9 10
f 1 10 4
f 1 4 2
f 2 4 6
f 2 6 5
f 3 7 20
f 3 20 8
f 3 8 21
f 3 21 9
f 4 10 11
f 4 11 12
f 4 12 13
f 4 13 14
f 4 14 15
f 4 15 6
f 5 6 17
f 5 17 18
f 5 18 19
f 5 19 16
f 6 15 27
f 6 27 17
f 7 16 20
f 8 20 30
f 8 30 37
f 8 37 31
f 8 31 21
f 9 21 22
f 9 22 23
f 9 23 10
f 10 23 11
f 11 23 12
f 12 23 13
f 13 23 24
f 13 24 25
f 13 25 15
f 13 15 14
f 15 25 26
f 15 26 27
f 16 28 20
f 16 19 28
f 17 27 29
f 17 29 19
f 17 19 18
f 19 29 28
f 20 28 30
f 21 31 29
f 21 29 32
f 21 32 22
f 22 32 33
f 22 33 23
f 23 33 27
f 23 27 24
f 24 27 34
f 24 34 35
f 24 35 36
f 24 36 25
f 25 36 26
f 26 36 35
f 26 35 27
f 27 35 34
f 27 33 32
f 27 32 29
f 28 31 37
f 28 37 30
f 28 29 31

