# https://github.com/mikedh/trimesh
v 0.01752600 0.01120127 0.00799991
v 0.01752600 0.00584788 0.00799991
v 0.01752600 0.01120127 0.00336869
v 0.01730757 0.01120127 0.00819954
v 0.01730757 0.00350014 0.00819954
v 0.01749680 0.00319040 0.00799991
v 0.01752600 0.00584788 0.00336869
v 0.01179712 0.01120127 0.00336869
v 0.01179712 0.01120127 0.00819904
v 0.00648022 0.01119970 0.00850577
v 0.01099910 0.01119970 0.00850577
v 0.01178955 0.00319118 0.00849924
v 0.01749680 0.00319040 0.00336869
v 0.01433067 0.00319040 0.00799991
v 0.00648022 0.01119970 0.00336869
v 0.00647914 0.01028539 0.00850577
v 0.01100018 0.00580005 0.00850577
v 0.01100018 0.00421058 0.00850577
v 0.01099910 0.00419803 0.00850577
v 0.01092341 0.00381772 0.00850577
v 0.01090935 0.00378479 0.00850577
v 0.01070498 0.00349230 0.00850577
v 0.01038058 0.00327666 0.00850577
v 0.01000103 0.00320216 0.00850577
v 0.00650185 0.00319118 0.00849924
v 0.01179712 0.00319040 0.00336869
v 0.01179712 0.00319040 0.00799186
v 0.00647914 0.01028539 0.00336869
v 0.00647914 0.00320216 0.00850577
v 0.00650185 0.00319118 0.00800091
v 0.00969934 0.00319118 0.00336970
v 0.00647914 0.00350092 0.00336919
v 0.00648022 0.00755654 0.00336869
v 0.00647914 0.00928011 0.00336869
v 0.00647914 0.00320216 0.00799941
f 1 2 7
f 1 7 3
f 1 3 8
f 1 8 9
f 1 9 4
f 1 4 5
f 1 5 2
f 2 5 6
f 2 6 13
f 2 13 7
f 3 7 13
f 3 13 26
f 3 26 33
f 3 33 34
f 3 34 28
f 3 28 15
f 3 15 8
f 4 9 10
f 4 10 11
f 4 11 12
f 4 12 5
f 5 12 6
f 6 12 25
f 6 25 14
f 6 14 27
f 6 27 26
f 6 26 13
f 8 15 10
f 8 10 9
f 10 15 28
f 10 28 16
f 10 16 29
f 10 29 24
f 10 24 23
f 10 23 22
f 10 22 21
f 10 21 20
f 10 20 19
f 10 19 18
f 10 18 17
f 10 17 11
f 11 17 12
f 12 17 18
f 12 18 19
f 12 19 20
f 12 20 21
f 12 21 22
f 12 22 23
f 12 23 24
f 12 24 29
f 12 29 25
f 14 25 27
f 16 28 34
f 16 34 32
f 16 32 35
f 16 35 29
f 25 29 35
f 25 35 30
f 25 30 26
f 25 26 27
f 26 30 31
f 26 31 32
f 26 32 33
f 30 35 32
f 30 32 31
f 32 34 33

