# https://github.com/mikedh/trimesh
v 0.04430039 -0.00580037 0.00850310
v 0.04437646 -0.00618237 0.00850310
v 0.04432010 -0.00599529 0.00951917
v 0.04430039 -0.00580037 0.00949939
v 0.04430039 -0.00550658 0.00850310
v 0.04560453 -0.00740876 0.00797855
v 0.04437685 -0.00618309 0.00957596
v 0.04600771 -0.00967730 0.00800664
v 0.04600771 -0.00967730 0.00850409
v 0.04430039 -0.00550658 0.00949939
v 0.04560453 -0.00610413 0.00797855
v 0.04430079 -0.00420052 0.00850310
v 0.04832630 -0.00740876 0.00797855
v 0.04718967 -0.01046122 0.00800664
v 0.04459401 -0.00650747 0.00979263
v 0.04480092 -0.00666610 0.00999961
v 0.04480092 -0.00420052 0.00999961
v 0.04718967 -0.01046122 0.00850409
v 0.04430079 -0.00420052 0.00949899
v 0.04437843 -0.00381710 0.00850310
v 0.04653622 -0.00319465 0.00800091
v 0.04653622 -0.00350054 0.00797855
v 0.04437764 -0.00381781 0.00949899
v 0.04832630 -0.00740876 0.00800011
v 0.04832591 -0.01046122 0.00849994
v 0.04829950 -0.01046122 0.00800664
v 0.04832630 -0.00350054 0.00797855
v 0.04491837 -0.00672372 0.00999961
v 0.04539762 -0.00550658 0.01000000
v 0.04483915 -0.00400916 0.00999961
v 0.04832591 -0.01046122 0.00850409
v 0.04832630 -0.00680695 0.00999980
v 0.04530066 -0.00679984 0.00999961
v 0.04459480 -0.00349343 0.00850310
v 0.04653622 -0.00319465 0.00845403
v 0.04829911 -0.00319465 0.00800091
v 0.04491955 -0.00327646 0.00850310
v 0.04530145 -0.00320106 0.00850310
v 0.04459401 -0.00349414 0.00949899
v 0.04832630 -0.00320106 0.00850310
v 0.04630054 -0.00640005 0.00999980
v 0.04540274 -0.00550658 0.01000000
v 0.04540116 -0.00550018 0.01000000
v 0.04494793 -0.00384697 0.00999961
v 0.04832630 -0.00471839 0.00999980
v 0.04491837 -0.00327717 0.00949899
v 0.04746831 -0.00319465 0.00847916
v 0.04530145 -0.00320106 0.00949899
v 0.04631079 -0.00320034 0.00949899
v 0.04829832 -0.00319465 0.00850014
v 0.04832630 -0.00320034 0.00949899
v 0.04510952 -0.00373885 0.00999961
v 0.04631079 -0.00370043 0.00999980
v 0.04832630 -0.00370043 0.00999961
v 0.04530145 -0.00370043 0.00999961
f 1 2 3
f 1 3 4
f 1 4 10
f 1 10 5
f 1 5 11
f 1 11 6
f 1 6 2
f 2 7 3
f 2 6 8
f 2 8 9
f 2 9 7
f 3 10 4
f 3 7 10
f 5 10 19
f 5 19 12
f 5 12 11
f 6 13 26
f 6 26 14
f 6 14 8
f 6 11 22
f 6 22 27
f 6 27 13
f 7 9 15
f 7 15 16
f 7 16 17
f 7 17 10
f 8 14 18
f 8 18 9
f 9 18 16
f 9 16 15
f 10 17 19
f 11 12 20
f 11 20 21
f 11 21 22
f 12 19 23
f 12 23 20
f 13 24 31
f 13 31 25
f 13 25 26
f 13 27 40
f 13 40 51
f 13 51 54
f 13 54 45
f 13 45 32
f 13 32 24
f 14 26 25
f 14 25 31
f 14 31 18
f 16 18 28
f 16 28 29
f 16 29 17
f 17 30 19
f 17 29 30
f 18 31 32
f 18 32 33
f 18 33 28
f 19 30 23
f 20 23 39
f 20 39 34
f 20 34 21
f 21 35 47
f 21 47 50
f 21 50 36
f 21 36 27
f 21 27 22
f 21 34 37
f 21 37 38
f 21 38 48
f 21 48 35
f 23 30 39
f 24 32 31
f 27 36 40
f 28 41 29
f 28 33 32
f 28 32 41
f 29 42 43
f 29 43 30
f 29 41 32
f 29 32 42
f 30 44 39
f 30 43 44
f 32 45 42
f 34 39 46
f 34 46 37
f 35 48 49
f 35 49 47
f 36 50 51
f 36 51 40
f 37 48 38
f 37 46 48
f 39 52 46
f 39 44 52
f 42 45 43
f 43 45 53
f 43 53 44
f 44 53 52
f 45 54 53
f 46 52 55
f 46 55 48
f 47 49 50
f 48 55 49
f 49 55 53
f 49 53 51
f 49 51 50
f 51 53 54
f 52 53 55

