# https://github.com/mikedh/trimesh
v 0.05899409 -0.00680559 0.00702359
v 0.05956262 -0.00680776 0.00676580
v 0.06056752 -0.00680776 0.00591644
v 0.06106373 -0.00680776 0.00549516
v 0.06106373 -0.00680776 0.00176599
v 0.05301706 -0.00680776 0.00176463
v 0.05459921 -0.00680559 0.00702359
v 0.05751915 -0.00680559 0.00768571
v 0.05820363 -0.01199145 0.00869517
v 0.06106373 -0.01349712 0.00549516
v 0.06106373 -0.01349712 0.00176599
v 0.06056502 -0.01350725 0.00176463
v 0.04833044 -0.00680776 0.00176463
v 0.05459921 -0.00680559 0.00799913
v 0.05529865 -0.00680559 0.00799913
v 0.05029660 -0.00920162 0.00848012
v 0.05756778 -0.01199145 0.00869517
v 0.05820363 -0.01306568 0.00869517
v 0.06059744 -0.01419928 0.00574820
v 0.06079942 -0.01419928 0.00499925
v 0.06079942 -0.01419928 0.00176531
v 0.06056502 -0.01419928 0.00176463
v 0.04833044 -0.01350653 0.00176463
v 0.04832670 -0.01350725 0.00176531
v 0.04832794 -0.00727973 0.00702291
v 0.04833044 -0.00680776 0.00702224
v 0.04832794 -0.00727973 0.00799913
v 0.04880172 -0.00920162 0.00848012
v 0.05756778 -0.01306568 0.00869517
v 0.05929830 -0.01419928 0.00649851
v 0.06004761 -0.01420000 0.00629770
v 0.04973555 -0.01353114 0.00848012
v 0.05029660 -0.01353114 0.00847944
v 0.05761142 -0.01420000 0.00176463
v 0.04980163 -0.01419928 0.00176531
v 0.04832670 -0.01399949 0.00176531
v 0.05621254 -0.01419928 0.00176463
v 0.04832670 -0.01350725 0.00478012
v 0.04832794 -0.01349856 0.00799913
v 0.04880172 -0.01353114 0.00848012
v 0.05530613 -0.01419928 0.00649919
v 0.05072798 -0.01420000 0.00638454
v 0.05300459 -0.01420000 0.00176531
v 0.04980163 -0.01419928 0.00499992
v 0.04832670 -0.01399949 0.00459356
v 0.05024174 -0.01419928 0.00605959
v 0.05130150 -0.01419928 0.00649919
v 0.04991633 -0.01419928 0.00557317
f 1 2 3
f 1 3 4
f 1 4 5
f 1 5 6
f 1 6 13
f 1 13 7
f 1 7 14
f 1 14 15
f 1 15 8
f 1 8 9
f 1 9 2
f 2 9 3
f 3 9 4
f 4 10 11
f 4 11 5
f 4 9 18
f 4 18 10
f 5 11 22
f 5 22 12
f 5 12 6
f 6 12 22
f 6 22 34
f 6 34 37
f 6 37 23
f 6 23 13
f 7 13 26
f 7 26 14
f 8 15 9
f 9 15 16
f 9 16 28
f 9 28 17
f 9 17 29
f 9 29 18
f 10 19 20
f 10 20 21
f 10 21 11
f 10 18 19
f 11 21 22
f 13 23 36
f 13 36 24
f 13 24 25
f 13 25 27
f 13 27 26
f 14 26 27
f 14 27 28
f 14 28 16
f 14 16 15
f 17 28 40
f 17 40 29
f 18 30 31
f 18 31 19
f 18 29 40
f 18 40 32
f 18 32 33
f 18 33 30
f 19 31 20
f 20 31 21
f 21 31 34
f 21 34 22
f 23 35 36
f 23 37 35
f 24 36 45
f 24 45 38
f 24 38 27
f 24 27 25
f 27 38 39
f 27 39 40
f 27 40 28
f 30 41 42
f 30 42 31
f 30 33 32
f 30 32 41
f 31 42 43
f 31 43 34
f 32 40 47
f 32 47 41
f 34 43 35
f 34 35 37
f 35 43 42
f 35 42 44
f 35 44 45
f 35 45 36
f 38 45 39
f 39 45 40
f 40 45 46
f 40 46 42
f 40 42 47
f 41 47 42
f 42 46 48
f 42 48 44
f 44 48 45
f 45 48 46

