# https://github.com/mikedh/trimesh
v 0.00907561 -0.01518767 -0.00288673
v 0.00907561 -0.01671736 -0.00288673
v 0.00907561 -0.01487205 -0.00561534
v 0.00907467 -0.01550535 0.00560656
v 0.00907467 -0.01686359 -0.00079470
v 0.00832191 -0.01671582 -0.00097702
v 0.00828512 -0.01657526 -0.00288673
v 0.00825683 -0.01645838 -0.00447816
v 0.00907561 -0.01661799 -0.00428812
v 0.00907467 -0.01708447 0.00560656
v 0.00907467 -0.01710661 0.00486183
v 0.00907467 -0.01709889 0.00429479
v 0.00907467 -0.01709425 0.00401204
v 0.00907561 -0.01640792 -0.00561534
v 0.00907467 -0.01432010 -0.00849846
v 0.00907278 -0.01512331 0.00728451
v 0.00773518 -0.01684196 0.00389307
v 0.00804364 -0.01665455 -0.00105427
v 0.00520523 -0.01578956 -0.00529242
v 0.00519769 -0.01574528 -0.00561534
v 0.00517128 -0.01555272 -0.00700282
v 0.00518543 -0.01555117 -0.00702754
v 0.00821343 -0.01607737 -0.00684368
v 0.00907467 -0.01608046 -0.00770738
v 0.00907278 -0.01681416 0.00728451
v 0.00907278 -0.01702166 0.00635438
v 0.00907278 -0.01704688 0.00614270
v 0.00907278 -0.01707984 0.00579042
v 0.00828890 -0.01695163 0.00429479
v 0.00758802 -0.01676061 0.00565909
v 0.00907467 -0.01600014 -0.00804111
v 0.00907467 -0.01588533 -0.00849846
v 0.00369123 -0.01344481 -0.00850000
v 0.00114525 -0.01184664 0.00728451
v 0.00770216 -0.01682394 0.00429479
v 0.00478924 -0.01620094 0.00363040
v 0.00526938 -0.01604339 -0.00182681
v 0.00467604 -0.01579934 -0.00344605
v 0.00216685 -0.01508984 -0.00561534
v 0.00413930 -0.01552955 -0.00561534
v 0.00215647 -0.01504608 -0.00621174
v 0.00212535 -0.01480409 -0.00790360
v 0.00513449 -0.01554139 -0.00702754
v 0.00289037 -0.01484888 -0.00849846
v 0.00596271 -0.01540855 -0.00849846
v 0.00819457 -0.01590540 -0.00790824
v 0.00889450 -0.01677040 0.00728451
v 0.00853416 -0.01691868 0.00622459
v 0.00543729 -0.01624728 0.00526510
v 0.00471377 -0.01614740 0.00451419
v 0.00473170 -0.01616130 0.00429479
v 0.00710599 -0.01559905 -0.00849846
v 0.00212912 -0.01471553 -0.00840884
v 0.00288659 -0.01331249 -0.00839802
v -0.00054704 -0.01471553 0.00331366
v -0.00044233 -0.01454922 0.00429479
v -0.00020367 -0.01416564 0.00573171
v 0.00017365 -0.01354624 0.00716863
v 0.00021421 -0.01347983 0.00728451
v 0.00257813 -0.01326976 -0.00830532
v 0.00210271 -0.01321364 -0.00809519
v 0.00187820 -0.01319150 -0.00796386
v 0.00166407 -0.01317142 -0.00781708
v 0.00111129 -0.01313229 -0.00729329
v 0.00095942 -0.01312508 -0.00709707
v 0.00091037 -0.01312353 -0.00702754
v 0.00089056 -0.01312302 -0.00699818
v 0.00060851 -0.01312096 -0.00645586
v 0.00052078 -0.01312662 -0.00620092
v 0.00040381 -0.01315957 -0.00549791
v -0.00041309 -0.01450494 -0.00549791
v -0.00046780 -0.01458990 -0.00288673
v -0.00056119 -0.01473612 0.00297529
v 0.00185273 -0.01544820 0.00336774
v 0.00389215 -0.01594865 0.00297529
v 0.00221968 -0.01529631 -0.00278630
v 0.00221685 -0.01528961 -0.00288673
v 0.00467604 -0.01583796 -0.00288673
v 0.00000291 -0.01459350 -0.00561534
v -0.00029140 -0.01447714 -0.00622565
v -0.00000086 -0.01448023 -0.00688076
v 0.00009347 -0.01448538 -0.00702754
v 0.00023308 -0.01449465 -0.00722068
v 0.00141598 -0.01477783 -0.00702754
v -0.00037347 -0.01448692 -0.00587337
v 0.00076227 -0.01453944 -0.00774909
v 0.00106884 -0.01457188 -0.00796695
v 0.00176783 -0.01466147 -0.00830378
v 0.00740219 -0.01635541 0.00728451
v 0.00575235 -0.01600529 0.00682408
v 0.00503921 -0.01606502 0.00560656
v 0.00637776 -0.01644242 0.00560656
v 0.00476943 -0.01608716 0.00514304
v 0.00221307 -0.01545695 0.00430715
v 0.00220835 -0.01545695 0.00429479
v 0.00467038 -0.01606399 0.00511213
v 0.00100187 -0.01513875 0.00388225
v -0.00044139 -0.01455077 0.00429479
v -0.00040082 -0.01448589 0.00467642
v -0.00056119 -0.01473664 0.00300774
v -0.00015840 -0.01409613 0.00596347
v -0.00011500 -0.01402199 0.00612570
v -0.00022537 -0.01420529 0.00560656
v 0.00248097 -0.01464344 0.00715936
v 0.00248286 -0.01456055 0.00728451
v 0.00039438 -0.01357302 0.00728451
v 0.00147918 -0.01428767 -0.00809519
v -0.00046403 -0.01458578 -0.00346614
v 0.00182915 -0.01519333 -0.00288519
v -0.00054609 -0.01471398 0.00173150
v 0.00179142 -0.01534677 0.00416037
v 0.00575895 -0.01580964 0.00728451
v 0.00245833 -0.01521856 0.00577343
v 0.00184518 -0.01533595 0.00429479
v 0.00027364 -0.01479997 0.00429479
v 0.00018874 -0.01416564 0.00612570
v 0.00287150 -0.01473458 0.00728451
f 1 2 9
f 1 9 14
f 1 14 3
f 1 3 4
f 1 4 10
f 1 10 2
f 2 5 6
f 2 6 7
f 2 7 8
f 2 8 9
f 2 10 11
f 2 11 12
f 2 12 13
f 2 13 5
f 3 14 32
f 3 32 15
f 3 15 4
f 4 16 25
f 4 25 10
f 4 15 16
f 5 13 17
f 5 17 6
f 6 18 19
f 6 19 7
f 6 17 18
f 7 19 8
f 8 19 20
f 8 20 21
f 8 21 22
f 8 22 23
f 8 23 24
f 8 24 9
f 9 24 14
f 10 25 26
f 10 26 27
f 10 27 28
f 10 28 11
f 11 29 12
f 11 28 30
f 11 30 29
f 12 29 17
f 12 17 13
f 14 24 31
f 14 31 32
f 15 32 33
f 15 33 34
f 15 34 16
f 16 34 59
f 16 59 106
f 16 106 105
f 16 105 117
f 16 117 112
f 16 112 89
f 16 89 47
f 16 47 25
f 17 29 35
f 17 35 36
f 17 36 37
f 17 37 18
f 18 37 19
f 19 38 39
f 19 39 40
f 19 40 20
f 19 37 38
f 20 40 41
f 20 41 21
f 21 41 42
f 21 42 43
f 21 43 22
f 22 43 44
f 22 44 45
f 22 45 46
f 22 46 23
f 23 46 24
f 24 46 31
f 25 47 48
f 25 48 26
f 26 48 27
f 27 48 30
f 27 30 28
f 29 30 35
f 30 48 49
f 30 49 50
f 30 50 51
f 30 51 36
f 30 36 35
f 31 46 52
f 31 52 32
f 32 52 33
f 33 44 53
f 33 53 54
f 33 54 34
f 33 52 45
f 33 45 44
f 34 55 56
f 34 56 57
f 34 57 58
f 34 58 59
f 34 54 60
f 34 60 61
f 34 61 62
f 34 62 63
f 34 63 64
f 34 64 65
f 34 65 66
f 34 66 67
f 34 67 68
f 34 68 69
f 34 69 70
f 34 70 71
f 34 71 72
f 34 72 73
f 34 73 55
f 36 51 74
f 36 74 75
f 36 75 76
f 36 76 37
f 37 76 77
f 37 77 78
f 37 78 38
f 38 78 77
f 38 77 39
f 39 77 79
f 39 79 41
f 39 41 40
f 41 80 81
f 41 81 82
f 41 82 83
f 41 83 84
f 41 84 42
f 41 79 85
f 41 85 80
f 42 86 87
f 42 87 88
f 42 88 53
f 42 53 44
f 42 44 43
f 42 84 86
f 45 52 46
f 47 89 90
f 47 90 48
f 48 90 91
f 48 91 92
f 48 92 49
f 49 92 93
f 49 93 50
f 50 94 95
f 50 95 74
f 50 74 51
f 50 93 96
f 50 96 94
f 53 88 54
f 54 88 60
f 55 74 97
f 55 97 98
f 55 98 99
f 55 99 56
f 55 73 100
f 55 100 74
f 56 99 57
f 57 101 102
f 57 102 58
f 57 99 103
f 57 103 101
f 58 104 105
f 58 105 106
f 58 106 59
f 58 102 104
f 60 88 107
f 60 107 61
f 61 107 87
f 61 87 62
f 62 87 63
f 63 87 86
f 63 86 64
f 64 86 83
f 64 83 65
f 65 83 82
f 65 82 66
f 66 82 67
f 67 81 68
f 67 82 81
f 68 81 80
f 68 80 69
f 69 80 85
f 69 85 70
f 70 85 71
f 71 108 72
f 71 85 79
f 71 79 77
f 71 77 76
f 71 76 109
f 71 109 108
f 72 108 110
f 72 110 73
f 73 110 74
f 73 74 100
f 74 95 111
f 74 111 97
f 74 110 108
f 74 108 109
f 74 109 76
f 74 76 75
f 83 86 84
f 87 107 88
f 89 112 90
f 90 112 104
f 90 104 113
f 90 113 91
f 91 113 96
f 91 96 93
f 91 93 92
f 94 114 111
f 94 111 95
f 94 96 113
f 94 113 114
f 97 111 114
f 97 114 115
f 97 115 98
f 98 115 99
f 99 115 114
f 99 114 113
f 99 113 103
f 101 116 102
f 101 103 113
f 101 113 104
f 101 104 116
f 102 116 104
f 104 112 117
f 104 117 105

