# https://github.com/mikedh/trimesh
v 0.00701651 0.01399978 0.00336869
v 0.00969525 0.01399869 0.00336576
v 0.00874611 0.01399978 0.00336576
v 0.00550006 0.01420000 0.00021478
v 0.00647903 0.01399978 0.00336869
v 0.00701651 0.00350123 0.00336869
v 0.00969525 0.01399869 -0.00458946
v 0.00969525 0.00350014 0.00336576
v 0.00550006 0.01420000 -0.00000044
v 0.00438225 0.01420000 0.00021478
v 0.00647903 0.00350123 0.00336869
v 0.00717217 0.00350014 0.00336771
v 0.00969525 0.01399543 -0.00459338
v 0.00647903 0.01349814 -0.00662523
v 0.00874611 0.01399869 -0.00459240
v 0.00415445 0.01419891 -0.00348990
v 0.00508135 0.01419891 -0.00210370
v 0.00543064 0.01420000 -0.00035261
v 0.00647903 0.00308337 -0.00009729
v 0.00969525 0.00350014 0.00332467
v 0.00438225 0.01420000 -0.00073218
v 0.00415445 0.01419891 -0.00197946
v 0.00438225 0.01361892 0.00021478
v 0.00519308 0.00319981 -0.00197849
v 0.00969525 0.01349923 -0.00479294
v 0.00743576 0.01399869 -0.00459338
v 0.00647903 0.00350231 -0.00662523
v 0.00519254 0.01349814 -0.00662523
v 0.00701651 0.01399869 -0.00459338
v 0.00550060 0.01399760 -0.00459044
v 0.00415445 0.01352861 -0.00349088
v 0.00519254 0.00319981 -0.00361218
v 0.00647903 0.00308337 -0.00021761
v 0.00969525 0.00350123 -0.00479294
v 0.00415445 0.01352861 -0.00197946
v 0.00520230 0.00350231 -0.00662523
v 0.00519254 0.00319981 -0.00397218
v 0.00519254 0.00353605 -0.00662523
v 0.00519254 0.00350231 -0.00662131
f 1 2 3
f 1 3 4
f 1 4 10
f 1 10 5
f 1 5 11
f 1 11 6
f 1 6 8
f 1 8 2
f 2 7 9
f 2 9 4
f 2 4 3
f 2 8 20
f 2 20 34
f 2 34 25
f 2 25 13
f 2 13 7
f 4 9 18
f 4 18 21
f 4 21 10
f 5 10 23
f 5 23 11
f 6 11 12
f 6 12 8
f 7 13 14
f 7 14 15
f 7 15 16
f 7 16 17
f 7 17 18
f 7 18 9
f 8 12 19
f 8 19 33
f 8 33 20
f 10 21 16
f 10 16 22
f 10 22 35
f 10 35 23
f 11 24 19
f 11 19 12
f 11 23 24
f 13 25 14
f 14 26 15
f 14 25 34
f 14 34 27
f 14 27 36
f 14 36 38
f 14 38 28
f 14 28 29
f 14 29 26
f 15 26 16
f 16 21 18
f 16 18 17
f 16 26 29
f 16 29 30
f 16 30 28
f 16 28 31
f 16 31 35
f 16 35 22
f 19 24 32
f 19 32 37
f 19 37 33
f 20 33 34
f 23 35 24
f 24 35 32
f 27 34 37
f 27 37 36
f 28 38 31
f 28 30 29
f 31 38 39
f 31 39 37
f 31 37 32
f 31 32 35
f 33 37 34
f 36 39 38
f 36 37 39

