# https://github.com/mikedh/trimesh
v -0.00203107 0.00730802 0.00875204
v -0.00310008 0.00730802 0.00944299
v 0.00647738 0.00730720 0.00791352
v 0.00647738 0.00730720 0.00707103
v -0.00352414 0.00730802 0.00650467
v -0.00310008 0.00370043 0.00944299
v -0.00274556 0.00651608 0.00960463
v -0.00274556 0.00730720 0.00960433
v -0.00255876 0.00730720 0.00963096
v 0.00647738 0.00730679 0.00819946
v -0.00443362 0.00730802 0.00883347
v -0.00526947 0.00730720 0.00845202
v 0.00647738 0.00730679 0.00650467
v -0.00611349 0.00730802 0.00650436
v -0.00310008 0.00320034 0.00889898
v -0.00260512 0.00320075 0.00912461
v -0.00274556 0.00370084 0.00960463
v -0.00526947 0.00370084 0.00845202
v -0.00499949 0.00320116 0.00803200
v -0.00255876 0.00651608 0.00963157
v 0.00647738 0.00679850 0.00893450
v -0.00595123 0.00730802 0.00786331
v 0.00647738 0.00350080 0.00650467
v -0.00538673 0.00679932 0.00650436
v -0.00745248 0.00730802 0.00650436
v -0.00011395 0.00312082 0.00650467
v -0.00255876 0.00320075 0.00913104
v -0.00255876 0.00370084 0.00963157
v -0.00595123 0.00370125 0.00786331
v -0.00528583 0.00326101 0.00786331
v -0.00519447 0.00320075 0.00786331
v 0.00647738 0.00320075 0.00893450
v -0.00736658 0.00730802 0.00663539
v 0.00647738 0.00320116 0.00800016
v -0.00005804 0.00312164 0.00650467
v -0.00538673 0.00320157 0.00650436
v -0.00745248 0.00370125 0.00650436
v -0.00745248 0.00652428 0.00650467
v -0.00742385 0.00652428 0.00654875
v 0.00647738 0.00320075 0.00832865
v -0.00610940 0.00320075 0.00707072
v -0.00676254 0.00320157 0.00650436
v -0.00736658 0.00370125 0.00663539
v -0.00662891 0.00354466 0.00707072
v -0.00745248 0.00411771 0.00650467
v -0.00721659 0.00350162 0.00650436
f 1 2 3
f 1 3 4
f 1 4 5
f 1 5 14
f 1 14 25
f 1 25 33
f 1 33 22
f 1 22 11
f 1 11 2
f 2 6 17
f 2 17 7
f 2 7 8
f 2 8 9
f 2 9 10
f 2 10 3
f 2 11 12
f 2 12 18
f 2 18 6
f 3 10 21
f 3 21 32
f 3 32 40
f 3 40 34
f 3 34 23
f 3 23 13
f 3 13 4
f 4 13 5
f 5 13 14
f 6 15 16
f 6 16 17
f 6 18 19
f 6 19 15
f 7 17 28
f 7 28 20
f 7 20 8
f 8 20 9
f 9 20 21
f 9 21 10
f 11 22 12
f 12 22 29
f 12 29 18
f 13 23 36
f 13 36 24
f 13 24 14
f 14 24 36
f 14 36 42
f 14 42 46
f 14 46 37
f 14 37 25
f 15 26 16
f 15 19 26
f 16 26 27
f 16 27 28
f 16 28 17
f 18 29 30
f 18 30 19
f 19 30 31
f 19 31 26
f 20 28 32
f 20 32 21
f 22 33 43
f 22 43 29
f 23 34 35
f 23 35 36
f 25 37 45
f 25 45 38
f 25 38 39
f 25 39 33
f 26 35 34
f 26 34 40
f 26 40 32
f 26 32 27
f 26 31 41
f 26 41 42
f 26 42 36
f 26 36 35
f 27 32 28
f 29 43 44
f 29 44 41
f 29 41 30
f 30 41 31
f 33 39 43
f 37 43 45
f 37 46 43
f 38 45 39
f 39 45 43
f 41 44 46
f 41 46 42
f 43 46 44

