# https://github.com/mikedh/trimesh
v 0.04071396 -0.00319430 0.00799514
v 0.04559781 -0.00319430 0.00799514
v 0.04071396 -0.00319430 0.00800003
v 0.04076743 0.00577740 0.00762329
v 0.04075703 0.00400168 0.00762329
v 0.04829851 -0.00319430 0.00800003
v 0.04655126 0.00400168 0.00762329
v 0.04302631 -0.00319430 0.00849991
v 0.04071545 -0.00299934 0.00849983
v 0.04076743 0.00577740 0.00799994
v 0.04829926 0.00577740 0.00762329
v 0.04829926 -0.00127455 0.00800003
v 0.04829851 -0.00319430 0.00849991
v 0.04829926 0.00574930 0.00762329
v 0.04225404 -0.00299934 0.00849991
v 0.04072658 -0.00127543 0.00849991
v 0.04075035 0.00281172 0.00849991
v 0.04403545 0.00400080 0.00849991
v 0.04448099 0.00577740 0.00800278
v 0.04075183 0.00299877 0.00849991
v 0.04829926 0.00577740 0.00800260
v 0.04830000 0.00301370 0.00800003
v 0.04829926 -0.00127455 0.00849991
v 0.04829926 0.00400080 0.00849991
v 0.04695670 0.00577740 0.00800278
v 0.04830000 0.00301370 0.00849991
f 1 2 6
f 1 6 13
f 1 13 8
f 1 8 3
f 1 3 10
f 1 10 4
f 1 4 5
f 1 5 7
f 1 7 2
f 2 7 6
f 3 8 9
f 3 9 10
f 4 10 19
f 4 19 25
f 4 25 21
f 4 21 11
f 4 11 14
f 4 14 7
f 4 7 5
f 6 12 23
f 6 23 13
f 6 7 14
f 6 14 12
f 8 13 23
f 8 23 26
f 8 26 24
f 8 24 18
f 8 18 20
f 8 20 17
f 8 17 16
f 8 16 15
f 8 15 9
f 9 15 16
f 9 16 17
f 9 17 10
f 10 18 19
f 10 17 20
f 10 20 18
f 11 21 26
f 11 26 22
f 11 22 14
f 12 22 26
f 12 26 23
f 12 14 22
f 18 24 25
f 18 25 19
f 21 25 24
f 21 24 26

