# https://github.com/mikedh/trimesh
v 0.01205076 -0.01029978 -0.00799718
v 0.01205076 -0.00578878 -0.00799718
v 0.01270753 -0.01095748 -0.00799718
v 0.01205076 -0.01029978 0.00190105
v 0.01205076 -0.00570064 -0.00737806
v 0.01205258 -0.00570064 -0.00799718
v 0.01270753 -0.01095748 0.00190105
v 0.02248244 -0.01095748 -0.00799718
v 0.01205076 -0.00570064 0.00190105
v 0.01300125 -0.00127682 -0.00791095
v 0.01300307 -0.00127682 -0.00799718
v 0.03068840 -0.01095748 0.00190105
v 0.03068840 -0.00472831 -0.00799718
v 0.03068840 -0.01095748 -0.00799331
v 0.01300125 -0.00127682 0.00190105
v 0.03068840 -0.00127682 -0.00799718
v 0.03068840 -0.00741975 0.00190105
v 0.01747275 -0.00127682 0.00190105
v 0.03068840 -0.00127682 0.00189814
f 1 2 6
f 1 6 11
f 1 11 16
f 1 16 13
f 1 13 8
f 1 8 3
f 1 3 7
f 1 7 4
f 1 4 9
f 1 9 5
f 1 5 2
f 2 5 6
f 3 8 14
f 3 14 12
f 3 12 7
f 4 7 12
f 4 12 17
f 4 17 18
f 4 18 15
f 4 15 9
f 5 9 15
f 5 15 10
f 5 10 6
f 6 10 11
f 8 13 14
f 10 15 18
f 10 18 19
f 10 19 16
f 10 16 11
f 12 14 13
f 12 13 16
f 12 16 19
f 12 19 17
f 17 19 18

