# https://github.com/mikedh/trimesh
v 0.01200442 -0.01764389 0.00604888
v 0.01200442 -0.01759722 0.00692949
v 0.01054088 -0.01739433 0.00592090
v 0.01069663 -0.01740021 0.00415779
v 0.01200442 -0.01762735 0.00467736
v 0.01258010 -0.01760089 0.00299447
v 0.01200442 -0.01758215 0.00705747
v 0.00907596 -0.01704699 0.00614057
v 0.00907596 -0.01707971 0.00578910
v 0.00907596 -0.01710617 0.00486074
v 0.00907596 -0.01709478 0.00401261
v 0.01137557 -0.01731604 -0.00023568
v 0.01258010 -0.01752518 0.00001074
v 0.01200442 -0.01755531 0.00717781
v 0.01258010 -0.01606858 0.00299447
v 0.01200442 -0.01592854 0.01080338
v 0.01200442 -0.01653904 0.00996480
v 0.01200442 -0.01663791 0.00982726
v 0.01200442 -0.01719548 0.00858945
v 0.01200442 -0.01726054 0.00844237
v 0.01200442 -0.01733809 0.00811190
v 0.00907596 -0.01702200 0.00635261
v 0.00907562 -0.01655044 0.00811190
v 0.00907596 -0.01686396 -0.00079537
v 0.00907596 -0.01668386 -0.00336268
v 0.00907596 -0.01661880 -0.00428530
v 0.01130902 -0.01705435 -0.00376573
v 0.01258010 -0.01737669 -0.00207138
v 0.01060709 -0.01699848 0.00811190
v 0.00910237 -0.01672098 0.00773177
v 0.01258010 -0.01600058 -0.00019556
v 0.01199893 -0.01388938 0.00949871
v 0.01200442 -0.01400075 0.01080338
v 0.01095359 -0.01555916 0.01080338
v 0.00909894 -0.01522799 0.01036021
v 0.00907562 -0.01609100 0.00914341
v 0.00907562 -0.01609909 0.00913004
v 0.00907596 -0.01671436 0.00773177
v 0.00907562 -0.01528055 0.00811190
v 0.00907596 -0.01588701 -0.00849538
v 0.00907596 -0.01600169 -0.00804076
v 0.00907596 -0.01608108 -0.00770838
v 0.00907596 -0.01671069 0.00774705
v 0.01124658 -0.01651221 -0.00721364
v 0.01258010 -0.01674340 -0.00695576
v 0.01258010 -0.01727267 -0.00351167
v 0.01258010 -0.01583923 -0.00849538
v 0.01099922 -0.01388938 0.01080338
v 0.01199893 -0.01388938 0.00811190
v 0.00910889 -0.01476047 0.01080338
v 0.00907562 -0.01521550 0.01036212
v 0.00907562 -0.01522322 0.01035448
v 0.00907562 -0.01417533 0.00903835
v 0.00907596 -0.01474871 -0.00848583
v 0.00907596 -0.01583923 -0.00849538
v 0.01000088 -0.01584842 -0.00871124
v 0.01001666 -0.01585173 -0.00871124
v 0.01209980 -0.01632660 -0.00849538
v 0.01135121 -0.01648979 -0.00737219
v 0.01258010 -0.01664784 -0.00737219
v 0.01258010 -0.01583923 -0.00871124
v 0.00907562 -0.01388938 0.01080338
v 0.00969315 -0.01388938 0.00811190
v 0.01199893 -0.01474871 -0.00848583
v 0.00907562 -0.01441498 0.01080338
v 0.00907562 -0.01474798 0.01079955
v 0.00907562 -0.01393533 0.00934971
v 0.01000088 -0.01583923 -0.00871124
v 0.00907630 -0.01388938 0.00950253
v 0.00907699 -0.01388938 0.00939174
v 0.00950034 -0.01388975 0.00811190
v 0.01258010 -0.01611232 -0.00871124
v 0.01258010 -0.01638504 -0.00849538
v 0.01258010 -0.01639570 -0.00845718
v 0.01258010 -0.01648317 -0.00808851
v 0.00907562 -0.01388938 0.01047673
v 0.00907562 -0.01392871 0.00950253
f 1 2 3
f 1 3 4
f 1 4 5
f 1 5 6
f 1 6 2
f 2 7 8
f 2 8 3
f 2 6 7
f 3 9 10
f 3 10 4
f 3 8 9
f 4 10 11
f 4 11 12
f 4 12 13
f 4 13 5
f 5 13 6
f 6 14 7
f 6 13 28
f 6 28 46
f 6 46 45
f 6 45 60
f 6 60 75
f 6 75 74
f 6 74 73
f 6 73 72
f 6 72 61
f 6 61 47
f 6 47 31
f 6 31 15
f 6 15 33
f 6 33 16
f 6 16 17
f 6 17 18
f 6 18 19
f 6 19 20
f 6 20 21
f 6 21 14
f 7 14 22
f 7 22 8
f 8 22 23
f 8 23 9
f 9 23 10
f 10 23 11
f 11 23 24
f 11 24 12
f 12 24 25
f 12 25 26
f 12 26 27
f 12 27 13
f 13 27 28
f 14 21 29
f 14 29 30
f 14 30 22
f 15 31 32
f 15 32 33
f 16 33 48
f 16 48 62
f 16 62 65
f 16 65 50
f 16 50 34
f 16 34 17
f 17 34 35
f 17 35 18
f 18 35 36
f 18 36 37
f 18 37 19
f 19 37 29
f 19 29 20
f 20 29 21
f 22 30 38
f 22 38 23
f 23 39 55
f 23 55 40
f 23 40 41
f 23 41 42
f 23 42 26
f 23 26 25
f 23 25 24
f 23 38 43
f 23 43 29
f 23 29 37
f 23 37 36
f 23 36 52
f 23 52 51
f 23 51 66
f 23 66 65
f 23 65 62
f 23 62 76
f 23 76 77
f 23 77 67
f 23 67 53
f 23 53 39
f 26 42 44
f 26 44 27
f 27 44 45
f 27 45 46
f 27 46 28
f 29 43 30
f 30 43 38
f 31 47 32
f 32 48 33
f 32 47 61
f 32 61 49
f 32 49 63
f 32 63 70
f 32 70 69
f 32 69 76
f 32 76 62
f 32 62 48
f 34 50 35
f 35 50 51
f 35 51 52
f 35 52 36
f 39 53 54
f 39 54 55
f 40 55 68
f 40 68 56
f 40 56 57
f 40 57 58
f 40 58 41
f 41 59 42
f 41 58 59
f 42 59 44
f 44 59 45
f 45 59 60
f 49 61 64
f 49 64 54
f 49 54 63
f 50 65 66
f 50 66 51
f 53 67 54
f 54 64 61
f 54 61 68
f 54 68 55
f 54 67 69
f 54 69 70
f 54 70 71
f 54 71 63
f 56 68 61
f 56 61 72
f 56 72 57
f 57 72 73
f 57 73 58
f 58 73 74
f 58 74 75
f 58 75 59
f 59 75 60
f 63 71 70
f 67 77 69
f 69 77 76

