# https://github.com/mikedh/trimesh
v 0.01144056 -0.00127554 -0.01088419
v 0.01144056 -0.00127554 -0.00873796
v 0.01144056 -0.00061681 -0.01088610
v 0.01189588 -0.00127554 -0.01094656
v 0.01144268 -0.00127554 -0.00849996
v 0.01144162 -0.00011723 -0.00800061
v 0.01144162 0.00098988 -0.00799870
v 0.01144056 -0.00061681 -0.00873796
v 0.01144162 0.00397491 -0.00904905
v 0.01144162 0.00377701 -0.01089452
v 0.01144162 0.00097604 -0.01088993
v 0.01391834 -0.00127554 -0.01116581
v 0.01183447 0.00435271 -0.01094579
v 0.01192871 0.00470975 -0.01095765
v 0.01200177 0.00511107 -0.01096684
v 0.01200071 -0.00127554 -0.00800023
v 0.01266251 0.00098988 -0.00799832
v 0.01144162 0.00301865 -0.00799870
v 0.01300029 -0.00127554 -0.00799832
v 0.01144162 0.00393616 -0.00799908
v 0.01144162 0.00397491 -0.00800061
v 0.01184612 0.01286219 -0.01094732
v 0.01802891 -0.00061681 -0.01159016
v 0.01905285 -0.00127554 -0.01169500
v 0.01200177 0.00747474 -0.01096684
v 0.01200283 0.01214811 -0.01096684
v 0.01195836 0.01256328 -0.01096148
v 0.01266251 0.00176485 -0.00799832
v 0.01280864 0.00397491 -0.00799832
v 0.01200071 0.00397491 -0.00799870
v 0.02225702 -0.00127554 -0.00799832
v 0.01149669 0.00397491 -0.00799908
v 0.01186094 0.01286219 -0.00937773
v 0.01270487 0.01286219 -0.01103763
v 0.01916827 0.00301865 -0.01170533
v 0.02145968 -0.00061681 -0.01185762
v 0.02154016 -0.00127554 -0.01186260
v 0.01356256 0.01286219 -0.01112602
v 0.02221784 0.00397491 -0.00799832
v 0.02225808 -0.00127554 -0.00873796
v 0.02225702 0.00301173 -0.00799832
v 0.02225808 0.01286219 -0.00937773
v 0.01922545 0.00514844 -0.01170992
v 0.02076612 0.00514844 -0.01181324
v 0.02225702 -0.00061681 -0.01190737
v 0.02225808 -0.00127554 -0.01190698
v 0.01943511 0.01286219 -0.01172638
v 0.01928792 0.00747613 -0.01171490
v 0.02225596 0.00397491 -0.00800023
v 0.02225808 -0.00061681 -0.00873796
v 0.02225808 0.01286219 -0.01190277
v 0.01983430 0.01286219 -0.01175316
v 0.02042834 0.01286219 -0.01179028
v 0.02225808 -0.00061681 -0.01190698
v 0.02225702 0.00470975 -0.01190583
v 0.02225808 0.00470975 -0.01190583
f 1 2 8
f 1 8 3
f 1 3 4
f 1 4 12
f 1 12 24
f 1 24 37
f 1 37 46
f 1 46 40
f 1 40 31
f 1 31 19
f 1 19 16
f 1 16 5
f 1 5 2
f 2 5 6
f 2 6 7
f 2 7 18
f 2 18 8
f 3 8 21
f 3 21 9
f 3 9 10
f 3 10 11
f 3 11 4
f 4 11 10
f 4 10 13
f 4 13 14
f 4 14 15
f 4 15 12
f 5 16 6
f 6 16 7
f 7 17 28
f 7 28 18
f 7 16 19
f 7 19 17
f 8 18 20
f 8 20 21
f 9 21 22
f 9 22 10
f 10 22 13
f 12 23 24
f 12 15 25
f 12 25 26
f 12 26 23
f 13 22 27
f 13 27 14
f 14 27 15
f 15 27 25
f 17 19 31
f 17 31 41
f 17 41 39
f 17 39 29
f 17 29 28
f 18 28 29
f 18 29 30
f 18 30 20
f 20 32 21
f 20 30 32
f 21 32 33
f 21 33 22
f 22 33 42
f 22 42 51
f 22 51 53
f 22 53 52
f 22 52 47
f 22 47 38
f 22 38 34
f 22 34 27
f 23 35 24
f 23 26 35
f 24 36 37
f 24 35 36
f 25 27 26
f 26 27 38
f 26 38 35
f 27 34 38
f 29 39 42
f 29 42 33
f 29 33 30
f 30 33 32
f 31 40 50
f 31 50 41
f 35 38 43
f 35 43 44
f 35 44 36
f 36 45 37
f 36 44 45
f 37 45 46
f 38 47 48
f 38 48 43
f 39 41 49
f 39 49 42
f 40 46 54
f 40 54 56
f 40 56 51
f 40 51 42
f 40 42 50
f 41 50 42
f 41 42 49
f 43 48 44
f 44 48 52
f 44 52 53
f 44 53 45
f 45 54 46
f 45 53 55
f 45 55 56
f 45 56 54
f 47 52 48
f 51 56 55
f 51 55 53

