# https://github.com/mikedh/trimesh
v 0.05364328 -0.00634546 0.00999980
v 0.05459841 -0.00651330 0.00999980
v 0.06003801 -0.00727905 0.00869554
v 0.05364328 -0.00634546 0.00848061
v 0.05268200 -0.00634546 0.00999980
v 0.05529935 -0.00727905 0.01000000
v 0.05804457 -0.00727905 0.00960478
v 0.05896734 -0.00727905 0.00918432
v 0.05459841 -0.00651330 0.00848061
v 0.06003801 -0.01349874 0.00869554
v 0.04979967 -0.01353096 0.00800024
v 0.05268200 -0.00634546 0.00848061
v 0.04675559 -0.01127491 0.00800748
v 0.05459841 -0.00727905 0.01000000
v 0.05025259 -0.00653502 0.00999980
v 0.05529935 -0.01349874 0.01000000
v 0.05804457 -0.01349874 0.00960478
v 0.05790438 -0.01399925 0.00912520
v 0.05884564 -0.01399925 0.00869554
v 0.04979967 -0.01399850 0.00800024
v 0.04879987 -0.01353096 0.00800024
v 0.05025259 -0.00653502 0.00848061
v 0.04600844 -0.01132136 0.00800748
v 0.04537528 -0.01044996 0.00999980
v 0.05083953 -0.01184585 0.01000000
v 0.04480067 -0.00933505 0.00999961
v 0.05528857 -0.01349874 0.01000000
v 0.05529935 -0.01399925 0.00949967
v 0.04675559 -0.01400000 0.00850488
v 0.04879987 -0.01400000 0.00800024
v 0.04491775 -0.00927735 0.00850586
v 0.04600844 -0.01342531 0.00800748
v 0.04430154 -0.01020045 0.00850586
v 0.04437856 -0.00981758 0.00850586
v 0.04459424 -0.00949389 0.00850586
v 0.04525974 -0.01096396 0.00999980
v 0.05083953 -0.01186233 0.01000000
v 0.04459424 -0.00949389 0.00979251
v 0.04437702 -0.00981833 0.00957581
v 0.04432002 -0.01000639 0.00951885
v 0.04480067 -0.01044996 0.00999961
v 0.05459841 -0.01399925 0.00949967
v 0.05459841 -0.01349799 0.01000000
v 0.05083953 -0.01349799 0.00999980
v 0.04530134 -0.01349874 0.00999941
v 0.04600844 -0.01352721 0.00997123
v 0.04600844 -0.01400000 0.00850488
v 0.04600844 -0.01400000 0.00850057
v 0.04530134 -0.01399850 0.00850605
v 0.04479913 -0.01386288 0.00850605
v 0.04443402 -0.01349574 0.00850605
v 0.04430154 -0.01299898 0.00850605
v 0.04430154 -0.01044996 0.00850586
v 0.04430154 -0.01020045 0.00949967
v 0.04480067 -0.01299898 0.00999941
v 0.04486845 -0.01324923 0.00999941
v 0.04505023 -0.01343206 0.00999941
v 0.04430154 -0.01299898 0.00949967
v 0.04530134 -0.01399850 0.00949967
v 0.04480067 -0.01386513 0.00949967
v 0.04443556 -0.01349874 0.00949967
f 1 2 3
f 1 3 4
f 1 4 12
f 1 12 5
f 1 5 14
f 1 14 6
f 1 6 2
f 2 6 7
f 2 7 8
f 2 8 3
f 3 9 4
f 3 8 10
f 3 10 20
f 3 20 11
f 3 11 9
f 4 9 13
f 4 13 12
f 5 12 22
f 5 22 15
f 5 15 14
f 6 16 17
f 6 17 7
f 6 14 25
f 6 25 37
f 6 37 43
f 6 43 27
f 6 27 16
f 7 17 8
f 8 17 10
f 9 11 13
f 10 17 18
f 10 18 19
f 10 19 20
f 11 20 30
f 11 30 21
f 11 21 13
f 12 13 23
f 12 23 22
f 13 21 23
f 14 15 24
f 14 24 25
f 15 22 26
f 15 26 24
f 16 27 42
f 16 42 28
f 16 28 18
f 16 18 17
f 18 28 29
f 18 29 30
f 18 30 19
f 19 30 20
f 21 30 32
f 21 32 23
f 22 23 31
f 22 31 26
f 23 32 53
f 23 53 33
f 23 33 34
f 23 34 35
f 23 35 31
f 24 26 36
f 24 36 25
f 25 36 37
f 26 31 35
f 26 35 38
f 26 38 39
f 26 39 40
f 26 40 41
f 26 41 36
f 27 43 44
f 27 44 45
f 27 45 46
f 27 46 42
f 28 42 47
f 28 47 29
f 29 47 48
f 29 48 30
f 30 48 49
f 30 49 32
f 32 49 50
f 32 50 51
f 32 51 52
f 32 52 53
f 33 54 40
f 33 40 34
f 33 53 52
f 33 52 58
f 33 58 54
f 34 39 35
f 34 40 39
f 35 39 38
f 36 41 55
f 36 55 56
f 36 56 57
f 36 57 44
f 36 44 37
f 37 44 43
f 40 54 58
f 40 58 55
f 40 55 41
f 42 46 59
f 42 59 47
f 44 57 45
f 45 57 59
f 45 59 46
f 47 59 49
f 47 49 48
f 49 59 60
f 49 60 50
f 50 60 61
f 50 61 51
f 51 61 58
f 51 58 52
f 55 58 61
f 55 61 56
f 56 61 57
f 57 61 60
f 57 60 59

