# https://github.com/mikedh/trimesh
v 0.01200380 -0.00741057 0.00190128
v 0.01200380 -0.00741057 0.00426194
v 0.01200380 -0.00574649 0.00190128
v 0.01200487 -0.01025388 0.00190128
v 0.01200380 -0.00574649 0.00426194
v 0.01200487 -0.01025388 0.00426194
v 0.01300060 -0.00473416 0.00190128
v 0.01270787 -0.01095618 0.00190128
v 0.01223404 -0.01048290 0.00426194
v 0.01300060 -0.00473416 0.00426194
v 0.01302090 -0.00473416 0.00190128
v 0.01270787 -0.01095618 0.00426194
v 0.01746110 -0.01095618 0.00190128
v 0.01745041 -0.00473416 0.00426194
v 0.01744988 -0.00473416 0.00190290
v 0.01746110 -0.00742580 0.00190128
v 0.01746110 -0.01095618 0.00426194
v 0.01745041 -0.00473416 0.00293280
v 0.01746110 -0.00741727 0.00426194
v 0.01746110 -0.00741727 0.00190498
f 1 2 5
f 1 5 3
f 1 3 7
f 1 7 11
f 1 11 16
f 1 16 13
f 1 13 8
f 1 8 4
f 1 4 6
f 1 6 2
f 2 6 9
f 2 9 12
f 2 12 17
f 2 17 19
f 2 19 14
f 2 14 10
f 2 10 5
f 3 5 10
f 3 10 7
f 4 8 9
f 4 9 6
f 7 10 14
f 7 14 18
f 7 18 15
f 7 15 11
f 8 12 9
f 8 13 17
f 8 17 12
f 11 15 16
f 13 16 20
f 13 20 19
f 13 19 17
f 14 19 20
f 14 20 18
f 15 18 20
f 15 20 16

