# https://github.com/mikedh/trimesh
v 0.02923068 0.01627799 0.01433763
v 0.02862525 0.01624949 0.01433763
v 0.02862525 0.01593491 0.01463017
v 0.02923068 0.01571534 0.01485812
v 0.03252377 0.01567523 0.01486251
v 0.03098631 0.01625793 0.01433763
v 0.03456985 0.01608903 0.01433729
v 0.02862525 0.01369278 0.01433763
v 0.02862396 0.01082783 0.01526970
v 0.02862396 0.01082783 0.01689677
v 0.02862525 0.01571218 0.01483343
v 0.02922681 0.01422059 0.01578985
v 0.03251990 0.01418259 0.01581927
v 0.03252377 0.01623049 0.01433763
v 0.03456985 0.01412769 0.01576043
v 0.03456856 0.01469139 0.01539890
v 0.03456985 0.01561506 0.01478473
v 0.03581557 0.01557811 0.01473704
v 0.03581557 0.01598980 0.01433729
v 0.03456985 0.01359355 0.01433729
v 0.02862396 0.00549485 0.01616457
v 0.04181181 0.01222230 0.01433729
v 0.02862396 0.01009840 0.01705708
v 0.02919970 0.01009946 0.01709157
v 0.02921132 0.01159104 0.01676352
v 0.02862525 0.01132503 0.01678686
v 0.02862525 0.01173989 0.01668878
v 0.02862525 0.01243659 0.01649364
v 0.02862525 0.01275750 0.01636580
v 0.02862525 0.01421742 0.01576178
v 0.02862525 0.01448977 0.01559505
v 0.02921777 0.01243871 0.01652678
v 0.03251087 0.01240176 0.01659104
v 0.03251216 0.01280078 0.01641822
v 0.03456985 0.01235214 0.01655858
v 0.03580267 0.01232153 0.01653896
v 0.03581299 0.01409391 0.01572424
v 0.03826700 0.01399046 0.01556258
v 0.03910092 0.01395563 0.01550712
v 0.03910350 0.01542399 0.01448272
v 0.03857552 0.01564040 0.01433729
v 0.02862396 0.00549485 0.01766178
v 0.04057255 0.00549379 0.01605601
v 0.03457373 0.00549379 0.01629377
v 0.04181181 0.01501969 0.01433729
v 0.04181181 0.01082572 0.01485203
v 0.02862396 0.00972893 0.01711390
v 0.02919712 0.00972893 0.01714839
v 0.02956890 0.00972893 0.01715854
v 0.03249021 0.00972893 0.01722652
v 0.03249408 0.01006990 0.01717274
v 0.03250570 0.01155621 0.01683725
v 0.03456985 0.01182750 0.01671922
v 0.03579750 0.01148232 0.01679565
v 0.03908930 0.01136831 0.01664245
v 0.03909317 0.01219591 0.01637223
v 0.04181181 0.01236270 0.01599108
v 0.04181181 0.01379729 0.01522743
v 0.04181181 0.01405697 0.01504717
v 0.04034664 0.01534377 0.01433729
v 0.03910350 0.01556756 0.01433729
v 0.02915968 0.00549485 0.01769526
v 0.02917259 0.00685237 0.01758703
v 0.02862396 0.00685343 0.01755254
v 0.03457373 0.00549379 0.01778522
v 0.04057255 0.00549379 0.01755524
v 0.04181181 0.01082572 0.01653051
v 0.02862396 0.00768420 0.01742707
v 0.03246697 0.00682282 0.01768207
v 0.03247472 0.00768420 0.01754713
v 0.03457244 0.00768420 0.01753292
v 0.03283230 0.00972893 0.01722415
v 0.03405349 0.01082783 0.01698065
v 0.03457244 0.01003084 0.01715279
v 0.03456985 0.01151082 0.01681121
v 0.03579363 0.01082572 0.01694953
v 0.03716973 0.01082572 0.01688088
v 0.03907639 0.00991050 0.01699790
v 0.04020851 0.01082572 0.01667864
v 0.04181181 0.01123847 0.01642397
v 0.04181181 0.01138203 0.01637798
v 0.04181181 0.01205657 0.01614090
v 0.03042477 0.00549485 0.01773517
v 0.02862396 0.00739496 0.01747103
v 0.03574974 0.00549379 0.01777846
v 0.03457244 0.00549485 0.01778556
v 0.03368430 0.00549485 0.01779029
v 0.03245407 0.00549485 0.01779198
v 0.04057255 0.00666447 0.01744026
v 0.04016075 0.00549379 0.01758501
v 0.04057255 0.01064943 0.01669013
v 0.04057255 0.00985244 0.01688392
v 0.04057255 0.00951781 0.01694412
v 0.04057255 0.00839991 0.01714467
v 0.03457244 0.00679115 0.01767260
v 0.03576007 0.00677426 0.01766685
v 0.03578330 0.00951781 0.01722077
v 0.03578717 0.01000762 0.01714061
v 0.03907381 0.00951781 0.01706553
v 0.03946754 0.00951781 0.01703645
v 0.03693091 0.00549379 0.01773922
v 0.03905058 0.00670564 0.01754510
v 0.03904025 0.00549379 0.01765670
f 1 2 3
f 1 3 4
f 1 4 5
f 1 5 6
f 1 6 7
f 1 7 2
f 2 8 9
f 2 9 10
f 2 10 3
f 2 7 20
f 2 20 8
f 3 10 11
f 3 11 4
f 4 11 12
f 4 12 13
f 4 13 5
f 5 14 6
f 5 13 15
f 5 15 16
f 5 16 17
f 5 17 7
f 5 7 14
f 6 14 7
f 7 17 18
f 7 18 19
f 7 19 41
f 7 41 61
f 7 61 60
f 7 60 45
f 7 45 22
f 7 22 20
f 8 21 9
f 8 20 22
f 8 22 21
f 9 21 42
f 9 42 64
f 9 64 84
f 9 84 68
f 9 68 47
f 9 47 23
f 9 23 10
f 10 23 24
f 10 24 25
f 10 25 26
f 10 26 27
f 10 27 28
f 10 28 29
f 10 29 30
f 10 30 31
f 10 31 11
f 11 31 12
f 12 31 30
f 12 30 32
f 12 32 33
f 12 33 34
f 12 34 13
f 13 34 35
f 13 35 36
f 13 36 15
f 15 36 37
f 15 37 16
f 16 37 17
f 17 37 18
f 18 37 38
f 18 38 39
f 18 39 40
f 18 40 19
f 19 40 41
f 21 22 43
f 21 43 44
f 21 44 65
f 21 65 42
f 22 45 59
f 22 59 58
f 22 58 57
f 22 57 82
f 22 82 81
f 22 81 80
f 22 80 67
f 22 67 46
f 22 46 43
f 23 47 24
f 24 48 49
f 24 49 50
f 24 50 51
f 24 51 25
f 24 47 48
f 25 32 27
f 25 27 26
f 25 51 52
f 25 52 32
f 27 32 28
f 28 32 29
f 29 32 30
f 32 52 33
f 33 52 53
f 33 53 35
f 33 35 34
f 35 53 36
f 36 54 55
f 36 55 56
f 36 56 37
f 36 53 54
f 37 56 38
f 38 56 39
f 39 56 57
f 39 57 58
f 39 58 59
f 39 59 40
f 40 59 45
f 40 45 60
f 40 60 61
f 40 61 41
f 42 62 63
f 42 63 64
f 42 65 62
f 43 46 67
f 43 67 66
f 43 66 90
f 43 90 103
f 43 103 101
f 43 101 85
f 43 85 65
f 43 65 44
f 47 68 48
f 48 68 63
f 48 63 69
f 48 69 49
f 49 69 70
f 49 70 50
f 50 70 71
f 50 71 72
f 50 72 51
f 51 73 52
f 51 72 74
f 51 74 73
f 52 73 75
f 52 75 53
f 53 75 54
f 54 76 77
f 54 77 55
f 54 75 73
f 54 73 76
f 55 78 79
f 55 79 67
f 55 67 80
f 55 80 81
f 55 81 56
f 55 77 78
f 56 81 82
f 56 82 57
f 62 83 63
f 62 65 83
f 63 83 69
f 63 68 84
f 63 84 64
f 65 85 86
f 65 86 87
f 65 87 88
f 65 88 83
f 66 67 89
f 66 89 90
f 67 79 91
f 67 91 92
f 67 92 93
f 67 93 94
f 67 94 89
f 69 83 88
f 69 88 87
f 69 87 86
f 69 86 95
f 69 95 71
f 69 71 70
f 71 95 96
f 71 96 72
f 72 96 97
f 72 97 74
f 73 74 98
f 73 98 76
f 74 97 98
f 76 98 77
f 77 98 78
f 78 99 100
f 78 100 92
f 78 92 79
f 78 98 99
f 79 92 91
f 85 101 96
f 85 96 86
f 86 96 95
f 89 94 100
f 89 100 99
f 89 99 102
f 89 102 90
f 90 102 103
f 92 100 93
f 93 100 94
f 96 101 102
f 96 102 97
f 97 102 98
f 98 102 99
f 101 103 102

