# https://github.com/mikedh/trimesh
v 0.00970253 0.01539651 0.00336869
v 0.00970253 0.01599968 0.00336869
v 0.01295303 0.01539651 0.00336869
v 0.01295451 0.01539644 0.00336922
v 0.00975116 0.01539616 0.00691161
v 0.00723887 0.01539616 0.00788099
v 0.00721971 0.01588888 0.00336922
v 0.00720793 0.01612178 0.00336922
v 0.01295303 0.01599968 0.00336869
v 0.02225661 0.01539644 0.00336922
v 0.00999723 0.01539616 0.00691161
v 0.00723739 0.01539616 0.00797893
v 0.00720498 0.01612149 0.00750721
v 0.00720793 0.01612178 0.00542074
v 0.00905715 0.01612178 0.00336922
v 0.02225661 0.01599982 0.00336922
v 0.02225661 0.01539644 0.00759404
v 0.01295303 0.01539616 0.00729703
v 0.00723739 0.01539616 0.00799534
v 0.00720793 0.01612149 0.00799693
v 0.00723592 0.01543202 0.00799693
v 0.00867993 0.01612178 0.00542074
v 0.00961707 0.01612171 0.00877730
v 0.01178751 0.01612171 0.00849988
v 0.02225661 0.01599996 0.00666595
v 0.02225661 0.01539651 0.00849830
v 0.01295303 0.01539616 0.00849988
v 0.00723739 0.01539992 0.00799693
v 0.00908956 0.01539616 0.00849935
v 0.00888622 0.01549240 0.00855706
v 0.00888475 0.01560263 0.00855706
v 0.00888475 0.01612156 0.00855706
v 0.00999723 0.01612171 0.00877730
v 0.00961707 0.01555661 0.00877730
v 0.02225661 0.01599975 0.00849830
v 0.02225661 0.01599996 0.00699896
v 0.00999723 0.01564149 0.00877730
v 0.00999870 0.01539616 0.00849988
f 1 2 9
f 1 9 3
f 1 3 10
f 1 10 4
f 1 4 5
f 1 5 6
f 1 6 7
f 1 7 8
f 1 8 2
f 2 8 15
f 2 15 9
f 3 9 16
f 3 16 10
f 4 10 11
f 4 11 5
f 5 11 18
f 5 18 27
f 5 27 38
f 5 38 29
f 5 29 19
f 5 19 12
f 5 12 6
f 6 12 7
f 7 12 8
f 8 12 13
f 8 13 14
f 8 14 22
f 8 22 15
f 9 15 16
f 10 16 25
f 10 25 36
f 10 36 35
f 10 35 26
f 10 26 17
f 10 17 27
f 10 27 18
f 10 18 11
f 12 19 13
f 13 20 14
f 13 19 21
f 13 21 20
f 14 20 23
f 14 23 33
f 14 33 22
f 15 22 24
f 15 24 16
f 16 24 25
f 17 26 27
f 19 28 21
f 19 29 30
f 19 30 28
f 20 21 30
f 20 30 31
f 20 31 32
f 20 32 23
f 21 28 30
f 22 33 24
f 23 34 37
f 23 37 33
f 23 32 31
f 23 31 34
f 24 33 35
f 24 35 36
f 24 36 25
f 26 35 33
f 26 33 37
f 26 37 34
f 26 34 27
f 27 34 38
f 29 38 34
f 29 34 30
f 30 34 31

