# https://github.com/mikedh/trimesh
v 0.01179689 0.01120127 0.00336869
v 0.01179689 0.01120127 0.00819913
v 0.01179587 0.01330364 0.00819813
v 0.01179587 0.01330693 0.00792388
v 0.01179689 0.01330323 0.00336869
v 0.02225808 0.01120127 0.00336869
v 0.01179587 0.01331144 0.00849849
v 0.01730758 0.01120127 0.00819964
v 0.01179587 0.01534935 0.00792388
v 0.01179689 0.01539575 0.00336970
v 0.01252195 0.01539575 0.00336869
v 0.02225808 0.01330323 0.00336869
v 0.02225808 0.01120127 0.00799923
v 0.01252195 0.01421563 0.00849950
v 0.01179587 0.01539575 0.00849849
v 0.02225706 0.01350033 0.00849849
v 0.01957903 0.01349992 0.00850000
v 0.01901987 0.01349992 0.00850000
v 0.01179587 0.01539575 0.00799822
v 0.01179689 0.01539616 0.00610814
v 0.01818114 0.01539616 0.00336869
v 0.02225808 0.01330323 0.00799923
v 0.02225706 0.01539575 0.00336869
v 0.02225706 0.01386373 0.00849950
v 0.01252195 0.01539575 0.00849950
v 0.01383690 0.01539616 0.00849849
v 0.01179689 0.01539616 0.00791283
v 0.01957903 0.01357506 0.00850000
v 0.01901783 0.01539616 0.00336869
v 0.02225706 0.01539575 0.00745023
v 0.02225706 0.01539533 0.00849950
v 0.01818114 0.01539616 0.00849950
v 0.01901783 0.01539616 0.00849950
v 0.02120223 0.01539575 0.00849900
f 1 2 3
f 1 3 4
f 1 4 9
f 1 9 5
f 1 5 11
f 1 11 21
f 1 21 29
f 1 29 23
f 1 23 12
f 1 12 6
f 1 6 13
f 1 13 8
f 1 8 2
f 2 7 3
f 2 8 7
f 3 7 15
f 3 15 19
f 3 19 9
f 3 9 4
f 5 9 10
f 5 10 11
f 6 12 22
f 6 22 13
f 7 14 25
f 7 25 15
f 7 8 16
f 7 16 17
f 7 17 18
f 7 18 14
f 8 13 16
f 9 19 10
f 10 20 21
f 10 21 11
f 10 19 20
f 12 23 30
f 12 30 22
f 13 22 31
f 13 31 24
f 13 24 16
f 14 18 25
f 15 25 26
f 15 26 27
f 15 27 20
f 15 20 19
f 16 24 17
f 17 24 31
f 17 31 28
f 17 28 18
f 18 28 25
f 20 27 26
f 20 26 32
f 20 32 33
f 20 33 29
f 20 29 21
f 22 30 31
f 23 29 33
f 23 33 30
f 25 28 32
f 25 32 26
f 28 33 32
f 28 31 33
f 30 33 34
f 30 34 31
f 31 34 33

