# https://github.com/mikedh/trimesh
v -0.00940116 0.00349448 0.00176556
v -0.00909725 0.00320000 0.00176556
v -0.00920399 0.00349453 0.00243729
v -0.00772270 0.00349448 0.00176556
v -0.00881665 0.00320000 0.00176556
v -0.00889962 0.00320000 0.00243729
v -0.00841347 0.00320009 0.00409342
v -0.00868148 0.00349453 0.00421496
v -0.00761410 0.00349453 0.00243729
v -0.00463987 0.00349448 0.00650384
v -0.00772037 0.00320006 0.00176556
v -0.00761410 0.00320000 0.00243729
v -0.00760804 0.00320000 0.00247301
v -0.00598319 0.00320006 0.00650384
v -0.00699138 0.00320009 0.00630668
v -0.00721371 0.00349453 0.00649920
v -0.00598366 0.00349453 0.00519008
v -0.00598366 0.00349453 0.00650384
v -0.00463987 0.00320006 0.00650384
v -0.00676439 0.00320009 0.00650384
v -0.00720905 0.00349453 0.00650384
f 1 2 3
f 1 3 9
f 1 9 4
f 1 4 11
f 1 11 5
f 1 5 2
f 2 5 12
f 2 12 13
f 2 13 6
f 2 6 7
f 2 7 3
f 3 7 8
f 3 8 16
f 3 16 21
f 3 21 18
f 3 18 17
f 3 17 9
f 4 9 10
f 4 10 11
f 5 11 12
f 6 13 14
f 6 14 15
f 6 15 7
f 7 15 8
f 8 15 16
f 9 17 10
f 10 18 21
f 10 21 20
f 10 20 14
f 10 14 19
f 10 19 11
f 10 17 18
f 11 19 12
f 12 19 13
f 13 19 14
f 14 20 15
f 15 20 21
f 15 21 16

