# https://github.com/mikedh/trimesh
v 0.00701695 0.01349896 -0.00478460
v 0.00969510 0.01349896 -0.00479443
v 0.00650026 0.01400000 -0.00799997
v 0.00647946 0.01349896 -0.00478460
v 0.00701695 0.00350145 -0.00478460
v 0.00974757 0.01349896 -0.00592220
v 0.00874618 0.01400000 -0.00849975
v 0.00969510 0.00350251 -0.00479443
v 0.00778990 0.01400000 -0.00850594
v 0.00647946 0.01399682 -0.00850594
v 0.00647946 0.01399682 -0.00799997
v 0.00647946 0.00350145 -0.00478460
v 0.00874618 0.00317837 -0.00799997
v 0.00839138 0.00350039 -0.00479844
v 0.00974757 0.00747800 -0.00592220
v 0.00974757 0.01349896 -0.00791547
v 0.00874618 0.01400000 -0.00850594
v 0.00969702 0.00350251 -0.00592220
v 0.00647946 0.00320061 -0.00850594
v 0.00647946 0.00320167 -0.00799997
v 0.00650026 0.00317837 -0.00799997
v 0.00874618 0.00317837 -0.00849975
v 0.00974757 0.00747800 -0.00791547
v 0.00969702 0.00747800 -0.00798140
v 0.00874618 0.00320061 -0.00850594
v 0.00969702 0.00350251 -0.00798140
v 0.00650026 0.00317837 -0.00849975
v 0.00647946 0.00320061 -0.00850121
f 1 2 3
f 1 3 4
f 1 4 12
f 1 12 5
f 1 5 8
f 1 8 2
f 2 6 7
f 2 7 3
f 2 8 15
f 2 15 6
f 3 7 17
f 3 17 9
f 3 9 10
f 3 10 11
f 3 11 4
f 4 11 10
f 4 10 19
f 4 19 28
f 4 28 20
f 4 20 12
f 5 12 21
f 5 21 13
f 5 13 14
f 5 14 8
f 6 15 23
f 6 23 16
f 6 16 17
f 6 17 7
f 8 14 13
f 8 13 18
f 8 18 15
f 9 17 25
f 9 25 19
f 9 19 10
f 12 20 21
f 13 21 27
f 13 27 22
f 13 22 26
f 13 26 18
f 15 18 26
f 15 26 23
f 16 23 26
f 16 26 24
f 16 24 17
f 17 24 26
f 17 26 25
f 19 25 22
f 19 22 27
f 19 27 21
f 19 21 28
f 20 28 21
f 22 25 26

