# https://github.com/mikedh/trimesh
v 0.03068840 -0.01510233 -0.01215054
v 0.03068840 -0.01399549 -0.01215054
v 0.03077991 -0.01399549 -0.01215029
v 0.03410802 -0.01512897 -0.01213708
v 0.03101376 -0.01579748 -0.01201153
v 0.03068840 -0.01579748 -0.01201227
v 0.03068840 -0.01399549 -0.00960572
v 0.03159838 -0.01399549 -0.01214705
v 0.03410293 -0.01579748 -0.01200405
v 0.03391992 -0.01399549 -0.01213783
v 0.03410802 -0.01399549 -0.01213708
v 0.03416902 -0.01399549 -0.01213534
v 0.03757678 -0.01399549 -0.01200654
v 0.03914933 -0.01512597 -0.01194625
v 0.03914255 -0.01579748 -0.01181297
v 0.03068840 -0.01579748 -0.00960572
v 0.04526160 -0.01399549 -0.00960572
v 0.03902393 -0.01399549 -0.01195173
v 0.03912560 -0.01399549 -0.01194750
v 0.03960686 -0.01399549 -0.01191486
v 0.04064901 -0.01399549 -0.01184337
v 0.04089811 -0.01399549 -0.01182593
v 0.04412455 -0.01514061 -0.01159100
v 0.04410930 -0.01579748 -0.01146121
v 0.04794578 -0.01579748 -0.00960572
v 0.04699852 -0.01400008 -0.00960572
v 0.04699852 -0.01400008 -0.01130974
v 0.04519890 -0.01399549 -0.01146968
v 0.04146240 -0.01399549 -0.01178557
v 0.04406015 -0.01399549 -0.01159673
v 0.04450074 -0.01399549 -0.01155737
v 0.04457700 -0.01399549 -0.01155039
v 0.04520568 -0.01399796 -0.01149185
v 0.04529888 -0.01400008 -0.01148288
v 0.04800000 -0.01519247 -0.01119888
v 0.04800000 -0.01578073 -0.01110994
v 0.04748316 -0.01579748 -0.01115354
v 0.04799831 -0.01579748 -0.01110446
v 0.04800000 -0.01579554 -0.00960572
v 0.04738149 -0.01407610 -0.00960572
v 0.04738149 -0.01407575 -0.01126814
v 0.04749841 -0.01450014 -0.01125518
v 0.04519381 -0.01399549 -0.01149285
v 0.04770515 -0.01429165 -0.01123226
v 0.04800000 -0.01499985 -0.01119888
v 0.04800000 -0.01499985 -0.00960572
v 0.04757636 -0.01420628 -0.00960572
v 0.04770515 -0.01429253 -0.00960572
v 0.04783563 -0.01448568 -0.00960572
v 0.04792205 -0.01461568 -0.01120760
v 0.04792205 -0.01461674 -0.00960572
f 1 2 3
f 1 3 4
f 1 4 5
f 1 5 6
f 1 6 16
f 1 16 7
f 1 7 2
f 2 7 17
f 2 17 28
f 2 28 43
f 2 43 32
f 2 32 31
f 2 31 30
f 2 30 29
f 2 29 22
f 2 22 21
f 2 21 20
f 2 20 19
f 2 19 18
f 2 18 13
f 2 13 12
f 2 12 11
f 2 11 10
f 2 10 8
f 2 8 3
f 3 8 4
f 4 9 5
f 4 8 10
f 4 10 11
f 4 11 12
f 4 12 13
f 4 13 14
f 4 14 15
f 4 15 9
f 5 9 15
f 5 15 24
f 5 24 37
f 5 37 38
f 5 38 25
f 5 25 16
f 5 16 6
f 7 16 25
f 7 25 39
f 7 39 46
f 7 46 51
f 7 51 49
f 7 49 48
f 7 48 47
f 7 47 40
f 7 40 26
f 7 26 17
f 13 18 14
f 14 18 19
f 14 19 20
f 14 20 21
f 14 21 22
f 14 22 23
f 14 23 15
f 15 23 24
f 17 26 27
f 17 27 28
f 22 29 23
f 23 29 30
f 23 30 31
f 23 31 32
f 23 32 33
f 23 33 34
f 23 34 35
f 23 35 36
f 23 36 24
f 24 36 37
f 25 38 39
f 26 40 41
f 26 41 27
f 27 41 42
f 27 42 34
f 27 34 43
f 27 43 28
f 32 43 33
f 33 43 34
f 34 42 35
f 35 42 44
f 35 44 45
f 35 45 46
f 35 46 39
f 35 39 36
f 36 39 38
f 36 38 37
f 40 47 44
f 40 44 41
f 41 44 42
f 44 47 48
f 44 48 49
f 44 49 50
f 44 50 45
f 45 50 46
f 46 50 51
f 49 51 50

