# https://github.com/mikedh/trimesh
v -0.00745196 0.00730843 0.00650462
v -0.00611417 0.00730843 0.00650462
v -0.00736793 0.00730843 0.00663524
v -0.00745196 0.01349957 0.00650462
v -0.00215320 0.00825950 0.00873773
v -0.00282079 0.00730908 0.00848552
v -0.00575470 0.00730843 0.00688216
v -0.00611366 0.01029592 0.00650462
v -0.00708263 0.00730843 0.00688216
v -0.00641815 0.00730908 0.00745828
v -0.00707693 0.00825950 0.00688777
v -0.00736793 0.01349957 0.00663524
v -0.00721750 0.01369870 0.00650462
v -0.00215320 0.01029527 0.00873773
v -0.00215838 0.01029592 0.00968921
v -0.00519603 0.00730908 0.00848552
v -0.00611366 0.01400000 0.00650462
v -0.00526969 0.00730908 0.00845185
v -0.00527021 0.00825950 0.00845185
v -0.00668218 0.01029592 0.00722976
v -0.00707693 0.01029527 0.00688777
v -0.00708004 0.01349957 0.00688465
v -0.00632530 0.01400000 0.00688403
v -0.00676310 0.01400000 0.00650462
v -0.00215838 0.01399542 0.00873710
v -0.00215838 0.01399935 0.00908845
v -0.00215838 0.01399935 0.00918915
v -0.00215838 0.01349957 0.00968921
v -0.00274817 0.01029592 0.00960472
v -0.00575211 0.01400000 0.00688403
v -0.00215942 0.01399935 0.00873710
v -0.00527021 0.01349957 0.00845185
v -0.00499944 0.01399935 0.00803222
v -0.00260708 0.01399935 0.00912462
v -0.00274817 0.01349957 0.00960472
f 1 2 7
f 1 7 9
f 1 9 3
f 1 3 12
f 1 12 4
f 1 4 13
f 1 13 24
f 1 24 17
f 1 17 8
f 1 8 2
f 2 5 6
f 2 6 7
f 2 8 5
f 3 9 10
f 3 10 11
f 3 11 21
f 3 21 12
f 4 12 13
f 5 8 17
f 5 17 14
f 5 14 28
f 5 28 15
f 5 15 6
f 6 16 9
f 6 9 7
f 6 15 16
f 9 16 18
f 9 18 10
f 10 18 19
f 10 19 20
f 10 20 11
f 11 20 21
f 12 22 23
f 12 23 24
f 12 24 13
f 12 21 20
f 12 20 22
f 14 17 25
f 14 25 26
f 14 26 27
f 14 27 28
f 15 28 35
f 15 35 29
f 15 29 16
f 16 19 18
f 16 29 19
f 17 30 31
f 17 31 25
f 17 24 23
f 17 23 30
f 19 29 35
f 19 35 32
f 19 32 20
f 20 32 22
f 22 32 23
f 23 33 34
f 23 34 27
f 23 27 30
f 23 32 33
f 25 31 26
f 26 31 30
f 26 30 27
f 27 34 35
f 27 35 28
f 32 35 33
f 33 35 34

